<?xml version='1.0' encoding='UTF-8'?>
<svg viewBox="-3.7505 -1.9998 32 31.9975" xmlns="http://www.w3.org/2000/svg">
  <g transform="matrix(0.0547, 0, 0, 0.0547, 0, 0)">
    <path d="M352, 64L241.12, 64C244.44, 49.6 250.87, 36.12 260.58, 24.72C263.35, 21.47 263.39, 16.74 260.37, 13.72L249.04, 2.39C245.82, -0.83 240.42, -0.84 237.42, 2.59C222.04, 20.1 212.15, 41.26 208.32, 64L96, 64C42.98, 64 0, 106.98 0, 160L0, 192C0, 209.67 14.33, 224 32, 224L32, 256C32, 354.06 87.4, 443.7 175.11, 487.55L224, 512L272.89, 487.55C360.6, 443.7 416, 354.06 416, 256L416, 224C433.67, 224 448, 209.67 448, 192L448, 160C448, 106.98 405.02, 64 352, 64zM384, 256C384, 342.49 335.94, 420.25 258.58, 458.93L224, 476.22L189.42, 458.93C112.06, 420.25 64, 342.49 64, 256L64, 224L384, 224L384, 256zM416, 192L32, 192L32, 160C32, 124.71 60.71, 96 96, 96L352, 96C387.29, 96 416, 124.71 416, 160L416, 192z" fill="#727272" fill-opacity="1" class="Black" />
  </g>
</svg>