<?xml version='1.0' encoding='UTF-8'?>
<svg viewBox="-2 -1.9988 32 32" xmlns="http://www.w3.org/2000/svg">
  <g transform="matrix(0.0547, 0, 0, 0.0547, 0, 0)">
    <path d="M464, 64L48, 64C21.5, 64 0, 85.5 0, 112L0, 400C0, 426.5 21.5, 448 48, 448L464, 448C490.5, 448 512, 426.5 512, 400L512, 112C512, 85.5 490.5, 64 464, 64zM480, 400C480, 408.82 472.82, 416 464, 416L48, 416C39.18, 416 32, 408.82 32, 400L32, 112C32, 103.18 39.18, 96 48, 96L464, 96C472.82, 96 480, 103.18 480, 112L480, 400zM408, 160L392, 160C387.58, 160 384, 163.58 384, 168L384, 232.88C374.55, 227.38 363.72, 224 352, 224C316.65, 224 288, 252.65 288, 288C288, 323.35 316.65, 352 352, 352C363.72, 352 374.55, 348.62 384, 343.12L384, 344C384, 348.42 387.58, 352 392, 352L408, 352C412.42, 352 416, 348.42 416, 344L416, 168C416, 163.58 412.42, 160 408, 160zM352, 320C334.36, 320 320, 305.64 320, 288C320, 270.36 334.36, 256 352, 256C369.64, 256 384, 270.36 384, 288C384, 305.64 369.64, 320 352, 320zM196.97, 165.13A8.007 8.007 0 0 0 189.5, 160L162.49, 160C159.18, 160 156.21, 162.04 155.02, 165.13L87.33, 341.13C85.31, 346.37 89.18, 352 94.8, 352L111.95, 352C115.26, 352 118.23, 349.96 119.42, 346.87L142.07, 288L209.93, 288L232.57, 346.87A8.007 8.007 0 0 0 240.04, 352L257.19, 352C262.81, 352 266.67, 346.37 264.66, 341.13L196.97, 165.13zM154.37, 256L176, 199.77L197.63, 256L154.37, 256z" fill="#727272" fill-opacity="1" class="Black" />
  </g>
</svg>