<?xml version='1.0' encoding='UTF-8'?>
<svg viewBox="-3.7495 -2 32 32" xmlns="http://www.w3.org/2000/svg">
  <g transform="matrix(0.0547, 0, 0, 0.0547, 0, 0)">
    <path d="M436, 160C442.6, 160 448, 154.6 448, 148L448, 108C448, 101.4 442.6, 96 436, 96L416, 96L416, 64C416, 28.7 387.3, 0 352, 0L64, 0C28.7, 0 0, 28.7 0, 64L0, 448C0, 483.3 28.7, 512 64, 512L352, 512C387.3, 512 416, 483.3 416, 448L416, 416L436, 416C442.6, 416 448, 410.6 448, 404L448, 364C448, 357.4 442.6, 352 436, 352L416, 352L416, 288L436, 288C442.6, 288 448, 282.6 448, 276L448, 236C448, 229.4 442.6, 224 436, 224L416, 224L416, 160L436, 160zM384, 448C384, 465.6 369.6, 480 352, 480L64, 480C46.4, 480 32, 465.6 32, 448L32, 64C32, 46.4 46.4, 32 64, 32L352, 32C369.6, 32 384, 46.4 384, 64L384, 448zM208, 272C252.2, 272 288, 236.2 288, 192C288, 147.8 252.2, 112 208, 112C163.8, 112 128, 147.8 128, 192C128, 236.2 163.8, 272 208, 272zM208, 144C234.5, 144 256, 165.5 256, 192C256, 218.5 234.5, 240 208, 240C181.5, 240 160, 218.5 160, 192C160, 165.5 181.5, 144 208, 144zM254.8, 288C235.3, 288 230.4, 295 208, 295C185.6, 295 180.7, 288 161.2, 288C140, 288 119.4, 297.4 107.4, 315.4C100.2, 326.1 96, 339 96, 352.9L96, 392C96, 396.4 99.6, 400 104, 400L120, 400C124.4, 400 128, 396.4 128, 392L128, 352.9C128, 345.9 130.1, 339.1 134, 333.3C139.6, 325 149.8, 320.1 161.3, 320.1C173.7, 320.1 182.1, 327.1 208.1, 327.1C234, 327.1 242.4, 320.1 254.9, 320.1C266.4, 320.1 276.6, 325.1 282.2, 333.3C286.1, 339.1 288.2, 345.9 288.2, 352.9L288.2, 392C288.2, 396.4 291.8, 400 296.2, 400L312.2, 400C316.6, 400 320.2, 396.4 320.2, 392L320.2, 352.9C320.2, 339 316, 326.1 308.8, 315.4C296.5, 297.4 275.9, 288 254.8, 288z" fill="#727272" fill-opacity="1" class="Black" />
  </g>
</svg>