<?xml version='1.0' encoding='UTF-8'?>
<svg viewBox="-2.0011 -1.9998 32 31.9975" xmlns="http://www.w3.org/2000/svg">
  <g transform="matrix(0.0547, 0, 0, 0.0547, 0, 0)">
    <path d="M344, 272L272, 272L272, 200A8 8 0 0 0 264, 192L248, 192A8 8 0 0 0 240, 200L240, 272L168, 272A8 8 0 0 0 160, 280L160, 296A8 8 0 0 0 168, 304L240, 304L240, 376A8 8 0 0 0 248, 384L264, 384A8 8 0 0 0 272, 376L272, 304L344, 304A8 8 0 0 0 352, 296L352, 280A8 8 0 0 0 344, 272zM32, 112A80.09 80.09 0 0 1 112, 32A79.23 79.23 0 0 1 162, 50A253.22 253.22 0 0 1 196.44, 39.2C175.89, 15.42 145.86, 0 112, 0A112.14 112.14 0 0 0 0, 112C0, 137.86 9.17, 161.41 24, 180.39A255.93 255.93 0 0 1 41.4, 148.75A78.94 78.94 0 0 1 32, 112zM400, 0C366.14, 0 336.11, 15.42 315.56, 39.25A253.22 253.22 0 0 1 350, 50.05A79.23 79.23 0 0 1 400, 32.05A80.09 80.09 0 0 1 480, 112.05A78.94 78.94 0 0 1 470.64, 148.8A255.93 255.93 0 0 1 488, 180.39C502.79, 161.39 512, 137.86 512, 112A112.14 112.14 0 0 0 400, 0zM256, 64C132.29, 64 32, 164.29 32, 288A222.89 222.89 0 0 0 86.84, 434.54L34.34, 487A8 8 0 0 0 34.34, 498.32L45.65, 509.63A8 8 0 0 0 56.97, 509.63L109.46, 457.13A223.21 223.21 0 0 0 402.54, 457.13L455, 509.66A8 8 0 0 0 466.32, 509.66L477.63, 498.35A8 8 0 0 0 477.63, 487.03L425.13, 434.54A222.89 222.89 0 0 0 480, 288C480, 164.29 379.71, 64 256, 64zM256, 480C150.13, 480 64, 393.87 64, 288C64, 182.13 150.13, 96 256, 96C361.87, 96 448, 182.13 448, 288C448, 393.87 361.87, 480 256, 480z" fill="#727272" fill-opacity="1" class="Black" />
  </g>
</svg>