<?xml version='1.0' encoding='UTF-8'?>
<svg viewBox="-2 0 32 32" xmlns="http://www.w3.org/2000/svg">
  <g transform="matrix(0.0625, 0, 0, 0.0625, 0, 0)">
    <path d="M224, 416C312.22, 416 384, 344.22 384, 256C384, 167.78 312.22, 96 224, 96C135.78, 96 64, 167.78 64, 256C64, 344.22 135.78, 416 224, 416zM224, 128A128 128 0 1 1 96, 256A128.14 128.14 0 0 1 224, 128zM224, 280A24 24 0 1 0 200, 256A24 24 0 0 0 224, 280zM416, 32L32, 32A32 32 0 0 0 0, 64L0, 448A32 32 0 0 0 32, 480L416, 480A32 32 0 0 0 448, 448L448, 64A32 32 0 0 0 416, 32zM416, 448L32, 448L32, 64L416, 64z" fill="#727272" fill-opacity="1" class="Black" />
  </g>
</svg>