<?xml version='1.0' encoding='UTF-8'?>
<svg viewBox="-1.9999 -4.8014 31.9975 32" xmlns="http://www.w3.org/2000/svg">
  <g transform="matrix(1.001, 0, 0, 1.001, 0, 0)">
    <g transform="matrix(0.0437, 0, 0, 0.0437, 0, 0)">
      <path d="M631.98, 64L535.06, 64L534.82, 63.7C540.21, 54.25 543.2, 43.38 543.2, 32C543.2, 14.33 528.87, 0 511.2, 0L400, 0C330.82, 0 274.62, 55.26 272.41, 123.92C236.72, 114.71 209.3, 89.21 190.9, 47.31C186.9, 38.15 177.84, 32.15 167.87, 32C157.34, 32.2 149.03, 37.36 144.74, 46.39C133.63, 69.94 128, 95.08 128, 121.09C128, 196.47 184.56, 264.69 260.87, 282.99C265.29, 284.05 269.73, 281.03 270.57, 276.56L273.54, 260.86C274.34, 256.64 271.61, 252.69 267.44, 251.66C205.69, 236.47 160, 181.6 160, 121.09C160, 104.78 162.72, 88.9 168.06, 73.71C197.38, 130.23 244.1, 160 303.94, 160L304, 128C304, 74.98 346.98, 32 400, 32L511.2, 32C511.2, 45.29 503.1, 56.66 491.57, 61.5L511.96, 86.28L512.01, 180.16A16 16 0 0 1 501.18, 195.31L475.66, 204.02C466.33, 207.21 459.52, 201.26 457.18, 197.75L432, 160L384, 144L384, 244.21C384, 270.88 371.35, 294.38 352, 309.81L352, 480L288, 480L288, 318.69L183.57, 295.48L151.45, 384.95L175.53, 480L118, 480L96.87, 392.14A31.698 31.698 0 0 1 97.24, 375.96L124.87, 282.55C107.46, 270.37 96, 250.24 96, 227.37C96, 211.55 101.68, 197.19 110.82, 185.69C105.88, 174.85 101.84, 163.65 99.42, 151.96C91.33, 158.9 84.23, 166.98 78.66, 176.14C35.11, 176.87 0, 212.27 0, 256L0, 312C0, 316.42 3.58, 320 8, 320L24, 320C28.42, 320 32, 316.42 32, 312L32, 256C32, 234.5 46.23, 216.52 65.72, 210.41C64.76, 215.95 64.01, 221.56 64.01, 227.37C64.01, 251.57 72.91, 274.7 88.54, 292.61L66.57, 366.88C63.45, 377.65 63.19, 388.91 65.77, 399.62L86.9, 487.48C90.34, 501.86 103.21, 512 118, 512L175.53, 512C196.48, 512 211.65, 492.25 206.55, 472.14L184.87, 386.57L204.16, 332.84L256, 344.36L256, 480C256, 497.67 270.33, 512 288, 512L352, 512C369.67, 512 384, 497.67 384, 480L384, 323.8C404.5, 302.3 416, 274.05 416, 244.21L416, 193.69L430.55, 215.51C449.66, 244.18 480.53, 236.18 486, 234.31L511.52, 225.6C530.96, 218.97 544.02, 200.71 544.01, 180.16L543.98, 115.33L636.43, 78.67C643.01, 74.27 639.9, 64 631.98, 64zM464.01, 96C464.01, 87.16 456.85, 80 448.01, 80C439.17, 80 432.01, 87.16 432.01, 96C432.01, 104.84 439.17, 112 448.01, 112C456.84, 112 464.01, 104.84 464.01, 96z" fill="#727272" fill-opacity="1" class="Black" />
    </g>
  </g>
</svg>