<?xml version='1.0' encoding='UTF-8'?>
<svg viewBox="-2 0 32 32" xmlns="http://www.w3.org/2000/svg">
  <g transform="matrix(0.0625, 0, 0, 0.0625, 0, 0)">
    <path d="M280, 48L8, 48A8 8 0 0 0 0, 56L0, 72A8 8 0 0 0 8, 80L280, 80A8 8 0 0 0 288, 72L288, 56A8 8 0 0 0 280, 48zM440, 432L8, 432A8 8 0 0 0 0, 440L0, 456A8 8 0 0 0 8, 464L440, 464A8 8 0 0 0 448, 456L448, 440A8 8 0 0 0 440, 432zM280, 304L8, 304A8 8 0 0 0 0, 312L0, 328A8 8 0 0 0 8, 336L280, 336A8 8 0 0 0 288, 328L288, 312A8 8 0 0 0 280, 304zM440, 176L8, 176A8 8 0 0 0 0, 184L0, 200A8 8 0 0 0 8, 208L440, 208A8 8 0 0 0 448, 200L448, 184A8 8 0 0 0 440, 176z" fill="#727272" fill-opacity="1" class="Black" />
  </g>
</svg>