<?xml version='1.0' encoding='UTF-8'?>
<svg viewBox="-2.0625 0 32 32" xmlns="http://www.w3.org/2000/svg">
  <g transform="matrix(0.0625, 0, 0, 0.0625, 0, 0)">
    <path d="M439, 48L7, 48A8 8 0 0 0 -1, 56L-1, 72A8 8 0 0 0 7, 80L439, 80A8 8 0 0 0 447, 72L447, 56A8 8 0 0 0 439, 48zM439, 432L7, 432A8 8 0 0 0 -1, 440L-1, 456A8 8 0 0 0 7, 464L439, 464A8 8 0 0 0 447, 456L447, 440A8 8 0 0 0 439, 432zM439, 304L7, 304A8 8 0 0 0 -1, 312L-1, 328A8 8 0 0 0 7, 336L439, 336A8 8 0 0 0 447, 328L447, 312A8 8 0 0 0 439, 304zM439, 176L7, 176A8 8 0 0 0 -1, 184L-1, 200A8 8 0 0 0 7, 208L439, 208A8 8 0 0 0 447, 200L447, 184A8 8 0 0 0 439, 176z" fill="#727272" fill-opacity="1" class="Black" />
  </g>
</svg>