<?xml version='1.0' encoding='UTF-8'?>
<svg viewBox="-3.7517 -1.9998 32 31.9975" xmlns="http://www.w3.org/2000/svg">
  <g transform="matrix(0.0547, 0, 0, 0.0547, 0, 0)">
    <path d="M240, 416C231.2, 416 224, 423.2 224, 432C224, 440.8 231.2, 448 240, 448C248.8, 448 256, 440.8 256, 432C256, 423.2 248.8, 416 240, 416zM336, 416C327.2, 416 320, 423.2 320, 432C320, 440.8 327.2, 448 336, 448C344.8, 448 352, 440.8 352, 432C352, 423.2 344.8, 416 336, 416zM176, 384C167.2, 384 160, 391.2 160, 400C160, 408.8 167.2, 416 176, 416C184.8, 416 192, 408.8 192, 400C192, 391.2 184.8, 384 176, 384zM368, 288C359.2, 288 352, 295.2 352, 304C352, 312.8 359.2, 320 368, 320C376.8, 320 384, 312.8 384, 304C384, 295.2 376.8, 288 368, 288zM304, 352C295.2, 352 288, 359.2 288, 368C288, 376.8 295.2, 384 304, 384C312.8, 384 320, 376.8 320, 368C320, 359.2 312.8, 352 304, 352zM240, 320C231.2, 320 224, 327.2 224, 336C224, 344.8 231.2, 352 240, 352C248.8, 352 256, 344.8 256, 336C256, 327.2 248.8, 320 240, 320zM176, 288C167.2, 288 160, 295.2 160, 304C160, 312.8 167.2, 320 176, 320C184.8, 320 192, 312.8 192, 304C192, 295.2 184.8, 288 176, 288zM392, 112C383.4, 112 375.3, 113.9 368, 117.4L368, 88C368, 57.1 342.9, 32 312, 32C302.3, 32 293.2, 34.5 285.3, 38.8C278, 16.3 256.9, 0 232, 0C207.1, 0 186, 16.3 178.7, 38.8C170.8, 34.5 161.7, 32 152, 32C121.1, 32 96, 57.1 96, 88L96, 240.8C84.5, 229 53.9, 213.1 23.9, 234.1C-1.4, 251.8 -7.6, 286.8 10.1, 312.1L123.8, 483.4C135.7, 501.3 155.6, 512 177.1, 512L357.7, 512C388.1, 512 414.5, 490.4 420.5, 460.6L441.1, 357.4C445.6, 334.7 447.9, 311.5 447.9, 288.4L447.9, 168C448, 137.1 422.9, 112 392, 112zM416, 288.3C416, 309.4 413.9, 330.4 409.8, 351.1L389.2, 454.3C386.2, 469.3 373.1, 480 357.8, 480L177.2, 480C166.5, 480 156.5, 474.6 150.5, 465.7L36.3, 293.8C28.7, 282.9 31.3, 268 42.2, 260.4C58, 249.3 72.2, 261.4 75.6, 266.3L113.4, 320.7C117.9, 327.1 128, 324 128, 316.1L128, 88C128, 74.7 138.7, 64 152, 64C165.3, 64 176, 74.7 176, 88L176, 248C176, 252.4 179.6, 256 184, 256L200, 256C204.4, 256 208, 252.4 208, 248L208, 56C208, 42.7 218.7, 32 232, 32C245.3, 32 256, 42.7 256, 56L256, 248C256, 252.4 259.6, 256 264, 256L280, 256C284.4, 256 288, 252.4 288, 248L288, 88C288, 74.7 298.7, 64 312, 64C325.3, 64 336, 74.7 336, 88L336, 248C336, 252.4 339.6, 256 344, 256L360, 256C364.4, 256 368, 252.4 368, 248L368, 168C368, 154.7 378.7, 144 392, 144C405.3, 144 416, 154.7 416, 168L416, 288.3z" fill="#727272" fill-opacity="1" class="Black" />
  </g>
</svg>