<?xml version='1.0' encoding='UTF-8'?>
<svg viewBox="-1.9974 -4.7994 32 31.9975" xmlns="http://www.w3.org/2000/svg">
  <g transform="matrix(0.9989, 0, 0, 0.9989, 0, 0)">
    <g transform="matrix(0.0438, 0, 0, 0.0438, 0, 0)">
      <path d="M635.9, 213.3C635.9, 213.2 594.6, 130.2 594.6, 130.2C585, 110.9 561, 101.7 540.2, 112.2L484.9, 140.2L405.9, 132.8C400.8, 132.3 373.4, 132.1 346.6, 148.6C339.1, 134.2 328.1, 128.1 313.7, 122.5C330.7, 90 306.8, 45.5 261.9, 51.7C263.5, 24.2 241.8, 0 213.4, 0C202.1, 0 191.1, 4 182.3, 11.2C137.3, 48.4 108.2, 101.1 100.6, 158.9L68, 218.1L19.9, 245.7C1.7, 256.5 -5.1, 279.6 4.1, 298.8C4.1, 298.9 45.4, 381.9 45.4, 381.9C55, 401.2 79, 410.4 99.8, 399.9L155.1, 371.9C236.2, 379.4 236.3, 379.4 237.8, 379.4C257.7, 379.4 276.9, 373.7 293.4, 363.5C298.1, 372.6 305.6, 379.9 314.9, 384.6C317.5, 385.9 321.9, 387.9 326.2, 389.6C309.3, 421.9 333.1, 466.6 378, 460.4C376.4, 488.2 398.7, 511.9 426.6, 511.9C437.9, 511.9 449, 507.9 457.7, 500.6C502.7, 463.3 531.7, 410.7 539.4, 353L572, 293.8C572, 293.8 620, 266.2 620.1, 266.2C638.3, 255.5 645.1, 232.4 635.9, 213.3zM296.3, 186.4C275.9, 176.1 251.8, 174.7 230.2, 182.4C221.8, 185.4 223.9, 197.9 232.9, 197.9C266.3, 197.9 291.8, 213 304.8, 240.5C314, 259.9 285, 275.4 274.8, 254.8C267.8, 240.4 253.6, 231.4 237.8, 231.4C215.2, 231.4 196.9, 249.9 196.9, 272.5C196.9, 297.9 218.1, 313.6 237.8, 313.6C253.6, 313.6 267.8, 304.6 274.8, 290.2C274.8, 290.2 274.8, 290.1 274.9, 290.1C284.3, 269.9 314.3, 284.7 304.9, 304.5C292.6, 330.4 266.5, 347.2 238.2, 347.3C233.5, 346.9 174.2, 341.4 151.2, 339.3C149.7, 339.2 148.2, 339.4 146.9, 340.1L85.5, 371.2C81.4, 373.3 76.3, 371.7 74.2, 367.6L74.2, 367.5L33.1, 284.7C31.1, 280.5 32.5, 275.4 36.4, 273.1L90.1, 242.3C91.4, 241.6 92.4, 240.5 93.1, 239.2L131.1, 170.1C131.6, 169.2 131.9, 168.2 132, 167.1C137.7, 115.4 162.9, 68.8 202.9, 35.7C219.5, 21.8 241.6, 47 223.9, 61.8C211.4, 72.5 200.8, 84.2 192.4, 96.6C187.5, 103.9 196.3, 112.7 203.5, 107.7C223.4, 94.1 245.3, 85.7 268.7, 82.9C277.3, 81.8 285.8, 87.2 287.2, 97.5C288.4, 106.8 282.1, 115.2 272.8, 116.2C257.4, 118.1 242.6, 123.2 228.8, 131.5C221.1, 136.1 225.8, 148.1 234.6, 146.2C258.9, 140.8 287.4, 144.5 310.8, 155.9C331.4, 166.3 315.4, 195.8 296.3, 186.4zM248, 272.6C246, 275.9 244.4, 281.7 237.8, 281.7C235, 281.7 228.9, 279.4 228.9, 272.6C228.9, 267.5 232.8, 263.5 237.8, 263.5C244.4, 263.4 245.9, 269.1 248, 272.6zM603.8, 238.7L550.1, 269.5C548.8, 270.2 547.8, 271.3 547.1, 272.6L509.1, 341.7C508.6, 342.6 508.3, 343.6 508.2, 344.7C502.5, 396.4 477.3, 443 437.2, 476.2C420.7, 490 398.5, 464.8 416.2, 450.1C428.7, 439.4 439.3, 427.8 447.7, 415.3C452.7, 407.9 443.7, 399.3 436.6, 404.2C416.7, 417.8 394.8, 426.2 371.5, 429C349.9, 431.7 345.3, 398.2 367.3, 395.7C382.7, 393.8 397.5, 388.7 411.3, 380.4C419, 375.8 414.3, 363.8 405.5, 365.7C381.2, 371.1 352.7, 367.4 329.3, 356C308.5, 345.5 324.8, 316.2 343.7, 325.5C364.1, 335.8 388.2, 337.2 409.9, 329.5C418.3, 326.5 416.2, 314 407.2, 314C373.8, 314 348.3, 298.9 335.3, 271.4C325.9, 251.6 355.8, 236.8 365.3, 257L365.4, 257.1C372.4, 271.5 386.6, 280.5 402.4, 280.5C425, 280.5 443.3, 262 443.3, 239.4C443.3, 214 422.1, 198.3 402.4, 198.3C386.6, 198.3 372.4, 207.3 365.4, 221.7L365.3, 221.8C355.9, 242 325.9, 227.3 335.3, 207.4C347.8, 181.1 373.9, 164.7 403.5, 164.6L489, 172.6C490.5, 172.7 492, 172.5 493.4, 171.8L554.8, 140.7C558.9, 138.6 564, 140.2 566.1, 144.3L566.1, 144.4L607.2, 227.2C609.1, 231.4 607.7, 236.4 603.8, 238.7zM392, 239.4C393.9, 236.1 395.5, 230.3 402.2, 230.3C405, 230.3 411.1, 232.6 411.1, 239.4C411.1, 244.5 407.2, 248.5 402.2, 248.5C395.6, 248.6 394.1, 242.9 392, 239.4z" fill="#727272" fill-opacity="1" class="Black" />
    </g>
  </g>
</svg>