<?xml version='1.0' encoding='UTF-8'?>
<svg viewBox="-1.9998 -3.5563 31.9975 32" xmlns="http://www.w3.org/2000/svg">
  <g transform="matrix(0.0486, 0, 0, 0.0486, 0, 0)">
    <path d="M80, 352L16, 352C7.16, 352 0, 359.16 0, 368L0, 496C0, 504.84 7.16, 512 16, 512L80, 512C88.84, 512 96, 504.84 96, 496L96, 368C96, 359.16 88.84, 352 80, 352zM64, 480L32, 480L32, 384L64, 384L64, 480zM560, 192L496, 192C487.16, 192 480, 199.16 480, 208L480, 496C480, 504.84 487.16, 512 496, 512L560, 512C568.84, 512 576, 504.84 576, 496L576, 208C576, 199.16 568.84, 192 560, 192zM544, 480L512, 480L512, 224L544, 224L544, 480zM502.77, 88.68C510.12, 93.24 518.71, 96 528, 96C554.51, 96 576, 74.51 576, 48C576, 21.49 554.51, 0 528, 0C501.49, 0 480, 21.49 480, 48C480, 53.51 481.12, 58.71 482.83, 63.64L393.23, 135.32C385.88, 130.75 377.29, 127.99 368, 127.99C358.71, 127.99 350.12, 130.75 342.77, 135.32L253.17, 63.64C254.88, 58.72 256, 53.51 256, 48C256, 21.49 234.51, 0 208, 0C181.49, 0 160, 21.49 160, 48C160, 55.4 161.81, 62.32 164.8, 68.58L68.58, 164.8C62.32, 161.81 55.4, 160 48, 160C21.49, 160 0, 181.49 0, 208C0, 234.51 21.49, 256 48, 256C74.51, 256 96, 234.51 96, 208C96, 200.6 94.19, 193.68 91.2, 187.42L187.42, 91.2C193.68, 94.19 200.6, 96 208, 96C217.29, 96 225.88, 93.24 233.23, 88.67L322.83, 160.35C321.12, 165.28 320, 170.49 320, 176C320, 202.51 341.49, 224 368, 224C394.51, 224 416, 202.51 416, 176C416, 170.49 414.88, 165.28 413.17, 160.35L502.77, 88.68zM528, 32C536.82, 32 544, 39.18 544, 48C544, 56.82 536.82, 64 528, 64C519.18, 64 512, 56.82 512, 48C512, 39.18 519.18, 32 528, 32zM48, 224C39.18, 224 32, 216.82 32, 208C32, 199.18 39.18, 192 48, 192C56.82, 192 64, 199.18 64, 208C64, 216.82 56.82, 224 48, 224zM208, 64C199.18, 64 192, 56.82 192, 48C192, 39.18 199.18, 32 208, 32C216.82, 32 224, 39.18 224, 48C224, 56.82 216.82, 64 208, 64zM368, 192C359.18, 192 352, 184.82 352, 176C352, 167.18 359.18, 160 368, 160C376.82, 160 384, 167.18 384, 176C384, 184.82 376.82, 192 368, 192zM240, 192L176, 192C167.16, 192 160, 199.16 160, 208L160, 496C160, 504.84 167.16, 512 176, 512L240, 512C248.84, 512 256, 504.84 256, 496L256, 208C256, 199.16 248.84, 192 240, 192zM224, 480L192, 480L192, 224L224, 224L224, 480zM400, 320L336, 320C327.16, 320 320, 327.16 320, 336L320, 496C320, 504.84 327.16, 512 336, 512L400, 512C408.84, 512 416, 504.84 416, 496L416, 336C416, 327.16 408.84, 320 400, 320zM384, 480L352, 480L352, 352L384, 352L384, 480z" fill="#727272" fill-opacity="1" class="Black" />
  </g>
</svg>