<?xml version='1.0' encoding='UTF-8'?>
<svg viewBox="-1.9498 -3.5081 32 32" xmlns="http://www.w3.org/2000/svg">
  <g transform="matrix(0.0488, 0, 0, 0.0488, 0, 0)">
    <path d="M504.485, 264.485C499.799, 259.799 492.201, 259.799 487.514, 264.485L420.485, 331.514C412.925, 339.074 418.279, 351.999 428.97, 351.999L478.099, 351.999C461.111, 420.749 390.501, 473.6 304, 479.452L304, 192L356, 192C362.627, 192 368, 186.627 368, 180L368, 172C368, 165.373 362.627, 160 356, 160L304, 160L304, 125.984C332.513, 118.645 353.336, 92.151 351.933, 61.037C350.453, 28.226 323.832, 1.579 291.022, 0.07C254.302, -1.619 224, 27.652 224, 64C224, 93.821 244.396, 118.879 272, 125.984L272, 160L220, 160C213.373, 160 208, 165.373 208, 172L208, 180C208, 186.627 213.373, 192 220, 192L272, 192L272, 479.452C185.498, 473.6 114.888, 420.749 97.901, 352L147.03, 352C157.721, 352 163.075, 339.074 155.515, 331.515L88.486, 264.485C83.8, 259.799 76.202, 259.799 71.515, 264.485L4.486, 331.515C-3.074, 339.074 2.28, 352 12.971, 352L65.107, 352C83.963, 448.392 182.863, 512 288, 512C398.901, 512 492.938, 443.787 510.893, 352L563.029, 352C573.72, 352 579.074, 339.074 571.514, 331.515L504.485, 264.485zM256, 64C256, 46.355 270.355, 32 288, 32C305.645, 32 320, 46.355 320, 64C320, 81.645 305.645, 96 288, 96C270.355, 96 256, 81.645 256, 64zM61.255, 320L80, 301.255L98.745, 320L61.255, 320zM477.255, 320L496, 301.255L514.745, 320L477.255, 320z" fill="#727272" fill-opacity="1" class="Black" />
  </g>
</svg>