<?xml version='1.0' encoding='UTF-8'?>
<svg viewBox="-3.0573 9.8792 32 31.9975" xmlns="http://www.w3.org/2000/svg">
  <g transform="matrix(0.1011, 0, 0, 0.1011, 0, 0)">
    <path d="M119.5, 262.9L3.5, 145.1C-1.2, 140.4 -1.2, 132.8 3.5, 128.1L10.6, 121C15.3, 116.3 22.9, 116.3 27.6, 121L128, 223.3L228.4, 121.1C233.1, 116.4 240.7, 116.4 245.4, 121.1L252.5, 128.2C257.2, 132.9 257.2, 140.5 252.5, 145.2L136.5, 263C131.8, 267.6 124.2, 267.6 119.5, 262.9zM136.5, 390.9L252.5, 273.1C257.2, 268.4 257.2, 260.8 252.5, 256.1L245.4, 249C240.7, 244.3 233.1, 244.3 228.4, 249L128, 351.3L27.6, 249.1C22.9, 244.4 15.3, 244.4 10.6, 249.1L3.5, 256.2C-1.2, 260.9 -1.2, 268.5 3.5, 273.2L119.5, 391C124.2, 395.6 131.8, 395.6 136.5, 390.9z" fill="#727272" fill-opacity="1" class="Black" />
  </g>
</svg>