<?xml version='1.0' encoding='UTF-8'?>
<svg viewBox="-3.0573 9.8867 32 32" xmlns="http://www.w3.org/2000/svg">
  <g transform="matrix(0.1011, 0, 0, 0.1011, 0, 0)">
    <path d="M136.5, 249.1L252.5, 366.9C257.2, 371.6 257.2, 379.2 252.5, 383.9L245.4, 391C240.7, 395.7 233.1, 395.7 228.4, 391L128, 288.7L27.6, 390.9C22.9, 395.6 15.3, 395.6 10.6, 390.9L3.5, 383.8C-1.2, 379.1 -1.2, 371.5 3.5, 366.8L119.5, 249C124.2, 244.4 131.8, 244.4 136.5, 249.1zM119.5, 121.1L3.5, 238.9C-1.2, 243.6 -1.2, 251.2 3.5, 255.9L10.6, 263C15.3, 267.7 22.9, 267.7 27.6, 263L128, 160.7L228.4, 262.9C233.1, 267.6 240.7, 267.6 245.4, 262.9L252.5, 255.8C257.2, 251.1 257.2, 243.5 252.5, 238.8L136.5, 121C131.8, 116.4 124.2, 116.4 119.5, 121.1z" fill="#727272" fill-opacity="1" class="Black" />
  </g>
</svg>