<?xml version='1.0' encoding='UTF-8'?>
<svg viewBox="0.1798 9.8814 32 32" xmlns="http://www.w3.org/2000/svg">
  <g transform="matrix(0.1011, 0, 0, 0.1011, 0, 0)">
    <path d="M153.1, 247.5L270.9, 131.5C275.6, 126.8 283.2, 126.8 287.9, 131.5L295, 138.6C299.7, 143.3 299.7, 150.9 295, 155.6L192.7, 256L294.9, 356.4C299.6, 361.1 299.6, 368.7 294.9, 373.4L287.8, 380.5C283.1, 385.2 275.5, 385.2 270.8, 380.5L153, 264.5C148.4, 259.8 148.4, 252.2 153.1, 247.5zM25.1, 264.5L142.9, 380.5C147.6, 385.2 155.2, 385.2 159.9, 380.5L167, 373.4C171.7, 368.7 171.7, 361.1 167, 356.4L64.7, 256L166.9, 155.6C171.6, 150.9 171.6, 143.3 166.9, 138.6L159.8, 131.5C155.1, 126.8 147.5, 126.8 142.8, 131.5L25, 247.5C20.4, 252.2 20.4, 259.8 25.1, 264.5z" fill="#727272" fill-opacity="1" class="Black" />
  </g>
</svg>