<?xml version='1.0' encoding='UTF-8'?>
<svg viewBox="-1.9999 -1.549 31.9975 32" xmlns="http://www.w3.org/2000/svg">
  <g transform="matrix(0.999, 0, 0, 0.999, 0, 0)">
    <g transform="matrix(0.0565, 0, 0, 0.0565, 0, 0)">
      <path d="M248, 8C111, 8 0, 119 0, 256C0, 393 111, 504 248, 504C385, 504 496, 393 496, 256C496, 119 385, 8 248, 8zM248, 472C128.9, 472 32, 375.1 32, 256C32, 136.9 128.9, 40 248, 40C367.1, 40 464, 136.9 464, 256C464, 375.1 367.1, 472 248, 472zM248, 336C216.8, 336 187.4, 349.8 167.4, 373.8C161.7, 380.6 162.6, 390.7 169.4, 396.3C176.2, 401.9 186.3, 401.1 191.9, 394.3C219.8, 360.9 276.1, 360.9 304, 394.3C309.3, 400.7 319.4, 402.3 326.5, 396.3C333.3, 390.6 334.2, 380.5 328.5, 373.8C308.6, 349.8 279.2, 336 248, 336zM200, 240C200, 237.1 199.1, 234.4 198.3, 231.8C198.9, 231.9 199.4, 232 200, 232C206.9, 232 213.2, 227.5 215.3, 220.6C217.9, 212.1 213.1, 203.2 204.6, 200.7L124.6, 176.7C116.2, 174.2 107.2, 179 104.7, 187.4C102.1, 195.9 106.9, 204.8 115.4, 207.3L146.4, 216.6C140.1, 222.4 135.9, 230.7 135.9, 240C135.9, 257.7 150.2, 272 167.9, 272C185.6, 272 200, 257.7 200, 240zM371.4, 176.7L291.4, 200.7C282.9, 203.2 278.1, 212.2 280.7, 220.6C282.8, 227.5 289.1, 232 296, 232C296.6, 232 297.1, 231.8 297.7, 231.8C297, 234.5 296, 237.1 296, 240C296, 257.7 310.3, 272 328, 272C345.7, 272 360, 257.7 360, 240C360, 230.7 355.9, 222.5 349.5, 216.6L380.5, 207.3C389, 204.8 393.8, 195.8 391.2, 187.4C388.8, 178.9 379.8, 174.2 371.4, 176.7z" fill="#727272" fill-opacity="1" class="Black" />
    </g>
  </g>
</svg>