<?xml version='1.0' encoding='UTF-8'?>
<svg viewBox="-7.2499 -2 32 32" xmlns="http://www.w3.org/2000/svg">
  <g transform="matrix(0.0547, 0, 0, 0.0547, 0, 0)">
    <path d="M312, 288L215.42, 288C252.22, 252.06 288, 191.63 288, 137.14C288, 52.98 230.69, 0 160, 0C89.31, 0 32, 52.98 32, 137.14C32, 191.63 67.78, 252.05 104.58, 288L8, 288C3.58, 288 0, 291.58 0, 296L0, 312C0, 316.42 3.58, 320 8, 320L144, 320L144, 504C144, 508.42 147.58, 512 152, 512L168, 512C172.42, 512 176, 508.42 176, 504L176, 320L312, 320C316.42, 320 320, 316.42 320, 312L320, 296C320, 291.58 316.42, 288 312, 288zM64, 137.14C64, 75.24 103.48, 32 160, 32C216.52, 32 256, 75.24 256, 137.14C256, 208.92 180.75, 286.16 160.21, 288L160.18, 288C139.25, 286.16 64, 208.93 64, 137.14z" fill="#727272" fill-opacity="1" class="Black" />
  </g>
</svg>