<?xml version='1.0' encoding='UTF-8'?>
<svg viewBox="-2 -1.9988 32 32" xmlns="http://www.w3.org/2000/svg">
  <g transform="matrix(0.0547, 0, 0, 0.0547, 0, 0)">
    <path d="M402.22, 50.47C413.51, 38.28 416.65, 18.44 415.44, 0.25C402.56, -0.61 379.77, 0.13 365.42, 13.53C348.89, 30.13 351.65, 59.89 352.2, 63.75C370.67, 64.98 389.97, 61.9 402.22, 50.47zM496, 224L470.51, 224C473.27, 215.89 475.68, 207.44 477.25, 198.18C490.88, 124.84 452.05, 42.15 351.69, 98.3C286.01, 61.55 257.14, 90.66 255.95, 91.58C254.76, 90.66 225.67, 61.56 160.01, 98.3C59.44, 42.04 20.98, 125.78 34.44, 198.18C36, 207.44 38.42, 215.89 41.18, 224L16, 224C7.16, 224 0, 231.16 0, 240L0, 496C0, 504.84 7.16, 512 16, 512L496, 512C504.84, 512 512, 504.84 512, 496L512, 240C512, 231.16 504.84, 224 496, 224zM336.06, 126.23L351.68, 134.97L367.3, 126.23C422.04, 95.6 434.41, 122.54 435.06, 123.48C447.1, 140.9 449.57, 171.96 445.69, 192.85C443.71, 204.56 440.18, 214.61 436.02, 224L278.82, 224C281.58, 215.89 284, 207.44 285.56, 198.18C289.82, 175.28 288.08, 141.71 275.58, 116.06C290.39, 105.45 326.4, 120.82 336.06, 126.23zM76.75, 123.43C77.4, 122.49 89.62, 95.59 144.38, 126.23L160, 134.97L175.62, 126.23C230.36, 95.6 242.73, 122.54 243.38, 123.48C255.42, 140.9 257.89, 171.96 254.01, 192.85C252.03, 204.56 248.5, 214.62 244.34, 224L75.66, 224C71.49, 214.55 67.93, 204.37 65.89, 192.34C62.07, 171.73 65.08, 140.32 76.75, 123.43zM480, 480L32, 480L32, 384L480, 384L480, 480zM480, 352L32, 352L32, 256L480, 256L480, 352zM80, 320C88.84, 320 96, 312.84 96, 304C96, 295.16 88.84, 288 80, 288C71.16, 288 64, 295.16 64, 304C64, 312.84 71.16, 320 80, 320zM80, 448C88.84, 448 96, 440.84 96, 432C96, 423.16 88.84, 416 80, 416C71.16, 416 64, 423.16 64, 432C64, 440.84 71.16, 448 80, 448zM432, 320C440.84, 320 448, 312.84 448, 304C448, 295.16 440.84, 288 432, 288C423.16, 288 416, 295.16 416, 304C416, 312.84 423.16, 320 432, 320zM432, 448C440.84, 448 448, 440.84 448, 432C448, 423.16 440.84, 416 432, 416C423.16, 416 416, 423.16 416, 432C416, 440.84 423.16, 448 432, 448zM210.53, 50.47C221.82, 38.28 224.96, 18.44 223.75, 0.25C210.87, -0.61 188.08, 0.13 173.73, 13.53C157.2, 30.13 159.96, 59.89 160.51, 63.75C178.98, 64.98 198.28, 61.9 210.53, 50.47z" fill="#727272" fill-opacity="1" class="Black" />
  </g>
</svg>