<?xml version='1.0' encoding='UTF-8'?>
<svg viewBox="-1.9998 -3.5563 31.9975 32" xmlns="http://www.w3.org/2000/svg">
  <g transform="matrix(0.0486, 0, 0, 0.0486, 0, 0)">
    <path d="M568, 32C572.4, 32 576, 28.4 576, 24L576, 8C576, 3.6 572.4, 0 568, 0L8, 0C3.6, 0 0, 3.6 0, 8L0, 24C0, 28.4 3.6, 32 8, 32L32, 32L32, 480L8, 480C3.6, 480 0, 483.6 0, 488L0, 504C0, 508.4 3.6, 512 8, 512L176, 512C184.84, 512 192, 504.84 192, 496L192, 320C192, 267.06 235.06, 224 288, 224C340.94, 224 384, 267.06 384, 320L384, 480L384.02, 496C384.02, 504.84 391.18, 512 400.02, 512L568, 512C572.4, 512 576, 508.4 576, 504L576, 488C576, 483.6 572.4, 480 568, 480L544, 480L544, 32L568, 32zM512, 480L416, 480L416, 320C416, 249.42 358.59, 192 288, 192C217.41, 192 160, 249.42 160, 320L160, 480L64, 480L64, 128L512, 128L512, 480zM512, 96L64, 96L64, 32L512, 32L512, 96z" fill="#727272" fill-opacity="1" class="Black" />
  </g>
</svg>