<?xml version='1.0' encoding='UTF-8'?>
<svg viewBox="-2 -1.9988 32 32" xmlns="http://www.w3.org/2000/svg">
  <g transform="matrix(0.0547, 0, 0, 0.0547, 0, 0)">
    <path d="M464, 32L48, 32C21.5, 32 0, 53.5 0, 80L0, 144C0, 152.8 7.2, 160 16, 160L32, 160L32, 432C32, 458.5 53.5, 480 80, 480L432, 480C458.5, 480 480, 458.5 480, 432L480, 160L496, 160C504.8, 160 512, 152.8 512, 144L512, 80C512, 53.5 490.5, 32 464, 32zM448, 432C448, 440.8 440.8, 448 432, 448L80, 448C71.2, 448 64, 440.8 64, 432L64, 160L448, 160L448, 432zM480, 128L32, 128L32, 80C32, 71.2 39.2, 64 48, 64L464, 64C472.8, 64 480, 71.2 480, 80L480, 128zM204, 256L308, 256C314.6, 256 320, 250.6 320, 244L320, 236C320, 229.4 314.6, 224 308, 224L204, 224C197.4, 224 192, 229.4 192, 236L192, 244C192, 250.6 197.4, 256 204, 256z" fill="#727272" fill-opacity="1" class="Black" />
  </g>
</svg>