<?xml version='1.0' encoding='UTF-8'?>
<svg viewBox="-4 0 32 32" xmlns="http://www.w3.org/2000/svg">
  <g transform="matrix(0.0625, 0, 0, 0.0625, 0, 0)">
    <path d="M35.5, 184L183.5, 35.5C188.2, 30.8 195.8, 30.8 200.5, 35.5L348.5, 184C353.2, 188.7 353.2, 196.3 348.5, 201L341.4, 208.1C336.7, 212.8 329.1, 212.8 324.4, 208.1L209, 92.1L209, 404C209, 410.6 203.6, 416 197, 416L187, 416C180.4, 416 175, 410.6 175, 404L175, 92.1L59.6, 208C54.9, 212.7 47.3, 212.7 42.6, 208L35.5, 200.9C30.8, 196.3 30.8, 188.7 35.5, 184zM384, 468L384, 460C384, 453.4 378.6, 448 372, 448L12, 448C5.4, 448 0, 453.4 0, 460L0, 468C0, 474.6 5.4, 480 12, 480L372, 480C378.6, 480 384, 474.6 384, 468z" fill="#727272" fill-opacity="1" class="Black" />
  </g>
</svg>