<?xml version='1.0' encoding='UTF-8'?>
<svg viewBox="-10.7459 -1.9974 31.995 32" xmlns="http://www.w3.org/2000/svg">
  <g transform="matrix(0.0547, 0, 0, 0.0547, 0, 0)">
    <path d="M160, 384L113, 384L113, 128L160, 128C188.4, 128 202.8, 93.5 182.6, 73.4L118.6, 9.4C106.1, -3.1 85.8, -3.1 73.3, 9.4L9.3, 73.4C-10.7, 93.5 3.5, 128 32, 128L79, 128L79, 384L32, 384C3.6, 384 -10.8, 418.5 9.4, 438.6L73.4, 502.6C85.9, 515.1 106.2, 515.1 118.7, 502.6L182.7, 438.6C202.7, 418.5 188.5, 384 160, 384zM32, 100C28.5, 100 26.6, 95.7 29.2, 93.2L93.2, 29.2C94.8, 27.6 97.3, 27.6 98.8, 29.2L162.8, 93.2C165.3, 95.7 163.5, 100 160, 100zM162.8, 418.8L98.8, 482.8C97.2, 484.4 94.7, 484.4 93.2, 482.8L29.2, 418.8C26.7, 416.3 28.5, 412 32, 412L160, 412C163.5, 412 165.3, 416.3 162.8, 418.8z" fill="#727272" fill-opacity="1" class="Black" />
  </g>
</svg>