<?xml version='1.0' encoding='UTF-8'?>
<svg viewBox="-4.001 -0.0002 32 32" xmlns="http://www.w3.org/2000/svg">
  <g transform="matrix(0.0625, 0, 0, 0.0625, 0, 0)">
    <path d="M348.5, 328L200.5, 476.5C195.8, 481.2 188.2, 481.2 183.5, 476.5L35.5, 328C30.8, 323.3 30.8, 315.7 35.5, 311L42.6, 303.9C47.3, 299.2 54.9, 299.2 59.6, 303.9L175, 419.9L175, 108C175, 101.4 180.4, 96 187, 96L197, 96C203.6, 96 209, 101.4 209, 108L209, 419.9L324.4, 304C329.1, 299.3 336.7, 299.3 341.4, 304L348.5, 311.1C353.2, 315.7 353.2, 323.3 348.5, 328zM0, 44L0, 52C0, 58.6 5.4, 64 12, 64L372, 64C378.6, 64 384, 58.6 384, 52L384, 44C384, 37.4 378.6, 32 372, 32L12, 32C5.4, 32 0, 37.4 0, 44z" fill="#727272" fill-opacity="1" class="Black" />
  </g>
</svg>