<?xml version='1.0' encoding='UTF-8'?>
<svg viewBox="-2 -0.0014 32 32" xmlns="http://www.w3.org/2000/svg">
  <g transform="matrix(0.0625, 0, 0, 0.0625, 0, 0)">
    <path d="M296, 99.5L444.5, 247.5C449.2, 252.2 449.2, 259.8 444.5, 264.5L296, 412.5C291.3, 417.2 283.7, 417.2 279, 412.5L271.9, 405.4C267.2, 400.7 267.2, 393.1 271.9, 388.4L387.9, 273L76, 273C69.4, 273 64, 267.6 64, 261L64, 251C64, 244.4 69.4, 239 76, 239L387.9, 239L272, 123.6C267.3, 118.9 267.3, 111.3 272, 106.6L279.1, 99.5C283.7, 94.8 291.3, 94.8 296, 99.5zM12, 448L20, 448C26.6, 448 32, 442.6 32, 436L32, 76C32, 69.4 26.6, 64 20, 64L12, 64C5.4, 64 0, 69.4 0, 76L0, 436C0, 442.6 5.4, 448 12, 448z" fill="#727272" fill-opacity="1" class="Black" />
  </g>
</svg>