<?xml version='1.0' encoding='UTF-8'?>
<svg viewBox="-2 -0.0002 32 32" xmlns="http://www.w3.org/2000/svg">
  <g transform="matrix(0.0625, 0, 0, 0.0625, 0, 0)">
    <path d="M216.464, 36.465L209.393, 43.535C204.707, 48.221 204.707, 55.819 209.393, 60.506L387.887, 239L12, 239C5.373, 239 0, 244.373 0, 251L0, 261C0, 267.627 5.373, 273 12, 273L387.887, 273L209.393, 451.494C204.707, 456.18 204.707, 463.778 209.393, 468.465L216.464, 475.535C221.15, 480.221 228.748, 480.221 233.434, 475.535L444.485, 264.485C449.171, 259.799 449.171, 252.201 444.485, 247.514L233.434, 36.465C228.748, 31.778 221.15, 31.778 216.464, 36.465z" fill="#727272" fill-opacity="1" class="Black" />
  </g>
</svg>