<?xml version='1.0' encoding='UTF-8'?>
<svg viewBox="-1.9998 -1.9973 32 32" xmlns="http://www.w3.org/2000/svg">
  <g transform="matrix(0.0547, 0, 0, 0.0547, 0, 0)">
    <path d="M502.3, 232.7L435.8, 166.2C415.1, 145.5 379.5, 160.2 379.5, 189.5L379.5, 240L272, 240L272, 132.4L322.5, 132.4C351.8, 132.4 366.6, 96.9 345.8, 76.1L279.3, 9.7C266.4, -3.2 245.5, -3.2 232.7, 9.7L166.2, 76.2C145.5, 96.9 160.2, 132.5 189.5, 132.5L240, 132.5L240, 240L132.4, 240L132.4, 189.5C132.4, 160.2 96.9, 145.4 76.1, 166.2L9.7, 232.7C-3.2, 245.6 -3.2, 266.5 9.7, 279.3L76.2, 345.8C96.9, 366.5 132.5, 351.8 132.5, 322.5L132.5, 272L240, 272L240, 379.6L189.5, 379.6C160.2, 379.6 145.4, 415.1 166.2, 435.9L232.7, 502.4C245.6, 515.3 266.5, 515.3 279.3, 502.4L345.8, 435.9C366.5, 415.2 351.8, 379.6 322.5, 379.6L272, 379.6L272, 272L379.6, 272L379.6, 322.5C379.6, 351.8 415.1, 366.6 435.9, 345.8L502.4, 279.3C515.2, 266.4 515.2, 245.6 502.3, 232.7zM103.6, 322.5C103.6, 326.2 99.2, 328 96.6, 325.4L30.1, 258.9C28.5, 257.3 28.5, 254.7 30.1, 253.1L96.6, 186.6C99.2, 184 103.6, 185.9 103.6, 189.5zM322.5, 408.4C326.2, 408.4 328, 412.8 325.4, 415.4L258.9, 481.9C257.3, 483.5 254.7, 483.5 253.1, 481.9L186.6, 415.4C184, 412.8 185.9, 408.4 189.5, 408.4zM189.5, 103.6C185.8, 103.6 184, 99.2 186.6, 96.6L253.1, 30.1C254.7, 28.5 257.3, 28.5 258.9, 30.1L325.4, 96.6C328, 99.2 326.1, 103.6 322.5, 103.6zM481.9, 258.9L415.4, 325.4C412.8, 328 408.4, 326.1 408.4, 322.5L408.4, 189.6C408.4, 185.9 412.8, 184.1 415.4, 186.7L481.9, 253.2C483.6, 254.7 483.6, 257.3 481.9, 258.9z" fill="#727272" fill-opacity="1" class="Black" />
  </g>
</svg>