<?xml version='1.0' encoding='UTF-8'?>
<svg viewBox="-2.0073 -0.0005 31.9975 32" xmlns="http://www.w3.org/2000/svg">
  <g transform="matrix(0.0625, 0, 0, 0.0625, 0, 0)">
    <path d="M443.5, 248.5L436.4, 241.4C431.7, 236.7 424.1, 236.7 419.4, 241.4L241, 419.9L241, 44C241, 37.4 235.6, 32 229, 32L219, 32C212.4, 32 207, 37.4 207, 44L207, 419.9L28.5, 241.4C23.8, 236.7 16.2, 236.7 11.5, 241.4L4.4, 248.5C-0.3, 253.2 -0.3, 260.8 4.4, 265.5L215.4, 476.6C220.1, 481.3 227.7, 481.3 232.4, 476.6L443.4, 265.5C448.2, 260.7 448.2, 253.2 443.5, 248.5z" fill="#727272" fill-opacity="1" class="Black" />
  </g>
</svg>