<?xml version='1.0' encoding='UTF-8'?>
<svg viewBox="-2 0 32 32" xmlns="http://www.w3.org/2000/svg">
  <g transform="matrix(0.0625, 0, 0, 0.0625, 0, 0)">
    <path d="M236.5, 132.5L351.6, 247.5C356.3, 252.2 356.3, 259.8 351.6, 264.5L236.5, 379.5C231.8, 384.2 224.2, 384.2 219.5, 379.5L212.6, 372.6C207.9, 367.9 207.9, 360.1 212.8, 355.5L298.4, 273L108, 273C101.4, 273 96, 267.6 96, 261L96, 251C96, 244.4 101.4, 239 108, 239L298.3, 239L212.7, 156.5C207.9, 151.8 207.8, 144.1 212.5, 139.4L219.4, 132.5C224.2, 127.8 231.8, 127.8 236.5, 132.5zM48, 32L400, 32C426.5, 32 448, 53.5 448, 80L448, 432C448, 458.5 426.5, 480 400, 480L48, 480C21.5, 480 0, 458.5 0, 432L0, 80C0, 53.5 21.5, 32 48, 32zM48, 64C39.2, 64 32, 71.2 32, 80L32, 432C32, 440.8 39.2, 448 48, 448L400, 448C408.8, 448 416, 440.8 416, 432L416, 80C416, 71.2 408.8, 64 400, 64L48, 64z" fill="#727272" fill-opacity="1" class="Black" />
  </g>
</svg>