<?xml version='1.0' encoding='UTF-8'?>
<svg viewBox="-1.5477 -1.5477 32 32" xmlns="http://www.w3.org/2000/svg">
  <g transform="matrix(0.9991, 0, 0, 0.9991, 0, 0)">
    <g transform="matrix(0.0565, 0, 0, 0.0565, 0, 0)">
      <path d="M504, 256C504, 119 393, 8 256, 8C119, 8 8, 119 8, 256C8, 393 119, 504 256, 504C393, 504 504, 393 504, 256zM256, 472C137.3, 472 40, 375.9 40, 256C40, 137.3 136.1, 40 256, 40C374.7, 40 472, 136.1 472, 256C472, 374.7 375.9, 472 256, 472zM243.5, 379.5L128.4, 264.5C123.7, 259.8 123.7, 252.2 128.4, 247.5L243.5, 132.5C248.2, 127.8 255.8, 127.8 260.5, 132.5L267.4, 139.4C272.1, 144.1 272.1, 151.9 267.2, 156.5L181.7, 239L372, 239C378.6, 239 384, 244.4 384, 251L384, 261C384, 267.6 378.6, 273 372, 273L181.7, 273L267.3, 355.5C272.1, 360.2 272.2, 367.9 267.5, 372.6L260.6, 379.5C255.8, 384.2 248.2, 384.2 243.5, 379.5z" fill="#727272" fill-opacity="1" class="Black" />
    </g>
  </g>
</svg>