<?xml version='1.0' encoding='UTF-8'?>
<svg viewBox="-1.9988 0.0025 32 31.9975" xmlns="http://www.w3.org/2000/svg">
  <g transform="matrix(0.0625, 0, 0, 0.0625, 0, 0)">
    <path d="M180.573, 448C169.211, 448 160, 438.789 160, 427.428L160, 255.991L43.021, 255.991C35.896, 255.991 32.326, 247.379 37.361, 242.338L209.444, 70.035C217.48, 61.989 230.52, 61.988 238.556, 70.035L410.64, 242.338C415.675, 247.379 412.104, 255.991 404.98, 255.991L288, 255.991L288, 427.428C288, 438.79 278.789, 448 267.427, 448L180.573, 448M180.573, 480L267.428, 480C296.416, 480 320, 456.416 320, 427.428L320, 287.991L404.979, 287.991C440.486, 287.991 458.476, 244.951 433.281, 219.725L261.198, 47.422C240.648, 26.846 207.356, 26.842 186.802, 47.422L14.719, 219.724C-10.372, 244.846 7.368, 287.99 43.021, 287.99L128, 287.99L128, 427.427C128, 456.416 151.584, 480 180.573, 480z" fill="#727272" fill-opacity="1" class="Black" />
  </g>
</svg>