<?xml version='1.0' encoding='UTF-8'?>
<svg viewBox="-2 0 32 32" xmlns="http://www.w3.org/2000/svg">
  <g transform="matrix(0.0625, 0, 0, 0.0625, 0, 0)">
    <path d="M347.5, 268.5L232.5, 383.6C227.8, 388.3 220.2, 388.3 215.5, 383.6L100.5, 268.5C95.8, 263.8 95.8, 256.2 100.5, 251.5L107.4, 244.6C112.1, 239.9 119.9, 239.9 124.5, 244.8L207, 330.4L207, 140C207, 133.4 212.4, 128 219, 128L229, 128C235.6, 128 241, 133.4 241, 140L241, 330.3L323.5, 244.7C328.2, 239.9 335.9, 239.8 340.6, 244.5L347.5, 251.4C352.2, 256.2 352.2, 263.8 347.5, 268.5zM448, 80L448, 432C448, 458.5 426.5, 480 400, 480L48, 480C21.5, 480 0, 458.5 0, 432L0, 80C0, 53.5 21.5, 32 48, 32L400, 32C426.5, 32 448, 53.5 448, 80zM416, 80C416, 71.2 408.8, 64 400, 64L48, 64C39.2, 64 32, 71.2 32, 80L32, 432C32, 440.8 39.2, 448 48, 448L400, 448C408.8, 448 416, 440.8 416, 432L416, 80z" fill="#727272" fill-opacity="1" class="Black" />
  </g>
</svg>