<?xml version='1.0' encoding='UTF-8'?>
<svg viewBox="-4.05 -0.0063 32 32" xmlns="http://www.w3.org/2000/svg">
  <g transform="matrix(1.0006, 0, 0, 1.0006, 0, 0)">
    <g transform="matrix(0.0622, 0, 0, 0.0622, 0, 0)">
      <path d="M12, 32L372, 32C378.6, 32 384, 37.4 384, 44L384, 52C384, 58.6 378.6, 64 372, 64L12, 64C5.4, 64 0, 58.6 0, 52L0, 44C0, 37.4 5.4, 32 12, 32zM230.9, 128L153.2, 128C144.4, 128 137.2, 135.2 137.2, 144L137.2, 288L43.3, 288C36.2, 288 32.6, 296.6 37.6, 301.6L180.7, 445.1C187, 451.4 197.1, 451.4 203.4, 445.1L346.5, 301.6C351.5, 296.6 348, 288 340.8, 288L246.9, 288L246.9, 144C246.9, 135.2 239.7, 128 230.9, 128M230.9, 96C257.4, 96 278.9, 117.5 278.9, 144L278.9, 256L340.8, 256C376.4, 256 394.2, 299.1 369.1, 324.2L226, 467.8C207.2, 486.6 176.8, 486.6 158, 467.8L14.9, 324.2C-10.2, 299 7.8, 256 43.3, 256L105.2, 256L105.2, 144C105.2, 117.5 126.7, 96 153.2, 96L230.9, 96z" fill="#727272" fill-opacity="1" class="Black" />
    </g>
  </g>
</svg>