<?xml version='1.0' encoding='UTF-8'?>
<svg viewBox="-2 -0.0014 32 32" xmlns="http://www.w3.org/2000/svg">
  <g transform="matrix(0.0625, 0, 0, 0.0625, 0, 0)">
    <path d="M0, 436L0, 76C0, 69.4 5.4, 64 12, 64L20, 64C26.6, 64 32, 69.4 32, 76L32, 436C32, 442.6 26.6, 448 20, 448L12, 448C5.4, 448 0, 442.6 0, 436zM96, 217.1L96, 294.8C96, 303.6 103.2, 310.8 112, 310.8L256, 310.8L256, 404.7C256, 411.8 264.6, 415.4 269.6, 410.4L411.2, 267.3C417.5, 261 417.5, 250.9 411.2, 244.6L269.6, 101.6C264.6, 96.6 256, 100.1 256, 107.3L256, 201.2L112, 201.2C103.2, 201.1 96, 208.3 96, 217.1M64, 217.1C64, 190.6 85.5, 169.1 112, 169.1L224, 169.1L224, 107.2C224, 71.6 267.1, 53.8 292.2, 78.9L433.9, 222C452.7, 240.8 452.7, 271.2 433.9, 290L292.2, 433.1C267, 458.3 224, 440.3 224, 404.8L224, 342.9L112, 342.9C85.5, 342.9 64, 321.4 64, 294.9L64, 217.1z" fill="#727272" fill-opacity="1" class="Black" />
  </g>
</svg>