<?xml version='1.0' encoding='UTF-8'?>
<svg viewBox="-2 0 32 32" xmlns="http://www.w3.org/2000/svg">
  <g transform="matrix(0.0625, 0, 0, 0.0625, 0, 0)">
    <path d="M216, 412.5L67.5, 264.5C62.8, 259.8 62.8, 252.2 67.5, 247.5L216, 99.5C220.7, 94.8 228.3, 94.8 233, 99.5L240.1, 106.6C244.8, 111.3 244.8, 118.9 240.1, 123.6L124.1, 239L436, 239C442.6, 239 448, 244.4 448, 251L448, 261C448, 267.6 442.6, 273 436, 273L124.1, 273L240, 388.4C244.7, 393.1 244.7, 400.7 240, 405.4L232.9, 412.5C228.3, 417.2 220.7, 417.2 216, 412.5zM12, 448L20, 448C26.6, 448 32, 442.6 32, 436L32, 76C32, 69.4 26.6, 64 20, 64L12, 64C5.4, 64 0, 69.4 0, 76L0, 436C0, 442.6 5.4, 448 12, 448z" fill="#727272" fill-opacity="1" class="Black" />
  </g>
</svg>