<?xml version='1.0' encoding='UTF-8'?>
<svg viewBox="-2 0 32 32" xmlns="http://www.w3.org/2000/svg">
  <g transform="matrix(0.0625, 0, 0, 0.0625, 0, 0)">
    <path d="M100.5, 243.5L215.5, 128.4C220.2, 123.7 227.8, 123.7 232.5, 128.4L347.5, 243.5C352.2, 248.2 352.2, 255.8 347.5, 260.5L340.6, 267.4C335.9, 272.1 328.1, 272.1 323.5, 267.2L241, 181.7L241, 372C241, 378.6 235.6, 384 229, 384L219, 384C212.4, 384 207, 378.6 207, 372L207, 181.7L124.5, 267.3C119.8, 272.1 112.1, 272.2 107.4, 267.5L100.5, 260.6C95.8, 255.8 95.8, 248.2 100.5, 243.5zM0, 432L0, 80C0, 53.5 21.5, 32 48, 32L400, 32C426.5, 32 448, 53.5 448, 80L448, 432C448, 458.5 426.5, 480 400, 480L48, 480C21.5, 480 0, 458.5 0, 432zM32, 432C32, 440.8 39.2, 448 48, 448L400, 448C408.8, 448 416, 440.8 416, 432L416, 80C416, 71.2 408.8, 64 400, 64L48, 64C39.2, 64 32, 71.2 32, 80L32, 432z" fill="#727272" fill-opacity="1" class="Black" />
  </g>
</svg>