<?xml version='1.0' encoding='UTF-8'?>
<svg viewBox="-1.9975 0.0014 32 32" xmlns="http://www.w3.org/2000/svg">
  <g transform="matrix(0.0625, 0, 0, 0.0625, 0, 0)">
    <path d="M448, 76L448, 436C448, 442.6 442.6, 448 436, 448L428, 448C421.4, 448 416, 442.6 416, 436L416, 76C416, 69.4 421.4, 64 428, 64L436, 64C442.6, 64 448, 69.4 448, 76zM352, 294.9L352, 217.2C352, 208.4 344.8, 201.2 336, 201.2L192, 201.2L192, 107.3C192, 100.2 183.4, 96.6 178.4, 101.6L36.7, 244.7C30.4, 251 30.4, 261.1 36.7, 267.4L178.3, 410.5C183.3, 415.5 191.9, 412 191.9, 404.8L191.9, 310.9L335.9, 310.9C344.8, 310.9 352, 303.7 352, 294.9M384, 294.9C384, 321.4 362.5, 342.9 336, 342.9L224, 342.9L224, 404.8C224, 440.4 180.9, 458.2 155.8, 433.1L14.1, 290C-4.7, 271.2 -4.7, 240.8 14.1, 222L155.8, 78.9C181, 53.8 224, 71.8 224, 107.3L224, 169.2L336, 169.2C362.5, 169.2 384, 190.7 384, 217.2L384, 294.9z" fill="#727272" fill-opacity="1" class="Black" />
  </g>
</svg>