<?xml version='1.0' encoding='UTF-8'?>
<svg viewBox="-1.5477 -1.5477 32 32" xmlns="http://www.w3.org/2000/svg">
  <g transform="matrix(0.9991, 0, 0, 0.9991, 0, 0)">
    <g transform="matrix(0.0565, 0, 0, 0.0565, 0, 0)">
      <path d="M256, 504C393, 504 504, 393 504, 256C504, 119 393, 8 256, 8C119, 8 8, 119 8, 256C8, 393 119, 504 256, 504zM40, 256C40, 137.3 136.1, 40 256, 40C374.7, 40 472, 136.1 472, 256C472, 374.7 375.9, 472 256, 472C137.3, 472 40, 375.9 40, 256zM128, 288L192, 288L192, 392C192, 405.2 202.8, 416 216, 416L296, 416C309.2, 416 320, 405.2 320, 392L320, 288L384, 288C412.4, 288 426.8, 253.5 406.6, 233.4L278.6, 105.4C266.1, 92.9 245.8, 92.9 233.3, 105.4L105.3, 233.4C85.3, 253.5 99.5, 288 128, 288zM256, 128L384, 256L288, 256L288, 384L224, 384L224, 256L128, 256L256, 128z" fill="#727272" fill-opacity="1" class="Black" />
    </g>
  </g>
</svg>