<?xml version='1.0' encoding='UTF-8'?>
<svg viewBox="-2 0.0011 32 32" xmlns="http://www.w3.org/2000/svg">
  <g transform="matrix(0.0625, 0, 0, 0.0625, 0, 0)">
    <path d="M32, 212.57A20.57 20.57 0 0 1 52.57, 192L224, 192L224, 75A8 8 0 0 1 237.66, 69.34L410, 241.44A20.56 20.56 0 0 1 410, 270.55L237.66, 442.63A8 8 0 0 1 224, 437L224, 320L52.57, 320A20.57 20.57 0 0 1 32, 299.42L32, 212.57M0, 212.57L0, 299.42A52.63 52.63 0 0 0 52.57, 352L192, 352L192, 437C192, 472.51 235, 490.5 260.27, 465.3L432.57, 293.22A52.55 52.55 0 0 0 432.57, 218.82L260.27, 46.71C235.15, 21.62 192, 39.36 192, 75L192, 160L52.57, 160A52.63 52.63 0 0 0 0, 212.57z" fill="#727272" fill-opacity="1" class="Black" />
  </g>
</svg>