<?xml version='1.0' encoding='UTF-8'?>
<svg viewBox="-4 0 32 32" xmlns="http://www.w3.org/2000/svg">
  <g transform="matrix(0.0625, 0, 0, 0.0625, 0, 0)">
    <path d="M35.5, 248L183.5, 99.5C188.2, 94.8 195.8, 94.8 200.5, 99.5L348.5, 248C353.2, 252.7 353.2, 260.3 348.5, 265L341.4, 272.1C336.7, 276.8 329.1, 276.8 324.4, 272.1L209, 156.1L209, 468C209, 474.6 203.6, 480 197, 480L187, 480C180.4, 480 175, 474.6 175, 468L175, 156.1L59.6, 272C54.9, 276.7 47.3, 276.7 42.6, 272L35.5, 264.9C30.8, 260.3 30.8, 252.7 35.5, 248zM0, 44L0, 52C0, 58.6 5.4, 64 12, 64L372, 64C378.6, 64 384, 58.6 384, 52L384, 44C384, 37.4 378.6, 32 372, 32L12, 32C5.4, 32 0, 37.4 0, 44z" fill="#727272" fill-opacity="1" class="Black" />
  </g>
</svg>