<?xml version='1.0' encoding='UTF-8'?>
<svg viewBox="-1.9986 0 31.9975 32" xmlns="http://www.w3.org/2000/svg">
  <g transform="matrix(0.0625, 0, 0, 0.0625, 0, 0)">
    <path d="M267.427, 64C278.789, 64 288, 73.211 288, 84.572L288, 256.009L404.979, 256.009C412.104, 256.009 415.674, 264.621 410.639, 269.662L238.556, 441.965C230.52, 450.011 217.48, 450.012 209.444, 441.965L37.36, 269.662C32.325, 264.621 35.896, 256.009 43.02, 256.009L160, 256.009L160, 84.572C160, 73.211 169.211, 64 180.573, 64L267.427, 64M267.427, 32L180.572, 32C151.584, 32 128, 55.584 128, 84.572L128, 224.009L43.021, 224.009C7.514, 224.009 -10.476, 267.049 14.719, 292.275L186.802, 464.578C207.352, 485.154 240.644, 485.158 261.198, 464.578L433.281, 292.275C458.372, 267.153 440.632, 224.009 404.979, 224.009L320, 224.009L320, 84.572C320, 55.584 296.416, 32 267.427, 32z" fill="#727272" fill-opacity="1" class="Black" />
  </g>
</svg>