<?xml version='1.0' encoding='UTF-8'?>
<svg viewBox="-2 0 32 32" xmlns="http://www.w3.org/2000/svg">
  <g transform="matrix(0.0625, 0, 0, 0.0625, 0, 0)">
    <path d="M211.5, 379.5L96.4, 264.5C91.7, 259.8 91.7, 252.2 96.4, 247.5L211.5, 132.5C216.2, 127.8 223.8, 127.8 228.5, 132.5L235.4, 139.4C240.1, 144.1 240.1, 151.9 235.2, 156.5L149.7, 239L340, 239C346.6, 239 352, 244.4 352, 251L352, 261C352, 267.6 346.6, 273 340, 273L149.7, 273L235.3, 355.5C240.1, 360.2 240.2, 367.9 235.5, 372.6L228.6, 379.5C223.8, 384.2 216.2, 384.2 211.5, 379.5zM400, 480L48, 480C21.5, 480 0, 458.5 0, 432L0, 80C0, 53.5 21.5, 32 48, 32L400, 32C426.5, 32 448, 53.5 448, 80L448, 432C448, 458.5 426.5, 480 400, 480zM400, 448C408.8, 448 416, 440.8 416, 432L416, 80C416, 71.2 408.8, 64 400, 64L48, 64C39.2, 64 32, 71.2 32, 80L32, 432C32, 440.8 39.2, 448 48, 448L400, 448z" fill="#727272" fill-opacity="1" class="Black" />
  </g>
</svg>