<?xml version='1.0' encoding='UTF-8'?>
<svg viewBox="-2 0 32 32" xmlns="http://www.w3.org/2000/svg">
  <g transform="matrix(0.0625, 0, 0, 0.0625, 0, 0)">
    <path d="M0, 80L0, 432C0, 458.5 21.5, 480 48, 480L400, 480C426.5, 480 448, 458.5 448, 432L448, 80C448, 53.5 426.5, 32 400, 32L48, 32C21.5, 32 0, 53.5 0, 80zM400, 64C408.8, 64 416, 71.2 416, 80L416, 432C416, 440.8 408.8, 448 400, 448L48, 448C39.2, 448 32, 440.8 32, 432L32, 80C32, 71.2 39.2, 64 48, 64L400, 64zM192, 128L192, 192L88, 192C74.8, 192 64, 202.8 64, 216L64, 296C64, 309.2 74.8, 320 88, 320L192, 320L192, 384C192, 412.4 226.5, 426.8 246.6, 406.6L374.6, 278.6C387.1, 266.1 387.1, 245.8 374.6, 233.3L246.6, 105.3C226.5, 85.3 192, 99.5 192, 128zM352, 256L224, 384L224, 288L96, 288L96, 224L224, 224L224, 128L352, 256z" fill="#727272" fill-opacity="1" class="Black" />
  </g>
</svg>