<?xml version='1.0' encoding='UTF-8'?>
<svg viewBox="-1.9975 -1.9975 32 32" xmlns="http://www.w3.org/2000/svg">
  <g transform="matrix(0.0547, 0, 0, 0.0547, 0, 0)">
    <path d="M337.782, 434.704L264.485, 508.486C259.799, 513.172 252.201, 513.172 247.514, 508.486L174.218, 434.704C169.532, 430.018 169.532, 422.42 174.218, 417.734L181.288, 410.664C185.974, 405.978 193.572, 405.978 198.259, 410.664L239, 451.887L240, 451.887L240, 272L60.113, 272L60.113, 273L101.337, 313.741C106.023, 318.427 106.023, 326.025 101.337, 330.712L94.266, 337.782C89.58, 342.468 81.982, 342.468 77.296, 337.782L3.515, 264.485C-1.171, 259.799 -1.171, 252.201 3.515, 247.514L77.297, 174.217C81.983, 169.531 89.581, 169.531 94.268, 174.217L101.339, 181.288C106.025, 185.974 106.025, 193.572 101.339, 198.259L60.113, 239L60.113, 240L240, 240L240, 60.113L239, 60.113L198.259, 101.337C193.573, 106.023 185.975, 106.023 181.288, 101.337L174.218, 94.266C169.532, 89.58 169.531, 81.982 174.218, 77.296L247.515, 3.514C252.201, -1.172 259.799, -1.172 264.486, 3.514L337.783, 77.296C342.469, 81.982 342.469, 89.58 337.783, 94.267L330.712, 101.338C326.026, 106.024 318.428, 106.024 313.741, 101.338L273, 60.113L272, 60.113L272, 240L451.887, 240L451.887, 239L410.663, 198.259C405.977, 193.573 405.977, 185.975 410.663, 181.288L417.734, 174.218C422.42, 169.532 430.018, 169.532 434.704, 174.218L508.486, 247.515C513.173, 252.201 513.172, 259.799 508.486, 264.486L434.704, 337.783C430.018, 342.469 422.42, 342.469 417.734, 337.783L410.663, 330.713C405.977, 326.027 405.977, 318.429 410.663, 313.742L451.887, 273L451.887, 272L272, 272L272, 451.887L273, 451.887L313.741, 410.663C318.427, 405.977 326.025, 405.977 330.712, 410.663L337.782, 417.734C342.468, 422.419 342.468, 430.017 337.782, 434.704z" fill="#727272" fill-opacity="1" class="Black" />
  </g>
</svg>