<?xml version='1.0' encoding='UTF-8'?>
<svg viewBox="-2 0.0012 32 32" xmlns="http://www.w3.org/2000/svg">
  <g transform="matrix(0.0625, 0, 0, 0.0625, 0, 0)">
    <path d="M231.536, 475.535L238.607, 468.465C243.293, 463.779 243.293, 456.181 238.607, 451.494L60.113, 273L436, 273C442.627, 273 448, 267.627 448, 261L448, 251C448, 244.373 442.627, 239 436, 239L60.113, 239L238.607, 60.506C243.293, 55.82 243.293, 48.222 238.607, 43.535L231.536, 36.465C226.85, 31.779 219.252, 31.779 214.566, 36.465L3.515, 247.515C-1.171, 252.201 -1.171, 259.799 3.515, 264.486L214.566, 475.536C219.252, 480.222 226.85, 480.222 231.536, 475.535z" fill="#727272" fill-opacity="1" class="Black" />
  </g>
</svg>