<?xml version='1.0' encoding='UTF-8'?>
<svg viewBox="-2 0 32 32" xmlns="http://www.w3.org/2000/svg">
  <g transform="matrix(0.0625, 0, 0, 0.0625, 0, 0)">
    <path d="M20, 64L12, 64C5.4, 64 0, 69.4 0, 76L0, 436C0, 442.6 5.4, 448 12, 448L20, 448C26.6, 448 32, 442.6 32, 436L32, 76C32, 69.4 26.6, 64 20, 64zM400, 169.2L288, 169.2L288, 107.3C288, 71.8 245, 53.8 219.8, 79L76.2, 222C57.4, 240.8 57.4, 271.2 76.2, 290L219.7, 433.1C244.8, 458.2 287.9, 440.4 287.9, 404.8L287.9, 342.9L399.9, 342.9C426.5, 342.9 448, 321.3 448, 294.9L448, 217.2C448, 190.7 426.5, 169.2 400, 169.2zM415.9, 294.9C415.9, 303.7 408.8, 310.9 400, 310.9L256, 310.9L256, 404.8C256, 411.9 247.4, 415.5 242.4, 410.5L98.8, 267.3C92.5, 261 92.5, 250.9 98.8, 244.6L242.3, 101.5C247.3, 96.5 255.9, 100 255.9, 107.2L255.9, 201.1L399.9, 201.1C408.7, 201.1 415.9, 208.3 415.9, 217.1z" fill="#727272" fill-opacity="1" class="Black" />
  </g>
</svg>