<?xml version='1.0' encoding='UTF-8'?>
<svg viewBox="-2.0025 -0.0014 32 32" xmlns="http://www.w3.org/2000/svg">
  <g transform="matrix(0.0625, 0, 0, 0.0625, 0, 0)">
    <path d="M395.4, 159.9L256, 159.9L256, 75C256, 39.5 213, 21.5 187.7, 46.7L15.4, 218.8C-5.2, 239.4 -5.2, 272.6 15.4, 293.2L187.7, 465.3C212.8, 490.4 256, 472.7 256, 437L256, 352L395.4, 352C424.4, 352 448, 328.4 448, 299.4L448, 212.5C448, 183.5 424.4, 159.9 395.4, 159.9zM416, 299.4C416, 310.8 406.8, 320 395.4, 320L224, 320L224, 437C224, 444.1 215.4, 447.7 210.3, 442.7L38, 270.6C30, 262.6 30, 249.5 38, 241.5L210.3, 69.4C215.3, 64.4 224, 67.9 224, 75.1L224, 192.1L395.4, 192.1C406.8, 192.1 416, 201.3 416, 212.7z" fill="#727272" fill-opacity="1" class="Black" />
  </g>
</svg>