<?xml version='1.0' encoding='UTF-8'?>
<svg viewBox="-1.5477 -1.5477 32 32" xmlns="http://www.w3.org/2000/svg">
  <g transform="matrix(0.9991, 0, 0, 0.9991, 0, 0)">
    <g transform="matrix(0.0565, 0, 0, 0.0565, 0, 0)">
      <path d="M8, 256C8, 393 119, 504 256, 504C393, 504 504, 393 504, 256C504, 119 393, 8 256, 8C119, 8 8, 119 8, 256zM256, 40C374.7, 40 472, 136.1 472, 256C472, 374.7 375.9, 472 256, 472C137.3, 472 40, 375.9 40, 256C40, 137.3 136.1, 40 256, 40zM268.5, 132.5L383.6, 247.5C388.3, 252.2 388.3, 259.8 383.6, 264.5L268.5, 379.5C263.8, 384.2 256.2, 384.2 251.5, 379.5L244.6, 372.6C239.9, 367.9 239.9, 360.1 244.8, 355.5L330.4, 273L140, 273C133.4, 273 128, 267.6 128, 261L128, 251C128, 244.4 133.4, 239 140, 239L330.3, 239L244.7, 156.5C239.9, 151.8 239.8, 144.1 244.5, 139.4L251.4, 132.5C256.2, 127.8 263.8, 127.8 268.5, 132.5z" fill="#727272" fill-opacity="1" class="Black" />
    </g>
  </g>
</svg>