<?xml version='1.0' encoding='UTF-8'?>
<svg viewBox="-4 0 32 32" xmlns="http://www.w3.org/2000/svg">
  <g transform="matrix(0.0625, 0, 0, 0.0625, 0, 0)">
    <path d="M348.5, 264L200.5, 412.5C195.8, 417.2 188.2, 417.2 183.5, 412.5L35.5, 264C30.8, 259.3 30.8, 251.7 35.5, 247L42.6, 239.9C47.3, 235.2 54.9, 235.2 59.6, 239.9L175, 355.9L175, 44C175, 37.4 180.4, 32 187, 32L197, 32C203.6, 32 209, 37.4 209, 44L209, 355.9L324.4, 240C329.1, 235.3 336.7, 235.3 341.4, 240L348.5, 247.1C353.2, 251.7 353.2, 259.3 348.5, 264zM384, 468L384, 460C384, 453.4 378.6, 448 372, 448L12, 448C5.4, 448 0, 453.4 0, 460L0, 468C0, 474.6 5.4, 480 12, 480L372, 480C378.6, 480 384, 474.6 384, 468z" fill="#727272" fill-opacity="1" class="Black" />
  </g>
</svg>