<?xml version='1.0' encoding='UTF-8'?>
<svg viewBox="-2 0 32 32" xmlns="http://www.w3.org/2000/svg">
  <g transform="matrix(0.0625, 0, 0, 0.0625, 0, 0)">
    <path d="M215, 99.5L207.9, 106.6C203.2, 111.3 203.2, 118.9 207.9, 123.6L323.9, 239L12, 239C5.4, 239 0, 244.4 0, 251L0, 261C0, 267.6 5.4, 273 12, 273L323.9, 273L208, 388.4C203.3, 393.1 203.3, 400.7 208, 405.4L215.1, 412.5C219.8, 417.2 227.4, 417.2 232.1, 412.5L380.6, 264.5C385.3, 259.8 385.3, 252.2 380.6, 247.5L232, 99.5C227.3, 94.8 219.7, 94.8 215, 99.5zM448, 76L448, 436C448, 442.6 442.6, 448 436, 448L428, 448C421.4, 448 416, 442.6 416, 436L416, 76C416, 69.4 421.4, 64 428, 64L436, 64C442.6, 64 448, 69.4 448, 76z" fill="#727272" fill-opacity="1" class="Black" />
  </g>
</svg>