<?xml version='1.0' encoding='UTF-8'?>
<svg viewBox="-2 -1.9975 32 32" xmlns="http://www.w3.org/2000/svg">
  <g transform="matrix(0.0547, 0, 0, 0.0547, 0, 0)">
    <path d="M217.6, 512C208.763, 512 201.6, 504.837 201.6, 496C201.6, 487.163 208.763, 480 217.6, 480C258.772, 480 292.267, 446.505 292.267, 405.334C292.267, 320.16 365.658, 311.434 365.658, 240C365.658, 168.833 307.759, 110.934 236.591, 110.934C165.424, 110.934 107.525, 168.833 107.525, 240C107.525, 248.837 100.362, 256 91.525, 256C82.688, 256 75.525, 248.837 75.525, 240C75.525, 151.188 147.779, 78.934 236.591, 78.934C325.403, 78.934 397.657, 151.188 397.657, 240C397.657, 326.857 324.266, 336.041 324.266, 405.334C324.267, 464.149 276.416, 512 217.6, 512zM333.333, 240C333.333, 186.184 289.55, 142.4 235.733, 142.4C181.916, 142.4 138.133, 186.183 138.133, 240C138.133, 248.837 145.296, 256 154.133, 256C162.97, 256 170.133, 248.837 170.133, 240C170.133, 203.828 199.561, 174.4 235.733, 174.4C271.905, 174.4 301.333, 203.828 301.333, 240C301.333, 248.837 308.496, 256 317.333, 256C326.17, 256 333.333, 248.837 333.333, 240zM439.803, 194.016C448.251, 191.425 452.998, 182.475 450.407, 174.028C435.763, 126.296 405.023, 84.232 363.848, 55.587C356.594, 50.541 346.622, 52.328 341.577, 59.583C336.53, 66.837 338.319, 76.809 345.573, 81.854C380.895, 106.428 407.261, 142.497 419.815, 183.413C422.408, 191.866 431.36, 196.606 439.803, 194.016zM500.691, 175.366C509.138, 172.772 513.884, 163.822 511.292, 155.375C492.386, 93.787 452.886, 39.627 400.059, 2.868C392.806, -2.178 382.834, -0.391 377.787, 6.863C372.74, 14.116 374.529, 24.088 381.782, 29.135C428.76, 61.823 463.887, 109.99 480.7, 164.766C483.293, 173.213 492.241, 177.958 500.691, 175.366zM240, 256C231.163, 256 224, 263.163 224, 272C224, 280.837 231.163, 288 240, 288C248.837, 288 256, 280.837 256, 272C256, 263.163 248.837, 256 240, 256zM176, 320C167.163, 320 160, 327.163 160, 336C160, 344.837 167.163, 352 176, 352C184.837, 352 192, 344.837 192, 336C192, 327.163 184.837, 320 176, 320zM80, 416C71.163, 416 64, 423.163 64, 432C64, 440.837 71.163, 448 80, 448C88.837, 448 96, 440.837 96, 432C96, 423.163 88.837, 416 80, 416zM16, 480C7.163, 480 0, 487.163 0, 496C0, 504.837 7.163, 512 16, 512C24.837, 512 32, 504.837 32, 496C32, 487.163 24.837, 480 16, 480zM171.313, 404.687L107.313, 340.687L84.686, 363.314L148.686, 427.314L171.313, 404.687z" fill="#727272" fill-opacity="1" class="Black" />
  </g>
</svg>