<?xml version='1.0' encoding='UTF-8'?>
<svg viewBox="-1.9988 -2 32 32" xmlns="http://www.w3.org/2000/svg">
  <g transform="matrix(0.0547, 0, 0, 0.0547, 0, 0)">
    <path d="M475.31, 364.144L288, 256L475.31, 147.856C481.05, 144.542 483.016, 137.203 479.702, 131.464L475.702, 124.536C472.388, 118.796 465.049, 116.83 459.31, 120.144L272, 228.287L272, 12C272, 5.373 266.627, 0 260, 0L252, 0C245.373, 0 240, 5.373 240, 12L240, 228.287L52.69, 120.144C46.95, 116.83 39.611, 118.797 36.298, 124.536L32.298, 131.464C28.984, 137.204 30.951, 144.543 36.69, 147.856L224, 256L36.69, 364.144C30.95, 367.458 28.984, 374.797 32.298, 380.536L36.298, 387.464C39.612, 393.204 46.951, 395.17 52.69, 391.856L240, 283.713L240, 500C240, 506.627 245.373, 512 252, 512L260, 512C266.627, 512 272, 506.627 272, 500L272, 283.713L459.31, 391.856C465.05, 395.17 472.389, 393.203 475.702, 387.464L479.702, 380.536C483.016, 374.796 481.049, 367.457 475.31, 364.144z" fill="#727272" fill-opacity="1" class="Black" />
  </g>
</svg>