<?xml version='1.0' encoding='UTF-8'?>
<svg viewBox="-1.5477 -1.5477 32 32" xmlns="http://www.w3.org/2000/svg">
  <g transform="matrix(0.9991, 0, 0, 0.9991, 0, 0)">
    <g transform="matrix(0.0565, 0, 0, 0.0565, 0, 0)">
      <path d="M256, 8C118.941, 8 8, 118.919 8, 256C8, 393.058 118.919, 504 256, 504C308.925, 504 360.68, 486.922 403.092, 455.681C408.593, 451.629 409.515, 443.757 405.187, 438.47L400.113, 432.272C396.095, 427.363 388.92, 426.389 383.806, 430.143C346.93, 457.208 301.974, 472 256, 472C136.627, 472 40, 375.393 40, 256C40, 136.625 136.607, 40 256, 40C374.445, 40 472, 120.024 472, 240C472, 312.873 419.181, 348.241 355.935, 348.241C336.201, 348.241 332.24, 337.425 336.432, 314.373L368.502, 150.302C369.951, 142.891 364.276, 136 356.725, 136L344.304, 136A12 12 0 0 0 332.523, 145.718C330.229, 157.564 329.663, 159.182 328.662, 171.365C316.933, 144.287 290.023, 128.342 255.287, 128.342C187.243, 128.342 122.111, 191.292 122.111, 285.369C122.111, 346.956 156.026, 383.723 212.834, 383.723C252.563, 383.723 283.435, 359.445 299.467, 336.741C298.256, 364.527 316.922, 378.954 345.442, 378.954C453.089, 378.954 504, 321.729 504, 240C504, 103.814 393.863, 8 256, 8zM218.08, 350.627C181.399, 350.627 159.5, 325.519 159.5, 283.461C159.5, 208.771 210.265, 161.916 256.717, 161.916C295.574, 161.916 314.819, 189.706 314.819, 227.651C314.819, 285.784 276.45, 350.627 218.08, 350.627z" fill="#727272" fill-opacity="1" class="Black" />
    </g>
  </g>
</svg>