<?xml version='1.0' encoding='UTF-8'?>
<svg viewBox="-3.7494 -1.9999 32 32" xmlns="http://www.w3.org/2000/svg">
  <g transform="matrix(0.0547, 0, 0, 0.0547, 0, 0)">
    <path d="M448, 392L448, 24C448, 10.7 437.3, 0 424, 0L80, 0C35.8, 0 0, 35.8 0, 80L0, 448C0, 483.35 28.65, 512 64, 512L436, 512C442.6, 512 448, 506.6 448, 500L448, 492C448, 485.4 442.6, 480 436, 480L432.7, 480C428.7, 459.8 429.5, 430.3 433.1, 414.2C441.8, 410.6 448, 402 448, 392zM404.3, 480L64, 480C46.33, 480 32, 465.67 32, 448C32, 430.33 46.33, 416 64, 416L404.3, 416C401.4, 434.8 401.2, 459.6 404.3, 480zM416, 384L64, 384C52.28, 384 41.45, 387.38 32, 392.88L32, 80C32, 53.5 53.5, 32 80, 32L416, 32L416, 384zM224, 336C294.69, 336 352, 278.69 352, 208C352, 137.31 294.69, 80 224, 80C153.31, 80 96, 137.31 96, 208C96, 278.69 153.31, 336 224, 336zM318.38, 192L279.29, 192C277.8, 164.97 272.75, 140.65 265.08, 121.59C292.79, 134.83 313.1, 160.78 318.38, 192zM279.29, 224L318.38, 224C313.09, 255.22 292.79, 281.17 265.08, 294.41C272.76, 275.35 277.8, 251.03 279.29, 224zM224, 113.31C231.69, 120.76 244.77, 147.73 247.43, 192L200.56, 192C203.23, 147.74 216.31, 120.76 224, 113.31zM247.43, 224C244.77, 268.26 231.69, 295.24 224, 302.69C216.31, 295.24 203.23, 268.27 200.57, 224L247.43, 224zM182.92, 121.59C175.24, 140.65 170.2, 164.97 168.71, 192L129.62, 192C134.9, 160.78 155.21, 134.83 182.92, 121.59zM168.71, 224C170.2, 251.03 175.25, 275.35 182.92, 294.41C155.21, 281.17 134.9, 255.22 129.62, 224L168.71, 224z" fill="#727272" fill-opacity="1" class="Black" />
  </g>
</svg>