<?xml version='1.0' encoding='UTF-8'?>
<svg viewBox="-2 -1.9988 32 32" xmlns="http://www.w3.org/2000/svg">
  <g transform="matrix(0.0547, 0, 0, 0.0547, 0, 0)">
    <path d="M464, 64L48, 64C21.49, 64 0, 85.49 0, 112L0, 400C0, 426.51 21.49, 448 48, 448L464, 448C490.51, 448 512, 426.51 512, 400L512, 112C512, 85.49 490.51, 64 464, 64zM480, 400C480, 408.822 472.822, 416 464, 416L48, 416C39.178, 416 32, 408.822 32, 400L32, 112C32, 103.178 39.178, 96 48, 96L464, 96C472.822, 96 480, 103.178 480, 112L480, 400zM186.589, 302.783L119.254, 302.783L105.746, 343.757A11.999 11.999 0 0 1 94.35, 352L84.01, 352C75.734, 352 69.943, 343.82 72.691, 336.014L131.846, 168.014A12 12 0 0 1 143.165, 159.999L162.679, 159.999A12 12 0 0 1 173.998, 168.014L233.153, 336.014C235.902, 343.82 230.11, 352 221.834, 352L211.494, 352C206.314, 352 201.719, 348.676 200.097, 343.757L186.589, 302.783zM152.787, 193.262C152.787, 193.262 148.46, 212.192 144.674, 223.008L127.638, 274.388L177.936, 274.388L160.899, 223.008C157.384, 212.191 153.328, 193.262 153.328, 193.262L152.787, 193.262zM263.385, 172C263.385, 165.373 268.758, 160 275.385, 160L328.828, 160C388.05, 160 426.721, 195.155 426.721, 255.73C426.721, 316.304 388.051, 352 328.828, 352L275.385, 352C268.758, 352 263.385, 346.627 263.385, 340L263.385, 172zM326.934, 321.983C365.875, 321.983 390.753, 298.997 390.753, 255.73C390.753, 213.003 365.334, 190.017 326.934, 190.017L298.27, 190.017L298.27, 321.983L326.934, 321.983z" fill="#727272" fill-opacity="1" class="Black" />
  </g>
</svg>