<?xml version='1.0' encoding='UTF-8'?>
<svg viewBox="-2 -2 32 32" xmlns="http://www.w3.org/2000/svg">
  <g transform="matrix(0.0547, 0, 0, 0.0547, 0, 0)">
    <path d="M512, 160.92C505.23, 99.15 476.88, 44.29 437.8, 4.7C434.62, 1.48 430.77, 0 426.99, 0C419.92, 0 413.04, 5.14 411, 13.66C397.67, 69.2 355.74, 111.1 304, 118.44L304, 80C304, 71.16 296.84, 64 288, 64L224, 64C215.16, 64 208, 71.16 208, 80L208, 118.44C156.26, 111.09 114.33, 69.2 101, 13.66C98.96, 5.14 92.08, 0 85.01, 0C81.22, 0 77.38, 1.48 74.2, 4.7C28.67, 50.83 0, 117.62 0, 192C0, 266.38 28.67, 333.17 74.2, 379.3C77.38, 382.53 81.23, 384 85.01, 384C92.08, 384 98.96, 378.86 101, 370.34C114.33, 314.8 156.26, 272.9 208, 265.56L208, 496C208, 504.84 215.16, 512 224, 512L288, 512C296.84, 512 304, 504.84 304, 496L304, 265.56C355.74, 272.91 397.67, 314.8 411, 370.34C413.04, 378.86 419.92, 384 426.99, 384C430.78, 384 434.62, 382.52 437.8, 379.3C476.88, 339.71 505.23, 284.85 512, 223.08L480, 192L512, 160.92zM78.65, 335.56C48.76, 295.83 32, 244.92 32, 192C32, 139.08 48.76, 88.17 78.65, 48.44C85.58, 65.45 117.18, 137.87 208, 150.77L208, 233.24C117.18, 246.13 85.59, 318.55 78.65, 335.56zM272, 480L240, 480L240, 96L272, 96L272, 480zM457.04, 214.29L476.33, 234.16C469.95, 271.73 455.11, 306.65 433.36, 335.57C426.42, 318.56 394.83, 246.14 304.01, 233.24L304.01, 150.77C394.83, 137.87 426.42, 65.45 433.36, 48.44C455.11, 77.36 469.95, 112.27 476.33, 149.85L457.04, 169.72L435.41, 192L457.04, 214.29z" fill="#727272" fill-opacity="1" class="Black" />
  </g>
</svg>