<?xml version='1.0' encoding='UTF-8'?>
<svg viewBox="-1.9975 -4.7983 32 32" xmlns="http://www.w3.org/2000/svg">
  <g transform="matrix(1.0012, 0, 0, 1.0012, 0, 0)">
    <g transform="matrix(0.0437, 0, 0, 0.0437, 0, 0)">
      <path d="M469.66, 181.65L458.35, 170.34C455.23, 167.22 450.16, 167.22 447.04, 170.34L384, 233.37L320.97, 170.34C317.85, 167.22 312.78, 167.22 309.66, 170.34L298.35, 181.65C295.23, 184.77 295.23, 189.84 298.35, 192.96L361.38, 256L298.35, 319.03C295.23, 322.15 295.23, 327.22 298.35, 330.34L309.66, 341.65C312.78, 344.77 317.85, 344.77 320.97, 341.65L384, 278.63L447.03, 341.66C450.15, 344.78 455.22, 344.78 458.34, 341.66L469.65, 330.35C472.77, 327.23 472.77, 322.16 469.65, 319.04L406.63, 256L469.66, 192.97A8.015 8.015 0 0 0 469.66, 181.65zM576, 64L205.26, 64C188.28, 64 172, 70.74 160, 82.74L9.37, 233.37C-3.13, 245.87 -3.13, 266.13 9.37, 278.62L160, 429.25C172, 441.25 188.28, 448 205.25, 448L576, 448C611.35, 448 640, 419.35 640, 384L640, 128C640, 92.65 611.35, 64 576, 64zM608, 384C608, 401.64 593.64, 416 576, 416L205.26, 416C196.71, 416 188.68, 412.67 182.63, 406.63L32, 256L182.63, 105.37C188.67, 99.33 196.71, 96 205.26, 96L576, 96C593.64, 96 608, 110.36 608, 128L608, 384z" fill="#727272" fill-opacity="1" class="Black" />
    </g>
  </g>
</svg>