<?xml version='1.0' encoding='UTF-8'?>
<svg viewBox="-1.9974 -1.9999 32 31.9975" xmlns="http://www.w3.org/2000/svg">
  <g transform="matrix(0.0547, 0, 0, 0.0547, 0, 0)">
    <path d="M267.5, 281.1L459.5, 440.5C480.1, 457.7 512, 443.3 512, 415.9L512, 96C512, 68.6 480.1, 54.2 459.5, 71.4L267.5, 232C252.2, 244.8 252.2, 268.4 267.5, 281.1zM288, 256.6L480, 96L480, 416L288, 256.6zM11.5, 281.1L203.5, 440.5C224.1, 457.7 256, 443.3 256, 415.9L256, 96C256, 68.6 224.1, 54.2 203.5, 71.4L11.5, 232C-3.8, 244.8 -3.8, 268.4 11.5, 281.1zM32, 256.6L224, 96L224, 416L32, 256.6z" fill="#727272" fill-opacity="1" class="Black" />
  </g>
</svg>