<?xml version='1.0' encoding='UTF-8'?>
<svg viewBox="-1.9974 -3.5527 31.9975 32" xmlns="http://www.w3.org/2000/svg">
  <g transform="matrix(0.0486, 0, 0, 0.0486, 0, 0)">
    <path d="M566.93, 104.4L470.81, 8.91A31 31 0 0 0 430.63, 6.08C416.99, 16.18 405.48, 20.47 389.63, 26.38C247, 79.52 209.26, 191.29 200.65, 214.11C170.9, 292.93 111.1, 308.78 101.93, 312.19C77.07, 321.45 47.2, 332.57 10.86, 362.55C-3, 374 -3.63, 395 9.07, 407.61L105.21, 503.1A30.73 30.73 0 0 0 126.92, 512A31.05 31.05 0 0 0 145.39, 505.92C158.99, 495.86 170.48, 491.58 186.33, 485.68C328.53, 432.68 366.33, 321.58 375.27, 297.99C405, 219.18 464.8, 203.3 474, 199.86C498.87, 190.6 528.74, 179.46 565.11, 149.45C579, 138.05 579.63, 117 566.93, 104.4zM32.43, 386.25C64.07, 360.44 90.11, 350.74 114.49, 341.7C182.96, 318.4 215.42, 265.6 230.59, 225.41L231.52, 222.91C261.18, 143.19 318.13, 87.15 400.78, 56.37C417.51, 50.13 432, 44.74 448.97, 32.37L483.51, 66.48C464.81, 79.26 448.51, 85.48 431.69, 91.76C403.41, 102.36 374.12, 113.35 334.34, 153.13C294.56, 192.91 283.56, 222.14 273, 250.44C263.12, 276.71 253.84, 301.5 219, 336.39C184.16, 371.28 159.34, 380.55 133.09, 390.39C113.43, 397.76 93.23, 405.52 69.45, 422.76zM461.43, 170.35C392.9, 193.7 360.43, 246.51 345.29, 286.69L344.41, 289.05C314.64, 368.87 257.68, 424.94 175.09, 455.71C158.16, 462.01 143.54, 467.45 127.72, 480.4L92.49, 445.57C111.16, 432.83 127.42, 426.66 144.25, 420.35C172.53, 409.75 201.78, 398.78 241.56, 359.02C281.34, 319.26 292.31, 290.02 302.91, 261.67C312.78, 235.41 322.06, 210.61 356.97, 175.67C391.88, 140.73 416.66, 131.48 442.97, 121.67C462.62, 114.3 482.83, 106.52 506.64, 89.25L543.64, 125.76C511.89, 151.61 485.85, 161.31 461.47, 170.35z" fill="#727272" fill-opacity="1" class="Black" />
  </g>
</svg>