<?xml version='1.0' encoding='UTF-8'?>
<svg viewBox="-1.9999 -3.5552 32 32" xmlns="http://www.w3.org/2000/svg">
  <g transform="matrix(0.0486, 0, 0, 0.0486, 0, 0)">
    <path d="M544, 256L224, 256A32 32 0 0 0 192, 288L192, 480A32 32 0 0 0 224, 512L544, 512A32 32 0 0 0 576, 480L576, 288A32 32 0 0 0 544, 256zM544, 480L224, 480L224, 288L544, 288zM371.37, 447.19A96.12 96.12 0 0 0 480, 352L480, 328A8 8 0 0 0 472, 320L456, 320A8 8 0 0 0 448, 328L448, 352A64.07 64.07 0 0 1 377.62, 415.69C344.37, 412.46 320, 382.57 320, 349.16L320, 328A8 8 0 0 0 312, 320L296, 320A8 8 0 0 0 288, 328L288, 348.66C288, 397.45 323, 441 371.37, 447.19zM32, 192L416, 192L416, 224L448, 224L448, 192A32 32 0 0 0 416, 160L320, 160L320, 96A96 96 0 0 0 128, 96L128, 160L32, 160A32 32 0 0 0 0, 192L0, 448A32 32 0 0 0 32, 480L160, 480L160, 448L32, 448zM160, 96A64 64 0 0 1 288, 96L288, 160L160, 160z" fill="#727272" fill-opacity="1" class="Black" />
  </g>
</svg>