<?xml version='1.0' encoding='UTF-8'?>
<svg viewBox="-1.995 -4.7962 32 32" xmlns="http://www.w3.org/2000/svg">
  <g transform="matrix(0.9991, 0, 0, 0.9991, 0, 0)">
    <g transform="matrix(0.0438, 0, 0, 0.0438, 0, 0)">
      <path d="M634.4, 279.09L525.35, 103.12C522.18, 98.38 517.09, 96 512, 96C506.91, 96 501.82, 98.38 498.65, 103.12L389.6, 279.09C385.73, 284.87 383.51, 291.81 384.09, 298.73C389.56, 364.4 444.74, 416 512, 416C579.26, 416 634.44, 364.4 639.91, 298.73C640.49, 291.81 638.27, 284.87 634.4, 279.09zM512, 384C470.42, 384 434.45, 356.87 421.22, 320L602.42, 320C589, 357.23 553.28, 384 512, 384zM421.73, 288L512.04, 142.24L602.98, 288L421.73, 288zM536, 480L336, 480L336, 125.74C363.56, 118.6 384, 93.79 384, 64L536, 64C540.42, 64 544, 60.42 544, 56L544, 40C544, 35.58 540.42, 32 536, 32L374.89, 32C374.74, 31.74 370.52, 20.89 355.78, 10.93C345.57, 4.03 333.25, 0 320, 0C306.75, 0 294.43, 4.03 284.22, 10.93C269.48, 20.89 265.26, 31.74 265.11, 32L104, 32C99.58, 32 96, 35.58 96, 40L96, 56C96, 60.42 99.58, 64 104, 64L256, 64C256, 93.79 276.44, 118.6 304, 125.74L304, 480L104, 480C99.58, 480 96, 483.58 96, 488L96, 504C96, 508.42 99.58, 512 104, 512L536, 512C540.42, 512 544, 508.42 544, 504L544, 488C544, 483.58 540.42, 480 536, 480zM288, 64C288, 46.33 302.33, 32 320, 32C337.67, 32 352, 46.33 352, 64C352, 81.67 337.67, 96 320, 96C302.33, 96 288, 81.67 288, 64zM255.91, 298.73C256.49, 291.81 254.27, 284.87 250.4, 279.09L141.35, 103.12C138.18, 98.38 133.09, 96 128, 96C122.91, 96 117.82, 98.38 114.65, 103.12L5.6, 279.09C1.73, 284.87 -0.49, 291.81 0.09, 298.73C5.56, 364.4 60.74, 416 128, 416C195.26, 416 250.44, 364.4 255.91, 298.73zM128.04, 142.24L218.98, 288L37.73, 288L128.04, 142.24zM37.22, 320L218.42, 320C205, 357.23 169.28, 384 128, 384C86.42, 384 50.45, 356.87 37.22, 320z" fill="#727272" fill-opacity="1" class="Black" />
    </g>
  </g>
</svg>