<?xml version='1.0' encoding='UTF-8'?>
<svg viewBox="-1.995 -4.7962 32 32" xmlns="http://www.w3.org/2000/svg">
  <g transform="matrix(0.9991, 0, 0, 0.9991, 0, 0)">
    <g transform="matrix(0.0438, 0, 0, 0.0438, 0, 0)">
      <path d="M634.4, 375.09L525.35, 199.12C522.18, 194.37 517.09, 192 512, 192C506.91, 192 501.82, 194.38 498.65, 199.12L389.6, 375.09C385.73, 380.87 383.51, 387.81 384.09, 394.73C389.56, 460.4 444.74, 512 512, 512C579.27, 512 634.45, 460.4 639.91, 394.73C640.48, 387.81 638.27, 380.87 634.4, 375.09zM511.96, 238.24L602.27, 384L421.02, 384L511.96, 238.24zM512, 480C470.72, 480 435, 453.23 421.58, 416L602.78, 416C589.55, 452.87 553.58, 480 512, 480zM529.89, 162.79L534.97, 147.62C536.37, 143.43 534.11, 138.9 529.92, 137.5L379.46, 87.15C382.33, 79.98 384, 72.21 384, 64C384, 28.65 355.35, 0 320, 0C290.68, 0 266.23, 19.83 258.66, 46.73L120.24, 0.42C116.05, -0.98 111.52, 1.28 110.12, 5.47L105.04, 20.64C103.64, 24.83 105.9, 29.36 110.09, 30.76L258.38, 80.38C264.29, 102.61 281.71, 119.96 304, 125.74L304, 480L104, 480C99.58, 480 96, 483.58 96, 488L96, 504C96, 508.42 99.58, 512 104, 512L328, 512C332.42, 512 336, 508.42 336, 504L336, 125.74C344.64, 123.5 352.5, 119.52 359.32, 114.16L519.77, 167.84C523.95, 169.24 528.48, 166.98 529.89, 162.79zM320, 96C302.36, 96 288, 81.64 288, 64C288, 46.36 302.36, 32 320, 32C337.64, 32 352, 46.36 352, 64C352, 81.64 337.64, 96 320, 96zM255.91, 266.73C256.49, 259.81 254.27, 252.87 250.4, 247.09L141.35, 71.12C138.18, 66.38 133.09, 64 128, 64C122.91, 64 117.82, 66.38 114.65, 71.12L5.6, 247.09C1.73, 252.87 -0.49, 259.81 0.09, 266.73C5.56, 332.4 60.74, 384 128, 384C195.26, 384 250.44, 332.4 255.91, 266.73zM127.96, 110.24L218.27, 256L37.02, 256L127.96, 110.24zM37.58, 288L218.78, 288C205.55, 324.87 169.58, 352 128, 352C86.72, 352 51, 325.23 37.58, 288z" fill="#727272" fill-opacity="1" class="Black" />
    </g>
  </g>
</svg>