<?xml version='1.0' encoding='UTF-8'?>
<svg viewBox="-1.995 -4.7962 32 32" xmlns="http://www.w3.org/2000/svg">
  <g transform="matrix(0.9991, 0, 0, 0.9991, 0, 0)">
    <g transform="matrix(0.0438, 0, 0, 0.0438, 0, 0)">
      <path d="M634.4, 247.09L525.35, 71.12C522.18, 66.38 517.09, 64 512, 64C506.91, 64 501.82, 66.38 498.65, 71.12L389.6, 247.09C385.73, 252.87 383.51, 259.81 384.09, 266.73C389.56, 332.4 444.74, 384 512, 384C579.26, 384 634.44, 332.4 639.91, 266.73C640.49, 259.81 638.27, 252.87 634.4, 247.09zM512, 352C470.42, 352 434.45, 324.87 421.22, 288L602.42, 288C589, 325.23 553.28, 352 512, 352zM421.73, 256L512.04, 110.24L602.98, 256L421.73, 256zM536, 480L336, 480L336, 125.74C358.29, 119.97 375.71, 102.61 381.62, 80.38L529.91, 30.76C534.1, 29.36 536.36, 24.82 534.96, 20.64L529.88, 5.47C528.48, 1.28 523.94, -0.98 519.76, 0.42L381.34, 46.73C373.77, 19.83 349.32, 0 320, 0C284.65, 0 256, 28.65 256, 64C256, 72.21 257.67, 79.98 260.54, 87.15L110.09, 137.49C105.9, 138.89 103.64, 143.43 105.04, 147.61L110.12, 162.78C111.52, 166.97 116.06, 169.23 120.24, 167.83L280.69, 114.15C287.51, 119.51 295.36, 123.49 304.01, 125.73L304.01, 504C304.01, 508.42 307.59, 512 312.01, 512L536.01, 512C540.43, 512 544.01, 508.42 544.01, 504L544.01, 488C544, 483.58 540.42, 480 536, 480zM288, 64C288, 46.36 302.36, 32 320, 32C337.64, 32 352, 46.36 352, 64C352, 81.64 337.64, 96 320, 96C302.36, 96 288, 81.64 288, 64zM141.35, 199.12C138.18, 194.37 133.09, 192 128, 192C122.91, 192 117.82, 194.38 114.65, 199.12L5.6, 375.09C1.73, 380.87 -0.49, 387.81 0.09, 394.73C5.56, 460.4 60.74, 512 128, 512C195.26, 512 250.44, 460.4 255.91, 394.73C256.49, 387.81 254.27, 380.87 250.4, 375.09L141.35, 199.12zM128, 480C86.42, 480 50.45, 452.87 37.22, 416L218.42, 416C205, 453.23 169.28, 480 128, 480zM37.73, 384L128.04, 238.24L218.98, 384L37.73, 384z" fill="#727272" fill-opacity="1" class="Black" />
    </g>
  </g>
</svg>