<?xml version='1.0' encoding='UTF-8'?>
<svg viewBox="-3.7505 -1.9998 32 31.9975" xmlns="http://www.w3.org/2000/svg">
  <g transform="matrix(0.0547, 0, 0, 0.0547, 0, 0)">
    <path d="M112, 432L144, 432C161.7, 432 176, 417.6 176, 400L176, 368C176, 350.4 161.7, 336 144, 336L112, 336C94.3, 336 80, 350.4 80, 368L80, 400C80, 417.6 94.3, 432 112, 432zM112, 368L144, 368L144, 400L112, 400L112, 368zM112, 176L144, 176C161.7, 176 176, 161.6 176, 144L176, 112C176, 94.4 161.7, 80 144, 80L112, 80C94.3, 80 80, 94.4 80, 112L80, 144C80, 161.6 94.3, 176 112, 176zM112, 112L144, 112L144, 144L112, 144L112, 112zM416, 0L32, 0C14.3, 0 0, 14.4 0, 32L0, 480C0, 497.6 14.3, 512 32, 512L416, 512C433.7, 512 448, 497.6 448, 480L448, 32C448, 14.4 433.7, 0 416, 0zM416, 480L32, 480L32, 32L416, 32L416, 480zM216, 144L344, 144C348.4, 144 352, 140.4 352, 136L352, 120C352, 115.6 348.4, 112 344, 112L216, 112C211.6, 112 208, 115.6 208, 120L208, 136C208, 140.4 211.6, 144 216, 144zM216, 272L344, 272C348.4, 272 352, 268.4 352, 264L352, 248C352, 243.6 348.4, 240 344, 240L216, 240C211.6, 240 208, 243.6 208, 248L208, 264C208, 268.4 211.6, 272 216, 272zM216, 400L344, 400C348.4, 400 352, 396.4 352, 392L352, 376C352, 371.6 348.4, 368 344, 368L216, 368C211.6, 368 208, 371.6 208, 376L208, 392C208, 396.4 211.6, 400 216, 400zM118.6, 286.4C120.7, 288.5 124.1, 288.5 126.2, 286.4L190.4, 222.8C192.5, 220.7 192.5, 217.3 190.4, 215.2L177.8, 202.5C175.7, 200.4 172.3, 200.4 170.2, 202.5L122.6, 249.7L102, 228.8C99.9, 226.7 96.5, 226.7 94.4, 228.8L81.7, 241.4C79.6, 243.5 79.6, 246.9 81.7, 249L118.6, 286.4z" fill="#727272" fill-opacity="1" class="Black" />
  </g>
</svg>