<?xml version='1.0' encoding='UTF-8'?>
<svg viewBox="-3.7505 -1.9998 32 31.9975" xmlns="http://www.w3.org/2000/svg">
  <g transform="matrix(0.0547, 0, 0, 0.0547, 0, 0)">
    <path d="M144, 80L112, 80C94.3, 80 80, 94.4 80, 112L80, 144C80, 161.6 94.3, 176 112, 176L144, 176C161.7, 176 176, 161.6 176, 144L176, 112C176, 94.4 161.7, 80 144, 80zM144, 144L112, 144L112, 112L144, 112L144, 144zM416, 0L32, 0C14.3, 0 0, 14.4 0, 32L0, 480C0, 497.6 14.3, 512 32, 512L416, 512C433.7, 512 448, 497.6 448, 480L448, 32C448, 14.4 433.7, 0 416, 0zM416, 480L32, 480L32, 32L416, 32L416, 480zM344, 240L216, 240C211.6, 240 208, 243.6 208, 248L208, 264C208, 268.4 211.6, 272 216, 272L344, 272C348.4, 272 352, 268.4 352, 264L352, 248C352, 243.6 348.4, 240 344, 240zM144, 336L112, 336C94.3, 336 80, 350.4 80, 368L80, 400C80, 417.6 94.3, 432 112, 432L144, 432C161.7, 432 176, 417.6 176, 400L176, 368C176, 350.4 161.7, 336 144, 336zM144, 400L112, 400L112, 368L144, 368L144, 400zM344, 368L216, 368C211.6, 368 208, 371.6 208, 376L208, 392C208, 396.4 211.6, 400 216, 400L344, 400C348.4, 400 352, 396.4 352, 392L352, 376C352, 371.6 348.4, 368 344, 368zM344, 112L216, 112C211.6, 112 208, 115.6 208, 120L208, 136C208, 140.4 211.6, 144 216, 144L344, 144C348.4, 144 352, 140.4 352, 136L352, 120C352, 115.6 348.4, 112 344, 112zM144, 208L112, 208C94.3, 208 80, 222.4 80, 240L80, 272C80, 289.6 94.3, 304 112, 304L144, 304C161.7, 304 176, 289.6 176, 272L176, 240C176, 222.4 161.7, 208 144, 208zM144, 272L112, 272L112, 240L144, 240L144, 272z" fill="#727272" fill-opacity="1" class="Black" />
  </g>
</svg>