<?xml version='1.0' encoding='UTF-8'?>
<svg viewBox="-1.5477 -1.5477 32 32" xmlns="http://www.w3.org/2000/svg">
  <g transform="matrix(0.9991, 0, 0, 0.9991, 0, 0)">
    <g transform="matrix(0.0565, 0, 0, 0.0565, 0, 0)">
      <path d="M256, 8C119.033, 8 8, 119.033 8, 256C8, 392.967 119.033, 504 256, 504C392.967, 504 504, 392.967 504, 256C504, 119.033 392.967, 8 256, 8zM103.265, 408.735C22.643, 328.113 19.116, 199.778 92.365, 114.992L397.009, 419.635C312.205, 492.899 183.871, 489.341 103.265, 408.735zM419.635, 397.008L114.992, 92.365C199.796, 19.102 328.129, 22.66 408.735, 103.265C489.357, 183.886 492.884, 312.222 419.635, 397.008z" fill="#727272" fill-opacity="1" class="Black" />
    </g>
  </g>
</svg>