<?xml version='1.0' encoding='UTF-8'?>
<svg viewBox="-2 -4.7992 32 32" xmlns="http://www.w3.org/2000/svg">
  <g transform="matrix(0.9988, 0, 0, 0.9988, 0, 0)">
    <g transform="matrix(0.0438, 0, 0, 0.0438, 0, 0)">
      <path d="M560, 96L80, 96C35.9, 96 0, 131.9 0, 176L0, 336C0, 380.1 35.9, 416 80, 416L560, 416C604.1, 416 640, 380.1 640, 336L640, 176C640, 131.9 604.1, 96 560, 96zM160, 384L80, 384C53.5, 384 32, 362.5 32, 336L32, 176C32, 149.5 53.5, 128 80, 128L160, 128L160, 384zM448, 384L192, 384L192, 128L448, 128L448, 384zM608, 336C608, 362.5 586.5, 384 560, 384L480, 384L480, 128L560, 128C586.5, 128 608, 149.5 608, 176L608, 336zM272, 228C283, 228 292, 219 292, 208C292, 197 283, 188 272, 188C261, 188 252, 197 252, 208C252, 219 261, 228 272, 228zM368, 228C379, 228 388, 219 388, 208C388, 197 379, 188 368, 188C357, 188 348, 197 348, 208C348, 219 357, 228 368, 228zM272, 324C283, 324 292, 315 292, 304C292, 293 283, 284 272, 284C261, 284 252, 293 252, 304C252, 315 261, 324 272, 324zM368, 324C379, 324 388, 315 388, 304C388, 293 379, 284 368, 284C357, 284 348, 293 348, 304C348, 315 357, 324 368, 324z" fill="#727272" fill-opacity="1" class="Black" />
    </g>
  </g>
</svg>