<?xml version='1.0' encoding='UTF-8'?>
<svg viewBox="-2 -4.7992 32 32" xmlns="http://www.w3.org/2000/svg">
  <g transform="matrix(0.9988, 0, 0, 0.9988, 0, 0)">
    <g transform="matrix(0.0438, 0, 0, 0.0438, 0, 0)">
      <path d="M280, 96L264, 96C259.6, 96 256, 99.6 256, 104L256, 408C256, 412.4 259.6, 416 264, 416L280, 416C284.4, 416 288, 412.4 288, 408L288, 104C288, 99.6 284.4, 96 280, 96zM216, 96L200, 96C195.6, 96 192, 99.6 192, 104L192, 408C192, 412.4 195.6, 416 200, 416L216, 416C220.4, 416 224, 412.4 224, 408L224, 104C224, 99.6 220.4, 96 216, 96zM592, 0L48, 0C21.5, 0 0, 21.5 0, 48L0, 464C0, 490.5 21.5, 512 48, 512L592, 512C618.5, 512 640, 490.5 640, 464L640, 48C640, 21.5 618.5, 0 592, 0zM608, 464C608, 472.8 600.8, 480 592, 480L48, 480C39.2, 480 32, 472.8 32, 464L32, 48C32, 39.2 39.2, 32 48, 32L592, 32C600.8, 32 608, 39.2 608, 48L608, 464zM152, 96L104, 96C99.6, 96 96, 99.6 96, 104L96, 408C96, 412.4 99.6, 416 104, 416L152, 416C156.4, 416 160, 412.4 160, 408L160, 104C160, 99.6 156.4, 96 152, 96zM536, 96L488, 96C483.6, 96 480, 99.6 480, 104L480, 408C480, 412.4 483.6, 416 488, 416L536, 416C540.4, 416 544, 412.4 544, 408L544, 104C544, 99.6 540.4, 96 536, 96zM408, 96L360, 96C355.6, 96 352, 99.6 352, 104L352, 408C352, 412.4 355.6, 416 360, 416L408, 416C412.4, 416 416, 412.4 416, 408L416, 104C416, 99.6 412.4, 96 408, 96z" fill="#727272" fill-opacity="1" class="Black" />
    </g>
  </g>
</svg>