<?xml version='1.0' encoding='UTF-8'?>
<svg viewBox="-2 -4.7992 32 32" xmlns="http://www.w3.org/2000/svg">
  <g transform="matrix(0.9988, 0, 0, 0.9988, 0, 0)">
    <g transform="matrix(0.0438, 0, 0, 0.0438, 0, 0)">
      <path d="M152, 0L8, 0C3.6, 0 0, 3.6 0, 8L0, 160C0, 164.4 3.6, 168 8, 168L24, 168C28.4, 168 32, 164.4 32, 160L32, 32L152, 32C156.4, 32 160, 28.4 160, 24L160, 8C160, 3.6 156.4, 0 152, 0zM152, 480L32, 480L32, 352C32, 347.6 28.4, 344 24, 344L8, 344C3.6, 344 0, 347.6 0, 352L0, 504C0, 508.4 3.6, 512 8, 512L152, 512C156.4, 512 160, 508.4 160, 504L160, 488C160, 483.6 156.4, 480 152, 480zM632, 0L488, 0C483.6, 0 480, 3.6 480, 8L480, 24C480, 28.4 483.6, 32 488, 32L608, 32L608, 160C608, 164.4 611.6, 168 616, 168L632, 168C636.4, 168 640, 164.4 640, 160L640, 8C640, 3.6 636.4, 0 632, 0zM632, 344L616, 344C611.6, 344 608, 347.6 608, 352L608, 480L488, 480C483.6, 480 480, 483.6 480, 488L480, 504C480, 508.4 483.6, 512 488, 512L632, 512C636.4, 512 640, 508.4 640, 504L640, 352C640, 347.6 636.4, 344 632, 344zM152, 96L104, 96C99.6, 96 96, 99.6 96, 104L96, 408C96, 412.4 99.6, 416 104, 416L152, 416C156.4, 416 160, 412.4 160, 408L160, 104C160, 99.6 156.4, 96 152, 96zM488, 416L536, 416C540.4, 416 544, 412.4 544, 408L544, 104C544, 99.6 540.4, 96 536, 96L488, 96C483.6, 96 480, 99.6 480, 104L480, 408C480, 412.4 483.6, 416 488, 416zM408, 96L360, 96C355.6, 96 352, 99.6 352, 104L352, 408C352, 412.4 355.6, 416 360, 416L408, 416C412.4, 416 416, 412.4 416, 408L416, 104C416, 99.6 412.4, 96 408, 96zM216, 96L200, 96C195.6, 96 192, 99.6 192, 104L192, 408C192, 412.4 195.6, 416 200, 416L216, 416C220.4, 416 224, 412.4 224, 408L224, 104C224, 99.6 220.4, 96 216, 96zM280, 96L264, 96C259.6, 96 256, 99.6 256, 104L256, 408C256, 412.4 259.6, 416 264, 416L280, 416C284.4, 416 288, 412.4 288, 408L288, 104C288, 99.6 284.4, 96 280, 96z" fill="#727272" fill-opacity="1" class="Black" />
    </g>
  </g>
</svg>