<?xml version='1.0' encoding='UTF-8'?>
<svg viewBox="-2 0 32 32" xmlns="http://www.w3.org/2000/svg">
  <g transform="matrix(0.0625, 0, 0, 0.0625, 0, 0)">
    <path d="M442, 114L6, 114A6 6 0 0 1 0, 108L0, 84A6 6 0 0 1 6, 78L442, 78A6 6 0 0 1 448, 84L448, 108A6 6 0 0 1 442, 114zM442, 274L6, 274A6 6 0 0 1 0, 268L0, 244A6 6 0 0 1 6, 238L442, 238A6 6 0 0 1 448, 244L448, 268A6 6 0 0 1 442, 274zM442, 434L6, 434A6 6 0 0 1 0, 428L0, 404A6 6 0 0 1 6, 398L442, 398A6 6 0 0 1 448, 404L448, 428A6 6 0 0 1 442, 434z" fill="#727272" fill-opacity="1" class="Black" />
  </g>
</svg>