<?xml version='1.0' encoding='UTF-8'?>
<svg viewBox="-1.9975 -4.796 32 32" xmlns="http://www.w3.org/2000/svg">
  <g transform="matrix(0.999, 0, 0, 0.999, 0, 0)">
    <g transform="matrix(0.0438, 0, 0, 0.0438, 0, 0)">
      <path d="M627.2, 60.1L603.6, 27.6C581, -3.5 538.9, -8.2 510, 12.8L307.7, 159.6C262.1, 192.7 220.4, 230.9 183.4, 273.4C154.4, 306.7 110.9, 352 53.1, 394L31.5, 409.7C31.3, 409.4 20.2, 392.3 6, 403.5C-0.9, 409 -2, 419.1 3.5, 426L67.5, 506C72.7, 512.5 82.7, 514.3 90, 508.5C90.5, 508.1 102.9, 499 90.1, 483L108.3, 469.8C174.3, 421.9 230.6, 397.2 263.4, 383.3C315.3, 361.3 364.6, 333.4 410.2, 300.3L612.5, 153.5C642.3, 131.8 648.9, 90 627.2, 60.1zM70.1, 458L51.5, 434.8C80.4, 413.9 123.3, 384.1 176.5, 328.5L208.8, 372.9C140.6, 405.7 99.2, 436.8 70.1, 458zM593.6, 127.6C346.6, 306.8 350.5, 310.1 233.7, 361.4L195, 308.3C279.9, 213.2 281.5, 218.1 528.8, 38.7C543.6, 28 565.7, 30 577.7, 46.4L601.3, 78.9C612.7, 94.5 609.2, 116.3 593.6, 127.6zM496, 352C451.9, 352 416, 387.9 416, 432C416, 476.1 451.9, 512 496, 512C540.1, 512 576, 476.1 576, 432C576, 387.9 540.1, 352 496, 352zM496, 480C469.5, 480 448, 458.5 448, 432C448, 405.5 469.5, 384 496, 384C522.5, 384 544, 405.5 544, 432C544, 458.5 522.5, 480 496, 480z" fill="#727272" fill-opacity="1" class="Black" />
    </g>
  </g>
</svg>