<?xml version='1.0' encoding='UTF-8'?>
<svg viewBox="-1.9999 -1.549 31.9975 32" xmlns="http://www.w3.org/2000/svg">
  <g transform="matrix(0.999, 0, 0, 0.999, 0, 0)">
    <g transform="matrix(0.0565, 0, 0, 0.0565, 0, 0)">
      <path d="M248, 8C111.2, 8 0, 119.2 0, 256C0, 392.8 111.2, 504 248, 504C384.8, 504 496, 392.8 496, 256C496, 119.2 384.8, 8 248, 8zM103.5, 416.1C120.2, 398.7 134.1, 378.9 144.8, 357L118, 344C108.9, 362.8 96.2, 379.1 82, 394C-3.6, 291.2 36.7, 172.5 82, 118C96.2, 132.9 108.8, 149.2 118, 167.8L144.8, 154.7C134.2, 132.9 120.3, 113.2 103.6, 95.8C182.7, 24.4 306.7, 18.2 392.6, 95.7C375.9, 113.1 362, 132.8 351.4, 154.7L378.2, 167.7C387.3, 149 399.9, 132.7 414.2, 117.7C492.3, 211.4 468.8, 328.1 414.3, 393.6C400, 378.7 387.4, 362.4 378.3, 343.7L351.5, 356.8C362.2, 378.7 376, 398.4 392.8, 415.7C302.8, 497.2 178.5, 483.9 103.5, 416.1zM156.7, 327.5L128.4, 318.3C140.6, 280.8 142.4, 236.8 128.3, 193.6L156.6, 184.4C172.9, 234.4 170.6, 284.8 156.7, 327.5zM367.7, 318.3L339.4, 327.5C323.1, 277.5 325.4, 227 339.3, 184.4L367.6, 193.6C355.4, 231.2 353.7, 275.2 367.7, 318.3z" fill="#727272" fill-opacity="1" class="Black" />
    </g>
  </g>
</svg>