<?xml version='1.0' encoding='UTF-8'?>
<svg viewBox="-2 -4.4512 32 32" xmlns="http://www.w3.org/2000/svg">
  <g transform="matrix(1.001, 0, 0, 1.001, 0, 0)">
    <g transform="matrix(0.0437, 0, 0, 0.0437, 0, 0)">
      <path d="M640, 339.7C640, 359.2 629.6, 376.6 611.5, 384.1L503.2, 428.6L505.7, 392.9L599.3, 354.5C605.3, 352 609.2, 346.2 609.2, 339.7L609.2, 216C527.1, -8 115.7, -8.9 33.2, 216L33.2, 339.7C33.2, 346.2 37.1, 352 43.1, 354.5L136.7, 392.9L139.2, 428.6L31, 384.1C12.9, 376.6 0, 359.2 0, 339.7L0.8, 208.3C1.4, 206.3 69.3, 16 321.2, 16C573.1, 16 638.5, 206.3 639.1, 208.3C640.3, 215.4 640, 199.2 640, 339.7zM462.4, 512L387, 440.4L321.2, 512L255.4, 440.4L180, 512L161.8, 288L137.2, 288C132.8, 288 129.2, 284.4 129.2, 280L129.2, 264C129.2, 259.6 132.8, 256 137.2, 256L505.2, 256C509.6, 256 513.2, 259.6 513.2, 264L513.2, 280C513.2, 284.4 509.6, 288 505.2, 288L480.6, 288L462.4, 512zM207.9, 352.4L254.6, 396L298.6, 352L256.5, 309.9L207.9, 352.4zM321.2, 329.4L362.6, 288L279.8, 288L321.2, 329.4zM343.8, 352L387.8, 396L434.5, 352.4L386, 309.9L343.8, 352zM448.5, 288L409.5, 288L446, 319.9L448.5, 288zM193.9, 288L196.5, 319.9L233, 288L193.9, 288zM232, 418.6L202.1, 390.7L206.4, 444.2L232, 418.6zM364.4, 417.8L321.2, 374.6L278, 417.8L321.2, 458.1L364.4, 417.8zM436, 444.2L440.3, 390.7L410.4, 418.6L436, 444.2zM465.2, 224L465.2, 134.1L177.2, 134.1L177.2, 224L209.2, 224L209.2, 166.1L433.2, 166.1L433.2, 224L465.2, 224z" fill="#727272" fill-opacity="1" class="Black" />
    </g>
  </g>
</svg>