<?xml version='1.0' encoding='UTF-8'?>
<svg viewBox="-2 -1.9988 32 32" xmlns="http://www.w3.org/2000/svg">
  <g transform="matrix(0.0547, 0, 0, 0.0547, 0, 0)">
    <path d="M500, 256L64, 256L64, 104C64, 81.944 81.944, 64 104, 64C120.819, 64 135.237, 74.44 141.14, 89.175C122.899, 113.027 123.699, 146.859 143.56, 169.82C139.766, 173.614 139.766, 179.766 143.56, 183.56L152.44, 192.44C156.234, 196.234 162.386, 196.234 166.18, 192.44L256.44, 102.18C260.234, 98.386 260.234, 92.234 256.44, 88.44L247.56, 79.56C243.766, 75.766 237.614, 75.766 233.82, 79.56C215.002, 63.283 188.878, 59.8 166.933, 69.115C154.635, 47.003 131.047, 32 104, 32C64.299, 32 32, 64.299 32, 104L32, 256L12, 256C5.373, 256 0, 261.373 0, 268L0, 276C0, 282.627 5.373, 288 12, 288L32, 288L32, 352C32, 380.43 44.362, 405.969 64, 423.547L64, 468C64, 474.627 69.373, 480 76, 480L84, 480C90.627, 480 96, 474.627 96, 468L96, 442.53A95.842 95.842 0 0 0 128, 448L384, 448A95.842 95.842 0 0 0 416, 442.53L416, 468C416, 474.627 421.373, 480 428, 480L436, 480C442.627, 480 448, 474.627 448, 468L448, 423.547C467.638, 405.969 480, 380.43 480, 352L480, 288L500, 288C506.627, 288 512, 282.627 512, 276L512, 268C512, 261.373 506.627, 256 500, 256zM169.37, 105.37C180.73, 94.02 198.56, 93 211.08, 102.3L166.3, 147.08C157, 134.56 158.02, 116.73 169.37, 105.37zM448, 352C448, 387.29 419.29, 416 384, 416L128, 416C92.71, 416 64, 387.29 64, 352L64, 288L448, 288L448, 352z" fill="#727272" fill-opacity="1" class="Black" />
  </g>
</svg>