<?xml version='1.0' encoding='UTF-8'?>
<svg viewBox="-2 -4.798 32 32" xmlns="http://www.w3.org/2000/svg">
  <g transform="matrix(0.9988, 0, 0, 0.9988, 0, 0)">
    <g transform="matrix(0.0438, 0, 0, 0.0438, 0, 0)">
      <path d="M637, 485.25L23, 1.75A8 8 0 0 0 11.76, 3L1.76, 15.51A8 8 0 0 0 3, 26.75L617, 510.25A8 8 0 0 0 628.24, 509L638.24, 496.49A8 8 0 0 0 637, 485.25zM48, 384A16 16 0 0 1 32, 368L32, 144A16 16 0 0 1 48, 128L79.85, 128L40.21, 96.79A47.9 47.9 0 0 0 0, 144L0, 368A48 48 0 0 0 48, 416L445.58, 416L405, 384zM616, 160L608, 160L608, 144A48 48 0 0 0 560, 96L194.4, 96L235, 128L560, 128A16 16 0 0 1 576, 144L576, 192L608, 192L608, 320L576, 320L576, 368A16 16 0 0 1 560.11, 384L588.56, 406.41A47.81 47.81 0 0 0 608, 368L608, 352L616, 352A24 24 0 0 0 640, 328L640, 184A24 24 0 0 0 616, 160z" fill="#727272" fill-opacity="1" class="Black" />
    </g>
  </g>
</svg>