<?xml version='1.0' encoding='UTF-8'?>
<svg viewBox="-1.995 -4.7973 32 32" xmlns="http://www.w3.org/2000/svg">
  <g transform="matrix(0.999, 0, 0, 0.999, 0, 0)">
    <g transform="matrix(0.0438, 0, 0, 0.0438, 0, 0)">
      <path d="M272, 32C369, 32 448, 111 448, 208C448, 234.6 441.9, 259.8 431.2, 282.5L456.8, 302.7C471.4, 274.3 479.9, 242.2 479.9, 208C480, 93.1 386.9, 0 272, 0C220.2, 0 172.9, 19.1 136.5, 50.4L162.2, 70.7C192.4, 46.5 230.5, 32 272, 32zM242.4, 133.8L276.2, 160.4C295.5, 162.1 311.3, 175.1 317.3, 192.7L350.9, 219.1C351.4, 215.4 352, 211.7 352, 207.9C352, 163.8 316.1, 127.9 272, 127.9C261.5, 128 251.6, 130.2 242.4, 133.8zM528, 336C536.8, 336 544, 343.2 544, 352C544, 357.7 540.8, 362.4 536.4, 365.3L561.7, 385.2C570.3, 376.6 576, 365.2 576, 352C576, 325.5 554.5, 304 528, 304C510.8, 304 495.9, 313.1 487.4, 326.7L513.1, 346.9C515.2, 340.6 521, 336 528, 336zM637, 485.2L23, 1.8C19.6, -1 14.5, -0.5 11.8, 3L1.8, 15.5C-1, 19 -0.4, 24 3, 26.7L617, 510.2C620.4, 513 625.5, 512.4 628.2, 509L638.2, 496.5C641, 493 640.5, 488 637, 485.2zM464, 432L416, 432L416, 392.7L368.3, 355.1C340.6, 373.3 307.5, 384 272, 384C175, 384 96, 305 96, 208C96, 187.2 99.8, 167.4 106.4, 148.9L80, 128.1C69.8, 152.7 64, 179.7 64, 208C64, 266.9 88.6, 320 128, 357.9L128, 480C128, 497.7 142.3, 512 160, 512L384, 512C401.7, 512 416, 497.7 416, 480L416, 464L464, 464C475.9, 464 486.9, 461.1 497, 456.5L465.5, 431.7C465, 431.8 464.6, 432 464, 432zM384, 432L384, 480L160, 480L160, 383.1C192.4, 403.8 230.7, 416 272, 416C313.3, 416 351.7, 403.8 384, 383.1zM281.8, 287L192.9, 217C197.5, 256.8 231, 288 272, 288C275.4, 288 278.5, 287.4 281.8, 287z" fill="#727272" fill-opacity="1" class="Black" />
    </g>
  </g>
</svg>