<?xml version='1.0' encoding='UTF-8'?>
<svg viewBox="-2 -4.7992 32 32" xmlns="http://www.w3.org/2000/svg">
  <g transform="matrix(0.9988, 0, 0, 0.9988, 0, 0)">
    <g transform="matrix(0.0438, 0, 0, 0.0438, 0, 0)">
      <path d="M576, 176C611.35, 176 640, 147.35 640, 112C640, 76.65 611.35, 48 576, 48C546.21, 48 521.4, 68.44 514.26, 96L400, 96L400, 64C400, 46.33 385.67, 32 368, 32L272, 32C254.33, 32 240, 46.33 240, 64L240, 96L125.74, 96C118.6, 68.44 93.79, 48 64, 48C28.65, 48 0, 76.65 0, 112C0, 147.35 28.65, 176 64, 176C93.79, 176 118.6, 155.56 125.74, 128L238.55, 128C157.94, 159.51 103.42, 233.79 97.28, 320L64, 320C46.33, 320 32, 334.33 32, 352L32, 448C32, 465.67 46.33, 480 64, 480L160, 480C177.67, 480 192, 465.67 192, 448L192, 352C192, 334.33 177.67, 320 160, 320L129.27, 320C135.03, 250.59 177.33, 190.46 240.35, 161.75C241.31, 178.56 254.95, 192 272, 192L368, 192C385.05, 192 398.69, 178.56 399.65, 161.75C462.67, 190.47 504.97, 250.59 510.73, 320L480, 320C462.33, 320 448, 334.33 448, 352L448, 448C448, 465.67 462.33, 480 480, 480L576, 480C593.67, 480 608, 465.67 608, 448L608, 352C608, 334.33 593.67, 320 576, 320L542.73, 320C536.6, 233.79 482.07, 159.51 401.46, 128L514.27, 128C521.4, 155.56 546.21, 176 576, 176zM160, 448L64, 448L64, 352L160, 352L160, 448zM64, 144C46.36, 144 32, 129.64 32, 112C32, 94.36 46.36, 80 64, 80C81.64, 80 96, 94.36 96, 112C96, 129.64 81.64, 144 64, 144zM368, 160L272, 160L272, 64L368, 64L368, 160zM576, 448L480, 448L480, 352L576, 352L576, 448zM576, 80C593.64, 80 608, 94.36 608, 112C608, 129.64 593.64, 144 576, 144C558.36, 144 544, 129.64 544, 112C544, 94.36 558.36, 80 576, 80z" fill="#727272" fill-opacity="1" class="Black" />
    </g>
  </g>
</svg>