<?xml version='1.0' encoding='UTF-8'?>
<svg viewBox="-1.9998 -4.8027 31.9975 32" xmlns="http://www.w3.org/2000/svg">
  <g transform="matrix(0.9988, 0, 0, 0.9988, 0, 0)">
    <g transform="matrix(0.0438, 0, 0, 0.0438, 0, 0)">
      <path d="M153.18, 178.45L178.49, 158.89L142.87, 116.5L196.27, 74.84A48.72 48.72 0 0 1 233, 64.34A54.55 54.55 0 0 1 269.87, 85.67L295.18, 66.11A86.22 86.22 0 0 0 236.72, 32.56A81 81 0 0 0 176.41, 49.79L123, 91.43C110.47, 101.56 108.44, 120.43 118.5, 133.43zM374.33, 245.79A48.17 48.17 0 0 0 404.21, 256.22L464, 256.22A48 48 0 0 0 464, 160.22L421.06, 160.22L399.74, 143.17A70.61 70.61 0 0 0 408, 144A72.07 72.07 0 1 0 341.6, 99.78A46.65 46.65 0 0 0 292.92, 107.78L193.67, 186.78C181.32, 197.29 175.22, 211.59 176.1, 226.72A47.64 47.64 0 0 0 197.34, 263.86L272, 313.69L272, 400A48 48 0 1 0 368, 400L368, 288A47.91 47.91 0 0 0 346.67, 248.09L333.34, 239.09L349.84, 226.37zM408, 32A40 40 0 1 1 368, 72A40 40 0 0 1 408, 32zM328.89, 274.69A16 16 0 0 1 336, 288L336, 400A16 16 0 1 1 304, 400L304, 296.56L215.13, 237.31A16 16 0 0 1 213.59, 211.86L313.79, 132.08A16 16 0 0 1 334.19, 131.72L409.82, 192.22L464, 192.22A16 16 0 0 1 464, 224.22L404.2, 224.22A16 16 0 0 1 394.2, 220.72L350.11, 185.72L278.7, 240.86zM128, 328A56 56 0 1 0 184, 384A56.06 56.06 0 0 0 128, 328zM128, 408A24 24 0 1 1 152, 384A24 24 0 0 1 128, 408zM617, 340.83C616.91, 340.64 616.85, 340.45 616.75, 340.26A30 30 0 0 0 612.38, 303.39L592.57, 283.59A30.63 30.63 0 0 0 555.69, 279.2L555.13, 278.97A30 30 0 0 0 526, 256L498, 256A30 30 0 0 0 468.85, 279L468.26, 279.25A30.13 30.13 0 0 0 431.39, 283.64L411.6, 303.44A30.08 30.08 0 0 0 407.23, 340.3A4.83 4.83 0 0 0 406.98, 340.88A30.06 30.06 0 0 0 384, 370L384, 398A30.08 30.08 0 0 0 407, 427.17C407.06, 427.36 407.16, 427.56 407.22, 427.75A30.09 30.09 0 0 0 411.62, 464.61L431.41, 484.41A30.13 30.13 0 0 0 468.28, 488.8L468.87, 489.03A30 30 0 0 0 498, 512L526, 512A30 30 0 0 0 555.16, 489L555.75, 488.77A30.11 30.11 0 0 0 592.63, 484.38L612.41, 464.58A30.07 30.07 0 0 0 616.78, 427.72A3.63 3.63 0 0 0 617.03, 427.14A30.07 30.07 0 0 0 640, 398L640, 370A30 30 0 0 0 617, 340.83zM593.6, 396L590.16, 407.39A83.81 83.81 0 0 1 583.82, 422.66L578.1, 433.19L586.6, 441.62L589.78, 441.98L572.78, 461.78L561.12, 450.11L550.62, 455.81A79.41 79.41 0 0 1 535.37, 462.12L524, 465.55L524, 477.45L526, 480L500, 482L500, 465.55L488.59, 462.12A81.43 81.43 0 0 1 473.31, 455.8L462.84, 450.12L454.41, 458.56L454, 461.78L434.2, 444.83L446, 433.16L440.22, 422.61A81.24 81.24 0 0 1 433.9, 407.37L430.42, 396L418.54, 396L416, 398L414, 372L430.41, 372L433.84, 360.61A83.15 83.15 0 0 1 440.19, 345.34L445.91, 334.81L437.41, 326.37L434.22, 326.01L451.22, 306.22L462.87, 317.89L473.37, 312.19A78.89 78.89 0 0 1 488.59, 305.87L500.03, 302.47L500.03, 290.55L498, 288L524, 286L524, 302.45L535.4, 305.87A82.63 82.63 0 0 1 550.71, 312.22L561.24, 317.87L569.65, 309.39L569.96, 306.22L589.8, 323.17L578.12, 334.81L583.81, 345.33A81.38 81.38 0 0 1 590.09, 360.56L593.5, 372L608.16, 372L610, 396zM233.05, 340.84A5.77 5.77 0 0 1 232.8, 340.25A30.13 30.13 0 0 0 228.4, 303.39L208.61, 283.59C198.99, 273.94 183.05, 272.28 171.74, 279.2L171.15, 278.97A30 30 0 0 0 142, 256L114, 256A30 30 0 0 0 84.85, 279L84.29, 279.23A30.11 30.11 0 0 0 47.41, 283.62L27.6, 303.42A30.06 30.06 0 0 0 23.23, 340.31C23.17, 340.48 23.07, 340.67 23.01, 340.86A30 30 0 0 0 0, 370L0, 398A30.05 30.05 0 0 0 23, 427.17A2.63 2.63 0 0 0 23.22, 427.72A30.07 30.07 0 0 0 27.59, 464.61L47.4, 484.41A30.06 30.06 0 0 0 84.28, 488.78A5.51 5.51 0 0 0 84.87, 489.03A30 30 0 0 0 114, 512L142, 512A30 30 0 0 0 171.16, 489L171.75, 488.77C183, 495.67 198.94, 494.03 208.59, 484.38L228.41, 464.58A30.08 30.08 0 0 0 232.78, 427.72A5.64 5.64 0 0 0 233.03, 427.14A30.06 30.06 0 0 0 256, 398L256, 369.94A30.15 30.15 0 0 0 233.05, 340.84zM209.52, 396L206.11, 407.45A80.14 80.14 0 0 1 199.83, 422.66L194.12, 433.19L202.62, 441.62L205.8, 441.98L188.8, 461.78L177.15, 450.11L166.65, 455.81A79.67 79.67 0 0 1 151.4, 462.12L140, 465.55L140, 477.45L142, 480L116, 482L116, 465.53L104.56, 462.12A82.19 82.19 0 0 1 89.25, 455.78L78.72, 450.12L70.31, 458.61L70, 461.78L50.19, 444.83L61.87, 433.19L56.18, 422.67A85.12 85.12 0 0 1 49.87, 407.37L46.44, 396L34.56, 396L32, 398L30, 372L46.44, 372L49.87, 360.61A83 83 0 0 1 56.22, 345.28L61.84, 334.78L53.4, 326.37L50.22, 326L67.15, 306.16L78.78, 317.88L89.31, 312.19A80.53 80.53 0 0 1 104.59, 305.86L115.99, 302.44L115.99, 290.54L114, 288L140, 286L140, 302.47L151.44, 305.87A82 82 0 0 1 166.69, 312.2L177.16, 317.87L185.59, 309.44L186, 306.22L205.75, 323.22L194.19, 334.85L199.84, 345.32A84.62 84.62 0 0 1 206.16, 360.61L209.58, 372L224.18, 372L226, 396zM512, 328A56 56 0 1 0 568, 384A56.06 56.06 0 0 0 512, 328zM512, 408A24 24 0 1 1 536, 384A24 24 0 0 1 512, 408z" fill="#727272" fill-opacity="1" class="Black" />
    </g>
  </g>
</svg>