<?xml version='1.0' encoding='UTF-8'?>
<svg viewBox="-1.9998 -4.8027 31.9975 32" xmlns="http://www.w3.org/2000/svg">
  <g transform="matrix(0.9988, 0, 0, 0.9988, 0, 0)">
    <g transform="matrix(0.0438, 0, 0, 0.0438, 0, 0)">
      <path d="M120, 272A120 120 0 1 0 240, 392A120 120 0 0 0 120, 272zM120, 480A88 88 0 1 1 208, 392A88.1 88.1 0 0 1 120, 480zM520, 272A120 120 0 1 0 640, 392A120 120 0 0 0 520, 272zM520, 480A88 88 0 1 1 608, 392A88.1 88.1 0 0 1 520, 480zM374.31, 245.79A48.19 48.19 0 0 0 404.2, 256.22L464, 256.22A48 48 0 0 0 464, 160.22L421.05, 160.22L399.73, 143.17A70.18 70.18 0 0 0 408, 144A72.07 72.07 0 1 0 341.6, 99.78A46.67 46.67 0 0 0 292.91, 107.78L193.66, 186.78C181.31, 197.29 175.21, 211.59 176.09, 226.72A47.64 47.64 0 0 0 197.33, 263.86L272, 313.69L272, 400A48 48 0 0 0 368, 400L368, 288A47.91 47.91 0 0 0 346.67, 248.09L333.34, 239.09L349.84, 226.37zM408, 32A40 40 0 1 1 368, 72A40 40 0 0 1 408, 32zM328.88, 274.69A16 16 0 0 1 336, 288L336, 400A16 16 0 0 1 304, 400L304, 296.56L215.12, 237.31A16 16 0 0 1 213.59, 211.86L313.79, 132.08A16 16 0 0 1 334.2, 131.72L409.82, 192.22L464, 192.22A16 16 0 0 1 464, 224.22L404.2, 224.22A16 16 0 0 1 394.2, 220.72L350.11, 185.72L278.68, 240.83z" fill="#727272" fill-opacity="1" class="Black" />
    </g>
  </g>
</svg>