<?xml version='1.0' encoding='UTF-8'?>
<svg viewBox="-3.7495 -2 32 32" xmlns="http://www.w3.org/2000/svg">
  <g transform="matrix(0.0547, 0, 0, 0.0547, 0, 0)">
    <path d="M96, 96C78.25, 96 64, 81.75 64, 64C64, 33 96, 41 96, 0C108, 0 128, 29.5 128, 56C128, 82.5 113.75, 96 96, 96zM224, 96C206.25, 96 192, 81.75 192, 64C192, 33 224, 41 224, 0C236, 0 256, 29.5 256, 56C256, 82.5 241.75, 96 224, 96zM352, 96C334.25, 96 320, 81.75 320, 64C320, 33 352, 41 352, 0C364, 0 384, 29.5 384, 56C384, 82.5 369.75, 96 352, 96zM400, 256L368, 256L368, 112L336, 112L336, 256L240, 256L240, 112L208, 112L208, 256L112, 256L112, 112L80, 112L80, 256L48, 256C21.5, 256 0, 277.5 0, 304L0, 512L448, 512L448, 304C448, 277.5 426.5, 256 400, 256zM416, 480L32, 480L32, 407.957C48.222, 398.478 55.928, 384 74.75, 384C102.701, 384 106.003, 416 149.5, 416C192.343, 416 196.717, 384 224, 384C252.148, 384 255.201, 416 298.75, 416C342.107, 416 345.517, 384 373.5, 384C391.988, 384 399.745, 398.475 416, 407.955L416, 480zM416, 367.626C406.374, 359.752 394.783, 352 373.5, 352C330.07, 352 326.675, 384 298.75, 384C271.055, 384 267.296, 352 224, 352C181.158, 352 176.782, 384 149.5, 384C121.352, 384 118.298, 352 74.75, 352C53.287, 352 41.649, 359.774 32, 367.658L32, 304C32, 295.178 39.178, 288 48, 288L400, 288C408.822, 288 416, 295.178 416, 304L416, 367.626z" fill="#727272" fill-opacity="1" class="Black" />
  </g>
</svg>