<?xml version='1.0' encoding='UTF-8'?>
<svg viewBox="-2 -2 32 32" xmlns="http://www.w3.org/2000/svg">
  <g transform="matrix(0.0547, 0, 0, 0.0547, 0, 0)">
    <path d="M288, 400C274.74, 400 264, 410.74 264, 424C264, 437.25 274.74, 448 288, 448C301.26, 448 312, 437.25 312, 424C312, 410.74 301.26, 400 288, 400zM422.25, 344.03L512, 0L48, 0C21.53, 0 0, 21.53 0, 48L0, 208C0, 234.47 21.53, 256 48, 256L150.26, 256L157.79, 342.56C121.72, 356.38 96, 391.07 96, 432L96, 480C96, 497.67 110.33, 512 128, 512L448, 512C465.67, 512 480, 497.67 480, 480L480, 432C480, 392.6 456.21, 358.82 422.25, 344.03zM48, 224C39.19, 224 32, 216.83 32, 208L32, 48C32, 39.17 39.19, 32 48, 32L130.78, 32L147.48, 224L48, 224zM470.58, 32L453.88, 96L296, 96C291.58, 96 288, 99.58 288, 104L288, 120C288, 124.42 291.58, 128 296, 128L445.54, 128L428.84, 192L296, 192C291.58, 192 288, 195.58 288, 200L288, 216C288, 220.42 291.58, 224 296, 224L420.49, 224L391.27, 336L189.34, 336L162.9, 32L470.58, 32zM448, 480L128, 480L128, 432C128, 396.71 156.71, 368 192, 368L384, 368C419.29, 368 448, 396.71 448, 432L448, 480z" fill="#727272" fill-opacity="1" class="Black" />
  </g>
</svg>