<?xml version='1.0' encoding='UTF-8'?>
<svg viewBox="-5.4999 -1.9998 32 32" xmlns="http://www.w3.org/2000/svg">
  <g transform="matrix(0.0547, 0, 0, 0.0547, 0, 0)">
    <path d="M206.817, 489.959C210.151, 498.143 206.219, 507.48 198.037, 510.813C189.871, 514.142 180.522, 510.231 177.183, 502.033L110.14, 337.476L125.689, 290.828L206.817, 489.959zM102.663, 121.531A4 4 0 0 1 109.225, 116.954L222.158, 278.866C225.973, 284.334 233.465, 285.608 238.866, 281.842C244.222, 278.105 245.662, 270.61 241.842, 265.134L121.842, 93.134A11.978 11.978 0 0 0 112, 88.004L112, 88L80, 88L80, 88.013C76.706, 88.014 73.426, 89.35 71.057, 91.998L0, 171.415L0, 272C0, 278.627 5.373, 284 12, 284C18.627, 284 24, 278.627 24, 272L24, 180.585L72, 126.939L72, 325.404L16.821, 490.936C14.026, 499.319 18.557, 508.38 26.94, 511.174C35.321, 513.968 44.384, 509.439 47.178, 501.055L120, 282.597L120, 146.387L102.663, 121.531zM383.388, 505.874L245.791, 286.463A20.279 20.279 0 0 1 239.011, 290.708L376.611, 510.124A4 4 0 1 0 383.388, 505.874zM96, 0C73.909, 0 56, 17.909 56, 40C56, 62.091 73.909, 80 96, 80C118.091, 80 136, 62.091 136, 40C136, 17.909 118.091, 0 96, 0z" fill="#727272" fill-opacity="1" class="Black" />
  </g>
</svg>