<?xml version='1.0' encoding='UTF-8'?>
<svg viewBox="-2.0023 -1.9998 32 31.9975" xmlns="http://www.w3.org/2000/svg">
  <g transform="matrix(0.0547, 0, 0, 0.0547, 0, 0)">
    <path d="M200.3, 0C195.8, -0.1 192.1, 3.6 192.1, 8.1L192.1, 24C192.1, 28.4 195.6, 31.8 200, 31.9C352.8, 35.7 476, 159.2 480, 312C480.1, 316.4 483.6, 319.9 487.9, 319.9L503.9, 319.9C508.4, 319.9 512.1, 316.2 512, 311.7C507.7, 141.8 370.2, 4.3 200.3, 0zM200.3, 96C195.8, 95.8 192.1, 99.6 192.1, 104.1L192.1, 120.1C192.1, 124.4 195.6, 127.9 199.9, 128.1C299.7, 132.1 380.4, 212.3 384.1, 312.1C384.3, 316.4 387.7, 319.9 392.1, 319.9L407.9, 319.9C412.4, 319.9 416.1, 316.2 416, 311.7C411.7, 194.7 317.3, 100.3 200.3, 96zM121, 256L112, 256C103.2, 256 96, 263.2 96, 272L96, 288C96, 296.8 103.2, 304 112, 304L122.9, 304C169.9, 304 210.9, 342.4 207.8, 389.3C205.2, 429.2 173.2, 461.1 133.4, 463.8C86.4, 467 48, 426 48, 378.9L48, 144C48, 135.2 40.8, 128 32, 128L16, 128C7.2, 128 0, 135.2 0, 144L0, 377C0, 451.2 60.1, 515.5 134.3, 511.9C199.9, 508.7 252.7, 455.9 255.9, 390.3C259.4, 316.1 195.2, 256 121, 256z" fill="#727272" fill-opacity="1" class="Black" />
  </g>
</svg>