<?xml version='1.0' encoding='UTF-8'?>
<svg viewBox="-2.9963 0 32 32" xmlns="http://www.w3.org/2000/svg">
  <g transform="matrix(0.0625, 0, 0, 0.0625, 0, 0)">
    <path d="M306, 234.12C333.74, 213.74 352, 181.11 352, 144A112 112 0 0 0 240, 32L40, 32A8 8 0 0 0 32, 40L32, 56A8 8 0 0 0 40, 64L64, 64L64, 448L40, 448A8 8 0 0 0 32, 456L32, 472A8 8 0 0 0 40, 480L256, 480A128 128 0 0 0 306, 234.12zM96, 64L240, 64A80 80 0 0 1 240, 224L96, 224zM256, 448L96, 448L96, 256L256, 256A96 96 0 0 1 256, 448z" fill="#727272" fill-opacity="1" class="Black" />
  </g>
</svg>