<?xml version='1.0' encoding='UTF-8'?>
<svg viewBox="-7.2505 -1.9998 32 31.9975" xmlns="http://www.w3.org/2000/svg">
  <g transform="matrix(0.0547, 0, 0, 0.0547, 0, 0)">
    <path d="M296, 160L180.6, 160L223.2, 30.2C227.2, 15 215.7, 0 200, 0L56, 0C44, 0 33.8, 8.9 32.2, 20.8L0.2, 260.8C-1.7, 275.2 9.5, 288 24, 288L142.7, 288L96.6, 482.5C93, 497.7 104.6, 512 119.9, 512C128.2, 512 136.3, 507.6 140.7, 500L316.7, 196C326, 180.1 314.5, 160 296, 160zM140.3, 436.9L173.8, 295.3L183.1, 255.9L33.1, 255.9L63, 32L188.9, 32L150.2, 150L136.4, 192L282.1, 192L140.3, 436.9z" fill="#727272" fill-opacity="1" class="Black" />
  </g>
</svg>