<?xml version='1.0' encoding='UTF-8'?>
<svg viewBox="-2 -4.7992 32 32" xmlns="http://www.w3.org/2000/svg">
  <g transform="matrix(0.9988, 0, 0, 0.9988, 0, 0)">
    <g transform="matrix(0.0438, 0, 0, 0.0438, 0, 0)">
      <path d="M600.44, 256C629.33, 238.25 640, 211.66 640, 178.95C640, 133.22 601.97, 96 555.19, 96C518.69, 96 486.38, 118.75 474.78, 152.59C467.19, 175.22 467.57, 176 456, 176L184, 176C172.43, 176 172.81, 175.22 165.22, 152.59C153.62, 118.75 121.31, 96 84.81, 96C38.03, 96 0, 133.22 0, 178.95C0, 211.66 10.67, 238.25 39.56, 256C10.67, 273.75 0, 300.34 0, 333.05C0, 378.78 38.03, 416 84.81, 416C121.31, 416 153.62, 393.25 165.22, 359.41C172.81, 336.78 172.43, 336 184, 336L456, 336C467.57, 336 467.19, 336.78 474.78, 359.41C486.37, 393.25 518.69, 416 555.19, 416C601.97, 416 640, 378.78 640, 333.05C640, 300.34 629.33, 273.75 600.44, 256zM555.19, 384C532.38, 384 512.22, 369.95 505.03, 349.03C496.13, 322.4 488.47, 304 456, 304L184, 304C151.53, 304 143.87, 322.4 134.97, 349.03C127.78, 369.95 107.62, 384 84.81, 384C55.69, 384 32, 361.14 32, 333.05C32, 309.61 38.88, 291.46 61.03, 280.69L61.03, 280.67C70.62, 276.01 76.56, 266.55 76.56, 256C76.56, 245.45 70.62, 235.98 61.03, 231.33L61.03, 231.31C38.88, 220.54 32, 202.39 32, 178.95C32, 150.86 55.69, 128 84.81, 128C107.62, 128 127.78, 142.05 134.97, 162.97C143.87, 189.6 151.53, 208 184, 208L456, 208C488.47, 208 496.13, 189.6 505.03, 162.97C512.22, 142.05 532.37, 128 555.19, 128C584.31, 128 608, 150.86 608, 178.95C608, 202.39 601.12, 220.54 578.97, 231.31L578.97, 231.33C569.38, 235.99 563.44, 245.45 563.44, 256C563.44, 266.55 569.38, 276.02 578.97, 280.67L578.97, 280.69C601.12, 291.46 608, 309.61 608, 333.05C608, 361.14 584.31, 384 555.19, 384z" fill="#727272" fill-opacity="1" class="Black" />
    </g>
  </g>
</svg>