<?xml version='1.0' encoding='UTF-8'?>
<svg viewBox="-3.7495 -2 32 32" xmlns="http://www.w3.org/2000/svg">
  <g transform="matrix(0.0547, 0, 0, 0.0547, 0, 0)">
    <path d="M445.66, 224.57L383.44, 162.34C380.32, 159.22 375.25, 159.22 372.13, 162.34L360.82, 173.65C357.7, 176.77 357.7, 181.84 360.82, 184.96L380.62, 204.76L332.05, 253.33C319.14, 239.54 304.47, 227.42 288.01, 217.89L288.01, 32L312.01, 32C316.43, 32 320.01, 28.42 320.01, 24L320.01, 8C320.01, 3.58 316.43, 0 312.01, 0L72, 0C67.58, 0 64, 3.58 64, 8L64, 24C64, 28.42 67.58, 32 72, 32L96, 32L96, 217.9C38.67, 251.11 0, 312.97 0, 384C0, 427.81 14.8, 468.07 39.52, 500.35C45.34, 507.96 54.73, 512 64.31, 512L319.68, 512C329.26, 512 338.65, 507.96 344.47, 500.35C369.21, 468.07 384, 427.8 384, 384C384, 344.96 372.01, 308.92 351.97, 278.65L403.23, 227.39L423.03, 247.19C426.15, 250.31 431.22, 250.31 434.34, 247.19L445.65, 235.88A7.994 7.994 0 0 0 445.66, 224.57zM112.04, 245.59L128, 236.35L128, 32L256, 32L256, 236.34L271.96, 245.58C301.89, 262.92 324.79, 289.31 338.31, 319.99L45.69, 319.99C59.21, 289.31 82.11, 262.92 112.04, 245.59zM319.69, 480L64.93, 480.89C43.38, 452.77 32, 419.26 32, 384C32, 373.12 33.46, 362.46 35.63, 352L348.38, 352C350.55, 362.46 352.01, 373.12 352.01, 384C352, 419.27 340.62, 452.77 319.69, 480z" fill="#727272" fill-opacity="1" class="Black" />
  </g>
</svg>