<?xml version='1.0' encoding='UTF-8'?>
<svg viewBox="-3.7495 -2 32 32" xmlns="http://www.w3.org/2000/svg">
  <g transform="matrix(0.0547, 0, 0, 0.0547, 0, 0)">
    <path d="M448, 392L448, 24A23.94 23.94 0 0 0 424, 0L80, 0A80 80 0 0 0 0, 80L0, 448A64 64 0 0 0 64, 512L436, 512A12 12 0 0 0 448, 500L448, 492A12 12 0 0 0 436, 480L432.7, 480C428.7, 459.8 429.5, 430.3 433.1, 414.2A24.1 24.1 0 0 0 448, 392zM404.3, 480L64, 480A32 32 0 0 1 64, 416L404.3, 416A228.6 228.6 0 0 0 404.3, 480zM416, 384L64, 384A63.33 63.33 0 0 0 32, 392.88L32, 80A48 48 0 0 1 80, 32L416, 32zM152, 240L208, 240L208, 296A8 8 0 0 0 216, 304L264, 304A8 8 0 0 0 272, 296L272, 240L328, 240A8 8 0 0 0 336, 232L336, 184A8 8 0 0 0 328, 176L272, 176L272, 120A8 8 0 0 0 264, 112L216, 112A8 8 0 0 0 208, 120L208, 176L152, 176A8 8 0 0 0 144, 184L144, 232A8 8 0 0 0 152, 240z" fill="#727272" fill-opacity="1" class="Black" />
  </g>
</svg>