<?xml version='1.0' encoding='UTF-8'?>
<svg viewBox="-3.7494 -1.9999 32 32" xmlns="http://www.w3.org/2000/svg">
  <g transform="matrix(0.0547, 0, 0, 0.0547, 0, 0)">
    <path d="M448, 392L448, 24C448, 10.7 437.3, 0 424, 0L80, 0C35.8, 0 0, 35.8 0, 80L0, 448C0, 483.35 28.65, 512 64, 512L436, 512C442.6, 512 448, 506.6 448, 500L448, 492C448, 485.4 442.6, 480 436, 480L432.7, 480C428.7, 459.8 429.5, 430.3 433.1, 414.2C441.8, 410.6 448, 402 448, 392zM404.3, 480L64, 480C46.33, 480 32, 465.67 32, 448C32, 430.33 46.33, 416 64, 416L404.3, 416C401.4, 434.8 401.2, 459.6 404.3, 480zM416, 384L64, 384C52.28, 384 41.45, 387.38 32, 392.88L32, 80C32, 53.5 53.5, 32 80, 32L416, 32L416, 384z" fill="#727272" fill-opacity="1" class="Black" />
  </g>
</svg>