<?xml version='1.0' encoding='UTF-8'?>
<svg viewBox="-2 0 32 32" xmlns="http://www.w3.org/2000/svg">
  <g transform="matrix(0.0625, 0, 0, 0.0625, 0, 0)">
    <path d="M24, 32L8, 32A8 8 0 0 0 0, 40L0, 472A8 8 0 0 0 8, 480L24, 480A8 8 0 0 0 32, 472L32, 40A8 8 0 0 0 24, 32zM232, 32L216, 32A16 16 0 0 0 200, 48L200, 64A16 16 0 0 0 216, 80L232, 80A16 16 0 0 0 248, 64L248, 48A16 16 0 0 0 232, 32zM232, 328L216, 328A16 16 0 0 0 200, 344L200, 360A16 16 0 0 0 216, 376L232, 376A16 16 0 0 0 248, 360L248, 344A16 16 0 0 0 232, 328zM232, 136L216, 136A16 16 0 0 0 200, 152L200, 168A16 16 0 0 0 216, 184L232, 184A16 16 0 0 0 248, 168L248, 152A16 16 0 0 0 232, 136zM232, 232L216, 232A16 16 0 0 0 200, 248L200, 264A16 16 0 0 0 216, 280L232, 280A16 16 0 0 0 248, 264L248, 248A16 16 0 0 0 232, 232zM136, 32L120, 32A16 16 0 0 0 104, 48L104, 64A16 16 0 0 0 120, 80L136, 80A16 16 0 0 0 152, 64L152, 48A16 16 0 0 0 136, 32zM136, 432L120, 432A16 16 0 0 0 104, 448L104, 464A16 16 0 0 0 120, 480L136, 480A16 16 0 0 0 152, 464L152, 448A16 16 0 0 0 136, 432zM136, 232L120, 232A16 16 0 0 0 104, 248L104, 264A16 16 0 0 0 120, 280L136, 280A16 16 0 0 0 152, 264L152, 248A16 16 0 0 0 136, 232zM232, 432L216, 432A16 16 0 0 0 200, 448L200, 464A16 16 0 0 0 216, 480L232, 480A16 16 0 0 0 248, 464L248, 448A16 16 0 0 0 232, 432zM432, 232L416, 232A16 16 0 0 0 400, 248L400, 264A16 16 0 0 0 416, 280L432, 280A16 16 0 0 0 448, 264L448, 248A16 16 0 0 0 432, 232zM432, 136L416, 136A16 16 0 0 0 400, 152L400, 168A16 16 0 0 0 416, 184L432, 184A16 16 0 0 0 448, 168L448, 152A16 16 0 0 0 432, 136zM432, 32L416, 32A16 16 0 0 0 400, 48L400, 64A16 16 0 0 0 416, 80L432, 80A16 16 0 0 0 448, 64L448, 48A16 16 0 0 0 432, 32zM328, 432L312, 432A16 16 0 0 0 296, 448L296, 464A16 16 0 0 0 312, 480L328, 480A16 16 0 0 0 344, 464L344, 448A16 16 0 0 0 328, 432zM432, 328L416, 328A16 16 0 0 0 400, 344L400, 360A16 16 0 0 0 416, 376L432, 376A16 16 0 0 0 448, 360L448, 344A16 16 0 0 0 432, 328zM432, 432L416, 432A16 16 0 0 0 400, 448L400, 464A16 16 0 0 0 416, 480L432, 480A16 16 0 0 0 448, 464L448, 448A16 16 0 0 0 432, 432zM328, 232L312, 232A16 16 0 0 0 296, 248L296, 264A16 16 0 0 0 312, 280L328, 280A16 16 0 0 0 344, 264L344, 248A16 16 0 0 0 328, 232zM328, 32L312, 32A16 16 0 0 0 296, 48L296, 64A16 16 0 0 0 312, 80L328, 80A16 16 0 0 0 344, 64L344, 48A16 16 0 0 0 328, 32z" fill="#727272" fill-opacity="1" class="Black" />
  </g>
</svg>