<?xml version='1.0' encoding='UTF-8'?>
<svg viewBox="-2 0 32 32" xmlns="http://www.w3.org/2000/svg">
  <g transform="matrix(0.0625, 0, 0, 0.0625, 0, 0)">
    <path d="M208, 40L208, 472A8 8 0 0 0 216, 480L232, 480A8 8 0 0 0 240, 472L240, 40A8 8 0 0 0 232, 32L216, 32A8 8 0 0 0 208, 40zM344, 264L344, 248A16 16 0 0 0 328, 232L312, 232A16 16 0 0 0 296, 248L296, 264A16 16 0 0 0 312, 280L328, 280A16 16 0 0 0 344, 264zM48, 360L48, 344A16 16 0 0 0 32, 328L16, 328A16 16 0 0 0 0, 344L0, 360A16 16 0 0 0 16, 376L32, 376A16 16 0 0 0 48, 360zM48, 168L48, 152A16 16 0 0 0 32, 136L16, 136A16 16 0 0 0 0, 152L0, 168A16 16 0 0 0 16, 184L32, 184A16 16 0 0 0 48, 168zM152, 264L152, 248A16 16 0 0 0 136, 232L120, 232A16 16 0 0 0 104, 248L104, 264A16 16 0 0 0 120, 280L136, 280A16 16 0 0 0 152, 264zM48, 264L48, 248A16 16 0 0 0 32, 232L16, 232A16 16 0 0 0 0, 248L0, 264A16 16 0 0 0 16, 280L32, 280A16 16 0 0 0 48, 264zM48, 464L48, 448A16 16 0 0 0 32, 432L16, 432A16 16 0 0 0 0, 448L0, 464A16 16 0 0 0 16, 480L32, 480A16 16 0 0 0 48, 464zM104, 48L104, 64A16 16 0 0 0 120, 80L136, 80A16 16 0 0 0 152, 64L152, 48A16 16 0 0 0 136, 32L120, 32A16 16 0 0 0 104, 48zM0, 48L0, 64A16 16 0 0 0 16, 80L32, 80A16 16 0 0 0 48, 64L48, 48A16 16 0 0 0 32, 32L16, 32A16 16 0 0 0 0, 48zM448, 360L448, 344A16 16 0 0 0 432, 328L416, 328A16 16 0 0 0 400, 344L400, 360A16 16 0 0 0 416, 376L432, 376A16 16 0 0 0 448, 360zM448, 168L448, 152A16 16 0 0 0 432, 136L416, 136A16 16 0 0 0 400, 152L400, 168A16 16 0 0 0 416, 184L432, 184A16 16 0 0 0 448, 168zM448, 264L448, 248A16 16 0 0 0 432, 232L416, 232A16 16 0 0 0 400, 248L400, 264A16 16 0 0 0 416, 280L432, 280A16 16 0 0 0 448, 264zM448, 464L448, 448A16 16 0 0 0 432, 432L416, 432A16 16 0 0 0 400, 448L400, 464A16 16 0 0 0 416, 480L432, 480A16 16 0 0 0 448, 464zM400, 48L400, 64A16 16 0 0 0 416, 80L432, 80A16 16 0 0 0 448, 64L448, 48A16 16 0 0 0 432, 32L416, 32A16 16 0 0 0 400, 48zM296, 48L296, 64A16 16 0 0 0 312, 80L328, 80A16 16 0 0 0 344, 64L344, 48A16 16 0 0 0 328, 32L312, 32A16 16 0 0 0 296, 48zM152, 464L152, 448A16 16 0 0 0 136, 432L120, 432A16 16 0 0 0 104, 448L104, 464A16 16 0 0 0 120, 480L136, 480A16 16 0 0 0 152, 464zM344, 464L344, 448A16 16 0 0 0 328, 432L312, 432A16 16 0 0 0 296, 448L296, 464A16 16 0 0 0 312, 480L328, 480A16 16 0 0 0 344, 464z" fill="#727272" fill-opacity="1" class="Black" />
  </g>
</svg>