<?xml version='1.0' encoding='UTF-8'?>
<svg viewBox="-2.0625 0 32 32" xmlns="http://www.w3.org/2000/svg">
  <g transform="matrix(0.0625, 0, 0, 0.0625, 0, 0)">
    <path d="M439, 32L423, 32A8 8 0 0 0 415, 40L415, 448L7, 448A8 8 0 0 0 -1, 456L-1, 472A8 8 0 0 0 7, 480L431, 480A16 16 0 0 0 447, 464L447, 40A8 8 0 0 0 439, 32zM15, 80L31, 80A16 16 0 0 0 47, 64L47, 48A16 16 0 0 0 31, 32L15, 32A16 16 0 0 0 -1, 48L-1, 64A16 16 0 0 0 15, 80zM215, 80L231, 80A16 16 0 0 0 247, 64L247, 48A16 16 0 0 0 231, 32L215, 32A16 16 0 0 0 199, 48L199, 64A16 16 0 0 0 215, 80zM311, 80L327, 80A16 16 0 0 0 343, 64L343, 48A16 16 0 0 0 327, 32L311, 32A16 16 0 0 0 295, 48L295, 64A16 16 0 0 0 311, 80zM119, 80L135, 80A16 16 0 0 0 151, 64L151, 48A16 16 0 0 0 135, 32L119, 32A16 16 0 0 0 103, 48L103, 64A16 16 0 0 0 119, 80zM15, 376L31, 376A16 16 0 0 0 47, 360L47, 344A16 16 0 0 0 31, 328L15, 328A16 16 0 0 0 -1, 344L-1, 360A16 16 0 0 0 15, 376zM15, 280L31, 280A16 16 0 0 0 47, 264L47, 248A16 16 0 0 0 31, 232L15, 232A16 16 0 0 0 -1, 248L-1, 264A16 16 0 0 0 15, 280zM15, 184L31, 184A16 16 0 0 0 47, 168L47, 152A16 16 0 0 0 31, 136L15, 136A16 16 0 0 0 -1, 152L-1, 168A16 16 0 0 0 15, 184z" fill="#727272" fill-opacity="1" class="Black" />
  </g>
</svg>