<?xml version='1.0' encoding='UTF-8'?>
<svg viewBox="-1.9998 -2.0011 31.9975 32" xmlns="http://www.w3.org/2000/svg">
  <g transform="matrix(0.0547, 0, 0, 0.0547, 0, 0)">
    <path d="M403.77, 176.11L380.3, 199.58C430.76, 278.57 427.13, 382.33 368.68, 457.4L245.58, 334.3L222.95, 356.93L375.7, 509.66C378.82, 512.78 383.89, 512.78 387.01, 509.66L398.32, 498.35A7.985 7.985 0 0 0 398.32, 487.04L391.56, 480.28C462.42, 392.24 466.52, 268.25 403.77, 176.11zM155.08, 289.04L177.71, 266.41L54.61, 143.31C129.68, 84.87 233.44, 81.23 312.43, 131.69L335.9, 108.22C243.76, 45.47 119.77, 49.57 31.74, 120.43L24.97, 113.66C21.84, 110.54 16.78, 110.54 13.66, 113.66L2.34, 124.99A7.985 7.985 0 0 0 2.34, 136.3L155.08, 289.04zM496.36, 0C495.33, 0 494.29, 0.1 493.23, 0.31L364.63, 26.03C352.34, 28.49 347.75, 43.65 356.61, 52.52L396.73, 92.64L144.36, 345.01L90.73, 321.05A20.547 20.547 0 0 0 69.69, 326.01L6.03, 389.69C-4.77, 400.49 -0.43, 418.89 14.07, 423.73L69.73, 442.28L88.28, 497.93C91.27, 506.91 99.47, 511.99 107.85, 511.99C112.99, 511.99 118.21, 510.07 122.32, 505.96L185.99, 442.29A20.56 20.56 0 0 0 190.96, 421.25L167, 367.63L419.37, 115.26L459.5, 155.38C462.66, 158.54 466.62, 159.99 470.52, 159.99C477.56, 159.99 484.4, 155.27 485.98, 147.36L511.69, 18.77C513.67, 8.86 505.96, 0 496.36, 0zM112.77, 470.25L100.07, 432.16L95.01, 416.98L79.83, 411.92L41.74, 399.22L86.67, 354.29L135.76, 376.22L157.69, 425.31L112.77, 470.25zM460.57, 111.22L400.78, 51.44L475.51, 36.49L460.57, 111.22z" fill="#727272" fill-opacity="1" class="Black" />
  </g>
</svg>