<?xml version='1.0' encoding='UTF-8'?>
<svg viewBox="-2.8771 -2 32 32" xmlns="http://www.w3.org/2000/svg">
  <g transform="matrix(0.0547, 0, 0, 0.0547, 0, 0)">
    <path d="M475.2, 312.2C462.2, 257.8 425.9, 223 421.3, 174.4C417.9, 139.7 442.5, 117 440, 75C437.4, 31.7 407.1, 0.1 368, 0C328.9, 0.1 298.7, 31.7 296.1, 75C293.6, 117 318.1, 139.8 314.8, 174.4C310.2, 223 273.8, 257.9 260.9, 312.2C248.4, 364.5 261.3, 452.1 289.1, 503.5L293.6, 511.9L442.6, 511.9L447.1, 503.5C474.8, 452.1 487.7, 364.5 475.2, 312.2zM408, 76.9C409.7, 105.5 391.9, 126.2 389.3, 160L346.7, 160C344.1, 126.1 326.2, 105.6 328, 76.9C331.6, 16.8 404.4, 16.8 408, 76.9zM423.1, 479.9L312.9, 479.9C291.9, 434.7 281.9, 361.2 291.9, 319.6C302.6, 274.8 333.8, 242.6 344, 191.9L392, 191.9C402.2, 242.6 433.4, 274.8 444.1, 319.6C454, 361.3 444, 434.7 423.1, 479.9zM165.3, 174.5C162, 139.8 186.5, 117.1 184, 75.1C181.4, 31.7 151.1, 0.2 112, 0.1C72.9, 0.1 42.7, 31.7 40, 75.1C37.4, 117.1 62, 139.8 58.7, 174.5C54.1, 223.2 17.7, 258 4.8, 312.3C-7.7, 364.6 5.2, 452.3 33, 503.7L37.5, 512.1L186.5, 512.1L191, 503.7C218.8, 452.3 231.7, 364.7 219.2, 312.3C206.3, 258 169.9, 223.1 165.3, 174.5zM152, 77C153.7, 105.7 135.9, 126.1 133.3, 160L90.7, 160C88.1, 126.1 70.2, 105.7 72, 77C75.6, 16.9 148.4, 16.9 152, 77zM167.1, 480L56.9, 480C35.9, 434.8 25.9, 361.3 35.9, 319.7C46.6, 274.9 77.9, 242.7 88, 192L136, 192C146.2, 242.7 177.4, 274.9 188.1, 319.7C198.1, 361.3 188.1, 434.8 167.1, 480z" fill="#727272" fill-opacity="1" class="Black" />
  </g>
</svg>