<?xml version='1.0' encoding='UTF-8'?>
<svg viewBox="-2.0025 -4.2184 32 32" xmlns="http://www.w3.org/2000/svg">
  <g transform="matrix(1.001, 0, 0, 1.001, 0, 0)">
    <g transform="matrix(0.046, 0, 0, 0.046, 0, 0)">
      <path d="M606.4, 143.8L557.5, 41C554.8, 35.4 549.4, 32 543.6, 32C543, 32 304, 64 304, 64C304, 64 65, 32 64.4, 32C58.6, 32 53.2, 35.5 50.5, 41L1.6, 143.8C-2.8, 153 1.9, 164 11.2, 166.8L60.7, 181.7L60.7, 393C60.7, 407.7 70.2, 420.5 83.7, 424L289.1, 478.1C302.1, 481.5 312.8, 479.6 318.6, 478.1L524.2, 424C537.7, 420.4 547.2, 407.6 547.2, 393L547.2, 181.7L596.7, 166.8C606.1, 164 610.7, 153 606.4, 143.8zM73, 65.3L253.9, 89.6L196.8, 189.4L36.9, 141.3L73, 65.3zM91.2, 190.9C208.3, 226.1 200.5, 224 203.6, 224C209, 224 214.1, 221.1 216.9, 216.1L288.8, 90.6L288.8, 445L91.2, 393L91.2, 190.9zM516.8, 393L319.2, 445L319.2, 90.5L391.1, 216C394, 221 399.1, 223.9 404.4, 223.9C407.5, 223.9 399.4, 226 516.8, 190.8L516.8, 393zM411.3, 189.3L354.2, 89.5L535, 65.3L571.1, 141.3L411.3, 189.3z" fill="#727272" fill-opacity="1" class="Black" />
    </g>
  </g>
</svg>