<?xml version='1.0' encoding='UTF-8'?>
<svg viewBox="-1.9999 -4.8014 31.9975 32" xmlns="http://www.w3.org/2000/svg">
  <g transform="matrix(1.001, 0, 0, 1.001, 0, 0)">
    <g transform="matrix(0.0437, 0, 0, 0.0437, 0, 0)">
      <path d="M638.3, 239.8L586.8, 137C584, 131.4 578.3, 128 572.2, 128C571.2, 128 576.5, 127.3 515.9, 135L542.1, 63.2C548.1, 46.6 539.6, 28.2 523, 22.2L467.3, 1.9C450.8, -4.1 432.4, 4.4 426.3, 21L383.5, 138.7C380.7, 61.7 317.7, 0 240, 0C164.7, 0 103.7, 58 97.3, 131.6C67.8, 127.8 69, 128 67.8, 128C61.7, 128 56, 131.5 53.2, 137L1.7, 239.8C-2.9, 249 2, 260 11.8, 262.8L64, 277.7L64, 425C64, 439.7 74, 452.5 88.2, 456L304.4, 510.1C318, 513.5 329.4, 511.6 335.4, 510.1L551.8, 456C566, 452.4 576, 439.6 576, 425L576, 277.7L628.1, 262.8C638, 260 642.8, 249 638.3, 239.8zM456.4, 32L512, 52.2L480.2, 139.5L414.2, 147.9L456.4, 32zM38.8, 237.3L76.8, 161.3L267.2, 185.6L207.1, 285.4L38.8, 237.3zM304, 477L96, 425L96, 286.9C219.3, 322.1 211, 320 214.3, 320C219.9, 320 225.3, 317.1 228.3, 312.1L304, 186.5L304, 477zM320, 160C224.3, 147.8 165.4, 140.3 128.9, 135.6C133.2, 77.8 181.1, 32 240, 32C301.8, 32 352, 82.2 352, 144C352, 148.1 351.4, 152.1 350.9, 156.1L320, 160zM544, 425L336, 477L336, 186.5L411.7, 312C414.7, 317 420.1, 319.9 425.7, 319.9C429, 319.9 420.5, 322 544, 286.8L544, 425zM432.9, 285.3L372.8, 185.5L563.2, 161.2L601.2, 237.2L432.9, 285.3z" fill="#727272" fill-opacity="1" class="Black" />
    </g>
  </g>
</svg>