<?xml version='1.0' encoding='UTF-8'?>
<svg viewBox="-2 0 32 32" xmlns="http://www.w3.org/2000/svg">
  <g transform="matrix(0.0625, 0, 0, 0.0625, 0, 0)">
    <path d="M447.9, 176C447.9, 165.4 445.3, 155 440.3, 145.7L391.2, 53.8C386.9, 40.8 374.7, 32 360.9, 32L87.1, 32C73.3, 32 61.1, 40.8 56.7, 53.9L7.6, 145.8C2.6, 155.1 0, 165.5 0, 176.1C0.1, 236.6 0, 448 0, 448C0, 465.7 14.3, 480 32, 480L416, 480C433.7, 480 448, 465.7 448, 448C448, 448 447.9, 236.6 447.9, 176zM360.9, 64L411.7, 160L286.1, 160L274.1, 64L360.9, 64zM192, 192L256, 192L256, 256L192, 256L192, 192zM241.9, 64L253.9, 160L194.1, 160L206.1, 64L241.9, 64zM87.1, 64L173.9, 64L161.9, 160L36.3, 160L87.1, 64zM32, 448C32, 448 32.1, 266.9 32.1, 192L160, 192L160, 256C160, 273.7 174.3, 288 192, 288L256, 288C273.7, 288 288, 273.7 288, 256L288, 192L415.9, 192C415.9, 266.9 416, 448 416, 448L32, 448z" fill="#727272" fill-opacity="1" class="Black" />
  </g>
</svg>