<?xml version='1.0' encoding='UTF-8'?>
<svg viewBox="-2 0 32 32" xmlns="http://www.w3.org/2000/svg">
  <g transform="matrix(0.0625, 0, 0, 0.0625, 0, 0)">
    <path d="M447.9, 176C447.9, 165.4 445.3, 155 440.3, 145.7L391.2, 53.8C386.9, 40.8 374.7, 32 360.9, 32L87.1, 32C73.3, 32 61.1, 40.8 56.7, 53.9L7.6, 145.8C2.6, 155.1 0, 165.5 0, 176.1C0.1, 236.6 0, 448 0, 448C0, 465.7 14.3, 480 32, 480L416, 480C433.7, 480 448, 465.7 448, 448C448, 448 447.9, 236.6 447.9, 176zM240, 64L360.9, 64L411.7, 160L240, 160L240, 64zM87.1, 64L208, 64L208, 160L36.3, 160L87.1, 64zM224, 448L32, 448C32, 448 32.1, 266.9 32.1, 192L416, 192C416, 266.9 416.1, 448 416.1, 448L224, 448zM314.2, 237.2C300.3, 225.6 266.5, 208.7 224, 251.7C181.4, 208.7 147.6, 225.6 133.8, 237.2C106.3, 260.2 104.9, 301.4 129.5, 326.3L214.2, 411.9C219.7, 417.4 228.5, 417.4 234, 411.9L318.7, 326.3C343.2, 301.4 341.7, 260.2 314.2, 237.2zM295.8, 303.7L224, 376.4L152.2, 303.8C142, 293.5 139.9, 273.8 154.3, 261.8C168, 250.3 185.5, 258.4 192.7, 265.5L224.1, 297.2L255.5, 265.5C262.6, 258.3 280.1, 250.3 293.9, 261.8C308.1, 273.8 306.1, 293.4 295.8, 303.7z" fill="#727272" fill-opacity="1" class="Black" />
  </g>
</svg>