<?xml version='1.0' encoding='UTF-8'?>
<svg viewBox="-2 -4.7992 32 32" xmlns="http://www.w3.org/2000/svg">
  <g transform="matrix(0.9988, 0, 0, 0.9988, 0, 0)">
    <g transform="matrix(0.0438, 0, 0, 0.0438, 0, 0)">
      <path d="M624, 224L480, 224L480, 16C480, 7.2 472.8, 0 464, 0L176, 0C167.2, 0 160, 7.2 160, 16L160, 224L16, 224C7.2, 224 0, 231.2 0, 240L0, 496C0, 504.8 7.2, 512 16, 512L624, 512C632.8, 512 640, 504.8 640, 496L640, 240C640, 231.2 632.8, 224 624, 224zM448, 256L512, 256L512, 318.3L480, 307.6L448, 318.3L448, 256zM352, 32L352, 94.3L320, 83.6L288, 94.3L288, 32L352, 32zM192, 32L256, 32L256, 138.7L320, 117.4L384, 138.7L384, 32L448, 32L448, 224L192, 224L192, 32zM192, 256L192, 318.3L160, 307.6L128, 318.3L128, 256L192, 256zM32, 256L96, 256L96, 362.7L160, 341.4L224, 362.7L224, 256L304, 256L304, 480L32, 480L32, 256zM608, 480L336, 480L336, 256L416, 256L416, 362.7L480, 341.4L544, 362.7L544, 256L608, 256L608, 480z" fill="#727272" fill-opacity="1" class="Black" />
    </g>
  </g>
</svg>