<?xml version='1.0' encoding='UTF-8'?>
<svg viewBox="-2 -4.7992 32 32" xmlns="http://www.w3.org/2000/svg">
  <g transform="matrix(0.9988, 0, 0, 0.9988, 0, 0)">
    <g transform="matrix(0.0438, 0, 0, 0.0438, 0, 0)">
      <path d="M624, 224L480, 224L480, 16C480, 7.2 472.8, 0 464, 0L176, 0C167.2, 0 160, 7.2 160, 16L160, 224L16, 224C7.2, 224 0, 231.2 0, 240L0, 496C0, 504.8 7.2, 512 16, 512L624, 512C632.8, 512 640, 504.8 640, 496L640, 240C640, 231.2 632.8, 224 624, 224zM512, 256L512, 320L448, 320L448, 256L512, 256zM288, 32L352, 32L352, 96L288, 96L288, 32zM192, 32L256, 32L256, 96C256, 113.7 270.3, 128 288, 128L352, 128C369.7, 128 384, 113.7 384, 96L384, 32L448, 32L448, 224L192, 224L192, 32zM128, 256L192, 256L192, 320L128, 320L128, 256zM304, 480L32, 480L32, 256L96, 256L96, 320C96, 337.7 110.3, 352 128, 352L192, 352C209.7, 352 224, 337.7 224, 320L224, 256L304, 256L304, 480zM608, 480L336, 480L336, 256L416, 256L416, 320C416, 337.7 430.3, 352 448, 352L512, 352C529.7, 352 544, 337.7 544, 320L544, 256L608, 256L608, 480z" fill="#727272" fill-opacity="1" class="Black" />
    </g>
  </g>
</svg>