<?xml version='1.0' encoding='UTF-8'?>
<svg viewBox="-3.7495 -2 32 32" xmlns="http://www.w3.org/2000/svg">
  <g transform="matrix(0.0547, 0, 0, 0.0547, 0, 0)">
    <path d="M252.4, 360.8L259.6, 375.1C261.6, 379.1 260, 383.9 256, 385.8L227.8, 400L256, 414.1C260, 416.1 261.6, 420.9 259.6, 424.8L252.4, 439.1C250.4, 443.1 245.6, 444.7 241.7, 442.7L192, 417.9L142.3, 442.7C138.3, 444.7 133.5, 443.1 131.6, 439.1L124.4, 424.8C122.4, 420.8 124, 416 128, 414.1L156.2, 400L128, 385.9C124, 383.9 122.4, 379.1 124.4, 375.2L131.6, 360.9C133.6, 356.9 138.4, 355.3 142.3, 357.3L192, 382.1L241.7, 357.3C245.6, 355.3 250.4, 356.9 252.4, 360.8zM386.4, 374.7L352, 406.9L352, 480C352, 497.7 337.7, 512 320, 512L64, 512C46.3, 512 32, 497.7 32, 480L32, 384L14.9, 287.5C5, 227.6 0, 166.6 0, 106C0, 47.6 47.2, 0 105.2, 0L280, 0C337.3, 0 384, 47.6 384, 106L384, 149.6C421.2, 162.2 448, 195.5 448, 235C448, 287.8 426.1, 337.4 386.4, 374.7zM364.5, 351.3C397.7, 320.2 416, 278.9 416, 235C416, 202.5 387.3, 176 352, 176L320.8, 176C294.5, 176 272.5, 196.8 272, 223.1C271.5, 247.7 289.6, 268.2 313.1, 271.5C317.1, 272.1 320, 275.6 320, 279.6L320, 295.6C320, 300.3 315.9, 304.1 311.2, 303.6C271.2, 299.2 240, 265.2 240, 224.1C240, 212.7 242.5, 201.9 246.8, 192.1L157.3, 192.1C126.7, 192.1 97.8, 181.2 75, 161.3C71.5, 158.2 71.3, 152.9 74.6, 149.6L85.9, 138.3C88.9, 135.3 93.6, 135.2 96.8, 137.9C113.7, 152.3 134.9, 160.2 157.3, 160.2L272, 160.2L272, 160.6C285.4, 150.5 301.9, 144.2 320, 144.2L352, 144.2L352, 106.2C352, 64.7 320.4, 32.2 280, 32.2L105.2, 32.2C64.8, 32 32, 65.2 32, 106C32, 255.6 63.7, 358.5 63.8, 384L88, 384C92.4, 384 96, 387.6 96, 392L96, 408C96, 412.4 92.4, 416 88, 416L63.8, 416L64, 480L320, 480L320, 416L296, 416C291.6, 416 288, 412.4 288, 408L288, 392C288, 387.6 291.6, 384 296, 384L329.7, 384L364.5, 351.3z" fill="#727272" fill-opacity="1" class="Black" />
  </g>
</svg>