<?xml version='1.0' encoding='UTF-8'?>
<svg viewBox="-2 0 32 32" xmlns="http://www.w3.org/2000/svg">
  <g transform="matrix(0.0625, 0, 0, 0.0625, 0, 0)">
    <path d="M120, 32L48, 32A48 48 0 0 0 0, 80L0, 432A48 48 0 0 0 48, 480L120, 480A8 8 0 0 0 128, 472L128, 456A8 8 0 0 0 120, 448L48, 448A16 16 0 0 1 32, 432L32, 80A16 16 0 0 1 48, 64L120, 64A8 8 0 0 0 128, 56L128, 40A8 8 0 0 0 120, 32zM400, 32L328, 32A8 8 0 0 0 320, 40L320, 56A8 8 0 0 0 328, 64L400, 64A16 16 0 0 1 416, 80L416, 432A16 16 0 0 1 400, 448L328, 448A8 8 0 0 0 320, 456L320, 472A8 8 0 0 0 328, 480L400, 480A48 48 0 0 0 448, 432L448, 80A48 48 0 0 0 400, 32z" fill="#727272" fill-opacity="1" class="Black" />
  </g>
</svg>