<?xml version='1.0' encoding='UTF-8'?>
<svg viewBox="-2 -4.7992 32 32" xmlns="http://www.w3.org/2000/svg">
  <g transform="matrix(0.9988, 0, 0, 0.9988, 0, 0)">
    <g transform="matrix(0.0438, 0, 0, 0.0438, 0, 0)">
      <path d="M32, 208L32, 48A16 16 0 0 1 48, 32L208, 32A16 16 0 0 1 224, 48L224, 64L256, 64L256, 48A48 48 0 0 0 208, 0L48, 0A48 48 0 0 0 0, 48L0, 208A48 48 0 0 0 48, 256L128, 256L128, 224L48, 224A16 16 0 0 1 32, 208zM480, 368L480, 144A48 48 0 0 0 432, 96L208, 96A48 48 0 0 0 160, 144L160, 368A48 48 0 0 0 208, 416L432, 416A48 48 0 0 0 480, 368zM192, 368L192, 144A16 16 0 0 1 208, 128L432, 128A16 16 0 0 1 448, 144L448, 368A16 16 0 0 1 432, 384L208, 384A16 16 0 0 1 192, 368zM592, 256L512, 256L512, 288L592, 288A16 16 0 0 1 608, 304L608, 464A16 16 0 0 1 592, 480L432, 480A16 16 0 0 1 416, 464L416, 448L384, 448L384, 464A48 48 0 0 0 432, 512L592, 512A48 48 0 0 0 640, 464L640, 304A48 48 0 0 0 592, 256zM464, 448L560, 448A16 16 0 0 0 576, 432L576, 336A16 16 0 0 0 560, 320L512, 320L512, 352L544, 352L544, 416L495.59, 416A79.76 79.76 0 0 1 454.34, 444.43A15.66 15.66 0 0 0 464, 448zM176, 64L80, 64A16 16 0 0 0 64, 80L64, 176A16 16 0 0 0 80, 192L128, 192L128, 160L96, 160L96, 96L144.41, 96A79.76 79.76 0 0 1 185.66, 67.57A15.66 15.66 0 0 0 176, 64z" fill="#727272" fill-opacity="1" class="Black" />
    </g>
  </g>
</svg>