<?xml version='1.0' encoding='UTF-8'?>
<svg viewBox="-1.9998 -3.5563 31.9975 32" xmlns="http://www.w3.org/2000/svg">
  <g transform="matrix(0.0486, 0, 0, 0.0486, 0, 0)">
    <path d="M40.55, 0C34.35, 0 28.58, 3.53 26.01, 9.17C9.45, 45.43 0, 85.59 0, 128C0, 170.4 9.45, 210.57 26.01, 246.83C28.59, 252.47 34.36, 256 40.55, 256C52.25, 256 59.75, 243.92 54.89, 233.28C40.26, 201.15 32, 165.55 32, 128C32, 90.45 40.26, 54.85 54.9, 22.72C59.75, 12.08 52.26, 0 40.55, 0zM326.44, 178.84C341.87, 167.14 352, 148.81 352, 128C352, 92.7 323.28, 64 288, 64C252.72, 64 224, 92.7 224, 128C224, 148.92 234.23, 167.35 249.79, 179.03L112.66, 494.43C110.9, 498.48 112.76, 503.2 116.81, 504.96L131.51, 511.34C135.56, 513.1 140.27, 511.24 142.03, 507.19L209.51, 352L366.81, 352L434.28, 507.19C436.04, 511.24 440.75, 513.1 444.8, 511.34L459.5, 504.96A8.005 8.005 0 0 0 463.65, 494.43L326.44, 178.84zM288, 96C305.67, 96 320, 110.33 320, 128C320, 145.67 305.67, 160 288, 160C270.33, 160 256, 145.67 256, 128C256, 110.33 270.33, 96 288, 96zM223.42, 320L279.45, 191.13C282.27, 191.51 285.07, 192 288, 192C291.03, 192 293.94, 191.51 296.86, 191.1L352.9, 320L223.42, 320zM118.99, 192C129.69, 192 137.09, 181.76 134.14, 171.47C130.17, 157.65 128, 143.09 128, 128C128, 112.91 130.17, 98.35 134.14, 84.53C137.09, 74.24 129.69, 64 118.99, 64L118.84, 64C111.91, 64 105.56, 68.42 103.63, 75.07C98.73, 91.89 96, 109.62 96, 128C96, 146.38 98.73, 164.11 103.63, 180.93C105.57, 187.59 111.91, 192 118.84, 192L118.99, 192zM457.16, 64L457.01, 64C446.31, 64 438.91, 74.24 441.86, 84.53C445.83, 98.35 448, 112.91 448, 128C448, 143.09 445.83, 157.65 441.86, 171.47C438.91, 181.76 446.31, 192 457.01, 192L457.16, 192C464.1, 192 470.44, 187.58 472.38, 180.93C477.27, 164.11 480, 146.39 480, 128C480, 109.61 477.27, 91.89 472.38, 75.07C470.44, 68.42 464.09, 64 457.16, 64zM549.99, 9.17C547.41, 3.53 541.65, 0 535.45, 0C523.75, 0 516.26, 12.08 521.11, 22.72C535.74, 54.85 544, 90.45 544, 128C544, 165.55 535.74, 201.15 521.1, 233.28C516.25, 243.93 523.74, 256 535.44, 256C541.64, 256 547.41, 252.47 549.98, 246.83C566.56, 210.57 576, 170.4 576, 128C576, 85.59 566.56, 45.43 549.99, 9.17z" fill="#727272" fill-opacity="1" class="Black" />
  </g>
</svg>