<?xml version='1.0' encoding='UTF-8'?>
<svg viewBox="-2 -4.7958 32 32" xmlns="http://www.w3.org/2000/svg">
  <g transform="matrix(0.9989, 0, 0, 0.9989, 0, 0)">
    <g transform="matrix(0.0438, 0, 0, 0.0438, 0, 0)">
      <path d="M638.26, 15.53L628.3, 3.02C625.55, -0.43 620.52, -1.01 617.06, 1.74L372.91, 194.67L327.47, 137.59C322.49, 131.34 312.91, 131.61 308.29, 138.12L259.67, 206.71C231.14, 207.03 152.47, 211.68 101.66, 252.08C38.78, 302.06 0, 511.39 0, 511.39C15.38, 512.06 215.11, 518.21 275.65, 470.09C326.58, 429.61 348.97, 353.87 355.64, 326.31L433.11, 295.04C440.55, 292.04 443, 282.72 438.01, 276.44L392.84, 219.69L636.98, 26.76A7.985 7.985 0 0 0 638.26, 15.53zM255.73, 445.62C229.03, 466.84 146.29, 480.02 39.8, 480.02L39.2, 480.02C43.26, 462.27 48.16, 443.2 53.6, 424.1L122.39, 369.42C127.35, 365.48 123.61, 357.54 117.42, 358.85L71.44, 368.56C86.45, 326.92 103.78, 291.25 121.59, 277.1C155.19, 250.39 211.28, 239.86 255.49, 238.72L323.26, 323.85C316.07, 351.39 296.09, 413.54 255.73, 445.62zM342.83, 296.75L285.89, 225.22L314.29, 184.75C316.59, 181.47 321.4, 181.32 323.9, 184.46L391.51, 269.39C394.03, 272.55 392.76, 277.24 389, 278.72L342.83, 296.75z" fill="#727272" fill-opacity="1" class="Black" />
    </g>
  </g>
</svg>