<?xml version='1.0' encoding='UTF-8'?>
<svg viewBox="-2 -1.9988 32 32" xmlns="http://www.w3.org/2000/svg">
  <g transform="matrix(0.0547, 0, 0, 0.0547, 0, 0)">
    <path d="M464, 32L48, 32C21.5, 32 0, 53.5 0, 80L0, 432C0, 458.5 21.5, 480 48, 480L464, 480C490.5, 480 512, 458.5 512, 432L512, 80C512, 53.5 490.5, 32 464, 32zM32, 80C32, 71.2 39.2, 64 48, 64L96, 64L96, 128L32, 128L32, 80zM480, 432C480, 440.8 472.8, 448 464, 448L48, 448C39.2, 448 32, 440.8 32, 432L32, 160L480, 160L480, 432zM480, 128L128, 128L128, 64L464, 64C472.8, 64 480, 71.2 480, 80L480, 128z" fill="#727272" fill-opacity="1" class="Black" />
  </g>
</svg>