<?xml version='1.0' encoding='UTF-8'?>
<svg viewBox="-1.1754 -2.8231 31.9975 32" xmlns="http://www.w3.org/2000/svg">
  <g transform="matrix(0.9994, 0, 0, 0.9994, 0, 0)">
    <g transform="matrix(0.0515, 0, 0, 0.0515, 0, 0)">
      <path d="M544, 272L480, 272L480, 150.627L515.313, 115.314C521.562, 109.066 521.562, 98.935 515.313, 92.687C509.065, 86.439 498.934, 86.439 492.686, 92.687L457.373, 128L417, 128C417, 57.26 359.751, 0 289, 0C218.26, 0 161, 57.249 161, 128L118.627, 128L75.314, 84.687C69.065, 78.439 58.935, 78.439 52.686, 84.687C46.438, 90.935 46.438, 101.066 52.686, 107.314L96, 150.627L96, 272L32, 272C23.164, 272 16, 279.163 16, 288C16, 296.837 23.164, 304 32, 304L96, 304L96, 328C96, 364.634 107.256, 398.686 126.484, 426.889L68.687, 484.686C62.438, 490.934 62.438, 501.065 68.687, 507.313C74.936, 513.562 85.066, 513.561 91.314, 507.313L146.93, 451.697C178.851, 483.971 223.128, 504 272, 504L304, 504C352.872, 504 397.149, 483.971 429.071, 451.698L484.687, 507.314C490.936, 513.563 501.066, 513.562 507.314, 507.314C513.563, 501.066 513.563, 490.935 507.314, 484.687L449.517, 426.89C468.744, 398.686 480, 364.634 480, 328L480, 304L544, 304C552.837, 304 560, 296.837 560, 288C560, 279.163 552.837, 272 544, 272zM289, 32C342.019, 32 385, 74.981 385, 128L193, 128C193, 74.981 235.981, 32 289, 32zM304, 472L304, 236C304, 229.373 298.627, 224 292, 224L284, 224C277.373, 224 272, 229.373 272, 236L272, 472C192.598, 472 128, 407.401 128, 328L128, 160L448, 160L448, 328C448, 407.401 383.401, 472 304, 472z" fill="#727272" fill-opacity="1" class="Black" />
    </g>
  </g>
</svg>