<?xml version='1.0' encoding='UTF-8'?>
<svg viewBox="-3.7494 -1.9999 32 32" xmlns="http://www.w3.org/2000/svg">
  <g transform="matrix(0.0547, 0, 0, 0.0547, 0, 0)">
    <path d="M192, 107L192, 147C192, 153.627 186.627, 159 180, 159L140, 159C133.373, 159 128, 153.627 128, 147L128, 107C128, 100.373 133.373, 95 140, 95L180, 95C186.627, 95 192, 100.373 192, 107zM308, 95L268, 95C261.373, 95 256, 100.373 256, 107L256, 147C256, 153.627 261.373, 159 268, 159L308, 159C314.627, 159 320, 153.627 320, 147L320, 107C320, 100.373 314.627, 95 308, 95zM180, 191L140, 191C133.373, 191 128, 196.373 128, 203L128, 243C128, 249.627 133.373, 255 140, 255L180, 255C186.627, 255 192, 249.627 192, 243L192, 203C192, 196.373 186.627, 191 180, 191zM308, 191L268, 191C261.373, 191 256, 196.373 256, 203L256, 243C256, 249.627 261.373, 255 268, 255L308, 255C314.627, 255 320, 249.627 320, 243L320, 203C320, 196.373 314.627, 191 308, 191zM180, 287L140, 287C133.373, 287 128, 292.373 128, 299L128, 339C128, 345.627 133.373, 351 140, 351L180, 351C186.627, 351 192, 345.627 192, 339L192, 299C192, 292.373 186.627, 287 180, 287zM308, 287L268, 287C261.373, 287 256, 292.373 256, 299L256, 339C256, 345.627 261.373, 351 268, 351L308, 351C314.627, 351 320, 345.627 320, 339L320, 299C320, 292.373 314.627, 287 308, 287zM448, 492L448, 512L0, 512L0, 492C0, 485.373 5.373, 480 12, 480L32, 480L32, 24C32, 10.745 42.745, 0 56, 0L392, 0C405.255, 0 416, 10.745 416, 24L416, 480L436, 480C442.627, 480 448, 485.373 448, 492zM384, 480L384, 32L64, 32L64, 480L192, 480L192, 395C192, 388.373 197.373, 383 204, 383L244, 383C250.627, 383 256, 388.373 256, 395L256, 480L384, 480z" fill="#727272" fill-opacity="1" class="Black" />
  </g>
</svg>