<?xml version='1.0' encoding='UTF-8'?>
<svg viewBox="-1.9999 -1.549 31.9975 32" xmlns="http://www.w3.org/2000/svg">
  <g transform="matrix(0.999, 0, 0, 0.999, 0, 0)">
    <g transform="matrix(0.0565, 0, 0, 0.0565, 0, 0)">
      <path d="M305.05, 98.74L329.01, 152.36L236.68, 244.69C230.43, 250.94 230.43, 261.07 236.68, 267.31C239.8, 270.43 243.9, 272 247.99, 272C252.08, 272 256.18, 270.44 259.3, 267.31L351.63, 174.98L405.25, 198.94A20.547 20.547 0 0 0 426.29, 193.98L489.96, 130.31C500.76, 119.51 496.42, 101.11 481.92, 96.27L426.26, 77.72L407.71, 22.07C404.73, 13.08 396.54, 8 388.16, 8C383.02, 8 377.8, 9.92 373.69, 14.03L310.02, 77.7A20.582 20.582 0 0 0 305.05, 98.74zM383.23, 49.75L395.93, 87.84L400.99, 103.02L416.17, 108.08L454.26, 120.78L409.33, 165.71L360.24, 143.78L338.31, 94.69L383.23, 49.75zM484.43, 181.1L458.25, 207.28C461.88, 222.97 464, 239.23 464, 256C464, 375.1 367.1, 472 248, 472C128.9, 472 32, 375.1 32, 256C32, 136.9 128.9, 40 248, 40C264.78, 40 281.04, 42.11 296.72, 45.75L322.9, 19.57A247.848 247.848 0 0 0 248, 8C111.03, 8 0, 119.03 0, 256C0, 392.97 111.03, 504 248, 504C384.97, 504 496, 392.97 496, 256C496, 229.89 491.91, 204.74 484.43, 181.1zM274.7, 108.85A53.056 53.056 0 0 1 272.02, 94.41C264.12, 93.25 256.23, 92 248, 92C157.35, 92 84, 165.36 84, 256C84, 346.65 157.36, 420 248, 420C338.65, 420 412, 346.64 412, 256C412, 247.65 410.75, 239.65 409.55, 231.64C404.66, 231.43 399.79, 230.85 395.14, 229.3C393.02, 228.59 396.16, 229.92 374.45, 220.23C377.7, 231.68 380, 243.52 380, 256C380, 328.79 320.79, 388 248, 388C175.21, 388 116, 328.79 116, 256C116, 183.21 175.21, 124 248, 124C260.48, 124 272.32, 126.3 283.77, 129.55C274.08, 107.85 275.41, 110.99 274.7, 108.85zM248, 176C203.89, 176 168, 211.89 168, 256C168, 300.11 203.89, 336 248, 336C292.11, 336 328, 300.11 328, 256C328, 252.23 327.39, 248.62 326.89, 244.99L281.94, 289.94L281.93, 289.93C273.23, 298.62 261.23, 304 248, 304C221.53, 304 200, 282.47 200, 256C200, 242.77 205.38, 230.77 214.07, 222.07L214.06, 222.06L259.01, 177.11C255.38, 176.61 251.77, 176 248, 176z" fill="#727272" fill-opacity="1" class="Black" />
    </g>
  </g>
</svg>