<?xml version='1.0' encoding='UTF-8'?>
<svg viewBox="-1.9998 -3.5563 31.9975 32" xmlns="http://www.w3.org/2000/svg">
  <g transform="matrix(0.0486, 0, 0, 0.0486, 0, 0)">
    <path d="M544, 184.88L544, 32C544, 23.26 537.02, 0 512.01, 0L512, 0C504.88, 0 497.81, 2.38 492.02, 7.02L406.99, 75.05C364.28, 109.19 310.66, 128 256, 128L64, 128C28.65, 128 0, 156.65 0, 192L0, 288C0, 323.35 28.65, 352 64, 352L63.52, 384C63.52, 423.77 72.78, 461.35 89.08, 494.94C94.27, 505.63 105.6, 512 117.48, 512L223.76, 512C249.81, 512 265.45, 482.16 249.66, 461.44C233.26, 439.92 223.51, 413.08 223.51, 384C223.51, 372.89 225.13, 362.21 227.92, 352L256, 352C310.66, 352 364.28, 370.81 406.98, 404.95L492.01, 472.98A32.023 32.023 0 0 0 511.99, 480C536.91, 480 543.99, 457.22 543.99, 448L543.99, 295.12C563.04, 284.03 575.99, 263.63 575.99, 240C576, 216.37 563.05, 195.97 544, 184.88zM223.76, 480L117.87, 479.97C103.04, 449.41 95.52, 417.78 95.51, 384.48L95.99, 352.48L96, 352L195.33, 352C193.02, 362.7 191.52, 373.43 191.52, 384C191.52, 419.29 202.82, 452.78 223.76, 480zM64, 320C46.36, 320 32, 305.64 32, 288L32, 192C32, 174.36 46.36, 160 64, 160L256, 160L256, 320L64, 320zM512.05, 446.93C512.01, 447.18 511.92, 447.51 511.8, 447.83L426.97, 379.96C386.99, 348 338.54, 328.14 288, 322.13L288, 157.87C338.54, 151.86 386.99, 132 426.98, 100.03L511.85, 32.13C511.88, 32.16 511.91, 32.18 511.93, 32.18C511.97, 32.18 511.99, 32.13 512, 32.01L512.05, 446.93z" fill="#727272" fill-opacity="1" class="Black" />
  </g>
</svg>