<?xml version='1.0' encoding='UTF-8'?>
<svg viewBox="-1.9999 -1.549 31.9975 32" xmlns="http://www.w3.org/2000/svg">
  <g transform="matrix(0.999, 0, 0, 0.999, 0, 0)">
    <g transform="matrix(0.0565, 0, 0, 0.0565, 0, 0)">
      <path d="M248, 92C157.35, 92 84, 165.36 84, 256C84, 346.65 157.36, 420 248, 420C338.65, 420 412, 346.64 412, 256C412, 165.35 338.64, 92 248, 92zM248, 388C175.21, 388 116, 328.79 116, 256C116, 183.21 175.21, 124 248, 124C320.79, 124 380, 183.21 380, 256C380, 328.79 320.79, 388 248, 388zM248, 176C203.89, 176 168, 211.89 168, 256C168, 300.11 203.89, 336 248, 336C292.11, 336 328, 300.11 328, 256C328, 211.89 292.11, 176 248, 176zM248, 304C221.53, 304 200, 282.47 200, 256C200, 229.53 221.53, 208 248, 208C274.47, 208 296, 229.53 296, 256C296, 282.47 274.47, 304 248, 304zM248, 8C111.03, 8 0, 119.03 0, 256C0, 392.97 111.03, 504 248, 504C384.97, 504 496, 392.97 496, 256C496, 119.03 384.97, 8 248, 8zM248, 472C128.9, 472 32, 375.1 32, 256C32, 136.9 128.9, 40 248, 40C367.1, 40 464, 136.9 464, 256C464, 375.1 367.1, 472 248, 472z" fill="#727272" fill-opacity="1" class="Black" />
    </g>
  </g>
</svg>