<?xml version='1.0' encoding='UTF-8'?>
<svg viewBox="-1.9988 -2 32 32" xmlns="http://www.w3.org/2000/svg">
  <g transform="matrix(0.0547, 0, 0, 0.0547, 0, 0)">
    <path d="M512, 123A74.13 74.13 0 0 0 459.74, 52.26A74.05 74.05 0 0 0 358.12, 6.73A80.49 80.49 0 0 0 252.12, 48.3L34, 266.45A116 116 0 0 0 34, 430.5L81.5, 478A116 116 0 0 0 245.55, 478L463.7, 259.87A80.49 80.49 0 0 0 505.27, 153.87A73.46 73.46 0 0 0 512, 123zM267.55, 78.13A174.58 174.58 0 0 1 288, 160C288, 257.05 209, 336 112, 336A175.92 175.92 0 0 1 37.49, 319.1A83.35 83.35 0 0 1 56.6, 289.1zM222.92, 455.39A84 84 0 0 1 104.13, 455.39L56.6, 407.87A83.4 83.4 0 0 1 32.35, 352.1A208.34 208.34 0 0 0 112, 368C202.14, 368 278.86, 310.25 307.66, 229.89A178.68 178.68 0 0 1 434, 244.35zM480, 186C480, 201.34 472.66, 214.66 461.6, 223.58C418.5, 196.86 366.27, 187.08 316.76, 195.39A207.56 207.56 0 0 0 320, 160C320, 120.86 308.71, 83.48 288.23, 50.6A48.16 48.16 0 0 1 326, 32A48.65 48.65 0 0 1 358.84, 44.86A41.94 41.94 0 0 1 431, 74A42.4 42.4 0 0 1 430.22, 81.78A41.74 41.74 0 0 1 480, 123A41.82 41.82 0 0 1 467.14, 153.16A48.65 48.65 0 0 1 480, 186z" fill="#727272" fill-opacity="1" class="Black" />
  </g>
</svg>