<?xml version='1.0' encoding='UTF-8'?>
<svg viewBox="-1.9999 -1.9999 32 32" xmlns="http://www.w3.org/2000/svg">
  <g transform="matrix(0.0547, 0, 0, 0.0547, 0, 0)">
    <path d="M128, 384C145.67, 384 160, 369.67 160, 352C160, 334.33 145.67, 320 128, 320C110.33, 320 96, 334.33 96, 352C96, 369.67 110.33, 384 128, 384zM384, 384C401.67, 384 416, 369.67 416, 352C416, 334.33 401.67, 320 384, 320C366.33, 320 352, 334.33 352, 352C352, 369.67 366.33, 384 384, 384zM488, 128L480, 128L480, 80C480, 35.2 380.8, 0 256, 0C131.2, 0 32, 35.2 32, 80L32, 128L24, 128C10.75, 128 0, 138.74 0, 152L0, 232C0, 245.25 10.75, 256 24, 256L32, 256L32, 416C32, 433.67 46.33, 448 64, 448L64, 480C64, 497.67 78.33, 512 96, 512L144, 512C161.67, 512 176, 497.67 176, 480L176, 448L336, 448L336, 480C336, 497.67 350.33, 512 368, 512L416, 512C433.67, 512 448, 497.67 448, 480L448, 448C465.67, 448 480, 433.67 480, 416L480, 256L488, 256C501.25, 256 512, 245.25 512, 232L512, 152C512, 138.74 501.25, 128 488, 128zM144, 480L96, 480L96, 448L144, 448L144, 480zM416, 480L368, 480L368, 448L416, 448L416, 480zM448, 416L64, 416L63.99, 288L448.01, 288L448, 416zM448.01, 256L63.99, 256L63.98, 128L448.03, 128L448.01, 256zM448.03, 96L63.97, 96L63.97, 80.31C67.31, 67 131.41, 32 256, 32C380.59, 32 444.69, 67 448.03, 80.31L448.03, 96z" fill="#727272" fill-opacity="1" class="Black" />
  </g>
</svg>