<?xml version='1.0' encoding='UTF-8'?>
<svg viewBox="-2 -2 32 32" xmlns="http://www.w3.org/2000/svg">
  <g transform="matrix(0.0547, 0, 0, 0.0547, 0, 0)">
    <path d="M464, 0L48, 0C21.49, 0 0, 21.49 0, 48L0, 464C0, 490.51 21.49, 512 48, 512L464, 512C490.51, 512 512, 490.51 512, 464L512, 48C512, 21.49 490.51, 0 464, 0zM480, 464C480, 472.82 472.82, 480 464, 480L48, 480C39.18, 480 32, 472.82 32, 464L32, 272L480, 272L480, 464zM480, 240L32, 240L32, 48C32, 39.18 39.18, 32 48, 32L464, 32C472.82, 32 480, 39.18 480, 48L480, 240zM336, 96L176, 96C167.16, 96 160, 103.16 160, 112L160, 152C160, 156.42 163.58, 160 168, 160L184, 160C188.42, 160 192, 156.42 192, 152L192, 128L320, 128L320, 152C320, 156.42 323.58, 160 328, 160L344, 160C348.42, 160 352, 156.42 352, 152L352, 112C352, 103.16 344.84, 96 336, 96zM168, 416L184, 416C188.42, 416 192, 412.42 192, 408L192, 384L320, 384L320, 408C320, 412.42 323.58, 416 328, 416L344, 416C348.42, 416 352, 412.42 352, 408L352, 368C352, 359.16 344.84, 352 336, 352L176, 352C167.16, 352 160, 359.16 160, 368L160, 408C160, 412.42 163.58, 416 168, 416z" fill="#727272" fill-opacity="1" class="Black" />
  </g>
</svg>