<?xml version='1.0' encoding='UTF-8'?>
<svg viewBox="-2 -1.995 32 31.9975" xmlns="http://www.w3.org/2000/svg">
  <g transform="matrix(0.0547, 0, 0, 0.0547, 0, 0)">
    <path d="M446.54, 208.78C419, 213.32 400, 239.24 400, 267.15L400, 296A8 8 0 0 1 392, 304L352, 304L352, 101.43C352, 49.43 313.07, 2.85 261.16, 0.14A96 96 0 0 0 160, 96L160, 192L120, 192A8 8 0 0 1 112, 184L112, 155.15C112, 127.24 93, 101.32 65.46, 96.78A56.08 56.08 0 0 0 0, 152L0, 184A120 120 0 0 0 120, 304L160, 304L160, 496A16 16 0 0 0 176, 512L336, 512A16 16 0 0 0 352, 496L352, 416L392, 416A120 120 0 0 0 512, 296L512, 264A56.08 56.08 0 0 0 446.54, 208.78zM160, 272L120, 272A88.09 88.09 0 0 1 32, 184L32, 152A24 24 0 0 1 80, 152L80, 184A40 40 0 0 0 120, 224L160, 224zM320, 480L192, 480L192, 96A64 64 0 0 1 320, 96zM480, 296A88.09 88.09 0 0 1 392, 384L352, 384L352, 336L392, 336A40 40 0 0 0 432, 296L432, 264A24 24 0 0 1 480, 264zM240, 128A16 16 0 1 0 256, 144A16 16 0 0 0 240, 128zM272, 352A16 16 0 1 0 288, 368A16 16 0 0 0 272, 352z" fill="#727272" fill-opacity="1" class="Black" />
  </g>
</svg>