<?xml version='1.0' encoding='UTF-8'?>
<svg viewBox="-2.0011 -1.0644 32 31.995" xmlns="http://www.w3.org/2000/svg">
  <g transform="matrix(0.0583, 0, 0, 0.0583, 0, 0)">
    <path d="M72, 160L184, 160C188.42, 160 192, 156.42 192, 152L192, 136C192, 131.58 188.42, 128 184, 128L72, 128C67.58, 128 64, 131.58 64, 136L64, 152C64, 156.42 67.58, 160 72, 160zM77.09, 407.6L88.4, 418.91C91.52, 422.03 96.59, 422.03 99.71, 418.91L128, 390.63L156.29, 418.92C159.41, 422.04 164.48, 422.04 167.6, 418.92L178.91, 407.61C182.03, 404.49 182.03, 399.42 178.91, 396.3L150.63, 368L178.92, 339.71C182.04, 336.59 182.04, 331.52 178.92, 328.4L167.61, 317.09C164.49, 313.97 159.42, 313.97 156.3, 317.09L128, 345.37L99.71, 317.08C96.59, 313.96 91.52, 313.96 88.4, 317.08L77.09, 328.4C73.97, 331.52 73.97, 336.59 77.09, 339.71L105.37, 368L77.08, 396.28A8.006 8.006 0 0 0 77.09, 407.6zM448, 16L32, 16C14.33, 16 0, 30.33 0, 48L0, 464C0, 481.67 14.33, 496 32, 496L448, 496C465.67, 496 480, 481.67 480, 464L480, 48C480, 30.33 465.67, 16 448, 16zM224, 464L32, 464L32, 272L224, 272L224, 464zM224, 240L32, 240L32, 48L224, 48L224, 240zM448, 464L256, 464L256, 272L448, 272L448, 464zM448, 240L256, 240L256, 48L448, 48L448, 240zM296, 160L336, 160L336, 200C336, 204.42 339.58, 208 344, 208L360, 208C364.42, 208 368, 204.42 368, 200L368, 160L408, 160C412.42, 160 416, 156.42 416, 152L416, 136C416, 131.58 412.42, 128 408, 128L368, 128L368, 88C368, 83.58 364.42, 80 360, 80L344, 80C339.58, 80 336, 83.58 336, 88L336, 128L296, 128C291.58, 128 288, 131.58 288, 136L288, 152C288, 156.42 291.58, 160 296, 160zM296, 416L408, 416C412.42, 416 416, 412.42 416, 408L416, 392C416, 387.58 412.42, 384 408, 384L296, 384C291.58, 384 288, 387.58 288, 392L288, 408C288, 412.42 291.58, 416 296, 416zM296, 352L408, 352C412.42, 352 416, 348.42 416, 344L416, 328C416, 323.58 412.42, 320 408, 320L296, 320C291.58, 320 288, 323.58 288, 328L288, 344C288, 348.42 291.58, 352 296, 352z" fill="#727272" fill-opacity="1" class="Black" />
  </g>
</svg>