<?xml version='1.0' encoding='UTF-8'?>
<svg viewBox="-3.7495 -2 32 32" xmlns="http://www.w3.org/2000/svg">
  <g transform="matrix(0.0547, 0, 0, 0.0547, 0, 0)">
    <path d="M149.8, 369L141.9, 415.3C140.1, 425.9 144.4, 436.4 153.1, 442.7C158, 446.2 163.8, 448.1 169.5, 448.1C173.9, 448.1 178.4, 447 182.5, 444.8L224, 423L265.5, 444.8C275, 449.8 286.3, 449 295, 442.7C303.7, 436.4 308, 425.9 306.2, 415.3L298.3, 369L331.8, 336.3C339.5, 328.8 342.2, 317.8 338.9, 307.6C335.6, 297.4 326.9, 290.1 316.3, 288.6L269.9, 281.8L249.2, 239.7C244.3, 230 234.7, 224 224, 224C213.3, 224 203.7, 230 199, 239.6L178.3, 281.7L131.9, 288.5C121.3, 290 112.6, 297.3 109.3, 307.5C106, 317.7 108.7, 328.7 116.4, 336.2L149.8, 369zM199.4, 310.9L224, 261L248.6, 310.9L303.6, 318.9L263.8, 357.8L273.2, 412.6L224, 386.8L174.8, 412.7L184.2, 357.9L144.4, 319L199.4, 310.9zM400, 64L352, 64L352, 8C352, 3.6 348.4, 0 344, 0L328, 0C323.6, 0 320, 3.6 320, 8L320, 64L128, 64L128, 8C128, 3.6 124.4, 0 120, 0L104, 0C99.6, 0 96, 3.6 96, 8L96, 64L48, 64C21.5, 64 0, 85.5 0, 112L0, 464C0, 490.5 21.5, 512 48, 512L400, 512C426.5, 512 448, 490.5 448, 464L448, 112C448, 85.5 426.5, 64 400, 64zM416, 464C416, 472.8 408.8, 480 400, 480L48, 480C39.2, 480 32, 472.8 32, 464L32, 192L416, 192L416, 464zM416, 160L32, 160L32, 112C32, 103.2 39.2, 96 48, 96L400, 96C408.8, 96 416, 103.2 416, 112L416, 160z" fill="#727272" fill-opacity="1" class="Black" />
  </g>
</svg>