<?xml version='1.0' encoding='UTF-8'?>
<svg viewBox="-3.7495 -2 32 32" xmlns="http://www.w3.org/2000/svg">
  <g transform="matrix(0.0547, 0, 0, 0.0547, 0, 0)">
    <path d="M400, 64L352, 64L352, 12C352, 5.373 346.627, 0 340, 0L332, 0C325.373, 0 320, 5.373 320, 12L320, 64L128, 64L128, 12C128, 5.373 122.627, 0 116, 0L108, 0C101.373, 0 96, 5.373 96, 12L96, 64L48, 64C21.49, 64 0, 85.49 0, 112L0, 464C0, 490.51 21.49, 512 48, 512L400, 512C426.51, 512 448, 490.51 448, 464L448, 112C448, 85.49 426.51, 64 400, 64zM48, 96L400, 96C408.822, 96 416, 103.178 416, 112L416, 160L32, 160L32, 112C32, 103.178 39.178, 96 48, 96zM400, 480L48, 480C39.178, 480 32, 472.822 32, 464L32, 192L416, 192L416, 464C416, 472.822 408.822, 480 400, 480zM333.533, 285.063L198.742, 418.773C194.042, 423.436 186.454, 423.415 181.779, 418.727L114.421, 351.175C109.738, 346.478 109.749, 338.874 114.445, 334.19L122.95, 325.71C127.647, 321.027 135.251, 321.038 139.934, 325.734L190.376, 376.321L308.158, 259.484C312.867, 254.813 320.471, 254.843 325.143, 259.552L333.601, 268.079C338.273, 272.788 338.242, 280.392 333.533, 285.063z" fill="#727272" fill-opacity="1" class="Black" />
  </g>
</svg>