<?xml version='1.0' encoding='UTF-8'?>
<svg viewBox="-3.7495 -2 32 32" xmlns="http://www.w3.org/2000/svg">
  <g transform="matrix(0.0547, 0, 0, 0.0547, 0, 0)">
    <path d="M400, 64L352, 64L352, 8C352, 3.6 348.4, 0 344, 0L328, 0C323.6, 0 320, 3.6 320, 8L320, 64L128, 64L128, 8C128, 3.6 124.4, 0 120, 0L104, 0C99.6, 0 96, 3.6 96, 8L96, 64L48, 64C21.5, 64 0, 85.5 0, 112L0, 464C0, 490.5 21.5, 512 48, 512L400, 512C426.5, 512 448, 490.5 448, 464L448, 112C448, 85.5 426.5, 64 400, 64zM416, 464C416, 472.8 408.8, 480 400, 480L48, 480C39.2, 480 32, 472.8 32, 464L32, 192L416, 192L416, 464zM416, 160L32, 160L32, 112C32, 103.2 39.2, 96 48, 96L400, 96C408.8, 96 416, 103.2 416, 112L416, 160zM112, 384L208, 384C216.8, 384 224, 376.8 224, 368L224, 272C224, 263.2 216.8, 256 208, 256L112, 256C103.2, 256 96, 263.2 96, 272L96, 368C96, 376.8 103.2, 384 112, 384zM128, 288L192, 288L192, 352L128, 352L128, 288z" fill="#727272" fill-opacity="1" class="Black" />
  </g>
</svg>