<?xml version='1.0' encoding='UTF-8'?>
<svg viewBox="-3.7495 -2 32 32" xmlns="http://www.w3.org/2000/svg">
  <g transform="matrix(0.0547, 0, 0, 0.0547, 0, 0)">
    <path d="M400, 64L352, 64L352, 12C352, 5.4 346.6, 0 340, 0L332, 0C325.4, 0 320, 5.4 320, 12L320, 64L128, 64L128, 12C128, 5.4 122.6, 0 116, 0L108, 0C101.4, 0 96, 5.4 96, 12L96, 64L48, 64C21.5, 64 0, 85.5 0, 112L0, 464C0, 490.5 21.5, 512 48, 512L400, 512C426.5, 512 448, 490.5 448, 464L448, 112C448, 85.5 426.5, 64 400, 64zM48, 96L400, 96C408.8, 96 416, 103.2 416, 112L416, 160L32, 160L32, 112C32, 103.2 39.2, 96 48, 96zM400, 480L48, 480C39.2, 480 32, 472.8 32, 464L32, 192L416, 192L416, 464C416, 472.8 408.8, 480 400, 480zM255.7, 269.7L290.3, 304.3C292.4, 306.4 292.4, 309.7 290.3, 311.7L159.1, 442.9L124, 447.9C117.1, 448.9 111.1, 443 112.1, 436L117.1, 400.9L248.3, 269.7C250.3, 267.7 253.7, 267.7 255.7, 269.7zM330.9, 271.1L311.7, 290.3C309.6, 292.4 306.3, 292.4 304.3, 290.3L269.7, 255.7C267.6, 253.6 267.6, 250.3 269.7, 248.3L288.9, 229.1C295.7, 222.3 306.8, 222.3 313.6, 229.1L330.9, 246.4C337.7, 253.2 337.7, 264.3 330.9, 271.1z" fill="#727272" fill-opacity="1" class="Black" />
  </g>
</svg>