<?xml version='1.0' encoding='UTF-8'?>
<svg viewBox="-3.7495 -2 32 32" xmlns="http://www.w3.org/2000/svg">
  <g transform="matrix(0.0547, 0, 0, 0.0547, 0, 0)">
    <path d="M400, 64L352, 64L352, 12C352, 5.4 346.6, 0 340, 0L332, 0C325.4, 0 320, 5.4 320, 12L320, 64L128, 64L128, 12C128, 5.4 122.6, 0 116, 0L108, 0C101.4, 0 96, 5.4 96, 12L96, 64L48, 64C21.5, 64 0, 85.5 0, 112L0, 464C0, 490.5 21.5, 512 48, 512L400, 512C426.5, 512 448, 490.5 448, 464L448, 112C448, 85.5 426.5, 64 400, 64zM48, 96L400, 96C408.8, 96 416, 103.2 416, 112L416, 160L32, 160L32, 112C32, 103.2 39.2, 96 48, 96zM400, 480L48, 480C39.2, 480 32, 472.8 32, 464L32, 192L416, 192L416, 464C416, 472.8 408.8, 480 400, 480zM148, 320L108, 320C101.4, 320 96, 314.6 96, 308L96, 268C96, 261.4 101.4, 256 108, 256L148, 256C154.6, 256 160, 261.4 160, 268L160, 308C160, 314.6 154.6, 320 148, 320zM244, 320L204, 320C197.4, 320 192, 314.6 192, 308L192, 268C192, 261.4 197.4, 256 204, 256L244, 256C250.6, 256 256, 261.4 256, 268L256, 308C256, 314.6 250.6, 320 244, 320zM340, 320L300, 320C293.4, 320 288, 314.6 288, 308L288, 268C288, 261.4 293.4, 256 300, 256L340, 256C346.6, 256 352, 261.4 352, 268L352, 308C352, 314.6 346.6, 320 340, 320zM244, 416L204, 416C197.4, 416 192, 410.6 192, 404L192, 364C192, 357.4 197.4, 352 204, 352L244, 352C250.6, 352 256, 357.4 256, 364L256, 404C256, 410.6 250.6, 416 244, 416zM148, 416L108, 416C101.4, 416 96, 410.6 96, 404L96, 364C96, 357.4 101.4, 352 108, 352L148, 352C154.6, 352 160, 357.4 160, 364L160, 404C160, 410.6 154.6, 416 148, 416zM340, 416L300, 416C293.4, 416 288, 410.6 288, 404L288, 364C288, 357.4 293.4, 352 300, 352L340, 352C346.6, 352 352, 357.4 352, 364L352, 404C352, 410.6 346.6, 416 340, 416z" fill="#727272" fill-opacity="1" class="Black" />
  </g>
</svg>