<?xml version='1.0' encoding='UTF-8'?>
<svg viewBox="-3.7495 -2 32 32" xmlns="http://www.w3.org/2000/svg">
  <g transform="matrix(0.0547, 0, 0, 0.0547, 0, 0)">
    <path d="M400, 64L352, 64L352, 12C352, 5.4 346.6, 0 340, 0L332, 0C325.4, 0 320, 5.4 320, 12L320, 64L128, 64L128, 12C128, 5.4 122.6, 0 116, 0L108, 0C101.4, 0 96, 5.4 96, 12L96, 64L48, 64C21.5, 64 0, 85.5 0, 112L0, 464C0, 490.5 21.5, 512 48, 512L400, 512C426.5, 512 448, 490.5 448, 464L448, 112C448, 85.5 426.5, 64 400, 64zM48, 96L400, 96C408.8, 96 416, 103.2 416, 112L416, 160L32, 160L32, 112C32, 103.2 39.2, 96 48, 96zM400, 480L48, 480C39.2, 480 32, 472.8 32, 464L32, 192L416, 192L416, 464C416, 472.8 408.8, 480 400, 480zM294.7, 384.1C299.4, 388.8 299.4, 396.4 294.7, 401.1L289, 406.8C284.3, 411.5 276.7, 411.5 272, 406.8L224, 358.6L175.9, 406.7C171.2, 411.4 163.6, 411.4 158.9, 406.7L153.2, 401C148.5, 396.3 148.5, 388.7 153.2, 384L201.3, 335.9L153.2, 287.8C148.5, 283.1 148.5, 275.5 153.2, 270.8L158.9, 265.1C163.6, 260.4 171.2, 260.4 175.9, 265.1L224, 313.2L272.1, 265.1C276.8, 260.4 284.4, 260.4 289.1, 265.1L294.8, 270.8C299.5, 275.5 299.5, 283.1 294.8, 287.8L246.6, 336L294.7, 384.1z" fill="#727272" fill-opacity="1" class="Black" />
  </g>
</svg>