<?xml version='1.0' encoding='UTF-8'?>
<svg viewBox="-3.7495 -2 32 32" xmlns="http://www.w3.org/2000/svg">
  <g transform="matrix(0.0547, 0, 0, 0.0547, 0, 0)">
    <path d="M400, 64L352, 64L352, 12C352, 5.4 346.6, 0 340, 0L332, 0C325.4, 0 320, 5.4 320, 12L320, 64L128, 64L128, 12C128, 5.4 122.6, 0 116, 0L108, 0C101.4, 0 96, 5.4 96, 12L96, 64L48, 64C21.5, 64 0, 85.5 0, 112L0, 464C0, 490.5 21.5, 512 48, 512L400, 512C426.5, 512 448, 490.5 448, 464L448, 112C448, 85.5 426.5, 64 400, 64zM48, 96L400, 96C408.8, 96 416, 103.2 416, 112L416, 160L32, 160L32, 112C32, 103.2 39.2, 96 48, 96zM400, 480L48, 480C39.2, 480 32, 472.8 32, 464L32, 192L416, 192L416, 464C416, 472.8 408.8, 480 400, 480zM308, 352L140, 352C133.4, 352 128, 346.6 128, 340L128, 332C128, 325.4 133.4, 320 140, 320L308, 320C314.6, 320 320, 325.4 320, 332L320, 340C320, 346.6 314.6, 352 308, 352z" fill="#727272" fill-opacity="1" class="Black" />
  </g>
</svg>