<?xml version='1.0' encoding='UTF-8'?>
<svg viewBox="-0.2479 -1.9975 32 32" xmlns="http://www.w3.org/2000/svg">
  <g transform="matrix(0.0547, 0, 0, 0.0547, 0, 0)">
    <path d="M511.88, 160L512, 191.5L511.78, 447.87L416, 381.72L416, 258.23L511.93, 192L511.86, 192L511.86, 160A32.13 32.13 0 0 0 493.59, 165.73L416, 219.32L416, 208A48 48 0 0 0 368, 160L128, 160L128, 112A48 48 0 0 1 176, 64L344, 64A8 8 0 0 0 352, 56L352, 40A8 8 0 0 0 344, 32L176, 32A80 80 0 0 0 96, 112L96, 160L80, 160A48 48 0 0 0 32, 208L32, 432A48 48 0 0 0 80, 480L368, 480A48 48 0 0 0 416, 432L416, 420.61L493.59, 474.2A32 32 0 0 0 511.85, 480C528.48, 480 544, 467 544, 448.41L544, 191.5C544, 173 528.52, 160 511.88, 160zM384, 432A16 16 0 0 1 368, 448L80, 448A16 16 0 0 1 64, 432L64, 208A16 16 0 0 1 80, 192L368, 192A16 16 0 0 1 384, 208zM345.6, 224L102.4, 224A6.41 6.41 0 0 0 96, 230.4L96, 249.6A6.41 6.41 0 0 0 102.4, 256L345.6, 256A6.41 6.41 0 0 0 352, 249.6L352, 230.4A6.41 6.41 0 0 0 345.6, 224z" fill="#727272" fill-opacity="1" class="Black" />
  </g>
</svg>