<?xml version='1.0' encoding='UTF-8'?>
<svg viewBox="-2 -1.9988 32 32" xmlns="http://www.w3.org/2000/svg">
  <g transform="matrix(0.0547, 0, 0, 0.0547, 0, 0)">
    <path d="M256, 408C189.8, 408 136, 354.2 136, 288C136, 221.8 189.8, 168 256, 168C322.2, 168 376, 221.8 376, 288C376, 354.2 322.2, 408 256, 408zM256, 200C207.5, 200 168, 239.5 168, 288C168, 336.5 207.5, 376 256, 376C304.5, 376 344, 336.5 344, 288C344, 239.5 304.5, 200 256, 200zM224, 288C224, 270.4 238.4, 256 256, 256C264.8, 256 272, 248.8 272, 240C272, 231.2 264.8, 224 256, 224C220.7, 224 192, 252.7 192, 288C192, 296.8 199.2, 304 208, 304C216.8, 304 224, 296.8 224, 288zM324.3, 64C327.6, 64 330.6, 66.1 331.8, 69.2L353.9, 128L464, 128C472.8, 128 480, 135.2 480, 144L480, 432C480, 440.8 472.8, 448 464, 448L48, 448C39.2, 448 32, 440.8 32, 432L32, 144C32, 135.2 39.2, 128 48, 128L158.2, 128L178.3, 74.4C180.6, 68.2 186.6, 64 193.3, 64L324.3, 64M324.3, 32L193.3, 32C173.3, 32 155.4, 44.4 148.4, 63.1L136, 96L48, 96C21.5, 96 0, 117.5 0, 144L0, 432C0, 458.5 21.5, 480 48, 480L464, 480C490.5, 480 512, 458.5 512, 432L512, 144C512, 117.5 490.5, 96 464, 96L376, 96L361.7, 58C355.9, 42.3 341, 32 324.3, 32z" fill="#727272" fill-opacity="1" class="Black" />
  </g>
</svg>