<?xml version='1.0' encoding='UTF-8'?>
<svg viewBox="-2 -1.9988 32 32" xmlns="http://www.w3.org/2000/svg">
  <g transform="matrix(0.0547, 0, 0, 0.0547, 0, 0)">
    <path d="M32, 58L32, 38C32, 34.7 34.7, 32 38, 32L154, 32C157.3, 32 160, 34.7 160, 38L160, 58C160, 61.3 157.3, 64 154, 64L38, 64C34.7, 64 32, 61.3 32, 58zM376, 288C376, 221.8 322.2, 168 256, 168C189.8, 168 136, 221.8 136, 288C136, 354.2 189.8, 408 256, 408C322.2, 408 376, 354.2 376, 288zM344, 288C344, 336.5 304.5, 376 256, 376C207.5, 376 168, 336.5 168, 288C168, 239.5 207.5, 200 256, 200C304.5, 200 344, 239.5 344, 288zM224, 288C224, 270.4 238.4, 256 256, 256C264.8, 256 272, 248.8 272, 240C272, 231.2 264.8, 224 256, 224C220.7, 224 192, 252.7 192, 288C192, 296.8 199.2, 304 208, 304C216.8, 304 224, 296.8 224, 288zM512, 80L512, 432C512, 458.5 490.5, 480 464, 480L48, 480C21.5, 480 0, 458.5 0, 432L0, 144C0, 117.5 21.5, 96 48, 96L184, 96L217.6, 51.2C226.7, 39.1 240.9, 32 256, 32L464, 32C490.5, 32 512, 53.5 512, 80zM224, 96L464, 96C469.6, 96 475, 97 480, 98.7L480, 80C480, 71.2 472.8, 64 464, 64L256, 64C251, 64 246.2, 66.4 243.2, 70.4L224, 96zM480, 144C480, 135.2 472.8, 128 464, 128L48, 128C39.2, 128 32, 135.2 32, 144L32, 432C32, 440.8 39.2, 448 48, 448L464, 448C472.8, 448 480, 440.8 480, 432L480, 144z" fill="#727272" fill-opacity="1" class="Black" />
  </g>
</svg>