<?xml version='1.0' encoding='UTF-8'?>
<svg viewBox="-1.9999 -3.5552 32 32" xmlns="http://www.w3.org/2000/svg">
  <g transform="matrix(0.0486, 0, 0, 0.0486, 0, 0)">
    <path d="M368, 80A64 64 0 1 0 432, 144A64 64 0 0 0 368, 80zM368, 176A32 32 0 1 1 400, 144A32 32 0 0 1 368, 176zM176, 80A64 64 0 1 0 240, 144A64.07 64.07 0 0 0 176, 80zM176, 176A32 32 0 1 1 208, 144A32 32 0 0 1 176, 176zM550.29, 256A25.67 25.67 0 0 0 535.68, 260.59L448, 321.59L448, 304A47.74 47.74 0 0 0 434.66, 270.93C480.44, 246.81 512, 199.34 512, 144A144 144 0 0 0 368, 0C331, 0 297.52, 14.38 272, 37.37C246.48, 14.38 213.05, 0 176, 0A144 144 0 0 0 32, 144C32, 189.52 53.54, 229.61 86.51, 256L32, 256A32 32 0 0 0 0, 288L0, 320A32 32 0 0 0 32, 352L96, 352L96, 464A48 48 0 0 0 144, 512L400, 512A48 48 0 0 0 448, 464L448, 446.46L535.68, 507.4A25.53 25.53 0 0 0 550.28, 512C563.58, 512 576, 501.64 576, 486.76L576, 281.23C576, 266.4 563.61, 256 550.29, 256zM416, 464A16 16 0 0 1 400, 480L144, 480A16 16 0 0 1 128, 464L128, 320L32, 320L32, 288L400, 288A16 16 0 0 1 416, 304zM368, 256L176, 256A112 112 0 1 1 250.58, 61.15L272, 80.44L293.42, 61.15A111.78 111.78 0 1 1 368, 256zM544, 474.22L448, 407.48L448, 360.48L544, 293.74z" fill="#727272" fill-opacity="1" class="Black" />
  </g>
</svg>