<?xml version='1.0' encoding='UTF-8'?>
<svg viewBox="-2 -2 32 32" xmlns="http://www.w3.org/2000/svg">
  <g transform="matrix(0.0547, 0, 0, 0.0547, 0, 0)">
    <path d="M256, 320C335.53, 320 400, 255.53 400, 176C400, 142.71 366.58, 74.04 320, 32C306.63, 44.06 294.55, 56.75 283.86, 69.48C266.34, 46.01 244.61, 22.21 220, 0C156.83, 56.98 112, 131.22 112, 176C112, 255.53 176.47, 320 256, 320zM220.1, 44.42C234.21, 58.8 247.14, 73.79 258.22, 88.63L282.39, 121L308.37, 90.05C311.93, 85.81 315.6, 81.64 319.36, 77.58C349.96, 114.53 368, 159.21 368, 176C368, 237.76 317.76, 288 256, 288C194.24, 288 144, 237.76 144, 176C144, 148.25 172.05, 94.37 220.1, 44.42zM295.91, 400L507.21, 317.98A7.99 7.99 0 0 0 511.33, 307.45L504.93, 292.8A8.006 8.006 0 0 0 494.39, 288.67L256, 382.54L17.61, 288.67A8.006 8.006 0 0 0 7.07, 292.8L0.67, 307.45A7.999 7.999 0 0 0 4.79, 317.98L216.09, 400L4.8, 482.02A7.994 7.994 0 0 0 0.68, 492.55L7.08, 507.2C8.85, 511.25 13.57, 513.1 17.62, 511.32L256, 417.46L494.39, 511.33C498.44, 513.1 503.16, 511.26 504.93, 507.21L511.33, 492.56A7.999 7.999 0 0 0 507.21, 482.03L295.91, 400z" fill="#727272" fill-opacity="1" class="Black" />
  </g>
</svg>