<?xml version='1.0' encoding='UTF-8'?>
<svg viewBox="-2 -4.7967 32 32" xmlns="http://www.w3.org/2000/svg">
  <g transform="matrix(0.9988, 0, 0, 0.9988, 0, 0)">
    <g transform="matrix(0.0438, 0, 0, 0.0438, 0, 0)">
      <path d="M632, 480L608, 480L339.74, 109.19L402.74, 22.1C405.34, 18.53 404.54, 13.53 400.97, 10.93L388.04, 1.53C384.47, -1.07 379.46, -0.28 376.86, 3.3L320, 81.9L263.14, 3.3A7.999 7.999 0 0 0 251.96, 1.53L239.03, 10.93C235.46, 13.53 234.66, 18.53 237.26, 22.1L300.26, 109.19L32, 480L8, 480C3.58, 480 0, 483.58 0, 488L0, 504C0, 508.42 3.58, 512 8, 512L632, 512C636.42, 512 640, 508.42 640, 504L640, 488C640, 483.58 636.42, 480 632, 480zM222.19, 480L320, 343.06L417.81, 480L222.19, 480zM457.15, 480L333.02, 306.23C326.64, 297.3 313.36, 297.3 306.98, 306.23L182.85, 480L71.49, 480L320, 136.48L568.51, 480L457.15, 480z" fill="#727272" fill-opacity="1" class="Black" />
    </g>
  </g>
</svg>