<?xml version='1.0' encoding='UTF-8'?>
<svg viewBox="-1.9973 -4.7991 31.9975 32" xmlns="http://www.w3.org/2000/svg">
  <g transform="matrix(0.9989, 0, 0, 0.9989, 0, 0)">
    <g transform="matrix(0.0438, 0, 0, 0.0438, 0, 0)">
      <path d="M480, 0C314.19, 1.62 315.52, 39.54 322.11, 72.47C352.45, 224.02 416.18, 416 479.91, 416L480, 416C543.77, 415.82 607.53, 224.1 637.89, 72.47C644.48, 39.54 645.81, 1.62 480, 0zM479.91, 383.99C467.16, 383.96 440.65, 346.93 412.48, 275.28C456.26, 271.55 503.68, 271.55 547.46, 275.27C519.26, 346.91 492.69, 383.95 479.91, 383.99zM558.98, 244.19C508.15, 239.23 451.81, 239.23 400.98, 244.19C391.51, 217.14 382.06, 186.27 373.03, 151.58C439.63, 141.82 520.36, 141.81 586.96, 151.58C577.92, 186.26 568.47, 217.14 558.98, 244.19zM606.63, 66.16C602.83, 85.16 598.8, 103.04 594.69, 120.38C523.38, 109.56 436.61, 109.56 365.3, 120.38C361.19, 103.04 357.17, 85.15 353.37, 66.15C351.39, 56.26 351.82, 53.71 352.1, 53.07C352.2, 52.87 364.95, 33.17 480, 32.01C595.06, 33.17 607.81, 52.88 607.9, 53.07C608.18, 53.72 608.61, 56.27 606.63, 66.16zM84.94, 205.81C-31.16, 324.21 -3.41, 350.07 24.54, 368.7C153.16, 454.41 333.97, 545.1 379.03, 500.04L379.09, 499.98C424.05, 454.76 333.57, 274.11 247.82, 145.42C229.2, 117.46 203.34, 89.71 84.94, 205.81zM356.4, 477.4C347.37, 486.4 302.43, 478.96 231.86, 448.21C260.18, 414.61 293.71, 381.09 327.3, 352.76C358.01, 423.35 365.41, 468.33 356.4, 477.4zM313.46, 322.63C274.01, 355.07 234.17, 394.91 201.74, 434.36C175.91, 421.93 147.4, 406.78 116.49, 388.64C156.68, 334.65 213.76, 277.56 267.76, 237.37C285.89, 268.28 301.04, 296.79 313.46, 322.63zM88.96, 372.04C73.79, 362.68 58.3, 352.88 42.18, 342.13C33.79, 336.54 32.29, 334.43 32.03, 333.78C31.96, 333.57 27.04, 310.62 107.58, 228.44C189.76, 147.9 212.71, 152.82 212.92, 152.89C213.56, 153.14 215.67, 154.65 221.27, 163.04C232.01, 179.16 241.81, 194.66 251.17, 209.82C193.09, 252.61 131.74, 313.97 88.96, 372.04z" fill="#727272" fill-opacity="1" class="Black" />
    </g>
  </g>
</svg>