<?xml version='1.0' encoding='UTF-8'?>
<svg viewBox="-1.9975 -2 32 32" xmlns="http://www.w3.org/2000/svg">
  <g transform="matrix(0.0547, 0, 0, 0.0547, 0, 0)">
    <path d="M497.5, 92C469.6, 33.1 411.8, 0 352.4, 0C324.5, 0 296.2, 7.3 270.6, 22.6L243.1, 39C227.9, 48.1 223, 67.7 232.1, 82.9L264.9, 137.8C274.3, 153.5 294.2, 157.6 308.8, 148.8L336.3, 132.4C372.2, 110.9 405.9, 165.4 369.1, 187.3L15.6, 397.6C0.4, 406.7 -4.5, 426.3 4.6, 441.5L37.4, 496.4C43.4, 506.4 54, 512 64.9, 512C70.5, 512 76.1, 510.5 81.3, 507.5L428.6, 301C500.3, 258.1 533.2, 167.5 497.5, 92zM292.3, 121.4L259.5, 66.5C291.8, 47.2 312.6, 32.1 352, 32L352, 96C328.4, 96.3 314.7, 108.1 292.3, 121.4zM383.3, 104L384, 104L384, 36.1C420.7, 45.3 451.8, 70.1 468.6, 105.6C472, 112.8 474.6, 120.3 476.5, 127.9L408, 127.9L408, 128C407.8, 127.7 407.7, 127.4 407.6, 127.1C401.7, 117.2 393.2, 109.4 383.3, 104zM256.8, 291.4L339.1, 242.4L403.4, 278.6L321.1, 327.6L256.8, 291.4zM289.4, 346.5L201.9, 398.5L137.6, 362.3L225.1, 310.3L289.4, 346.5zM64.8, 480L31.9, 425.1L105.8, 381.2L170.1, 417.4L64.8, 480zM432.8, 258.5L370.8, 223.6L385.4, 214.9C405.4, 203 416.3, 181.7 416.3, 160L479.3, 160C478.4, 196.5 462.1, 232.8 432.8, 258.5z" fill="#727272" fill-opacity="1" class="Black" />
  </g>
</svg>