<?xml version='1.0' encoding='UTF-8'?>
<svg viewBox="-3.7495 -2 32 32" xmlns="http://www.w3.org/2000/svg">
  <g transform="matrix(0.0547, 0, 0, 0.0547, 0, 0)">
    <path d="M160, 192C205.93, 192 238, 159.39 238, 112.71C238, 82.72 205.41, 37.82 160, 0C114.38, 38 82, 82.84 82, 112.71C82, 159.39 114.07, 192 160, 192zM160, 43.07C191.56, 74.04 206, 101.33 206, 112.7C206, 141.87 188.37, 159.99 160, 159.99C131.63, 159.99 114, 141.87 114, 112.7C114, 101.33 128.44, 74.04 160, 43.07zM384, 384C348.65, 384 320, 412.65 320, 448C320, 459.72 323.38, 470.55 328.88, 480L256, 480L256, 256C256, 238.33 241.67, 224 224, 224L96, 224C78.33, 224 64, 238.33 64, 256L64, 480L8, 480C3.58, 480 0, 483.58 0, 488L0, 504C0, 508.42 3.58, 512 8, 512L384, 512C419.35, 512 448, 483.35 448, 448C448, 412.65 419.35, 384 384, 384zM224, 480L96, 480L96, 256L128, 256L128, 304C128, 312.84 135.16, 320 144, 320C152.84, 320 160, 312.84 160, 304L160, 256L224, 256L224, 480zM384, 480C366.36, 480 352, 465.64 352, 448C352, 430.36 366.36, 416 384, 416C401.64, 416 416, 430.36 416, 448C416, 465.64 401.64, 480 384, 480z" fill="#727272" fill-opacity="1" class="Black" />
  </g>
</svg>