<?xml version='1.0' encoding='UTF-8'?>
<svg viewBox="-2 -2.8208 32 31.9975" xmlns="http://www.w3.org/2000/svg">
  <g transform="matrix(0.0515, 0, 0, 0.0515, 0, 0)">
    <path d="M529, 296.8L417.5, 103.7C386.7, 50.5 318.5, 32.2 265.2, 62.9C244, 75.1 228.7, 93.4 219.4, 114.2C206.3, 67 163.4, 32 112, 32C50.2, 32 0, 82.2 0, 144L0, 368C0, 429.8 50.2, 480 112, 480C173.8, 480 224, 429.8 224, 368L224, 214.2C224.2, 214.5 224.2, 214.8 224.4, 215.1L335.9, 408.2C356.5, 443.9 394.1, 463.9 432.7, 463.9C451.6, 463.9 470.7, 459.1 488.2, 449C514, 434.1 532.4, 410.1 540.1, 381.3C547.9, 352.6 543.9, 322.6 529, 296.8zM112, 64C156.1, 64 192, 99.9 192, 144L192, 256L32, 256L32, 144C32, 99.9 67.9, 64 112, 64zM112, 448C67.9, 448 32, 412.1 32, 368L32, 288L192, 288L192, 368C192, 412.1 156.1, 448 112, 448zM281.2, 90.5C321.6, 67.2 369.4, 84 390, 119.6L437.6, 202L299.7, 281.6L252, 199.3C230.1, 161.2 243.1, 112.4 281.2, 90.5zM509.4, 373.2C503.9, 393.7 490.7, 410.9 472.3, 421.6C434.3, 443.5 385.5, 430.4 363.5, 392.5L315.6, 309.5L453.5, 229.9L501.4, 312.9C512.1, 331.1 514.9, 352.6 509.4, 373.2z" fill="#727272" fill-opacity="1" class="Black" />
  </g>
</svg>