<?xml version='1.0' encoding='UTF-8'?>
<svg viewBox="-2 -4.7992 32 32" xmlns="http://www.w3.org/2000/svg">
  <g transform="matrix(0.9988, 0, 0, 0.9988, 0, 0)">
    <g transform="matrix(0.0438, 0, 0, 0.0438, 0, 0)">
      <path d="M544, 192L528, 192L419.21, 56.02A63.99 63.99 0 0 0 369.24, 32L171.33, 32C145.16, 32 121.63, 47.93 111.91, 72.23L64, 192C28.65, 192 0, 220.65 0, 256L0, 368C0, 376.84 7.16, 384 16, 384L64, 384C64, 437.02 106.98, 480 160, 480C213.02, 480 256, 437.02 256, 384L384, 384C384, 437.02 426.98, 480 480, 480C533.02, 480 576, 437.02 576, 384L624, 384C632.84, 384 640, 376.84 640, 368L640, 288C640, 234.98 597.02, 192 544, 192zM288, 64L369.24, 64C379.01, 64 388.12, 68.38 394.23, 76.01L487.02, 192L288, 192L288, 64zM141.62, 84.12C146.51, 71.89 158.17, 64 171.33, 64L256, 64L256, 192L98.46, 192L141.62, 84.12zM160, 448C124.65, 448 96, 419.35 96, 384C96, 348.65 124.65, 320 160, 320C195.35, 320 224, 348.65 224, 384C224, 419.35 195.35, 448 160, 448zM480, 448C444.65, 448 416, 419.35 416, 384C416, 348.65 444.65, 320 480, 320C515.35, 320 544, 348.65 544, 384C544, 419.35 515.35, 448 480, 448zM608, 352L570.12, 352C556.9, 314.8 521.74, 288 480, 288C438.26, 288 403.1, 314.8 389.88, 352L250.12, 352C236.9, 314.8 201.74, 288 160, 288C118.26, 288 83.1, 314.8 69.88, 352L32, 352L32, 256C32, 238.36 46.36, 224 64, 224L544, 224C579.29, 224 608, 252.71 608, 288L608, 352z" fill="#727272" fill-opacity="1" class="Black" />
    </g>
  </g>
</svg>