<?xml version='1.0' encoding='UTF-8'?>
<svg viewBox="-2 -4.7992 32 32" xmlns="http://www.w3.org/2000/svg">
  <g transform="matrix(0.9988, 0, 0, 0.9988, 0, 0)">
    <g transform="matrix(0.0438, 0, 0, 0.0438, 0, 0)">
      <path d="M64, 300A20 20 0 1 0 84, 280A20 20 0 0 0 64, 300zM32, 349.09L31.93, 256L241.85, 256L249.24, 224L208, 224L208, 128L352, 128L352, 144L384, 144L384, 70.23C384, 30.91 299, 0 192, 0C85, 0 0, 30.91 0, 70.23L0, 349.09A34.91 34.91 0 0 0 34.91, 384L32, 384L32, 432A16 16 0 0 0 48, 448L64, 448A16 16 0 0 0 80, 432L80, 384L192, 384L192, 362.67C192, 359.01 192.93, 355.58 193.29, 352L34.91, 352A2.91 2.91 0 0 1 32, 349.09zM176, 224L32, 224L32, 128L176, 128zM31.8, 71.55C36.41, 60.29 90.84, 32 192, 32C293.16, 32 347.59, 60.29 352, 70.23L352, 96L31.82, 96zM595.4, 294.44L579.52, 225.61A63.71 63.71 0 0 0 517.16, 176L344.07, 176A63.7 63.7 0 0 0 281.71, 225.61L265.43, 296.16C241, 308.44 224, 333.49 224, 362.67L224, 417.78A46.14 46.14 0 0 0 256, 461.53L256, 496A16 16 0 0 0 272, 512L288, 512A16 16 0 0 0 304, 496L304, 464L560, 464L560, 496A16 16 0 0 0 576, 512L592, 512A16 16 0 0 0 608, 496L608, 461.53A46.14 46.14 0 0 0 640, 417.78L640, 362.67A74.7 74.7 0 0 0 595.4, 294.44zM312.89, 232.81A32 32 0 0 1 344.07, 208L517.16, 208A32 32 0 0 1 548.34, 232.81L561.07, 288L300.15, 288zM608, 417.78A14.24 14.24 0 0 1 593.78, 432L270.22, 432A14.24 14.24 0 0 1 256, 417.78L256, 362.67A42.72 42.72 0 0 1 298.67, 320L565.33, 320A42.72 42.72 0 0 1 608, 362.67zM308, 352A20 20 0 1 0 328, 372A20 20 0 0 0 308, 352zM556, 352A20 20 0 1 0 576, 372A20 20 0 0 0 556, 352z" fill="#727272" fill-opacity="1" class="Black" />
    </g>
  </g>
</svg>