<?xml version='1.0' encoding='UTF-8'?>
<svg viewBox="-2 -4.7992 32 32" xmlns="http://www.w3.org/2000/svg">
  <g transform="matrix(0.9988, 0, 0, 0.9988, 0, 0)">
    <g transform="matrix(0.0438, 0, 0, 0.0438, 0, 0)">
      <path d="M595.4, 294.44L579.52, 225.61A63.71 63.71 0 0 0 517.16, 176L344.07, 176A63.7 63.7 0 0 0 281.71, 225.61L265.43, 296.16C241, 308.44 224, 333.49 224, 362.67L224, 417.78A46.14 46.14 0 0 0 256, 461.53L256, 496A16 16 0 0 0 272, 512L288, 512A16 16 0 0 0 304, 496L304, 464L560, 464L560, 496A16 16 0 0 0 576, 512L592, 512A16 16 0 0 0 608, 496L608, 461.53A46.14 46.14 0 0 0 640, 417.78L640, 362.67A74.7 74.7 0 0 0 595.4, 294.44zM312.89, 232.8A32 32 0 0 1 344.07, 208L517.16, 208A32 32 0 0 1 548.34, 232.8L561.07, 288L300.15, 288zM608, 417.78A14.24 14.24 0 0 1 593.78, 432L270.22, 432A14.24 14.24 0 0 1 256, 417.78L256, 362.67A42.72 42.72 0 0 1 298.67, 320L565.33, 320A42.72 42.72 0 0 1 608, 362.67zM320, 48L320, 144L352, 144L352, 48A48 48 0 0 0 304, 0L48, 0A48 48 0 0 0 0, 48L0, 440A8 8 0 0 0 8, 448L24, 448A8 8 0 0 0 32, 440L32, 48A16 16 0 0 1 48, 32L304, 32A16 16 0 0 1 320, 48zM204, 96A12 12 0 0 0 192, 108L192, 148A12 12 0 0 0 204, 160L244, 160A12 12 0 0 0 256, 148L256, 108A12 12 0 0 0 244, 96zM148, 192L108, 192A12 12 0 0 0 96, 204L96, 244A12 12 0 0 0 108, 256L148, 256A12 12 0 0 0 160, 244L160, 204A12 12 0 0 0 148, 192zM148, 288L108, 288A12 12 0 0 0 96, 300L96, 340A12 12 0 0 0 108, 352L148, 352A12 12 0 0 0 160, 340L160, 300A12 12 0 0 0 148, 288zM308, 352A20 20 0 1 0 328, 372A20 20 0 0 0 308, 352zM556, 352A20 20 0 1 0 576, 372A20 20 0 0 0 556, 352zM148, 96L108, 96A12 12 0 0 0 96, 108L96, 148A12 12 0 0 0 108, 160L148, 160A12 12 0 0 0 160, 148L160, 108A12 12 0 0 0 148, 96zM250.53, 218.42A96.81 96.81 0 0 1 255.69, 202.47A11.86 11.86 0 0 0 244, 192L204, 192A12 12 0 0 0 192, 204L192, 244A12 12 0 0 0 204, 256L241.85, 256z" fill="#727272" fill-opacity="1" class="Black" />
    </g>
  </g>
</svg>