<?xml version='1.0' encoding='UTF-8'?>
<svg viewBox="-3.7484 -1.9975 32 32" xmlns="http://www.w3.org/2000/svg">
  <g transform="matrix(0.0547, 0, 0, 0.0547, 0, 0)">
    <path d="M80, 128C106.47, 128 128, 106.4 128, 79.84C128, 59.32 103.62, 21.72 93.16, 6.52C87.22, -2.17 72.78, -2.17 66.85, 6.52C56.38, 21.72 32, 59.32 32, 79.84C32, 106.4 53.53, 128 80, 128zM80, 45.39C89.22, 60.96 95.88, 74.94 96, 79.83C96, 88.69 88.81, 95.88 80, 95.88C71.19, 95.88 64, 88.68 64, 79.84C64.12, 74.95 70.78, 60.96 80, 45.39zM224, 128C250.47, 128 272, 106.4 272, 79.84C272, 59.32 247.62, 21.72 237.16, 6.52C231.22, -2.17 216.78, -2.17 210.85, 6.52C200.38, 21.72 176, 59.32 176, 79.84C176, 106.4 197.53, 128 224, 128zM224, 45.39C233.22, 60.96 239.88, 74.94 240, 79.83C240, 88.69 232.81, 95.88 224, 95.88C215.19, 95.88 208, 88.68 208, 79.84C208.12, 74.95 214.78, 60.96 224, 45.39zM368, 128C394.47, 128 416, 106.4 416, 79.84C416, 59.32 391.62, 21.72 381.16, 6.52C375.22, -2.17 360.78, -2.17 354.85, 6.52C344.38, 21.72 320, 59.32 320, 79.84C320, 106.4 341.53, 128 368, 128zM368, 45.39C377.22, 60.96 383.88, 74.94 384, 79.83C384, 88.69 376.81, 95.88 368, 95.88C359.19, 95.88 352, 88.68 352, 79.84C352.12, 74.95 358.78, 60.96 368, 45.39zM397.38, 261.74L382.23, 215.24C371.5, 182.31 340.8, 160.02 306.16, 160.02L141.83, 160.02C107.19, 160.02 76.49, 182.31 65.76, 215.24L50.61, 261.74C21.01, 273.47 0, 302.22 0, 336L0, 464C0, 490.47 21.53, 512 48, 512L64, 512C90.47, 512 112, 490.47 112, 464L112, 448L336, 448L336, 464C336, 490.47 357.53, 512 384, 512L400, 512C426.47, 512 448, 490.47 448, 464L448, 336C448, 302.22 426.99, 273.47 397.38, 261.74zM96.19, 225.15A47.888 47.888 0 0 1 141.83, 192.02L306.17, 192.02C327.01, 192.02 345.35, 205.34 351.81, 225.15L361.86, 256L86.14, 256L96.19, 225.15zM80, 464C80, 472.83 72.81, 480 64, 480L48, 480C39.19, 480 32, 472.83 32, 464L32, 448L80, 448L80, 464zM416, 464C416, 472.83 408.81, 480 400, 480L384, 480C375.19, 480 368, 472.83 368, 464L368, 448L416, 448L416, 464zM416, 384L416, 416L32, 416L32, 336C32, 309.53 53.53, 288 80, 288L368, 288C394.47, 288 416, 309.53 416, 336L416, 384zM343.2, 312.01C319.1, 312.01 288, 335.25 288, 359.94C288, 371.92 293.85, 392.01 333.06, 392.01L343.2, 391.91C369.16, 391.91 388, 375.11 388, 351.96C388, 328.81 369.16, 312.01 343.2, 312.01zM343.2, 367.91C340.08, 367.91 336.57, 368.01 333.06, 368.01C322.53, 368.01 312, 367.11 312, 359.94C312, 350.37 330.72, 336.01 343.2, 336.01C355.68, 336.01 364, 342.39 364, 351.96C364, 361.53 355.68, 367.91 343.2, 367.91zM104.8, 312.01C78.84, 312.01 60, 328.81 60, 351.96C60, 375.11 78.84, 391.91 104.8, 391.91L114.94, 392.01C154.15, 392.01 160, 371.91 160, 359.94C160, 335.25 128.9, 312.01 104.8, 312.01zM114.94, 368.01C111.43, 368.01 107.92, 367.91 104.8, 367.91C92.32, 367.91 84, 361.53 84, 351.96C84, 342.39 92.32, 336.01 104.8, 336.01C117.28, 336.01 136, 350.37 136, 359.94C136, 367.11 125.47, 368.01 114.94, 368.01z" fill="#727272" fill-opacity="1" class="Black" />
  </g>
</svg>