<?xml version='1.0' encoding='UTF-8'?>
<svg viewBox="-1.9988 -2 32 32" xmlns="http://www.w3.org/2000/svg">
  <g transform="matrix(0.0547, 0, 0, 0.0547, 0, 0)">
    <path d="M510.15, 53.28C498.82, 21.41 468.6, 0 434.94, 0C408.91, 0 385.97, 12.69 371.35, 32L140.65, 32C126.04, 12.69 103.09, 0 77.06, 0C43.4, 0 13.18, 21.41 1.85, 53.28A31.966 31.966 0 0 0 4.29, 80A32.036 32.036 0 0 0 1.85, 106.72C13.18, 138.59 43.4, 160 77.06, 160C103.08, 160 126.01, 147.32 140.63, 128.03L371.37, 128.03C385.99, 147.32 408.92, 160 434.94, 160C468.6, 160 498.83, 138.59 510.15, 106.72A32.04 32.04 0 0 0 507.71, 80C512.38, 71.92 513.31, 62.16 510.15, 53.28zM434.94, 96L480, 96C473.39, 114.6 455.81, 128 434.94, 128C414.07, 128 396.49, 114.6 389.88, 96L122.13, 96C115.52, 114.6 97.94, 128 77.07, 128C56.2, 128 38.61, 114.6 32, 96L77.06, 96L93.06, 80L77.06, 64L32, 64C38.61, 45.4 56.19, 32 77.06, 32C97.94, 32 115.53, 45.41 122.13, 64.03L389.86, 64.03C396.47, 45.41 414.06, 32 434.94, 32C455.81, 32 473.39, 45.4 480, 64L434.94, 64L418.94, 80L434.94, 96zM429.38, 261.74L414.23, 215.24C403.5, 182.31 372.8, 160.02 338.16, 160.02L173.83, 160.02C139.19, 160.02 108.49, 182.31 97.76, 215.24L82.61, 261.74C53.01, 273.47 32, 302.22 32, 336L32, 464C32, 490.47 53.53, 512 80, 512L96, 512C122.47, 512 144, 490.47 144, 464L144, 448L368, 448L368, 464C368, 490.47 389.53, 512 416, 512L432, 512C458.47, 512 480, 490.47 480, 464L480, 336C480, 302.22 458.99, 273.47 429.38, 261.74zM128.19, 225.15A47.888 47.888 0 0 1 173.83, 192.02L338.17, 192.02C359.01, 192.02 377.35, 205.34 383.81, 225.15L393.86, 256L118.14, 256L128.19, 225.15zM112, 464C112, 472.83 104.81, 480 96, 480L80, 480C71.19, 480 64, 472.83 64, 464L64, 448L112, 448L112, 464zM448, 464C448, 472.83 440.81, 480 432, 480L416, 480C407.19, 480 400, 472.83 400, 464L400, 448L448, 448L448, 464zM448, 384L448, 416L64, 416L64, 336C64, 309.53 85.53, 288 112, 288L400, 288C426.47, 288 448, 309.53 448, 336L448, 384zM375.2, 312.01C351.1, 312.01 320, 335.25 320, 359.94C320, 371.92 325.85, 392.01 365.06, 392.01L375.2, 391.91C401.16, 391.91 420, 375.11 420, 351.96C420, 328.81 401.16, 312.01 375.2, 312.01zM375.2, 367.91C372.08, 367.91 368.57, 368.01 365.06, 368.01C354.53, 368.01 344, 367.11 344, 359.94C344, 350.37 362.72, 336.01 375.2, 336.01C387.68, 336.01 396, 342.39 396, 351.96C396, 361.53 387.68, 367.91 375.2, 367.91zM136.8, 312.01C110.84, 312.01 92, 328.81 92, 351.96C92, 375.11 110.84, 391.91 136.8, 391.91L146.94, 392.01C186.15, 392.01 192, 371.91 192, 359.94C192, 335.25 160.9, 312.01 136.8, 312.01zM146.94, 368.01C143.43, 368.01 139.92, 367.91 136.8, 367.91C124.32, 367.91 116, 361.53 116, 351.96C116, 342.39 124.32, 336.01 136.8, 336.01C149.28, 336.01 168, 350.37 168, 359.94C168, 367.11 157.47, 368.01 146.94, 368.01z" fill="#727272" fill-opacity="1" class="Black" />
  </g>
</svg>