<?xml version='1.0' encoding='UTF-8'?>
<svg viewBox="-2 -4.7992 32 32" xmlns="http://www.w3.org/2000/svg">
  <g transform="matrix(0.9988, 0, 0, 0.9988, 0, 0)">
    <g transform="matrix(0.0438, 0, 0, 0.0438, 0, 0)">
      <path d="M179.55, 305.94C161.27, 324.22 159.84, 349.31 176.13, 365.61C192.43, 381.91 217.53, 380.48 235.81, 362.2L243.02, 355.13C270.63, 327.52 260.6, 309.25 252.16, 300.82C234.78, 283.44 196.52, 288.97 179.55, 305.94zM226.12, 338.23C223.65, 340.7 221.11, 343.1 218.91, 345.3C210.12, 354.09 199.77, 355.45 193.03, 348.71C186.29, 341.97 187.66, 331.62 196.44, 322.83C205.23, 314.04 228.51, 310.97 235.25, 317.71C240.31, 322.77 233.53, 330.82 226.12, 338.23zM632, 480L307.39, 480C320.48, 461.36 319.55, 435.8 302.91, 419.16L280.38, 396.63L460.64, 216.38L483.17, 238.91C501.81, 257.55 532.13, 257.55 550.77, 238.91L562.04, 227.64C580.68, 209 580.68, 178.68 562.04, 160.04L460.63, 58.65C435.23, 33.26 397.1, 28.95 366.98, 45.02L295.49, 8.66C264.75, -6.97 227.44, -1.05 203.05, 23.34L87.33, 139.05C62.94, 163.44 57.02, 200.75 72.65, 231.5L109.01, 302.98C92.95, 333.11 97.25, 371.24 122.64, 396.63L206.02, 480L8, 480C3.58, 480 0, 483.58 0, 488L0, 504C0, 508.42 3.58, 512 8, 512L632, 512C636.42, 512 640, 508.42 640, 504L640, 488C640, 483.58 636.42, 480 632, 480zM539.49, 182.57C545.71, 188.79 545.7, 198.9 539.49, 205.1L528.22, 216.37C522.01, 222.58 511.9, 222.58 505.69, 216.37L483.16, 193.84L516.96, 160.04L539.49, 182.57zM101.06, 217.05C91.65, 198.55 95.19, 176.26 109.87, 161.58L225.58, 45.87A47.715 47.715 0 0 1 281.05, 37.06L339.72, 66.9L130.9, 275.72L101.06, 217.05zM201.51, 430.43L145.18, 374.1C126.54, 355.47 126.54, 325.14 145.18, 306.5L370.5, 81.18C389.14, 62.54 419.46, 62.54 438.1, 81.18L471.9, 114.98L494.43, 137.51L460.63, 171.31L438.1, 193.84L201.51, 430.43zM280.37, 464.22L269.1, 475.49C266.2, 478.39 262.42, 479.81 258.6, 480L257.07, 480C253.25, 479.82 249.47, 478.4 246.56, 475.49L224.03, 452.96L257.83, 419.16L280.36, 441.69C286.59, 447.91 286.58, 458.02 280.37, 464.22zM429.61, 112.13C413.31, 95.83 388.22, 97.27 369.94, 115.54C352.97, 132.51 347.44, 170.77 364.82, 188.15C373.26, 196.59 391.53, 206.61 419.13, 179.01L426.2, 171.8C444.48, 153.53 445.91, 128.44 429.61, 112.13zM409.3, 154.91C407.1, 157.11 404.7, 159.65 402.23, 162.12C394.82, 169.53 386.77, 176.32 381.72, 171.26C374.98, 164.52 378.05, 141.23 386.84, 132.45C395.63, 123.66 405.98, 122.3 412.72, 129.03C419.46, 135.76 418.09, 146.12 409.3, 154.91z" fill="#727272" fill-opacity="1" class="Black" />
    </g>
  </g>
</svg>