<?xml version='1.0' encoding='UTF-8'?>
<svg viewBox="-1.9975 -1.9962 32 32" xmlns="http://www.w3.org/2000/svg">
  <g transform="matrix(0.0547, 0, 0, 0.0547, 0, 0)">
    <path d="M120.81, 248C94.85, 248 76.01, 264.8 76.01, 287.95C76.01, 311.1 94.85, 327.9 120.81, 327.9L130.95, 328C170.16, 328 176.01, 307.9 176.01, 295.92C176, 271.24 144.91, 248 120.81, 248zM130.95, 304C127.44, 304 123.93, 303.9 120.81, 303.9C108.33, 303.9 100.01, 297.52 100.01, 287.95C100.01, 278.38 108.33, 272 120.81, 272C133.29, 272 152.01, 286.36 152.01, 295.93C152.01, 303.1 141.47, 304 130.95, 304zM391.19, 248C367.09, 248 336, 271.24 336, 295.93C336, 307.91 341.85, 328.01 381.06, 328.01L391.2, 327.91C417.16, 327.91 436, 311.11 436, 287.96C435.99, 264.8 417.15, 248 391.19, 248zM391.19, 303.9C388.07, 303.9 384.56, 304 381.05, 304C370.52, 304 359.99, 303.1 359.99, 295.93C359.99, 286.36 378.71, 272 391.19, 272C403.67, 272 411.99, 278.38 411.99, 287.95C411.99, 297.52 403.67, 303.9 391.19, 303.9zM505.99, 162.96C498.65, 151.08 485.93, 143.99 471.96, 143.99L422.3, 143.99L414.23, 119.23C403.5, 86.29 372.8, 64 338.17, 64L173.83, 64C139.19, 64 108.5, 86.29 97.77, 119.22L89.7, 143.98L40.04, 143.98C26.07, 143.98 13.35, 151.07 6.01, 162.95C-1.33, 174.83 -1.99, 189.37 4.26, 201.86L10.04, 213.47C14, 221.35 19.96, 227.56 27.04, 232.02C20.13, 243.76 16.01, 257.34 16.01, 271.99L16.01, 400C16.01, 426.47 37.54, 448 64.01, 448L80.01, 448C106.48, 448 128.01, 426.47 128.01, 400L128.01, 384L384, 384L384, 400C384, 426.47 405.53, 448 432, 448L448, 448C474.47, 448 496, 426.47 496, 400L496, 271.99C496, 257.33 491.88, 243.76 484.97, 232.01C492.06, 227.55 498.01, 221.33 501.97, 213.44L507.75, 201.88C513.99, 189.38 513.33, 174.83 505.99, 162.96zM128.2, 129.14C134.66, 109.32 153, 96 173.84, 96L338.17, 96C359.01, 96 377.35, 109.32 383.81, 129.13L404.28, 191.98L107.73, 191.98L128.2, 129.14zM38.67, 199.16L32.89, 187.57C31.08, 183.98 32.55, 180.93 33.23, 179.79C34.1, 178.37 36.17, 175.99 40.04, 175.99L79.28, 175.99L72.83, 195.81A80.69 80.69 0 0 0 49.82, 207.1C45.11, 206.1 40.88, 203.58 38.67, 199.16zM96.01, 400C96.01, 408.83 88.82, 416 80.01, 416L64.01, 416C55.2, 416 48.01, 408.83 48.01, 400L48.01, 384L96.01, 384L96.01, 400zM463.99, 400C463.99, 408.83 456.8, 416 447.99, 416L431.99, 416C423.18, 416 415.99, 408.83 415.99, 400L415.99, 384L463.99, 384L463.99, 400zM463.99, 319.99L463.99, 351.99L48.01, 351.99L48.01, 271.99C48.01, 245.52 69.54, 223.99 96.01, 223.99L415.99, 223.99C442.46, 223.99 463.99, 245.52 463.99, 271.99L463.99, 319.99zM479.11, 187.58L473.33, 199.13C471.12, 203.57 466.89, 206.1 462.18, 207.1C455.24, 202.2 447.49, 198.34 439.17, 195.81L432.72, 175.99L471.96, 175.99C475.83, 175.99 477.9, 178.37 478.77, 179.79C479.46, 180.93 480.93, 183.97 479.11, 187.58z" fill="#727272" fill-opacity="1" class="Black" />
  </g>
</svg>