<?xml version='1.0' encoding='UTF-8'?>
<svg viewBox="-2 0 32 32" xmlns="http://www.w3.org/2000/svg">
  <g transform="matrix(0.0625, 0, 0, 0.0625, 0, 0)">
    <path d="M48, 480L400, 480C426.5, 480 448, 458.5 448, 432L448, 80C448, 53.5 426.5, 32 400, 32L48, 32C21.5, 32 0, 53.5 0, 80L0, 432C0, 458.5 21.5, 480 48, 480zM32, 80C32, 71.2 39.2, 64 48, 64L400, 64C408.8, 64 416, 71.2 416, 80L416, 432C416, 440.8 408.8, 448 400, 448L48, 448C39.2, 448 32, 440.8 32, 432L32, 80zM128, 288L224, 192L320, 288L128, 288M320, 320C348.4, 320 362.8, 285.5 342.6, 265.4L246.6, 169.4C234.1, 156.9 213.8, 156.9 201.3, 169.4L105.3, 265.4C85.3, 285.5 99.5, 320 128, 320L320, 320z" fill="#727272" fill-opacity="1" class="Black" />
  </g>
</svg>