<?xml version='1.0' encoding='UTF-8'?>
<svg viewBox="-2 0 32 32" xmlns="http://www.w3.org/2000/svg">
  <g transform="matrix(0.0625, 0, 0, 0.0625, 0, 0)">
    <path d="M0, 80L0, 432C0, 458.5 21.5, 480 48, 480L400, 480C426.5, 480 448, 458.5 448, 432L448, 80C448, 53.5 426.5, 32 400, 32L48, 32C21.5, 32 0, 53.5 0, 80zM400, 64C408.8, 64 416, 71.2 416, 80L416, 432C416, 440.8 408.8, 448 400, 448L48, 448C39.2, 448 32, 440.8 32, 432L32, 80C32, 71.2 39.2, 64 48, 64L400, 64zM192, 160L288, 256L192, 352L192, 160M160, 352C160, 380.4 194.5, 394.8 214.6, 374.6L310.6, 278.6C323.1, 266.1 323.1, 245.8 310.6, 233.3L214.6, 137.3C194.5, 117.2 160, 131.4 160, 159.9L160, 352z" fill="#727272" fill-opacity="1" class="Black" />
  </g>
</svg>