<?xml version='1.0' encoding='UTF-8'?>
<svg viewBox="-1.9974 -2.0011 32 31.9975" xmlns="http://www.w3.org/2000/svg">
  <g transform="matrix(0.0547, 0, 0, 0.0547, 0, 0)">
    <path d="M504.6, 138.5C481.7, 110.9 451.2, 95.1 418.2, 93.7C416.6, 61.6 401.1, 30.3 373.5, 7.4C367.6, 2.5 360.4, 0 353.1, 0C345.9, 0 338.6, 2.5 332.7, 7.4C305.5, 30 289.6, 60.4 288.1, 93.2C287.4, 107.7 289.9, 121.9 294.7, 135.4C281.4, 131 267.9, 128.1 254.4, 128.1C206.4, 128.1 160.3, 154.9 137.8, 200.9L2.4, 478.3C-0.6, 484.5 -0.9, 492.1 2.4, 498.8C6.5, 507.1 14.8, 511.9 23.4, 511.9C26.8, 511.9 30.3, 511.1 33.6, 509.5L311.2, 374C336.2, 361.8 357.6, 341.4 370.8, 314.4C386.2, 282.9 387.5, 248.2 377.3, 217.3C389.1, 221.4 401.2, 223.9 413.7, 223.9C448.4, 223.9 480.7, 208 504.6, 179.2C514.5, 167.5 514.5, 150.3 504.6, 138.5zM342.1, 300.5C332.5, 320.2 316.9, 335.8 297.2, 345.4L172.4, 406.3C172, 405.8 171.8, 405.2 171.3, 404.7L139.3, 372.7C133.1, 366.5 122.9, 366.5 116.7, 372.7C110.5, 378.9 110.5, 389.1 116.7, 395.3L142.3, 420.9L42.1, 469.9L154, 240.6L180.7, 267.3C183.8, 270.4 187.9, 272 192, 272C196.1, 272 200.2, 270.4 203.3, 267.3C209.5, 261.1 209.5, 250.9 203.3, 244.7L171.3, 212.7C170.6, 212 169.6, 211.6 168.8, 211C185.9, 179.5 218.2, 160 254.4, 160C269.3, 160 283.6, 163.3 297.1, 169.9C320.5, 181.3 338.1, 201.2 346.6, 225.9C355.1, 250.6 353.5, 277 342.1, 300.5zM413.8, 192C392.3, 192 370.7, 183.1 353.2, 165.5L346.5, 158.8C309.3, 121.7 311.1, 66.8 353.1, 32C386.3, 59.5 394.6, 99.6 378.4, 133.6C389.6, 128.3 401.4, 125.6 413.3, 125.6C437.4, 125.6 461.6, 136.7 480, 158.9C461.7, 181 437.7, 192 413.8, 192z" fill="#727272" fill-opacity="1" class="Black" />
  </g>
</svg>