<?xml version='1.0' encoding='UTF-8'?>
<svg viewBox="-2 -4.7992 32 32" xmlns="http://www.w3.org/2000/svg">
  <g transform="matrix(0.9988, 0, 0, 0.9988, 0, 0)">
    <g transform="matrix(0.0438, 0, 0, 0.0438, 0, 0)">
      <path d="M241.85, 256L46.22, 256A14.24 14.24 0 0 1 32, 241.78L32, 186.67A42.72 42.72 0 0 1 74.67, 144L341.33, 144C341.62, 144 341.86, 144.16 342.14, 144.16C342.79, 144.16 343.41, 144 344.07, 144L402.21, 144A75.19 75.19 0 0 0 371.4, 118.44L355.52, 49.61A63.71 63.71 0 0 0 293.16, 0L120.07, 0A63.7 63.7 0 0 0 57.71, 49.61L41.43, 120.16C17, 132.44 0, 157.49 0, 186.67L0, 241.78A46.14 46.14 0 0 0 32, 285.53L32, 320A16 16 0 0 0 48, 336L64, 336A16 16 0 0 0 80, 320L80, 288L223.65, 288C227.96, 283.71 232.22, 279.35 237.29, 275.79zM88.89, 56.81A32 32 0 0 1 120.07, 32L293.16, 32A32 32 0 0 1 324.34, 56.81L337.07, 112L76.15, 112zM64, 196A20 20 0 1 0 84, 176A20 20 0 0 0 64, 196zM308, 352A20 20 0 1 0 328, 372A20 20 0 0 0 308, 352zM556, 352A20 20 0 1 0 576, 372A20 20 0 0 0 556, 352zM595.4, 294.44L579.52, 225.61A63.71 63.71 0 0 0 517.16, 176L344.07, 176A63.7 63.7 0 0 0 281.71, 225.61L265.43, 296.16C241, 308.44 224, 333.49 224, 362.67L224, 417.78A46.14 46.14 0 0 0 256, 461.53L256, 496A16 16 0 0 0 272, 512L288, 512A16 16 0 0 0 304, 496L304, 464L560, 464L560, 496A16 16 0 0 0 576, 512L592, 512A16 16 0 0 0 608, 496L608, 461.53A46.14 46.14 0 0 0 640, 417.78L640, 362.67A74.7 74.7 0 0 0 595.4, 294.44zM312.89, 232.81A32 32 0 0 1 344.07, 208L517.16, 208A32 32 0 0 1 548.34, 232.81L561.07, 288L300.15, 288zM608, 417.78A14.24 14.24 0 0 1 593.78, 432L270.22, 432A14.24 14.24 0 0 1 256, 417.78L256, 362.67A42.72 42.72 0 0 1 298.67, 320L565.33, 320A42.72 42.72 0 0 1 608, 362.67z" fill="#727272" fill-opacity="1" class="Black" />
    </g>
  </g>
</svg>