<?xml version='1.0' encoding='UTF-8'?>
<svg viewBox="-1.9998 -3.5563 31.9975 32" xmlns="http://www.w3.org/2000/svg">
  <g transform="matrix(0.0486, 0, 0, 0.0486, 0, 0)">
    <path d="M551.991, 64L129.28, 64L120.951, 19.577C118.822, 8.226 108.911, 0 97.362, 0L12, 0C5.373, 0 0, 5.373 0, 12L0, 20C0, 26.627 5.373, 32 12, 32L90.72, 32L160.647, 404.946C150.305, 416.314 144, 431.42 144, 448C144, 483.346 172.654, 512 208, 512C243.346, 512 272, 483.346 272, 448A63.681 63.681 0 0 0 263.417, 416L408.584, 416A63.681 63.681 0 0 0 400.001, 448C400.001, 483.346 428.655, 512 464.001, 512C499.347, 512 528.001, 483.346 528.001, 448C528.001, 430.007 520.566, 413.76 508.613, 402.132C506.022, 391.891 496.76, 384 485.328, 384L189.28, 384L177.28, 320L508.661, 320C520.029, 320 529.838, 312.024 532.157, 300.895L575.488, 92.895C578.592, 77.991 567.215, 64 551.991, 64zM240, 448C240, 465.645 225.645, 480 208, 480C190.355, 480 176, 465.645 176, 448C176, 430.355 190.355, 416 208, 416C225.645, 416 240, 430.355 240, 448zM464, 480C446.355, 480 432, 465.645 432, 448C432, 430.355 446.355, 416 464, 416C481.645, 416 496, 430.355 496, 448C496, 465.645 481.645, 480 464, 480zM502.156, 288L171.28, 288L135.28, 96L542.156, 96L502.156, 288zM395.515, 212.485L344.486, 263.514C339.8, 268.2 332.202, 268.2 327.515, 263.514L276.486, 212.485C268.926, 204.925 274.28, 192 284.971, 192L320, 192L320, 140C320, 133.373 325.373, 128 332, 128L340, 128C346.627, 128 352, 133.373 352, 140L352, 192L387.029, 192C397.72, 192 403.074, 204.926 395.515, 212.485z" fill="#727272" fill-opacity="1" class="Black" />
  </g>
</svg>