<?xml version='1.0' encoding='UTF-8'?>
<svg viewBox="-1.9998 -3.5563 31.9975 32" xmlns="http://www.w3.org/2000/svg">
  <g transform="matrix(0.0486, 0, 0, 0.0486, 0, 0)">
    <path d="M432, 128C423.16, 128 416, 135.16 416, 144C416, 152.84 423.16, 160 432, 160C440.84, 160 448, 152.84 448, 144C448, 135.16 440.84, 128 432, 128zM480, 144C480, 152.84 487.16, 160 496, 160C504.84, 160 512, 152.84 512, 144C512, 135.16 504.84, 128 496, 128C487.16, 128 480, 135.16 480, 144zM544.01, 0C534.69, 0 525.62, 4.08 519.42, 11.52L475.68, 64L452.32, 64L408.58, 11.51A32.024 32.024 0 0 0 383.99, 0C366.37, 0 352, 14.3 352, 32L352, 160L336, 160C232.18, 160 141.82, 218.53 96, 304.27L96, 176C96, 131.89 60.12, 96 16, 96C7.16, 96 0, 103.16 0, 112C0, 120.84 7.16, 128 16, 128C42.47, 128 64, 149.53 64, 176L64, 432C64, 476.11 99.88, 512 144, 512L352, 512C369.66, 512 384, 497.64 384, 480C384, 446.95 358.81, 419.67 326.62, 416.34L416, 376.63L416, 480C416, 497.64 430.34, 512 448, 512L480, 512C497.66, 512 512, 497.64 512, 480L512, 260.77C549.7, 242.72 576, 204.52 576, 160L576, 32C576, 14.3 561.63, 0 544.01, 0zM480, 480L448, 480L448, 327.38L303.19, 391.75C299.21, 352.75 273.16, 319.52 235.94, 306.86C231.61, 305.39 226.95, 308.2 225.84, 312.63L221.96, 328.18C220.93, 332.3 223.37, 336.27 227.35, 337.75A68.41 68.41 0 0 1 272, 401.97L272, 448L320, 448C337.66, 448 352, 462.36 352, 480L144, 480C117.53, 480 96, 458.47 96, 432C96, 299.66 203.66, 192 336, 192L357.22, 192C371.09, 238.1 413.44, 272 464, 272C469.48, 272 474.73, 271.15 480, 270.38L480, 480zM544, 160C544, 204.18 508.18, 240 464, 240C419.82, 240 384, 204.18 384, 160L384, 32L437.33, 96L490.66, 96L544, 32L544, 160z" fill="#727272" fill-opacity="1" class="Black" />
  </g>
</svg>