<?xml version='1.0' encoding='UTF-8'?>
<svg viewBox="-1.9998 -3.5561 31.9975 32" xmlns="http://www.w3.org/2000/svg">
  <g transform="matrix(0.0486, 0, 0, 0.0486, 0, 0)">
    <path d="M556.34, 243.12L515.91, 225.33A44.91 44.91 0 0 0 497.44, 156.08L149.8, 3.22A45.59 45.59 0 0 0 93.52, 22.83L6, 176A45.43 45.43 0 0 0 29.53, 241L189.68, 307.31L148.93, 416L32, 416L32, 360A8 8 0 0 0 24, 352L8, 352A8 8 0 0 0 0, 360L0, 504A8 8 0 0 0 8, 512L24, 512A8 8 0 0 0 32, 504L32, 448L160, 448A16 16 0 0 0 175, 437.63L219.25, 319.63L290.84, 349.27A45.33 45.33 0 0 0 330.39, 345.11L348.23, 333.96L489.23, 395.96C507.83, 404.16 526.23, 393.63 532.57, 379.11L573.25, 286.48A32.83 32.83 0 0 0 556.34, 243.12zM313.48, 317.92A13 13 0 0 1 302.42, 319.42L41.5, 211.35L40.84, 211.1C30.84, 207.45 30.94, 196.89 33.84, 191.88L121.3, 38.71C123.04, 35.71 129.3, 29.55 137.4, 32.71L485.06, 185.58A13.39 13.39 0 0 1 487.19, 209.35zM502.09, 366.61L381.09, 313.4L486.5, 247.51L543.93, 273.51z" fill="#727272" fill-opacity="1" class="Black" />
  </g>
</svg>