<?xml version='1.0' encoding='UTF-8'?>
<svg viewBox="-3.7495 -2 32 32" xmlns="http://www.w3.org/2000/svg">
  <g transform="matrix(0.0547, 0, 0, 0.0547, 0, 0)">
    <path d="M446.2, 341.5L424, 277.5C419.5, 264.6 407.4, 256 393.8, 256L384, 256L384, 128C384, 57.3 326.7, 0 256, 0L192, 0C121.3, 0 64, 57.3 64, 128L64, 256L54.2, 256C40.6, 256 28.4, 264.6 24, 277.5L1.8, 341.5C-5.4, 362.3 10, 384 32, 384L32, 504C32, 508.4 35.6, 512 40, 512L56, 512C60.4, 512 64, 508.4 64, 504L64, 384L384, 384L384, 504C384, 508.4 387.6, 512 392, 512L408, 512C412.4, 512 416, 508.4 416, 504L416, 384C438, 384 453.4, 362.3 446.2, 341.5zM288, 37.9C325.2, 51.1 352, 86.3 352, 128L352, 256L288, 256zM192, 32L256, 32L256, 256L192, 256zM96, 128C96, 86.3 122.8, 51.2 160, 37.9L160, 256L96, 256zM32, 352L54.2, 288L393.8, 288L416, 352z" fill="#727272" fill-opacity="1" class="Black" />
  </g>
</svg>