<?xml version='1.0' encoding='UTF-8'?>
<svg viewBox="-5.5003 -2 32 32" xmlns="http://www.w3.org/2000/svg">
  <g transform="matrix(0.0547, 0, 0, 0.0547, 0, 0)">
    <path d="M32, 240L32, 144C32, 135.16 24.84, 128 16, 128C7.16, 128 0, 135.16 0, 144L0, 240C0, 248.84 7.16, 256 16, 256C24.84, 256 32, 248.84 32, 240zM346.49, 287.03C340.1, 276.4 330.75, 268.36 320, 263.01L320, 64C320, 28.65 291.35, 0 256, 0L128, 0C92.65, 0 64, 28.65 64, 64L64, 263.01C53.25, 268.36 43.9, 276.4 37.51, 287.03L22.94, 311.27C3.71, 343.26 26.75, 384 64.07, 384L176, 384L176, 417.22C140.39, 422.63 111, 445.76 98.15, 476.85C91.74, 492.36 100.56, 511.99 113.17, 511.99L270.83, 511.99C283.44, 511.99 292.27, 492.36 285.85, 476.85C273, 445.77 243.61, 422.63 208, 417.22L208, 384L319.93, 384C357.26, 384 380.3, 343.26 361.07, 311.27L346.49, 287.03zM96, 64C96, 46.36 110.36, 32 128, 32L256, 32C273.64, 32 288, 46.36 288, 64L288, 256L96, 256L96, 64zM251.6, 480L132.4, 480C144.58, 460.53 167.36, 448 192, 448C216.64, 448 239.42, 460.53 251.6, 480zM333.85, 343.88C332.47, 346.32 328.35, 352 319.92, 352L64.07, 352C55.65, 352 51.53, 346.32 50.14, 343.88C48.76, 341.44 46.01, 334.98 50.35, 327.76L64.92, 303.52C70.69, 293.95 81.19, 288 92.36, 288L291.64, 288C302.81, 288 313.31, 293.95 319.07, 303.52L333.64, 327.76C337.98, 334.97 335.23, 341.44 333.85, 343.88zM368, 128C359.16, 128 352, 135.16 352, 144L352, 240C352, 248.84 359.16, 256 368, 256C376.84, 256 384, 248.84 384, 240L384, 144C384, 135.16 376.84, 128 368, 128z" fill="#727272" fill-opacity="1" class="Black" />
  </g>
</svg>