<?xml version='1.0' encoding='UTF-8'?>
<svg viewBox="-1.9998 -3.5563 31.9975 32" xmlns="http://www.w3.org/2000/svg">
  <g transform="matrix(0.0486, 0, 0, 0.0486, 0, 0)">
    <path d="M560, 128L544, 128L544, 80C544, 71.16 536.84, 64 528, 64C519.16, 64 512, 71.16 512, 80L512, 128L480, 128L480, 80C480, 71.16 472.84, 64 464, 64C455.16, 64 448, 71.16 448, 80L448, 128L432, 128C423.16, 128 416, 135.16 416, 144L416, 192C416, 230.7 443.48, 262.97 480, 270.39L480, 384C480, 401.64 465.66, 416 448, 416C430.34, 416 416, 401.64 416, 384L416, 336C416, 291.89 380.12, 256 336, 256L320, 256L320, 64C320, 28.65 291.35, 0 256, 0L96, 0C60.65, 0 32, 28.65 32, 64L32, 480L8, 480C3.58, 480 0, 483.58 0, 488L0, 504C0, 508.42 3.58, 512 8, 512L344, 512C348.42, 512 352, 508.42 352, 504L352, 488C352, 483.58 348.42, 480 344, 480L320, 480L320, 288L336, 288C362.47, 288 384, 309.53 384, 336L384, 384C384, 419.3 412.72, 448 448, 448C483.28, 448 512, 419.3 512, 384L512, 270.39C548.52, 262.98 576, 230.7 576, 192L576, 144C576, 135.16 568.84, 128 560, 128zM288, 480L64, 480L64, 64C64, 46.36 78.36, 32 96, 32L256, 32C273.64, 32 288, 46.36 288, 64L288, 480zM544, 192C544, 218.47 522.47, 240 496, 240C469.53, 240 448, 218.47 448, 192L448, 160L544, 160L544, 192zM240, 176L223.09, 176L238.97, 133.62C242.9, 123.13 235.13, 112 224, 112L144, 112C137.47, 112 131.56, 115.98 129.16, 122.06L97.16, 202.06C92.94, 212.59 100.72, 224 112, 224L131.5, 224L112.47, 300.12C108.58, 315.62 127.69, 326.88 139.31, 315.31L251.31, 203.31C261.35, 193.24 254.24, 176 240, 176zM157.53, 251.84L167.53, 211.87C170.06, 201.7 162.35, 192 152, 192L135.62, 192L154.84, 144L200.9, 144L185.02, 186.38C181.74, 195.13 186.48, 208 201.36, 208L157.53, 251.84z" fill="#727272" fill-opacity="1" class="Black" />
  </g>
</svg>