<?xml version='1.0' encoding='UTF-8'?>
<svg viewBox="-2 -1.9988 32 32" xmlns="http://www.w3.org/2000/svg">
  <g transform="matrix(0.0547, 0, 0, 0.0547, 0, 0)">
    <path d="M504, 416L32, 416L32, 72C32, 67.58 28.42, 64 24, 64L8, 64C3.58, 64 0, 67.58 0, 72L0, 432C0, 440.84 7.16, 448 16, 448L504, 448C508.42, 448 512, 444.42 512, 440L512, 424C512, 419.58 508.42, 416 504, 416zM182.45, 236.29C188.71, 242.49 198.8, 242.47 205.02, 236.24L289.65, 151.61L371.87, 233.83L327.16, 278.54C311.86, 293.84 322.7, 320 344.33, 320L463.8, 320C472.74, 320 479.99, 312.75 479.99, 303.81L479.99, 184.34C479.99, 169.7 468.01, 160 455.53, 160C449.56, 160 443.48, 162.21 438.53, 167.16L394.5, 211.2L300.97, 117.67C294.72, 111.42 284.59, 111.42 278.34, 117.67L193.65, 202.36L120.96, 130.35C117.84, 127.23 112.77, 127.23 109.65, 130.35L98.34, 141.66C95.22, 144.78 95.22, 149.85 98.34, 152.97L182.45, 236.29zM448, 202.96L448, 288L362.96, 288L448, 202.96z" fill="#727272" fill-opacity="1" class="Black" />
  </g>
</svg>