<?xml version='1.0' encoding='UTF-8'?>
<svg viewBox="-2 -1.9988 32 32" xmlns="http://www.w3.org/2000/svg">
  <g transform="matrix(0.0547, 0, 0, 0.0547, 0, 0)">
    <path d="M500, 416C506.6, 416 512, 421.4 512, 428L512, 436C512, 442.6 506.6, 448 500, 448L12, 448C5.4, 448 0, 442.6 0, 436L0, 76C0, 69.4 5.4, 64 12, 64L20, 64C26.6, 64 32, 69.4 32, 76L32, 416L500, 416zM372, 162L288, 216L201.5, 131.5C196.4, 126.4 188.1, 126.9 183.6, 132.5L64, 288L64, 384L480, 384L389.7, 167.3C386.7, 160.4 378.2, 157.9 372, 162zM96, 299.2L194.7, 167.9L284, 257.2L369.8, 200L431.5, 352L96, 352L96, 299.2z" fill="#727272" fill-opacity="1" class="Black" />
  </g>
</svg>