<?xml version='1.0' encoding='UTF-8'?>
<svg viewBox="-2 -2 32 32" xmlns="http://www.w3.org/2000/svg">
  <g transform="matrix(0.0547, 0, 0, 0.0547, 0, 0)">
    <path d="M461.29, 288L224, 288L224, 50.71C224, 41.88 216.82, 34.5 208.26, 34.5C207.57, 34.5 206.86, 34.55 206.15, 34.65C87.08, 51.47 -3.96, 155.43 0.13, 280.07C4.2, 404.1 107.91, 507.8 231.93, 511.87C234.62, 511.96 237.32, 512 240, 512C361.04, 512 460.89, 422.34 477.35, 305.84C478.68, 296.39 470.83, 288 461.29, 288zM240, 480C237.67, 480 235.32, 479.96 232.98, 479.88C125.74, 476.36 35.63, 386.25 32.11, 279.01C28.84, 179.02 96.45, 92.23 192, 69.83L192, 320L442.15, 320C420.27, 412.43 336.49, 480 240, 480zM288.8, 0.04C288.45, 0.01 288.1, 0 287.76, 0C279.1, 0 272, 7.44 272, 16.23L272, 240L495.77, 240C504.91, 240 512.59, 232.31 511.97, 223.2C503.72, 103.74 408.26, 8.28 288.8, 0.04zM304, 208L304, 33.9C393.25, 47.71 464.28, 118.75 478.1, 208L304, 208z" fill="#727272" fill-opacity="1" class="Black" />
  </g>
</svg>