<?xml version='1.0' encoding='UTF-8'?>
<svg viewBox="-2 -0.0014 32 32" xmlns="http://www.w3.org/2000/svg">
  <g transform="matrix(0.0625, 0, 0, 0.0625, 0, 0)">
    <path d="M444.96, 159L432.8, 148C430.77, 145.33 428.08, 144 424.69, 144C421.3, 144 418.61, 145.33 416.58, 148L131.77, 428L31.42, 329C29.39, 326.33 26.7, 325 23.31, 325C19.92, 325 17.23, 326.33 15.2, 329L3.04, 340C1.01, 342.67 0, 345.67 0, 349C0, 352.33 1.01, 355 3.04, 357L123.66, 476C126.35, 478.67 129.23, 480 132.28, 480C135.33, 480 138.2, 478.67 140.9, 476L444.97, 176C447, 174 448.01, 171.33 448.01, 168C448.01, 164.67 446.99, 161.67 444.96, 159zM127.17, 284.03C129.82, 286.68 132.65, 288 135.64, 288C138.63, 288 141.46, 286.68 144.11, 284.03L365.01, 63.8C367, 61.8 368, 59.15 368, 55.84C368, 52.53 367, 49.55 365.01, 46.9L353.05, 35.97C351.06, 33.32 348.41, 32 345.08, 32C341.75, 32 339.1, 33.32 337.11, 35.97L135.14, 236.34L62.89, 164.31C60.9, 161.66 58.25, 160.34 54.92, 160.34C51.59, 160.34 48.94, 161.66 46.95, 164.31L34.99, 175.24C33, 177.89 32, 180.87 32, 184.18C32, 187.49 33, 190.14 34.99, 192.13L127.17, 284.03z" fill="#727272" fill-opacity="1" class="Black" />
  </g>
</svg>