<?xml version='1.0' encoding='UTF-8'?>
<svg viewBox="-2 -1.9988 32 32" xmlns="http://www.w3.org/2000/svg">
  <g transform="matrix(0.0547, 0, 0, 0.0547, 0, 0)">
    <path d="M176, 319.9A48 48 0 1 0 224, 367.9A48 48 0 0 0 176, 319.9zM176, 383.9A16 16 0 1 1 192, 367.9A16 16 0 0 1 176, 383.94zM299.83, 32L298.34, 32A32.27 32.27 0 0 0 278.7, 39L0, 255.87L0, 448A32 32 0 0 0 32, 480L480, 480A32 32 0 0 0 512, 448L512, 255.87C512, 136.05 418, 38.2 299.83, 32zM240, 127.79A16 16 0 1 1 224, 143.79A16 16 0 0 1 240, 127.79zM480, 448L32, 448L32, 287.89L322.94, 287.89A47.72 47.72 0 0 0 413.06, 287.89L480, 287.89zM352, 271.88A16 16 0 1 1 368, 287.88A16 16 0 0 1 352, 271.88zM413.06, 255.88A47.72 47.72 0 0 0 322.94, 255.88L52.13, 255.88L192.3, 146.88A47.89 47.89 0 1 0 254.68, 98.3L298.68, 64.04C400.42, 69.62 480, 153.78 480, 255.87z" fill="#727272" fill-opacity="1" class="Black" />
  </g>
</svg>