<?xml version='1.0' encoding='UTF-8'?>
<svg viewBox="-2 -1.9988 32 32" xmlns="http://www.w3.org/2000/svg">
  <g transform="matrix(0.0547, 0, 0, 0.0547, 0, 0)">
    <path d="M299.83, 32L298.34, 32A32.27 32.27 0 0 0 278.7, 39L0, 255.87L0, 448A32 32 0 0 0 32, 480L480, 480A32 32 0 0 0 512, 448L512, 255.87C512, 136.05 418, 38.2 299.83, 32zM480, 448L32, 448L32, 287.89L480, 287.89zM52.13, 255.87L298.72, 64C400.42, 69.62 480, 153.78 480, 255.87z" fill="#727272" fill-opacity="1" class="Black" />
  </g>
</svg>