<?xml version='1.0' encoding='UTF-8'?>
<svg viewBox="-8.5335 -0.1315 32 31.9975" xmlns="http://www.w3.org/2000/svg">
  <g transform="matrix(0.0583, 0, 0, 0.0583, 0, 0)">
    <path d="M247.16, 435.58L224, 424L224, 408A24 24 0 0 0 200, 384L201.41, 384A519 519 0 0 1 192.1, 288L216, 288A8 8 0 0 0 224, 280L224, 264A8 8 0 0 0 216, 256L206.79, 256C226.42, 234.64 223.85, 204.25 223.85, 203.39C223.85, 153.99 187.41, 85.91 153.26, 64L152.16, 64A16 16 0 0 0 152.16, 32L104.16, 32A16 16 0 0 0 104.16, 64L103.09, 64C68.79, 86 32.35, 154.34 32.35, 203.48C32.35, 204.18 29.8, 234.57 49.45, 256L40, 256A8 8 0 0 0 32, 264L32, 280A8 8 0 0 0 40, 288L63.9, 288A519 519 0 0 1 54.59, 384L56, 384A24 24 0 0 0 32, 408L32, 424L8.85, 435.58A16 16 0 0 0 0, 449.89L0, 496A16 16 0 0 0 16, 512L240, 512A16 16 0 0 0 256, 496L256, 449.89A16 16 0 0 0 247.16, 435.58zM128.16, 88.89C134.75, 88.89 149.85, 99.97 165.75, 126.03L121.07, 172.37A6.46 6.46 0 0 0 121.07, 181.19L135.16, 195.8A5.92 5.92 0 0 0 143.66, 195.8L181.16, 156.91C187.85, 173.83 191.85, 190.52 191.85, 203.48C191.85, 237.9 172.75, 240.3 160.16, 244.03L160.16, 256.03L96.16, 256.03L96.16, 244C83.75, 240.37 64.47, 238 64.47, 203.45C64.47, 157.76 108.16, 88.89 128.16, 88.89zM168.84, 384L87.16, 384A552.7 552.7 0 0 0 95.91, 288L160.09, 288A552.7 552.7 0 0 0 168.84, 384zM224, 480L32, 480L32, 459.78L64, 443.78L64, 416L192, 416L192, 443.78L224, 459.78z" fill="#727272" fill-opacity="1" class="Black" />
  </g>
</svg>