<?xml version='1.0' encoding='UTF-8'?>
<svg viewBox="-6 2 32 32" xmlns="http://www.w3.org/2000/svg">
  <g transform="matrix(0.0625, 0, 0, 0.0625, 0, 0)">
    <path d="M311.16, 427.58L288, 416L288, 400A16 16 0 0 0 272, 384L271.61, 384L264.34, 238.69L294.76, 207.91A32 32 0 0 0 304, 185.42L304, 88A24.07 24.07 0 0 0 280, 64L40, 64A24.07 24.07 0 0 0 16, 88L16, 185.52A32 32 0 0 0 25.27, 208L55.66, 238.68L48.39, 384L48, 384A16 16 0 0 0 32, 400L32, 416L8.85, 427.58A16 16 0 0 0 0, 441.89L0, 496A16 16 0 0 0 16, 512L304, 512A16 16 0 0 0 320, 496L320, 441.89A16 16 0 0 0 311.16, 427.58zM48, 185.5L48, 96L96, 96L96, 144L128, 144L128, 96L192, 96L192, 144L224, 144L224, 96L272, 96L272, 185.44L231.66, 226.19L239.59, 384L80.41, 384L88.34, 226.22zM288, 480L32, 480L32, 451.78L46.31, 444.62L64, 435.78L64, 416L256, 416L256, 435.78L273.69, 444.62L288, 451.78zM183.59, 231.59A23.59 23.59 0 0 0 136.41, 231.59L136.41, 278.77L183.59, 278.77z" fill="#727272" fill-opacity="1" class="Black" />
  </g>
</svg>