<?xml version='1.0' encoding='UTF-8'?>
<svg viewBox="-4.8003 -0.1315 32 31.9975" xmlns="http://www.w3.org/2000/svg">
  <g transform="matrix(0.0583, 0, 0, 0.0583, 0, 0)">
    <path d="M376, 480L8, 480A8 8 0 0 0 0, 488L0, 504A8 8 0 0 0 8, 512L376, 512A8 8 0 0 0 384, 504L384, 488A8 8 0 0 0 376, 480zM352, 32L32, 32A32 32 0 0 0 0, 64L0, 231.34L56, 279.34C56, 322 57.57, 372.73 45.35, 448L77.82, 448C89.44, 373.48 88, 326.59 88, 264.66L32, 216.66L32, 64L112, 64L112.09, 128L144.09, 128L144.09, 64L240, 64L240, 128L272, 128L272, 64L352, 64L352, 216.66L296, 264.66C296, 327.29 294.59, 373.66 306.18, 448L338.65, 448C326.43, 372.77 328, 322.05 328, 279.34L384, 231.34L384, 64A32 32 0 0 0 352, 32zM192, 192A48.05 48.05 0 0 0 144, 240L144, 320L240, 320L240, 240A48.05 48.05 0 0 0 192, 192zM208, 288L176, 288L176, 240A16 16 0 0 1 208, 240z" fill="#727272" fill-opacity="1" class="Black" />
  </g>
</svg>