<?xml version='1.0' encoding='UTF-8'?>
<svg viewBox="-2 -2 32 32" xmlns="http://www.w3.org/2000/svg">
  <g transform="matrix(0.0547, 0, 0, 0.0547, 0, 0)">
    <path d="M256, 112A56 56 0 1 0 200, 56A56 56 0 0 0 256, 112zM256, 32A24 24 0 1 1 232, 56A24 24 0 0 1 256, 32zM440, 480L72, 480A8 8 0 0 0 64, 488L64, 504A8 8 0 0 0 72, 512L440, 512A8 8 0 0 0 448, 504L448, 488A8 8 0 0 0 440, 480zM504.87, 184.16L476.36, 168.24A15.09 15.09 0 0 0 467.91, 165.65A17.59 17.59 0 0 0 454.07, 172.92A47.48 47.48 0 0 1 416, 192A50.79 50.79 0 0 1 406.84, 191.15C383.7, 186.86 368, 164.93 368, 141.4A13.4 13.4 0 0 0 354.6, 128L315.83, 128C309.83, 128 304.22, 132 302.97, 137.91A48 48 0 0 1 209.03, 137.91C207.78, 131.99 202.21, 128 196.17, 128L157.4, 128A13.4 13.4 0 0 0 144, 141.4C144, 167.09 125, 190.15 99.33, 191.89C98.21, 191.96 97.1, 192 96, 192A47.47 47.47 0 0 1 57.79, 172.74A17.17 17.17 0 0 0 44.18, 165.61A15.16 15.16 0 0 0 35.7, 168.2L7.13, 184.2A16 16 0 0 0 1.69, 204.67L117.45, 448L152.88, 448L36.88, 204.18L41, 201.91A78.8 78.8 0 0 0 96, 224C97.81, 224 99.65, 223.94 101.49, 223.81C137.12, 221.4 166.17, 194.71 173.95, 160L182.68, 160A80 80 0 0 0 329.32, 160L338, 160C344.95, 191.66 369.32, 216.74 401, 222.61A82.66 82.66 0 0 0 416, 224A78.81 78.81 0 0 0 471, 201.91L475.07, 204.18L359.11, 448L394.55, 448L510.31, 204.63A16 16 0 0 0 504.87, 184.16z" fill="#727272" fill-opacity="1" class="Black" />
  </g>
</svg>