<?xml version='1.0' encoding='UTF-8'?>
<svg viewBox="-4.8003 -0.1315 32 31.9975" xmlns="http://www.w3.org/2000/svg">
  <g transform="matrix(0.0583, 0, 0, 0.0583, 0, 0)">
    <path d="M35.48, 301.64C73.48, 318.54 72.27, 318.11 75.87, 319.32A100.72 100.72 0 0 0 32, 402.82L32, 448L64, 448L64, 402.82A69.35 69.35 0 0 1 102.31, 340.82L144.62, 316A41.62 41.62 0 0 0 167.62, 278.79L167.62, 216.54L151.46, 226.13A20.8 20.8 0 0 0 140.59, 239.69L132.59, 266.26A27.75 27.75 0 0 1 116.32, 284L105.24, 288.43A27.68 27.68 0 0 1 83.68, 288.02L48.48, 272.4A27.74 27.74 0 0 1 32, 247.05L32, 128.05C32, 117.65 38.44, 112.99 45.86, 105.56L33.55, 81C28.88, 71.67 35.18, 64 42.4, 64L128, 64C234, 64 320, 150 320, 256L320, 448L352, 448L352, 256C352, 132.49 251.51, 32 128, 32L42.4, 32A42.45 42.45 0 0 0 0, 74.4A46.92 46.92 0 0 0 4.94, 95.3L7.63, 100.69A52.56 52.56 0 0 0 0, 128.09L0, 247.09A59.8 59.8 0 0 0 35.48, 301.64zM64, 164A20 20 0 1 0 84, 144A20 20 0 0 0 64, 164zM376, 480L8, 480A8 8 0 0 0 0, 488L0, 504A8 8 0 0 0 8, 512L376, 512A8 8 0 0 0 384, 504L384, 488A8 8 0 0 0 376, 480z" fill="#727272" fill-opacity="1" class="Black" />
  </g>
</svg>