<?xml version='1.0' encoding='UTF-8'?>
<svg viewBox="-7.2486 -2 32 32" xmlns="http://www.w3.org/2000/svg">
  <g transform="matrix(0.0547, 0, 0, 0.0547, 0, 0)">
    <path d="M295.16, 435.58L272, 424L272, 408A24 24 0 0 0 248, 384L234.91, 384A469.21 469.21 0 0 1 224, 284.53L224, 256L248, 256A8 8 0 0 0 256, 248L256, 232A8 8 0 0 0 248, 224L231.1, 224L262.91, 139.22A32 32 0 0 0 232.91, 96L176, 96L176, 64L200, 64A8 8 0 0 0 208, 56L208, 40A8 8 0 0 0 200, 32L176, 32L176, 8A8 8 0 0 0 168, 0L152, 0A8 8 0 0 0 144, 8L144, 32L120, 32A8 8 0 0 0 112, 40L112, 56A8 8 0 0 0 120, 64L144, 64L144, 96L87.09, 96A32 32 0 0 0 57.09, 139.25L88.91, 224L72, 224A8 8 0 0 0 64, 232L64, 248A8 8 0 0 0 72, 256L96, 256L96, 284.53A469.21 469.21 0 0 1 85.09, 384L72, 384A24 24 0 0 0 48, 408L48, 424L24.85, 435.58A16 16 0 0 0 16, 449.89L16, 496A16 16 0 0 0 32, 512L288, 512A16 16 0 0 0 304, 496L304, 449.89A16 16 0 0 0 295.16, 435.58zM87.09, 128L232.94, 128L196.94, 224L123.09, 224zM128, 284.53L128, 256L192, 256L192, 284.53A500.84 500.84 0 0 0 202.1, 384L117.9, 384A500.84 500.84 0 0 0 128, 284.53zM272, 480L48, 480L48, 459.78L80, 443.78L80, 416L240, 416L240, 443.78L272, 459.78z" fill="#727272" fill-opacity="1" class="Black" />
  </g>
</svg>