<?xml version='1.0' encoding='UTF-8'?>
<svg viewBox="-7.2499 -2 32 32" xmlns="http://www.w3.org/2000/svg">
  <g transform="matrix(0.0547, 0, 0, 0.0547, 0, 0)">
    <path d="M64, 400L64, 448L96, 448L96, 376.59L73.69, 369.5C53.54, 363.1 32, 342.52 32, 304C32, 245.71 86.72, 141.33 131.6, 96L188.4, 96C207.69, 115.48 228.59, 146 246.4, 179L162.4, 263A8 8 0 0 0 162.4, 274.32L173.71, 285.63A8 8 0 0 0 185.03, 285.63L261.46, 209.19C277.09, 243.77 288, 278.35 288, 304C288, 342.52 266.46, 363.1 246.31, 369.5L224, 376.59L224, 448L256, 448L256, 400C289.86, 389.24 320, 355.64 320, 304C320, 231.36 253.57, 109.43 201, 64L119, 64C66.43, 109.43 0, 231.36 0, 304C0, 355.64 30.14, 389.24 64, 400zM312, 480L8, 480A8 8 0 0 0 0, 488L0, 504A8 8 0 0 0 8, 512L312, 512A8 8 0 0 0 320, 504L320, 488A8 8 0 0 0 312, 480zM112, 32L208, 32A16 16 0 0 0 208, 0L112, 0A16 16 0 0 0 112, 32z" fill="#727272" fill-opacity="1" class="Black" />
  </g>
</svg>