<?xml version='1.0' encoding='UTF-8'?>
<svg viewBox="-3.9446 0.0685 31.9975 32" xmlns="http://www.w3.org/2000/svg">
  <g transform="matrix(0.9992, 0, 0, 0.9992, 0, 0)">
    <g transform="matrix(0.0628, 0, 0, 0.0628, 0, 0)">
      <path d="M34.5, 36.5L245.6, 247.5C250.3, 252.2 250.3, 259.8 245.6, 264.5L34.5, 475.5C29.8, 480.2 22.2, 480.2 17.5, 475.5L10.4, 468.4C5.7, 463.7 5.7, 456.1 10.4, 451.4L205.9, 256L10.5, 60.5C5.8, 55.8 5.8, 48.2 10.5, 43.5L17.6, 36.4C22.2, 31.8 29.8, 31.8 34.5, 36.5zM145.5, 36.5L138.4, 43.6C133.7, 48.3 133.7, 55.9 138.4, 60.6L333.9, 256L138.5, 451.5C133.8, 456.2 133.8, 463.8 138.5, 468.5L145.6, 475.6C150.3, 480.3 157.9, 480.3 162.6, 475.6L373.7, 264.6C378.4, 259.9 378.4, 252.3 373.7, 247.6L162.6, 36.6C157.8, 31.8 150.2, 31.8 145.5, 36.5z" fill="#727272" fill-opacity="1" class="Black" />
    </g>
  </g>
</svg>