<?xml version='1.0' encoding='UTF-8'?>
<svg viewBox="-1.94 0.0658 32 32" xmlns="http://www.w3.org/2000/svg">
  <g transform="matrix(0.9992, 0, 0, 0.9992, 0, 0)">
    <g transform="matrix(0.0628, 0, 0, 0.0628, 0, 0)">
      <path d="M4.5, 413.5L215.5, 202.4C220.2, 197.7 227.8, 197.7 232.5, 202.4L443.5, 413.5C448.2, 418.2 448.2, 425.8 443.5, 430.5L436.4, 437.6C431.7, 442.3 424.1, 442.3 419.4, 437.6L224, 242.1L28.5, 437.5C23.8, 442.2 16.2, 442.2 11.5, 437.5L4.4, 430.4C-0.2, 425.8 -0.2, 418.2 4.5, 413.5zM4.5, 302.5L11.6, 309.6C16.3, 314.3 23.9, 314.3 28.6, 309.6L224, 114.1L419.5, 309.6C424.2, 314.3 431.8, 314.3 436.5, 309.6L443.6, 302.5C448.3, 297.8 448.3, 290.2 443.6, 285.5L232.6, 74.4C227.9, 69.7 220.3, 69.7 215.6, 74.4L4.5, 285.5C-0.2, 290.2 -0.2, 297.8 4.5, 302.5z" fill="#727272" fill-opacity="1" class="Black" />
    </g>
  </g>
</svg>