<?xml version='1.0' encoding='UTF-8'?>
<svg viewBox="-1.5477 -1.5477 32 32" xmlns="http://www.w3.org/2000/svg">
  <g transform="matrix(0.9991, 0, 0, 0.9991, 0, 0)">
    <g transform="matrix(0.0565, 0, 0, 0.0565, 0, 0)">
      <path d="M256, 504C393, 504 504, 393 504, 256C504, 119 393, 8 256, 8C119, 8 8, 119 8, 256C8, 393 119, 504 256, 504zM40, 256C40, 137.3 136.1, 40 256, 40C374.7, 40 472, 136.1 472, 256C472, 374.7 375.9, 472 256, 472C137.3, 472 40, 375.9 40, 256zM264.5, 169.4L379.5, 284.5C384.2, 289.2 384.2, 296.8 379.5, 301.5L372.4, 308.6C367.7, 313.3 360.1, 313.3 355.4, 308.6L256, 209L156.5, 308.5C151.8, 313.2 144.2, 313.2 139.5, 308.5L132.4, 301.4C127.7, 296.7 127.7, 289.1 132.4, 284.4L247.4, 169.3C252.2, 164.7 259.8, 164.7 264.5, 169.4z" fill="#727272" fill-opacity="1" class="Black" />
    </g>
  </g>
</svg>