<?xml version='1.0' encoding='UTF-8'?>
<svg viewBox="-2 0 32 32" xmlns="http://www.w3.org/2000/svg">
  <g transform="matrix(0.0625, 0, 0, 0.0625, 0, 0)">
    <path d="M0, 80L0, 432C0, 458.5 21.5, 480 48, 480L400, 480C426.5, 480 448, 458.5 448, 432L448, 80C448, 53.5 426.5, 32 400, 32L48, 32C21.5, 32 0, 53.5 0, 80zM400, 64C408.8, 64 416, 71.2 416, 80L416, 432C416, 440.8 408.8, 448 400, 448L48, 448C39.2, 448 32, 440.8 32, 432L32, 80C32, 71.2 39.2, 64 48, 64L400, 64zM303.6, 264.5L188.5, 379.5C183.8, 384.2 176.2, 384.2 171.5, 379.5L164.4, 372.4C159.7, 367.7 159.7, 360.1 164.4, 355.4L264, 256L164.5, 156.5C159.8, 151.8 159.8, 144.2 164.5, 139.5L171.6, 132.4C176.3, 127.7 183.9, 127.7 188.6, 132.4L303.7, 247.4C308.2, 252.2 308.2, 259.8 303.6, 264.5z" fill="#727272" fill-opacity="1" class="Black" />
  </g>
</svg>