<?xml version='1.0' encoding='UTF-8'?>
<svg viewBox="-3.9524 0.0661 32 31.9975" xmlns="http://www.w3.org/2000/svg">
  <g transform="matrix(0.9993, 0, 0, 0.9993, 0, 0)">
    <g transform="matrix(0.0628, 0, 0, 0.0628, 0, 0)">
      <path d="M349.5, 475.5L138.4, 264.5C133.7, 259.8 133.7, 252.2 138.4, 247.5L349.5, 36.5C354.2, 31.8 361.8, 31.8 366.5, 36.5L373.6, 43.6C378.3, 48.3 378.3, 55.9 373.6, 60.6L178.1, 256L373.6, 451.5C378.3, 456.2 378.3, 463.8 373.6, 468.5L366.5, 475.6C361.8, 480.2 354.2, 480.2 349.5, 475.5zM238.5, 475.5L245.6, 468.4C250.3, 463.7 250.3, 456.1 245.6, 451.4L50.1, 256L245.5, 60.5C250.2, 55.8 250.2, 48.2 245.5, 43.5L238.4, 36.4C233.7, 31.7 226.1, 31.7 221.4, 36.4L10.3, 247.4C5.6, 252.1 5.6, 259.7 10.3, 264.4L221.4, 475.4C226.2, 480.2 233.8, 480.2 238.5, 475.5z" fill="#727272" fill-opacity="1" class="Black" />
    </g>
  </g>
</svg>