<?xml version='1.0' encoding='UTF-8'?>
<svg viewBox="-3.7483 -2 32 32" xmlns="http://www.w3.org/2000/svg">
  <g transform="matrix(0.0547, 0, 0, 0.0547, 0, 0)">
    <path d="M413.287, 90.746C389.577, 67.039 349.955, 63.534 319.969, 93.522C318.651, 41.725 276.107, 0 224, 0C171.896, 0 129.353, 41.729 128.031, 93.521C97.944, 63.434 58.32, 67.142 34.715, 90.743C9.761, 115.699 9.761, 156.301 34.713, 181.254L112, 258.511L112, 456C112, 486.879 137.122, 512 168, 512L184, 512C199.654, 512 213.828, 505.544 224, 495.154C234.172, 505.544 248.346, 512 264, 512L280, 512C310.878, 512 336, 486.879 336, 456L336, 258.511L413.286, 181.255C438.238, 156.301 438.238, 115.699 413.287, 90.746zM224, 32C259.346, 32 288, 60.654 288, 96C288, 131.346 259.346, 160 224, 160C188.654, 160 160, 131.346 160, 96C160, 60.654 188.654, 32 224, 32zM390.628, 158.628L304, 245.256L304, 456C304, 469.255 293.255, 480 280, 480L264, 480C250.745, 480 240, 469.255 240, 456L240, 344L208, 344L208, 456C208, 469.255 197.255, 480 184, 480L168, 480C154.745, 480 144, 469.255 144, 456L144, 245.256L57.372, 158.628C44.876, 146.131 44.876, 125.869 57.372, 113.372C69.87, 100.876 90.129, 100.875 102.628, 113.372L181.256, 192L266.744, 192L345.372, 113.372C357.87, 100.876 378.129, 100.875 390.628, 113.372C403.124, 125.869 403.124, 146.131 390.628, 158.628z" fill="#727272" fill-opacity="1" class="Black" />
  </g>
</svg>