<?xml version='1.0' encoding='UTF-8'?>
<svg viewBox="-1.9998 -3.5563 31.9975 32" xmlns="http://www.w3.org/2000/svg">
  <g transform="matrix(0.0486, 0, 0, 0.0486, 0, 0)">
    <path d="M281.71, 320.3C248.43, 323.47 224, 353.32 224, 386.75L224, 504C224, 508.42 227.58, 512 232, 512L248, 512C252.42, 512 256, 508.42 256, 504L256, 385.8C256, 369.85 266.86, 355.04 282.59, 352.44C302.61, 349.15 320, 364.58 320, 384L320, 504C320, 508.42 323.58, 512 328, 512L344, 512C348.42, 512 352, 508.42 352, 504L352, 384C352, 346.58 319.88, 316.66 281.71, 320.3zM558.57, 355.99L448, 303.26L448, 274.12C448, 262.88 442.1, 252.46 432.46, 246.68L304, 169.6L304, 96L376, 96C380.42, 96 384, 92.42 384, 88L384, 72C384, 67.58 380.42, 64 376, 64L304, 64L304, 8C304, 3.58 300.42, 0 296, 0L280, 0C275.58, 0 272, 3.58 272, 8L272, 64L200, 64C195.58, 64 192, 67.58 192, 72L192, 88C192, 92.42 195.58, 96 200, 96L272, 96L272, 169.6L143.54, 246.68A31.997 31.997 0 0 0 128, 274.12L128, 303.27L17.43, 355.99C6.96, 360.99 0, 373.89 0, 388.32L0, 504C0, 508.42 3.58, 512 8, 512L24, 512C28.42, 512 32, 508.42 32, 504L32, 388.32C32, 386.34 32.45, 384.9 32.8, 384.11L128, 338.71L128, 504C128, 508.42 131.58, 512 136, 512L152, 512C156.42, 512 160, 508.42 160, 504L160, 274.12L288, 197.32L416, 274.12L416, 504C416, 508.42 419.58, 512 424, 512L440, 512C444.42, 512 448, 508.42 448, 504L448, 338.71L543.2, 384.11C543.55, 384.89 544, 386.33 544, 388.32L544, 504C544, 508.42 547.58, 512 552, 512L568, 512C572.42, 512 576, 508.42 576, 504L576, 388.32C576, 373.89 569.04, 360.99 558.57, 355.99z" fill="#727272" fill-opacity="1" class="Black" />
  </g>
</svg>