<?xml version='1.0' encoding='UTF-8'?>
<svg viewBox="-1.9999 -4.8004 32 32" xmlns="http://www.w3.org/2000/svg">
  <g transform="matrix(1.0011, 0, 0, 1.0011, 0, 0)">
    <g transform="matrix(0.0437, 0, 0, 0.0437, 0, 0)">
      <path d="M132, 368L92, 368C85.38, 368 80, 373.37 80, 380L80, 420C80, 426.63 85.38, 432 92, 432L132, 432C138.62, 432 144, 426.63 144, 420L144, 380C144, 373.37 138.62, 368 132, 368zM132, 272L92, 272C85.38, 272 80, 277.37 80, 284L80, 324C80, 330.63 85.38, 336 92, 336L132, 336C138.62, 336 144, 330.63 144, 324L144, 284C144, 277.37 138.62, 272 132, 272zM132, 176L92, 176C85.38, 176 80, 181.37 80, 188L80, 228C80, 234.63 85.38, 240 92, 240L132, 240C138.62, 240 144, 234.63 144, 228L144, 188C144, 181.37 138.62, 176 132, 176zM228, 368L188, 368C181.38, 368 176, 373.37 176, 380L176, 420C176, 426.63 181.38, 432 188, 432L228, 432C234.62, 432 240, 426.63 240, 420L240, 380C240, 373.37 234.62, 368 228, 368zM228, 272L188, 272C181.38, 272 176, 277.37 176, 284L176, 324C176, 330.63 181.38, 336 188, 336L228, 336C234.62, 336 240, 330.63 240, 324L240, 284C240, 277.37 234.62, 272 228, 272zM228, 176L188, 176C181.38, 176 176, 181.37 176, 188L176, 228C176, 234.63 181.38, 240 188, 240L228, 240C234.62, 240 240, 234.63 240, 228L240, 188C240, 181.37 234.62, 176 228, 176zM420, 272L380, 272C373.38, 272 368, 277.37 368, 284L368, 324C368, 330.63 373.38, 336 380, 336L420, 336C426.62, 336 432, 330.63 432, 324L432, 284C432, 277.37 426.62, 272 420, 272zM420, 176L380, 176C373.38, 176 368, 181.37 368, 188L368, 228C368, 234.63 373.38, 240 380, 240L420, 240C426.62, 240 432, 234.63 432, 228L432, 188C432, 181.37 426.62, 176 420, 176zM420, 80L380, 80C373.38, 80 368, 85.37 368, 92L368, 132C368, 138.63 373.38, 144 380, 144L420, 144C426.62, 144 432, 138.63 432, 132L432, 92C432, 85.37 426.62, 80 420, 80zM548, 368L508, 368C501.38, 368 496, 373.37 496, 380L496, 420C496, 426.63 501.38, 432 508, 432L548, 432C554.62, 432 560, 426.63 560, 420L560, 380C560, 373.37 554.62, 368 548, 368zM548, 272L508, 272C501.38, 272 496, 277.37 496, 284L496, 324C496, 330.63 501.38, 336 508, 336L548, 336C554.62, 336 560, 330.63 560, 324L560, 284C560, 277.37 554.62, 272 548, 272zM616, 192L512, 192L512, 24C512, 10.74 501.25, 0 488, 0L312, 0C298.75, 0 288, 10.74 288, 24L288, 96L224, 96L224, 8C224, 3.58 220.42, 0 216, 0L200, 0C195.58, 0 192, 3.58 192, 8L192, 96L128, 96L128, 8C128, 3.58 124.42, 0 120, 0L104, 0C99.58, 0 96, 3.58 96, 8L96, 96L24, 96C10.75, 96 0, 106.74 0, 120L0, 504C0, 508.42 3.58, 512 8, 512L24, 512C28.42, 512 32, 508.42 32, 504L32, 128L320, 128L320, 32L480, 32L480, 224L608, 224L608, 504C608, 508.42 611.58, 512 616, 512L632, 512C636.42, 512 640, 508.42 640, 504L640, 216C640, 202.74 629.25, 192 616, 192z" fill="#727272" fill-opacity="1" class="Black" />
    </g>
  </g>
</svg>