<?xml version='1.0' encoding='UTF-8'?>
<svg viewBox="-1.9975 -1.995 32 32" xmlns="http://www.w3.org/2000/svg">
  <g transform="matrix(0.0547, 0, 0, 0.0547, 0, 0)">
    <path d="M509.64, 477.53L508.17, 474.41C463.56, 378.88 328.12, 141.69 34.58, 2.4C23.83, -2.71 11.46, 0.54 4.58, 10.26C-2.36, 20.1 -1.26, 32.95 7.27, 41.49L175.71, 209.84C176.15, 210.9 176.12, 214.65 176.05, 220.09L176.05, 271.98L231.94, 271.98C235.63, 271.98 239.22, 273.48 241.63, 275.88L316.71, 353.39C319.33, 356.03 320.8, 359.54 320.8, 362.93L319.68, 416.32L372.7, 415.18C376.39, 415.18 380.01, 416.68 382.76, 419.43L470.56, 504.8C475.28, 509.57 481.4, 511.99 487.59, 511.99C492.43, 511.99 497.34, 510.51 501.65, 507.46C511.42, 500.61 514.7, 488.31 509.64, 477.53zM405.22, 396.66C396.66, 388.1 384.82, 383.19 372.38, 383.19L372.35, 383.19L352.35, 383.61L352.79, 363.28C352.79, 351 348.01, 339.45 339.51, 330.95L264.43, 253.44C255.74, 244.75 244.22, 239.97 231.94, 239.97L208.04, 239.97L208.07, 217.52C208.16, 209.47 208.32, 197.29 198.57, 187.55L64.26, 53.23C287.06, 172.93 406.66, 349.51 460.31, 450.26L405.22, 396.66zM29.52, 212L29.49, 211.98A20.536 20.536 0 0 0 3.9, 218.73C-1.91, 226.96 -0.94, 238.13 4.96, 243.9L75.98, 333.07C78.6, 335.71 80.07, 339.23 80.07, 342.98L80.07, 399.98L137.06, 399.98C140.81, 399.98 144.31, 401.43 147.9, 404.95L266.75, 505.9C270.75, 509.9 276.03, 511.96 281.34, 511.96C285.46, 511.96 289.62, 510.71 293.21, 508.18C301.43, 502.43 304.3, 491.68 300.02, 482.62C222.01, 317.23 84.85, 238.26 29.52, 212zM169.58, 381.44C160.89, 372.75 149.33, 367.97 137.05, 367.97L112.06, 367.97L112.06, 342.97C112.06, 330.67 107.28, 319.13 99.81, 311.8L64.6, 267.62C116.78, 299.84 187.57, 355.54 242.06, 443.02L169.58, 381.44zM313.77, 107.29C315.46, 108.96 316.39, 111.24 316.52, 115.48L321.61, 158.38L366.41, 163.61C368.75, 163.61 371.03, 164.55 374.03, 167.41L478.07, 250.16C481.91, 254 486.97, 255.97 492.07, 255.97C496.07, 255.97 500.07, 254.77 503.57, 252.31C511.44, 246.76 514.16, 236.42 510.07, 227.75C445, 89.79 330.55, 23.88 284.34, 1.93C275.62, -2.19 265.28, 0.49 259.69, 8.38C254.1, 16.32 255, 27.05 260.13, 31.85L313.77, 107.29zM451.06, 187.92L395.35, 143.59C387.85, 136.07 377.48, 131.72 368.64, 131.72L368.33, 131.72L350.37, 129.58L348.4, 113.58C348.4, 102.69 344.15, 92.43 338.18, 86.74L316.65, 56.49C357.02, 82.27 409.07, 124.35 451.06, 187.92z" fill="#727272" fill-opacity="1" class="Black" />
  </g>
</svg>