<?xml version='1.0' encoding='UTF-8'?>
<svg viewBox="-5.5003 -2 32 32" xmlns="http://www.w3.org/2000/svg">
  <g transform="matrix(0.0547, 0, 0, 0.0547, 0, 0)">
    <path d="M280, 240L168, 240C163.6, 240 160, 243.6 160, 248L160, 264C160, 268.4 163.6, 272 168, 272L280, 272C284.4, 272 288, 268.4 288, 264L288, 248C288, 243.6 284.4, 240 280, 240zM280, 336L168, 336C163.6, 336 160, 339.6 160, 344L160, 360C160, 364.4 163.6, 368 168, 368L280, 368C284.4, 368 288, 364.4 288, 360L288, 344C288, 339.6 284.4, 336 280, 336zM112, 232C98.7, 232 88, 242.7 88, 256C88, 269.3 98.7, 280 112, 280C125.3, 280 136, 269.3 136, 256C136, 242.7 125.3, 232 112, 232zM112, 328C98.7, 328 88, 338.7 88, 352C88, 365.3 98.7, 376 112, 376C125.3, 376 136, 365.3 136, 352C136, 338.7 125.3, 328 112, 328zM336, 64L247.4, 64C247.8, 61.4 248, 58.7 248, 56C248, 25.1 222.9, 0 192, 0C161.1, 0 136, 25.1 136, 56C136, 58.7 136.2, 61.4 136.6, 64L48, 64C21.5, 64 0, 85.5 0, 112L0, 464C0, 490.5 21.5, 512 48, 512L336, 512C362.5, 512 384, 490.5 384, 464L384, 112C384, 85.5 362.5, 64 336, 64zM192, 32C205.3, 32 216, 42.7 216, 56C216, 69.3 205.3, 80 192, 80C178.7, 80 168, 69.3 168, 56C168, 42.7 178.7, 32 192, 32zM352, 464C352, 472.8 344.8, 480 336, 480L48, 480C39.2, 480 32, 472.8 32, 464L32, 112C32, 103.2 39.2, 96 48, 96L96, 96L96, 116C96, 122.6 101.4, 128 108, 128L276, 128C282.6, 128 288, 122.6 288, 116L288, 96L336, 96C344.8, 96 352, 103.2 352, 112L352, 464z" fill="#727272" fill-opacity="1" class="Black" />
  </g>
</svg>