<?xml version='1.0' encoding='UTF-8'?>
<svg viewBox="-5.5003 -2 32 32" xmlns="http://www.w3.org/2000/svg">
  <g transform="matrix(0.0547, 0, 0, 0.0547, 0, 0)">
    <path d="M336, 64L247.4, 64C247.8, 61.4 248, 58.7 248, 56C248, 25.1 222.9, 0 192, 0C161.1, 0 136, 25.1 136, 56C136, 58.7 136.2, 61.4 136.6, 64L48, 64C21.5, 64 0, 85.5 0, 112L0, 464C0, 490.5 21.5, 512 48, 512L336, 512C362.5, 512 384, 490.5 384, 464L384, 112C384, 85.5 362.5, 64 336, 64zM192, 32C205.3, 32 216, 42.7 216, 56C216, 69.2 205.3, 80 192, 80C178.7, 80 168, 69.2 168, 56C168, 42.7 178.7, 32 192, 32zM352, 464C352, 472.8 344.8, 480 336, 480L48, 480C39.2, 480 32, 472.8 32, 464L32, 112C32, 103.2 39.2, 96 48, 96L96, 96L96, 116C96, 122.6 101.4, 128 108, 128L276, 128C282.6, 128 288, 122.6 288, 116L288, 96L336, 96C344.8, 96 352, 103.2 352, 112zM285.7, 301.7L274.4, 290.4C271.3, 287.3 266.2, 287.3 263.1, 290.4L224.1, 329.4L192.7, 298C211.2, 288.9 224, 270 224, 248C224, 217.1 198.9, 192 168, 192L104, 192C99.6, 192 96, 195.6 96, 200L96, 344C96, 348.4 99.6, 352 104, 352L120, 352C124.4, 352 128, 348.4 128, 344L128, 304L153.4, 304L201.4, 352L162.4, 391C159.3, 394.1 159.3, 399.2 162.4, 402.3L173.7, 413.6C176.8, 416.7 181.9, 416.7 185, 413.6L224, 374.6L263, 413.6C266.1, 416.7 271.2, 416.7 274.3, 413.6L285.6, 402.3C288.7, 399.2 288.7, 394.1 285.6, 391L246.6, 352L285.6, 313C288.8, 309.8 288.8, 304.8 285.7, 301.7zM168, 272L128, 272L128, 224L168, 224C181.2, 224 192, 234.8 192, 248C192, 261.2 181.2, 272 168, 272z" fill="#727272" fill-opacity="1" class="Black" />
  </g>
</svg>