<?xml version='1.0' encoding='UTF-8'?>
<svg viewBox="-5.5003 -2 32 32" xmlns="http://www.w3.org/2000/svg">
  <g transform="matrix(0.0547, 0, 0, 0.0547, 0, 0)">
    <path d="M336, 64L247.4, 64C247.8, 61.4 248, 58.7 248, 56C248, 25.1 222.9, 0 192, 0C161.1, 0 136, 25.1 136, 56C136, 58.7 136.2, 61.4 136.6, 64L48, 64C21.5, 64 0, 85.5 0, 112L0, 464C0, 490.5 21.5, 512 48, 512L336, 512C362.5, 512 384, 490.5 384, 464L384, 112C384, 85.5 362.5, 64 336, 64zM192, 32C205.3, 32 216, 42.7 216, 56C216, 69.3 205.3, 80 192, 80C178.7, 80 168, 69.3 168, 56C168, 42.7 178.7, 32 192, 32zM352, 464C352, 472.8 344.8, 480 336, 480L48, 480C39.2, 480 32, 472.8 32, 464L32, 112C32, 103.2 39.2, 96 48, 96L96, 96L96, 116C96, 122.6 101.4, 128 108, 128L276, 128C282.6, 128 288, 122.6 288, 116L288, 96L336, 96C344.8, 96 352, 103.2 352, 112L352, 464zM293.1, 227.6C288.4, 222.9 280.8, 222.9 276.1, 227.5L158.4, 344.3L108, 293.7C103.3, 289 95.7, 289 91, 293.7L82.5, 302.2C77.8, 306.9 77.8, 314.5 82.5, 319.2L149.9, 386.8C154.6, 391.5 162.2, 391.5 166.9, 386.8L301.7, 253.1C306.4, 248.4 306.4, 240.8 301.8, 236.1L293.1, 227.6z" fill="#727272" fill-opacity="1" class="Black" />
  </g>
</svg>