<?xml version='1.0' encoding='UTF-8'?>
<svg viewBox="-1.5477 -1.5477 32 32" xmlns="http://www.w3.org/2000/svg">
  <g transform="matrix(0.9991, 0, 0, 0.9991, 0, 0)">
    <g transform="matrix(0.0565, 0, 0, 0.0565, 0, 0)">
      <path d="M256, 8C119, 8 8, 119 8, 256C8, 393 119, 504 256, 504C393, 504 504, 393 504, 256C504, 119 393, 8 256, 8zM472, 256C472, 374.7 375.9, 472 256, 472C137.3, 472 40, 375.9 40, 256C40, 137.3 136.1, 40 256, 40C374.7, 40 472, 136.1 472, 256zM323.1, 344.3L241.9, 285.3C238.8, 283 237, 279.4 237, 275.6L237, 116C237, 109.4 242.4, 104 249, 104L263, 104C269.6, 104 275, 109.4 275, 116L275, 262.3L345.5, 313.6C350.9, 317.5 352, 325 348.1, 330.4L339.9, 341.7C336, 347 328.5, 348.2 323.1, 344.3z" fill="#727272" fill-opacity="1" class="Black" />
    </g>
  </g>
</svg>