<?xml version='1.0' encoding='UTF-8'?>
<svg viewBox="-2 -2 32 32" xmlns="http://www.w3.org/2000/svg">
  <g transform="matrix(0.0547, 0, 0, 0.0547, 0, 0)">
    <path d="M464, 0L144, 0C117.49, 0 96, 21.49 96, 48L96, 96L48, 96C21.49, 96 0, 117.49 0, 144L0, 464C0, 490.51 21.49, 512 48, 512L368, 512C394.51, 512 416, 490.51 416, 464L416, 416L464, 416C490.51, 416 512, 394.51 512, 368L512, 48C512, 21.49 490.51, 0 464, 0zM384, 464C384, 472.82 376.82, 480 368, 480L48, 480C39.18, 480 32, 472.82 32, 464L32, 144C32, 135.18 39.18, 128 48, 128L96, 128L96, 368C96, 394.51 117.49, 416 144, 416L384, 416L384, 464zM480, 368C480, 376.82 472.82, 384 464, 384L144, 384C135.18, 384 128, 376.82 128, 368L128, 48C128, 39.18 135.18, 32 144, 32L464, 32C472.82, 32 480, 39.18 480, 48L480, 368z" fill="#727272" fill-opacity="1" class="Black" />
  </g>
</svg>