<?xml version='1.0' encoding='UTF-8'?>
<svg viewBox="-2 -1.9988 32 32" xmlns="http://www.w3.org/2000/svg">
  <g transform="matrix(0.0547, 0, 0, 0.0547, 0, 0)">
    <path d="M246.2, 188.5L236.4, 203.7C234.4, 206.7 230.7, 207.4 227.8, 205.2C187.1, 174 114.8, 190.9 114.8, 253.7C114.8, 318.5 184.9, 339 226.4, 301.3C229.1, 298.9 233.2, 299.4 235.4, 302.3L246.1, 316.9C247.9, 319.3 247.6, 322.7 245.5, 324.8C196.3, 374.8 80, 354.2 80, 254.2C80, 157.9 198.3, 137.1 245.2, 180.7C247.4, 182.8 247.8, 186.1 246.2, 188.5zM464, 64L48, 64C21.5, 64 0, 85.5 0, 112L0, 400C0, 426.5 21.5, 448 48, 448L464, 448C490.5, 448 512, 426.5 512, 400L512, 112C512, 85.5 490.5, 64 464, 64zM480, 400C480, 408.8 472.8, 416 464, 416L48, 416C39.2, 416 32, 408.8 32, 400L32, 112C32, 103.2 39.2, 96 48, 96L464, 96C472.8, 96 480, 103.2 480, 112L480, 400zM431, 188.5L421.2, 203.7C419.2, 206.7 415.5, 207.4 412.6, 205.2C371.9, 174 299.6, 190.9 299.6, 253.7C299.6, 318.5 369.7, 339 411.2, 301.3C413.9, 298.9 418, 299.4 420.2, 302.3L430.9, 316.9C432.7, 319.3 432.4, 322.7 430.3, 324.8C381.2, 374.9 264.9, 354.3 264.9, 254.3C264.9, 158 383.2, 137.2 430.1, 180.8C432.2, 182.8 432.6, 186.1 431, 188.5z" fill="#727272" fill-opacity="1" class="Black" />
  </g>
</svg>