<?xml version='1.0' encoding='UTF-8'?>
<svg viewBox="-1.9998 -2.0011 31.9975 32" xmlns="http://www.w3.org/2000/svg">
  <g transform="matrix(0.0547, 0, 0, 0.0547, 0, 0)">
    <path d="M376, 368C362.7, 368 352, 378.7 352, 392C352, 405.3 362.7, 416 376, 416C389.3, 416 400, 405.3 400, 392C400, 378.7 389.3, 368 376, 368zM184, 464C170.7, 464 160, 474.7 160, 488C160, 501.3 170.7, 512 184, 512C197.3, 512 208, 501.3 208, 488C208, 474.7 197.3, 464 184, 464zM312, 464C298.7, 464 288, 474.7 288, 488C288, 501.3 298.7, 512 312, 512C325.3, 512 336, 501.3 336, 488C336, 474.7 325.3, 464 312, 464zM248, 368C234.7, 368 224, 378.7 224, 392C224, 405.3 234.7, 416 248, 416C261.3, 416 272, 405.3 272, 392C272, 378.7 261.3, 368 248, 368zM56, 464C42.7, 464 32, 474.7 32, 488C32, 501.3 42.7, 512 56, 512C69.3, 512 80, 501.3 80, 488C80, 474.7 69.3, 464 56, 464zM120, 368C106.7, 368 96, 378.7 96, 392C96, 405.3 106.7, 416 120, 416C133.3, 416 144, 405.3 144, 392C144, 378.7 133.3, 368 120, 368zM415.7, 112.3C411.8, 67.4 373.9, 32 328, 32C310.2, 32 293.2, 37.3 278.8, 47.2C256.3, 17.7 221.5, 0 184, 0C117.8, 0 64, 53.8 64, 120L64, 120.4C25.7, 136.4 0, 173.9 0, 216C0, 273.3 46.7, 320 104, 320L408, 320C465.3, 320 512, 273.3 512, 216C512, 161.2 469.4, 116.2 415.7, 112.3zM408, 288L104, 288C64.3, 288 32, 255.7 32, 216C32, 183.7 53.9, 155.3 85.3, 146.8L98.6, 143.2L96.6, 126C96.3, 124 96, 122 96, 120C96, 71.5 135.5, 32 184, 32C216.2, 32 245.8, 49.9 261.2, 78.8L271.8, 98.6L287, 82.1C297.9, 70.4 312.4, 64 328, 64C358.9, 64 384, 89.1 384, 120C384, 121.6 383.7, 123.1 383.2, 126.9L380.7, 146.9L404.2, 144.5C405.4, 144.3 406.7, 144.1 408, 144.1C447.7, 144.1 480, 176.4 480, 216.1C480, 255.8 447.7, 288 408, 288z" fill="#727272" fill-opacity="1" class="Black" />
  </g>
</svg>