<?xml version='1.0' encoding='UTF-8'?>
<svg viewBox="-2 -4.7992 32 32" xmlns="http://www.w3.org/2000/svg">
  <g transform="matrix(0.9988, 0, 0, 0.9988, 0, 0)">
    <g transform="matrix(0.0438, 0, 0, 0.0438, 0, 0)">
      <path d="M571.7, 238.8C574.5, 228.9 576, 218.6 576, 208C576, 146.1 525.9, 96 464, 96C447.3, 96 431.1, 99.6 416, 106.8C384.4, 61.8 331.7, 32 272, 32C177.6, 32 100.3, 106.5 96.2, 200.2C39.2, 220.2 0, 274.3 0, 336C0, 415.6 64.4, 480 144, 480L512, 480C582.7, 480 640, 422.8 640, 352C640, 305 614.2, 261.2 571.7, 238.8zM512, 448L144, 448C82.1, 448 32, 397.9 32, 336C32, 279.2 74.2, 232.3 129, 225C128.3, 219.4 128, 213.7 128, 208C128, 128.5 192.5, 64 272, 64C332.3, 64 383.9, 101 405.4, 153.6C420, 137.9 440.8, 128 464, 128C508.2, 128 544, 163.8 544, 208C544, 226.5 537.7, 243.6 527.1, 257.2C573, 264.4 608, 304.1 608, 352C608, 405 565, 448 512, 448zM384, 248L320, 248L320, 164C320, 157.4 314.6, 152 308, 152L300, 152C293.4, 152 288, 157.4 288, 164L288, 248L224, 248C194.8, 248 180.8, 284.2 202.6, 303.8L282.6, 375.8C294.8, 386.8 313.2, 386.8 325.4, 375.8L405.4, 303.8C427.1, 284.2 413.3, 248 384, 248zM304, 352L224, 280L384, 280L304, 352z" fill="#727272" fill-opacity="1" class="Black" />
    </g>
  </g>
</svg>