<?xml version='1.0' encoding='UTF-8'?>
<svg viewBox="-2 -2 32 32" xmlns="http://www.w3.org/2000/svg">
  <g transform="matrix(0.0547, 0, 0, 0.0547, 0, 0)">
    <path d="M48, 352C21.5, 352 0, 373.5 0, 400C0, 426.5 21.5, 448 48, 448C74.5, 448 96, 426.5 96, 400C96, 373.5 74.5, 352 48, 352zM48, 416C39.2, 416 32, 408.8 32, 400C32, 391.2 39.2, 384 48, 384C56.8, 384 64, 391.2 64, 400C64, 408.8 56.8, 416 48, 416zM464, 352C437.5, 352 416, 373.5 416, 400C416, 426.5 437.5, 448 464, 448C490.5, 448 512, 426.5 512, 400C512, 373.5 490.5, 352 464, 352zM464, 416C455.2, 416 448, 408.8 448, 400C448, 391.2 455.2, 384 464, 384C472.8, 384 480, 391.2 480, 400C480, 408.8 472.8, 416 464, 416zM346.5, 293.5C334.3, 281.3 317.2, 275.6 300.2, 277.2C278.4, 250.6 233.5, 250.6 211.8, 277.2C194.9, 275.6 177.8, 281.3 165.5, 293.5C153.3, 305.7 147.5, 322.7 149.2, 339.8C135.9, 350.7 128, 366.8 128, 384C128, 401.2 135.9, 417.3 149.2, 428.2C147.5, 445.3 153.3, 462.3 165.5, 474.5C177.8, 486.8 196, 493.5 212, 491.1C222.9, 504.2 238.8, 512 256, 512C273.2, 512 289.1, 504.2 300, 491.1C316.2, 493.5 334.2, 486.8 346.5, 474.5C358.7, 462.3 364.5, 445.3 362.8, 428.2C376.1, 417.3 384, 401.2 384, 384C384, 366.8 376.1, 350.7 362.8, 339.8C364.5, 322.7 358.7, 305.7 346.5, 293.5zM337.7, 406.7L325.8, 412.9L329.9, 425.7C332.9, 435.2 330.7, 445.2 324, 451.9C319.1, 456.8 312.6, 459.5 305.6, 459.5C303.6, 459.5 301.1, 458.8 297.8, 457.8L285, 453.7L278.8, 465.7C269.6, 483.4 242.6, 483.4 233.4, 465.7L227.2, 453.7L214.4, 457.8C211.2, 458.8 208.6, 459.5 206.6, 459.5C199.7, 459.5 193.1, 456.8 188.2, 451.9C181.5, 445.2 179.3, 435.2 182.3, 425.7L186.4, 412.9L174.5, 406.7C165.7, 402.1 160.2, 393.4 160.2, 384C160.2, 374.6 165.7, 365.9 174.5, 361.3L186.4, 355.1L182.3, 342.3C179.3, 332.8 181.5, 322.8 188.2, 316.1C194.9, 309.4 204.9, 307.2 214.4, 310.2L227.2, 314.3L233.4, 302.4C242.6, 284.7 269.6, 284.7 278.8, 302.4L285, 314.3L297.8, 310.2C307.2, 307.2 317.3, 309.4 324, 316.1C330.7, 322.8 332.9, 332.8 329.9, 342.3L325.8, 355.1L337.7, 361.3C346.5, 365.9 352, 374.6 352, 384C352, 393.4 346.5, 402.1 337.7, 406.7zM512, 216C512, 161.2 469.4, 116.2 415.7, 112.3C411.8, 67.4 373.9, 32 328, 32C310.2, 32 293.2, 37.3 278.8, 47.2C256.3, 17.7 221.5, 0 184, 0C117.8, 0 64, 53.8 64, 120L64, 120.4C25.7, 136.4 0, 173.9 0, 216C0, 273.3 46.7, 320 104, 320L118.3, 320C120.1, 308.6 124, 297.8 129.9, 288L104, 288C64.3, 288 32, 255.7 32, 216C32, 183.7 53.9, 155.3 85.3, 146.8L98.6, 143.2L96.6, 126C96.3, 124 96, 122 96, 120C96, 71.5 135.5, 32 184, 32C216.2, 32 245.8, 49.9 261.2, 78.8L271.8, 98.6L287, 82.1C297.9, 70.4 312.4, 64 328, 64C358.9, 64 384, 89.1 384, 120C384, 121.6 383.7, 123.1 383.2, 126.9L380.7, 146.9L404.2, 144.5C405.4, 144.3 406.7, 144.1 408, 144.1C447.7, 144.1 480, 176.4 480, 216.1C480, 255.8 447.7, 288.1 408, 288.1L382.1, 288.1C388, 297.9 391.9, 308.7 393.7, 320.1L408, 320.1C465.3, 320 512, 273.3 512, 216z" fill="#727272" fill-opacity="1" class="Black" />
  </g>
</svg>