<?xml version='1.0' encoding='UTF-8'?>
<svg viewBox="-2.0025 -4.8015 32 32" xmlns="http://www.w3.org/2000/svg">
  <g transform="matrix(1.001, 0, 0, 1.001, 0, 0)">
    <g transform="matrix(0.0437, 0, 0, 0.0437, 0, 0)">
      <path d="M351.5, 313.6C347, 272.3 311.9, 240 269.4, 240C255.5, 240 242.1, 243.5 229.9, 250.3C211.6, 233.5 188, 224 163.1, 224C109.4, 224 65.6, 266.8 63.9, 320.2C25.6, 334.5 -0.1, 370.9 -0.1, 412.9C0, 467.5 44.5, 512 99.2, 512L348.8, 512C403.5, 512 448, 467.5 448, 412.8C448, 359 405, 315.1 351.5, 313.6zM348.8, 480L99.2, 480C62.1, 480 32, 449.9 32, 412.8C32, 381.2 53.5, 354.3 84.4, 347.4L98.4, 341.5L96.4, 326.9C96.2, 325.7 96, 324.4 96, 323.1C96, 286 126.1, 255.9 163.2, 255.9C183.3, 255.9 202.2, 265.1 215.2, 281.1L225.3, 293.6L237.7, 283.5C247, 276 258, 272 269.4, 272C297.3, 272 320, 294.7 320, 322.6C320, 324.1 319.8, 325.4 319.3, 329L316.7, 350.3L337.9, 346.7C341.5, 346.1 345.1, 345.5 348.9, 345.5C386, 345.5 416.1, 375.7 416.1, 412.7C416.1, 449.7 385.9, 480 348.8, 480zM637.6, 287.2C633.5, 278.6 625.2, 273.3 615.8, 273.3C614.3, 273.3 612.8, 273.4 611.2, 273.7C603.5, 275.2 595.7, 275.9 588, 275.9C521, 275.9 466.5, 221.2 466.5, 154C466.5, 110.3 490.1, 69.7 528.1, 48C537, 42.9 541.7, 33 540, 22.9C538.3, 12.7 530.6, 5 520.5, 3.1C509, 1.1 497.3, 0 485.5, 0C379.8, 0 293.7, 86.1 293.7, 192C293.7, 198.5 294.1, 204.8 294.8, 211.2C307.5, 214.1 319.4, 219 330.2, 225.8C327.6, 214.9 325.7, 203.8 325.7, 192.1C325.7, 103.9 397.4, 32.1 485.5, 32.1C488.5, 32.1 491.4, 32.2 494.4, 32.3C457, 61.2 434.5, 106.2 434.5, 154.2C434.5, 239 503.4, 308 588, 308C590.6, 308 593.2, 307.9 595.8, 307.8C566.2, 336.1 527, 352 485.5, 352C478, 352 470.7, 351.3 463.6, 350.1C469.3, 360.4 473.3, 371.6 476.1, 383.2C479.2, 383.4 482.3, 383.9 485.5, 383.9C543.6, 383.9 597.9, 358 634.5, 312.8C640.5, 305.6 641.7, 295.7 637.6, 287.2z" fill="#727272" fill-opacity="1" class="Black" />
    </g>
  </g>
</svg>