<?xml version='1.0' encoding='UTF-8'?>
<svg viewBox="-2 -2 32 32" xmlns="http://www.w3.org/2000/svg">
  <g transform="matrix(0.0547, 0, 0, 0.0547, 0, 0)">
    <path d="M415.7, 112.3C411.8, 67.4 373.9, 32 328, 32C310.2, 32 293.2, 37.3 278.8, 47.2C256.3, 17.7 221.5, 0 184, 0C117.8, 0 64, 53.8 64, 120L64, 120.4C25.7, 136.4 0, 173.9 0, 216C0, 273.3 46.7, 320 104, 320L408, 320C465.3, 320 512, 273.3 512, 216C512, 161.2 469.4, 116.2 415.7, 112.3zM408, 288L104, 288C64.3, 288 32, 255.7 32, 216C32, 183.7 53.9, 155.3 85.3, 146.8L98.6, 143.2L96.6, 126C96.3, 124 96, 122 96, 120C96, 71.5 135.5, 32 184, 32C216.2, 32 245.8, 49.9 261.2, 78.8L271.8, 98.6L287, 82.1C297.9, 70.4 312.4, 64 328, 64C358.9, 64 384, 89.1 384, 120C384, 121.6 383.7, 123.1 383.2, 126.9L380.7, 146.9L404.2, 144.5C405.4, 144.3 406.7, 144.1 408, 144.1C447.7, 144.1 480, 176.4 480, 216.1C480, 255.8 447.7, 288 408, 288zM48, 368C39.2, 368 32, 375.2 32, 384L32, 464C32, 472.8 39.2, 480 48, 480C56.8, 480 64, 472.8 64, 464L64, 384C64, 375.2 56.8, 368 48, 368zM144, 400C135.2, 400 128, 407.2 128, 416L128, 496C128, 504.8 135.2, 512 144, 512C152.8, 512 160, 504.8 160, 496L160, 416C160, 407.2 152.8, 400 144, 400zM240, 368C231.2, 368 224, 375.2 224, 384L224, 464C224, 472.8 231.2, 480 240, 480C248.8, 480 256, 472.8 256, 464L256, 384C256, 375.2 248.8, 368 240, 368zM336, 400C327.2, 400 320, 407.2 320, 416L320, 496C320, 504.8 327.2, 512 336, 512C344.8, 512 352, 504.8 352, 496L352, 416C352, 407.2 344.8, 400 336, 400zM432, 368C423.2, 368 416, 375.2 416, 384L416, 464C416, 472.8 423.2, 480 432, 480C440.8, 480 448, 472.8 448, 464L448, 384C448, 375.2 440.8, 368 432, 368z" fill="#727272" fill-opacity="1" class="Black" />
  </g>
</svg>