<?xml version='1.0' encoding='UTF-8'?>
<svg viewBox="-2 -2 32 32" xmlns="http://www.w3.org/2000/svg">
  <g transform="matrix(0.0547, 0, 0, 0.0547, 0, 0)">
    <path d="M48, 360C39.2, 360 32, 367.2 32, 376L32, 416C32, 424.8 39.2, 432 48, 432C56.8, 432 64, 424.8 64, 416L64, 376C64, 367.2 56.8, 360 48, 360zM144, 440C135.2, 440 128, 447.2 128, 456L128, 496C128, 504.8 135.2, 512 144, 512C152.8, 512 160, 504.8 160, 496L160, 456C160, 447.2 152.8, 440 144, 440zM240, 360C231.2, 360 224, 367.2 224, 376L224, 416C224, 424.8 231.2, 432 240, 432C248.8, 432 256, 424.8 256, 416L256, 376C256, 367.2 248.8, 360 240, 360zM336, 440C327.2, 440 320, 447.2 320, 456L320, 496C320, 504.8 327.2, 512 336, 512C344.8, 512 352, 504.8 352, 496L352, 456C352, 447.2 344.8, 440 336, 440zM432, 360C423.2, 360 416, 367.2 416, 376L416, 416C416, 424.8 423.2, 432 432, 432C440.8, 432 448, 424.8 448, 416L448, 376C448, 367.2 440.8, 360 432, 360zM415.7, 112.3C411.8, 67.4 373.9, 32 328, 32C310.2, 32 293.2, 37.3 278.8, 47.2C256.3, 17.7 221.5, 0 184, 0C117.8, 0 64, 53.8 64, 120L64, 120.4C25.7, 136.4 0, 173.9 0, 216C0, 273.3 46.7, 320 104, 320L408, 320C465.3, 320 512, 273.3 512, 216C512, 161.2 469.4, 116.2 415.7, 112.3zM408, 288L104, 288C64.3, 288 32, 255.7 32, 216C32, 183.7 53.9, 155.3 85.3, 146.8L98.6, 143.2L96.6, 126C96.3, 124 96, 122 96, 120C96, 71.5 135.5, 32 184, 32C216.2, 32 245.8, 49.9 261.2, 78.8L271.8, 98.6L287, 82.1C297.9, 70.4 312.4, 64 328, 64C358.9, 64 384, 89.1 384, 120C384, 121.6 383.7, 123.1 383.2, 126.9L380.7, 146.9L404.2, 144.5C405.4, 144.3 406.7, 144.1 408, 144.1C447.7, 144.1 480, 176.4 480, 216.1C480, 255.8 447.7, 288 408, 288z" fill="#727272" fill-opacity="1" class="Black" />
  </g>
</svg>