<?xml version='1.0' encoding='UTF-8'?>
<svg viewBox="-2 -4.7992 32 32" xmlns="http://www.w3.org/2000/svg">
  <g transform="matrix(0.9988, 0, 0, 0.9988, 0, 0)">
    <g transform="matrix(0.0438, 0, 0, 0.0438, 0, 0)">
      <path d="M312.5, 168.5C307.8, 163.8 300.2, 163.8 295.5, 168.5L197.2, 266.8C192.5, 271.5 192.5, 279.1 197.2, 283.8L202.9, 289.5C207.6, 294.2 215.2, 294.2 219.9, 289.5L288.1, 221.3L288.1, 372C288.1, 378.6 293.5, 384 300.1, 384L308.1, 384C314.7, 384 320.1, 378.6 320.1, 372L320.1, 221.3L388.3, 289.5C393, 294.2 400.6, 294.2 405.3, 289.5L411, 283.8C415.7, 279.1 415.7, 271.5 411, 266.8L312.5, 168.5zM571.7, 238.8C574.5, 228.9 576, 218.6 576, 208C576, 146.1 525.9, 96 464, 96C447.3, 96 431.1, 99.6 416, 106.8C384.4, 61.8 331.7, 32 272, 32C177.6, 32 100.3, 106.5 96.2, 200.2C39.2, 220.2 0, 274.3 0, 336C0, 415.6 64.4, 480 144, 480L512, 480C582.7, 480 640, 422.8 640, 352C640, 305 614.2, 261.2 571.7, 238.8zM512, 448L144, 448C82.1, 448 32, 397.9 32, 336C32, 279.2 74.2, 232.3 129, 225C128.3, 219.4 128, 213.7 128, 208C128, 128.5 192.5, 64 272, 64C332.3, 64 383.9, 101 405.4, 153.6C420, 137.9 440.8, 128 464, 128C508.2, 128 544, 163.8 544, 208C544, 226.5 537.7, 243.6 527.1, 257.2C573, 264.4 608, 304.1 608, 352C608, 405 565, 448 512, 448z" fill="#727272" fill-opacity="1" class="Black" />
    </g>
  </g>
</svg>