<?xml version='1.0' encoding='UTF-8'?>
<svg viewBox="-2 -2 32 32" xmlns="http://www.w3.org/2000/svg">
  <g transform="matrix(0.0547, 0, 0, 0.0547, 0, 0)">
    <path d="M256, 32C320.9, 32 365.1, 97.6 341.7, 157.4L325.7, 198.4C324, 202.7 327.6, 207.1 332.1, 206.5L375.8, 200.7C431.2, 193.4 479.6, 236.4 480, 291.2C480.4, 342.9 437.2, 384.4 385.5, 383.9C344.5, 383.5 330.9, 372.6 298.3, 338.7C294.6, 334.8 288, 337.5 288, 342.9L288, 367.9C288, 408.5 288, 420.5 317.1, 457.2C324.4, 466.4 317.8, 479.9 306.1, 479.9L205.8, 479.9C194.1, 479.9 187.5, 466.4 194.8, 457.2C224, 420.6 224, 408.6 224, 368L224, 343C224, 337.6 217.4, 334.9 213.7, 338.8C181.4, 372.5 167.8, 383.5 126.6, 384C74.8, 384.5 31.6, 342.9 32.1, 291.2C32.6, 236.4 81.1, 193.5 136.3, 200.9L180, 206.7C184.5, 207.3 188, 202.8 186.4, 198.6L170.4, 157.6C146.8, 97.5 191.2, 32 256, 32M256, 0C168.6, 0 108.9, 88.2 140.5, 169.1C65.6, 159.2 0, 217.6 0, 292C0, 360.4 55.6, 416 124, 416C159.5, 416 176, 408 200, 384C200, 408 190.3, 411.6 169.8, 437.4C145.9, 467.5 167.4, 512 205.8, 512L306.1, 512C344.6, 512 366.1, 467.5 342.1, 437.4C323.1, 413.3 312, 408 312, 384C336, 408 360.9, 416 388, 416C456.4, 416 512, 360.4 512, 292C512, 217.5 446.2, 159.2 371.5, 169.1C403.1, 88.4 343.5, 0 256, 0z" fill="#727272" fill-opacity="1" class="Black" />
  </g>
</svg>