<?xml version='1.0' encoding='UTF-8'?>
<svg viewBox="-1.9974 -3.5552 31.9975 32" xmlns="http://www.w3.org/2000/svg">
  <g transform="matrix(0.0486, 0, 0, 0.0486, 0, 0)">
    <path d="M391.32, 128L24.68, 128C2.73, 128 -8.26, 154.53 7.26, 170.05L192, 354.79L192, 480L138.67, 480C123.94, 480 112, 491.94 112, 506.67C112, 509.62 114.39, 512 117.33, 512L298.66, 512C301.61, 512 303.99, 509.61 303.99, 506.67C303.99, 491.94 292.05, 480 277.32, 480L224, 480L224, 354.79L331.7, 247.09L354.36, 224.43L408.73, 170.06C424.25, 154.53 413.26, 128 391.32, 128zM208, 325.53L42.47, 160L373.53, 160L208, 325.53zM432, 0C369.45, 0 317.11, 40.23 297.39, 96L331.7, 96C349.65, 58.32 387.53, 32 432, 32C493.76, 32 544, 82.24 544, 144C544, 205.76 493.76, 256 432, 256C413.51, 256 396.32, 251.07 380.94, 243.1L357.42, 266.62C379.23, 279.92 404.59, 288 432, 288C511.53, 288 576, 223.53 576, 144C576, 64.47 511.53, 0 432, 0zM432, 192C431.96, 192 431.92, 191.99 431.87, 191.99C431.67, 192.2 431.57, 192.47 431.36, 192.68L405.04, 219C413.5, 222.05 422.5, 224 432, 224C476.12, 224 512, 188.11 512, 144C512, 99.89 476.12, 64 432, 64C405.95, 64 382.99, 76.68 368.38, 96L432, 96C458.47, 96 480, 117.53 480, 144C480, 170.47 458.47, 192 432, 192z" fill="#727272" fill-opacity="1" class="Black" />
  </g>
</svg>