<?xml version='1.0' encoding='UTF-8'?>
<svg viewBox="-2 -4.7992 32 32" xmlns="http://www.w3.org/2000/svg">
  <g transform="matrix(0.9988, 0, 0, 0.9988, 0, 0)">
    <g transform="matrix(0.0438, 0, 0, 0.0438, 0, 0)">
      <path d="M320, 128C354.19, 128 386.33, 141.31 410.51, 165.49C434.69, 189.67 448, 221.81 448, 256C448, 290.19 434.69, 322.33 410.51, 346.51C386.33, 370.69 354.19, 384 320, 384C285.81, 384 253.67, 370.69 229.49, 346.51C205.31, 322.33 192, 290.19 192, 256C192, 221.81 205.31, 189.67 229.49, 165.49C253.67, 141.31 285.81, 128 320, 128M320, 96C231.63, 96 160, 167.63 160, 256C160, 344.37 231.63, 416 320, 416C408.37, 416 480, 344.37 480, 256C480, 167.63 408.37, 96 320, 96zM628, 240L511.33, 240C511.77, 245.3 512, 250.63 512, 256C512, 261.37 511.77, 266.7 511.33, 272L628, 272C634.63, 272 640, 266.63 640, 260L640, 252C640, 245.37 634.63, 240 628, 240zM128, 256C128, 250.63 128.23, 245.3 128.67, 240L12, 240C5.37, 240 0, 245.37 0, 252L0, 260C0, 266.63 5.37, 272 12, 272L128.67, 272C128.23, 266.7 128, 261.37 128, 256z" fill="#727272" fill-opacity="1" class="Black" />
    </g>
  </g>
</svg>