<?xml version='1.0' encoding='UTF-8'?>
<svg viewBox="-5.4984 -1.9925 32 31.9975" xmlns="http://www.w3.org/2000/svg">
  <g transform="matrix(0.0547, 0, 0, 0.0547, 0, 0)">
    <path d="M304, 192C262.3, 192 228, 224 224.3, 264.8C199.1, 263.5 162.7, 256.9 135.5, 233.1C115.2, 215.3 102.7, 190.1 98, 158C133.5, 149.8 160, 118 160, 80.1C160, 35.9 124.2, 0.1 80, 0.1C35.8, 0.1 0, 35.8 0, 80C0, 118.7 27.5, 151 64, 158.4L64, 353.6C27.5, 361 0, 393.3 0, 432C0, 476.2 35.8, 512 80, 512C124.2, 512 160, 476.2 160, 432C160, 393.3 132.5, 361 96, 353.6L96, 237.4C101.5, 244.6 107.7, 251.3 114.6, 257.3C151, 289 197.9, 296.1 228, 297C238.5, 328.9 268.5, 352 304, 352C348.2, 352 384, 316.2 384, 272C384, 227.8 348.2, 192 304, 192zM32, 80C32, 53.5 53.5, 32 80, 32C106.5, 32 128, 53.5 128, 80C128, 106.5 106.5, 128 80, 128C53.5, 128 32, 106.5 32, 80zM128, 432C128, 458.5 106.5, 480 80, 480C53.5, 480 32, 458.5 32, 432C32, 405.5 53.5, 384 80, 384C106.5, 384 128, 405.5 128, 432zM304, 320C277.5, 320 256, 298.5 256, 272C256, 245.5 277.5, 224 304, 224C330.5, 224 352, 245.5 352, 272C352, 298.5 330.5, 320 304, 320z" fill="#727272" fill-opacity="1" class="Black" />
  </g>
</svg>