<?xml version='1.0' encoding='UTF-8'?>
<svg viewBox="-5.4978 -2 32 32" xmlns="http://www.w3.org/2000/svg">
  <g transform="matrix(0.0547, 0, 0, 0.0547, 0, 0)">
    <path d="M370.62, 112.7L271.83, 13.47C263.13, 4.78 251.6, 0 239.38, 0L144.62, 0C132.4, 0 120.87, 4.78 112.15, 13.5L13.39, 112.7C2.07, 124.08 -2.52, 140.81 1.35, 156.34L81.2, 477.14C86.3, 497.66 104.61, 512 125.71, 512L258.29, 512C279.39, 512 297.7, 497.66 302.8, 477.14L382.65, 156.37C386.52, 140.81 381.93, 124.08 370.62, 112.7zM271.73, 469.42C270.2, 475.65 264.67, 480 258.29, 480L125.71, 480C119.33, 480 113.8, 475.66 112.27, 469.42L32.42, 148.59C31.23, 143.84 32.64, 138.73 36.08, 135.26L134.81, 36.09C137.47, 33.45 140.94, 32 144.62, 32L239.38, 32C243.07, 32 246.54, 33.45 249.16, 36.06L347.92, 135.26C351.36, 138.73 352.76, 143.84 351.58, 148.62L271.73, 469.42zM272.01, 144L240.01, 144L240.01, 112C240.01, 103.16 232.85, 96 224.01, 96L160, 96C151.16, 96 144, 103.16 144, 112L144, 144L112, 144C103.16, 144 96, 151.16 96, 160L96, 224C96, 232.84 103.16, 240 112, 240L144, 240L144, 336C144, 344.84 151.16, 352 160, 352L224, 352C232.84, 352 240, 344.84 240, 336L240, 240L272, 240C280.84, 240 288, 232.84 288, 224L288, 160C288.01, 151.16 280.85, 144 272.01, 144zM256.01, 208L208, 208L208, 320L176, 320L176, 208L127.99, 208L127.99, 176L176, 176L176, 128L208, 128L208, 176L256.01, 176L256.01, 208z" fill="#727272" fill-opacity="1" class="Black" />
  </g>
</svg>