<?xml version='1.0' encoding='UTF-8'?>
<svg viewBox="-2 -3.554 32 32" xmlns="http://www.w3.org/2000/svg">
  <g transform="matrix(0.0486, 0, 0, 0.0486, 0, 0)">
    <path d="M517.9, 448L26.1, 448C1.6, 448 -7, 416 6.1, 416L537.9, 416C551, 416 542.4, 448 517.9, 448zM576, 159.1C576.5, 212.5 533.3, 256 480, 256L448, 256L448, 288C448, 341 405, 384 352, 384L160, 384C107, 384 64, 341 64, 288L64, 76C64, 69.4 69.4, 64 76, 64L478.8, 64C531.6, 64 575.5, 106.2 576, 159.1zM416, 96L96, 96L96, 288C96, 323.3 124.7, 352 160, 352L352, 352C387.3, 352 416, 323.3 416, 288L416, 96zM544, 160C544, 124.7 515.3, 96 480, 96L448, 96L448, 224L480, 224C515.3, 224 544, 195.3 544, 160z" fill="#727272" fill-opacity="1" class="Black" />
  </g>
</svg>