<?xml version='1.0' encoding='UTF-8'?>
<svg viewBox="-1.5466 -1.5479 31.9975 32" xmlns="http://www.w3.org/2000/svg">
  <g transform="matrix(0.9991, 0, 0, 0.9991, 0, 0)">
    <g transform="matrix(0.0565, 0, 0, 0.0565, 0, 0)">
      <path d="M482.696, 299.276L450.086, 280.449A195.168 195.168 0 0 0 450.086, 231.55L482.696, 212.723C492.272, 207.195 496.891, 195.821 493.742, 185.222C482.528, 147.473 462.567, 113.494 436.207, 85.627C428.573, 77.557 416.39, 75.791 406.77, 81.345L374.208, 100.143A194.125 194.125 0 0 0 331.869, 75.663L331.869, 38.049C331.869, 26.919 324.217, 17.245 313.385, 14.682C275.741, 5.773 236.267, 5.772 198.615, 14.682C187.784, 17.245 180.131, 26.918 180.131, 38.049L180.131, 75.663A194.101 194.101 0 0 0 137.792, 100.143L105.23, 81.345C95.609, 75.791 83.426, 77.557 75.793, 85.627C49.433, 113.494 29.472, 147.474 18.258, 185.222C15.109, 195.821 19.728, 207.194 29.304, 212.723L61.914, 231.55A195.168 195.168 0 0 0 61.914, 280.449L29.304, 299.276C19.728, 304.804 15.109, 316.178 18.258, 326.777C29.472, 364.525 49.433, 398.505 75.793, 426.372C83.427, 434.442 95.61, 436.208 105.23, 430.655L137.792, 411.857A194.08 194.08 0 0 0 180.131, 436.336L180.131, 473.95C180.131, 485.08 187.783, 494.754 198.615, 497.317C236.26, 506.226 275.733, 506.227 313.385, 497.317C324.216, 494.754 331.869, 485.081 331.869, 473.95L331.869, 436.336A194.138 194.138 0 0 0 374.208, 411.857L406.77, 430.655C416.39, 436.209 428.573, 434.443 436.207, 426.372C462.567, 398.505 482.528, 364.525 493.742, 326.777C496.891, 316.178 492.272, 304.805 482.696, 299.276zM417.217, 399.737L370.908, 372.997C343.92, 396.068 334.349, 401.873 299.869, 414.056L299.869, 467.535A217.145 217.145 0 0 1 212.131, 467.535L212.131, 414.056C178.51, 402.177 168.776, 396.661 141.092, 372.997L94.783, 399.737C75.073, 377.647 60.094, 351.748 50.854, 323.779L97.183, 297.039C90.648, 261.622 90.645, 250.395 97.183, 214.96L50.854, 188.22C60.094, 160.251 75.074, 134.351 94.783, 112.251L141.092, 139.011C168.469, 115.577 178.155, 109.946 212.131, 97.942L212.131, 44.464A216.79 216.79 0 0 1 299.869, 44.464L299.869, 97.943C333.847, 109.948 343.534, 115.58 370.908, 139.012L417.217, 112.252C436.926, 134.351 451.906, 160.251 461.146, 188.221L414.817, 214.961C421.353, 250.387 421.355, 261.605 414.817, 297.04L461.146, 323.78C451.906, 351.748 436.927, 377.648 417.217, 399.737zM256, 160C203.065, 160 160, 203.065 160, 256C160, 308.935 203.065, 352 256, 352C308.935, 352 352, 308.935 352, 256C352, 203.065 308.935, 160 256, 160zM256, 320C220.71, 320 192, 291.29 192, 256C192, 220.71 220.71, 192 256, 192C291.29, 192 320, 220.71 320, 256C320, 291.29 291.29, 320 256, 320z" fill="#727272" fill-opacity="1" class="Black" />
    </g>
  </g>
</svg>