<?xml version='1.0' encoding='UTF-8'?>
<svg viewBox="-2 -1.9988 32 32" xmlns="http://www.w3.org/2000/svg">
  <g transform="matrix(0.0547, 0, 0, 0.0547, 0, 0)">
    <path d="M464, 32L48, 32C21.49, 32 0, 53.49 0, 80L0, 432C0, 458.51 21.49, 480 48, 480L464, 480C490.51, 480 512, 458.51 512, 432L512, 80C512, 53.49 490.51, 32 464, 32zM240, 448L48, 448C39.163, 448 32, 440.837 32, 432L32, 96L240, 96L240, 448zM480, 432C480, 440.837 472.837, 448 464, 448L272, 448L272, 96L480, 96L480, 432z" fill="#727272" fill-opacity="1" class="Black" />
  </g>
</svg>