<?xml version='1.0' encoding='UTF-8'?>
<svg viewBox="-1.9999 -3.5527 32 31.9975" xmlns="http://www.w3.org/2000/svg">
  <g transform="matrix(0.0486, 0, 0, 0.0486, 0, 0)">
    <path d="M532.01, 386.17C559.48, 359.05 576, 325.04 576, 288C576, 207.98 499.55, 141.87 399.82, 130.06C399.82, 130.07 399.83, 130.08 399.83, 130.09C368.37, 72.47 294.34, 32 208, 32C93.12, 32 0, 103.63 0, 192C0, 229.04 16.52, 263.05 43.99, 290.17C28.69, 320.91 6.65, 344.7 6.29, 345.06C-0.02, 351.75 -1.76, 361.59 1.87, 370.05A23.085 23.085 0 0 0 23.06, 384C76.6, 384 119.73, 363.76 148.23, 345.22C157.31, 347.31 166.68, 348.9 176.23, 350.04C207.74, 407.59 281.73, 448 368, 448C388.79, 448 408.83, 445.59 427.77, 441.22C456.27, 459.76 499.4, 480 552.94, 480C562.16, 480 570.49, 474.5 574.12, 466.04C577.76, 457.58 576.01, 447.74 569.7, 441.05C569.35, 440.69 547.31, 416.91 532.01, 386.17zM155.42, 314.04L142.18, 310.99L130.79, 318.4C110.72, 331.46 80.3, 346.65 43.11, 350.87C51.88, 339.57 63.28, 323.26 72.65, 304.43L82.97, 283.68L66.48, 267.4C50.75, 251.87 32, 226.19 32, 192C32, 121.42 110.95, 64 208, 64C305.05, 64 384, 121.42 384, 192C384, 262.58 305.05, 320 208, 320C190.27, 320 172.58, 317.99 155.42, 314.04zM445.22, 414.39L433.83, 406.98L420.59, 410.03A234.318 234.318 0 0 1 368, 416C302.86, 416 246, 390.06 215.57, 351.71C326.91, 348.62 416, 278.4 416, 192C416, 182.55 414.73, 173.34 412.68, 164.34C488.12, 178.78 544, 228.67 544, 288C544, 322.19 525.25, 347.87 509.53, 363.39L493.04, 379.67L503.36, 400.42C512.74, 419.28 524.17, 435.61 532.89, 446.86C495.7, 442.64 465.29, 427.45 445.22, 414.39zM233.38, 182.91L191.82, 170.44C187.6, 169.17 184.63, 164.82 184.63, 159.86C184.63, 153.83 188.97, 148.92 194.29, 148.92L220.23, 148.92C224.13, 148.92 227.88, 150 231.19, 152.02C234.36, 153.95 238.5, 153.17 241.19, 150.62L252.63, 139.75C256.16, 136.39 256.01, 130.53 252.09, 127.64C243.91, 121.61 234.12, 118.06 224.01, 117.32L224.01, 104C224.01, 99.58 220.43, 96 216.01, 96L200.01, 96C195.59, 96 192.01, 99.58 192.01, 104L192.01, 117.4C170.16, 118.69 152.63, 137.02 152.63, 159.86C152.63, 178.84 164.97, 195.8 182.63, 201.09L224.19, 213.56C228.41, 214.83 231.38, 219.18 231.38, 224.14C231.38, 230.17 227.04, 235.08 221.72, 235.08L195.78, 235.08C191.88, 235.08 188.13, 234 184.82, 231.98C181.65, 230.04 177.51, 230.83 174.82, 233.38L163.38, 244.25C159.85, 247.61 160, 253.47 163.92, 256.36C172.1, 262.39 181.89, 265.94 192, 266.68L192, 280C192, 284.42 195.58, 288 200, 288L216, 288C220.42, 288 224, 284.42 224, 280L224, 266.6C245.85, 265.31 263.38, 246.98 263.38, 224.14C263.38, 205.16 251.03, 188.2 233.38, 182.91z" fill="#727272" fill-opacity="1" class="Black" />
  </g>
</svg>