<?xml version='1.0' encoding='UTF-8'?>
<svg viewBox="-2 -2 32 32" xmlns="http://www.w3.org/2000/svg">
  <g transform="matrix(0.0547, 0, 0, 0.0547, 0, 0)">
    <path d="M448, 0L64, 0C28.7, 0 0, 28.7 0, 64L0, 352C0, 387.3 28.7, 416 64, 416L160, 416L160, 500C160, 507.1 165.8, 512 172, 512C174.4, 512 176.9, 511.3 179.1, 509.6L304, 416L448, 416C483.3, 416 512, 387.3 512, 352L512, 64C512, 28.7 483.3, 0 448, 0zM480, 352C480, 369.6 465.6, 384 448, 384L293.3, 384L284.8, 390.4L192, 460L192, 384L64, 384C46.4, 384 32, 369.6 32, 352L32, 64C32, 46.4 46.4, 32 64, 32L448, 32C465.6, 32 480, 46.4 480, 64L480, 352zM331.8, 237.3C313, 259.4 285.4, 272 256, 272C226.6, 272 199, 259.4 180.2, 237.4C174.5, 230.7 164.4, 230 157.7, 235.6C150.9, 241.4 150.2, 251.4 155.9, 258.2C180.7, 287.3 217.2, 304 256, 304C294.8, 304 331.3, 287.3 356.2, 258.1C362, 251.4 361.1, 241.3 354.4, 235.5C347.7, 229.8 337.6, 230.6 331.8, 237.3zM192, 184C205.3, 184 216, 173.3 216, 160C216, 146.7 205.3, 136 192, 136C178.7, 136 168, 146.7 168, 160C168, 173.3 178.7, 184 192, 184zM320, 184C333.3, 184 344, 173.3 344, 160C344, 146.7 333.3, 136 320, 136C306.7, 136 296, 146.7 296, 160C296, 173.3 306.7, 184 320, 184z" fill="#727272" fill-opacity="1" class="Black" />
  </g>
</svg>