<?xml version='1.0' encoding='UTF-8'?>
<svg viewBox="-2 -2 32 32" xmlns="http://www.w3.org/2000/svg">
  <g transform="matrix(0.0547, 0, 0, 0.0547, 0, 0)">
    <path d="M448, 0L64, 0A64.05 64.05 0 0 0 0, 64L0, 352A64.05 64.05 0 0 0 64, 416L160, 416L160, 500A12 12 0 0 0 172, 512A11.35 11.35 0 0 0 179.09, 509.59L304, 416L448, 416A64.05 64.05 0 0 0 512, 352L512, 64A64.05 64.05 0 0 0 448, 0zM480, 352A32.11 32.11 0 0 1 448, 384L293.31, 384L284.81, 390.41L192, 460L192, 384L64, 384A32.11 32.11 0 0 1 32, 352L32, 64A32.11 32.11 0 0 1 64, 32L448, 32A32.11 32.11 0 0 1 480, 64zM331.19, 96.75L203.19, 144A16 16 0 0 0 192, 159.25L192, 258A69.89 69.89 0 0 0 176, 256C149.5, 256 128, 270.33 128, 288C128, 305.67 149.5, 320 176, 320C202.5, 320 224, 305.67 224, 288L224, 179.16L320, 141.64L320, 226A69.89 69.89 0 0 0 304, 224C277.5, 224 256, 238.33 256, 256C256, 273.67 277.5, 288 304, 288C330.5, 288 352, 273.67 352, 256L352, 112A16 16 0 0 0 331.19, 96.75z" fill="#727272" fill-opacity="1" class="Black" />
  </g>
</svg>