<?xml version='1.0' encoding='UTF-8'?>
<svg viewBox="-2 -2 32 32" xmlns="http://www.w3.org/2000/svg">
  <g transform="matrix(0.0547, 0, 0, 0.0547, 0, 0)">
    <path d="M448, 0L64, 0C28.65, 0 0, 28.65 0, 64L0, 352C0, 387.35 28.65, 416 64, 416L160, 416L160, 499.98C160, 507.08 165.83, 512 172.05, 512C174.46, 512 176.92, 511.26 179.13, 509.63L304, 416L448, 416C483.35, 416 512, 387.35 512, 352L512, 64C512, 28.65 483.35, 0 448, 0zM480, 352C480, 369.64 465.64, 384 448, 384L293.34, 384L284.81, 390.4L192, 459.98L192, 384L64, 384C46.36, 384 32, 369.64 32, 352L32, 64C32, 46.36 46.36, 32 64, 32L448, 32C465.64, 32 480, 46.36 480, 64L480, 352zM289.94, 201.05L230.88, 184.19C222.13, 181.67 216, 173.58 216, 164.49C216, 153.19 225.19, 144.01 236.47, 144.01L273.38, 144.01C281.62, 144.01 289.46, 146.57 296.01, 151.33C299, 153.5 303.23, 152.79 305.85, 150.17L317.27, 138.75C320.77, 135.25 320.21, 129.53 316.28, 126.52C304.02, 117.11 289.1, 112.01 273.38, 112.01L272, 112.01L272, 88C272, 83.58 268.42, 80 264, 80L248, 80C243.58, 80 240, 83.58 240, 88L240, 112L236.47, 112C205.88, 112 181.34, 138.3 184.23, 169.48C186.29, 191.64 203.29, 209.6 224.68, 215.7L281.12, 231.81C289.87, 234.33 296, 242.42 296, 251.51C296, 262.81 286.81, 271.99 275.53, 271.99L238.62, 271.99C230.38, 271.99 222.54, 269.43 215.99, 264.67C213, 262.5 208.77, 263.21 206.15, 265.83L194.73, 277.25C191.23, 280.75 191.79, 286.46 195.72, 289.48C207.98, 298.89 222.9, 303.99 238.62, 303.99L240, 303.99L240, 327.99C240, 332.41 243.58, 335.99 248, 335.99L264, 335.99C268.42, 335.99 272, 332.41 272, 327.99L272, 303.99L273.36, 303.99C296.17, 303.99 317.69, 290.4 325.08, 268.82C335.23, 239.18 317.8, 209.03 289.94, 201.05z" fill="#727272" fill-opacity="1" class="Black" />
  </g>
</svg>