<?xml version='1.0' encoding='UTF-8'?>
<svg viewBox="-2 -2 32 32" xmlns="http://www.w3.org/2000/svg">
  <g transform="matrix(0.0547, 0, 0, 0.0547, 0, 0)">
    <path d="M448, 0L64, 0C28.7, 0 0, 28.7 0, 64L0, 352C0, 387.3 28.7, 416 64, 416L160, 416L160, 500C160, 507.1 165.8, 512 172, 512C174.4, 512 176.9, 511.3 179.1, 509.6L304, 416L448, 416C483.3, 416 512, 387.3 512, 352L512, 64C512, 28.7 483.3, 0 448, 0zM480, 352C480, 369.6 465.6, 384 448, 384L293.3, 384L284.8, 390.4L192, 460L192, 384L64, 384C46.4, 384 32, 369.6 32, 352L32, 64C32, 46.4 46.4, 32 64, 32L448, 32C465.6, 32 480, 46.4 480, 64L480, 352zM345.3, 134.5C343.7, 132.9 341.7, 132.2 339.6, 132.2C337.6, 132.2 335.5, 133 333.9, 134.5L226.5, 241.9L178, 193.4C176.4, 191.8 174.4, 191.1 172.3, 191.1C170.3, 191.1 168.2, 191.9 166.6, 193.4L155.3, 204.7C152.2, 207.8 152.2, 212.9 155.3, 216L220.8, 281.5C222.4, 283.1 224.4, 283.8 226.5, 283.8C228.6, 283.8 230.6, 283 232.2, 281.5L356.7, 157C359.8, 153.9 359.8, 148.8 356.7, 145.7L345.3, 134.5z" fill="#727272" fill-opacity="1" class="Black" />
  </g>
</svg>