<?xml version='1.0' encoding='UTF-8'?>
<svg viewBox="-2.0023 -1.9973 32 31.995" xmlns="http://www.w3.org/2000/svg">
  <g transform="matrix(0.0547, 0, 0, 0.0547, 0, 0)">
    <path d="M280, 272L136, 272C131.6, 272 128, 275.6 128, 280L128, 296C128, 300.4 131.6, 304 136, 304L280, 304C284.4, 304 288, 300.4 288, 296L288, 280C288, 275.6 284.4, 272 280, 272zM376, 176L136, 176C131.6, 176 128, 179.6 128, 184L128, 200C128, 204.4 131.6, 208 136, 208L376, 208C380.4, 208 384, 204.4 384, 200L384, 184C384, 179.6 380.4, 176 376, 176zM256, 32C114.6, 32 0, 125.1 0, 240C0, 287.6 19.9, 331.2 52.9, 366.3C38, 405.7 7, 439.1 6.5, 439.5C-0.1, 446.5 -1.9, 456.7 1.9, 465.5C5.7, 474.3 14.4, 480 24, 480C85.5, 480 134, 454.3 163.1, 433.7C192, 442.8 223.2, 448 256, 448C397.4, 448 512, 354.9 512, 240C512, 125.1 397.4, 32 256, 32zM256, 416C227.7, 416 199.7, 411.7 172.8, 403.2L157.6, 398.4L144.6, 407.6C121.6, 423.9 86.1, 442.9 42, 447.2C54, 432.1 71.8, 406.8 82.8, 377.6L89.9, 358.9L76.2, 344.3C47.3, 313.7 32, 277.6 32, 240C32, 143 132.5, 64 256, 64C379.5, 64 480, 143 480, 240C480, 337 379.5, 416 256, 416z" fill="#727272" fill-opacity="1" class="Black" />
  </g>
</svg>