<?xml version='1.0' encoding='UTF-8'?>
<svg viewBox="-2 -1.9988 32 32" xmlns="http://www.w3.org/2000/svg">
  <g transform="matrix(0.0547, 0, 0, 0.0547, 0, 0)">
    <path d="M344, 208L288, 208L288, 152A8 8 0 0 0 280, 144L232, 144A8 8 0 0 0 224, 152L224, 208L168, 208A8 8 0 0 0 160, 216L160, 264A8 8 0 0 0 168, 272L224, 272L224, 328A8 8 0 0 0 232, 336L280, 336A8 8 0 0 0 288, 328L288, 272L344, 272A8 8 0 0 0 352, 264L352, 216A8 8 0 0 0 344, 208zM256, 32C114.62, 32 0, 125.12 0, 240C0, 287.55 19.86, 331.23 52.9, 366.27C38, 405.72 7, 439.06 6.54, 439.5A24 24 0 0 0 24, 480C85.51, 480 134, 454.28 163.15, 433.67A307.33 307.33 0 0 0 256, 448C397.38, 448 512, 354.88 512, 240C512, 125.12 397.38, 32 256, 32zM256, 416A275.11 275.11 0 0 1 172.79, 403.16L157.63, 398.36L144.63, 407.54C121.63, 423.83 86.1, 442.88 42, 447.13C54, 432 71.84, 406.69 82.84, 377.58L89.9, 358.87L76.18, 344.31C47.28, 313.67 32, 277.6 32, 240C32, 143 132.49, 64 256, 64C379.51, 64 480, 143 480, 240C480, 337 379.51, 416 256, 416z" fill="#727272" fill-opacity="1" class="Black" />
  </g>
</svg>