<?xml version='1.0' encoding='UTF-8'?>
<svg viewBox="-2 -2 32 32" xmlns="http://www.w3.org/2000/svg">
  <g transform="matrix(0.0547, 0, 0, 0.0547, 0, 0)">
    <path d="M448, 0L64, 0C28.7, 0 0, 28.7 0, 64L0, 352C0, 387.3 28.7, 416 64, 416L160, 416L160, 500C160, 507.1 165.8, 512 172, 512C174.4, 512 176.9, 511.3 179.1, 509.6L304, 416L448, 416C483.3, 416 512, 387.3 512, 352L512, 64C512, 28.7 483.3, 0 448, 0zM480, 352C480, 369.6 465.6, 384 448, 384L293.3, 384L284.8, 390.4L192, 460L192, 384L64, 384C46.4, 384 32, 369.6 32, 352L32, 64C32, 46.4 46.4, 32 64, 32L448, 32C465.6, 32 480, 46.4 480, 64L480, 352zM256, 264C242.7, 264 232, 274.7 232, 288C232, 301.3 242.7, 312 256, 312C269.3, 312 280, 301.3 280, 288C280, 274.7 269.3, 264 256, 264zM247.5, 240L264.5, 240C268.7, 240 272.2, 236.7 272.5, 232.5L279.5, 120.5C279.8, 115.9 276.1, 112 271.5, 112L240.5, 112C235.9, 112 232.2, 115.9 232.5, 120.5L239.5, 232.5C239.8, 236.7 243.3, 240 247.5, 240z" fill="#727272" fill-opacity="1" class="Black" />
  </g>
</svg>