<?xml version='1.0' encoding='UTF-8'?>
<svg viewBox="-2.0023 -1.9973 32 31.995" xmlns="http://www.w3.org/2000/svg">
  <g transform="matrix(0.0547, 0, 0, 0.0547, 0, 0)">
    <path d="M336, 137.4C323.5, 124.9 303.2, 124.9 290.8, 137.4L164.7, 263.4C162.7, 265.4 161.3, 267.9 160.5, 270.7L144.5, 331.9C143.1, 337.4 144.6, 343.2 148.7, 347.3C151.7, 350.3 155.8, 352 160, 352C161.3, 352 162.7, 351.8 164, 351.5L225.2, 335.5C228, 334.8 230.5, 333.3 232.5, 331.3L358.6, 205.2C371.1, 192.7 371.1, 172.4 358.6, 160L336, 137.4zM213, 305.6L182.4, 313.6L190.4, 283L265.4, 208L288, 230.6L213, 305.6zM310.6, 208L288, 185.4L313.4, 160L336, 182.6L310.6, 208zM256, 32C114.6, 32 0, 125.1 0, 240C0, 287.6 19.9, 331.2 52.9, 366.3C38, 405.7 7, 439.1 6.5, 439.5C-0.1, 446.5 -1.9, 456.7 1.9, 465.5C5.7, 474.3 14.4, 480 24, 480C85.5, 480 134, 454.3 163.1, 433.7C192, 442.8 223.2, 448 256, 448C397.4, 448 512, 354.9 512, 240C512, 125.1 397.4, 32 256, 32zM256, 416C227.7, 416 199.7, 411.7 172.8, 403.2L157.6, 398.4L144.6, 407.6C121.6, 423.9 86.1, 442.9 42, 447.2C54, 432.1 71.8, 406.8 82.8, 377.6L89.9, 358.9L76.2, 344.3C47.3, 313.7 32, 277.6 32, 240C32, 143 132.5, 64 256, 64C379.5, 64 480, 143 480, 240C480, 337 379.5, 416 256, 416z" fill="#727272" fill-opacity="1" class="Black" />
  </g>
</svg>