<?xml version='1.0' encoding='UTF-8'?>
<svg viewBox="-2.0023 -1.9973 32 31.995" xmlns="http://www.w3.org/2000/svg">
  <g transform="matrix(0.0547, 0, 0, 0.0547, 0, 0)">
    <path d="M256, 32C114.6, 32 0, 125.1 0, 240C0, 287.6 19.9, 331.2 52.9, 366.3C38, 405.7 7, 439.1 6.5, 439.5C-0.1, 446.5 -1.9, 456.7 1.9, 465.5C5.7, 474.3 14.4, 480 24, 480C85.5, 480 134, 454.3 163.1, 433.7C192, 442.8 223.2, 448 256, 448C397.4, 448 512, 354.9 512, 240C512, 125.1 397.4, 32 256, 32zM256, 416C227.7, 416 199.7, 411.7 172.8, 403.2L157.6, 398.4L144.6, 407.6C121.6, 423.9 86.1, 442.9 42, 447.2C54, 432.1 71.8, 406.8 82.8, 377.6L89.9, 358.9L76.2, 344.3C47.3, 313.7 32, 277.6 32, 240C32, 143 132.5, 64 256, 64C379.5, 64 480, 143 480, 240C480, 337 379.5, 416 256, 416zM331.8, 285.3C313, 307.4 285.4, 320 256, 320C226.6, 320 199, 307.4 180.2, 285.4C174.5, 278.7 164.4, 278 157.7, 283.6C150.9, 289.4 150.2, 299.4 155.9, 306.2C180.7, 335.3 217.2, 352 256, 352C294.8, 352 331.3, 335.3 356.2, 306.1C362, 299.4 361.1, 289.3 354.4, 283.5C347.7, 277.8 337.6, 278.6 331.8, 285.3zM192, 216C205.3, 216 216, 205.3 216, 192C216, 178.7 205.3, 168 192, 168C178.7, 168 168, 178.7 168, 192C168, 205.3 178.7, 216 192, 216zM320, 216C333.3, 216 344, 205.3 344, 192C344, 178.7 333.3, 168 320, 168C306.7, 168 296, 178.7 296, 192C296, 205.3 306.7, 216 320, 216z" fill="#727272" fill-opacity="1" class="Black" />
  </g>
</svg>