<?xml version='1.0' encoding='UTF-8'?>
<svg viewBox="-1.9998 -3.5535 32 31.9975" xmlns="http://www.w3.org/2000/svg">
  <g transform="matrix(0.0486, 0, 0, 0.0486, 0, 0)">
    <path d="M569.9, 441.1C569.4, 440.7 547.3, 416.9 532, 386.2C559.5, 359.1 576, 325.1 576, 288C576, 208 499.5, 141.9 399.8, 130.1C368.4, 72.5 294.3, 32 208, 32C93.1, 32 0, 103.6 0, 192C0, 229 16.5, 263 44, 290.2C28.7, 320.9 6.7, 344.7 6.3, 345.1C0, 351.8 -1.8, 361.6 1.9, 370.1C5.5, 378.6 13.9, 384.1 23.1, 384.1C76.6, 384.1 119.8, 363.9 148.3, 345.3C157.4, 347.4 166.7, 349 176.3, 350.1C207.8, 407.6 281.8, 448.1 368.1, 448.1C388.9, 448.1 408.9, 445.7 427.9, 441.3C456.4, 459.8 499.5, 480.1 553.1, 480.1C562.3, 480.1 570.6, 474.6 574.3, 466.1C577.9, 457.6 576.2, 447.8 569.9, 441.1zM155.4, 314L142.2, 311L130.8, 318.4C110.7, 331.5 80.3, 346.6 43.1, 350.9C51.9, 339.6 63.3, 323.3 72.6, 304.5L83, 283.7L66.5, 267.4C50.7, 251.9 32, 226.2 32, 192C32, 121.4 111, 64 208, 64C305, 64 384, 121.4 384, 192C384, 262.6 305, 320 208, 320C190.3, 320 172.6, 318 155.4, 314zM445.2, 414.4L433.8, 407L420.6, 410.1C403.4, 414.1 385.7, 416.1 368, 416.1C302.9, 416.1 246, 390.2 215.6, 351.8C326.9, 348.6 416, 278.4 416, 192C416, 182.5 414.7, 173.3 412.7, 164.3C488.1, 178.8 544, 228.7 544, 288C544, 322.2 525.3, 347.9 509.5, 363.4L493, 379.7L503.3, 400.4C512.7, 419.3 524.1, 435.6 532.8, 446.8C495.7, 442.6 465.3, 427.4 445.2, 414.4z" fill="#727272" fill-opacity="1" class="Black" />
  </g>
</svg>