<?xml version='1.0' encoding='UTF-8'?>
<svg viewBox="-2 -2 32 32" xmlns="http://www.w3.org/2000/svg">
  <g transform="matrix(0.0547, 0, 0, 0.0547, 0, 0)">
    <path d="M448, 0L64, 0C28.7, 0 0, 28.7 0, 64L0, 352C0, 387.3 28.7, 416 64, 416L160, 416L160, 500C160, 507.1 165.8, 512 172, 512C174.4, 512 176.9, 511.3 179.1, 509.6L304, 416L448, 416C483.3, 416 512, 387.3 512, 352L512, 64C512, 28.7 483.3, 0 448, 0zM480, 352C480, 369.6 465.6, 384 448, 384L293.3, 384L284.8, 390.4L192, 460L192, 384L64, 384C46.4, 384 32, 369.6 32, 352L32, 64C32, 46.4 46.4, 32 64, 32L448, 32C465.6, 32 480, 46.4 480, 64L480, 352zM329.5, 145.8L318.2, 134.5C316.6, 132.9 314.6, 132.2 312.5, 132.2C310.4, 132.2 308.4, 133 306.8, 134.5L256, 185.4L205.1, 134.5C203.5, 132.9 201.5, 132.2 199.4, 132.2C197.3, 132.2 195.3, 133 193.7, 134.5L182.4, 145.8C179.3, 148.9 179.3, 154 182.4, 157.1L233.3, 208L182.4, 258.9C179.3, 262 179.3, 267.1 182.4, 270.2L193.7, 281.5C195.3, 283.1 197.3, 283.8 199.4, 283.8C201.5, 283.8 203.5, 283 205.1, 281.5L256, 230.6L306.9, 281.5C308.5, 283.1 310.5, 283.8 312.6, 283.8C314.7, 283.8 316.7, 283 318.3, 281.5L329.6, 270.2C332.7, 267.1 332.7, 262 329.6, 258.9L278.6, 208L329.5, 157.1C332.7, 154 332.7, 148.9 329.5, 145.8z" fill="#727272" fill-opacity="1" class="Black" />
  </g>
</svg>