<?xml version='1.0' encoding='UTF-8'?>
<svg viewBox="-2 -2 32 32" xmlns="http://www.w3.org/2000/svg">
  <g transform="matrix(0.0547, 0, 0, 0.0547, 0, 0)">
    <path d="M448, 0L64, 0C28.7, 0 0, 28.7 0, 64L0, 352C0, 387.3 28.7, 416 64, 416L160, 416L160, 500C160, 507.1 165.8, 512 172, 512C174.4, 512 176.9, 511.3 179.1, 509.6L304, 416L448, 416C483.3, 416 512, 387.3 512, 352L512, 64C512, 28.7 483.3, 0 448, 0zM480, 352C480, 369.6 465.6, 384 448, 384L293.3, 384L284.8, 390.4L192, 460L192, 384L64, 384C46.4, 384 32, 369.6 32, 352L32, 64C32, 46.4 46.4, 32 64, 32L448, 32C465.6, 32 480, 46.4 480, 64L480, 352zM128, 184C114.7, 184 104, 194.7 104, 208C104, 221.3 114.7, 232 128, 232C141.3, 232 152, 221.3 152, 208C152, 194.7 141.3, 184 128, 184zM256, 184C242.7, 184 232, 194.7 232, 208C232, 221.3 242.7, 232 256, 232C269.3, 232 280, 221.3 280, 208C280, 194.7 269.3, 184 256, 184zM384, 184C370.7, 184 360, 194.7 360, 208C360, 221.3 370.7, 232 384, 232C397.3, 232 408, 221.3 408, 208C408, 194.7 397.3, 184 384, 184z" fill="#727272" fill-opacity="1" class="Black" />
  </g>
</svg>