<?xml version='1.0' encoding='UTF-8'?>
<svg viewBox="-1.9999 -1.549 31.9975 32" xmlns="http://www.w3.org/2000/svg">
  <g transform="matrix(0.999, 0, 0, 0.999, 0, 0)">
    <g transform="matrix(0.0565, 0, 0, 0.0565, 0, 0)">
      <path d="M264.97, 272.97C274.35, 263.6 274.35, 248.4 264.97, 239.03C255.6, 229.66 240.4, 229.66 231.03, 239.03C221.65, 248.4 221.65, 263.6 231.03, 272.97C240.4, 282.34 255.6, 282.34 264.97, 272.97zM351.44, 125C349.18, 125 346.93, 125.37 344.73, 126.16L189.83, 182.01C182.34, 184.71 176.73, 190.32 174.03, 197.81L118.18, 352.72C112.53, 368.39 128.51, 386.99 144.58, 386.99C146.84, 386.99 149.09, 386.62 151.29, 385.83L306.19, 329.98C313.68, 327.28 319.29, 321.67 321.99, 314.18L377.84, 159.28C383.48, 143.61 367.51, 125 351.44, 125zM292.79, 300.79L152.69, 351.3L203.2, 211.19L343.31, 160.68L292.79, 300.79zM248, 8C111.03, 8 0, 119.03 0, 256C0, 392.97 111.03, 504 248, 504C384.97, 504 496, 392.97 496, 256C496, 119.03 384.97, 8 248, 8zM248, 472C128.9, 472 32, 375.1 32, 256C32, 136.9 128.9, 40 248, 40C367.1, 40 464, 136.9 464, 256C464, 375.1 367.1, 472 248, 472z" fill="#727272" fill-opacity="1" class="Black" />
    </g>
  </g>
</svg>