<?xml version='1.0' encoding='UTF-8'?>
<svg viewBox="-1.9999 -1.549 31.9975 32" xmlns="http://www.w3.org/2000/svg">
  <g transform="matrix(0.999, 0, 0, 0.999, 0, 0)">
    <g transform="matrix(0.0565, 0, 0, 0.0565, 0, 0)">
      <path d="M248, 8C111, 8 0, 119 0, 256C0, 393 111, 504 248, 504C385, 504 496, 393 496, 256C496, 119 385, 8 248, 8zM248, 472C128.9, 472 32, 375.1 32, 256C32, 136.9 128.9, 40 248, 40C367.1, 40 464, 136.9 464, 256C464, 375.1 367.1, 472 248, 472zM248, 160C195, 160 152, 203 152, 256C152, 309 195, 352 248, 352C301, 352 344, 309 344, 256C344, 203 301, 160 248, 160zM248, 320C212.7, 320 184, 291.3 184, 256C184, 220.7 212.7, 192 248, 192C283.3, 192 312, 220.7 312, 256C312, 291.3 283.3, 320 248, 320zM248, 232C234.8, 232 224, 242.8 224, 256C224, 269.2 234.8, 280 248, 280C261.2, 280 272, 269.2 272, 256C272, 242.8 261.2, 232 248, 232zM240, 88C151.8, 88 80, 159.8 80, 248L112, 248C112, 177.4 169.4, 120 240, 120L240, 88z" fill="#727272" fill-opacity="1" class="Black" />
    </g>
  </g>
</svg>