<?xml version='1.0' encoding='UTF-8'?>
<svg viewBox="-2 0 32 32" xmlns="http://www.w3.org/2000/svg">
  <g transform="matrix(0.0625, 0, 0, 0.0625, 0, 0)">
    <path d="M436, 192L312, 192C298.7, 192 288, 181.3 288, 168L288, 44C288, 37.4 293.4, 32 300, 32L308, 32C314.6, 32 320, 37.4 320, 44L320, 160L436, 160C442.6, 160 448, 165.4 448, 172L448, 180C448, 186.6 442.6, 192 436, 192zM160, 168L160, 44C160, 37.4 154.6, 32 148, 32L140, 32C133.4, 32 128, 37.4 128, 44L128, 160L12, 160C5.4, 160 0, 165.4 0, 172L0, 180C0, 186.6 5.4, 192 12, 192L136, 192C149.3, 192 160, 181.3 160, 168zM160, 468L160, 344C160, 330.7 149.3, 320 136, 320L12, 320C5.4, 320 0, 325.4 0, 332L0, 340C0, 346.6 5.4, 352 12, 352L128, 352L128, 468C128, 474.6 133.4, 480 140, 480L148, 480C154.6, 480 160, 474.6 160, 468zM320, 468L320, 352L436, 352C442.6, 352 448, 346.6 448, 340L448, 332C448, 325.4 442.6, 320 436, 320L312, 320C298.7, 320 288, 330.7 288, 344L288, 468C288, 474.6 293.4, 480 300, 480L308, 480C314.6, 480 320, 474.6 320, 468z" fill="#727272" fill-opacity="1" class="Black" />
  </g>
</svg>