<?xml version='1.0' encoding='UTF-8'?>
<svg viewBox="-1.995 -4.7985 32 32" xmlns="http://www.w3.org/2000/svg">
  <g transform="matrix(0.999, 0, 0, 0.999, 0, 0)">
    <g transform="matrix(0.0438, 0, 0, 0.0438, 0, 0)">
      <path d="M322, 474.1C264, 474.1 207.4, 450.8 166.8, 410.2C126.5, 370 104.3, 315.6 104, 257C103.9, 223.8 111.1, 192 124.5, 163.1L98.7, 142.8C51.3, 237.1 67.5, 356.2 144.1, 432.8C192.5, 481.2 257.2, 506.1 322, 506.1C379.6, 506.1 437.1, 486.1 483.2, 445.6L457.7, 425.6C420, 457 372.5, 474.1 322, 474.1zM411.1, 266.7L449.8, 159.3C455.4, 143.6 439.5, 125 423.4, 125C421.1, 125 418.9, 125.4 416.7, 126.2L290.5, 171.7L320.1, 195L415.3, 160.7L384.6, 245.8zM317.3, 40C375.5, 40 430.5, 63 472.2, 104.7C538.2, 170.7 552.6, 268.8 515.9, 349.1L541.7, 369.4C587.9, 276 572.4, 159.6 494.8, 82C445.6, 32.9 381.4, 8 317.3, 8C260.5, 8 203.9, 27.8 158, 67.3L183.5, 87.4C221.4, 56.7 268, 40 317.3, 40zM228.9, 245.3L190.2, 352.7C184.5, 368.4 200.5, 387 216.6, 387C218.9, 387 221.1, 386.6 223.3, 385.8L349.5, 340.3L319.9, 317L224.7, 351.3L255.4, 266.2zM637, 485.2L23, 1.8C19.6, -1 14.5, -0.5 11.8, 3L1.8, 15.5C-1, 19 -0.4, 24 3, 26.7L617, 510.2C620.4, 513 625.5, 512.4 628.2, 509L638.2, 496.5C641, 493 640.5, 488 637, 485.2z" fill="#727272" fill-opacity="1" class="Black" />
    </g>
  </g>
</svg>