<?xml version='1.0' encoding='UTF-8'?>
<svg viewBox="-2 -1.9988 32 32" xmlns="http://www.w3.org/2000/svg">
  <g transform="matrix(0.0547, 0, 0, 0.0547, 0, 0)">
    <path d="M500, 224L376, 224C362.7, 224 352, 213.3 352, 200L352, 76C352, 69.4 357.4, 64 364, 64L372, 64C378.6, 64 384, 69.4 384, 76L384, 192L500, 192C506.6, 192 512, 197.4 512, 204L512, 212C512, 218.6 506.6, 224 500, 224zM160, 200L160, 76C160, 69.4 154.6, 64 148, 64L140, 64C133.4, 64 128, 69.4 128, 76L128, 192L12, 192C5.4, 192 0, 197.4 0, 204L0, 212C0, 218.6 5.4, 224 12, 224L136, 224C149.3, 224 160, 213.3 160, 200zM160, 436L160, 312C160, 298.7 149.3, 288 136, 288L12, 288C5.4, 288 0, 293.4 0, 300L0, 308C0, 314.6 5.4, 320 12, 320L128, 320L128, 436C128, 442.6 133.4, 448 140, 448L148, 448C154.6, 448 160, 442.6 160, 436zM384, 436L384, 320L500, 320C506.6, 320 512, 314.6 512, 308L512, 300C512, 293.4 506.6, 288 500, 288L376, 288C362.7, 288 352, 298.7 352, 312L352, 436C352, 442.6 357.4, 448 364, 448L372, 448C378.6, 448 384, 442.6 384, 436z" fill="#727272" fill-opacity="1" class="Black" />
  </g>
</svg>