<?xml version='1.0' encoding='UTF-8'?>
<svg viewBox="-3.7494 -1.9999 32 32" xmlns="http://www.w3.org/2000/svg">
  <g transform="matrix(0.0547, 0, 0, 0.0547, 0, 0)">
    <path d="M376, 320L232, 320A8 8 0 0 0 224, 328L224, 344A8 8 0 0 0 232, 352L376, 352A8 8 0 0 0 384, 344L384, 328A8 8 0 0 0 376, 320zM416, 0L32, 0A32 32 0 0 0 0, 32L0, 432A16 16 0 0 0 16, 448L32, 448L32, 496A16 16 0 0 0 48, 512L400, 512A16 16 0 0 0 416, 496L416, 448L432, 448A16 16 0 0 0 448, 432L448, 32A32 32 0 0 0 416, 0zM384, 480L64, 480L64, 448L384, 448zM416, 416L32, 416L32, 32L416, 32zM96, 256L352, 256A32 32 0 0 0 384, 224L384, 96A32 32 0 0 0 352, 64L96, 64A32 32 0 0 0 64, 96L64, 224A32 32 0 0 0 96, 256zM96, 96L352, 96L352, 224L96, 224zM80, 356A20 20 0 1 0 60, 336A20 20 0 0 0 80, 356z" fill="#727272" fill-opacity="1" class="Black" />
  </g>
</svg>