<?xml version='1.0' encoding='UTF-8'?>
<svg viewBox="-1.9998 -1.9998 32 32" xmlns="http://www.w3.org/2000/svg">
  <g transform="matrix(0.0547, 0, 0, 0.0547, 0, 0)">
    <path d="M312, 224L424, 224C445.4, 224 456.1, 198.1 441, 183L396.3, 138.3L509.7, 25C512.8, 21.9 512.8, 16.8 509.7, 13.7L498.3, 2.3C495.2, -0.8 490.1, -0.8 487, 2.3L373.6, 115.7L329, 71.1C324.1, 66.2 318.1, 64 312.2, 64C299.9, 64 288, 73.6 288, 88.1L288, 200.1C288, 213.3 298.7, 224 312, 224zM320, 107.3L404.7, 192L320, 192L320, 107.3zM396.3, 373.6L441, 328.9C445.9, 324 448.1, 318 448.1, 312.1C448.1, 299.8 438.5, 287.9 424, 287.9L312, 287.9C298.7, 287.9 288, 298.6 288, 311.9L288, 423.9C288, 445.3 313.9, 456 329, 440.9L373.7, 396.2L487, 509.7C490.1, 512.8 495.2, 512.8 498.3, 509.7L509.6, 498.4C512.7, 495.3 512.7, 490.2 509.6, 487.1L396.3, 373.6zM320, 404.7L320, 320L404.7, 320L320, 404.7zM200, 288L88, 288C66.6, 288 55.9, 313.9 71, 329L115.7, 373.7L2.3, 487C-0.8, 490.1 -0.8, 495.2 2.3, 498.3L13.6, 509.6C16.7, 512.7 21.8, 512.7 24.9, 509.6L138.3, 396.2L183, 440.9C187.9, 445.8 193.9, 448 199.8, 448C212.1, 448 224, 438.4 224, 423.9L224, 312C224, 298.7 213.3, 288 200, 288zM192, 404.7L107.3, 320L192, 320L192, 404.7zM183, 71.1L138.3, 115.8L25, 2.3C21.9, -0.8 16.8, -0.8 13.7, 2.3L2.3, 13.7C-0.8, 16.8 -0.8, 21.9 2.3, 25L115.7, 138.4L71.1, 183C66.2, 187.9 64, 193.9 64, 199.8C64, 212.1 73.6, 224 88.1, 224L200.1, 224C213.4, 224 224.1, 213.3 224.1, 200L224.1, 88C224, 66.7 198.1, 56 183, 71.1zM192, 192L107.3, 192L192, 107.3L192, 192z" fill="#727272" fill-opacity="1" class="Black" />
  </g>
</svg>