<?xml version='1.0' encoding='UTF-8'?>
<svg viewBox="-2 -1.9988 32 32" xmlns="http://www.w3.org/2000/svg">
  <g transform="matrix(0.0547, 0, 0, 0.0547, 0, 0)">
    <path d="M504, 416L480, 416L480, 352C480, 233.69 388.21, 137.04 272, 128.81L272, 96L312, 96C316.42, 96 320, 92.42 320, 88L320, 72C320, 67.58 316.42, 64 312, 64L200, 64C195.58, 64 192, 67.58 192, 72L192, 88C192, 92.42 195.58, 96 200, 96L240, 96L240, 128.81C123.79, 137.04 32, 233.69 32, 352L32, 416L8, 416C3.58, 416 0, 419.58 0, 424L0, 440C0, 444.42 3.58, 448 8, 448L504, 448C508.42, 448 512, 444.42 512, 440L512, 424C512, 419.58 508.42, 416 504, 416zM448, 416L64, 416L64, 352C64, 251.83 142.3, 167.81 242.26, 160.73C259.13, 159.54 252.59, 159.52 269.74, 160.73C369.7, 167.81 448, 251.83 448, 352L448, 416z" fill="#727272" fill-opacity="1" class="Black" />
  </g>
</svg>