<?xml version='1.0' encoding='UTF-8'?>
<svg viewBox="-1.9975 -4.7985 32 32" xmlns="http://www.w3.org/2000/svg">
  <g transform="matrix(1.0013, 0, 0, 1.0013, 0, 0)">
    <g transform="matrix(0.0437, 0, 0, 0.0437, 0, 0)">
      <path d="M289.38, 372L206.38, 318.19L176.63, 427.59A16 16 0 0 0 187.86, 447.28A15.75 15.75 0 0 0 192.08, 447.84A16 16 0 0 0 207.45, 436L225.7, 368.94L272.01, 398.94L272.01, 431.79A16 16 0 1 0 304.01, 431.79L304.01, 398.94A32 32 0 0 0 289.38, 372zM308, 215.22A28.08 28.08 0 1 0 280, 187.15A28 28 0 0 0 308, 215.22zM476.87, 332.39A10.92 10.92 0 0 0 468.47, 326.26A16.3 16.3 0 0 0 463.47, 325.03L463.4, 325.03A1400.59 1400.59 0 0 0 456.09, 326.79A15.78 15.78 0 0 0 450.09, 332.14L421.75, 374.58L342.3, 325.58L331.75, 272.71C328.03, 254.05 313.64, 239.31 296.19, 235.47L271.62, 228.17A47.44 47.44 0 0 0 261.17, 227A48 48 0 0 0 222.82, 246.27L211.22, 261.8A16.07 16.07 0 0 0 215.62, 285.08L319.56, 349.22A0.6 0.6 0 0 0 319.67, 349.28L390.32, 392.88L369, 392.88A19.14 19.14 0 0 0 350.79, 405.42L336, 447.83L521.49, 447.83A16 16 0 0 0 535, 423.12zM247.34, 266.93L248.43, 265.46A16 16 0 0 1 261.17, 259A14.86 14.86 0 0 1 263.83, 259.23L287.13, 266.15L288.24, 266.48L289.37, 266.73C294.58, 267.88 299.23, 273 300.37, 278.92L305.09, 302.54zM432.79, 415.75L436.17, 410.68L463.17, 370.31L492.25, 415.75zM632.3, 438.49L361.43, 20.91C343.37, -7 296.63, -7 278.57, 20.91L7.7, 438.49A46.38 46.38 0 0 0 5.76, 486.49A49.12 49.12 0 0 0 49.13, 512L590.87, 512A49.12 49.12 0 0 0 634.24, 486.46A46.38 46.38 0 0 0 632.3, 438.49zM606.12, 471.16A17 17 0 0 1 590.87, 479.92L49.13, 479.92A17 17 0 0 1 33.88, 471.16A14.59 14.59 0 0 1 34.51, 456L305.38, 38.4A17.78 17.78 0 0 1 334.62, 38.4L605.49, 456A14.59 14.59 0 0 1 606.12, 471.16z" fill="#727272" fill-opacity="1" class="Black" />
    </g>
  </g>
</svg>