<?xml version='1.0' encoding='UTF-8'?>
<svg viewBox="-2 -4.7992 32 32" xmlns="http://www.w3.org/2000/svg">
  <g transform="matrix(0.9988, 0, 0, 0.9988, 0, 0)">
    <g transform="matrix(0.0438, 0, 0, 0.0438, 0, 0)">
      <path d="M632, 64C636.4, 64 640, 60.4 640, 56L640, 40C640, 35.6 636.4, 32 632, 32L8, 32C3.6, 32 0, 35.6 0, 40L0, 56C0, 60.4 3.6, 64 8, 64L16, 64L16, 448L8, 448C3.6, 448 0, 451.6 0, 456L0, 472C0, 476.4 3.6, 480 8, 480L632, 480C636.4, 480 640, 476.4 640, 472L640, 456C640, 451.6 636.4, 448 632, 448L624, 448L624, 64L632, 64zM592, 448L48, 448L48, 64L592, 64L592, 448zM120, 384L136, 384C140.4, 384 144, 380.4 144, 376L144, 136C144, 131.6 140.4, 128 136, 128L120, 128C115.6, 128 112, 131.6 112, 136L112, 376C112, 380.4 115.6, 384 120, 384zM216, 384L232, 384C236.4, 384 240, 380.4 240, 376L240, 136C240, 131.6 236.4, 128 232, 128L216, 128C211.6, 128 208, 131.6 208, 136L208, 376C208, 380.4 211.6, 384 216, 384zM312, 384L328, 384C332.4, 384 336, 380.4 336, 376L336, 136C336, 131.6 332.4, 128 328, 128L312, 128C307.6, 128 304, 131.6 304, 136L304, 376C304, 380.4 307.6, 384 312, 384zM408, 384L424, 384C428.4, 384 432, 380.4 432, 376L432, 136C432, 131.6 428.4, 128 424, 128L408, 128C403.6, 128 400, 131.6 400, 136L400, 376C400, 380.4 403.6, 384 408, 384zM504, 384L520, 384C524.4, 384 528, 380.4 528, 376L528, 136C528, 131.6 524.4, 128 520, 128L504, 128C499.6, 128 496, 131.6 496, 136L496, 376C496, 380.4 499.6, 384 504, 384z" fill="#727272" fill-opacity="1" class="Black" />
    </g>
  </g>
</svg>