<?xml version='1.0' encoding='UTF-8'?>
<svg viewBox="-1.9998 -2.0011 31.9975 32" xmlns="http://www.w3.org/2000/svg">
  <g transform="matrix(0.0547, 0, 0, 0.0547, 0, 0)">
    <path d="M352, 328C338.75, 328 328, 338.74 328, 352C328, 365.25 338.75, 376 352, 376C365.25, 376 376, 365.25 376, 352C376, 338.74 365.25, 328 352, 328zM344, 128C344, 114.74 333.25, 104 320, 104C306.75, 104 296, 114.74 296, 128C296, 141.25 306.75, 152 320, 152C333.25, 152 344, 141.25 344, 128zM184, 192C184, 178.74 173.25, 168 160, 168C146.75, 168 136, 178.74 136, 192C136, 205.25 146.75, 216 160, 216C173.25, 216 184, 205.25 184, 192zM192, 328C178.75, 328 168, 338.74 168, 352C168, 365.25 178.75, 376 192, 376C205.25, 376 216, 365.25 216, 352C216, 338.74 205.25, 328 192, 328zM288, 232C274.75, 232 264, 242.74 264, 256C264, 269.25 274.75, 280 288, 280C301.25, 280 312, 269.25 312, 256C312, 242.74 301.25, 232 288, 232zM510.37, 254.79L498.29, 178.53A132.493 132.493 0 0 0 461.13, 105.58L406.37, 50.83C386.64, 31.11 361.19, 18.13 333.66, 13.78L256.96, 1.63C250.11, 0.54 243.22, 0 236.34, 0C215.62, 0 195.09, 4.88 176.45, 14.38L107.33, 49.59A132.25 132.25 0 0 0 49.54, 107.39L14.44, 176.26A132.602 132.602 0 0 0 1.62, 257.2L13.7, 333.47A132.493 132.493 0 0 0 50.86, 406.42L105.62, 461.17A132.087 132.087 0 0 0 178.33, 498.22L255.03, 510.36C261.89, 511.45 268.78, 511.98 275.66, 511.98C296.38, 511.98 316.91, 507.1 335.54, 497.6L404.66, 462.39A132.302 132.302 0 0 0 462.45, 404.59L497.55, 335.72A132.56 132.56 0 0 0 510.37, 254.79zM469.04, 321.2L433.94, 390.08C424.26, 409.08 409.11, 424.23 390.14, 433.9L321.02, 469.11C307.04, 476.24 291.35, 480 275.66, 480C270.45, 480 265.19, 479.59 260.03, 478.77L183.34, 466.63C162.35, 463.3 143.3, 453.59 128.25, 438.55L73.5, 383.79C58.41, 368.7 48.66, 349.57 45.32, 328.46L33.24, 252.2C29.89, 231.08 33.26, 209.84 42.96, 190.8L78.06, 121.92C87.74, 102.92 102.89, 87.77 121.86, 78.1L190.98, 42.89C204.97, 35.77 220.65, 32 236.34, 32C241.55, 32 246.81, 32.41 251.96, 33.23L328.66, 45.38C349.65, 48.7 368.7, 58.41 383.74, 73.46L438.5, 128.21C453.59, 143.3 463.34, 162.43 466.68, 183.54L478.76, 259.8C482.11, 280.92 478.74, 302.16 469.04, 321.2z" fill="#727272" fill-opacity="1" class="Black" />
  </g>
</svg>