<?xml version='1.0' encoding='UTF-8'?>
<svg viewBox="-2 -2 32 32" xmlns="http://www.w3.org/2000/svg">
  <g transform="matrix(0.0547, 0, 0, 0.0547, 0, 0)">
    <path d="M352, 328C338.75, 328 328, 338.74 328, 352C328, 365.25 338.75, 376 352, 376C365.25, 376 376, 365.25 376, 352C376, 338.74 365.25, 328 352, 328zM184, 192C184, 178.74 173.25, 168 160, 168C146.75, 168 136, 178.74 136, 192C136, 205.25 146.75, 216 160, 216C173.25, 216 184, 205.25 184, 192zM192, 328C178.75, 328 168, 338.74 168, 352C168, 365.25 178.75, 376 192, 376C205.25, 376 216, 365.25 216, 352C216, 338.74 205.25, 328 192, 328zM288, 232C274.75, 232 264, 242.74 264, 256C264, 269.25 274.75, 280 288, 280C301.25, 280 312, 269.25 312, 256C312, 242.74 301.25, 232 288, 232zM510.52, 255.82C440.55, 254.97 384.05, 198.13 384.05, 127.96C313.88, 127.96 257.05, 71.47 256.19, 1.51C249.57, 0.5 242.9, 0 236.26, 0C215.58, 0 195.08, 4.85 176.47, 14.33L107.34, 49.55A132.221 132.221 0 0 0 49.55, 107.36L14.45, 176.24A132.645 132.645 0 0 0 1.63, 257.19L13.71, 333.47A132.555 132.555 0 0 0 50.87, 406.43L105.64, 461.19A132.036 132.036 0 0 0 178.35, 498.25L255.06, 510.39C261.92, 511.48 268.82, 512.01 275.7, 512.01C296.42, 512.01 316.95, 507.13 335.59, 497.63L404.72, 462.41A132.221 132.221 0 0 0 462.51, 404.6L497.61, 335.72C510.17, 311.09 514.62, 283.15 510.52, 255.82zM469.1, 321.18L434, 390.07C424.32, 409.07 409.17, 424.22 390.19, 433.89L321.06, 469.11C307.08, 476.23 291.39, 480 275.7, 480C270.49, 480 265.23, 479.59 260.07, 478.77L183.37, 466.63C162.37, 463.3 143.32, 453.59 128.28, 438.55L73.51, 383.79C58.41, 368.7 48.67, 349.56 45.33, 328.46L33.25, 252.19C29.9, 231.07 33.27, 209.83 42.97, 190.78L78.07, 121.9C87.75, 102.9 102.9, 87.75 121.88, 78.08L191, 42.85C202.33, 37.08 214.8, 33.52 227.51, 32.39C240.66, 95.54 291.35, 145.34 354.76, 157.25C366.67, 220.67 416.47, 271.36 479.63, 284.5C478.53, 297.23 474.99, 309.64 469.1, 321.18z" fill="#727272" fill-opacity="1" class="Black" />
  </g>
</svg>