<?xml version='1.0' encoding='UTF-8'?>
<svg viewBox="-1.5477 -1.5477 32 32" xmlns="http://www.w3.org/2000/svg">
  <g transform="matrix(0.9991, 0, 0, 0.9991, 0, 0)">
    <g transform="matrix(0.0565, 0, 0, 0.0565, 0, 0)">
      <path d="M256, 8C119.033, 8 8, 119.033 8, 256C8, 392.967 119.033, 504 256, 504C392.967, 504 504, 392.967 504, 256C504, 119.033 392.967, 8 256, 8zM472, 256C472, 374.663 375.945, 472 256, 472C137.337, 472 40, 375.945 40, 256C40, 137.337 136.055, 40 256, 40C374.663, 40 472, 136.055 472, 256zM360.474, 357.366C351.06, 366.508 316.019, 396.332 260.368, 396.332C182.543, 396.332 123.855, 335.781 123.855, 255.486C123.855, 177.535 182.2, 117.89 259.286, 117.89C312.833, 117.89 344.794, 142.675 353.314, 150.271A11.96 11.96 0 0 1 355.035, 166.272L346.272, 178.352C342.238, 183.913 334.395, 184.931 329.069, 180.681C320.148, 173.559 295.56, 156.993 260.007, 156.993C205.687, 156.993 165.846, 198.784 165.846, 255.124C165.846, 313.333 206.637, 357.228 260.728, 357.228C300.266, 357.228 327.25, 335.154 334.579, 328.388C339.647, 323.707 347.633, 324.28 352.002, 329.627L361.416, 341.161C365.385, 346.022 364.98, 352.989 360.474, 357.366z" fill="#727272" fill-opacity="1" class="Black" />
    </g>
  </g>
</svg>