<?xml version='1.0' encoding='UTF-8'?>
<svg viewBox="-3.7495 -2 32 32" xmlns="http://www.w3.org/2000/svg">
  <g transform="matrix(0.0547, 0, 0, 0.0547, 0, 0)">
    <path d="M433.941, 65.941L382.059, 14.059A48 48 0 0 0 348.118, 0L176, 0C149.49, 0 128, 21.49 128, 48L128, 96L48, 96C21.49, 96 0, 117.49 0, 144L0, 464C0, 490.51 21.49, 512 48, 512L272, 512C298.51, 512 320, 490.51 320, 464L320, 416L400, 416C426.51, 416 448, 394.51 448, 368L448, 99.882A48 48 0 0 0 433.941, 65.941zM352, 32.491A15.88 15.88 0 0 1 359.431, 36.686L411.313, 88.569A15.885 15.885 0 0 1 415.508, 96L352, 96L352, 32.491zM288, 464C288, 472.822 280.822, 480 272, 480L48, 480C39.178, 480 32, 472.822 32, 464L32, 144C32, 135.178 39.178, 128 48, 128L128, 128L128, 368C128, 394.51 149.49, 416 176, 416L288, 416L288, 464zM416, 368C416, 376.822 408.822, 384 400, 384L176, 384C167.178, 384 160, 376.822 160, 368L160, 48C160, 39.178 167.178, 32 176, 32L320, 32L320, 104C320, 117.2 330.8, 128 344, 128L416, 128L416, 368z" fill="#727272" fill-opacity="1" class="Black" />
  </g>
</svg>