<?xml version='1.0' encoding='UTF-8'?>
<svg viewBox="-1.9974 -2.0011 31.9975 32" xmlns="http://www.w3.org/2000/svg">
  <g transform="matrix(0.0547, 0, 0, 0.0547, 0, 0)">
    <path d="M446.02, 0C433.07, 0 420.75, 3.8 410.35, 10.62C395, 6.54 382.2, 9.12 375.46, 11.11A65.477 65.477 0 0 0 347.85, 27.06C341.61, 26.62 330.3, 26.67 317.38, 32.16C307.36, 36.67 298.86, 43.29 292.34, 51.36A64.994 64.994 0 0 0 262.66, 60.35C253.91, 65.31 246.54, 72.33 241.05, 80.67C230.87, 82.16 221.22, 86.04 212.73, 92.1C212.64, 92.16 212.58, 92.26 212.49, 92.33C205.53, 82.79 198.01, 73.59 189.5, 65.09L168.37, 43.95C159.33, 34.91 143.87, 39.59 141.37, 52.12L117.61, 170.93L37.06, 251.49C16.98, 271.58 2.98, 297.65 0.47, 325.94C-2.63, 360.85 9.56, 394.22 33.97, 418.63L96.18, 480.86L96.46, 480.58C123.84, 506.15 161.23, 517.48 199.77, 509.46C222.63, 504.71 243.19, 492.21 259.7, 475.7L341.02, 394.36L459.82, 370.6C472.35, 368.09 477.03, 352.63 468, 343.6L446.86, 322.46C438.2, 313.8 428.84, 306.15 419.12, 299.1C424.08, 291.35 427.55, 282.89 428.91, 274.04A64.739 64.739 0 0 0 449.85, 251.8C455.14, 242.9 458.11, 232.96 458.69, 222.86C466.8, 216.45 473.37, 208.16 477.71, 198.51C482.18, 188.58 484.04, 177.93 483.34, 167.46A66.545 66.545 0 0 0 499.46, 140.49A66.217 66.217 0 0 0 500.25, 105.98C528.26, 65.2 504.65, 0 446.02, 0zM56.6, 277.21L147.09, 186.7L166.88, 87.71C215.21, 136.04 232.23, 203.16 219.39, 265.43C183.92, 276.15 151.41, 295.52 124.47, 322.47L54.06, 392.9C24.1, 359.92 24.76, 309.04 56.6, 277.21zM424.23, 345.09L325.25, 364.89L234.75, 455.4C218.35, 471.8 196.86, 480 175.36, 480C153.87, 480 132.37, 471.8 115.97, 455.4L76.38, 415.8L147.08, 345.09C185.35, 306.82 235.5, 287.68 285.65, 287.68C335.81, 287.68 385.96, 306.82 424.23, 345.09zM461.39, 98.84C468.89, 107.15 472.37, 119.2 468.89, 130.99C465.4, 142.24 456.56, 150.54 446.12, 153.75C452, 162.86 453.35, 174.65 448.53, 185.36C443.7, 196.07 434.07, 202.77 423.36, 204.65C428.19, 214.29 427.91, 226.07 422.03, 235.98C416.4, 245.89 406.22, 251.78 395.51, 252.59C399.09, 262.04 398.12, 272.91 392.22, 282.04C359.78, 264.84 323.43, 255.68 285.67, 255.68C274.85, 255.68 264.21, 256.69 253.69, 258.16C255.22, 247.68 256.29, 237.08 256.29, 226.29C256.29, 188.5 247.13, 152.13 229.91, 119.66C243.39, 108.44 257.49, 112.25 262.4, 114.1C263.21, 103.66 269.1, 93.47 279.01, 87.85C294.83, 78.46 309.93, 86.32 310.34, 86.52C312.22, 76.07 319.18, 66.43 329.89, 61.61C343.35, 55.9 355.32, 60.29 361.5, 64.29C364.72, 53.58 373.28, 45.01 384.53, 41.79C387.53, 40.9 403.17, 36.76 416.67, 49.82C422.33, 38.99 433.44, 32 446.02, 32C446.54, 32 479.87, 31.05 479.87, 69.92C479.33, 82.77 471.84, 93.48 461.39, 98.84z" fill="#727272" fill-opacity="1" class="Black" />
  </g>
</svg>