<?xml version='1.0' encoding='UTF-8'?>
<svg viewBox="-2 -4.7992 32 32" xmlns="http://www.w3.org/2000/svg">
  <g transform="matrix(0.9988, 0, 0, 0.9988, 0, 0)">
    <g transform="matrix(0.0438, 0, 0, 0.0438, 0, 0)">
      <path d="M634.06, 279.67L624, 265.54L624, 210.58C624, 191.23 608.26, 175.49 588.92, 175.49C579.84, 175.49 574.67, 178.43 565.31, 183.14L508.71, 103.68A96.029 96.029 0 0 0 430.95, 64L112, 64C67.88, 64 32, 99.89 32, 144L32, 232.88C12.95, 243.96 0, 264.37 0, 288L0, 320C35.35, 320 64, 291.35 64, 256L64, 144C64, 120.11 81.59, 100.41 104.46, 96.76C99.23, 106.04 96, 116.59 96, 128L96, 416C96, 433.67 110.33, 448 128, 448L176, 448C193.67, 448 208, 433.67 208, 416L208, 364.42C215.31, 367.34 223.62, 369.39 232.04, 371.27L232.04, 392C232.04, 400.84 239.2, 408 248.04, 408C256.88, 408 264.04, 400.84 264.04, 392L264.04, 375.29C266.77, 375.41 269.22, 376 272, 376C274.81, 376 277.29, 375.39 280.04, 375.28L280.04, 392C280.04, 400.84 287.2, 408 296.04, 408C304.88, 408 312.04, 400.84 312.04, 392L312.04, 371.25C320.43, 369.37 328.72, 367.33 336, 364.42L336, 416C336, 433.67 350.33, 448 368, 448L415.96, 448C433.63, 448 447.96, 433.68 447.96, 416.01L448, 272.04L479.96, 288L479.96, 329.98C479.96, 342.3 483.51, 354.36 490.2, 364.7L525.66, 419.6A62.073 62.073 0 0 0 577.81, 448L577.92, 448C612.21, 448 640, 420.21 640, 385.92L640, 298.23C640, 291.58 637.92, 285.09 634.06, 279.67zM212.73, 96L331.27, 96C348.81, 96 358.39, 115.78 347.16, 128.8C307.06, 175.31 289.2, 176 272.05, 176L270.96, 176C253.76, 176 237.14, 175.57 196.83, 128.8C185.61, 115.78 195.19, 96 212.73, 96zM208.59, 330.19C211.57, 297.65 238.71, 272 272, 272C305.29, 272 332.43, 297.65 335.41, 330.19C321.21, 335.87 277.96, 357.92 208.59, 330.19zM608, 385.92C608, 402.51 594.51, 416 577.81, 416C567.55, 416 558.11, 410.86 552.54, 402.24L517.08, 347.34A31.939 31.939 0 0 1 511.96, 329.98L511.96, 268.21L416.01, 220.29L416, 272.03L415.96, 416L368, 416L368, 336C368, 305.13 342.55, 240 272, 240C201.14, 240 176, 304.55 176, 336L176, 416L128, 416L128, 128C128, 110.36 142.36, 96 160, 96L164.29, 96C156.58, 114.18 159.58, 134.6 172.59, 149.7C214.84, 198.71 239.76, 208 270.96, 208C303.89, 208 329.15, 198.71 371.4, 149.7C384.41, 134.6 387.42, 114.18 379.7, 96L430.95, 96C451.41, 96 470.78, 105.89 482.64, 122.26L561.3, 232.68C565.79, 215.45 580.22, 208.06 583.99, 208.06C588.19, 208.06 591.99, 211.43 591.99, 216.07L591.99, 275.77L607.99, 298.23L607.99, 385.92zM568, 304C559.16, 304 552, 311.16 552, 320C552, 328.84 559.16, 336 568, 336C576.84, 336 584, 328.84 584, 320C584, 311.16 576.84, 304 568, 304z" fill="#727272" fill-opacity="1" class="Black" />
    </g>
  </g>
</svg>