<?xml version='1.0' encoding='UTF-8'?>
<svg viewBox="-3.7495 -2 32 32" xmlns="http://www.w3.org/2000/svg">
  <g transform="matrix(0.0547, 0, 0, 0.0547, 0, 0)">
    <path d="M384.19, 122.35A32 32 0 0 0 352.64, 96L336.64, 96L336.64, 48A48.1 48.1 0 0 0 288.52, 0L160.29, 0A48.1 48.1 0 0 0 112.2, 48L112.2, 96L95.36, 96A32 32 0 0 0 63.81, 122.35L0.51, 474.35A32 32 0 0 0 32.07, 512L415.93, 512A32 32 0 0 0 447.49, 474.35zM144.2, 48A16.07 16.07 0 0 1 160.29, 32L288.52, 32A16.07 16.07 0 0 1 304.61, 48L304.61, 96L144.2, 96zM32, 480L95.36, 128L352.7, 128L415.93, 480z" fill="#727272" fill-opacity="1" class="Black" />
  </g>
</svg>