<?xml version='1.0' encoding='UTF-8'?>
<svg viewBox="-2 -3.554 32 32" xmlns="http://www.w3.org/2000/svg">
  <g transform="matrix(0.0486, 0, 0, 0.0486, 0, 0)">
    <path d="M528, 32L48, 32C21.5, 32 0, 53.5 0, 80L0, 432C0, 458.5 21.5, 480 48, 480L528, 480C554.5, 480 576, 458.5 576, 432L576, 80C576, 53.5 554.5, 32 528, 32zM48, 64L528, 64C536.8, 64 544, 71.2 544, 80L544, 128L32, 128L32, 80C32, 71.2 39.2, 64 48, 64zM528, 448L48, 448C39.2, 448 32, 440.8 32, 432L32, 224L544, 224L544, 432C544, 440.8 536.8, 448 528, 448zM192, 364L192, 372C192, 378.6 186.6, 384 180, 384L108, 384C101.4, 384 96, 378.6 96, 372L96, 364C96, 357.4 101.4, 352 108, 352L180, 352C186.6, 352 192, 357.4 192, 364zM384, 364L384, 372C384, 378.6 378.6, 384 372, 384L236, 384C229.4, 384 224, 378.6 224, 372L224, 364C224, 357.4 229.4, 352 236, 352L372, 352C378.6, 352 384, 357.4 384, 364z" fill="#727272" fill-opacity="1" class="Black" />
  </g>
</svg>