<?xml version='1.0' encoding='UTF-8'?>
<svg viewBox="-2 -3.604 32 32" xmlns="http://www.w3.org/2000/svg">
  <g transform="matrix(0.0486, 0, 0, 0.0486, 0, 0)">
    <path d="M528, 31L48, 31C21.5, 31 0, 52.5 0, 79L0, 431C0, 457.5 21.5, 479 48, 479L528, 479C554.5, 479 576, 457.5 576, 431L576, 79C576, 52.5 554.5, 31 528, 31zM544, 431C544, 439.8 536.8, 447 528, 447L48, 447C39.2, 447 32, 439.8 32, 431L32, 79C32, 70.2 39.2, 63 48, 63L528, 63C536.8, 63 544, 70.2 544, 79L544, 431zM192, 363L192, 371C192, 377.6 186.6, 383 180, 383L108, 383C101.4, 383 96, 377.6 96, 371L96, 363C96, 356.4 101.4, 351 108, 351L180, 351C186.6, 351 192, 356.4 192, 363zM384, 363L384, 371C384, 377.6 378.6, 383 372, 383L236, 383C229.4, 383 224, 377.6 224, 371L224, 363C224, 356.4 229.4, 351 236, 351L372, 351C378.6, 351 384, 356.4 384, 363zM488, 95L408, 95C394.7, 95 384, 105.7 384, 119L384, 167C384, 180.3 394.7, 191 408, 191L488, 191C501.3, 191 512, 180.3 512, 167L512, 119C512, 105.7 501.3, 95 488, 95zM480, 159L416, 159L416, 127L480, 127L480, 159zM260, 319L204, 319C197.4, 319 192, 313.6 192, 307L192, 267C192, 260.4 197.4, 255 204, 255L260, 255C266.6, 255 272, 260.4 272, 267L272, 307C272, 313.6 266.6, 319 260, 319zM288, 307L288, 267C288, 260.4 293.4, 255 300, 255L356, 255C362.6, 255 368, 260.4 368, 267L368, 307C368, 313.6 362.6, 319 356, 319L300, 319C293.4, 319 288, 313.6 288, 307zM96, 307L96, 267C96, 260.4 101.4, 255 108, 255L164, 255C170.6, 255 176, 260.4 176, 267L176, 307C176, 313.6 170.6, 319 164, 319L108, 319C101.4, 319 96, 313.6 96, 307zM480, 267L480, 307C480, 313.6 474.6, 319 468, 319L396, 319C389.4, 319 384, 313.6 384, 307L384, 267C384, 260.4 389.4, 255 396, 255L468, 255C474.6, 255 480, 260.4 480, 267z" fill="#727272" fill-opacity="1" class="Black" />
  </g>
</svg>