<?xml version='1.0' encoding='UTF-8'?>
<svg viewBox="-1.9975 -4.7998 32 32" xmlns="http://www.w3.org/2000/svg">
  <g transform="matrix(1.0013, 0, 0, 1.0013, 0, 0)">
    <g transform="matrix(0.0437, 0, 0, 0.0437, 0, 0)">
      <path d="M632.8, 30.2L623.6, 17.1C617.5, 8.3 608.3, 2.5 597.8, 0.6C587.3, -1.4 576.7, 1.1 567.9, 7.2L419.1, 112C404.6, 122.1 384.7, 118.6 374.5, 104.1L365.3, 91C355.2, 76.5 335.3, 73 320.8, 83.1L20.6, 293.4C6.6, 303.2 -1.2, 319.3 0.1, 335.4C6.2, 410.4 52.5, 476.6 121, 508C141.8, 517.5 160.4, 508.1 167.5, 503.1L467.6, 292.9C482, 282.8 485.8, 263 475.5, 248.3L466.3, 235.2C456.2, 220.7 459.7, 200.8 474.2, 190.6L622.9, 85.9C641, 73.2 645.4, 48.3 632.8, 30.2zM149.1, 476.9C144.5, 480.2 138.7, 480.9 134.3, 478.9C53.2, 441.6 32.9, 362.4 32, 332.7C31.6, 327.9 34.3, 322.8 38.9, 319.5L264.2, 161.8L240.6, 295.5L374.3, 319.1L149.1, 476.9zM442.7, 271.3L411.4, 293.2L277.7, 269.6L301.3, 135.9L332.6, 114C336.2, 111.5 341.2, 112.3 343.7, 116L444.6, 260.2C447.2, 263.8 446.3, 268.7 442.7, 271.3zM604.6, 59.7L429.6, 182.8L411.2, 156.6L586.2, 33.5C589.5, 31.2 594.6, 31.5 597.3, 35.5L606.5, 48.6C609.1, 52.2 608.2, 57.2 604.6, 59.7zM496, 352C451.9, 352 416, 387.9 416, 432C416, 476.1 451.9, 512 496, 512C540.1, 512 576, 476.1 576, 432C576, 387.9 540.1, 352 496, 352zM496, 480C469.5, 480 448, 458.5 448, 432C448, 405.5 469.5, 384 496, 384C522.5, 384 544, 405.5 544, 432C544, 458.5 522.5, 480 496, 480z" fill="#727272" fill-opacity="1" class="Black" />
    </g>
  </g>
</svg>