<?xml version='1.0' encoding='UTF-8'?>
<svg viewBox="-1.9999 -1.9999 32 32" xmlns="http://www.w3.org/2000/svg">
  <g transform="matrix(0.0547, 0, 0, 0.0547, 0, 0)">
    <path d="M488, 320L416, 320L416, 118.62L509.66, 24.96C512.78, 21.84 512.78, 16.77 509.66, 13.65L498.35, 2.34C495.23, -0.78 490.16, -0.78 487.04, 2.34L393.37, 96L192, 96L192, 24C192, 10.74 181.25, 0 168, 0L120, 0C106.75, 0 96, 10.74 96, 24L96, 96L24, 96C10.75, 96 0, 106.74 0, 120L0, 168C0, 181.25 10.75, 192 24, 192L96, 192L96, 384C96, 401.67 110.33, 416 128, 416L320, 416L320, 488C320, 501.25 330.75, 512 344, 512L392, 512C405.25, 512 416, 501.25 416, 488L416, 416L488, 416C501.25, 416 512, 405.25 512, 392L512, 344C512, 330.75 501.25, 320 488, 320zM96, 160L32, 160L32, 128L96, 128L96, 160zM192, 128L361.37, 128L329.37, 160L192, 160L192, 128zM297.38, 192L192, 297.38L192, 192L297.38, 192zM320, 384L128, 384L128, 32L160, 32L160, 352L320, 352L320, 384zM214.62, 320L320, 214.63L320, 320L214.62, 320zM352, 480L352, 182.63L384, 150.63L384, 480L352, 480zM480, 384L416, 384L416, 352L480, 352L480, 384z" fill="#727272" fill-opacity="1" class="Black" />
  </g>
</svg>