<?xml version='1.0' encoding='UTF-8'?>
<svg viewBox="-1.9998 -4.8002 31.9975 32" xmlns="http://www.w3.org/2000/svg">
  <g transform="matrix(0.9988, 0, 0, 0.9988, 0, 0)">
    <g transform="matrix(0.0438, 0, 0, 0.0438, 0, 0)">
      <path d="M416, 72C402.75, 72 392, 82.74 392, 96C392, 109.25 402.75, 120 416, 120C429.25, 120 440, 109.25 440, 96C440, 82.74 429.25, 72 416, 72zM520, 64L506.12, 64C492.9, 26.8 457.74, 0 416, 0C362.98, 0 320, 42.98 320, 96L320, 135.6L11.38, 393.57C4.21, 399.28 0, 408.23 0, 417.74C0, 435.26 13.53, 448 28.45, 448C32.67, 448 36.99, 446.98 41.16, 444.77L168, 384L277.49, 384L321.9, 504.1C324.17, 510.33 331.05, 513.54 337.28, 511.27L344.11, 508.78C350.34, 506.51 353.55, 499.63 351.28, 493.4L310.82, 384L331.29, 384C345.18, 384 358.65, 382.18 371.64, 379.02L417.89, 504.1C420.16, 510.33 427.04, 513.54 433.27, 511.27L440.1, 508.78C446.33, 506.51 449.54, 499.63 447.27, 493.4L401.29, 369.04C466.33, 339.98 512, 271.67 512, 192L512, 161.07L640, 144C640, 99.82 586.27, 64 520, 64zM480, 192C480, 280.22 413.29, 352 331.29, 352L274.26, 352L319.59, 339.05C367.62, 325.32 408, 291.82 430.31, 247.16C434.25, 239.25 431.06, 229.64 423.15, 225.69C415.24, 221.8 405.68, 224.92 401.68, 232.85C383.37, 269.51 350.24, 297.01 310.77, 308.27C118.59, 363.18 195.05, 335.54 44.15, 407.88L352, 150.56L352, 96C352, 60.71 380.71, 32 416, 32C451.29, 32 480, 60.71 480, 96L480, 192zM512, 128.78L512, 96L520, 96C550.83, 96 576.88, 105.49 592.46, 118.05L512, 128.78z" fill="#727272" fill-opacity="1" class="Black" />
    </g>
  </g>
</svg>