<?xml version='1.0' encoding='UTF-8'?>
<svg viewBox="-1.9975 -4.797 32 32" xmlns="http://www.w3.org/2000/svg">
  <g transform="matrix(0.9989, 0, 0, 0.9989, 0, 0)">
    <g transform="matrix(0.0438, 0, 0, 0.0438, 0, 0)">
      <path d="M635.31, 185.71L454.31, 4.71A16 16 0 0 0 431.69, 4.71L389.49, 46.86A16 16 0 0 0 389.49, 69.49L412.12, 92.12L299.38, 204.84A80 80 0 0 0 278, 243.45L249.2, 368.18L130.34, 487A8 8 0 0 0 130.34, 498.31L141.66, 509.63A8 8 0 0 0 152.97, 509.63L271.84, 390.79L396.56, 362A79.85 79.85 0 0 0 435.12, 340.6L547.87, 227.88L570.51, 250.51A16 16 0 0 0 593.14, 250.51L635.31, 208.33A16 16 0 0 0 635.31, 185.71zM412.5, 318A47.77 47.77 0 0 1 389.37, 330.81L285.09, 354.89L309.19, 250.62A47.86 47.86 0 0 1 322, 227.48L343.43, 206.06L433.94, 296.57zM456.57, 273.92L366.06, 183.41L434.75, 114.73L525.25, 205.23zM581.82, 216.55L423.43, 58.18L443, 38.63L601.37, 197zM220, 352.07L227.79, 318.33C227.68, 318.22 227.53, 318.16 227.42, 318.05L114.75, 205.25L205.25, 114.75L274.88, 184.37C275.54, 183.68 276.07, 182.89 276.75, 182.21L297.37, 161.6L227.88, 92.12L250.51, 69.49A16 16 0 0 0 250.51, 46.86L208.33, 4.69A16 16 0 0 0 185.71, 4.69L4.71, 185.69A16 16 0 0 0 4.71, 208.31L46.88, 250.49A16 16 0 0 0 69.51, 250.49L92.15, 227.86L204.88, 340.62A78.72 78.72 0 0 0 220, 352.07zM58.18, 216.57L38.63, 197L197, 38.63L216.55, 58.18zM413, 390.37C409.93, 391.37 406.91, 392.47 403.76, 393.2L376.76, 399.42L487, 509.66A8 8 0 0 0 498.31, 509.66L509.63, 498.34A8 8 0 0 0 509.63, 487.03z" fill="#727272" fill-opacity="1" class="Black" />
    </g>
  </g>
</svg>