<?xml version='1.0' encoding='UTF-8'?>
<svg viewBox="-2 -2 32 32" xmlns="http://www.w3.org/2000/svg">
  <g transform="matrix(0.0547, 0, 0, 0.0547, 0, 0)">
    <path d="M507.31, 185.71L326.31, 4.71A16 16 0 0 0 303.69, 4.71L261.49, 46.86A16 16 0 0 0 261.49, 69.49L284.12, 92.12L171.38, 204.84A80 80 0 0 0 150, 243.45L121.2, 368.18L2.34, 487A8 8 0 0 0 2.34, 498.31L13.66, 509.63A8 8 0 0 0 24.97, 509.63L143.84, 390.79L268.56, 362A79.85 79.85 0 0 0 307.12, 340.6L419.88, 227.88L442.51, 250.51A16 16 0 0 0 465.14, 250.51L507.31, 208.33A16 16 0 0 0 507.31, 185.71zM284.5, 318A47.79 47.79 0 0 1 261.38, 330.81L157.09, 354.89L181.19, 250.62A47.78 47.78 0 0 1 194, 227.48L215.43, 206.06L305.94, 296.57zM328.57, 273.92L238.06, 183.41L306.75, 114.73L397.25, 205.23zM453.82, 216.55L295.43, 58.18L315, 38.63L473.37, 197z" fill="#727272" fill-opacity="1" class="Black" />
  </g>
</svg>