<?xml version='1.0' encoding='UTF-8'?>
<svg viewBox="-2 -2.06 32 32" xmlns="http://www.w3.org/2000/svg">
  <g transform="matrix(0.0547, 0, 0, 0.0547, 0, 0)">
    <path d="M239.1, 6.3L31.1, 84.3C12.4, 91.3 0, 109.3 0, 129.3L0, 354.4C0, 372.6 10.3, 389.2 26.5, 397.3L234.5, 501.3C248, 508.1 263.9, 508.1 277.4, 501.3L485.4, 397.3C501.7, 389.2 511.9, 372.5 511.9, 354.4L511.9, 129.3C511.9, 109.3 499.5, 91.4 480.8, 84.4L272.8, 6.4C262, 2.2 250, 2.2 239.1, 6.3zM256, 34.2L480, 118.2L480, 118.5L256, 215.6L32, 118.5L32, 118.2L256, 34.2zM32, 153.4L240, 243.5L240, 468.2L32, 364.2L32, 153.4zM272, 468.2L272, 243.5L480, 153.4L480, 364.3L272, 468.2z" fill="#727272" fill-opacity="1" class="Black" />
  </g>
</svg>