<?xml version='1.0' encoding='UTF-8'?>
<svg viewBox="-2 0 32 32" xmlns="http://www.w3.org/2000/svg">
  <g transform="matrix(0.0625, 0, 0, 0.0625, 0, 0)">
    <path d="M249.52, 256L446.83, 58.83A3.996 3.996 0 0 0 446.83, 53.18C434.33, 40.68 414.07, 40.68 401.58, 53.18L224.06, 230.56L175.42, 181.95C185.88, 166.57 192, 148 192, 128C192, 74.98 149.02, 32 96, 32C42.98, 32 0, 74.98 0, 128C0, 181.02 42.98, 224 96, 224C116.01, 224 134.58, 217.88 149.96, 207.4L198.59, 256L149.96, 304.6C134.58, 294.12 116.01, 288 96, 288C42.98, 288 0, 330.98 0, 384C0, 437.02 42.98, 480 96, 480C149.02, 480 192, 437.02 192, 384C192, 364 185.88, 345.43 175.42, 330.05L224.06, 281.44L401.58, 458.82C414.08, 471.32 434.34, 471.32 446.83, 458.82A3.996 3.996 0 0 0 446.83, 453.17L249.52, 256zM96, 192C60.71, 192 32, 163.29 32, 128C32, 92.71 60.71, 64 96, 64C131.29, 64 160, 92.71 160, 128C160, 163.29 131.29, 192 96, 192zM96, 448C60.71, 448 32, 419.29 32, 384C32, 348.71 60.71, 320 96, 320C131.29, 320 160, 348.71 160, 384C160, 419.29 131.29, 448 96, 448z" fill="#727272" fill-opacity="1" class="Black" />
  </g>
</svg>