<?xml version='1.0' encoding='UTF-8'?>
<svg viewBox="-3.7495 -2 32 32" xmlns="http://www.w3.org/2000/svg">
  <g transform="matrix(0.0547, 0, 0, 0.0547, 0, 0)">
    <path d="M224, 32C330, 32 416, 60.75 416, 96L416, 128C416, 163.25 330, 192 224, 192C118, 192 32, 163.25 32, 128L32, 96C32, 60.75 118, 32 224, 32M416, 181.5L416, 224C416, 259.25 330, 288 224, 288C118, 288 32, 259.25 32, 224L32, 181.5C73.25, 210.5 148.75, 224 224, 224C299.25, 224 374.749, 210.5 416, 181.5M416, 277.5L416, 320C416, 355.25 330, 384 224, 384C118, 384 32, 355.25 32, 320L32, 277.5C73.25, 306.5 148.75, 320 224, 320C299.25, 320 374.749, 306.5 416, 277.5M416, 373.5L416, 416C416, 451.25 330, 480 224, 480C118, 480 32, 451.25 32, 416L32, 373.5C73.25, 402.5 148.75, 416 224, 416C299.25, 416 374.749, 402.5 416, 373.5M224, 0C145.858, 0 0, 18.801 0, 96L0, 416C0, 493.338 146.096, 512 224, 512C302.142, 512 448, 493.199 448, 416L448, 96C448, 18.662 301.904, 0 224, 0z" fill="#727272" fill-opacity="1" class="Black" />
  </g>
</svg>