<?xml version='1.0' encoding='UTF-8'?>
<svg viewBox="-1.5477 -1.5477 32 32" xmlns="http://www.w3.org/2000/svg">
  <g transform="matrix(0.9991, 0, 0, 0.9991, 0, 0)">
    <g transform="matrix(0.0565, 0, 0, 0.0565, 0, 0)">
      <path d="M130.25, 311.84L176.13, 305.29A79.17 79.17 0 0 0 179.23, 325.29L135.12, 354.69A16 16 0 0 0 130.69, 376.88C134.1, 381.97 143.56, 387.52 152.88, 381.31L194, 353.93C208.62, 372.12 230.81, 384 256, 384A79.26 79.26 0 0 0 301.63, 369.51L278.34, 346.22A47.3 47.3 0 0 1 256, 352A48.05 48.05 0 0 1 208, 304L208, 275.88L176, 243.88L176, 273L125.75, 280.18A16 16 0 0 0 112.16, 298.29C114.13, 311.87 127.52, 312.24 130.25, 311.84zM256, 8C119, 8 8, 119 8, 256C8, 393 119, 504 256, 504C393, 504 504, 393 504, 256C504, 119 393, 8 256, 8zM256, 472C136.9, 472 40, 375.1 40, 256A214.87 214.87 0 0 1 92.56, 115.19L396.81, 419.44A214.87 214.87 0 0 1 256, 472zM211.84, 189.22A48 48 0 0 1 304, 208L304, 281.38zM419.44, 396.81L335.07, 312.45A67.57 67.57 0 0 0 335.87, 305.29L381.75, 311.84C384.48, 312.24 397.87, 311.84 399.84, 298.27A16 16 0 0 0 386.25, 280.16L336, 273L336, 247L386.25, 239.82A16 16 0 1 0 381.75, 208.14L336, 214.69C336, 197.38 334.59, 193.26 332.77, 186.69L376.88, 157.29A16 16 0 0 0 359.12, 130.67L318.05, 158.05C303.38, 139.88 281.19, 128 256, 128C227.36, 128 202.6, 143.26 188.54, 165.92L115.19, 92.56A214.87 214.87 0 0 1 256, 40C375.1, 40 472, 136.9 472, 256A214.87 214.87 0 0 1 419.44, 396.81z" fill="#727272" fill-opacity="1" class="Black" />
    </g>
  </g>
</svg>