<?xml version='1.0' encoding='UTF-8'?>
<svg viewBox="-2.0011 -1.9998 32 31.9975" xmlns="http://www.w3.org/2000/svg">
  <g transform="matrix(0.0547, 0, 0, 0.0547, 0, 0)">
    <path d="M368, 160C359.2, 160 352, 167.2 352, 176C352, 184.8 359.2, 192 368, 192C376.8, 192 384, 184.8 384, 176C384, 167.2 376.8, 160 368, 160zM480, 112C466.7, 112 455.4, 120.1 450.5, 131.5L364.8, 107.4L375.9, 101.8C388.3, 95.6 398.9, 86.2 406.6, 74.7L424.7, 47.5C427.2, 43.8 426.2, 38.9 422.5, 36.4L409.2, 27.5C405.5, 25 400.6, 26 398.1, 29.7L380.1, 57C375.5, 64 369.1, 69.6 361.6, 73.3L319, 94.6L285.2, 85.1L293.5, 74.8C300.3, 66.3 304, 55.7 304, 44.8L304, 8C304, 3.6 300.4, 0 296, 0L280, 0C275.6, 0 272, 3.6 272, 8L272, 44.8C272, 48.4 270.8, 51.9 268.5, 54.8L251.7, 75.7L235.6, 71.2C228.7, 69.3 223.9, 63 223.9, 55.8L223.9, 8C223.9, 3.6 220.3, 0 215.9, 0L199.9, 0C195.5, 0 191.9, 3.6 191.9, 8L191.9, 55.8C191.9, 77.3 206.2, 96.2 226.9, 102L305.8, 124.2L272, 192L96, 192C43, 192 0, 235 0, 288L0, 320L32, 320L32, 347.5L20.1, 379.3C15.5, 391.5 14.8, 404.7 17.9, 417.3L40.9, 489.7C45.1, 503 57.5, 512 71.4, 512L119.1, 512C139.9, 512 155.2, 492.5 150.2, 472.3L133.2, 403.7L152.6, 352L224, 352L224, 480C224, 497.7 238.3, 512 256, 512L320, 512C337.7, 512 352, 497.7 352, 480L352, 320L384, 256L432, 256C458.5, 256 480, 234.5 480, 208L480, 176C497.7, 176 512, 161.7 512, 144C512, 126.3 497.7, 112 480, 112zM448, 208C448, 216.8 440.8, 224 432, 224L364.2, 224L320, 312.4L320, 480L256, 480L256, 320L130.4, 320L99.7, 401.8L119.1, 480L71.4, 480L48.8, 408.8C47.4, 402.7 47.9, 396.5 50.1, 390.6L64.1, 353.4L64.1, 288L32, 288C32, 252.7 60.7, 224 96, 224L291.8, 224L325.5, 156.6C332.4, 142.9 348, 136 362.8, 140.1L436.4, 160.8C443.3, 162.7 448.1, 169 448.1, 176.2L448.1, 208z" fill="#727272" fill-opacity="1" class="Black" />
  </g>
</svg>