<?xml version='1.0' encoding='UTF-8'?>
<svg viewBox="-1.995 -4.7962 31.9975 32" xmlns="http://www.w3.org/2000/svg">
  <g transform="matrix(0.9991, 0, 0, 0.9991, 0, 0)">
    <g transform="matrix(0.0438, 0, 0, 0.0438, 0, 0)">
      <path d="M283.7, 226.8L275.5, 210.3C274, 207.3 269.8, 207.3 268.3, 210.3L260.1, 226.8L241.9, 229.5C238.6, 230 237.3, 234 239.7, 236.3L252.9, 249.2L249.8, 267.4C249.2, 270.7 252.7, 273.1 255.6, 271.6L271.9, 263L288.2, 271.6C291.1, 273.1 294.6, 270.7 294, 267.4L290.9, 249.2L304.1, 236.3C306.5, 234 305.2, 230 301.9, 229.5L283.7, 226.8zM379.7, 226.8L371.5, 210.3C370, 207.3 365.8, 207.3 364.3, 210.3L356.1, 226.8L337.9, 229.5C334.6, 230 333.3, 234 335.7, 236.3L348.9, 249.2L345.8, 267.4C345.2, 270.7 348.7, 273.1 351.6, 271.6L367.9, 263L384.2, 271.6C387.1, 273.1 390.6, 270.7 390, 267.4L386.9, 249.2L400.1, 236.3C402.5, 234 401.2, 230 397.9, 229.5L379.7, 226.8zM638.7, 226.2L623.5, 203.4C579.6, 137.7 516.3, 144 485.2, 144L271.8, 144L247, 111.6C264.3, 83.6 264.5, 47.2 245.8, 18.9C238.2, 7.4 225.4, 0.6 211.6, 0.5C200.6, 0.5 190.3, 4.8 182.5, 12.5L167.6, 27.4L151.8, 11.6C144.3, 4.1 134.4, 0 123.8, 0C110.6, 0 98.3, 6.6 91, 17.6C76.2, 40 74.7, 68.1 85.5, 91.5L10.3, 183.4C-1.4, 197.7 -3.3, 217.3 5.5, 233.4L21.4, 262.5C30, 278.3 46.9, 288 65.6, 288L100, 288C112.8, 288 124.8, 283.5 134.1, 275.3L148.7, 263.1L175.9, 326.6L175.9, 465.3C175.9, 491 196.8, 512 222.6, 512L273.2, 512C298.9, 512 319.9, 491.1 319.9, 465.3L319.9, 416L433.2, 416L433.2, 465.3C433.2, 491 454.1, 512 479.9, 512L529.2, 512C554.9, 512 575.9, 491.1 575.9, 465.3L575.9, 234.8C575.9, 218.4 571.2, 203.2 563.5, 189.9C576.5, 197.7 588, 208.1 596.7, 221.2L612, 244C614.4, 247.7 619.4, 248.7 623.1, 246.2L636.4, 237.3C640.1, 234.9 641.1, 229.9 638.7, 226.2zM544, 465.3C544, 473.4 537.4, 480 529.3, 480L480, 480C471.9, 480 465.3, 473.4 465.3, 465.3L465.3, 384L288, 384L288, 465.3C288, 473.4 281.4, 480 273.3, 480L222.7, 480C214.6, 480 208, 473.4 208, 465.3L208, 336L544, 336L544, 465.3zM544, 304L201.1, 304L161.3, 211L113.2, 251.1C109.8, 254.2 105, 256 100.1, 256L65.6, 256C58.7, 256 52.3, 252.6 49.4, 247.3L33.5, 218.2C30.9, 213.5 31.5, 208.1 35, 203.8L117.9, 102.6C121, 98.8 126.1, 96.6 131.6, 96.3C128.8, 94.6 125.8, 93.2 123.3, 90.8C108.2, 75.7 106.4, 52.5 117.7, 35.4C119.1, 33.2 121.5, 32.1 123.9, 32.1C125.8, 32.1 127.7, 32.8 129.2, 34.3L167.7, 72.8L205.2, 35.3C207, 33.5 209.3, 32.6 211.6, 32.6C214.5, 32.6 217.4, 34 219.1, 36.6C232.9, 57.5 230.6, 86 212.2, 104.4C210.1, 106.5 207.8, 108.3 205.4, 109.9L256, 176L485.3, 176C517.8, 176 544.1, 202.3 544.1, 234.8L544.1, 304zM475.7, 226.8L467.5, 210.3C466, 207.3 461.8, 207.3 460.3, 210.3L452.1, 226.8L433.9, 229.5C430.6, 230 429.3, 234 431.7, 236.3L444.9, 249.2L441.8, 267.4C441.2, 270.7 444.7, 273.1 447.6, 271.6L463.9, 263L480.2, 271.6C483.1, 273.1 486.6, 270.7 486, 267.4L482.9, 249.2L496.1, 236.3C498.5, 234 497.2, 230 493.9, 229.5L475.7, 226.8z" fill="#727272" fill-opacity="1" class="Black" />
    </g>
  </g>
</svg>