<?xml version='1.0' encoding='UTF-8'?>
<svg viewBox="-3.7495 -2 32 32" xmlns="http://www.w3.org/2000/svg">
  <g transform="matrix(0.0547, 0, 0, 0.0547, 0, 0)">
    <path d="M176, 0C163.6, 0 151.3, 6.8 146.8, 20.7C100, 168.6 0, 240.8 0, 345C0, 437.3 78.7, 512 176, 512C273.3, 512 352, 437.3 352, 345C352, 240.2 252.2, 169.2 205.2, 20.7C201.2, 7.1 188.6, 0 176, 0zM320, 345C320, 419.4 255.4, 480 176, 480C96.6, 480 32, 419.5 32, 345C32, 297.5 58.1, 255.8 91.2, 203C120.4, 156.4 153.4, 103.7 176, 34.4C198.7, 104.1 231.7, 156.7 260.9, 203.2C293.9, 255.8 320, 297.3 320, 345zM384, 0C348.7, 0 320, 28.7 320, 64C320, 99.3 348.7, 128 384, 128C419.3, 128 448, 99.3 448, 64C448, 28.7 419.3, 0 384, 0zM384, 96C366.3, 96 352, 81.7 352, 64C352, 46.3 366.3, 32 384, 32C401.7, 32 416, 46.3 416, 64C416, 81.7 401.7, 96 384, 96z" fill="#727272" fill-opacity="1" class="Black" />
  </g>
</svg>