<?xml version='1.0' encoding='UTF-8'?>
<svg viewBox="-2 -1.9988 32 32" xmlns="http://www.w3.org/2000/svg">
  <g transform="matrix(0.0547, 0, 0, 0.0547, 0, 0)">
    <path d="M503.67, 232.35L478.86, 233.38C474.36, 188.49 456.58, 147.54 429.55, 114.44L447.86, 97.6C451.21, 94.52 451.32, 89.27 448.1, 86.06L425.95, 63.91C422.74, 60.7 417.49, 60.8 414.41, 64.15L397.57, 82.46C364.47, 55.43 323.52, 37.65 278.63, 33.15L279.66, 8.34A7.997 7.997 0 0 0 271.67, 0.01L240.35, 0.01C235.8, 0.01 232.17, 3.8 232.36, 8.34L233.39, 33.15C188.51, 37.65 147.55, 55.43 114.45, 82.46L97.6, 64.15C94.52, 60.8 89.27, 60.69 86.06, 63.91L63.91, 86.05A7.99 7.99 0 0 0 64.15, 97.59L82.46, 114.43C55.42, 147.53 37.65, 188.48 33.15, 233.37L8.34, 232.34C3.79, 232.16 0, 235.79 0, 240.34L0, 271.66C0, 276.21 3.79, 279.84 8.33, 279.65L33.14, 278.62C37.64, 323.51 55.42, 364.46 82.45, 397.56L64.15, 414.4C60.8, 417.48 60.69, 422.73 63.91, 425.94L86.06, 448.09C89.27, 451.31 94.52, 451.2 97.6, 447.85L114.44, 429.54C147.54, 456.58 188.49, 474.35 233.38, 478.85L232.35, 503.66A7.997 7.997 0 0 0 240.34, 511.99L271.66, 511.99C276.21, 511.99 279.84, 508.2 279.65, 503.66L278.62, 478.85C323.51, 474.35 364.46, 456.57 397.56, 429.54L414.4, 447.85C417.48, 451.2 422.73, 451.31 425.94, 448.09L448.09, 425.94A7.99 7.99 0 0 0 447.85, 414.4L429.54, 397.56C456.58, 364.46 474.35, 323.51 478.85, 278.62L503.66, 279.65C508.21, 279.84 511.99, 276.21 511.99, 271.66L511.99, 240.34C512, 235.79 508.21, 232.16 503.67, 232.35zM446.75, 234.72L350.26, 238.74C347.78, 225.1 342.52, 212.47 334.92, 201.5L405.83, 136.26C427.96, 163.9 442.65, 197.71 446.75, 234.72zM256, 320C220.71, 320 192, 291.29 192, 256C192, 220.71 220.71, 192 256, 192C291.29, 192 320, 220.71 320, 256C320, 291.29 291.29, 320 256, 320zM375.74, 106.17L310.5, 177.08C299.53, 169.48 286.9, 164.22 273.26, 161.74L277.28, 65.25C314.29, 69.35 348.1, 84.04 375.74, 106.17zM234.72, 65.25L238.74, 161.74C225.1, 164.22 212.47, 169.48 201.5, 177.08L136.26, 106.17C163.9, 84.04 197.71, 69.35 234.72, 65.25zM106.17, 136.26L177.08, 201.5C169.48, 212.47 164.22, 225.1 161.74, 238.74L65.25, 234.72C69.35, 197.71 84.04, 163.9 106.17, 136.26zM65.25, 277.28L161.74, 273.26C164.22, 286.9 169.48, 299.53 177.08, 310.5L106.17, 375.74C84.04, 348.1 69.35, 314.29 65.25, 277.28zM136.26, 405.83L201.5, 334.92C212.47, 342.52 225.1, 347.78 238.74, 350.26L234.72, 446.75C197.71, 442.65 163.9, 427.96 136.26, 405.83zM277.28, 446.75L273.26, 350.26C286.9, 347.78 299.53, 342.52 310.5, 334.92L375.74, 405.83C348.1, 427.96 314.29, 442.65 277.28, 446.75zM405.83, 375.74L334.92, 310.5C342.52, 299.53 347.78, 286.9 350.26, 273.26L446.75, 277.28C442.65, 314.29 427.96, 348.1 405.83, 375.74z" fill="#727272" fill-opacity="1" class="Black" />
  </g>
</svg>