<?xml version='1.0' encoding='UTF-8'?>
<svg viewBox="-3.7483 -2 32 32" xmlns="http://www.w3.org/2000/svg">
  <g transform="matrix(0.0547, 0, 0, 0.0547, 0, 0)">
    <path d="M253, 13.4C237.7, -4.5 210.2, -4.5 194.9, 13.4L9.3, 230.9C-3.1, 245.4 -3.1, 266.5 9.3, 281.1L195, 498.6C210.3, 516.5 237.8, 516.5 253.1, 498.6L438.7, 281.1C451.1, 266.6 451.1, 245.5 438.7, 230.9L253, 13.4zM414.4, 260.3L228.7, 477.8C226.2, 480.7 221.8, 480.7 219.3, 477.8L33.6, 260.3C31.5, 257.8 31.5, 254.1 33.6, 251.7L219.3, 34.2C221.8, 31.3 226.2, 31.3 228.7, 34.2L414.4, 251.7C416.5, 254.2 416.5, 257.8 414.4, 260.3z" fill="#727272" fill-opacity="1" class="Black" />
  </g>
</svg>