<?xml version='1.0' encoding='UTF-8'?>
<svg viewBox="-3.7484 -1.9975 32 32" xmlns="http://www.w3.org/2000/svg">
  <g transform="matrix(0.0547, 0, 0, 0.0547, 0, 0)">
    <path d="M431.88, 116.13L239.88, 4.3A31.478 31.478 0 0 0 208.12, 4.3L16.12, 116.14C6.15, 121.94 0, 132.75 0, 144.46L0, 367.55C0, 379.26 6.15, 390.06 16.12, 395.87L208.12, 507.7A31.478 31.478 0 0 0 239.88, 507.7L431.88, 395.87C441.85, 390.06 448, 379.25 448, 367.55L448, 144.46C448, 132.75 441.85, 121.94 431.88, 116.13zM224, 32.08L399.75, 134.94L224, 237.48L47.83, 134.7L224, 32.08zM32.21, 162.65L208, 265.18L208, 470.55L32, 367.54L32.21, 162.65zM240, 470.84L240, 265.18L415.98, 162.54L415.77, 368.21L240, 470.84z" fill="#727272" fill-opacity="1" class="Black" />
  </g>
</svg>