<?xml version='1.0' encoding='UTF-8'?>
<svg viewBox="-2 0 32 32" xmlns="http://www.w3.org/2000/svg">
  <g transform="matrix(0.0625, 0, 0, 0.0625, 0, 0)">
    <path d="M384, 32L64, 32C28.65, 32 0, 60.65 0, 96L0, 416C0, 451.35 28.65, 480 64, 480L384, 480C419.35, 480 448, 451.35 448, 416L448, 96C448, 60.65 419.35, 32 384, 32zM416, 416C416, 433.64 401.64, 448 384, 448L64, 448C46.36, 448 32, 433.64 32, 416L32, 96C32, 78.36 46.36, 64 64, 64L384, 64C401.64, 64 416, 78.36 416, 96L416, 416zM224, 232C210.75, 232 200, 242.74 200, 256C200, 269.25 210.75, 280 224, 280C237.25, 280 248, 269.25 248, 256C248, 242.74 237.25, 232 224, 232z" fill="#727272" fill-opacity="1" class="Black" />
  </g>
</svg>