<?xml version='1.0' encoding='UTF-8'?>
<svg viewBox="-1.9998 -2.0036 31.9975 32" xmlns="http://www.w3.org/2000/svg">
  <g transform="matrix(0.0547, 0, 0, 0.0547, 0, 0)">
    <path d="M502.1, 232.1L279.9, 9.9C273.3, 3.3 264.6, 0 256, 0C247.4, 0 238.7, 3.3 232.1, 9.9L9.9, 232.1C-3.3, 245.3 -3.3, 266.6 9.9, 279.8L232.1, 502C238.7, 508.6 247.3, 511.9 256, 511.9C264.7, 511.9 273.3, 508.6 279.9, 502L502.1, 279.8C515.3, 266.7 515.3, 245.3 502.1, 232.1zM240, 464.7L61.2, 285.9L240, 362.5zM240, 327.7L43.7, 243.6L240, 47.3zM272, 464.7L272, 362.5L450.8, 285.9zM272, 327.7L272, 47.3L468.3, 243.6z" fill="#727272" fill-opacity="1" class="Black" />
  </g>
</svg>