<?xml version='1.0' encoding='UTF-8'?>
<svg viewBox="-2.0011 -1.9998 32 31.9975" xmlns="http://www.w3.org/2000/svg">
  <g transform="matrix(0.0547, 0, 0, 0.0547, 0, 0)">
    <path d="M504.9, 289.03L280.84, 11.86C274.45, 3.96 265.23, 0 256, 0C246.77, 0 237.55, 3.96 231.15, 11.86L7.1, 289.03C-4.21, 303.03 -1.74, 323.6 12.57, 334.52L236.62, 505.46C242.34, 509.83 249.17, 512.01 256, 512.01C262.83, 512.01 269.66, 509.83 275.38, 505.46L499.43, 334.52C513.74, 323.6 516.21, 303.02 504.9, 289.03zM31.99, 309.14L240, 51.75L240, 467.79L31.99, 309.14zM256.02, 480L256.05, 480L256.04, 480.01L256.02, 480zM272, 467.82L272, 51.82L480.02, 309.08L272, 467.82z" fill="#727272" fill-opacity="1" class="Black" />
  </g>
</svg>