<?xml version='1.0' encoding='UTF-8'?>
<svg viewBox="-2 -2 32 32" xmlns="http://www.w3.org/2000/svg">
  <g transform="matrix(0.0547, 0, 0, 0.0547, 0, 0)">
    <path d="M505.24, 178.49L457.54, 83.08A63.972 63.972 0 0 0 428.92, 54.46L333.51, 6.76A63.905 63.905 0 0 0 304.89, 0L207.11, 0C197.17, 0 187.38, 2.31 178.49, 6.76L83.08, 54.46A63.972 63.972 0 0 0 54.46, 83.08L6.76, 178.49A63.874 63.874 0 0 0 0, 207.11L0, 304.89C0, 314.83 2.31, 324.62 6.76, 333.51L54.46, 428.92A63.972 63.972 0 0 0 83.08, 457.54L178.49, 505.24A64.07 64.07 0 0 0 207.11, 512L304.89, 512C314.83, 512 324.62, 509.69 333.51, 505.24L428.92, 457.54A63.972 63.972 0 0 0 457.54, 428.92L505.24, 333.51A64.07 64.07 0 0 0 512, 304.89L512, 207.11C512, 197.17 509.69, 187.37 505.24, 178.49zM475.69, 190.93L380.11, 300.16L272, 246.11L272, 140.22L428.94, 97.42L475.69, 190.93zM308.8, 480L203.2, 480L147.91, 327.94L256, 273.89L364.09, 327.94L308.8, 480zM199.55, 32L312.44, 32L395.29, 73.42L256, 111.41L116.71, 73.42L199.55, 32zM83.06, 97.42L240, 140.22L240, 246.1L131.89, 300.15L36.31, 190.93L83.06, 97.42zM32, 312.45L32, 234.57L113.99, 328.27L162.41, 461.43L87.85, 424.15L32, 312.45zM424.15, 424.15L349.59, 461.43L398.01, 328.27L480, 234.57L480, 312.45L424.15, 424.15z" fill="#727272" fill-opacity="1" class="Black" />
  </g>
</svg>