<?xml version='1.0' encoding='UTF-8'?>
<svg viewBox="-2 -4.7992 32 32" xmlns="http://www.w3.org/2000/svg">
  <g transform="matrix(0.9988, 0, 0, 0.9988, 0, 0)">
    <g transform="matrix(0.0438, 0, 0, 0.0438, 0, 0)">
      <path d="M608.64, 47.56C603.02, 38.01 591.58, 32 579.27, 32C576.74, 32 574.17, 32.25 571.61, 32.78L444.65, 75.56A390.24 390.24 0 0 1 320, 96C277.62, 96 235.52, 89.1 195.35, 75.56L68.39, 32.78C65.83, 32.25 63.26, 32 60.74, 32C48.43, 32 36.99, 38.01 31.36, 47.56C-10.45, 118.5 -10.45, 265.51 31.36, 336.45C36.99, 345.99 48.42, 352 60.74, 352C63.27, 352 65.83, 351.75 68.39, 351.22L195.35, 308.44C199.64, 306.99 204.09, 306.14 208.43, 304.88L152.2, 399.67A31.992 31.992 0 0 0 151.91, 431.83A32.007 32.007 0 0 0 179.72, 447.99L199.92, 447.99L215.53, 467.8A32.009 32.009 0 0 0 240.66, 479.99C252.22, 479.99 262.89, 473.75 268.56, 463.67L320.03, 372.1L371.56, 463.6A32.004 32.004 0 0 0 424.59, 467.7L440.11, 447.99L460.46, 447.98A31.997 31.997 0 0 0 487.95, 399.63L431.65, 304.9C435.97, 306.15 440.38, 307 444.65, 308.44L571.61, 351.22C574.17, 351.75 576.74, 352 579.27, 352C591.58, 352 603.02, 345.99 608.65, 336.45C650.45, 265.51 650.45, 118.5 608.64, 47.56zM185.13, 278.11L60.74, 320.03L60.74, 320C59.94, 320 59.29, 319.84 58.99, 319.84C58.83, 319.84 58.76, 319.89 58.83, 320.04C22.91, 258.86 22.94, 124.86 58.3, 64.61C58.45, 64.49 59.17, 64.1 61.12, 64.1L185.14, 105.89C203.13, 111.95 221.48, 116.47 240.01, 120.04L240.01, 251.66L231.66, 265.73C215.98, 269.07 200.41, 272.96 185.13, 278.11zM424.56, 416L399.44, 447.91L320, 306.84L240.66, 448L215.44, 416L179.72, 416L272, 260.44L272, 124.94C287.91, 126.76 303.9, 128.01 320, 128.01C336.1, 128.01 352.09, 126.76 368, 124.94L368, 260.44L460.44, 415.99L424.56, 416zM581.7, 319.39C581.55, 319.5 580.83, 319.89 578.87, 319.89L454.87, 278.1C439.6, 272.96 424.04, 269.06 408.37, 265.72L400, 251.65L400, 120.05C418.52, 116.47 436.88, 111.96 454.87, 105.9L579.18, 64L579.27, 64C580.07, 64 580.72, 64.16 581.02, 64.16C581.18, 64.16 581.24, 64.11 581.18, 63.96C617.09, 125.14 617.06, 259.15 581.7, 319.39z" fill="#727272" fill-opacity="1" class="Black" />
    </g>
  </g>
</svg>