<?xml version='1.0' encoding='UTF-8'?>
<svg viewBox="-1.9975 -2 32 32" xmlns="http://www.w3.org/2000/svg">
  <g transform="matrix(0.0547, 0, 0, 0.0547, 0, 0)">
    <path d="M502.61, 233.32L278.68, 9.39C272.42, 3.13 264.21, 0 256, 0C247.79, 0 239.58, 3.13 233.32, 9.39L9.39, 233.32C-3.13, 245.85 -3.13, 266.15 9.39, 278.68L233.32, 502.61C239.58, 508.87 247.79, 512 256, 512C264.21, 512 272.42, 508.87 278.68, 502.61L502.61, 278.68C515.13, 266.15 515.13, 245.85 502.61, 233.32zM255.95, 479.98L32.02, 255.95L255.95, 32.01C255.96, 32.01 255.97, 32 256, 32L256.05, 32.02L479.98, 256.05L255.95, 479.98zM330.89, 224L208, 224C181.49, 224 160, 245.49 160, 272L160, 312C160, 316.42 163.58, 320 168, 320L184, 320C188.42, 320 192, 316.42 192, 312L192, 272C192, 263.16 199.16, 256 208, 256L330.89, 256L276.26, 306.43C273.01, 309.43 272.81, 314.49 275.81, 317.73L286.65, 329.47C289.65, 332.72 294.71, 332.92 297.95, 329.92L376.35, 257.56C381.22, 253.04 384.01, 246.62 384.01, 239.98C384.01, 233.34 381.23, 226.92 376.29, 222.36L297.95, 150.05C294.7, 147.05 289.64, 147.26 286.65, 150.5L275.81, 162.24C272.81, 165.49 273.02, 170.55 276.26, 173.54L330.89, 224z" fill="#727272" fill-opacity="1" class="Black" />
  </g>
</svg>