<?xml version='1.0' encoding='UTF-8'?>
<svg viewBox="-2 -1.9988 32 32" xmlns="http://www.w3.org/2000/svg">
  <g transform="matrix(0.0547, 0, 0, 0.0547, 0, 0)">
    <path d="M256, 224A32 32 0 1 0 288, 256A32 32 0 0 0 256, 224zM504, 448L480, 448L480, 96A64 64 0 0 0 416, 32L96, 32A64 64 0 0 0 32, 96L32, 448L8, 448A8 8 0 0 0 0, 456L0, 472A8 8 0 0 0 8, 480L504, 480A8 8 0 0 0 512, 472L512, 456A8 8 0 0 0 504, 448zM448, 448L64, 448L64, 96A32 32 0 0 1 96, 64L416, 64A32 32 0 0 1 448, 96zM256, 96A160 160 0 1 0 416, 256A160 160 0 0 0 256, 96zM256, 384A128 128 0 1 1 384, 256A128.14 128.14 0 0 1 256, 384z" fill="#727272" fill-opacity="1" class="Black" />
  </g>
</svg>