<?xml version='1.0' encoding='UTF-8'?>
<svg viewBox="-1.9974 -1.9974 32 31.9975" xmlns="http://www.w3.org/2000/svg">
  <g transform="matrix(0.0547, 0, 0, 0.0547, 0, 0)">
    <path d="M463.92, 185.06L401, 163.75C388, 159.34 378.5, 150.17 375.6, 139.22L360.6, 83.06C354.32, 59.68 335.04, 41.65 309, 34.82C280.3, 27.32 250.17, 35 230.61, 55L187.36, 99.29C178.17, 108.67 163.86, 113.69 149.24, 112.45L81.86, 107.23C50.55, 104.81 21.43, 119.34 7.68, 144.23C-4, 165.42 -2.26, 189.86 12.43, 209.63L48.55, 258.32C55.36, 267.51 56.43, 278.41 51.46, 288.24L24.8, 341.17C14.12, 362.39 16.55, 386.43 31.3, 405.5C49.15, 428.56 80.49, 439.15 111.36, 432.5L177, 418.36C191.54, 415.23 206.57, 418.28 217.57, 426.43L268.47, 464.34A81.26 81.26 0 0 0 316.86, 480A83.83 83.83 0 0 0 351.57, 472.52C375.01, 461.86 390.07, 441.52 391.85, 418.17L396.29, 360.71C397.1, 349.84 404.57, 339.79 416.29, 333.85L474.42, 304.38C499.29, 291.76 513.63, 268.16 511.85, 242.8C510, 216.58 491.6, 194.47 463.92, 185.06zM459.92, 275.85L401.79, 305.32C380.04, 316.37 366.04, 336.17 364.39, 358.32L360, 415.73C358.75, 432.39 344.47, 440.62 338.38, 443.4C321.66, 451.03 301.72, 449.22 287.6, 438.69L236.66, 400.76C223, 390.61 205.66, 385.17 188.1, 385.17A83.84 83.84 0 0 0 170.26, 387.07L104.66, 401.26C81.66, 406.26 64.51, 396.07 56.66, 385.9C52.48, 380.5 46.51, 369.35 53.44, 355.56L80, 302.66C90.47, 281.94 88.31, 258.26 74.22, 239.25L38.12, 190.56C28.4, 177.47 32.43, 165.63 35.68, 159.73C43.43, 145.73 61.02, 137.83 79.36, 139.14L146.74, 144.36C171.05, 146.23 194.52, 137.75 210.24, 121.65L253.48, 77.39C264.86, 65.75 283.55, 61.2 301, 65.79C315.75, 69.65 326.53, 79.2 329.75, 91.33L344.75, 147.47C350.47, 168.8 367.69, 186.2 390.84, 194.06L453.68, 215.38C469.21, 220.64 479.06, 231.74 479.99, 245.07C480.82, 257.54 473.32, 269.05 459.92, 275.85zM160, 192A32 32 0 1 0 192, 224A32 32 0 0 0 160, 192zM288, 288A32 32 0 1 0 320, 320A32 32 0 0 0 288, 288zM304, 192A16 16 0 1 0 320, 208A16 16 0 0 0 304, 192z" fill="#727272" fill-opacity="1" class="Black" />
  </g>
</svg>