<?xml version='1.0' encoding='UTF-8'?>
<svg viewBox="-1.9998 2.6657 31.9975 32" xmlns="http://www.w3.org/2000/svg">
  <g transform="matrix(0.0729, 0, 0, 0.0729, 0, 0)">
    <path d="M376, 232L8, 232C3.58, 232 0, 235.58 0, 240L0, 272C0, 276.42 3.58, 280 8, 280L376, 280C380.42, 280 384, 276.42 384, 272L384, 240C384, 235.58 380.42, 232 376, 232zM192, 336C165.54, 336 144, 357.54 144, 384C144, 410.46 165.54, 432 192, 432C218.46, 432 240, 410.46 240, 384C240, 357.54 218.46, 336 192, 336zM192, 176C218.46, 176 240, 154.46 240, 128C240, 101.54 218.46, 80 192, 80C165.54, 80 144, 101.54 144, 128C144, 154.46 165.54, 176 192, 176z" fill="#727272" fill-opacity="1" class="Black" />
  </g>
</svg>