<?xml version='1.0' encoding='UTF-8'?>
<svg viewBox="-1.9999 -1.549 31.9975 32" xmlns="http://www.w3.org/2000/svg">
  <g transform="matrix(0.999, 0, 0, 0.999, 0, 0)">
    <g transform="matrix(0.0565, 0, 0, 0.0565, 0, 0)">
      <path d="M248, 8C111, 8 0, 119 0, 256C0, 393 111, 504 248, 504C385, 504 496, 393 496, 256C496, 119 385, 8 248, 8zM248, 472C128.9, 472 32, 375.1 32, 256C32, 136.9 128.9, 40 248, 40C367.1, 40 464, 136.9 464, 256C464, 375.1 367.1, 472 248, 472zM248, 288C212.7, 288 184, 316.7 184, 352C184, 387.3 212.7, 416 248, 416C283.3, 416 312, 387.3 312, 352C312, 316.7 283.3, 288 248, 288zM248, 384C230.4, 384 216, 369.6 216, 352C216, 334.4 230.4, 320 248, 320C265.6, 320 280, 334.4 280, 352C280, 369.6 265.6, 384 248, 384zM219.3, 243.3C225.5, 237.1 225.5, 226.9 219.3, 220.7L190.6, 192L219.3, 163.3C225.5, 157.1 225.5, 146.9 219.3, 140.7C213.1, 134.5 202.9, 134.5 196.7, 140.7L168, 169.4L139.3, 140.7C133.1, 134.5 122.9, 134.5 116.7, 140.7C110.5, 146.9 110.5, 157.1 116.7, 163.3L145.4, 192L116.7, 220.7C110.5, 226.9 110.5, 237.1 116.7, 243.3C122.9, 249.5 133.1, 249.6 139.3, 243.3L168, 214.6L196.7, 243.3C202.9, 249.6 213.1, 249.6 219.3, 243.3zM379.3, 140.7C373.1, 134.5 362.9, 134.5 356.7, 140.7L328, 169.4L299.3, 140.7C293.1, 134.5 282.9, 134.5 276.7, 140.7C270.5, 146.9 270.5, 157.1 276.7, 163.3L305.4, 192L276.7, 220.7C270.5, 226.9 270.5, 237.1 276.7, 243.3C282.9, 249.5 293.1, 249.6 299.3, 243.3L328, 214.6L356.7, 243.3C362.9, 249.5 373.1, 249.6 379.3, 243.3C385.5, 237.1 385.5, 226.9 379.3, 220.7L350.6, 192L379.3, 163.3C385.6, 157.1 385.6, 146.9 379.3, 140.7z" fill="#727272" fill-opacity="1" class="Black" />
    </g>
  </g>
</svg>