<?xml version='1.0' encoding='UTF-8'?>
<svg viewBox="-5.5003 -2 32 32" xmlns="http://www.w3.org/2000/svg">
  <g transform="matrix(0.0547, 0, 0, 0.0547, 0, 0)">
    <path d="M0, 503.5C-0.3, 508.1 3.3, 512 8, 512L24.1, 512C28.3, 512 31.8, 508.9 32.1, 504.7C32.5, 499.1 33.5, 490.6 35.6, 480L348.2, 480C350.4, 490.7 351.5, 499.3 351.9, 504.8C352.3, 508.9 355.7, 512 359.9, 512L376, 512C380.7, 512 384.3, 508.1 384, 503.5C381.7, 472 365.5, 361.5 251.8, 275.6C242.5, 281.9 232.6, 288 222.2, 293.9C248.2, 312.3 268.8, 332.1 285.4, 352.1L97.7, 352.1C121.8, 323.3 154.7, 294.6 199.7, 270.1C360.9, 182.3 381.4, 44.4 384, 8.5C384.3, 3.9 380.7, 0 376, 0L359.9, 0C355.7, 0 352.2, 3.1 351.9, 7.3C351.5, 12.9 350.5, 21.5 348.4, 32.1L35.8, 32.1C33.6, 21.4 32.6, 12.8 32.1, 7.3C31.7, 3.2 28.3, 0.1 24.1, 0.1L8, 0C3.4, 0 -0.3, 3.9 0, 8.5C2.5, 42.5 21.7, 168 161, 255.8C21.3, 343.6 2.5, 469.5 0, 503.5zM340, 64C333.7, 83.2 324.1, 105.2 309.6, 128L75, 128C60.6, 105.1 50.9, 83.2 44.5, 64L340, 64zM192, 237.4C151.3, 214.1 120.8, 187.2 98.2, 160L286.3, 160C263.6, 187.1 232.9, 213.9 192, 237.4zM44, 448C50.3, 428.8 59.9, 406.9 74.4, 384L308.9, 384C323.4, 406.9 333.1, 428.9 339.5, 448L44, 448z" fill="#727272" fill-opacity="1" class="Black" />
  </g>
</svg>