<?xml version='1.0' encoding='UTF-8'?>
<svg viewBox="-8.9994 -2 32 32" xmlns="http://www.w3.org/2000/svg">
  <g transform="matrix(0.0547, 0, 0, 0.0547, 0, 0)">
    <path d="M191.9, 259.3L73.7, 222.2C49.2, 214.5 32, 189 32, 160.3C32, 124.8 57.6, 96 89, 96L162.8, 96C185, 96 206.1, 104.6 222.9, 120.5C226, 123.4 230.7, 123.7 233.9, 120.8L245.8, 110C249.2, 106.9 249.4, 101.6 246.2, 98.4C223.4, 76.4 193.5, 63.9 162.9, 63.9L144, 63.9L144, 8C144, 3.6 140.4, 0 136, 0L120, 0C115.6, 0 112, 3.6 112, 8L112, 64L89, 64C39.9, 64 0, 107.2 0, 160.3C0, 202.9 26.4, 240.9 64.1, 252.7L182.3, 289.8C206.9, 297.5 224, 323 224, 351.7C224, 387.1 198.4, 416 167, 416L93.2, 416C71, 416 49.9, 407.4 33.1, 391.5C30, 388.6 25.3, 388.3 22.1, 391.2L10.3, 402C7, 405 6.7, 410.4 10, 413.5C32.8, 435.5 62.7, 448 93.3, 448L112, 448L112, 504C112, 508.4 115.6, 512 120, 512L136, 512C140.4, 512 144, 508.4 144, 504L144, 448L167, 448C216.1, 448 256, 404.8 256, 351.7C256, 309.2 229.6, 271.2 191.9, 259.3z" fill="#727272" fill-opacity="1" class="Black" />
  </g>
</svg>