<?xml version='1.0' encoding='UTF-8'?>
<svg viewBox="-2 -2.7764 32 32" xmlns="http://www.w3.org/2000/svg">
  <g transform="matrix(0.0486, 0, 0, 0.0486, 0, 0)">
    <path d="M575.6, 309.8L570.5, 294.6C569.1, 290.4 564.6, 288.1 560.4, 289.5L526, 301.1L451.5, 77.9C448.8, 69.8 443.1, 63.2 435.5, 59.4C427.8, 55.6 419.2, 55 411.1, 57.7L176.3, 136L158.3, 85.3C146.9, 53.3 116.7, 32 82.8, 32L8, 32C3.6, 32 0, 35.6 0, 40L0, 56C0, 60.4 3.6, 64 8, 64L82.8, 64C103.1, 64 121.2, 76.8 128, 95.9L224.7, 367.8C201.4, 385 187.5, 414.3 193.3, 446.7C198.9, 478 223.7, 503.7 254.8, 510.2C306.5, 520.9 352, 481.8 352, 432C352, 418.9 348.6, 406.8 343, 395.9L570.5, 319.9C574.7, 318.5 577, 314 575.6, 309.8zM187, 166.1L293.4, 130.6L318.4, 205.5C319.8, 209.7 324.3, 212 328.5, 210.6L343.7, 205.5C347.9, 204.1 350.2, 199.6 348.8, 195.4L323.8, 120.5L421.2, 88L495.7, 311.3L321.3, 369.4C307.6, 358.7 290.7, 352 272, 352C265.7, 352 259.7, 352.9 253.9, 354.3L187, 166.1zM272, 480C245.5, 480 224, 458.5 224, 432C224, 405.5 245.5, 384 272, 384C298.5, 384 320, 405.5 320, 432C320, 458.5 298.5, 480 272, 480z" fill="#727272" fill-opacity="1" class="Black" />
  </g>
</svg>