<?xml version='1.0' encoding='UTF-8'?>
<svg viewBox="-2 -4.7992 32 32" xmlns="http://www.w3.org/2000/svg">
  <g transform="matrix(0.9988, 0, 0, 0.9988, 0, 0)">
    <g transform="matrix(0.0438, 0, 0, 0.0438, 0, 0)">
      <path d="M208, 352L592, 352C600.8, 352 608, 344.8 608, 336L608, 80C608, 71.2 600.8, 64 592, 64L208, 64C199.2, 64 192, 71.2 192, 80L192, 336C192, 344.8 199.2, 352 208, 352zM352, 96L448, 96L448, 176.7L411.9, 162.3L400, 157.5L388.1, 162.3L352, 176.7L352, 96zM224, 96L320, 96L320, 224L400, 192L480, 224L480, 96L576, 96L576, 320L224, 320L224, 96zM632, 416L128, 416L128, 8C128, 3.6 124.4, 0 120, 0L8, 0C3.6, 0 0, 3.6 0, 8L0, 24C0, 28.4 3.6, 32 8, 32L96, 32L96, 440C96, 444.4 99.6, 448 104, 448L162.9, 448C161.1, 453 160, 458.4 160, 464C160, 490.5 181.5, 512 208, 512C234.5, 512 256, 490.5 256, 464C256, 458.4 254.8, 453 253.1, 448L451, 448C449.2, 453 448.1, 458.4 448.1, 464C448.1, 490.5 469.6, 512 496.1, 512C522.6, 512 544.1, 490.5 544.1, 464C544.1, 458.4 542.9, 453 541.2, 448L632, 448C636.4, 448 640, 444.4 640, 440L640, 424C640, 419.6 636.4, 416 632, 416zM208, 480C199.2, 480 192, 472.8 192, 464C192, 455.2 199.2, 448 208, 448C216.8, 448 224, 455.2 224, 464C224, 472.8 216.8, 480 208, 480zM496, 480C487.2, 480 480, 472.8 480, 464C480, 455.2 487.2, 448 496, 448C504.8, 448 512, 455.2 512, 464C512, 472.8 504.8, 480 496, 480z" fill="#727272" fill-opacity="1" class="Black" />
    </g>
  </g>
</svg>