<?xml version='1.0' encoding='UTF-8'?>
<svg viewBox="-1.9998 -4.8002 31.9975 32" xmlns="http://www.w3.org/2000/svg">
  <g transform="matrix(0.9988, 0, 0, 0.9988, 0, 0)">
    <g transform="matrix(0.0438, 0, 0, 0.0438, 0, 0)">
      <path d="M400, 288C417.67, 288 432, 273.67 432, 256C432, 238.33 417.67, 224 400, 224C382.33, 224 368, 238.33 368, 256C368, 273.67 382.33, 288 400, 288zM632, 480L512, 480L512, 32C512, 14.33 497.67, 0 480, 0L160, 0C142.33, 0 128, 14.33 128, 32L128, 480L8, 480C3.58, 480 0, 483.58 0, 488L0, 504C0, 508.42 3.58, 512 8, 512L632, 512C636.42, 512 640, 508.42 640, 504L640, 488C640, 483.58 636.42, 480 632, 480zM480, 480L160, 480L160, 32L480, 32L480, 480z" fill="#727272" fill-opacity="1" class="Black" />
    </g>
  </g>
</svg>