<?xml version='1.0' encoding='UTF-8'?>
<svg viewBox="-1.5477 -1.5477 32 32" xmlns="http://www.w3.org/2000/svg">
  <g transform="matrix(0.9991, 0, 0, 0.9991, 0, 0)">
    <g transform="matrix(0.0565, 0, 0, 0.0565, 0, 0)">
      <path d="M256, 8C119.033, 8 8, 119.033 8, 256C8, 392.967 119.033, 504 256, 504C392.967, 504 504, 392.967 504, 256C504, 119.033 392.967, 8 256, 8zM256, 472C137.337, 472 40, 375.945 40, 256C40, 137.337 136.055, 40 256, 40C374.663, 40 472, 136.055 472, 256C472, 374.663 375.945, 472 256, 472zM256, 176C211.817, 176 176, 211.817 176, 256C176, 300.183 211.817, 336 256, 336C300.183, 336 336, 300.183 336, 256C336, 211.817 300.183, 176 256, 176zM256, 304C229.533, 304 208, 282.467 208, 256C208, 229.533 229.533, 208 256, 208C282.467, 208 304, 229.533 304, 256C304, 282.467 282.467, 304 256, 304z" fill="#727272" fill-opacity="1" class="Black" />
    </g>
  </g>
</svg>