<?xml version='1.0' encoding='UTF-8'?>
<svg viewBox="-2.0011 -1.9998 32 31.9975" xmlns="http://www.w3.org/2000/svg">
  <g transform="matrix(0.0547, 0, 0, 0.0547, 0, 0)">
    <path d="M433.86, 304.31C455.33, 286.14 474.45, 264.97 489.61, 240.51C491.99, 236.68 490.62, 231.56 486.72, 229.3L472.86, 221.27C469.13, 219.11 464.45, 220.38 462.17, 224.04C449.88, 243.79 434.68, 261.12 417.66, 276.24L339.95, 141.65C347.39, 128.03 352, 112.63 352, 96C352, 42.98 309.02, 0 256, 0C202.98, 0 160, 42.98 160, 96C160, 112.63 164.61, 128.03 172.05, 141.66L96.11, 273.19C80.3, 258.75 65.9, 242.62 54.34, 224.05C52.06, 220.39 47.38, 219.11 43.65, 221.28L29.79, 229.31C25.89, 231.57 24.52, 236.68 26.9, 240.52C41.33, 263.81 59.66, 283.74 79.9, 301.28L0, 439.66L7.02, 497.91C8.03, 506.26 15.13, 512.01 22.9, 512.01C24.98, 512.01 27.11, 511.6 29.19, 510.71L83.14, 487.67L161.99, 351.1C192.36, 362.81 224.82, 369.43 258.25, 369.43C290.32, 369.43 321.52, 363.31 350.88, 352.61L428.86, 487.67L482.81, 510.71C484.88, 511.59 487.01, 512.01 489.1, 512.01C496.87, 512.01 503.98, 506.26 504.98, 497.91L512, 439.66L433.86, 304.31zM392.11, 295.99C383.24, 301.96 374, 307.29 364.42, 312.03L291.16, 185.14C301.27, 181.15 310.35, 175.36 318.44, 168.38L392.11, 295.99zM256, 32C291.35, 32 320, 60.65 320, 96C320, 131.35 291.35, 160 256, 160C220.65, 160 192, 131.35 192, 96C192, 60.65 220.65, 32 256, 32zM60.76, 462.42L36.24, 472.89L33.05, 446.42L193.57, 168.38C201.66, 175.36 210.74, 181.15 220.85, 185.14L60.76, 462.42zM258.25, 337.41C230.52, 337.41 203.53, 332.3 178.14, 323.11L253.95, 191.8C254.65, 191.82 255.29, 192.01 255.99, 192.01C256.69, 192.01 257.34, 191.82 258.03, 191.8L334.57, 324.37C310.24, 332.59 284.61, 337.41 258.25, 337.41zM475.76, 472.89L451.24, 462.42L380.42, 339.76C389.96, 334.94 399.16, 329.56 408.08, 323.66L478.95, 446.42L475.76, 472.89z" fill="#727272" fill-opacity="1" class="Black" />
  </g>
</svg>