<?xml version='1.0' encoding='UTF-8'?>
<svg viewBox="-2 -0.0014 32 32" xmlns="http://www.w3.org/2000/svg">
  <g transform="matrix(0.0625, 0, 0, 0.0625, 0, 0)">
    <path d="M400, 354.26L400, 157.74C427.56, 150.6 448, 125.79 448, 96C448, 60.65 419.35, 32 384, 32C354.21, 32 329.4, 52.45 322.26, 80L125.74, 80C118.6, 52.45 93.79, 32 64, 32C28.65, 32 0, 60.65 0, 96C0, 125.79 20.44, 150.6 48, 157.74L48, 354.27C20.44, 361.4 0, 386.21 0, 416C0, 451.35 28.65, 480 64, 480C93.79, 480 118.6, 459.56 125.74, 432L322.27, 432C329.41, 459.56 354.22, 480 384.01, 480C419.36, 480 448.01, 451.35 448.01, 416C448, 386.21 427.56, 361.4 400, 354.26zM322.26, 400L125.74, 400C119.94, 377.59 102.42, 360.07 80, 354.26L80, 157.74C102.41, 151.94 119.93, 134.42 125.74, 112L322.27, 112C328.07, 134.41 345.59, 151.93 368.01, 157.74L368.01, 354.27C345.59, 360.07 328.07, 377.59 322.26, 400zM384, 64C401.64, 64 416, 78.36 416, 96C416, 113.64 401.64, 128 384, 128C366.36, 128 352, 113.64 352, 96C352, 78.36 366.36, 64 384, 64zM32, 96C32, 78.36 46.36, 64 64, 64C81.64, 64 96, 78.36 96, 96C96, 113.64 81.64, 128 64, 128C46.36, 128 32, 113.64 32, 96zM64, 448C46.36, 448 32, 433.64 32, 416C32, 398.36 46.36, 384 64, 384C81.64, 384 96, 398.36 96, 416C96, 433.64 81.64, 448 64, 448zM384, 448C366.36, 448 352, 433.64 352, 416C352, 398.36 366.36, 384 384, 384C401.64, 384 416, 398.36 416, 416C416, 433.64 401.64, 448 384, 448z" fill="#727272" fill-opacity="1" class="Black" />
  </g>
</svg>