<?xml version='1.0' encoding='UTF-8'?>
<svg viewBox="-2 -0.0014 32 32" xmlns="http://www.w3.org/2000/svg">
  <g transform="matrix(0.0625, 0, 0, 0.0625, 0, 0)">
    <path d="M384, 352C377.7, 352 371.74, 353.19 365.99, 354.89L333.57, 300.87C344.95, 289.31 352, 273.49 352, 256C352, 238.51 344.95, 222.69 333.58, 211.13L366, 157.11C371.75, 158.81 377.71, 160 384.01, 160C419.36, 160 448.01, 131.35 448.01, 96C448.01, 60.65 419.36, 32 384.01, 32C354.22, 32 329.41, 52.45 322.27, 80L125.74, 80C118.6, 52.45 93.79, 32 64, 32C28.65, 32 0, 60.65 0, 96C0, 125.79 20.44, 150.6 48, 157.74L48, 354.27C20.44, 361.4 0, 386.21 0, 416C0, 451.35 28.65, 480 64, 480C93.79, 480 118.6, 459.56 125.74, 432L322.27, 432C329.41, 459.56 354.22, 480 384.01, 480C419.36, 480 448.01, 451.35 448.01, 416C448, 380.65 419.35, 352 384, 352zM80, 354.26L80, 157.74C102.41, 151.94 119.93, 134.42 125.74, 112L322.27, 112C325.13, 123.04 330.67, 132.99 338.43, 140.87L306.01, 194.89C300.26, 193.19 294.3, 192 288, 192C252.65, 192 224, 220.65 224, 256C224, 291.35 252.65, 320 288, 320C294.3, 320 300.26, 318.81 306.01, 317.11L338.43, 371.13C330.67, 379.01 325.13, 388.96 322.27, 400L125.74, 400A63.814 63.814 0 0 0 80, 354.26zM288, 288C270.36, 288 256, 273.64 256, 256C256, 238.36 270.36, 224 288, 224C305.64, 224 320, 238.36 320, 256C320, 273.64 305.64, 288 288, 288zM384, 64C401.64, 64 416, 78.36 416, 96C416, 113.64 401.64, 128 384, 128C366.36, 128 352, 113.64 352, 96C352, 78.36 366.36, 64 384, 64zM32, 96C32, 78.36 46.36, 64 64, 64C81.64, 64 96, 78.36 96, 96C96, 113.64 81.64, 128 64, 128C46.36, 128 32, 113.64 32, 96zM64, 448C46.36, 448 32, 433.64 32, 416C32, 398.36 46.36, 384 64, 384C81.64, 384 96, 398.36 96, 416C96, 433.64 81.64, 448 64, 448zM384, 448C366.36, 448 352, 433.64 352, 416C352, 398.36 366.36, 384 384, 384C401.64, 384 416, 398.36 416, 416C416, 433.64 401.64, 448 384, 448z" fill="#727272" fill-opacity="1" class="Black" />
  </g>
</svg>