<?xml version='1.0' encoding='UTF-8'?>
<svg viewBox="-2 -2 32 32" xmlns="http://www.w3.org/2000/svg">
  <g transform="matrix(0.0547, 0, 0, 0.0547, 0, 0)">
    <path d="M512, 256C512, 222.49 486.16, 195.31 453.37, 192.54C432.89, 129.04 382.96, 79.11 319.46, 58.63C316.69, 25.84 289.51, 0 256, 0C222.49, 0 195.31, 25.84 192.54, 58.63C129.04, 79.11 79.11, 129.04 58.63, 192.54C25.84, 195.31 0, 222.49 0, 256C0, 289.51 25.84, 316.69 58.63, 319.46C79.11, 382.96 129.04, 432.89 192.54, 453.37C195.31, 486.16 222.49, 512 256, 512C289.51, 512 316.69, 486.16 319.46, 453.37C382.96, 432.89 432.89, 382.96 453.37, 319.46C486.16, 316.69 512, 289.51 512, 256zM256, 32C273.64, 32 288, 46.36 288, 64C288, 81.64 273.64, 96 256, 96C238.36, 96 224, 81.64 224, 64C224, 46.36 238.36, 32 256, 32zM32, 256C32, 238.36 46.36, 224 64, 224C81.64, 224 96, 238.36 96, 256C96, 273.64 81.64, 288 64, 288C46.36, 288 32, 273.64 32, 256zM256, 480C238.36, 480 224, 465.64 224, 448C224, 430.36 238.36, 416 256, 416C273.64, 416 288, 430.36 288, 448C288, 465.64 273.64, 480 256, 480zM314.12, 421.53C304.04, 399.43 281.88, 384 256, 384C230.12, 384 207.96, 399.43 197.88, 421.53C147.72, 403.86 108.15, 364.29 90.48, 314.13C112.57, 304.04 128, 281.88 128, 256C128, 230.12 112.57, 207.96 90.47, 197.88C108.14, 147.71 147.71, 108.15 197.87, 90.48C207.96, 112.57 230.12, 128 256, 128C281.88, 128 304.04, 112.57 314.12, 90.47C364.28, 108.14 403.85, 147.71 421.52, 197.87C399.43, 207.96 384, 230.12 384, 256C384, 281.88 399.43, 304.04 421.53, 314.12C403.85, 364.29 364.28, 403.86 314.12, 421.53zM448, 288C430.36, 288 416, 273.64 416, 256C416, 238.36 430.36, 224 448, 224C465.64, 224 480, 238.36 480, 256C480, 273.64 465.64, 288 448, 288z" fill="#727272" fill-opacity="1" class="Black" />
  </g>
</svg>