<?xml version='1.0' encoding='UTF-8'?>
<svg viewBox="-2.3826 -1.9999 31.995 32" xmlns="http://www.w3.org/2000/svg">
  <g transform="matrix(1.0006, 0, 0, 1.0006, 0, 0)">
    <g transform="matrix(0.0539, 0, 0, 0.0539, 0, 0)">
      <path d="M302.87, 128C309.55, 128 315.62, 125.43 320.98, 121.65A78.85 78.85 0 0 1 319.98, 112A80 80 0 1 1 399.98, 192A78.65 78.65 0 0 1 390.33, 191C386.54, 196.36 383.98, 202.43 383.98, 209.11L383.98, 222.37A111.75 111.75 0 1 0 288, 112A111 111 0 0 0 289.61, 128zM370.75, 163.88L392.2, 142.43C394.76, 143.09 397.2, 144 400, 144A32 32 0 1 0 368, 112C368, 114.77 368.91, 117.24 369.57, 119.8L348.12, 141.25A64 64 0 0 1 302.87, 160L209.13, 160A64 64 0 0 1 163.88, 141.25L142.43, 119.8C143.09, 117.24 144, 114.8 144, 112A32 32 0 1 0 112, 144C114.77, 144 117.24, 143.09 119.8, 142.43L141.25, 163.88A64 64 0 0 1 160, 209.13L160, 302.87A64 64 0 0 1 141.25, 348.12L119.8, 369.57C117.24, 368.91 114.8, 368 112, 368A32 32 0 1 0 144, 400C144, 397.23 143.09, 394.76 142.43, 392.2L163.88, 370.74A64 64 0 0 1 209.13, 352L302.87, 352A64 64 0 0 1 348.12, 370.74L369.57, 392.2C368.91, 394.76 368, 397.2 368, 400A32 32 0 1 0 400, 368C397.23, 368 394.76, 368.91 392.2, 369.57L370.75, 348.12A64 64 0 0 1 352, 302.87L352, 209.13A64 64 0 0 1 370.75, 163.88zM320, 320L192, 320L192, 192L320, 192zM112, 224A111 111 0 0 0 128, 222.39L128, 209.13C128, 202.45 125.43, 196.38 121.65, 191.02A78.65 78.65 0 0 1 112, 192.02A80 80 0 1 1 192, 112.02A78.85 78.85 0 0 1 191, 121.67C196.36, 125.45 202.43, 128.02 209.11, 128.02L222.37, 128.02A111 111 0 0 0 224, 112A112 112 0 1 0 112, 224zM209.13, 384C202.45, 384 196.38, 386.56 191.02, 390.34A79 79 0 0 1 192.02, 400A80 80 0 1 1 112.02, 320A78.85 78.85 0 0 1 121.67, 321C125.46, 315.65 128.02, 309.57 128.02, 302.89L128.02, 289.61A111 111 0 0 0 112, 288A115.6 115.6 0 1 0 222.39, 384zM400, 288A111 111 0 0 0 384, 289.61L384, 302.87C384, 309.55 386.57, 315.62 390.35, 320.98A78.85 78.85 0 0 1 400, 319.98A80 80 0 1 1 320, 399.98A78.65 78.65 0 0 1 321, 390.33C315.64, 386.55 309.57, 383.98 302.89, 383.98L289.61, 383.98A111.75 111.75 0 1 0 400, 288z" fill="#727272" fill-opacity="1" class="Black" />
    </g>
  </g>
</svg>