<?xml version='1.0' encoding='UTF-8'?>
<svg viewBox="-2 -1.9913 32 32" xmlns="http://www.w3.org/2000/svg">
  <g transform="matrix(0.0547, 0, 0, 0.0547, 0, 0)">
    <path d="M414.51, 117.78L504.51, 61.56A16 16 0 0 0 487.57, 34.43L371.68, 106.84C335.19, 99.56 295.14, 96 256, 96C132.7, 96 0, 131 0, 208L0, 368C0, 429.85 114.62, 480 256, 480C397.38, 480 512, 429.85 512, 368L512, 208C512, 165.52 471.48, 135.87 414.51, 117.78zM96, 421.46C55.12, 405.34 32, 384.74 32, 368L32, 265.91C48.53, 278.91 70.55, 289.49 96, 297.71zM240, 447.65C196.86, 446.46 159.07, 440.65 128, 432.05L128, 306.43C162.85, 314.43 201.52, 318.77 240, 319.71zM384, 432.05C352.93, 440.6 315.14, 446.46 272, 447.65L272, 319.71C310.48, 318.77 349.15, 314.41 384, 306.43zM480, 368C480, 384.74 456.88, 405.34 416, 421.46L416, 297.71C441.45, 289.49 463.47, 278.92 480, 265.91zM256, 288C132.29, 288 32, 252.18 32, 208C32, 163.82 132.29, 128 256, 128A598.54 598.54 0 0 1 330.44, 132.61L231.53, 194.43A16 16 0 0 0 248.47, 221.56L377.58, 140.86C439.16, 155.12 480, 179.83 480, 208C480, 252.18 379.71, 288 256, 288z" fill="#727272" fill-opacity="1" class="Black" />
  </g>
</svg>