<?xml version='1.0' encoding='UTF-8'?>
<svg viewBox="-2 -3.554 32 32" xmlns="http://www.w3.org/2000/svg">
  <g transform="matrix(0.0486, 0, 0, 0.0486, 0, 0)">
    <path d="M288, 32C128.94, 32 0, 89.31 0, 160L0, 352C0, 422.69 128.94, 480 288, 480C447.06, 480 576, 422.69 576, 352L576, 160C576, 89.31 447.06, 32 288, 32zM288, 64C313.68, 64 338.43, 65.46 361.82, 68.09L346.37, 128.17C341.86, 145.72 315.67, 160 288, 160C260.33, 160 234.14, 145.73 229.63, 128.18L214.18, 68.09C237.57, 65.46 262.32, 64 288, 64zM382.84, 249.12C353.49, 253.52 321.54, 256 288, 256C254.21, 256 222.04, 253.48 192.51, 249.03C212.58, 229.38 225.89, 203.59 229.63, 175.56C245.95, 185.92 266.66, 192 288, 192C309.02, 192 329.47, 186.13 345.68, 176.05C349.32, 204.13 362.73, 229.79 382.84, 249.12zM178.26, 73.37L195.23, 133.41C207.28, 176.07 187.59, 220.12 150.5, 240.88C79.32, 223.84 32, 194.02 32, 160C32, 121.73 91.87, 88.79 178.26, 73.37zM544, 352C544, 391.14 444.27, 448 288, 448C131.73, 448 32, 391.14 32, 352L32, 218.47C79.81, 259.73 176.38, 288 288, 288C399.62, 288 496.19, 259.73 544, 218.46L544, 352zM425.61, 240.87C389.57, 222.18 369.06, 181.03 378.65, 139.71L394.21, 72.73C482.52, 87.87 544, 121.21 544, 160C544, 194 496.72, 223.81 425.61, 240.87z" fill="#727272" fill-opacity="1" class="Black" />
  </g>
</svg>