<?xml version='1.0' encoding='UTF-8'?>
<svg viewBox="-2 -1.9962 32 32" xmlns="http://www.w3.org/2000/svg">
  <g transform="matrix(0.0547, 0, 0, 0.0547, 0, 0)">
    <path d="M471.25, 57.59A169.77 169.77 0 0 0 348.47, 0.06C301.57, -1.22 255.6, 16.69 222.47, 49.71C195.63, 76.34 160, 119.94 160, 190.56L160, 259.86L116.66, 303.21C113.53, 306.35 107.55, 308.53 99.44, 305.27A72.53 72.53 0 0 0 0, 372.66C0, 394.19 15.58, 441.72 67.71, 444.33C69.71, 483.7 102.06, 512 139.39, 512C191.24, 512 225.65, 459.78 206.78, 412.59C205.78, 410.06 202.9, 401.31 208.84, 395.38L252.14, 352L322.26, 352C361.13, 352 395.26, 341.81 426.6, 320.84C473.04, 289.84 503.6, 241.16 510.6, 187.34C516.74, 139.21 502.78, 93.11 471.25, 57.59zM186.25, 372.73C173.15, 385.81 169.63, 405.59 177.09, 424.47C200.56, 483.17 102.72, 503.35 99.69, 442.73L98.24, 413.82L69.33, 412.37C18.71, 409.83 20.33, 332.07 72.54, 332.07A40 40 0 0 1 87.54, 334.96C105.26, 342.09 125.54, 339.66 139.35, 325.84L165.35, 299.84A80.2 80.2 0 0 0 212.28, 346.71zM478.84, 183.29C473.18, 227.29 447.03, 268.75 408.84, 294.29C382.93, 311.6 354.62, 320 322.28, 320L240.38, 320A48.24 48.24 0 0 1 192, 272L192, 190.55C192, 145.26 208.35, 108.82 245, 72.4A137.74 137.74 0 0 1 343, 32Q345.21, 32 347.5, 32.06A137.92 137.92 0 0 1 447.31, 78.85C472.62, 107.34 483.84, 144.44 478.84, 183.29z" fill="#727272" fill-opacity="1" class="Black" />
  </g>
</svg>