<?xml version='1.0' encoding='UTF-8'?>
<svg viewBox="-3.7495 -2.0524 32 31.9975" xmlns="http://www.w3.org/2000/svg">
  <g transform="matrix(0.0547, 0, 0, 0.0547, 0, 0)">
    <path d="M384, -1L64, -1A64 64 0 0 0 0, 63L0, 479A32 32 0 0 0 32, 511L416, 511A32 32 0 0 0 448, 479L448, 63A64 64 0 0 0 384, -1zM416, 479L32, 479L32, 63A32 32 0 0 1 64, 31L384, 31A32 32 0 0 1 416, 63zM80, 95A16 16 0 1 0 64, 79A16 16 0 0 0 80, 95zM144, 95A16 16 0 1 0 128, 79A16 16 0 0 0 144, 95zM224, 127A160 160 0 1 0 384, 287A160 160 0 0 0 224, 127zM224, 415A128 128 0 1 1 352, 287A128.14 128.14 0 0 1 224, 415zM224, 191A96 96 0 1 0 320, 287A96 96 0 0 0 224, 191zM224, 351A64 64 0 0 1 162.27, 303L200, 303A8 8 0 0 0 208, 295L208, 279A8 8 0 0 0 200, 271L162.27, 271A63.9 63.9 0 1 1 224, 351z" fill="#727272" fill-opacity="1" class="Black" />
  </g>
</svg>