<?xml version='1.0' encoding='UTF-8'?>
<svg viewBox="-2 -4.7992 32 32" xmlns="http://www.w3.org/2000/svg">
  <g transform="matrix(0.9988, 0, 0, 0.9988, 0, 0)">
    <g transform="matrix(0.0438, 0, 0, 0.0438, 0, 0)">
      <path d="M632, 240L608, 240L608, 144C608, 117.5 586.5, 96 560, 96L528, 96C522.4, 96 517, 97.2 512, 98.9L512, 80C512, 53.5 490.5, 32 464, 32L432, 32C405.5, 32 384, 53.5 384, 80L384, 240L256, 240L256, 80C256, 53.5 234.5, 32 208, 32L176, 32C149.5, 32 128, 53.5 128, 80L128, 98.9C123, 97.1 117.6, 96 112, 96L80, 96C53.5, 96 32, 117.5 32, 144L32, 240L8, 240C3.6, 240 0, 243.6 0, 248L0, 264C0, 268.4 3.6, 272 8, 272L32, 272L32, 368C32, 394.5 53.5, 416 80, 416L112, 416C117.6, 416 123, 414.8 128, 413.1L128, 432C128, 458.5 149.5, 480 176, 480L208, 480C234.5, 480 256, 458.5 256, 432L256, 272L384, 272L384, 432C384, 458.5 405.5, 480 432, 480L464, 480C490.5, 480 512, 458.5 512, 432L512, 413.1C517, 414.9 522.4, 416 528, 416L560, 416C586.5, 416 608, 394.5 608, 368L608, 272L632, 272C636.4, 272 640, 268.4 640, 264L640, 248C640, 243.6 636.4, 240 632, 240zM112, 384L80, 384C71.2, 384 64, 376.8 64, 368L64, 144C64, 135.2 71.2, 128 80, 128L112, 128C120.8, 128 128, 135.2 128, 144L128, 368C128, 376.8 120.8, 384 112, 384zM224, 432C224, 440.8 216.8, 448 208, 448L176, 448C167.2, 448 160, 440.8 160, 432L160, 80C160, 71.2 167.2, 64 176, 64L208, 64C216.8, 64 224, 71.2 224, 80L224, 432zM480, 432C480, 440.8 472.8, 448 464, 448L432, 448C423.2, 448 416, 440.8 416, 432L416, 80C416, 71.2 423.2, 64 432, 64L464, 64C472.8, 64 480, 71.2 480, 80L480, 432zM576, 368C576, 376.8 568.8, 384 560, 384L528, 384C519.2, 384 512, 376.8 512, 368L512, 144C512, 135.2 519.2, 128 528, 128L560, 128C568.8, 128 576, 135.2 576, 144L576, 368z" fill="#727272" fill-opacity="1" class="Black" />
    </g>
  </g>
</svg>