<?xml version='1.0' encoding='UTF-8'?>
<svg viewBox="-2 -3.554 32 32" xmlns="http://www.w3.org/2000/svg">
  <g transform="matrix(0.0486, 0, 0, 0.0486, 0, 0)">
    <path d="M568, 256L533.3, 256L540.4, 192L560, 192C570.4, 192 578, 179.8 575.5, 167.1L551.5, 47.1C549.7, 38.2 543.3, 32 536, 32L40, 32C32.7, 32 26.3, 38.2 24.5, 47.1L0.5, 167.1C-2, 179.8 5.6, 192 16, 192L35.5, 192L42.6, 256L8, 256C3.6, 256 0, 259.6 0, 264L0, 280C0, 284.4 3.6, 288 8, 288L46.2, 288L64, 448L64, 464C64, 472.8 71.2, 480 80, 480L144, 480C152.8, 480 160, 472.8 160, 464L160, 448L416, 448L416, 464C416, 472.8 423.2, 480 432, 480L496, 480C504.8, 480 512, 472.8 512, 464L512, 448L529.8, 288L568, 288C572.4, 288 576, 284.4 576, 280L576, 264C576, 259.6 572.4, 256 568, 256zM541.4, 160L462.7, 160L443.5, 64L522.2, 64L541.4, 160zM145.9, 160L165.1, 64L272, 64L272, 160L145.9, 160zM304, 64L410.9, 64L430.1, 160L304, 160L304, 64zM53.8, 64L132.5, 64L113.3, 160L34.6, 160L53.8, 64zM480, 448L448, 448L448, 416L128, 416L128, 448L96, 448L67.8, 192L508.3, 192L480, 448z" fill="#727272" fill-opacity="1" class="Black" />
  </g>
</svg>