<?xml version='1.0' encoding='UTF-8'?>
<svg viewBox="-2 -4.7992 32 32" xmlns="http://www.w3.org/2000/svg">
  <g transform="matrix(0.9988, 0, 0, 0.9988, 0, 0)">
    <g transform="matrix(0.0438, 0, 0, 0.0438, 0, 0)">
      <path d="M640, 352C640, 336.9 633.9, 323.1 624, 313C624.4, 288.9 609.6, 268 588.2, 259.7C581, 241.2 564.1, 228.1 544, 225.2L544, 224C544, 100.5 443.5, 0 320, 0C196.5, 0 96, 100.5 96, 224L96, 225.2C75.8, 228.2 59, 241.3 51.8, 259.7C30.5, 268.1 15.6, 288.9 16, 313C6.1, 323.1 0, 336.9 0, 352C0, 357.5 0.8, 362.8 2.4, 368C0.8, 373.2 0, 378.5 0, 384C0, 399.1 6.1, 412.9 16, 423C15.6, 447.1 30.4, 468 51.8, 476.3C59.9, 497.1 80.2, 512 104, 512C109.5, 512 114.8, 511.2 120, 509.6C125.2, 511.2 130.5, 512 136, 512C166.9, 512 192, 486.9 192, 456C192, 448.3 190.4, 440.8 187.5, 434C189.7, 428.8 196.4, 410.9 187.5, 390C189.7, 384.8 196.4, 366.9 187.5, 346C189.7, 340.8 196.4, 322.9 187.5, 302C190.4, 295.2 192, 287.7 192, 280C192, 249.1 166.9, 224 136, 224C133.3, 224 130.7, 224.8 128, 225.2L128, 224C128, 118.1 214.1, 32 320, 32C425.9, 32 512, 118.1 512, 224L512, 225.2C509.3, 224.8 506.7, 224 504, 224C473.1, 224 448, 249.1 448, 280C448, 287.7 449.6, 295.2 452.5, 302C450.3, 307.2 443.6, 325.1 452.5, 346C450.3, 351.2 443.6, 369.1 452.5, 390C450.3, 395.2 443.6, 413.1 452.5, 434C449.6, 440.8 448, 448.3 448, 456C448, 486.9 473.1, 512 504, 512C509.5, 512 514.8, 511.2 520, 509.6C525.2, 511.2 530.5, 512 536, 512C559.7, 512 580.1, 497.1 588.2, 476.2C609.5, 467.9 624.4, 447.1 624, 422.9C633.9, 412.8 640, 399 640, 383.9C640, 378.4 639.2, 373.1 637.6, 367.9C639.2, 362.8 640, 357.5 640, 352zM136, 256C149.3, 256 160, 266.7 160, 280C160, 289.9 154, 298.3 145.5, 302C154, 305.7 160, 314.1 160, 324C160, 333.9 154, 342.3 145.5, 346C154, 349.7 160, 358.1 160, 368C160, 377.9 154, 386.3 145.5, 390C154, 393.7 160, 402.1 160, 412C160, 421.9 154, 430.3 145.5, 434C154, 437.7 160, 446.1 160, 456C160, 469.3 149.3, 480 136, 480C129.8, 480 124.3, 477.5 120, 473.6C115.7, 477.5 110.2, 480 104, 480C90.7, 480 80, 469.3 80, 456C80, 452 81.2, 448.3 83, 445C79.7, 446.8 76, 448 72, 448C58.7, 448 48, 437.3 48, 424C48, 417.7 50.6, 412 54.6, 407.7C42, 406.9 32, 396.7 32, 384C32, 377.8 34.5, 372.3 38.4, 368C34.5, 363.7 32, 358.2 32, 352C32, 339.3 42, 329.1 54.6, 328.3C50.6, 324 48, 318.3 48, 312C48, 298.7 58.7, 288 72, 288C76, 288 79.7, 289.2 83, 291C81.2, 287.7 80, 284 80, 280C80, 266.7 90.7, 256 104, 256C110.2, 256 115.7, 258.5 120, 262.4C124.3, 258.5 129.8, 256 136, 256zM608, 384C608, 396.7 598, 406.9 585.4, 407.7C589.4, 412 592, 417.7 592, 424C592, 437.3 581.3, 448 568, 448C564, 448 560.3, 446.8 557, 445C558.8, 448.3 560, 452 560, 456C560, 469.3 549.3, 480 536, 480C529.8, 480 524.3, 477.5 520, 473.6C515.7, 477.5 510.2, 480 504, 480C490.7, 480 480, 469.3 480, 456C480, 446.1 486, 437.7 494.5, 434C486, 430.3 480, 421.9 480, 412C480, 402.1 486, 393.7 494.5, 390C486, 386.3 480, 377.9 480, 368C480, 358.1 486, 349.7 494.5, 346C486, 342.3 480, 333.9 480, 324C480, 314.1 486, 305.7 494.5, 302C486, 298.3 480, 289.9 480, 280C480, 266.7 490.7, 256 504, 256C510.2, 256 515.7, 258.5 520, 262.4C524.3, 258.5 529.8, 256 536, 256C549.3, 256 560, 266.7 560, 280C560, 284 558.8, 287.7 557, 291C560.3, 289.2 564, 288 568, 288C581.3, 288 592, 298.7 592, 312C592, 318.3 589.4, 324 585.4, 328.3C598, 329.1 608, 339.3 608, 352C608, 358.2 605.5, 363.7 601.6, 368C605.5, 372.3 608, 377.8 608, 384z" fill="#727272" fill-opacity="1" class="Black" />
    </g>
  </g>
</svg>