<?xml version='1.0' encoding='UTF-8'?>
<svg viewBox="-5.5003 -2 32 32" xmlns="http://www.w3.org/2000/svg">
  <g transform="matrix(0.0547, 0, 0, 0.0547, 0, 0)">
    <path d="M192, 96C139.06, 96 96, 139.06 96, 192C96, 227.3 124.72, 256 160, 256C177.66, 256 192, 270.36 192, 288C192, 305.64 177.66, 320 160, 320L136, 320C131.58, 320 128, 323.58 128, 328L128, 344C128, 348.42 131.58, 352 136, 352L160, 352C195.28, 352 224, 323.3 224, 288C224, 252.7 195.28, 224 160, 224C142.34, 224 128, 209.64 128, 192C128, 156.7 156.72, 128 192, 128C227.28, 128 256, 156.7 256, 192L256, 216C256, 220.42 259.58, 224 264, 224L280, 224C284.42, 224 288, 220.42 288, 216L288, 192C288, 139.06 244.94, 96 192, 96zM192, 0C85.96, 0 0, 85.96 0, 192L0, 368C0, 447.53 64.47, 512 144, 512C223.53, 512 288, 447.53 288, 368L288, 358.1C345.33, 324.89 384, 263.02 384, 192C384, 85.96 298.04, 0 192, 0zM271.96, 330.41L256, 339.66L256, 368C256, 429.76 205.76, 480 144, 480C82.24, 480 32, 429.76 32, 368L32, 192C32, 103.78 103.78, 32 192, 32C280.22, 32 352, 103.78 352, 192C352, 248.78 321.33, 301.81 271.96, 330.41z" fill="#727272" fill-opacity="1" class="Black" />
  </g>
</svg>