<?xml version='1.0' encoding='UTF-8'?>
<svg viewBox="-1.9998 -2.0036 31.9975 32" xmlns="http://www.w3.org/2000/svg">
  <g transform="matrix(0.0547, 0, 0, 0.0547, 0, 0)">
    <path d="M512, 256C512, 250.7 509.4, 245.7 505, 242.8L422.5, 187L441.4, 89.3C442.4, 84.1 440.7, 78.7 437, 75C433.3, 71.3 427.9, 69.7 422.7, 70.6L325, 89.4L269.2, 7C266.2, 2.6 261.3, 0 256, 0C250.7, 0 245.7, 2.6 242.8, 7L187, 89.4L89.3, 70.6C84.1, 69.6 78.7, 71.3 75, 75C71.3, 78.7 69.6, 84.1 70.6, 89.3L89.4, 187L7, 242.8C2.6, 245.8 0, 250.7 0, 256C0, 261.3 2.6, 266.3 7, 269.2L89.4, 325L70.5, 422.7C69.5, 427.9 71.2, 433.3 74.9, 437C78.6, 440.7 84, 442.4 89.2, 441.4L186.9, 422.5L242.7, 504.9C245.7, 509.3 250.6, 511.9 255.9, 511.9C261.2, 511.9 266.2, 509.3 269.1, 504.9L324.9, 422.5L422.6, 441.4C427.8, 442.4 433.2, 440.7 436.9, 437C440.6, 433.3 442.3, 427.9 441.3, 422.7L422.6, 325L505, 269.2C509.4, 266.3 512, 261.3 512, 256zM395.9, 304.4C390.6, 308 387.9, 314.4 389.1, 320.7L405.5, 405.5L320.7, 389.1C314.4, 387.9 308, 390.6 304.4, 395.9L256, 467.4L207.6, 395.8C204.6, 391.4 199.6, 388.8 194.4, 388.8C193.4, 388.8 192.4, 388.9 191.4, 389.1L106.6, 405.5L123, 320.7C124.2, 314.4 121.6, 308 116.2, 304.4L44.6, 256L116.2, 207.6C121.5, 204 124.2, 197.6 123, 191.3L106.6, 106.5L191.4, 122.9C197.6, 124 204.1, 121.4 207.7, 116.1L256, 44.6L304.4, 116.2C308, 121.5 314.5, 124.1 320.7, 123L405.5, 106.6L389.1, 191.4C387.9, 197.7 390.5, 204.1 395.9, 207.7L467.5, 256.1L395.9, 304.4zM327, 293.1C326, 293.1 324.1, 293.3 323.1, 293.5C319.4, 294.2 315.6, 294.6 311.8, 294.6C279.3, 294.6 252.8, 268 252.8, 235.4C252.8, 214.2 264.3, 194.4 282.7, 183.9C290.3, 179.6 294.2, 171.3 292.8, 162.7C291.4, 154.1 284.9, 147.5 276.3, 146C269.6, 144.8 262.7, 144.1 255.9, 144.1C194.2, 144 144, 194.2 144, 256C144, 317.8 194.2, 368 255.9, 368C289.8, 368 321.5, 352.9 342.8, 326.5C347.8, 320.3 348.8, 312 345.4, 304.8C342, 297.7 334.8, 293.1 327, 293.1zM255.9, 336C211.8, 336 176, 300.1 176, 256C176, 216.7 204.4, 184 241.7, 177.3A91.288 91.288 0 0 0 220.8, 235.4C220.8, 280.3 253.4, 317.8 296.1, 325.3C284, 332.2 270.2, 336 255.9, 336z" fill="#727272" fill-opacity="1" class="Black" />
  </g>
</svg>