<?xml version='1.0' encoding='UTF-8'?>
<svg viewBox="-2 -3.554 32 32" xmlns="http://www.w3.org/2000/svg">
  <g transform="matrix(0.0486, 0, 0, 0.0486, 0, 0)">
    <path d="M417.8, 315.5L437.8, 295.5C441.6, 291.7 448, 294.4 448, 299.7L448, 464C448, 490.5 426.5, 512 400, 512L48, 512C21.5, 512 0, 490.5 0, 464L0, 112C0, 85.5 21.5, 64 48, 64L340.3, 64C345.6, 64 348.3, 70.5 344.5, 74.2L324.5, 94.2C323.4, 95.3 321.8, 96 320.3, 96L48, 96C39.2, 96 32, 103.2 32, 112L32, 464C32, 472.8 39.2, 480 48, 480L400, 480C408.8, 480 416, 472.8 416, 464L416, 319.7C416, 318.1 416.6, 316.6 417.8, 315.5zM563.7, 124.3L251.2, 436.8L151.3, 447.9C137.9, 449.4 126.6, 438.1 128.1, 424.7L139.2, 324.8L451.7, 12.3C468.1, -4.1 494.7, -4.1 511.1, 12.3L563.7, 64.9C580.1, 81.3 580.1, 107.9 563.7, 124.3zM470.1, 172.7L403.4, 106L169.8, 339.5L161.5, 414.6L236.6, 406.3L470.1, 172.7zM541.1, 87.5L488.5, 34.9C484.7, 31.1 478.3, 30.9 474.4, 34.9L426, 83.3L492.7, 150L541.1, 101.6C545, 97.8 545, 91.4 541.1, 87.5z" fill="#727272" fill-opacity="1" class="Black" />
  </g>
</svg>