<?xml version='1.0' encoding='UTF-8'?>
<svg viewBox="-2 -4.7992 32 32" xmlns="http://www.w3.org/2000/svg">
  <g transform="matrix(0.9988, 0, 0, 0.9988, 0, 0)">
    <g transform="matrix(0.0438, 0, 0, 0.0438, 0, 0)">
      <path d="M512, 31.97L466.19, 31.97C460.54, 26.16 437.16, 0 391.99, 0C353.91, 0 329.49, 18.23 316.44, 31.97L192, 31.97C85.96, 31.97 0, 117.93 0, 223.98L0, 351.99L32, 351.99L32, 480C32, 497.67 46.33, 512 64, 512L128, 512C145.67, 512 160, 497.67 160, 480L160, 399.99C208.43, 424.2 243.07, 438.46 320, 399.99L320, 480C320, 497.67 334.33, 512 352, 512L416, 512C433.67, 512 448, 497.67 448, 480L448, 287.98L544, 287.98L544, 319.98L512, 319.98C494.33, 319.98 480, 334.31 480, 351.98L480, 363.25C480, 405.09 510.02, 443.31 551.64, 447.55C599.49, 452.43 640, 414.84 640, 367.97L640, 159.97C640, 89.27 582.69, 31.97 512, 31.97zM416, 480L352, 480L352, 348.21L305.69, 371.37C250.87, 398.78 229.22, 398.83 174.31, 371.37L128, 348.21L128, 480L64, 480L64, 319.99L32, 319.99L32, 223.98C32, 135.75 103.78, 63.97 192, 63.97L296.39, 63.97C295.29, 66.68 293.69, 69.16 292.84, 71.97C283.88, 101.45 287.42, 131.84 302.78, 157.44C314.31, 176.63 331.69, 191.49 352, 199.97C352, 240.12 379.18, 273.7 416, 284.23L416, 480zM608, 367.99C608, 394.46 586.47, 415.99 560, 415.99C533.53, 415.99 512, 394.46 512, 367.99L512, 351.99L544, 351.99L544, 367.99C544, 376.82 551.19, 383.99 560, 383.99C568.81, 383.99 576, 376.82 576, 367.99L576, 255.98L440, 255.98C409.12, 255.98 384, 230.86 384, 199.98L384, 178.66L364.33, 170.45C335.58, 158.44 310.43, 124.16 323.46, 81.28C332.04, 53.02 358.41, 32 391.99, 32C424.85, 32 438.71, 49.61 452.69, 63.97L512, 63.97C564.94, 63.97 608, 107.04 608, 159.98L608, 367.99zM528, 127.97C519.16, 127.97 512, 135.13 512, 143.97C512, 152.81 519.16, 159.97 528, 159.97C536.84, 159.97 544, 152.81 544, 143.97C544, 135.13 536.84, 127.97 528, 127.97z" fill="#727272" fill-opacity="1" class="Black" />
    </g>
  </g>
</svg>