<?xml version='1.0' encoding='UTF-8'?>
<svg viewBox="-1.5477 -1.5452 32 31.995" xmlns="http://www.w3.org/2000/svg">
  <g transform="matrix(0.9991, 0, 0, 0.9991, 0, 0)">
    <g transform="matrix(0.0565, 0, 0, 0.0565, 0, 0)">
      <path d="M256, 184C216.2, 184 184, 216.2 184, 256C184, 295.8 216.2, 328 256, 328C295.8, 328 328, 295.8 328, 256C328, 216.2 295.8, 184 256, 184zM256, 296C233.9, 296 216, 278.1 216, 256C216, 233.9 233.9, 216 256, 216C278.1, 216 296, 233.9 296, 256C296, 278.1 278.1, 296 256, 296zM432, 184C392.2, 184 360, 216.2 360, 256C360, 295.8 392.2, 328 432, 328C471.8, 328 504, 295.8 504, 256C504, 216.2 471.8, 184 432, 184zM432, 296C409.9, 296 392, 278.1 392, 256C392, 233.9 409.9, 216 432, 216C454.1, 216 472, 233.9 472, 256C472, 278.1 454.1, 296 432, 296zM80, 184C40.2, 184 8, 216.2 8, 256C8, 295.8 40.2, 328 80, 328C119.8, 328 152, 295.8 152, 256C152, 216.2 119.8, 184 80, 184zM80, 296C57.9, 296 40, 278.1 40, 256C40, 233.9 57.9, 216 80, 216C102.1, 216 120, 233.9 120, 256C120, 278.1 102.1, 296 80, 296z" fill="#727272" fill-opacity="1" class="Black" />
    </g>
  </g>
</svg>