<?xml version='1.0' encoding='UTF-8'?>
<svg viewBox="-13.0523 7.5809 32 32" xmlns="http://www.w3.org/2000/svg">
  <g transform="matrix(0.0921, 0, 0, 0.0921, 0, 0)">
    <path d="M32, 224C49.7, 224 64, 238.3 64, 256C64, 273.7 49.7, 288 32, 288C14.3, 288 0, 273.7 0, 256C0, 238.3 14.3, 224 32, 224zM0, 136C0, 153.7 14.3, 168 32, 168C49.7, 168 64, 153.7 64, 136C64, 118.3 49.7, 104 32, 104C14.3, 104 0, 118.3 0, 136zM0, 376C0, 393.7 14.3, 408 32, 408C49.7, 408 64, 393.7 64, 376C64, 358.3 49.7, 344 32, 344C14.3, 344 0, 358.3 0, 376z" fill="#727272" fill-opacity="1" class="Black" />
  </g>
</svg>