<?xml version='1.0' encoding='UTF-8'?>
<svg viewBox="-1.9975 0.0025 32 32" xmlns="http://www.w3.org/2000/svg">
  <g transform="matrix(0.0625, 0, 0, 0.0625, 0, 0)">
    <path d="M445.66, 45.65L434.35, 34.34C431.23, 31.22 426.16, 31.22 423.04, 34.34L347.92, 109.46C314.46, 81.15 271.26, 64 224, 64C117.96, 64 32, 149.96 32, 256C32, 303.26 49.15, 346.46 77.46, 379.91L2.34, 455.03C-0.78, 458.15 -0.78, 463.22 2.34, 466.34L13.65, 477.65C16.77, 480.77 21.84, 480.77 24.96, 477.65L100.08, 402.53C133.54, 430.85 176.74, 448 224, 448C330.04, 448 416, 362.04 416, 256C416, 208.74 398.85, 165.54 370.54, 132.09L445.66, 56.97A8.015 8.015 0 0 0 445.66, 45.65zM64, 256C64, 167.78 135.78, 96 224, 96C262.34, 96 297.1, 110.12 324.69, 132.69L100.69, 356.69C78.11, 329.1 64, 294.34 64, 256zM384, 256C384, 344.22 312.22, 416 224, 416C185.66, 416 150.9, 401.88 123.31, 379.31L347.31, 155.31C369.89, 182.9 384, 217.66 384, 256z" fill="#727272" fill-opacity="1" class="Black" />
  </g>
</svg>