<?xml version='1.0' encoding='UTF-8'?>
<svg viewBox="-2 2.6671 32 32" xmlns="http://www.w3.org/2000/svg">
  <g transform="matrix(0.0729, 0, 0, 0.0729, 0, 0)">
    <path d="M376, 304L8, 304C3.58, 304 0, 307.58 0, 312L0, 344C0, 348.42 3.58, 352 8, 352L376, 352C380.42, 352 384, 348.42 384, 344L384, 312C384, 307.58 380.42, 304 376, 304zM376, 160L8, 160C3.58, 160 0, 163.58 0, 168L0, 200C0, 204.42 3.58, 208 8, 208L376, 208C380.42, 208 384, 204.42 384, 200L384, 168C384, 163.58 380.42, 160 376, 160z" fill="#727272" fill-opacity="1" class="Black" />
  </g>
</svg>