<?xml version='1.0' encoding='UTF-8'?>
<svg viewBox="-1.9975 -1.9975 32 32" xmlns="http://www.w3.org/2000/svg">
  <g transform="matrix(0.0547, 0, 0, 0.0547, 0, 0)">
    <path d="M497.94, 273.94A48 48 0 0 0 497.94, 206.06L337.94, 46.06A48 48 0 0 0 270.06, 46.06L14.06, 302.06A48 48 0 0 0 14.06, 369.94L110.06, 465.94A48 48 0 0 0 144, 480L500, 480A12 12 0 0 0 512, 468L512, 460A12 12 0 0 0 500, 448L323.88, 448L497.94, 273.94zM292.69, 68.69A16 16 0 0 1 315.31, 68.69L475.31, 228.69A16 16 0 0 1 475.31, 251.31L358.63, 368L176, 185.37zM144, 448A15.88 15.88 0 0 1 132.69, 443.31L36.69, 347.31A16 16 0 0 1 36.69, 324.69L153.37, 208L336, 390.63L283.31, 443.31A15.88 15.88 0 0 1 272, 448z" fill="#727272" fill-opacity="1" class="Black" />
  </g>
</svg>