<?xml version='1.0' encoding='UTF-8'?>
<svg viewBox="-2 -1.9988 32 32" xmlns="http://www.w3.org/2000/svg">
  <g transform="matrix(0.0547, 0, 0, 0.0547, 0, 0)">
    <path d="M508.485, 184.485L416, 276.485C411.313, 281.171 403.716, 281.171 399.03, 276.485L391.959, 269.415C387.272, 264.729 387.272, 257.131 391.959, 252.444L452.893, 192L12, 192C5.373, 192 0, 186.627 0, 180L0, 172C0, 165.373 5.373, 160 12, 160L452.905, 160L391.959, 99.556C387.272, 94.87 387.272, 87.272 391.959, 82.585L399.029, 75.515C403.716, 70.829 411.313, 70.829 416, 75.515L508.485, 167.515C513.172, 172.201 513.171, 179.799 508.485, 184.485zM3.515, 344.485L96, 436.485C100.687, 441.171 108.284, 441.171 112.971, 436.485L120.041, 429.415C124.728, 424.729 124.728, 417.131 120.041, 412.444L59.095, 352L500, 352C506.627, 352 512, 346.627 512, 340L512, 332C512, 325.373 506.627, 320 500, 320L59.107, 320L120.041, 259.556C124.728, 254.87 124.728, 247.272 120.041, 242.585L112.97, 235.515C108.284, 230.829 100.686, 230.828 96, 235.515L3.515, 327.515C-1.171, 332.201 -1.172, 339.799 3.515, 344.485z" fill="#727272" fill-opacity="1" class="Black" />
  </g>
</svg>