<?xml version='1.0' encoding='UTF-8'?>
<svg viewBox="-10.7501 -2 32 32" xmlns="http://www.w3.org/2000/svg">
  <g transform="matrix(0.0547, 0, 0, 0.0547, 0, 0)">
    <path d="M139.315, 32C146.204, 32 151.679, 37.787 151.297, 44.666L136.63, 308.666C136.277, 315.025 131.017, 320 124.648, 320L67.352, 320C60.983, 320 55.724, 315.025 55.37, 308.666L40.703, 44.666C40.321, 37.787 45.796, 32 52.685, 32L139.315, 32M96, 352C131.29, 352 160, 380.71 160, 416C160, 451.29 131.29, 480 96, 480C60.71, 480 32, 451.29 32, 416C32, 380.71 60.71, 352 96, 352M139.315, 0L52.685, 0C27.457, 0 7.353, 21.246 8.753, 46.441L23.42, 310.441C24.072, 322.169 29.284, 332.619 37.274, 340.106C14.613, 357.682 0, 385.168 0, 416C0, 468.935 43.065, 512 96, 512C148.935, 512 192, 468.935 192, 416C192, 385.168 177.387, 357.682 154.726, 340.106C162.717, 332.619 167.929, 322.169 168.58, 310.441L183.247, 46.441C184.647, 21.251 164.548, 0 139.315, 0z" fill="#727272" fill-opacity="1" class="Black" />
  </g>
</svg>