<?xml version='1.0' encoding='UTF-8'?>
<svg viewBox="-2 0 32 32" xmlns="http://www.w3.org/2000/svg">
  <g transform="matrix(0.0625, 0, 0, 0.0625, 0, 0)">
    <path d="M219.5, 320L228.5, 320C234.9, 320 240.2, 314.9 240.5, 308.5L247.5, 140.5C247.8, 133.7 242.3, 128 235.5, 128L212.5, 128C205.7, 128 200.2, 133.7 200.5, 140.5L207.5, 308.5C207.8, 314.9 213.1, 320 219.5, 320zM400, 32L48, 32C21.5, 32 0, 53.5 0, 80L0, 432C0, 458.5 21.5, 480 48, 480L400, 480C426.5, 480 448, 458.5 448, 432L448, 80C448, 53.5 426.5, 32 400, 32zM416, 432C416, 440.8 408.8, 448 400, 448L48, 448C39.2, 448 32, 440.8 32, 432L32, 80C32, 71.2 39.2, 64 48, 64L400, 64C408.8, 64 416, 71.2 416, 80zM224, 340C208.5, 340 196, 352.5 196, 368C196, 383.5 208.5, 396 224, 396C239.5, 396 252, 383.5 252, 368C252, 352.5 239.5, 340 224, 340z" fill="#727272" fill-opacity="1" class="Black" />
  </g>
</svg>