<?xml version='1.0' encoding='UTF-8'?>
<svg viewBox="-1.9975 -3.553 32 32" xmlns="http://www.w3.org/2000/svg">
  <g transform="matrix(0.0486, 0, 0, 0.0486, 0, 0)">
    <path d="M270.2, 160L305.7, 160C309.1, 160 311.8, 162.8 311.7, 166.2L304.2, 362.2C304.1, 365.4 301.4, 368 298.2, 368L277.7, 368C274.5, 368 271.8, 365.5 271.7, 362.2L264.2, 166.2C264.1, 162.8 266.8, 160 270.2, 160zM288, 388C272.5, 388 260, 400.5 260, 416C260, 431.5 272.5, 444 288, 444C303.5, 444 316, 431.5 316, 416C316, 400.5 303.5, 388 288, 388zM569.5, 440L329.6, 24C311.2, -8 264.9, -8 246.4, 24L6.5, 440C-11.9, 471.9 11.1, 512 48.1, 512L528, 512C564.8, 512 588, 472 569.5, 440zM528, 480L48, 480C35.7, 480 28, 466.7 34.1, 456L274.1, 40C280.2, 29.4 295.7, 29.3 301.8, 40L541.8, 456C548, 466.6 540.3, 480 528, 480z" fill="#727272" fill-opacity="1" class="Black" />
  </g>
</svg>