<?xml version='1.0' encoding='UTF-8'?>
<svg viewBox="-2 0 32 32" xmlns="http://www.w3.org/2000/svg">
  <g transform="matrix(0.0625, 0, 0, 0.0625, 0, 0)">
    <path d="M0, 180L0, 56C0, 42.7 10.7, 32 24, 32L148, 32C154.6, 32 160, 37.4 160, 44L160, 52C160, 58.6 154.6, 64 148, 64L32, 64L32, 180C32, 186.6 26.6, 192 20, 192L12, 192C5.4, 192 0, 186.6 0, 180zM300, 32L424, 32C437.3, 32 448, 42.7 448, 56L448, 180C448, 186.6 442.6, 192 436, 192L428, 192C421.4, 192 416, 186.6 416, 180L416, 64L300, 64C293.4, 64 288, 58.6 288, 52L288, 44C288, 37.4 293.4, 32 300, 32zM448, 332L448, 456C448, 469.3 437.3, 480 424, 480L300, 480C293.4, 480 288, 474.6 288, 468L288, 460C288, 453.4 293.4, 448 300, 448L416, 448L416, 332C416, 325.4 421.4, 320 428, 320L436, 320C442.6, 320 448, 325.4 448, 332zM148, 480L24, 480C10.7, 480 0, 469.3 0, 456L0, 332C0, 325.4 5.4, 320 12, 320L20, 320C26.6, 320 32, 325.4 32, 332L32, 448L148, 448C154.6, 448 160, 453.4 160, 460L160, 468C160, 474.6 154.6, 480 148, 480z" fill="#727272" fill-opacity="1" class="Black" />
  </g>
</svg>