<?xml version='1.0' encoding='UTF-8'?>
<svg viewBox="-2 0 32 32" xmlns="http://www.w3.org/2000/svg">
  <g transform="matrix(0.0625, 0, 0, 0.0625, 0, 0)">
    <path d="M447.7, 364L448, 468C448, 474.6 442.6, 480 436, 480L332, 479.7C325.4, 479.7 320, 474.3 320, 467.7L320, 457.7C320, 451.1 325.4, 445.7 332, 445.7L390, 446L390.7, 445.3L224, 278.6L57.3, 445.3L58, 446L116, 445.7C122.6, 445.7 128, 451.1 128, 457.7L128, 467.7C128, 474.3 122.6, 479.7 116, 479.7L12, 480C5.4, 480 0, 474.6 0, 468L0.3, 364C0.3, 357.4 5.7, 352 12.3, 352L22.3, 352C28.9, 352 34.3, 357.4 34.3, 364L34, 422L34.7, 422.7L201.4, 256L34.7, 89.3L34, 90L34.3, 148C34.3, 154.6 28.9, 160 22.3, 160L12.3, 160C5.7, 160 0.3, 154.6 0.3, 148L0, 44C0, 37.4 5.4, 32 12, 32L116, 32.3C122.6, 32.3 128, 37.7 128, 44.3L128, 54.3C128, 60.9 122.6, 66.3 116, 66.3L58, 66L57.3, 66.7L224, 233.4L390.7, 66.7L390, 66L332, 66.3C325.4, 66.3 320, 60.9 320, 54.3L320, 44.3C320, 37.7 325.4, 32.3 332, 32.3L436, 32C442.6, 32 448, 37.4 448, 44L447.7, 148C447.7, 154.6 442.3, 160 435.7, 160L425.7, 160C419.1, 160 413.7, 154.6 413.7, 148L414, 90L413.3, 89.3L246.6, 256L413.3, 422.7L414, 422L413.7, 364C413.7, 357.4 419.1, 352 425.7, 352L435.7, 352C442.3, 352 447.7, 357.4 447.7, 364z" fill="#727272" fill-opacity="1" class="Black" />
  </g>
</svg>