<?xml version='1.0' encoding='UTF-8'?>
<svg viewBox="-2 0 32 32" xmlns="http://www.w3.org/2000/svg">
  <g transform="matrix(0.0625, 0, 0, 0.0625, 0, 0)">
    <path d="M391.7, 329.7L356, 365.4L246.6, 256L356, 146.6L391.7, 182.3C412.4, 203 448, 188.3 448, 159L448, 65C448, 46.8 433.2, 32 415, 32L321, 32C291.7, 32 276.9, 67.5 297.7, 88.3L333.4, 124L224, 233.4L114.6, 124L150.3, 88.3C171, 67.6 156.3, 32 127, 32L33, 32C14.8, 32 0, 46.8 0, 65L0, 159C0, 188.3 35.5, 203.1 56.3, 182.3L92, 146.6L201.4, 256L92, 365.4L56.3, 329.7C35.6, 309 0, 323.7 0, 353L0, 447C0, 465.2 14.8, 480 33, 480L127, 480C156.3, 480 171.1, 444.5 150.3, 423.7L114.6, 388L224, 278.6L333.4, 388L297.7, 423.7C277, 444.4 291.7, 480 321, 480L415, 480C433.2, 480 448, 465.2 448, 447L448, 353C448, 323.7 412.4, 308.9 391.7, 329.7zM321, 60.9L415, 60.9C417.3, 60.9 419.1, 62.8 419.1, 65L419.1, 159C419.1, 162.7 414.7, 164.5 412.1, 161.9L318.1, 67.9C315.5, 65.3 317.3, 60.9 321, 60.9zM35.9, 161.9C33.3, 164.5 28.9, 162.7 28.9, 159L28.9, 65C28.9, 62.7 30.8, 60.9 33, 60.9L127, 60.9C130.7, 60.9 132.5, 65.3 129.9, 67.9L35.9, 161.9zM127, 451.1L33, 451.1C30.7, 451.1 28.9, 449.2 28.9, 447L28.9, 353C28.9, 349.3 33.3, 347.5 35.9, 350.1L129.9, 444.1C132.5, 446.7 130.7, 451.1 127, 451.1zM415, 451.1L321, 451.1C317.3, 451.1 315.5, 446.7 318.1, 444.1L412.1, 350.1C414.7, 347.5 419.1, 349.3 419.1, 353L419.1, 447C419.2, 449.3 417.3, 451.1 415, 451.1z" fill="#727272" fill-opacity="1" class="Black" />
  </g>
</svg>