<?xml version='1.0' encoding='UTF-8'?>
<svg viewBox="-2 0 32 32" xmlns="http://www.w3.org/2000/svg">
  <g transform="matrix(0.0625, 0, 0, 0.0625, 0, 0)">
    <path d="M400, 32L48, 32C21.49, 32 0, 53.49 0, 80L0, 432C0, 458.51 21.49, 480 48, 480L400, 480C426.51, 480 448, 458.51 448, 432L448, 80C448, 53.49 426.51, 32 400, 32zM416, 432C416, 440.822 408.822, 448 400, 448L48, 448C39.178, 448 32, 440.822 32, 432L32, 80C32, 71.178 39.178, 64 48, 64L400, 64C408.822, 64 416, 71.178 416, 80L416, 432zM320, 128L319.944, 128L223.777, 128.167C195.335, 128.216 181.117, 162.706 201.205, 182.794L236.477, 218.066L98.545, 356C93.859, 360.686 93.859, 368.284 98.545, 372.97L107.029, 381.455C111.716, 386.141 119.314, 386.141 124, 381.455L261.934, 243.521L297.206, 278.793C317.229, 298.816 351.784, 284.773 351.833, 256.221L352, 160.055C352.03, 142.353 337.675, 128 320, 128zM319.833, 256.167L223.833, 160.167L320, 160L319.833, 256.167z" fill="#727272" fill-opacity="1" class="Black" />
  </g>
</svg>