<?xml version='1.0' encoding='UTF-8'?>
<svg viewBox="-2 -2 32 32" xmlns="http://www.w3.org/2000/svg">
  <g transform="matrix(0.0547, 0, 0, 0.0547, 0, 0)">
    <path d="M440, 256L424, 256A8 8 0 0 0 416, 264L416, 464A16 16 0 0 1 400, 480L48, 480A16 16 0 0 1 32, 464L32, 112A16 16 0 0 1 48, 96L248, 96A8 8 0 0 0 256, 88L256, 72A8 8 0 0 0 248, 64L48, 64A48 48 0 0 0 0, 112L0, 464A48 48 0 0 0 48, 512L400, 512A48 48 0 0 0 448, 464L448, 264A8 8 0 0 0 440, 256zM480, 0L479.94, 0L383.78, 0.17C355.33, 0.17 341.12, 34.71 361.2, 54.79L396.48, 90.07L131.48, 355.07A12 12 0 0 0 131.48, 372.07L139.97, 380.56A12 12 0 0 0 156.97, 380.56L421.97, 115.56L457.25, 150.83C477.25, 170.83 511.82, 156.83 511.87, 128.26L512, 32.05A32 32 0 0 0 480, 0zM479.83, 128.17L383.83, 32.17L480, 32z" fill="#727272" fill-opacity="1" class="Black" />
  </g>
</svg>