<?xml version='1.0' encoding='UTF-8'?>
<svg viewBox="-2 -2 32 32" xmlns="http://www.w3.org/2000/svg">
  <g transform="matrix(0.0547, 0, 0, 0.0547, 0, 0)">
    <path d="M440, 256L424, 256A8 8 0 0 0 416, 264L416, 464A16 16 0 0 1 400, 480L48, 480A16 16 0 0 1 32, 464L32, 112A16 16 0 0 1 48, 96L248, 96A8 8 0 0 0 256, 88L256, 72A8 8 0 0 0 248, 64L48, 64A48 48 0 0 0 0, 112L0, 464A48 48 0 0 0 48, 512L400, 512A48 48 0 0 0 448, 464L448, 264A8 8 0 0 0 440, 256zM500, 0L364, 0.34A12 12 0 0 0 352, 12.34L352, 22.34A12 12 0 0 0 364, 34.34L454, 34L454.7, 34.71L131.51, 357.86A12 12 0 0 0 131.51, 374.86L137.17, 380.52A12 12 0 0 0 154.17, 380.52L477.29, 57.34L478, 58.04L477.66, 148.04A12 12 0 0 0 489.66, 160.04L499.66, 160.04A12 12 0 0 0 511.66, 148.04L512, 12A12 12 0 0 0 500, 0z" fill="#727272" fill-opacity="1" class="Black" />
  </g>
</svg>