<?xml version='1.0' encoding='UTF-8'?>
<svg viewBox="-1.9975 -4.7983 32 32" xmlns="http://www.w3.org/2000/svg">
  <g transform="matrix(0.9989, 0, 0, 0.9989, 0, 0)">
    <g transform="matrix(0.0438, 0, 0, 0.0438, 0, 0)">
      <path d="M627.03, 239.08L514.87, 208.7C510.13, 202.2 504.85, 195.43 498.95, 188.45C500.32, 186.34 554.21, 100.35 554.21, 100.35C563.11, 86.09 548.17, 68.98 531.76, 74.93L412.11, 118.25C402.38, 113.39 392.08, 109.24 381.27, 105.81L336.88, 10.74C333.54, 3.58 326.77, 0 320, 0C313.23, 0 306.46, 3.58 303.12, 10.73L258.73, 105.8C247.92, 109.23 237.62, 113.38 227.89, 118.24C98.03, 71.23 106.35, 73.72 101.5, 73.72C88.13, 73.72 78.09, 88.04 85.78, 100.35C85.78, 100.35 139.67, 186.35 141.04, 188.45C135.14, 195.43 129.86, 202.2 125.12, 208.7L12.97, 239.08C-4.32, 243.76 -4.32, 268.23 12.97, 272.92L125.13, 303.3C129.85, 309.78 135.11, 316.52 140.99, 323.48C139.62, 325.61 85.79, 411.65 85.79, 411.65C76.86, 425.96 91.86, 443 108.24, 437.08L227.89, 393.76C237.62, 398.62 247.93, 402.77 258.74, 406.2L303.13, 501.27C306.46, 508.42 313.23, 512 320, 512C326.77, 512 333.54, 508.42 336.88, 501.27L381.27, 406.2C392.08, 402.77 402.38, 398.62 412.12, 393.76L531.77, 437.08C548.19, 443.03 563.12, 425.92 554.22, 411.65C554.22, 411.65 500.39, 325.61 499.02, 323.48C504.9, 316.52 510.15, 309.78 514.88, 303.3L627.04, 272.92C644.32, 268.23 644.32, 243.77 627.03, 239.08zM495.64, 275.35C480.66, 295.9 482.99, 292.86 459.32, 320.87L505.1, 393.38L410.1, 358.99C385.33, 371.37 385.99, 371.12 358.21, 379.94L320, 461.78L281.79, 379.94C254.03, 371.13 254.71, 371.38 229.9, 358.99L134.9, 393.38L180.68, 320.87C156.98, 292.83 159.34, 295.91 144.36, 275.35L72.91, 256L144.36, 236.65C159.29, 216.17 156.91, 219.26 180.85, 190.93L134.9, 118.61L229.9, 153.01C254.59, 140.68 253.9, 140.91 281.78, 132.05L320, 50.22L358.21, 132.06C386.03, 140.9 385.29, 140.63 410.09, 153.02L505.09, 118.62L459.14, 190.94C482.98, 219.15 480.61, 216.06 495.63, 236.66L567.09, 256L495.64, 275.35zM320, 213.33C287.18, 213.33 257.3, 204.54 233.55, 190.24C222.48, 206.77 216, 226.62 216, 248C216, 305.44 262.56, 352 320, 352C377.44, 352 424, 305.44 424, 248C424, 226.62 417.52, 206.77 406.45, 190.25C382.7, 204.54 352.82, 213.33 320, 213.33zM320, 320C280.3, 320 248, 287.7 248, 248C248, 242.97 248.52, 238 249.54, 233.15C261.96, 237.68 275.06, 240.63 288.45, 242.65C288.37, 243.59 288, 244.36 288, 245.34C288, 273.79 320, 288.01 320, 288.01C320, 288.01 352, 273.79 352, 245.34C352, 244.37 351.62, 243.59 351.55, 242.65C364.94, 240.64 378.04, 237.68 390.46, 233.15C391.48, 238 392, 242.97 392, 248C392, 287.7 359.7, 320 320, 320z" fill="#727272" fill-opacity="1" class="Black" />
    </g>
  </g>
</svg>