<?xml version='1.0' encoding='UTF-8'?>
<svg viewBox="-1.9975 -1.9987 32 32" xmlns="http://www.w3.org/2000/svg">
  <g transform="matrix(0.0547, 0, 0, 0.0547, 0, 0)">
    <path d="M483.61, 26.62C448.1, -9.03 390.77, -8.71 355.57, 26.62L272.94, 109.56L255.94, 92.5C246.57, 83.09 231.37, 83.09 221.99, 92.5L181.01, 133.64C171.64, 143.05 171.63, 158.31 181.01, 167.72L197.99, 184.77L50.69, 334.61A64.38 64.38 0 0 0 31.93, 380.05L31.93, 413.79L4.93, 453.58C-3.05, 466.28 -1.2, 482.83 9.37, 493.44L18.48, 502.58C29.05, 513.19 45.54, 515.04 58.19, 507.04L97.84, 479.94L131.46, 479.94A63.91 63.91 0 0 0 176.73, 461.12L326.04, 313.27L343, 330.31C352.38, 339.72 367.58, 339.72 376.95, 330.31L417.93, 289.17C427.31, 279.76 427.3, 264.5 417.93, 255.09L400.98, 238.07L483.61, 155.13C513.28, 125.36 528.85, 72.03 483.61, 26.62zM154.09, 440.41C148.04, 446.48 140.01, 447.82 131.46, 447.82L88.59, 447.82L41.12, 479.87L32.01, 470.73L63.95, 423.08L63.95, 380.05C63.95, 371.47 67.28, 363.4 73.33, 357.33L220.63, 207.48L303.4, 290.56L154.09, 440.41zM460.98, 132.42L355.71, 238.07L389.64, 272.13L359.97, 301.91L209.3, 150.67L238.97, 120.9L272.94, 155L378.21, 49.34C401.03, 26.43 438.16, 26.43 460.98, 49.34C500.37, 88.87 467.89, 125.48 460.98, 132.42z" fill="#727272" fill-opacity="1" class="Black" />
  </g>
</svg>