<?xml version='1.0' encoding='UTF-8'?>
<svg viewBox="-2 -2 32 32" xmlns="http://www.w3.org/2000/svg">
  <g transform="matrix(0.0547, 0, 0, 0.0547, 0, 0)">
    <path d="M346.54, 120A238.17 238.17 0 0 0 292.6, 126L301.84, 34.26A30.93 30.93 0 0 0 294, 10.41A31.73 31.73 0 0 0 270.51, 0A31.94 31.94 0 0 0 266.51, 0.25C183, 10.72 120, 81.75 120, 165.47A238.24 238.24 0 0 0 126, 219.41L34.26, 210.16L33.46, 210.08L31.11, 210A31 31 0 0 0 7.92, 220.52A31.76 31.76 0 0 0 0.25, 245.52C10.72, 329 81.75, 392 165.46, 392A238.11 238.11 0 0 0 219.4, 386L210.16, 477.74A30.92 30.92 0 0 0 218, 501.59A31.78 31.78 0 0 0 245.5, 511.75C329, 501.28 392, 430.25 392, 346.53A238.15 238.15 0 0 0 386, 292.6L477.74, 301.84L478.54, 301.92L480.87, 302A31 31 0 0 0 504.06, 291.49A31.79 31.79 0 0 0 511.73, 266.49C501.28, 183 430.25, 120 346.54, 120zM365.54, 258.37L340.21, 255.82L348.9, 279.75C356.27, 300 360, 322.51 360, 346.53C360, 414.15 309.06, 471.53 242, 480.96L253.63, 365.55L256.18, 340.22L232.25, 348.91C212, 356.27 189.49, 360 165.46, 360C97.85, 360 40.47, 309.06 31, 242L146.42, 253.63L171.75, 256.18L163.06, 232.25C155.73, 212 152, 189.49 152, 165.47C152, 98.05 202.64, 40.81 269.9, 32.08L258.37, 146.45L255.82, 171.78L279.75, 163.1C300, 155.73 322.51, 152 346.54, 152C414.15, 152 471.54, 202.94 480.97, 270zM256, 224A32 32 0 1 0 288, 256A32 32 0 0 0 256, 224z" fill="#727272" fill-opacity="1" class="Black" />
  </g>
</svg>