<?xml version='1.0' encoding='UTF-8'?>
<svg viewBox="-2.0087 -2.01 32 32" xmlns="http://www.w3.org/2000/svg">
  <g transform="matrix(0.9994, 0, 0, 0.9994, 0, 0)">
    <g transform="matrix(0.0547, 0, 0, 0.0547, 0, 0)">
      <path d="M71.46, 287.61C66.6, 329.62 64.19, 371.88 64.08, 414.17L64.05, 425.33L4.69, 484.69A15.922 15.922 0 0 0 0, 496C0, 505.14 7.47, 512 16, 512C20.09, 512 24.19, 510.44 27.31, 507.31L86.67, 447.95L97.83, 447.92C140.12, 447.8 182.38, 445.39 224.39, 440.54C473.8, 415.13 508.44, 51.72 512, 0C460.28, 3.56 96.87, 38.2 71.46, 287.61zM103.29, 290.85C122.75, 99.86 374.98, 48.66 476.23, 35.77C470.56, 80.23 457.47, 153.8 428.4, 224L310.62, 224L347.31, 187.31C353.56, 181.06 353.56, 170.93 347.31, 164.69C341.06, 158.45 330.93, 158.44 324.69, 164.69L96.74, 392.64C97.49, 358.47 99.42, 324.38 103.29, 290.85zM214.62, 320L278.62, 256L413.73, 256C402.36, 278.73 388.87, 300.31 373.35, 320L214.62, 320zM220.72, 408.75C187.56, 412.58 153.52, 414.51 119.36, 415.26L182.62, 352L344.06, 352C311.3, 382.25 270.94, 403.63 220.72, 408.75z" fill="#727272" fill-opacity="1" class="Black" />
    </g>
  </g>
</svg>