<?xml version='1.0' encoding='UTF-8'?>
<svg viewBox="-8.9994 -2 32 32" xmlns="http://www.w3.org/2000/svg">
  <g transform="matrix(0.0547, 0, 0, 0.0547, 0, 0)">
    <path d="M254.648, 340.891L214.739, 176.615A48.18 48.18 0 0 0 197.945, 150.032A47.458 47.458 0 0 0 193.391, 146.824C207.438, 131.225 216, 110.594 216, 88C216, 39.477 176.523, 0 128, 0C79.477, 0 40, 39.477 40, 88C40, 110.594 48.562, 131.225 62.609, 146.824A47.405 47.405 0 0 0 58.055, 150.032A48.184 48.184 0 0 0 41.261, 176.615L1.352, 340.891C-5.868, 370.559 16.716, 400 48.047, 400L61, 400L61, 459C61, 488.224 84.776, 512 114, 512L142, 512C171.224, 512 195, 488.224 195, 459L195, 400L207.952, 400C239.281, 400 261.869, 370.564 254.648, 340.891zM128, 32C158.928, 32 184, 57.072 184, 88C184, 118.928 158.928, 144 128, 144C97.072, 144 72, 118.928 72, 88C72, 57.072 97.072, 32 128, 32zM208, 368L163, 368L163, 459C163, 470.598 153.598, 480 142, 480L114, 480C102.402, 480 93, 470.598 93, 459L93, 368L48, 368C37.741, 368 30.123, 358.461 32.398, 348.454L72.398, 184A16 16 0 0 1 88, 171.546L100.351, 171.546A88.015 88.015 0 0 0 155.65, 171.546L168, 171.546A16 16 0 0 1 183.602, 184L223.602, 348.454C225.876, 358.458 218.262, 368 208, 368z" fill="#727272" fill-opacity="1" class="Black" />
  </g>
</svg>