<?xml version='1.0' encoding='UTF-8'?>
<svg viewBox="-2 -4.804 32 32" xmlns="http://www.w3.org/2000/svg">
  <g transform="matrix(1.001, 0, 0, 1.001, 0, 0)">
    <g transform="matrix(0.0437, 0, 0, 0.0437, 0, 0)">
      <path d="M619.5, 117.2L563.8, 173L496, 105.2L580.6, 20.5C588.2, 12.9 582.8, 0 572.1, 0L560.8, 0C557.6, 0 554.6, 1.3 552.3, 3.5L214.4, 341.8C185, 371.3 138.9, 327 169.2, 296.6C200.4, 265.4 200.4, 214.7 169.2, 183.5C138, 152.3 87.5, 152.2 56.2, 183.5C19.9, 219.7 0, 267.9 0, 319.2C0, 425.7 86.1, 511.1 191.8, 511.1C281.2, 511.1 325.8, 456.6 355.9, 426.4C368.2, 476.8 414.3, 514.1 468.9, 511.9C526.8, 509.6 573.7, 462.6 576.1, 404.6C578.3, 350 541.1, 303.8 490.7, 291.5L636.6, 145.5C638.8, 143.2 640.1, 140.2 640.1, 137L640.1, 125.7C640, 115 627.1, 109.6 619.5, 117.2zM191.8, 479.1C103, 479.1 32, 407.3 32, 319.2C32, 276.4 48.6, 236.3 78.8, 206C97.5, 187.2 127.8, 187.2 146.6, 206C165.3, 224.7 165.3, 255.2 146.6, 273.9C121.7, 298.8 121.7, 339.4 146.7, 364.5C171.7, 389.4 212.2, 389.4 237, 364.4L473.4, 127.7L541.2, 195.6L447.3, 289.7C399.3, 297.1 361.6, 334.9 354.2, 382.9C304.1, 433.1 269.7, 479.1 191.8, 479.1zM544.1, 400C544.1, 444.1 508.3, 480 464.2, 480C420.1, 480 384.3, 444.1 384.3, 400C384.3, 355.9 420.1, 320 464.2, 320C508.3, 320 544.1, 355.9 544.1, 400z" fill="#727272" fill-opacity="1" class="Black" />
    </g>
  </g>
</svg>