<?xml version='1.0' encoding='UTF-8'?>
<svg viewBox="-2 -4.7992 32 32" xmlns="http://www.w3.org/2000/svg">
  <g transform="matrix(0.9988, 0, 0, 0.9988, 0, 0)">
    <g transform="matrix(0.0438, 0, 0, 0.0438, 0, 0)">
      <path d="M526.785, 195.932L423.825, 184.665L382.163, 168L367.31, 168L283.183, 63.609C304.102, 62.027 320, 55.759 320, 48C320, 39 298.617, 32 272.811, 32L144, 32L144, 64L160, 64L160, 184L158.37, 184L94.37, 112L36.462, 112L8, 140.11L8, 207.757L0, 208.745L0, 303.256L8, 304.244L8, 371.891L36.462, 400L94.37, 400L158.37, 328L160, 328L160, 448L144, 448L144, 480L272.811, 480C298.617, 480 320, 473 320, 464C320, 456.241 304.102, 449.973 283.183, 448.391L367.31, 344L382.163, 344L423.826, 327.335L526.786, 316.068C598.984, 300.222 640, 293.159 640, 256C640, 218.542 598.137, 211.593 526.785, 195.932zM521.6, 284.444L416, 296L376, 312L352, 312L242.4, 448L192, 448L192, 296L144, 296L80, 368L49.6, 368L40, 358.519L40, 304L48, 304L48, 288L89.6, 288L89.6, 282.074L32, 274.963L32, 237.037L89.6, 229.926L89.6, 224L48, 224L48, 208L40, 208L40, 153.481L49.6, 144L80, 144L144, 216L192, 216L192, 64L242.4, 64L352, 200L376, 200L416, 216L521.6, 227.556C608, 246.519 608, 251.185 608, 256C608, 260.815 608, 265.481 521.6, 284.444z" fill="#727272" fill-opacity="1" class="Black" />
    </g>
  </g>
</svg>