<?xml version='1.0' encoding='UTF-8'?>
<svg viewBox="-5.5003 -2 32 32" xmlns="http://www.w3.org/2000/svg">
  <g transform="matrix(0.0547, 0, 0, 0.0547, 0, 0)">
    <path d="M369.9, 97.98L286.02, 14.1C277.02, 5.1 264.82, 0 252.13, 0L47.99, 0C21.5, 0.1 0, 21.6 0, 48.09L0, 464.01C0, 490.5 21.5, 512 47.99, 512L336.01, 512C362.5, 512 384, 490.5 384, 464.01L384, 131.97C384, 119.28 378.9, 106.98 369.9, 97.98zM256.03, 32.59C258.83, 33.29 261.33, 34.69 263.43, 36.79L347.31, 120.67C349.41, 122.77 350.81, 125.27 351.51, 128.07L256.03, 128.07L256.03, 32.59zM352.01, 464.01C352.01, 472.81 344.81, 480.01 336.01, 480.01L47.99, 480.01C39.19, 480.01 31.99, 472.81 31.99, 464.01L31.99, 48.09C31.99, 39.29 39.19, 32 47.99, 32L224.03, 32L224.03, 136.07C224.03, 149.37 234.73, 160 248.03, 160L352.01, 160L352.01, 464.01zM192, 192L192, 320L319.99, 320C320, 320 319.99, 319.99 319.99, 319.98C319.98, 249.3 262.7, 192.01 192.02, 192L192, 192zM224, 229.49C251.22, 239.15 272.85, 260.77 282.5, 288L224, 288L224, 229.49zM176, 416C131.88, 416 96, 380.11 96, 336C96, 297.37 123.52, 265.05 160, 257.62L160, 225.62C105.87, 233.47 64, 279.73 64, 336C64, 397.75 114.25, 448 176, 448C232.27, 448 278.54, 406.13 286.38, 352L254.38, 352C246.95, 388.47 214.64, 416 176, 416z" fill="#727272" fill-opacity="1" class="Black" />
  </g>
</svg>