<?xml version='1.0' encoding='UTF-8'?>
<svg viewBox="-1.9998 -3.5563 31.9975 32" xmlns="http://www.w3.org/2000/svg">
  <g transform="matrix(0.0486, 0, 0, 0.0486, 0, 0)">
    <path d="M567.31, 283.89L495.53, 215.73C487.25, 207.93 475.12, 205.85 464.69, 210.35C454.38, 214.77 448, 224.33 448, 235.32L448, 288L384, 288L384, 131.97C384, 119.27 378.9, 106.97 369.9, 97.98L286.02, 14.1C277.02, 5.1 264.82, 0 252.13, 0L47.99, 0C21.5, 0.1 0, 21.6 0, 48.09L0, 464.01C0, 490.5 21.5, 512 47.99, 512L336.01, 512C362.5, 512 384, 490.5 384, 464.01L384, 352L352.01, 352L352.01, 464.01C352.01, 472.81 344.81, 480.01 336.01, 480.01L47.99, 480.01C39.19, 480.01 31.99, 472.81 31.99, 464.01L31.99, 48.09C31.99, 39.29 39.19, 32 47.99, 32L224.03, 32L224.03, 136.07C224.03, 149.37 234.73, 160 248.03, 160L352.01, 160L352.01, 288L168, 288C163.58, 288 160, 291.58 160, 296L160, 312C160, 316.42 163.58, 320 168, 320L448, 320L448, 372.67C448, 383.65 454.38, 393.22 464.69, 397.64C479.62, 404.09 491.57, 396.03 495.57, 392.25L567.29, 324.13C572.91, 318.8 576.01, 311.65 576.01, 304.01C576.01, 296.37 572.91, 289.2 567.31, 283.89zM256.03, 128.07L256.03, 32.59C258.83, 33.29 261.33, 34.69 263.43, 36.79L347.31, 120.67C349.41, 122.77 350.81, 125.27 351.51, 128.07L256.03, 128.07zM480, 362.88L480, 245.12L542, 304L480, 362.88z" fill="#727272" fill-opacity="1" class="Black" />
  </g>
</svg>