<?xml version='1.0' encoding='UTF-8'?>
<svg viewBox="-5.5003 -2 32 32" xmlns="http://www.w3.org/2000/svg">
  <g transform="matrix(0.0547, 0, 0, 0.0547, 0, 0)">
    <path d="M312, 416L232, 416C227.58, 416 224, 419.58 224, 424L224, 440C224, 444.42 227.58, 448 232, 448L312, 448C316.42, 448 320, 444.42 320, 440L320, 424C320, 419.58 316.42, 416 312, 416zM64, 240L64, 336C64, 344.84 72.19, 352 82.29, 352L301.72, 352C311.82, 352 320.01, 344.84 320.01, 336L320.01, 240C320.01, 231.16 311.82, 224 301.72, 224L82.29, 224C72.19, 224 64, 231.16 64, 240zM96, 256L288, 256L288, 320L96, 320L96, 256zM72, 96L184, 96C188.42, 96 192, 92.42 192, 88L192, 72C192, 67.58 188.42, 64 184, 64L72, 64C67.58, 64 64, 67.58 64, 72L64, 88C64, 92.42 67.58, 96 72, 96zM72, 160L184, 160C188.42, 160 192, 156.42 192, 152L192, 136C192, 131.58 188.42, 128 184, 128L72, 128C67.58, 128 64, 131.58 64, 136L64, 152C64, 156.42 67.58, 160 72, 160zM369.9, 97.98L286.02, 14.1C277.02, 5.1 264.82, 0 252.13, 0L47.99, 0C21.5, 0.1 0, 21.6 0, 48.09L0, 464.01C0, 490.5 21.5, 512 47.99, 512L336.01, 512C362.5, 512 384, 490.5 384, 464.01L384, 131.97C384, 119.28 378.9, 106.98 369.9, 97.98zM256.03, 32.59C258.83, 33.29 261.33, 34.69 263.43, 36.79L347.31, 120.67C349.41, 122.77 350.81, 125.27 351.51, 128.07L256.03, 128.07L256.03, 32.59zM352.01, 464.01C352.01, 472.81 344.81, 480.01 336.01, 480.01L47.99, 480.01C39.19, 480.01 31.99, 472.81 31.99, 464.01L31.99, 48.09C31.99, 39.29 39.19, 32 47.99, 32L224.03, 32L224.03, 136.07C224.03, 149.37 234.73, 160 248.03, 160L352.01, 160L352.01, 464.01z" fill="#727272" fill-opacity="1" class="Black" />
  </g>
</svg>