<?xml version='1.0' encoding='UTF-8'?>
<svg viewBox="-5.5021 -2.005 32 32" xmlns="http://www.w3.org/2000/svg">
  <g transform="matrix(0.0547, 0, 0, 0.0547, 0, 0)">
    <path d="M369.9, 97.9L286, 14C277, 5 264.8, -0.1 252.1, -0.1L48, -0.1C21.5, 0 0, 21.5 0, 48L0, 464C0, 490.5 21.5, 512 48, 512L336, 512C362.5, 512 384, 490.5 384, 464L384, 131.9C384, 119.2 378.9, 106.9 369.9, 97.9zM347.3, 120.6C349.4, 122.7 350.8, 125.2 351.5, 128L256, 128L256, 32.5C258.8, 33.2 261.3, 34.6 263.4, 36.7L347.3, 120.6zM336, 480L48, 480C39.2, 480 32, 472.8 32, 464L32, 48C32, 39.2 39.2, 32 48, 32L224, 32L224, 136C224, 149.3 234.7, 160 248, 160L352, 160L352, 464C352, 472.8 344.8, 480 336, 480zM258.4, 413.4C296.9, 387.4 320, 344.1 320, 297.7C320, 273 313.5, 248.8 301.1, 227.6C289.1, 207 272, 189.8 251.5, 177.6C244.4, 173.4 235.2, 175.7 230.9, 182.8C226.7, 189.9 229, 199.1 236.1, 203.4C269.2, 223.1 289.8, 259.2 289.8, 297.7C289.8, 334.2 271.7, 368.1 241.5, 388.6C234.6, 393.2 232.8, 402.6 237.5, 409.4C240.4, 413.7 245.1, 416 249.9, 416C253, 416 255.9, 415.2 258.4, 413.4zM231.8, 375.1C257.8, 357.8 273.3, 328.9 273.3, 297.7C273.3, 264.8 255.6, 234 227.1, 217.4C219.9, 213.2 210.8, 215.7 206.6, 222.8C202.4, 230 204.9, 239.1 212, 243.3C231.3, 254.5 243.3, 275.3 243.3, 297.6C243.3, 318.7 232.8, 338.3 215.2, 350C208.3, 354.6 206.4, 363.9 211, 370.8C213.9, 375.2 218.7, 377.5 223.5, 377.5C226.3, 377.6 229.2, 376.8 231.8, 375.1zM204.8, 336.9C218.5, 328.4 226.6, 313.8 226.6, 297.7C226.6, 280.7 217.3, 265.2 202.4, 257.1C195.1, 253.2 186, 255.9 182.1, 263.2C178.2, 270.5 180.9, 279.6 188.2, 283.5C193.4, 286.3 196.7, 291.8 196.7, 297.7C196.7, 303.3 193.8, 308.5 189.1, 311.4C182.1, 315.8 179.9, 325 184.3, 332.1C187.1, 336.7 192, 339.2 197.1, 339.2C199.6, 339.2 202.3, 338.5 204.8, 336.9zM138, 266.7L138, 341.4L112, 322L94, 322L94, 286L112, 286L138, 266.7M155.9, 216C153, 216 149.9, 217.1 147.5, 219.5L104, 256L76, 256C69.4, 256 64, 261.4 64, 268L64, 340C64, 346.6 69.4, 352 76, 352L104, 352L147.5, 388.5C149.9, 390.9 152.9, 392 155.9, 392C162.1, 392 168, 387.2 168, 380L168, 228C168, 220.8 162.1, 216 155.9, 216z" fill="#727272" fill-opacity="1" class="Black" />
  </g>
</svg>