<?xml version='1.0' encoding='UTF-8'?>
<svg viewBox="-0.4421 -3.5563 31.995 32" xmlns="http://www.w3.org/2000/svg">
  <g transform="matrix(0.0486, 0, 0, 0.0486, 0, 0)">
    <path d="M605.65, 487.05L516.76, 398.17C533.62, 376.49 544.07, 349.59 544.07, 320A128 128 0 1 0 416.07, 448C445.62, 448 472.5, 437.58 494.17, 420.76L583.07, 509.65A8 8 0 0 0 594.39, 509.65L605.7, 498.34A8 8 0 0 0 605.65, 487.05zM416.05, 416A96 96 0 1 1 512.05, 320A96.12 96.12 0 0 1 416.05, 416zM368, 480L80, 480A16 16 0 0 1 64, 464L64, 48.09A16 16 0 0 1 80, 32.09L256, 32.09L256, 136.09A23.93 23.93 0 0 0 280, 160.09L416, 160L416, 132A48.23 48.23 0 0 0 401.9, 98L318, 14.1A48 48 0 0 0 284.08, 0L80, 0A48.16 48.16 0 0 0 32, 48.09L32, 464A48 48 0 0 0 80, 512L368, 512A47.87 47.87 0 0 0 413.15, 479.71A159.9 159.9 0 0 1 379.23, 475.35A15.91 15.91 0 0 1 368, 480zM288, 32.59A15.73 15.73 0 0 1 295.4, 36.79L379.3, 120.68A15.75 15.75 0 0 1 383.5, 128.07L288, 128.07z" fill="#727272" fill-opacity="1" class="Black" />
  </g>
</svg>