<?xml version='1.0' encoding='UTF-8'?>
<svg viewBox="-2 -2 32 32" xmlns="http://www.w3.org/2000/svg">
  <g transform="matrix(0.0547, 0, 0, 0.0547, 0, 0)">
    <path d="M497.9, 97.98L414.02, 14.1C405.02, 5.1 392.82, 0 380.13, 0L175.99, 0C149.5, 0.1 128, 21.6 128, 48.09L128, 288L8, 288C3.58, 288 0, 291.58 0, 296L0, 312C0, 316.42 3.58, 320 8, 320L256, 320L256, 372.67C256, 383.65 262.38, 393.22 272.69, 397.64C287.62, 404.09 299.57, 396.03 303.57, 392.25L375.29, 324.13C380.91, 318.8 384.01, 311.65 384.01, 304.01C384.01, 296.37 380.92, 289.21 375.32, 283.9L303.54, 215.74C295.26, 207.94 283.13, 205.86 272.7, 210.36C262.39, 214.78 256.01, 224.34 256.01, 235.33L256.01, 288L160, 288L160, 48.09C160, 39.29 167.2, 32 176, 32L352.04, 32L352.04, 136.07C352.04, 149.37 362.74, 160 376.04, 160L480.02, 160L480.02, 464.01C480.02, 472.81 472.82, 480.01 464.02, 480.01L175.99, 480.01C167.19, 480.01 159.99, 472.81 159.99, 464.01L159.99, 352L128, 352L128, 464.01C128, 490.5 149.5, 512 175.99, 512L464.01, 512C490.5, 512 512, 490.5 512, 464.01L512, 131.97C512, 119.28 506.9, 106.98 497.9, 97.98zM288, 245.12L350, 304L288, 362.88L288, 245.12zM384.03, 128.07L384.03, 32.59C386.83, 33.29 389.33, 34.69 391.43, 36.79L475.31, 120.67C477.41, 122.77 478.81, 125.27 479.51, 128.07L384.03, 128.07z" fill="#727272" fill-opacity="1" class="Black" />
  </g>
</svg>