<?xml version='1.0' encoding='UTF-8'?>
<svg viewBox="-5.5021 -2.005 32 32" xmlns="http://www.w3.org/2000/svg">
  <g transform="matrix(0.0547, 0, 0, 0.0547, 0, 0)">
    <path d="M369.9, 97.9L286, 14C277, 5 264.8, -0.1 252.1, -0.1L48, -0.1C21.5, 0 0, 21.5 0, 48L0, 464C0, 490.5 21.5, 512 48, 512L336, 512C362.5, 512 384, 490.5 384, 464L384, 131.9C384, 119.2 378.9, 106.9 369.9, 97.9zM347.3, 120.6C349.4, 122.7 350.8, 125.2 351.5, 128L256, 128L256, 32.5C258.8, 33.2 261.3, 34.6 263.4, 36.7L347.3, 120.6zM336, 480L48, 480C39.2, 480 32, 472.8 32, 464L32, 48C32, 39.2 39.2, 32 48, 32L224, 32L224, 136C224, 149.3 234.7, 160 248, 160L352, 160L352, 464C352, 472.8 344.8, 480 336, 480zM180.7, 192L203.3, 192C210.2, 192 215.7, 197.8 215.3, 204.7L208.6, 324.7C208.2, 331.1 203, 336 196.6, 336L187.3, 336C180.9, 336 175.7, 331 175.3, 324.7L168.6, 204.7C168.3, 197.8 173.8, 192 180.7, 192zM220, 384C220, 399.5 207.5, 412 192, 412C176.5, 412 164, 399.5 164, 384C164, 368.5 176.5, 356 192, 356C207.5, 356 220, 368.5 220, 384z" fill="#727272" fill-opacity="1" class="Black" />
  </g>
</svg>