<?xml version='1.0' encoding='UTF-8'?>
<svg viewBox="-1.9975 -2 31.9975 32" xmlns="http://www.w3.org/2000/svg">
  <g transform="matrix(0.0547, 0, 0, 0.0547, 0, 0)">
    <path d="M497.9, 97.98L414.02, 14.1C405.02, 5.1 392.83, 0 380.13, 0L176, 0C149.5, 0.1 128.01, 21.6 128.01, 48.09L128.01, 165.7C122.04, 165.7 116.07, 164.02 103.88, 160.67C102.18, 160.21 100.52, 160.01 98.92, 160.01C93.36, 160.01 88.49, 162.51 85.26, 165.8C67.31, 184.06 68.19, 183.57 43.56, 190.3C36.86, 192.11 31.59, 197.51 29.78, 204.37C23.31, 229.04 23.69, 228.53 5.76, 246.69C0.81, 251.73 -1.14, 259.17 0.68, 266.12C7.24, 290.5 7.2, 290.51 0.68, 314.88C-1.14, 321.83 0.8, 329.28 5.76, 334.33C23.76, 352.48 23.34, 352.12 29.78, 376.62C31.58, 383.5 36.86, 388.89 43.56, 390.72C45.36, 391.2 46.48, 391.52 48.02, 391.93L48.02, 496C48.02, 501.55 50.89, 506.69 55.61, 509.61C60.27, 512.52 66.2, 512.77 71.17, 510.31L128.01, 481.89L184.85, 510.31C187.1, 511.43 189.57, 512 192.01, 512L464.01, 512C490.5, 512 512, 490.5 512, 464.01L512, 131.97C512, 119.28 506.9, 106.98 497.9, 97.98zM384.03, 32.59C386.83, 33.29 389.33, 34.69 391.43, 36.79L475.31, 120.67C477.41, 122.77 478.81, 125.27 479.51, 128.07L384.03, 128.07L384.03, 32.59zM33.28, 316.68C38.98, 294.38 38.98, 286.45 33.29, 264.29C48.94, 248.09 52.85, 241.31 58.92, 219.23C80.49, 213.1 86.98, 209.31 102.8, 193.54C112.6, 196.16 119.62, 197.69 128.01, 197.69C136.29, 197.69 143.26, 196.2 153.2, 193.53C168.76, 209.04 175.69, 213.11 197.06, 219.21C203.04, 241.16 206.77, 247.84 222.71, 264.28C216.94, 286.73 216.95, 294.28 222.71, 316.68C207.09, 332.85 203.16, 339.64 197.1, 361.64C182.47, 365.56 173.1, 369 159.85, 381C149.91, 376.47 139.07, 374.11 128, 374.11C116.93, 374.11 106.1, 376.47 96.15, 381.01C82.97, 369.13 73.59, 365.67 58.92, 361.68C52.95, 339.79 49.2, 333.11 33.28, 316.68zM135.17, 449.69C130.67, 447.44 125.36, 447.44 120.86, 449.69L80.02, 470.11L80.02, 409.9C80.14, 410.02 80.21, 410.07 80.33, 410.19C84.08, 414.01 89.01, 415.98 93.97, 415.98C97.47, 415.98 100.99, 415 104.13, 413.01C111.38, 408.42 119.69, 406.13 128, 406.13C136.31, 406.13 144.62, 408.42 151.87, 412.99C155.03, 415.01 158.55, 416 162.04, 416C167, 416 171.91, 414.01 175.67, 410.21C175.8, 410.08 175.88, 410.03 176.01, 409.89L176.01, 470.11L135.17, 449.69zM480.01, 464.01C480.01, 472.81 472.81, 480.01 464.01, 480.01L208.01, 480.01L208.01, 391.9C209.55, 391.5 210.66, 391.19 212.45, 390.71C219.15, 388.89 224.42, 383.49 226.22, 376.63C232.69, 351.95 232.31, 352.47 250.25, 334.31C255.2, 329.27 257.15, 321.82 255.32, 314.87C248.79, 290.54 248.77, 290.53 255.32, 266.11C257.15, 259.16 255.2, 251.71 250.25, 246.66C232.25, 228.51 232.67, 228.87 226.22, 204.37C224.42, 197.5 219.15, 192.1 212.47, 190.28C188.24, 183.71 188.58, 184.05 170.75, 165.76C167.81, 162.79 163.97, 161.24 160.01, 160.6L160.01, 48.09C160.01, 39.29 167.21, 32 176.01, 32L352.04, 32L352.04, 136.07C352.04, 149.37 362.74, 160 376.04, 160L480.02, 160L480.02, 464.01z" fill="#727272" fill-opacity="1" class="Black" />
  </g>
</svg>