<?xml version='1.0' encoding='UTF-8'?>
<svg viewBox="-5.5003 -2 32 32" xmlns="http://www.w3.org/2000/svg">
  <g transform="matrix(0.0547, 0, 0, 0.0547, 0, 0)">
    <path d="M196.66, 363.33L182.78, 321.71C179.5, 311.9 170.34, 305.3 160, 305.3C149.66, 305.3 140.5, 311.89 137.22, 321.71L119, 376.36C117.5, 380.94 113.22, 384 108.41, 384L96, 384C87.16, 384 80, 391.16 80, 400C80, 408.84 87.16, 416 96, 416L108.41, 416C127.03, 416 143.5, 404.12 149.38, 386.47L160, 354.58L176.81, 405.06A15.994 15.994 0 0 0 190.87, 415.95C191.25, 415.98 191.62, 416 191.99, 416C198.02, 416 203.58, 412.59 206.3, 407.14L213.96, 391.81C216.74, 386.22 221.9, 385.62 223.99, 385.62C226.08, 385.62 231.24, 386.21 234.18, 392.15C241.56, 406.85 256.37, 415.99 272.8, 415.99L288, 415.99C296.84, 415.99 304, 408.83 304, 399.99C304, 391.15 296.84, 383.99 288, 383.99L272.81, 383.99C268.53, 383.99 264.69, 381.61 262.65, 377.49C250.69, 353.64 216.41, 347.16 196.66, 363.33zM72, 96L184, 96C188.42, 96 192, 92.42 192, 88L192, 72C192, 67.58 188.42, 64 184, 64L72, 64C67.58, 64 64, 67.58 64, 72L64, 88C64, 92.42 67.58, 96 72, 96zM192, 152L192, 136C192, 131.58 188.42, 128 184, 128L72, 128C67.58, 128 64, 131.58 64, 136L64, 152C64, 156.42 67.58, 160 72, 160L184, 160C188.42, 160 192, 156.42 192, 152zM369.9, 97.98L286.02, 14.1C277.02, 5.1 264.82, 0 252.13, 0L47.99, 0C21.5, 0.1 0, 21.6 0, 48.09L0, 464.01C0, 490.5 21.5, 512 47.99, 512L336.01, 512C362.5, 512 384, 490.5 384, 464.01L384, 131.97C384, 119.28 378.9, 106.98 369.9, 97.98zM256.03, 32.59C258.83, 33.29 261.33, 34.69 263.43, 36.79L347.31, 120.67C349.41, 122.77 350.81, 125.27 351.51, 128.07L256.03, 128.07L256.03, 32.59zM352.01, 464.01C352.01, 472.81 344.81, 480.01 336.01, 480.01L47.99, 480.01C39.19, 480.01 31.99, 472.81 31.99, 464.01L31.99, 48.09C31.99, 39.29 39.19, 32 47.99, 32L224.03, 32L224.03, 136.07C224.03, 149.37 234.73, 160 248.03, 160L352.01, 160L352.01, 464.01z" fill="#727272" fill-opacity="1" class="Black" />
  </g>
</svg>