<?xml version='1.0' encoding='UTF-8'?>
<svg viewBox="-5.5003 -2 32 32" xmlns="http://www.w3.org/2000/svg">
  <g transform="matrix(0.0547, 0, 0, 0.0547, 0, 0)">
    <path d="M219.09, 327.42L174.09, 313.92C168.93, 312.37 165.32, 307.14 165.32, 301.19C165.32, 293.92 170.62, 288 177.12, 288L205.23, 288C209.79, 288 214.19, 289.29 218.05, 291.72C221.29, 293.75 225.41, 293.63 228.18, 290.99L239.93, 279.78C243.46, 276.41 243.26, 270.57 239.36, 267.64C230.26, 260.81 219.28, 256.87 207.99, 256.29L207.99, 232C207.99, 227.58 204.41, 224 199.99, 224L183.99, 224C179.57, 224 175.99, 227.58 175.99, 232L175.99, 256.12C152.37, 256.75 133.32, 276.67 133.32, 301.19C133.32, 321.16 146.3, 339 164.9, 344.58L209.9, 358.08C215.06, 359.63 218.67, 364.86 218.67, 370.81C218.67, 378.08 213.37, 384 206.87, 384L178.76, 384C174.2, 384 169.8, 382.71 165.94, 380.28C162.7, 378.25 158.58, 378.37 155.81, 381.01L144.06, 392.22C140.53, 395.59 140.73, 401.43 144.63, 404.36C153.73, 411.19 164.71, 415.13 176, 415.71L176, 440C176, 444.42 179.58, 448 184, 448L200, 448C204.42, 448 208, 444.42 208, 440L208, 415.88C231.62, 415.25 250.67, 395.34 250.67, 370.81C250.67, 350.84 237.69, 333 219.09, 327.42zM72, 96L184, 96C188.42, 96 192, 92.42 192, 88L192, 72C192, 67.58 188.42, 64 184, 64L72, 64C67.58, 64 64, 67.58 64, 72L64, 88C64, 92.42 67.58, 96 72, 96zM192, 152L192, 136C192, 131.58 188.42, 128 184, 128L72, 128C67.58, 128 64, 131.58 64, 136L64, 152C64, 156.42 67.58, 160 72, 160L184, 160C188.42, 160 192, 156.42 192, 152zM369.9, 97.98L286.02, 14.1C277.02, 5.1 264.82, 0 252.13, 0L47.99, 0C21.5, 0.1 0, 21.6 0, 48.09L0, 464.01C0, 490.5 21.5, 512 47.99, 512L336.01, 512C362.5, 512 384, 490.5 384, 464.01L384, 131.97C384, 119.28 378.9, 106.98 369.9, 97.98zM256.03, 32.59C258.83, 33.29 261.33, 34.69 263.43, 36.79L347.31, 120.67C349.41, 122.77 350.81, 125.27 351.51, 128.07L256.03, 128.07L256.03, 32.59zM352.01, 464.01C352.01, 472.81 344.81, 480.01 336.01, 480.01L47.99, 480.01C39.19, 480.01 31.99, 472.81 31.99, 464.01L31.99, 48.09C31.99, 39.29 39.19, 32 47.99, 32L224.03, 32L224.03, 136.07C224.03, 149.37 234.73, 160 248.03, 160L352.01, 160L352.01, 464.01z" fill="#727272" fill-opacity="1" class="Black" />
  </g>
</svg>