<?xml version='1.0' encoding='UTF-8'?>
<svg viewBox="-5.5021 -2.005 32 32" xmlns="http://www.w3.org/2000/svg">
  <g transform="matrix(0.0547, 0, 0, 0.0547, 0, 0)">
    <path d="M128, 96L128, 128L160, 128L160, 96zM193.9, 265.6C192.8, 260 187.9, 256 182.1, 256L160, 256L160, 224L128, 224L128, 256L108.6, 353.2C102.1, 385.7 126.9, 416 160, 416C193.1, 416 217.9, 385.7 211.4, 353.2zM160.3, 390.1C142.4, 390.1 127.9, 378 127.9, 363.1C127.9, 348.2 142.4, 336.1 160.3, 336.1C178.2, 336.1 192.7, 348.2 192.7, 363.1C192.7, 378 178.2, 390.1 160.3, 390.1zM128, 160L128, 192L160, 192L160, 160zM192, 64L160, 64L160, 96L192, 96zM369.9, 97.9L286, 14C277, 5 264.8, -0.1 252.1, -0.1L48, -0.1C21.5, 0 0, 21.5 0, 48L0, 464C0, 490.5 21.5, 512 48, 512L336, 512C362.5, 512 384, 490.5 384, 464L384, 131.9C384, 119.2 378.9, 106.9 369.9, 97.9zM256, 32.5C258.8, 33.2 261.4, 34.6 263.4, 36.7L347.3, 120.6C349.3, 122.6 350.8, 125.2 351.5, 128L256, 128zM352, 464C352, 472.8 344.8, 480 336, 480L48, 480C39.2, 480 32, 472.8 32, 464L32, 48C32, 39.2 39.2, 32 48, 32L127.7, 32L127.7, 64L159.7, 64L159.7, 32L224, 32L224, 136C224, 149.3 234.7, 160 248, 160L352, 160zM192, 192L160, 192L160, 224L192, 224zM192, 128L160, 128L160, 160L192, 160z" fill="#727272" fill-opacity="1" class="Black" />
  </g>
</svg>