<?xml version='1.0' encoding='UTF-8'?>
<svg viewBox="-5.5003 -2 32 32" xmlns="http://www.w3.org/2000/svg">
  <g transform="matrix(0.0547, 0, 0, 0.0547, 0, 0)">
    <path d="M369.9, 97.98L286.02, 14.1C277.02, 5.1 264.82, 0 252.13, 0L47.99, 0C21.5, 0.1 0, 21.6 0, 48.09L0, 464.01C0, 490.5 21.5, 512 47.99, 512L336.01, 512C362.5, 512 384, 490.5 384, 464.01L384, 131.97C384, 119.28 378.9, 106.98 369.9, 97.98zM256.03, 32.59C258.83, 33.29 261.33, 34.69 263.43, 36.79L347.31, 120.67C349.41, 122.77 350.81, 125.27 351.51, 128.07L256.03, 128.07L256.03, 32.59zM352.01, 464.01C352.01, 472.81 344.81, 480.01 336.01, 480.01L47.99, 480.01C39.19, 480.01 31.99, 472.81 31.99, 464.01L31.99, 48.09C31.99, 39.29 39.19, 32 47.99, 32L224.03, 32L224.03, 136.07C224.03, 149.37 234.73, 160 248.03, 160L352.01, 160L352.01, 464.01zM208, 216C208, 211.58 204.42, 208 200, 208L184, 208C179.58, 208 176, 211.58 176, 216L176, 304.02L123.34, 304.02C112.34, 304.02 102.75, 310.43 98.34, 320.74C93.84, 331.26 95.96, 343.36 103.78, 351.55L171.9, 423.33C177.24, 428.92 184.37, 432.02 191.99, 432.02C199.61, 432.02 206.74, 428.93 212.08, 423.32L280.2, 351.57C288.01, 343.37 290.14, 331.26 285.64, 320.74C281.23, 310.43 271.64, 304.02 260.64, 304.02L208, 304.02L208, 216zM250.84, 336.02L192, 398.02L133.16, 336.02L250.84, 336.02z" fill="#727272" fill-opacity="1" class="Black" />
  </g>
</svg>