<?xml version='1.0' encoding='UTF-8'?>
<svg viewBox="-5.5003 -2 32 32" xmlns="http://www.w3.org/2000/svg">
  <g transform="matrix(0.0547, 0, 0, 0.0547, 0, 0)">
    <path d="M369.9, 97.98L286.02, 14.1C277.02, 5.1 264.82, 0 252.13, 0L47.99, 0C21.5, 0.1 0, 21.6 0, 48.09L0, 464.01C0, 490.5 21.5, 512 47.99, 512L336.01, 512C362.5, 512 384, 490.5 384, 464.01L384, 131.97C384, 119.28 378.9, 106.98 369.9, 97.98zM256.03, 32.59C258.83, 33.29 261.33, 34.69 263.43, 36.79L347.31, 120.67C349.41, 122.77 350.81, 125.27 351.51, 128.07L256.03, 128.07L256.03, 32.59zM352.01, 464.01C352.01, 472.81 344.81, 480.01 336.01, 480.01L47.99, 480.01C39.19, 480.01 31.99, 472.81 31.99, 464.01L31.99, 48.09C31.99, 39.29 39.19, 32 47.99, 32L224.03, 32L224.03, 136.07C224.03, 149.37 234.73, 160 248.03, 160L352.01, 160L352.01, 464.01zM171.91, 216.69L103.79, 288.44C95.98, 296.64 93.85, 308.75 98.35, 319.27C102.76, 329.58 112.35, 335.99 123.35, 335.99L176, 335.99L176, 424C176, 428.42 179.58, 432 184, 432L200, 432C204.42, 432 208, 428.42 208, 424L208, 335.98L260.66, 335.98C271.66, 335.98 281.25, 329.57 285.66, 319.26C290.16, 308.74 288.04, 296.64 280.22, 288.45L212.1, 216.67C201.41, 205.48 182.59, 205.47 171.91, 216.69zM133.16, 303.98L192, 241.98L250.84, 303.98L133.16, 303.98z" fill="#727272" fill-opacity="1" class="Black" />
  </g>
</svg>