<?xml version='1.0' encoding='UTF-8'?>
<svg viewBox="-5.5003 -2 32 32" xmlns="http://www.w3.org/2000/svg">
  <g transform="matrix(0.0547, 0, 0, 0.0547, 0, 0)">
    <path d="M369.91, 98L286, 14.09A48 48 0 0 0 252.09, 0L48, 0A48.15 48.15 0 0 0 0, 48.08L0, 464A48 48 0 0 0 48, 512L336, 512A48 48 0 0 0 384, 464L384, 132A48.22 48.22 0 0 0 369.91, 98zM256, 32.59A15.63 15.63 0 0 1 263.41, 36.79L347.31, 120.67A15.63 15.63 0 0 1 351.5, 128.07L256, 128.07zM352, 464A16 16 0 0 1 336, 480L48, 480A16 16 0 0 1 32, 464L32, 48.08A16 16 0 0 1 48, 32.08L224, 32.08L224, 136.08A23.93 23.93 0 0 0 248, 160.08L352, 160.08zM128, 271.2L128, 369.89A69.34 69.34 0 0 0 112, 367.89C85.5, 367.89 64, 382.22 64, 399.89C64, 417.56 85.5, 431.89 112, 431.89C138.5, 431.89 160, 417.57 160, 399.89L160, 291.11L256, 253.6L256, 337.89A69.34 69.34 0 0 0 240, 335.94C213.5, 335.94 192, 350.26 192, 367.94C192, 385.62 213.5, 399.94 240, 399.94C266.5, 399.94 288, 385.61 288, 367.94L288, 224A16 16 0 0 0 267.19, 208.76L139.19, 256A16 16 0 0 0 128, 271.2z" fill="#727272" fill-opacity="1" class="Black" />
  </g>
</svg>