<?xml version='1.0' encoding='UTF-8'?>
<svg viewBox="-5.5003 -2 32 32" xmlns="http://www.w3.org/2000/svg">
  <g transform="matrix(0.0547, 0, 0, 0.0547, 0, 0)">
    <path d="M369.9, 97.98L286.02, 14.1C277.02, 5.1 264.82, 0 252.13, 0L47.99, 0C21.5, 0.1 0, 21.6 0, 48.09L0, 464.01C0, 490.5 21.5, 512 47.99, 512L336.01, 512C362.5, 512 384, 490.5 384, 464.01L384, 131.97C384, 119.28 378.9, 106.98 369.9, 97.98zM256.03, 32.59C258.83, 33.29 261.33, 34.69 263.43, 36.79L347.31, 120.67C349.41, 122.77 350.81, 125.27 351.51, 128.07L256.03, 128.07L256.03, 32.59zM352.01, 464.01C352.01, 472.81 344.81, 480.01 336.01, 480.01L47.99, 480.01C39.19, 480.01 31.99, 472.81 31.99, 464.01L31.99, 48.09C31.99, 39.29 39.19, 32 47.99, 32L224.03, 32L224.03, 136.07C224.03, 149.37 234.73, 160 248.03, 160L352.01, 160L352.01, 464.01zM120, 256L112, 256C85.49, 256 64, 277.49 64, 304L64, 336C64, 362.51 85.49, 384 112, 384L120, 384C124.42, 384 128, 380.42 128, 376L128, 360C128, 355.58 124.42, 352 120, 352L112, 352C103.16, 352 96, 344.84 96, 336L96, 304C96, 295.16 103.16, 288 112, 288L120, 288C124.42, 288 128, 284.42 128, 280L128, 264C128, 259.58 124.42, 256 120, 256zM232, 256C227.58, 256 224, 259.58 224, 264L224, 284.8C224, 320.28 236.88, 353.69 260.28, 378.89C263.3, 382.14 267.55, 384 272, 384C276.45, 384 280.7, 382.14 283.72, 378.89C307.13, 353.69 320, 320.28 320, 284.8L320, 264C320, 259.58 316.42, 256 312, 256L296, 256C291.58, 256 288, 259.58 288, 264L288, 284.8C288, 305.07 282.3, 324.97 272, 341.68C261.7, 324.98 256, 305.07 256, 284.8L256, 264C256, 259.58 252.42, 256 248, 256L232, 256zM179.45, 298.47C178.07, 297.28 177.33, 295.92 177.33, 294.63C177.33, 291.51 181.78, 288.01 187.74, 288.01L200, 288.01C204.42, 288.01 208, 284.43 208, 280.01L208, 264.01C208, 259.59 204.42, 256.01 200, 256.01L187.73, 256.01C164.34, 256.01 145.32, 273.34 145.32, 294.63C145.32, 305.29 150.18, 315.55 158.65, 322.77L180.54, 341.54C181.92, 342.73 182.66, 344.09 182.66, 345.38C182.66, 348.5 178.21, 352 172.25, 352L160, 352C155.58, 352 152, 355.58 152, 360L152, 376C152, 380.42 155.58, 384 160, 384L172.27, 384C195.66, 384 214.68, 366.67 214.68, 345.38C214.68, 334.72 209.82, 324.46 201.35, 317.24L179.45, 298.47z" fill="#727272" fill-opacity="1" class="Black" />
  </g>
</svg>