<?xml version='1.0' encoding='UTF-8'?>
<svg viewBox="-5.5021 -2.005 32 32" xmlns="http://www.w3.org/2000/svg">
  <g transform="matrix(0.0547, 0, 0, 0.0547, 0, 0)">
    <path d="M369.9, 97.9L286, 14C277, 5 264.8, -0.1 252.1, -0.1L48, -0.1C21.5, 0 0, 21.5 0, 48L0, 464C0, 490.5 21.5, 512 48, 512L336, 512C362.5, 512 384, 490.5 384, 464L384, 131.9C384, 119.2 378.9, 106.9 369.9, 97.9zM347.3, 120.6C349.4, 122.7 350.8, 125.2 351.5, 128L256, 128L256, 32.5C258.8, 33.2 261.3, 34.6 263.4, 36.7L347.3, 120.6zM336, 480L48, 480C39.2, 480 32, 472.8 32, 464L32, 48C32, 39.2 39.2, 32 48, 32L224, 32L224, 136C224, 149.3 234.7, 160 248, 160L352, 160L352, 464C352, 472.8 344.8, 480 336, 480zM262.7, 352.1C267.4, 356.8 267.4, 364.4 262.7, 369.1L257, 374.8C252.3, 379.5 244.7, 379.5 240, 374.8L192, 326.6L143.9, 374.7C139.2, 379.4 131.6, 379.4 126.9, 374.7L121.2, 369C116.5, 364.3 116.5, 356.7 121.2, 352L169.3, 303.9L121.2, 255.8C116.5, 251.1 116.5, 243.5 121.2, 238.8L126.9, 233.1C131.6, 228.4 139.2, 228.4 143.9, 233.1L192, 281.2L240.1, 233.1C244.8, 228.4 252.4, 228.4 257.1, 233.1L262.8, 238.8C267.5, 243.5 267.5, 251.1 262.8, 255.8L214.6, 304L262.7, 352.1z" fill="#727272" fill-opacity="1" class="Black" />
  </g>
</svg>