<?xml version='1.0' encoding='UTF-8'?>
<svg viewBox="-5.5021 -2.005 32 32" xmlns="http://www.w3.org/2000/svg">
  <g transform="matrix(0.0547, 0, 0, 0.0547, 0, 0)">
    <path d="M369.9, 97.9L286, 14C277, 5 264.8, -0.1 252.1, -0.1L48, -0.1C21.5, 0 0, 21.5 0, 48L0, 464C0, 490.5 21.5, 512 48, 512L336, 512C362.5, 512 384, 490.5 384, 464L384, 131.9C384, 119.2 378.9, 106.9 369.9, 97.9zM347.3, 120.6C349.4, 122.7 350.8, 125.2 351.5, 128L256, 128L256, 32.5C258.8, 33.2 261.3, 34.6 263.4, 36.7L347.3, 120.6zM336, 480L48, 480C39.2, 480 32, 472.8 32, 464L32, 48C32, 39.2 39.2, 32 48, 32L224, 32L224, 136C224, 149.3 234.7, 160 248, 160L352, 160L352, 464C352, 472.8 344.8, 480 336, 480zM288, 236L288, 244C288, 250.6 282.6, 256 276, 256L108, 256C101.4, 256 96, 250.6 96, 244L96, 236C96, 229.4 101.4, 224 108, 224L276, 224C282.6, 224 288, 229.4 288, 236zM288, 300L288, 308C288, 314.6 282.6, 320 276, 320L108, 320C101.4, 320 96, 314.6 96, 308L96, 300C96, 293.4 101.4, 288 108, 288L276, 288C282.6, 288 288, 293.4 288, 300zM288, 364L288, 372C288, 378.6 282.6, 384 276, 384L108, 384C101.4, 384 96, 378.6 96, 372L96, 364C96, 357.4 101.4, 352 108, 352L276, 352C282.6, 352 288, 357.4 288, 364z" fill="#727272" fill-opacity="1" class="Black" />
  </g>
</svg>