<?xml version='1.0' encoding='UTF-8'?>
<svg viewBox="-1.9998 -3.5563 31.9975 32" xmlns="http://www.w3.org/2000/svg">
  <g transform="matrix(0.0486, 0, 0, 0.0486, 0, 0)">
    <path d="M512, 320C512, 320 448, 412.65 448, 448C448, 483.35 476.66, 512 512, 512C547.34, 512 576, 483.35 576, 448C576, 412.65 512, 320 512, 320zM512, 480C494.36, 480 480, 465.64 480, 448.04C480.26, 438.26 493.57, 410.37 512.01, 379.31C530.44, 410.35 543.74, 438.22 544, 448C544, 465.64 529.64, 480 512, 480zM502.63, 217.06L294.94, 9.37C288.69, 3.12 280.5, 0 272.31, 0C264.12, 0 255.93, 3.12 249.69, 9.37L156.84, 102.22L56.97, 2.35C53.85, -0.77 48.78, -0.77 45.66, 2.35L34.34, 13.66C31.22, 16.78 31.22, 21.85 34.34, 24.97L134.22, 124.85L28.12, 230.95C-9.37, 268.44 -9.37, 329.21 28.12, 366.7L145.31, 483.89C164.06, 502.63 188.62, 512.01 213.18, 512.01C237.75, 512.01 262.31, 502.64 281.05, 483.89L502.62, 262.32C515.12, 249.82 515.12, 229.56 502.63, 217.06zM258.43, 461.26C246.34, 473.34 230.27, 480 213.18, 480C196.09, 480 180.02, 473.34 167.94, 461.26L50.74, 344.06C43.86, 337.18 38.97, 328.92 35.83, 320L399.68, 320L258.43, 461.26zM431.68, 288L33.06, 288C35.26, 275.04 41.26, 263.06 50.75, 253.57L156.84, 147.46L244.69, 235.31C250.94, 241.56 261.07, 241.56 267.31, 235.31C273.56, 229.06 273.56, 218.93 267.31, 212.69L179.46, 124.84L272.29, 32L272.31, 32L480, 239.68L431.68, 288z" fill="#727272" fill-opacity="1" class="Black" />
  </g>
</svg>