<?xml version='1.0' encoding='UTF-8'?>
<svg viewBox="-1.9998 -3.5563 31.9975 32" xmlns="http://www.w3.org/2000/svg">
  <g transform="matrix(0.0486, 0, 0, 0.0486, 0, 0)">
    <path d="M544, 96L320, 96L320, 64L344, 64A8 8 0 0 0 352, 56L352, 40A8 8 0 0 0 344, 32L256, 32L256, 16A16 16 0 0 0 240, 0L112, 0A16 16 0 0 0 96, 16L96, 32L8, 32A8 8 0 0 0 0, 40L0, 56A8 8 0 0 0 8, 64L32, 64L32, 480L8, 480A8 8 0 0 0 0, 488L0, 504A8 8 0 0 0 8, 512L344, 512A8 8 0 0 0 352, 504L352, 488A8 8 0 0 0 344, 480L320, 480L320, 448L480, 448A32 32 0 0 0 512, 416L512, 352A32 32 0 0 1 544, 320A32 32 0 0 0 576, 288L576, 128A32 32 0 0 0 544, 96zM288, 480L64, 480L64, 64L288, 64zM544, 288A64.07 64.07 0 0 0 480, 352L480, 416L320, 416L320, 128L544, 128zM480, 208L496, 208A16 16 0 0 0 512, 192L512, 176A16 16 0 0 0 496, 160L480, 160A16 16 0 0 0 464, 176L464, 192A16 16 0 0 0 480, 208zM368, 384L384, 384A16 16 0 0 0 400, 368L400, 352A16 16 0 0 0 384, 336L368, 336A16 16 0 0 0 352, 352L352, 368A16 16 0 0 0 368, 384zM368, 208L384, 208A16 16 0 0 0 400, 192L400, 176A16 16 0 0 0 384, 160L368, 160A16 16 0 0 0 352, 176L352, 192A16 16 0 0 0 368, 208z" fill="#727272" fill-opacity="1" class="Black" />
  </g>
</svg>