<?xml version='1.0' encoding='UTF-8'?>
<svg viewBox="-2 -4.7992 32 32" xmlns="http://www.w3.org/2000/svg">
  <g transform="matrix(0.9988, 0, 0, 0.9988, 0, 0)">
    <g transform="matrix(0.0438, 0, 0, 0.0438, 0, 0)">
      <path d="M624, 0L16, 0C7.2, 0 0, 7.2 0, 16L0, 112C0, 120.8 7.2, 128 16, 128L32, 128L32, 480C32, 497.7 46.3, 512 64, 512L128, 512C145.7, 512 160, 497.7 160, 480L160, 358.9C160, 275.3 221.1, 200.7 304.3, 192.8C309.6, 192.3 314.8, 192 320, 192C408.4, 192 480, 263.6 480, 352L480, 480C480, 497.7 494.3, 512 512, 512L576, 512C593.7, 512 608, 497.7 608, 480L608, 128L624, 128C632.8, 128 640, 120.8 640, 112L640, 16C640, 7.2 632.8, 0 624, 0zM576, 480L512, 480L512, 352C512, 246.1 425.9, 160 320, 160C313.8, 160 307.6, 160.3 301.2, 160.9C204.1, 170.2 128, 257.1 128, 358.9L128, 480L64, 480L64, 128L576, 128L576, 480zM608, 96L32, 96L32, 32L608, 32L608, 96zM342.3, 311.6C328.3, 292.8 310.9, 273.8 291.2, 256C240.7, 301.6 204.8, 361 204.8, 396.8C204.8, 460.4 256.4, 512 320, 512C383.6, 512 435.2, 460.4 435.2, 396.8C435.2, 370.2 408.5, 315.2 371.2, 281.6C360.5, 291.2 350.8, 301.4 342.3, 311.6zM320, 480C274.1, 480 236.8, 442.7 236.8, 396.8C236.8, 377.2 257.2, 337.9 291.3, 300.8C300.6, 310.6 309.1, 320.7 316.6, 330.7L340.8, 363.1L366.8, 332.2L370.4, 328C390.9, 354.9 403.2, 385.4 403.2, 396.8C403.2, 442.7 365.9, 480 320, 480z" fill="#727272" fill-opacity="1" class="Black" />
    </g>
  </g>
</svg>