<?xml version='1.0' encoding='UTF-8'?>
<svg viewBox="-3.7483 -2 32 32" xmlns="http://www.w3.org/2000/svg">
  <g transform="matrix(0.0547, 0, 0, 0.0547, 0, 0)">
    <path d="M429.627, 32.177L269.627, 56.177C254.178, 58.494 256, 74.414 256, 80L194.604, 80C212.106, 43.162 185.315, 0 144, 0C100.869, 0 74.371, 46.603 95.225, 83.504C52.334, 93.138 20.145, 122.568 1.148, 170.058C-2.134, 178.263 1.856, 187.575 10.061, 190.856C18.271, 194.138 27.579, 190.143 30.859, 181.943C62.582, 102.637 120.434, 112 176, 112L176, 145.353C130.426, 153.116 96, 193.476 96, 241.206L96, 488C96, 501.255 106.745, 512 120, 512L264, 512C277.255, 512 288, 501.255 288, 488L288, 240C288, 192.434 253.401, 152.954 208, 145.335L208, 112L256, 112C256, 116.893 253.819, 133.452 269.627, 135.823L429.627, 159.823C439.275, 161.264 448, 153.803 448, 144L448, 48C448, 38.225 439.305, 30.731 429.627, 32.177zM256, 240L256, 480L128, 480L128, 241.205C128, 205.511 156.49, 176.261 191.501, 176.002L192, 176C227.29, 176 256, 204.71 256, 240zM144, 32C157.234, 32 168, 42.766 168, 56C168, 69.234 157.234, 80 144, 80C130.766, 80 120, 69.234 120, 56C120, 42.766 130.766, 32 144, 32zM416, 125.421L288, 106.221L288, 85.779L416, 66.579L416, 125.421z" fill="#727272" fill-opacity="1" class="Black" />
  </g>
</svg>