<?xml version='1.0' encoding='UTF-8'?>
<svg viewBox="-2 -4.7992 32 32" xmlns="http://www.w3.org/2000/svg">
  <g transform="matrix(1.0011, 0, 0, 1.0011, 0, 0)">
    <g transform="matrix(0.0437, 0, 0, 0.0437, 0, 0)">
      <path d="M363.44, 80C263.48, 80 176.17, 140.25 127.58, 191.79L30.54, 119.13C26.89, 116.4 22.76, 115.19 18.74, 115.19C7.89, 115.19 -2.13, 123.97 0.38, 135.25L27.27, 256L0.39, 376.74C-2.12, 388.02 7.91, 396.8 18.75, 396.8C22.77, 396.8 26.9, 395.59 30.55, 392.86L127.59, 320.2C176.17, 371.75 263.48, 432 363.44, 432C516.18, 432 640, 291.2 640, 256C640, 220.8 516.18, 80 363.44, 80zM363.44, 400C277.42, 400 197.23, 347.44 150.87, 298.26L131.27, 277.47L108.4, 294.59L40.07, 345.76L58.5, 262.96L60.05, 256.01L58.5, 249.06L40.07, 166.26L108.4, 217.43L131.27, 234.55L150.87, 213.76C197.23, 164.56 277.42, 112 363.44, 112C489, 112 595.86, 223.33 607.5, 256C595.86, 288.67 489, 400 363.44, 400zM448, 232C434.75, 232 424, 242.74 424, 256C424, 269.25 434.75, 280 448, 280C461.25, 280 472, 269.25 472, 256C472, 242.74 461.25, 232 448, 232z" fill="#727272" fill-opacity="1" class="Black" />
    </g>
  </g>
</svg>