<?xml version='1.0' encoding='UTF-8'?>
<svg viewBox="-5.5003 -2 32 32" xmlns="http://www.w3.org/2000/svg">
  <g transform="matrix(0.0547, 0, 0, 0.0547, 0, 0)">
    <path d="M350.82, 167.94C351.28, 165.31 352, 162.76 352, 160L352, 80C352, 53.49 330.51, 32 304, 32L288, 32C281.68, 32 275.68, 33.29 270.15, 35.52C264.62, 15.12 246.12, 0 224, 0L208, 0C185.88, 0 167.38, 15.12 161.85, 35.52C156.32, 33.29 150.32, 32 144, 32L128, 32C105.88, 32 87.38, 47.12 81.85, 67.52C76.32, 65.29 70.32, 64 64, 64L48, 64C21.49, 64 0, 85.49 0, 112L0, 298.98C0, 337.15 15.16, 373.76 42.15, 400.75L64, 422.62L64, 504C64, 508.42 67.58, 512 72, 512L88, 512C92.42, 512 96, 508.42 96, 504L96, 409.37L64.78, 378.14A111.97 111.97 0 0 1 32, 298.98L32, 253.05C37.03, 254.84 42.36, 256 48, 256L64, 256C76.34, 256 87.49, 251.19 96, 243.52C104.51, 251.2 115.66, 256 128, 256L144, 256C157.16, 256 169.09, 250.66 177.77, 242.05C178.01, 242.35 187.11, 256.68 208.39, 265.7C188.72, 281.49 174.47, 301.44 151.12, 336.47A7.992 7.992 0 0 0 153.34, 347.56L166.65, 356.44A7.992 7.992 0 0 0 177.74, 354.22L184.05, 344.75C215.96, 296.88 235.61, 274.46 280.17, 272.19C284.42, 271.97 287.99, 268.52 287.99, 264.26L287.99, 248C287.99, 243.58 284.41, 240 279.99, 240L239.32, 240C213.16, 240 191.96, 218.79 191.96, 192.64L191.96, 191.9C191.96, 183.12 199.08, 176 207.86, 176L288, 176C323.35, 176 352, 204.65 352, 240L352, 328.32C352, 353.73 341.91, 378.09 323.94, 396.06L288, 432L288, 504C288, 508.42 291.58, 512 296, 512L312, 512C316.42, 512 320, 508.42 320, 504L320, 445.25L346.51, 418.74C370.51, 394.74 384, 362.18 384, 328.23L384, 240C384, 211.13 370.99, 185.54 350.82, 167.94zM80, 208C80, 216.84 72.84, 224 64, 224L48, 224C39.16, 224 32, 216.84 32, 208L32, 112C32, 103.16 39.16, 96 48, 96L64, 96C72.84, 96 80, 103.16 80, 112L80, 208zM160, 208C160, 216.84 152.84, 224 144, 224L128, 224C119.16, 224 112, 216.84 112, 208L112, 80C112, 71.16 119.16, 64 128, 64L144, 64C152.84, 64 160, 71.16 160, 80L160, 208zM240, 144L207.97, 144C202.39, 144 197.05, 145.1 192, 146.85L192, 48C192, 39.16 199.16, 32 208, 32L224, 32C232.84, 32 240, 39.16 240, 48L240, 144zM320, 149.88C309.95, 146.31 299.28, 144 288, 144L272, 144L272, 80C272, 71.16 279.16, 64 288, 64L304, 64C312.84, 64 320, 71.16 320, 80L320, 149.88z" fill="#727272" fill-opacity="1" class="Black" />
  </g>
</svg>