<?xml version='1.0' encoding='UTF-8'?>
<svg viewBox="-1.9975 -2 32 32" xmlns="http://www.w3.org/2000/svg">
  <g transform="matrix(0.0547, 0, 0, 0.0547, 0, 0)">
    <path d="M464, 96.3C441.5, 105.2 414.3, 113.7 387.2, 118.5L387.2, 191.1C414, 186.7 438.9, 177.3 464, 167.4zM464, 308.8L464, 237.7C447.2, 248.3 417.2, 259.2 387.2, 263.2L387.2, 335.2C417.9, 332 445.8, 320.3 464, 308.8zM80, 186.3C96.2, 176.1 126.9, 165.6 156.8, 161.3L156.8, 88.8C126.1, 92 98.2, 103.7 80, 115.2zM80, 319.8C103.1, 312.1 130.3, 306.7 156.8, 303.8L156.8, 232.1C130.8, 234.8 104.8, 240.5 80, 248.7zM310.4, 256.7C285.3, 249.8 260.8, 240.1 233.6, 234.5L233.6, 304.2C261.3, 308.9 285.6, 318.2 310.4, 325.6L310.4, 256.7C337.9, 264.3 360.1, 266.8 387.2, 263.2L387.2, 191.1C362.8, 195.1 338.6, 194.7 310.4, 188.6zM477.9, 37.8C441.1, 54.9 391.6, 74.7 344.4, 74.7C287.7, 74.7 242.4, 40 172.5, 40C144, 40 118.8, 45.3 95.5, 54.4C99.6, 24.7 75.8, -1.1 46.1, 0C21.5, 1 1.4, 20.8 0.1, 45.3C-1.1, 67.4 12.6, 86.4 32, 93.3L32, 500C32, 506.6 37.4, 512 44, 512L52, 512C58.6, 512 64, 506.6 64, 500L64, 378.4C95.4, 363.9 136.1, 349.3 199.7, 349.3C256.3, 349.3 301.6, 384 371.5, 384C422.8, 384 463.4, 366.8 501.5, 341C508.1, 336.5 512, 329.1 512, 321.1L512, 59.5C512, 42 493.8, 30.4 477.9, 37.8zM48, 68C37, 68 28, 59 28, 48C28, 37 37, 28 48, 28C59, 28 68, 37 68, 48C68, 59 59, 68 48, 68zM480, 317.3C456.9, 334 415.5, 352 371.5, 352C307.9, 352 263.3, 317.3 199.7, 317.3C153.7, 317.3 97.4, 327.5 64, 343.3L64, 106.7C87.1, 90 128.5, 72 172.5, 72C236.1, 72 280.7, 106.7 344.3, 106.7C390.2, 106.7 446.5, 87.9 480, 72zM310.4, 119.7C282.7, 115 258.1, 105.5 233.6, 98.3L233.6, 166.2C258.9, 172.9 283.2, 182.6 310.4, 188.6zM156.8, 161.2L156.8, 232.1C191, 228.5 213, 230.4 233.6, 234.6L233.6, 166.2C203.9, 158.4 182.3, 157.5 156.8, 161.2z" fill="#727272" fill-opacity="1" class="Black" />
  </g>
</svg>