<?xml version='1.0' encoding='UTF-8'?>
<svg viewBox="-1.9999 -2.0035 31.9975 32" xmlns="http://www.w3.org/2000/svg">
  <g transform="matrix(0.0547, 0, 0, 0.0547, 0, 0)">
    <path d="M472.5, 0C465.5, 0 458.2, 1.5 451.3, 4.6C400.8, 27.3 363.5, 34.9 332.2, 34.9C266.1, 34.9 227.7, 0.4 151.4, 0.4C119.8, 0.4 81.2, 6.9 32, 23.6L32, 16C32, 7.2 24.8, 0 16, 0C7.2, 0 0, 7.2 0, 16L0, 504C0, 508.4 3.6, 512 8, 512L24, 512C28.4, 512 32, 508.4 32, 504L32, 403.6C76.2, 387.8 113.6, 381.6 146.5, 381.6C227.7, 381.6 284.3, 416 365.6, 416C400.9, 416 440.7, 409.5 489.3, 391C503.3, 385.6 512.1, 373.1 512.1, 359.8L512.1, 33.4C512, 13 493.4, 0 472.5, 0zM365.5, 384C289.9, 384 232.5, 349.6 146.4, 349.6C109.7, 349.6 72, 356.1 31.9, 369.4L31.9, 57.2C77.9, 40.5 117.2, 32.4 151.3, 32.4C220.8, 32.4 259.7, 66.9 332.1, 66.9C371.9, 66.9 413.9, 56.4 464.2, 33.8C473.6, 29.6 479.9, 33.3 479.9, 39.4L479.9, 359.5C479.1, 362 421.1, 384 365.5, 384z" fill="#727272" fill-opacity="1" class="Black" />
  </g>
</svg>