<?xml version='1.0' encoding='UTF-8'?>
<svg viewBox="-1.9975 -1.9975 32 32" xmlns="http://www.w3.org/2000/svg">
  <g transform="matrix(0.0547, 0, 0, 0.0547, 0, 0)">
    <path d="M344.348, 74.667C287.742, 74.667 242.446, 40 172.522, 40C144.035, 40 118.847, 45.322 95.557, 54.449C99.553, 24.713 75.808, -1.127 46.071, 0.038C21.532, 0.999 1.433, 20.75 0.076, 45.271C-1.146, 67.34 12.553, 86.382 32, 93.258L32, 500C32, 506.627 37.373, 512 44, 512L52, 512C58.627, 512 64, 506.627 64, 500L64, 378.398C95.423, 363.859 136.066, 349.334 199.652, 349.334C256.258, 349.334 301.554, 384.001 371.478, 384.001C422.788, 384.001 463.411, 366.763 501.486, 341.048C508.075, 336.598 512, 329.139 512, 321.188L512, 59.521C512, 41.972 493.794, 30.369 477.878, 37.761C441.098, 54.845 391.615, 74.667 344.348, 74.667zM48, 28C59.028, 28 68, 36.972 68, 48C68, 59.028 59.028, 68 48, 68C36.972, 68 28, 59.028 28, 48C28, 36.972 36.972, 28 48, 28zM480, 317.333C456.883, 334.03 415.452, 352 371.478, 352C307.863, 352 263.231, 317.333 199.652, 317.333C153.636, 317.333 97.373, 327.519 64, 343.333L64, 106.667C87.117, 89.971 128.548, 72 172.522, 72C236.137, 72 280.769, 106.667 344.348, 106.667C390.268, 106.667 446.565, 87.854 480, 72L480, 317.333z" fill="#727272" fill-opacity="1" class="Black" />
  </g>
</svg>