<?xml version='1.0' encoding='UTF-8'?>
<svg viewBox="-4.6243 -2 32 32" xmlns="http://www.w3.org/2000/svg">
  <g transform="matrix(0.0547, 0, 0, 0.0547, 0, 0)">
    <path d="M288, 159.99L288, 32L312, 32C316.42, 32 320, 28.42 320, 24L320, 8C320, 3.58 316.42, 0 312, 0L104, 0C99.58, 0 96, 3.58 96, 8L96, 24C96, 28.42 99.58, 32 104, 32L128, 32L128, 159.99C52.85, 191.35 0, 265.48 0, 352C0, 405.79 20.43, 454.79 53.94, 491.7C65.89, 504.87 83.15, 512 100.94, 512L314.98, 512C333.04, 512 350.47, 504.56 362.56, 491.15C375.48, 476.81 415.8, 429.22 415.7, 352L416, 352C416, 265.48 363.15, 191.35 288, 159.99zM338.79, 469.72C332.9, 476.25 324.23, 480 314.98, 480L100.94, 480C91.79, 480 83.29, 476.43 77.64, 470.2C48.21, 437.77 32, 395.8 32, 352C32, 280.75 74.52, 216.98 140.32, 189.53L160, 181.32L160, 32L256, 32L256, 181.31L275.68, 189.52C338.24, 215.62 379.75, 274.54 383.69, 341.51L383.7, 352.04C383.77, 408.03 359.32, 446.95 338.79, 469.72zM176, 304C167.16, 304 160, 311.16 160, 320C160, 328.84 167.16, 336 176, 336C184.84, 336 192, 328.84 192, 320C192, 311.16 184.84, 304 176, 304zM240, 304C231.16, 304 224, 311.16 224, 320C224, 328.84 231.16, 336 240, 336C248.84, 336 256, 328.84 256, 320C256, 311.16 248.84, 304 240, 304zM208, 224C137.31, 224 80, 266.98 80, 320C80, 350.19 98.89, 376.78 128, 394.3L128, 432C128, 440.84 135.16, 448 144, 448L272, 448C280.84, 448 288, 440.84 288, 432L288, 394.3C317.11, 376.77 336, 350.18 336, 320C336, 266.98 278.69, 224 208, 224zM271.49, 366.89L256, 376.22L256, 416L160, 416L160, 376.22L144.51, 366.89C123.85, 354.45 112, 337.36 112, 320C112, 285.31 155.96, 256 208, 256C260.04, 256 304, 285.31 304, 320C304, 337.36 292.15, 354.45 271.49, 366.89z" fill="#727272" fill-opacity="1" class="Black" />
  </g>
</svg>