<?xml version='1.0' encoding='UTF-8'?>
<svg viewBox="-3.7495 -2 32 32" xmlns="http://www.w3.org/2000/svg">
  <g transform="matrix(0.0547, 0, 0, 0.0547, 0, 0)">
    <path d="M434.9, 410.7L288, 218.6L288, 32L314, 32C317.3, 32 320, 29.3 320, 26L320, 6C320, 2.7 317.3, 0 314, 0L134, 0C130.7, 0 128, 2.7 128, 6L128, 26C128, 29.3 130.7, 32 134, 32L160, 32L160, 218.6L13.1, 410.7C-18.6, 452.2 11, 512 63.1, 512L384.9, 512C437.1, 512 466.6, 452.2 434.9, 410.7zM384.9, 480L63.1, 480C37.4, 480 22.8, 450.6 38.5, 430.2L188.7, 233.7C190.8, 230.9 192, 227.5 192, 224L192, 32L256, 32L256, 224C256, 227.5 257.2, 230.9 259.3, 233.7L409.5, 430.2C425.1, 450.6 410.7, 480 384.9, 480z" fill="#727272" fill-opacity="1" class="Black" />
  </g>
</svg>