<?xml version='1.0' encoding='UTF-8'?>
<svg viewBox="-1.9975 -1.9975 31.9975 32" xmlns="http://www.w3.org/2000/svg">
  <g transform="matrix(0.0547, 0, 0, 0.0547, 0, 0)">
    <path d="M495.87, 288L448.6, 288A224 224 0 0 0 272, 374L272, 288A144 144 0 0 0 416, 144L416, 16A16 16 0 0 0 390.55, 3.12L316.64, 56.76L268.29, 5.76A16 16 0 0 0 243.71, 5.76L195.36, 56.76L121.45, 3.12A16 16 0 0 0 96, 16L96, 144A144 144 0 0 0 240, 288L240, 374A224 224 0 0 0 63.4, 288L16.13, 288C6.94, 288 -0.87, 297 0.07, 307.65C10.06, 422.15 106.43, 512 223.83, 512L288.17, 512C405.57, 512 501.94, 422.15 511.93, 307.65C512.85, 297 505.06, 288 495.87, 288zM128, 144L128, 47.41L199.28, 99.14L256, 39.3L312.72, 99.14L384, 47.41L384, 144A112 112 0 0 1 272, 256L240, 256A112 112 0 0 1 128, 144zM240, 480L223.83, 480C129.94, 480 49.31, 410.86 33.89, 320L63.4, 320A192.45 192.45 0 0 1 228.4, 413.35C242, 436.09 240, 454.05 240, 480zM288, 480L272, 480C272, 454 270, 436.1 283.63, 413.35A192.45 192.45 0 0 1 448.6, 320L478.11, 320C462.69, 410.86 382.05, 480 288, 480z" fill="#727272" fill-opacity="1" class="Black" />
  </g>
</svg>