<?xml version='1.0' encoding='UTF-8'?>
<svg viewBox="-2 -2 32 32" xmlns="http://www.w3.org/2000/svg">
  <g transform="matrix(0.0547, 0, 0, 0.0547, 0, 0)">
    <path d="M461.5, 256C492.2, 229.2 512, 190.2 512, 146.3C512, 65.5 446.5, 0 365.7, 0C321.8, 0 282.8, 19.8 256, 50.5C229.2, 19.8 190.2, 0 146.3, 0C65.5, 0 0, 65.5 0, 146.3C0, 190.2 19.8, 229.2 50.5, 256C19.8, 282.8 0, 321.8 0, 365.7C0, 446.5 65.5, 512 146.3, 512C190.2, 512 229.2, 492.2 256, 461.5C282.8, 492.2 321.8, 512 365.7, 512C446.5, 512 512, 446.5 512, 365.7C512, 321.8 492.2, 282.8 461.5, 256zM365.7, 480C332.8, 480 302.4, 466 280.1, 440.5L256, 412.9L231.9, 440.5C209.6, 466 179.2, 480 146.3, 480C83.3, 480 32, 428.7 32, 365.7C32, 332.8 46, 302.4 71.5, 280.1L99.1, 256L71.5, 231.9C46, 209.6 32, 179.2 32, 146.3C32, 83.3 83.3, 32 146.3, 32C179.2, 32 209.6, 46 231.9, 71.5L256, 99.1L280.1, 71.5C302.4, 46 332.8, 32 365.7, 32C428.7, 32 480, 83.3 480, 146.3C480, 179.2 466, 209.6 440.5, 231.9L412.9, 256L440.5, 280.1C466, 302.4 480, 332.8 480, 365.7C480, 428.7 428.7, 480 365.7, 480zM256, 160C203.1, 160 160, 203.1 160, 256C160, 308.9 203.1, 352 256, 352C308.9, 352 352, 308.9 352, 256C352, 203.1 308.9, 160 256, 160zM256, 320C220.7, 320 192, 291.3 192, 256C192, 220.7 220.7, 192 256, 192C291.3, 192 320, 220.7 320, 256C320, 291.3 291.3, 320 256, 320z" fill="#727272" fill-opacity="1" class="Black" />
  </g>
</svg>