<?xml version='1.0' encoding='UTF-8'?>
<svg viewBox="-1.9999 -4.7979 32 31.995" xmlns="http://www.w3.org/2000/svg">
  <g transform="matrix(1.0011, 0, 0, 1.0011, 0, 0)">
    <g transform="matrix(0.0437, 0, 0, 0.0437, 0, 0)">
      <path d="M512, 280A24 24 0 1 0 488, 256A24 24 0 0 0 512, 280zM320, 280A24 24 0 1 0 296, 256A24 24 0 0 0 320, 280zM416, 280A24 24 0 1 0 392, 256A24 24 0 0 0 416, 280zM608, 160L32, 160A32 32 0 0 0 0, 192L0, 320A32 32 0 0 0 32, 352L608, 352A32 32 0 0 0 640, 320L640, 192A32 32 0 0 0 608, 160zM112, 320L32, 320L32, 192L112, 192zM608, 320L144, 320L144, 192L608, 192z" fill="#727272" fill-opacity="1" class="Black" />
    </g>
  </g>
</svg>