<?xml version='1.0' encoding='UTF-8'?>
<svg viewBox="-2 0 32 32" xmlns="http://www.w3.org/2000/svg">
  <g transform="matrix(0.0625, 0, 0, 0.0625, 0, 0)">
    <path d="M273.93, 274L272, 275.88L272, 336A48 48 0 0 1 176, 336L176, 275.88L174.07, 274C155.88, 288.61 144, 310.81 144, 336A80 80 0 0 0 304, 336C304, 310.81 292.12, 288.61 273.93, 274zM224, 352A16 16 0 0 0 240, 336L240, 262.62L315.31, 187.31A16 16 0 0 0 292.69, 164.69L224, 233.38L155.31, 164.69A16 16 0 0 0 132.69, 187.31L208, 262.62L208, 336A16 16 0 0 0 224, 352zM368, 32L80, 32A80.09 80.09 0 0 0 0, 112L0, 400A80.09 80.09 0 0 0 80, 480L368, 480A80.09 80.09 0 0 0 448, 400L448, 112A80.09 80.09 0 0 0 368, 32zM416, 400A48.05 48.05 0 0 1 368, 448L80, 448A48.05 48.05 0 0 1 32, 400L32, 112A48.05 48.05 0 0 1 80, 64L368, 64A48.05 48.05 0 0 1 416, 112zM304, 96A80 80 0 0 0 224, 176A80 80 0 1 0 144, 256A76.16 76.16 0 0 0 155.17, 255L110.06, 209.9A48 48 0 0 1 177.94, 142.02L224, 188.12L270.06, 142.06A48 48 0 0 1 337.94, 209.94L292.83, 255A76.16 76.16 0 0 0 304, 256A80 80 0 0 0 304, 96z" fill="#727272" fill-opacity="1" class="Black" />
  </g>
</svg>