<?xml version='1.0' encoding='UTF-8'?>
<svg viewBox="-2 -4.7992 32 32" xmlns="http://www.w3.org/2000/svg">
  <g transform="matrix(0.9988, 0, 0, 0.9988, 0, 0)">
    <g transform="matrix(0.0438, 0, 0, 0.0438, 0, 0)">
      <path d="M168, 320L472, 320C529.3, 320 576, 273.3 576, 216C576, 161.2 533.4, 116.2 479.7, 112.3C475.8, 67.4 437.9, 32 392, 32C374.2, 32 357.2, 37.3 342.8, 47.2C320.3, 17.7 285.5, 0 248, 0C181.8, 0 128, 53.8 128, 120L128, 120.4C89.7, 136.4 64, 173.9 64, 216C64, 273.3 110.7, 320 168, 320zM149.3, 146.8L162.6, 143.2L160.6, 126C160.3, 124 160, 122 160, 120C160, 71.5 199.5, 32 248, 32C280.2, 32 309.8, 49.9 325.2, 78.8L335.8, 98.6L351, 82.1C361.9, 70.4 376.4, 64 392, 64C422.9, 64 448, 89.1 448, 120C448, 121.6 447.7, 123.1 447.2, 126.9L444.7, 146.9L468.2, 144.5C469.4, 144.3 470.7, 144.1 472, 144.1C511.7, 144.1 544, 176.4 544, 216.1C544, 255.8 511.7, 288.1 472, 288.1L168, 288.1C128.3, 288.1 96, 255.8 96, 216.1C96, 183.7 117.9, 155.3 149.3, 146.8zM216, 480L72, 480C67.6, 480 64, 483.6 64, 488L64, 504C64, 508.4 67.6, 512 72, 512L216, 512C220.4, 512 224, 508.4 224, 504L224, 488C224, 483.6 220.4, 480 216, 480zM632, 480L296, 480C291.6, 480 288, 483.6 288, 488L288, 504C288, 508.4 291.6, 512 296, 512L632, 512C636.4, 512 640, 508.4 640, 504L640, 488C640, 483.6 636.4, 480 632, 480zM576, 408L576, 392C576, 387.6 572.4, 384 568, 384L8, 384C3.6, 384 0, 387.6 0, 392L0, 408C0, 412.4 3.6, 416 8, 416L568, 416C572.4, 416 576, 412.4 576, 408z" fill="#727272" fill-opacity="1" class="Black" />
    </g>
  </g>
</svg>