<?xml version='1.0' encoding='UTF-8'?>
<svg viewBox="-2 -1.9988 32 32" xmlns="http://www.w3.org/2000/svg">
  <g transform="matrix(0.0547, 0, 0, 0.0547, 0, 0)">
    <path d="M344, 272L168, 272C163.58, 272 160, 275.58 160, 280L160, 296C160, 300.42 163.58, 304 168, 304L344, 304C348.42, 304 352, 300.42 352, 296L352, 280C352, 275.58 348.42, 272 344, 272zM194.74, 96L249.37, 150.63C255.37, 156.63 263.51, 160 272, 160L464, 160C472.84, 160 480, 167.16 480, 176L480, 400C480, 408.84 472.84, 416 464, 416L48, 416C39.16, 416 32, 408.84 32, 400L32, 112C32, 103.16 39.16, 96 48, 96L194.74, 96M48, 64C21.49, 64 0, 85.49 0, 112L0, 400C0, 426.51 21.49, 448 48, 448L464, 448C490.51, 448 512, 426.51 512, 400L512, 176C512, 149.49 490.51, 128 464, 128L272, 128L217.37, 73.37C211.37, 67.37 203.23, 64 194.74, 64L48, 64z" fill="#727272" fill-opacity="1" class="Black" />
  </g>
</svg>