<?xml version='1.0' encoding='UTF-8'?>
<svg viewBox="-2 -1.9988 32 32" xmlns="http://www.w3.org/2000/svg">
  <g transform="matrix(0.0547, 0, 0, 0.0547, 0, 0)">
    <path d="M329.54, 225.77L318.23, 214.46C315.11, 211.34 310.04, 211.34 306.92, 214.46L256, 265.37L205.09, 214.46C201.97, 211.34 196.9, 211.34 193.78, 214.46L182.47, 225.77C179.35, 228.89 179.35, 233.96 182.47, 237.08L233.37, 288L182.46, 338.91C179.34, 342.03 179.34, 347.1 182.46, 350.22L193.77, 361.53C196.89, 364.65 201.96, 364.65 205.08, 361.53L256, 310.63L306.91, 361.54C310.03, 364.66 315.1, 364.66 318.22, 361.54L329.53, 350.23C332.65, 347.11 332.65, 342.04 329.53, 338.92L278.63, 288L329.54, 237.09A8.015 8.015 0 0 0 329.54, 225.77zM194.74, 96L249.37, 150.63C255.37, 156.63 263.51, 160 272, 160L464, 160C472.84, 160 480, 167.16 480, 176L480, 400C480, 408.84 472.84, 416 464, 416L48, 416C39.16, 416 32, 408.84 32, 400L32, 112C32, 103.16 39.16, 96 48, 96L194.74, 96M48, 64C21.49, 64 0, 85.49 0, 112L0, 400C0, 426.51 21.49, 448 48, 448L464, 448C490.51, 448 512, 426.51 512, 400L512, 176C512, 149.49 490.51, 128 464, 128L272, 128L217.37, 73.37C211.37, 67.37 203.23, 64 194.74, 64L48, 64z" fill="#727272" fill-opacity="1" class="Black" />
  </g>
</svg>