<?xml version='1.0' encoding='UTF-8'?>
<svg viewBox="-2 0 32 32" xmlns="http://www.w3.org/2000/svg">
  <g transform="matrix(0.0625, 0, 0, 0.0625, 0, 0)">
    <path d="M424, 448L387.4, 448L247.13, 42.77A16 16 0 0 0 232, 32L216, 32A16 16 0 0 0 200.88, 42.77L60.6, 448L24, 448A8 8 0 0 0 16, 456L16, 472A8 8 0 0 0 24, 480L136, 480A8 8 0 0 0 144, 472L144, 456A8 8 0 0 0 136, 448L94.48, 448L138.78, 320L309.22, 320L353.53, 448L312, 448A8 8 0 0 0 304, 456L304, 472A8 8 0 0 0 312, 480L424, 480A8 8 0 0 0 432, 472L432, 456A8 8 0 0 0 424, 448zM149.86, 288L224, 73.8L298.14, 288z" fill="#727272" fill-opacity="1" class="Black" />
  </g>
</svg>