<?xml version='1.0' encoding='UTF-8'?>
<svg viewBox="-1.9999 -4.7979 32 31.9975" xmlns="http://www.w3.org/2000/svg">
  <g transform="matrix(1.0011, 0, 0, 1.0011, 0, 0)">
    <g transform="matrix(0.0437, 0, 0, 0.0437, 0, 0)">
      <path d="M632, 160L616, 160A8 8 0 0 0 608, 168L608, 204.14C584.54, 177.3 550.45, 160 512, 160A128 128 0 0 0 384, 288L384, 320A128 128 0 0 0 512, 448C550.45, 448 584.54, 430.7 608, 403.86L608, 440A8 8 0 0 0 616, 448L632, 448A8 8 0 0 0 640, 440L640, 168A8 8 0 0 0 632, 160zM608, 320A96 96 0 0 1 416, 320L416, 288A96 96 0 0 1 608, 288zM200.57, 73.86A16 16 0 0 0 185.79, 64L166.21, 64A16 16 0 0 0 151.44, 73.86L0.57, 436.93A8 8 0 0 0 8, 448L25.29, 448A8 8 0 0 0 32.68, 443.07L83.82, 320L268.19, 320L319.32, 443.07A8 8 0 0 0 326.71, 448L344.05, 448A8 8 0 0 0 351.44, 436.93zM97.11, 288L176, 98.16L254.89, 288z" fill="#727272" fill-opacity="1" class="Black" />
    </g>
  </g>
</svg>