<?xml version='1.0' encoding='UTF-8'?>
<svg viewBox="-1.9962 -1.5471 31.9975 32" xmlns="http://www.w3.org/2000/svg">
  <g transform="matrix(1.0011, 0, 0, 1.0011, 0, 0)">
    <g transform="matrix(0.0564, 0, 0, 0.0564, 0, 0)">
      <path d="M344.2, 182.5L315.9, 210.8L344.2, 239.1C347.3, 242.2 347.3, 247.3 344.2, 250.4L332.9, 261.7C329.8, 264.8 324.7, 264.8 321.6, 261.7L293.3, 233.4L270.6, 256L298.9, 284.3C302, 287.4 302, 292.5 298.9, 295.6L287.6, 306.9C284.5, 310 279.4, 310 276.3, 306.9L248, 278.6L225.4, 301.2L253.7, 329.5C256.8, 332.6 256.8, 337.7 253.7, 340.8L242.4, 352.1C239.3, 355.2 234.2, 355.2 231.1, 352.1L202.8, 323.8L174.5, 352.1C171.4, 355.2 166.3, 355.2 163.2, 352.1L151.9, 340.8C148.8, 337.7 148.8, 332.6 151.9, 329.5L180.2, 301.2L151.8, 273C148.7, 269.9 148.7, 264.8 151.8, 261.7L163.1, 250.4C166.2, 247.3 171.3, 247.3 174.4, 250.4L202.7, 278.7L225.3, 256.1L197, 227.8C193.9, 224.7 193.9, 219.6 197, 216.5L208.3, 205.2C211.4, 202.1 216.5, 202.1 219.6, 205.2L247.9, 233.5L270.5, 210.9L242.2, 182.6C239.1, 179.5 239.1, 174.4 242.2, 171.3L253.5, 160C256.6, 156.9 261.7, 156.9 264.8, 160L293.1, 188.3L321.4, 160C324.5, 156.9 329.6, 156.9 332.7, 160L344, 171.3C347.3, 174.3 347.3, 179.3 344.2, 182.5zM401.5, 409.7C263.6, 547.9 75.7, 495.3 51.9, 488.9C33.7, 484 19.5, 469.8 14.7, 451.6C-2.4, 386.9 -28.2, 225.2 94.5, 102.3C232.4, -35.9 420.3, 16.7 444.1, 23.1C462.3, 28 476.5, 42.2 481.3, 60.4C498.4, 125.1 524.2, 286.8 401.5, 409.7zM435.9, 54C415.6, 48.6 385.1, 42.6 349.6, 40.8L463.5, 154.7C461.9, 119 455.8, 88.6 450.5, 68.6C448.6, 61.5 443, 55.9 435.9, 54zM60.1, 458C80.4, 463.4 110.9, 469.4 146.4, 471.2L32.6, 357.3C34.2, 393 40.3, 423.4 45.6, 443.4C47.4, 450.5 53, 456.1 60.1, 458zM462.8, 199.2L304.6, 41.1C230.4, 46.4 167.4, 74.4 117.1, 124.8C58.7, 183.3 37.8, 252.1 33.2, 312.7L191.3, 470.8C265.5, 465.5 328.5, 437.5 378.8, 387.1C437.3, 328.7 458.2, 259.9 462.8, 199.2z" fill="#727272" fill-opacity="1" class="Black" />
    </g>
  </g>
</svg>