<?xml version='1.0' encoding='UTF-8'?>
<svg viewBox="-2 -4.7992 32 32" xmlns="http://www.w3.org/2000/svg">
  <g transform="matrix(0.9988, 0, 0, 0.9988, 0, 0)">
    <g transform="matrix(0.0438, 0, 0, 0.0438, 0, 0)">
      <path d="M416, 368.4L416, 269.2C416, 260.5 414.2, 252 410.8, 244L332.5, 61.1C324.9, 43.4 307.6, 32 288.3, 32L144, 32C117.5, 32 96, 53.5 96, 80L96, 192L48, 192C21.5, 192 0, 213.5 0, 240L0, 432C0, 476.2 35.8, 512 80, 512C118.7, 512 151, 484.5 158.4, 448L289.6, 448C297, 484.5 329.3, 512 368, 512C412.2, 512 448, 476.2 448, 432C448, 405.9 435.3, 383 416, 368.4zM128, 80C128, 71.2 135.2, 64 144, 64L288.3, 64C294.7, 64 300.5, 67.8 303, 73.7L381.4, 256.5C383.1, 260.5 384, 264.7 384, 269.1L384, 288L247.7, 288C236.3, 288 225.2, 283.9 216.5, 276.5L128, 200.6L128, 80zM80, 480C53.5, 480 32, 458.5 32, 432C32, 405.5 53.5, 384 80, 384C106.5, 384 128, 405.5 128, 432C128, 458.5 106.5, 480 80, 480zM289.6, 416L158.4, 416C151, 379.5 118.7, 352 80, 352C61.9, 352 45.4, 358.2 32, 368.4L32, 240C32, 231.2 39.2, 224 48, 224L106.1, 224L195.6, 300.7C210.1, 313.1 228.6, 320 247.6, 320L384, 320L384, 353.6C378.8, 352.5 373.5, 352 368, 352C329.3, 352 297, 379.5 289.6, 416zM368, 480C341.5, 480 320, 458.5 320, 432C320, 405.5 341.5, 384 368, 384C394.5, 384 416, 405.5 416, 432C416, 458.5 394.5, 480 368, 480zM632, 416L512, 416L512, 8C512, 3.6 508.4, 0 504, 0L488, 0C483.6, 0 480, 3.6 480, 8L480, 440C480, 444.4 483.6, 448 488, 448L632, 448C636.4, 448 640, 444.4 640, 440L640, 424C640, 419.6 636.4, 416 632, 416z" fill="#727272" fill-opacity="1" class="Black" />
    </g>
  </g>
</svg>