<?xml version='1.0' encoding='UTF-8'?>
<svg viewBox="-8.1233 -2 32 32" xmlns="http://www.w3.org/2000/svg">
  <g transform="matrix(0.0547, 0, 0, 0.0547, 0, 0)">
    <path d="M213.9, 480L160, 480L160, 350.3C236.7, 341.6 294.6, 272.7 287.4, 192.7L271.4, 14.6C270.7, 6.3 263.9, 0 255.7, 0L32.3, 0C24.1, 0 17.3, 6.3 16.6, 14.6L0.6, 192.7C-6.6, 272.7 51.3, 341.6 128, 350.3L128, 480L74.1, 480C49.6, 480 40.9, 512 54.1, 512L233.9, 512C247, 512 238.4, 480 213.9, 480zM32.5, 195.5L47.1, 32L118.9, 32L154, 90.5C71.3, 140.1 93.2, 127 67.7, 142.3C94.8, 163.3 80.2, 152 181.2, 230.2C184.5, 232.7 189.2, 232.5 192.2, 229.5C195.5, 226.3 195.5, 221 192.2, 217.7L121.7, 147.1C193.8, 103.8 180, 112.1 197.9, 101.4L156.3, 32L240.9, 32L255.5, 195.5C260.6, 252.7 218.8, 320 144, 320C69.2, 320 27.3, 252.9 32.5, 195.5z" fill="#727272" fill-opacity="1" class="Black" />
  </g>
</svg>