<?xml version='1.0' encoding='UTF-8'?>
<svg viewBox="-1.9962 -1.9975 31.9975 32" xmlns="http://www.w3.org/2000/svg">
  <g transform="matrix(0.0547, 0, 0, 0.0547, 0, 0)">
    <path d="M437.29, 88.14A31.71 31.71 0 0 0 406.82, 81.38L396.92, 84.38L399.5, 69.61A32 32 0 0 0 358.81, 33.42L324.56, 43.63A31.61 31.61 0 0 0 304, 63.17L304, 48A31.86 31.86 0 0 0 286.31, 19.37L254.31, 3.37A32 32 0 0 0 208, 32L208, 47.72L204, 26.16A32 32 0 0 0 153.19, 6.54L124.72, 28.13A31.65 31.65 0 0 0 112.56, 59.52L117.32, 85L105.18, 81.37A32 32 0 0 0 64.5, 117.53L84, 228.87A31.5 31.5 0 0 0 75, 236A32 32 0 0 0 68.72, 263L118.5, 487A32 32 0 0 0 149.73, 512L362.27, 512A32 32 0 0 0 393.51, 486.94L443.29, 262.94A30 30 0 0 0 428, 228.87L447.5, 117.56A31.75 31.75 0 0 0 437.29, 88.14zM390.76, 119.58L416, 112L395.81, 227.52A31.68 31.68 0 0 0 380, 243.81C376.81, 251.54 371.62, 258.64 365.27, 265.2zM333.76, 74.28L368, 64L328.56, 289.6A163.15 163.15 0 0 1 304, 297.92L304, 244.25zM272, 48L272, 303.17C266.72, 303.58 261.43, 304.01 256, 304.01C250.57, 304.01 245.28, 303.58 240, 303.17L240, 32zM172.53, 32L208, 221.71L208, 297.92A169.52 169.52 0 0 1 188.51, 291.68L144, 53.64zM100.59, 96.71L96, 112L123.94, 120.36L151.94, 270.25C142.94, 262.4 135.94, 253.55 131.94, 243.78A31.68 31.68 0 0 0 116.12, 227.47L95.93, 112zM362.27, 480L149.73, 480L100, 256C119.44, 303.11 183.53, 336 256.05, 336C328.57, 336 392.67, 303.12 412.1, 256z" fill="#727272" fill-opacity="1" class="Black" />
  </g>
</svg>