<?xml version='1.0' encoding='UTF-8'?>
<svg viewBox="-2 -3.554 32 32" xmlns="http://www.w3.org/2000/svg">
  <g transform="matrix(0.0486, 0, 0, 0.0486, 0, 0)">
    <path d="M368, 120C354.75, 120 344, 130.74 344, 144C344, 157.25 354.75, 168 368, 168C381.25, 168 392, 157.25 392, 144C392, 130.74 381.25, 120 368, 120zM554.67, 448L487.19, 448L384.31, 332.27L546.29, 240.67A58.16 58.16 0 0 0 576, 189.94C576, 168.55 564.28, 148.99 545.52, 138.71C504.96, 116.49 446.53, 97.44 446.53, 97.44C439.67, 60.23 407.19, 32 368, 32C328.77, 32 296.28, 60.29 289.46, 97.54C126.75, 112.96 -0.5, 250.12 0, 416.98C0.11, 451.89 29.08, 480 64, 480L373.33, 480C379.22, 480 384, 475.22 384, 469.33C384, 457.55 374.45, 448 362.67, 448L300.01, 448L334.47, 402.08A103.734 103.734 0 0 0 351.96, 346.02L472.81, 480L565.33, 480C571.22, 480 576, 475.22 576, 469.33C576, 457.55 566.45, 448 554.67, 448zM346.84, 313.08C340.63, 293.27 328.81, 275.08 311.23, 261.58C273.32, 232.46 219.72, 234.96 181.48, 263.65L150.41, 286.96C143.35, 292.26 141.91, 302.29 147.19, 309.37C152.5, 316.45 162.53, 317.82 169.6, 312.56L202.17, 288.12C225.7, 270.47 257.89, 266.79 283.41, 281.41C320.41, 302.61 330.76, 349.99 308.37, 383.6L260.03, 448L64, 448C46.41, 448 32.05, 434.04 32, 416.88C31.55, 267.11 143.53, 143.52 292.48, 129.4L316.58, 127.11L320.94, 103.3C325.1, 80.53 344.9, 64 368, 64C391.07, 64 410.87, 80.5 415.06, 103.24L418.52, 121.95L436.6, 127.85C437.16, 128.03 492.75, 146.28 530.14, 166.77C538.69, 171.45 544, 180.33 544, 189.94C544, 199.39 538.88, 208.14 530.63, 212.76L346.84, 313.08z" fill="#727272" fill-opacity="1" class="Black" />
  </g>
</svg>