<?xml version='1.0' encoding='UTF-8'?>
<svg viewBox="-1.9999 -1.549 31.9975 32" xmlns="http://www.w3.org/2000/svg">
  <g transform="matrix(0.999, 0, 0, 0.999, 0, 0)">
    <g transform="matrix(0.0565, 0, 0, 0.0565, 0, 0)">
      <path d="M248, 8C111, 8 0, 119 0, 256C0, 393 111, 504 248, 504C385, 504 496, 393 496, 256C496, 119 385, 8 248, 8zM248, 472C128.9, 472 32, 375.1 32, 256C32, 136.9 128.9, 40 248, 40C367.1, 40 464, 136.9 464, 256C464, 375.1 367.1, 472 248, 472zM168, 240C185.7, 240 200, 225.7 200, 208C200, 190.3 185.7, 176 168, 176C150.3, 176 136, 190.3 136, 208C136, 225.7 150.3, 240 168, 240zM328, 176C310.3, 176 296, 190.3 296, 208C296, 225.7 310.3, 240 328, 240C345.7, 240 360, 225.7 360, 208C360, 190.3 345.7, 176 328, 176zM248, 288C208.3, 288 145.4, 311.7 136.5, 362.5C134.6, 373.4 138.5, 384.7 146.8, 392C155, 399.3 166.7, 401.9 177.4, 398.6C206.7, 389.6 233.8, 384 248, 384C262.2, 384 289.3, 389.6 318.6, 398.6C326.3, 401 338.7, 401.2 349.2, 392C357.4, 384.7 361.4, 373.4 359.5, 362.5C350.6, 311.7 287.7, 288 248, 288zM248, 352C230.3, 352 201.1, 357.8 168, 368C173.2, 338.3 218.1, 320 248, 320C277.9, 320 322.8, 338.3 328, 368C294.9, 357.8 265.7, 352 248, 352z" fill="#727272" fill-opacity="1" class="Black" />
    </g>
  </g>
</svg>