<?xml version='1.0' encoding='UTF-8'?>
<svg viewBox="-1.9975 -4.7992 31.9975 32" xmlns="http://www.w3.org/2000/svg">
  <g transform="matrix(0.9988, 0, 0, 0.9988, 0, 0)">
    <g transform="matrix(0.0438, 0, 0, 0.0438, 0, 0)">
      <path d="M464.02, 160C459.32, 160 454.7, 160.34 450.09, 160.7L568.06, 46.09C585.02, 29.13 573.01, 0 548.97, 0L27.03, 0C3.05, 0 -9.05, 29.1 7.94, 46.09L224, 256L224, 438C224, 446.81 228.3, 455.07 235.52, 460.12L309.52, 507.1C314.34, 510.47 319.67, 512 324.88, 512C338.87, 512 352, 500.97 352, 484.98L352, 471.76C382.43, 496.88 421.46, 511.97 464.02, 511.97C561.36, 511.97 640, 433.19 640, 335.99C640, 238.64 561.22, 160 464.02, 160zM320, 474L256.26, 435.75L256, 435.53L256, 242.47L39.35, 32L536.64, 32L385.94, 178.41C327.93, 207.19 288.04, 266.83 288.04, 335.97C288.04, 373.62 299.92, 408.39 320, 436.98L320, 474zM464.02, 479.96C384.63, 479.96 320.04, 415.37 320.04, 335.98C320.04, 256.59 384.63, 192 464.02, 192C543.41, 192 608, 256.59 608, 335.98C608, 415.37 543.41, 479.96 464.02, 479.96zM491.13, 327.42L446.13, 313.92C440.97, 312.37 437.36, 307.14 437.36, 301.19C437.36, 293.92 442.66, 288 449.16, 288L477.27, 288C481.83, 288 486.23, 289.29 490.09, 291.72C493.33, 293.75 497.45, 293.63 500.22, 290.99L511.97, 279.78C515.5, 276.41 515.3, 270.57 511.4, 267.64C502.3, 260.81 491.32, 256.87 480.03, 256.29L480.03, 240C480.03, 235.58 476.45, 232 472.03, 232L456.03, 232C451.61, 232 448.03, 235.58 448.03, 240L448.03, 256.12C424.41, 256.75 405.36, 276.67 405.36, 301.19C405.36, 321.16 418.34, 339 436.94, 344.58L481.94, 358.08C487.1, 359.63 490.71, 364.86 490.71, 370.81C490.71, 378.08 485.41, 384 478.91, 384L450.8, 384C446.24, 384 441.84, 382.71 437.98, 380.28C434.74, 378.25 430.62, 378.37 427.85, 381.01L416.1, 392.22C412.57, 395.59 412.77, 401.43 416.67, 404.36C425.77, 411.19 436.75, 415.13 448.04, 415.71L448.04, 432C448.04, 436.42 451.62, 440 456.04, 440L472.04, 440C476.46, 440 480.04, 436.42 480.04, 432L480.04, 415.88C503.66, 415.25 522.71, 395.34 522.71, 370.81C522.71, 350.84 509.73, 333 491.13, 327.42z" fill="#727272" fill-opacity="1" class="Black" />
    </g>
  </g>
</svg>