<?xml version='1.0' encoding='UTF-8'?>
<svg viewBox="-5.499 -1.9999 31.9975 32" xmlns="http://www.w3.org/2000/svg">
  <g transform="matrix(0.0547, 0, 0, 0.0547, 0, 0)">
    <path d="M232, 336A24 24 0 1 0 256, 360A24 24 0 0 0 232, 336zM272, 312A24 24 0 1 0 296, 288A24 24 0 0 0 272, 312zM352, 0L32, 0A32 32 0 0 0 0, 32L0, 480A32 32 0 0 0 32, 512L288, 512A96 96 0 0 0 384, 416L384, 32A32 32 0 0 0 352, 0zM352, 416A64.07 64.07 0 0 1 288, 480L32, 480L32, 32L352, 32zM112, 224L256, 224A32 32 0 0 0 288, 192L288, 80A16 16 0 0 0 272, 64L112, 64A16 16 0 0 0 96, 80L96, 208A16 16 0 0 0 112, 224zM128, 96L256, 96L256, 192L128, 192zM72, 352L96, 352L96, 376A8 8 0 0 0 104, 384L120, 384A8 8 0 0 0 128, 376L128, 352L152, 352A8 8 0 0 0 160, 344L160, 328A8 8 0 0 0 152, 320L128, 320L128, 296A8 8 0 0 0 120, 288L104, 288A8 8 0 0 0 96, 296L96, 320L72, 320A8 8 0 0 0 64, 328L64, 344A8 8 0 0 0 72, 352z" fill="#727272" fill-opacity="1" class="Black" />
  </g>
</svg>