<?xml version='1.0' encoding='UTF-8'?>
<svg viewBox="-2 -4.7992 32 32" xmlns="http://www.w3.org/2000/svg">
  <g transform="matrix(1.0011, 0, 0, 1.0011, 0, 0)">
    <g transform="matrix(0.0437, 0, 0, 0.0437, 0, 0)">
      <path d="M480.07, 96L160, 96A160 160 0 1 0 274.24, 368L365.76, 368A160 160 0 1 0 480.07, 96zM480, 384A127 127 0 0 1 388.63, 345.6L379.2, 336L260.8, 336L251.39, 345.6A127 127 0 0 1 160, 384C89.43, 384 32, 326.58 32, 256C32, 185.42 89.43, 128 160, 128L480, 128C550.61, 128 608, 185.42 608, 256C608, 326.58 550.57, 384 480, 384zM222.18, 236.36L179.64, 236.36L179.64, 193.82A9.86 9.86 0 0 0 169.82, 184L150.18, 184A9.86 9.86 0 0 0 140.36, 193.82L140.36, 236.36L97.82, 236.36A9.86 9.86 0 0 0 88, 246.18L88, 265.82A9.86 9.86 0 0 0 97.82, 275.64L140.36, 275.64L140.36, 318.18A9.86 9.86 0 0 0 150.18, 328L169.82, 328A9.86 9.86 0 0 0 179.64, 318.18L179.64, 275.64L222.18, 275.64A9.86 9.86 0 0 0 232, 265.82L232, 246.18A9.86 9.86 0 0 0 222.18, 236.36zM448, 256A32 32 0 1 0 480, 288A32 32 0 0 0 448, 256zM512, 192A32 32 0 1 0 544, 224A32 32 0 0 0 512, 192z" fill="#727272" fill-opacity="1" class="Black" />
    </g>
  </g>
</svg>