<?xml version='1.0' encoding='UTF-8'?>
<svg viewBox="-2 -2 32 32" xmlns="http://www.w3.org/2000/svg">
  <g transform="matrix(0.0547, 0, 0, 0.0547, 0, 0)">
    <path d="M502.6, 120L409, 26.3C405.9, 23.2 400.8, 23.2 397.7, 26.3L386.4, 37.6C383.3, 40.7 383.3, 45.8 386.4, 48.9L416, 78.6L416, 160C416, 186.5 437.5, 208 464, 208L480, 208L480, 382.2C480, 398.1 469.1, 413 453.4, 415.6C433.4, 418.9 416, 403.5 416, 384L416, 336C416, 291.8 380.2, 256 336, 256L320, 256L320, 64C320, 28.7 291.3, 0 256, 0L96, 0C60.7, 0 32, 28.7 32, 64L32, 480L8, 480C3.6, 480 0, 483.6 0, 488L0, 504C0, 508.4 3.6, 512 8, 512L344, 512C348.4, 512 352, 508.4 352, 504L352, 488C352, 483.6 348.4, 480 344, 480L320, 480L320, 288L336, 288C362.5, 288 384, 309.5 384, 336L384, 380.4C384, 412.3 405.7, 441.9 437.2, 447.1C477.3, 453.7 512, 422.8 512, 384L512, 142.6C512, 134.1 508.6, 126 502.6, 120zM480, 176L464, 176C455.2, 176 448, 168.8 448, 160L448, 110.6L480, 142.6L480, 176zM288, 480L64, 480L64, 224L288, 224L288, 480zM288, 192L64, 192L64, 64C64, 46.4 78.4, 32 96, 32L256, 32C273.6, 32 288, 46.4 288, 64L288, 192z" fill="#727272" fill-opacity="1" class="Black" />
  </g>
</svg>