<?xml version='1.0' encoding='UTF-8'?>
<svg viewBox="-1.9975 -1.9975 32 32" xmlns="http://www.w3.org/2000/svg">
  <g transform="matrix(0.0547, 0, 0, 0.0547, 0, 0)">
    <path d="M500.892, 186.561L480.259, 165.918C467.347, 153.006 447.843, 151.581 433.527, 160.47L351.53, 78.474C360.418, 64.159 358.995, 44.654 346.082, 31.743L325.44, 11.108C310.632, -3.7 286.659, -3.705 271.848, 11.108L158.315, 124.633C143.541, 139.408 143.541, 163.448 158.315, 178.224L178.958, 198.868C191.617, 211.525 211.076, 213.341 225.683, 204.307L255.375, 233.999L196.572, 292.802L188.49, 284.72C171.557, 267.786 144.006, 267.788 127.073, 284.72L12.699, 399.073C-4.233, 416.006 -4.233, 443.557 12.699, 460.49L51.509, 499.301C68.44, 516.233 95.991, 516.234 112.926, 499.301L227.28, 384.927C244.212, 367.994 244.212, 340.443 227.28, 323.51L219.199, 315.429L278.002, 256.626L307.694, 286.318C298.663, 300.925 300.476, 320.385 313.134, 333.043L333.777, 353.686C348.553, 368.462 372.592, 368.462 387.368, 353.686L500.893, 240.153C515.701, 225.344 515.704, 201.372 500.892, 186.561zM204.653, 362.3L90.3, 476.652C85.844, 481.11 78.593, 481.109 74.137, 476.652L74.137, 476.653L35.347, 437.863C30.891, 433.407 30.891, 426.156 35.347, 421.7L149.7, 307.348C154.156, 302.891 161.406, 302.89 165.862, 307.347L204.652, 346.137C209.108, 350.593 209.108, 357.844 204.653, 362.3zM478.273, 217.524L364.74, 331.058A5.896 5.896 0 0 1 356.403, 331.058L335.76, 310.415A5.902 5.902 0 0 1 335.759, 302.079L352.237, 285.605L226.395, 159.764L209.921, 176.239A5.902 5.902 0 0 1 201.585, 176.24L180.942, 155.597A5.903 5.903 0 0 1 180.942, 147.26L294.476, 33.727A5.896 5.896 0 0 1 302.813, 33.727L323.456, 54.371A5.893 5.893 0 0 1 323.455, 62.707L306.983, 79.182L432.82, 205.019L449.297, 188.546A5.893 5.893 0 0 1 457.632, 188.546L478.275, 209.189L478.275, 209.19A5.893 5.893 0 0 1 478.273, 217.524z" fill="#727272" fill-opacity="1" class="Black" />
  </g>
</svg>