<?xml version='1.0' encoding='UTF-8'?>
<svg viewBox="-1.9974 -3.554 31.9975 32" xmlns="http://www.w3.org/2000/svg">
  <g transform="matrix(0.0486, 0, 0, 0.0486, 0, 0)">
    <path d="M463.7, 0L112.3, 0C108.1, 0 104.2, 2.2 102, 5.8L1.7, 168.6C-1, 173 -0.5, 178.7 2.9, 182.6L278.9, 507.8C283.7, 513.4 292.3, 513.4 297.1, 507.8L573.1, 182.6C576.5, 178.7 576.9, 173 574.3, 168.6L474, 5.8C471.8, 2.2 467.9, 0 463.7, 0zM450.1, 36L524.4, 160L441.4, 160L384.6, 36L450.1, 36zM345, 36L401.8, 160L174.1, 160L231, 36L345, 36zM125.9, 36L191.4, 36L134.6, 160L51.6, 160L125.9, 36zM61.2, 192L134.2, 192L216, 384L61.2, 192zM173.2, 192L402.7, 192L288, 455.8L173.2, 192zM360, 384L441.8, 192L514.8, 192L360, 384z" fill="#727272" fill-opacity="1" class="Black" />
  </g>
</svg>