<?xml version='1.0' encoding='UTF-8'?>
<svg viewBox="-5.5011 -1.9998 32 31.9975" xmlns="http://www.w3.org/2000/svg">
  <g transform="matrix(0.0547, 0, 0, 0.0547, 0, 0)">
    <path d="M192, 0C190.04, 0 188.07, 0.03 186.09, 0.09C81.01, 3.24 0, 94.92 0, 200.05L0, 463.97C0, 473.61 7.89, 480 16.12, 480C20.05, 480 24.06, 478.54 27.32, 475.28L52.24, 456.75C55.1, 454.63 58.45, 453.59 61.78, 453.59C66.21, 453.59 70.6, 455.42 73.75, 458.97L116.7, 507.32C119.82, 510.44 123.92, 512.01 128.01, 512.01C132.1, 512.01 136.2, 510.45 139.32, 507.32L180.04, 461.47C183.22, 457.89 187.61, 456.09 192, 456.09C196.39, 456.09 200.78, 457.88 203.96, 461.47L244.68, 507.32C247.8, 510.44 251.9, 512.01 255.99, 512.01C260.08, 512.01 264.18, 510.45 267.3, 507.32L310.25, 458.97A15.994 15.994 0 0 1 331.76, 456.75L356.68, 475.28C359.94, 478.54 363.95, 480 367.88, 480C376.1, 480 384, 473.61 384, 463.97L384, 192C384, 85.96 298.04, 0 192, 0zM352, 431.92L350.87, 431.08C342.53, 424.87 332.63, 421.6 322.23, 421.6C308.52, 421.6 295.44, 427.48 286.34, 437.72L256, 471.87L227.89, 440.22C218.79, 429.97 205.71, 424.1 192, 424.1C178.29, 424.1 165.21, 429.98 156.11, 440.22L128, 471.87L97.66, 437.72A48.017 48.017 0 0 0 61.77, 421.6C51.38, 421.6 41.48, 424.88 33.14, 431.08L32, 431.92L32, 200.05C32, 110 101.56, 34.64 187.05, 32.08L192, 32C280.22, 32 352, 103.78 352, 192L352, 431.92zM128, 160C110.33, 160 96, 174.33 96, 192C96, 209.67 110.33, 224 128, 224C145.67, 224 160, 209.67 160, 192C160, 174.33 145.67, 160 128, 160zM256, 160C238.33, 160 224, 174.33 224, 192C224, 209.67 238.33, 224 256, 224C273.67, 224 288, 209.67 288, 192C288, 174.33 273.67, 160 256, 160z" fill="#727272" fill-opacity="1" class="Black" />
  </g>
</svg>