<?xml version='1.0' encoding='UTF-8'?>
<svg viewBox="-1.9999 -4.7991 32 31.9975" xmlns="http://www.w3.org/2000/svg">
  <g transform="matrix(1.0011, 0, 0, 1.0011, 0, 0)">
    <g transform="matrix(0.0437, 0, 0, 0.0437, 0, 0)">
      <path d="M608, 224L580.7, 224C587.8, 214 592, 202.5 592, 190.1C592, 159.6 566.7, 128 524.2, 128C481.3, 128 449.6, 162.8 432, 190.2C414.3, 162.8 382.7, 128 339.8, 128C332.6, 128 326.2, 129.2 320, 130.8L320, 128C320, 110.3 305.7, 96 288, 96L217.6, 96L260.7, 65.2C264.3, 62.6 265.1, 57.6 262.6, 54L253.3, 41C250.7, 37.4 245.7, 36.6 242.1, 39.1L189, 77.1L211.8, 16.4C213.4, 12.3 211.3, 7.7 207.1, 6.1L192.1, 0.5C188, -1.1 183.3, 1 181.8, 5.2L160, 63.3L138.2, 5.2C136.6, 1.1 132, -1 127.9, 0.5L112.9, 6.1C108.8, 7.7 106.7, 12.3 108.2, 16.4L131, 77.1L78, 39.2C74.4, 36.6 69.4, 37.5 66.8, 41.1L57.5, 54.1C54.9, 57.7 55.8, 62.7 59.4, 65.3L102.4, 96L32, 96C14.3, 96 0, 110.3 0, 128L0, 480C0, 497.7 14.3, 512 32, 512L608, 512C625.7, 512 640, 497.7 640, 480L640, 256C640, 238.3 625.7, 224 608, 224zM339.8, 160C377.4, 160 405.8, 205.9 414.5, 224L357, 224C335.1, 224 322.6, 217.8 315.9, 212.6C308.1, 206.6 304, 198.8 304, 190.1C304, 175.3 317.4, 160 339.8, 160zM224, 256L224, 480L32, 480L32, 128L288, 128L288, 150C277.7, 161.4 272, 175.8 272, 190.1C272, 202.5 276.1, 214 283.3, 224L256, 224C238.3, 224 224, 238.3 224, 256zM416, 480L256, 480L256, 384L416, 384L416, 480zM416, 352L256, 352L256, 256L416, 256L416, 352zM524.2, 160C546.6, 160 560, 175.3 560, 190.1C560, 198.8 555.9, 206.6 548.1, 212.6C541.4, 217.8 528.9, 224 507, 224L449.5, 224C458.2, 205.9 486.6, 160 524.2, 160zM608, 480L448, 480L448, 384L608, 384L608, 480zM608, 352L448, 352L448, 256L608, 256L608, 352z" fill="#727272" fill-opacity="1" class="Black" />
    </g>
  </g>
</svg>