<?xml version='1.0' encoding='UTF-8'?>
<svg viewBox="-2 -2.0025 31.9975 32" xmlns="http://www.w3.org/2000/svg">
  <g transform="matrix(0.0547, 0, 0, 0.0547, 0, 0)">
    <path d="M480, 32L32, 32C12.5, 32 -2.4, 49.2 0.3, 68.5L56.3, 425C60.8, 456.5 87.8, 479.9 119.7, 479.9L392.7, 479.9C424.5, 479.9 451.6, 456.5 456.1, 425L511.7, 68.5C514.4, 49.2 499.5, 32 480, 32zM424.4, 420.5C422.2, 436.2 408.5, 448 392.7, 448L119.7, 448C103.9, 448 90.3, 436.2 88, 420.1L67.2, 288L445, 288L424.4, 420.5zM450, 256L62.2, 256L32, 64L480, 64L450, 256z" fill="#727272" fill-opacity="1" class="Black" />
  </g>
</svg>