<?xml version='1.0' encoding='UTF-8'?>
<svg viewBox="-1.9999 -4.7946 32 32" xmlns="http://www.w3.org/2000/svg">
  <g transform="matrix(0.999, 0, 0, 0.999, 0, 0)">
    <g transform="matrix(0.0438, 0, 0, 0.0438, 0, 0)">
      <path d="M605.4, 437L570.4, 450L524.4, 326.6C581.4, 294.4 603.9, 223.1 571.2, 166.5L484.3, 16C478.4, 5.8 467.7, 0 456.6, 0C452.5, 0 448.4, 0.8 444.4, 2.4L323.8, 52.4C322.4, 53 317.7, 53 316.3, 52.4L195.7, 2.4C191.7, 0.7 187.6, 0 183.5, 0C172.4, 0 161.6, 5.8 155.8, 16L68.8, 166.5C36.1, 223.1 58.6, 294.4 115.6, 326.6L69.6, 450L34.6, 437C20.8, 431.9 5.5, 438.9 0.3, 452.7C-0.7, 455.5 0.7, 458.5 3.4, 459.6L143.3, 511.8C146.1, 512.8 149.1, 511.4 150.2, 508.7C155.3, 494.9 148.3, 479.5 134.5, 474.4L99.5, 461.4L145.1, 339C216.2, 357.7 274.9, 313.4 289.7, 258.3L320, 145.8L350.1, 258C365, 313.4 423.9, 357.4 494.7, 338.7L540.3, 461.1L505.3, 474.1C491.5, 479.2 484.5, 494.6 489.6, 508.4C490.6, 511.2 493.7, 512.6 496.5, 511.5L636.4, 459.3C639.2, 458.3 640.6, 455.2 639.5, 452.4C634.5, 438.8 619.2, 431.8 605.4, 437zM259, 249.8C243.2, 308.6 181.1, 320.8 141.3, 304.3C92.7, 284.2 70.7, 227.3 96.6, 182.5L122.1, 138.3L272.3, 200.5L259, 249.8zM280.6, 169.3L138.2, 110.3L183.4, 32L304, 82L280.6, 169.3zM336, 82L456.6, 32L501.8, 110.3L359.4, 169.3L336, 82zM381, 249.8L367.8, 200.5L518, 138.3L543.5, 182.5C569.4, 227.4 547.4, 284.2 498.8, 304.3C458, 321.2 396.4, 307 381, 249.8z" fill="#727272" fill-opacity="1" class="Black" />
    </g>
  </g>
</svg>