<?xml version='1.0' encoding='UTF-8'?>
<svg viewBox="-8.9993 -1.9999 31.9975 32" xmlns="http://www.w3.org/2000/svg">
  <g transform="matrix(0.0547, 0, 0, 0.0547, 0, 0)">
    <path d="M255, 212.3L228, 27.4C225.7, 11.7 212.2, 0 196.3, 0L59.7, 0C43.8, 0 30.3, 11.7 28, 27.4L1, 212.3C-8, 281.1 42.9, 341.8 112, 350.3L112, 480L58.7, 480C43.9, 480 32, 491.9 32, 506.7C32, 509.6 34.4, 512 37.3, 512L218.6, 512C221.6, 512 223.9, 509.6 223.9, 506.7C223.9, 492 212, 480 197.2, 480L144, 480L144, 350.3C213, 341.9 264, 281.1 255, 212.3zM196.3, 32L210.3, 128L45.7, 128L59.7, 32L196.3, 32zM32.7, 216.9L41, 160L215, 160L223.2, 216.5C226.6, 242.2 218.9, 267.3 201.4, 287.2C183.2, 308 156.4, 320 128, 320C99.6, 320 72.8, 308 54.5, 287.2C37.1, 267.3 29.4, 242.2 32.7, 216.9z" fill="#727272" fill-opacity="1" class="Black" />
  </g>
</svg>