<?xml version='1.0' encoding='UTF-8'?>
<svg viewBox="-2 -2.0025 31.9975 32" xmlns="http://www.w3.org/2000/svg">
  <g transform="matrix(0.0547, 0, 0, 0.0547, 0, 0)">
    <path d="M480, 32L32, 32C12.5, 32 -2.4, 49.2 0.3, 68.5L56.3, 425C60.8, 456.5 87.8, 479.9 119.7, 479.9L392.7, 479.9C424.5, 479.9 451.6, 456.5 456.1, 425L511.7, 68.5C514.4, 49.2 499.5, 32 480, 32zM424.4, 420.5C422.2, 436.2 408.5, 448 392.7, 448L119.7, 448C103.9, 448 90.3, 436.2 88, 420.1L67.2, 288L96, 288L96, 336C96, 362.5 117.5, 384 144, 384L240, 384C254, 384 266.5, 377.8 275.3, 368.1L286.1, 378.9C295.2, 388 307.2, 393 320, 393C332.8, 393 344.9, 388 353.9, 378.9L410.9, 321.9C420.3, 312.5 424.9, 300.2 424.9, 288L445, 288L424.4, 420.5zM251.7, 299.3C245.5, 293.1 245.5, 282.9 251.7, 276.7L308.7, 219.7C311.8, 216.6 315.9, 215 320, 215C324.1, 215 328.2, 216.6 331.3, 219.7L388.3, 276.7C394.5, 282.9 394.5, 293.1 388.3, 299.3L331.3, 356.3C328.2, 359.4 324.1, 361 320, 361C315.9, 361 311.8, 359.4 308.7, 356.3L251.7, 299.3zM229.1, 254.1C210.4, 272.8 210.4, 303.3 229.1, 322L252.6, 345.5C249.7, 349.4 245.3, 352.1 240, 352.1L144, 352.1C135.2, 352.1 128, 344.9 128, 336.1L128, 240.1C128, 231.3 135.2, 224.1 144, 224.1L240, 224.1C245.2, 224.1 249.7, 226.8 252.6, 230.7L229.1, 254.1zM450, 256L412.2, 256C411.7, 255.4 411.5, 254.6 410.9, 254.1L353.9, 197.1C344.9, 188 332.8, 183 320, 183C307.2, 183 295.1, 188 286.1, 197.1L275.3, 207.9C266.5, 198.2 254, 192 240, 192L144, 192C117.5, 192 96, 213.5 96, 240L96, 256L62.2, 256L32, 64L480, 64L450, 256z" fill="#727272" fill-opacity="1" class="Black" />
  </g>
</svg>