<?xml version='1.0' encoding='UTF-8'?>
<svg viewBox="-1.9999 -1.549 31.9975 32" xmlns="http://www.w3.org/2000/svg">
  <g transform="matrix(0.999, 0, 0, 0.999, 0, 0)">
    <g transform="matrix(0.0565, 0, 0, 0.0565, 0, 0)">
      <path d="M248, 8C111.03, 8 0, 119.03 0, 256C0, 392.97 111.03, 504 248, 504C384.97, 504 496, 392.97 496, 256C496, 119.03 384.97, 8 248, 8zM463.72, 261.45L420.9, 250.74C418.93, 250.24 417.24, 249.07 416.15, 247.41L398.18, 220.44A8.05 8.05 0 0 1 398.18, 211.56L417.77, 182.17C418.55, 181.01 419.58, 180.08 420.83, 179.47L444.8, 167.48C457.03, 194.53 464, 224.44 464, 256C464, 257.84 463.77, 259.62 463.72, 261.45zM32, 256C32, 244.08 33.22, 232.47 35.09, 221.07C42.25, 231.67 49.61, 242.53 55, 250.43C60.88, 259.1 67.81, 267.04 76.38, 274.77C87.1, 284.46 98.94, 292.6 111.54, 298.93C125.35, 305.9 145.6, 316.88 159.82, 324.76C164.85, 327.56 168.01, 332.92 168.01, 338.73L168.01, 370.75C168.01, 383.56 173.01, 395.63 182.07, 404.69C194.73, 417.35 200.98, 436.36 200.01, 444.63L200.01, 466.44C103.95, 444.53 32, 358.59 32, 256zM231.92, 471.19L231.84, 446.75C234.34, 428.17 222.4, 399.77 204.68, 382.06C201.71, 379.08 199.99, 374.95 199.99, 370.75L199.99, 338.73C199.99, 321.26 190.52, 305.18 175.27, 296.76C160.77, 288.73 140.08, 277.49 125.93, 270.35C115.87, 265.3 106.4, 258.79 96.99, 250.3A100.36 100.36 0 0 1 81.43, 232.41C71.77, 218.22 55.89, 194.69 46.03, 180.06C72.01, 111.19 132.01, 58.92 205.59, 44.21L257.38, 96L242.35, 111.03C233.32, 120.06 233.01, 134.56 241.41, 143.97L235.69, 144C229.44, 144 223.5, 146.41 218.97, 150.8L209.06, 160.44C201.5, 167.74 199.59, 178.97 204.31, 188.39L208.31, 196.37C201.37, 193.62 193.53, 193.25 186.28, 195.71L155.09, 206.1A27.893 27.893 0 0 0 136, 232.6C136, 243.26 141.91, 252.83 151.44, 257.6L162.53, 263.15C173.25, 268.51 185.15, 271.53 197.15, 271.95C199.53, 274.25 203.4, 279.51 205.84, 282.84C211.75, 290.92 217.34, 298.56 224.84, 302.31L228.22, 304L298.75, 304C302.97, 304 307.09, 305.7 310.06, 308.69L323.75, 322.38A14.66 14.66 0 0 1 328, 332.65C328, 340.7 324.72, 348.57 318.94, 354.31L307.6, 365.64A39.93 39.93 0 0 0 297.35, 383.52L296.23, 387.93C295.29, 391.62 294.39, 395.31 293.04, 398.93L266.26, 471.1C260.23, 471.61 254.17, 472.02 248.01, 472.02C242.57, 472 237.25, 471.58 231.92, 471.19zM302.74, 464.7L323, 410.09C324.78, 405.39 326.03, 400.56 327.25, 395.73L328.28, 391.68C328.62, 390.37 329.34, 389.13 332.37, 386.1L341.56, 376.94C353.28, 365.3 360, 349.14 360, 332.63C360, 320.38 355.03, 308.4 346.38, 299.74L332.69, 286.05C323.75, 277.11 311.38, 271.99 298.75, 271.99L237.81, 271.99C235.9, 269.76 233.47, 266.4 231.65, 263.93C223.44, 252.72 214.12, 240 200, 240C192, 240 184, 238.11 176.84, 234.53L174.5, 233.36L196.41, 226.06L205.69, 234.12C210.07, 237.9 215.63, 240 221.41, 240L227.07, 240C235.45, 240 243.07, 235.75 247.48, 228.61C251.89, 221.49 252.29, 212.75 248.54, 205.27L235.57, 179.32L238.95, 176.01L244.7, 176.01C251.11, 176.01 257.14, 173.51 261.67, 168.98L269.67, 160.98C278.7, 151.95 279.01, 137.45 270.61, 128.04L280.02, 118.63C286.05, 112.58 289.4, 104.55 289.4, 96.01C289.4, 87.47 286.06, 79.43 280.02, 73.39L246.71, 40.08C247.15, 40.08 247.58, 40.01 248.02, 40.01C324.15, 40.01 391.06, 79.69 429.54, 139.36L406.56, 150.85A39.974 39.974 0 0 0 391.18, 164.43L371.59, 193.82C362.59, 207.3 362.59, 224.71 371.59, 238.2L389.56, 265.17C395.09, 273.45 403.44, 279.34 413.15, 281.78L460.53, 293.62C445.81, 376.77 383.49, 443.49 302.74, 464.7z" fill="#727272" fill-opacity="1" class="Black" />
    </g>
  </g>
</svg>