<?xml version='1.0' encoding='UTF-8'?>
<svg viewBox="-1.9999 -1.549 31.9975 32" xmlns="http://www.w3.org/2000/svg">
  <g transform="matrix(0.999, 0, 0, 0.999, 0, 0)">
    <g transform="matrix(0.0565, 0, 0, 0.0565, 0, 0)">
      <path d="M248, 8C111.04, 8 0, 119.03 0, 256C0, 392.97 111.04, 504 248, 504C384.96, 504 496, 392.97 496, 256C496, 119.03 384.96, 8 248, 8zM248, 40C266.88, 40 285.09, 42.68 302.55, 47.25L250.62, 91.03C243.5, 95.75 239.43, 103.97 239.93, 112.47C240.46, 121 245.55, 128.66 253.18, 132.49L263.99, 137.9L263.99, 202.09C262.24, 201.54 260.43, 201.21 258.55, 201.15C251.43, 201.15 244.08, 204.71 240.3, 211.06L222.62, 240C214.09, 240 206.03, 243.33 200, 249.38L194.34, 255.04C189.81, 259.57 187.31, 265.6 187.31, 272.01C187.31, 278.42 189.81, 284.45 194.34, 288.98L200, 294.64L200, 304L177.88, 304L155.29, 258.77A23.997 23.997 0 0 0 137.63, 245.82C130.25, 244.59 122.25, 247.1 116.85, 252.54L97.38, 272L32.81, 272C32.42, 266.7 32, 261.4 32, 256C32, 136.9 128.9, 40 248, 40zM37.56, 304L97.37, 304C105.9, 304 113.96, 300.67 119.99, 294.62L131.61, 283.01L149.23, 318.32C154.7, 329.23 165.67, 335.99 177.85, 335.99L200, 335.99C217.66, 335.99 232, 321.63 232, 303.99L232, 294.61C232, 286.27 228.66, 278.08 222.78, 272.14L222.94, 271.98C234.13, 271.98 244.66, 266.01 250.38, 256.45L261.22, 238.39C264.38, 239.42 267.97, 239.98 272, 239.98C285.22, 239.98 296, 229.21 296, 215.98L296, 137.87C296, 125.71 289.28, 114.78 278.44, 109.31L337.51, 59.64C412.01, 93.76 464, 168.84 464, 256C464, 278.71 460.43, 300.58 453.91, 321.16C452.59, 319.39 451.53, 317.46 449.95, 315.87L445.07, 310.99L445.07, 308C445.07, 288.15 428.92, 272 409.07, 272L403, 272C397.5, 272 392.21, 273.27 387.45, 275.57A40.04 40.04 0 0 0 370.89, 272L358.8, 272C350.43, 272 342.41, 274.57 335.59, 279.42L311.87, 296.32L273.62, 311.46C258.34, 317.57 248.48, 332.15 248.48, 348.6L248.48, 358.81C248.48, 369.49 252.64, 379.54 260.19, 387.09L272.11, 399C281.17, 408.06 293.23, 413.06 306.05, 413.06L316.39, 413.06C320.31, 413.06 324.23, 412.58 328.03, 411.63L346.42, 407.03L357.33, 417.94C362.71, 423.32 369.22, 427.07 376.26, 429.39C340.34, 456.03 296.06, 472 248, 472C145.41, 472 59.47, 400.05 37.56, 304zM409, 399.49C408.13, 399.63 407.32, 400 406.43, 400L391.27, 400C387.03, 400 382.96, 398.31 379.96, 395.31L366.95, 382.3A26.78 26.78 0 0 0 341.53, 375.26L320.26, 380.58C318.99, 380.9 317.69, 381.06 316.38, 381.06L306.04, 381.06C301.8, 381.06 297.73, 379.37 294.73, 376.37L282.82, 364.46A8.008 8.008 0 0 1 280.48, 358.8L280.48, 348.6C280.48, 345.33 282.47, 342.39 285.51, 341.17L324.85, 325.43C326.83, 324.64 328.71, 323.61 330.44, 322.38L354.15, 305.49A8.05 8.05 0 0 1 358.79, 304.01L370.88, 304.01C374.11, 304.01 377.03, 305.95 378.27, 308.94L383.62, 321.79A4 4 0 0 0 387.31, 324.25L391.11, 324.25C392.89, 324.25 394.46, 323.08 394.95, 321.37L399.15, 306.9C399.65, 305.19 401.21, 304.02 402.99, 304.02L409.05, 304.02C411.26, 304.02 413.05, 305.81 413.05, 308.02L413.05, 320.95C413.05, 323.07 413.89, 325.11 415.39, 326.61L427.3, 338.52C430.3, 341.52 431.99, 345.59 431.99, 349.83L431.99, 368.58A216.64 216.64 0 0 1 409, 399.49z" fill="#727272" fill-opacity="1" class="Black" />
    </g>
  </g>
</svg>