<?xml version='1.0' encoding='UTF-8'?>
<svg viewBox="-4.6252 -1.9998 32 31.9975" xmlns="http://www.w3.org/2000/svg">
  <g transform="matrix(0.0547, 0, 0, 0.0547, 0, 0)">
    <path d="M416, 208C416, 91.7 320.5, -2.3 203.7, 0C91.6, 2.3 0.9, 94.2 0, 206.3C-0.5, 273.5 31, 333 80, 371.4L80, 416C80, 442.5 101.5, 464 128, 464C135.3, 464 160, 460 160, 480L160, 506C160, 509.3 162.7, 512 166, 512L186, 512C189.3, 512 192, 509.3 192, 506L192, 480C192, 453.5 170.5, 432 144, 432C136.7, 432 112, 436 112, 416L112, 400L304, 400L304, 416C304, 436 279.4, 432 272, 432C245.5, 432 224, 453.5 224, 480L224, 506C224, 509.3 226.7, 512 230, 512L250, 512C253.3, 512 256, 509.3 256, 506L256, 480C256, 460 280.6, 464 288, 464C314.5, 464 336, 442.5 336, 416L336, 371.4C384.6, 333.4 416, 274.5 416, 208zM32, 208C32, 111 111, 32 208, 32C305, 32 384, 111 384, 208C384, 279 341.6, 340.2 280.9, 368L135.1, 368C74.4, 340.2 32, 279 32, 208zM272, 222.9C272, 241.2 257.2, 256 238.9, 256C224.5, 256 212.6, 246.7 208, 233.9C234.3, 243.3 259.5, 218.7 249.9, 192C262.7, 196.6 272, 208.5 272, 222.9zM352, 238.9C352, 257.2 337.2, 272 318.9, 272C304.5, 272 292.6, 262.7 288, 249.9C314.3, 259.3 339.5, 234.7 329.9, 208C342.7, 212.6 352, 224.5 352, 238.9zM288, 302.9C288, 321.2 273.2, 336 254.9, 336C240.5, 336 228.6, 326.7 224, 313.9C250.3, 323.3 275.5, 298.7 265.9, 272C278.7, 276.6 288, 288.5 288, 302.9z" fill="#727272" fill-opacity="1" class="Black" />
  </g>
</svg>