<?xml version='1.0' encoding='UTF-8'?>
<svg viewBox="-2 -4.7992 32 32" xmlns="http://www.w3.org/2000/svg">
  <g transform="matrix(0.9988, 0, 0, 0.9988, 0, 0)">
    <g transform="matrix(0.0438, 0, 0, 0.0438, 0, 0)">
      <path d="M612.16, 153.99L347.16, 68.31C329.35, 62.56 310.66, 62.56 292.85, 68.31L27.85, 153.99C10.94, 159.46 0, 174.38 0, 192C0, 209.62 10.94, 224.54 27.84, 230.01L57.55, 239.61C54.25, 245.79 51.81, 252.44 50.22, 259.41C39.53, 264.59 32, 275.32 32, 288C32, 300.73 39.57, 311.52 50.33, 316.67L32.28, 428.53C30.67, 438.52 36.19, 448 43.62, 448L84.37, 448C91.8, 448 97.33, 438.52 95.71, 428.53L77.67, 316.67C88.43, 311.52 96, 300.73 96, 288C96, 277.4 90.51, 268.46 82.57, 262.63C84.06, 257.97 86.37, 253.77 89.14, 249.82L142.61, 267.11L128, 384C128, 419.35 213.96, 448 320, 448C426.04, 448 512, 419.35 512, 384L497.39, 267.11L612.16, 230C629.06, 224.54 640, 209.62 640, 192C640, 174.38 629.06, 159.46 612.16, 153.99zM479.48, 381.86C468.72, 393.19 414.04, 416 320, 416C225.96, 416 171.28, 393.19 160.52, 381.86L173.61, 277.13L292.85, 315.68C295.45, 316.52 318.57, 324.91 347.16, 315.68L466.4, 277.13L479.48, 381.86zM602.28, 199.58L337.28, 285.26C325.97, 288.92 314.03, 288.92 302.72, 285.26L127.05, 228.46L322.94, 191.72C331.63, 190.1 337.35, 181.74 335.72, 173.05C334.1, 164.35 325.56, 158.66 317.06, 160.28L113.28, 198.48C100.88, 200.8 89.77, 206.13 80.2, 213.31L37.71, 199.57C29.86, 197.02 30.25, 186.83 37.71, 184.42L302.71, 98.74C317.81, 93.86 330.55, 96.57 337.27, 98.74L602.27, 184.42C609.66, 186.81 610.18, 197.02 602.28, 199.58z" fill="#727272" fill-opacity="1" class="Black" />
    </g>
  </g>
</svg>