<?xml version='1.0' encoding='UTF-8'?>
<svg viewBox="-5.5003 -2 32 32" xmlns="http://www.w3.org/2000/svg">
  <g transform="matrix(0.0547, 0, 0, 0.0547, 0, 0)">
    <path d="M45.51, 314.12A32 32 0 0 0 82.08, 314.4C141.77, 273.53 201.66, 248.26 260.08, 239.4C261.53, 239.22 336, 228.91 336, 280A40 40 0 0 1 296, 320L192, 320A32 32 0 0 0 160, 352L290.41, 352C327.14, 352 360.68, 326.8 366.89, 290.6C374.71, 244.94 356.61, 234.81 278.13, 172.09C232, 135.21 192.72, 83.42 161.45, 18.17A32 32 0 0 0 132.61, 0A29.52 29.52 0 0 0 129.61, 0.14A32 32 0 0 0 101.61, 23.72L33.02, 279.72A32 32 0 0 0 45.51, 314.12zM132.57, 32C166, 101.63 208.2, 157.17 258.15, 197.09L269.47, 206.09C264.89, 206.49 260.15, 207.09 255.29, 207.79C192.06, 217.4 127.7, 244.38 64, 288zM376, 480L352, 480L352, 416A32 32 0 0 0 320, 384L64, 384A32 32 0 0 0 32, 416L32, 480L8, 480A8 8 0 0 0 0, 488L0, 504A8 8 0 0 0 8, 512L376, 512A8 8 0 0 0 384, 504L384, 488A8 8 0 0 0 376, 480zM320, 480L64, 480L64, 416L320, 416z" fill="#727272" fill-opacity="1" class="Black" />
  </g>
</svg>