<?xml version='1.0' encoding='UTF-8'?>
<svg viewBox="-3.999 0.0027 32 32" xmlns="http://www.w3.org/2000/svg">
  <g transform="matrix(0.0625, 0, 0, 0.0625, 0, 0)">
    <path d="M32.84, 318.95L47.13, 347.57A7.986 7.986 0 0 0 57.86, 351.15L347.57, 206.23A7.996 7.996 0 0 0 351.99, 199.08L351.99, 186.17C351.99, 183.15 350.29, 180.39 347.59, 179.03L57.87, 32.85C53.92, 30.87 49.11, 32.48 47.14, 36.43L32.84, 65.05A8.006 8.006 0 0 0 36.42, 75.78L268.87, 192L36.42, 308.22A8.006 8.006 0 0 0 32.84, 318.95zM376, 432L8, 432C3.58, 432 0, 435.58 0, 440L0, 472C0, 476.42 3.58, 480 8, 480L376, 480C380.42, 480 384, 476.42 384, 472L384, 440C384, 435.58 380.42, 432 376, 432z" fill="#727272" fill-opacity="1" class="Black" />
  </g>
</svg>