<?xml version='1.0' encoding='UTF-8'?>
<svg viewBox="-1.9963 -1.9975 32 32" xmlns="http://www.w3.org/2000/svg">
  <g transform="matrix(0.0547, 0, 0, 0.0547, 0, 0)">
    <path d="M402, 206.1C396.4, 206.5 391.5, 209.8 388.9, 214.7C374.3, 243 346.5, 278.6 312.6, 312.5C278.7, 346.5 243, 374.3 214.8, 388.8C209.8, 391.3 206.5, 396.3 206.1, 401.9C205.7, 407.5 208.3, 412.8 212.8, 416.1C227.1, 426.3 244.9, 430.8 263.8, 430.8C304.8, 430.8 351.2, 409.8 380.5, 380.4C423.4, 337.6 448.5, 258.2 416.2, 212.7C412.9, 208.2 407.2, 205.6 402, 206.1zM357.8, 357.8C333, 382.5 292.9, 400.9 259.6, 398.9C283.7, 382.4 310, 360.3 335.1, 335.1C360.2, 310 382.4, 283.7 398.9, 259.6C400.7, 291.8 382.6, 333.1 357.8, 357.8zM207.9, 236.2C204.9, 233.2 200.6, 232 196.5, 233L106, 255.7C100.3, 257.1 96.5, 262.4 96.9, 268.3C97.4, 274.1 102, 278.8 107.8, 279.3L160.1, 284.1L164.9, 336.4C165.4, 342.2 170.1, 346.8 175.9, 347.3C184.5, 347.7 187.8, 341.1 188.5, 338.2L211.1, 247.7C212.1, 243.5 210.9, 239.2 207.9, 236.2zM247.6, 211.1L338.1, 188.5C343.8, 187.1 347.6, 181.8 347.2, 175.9C346.7, 170.1 342.1, 165.4 336.3, 164.9L284, 160.1L279.2, 107.8C278.7, 102 274, 97.4 268.2, 96.9C262.5, 96.8 257, 100.3 255.6, 106L233, 196.5C232, 200.6 233.2, 204.9 236.2, 207.9C241.2, 212.9 247.5, 211.1 247.6, 211.1zM491.2, 124.6C519.3, 96.4 518.9, 50.3 490.3, 21.7C461.1, -7.5 415, -6.6 387.4, 20.9C382.9, 25.4 378.9, 31.8 375.3, 39.4C338.2, 18.9 297.2, 8 256, 8C192.5, 8 129, 32.2 80.6, 80.6C0.7, 160.5 -12.4, 281 39.6, 375.2C31.6, 379 25.2, 383 20.9, 387.4C-7.2, 415.6 -6.8, 461.7 21.8, 490.3C50.3, 518.8 96.3, 519.5 124.7, 491.1C129.2, 486.6 133.2, 480.2 136.8, 472.6C173.8, 493.1 214.8, 504 256, 504C319.5, 504 383, 479.8 431.4, 431.4C511.3, 351.5 524.4, 231.1 472.4, 136.8C480.4, 133 486.8, 128.9 491.2, 124.6zM410, 43.5C417.4, 36.1 427.4, 32 438, 32L438.4, 32C449.4, 32.1 459.7, 36.5 467.6, 44.4C483.7, 60.5 484.1, 86.4 468.5, 102C461.9, 108.6 436.2, 118.8 385.2, 126.8C393.2, 75.8 403.4, 50.1 410, 43.5zM102, 468.5C86.3, 484.2 60.5, 483.8 44.4, 467.7C28.3, 451.6 27.9, 425.7 43.5, 410.1C50.1, 403.5 75.8, 393.3 126.8, 385.3C118.8, 436.1 108.6, 461.9 102, 468.5zM408.8, 408.7C368, 449.5 313.7, 472 256, 472C217.2, 472 180.2, 461.2 147.6, 442.1C153, 422.4 157, 400.5 159.8, 381.2C161, 373.2 158.3, 365.3 152.6, 359.5C146.8, 353.7 138.9, 351.1 130.9, 352.2C107.1, 355.6 87, 359.7 70.3, 364.2C22.2, 281.5 32.6, 173.9 103.3, 103.2C144, 62.4 198.3, 40 256, 40C294.8, 40 331.8, 50.8 364.4, 69.9C359, 89.6 355, 111.5 352.2, 130.8C351, 138.8 353.7, 146.7 359.4, 152.5C364.3, 157.4 370.7, 160 377.4, 160C378.6, 160 379.8, 159.9 381.1, 159.7C404.9, 156.3 425, 152.2 441.7, 147.7C489.9, 230.3 479.5, 338 408.8, 408.7z" fill="#727272" fill-opacity="1" class="Black" />
  </g>
</svg>