<?xml version='1.0' encoding='UTF-8'?>
<svg viewBox="-1.9999 -1.549 31.9975 32" xmlns="http://www.w3.org/2000/svg">
  <g transform="matrix(0.999, 0, 0, 0.999, 0, 0)">
    <g transform="matrix(0.0565, 0, 0, 0.0565, 0, 0)">
      <path d="M248, 8C111, 8 0, 119 0, 256C0, 393 111, 504 248, 504C385, 504 496, 393 496, 256C496, 119 385, 8 248, 8zM248, 472C128.9, 472 32, 375.1 32, 256C32, 136.9 128.9, 40 248, 40C367.1, 40 464, 136.9 464, 256C464, 375.1 367.1, 472 248, 472zM118.9, 263.8C122.5, 268 128.8, 269.5 134.2, 266.3L214.2, 218.3C217.8, 216.1 220, 212.2 220, 208C220, 203.8 217.8, 199.9 214.2, 197.7L134.2, 149.7C129.1, 146.7 122.7, 147.8 118.9, 152.2C115.1, 156.7 115.1, 163.2 118.8, 167.7L152.4, 208L118.8, 248.3C115, 252.8 115.1, 259.4 118.9, 263.8zM361.8, 266.3C367.2, 269.5 373.5, 268 377.1, 263.8C380.9, 259.3 380.9, 252.8 377.2, 248.3L343.6, 208L377.2, 167.7C381, 163.2 380.9, 156.7 377.1, 152.2C373.2, 147.8 366.8, 146.8 361.8, 149.7L281.8, 197.7C278.2, 199.9 276, 203.8 276, 208C276, 212.2 278.2, 216.1 281.8, 218.3L361.8, 266.3zM371.1, 320.8C340.9, 330.5 296, 336 248, 336C200, 336 155.1, 330.5 124.9, 320.8C119.6, 319.1 113.7, 320.3 109.6, 323.9C105.4, 327.6 103.4, 333.1 104.3, 338.7C113.5, 393.7 187.5, 432 248.1, 432C308.7, 432 382.6, 393.7 391.9, 338.7C392.8, 333.2 390.8, 327.6 386.6, 323.9C382.3, 320.2 376.4, 319 371.1, 320.8zM248, 400C213, 400 171, 383.7 149.5, 359.7C207, 370.5 289.1, 370.5 346.6, 359.7C325, 383.7 283, 400 248, 400z" fill="#727272" fill-opacity="1" class="Black" />
    </g>
  </g>
</svg>