<?xml version='1.0' encoding='UTF-8'?>
<svg viewBox="-2.2221 -1.5552 32 31.9975" xmlns="http://www.w3.org/2000/svg">
  <g transform="matrix(0.9991, 0, 0, 0.9991, 0, 0)">
    <g transform="matrix(0.0556, 0, 0, 0.0556, 0, 0)">
      <path d="M248, 8C111, 8 0, 119 0, 256C0, 377.1 86.8, 477.8 201.6, 499.5C215.4, 507.2 231.1, 512 248, 512C264.9, 512 280.6, 507.2 294.4, 499.5C409.2, 477.8 496, 377.1 496, 256C496, 119 385, 8 248, 8zM312, 416C312, 451.6 282.9, 480.5 247.1, 480C212, 479.5 184, 450.2 184, 415L184, 384C202.9, 374.5 206.7, 371.8 216, 371.8L216.3, 371.8C226.1, 371.9 234.5, 378.8 236.7, 388.4L239.4, 400C241.5, 409.2 254.6, 409.2 256.7, 400L259.4, 388.4C261.6, 378.8 270, 371.9 279.8, 371.8L280.1, 371.8C289.3, 371.8 293, 374.5 312.1, 384L312.1, 416zM336.6, 452.8C341.3, 441.5 344, 429.1 344, 416L344, 402.4C368.7, 386.3 387.4, 364.4 391.8, 338.6C393.8, 327 382.8, 317 371.1, 320.7C340.9, 330.5 296, 336 248, 336C200, 336 155.1, 330.5 124.9, 320.8C113.3, 317.1 102.3, 327.1 104.2, 338.7C108.5, 364.5 127.2, 386.3 152, 402.5L152, 416C152, 429 154.7, 441.4 159.4, 452.8C84.4, 418.9 32, 343.5 32, 256C32, 136.9 128.9, 40 248, 40C367.1, 40 464, 136.9 464, 256C464, 343.5 411.6, 418.9 336.6, 452.8zM344, 128C299.8, 128 264, 163.8 264, 208C264, 252.2 299.8, 288 344, 288C388.2, 288 424, 252.2 424, 208C424, 163.8 388.2, 128 344, 128zM344, 256C317.5, 256 296, 234.5 296, 208C296, 181.5 317.5, 160 344, 160C370.5, 160 392, 181.5 392, 208C392, 234.5 370.5, 256 344, 256zM152, 180C126.3, 180 96.1, 196.9 92.2, 222.1C91.4, 227.1 93.9, 232.1 98.3, 234.5C102.7, 236.9 108.2, 236.3 112, 232.9L121.5, 224.4C136.3, 211.2 167.7, 211.2 182.5, 224.4L192, 232.9C194.5, 235.1 200, 237.6 205.7, 234.5C210.1, 232.1 212.6, 227.1 211.8, 222.1C207.9, 196.9 177.7, 180 152, 180zM344, 184C330.7, 184 320, 194.7 320, 208C320, 221.3 330.7, 232 344, 232C357.3, 232 368, 221.3 368, 208C368, 194.7 357.3, 184 344, 184z" fill="#727272" fill-opacity="1" class="Black" />
    </g>
  </g>
</svg>