<?xml version='1.0' encoding='UTF-8'?>
<svg viewBox="-1.9975 -4.7995 32 32" xmlns="http://www.w3.org/2000/svg">
  <g transform="matrix(0.9989, 0, 0, 0.9989, 0, 0)">
    <g transform="matrix(0.0438, 0, 0, 0.0438, 0, 0)">
      <path d="M349.7, 247.7C353.1, 248.8 357.1, 247.2 359, 244L368.5, 227C376.2, 213.3 387.7, 205.4 400, 205.4C412.3, 205.4 423.8, 213.3 431.5, 227L441, 244C443.1, 247.7 447.2, 248.7 450.3, 247.7C453.9, 246.6 456.3, 243.2 456, 239.4C452.7, 197.3 423.8, 168 400, 168C376.2, 168 347.3, 197.3 344, 239.4C343.7, 243.1 346.1, 246.6 349.7, 247.7zM443.1, 320.8C412.9, 330.5 368, 336 320, 336C272, 336 227.1, 330.5 196.9, 320.8C191.6, 319.1 185.8, 320.3 181.6, 323.9C177.4, 327.6 175.3, 333.1 176.3, 338.7C185.6, 393.7 259.5, 432 320.1, 432C380.7, 432 454.6, 393.7 463.9, 338.7C464.8, 333.2 462.8, 327.6 458.6, 323.9C454.3, 320.2 448.5, 319 443.1, 320.8zM320, 400C285, 400 243, 383.7 221.5, 359.7C279, 370.5 361.1, 370.5 418.6, 359.7C397, 383.7 355, 400 320, 400zM189.7, 247.7C193.1, 248.8 197.1, 247.2 199, 244L208.5, 227C216.2, 213.3 227.7, 205.4 240, 205.4C252.3, 205.4 263.8, 213.3 271.5, 227L281, 244C283.1, 247.7 287.2, 248.7 290.3, 247.7C293.9, 246.6 296.3, 243.2 296, 239.4C292.7, 197.3 263.8, 168 240, 168C216.2, 168 187.3, 197.3 184, 239.4C183.7, 243.1 186.1, 246.6 189.7, 247.7zM619.2, 259.4C610, 250.2 592.4, 242.2 566.8, 235.5C556.3, 108.1 450, 8 320, 8C190, 8 83.7, 108.1 73.2, 235.4C47.6, 242.1 30, 250.1 20.8, 259.3C-7.3, 287.5 -6.9, 333.6 21.7, 362.2C33.5, 374 65.9, 395.1 104.4, 376.9C146.9, 452.4 227.1, 503.9 319.9, 503.9C412.7, 503.9 493, 452.4 535.4, 376.9C573.8, 395 606.2, 374.1 618.1, 362.2C646.9, 333.7 647.3, 287.5 619.2, 259.4zM102, 340.5C86.5, 356 60.6, 356 44.3, 339.6C28.2, 323.5 27.8, 297.6 43.4, 282C50, 275.4 75.7, 265.2 126.7, 257.2C118.8, 308.2 108.6, 333.9 102, 340.5zM320, 472C237.4, 472 165.9, 425.1 129.6, 356.8C145.2, 334.6 154.6, 289.3 159.7, 253.2C160.9, 245.2 158.2, 237.3 152.5, 231.5C146.7, 225.7 138.8, 223.1 130.8, 224.2C122.1, 225.5 114, 226.8 106.2, 228.2C119.9, 122.3 210.3, 40 320, 40C429.7, 40 520.1, 122.3 533.8, 228.3C526, 226.9 517.9, 225.5 509.2, 224.3C501.3, 223.2 493.3, 225.8 487.5, 231.6C481.7, 237.4 479.1, 245.2 480.3, 253.3C485.5, 289.4 494.8, 334.7 510.4, 356.9C474.1, 425.1 402.6, 472 320, 472zM595.7, 339.6C579.3, 356.1 553.4, 355.8 538.1, 340.4C531.5, 333.8 521.3, 308.1 513.3, 257.1C564.3, 265.1 590, 275.3 596.6, 281.9C612.2, 297.7 611.8, 323.5 595.7, 339.6z" fill="#727272" fill-opacity="1" class="Black" />
    </g>
  </g>
</svg>