<?xml version='1.0' encoding='UTF-8'?>
<svg viewBox="-2.2221 -1.5552 32 31.9975" xmlns="http://www.w3.org/2000/svg">
  <g transform="matrix(0.9991, 0, 0, 0.9991, 0, 0)">
    <g transform="matrix(0.0556, 0, 0, 0.0556, 0, 0)">
      <path d="M168, 176C150.3, 176 136, 190.3 136, 208C136, 225.7 150.3, 240 168, 240C185.7, 240 200, 225.7 200, 208C200, 190.3 185.7, 176 168, 176zM248, 8C111, 8 0, 119 0, 256C0, 377.1 86.8, 477.8 201.6, 499.5C215.4, 507.2 231.1, 512 248, 512C264.9, 512 280.6, 507.2 294.4, 499.5C409.2, 477.8 496, 377.1 496, 256C496, 119 385, 8 248, 8zM312, 416C312, 451.6 282.9, 480.5 247.1, 480C212, 479.5 184, 450.2 184, 415L184, 384C202.9, 374.5 206.7, 371.8 216, 371.8L216.3, 371.8C226.1, 371.9 234.5, 378.8 236.7, 388.4L239.4, 400C241.5, 409.2 254.6, 409.2 256.7, 400L259.4, 388.4C261.6, 378.8 270, 371.9 279.8, 371.8L280.1, 371.8C289.3, 371.8 293, 374.5 312.1, 384L312.1, 416zM336.6, 452.8C341.3, 441.5 344, 429.1 344, 416L344, 402.4C368.7, 386.3 387.4, 364.4 391.8, 338.6C393.8, 327 382.8, 317 371.1, 320.7C340.9, 330.5 296, 336 248, 336C200, 336 155.1, 330.5 124.9, 320.8C113.3, 317.1 102.3, 327.1 104.2, 338.7C108.5, 364.5 127.2, 386.3 152, 402.5L152, 416C152, 429 154.7, 441.4 159.4, 452.8C84.4, 418.9 32, 343.5 32, 256C32, 136.9 128.9, 40 248, 40C367.1, 40 464, 136.9 464, 256C464, 343.5 411.6, 418.9 336.6, 452.8zM328, 176C310.3, 176 296, 190.3 296, 208C296, 225.7 310.3, 240 328, 240C345.7, 240 360, 225.7 360, 208C360, 190.3 345.7, 176 328, 176z" fill="#727272" fill-opacity="1" class="Black" />
    </g>
  </g>
</svg>