<?xml version='1.0' encoding='UTF-8'?>
<svg viewBox="-2 0 32 32" xmlns="http://www.w3.org/2000/svg">
  <g transform="matrix(0.0625, 0, 0, 0.0625, 0, 0)">
    <path d="M424, 96L344, 96C330.78, 96 320, 106.77 320, 120L320, 200C320, 213.23 330.78, 224 344, 224L424, 224C437.22, 224 448, 213.23 448, 200L448, 120C448, 106.77 437.22, 96 424, 96zM416, 192L352, 192L352, 128L416, 128L416, 192zM264, 96L184, 96C170.78, 96 160, 106.77 160, 120L160, 200C160, 213.23 170.78, 224 184, 224L264, 224C277.22, 224 288, 213.23 288, 200L288, 120C288, 106.77 277.22, 96 264, 96zM256, 192L192, 192L192, 128L256, 128L256, 192zM104, 96L24, 96C10.78, 96 0, 106.77 0, 120L0, 200C0, 213.23 10.78, 224 24, 224L104, 224C117.22, 224 128, 213.23 128, 200L128, 120C128, 106.77 117.22, 96 104, 96zM96, 192L32, 192L32, 128L96, 128L96, 192zM424, 288L344, 288C330.78, 288 320, 298.77 320, 312L320, 392C320, 405.23 330.78, 416 344, 416L424, 416C437.22, 416 448, 405.23 448, 392L448, 312C448, 298.77 437.22, 288 424, 288zM416, 384L352, 384L352, 320L416, 320L416, 384zM264, 288L184, 288C170.78, 288 160, 298.77 160, 312L160, 392C160, 405.23 170.78, 416 184, 416L264, 416C277.22, 416 288, 405.23 288, 392L288, 312C288, 298.77 277.22, 288 264, 288zM256, 384L192, 384L192, 320L256, 320L256, 384zM104, 288L24, 288C10.78, 288 0, 298.77 0, 312L0, 392C0, 405.23 10.78, 416 24, 416L104, 416C117.22, 416 128, 405.23 128, 392L128, 312C128, 298.77 117.22, 288 104, 288zM96, 384L32, 384L32, 320L96, 320L96, 384z" fill="#727272" fill-opacity="1" class="Black" />
  </g>
</svg>