<?xml version='1.0' encoding='UTF-8'?>
<svg viewBox="-8 0 32 32" xmlns="http://www.w3.org/2000/svg">
  <g transform="matrix(0.0625, 0, 0, 0.0625, 0, 0)">
    <path d="M192, 472L192, 40C192, 35.6 188.4, 32 184, 32L168, 32C163.6, 32 160, 35.6 160, 40L160, 472C160, 476.4 163.6, 480 168, 480L184, 480C188.4, 480 192, 476.4 192, 472zM96, 472L96, 40C96, 35.6 92.4, 32 88, 32L72, 32C67.6, 32 64, 35.6 64, 40L64, 472C64, 476.4 67.6, 480 72, 480L88, 480C92.4, 480 96, 476.4 96, 472z" fill="#727272" fill-opacity="1" class="Black" />
  </g>
</svg>