<?xml version='1.0' encoding='UTF-8'?>
<svg viewBox="-2.0061 -2.0074 32 31.995" xmlns="http://www.w3.org/2000/svg">
  <g transform="matrix(0.9993, 0, 0, 0.9993, 0, 0)">
    <g transform="matrix(0.0547, 0, 0, 0.0547, 0, 0)">
      <path d="M80, 320A48 48 0 1 0 128, 272A48 48 0 0 0 80, 320zM144, 320A16 16 0 1 1 128, 304A16 16 0 0 1 144, 320zM408, 336L328, 336A8 8 0 0 0 320, 344L320, 360A8 8 0 0 0 328, 368L408, 368A8 8 0 0 0 416, 360L416, 344A8 8 0 0 0 408, 336zM504.67, 386.93L474.37, 336.29C466.87, 315.83 462.77, 306.71 472.13, 287.02A81.26 81.26 0 0 0 480, 252.21L480, 220.34A20.76 20.76 0 0 0 459.23, 199.57A20.77 20.77 0 0 0 440.76, 210.82L428.81, 233.94C422.81, 245.61 416.68, 253.81 404, 256L392, 256L392, 89.38A47.32 47.32 0 0 0 401.94, 82A48 48 0 0 0 341.35, 8.05A58.88 58.88 0 0 0 332.76, 14.79C322.3, 25.26 321.08, 41.48 303.85, 121.4A32.1 32.1 0 0 0 312.48, 150.88L344, 182.41L344, 256L332, 256C319.28, 252.5 313.52, 242 308.85, 229.15L294.18, 188.93A19.64 19.64 0 0 0 275.72, 176A19.69 19.69 0 0 0 256, 195.68L256, 252.3A81.19 81.19 0 0 0 263.83, 287.11C273.18, 306.79 269.25, 315.92 261.73, 336.37L231.36, 387C205.98, 446.16 249.36, 512 313.69, 512L422.16, 512C486.57, 511.93 530, 446.09 504.67, 386.93zM335.13, 128.14C338.71, 111.53 353.2, 42.01 355.7, 37.14A35.47 35.47 0 0 1 359.36, 34.52A16 16 0 0 1 379.36, 59.34A17.79 17.79 0 0 1 375.98, 61.72L360, 71L360, 153.17zM470.37, 454A56.87 56.87 0 0 1 422.19, 480L313.69, 480A57.62 57.62 0 0 1 260, 401.44L289.14, 352.82L290.69, 350.24L291.69, 347.41L292.41, 345.41C300.16, 324.41 307.48, 304.53 292.67, 273.35A49.46 49.46 0 0 1 288.67, 260.93C295.48, 271.33 306.23, 282.08 323.41, 286.81L327.58, 287.96L406.65, 287.96L409.35, 287.49A59.52 59.52 0 0 0 445.76, 266.42A50.41 50.41 0 0 1 443.13, 273.25C428.38, 304.25 435.64, 323.95 443.31, 344.78L444.23, 347.27L445.23, 350.09L446.77, 352.68L476, 401.31A56.74 56.74 0 0 1 470.37, 454zM408, 400.12L328, 400.12A8 8 0 0 0 320, 408.12L320, 424.12A8 8 0 0 0 328, 432.12L408, 432.12A8 8 0 0 0 416, 424.12L416, 408.12A8 8 0 0 0 408, 400.12zM128, 480C101.18, 480 76.24, 471.65 57.76, 456.5C41.13, 442.87 32, 425.29 32, 406.89C31.95, 390.42 39.82, 377.4 46.4, 369.44C65.46, 346.44 68.98, 312.78 55.13, 285.64A42.07 42.07 0 0 1 50.23, 266C50.23, 250.55 58.52, 239 65.47, 232.05A72.47 72.47 0 0 1 78.33, 222C85, 217.85 93.66, 215.21 104, 213.57L104, 224A16 16 0 0 0 120, 240L136, 240A16 16 0 0 0 152, 224L152, 213.53C162.34, 215.17 171, 217.81 177.67, 221.96A72.47 72.47 0 0 1 190.53, 232.08C197.48, 239.08 205.78, 250.58 205.77, 266.03A42.07 42.07 0 0 1 200.87, 285.64C187.79, 311.29 190.71, 342.47 207.1, 365.26L226.49, 332.91C223.6, 322.18 224.18, 310.37 229.36, 300.24A79.15 79.15 0 0 0 232.16, 292.81C227.16, 279.86 224, 266.15 224, 252.29L224, 222.68A91.15 91.15 0 0 0 213.14, 209.46A103.66 103.66 0 0 0 194.56, 194.79C181.72, 186.79 167.01, 182.79 151.98, 180.96L151.98, 126.74L168.6, 93.51A29.12 29.12 0 0 0 171.67, 80.51L171.67, 26.41A26.41 26.41 0 0 0 145.28, 0L110.72, 0A26.41 26.41 0 0 0 84.3, 26.41L84.3, 80.49A29.12 29.12 0 0 0 87.37, 93.49L104, 126.74L104, 181C89, 182.84 74.26, 186.84 61.42, 194.83A103.66 103.66 0 0 0 42.84, 209.5C27.45, 224.89 18.22, 244.5 18.23, 266.08A74.36 74.36 0 0 0 26.64, 300.28C34.64, 315.93 32.64, 335.87 21.76, 349.06C8.11, 365.55 -0.07, 385.43 0, 407C-0.07, 465 57.34, 512 128, 512C159.64, 512 188.25, 502.22 210.61, 486.61A121.63 121.63 0 0 1 197.34, 457.11C179, 471.82 154.42, 480 128, 480zM139.7, 32L139.7, 80.49L128.06, 103.28L128.01, 103.17L128.01, 103.28L116.31, 80.49L116.31, 32z" fill="#727272" fill-opacity="1" class="Black" />
    </g>
  </g>
</svg>