<?xml version='1.0' encoding='UTF-8'?>
<svg viewBox="-1.9975 -1.9975 32 32" xmlns="http://www.w3.org/2000/svg">
  <g transform="matrix(0.0547, 0, 0, 0.0547, 0, 0)">
    <path d="M160, 288A64 64 0 1 0 224, 352A64 64 0 0 0 160, 288zM160, 384A32 32 0 1 1 192, 352A32 32 0 0 1 160, 384zM501.78, 42.49L469.51, 10.22A34.91 34.91 0 0 0 420.15, 10.22L369.63, 60.75A38.46 38.46 0 0 0 360.34, 75.75L339, 139.87C338.61, 140.18 338, 140.05 337.69, 140.41L291.09, 187C277.3, 175.83 261.62, 167.11 244.37, 163.09A115.75 115.75 0 0 0 218.27, 160.02C194.1, 160.02 171.41, 168.21 154.51, 185.12A82.52 82.52 0 0 0 134.27, 218.59C128.27, 237.15 111.07, 251.28 92.12, 253.05C68.43, 255.32 46.4, 264.5 29.53, 281.49C-16.1, 327 -7.9, 409 47.57, 464.45C78.9, 495.77 118.66, 512 155.53, 512C183.98, 512 210.7, 502.35 230.53, 482.52C247.53, 465.64 256.7, 443.62 258.98, 419.82C260.74, 400.96 274.87, 383.68 293.41, 377.67A82.72 82.72 0 0 0 326.88, 357.43C349.75, 334.54 356.61, 301.07 348.88, 267.67C344.88, 250.41 336.21, 234.67 325.05, 220.92L371.61, 174.35C371.97, 173.99 371.85, 173.44 372.15, 173.05L436.21, 151.69A38.6 38.6 0 0 0 451.26, 142.39L501.78, 91.86A34.92 34.92 0 0 0 501.78, 42.49zM304.25, 334.8A50.44 50.44 0 0 1 283.52, 347.22C252.73, 357.22 230.06, 385.22 227.12, 416.76C225.95, 428.87 221.69, 446.17 207.89, 459.89C191.28, 476.51 170.25, 480 155.53, 480C125.53, 480 94.46, 466.08 70.21, 441.82C45.96, 417.56 32, 386.37 32, 356.39C32, 341.7 35.51, 320.72 52.22, 304.05C65.86, 290.33 83.1, 286.05 95.11, 284.92C126.75, 281.92 154.72, 259.27 164.72, 228.4A50.32 50.32 0 0 1 177.14, 207.75C190.14, 194.75 206.67, 192.03 218.27, 192.03A83.63 83.63 0 0 1 237.12, 194.26C247.43, 196.66 257.98, 202.08 268.23, 209.86L215.52, 262.58A12 12 0 0 0 215.52, 279.58L232.52, 296.58A12 12 0 0 0 249.52, 296.58L302.23, 243.86C309.99, 254.09 315.39, 264.62 317.78, 274.92C323.25, 298.85 318.34, 320.69 304.25, 334.8zM479.15, 69.23L428.63, 119.75A6.45 6.45 0 0 1 426.1, 121.33L373, 139L390.7, 85.88A6.61 6.61 0 0 1 392.27, 83.35L442.79, 32.82A2.81 2.81 0 0 1 444.84, 31.97A2.85 2.85 0 0 1 446.9, 32.82L479.16, 65.09A2.92 2.92 0 0 1 479.15, 69.23z" fill="#727272" fill-opacity="1" class="Black" />
  </g>
</svg>