<?xml version='1.0' encoding='UTF-8'?>
<svg viewBox="-2 -3.554 32 32" xmlns="http://www.w3.org/2000/svg">
  <g transform="matrix(0.0486, 0, 0, 0.0486, 0, 0)">
    <path d="M312, 96L200, 96A8 8 0 0 0 192, 104L192, 120A8 8 0 0 0 200, 128L240, 128L240, 240L80, 240L80, 128L120, 128A8 8 0 0 0 128, 120L128, 104A8 8 0 0 0 120, 96L8, 96A8 8 0 0 0 0, 104L0, 120A8 8 0 0 0 8, 128L48, 128L48, 384L8, 384A8 8 0 0 0 0, 392L0, 408A8 8 0 0 0 8, 416L120, 416A8 8 0 0 0 128, 408L128, 392A8 8 0 0 0 120, 384L80, 384L80, 272L240, 272L240, 384L200, 384A8 8 0 0 0 192, 392L192, 408A8 8 0 0 0 200, 416L312, 416A8 8 0 0 0 320, 408L320, 392A8 8 0 0 0 312, 384L272, 384L272, 128L312, 128A8 8 0 0 0 320, 120L320, 104A8 8 0 0 0 312, 96zM568, 384L497.66, 384L497.66, 112A16 16 0 0 0 481.66, 96L465.66, 96A16 16 0 0 0 454.35, 100.69L412, 143A8 8 0 0 0 412, 154.31L423.31, 165.62A8 8 0 0 0 434.63, 165.62L465.63, 134.62L465.63, 384L392, 384A8 8 0 0 0 384, 392L384, 408A8 8 0 0 0 392, 416L568, 416A8 8 0 0 0 576, 408L576, 392A8 8 0 0 0 568, 384z" fill="#727272" fill-opacity="1" class="Black" />
  </g>
</svg>