<?xml version='1.0' encoding='UTF-8'?>
<svg viewBox="-2 -3.3195 32 32" xmlns="http://www.w3.org/2000/svg">
  <g transform="matrix(0.0495, 0, 0, 0.0495, 0, 0)">
    <path d="M312, 96L200, 96A8 8 0 0 0 192, 104L192, 120A8 8 0 0 0 200, 128L240, 128L240, 240L80, 240L80, 128L120, 128A8 8 0 0 0 128, 120L128, 104A8 8 0 0 0 120, 96L8, 96A8 8 0 0 0 0, 104L0, 120A8 8 0 0 0 8, 128L48, 128L48, 384L8, 384A8 8 0 0 0 0, 392L0, 408A8 8 0 0 0 8, 416L120, 416A8 8 0 0 0 128, 408L128, 392A8 8 0 0 0 120, 384L80, 384L80, 272L240, 272L240, 384L200, 384A8 8 0 0 0 192, 392L192, 408A8 8 0 0 0 200, 416L312, 416A8 8 0 0 0 320, 408L320, 392A8 8 0 0 0 312, 384L272, 384L272, 128L312, 128A8 8 0 0 0 320, 120L320, 104A8 8 0 0 0 312, 96zM552, 384L406.07, 384C409.91, 305.24 565.31, 289.37 565.31, 185.06C565.31, 135.06 528.38, 96 467.56, 96C429.06, 96 394.56, 116.77 375.75, 144.46A11.83 11.83 0 0 0 379, 161L386.15, 165.75A12.1 12.1 0 0 0 402.5, 162.91C417, 143.91 440.22, 129.15 465.78, 129.15C503.09, 129.15 529.15, 152.87 529.15, 186.85C529.15, 269.19 368.03, 283.85 368.03, 394.16C368.03, 398.38 368.22, 401.97 368.53, 405.34A12 12 0 0 0 380.53, 416.03L552, 416.03A8 8 0 0 0 560, 408.03L560, 392A8 8 0 0 0 552, 384z" fill="#727272" fill-opacity="1" class="Black" />
  </g>
</svg>