<?xml version='1.0' encoding='UTF-8'?>
<svg viewBox="-2.0475 -3.554 31.9975 32" xmlns="http://www.w3.org/2000/svg">
  <g transform="matrix(0.0486, 0, 0, 0.0486, 0, 0)">
    <path d="M476.8, 223.64L567.54, 122.38A11.69 11.69 0 0 0 570.54, 114.57L570.54, 107.86A12.1 12.1 0 0 0 558.26, 96L391, 96A8 8 0 0 0 383, 104L383, 120A8 8 0 0 0 391, 128L521.37, 128C518.1, 131.13 513.72, 135.56 508.95, 140.95L432.63, 227.39A11.68 11.68 0 0 0 430.63, 239.65L433.38, 246.07A12.24 12.24 0 0 0 444.7, 253.38L459.81, 253.38C502.25, 253.38 538.57, 276.29 538.59, 317.67A62.89 62.89 0 0 1 518.05, 363.67C481.11, 397.33 426.05, 382.06 393.89, 354.04A12.52 12.52 0 0 0 376.13, 355.53L369.69, 363.43A11.56 11.56 0 0 0 371.03, 379.53C393.67, 399.53 430.03, 415.99 467.47, 415.99C527.74, 416 575, 372.42 575, 316.71C575.1, 259.41 530.1, 228.09 476.8, 223.64zM311, 96L199, 96A8 8 0 0 0 191, 104L191, 120A8 8 0 0 0 199, 128L239, 128L239, 240L79, 240L79, 128L119, 128A8 8 0 0 0 127, 120L127, 104A8 8 0 0 0 119, 96L7, 96A8 8 0 0 0 -1, 104L-1, 120A8 8 0 0 0 7, 128L47, 128L47, 384L7, 384A8 8 0 0 0 -1, 392L-1, 408A8 8 0 0 0 7, 416L119, 416A8 8 0 0 0 127, 408L127, 392A8 8 0 0 0 119, 384L79, 384L79, 272L239, 272L239, 384L199, 384A8 8 0 0 0 191, 392L191, 408A8 8 0 0 0 199, 416L311, 416A8 8 0 0 0 319, 408L319, 392A8 8 0 0 0 311, 384L271, 384L271, 128L311, 128A8 8 0 0 0 319, 120L319, 104A8 8 0 0 0 311, 96z" fill="#727272" fill-opacity="1" class="Black" />
  </g>
</svg>