<?xml version='1.0' encoding='UTF-8'?>
<svg viewBox="-1.995 -1.9962 32 32" xmlns="http://www.w3.org/2000/svg">
  <g transform="matrix(0.0547, 0, 0, 0.0547, 0, 0)">
    <path d="M384, 208A16 16 0 1 0 368, 192A16 16 0 0 0 384, 208zM208, 144A16 16 0 1 0 192, 128A16 16 0 0 0 208, 144zM304, 144A16 16 0 1 0 288, 128A16 16 0 0 0 304, 144zM128, 208A16 16 0 1 0 112, 192A16 16 0 0 0 128, 208zM512, 320A63.84 63.84 0 0 0 481.83, 265.9C495.37, 244.96 500.31, 212.96 488.18, 186.83C448, 100.27 359.55, 32.13 256, 32C152.46, 32.13 64, 100.26 23.82, 186.82C11.37, 213.63 14.71, 246.69 27.48, 267.57A63.51 63.51 0 0 0 21.34, 367.36C18.25, 372.28 16, 377.76 16, 384L16, 416A64 64 0 0 0 80, 480L432, 480A64 64 0 0 0 496, 416L496, 384C496, 377.76 493.75, 372.28 490.66, 367.36A63.64 63.64 0 0 0 512, 320zM52.85, 200.3C90.66, 118.9 172.3, 64.13 256, 64C339.72, 64.13 421.37, 118.9 459.16, 200.31C464.95, 212.78 464.4, 229.85 457.75, 243.79C457.61, 244.07 457.48, 244.35 457.34, 244.62A21.07 21.07 0 0 1 438.44, 256L70.1, 256C63.98, 256 57.86, 253.61 54.1, 248.78A16.5 16.5 0 0 1 51.61, 244.38C46.36, 230.51 46.85, 213.2 52.85, 200.3zM464, 416A32 32 0 0 1 432, 448L80, 448A32 32 0 0 1 48, 416L48, 384L464, 384zM448, 352L64, 352A32 32 0 0 1 64, 288L448, 288A32 32 0 0 1 448, 352z" fill="#727272" fill-opacity="1" class="Black" />
  </g>
</svg>