<?xml version='1.0' encoding='UTF-8'?>
<svg viewBox="-1.9999 -3.5552 31.9975 32" xmlns="http://www.w3.org/2000/svg">
  <g transform="matrix(0.0486, 0, 0, 0.0486, 0, 0)">
    <path d="M558.3, 333.65C548.72, 325 536.21, 320.24 523.07, 320.24C510.56, 320.24 498.26, 324.56 488.45, 332.41L426.88, 381.66A10.68 10.68 0 0 1 420.22, 384L378.59, 384C383.15, 374.42 385.07, 363.34 383.4, 351.73C379.38, 323.8 353.78, 304 325.57, 304L181.33, 304C160.56, 304 140.35, 310.74 123.73, 323.2L85.33, 352L8, 352C3.58, 352 0, 355.58 0, 360L0, 376C0, 380.42 3.58, 384 8, 384L96, 384L142.93, 348.8A63.99 63.99 0 0 1 181.33, 336L328, 336C341.25, 336 352, 346.74 352, 360C352, 373.25 341.25, 384 328, 384L240, 384C231.16, 384 224, 391.16 224, 400C224, 408.84 231.16, 416 240, 416L420.22, 416C429.91, 416 439.31, 412.7 446.87, 406.65L508.43, 357.4C512.65, 354.02 517.89, 352.24 523.06, 352.24C528.05, 352.24 532.97, 353.9 536.84, 357.4C546.89, 366.48 546.1, 381.91 535.97, 389.99L435.14, 470.65A42.656 42.656 0 0 1 408.49, 480L8, 480C3.58, 480 0, 483.58 0, 488L0, 504C0, 508.42 3.58, 512 8, 512L408.51, 512C425.46, 512 441.91, 506.23 455.14, 495.64L555.97, 414.97C568.2, 405.21 575.49, 390.61 575.97, 374.94C576.45, 359.27 570.01, 344.22 558.3, 333.65zM208, 224L280, 224C319.69, 224 352, 191.7 352, 152C352, 112.3 319.69, 80 280, 80L264.69, 80C233, 80 204.81, 98.78 192, 126.61C209.72, 118.75 233.88, 112 264.69, 112L280, 112C302.06, 112 320, 129.94 320, 152C320, 174.06 302.06, 192 280, 192L208, 192C180.53, 192 160, 166.66 160, 144L160, 80C160, 53.53 181.53, 32 208, 32L368, 32C394.47, 32 416, 53.53 416, 80L416, 149.23C416, 185.35 399.37, 221.64 369.16, 251.43L348.31, 272C405.4, 257.22 447.56, 207.73 448, 150.67L448, 80C448, 35.89 412.12, 0 368, 0L208, 0C163.87, 0 128, 35.89 128, 80L128, 144C128, 186.61 165.38, 224 208, 224z" fill="#727272" fill-opacity="1" class="Black" />
  </g>
</svg>