<?xml version='1.0' encoding='UTF-8'?>
<svg viewBox="-2 -1.9988 32 32" xmlns="http://www.w3.org/2000/svg">
  <g transform="matrix(0.0547, 0, 0, 0.0547, 0, 0)">
    <path d="M256, 480L328.5, 480C333.115, 480 337.732, 479.472 342.222, 478.431L465.472, 449.861C478.605, 446.817 490.467, 439.383 498.872, 428.928C507.338, 418.397 512, 405.182 512, 391.718L512, 177.445C512, 156.007 500.316, 136.112 481.508, 125.525L380.008, 68.386C343.327, 47.735 315.46, 67.908 291.78, 97.069L135.569, 36.609C100.93, 23.204 61.897, 40.02 48.219, 74.318C34.523, 108.663 51.545, 147.644 86.431, 161.147L176, 192L67.5, 189.157C30.28, 189.157 0, 219.148 0, 256.012C0, 292.876 30.28, 322.866 67.5, 322.866L169.827, 322.866C160.269, 351.259 173.508, 382.571 201.124, 395.641C183.12, 434.864 212.126, 480 256, 480zM364.311, 96.271L465.811, 153.411C474.564, 158.338 480, 167.548 480, 177.446L480, 391.718C480, 404.628 471.055, 415.719 458.246, 418.688L334.996, 447.258A28.843 28.843 0 0 1 328.5, 448L256, 448C218.59, 448 218.65, 392.576 256, 392.576A8 8 0 0 0 264, 384.576L264, 377.433A8 8 0 0 0 256, 369.433L227, 369.433C189.59, 369.433 189.649, 314.008 227, 314.008L256, 314.008A8 8 0 0 0 264, 306.008L264, 298.865A8 8 0 0 0 256, 290.865L67.5, 290.865C20.479, 290.865 20.571, 221.156 67.5, 221.156L256, 221.156A8 8 0 0 0 264, 213.156L264, 201.04A8 8 0 0 0 258.888, 193.579L97.981, 131.305C54.402, 114.438 80.079, 49.448 124.018, 66.453L296.515, 133.214A8.002 8.002 0 0 0 305.613, 130.796L328.153, 103.039C336.913, 92.254 352.119, 89.407 364.311, 96.271z" fill="#727272" fill-opacity="1" class="Black" />
  </g>
</svg>