<?xml version='1.0' encoding='UTF-8'?>
<svg viewBox="-2.0013 -1.9975 32 32" xmlns="http://www.w3.org/2000/svg">
  <g transform="matrix(0.0547, 0, 0, 0.0547, 0, 0)">
    <path d="M443.1, 87.6C442.4, 61.7 424.7, 37.6 397.5, 30.8C365.2, 22.7 332.5, 42.2 324.4, 74.6L297.7, 208L266.7, 46.8C259.3, 14.4 226.9, -5.9 194.5, 1.6C164.8, 8.4 145.3, 36.3 148, 65.8C106.8, 60.3 71.9, 97.6 81.3, 138.9L116, 291.8L116, 305.5L101.5, 291.9C76.9, 268.7 38.7, 270.7 16.3, 294.5C-6.5, 318.7 -5.3, 356.9 18.9, 379.7L152.6, 505.6C157.1, 509.8 162.9, 512.1 169, 512.1L415.1, 512.1C425.7, 512.1 435.1, 505.1 438.1, 494.9L471.1, 383.8C474.1, 373.6 475.7, 362.9 475.7, 352.3L475.7, 314C475.7, 309.1 476.3, 304.2 477.4, 299.4L510.3, 161.2C520.3, 119.4 484.7, 81.6 443.1, 87.6zM479.2, 153.8L446.3, 292C444.6, 299.2 443.7, 306.6 443.7, 314L443.7, 352.2C443.7, 359.8 442.6, 367.4 440.4, 374.7L409.2, 480L172.3, 480L40.9, 356.3C29.6, 345.6 29, 327.7 39.7, 316.4C50.4, 305 68.3, 304.5 79.6, 315.2L134.5, 366.9C139.6, 371.7 148, 368.1 148, 361.1L148, 289.1C148, 288.5 147.9, 287.9 147.8, 287.3L112.5, 131.8C104.2, 95.4 159.3, 82.8 167.6, 119.3L199, 257.8C199.8, 261.4 203.1, 264 206.8, 264L215.7, 264C220.8, 264 224.6, 259.2 223.5, 254.2L180.4, 66.6C172, 30.2 227.1, 17.4 235.5, 54L282.3, 257.9C283.1, 261.5 286.4, 264.1 290.1, 264.1L303.8, 264.1C307.5, 264.1 310.7, 261.6 311.6, 258L355.5, 82.5C364.6, 46.2 419.4, 59.9 410.3, 96.2L370.8, 254.2C369.5, 259.3 373.4, 264.1 378.6, 264.1L388.6, 264.1C392.3, 264.1 395.5, 261.6 396.4, 258L424.3, 140.9C432.9, 104.4 487.9, 117.4 479.2, 153.8z" fill="#727272" fill-opacity="1" class="Black" />
  </g>
</svg>