<?xml version='1.0' encoding='UTF-8'?>
<svg viewBox="-2 -4.801 32 32" xmlns="http://www.w3.org/2000/svg">
  <g transform="matrix(1.0013, 0, 0, 1.0013, 0, 0)">
    <g transform="matrix(0.0437, 0, 0, 0.0437, 0, 0)">
      <path d="M638.9, 209.7L630.9, 195.8C628.7, 192 623.8, 190.7 620, 192.9L512, 255.9L512, 240C512, 213.5 490.5, 192 464, 192L320, 192L320, 254.2C320, 270.2 309.1, 285 293.4, 287.5C273.4, 290.8 256, 275.3 256, 255.9L256, 161.6C256, 147.8 263.1, 135 274.8, 127.7L308.2, 106.8C319.6, 99.7 332.8, 95.9 346.3, 95.9L449.5, 95.9L568, 28.9C571.8, 26.7 573.2, 21.8 571, 18L563, 4C560.8, 0.2 555.9, -1.2 552.1, 1L441.1, 64L346.4, 64C326.9, 64 307.8, 69.5 291.3, 79.8L257.8, 100.7C240.3, 111.7 229.1, 129.3 225.6, 149.2L163.1, 186.2C141.5, 199.2 128, 222.9 128, 248.1L128, 286.7L4, 357.1C0.2, 359.3 -1.2, 364.2 1, 368L9, 381.9C11.2, 385.7 16.1, 387.1 19.9, 384.9L160, 305.3L160, 248.1C160, 234.1 167.5, 220.9 179.4, 213.7L224, 187.3L224, 253.2C224, 286.6 248.3, 316.5 281.6, 319.7C319.7, 323.4 352, 293.4 352, 256L352, 224L464, 224C472.8, 224 480, 231.2 480, 240L480, 272C480, 280.8 472.8, 288 464, 288L440, 288L440, 324C440, 343.8 424, 359.8 404.2, 359.8L388.1, 359.8L388.1, 375.8C388.1, 398 370.1, 416 347.9, 416L238.5, 416L122.9, 483.3C119.1, 485.5 117.8, 490.4 120, 494.2L128, 508C130.2, 511.8 135.1, 513.1 138.9, 510.9L247.1, 448L347.9, 448C382.7, 448 411.9, 423.2 418.7, 390.3C449.1, 383.6 472, 356.4 472, 324L472, 319.3C485.6, 317 496.6, 308.7 503.8, 297.6L636, 220.6C639.8, 218.4 641.1, 213.5 638.9, 209.7z" fill="#727272" fill-opacity="1" class="Black" />
    </g>
  </g>
</svg>