<?xml version='1.0' encoding='UTF-8'?>
<svg viewBox="-3.7508 -2 32 32" xmlns="http://www.w3.org/2000/svg">
  <g transform="matrix(0.0547, 0, 0, 0.0547, 0, 0)">
    <path d="M369.4, 119.1L369.4, 96.3C369.4, 53.5 326.6, 23.5 287.1, 39.8C267.3, -14.4 192.7, -12.4 174.6, 40.6C136.2, 24.8 92.8, 53.4 92.8, 96.5L92.8, 242.2C72.5, 228.5 45.2, 228.3 24.4, 243.7C-2.2, 263.3 -8, 300.8 11.3, 327.6L136.3, 502C140.8, 508.3 148.1, 512 155.8, 512L388, 512C399.2, 512 408.9, 504.3 411.4, 493.4L442.8, 357.8C446.2, 343 448, 327.8 448, 312.5L448, 176.2C448, 134.7 407.4, 106.1 369.4, 119.1zM416, 312.5C416, 325.3 414.5, 338.1 411.6, 350.5L381.6, 479.9L159.9, 479.9L37.3, 308.9C28.3, 296.3 31, 278.5 43.4, 269.4C55.7, 260.3 73, 263 82, 275.6L110.3, 315C114.8, 321.3 124.8, 318.1 124.8, 310.3L124.8, 96.5C124.8, 58.5 180.2, 59.6 180.2, 97.2L180.2, 256C180.2, 260.4 183.8, 264 188.2, 264L195.3, 264C199.7, 264 203.3, 260.4 203.3, 256L203.3, 60.2C203.3, 22.2 258.7, 23.3 258.7, 60.9L258.7, 255.9C258.7, 260.3 262.3, 263.9 266.7, 263.9L273.8, 263.9C278.2, 263.9 281.8, 260.3 281.8, 255.9L281.8, 95.6C281.8, 57.6 337.2, 58.7 337.2, 96.3L337.2, 256C337.2, 260.4 340.8, 264 345.2, 264L352.3, 264C356.7, 264 360.3, 260.4 360.3, 256L360.3, 177C360.3, 139.4 415.7, 138.2 415.7, 176.3L415.7, 312.5z" fill="#727272" fill-opacity="1" class="Black" />
  </g>
</svg>