<?xml version='1.0' encoding='UTF-8'?>
<svg viewBox="-1.9998 -3.5538 31.9975 32" xmlns="http://www.w3.org/2000/svg">
  <g transform="matrix(0.0486, 0, 0, 0.0486, 0, 0)">
    <path d="M558.3, 333.6C548.7, 325 536.2, 320.2 523.1, 320.2C510.6, 320.2 498.3, 324.5 488.5, 332.4L426.9, 381.7C425, 383.2 422.7, 384 420.2, 384L378.6, 384C383.2, 374.4 385.1, 363.3 383.4, 351.7C379.4, 323.8 353.8, 304 325.6, 304L181.3, 304C160.5, 304 140.3, 310.7 123.7, 323.2L85.3, 352L8, 352C3.6, 352 0, 355.6 0, 360L0, 376C0, 380.4 3.6, 384 8, 384L96, 384L142.9, 348.8C154, 340.5 167.5, 336 181.3, 336L328, 336C341.3, 336 352, 346.7 352, 360C352, 373.3 341.3, 384 328, 384L240, 384C231.2, 384 224, 391.2 224, 400C224, 408.8 231.2, 416 240, 416L420.2, 416C429.9, 416 439.3, 412.7 446.9, 406.7L508.5, 357.5C512.7, 354.1 518, 352.3 523.1, 352.3C528.1, 352.3 533, 354 536.9, 357.5C547, 366.6 546.2, 382 536, 390.1L435.2, 470.8C427.6, 476.9 418.2, 480.1 408.5, 480.1L8, 480.1C3.6, 480.1 0, 483.7 0, 488.1L0, 504.1C0, 508.5 3.6, 512.1 8, 512.1L408.5, 512.1C425.5, 512.1 441.9, 506.3 455.1, 495.7L556, 415C568.2, 405.2 575.5, 390.6 576, 375C576.5, 359.4 570, 344.2 558.3, 333.6zM288, 256C341, 256 384, 213.9 384, 162C384, 122 326.9, 41.3 300.8, 6.4C297.6, 2.1 292.8, 0 288, 0C283.2, 0 278.4, 2.1 275.2, 6.4C249.1, 41.3 192, 122 192, 162C192, 213.9 235, 256 288, 256zM288, 43C332.1, 104.4 352, 146.5 352, 162C352, 196.2 323.3, 224 288, 224C252.7, 224 224, 196.2 224, 162C224, 146.5 243.9, 104.4 288, 43z" fill="#727272" fill-opacity="1" class="Black" />
  </g>
</svg>