<?xml version='1.0' encoding='UTF-8'?>
<svg viewBox="-3.7483 -2 32 32" xmlns="http://www.w3.org/2000/svg">
  <g transform="matrix(0.0547, 0, 0, 0.0547, 0, 0)">
    <path d="M363.642, 201.124C350.572, 173.508 319.261, 160.269 290.867, 169.827L290.867, 67.5C290.867, 30.28 260.876, 0 224.012, 0C187.148, 0 157.157, 30.28 157.157, 67.5L160, 176L129.148, 86.432C115.645, 51.546 76.664, 34.523 42.319, 48.22C8.02, 61.896 -8.796, 100.93 4.609, 135.568L65.068, 291.78C35.907, 315.46 15.735, 343.327 36.385, 380.008L93.524, 481.508C104.112, 500.316 124.007, 512 145.445, 512L359.718, 512C373.182, 512 386.397, 507.338 396.928, 498.872C407.383, 490.467 414.817, 478.606 417.861, 465.472L446.431, 342.222A60.856 60.856 0 0 0 448, 328.5L448, 256C448, 212.126 402.864, 183.12 363.642, 201.124zM71.039, 328.153L98.796, 305.613A8.002 8.002 0 0 0 101.214, 296.515L34.453, 124.019C17.447, 80.08 82.438, 54.403 99.305, 97.981L161.579, 258.887A8 8 0 0 0 169.04, 263.999L181.157, 263.999A8 8 0 0 0 189.157, 255.999L189.157, 67.5C189.157, 20.571 258.866, 20.479 258.866, 67.5L258.866, 256A8 8 0 0 0 266.866, 264L274.009, 264A8 8 0 0 0 282.009, 256L282.009, 227C282.009, 189.649 337.434, 189.59 337.434, 227L337.434, 256A8 8 0 0 0 345.434, 264L352.577, 264A8 8 0 0 0 360.577, 256C360.577, 218.65 416.001, 218.59 416.001, 256L416.001, 328.5C416.001, 330.686 415.751, 332.871 415.259, 334.996L386.689, 458.246C383.72, 471.055 372.629, 480 359.719, 480L145.445, 480C135.547, 480 126.337, 474.563 121.41, 465.811L64.27, 364.311C57.407, 352.119 60.254, 336.913 71.039, 328.153z" fill="#727272" fill-opacity="1" class="Black" />
  </g>
</svg>