<?xml version='1.0' encoding='UTF-8'?>
<svg viewBox="-2 -4.799 32 32" xmlns="http://www.w3.org/2000/svg">
  <g transform="matrix(1.001, 0, 0, 1.001, 0, 0)">
    <g transform="matrix(0.0437, 0, 0, 0.0437, 0, 0)">
      <path d="M439.2, 105.6L342.9, 9.3C336.7, 3.1 328.6, 0 320.5, 0C312.4, 0 304.3, 3.1 298.1, 9.3L201.7, 105.7C189.4, 118 189.4, 138.1 201.7, 150.4L298.1, 246.8C304.3, 253 312.4, 256.1 320.5, 256.1C328.6, 256.1 336.7, 253 342.9, 246.8L439.3, 150.4C451.6, 138 451.6, 118 439.2, 105.6zM320.5, 224.4L224.1, 128L320.4, 31.6L416.8, 128L320.5, 224.4zM220, 248.8C206, 229.6 170.9, 217.4 145.5, 244.9C129.9, 261.7 129.6, 287.7 143, 306.2L171.6, 345.5C178.1, 354.4 165.1, 364.6 158, 356.2L96, 282.9L96, 145.8C96, 119.8 74.8, 96.5 48.8, 96.1C21.9, 95.6 0, 117.2 0, 144L0, 314.4C0, 325.3 3.7, 335.9 10.5, 344.4L117.5, 478.1C122.9, 484.9 126.4, 495.6 127.6, 505.1C128.1, 509.1 131.6, 512 135.6, 512L151.6, 512C156.4, 512 160.1, 508.1 159.6, 503.3C158, 487.3 152.1, 470 142.5, 458.1L35.5, 324.4C33.2, 321.6 32, 318 32, 314.4L32, 144C32, 123 64, 122.4 64, 144.7L64, 294.4L128.6, 371.9C165.5, 416.1 225.4, 369.2 199.4, 329.5C199.2, 329.2 199, 329 198.9, 328.7L168.3, 286.5C163.6, 280 164.1, 269.8 171.8, 264.2C178.8, 259.1 188.9, 260.4 194.2, 267.7L236.6, 326.1C249.3, 343 256.1, 363.5 256.1, 384.1L256.1, 504.1C256.1, 508.5 259.7, 512.1 264.1, 512.1L280.1, 512.1C284.5, 512.1 288.1, 508.5 288.1, 504.1L288.1, 384.1C288.1, 356.4 279.1, 329.5 262.5, 307.3L220, 248.8zM640, 144C640, 117.2 618.1, 95.6 591.2, 96C565.2, 96.4 544, 119.7 544, 145.7L544, 282.8L482, 356.1C474.9, 364.5 461.9, 354.4 468.4, 345.4L497, 306.1C510.4, 287.6 510.1, 261.5 494.5, 244.8C469, 217.4 433.9, 229.5 420, 248.7L377.6, 307.1C361, 329.3 352, 356.3 352, 384L352, 504C352, 508.4 355.6, 512 360, 512L376, 512C380.4, 512 384, 508.4 384, 504L384, 384C384, 363.4 390.8, 342.9 403.5, 326L445.9, 267.6C451.2, 260.3 461.2, 258.9 468.3, 264.1C476.1, 269.7 476.6, 279.9 471.8, 286.4L441.2, 328.6C441, 328.9 440.8, 329.1 440.7, 329.4C414.6, 369.1 474.6, 416.1 511.5, 371.8L576.1, 294.3L576.1, 144.6C576.1, 122.3 608.1, 122.9 608.1, 143.9L608.1, 314.3C608.1, 317.9 606.9, 321.5 604.6, 324.3L497.6, 458C488.1, 469.9 482.1, 487.2 480.5, 503.2C480, 508 483.7, 511.9 488.5, 511.9L504.5, 511.9C508.5, 511.9 512, 509 512.5, 505C513.7, 495.4 517.1, 484.8 522.6, 478L629.6, 344.3C636.4, 335.8 640.1, 325.2 640.1, 314.3L640, 144z" fill="#727272" fill-opacity="1" class="Black" />
    </g>
  </g>
</svg>