<?xml version='1.0' encoding='UTF-8'?>
<svg viewBox="-1.955 -1.9075 32 31.9975" xmlns="http://www.w3.org/2000/svg">
  <g transform="matrix(0.9993, 0, 0, 0.9993, 0, 0)">
    <g transform="matrix(0.0549, 0, 0, 0.0549, 0, 0)">
      <path d="M479.94, 312.94A63.91 63.91 0 0 0 431.47, 250.94L415.94, 247C415.94, 220.36 398.21, 202.08 376.71, 198.09C345.87, 192.36 345.28, 191.98 339.11, 191.98A50.84 50.84 0 0 0 320, 195.72L320, 64A64 64 0 0 0 192.06, 63.43C192.06, 63.64 191.97, 63.79 191.97, 64L191.97, 195.72A50.84 50.84 0 0 0 172.82, 192C166.43, 192 164.41, 192.67 142.29, 197.09A57.76 57.76 0 0 0 96, 253.57L96, 268.22L67.37, 282.53A63.66 63.66 0 0 0 32, 339.78L32, 402.78A63.58 63.58 0 0 0 50.75, 448L77.25, 474.51A127.15 127.15 0 0 0 167.75, 512L352, 512A128 128 0 0 0 480, 383.92zM352, 480L167.76, 480A96 96 0 0 1 99.88, 451.88L73.37, 425.37A32 32 0 0 1 64, 402.74L64, 339.74A32 32 0 0 1 81.69, 311.11L96, 304L96, 336A16 16 0 0 0 128, 336L128, 253.57A25.64 25.64 0 0 1 148.62, 228.46C168.07, 224.57 169.73, 224 172.83, 224A19.21 19.21 0 0 1 192, 243.21A12.79 12.79 0 0 0 204.77, 256L211.18, 256A12.79 12.79 0 0 0 224, 243.21L224, 65.37C224, 48.66 236.22, 33.73 252.86, 32.15A32 32 0 0 1 288, 64L288, 243.21A12.79 12.79 0 0 0 300.75, 256L307.16, 256A12.79 12.79 0 0 0 320, 243.21A19.21 19.21 0 0 1 339.11, 224C341.99, 224 342.42, 224.29 370.8, 229.56A16.06 16.06 0 0 1 383.94, 245.3L383.94, 272L423.7, 281.94A32 32 0 0 1 447.94, 312.94L448, 383.94A96 96 0 0 1 352, 480z" fill="#727272" fill-opacity="1" class="Black" />
    </g>
  </g>
</svg>