<?xml version='1.0' encoding='UTF-8'?>
<svg viewBox="-1.9999 -1.9974 32 31.9975" xmlns="http://www.w3.org/2000/svg">
  <g transform="matrix(0.0547, 0, 0, 0.0547, 0, 0)">
    <path d="M441.6, 147.2L319.809, 147.2C325.246, 135.011 329.6, 120.19 329.6, 102.4C329.6, 61.922 297.314, 32 256, 32C207.454, 32 198.2, 85.853 184.317, 108.315C173.255, 126.076 141.448, 165.384 123.398, 175.459C117.792, 166.194 107.62, 160 96, 160L32, 160C14.327, 160 0, 174.327 0, 192L0, 416C0, 433.673 14.327, 448 32, 448L96, 448C105.167, 448 113.428, 444.139 119.262, 437.962C153.911, 445.719 190.254, 480 244.364, 480L267.6, 480C327.206, 480 357.856, 443.916 356.231, 394.13C370.531, 377.022 377.51, 351.975 372.866, 328.636C380.095, 316.78 384.214, 303.241 384.751, 289.054C384.764, 288.703 384.775, 288.351 384.784, 288L441.6, 288C479.937, 288 512, 256.084 512, 217.6C512, 179.439 479.23, 147.2 441.6, 147.2zM32, 192L96, 192L96, 416L32, 416L32, 192zM441.6, 256L342.299, 256C356.303, 272.003 358.025, 302.718 336.899, 322.6C349.146, 344.031 338.74, 372.371 322.799, 381.1C329.915, 423.785 311.806, 448 267.598, 448L244.362, 448C200.025, 448 167.678, 416.733 127.998, 407.139L127.998, 208.462C157.833, 197.756 196.902, 148.644 211.498, 125.2C227.296, 99.686 232, 64 256, 64C280, 64 297.6, 80 297.6, 102.4C297.6, 140.8 268.8, 160.3 268.8, 179.2L441.6, 179.2C461.7, 179.2 480, 197.2 480, 217.6C480, 238.3 462.3, 256 441.6, 256zM84, 384C84, 395.046 75.046, 404 64, 404C52.954, 404 44, 395.046 44, 384C44, 372.954 52.954, 364 64, 364C75.046, 364 84, 372.954 84, 384z" fill="#727272" fill-opacity="1" class="Black" />
  </g>
</svg>