<?xml version='1.0' encoding='UTF-8'?>
<svg viewBox="-2 -3.554 32 32" xmlns="http://www.w3.org/2000/svg">
  <g transform="matrix(0.0486, 0, 0, 0.0486, 0, 0)">
    <path d="M558.232, 297.931L406.298, 61.41C394.468, 42.994 374.338, 32 352.45, 32L48, 32C21.532, 32 0, 53.532 0, 80L0, 88C0, 127.701 32.299, 160 72, 160L288.103, 160L264.914, 218.93A7.954 7.954 0 0 1 257.47, 224L144, 224C99.888, 224 64, 259.888 64, 304C64, 330.468 85.532, 352 112, 352L237.848, 352A31.98 31.98 0 0 1 254.67, 356.778L348.206, 414.577A7.948 7.948 0 0 1 352, 421.382L352, 480L576, 480L576, 358.463C576, 336.957 569.856, 316.024 558.232, 297.931zM544, 448L384, 448L384, 421.382C384, 407.416 376.907, 394.695 365.027, 387.355L271.49, 329.556A63.96 63.96 0 0 0 237.847, 320L112, 320C103.178, 320 96, 312.822 96, 304C96, 277.532 117.532, 256 144, 256L257.469, 256C274.02, 256 288.63, 246.048 294.691, 230.647L320.031, 166.253C327.258, 147.891 313.697, 127.999 293.976, 127.999L72, 127.999C49.944, 127.999 32, 110.055 32, 87.999L32, 79.999C32, 71.177 39.178, 63.999 48, 63.999L352.45, 63.999C363.393, 63.999 373.459, 69.496 379.374, 78.704L531.309, 315.225A79.854 79.854 0 0 1 544, 358.463L544, 448z" fill="#727272" fill-opacity="1" class="Black" />
  </g>
</svg>