<?xml version='1.0' encoding='UTF-8'?>
<svg viewBox="-1.9998 -3.55 31.9975 32" xmlns="http://www.w3.org/2000/svg">
  <g transform="matrix(0.0486, 0, 0, 0.0486, 0, 0)">
    <path d="M558.3, 333.6C538.6, 315.9 508.9, 316 488.4, 332.4L426.8, 381.7C424.9, 383.2 422.6, 384 420.1, 384L378.5, 384C383.1, 374.4 385, 363.3 383.3, 351.7C379.3, 323.8 353.7, 304 325.5, 304L181.3, 304C160.5, 304 140.3, 310.7 123.7, 323.2L85.3, 352L8, 352C3.6, 352 0, 355.6 0, 360L0, 376C0, 380.4 3.6, 384 8, 384L96, 384L142.9, 348.8C154, 340.5 167.5, 336 181.3, 336L328, 336C341.3, 336 352, 346.7 352, 360C352, 373.3 341.3, 384 328, 384L240, 384C231.2, 384 224, 391.2 224, 400C224, 408.8 231.2, 416 240, 416L420.2, 416C429.9, 416 439.3, 412.7 446.9, 406.7L508.5, 357.5C516.2, 351.4 528.5, 349.9 536.9, 357.5C547, 366.6 546.2, 382 536, 390.1L435.2, 470.8C427.6, 476.9 418.2, 480.1 408.5, 480.1L8, 480.1C3.6, 480.1 0, 483.7 0, 488.1L0, 504.1C0, 508.5 3.6, 512.1 8, 512.1L408.5, 512.1C425.5, 512.1 441.9, 506.3 455.1, 495.7L556, 415C568.2, 405.2 575.5, 390.6 576, 375C576.5, 359.4 570, 344.2 558.3, 333.6zM275.3, 250.5C282.3, 257.9 293.7, 257.9 300.8, 250.5L409.7, 136.4C441.3, 103.2 439.5, 48.3 404.1, 17.7C368.8, -12.9 322.7, 0.7 299.2, 25.4L288, 37L276.9, 25.4C253.9, 1.3 207.6, -13.2 172, 17.7C136.7, 48.3 134.8, 103.3 166.4, 136.4L275.3, 250.5zM192.4, 41.9C213.2, 23.9 240.6, 33.2 254.3, 47.6L288, 82.9L321.7, 47.6C335.2, 33.5 362.7, 23.9 383.6, 41.9C407.4, 62.5 403.8, 96.4 387, 114L288, 217.8L189, 114C172.3, 96.6 168.7, 62.5 192.4, 41.9z" fill="#727272" fill-opacity="1" class="Black" />
  </g>
</svg>