<?xml version='1.0' encoding='UTF-8'?>
<svg viewBox="-1.9998 -3.5538 31.9975 32" xmlns="http://www.w3.org/2000/svg">
  <g transform="matrix(0.0486, 0, 0, 0.0486, 0, 0)">
    <path d="M248.9, 192L272, 192L272, 248C272, 252.4 275.6, 256 280, 256L296, 256C300.4, 256 304, 252.4 304, 248L304, 192L327.1, 192C411.4, 192 480, 113 480, 16L480, 0L424.9, 0C364.9, 0 313, 40.1 288, 98.1C263, 40.1 211.1, 0 151.1, 0L96, 0L96, 16C96, 113 164.6, 192 248.9, 192zM424.9, 32L447.3, 32C440.6, 103.9 389.3, 160 327.2, 160L304.8, 160C311.4, 88.1 362.8, 32 424.9, 32zM151.1, 32C213.2, 32 264.5, 88.1 271.2, 160L248.8, 160C186.7, 160 135.4, 103.9 128.7, 32L151.1, 32zM558.3, 333.6C548.7, 325 536.2, 320.2 523.1, 320.2C510.6, 320.2 498.3, 324.5 488.5, 332.4L426.9, 381.7C425, 383.2 422.7, 384 420.2, 384L378.6, 384C383.2, 374.4 385.1, 363.3 383.4, 351.7C379.4, 323.8 353.8, 304 325.6, 304L181.3, 304C160.5, 304 140.3, 310.7 123.7, 323.2L85.3, 352L8, 352C3.6, 352 0, 355.6 0, 360L0, 376C0, 380.4 3.6, 384 8, 384L96, 384L142.9, 348.8C154, 340.5 167.5, 336 181.3, 336L328, 336C341.3, 336 352, 346.7 352, 360C352, 373.3 341.3, 384 328, 384L240, 384C231.2, 384 224, 391.2 224, 400C224, 408.8 231.2, 416 240, 416L420.2, 416C429.9, 416 439.3, 412.7 446.9, 406.7L508.5, 357.5C512.7, 354.1 518, 352.3 523.1, 352.3C528.1, 352.3 533, 354 536.9, 357.5C547, 366.6 546.2, 382 536, 390.1L435.2, 470.8C427.6, 476.9 418.2, 480.1 408.5, 480.1L8, 480.1C3.6, 480.1 0, 483.7 0, 488.1L0, 504.1C0, 508.5 3.6, 512.1 8, 512.1L408.5, 512.1C425.5, 512.1 441.9, 506.3 455.1, 495.7L556, 415C568.2, 405.2 575.5, 390.6 576, 375C576.5, 359.4 570, 344.2 558.3, 333.6z" fill="#727272" fill-opacity="1" class="Black" />
  </g>
</svg>