<?xml version='1.0' encoding='UTF-8'?>
<svg viewBox="-2 -1.9988 32 32" xmlns="http://www.w3.org/2000/svg">
  <g transform="matrix(0.0547, 0, 0, 0.0547, 0, 0)">
    <path d="M0, 217.6C0, 256.084 32.063, 288 70.4, 288L127.217, 288C127.226, 288.351 127.237, 288.703 127.25, 289.054C127.786, 303.241 131.905, 316.781 139.135, 328.636C134.491, 351.975 141.47, 377.022 155.77, 394.13C154.145, 443.916 184.796, 480 244.401, 480L267.637, 480C321.747, 480 358.089, 445.719 392.739, 437.962C398.572, 444.139 406.833, 448 416, 448L480, 448C497.673, 448 512, 433.673 512, 416L512, 192C512, 174.327 497.673, 160 480, 160L416, 160C404.38, 160 394.208, 166.194 388.603, 175.459C370.552, 165.384 338.745, 126.075 327.684, 108.315C313.8, 85.853 304.546, 32 256, 32C214.687, 32 182.4, 61.922 182.4, 102.4C182.4, 120.19 186.754, 135.011 192.191, 147.2L70.4, 147.2C32.77, 147.2 0, 179.439 0, 217.6zM480, 416L416, 416L416, 192L480, 192L480, 416zM32, 217.6C32, 197.2 50.3, 179.2 70.4, 179.2L243.2, 179.2C243.2, 160.3 214.4, 140.8 214.4, 102.4C214.4, 80 232, 64 256, 64C280, 64 284.704, 99.686 300.5, 125.2C315.095, 148.643 354.165, 197.756 384, 208.462L384, 407.139C344.32, 416.733 311.974, 448 267.636, 448L244.4, 448C200.192, 448 182.083, 423.785 189.199, 381.1C173.259, 372.372 162.852, 344.032 175.099, 322.6C153.974, 302.718 155.695, 272.003 169.699, 256L70.4, 256C49.7, 256 32, 238.3 32, 217.6zM448, 364C459.046, 364 468, 372.954 468, 384C468, 395.046 459.046, 404 448, 404C436.954, 404 428, 395.046 428, 384C428, 372.954 436.954, 364 448, 364z" fill="#727272" fill-opacity="1" class="Black" />
  </g>
</svg>