<?xml version='1.0' encoding='UTF-8'?>
<svg viewBox="-1.9988 0 32 32" xmlns="http://www.w3.org/2000/svg">
  <g transform="matrix(0.0625, 0, 0, 0.0625, 0, 0)">
    <path d="M446.381, 182.109L447.81, 174.109C449.123, 166.754 443.468, 160 435.997, 160L337.396, 160L357.734, 46.109C359.047, 38.754 353.392, 32 345.92, 32L337.793, 32A12 12 0 0 0 325.98, 41.891L304.89, 160L177.396, 160L197.734, 46.109C199.047, 38.754 193.392, 32 185.92, 32L177.793, 32A12 12 0 0 0 165.98, 41.891L144.89, 160L42.003, 160A12 12 0 0 0 30.19, 169.891L28.761, 177.891C27.448, 185.246 33.103, 192 40.575, 192L139.175, 192L116.318, 320L13.432, 320A12 12 0 0 0 1.619, 329.891L0.19, 337.891C-1.123, 345.246 4.532, 352 12.003, 352L110.604, 352L90.266, 465.891C88.953, 473.246 94.608, 480 102.08, 480L110.207, 480A12 12 0 0 0 122.02, 470.109L143.11, 352L270.604, 352L250.266, 465.891C248.953, 473.246 254.608, 480 262.08, 480L270.207, 480A12 12 0 0 0 282.02, 470.109L303.11, 352L405.996, 352A12 12 0 0 0 417.809, 342.109L419.238, 334.109C420.551, 326.754 414.896, 320 407.425, 320L308.824, 320L331.681, 192L434.567, 192A12 12 0 0 0 446.381, 182.109zM276.318, 320L148.825, 320L171.682, 192L299.176, 192L276.318, 320z" fill="#727272" fill-opacity="1" class="Black" />
  </g>
</svg>