<?xml version='1.0' encoding='UTF-8'?>
<svg viewBox="-1.9975 -4.0977 32 32" xmlns="http://www.w3.org/2000/svg">
  <g transform="matrix(0.9989, 0, 0, 0.9989, 0, 0)">
    <g transform="matrix(0.0438, 0, 0, 0.0438, 0, 0)">
      <path d="M626.38, 258.52A26.15 26.15 0 0 0 615.45, 256.16A25.84 25.84 0 0 0 595.07, 265.77C594.7, 266.25 571.79, 296.62 509.13, 321.19C498.86, 250.73 465.52, 64 400.33, 64C384.77, 64 370.89, 71.41 359.22, 81.45A59.08 59.08 0 0 1 280.79, 81.45C269.12, 71.41 255.24, 64 239.68, 64C174.37, 64 141.1, 251 130.9, 321.18C68.82, 296.84 45.74, 266.8 44.9, 265.8A25.39 25.39 0 0 0 24.6, 256A26.35 26.35 0 0 0 13.82, 258.29C2.73, 263.22 -2.62, 274.85 1.26, 285.5C2, 287.44 75.36, 480 320, 480C564.64, 480 638, 287.44 638.75, 285.5C642.6, 274.94 637.28, 263.52 626.38, 258.52zM239.68, 96C245.63, 96 252.44, 99.27 259.93, 105.71A91.05 91.05 0 0 0 380.08, 105.71C387.57, 99.27 394.38, 96 400.33, 96C414.25, 96 443.67, 149.8 465.62, 256.79C427.62, 266.79 380.24, 273.94 320.01, 273.94C259.78, 273.94 212.43, 266.75 174.39, 256.77C196.34, 149.79 225.76, 96 239.68, 96zM168.44, 288.45C208.69, 298.74 258.12, 305.94 320.01, 305.94C381.63, 305.94 431.27, 298.79 471.58, 288.51C473.97, 302.28 476.28, 316.51 478.36, 331.79C438.49, 343.47 386.64, 352 320, 352C253.36, 352 201.52, 343.45 161.64, 331.76C163.74, 316.51 166, 302.22 168.44, 288.45zM320, 448C169.08, 448 90.46, 369.21 55.22, 317.77C96.68, 347 177.31, 384 320, 384C462.69, 384 543.72, 346.47 584.91, 317.52C549.66, 369.09 471, 448 320, 448z" fill="#727272" fill-opacity="1" class="Black" />
    </g>
  </g>
</svg>