<?xml version='1.0' encoding='UTF-8'?>
<svg viewBox="-2 -1.9988 32 32" xmlns="http://www.w3.org/2000/svg">
  <g transform="matrix(0.0547, 0, 0, 0.0547, 0, 0)">
    <path d="M489.9, 386C478.1, 312.6 442.5, 192.5 335.8, 128.6L335.8, 127.9C345.8, 120.1 352, 108.1 352, 94.8C352, 81.5 345.9, 69.6 335.8, 61.7C337.4, 49 333.2, 36.2 323.8, 26.9C314.4, 17.6 301.6, 13.5 289, 15C273.4, -5 238.6, -5 222.9, 15.1C210.3, 13.7 197.5, 17.7 188.1, 27C178.7, 36.4 174.6, 49.2 176.1, 61.8C166.1, 69.6 159.9, 81.6 159.9, 94.9C159.9, 108.2 166, 120.1 176.1, 128L176.1, 128.7C69.5, 192.5 33.9, 312.6 22.1, 386C9.3, 390.2 0, 401.8 0, 416L0, 480C0, 497.7 14.3, 512 32, 512L480, 512C497.7, 512 512, 497.7 512, 480L512, 416C512, 401.8 502.7, 390.2 489.9, 386zM456.8, 384L55.2, 384C57.8, 369.6 61.2, 353.9 66, 336.9L128, 305.9L192, 337.9L256, 305.9L320, 337.9L384, 305.9L446, 336.9C450.8, 353.9 454.3, 369.6 456.8, 384zM199.8, 85.1L218.8, 79.5L209.4, 62.1C207.6, 58.8 206.9, 53.6 210.8, 49.7C214.7, 45.7 220, 46.5 223.3, 48.2L240.7, 57.6L246.3, 38.6C247.5, 34.7 250.9, 30.8 256.1, 30.8C261.3, 30.8 264.8, 34.7 265.9, 38.6L271.5, 57.6L288.9, 48.2C292.2, 46.4 297.4, 45.7 301.4, 49.7C305.3, 53.6 304.6, 58.8 302.8, 62.1L293.4, 79.5L312.4, 85.1C316.3, 86.2 320.2, 89.7 320.2, 94.9C320.2, 100.1 316.3, 103.6 312.4, 104.7L293.4, 110.3L302.8, 127.7C304.6, 131 305.3, 136.2 301.4, 140.1C298.5, 143 295.8, 145.3 288.9, 141.6L271.5, 132.1L265.9, 151.1C264.7, 155 261.3, 158.9 256.1, 158.9C250.9, 158.9 247.4, 155 246.3, 151.1L240.7, 132.1L223.3, 141.6C216.4, 145.4 213.7, 143 210.8, 140.1C206.9, 136.2 207.6, 131 209.4, 127.7L218.8, 110.3L199.8, 104.7C195.9, 103.6 192, 100.1 192, 94.9C192, 89.7 195.9, 86.2 199.8, 85.1zM186.5, 160.7C187.1, 161.4 187.5, 162.2 188.2, 162.8C197.4, 172 210.2, 176.5 223.2, 175C231, 184.9 242.9, 190.9 256.1, 190.9C269.3, 190.9 281.2, 184.9 289, 175C302, 176.6 314.8, 172 324, 162.8C324.7, 162.1 325.1, 161.4 325.7, 160.7C378.1, 194.5 410.8, 244.3 430.9, 293.5L384, 270.1L320, 302.1L256, 270.1L192, 302.1L128, 270.1L81.3, 293.5C101.4, 244.3 134, 194.5 186.5, 160.7zM480, 480L32, 480L32, 416L480, 416L480, 480z" fill="#727272" fill-opacity="1" class="Black" />
  </g>
</svg>