<?xml version='1.0' encoding='UTF-8'?>
<svg viewBox="-2 -2 32 32" xmlns="http://www.w3.org/2000/svg">
  <g transform="matrix(0.0547, 0, 0, 0.0547, 0, 0)">
    <path d="M288, 192L272, 160L256, 192L224, 208L256, 224L272, 256L288, 224L320, 208L288, 192zM504, 480L480, 480L379.18, 247.34A73.068 73.068 0 0 1 376.97, 194.9L442.67, 0L223.83, 123.68C196.22, 139.28 174.37, 163.19 161.46, 191.93L32, 480L8, 480C3.58, 480 0, 483.58 0, 488L0, 504C0, 508.42 3.58, 512 8, 512L504, 512C508.42, 512 512, 508.42 512, 504L512, 488C512, 483.58 508.42, 480 504, 480zM67.08, 480L98.8, 409.4L154.66, 437.33L176, 480L67.08, 480zM192, 440.45L178.52, 413.48L151.55, 400L178.51, 386.52L192, 359.55L205.48, 386.51L232.45, 400L205.49, 413.48L192, 440.45zM208, 480L229.33, 437.33L304, 400L229.33, 362.67L192, 288L154.67, 362.67L109.71, 385.15L190.65, 205.04C200.84, 182.37 217.76, 163.86 239.58, 151.53L385.66, 68.98L346.66, 184.68C338.34, 209.37 339.46, 236.15 349.83, 260.06L373.53, 314.76L352, 304L336, 272L320, 304L288, 320L320, 336L336, 368L352, 336L377.26, 323.37L445.12, 480L208, 480z" fill="#727272" fill-opacity="1" class="Black" />
  </g>
</svg>