<?xml version='1.0' encoding='UTF-8'?>
<svg viewBox="-1.9974 -3.554 32 32" xmlns="http://www.w3.org/2000/svg">
  <g transform="matrix(0.0486, 0, 0, 0.0486, 0, 0)">
    <path d="M573.99, 439.89L563.5, 427.86C560.67, 424.61 555.85, 424.31 552.53, 427.06C537.16, 439.76 519.97, 449.54 502.11, 457.81L393.59, 214.36A64.009 64.009 0 0 1 391.7, 168.91L398.05, 149.87C402.4, 136.81 414.62, 128 428.4, 128L467.6, 128C481.37, 128 493.6, 136.81 497.96, 149.88L512, 192L542.36, 114.76C546.19, 103.26 543.2, 90.58 534.63, 82.01L465.28, 9.37A31.974 31.974 0 0 0 442.64, 0C437.21, 0 431.74, 1.38 426.77, 4.22L260.43, 107.18A128.004 128.004 0 0 0 206.96, 166.33L74.07, 457.89C56.14, 449.61 38.89, 439.8 23.46, 427.05C20.14, 424.31 15.32, 424.6 12.49, 427.85L2.01, 439.89C-0.95, 443.28 -0.61, 448.57 2.85, 451.44C50.01, 490.55 109.39, 512 170.92, 512L405.08, 512C466.61, 512 525.98, 490.55 573.15, 451.44C576.61, 448.57 576.95, 443.29 573.99, 439.89zM236.21, 179.33C244.57, 160.52 258.44, 145.18 277.28, 134.39L442.65, 32.01L511.97, 104.61L509.29, 111.42A63.876 63.876 0 0 0 467.6, 96L428.4, 96A63.913 63.913 0 0 0 367.69, 139.76L361.34, 158.8C353.9, 181.13 354.9, 205.34 364.36, 227.4L446.71, 412.13C433.29, 414.47 419.7, 416.01 405.88, 416.01L352, 416.01L352, 412.01C352, 396.57 339.44, 384.01 324, 384.01L252, 384.01C236.56, 384.01 224, 396.57 224, 412.01L224, 416.01L170.13, 416.01C156.57, 416.01 143.22, 414.56 130.03, 412.3L236.21, 179.33zM103.99, 469.41L116.51, 441.94C134.09, 445.53 151.93, 448 170.12, 448L224, 448L224, 480L170.92, 480C147.96, 480 125.58, 475.93 103.99, 469.41zM256, 480L256, 416L320, 416L320, 480L256, 480zM352, 480L352, 448L405.87, 448C424.22, 448 442.21, 445.48 459.94, 441.83L472.21, 469.35C450.57, 475.91 428.1, 480 405.07, 480L352, 480z" fill="#727272" fill-opacity="1" class="Black" />
  </g>
</svg>