<?xml version='1.0' encoding='UTF-8'?>
<svg viewBox="-1.9975 -4.0977 32 32" xmlns="http://www.w3.org/2000/svg">
  <g transform="matrix(0.9989, 0, 0, 0.9989, 0, 0)">
    <g transform="matrix(0.0438, 0, 0, 0.0438, 0, 0)">
      <path d="M638.22, 392.71C619, 303.11 560.09, 240.26 487.52, 227.19L468.4, 117.19A64 64 0 0 0 405.4, 63.99C396.04, 63.99 408.63, 61.88 200.85, 105.99A64 64 0 0 0 150.5, 161.77L143.31, 228.92C75, 245.51 20.17, 306.91 1.76, 392.74C-2.65, 413.5 1.32, 435.19 12.66, 452.23C24.44, 469.88 42.38, 480 61.88, 480L578.13, 480C597.6, 480 615.54, 469.88 627.32, 452.25C638.69, 435.21 642.66, 413.5 638.22, 392.71zM182.31, 165.17A31.92 31.92 0 0 1 207.48, 137.28L398.67, 96.73C418.04, 92.63 434.03, 106.16 436.87, 122.73L465.62, 288L316.29, 288L286.79, 262.58C237.79, 223.35 191.48, 223.99 175.96, 224.44zM61.88, 448C41.24, 448 28.22, 422.19 33, 399.45C51.45, 313.65 110.66, 256 180.38, 256C211.14, 256 241.01, 266.91 265.9, 286.82C445.63, 441.68 429.43, 431.65 453.76, 448zM385.26, 347.43L353.43, 320L471.18, 320L490.71, 432.31C457.77, 416.5 433, 388.55 385.26, 347.43zM578.13, 448C572.72, 448 548.67, 448.33 525.13, 443.62L493.43, 261.32C547.86, 276.58 591.56, 328.01 606.88, 399.42C612.57, 425.77 595.88, 448 578.13, 448z" fill="#727272" fill-opacity="1" class="Black" />
    </g>
  </g>
</svg>