<?xml version='1.0' encoding='UTF-8'?>
<svg viewBox="-2 -4.7983 32 32" xmlns="http://www.w3.org/2000/svg">
  <g transform="matrix(0.9989, 0, 0, 0.9989, 0, 0)">
    <g transform="matrix(0.0438, 0, 0, 0.0438, 0, 0)">
      <path d="M627.2, 189.5C626.3, 177.2 621.1, 165.3 611.9, 156.1C602.9, 147.1 591.2, 141.7 578.6, 140.8C569.3, 132.7 557.1, 128 544.1, 128C531.1, 128 518.9, 132.7 509.6, 140.8C505.3, 141.1 501.3, 142.6 497.3, 144C419.7, 65.6 379.9, 32 305.2, 32C236.6, 32 174.8, 73.2 148.4, 136.5L58.7, 352L48, 352C21.5, 352 0, 373.5 0, 400L0, 432C0, 458.5 21.5, 480 48, 480L464, 480C490.5, 480 512, 458.5 512, 432L512, 400C512, 373.5 490.5, 352 464, 352L452.6, 352L391.6, 209.8C389.2, 204.3 393.5, 198.6 398.9, 198.6C399.9, 198.6 400.9, 198.8 401.9, 199.2L449, 218.1C448.8, 220.1 447.9, 222 447.9, 224.1C447.9, 237.2 452.6, 249.2 460.7, 258.6C461.6, 270.9 466.8, 282.8 476, 292C485.1, 301.1 496.9, 306.5 509.6, 307.5C518.9, 315.5 530.9, 320.2 543.9, 320.2C556.9, 320.2 568.9, 315.5 578.2, 307.5C590.9, 306.5 602.7, 301.1 611.8, 292C621, 282.8 626.2, 270.9 627.1, 258.6C635.2, 249.3 639.9, 237.2 639.9, 224.1C639.9, 211 635.3, 198.9 627.2, 189.5zM480, 400L480, 432C480, 440.8 472.8, 448 464, 448L48, 448C39.2, 448 32, 440.8 32, 432L32, 400C32, 391.2 39.2, 384 48, 384L464, 384C472.8, 384 480, 391.2 480, 400zM398.9, 166.6C385.4, 166.6 373, 173.3 365.5, 184.6C358.1, 195.8 356.8, 209.9 362.2, 222.3L417.8, 352L93.3, 352L178, 148.8C199.5, 97.3 249.4, 64 305.2, 64C366.5, 64 399.1, 90.6 471.1, 163.3C465.7, 170.9 461.9, 179.3 461, 188.4L413.7, 169.5C409, 167.5 404, 166.6 398.9, 166.6zM592.6, 244.1C597, 252.2 596.1, 262.4 589.2, 269.2C585, 273.4 579.6, 275.4 574.1, 275.4C570.6, 275.4 567.2, 274.2 564.1, 272.5C561.5, 281.3 553.6, 287.9 544, 287.9C534.4, 287.9 526.5, 281.3 523.9, 272.5C520.7, 274.2 517.4, 275.4 513.9, 275.4C508.4, 275.4 503, 273.3 498.8, 269.2C492, 262.4 491.1, 252.2 495.4, 244.1C486.6, 241.5 480, 233.6 480, 224C480, 214.4 486.6, 206.5 495.4, 203.9C491, 195.8 491.9, 185.6 498.8, 178.8C502.9, 174.7 508.1, 172.8 513.4, 172.8C517, 172.8 520.6, 173.7 523.9, 175.5C526.5, 166.7 534.4, 160.1 544, 160.1C553.6, 160.1 561.5, 166.7 564.1, 175.5C567.4, 173.7 571, 172.8 574.6, 172.8C579.9, 172.8 585.2, 174.8 589.2, 178.8C596, 185.6 597, 195.8 592.6, 203.9C601.4, 206.5 608, 214.4 608, 224C608, 233.6 601.4, 241.5 592.6, 244.1z" fill="#727272" fill-opacity="1" class="Black" />
    </g>
  </g>
</svg>