<?xml version='1.0' encoding='UTF-8'?>
<svg viewBox="0 0 32 32" xmlns="http://www.w3.org/2000/svg">
  <g transform="matrix(0.0625, 0, 0, 0.0625, 0, 0)">
    <path d="M416, 64L416, 448L472, 448A8 8 0 0 1 480, 456L480, 472A8 8 0 0 1 472, 480L328, 480A8 8 0 0 1 320, 472L320, 456A8 8 0 0 1 328, 448L384, 448L384, 272L128, 272L128, 448L184, 448A8 8 0 0 1 192, 456L192, 472A8 8 0 0 1 184, 480L40, 480A8 8 0 0 1 32, 472L32, 456A8 8 0 0 1 40, 448L96, 448L96, 64L40, 64A8 8 0 0 1 32, 56L32, 40A8 8 0 0 1 40, 32L184, 32A8 8 0 0 1 192, 40L192, 56A8 8 0 0 1 184, 64L128, 64L128, 240L384, 240L384, 64L328, 64A8 8 0 0 1 320, 56L320, 40A8 8 0 0 1 328, 32L472, 32A8 8 0 0 1 480, 40L480, 56A8 8 0 0 1 472, 64z" fill="#727272" fill-opacity="1" class="Black" />
  </g>
</svg>