<?xml version='1.0' encoding='UTF-8'?>
<svg viewBox="-2 -1.9988 32 32" xmlns="http://www.w3.org/2000/svg">
  <g transform="matrix(0.0547, 0, 0, 0.0547, 0, 0)">
    <path d="M256, 32C114.517, 32 0, 146.497 0, 288L0, 339.429A16.003 16.003 0 0 0 8.213, 353.407L32.017, 366.669C32.012, 367.112 32, 367.555 32, 368C32, 429.856 82.144, 480 144, 480L168, 480C181.255, 480 192, 469.255 192, 456L192, 280C192, 266.745 181.255, 256 168, 256L144, 256C94.325, 256 52.21, 288.343 37.547, 333.118L32, 330.027L32, 288C32, 164.205 132.184, 64 256, 64C379.796, 64 480, 164.184 480, 288L480, 330.027L474.453, 333.117C459.79, 288.343 417.676, 256 368, 256L344, 256C330.745, 256 320, 266.745 320, 280L320, 456C320, 469.255 330.745, 480 344, 480L368, 480C429.856, 480 480, 429.856 480, 368C480, 367.555 479.988, 367.112 479.983, 366.668L503.787, 353.406A16.002 16.002 0 0 0 512, 339.428L512, 288C512, 146.518 397.503, 32 256, 32zM144, 288L160, 288L160, 448L144, 448C99.888, 448 64, 412.112 64, 368C64, 323.888 99.888, 288 144, 288zM368, 448L352, 448L352, 288L368, 288C412.112, 288 448, 323.888 448, 368C448, 412.112 412.112, 448 368, 448z" fill="#727272" fill-opacity="1" class="Black" />
  </g>
</svg>