<?xml version='1.0' encoding='UTF-8'?>
<svg viewBox="-2 -1.9988 32 32" xmlns="http://www.w3.org/2000/svg">
  <g transform="matrix(0.0547, 0, 0, 0.0547, 0, 0)">
    <path d="M384, 288L352, 288C334.33, 288 320, 302.35 320, 320.06L320, 447.94C320, 465.64 334.33, 480 352, 480L384, 480C419.35, 480 448, 451.29 448, 415.88L448, 352.12C448, 316.71 419.35, 288 384, 288zM416, 415.88C416, 433.56 401.64, 447.94 384, 447.94L352, 447.94L352, 320.06L384, 320.06C401.64, 320.06 416, 334.44 416, 352.12L416, 415.88zM160, 288L128, 288C92.65, 288 64, 316.71 64, 352.12L64, 415.88C64, 451.29 92.65, 480 128, 480L160, 480C177.67, 480 192, 465.65 192, 447.94L192, 320.06C192, 302.35 177.67, 288 160, 288zM160, 447.94L128, 447.94C110.36, 447.94 96, 433.56 96, 415.88L96, 352.12C96, 334.44 110.36, 320.06 128, 320.06L160, 320.06L160, 447.94zM256, 32C114.84, 32 0, 146.85 0, 288L0, 408C0, 412.42 3.58, 416 8, 416L24, 416C28.42, 416 32, 412.42 32, 408L32, 288C32, 164.48 132.5, 64 256, 64C379.5, 64 480, 164.48 480, 288L480, 408C480, 412.42 483.58, 416 488, 416L504, 416C508.42, 416 512, 412.42 512, 408L512, 288C512, 146.85 397.16, 32 256, 32z" fill="#727272" fill-opacity="1" class="Black" />
  </g>
</svg>