<?xml version='1.0' encoding='UTF-8'?>
<svg viewBox="-2 -1.995 32 32" xmlns="http://www.w3.org/2000/svg">
  <g transform="matrix(0.0547, 0, 0, 0.0547, 0, 0)">
    <path d="M468.7, 76.5C423.6, 32.2 375, 32 362.3, 32C349.6, 32 300.8, 32.2 256, 76.4C211.3, 32.3 162.5, 32 149.7, 32C137, 32 88.3, 32.2 43.3, 76.5C15.4, 104 0, 140.7 0, 179.9C0, 214.1 12.3, 246 33.8, 272L154.6, 272L184.5, 200.2L241.4, 326.6C246.9, 338.9 264.3, 339.3 270.3, 327.2L320, 227.8L342.1, 272L478.1, 272C499.6, 246 511.9, 214.1 511.9, 179.9C512, 140.7 496.6, 104 468.7, 76.5zM462.5, 240L361.9, 240L334.3, 184.8C328.4, 173 311.6, 173 305.7, 184.8L256.8, 282.7L198.6, 153.4C192.8, 140.6 174.6, 140.9 169.2, 153.8L133.3, 240L49.5, 240C40.3, 225.4 6.9, 157.3 67.8, 97.3C90.4, 75.1 120, 64 149.7, 64C183.6, 64 204.2, 70.3 256, 121.3C311, 67.1 330.5, 64 362.3, 64C392, 64 421.6, 75.1 444.1, 97.3C505.1, 157.4 471.6, 225.5 462.5, 240zM268.7, 443.4C262.5, 449.5 252.5, 449.5 246.3, 443.4L108.9, 304L64, 304L223.9, 466.2C242.6, 484.7 272.5, 484.6 291.2, 466.2L448, 304L403.5, 304L268.7, 443.4z" fill="#727272" fill-opacity="1" class="Black" />
  </g>
</svg>