<?xml version='1.0' encoding='UTF-8'?>
<svg viewBox="-1.9999 -1.549 31.9975 32" xmlns="http://www.w3.org/2000/svg">
  <g transform="matrix(0.999, 0, 0, 0.999, 0, 0)">
    <g transform="matrix(0.0565, 0, 0, 0.0565, 0, 0)">
      <path d="M248, 8C111, 8 0, 119 0, 256C0, 393 111, 504 248, 504C385, 504 496, 393 496, 256C496, 119 385, 8 248, 8zM248, 472C128.9, 472 32, 375.1 32, 256C32, 136.9 128.9, 40 248, 40C367.1, 40 464, 136.9 464, 256C464, 375.1 367.1, 472 248, 472zM364, 153.6C322.1, 117.3 274.5, 145.2 259.1, 161.3L248, 172.9L236.9, 161.3C210.3, 133.4 164.4, 125.4 132, 153.6C96.7, 184.2 94.8, 239.2 126.4, 272.3L235.3, 386.4C242.3, 393.8 253.7, 393.8 260.8, 386.4L369.7, 272.3C401.2, 239.1 399.4, 184.2 364, 153.6zM347, 250.1L248, 353.9L149, 250.1C132.3, 232.6 128.6, 198.5 152.4, 178C174.6, 158.7 202.4, 171.2 214.3, 183.7L248, 219L281.7, 183.7C290.4, 174.5 319.2, 156.9 343.6, 178C367.4, 198.5 363.7, 232.5 347, 250.1z" fill="#727272" fill-opacity="1" class="Black" />
    </g>
  </g>
</svg>