<?xml version='1.0' encoding='UTF-8'?>
<svg viewBox="-1.9948 -2.0023 31.9975 32" xmlns="http://www.w3.org/2000/svg">
  <g transform="matrix(0.0547, 0, 0, 0.0547, 0, 0)">
    <path d="M473.7, 73.9C434.1, 32.7 389.9, 32.2 378.2, 32.2C349.5, 32.2 320.7, 41.6 296.9, 60.4C291.7, 64.5 289.9, 71.8 292, 78L317, 153.4L231.2, 210.6C225, 214.7 222.5, 222.6 225.1, 229.5L247.2, 288.3L169.2, 210.3L248.9, 157.1C254.9, 153.1 257.5, 145.6 255.2, 138.8L237.8, 86.3C236.1, 81.3 233.2, 76.5 229.4, 72.9C185.5, 31.3 148.5, 31.8 134.4, 31.8C122.4, 31.8 80.3, 31.8 38.3, 73.7C-10.4, 123.7 -12.5, 203 31, 256L243.1, 474.5C246.6, 478.1 251.3, 480 255.9, 480C260.6, 480 265.2, 478.2 268.7, 474.5L481, 256C524.5, 203 522.4, 123.7 473.7, 73.9zM457, 234.8L256, 441.8L55, 234.8C22.3, 194 25, 133.4 61, 96.6C81.1, 76.4 103.8, 64 134.4, 64C161.7, 64 186, 74.3 207.2, 96L220.9, 137.5L135.1, 194.7C126.7, 200.3 125.5, 212.2 132.7, 219.3L263.6, 350.2C278.8, 365.4 304, 349.2 296.5, 329L259.5, 230.2L344.9, 173.2C350.9, 169.2 353.5, 161.7 351.2, 154.8L326, 79C341.6, 69.3 359.6, 64.2 378.2, 64.2C404.9, 64.2 429.5, 74.1 450.8, 96.3C487.1, 133.4 489.7, 194 457, 234.8z" fill="#727272" fill-opacity="1" class="Black" />
  </g>
</svg>