<?xml version='1.0' encoding='UTF-8'?>
<svg viewBox="-1.1756 -2.8232 32 32" xmlns="http://www.w3.org/2000/svg">
  <g transform="matrix(0.9994, 0, 0, 0.9994, 0, 0)">
    <g transform="matrix(0.0515, 0, 0, 0.0515, 0, 0)">
      <path d="M441.5, 39.8C432.9, 25.1 417.1, 16 400, 16L176, 16C158.9, 16 143.1, 25.1 134.5, 39.8L22.5, 231.8C13.8, 246.7 13.8, 265.2 22.5, 280.2L134.5, 472.2C143.1, 486.9 158.9, 496 176, 496L400, 496C417.1, 496 432.9, 486.9 441.5, 472.2L553.5, 280.2C562.2, 265.3 562.2, 246.8 553.5, 231.8L441.5, 39.8zM525.8, 264.1L413.8, 456.1C410.9, 461 405.6, 464 400, 464L176, 464C170.3, 464 165, 461 162.2, 456.1L50.2, 264.1C47.3, 259.1 47.3, 252.9 50.2, 248L162.2, 56C165, 51 170.3, 48 176, 48L400, 48C405.7, 48 411, 51 413.8, 55.9L525.8, 247.9C528.7, 252.9 528.7, 259.1 525.8, 264.1z" fill="#727272" fill-opacity="1" class="Black" />
    </g>
  </g>
</svg>