<?xml version='1.0' encoding='UTF-8'?>
<svg viewBox="-1.9999 -2.8231 31.9975 32" xmlns="http://www.w3.org/2000/svg">
  <g transform="matrix(0.9994, 0, 0, 0.9994, 0, 0)">
    <g transform="matrix(0.0515, 0, 0, 0.0515, 0, 0)">
      <path d="M528.61, 75.91L468.12, 15.39C457.91, 5.16 444.45, 0 430.98, 0A52.38 52.38 0 0 0 396.23, 13.15L110.59, 261.8C100.3, 270.88 96.26, 285.15 100.26, 298.29L112.75, 339.31L76.21, 375.87C69.47, 382.62 69.47, 393.55 76.21, 400.3L76.46, 400.56L0, 479.98L99.88, 512L143.87, 467.99L143.89, 468.01C150.64, 474.76 161.58, 474.76 168.33, 468.01L204.79, 431.54L245.7, 444.07C263.71, 449.58 277.11, 439.53 282.21, 433.75L530.86, 147.85C549.21, 127.03 548.23, 95.53 528.61, 75.91zM91.05, 475.55L58.84, 465.22L99.1, 423.19L121.24, 445.34L91.05, 475.55zM258.21, 412.56C257.58, 413.28 256.81, 413.5 255.89, 413.5C255.63, 413.5 255.35, 413.48 255.06, 413.45L214.15, 400.92L195.76, 395.29L156.11, 434.96L109.26, 388.08L148.97, 348.36L143.37, 329.98L130.88, 288.96C130.54, 287.83 130.89, 286.6 131.61, 285.96L176.58, 246.81L297.32, 367.61L258.21, 412.56zM506.72, 126.83L318.36, 343.4L200.76, 225.74L417.4, 37.15C421.9, 33.18 434.95, 27.47 445.5, 38.03L505.98, 98.55C513.63, 106.2 514.02, 118.55 506.72, 126.83z" fill="#727272" fill-opacity="1" class="Black" />
    </g>
  </g>
</svg>