<?xml version='1.0' encoding='UTF-8'?>
<svg viewBox="-5.499 -2 32 32" xmlns="http://www.w3.org/2000/svg">
  <g transform="matrix(0.0547, 0, 0, 0.0547, 0, 0)">
    <path d="M376, 160L360, 160C355.58, 160 352, 163.58 352, 168L352, 194.95C346.97, 193.16 341.64, 192 336, 192L305.84, 192L262.76, 136.82L261.54, 135.26L260.14, 133.86C265.25, 130.82 270.14, 127.34 274.53, 122.96C288.3, 109.2 295.57, 91.57 295.57, 72C295.57, 52.43 288.29, 34.8 274.53, 21.04C260.77, 7.28 243.15, 0 223.58, 0C204, 0 186.38, 7.28 172.62, 21.04C158.86, 34.8 151.58, 52.42 151.58, 72C151.58, 90.07 158.04, 106.33 169.82, 119.57L123.98, 106.41C79.2, 95.79 33.36, 122.16 21.98, 165.5L0.92, 247.08C-1.02, 254.58 0.14, 262.36 4.14, 269.02C8.23, 275.85 14.8, 280.63 21.95, 282.33L102.21, 305.28L65.43, 452.36C59.05, 478.09 74.74, 504.17 100.4, 510.56C104.2, 511.51 108.11, 511.99 112.01, 511.99C134.1, 511.99 153.26, 497.02 158.59, 475.59L185.72, 367.07L224, 392.97L224, 464C224, 490.47 245.53, 512 272, 512C298.47, 512 320, 490.47 320, 464L320, 384.47C320, 358.72 307.49, 334.39 286.53, 319.39L238, 287.59L243.02, 267.53L244.54, 269.48C253.71, 281.25 267.51, 288 282.42, 288L336, 288C341.64, 288 346.97, 286.85 352, 285.05L352, 504C352, 508.42 355.58, 512 360, 512L376, 512C380.42, 512 384, 508.42 384, 504L384, 168C384, 163.58 380.42, 160 376, 160zM195.24, 43.67C203.02, 35.89 212.47, 32 223.58, 32C234.69, 32 244.14, 35.89 251.91, 43.67C259.68, 51.44 263.58, 60.9 263.58, 72C263.58, 83.1 259.69, 92.56 251.91, 100.33C244.14, 108.1 234.68, 112 223.58, 112C212.47, 112 203.02, 108.11 195.25, 100.33C187.48, 92.56 183.58, 83.1 183.58, 72C183.58, 60.9 187.47, 51.44 195.24, 43.67zM31.92, 255.09L32.04, 254.64L32.26, 255.17L31.92, 255.09zM32.67, 252.11L52.95, 173.55C59.89, 146.94 88.39, 130.77 115.85, 137.35L144.83, 145.67A74.842 74.842 0 0 0 134.77, 168.68L108.49, 273.78L32.67, 252.11zM127.54, 467.88C125.73, 475.16 119.2, 480 112.01, 480C110.73, 480 109.45, 479.84 108.14, 479.52C99.55, 477.38 94.36, 468.69 96.48, 460.13L129.28, 328.93L157.51, 348.01L127.54, 467.88zM336, 256L282.41, 256C277.47, 256 272.82, 253.72 269.79, 249.83L227.91, 196.02L201.95, 299.88C201.78, 300.56 201.12, 300.89 200.87, 301.53L267.91, 345.41C280.5, 354.43 288, 369.02 288, 384.47L288, 464C288, 472.84 280.84, 480 272, 480C263.16, 480 256, 472.84 256, 464L256, 384.47C256, 379.31 253.5, 374.44 249.28, 371.44L145.1, 301.02A16.002 16.002 0 0 1 138.88, 284.13L165.82, 176.41A42.682 42.682 0 0 1 207.32, 144C218.73, 144 229.44, 148.44 237.54, 156.52L290.23, 224L336, 224C344.84, 224 352, 231.16 352, 240C352, 248.84 344.84, 256 336, 256z" fill="#727272" fill-opacity="1" class="Black" />
  </g>
</svg>