<?xml version='1.0' encoding='UTF-8'?>
<svg viewBox="-3.7495 -2 32 32" xmlns="http://www.w3.org/2000/svg">
  <g transform="matrix(0.0547, 0, 0, 0.0547, 0, 0)">
    <path d="M443.9, 343.6C438.9, 334.9 430.1, 329.2 420.2, 328.2C405.9, 326.7 391.2, 323.7 376.4, 319.3C369, 317.1 364.6, 309.5 366.4, 301.9C370, 286.8 374.8, 272.5 380.7, 259.3C384.8, 250.2 384.2, 239.6 379.1, 231C374.1, 222.4 365.3, 216.8 355.6, 215.9C341, 214.5 326.4, 211.3 311.9, 207.1C331, 196.1 344, 175.6 344, 152C344, 117.7 317, 90 283.2, 88.3C286.3, 80.8 288, 72.6 288, 64C288, 28.7 259.3, 0 224, 0C188.7, 0 160, 28.6 160, 64C160, 72.6 161.8, 80.8 164.8, 88.3C131, 90 104, 117.7 104, 152C104, 175.7 117, 196.1 136.1, 207.2C121.6, 211.4 107, 214.6 92.4, 216C82.7, 216.9 73.8, 222.6 68.9, 231.1C63.8, 239.8 63.3, 250.3 67.3, 259.4C73.2, 272.6 78, 286.9 81.6, 302C83.4, 309.5 79, 317.2 71.6, 319.4C56.8, 323.8 42, 326.8 27.8, 328.3C18, 329.3 9.1, 335.1 4.1, 343.7C-0.8, 352.3 -1.4, 362.8 2.7, 371.7C17.2, 403.4 24.9, 439.8 25.1, 476.9C25.2, 489.7 31.7, 501.1 42.6, 507.3C48.1, 510.4 54, 512 60, 512C66, 512 72.1, 510.4 77.7, 507.2C109.9, 488.8 145.1, 477.3 179.6, 474.1C189.3, 473.2 198.1, 467.5 203.1, 458.9C208.1, 450.2 208.7, 439.7 204.6, 430.6C198.7, 417.4 193.9, 403.1 190.4, 388C188.6, 380.5 193, 372.8 200.4, 370.6C208.3, 368.2 216.2, 366.3 224, 364.8C231.8, 366.3 239.7, 368.2 247.6, 370.6C255, 372.8 259.3, 380.4 257.6, 388C254, 403.1 249.2, 417.4 243.4, 430.6C239.3, 439.7 239.9, 450.2 244.9, 458.9C249.9, 467.5 258.7, 473.1 268.5, 474.1C303, 477.3 338.3, 488.8 370.4, 507.2C375.9, 510.4 382, 512 388, 512C394, 512 400, 510.4 405.4, 507.3C416.3, 501 422.8, 489.6 422.9, 476.9C423.1, 439.8 430.8, 403.4 445.3, 371.7C449.4, 362.7 448.8, 352.2 443.9, 343.6zM280, 120C297.6, 120 312, 134.4 312, 152C312, 169.6 297.6, 184 280, 184C262.4, 184 248, 169.6 248, 152C248, 134.4 262.4, 120 280, 120zM136, 152C136, 134.4 150.4, 120 168, 120C185.6, 120 200, 134.4 200, 152C200, 169.6 185.6, 184 168, 184C150.4, 184 136, 169.6 136, 152zM191.2, 340.1C167.6, 347.2 153.6, 371.5 159.3, 395.5C163.3, 412.5 168.8, 428.8 176.6, 442.3C137, 446 98.3, 458.6 58.6, 479.7C57.6, 479.1 57.1, 478.2 57.1, 476.8C57, 434.5 48.5, 394.7 31, 360C47.3, 358.3 64, 354.9 80.8, 349.9C104.4, 342.8 118.4, 318.5 112.7, 294.5C108.7, 277.5 103.2, 261.2 95.4, 247.7C136, 243.9 177.2, 230.2 214.9, 208.4C214.4, 251.3 222.9, 293.4 239.5, 330.2C223.6, 331.9 207.4, 335.2 191.2, 340.1zM224, 96C206.4, 96 192, 81.6 192, 64C192, 46.4 206.4, 32 224, 32C241.6, 32 256, 46.4 256, 64C256, 81.6 241.6, 96 224, 96zM390.9, 476.7C390.9, 478 390.4, 479 386.3, 479.5C349.7, 458.5 311, 446 272.5, 443.7C279.2, 428.7 284.7, 412.5 288.7, 395.4C293.4, 375.6 284.6, 355.8 268.2, 345.4C272.7, 337 273.2, 326.9 269.3, 318.3C255.1, 287.2 247.7, 251.7 247.2, 215.1C280.8, 232.8 316.8, 244.1 351.6, 246.2C344.9, 261.2 339.4, 277.4 335.4, 294.5C329.7, 318.5 343.7, 342.8 367.3, 349.9C384.1, 354.9 400.8, 358.3 416.2, 358.3C399.5, 394.7 391, 434.5 390.9, 476.7z" fill="#727272" fill-opacity="1" class="Black" />
  </g>
</svg>