<?xml version='1.0' encoding='UTF-8'?>
<svg viewBox="-0.245 -1.995 32 32" xmlns="http://www.w3.org/2000/svg">
  <g transform="matrix(0.0547, 0, 0, 0.0547, 0, 0)">
    <path d="M541, 229.16L480, 179.33L480, 101.93A6 6 0 0 0 474, 95.93L454, 95.93A6 6 0 0 0 448, 101.93L448, 153.26L308.19, 39.14A32.16 32.16 0 0 0 267.81, 39.14L35, 229.16A8 8 0 0 0 33.84, 240.4L43.94, 252.81A8 8 0 0 0 55.14, 254L96, 220.62L96, 463.62A16 16 0 0 0 112, 479.62L240, 479.62A16 16 0 0 0 256, 463.62L256, 335.62L320, 335.92L320, 464A16 16 0 0 0 336, 480L464, 479.67A16 16 0 0 0 480, 463.67L480, 220.62L520.86, 254A8 8 0 0 0 532.11, 252.84L542.21, 240.43A8 8 0 0 0 541, 229.16zM447.89, 447.75L447.99, 447.75L351.99, 448.05L351.99, 319.88A16.05 16.05 0 0 0 336.04, 303.88L240.04, 303.61A16 16 0 0 0 223.99, 319.61L223.99, 447.75L128, 447.75L128, 194.51L288, 63.94L448, 194.51z" fill="#727272" fill-opacity="1" class="Black" />
  </g>
</svg>