<?xml version='1.0' encoding='UTF-8'?>
<svg viewBox="-1.9975 -3.5531 32 32" xmlns="http://www.w3.org/2000/svg">
  <g transform="matrix(0.0486, 0, 0, 0.0486, 0, 0)">
    <path d="M573.48, 219.91L310.6, 8A35.85 35.85 0 0 0 265.41, 8L2.53, 219.91A6.71 6.71 0 0 0 1.53, 229.41L15.73, 246.91A6.82 6.82 0 0 0 25.33, 247.91L64, 216.72L64, 496A16 16 0 0 0 80, 512L496, 512A16 16 0 0 0 512, 496L512, 216.82L550.8, 248.11A6.83 6.83 0 0 0 560.4, 247.11L574.59, 229.61A7.14 7.14 0 0 0 573.48, 219.91zM240, 480L240, 320L336, 320L336, 480zM480, 480L368, 480L368, 304A16 16 0 0 0 352, 288L224, 288A16 16 0 0 0 208, 304L208, 480L96, 480L96, 190.92L283.71, 39.52A6.63 6.63 0 0 1 292.11, 39.52L480, 191z" fill="#727272" fill-opacity="1" class="Black" />
  </g>
</svg>