<?xml version='1.0' encoding='UTF-8'?>
<svg viewBox="-1.9975 -3.5542 31.9975 32" xmlns="http://www.w3.org/2000/svg">
  <g transform="matrix(0.0486, 0, 0, 0.0486, 0, 0)">
    <path d="M573.5, 219.9L512, 170.4L512, 72C512, 67.6 508.4, 64 504, 64L488, 64C483.6, 64 480, 67.6 480, 72L480, 144.6L310.6, 8C297.4, -2.7 278.5, -2.7 265.4, 8L2.5, 219.9C-0.4, 222.3 -0.9, 226.5 1.5, 229.4L15.7, 246.9C18.1, 249.8 22.3, 250.3 25.3, 247.9L64, 216.7L64, 496C64, 504.8 71.2, 512 80, 512L496, 512C504.8, 512 512, 504.8 512, 496L512, 216.8L550.8, 248.1C553.7, 250.5 558, 250 560.4, 247.1L574.6, 229.6C576.9, 226.6 576.3, 222.3 573.5, 219.9zM480, 480L96, 480L96, 190.9L283.7, 39.5C286.2, 37.5 289.7, 37.5 292.1, 39.5L480, 191L480, 480zM276.9, 201.5C250.3, 173.6 204.4, 165.6 172, 193.8C136.7, 224.4 134.8, 279.4 166.4, 312.5L275.3, 426.6C282.3, 434 293.7, 434 300.8, 426.6L409.7, 312.5C441.3, 279.3 439.5, 224.4 404.1, 193.8C362.2, 157.5 314.6, 185.4 299.2, 201.5L288, 213.2L276.9, 201.5zM321.7, 223.8C330.4, 214.6 359.2, 197 383.6, 218.1C407.4, 238.7 403.8, 272.6 387, 290.2L288, 394L189, 290.2C172.3, 272.7 168.6, 238.6 192.4, 218.1C214.6, 198.8 242.4, 211.3 254.3, 223.8L288, 259.1L321.7, 223.8z" fill="#727272" fill-opacity="1" class="Black" />
  </g>
</svg>