<?xml version='1.0' encoding='UTF-8'?>
<svg viewBox="-1.9973 -3.5529 32 32" xmlns="http://www.w3.org/2000/svg">
  <g transform="matrix(0.0486, 0, 0, 0.0486, 0, 0)">
    <path d="M569.65, 460.85C511.98, 383.87 511.98, 320 511.98, 320L511.98, 256C511.98, 171.97 465.62, 132.95 410.81, 73.3L450.56, 33.55C462.94, 21.17 454.17, 0 436.66, 0L287.57, 0C191.98, 0 64.02, 109.45 64.02, 256L64.02, 320C64.02, 320 64.02, 383.87 6.35, 460.85C-9.42, 481.9 6.02, 512 32.32, 512L543.67, 512C569.98, 512 585.42, 481.9 569.65, 460.85zM191.98, 480L191.98, 320C191.98, 267.06 235.04, 224 287.97, 224C340.9, 224 383.96, 267.06 383.96, 320L383.96, 480L191.98, 480zM415.96, 480.01L415.96, 320C415.96, 249.31 358.66, 192 287.97, 192C217.28, 192 159.98, 249.31 159.98, 320L159.98, 480.02L31.96, 480.03C95.29, 395.5 96.02, 323.04 96.02, 320L96.02, 256C96.02, 126.06 210.44, 32 287.57, 32L406.85, 32L366.5, 72.36C366.5, 72.36 399.34, 107.96 405.18, 114.18C450.23, 162.16 479.99, 193.86 479.99, 255.99L479.99, 319.99C479.99, 323.03 480.72, 395.49 543.68, 479.99L415.96, 480.01z" fill="#727272" fill-opacity="1" class="Black" />
  </g>
</svg>