<?xml version='1.0' encoding='UTF-8'?>
<svg viewBox="-1.9998 -3.5563 31.9975 32" xmlns="http://www.w3.org/2000/svg">
  <g transform="matrix(0.0486, 0, 0, 0.0486, 0, 0)">
    <path d="M575.94, 86.27C575.94, 76.66 572.28, 70.34 566.81, 63.7A63.91 63.91 0 0 0 575.19, 32A32 32 0 0 0 543.19, 0L432, 0A128.14 128.14 0 0 0 304, 128L163.37, 128C127.37, 128 96.09, 147.42 78.66, 176.12A80 80 0 0 0 0, 256L0, 312A8 8 0 0 0 8, 320L24, 320A8 8 0 0 0 32, 312L32, 256A47.82 47.82 0 0 1 65.72, 210.41A97.81 97.81 0 0 0 64, 227.41A99.36 99.36 0 0 0 88.53, 292.64L66.53, 366.92A64 64 0 0 0 65.72, 399.65L86.84, 487.51A32 32 0 0 0 118, 512L175.53, 512A32 32 0 0 0 206.53, 472.14L184.84, 386.56L204.13, 332.84L288, 351.47L288, 480A32 32 0 0 0 320, 512L384, 512A32 32 0 0 0 416, 480L416, 323.81A115 115 0 0 0 448, 244.2L448, 193.69L462.56, 215.52C481.66, 244.19 512.56, 236.19 518, 234.31L543.53, 225.59A47.91 47.91 0 0 0 576, 180.16zM224, 304.47L183.56, 295.47L151.44, 385L175.53, 480L118, 480L96.87, 392.14A33 33 0 0 1 97.25, 376L124.87, 282.6A67 67 0 0 1 144, 163.17L144, 176A95.83 95.83 0 0 0 224, 270.39zM176, 176L176, 160L304, 160L304, 176A64 64 0 0 1 176, 176zM544, 180.17C544, 186.48 539.16, 193.27 533.16, 195.31L507.66, 204C498.31, 207.18 491.5, 201.25 489.16, 197.73L464, 160L416, 144L416, 244.2C416, 270.88 403.37, 294.38 384, 309.81L384, 480L320, 480L320, 325.8L256, 311.58L256, 270.39A95.83 95.83 0 0 0 336, 176L336, 128A96 96 0 0 1 432, 32L543.19, 32A32 32 0 0 1 523.56, 61.5L543.94, 86.28L544, 180.16zM480, 80A16 16 0 1 0 496, 96A16 16 0 0 0 480, 80z" fill="#727272" fill-opacity="1" class="Black" />
  </g>
</svg>