<?xml version='1.0' encoding='UTF-8'?>
<svg viewBox="-1.9998 -3.5563 31.9975 32" xmlns="http://www.w3.org/2000/svg">
  <g transform="matrix(0.0486, 0, 0, 0.0486, 0, 0)">
    <path d="M468, 384L428, 384C421.4, 384 416, 389.4 416, 396L416, 436C416, 442.6 421.4, 448 428, 448L468, 448C474.6, 448 480, 442.6 480, 436L480, 396C480, 389.4 474.6, 384 468, 384zM468, 256L428, 256C421.4, 256 416, 261.4 416, 268L416, 308C416, 314.6 421.4, 320 428, 320L468, 320C474.6, 320 480, 314.6 480, 308L480, 268C480, 261.4 474.6, 256 468, 256zM308, 384L268, 384C261.4, 384 256, 389.4 256, 396L256, 436C256, 442.6 261.4, 448 268, 448L308, 448C314.6, 448 320, 442.6 320, 436L320, 396C320, 389.4 314.6, 384 308, 384zM308, 256L268, 256C261.4, 256 256, 261.4 256, 268L256, 308C256, 314.6 261.4, 320 268, 320L308, 320C314.6, 320 320, 314.6 320, 308L320, 268C320, 261.4 314.6, 256 308, 256zM148, 384L108, 384C101.4, 384 96, 389.4 96, 396L96, 436C96, 442.6 101.4, 448 108, 448L148, 448C154.6, 448 160, 442.6 160, 436L160, 396C160, 389.4 154.6, 384 148, 384zM148, 256L108, 256C101.4, 256 96, 261.4 96, 268L96, 308C96, 314.6 101.4, 320 108, 320L148, 320C154.6, 320 160, 314.6 160, 308L160, 268C160, 261.4 154.6, 256 148, 256zM330, 112L304, 112L304, 86C304, 82.7 301.3, 80 298, 80L278, 80C274.7, 80 272, 82.7 272, 86L272, 112L246, 112C242.7, 112 240, 114.7 240, 118L240, 138C240, 141.3 242.7, 144 246, 144L272, 144L272, 170C272, 173.3 274.7, 176 278, 176L298, 176C301.3, 176 304, 173.3 304, 170L304, 144L330, 144C333.3, 144 336, 141.3 336, 138L336, 118C336, 114.7 333.3, 112 330, 112zM528, 128L416, 128L416, 48C416, 21.5 394.5, 0 368, 0L208, 0C181.5, 0 160, 21.5 160, 48L160, 128L48, 128C21.5, 128 0, 149.5 0, 176L0, 504C0, 508.4 3.6, 512 8, 512L24, 512C28.4, 512 32, 508.4 32, 504L32, 176C32, 167.2 39.2, 160 48, 160L192, 160L192, 48C192, 39.2 199.2, 32 208, 32L368, 32C376.8, 32 384, 39.2 384, 48L384, 160L528, 160C536.8, 160 544, 167.2 544, 176L544, 504C544, 508.4 547.6, 512 552, 512L568, 512C572.4, 512 576, 508.4 576, 504L576, 176C576, 149.5 554.5, 128 528, 128z" fill="#727272" fill-opacity="1" class="Black" />
  </g>
</svg>