<?xml version='1.0' encoding='UTF-8'?>
<svg viewBox="-1.9999 -4.8004 32 32" xmlns="http://www.w3.org/2000/svg">
  <g transform="matrix(1.0011, 0, 0, 1.0011, 0, 0)">
    <g transform="matrix(0.0437, 0, 0, 0.0437, 0, 0)">
      <path d="M148, 192L108, 192A12 12 0 0 0 96, 204L96, 244A12 12 0 0 0 108, 256L148, 256A12 12 0 0 0 160, 244L160, 204A12 12 0 0 0 148, 192zM148, 288L108, 288A12 12 0 0 0 96, 300L96, 340A12 12 0 0 0 108, 352L148, 352A12 12 0 0 0 160, 340L160, 300A12 12 0 0 0 148, 288zM148, 384L108, 384A12 12 0 0 0 96, 396L96, 436A12 12 0 0 0 108, 448L148, 448A12 12 0 0 0 160, 436L160, 396A12 12 0 0 0 148, 384zM244, 288L204, 288A12 12 0 0 0 192, 300L192, 340A12 12 0 0 0 204, 352L244, 352A12 12 0 0 0 256, 340L256, 300A12 12 0 0 0 244, 288zM244, 192L204, 192A12 12 0 0 0 192, 204L192, 244A12 12 0 0 0 204, 256L244, 256A12 12 0 0 0 256, 244L256, 204A12 12 0 0 0 244, 192zM244, 384L204, 384A12 12 0 0 0 192, 396L192, 436A12 12 0 0 0 204, 448L244, 448A12 12 0 0 0 256, 436L256, 396A12 12 0 0 0 244, 384zM192, 128L218, 128A6 6 0 0 0 224, 122L224, 102A6 6 0 0 0 218, 96L192, 96L192, 70A6 6 0 0 0 186, 64L166, 64A6 6 0 0 0 160, 70L160, 96L134, 96A6 6 0 0 0 128, 102L128, 122A6 6 0 0 0 134, 128L160, 128L160, 154A6 6 0 0 0 166, 160L186, 160A6 6 0 0 0 192, 154zM480, 320A96 96 0 1 0 384, 224A96 96 0 0 0 480, 320zM480, 160A64 64 0 1 1 416, 224A64.07 64.07 0 0 1 480, 160zM623.69, 381.13C606.44, 355.5 577, 342 546.79, 342C519, 342 512, 352 480, 352C448, 352 441.05, 342 413.21, 342C382.98, 342 353.56, 355.48 336.31, 381.11A95.5 95.5 0 0 0 320, 434.67L320, 472A40 40 0 0 0 360, 512L600, 512A40 40 0 0 0 640, 472L640, 434.67A95.5 95.5 0 0 0 623.69, 381.13zM608, 472A8 8 0 0 1 600, 480L360, 480A8 8 0 0 1 352, 472L352, 434.67A63.61 63.61 0 0 1 362.85, 399C373.38, 383.36 392.2, 374 413.21, 374C435.01, 374 443.21, 384 480, 384C516.79, 384 525, 374 546.79, 374C567.79, 374 586.62, 383.34 597.15, 399A63.61 63.61 0 0 1 608, 434.67zM320, 128L320, 350.31A119.48 119.48 0 0 1 352, 325.31L352, 128A32 32 0 0 0 320, 96L304, 96L304, 32A32 32 0 0 0 272, 0L80, 0A32 32 0 0 0 48, 32L48, 96L32, 96A32 32 0 0 0 0, 128L0, 504A8 8 0 0 0 8, 512L24, 512A8 8 0 0 0 32, 504L32, 128L80, 128L80, 32L272, 32L272, 128z" fill="#727272" fill-opacity="1" class="Black" />
    </g>
  </g>
</svg>