<?xml version='1.0' encoding='UTF-8'?>
<svg viewBox="-1.9998 -2.0011 31.9975 32" xmlns="http://www.w3.org/2000/svg">
  <g transform="matrix(0.0547, 0, 0, 0.0547, 0, 0)">
    <path d="M469.96, 179.21L483.58, 165.58C501.91, 147.27 512, 122.91 512, 97C512, 71.09 501.91, 46.73 483.58, 28.41C465.28, 10.1 440.92, 0 415, 0C389.08, 0 364.72, 10.1 346.4, 28.43L332.78, 42.05L310.63, 19.9C297.44, 6.69 280.37, 0 263.83, 0C249.04, 0 234.67, 5.35 223.85, 16.17L16.17, 223.85C-6.77, 246.79 -5.1, 285.65 19.89, 310.64L42.04, 332.79L28.41, 346.42C10.09, 364.73 0, 389.09 0, 415C0, 440.91 10.09, 465.27 28.42, 483.59C46.72, 501.9 71.08, 512 97, 512C122.92, 512 147.28, 501.9 165.6, 483.57L179.22, 469.95L201.37, 492.1C214.57, 505.3 231.63, 511.99 248.18, 511.99C262.97, 511.99 277.34, 506.64 288.16, 495.82L495.84, 288.14C518.78, 265.2 517.11, 226.34 492.12, 201.35L469.96, 179.21zM38.8, 246.47L246.47, 38.8C257.38, 27.89 276.26, 30.78 288.01, 42.52L310.16, 64.67L64.67, 310.16L42.52, 288.01C30.04, 275.53 28.37, 256.9 38.8, 246.47zM142.96, 460.96C117.6, 486.34 76.42, 486.36 51.05, 460.96C25.66, 435.58 25.66, 394.42 51.05, 369.05L369.05, 51.05C394.41, 25.67 435.59, 25.65 460.96, 51.05C486.35, 76.43 486.35, 117.59 460.96, 142.96L142.96, 460.96zM473.2, 265.53L265.52, 473.2C254.63, 484.09 235.75, 481.24 223.99, 469.48L201.84, 447.33L447.33, 201.84L469.48, 223.99C481.96, 236.47 483.63, 255.1 473.2, 265.53zM416, 96C403.6, 108.41 394.24, 110.01 381.29, 112.23C366.89, 114.7 348.96, 117.78 329.37, 137.37C309.77, 156.97 306.7, 174.89 304.23, 189.29C302.01, 202.24 300.4, 211.59 288, 224C275.6, 236.4 266.24, 238.01 253.29, 240.23C238.89, 242.7 220.96, 245.78 201.37, 265.37C181.77, 284.97 178.7, 302.89 176.23, 317.29C174, 330.25 172.4, 339.6 160, 352C147.6, 364.4 138.24, 366.01 125.3, 368.23C110.9, 370.7 92.97, 373.77 73.38, 393.37C67.13, 399.62 67.13, 409.75 73.38, 416C76.5, 419.12 80.6, 420.69 84.69, 420.69C88.78, 420.69 92.88, 419.12 96, 416C108.4, 403.6 117.76, 401.99 130.7, 399.77C145.1, 397.3 163.03, 394.23 182.62, 374.63C202.22, 355.03 205.29, 337.11 207.76, 322.71C209.98, 309.76 211.59, 300.41 223.99, 288C236.39, 275.6 245.75, 273.99 258.7, 271.77C273.1, 269.3 291.03, 266.22 310.62, 246.63C330.21, 227.04 333.29, 209.11 335.76, 194.71C337.98, 181.76 339.59, 172.41 351.99, 160C364.39, 147.59 373.75, 145.99 386.7, 143.77C401.1, 141.3 419.03, 138.22 438.62, 118.63C444.87, 112.38 444.87, 102.25 438.62, 96C432.38, 89.75 422.25, 89.75 416, 96z" fill="#727272" fill-opacity="1" class="Black" />
  </g>
</svg>