<?xml version='1.0' encoding='UTF-8'?>
<svg viewBox="-5.5003 -2 32 32" xmlns="http://www.w3.org/2000/svg">
  <g transform="matrix(0.0547, 0, 0, 0.0547, 0, 0)">
    <path d="M368, 32L372, 32C378.627, 32 384, 26.627 384, 20L384, 12C384, 5.373 378.627, 0 372, 0L12, 0C5.373, 0 0, 5.373 0, 12L0, 20C0, 26.627 5.373, 32 12, 32L16, 32C16, 123.821 60.108, 225.657 145.646, 256C59.832, 286.441 16, 388.477 16, 480L12, 480C5.373, 480 0, 485.373 0, 492L0, 500C0, 506.627 5.373, 512 12, 512L372, 512C378.627, 512 384, 506.627 384, 500L384, 492C384, 485.373 378.627, 480 372, 480L368, 480C368, 388.179 323.892, 286.343 238.354, 256C324.168, 225.559 368, 123.523 368, 32zM48, 32L336, 32C336, 142.457 271.529, 232 192, 232C112.471, 232 48, 142.457 48, 32zM336, 480L48, 480C48, 369.543 112.471, 280 192, 280C271.529, 280 336, 369.543 336, 480zM269.66, 146.912A141.625 141.625 0 0 1 262.886, 155.651C260.585, 158.389 257.215, 159.999 253.638, 159.999L130.362, 159.999C126.786, 159.999 123.415, 158.389 121.114, 155.651A142.319 142.319 0 0 1 114.34, 146.912C108.683, 139.002 114.428, 128 124.153, 128L259.847, 128C269.572, 128 275.316, 139.003 269.66, 146.912zM98.379, 416L285.622, 416A12.01 12.01 0 0 1 297.224, 424.903A199.464 199.464 0 0 1 299.283, 433.333C300.947, 440.855 295.283, 448 287.579, 448L96.422, 448C88.718, 448 83.054, 440.855 84.718, 433.333C85.338, 430.529 86.025, 427.717 86.777, 424.903A12.01 12.01 0 0 1 98.379, 416z" fill="#727272" fill-opacity="1" class="Black" />
  </g>
</svg>