<?xml version='1.0' encoding='UTF-8'?>
<svg viewBox="-2 -3.5077 32 32" xmlns="http://www.w3.org/2000/svg">
  <g transform="matrix(0.0486, 0, 0, 0.0486, 0, 0)">
    <path d="M252, 193C236.6, 193 224, 205.6 224, 221L224, 293C224, 308.4 236.6, 321 252, 321L324, 321C339.4, 321 352, 308.4 352, 293L352, 221C352, 205.6 339.4, 193 324, 193L252, 193zM320, 289L256, 289L256, 225L320, 225L320, 289zM568.3, 449C538.8, 447.5 510.6, 437.4 490.1, 420.7C484.2, 415.9 475.8, 415.9 469.9, 420.8C426.2, 456.7 342.9, 457.1 298.1, 420.7C292.2, 415.9 283.8, 415.9 277.9, 420.8C234.2, 456.7 150.9, 457 106.1, 420.7C100.2, 415.9 91.8, 416 85.9, 420.8C65.7, 437.4 37.5, 447.5 7.7, 449C3.4, 449.2 0, 452.6 0, 456.9L0, 472.9C0, 477.4 3.8, 481.2 8.3, 481C40.6, 479.5 71.6, 469.6 96.1, 453.1C149.9, 489.2 235.3, 488.9 288.1, 453.1C341.8, 489.2 427.3, 488.9 480.1, 453.1C504.7, 469.6 535.7, 479.5 567.7, 481C572.2, 481.2 576, 477.4 576, 472.9L576, 456.9C576, 452.6 572.6, 449.2 568.3, 449zM45.9, 252.4C48, 255 51.8, 255.4 54.4, 253.3L96, 219.8L96, 385.2C106.9, 385.2 117.6, 389 126.2, 395.9C126.7, 396.3 127.4, 396.6 128, 397L128, 194L284.1, 68.1C286.3, 66.3 289.4, 66.3 291.6, 68.1L447.6, 194L447.6, 397.3C448.2, 396.9 448.9, 396.5 449.5, 396.1C458, 389.1 468.7, 385.3 479.7, 385.2L479.7, 219.9L521.3, 253.4C523.9, 255.5 527.7, 255.1 529.8, 252.5L542.4, 236.9C544.5, 234.3 544, 230.5 541.5, 228.4L479.7, 178.7L479.7, 102.8C479.7, 99.5 477, 96.8 473.7, 96.8L453.7, 96.8C450.4, 96.8 447.7, 99.5 447.7, 102.8L447.7, 152.9L307.9, 40.1C296.2, 30.6 279.4, 30.6 267.7, 40.1L34.2, 228.4C31.6, 230.5 31.2, 234.3 33.3, 236.8L45.9, 252.4z" fill="#727272" fill-opacity="1" class="Black" />
  </g>
</svg>