<?xml version='1.0' encoding='UTF-8'?>
<svg viewBox="-1.9974 -3.554 31.9975 32" xmlns="http://www.w3.org/2000/svg">
  <g transform="matrix(0.0486, 0, 0, 0.0486, 0, 0)">
    <path d="M573.51, 219.94L512, 170.35L512, 72C512, 67.58 508.42, 64 504, 64L488, 64C483.58, 64 480, 67.58 480, 72L480, 144.55L310.63, 8.01C297.47, -2.68 278.57, -2.68 265.41, 8.01L2.53, 219.94C-0.39, 222.3 -0.84, 226.58 1.52, 229.39L15.69, 246.94A6.788 6.788 0 0 0 25.25, 247.95L64, 216.7L64, 496C64, 504.84 71.16, 512 80, 512L229.57, 512L215.02, 480L192.33, 430.09L296.44, 358.1L236.28, 224L384.33, 377.86L280.22, 449.85L299.59, 480L320.14, 512L496, 512C504.84, 512 512, 504.84 512, 496L512, 216.78L550.79, 248.06C553.72, 250.42 557.99, 249.97 560.35, 247.05L574.52, 229.5C576.88, 226.58 576.32, 222.3 573.51, 219.94zM480, 480L337.63, 480L323.87, 458.58L402.54, 404.18A31.976 31.976 0 0 0 416.18, 381.05C417.12, 371.71 413.9, 362.43 407.4, 355.67L259.34, 201.81C253.12, 195.34 244.73, 192 236.27, 192C230.07, 192 223.83, 193.8 218.37, 197.48C205.48, 206.19 200.71, 222.9 207.08, 237.1L256.35, 346.92L174.13, 403.77C161.4, 412.58 156.79, 429.24 163.2, 443.33L179.87, 480L96, 480L96, 190.9L283.74, 39.51A6.635 6.635 0 0 1 292.18, 39.51L480, 190.98L480, 480z" fill="#727272" fill-opacity="1" class="Black" />
  </g>
</svg>