<?xml version='1.0' encoding='UTF-8'?>
<svg viewBox="-4 0 32 32" xmlns="http://www.w3.org/2000/svg">
  <g transform="matrix(0.0625, 0, 0, 0.0625, 0, 0)">
    <path d="M376, 224C380.42, 224 384, 220.42 384, 216L384, 200C384, 195.58 380.42, 192 376, 192L279.46, 192L292.19, 179.41C308.42, 163.36 317.72, 140.68 317.72, 117.19C317.72, 70.22 281.58, 32 237.14, 32L152.72, 32C130.67, 32 109.52, 39.77 93.16, 53.84L59.65, 82.64A8.008 8.008 0 0 0 58.79, 93.92L69.21, 106.06C72.09, 109.41 77.14, 109.8 80.49, 106.92L114.01, 78.11C124.59, 69.02 138.33, 64 152.72, 64L237.14, 64C263.92, 64 285.72, 87.86 285.72, 117.19C285.72, 132.19 279.88, 146.58 269.69, 156.66L233.96, 192L8, 192C3.58, 192 0, 195.58 0, 200L0, 216C0, 220.42 3.58, 224 8, 224L201.6, 224L136.89, 288L8, 288C3.58, 288 0, 291.58 0, 296L0, 312C0, 316.42 3.58, 320 8, 320L104.54, 320L91.81, 332.59C75.58, 348.64 66.28, 371.32 66.28, 394.81C66.28, 441.78 102.42, 480 146.86, 480L231.28, 480C253.33, 480 274.48, 472.23 290.84, 458.16L324.36, 429.36A8.008 8.008 0 0 0 325.22, 418.08L314.8, 405.94A8.01 8.01 0 0 0 303.51, 405.08L269.99, 433.89C259.41, 442.98 245.68, 448 231.29, 448L146.87, 448C120.09, 448 98.29, 424.14 98.29, 394.81C98.29, 379.81 104.13, 365.42 114.32, 355.34L150.04, 320L376, 320C380.42, 320 384, 316.42 384, 312L384, 296C384, 291.58 380.42, 288 376, 288L182.4, 288L247.11, 224L376, 224z" fill="#727272" fill-opacity="1" class="Black" />
  </g>
</svg>