<?xml version='1.0' encoding='UTF-8'?>
<svg viewBox="-2.1086 -1.9999 32 32" xmlns="http://www.w3.org/2000/svg">
  <g transform="matrix(0.0547, 0, 0, 0.0547, 0, 0)">
    <path d="M480.84, 0A23.6 23.6 0 0 0 476.94, 0.33L340.87, 23.18C327.46, 25.44 317.5, 38.94 317.5, 54.86L317.5, 166.8A80.15 80.15 0 0 0 285.75, 160.33C250.16, 160.33 222.25, 181.41 222.25, 208.33C222.25, 235.25 250.16, 256.33 285.75, 256.33C321.34, 256.33 349.25, 235.25 349.25, 208.33L349.25, 54.86A4.45 4.45 0 0 1 349.25, 54.21L476.25, 32.88L476.25, 135A78.79 78.79 0 0 0 444.5, 128.35C409.43, 128.35 381, 149.84 381, 176.35C381, 202.86 409.43, 224.35 444.5, 224.35C479.57, 224.35 508, 202.86 508, 176.35L508, 32C508, 14.09 495.59, 0 480.84, 0zM285.75, 224.33C266.65, 224.33 254, 214.7 254, 208.33C254, 201.96 266.65, 192.33 285.75, 192.33C304.85, 192.33 317.5, 201.95 317.5, 208.33C317.5, 214.71 304.85, 224.33 285.75, 224.33zM444.5, 192.33C424.8, 192.33 412.75, 181.97 412.75, 176.33C412.75, 170.69 424.8, 160.33 444.5, 160.33C464.2, 160.33 476.25, 170.69 476.25, 176.33C476.25, 181.97 464.2, 192.33 444.5, 192.33zM7.94, 96L95.25, 96L95.25, 216A8 8 0 0 0 103.19, 224L119.06, 224A8 8 0 0 0 127, 216L127, 96L214.31, 96A8 8 0 0 0 222.25, 88L222.25, 72A8 8 0 0 0 214.31, 64L7.94, 64A8 8 0 0 0 0, 72L0, 88A8 8 0 0 0 7.94, 96zM333.38, 384A48 48 0 1 0 285.75, 336A47.81 47.81 0 0 0 333.38, 384zM333.38, 320A16 16 0 1 1 317.5, 336A16 16 0 0 1 333.38, 320zM7.94, 32L214.31, 32A8 8 0 0 0 222.25, 24L222.25, 8.33A8 8 0 0 0 214.31, 0.33L7.94, 0.33A8 8 0 0 0 0, 8.33L0, 24A8 8 0 0 0 7.94, 32zM460.38, 416A48 48 0 1 0 508, 464A47.81 47.81 0 0 0 460.38, 416zM460.38, 480A16 16 0 1 1 476.25, 464A16 16 0 0 1 460.38, 480zM494.45, 290.34A7.89 7.89 0 0 0 483.23, 290.34L288.08, 487A8.05 8.05 0 0 0 288.08, 498.32L299.3, 509.63A7.89 7.89 0 0 0 310.52, 509.63L505.67, 313A8 8 0 0 0 505.67, 301.68zM181.32, 448.13L218.52, 424A8.05 8.05 0 0 0 221.05, 413L212.64, 399.42A7.9 7.9 0 0 0 201.7, 396.87L158.35, 425L114.42, 380.72A63.79 63.79 0 0 0 158.75, 320C158.75, 284.7 130.26, 256 95.25, 256C60.24, 256 31.75, 284.7 31.75, 320A63.91 63.91 0 0 0 62.32, 374.45L32.22, 392.7C1.28, 411.45 -9.2, 451.31 8.81, 481.55C20.57, 501.19 41.49, 512 63.26, 512A66.67 66.67 0 0 0 97.89, 502.25L154, 465.85L197.47, 509.66A7.89 7.89 0 0 0 208.69, 509.66L219.91, 498.35A8 8 0 0 0 219.91, 487.03zM95.25, 288A32 32 0 1 1 63.5, 320A31.87 31.87 0 0 1 95.25, 288zM81.31, 475C65.4, 484.66 45.09, 480.22 36.04, 465.1C26.99, 449.98 32.66, 429.83 48.59, 420.16L86.07, 397.43L131.07, 442.74z" fill="#727272" fill-opacity="1" class="Black" />
  </g>
</svg>