<?xml version='1.0' encoding='UTF-8'?>
<svg viewBox="-2 -3.554 32 32" xmlns="http://www.w3.org/2000/svg">
  <g transform="matrix(0.0486, 0, 0, 0.0486, 0, 0)">
    <path d="M288, 32C128.9, 32 0, 160.9 0, 320L0, 448C0, 465.7 14.3, 480 32, 480L544, 480C561.7, 480 576, 465.7 576, 448L576, 320C576, 160.9 447.1, 32 288, 32zM487.5, 160L352, 160L352, 72.4C406.2, 86.4 453.5, 117.6 487.5, 160zM448, 320L398.2, 320C376, 281.9 335.2, 256 288, 256C240.8, 256 200, 281.9 177.8, 320L128, 320L128, 192L448, 192L448, 320zM288, 64C298.9, 64 309.5, 64.9 320, 66.2L320, 160L88.5, 160C135.4, 101.6 207.4, 64 288, 64zM66.6, 192L96, 192L96, 320L32, 320C32, 273.3 44.7, 229.7 66.6, 192zM32, 448L32, 352L164.5, 352C161.8, 362.3 160, 372.9 160, 384L160, 448L32, 448zM192, 448L192, 384C192, 331 235, 288 288, 288C341, 288 384, 331 384, 384L384, 448L192, 448zM544, 448L416, 448L416, 384C416, 372.9 414.1, 362.3 411.5, 352L544, 352L544, 448zM480, 320L480, 192L509.4, 192C531.3, 229.7 544, 273.3 544, 320L480, 320z" fill="#727272" fill-opacity="1" class="Black" />
  </g>
</svg>