<?xml version='1.0' encoding='UTF-8'?>
<svg viewBox="-2 -3.554 32 32" xmlns="http://www.w3.org/2000/svg">
  <g transform="matrix(0.0486, 0, 0, 0.0486, 0, 0)">
    <path d="M528, 32L112, 32C85.49, 32 64, 53.49 64, 80L64, 96L48, 96C21.49, 96 0, 117.49 0, 144L0, 432C0, 458.51 21.49, 480 48, 480L464, 480C490.51, 480 512, 458.51 512, 432L512, 416L528, 416C554.51, 416 576, 394.51 576, 368L576, 80C576, 53.49 554.51, 32 528, 32zM480, 432C480, 440.822 472.822, 448 464, 448L48, 448C39.178, 448 32, 440.822 32, 432L32, 144C32, 135.178 39.178, 128 48, 128L64, 128L64, 368C64, 394.51 85.49, 416 112, 416L480, 416L480, 432zM544, 368C544, 376.822 536.822, 384 528, 384L112, 384C103.178, 384 96, 376.822 96, 368L96, 80C96, 71.178 103.178, 64 112, 64L528, 64C536.822, 64 544, 71.178 544, 80L544, 368zM176, 200C206.928, 200 232, 174.928 232, 144C232, 113.072 206.928, 88 176, 88C145.072, 88 120, 113.072 120, 144C120, 174.928 145.072, 200 176, 200zM176, 120C189.234, 120 200, 130.766 200, 144C200, 157.234 189.234, 168 176, 168C162.766, 168 152, 157.234 152, 144C152, 130.766 162.766, 120 176, 120zM416.971, 143.029C407.598, 133.656 392.403, 133.656 383.03, 143.029L288, 238.059L256.971, 207.029C247.598, 197.656 232.402, 197.656 223.03, 207.029L135.03, 295.029A24.002 24.002 0 0 0 128, 312L128, 340C128, 346.627 133.373, 352 140, 352L500, 352C506.627, 352 512, 346.627 512, 340L512, 248C512, 241.635 509.471, 235.53 504.971, 231.029L416.971, 143.029zM480, 320L160, 320L160, 315.314L240, 235.314L288, 283.314L400, 171.314L480, 251.314L480, 320z" fill="#727272" fill-opacity="1" class="Black" />
  </g>
</svg>