<?xml version='1.0' encoding='UTF-8'?>
<svg viewBox="-2 -3.554 32 32" xmlns="http://www.w3.org/2000/svg">
  <g transform="matrix(0.0486, 0, 0, 0.0486, 0, 0)">
    <path d="M560.8, 329.8L466.2, 241.1C463.8, 238.8 460, 239 457.7, 241.4L444.1, 256C441.8, 258.4 442, 262.2 444.4, 264.5L503.7, 320.1L388.2, 320.1L356.2, 384.1L219.8, 384.1L187.8, 320.1L72.4, 320.1L131.7, 264.5C134.1, 262.2 134.2, 258.4 132, 256L118.3, 241.4C116, 239 112.2, 238.9 109.8, 241.1L15.2, 329.8C5.5, 338.9 0, 351.5 0, 364.8L0, 464C0, 490.5 21.5, 512 48, 512L528, 512C554.5, 512 576, 490.5 576, 464L576, 364.8C576, 351.5 570.5, 338.9 560.8, 329.8zM544, 464C544, 472.8 536.8, 480 528, 480L48, 480C39.2, 480 32, 472.8 32, 464L32, 368C32, 359.2 39.2, 352 48, 352L168, 352L200, 416L376, 416L408, 352L528, 352C536.8, 352 544, 359.2 544, 368L544, 464zM160, 192L224, 192L224, 296C224, 309.2 234.8, 320 248, 320L328, 320C341.2, 320 352, 309.2 352, 296L352, 192L416, 192C444.4, 192 458.8, 157.5 438.6, 137.4L310.6, 9.4C298.1, -3.1 277.8, -3.1 265.3, 9.4L137.3, 137.4C117.3, 157.5 131.5, 192 160, 192zM288, 32L416, 160L320, 160L320, 288L256, 288L256, 160L160, 160L288, 32z" fill="#727272" fill-opacity="1" class="Black" />
  </g>
</svg>