<?xml version='1.0' encoding='UTF-8'?>
<svg viewBox="-1.9999 -1.9974 32 31.9975" xmlns="http://www.w3.org/2000/svg">
  <g transform="matrix(0.0547, 0, 0, 0.0547, 0, 0)">
    <path d="M404, 384L364, 384C357.373, 384 352, 378.627 352, 372L352, 332C352, 325.373 357.373, 320 364, 320L404, 320C410.627, 320 416, 325.373 416, 332L416, 372C416, 378.627 410.627, 384 404, 384zM288, 372L288, 332C288, 325.373 282.627, 320 276, 320L236, 320C229.373, 320 224, 325.373 224, 332L224, 372C224, 378.627 229.373, 384 236, 384L276, 384C282.627, 384 288, 378.627 288, 372zM160, 372L160, 332C160, 325.373 154.627, 320 148, 320L108, 320C101.373, 320 96, 325.373 96, 332L96, 372C96, 378.627 101.373, 384 108, 384L148, 384C154.627, 384 160, 378.627 160, 372zM512, 184L512, 456C512, 469.255 501.255, 480 488, 480L24, 480C10.745, 480 0, 469.255 0, 456L0, 56C0, 42.745 10.745, 32 24, 32L104, 32C117.255, 32 128, 42.745 128, 56L128, 241.167L285.267, 162.534C301.052, 154.641 320, 165.993 320, 184L320, 241.167L477.267, 162.534C493.052, 154.641 512, 165.993 512, 184zM96, 280L96, 64L32, 64L32, 448L480, 448L480, 196.944L299.578, 287.155C294.268, 289.81 288, 285.949 288, 280L288, 196.944L107.578, 287.155C102.269, 289.811 96, 285.947 96, 280z" fill="#727272" fill-opacity="1" class="Black" />
  </g>
</svg>