<?xml version='1.0' encoding='UTF-8'?>
<svg viewBox="-2 -4.7992 32 32" xmlns="http://www.w3.org/2000/svg">
  <g transform="matrix(0.9988, 0, 0, 0.9988, 0, 0)">
    <g transform="matrix(0.0438, 0, 0, 0.0438, 0, 0)">
      <path d="M488.88, 96C406.31, 96 346.21, 178.45 320, 222.45C293.79, 178.45 233.69, 96 151.12, 96C67.78, 96 0, 167.78 0, 256C0, 344.22 67.78, 416 151.12, 416C233.68, 416 293.79, 333.55 320, 289.54C346.21, 333.55 406.31, 416 488.88, 416C572.22, 416 640, 344.22 640, 256C640, 167.78 572.22, 96 488.88, 96zM151.12, 384C85.44, 384 32, 326.58 32, 256C32, 185.42 85.44, 128 151.12, 128C229.15, 128 287.59, 228.61 302.06, 256C287.59, 283.39 229.16, 384 151.12, 384zM488.88, 384C410.85, 384 352.41, 283.39 337.94, 256C352.41, 228.61 410.85, 128 488.88, 128C554.56, 128 608, 185.42 608, 256C608, 326.58 554.56, 384 488.88, 384z" fill="#727272" fill-opacity="1" class="Black" />
    </g>
  </g>
</svg>