<?xml version='1.0' encoding='UTF-8'?>
<svg viewBox="-2 0 32 32" xmlns="http://www.w3.org/2000/svg">
  <g transform="matrix(0.0625, 0, 0, 0.0625, 0, 0)">
    <path d="M400, 32L48, 32C21.49, 32 0, 53.49 0, 80L0, 432C0, 458.51 21.49, 480 48, 480L400, 480C426.51, 480 448, 458.51 448, 432L448, 80C448, 53.49 426.51, 32 400, 32zM416, 432C416, 440.822 408.822, 448 400, 448L48, 448C39.178, 448 32, 440.822 32, 432L32, 80C32, 71.178 39.178, 64 48, 64L400, 64C408.822, 64 416, 71.178 416, 80L416, 432zM188, 352L200, 352L200, 232L188, 232C181.373, 232 176, 226.627 176, 220L176, 212C176, 205.373 181.373, 200 188, 200L236, 200C242.627, 200 248, 205.373 248, 212L248, 352L260, 352C266.627, 352 272, 357.373 272, 364L272, 372C272, 378.627 266.627, 384 260, 384L188, 384C181.373, 384 176, 378.627 176, 372L176, 364C176, 357.373 181.373, 352 188, 352zM224, 112C206.327, 112 192, 126.327 192, 144C192, 161.673 206.327, 176 224, 176C241.673, 176 256, 161.673 256, 144C256, 126.327 241.673, 112 224, 112z" fill="#727272" fill-opacity="1" class="Black" />
  </g>
</svg>