<?xml version='1.0' encoding='UTF-8'?>
<svg viewBox="-4.5613 0.0025 32 31.9975" xmlns="http://www.w3.org/2000/svg">
  <g transform="matrix(0.0625, 0, 0, 0.0625, 0, 0)">
    <path d="M88.46, 479.84C69.16, 478.54 51.66, 467.93 39.58, 452.82L1.75, 405.54A8.007 8.007 0 0 1 3, 394.29L15.5, 384.29A7.983 7.983 0 0 1 26.73, 385.54L66.45, 435.19C74.14, 444.83 86.38, 449.6 98.87, 447.52C112.93, 445.18 123.59, 433.42 126.8, 419.53L203.65, 86.22C210.08, 58.32 232.55, 35.71 260.97, 32.45C284.02, 29.81 306.09, 39.04 320.35, 56.83L364.25, 111.75A7.995 7.995 0 0 1 363, 122.99L350.5, 132.99C347.05, 135.75 342.02, 135.19 339.27, 131.74L295.37, 76.82C287.67, 67.2 275.54, 62.43 263.08, 64.45C248.99, 66.74 238.25, 78.47 235.04, 92.4L157.49, 428.71C150.18, 460.4 121.39, 482.06 88.46, 479.84z" fill="#727272" fill-opacity="1" class="Black" />
  </g>
</svg>