<?xml version='1.0' encoding='UTF-8'?>
<svg viewBox="-2 -4.7992 32 32" xmlns="http://www.w3.org/2000/svg">
  <g transform="matrix(0.9988, 0, 0, 0.9988, 0, 0)">
    <g transform="matrix(0.0438, 0, 0, 0.0438, 0, 0)">
      <path d="M632, 0L616, 0C611.6, 0 608, 4.1 608, 9.1L608, 192L544, 192L544, 48C544, 39.2 536.8, 32 528, 32L368, 32C359.2, 32 352, 39.2 352, 48L352, 192L32, 192L32, 9.1C32, 4.1 28.4, 0 24, 0L8, 0C3.6, 0 0, 4.1 0, 9.1L0, 512L32, 512L32, 480L608, 480L608, 512L640, 512L640, 9.1C640, 4.1 636.4, 0 632, 0zM384, 64L512, 64L512, 192L384, 192L384, 64zM256, 448L128, 448L128, 320L256, 320L256, 448zM288, 448L288, 320L416, 320L416, 448L288, 448zM608, 448L448, 448L448, 304C448, 295.2 440.8, 288 432, 288L112, 288C103.2, 288 96, 295.2 96, 304L96, 448L32, 448L32, 224L608, 224L608, 448z" fill="#727272" fill-opacity="1" class="Black" />
    </g>
  </g>
</svg>