<?xml version='1.0' encoding='UTF-8'?>
<svg viewBox="-3.752 -2 32 32" xmlns="http://www.w3.org/2000/svg">
  <g transform="matrix(0.0547, 0, 0, 0.0547, 0, 0)">
    <path d="M299.39, 32C283.99, 32 269.39, 34.55 255.45, 38.23C228.22, 14.67 190.46, 0 148.62, 0C73.38, 0 11.08, 47.24 0.24, 108.86A16.51 16.51 0 0 0 16.8, 128L90.25, 128C57.94, 177.87 55.12, 238.52 85, 281.15C92.13, 291.32 104.58, 288.64 110.24, 282.99L193.37, 199.85C184.52, 256.85 167.74, 310.37 151.7, 352L131.19, 352C58.84, 352 0, 410.86 0, 483.2A28.85 28.85 0 0 0 28.81, 512L355.19, 512A28.85 28.85 0 0 0 384, 483.2C384, 421 340.38, 369 282.19, 355.59C291.89, 281.28 286.62, 208.51 280.29, 160L431.2, 160A16.51 16.51 0 0 0 447.76, 140.86C436.92, 79.25 374.62, 32 299.39, 32zM351.94, 480L32.06, 480A99.3 99.3 0 0 1 131.19, 384L252.81, 384A99.3 99.3 0 0 1 351.94, 480zM250.12, 352L185.85, 352C203.71, 303.53 216.54, 235.18 222.96, 170.28L233.23, 160L248, 160C254.26, 206.64 259.77, 279 250.12, 352zM220, 128L102.22, 245.76C83.53, 196.76 110.11, 124.4 175.22, 95.08A8 8 0 0 0 179.5, 84.86L173.5, 69.95A8 8 0 0 0 162.92, 65.49A169.86 169.86 0 0 0 117.24, 96L37.34, 96C53.78, 58.47 98.17, 32 148.62, 32C181.34, 32 211.83, 42.8 234.49, 62.42L247.25, 73.42C258.06, 70.62 278.69, 64 299.39, 64C349.84, 64 394.22, 90.48 410.66, 128z" fill="#727272" fill-opacity="1" class="Black" />
  </g>
</svg>