<?xml version='1.0' encoding='UTF-8'?>
<svg viewBox="-1.9974 -2.8231 31.9975 32" xmlns="http://www.w3.org/2000/svg">
  <g transform="matrix(0.9994, 0, 0, 0.9994, 0, 0)">
    <g transform="matrix(0.0515, 0, 0, 0.0515, 0, 0)">
      <path d="M429.33, 20.41C425.25, 17.53 420.5, 16 415.6, 16C407.66, 16 400.22, 19.98 395.7, 26.64C391.25, 33.2 390.35, 41.53 393.3, 48.94C399.26, 63.93 402.28, 79.65 402.28, 95.65C402.28, 136.76 383.11, 174.54 349.68, 199.31C343.79, 203.67 340.21, 210.32 339.86, 217.55C339.51, 224.79 342.43, 231.77 347.88, 236.7C371.95, 258.45 385.07, 288.48 385.01, 320C384.96, 342.15 371.49, 418.99 287.99, 430.29L287.99, 358.63L308.68, 379.32C314.93, 385.57 325.05, 385.57 331.31, 379.32C337.56, 373.07 337.56, 362.94 331.31, 356.7L310.62, 336L336, 336C344.84, 336 352, 328.84 352, 320C352, 311.16 344.84, 304 336, 304L310.62, 304L331.31, 283.31C337.56, 277.06 337.56, 266.93 331.31, 260.69C325.06, 254.45 314.93, 254.44 308.68, 260.69L288, 281.38L288, 16C288, 7.16 280.84, 0 272, 0C263.16, 0 256, 7.16 256, 16L256, 281.38L235.31, 260.69C229.06, 254.44 218.93, 254.44 212.68, 260.69C206.43, 266.94 206.43, 277.07 212.68, 283.31L233.37, 304L208, 304C199.16, 304 192, 311.16 192, 320C192, 328.84 199.16, 336 208, 336L233.38, 336L212.69, 356.69C206.44, 362.94 206.44, 373.07 212.69, 379.31C218.94, 385.56 229.06, 385.56 235.32, 379.31L256, 358.62L256, 430.21C201.27, 422.4 158.92, 376.55 158.92, 319.99C158.92, 288.34 172.13, 258.34 196.12, 236.68C201.57, 231.76 204.5, 224.78 204.14, 217.54C203.79, 210.31 200.21, 203.67 194.32, 199.31C160.88, 174.54 141.71, 136.75 141.71, 95.64C141.71, 79.65 144.73, 63.95 150.67, 48.98C153.61, 41.57 152.71, 33.23 148.26, 26.68C143.73, 20.02 136.29, 16.04 128.34, 16.04C123.43, 16.04 118.68, 17.57 114.59, 20.46C38.76, 74.11 -3.97, 161.4 0.29, 253.95C6.78, 394.77 125.57, 512 272, 512C421.98, 512 544, 390.53 544, 241.23C544, 153.73 501.13, 71.18 429.33, 20.41zM272, 480C126.79, 480 44.79, 362.34 33.81, 268.85L69.46, 300.05C75.84, 305.64 86.01, 305.44 92.02, 298.53C97.86, 291.89 97.18, 281.78 90.52, 275.95L32.53, 225.21C33.36, 212.83 35.48, 200.74 38.17, 188.81L68.67, 219.31C74.92, 225.56 85.04, 225.56 91.3, 219.31C97.55, 213.06 97.55, 202.93 91.3, 196.69L48.77, 154.16C62.54, 119.19 84.32, 87.55 113.29, 62.18A157.03 157.03 0 0 0 109.7, 95.66C109.7, 143.96 130.83, 188.54 168.01, 219.35C141.79, 246.23 126.91, 282.19 126.91, 319.38C126.91, 399.03 191.99, 463.84 271.99, 463.84C344.15, 463.84 416.81, 407.9 417.02, 320.01C417.11, 282.51 402.67, 246.64 375.97, 219.35C413.14, 188.54 434.27, 143.95 434.27, 95.66C434.27, 84.36 433.07, 73.18 430.69, 62.22C459.47, 87.51 481.24, 119.27 495.07, 154.3L452.67, 196.7C446.42, 202.95 446.42, 213.08 452.67, 219.32C458.92, 225.57 469.04, 225.57 475.3, 219.32L505.96, 188.66C508.71, 200.7 510.3, 213.03 511.13, 225.49L453.45, 275.96C446.79, 281.79 446.11, 291.9 451.95, 298.54C458.01, 305.5 468.19, 305.6 474.51, 300.06L510.25, 268.79C496.48, 387.49 394.96, 480 272, 480z" fill="#727272" fill-opacity="1" class="Black" />
    </g>
  </g>
</svg>