<?xml version='1.0' encoding='UTF-8'?>
<svg viewBox="-2 -4.7992 32 32" xmlns="http://www.w3.org/2000/svg">
  <g transform="matrix(0.9988, 0, 0, 0.9988, 0, 0)">
    <g transform="matrix(0.0438, 0, 0, 0.0438, 0, 0)">
      <path d="M556.44, 93.48C548.9, 88.45 544, 80.33 544, 71.26L544, 8C544, 3.58 540.42, 0 536, 0L520, 0C515.58, 0 512, 3.58 512, 8L512, 70.31C512, 90.47 522.28, 109.09 539.02, 120.32C582.22, 149.3 608, 197.62 608, 249.68L608, 280C608, 284.42 611.58, 288 616, 288L632, 288C636.42, 288 640, 284.42 640, 280L640, 249.69C640, 186.76 608.76, 128.38 556.44, 93.48zM503.57, 173.61C528.9, 190.71 544, 219.1 544, 249.69L544, 280C544, 284.42 547.58, 288 552, 288L568, 288C572.42, 288 576, 284.42 576, 280L576, 249.69C576, 207.73 554.92, 168.81 519.69, 145.91C494.07, 129.25 480, 99.53 480, 68.97L480, 8C480, 3.58 476.42, 0 472, 0L456, 0C451.58, 0 448, 3.58 448, 8L448, 75.03C448, 115.35 470.15, 151.05 503.57, 173.61zM616, 352L278.94, 352C180.3, 352 83.65, 379.72 0, 432C83.65, 484.28 180.3, 512 278.94, 512L616, 512C629.25, 512 640, 501.25 640, 488L640, 376C640, 362.74 629.25, 352 616, 352zM278.94, 480C205.09, 480 132.61, 463.53 66.43, 432C126.54, 403.36 191.93, 387.86 258.75, 385.12L340.05, 480L278.94, 480zM382.21, 480L299.94, 384L417.79, 384L500.06, 480L382.21, 480zM608, 480L542.21, 480L459.94, 384L608, 384L608, 480z" fill="#727272" fill-opacity="1" class="Black" />
    </g>
  </g>
</svg>