<?xml version='1.0' encoding='UTF-8'?>
<svg viewBox="-1.9549 -4.7979 32 31.9975" xmlns="http://www.w3.org/2000/svg">
  <g transform="matrix(0.9989, 0, 0, 0.9989, 0, 0)">
    <g transform="matrix(0.0438, 0, 0, 0.0438, 0, 0)">
      <path d="M467.91, 216.4L456.6, 205.09A8 8 0 0 0 445.28, 205.09L417, 233.37L388.71, 205.09A8 8 0 0 0 377.4, 205.09L366.09, 216.4A8 8 0 0 0 366.09, 227.71L394.37, 256L366.09, 284.28A8 8 0 0 0 366.09, 295.6L377.4, 306.91A8 8 0 0 0 388.71, 306.91L417, 278.63L445.28, 306.91A8 8 0 0 0 456.6, 306.91L467.91, 295.6A8 8 0 0 0 467.91, 284.28L439.62, 256L467.91, 227.71A8 8 0 0 0 467.91, 216.4zM609, 128L481.68, 128C462.15, 118.11 440.39, 112 417, 112C393.61, 112 371.85, 118.11 352.32, 128L242.93, 128A128.18 128.18 0 0 0 207.77, 132.92L24.21, 185.37A32 32 0 0 0 1, 216.14L1, 295.86A32 32 0 0 0 24.21, 326.63L207.77, 379.07A127.81 127.81 0 0 0 242.93, 384L352.32, 384C371.85, 393.89 393.61, 400 417, 400C440.39, 400 462.15, 393.89 481.68, 384L609, 384A32 32 0 0 0 641, 352L641, 160A32 32 0 0 0 609, 128zM242.93, 352A95.64 95.64 0 0 1 216.56, 348.3L33, 295.86L33, 216.14L216.56, 163.69A95.9 95.9 0 0 1 242.93, 160L309.76, 160A143.73 143.73 0 0 0 309.76, 352zM417, 368A112 112 0 1 1 529, 256A112.12 112.12 0 0 1 417, 368zM609, 352L524.24, 352A143.73 143.73 0 0 0 524.24, 160L609, 160z" fill="#727272" fill-opacity="1" class="Black" />
    </g>
  </g>
</svg>