<?xml version='1.0' encoding='UTF-8'?>
<svg viewBox="-0.735 -3.7888 32 32" xmlns="http://www.w3.org/2000/svg">
  <g transform="matrix(0.0477, 0, 0, 0.0477, 0, 0)">
    <path d="M416.54, 0L399.54, 0A8 8 0 0 0 392, 5.32L215.72, 501.32A8 8 0 0 0 223.27, 512L240.27, 512A8 8 0 0 0 247.81, 506.68L424.1, 10.68A8 8 0 0 0 416.54, 0zM285.54, 96L268.52, 96A8 8 0 0 0 261.02, 101.19L160, 371L59, 101.19A8 8 0 0 0 51.49, 96L34.43, 96A8 8 0 0 0 26.94, 106.8L140.74, 410.8A8 8 0 0 0 148.24, 416L171.77, 416A8 8 0 0 0 179.26, 410.8L293.07, 106.8A8 8 0 0 0 285.57, 96zM613.06, 405.2L499.26, 101.2A8 8 0 0 0 491.77, 96L468.24, 96A8 8 0 0 0 460.74, 101.2L346.94, 405.2A8 8 0 0 0 354.43, 416L371.49, 416A8 8 0 0 0 378.98, 410.8L413, 320L547, 320L581, 410.8A8 8 0 0 0 588.5, 416L605.55, 416A8 8 0 0 0 613.06, 405.2zM425, 288L480, 141L535, 288z" fill="#727272" fill-opacity="1" class="Black" />
  </g>
</svg>