<?xml version='1.0' encoding='UTF-8'?>
<svg viewBox="-2 -2 32 32" xmlns="http://www.w3.org/2000/svg">
  <g transform="matrix(0.0547, 0, 0, 0.0547, 0, 0)">
    <path d="M505.24, 274.49L456.84, 177.69A32 32 0 0 0 428.22, 160L128, 160L128, 144C128, 104.23 157.25, 71.4 195.34, 65.28C202.29, 83.22 219.6, 96 240, 96L304, 96C330.51, 96 352, 74.51 352, 48C352, 21.49 330.51, 0 304, 0L240, 0C218.63, 0 200.73, 14.06 194.52, 33.36C139.17, 40.12 96, 86.87 96, 144L96, 160L83.78, 160A32 32 0 0 0 55.16, 177.69L6.76, 274.49A63.874 63.874 0 0 0 0, 303.11L0, 352C0, 369.67 14.33, 384 32, 384L192, 384L192, 480L136, 480C131.58, 480 128, 483.58 128, 488L128, 504C128, 508.42 131.58, 512 136, 512L376, 512C380.42, 512 384, 508.42 384, 504L384, 488C384, 483.58 380.42, 480 376, 480L320, 480L320, 384L480, 384C497.67, 384 512, 369.67 512, 352L512, 303.11C512, 293.17 509.69, 283.37 505.24, 274.49zM240, 32L304, 32C312.82, 32 320, 39.18 320, 48C320, 56.82 312.82, 64 304, 64L240, 64C231.18, 64 224, 56.82 224, 48C224, 39.18 231.18, 32 240, 32zM83.78, 192L428.23, 192L476.23, 288L35.78, 288L83.78, 192zM288, 480L224, 480L224, 384L288, 384L288, 480zM480, 352L32, 352L32, 320L480, 320L480, 352z" fill="#727272" fill-opacity="1" class="Black" />
  </g>
</svg>