<?xml version='1.0' encoding='UTF-8'?>
<svg viewBox="-1.9974 -4.2089 31.9975 32" xmlns="http://www.w3.org/2000/svg">
  <g transform="matrix(0.999, 0, 0, 0.999, 0, 0)">
    <g transform="matrix(0.0461, 0, 0, 0.0461, 0, 0)">
      <path d="M248.4, 224.84L192.28, 195.3C197.03, 186.13 202.93, 177.23 211.12, 169.16C247.87, 132.92 252.93, 68.89 218.45, 30.25C200.55, 10.21 176.29, 0 151.92, 0C130.29, 0 108.59, 8.04 91.18, 24.39C14.08, 96.82 -17.32, 203.49 9.33, 302.79C30.18, 380.45 84.84, 384 100.09, 384C177.96, 384 199.34, 304.23 187.94, 261.89C183.61, 245.64 181.97, 239.57 182.93, 226.17L234.8, 253.47C239.95, 256.18 243.2, 261.72 243.2, 267.78L243.2, 504C243.2, 508.42 246.6, 512 250.8, 512L266, 512C270.2, 512 273.6, 508.42 273.6, 504L273.6, 267.77C273.6, 249.59 263.84, 232.97 248.4, 224.84zM155.68, 259.29L158.7, 270.61C180.56, 351.85 63.5, 386.98 41.62, 305.37L38.59, 294.1C15.14, 206.7 43.05, 112.5 111.42, 48.27C122.59, 37.78 136.97, 32 151.92, 32C186.45, 32 214.7, 62.46 212.7, 99.63C211.78, 116.69 204.6, 132.36 192.48, 143.74C158.57, 175.57 144.81, 218.79 155.68, 259.29zM516.82, 24.39C499.41, 8.04 477.71, 0 456.08, 0C431.72, 0 407.45, 10.21 389.57, 30.25C355.09, 68.89 360.15, 132.92 396.9, 169.16C405.09, 177.24 410.99, 186.14 415.73, 195.3L359.61, 224.84C344.16, 232.97 334.41, 249.59 334.41, 267.77L334.41, 504C334.41, 508.42 337.81, 512 342.01, 512L357.21, 512C361.41, 512 364.81, 508.42 364.81, 504L364.81, 267.78C364.81, 261.72 368.06, 256.18 373.22, 253.47L425.08, 226.17C426.04, 239.57 424.4, 245.64 420.07, 261.89C408.66, 304.23 430.04, 384 507.91, 384C523.16, 384 577.82, 380.45 598.67, 302.79C625.32, 203.49 593.92, 96.81 516.82, 24.39zM569.42, 294.09L566.39, 305.36C544.5, 386.97 427.44, 351.85 449.31, 270.6L452.33, 259.28C463.19, 218.78 449.44, 175.57 415.52, 143.73C403.4, 132.35 396.22, 116.68 395.3, 99.62C393.3, 62.45 421.55, 31.99 456.08, 31.99C471.03, 31.99 485.41, 37.77 496.58, 48.26C564.96, 112.5 592.87, 206.69 569.42, 294.09z" fill="#727272" fill-opacity="1" class="Black" />
    </g>
  </g>
</svg>