<?xml version='1.0' encoding='UTF-8'?>
<svg viewBox="-1.9999 -1.549 31.9975 32" xmlns="http://www.w3.org/2000/svg">
  <g transform="matrix(0.999, 0, 0, 0.999, 0, 0)">
    <g transform="matrix(0.0565, 0, 0, 0.0565, 0, 0)">
      <path d="M248, 8C111, 8 0, 119 0, 256C0, 393 111, 504 248, 504C385, 504 496, 393 496, 256C496, 119 385, 8 248, 8zM248, 472C128.9, 472 32, 375.1 32, 256C32, 136.9 128.9, 40 248, 40C367.1, 40 464, 136.9 464, 256C464, 375.1 367.1, 472 248, 472zM304, 308C304, 288.8 275.2, 266.5 232.5, 264C228.7, 263.6 225.1, 266.4 224.3, 270.2C223.4, 274 225.4, 277.9 229, 279.4L245.9, 286.6C258.9, 292.1 266.7, 300.1 266.7, 308.1C266.7, 316.1 258.9, 324.1 246, 329.6L229, 336.8C223.3, 339.2 223, 349 229, 351.6L245.9, 358.8C258.9, 364.3 266.7, 372.3 266.7, 380.3C266.7, 388.3 258.9, 396.3 246, 401.8L229, 409C225.4, 410.5 223.4, 414.4 224.3, 418.2C225.1, 421.8 228.4, 424.4 232.1, 424.4L232.6, 424.4C275.4, 421.9 304.1, 399.6 304.1, 380.4C304.1, 367.4 290.7, 353.1 268.9, 344.4C290.6, 335.3 304, 321 304, 308zM168, 152C144.2, 152 115.3, 181.3 112, 223.4C111.7, 227.1 114, 230.6 117.6, 231.7C121.1, 232.7 125.1, 231.2 126.9, 228L136.4, 211C144.1, 197.3 155.6, 189.4 167.9, 189.4C180.2, 189.4 191.7, 197.3 199.4, 211L208.9, 228C211, 231.7 215.1, 232.7 218.2, 231.7C221.8, 230.6 224.1, 227.2 223.8, 223.4C220.7, 181.3 191.8, 152 168, 152zM328, 152C304.2, 152 275.3, 181.3 272, 223.4C271.7, 227.1 274, 230.6 277.6, 231.7C281.1, 232.7 285.1, 231.2 286.9, 228L296.4, 211C304.1, 197.3 315.6, 189.4 327.9, 189.4C340.2, 189.4 351.7, 197.3 359.4, 211L368.9, 228C371, 231.7 375.1, 232.7 378.2, 231.7C381.8, 230.6 384.1, 227.2 383.8, 223.4C380.7, 181.3 351.8, 152 328, 152z" fill="#727272" fill-opacity="1" class="Black" />
    </g>
  </g>
</svg>