<?xml version='1.0' encoding='UTF-8'?>
<svg viewBox="-2 -1.7764 32 32" xmlns="http://www.w3.org/2000/svg">
  <g transform="matrix(0.9993, 0, 0, 0.9993, 0, 0)">
    <g transform="matrix(0.0556, 0, 0, 0.0556, 0, 0)">
      <path d="M499.6, 392.3C494.4, 378.7 484.4, 368 472.2, 360.5C487.2, 328.7 496, 293.5 496, 256C496, 119 385, 8 248, 8C111, 8 0, 119 0, 256C0, 393 111, 504 248, 504C284.1, 504 318.2, 495.9 349.2, 481.9C358.7, 493.5 373.9, 499.7 389.9, 495.6L455.3, 478.7C492.8, 468.9 513.6, 428.9 499.6, 392.3zM323.2, 402.4L337, 452.3C309.8, 464.8 279.8, 472 248, 472C128.9, 472 32, 375.1 32, 256C32, 136.9 128.9, 40 248, 40C367.1, 40 464, 136.9 464, 256C464, 289.9 456, 321.9 442, 350.4C441, 350.3 423.4, 320 385.9, 320C344, 320 311.4, 359.8 323.2, 402.4zM447.2, 447.7L381.8, 464.6C377.8, 465.7 373.3, 463.3 372, 459L354, 393.9C348.8, 375 360.9, 355.6 380.8, 352.5C398.5, 349.7 414.8, 362 419.4, 378.5L421.2, 385.1L427.9, 383.4C442.2, 379.7 462.6, 385.1 469.7, 403.8C476.9, 422.6 466.2, 442.7 447.2, 447.7zM304, 308C304, 288.8 275.3, 266.5 232.5, 264C228.7, 263.6 225.1, 266.4 224.3, 270.2C223.4, 274 225.4, 277.9 229, 279.4L245.9, 286.6C258.9, 292.1 266.6, 300.1 266.6, 308.1C266.6, 316.1 258.9, 324.1 245.9, 329.6L228.9, 336.8C223.2, 339.2 222.9, 349 228.9, 351.6L245.8, 358.8C258.8, 364.3 266.5, 372.3 266.5, 380.3C266.5, 388.3 258.8, 396.3 245.8, 401.8L228.8, 409C225.2, 410.5 223.2, 414.4 224.1, 418.2C224.9, 421.8 228.2, 424.4 231.9, 424.4L232.4, 424.4C275.2, 421.9 303.9, 399.6 303.9, 380.4C303.9, 367.4 290.5, 353.1 268.7, 344.4C290.6, 335.3 304, 321 304, 308zM168, 176C150.3, 176 136, 190.3 136, 208C136, 225.7 150.3, 240 168, 240C185.7, 240 200, 225.7 200, 208C200, 190.3 185.7, 176 168, 176zM403.8, 222.1C399.8, 196.9 369.6, 180 344, 180C318.4, 180 288.1, 196.9 284.2, 222.1C282.4, 233 295.5, 240.5 304, 232.9L313.5, 224.4C328.3, 211.2 359.7, 211.2 374.5, 224.4L384, 232.9C392.6, 240.4 405.6, 233.1 403.8, 222.1z" fill="#727272" fill-opacity="1" class="Black" />
    </g>
  </g>
</svg>