<?xml version='1.0' encoding='UTF-8'?>
<svg viewBox="-1.9998 -4.8014 31.9975 32" xmlns="http://www.w3.org/2000/svg">
  <g transform="matrix(0.9988, 0, 0, 0.9988, 0, 0)">
    <g transform="matrix(0.0438, 0, 0, 0.0438, 0, 0)">
      <path d="M608, 0L345.5, 0C330.6, 0 317.7, 10.3 314.3, 24.8L230.8, 386.6L142.6, 474.8C132.1, 485.2 112, 476.8 112, 462.1L112, 356.6L124, 365.8C131.4, 371.5 140.2, 374.5 149.3, 374.5C172.8, 374.5 192, 354.6 192, 330.2L192, 278C192, 253.6 172.8, 233.7 149.3, 233.7C140.1, 233.7 131.4, 236.7 124, 242.4L112, 251.6L112, 224C112, 179.8 76.2, 144 32, 144L8, 144C3.6, 144 0, 147.6 0, 152L0, 168C0, 172.4 3.6, 176 8, 176L32, 176C58.5, 176 80, 197.5 80, 224L80, 251.4L68, 242.2C60.6, 236.5 51.8, 233.5 42.7, 233.5C19.2, 233.6 0, 253.5 0, 277.9L0, 330.1C0, 354.5 19.2, 374.4 42.7, 374.4C51.9, 374.4 60.6, 371.4 68, 365.7L80, 356.5L80, 459.6C80, 485.3 98.3, 508.5 123.8, 511.6C139.3, 513.4 154.3, 508.2 165.2, 497.3L253.4, 409.1L615.2, 325.6C629.7, 322.2 640, 309.3 640, 294.4L640, 32C640, 14.3 625.7, 0 608, 0zM48.6, 340.3C41.5, 345.7 32, 339.9 32, 330.1L32, 277.9C32, 268.1 41.5, 262.3 48.6, 267.7L96, 304L143.4, 267.7C150.5, 262.3 160, 268.1 160, 277.9L160, 330.1C160, 339.9 150.5, 345.7 143.4, 340.3L96, 304zM585.4, 32L476, 141.4L366.6, 32zM340.9, 51.6L453.4, 164L273.5, 343.9zM296.1, 366.5L476, 186.6L588.4, 299zM608, 273.4L498.6, 164L608, 54.6z" fill="#727272" fill-opacity="1" class="Black" />
    </g>
  </g>
</svg>