<?xml version='1.0' encoding='UTF-8'?>
<svg viewBox="-1.9975 -3.5518 32 32" xmlns="http://www.w3.org/2000/svg">
  <g transform="matrix(0.0486, 0, 0, 0.0486, 0, 0)">
    <path d="M463.99, 200C450.74, 200 439.99, 210.74 439.99, 224C439.99, 237.25 450.74, 248 463.99, 248C477.24, 248 487.99, 237.25 487.99, 224C487.99, 210.74 477.24, 200 463.99, 200zM562.6, 276.02C571.73, 258.76 576.94, 239.1 575.83, 217.98C572.66, 157.41 518.3, 112 457.65, 112L448.28, 112C395.46, 112 344.02, 95.75 300.54, 65.76C269.69, 44.48 232.32, 32 191.99, 32C177.43, 32 162.49, 33.62 147.32, 37.05C76.36, 53.08 19.49, 110.89 4.43, 182.07C-14.18, 270.03 27.63, 350.41 95.99, 390.03L95.99, 472C95.99, 476.42 99.57, 480 103.99, 480L119.99, 480C124.41, 480 127.99, 476.42 127.99, 472L127.99, 405.07C148.01, 412.15 169.55, 416 191.99, 416C202.93, 416 213.56, 414.86 223.99, 413.09L223.99, 472C223.99, 476.42 227.57, 480 231.99, 480L247.99, 480C252.41, 480 255.99, 476.42 255.99, 472L255.99, 404.56C270.22, 399.49 283.87, 393.18 296.33, 385.06C342.08, 355.25 393.88, 336 448.48, 336L463.99, 336C466.57, 336 468.98, 335.39 471.52, 335.22L545.96, 471.66C548.8, 476.91 554.24, 480 559.99, 480C561.49, 480 562.99, 479.8 564.49, 479.36C571.71, 477.24 576.49, 470.36 575.96, 462.86L562.6, 276.02zM504.15, 328.16C514.69, 324.09 524.33, 318.5 533.05, 311.62L538.78, 391.69L504.15, 328.16zM522.03, 279.06C506.77, 295.14 486.16, 304 463.99, 304L448.48, 304C391.18, 304 334.12, 322.25 278.86, 358.25C253.01, 375.1 222.97, 384 191.99, 384C143.52, 384 98.18, 362.37 67.62, 324.67C37.06, 286.96 25.44, 237.4 35.74, 188.69C48.18, 129.88 95.86, 81.49 154.38, 68.27C166.9, 65.44 179.56, 64 191.99, 64C224.46, 64 255.71, 73.72 282.37, 92.1C331.6, 126.05 388.97, 144 448.28, 144L457.65, 144C503.01, 144 541.69, 177.94 543.87, 219.65C545.04, 241.89 537.28, 262.99 522.03, 279.06z" fill="#727272" fill-opacity="1" class="Black" />
  </g>
</svg>