<?xml version='1.0' encoding='UTF-8'?>
<svg viewBox="-4.6231 -2 32 32" xmlns="http://www.w3.org/2000/svg">
  <g transform="matrix(0.0547, 0, 0, 0.0547, 0, 0)">
    <path d="M413.7, 237.8L341.8, 21.8C337.3, 8.6 327.2, 0 316, 0L112, 0C101.4, 0 91.7, 7.7 87, 19.9L3, 235.9C-6.3, 259.8 7.2, 288 28, 288L120.7, 288C86.3, 327.8 64, 383.9 64, 423.6C64, 449.7 73.7, 473.9 90.2, 493.7C100.1, 505.6 116.3, 512 132.9, 512L283.2, 512C299.8, 512 316, 505.6 325.9, 493.7C342.4, 473.9 352.1, 449.8 352.1, 423.6C352.1, 383.9 329.8, 327.8 295.4, 288L388, 288C408.1, 288 421.6, 261.6 413.7, 237.8zM320, 423.6C320, 441.2 313.5, 458.4 301.2, 473.2C297.8, 477.3 290.7, 480 283.2, 480L132.9, 480C125.4, 480 118.3, 477.3 114.9, 473.2C102.6, 458.4 96.1, 441.2 96.1, 423.6C96.1, 381.9 127.1, 317.6 166.5, 288L249.6, 288C289, 317.6 320, 381.9 320, 423.6zM377.4, 256L38.6, 256C34.3, 256 31.3, 251.8 32.7, 247.8C32.7, 247.7 32.8, 247.6 32.8, 247.5L116.7, 32L311.4, 32L383.3, 247.9L383.3, 248C384.7, 252 381.6, 256 377.4, 256z" fill="#727272" fill-opacity="1" class="Black" />
  </g>
</svg>