<?xml version='1.0' encoding='UTF-8'?>
<svg viewBox="-2 -4.0988 32 32" xmlns="http://www.w3.org/2000/svg">
  <g transform="matrix(0.9988, 0, 0, 0.9988, 0, 0)">
    <g transform="matrix(0.0438, 0, 0, 0.0438, 0, 0)">
      <path d="M266.34, 277.65L277.65, 266.34C280.77, 263.22 280.77, 258.15 277.65, 255.03L230.62, 208L277.65, 160.97C280.77, 157.85 280.77, 152.78 277.65, 149.66L266.34, 138.35C263.22, 135.23 258.15, 135.23 255.03, 138.35L191.03, 202.35C187.91, 205.47 187.91, 210.54 191.03, 213.66L255.03, 277.66C258.16, 280.78 263.22, 280.78 266.34, 277.65zM362.34, 266.34L373.65, 277.65C376.77, 280.77 381.84, 280.77 384.96, 277.65L448.96, 213.65C452.08, 210.53 452.08, 205.46 448.96, 202.34L384.96, 138.34C381.84, 135.22 376.77, 135.22 373.65, 138.34L362.34, 149.65C359.22, 152.77 359.22, 157.84 362.34, 160.96L409.38, 208L362.35, 255.03A7.994 7.994 0 0 0 362.34, 266.34zM624, 368L576, 368L576, 96C576, 60.7 547.28, 32 512, 32L128, 32C92.72, 32 64, 60.7 64, 96L64, 368L16, 368C7.16, 368 0, 375.16 0, 384L0, 432C0, 476.11 35.88, 512 80, 512L560, 512C604.12, 512 640, 476.11 640, 432L640, 384C640, 375.16 632.84, 368 624, 368zM96, 96C96, 78.33 110.33, 64 128, 64L512, 64C529.67, 64 544, 78.33 544, 96L544, 368L391.13, 368C387.07, 368 384.11, 371.13 383.21, 375.09C379.98, 389.35 367.23, 400 352, 400L288, 400C272.77, 400 260.02, 389.35 256.79, 375.09C255.89, 371.13 252.93, 368 248.87, 368L96, 368L96, 96zM608, 432C608, 458.47 586.47, 480 560, 480L80, 480C53.53, 480 32, 458.47 32, 432L32, 400L226.75, 400C233.34, 418.62 251.13, 432 272, 432L368, 432C388.88, 432 406.66, 418.62 413.25, 400L608, 400L608, 432z" fill="#727272" fill-opacity="1" class="Black" />
    </g>
  </g>
</svg>