<?xml version='1.0' encoding='UTF-8'?>
<svg viewBox="-1.9998 -3.5563 31.9975 32" xmlns="http://www.w3.org/2000/svg">
  <g transform="matrix(0.0486, 0, 0, 0.0486, 0, 0)">
    <path d="M288, 0C126.5, 0 0, 77.31 0, 176C0, 222.78 29.06, 266.62 81.81, 299.45C86.35, 302.27 91.32, 305.03 96.51, 307.79C93.28, 333.29 117.4, 352 144, 352A55.73 55.73 0 0 0 163.65, 348.42C180.91, 364.17 192.72, 384.83 191.97, 416.19C191.11, 451.85 161, 480 125.38, 480L40, 480A8 8 0 0 0 32, 488L32, 504A8 8 0 0 0 40, 512L124.61, 512C178.94, 512 224.08, 467.5 224, 413.17C224, 384.12 215.59, 361.89 202.94, 344.33A464.82 464.82 0 0 0 288, 352C449.5, 352 576, 274.69 576, 176C576, 77.31 449.5, 0 288, 0zM288, 320A422.74 422.74 0 0 1 191.64, 309C189.78, 288.33 169.29, 272 144, 272A53.72 53.72 0 0 0 114.36, 280.76C109, 277.96 103.36, 275.16 98.72, 272.3C55.69, 245.52 32, 211.33 32, 176C32, 97.94 149.22, 32 288, 32C426.78, 32 544, 97.94 544, 176C544, 254.06 426.78, 320 288, 320z" fill="#727272" fill-opacity="1" class="Black" />
  </g>
</svg>