<?xml version='1.0' encoding='UTF-8'?>
<svg viewBox="-1.9999 -1.549 31.9975 32" xmlns="http://www.w3.org/2000/svg">
  <g transform="matrix(0.999, 0, 0, 0.999, 0, 0)">
    <g transform="matrix(0.0565, 0, 0, 0.0565, 0, 0)">
      <path d="M248, 8C111, 8 0, 119 0, 256C0, 393 111, 504 248, 504C385, 504 496, 393 496, 256C496, 119 385, 8 248, 8zM400.7, 408.7C380.9, 428.5 357.7, 444.1 332, 455C305.4, 466.3 277.1, 472 247.9, 472C218.7, 472 190.4, 466.3 163.8, 455C138.1, 444.1 115, 428.5 95.1, 408.7C75.3, 388.9 59.7, 365.7 48.8, 340C37.5, 313.4 31.8, 285.1 31.8, 255.9C31.8, 226.7 37.5, 198.4 48.8, 171.8C59.7, 146.1 75.3, 123 95.1, 103.1C114.9, 83.3 138.1, 67.7 163.8, 56.8C190.4, 45.5 218.7, 39.8 247.9, 39.8C277.1, 39.8 305.4, 45.5 332, 56.8C357.7, 67.7 380.8, 83.3 400.7, 103.1C420.5, 122.9 436.1, 146.1 447, 171.8C458.3, 198.4 464, 226.7 464, 255.9C464, 285.1 458.3, 313.4 447, 340C436.2, 365.8 420.6, 388.9 400.7, 408.7zM281.8, 206.3L361.8, 254.3C373.3, 261.1 385.8, 246.7 377.2, 236.3L343.6, 196L377.2, 155.7C385.8, 145.4 373.4, 130.9 361.8, 137.7L281.8, 185.7C274.1, 190.4 274.1, 201.6 281.8, 206.3zM134.2, 254.3L214.2, 206.3C222, 201.6 222, 190.4 214.2, 185.7L134.2, 137.7C122.6, 130.8 110.2, 145.4 118.8, 155.7L152.4, 196L118.8, 236.3C110.1, 246.7 122.6, 261.1 134.2, 254.3zM383, 288L113, 288C103.4, 288 95.9, 296.4 97.1, 306C105.9, 377 166.5, 432 240, 432L256, 432C329.4, 432 390, 377 398.9, 306C400.1, 296.4 392.6, 288 383, 288zM256, 400L240, 400C189.8, 400 146.5, 366.7 132.6, 320L363.4, 320C349.5, 366.7 306.2, 400 256, 400z" fill="#727272" fill-opacity="1" class="Black" />
    </g>
  </g>
</svg>