<?xml version='1.0' encoding='UTF-8'?>
<svg viewBox="-2 -0.2492 32 32" xmlns="http://www.w3.org/2000/svg">
  <g transform="matrix(0.0547, 0, 0, 0.0547, 0, 0)">
    <path d="M512, 253.21C512, 243.13 506.19, 234.08 497.23, 230.17L271.9, 131.33C261.84, 126.9 250.16, 126.9 240.09, 131.33L14.81, 230.15C5.81, 234.08 0, 243.13 0, 253.21C0, 263.29 5.81, 272.34 14.77, 276.25L114.5, 320L14.8, 363.73C5.81, 367.65 0, 376.7 0, 386.79C0, 396.87 5.81, 405.92 14.77, 409.83L240.09, 508.65C245.15, 510.87 250.57, 511.99 255.99, 511.99C261.41, 511.99 266.83, 510.88 271.89, 508.65L497.18, 409.84C506.18, 405.91 511.99, 396.86 511.99, 386.78C511.99, 376.69 506.18, 367.64 497.22, 363.72L397.5, 319.97L497.19, 276.24C506.19, 272.33 512, 263.28 512, 253.21zM466.81, 386.78L258.75, 478.04C256.94, 478.82 255.01, 478.82 253.27, 478.04L45.23, 386.78L156, 338.2L240.1, 375.09C245.16, 377.31 250.58, 378.43 256, 378.43C261.42, 378.43 266.84, 377.32 271.9, 375.09L356.02, 338.19L466.81, 386.78zM258.74, 344.47C256.93, 345.25 255, 345.25 253.26, 344.47L45.23, 253.21L253.26, 161.95C255.07, 161.17 257, 161.17 258.74, 161.95L466.77, 253.21L258.74, 344.47zM504, 64L296, 64C291.58, 64 288, 67.58 288, 72L288, 88C288, 92.42 291.58, 96 296, 96L504, 96C508.42, 96 512, 92.42 512, 88L512, 72C512, 67.58 508.42, 64 504, 64z" fill="#727272" fill-opacity="1" class="Black" />
  </g>
</svg>