<?xml version='1.0' encoding='UTF-8'?>
<svg viewBox="-1.9974 -3.5564 31.9975 32" xmlns="http://www.w3.org/2000/svg">
  <g transform="matrix(0.0486, 0, 0, 0.0486, 0, 0)">
    <path d="M546.2, 9.7C543.3, 3.2 537.6, 0 531.9, 0C526.6, 0 521.2, 2.8 517.9, 8.5C486.9, 62.4 431.4, 96 368, 96L288, 96C182, 96 96, 182 96, 288C96, 308.9 99.4, 328.9 105.6, 347.7C29.3, 413 1.4, 489.4 0.9, 490.7C-2, 499 2.4, 508.2 10.7, 511.1C18.6, 513.9 28.1, 510 31.1, 501.3C31.5, 500.1 55, 436.2 118.7, 378.6C151.1, 438.9 214.7, 480 288, 480C294.9, 480 301.7, 479.6 308.4, 478.9C465.5, 467.5 576, 326.8 576, 154.3C576, 104.1 565.2, 52.1 546.2, 9.7zM305, 447.1C299.1, 447.7 293.4, 448 288, 448C224.7, 448 170.4, 410.8 144.5, 357.4C196.3, 319 268.6, 288 368, 288C376.8, 288 384, 280.8 384, 272C384, 263.2 376.8, 256 368, 256C265.2, 256 189, 287 133.2, 326.4C130.1, 314 128, 301.3 128, 288C128, 199.8 199.8, 128 288, 128L368, 128C431.3, 128 489, 99.6 527.7, 50.8C538.2, 83.1 544, 119.5 544, 154.3C544, 313.9 443.9, 437 305, 447.1z" fill="#727272" fill-opacity="1" class="Black" />
  </g>
</svg>