<?xml version='1.0' encoding='UTF-8'?>
<svg viewBox="-1.9974 -3.5564 31.9975 32" xmlns="http://www.w3.org/2000/svg">
  <g transform="matrix(0.0486, 0, 0, 0.0486, 0, 0)">
    <path d="M426.2, 205.2C412.3, 193.6 378.5, 176.7 336, 219.7C293.4, 176.7 259.6, 193.6 245.8, 205.2C218.3, 228.2 216.9, 269.4 241.5, 294.3L326.2, 379.9C331.6, 385.4 340.5, 385.5 346, 379.9L430.7, 294.3C455.2, 269.4 453.7, 228.2 426.2, 205.2zM407.8, 271.8L336, 344.4L264.2, 271.8C254, 261.5 251.9, 241.8 266.3, 229.8C280, 218.3 297.5, 226.4 304.7, 233.5L336.1, 265.2L367.5, 233.5C374.6, 226.3 392.1, 218.3 405.9, 229.8C420.1, 241.8 418.1, 261.4 407.8, 271.8zM546.2, 9.7C543.3, 3.2 537.6, 0 531.9, 0C526.6, 0 521.2, 2.8 517.9, 8.5C486.9, 62.4 431.4, 96 368, 96L288, 96C182, 96 96, 182 96, 288C96, 308.7 99.4, 328.6 105.4, 347.2C29.3, 412.2 2, 487.5 0.9, 490.7C-2, 499 2.4, 508.1 10.7, 511.1C18.3, 513.8 28, 510.3 31.1, 501.3C31.3, 500.6 55.3, 435.9 118.6, 378.4C134.1, 407.4 193.8, 491 308.4, 478.9C465.5, 467.6 576, 326.8 576, 154.3C576, 104.1 565.2, 52.1 546.2, 9.7zM305, 447.1C208, 457.3 128, 380.7 128, 288C128, 199.8 199.8, 128 288, 128L368, 128C431.3, 128 489, 99.6 527.7, 50.8C538.2, 83.1 544, 119.5 544, 154.3C544, 313.9 443.9, 437 305, 447.1z" fill="#727272" fill-opacity="1" class="Black" />
  </g>
</svg>