<?xml version='1.0' encoding='UTF-8'?>
<svg viewBox="-1.9975 -2 32 32" xmlns="http://www.w3.org/2000/svg">
  <g transform="matrix(0.0547, 0, 0, 0.0547, 0, 0)">
    <path d="M489.038, 22.963C473.784, 7.709 454.948, 0 437.954, 0C429.22, 0 420.974, 2.035 413.947, 6.129C355.035, 40.444 232.702, -46.954 92.874, 92.874C-46.948, 232.697 40.441, 355.041 6.129, 413.945C-5.93, 434.647 -0.131, 465.944 22.962, 489.038C46.042, 512.118 77.34, 517.937 98.057, 505.87C156.959, 471.56 279.302, 558.951 419.125, 419.127C558.949, 279.304 471.56, 156.96 505.871, 98.056C517.93, 77.354 512.132, 46.057 489.038, 22.963zM478.22, 81.95C433.674, 158.425 527.886, 265.113 396.499, 396.5C265.065, 527.934 158.47, 433.648 81.952, 478.22C61.424, 490.176 21.824, 450.58 33.781, 430.053C78.328, 353.578 -15.886, 246.89 115.502, 115.503C246.942, -15.939 353.523, 78.359 430.053, 33.78C450.031, 22.143 490.492, 60.882 478.22, 81.95zM259.471, 111.619C227.581, 118.705 194.498, 138.13 166.314, 166.313C138.13, 194.498 118.706, 227.581 111.62, 259.47C109.963, 266.927 103.349, 272.003 96.016, 272.003C94.867, 272.003 93.7, 271.878 92.531, 271.618C83.905, 269.701 78.466, 261.154 80.383, 252.528C88.774, 214.772 111.255, 176.118 143.689, 143.685C176.122, 111.251 214.776, 88.77 252.532, 80.379C261.16, 78.46 269.705, 83.901 271.622, 92.527C273.539, 101.153 268.097, 109.702 259.471, 111.619z" fill="#727272" fill-opacity="1" class="Black" />
  </g>
</svg>