<?xml version='1.0' encoding='UTF-8'?>
<svg viewBox="-8.9943 -1.9999 31.995 32" xmlns="http://www.w3.org/2000/svg">
  <g transform="matrix(0.0547, 0, 0, 0.0547, 0, 0)">
    <path d="M216.01, 384L162.024, 384L162.024, 24C162.024, 10.745 151.279, 0 138.024, 0L20.024, 0C9.333, 0 3.979, 12.926 11.539, 20.485L23.539, 32.485A12 12 0 0 0 32.024, 36L126.024, 36L126.024, 384L72.037, 384C42.473, 384 28.973, 420.535 50.777, 439.917L122.764, 503.917C134.889, 514.694 153.159, 514.694 165.284, 503.917L237.27, 439.917C259.082, 420.528 245.562, 384 216.01, 384zM216.024, 416L144.024, 480L72.024, 416L216.024, 416z" fill="#727272" fill-opacity="1" class="Black" />
  </g>
</svg>