<?xml version='1.0' encoding='UTF-8'?>
<svg viewBox="-8.9956 -1.9999 31.9975 32" xmlns="http://www.w3.org/2000/svg">
  <g transform="matrix(0.0547, 0, 0, 0.0547, 0, 0)">
    <path d="M252.478, 408.503L152.504, 508.478C147.807, 513.175 140.193, 513.175 135.496, 508.478L35.522, 408.503C30.826, 403.806 30.826, 396.192 35.522, 391.495L44.025, 382.992C48.722, 378.295 56.336, 378.295 61.032, 382.992L126, 447.959L126, 36L24.024, 36A11.996 11.996 0 0 1 15.539, 32.485L3.539, 20.485C-4.021, 12.926 1.333, 0 12.024, 0L138, 0C151.255, 0 162, 10.745 162, 24L162, 447.959L226.967, 382.993C231.664, 378.296 239.278, 378.296 243.974, 382.993L252.477, 391.496C257.174, 396.192 257.174, 403.806 252.478, 408.503z" fill="#727272" fill-opacity="1" class="Black" />
  </g>
</svg>