<?xml version='1.0' encoding='UTF-8'?>
<svg viewBox="-8.9963 -1.9975 32 32" xmlns="http://www.w3.org/2000/svg">
  <g transform="matrix(0.0547, 0, 0, 0.0547, 0, 0)">
    <path d="M252.478, 103.497L152.504, 3.522C147.807, -1.175 140.193, -1.175 135.496, 3.522L35.522, 103.497C30.826, 108.194 30.826, 115.808 35.522, 120.505L44.025, 129.008C48.722, 133.705 56.336, 133.705 61.032, 129.008L126, 64.041L126, 476L24.024, 476A11.996 11.996 0 0 0 15.539, 479.515L3.539, 491.515C-4.021, 499.074 1.333, 512 12.024, 512L138, 512C151.255, 512 162, 501.255 162, 488L162, 64.041L226.967, 129.007C231.664, 133.704 239.278, 133.704 243.974, 129.007L252.477, 120.504C257.174, 115.808 257.174, 108.194 252.478, 103.497z" fill="#727272" fill-opacity="1" class="Black" />
  </g>
</svg>