<?xml version='1.0' encoding='UTF-8'?>
<svg viewBox="-8.9963 -1.9976 32 32" xmlns="http://www.w3.org/2000/svg">
  <g transform="matrix(0.0547, 0, 0, 0.0547, 0, 0)">
    <path d="M237.27, 72.083L165.284, 8.083C153.159, -2.694 134.889, -2.694 122.764, 8.083L50.777, 72.083C28.973, 91.465 42.473, 128 72.037, 128L126.024, 128L126.024, 476L32.024, 476A11.996 11.996 0 0 0 23.539, 479.515L11.539, 491.515C3.979, 499.074 9.333, 512 20.024, 512L138.024, 512C151.279, 512 162.024, 501.255 162.024, 488L162.024, 128L216.01, 128C245.562, 128 259.082, 91.472 237.27, 72.083zM72.024, 96L144.024, 32L216.024, 96L72.024, 96z" fill="#727272" fill-opacity="1" class="Black" />
  </g>
</svg>