<?xml version='1.0' encoding='UTF-8'?>
<svg viewBox="-1.5477 -1.5477 32 32" xmlns="http://www.w3.org/2000/svg">
  <g transform="matrix(0.9991, 0, 0, 0.9991, 0, 0)">
    <g transform="matrix(0.0565, 0, 0, 0.0565, 0, 0)">
      <path d="M256, 8C119.033, 8 8, 119.033 8, 256C8, 392.967 119.033, 504 256, 504C392.967, 504 504, 392.967 504, 256C504, 119.033 392.967, 8 256, 8zM424.766, 121.176L361.881, 184.061A128.711 128.711 0 0 0 327.94, 150.12L390.825, 87.235A217.323 217.323 0 0 1 424.766, 121.176zM256, 352C203.065, 352 160, 308.935 160, 256C160, 203.065 203.065, 160 256, 160C308.935, 160 352, 203.065 352, 256C352, 308.935 308.935, 352 256, 352zM363.952, 68.853L297.812, 134.993C270.822, 125.668 241.194, 125.663 214.188, 134.993L148.049, 68.853C214.765, 30.329 297.279, 30.354 363.952, 68.853zM121.176, 87.234L184.061, 150.119A128.711 128.711 0 0 0 150.12, 184.06L87.235, 121.175A217.323 217.323 0 0 1 121.176, 87.234zM68.853, 148.048L134.992, 214.188C125.667, 241.178 125.662, 270.806 134.992, 297.812L68.853, 363.952C30.33, 297.237 30.353, 214.723 68.853, 148.048zM87.234, 390.824L150.119, 327.939A128.711 128.711 0 0 0 184.06, 361.88L121.175, 424.765A217.366 217.366 0 0 1 87.234, 390.824zM148.048, 443.147L214.187, 377.007C241.177, 386.332 270.805, 386.337 297.811, 377.007L363.951, 443.147C297.235, 481.671 214.721, 481.646 148.048, 443.147zM390.824, 424.766L327.939, 361.881A128.711 128.711 0 0 0 361.88, 327.94L424.765, 390.825A217.323 217.323 0 0 1 390.824, 424.766zM443.147, 363.952L377.007, 297.812C386.332, 270.822 386.337, 241.194 377.007, 214.188L443.147, 148.048C481.67, 214.763 481.647, 297.277 443.147, 363.952z" fill="#727272" fill-opacity="1" class="Black" />
    </g>
  </g>
</svg>