<?xml version='1.0' encoding='UTF-8'?>
<svg viewBox="-1.9949 -4.8006 31.9975 32" xmlns="http://www.w3.org/2000/svg">
  <g transform="matrix(0.9989, 0, 0, 0.9989, 0, 0)">
    <g transform="matrix(0.0438, 0, 0, 0.0438, 0, 0)">
      <path d="M224, 119.3L249.4, 139.3C262.7, 113.7 289.2, 96 320, 96C328.8, 96 336, 88.8 336, 80C336, 71.2 328.8, 64 320, 64C279, 64 243.5, 86.4 224, 119.3zM320, 32C399.4, 32 464, 96.6 464, 176C464, 235.1 428.7, 270.4 423.7, 276.5L448.7, 296.2C451.6, 292.7 496, 249.1 496, 175.9C496, 78.8 417.2, 0 320, 0C244.9, 0 196.8, 43.4 173.1, 79.2L198.3, 99C217.5, 68.7 257.1, 32 320, 32zM637, 485.2L23, 1.8C19.6, -1 14.5, -0.5 11.8, 3L1.8, 15.5C-1, 19 -0.4, 24 3, 26.7L617, 510.2C620.4, 513 625.5, 512.4 628.2, 509L638.2, 496.5C641, 493 640.5, 488 637, 485.2zM262.2, 352C247.9, 318.8 225.6, 286.6 211.6, 270.7C195.4, 252.2 184.6, 230.1 179.5, 206.5L144.2, 178.7C144.9, 222 161, 261.5 187.5, 291.8C213.2, 321.1 237.8, 368.7 239.9, 384L240, 459.2C240, 462.3 240.9, 465.4 242.7, 468L267.2, 504.8C270.2, 509.3 275.2, 511.9 280.5, 511.9L359.4, 511.9C364.8, 511.9 369.8, 509.2 372.7, 504.8L397.2, 468C398.9, 465.4 399.9, 462.3 399.9, 459.2L400, 384C400.1, 383.6 400.9, 381.4 401, 380.9L364.3, 352zM367.9, 454.3L350.9, 480L289.2, 480L272.1, 454.3L272.1, 448L368, 448L368, 454.3zM368, 416L272, 416L271.9, 384L368, 384z" fill="#727272" fill-opacity="1" class="Black" />
    </g>
  </g>
</svg>