<?xml version='1.0' encoding='UTF-8'?>
<svg viewBox="-6.3751 -2 32 32" xmlns="http://www.w3.org/2000/svg">
  <g transform="matrix(0.0547, 0, 0, 0.0547, 0, 0)">
    <path d="M176, 248C162.75, 248 152, 258.74 152, 272C152, 285.25 162.75, 296 176, 296C189.25, 296 200, 285.25 200, 272C200, 258.74 189.25, 248 176, 248zM159.53, 216.5C159.79, 220.72 163.29, 224 167.51, 224L184.48, 224A8 8 0 0 0 192.46, 216.5L199.46, 104.5C199.75, 99.89 196.09, 96 191.48, 96L160.51, 96C155.9, 96 152.24, 99.89 152.53, 104.5L159.53, 216.5zM176, 0C73.05, 0 -0.12, 83.54 0, 176.24C0.06, 220.52 16.5, 260.91 43.56, 291.78C69.21, 321.03 93.85, 368.68 96, 384L96.06, 459.18C96.06, 462.33 97, 465.4 98.74, 468.02L123.25, 504.86C126.22, 509.32 131.22, 512 136.57, 512L215.42, 512C220.78, 512 225.78, 509.32 228.74, 504.86L253.25, 468.02C254.99, 465.4 255.92, 462.32 255.93, 459.18L256, 384C258.26, 368.28 282.99, 320.81 308.44, 291.78C335.55, 260.85 352, 220.37 352, 176C352, 78.8 273.2, 0 176, 0zM223.94, 454.31L206.85, 480L145.14, 480L128.05, 454.31L128.04, 448L223.94, 448L223.94, 454.31zM223.98, 416L128.01, 416L127.94, 384L224.02, 384L223.98, 416zM284.38, 270.68C270.39, 286.64 248.05, 318.78 233.8, 351.99L118.21, 351.99C103.95, 318.77 81.62, 286.64 67.63, 270.68C44.5, 244.3 32.13, 210.85 32.05, 176C31.87, 99.01 92.43, 32 176, 32C255.4, 32 320, 96.6 320, 176C320, 210.85 307.35, 244.48 284.38, 270.68z" fill="#727272" fill-opacity="1" class="Black" />
  </g>
</svg>