<?xml version='1.0' encoding='UTF-8'?>
<svg viewBox="-2.0401 -4.7983 31.9975 32" xmlns="http://www.w3.org/2000/svg">
  <g transform="matrix(1.0012, 0, 0, 1.0012, 0, 0)">
    <g transform="matrix(0.0437, 0, 0, 0.0437, 0, 0)">
      <path d="M175, 144C189.31, 144 196.33, 126.69 186.31, 116.69L106.31, 36.69A16 16 0 0 0 83.68, 36.69L3.68, 116.69C-5.64, 126 -0.64, 144 15, 144L79, 144L79, 368L15, 368C0.71, 368 -6.31, 385.31 3.71, 395.31L83.71, 475.31A16 16 0 0 0 106.34, 475.31L186.34, 395.31C195.65, 386 190.65, 368 175, 368L111, 368L111, 144zM136.38, 400L95, 441.37L53.65, 400L136.38, 400zM79, 112L53.63, 112L95, 70.63L136.36, 112L79, 112zM631, 240L263, 240A8 8 0 0 0 255, 248L255, 264A8 8 0 0 0 263, 272L631, 272A8 8 0 0 0 639, 264L639, 248A8 8 0 0 0 631, 240zM631, 368L263, 368A8 8 0 0 0 255, 376L255, 392A8 8 0 0 0 263, 400L631, 400A8 8 0 0 0 639, 392L639, 376A8 8 0 0 0 631, 368zM631, 112L263, 112A8 8 0 0 0 255, 120L255, 136A8 8 0 0 0 263, 144L631, 144A8 8 0 0 0 639, 136L639, 120A8 8 0 0 0 631, 112z" fill="#727272" fill-opacity="1" class="Black" />
    </g>
  </g>
</svg>