<?xml version='1.0' encoding='UTF-8'?>
<svg viewBox="-2 -1.9988 32 32" xmlns="http://www.w3.org/2000/svg">
  <g transform="matrix(0.0547, 0, 0, 0.0547, 0, 0)">
    <path d="M504, 304L296, 304A8 8 0 0 0 288, 312L288, 328A8 8 0 0 0 296, 336L504, 336A8 8 0 0 0 512, 328L512, 312A8 8 0 0 0 504, 304zM504, 432L296, 432A8 8 0 0 0 288, 440L288, 456A8 8 0 0 0 296, 464L504, 464A8 8 0 0 0 512, 456L512, 440A8 8 0 0 0 504, 432zM504, 176L296, 176A8 8 0 0 0 288, 184L288, 200A8 8 0 0 0 296, 208L504, 208A8 8 0 0 0 512, 200L512, 184A8 8 0 0 0 504, 176zM504, 48L296, 48A8 8 0 0 0 288, 56L288, 72A8 8 0 0 0 296, 80L504, 80A8 8 0 0 0 512, 72L512, 56A8 8 0 0 0 504, 48zM216, 432L8, 432A8 8 0 0 0 0, 440L0, 456A8 8 0 0 0 8, 464L216, 464A8 8 0 0 0 224, 456L224, 440A8 8 0 0 0 216, 432zM216, 304L8, 304A8 8 0 0 0 0, 312L0, 328A8 8 0 0 0 8, 336L216, 336A8 8 0 0 0 224, 328L224, 312A8 8 0 0 0 216, 304zM216, 48L8, 48A8 8 0 0 0 0, 56L0, 72A8 8 0 0 0 8, 80L216, 80A8 8 0 0 0 224, 72L224, 56A8 8 0 0 0 216, 48zM216, 176L8, 176A8 8 0 0 0 0, 184L0, 200A8 8 0 0 0 8, 208L216, 208A8 8 0 0 0 224, 200L224, 184A8 8 0 0 0 216, 176z" fill="#727272" fill-opacity="1" class="Black" />
  </g>
</svg>