<?xml version='1.0' encoding='UTF-8'?>
<svg viewBox="-2 -2 32 32" xmlns="http://www.w3.org/2000/svg">
  <g transform="matrix(0.0547, 0, 0, 0.0547, 0, 0)">
    <path d="M301.148, 394.702L221.948, 473.892C171.17, 524.691 88.911, 524.716 38.108, 473.892C-12.691, 423.114 -12.716, 340.855 38.108, 290.052L117.298, 210.852A132.833 132.833 0 0 1 120.83, 207.449C128.38, 200.444 140.625, 205.445 141.038, 215.735C141.231, 220.542 141.636, 225.342 142.254, 230.119C142.735, 233.836 141.508, 237.566 138.857, 240.215C122.377, 256.684 63.715, 315.343 63.557, 315.501C26.819, 352.26 26.826, 411.689 63.557, 448.441C100.316, 485.179 159.745, 485.172 196.497, 448.441L275.697, 369.241L276.057, 368.881C312.358, 332.209 312.197, 272.811 275.687, 236.301C267.473, 228.087 258.11, 221.721 248.102, 217.192C243.536, 215.126 240.676, 210.525 240.968, 205.522A62.197 62.197 0 0 1 243.794, 190.263C245.897, 183.662 253.325, 180.302 259.713, 182.983C274.786, 189.307 288.9, 198.603 301.148, 210.851C351.836, 261.54 351.827, 344.021 301.148, 394.702zM210.852, 301.148C223.1, 313.396 237.214, 322.692 252.287, 329.016C258.675, 331.696 266.103, 328.336 268.206, 321.736A62.197 62.197 0 0 0 271.032, 306.477C271.324, 301.474 268.463, 296.873 263.898, 294.807C253.89, 290.279 244.527, 283.913 236.313, 275.698C199.803, 239.188 199.642, 179.79 235.943, 143.118L236.303, 142.758L315.503, 63.558C352.255, 26.827 411.684, 26.82 448.443, 63.558C485.174, 100.31 485.181, 159.739 448.443, 196.498C448.286, 196.655 389.624, 255.315 373.143, 271.784C370.492, 274.434 369.265, 278.163 369.746, 281.88A163.156 163.156 0 0 1 370.962, 296.264C371.375, 306.555 383.621, 311.555 391.17, 304.55A131.324 131.324 0 0 0 394.702, 301.147L473.892, 221.947C524.716, 171.144 524.691, 88.885 473.892, 38.107C423.09, -12.717 340.83, -12.692 290.052, 38.107L210.852, 117.297C160.173, 167.979 160.164, 250.46 210.852, 301.148z" fill="#727272" fill-opacity="1" class="Black" />
  </g>
</svg>