<?xml version='1.0' encoding='UTF-8'?>
<svg viewBox="-1.995 -4.7962 32 32" xmlns="http://www.w3.org/2000/svg">
  <g transform="matrix(0.9991, 0, 0, 0.9991, 0, 0)">
    <g transform="matrix(0.0438, 0, 0, 0.0438, 0, 0)">
      <path d="M545.25, 219C527.69, 211.44 479.69, 193.67 413.28, 192.11C384.19, 191.85 369.71, 205.9 320, 205.9C270.36, 205.9 255.4, 191.86 226.72, 192.11C160.31, 193.67 112.31, 211.44 94.75, 219C88.62, 221.62 84.22, 227.09 83.03, 233.62C81.81, 240.15 83.97, 246.84 88.81, 251.51C204.78, 364.89 436.72, 363.42 551.19, 251.51C556.03, 246.84 558.19, 240.15 556.97, 233.62C555.78, 227.09 551.38, 221.62 545.25, 219zM320, 304C219.84, 304 155.66, 265.19 125.81, 241.45C217.41, 210.87 261.75, 230.93 263.09, 231.26C280.68, 235.67 300.34, 237.87 320, 237.87C339.66, 237.87 359.31, 235.66 376.91, 231.26C378.25, 230.93 422.59, 210.87 514.19, 241.45C484.34, 265.19 420.16, 304 320, 304zM631.14, 195.68C579.47, 109.99 466.31, 32 417.72, 32C417.72, 32 385.15, 32 320, 82C254.85, 32 222.28, 32 222.28, 32C173.69, 32 60.53, 109.99 8.86, 195.68C-1.46, 212.79 -2.77, 233.67 4.97, 252.06C32.95, 318.51 117.59, 480 279.28, 480L360.71, 480C522.4, 480 607.04, 318.51 635.03, 252.05C642.77, 233.67 641.46, 212.79 631.14, 195.68zM605.54, 239.63C579.16, 302.28 502.49, 448 360.72, 448L279.29, 448C137.51, 448 60.84, 302.28 34.46, 239.63C30.61, 230.48 31.27, 220.49 36.26, 212.2C84.66, 131.92 187.49, 65.37 221.25, 64.02C248.57, 68.27 286.07, 96.3 319.99, 122.33C353.91, 96.29 391.41, 68.26 418.73, 64.02C452.5, 65.37 555.32, 131.92 603.72, 212.2C608.73, 220.49 609.39, 230.49 605.54, 239.63z" fill="#727272" fill-opacity="1" class="Black" />
    </g>
  </g>
</svg>