<?xml version='1.0' encoding='UTF-8'?>
<svg viewBox="-0.6205 -1.3102 32 32" xmlns="http://www.w3.org/2000/svg">
  <g transform="matrix(0.0574, 0, 0, 0.0574, 0, 0)">
    <path d="M88, 56L40, 56A16 16 0 0 0 24, 72L24, 120A16 16 0 0 0 40, 136L88, 136A16 16 0 0 0 104, 120L104, 72A16 16 0 0 0 88, 56zM88, 216L40, 216A16 16 0 0 0 24, 232L24, 280A16 16 0 0 0 40, 296L88, 296A16 16 0 0 0 104, 280L104, 232A16 16 0 0 0 88, 216zM88, 376L40, 376A16 16 0 0 0 24, 392L24, 440A16 16 0 0 0 40, 456L88, 456A16 16 0 0 0 104, 440L104, 392A16 16 0 0 0 88, 376zM504, 400L168, 400A8 8 0 0 0 160, 408L160, 424A8 8 0 0 0 168, 432L504, 432A8 8 0 0 0 512, 424L512, 408A8 8 0 0 0 504, 400zM504, 80L168, 80A8 8 0 0 0 160, 88L160, 104A8 8 0 0 0 168, 112L504, 112A8 8 0 0 0 512, 104L512, 88A8 8 0 0 0 504, 80zM504, 240L168, 240A8 8 0 0 0 160, 248L160, 264A8 8 0 0 0 168, 272L504, 272A8 8 0 0 0 512, 264L512, 248A8 8 0 0 0 504, 240z" fill="#727272" fill-opacity="1" class="Black" />
  </g>
</svg>