<?xml version='1.0' encoding='UTF-8'?>
<svg viewBox="-2 -1.9988 32 32" xmlns="http://www.w3.org/2000/svg">
  <g transform="matrix(0.0547, 0, 0, 0.0547, 0, 0)">
    <path d="M61.77, 401L79.27, 380.85A19.92 19.92 0 0 0 84.34, 366.66L84.34, 363.35C84.34, 356 80.5, 352 73, 352L16, 352A8 8 0 0 0 8, 360L8, 376A8 8 0 0 0 16, 384L38.84, 384A154.82 154.82 0 0 0 27.84, 396.31L22.23, 403.31C18.23, 408.38 16.98, 413.44 19.43, 418.19L20.48, 420.12C23.48, 425.88 26.78, 428 32.73, 428L37.46, 428C47.79, 428 53.4, 430.44 53.4, 437.09C53.4, 441.81 49.2, 445.31 39.04, 445.31A41.54 41.54 0 0 1 23.57, 442.19C17.08, 438.31 11.83, 438.69 7.97, 445.31L2.38, 454.62C-1.35, 460.75 -0.82, 466.34 5, 470.56C12.71, 475.25 25.39, 480 42, 480C76.16, 480 90.5, 457.25 90.5, 435.88C90.47, 421.5 81.38, 406.12 61.77, 401zM12.1, 320L80, 320A8 8 0 0 0 88, 312L88, 296A8 8 0 0 0 80, 288L41.33, 288C44.61, 277.71 89.66, 269.32 89.66, 231.56C89.66, 202.5 64.66, 192 45.19, 192C23.83, 192 11.39, 202 4.74, 210.75C0.36, 216.34 1.74, 221.59 7.53, 226.12L16.11, 233C21.72, 237.56 27.11, 235.47 32.24, 230.56A13.4 13.4 0 0 1 41.69, 226.72C45.02, 226.72 50.97, 228.28 50.97, 235.47C51, 248.19 0, 257.31 0, 304.59L0, 308.59C0, 316 5.08, 320 12.1, 320zM16, 160L80, 160A8 8 0 0 0 88, 152L88, 136A8 8 0 0 0 80, 128L64, 128L64, 40A8 8 0 0 0 56, 32L32, 32A8 8 0 0 0 24.86, 36.42L16.86, 52.42A8 8 0 0 0 24, 64L32, 64L32, 128L16, 128A8 8 0 0 0 8, 136L8, 152A8 8 0 0 0 16, 160zM504, 80L168, 80A8 8 0 0 0 160, 88L160, 104A8 8 0 0 0 168, 112L504, 112A8 8 0 0 0 512, 104L512, 88A8 8 0 0 0 504, 80zM504, 400L168, 400A8 8 0 0 0 160, 408L160, 424A8 8 0 0 0 168, 432L504, 432A8 8 0 0 0 512, 424L512, 408A8 8 0 0 0 504, 400zM504, 240L168, 240A8 8 0 0 0 160, 248L160, 264A8 8 0 0 0 168, 272L504, 272A8 8 0 0 0 512, 264L512, 248A8 8 0 0 0 504, 240z" fill="#727272" fill-opacity="1" class="Black" />
  </g>
</svg>