<?xml version='1.0' encoding='UTF-8'?>
<svg viewBox="-2 -1.9963 32 31.9975" xmlns="http://www.w3.org/2000/svg">
  <g transform="matrix(0.0547, 0, 0, 0.0547, 0, 0)">
    <path d="M8, 224L280, 224A8 8 0 0 0 288, 216L288, 200A8 8 0 0 0 280, 192L8, 192A8 8 0 0 0 0, 200L0, 216A8 8 0 0 0 8, 224zM160, 328A8 8 0 0 0 152, 320L8, 320A8 8 0 0 0 0, 328L0, 344A8 8 0 0 0 8, 352L152, 352A8 8 0 0 0 160, 344zM8, 96L280, 96A8 8 0 0 0 288, 88L288, 72A8 8 0 0 0 280, 64L8, 64A8 8 0 0 0 0, 72L0, 88A8 8 0 0 0 8, 96zM470, 1.64L373.41, 33.52C360.72, 37.74 352, 50 352, 64L352, 376.13C331.66, 361.28 303.38, 352 272, 352C210.14, 352 160, 387.82 160, 432C160, 476.18 210.14, 512 272, 512C333.86, 512 384, 476.18 384, 432L384, 192L490.12, 156.63A32 32 0 0 0 512, 126.27L512, 32A32 32 0 0 0 470, 1.64zM272, 480C224.86, 480 192, 454.7 192, 432C192, 409.3 224.86, 384 272, 384C319.14, 384 352, 409.3 352, 432C352, 454.7 319.14, 480 272, 480zM480, 126.28L384, 158.28L384, 64L383.44, 64L383.44, 63.87L480, 32z" fill="#727272" fill-opacity="1" class="Black" />
  </g>
</svg>