<?xml version='1.0' encoding='UTF-8'?>
<svg viewBox="-2 -1.9988 32 32" xmlns="http://www.w3.org/2000/svg">
  <g transform="matrix(0.0547, 0, 0, 0.0547, 0, 0)">
    <path d="M464, 64C472.823, 64 480, 71.178 480, 80L480, 432C480, 440.822 472.823, 448 464, 448L48, 448C39.177, 448 32, 440.822 32, 432L32, 80C32, 71.178 39.177, 64 48, 64L464, 64M464, 32L48, 32C21.49, 32 0, 53.49 0, 80L0, 432C0, 458.51 21.49, 480 48, 480L464, 480C490.51, 480 512, 458.51 512, 432L512, 80C512, 53.49 490.51, 32 464, 32zM128, 128C110.327, 128 96, 142.327 96, 160C96, 177.673 110.327, 192 128, 192C145.673, 192 160, 177.673 160, 160C160, 142.327 145.673, 128 128, 128zM128, 224C110.327, 224 96, 238.327 96, 256C96, 273.673 110.327, 288 128, 288C145.673, 288 160, 273.673 160, 256C160, 238.327 145.673, 224 128, 224zM128, 320C110.327, 320 96, 334.327 96, 352C96, 369.673 110.327, 384 128, 384C145.673, 384 160, 369.673 160, 352C160, 334.327 145.673, 320 128, 320zM416, 172L416, 148A6 6 0 0 0 410, 142L198, 142A6 6 0 0 0 192, 148L192, 172A6 6 0 0 0 198, 178L410, 178A6 6 0 0 0 416, 172zM416, 268L416, 244A6 6 0 0 0 410, 238L198, 238A6 6 0 0 0 192, 244L192, 268A6 6 0 0 0 198, 274L410, 274A6 6 0 0 0 416, 268zM416, 364L416, 340A6 6 0 0 0 410, 334L198, 334A6 6 0 0 0 192, 340L192, 364A6 6 0 0 0 198, 370L410, 370A6 6 0 0 0 416, 364z" fill="#727272" fill-opacity="1" class="Black" />
  </g>
</svg>