<?xml version='1.0' encoding='UTF-8'?>
<svg viewBox="-1.9999 -1.549 31.9975 32" xmlns="http://www.w3.org/2000/svg">
  <g transform="matrix(0.999, 0, 0, 0.999, 0, 0)">
    <g transform="matrix(0.0565, 0, 0, 0.0565, 0, 0)">
      <path d="M307.75, 147L125.81, 231C109.43, 238.64 101.03, 255.53 104.9, 273.05C108.78, 290.41 123.24, 302.08 140.96, 302.08L201.93, 302.08L201.93, 363.03C201.93, 380.75 213.59, 395.25 230.96, 399.09C233.8, 399.71 236.65, 400.03 239.4, 400.03C253.71, 400.03 266.62, 391.89 273.02, 378.12L357, 196.22L357.25, 195.67C362.94, 182.03 359.59, 166.19 348.75, 155.33C337.84, 144.41 322.03, 141.06 307.75, 147zM244, 364.67C242.72, 367.39 240.72, 368.56 237.88, 367.84C235.29, 367.26 233.94, 365.64 233.94, 363.03L233.94, 270.08L140.97, 270.08C138.38, 270.08 136.75, 268.75 136.16, 266.11C135.54, 263.33 136.6, 261.27 139.28, 260.03L320.59, 176.31C321.12, 176.09 321.59, 176.01 322.09, 176.01C324, 176.01 325.56, 177.4 326.09, 177.93C326.71, 178.55 328.65, 180.76 327.78, 183.18L244, 364.67zM248, 8C111.03, 8 0, 119.03 0, 256C0, 392.97 111.03, 504 248, 504C384.97, 504 496, 392.97 496, 256C496, 119.03 384.97, 8 248, 8zM248, 472C128.9, 472 32, 375.1 32, 256C32, 136.9 128.9, 40 248, 40C367.1, 40 464, 136.9 464, 256C464, 375.1 367.1, 472 248, 472z" fill="#727272" fill-opacity="1" class="Black" />
    </g>
  </g>
</svg>