<?xml version='1.0' encoding='UTF-8'?>
<svg viewBox="-1.995 -4.7973 32 32" xmlns="http://www.w3.org/2000/svg">
  <g transform="matrix(0.999, 0, 0, 0.999, 0, 0)">
    <g transform="matrix(0.0438, 0, 0, 0.0438, 0, 0)">
      <path d="M284.5, 167L316.7, 192.4C317.8, 192.3 318.8, 192.1 320, 192.1C351.3, 192.1 377.3, 214.7 382.8, 244.5L414.6, 269.6C415.2, 265.2 416, 260.8 416, 256.2C416, 203.2 373, 160.2 320, 160.2C307.4, 160 295.5, 162.6 284.5, 167zM320, 96C408.2, 96 480, 167.8 480, 256C480, 275.9 475.9, 294.8 469.2, 312.4L495.4, 333C503.7, 314 509.4, 293.6 511.2, 272L568, 272C572.4, 272 576, 268.4 576, 264L576, 248C576, 243.6 572.4, 240 568, 240L511.2, 240C503.5, 146.8 429.2, 72.5 336, 64.8L336, 8C336, 3.6 332.4, 0 328, 0L312, 0C307.6, 0 304, 3.6 304, 8L304, 64.8C266.5, 67.9 232.4, 82.1 204.1, 103.6L229.9, 123.9C255.6, 106.4 286.6, 96 320, 96zM320, 416C231.8, 416 160, 344.2 160, 256C160, 236.1 164.1, 217.2 170.8, 199.6L144.6, 179C136.3, 198 130.6, 218.4 128.8, 240L72, 240C67.6, 240 64, 243.6 64, 248L64, 264C64, 268.4 67.6, 272 72, 272L128.8, 272C136.5, 365.2 210.8, 439.5 304, 447.2L304, 504C304, 508.4 307.6, 512 312, 512L328, 512C332.4, 512 336, 508.4 336, 504L336, 447.2C373.5, 444.1 407.6, 429.9 435.9, 408.3L410.1, 388C384.4, 405.6 353.4, 416 320, 416zM637, 485.2L23, 1.8C19.6, -1 14.5, -0.5 11.8, 3L1.8, 15.5C-1, 19 -0.4, 24 3, 26.7L617, 510.2C620.4, 513 625.5, 512.4 628.2, 509L638.2, 496.5C641, 493 640.5, 488 637, 485.2zM355.5, 345L323.3, 319.6C322.2, 319.7 321.2, 319.9 320, 319.9C288.7, 319.9 262.7, 297.3 257.2, 267.5L225.4, 242.4C224.8, 246.8 224, 251.2 224, 255.8C224, 308.8 267, 351.8 320, 351.8C332.6, 352 344.5, 349.4 355.5, 345z" fill="#727272" fill-opacity="1" class="Black" />
    </g>
  </g>
</svg>