<?xml version='1.0' encoding='UTF-8'?>
<svg viewBox="-1.9988 -2 32 32" xmlns="http://www.w3.org/2000/svg">
  <g transform="matrix(0.0547, 0, 0, 0.0547, 0, 0)">
    <path d="M461.9, 0C456.17, 0 450.31, 1.1 444.51, 3.52L28.74, 195.41C-19.23, 217.8 -3.24, 288.16 47.93, 288.16L223.84, 288.16L223.84, 464.07C223.84, 494.08 248.05, 512 272.58, 512C289.88, 512 307.33, 503.1 316.59, 483.26L508.49, 67.48C522.06, 34.89 494.14, 0 461.9, 0zM479.45, 54.08L287.6, 469.74C284.42, 476.56 279.36, 480.02 272.57, 480.02C266.77, 480.02 255.81, 476.69 255.81, 464.08L255.81, 256.18L47.93, 256.18C36.48, 256.18 33.29, 247.35 32.44, 243.55C31.34, 238.62 31.17, 229.57 42.14, 224.45L456.82, 33.04C458.53, 32.33 460.19, 31.99 461.91, 31.99C467.33, 31.99 473.4, 35.64 477.02, 41.07C479.21, 44.36 481.34, 49.48 479.45, 54.08z" fill="#727272" fill-opacity="1" class="Black" />
  </g>
</svg>