<?xml version='1.0' encoding='UTF-8'?>
<svg viewBox="-2 -4.7992 32 32" xmlns="http://www.w3.org/2000/svg">
  <g transform="matrix(0.9988, 0, 0, 0.9988, 0, 0)">
    <g transform="matrix(0.0438, 0, 0, 0.0438, 0, 0)">
      <path d="M227, 417C216, 417 207, 408 207, 397L207, 333C207, 322 216, 313 227, 313C238, 313 247, 322 247, 333L247, 397C247, 408 238, 417 227, 417zM480.5, 0C392, -0.3 320, 71.6 320, 160L320, 224L48, 224C21.5, 224 0, 245.5 0, 272L0, 464C0, 490.5 21.5, 512 48, 512L400, 512C426.5, 512 448, 490.5 448, 464L448, 272C448, 245.5 426.5, 224 400, 224L352, 224L352, 161.4C352, 90.7 408.7, 32.4 479.3, 32C550.2, 31.6 608, 89.2 608, 160L608, 244C608, 250.6 613.4, 256 620, 256L628, 256C634.6, 256 640, 250.6 640, 244L640, 161.5C640, 73.1 568.9, 0.3 480.5, 0zM400, 256C408.8, 256 416, 263.2 416, 272L416, 464C416, 472.8 408.8, 480 400, 480L48, 480C39.2, 480 32, 472.8 32, 464L32, 272C32, 263.2 39.2, 256 48, 256L400, 256z" fill="#727272" fill-opacity="1" class="Black" />
    </g>
  </g>
</svg>