<?xml version='1.0' encoding='UTF-8'?>
<svg viewBox="-7.9988 0 32 32" xmlns="http://www.w3.org/2000/svg">
  <g transform="matrix(0.0625, 0, 0, 0.0625, 0, 0)">
    <path d="M32.649, 192L111, 192L111, 468C111, 474.627 116.373, 480 123, 480L133, 480C139.627, 480 145, 474.627 145, 468L145, 192L223.348, 192C252.736, 192 266.616, 157.409 246.579, 137.373L150.627, 41.373C138.13, 28.877 117.87, 28.876 105.372, 41.373L9.417, 137.373C-10.56, 157.35 3.15, 192 32.649, 192zM128, 64L224, 160L32, 160L128, 64z" fill="#727272" fill-opacity="1" class="Black" />
  </g>
</svg>