<?xml version='1.0' encoding='UTF-8'?>
<svg viewBox="-2 0.0012 32 32" xmlns="http://www.w3.org/2000/svg">
  <g transform="matrix(0.0625, 0, 0, 0.0625, 0, 0)">
    <path d="M136.97, 380.485L144.041, 373.415C148.727, 368.729 148.727, 361.131 144.041, 356.444L60.113, 273L436, 273C442.627, 273 448, 267.627 448, 261L448, 251C448, 244.373 442.627, 239 436, 239L60.113, 239L144.041, 155.556C148.727, 150.87 148.727, 143.272 144.041, 138.585L136.97, 131.515C132.284, 126.829 124.686, 126.829 120, 131.515L3.515, 247.515C-1.171, 252.201 -1.171, 259.799 3.515, 264.486L120, 380.486C124.686, 385.172 132.284, 385.172 136.97, 380.485z" fill="#727272" fill-opacity="1" class="Black" />
  </g>
</svg>