<?xml version='1.0' encoding='UTF-8'?>
<svg viewBox="-7.9995 -0.0002 32 32" xmlns="http://www.w3.org/2000/svg">
  <g transform="matrix(0.0625, 0, 0, 0.0625, 0, 0)">
    <path d="M252.485, 343.03L245.415, 335.959C240.729, 331.273 233.131, 331.273 228.444, 335.959L145, 419.887L145, 44C145, 37.373 139.627, 32 133, 32L123, 32C116.373, 32 111, 37.373 111, 44L111, 419.887L27.556, 335.959C22.87, 331.273 15.272, 331.273 10.585, 335.959L3.515, 343.03C-1.171, 347.716 -1.171, 355.314 3.515, 360L119.515, 476.485C124.201, 481.171 131.799, 481.171 136.486, 476.485L252.486, 360C257.172, 355.314 257.172, 347.716 252.485, 343.03z" fill="#727272" fill-opacity="1" class="Black" />
  </g>
</svg>