<?xml version='1.0' encoding='UTF-8'?>
<svg viewBox="-2 -0.0002 32 32" xmlns="http://www.w3.org/2000/svg">
  <g transform="matrix(0.0625, 0, 0, 0.0625, 0, 0)">
    <path d="M311.03, 131.515L303.959, 138.585C299.273, 143.271 299.273, 150.869 303.959, 155.556L387.887, 239L12, 239C5.373, 239 0, 244.373 0, 251L0, 261C0, 267.627 5.373, 273 12, 273L387.887, 273L303.959, 356.444C299.273, 361.13 299.273, 368.728 303.959, 373.415L311.03, 380.485C315.716, 385.171 323.314, 385.171 328, 380.485L444.485, 264.485C449.171, 259.799 449.171, 252.201 444.485, 247.514L328, 131.515C323.314, 126.828 315.716, 126.828 311.03, 131.515z" fill="#727272" fill-opacity="1" class="Black" />
  </g>
</svg>