<?xml version='1.0' encoding='UTF-8'?>
<svg viewBox="-7.9988 0 32 32" xmlns="http://www.w3.org/2000/svg">
  <g transform="matrix(0.0625, 0, 0, 0.0625, 0, 0)">
    <path d="M3.515, 168.97L10.585, 176.041C15.271, 180.727 22.869, 180.727 27.556, 176.041L111, 92.113L111, 468C111, 474.627 116.373, 480 123, 480L133, 480C139.627, 480 145, 474.627 145, 468L145, 92.113L228.444, 176.041C233.13, 180.727 240.728, 180.727 245.415, 176.041L252.485, 168.97C257.171, 164.284 257.171, 156.686 252.485, 152L136.485, 35.515C131.799, 30.829 124.201, 30.829 119.514, 35.515L3.515, 152C-1.172, 156.686 -1.172, 164.284 3.515, 168.97z" fill="#727272" fill-opacity="1" class="Black" />
  </g>
</svg>