<?xml version='1.0' encoding='UTF-8'?>
<svg viewBox="-2 -4.7992 32 32" xmlns="http://www.w3.org/2000/svg">
  <g transform="matrix(0.9988, 0, 0, 0.9988, 0, 0)">
    <g transform="matrix(0.0438, 0, 0, 0.0438, 0, 0)">
      <path d="M224, 352L544, 352C561.67, 352 576, 337.67 576, 320L576, 128C576, 110.33 561.67, 96 544, 96L480, 96L480, 48C480, 21.49 458.51, 0 432, 0L336, 0C309.49, 0 288, 21.49 288, 48L288, 96L224, 96C206.33, 96 192, 110.33 192, 128L192, 320C192, 337.67 206.33, 352 224, 352zM480, 128L544, 128L544, 320L480, 320L480, 128zM320, 48C320, 39.16 327.16, 32 336, 32L432, 32C440.84, 32 448, 39.16 448, 48L448, 96L320, 96L320, 48zM320, 128L448, 128L448, 320L320, 320L320, 128zM224, 128L288, 128L288, 320L224, 320L224, 128zM632, 416L128, 416L128, 8C128, 3.58 124.42, 0 120, 0L8, 0C3.58, 0 0, 3.58 0, 8L0, 24C0, 28.42 3.58, 32 8, 32L96, 32L96, 440C96, 444.42 99.58, 448 104, 448L162.94, 448C161.15, 453.03 160, 458.36 160, 464C160, 490.51 181.49, 512 208, 512C234.51, 512 256, 490.51 256, 464C256, 458.36 254.85, 453.03 253.06, 448L450.94, 448C449.15, 453.03 448, 458.36 448, 464C448, 490.51 469.49, 512 496, 512C522.51, 512 544, 490.51 544, 464C544, 458.36 542.85, 453.03 541.06, 448L632, 448C636.42, 448 640, 444.42 640, 440L640, 424C640, 419.58 636.42, 416 632, 416zM208, 480C199.18, 480 192, 472.82 192, 464C192, 455.18 199.18, 448 208, 448C216.82, 448 224, 455.18 224, 464C224, 472.82 216.82, 480 208, 480zM496, 480C487.18, 480 480, 472.82 480, 464C480, 455.18 487.18, 448 496, 448C504.82, 448 512, 455.18 512, 464C512, 472.82 504.82, 480 496, 480z" fill="#727272" fill-opacity="1" class="Black" />
    </g>
  </g>
</svg>