<?xml version='1.0' encoding='UTF-8'?>
<svg viewBox="-1.9999 -4.8014 31.9975 32" xmlns="http://www.w3.org/2000/svg">
  <g transform="matrix(1.001, 0, 0, 1.001, 0, 0)">
    <g transform="matrix(0.0437, 0, 0, 0.0437, 0, 0)">
      <path d="M636.11, 390.15C614.43, 308.85 580.03, 231 534.03, 159.13C511.89, 124.56 497.93, 96 453.92, 96C415.2, 96 383.82, 125.42 383.82, 161.71L383.82, 237.07L336.01, 205.22L336.01, 8C336.01, 3.58 332.42, 0 328, 0L311.99, 0C307.57, 0 303.98, 3.58 303.98, 8L303.98, 205.22L256.17, 237.07L256.17, 161.71C256.17, 125.42 224.79, 96 186.07, 96C142.06, 96 128.1, 124.56 105.97, 159.13C59.97, 231 25.57, 308.85 3.89, 390.15C1.3, 399.84 0, 409.79 0, 419.79C0, 472.11 45.66, 512 98.13, 512C116.23, 512 122.6, 509.13 184.87, 492.45C227.08, 481.15 256.18, 444.98 256.18, 403.84L256.18, 313.97L224.16, 335.3L224.16, 403.84C224.16, 430.31 204.6, 454.04 176.59, 461.54C112.18, 478.79 110.55, 480 98.13, 480C61.68, 480 32.02, 452.99 32.02, 419.79C32.02, 412.59 32.97, 405.39 34.83, 398.4C55.68, 320.22 88.69, 245.53 132.95, 176.39C160.77, 132.45 165.09, 128.01 186.08, 128.01C207.08, 128.01 224.16, 143.13 224.16, 161.72L224.16, 258.41L125.65, 324.04C121.97, 326.49 120.98, 331.46 123.43, 335.14L132.31, 348.45C134.76, 352.13 139.73, 353.12 143.41, 350.67L320, 233.01L496.59, 350.66C500.27, 353.11 505.24, 352.12 507.69, 348.44L516.57, 335.13A8.006 8.006 0 0 0 514.35, 324.03L415.84, 258.4L415.84, 161.71C415.84, 143.12 432.92, 128 453.92, 128C474.91, 128 479.23, 132.44 507.05, 176.38C551.3, 245.52 584.32, 320.22 605.17, 398.39A83.248 83.248 0 0 1 607.98, 419.78C607.98, 452.98 578.32, 479.99 541.87, 479.99C529.45, 479.99 527.82, 478.78 463.42, 461.53C435.41, 454.03 415.85, 430.3 415.85, 403.83L415.85, 335.3L383.83, 313.97L383.83, 403.84C383.83, 444.99 412.93, 481.15 455.14, 492.45C517.41, 509.13 523.78, 512 541.88, 512C594.35, 512 640.01, 472.11 640.01, 419.79C640, 409.79 638.7, 399.84 636.11, 390.15z" fill="#727272" fill-opacity="1" class="Black" />
    </g>
  </g>
</svg>