<?xml version='1.0' encoding='UTF-8'?>
<svg viewBox="-1.9999 -1.9999 32 32" xmlns="http://www.w3.org/2000/svg">
  <g transform="matrix(0.0547, 0, 0, 0.0547, 0, 0)">
    <path d="M224, 96L240, 64L272, 48L240, 32L224, 0L208, 32L176, 48L208, 64L224, 96zM80, 160L106.66, 106.67L160, 80L106.66, 53.33L80, 0L53.34, 53.33L0, 80L53.34, 106.67L80, 160zM80, 64C88.84, 64 96, 71.16 96, 80C96, 88.84 88.84, 96 80, 96C71.16, 96 64, 88.84 64, 80C64, 71.16 71.16, 64 80, 64zM432, 288L405.34, 341.33L352, 368L405.34, 394.67L432, 448L458.66, 394.67L512, 368L458.66, 341.33L432, 288zM432, 384C423.16, 384 416, 376.84 416, 368C416, 359.16 423.16, 352 432, 352C440.84, 352 448, 359.16 448, 368C448, 376.84 440.84, 384 432, 384zM502.63, 77.96L434.04, 9.37C427.79, 3.12 419.6, 0 411.41, 0C403.22, 0 395.03, 3.12 388.78, 9.37L9.37, 388.79C-3.13, 401.29 -3.13, 421.55 9.37, 434.04L77.96, 502.63C84.21, 508.88 92.4, 512 100.59, 512C108.78, 512 116.97, 508.88 123.22, 502.63L502.63, 123.22C515.12, 110.72 515.12, 90.46 502.63, 77.96zM100.59, 480L32, 411.41L290.38, 153.01L358.98, 221.61L100.59, 480zM381.61, 198.98L313.01, 130.38L411.38, 32L411.41, 32L480, 100.59L381.61, 198.98z" fill="#727272" fill-opacity="1" class="Black" />
  </g>
</svg>