<?xml version='1.0' encoding='UTF-8'?>
<svg viewBox="-2 -3.554 32 32" xmlns="http://www.w3.org/2000/svg">
  <g transform="matrix(0.0486, 0, 0, 0.0486, 0, 0)">
    <path d="M432, 64L144, 64A144 144 0 0 0 0, 208L0, 416A32 32 0 0 0 32, 448L544, 448A32 32 0 0 0 576, 416L576, 208A144 144 0 0 0 432, 64zM256, 416L32, 416L32, 208A112 112 0 0 1 256, 208zM544, 416L288, 416L288, 208C288, 162.48 266.46, 122.39 233.49, 96L432, 96A112.12 112.12 0 0 1 544, 208zM496, 192L328, 192A8 8 0 0 0 320, 200L320, 216A8 8 0 0 0 328, 224L416, 224L416, 304A16 16 0 0 0 432, 320L496, 320A16 16 0 0 0 512, 304L512, 208A16 16 0 0 0 496, 192zM480, 288L448, 288L448, 224L480, 224zM184, 192L104, 192A8 8 0 0 0 96, 200L96, 216A8 8 0 0 0 104, 224L184, 224A8 8 0 0 0 192, 216L192, 200A8 8 0 0 0 184, 192z" fill="#727272" fill-opacity="1" class="Black" />
  </g>
</svg>