<?xml version='1.0' encoding='UTF-8'?>
<svg viewBox="-2 -4.7992 32 32" xmlns="http://www.w3.org/2000/svg">
  <g transform="matrix(0.9988, 0, 0, 0.9988, 0, 0)">
    <g transform="matrix(0.0438, 0, 0, 0.0438, 0, 0)">
      <path d="M592, 96L240, 96C213.53, 96 192, 117.53 192, 144L192, 160L224, 160L224, 144C224, 135.16 231.16, 128 240, 128L592, 128C600.84, 128 608, 135.16 608, 144L608, 368C608, 376.84 600.84, 384 592, 384L416, 384L416, 416L592, 416C618.47, 416 640, 394.47 640, 368L640, 144C640, 117.53 618.47, 96 592, 96zM96, 48C96, 39.16 103.16, 32 112, 32L400, 32C408.84, 32 416, 39.16 416, 48L416, 64L448, 64L448, 48C448, 21.53 426.47, 0 400, 0L112, 0C85.53, 0 64, 21.53 64, 48L64, 160L96, 160L96, 48zM560, 256C568.84, 256 576, 248.84 576, 240L576, 176C576, 167.16 568.84, 160 560, 160L496, 160C487.16, 160 480, 167.16 480, 176L480, 240C480, 248.84 487.16, 256 496, 256L560, 256zM512, 192L544, 192L544, 224L512, 224L512, 192zM336, 192L48, 192C21.53, 192 0, 213.53 0, 240L0, 464C0, 490.47 21.53, 512 48, 512L336, 512C362.47, 512 384, 490.47 384, 464L384, 240C384, 213.53 362.47, 192 336, 192zM352, 464C352, 472.84 344.84, 480 336, 480L48, 480C39.16, 480 32, 472.84 32, 464L32, 313.6C44.8, 323.2 64, 339.2 128, 384C140.8, 393.6 166.4, 416 192, 416C217.6, 416 243.2, 393.6 256, 384C320, 339.2 339.2, 323.2 352, 313.6L352, 464zM352, 275.2C326.4, 294.4 329.6, 294.4 236.8, 361.6C227.2, 364.8 208, 384 192, 384C176, 384 156.8, 364.8 147.2, 358.4C54.4, 291.2 57.6, 291.2 32, 272L32, 240C32, 231.16 39.16, 224 48, 224L336, 224C344.84, 224 352, 231.16 352, 240L352, 275.2z" fill="#727272" fill-opacity="1" class="Black" />
    </g>
  </g>
</svg>