<?xml version='1.0' encoding='UTF-8'?>
<svg viewBox="-1.9999 -1.9999 31.9975 32" xmlns="http://www.w3.org/2000/svg">
  <g transform="matrix(0.0547, 0, 0, 0.0547, 0, 0)">
    <path d="M507.31, 50.67L461.31, 4.67A16 16 0 0 0 441.5, 2.42L377.5, 42.49A32 32 0 0 0 363.5, 61.6L345.07, 133L285.84, 192.23C279.09, 192.1 272.48, 192.03 266.09, 192.03C88.69, 192.03 45.79, 241.24 30.74, 256.29C-16.07, 303.07 -8.78, 406.64 48.27, 463.73C80.22, 495.65 126.73, 512 169.69, 512C203.5, 512 235.11, 501.88 255.69, 481.26C271.28, 465.67 323.52, 420.13 319.69, 226.17L379, 166.93L450.37, 148.47A32 32 0 0 0 469.48, 134.47L509.55, 70.47A16 16 0 0 0 507.31, 50.67zM234.73, 457L233.09, 458.63C219.52, 472.21 196.41, 480 169.69, 480C132.76, 480 94.91, 465.09 70.91, 441.11C23.36, 393.53 21.49, 310.77 53.36, 278.91L55, 277.26C67.66, 264.45 105.81, 226.26 253.86, 224.26L218.35, 259.77A16 16 0 0 0 218.35, 282.39L229.67, 293.7A16 16 0 0 0 252.29, 293.7L287.81, 258.19C285.81, 406.12 247.82, 444.08 234.73, 457zM442.37, 117.49L377.82, 134.18L394.51, 69.63L447.71, 36.32L475.71, 64.32zM160, 288A64 64 0 1 0 224, 352A64 64 0 0 0 160, 288zM160, 384A32 32 0 1 1 192, 352A32 32 0 0 1 160, 384z" fill="#727272" fill-opacity="1" class="Black" />
  </g>
</svg>