<?xml version='1.0' encoding='UTF-8'?>
<svg viewBox="-5.5053 -2 32 32" xmlns="http://www.w3.org/2000/svg">
  <g transform="matrix(0.0547, 0, 0, 0.0547, 0, 0)">
    <path d="M192, 0C86.4, 0 0, 86.4 0, 192C0, 268.8 25.6, 291.2 172.8, 502.4C177.6, 508.8 184.8, 512 192, 512C199.2, 512 206.4, 508.8 211.2, 502.4C358.4, 291.2 384, 268.8 384, 192C384, 86.4 297.6, 0 192, 0zM192.01, 474C172.34, 445.83 154.92, 421.15 139.52, 399.31C42.64, 261.97 32, 245.11 32, 192C32, 103.78 103.78, 32 192, 32C280.22, 32 352, 103.78 352, 192C352, 245.11 341.36, 261.97 244.48, 399.31C228.96, 421.32 211.39, 446.23 192.01, 474zM183.52, 240L200.49, 240A8 8 0 0 0 208.47, 232.5L215.47, 120.5C215.76, 115.89 212.1, 112 207.49, 112L176.52, 112C171.91, 112 168.25, 115.89 168.54, 120.5L175.54, 232.5C175.79, 236.71 179.29, 240 183.52, 240zM192, 264C178.75, 264 168, 274.74 168, 288C168, 301.25 178.75, 312 192, 312C205.25, 312 216, 301.25 216, 288C216, 274.74 205.25, 264 192, 264z" fill="#727272" fill-opacity="1" class="Black" />
  </g>
</svg>