<?xml version='1.0' encoding='UTF-8'?>
<svg viewBox="-5.5053 -2 32 32" xmlns="http://www.w3.org/2000/svg">
  <g transform="matrix(0.0547, 0, 0, 0.0547, 0, 0)">
    <path d="M192, 0C86.4, 0 0, 86.4 0, 192C0, 268.8 25.6, 291.2 172.8, 502.4C177.6, 508.8 184.8, 512 192, 512C199.2, 512 206.4, 508.8 211.2, 502.4C358.4, 291.2 384, 268.8 384, 192C384, 86.4 297.6, 0 192, 0zM192.01, 474C172.34, 445.83 154.92, 421.15 139.52, 399.31C42.64, 261.97 32, 245.11 32, 192C32, 103.78 103.78, 32 192, 32C280.22, 32 352, 103.78 352, 192C352, 245.11 341.36, 261.97 244.48, 399.31C228.96, 421.32 211.39, 446.23 192.01, 474zM265.54, 129.77L254.23, 118.46C252.67, 116.9 250.62, 116.12 248.57, 116.12C246.52, 116.12 244.47, 116.9 242.91, 118.46L192, 169.37L141.09, 118.46C139.53, 116.9 137.48, 116.12 135.43, 116.12C133.38, 116.12 131.34, 116.9 129.77, 118.46L118.46, 129.77C115.34, 132.89 115.34, 137.96 118.46, 141.08L169.37, 192L118.46, 242.91C115.34, 246.03 115.34, 251.1 118.46, 254.22L129.77, 265.53C131.33, 267.09 133.38, 267.87 135.43, 267.87C137.48, 267.87 139.53, 267.09 141.09, 265.53L192, 214.63L242.91, 265.54C244.47, 267.1 246.52, 267.88 248.57, 267.88C250.62, 267.88 252.66, 267.1 254.23, 265.54L265.54, 254.23C268.66, 251.11 268.66, 246.04 265.54, 242.92L214.63, 192L265.54, 141.09A8.015 8.015 0 0 0 265.54, 129.77z" fill="#727272" fill-opacity="1" class="Black" />
  </g>
</svg>