<?xml version='1.0' encoding='UTF-8'?>
<svg viewBox="-8.1253 -2 32 32" xmlns="http://www.w3.org/2000/svg">
  <g transform="matrix(0.0547, 0, 0, 0.0547, 0, 0)">
    <path d="M144, 0C64.47, 0 0, 64.47 0, 144C0, 218.05 56.1, 278.33 128, 286.39L128, 492.82L139.01, 509.33C141.39, 512.89 146.62, 512.89 148.99, 509.33L160, 492.82L160, 286.39C231.9, 278.34 288, 218.05 288, 144C288, 64.47 223.53, 0 144, 0zM144, 256C82.24, 256 32, 205.76 32, 144C32, 82.24 82.24, 32 144, 32C205.76, 32 256, 82.24 256, 144C256, 205.76 205.76, 256 144, 256zM144, 64C99.88, 64 64, 99.89 64, 144C64, 152.84 71.16, 160 80, 160C88.84, 160 96, 152.84 96, 144C96, 117.53 117.53, 96 144, 96C152.84, 96 160, 88.84 160, 80C160, 71.16 152.84, 64 144, 64z" fill="#727272" fill-opacity="1" class="Black" />
  </g>
</svg>