<?xml version='1.0' encoding='UTF-8'?>
<svg viewBox="-5.5053 -2 32 32" xmlns="http://www.w3.org/2000/svg">
  <g transform="matrix(0.0547, 0, 0, 0.0547, 0, 0)">
    <path d="M192, 0C86.4, 0 0, 86.4 0, 192C0, 268.8 25.6, 291.2 172.8, 502.4C177.6, 508.8 184.8, 512 192, 512C199.2, 512 206.4, 508.8 211.2, 502.4C358.4, 291.2 384, 268.8 384, 192C384, 86.4 297.6, 0 192, 0zM192.01, 474.01C172.34, 445.84 154.92, 421.16 139.52, 399.32C42.64, 261.97 32, 245.11 32, 192C32, 103.78 103.78, 32 192, 32C280.22, 32 352, 103.78 352, 192C352, 245.11 341.36, 261.97 244.48, 399.31C228.96, 421.32 211.39, 446.23 192.01, 474.01zM192, 296C178.74, 296 168, 306.74 168, 320C168, 333.25 178.74, 344 192, 344C205.26, 344 216, 333.25 216, 320C216, 306.74 205.26, 296 192, 296zM192.68, 96C151.59, 96 117.66, 127.12 113.18, 167.01C112.64, 171.78 116.38, 176 121.18, 176L137.31, 176C141.26, 176 144.6, 173.1 145.16, 169.19C148.47, 145.93 168.52, 128 192.68, 128C223.87, 128 240.68, 152.73 240.68, 176C240.68, 196.62 219.84, 208.53 185.52, 225.69A15.996 15.996 0 0 0 176.68, 240L176.68, 264C176.68, 268.42 180.26, 272 184.68, 272L200.68, 272C205.1, 272 208.68, 268.42 208.68, 264L208.68, 249.86C240.34, 233.77 272.68, 214.3 272.68, 176C272.68, 136.67 242.74, 96 192.68, 96z" fill="#727272" fill-opacity="1" class="Black" />
  </g>
</svg>