<?xml version='1.0' encoding='UTF-8'?>
<svg viewBox="-5.5053 -2 32 32" xmlns="http://www.w3.org/2000/svg">
  <g transform="matrix(0.0547, 0, 0, 0.0547, 0, 0)">
    <path d="M192, 0C86.4, 0 0, 86.4 0, 192C0, 268.8 25.6, 291.2 172.8, 502.4C177.6, 508.8 184.8, 512 192, 512C199.2, 512 206.4, 508.8 211.2, 502.4C358.4, 291.2 384, 268.8 384, 192C384, 86.4 297.6, 0 192, 0zM192.01, 474C172.34, 445.83 154.92, 421.15 139.52, 399.31C42.64, 261.97 32, 245.11 32, 192C32, 103.78 103.78, 32 192, 32C280.22, 32 352, 103.78 352, 192C352, 245.11 341.36, 261.97 244.48, 399.31C228.96, 421.32 211.39, 446.22 192.01, 474zM256, 184C269.25, 184 280, 173.25 280, 160C280, 146.74 269.25, 136 256, 136C242.75, 136 232, 146.74 232, 160C232, 173.25 242.75, 184 256, 184zM267.84, 237.34C249.03, 259.38 221.41, 272 192, 272C162.59, 272 134.97, 259.38 116.16, 237.36C110.44, 230.63 100.32, 229.92 93.63, 235.58C86.88, 241.33 86.1, 251.42 91.85, 258.14C116.72, 287.28 153.22, 304 192, 304C230.78, 304 267.28, 287.28 292.16, 258.12C297.91, 251.4 297.1, 241.29 290.38, 235.56C283.72, 229.84 273.59, 230.62 267.84, 237.34zM128, 184C141.25, 184 152, 173.25 152, 160C152, 146.74 141.25, 136 128, 136C114.75, 136 104, 146.74 104, 160C104, 173.25 114.75, 184 128, 184z" fill="#727272" fill-opacity="1" class="Black" />
  </g>
</svg>