<?xml version='1.0' encoding='UTF-8'?>
<svg viewBox="-1.995 -4.7973 32 32" xmlns="http://www.w3.org/2000/svg">
  <g transform="matrix(0.999, 0, 0, 0.999, 0, 0)">
    <g transform="matrix(0.0438, 0, 0, 0.0438, 0, 0)">
      <path d="M320, 32C408.2, 32 480, 103.8 480, 192C480, 226.7 475.3, 246.1 445.2, 293.5L470.5, 313.4C503.9, 261.2 512, 235.2 512, 192C512, 86.4 425.6, 0 320, 0C258.3, 0 203.3, 29.7 168.1, 75.3L193.5, 95.3C222.7, 57.1 268.3, 32 320, 32zM394, 253.1C407.6, 236.6 416, 215.5 416, 192C416, 138.2 373.8, 96 320, 96C288.1, 96 260.5, 111.1 243.2, 134.4L268.3, 154.2C279.8, 138.3 298.4, 128 320, 128C355.9, 128 384, 156.1 384, 192C384, 208 378.2, 222.2 368.8, 233.3zM372.5, 399.3C357, 421.3 339.4, 446.2 320, 474C300.3, 445.8 282.9, 421.1 267.5, 399.3C170.6, 262 160, 245.1 160, 192C160, 191.7 160.1, 191.5 160.1, 191.2L129.8, 167.3C128.7, 175.4 128, 183.6 128, 192C128, 268.8 153.6, 291.2 300.8, 502.4C305.6, 508.8 312.8, 512 320, 512C327.2, 512 334.4, 508.8 339.2, 502.4C370, 458.3 395.2, 422.7 416.2, 392.8L391, 373C385.2, 381.3 379.1, 390 372.5, 399.3zM637, 485.2L23, 1.8C19.6, -1 14.5, -0.5 11.8, 3L1.8, 15.5C-1, 19 -0.4, 24 3, 26.7L617, 510.2C620.4, 513 625.5, 512.4 628.2, 509L638.2, 496.5C641, 493 640.5, 488 637, 485.2z" fill="#727272" fill-opacity="1" class="Black" />
    </g>
  </g>
</svg>