<?xml version='1.0' encoding='UTF-8'?>
<svg viewBox="-5.5053 -2 32 32" xmlns="http://www.w3.org/2000/svg">
  <g transform="matrix(0.0547, 0, 0, 0.0547, 0, 0)">
    <path d="M192, 96C139.065, 96 96, 139.065 96, 192C96, 244.935 139.065, 288 192, 288C244.935, 288 288, 244.935 288, 192C288, 139.065 244.935, 96 192, 96zM192, 256C156.71, 256 128, 227.29 128, 192C128, 156.71 156.71, 128 192, 128C227.29, 128 256, 156.71 256, 192C256, 227.29 227.29, 256 192, 256zM192, 0C85.961, 0 0, 85.961 0, 192C0, 269.413 26.97, 291.031 172.268, 501.67C181.802, 515.442 202.197, 515.444 211.733, 501.67C357.03, 291.031 384, 269.413 384, 192C384, 85.961 298.039, 0 192, 0zM192, 473.931C52.705, 272.488 32, 256.494 32, 192C32, 149.262 48.643, 109.083 78.863, 78.863C109.083, 48.643 149.262, 32 192, 32C234.738, 32 274.917, 48.643 305.137, 78.863C335.357, 109.083 352, 149.262 352, 192C352, 256.49 331.308, 272.47 192, 473.931z" fill="#727272" fill-opacity="1" class="Black" />
  </g>
</svg>