<?xml version='1.0' encoding='UTF-8'?>
<svg viewBox="-5.5053 -2 32 32" xmlns="http://www.w3.org/2000/svg">
  <g transform="matrix(0.0547, 0, 0, 0.0547, 0, 0)">
    <path d="M192, 0C86.4, 0 0, 86.4 0, 192C0, 268.8 25.6, 291.2 172.8, 502.4C177.6, 508.8 184.8, 512 192, 512C199.2, 512 206.4, 508.8 211.2, 502.4C358.4, 291.2 384, 268.8 384, 192C384, 86.4 297.6, 0 192, 0zM192.01, 474C172.34, 445.83 154.92, 421.15 139.52, 399.31C42.64, 261.97 32, 245.11 32, 192C32, 103.78 103.78, 32 192, 32C280.22, 32 352, 103.78 352, 192C352, 245.11 341.36, 261.97 244.48, 399.31C228.96, 421.32 211.39, 446.23 192.01, 474zM256.02, 105.35C243.52, 92.88 223.27, 92.88 210.77, 105.35L116.68, 199.44C114.68, 201.46 113.24, 203.95 112.52, 206.71L96.52, 267.96C95.08, 273.46 96.64, 279.3 100.68, 283.32C103.71, 286.37 107.8, 288.01 111.99, 288.01C113.33, 288.01 114.71, 287.84 116.02, 287.49L177.27, 271.49C180.02, 270.77 182.55, 269.34 184.55, 267.32L278.64, 173.23C291.11, 160.76 291.11, 140.45 278.64, 127.98L256.02, 105.35zM165, 241.61L134.38, 249.61L142.38, 219L233.41, 127.97L256.03, 150.59L165, 241.61z" fill="#727272" fill-opacity="1" class="Black" />
  </g>
</svg>