<?xml version='1.0' encoding='UTF-8'?>
<svg viewBox="-5.5053 -2 32 32" xmlns="http://www.w3.org/2000/svg">
  <g transform="matrix(0.0547, 0, 0, 0.0547, 0, 0)">
    <path d="M192, 0C86.4, 0 0, 86.4 0, 192C0, 268.8 25.6, 291.2 172.8, 502.4C177.6, 508.8 184.8, 512 192, 512C199.2, 512 206.4, 508.8 211.2, 502.4C358.4, 291.2 384, 268.8 384, 192C384, 86.4 297.6, 0 192, 0zM192.01, 474C172.34, 445.83 154.92, 421.15 139.52, 399.31C42.64, 261.97 32, 245.11 32, 192C32, 103.78 103.78, 32 192, 32C280.22, 32 352, 103.78 352, 192C352, 245.11 341.36, 261.97 244.48, 399.31C228.96, 421.32 211.39, 446.23 192.01, 474zM281.34, 134.46A7.98 7.98 0 0 0 275.68, 132.12C273.63, 132.12 271.58, 132.9 270.02, 134.46L162.54, 241.94L113.97, 193.37A7.98 7.98 0 0 0 108.31, 191.03C106.26, 191.03 104.21, 191.81 102.65, 193.37L91.34, 204.68C88.22, 207.8 88.22, 212.87 91.34, 215.99L156.88, 281.53C158.44, 283.09 160.49, 283.87 162.54, 283.87C164.59, 283.87 166.63, 283.09 168.19, 281.53L292.64, 157.08C295.76, 153.96 295.76, 148.89 292.64, 145.77L281.34, 134.46z" fill="#727272" fill-opacity="1" class="Black" />
  </g>
</svg>