<?xml version='1.0' encoding='UTF-8'?>
<svg viewBox="-5.5053 -2 32 32" xmlns="http://www.w3.org/2000/svg">
  <g transform="matrix(0.0547, 0, 0, 0.0547, 0, 0)">
    <path d="M192, 0C86.4, 0 0, 86.4 0, 192C0, 268.8 25.6, 291.2 172.8, 502.4C177.6, 508.8 184.8, 512 192, 512C199.2, 512 206.4, 508.8 211.2, 502.4C358.4, 291.2 384, 268.8 384, 192C384, 86.4 297.6, 0 192, 0zM192.01, 474C172.34, 445.83 154.92, 421.15 139.52, 399.31C42.64, 261.97 32, 245.11 32, 192C32, 103.78 103.78, 32 192, 32C280.22, 32 352, 103.78 352, 192C352, 245.11 341.36, 261.97 244.48, 399.31C228.96, 421.32 211.39, 446.23 192.01, 474zM280, 176L104, 176C99.58, 176 96, 179.58 96, 184L96, 200C96, 204.42 99.58, 208 104, 208L280, 208C284.42, 208 288, 204.42 288, 200L288, 184C288, 179.58 284.42, 176 280, 176z" fill="#727272" fill-opacity="1" class="Black" />
  </g>
</svg>