<?xml version='1.0' encoding='UTF-8'?>
<svg viewBox="-2 -3.554 32 32" xmlns="http://www.w3.org/2000/svg">
  <g transform="matrix(0.0486, 0, 0, 0.0486, 0, 0)">
    <path d="M560.02, 32C558.06, 32 556.04, 32.37 554.06, 33.16L384.01, 96L384, 96L212, 35.28A64.252 64.252 0 0 0 191.76, 32C185.07, 32 178.39, 33.05 171.95, 35.14L20.12, 87.95A32.006 32.006 0 0 0 0, 117.66L0, 463.98C0, 473.17 7.53, 480 15.99, 480C17.95, 480 19.96, 479.63 21.95, 478.84L192, 416L364, 476.71A63.98 63.98 0 0 0 404.05, 476.86L555.88, 424.05A31.996 31.996 0 0 0 576, 394.34L576, 48.02C576, 38.83 568.47, 32 560.02, 32zM30.63, 118.18L176, 67.61L176, 387.8L31.91, 441.05L30.63, 118.18zM208, 387.71L208, 67.8L368, 124.28L368, 444.19L208, 387.71zM400, 444.39L400, 124.2L544.09, 70.94L545.37, 393.81L400, 444.39z" fill="#727272" fill-opacity="1" class="Black" />
  </g>
</svg>