<?xml version='1.0' encoding='UTF-8'?>
<svg viewBox="-1.9986 -1.9999 31.9975 32" xmlns="http://www.w3.org/2000/svg">
  <g transform="matrix(0.0547, 0, 0, 0.0547, 0, 0)">
    <path d="M421.4, 0C398.23, 0 375.07, 8.84 357.4, 26.52L351.12, 32.8L327.69, 9.37C315.19, -3.13 294.94, -3.13 282.44, 9.37L152.36, 139.48C149.24, 142.6 149.24, 147.67 152.36, 150.79L163.67, 162.1C166.79, 165.22 171.86, 165.22 174.98, 162.1L305.07, 32L328.49, 55.43L93.94, 290.03A327.069 327.069 0 0 0 0.18, 485.12L0.15, 485.35C-1.45, 499.72 9.88, 512 23.94, 512C24.83, 512 25.72, 511.95 26.63, 511.85A326.972 326.972 0 0 0 221.93, 418.05L485.4, 154.54C542.54, 97.38 501.35, 0 421.4, 0zM199.31, 395.42C154.32, 440.42 95.4, 469.83 33.24, 478.81C42.37, 416.17 71.73, 357.49 116.56, 312.65L195.27, 233.93L278.02, 316.7L199.31, 395.42zM462.77, 131.91L300.64, 294.07L217.89, 211.3L380.02, 49.14C391.07, 38.09 405.77, 32 421.4, 32C453.72, 32 479.92, 58.16 479.92, 90.53C479.91, 106.16 473.83, 120.86 462.77, 131.91z" fill="#727272" fill-opacity="1" class="Black" />
  </g>
</svg>