<?xml version='1.0' encoding='UTF-8'?>
<svg viewBox="-1.995 -1.0082 32 31.9975" xmlns="http://www.w3.org/2000/svg">
  <g transform="matrix(0.0585, 0, 0, 0.0585, 0, 0)">
    <path d="M474.9, 247.5L412.7, 185.3C408, 180.6 400.4, 180.6 395.7, 185.3L390, 191C385.3, 195.7 385.3, 203.3 390, 208L422.1, 240.1L352, 240.1L352, 196.1C352, 189.5 346.6, 184.1 340, 184.1L332, 184.1C325.4, 184.1 320, 189.5 320, 196.1L320, 240.1L287.1, 240.1C283.6, 208.7 269.9, 178.3 245.8, 154.3C189.6, 98.1 98.4, 98.1 42.2, 154.3C-14, 210.5 -14, 301.7 42.2, 357.9C98.4, 414.1 189.6, 414.1 245.8, 357.9C269.8, 333.9 283.6, 303.4 287.1, 272.1L320, 272.1L320, 316.1C320, 322.7 325.4, 328.1 332, 328.1L340, 328.1C346.6, 328.1 352, 322.7 352, 316.1L352, 272.1L422.2, 272.1L390.1, 304.2C385.4, 308.9 385.4, 316.5 390.1, 321.2L395.8, 326.9C400.5, 331.6 408.1, 331.6 412.8, 326.9L475, 264.7C479.6, 259.8 479.6, 252.2 474.9, 247.5zM144, 368C82.1, 368 32, 318 32, 256C32, 194.1 82, 144 144, 144C205.9, 144 256, 194 256, 256C256, 317.9 206, 368 144, 368z" fill="#727272" fill-opacity="1" class="Black" />
  </g>
</svg>