<?xml version='1.0' encoding='UTF-8'?>
<svg viewBox="-2 2.6621 32 32" xmlns="http://www.w3.org/2000/svg">
  <g transform="matrix(0.0729, 0, 0, 0.0729, 0, 0)">
    <path d="M372, 64L284, 64C277.4, 64 272, 69.4 272, 76L272, 84C272, 90.6 277.4, 96 284, 96L329.4, 96L279.8, 145.6L248.7, 114.5C244, 109.8 236.4, 109.8 231.7, 114.5L226, 120.2C221.3, 124.9 221.3, 132.5 226, 137.2L257.1, 168.3L233.8, 191.6C209.2, 171.8 178, 160 144, 160C64.5, 160 0, 224.5 0, 304C0, 383.5 64.5, 448 144, 448C223.5, 448 288, 383.5 288, 304C288, 270 276.2, 238.8 256.5, 214.1L279.8, 190.8L310.9, 221.9C315.6, 226.6 323.2, 226.6 327.9, 221.9L333.6, 216.2C338.3, 211.5 338.3, 203.9 333.6, 199.2L302.5, 168.1L352.1, 118.5L352.1, 164C352.1, 170.6 357.5, 176 364.1, 176L372.1, 176C378.7, 176 384.1, 170.6 384.1, 164L384.1, 76C384, 69.4 378.6, 64 372, 64zM144, 416C82.1, 416 32, 366 32, 304C32, 242.1 82, 192 144, 192C205.9, 192 256, 242 256, 304C256, 365.9 206, 416 144, 416z" fill="#727272" fill-opacity="1" class="Black" />
  </g>
</svg>