<?xml version='1.0' encoding='UTF-8'?>
<svg viewBox="-7.5666 -1.9048 32 31.9975" xmlns="http://www.w3.org/2000/svg">
  <g transform="matrix(0.0585, 0, 0, 0.0585, 0, 0)">
    <path d="M245.8, 234.2C221.8, 210.2 191.3, 196.4 160, 192.9L160, 160L204, 160C210.6, 160 216, 154.6 216, 148L216, 140C216, 133.4 210.6, 128 204, 128L160, 128L160, 57.8L192.1, 89.9C196.8, 94.6 204.4, 94.6 209.1, 89.9L214.8, 84.2C219.5, 79.5 219.5, 71.9 214.8, 67.2L152.5, 5.1C147.8, 0.4 140.2, 0.4 135.5, 5.1L73.3, 67.3C68.6, 72 68.6, 79.6 73.3, 84.3L79, 90C83.7, 94.7 91.3, 94.7 96, 90L128, 57.8L128, 128L84, 128C77.4, 128 72, 133.4 72, 140L72, 148C72, 154.6 77.4, 160 84, 160L128, 160L128, 192.9C96.6, 196.4 66.2, 210.1 42.2, 234.2C-14, 290.4 -14, 381.6 42.2, 437.8C98.4, 494 189.6, 494 245.8, 437.8C302.1, 381.6 302.1, 290.4 245.8, 234.2zM144, 448C82.1, 448 32, 398 32, 336C32, 274.1 82, 224 144, 224C205.9, 224 256, 274 256, 336C256, 397.9 206, 448 144, 448z" fill="#727272" fill-opacity="1" class="Black" />
  </g>
</svg>