<?xml version='1.0' encoding='UTF-8'?>
<svg viewBox="-2 -4.802 32 32" xmlns="http://www.w3.org/2000/svg">
  <g transform="matrix(0.9989, 0, 0, 0.9989, 0, 0)">
    <g transform="matrix(0.0438, 0, 0, 0.0438, 0, 0)">
      <path d="M320.67, 64C-121.93, 64 -36.9, 448 162.21, 448C202.11, 448 239.68, 427.31 263.63, 392.14L289.36, 354.35C297.19, 342.85 308.93, 337.1 320.67, 337.1C332.41, 337.1 344.16, 342.85 351.98, 354.35L377.71, 392.14C401.66, 427.31 439.23, 448 479.13, 448C668.99, 448 769.76, 64 320.67, 64zM479.13, 413.09C449.52, 413.09 421.21, 397.48 403.41, 371.33L377.68, 333.54C364.12, 313.62 343.34, 302.2 320.68, 302.2C298.01, 302.2 277.24, 313.62 263.68, 333.54L237.95, 371.33C220.15, 397.48 191.84, 413.09 162.22, 413.09C84.32, 413.09 32, 340.54 32, 272.77C32, 241.73 42.25, 196.78 91.07, 158.85C141.55, 119.63 220.94, 98.91 320.67, 98.91C420.73, 98.91 500.02, 119.2 549.98, 157.57C597.93, 194.41 608, 238.62 608, 269.21C608, 337.26 555.08, 413.09 479.13, 413.09zM192, 186.18C145.07, 186.18 114.56, 216.11 100.48, 234.07C94.51, 241.69 94.51, 252.85 100.48, 260.46C114.56, 278.42 145.07, 308.35 192, 308.35C238.93, 308.35 269.44, 278.42 283.52, 260.46C289.49, 252.84 289.49, 241.68 283.52, 234.07C269.44, 216.11 238.93, 186.18 192, 186.18zM192, 273.45C165.17, 273.45 145.46, 259.65 133.18, 247.27C145.46, 234.89 165.18, 221.09 192, 221.09C218.82, 221.09 238.54, 234.89 250.82, 247.27C238.54, 259.65 218.83, 273.45 192, 273.45zM448, 186.18C401.07, 186.18 370.56, 216.11 356.48, 234.07C350.51, 241.69 350.51, 252.85 356.48, 260.46C370.56, 278.42 401.07, 308.35 448, 308.35C494.93, 308.35 525.44, 278.42 539.52, 260.46C545.49, 252.84 545.49, 241.68 539.52, 234.07C525.44, 216.11 494.93, 186.18 448, 186.18zM448, 273.45C421.17, 273.45 401.46, 259.65 389.18, 247.27C401.46, 234.89 421.18, 221.09 448, 221.09C474.83, 221.09 494.54, 234.89 506.82, 247.27C494.54, 259.65 474.83, 273.45 448, 273.45z" fill="#727272" fill-opacity="1" class="Black" />
    </g>
  </g>
</svg>