<?xml version='1.0' encoding='UTF-8'?>
<svg viewBox="-1.9974 -3.554 31.9975 32" xmlns="http://www.w3.org/2000/svg">
  <g transform="matrix(0.0486, 0, 0, 0.0486, 0, 0)">
    <path d="M332.37, 275.41L312.62, 235.36C303.18, 216.55 272.71, 216.5 263.34, 235.44L243.62, 275.41L199.56, 281.85C189.12, 283.35 180.62, 290.52 177.34, 300.55C174.09, 310.57 176.75, 321.38 184.31, 328.72L216.22, 359.81L208.66, 403.73C204.75, 426.47 228.91, 443.23 248.53, 432.7L288, 411.97L327.44, 432.69C346.79, 442.82 371.31, 426.81 367.35, 403.74L359.79, 359.82L391.7, 328.73C399.26, 321.39 401.92, 310.57 398.67, 300.56C395.39, 290.53 386.89, 283.37 376.48, 281.86L332.37, 275.41zM325.41, 348.66L334.25, 400.11L288, 375.81L241.66, 400.72L250.6, 348.66L213.19, 312.19L264.88, 304.66L288, 257.78L311.12, 304.66L362.81, 312.19L325.41, 348.66zM559.97, 0L402.12, 0C390.88, 0 380.46, 5.9 374.68, 15.54L288, 160L201.32, 15.54A31.997 31.997 0 0 0 173.88, 0L16.03, 0C3.08, 0 -4.5, 14.57 2.92, 25.18L147.04, 231.06C125.14, 260.4 112, 296.65 112, 336C112, 433.05 190.95, 512 288, 512C385.05, 512 464, 433.05 464, 336C464, 296.65 450.86, 260.4 428.96, 231.06L573.08, 25.18C580.5, 14.57 572.92, 0 559.97, 0zM46.76, 32L173.88, 32L252.81, 163.55C220.86, 170.06 192.16, 185.39 169.03, 206.68L46.76, 32zM432, 336C432, 415.53 367.53, 480 288, 480C208.47, 480 144, 415.53 144, 336C144, 256.47 208.47, 192 288, 192C367.53, 192 432, 256.47 432, 336zM406.97, 206.68C383.84, 185.39 355.14, 170.06 323.19, 163.55L402.12, 32L529.24, 32L406.97, 206.68z" fill="#727272" fill-opacity="1" class="Black" />
  </g>
</svg>