<?xml version='1.0' encoding='UTF-8'?>
<svg viewBox="-2 -3.554 32 32" xmlns="http://www.w3.org/2000/svg">
  <g transform="matrix(0.0486, 0, 0, 0.0486, 0, 0)">
    <path d="M568, 32L552, 32C547.58, 32 544, 35.58 544, 40L544, 59.33L32, 179.8L32, 168C32, 163.58 28.42, 160 24, 160L8, 160C3.58, 160 0, 163.58 0, 168L0, 344C0, 348.42 3.58, 352 8, 352L24, 352C28.42, 352 32, 348.42 32, 344L32, 332.2L162.58, 362.92C161.02, 369.72 160, 376.72 160, 383.99C160, 437.01 202.98, 479.99 256, 479.99C301.13, 479.99 338.45, 448.69 348.64, 406.7L544, 452.67L544, 472C544, 476.42 547.58, 480 552, 480L568, 480C572.42, 480 576, 476.42 576, 472L576, 40C576, 35.58 572.42, 32 568, 32zM256, 448C220.71, 448 192, 419.29 192, 384C192, 379.25 192.72, 374.69 193.76, 370.26L317.89, 399.47C310.92, 427.27 285.93, 448 256, 448zM32, 299.33L32, 212.67L544, 92.2L544, 419.8L32, 299.33z" fill="#727272" fill-opacity="1" class="Black" />
  </g>
</svg>