<?xml version='1.0' encoding='UTF-8'?>
<svg viewBox="-1.9999 -4.7979 32 31.9975" xmlns="http://www.w3.org/2000/svg">
  <g transform="matrix(1.0011, 0, 0, 1.0011, 0, 0)">
    <g transform="matrix(0.0437, 0, 0, 0.0437, 0, 0)">
      <path d="M496, 272L528, 272L528, 144L432, 144L432, 272L496, 272zM464, 176L496, 176L496, 240L464, 240L464, 176zM336, 272L368, 272L368, 144L272, 144L272, 272L336, 272zM304, 176L336, 176L336, 240L304, 240L304, 176zM176, 272L208, 272L208, 144L112, 144L112, 272L176, 272zM144, 176L176, 176L176, 240L144, 240L144, 176zM632, 160L640, 160L640, 96C640, 78.33 625.67, 64 608, 64L32, 64C14.33, 64 0, 78.33 0, 96L0, 160L8, 160C21.26, 160 32, 170.74 32, 184C32, 197.25 21.26, 208 8, 208L0, 208L0, 448L640, 448L640, 208L632, 208C618.75, 208 608, 197.25 608, 184C608, 170.74 618.75, 160 632, 160zM608, 416L528, 416L528, 400C528, 391.16 520.84, 384 512, 384C503.16, 384 496, 391.16 496, 400L496, 416L400, 416L400, 400C400, 391.16 392.84, 384 384, 384C375.16, 384 368, 391.16 368, 400L368, 416L272, 416L272, 400C272, 391.16 264.84, 384 256, 384C247.16, 384 240, 391.16 240, 400L240, 416L144, 416L144, 400C144, 391.16 136.84, 384 128, 384C119.16, 384 112, 391.16 112, 400L112, 416L32, 416L32, 352L608, 352L608, 416zM608, 133.41C589.09, 142.41 576, 161.71 576, 184C576, 206.29 589.09, 225.59 608, 234.59L608, 320L32, 320L32, 234.59C50.9, 225.59 64, 206.29 64, 184C64, 161.71 50.9, 142.41 32, 133.41L32, 96L608, 96L608, 133.41z" fill="#727272" fill-opacity="1" class="Black" />
    </g>
  </g>
</svg>