<?xml version='1.0' encoding='UTF-8'?>
<svg viewBox="-2 -4.7992 32 32" xmlns="http://www.w3.org/2000/svg">
  <g transform="matrix(0.9988, 0, 0, 0.9988, 0, 0)">
    <g transform="matrix(0.0438, 0, 0, 0.0438, 0, 0)">
      <path d="M608, 0C608, 0 576, 46.33 576, 64C576, 81.67 590.33, 96 608, 96C625.67, 96 640, 81.67 640, 64C640, 46.33 608, 0 608, 0zM512, 96C529.67, 96 544, 81.67 544, 64C544, 46.33 512, 0 512, 0C512, 0 480, 46.33 480, 64C480, 81.67 494.33, 96 512, 96zM416, 96C433.67, 96 448, 81.67 448, 64C448, 46.33 416, 0 416, 0C416, 0 384, 46.33 384, 64C384, 81.67 398.33, 96 416, 96zM320, 96C337.67, 96 352, 81.67 352, 64C352, 46.33 320, 0 320, 0C320, 0 288, 46.33 288, 64C288, 81.67 302.33, 96 320, 96zM224, 96C241.67, 96 256, 81.67 256, 64C256, 46.33 224, 0 224, 0C224, 0 192, 46.33 192, 64C192, 81.67 206.33, 96 224, 96zM128, 96C145.67, 96 160, 81.67 160, 64C160, 46.33 128, 0 128, 0C128, 0 96, 46.33 96, 64C96, 81.67 110.33, 96 128, 96zM64, 64C64, 46.33 32, 0 32, 0C32, 0 0, 46.33 0, 64C0, 81.67 14.33, 96 32, 96C49.67, 96 64, 81.67 64, 64zM616, 128L600, 128C595.58, 128 592, 131.58 592, 136L592, 304C592, 330.51 570.51, 352 544, 352L336, 352L336, 136C336, 131.58 332.42, 128 328, 128L312, 128C307.58, 128 304, 131.58 304, 136L304, 352L96, 352C69.49, 352 48, 330.51 48, 304L48, 136C48, 131.58 44.42, 128 40, 128L24, 128C19.58, 128 16, 131.58 16, 136L16, 304C16, 348.18 51.82, 384 96, 384L304, 384L304, 480L104, 480C99.58, 480 96, 483.58 96, 488L96, 504C96, 508.42 99.58, 512 104, 512L536, 512C540.42, 512 544, 508.42 544, 504L544, 488C544, 483.58 540.42, 480 536, 480L336, 480L336, 384L544, 384C588.18, 384 624, 348.18 624, 304L624, 136C624, 131.58 620.42, 128 616, 128zM504, 128C499.58, 128 496, 131.58 496, 136L496, 320L528, 320L528, 136C528, 131.58 524.42, 128 520, 128L504, 128zM120, 128C115.58, 128 112, 131.58 112, 136L112, 320L144, 320L144, 136C144, 131.58 140.42, 128 136, 128L120, 128zM408, 128C403.58, 128 400, 131.58 400, 136L400, 320L432, 320L432, 136C432, 131.58 428.42, 128 424, 128L408, 128zM216, 128C211.58, 128 208, 131.58 208, 136L208, 320L240, 320L240, 136C240, 131.58 236.42, 128 232, 128L216, 128z" fill="#727272" fill-opacity="1" class="Black" />
    </g>
  </g>
</svg>