<?xml version='1.0' encoding='UTF-8'?>
<svg viewBox="-2.0011 -1.9998 32 31.9975" xmlns="http://www.w3.org/2000/svg">
  <g transform="matrix(0.0547, 0, 0, 0.0547, 0, 0)">
    <path d="M456, 416L415.01, 416C454.22, 386.81 480, 340.52 480, 288C480, 199.78 408.22, 128 320, 128L320, 64C320, 46.33 305.67, 32 288, 32L288, 16C288, 7.16 280.84, 0 272, 0L176, 0C167.16, 0 160, 7.16 160, 16L160, 32C142.33, 32 128, 46.33 128, 64L128, 288C128, 305.67 142.33, 320 160, 320L160, 368C160, 376.84 167.16, 384 176, 384L272, 384C280.84, 384 288, 376.84 288, 368L288, 320C305.67, 320 320, 305.67 320, 288L320, 160C390.59, 160 448, 217.42 448, 288C448, 358.58 390.59, 416 320, 416L56, 416C25.12, 416 0, 441.12 0, 472C0, 494.06 17.94, 512 40, 512L472, 512C494.06, 512 512, 494.06 512, 472C512, 441.12 486.88, 416 456, 416zM256, 352L192, 352L192, 320L256, 320L256, 352zM288, 288L160, 288L160, 64L192, 64L192, 32L256, 32L256, 64L288, 64L288, 288zM472, 480L40, 480C35.58, 480 32, 476.42 32, 472C32, 458.74 42.75, 448 56, 448L456, 448C469.25, 448 480, 458.74 480, 472C480, 476.42 476.42, 480 472, 480z" fill="#727272" fill-opacity="1" class="Black" />
  </g>
</svg>