<?xml version='1.0' encoding='UTF-8'?>
<svg viewBox="-1.995 -4.7973 32 32" xmlns="http://www.w3.org/2000/svg">
  <g transform="matrix(0.999, 0, 0, 0.999, 0, 0)">
    <g transform="matrix(0.0438, 0, 0, 0.0438, 0, 0)">
      <path d="M256, 96C256, 60.7 284.7, 32 320, 32C355.3, 32 384, 60.7 384, 96L328, 96C323.6, 96 320, 99.6 320, 104L320, 120C320, 124.4 323.6, 128 328, 128L384, 128L384, 160L328, 160C323.6, 160 320, 163.6 320, 168L320, 184C320, 188.4 323.6, 192 328, 192L384, 192L384, 224L357, 224L414.7, 269.4C415.3, 265 416, 260.6 416, 256L416, 96C416, 43 373, 0 320, 0C267, 0 224, 43 224, 96L224, 119.3L256, 144.5zM480, 256L480, 200C480, 195.6 476.4, 192 472, 192L456, 192C451.6, 192 448, 195.6 448, 200L448, 256C448, 268.3 445.7, 280 442.4, 291.3L469.4, 312.6C476.2, 295 480, 276 480, 256zM320, 352C332.6, 352 344.5, 349.4 355.5, 345L323.3, 319.6C322.2, 319.7 321.2, 319.9 320, 319.9C288.7, 319.9 262.7, 297.3 257.2, 267.5L224, 241.5L224, 256C224, 309 267, 352 320, 352zM637, 485.2L23, 1.8C19.6, -1 14.5, -0.5 11.8, 3L1.8, 15.5C-1, 19 -0.4, 24 3, 26.7L617, 510.2C620.4, 513 625.5, 512.4 628.2, 509L638.2, 496.5C641, 493 640.5, 488 637, 485.2zM408, 480L336, 480L336, 415C363.2, 412.3 388.1, 402.3 409.6, 387.7L383.2, 366.9C362.2, 378.9 337.6, 385.5 311.3, 383.7C243.3, 379.2 192, 319.6 192, 251.5L192, 216.3L163.5, 193.8C161.5, 195.3 160, 197.3 160, 199.9L160, 250.2C160, 333.6 221.6, 406.3 304, 414.6L304, 480L232, 480C227.6, 480 224, 483.6 224, 488L224, 504C224, 508.4 227.6, 512 232, 512L408, 512C412.4, 512 416, 508.4 416, 504L416, 488C416, 483.6 412.4, 480 408, 480z" fill="#727272" fill-opacity="1" class="Black" />
    </g>
  </g>
</svg>