<?xml version='1.0' encoding='UTF-8'?>
<svg viewBox="-2 -4.7992 32 32" xmlns="http://www.w3.org/2000/svg">
  <g transform="matrix(0.9988, 0, 0, 0.9988, 0, 0)">
    <g transform="matrix(0.0438, 0, 0, 0.0438, 0, 0)">
      <path d="M288.1, 272.6L288.1, 76C288.1, 51.7 307.9, 32 332.3, 32C363, 32 372.2, 54.5 378.1, 77.5L390.8, 77.2L391.2, 77.2C417.1, 77.2 436.7, 96.9 436.7, 121C436.7, 127.2 435, 132.9 432.5, 143.8C454.9, 152.9 473.3, 164.5 479.5, 186.7C482.3, 185 484.7, 183 487.8, 181.7C491.4, 180.2 495.1, 179.1 498.9, 178.3C502.6, 177.5 506.4, 177.1 510.2, 177C501.7, 150.9 482, 132.6 468.7, 125C471.4, 87.3 442.8, 50.7 402, 45.6C390, 18.2 362.8, 0 332.2, 0C307.6, 0 286, 11.9 272, 29.9C258, 11.9 236.4, 0 211.8, 0C181.2, 0 154.1, 18.2 142.1, 45.6C101.3, 50.7 72.8, 87.3 75.4, 125C54.4, 137.2 16.8, 175.9 34.3, 230.3C12.9, 247.4 0, 273.4 0, 301C0, 333.7 17.4, 363.4 45.3, 379.5C43, 427.7 82, 468.2 130.2, 466.9C144.4, 494.3 172.8, 511.9 204.3, 511.9C223.4, 511.9 240.8, 505.1 254.9, 494.2C248.6, 485.5 243.1, 476.3 238.7, 466.6C229.6, 474.8 217.6, 479.9 204.4, 479.9C172.5, 479.9 160.2, 458.1 151.3, 431.7C135, 434.4 133, 434.9 129.1, 434.9C100.6, 434.9 77.4, 411.8 77.4, 383.4C77.4, 377.2 78.3, 374.3 81.1, 360.4C55.5, 350 32.1, 336.3 32.1, 301C32.1, 267.1 55.1, 254.1 75, 242.7C62.4, 217 62.2, 213.5 62.2, 203.5C62.2, 169.6 84.1, 155 111.6, 143.8C109.1, 132.9 107.4, 127.2 107.4, 121C107.4, 96.9 127, 77.2 152.9, 77.2L153.3, 77.2L166, 77.5C171.9, 54.6 181, 32 211.8, 32C236.1, 32 256, 51.7 256, 76L256, 304.4C265, 292.3 276, 281.7 288.1, 272.6zM630.3, 313.2L534.3, 218C525.1, 208.8 511.9, 206.3 500, 211.2C487.9, 216.3 480.1, 228.2 480.1, 241.6L480.1, 272.8L382.9, 272.8C376.8, 272.7 370.9, 272.8 364.8, 273.8C311, 281.7 267.3, 324.4 258.1, 377.7C258.1, 377.9 258, 378.2 257.9, 378.4C249.5, 428.7 271.1, 479.3 313.1, 507.2C317.9, 510.4 323.3, 512 328.7, 512C347.4, 512 361.3, 493.1 355, 474.4C350.7, 461.6 350.1, 434.8 362.4, 417.5C370.5, 406.3 382.8, 400.8 400.1, 400.8L480.1, 400.8L480.1, 432C480.1, 445.4 487.9, 457.3 500, 462.4C511.9, 467.4 525.1, 464.8 534.3, 455.6L630.3, 360.4C636.5, 354.2 640, 345.8 640, 336.9C640, 328 636.6, 319.5 630.3, 313.2zM512, 432L512, 368.8L400, 368.8C365.2, 368.8 346.2, 385.1 336.3, 398.8C319.3, 422.5 318, 453.2 321.8, 473.8C296.3, 452 283.7, 417.8 289.4, 383.7C296.1, 343.5 329, 311.4 369.4, 305.5C373.8, 304.8 378.1, 304.9 384.1, 304.9L512.1, 304.9L511.8, 240.8L607.8, 336L512, 432z" fill="#727272" fill-opacity="1" class="Black" />
    </g>
  </g>
</svg>