<?xml version='1.0' encoding='UTF-8'?>
<svg viewBox="-2 0 32 32" xmlns="http://www.w3.org/2000/svg">
  <g transform="matrix(0.0625, 0, 0, 0.0625, 0, 0)">
    <path d="M400, 64C408.8, 64 416, 71.2 416, 80L416, 432C416, 440.8 408.8, 448 400, 448L48, 448C39.2, 448 32, 440.8 32, 432L32, 80C32, 71.2 39.2, 64 48, 64L400, 64M400, 32L48, 32C21.5, 32 0, 53.5 0, 80L0, 432C0, 458.5 21.5, 480 48, 480L400, 480C426.5, 480 448, 458.5 448, 432L448, 80C448, 53.5 426.5, 32 400, 32zM340, 274C346.6, 274 352, 268.6 352, 262L352, 250C352, 243.4 346.6, 238 340, 238L108, 238C101.4, 238 96, 243.4 96, 250L96, 262C96, 268.6 101.4, 274 108, 274L340, 274z" fill="#727272" fill-opacity="1" class="Black" />
  </g>
</svg>