<?xml version='1.0' encoding='UTF-8'?>
<svg viewBox="-1.5477 -1.5477 32 32" xmlns="http://www.w3.org/2000/svg">
  <g transform="matrix(0.9991, 0, 0, 0.9991, 0, 0)">
    <g transform="matrix(0.0565, 0, 0, 0.0565, 0, 0)">
      <path d="M140, 274C133.4, 274 128, 268.6 128, 262L128, 250C128, 243.4 133.4, 238 140, 238L372, 238C378.6, 238 384, 243.4 384, 250L384, 262C384, 268.6 378.6, 274 372, 274L140, 274zM504, 256C504, 393 393, 504 256, 504C119, 504 8, 393 8, 256C8, 119 119, 8 256, 8C393, 8 504, 119 504, 256zM472, 256C472, 136.1 374.7, 40 256, 40C136.1, 40 40, 137.3 40, 256C40, 375.9 137.3, 472 256, 472C375.9, 472 472, 374.7 472, 256z" fill="#727272" fill-opacity="1" class="Black" />
    </g>
  </g>
</svg>