<?xml version='1.0' encoding='UTF-8'?>
<svg viewBox="-7.2499 -2 32 32" xmlns="http://www.w3.org/2000/svg">
  <g transform="matrix(0.0547, 0, 0, 0.0547, 0, 0)">
    <path d="M192, 416C192, 433.7 177.7, 448 160, 448C142.3, 448 128, 433.7 128, 416C128, 398.3 142.3, 384 160, 384C177.7, 384 192, 398.3 192, 416zM224, 96L96, 96L96, 336L224, 336L224, 96M244, 64C250.6, 64 256, 69.4 256, 76L256, 356C256, 362.6 250.6, 368 244, 368L76, 368C69.4, 368 64, 362.6 64, 356L64, 76C64, 69.4 69.4, 64 76, 64L244, 64zM320, 48L320, 464C320, 490.5 298.5, 512 272, 512L48, 512C21.5, 512 0, 490.5 0, 464L0, 48C0, 21.5 21.5, 0 48, 0L272, 0C298.5, 0 320, 21.5 320, 48zM288, 48C288, 39.2 280.8, 32 272, 32L48, 32C39.2, 32 32, 39.2 32, 48L32, 464C32, 472.8 39.2, 480 48, 480L272, 480C280.8, 480 288, 472.8 288, 464L288, 48z" fill="#727272" fill-opacity="1" class="Black" />
  </g>
</svg>