<?xml version='1.0' encoding='UTF-8'?>
<svg viewBox="-1.9999 -4.7979 32 31.9975" xmlns="http://www.w3.org/2000/svg">
  <g transform="matrix(1.0011, 0, 0, 1.0011, 0, 0)">
    <g transform="matrix(0.0437, 0, 0, 0.0437, 0, 0)">
      <path d="M320, 144C266.98, 144 224, 194.14 224, 256C224, 317.85 266.98, 368 320, 368C373, 368 416, 317.87 416, 256C416, 194.14 373.02, 144 320, 144zM320, 336C284.71, 336 256, 300.11 256, 256C256, 211.89 284.71, 176 320, 176C355.29, 176 384, 211.89 384, 256C384, 300.11 355.29, 336 320, 336zM621.16, 54.46C582.37, 38.19 543.55, 32 504.75, 32C381.58, 31.99 258.42, 94.34 135.25, 94.34C70.34, 94.34 46.9, 79 32.25, 79C15.04, 79 0, 92.32 0, 110.81L0, 428.07C0, 440.7 7.23, 452.67 18.84, 457.53C57.63, 473.81 96.45, 480 135.25, 480C258.42, 480 381.58, 417.65 504.75, 417.65C569.66, 417.65 593.09, 433 607.75, 433C624.96, 433 640, 419.68 640, 401.19L640, 83.93C640, 71.29 632.77, 59.33 621.16, 54.46zM32.95, 111.26C53.17, 117.68 73.98, 121.79 95.62, 124.15C93.65, 157.56 66.39, 184.19 32.73, 184.58L32.95, 111.26zM32, 428.07L32.13, 385.53C65.71, 385.6 93.01, 411.84 95.51, 444.96C73.06, 441.92 51.88, 436.51 32, 428.07zM607.05, 400.74C586.89, 394.34 566.15, 390.23 544.58, 387.87C547.47, 355.37 574.27, 329.73 607.27, 329.35L607.05, 400.74zM607.36, 297.2C557.36, 297.54 516.77, 336.52 512.78, 385.8C442.05, 384.37 375.6, 401.62 312.18, 417.67C237.11, 436.67 185.64, 448.88 127.77, 447.54C126.54, 395.52 84.29, 353.53 32.22, 353.41L32.63, 216.74C83.28, 216.4 124.35, 176.42 127.41, 126.22C197.94, 127.63 264.43, 110.39 327.81, 94.35C402.6, 75.41 454.3, 63.13 512.03, 64.46C512.21, 117.39 555.04, 160.4 607.77, 160.53L607.36, 297.2zM607.87, 128.4C573.63, 128.33 545.83, 101.06 544.29, 67.02C566.82, 70.05 588.07, 75.47 608, 83.93L607.87, 128.4z" fill="#727272" fill-opacity="1" class="Black" />
    </g>
  </g>
</svg>