<?xml version='1.0' encoding='UTF-8'?>
<svg viewBox="-1.9999 -4.7991 32 31.9975" xmlns="http://www.w3.org/2000/svg">
  <g transform="matrix(1.0011, 0, 0, 1.0011, 0, 0)">
    <g transform="matrix(0.0437, 0, 0, 0.0437, 0, 0)">
      <path d="M425.23, 406.49A32.06 32.06 0 0 0 448, 416L512, 416A32 32 0 0 0 544, 384L544, 320A32 32 0 0 0 534.5, 297.24L246.68, 12.07A41.15 41.15 0 0 0 188.44, 12.07L140.06, 60.47A41.48 41.48 0 0 0 128, 89.89A40.68 40.68 0 0 0 140.34, 119zM289.46, 100L512, 320L512, 384L448, 384L228.1, 161.4L289.46, 100zM162.69, 83.09L211.08, 34.69A9.21 9.21 0 0 1 217.6, 32A9 9 0 0 1 224.05, 34.69L268.58, 79.23L207.22, 140.61L162.69, 96.07A9.18 9.18 0 0 1 162.69, 83.09zM128, 408A8 8 0 0 0 136, 416L389.61, 416L357.9, 384L136, 384A8 8 0 0 0 128, 392zM136, 320L294.49, 320L262.78, 288L136, 288A8 8 0 0 0 128, 296L128, 312A8 8 0 0 0 136, 320zM608, 128L409.15, 128L441.45, 160L608, 160L608, 480L32, 480L32, 160L136, 160L118, 141.88A73.25 73.25 0 0 1 107.13, 128L32, 128A32 32 0 0 0 0, 160L0, 480A32 32 0 0 0 32, 512L608, 512A32 32 0 0 0 640, 480L640, 160A32 32 0 0 0 608, 128z" fill="#727272" fill-opacity="1" class="Black" />
    </g>
  </g>
</svg>