<?xml version='1.0' encoding='UTF-8'?>
<svg viewBox="-1.9999 -4.7979 32 31.9975" xmlns="http://www.w3.org/2000/svg">
  <g transform="matrix(1.0011, 0, 0, 1.0011, 0, 0)">
    <g transform="matrix(0.0437, 0, 0, 0.0437, 0, 0)">
      <path d="M320, 144C266.98, 144 224, 194.14 224, 256C224, 317.85 266.98, 368 320, 368C373, 368 416, 317.87 416, 256C416, 194.14 373.02, 144 320, 144zM320, 336C284.71, 336 256, 300.11 256, 256C256, 211.89 284.71, 176 320, 176C355.29, 176 384, 211.89 384, 256C384, 300.11 355.29, 336 320, 336zM621.16, 54.46C582.37, 38.19 543.55, 32 504.75, 32C381.58, 31.99 258.42, 94.34 135.25, 94.34C70.34, 94.34 46.9, 79 32.25, 79C15.04, 79 0, 92.32 0, 110.81L0, 428.07C0, 440.7 7.23, 452.67 18.84, 457.53C57.63, 473.81 96.45, 480 135.25, 480C258.42, 480 381.58, 417.65 504.75, 417.65C569.66, 417.65 593.09, 433 607.75, 433C624.96, 433 640, 419.68 640, 401.19L640, 83.93C640, 71.29 632.77, 59.33 621.16, 54.46zM598.47, 398.46C581.53, 393.67 553.19, 385.66 504.75, 385.66C439.18, 385.66 374.6, 402 312.15, 417.81C250.8, 433.34 192.85, 448.01 135.25, 448.01C97.29, 448.01 63.26, 441.48 32, 428.08L31.51, 110.98C33.06, 111.16 37.76, 112.49 41.53, 113.55C58.46, 118.34 86.81, 126.35 135.24, 126.35C200.81, 126.35 265.38, 110 327.83, 94.2C389.2, 78.66 447.15, 64 504.75, 64C542.72, 64 576.75, 70.54 608, 83.93L608.49, 401.03C606.94, 400.85 602.24, 399.52 598.47, 398.46z" fill="#727272" fill-opacity="1" class="Black" />
    </g>
  </g>
</svg>