<?xml version='1.0' encoding='UTF-8'?>
<svg viewBox="-1.9999 -4.7979 32 31.9975" xmlns="http://www.w3.org/2000/svg">
  <g transform="matrix(1.0011, 0, 0, 1.0011, 0, 0)">
    <g transform="matrix(0.0437, 0, 0, 0.0437, 0, 0)">
      <path d="M320, 144C267, 144 224, 194.1 224, 256C224, 317.8 267, 368 320, 368C373, 368 416, 317.9 416, 256C416, 194.1 373, 144 320, 144zM320, 336C284.7, 336 256, 300.1 256, 256C256, 211.9 284.7, 176 320, 176C355.3, 176 384, 211.9 384, 256C384, 300.1 355.3, 336 320, 336zM608, 64L32, 64C14.3, 64 0, 78.3 0, 96L0, 416C0, 433.7 14.3, 448 32, 448L608, 448C625.7, 448 640, 433.7 640, 416L640, 96C640, 78.3 625.7, 64 608, 64zM32, 96L96, 96C96, 131.3 67.3, 160 32, 160L32, 96zM32, 416L32, 352C67.3, 352 96, 380.7 96, 416L32, 416zM608, 416L544, 416C544, 380.7 572.7, 352 608, 352L608, 416zM608, 320C555.1, 320 512, 363.1 512, 416L128, 416C128, 363.1 84.9, 320 32, 320L32, 192C84.9, 192 128, 148.9 128, 96L512, 96C512, 148.9 555.1, 192 608, 192L608, 320zM608, 160C572.7, 160 544, 131.3 544, 96L608, 96L608, 160z" fill="#727272" fill-opacity="1" class="Black" />
    </g>
  </g>
</svg>