<?xml version='1.0' encoding='UTF-8'?>
<svg viewBox="-1.9999 -4.7991 32 31.9975" xmlns="http://www.w3.org/2000/svg">
  <g transform="matrix(1.0011, 0, 0, 1.0011, 0, 0)">
    <g transform="matrix(0.0437, 0, 0, 0.0437, 0, 0)">
      <path d="M425.23, 406.49A32.06 32.06 0 0 0 448, 416L512, 416A32 32 0 0 0 544, 384L544, 320A32 32 0 0 0 534.5, 297.24L246.68, 12.07A41.15 41.15 0 0 0 188.44, 12.07L140.06, 60.47A41.48 41.48 0 0 0 128, 89.89A40.68 40.68 0 0 0 140.34, 119zM289.46, 100L512, 320L512, 384L448, 384L228.1, 161.4L289.46, 100zM162.69, 83.09L211.08, 34.69A9.21 9.21 0 0 1 217.6, 32A9 9 0 0 1 224.05, 34.69L268.58, 79.23L207.22, 140.61L162.69, 96.07A9.18 9.18 0 0 1 162.69, 83.09zM224, 408A8 8 0 0 0 232, 416L389.61, 416L357.9, 384L232, 384A8 8 0 0 0 224, 392zM232, 320L294.49, 320L262.78, 288L232, 288A8 8 0 0 0 224, 296L224, 312A8 8 0 0 0 232, 320zM608, 128L409.15, 128L441.45, 160L608, 160L608, 480L32, 480L32, 160L136, 160L118, 141.88A73.25 73.25 0 0 1 107.13, 128L32, 128A32 32 0 0 0 0, 160L0, 480A32 32 0 0 0 32, 512L608, 512A32 32 0 0 0 640, 480L640, 160A32 32 0 0 0 608, 128zM136, 424L152, 424A8 8 0 0 0 160, 416L160, 399.88C183.62, 399.25 202.67, 379.34 202.67, 354.81C202.67, 334.81 189.67, 317 171.09, 311.42L126.09, 297.92C120.93, 296.38 117.32, 291.14 117.32, 285.19C117.32, 277.92 122.61, 272 129.11, 272L157.22, 272A24 24 0 0 1 170.04, 275.72A8.21 8.21 0 0 0 180.17, 274.99L191.92, 263.78A8 8 0 0 0 191.35, 251.64A57.15 57.15 0 0 0 160, 240.29L160, 224A8 8 0 0 0 152, 216L136, 216A8 8 0 0 0 128, 224L128, 240.12C104.38, 240.75 85.33, 260.67 85.33, 285.19C85.33, 305.19 98.33, 323 116.91, 328.58L161.91, 342.08C167.07, 343.62 170.68, 348.86 170.68, 354.81C170.68, 362.08 165.39, 368 158.89, 368L130.77, 368A24.08 24.08 0 0 1 118, 364.28A8.21 8.21 0 0 0 107.87, 365.01L96.07, 376.22A8 8 0 0 0 96.64, 388.36A57.23 57.23 0 0 0 128, 399.71L128, 416A8 8 0 0 0 136, 424z" fill="#727272" fill-opacity="1" class="Black" />
    </g>
  </g>
</svg>