<?xml version='1.0' encoding='UTF-8'?>
<svg viewBox="-2 -4.7992 32 32" xmlns="http://www.w3.org/2000/svg">
  <g transform="matrix(0.9988, 0, 0, 0.9988, 0, 0)">
    <g transform="matrix(0.0438, 0, 0, 0.0438, 0, 0)">
      <path d="M576, 192C611.35, 192 640, 163.35 640, 128C640, 86.15 604.63, 64 576, 64L570.12, 64C556.9, 26.8 521.74, 0 480, 0C438.26, 0 403.1, 26.8 389.88, 64L384, 64C355.78, 64 320, 85.93 320, 128C320, 163.35 348.65, 192 384, 192L389.88, 192C391.02, 195.2 192, 218.88 192, 416L192, 448C192, 459.71 195.39, 470.55 200.9, 480L176, 480C149.53, 480 128, 458.47 128, 432L128, 192C128, 156.7 99.28, 128 64, 128C28.72, 128 0, 156.7 0, 192L0, 240C0, 248.84 7.16, 256 16, 256C24.84, 256 32, 248.84 32, 240L32, 192C32, 174.36 46.34, 160 64, 160C81.66, 160 96, 174.36 96, 192L96, 432C96, 476.11 131.88, 512 176, 512L416, 512C433.67, 512 448, 497.67 448, 480C448, 453.5 431.81, 430.7 408.79, 421L481.27, 366.21L512, 458.36L512, 480C512, 497.67 526.33, 512 544, 512L576, 512C593.67, 512 608, 497.67 608, 480L608, 453.2C608, 444.58 606.62, 436.05 603.89, 427.87L538.47, 235.66C552.87, 224.51 563.91, 209.5 570.12, 192.01L576, 192.01zM576, 96C590.22, 96 608, 107.05 608, 128C608, 145.64 593.64, 160 576, 160L576, 96zM384, 160C366.36, 160 352, 145.64 352, 128C352, 107.16 369.57, 96 384, 96L384, 160zM573.53, 437.98C575.16, 442.88 576, 448.02 576, 453.19L576, 480L544, 480L544, 453.17L497.54, 313.8L320, 448L384, 448C401.66, 448 416, 462.36 416, 480L256, 480C238.33, 480 224, 465.67 224, 448L224, 416C224, 312.26 306.34, 227.96 409.2, 224.34C426.76, 243.66 451.84, 256 480, 256C490.48, 256 500.38, 253.9 509.82, 250.8L573.53, 437.98zM544, 160C544, 195.29 515.29, 224 480, 224C444.71, 224 416, 195.29 416, 160L416, 96C416, 60.71 444.71, 32 480, 32C515.29, 32 544, 60.71 544, 96L544, 160zM448, 96C439.16, 96 432, 103.16 432, 112C432, 120.84 439.16, 128 448, 128C456.84, 128 464, 120.84 464, 112C464, 103.16 456.84, 96 448, 96zM512, 96C503.16, 96 496, 103.16 496, 112C496, 120.84 503.16, 128 512, 128C520.84, 128 528, 120.84 528, 112C528, 103.16 520.84, 96 512, 96z" fill="#727272" fill-opacity="1" class="Black" />
    </g>
  </g>
</svg>