<?xml version='1.0' encoding='UTF-8'?>
<svg viewBox="-2 -2 32 32" xmlns="http://www.w3.org/2000/svg">
  <g transform="matrix(0.0547, 0, 0, 0.0547, 0, 0)">
    <path d="M333.9, 426.2C333.3, 426.2 332.7, 426.3 332.1, 426.4C322.5, 428.2 312.9, 429.1 303.5, 429.1C222.2, 429.1 153.5, 363 153.5, 278.7C153.5, 224.5 182.5, 174.7 229.6, 147.9C236.9, 143.8 235, 132.8 226.8, 131.2C215.2, 129.1 203.5, 128 191.8, 128C85.9, 128 0, 213.9 0, 320C0, 426 85.8, 512 191.8, 512C251, 512 305, 485.1 340.8, 440.9C345.7, 434.9 341.1, 426.2 333.9, 426.2zM191.8, 480C103.7, 480 32, 408.2 32, 320C32, 241.5 88.8, 176 163.4, 162.5C136.8, 194.7 121.6, 235.7 121.6, 278.7C121.6, 368.5 186.7, 443.4 272.1, 458.4C248.1, 472.4 220.5, 480 191.8, 480zM503.2, 193.7L454.6, 169.4L430.3, 120.8C424.9, 110 407.1, 110 401.7, 120.8L377.4, 169.4L328.8, 193.7C323.4, 196.4 320, 201.9 320, 208C320, 214.1 323.4, 219.6 328.8, 222.3L377.4, 246.6L401.7, 295.2C404.4, 300.6 409.9, 304 416, 304C422.1, 304 427.6, 300.6 430.3, 295.2L454.6, 246.6L503.2, 222.3C508.6, 219.6 512, 214.1 512, 208C512, 201.9 508.6, 196.4 503.2, 193.7zM435.5, 220.4C432.4, 221.9 429.9, 224.5 428.3, 227.6L416, 252.2L403.7, 227.5C402.1, 224.4 399.6, 221.9 396.5, 220.3L371.8, 208L396.5, 195.6C399.6, 194.1 402.1, 191.5 403.7, 188.4L416, 163.7L428.3, 188.4C429.9, 191.5 432.4, 194 435.5, 195.6L460.2, 208L435.5, 220.4zM304, 96L320, 64L352, 48L320, 32L304, 0L288, 32L256, 48L288, 64L304, 96z" fill="#727272" fill-opacity="1" class="Black" />
  </g>
</svg>