<?xml version='1.0' encoding='UTF-8'?>
<svg viewBox="-2 -4.7992 32 32" xmlns="http://www.w3.org/2000/svg">
  <g transform="matrix(0.9988, 0, 0, 0.9988, 0, 0)">
    <g transform="matrix(0.0438, 0, 0, 0.0438, 0, 0)">
      <path d="M240, 384C210.47, 384 192, 409.06 192, 433.89L192, 504C192, 508.42 195.58, 512 200, 512L216, 512C220.42, 512 224, 508.42 224, 504L224, 432C224, 423.17 231.19, 416 240, 416C248.81, 416 256, 423.17 256, 432L256, 504C256, 508.42 259.58, 512 264, 512L280, 512C284.42, 512 288, 508.42 288, 504L288, 432C288, 405.53 266.47, 384 240, 384zM592, 256L585.83, 256C589.6, 247.36 592, 238.41 592, 229.09C592, 175.16 548.48, 133.63 501.26, 104.43C459.48, 78.59 426.39, 52.01 384, 0C341.75, 51.85 309.39, 78.05 266.74, 104.43C219.52, 133.63 176, 175.16 176, 229.09C176, 238.41 178.4, 247.36 182.17, 256L176, 256C170.36, 256 165.03, 257.15 160, 258.95L160, 120C160, 40 80, 0 80, 0C80, 0 0, 40 0, 120L0, 512L32, 512L32, 192L128, 192L128, 504C128, 508.42 131.58, 512 136, 512L152, 512C156.42, 512 160, 508.42 160, 504L160, 304C160, 295.16 167.16, 288 176, 288L592, 288C600.84, 288 608, 295.16 608, 304L608, 504C608, 508.42 611.58, 512 616, 512L632, 512C636.42, 512 640, 508.42 640, 504L640, 304C640, 277.49 618.51, 256 592, 256zM128, 160L32, 160L32, 120C32, 79.4 61.55, 51.38 80, 37.85C98.45, 51.38 128, 79.4 128, 120L128, 160zM549.07, 256L218.93, 256C211.67, 246.78 208, 237.76 208, 229.09C208, 196.06 232.56, 163.82 281, 133.25C321.99, 107.39 355.89, 79.8 384, 49.39C412.11, 79.8 446.02, 107.39 487, 133.25C535.44, 163.81 560, 196.06 560, 229.09C560, 237.76 556.33, 246.78 549.07, 256zM384, 320C322.98, 350.51 320, 396.2 320, 409.89L320, 504C320, 508.42 323.58, 512 328, 512L344, 512C348.42, 512 352, 508.42 352, 504L352, 409.89C352, 382.7 372.69, 364.56 384, 356.67C395.31, 364.56 416, 382.7 416, 409.89L416, 504C416, 508.42 419.58, 512 424, 512L440, 512C444.42, 512 448, 508.42 448, 504L448, 409.89C448, 396.18 445.02, 350.51 384, 320zM528, 384C498.47, 384 480, 409.06 480, 433.89L480, 504C480, 508.42 483.58, 512 488, 512L504, 512C508.42, 512 512, 508.42 512, 504L512, 432C512, 423.17 519.19, 416 528, 416C536.81, 416 544, 423.17 544, 432L544, 504C544, 508.42 547.58, 512 552, 512L568, 512C572.42, 512 576, 508.42 576, 504L576, 432C576, 405.53 554.47, 384 528, 384z" fill="#727272" fill-opacity="1" class="Black" />
    </g>
  </g>
</svg>