<?xml version='1.0' encoding='UTF-8'?>
<svg viewBox="-2 -4.7992 32 32" xmlns="http://www.w3.org/2000/svg">
  <g transform="matrix(0.9988, 0, 0, 0.9988, 0, 0)">
    <g transform="matrix(0.0438, 0, 0, 0.0438, 0, 0)">
      <path d="M512.238, 192C494.295, 191.967 477.213, 195.631 461.704, 202.266L435.799, 160L520, 160C533.255, 160 544, 149.255 544, 136L544, 88C544, 74.745 533.255, 64 520, 64L460, 64A24.002 24.002 0 0 0 440.8, 73.6L408.907, 116.124L381.642, 71.639A16.005 16.005 0 0 0 368, 64L292, 64C285.373, 64 280, 69.373 280, 76L280, 84C280, 90.627 285.373, 96 292, 96L359.04, 96L398.266, 160L217.584, 160C200.905, 140.936 175.79, 128 128, 128L80.452, 128C71.836, 128 64.423, 134.621 64.019, 143.227C63.586, 152.416 70.907, 160 80, 160L128, 160C152.268, 160 168.146, 168.239 179.566, 179.951L169.202, 198.794A127.7 127.7 0 0 0 129.479, 192.008C58.709, 191.202 0.272, 248.724 0.001, 319.499C-0.27, 390.422 57.141, 448 128, 448C187.641, 448 237.745, 407.205 251.956, 352L336.732, 352C346.116, 352 353.513, 343.943 352.668, 334.562C347.545, 277.772 372.855, 223.757 417.299, 191.051L434.09, 218.446C403.461, 241.979 383.776, 279.05 384.004, 320.713C384.384, 390.351 441.198, 447.373 510.834, 447.994C581.414, 448.623 638.946, 392.123 639.987, 321.937C641.039, 250.925 583.258, 192.129 512.238, 192zM462, 92L516, 92L516, 132L432, 132L462, 92zM128, 416C75.065, 416 32, 372.935 32, 320C32, 267.065 75.065, 224 128, 224A95.687 95.687 0 0 1 153.45, 227.436L97.98, 328.289C92.126, 338.933 99.838, 352 112, 352L218.499, 352C205.291, 389.247 169.718, 416 128, 416zM320, 320L139.061, 320L209.46, 192L368.927, 192C337.778, 226.865 320, 272.362 320, 320zM508.206, 415.926C458.384, 413.996 418.007, 373.621 416.074, 323.799C414.86, 292.505 428.716, 264.332 450.953, 245.963L508.449, 339.771C511.912, 345.422 519.301, 347.195 524.951, 343.731L531.772, 339.55C537.422, 336.087 539.195, 328.699 535.732, 323.048L478.681, 229.965A95.57 95.57 0 0 1 512, 224C564.935, 224 608, 267.065 608, 320C608, 374.194 562.861, 418.043 508.206, 415.926z" fill="#727272" fill-opacity="1" class="Black" />
    </g>
  </g>
</svg>