<?xml version='1.0' encoding='UTF-8'?>
<svg viewBox="-1.9973 -4.7993 31.9975 32" xmlns="http://www.w3.org/2000/svg">
  <g transform="matrix(1.0012, 0, 0, 1.0012, 0, 0)">
    <g transform="matrix(0.0437, 0, 0, 0.0437, 0, 0)">
      <path d="M634.92, 462.7L346.92, 14.7C341.03, 5.54 330.89, 0 320, 0C309.11, 0 298.97, 5.54 293.08, 14.7L5.08, 462.7A32.001 32.001 0 0 0 3.91, 495.34A32.004 32.004 0 0 0 32, 512L608, 512C619.71, 512 630.48, 505.61 636.09, 495.33A31.983 31.983 0 0 0 634.92, 462.7zM320, 32L422.86, 192L313.38, 192L256, 249.38L209.86, 203.33L320, 32zM32, 480L192.19, 230.81L256, 294.62L326.62, 224L443.42, 224L608, 480L32, 480z" fill="#727272" fill-opacity="1" class="Black" />
    </g>
  </g>
</svg>