<?xml version='1.0' encoding='UTF-8'?>
<svg viewBox="-5.5003 -2 32 32" xmlns="http://www.w3.org/2000/svg">
  <g transform="matrix(0.0547, 0, 0, 0.0547, 0, 0)">
    <path d="M224, 0L160, 0A160 160 0 0 0 0, 160L0, 352A160 160 0 0 0 160, 512L224, 512A160 160 0 0 0 384, 352L384, 160A160 160 0 0 0 224, 0zM32, 160A128.14 128.14 0 0 1 160, 32L176, 32L176, 192L32, 192zM352, 352A128.14 128.14 0 0 1 224, 480L160, 480A128.14 128.14 0 0 1 32, 352L32, 224L352, 224zM352, 192L208, 192L208, 32L224, 32A128.14 128.14 0 0 1 352, 160z" fill="#727272" fill-opacity="1" class="Black" />
  </g>
</svg>