<?xml version='1.0' encoding='UTF-8'?>
<svg viewBox="-7.2491 -1.9975 32 32" xmlns="http://www.w3.org/2000/svg">
  <g transform="matrix(0.0547, 0, 0, 0.0547, 0, 0)">
    <path d="M154.149, 488.438L112.234, 386.573L65.446, 439.373C42.432, 465.345 0, 448.788 0, 413.5L0, 38.561C0, 3.847 41.401, -13.114 64.794, 11.971L309.547, 274.41C332.244, 298.745 315.621, 339.5 282.352, 339.5L216.642, 339.5L259.451, 443.537C267.6, 463.344 258.416, 486.048 238.977, 494.147L202.977, 509.148C183.941, 517.076 162.169, 507.931 154.149, 488.438zM122.309, 326.956L183.744, 476.263C184.926, 479.14 187.861, 480.781 190.67, 479.61L226.669, 464.61C229.783, 463.312 231.273, 459.155 229.857, 455.714L168.872, 307.5L282.351, 307.5C287.36, 307.5 289.971, 300.34 286.144, 296.234L41.392, 33.795C37.785, 29.932 32, 32.879 32, 38.561L32, 413.5C32, 419.275 37.935, 422.17 41.497, 418.15L122.309, 326.956z" fill="#727272" fill-opacity="1" class="Black" />
  </g>
</svg>