<?xml version='1.0' encoding='UTF-8'?>
<svg viewBox="-5.5003 -2 32 32" xmlns="http://www.w3.org/2000/svg">
  <g transform="matrix(0.0547, 0, 0, 0.0547, 0, 0)">
    <path d="M64, 192L320, 192L320, 64L64, 64zM96, 96L288, 96L288, 160L96, 160zM336, 0L48, 0A48 48 0 0 0 0, 48L0, 464A48 48 0 0 0 48, 512L336, 512A48 48 0 0 0 384, 464L384, 48A48 48 0 0 0 336, 0zM352, 464A16 16 0 0 1 336, 480L48, 480A16 16 0 0 1 32, 464L32, 48A16 16 0 0 1 48, 32L336, 32A16 16 0 0 1 352, 48zM192, 224A112 112 0 1 0 304, 336A112.14 112.14 0 0 0 192, 224zM192, 416A80 80 0 1 1 272, 336A80.08 80.08 0 0 1 192, 416zM192, 312A24 24 0 1 0 216, 336A24 24 0 0 0 192, 312z" fill="#727272" fill-opacity="1" class="Black" />
  </g>
</svg>