<?xml version='1.0' encoding='UTF-8'?>
<svg viewBox="-1.9975 -4.7983 32 32" xmlns="http://www.w3.org/2000/svg">
  <g transform="matrix(0.9989, 0, 0, 0.9989, 0, 0)">
    <g transform="matrix(0.0438, 0, 0, 0.0438, 0, 0)">
      <path d="M601.9, 448L6.1, 448C-7, 448 1.6, 480 26.1, 480L581.9, 480C606.4, 480 615, 448 601.9, 448zM544, 32L128, 32A32 32 0 0 0 96, 64L96, 288A96 96 0 0 0 192, 384L384, 384A96 96 0 0 0 480, 288L480, 224L544, 224A96 96 0 0 0 544, 32zM448, 288A64.07 64.07 0 0 1 384, 352L192, 352A64.07 64.07 0 0 1 128, 288L128, 64L224, 64L224, 96L185.37, 134.63A32 32 0 0 0 176, 157.25L176, 224A32 32 0 0 0 208, 256L272, 256A32 32 0 0 0 304, 224L304, 157.25A32 32 0 0 0 294.63, 134.63L256, 96L256, 64L448, 64zM240, 125.25L272, 157.25L272, 224L208, 224L208, 157.25zM544, 192L480, 192L480, 64L544, 64A64 64 0 0 1 544, 192z" fill="#727272" fill-opacity="1" class="Black" />
    </g>
  </g>
</svg>