<?xml version='1.0' encoding='UTF-8'?>
<svg viewBox="-1.9999 -1.9999 32 32" xmlns="http://www.w3.org/2000/svg">
  <g transform="matrix(0.0547, 0, 0, 0.0547, 0, 0)">
    <path d="M481.44, 0A29.38 29.38 0 0 0 472.19, 1.5L181.41, 97.5C168.72, 101.72 160, 114 160, 128L160, 372.75C143, 360 120.69, 352 96, 352C43, 352 0, 387.81 0, 432C0, 476.19 43, 512 96, 512C149, 512 192, 476.19 192, 432L192, 256L480, 160L480, 308.75C463, 296 440.69, 288 416, 288C363, 288 320, 323.81 320, 368C320, 412.19 363, 448 416, 448C469, 448 512, 412.19 512, 368L512, 32C512, 13.75 497.69, 0 481.44, 0zM96, 480C61.31, 480 32, 458 32, 432C32, 406 61.31, 384 96, 384C130.69, 384 160, 406 160, 432C160, 458 130.69, 480 96, 480zM416, 416C381.31, 416 352, 394 352, 368C352, 342 381.31, 320 416, 320C450.69, 320 480, 342 480, 368C480, 394 450.69, 416 416, 416zM480, 126.28L192, 222.28L192, 128L191.44, 128L191.44, 127.88L480, 32.62z" fill="#727272" fill-opacity="1" class="Black" />
  </g>
</svg>