<?xml version='1.0' encoding='UTF-8'?>
<svg viewBox="-1.9974 -4.7981 31.9975 32" xmlns="http://www.w3.org/2000/svg">
  <g transform="matrix(0.9989, 0, 0, 0.9989, 0, 0)">
    <g transform="matrix(0.0438, 0, 0, 0.0438, 0, 0)">
      <path d="M637, 485.34L23, 1.82A7.85 7.85 0 0 0 11.79, 3L1.79, 15.5A7.92 7.92 0 0 0 3, 26.73L617, 510.21A7.89 7.89 0 0 0 628.18, 509L638.18, 496.5A7.82 7.82 0 0 0 637, 485.34zM256, 128L255.44, 128L255.44, 127.88L544, 32.62L544, 126.28L325.3, 199.18L355.38, 222.87L544, 160L544, 308.75C527, 296 504.71, 288 480, 288A112.39 112.39 0 0 0 445.22, 293.61L478.85, 320.09C479.24, 320.09 479.61, 320 480, 320C514.69, 320 544, 342 544, 368C544, 369 543.66, 370 543.57, 371.06L570.9, 392.58A67.33 67.33 0 0 0 576, 368L576, 32C576, 13.75 561.69, 0 545.44, 0A29.38 29.38 0 0 0 536.19, 1.5L245.4, 97.5C235.12, 100.92 227.72, 109.71 225.18, 120.33L256, 144.6zM224, 372.75C207, 360 184.7, 352 160, 352C107, 352 64, 387.81 64, 432C64, 476.19 107, 512 160, 512C213, 512 256, 476.19 256, 432L256, 266.7L224, 241.5zM160, 480C125.31, 480 96, 458 96, 432C96, 406 125.32, 384 160, 384C194.68, 384 224, 406 224, 432C224, 458 194.7, 480 160, 480z" fill="#727272" fill-opacity="1" class="Black" />
    </g>
  </g>
</svg>