<?xml version='1.0' encoding='UTF-8'?>
<svg viewBox="-2 -4.7967 32 32" xmlns="http://www.w3.org/2000/svg">
  <g transform="matrix(0.9988, 0, 0, 0.9988, 0, 0)">
    <g transform="matrix(0.0438, 0, 0, 0.0438, 0, 0)">
      <path d="M594.39, 224.44L639.29, 32.54C642.01, 21.04 636.7, 9.04 626.29, 3.29C620.1, -0.08 612.91, -0.93 606.1, 1.07C599.32, 3.05 593.69, 7.55 590.35, 13.69L491.16, 193.38C296.64, 207.72 223.11, 416 179.87, 416C168.91, 416 160, 407.08 160, 396.12L160, 288L207.37, 263.1C217.76, 257.17 223.99, 247.17 223.99, 236.48L223.99, 144.03C223.99, 134.62 214.98, 128 205.27, 128C201.8, 128 198.24, 128.85 194.97, 130.71L112, 178.13L29.02, 130.71C25.75, 128.84 22.19, 128 18.72, 128C9.01, 128 0, 134.61 0, 144.03L0, 236.48C0, 247.18 6.24, 257.17 16.62, 263.1L64, 288L64, 396.12C64, 460.12 115.88, 511.99 179.87, 511.99L560, 511.99C604.18, 511.99 640, 476.17 640, 431.99L640, 320.54C640, 281.43 621.32, 247.68 594.39, 224.44zM599.04, 64.18L565.93, 205.55C553.7, 199.49 540.82, 195.49 527.56, 193.65L599.04, 64.18zM608, 432C608, 458.47 586.47, 480 560, 480L179.87, 480C133.63, 480 96, 442.37 96, 396.13L96, 268.67L32, 234.83L32, 169.27L112, 214.98L192, 169.27L192, 235.03L128, 268.67L128, 396.13C128, 424.73 151.27, 448 179.87, 448C209.67, 448 229.82, 422.05 260.32, 382.77C309.41, 319.55 383.6, 224 512, 224C557.41, 224 608, 263.65 608, 320.54L608, 432zM432, 352C423.16, 352 416, 359.16 416, 368C416, 376.84 423.16, 384 432, 384C440.84, 384 448, 376.84 448, 368C448, 359.16 440.84, 352 432, 352z" fill="#727272" fill-opacity="1" class="Black" />
    </g>
  </g>
</svg>