<?xml version='1.0' encoding='UTF-8'?>
<svg viewBox="-1.9998 -4.8002 31.9975 32" xmlns="http://www.w3.org/2000/svg">
  <g transform="matrix(0.9988, 0, 0, 0.9988, 0, 0)">
    <g transform="matrix(0.0438, 0, 0, 0.0438, 0, 0)">
      <path d="M632, 240L336, 240L336, 160L416, 160C433.67, 160 448, 145.67 448, 128L448, 32C448, 14.33 433.67, 0 416, 0L224, 0C206.33, 0 192, 14.33 192, 32L192, 128C192, 145.67 206.33, 160 224, 160L304, 160L304, 240L8, 240C3.58, 240 0, 243.58 0, 248L0, 264C0, 268.42 3.58, 272 8, 272L128, 272L128, 352L64, 352C46.33, 352 32, 366.33 32, 384L32, 480C32, 497.67 46.33, 512 64, 512L224, 512C241.67, 512 256, 497.67 256, 480L256, 384C256, 366.33 241.67, 352 224, 352L160, 352L160, 272L480, 272L480, 352L416, 352C398.33, 352 384, 366.33 384, 384L384, 480C384, 497.67 398.33, 512 416, 512L576, 512C593.67, 512 608, 497.67 608, 480L608, 384C608, 366.33 593.67, 352 576, 352L512, 352L512, 272L632, 272C636.42, 272 640, 268.42 640, 264L640, 248C640, 243.58 636.42, 240 632, 240zM224, 384L224, 480L64, 480L64, 384L224, 384zM224, 128L224, 32L416, 32L416, 128L224, 128zM576, 384L576, 480L416, 480L416, 384L576, 384z" fill="#727272" fill-opacity="1" class="Black" />
    </g>
  </g>
</svg>