<?xml version='1.0' encoding='UTF-8'?>
<svg viewBox="-1.9999 -3.5527 32 31.9975" xmlns="http://www.w3.org/2000/svg">
  <g transform="matrix(0.0486, 0, 0, 0.0486, 0, 0)">
    <path d="M552, 64L88, 64C74.766, 64 64, 74.767 64, 88L64, 96L24, 96C10.745, 96 0, 106.745 0, 120L0, 400C0, 426.51 21.49, 448 48, 448L552, 448C565.233, 448 576, 437.233 576, 424L576, 88C576, 74.767 565.233, 64 552, 64zM32, 400L32, 128L64, 128L64, 400C64, 408.822 56.822, 416 48, 416C39.178, 416 32, 408.822 32, 400zM544, 416L93.258, 416A47.897 47.897 0 0 0 96, 400L96, 96L544, 96L544, 416zM140, 320L308, 320C314.627, 320 320, 314.627 320, 308L320, 140C320, 133.373 314.627, 128 308, 128L140, 128C133.373, 128 128, 133.373 128, 140L128, 308C128, 314.627 133.373, 320 140, 320zM160, 160L288, 160L288, 288L160, 288L160, 160zM128, 372L128, 364C128, 357.373 133.373, 352 140, 352L308, 352C314.627, 352 320, 357.373 320, 364L320, 372C320, 378.627 314.627, 384 308, 384L140, 384C133.373, 384 128, 378.627 128, 372zM352, 372L352, 364C352, 357.373 357.373, 352 364, 352L500, 352C506.627, 352 512, 357.373 512, 364L512, 372C512, 378.627 506.627, 384 500, 384L364, 384C357.373, 384 352, 378.627 352, 372zM352, 308L352, 300C352, 293.373 357.373, 288 364, 288L500, 288C506.627, 288 512, 293.373 512, 300L512, 308C512, 314.627 506.627, 320 500, 320L364, 320C357.373, 320 352, 314.627 352, 308zM352, 180L352, 172C352, 165.373 357.373, 160 364, 160L500, 160C506.627, 160 512, 165.373 512, 172L512, 180C512, 186.627 506.627, 192 500, 192L364, 192C357.373, 192 352, 186.627 352, 180zM352, 244L352, 236C352, 229.373 357.373, 224 364, 224L500, 224C506.627, 224 512, 229.373 512, 236L512, 244C512, 250.627 506.627, 256 500, 256L364, 256C357.373, 256 352, 250.627 352, 244z" fill="#727272" fill-opacity="1" class="Black" />
  </g>
</svg>