<?xml version='1.0' encoding='UTF-8'?>
<svg viewBox="-2 -1.9988 32 32" xmlns="http://www.w3.org/2000/svg">
  <g transform="matrix(0.0547, 0, 0, 0.0547, 0, 0)">
    <path d="M404, 192L320, 192L320, 140C320, 133.4 314.6, 128 308, 128L108, 128C101.4, 128 96, 133.4 96, 140L96, 308C96, 314.6 101.4, 320 108, 320L192, 320L192, 372C192, 378.6 197.4, 384 204, 384L404, 384C410.6, 384 416, 378.6 416, 372L416, 204C416, 197.4 410.6, 192 404, 192zM128, 288L128, 160L288, 160L288, 288zM384, 352L224, 352L224, 320L308, 320C314.6, 320 320, 314.6 320, 308L320, 224L384, 224zM500, 128C506.6, 128 512, 122.6 512, 116L512, 44C512, 37.4 506.6, 32 500, 32L428, 32C421.4, 32 416, 37.4 416, 44L416, 64L96, 64L96, 44C96, 37.4 90.6, 32 84, 32L12, 32C5.4, 32 0, 37.4 0, 44L0, 116C0, 122.6 5.4, 128 12, 128L32, 128L32, 384L12, 384C5.4, 384 0, 389.4 0, 396L0, 468C0, 474.6 5.4, 480 12, 480L84, 480C90.6, 480 96, 474.6 96, 468L96, 448L416, 448L416, 468C416, 474.6 421.4, 480 428, 480L500, 480C506.6, 480 512, 474.6 512, 468L512, 396C512, 389.4 506.6, 384 500, 384L480, 384L480, 128zM32, 64L64, 64L64, 96L32, 96zM64, 448L32, 448L32, 416L64, 416zM416, 396L416, 416L96, 416L96, 396C96, 389.4 90.6, 384 84, 384L64, 384L64, 128L84, 128C90.6, 128 96, 122.6 96, 116L96, 96L416, 96L416, 116C416, 122.6 421.4, 128 428, 128L448, 128L448, 384L428, 384C421.4, 384 416, 389.4 416, 396zM480, 448L448, 448L448, 416L480, 416zM448, 96L448, 64L480, 64L480, 96z" fill="#727272" fill-opacity="1" class="Black" />
  </g>
</svg>