<?xml version='1.0' encoding='UTF-8'?>
<svg viewBox="-2 -3.554 32 32" xmlns="http://www.w3.org/2000/svg">
  <g transform="matrix(0.0486, 0, 0, 0.0486, 0, 0)">
    <path d="M564, 224C570.627, 224 576, 218.627 576, 212L576, 140C576, 133.373 570.627, 128 564, 128L492, 128C485.373, 128 480, 133.373 480, 140L480, 160L384, 160L384, 128L404, 128C410.627, 128 416, 122.627 416, 116L416, 44C416, 37.373 410.627, 32 404, 32L332, 32C325.373, 32 320, 37.373 320, 44L320, 64L96, 64L96, 44C96, 37.373 90.627, 32 84, 32L12, 32C5.373, 32 0, 37.373 0, 44L0, 116C0, 122.627 5.373, 128 12, 128L32, 128L32, 288L12, 288C5.373, 288 0, 293.373 0, 300L0, 372C0, 378.627 5.373, 384 12, 384L84, 384C90.627, 384 96, 378.627 96, 372L96, 352L192, 352L192, 384L172, 384C165.373, 384 160, 389.373 160, 396L160, 468C160, 474.627 165.373, 480 172, 480L244, 480C250.627, 480 256, 474.627 256, 468L256, 448L480, 448L480, 468C480, 474.627 485.373, 480 492, 480L564, 480C570.627, 480 576, 474.627 576, 468L576, 396C576, 389.373 570.627, 384 564, 384L544, 384L544, 224L564, 224zM384, 320L384, 352L352, 352L352, 320L384, 320zM352, 64L384, 64L384, 96L352, 96L352, 64zM32, 64L64, 64L64, 96L32, 96L32, 64zM64, 352L32, 352L32, 320L64, 320L64, 352zM84, 288L64, 288L64, 128L84, 128C90.627, 128 96, 122.627 96, 116L96, 96L320, 96L320, 116C320, 122.627 325.373, 128 332, 128L352, 128L352, 288L332, 288C325.373, 288 320, 293.373 320, 300L320, 320L96, 320L96, 300C96, 293.373 90.627, 288 84, 288zM224, 448L192, 448L192, 416L224, 416L224, 448zM480, 396L480, 416L256, 416L256, 396C256, 389.373 250.627, 384 244, 384L224, 384L224, 352L320, 352L320, 372C320, 378.627 325.373, 384 332, 384L404, 384C410.627, 384 416, 378.627 416, 372L416, 300C416, 293.373 410.627, 288 404, 288L384, 288L384, 192L480, 192L480, 212C480, 218.627 485.373, 224 492, 224L512, 224L512, 384L492, 384C485.373, 384 480, 389.373 480, 396zM544, 448L512, 448L512, 416L544, 416L544, 448zM512, 192L512, 160L544, 160L544, 192L512, 192z" fill="#727272" fill-opacity="1" class="Black" />
  </g>
</svg>