<?xml version='1.0' encoding='UTF-8'?>
<svg viewBox="-2 0.0012 32 32" xmlns="http://www.w3.org/2000/svg">
  <g transform="matrix(0.0625, 0, 0, 0.0625, 0, 0)">
    <path d="M448, 256C448, 123.79 333.46, 18.33 198.2, 33.45C96.64, 44.79 14.1, 126.45 1.72, 227.88C-9.65, 321.08 36.42, 404.41 109.06, 448L8, 448C3.58, 448 0, 451.58 0, 456L0, 472C0, 476.42 3.58, 480 8, 480L152, 480C156.42, 480 160, 476.42 160, 472L160, 447.69C160, 441.12 155.9, 435.4 149.84, 432.86C77.6, 402.47 27.63, 329.3 32.3, 245.13C37.7, 147.79 118.61, 68.13 216.02, 64.16C325.51, 59.7 416, 147.48 416, 256C416, 335.56 367.27, 403.79 298.16, 432.86C292.1, 435.41 288, 441.12 288, 447.69L288, 472C288, 476.42 291.58, 480 296, 480L440, 480C444.42, 480 448, 476.42 448, 472L448, 456C448, 451.58 444.42, 448 440, 448L338.94, 448C404.19, 408.85 448, 337.63 448, 256z" fill="#727272" fill-opacity="1" class="Black" />
  </g>
</svg>