<?xml version='1.0' encoding='UTF-8'?>
<svg viewBox="-2 -4.7992 32 32" xmlns="http://www.w3.org/2000/svg">
  <g transform="matrix(0.9988, 0, 0, 0.9988, 0, 0)">
    <g transform="matrix(0.0438, 0, 0, 0.0438, 0, 0)">
      <path d="M512, 56C503.16, 56 496, 63.16 496, 72C496, 80.84 503.17, 88 512, 88C520.84, 88 528, 80.84 528, 72C528, 63.16 520.84, 56 512, 56zM592, 32L574.86, 32L561.6, 18.74C549.52, 6.66 533.44, 0 516.35, 0L495.86, 0C484.74, 0 473.76, 2.91 464.11, 8.43L310.86, 96L288, 96C182.13, 96 96, 182.13 96, 288L96, 289.14C41.79, 296.93 0, 343.67 0, 400C0, 461.76 50.24, 512 112, 512L256, 512C282.47, 512 304, 490.47 304, 464C304, 437.53 282.47, 416 256, 416L112, 416C103.18, 416 96, 408.82 96, 400C96, 391.18 103.18, 384 112, 384L320, 384C337.67, 384 352, 369.67 352, 352C352, 329 339.81, 308.8 321.55, 297.52L370.16, 271.67L417.48, 366.31A32 32 0 0 0 446.1, 384L544, 384C561.67, 384 576, 369.67 576, 352C576, 316.71 547.29, 288 512, 288L485.67, 288L454.96, 226.58L499.78, 202.74C512.99, 195.71 529.04, 192 544, 192C596.93, 192 640, 148.94 640, 96L640, 80C640, 53.53 618.47, 32 592, 32zM544, 160C523.74, 160 502.64, 164.97 484.75, 174.49L480.56, 176.72L497.46, 154.76C506.5, 143 520.72, 136 535.5, 136L593.59, 136C581.86, 150.52 564.12, 160 544, 160zM607.19, 104L535.5, 104C510.84, 104 487.16, 115.67 472.09, 135.23L412.38, 212.97L465.89, 320L512, 320C529.66, 320 544, 334.36 544, 352L446.11, 352L384.11, 228.01L211.13, 320L288, 320C305.66, 320 320, 334.36 320, 352L112, 352C85.53, 352 64, 373.53 64, 400C64, 426.47 85.53, 448 112, 448L256, 448C264.84, 448 272, 455.16 272, 464C272, 472.84 264.84, 480 256, 480L112, 480C67.88, 480 32, 444.11 32, 400C32, 355.89 67.88, 320 112, 320L128, 320L128, 288C128, 199.63 199.63, 128 288, 128L319.36, 128L479.98, 36.21A32.048 32.048 0 0 1 495.86, 32L516.35, 32C524.9, 32 532.93, 35.33 538.97, 41.37L561.6, 64L592, 64C600.84, 64 608, 71.16 608, 80C608, 80 607.53, 101.35 607.19, 104z" fill="#727272" fill-opacity="1" class="Black" />
    </g>
  </g>
</svg>