<?xml version='1.0' encoding='UTF-8'?>
<svg viewBox="-1.9998 -3.5563 31.9975 32" xmlns="http://www.w3.org/2000/svg">
  <g transform="matrix(0.0486, 0, 0, 0.0486, 0, 0)">
    <path d="M232, 272A8 8 0 0 0 224, 280L224, 296A8 8 0 0 0 232, 304L344, 304A8 8 0 0 0 352, 296L352, 280A8 8 0 0 0 344, 272zM128, 32L320, 32L320, 144A16 16 0 0 0 336, 160L448, 160L448, 224L480, 224L480, 141.23A31.93 31.93 0 0 0 470.65, 118.63C447, 94.92 384.8, 32.78 361.23, 9.23A31.54 31.54 0 0 0 338.75, 0L128, 0A32 32 0 0 0 96, 32L96, 224L128, 224zM352, 45.25L434.77, 128L352, 128zM568, 272L424, 272A8 8 0 0 0 416, 280L416, 296A8 8 0 0 0 424, 304L568, 304A8 8 0 0 0 576, 296L576, 280A8 8 0 0 0 568, 272zM160, 296L160, 280A8 8 0 0 0 152, 272L8, 272A8 8 0 0 0 0, 280L0, 296A8 8 0 0 0 8, 304L152, 304A8 8 0 0 0 160, 296zM448, 480L128, 480L128, 352L96, 352L96, 480A32 32 0 0 0 128, 512L448, 512A32 32 0 0 0 480, 480L480, 352L448, 352z" fill="#727272" fill-opacity="1" class="Black" />
  </g>
</svg>