<?xml version='1.0' encoding='UTF-8'?>
<svg viewBox="-2 -2 32 32" xmlns="http://www.w3.org/2000/svg">
  <g transform="matrix(0.0547, 0, 0, 0.0547, 0, 0)">
    <path d="M455.59, 0C439.78, 0 424.97, 6.99 413.66, 17.15C195.73, 211.82 169.77, 216.5 179.98, 281.99C138.46, 286.95 101.39, 306.04 79.66, 363.31C76.98, 370.39 70.54, 374.69 63.02, 374.69C50.35, 374.69 11.17, 343.13 0, 335.5C0, 429.45 43.26, 512 146, 512C263.18, 512 298.72, 424.25 291.06, 366.11C347.96, 359.1 388.21, 303.6 497.51, 99.62C505.2, 84.65 512, 68.48 512, 51.66C512, 21.52 484.89, 0 455.59, 0zM236.52, 445.55C216.47, 468.41 186.02, 480 146, 480C82.22, 480 53.71, 441.17 41.25, 401.31C49.27, 404.96 56.23, 406.7 63.02, 406.7C83.94, 406.7 102.22, 394.12 109.58, 374.67C116.23, 357.15 125.63, 320.72 193.34, 312.63L258.42, 363.25C262.45, 393.93 257.17, 422 236.52, 445.55zM469.31, 84.5C350.91, 305.46 325.62, 329.61 275.23, 335.81L213.23, 287.59C204.43, 231.16 198.43, 252.31 435.05, 40.95C441.38, 35.26 448.86, 32 455.59, 32C467.38, 32 480, 39.9 480, 51.66C480, 62.24 474.46, 74.45 469.31, 84.5z" fill="#727272" fill-opacity="1" class="Black" />
  </g>
</svg>