<?xml version='1.0' encoding='UTF-8'?>
<svg viewBox="-2 -2 32 32" xmlns="http://www.w3.org/2000/svg">
  <g transform="matrix(0.0547, 0, 0, 0.0547, 0, 0)">
    <path d="M464, 64L416, 64L416, 48C416, 21.49 394.51, 0 368, 0L48, 0C21.49, 0 0, 21.49 0, 48L0, 112C0, 138.51 21.49, 160 48, 160L368, 160C394.51, 160 416, 138.51 416, 112L416, 96L464, 96C472.81, 96 480, 103.17 480, 112L480, 208C480, 216.83 472.81, 224 464, 224L256, 224C229.53, 224 208, 245.53 208, 272L208, 320L192, 320C174.33, 320 160, 334.33 160, 352L160, 480C160, 497.67 174.33, 512 192, 512L256, 512C273.67, 512 288, 497.67 288, 480L288, 352C288, 334.33 273.67, 320 256, 320L240, 320L240, 272C240, 263.17 247.19, 256 256, 256L464, 256C490.47, 256 512, 234.47 512, 208L512, 112C512, 85.53 490.47, 64 464, 64zM384, 64L384, 112C384, 120.82 376.82, 128 368, 128L48, 128C39.18, 128 32, 120.82 32, 112L32, 48C32, 39.18 39.18, 32 48, 32L368, 32C376.82, 32 384, 39.18 384, 48L384, 64zM256, 480L192, 480L192, 352L256, 352L256, 480z" fill="#727272" fill-opacity="1" class="Black" />
  </g>
</svg>