<?xml version='1.0' encoding='UTF-8'?>
<svg viewBox="-1.995 -2 32 32" xmlns="http://www.w3.org/2000/svg">
  <g transform="matrix(0.0547, 0, 0, 0.0547, 0, 0)">
    <path d="M112, 264C98.7, 264 88, 274.7 88, 288C88, 301.3 98.7, 312 112, 312C125.3, 312 136, 301.3 136, 288C136, 274.7 125.3, 264 112, 264zM144, 152C130.7, 152 120, 162.7 120, 176C120, 189.3 130.7, 200 144, 200C157.3, 200 168, 189.3 168, 176C168, 162.7 157.3, 152 144, 152zM256, 0C239.1, 0 221.8, 1.6 204.3, 5C104.9, 24.4 24.8, 104.3 5.2, 203.4C-29.4, 378.5 116.4, 512 239.5, 512C247.8, 512 256, 511.4 264.1, 510.1C305.3, 503.7 325.5, 455.5 306.6, 418.4C283.5, 373 316.5, 320 367.5, 320L447.2, 320C483, 320 512, 290.4 512.1, 254.7C511.6, 113.9 397.1, 0 256, 0zM447.1, 288L367.4, 288C332.1, 288 300, 305.9 281.7, 335.8C263.5, 365.5 262.1, 401.8 278, 433C282.9, 442.6 282.8, 454.6 277.9, 464.3C275.5, 468.9 270, 476.9 259.2, 478.6C252.9, 479.6 246.3, 480.1 239.5, 480.1C184.9, 480.1 125.4, 448.8 84, 398.5C40, 344.9 23.1, 277.9 36.6, 209.8C53.7, 123.2 123.6, 53.6 210.5, 36.6C225.7, 33.6 241, 32.1 256, 32.1C379.1, 32.1 479.6, 132 480, 254.7C480, 273 465.2, 288 447.1, 288zM368, 136C354.7, 136 344, 146.7 344, 160C344, 173.3 354.7, 184 368, 184C381.3, 184 392, 173.3 392, 160C392, 146.7 381.3, 136 368, 136zM240, 88C226.7, 88 216, 98.7 216, 112C216, 125.3 226.7, 136 240, 136C253.3, 136 264, 125.3 264, 112C264, 98.7 253.3, 88 240, 88z" fill="#727272" fill-opacity="1" class="Black" />
  </g>
</svg>