<?xml version='1.0' encoding='UTF-8'?>
<svg viewBox="-2 -4.7992 32 32" xmlns="http://www.w3.org/2000/svg">
  <g transform="matrix(0.9988, 0, 0, 0.9988, 0, 0)">
    <g transform="matrix(0.0438, 0, 0, 0.0438, 0, 0)">
      <path d="M112, 288L528, 288C536.8, 288 544, 280.8 544, 272L544, 80C544, 71.2 536.8, 64 528, 64L352, 64L352, 16C352, 7.2 344.8, 0 336, 0L112, 0C103.2, 0 96, 7.2 96, 16L96, 272C96, 280.8 103.2, 288 112, 288zM352, 96L512, 96L512, 256L352, 256L352, 96zM128, 32L320, 32L320, 256L128, 256L128, 32zM632, 352C636.4, 352 640, 348.4 640, 344L640, 328C640, 323.6 636.4, 320 632, 320L8, 320C3.6, 320 0, 323.6 0, 328L0, 344C0, 348.4 3.6, 352 8, 352L64, 352L64, 480L8, 480C3.6, 480 0, 483.6 0, 488L0, 504C0, 508.4 3.6, 512 8, 512L632, 512C636.4, 512 640, 508.4 640, 504L640, 488C640, 483.6 636.4, 480 632, 480L576, 480L576, 352L632, 352zM160, 480L96, 480L96, 352L160, 352L160, 480zM448, 480L192, 480L192, 352L448, 352L448, 480zM544, 480L480, 480L480, 352L544, 352L544, 480z" fill="#727272" fill-opacity="1" class="Black" />
    </g>
  </g>
</svg>