<?xml version='1.0' encoding='UTF-8'?>
<svg viewBox="-1.995 -1.995 32 31.9975" xmlns="http://www.w3.org/2000/svg">
  <g transform="matrix(0.0547, 0, 0, 0.0547, 0, 0)">
    <path d="M464, 4.3L16, 262.7C-7, 276 -4.7, 309.9 19.8, 320L160, 378L160, 480C160, 510.2 197.8, 523.3 216.7, 500.3L277.4, 426.5L403.8, 478.7C422.9, 486.6 444.5, 474.5 447.6, 454L511.6, 36.9C515.7, 10.2 487, -9 464, 4.3zM192, 480L192, 391.2L246.5, 413.7L192, 480zM416, 449.1L209.8, 363.9L409.3, 128.1C414.1, 122.5 406.4, 114.9 400.8, 119.7L145.5, 337.3L32, 290.5L480, 32L416, 449.1z" fill="#727272" fill-opacity="1" class="Black" />
  </g>
</svg>