<?xml version='1.0' encoding='UTF-8'?>
<svg viewBox="0.0012 0 32 32" xmlns="http://www.w3.org/2000/svg">
  <g transform="matrix(0.0625, 0, 0, 0.0625, 0, 0)">
    <path d="M440, 32L224, 32A160 160 0 0 0 64.35, 202.65C69.85, 287.65 144.26, 352 229.48, 352L256, 352L256, 472A8 8 0 0 0 264, 480L280, 480A8 8 0 0 0 288, 472L288, 64L352, 64L352, 472A8 8 0 0 0 360, 480L376, 480A8 8 0 0 0 384, 472L384, 64L440, 64A8 8 0 0 0 448, 56L448, 40A8 8 0 0 0 440, 32zM256, 320L224, 320A128 128 0 0 1 224, 64L256, 64z" fill="#727272" fill-opacity="1" class="Black" />
  </g>
</svg>