<?xml version='1.0' encoding='UTF-8'?>
<svg viewBox="-1.9974 -1.9999 31.9975 32" xmlns="http://www.w3.org/2000/svg">
  <g transform="matrix(0.0547, 0, 0, 0.0547, 0, 0)">
    <path d="M511.9, 204.2C499.2, 80.9 368.8, 0 256, 0C143.2, 0 12.8, 80.9 0.1, 204.2C-1, 214.9 6.9, 224 16.1, 224L48.6, 224L160, 345.4L160, 480C160, 497.7 174.3, 512 192, 512L320, 512C337.7, 512 352, 497.7 352, 480L352, 345.4L463.3, 224L495.8, 224C505.1, 224 513, 214.9 511.9, 204.2zM256, 32C307.8, 32 368, 96 368, 192L144, 192C144, 96 204.2, 32 256, 32zM34.3, 192C47.7, 126.9 101, 76.8 163.4, 51.1C133.3, 83.8 112, 132.1 112, 191.2L112, 192L34.3, 192zM180.1, 320L92, 224L240, 224L240, 320L180.1, 320zM320, 472C320, 476.4 316.4, 480 312, 480L200, 480C195.6, 480 192, 476.4 192, 472L192, 360C192, 355.6 195.6, 352 200, 352L312, 352C316.4, 352 320, 355.6 320, 360L320, 472zM331.9, 320L272, 320L272, 224L419.9, 224L331.9, 320zM400, 192L400, 191.2C400, 132.1 378.7, 83.9 348.6, 51.1C410.9, 76.8 464.3, 126.9 477.7, 192L400, 192z" fill="#727272" fill-opacity="1" class="Black" />
  </g>
</svg>