<?xml version='1.0' encoding='UTF-8'?>
<svg viewBox="-1.995 -4.7985 32 32" xmlns="http://www.w3.org/2000/svg">
  <g transform="matrix(0.999, 0, 0, 0.999, 0, 0)">
    <g transform="matrix(0.0438, 0, 0, 0.0438, 0, 0)">
      <path d="M496, 64C504.8, 64 512, 71.2 512, 80L512, 346.1L544, 371.3L544, 80C544, 53.5 522.5, 32 496, 32L144.1, 32C135.7, 32 127.9, 34.4 121, 38.2L153.8, 64zM413.8, 268.8C426.7, 251.9 433.9, 230.5 431.6, 207.2C427.1, 161.5 386.1, 128 340.1, 128L248, 128C244.7, 128 242.5, 130.2 241.2, 133L275.5, 160L344, 160C374.9, 160 400, 185.1 400, 216C400, 228.5 395.8, 239.9 388.8, 249.2zM637, 485.2L23, 1.8C19.6, -1 14.5, -0.5 11.8, 3L1.8, 15.5C-1, 19 -0.4, 24 3, 26.7L617, 510.2C620.4, 513 625.5, 512.4 628.2, 509L638.2, 496.5C641, 493 640.5, 488 637, 485.2zM264.1, 383.9C268.5, 383.9 272.1, 380.3 272.1, 375.9L272.1, 303.9L303.3, 303.9L240.1, 254.2L240.1, 375.9C240.1, 380.3 243.7, 383.9 248.1, 383.9zM144.1, 447.9C135.3, 447.9 128.1, 440.7 128.1, 431.9L128.1, 166L96.1, 140.8L96.1, 431.9C96.1, 458.4 117.6, 479.9 144.1, 479.9L496, 479.9C504.4, 479.9 512.1, 477.6 519, 473.8L486.1, 447.9z" fill="#727272" fill-opacity="1" class="Black" />
    </g>
  </g>
</svg>