<?xml version='1.0' encoding='UTF-8'?>
<svg viewBox="-1.9999 -1.549 31.9975 32" xmlns="http://www.w3.org/2000/svg">
  <g transform="matrix(0.999, 0, 0, 0.999, 0, 0)">
    <g transform="matrix(0.0565, 0, 0, 0.0565, 0, 0)">
      <path d="M268.1, 127.91L176, 127.91C171.58, 127.91 168, 131.49 168, 135.91L168, 375.91C168, 380.33 171.58, 383.91 176, 383.91L192, 383.91C196.42, 383.91 200, 380.33 200, 375.91L200, 303.91L272, 303.91C323.43, 303.91 364.68, 259.59 359.57, 207.13C355.12, 161.42 314.03, 127.91 268.1, 127.91zM272, 271.91L200, 271.91L200, 159.91L272, 159.91C302.88, 159.91 328, 185.03 328, 215.91C328, 246.79 302.88, 271.91 272, 271.91zM248, 8C111.03, 8 0, 119.03 0, 256C0, 392.97 111.03, 504 248, 504C384.97, 504 496, 392.97 496, 256C496, 119.03 384.97, 8 248, 8zM248, 472C128.9, 472 32, 375.1 32, 256C32, 136.9 128.9, 40 248, 40C367.1, 40 464, 136.9 464, 256C464, 375.1 367.1, 472 248, 472z" fill="#727272" fill-opacity="1" class="Black" />
    </g>
  </g>
</svg>