<?xml version='1.0' encoding='UTF-8'?>
<svg viewBox="-1.9999 -1.549 31.9975 32" xmlns="http://www.w3.org/2000/svg">
  <g transform="matrix(0.999, 0, 0, 0.999, 0, 0)">
    <g transform="matrix(0.0565, 0, 0, 0.0565, 0, 0)">
      <path d="M248, 8C111.03, 8 0, 119.03 0, 256C0, 392.97 111.03, 504 248, 504C384.97, 504 496, 392.97 496, 256C496, 119.03 384.97, 8 248, 8zM248, 472C128.9, 472 32, 375.1 32, 256C32, 211.35 45.62, 169.83 68.92, 135.35L407.06, 401.62C367.54, 444.75 310.96, 472 248, 472zM200, 197.83L200, 159.92L272, 159.92C302.88, 159.92 328, 185.04 328, 215.92C328, 240.47 312.01, 261.15 289.98, 268.69L200, 197.83zM317.54, 290.38C345.16, 273.63 363.01, 242.48 359.57, 207.13C355.12, 161.41 314.03, 127.91 268.09, 127.91L176, 127.91C171.58, 127.91 168, 131.49 168, 135.91L168, 172.63L88.94, 110.37C128.46, 67.25 185.04, 40 248, 40C367.1, 40 464, 136.9 464, 256C464, 300.65 450.38, 342.17 427.08, 376.64L317.54, 290.38zM168, 375.91C168, 380.33 171.58, 383.91 176, 383.91L192, 383.91C196.42, 383.91 200, 380.33 200, 375.91L200, 303.91L231.25, 303.91L168, 254.11L168, 375.91z" fill="#727272" fill-opacity="1" class="Black" />
    </g>
  </g>
</svg>