<?xml version='1.0' encoding='UTF-8'?>
<svg viewBox="-2 0 32 32" xmlns="http://www.w3.org/2000/svg">
  <g transform="matrix(0.0625, 0, 0, 0.0625, 0, 0)">
    <path d="M400, 32L48, 32C21.5, 32 0, 53.5 0, 80L0, 432C0, 458.5 21.5, 480 48, 480L400, 480C426.5, 480 448, 458.5 448, 432L448, 80C448, 53.5 426.5, 32 400, 32zM416, 432C416, 440.8 408.8, 448 400, 448L48, 448C39.2, 448 32, 440.8 32, 432L32, 80C32, 71.2 39.2, 64 48, 64L400, 64C408.8, 64 416, 71.2 416, 80L416, 432zM244.1, 127.9L152, 127.9C147.6, 127.9 144, 131.5 144, 135.9L144, 375.9C144, 380.3 147.6, 383.9 152, 383.9L168, 383.9C172.4, 383.9 176, 380.3 176, 375.9L176, 303.9L248, 303.9C299.4, 303.9 340.7, 259.6 335.6, 207.1C331.2, 161.4 290.1, 127.9 244.1, 127.9zM248, 272L176, 272L176, 160L248, 160C278.9, 160 304, 185.1 304, 216C304, 246.9 278.9, 272 248, 272z" fill="#727272" fill-opacity="1" class="Black" />
  </g>
</svg>