<?xml version='1.0' encoding='UTF-8'?>
<svg viewBox="-2 -4.7992 32 32" xmlns="http://www.w3.org/2000/svg">
  <g transform="matrix(0.9988, 0, 0, 0.9988, 0, 0)">
    <g transform="matrix(0.0438, 0, 0, 0.0438, 0, 0)">
      <path d="M629.28, 355.14C599.35, 344.17 576.69, 358.92 558.53, 370.75C541.56, 381.75 531.33, 387.7 518.23, 382.95C505.13, 378.15 501.62, 367.12 496.62, 348.06C493.27, 335.35 489.39, 320.71 479.77, 308.81C487.28, 299.64 493.24, 290.91 497.98, 283.16C507.72, 294.42 520.74, 304 540.16, 304C570.19, 304 585.04, 281.16 595.87, 264.48C606.95, 247.45 612.87, 240 623.36, 240C632.56, 240 640, 232.84 640, 224C640, 215.16 632.56, 208 623.36, 208C593.33, 208 578.48, 230.84 567.65, 247.52C556.57, 264.55 550.65, 272 540.16, 272C494.08, 272 519.48, 209.12 421.05, 153.67L442.18, 111.41C444.12, 111.61 446, 112 448, 112C478.93, 112 504, 86.93 504, 56C504, 25.07 478.93, 0 448, 0C417.07, 0 392, 25.07 392, 56C392, 73.42 400.12, 88.78 412.58, 99.05L392.02, 140.16C371.26, 132.66 347.38, 128 320, 128C292.62, 128 268.74, 132.66 247.97, 140.16L227.41, 99.05C239.88, 88.78 248, 73.42 248, 56C248, 25.07 222.93, 0 192, 0C161.07, 0 136, 25.07 136, 56C136, 86.93 161.07, 112 192, 112C193.99, 112 195.88, 111.62 197.82, 111.41L218.95, 153.67C120.52, 209.12 145.92, 272 99.84, 272C89.34, 272 83.43, 264.55 72.35, 247.52C61.52, 230.84 46.67, 208 16.64, 208C7.44, 208 0, 215.16 0, 224C0, 232.84 7.44, 240 16.64, 240C27.14, 240 33.05, 247.45 44.13, 264.48C54.96, 281.16 69.81, 304 99.84, 304C119.26, 304 132.28, 294.42 142.02, 283.16C146.76, 290.91 152.72, 299.64 160.23, 308.81C150.61, 320.71 146.73, 335.35 143.38, 348.06C138.37, 367.12 134.86, 378.15 121.77, 382.95C108.67, 387.7 98.44, 381.75 81.47, 370.75C63.3, 358.92 40.65, 344.17 10.72, 355.14C2.11, 358.28 -2.18, 367.53 1.1, 375.8C4.35, 384.07 13.97, 388.21 22.55, 385.05C35.65, 380.22 45.89, 386.22 62.85, 397.25C76.53, 406.16 92.75, 416.7 112.71, 416.7C119.24, 416.7 126.23, 415.56 133.61, 412.86C163.54, 401.89 170.27, 376.41 175.66, 355.94C178.17, 346.37 180.31, 338.83 183.48, 333.09C202.87, 350.45 228.19, 366.24 260.11, 375.5C247.66, 425.52 223.7, 478.34 192, 478.34C183.16, 478.34 176, 485.87 176, 495.17C176, 504.47 183.16, 512 192, 512C252.44, 512 281.31, 423.94 291.63, 382.14C300.67, 383.28 310.06, 384 320, 384C329.94, 384 339.33, 383.27 348.37, 382.14C358.69, 423.94 387.56, 512 448, 512C456.84, 512 464, 504.47 464, 495.17C464, 485.87 456.84, 478.34 448, 478.34C416.3, 478.34 392.34, 425.52 379.89, 375.49C411.81, 366.23 437.13, 350.45 456.52, 333.08C459.68, 338.83 461.82, 346.36 464.34, 355.93C469.73, 376.4 476.46, 401.88 506.39, 412.85C513.77, 415.55 520.76, 416.69 527.29, 416.69C547.25, 416.69 563.46, 406.14 577.15, 397.24C594.11, 386.21 604.35, 380.21 617.45, 385.04C626.03, 388.2 635.65, 384.06 638.9, 375.79C642.18, 367.53 637.89, 358.28 629.28, 355.14zM448, 32C461.23, 32 472, 42.77 472, 56C472, 69.23 461.23, 80 448, 80C434.77, 80 424, 69.23 424, 56C424, 42.77 434.77, 32 448, 32zM192, 80C178.77, 80 168, 69.23 168, 56C168, 42.77 178.77, 32 192, 32C205.23, 32 216, 42.77 216, 56C216, 69.23 205.23, 80 192, 80zM320, 352C222.96, 352 177.61, 283.74 163.19, 255.99C177.55, 228.36 222.88, 160 320, 160C417.12, 160 462.45, 228.36 476.81, 255.99C462.39, 283.74 417.04, 352 320, 352z" fill="#727272" fill-opacity="1" class="Black" />
    </g>
  </g>
</svg>