<?xml version='1.0' encoding='UTF-8'?>
<svg viewBox="-3.7495 -2 32 32" xmlns="http://www.w3.org/2000/svg">
  <g transform="matrix(0.0547, 0, 0, 0.0547, 0, 0)">
    <path d="M433.941, 193.941L382.059, 142.059A48 48 0 0 0 348.118, 128L320, 128L320, 80C320, 53.49 298.51, 32 272, 32L205.248, 32C198.643, 13.377 180.858, 0 160, 0C139.142, 0 121.357, 13.377 114.752, 32L48, 32C21.49, 32 0, 53.49 0, 80L0, 368C0, 394.51 21.49, 416 48, 416L128, 416L128, 464C128, 490.51 149.49, 512 176, 512L400, 512C426.51, 512 448, 490.51 448, 464L448, 227.882A48 48 0 0 0 433.941, 193.941zM411.314, 216.568A15.888 15.888 0 0 1 415.509, 224L352, 224L352, 160.491A15.88 15.88 0 0 1 359.431, 164.686L411.314, 216.568zM160, 30C169.941, 30 178, 38.059 178, 48C178, 57.941 169.941, 66 160, 66C150.059, 66 142, 57.941 142, 48C142, 38.059 150.059, 30 160, 30zM48, 384C39.178, 384 32, 376.822 32, 368L32, 80C32, 71.178 39.178, 64 48, 64L114.752, 64C121.357, 82.623 139.141, 96 160, 96C180.859, 96 198.643, 82.623 205.248, 64L272, 64C280.822, 64 288, 71.178 288, 80L288, 128L176, 128C149.49, 128 128, 149.49 128, 176L128, 384L48, 384zM400, 480L176, 480C167.178, 480 160, 472.822 160, 464L160, 176C160, 167.178 167.178, 160 176, 160L320, 160L320, 232C320, 245.2 330.8, 256 344, 256L416, 256L416, 464C416, 472.822 408.822, 480 400, 480z" fill="#727272" fill-opacity="1" class="Black" />
  </g>
</svg>