<?xml version='1.0' encoding='UTF-8'?>
<svg viewBox="-2 -0.0625 32 32" xmlns="http://www.w3.org/2000/svg">
  <g transform="matrix(0.0625, 0, 0, 0.0625, 0, 0)">
    <path d="M48, 479L144, 479C170.5, 479 192, 457.5 192, 431L192, 79C192, 52.5 170.5, 31 144, 31L48, 31C21.5, 31 0, 52.5 0, 79L0, 431C0, 457.5 21.5, 479 48, 479zM32, 79C32, 70.2 39.2, 63 48, 63L144, 63C152.8, 63 160, 70.2 160, 79L160, 431C160, 439.8 152.8, 447 144, 447L48, 447C39.2, 447 32, 439.8 32, 431L32, 79zM304, 479L400, 479C426.5, 479 448, 457.5 448, 431L448, 79C448, 52.5 426.5, 31 400, 31L304, 31C277.5, 31 256, 52.5 256, 79L256, 431C256, 457.5 277.5, 479 304, 479zM288, 79C288, 70.2 295.2, 63 304, 63L400, 63C408.8, 63 416, 70.2 416, 79L416, 431C416, 439.8 408.8, 447 400, 447L304, 447C295.2, 447 288, 439.8 288, 431L288, 79z" fill="#727272" fill-opacity="1" class="Black" />
  </g>
</svg>