<?xml version='1.0' encoding='UTF-8'?>
<svg viewBox="-1.5477 -1.5477 32 32" xmlns="http://www.w3.org/2000/svg">
  <g transform="matrix(0.9991, 0, 0, 0.9991, 0, 0)">
    <g transform="matrix(0.0565, 0, 0, 0.0565, 0, 0)">
      <path d="M218, 160L198, 160C194.7, 160 192, 162.7 192, 166L192, 346C192, 349.3 194.7, 352 198, 352L218, 352C221.3, 352 224, 349.3 224, 346L224, 166C224, 162.7 221.3, 160 218, 160zM314, 160L294, 160C290.7, 160 288, 162.7 288, 166L288, 346C288, 349.3 290.7, 352 294, 352L314, 352C317.3, 352 320, 349.3 320, 346L320, 166C320, 162.7 317.3, 160 314, 160zM256, 8C119, 8 8, 119 8, 256C8, 393 119, 504 256, 504C393, 504 504, 393 504, 256C504, 119 393, 8 256, 8zM256, 472C137.3, 472 40, 375.9 40, 256C40, 137.3 136.1, 40 256, 40C374.7, 40 472, 136.1 472, 256C472, 374.7 375.9, 472 256, 472z" fill="#727272" fill-opacity="1" class="Black" />
    </g>
  </g>
</svg>