<?xml version='1.0' encoding='UTF-8'?>
<svg viewBox="-1.9988 -2 32 32" xmlns="http://www.w3.org/2000/svg">
  <g transform="matrix(0.0547, 0, 0, 0.0547, 0, 0)">
    <path d="M318.55, 222.61C358.71, 233.17 388.1, 187.75 396.01, 158.74C404.45, 127.8 399.02, 97.69 384, 79.99L320, 0L320, 74.96C304.06, 86.22 290.51, 105.33 283.98, 129.25C272.14, 172.67 287.62, 214.47 318.55, 222.61zM314.85, 137.68C333.07, 70.89 381.44, 90.6 365.14, 150.33C346.95, 217.04 298.55, 197.45 314.85, 137.68zM493.5, 190.37L448, 128L448, 194.94C428.17, 201.49 410.49, 219.37 403.28, 243.4C392.88, 278.05 408.05, 311.78 437.17, 318.74C467.63, 326.03 498.81, 301.63 508.72, 268.61C517.57, 239.1 507.17, 209.11 493.5, 190.37zM478.07, 259.4C465.35, 301.75 421.18, 295.05 433.92, 252.59C446.61, 210.33 490.83, 216.87 478.07, 259.4zM256, 256C176.59, 256 64.01, 378.76 64.01, 456.25C64.01, 491.16 90.82, 512 135.75, 512C184.59, 512 216.84, 486.92 256.01, 486.92C295.52, 486.92 327.85, 512 376.27, 512C421.2, 512 448.01, 491.15 448.01, 456.25C447.99, 378.76 335.41, 256 256, 256zM376.26, 480C355.96, 480 338.45, 474.23 319.92, 468.12C300.24, 461.63 279.9, 454.93 256.01, 454.93C232.36, 454.93 212.16, 461.6 192.62, 468.05C173.98, 474.2 156.37, 480.01 135.75, 480.01C96.01, 480.01 96.01, 462.13 96.01, 456.26C96.01, 393.35 196.19, 288 256, 288C315.81, 288 415.99, 393.35 415.99, 456.25C415.99, 462.12 415.99, 480 376.26, 480zM108.73, 243.39C101.52, 219.36 83.84, 201.48 64.01, 194.93L64.01, 128L18.5, 190.37C4.81, 209.13 -5.57, 239.11 3.29, 268.61C13.29, 301.91 44.65, 325.96 74.84, 318.74C103.95, 311.77 119.13, 278.04 108.73, 243.39zM33.94, 259.4C21.1, 216.63 65.45, 210.53 78.09, 252.59C90.89, 295.28 46.59, 301.54 33.94, 259.4zM193.45, 222.61C224.39, 214.47 239.87, 172.67 228.03, 129.25C221.5, 105.33 207.96, 86.21 192.01, 74.96L192.01, 0L128, 79.99C112.98, 97.69 107.55, 127.81 115.99, 158.74C123.64, 186.79 153.07, 233.24 193.45, 222.61zM197.15, 137.68C213.35, 197.07 165.15, 217.42 146.85, 150.33C130.66, 90.94 178.85, 70.58 197.15, 137.68z" fill="#727272" fill-opacity="1" class="Black" />
  </g>
</svg>