<?xml version='1.0' encoding='UTF-8'?>
<svg viewBox="-1.995 -1.9963 32 32" xmlns="http://www.w3.org/2000/svg">
  <g transform="matrix(0.0547, 0, 0, 0.0547, 0, 0)">
    <path d="M256, 224C176.59, 224 64, 346.76 64, 424.25C64, 459.15 90.81, 480 135.74, 480C184.58, 480 216.83, 454.92 256, 454.92C295.51, 454.92 327.85, 480 376.26, 480C421.19, 480 448, 459.15 448, 424.25C448, 346.76 335.41, 224 256, 224zM376.26, 448C355.96, 448 338.45, 442.23 319.91, 436.12C300.23, 429.63 279.89, 422.93 256, 422.93C232.35, 422.93 212.15, 429.6 192.61, 436.05C173.97, 442.2 156.36, 448.01 135.74, 448.01C96, 448 96, 430.12 96, 424.25C96, 361.35 196.19, 256 256, 256C315.81, 256 416, 361.35 416, 424.25C416, 430.12 416, 448 376.26, 448zM474.83, 161.27C471.26, 160.41 467.63, 160 464.02, 160C438.17, 160 412.4, 181 403.28, 211.39C392.88, 246.04 408.05, 279.77 437.17, 286.73C440.75, 287.59 444.37, 288 447.98, 288C473.83, 288 499.6, 267 508.72, 236.61C519.12, 201.96 503.95, 168.23 474.83, 161.27zM478.07, 227.41C472.7, 245.3 458.55, 256 447.98, 256C446.82, 256 445.69, 255.87 444.61, 255.61C440.91, 254.73 437.89, 252.29 435.63, 248.36C431.5, 241.18 430.87, 230.81 433.93, 220.6C439.3, 202.7 453.45, 192 464.03, 192C465.19, 192 466.32, 192.13 467.4, 192.39C471.1, 193.27 474.12, 195.72 476.38, 199.64C480.5, 206.82 481.14, 217.19 478.07, 227.41zM318.56, 190.61C322.11, 191.54 325.71, 191.99 329.32, 191.99C357.16, 191.99 385.54, 165.17 396.02, 126.74C407.86, 83.32 392.38, 41.53 361.44, 33.38A41.92 41.92 0 0 0 350.68, 31.99C322.84, 31.99 294.46, 58.81 283.98, 97.25C272.14, 140.67 287.62, 182.47 318.56, 190.61zM314.85, 105.68C322.27, 78.48 340.43, 64 350.68, 64C351.59, 64 352.45, 64.11 353.29, 64.33C357.42, 65.42 360.41, 69.33 362.19, 72.42C367.27, 81.22 370.71, 97.9 365.14, 118.33C357.72, 145.52 339.57, 160 329.31, 160C328.4, 160 327.54, 159.89 326.69, 159.67C322.57, 158.59 319.57, 154.68 317.79, 151.59C312.72, 142.78 309.28, 126.11 314.85, 105.68zM182.68, 192C186.29, 192 189.89, 191.55 193.44, 190.62C224.38, 182.48 239.86, 140.68 228.02, 97.26C217.54, 58.82 189.16, 32 161.32, 32C157.71, 32 154.11, 32.45 150.56, 33.39C119.62, 41.53 104.14, 83.33 115.98, 126.75C126.46, 165.18 154.85, 192 182.68, 192zM149.8, 72.42C151.58, 69.33 154.58, 65.42 158.7, 64.33C159.55, 64.11 160.4, 64 161.31, 64C171.57, 64 189.72, 78.48 197.14, 105.68C202.71, 126.11 199.27, 142.79 194.19, 151.59C192.41, 154.68 189.42, 158.59 185.29, 159.67C184.44, 159.89 183.59, 160 182.68, 160C172.42, 160 154.27, 145.52 146.85, 118.32C141.28, 97.9 144.72, 81.22 149.8, 72.42zM74.84, 286.73C103.96, 279.77 119.13, 246.04 108.72, 211.39C99.6, 181 73.83, 160 47.98, 160C44.36, 160 40.74, 160.41 37.17, 161.27C8.05, 168.23 -7.12, 201.96 3.28, 236.61C12.4, 267 38.18, 288 64.02, 288C67.64, 288 71.26, 287.59 74.84, 286.73zM33.93, 227.4C30.87, 217.19 31.5, 206.81 35.63, 199.64C37.89, 195.71 40.91, 193.27 44.61, 192.39C45.69, 192.13 46.82, 192 47.98, 192C58.55, 192 72.7, 202.7 78.07, 220.59C81.13, 230.8 80.5, 241.18 76.37, 248.36C74.11, 252.29 71.09, 254.73 67.39, 255.61C66.29, 255.87 65.19, 256 64.02, 256C53.45, 256 39.3, 245.3 33.93, 227.4z" fill="#727272" fill-opacity="1" class="Black" />
  </g>
</svg>