<?xml version='1.0' encoding='UTF-8'?>
<svg viewBox="-1.9974 -1.9999 31.9975 32" xmlns="http://www.w3.org/2000/svg">
  <g transform="matrix(0.0547, 0, 0, 0.0547, 0, 0)">
    <path d="M493.25, 56.26L455.74, 18.75C443.24, 6.25 426.86, 0 410.49, 0C394.11, 0 377.73, 6.25 365.24, 18.74L297.36, 86.62L274.74, 64C262.24, 51.5 241.98, 51.5 229.49, 64L99.37, 194.12C96.25, 197.24 96.25, 202.31 99.37, 205.43L110.68, 216.74C113.8, 219.86 118.87, 219.86 121.99, 216.74L252.1, 86.63L274.72, 109.25L93.95, 290.03A327.038 327.038 0 0 0 0.17, 485.12L0.14, 485.35C-1.45, 499.72 9.88, 512 23.95, 512C29.68, 512 135.01, 505.01 221.98, 418.05L493.26, 146.77C518.25, 121.77 518.25, 81.25 493.25, 56.26zM199.35, 395.42C154.35, 440.42 95.42, 469.83 33.25, 478.81C42.38, 416.17 71.75, 357.49 116.59, 312.65L297.36, 131.88L297.37, 131.89L297.38, 131.88L380.14, 214.64L199.35, 395.42zM470.63, 124.14L402.75, 192.02L319.98, 109.25L387.86, 41.37C400.36, 28.87 420.6, 28.86 433.11, 41.37L470.62, 78.88C483.13, 91.38 483.14, 111.62 470.63, 124.14z" fill="#727272" fill-opacity="1" class="Black" />
  </g>
</svg>