<?xml version='1.0' encoding='UTF-8'?>
<svg viewBox="-2.0011 -1.9998 32 31.9975" xmlns="http://www.w3.org/2000/svg">
  <g transform="matrix(0.0547, 0, 0, 0.0547, 0, 0)">
    <path d="M493.87, 95.6L416.4, 18.13C404.32, 6.04 388.48, 0 372.64, 0C356.8, 0 340.96, 6.04 328.88, 18.13L236.43, 110.58L136.6, 138.79A64.003 64.003 0 0 0 93.29, 180.14L0, 460L52, 512L331.86, 418.71A64.003 64.003 0 0 0 373.21, 375.4L401.42, 275.57L493.87, 183.12C518.04, 158.95 518.04, 119.77 493.87, 95.6zM342.42, 366.7A31.985 31.985 0 0 1 321.74, 388.36L60.64, 475.39L59.94, 474.69L175.7, 358.93C185.22, 364.55 196.17, 368 208, 368C243.28, 368 272, 339.3 272, 304C272, 268.7 243.28, 240 208, 240C172.72, 240 144, 268.7 144, 304C144, 315.83 147.45, 326.79 153.07, 336.31L37.32, 452.06L36.61, 451.36L123.64, 190.26A31.986 31.986 0 0 1 145.3, 169.58L245.13, 141.37L246.38, 141.01L370.98, 265.61L370.63, 266.86L342.42, 366.7zM176, 304C176, 286.36 190.34, 272 208, 272C225.66, 272 240, 286.36 240, 304C240, 321.64 225.66, 336 208, 336C190.34, 336 176, 321.64 176, 304zM471.25, 160.49L391.19, 240.55L271.44, 120.82L351.51, 40.76C363.18, 29.09 382.09, 29.07 393.78, 40.76L471.25, 118.23C482.9, 129.88 482.9, 148.84 471.25, 160.49z" fill="#727272" fill-opacity="1" class="Black" />
  </g>
</svg>