<?xml version='1.0' encoding='UTF-8'?>
<svg viewBox="-1.9975 -1.9975 32 32" xmlns="http://www.w3.org/2000/svg">
  <g transform="matrix(0.0547, 0, 0, 0.0547, 0, 0)">
    <path d="M493.255, 56.236L455.765, 18.746C430.772, -6.247 390.25, -6.248 365.255, 18.746L12.838, 371.162L0.151, 485.346C-1.547, 500.632 11.371, 513.549 26.655, 511.85L140.839, 499.163L493.256, 146.746C518.248, 121.752 518.248, 81.229 493.255, 56.236zM398.059, 196.686L174, 420.745L174, 386L126, 386L126, 338L91.255, 338L315.314, 113.941L398.059, 196.686zM126.147, 468.598L67.152, 475.153L36.847, 444.848L43.402, 385.853L63.255, 366L98, 366L98, 414L146, 414L146, 448.745L126.147, 468.598zM470.627, 124.118L420.686, 174.059L337.941, 91.314L387.882, 41.373C400.387, 28.868 420.63, 28.866 433.137, 41.373L470.627, 78.863C483.133, 91.369 483.134, 111.61 470.627, 124.118z" fill="#727272" fill-opacity="1" class="Black" />
  </g>
</svg>