<?xml version='1.0' encoding='UTF-8'?>
<svg viewBox="-1.9999 -4.8014 31.9975 32" xmlns="http://www.w3.org/2000/svg">
  <g transform="matrix(1.001, 0, 0, 1.001, 0, 0)">
    <g transform="matrix(0.0437, 0, 0, 0.0437, 0, 0)">
      <path d="M635.9, 444.4L583.7, 327.1C603.1, 305.1 608.7, 278.9 603.1, 254.7L584.7, 174.5C579.7, 152.8 565.4, 134.5 546.3, 123.4C570.8, 99.4 574.7, 63 557.7, 34.8C542.8, 10.2 517.7, 0 496, 0C462.8, 0 434.1, 22.5 426.1, 54.8C422.6, 68.9 419.9, 106.9 455.4, 131.2C438.1, 144.4 424.6, 161.7 416, 181.7L416, 160C416, 151.2 408.8, 144 400, 144L240, 144C231.2, 144 224, 151.2 224, 160L224, 181.8C215.5, 161.8 202, 144.5 184.6, 131.3C220, 107 217.4, 69.1 213.9, 54.9C206, 22.5 177.2, 0 144, 0C122.2, 0 97.2, 10.3 82.4, 34.7C65.4, 62.8 69.2, 99.2 93.8, 123.3C74.7, 134.5 60.4, 152.7 55.4, 174.4L37, 254.6C31.5, 278.7 36.8, 304.9 56.4, 327L4.1, 444.4C-6.6, 468.5 4.3, 497 28.4, 507.7C57.4, 520.5 83.3, 502.5 91.8, 483.4L121.5, 416.7L128.4, 470C129.5, 478.6 141.4, 516.1 181.7, 511.5C208.4, 508 227, 483.9 223.7, 457.7L213.2, 376.2C211.6, 363.5 206.2, 351.6 197.7, 342L156.5, 295.4L160.7, 278.5C165.3, 284.5 170.9, 289.9 177.4, 294.6C179.1, 295.8 174.7, 293 225.1, 325C227.3, 331.2 233.1, 335.8 240, 335.8L400, 335.8C407, 335.8 412.8, 331.3 414.9, 325C465.3, 292.9 461, 295.8 462.6, 294.6C469.1, 289.8 474.7, 284.4 479.3, 278.5L483.5, 295.4L442.4, 342C433.9, 351.6 428.5, 363.5 426.9, 376.2L416.4, 457.7C413, 483.9 431.6, 508 458.4, 511.5C498.9, 516.1 510.5, 478.8 511.7, 470L518.6, 416.7L548.3, 483.4C556.8, 502.5 582.7, 520.5 611.7, 507.7C635.7, 496.9 646.6, 468.5 635.9, 444.4zM457.2, 62.4C461.6, 44.2 478, 32 496, 32C520.4, 32 541.4, 54.8 534.9, 81.5C530.3, 99.8 514, 112 496, 112C471.6, 112 450.6, 89.1 457.2, 62.4zM144, 32C162, 32 178.3, 44.2 182.8, 62.4C189.5, 89.6 168, 112 144, 112C126, 112 109.7, 99.8 105.2, 81.6C98.5, 54.4 120, 32 144, 32zM62.6, 470.4C59, 478.5 49.6, 482.1 41.5, 478.5C33.4, 474.9 29.8, 465.5 33.4, 457.4L79.6, 353.5L102.9, 379.9zM269.7, 296.5C264.7, 304.3 254.7, 305.9 247.6, 301.4L196.5, 268.9C187.4, 262.3 181.5, 254.2 178.4, 244.8L167.1, 211C164.8, 204.1 161.1, 198.2 157.8, 193.8C155.1, 190.2 149.5, 191.4 148.4, 195.7L121.3, 304L173.7, 363.3C177.9, 368.1 180.6, 374.1 181.5, 380.4L192, 461.9C193.1, 470.5 187.1, 478.7 178.5, 479.8C164.4, 481.6 160.6, 468.8 160.3, 466L151.1, 394.2C150.3, 387.9 147.6, 381.9 143.3, 377.1L79.1, 304.4C68.8, 292.8 64.8, 276.9 68.3, 261.8L86.7, 181.6C90.2, 166.6 100.7, 153.9 114.9, 147.8C137.9, 137.9 156, 149.9 156.6, 150.2C176, 161.6 190.5, 179.6 197.6, 200.9L209.3, 235.8C211.1, 238.1 212.8, 240.3 214.6, 242.6L264.8, 274.4C272.2, 279.1 274.5, 289 269.7, 296.5zM338.9, 303.9L301.2, 303.9C308.5, 283.3 301, 259.7 281.9, 247.4L256, 231.1L256, 176L384, 176L384, 231L358.2, 247.4C339, 259.6 331.6, 283.3 338.9, 303.9zM496.9, 377C492.7, 381.8 490, 387.7 489.1, 394.1L479.9, 465.9C479.5, 468.7 475.7, 481.5 461.7, 479.7C453.1, 478.6 447.1, 470.5 448.2, 461.8L458.7, 380.3C459.5, 374 462.2, 368 466.5, 363.2L518.9, 303.9L491.8, 195.7C490.7, 191.3 485.1, 190.2 482.4, 193.8C479.1, 198.2 475.4, 204.1 473.1, 211L461.8, 244.8C458.7, 254.2 452.8, 262.3 443.9, 268.9L392.8, 301.4C385.8, 305.8 375.7, 304.4 370.7, 296.5C366, 289 368.2, 279.2 375.6, 274.4L425.8, 242.6C427.6, 240.3 429.3, 238.1 431.1, 235.8L442.8, 200.9C449.9, 179.6 464.4, 161.6 483.8, 150.2C484.3, 149.9 502.5, 137.9 525.5, 147.8C539.7, 153.9 550.3, 166.6 553.7, 181.6L572.1, 261.8C575.6, 276.9 571.5, 292.7 561.3, 304.4zM598.5, 478.5C590.4, 482.1 581, 478.5 577.4, 470.4L537.1, 379.8L560.4, 353.4L606.6, 457.3C610.2, 465.4 606.6, 474.9 598.5, 478.5z" fill="#727272" fill-opacity="1" class="Black" />
    </g>
  </g>
</svg>