<?xml version='1.0' encoding='UTF-8'?>
<svg viewBox="-1.9998 -3.5563 31.9975 32" xmlns="http://www.w3.org/2000/svg">
  <g transform="matrix(0.0486, 0, 0, 0.0486, 0, 0)">
    <path d="M224.1, 504C224.1, 508.4 227.7, 512 232.1, 512L248.1, 512C252.5, 512 256.1, 508.4 256.1, 504L256.1, 320L224.1, 320L224.1, 504zM544, 0L256.1, 0C238.4, 0 224.1, 14.3 224.1, 32L224.1, 160L256.1, 160L256.1, 32L335.3, 237.1C329.9, 258.3 311.8, 330.3 311.8, 354.2C311.8, 388.3 339.5, 416 373.5, 416C385.8, 416 397.5, 412.1 407.5, 405.4C416.7, 412 427.9, 416 440, 416C455.7, 416 469.8, 409.5 480, 399.1C490.2, 409.5 504.3, 416 520, 416C528.6, 416 536.7, 413.9 544, 410.4L544, 504C544, 508.4 547.6, 512 552, 512L568, 512C572.4, 512 576, 508.4 576, 504L576, 32C576, 14.3 561.7, 0 544, 0zM373.5, 384C357.1, 384 343.8, 370.6 343.8, 354.2C343.8, 337.3 358.4, 275.3 367.6, 240.2C368.4, 237 368.3, 233.5 367.1, 230.4L290.9, 32L384.1, 32L384.1, 360C384.1, 367 385.5, 373.6 387.9, 379.7C383.4, 382.3 378.7, 384 373.5, 384zM464, 360C464, 373.3 453.3, 384 440, 384C426.7, 384 416, 373.3 416, 360L416, 32L464, 32L464, 360zM544, 360C544, 373.3 533.3, 384 520, 384C506.8, 384 496, 373.3 496, 360L496, 32L544, 32L544, 360zM240.1, 192L195.8, 192L155.3, 151.4C146.8, 142.9 136.7, 136.8 125.7, 132.9C146.1, 120.2 159.8, 97.7 159.8, 72C159.8, 32.3 127.5, 0 87.8, 0C48.1, 0 15.8, 32.3 15.8, 72C15.8, 98.2 30, 121 51, 133.6C40.8, 137.6 31.4, 143.5 23.4, 151.5C8.3, 166.6 0, 186.8 0.1, 208.2L0.2, 304L0, 463.9C0, 490.4 21.5, 511.9 47.9, 512C73.4, 512 94.3, 492.1 95.9, 467C97.5, 492.1 118.3, 512 143.8, 512C170.3, 512 191.8, 490.5 191.8, 464L191.8, 407.5C191.8, 370.7 178.3, 364.3 143.8, 330.6L143.8, 274.8C154.9, 283.2 168.6, 287.9 182.6, 287.9L240.2, 287.9C266.7, 287.9 288.2, 266.4 288.2, 239.9C288.2, 213.4 266.6, 192 240.1, 192zM47.8, 72C47.8, 49.9 65.7, 32 87.8, 32C109.9, 32 127.8, 49.9 127.8, 72C127.8, 94.1 109.9, 112 87.8, 112C65.7, 112 47.8, 94.1 47.8, 72zM240.1, 256L182.5, 256C174.1, 256 165.9, 252.6 159.9, 246.6L111.7, 198.4L111.7, 344.1C153.8, 385.3 159.7, 386.2 159.7, 407.5L159.7, 464C159.7, 472.8 152.5, 480 143.7, 480C134.9, 480 127.7, 472.8 127.7, 464C127.7, 385.8 143.2, 418.2 64.1, 342.1L64, 464C64, 472.8 56.8, 480 48, 480C39.2, 480 32, 472.8 32, 464L32.2, 304L32, 208.1C32, 181.9 53.2, 160 80, 160L98.7, 160C111.5, 160 123.6, 165 132.6, 174.1L182.5, 224L240.1, 224C248.9, 224 256.1, 231.2 256.1, 240C256.1, 248.8 249, 256 240.1, 256z" fill="#727272" fill-opacity="1" class="Black" />
  </g>
</svg>