<?xml version='1.0' encoding='UTF-8'?>
<svg viewBox="-5.5003 -2 32 32" xmlns="http://www.w3.org/2000/svg">
  <g transform="matrix(0.0547, 0, 0, 0.0547, 0, 0)">
    <path d="M368, 96L208, 96C199.2, 96 192, 103.2 192, 112L192, 188.1L139.3, 135.4C136.9, 133 134.2, 131.2 131.6, 129.1C159.7, 107.6 163, 75.6 157.9, 54.7C150, 22.5 121.2, 0 88, 0C41.7, 0 6.8, 43.5 18.1, 89.2C21.5, 103 28.8, 114.8 38.5, 124C15.6, 138.1 0, 163.4 0, 192L0, 464C0, 490.5 21.5, 512 48, 512C74.5, 512 96, 490.5 96, 464L96, 398L99.6, 401.1L112.7, 472.6C117.1, 496.4 140.5, 516.4 168.7, 511.1C194.4, 506.4 212, 481.6 207.1, 455.3L193, 378.7C189.6, 360.4 180, 343.6 165.8, 331.6L128, 299.1L128, 259.9L156.1, 288L368, 288C376.8, 288 384, 280.8 384, 272L384, 112C384, 103.2 376.8, 96 368, 96zM88, 32C106, 32 122.3, 44.2 126.8, 62.5C133.5, 89.6 112, 112 88, 112C70, 112 53.7, 99.8 49.2, 81.5C42.5, 54.4 64, 32 88, 32zM64, 464C64, 472.8 56.8, 480 48, 480C39.2, 480 32, 472.8 32, 464L32, 343.2L64, 370.6L64, 464zM169.4, 256L109.7, 196.3C108.1, 194.7 106.1, 193.9 104.1, 193.9C100, 193.9 96, 197.1 96, 201.9L96, 313.8L145.2, 355.9C153.8, 363.2 159.6, 373.4 161.7, 384.5L175.8, 461.1C177.4, 469.8 171.6, 478.1 163, 479.7C162, 479.9 161, 480 160.1, 480C152.5, 480 145.8, 474.6 144.4, 466.9L130.3, 390.4C129.6, 386.5 127.5, 382.9 124.5, 380.3L48.9, 315.6C38.1, 306.3 32, 293.1 32, 279L32, 192C32, 166.4 52.3, 144.8 77.9, 144L80, 144C95.4, 144 107.8, 149.1 116.7, 158.1L182.6, 224L224, 224C232.8, 224 240, 231.2 240, 240C240, 248.8 232.8, 256 224, 256L169.4, 256zM352, 256L269.1, 256C270.9, 251 272, 245.6 272, 240C272, 213.5 250.5, 192 224, 192L224, 128L352, 128L352, 256z" fill="#727272" fill-opacity="1" class="Black" />
  </g>
</svg>