<?xml version='1.0' encoding='UTF-8'?>
<svg viewBox="-1.9998 -4.8002 31.9975 32" xmlns="http://www.w3.org/2000/svg">
  <g transform="matrix(0.9988, 0, 0, 0.9988, 0, 0)">
    <g transform="matrix(0.0438, 0, 0, 0.0438, 0, 0)">
      <path d="M608, 128L416, 128A32 32 0 0 0 384, 160L384, 480A32 32 0 0 0 416, 512L608, 512A32 32 0 0 0 640, 480L640, 160A32 32 0 0 0 608, 128zM608, 480L416, 480L416, 160L608, 160zM96, 32L480, 32L480, 96L512, 96L512, 32A32 32 0 0 0 480, 0L96, 0A32 32 0 0 0 64, 32L64, 288L16, 288A16 16 0 0 0 0, 304L0, 320A64.14 64.14 0 0 0 63.91, 384L352, 384L352, 352L63.91, 352A32 32 0 0 1 32, 320L352, 320L352, 288L96, 288z" fill="#727272" fill-opacity="1" class="Black" />
    </g>
  </g>
</svg>