<?xml version='1.0' encoding='UTF-8'?>
<svg viewBox="-2 0 32 32" xmlns="http://www.w3.org/2000/svg">
  <g transform="matrix(0.0625, 0, 0, 0.0625, 0, 0)">
    <path d="M400, 32L48, 32A48 48 0 0 0 0, 80L0, 432A48 48 0 0 0 48, 480L400, 480A48 48 0 0 0 448, 432L448, 80A48 48 0 0 0 400, 32zM416, 432A16 16 0 0 1 400, 448L48, 448A16 16 0 0 1 32, 432L32, 80A16 16 0 0 1 48, 64L400, 64A16 16 0 0 1 416, 80zM366.11, 300.88L303.11, 273.88A29.63 29.63 0 0 0 268.66, 282.31L248.92, 306.44C222.1, 291.65 188.33, 257.88 173.54, 231.06L197.67, 211.32A29.65 29.65 0 0 0 206.11, 176.87L179.11, 113.87C174.89, 104 162.75, 96 152, 96A35.39 35.39 0 0 0 145.35, 96.76L86.85, 110.25A29.37 29.37 0 0 0 64, 139C64, 292.18 188, 416 341, 416A29.35 29.35 0 0 0 369.74, 393.13L383.24, 334.63A29.49 29.49 0 0 0 366.11, 300.88zM339, 384C205.06, 382.93 97.06, 274.69 96, 141L150.51, 128.42L176, 187.75L133.71, 222.36C163.5, 285.84 195.79, 317.29 257.71, 346.36L292.24, 304L351.59, 329.43z" fill="#727272" fill-opacity="1" class="Black" />
  </g>
</svg>