<?xml version='1.0' encoding='UTF-8'?>
<svg viewBox="-1.9999 -1.9999 32 31.9975" xmlns="http://www.w3.org/2000/svg">
  <g transform="matrix(0.0547, 0, 0, 0.0547, 0, 0)">
    <path d="M493.09, 351.3L384.7, 304.8A31.36 31.36 0 0 0 348.2, 313.7L304.1, 367.6A350 350 0 0 1 144.5, 208L198.4, 163.9A31.35 31.35 0 0 0 207.3, 127.41L160.8, 18.91A31.33 31.33 0 0 0 125, 0.81L24.2, 24.11A31.05 31.05 0 0 0 0, 54.51C0, 307.8 205.3, 512 457.49, 512A31.23 31.23 0 0 0 488, 487.7L511.19, 387A31.21 31.21 0 0 0 493.09, 351.3zM456.89, 480C222.4, 479.7 32.3, 289.7 32.1, 55.21L131.7, 32.21L177.7, 139.6L104.9, 199.1C153.3, 302.3 209.4, 358.6 313, 407.2L372.5, 334.4L479.89, 380.4z" fill="#727272" fill-opacity="1" class="Black" />
  </g>
</svg>