<?xml version='1.0' encoding='UTF-8'?>
<svg viewBox="-1.9999 -4.8004 32 32" xmlns="http://www.w3.org/2000/svg">
  <g transform="matrix(1.0011, 0, 0, 1.0011, 0, 0)">
    <g transform="matrix(0.0437, 0, 0, 0.0437, 0, 0)">
      <path d="M608, 0L160, 0C142.33, 0 128, 13.13 128, 29.33L128, 128L256, 128L256, 32L512, 32L512, 320L480, 320L480, 352L608, 352C625.67, 352 640, 338.87 640, 322.67L640, 29.33C640, 13.13 625.67, 0 608, 0zM224, 96L160, 96L160, 32L224, 32zM608, 320L544, 320L544, 256L608, 256zM608, 224L544, 224L544, 128L608, 128zM608, 96L544, 96L544, 32L608, 32zM416, 160L32, 160A32 32 0 0 0 0, 192L0, 480A32 32 0 0 0 32, 512L416, 512A32 32 0 0 0 448, 480L448, 192A32 32 0 0 0 416, 160zM416, 480L32, 480L32, 456L113.69, 394.74L193.69, 434.74L320.53, 339.6L416, 403.23zM416, 364.77L319.47, 300.41L190.31, 397.27L110.31, 357.27L32, 416L32, 192L416, 192zM112, 320A48 48 0 1 0 64, 272A48 48 0 0 0 112, 320zM112, 256A16 16 0 1 1 96, 272A16 16 0 0 1 112, 256z" fill="#727272" fill-opacity="1" class="Black" />
    </g>
  </g>
</svg>