<?xml version='1.0' encoding='UTF-8'?>
<svg viewBox="-1.995 1.0031 32 32" xmlns="http://www.w3.org/2000/svg">
  <g transform="matrix(0.0625, 0, 0, 0.0625, 0, 0)">
    <path d="M444.79, 385.6L431.97, 376A7.997 7.997 0 0 0 420.77, 377.61L400.02, 405.33C395, 412.02 387, 416 378.66, 416C363.97, 416 352, 404.03 352, 389.33L352, 128L440, 128C444.42, 128 448, 124.42 448, 120L448, 104C448, 99.58 444.42, 96 440, 96L27.33, 96C23.09, 96 19.02, 97.69 16.02, 100.69L2.36, 114.34C-2.68, 119.38 0.89, 128 8.02, 128L128, 128L128, 259.46C128, 292.45 118.73, 324.77 101.25, 352.74L54.67, 427.27A8 8 0 0 0 57.21, 438.29L70.77, 446.77A8.006 8.006 0 0 0 81.8, 444.23L128.4, 369.66A207.927 207.927 0 0 0 160, 259.47L160, 128L320, 128L320, 386.87C320, 407.5 329.6, 427.6 347.02, 438.66C374.59, 456.16 408.17, 447.74 425.63, 424.54L446.41, 396.81C449.05, 393.26 448.33, 388.25 444.79, 385.6z" fill="#727272" fill-opacity="1" class="Black" />
  </g>
</svg>