<?xml version='1.0' encoding='UTF-8'?>
<svg viewBox="-2 -2 32 32" xmlns="http://www.w3.org/2000/svg">
  <g transform="matrix(0.0547, 0, 0, 0.0547, 0, 0)">
    <path d="M476.62, 270.31L419.38, 241.69A64 64 0 0 1 384, 184.45A184.45 184.45 0 0 0 199.55, 0L184.45, 0A184.45 184.45 0 0 0 0, 184.45L0, 480A32 32 0 0 0 32, 512L480, 512A32 32 0 0 0 512, 480L512, 327.55A64 64 0 0 0 476.62, 270.31zM480, 480L32, 480L32, 384L96, 384L96, 424A8 8 0 0 0 104, 432L120, 432A8 8 0 0 0 128, 424L128, 384L160, 384L160, 424A8 8 0 0 0 168, 432L184, 432A8 8 0 0 0 192, 424L192, 384L240, 384L240, 424A8 8 0 0 0 248, 432L264, 432A8 8 0 0 0 272, 424L272, 384L320, 384L320, 424A8 8 0 0 0 328, 432L344, 432A8 8 0 0 0 352, 424L352, 384L384, 384L384, 424A8 8 0 0 0 392, 432L408, 432A8 8 0 0 0 416, 424L416, 384L480, 384zM480, 352L32, 352L32, 184.45C32, 100.39 100.39, 32 184.45, 32L199.55, 32C283.61, 32 352, 100.39 352, 184.45A95.49 95.49 0 0 0 405.07, 270.31L462.31, 298.93A31.83 31.83 0 0 1 480, 327.55z" fill="#727272" fill-opacity="1" class="Black" />
  </g>
</svg>