<?xml version='1.0' encoding='UTF-8'?>
<svg viewBox="-1.9975 -2.7752 32 32" xmlns="http://www.w3.org/2000/svg">
  <g transform="matrix(0.0486, 0, 0, 0.0486, 0, 0)">
    <path d="M560, 192L530.5, 192C519.4, 166.7 501.8, 145.1 480, 128.6L480, 64L464, 64C417.32, 64 380.85, 91.22 374.61, 96L223.99, 96C182.67, 96 141.42, 113.33 112.25, 141.92C89.82, 163.79 73.69, 192.07 67.18, 224L55.98, 224C41.18, 224 29.48, 210.5 32.48, 195.2C34.68, 183.8 45.38, 176 56.98, 176L57.98, 176C61.28, 176 63.98, 173.3 63.98, 170L63.98, 150C63.98, 146.7 61.28, 144 57.98, 144C29.48, 144 4.08, 164.4 0.48, 192.6C-3.92, 226.8 22.68, 256 55.98, 256L63.98, 256C63.98, 308.2 89.38, 354.1 127.98, 383.3L127.98, 464C127.98, 472.8 135.18, 480 143.98, 480L255.98, 480C264.78, 480 271.98, 472.8 271.98, 464L271.98, 416L335.98, 416L335.98, 464C335.98, 472.8 343.18, 480 351.98, 480L463.98, 480C472.78, 480 479.98, 472.8 479.98, 464L479.98, 383.1C491.68, 374.1 502.38, 363.8 511.28, 352L560, 352C568.8, 352 576, 344.8 576, 336L576, 208C576, 199.2 568.8, 192 560, 192zM544, 320L495.3, 320C478.3, 342.4 478.3, 344.1 448, 367.3L448, 448L368, 448L368, 384L239.99, 384L239.99, 448L159.99, 448L159.99, 367.3C95.09, 318.3 95.99, 273.8 95.99, 256C95.99, 185.4 153.39, 128 224, 128L385.71, 128C402.61, 114.5 418.91, 101.5 448.01, 97.2L448.01, 144.5C487.71, 174.6 492.01, 183.8 509.61, 224L544, 224L544, 320zM431.99, 224C423.19, 224 415.99, 231.2 415.99, 240C415.99, 248.8 423.19, 256 431.99, 256C440.79, 256 447.99, 248.8 447.99, 240C447.99, 231.2 440.8, 224 431.99, 224z" fill="#727272" fill-opacity="1" class="Black" />
  </g>
</svg>