<?xml version='1.0' encoding='UTF-8'?>
<svg viewBox="-2 -3.554 32 32" xmlns="http://www.w3.org/2000/svg">
  <g transform="matrix(0.0486, 0, 0, 0.0486, 0, 0)">
    <path d="M112, 32C50.2, 32 0, 82.2 0, 144L0, 368C0, 429.8 50.2, 480 112, 480C173.8, 480 224, 429.8 224, 368L224, 144C224, 82.2 173.8, 32 112, 32zM192, 368C192, 412.1 156.1, 448 112, 448C67.9, 448 32, 412.1 32, 368L32, 288L192, 288L192, 368zM192, 256L32, 256L32, 144C32, 99.9 67.9, 64 112, 64C156.1, 64 192, 99.9 192, 144L192, 256zM416, 160C327.6, 160 256, 231.6 256, 320C256, 408.4 327.6, 480 416, 480C504.4, 480 576, 408.4 576, 320C576, 231.6 504.4, 160 416, 160zM416, 448C345.3, 448 288, 390.7 288, 320C288, 290.4 298.4, 263.6 315.3, 241.9L494.2, 420.8C472.4, 437.6 445.6, 448 416, 448zM516.7, 398.1L337.9, 219.3C359.6, 202.5 386.4, 192 416, 192C486.7, 192 544, 249.3 544, 320C544, 349.6 533.6, 376.4 516.7, 398.1z" fill="#727272" fill-opacity="1" class="Black" />
  </g>
</svg>