<?xml version='1.0' encoding='UTF-8'?>
<svg viewBox="-1.9974 -3.5552 31.9975 32" xmlns="http://www.w3.org/2000/svg">
  <g transform="matrix(0.0486, 0, 0, 0.0486, 0, 0)">
    <path d="M523.2, 100.13A15.43 15.43 0 0 0 510.84, 94.13A16.42 16.42 0 0 0 499.23, 98.91L342.17, 256L499.23, 413.06A16.42 16.42 0 0 0 510.84, 417.84A15.4 15.4 0 0 0 523.2, 411.84A256.47 256.47 0 0 0 523.2, 100.13zM461.2, 329.82L387.42, 256L461.29, 182.13A157.51 157.51 0 0 1 480, 256A155.93 155.93 0 0 1 461.24, 329.82zM508.51, 377.12L484.9, 353.52A190.2 190.2 0 0 0 512, 256C512, 220.32 501.8, 187.21 484.83, 158.59L508.55, 134.88A224.58 224.58 0 0 1 508.55, 377.12zM256.45, 256L425.6, 86.85C432.06, 80.39 432.05, 69.49 425.18, 63.46A255.13 255.13 0 0 0 256.46, 0C175.37, 0 94.29, 38.28 42.65, 114.84C-14.22, 199.14 -14.22, 312.84 42.65, 397.18C94.3, 473.72 175.38, 512 256.45, 512A255.14 255.14 0 0 0 425.18, 448.54C432.05, 442.54 432.06, 431.61 425.6, 425.15zM264, 192A16 16 0 1 1 280, 176A16 16 0 0 1 264, 192zM308.61, 158.59A47.93 47.93 0 1 0 246.61, 220.59L211.2, 256L343.62, 388.42C318.39, 405.42 288.62, 416 256, 416C237.77, 416 220.54, 412.29 204.2, 406.65A47.87 47.87 0 1 0 130.36, 353.88C109.16, 326.73 96, 293 96, 256C96, 167.78 167.78, 96 256, 96C288.64, 96 318.5, 106.49 343.73, 123.47zM192, 368A16 16 0 1 1 176, 352A16 16 0 0 1 192, 368zM256.45, 480C180.63, 480 112.37, 443.29 69.18, 379.28C19.44, 305.55 19.43, 206.48 69.18, 132.74C112.36, 68.72 180.62, 32 256.46, 32A223.62 223.62 0 0 1 390.61, 76.59L366.87, 100.33C335.48, 77.87 297.55, 64 256, 64C150, 64 64, 150 64, 256C64, 362 150, 448 256, 448C297.55, 448 335.58, 434.23 367, 411.79L390.62, 435.41A223.65 223.65 0 0 1 256.45, 480z" fill="#727272" fill-opacity="1" class="Black" />
  </g>
</svg>