<?xml version='1.0' encoding='UTF-8'?>
<svg viewBox="-1.9988 -2 31.9975 32" xmlns="http://www.w3.org/2000/svg">
  <g transform="matrix(0.0547, 0, 0, 0.0547, 0, 0)">
    <path d="M158.87, 0.15C157.78, 0.05 156.69, 0 155.61, 0A32.85 32.85 0 0 0 123.54, 24.27L0.55, 491.63A16.24 16.24 0 0 0 16.15, 512A16.54 16.54 0 0 0 20.55, 511.39L488.15, 381.73C503.87, 377.38 513.64, 362.06 511.77, 345.84C490.89, 165.08 340.78, 17.32 158.87, 0.15zM38.49, 473.21L133, 113.91C281.3, 127.91 381.38, 226.54 397.45, 373.66zM428.65, 365C409.38, 206.37 301.13, 99.81 141.26, 82.67L154.5, 32.36A1.54 1.54 0 0 1 155.61, 32L155.86, 32C321.53, 47.63 460.86, 184.13 479.6, 350.89zM192, 176A48 48 0 1 0 240, 224A48.05 48.05 0 0 0 192, 176zM192, 240A16 16 0 1 1 208, 224A16 16 0 0 1 192, 240zM144, 320A48 48 0 1 0 192, 368A48.05 48.05 0 0 0 144, 320zM144, 384A16 16 0 1 1 160, 368A16 16 0 0 1 144, 384zM240, 320A48 48 0 1 0 288, 272A48.05 48.05 0 0 0 240, 320zM304, 320A16 16 0 1 1 288, 304A16 16 0 0 1 304, 320z" fill="#727272" fill-opacity="1" class="Black" />
  </g>
</svg>