<?xml version='1.0' encoding='UTF-8'?>
<svg viewBox="-1.9998 -3.5563 31.9975 32" xmlns="http://www.w3.org/2000/svg">
  <g transform="matrix(0.0486, 0, 0, 0.0486, 0, 0)">
    <path d="M558.57, 355.99L448, 303.26L448, 274.12C448, 262.88 442.1, 252.47 432.47, 246.68L384, 217.6L384, 102.63C384, 94.14 380.63, 86 374.62, 80L299.31, 4.69C296.19, 1.56 292.09, 0 288, 0C283.91, 0 279.81, 1.56 276.69, 4.69L201.37, 80C195.37, 86 192, 94.14 192, 102.62L192, 217.6L143.53, 246.68A31.988 31.988 0 0 0 128, 274.12L128, 303.27L17.43, 355.99C6.96, 360.99 0, 373.89 0, 388.32L0, 504C0, 508.42 3.58, 512 8, 512L24, 512C28.42, 512 32, 508.42 32, 504C32, 504 31.65, 384.78 32, 384L128, 338.71L128, 504C128, 508.42 131.58, 512 136, 512L152, 512C156.42, 512 160, 508.42 160, 504L160, 274.12L224, 235.72L224, 102.63L288, 38.63L352, 102.63L352, 235.72L416, 274.12L416, 504C416, 508.42 419.58, 512 424, 512L440, 512C444.42, 512 448, 508.42 448, 504L448, 338.71L544, 384C544.35, 384.78 544, 504 544, 504C544, 508.42 547.58, 512 552, 512L568, 512C572.42, 512 576, 508.42 576, 504L576, 388.32C576, 373.89 569.04, 360.99 558.57, 355.99zM281.71, 320.3C248.43, 323.47 224, 353.32 224, 386.75L224, 504C224, 508.42 227.58, 512 232, 512L248, 512C252.42, 512 256, 508.42 256, 504L256, 385.8C256, 369.85 266.86, 355.04 282.59, 352.44C302.61, 349.15 320, 364.58 320, 384L320, 504C320, 508.42 323.58, 512 328, 512L344, 512C348.42, 512 352, 508.42 352, 504L352, 384C352, 346.58 319.88, 316.66 281.71, 320.3z" fill="#727272" fill-opacity="1" class="Black" />
  </g>
</svg>