<?xml version='1.0' encoding='UTF-8'?>
<svg viewBox="-1.9998 -4.8002 31.9975 32" xmlns="http://www.w3.org/2000/svg">
  <g transform="matrix(0.9988, 0, 0, 0.9988, 0, 0)">
    <g transform="matrix(0.0438, 0, 0, 0.0438, 0, 0)">
      <path d="M632, 480L8, 480C3.58, 480 0, 483.58 0, 488L0, 504C0, 508.42 3.58, 512 8, 512L632, 512C636.42, 512 640, 508.42 640, 504L640, 488C640, 483.58 636.42, 480 632, 480zM580.44, 302.54C560.98, 282.33 534.51, 267.19 503.89, 258.77L406.95, 232.09L310.5, 46.83C308.31, 42.6 306.35, 38.25 304.32, 33.94C301.18, 27.3 295.35, 22.27 288.27, 20.32C269.1, 15.05 216.78, 0 216.78, 0C216.5, 0 206.01, -0.48 198.09, 8.65C192.68, 14.9 190.72, 25.06 193, 33L235.32, 184.85L148.03, 160.83L121.15, 93.04C118.23, 85.57 111.97, 79.86 104.4, 77.78C59.87, 65.53 61.43, 65.64 57, 65.64C43.45, 65.64 32.23, 76.98 32, 90.93L32.29, 198.15C32.54, 209.69 37.5, 220.7 45.91, 228.36L139.23, 311.53C147.65, 319.2 157.85, 324.84 168.72, 327.83L464.67, 409.28C480.88, 413.74 496.99, 416.01 512.55, 416.01C526.34, 416.01 539.7, 414.22 552.26, 410.68C583.13, 401.99 601.4, 387.53 606.57, 367.68C611.74, 347.83 602.96, 325.92 580.44, 302.54zM575.58, 359.61C573.57, 367.33 561.91, 374.71 543.57, 379.87C512.72, 388.55 483.54, 381.28 473.15, 378.42L177.2, 296.97C171.17, 295.31 165.48, 292.16 160.77, 287.87L67.45, 204.7C65.52, 202.94 64.34, 200.24 64.28, 197.47L64.18, 99.9L92.53, 107.7L124.07, 187.42L281.92, 230.86L227.41, 36.21L276.21, 50.19L384.97, 259.22L495.41, 289.62C520.49, 296.52 541.92, 308.66 557.4, 324.73C571.04, 338.91 577.68, 351.61 575.58, 359.61z" fill="#727272" fill-opacity="1" class="Black" />
    </g>
  </g>
</svg>