<?xml version='1.0' encoding='UTF-8'?>
<svg viewBox="-2 2.6671 32 32" xmlns="http://www.w3.org/2000/svg">
  <g transform="matrix(0.0729, 0, 0, 0.0729, 0, 0)">
    <path d="M376, 232L216, 232L216, 72C216, 67.58 212.42, 64 208, 64L176, 64C171.58, 64 168, 67.58 168, 72L168, 232L8, 232C3.58, 232 0, 235.58 0, 240L0, 272C0, 276.42 3.58, 280 8, 280L168, 280L168, 440C168, 444.42 171.58, 448 176, 448L208, 448C212.42, 448 216, 444.42 216, 440L216, 280L376, 280C380.42, 280 384, 276.42 384, 272L384, 240C384, 235.58 380.42, 232 376, 232z" fill="#727272" fill-opacity="1" class="Black" />
  </g>
</svg>