<?xml version='1.0' encoding='UTF-8'?>
<svg viewBox="-1.9999 -2.0035 31.9975 32" xmlns="http://www.w3.org/2000/svg">
  <g transform="matrix(0.0547, 0, 0, 0.0547, 0, 0)">
    <path d="M361.5, 14.1C352.5, 5.1 340.3, 0 327.6, 0L184.5, 0C171.8, 0 159.6, 5.1 150.6, 14.1L14.1, 150.5C5.1, 159.5 0, 171.7 0, 184.4L0, 327.5C0, 340.2 5.1, 352.4 14.1, 361.4L150.6, 497.9C159.6, 506.9 171.8, 512 184.5, 512L327.6, 512C340.3, 512 352.5, 506.9 361.5, 497.9L498, 361.4C507, 352.4 512.1, 340.2 512.1, 327.5L512.1, 184.5C512.1, 171.8 507, 159.6 498, 150.6L361.5, 14.1zM480, 327.5C480, 331.8 478.3, 335.8 475.3, 338.8L338.9, 475.3C335.9, 478.3 331.9, 480 327.6, 480L184.5, 480C180.2, 480 176.2, 478.3 173.2, 475.3L36.7, 338.9C33.7, 335.9 32, 331.9 32, 327.6L32, 184.5C32, 180.2 33.7, 176.2 36.7, 173.2L173.1, 36.7C176.1, 33.7 180.1, 32 184.4, 32L327.5, 32C331.8, 32 335.8, 33.7 338.8, 36.7L475.3, 173.2C478.3, 176.2 480, 180.2 480, 184.5L480, 327.5zM384, 250L384, 262C384, 268.6 378.6, 274 372, 274L274, 274L274, 372C274, 378.6 268.6, 384 262, 384L250, 384C243.4, 384 238, 378.6 238, 372L238, 274L140, 274C133.4, 274 128, 268.6 128, 262L128, 250C128, 243.4 133.4, 238 140, 238L238, 238L238, 140C238, 133.4 243.4, 128 250, 128L262, 128C268.6, 128 274, 133.4 274, 140L274, 238L372, 238C378.6, 238 384, 243.4 384, 250z" fill="#727272" fill-opacity="1" class="Black" />
  </g>
</svg>