<?xml version='1.0' encoding='UTF-8'?>
<svg viewBox="-3.7495 -2 32 32" xmlns="http://www.w3.org/2000/svg">
  <g transform="matrix(0.0547, 0, 0, 0.0547, 0, 0)">
    <path d="M440, 160L96, 160L96, 144C96, 104.23 125.25, 71.4 163.34, 65.28C170.29, 83.22 187.6, 96 208, 96L272, 96C298.51, 96 320, 74.51 320, 48C320, 21.49 298.51, 0 272, 0L208, 0C186.63, 0 168.73, 14.06 162.52, 33.36C107.17, 40.12 64, 86.87 64, 144L64, 160L8, 160C3.58, 160 0, 163.58 0, 168L0, 184C0, 188.42 3.58, 192 8, 192L64.09, 192L64.1, 193.77L96, 480L40, 480C35.58, 480 32, 483.58 32, 488L32, 504C32, 508.42 35.58, 512 40, 512L408, 512C412.42, 512 416, 508.42 416, 504L416, 488C416, 483.58 412.42, 480 408, 480L352.1, 480L384, 192L440, 192C444.42, 192 448, 188.42 448, 184L448, 168C448, 163.58 444.42, 160 440, 160zM208, 32L272, 32C280.82, 32 288, 39.18 288, 48C288, 56.82 280.82, 64 272, 64L208, 64C199.18, 64 192, 56.82 192, 48C192, 39.18 199.18, 32 208, 32zM320, 480L127.91, 480L127.9, 478.23L96, 192L351.9, 192L320, 480z" fill="#727272" fill-opacity="1" class="Black" />
  </g>
</svg>