<?xml version='1.0' encoding='UTF-8'?>
<svg viewBox="-3.7495 -2 32 32" xmlns="http://www.w3.org/2000/svg">
  <g transform="matrix(0.0547, 0, 0, 0.0547, 0, 0)">
    <path d="M440, 160L96, 160L96, 144C96, 104.2 125.2, 71.4 163.3, 65.3C170.3, 83.2 187.6, 96 208, 96L272, 96C298.5, 96 320, 74.5 320, 48C320, 21.5 298.5, 0 272, 0L208, 0C186.6, 0 168.7, 14.1 162.5, 33.4C107.2, 40.1 64, 86.9 64, 144L64, 160L8, 160C3.6, 160 0, 163.6 0, 168L0, 184C0, 188.4 3.6, 192 8, 192L64.1, 192L64.1, 193.8L96, 480L40, 480C35.6, 480 32, 483.6 32, 488L32, 504C32, 508.4 35.6, 512 40, 512L408, 512C412.4, 512 416, 508.4 416, 504L416, 488C416, 483.6 412.4, 480 408, 480L352.1, 480L384, 192L440, 192C444.4, 192 448, 188.4 448, 184L448, 168C448, 163.6 444.4, 160 440, 160zM208, 32L272, 32C280.8, 32 288, 39.2 288, 48C288, 56.8 280.8, 64 272, 64L208, 64C199.2, 64 192, 56.8 192, 48C192, 39.2 199.2, 32 208, 32zM320, 480L127.9, 480L127.9, 478.2L96, 192L351.9, 192L320, 480zM164.1, 346.1L158.5, 378.8C156.9, 388.3 160.7, 397.7 168.6, 403.3C173, 406.5 178.1, 408.1 183.2, 408.1C187.2, 408.1 191.1, 407.1 194.8, 405.2L224.1, 389.8L253.3, 405.2C261.7, 409.6 271.8, 409 279.6, 403.3C287.4, 397.7 291.2, 388.3 289.6, 378.8L284, 346.2L307.7, 323.1C314.6, 316.4 317, 306.6 314, 297.4C311, 288.3 303.3, 281.8 293.8, 280.4L261.1, 275.6L246.5, 245.9C242.3, 237.3 233.7, 232 224.1, 232C214.5, 232 205.9, 237.3 201.7, 245.9L187, 275.6L154.3, 280.4C144.8, 281.8 137.1, 288.3 134.1, 297.4C131.1, 306.5 133.6, 316.4 140.4, 323L164.1, 346.1zM208.2, 304.8L224, 272.8L239.8, 304.8L275.1, 310L249.5, 335L255.5, 370.2L224, 353.5L192.4, 370.1L198.4, 334.9L172.8, 309.9L208.2, 304.8z" fill="#727272" fill-opacity="1" class="Black" />
  </g>
</svg>