<?xml version='1.0' encoding='UTF-8'?>
<svg viewBox="-2 0 32 32" xmlns="http://www.w3.org/2000/svg">
  <g transform="matrix(0.0625, 0, 0, 0.0625, 0, 0)">
    <path d="M448, 432L448, 80C448, 53.5 426.5, 32 400, 32L48, 32C21.5, 32 0, 53.5 0, 80L0, 432C0, 458.5 21.5, 480 48, 480L400, 480C426.5, 480 448, 458.5 448, 432zM48, 448C39.18, 448 32, 440.82 32, 432L32, 80C32, 71.18 39.18, 64 48, 64L400, 64C408.82, 64 416, 71.18 416, 80L416, 432C416, 440.82 408.82, 448 400, 448L48, 448zM256, 168L256, 152C256, 147.58 252.42, 144 248, 144L104, 144C99.58, 144 96, 147.58 96, 152L96, 168C96, 172.42 99.58, 176 104, 176L248, 176C252.42, 176 256, 172.42 256, 168zM352, 264L352, 248C352, 243.58 348.42, 240 344, 240L104, 240C99.58, 240 96, 243.58 96, 248L96, 264C96, 268.42 99.58, 272 104, 272L344, 272C348.42, 272 352, 268.42 352, 264zM192, 360L192, 344C192, 339.58 188.42, 336 184, 336L104, 336C99.58, 336 96, 339.58 96, 344L96, 360C96, 364.42 99.58, 368 104, 368L184, 368C188.42, 368 192, 364.42 192, 360z" fill="#727272" fill-opacity="1" class="Black" />
  </g>
</svg>