<?xml version='1.0' encoding='UTF-8'?>
<svg viewBox="-2 -4.7992 32 32" xmlns="http://www.w3.org/2000/svg">
  <g transform="matrix(0.9988, 0, 0, 0.9988, 0, 0)">
    <g transform="matrix(0.0438, 0, 0, 0.0438, 0, 0)">
      <path d="M145.8, 391.7C154.6, 380.7 160, 367 160, 352C160, 316.7 131.3, 288 96, 288C60.7, 288 32, 316.7 32, 352C32, 367.1 37.5, 380.8 46.2, 391.7C19, 404.5 0, 432 0, 464L0, 481.6C0, 498.4 13.6, 512 30.4, 512L161.6, 512C178.4, 512 192, 498.4 192, 481.6L192, 464C192, 432 173, 404.5 145.8, 391.7zM96, 320C113.7, 320 128, 334.4 128, 352C128, 369.6 113.7, 384 96, 384C78.3, 384 64, 369.6 64, 352C64, 334.4 78.3, 320 96, 320zM32, 481.6L32, 464C32, 437.5 53.5, 416 80, 416L112, 416C138.5, 416 160, 437.5 160, 464L161.6, 480L32, 481.6zM145.8, 103.7C154.6, 92.7 160, 79 160, 64C160, 28.7 131.3, 0 96, 0C60.7, 0 32, 28.7 32, 64C32, 79.1 37.5, 92.8 46.2, 103.7C19, 116.5 0, 144 0, 176L0, 193.6C0, 210.4 13.6, 224 30.4, 224L161.6, 224C178.4, 224 192, 210.4 192, 193.6L192, 176C192, 144 173, 116.5 145.8, 103.7zM96, 32C113.7, 32 128, 46.4 128, 64C128, 81.6 113.7, 96 96, 96C78.3, 96 64, 81.6 64, 64C64, 46.4 78.3, 32 96, 32zM32, 193.6L32, 176C32, 149.5 53.5, 128 80, 128L112, 128C138.5, 128 160, 149.5 160, 176L161.6, 192L32, 193.6zM616, 32L248, 32C234.7, 32 224, 42.7 224, 56L224, 168C224, 181.3 234.7, 192 248, 192L616, 192C629.3, 192 640, 181.3 640, 168L640, 56C640, 42.7 629.3, 32 616, 32zM480, 160L256, 160L256, 64L480, 64L480, 160zM608, 160L512, 160L512, 64L608, 64L608, 160zM616, 320L248, 320C234.7, 320 224, 330.7 224, 344L224, 456C224, 469.3 234.7, 480 248, 480L616, 480C629.3, 480 640, 469.3 640, 456L640, 344C640, 330.7 629.3, 320 616, 320zM320, 448L256, 448L256, 352L320, 352L320, 448zM608, 448L352, 448L352, 352L608, 352L608, 448z" fill="#727272" fill-opacity="1" class="Black" />
    </g>
  </g>
</svg>