<?xml version='1.0' encoding='UTF-8'?>
<svg viewBox="-1.9988 -2 32 32" xmlns="http://www.w3.org/2000/svg">
  <g transform="matrix(0.0547, 0, 0, 0.0547, 0, 0)">
    <path d="M440.17, 138.22A68 68 0 0 0 420.37, 115.91A66.9 66.9 0 0 0 370.9, 54.53A67.33 67.33 0 0 0 302.9, 18.88A67.69 67.69 0 0 0 255.94, 0A65.92 65.92 0 0 0 209.47, 18.89A67.18 67.18 0 0 0 141.47, 54.53C110.7, 62.78 93, 90 91.74, 116A65.84 65.84 0 0 0 71.91, 138.78A64.67 64.67 0 0 0 68.54, 193.64L108.3, 484.32A32 32 0 0 0 140, 512L372.35, 512A32 32 0 0 0 404.08, 484.32L444.16, 191.32C450.08, 174.19 449.46, 155.09 440.17, 138.22zM140, 480L100.72, 192L176, 192L192.22, 480zM288.06, 480L224.28, 480L208.07, 192L304.31, 192zM372.32, 480L320.16, 480L336.37, 192L411.65, 192zM98, 160C102.42, 144.22 115.82, 136.62 127.78, 135.43C113.88, 109.21 137.42, 79 165.89, 85C166.44, 55.78 200.22, 40.1 222.26, 57.83C234, 15.97 289.85, 32.2 289.85, 57.83C312.6, 40 345.94, 56 346.49, 85C375.06, 79 397.94, 108.81 384.64, 135.45C396.64, 136.65 410.08, 144.56 414.38, 160.02z" fill="#727272" fill-opacity="1" class="Black" />
  </g>
</svg>