<?xml version='1.0' encoding='UTF-8'?>
<svg viewBox="-5.5003 -2 32 32" xmlns="http://www.w3.org/2000/svg">
  <g transform="matrix(0.0547, 0, 0, 0.0547, 0, 0)">
    <path d="M320, 0L64, 0C28.7, 0 0, 28.7 0, 64L0, 448C0, 483.3 28.7, 512 64, 512L320, 512C355.3, 512 384, 483.3 384, 448L384, 64C384, 28.7 355.3, 0 320, 0zM352, 448C352, 465.6 337.6, 480 320, 480L64, 480C46.4, 480 32, 465.6 32, 448L32, 64C32, 46.4 46.4, 32 64, 32L320, 32C337.6, 32 352, 46.4 352, 64L352, 448zM192, 288C236.2, 288 272, 252.2 272, 208C272, 163.8 236.2, 128 192, 128C147.8, 128 112, 163.8 112, 208C112, 252.2 147.8, 288 192, 288zM192, 160C218.5, 160 240, 181.5 240, 208C240, 234.5 218.5, 256 192, 256C165.5, 256 144, 234.5 144, 208C144, 181.5 165.5, 160 192, 160zM238.8, 304C219.3, 304 214.4, 311 192, 311C169.6, 311 164.7, 304 145.2, 304C124, 304 103.4, 313.4 91.4, 331.4C84.2, 342.1 80, 355 80, 368.9L80, 408C80, 412.4 83.6, 416 88, 416L104, 416C108.4, 416 112, 412.4 112, 408L112, 368.9C112, 354.9 121, 336 145.2, 336C157.6, 336 166, 343 192, 343C217.9, 343 226.3, 336 238.8, 336C263.1, 336 272, 354.9 272, 368.9L272, 408C272, 412.4 275.6, 416 280, 416L296, 416C300.4, 416 304, 412.4 304, 408L304, 368.9C304, 355 299.8, 342.1 292.6, 331.4C280.5, 313.4 259.9, 304 238.8, 304z" fill="#727272" fill-opacity="1" class="Black" />
  </g>
</svg>