<?xml version='1.0' encoding='UTF-8'?>
<svg viewBox="-1.7777 -2 32 32" xmlns="http://www.w3.org/2000/svg">
  <g transform="matrix(0.9992, 0, 0, 0.9992, 0, 0)">
    <g transform="matrix(0.0556, 0, 0, 0.0556, 0, 0)">
      <path d="M388.5, 46.3C457.9, 90.3 504, 167.8 504, 256C504, 392.8 393.2, 503.7 256.5, 504C120, 504.3 8.2, 393 8, 256.4C7.9, 168 54, 90.3 123.5, 46.3C129.3, 42.6 137, 44.5 140.4, 50.5L144.3, 57.5C147.4, 63.1 145.6, 70.1 140.2, 73.5C79.9, 112 40, 179.6 40, 256C40, 375.9 137.3, 472 256, 472C375.9, 472 472, 374.7 472, 256C472, 179 431.9, 111.8 371.7, 73.6C366.3, 70.2 364.5, 63.1 367.6, 57.6L371.5, 50.6C374.9, 44.5 382.7, 42.7 388.5, 46.3zM272, 276L272, 12C272, 5.4 266.6, 0 260, 0L252, 0C245.4, 0 240, 5.4 240, 12L240, 276C240, 282.6 245.4, 288 252, 288L260, 288C266.6, 288 272, 282.6 272, 276z" fill="#727272" fill-opacity="1" class="Black" />
    </g>
  </g>
</svg>