<?xml version='1.0' encoding='UTF-8'?>
<svg viewBox="-5.4999 -1.9998 32 31.9975" xmlns="http://www.w3.org/2000/svg">
  <g transform="matrix(0.0547, 0, 0, 0.0547, 0, 0)">
    <path d="M240, 144C279.7, 144 312, 111.7 312, 72C312, 32.3 279.7, 0 240, 0C200.3, 0 168, 32.3 168, 72C168, 111.7 200.3, 144 240, 144zM240, 32C262.05, 32 280, 49.95 280, 72C280, 94.05 262.05, 112 240, 112C217.95, 112 200, 94.05 200, 72C200, 49.95 217.95, 32 240, 32zM219.25, 326.89C239.74, 351.3 274.3, 347.02 289.81, 329.94L369.94, 241.94C388.68, 223.19 388.68, 192.8 369.94, 174.06C351.19, 155.31 320.8, 155.31 302.06, 174.06L259.75, 223.75L228.44, 188.59C213.2, 170.43 190.46, 160 166.06, 160C127.53, 160 104.21, 184.24 94.89, 201.53L45.51, 293.57C22.5, 336.5 31.8, 385.77 66.94, 416L48, 416C21.53, 416 0, 437.53 0, 464C0, 490.47 21.53, 512 48, 512L250.03, 512C270.87, 512 289.4, 498.71 296.13, 478.93C302.6, 459.91 296.64, 439.82 280.95, 427.74L178.2, 352.79L202.69, 307.17L219.25, 326.89zM136.81, 362.22L261.42, 453.1C272.52, 461.64 264.72, 480 250.02, 480L48, 480C39.19, 480 32, 472.83 32, 464C32, 455.17 39.19, 448 48, 448L186.25, 448L96.22, 397.98C64.22, 377.54 56.5, 340.81 73.72, 308.7L123.06, 216.72C136.77, 191.29 179.61, 180.18 203.94, 209.17L258.28, 273.84L324.68, 196.68C330.93, 190.43 341.06, 190.43 347.31, 196.68C353.56, 202.93 353.56, 213.06 347.31, 219.31L266.12, 308.42C258.46, 314.76 248.51, 311.97 243.74, 306.3L196.8, 250.46L136.81, 362.22z" fill="#727272" fill-opacity="1" class="Black" />
  </g>
</svg>