<?xml version='1.0' encoding='UTF-8'?>
<svg viewBox="-1.9998 -3.5563 31.9975 32" xmlns="http://www.w3.org/2000/svg">
  <g transform="matrix(0.0486, 0, 0, 0.0486, 0, 0)">
    <path d="M568, 0L8, 0C3.58, 0 0, 3.59 0, 8.02L0, 24.06C0, 28.49 3.58, 32.08 8, 32.08L32, 32.08L32, 319.86C32, 337.55 46.34, 351.95 64, 351.95L272, 351.95L272, 401.08L186.34, 486.97C183.22, 490.1 183.22, 495.18 186.34, 498.31L197.65, 509.65A7.985 7.985 0 0 0 208.96, 509.65L288, 430.41L367.03, 509.65A7.985 7.985 0 0 0 378.34, 509.65L389.65, 498.31C392.77, 495.18 392.77, 490.1 389.65, 486.97L304, 401.08L304, 351.95L512, 351.95C529.66, 351.95 544, 337.55 544, 319.86L544, 32.09L568, 32.09C572.42, 32.09 576, 28.5 576, 24.07L576, 8.02C576, 3.59 572.42, 0 568, 0zM512, 320L64, 320L64, 32L512, 32L512, 320z" fill="#727272" fill-opacity="1" class="Black" />
  </g>
</svg>