<?xml version='1.0' encoding='UTF-8'?>
<svg viewBox="-3.9998 -0.0002 32 32" xmlns="http://www.w3.org/2000/svg">
  <g transform="matrix(0.0625, 0, 0, 0.0625, 0, 0)">
    <path d="M278.63, 352L381.66, 248.97C384.78, 245.85 384.78, 240.78 381.66, 237.66L370.35, 226.35C367.23, 223.23 362.16, 223.23 359.04, 226.35L256, 329.37L150.63, 224L160, 224C213.02, 224 256, 181.02 256, 128C256, 74.98 213.02, 32 160, 32L8, 32C3.58, 32 0, 35.58 0, 40L0, 312C0, 316.42 3.58, 320 8, 320L24, 320C28.42, 320 32, 316.42 32, 312L32, 224L105.37, 224L233.37, 352L130.34, 455.03C127.22, 458.15 127.22, 463.22 130.34, 466.34L141.65, 477.65C144.77, 480.77 149.84, 480.77 152.96, 477.65L256, 374.63L359.03, 477.66C362.15, 480.78 367.22, 480.78 370.34, 477.66L381.65, 466.35C384.77, 463.23 384.77, 458.16 381.65, 455.04L278.63, 352zM32, 192L32, 64L160, 64C195.29, 64 224, 92.71 224, 128C224, 163.29 195.29, 192 160, 192L32, 192z" fill="#727272" fill-opacity="1" class="Black" />
  </g>
</svg>