<?xml version='1.0' encoding='UTF-8'?>
<svg viewBox="-5.5003 -2 32 32" xmlns="http://www.w3.org/2000/svg">
  <g transform="matrix(0.0547, 0, 0, 0.0547, 0, 0)">
    <path d="M360, 0L24, 0C10.8, 0 0, 10.8 0, 24L0, 104C0, 117.2 10.8, 128 24, 128L32, 128L32, 480C32, 497.6 46.4, 512 64, 512L320, 512C337.6, 512 352, 497.6 352, 480L352, 128L360, 128C373.2, 128 384, 117.2 384, 104L384, 24C384, 10.8 373.2, 0 360, 0zM320, 480L64, 480L64, 416L152, 416C156.4, 416 160, 412.4 160, 408L160, 392C160, 387.6 156.4, 384 152, 384L64, 384L64, 320L152, 320C156.4, 320 160, 316.4 160, 312L160, 296C160, 291.6 156.4, 288 152, 288L64, 288L64, 224L152, 224C156.4, 224 160, 220.4 160, 216L160, 200C160, 195.6 156.4, 192 152, 192L64, 192L64, 128L320, 128L320, 480zM352, 96L32, 96L32, 32L352, 32L352, 96z" fill="#727272" fill-opacity="1" class="Black" />
  </g>
</svg>