<?xml version='1.0' encoding='UTF-8'?>
<svg viewBox="-2 -4.7992 32 32" xmlns="http://www.w3.org/2000/svg">
  <g transform="matrix(0.9988, 0, 0, 0.9988, 0, 0)">
    <g transform="matrix(0.0438, 0, 0, 0.0438, 0, 0)">
      <path d="M144, 384C188.1, 384 224, 348.1 224, 304C224, 259.9 188.1, 224 144, 224C99.9, 224 64, 259.9 64, 304C64, 348.1 99.9, 384 144, 384zM144, 256C170.5, 256 192, 277.5 192, 304C192, 330.5 170.5, 352 144, 352C117.5, 352 96, 330.5 96, 304C96, 277.5 117.5, 256 144, 256zM528, 224L272, 224C263.2, 224 256, 231.2 256, 240L256, 416L32, 416L32, 136C32, 131.6 28.4, 128 24, 128L8, 128C3.6, 128 0, 131.6 0, 136L0, 504C0, 508.4 3.6, 512 8, 512L24, 512C28.4, 512 32, 508.4 32, 504L32, 448L608, 448L608, 504C608, 508.4 611.6, 512 616, 512L632, 512C636.4, 512 640, 508.4 640, 504L640, 336C640, 274.1 589.9, 224 528, 224zM608, 416L288, 416L288, 256L528, 256C572.2, 256 608, 291.8 608, 336L608, 416zM136, 96L262.1, 96L289.7, 151.2C295.6, 163 312.4, 163 318.3, 151.2L368, 51.8L390.1, 96L512, 96C520.8, 96 528, 88.8 528, 80C528, 71.2 520.8, 64 512, 64L409.9, 64L382.3, 8.8C376.4, -3 359.6, -3 353.7, 8.8L304, 108.2L284.1, 68.4C282.7, 65.7 280, 64 276.9, 64L136, 64C131.6, 64 128, 67.6 128, 72L128, 88C128, 92.4 131.6, 96 136, 96z" fill="#727272" fill-opacity="1" class="Black" />
    </g>
  </g>
</svg>