<?xml version='1.0' encoding='UTF-8'?>
<svg viewBox="-2 -4.7992 32 32" xmlns="http://www.w3.org/2000/svg">
  <g transform="matrix(0.9988, 0, 0, 0.9988, 0, 0)">
    <g transform="matrix(0.0438, 0, 0, 0.0438, 0, 0)">
      <path d="M592, 0L496, 0C469.49, 0 448, 21.49 448, 48L448, 80L192, 80L192, 48C192, 21.49 170.51, 0 144, 0L48, 0C21.49, 0 0, 21.49 0, 48L0, 144C0, 170.51 21.49, 192 48, 192L142.86, 192L231.62, 342.21C226.85, 349.67 223.99, 358.48 223.99, 368L223.99, 464C223.99, 490.51 245.48, 512 271.99, 512L367.99, 512C394.5, 512 415.99, 490.51 415.99, 464L415.99, 368C415.99, 341.49 394.5, 320 367.99, 320L271.99, 320C266.79, 320 261.88, 321.04 257.19, 322.57L173.76, 181.39C184.8, 172.59 192, 159.2 192, 144L192, 112L448, 112L448, 144C448, 170.51 469.49, 192 496, 192L592, 192C618.51, 192 640, 170.51 640, 144L640, 48C640, 21.49 618.51, 0 592, 0zM32, 144L32, 48C32, 39.18 39.18, 32 48, 32L144, 32C152.82, 32 160, 39.18 160, 48L160, 144C160, 152.82 152.82, 160 144, 160L48, 160C39.18, 160 32, 152.82 32, 144zM368, 352C376.82, 352 384, 359.18 384, 368L384, 464C384, 472.82 376.82, 480 368, 480L272, 480C263.18, 480 256, 472.82 256, 464L256, 368C256, 359.18 263.18, 352 272, 352L368, 352zM608, 144C608, 152.82 600.82, 160 592, 160L496, 160C487.18, 160 480, 152.82 480, 144L480, 48C480, 39.18 487.18, 32 496, 32L592, 32C600.82, 32 608, 39.18 608, 48L608, 144z" fill="#727272" fill-opacity="1" class="Black" />
    </g>
  </g>
</svg>