<?xml version='1.0' encoding='UTF-8'?>
<svg viewBox="-2 -4.7992 32 32" xmlns="http://www.w3.org/2000/svg">
  <g transform="matrix(0.9988, 0, 0, 0.9988, 0, 0)">
    <g transform="matrix(0.0438, 0, 0, 0.0438, 0, 0)">
      <path d="M337.54, 136.17A8 8 0 0 0 348.85, 136.17L360.16, 124.85A8 8 0 0 0 360.16, 113.54L281, 34.34A8 8 0 0 0 269.69, 34.34L258.34, 45.66A8 8 0 0 0 258.34, 56.97zM515.15, 136.17A8 8 0 0 0 526.46, 136.17L605.66, 57A8 8 0 0 0 605.66, 45.69L594.34, 34.34A8 8 0 0 0 583.03, 34.34L503.84, 113.54A8 8 0 0 0 503.84, 124.85zM424, 128L440, 128A8 8 0 0 0 448, 120L448, 8A8 8 0 0 0 440, 0L424, 0A8 8 0 0 0 416, 8L416, 120A8 8 0 0 0 424, 128zM592, 192L480.68, 192C461.16, 182.11 439.39, 176 416, 176C392.61, 176 370.84, 182.11 351.32, 192L48, 192A48 48 0 0 0 0, 240L0, 400A48 48 0 0 0 48, 448L96, 448L96, 504A8 8 0 0 0 104, 512L120, 512A8 8 0 0 0 128, 504L128, 448L351.32, 448C370.84, 457.89 392.61, 464 416, 464C439.39, 464 461.16, 457.89 480.68, 448L512, 448L512, 504A8 8 0 0 0 520, 512L536, 512A8 8 0 0 0 544, 504L544, 448L592, 448A48 48 0 0 0 640, 400L640, 240A48 48 0 0 0 592, 192zM48, 416A16 16 0 0 1 32, 400L32, 240A16 16 0 0 1 48, 224L309.37, 224C286.38, 249.52 272, 283 272, 320C272, 357 286.38, 390.48 309.37, 416zM416, 432A112 112 0 1 1 528, 320A112.16 112.16 0 0 1 416, 432zM608, 400A16 16 0 0 1 592, 416L522.63, 416C545.63, 390.48 560, 357.05 560, 320C560, 282.95 545.62, 249.52 522.63, 224L592, 224A16 16 0 0 1 608, 240zM104, 296A24 24 0 1 0 128, 320A24 24 0 0 0 104, 296zM184, 296A24 24 0 1 0 208, 320A24 24 0 0 0 184, 296z" fill="#727272" fill-opacity="1" class="Black" />
    </g>
  </g>
</svg>