<?xml version='1.0' encoding='UTF-8'?>
<svg viewBox="-2 -3.554 32 32" xmlns="http://www.w3.org/2000/svg">
  <g transform="matrix(0.0486, 0, 0, 0.0486, 0, 0)">
    <path d="M494.75, 110.52C460.24, 77.96 409.33, 71.33 368, 90.9L368, 51.8C368, 39.6 361.22, 28.63 350.31, 23.18L310.69, 3.36C302.72, -0.61 293.31, -1.09 285.03, 2.09C276.72, 5.25 270.03, 11.81 266.69, 20.12L237.99, 91.87C233.21, 94.31 228.59, 97.06 224.25, 100.25C180.84, 69.96 120.47, 73.49 81.25, 110.51C28.84, 159.92 0, 225.78 0, 295.95C0, 366.11 28.84, 431.95 81.25, 481.35C120.44, 518.33 180.78, 521.95 224.25, 491.63C252.04, 512.08 286.62, 512 288, 512C294.57, 512 325.2, 511.17 351.75, 491.63C371.25, 505.22 394.13, 511.99 416.97, 511.99C445.09, 511.99 473.13, 501.76 494.75, 481.36C547.16, 431.96 576, 366.11 576, 295.94C576, 225.77 547.16, 159.92 494.75, 110.52zM288, 479.9C166.91, 479.9 163.74, 112 288, 112C409.22, 112 412.21, 479.9 288, 479.9zM296.41, 31.99L336, 51.8L336, 90.91C317.79, 82.13 297.05, 78.92 276.83, 80.9L296.41, 31.99zM103.19, 458.08C57.28, 414.79 32, 357.21 32, 295.94C32, 234.67 57.28, 177.09 103.19, 133.79C130.99, 107.58 175.21, 105.45 206.16, 127.11C177.54, 168.36 163.95, 231.35 163.95, 294.34C163.95, 347.13 173.14, 397.01 189.83, 434.81C195, 446.52 200.72, 455.95 206.61, 464.44C175.67, 486.41 131.15, 484.43 103.19, 458.08zM472.81, 458.08C445.06, 484.23 400.99, 486.39 370.07, 464.94C398.58, 423.63 412.04, 360.57 412.04, 297.67C412.04, 233.44 398.34, 169.24 369.48, 127.36C400.4, 105.45 444.85, 107.43 472.81, 133.8C518.72, 177.09 544, 234.67 544, 295.94C544, 357.21 518.72, 414.79 472.81, 458.08z" fill="#727272" fill-opacity="1" class="Black" />
  </g>
</svg>