<?xml version='1.0' encoding='UTF-8'?>
<svg viewBox="-1.9998 -3.5563 31.9975 32" xmlns="http://www.w3.org/2000/svg">
  <g transform="matrix(0.0486, 0, 0, 0.0486, 0, 0)">
    <path d="M506.584, 256C454.277, 256 434.572, 302.513 419.321, 283.506C399.196, 258.424 417.293, 176.273 422.796, 151.564C388.567, 157.935 285.553, 175.838 258.96, 153.742C242.341, 139.932 290.273, 110.246 290.273, 67.299C290.272, 26.025 256.447, 0 214.842, 0C171.283, 0 130.05, 25.609 130.05, 68.824C130.05, 121.844 175.948, 140.429 154.401, 157.43C125.985, 179.846 35.346, 160.524 0, 152.041L0, 497.354C33.315, 505.366 70.681, 512.003 106.163, 512C148.443, 512 192, 500.161 192, 457.875C192, 428.531 160, 417.043 160, 384C160, 359.563 182.534, 352 206.978, 352C245.675, 352 256, 372.114 256, 384C256, 412.783 221.728, 420.348 221.728, 460.58C221.728, 474.328 226.741, 486.025 236.226, 494.408C271.379, 525.477 342.943, 500.727 423.311, 500.693C422.353, 497.267 396.504, 413.969 415.609, 388.786C432.324, 366.763 464.187, 417.892 508.129, 417.892C550.227, 417.893 576, 377.616 576, 336C576, 293.165 549.773, 256 506.584, 256zM508.128, 385.893C478.126, 385.893 466.764, 352 426.615, 352C373.049, 352 371.774, 416.979 382.343, 469.816C345.947, 473.24 275.318, 486.25 257.417, 470.43C237.293, 452.645 288, 428.279 288, 384C288, 346.317 254.683, 320 206.978, 320C131.997, 320 104.093, 379.829 150.811, 442.037C155.537, 448.33 160, 454.274 160, 457.875C160, 491.565 65.995, 478.504 32, 471.8L32, 191.971C95.255, 203.628 192, 210.107 192, 145.466C192, 116.899 162.05, 102.484 162.05, 68.824C162.05, 44.146 190.265, 32 214.842, 32C234.877, 32 258.272, 41.244 258.272, 67.298C258.272, 96.724 224, 108.05 224, 147.908C224, 205.736 324.845, 198.839 382.22, 191.001C374.142, 245.294 373.959, 320 429.086, 320C458.229, 320 472.76, 288 506.584, 288C531.543, 288 544, 311.301 544, 336C544, 370.413 523.023, 385.893 508.128, 385.893z" fill="#727272" fill-opacity="1" class="Black" />
  </g>
</svg>