<?xml version='1.0' encoding='UTF-8'?>
<svg viewBox="-5.105 -1.9998 32 31.9975" xmlns="http://www.w3.org/2000/svg">
  <g transform="matrix(0.0547, 0, 0, 0.0547, 0, 0)">
    <path d="M200.343, 0C124.032, 0 69.761, 31.599 28.195, 93.302C13.982, 114.401 18.737, 142.976 39.02, 158.356L81.054, 190.228C101.763, 205.931 131.4, 202.393 147.733, 181.718C169.206, 154.537 176.104, 149.758 193.865, 149.758C204.083, 149.758 219.154, 156.757 219.154, 168C219.154, 193.731 109.854, 188.744 109.854, 290.251L109.854, 304C109.854, 320.007 117.737, 334.199 129.817, 342.924C109.139, 360.547 96, 386.766 96, 416C96, 468.935 139.065, 512 192, 512C244.935, 512 288, 468.935 288, 416C288, 386.766 274.861, 360.547 254.183, 342.924C266.263, 334.198 274.146, 320.007 274.146, 304L274.146, 299.295C299.532, 280.305 378.432, 254.791 378.432, 159.872C378.432, 68.793 288.351, 0 200.343, 0zM192, 480C156.71, 480 128, 451.29 128, 416C128, 380.71 156.71, 352 192, 352C227.29, 352 256, 380.71 256, 416C256, 451.29 227.29, 480 192, 480zM242.146, 293.594L242.146, 304C242.146, 312.837 234.983, 320 226.146, 320L157.854, 320C149.018, 320 141.854, 312.837 141.854, 304L141.854, 290.251C141.854, 203.469 251.154, 232.925 251.154, 168C251.154, 136 219.475, 117.758 193.865, 117.758C160.082, 117.758 144.698, 133.938 122.623, 161.881C117.22, 168.721 107.339, 170 100.388, 164.729L58.354, 132.857C51.597, 127.733 49.997, 118.213 54.734, 111.18C88.876, 60.499 132.358, 32 200.343, 32C271.006, 32 346.432, 87.158 346.432, 159.872C346.432, 256.427 242.146, 257.913 242.146, 293.594z" fill="#727272" fill-opacity="1" class="Black" />
  </g>
</svg>