<?xml version='1.0' encoding='UTF-8'?>
<svg viewBox="-1.5477 -1.5477 32 32" xmlns="http://www.w3.org/2000/svg">
  <g transform="matrix(0.9991, 0, 0, 0.9991, 0, 0)">
    <g transform="matrix(0.0565, 0, 0, 0.0565, 0, 0)">
      <path d="M256, 340C240.536, 340 228, 352.536 228, 368C228, 383.464 240.536, 396 256, 396C271.464, 396 284, 383.464 284, 368C284, 352.536 271.464, 340 256, 340zM263.67, 316L247.67, 316C241.043, 316 235.67, 310.627 235.67, 304L235.67, 303.619C235.67, 233.276 313.11, 240 313.11, 196.211C313.11, 176.195 295.349, 156 255.67, 156C226.526, 156 211.405, 165.649 196.459, 184.692C192.551, 189.672 185.405, 190.687 180.211, 187.068L167.077, 177.918C161.452, 173.999 160.217, 166.147 164.432, 160.741C185.658, 133.514 210.842, 116 255.67, 116C307.99, 116 353.11, 145.751 353.11, 196.211C353.11, 263.625 275.67, 260.06 275.67, 303.619L275.67, 304C275.67, 310.627 270.297, 316 263.67, 316zM256, 40C374.621, 40 472, 136.075 472, 256C472, 375.291 375.39, 472 256, 472C136.756, 472 40, 375.438 40, 256C40, 136.797 136.602, 40 256, 40M256, 8C119.043, 8 8, 119.083 8, 256C8, 392.997 119.043, 504 256, 504C392.957, 504 504, 392.997 504, 256C504, 119.083 392.957, 8 256, 8z" fill="#727272" fill-opacity="1" class="Black" />
    </g>
  </g>
</svg>