<?xml version='1.0' encoding='UTF-8'?>
<svg viewBox="-2 -4.797 32 32" xmlns="http://www.w3.org/2000/svg">
  <g transform="matrix(0.9989, 0, 0, 0.9989, 0, 0)">
    <g transform="matrix(0.0438, 0, 0, 0.0438, 0, 0)">
      <path d="M638.3, 15.5L628.3, 3C625.5, -0.5 620.5, -1 617.1, 1.7L372.9, 194.7L327.5, 137.6C322.5, 131.3 312.9, 131.6 308.3, 138.1L259.7, 206.7C231.2, 207 152.5, 211.7 101.7, 252.1C38.8, 302.1 0, 511.4 0, 511.4C15.4, 512.1 215.1, 518.2 275.6, 470.1C326.5, 429.6 348.9, 353.9 355.6, 326.3L433.1, 295C440.5, 292 443, 282.7 438, 276.4L392.8, 219.7L637, 26.8C640.4, 24 641, 19 638.3, 15.5zM255.7, 445.6C229, 466.8 146.3, 480 39.8, 480L39.2, 480C43.3, 462.2 48.2, 443.2 53.6, 424.1L122.4, 369.4C127.4, 365.5 123.6, 357.5 117.4, 358.8L71.4, 368.5C86.4, 326.9 103.7, 291.2 121.5, 277C155.1, 250.3 211.2, 239.8 255.4, 238.6L323.2, 323.7C316.1, 351.4 296.1, 413.5 255.7, 445.6zM342.8, 296.8L285.9, 225.3L314.3, 184.8C316.6, 181.5 321.4, 181.4 323.9, 184.5L391.5, 269.4C394, 272.6 392.8, 277.3 389, 278.7L342.8, 296.8zM496, 351.5C451.9, 351.5 416, 387.3 416, 431.4C416, 475.5 451.9, 512 496, 512C540.1, 512 576, 475.5 576, 431.4C576, 387.3 540.2, 351.5 496, 351.5zM496, 479.4C469.5, 479.4 448, 457.9 448, 431.4C448, 404.9 469.5, 383.4 496, 383.4C522.5, 383.4 544, 404.9 544, 431.4C544, 457.9 522.5, 479.4 496, 479.4z" fill="#727272" fill-opacity="1" class="Black" />
    </g>
  </g>
</svg>