<?xml version='1.0' encoding='UTF-8'?>
<svg viewBox="-2 -1.9988 32 32" xmlns="http://www.w3.org/2000/svg">
  <g transform="matrix(0.0547, 0, 0, 0.0547, 0, 0)">
    <path d="M176, 32L64, 32C28.7, 32 0, 60.7 0, 96L0, 224C0, 259.3 28.7, 288 64, 288L128, 288L128, 312C128, 342.9 102.9, 368 72, 368L56, 368C33.9, 368 16, 385.9 16, 408L16, 440C16, 462.1 33.9, 480 56, 480L72, 480C164.6, 480 240, 404.6 240, 312L240, 96C240, 60.7 211.3, 32 176, 32zM208, 312C208, 387.1 147.1, 448 72, 448L56, 448C51.6, 448 48, 444.4 48, 440L48, 408C48, 403.6 51.6, 400 56, 400L72, 400C120.6, 400 160, 360.6 160, 312L160, 256L64, 256C46.3, 256 32, 241.7 32, 224L32, 96C32, 78.3 46.3, 64 64, 64L176, 64C193.7, 64 208, 78.3 208, 96L208, 312zM448, 32L336, 32C300.7, 32 272, 60.7 272, 96L272, 224C272, 259.3 300.7, 288 336, 288L400, 288L400, 312C400, 342.9 374.9, 368 344, 368L328, 368C305.9, 368 288, 385.9 288, 408L288, 440C288, 462.1 305.9, 480 328, 480L344, 480C436.6, 480 512, 404.6 512, 312L512, 96C512, 60.7 483.3, 32 448, 32zM480, 312C480, 387.1 419.1, 448 344, 448L328, 448C323.6, 448 320, 444.4 320, 440L320, 408C320, 403.6 323.6, 400 328, 400L344, 400C392.6, 400 432, 360.6 432, 312L432, 256L336, 256C318.3, 256 304, 241.7 304, 224L304, 96C304, 78.3 318.3, 64 336, 64L448, 64C465.7, 64 480, 78.3 480, 96L480, 312z" fill="#727272" fill-opacity="1" class="Black" />
  </g>
</svg>