<?xml version='1.0' encoding='UTF-8'?>
<svg viewBox="-3.7494 -1.9999 32 32" xmlns="http://www.w3.org/2000/svg">
  <g transform="matrix(0.0547, 0, 0, 0.0547, 0, 0)">
    <path d="M246.25, 338.38C261.28, 338.38 276.22, 335.66 290.28, 330.41A18.75 18.75 0 0 0 303.06, 312.61C303.06, 302.27 294.62, 293.84 284.25, 293.84L280.13, 294.04C234.44, 294.04 197.25, 256.87 197.25, 211.18C197.25, 165.49 234.44, 128.32 280.09, 128.32L284.25, 128.52C293.19, 128.52 300.91, 122.18 302.63, 113.46C304.47, 104.34 299.51, 95.38 290.85, 92.18C276.35, 86.74 261.35, 83.99 246.26, 83.99C176.14, 83.99 119.07, 141.05 119.07, 211.18C119.07, 281.31 176.12, 338.38 246.25, 338.38zM246.25, 108C248.09, 108 249.91, 108.05 251.75, 108.16C206.56, 120.61 173.25, 162.1 173.25, 211.19C173.25, 260.3 206.53, 301.77 251.75, 314.22C193.03, 317.88 143.06, 269.92 143.06, 211.19C143.06, 154.3 189.34, 108 246.25, 108zM448, 392L448, 24C448, 10.7 437.3, 0 424, 0L80, 0C35.8, 0 0, 35.8 0, 80L0, 448C0, 483.35 28.65, 512 64, 512L436, 512C442.6, 512 448, 506.6 448, 500L448, 492C448, 485.4 442.6, 480 436, 480L432.7, 480C428.7, 459.8 429.5, 430.3 433.1, 414.2C441.8, 410.6 448, 402 448, 392zM404.3, 480L64, 480C46.33, 480 32, 465.67 32, 448C32, 430.33 46.33, 416 64, 416L404.3, 416C401.4, 434.8 401.2, 459.6 404.3, 480zM416, 384L64, 384C52.28, 384 41.45, 387.38 32, 392.88L32, 80C32, 53.5 53.5, 32 80, 32L416, 32L416, 384zM292.72, 155.27L282.56, 175.85L259.84, 179.15C253.81, 180.01 248.78, 184.24 246.9, 190.04C245.02, 195.84 246.59, 202.2 250.96, 206.45L267.43, 222.48L263.52, 245.1C262.49, 251.1 264.96, 257.16 269.9, 260.76C274.84, 264.34 281.4, 264.81 286.78, 261.96L307.06, 251.27L327.34, 261.96A16.055 16.055 0 0 0 344.22, 260.75C349.16, 257.16 351.63, 251.09 350.6, 245.09L346.69, 222.47L363.16, 206.44C367.54, 202.19 369.1, 195.83 367.22, 190.03C365.34, 184.23 360.31, 180 354.28, 179.14L331.56, 175.84L321.4, 155.26C316.03, 144.33 298.09, 144.33 292.72, 155.27zM316.94, 194.68L339.06, 197.88L323.03, 213.48L326.81, 235.5L307.06, 225.09L287.31, 235.5L291.09, 213.48L275.06, 197.88L297.18, 194.68L307.06, 174.65L316.94, 194.68z" fill="#727272" fill-opacity="1" class="Black" />
  </g>
</svg>