<?xml version='1.0' encoding='UTF-8'?>
<svg viewBox="-1.9975 -4.7983 32 32" xmlns="http://www.w3.org/2000/svg">
  <g transform="matrix(1.0012, 0, 0, 1.0012, 0, 0)">
    <g transform="matrix(0.0437, 0, 0, 0.0437, 0, 0)">
      <path d="M511.99, 223.99C503.15, 223.99 495.99, 231.15 495.99, 239.99C495.99, 248.83 503.15, 255.99 511.99, 255.99C520.83, 255.99 527.99, 248.83 527.99, 239.99C527.99, 231.16 520.83, 223.99 511.99, 223.99zM602.88, 191.21C602.27, 190.78 544.36, 155.22 544.36, 155.22C541.82, 153.65 534.63, 150.15 526.01, 147.7A261.57 261.57 0 0 0 521.12, 125.68C515.23, 103.71 492.45, 32.01 446.6, 32L446.59, 32C408.63, 32 402.39, 73.84 402.1, 75.33C370.01, 58.18 346.64, 62.18 332.4, 76.42C323.69, 85.13 311.85, 104.77 328.04, 139.7C296.95, 123.32 266.49, 112 239.98, 112C194.25, 112 153.7, 130.33 122.09, 164.43C108.58, 151.29 90.85, 144 71.97, 144C52.74, 144 34.65, 151.49 21.06, 165.09C-7.01, 193.16 -7.01, 238.84 21.06, 266.91C34.66, 280.51 52.74, 288 71.98, 288C84.71, 288 96.78, 284.43 107.49, 278.2C111.08, 284.53 115.18, 290.65 120.32, 296.22L174.36, 354.76L149.35, 368.28A47.925 47.925 0 0 0 127.97, 408.22L127.97, 431.95C127.97, 449.25 136.91, 464.78 151.88, 473.46C159.41, 477.82 167.69, 480.01 175.98, 480.01C184.14, 480.01 192.32, 477.89 199.79, 473.62L254.98, 442.09L280.47, 469.7A32.008 32.008 0 0 0 303.99, 479.99L464, 479.99C481.68, 479.99 496, 465.66 496, 447.99C496, 412.7 467.29, 383.99 432, 383.99L384, 383.99L454.4, 351.99L551.36, 351.99C600.24, 351.99 640.01, 312.22 640.01, 263.34C640, 234.78 626.12, 207.81 602.88, 191.21zM96.26, 246.93C71.73, 266.09 49.38, 249.97 43.68, 244.28C28.06, 228.66 28.06, 203.33 43.68, 187.71C59.29, 172.1 84.63, 172.08 100.25, 187.71C101.56, 189.02 102.46, 190.54 103.5, 191.98C95.69, 209.41 93.16, 228.47 96.26, 246.93zM183.91, 445.83C173.38, 451.92 159.97, 444.31 159.97, 431.94L159.97, 408.21C159.97, 402.85 162.63, 397.87 165.81, 395.66L196.74, 379L232.7, 417.96L183.91, 445.83zM551.35, 319.99L447.99, 319.99L383.99, 346.66L383.99, 344.4C383.99, 294.65 350.58, 250.37 302.77, 236.72L260.39, 224.61C239.93, 218.81 231.3, 249.58 251.58, 255.39L293.96, 267.5C328.15, 277.25 352, 308.87 352, 344.4L352, 415.99L432, 415.99C449.66, 415.99 464, 430.35 464, 447.99L303.98, 447.99L143.83, 274.51C121.47, 250.29 121.17, 213.14 143.02, 188.45C163.17, 165.69 194.35, 144 239.98, 144C297.31, 144 392.72, 219.22 447.99, 255.99C447.99, 224.83 447.46, 225.22 451.53, 212.98C436.22, 209.45 413.78, 195.12 392.36, 173.7C361.43, 142.78 344.72, 109.35 355.03, 99.05C365.77, 88.31 400.17, 106.85 429.69, 136.38C432.94, 139.63 435.94, 142.92 438.87, 146.19C427.24, 101.68 430.79, 64 446.59, 64C460.53, 64 479.51, 94.05 490.2, 133.97C494.3, 149.25 496.56, 163.83 497.18, 176.46C511.35, 175.45 521.95, 179.69 527.62, 182.49L584.27, 217.24A56.632 56.632 0 0 1 607.99, 263.34C608, 294.63 582.63, 319.99 551.35, 319.99z" fill="#727272" fill-opacity="1" class="Black" />
    </g>
  </g>
</svg>