<?xml version='1.0' encoding='UTF-8'?>
<svg viewBox="-2 -1.9988 32 32" xmlns="http://www.w3.org/2000/svg">
  <g transform="matrix(0.0547, 0, 0, 0.0547, 0, 0)">
    <path d="M216, 304L72, 304A8 8 0 0 0 64, 312L64, 328A8 8 0 0 0 72, 336L216, 336A8 8 0 0 0 224, 328L224, 312A8 8 0 0 0 216, 304zM200, 368L88, 368A8 8 0 0 0 80, 376L80, 392A8 8 0 0 0 88, 400L200, 400A8 8 0 0 0 208, 392L208, 376A8 8 0 0 0 200, 368zM88, 272L200, 272A8 8 0 0 0 208, 264L208, 248A8 8 0 0 0 200, 240L88, 240A8 8 0 0 0 80, 248L80, 264A8 8 0 0 0 88, 272zM448, 128L184.51, 128L506.3, 31A8 8 0 0 0 511.66, 21L507, 5.69A8 8 0 0 0 497, 0.34L73.56, 128L64, 128A64 64 0 0 0 0, 192L0, 448A64 64 0 0 0 64, 512L448, 512A64 64 0 0 0 512, 448L512, 192A64 64 0 0 0 448, 128zM480, 448A32 32 0 0 1 448, 480L64, 480A32 32 0 0 1 32, 448L32, 192A32 32 0 0 1 64, 160L448, 160A32 32 0 0 1 480, 192zM352, 224A96 96 0 1 0 448, 320A96 96 0 0 0 352, 224zM352, 384A64 64 0 1 1 416, 320A64.07 64.07 0 0 1 352, 384z" fill="#727272" fill-opacity="1" class="Black" />
  </g>
</svg>