<?xml version='1.0' encoding='UTF-8'?>
<svg viewBox="-2 -3.554 32 32" xmlns="http://www.w3.org/2000/svg">
  <g transform="matrix(0.0486, 0, 0, 0.0486, 0, 0)">
    <path d="M288, 224.4C235.1, 224.5 192, 267 192, 319.9L192, 472C192, 476.4 195.6, 480 200, 480L216, 480C220.4, 480 224, 476.4 224, 472L224, 319.9C224, 284.6 252.8, 256.3 288, 256.2C323.2, 256.2 352, 284.6 352, 319.9L352, 472C352, 476.4 355.6, 480 360, 480L376, 480C380.4, 480 384, 476.4 384, 472L384, 319.9C384, 266.9 340.9, 224.4 288, 224.4zM288, 32C129.2, 32 0, 161 0, 319.9L0, 472C0, 476.4 3.6, 480 8, 480L24, 480C28.4, 480 32, 476.4 32, 472L32, 319.9C32, 178.6 146.9, 64.1 288, 64C429.1, 64 544, 178.6 544, 319.9L544, 472C544, 476.4 547.6, 480 552, 480L568, 480C572.4, 480 576, 476.4 576, 472L576, 319.9C576, 161 446.8, 32 288, 32zM288, 127.8C182.1, 127.8 96, 213.9 96, 319.8L96, 472C96, 476.4 99.6, 480 104, 480L120, 480C124.4, 480 128, 476.4 128, 472L128, 319.9C128, 231.6 199.8, 160 288, 160C376.2, 160 448, 231.6 448, 319.9L448, 472C448, 476.4 451.6, 480 456, 480L472, 480C476.4, 480 480, 476.4 480, 472L480, 319.9C480, 213.9 393.9, 127.9 288, 127.8z" fill="#727272" fill-opacity="1" class="Black" />
  </g>
</svg>