<?xml version='1.0' encoding='UTF-8'?>
<svg viewBox="-5.499 -1.9999 31.9975 32" xmlns="http://www.w3.org/2000/svg">
  <g transform="matrix(0.0547, 0, 0, 0.0547, 0, 0)">
    <path d="M384, 352L384, 32C384, 14.3 369.7, 0 352, 0L32, 0C14.3, 0 0, 14.3 0, 32L0, 352C0, 369.7 14.3, 384 32, 384L38.9, 384L3.2, 467.4C-5.9, 488.5 9.6, 512 32.6, 512L351.5, 512C374.5, 512 390, 488.5 380.9, 467.4L345.1, 384L352, 384C369.7, 384 384, 369.7 384, 352zM351.4, 480L32.6, 480L101.2, 320L282.9, 320L351.4, 480zM331.4, 352L312.3, 307.4C307.3, 295.6 295.7, 288 282.9, 288L101.1, 288C88.3, 288 76.7, 295.6 71.7, 307.4L52.6, 352L32, 352L32, 32L352, 32L352, 352L331.4, 352z" fill="#727272" fill-opacity="1" class="Black" />
  </g>
</svg>