<?xml version='1.0' encoding='UTF-8'?>
<svg viewBox="-1.5477 -1.5477 32 32" xmlns="http://www.w3.org/2000/svg">
  <g transform="matrix(0.9991, 0, 0, 0.9991, 0, 0)">
    <g transform="matrix(0.0565, 0, 0, 0.0565, 0, 0)">
      <path d="M256, 8C119, 8 8, 119 8, 256C8, 393 119, 504 256, 504C393, 504 504, 393 504, 256C504, 119 393, 8 256, 8zM256, 472C136.9, 472 40, 375.1 40, 256C40, 136.9 136.9, 40 256, 40C375.1, 40 472, 136.9 472, 256C472, 375.1 375.1, 472 256, 472zM256, 152A104 104 0 1 0 360, 256A104 104 0 0 0 256, 152zM256, 328A72 72 0 1 1 328, 256A72.08 72.08 0 0 1 256, 328zM256, 232A24 24 0 1 0 280, 256A24 24 0 0 0 256, 232z" fill="#727272" fill-opacity="1" class="Black" />
    </g>
  </g>
</svg>