<?xml version='1.0' encoding='UTF-8'?>
<svg viewBox="-5.5003 -2 32 32" xmlns="http://www.w3.org/2000/svg">
  <g transform="matrix(0.0547, 0, 0, 0.0547, 0, 0)">
    <path d="M384, 464L384, 48C384, 21.5 362.5, 0 336, 0L48, 0C21.5, 0 0, 21.5 0, 48L0, 464C0, 490.5 21.5, 512 48, 512L336, 512C362.5, 512 384, 490.5 384, 464zM48, 480C39.2, 480 32, 472.8 32, 464L32, 48C32, 39.2 39.2, 32 48, 32L336, 32C344.8, 32 352, 39.2 352, 48L352, 464C352, 472.8 344.8, 480 336, 480L48, 480z" fill="#727272" fill-opacity="1" class="Black" />
  </g>
</svg>