<?xml version='1.0' encoding='UTF-8'?>
<svg viewBox="-2 -2 32 32" xmlns="http://www.w3.org/2000/svg">
  <g transform="matrix(0.0547, 0, 0, 0.0547, 0, 0)">
    <path d="M201.728, 62.049L158.343, 131.508C154.832, 137.13 147.427, 138.84 141.806, 135.327L135.025, 131.09C129.406, 127.579 127.696, 120.178 131.206, 114.557L174.593, 45.077C212.168, -15.043 299.856, -15.007 337.409, 45.077L383.626, 119.092L395.663, 66.952C397.154, 60.494 403.597, 56.468 410.055, 57.959L417.849, 59.758C424.307, 61.249 428.333, 67.692 426.842, 74.15L405.209, 167.852C403.718, 174.31 397.275, 178.336 390.817, 176.845L297.115, 155.212C290.657, 153.721 286.631, 147.278 288.122, 140.82L289.921, 133.026C291.412, 126.568 297.855, 122.542 304.313, 124.033L356.515, 136.085L310.264, 62.038C285.262, 22.032 226.797, 21.939 201.728, 62.049zM497.288, 301.12L444.349, 216.34C440.838, 210.717 433.433, 209.006 427.811, 212.519L421.044, 216.747C415.424, 220.259 413.715, 227.66 417.225, 233.281L470.191, 318.079C496.796, 360.647 466.137, 415.999 415.919, 415.999L310.627, 415.999L348.485, 378.141C353.171, 373.455 353.171, 365.857 348.485, 361.171L342.829, 355.515C338.143, 350.829 330.545, 350.829 325.859, 355.515L257.859, 423.515C253.173, 428.201 253.173, 435.799 257.859, 440.486L325.859, 508.486C330.545, 513.172 338.143, 513.172 342.829, 508.486L348.485, 502.829C353.171, 498.143 353.171, 490.545 348.485, 485.858L310.627, 448L415.88, 448C491.154, 448 537.215, 365.003 497.288, 301.12zM41.813, 318.069L97.616, 228.73L109.66, 280.896C111.151, 287.354 117.594, 291.38 124.052, 289.889L131.846, 288.09C138.304, 286.599 142.33, 280.156 140.839, 273.698L119.206, 179.996C117.715, 173.538 111.272, 169.512 104.814, 171.003L11.112, 192.636C4.654, 194.127 0.628, 200.57 2.119, 207.028L3.918, 214.822C5.409, 221.28 11.852, 225.306 18.31, 223.815L70.503, 211.765L14.707, 301.12C-25.188, 364.952 20.781, 448 96.115, 448L196, 448C202.627, 448 208, 442.627 208, 436L208, 428C208, 421.373 202.627, 416 196, 416L96.078, 416C45.879, 416 15.191, 360.665 41.813, 318.069z" fill="#727272" fill-opacity="1" class="Black" />
  </g>
</svg>