<?xml version='1.0' encoding='UTF-8'?>
<svg viewBox="-1.5554 -1.9975 32 31.9975" xmlns="http://www.w3.org/2000/svg">
  <g transform="matrix(0.9992, 0, 0, 0.9992, 0, 0)">
    <g transform="matrix(0.0556, 0, 0, 0.0556, 0, 0)">
      <path d="M457.4, 9.4L407.3, 59.5C365.4, 27.2 312.8, 8 255.8, 8C119.2, 8.1 7.7, 119.8 8, 256.5C8.3, 393.2 119.2, 504 256, 504C319.9, 504 378.2, 479.8 422.2, 440.1C427.3, 435.5 427.6, 427.5 422.7, 422.7L415.6, 415.6C411.1, 411.1 403.9, 410.9 399.1, 415.1C360.1, 450.2 309.7, 470 256, 470C138, 470 42, 374.4 42, 256C42, 138 137.6, 42 256, 42C302.5, 42 346.7, 56.9 383, 83.7L329.4, 137.3C309.3, 157.4 323.5, 191.9 352, 191.9L480, 191.9C497.7, 191.9 512, 177.6 512, 159.9L512, 32C512, 3.5 477.4, -10.7 457.4, 9.4zM480, 160L352, 160L480, 32z" fill="#727272" fill-opacity="1" class="Black" />
    </g>
  </g>
</svg>