<?xml version='1.0' encoding='UTF-8'?>
<svg viewBox="-1.9975 -4.7973 32 32" xmlns="http://www.w3.org/2000/svg">
  <g transform="matrix(0.999, 0, 0, 0.999, 0, 0)">
    <g transform="matrix(0.0438, 0, 0, 0.0438, 0, 0)">
      <path d="M192, 64L368, 64L323.44, 197.68L348.79, 217.68L400, 64L576, 64L576, 120A8 8 0 0 0 584, 128L600, 128A8 8 0 0 0 608, 120L608, 48A16 16 0 0 0 592, 32L176, 32A16 16 0 0 0 160, 48L160, 69L192, 94.19zM344, 448L272, 448L316.55, 314.36L291.2, 294.36L240, 448L168, 448A8 8 0 0 0 160, 456L160, 472A8 8 0 0 0 168, 480L344, 480A8 8 0 0 0 352, 472L352, 456A8 8 0 0 0 344, 448zM637, 485.31L23, 1.8A7.86 7.86 0 0 0 11.79, 3L1.79, 15.5A7.92 7.92 0 0 0 3, 26.71L617, 510.23A7.91 7.91 0 0 0 628.18, 509L638.18, 496.5A7.83 7.83 0 0 0 637, 485.32z" fill="#727272" fill-opacity="1" class="Black" />
    </g>
  </g>
</svg>