<?xml version='1.0' encoding='UTF-8'?>
<svg viewBox="-2 -1.9988 32 32" xmlns="http://www.w3.org/2000/svg">
  <g transform="matrix(0.0547, 0, 0, 0.0547, 0, 0)">
    <path d="M54.027, 327.713C40.129, 307.242 32, 282.553 32, 256C32, 185.421 89.421, 128 160, 128L320, 128L320, 191.969C320, 221.208 356.192, 235.146 375.785, 213.376L447.785, 133.408C458.737, 121.239 458.738, 102.764 447.785, 90.594L375.785, 10.62C356.226, -11.114 320, 2.738 320, 32.026L320, 96L160, 96C71.775, 96 0, 167.775 0, 256C0, 289.913 10.612, 321.391 28.683, 347.299C33.11, 353.647 42.289, 354.235 47.468, 348.484L52.956, 342.388C56.623, 338.315 57.105, 332.248 54.027, 327.713zM352, 32L424, 112L352, 192L352, 32zM483.317, 164.701C478.89, 158.353 469.711, 157.765 464.532, 163.516L459.044, 169.612C455.377, 173.685 454.895, 179.752 457.973, 184.287C471.871, 204.758 480, 229.447 480, 256C480, 326.579 422.579, 384 352, 384L192, 384L192, 320.031C192, 290.792 155.808, 276.854 136.215, 298.624L64.215, 378.593C53.263, 390.762 53.262, 409.237 64.215, 421.407L136.215, 501.381C155.774, 523.113 192, 509.264 192, 479.974L192, 416L352, 416C440.225, 416 512, 344.225 512, 256C512, 222.087 501.388, 190.609 483.317, 164.701zM160, 480L88, 400L160, 320L160, 480z" fill="#727272" fill-opacity="1" class="Black" />
  </g>
</svg>