<?xml version='1.0' encoding='UTF-8'?>
<svg viewBox="-1.2803 -4.512 32 32" xmlns="http://www.w3.org/2000/svg">
  <g transform="matrix(0.9994, 0, 0, 0.9994, 0, 0)">
    <g transform="matrix(0.0449, 0, 0, 0.0449, 0, 0)">
      <path d="M328, 0L312, 0C307.6, 0 304, 3.6 304, 8L304, 504C304, 508.4 307.6, 512 312, 512L328, 512C332.4, 512 336, 508.4 336, 504L336, 8C336, 3.6 332.4, 0 328, 0zM128, 160C172.2, 160 208, 124.2 208, 80C208, 35.8 172.2, 0 128, 0C83.8, 0 48, 35.8 48, 80C48, 124.2 83.8, 160 128, 160zM128, 32C154.5, 32 176, 53.5 176, 80C176, 106.5 154.5, 128 128, 128C101.5, 128 80, 106.5 80, 80C80, 53.5 101.5, 32 128, 32zM160, 176L96, 176C51.8, 176 16, 211.8 16, 256L16, 357.3C16, 372 27.9, 384 42.7, 384L56, 384L56, 480C56, 497.7 70.3, 512 88, 512L168, 512C185.7, 512 200, 497.7 200, 480L200, 384L213.3, 384C228, 384 240, 372.1 240, 357.3L240, 256C240, 211.8 204.2, 176 160, 176zM208, 352L168, 352L168, 480L88, 480L88, 352L48, 352L48, 256C48, 229.5 69.5, 208 96, 208L160, 208C186.5, 208 208, 229.5 208, 256L208, 352zM512, 160C556.2, 160 592, 124.2 592, 80C592, 35.8 556.2, 0 512, 0C467.8, 0 432, 35.8 432, 80C432, 124.2 467.8, 160 512, 160zM512, 32C538.5, 32 560, 53.5 560, 80C560, 106.5 538.5, 128 512, 128C485.5, 128 464, 106.5 464, 80C464, 53.5 485.5, 32 512, 32zM638.1, 359L593.2, 237.6C583.1, 201.3 549.7, 176 512, 176C474.3, 176 440.9, 201.3 430.8, 237.6L385.9, 359C382.4, 368.4 383.7, 379 389.5, 387.3C395.3, 395.6 404.7, 400.5 414.8, 400.5L440, 400.5L440, 480.1C440, 497.7 454.3, 512 471.9, 512L552, 512C569.6, 512 583.9, 497.7 583.9, 480.1L583.9, 400.5L609.1, 400.5C619.2, 400.5 628.6, 395.6 634.4, 387.3C640.2, 379 641.6, 368.4 638.1, 359zM552, 368.5L552.1, 480L471.9, 480L472, 368.5L416, 368.5L461.3, 247.5C468, 223.7 488.7, 208 512.1, 208C535.5, 208 556.2, 223.7 562.9, 247.5L608.2, 368.5L552, 368.5z" fill="#727272" fill-opacity="1" class="Black" />
    </g>
  </g>
</svg>