<?xml version='1.0' encoding='UTF-8'?>
<svg viewBox="-1.925 -4.74 32 32" xmlns="http://www.w3.org/2000/svg">
  <g transform="matrix(0.044, 0, 0, 0.044, 0, 0)">
    <path d="M634.828, 363.799L536.485, 462.142C531.799, 466.828 524.201, 466.828 519.514, 462.142L421.171, 363.799C416.485, 359.113 416.485, 351.515 421.171, 346.828L426.827, 341.172C431.513, 336.486 439.111, 336.486 443.798, 341.172L512, 409.372L512, 128L260.024, 128A11.996 11.996 0 0 1 251.539, 124.485L243.539, 116.485C235.979, 108.925 241.333, 96 252.024, 96L520, 96C533.255, 96 544, 106.745 544, 120L544, 409.372L612.201, 341.171C616.887, 336.485 624.485, 336.485 629.172, 341.171L634.828, 346.827C639.514, 351.514 639.514, 359.112 634.828, 363.799zM388.461, 387.515A12.002 12.002 0 0 0 379.976, 384L128, 384L128, 102.628L196.201, 170.828C200.887, 175.514 208.485, 175.514 213.171, 170.828L218.828, 165.171C223.514, 160.485 223.515, 152.887 218.828, 148.2L120.485, 49.857C115.799, 45.171 108.201, 45.171 103.514, 49.857L5.172, 148.201C0.486, 152.887 0.486, 160.486 5.172, 165.172L10.829, 170.829C15.515, 175.515 23.113, 175.515 27.799, 170.829L96, 102.628L96, 392C96, 405.255 106.745, 416 120, 416L387.976, 416C398.667, 416 404.021, 403.074 396.461, 395.515L388.461, 387.515z" fill="#727272" fill-opacity="1" class="Black" />
  </g>
</svg>