<?xml version='1.0' encoding='UTF-8'?>
<svg viewBox="-1.9949 -4.7969 31.995 32" xmlns="http://www.w3.org/2000/svg">
  <g transform="matrix(0.9989, 0, 0, 0.9989, 0, 0)">
    <g transform="matrix(0.0438, 0, 0, 0.0438, 0, 0)">
      <path d="M607.974, 320L544, 320L544, 120C544, 106.745 533.255, 96 520, 96L252.024, 96C241.026, 96 235.822, 109.562 243.996, 116.919L252.885, 124.919A12 12 0 0 0 260.913, 128L512, 128L512, 320L448.032, 320C418.793, 320 404.855, 356.192 426.625, 375.785L506.594, 447.785C518.763, 458.737 537.238, 458.738 549.408, 447.785L629.382, 375.785C651.113, 356.226 637.264, 320 607.974, 320zM528, 424L448, 352L608, 352L528, 424zM396.003, 395.08L387.114, 387.08A12 12 0 0 0 379.086, 384L128, 384L128, 192L191.968, 192C221.207, 192 235.145, 155.808 213.375, 136.215L133.407, 64.215C121.238, 53.263 102.763, 53.262 90.593, 64.215L10.619, 136.215C-11.114, 155.774 2.738, 192 32.026, 192L96, 192L96, 392C96, 405.255 106.745, 416 120, 416L387.976, 416C398.974, 416 404.178, 402.438 396.003, 395.08zM32, 160L112, 88L192, 160L32, 160z" fill="#727272" fill-opacity="1" class="Black" />
    </g>
  </g>
</svg>