<?xml version='1.0' encoding='UTF-8'?>
<svg viewBox="-3.7495 -2 32 32" xmlns="http://www.w3.org/2000/svg">
  <g transform="matrix(0.0547, 0, 0, 0.0547, 0, 0)">
    <path d="M439.5, 407.7L323.7, 285.9L366.1, 240.5C399.5, 204.8 403.5, 153.2 376.3, 109L336.8, 44.9C331.3, 35.9 324, 28.6 315.3, 23C299.1, 12.5 270.2, 0 224, 0C177.9, 0 148.9, 12.5 132.8, 22.9C124, 28.5 116.8, 36 111.3, 45L69.1, 113.5C44, 154.2 49.2, 205.3 82.1, 240.5L126.3, 287.8L8.4, 407.9C-6.5, 424 0.3, 446.7 13.5, 455.1L80.4, 506.6C96.9, 517.3 114.2, 510.2 122.3, 501.6L224, 392.6L325.7, 501.6C341.3, 518.3 361.4, 510.6 368.7, 505.9L433.5, 455.9C449.8, 445.2 453.2, 422.5 439.5, 407.7zM328.4, 92.3L349, 125.7C368.7, 157.7 366.3, 193.3 342.7, 218.6L301.6, 262.6L246.8, 205L298.8, 148.7C314.8, 133.2 323.5, 111.7 328.4, 92.3zM224.8, 181.8L179.7, 134.4C206.4, 126.4 241.9, 126.4 268.6, 134.4L224.8, 181.8zM150.2, 49.8C162.7, 41.6 185.7, 32 224, 32C262.3, 32 285.3, 41.7 297.9, 49.8C299.8, 51 300.9, 53 302.5, 54.5C301.5, 68.2 298, 89.8 289, 107.8C270.4, 100.1 248.8, 96 224, 96C199.2, 96 177.5, 100.1 158.8, 107.9C149.1, 88.5 146.3, 64.9 145.5, 53.3C147, 52 148.5, 50.8 150.2, 49.8zM98.9, 480.5L31.6, 430L148.1, 311.2L202.2, 369.2L98.9, 480.5zM349.1, 479.7L105.4, 218.6C82.5, 194.1 78.8, 158.6 96.3, 130.2L119.5, 92.6C124.4, 111.8 133.2, 133.1 148.8, 148.2L415, 429.8L349.1, 479.7z" fill="#727272" fill-opacity="1" class="Black" />
  </g>
</svg>