<?xml version='1.0' encoding='UTF-8'?>
<svg viewBox="-2 -1.9988 32 32" xmlns="http://www.w3.org/2000/svg">
  <g transform="matrix(0.0547, 0, 0, 0.0547, 0, 0)">
    <path d="M256, 64C87.93, 64 0, 128.39 0, 192L0, 306.13C0, 384.48 114.62, 448 256, 448C397.38, 448 512, 384.48 512, 306.13L512, 192C512, 128.39 424.07, 64 256, 64zM480, 306.13C480, 358.1 388.01, 416 256, 416C123.99, 416 32, 358.1 32, 306.13L32, 256.01C71.33, 292.63 146.55, 320 256, 320C365.45, 320 440.67, 292.63 480, 256.01L480, 306.13zM89.32, 255.97C130.3, 236.37 189.74, 224 256, 224C322.26, 224 381.7, 236.37 422.68, 255.97C381.67, 275.59 322.29, 288 256, 288C189.71, 288 130.33, 275.59 89.32, 255.97zM454.2, 236.66C411.3, 210.2 345.06, 192 256, 192C166.94, 192 100.7, 210.2 57.8, 236.66C41.39, 223.32 32, 208.14 32, 192C32, 138.98 132.29, 96 256, 96C379.71, 96 480, 138.98 480, 192C480, 208.14 470.61, 223.32 454.2, 236.66z" fill="#727272" fill-opacity="1" class="Black" />
  </g>
</svg>