<?xml version='1.0' encoding='UTF-8'?>
<svg viewBox="-1.995 -3.5496 32 32" xmlns="http://www.w3.org/2000/svg">
  <g transform="matrix(0.0486, 0, 0, 0.0486, 0, 0)">
    <path d="M279.47, 192L296.53, 192C302.34, 192 306.88, 185.83 306.26, 178.74L302.51, 135.16C302.16, 131.09 299.36, 128 296.02, 128L279.97, 128C276.63, 128 273.83, 131.09 273.48, 135.16L269.73, 178.74C269.12, 185.83 273.66, 192 279.47, 192zM273.45, 304L302.55, 304C310.3, 304 316.34, 295.77 315.53, 286.32L311.4, 238.32C310.7, 230.18 305.1, 224 298.42, 224L277.59, 224C270.91, 224 265.31, 230.18 264.61, 238.32L260.48, 286.32C259.66, 295.77 265.7, 304 273.45, 304zM284.11, 96L291.9, 96C295.78, 96 298.8, 91.88 298.39, 87.16L297.01, 71.16C296.66, 67.09 293.86, 64 290.52, 64L285.49, 64C282.15, 64 279.35, 67.09 279, 71.16L277.62, 87.16C277.21, 91.88 280.23, 96 284.11, 96zM308.06, 336L267.94, 336C261.26, 336 255.66, 342.18 254.96, 350.32L248.07, 430.32C247.26, 439.77 253.3, 448 261.05, 448L314.94, 448C322.69, 448 328.73, 439.77 327.92, 430.32L321.03, 350.32C320.34, 342.18 314.74, 336 308.06, 336zM157.35, 64A7.99 7.99 0 0 0 149.97, 68.92L1.25, 425.85C-3.14, 436.38 4.6, 448 16.02, 448L44.02, 448C51.13, 448 57.39, 443.31 59.38, 436.48L165.03, 74.24C166.52, 69.12 162.68, 64 157.35, 64zM574.75, 425.85L426.04, 68.92A8 8 0 0 0 418.66, 64C413.33, 64 409.49, 69.12 410.98, 74.24L516.63, 436.48A15.996 15.996 0 0 0 531.99, 448L559.99, 448C571.4, 448 579.15, 436.38 574.75, 425.85z" fill="#727272" fill-opacity="1" class="Black" />
  </g>
</svg>