<?xml version='1.0' encoding='UTF-8'?>
<svg viewBox="-1.9998 -3.5563 31.9975 32" xmlns="http://www.w3.org/2000/svg">
  <g transform="matrix(0.0486, 0, 0, 0.0486, 0, 0)">
    <path d="M173.93, 96.81A8.12 8.12 0 0 0 185.16, 96.88C230.55, 55 289.48, 32 352, 32C414.52, 32 473.45, 55 518.83, 96.88A8.12 8.12 0 0 0 530.06, 96.81L541.59, 85.47A8 8 0 0 0 541.48, 73.91C490, 26.18 423, 0 352, 0C281, 0 214, 26.18 162.52, 73.91A8 8 0 0 0 162.41, 85.47zM352, 112A179.26 179.26 0 0 0 231.62, 157.8A8 8 0 0 0 231.47, 169.44L243, 180.74A8.21 8.21 0 0 0 254.22, 180.88A148.17 148.17 0 0 1 449.86, 180.88A8.21 8.21 0 0 0 461.08, 180.74L472.57, 169.44A8 8 0 0 0 472.42, 157.8A179.26 179.26 0 0 0 352, 112zM528, 320L368, 320L368, 232A8 8 0 0 0 360, 224L344, 224A8 8 0 0 0 336, 232L336, 320L48, 320A48 48 0 0 0 0, 368L0, 464A48 48 0 0 0 48, 512L528, 512A48 48 0 0 0 576, 464L576, 368A48 48 0 0 0 528, 320zM544, 464A16 16 0 0 1 528, 480L48, 480A16 16 0 0 1 32, 464L32, 368A16 16 0 0 1 48, 352L528, 352A16 16 0 0 1 544, 368zM184, 392A24 24 0 1 0 208, 416A24 24 0 0 0 184, 392zM104, 392A24 24 0 1 0 128, 416A24 24 0 0 0 104, 392z" fill="#727272" fill-opacity="1" class="Black" />
  </g>
</svg>