<?xml version='1.0' encoding='UTF-8'?>
<svg viewBox="-3.7508 -2 32 32" xmlns="http://www.w3.org/2000/svg">
  <g transform="matrix(0.0547, 0, 0, 0.0547, 0, 0)">
    <path d="M428.4, 269.21C397.92, 223.79 416.6, 164.74 441.4, 113.81C445.36, 105.68 444.74, 96.06 439.53, 88.68L398.36, 30.32C393.8, 23.85 386.56, 20.18 379.08, 20.18C376.34, 20.18 373.56, 20.67 370.87, 21.7C355.5, 27.58 338.2, 30.59 320.61, 30.59C291.1, 30.59 260.8, 22.12 237.45, 4.48C233.48, 1.5 228.74, 0 224, 0C219.26, 0 214.52, 1.5 210.56, 4.49C187.21, 22.13 156.9, 30.6 127.39, 30.6C109.8, 30.6 92.5, 27.59 77.14, 21.71A22.929 22.929 0 0 0 68.93, 20.19C61.45, 20.19 54.21, 23.86 49.65, 30.32L8.47, 88.69C3.26, 96.07 2.64, 105.68 6.6, 113.82C31.4, 164.74 50.07, 223.79 19.6, 269.22C-18.34, 325.74 1.05, 408.65 58.41, 435.25L223.97, 512L389.59, 435.24C446.96, 408.64 466.34, 325.73 428.4, 269.21zM72.17, 53.91C89.34, 59.61 108.29, 62.6 127.39, 62.6C163.02, 62.6 197.03, 52.56 224, 34.22C250.97, 52.57 284.97, 62.6 320.61, 62.6C339.72, 62.6 358.67, 59.61 375.84, 53.91L410.84, 103.53C402.81, 120.31 394.83, 139.62 388.98, 160.01L59.03, 160.01C53.17, 139.63 45.2, 120.31 37.17, 103.53L72.17, 53.91zM412.61, 359.94C406.61, 381.38 393.32, 398.24 376.14, 406.21L223.98, 476.73L71.88, 406.21C54.69, 398.24 41.4, 381.38 35.4, 359.94C28.37, 334.82 32.4, 307.57 46.18, 287.05C66.43, 256.87 70.25, 223.82 66.05, 192.01L381.97, 192.01C377.76, 223.82 381.59, 256.87 401.84, 287.06C415.61, 307.57 419.63, 334.82 412.61, 359.94z" fill="#727272" fill-opacity="1" class="Black" />
  </g>
</svg>