<?xml version='1.0' encoding='UTF-8'?>
<svg viewBox="-2 0 32 32" xmlns="http://www.w3.org/2000/svg">
  <g transform="matrix(0.0625, 0, 0, 0.0625, 0, 0)">
    <path d="M400, 32L48, 32C21.49, 32 0, 53.49 0, 80L0, 432C0, 458.51 21.49, 480 48, 480L400, 480C426.51, 480 448, 458.51 448, 432L448, 80C448, 53.49 426.51, 32 400, 32zM416, 432C416, 440.822 408.822, 448 400, 448L48, 448C39.178, 448 32, 440.822 32, 432L32, 80C32, 71.178 39.178, 64 48, 64L400, 64C408.822, 64 416, 71.178 416, 80L416, 432zM144, 320C152.822, 320 160, 327.177 160, 336C160, 344.823 152.822, 352 144, 352C135.178, 352 128, 344.823 128, 336C128, 327.177 135.178, 320 144, 320M144, 288C117.49, 288 96, 309.49 96, 336C96, 362.51 117.49, 384 144, 384C170.51, 384 192, 362.51 192, 336C192, 309.49 170.51, 288 144, 288zM339.981, 384L331.962, 384C325.593, 384 320.284, 379.031 319.969, 372.67C314.293, 257.835 222.241, 165.711 107.33, 160.031C100.968, 159.717 96, 154.408 96, 148.038L96, 140.019C96, 133.193 101.683, 127.688 108.502, 128.013C240.117, 134.292 345.705, 239.824 351.987, 371.498C352.312, 378.317 346.807, 384 339.981, 384zM267.975, 384L259.93, 384C253.632, 384 248.4, 379.141 247.944, 372.86C242.481, 297.626 182.193, 237.496 107.12, 232.055C100.846, 231.601 96, 226.36 96, 220.07L96, 212.025C96, 205.022 101.957, 199.543 108.943, 200.03C200.34, 206.397 273.603, 279.659 279.97, 371.057C280.457, 378.043 274.978, 384 267.975, 384z" fill="#727272" fill-opacity="1" class="Black" />
  </g>
</svg>