<?xml version='1.0' encoding='UTF-8'?>
<svg viewBox="-2.0025 -0.0054 32 32" xmlns="http://www.w3.org/2000/svg">
  <g transform="matrix(0.0625, 0, 0, 0.0625, 0, 0)">
    <path d="M80, 352C106.467, 352 128, 373.533 128, 400C128, 426.467 106.467, 448 80, 448C53.533, 448 32, 426.467 32, 400C32, 373.533 53.533, 352 80, 352M80, 320C35.817, 320 0, 355.817 0, 400C0, 444.183 35.817, 480 80, 480C124.183, 480 160, 444.183 160, 400C160, 355.817 124.183, 320 80, 320zM447.996, 467.615C441.548, 229.767 249.936, 38.451 12.386, 32.005C5.609, 31.821 0, 37.229 0, 44.007L0, 52.013C0, 58.495 5.146, 63.829 11.626, 64.007C232.436, 70.057 409.945, 247.92 415.993, 468.374C416.171, 474.854 421.505, 480 427.987, 480L435.994, 480C442.772, 480 448.179, 474.391 447.996, 467.615zM303.751, 467.565C297.404, 309.433 170.544, 182.595 12.435, 176.249C5.643, 175.976 0, 181.45 0, 188.247L0, 196.252C0, 202.711 5.114, 207.972 11.567, 208.241C152.701, 214.132 265.868, 327.32 271.759, 468.433C272.028, 474.886 277.29, 480 283.748, 480L291.753, 480C298.551, 480 304.024, 474.357 303.751, 467.565z" fill="#727272" fill-opacity="1" class="Black" />
  </g>
</svg>