<?xml version='1.0' encoding='UTF-8'?>
<svg viewBox="-4 0 32 32" xmlns="http://www.w3.org/2000/svg">
  <g transform="matrix(0.0625, 0, 0, 0.0625, 0, 0)">
    <path d="M245.712, 287.809C326.008, 287.809 384, 237.486 384, 159.006C384, 81.125 326.009, 32 245.712, 32L108, 32C101.373, 32 96, 37.373 96, 44L96, 248L12, 248C5.373, 248 0, 253.373 0, 260L0, 276C0, 282.627 5.373, 288 12, 288L96, 288L96, 346L12, 346C5.373, 346 0, 351.373 0, 358L0, 372C0, 378.627 5.373, 384 12, 384L96, 384L96, 468C96, 474.627 101.373, 480 108, 480L127.971, 480C134.598, 480 139.971, 474.627 139.971, 468L139.971, 384L308, 384C314.627, 384 320, 378.627 320, 372L320, 358C320, 351.373 314.627, 346 308, 346L139.971, 346L139.971, 287.809L245.712, 287.809zM139.971, 71.594L244.614, 71.594C303.88, 71.594 342.754, 103.573 342.754, 158.809C342.754, 214.627 303.881, 247.769 243.977, 247.769L139.971, 247.769L139.971, 71.594z" fill="#727272" fill-opacity="1" class="Black" />
  </g>
</svg>