<?xml version='1.0' encoding='UTF-8'?>
<svg viewBox="-8.9993 -1.9999 32 32" xmlns="http://www.w3.org/2000/svg">
  <g transform="matrix(0.0547, 0, 0, 0.0547, 0, 0)">
    <path d="M224, 0L32, 0C14.33, 0 0, 14.33 0, 32L0, 480C0, 497.67 14.33, 512 32, 512L224, 512C241.67, 512 256, 497.67 256, 480L256, 32C256, 14.33 241.67, 0 224, 0zM32, 480L32, 32L224, 32L224, 96L168, 96C163.58, 96 160, 99.58 160, 104L160, 120C160, 124.42 163.58, 128 168, 128L224, 128L224, 192L168, 192C163.58, 192 160, 195.58 160, 200L160, 216C160, 220.42 163.58, 224 168, 224L224, 224L224, 288L168, 288C163.58, 288 160, 291.58 160, 296L160, 312C160, 316.42 163.58, 320 168, 320L224, 320L224, 384L168, 384C163.58, 384 160, 387.58 160, 392L160, 408C160, 412.42 163.58, 416 168, 416L224, 416L224, 480L32, 480z" fill="#727272" fill-opacity="1" class="Black" />
  </g>
</svg>