<?xml version='1.0' encoding='UTF-8'?>
<svg viewBox="-1.9999 -1.9999 32 32" xmlns="http://www.w3.org/2000/svg">
  <g transform="matrix(0.0547, 0, 0, 0.0547, 0, 0)">
    <path d="M501.65, 452.08L59.91, 10.35C52.76, 3.2 43.97, 0 35.35, 0C17.31, 0 0, 14.01 0, 35.17L0, 476.9C0, 496.29 15.71, 512 35.1, 512L476.83, 512C508.1, 512 523.76, 474.2 501.65, 452.08zM479.69, 478.09C478.9, 480 477.65, 480 476.83, 480L35.1, 480C33.39, 480 32, 478.61 32, 476.9L32, 35.17C32, 32.04 35.21, 32 35.36, 32C35.84, 32 36.39, 32.08 37.29, 32.98L111.08, 106.77L94.11, 123.74C90.99, 126.86 90.99, 131.93 94.11, 135.05L105.43, 146.36A7.98 7.98 0 0 0 111.09, 148.7C113.14, 148.7 115.18, 147.92 116.75, 146.36L133.72, 129.39L178.98, 174.65L162.01, 191.62C158.89, 194.74 158.89, 199.81 162.01, 202.93L173.32, 214.24A7.98 7.98 0 0 0 178.98, 216.58C181.03, 216.58 183.08, 215.8 184.64, 214.24L201.61, 197.27L246.87, 242.53L229.9, 259.5C226.78, 262.62 226.78, 267.69 229.9, 270.81L241.21, 282.12A7.98 7.98 0 0 0 246.87, 284.46C248.92, 284.46 250.97, 283.68 252.53, 282.12L269.5, 265.15L314.75, 310.4L297.78, 327.37C294.66, 330.49 294.66, 335.56 297.78, 338.68L309.09, 349.99C310.65, 351.55 312.7, 352.33 314.75, 352.33C316.8, 352.33 318.84, 351.55 320.41, 349.99L337.38, 333.02L382.63, 378.27L365.66, 395.24C362.54, 398.36 362.54, 403.43 365.66, 406.55L376.97, 417.86C378.53, 419.42 380.58, 420.2 382.63, 420.2C384.68, 420.2 386.72, 419.42 388.29, 417.86L405.26, 400.89L479.05, 474.68C479.6, 475.29 480.49, 476.18 479.69, 478.09zM123.31, 228.68C118.75, 224.12 111.81, 222.73 105.87, 225.21A15.999 15.999 0 0 0 96, 239.99L96, 399.99C96, 408.83 103.16, 415.99 112, 415.99L272, 415.99C278.47, 415.99 284.31, 412.1 286.78, 406.11A16.048 16.048 0 0 0 283.31, 388.67L123.31, 228.68zM128, 383.99L128, 278.62L233.37, 384L128, 384z" fill="#727272" fill-opacity="1" class="Black" />
  </g>
</svg>