<?xml version='1.0' encoding='UTF-8'?>
<svg viewBox="-1.995 -4.7975 31.9975 32" xmlns="http://www.w3.org/2000/svg">
  <g transform="matrix(0.9991, 0, 0, 0.9991, 0, 0)">
    <g transform="matrix(0.0438, 0, 0, 0.0438, 0, 0)">
      <path d="M635.7, 165.8L556.1, 27.9C550.2, 17.7 539.5, 12 528.5, 12C523.1, 12 517.6, 13.4 512.6, 16.3L15.9, 302.8C0.7, 311.5 -4.5, 331 4.3, 346.2L83.9, 484C89.8, 494.2 100.5, 499.9 111.5, 499.9C116.9, 499.9 122.4, 498.5 127.4, 495.6L624, 209.1C639.3, 200.5 644.5, 181 635.7, 165.8zM111.5, 468.2L31.9, 330.3L100.9, 290.5L144.7, 366.3C146.9, 370.1 151.8, 371.4 155.6, 369.2L169.4, 361.2C173.2, 359 174.5, 354.1 172.3, 350.3L128.5, 274.5L183.7, 242.7L211.6, 290.9C213.8, 294.7 218.7, 296 222.5, 293.8L236.3, 285.8C240.1, 283.6 241.4, 278.7 239.2, 274.9L211.3, 226.7L266.5, 194.9L310.3, 270.7C312.5, 274.5 317.4, 275.8 321.2, 273.6L335, 265.6C338.8, 263.4 340.1, 258.5 337.9, 254.7L294, 179.1L349.2, 147.3L377.1, 195.5C379.3, 199.3 384.2, 200.6 388, 198.4L401.8, 190.4C405.6, 188.2 406.9, 183.3 404.7, 179.5L376.8, 131.3L432, 99.5L475.8, 175.3C478, 179.1 482.9, 180.4 486.7, 178.2L500.5, 170.2C504.3, 168 505.6, 163.1 503.4, 159.3L459.6, 83.5L528.6, 43.7L608.2, 181.5L111.5, 468.2z" fill="#727272" fill-opacity="1" class="Black" />
    </g>
  </g>
</svg>