<?xml version='1.0' encoding='UTF-8'?>
<svg viewBox="-3.7495 -2 32 32" xmlns="http://www.w3.org/2000/svg">
  <g transform="matrix(0.0547, 0, 0, 0.0547, 0, 0)">
    <path d="M396, 216L381.47, 216L372.43, 188.88C364.32, 164.57 348.25, 144.88 327.93, 130.84C347, 117.91 360, 96.73 360, 72C360, 32.3 327.7, 0 288, 0C248.3, 0 216, 32.3 216, 72C216, 80.34 217.56, 88.28 220.2, 95.72C211.58, 93.74 202.83, 92.5 194.07, 92.5C173.52, 92.5 153.27, 98.03 135.43, 108.5L89.24, 132.57C64.7, 147.31 56.7, 179.3 71.4, 203.88C80.79, 219.5 97.88, 229.15 116.03, 229.15C125.01, 229.15 133.85, 226.82 141.68, 222.39L160.63, 212.54L101.75, 344L52, 344C23.33, 344 0, 367.33 0, 396C0, 424.67 23.33, 448 52, 448L114.91, 448C148.56, 448 178.86, 428.01 192.11, 397.08L211.43, 357.34L255.13, 376.97L235.49, 445.71C227.62, 473.29 243.64, 502.13 271.2, 510C276, 511.34 280.75, 512 285.51, 512C308.58, 512 329.13, 496.5 335.49, 474.31L359.89, 388.91C367, 364.05 361.91, 337.99 347.88, 317.79C354.08, 319.24 360.51, 320 367.08, 320L396, 320C424.67, 320 448, 296.67 448, 268C448, 239.33 424.67, 216 396, 216zM288, 32C310.09, 32 328, 49.91 328, 72C328, 94.09 310.09, 112 288, 112C265.91, 112 248, 94.09 248, 72C248, 49.91 265.91, 32 288, 32zM162.69, 384.48A51.915 51.915 0 0 1 114.91, 416L52, 416C40.95, 416 32, 407.05 32, 396C32, 384.95 40.95, 376 52, 376L114.91, 376C119.71, 376 124.03, 373.14 125.94, 368.72L152.66, 311.84C159.56, 324.56 169.73, 335.41 182.64, 343.27L162.69, 384.48zM396, 288L367.06, 288A51.94 51.94 0 0 1 317.73, 252.45L304.14, 211.65C301.31, 203.19 295.93, 196.22 289.14, 190.98L247.67, 294.67L300.45, 318.39C323.86, 328.94 336.17, 355.48 329.12, 380.12L304.73, 465.5C302.21, 474.28 294.21, 480 285.51, 480C283.68, 480 281.84, 479.75 279.99, 479.23C269.38, 476.2 263.22, 465.12 266.26, 454.5L290.65, 369.12C292.29, 363.43 289.43, 357.31 284.03, 354.87C284.03, 354.87 198.21, 315.83 195.32, 313.71C177.52, 300.62 169.9, 277.23 176.81, 255.83L214.56, 168.26C214.56, 168.26 197.66, 164.49 194.06, 164.49C186.18, 164.49 178.47, 166.63 171.56, 170.8L126.31, 194.32A20.137 20.137 0 0 1 116.02, 197.16C109.22, 197.16 102.61, 193.7 98.86, 187.46C93.19, 177.98 96.25, 165.69 105.72, 160.01L150.98, 136.49C164.22, 128.56 179.04, 124.5 194.08, 124.5C200.91, 124.5 207.8, 125.34 214.59, 127.03L282.78, 144.08C310.78, 151.06 332.95, 171.6 342.09, 199L355.68, 239.8C357.32, 244.71 361.9, 248 367.07, 248L396, 248C407.05, 248 416, 256.95 416, 268C416, 279.05 407.05, 288 396, 288z" fill="#727272" fill-opacity="1" class="Black" />
  </g>
</svg>