<?xml version='1.0' encoding='UTF-8'?>
<svg viewBox="-6 0 32 32" xmlns="http://www.w3.org/2000/svg">
  <g transform="matrix(0.0625, 0, 0, 0.0625, 0, 0)">
    <path d="M320, 60L320, 44C320, 37.373 314.627, 32 308, 32L12, 32C5.373, 32 0, 37.373 0, 44L0, 60C0, 66.627 5.373, 72 12, 72L84.614, 72C131.707, 72 165.92, 92.121 177.99, 128L12, 128C5.373, 128 0, 133.373 0, 140L0, 156C0, 162.627 5.373, 168 12, 168L182.387, 168C178.344, 218.107 140.538, 247.554 83.977, 247.554L12, 247.554C5.373, 247.554 0, 252.927 0, 259.554L0, 275.361C0, 278.346 1.113, 281.224 3.121, 283.433L178.253, 476.072A11.998 11.998 0 0 0 187.132, 480L208.716, 480C219.115, 480 224.592, 467.674 217.621, 459.957L62.306, 288L85.713, 288C162.932, 288 219.512, 241.421 223.737, 168L308, 168C314.627, 168 320, 162.627 320, 156L320, 140C320, 133.373 314.627, 128 308, 128L220.662, 128C215.702, 105.912 205.375, 87.031 190.844, 72L308, 72C314.627, 72 320, 66.627 320, 60z" fill="#727272" fill-opacity="1" class="Black" />
  </g>
</svg>