<?xml version='1.0' encoding='UTF-8'?>
<svg viewBox="-2 -4.7992 32 32" xmlns="http://www.w3.org/2000/svg">
  <g transform="matrix(0.9988, 0, 0, 0.9988, 0, 0)">
    <g transform="matrix(0.0438, 0, 0, 0.0438, 0, 0)">
      <path d="M304, 128L112, 128C103.2, 128 96, 135.2 96, 144L96, 240C96, 248.8 103.2, 256 112, 256L304, 256C312.8, 256 320, 248.8 320, 240L320, 144C320, 135.2 312.8, 128 304, 128zM288, 224L128, 224L128, 160L288, 160L288, 224zM576.1, 192L600, 192C622.1, 192 640, 174.1 640, 152C640, 85.7 586.3, 32 520, 32L384, 32L384, 16C384, 7.2 376.8, 0 368, 0L240, 0C231.2, 0 224, 7.2 224, 16L224, 32L64, 32C28.7, 32 0, 60.7 0, 96L0, 293.5C0, 310.5 6.7, 326.7 18.7, 338.7L88.4, 408.4C91.2, 411.2 94.5, 413 98.1, 414.3C96.8, 420 96, 425.9 96, 432C96, 476.2 131.8, 512 176, 512C220.2, 512 256, 476.2 256, 432C256, 426.5 255.4, 421.2 254.4, 416L417.6, 416C416.5, 421.2 416, 426.5 416, 432C416, 476.2 451.8, 512 496, 512C540.2, 512 576, 476.2 576, 432C576, 426.5 575.4, 421.2 574.4, 416L608, 416C625.6, 416 640, 401.6 640, 384L640, 282.4C640, 265.4 633.3, 249.2 621.3, 237.2L576.1, 192zM594.8, 256L416, 256L416, 192L517.5, 192C526.1, 192 534.2, 195.4 540.3, 201.4L594.8, 256zM176, 480C149.5, 480 128, 458.5 128, 432C128, 405.5 149.5, 384 176, 384C202.5, 384 224, 405.5 224, 432C224, 458.5 202.5, 480 176, 480zM384, 384L239.6, 384C225, 364.7 202, 352 176, 352C150, 352 127, 364.7 112.4, 384L109.3, 384L41.4, 316.1C35.4, 310.1 32, 302 32, 293.5L32, 96C32, 78.3 46.3, 64 64, 64L520, 64C568.5, 64 608, 103.5 608, 152C608, 156.4 604.4, 160 600, 160L384, 160L384, 384zM496, 480C469.5, 480 448, 458.5 448, 432C448, 405.5 469.5, 384 496, 384C522.5, 384 544, 405.5 544, 432C544, 458.5 522.5, 480 496, 480zM608, 384L559.6, 384C545, 364.7 522, 352 496, 352C470, 352 447, 364.7 432.4, 384L416, 384L416, 288L608, 288L608, 384z" fill="#727272" fill-opacity="1" class="Black" />
    </g>
  </g>
</svg>