<?xml version='1.0' encoding='UTF-8'?>
<svg viewBox="-2.0075 -2.0037 32 32" xmlns="http://www.w3.org/2000/svg">
  <g transform="matrix(0.0547, 0, 0, 0.0547, 0, 0)">
    <path d="M334.89, 121.63L378.61, 49.74C392.77, 28.47 377.53, 0 352, 0L160.15, 0C134.59, 0 119.35, 28.5 133.54, 49.76L177.11, 121.64C-9.27, 240.59 0.08, 392.36 0.08, 412C0.08, 467.23 49.19, 512 109.76, 512L402.26, 512C462.84, 512 511.94, 467.23 511.94, 412C511.94, 392.72 520.22, 240 334.89, 121.63zM160.15, 32L352, 32L302.87, 112L209.14, 112zM480, 412C480, 449.49 445.15, 480 402.31, 480L109.76, 480C66.92, 480 32.07, 449.49 32.07, 412L32.07, 408.64C31.14, 348.78 52.07, 235.64 200.98, 144L311.08, 144C459.64, 235.46 480.76, 348.94 480, 409z" fill="#727272" fill-opacity="1" class="Black" />
  </g>
</svg>