<?xml version='1.0' encoding='UTF-8'?>
<svg viewBox="-1.9999 -1.549 31.9975 32" xmlns="http://www.w3.org/2000/svg">
  <g transform="matrix(0.999, 0, 0, 0.999, 0, 0)">
    <g transform="matrix(0.0565, 0, 0, 0.0565, 0, 0)">
      <path d="M248, 8C111, 8 0, 119 0, 256C0, 393 111, 504 248, 504C385, 504 496, 393 496, 256C496, 119 385, 8 248, 8zM376, 429.6L376, 272C376, 263.2 368.8, 256 360, 256C351.2, 256 344, 263.2 344, 272L344, 449.2C315, 463.7 282.5, 472 248, 472C213.5, 472 181, 463.7 152, 449.2L152, 272C152, 263.2 144.8, 256 136, 256C127.2, 256 120, 263.2 120, 272L120, 429.6C66.7, 390.2 32, 327.2 32, 256C32, 136.9 128.9, 40 248, 40C367.1, 40 464, 136.9 464, 256C464, 327.2 429.3, 390.2 376, 429.6zM205.8, 234.5C210.2, 232.1 212.7, 227.1 211.9, 222.1C207.9, 196.9 177.7, 180 152.1, 180C126.5, 180 96.2, 196.9 92.3, 222.1C91.5, 227.1 94, 232.1 98.4, 234.5C102.8, 236.9 108.3, 236.3 112.1, 232.9L121.6, 224.4C136.4, 211.2 167.8, 211.2 182.6, 224.4L192.1, 232.9C194.6, 235.2 200, 237.7 205.8, 234.5zM344, 180C318.3, 180 288.1, 196.9 284.2, 222.1C283.4, 227.1 285.9, 232.1 290.3, 234.5C294.7, 236.9 300.2, 236.3 304, 232.9L313.5, 224.4C328.3, 211.2 359.7, 211.2 374.5, 224.4L384, 232.9C386.5, 235.1 392, 237.6 397.7, 234.5C402.1, 232.1 404.6, 227.1 403.8, 222.1C399.9, 196.9 369.7, 180 344, 180zM248, 288C217.1, 288 192, 316.7 192, 352C192, 387.3 217.1, 416 248, 416C278.9, 416 304, 387.3 304, 352C304, 316.7 278.9, 288 248, 288zM248, 384C235, 384 224, 369.3 224, 352C224, 334.7 235, 320 248, 320C261, 320 272, 334.7 272, 352C272, 369.3 261, 384 248, 384z" fill="#727272" fill-opacity="1" class="Black" />
    </g>
  </g>
</svg>