<?xml version='1.0' encoding='UTF-8'?>
<svg viewBox="-1.9999 -1.549 31.9975 32" xmlns="http://www.w3.org/2000/svg">
  <g transform="matrix(0.999, 0, 0, 0.999, 0, 0)">
    <g transform="matrix(0.0565, 0, 0, 0.0565, 0, 0)">
      <path d="M168, 240C185.7, 240 200, 225.7 200, 208C200, 190.3 185.7, 176 168, 176C150.3, 176 136, 190.3 136, 208C136, 225.7 150.3, 240 168, 240zM328, 240C345.7, 240 360, 225.7 360, 208C360, 190.3 345.7, 176 328, 176C310.3, 176 296, 190.3 296, 208C296, 225.7 310.3, 240 328, 240zM248, 8C111, 8 0, 119 0, 256C0, 393 111, 504 248, 504C385, 504 496, 393 496, 256C496, 119 385, 8 248, 8zM248, 472C128.9, 472 32, 375.1 32, 256C32, 136.9 128.9, 40 248, 40C367.1, 40 464, 136.9 464, 256C464, 375.1 367.1, 472 248, 472zM248, 320C236.8, 320 226, 321.7 215.3, 324.1C208.1, 311.5 199.2, 297.6 187.2, 281.7C178.2, 269.6 157.8, 269.7 148.8, 281.7C119.1, 321.3 104, 350.7 104, 369C104, 403.7 132.7, 432 168, 432C203.3, 432 232, 403.7 232, 369C232, 364.6 231, 359.5 229.3, 353.9C235.4, 352.7 241.6, 352 248, 352C282.9, 352 315.8, 367.4 338.2, 394.2C343.5, 400.6 353.6, 402.2 360.7, 396.2C367.5, 390.5 368.4, 380.4 362.7, 373.7C334.2, 339.6 292.4, 320 248, 320zM168, 400C150.3, 400 136, 386.1 136, 369C136, 361.3 146, 340.2 168, 309.5C190, 340.2 200, 361.3 200, 369C200, 386.1 185.7, 400 168, 400z" fill="#727272" fill-opacity="1" class="Black" />
    </g>
  </g>
</svg>