<?xml version='1.0' encoding='UTF-8'?>
<svg viewBox="-2 -2 32 32" xmlns="http://www.w3.org/2000/svg">
  <g transform="matrix(0.0547, 0, 0, 0.0547, 0, 0)">
    <path d="M495.82, 288L500.82, 288A110.13 110.13 0 0 0 512, 240C512, 206.84 497.23, 177.31 474.25, 156.79C459, 103.33 410.38, 64 352, 64C348.37, 64 344.95, 64.77 341.39, 65.07C323.6, 26.74 285, 0 240, 0C195, 0 156.4, 26.74 138.61, 65.07C135.05, 64.77 131.61, 64 128, 64A128 128 0 0 0 0, 192C0, 230.58 17.43, 264.66 44.52, 288L16.18, 288C7, 288 -0.74, 295.72 0.06, 304.84C6.7, 381.21 58.18, 444.23 128, 468.69L128, 480A32.16 32.16 0 0 0 160.21, 512L352.46, 512C370.16, 512 384, 497.67 384, 480L384, 468.49C453.49, 443.87 505.32, 381 511.94, 304.84C512.74, 295.72 505, 288 495.82, 288zM480, 240A78.45 78.45 0 0 1 463.29, 288L336.71, 288A78.51 78.51 0 0 1 320, 240A80 80 0 0 1 480, 240zM32, 192C32, 156.87 55, 87.22 160, 96C187.87, 32.27 225.28, 32 240, 32C254.18, 32 292, 32 320, 96C355.07, 93.07 396.19, 94.9 426, 131.35A110.79 110.79 0 0 0 400, 128A112.12 112.12 0 0 0 288, 240A110.27 110.27 0 0 0 299.09, 288L256, 288L256, 104A8 8 0 0 0 248, 96L232, 96A8 8 0 0 0 224, 104L224, 265.37L113, 154.37A8 8 0 0 0 101.69, 154.37L90.34, 165.66A8 8 0 0 0 90.34, 176.97L201.34, 287.97L128, 287.97A96.11 96.11 0 0 1 32, 192zM373.79, 438.34L352, 445.89L352, 480L160, 480L160, 446L138.77, 438.49C85.11, 419.7 45.74, 374.27 34.59, 320L477.41, 320C466.29, 374.07 427.14, 419.43 373.79, 438.34z" fill="#727272" fill-opacity="1" class="Black" />
  </g>
</svg>