<?xml version='1.0' encoding='UTF-8'?>
<svg viewBox="-1.9999 -1.9974 32 31.9975" xmlns="http://www.w3.org/2000/svg">
  <g transform="matrix(0.0547, 0, 0, 0.0547, 0, 0)">
    <path d="M480, 32L32, 32A32 32 0 0 0 0, 64L0, 160A32 32 0 0 0 32, 192L480, 192A32 32 0 0 0 512, 160L512, 64A32 32 0 0 0 480, 32zM480, 160L32, 160L32, 64L480, 64zM480, 320L32, 320A32 32 0 0 0 0, 352L0, 448A32 32 0 0 0 32, 480L480, 480A32 32 0 0 0 512, 448L512, 352A32 32 0 0 0 480, 320zM395.15, 352L352, 380.77L308.85, 352zM480, 448L32, 448L32, 352L251.16, 352L343.16, 413.32A16 16 0 0 0 360.92, 413.32L452.92, 352L480, 352zM504.16, 255.81C481.16, 254.7 469.07, 248.62 455.22, 241.69C443.13, 235.64 387.12, 204.57 313.03, 241.69C248.88, 273.83 200.48, 242.27 199.31, 241.69C187.21, 235.63 131.13, 204.57 56.91, 241.69C43.03, 248.61 30.91, 254.69 7.84, 255.82A8.08 8.08 0 0 0 0, 263.82L0, 279.82A8 8 0 0 0 8.29, 287.82C38.81, 286.5 55.96, 277.94 71.22, 270.31C72.39, 269.73 120.71, 238.17 185, 270.31C259.14, 307.38 315.06, 276.46 327.34, 270.31C391.49, 238.17 439.74, 269.73 440.91, 270.31C456.14, 277.93 473.25, 286.5 503.71, 287.82A8 8 0 0 0 512, 279.82L512, 263.82A8.1 8.1 0 0 0 504.16, 255.81z" fill="#727272" fill-opacity="1" class="Black" />
  </g>
</svg>