<?xml version='1.0' encoding='UTF-8'?>
<svg viewBox="-1.9963 -2 31.9975 32" xmlns="http://www.w3.org/2000/svg">
  <g transform="matrix(0.0547, 0, 0, 0.0547, 0, 0)">
    <path d="M212.6, 322L248.2, 286.4C250.8, 287.1 253.2, 288 256, 288C273.7, 288 288, 273.7 288, 256C288, 238.3 273.7, 224 256, 224C238.3, 224 224, 238.3 224, 256C224, 258.8 224.9, 261.2 225.6, 263.8L190, 299.4L56, 165.4C52.4, 161.8 47.6, 160 42.9, 160C36.8, 160 30.8, 163 27.7, 168.9C-19.7, 257.1 -6.2, 369.4 68.2, 443.8C113.7, 489.3 173.3, 512 232.8, 512C270.8, 512 308.8, 502.8 343.1, 484.3C353.5, 478.7 354.9, 464.3 346.6, 455.9L212.6, 322zM232.8, 480C179.2, 480 128.7, 459.1 90.8, 421.2C33.3, 363.7 16.7, 276.1 47.4, 202L310, 464.6A201.43 201.43 0 0 1 232.8, 480zM200.2, 96C195.7, 95.8 192, 99.6 192, 104.1L192, 120.1C192, 124.4 195.5, 127.9 199.8, 128.1C299.7, 132.1 380.4, 212.3 384, 312.1C384.2, 316.4 387.6, 319.9 392, 319.9L407.8, 319.9C412.3, 319.9 416, 316.2 415.9, 311.7C411.7, 194.7 317.2, 100.3 200.2, 96zM200.2, 0C195.7, -0.1 192, 3.6 192, 8.1L192, 24C192, 28.4 195.5, 31.8 199.9, 31.9C352.7, 35.7 475.9, 159.2 480, 312C480.1, 316.4 483.6, 319.9 487.9, 319.9L503.9, 319.9C508.4, 319.9 512.1, 316.2 512, 311.7C507.7, 141.8 370.2, 4.3 200.2, 0z" fill="#727272" fill-opacity="1" class="Black" />
  </g>
</svg>