<?xml version='1.0' encoding='UTF-8'?>
<svg viewBox="-1.9999 -1.9999 32 32" xmlns="http://www.w3.org/2000/svg">
  <g transform="matrix(0.0547, 0, 0, 0.0547, 0, 0)">
    <path d="M455.72, 72.83L470.64, 28.08A21.34 21.34 0 0 0 450.4, 0L381.6, 0A21.34 21.34 0 0 0 361.36, 28.08L376.28, 72.83A95.83 95.83 0 0 0 320, 160C320, 248.22 248.22, 320 160, 320A95.83 95.83 0 0 0 72.83, 376.28L28.08, 361.36C10.49, 355.5 0, 371.25 0, 381.6L0, 450.4C0, 460.04 10.48, 476.5 28.08, 470.64L72.83, 455.72A95.83 95.83 0 0 0 160, 512C354.09, 512 512, 354.09 512, 160A95.83 95.83 0 0 0 455.72, 72.83zM64, 424.94L32, 435.6L32, 396.4L64, 407.06zM435.6, 32L424.94, 64L407.06, 64L396.4, 32zM160, 480A64 64 0 0 1 160, 352C265.87, 352 352, 265.87 352, 160A64 64 0 0 1 480, 160C480, 336.45 336.45, 480 160, 480zM400, 160A16 16 0 0 0 384, 176C384, 290.69 290.69, 384 176, 384A16 16 0 0 0 176, 416C308.34, 416 416, 308.34 416, 176A16 16 0 0 0 400, 160z" fill="#727272" fill-opacity="1" class="Black" />
  </g>
</svg>