<?xml version='1.0' encoding='UTF-8'?>
<svg viewBox="-2 0 32 32" xmlns="http://www.w3.org/2000/svg">
  <g transform="matrix(0.0625, 0, 0, 0.0625, 0, 0)">
    <path d="M433.941, 129.941L350.059, 46.059A48 48 0 0 0 316.118, 32L48, 32C21.49, 32 0, 53.49 0, 80L0, 432C0, 458.51 21.49, 480 48, 480L400, 480C426.51, 480 448, 458.51 448, 432L448, 163.882A48 48 0 0 0 433.941, 129.941zM288, 64L288, 160L96, 160L96, 64L288, 64zM416, 432C416, 440.822 408.822, 448 400, 448L48, 448C39.178, 448 32, 440.822 32, 432L32, 80C32, 71.178 39.178, 64 48, 64L64, 64L64, 168C64, 181.255 74.745, 192 88, 192L296, 192C309.255, 192 320, 181.255 320, 168L320, 64.491A15.888 15.888 0 0 1 327.432, 68.686L411.314, 152.568A15.895 15.895 0 0 1 416, 163.882L416, 432zM224, 232C175.477, 232 136, 271.477 136, 320C136, 368.523 175.477, 408 224, 408C272.523, 408 312, 368.523 312, 320C312, 271.477 272.523, 232 224, 232zM224, 376C193.121, 376 168, 350.879 168, 320C168, 289.121 193.121, 264 224, 264C254.879, 264 280, 289.121 280, 320C280, 350.879 254.879, 376 224, 376z" fill="#727272" fill-opacity="1" class="Black" />
  </g>
</svg>