<?xml version='1.0' encoding='UTF-8'?>
<svg viewBox="-2 -4.7992 32 32" xmlns="http://www.w3.org/2000/svg">
  <g transform="matrix(0.9988, 0, 0, 0.9988, 0, 0)">
    <g transform="matrix(0.0438, 0, 0, 0.0438, 0, 0)">
      <path d="M143.93, 168.1C125.93, 141.34 110.66, 118.69 109.82, 117.53L99.55, 103.31L89.49, 117.75C69.64, 146.25 56.67, 167 56.21, 192L88.32, 192C88.64, 182.39 92.24, 172.87 99.92, 160C106.11, 169.18 113.65, 180.4 121.44, 192L192, 192L160, 144zM37.41, 192L37.27, 191.56C33.67, 180.12 32, 170.38 32, 160.92C32, 137.1 56, 89.37 96.15, 45.29A392.69 392.69 0 0 1 126.86, 82.29L151.25, 115.89L177.53, 83.76Q180.78, 79.76 184.15, 75.92C209.28, 108.45 224, 146.35 224, 160.92C224, 170.38 222.32, 180.12 218.73, 191.56L218.59, 192L251.54, 192C254.09, 182 256, 171.75 256, 160.92C256, 130.47 226.28, 67.69 184.88, 29.26A343 343 0 0 0 152.76, 63.53A442.25 442.25 0 0 0 96, 0C39.85, 52.1 0, 120 0, 160.92C0, 171.75 1.91, 182 4.46, 192zM120, 304A24 24 0 1 0 144, 328A24 24 0 0 0 120, 304zM635.28, 132.73L592, 73.37A32 32 0 0 0 569.33, 64L522.5, 64A64 64 0 0 0 477.25, 82.74L447.49, 110.36L424.4, 87.26A8 8 0 0 0 413.08, 87.26L401.77, 98.58A8 8 0 0 0 401.77, 109.89L424, 132.13L400.52, 153.91L379.13, 132.52A8 8 0 0 0 367.82, 132.52L356.5, 143.83A8 8 0 0 0 356.5, 155.15L377.05, 175.69L353.57, 197.47L333.88, 177.77A8 8 0 0 0 322.56, 177.77L311.25, 189.09A8 8 0 0 0 311.25, 200.4L330.1, 219.25L248, 296A25.41 25.41 0 0 1 208.24, 265L213.72, 256L232, 256A8 8 0 0 0 240, 248L240, 232A7.8 7.8 0 0 0 233, 224.43L233.27, 224L8, 224A8 8 0 0 0 0, 232L0, 248A8 8 0 0 0 8, 256L12.93, 256C6.08, 290.78 0, 329.24 0, 352C0, 422.24 57.33, 512 160, 512C254.44, 512 263.7, 476.22 536, 160L624, 160C638.22, 160 645.36, 142.81 635.28, 132.73zM536, 128L521.32, 128L511.74, 139.13C462.09, 196.79 421.17, 245.13 386.88, 285.66C234, 466.3 221, 480 160, 480C76.48, 480 32, 405.66 32, 352C32, 330.92 38.5, 291.18 45.6, 256L177.86, 256C168.86, 277.26 172.73, 301.92 189.43, 318.62A57 57 0 0 0 230, 335.44C245.33, 335.44 259.75, 329.44 269.73, 319.44L499.87, 105.37A31.83 31.83 0 0 1 522.5, 96L568.86, 96L592.23, 128z" fill="#727272" fill-opacity="1" class="Black" />
    </g>
  </g>
</svg>