<?xml version='1.0' encoding='UTF-8'?>
<svg viewBox="-2 -4.7992 32 32" xmlns="http://www.w3.org/2000/svg">
  <g transform="matrix(0.9988, 0, 0, 0.9988, 0, 0)">
    <g transform="matrix(0.0438, 0, 0, 0.0438, 0, 0)">
      <path d="M344, 480L264, 480C259.58, 480 256, 483.58 256, 488L256, 504C256, 508.42 259.58, 512 264, 512L344, 512C348.42, 512 352, 508.42 352, 504L352, 488C352, 483.58 348.42, 480 344, 480zM488, 480L408, 480C403.58, 480 400, 483.58 400, 488L400, 504C400, 508.42 403.58, 512 408, 512L488, 512C492.42, 512 496, 508.42 496, 504L496, 488C496, 483.58 492.42, 480 488, 480zM632, 480L552, 480C547.58, 480 544, 483.58 544, 488L544, 504C544, 508.42 547.58, 512 552, 512L632, 512C636.42, 512 640, 508.42 640, 504L640, 488C640, 483.58 636.42, 480 632, 480zM511.45, 13.17C498.87, 4.19 484.31, 0 469.7, 0C446.64, 0 423.43, 10.44 407.57, 28.97L183.68, 290.6C177.89, 297.37 178.78, 305.94 183.18, 312.17L0, 512L0.38, 512C101.75, 512 198.76, 477.88 273.34, 417.32C273.57, 417.13 273.8, 416.95 274.03, 416.76C304.42, 391.86 321.19, 356.8 326.25, 320.01L343.82, 320.01C354.23, 320.01 364.12, 315.46 370.9, 307.54L525.37, 127.05C554.67, 92.82 548.96, 39.92 511.45, 13.17zM253.17, 392.47C203.68, 432.66 143.91, 459.99 79.71, 472.4L219.41, 320L294.62, 320C289.68, 348.79 275.29, 374.35 253.17, 392.47zM501.05, 106.24L346.58, 286.73C345.89, 287.54 344.88, 288.01 343.81, 288.01L228.02, 288.01L431.88, 49.78C441.41, 38.64 455.54, 32 469.7, 32C478.24, 32 486.24, 34.5 492.87, 39.22C503.41, 46.74 510.09, 57.97 511.66, 70.84C513.22, 83.63 509.36, 96.54 501.05, 106.24z" fill="#727272" fill-opacity="1" class="Black" />
    </g>
  </g>
</svg>