<?xml version='1.0' encoding='UTF-8'?>
<svg viewBox="-1.9999 -4.7979 32 31.9975" xmlns="http://www.w3.org/2000/svg">
  <g transform="matrix(1.0011, 0, 0, 1.0011, 0, 0)">
    <g transform="matrix(0.0437, 0, 0, 0.0437, 0, 0)">
      <path d="M80, 408L112, 408A8 8 0 0 0 120, 400L120, 368A8 8 0 0 0 112, 360L80, 360A8 8 0 0 0 72, 368L72, 400A8 8 0 0 0 80, 408zM176, 408L208, 408A8 8 0 0 0 216, 400L216, 368A8 8 0 0 0 208, 360L176, 360A8 8 0 0 0 168, 368L168, 400A8 8 0 0 0 176, 408zM620.69, 269.12L17.52, 32.66A8 8 0 0 0 7, 36.83L0.66, 51.52A8 8 0 0 0 4.83, 62L581.22, 288L32, 288A32 32 0 0 0 0, 320L0, 448A32 32 0 0 0 32, 480L608, 480A32 32 0 0 0 640, 448L640, 298.5A32.08 32.08 0 0 0 620.69, 269.12zM608, 384L608, 448L32, 448L32, 320L608, 320z" fill="#727272" fill-opacity="1" class="Black" />
    </g>
  </g>
</svg>