<?xml version='1.0' encoding='UTF-8'?>
<svg viewBox="-1.9998 -3.5563 31.9975 32" xmlns="http://www.w3.org/2000/svg">
  <g transform="matrix(0.0486, 0, 0, 0.0486, 0, 0)">
    <path d="M400, 96L16, 96C7.2, 96 0, 103.2 0, 112L0, 281.4C0, 285.6 1.7, 289.7 4.7, 292.7L32, 320L32, 464C32, 490.5 53.5, 512 80, 512L336, 512C362.5, 512 384, 490.5 384, 464L384, 320L411.3, 292.7C414.3, 289.7 416, 285.6 416, 281.4L416, 112C416, 103.2 408.8, 96 400, 96zM384, 274.7L352, 306.7L352, 464C352, 472.8 344.8, 480 336, 480L80, 480C71.2, 480 64, 472.8 64, 464L64, 306.7L54.6, 297.3L32, 274.7L32, 128L384, 128L384, 274.7zM112, 448L304, 448C312.8, 448 320, 440.8 320, 432L320, 176C320, 167.2 312.8, 160 304, 160L112, 160C103.2, 160 96, 167.2 96, 176L96, 432C96, 440.8 103.2, 448 112, 448zM128, 192L288, 192L288, 416L128, 416L128, 192zM320, 8C320, 3.6 316.4, 0 312, 0L296, 0C291.6, 0 288, 3.6 288, 8L288, 64L320, 64L320, 8zM256, 8C256, 3.6 252.4, 0 248, 0L200, 0C195.6, 0 192, 3.6 192, 8L192, 64L256, 64L256, 8zM568, 0L520, 0C515.6, 0 512, 3.6 512, 8L512, 280C512, 284.4 515.6, 288 520, 288L568, 288C572.4, 288 576, 284.4 576, 280L576, 8C576, 3.6 572.4, 0 568, 0zM472, 0L456, 0C451.6, 0 448, 3.6 448, 8L448, 280C448, 284.4 451.6, 288 456, 288L472, 288C476.4, 288 480, 284.4 480, 280L480, 8C480, 3.6 476.4, 0 472, 0zM408, 0L360, 0C355.6, 0 352, 3.6 352, 8L352, 64L416, 64L416, 8C416, 3.6 412.4, 0 408, 0z" fill="#727272" fill-opacity="1" class="Black" />
  </g>
</svg>