<?xml version='1.0' encoding='UTF-8'?>
<svg viewBox="-1.9998 -3.5563 31.9975 32" xmlns="http://www.w3.org/2000/svg">
  <g transform="matrix(0.0486, 0, 0, 0.0486, 0, 0)">
    <path d="M400, 96L16, 96C7.2, 96 0, 103.2 0, 112L0, 281.4C0, 285.6 1.7, 289.7 4.7, 292.7L32, 320L32, 464C32, 490.5 53.5, 512 80, 512L336, 512C362.5, 512 384, 490.5 384, 464L384, 320L411.3, 292.7C414.3, 289.7 416, 285.6 416, 281.4L416, 112C416, 103.2 408.8, 96 400, 96zM384, 274.7L352, 306.7L352, 464C352, 472.8 344.8, 480 336, 480L80, 480C71.2, 480 64, 472.8 64, 464L64, 306.7L54.6, 297.3L32, 274.7L32, 128L384, 128L384, 274.7zM96, 256L320, 256C328.8, 256 336, 248.8 336, 240L336, 176C336, 167.2 328.8, 160 320, 160L96, 160C87.2, 160 80, 167.2 80, 176L80, 240C80, 248.8 87.2, 256 96, 256zM112, 192L304, 192L304, 224L112, 224L112, 192zM184, 320L104, 320C99.6, 320 96, 323.6 96, 328L96, 344C96, 348.4 99.6, 352 104, 352L184, 352C188.4, 352 192, 348.4 192, 344L192, 328C192, 323.6 188.4, 320 184, 320zM312, 320L232, 320C227.6, 320 224, 323.6 224, 328L224, 344C224, 348.4 227.6, 352 232, 352L312, 352C316.4, 352 320, 348.4 320, 344L320, 328C320, 323.6 316.4, 320 312, 320zM184, 384L104, 384C99.6, 384 96, 387.6 96, 392L96, 408C96, 412.4 99.6, 416 104, 416L184, 416C188.4, 416 192, 412.4 192, 408L192, 392C192, 387.6 188.4, 384 184, 384zM312, 384L232, 384C227.6, 384 224, 387.6 224, 392L224, 408C224, 412.4 227.6, 416 232, 416L312, 416C316.4, 416 320, 412.4 320, 408L320, 392C320, 387.6 316.4, 384 312, 384zM256, 8C256, 3.6 252.4, 0 248, 0L200, 0C195.6, 0 192, 3.6 192, 8L192, 64L256, 64L256, 8zM320, 8C320, 3.6 316.4, 0 312, 0L296, 0C291.6, 0 288, 3.6 288, 8L288, 64L320, 64L320, 8zM568, 0L520, 0C515.6, 0 512, 3.6 512, 8L512, 280C512, 284.4 515.6, 288 520, 288L568, 288C572.4, 288 576, 284.4 576, 280L576, 8C576, 3.6 572.4, 0 568, 0zM472, 0L456, 0C451.6, 0 448, 3.6 448, 8L448, 280C448, 284.4 451.6, 288 456, 288L472, 288C476.4, 288 480, 284.4 480, 280L480, 8C480, 3.6 476.4, 0 472, 0zM408, 0L360, 0C355.6, 0 352, 3.6 352, 8L352, 64L416, 64L416, 8C416, 3.6 412.4, 0 408, 0z" fill="#727272" fill-opacity="1" class="Black" />
  </g>
</svg>