<?xml version='1.0' encoding='UTF-8'?>
<svg viewBox="-2.0013 -2 32 32" xmlns="http://www.w3.org/2000/svg">
  <g transform="matrix(0.0547, 0, 0, 0.0547, 0, 0)">
    <path d="M509.7, 395.7L440.9, 327.1L366.5, 253L390.6, 228.3C439.2, 174.6 403.6, 115 402.1, 112.5L358.5, 39.4C354.2, 32.2 348.6, 26.1 341.7, 21.4C320.1, 6.9 288.3, 0 256.6, 0L255.4, 0C223.7, 0 191.8, 6.9 170.2, 21.5C163.3, 26.2 157.7, 32.3 153.4, 39.5L109.8, 112.6C108.3, 115.1 72.7, 174.7 121.3, 228.4L145.4, 253.1L71.1, 327.3L2.3, 395.7C-0.8, 398.8 -0.8, 403.9 2.3, 407L13.6, 418.3C16.7, 421.4 21.8, 421.4 24.9, 418.3L93.7, 349.7L116.3, 372.3L47.5, 440.9C44.4, 444 44.4, 449.1 47.5, 452.2L58.8, 463.5C61.9, 466.6 67, 466.6 70.1, 463.5L138.9, 394.9L161.4, 417.4L92.7, 487.1C89.6, 490.2 89.6, 495.3 92.7, 498.4L104, 509.7C107.1, 512.8 112.2, 512.8 115.3, 509.7L256, 366L396.5, 509.7C399.6, 512.8 404.7, 512.8 407.8, 509.7L419.1, 498.4C422.2, 495.3 422.2, 490.2 419.1, 487.1L350.4, 417.4L372.9, 394.9L441.7, 463.5C444.8, 466.6 449.9, 466.6 453, 463.5L464.3, 452.2C467.4, 449.1 467.4, 444 464.3, 440.9L395.5, 372.3L418.1, 349.7L486.9, 418.3C490, 421.4 495.1, 421.4 498.2, 418.3L509.5, 407C512.8, 403.9 512.8, 398.9 509.7, 395.7zM184, 394.6L116.5, 327.2L167.9, 275.9L233.9, 343.4L184, 394.6zM328, 394.6L145.1, 206.8C113.2, 171.6 134.7, 133.2 137.4, 128.9L181, 55.9C192, 37.4 233.3, 32 255.4, 32L256.6, 32C278.7, 32 320, 37.4 331.1, 55.8L374.7, 128.8C377.3, 133.1 398.8, 171.5 367, 206.7L344, 230.3L278.7, 165.1L320.5, 123.4C328.7, 115.2 331.8, 103.2 328.7, 92C325.5, 80.8 316.5, 72.3 305.2, 69.6C287.3, 65.4 271, 64.3 256.1, 64.4C241.3, 64.4 225, 65.4 207, 69.6C195.7, 72.2 186.7, 80.8 183.5, 92C180.3, 103.2 183.4, 115.2 191.7, 123.4L395.6, 327.1L328, 394.6zM214.2, 100.9C225.6, 98.2 240, 96.4 256, 96.3C272, 96.3 286.4, 98.2 297.8, 100.9L256, 142.6L214.2, 100.9z" fill="#727272" fill-opacity="1" class="Black" />
  </g>
</svg>