<?xml version='1.0' encoding='UTF-8'?>
<svg viewBox="-3.7495 -2 32 32" xmlns="http://www.w3.org/2000/svg">
  <g transform="matrix(0.0547, 0, 0, 0.0547, 0, 0)">
    <path d="M256, 120C264.8, 120 272, 112.8 272, 104C272, 95.2 264.8, 88 256, 88C247.2, 88 240, 95.2 240, 104C240, 112.8 247.2, 120 256, 120zM192, 104C200.8, 104 208, 96.8 208, 88C208, 79.2 200.8, 72 192, 72C183.2, 72 176, 79.2 176, 88C176, 96.8 183.2, 104 192, 104zM445.7, 186.3L419.3, 160L437.6, 141.7C442.6, 136.7 439.1, 128 431.9, 128L320, 128L320, 96C320, 43 277, 0 224, 0C171, 0 128, 43 128, 96L128, 128L16, 128C8.9, 128 5.3, 136.6 10.3, 141.7L28.7, 160L2.3, 186.3C-0.8, 189.4 -0.8, 194.5 2.3, 197.6L28.7, 224L10.4, 242.3C5.4, 247.3 8.9, 256 16.1, 256L122.2, 256L96.2, 397.3C94.1, 410 107.3, 420.2 119.1, 414.2L151.8, 390C160.9, 383.2 168.8, 388.7 175.9, 392.5L175.9, 496C175.9, 504.8 183.1, 512 191.9, 512L255.9, 512C264.7, 512 271.9, 504.8 271.9, 496L271.9, 392.5C279.5, 388.5 287, 383.3 296, 390L328.7, 414.2C340.6, 420.2 353.7, 409.9 351.6, 397.3L325.9, 256L432, 256C439.1, 256 442.7, 247.4 437.7, 242.3L419.3, 224L445.6, 197.7C448.8, 194.5 448.8, 189.5 445.7, 186.3zM160, 96C160, 60.7 188.7, 32 224, 32C259.3, 32 288, 60.7 288, 96L288, 128C288, 145.6 273.6, 160 256, 160L192, 160C174.4, 160 160, 145.6 160, 128zM240, 480L208, 480L208, 409.6C217.2, 414.5 219.2, 416.1 224, 416.1C228.7, 416.1 230.5, 414.6 240, 409.6zM374.1, 224L287.5, 224L312.9, 362.7C305.1, 357.6 296, 354.9 286.6, 354.9C278.7, 354.9 270.9, 356.9 264, 360.5L224, 381.8L184, 360.5C177, 356.8 169.3, 354.9 161.4, 354.9C152, 354.9 142.9, 357.6 135.1, 362.7L160.5, 224L73.9, 224L41.9, 192L73.9, 160L136.8, 160C147.9, 179 168.3, 192 191.9, 192L255.9, 192C279.5, 192 299.9, 179 311, 160L374, 160L406, 192z" fill="#727272" fill-opacity="1" class="Black" />
  </g>
</svg>