<?xml version='1.0' encoding='UTF-8'?>
<svg viewBox="-1.9999 -4.7991 32 31.9975" xmlns="http://www.w3.org/2000/svg">
  <g transform="matrix(1.0011, 0, 0, 1.0011, 0, 0)">
    <g transform="matrix(0.0437, 0, 0, 0.0437, 0, 0)">
      <path d="M352, 192L336, 192L336, 160C336, 155.58 332.42, 152 328, 152L312, 152C307.58, 152 304, 155.58 304, 160L304, 216C304, 220.42 307.58, 224 312, 224L352, 224C356.42, 224 360, 220.42 360, 216L360, 200C360, 195.58 356.42, 192 352, 192zM368, 320L272, 320C245.49, 320 224, 341.49 224, 368L224, 504C224, 508.42 227.58, 512 232, 512L248, 512C252.42, 512 256, 508.42 256, 504L256, 368C256, 359.16 263.16, 352 272, 352L368, 352C376.84, 352 384, 359.16 384, 368L384, 504C384, 508.42 387.58, 512 392, 512L408, 512C412.42, 512 416, 508.42 416, 504L416, 368C416, 341.49 394.51, 320 368, 320zM608, 192L512, 192L512, 138.66C512, 127.96 506.65, 117.97 497.75, 112.04L337.75, 5.37C332.38, 1.79 326.19, 0 320, 0C313.81, 0 307.62, 1.79 302.25, 5.37L142.25, 112.04A32.02 32.02 0 0 0 128, 138.67L128, 192L32, 192C14.33, 192 0, 206.33 0, 224L0, 504C0, 508.42 3.58, 512 8, 512L24, 512C28.42, 512 32, 508.42 32, 504L32, 224L128, 224L128, 504C128, 508.42 131.58, 512 136, 512L152, 512C156.42, 512 160, 508.42 160, 504L160, 138.67L320, 32L480, 138.67L480, 504C480, 508.42 483.58, 512 488, 512L504, 512C508.42, 512 512, 508.42 512, 504L512, 224L608, 224L608, 504C608, 508.42 611.58, 512 616, 512L632, 512C636.42, 512 640, 508.42 640, 504L640, 224C640, 206.33 625.67, 192 608, 192zM320, 96C267.06, 96 224, 139.06 224, 192C224, 244.94 267.06, 288 320, 288C372.94, 288 416, 244.94 416, 192C416, 139.06 372.94, 96 320, 96zM320, 256C284.72, 256 256, 227.3 256, 192C256, 156.7 284.72, 128 320, 128C355.28, 128 384, 156.7 384, 192C384, 227.3 355.28, 256 320, 256z" fill="#727272" fill-opacity="1" class="Black" />
    </g>
  </g>
</svg>