<?xml version='1.0' encoding='UTF-8'?>
<svg viewBox="-2 -4.7992 32 32" xmlns="http://www.w3.org/2000/svg">
  <g transform="matrix(0.9988, 0, 0, 0.9988, 0, 0)">
    <g transform="matrix(0.0438, 0, 0, 0.0438, 0, 0)">
      <path d="M608, 352L544, 352L544, 112C544, 50.25 493.75, 0 432, 0L80, 0C35.88, 0 0, 35.89 0, 80L0, 160C0, 177.64 14.34, 192 32, 192L128, 192L128, 416C128, 467.11 168.25, 508.62 218.66, 511.46L218.66, 512L530.66, 512C590.94, 512 640, 462.95 640, 402.67L640, 384C640, 366.36 625.66, 352 608, 352zM128, 160L32, 160L32, 80C32, 53.53 53.53, 32 80, 32C106.47, 32 128, 53.53 128, 80L128, 160zM288, 416C288, 451.3 259.28, 480 224, 480C188.72, 480 160, 451.3 160, 416L160, 80C160, 62 154.03, 45.38 143.97, 32L432, 32C476.12, 32 512, 67.89 512, 112L512, 352L320, 352C302.34, 352 288, 366.36 288, 384L288, 416zM608, 402.67C608, 445.31 573.31, 480 530.66, 480L295.03, 480C310.38, 462.98 320, 440.68 320, 416L320, 384L608, 384L608, 402.67z" fill="#727272" fill-opacity="1" class="Black" />
    </g>
  </g>
</svg>