<?xml version='1.0' encoding='UTF-8'?>
<svg viewBox="-1.9999 -1.549 31.9975 32" xmlns="http://www.w3.org/2000/svg">
  <g transform="matrix(0.999, 0, 0, 0.999, 0, 0)">
    <g transform="matrix(0.0565, 0, 0, 0.0565, 0, 0)">
      <path d="M248, 40C367.3, 40 464, 136.6 464, 256C464, 375.3 367.4, 472 248, 472C128.7, 472 32, 375.4 32, 256C32, 136.7 128.6, 40 248, 40M248, 8C111, 8 0, 119 0, 256C0, 393 111, 504 248, 504C385, 504 496, 393 496, 256C496, 119 385, 8 248, 8zM248, 224C265.6, 224 280, 238.4 280, 256C280, 273.6 265.6, 288 248, 288C230.4, 288 216, 273.6 216, 256C216, 238.4 230.4, 224 248, 224M248, 192C212.7, 192 184, 220.7 184, 256C184, 291.3 212.7, 320 248, 320C283.3, 320 312, 291.3 312, 256C312, 220.7 283.3, 192 248, 192z" fill="#727272" fill-opacity="1" class="Black" />
    </g>
  </g>
</svg>