<?xml version='1.0' encoding='UTF-8'?>
<svg viewBox="-2 -4.7992 32 32" xmlns="http://www.w3.org/2000/svg">
  <g transform="matrix(0.9988, 0, 0, 0.9988, 0, 0)">
    <g transform="matrix(0.0438, 0, 0, 0.0438, 0, 0)">
      <path d="M608, 0L338.84, 0C192, 0 64, 64 0, 224L560.18, 224L547.12, 288L392, 288A8 8 0 0 0 384, 296L384, 312A8 8 0 0 0 392, 320L540.6, 320L504.06, 499.1A8 8 0 0 0 510.26, 508.57L525.91, 511.83A7.68 7.68 0 0 0 527.55, 512A8 8 0 0 0 535.37, 505.63L639.22, 39A32 32 0 0 0 608, 0zM572.38, 192L50.4, 192C122.62, 61.06 244.73, 32 338.84, 32L608, 32z" fill="#727272" fill-opacity="1" class="Black" />
    </g>
  </g>
</svg>