<?xml version='1.0' encoding='UTF-8'?>
<svg viewBox="-2 -2 32 32" xmlns="http://www.w3.org/2000/svg">
  <g transform="matrix(0.0547, 0, 0, 0.0547, 0, 0)">
    <path d="M319.8, 204L319.8, 212C319.8, 218.6 314.4, 224 307.8, 224L223.8, 224L223.8, 308C223.8, 314.6 218.4, 320 211.8, 320L203.8, 320C197.2, 320 191.8, 314.6 191.8, 308L191.8, 224L107.8, 224C101.2, 224 95.8, 218.6 95.8, 212L95.8, 204C95.8, 197.4 101.2, 192 107.8, 192L191.8, 192L191.8, 108C191.8, 101.4 197.2, 96 203.8, 96L211.8, 96C218.4, 96 223.8, 101.4 223.8, 108L223.8, 192L307.8, 192C314.4, 192 319.8, 197.4 319.8, 204zM508.3, 497L497, 508.3C492.3, 513 484.7, 513 480, 508.3L351, 379.3C348.7, 377 347.5, 374 347.5, 370.8L347.5, 362.3C310.6, 395.7 261.7, 416 208, 416C93.8, 416 1.5, 324.9 0, 210.7C-1.5, 93.7 93.7, -1.5 210.7, 0C324.9, 1.5 416, 93.8 416, 208C416, 261.7 395.7, 310.6 362.3, 347.5L370.8, 347.5C374, 347.5 377, 348.8 379.3, 351L508.3, 480C513, 484.7 513, 492.3 508.3, 497zM384, 208C384, 110.7 305.3, 32 208, 32C110.7, 32 32, 110.7 32, 208C32, 305.3 110.7, 384 208, 384C305.3, 384 384, 305.3 384, 208z" fill="#727272" fill-opacity="1" class="Black" />
  </g>
</svg>