<?xml version='1.0' encoding='UTF-8'?>
<svg viewBox="-2 -1.9988 32 32" xmlns="http://www.w3.org/2000/svg">
  <g transform="matrix(0.0547, 0, 0, 0.0547, 0, 0)">
    <path d="M442.7, 32C346.8, 32 266.3, 111.4 245.5, 217.7C210.5, 145.1 144.8, 96 69.3, 96L0, 96L0, 112C0, 244.3 90.9, 352 202.7, 352L240, 352L240, 472C240, 476.4 243.6, 480 248, 480L264, 480C268.4, 480 272, 476.4 272, 472L272, 288L309.3, 288C421.1, 288 512, 180.3 512, 48L512, 32L442.7, 32zM202.7, 320C113, 320 39.2, 235.2 32.5, 128L69.3, 128C159, 128 232.7, 212.8 239.5, 320L202.7, 320zM309.3, 256L272.5, 256C279.2, 148.8 353, 64 442.7, 64L479.5, 64C472.8, 171.2 399, 256 309.3, 256z" fill="#727272" fill-opacity="1" class="Black" />
  </g>
</svg>