<?xml version='1.0' encoding='UTF-8'?>
<svg viewBox="-2 -2 32 32" xmlns="http://www.w3.org/2000/svg">
  <g transform="matrix(0.0547, 0, 0, 0.0547, 0, 0)">
    <path d="M464, 160L208, 160A48 48 0 0 0 160, 208L160, 464A48 48 0 0 0 208, 512L464, 512A48 48 0 0 0 512, 464L512, 208A48 48 0 0 0 464, 160zM480, 464A16 16 0 0 1 464, 480L208, 480A16 16 0 0 1 192, 464L192, 208A16 16 0 0 1 208, 192L464, 192A16 16 0 0 1 480, 208zM32, 304L32, 48A16 16 0 0 1 48, 32L304, 32A16 16 0 0 1 320, 48L320, 128L352, 128L352, 48A48 48 0 0 0 304, 0L48, 0A48 48 0 0 0 0, 48L0, 304A48 48 0 0 0 48, 352L128, 352L128, 320L48, 320A16 16 0 0 1 32, 304zM432, 224L240, 224A16 16 0 0 0 224, 240L224, 432A16 16 0 0 0 240, 448L432, 448A16 16 0 0 0 448, 432L448, 240A16 16 0 0 0 432, 224zM416, 416L256, 416L256, 256L416, 256z" fill="#727272" fill-opacity="1" class="Black" />
  </g>
</svg>