<?xml version='1.0' encoding='UTF-8'?>
<svg viewBox="-2 -1.9988 32 32" xmlns="http://www.w3.org/2000/svg">
  <g transform="matrix(0.0547, 0, 0, 0.0547, 0, 0)">
    <path d="M376, 256C376, 242.745 386.745, 232 400, 232C413.255, 232 424, 242.745 424, 256C424, 269.255 413.255, 280 400, 280C386.745, 280 376, 269.255 376, 256zM336, 280C349.255, 280 360, 269.255 360, 256C360, 242.745 349.255, 232 336, 232C322.745, 232 312, 242.745 312, 256C312, 269.255 322.745, 280 336, 280zM512, 152C512, 164.296 507.371, 175.507 499.768, 184C507.371, 192.493 512, 203.704 512, 216L512, 296C512, 308.296 507.371, 319.507 499.768, 328C507.371, 336.493 512, 347.704 512, 360L512, 440C512, 466.51 490.51, 488 464, 488L48, 488C21.49, 488 0, 466.51 0, 440L0, 360C0, 347.704 4.629, 336.493 12.232, 328C4.629, 319.507 0, 308.296 0, 296L0, 216C0, 203.704 4.629, 192.493 12.232, 184C4.629, 175.507 0, 164.296 0, 152L0, 72C0, 45.49 21.49, 24 48, 24L464, 24C490.51, 24 512, 45.49 512, 72L512, 152zM32, 152C32, 160.822 39.178, 168 48, 168L464, 168C472.822, 168 480, 160.822 480, 152L480, 72C480, 63.178 472.822, 56 464, 56L48, 56C39.178, 56 32, 63.178 32, 72L32, 152zM464, 200L48, 200C39.178, 200 32, 207.178 32, 216L32, 296C32, 304.822 39.178, 312 48, 312L464, 312C472.822, 312 480, 304.822 480, 296L480, 216C480, 207.178 472.822, 200 464, 200zM480, 360C480, 351.178 472.822, 344 464, 344L48, 344C39.178, 344 32, 351.178 32, 360L32, 440C32, 448.822 39.178, 456 48, 456L464, 456C472.822, 456 480, 448.822 480, 440L480, 360zM400, 136C413.255, 136 424, 125.255 424, 112C424, 98.745 413.255, 88 400, 88C386.745, 88 376, 98.745 376, 112C376, 125.255 386.745, 136 400, 136zM336, 136C349.255, 136 360, 125.255 360, 112C360, 98.745 349.255, 88 336, 88C322.745, 88 312, 98.745 312, 112C312, 125.255 322.745, 136 336, 136zM400, 376C386.745, 376 376, 386.745 376, 400C376, 413.255 386.745, 424 400, 424C413.255, 424 424, 413.255 424, 400C424, 386.745 413.255, 376 400, 376zM336, 376C322.745, 376 312, 386.745 312, 400C312, 413.255 322.745, 424 336, 424C349.255, 424 360, 413.255 360, 400C360, 386.745 349.255, 376 336, 376z" fill="#727272" fill-opacity="1" class="Black" />
  </g>
</svg>