<?xml version='1.0' encoding='UTF-8'?>
<svg viewBox="-2 -2 32 32" xmlns="http://www.w3.org/2000/svg">
  <g transform="matrix(0.0547, 0, 0, 0.0547, 0, 0)">
    <path d="M480, 288L320, 288C302.33, 288 288, 302.33 288, 320L288, 480C288, 497.67 302.33, 512 320, 512L480, 512C497.67, 512 512, 497.67 512, 480L512, 320C512, 302.33 497.67, 288 480, 288zM480, 480L320, 480L320, 320L480, 320L480, 480zM128, 256C57.31, 256 0, 313.31 0, 384C0, 454.69 57.31, 512 128, 512C198.69, 512 256, 454.69 256, 384C256, 313.31 198.69, 256 128, 256zM128, 480C75.07, 480 32, 436.93 32, 384C32, 331.06 75.07, 288 128, 288C180.94, 288 224, 331.06 224, 384C224, 436.93 180.94, 480 128, 480zM506.98, 201.14L400.07, 18.29C392.95, 6.1 380.47, 0 368, 0C355.53, 0 343.05, 6.1 335.93, 18.29L229.02, 201.14C214.76, 225.52 232.58, 256 261.09, 256L474.91, 256C503.42, 256 521.24, 225.52 506.98, 201.14zM479.38, 221.53C478.44, 223.17 476.93, 224 474.91, 224L261.09, 224C259.07, 224 257.56, 223.17 256.62, 221.53C255.41, 219.41 256.27, 217.93 256.64, 217.3L363.55, 34.44C364.5, 32.82 365.99, 32 368, 32C370.01, 32 371.5, 32.82 372.45, 34.44L479.36, 217.3C479.73, 217.93 480.6, 219.41 479.38, 221.53z" fill="#727272" fill-opacity="1" class="Black" />
  </g>
</svg>