<?xml version='1.0' encoding='UTF-8'?>
<svg viewBox="-1.9998 -3.5563 31.9975 32" xmlns="http://www.w3.org/2000/svg">
  <g transform="matrix(0.0486, 0, 0, 0.0486, 0, 0)">
    <path d="M566.633, 169.37L406.63, 9.392C386.626, -10.612 352, 3.395 352, 32.022L352, 104.56C210.132, 108.474 88, 143.455 88, 286.3C88, 371.04 137.78, 420.042 167.45, 441.762C191.646, 459.457 225.483, 436.845 217.15, 407.252C188.286, 304.843 225.497, 284.074 352, 280.54L352, 352C352, 380.655 386.654, 394.606 406.63, 374.63L566.633, 214.63C579.122, 202.13 579.122, 181.87 566.633, 169.37zM384, 352L384, 248.04C242.282, 248.817 143.238, 263.07 186.35, 416C154.91, 393 120, 351.28 120, 286.3C120, 152.263 251.645, 136.913 384, 136.04L384, 32L544, 192L384, 352zM421.095, 404.186C423.311, 402.604 425.393, 400.863 427.83, 398.602C435.51, 391.474 448, 396.91 448, 407.389L448, 464C448, 490.51 426.51, 512 400, 512L48, 512C21.49, 512 0, 490.51 0, 464L0, 112C0, 85.49 21.49, 64 48, 64L220.146, 64C226.758, 64 232.1, 69.412 231.998, 76.04C231.914, 81.486 227.953, 86.127 222.667, 87.436C213.205, 89.779 204.202, 92.41 195.593, 95.35C194.343, 95.777 193.038, 96 191.717, 96L48, 96C39.163, 96 32, 103.163 32, 112L32, 464C32, 472.837 39.163, 480 48, 480L400, 480C408.837, 480 416, 472.837 416, 464L416, 413.998C416, 410.093 417.916, 406.455 421.095, 404.186z" fill="#727272" fill-opacity="1" class="Black" />
  </g>
</svg>