<?xml version='1.0' encoding='UTF-8'?>
<svg viewBox="-2 -3.554 32 31.9975" xmlns="http://www.w3.org/2000/svg">
  <g transform="matrix(0.0486, 0, 0, 0.0486, 0, 0)">
    <path d="M470.632, 201.371L310.63, 41.4C290.59, 21.36 256, 35.44 256, 64.03L256, 136.72C140.5, 140.56 0, 164.89 0, 317.79C0, 382.77 33.54, 436.05 85.11, 473.76C109.3, 491.46 143.15, 468.84 134.8, 439.25C107.1, 341.06 134.42, 317.19 256, 312.83L256, 383.98C256, 412.59 290.61, 426.62 310.63, 406.61L470.632, 246.63C483.123, 234.131 483.123, 213.871 470.632, 201.371zM288, 384.001L288, 280.101C142.329, 281.427 63.021, 302.734 104, 448.001C72.49, 424.951 32, 382.891 32, 317.791C32, 186.366 157.835, 169.446 288, 168.101L288, 64.001L448, 224.001L288, 384.001zM566.628, 246.628L406.628, 406.606C393.174, 420.06 373.136, 418.115 361.437, 406.712L544, 224.001L361.438, 41.294C373.133, 29.893 393.161, 27.932 406.627, 41.399L566.627, 201.373C579.124, 213.87 579.124, 234.131 566.628, 246.628z" fill="#727272" fill-opacity="1" class="Black" />
  </g>
</svg>