<?xml version='1.0' encoding='UTF-8'?>
<svg viewBox="-4 0 32 32" xmlns="http://www.w3.org/2000/svg">
  <g transform="matrix(0.0625, 0, 0, 0.0625, 0, 0)">
    <path d="M224, 152L224, 360C224, 364.42 227.58, 368 232, 368L264, 368C268.42, 368 272, 364.42 272, 360L272, 152C272, 85.72 218.27, 32 152, 32L16, 32C7.16, 32 0, 39.16 0, 48L0, 472C0, 476.42 3.58, 480 8, 480L40, 480C44.42, 480 48, 476.42 48, 472L48, 80L152, 80C191.76, 80 224, 112.23 224, 152zM376, 32L344, 32C339.58, 32 336, 35.58 336, 40L336, 360C336, 399.76 303.76, 432 264, 432L160, 432L160, 152C160, 147.58 156.42, 144 152, 144L120, 144C115.58, 144 112, 147.58 112, 152L112, 464C112, 472.84 119.16, 480 128, 480L264, 480C330.27, 480 384, 426.27 384, 360L384, 40C384, 35.58 380.42, 32 376, 32z" fill="#727272" fill-opacity="1" class="Black" />
  </g>
</svg>