<?xml version='1.0' encoding='UTF-8'?>
<svg viewBox="-3.7495 -2 32 32" xmlns="http://www.w3.org/2000/svg">
  <g transform="matrix(0.0547, 0, 0, 0.0547, 0, 0)">
    <path d="M420.43, 83.69L241.23, 3.69C235.72, 1.23 229.86, 0 224, 0C218.14, 0 212.28, 1.23 206.77, 3.69L27.57, 83.69C10.88, 91.14 0, 108.62 0, 128C0, 326.49 106.86, 463.71 206.77, 508.31C212.28, 510.77 218.14, 512 224, 512C229.86, 512 235.72, 510.77 241.23, 508.31C321.13, 472.64 448, 349.28 448, 128C448, 108.62 437.12, 91.14 420.43, 83.69zM32, 128C32, 121.28 35.46, 115.21 40.62, 112.91L176, 52.47L176, 144L32.53, 144C32.36, 138.66 32, 133.44 32, 128zM176, 452.7C120.23, 410.83 68.46, 337.57 45.13, 240L176, 240L176, 452.7zM272, 452.14L272, 240L403.28, 240C378.36, 345.18 321.12, 414.46 272, 452.14zM409.58, 208L240, 208L240, 473.19C235.91, 475.41 231.93, 477.42 228.19, 479.09C226.62, 479.79 223.5, 480.73 219.82, 479.09C215.9, 477.34 211.95, 475.21 208.01, 473.13L208.01, 208L38.69, 208A478.05 478.05 0 0 1 34.54, 176L208, 176L208, 38.19L219.81, 32.92C223.49, 31.28 226.6, 32.21 228.18, 32.92L240, 38.19L240, 176L413.54, 176C412.52, 186.95 411.25, 197.67 409.58, 208zM415.42, 144L272, 144L272, 52.47L407.39, 112.91C412.54, 115.21 416, 121.27 416, 128C416, 133.5 415.58, 138.64 415.42, 144z" fill="#727272" fill-opacity="1" class="Black" />
  </g>
</svg>