<?xml version='1.0' encoding='UTF-8'?>
<svg viewBox="-1.9962 -1.9975 32 32" xmlns="http://www.w3.org/2000/svg">
  <g transform="matrix(0.0547, 0, 0, 0.0547, 0, 0)">
    <path d="M466.5, 83.7L274.5, 3.7A48.15 48.15 0 0 0 237.6, 3.7L45.6, 83.7C27.7, 91.1 16, 108.6 16, 128C16, 326.5 130.5, 463.7 237.5, 508.3C249.3, 513.2 262.6, 513.2 274.4, 508.3C360.1, 472.6 496, 349.3 496, 128C496, 108.6 484.3, 91.1 466.5, 83.7zM262.2, 478.8C258.2, 480.4 253.8, 480.4 249.9, 478.8C152, 440 48, 304 48, 128C48, 121.5 51.9, 115.7 57.8, 113.2L249.8, 33.2C253.7, 31.6 258.2, 31.6 262.1, 33.2L454.1, 113.2C460.1, 115.7 464, 121.5 463.9, 128C464, 304 360, 440 262.2, 478.8zM398.4, 153.8C393.7, 149.1 386.1, 149.1 381.4, 153.7L218, 315.8L149, 246.3C144.3, 241.6 136.7, 241.6 132, 246.2L123.5, 254.7C118.8, 259.4 118.8, 267 123.4, 271.7L209.3, 358.3C214, 363 221.6, 363 226.3, 358.4L406.8, 179.4C411.5, 174.7 411.5, 167.1 406.9, 162.4z" fill="#727272" fill-opacity="1" class="Black" />
  </g>
</svg>