<?xml version='1.0' encoding='UTF-8'?>
<svg viewBox="-1.9998 -4.8002 31.9975 32" xmlns="http://www.w3.org/2000/svg">
  <g transform="matrix(0.9988, 0, 0, 0.9988, 0, 0)">
    <g transform="matrix(0.0438, 0, 0, 0.0438, 0, 0)">
      <path d="M480, 366.077L565.182, 287.994C583.245, 271.437 577.522, 243.552 556.605, 234.588L480, 201.756L480, 80C480, 71.163 472.837, 64 464, 64L416, 64L416, 24C416, 10.745 405.255, 0 392, 0L248, 0C234.745, 0 224, 10.745 224, 24L224, 64L176, 64C167.163, 64 160, 71.163 160, 80L160, 201.756L83.945, 234.351C61.461, 243.987 57.572, 272.185 74.377, 287.589L160, 366.077C160, 402.167 109.048, 480 12, 480C5.373, 480 0, 485.373 0, 492L0, 500C0, 506.627 5.373, 512 12, 512C77.489, 512 129.316, 483.016 162.756, 438.852C173.036, 480.79 210.938, 512 256, 512L384, 512C429.062, 512 466.964, 480.79 477.244, 438.852C510.878, 483.273 562.822, 512 628, 512C634.627, 512 640, 506.627 640, 500L640, 492C640, 485.373 634.627, 480 628, 480C534.377, 480 480, 405.214 480, 366.077zM256, 32L384, 32L384, 64L256, 64L256, 32zM192, 96L448, 96L448, 188.042L332.605, 138.587A31.999 31.999 0 0 0 307.394, 138.587L192, 188.042L192, 96zM448, 352L448, 416C448, 451.346 419.346, 480 384, 480L256, 480C220.654, 480 192, 451.346 192, 416L192, 352L96, 264L320, 168L544, 264L448, 352z" fill="#727272" fill-opacity="1" class="Black" />
    </g>
  </g>
</svg>