<?xml version='1.0' encoding='UTF-8'?>
<svg viewBox="-2 -4.0988 32 32" xmlns="http://www.w3.org/2000/svg">
  <g transform="matrix(0.9988, 0, 0, 0.9988, 0, 0)">
    <g transform="matrix(0.0438, 0, 0, 0.0438, 0, 0)">
      <path d="M280, 192C284.4, 192 288, 188.4 288, 184L288, 168C288, 163.6 284.4, 160 280, 160L40, 160C35.6, 160 32, 163.6 32, 168L32, 184C32, 188.4 35.6, 192 40, 192L280, 192zM632, 384L608, 384L608, 275.9C608, 259.1 601.2, 242.6 589.2, 230.7L505.3, 146.8C493.5, 134.8 477, 128 460.1, 128L416, 128L416, 78.6C416, 52.9 393.8, 32 366.6, 32L113.4, 32C86.2, 32 64, 52.9 64, 78.6L64, 96L8, 96C3.6, 96 0, 99.6 0, 104L0, 120C0, 124.4 3.6, 128 8, 128L248, 128C252.4, 128 256, 124.4 256, 120L256, 104C256, 99.6 252.4, 96 248, 96L96, 96L96, 78.6C96, 70.5 103.8, 64 113.4, 64L366.6, 64C376.2, 64 384, 70.5 384, 78.6L384, 384L207.6, 384C193, 364.7 170, 352 144, 352C125.9, 352 109.4, 358.2 96, 368.4L96, 288L64, 288L64, 432C64, 476.2 99.8, 512 144, 512C188.2, 512 224, 476.2 224, 432C224, 426.5 223.4, 421.2 222.4, 416L417.6, 416C416.5, 421.2 416, 426.5 416, 432C416, 476.2 451.8, 512 496, 512C540.2, 512 576, 476.2 576, 432C576, 426.5 575.4, 421.2 574.4, 416L632, 416C636.4, 416 640, 412.4 640, 408L640, 392C640, 387.6 636.4, 384 632, 384zM144, 480C117.5, 480 96, 458.5 96, 432C96, 405.5 117.5, 384 144, 384C170.5, 384 192, 405.5 192, 432C192, 458.5 170.5, 480 144, 480zM416, 160L460.1, 160C468.5, 160 476.8, 163.4 482.7, 169.4L566.6, 253.3C567.4, 254.1 567.7, 255.2 568.4, 256.1L416, 256.1L416, 160zM496, 480C469.5, 480 448, 458.5 448, 432C448, 405.5 469.5, 384 496, 384C522.5, 384 544, 405.5 544, 432C544, 458.5 522.5, 480 496, 480zM576, 384L559.6, 384C545, 364.7 522, 352 496, 352C470, 352 447, 364.7 432.4, 384L416, 384L416, 288L576, 288L576, 384zM256, 248L256, 232C256, 227.6 252.4, 224 248, 224L8, 224C3.6, 224 0, 227.6 0, 232L0, 248C0, 252.4 3.6, 256 8, 256L248, 256C252.4, 256 256, 252.4 256, 248z" fill="#727272" fill-opacity="1" class="Black" />
    </g>
  </g>
</svg>