<?xml version='1.0' encoding='UTF-8'?>
<svg viewBox="-2 -1.9988 32 32" xmlns="http://www.w3.org/2000/svg">
  <g transform="matrix(0.0547, 0, 0, 0.0547, 0, 0)">
    <path d="M511.21, 84.17C507.46, 54.43 490.12, 28.43 463.69, 12.85A94.9 94.9 0 0 0 367.47, 13.35C343.77, 27.62 327.65, 49.97 322.06, 76.35C316.47, 102.73 322.24, 130.28 336.93, 152.72L311.15, 178.48L268.71, 136.03A62.59 62.59 0 0 0 180.17, 136.03L137.86, 178.34A62.3 62.3 0 0 0 119.62, 226A62.39 62.39 0 0 0 72, 244.28L29.7, 286.58A62.68 62.68 0 0 0 29.7, 375.12L72, 417.45L2.34, 487A8 8 0 0 0 2.34, 498.32L13.65, 509.63A8 8 0 0 0 24.97, 509.63L94.61, 440.05L136.88, 482.32A62.57 62.57 0 0 0 225.42, 482.32L267.72, 440.02A62.4 62.4 0 0 0 286, 392.38A62.34 62.34 0 0 0 333.67, 374.13L375.96, 331.83A62.56 62.56 0 0 0 375.96, 243.29L333.81, 201.14L359.59, 175.39C370.44, 164.55 372.67, 147.7 365.12, 135.32C358.82, 124.97 353, 114.02 352.12, 101.93C350.33, 76.65 362.12, 54.41 382.97, 41.38C402.06, 29.46 427.02, 28.74 446.57, 39.9C464.89, 50.38 476.92, 68 479.49, 88.21A63.64 63.64 0 0 1 466.18, 136A8 8 0 0 0 466.48, 146.76L477.92, 158.2A8 8 0 0 0 489.56, 157.95A95.23 95.23 0 0 0 511.21, 84.17zM245.09, 417.42L202.79, 459.72A30.6 30.6 0 0 1 159.51, 459.72L52.28, 352.49A30.6 30.6 0 0 1 52.28, 309.21L94.58, 266.91A30.59 30.59 0 0 1 137.86, 266.91L245.09, 374.14A30.59 30.59 0 0 1 245.09, 417.42zM353.31, 265.92A30.62 30.62 0 0 1 353.31, 309.21L311, 351.51A30.62 30.62 0 0 1 267.71, 351.51L160.49, 244.28A30.62 30.62 0 0 1 160.49, 200.99L202.79, 158.69A30.62 30.62 0 0 1 246.08, 158.69z" fill="#727272" fill-opacity="1" class="Black" />
  </g>
</svg>