<?xml version='1.0' encoding='UTF-8'?>
<svg viewBox="-2 -4.7992 32 32" xmlns="http://www.w3.org/2000/svg">
  <g transform="matrix(0.9988, 0, 0, 0.9988, 0, 0)">
    <g transform="matrix(0.0438, 0, 0, 0.0438, 0, 0)">
      <path d="M337.46, 272C302.55, 272 261.3, 286.06 232.73, 306.29C207.94, 323.84 188.21, 340.58 128, 340.58L64, 340.58C28.65, 340.58 0, 371.28 0, 409.15C0, 447.02 28.65, 480 64, 480L128, 480L185.53, 494.82C217.42, 504.3 250.17, 512 293.3, 512C403.84, 512 512, 456.84 512, 374.86C512, 306.29 427.82, 272 337.46, 272zM112, 448L64, 448C46.95, 448 32, 429.84 32, 409.14C32, 388.97 46.36, 372.57 64, 372.57L112, 372.57L112, 448zM193.51, 463.84L144, 451.08L144, 371.97C199.33, 369.02 224.75, 351.31 247.08, 335.35C338.33, 270.38 480, 316.73 480, 374.86C480, 437.01 358.51, 512.78 193.51, 463.84zM421.29, 0C377.87, 0 345.12, 7.78 313.52, 17.17L256, 32L192, 32C156.65, 32 128, 64.98 128, 102.86C128, 140.73 156.65, 171.43 192, 171.43L256, 171.43C316.2, 171.43 335.94, 188.16 360.73, 205.72C389.3, 225.94 430.54, 240 465.46, 240C555.82, 240 640, 205.71 640, 137.14C640, 55.84 533.12, 0 421.29, 0zM240, 139.43L192, 139.43C174.36, 139.43 160, 123.03 160, 102.86C160, 82.16 174.95, 64 192, 64L240, 64L240, 139.43zM465.46, 208C437.88, 208 403.22, 196.59 379.22, 179.6C355.51, 162.71 330.46, 143.15 272, 140.04L272, 60.92L322.65, 47.85C352.05, 39.1 381.72, 32 421.29, 32C473.38, 32 608, 58.02 608, 137.14C608, 183.66 536.29, 208 465.46, 208z" fill="#727272" fill-opacity="1" class="Black" />
    </g>
  </g>
</svg>