<?xml version='1.0' encoding='UTF-8'?>
<svg viewBox="-2 -3.554 32 32" xmlns="http://www.w3.org/2000/svg">
  <g transform="matrix(0.0486, 0, 0, 0.0486, 0, 0)">
    <path d="M564, 192L487.125, 192L347.893, 37.297C341.983, 30.729 331.866, 30.196 325.297, 36.108C318.728, 42.02 318.196, 52.136 324.108, 58.704L444.075, 192L131.925, 192L251.893, 58.703C257.805, 52.136 257.272, 42.018 250.704, 36.107C244.135, 30.195 234.018, 30.727 228.108, 37.296L88.875, 192L12, 192C5.373, 192 0, 197.373 0, 204L0, 212C0, 218.627 5.373, 224 12, 224L28.444, 224L58.25, 438.603C61.546, 462.334 81.836, 480 105.794, 480L470.206, 480C494.164, 480 514.454, 462.334 517.75, 438.603L547.556, 224L564, 224C570.627, 224 576, 218.627 576, 212L576, 204C576, 197.373 570.627, 192 564, 192zM486.054, 434.201C484.961, 442.068 478.148, 448 470.206, 448L105.794, 448C97.852, 448 91.039, 442.068 89.946, 434.201L60.752, 224L515.249, 224L486.054, 434.201zM304, 280L304, 392C304, 400.837 296.837, 408 288, 408C279.164, 408 272, 400.837 272, 392L272, 280C272, 271.163 279.164, 264 288, 264C296.837, 264 304, 271.163 304, 280zM416, 280L416, 392C416, 400.837 408.837, 408 400, 408C391.163, 408 384, 400.837 384, 392L384, 280C384, 271.163 391.163, 264 400, 264C408.837, 264 416, 271.163 416, 280zM192, 280L192, 392C192, 400.837 184.836, 408 176, 408C167.164, 408 160, 400.837 160, 392L160, 280C160, 271.163 167.164, 264 176, 264C184.836, 264 192, 271.163 192, 280z" fill="#727272" fill-opacity="1" class="Black" />
  </g>
</svg>