<?xml version='1.0' encoding='UTF-8'?>
<svg viewBox="-1.9988 -2 32 32" xmlns="http://www.w3.org/2000/svg">
  <g transform="matrix(0.0547, 0, 0, 0.0547, 0, 0)">
    <path d="M180.7, 244.7L100.7, 324.7C94.5, 330.9 94.5, 341.1 100.7, 347.3C103.8, 350.4 107.9, 352 112, 352C116.1, 352 120.2, 350.4 123.3, 347.3L203.3, 267.3C209.5, 261.1 209.5, 250.9 203.3, 244.7C197.1, 238.4 186.9, 238.4 180.7, 244.7zM164.7, 411.3C167.8, 414.4 171.9, 416 176, 416C180.1, 416 184.2, 414.4 187.3, 411.3L267.3, 331.3C273.5, 325.1 273.5, 314.9 267.3, 308.7C261.1, 302.4 250.9, 302.4 244.7, 308.7L164.7, 388.7C158.4, 394.9 158.4, 405.1 164.7, 411.3zM502.6, 65.9L446.1, 9.4C439.8, 3.1 431.6, 0 423.4, 0C415.2, 0 407, 3.1 400.8, 9.4L383.8, 26.4C359.6, 50.6 356.4, 87.7 373.8, 115.5L267.6, 221.8L220.4, 174.6C210.7, 164.9 197.9, 160 185.1, 160C174.4, 160 163.6, 163.4 154.6, 170.4L19.4, 274.9C-4.4, 293.3 -6.7, 328.4 14.6, 349.7L162.3, 497.4C172.1, 507.2 184.9, 512 197.6, 512C212.4, 512 227.2, 505.4 237.1, 492.6L341.6, 357.4C357, 337.5 355.2, 309.3 337.4, 291.6L290.2, 244.4L396.5, 138.1C408.2, 145.4 421.4, 149.2 434.7, 149.2C453.1, 149.2 471.6, 142.2 485.6, 128.1L502.6, 111.1C515.1, 98.7 515.1, 78.4 502.6, 65.9zM314.7, 314.2C321.1, 320.6 321.7, 330.7 316.2, 337.8L211.8, 473C208.4, 477.4 203.2, 480 197.6, 480C194.8, 480 189.5, 479.3 184.9, 474.7L37.3, 327.1C32.3, 322.1 31.9, 316.3 32.1, 313.3C32.3, 310.3 33.4, 304.6 39, 300.3L174.2, 195.8C178.2, 192.7 182.4, 192.1 185.1, 192.1C189.9, 192.1 194.4, 194 197.8, 197.4L314.7, 314.2zM463, 105.5C455.4, 113.1 445.4, 117.2 434.7, 117.2C424, 117.2 414, 113 406.4, 105.5C398.8, 97.9 394.7, 87.9 394.7, 77.2C394.7, 66.5 398.9, 56.5 406.4, 48.9L423.3, 31.9L480, 88.6L463, 105.5z" fill="#727272" fill-opacity="1" class="Black" />
  </g>
</svg>