<?xml version='1.0' encoding='UTF-8'?>
<svg viewBox="-2 -2 32 32" xmlns="http://www.w3.org/2000/svg">
  <g transform="matrix(0.0547, 0, 0, 0.0547, 0, 0)">
    <path d="M501.55, 86.12L425.88, 10.45C418.91, 3.48 409.76, 0 400.6, 0C391.44, 0 382.3, 3.48 375.33, 10.45L346.13, 39.64C329.21, 56.57 320, 79.24 320, 102.68C320, 127.19 329.79, 144.49 335.96, 153.42L208.67, 280.7L152.1, 224.13C145.85, 217.88 137.66, 214.76 129.47, 214.76C121.28, 214.76 113.09, 217.88 106.84, 224.13L38.96, 292.01C-11.02, 342 -6.29, 473.03 16.34, 495.66C26.21, 505.53 56.73, 512 92.14, 512C137.89, 512 191.81, 501.21 219.99, 473.03L287.87, 405.15C300.37, 392.65 300.37, 372.39 287.87, 359.9L231.3, 303.33L358.58, 176.05C367.5, 182.21 384.84, 192.01 409.34, 192.01C432.75, 192.01 455.43, 182.79 472.35, 165.88L501.54, 136.68C515.48, 122.73 515.48, 100.06 501.55, 86.12zM197.36, 450.41C160.69, 487.07 63, 483.13 39.2, 472.67C28.56, 450.55 25.61, 350.63 61.6, 314.64L129.45, 246.76L129.48, 246.76L265.24, 382.53L197.36, 450.41zM478.92, 114.04L449.73, 143.23C396.94, 196.02 315.63, 115.39 368.77, 62.27L397.97, 33.07C399.42, 31.62 401.81, 31.62 403.26, 33.07L478.93, 108.75C480.37, 110.2 480.37, 112.59 478.92, 114.04z" fill="#727272" fill-opacity="1" class="Black" />
  </g>
</svg>