<?xml version='1.0' encoding='UTF-8'?>
<svg viewBox="-2 -2 32 32" xmlns="http://www.w3.org/2000/svg">
  <g transform="matrix(0.0547, 0, 0, 0.0547, 0, 0)">
    <path d="M432, 192L416, 192L416, 109.25C416, 100.76 412.63, 92.63 406.63, 86.62L329.37, 9.37C323.37, 3.37 315.23, 0 306.74, 0L126.48, 0C109.64, 0 96, 14.33 96, 32L96, 192L80, 192C35.82, 192 0, 227.82 0, 272L0, 368C0, 376.84 7.16, 384 16, 384L496, 384C504.84, 384 512, 376.84 512, 368L512, 272C512, 227.82 476.18, 192 432, 192zM320, 45.25L370.75, 96L320, 96L320, 45.25zM128.12, 32L288, 32L288, 96C288, 113.67 302.33, 128 320, 128L384, 128L384, 192L128.02, 192L128.12, 32zM480, 352L32, 352L32, 272C32, 245.53 53.53, 224 80, 224L432, 224C458.47, 224 480, 245.53 480, 272L480, 352zM400, 264C386.75, 264 376, 274.74 376, 288C376, 301.25 386.75, 312 400, 312C413.25, 312 424, 301.25 424, 288C424, 274.74 413.25, 264 400, 264zM48, 504C48, 508.42 51.58, 512 56, 512L72, 512C76.42, 512 80, 508.42 80, 504L80, 416L48, 416L48, 504zM144, 504C144, 508.42 147.58, 512 152, 512L168, 512C172.42, 512 176, 508.42 176, 504L176, 416L144, 416L144, 504zM240, 504C240, 508.42 243.58, 512 248, 512L264, 512C268.42, 512 272, 508.42 272, 504L272, 416L240, 416L240, 504zM336, 504C336, 508.42 339.58, 512 344, 512L360, 512C364.42, 512 368, 508.42 368, 504L368, 416L336, 416L336, 504zM432, 504C432, 508.42 435.58, 512 440, 512L456, 512C460.42, 512 464, 508.42 464, 504L464, 416L432, 416L432, 504z" fill="#727272" fill-opacity="1" class="Black" />
  </g>
</svg>