<?xml version='1.0' encoding='UTF-8'?>
<svg viewBox="-1.9949 -1.9999 31.995 32" xmlns="http://www.w3.org/2000/svg">
  <g transform="matrix(0.0547, 0, 0, 0.0547, 0, 0)">
    <path d="M480, 192L418.4, 192L428.8, 119.4C431.8, 98.6 414.3, 80.3 392.6, 83.2L320, 93.6L320, 32C320, 14.3 305.7, 0 288, 0L244.9, 0C232.7, 0 221.4, 7.1 216.1, 18.1L98.1, 263.9L31.1, 330.9C-10.3, 372.3 -10.3, 439.5 31.1, 480.9C51.8, 501.6 78.9, 512 106.1, 512C133.2, 512 160.4, 501.6 181.1, 480.9L248.1, 413.9L493.9, 295.9C504.9, 290.6 512, 279.3 512, 267.1L512, 224C512, 206.3 497.7, 192 480, 192zM397.1, 114.9L385.7, 195.1L294, 218L316.9, 126.3L397.1, 114.9zM244.9, 32L288, 32L288, 102.3L185.6, 155.6L244.9, 32zM279.9, 142.6L257.6, 231.8L169.8, 319.6L127.4, 277.2L162.6, 203.7L279.9, 142.6zM32, 406C32, 387.4 39, 370 51.5, 356.4L155.7, 460.6C142, 473 124.6, 480 106, 480C65.1, 480 32, 446.9 32, 406zM178.5, 438.2L73.8, 333.5L106, 301.3L210.7, 406L178.5, 438.2zM234.8, 384.7L192.4, 342.3L280.2, 254.5L369.4, 232.2L308.3, 349.5L234.8, 384.7zM480, 267L356.4, 326.4L409.7, 224L480, 224L480, 267z" fill="#727272" fill-opacity="1" class="Black" />
  </g>
</svg>