<?xml version='1.0' encoding='UTF-8'?>
<svg viewBox="-1.9973 -2.0011 31.995 32" xmlns="http://www.w3.org/2000/svg">
  <g transform="matrix(0.0547, 0, 0, 0.0547, 0, 0)">
    <path d="M511.54, 160.28C500.73, 104.84 445.48, 0 313.94, 0C221.94, 0 143.7, 64.23 123.7, 156.2C117.47, 184.87 116.4, 220.96 122.13, 254.12L72.58, 303.66A16 16 0 0 0 72.58, 326.29L83.89, 337.6L4.69, 416.8A16 16 0 0 0 4.69, 439.43L72.57, 507.31A16 16 0 0 0 95.19, 507.31L174.39, 428.11L185.7, 439.42A16 16 0 0 0 208.32, 439.42L253.56, 394.16A16 16 0 0 0 253.56, 371.53L250.41, 368.38L277.69, 341.11A16 16 0 0 0 278.63, 319.52C258, 294.94 249.35, 263.68 254.29, 231.44A120.9 120.9 0 0 1 308.82, 147.94C344.73, 124.94 391.98, 123.28 429.2, 143.89A124.34 124.34 0 0 1 469.51, 179A23.25 23.25 0 0 0 497.82, 186.61A23.52 23.52 0 0 0 511.54, 160.33zM197, 405.49L174.37, 382.86L151.74, 405.49L83.89, 473.37L38.63, 428.12L106.51, 360.24L129.14, 337.62L106.52, 315L129.15, 292.37L219.66, 382.88zM444.73, 115.91C397.48, 89.72 337.38, 91.72 291.6, 121A153 153 0 0 0 222.67, 226.62C217.11, 263.1 225.11, 298.7 245.25, 328.34L227.82, 345.77L161, 279C146.89, 245.64 147.57, 196.85 154.91, 163C171.69, 85.87 237.06, 32 313.91, 32C401.07, 32 448.38, 86.47 469, 132.33A162.22 162.22 0 0 0 444.72, 115.91z" fill="#727272" fill-opacity="1" class="Black" />
  </g>
</svg>