<?xml version='1.0' encoding='UTF-8'?>
<svg viewBox="-4.3304 2.6684 32 31.9975" xmlns="http://www.w3.org/2000/svg">
  <g transform="matrix(0.0729, 0, 0, 0.0729, 0, 0)">
    <path d="M296, 160L312, 160C316.42, 160 320, 156.42 320, 152L320, 96C320, 78.33 305.68, 64 288.01, 64L33.39, 64C22.2, 64 11.2, 69.12 5.19, 78.56C-2.5, 90.64 -1.57, 105.43 7.99, 117.06L138.09, 256L7.3, 395.73C-1.51, 406.5 -2.52, 421.42 5.23, 433.51C11.3, 442.96 22.38, 448 33.61, 448L288.01, 448C305.68, 448 320, 433.67 320, 416L320, 360C320, 355.58 316.42, 352 312, 352L296, 352C291.58, 352 288, 355.58 288, 360L288, 416L31.35, 416.81L161.42, 277.89C172.95, 265.61 172.95, 246.39 161.45, 234.12L32.05, 96L288.01, 96L288.01, 152C288.01, 156.42 291.59, 160 296, 160z" fill="#727272" fill-opacity="1" class="Black" />
  </g>
</svg>