<?xml version='1.0' encoding='UTF-8'?>
<svg viewBox="-2 -1.9988 32 32" xmlns="http://www.w3.org/2000/svg">
  <g transform="matrix(0.0547, 0, 0, 0.0547, 0, 0)">
    <path d="M32, 217.1C32, 208.3 39.2, 201.1 48, 201.1L192, 201.1L192, 107.2C192, 100.1 200.6, 96.5 205.6, 101.5L347.2, 244.6C353.5, 250.9 353.5, 261 347.2, 267.3L205.6, 410.4C200.6, 415.4 192, 411.9 192, 404.7L192, 310.8L48, 310.8C39.2, 310.8 32, 303.6 32, 294.8L32, 217.1M0, 217.1L0, 294.8C0, 321.3 21.5, 342.8 48, 342.8L160, 342.8L160, 404.7C160, 440.2 203, 458.2 228.2, 433L369.9, 290C388.7, 271.2 388.7, 240.8 369.9, 222L228.2, 78.9C203.1, 53.8 160, 71.6 160, 107.2L160, 169.1L48, 169.1C21.5, 169.1 0, 190.7 0, 217.1zM512, 400L512, 112C512, 85.5 490.5, 64 464, 64L332, 64C325.4, 64 320, 69.4 320, 76L320, 84C320, 90.6 325.4, 96 332, 96L464, 96C472.8, 96 480, 103.2 480, 112L480, 400C480, 408.8 472.8, 416 464, 416L332, 416C325.4, 416 320, 421.4 320, 428L320, 436C320, 442.6 325.4, 448 332, 448L464, 448C490.5, 448 512, 426.5 512, 400z" fill="#727272" fill-opacity="1" class="Black" />
  </g>
</svg>