<?xml version='1.0' encoding='UTF-8'?>
<svg viewBox="-1.995 -4.7973 32 32" xmlns="http://www.w3.org/2000/svg">
  <g transform="matrix(0.999, 0, 0, 0.999, 0, 0)">
    <g transform="matrix(0.0438, 0, 0, 0.0438, 0, 0)">
      <path d="M80, 384L48, 384C43.6, 384 40, 387.6 40, 392L40, 504C40, 508.4 43.6, 512 48, 512L80, 512C84.4, 512 88, 508.4 88, 504L88, 392C88, 387.6 84.4, 384 80, 384zM472, 104C472, 99.6 468.4, 96 464, 96L432, 96C427.6, 96 424, 99.6 424, 104L424, 276.8L472, 314.6zM600, 8C600, 3.6 596.4, 0 592, 0L560, 0C555.6, 0 552, 3.6 552, 8L552, 377.6L600, 415.4zM424, 504C424, 508.4 427.6, 512 432, 512L464, 512C468.4, 512 472, 508.4 472, 504L472, 436.8L424, 399zM208, 288L176, 288C171.6, 288 168, 291.6 168, 296L168, 504C168, 508.4 171.6, 512 176, 512L208, 512C212.4, 512 216, 508.4 216, 504L216, 296C216, 291.6 212.4, 288 208, 288zM637, 485.2L23, 1.8C19.6, -1 14.5, -0.5 11.8, 3L1.8, 15.5C-1, 19 -0.4, 24 3, 26.7L617, 510.2C620.4, 513 625.5, 512.4 628.2, 509L638.2, 496.5C641, 493 640.5, 488 637, 485.2zM296, 504C296, 508.4 299.6, 512 304, 512L336, 512C340.4, 512 344, 508.4 344, 504L344, 336L296, 298.2z" fill="#727272" fill-opacity="1" class="Black" />
    </g>
  </g>
</svg>