<?xml version='1.0' encoding='UTF-8'?>
<svg viewBox="0 -3.2 32 32" xmlns="http://www.w3.org/2000/svg">
  <g transform="matrix(0.05, 0, 0, 0.05, 0, 0)">
    <path d="M208, 288L176, 288C171.58, 288 168, 291.58 168, 296L168, 504C168, 508.42 171.58, 512 176, 512L208, 512C212.42, 512 216, 508.42 216, 504L216, 296C216, 291.58 212.42, 288 208, 288zM80, 384L48, 384C43.58, 384 40, 387.58 40, 392L40, 504C40, 508.42 43.58, 512 48, 512L80, 512C84.42, 512 88, 508.42 88, 504L88, 392C88, 387.58 84.42, 384 80, 384zM336, 192L304, 192C299.58, 192 296, 195.58 296, 200L296, 504C296, 508.42 299.58, 512 304, 512L336, 512C340.42, 512 344, 508.42 344, 504L344, 200C344, 195.58 340.42, 192 336, 192zM464, 96L432, 96C427.58, 96 424, 99.58 424, 104L424, 504C424, 508.42 427.58, 512 432, 512L464, 512C468.42, 512 472, 508.42 472, 504L472, 104C472, 99.58 468.42, 96 464, 96zM592, 0L560, 0C555.58, 0 552, 3.58 552, 8L552, 504C552, 508.42 555.58, 512 560, 512L592, 512C596.42, 512 600, 508.42 600, 504L600, 8C600, 3.58 596.42, 0 592, 0z" fill="#727272" fill-opacity="1" class="Black" />
  </g>
</svg>