<?xml version='1.0' encoding='UTF-8'?>
<svg viewBox="-1.9975 -4.798 32 32" xmlns="http://www.w3.org/2000/svg">
  <g transform="matrix(1.0011, 0, 0, 1.0011, 0, 0)">
    <g transform="matrix(0.0437, 0, 0, 0.0437, 0, 0)">
      <path d="M630.1, 206.8C597.4, 215.2 553, 237.6 521.4, 256.4C506.7, 265.2 491.5, 274.3 479.9, 279.8C448.6, 295 421.6, 308 395.8, 308C382.9, 308 372.8, 303.7 365.9, 295.3C354.6, 281.5 354.6, 260 358, 232C361.3, 205.1 358.6, 184.2 350.4, 174.7C346, 169.7 340.4, 167.8 331.7, 168.4C307, 170 257, 210.8 169.6, 300.9L115.2, 356.9L185.2, 169.3C197, 137.7 188.8, 103.2 164.3, 81.5C145, 64.3 112, 54.3 77.3, 78L3.5, 127.8C0, 130.1 -1, 134.8 1, 138.4L10.2, 154.6C12.5, 158.7 17.8, 159.9 21.7, 157.3L97.5, 106C104.1, 101.5 111.5, 99.2 118.9, 99.2C128, 99.2 136.5, 102.6 143.7, 109C156.9, 120.7 161.3, 139.2 155, 156.1L55.2, 423.7C53.3, 428.9 54.2, 436.3 57.4, 441.4C59.8, 445.1 64, 447.5 68.7, 448C73.6, 448.3 78.4, 446.6 81.7, 443.1C125, 396.8 239.5, 278.4 298, 228.4L318.4, 211C321.8, 208.1 326.9, 210.7 326.6, 215.1L324.5, 243C322.5, 270.3 322.1, 298.9 341.3, 321.6C353.7, 336.1 372, 343.5 395.9, 343.5C428.6, 343.5 460, 328.4 493.2, 312.4C503.4, 307.5 518.1, 298.3 532.4, 289.4C563.3, 270.1 604.7, 248.9 634.2, 241.7C637.7, 240.8 640.1, 237.7 640.1, 234.1L640.1, 216.8C640, 209.4 635.1, 205.6 630.1, 206.8z" fill="#727272" fill-opacity="1" class="Black" />
    </g>
  </g>
</svg>