<?xml version='1.0' encoding='UTF-8'?>
<svg viewBox="-1.995 -4.7973 32 32" xmlns="http://www.w3.org/2000/svg">
  <g transform="matrix(0.999, 0, 0, 0.999, 0, 0)">
    <g transform="matrix(0.0438, 0, 0, 0.0438, 0, 0)">
      <path d="M384, 160L416, 160L416, 270.5L448, 295.7L448, 160C448, 142.3 433.7, 128 416, 128L384, 128C366.3, 128 352, 142.3 352, 160L352, 220.1L384, 245.3zM544, 32L576, 32L576, 396.5L608, 421.7L608, 32C608, 14.3 593.7, 0 576, 0L544, 0C526.3, 0 512, 14.3 512, 32L512, 346.1L544, 371.3zM637, 485.2L23, 1.8C19.6, -1 14.5, -0.5 11.8, 3L1.8, 15.5C-1, 19 -0.4, 24 3, 26.7L617, 510.2C620.4, 513 625.5, 512.4 628.2, 509L638.2, 496.5C641, 493 640.5, 488 637, 485.2zM224, 256C206.3, 256 192, 270.3 192, 288L192, 480C192, 497.7 206.3, 512 224, 512L256, 512C273.7, 512 288, 497.7 288, 480L288, 291.9L242.4, 256zM256, 480L224, 480L224, 288L256, 288zM416, 480L384, 480L384, 367.5L352, 342.3L352, 480C352, 497.7 366.3, 512 384, 512L416, 512C433.7, 512 448, 497.7 448, 480L448, 417.9L416, 392.7zM96, 384L64, 384C46.3, 384 32, 398.3 32, 416L32, 480C32, 497.7 46.3, 512 64, 512L96, 512C113.7, 512 128, 497.7 128, 480L128, 416C128, 398.3 113.7, 384 96, 384zM96, 480L64, 480L64, 416L96, 416z" fill="#727272" fill-opacity="1" class="Black" />
    </g>
  </g>
</svg>