<?xml version='1.0' encoding='UTF-8'?>
<svg viewBox="-2 -1.9988 32 32" xmlns="http://www.w3.org/2000/svg">
  <g transform="matrix(0.0547, 0, 0, 0.0547, 0, 0)">
    <path d="M184, 83.5L348.5, 247.5C353.2, 252.2 353.2, 259.8 348.5, 264.5L184, 428.5C179.3, 433.2 171.7, 433.2 167, 428.5L159.9, 421.4C155.2, 416.7 155.2, 409.1 159.9, 404.4L291.9, 273L12, 273C5.4, 273 0, 267.6 0, 261L0, 251C0, 244.4 5.4, 239 12, 239L291.9, 239L160, 107.6C155.3, 102.9 155.3, 95.3 160, 90.6L167.1, 83.5C171.7, 78.8 179.3, 78.8 184, 83.5zM512, 400L512, 112C512, 85.5 490.5, 64 464, 64L332, 64C325.4, 64 320, 69.4 320, 76L320, 84C320, 90.6 325.4, 96 332, 96L464, 96C472.8, 96 480, 103.2 480, 112L480, 400C480, 408.8 472.8, 416 464, 416L332, 416C325.4, 416 320, 421.4 320, 428L320, 436C320, 442.6 325.4, 448 332, 448L464, 448C490.5, 448 512, 426.5 512, 400z" fill="#727272" fill-opacity="1" class="Black" />
  </g>
</svg>