<?xml version='1.0' encoding='UTF-8'?>
<svg viewBox="-5.5003 -2 32 32" xmlns="http://www.w3.org/2000/svg">
  <g transform="matrix(0.0547, 0, 0, 0.0547, 0, 0)">
    <path d="M64, 240L64, 400C64, 426.5 85.5, 448 112, 448L272, 448C298.5, 448 320, 426.5 320, 400L320, 240C320, 213.5 298.5, 192 272, 192L112, 192C85.5, 192 64, 213.5 64, 240zM216, 264L168, 264L168, 224L216, 224L216, 264zM288, 264L248, 264L248, 224L272, 224C280.8, 224 288, 231.2 288, 240L288, 264zM248, 376L288, 376L288, 400C288, 408.8 280.8, 416 272, 416L248, 416L248, 376zM168, 376L216, 376L216, 416L168, 416L168, 376zM96, 376L136, 376L136, 416L112, 416C103.2, 416 96, 408.8 96, 400L96, 376zM96, 296L288, 296L288, 344L96, 344L96, 296zM96, 240C96, 231.2 103.2, 224 112, 224L136, 224L136, 264L96, 264L96, 240zM0, 64L0, 448C0, 483.3 28.7, 512 64, 512L320, 512C355.3, 512 384, 483.3 384, 448L384, 128L256, 0L64, 0C28.7, 0 0, 28.7 0, 64zM32, 64C32, 46.4 46.4, 32 64, 32L242.7, 32L352, 141.3L352, 448C352, 465.6 337.6, 480 320, 480L64, 480C46.4, 480 32, 465.6 32, 448L32, 64z" fill="#727272" fill-opacity="1" class="Black" />
  </g>
</svg>