<?xml version='1.0' encoding='UTF-8'?>
<svg viewBox="-2 -2 32 32" xmlns="http://www.w3.org/2000/svg">
  <g transform="matrix(0.0547, 0, 0, 0.0547, 0, 0)">
    <path d="M504, 160L272, 160L272, 96L440, 96C444.42, 96 448, 92.42 448, 88L448, 72C448, 67.58 444.42, 64 440, 64L272, 64L272, 8C272, 3.58 268.42, 0 264, 0L248, 0C243.58, 0 240, 3.58 240, 8L240, 64L72, 64C67.58, 64 64, 67.58 64, 72L64, 88C64, 92.42 67.58, 96 72, 96L240, 96L240, 160L8, 160C3.58, 160 0, 163.58 0, 168L0, 184C0, 188.42 3.58, 192 8, 192L240, 192L240, 256L72, 256C67.58, 256 64, 259.58 64, 264L64, 280C64, 284.42 67.58, 288 72, 288L240, 288L240, 352L112, 352C67.82, 352 32, 387.82 32, 432C32, 476.18 67.82, 512 112, 512C156.18, 512 192, 476.18 192, 432C192, 413.9 185.77, 397.4 175.64, 384L336.36, 384C326.23, 397.4 320, 413.9 320, 432C320, 476.18 355.82, 512 400, 512C444.18, 512 480, 476.18 480, 432C480, 387.82 444.18, 352 400, 352L272, 352L272, 288L440, 288C444.42, 288 448, 284.42 448, 280L448, 264C448, 259.58 444.42, 256 440, 256L272, 256L272, 192L504, 192C508.42, 192 512, 188.42 512, 184L512, 168C512, 163.58 508.42, 160 504, 160zM160, 432C160, 458.47 138.47, 480 112, 480C85.53, 480 64, 458.47 64, 432C64, 405.53 85.53, 384 112, 384C138.47, 384 160, 405.53 160, 432zM448, 432C448, 458.47 426.47, 480 400, 480C373.53, 480 352, 458.47 352, 432C352, 405.53 373.53, 384 400, 384C426.47, 384 448, 405.53 448, 432z" fill="#727272" fill-opacity="1" class="Black" />
  </g>
</svg>