<?xml version='1.0' encoding='UTF-8'?>
<svg viewBox="-1.9961 -1.9999 31.9975 32" xmlns="http://www.w3.org/2000/svg">
  <g transform="matrix(0.0547, 0, 0, 0.0547, 0, 0)">
    <path d="M507.3, 465.7C501.1, 459.4 490.9, 459.4 484.7, 465.7C470.3, 480.2 448.1, 484.1 430.5, 476L300.4, 406.3C304.8, 403.1 308.8, 399.3 311.9, 394.7L312.4, 393.9L312.9, 393.1L353.2, 324.7C369.5, 299.5 366, 266 344.7, 244.7L295.2, 195.2L426.5, 267C460.1, 283.7 484.6, 258 490.9, 245.6C502.7, 221.9 493.1, 193 469.4, 181.2L423.3, 158L413.2, 127.8C414.2, 127.8 415.1, 128.1 416, 128.1C451.3, 128.1 480, 99.4 480, 64.1C480, 28.8 451.3, 0 416, 0C381.7, 0 353.8, 27.2 352.3, 61.1C337.3, 57.3 320.9, 56.7 302.7, 64L219.3, 97.4C214.2, 99.4 209.6, 102.3 205.1, 105.2L165.1, 82.3C166.2, 67.1 158.4, 52.1 144, 44.7L132.9, 66.5L98.3, 59.5C93, 58.4 89.8, 65.1 93.8, 68.6L119.9, 91.5C120, 91.6 120, 91.7 120, 91.8L108.5, 114.2C122.2, 121.2 138, 119 149.5, 110.4L182, 129C176.8, 137.1 172.5, 145.9 170.5, 155.7C165.1, 182.1 173.2, 209.3 192.3, 228.3L259.2, 295.2L231.4, 342.4C226.8, 349.6 224.6, 357.6 224.2, 365.5L23.6, 257.9C15.9, 253.8 6.1, 256.6 1.9, 264.4C-2.3, 272.2 0.7, 281.9 8.4, 286.1L416.2, 504.6C427, 509.6 438.5, 512 449.9, 512C471, 512 491.8, 503.8 507.2, 488.3C513.6, 482.1 513.6, 471.9 507.3, 465.7zM416, 32C433.7, 32 448, 46.4 448, 64C448, 81.6 433.7, 96 416, 96C398.3, 96 384, 81.6 384, 64C384, 46.4 398.3, 32 416, 32zM314.6, 93.8C347.4, 80.7 372, 105.4 377.9, 123.2L397.1, 180.7L455.2, 209.7C474.2, 219.2 459.8, 247.7 440.9, 238.3L412.6, 224.2L372.8, 201.4C370.2, 198.3 368.1, 194.8 366.8, 190.8L348.7, 136.4L298.6, 158.8L238.4, 124.3L314.6, 93.8zM258.7, 359.2L299.4, 290.1L215, 205.6C203.6, 194.2 198.7, 177.9 201.9, 162C203.2, 155.6 206, 149.9 209.6, 144.7L262.3, 174.9L239.6, 185L322, 267.4C332.8, 278.2 334.4, 295.2 326, 307.8L285.3, 376.9C273.4, 394.6 247, 376.7 258.7, 359.2z" fill="#727272" fill-opacity="1" class="Black" />
  </g>
</svg>