<?xml version='1.0' encoding='UTF-8'?>
<svg viewBox="-2 -2 32 32" xmlns="http://www.w3.org/2000/svg">
  <g transform="matrix(0.0547, 0, 0, 0.0547, 0, 0)">
    <path d="M352, 184C312.2, 184 280, 216.2 280, 256C280, 295.8 312.2, 328 352, 328C391.8, 328 424, 295.8 424, 256C424, 216.2 391.8, 184 352, 184zM352, 296C329.9, 296 312, 278.1 312, 256C312, 233.9 329.9, 216 352, 216C374.1, 216 392, 233.9 392, 256C392, 278.1 374.1, 296 352, 296zM160, 184C120.2, 184 88, 216.2 88, 256C88, 295.8 120.2, 328 160, 328C199.8, 328 232, 295.8 232, 256C232, 216.2 199.8, 184 160, 184zM160, 296C137.9, 296 120, 278.1 120, 256C120, 233.9 137.9, 216 160, 216C182.1, 216 200, 233.9 200, 256C200, 278.1 182.1, 296 160, 296zM256, 0C114.6, 0 0, 100.3 0, 224C0, 294.1 36.9, 356.6 94.5, 397.7C104.2, 404.6 109.7, 415.8 108, 427.6L100.9, 448.9C90.6, 480 113.8, 512 146.5, 512L365.5, 512C398.2, 512 421.4, 480 411.1, 448.9L404, 427.6C402.3, 415.9 407.8, 404.6 417.5, 397.7C475.1, 356.6 512, 294.1 512, 224C512, 100.3 397.4, 0 256, 0zM398.9, 371.6C379.2, 385.6 369, 408.8 372.3, 432L372.7, 434.8L373.6, 437.6L380.7, 458.9C382.9, 465.7 380.3, 470.8 378.5, 473.3C376.7, 475.8 372.7, 479.9 365.5, 479.9L320, 479.9L320, 423.9C320, 419.5 316.4, 415.9 312, 415.9L296, 415.9C291.6, 415.9 288, 419.5 288, 423.9L288, 479.9L224, 479.9L224, 423.9C224, 419.5 220.4, 415.9 216, 415.9L200, 415.9C195.6, 415.9 192, 419.5 192, 423.9L192, 479.9L146.5, 479.9C139.4, 479.9 135.3, 475.7 133.5, 473.3C131.7, 470.8 129, 465.6 131.3, 458.9L138.4, 437.6L139.3, 434.8L139.7, 432C143, 408.8 132.8, 385.6 113.1, 371.6C61.5, 334.9 32, 281.1 32, 224C32, 118.1 132.5, 32 256, 32C379.5, 32 480, 118.1 480, 224C480, 281.1 450.5, 334.9 398.9, 371.6z" fill="#727272" fill-opacity="1" class="Black" />
  </g>
</svg>