<?xml version='1.0' encoding='UTF-8'?>
<svg viewBox="-2 -4.798 32 32" xmlns="http://www.w3.org/2000/svg">
  <g transform="matrix(0.9988, 0, 0, 0.9988, 0, 0)">
    <g transform="matrix(0.0438, 0, 0, 0.0438, 0, 0)">
      <path d="M603.26, 4.58A16 16 0 0 0 577.05, 21.58C583.12, 37.7 596.65, 89.17 579.93, 113.28C573.13, 123.05 561.4, 128 544, 128L471, 127.82A63.73 63.73 0 0 0 416, 96L224, 96A63.71 63.71 0 0 0 168.88, 128L96, 128C78.65, 128 66.92, 123.07 60.12, 113.3C43.35, 89.22 56.49, 38.92 63, 21.57A16 16 0 0 0 36.81, 4.57C13.05, 27.81 0, 60.17 0, 95.7C0, 166.18 57.43, 224 128, 224L160, 224L160, 304A64 64 0 0 0 224, 368L250.4, 486.93A32 32 0 0 0 281.6, 512L358.26, 512A32 32 0 0 0 389.49, 487L416, 368A64 64 0 0 0 480, 304L480, 224L512, 224C582.59, 224 640, 166.17 640, 95.7C640, 60.18 627, 27.82 603.26, 4.58zM160, 192L128, 192C92.49, 192 61.44, 172.23 44.81, 143.55C55.44, 152.38 71.6, 160 96, 160L160, 160zM448, 304A32 32 0 0 1 416, 336L390.3, 336L384.72, 361.05L358.26, 480L281.6, 480L255.2, 361.07L249.64, 336L224, 336A32 32 0 0 1 192, 304L192, 160A32 32 0 0 1 224, 128L416, 128A32 32 0 0 1 448, 160zM512, 192L480, 192L480, 160C480, 159.93 480, 159.87 480, 159.81L544, 160C568.36, 160 584.5, 152.4 595.11, 143.57C578.52, 172.23 547.47, 192 512, 192zM256, 224A32 32 0 1 0 288, 256A32 32 0 0 0 256, 224zM384, 224A32 32 0 1 0 416, 256A32 32 0 0 0 384, 224z" fill="#727272" fill-opacity="1" class="Black" />
    </g>
  </g>
</svg>