<?xml version='1.0' encoding='UTF-8'?>
<svg viewBox="-1.9975 -1.9963 32 32" xmlns="http://www.w3.org/2000/svg">
  <g transform="matrix(0.0547, 0, 0, 0.0547, 0, 0)">
    <path d="M507.3, 433.1C501.1, 426.8 490.9, 426.8 484.7, 433.1C469.6, 448.2 446.5, 452.3 427.7, 443.7L367.1, 412.4C377.4, 403.6 384, 390.7 384, 376.1L384, 288.1C384, 261.6 362.5, 240.1 336, 240.1L323.9, 240.1L342.6, 221.4C360.4, 203.6 365.7, 177.4 357.1, 154C365.3, 157.8 374.4, 160.1 384, 160.1C419.3, 160.1 448, 131.4 448, 96.1C448, 60.8 419.3, 32.1 384, 32.1C348.7, 32.1 320, 60.8 320, 96.1C320, 104.1 321.7, 111.7 324.3, 118.8C315.9, 114.9 307, 112.1 297.3, 112.1L160, 112.1C133.5, 112.1 112, 133.6 112, 160.1C112, 186.6 133.5, 208.1 160, 208.1L188.1, 208.1L169.4, 226.8C151, 245.2 145.6, 272.6 155.5, 296.6C156.9, 300 159.2, 302.8 161.1, 305.9L23.4, 234.6C15.7, 230.6 5.9, 233.6 1.8, 241.5C-2.3, 249.3 0.8, 259 8.7, 263.1L413.7, 472.4C424.8, 477.5 436.7, 480 448.4, 480C470.1, 480 491.5, 471.6 507.3, 455.7C513.6, 449.4 513.6, 439.3 507.3, 433.1zM384, 64C401.7, 64 416, 78.4 416, 96C416, 113.6 401.7, 128 384, 128C366.3, 128 352, 113.6 352, 96C352, 78.4 366.3, 64 384, 64zM192, 249.4L265.4, 176L160, 176C151.2, 176 144, 168.8 144, 160C144, 151.2 151.2, 144 160, 144L297.4, 144C310.4, 144 322, 151.8 327, 163.8C332, 175.8 329.2, 189.5 320.1, 198.7L246.6, 272L336, 272C344.8, 272 352, 279.2 352, 288L352, 376C352, 384.8 344.8, 392 336, 392C327.2, 392 320, 384.8 320, 376L320, 304L214.6, 304C186.1, 304 171.8, 269.6 192, 249.4zM288, 336L288, 371.4L219.5, 336L288, 336z" fill="#727272" fill-opacity="1" class="Black" />
  </g>
</svg>