<?xml version='1.0' encoding='UTF-8'?>
<svg viewBox="-3.7505 -1.9998 32 31.9975" xmlns="http://www.w3.org/2000/svg">
  <g transform="matrix(0.0547, 0, 0, 0.0547, 0, 0)">
    <path d="M160, 168L160, 120C160, 106.7 149.3, 96 136, 96L96, 96L96, 8C96, 3.6 92.4, 0 88, 0L72, 0C67.6, 0 64, 3.6 64, 8L64, 96L24, 96C10.7, 96 0, 106.7 0, 120L0, 168C0, 181.3 10.7, 192 24, 192L64, 192L64, 504C64, 508.4 67.6, 512 72, 512L88, 512C92.4, 512 96, 508.4 96, 504L96, 192L136, 192C149.3, 192 160, 181.3 160, 168zM128, 160L32, 160L32, 128L128, 128L128, 160zM280, 320L240, 320L240, 8C240, 3.6 236.4, 0 232, 0L216, 0C211.6, 0 208, 3.6 208, 8L208, 320L168, 320C154.7, 320 144, 330.7 144, 344L144, 392C144, 405.3 154.7, 416 168, 416L208, 416L208, 504C208, 508.4 211.6, 512 216, 512L232, 512C236.4, 512 240, 508.4 240, 504L240, 416L280, 416C293.3, 416 304, 405.3 304, 392L304, 344C304, 330.7 293.3, 320 280, 320zM272, 384L176, 384L176, 352L272, 352L272, 384zM424, 160L384, 160L384, 8C384, 3.6 380.4, 0 376, 0L360, 0C355.6, 0 352, 3.6 352, 8L352, 160L312, 160C298.7, 160 288, 170.7 288, 184L288, 232C288, 245.3 298.7, 256 312, 256L352, 256L352, 504C352, 508.4 355.6, 512 360, 512L376, 512C380.4, 512 384, 508.4 384, 504L384, 256L424, 256C437.3, 256 448, 245.3 448, 232L448, 184C448, 170.7 437.3, 160 424, 160zM416, 224L320, 224L320, 192L416, 192L416, 224z" fill="#727272" fill-opacity="1" class="Black" />
  </g>
</svg>