<?xml version='1.0' encoding='UTF-8'?>
<svg viewBox="-2 0 32 32" xmlns="http://www.w3.org/2000/svg">
  <g transform="matrix(0.0625, 0, 0, 0.0625, 0, 0)">
    <path d="M400, 32L48, 32C21.5, 32 0, 53.5 0, 80L0, 432C0, 458.5 21.5, 480 48, 480L400, 480C426.5, 480 448, 458.5 448, 432L448, 80C448, 53.5 426.5, 32 400, 32zM416, 432C416, 440.8 408.8, 448 400, 448L48, 448C39.2, 448 32, 440.8 32, 432L32, 80C32, 71.2 39.2, 64 48, 64L400, 64C408.8, 64 416, 71.2 416, 80L416, 432zM324, 160L224, 160L224, 120C224, 106.8 213.2, 96 200, 96L152, 96C138.8, 96 128, 106.8 128, 120L128, 160L92, 160C85.4, 160 80, 165.4 80, 172L80, 180C80, 186.6 85.4, 192 92, 192L128, 192L128, 232C128, 245.2 138.8, 256 152, 256L200, 256C213.2, 256 224, 245.2 224, 232L224, 192L324, 192C330.6, 192 336, 186.6 336, 180L336, 172C336, 165.4 330.6, 160 324, 160zM192, 224L160, 224L160, 128L192, 128L192, 224zM340, 320L320, 320L320, 280C320, 266.8 309.2, 256 296, 256L248, 256C234.8, 256 224, 266.8 224, 280L224, 320L108, 320C101.4, 320 96, 325.4 96, 332L96, 340C96, 346.6 101.4, 352 108, 352L224, 352L224, 392C224, 405.2 234.8, 416 248, 416L296, 416C309.2, 416 320, 405.2 320, 392L320, 352L340, 352C346.6, 352 352, 346.6 352, 340L352, 332C352, 325.4 346.6, 320 340, 320zM288, 384L256, 384L256, 288L288, 288L288, 384z" fill="#727272" fill-opacity="1" class="Black" />
  </g>
</svg>