<?xml version='1.0' encoding='UTF-8'?>
<svg viewBox="-2 -1.9988 32 32" xmlns="http://www.w3.org/2000/svg">
  <g transform="matrix(0.0547, 0, 0, 0.0547, 0, 0)">
    <path d="M504, 384L192, 384L192, 344C192, 330.7 181.3, 320 168, 320L120, 320C106.7, 320 96, 330.7 96, 344L96, 384L8, 384C3.6, 384 0, 387.6 0, 392L0, 408C0, 412.4 3.6, 416 8, 416L96, 416L96, 456C96, 469.3 106.7, 480 120, 480L168, 480C181.3, 480 192, 469.3 192, 456L192, 416L504, 416C508.4, 416 512, 412.4 512, 408L512, 392C512, 387.6 508.4, 384 504, 384zM160, 448L128, 448L128, 352L160, 352L160, 448zM504, 96L256, 96L256, 56C256, 42.7 245.3, 32 232, 32L184, 32C170.7, 32 160, 42.7 160, 56L160, 96L8, 96C3.6, 96 0, 99.6 0, 104L0, 120C0, 124.4 3.6, 128 8, 128L160, 128L160, 168C160, 181.3 170.7, 192 184, 192L232, 192C245.3, 192 256, 181.3 256, 168L256, 128L504, 128C508.4, 128 512, 124.4 512, 120L512, 104C512, 99.6 508.4, 96 504, 96zM224, 160L192, 160L192, 64L224, 64L224, 160zM504, 240L416, 240L416, 200C416, 186.7 405.3, 176 392, 176L344, 176C330.7, 176 320, 186.7 320, 200L320, 240L8, 240C3.6, 240 0, 243.6 0, 248L0, 264C0, 268.4 3.6, 272 8, 272L320, 272L320, 312C320, 325.3 330.7, 336 344, 336L392, 336C405.3, 336 416, 325.3 416, 312L416, 272L504, 272C508.4, 272 512, 268.4 512, 264L512, 248C512, 243.6 508.4, 240 504, 240zM384, 304L352, 304L352, 208L384, 208L384, 304z" fill="#727272" fill-opacity="1" class="Black" />
  </g>
</svg>