<?xml version='1.0' encoding='UTF-8'?>
<svg viewBox="-1.9999 -1.549 31.9975 32" xmlns="http://www.w3.org/2000/svg">
  <g transform="matrix(0.999, 0, 0, 0.999, 0, 0)">
    <g transform="matrix(0.0565, 0, 0, 0.0565, 0, 0)">
      <path d="M248, 8C111, 8 0, 119 0, 256C0, 393 111, 504 248, 504C385, 504 496, 393 496, 256C496, 119 385, 8 248, 8zM400.7, 408.7C380.9, 428.5 357.7, 444.1 332, 455C305.4, 466.3 277.1, 472 247.9, 472C218.7, 472 190.4, 466.3 163.8, 455C138.1, 444.1 115, 428.5 95.1, 408.7C75.3, 388.9 59.7, 365.7 48.8, 340C37.5, 313.4 31.8, 285.1 31.8, 255.9C31.8, 226.7 37.5, 198.4 48.8, 171.8C59.7, 146.1 75.3, 123 95.1, 103.1C114.9, 83.3 138.1, 67.7 163.8, 56.8C190.4, 45.5 218.7, 39.8 247.9, 39.8C277.1, 39.8 305.4, 45.5 332, 56.8C357.7, 67.7 380.8, 83.3 400.7, 103.1C420.5, 122.9 436.1, 146.1 447, 171.8C458.3, 198.4 464, 226.7 464, 255.9C464, 285.1 458.3, 313.4 447, 340C436.2, 365.8 420.6, 388.9 400.7, 408.7zM168, 240C185.7, 240 200, 225.7 200, 208C200, 190.3 185.7, 176 168, 176C150.3, 176 136, 190.3 136, 208C136, 225.7 150.3, 240 168, 240zM328, 180C302.3, 180 272.1, 196.9 268.1, 222.1C266.4, 233.3 279.6, 240.3 287.9, 232.9L297.4, 224.4C312.2, 211.2 343.6, 211.2 358.4, 224.4L367.9, 232.9C376.4, 240.3 389.5, 233.2 387.7, 222.1C383.9, 196.9 353.7, 180 328, 180zM338.2, 325.8C315.8, 352.6 282.9, 368 248, 368C213.1, 368 180.2, 352.6 157.8, 325.8C144.3, 309.6 119.6, 330 133.2, 346.3C161.7, 380.4 203.5, 400 248, 400C292.5, 400 334.3, 380.4 362.8, 346.2C376.3, 330 351.7, 309.5 338.2, 325.8z" fill="#727272" fill-opacity="1" class="Black" />
    </g>
  </g>
</svg>