<?xml version='1.0' encoding='UTF-8'?>
<svg viewBox="-1.9999 -1.549 31.9975 32" xmlns="http://www.w3.org/2000/svg">
  <g transform="matrix(0.999, 0, 0, 0.999, 0, 0)">
    <g transform="matrix(0.0565, 0, 0, 0.0565, 0, 0)">
      <path d="M168, 205.4C180.3, 205.4 191.8, 213.3 199.5, 227L209, 244C211.1, 247.7 215.2, 248.7 218.3, 247.7C221.9, 246.6 224.3, 243.2 224, 239.4C220.7, 197.3 191.8, 168 168, 168C144.2, 168 115.3, 197.3 112, 239.4C111.7, 243.1 114.1, 246.6 117.7, 247.7C121.1, 248.8 125.1, 247.2 127, 244L136.5, 227C144.2, 213.2 155.7, 205.4 168, 205.4zM248, 8C111, 8 0, 119 0, 256C0, 393 111, 504 248, 504C385, 504 496, 393 496, 256C496, 119 385, 8 248, 8zM248, 472C128.9, 472 32, 375.1 32, 256C32, 136.9 128.9, 40 248, 40C367.1, 40 464, 136.9 464, 256C464, 375.1 367.1, 472 248, 472zM328, 168C304.2, 168 275.3, 197.3 272, 239.4C271.7, 243.1 274.1, 246.6 277.7, 247.7C281.1, 248.8 285.1, 247.2 287, 244L296.5, 227C304.2, 213.3 315.7, 205.4 328, 205.4C340.3, 205.4 351.8, 213.3 359.5, 227L369, 244C371.1, 247.7 375.2, 248.7 378.3, 247.7C381.9, 246.6 384.3, 243.2 384, 239.4C380.7, 197.3 351.8, 168 328, 168zM338.2, 325.8C315.8, 352.6 282.9, 368 248, 368C213.1, 368 180.2, 352.6 157.8, 325.8C152.1, 319 142, 318.1 135.3, 323.8C128.5, 329.5 127.6, 339.5 133.3, 346.3C161.7, 380.4 203.6, 400 248, 400C292.4, 400 334.3, 380.4 362.8, 346.2C368.5, 339.4 367.6, 329.3 360.8, 323.7C353.9, 318.1 343.9, 319 338.2, 325.8z" fill="#727272" fill-opacity="1" class="Black" />
    </g>
  </g>
</svg>