<?xml version='1.0' encoding='UTF-8'?>
<svg viewBox="-2 -4.7992 32 32" xmlns="http://www.w3.org/2000/svg">
  <g transform="matrix(0.9988, 0, 0, 0.9988, 0, 0)">
    <g transform="matrix(0.0438, 0, 0, 0.0438, 0, 0)">
      <path d="M179.2, 288L284.4, 288C308.7, 308.7 339, 320 371.2, 320C403.4, 320 433.7, 308.7 458, 288L486.4, 288C553.5, 288 608, 234.6 608, 168.9C608, 103.2 553.4, 49.8 486.4, 49.8C477.2, 49.8 468, 50.9 459, 53C431.4, 19.8 389.9, 0 345.6, 0C315.4, 0 286.7, 8.9 262.4, 25.4C238.1, 8.9 209.4, 0 179.2, 0C98, 0 32, 64.6 32, 144C32, 223.4 98, 288 179.2, 288zM179.2, 32C212, 32 241.4, 45.5 262.4, 66.9C283.4, 45.5 312.8, 32 345.6, 32C389.5, 32 427.2, 56.1 446.6, 91.2C458.6, 85.4 472, 81.8 486.4, 81.8C535.9, 81.8 576, 120.8 576, 168.9C576, 217 535.9, 256 486.4, 256L445.3, 256C426.6, 275.6 400.4, 288 371.2, 288C342, 288 315.8, 275.6 297.1, 256L179.2, 256C115.6, 256 64, 205.9 64, 144C64, 82.1 115.6, 32 179.2, 32zM632, 384L72, 384C67.6, 384 64, 387.6 64, 392L64, 408C64, 412.4 67.6, 416 72, 416L632, 416C636.4, 416 640, 412.4 640, 408L640, 392C640, 387.6 636.4, 384 632, 384zM568, 480L232, 480C227.6, 480 224, 483.6 224, 488L224, 504C224, 508.4 227.6, 512 232, 512L568, 512C572.4, 512 576, 508.4 576, 504L576, 488C576, 483.6 572.4, 480 568, 480zM152, 480L8, 480C3.6, 480 0, 483.6 0, 488L0, 504C0, 508.4 3.6, 512 8, 512L152, 512C156.4, 512 160, 508.4 160, 504L160, 488C160, 483.6 156.4, 480 152, 480z" fill="#727272" fill-opacity="1" class="Black" />
    </g>
  </g>
</svg>