<?xml version='1.0' encoding='UTF-8'?>
<svg viewBox="-2 -4.7992 32 32" xmlns="http://www.w3.org/2000/svg">
  <g transform="matrix(0.9988, 0, 0, 0.9988, 0, 0)">
    <g transform="matrix(0.0438, 0, 0, 0.0438, 0, 0)">
      <path d="M640, 240C640, 160.6 575.4, 96 496, 96C475.5, 96 455.7, 100.7 437.4, 109C412.2, 63.3 363.8, 32 308, 32C287.5, 32 267.4, 36.5 248.1, 45.2C220.8, 16.3 183.6, 0 144, 0C64.6, 0 0, 64.6 0, 144C0, 184.8 17.3, 221.3 44.7, 247.4C17.1, 275.5 0, 313.9 0, 356.3C0, 442.2 69.8, 512 155.7, 512L517.2, 512C584.9, 512 640, 456.9 640, 389.2C640, 362.3 631, 337.5 616.3, 317.3C630.9, 294.9 640, 268.7 640, 240zM608, 240C608, 259.6 602.6, 277.9 593.6, 293.8C572.6, 276.9 546.2, 266.3 517.1, 266.3C494, 266.3 472, 272.8 452.4, 285.1C426.1, 252.5 386.9, 233.4 344.5, 233.4C319, 233.4 294.4, 240.5 272.5, 253.9C264.3, 244.6 255.1, 236.4 245.1, 229.3C258, 189.1 295.4, 159.8 339.8, 159.8C356.8, 159.8 373.3, 164.3 389, 173.3L400.8, 180L409.4, 169.5C431, 143 462.5, 127.8 495.9, 127.8C557.8, 128 608, 178.2 608, 240zM32, 144C32, 82.2 82.2, 32 144, 32C178.1, 32 210, 47.7 231.6, 75.1L240, 85.8L251.9, 79.2C269.9, 69.2 288.8, 64.1 308, 64.1C352.3, 64.1 390.5, 89.2 409.9, 125.9C404.2, 130.3 398.5, 134.6 393.4, 139.9C376.3, 132.1 358.4, 128.1 340, 128.1C283.6, 128.1 236, 163.9 217.2, 213.7C198, 205.3 177.1, 200.7 155.7, 200.7C123.7, 200.7 94, 210.4 69.3, 227C46.5, 206.5 32, 177 32, 144zM517.2, 480L155.7, 480C87.5, 480 32, 424.5 32, 356.3C32, 288.1 87.5, 232.6 155.7, 232.6C195.5, 232.6 233.2, 252.2 256.4, 284.9L266.1, 298.5L279.3, 288.3C298.6, 273.3 321.2, 265.4 344.7, 265.4C381.6, 265.4 415.5, 284.3 435.4, 316L445.2, 331.6L459.3, 319.8C476.1, 305.7 496.2, 298.2 517.3, 298.2C567.4, 298.2 608.1, 338.9 608.1, 389C608.1, 439.1 567.2, 480 517.2, 480z" fill="#727272" fill-opacity="1" class="Black" />
    </g>
  </g>
</svg>