<?xml version='1.0' encoding='UTF-8'?>
<svg viewBox="-3.7495 -2 32 32" xmlns="http://www.w3.org/2000/svg">
  <g transform="matrix(0.0547, 0, 0, 0.0547, 0, 0)">
    <path d="M176, 272L24, 272A8 8 0 0 0 16, 280L16, 296A8 8 0 0 0 24, 304L155.19, 304L3.72, 469.75A16.06 16.06 0 0 0 0, 480L0, 496A16 16 0 0 0 16, 512L184, 512A8 8 0 0 0 192, 504L192, 488A8 8 0 0 0 184, 480L36.81, 480L188.29, 314.23A15.94 15.94 0 0 0 192, 304L192, 288A16 16 0 0 0 176, 272zM272, 0L168, 0A8 8 0 0 0 160, 8L160, 24A8 8 0 0 0 168, 32L246, 32L147.44, 157.2A16.07 16.07 0 0 0 144, 167.11L144, 176A16 16 0 0 0 160, 192L280, 192A8 8 0 0 0 288, 184L288, 168A8 8 0 0 0 280, 160L186, 160L284.56, 34.8A16.07 16.07 0 0 0 288, 24.89L288, 16A16 16 0 0 0 272, 0zM448, 248.89L448, 240A16 16 0 0 0 432, 224L328, 224A8 8 0 0 0 320, 232L320, 248A8 8 0 0 0 328, 256L406, 256L307.44, 381.2A16.07 16.07 0 0 0 304, 391.11L304, 400A16 16 0 0 0 320, 416L440, 416A8 8 0 0 0 448, 408L448, 392A8 8 0 0 0 440, 384L346, 384L444.59, 258.8A16.07 16.07 0 0 0 448, 248.89z" fill="#727272" fill-opacity="1" class="Black" />
  </g>
</svg>