<?xml version='1.0' encoding='UTF-8'?>
<svg viewBox="-1.9948 -4.7962 32 32" xmlns="http://www.w3.org/2000/svg">
  <g transform="matrix(0.9991, 0, 0, 0.9991, 0, 0)">
    <g transform="matrix(0.0438, 0, 0, 0.0438, 0, 0)">
      <path d="M527.9, 120C527.9, 124.4 531.5, 128 535.9, 128L551.9, 128C556.3, 128 559.9, 124.4 559.9, 120L559.9, 91.6L587.9, 107.7C591.7, 109.9 596.6, 108.6 598.8, 104.8L606.8, 90.9C609, 87.1 607.7, 82.2 603.9, 80L576, 64L603.9, 48C607.7, 45.8 609, 40.9 606.8, 37.1L598.8, 23.2C596.6, 19.4 591.7, 18.1 587.9, 20.3L559.9, 36.4L559.9, 8C559.9, 3.6 556.3, 0 551.9, 0L535.9, 0C531.5, 0 527.9, 3.6 527.9, 8L527.9, 36.4L499.9, 20.3C496.1, 18.1 491.2, 19.4 489, 23.2L481, 37.1C478.8, 40.9 480.1, 45.8 483.9, 48L511.8, 64L483.9, 80C480.1, 82.2 478.8, 87.1 481, 90.9L489, 104.8C491.2, 108.6 496.1, 109.9 499.9, 107.7L527.9, 91.6L527.9, 120zM608.1, 256L636, 240C639.8, 237.8 641.1, 232.9 638.9, 229.1L630.9, 215.2C628.7, 211.4 623.8, 210.1 620, 212.3L592, 228.4L592, 200C592, 195.6 588.4, 192 584, 192L568, 192C563.6, 192 560, 195.6 560, 200L560, 228.4L532, 212.3C528.2, 210.1 523.3, 211.4 521.1, 215.2L513.1, 229.1C510.9, 232.9 512.2, 237.8 516, 240L543.9, 256L516, 272C512.2, 274.2 510.9, 279.1 513.1, 282.9L521.1, 296.8C523.3, 300.6 528.2, 301.9 532, 299.7L560, 283.6L560, 312C560, 316.4 563.6, 320 568, 320L584, 320C588.4, 320 592, 316.4 592, 312L592, 283.6L620, 299.7C623.8, 301.9 628.7, 300.6 630.9, 296.8L638.9, 282.9C641.1, 279.1 639.8, 274.2 636, 272L608.1, 256zM387.9, 333.5L440.6, 319.2C444.8, 318.1 447.3, 313.7 446.2, 309.4L442.1, 293.9C441, 289.6 436.6, 287.1 432.4, 288.2L349.3, 310.8L255.5, 256L349.2, 201.2L432.3, 223.8C436.5, 224.9 440.9, 222.4 442, 218.1L446.1, 202.6C447.2, 198.3 444.7, 193.9 440.5, 192.8L387.8, 178.5L443.7, 145.8C447.5, 143.6 448.8, 138.7 446.6, 134.9L438.7, 121C436.5, 117.2 431.7, 115.9 427.9, 118.1L372, 150.8L386.1, 97.5C387.2, 93.2 384.7, 88.8 380.5, 87.7L365.2, 83.6C361, 82.5 356.6, 85 355.5, 89.3L333.2, 173.5L239.5, 228.3L239.5, 118.6L300.5, 57C303.6, 53.9 303.6, 48.8 300.5, 45.7L289.3, 34.4C286.2, 31.3 281.2, 31.3 278.1, 34.4L239.5, 73.4L239.5, 8C239.5, 3.6 236, 0 231.6, 0L215.8, 0C211.4, 0 207.9, 3.6 207.9, 8L207.9, 73.4L169.3, 34.4C166.2, 31.3 161.2, 31.3 158.1, 34.4L146.9, 45.7C143.8, 48.8 143.8, 53.9 146.9, 57L207.8, 118.7L207.8, 228.4L114.1, 173.6L92.1, 89.2C91, 84.9 86.6, 82.4 82.4, 83.5L67.1, 87.6C62.9, 88.7 60.4, 93.1 61.5, 97.4L75.6, 150.7L19.8, 118C16, 115.8 11.2, 117.1 9, 120.9L1.1, 134.8C-1.1, 138.6 0.2, 143.5 4, 145.7L59.9, 178.4L7.3, 192.8C3.1, 193.9 0.6, 198.3 1.7, 202.6L5.8, 218.1C6.9, 222.4 11.3, 224.9 15.5, 223.8L98.6, 201.2L192.3, 256L98.6, 310.8L15.5, 288.2C11.3, 287.1 6.9, 289.6 5.8, 293.9L1.7, 309.4C0.6, 313.7 3.1, 318.1 7.3, 319.2L60, 333.5L4.1, 366.1C0.3, 368.3 -1, 373.2 1.2, 377L9.1, 390.9C11.3, 394.7 16.1, 396 19.9, 393.8L75.8, 361.1L61.7, 414.4C60.6, 418.7 63.1, 423.1 67.3, 424.2L82.6, 428.3C86.8, 429.4 91.2, 426.9 92.3, 422.6L114.6, 338.4L208.3, 283.6L208.3, 393.3L147.3, 455C144.2, 458.1 144.2, 463.2 147.3, 466.3L158.5, 477.6C161.6, 480.7 166.6, 480.7 169.7, 477.6L208.3, 438.6L208.3, 504C208.3, 508.4 211.8, 512 216.2, 512L232, 512C236.4, 512 239.9, 508.4 239.9, 504L239.9, 438.6L278.5, 477.6C281.6, 480.7 286.6, 480.7 289.7, 477.6L300.9, 466.3C304, 463.2 304, 458.1 300.9, 455L240, 393.3L240, 283.7L333.7, 338.5L356, 422.7C357.1, 427 361.5, 429.5 365.7, 428.4L381, 424.3C385.2, 423.2 387.7, 418.8 386.6, 414.5L372.5, 361.2L428.4, 393.9C432.2, 396.1 437, 394.8 439.2, 391L447.1, 377.1C449.3, 373.3 448, 368.4 444.2, 366.2L387.9, 333.5z" fill="#727272" fill-opacity="1" class="Black" />
    </g>
  </g>
</svg>