<?xml version='1.0' encoding='UTF-8'?>
<svg viewBox="-2.0074 -1.9999 32 31.9975" xmlns="http://www.w3.org/2000/svg">
  <g transform="matrix(0.9993, 0, 0, 0.9993, 0, 0)">
    <g transform="matrix(0.0547, 0, 0, 0.0547, 0, 0)">
      <path d="M492.8, 177.6L425.4, 127C456.2, 122.4 480, 96 480, 64C480, 28.7 451.3, 0 416, 0C380.7, 0 352, 28.7 352, 64C352, 70.6 353.3, 76.9 355.2, 83C353.4, 82.3 351.7, 81.4 349.9, 80.8L302.3, 65.4L283, 26.5C274.8, 10.2 258.3, 0 240, 0C232.7, 0 225.3, 1.7 218.7, 5C194.9, 16.9 185.3, 45.8 197.1, 69.4L222.5, 120.2C225.1, 125.4 228.3, 130.1 232.1, 134.3L220.3, 140.2C193, 153.8 176, 181.3 176, 211.8L176, 253.4L112.8, 274.5C87.7, 282.8 74.1, 310 82.4, 335.2C86.7, 348.1 96.3, 357.7 108.1, 363.2L56.8, 344.5C45.1, 340.2 35.8, 331.7 30.5, 320.4C26.7, 312.4 17.2, 309 9.2, 312.7C1.2, 316.4 -2.3, 326 1.5, 334C10.4, 353 26.1, 367.4 45.8, 374.6L410.6, 507.4C419.4, 510.6 428.5, 512.2 437.5, 512.2C448.8, 512.2 460.1, 509.7 470.7, 504.8C478.7, 501.1 482.2, 491.6 478.5, 483.6C474.8, 475.6 465.2, 472.2 457.2, 475.9C445.9, 481.1 433.3, 481.7 421.5, 477.4L336.9, 446.6C355.3, 442.9 370.7, 429.2 374.8, 410.3L396.7, 308.3C401.9, 283.9 392.3, 258.5 372.2, 243.4L341.1, 221L371.8, 206.8L435.2, 254.4C443.6, 260.7 453.5, 264 464, 264C479, 264 493.4, 256.8 502.4, 244.8C518.3, 223.6 514, 193.4 492.8, 177.6zM416, 32C433.7, 32 448, 46.4 448, 64C448, 81.6 433.7, 96 416, 96C398.3, 96 384, 81.6 384, 64C384, 46.4 398.4, 32 416, 32zM291.3, 429.7L116.6, 366.1C119.2, 366.7 129.1, 370.1 143.2, 365.4L228.3, 337.1C250.5, 329.7 266.5, 311.1 270.9, 288.8L298.6, 308.5L281.2, 389.9C276, 413.6 288.7, 426.5 291.3, 429.7zM476.8, 225.6C471.5, 232.7 461.5, 234.1 454.4, 228.8L375.7, 169.8L277.6, 215L353.2, 268.8C363.5, 276.5 368.2, 289.2 365.6, 301.3L343.8, 403.3C341.8, 412.6 332.7, 417.3 324.8, 415.6C316.1, 413.8 310.6, 405.3 312.5, 396.6L334.3, 294.6L240.1, 227.6L240.1, 276.4C240.1, 290.2 231.3, 302.4 218.2, 306.8C126.2, 337.5 131.7, 336 128.1, 336C121.4, 336 115.2, 331.8 112.9, 325.1C110.1, 316.7 114.7, 307.6 123, 304.9L208.1, 276.5L208.1, 211.8C208.1, 193.5 218.3, 177.1 234.6, 168.9L305.6, 133.4L268.5, 121C260.9, 118.5 254.7, 113.1 251.2, 105.9L225.8, 55.1C221.9, 47.2 225, 37.6 233, 33.6C242.4, 28.9 251.3, 34.4 254.5, 40.8L279.9, 91.6L340, 111C353.1, 115.3 365.3, 121.7 376.3, 130L473.8, 203.1C480.7, 208.5 482.1, 218.5 476.8, 225.6z" fill="#727272" fill-opacity="1" class="Black" />
    </g>
  </g>
</svg>