<?xml version='1.0' encoding='UTF-8'?>
<svg viewBox="-1.9975 -4.7973 32 32" xmlns="http://www.w3.org/2000/svg">
  <g transform="matrix(0.999, 0, 0, 0.999, 0, 0)">
    <g transform="matrix(0.0438, 0, 0, 0.0438, 0, 0)">
      <path d="M586.22, 26.74C583.65, 11.31 570.3, 0 554.66, 0L85.34, 0C69.7, 0 56.35, 11.31 53.78, 26.74L0.45, 346.74C-2.81, 366.24 12.23, 384 32.01, 384L224, 384L224, 480L184, 480C179.58, 480 176, 483.58 176, 488L176, 504C176, 508.42 179.58, 512 184, 512L456, 512C460.42, 512 464, 508.42 464, 504L464, 488C464, 483.58 460.42, 480 456, 480L416, 480L416, 384L607.99, 384C627.76, 384 642.8, 366.24 639.55, 346.74L586.22, 26.74zM578.66, 176L440.06, 176L425.66, 32L554.66, 32L578.66, 176zM407.93, 176L232.07, 176L246.47, 32L393.54, 32L407.93, 176zM85.34, 32L214.34, 32L199.94, 176L61.34, 176L85.34, 32zM56.01, 208L196.74, 208L182.34, 352L32.01, 352L56.01, 208zM384, 480L256, 480L256, 384L384, 384L384, 480zM214.48, 352L228.88, 208L411.13, 208L425.53, 352L214.48, 352zM457.65, 352L443.25, 208L583.99, 208L607.99, 352L457.65, 352z" fill="#727272" fill-opacity="1" class="Black" />
    </g>
  </g>
</svg>