<?xml version='1.0' encoding='UTF-8'?>
<svg viewBox="-1.0956 -1.5452 32 31.995" xmlns="http://www.w3.org/2000/svg">
  <g transform="matrix(0.9991, 0, 0, 0.9991, 0, 0)">
    <g transform="matrix(0.0565, 0, 0, 0.0565, 0, 0)">
      <path d="M264, 224L376, 224A8 8 0 0 0 384, 216L384, 200A8 8 0 0 0 376, 192L264, 192A8 8 0 0 0 256, 200L256, 216A8 8 0 0 0 264, 224zM264, 320L440, 320A8 8 0 0 0 448, 312L448, 296A8 8 0 0 0 440, 288L264, 288A8 8 0 0 0 256, 296L256, 312A8 8 0 0 0 264, 320zM264, 128L312, 128A8 8 0 0 0 320, 120L320, 104A8 8 0 0 0 312, 96L264, 96A8 8 0 0 0 256, 104L256, 120A8 8 0 0 0 264, 128zM504, 384L264, 384A8 8 0 0 0 256, 392L256, 408A8 8 0 0 0 264, 416L504, 416A8 8 0 0 0 512, 408L512, 392A8 8 0 0 0 504, 384zM120.44, 35.51A11.94 11.94 0 0 0 103.57, 35.51L19.57, 117.83A12 12 0 0 0 19.48, 134.83L25.09, 140.51A11.93 11.93 0 0 0 42, 140.6L96, 87.86L96, 472A8 8 0 0 0 104, 480L120, 480A8 8 0 0 0 128, 472L128, 88.08L181.94, 140.43A12 12 0 0 0 198.86, 140.43L204.5, 134.77A12 12 0 0 0 204.5, 117.77z" fill="#727272" fill-opacity="1" class="Black" />
    </g>
  </g>
</svg>