<?xml version='1.0' encoding='UTF-8'?>
<svg viewBox="-1.4987 0 31.995 32" xmlns="http://www.w3.org/2000/svg">
  <g transform="matrix(0.0625, 0, 0, 0.0625, 0, 0)">
    <path d="M444.1, 182.86L361, 45.71A29.56 29.56 0 0 0 311.1, 45.71L227.9, 182.86C216.82, 201.14 230.67, 224 252.85, 224L419.15, 224C441.33, 224 455.18, 201.14 444.1, 182.86zM259.77, 192L336, 66.28L412.23, 192zM264, 480L408, 480A24 24 0 0 0 432, 456L432, 312A24 24 0 0 0 408, 288L264, 288A24 24 0 0 0 240, 312L240, 456A24 24 0 0 0 264, 480zM272, 320L400, 320L400, 448L272, 448zM198.93, 371.56A11.93 11.93 0 0 0 182.02, 371.47L128.02, 424.14L128.02, 40A8 8 0 0 0 120.02, 32L104, 32A8 8 0 0 0 96, 40L96, 423.92L42.06, 371.57A12 12 0 0 0 25.14, 371.57L19.5, 377.23A12 12 0 0 0 19.5, 394.23L103.56, 476.53A11.94 11.94 0 0 0 120.43, 476.53L204.43, 394.21A12 12 0 0 0 204.52, 377.21z" fill="#727272" fill-opacity="1" class="Black" />
  </g>
</svg>