<?xml version='1.0' encoding='UTF-8'?>
<svg viewBox="-1.5 0.0025 32 31.9975" xmlns="http://www.w3.org/2000/svg">
  <g transform="matrix(0.0625, 0, 0, 0.0625, 0, 0)">
    <path d="M264, 480L408, 480A24 24 0 0 0 432, 456L432, 312A24 24 0 0 0 408, 288L264, 288A24 24 0 0 0 240, 312L240, 456A24 24 0 0 0 264, 480zM272, 320L400, 320L400, 448L272, 448zM120.44, 35.51A11.94 11.94 0 0 0 103.57, 35.51L19.57, 117.83A12 12 0 0 0 19.48, 134.83L25.09, 140.51A11.93 11.93 0 0 0 42, 140.6L96, 87.86L96, 472A8 8 0 0 0 104, 480L120, 480A8 8 0 0 0 128, 472L128, 88.08L181.94, 140.43A12 12 0 0 0 198.86, 140.43L204.5, 134.77A12 12 0 0 0 204.5, 117.77zM444.1, 182.86L361, 45.71A29.56 29.56 0 0 0 311.1, 45.71L227.9, 182.86C216.82, 201.14 230.67, 224 252.85, 224L419.15, 224C441.33, 224 455.18, 201.14 444.1, 182.86zM259.77, 192L336, 66.28L412.23, 192z" fill="#727272" fill-opacity="1" class="Black" />
  </g>
</svg>