<?xml version='1.0' encoding='UTF-8'?>
<svg viewBox="-5.9991 0.0027 32 32" xmlns="http://www.w3.org/2000/svg">
  <g transform="matrix(0.0625, 0, 0, 0.0625, 0, 0)">
    <path d="M288, 288L32, 288C3.6, 288 -10.8, 322.5 9.4, 342.6L137.4, 470.6C149.9, 483.1 170.2, 483.1 182.7, 470.6L310.7, 342.6C330.7, 322.5 316.4, 288 288, 288zM160, 448L32, 320L288, 320L160, 448zM32, 224L288, 224C316.4, 224 330.8, 189.5 310.6, 169.4L182.6, 41.4C170.1, 28.9 149.8, 28.9 137.3, 41.4L9.3, 169.4C-10.7, 189.5 3.6, 224 32, 224zM160, 64L288, 192L32, 192L160, 64z" fill="#727272" fill-opacity="1" class="Black" />
  </g>
</svg>