<?xml version='1.0' encoding='UTF-8'?>
<svg viewBox="-2 0.0025 32 31.9975" xmlns="http://www.w3.org/2000/svg">
  <g transform="matrix(0.0625, 0, 0, 0.0625, 0, 0)">
    <path d="M120.44, 35.51A11.94 11.94 0 0 0 103.57, 35.51L19.57, 117.83A12 12 0 0 0 19.48, 134.83L25.09, 140.51A11.93 11.93 0 0 0 42, 140.6L96, 87.86L96, 472A8 8 0 0 0 104, 480L120, 480A8 8 0 0 0 128, 472L128, 88.08L181.94, 140.43A12 12 0 0 0 198.86, 140.43L204.5, 134.77A12 12 0 0 0 204.5, 117.77zM344.49, 33.92A72 72 0 0 0 360, 176.29A71.13 71.13 0 0 0 396.65, 165.92C387.81, 197.14 360.73, 220.78 327.57, 223.92A8.08 8.08 0 0 0 320, 231.84L320, 247.91A8 8 0 0 0 328.38, 255.97A112.16 112.16 0 0 0 432, 144.29L432, 104.29A72.13 72.13 0 0 0 344.49, 33.92zM360, 144.29A40 40 0 1 1 400, 104.29A40 40 0 0 1 360, 144.29zM424, 448L384, 448L384, 304A16 16 0 0 0 368, 288L356, 288A16 16 0 0 0 342.43, 295.52L322.43, 327.52A16 16 0 0 0 336, 352L352, 352L352, 448L312, 448A8 8 0 0 0 304, 456L304, 472A8 8 0 0 0 312, 480L424, 480A8 8 0 0 0 432, 472L432, 456A8 8 0 0 0 424, 448z" fill="#727272" fill-opacity="1" class="Black" />
  </g>
</svg>