<?xml version='1.0' encoding='UTF-8'?>
<svg viewBox="-1.5012 0 31.9975 32" xmlns="http://www.w3.org/2000/svg">
  <g transform="matrix(0.0625, 0, 0, 0.0625, 0, 0)">
    <path d="M304, 224L432, 224A8 8 0 0 0 440, 216L440, 200A8 8 0 0 0 432, 192L344.19, 192L437.08, 60.14A16 16 0 0 0 440, 50.93L440, 40A8 8 0 0 0 432, 32L304, 32A8 8 0 0 0 296, 40L296, 56A8 8 0 0 0 304, 64L391.68, 64.07L298.92, 195.86A16 16 0 0 0 296, 205.07L296, 216A8 8 0 0 0 304, 224zM447.29, 463.94L387.53, 295.94A11.87 11.87 0 0 0 376.37, 288L359.63, 288A11.87 11.87 0 0 0 348.47, 295.94L288.71, 463.94A12 12 0 0 0 299.88, 480L311, 480A11.86 11.86 0 0 0 322.21, 471.91L337.31, 427.64L398.16, 427.64L413.5, 472A11.88 11.88 0 0 0 424.7, 480L436.12, 480A12 12 0 0 0 447.29, 463.94zM347.39, 396.58C347.39, 396.58 367.01, 339.71 367.89, 336.58C368.76, 339.72 388.13, 396.58 388.13, 396.58zM198.93, 371.58A11.93 11.93 0 0 0 182.02, 371.49L128.02, 424.16L128.02, 40A8 8 0 0 0 120.02, 32L104, 32A8 8 0 0 0 96, 40L96, 423.92L42.06, 371.57A12 12 0 0 0 25.14, 371.57L19.5, 377.23A12 12 0 0 0 19.5, 394.23L103.56, 476.53A11.94 11.94 0 0 0 120.43, 476.53L204.43, 394.21A12 12 0 0 0 204.52, 377.21z" fill="#727272" fill-opacity="1" class="Black" />
  </g>
</svg>