<?xml version='1.0' encoding='UTF-8'?>
<svg viewBox="-1.0956 -1.5477 32 31.9975" xmlns="http://www.w3.org/2000/svg">
  <g transform="matrix(0.9991, 0, 0, 0.9991, 0, 0)">
    <g transform="matrix(0.0565, 0, 0, 0.0565, 0, 0)">
      <path d="M25.07, 140.44A11.93 11.93 0 0 0 41.98, 140.53L96, 87.86L96, 472A8 8 0 0 0 104, 480L120, 480A8 8 0 0 0 128, 472L128, 88.08L181.94, 140.43A12 12 0 0 0 198.86, 140.43L204.5, 134.77A12 12 0 0 0 204.5, 117.77L120.44, 35.47A11.94 11.94 0 0 0 103.57, 35.47L19.57, 117.79A12 12 0 0 0 19.48, 134.79zM276, 192L428, 192A20 20 0 0 0 448, 172L448, 52A20 20 0 0 0 428, 32L276, 32A20 20 0 0 0 256, 52L256, 172A20 20 0 0 0 276, 192zM288, 64L416, 64L416, 160L288, 160zM484, 256L284, 256A28 28 0 0 0 256, 284L256, 452A28 28 0 0 0 284, 480L484, 480A28 28 0 0 0 512, 452L512, 284A28 28 0 0 0 484, 256zM480, 448L288, 448L288, 288L480, 288z" fill="#727272" fill-opacity="1" class="Black" />
    </g>
  </g>
</svg>