<?xml version='1.0' encoding='UTF-8'?>
<svg viewBox="-1.0967 -1.5495 31.995 32" xmlns="http://www.w3.org/2000/svg">
  <g transform="matrix(1.0007, 0, 0, 1.0007, 0, 0)">
    <g transform="matrix(0.0564, 0, 0, 0.0564, 0, 0)">
      <path d="M376, 288L264, 288A8 8 0 0 0 256, 296L256, 312A8 8 0 0 0 264, 320L376, 320A8 8 0 0 0 384, 312L384, 296A8 8 0 0 0 376, 288zM312, 384L264, 384A8 8 0 0 0 256, 392L256, 408A8 8 0 0 0 264, 416L312, 416A8 8 0 0 0 320, 408L320, 392A8 8 0 0 0 312, 384zM504, 96L264, 96A8 8 0 0 0 256, 104L256, 120A8 8 0 0 0 264, 128L504, 128A8 8 0 0 0 512, 120L512, 104A8 8 0 0 0 504, 96zM440, 192L264, 192A8 8 0 0 0 256, 200L256, 216A8 8 0 0 0 264, 224L440, 224A8 8 0 0 0 448, 216L448, 200A8 8 0 0 0 440, 192zM198.93, 371.56A11.93 11.93 0 0 0 182.02, 371.47L128.02, 424.14L128.02, 40A8 8 0 0 0 120.02, 32L104, 32A8 8 0 0 0 96, 40L96, 423.92L42.06, 371.57A12 12 0 0 0 25.14, 371.57L19.5, 377.23A12 12 0 0 0 19.5, 394.23L103.56, 476.53A11.94 11.94 0 0 0 120.43, 476.53L204.43, 394.21A12 12 0 0 0 204.52, 377.21z" fill="#727272" fill-opacity="1" class="Black" />
    </g>
  </g>
</svg>