<?xml version='1.0' encoding='UTF-8'?>
<svg viewBox="-1.0968 -1.5483 31.9975 32" xmlns="http://www.w3.org/2000/svg">
  <g transform="matrix(1.0008, 0, 0, 1.0008, 0, 0)">
    <g transform="matrix(0.0564, 0, 0, 0.0564, 0, 0)">
      <path d="M198.93, 371.56A11.93 11.93 0 0 0 182.02, 371.47L128.02, 424.14L128.02, 40A8 8 0 0 0 120.02, 32L104, 32A8 8 0 0 0 96, 40L96, 423.92L42.06, 371.57A12 12 0 0 0 25.14, 371.57L19.5, 377.23A12 12 0 0 0 19.5, 394.23L103.56, 476.53A11.94 11.94 0 0 0 120.43, 476.53L204.43, 394.21A12 12 0 0 0 204.52, 377.21zM484, 32L284, 32A28 28 0 0 0 256, 60L256, 228A28 28 0 0 0 284, 256L484, 256A28 28 0 0 0 512, 228L512, 60A28 28 0 0 0 484, 32zM480, 224L288, 224L288, 64L480, 64zM428, 320L276, 320A20 20 0 0 0 256, 340L256, 460A20 20 0 0 0 276, 480L428, 480A20 20 0 0 0 448, 460L448, 340A20 20 0 0 0 428, 320zM416, 448L288, 448L288, 352L416, 352z" fill="#727272" fill-opacity="1" class="Black" />
    </g>
  </g>
</svg>