<?xml version='1.0' encoding='UTF-8'?>
<svg viewBox="-2.0013 -2.0025 32 32" xmlns="http://www.w3.org/2000/svg">
  <g transform="matrix(0.0547, 0, 0, 0.0547, 0, 0)">
    <path d="M471.4, 200.3C456.1, 186.4 327, 57.7 278.6, 9.3C266.1, -3.2 245.9, -3.2 233.4, 9.3C185, 57.7 55.9, 186.3 40.6, 200.3C15.1, 223.5 0, 256.4 0, 292C0, 360.4 55.6, 416 124, 416C159.5, 416 176, 408 200, 384C200, 408 190.3, 411.6 169.8, 437.4C145.9, 467.5 167.4, 512 205.8, 512L306.1, 512C344.6, 512 366.1, 467.5 342.1, 437.4C323.1, 413.3 312, 408 312, 384C336, 408 360.9, 416 388, 416C456.4, 416 512, 360.4 512, 292C512, 256.3 496.8, 223.5 471.4, 200.3zM385.5, 384C344.5, 383.6 330.9, 372.7 298.3, 338.8C294.6, 334.9 288, 337.6 288, 343L288, 368C288, 408.6 288, 420.6 317.1, 457.3C324.4, 466.5 317.8, 480 306.1, 480L205.8, 480C194.1, 480 187.5, 466.5 194.8, 457.3C224, 420.6 224, 408.6 224, 368L224, 343C224, 337.6 217.4, 334.9 213.7, 338.8C181.4, 372.5 167.8, 383.5 126.6, 384C74.8, 384.5 31.6, 343 32.1, 291.2C32.3, 265.2 43.5, 241.1 62.2, 224C81.3, 206.5 256, 32 256, 32C256, 32 430.7, 206.5 449.9, 224C468.9, 241.3 479.8, 265.6 480, 291.3C480.4, 343.1 437.3, 384.5 385.5, 384z" fill="#727272" fill-opacity="1" class="Black" />
  </g>
</svg>