<?xml version='1.0' encoding='UTF-8'?>
<svg viewBox="-2.0025 -2.0012 32 32" xmlns="http://www.w3.org/2000/svg">
  <g transform="matrix(0.0547, 0, 0, 0.0547, 0, 0)">
    <path d="M328.84, 109.75L377.41, 134.07L401.69, 182.7A16 16 0 0 0 430.31, 182.7L454.59, 134.07L503.16, 109.75A16 16 0 0 0 503.16, 81.09L454.59, 56.77L430.31, 8.14C424.88, -2.71 407.12, -2.71 401.69, 8.14L377.41, 56.77L328.84, 81.09A16 16 0 0 0 328.84, 109.75zM396.5, 83A16.1 16.1 0 0 0 403.66, 75.84L416, 51.14L428.34, 75.88A16.1 16.1 0 0 0 435.5, 83L460.22, 95.38L435.5, 107.8A16.2 16.2 0 0 0 428.34, 114.96L416, 139.7L403.66, 115A16.2 16.2 0 0 0 396.5, 107.84L371.78, 95.42zM503.16, 401.53L454.59, 377.22L430.31, 328.59C424.88, 317.73 407.12, 317.73 401.69, 328.59L377.41, 377.22L328.84, 401.53A16 16 0 0 0 328.84, 430.2L377.41, 454.51L401.69, 503.14A16 16 0 0 0 430.31, 503.14L454.59, 454.51L503.16, 430.2A16 16 0 0 0 503.16, 401.53zM435.5, 428.24A16.17 16.17 0 0 0 428.34, 435.41L416, 460.15L403.66, 435.41A16.17 16.17 0 0 0 396.5, 428.24L371.78, 415.87L396.5, 403.49A16.17 16.17 0 0 0 403.66, 396.32L416, 371.59L428.34, 396.32A16.17 16.17 0 0 0 435.5, 403.49L460.22, 415.87zM384, 255.64A16.06 16.06 0 0 0 375.16, 241.31L262.59, 185L206.31, 72.23C200.88, 61.37 183.12, 61.37 177.69, 72.23L121.41, 185L8.84, 241.31A16 16 0 0 0 8.84, 269.98L121.41, 326.34L177.69, 439.05A16 16 0 0 0 206.31, 439.05L262.59, 326.34L375.16, 270A16.09 16.09 0 0 0 384, 255.64zM243.5, 300.07A16.1 16.1 0 0 0 236.34, 307.23L192, 396.06L147.66, 307.23A16.1 16.1 0 0 0 140.5, 300.07L51.78, 255.64L140.5, 211.22A16.2 16.2 0 0 0 147.66, 204.06L192, 115.23L236.34, 204.06A16.2 16.2 0 0 0 243.5, 211.22L332.22, 255.64z" fill="#727272" fill-opacity="1" class="Black" />
  </g>
</svg>