<?xml version='1.0' encoding='UTF-8'?>
<svg viewBox="-2 -4.7992 32 32" xmlns="http://www.w3.org/2000/svg">
  <g transform="matrix(0.9988, 0, 0, 0.9988, 0, 0)">
    <g transform="matrix(0.0438, 0, 0, 0.0438, 0, 0)">
      <path d="M592, 0L304, 0A48 48 0 0 0 256, 48L256, 464A48 48 0 0 0 304, 512L592, 512A48 48 0 0 0 640, 464L640, 48A48 48 0 0 0 592, 0zM608, 464A16 16 0 0 1 592, 480L304, 480A16 16 0 0 1 288, 464L288, 48A16 16 0 0 1 304, 32L592, 32A16 16 0 0 1 608, 48zM448, 224A112 112 0 1 0 560, 336A112 112 0 0 0 448, 224zM448, 416A80 80 0 1 1 528, 336A80.09 80.09 0 0 1 448, 416zM448, 304A32 32 0 1 0 480, 336A32 32 0 0 0 448, 304zM448, 192A64 64 0 1 0 384, 128A64 64 0 0 0 448, 192zM448, 96A32 32 0 1 1 416, 128A32 32 0 0 1 448, 96zM224, 229.2C213.8, 226.14 203.2, 224 192, 224A112 112 0 0 0 192, 448C203.2, 448 213.8, 445.86 224, 442.8L224, 409.22A80 80 0 1 1 224, 262.78zM160, 336A32 32 0 1 0 192, 304A32 32 0 0 0 160, 336zM240.41, 0L48, 0A48 48 0 0 0 0, 48L0, 464A48 48 0 0 0 48, 512L240.41, 512A79.15 79.15 0 0 1 225.62, 480L48, 480A16 16 0 0 1 32, 464L32, 48A16 16 0 0 1 48, 32L225.62, 32A79.15 79.15 0 0 1 240.41, 0zM224, 128A32 32 0 1 1 192, 96A32 32 0 0 1 224, 128L224, 72.88A63.33 63.33 0 0 0 192, 64A64 64 0 0 0 192, 192A63.33 63.33 0 0 0 224, 183.12z" fill="#727272" fill-opacity="1" class="Black" />
    </g>
  </g>
</svg>