<?xml version='1.0' encoding='UTF-8'?>
<svg viewBox="-2.002 -3.5488 32 31.9925" xmlns="http://www.w3.org/2000/svg">
  <g transform="matrix(0.0486, 0, 0, 0.0486, 0, 0)">
    <path d="M574.7, 352.5L519.9, 270.3C514, 261.4 504, 256.1 493.3, 256.1L379.5, 256.1L469.6, 226.1C476.4, 223.8 482.2, 219.4 486.1, 213.5L542.6, 128.7C545.1, 125 544.1, 120.1 540.4, 117.6L527.1, 108.7C523.4, 106.2 518.5, 107.2 516, 110.9L461, 193.4C460, 194.9 458.6, 196 456.9, 196.5L373.8, 224.2L426.9, 118C432.7, 106.6 433.6, 93.5 429.5, 81.3L404.2, 5.5C402.8, 1.3 398.3, -1 394.1, 0.4L378.9, 5.5C374.7, 6.9 372.4, 11.4 373.8, 15.6L399.1, 91.4C400.5, 95.4 400.2, 99.8 398.2, 103.6L361.7, 176.7L357.6, 156.2C355.4, 145.2 340.2, 96.1 288, 96.1C235.8, 96.1 220.6, 145.3 218.4, 156.2L214.3, 176.7L177.8, 103.6C175.9, 99.8 175.5, 95.4 176.9, 91.4L202.2, 15.6C203.6, 11.4 201.3, 6.9 197.1, 5.5L181.9, 0.4C177.7, -1 173.2, 1.3 171.8, 5.5L146.5, 81.3C142.4, 93.5 143.4, 106.5 149.1, 118L202.2, 224.2L119.1, 196.5C117.4, 195.9 116, 194.8 115, 193.4L60, 110.9C57.6, 107.2 52.6, 106.2 48.9, 108.7L35.6, 117.6C31.9, 120 30.9, 125 33.4, 128.7L89.9, 213.5C93.8, 219.4 99.7, 223.9 106.4, 226.1L196.5, 256.1L82.8, 256.1C72.1, 256.1 62.1, 261.4 56.2, 270.3L1.3, 352.5C-1.2, 356.2 -0.2, 361.1 3.5, 363.6L16.8, 372.5C20.5, 375 25.4, 374 27.9, 370.3L80.3, 291.6C81.8, 289.4 84.3, 288 87, 288L189.1, 288L119.3, 399.7C114.5, 407.3 112, 416.1 112, 425.2L112, 504C112, 508.4 115.6, 512 120, 512L136, 512C140.4, 512 144, 508.4 144, 504L144, 422.9C144, 421.4 144.4, 419.9 145.2, 418.7L192.1, 343.6C192.1, 344.6 191.9, 345.6 191.9, 346.6C191.9, 399.7 232.7, 448 287.9, 448C343.1, 448 383.9, 399.6 383.9, 346.6C383.9, 345.6 383.8, 344.6 383.8, 343.6L430.7, 418.7C431.5, 420 431.9, 421.4 431.9, 422.9L431.9, 504C431.9, 508.4 435.5, 512 439.9, 512L455.9, 512C460.3, 512 463.9, 508.4 463.9, 504L463.9, 425.2C463.9, 416.2 461.4, 407.4 456.6, 399.7L386.9, 288L489, 288C491.7, 288 494.2, 289.3 495.7, 291.6L548.1, 370.3C550.5, 374 555.5, 375 559.2, 372.5L572.5, 363.6C576.1, 361.1 577.1, 356.1 574.7, 352.5zM288, 416C248.5, 416 224, 380 224, 346.6C224, 309.8 227.7, 272.9 234.9, 236.9L249.8, 162.5C250.5, 159 257.6, 128.1 288, 128.1C318.4, 128.1 325.5, 159 326.2, 162.5L341.1, 236.9C348.3, 273 352, 309.8 352, 346.6C352, 380 327.5, 416 288, 416z" fill="#727272" fill-opacity="1" class="Black" />
  </g>
</svg>