<?xml version='1.0' encoding='UTF-8'?>
<svg viewBox="-1.9975 -3.553 32 32" xmlns="http://www.w3.org/2000/svg">
  <g transform="matrix(0.0486, 0, 0, 0.0486, 0, 0)">
    <path d="M571.62, 245.02C509.87, 179.63 464.12, 98.93 439.4, 11.65C437.03, 3.32 428.56, -1.65 420.09, 0.49C333.65, 22.27 242.34, 22.27 155.91, 0.49C147.41, -1.62 138.97, 3.32 136.6, 11.65C111.88, 98.93 66.13, 179.63 4.38, 245.02C-1.46, 251.18 -1.46, 260.83 4.38, 266.99C66.13, 332.38 111.88, 413.08 136.6, 500.36C138.97, 508.67 147.41, 513.59 155.91, 511.52C242.35, 489.74 333.66, 489.74 420.09, 511.52C421.4, 511.85 422.71, 512 424, 512C431, 512 437.41, 507.39 439.41, 500.36C464.13, 413.08 509.88, 332.38 571.63, 266.99C577.46, 260.83 577.46, 251.18 571.62, 245.02zM525.39, 240.01L455.55, 240.01C424.08, 204.61 400.41, 162.14 386.32, 116.23L420.74, 55.99C444.48, 123.19 479.98, 185.66 525.39, 240.01zM260.42, 240.01L161.72, 240.01A366.476 366.476 0 0 0 210.69, 152.99L260.42, 240.01zM236.57, 133.73C270.66, 138.99 305.34, 138.99 339.43, 133.73L288, 223.73L236.57, 133.73zM260.42, 272.01L210.69, 359.03A366.476 366.476 0 0 0 161.72, 272.01L260.42, 272.01zM288, 288.28L339.43, 378.29C322.39, 375.66 305.23, 373.91 288, 373.91C270.77, 373.91 253.61, 375.66 236.57, 378.29L288, 288.28zM315.58, 272.01L414.27, 272.01A366.824 366.824 0 0 0 365.3, 359.03L315.58, 272.01zM315.58, 240.01L365.31, 152.99C377.64, 184.21 394.14, 213.5 414.28, 240.01L315.58, 240.01zM394.01, 38.22L360.3, 97.21C312.92, 108.8 263.09, 108.8 215.71, 97.21L182, 38.22A573.332 573.332 0 0 0 394.01, 38.22zM155.26, 55.99L189.68, 116.23C175.58, 162.15 151.91, 204.61 120.45, 240.01L50.61, 240.01C96.02, 185.66 131.52, 123.19 155.26, 55.99zM50.61, 272.01L120.45, 272.01C151.92, 307.41 175.59, 349.88 189.68, 395.79L155.26, 456.03C131.52, 388.83 96.02, 326.35 50.61, 272.01zM182, 473.79L215.71, 414.8C263.09, 403.21 312.92, 403.21 360.3, 414.8L394, 473.79C359, 467.2 323.56, 463.18 288, 463.18C252.44, 463.18 216.99, 467.2 182, 473.79zM420.74, 456.02L386.32, 395.78C400.42, 349.86 424.09, 307.4 455.55, 272L525.39, 272C479.98, 326.35 444.48, 388.83 420.74, 456.02z" fill="#727272" fill-opacity="1" class="Black" />
  </g>
</svg>