<?xml version='1.0' encoding='UTF-8'?>
<svg viewBox="-1.9999 -1.9999 32 32" xmlns="http://www.w3.org/2000/svg">
  <g transform="matrix(0.0547, 0, 0, 0.0547, 0, 0)">
    <path d="M288, 32C288, 49.673 273.673, 64 256, 64C238.327, 64 224, 49.673 224, 32C224, 14.327 238.327, 0 256, 0C273.673, 0 288, 14.327 288, 32zM256, 448C238.327, 448 224, 462.327 224, 480C224, 497.673 238.327, 512 256, 512C273.673, 512 288, 497.673 288, 480C288, 462.327 273.673, 448 256, 448zM512, 256C512, 238.327 497.673, 224 480, 224C462.327, 224 448, 238.327 448, 256C448, 273.673 462.327, 288 480, 288C497.673, 288 512, 273.673 512, 256zM64, 256C64, 238.327 49.673, 224 32, 224C14.327, 224 0, 238.327 0, 256C0, 273.673 14.327, 288 32, 288C49.673, 288 64, 273.673 64, 256zM97.608, 382.392C79.935, 382.392 65.608, 396.719 65.608, 414.392C65.608, 432.065 79.935, 446.392 97.608, 446.392C115.281, 446.392 129.608, 432.065 129.608, 414.392C129.608, 396.719 115.281, 382.392 97.608, 382.392zM414.392, 382.392C396.719, 382.392 382.392, 396.719 382.392, 414.392C382.392, 432.065 396.719, 446.392 414.392, 446.392C432.065, 446.392 446.392, 432.065 446.392, 414.392C446.392, 396.719 432.065, 382.392 414.392, 382.392zM97.608, 65.608C79.935, 65.608 65.608, 79.935 65.608, 97.608C65.608, 115.281 79.935, 129.608 97.608, 129.608C115.281, 129.608 129.608, 115.281 129.608, 97.608C129.608, 79.935 115.281, 65.608 97.608, 65.608z" fill="#727272" fill-opacity="1" class="Black" />
  </g>
</svg>