<?xml version='1.0' encoding='UTF-8'?>
<svg viewBox="12.986 -1.3626 32 32" xmlns="http://www.w3.org/2000/svg">
  <g transform="matrix(0.0763, 0, 0, 0.0763, 0, 0)">
    <path d="M460.115, 373.846L453.174, 369.838C447.628, 366.636 445.61, 359.661 448.513, 353.952C481.484, 289.114 479.68, 211.221 443.098, 147.998C406.594, 84.642 339.98, 44.122 267.298, 40.297C260.952, 39.963 256, 34.676 256, 28.321L256, 20.309C256, 13.405 261.808, 7.972 268.703, 8.327C352.255, 12.633 428.86, 59.188 470.809, 131.997C512.878, 204.7 514.892, 294.319 476.843, 368.835C473.703, 374.984 466.093, 377.297 460.115, 373.846z" fill="#727272" fill-opacity="1" class="Black" />
  </g>
</svg>