<?xml version='1.0' encoding='UTF-8'?>
<svg viewBox="-2 -2 32 32" xmlns="http://www.w3.org/2000/svg">
  <g transform="matrix(0.0547, 0, 0, 0.0547, 0, 0)">
    <path d="M160.13, 477.29C150.62, 473.67 143.25, 465.86 138.98, 456.63L58.06, 281.3C55.44, 275.63 49.77, 272 43.53, 272L8, 272C3.58, 272 0, 268.42 0, 264L0, 248C0, 243.58 3.58, 240 8, 240L43.53, 240C62.15, 240 79.28, 250.94 87.12, 267.88L168.43, 444.08C170.74, 449.24 179.55, 448.47 181.09, 442.99L282.19, 67.53C287.78, 46.61 306.84, 32 328.53, 32L504, 32C508.42, 32 512, 35.58 512, 40L512, 56C512, 60.42 508.42, 64 504, 64L328.53, 64C321.31, 64 314.94, 68.86 313.09, 75.83L211.97, 451.31C206.17, 472.78 182.94, 485.99 160.13, 477.29z" fill="#727272" fill-opacity="1" class="Black" />
  </g>
</svg>