<?xml version='1.0' encoding='UTF-8'?>
<svg viewBox="-2 -2 32 32" xmlns="http://www.w3.org/2000/svg">
  <g transform="matrix(0.0547, 0, 0, 0.0547, 0, 0)">
    <path d="M509.16, 248.97L454.12, 304L509.15, 359.03C512.27, 362.15 512.27, 367.22 509.15, 370.34L497.84, 381.65C494.72, 384.77 489.65, 384.77 486.53, 381.65L431.5, 326.62L376.47, 381.65C373.35, 384.77 368.28, 384.77 365.16, 381.65L353.85, 370.34C350.73, 367.22 350.73, 362.15 353.85, 359.03L408.88, 304L353.85, 248.97C350.73, 245.85 350.73, 240.78 353.85, 237.66L365.16, 226.35C368.28, 223.23 373.35, 223.23 376.47, 226.35L431.5, 281.38L486.53, 226.35C489.65, 223.23 494.72, 223.23 497.84, 226.35L509.15, 237.66C512.28, 240.78 512.28, 245.84 509.16, 248.97zM211.97, 451.31L313.09, 75.83C314.93, 68.86 321.31, 64 328.53, 64L504, 64C508.42, 64 512, 60.42 512, 56L512, 40C512, 35.58 508.42, 32 504, 32L328.53, 32C306.84, 32 287.78, 46.61 282.19, 67.53L181.09, 442.98C179.56, 448.46 170.75, 449.23 168.43, 444.07L87.12, 267.87C79.28, 250.94 62.16, 240 43.53, 240L8, 240C3.58, 240 0, 243.58 0, 248L0, 264C0, 268.42 3.58, 272 8, 272L43.53, 272C49.77, 272 55.45, 275.63 58.06, 281.3L138.98, 456.63C143.24, 465.87 150.62, 473.67 160.13, 477.29C182.94, 485.99 206.17, 472.78 211.97, 451.31z" fill="#727272" fill-opacity="1" class="Black" />
  </g>
</svg>