<?xml version='1.0' encoding='UTF-8'?>
<svg viewBox="-0.924 -2.5978 32 31.9975" xmlns="http://www.w3.org/2000/svg">
  <g transform="matrix(1.0008, 0, 0, 1.0008, 0, 0)">
    <g transform="matrix(0.0523, 0, 0, 0.0523, 0, 0)">
      <path d="M528.1, 171.5L382, 150.2L316.7, 17.8C305, -5.8 271.1, -6.1 259.3, 17.8L194, 150.2L47.9, 171.5C21.7, 175.3 11.2, 207.6 30.2, 226.1L135.9, 329.1L110.9, 474.6C106.4, 500.9 134.1, 520.6 157.3, 508.3L288, 439.6L418.7, 508.3C441.9, 520.5 469.6, 500.9 465.1, 474.6L440.1, 329.1L545.8, 226.1C564.8, 207.6 554.3, 175.3 528.1, 171.5zM405.8, 317.9L433.6, 479.9L288, 403.5L142.5, 480L170.3, 318L52.5, 203.1L215.2, 179.5L288, 32L360.8, 179.5L523.5, 203.1L405.8, 317.9z" fill="#727272" fill-opacity="1" class="Black" />
    </g>
  </g>
</svg>