<?xml version='1.0' encoding='UTF-8'?>
<svg viewBox="-2.0011 -1.9998 32 31.9975" xmlns="http://www.w3.org/2000/svg">
  <g transform="matrix(0.0547, 0, 0, 0.0547, 0, 0)">
    <path d="M340.47, 466.36C339.02, 466.36 333.58, 466.82 331.29, 466.82C215.04, 466.82 120.47, 372.25 120.47, 256C120.47, 139.75 215.04, 45.18 331.29, 45.18C333.61, 45.18 338.99, 45.64 340.47, 45.64C347.6, 45.64 353.8, 40.61 355.22, 33.57C356.68, 26.32 352.67, 19.08 345.75, 16.48C316.58, 5.54 286.39, 0 256, 0C114.84, 0 0, 114.84 0, 256C0, 397.16 114.84, 512 256, 512C286.23, 512 316.28, 506.51 345.32, 495.68C351.28, 493.66 355.6, 488.04 355.6, 481.42C355.6, 473.33 349.21, 466.36 340.47, 466.36zM32, 256C32, 139.45 121.46, 43.41 235.33, 32.95C149.02, 70.22 88.47, 156.17 88.47, 256C88.47, 355.83 149.02, 441.78 235.34, 479.05C121.47, 468.59 32, 372.55 32, 256zM503.46, 213.86L427.08, 202.76L392.92, 133.55C391.09, 129.85 387.54, 128 383.99, 128C380.44, 128 376.89, 129.85 375.06, 133.55L340.9, 202.76L264.52, 213.86C256.35, 215.04 253.09, 225.08 259, 230.85L314.27, 284.72L301.22, 360.79C300.11, 367.23 305.23, 372.45 311.03, 372.45C312.56, 372.45 314.14, 372.09 315.67, 371.28L384, 335.37L452.31, 371.28C453.84, 372.08 455.42, 372.45 456.95, 372.45C462.75, 372.45 467.87, 367.22 466.76, 360.79L453.71, 284.72L508.98, 230.85C514.89, 225.08 511.63, 215.04 503.46, 213.86zM431.38, 261.8L419.33, 273.54L422.17, 290.12L427.67, 322.17L398.89, 307.04L384, 299.21L369.11, 307.04L340.33, 322.17L345.83, 290.12L348.67, 273.54L336.62, 261.8L313.34, 239.1L345.52, 234.42L362.17, 232L369.62, 216.91L384, 187.76L398.39, 216.92L405.84, 232.01L422.49, 234.43L454.67, 239.11L431.38, 261.8z" fill="#727272" fill-opacity="1" class="Black" />
  </g>
</svg>