<?xml version='1.0' encoding='UTF-8'?>
<svg viewBox="-2 -1.9987 32 32" xmlns="http://www.w3.org/2000/svg">
  <g transform="matrix(0.0547, 0, 0, 0.0547, 0, 0)">
    <path d="M493.7, 232.4L353.5, 197.4L420.4, 114.1C425.6, 107.6 425.1, 98.6 419.3, 92.8C413.4, 87 404.5, 86.5 398, 91.7L314.6, 158.4L279.6, 18.4C273.5, -6 238.6, -6 232.4, 18.4L197.4, 158.6L114.1, 91.6C107.6, 86.4 98.6, 86.8 92.8, 92.7C87, 98.5 86.5, 107.5 91.7, 114.1L158.4, 197.5L18.4, 232.5C7.5, 235.2 0, 244.7 0, 256C0, 266.2 6.5, 276.7 18.4, 279.6L158.6, 314.6L91.7, 397.9C86.5, 404.4 87, 413.4 92.8, 419.2C98.4, 424.7 107.3, 425.7 114.1, 420.3L197.5, 353.6L232.5, 493.6C235.5, 505.5 245.8, 512 256.1, 512C260.6, 512 275.5, 509.9 279.7, 493.6L314.7, 353.4L398, 420.4C404.9, 425.9 413.8, 424.8 419.3, 419.3C425.1, 413.5 425.6, 404.5 420.4, 398L353.7, 314.6L493.6, 279.6C505.3, 276.7 512.1, 266.5 512.1, 256C512, 245.7 505.5, 235.4 493.7, 232.4zM296, 296L256, 456L216, 296L56, 256L216, 216L256, 56L296, 216L456, 256L296, 296z" fill="#727272" fill-opacity="1" class="Black" />
  </g>
</svg>