<?xml version='1.0' encoding='UTF-8'?>
<svg viewBox="-2.8709 -1.9999 31.995 32" xmlns="http://www.w3.org/2000/svg">
  <g transform="matrix(0.0547, 0, 0, 0.0547, 0, 0)">
    <path d="M271.74, 32L271.74, 200.58L319.34, 172.87L416.52, 116.3L448.26, 171.73L351.08, 228.3L303.47, 256L351.07, 283.71L448.25, 340.28L416.51, 395.71L319.33, 339.14L271.73, 311.43L271.73, 480L208.26, 480L208.26, 311.42L160.66, 339.13L63.48, 395.7L31.74, 340.27L128.92, 283.7L176.52, 255.99L128.92, 228.28L31.74, 171.71L63.48, 116.28L160.66, 172.85L208.26, 200.56L208.26, 32L271.74, 32M271.74, 0L208.27, 0C190.74, 0 176.53, 14.33 176.53, 32L176.53, 145.15L79.35, 88.57C74.35, 85.66 68.89, 84.28 63.51, 84.28C52.54, 84.28 41.88, 90.02 36, 100.29L4.26, 155.71C-4.5, 171.01 0.7, 190.59 15.88, 199.42L113.06, 256L15.88, 312.57C0.7, 321.41 -4.5, 340.98 4.26, 356.28L36, 411.71A31.68 31.68 0 0 0 63.52, 427.72C68.9, 427.72 74.36, 426.34 79.36, 423.43L176.54, 366.86L176.54, 480C176.54, 497.67 190.75, 512 208.28, 512L271.75, 512C289.28, 512 303.49, 497.67 303.49, 480L303.49, 366.85L400.67, 423.42C405.67, 426.33 411.12, 427.71 416.51, 427.71A31.68 31.68 0 0 0 444.03, 411.7L475.77, 356.27C484.53, 340.96 479.33, 321.39 464.15, 312.56L366.94, 256L464.12, 199.43C479.3, 190.59 484.5, 171.02 475.74, 155.72L444, 100.29A31.677 31.677 0 0 0 416.49, 84.28C411.11, 84.28 405.65, 85.66 400.65, 88.57L303.47, 145.14L303.47, 32C303.47, 14.33 289.26, 0 271.74, 0z" fill="#727272" fill-opacity="1" class="Black" />
  </g>
</svg>