<?xml version='1.0' encoding='UTF-8'?>
<svg viewBox="-1.9998 -2.6253 32 31.9975" xmlns="http://www.w3.org/2000/svg">
  <g transform="matrix(1.0007, 0, 0, 1.0007, 0, 0)">
    <g transform="matrix(0.0522, 0, 0, 0.0522, 0, 0)">
      <path d="M417.28, 158.22L362.16, 150.19L337.52, 100.35L308.78, 114.51L340.88, 179.45L412.66, 189.89L417.28, 158.22zM404.41, 425.31L413.85, 479.93L364.85, 454.23L349.95, 482.54L398.97, 508.26C403.67, 510.71 408.65, 511.96 413.76, 511.96C423.11, 511.96 432.36, 507.63 438.47, 500.4C443.34, 494.68 445.91, 487.68 445.91, 480.18L436.02, 419.9L404.41, 425.31zM275.3, 407.58C270.8, 405.23 265.39, 404.79 260.53, 407.33L122.15, 479.95L150.05, 317.92L32.07, 203.14L195.11, 179.44L267.91, 32C267.94, 32 267.96, 31.98 267.99, 31.98L267.99, 32L288.45, 73.39L317.19, 59.23L296.73, 17.82C291.28, 6.83 280.24, 0 267.91, 0C255.46, 0 244.76, 6.66 239.23, 17.81L173.82, 150.19L27.4, 171.48C15.3, 173.26 5.4, 181.6 1.58, 193.29C-2.21, 204.96 0.91, 217.54 9.7, 226.07L115.6, 329.07L90.54, 474.57C88.94, 484.02 91.42, 493.21 97.51, 500.41C103.63, 507.66 112.85, 511.99 122.18, 511.99C127.28, 511.99 132.26, 510.74 137.04, 508.24L267.99, 439.54L317.31, 465.41L332.21, 437.1L275.44, 407.32L275.3, 407.58zM534.37, 193.3C530.6, 181.63 520.69, 173.27 508.52, 171.49L453.57, 163.49L448.94, 195.15L503.89, 203.17L464.22, 241.76L486.61, 264.67L526.22, 226.14C532.53, 220.06 536.01, 211.97 536.01, 203.34C536, 199.92 535.44, 196.52 534.37, 193.3zM385.92, 317.92L398.21, 389.28L429.8, 383.87L420.36, 329.07L460.25, 290.27L437.86, 267.36L385.92, 317.92z" fill="#727272" fill-opacity="1" class="Black" />
    </g>
  </g>
</svg>