<?xml version='1.0' encoding='UTF-8'?>
<svg viewBox="-0.9294 -2.6029 32 32" xmlns="http://www.w3.org/2000/svg">
  <g transform="matrix(1.0006, 0, 0, 1.0006, 0, 0)">
    <g transform="matrix(0.0523, 0, 0, 0.0523, 0, 0)">
      <path d="M260.2, 158.3C260, 154.9 262.7, 152 266.2, 152L309.8, 152C313.2, 152 316, 154.9 315.8, 158.3L308.5, 290.3C308.3, 293.5 305.7, 296 302.5, 296L273.6, 296C270.4, 296 267.8, 293.5 267.6, 290.3L260.2, 158.3zM288, 320C270.3, 320 256, 334.3 256, 352C256, 369.7 270.3, 384 288, 384C305.7, 384 320, 369.7 320, 352C320, 334.3 305.7, 320 288, 320zM545.9, 226L440.1, 329L465.1, 474.5C469.6, 500.7 442, 520.5 418.7, 508.2L288, 439.6L157.3, 508.3C133.9, 520.6 106.4, 500.7 110.9, 474.6L135.9, 329.1L30.1, 226C11.1, 207.5 21.6, 175.2 47.8, 171.4L194, 150.2L259.3, 17.8C271.1, -6 305, -5.9 316.7, 17.8L382, 150.2L528.1, 171.4C554.3, 175.2 564.8, 207.5 545.9, 226zM523.5, 203.1L360.8, 179.4L288, 32L215.2, 179.4L52.5, 203.1L170.2, 317.9L142.4, 479.9L288, 403.4L433.5, 479.9L405.7, 317.9L523.5, 203.1z" fill="#727272" fill-opacity="1" class="Black" />
    </g>
  </g>
</svg>