<?xml version='1.0' encoding='UTF-8'?>
<svg viewBox="-2.0012 -0.0627 32 32" xmlns="http://www.w3.org/2000/svg">
  <g transform="matrix(0.0625, 0, 0, 0.0625, 0, 0)">
    <path d="M372, 31L364, 31C357.4, 31 352, 36.4 352, 43L352, 233.3C350.9, 232.1 349.8, 230.9 348.5, 229.9L116.5, 38.5C95.9, 21.3 64, 35.6 64, 63L64, 447C64, 474.4 95.9, 488.8 116.5, 471.6L348.5, 279C349.8, 277.9 350.9, 276.8 352, 275.6L352, 467C352, 473.6 357.4, 479 364, 479L372, 479C378.6, 479 384, 473.6 384, 467L384, 43C384, 36.4 378.6, 31 372, 31zM331.5, 254.4L96.2, 446.8L96.1, 446.9L96, 447L96, 63L96.1, 63.1L96.3, 63.2L331.5, 254.4z" fill="#727272" fill-opacity="1" class="Black" />
  </g>
</svg>