<?xml version='1.0' encoding='UTF-8'?>
<svg viewBox="-2.0012 -0.0652 32 32" xmlns="http://www.w3.org/2000/svg">
  <g transform="matrix(0.0625, 0, 0, 0.0625, 0, 0)">
    <path d="M76, 479L84, 479C90.6, 479 96, 473.6 96, 467L96, 276.7C97.1, 277.9 98.2, 279.1 99.5, 280.1L331.5, 471.5C352.1, 488.7 384, 474.3 384, 446.9L384, 63C384, 35.6 352.1, 21.2 331.5, 38.4L99.5, 231C98.2, 232.1 97.1, 233.2 96, 234.4L96, 43C96, 36.4 90.6, 31 84, 31L76, 31C69.4, 31 64, 36.4 64, 43L64, 467C64, 473.6 69.4, 479 76, 479zM116.5, 255.6L351.8, 63.2L351.9, 63.1L352, 63L352, 447L351.9, 446.9L351.7, 446.8L116.5, 255.6z" fill="#727272" fill-opacity="1" class="Black" />
  </g>
</svg>