<?xml version='1.0' encoding='UTF-8'?>
<svg viewBox="-1.9998 -0.0013 31.9975 32" xmlns="http://www.w3.org/2000/svg">
  <g transform="matrix(0.0625, 0, 0, 0.0625, 0, 0)">
    <path d="M448, 348.106L448, 80C448, 53.49 426.51, 32 400, 32L48, 32C21.49, 32 0, 53.49 0, 80L0, 431.988C0, 458.498 21.49, 479.988 48, 479.988L316.118, 479.988A48 48 0 0 0 350.059, 465.929L433.941, 382.047A48 48 0 0 0 448, 348.106zM327.431, 443.302A15.89 15.89 0 0 1 320, 447.497L320, 351.988L415.509, 351.988A15.88 15.88 0 0 1 411.314, 359.419L327.431, 443.302zM416, 80L416, 319.988L312, 319.988C298.745, 319.988 288, 330.733 288, 343.988L288, 447.988L48, 447.988C39.163, 447.988 32, 440.825 32, 431.988L32, 80C32, 71.163 39.163, 64 48, 64L400, 64C408.837, 64 416, 71.163 416, 80z" fill="#727272" fill-opacity="1" class="Black" />
  </g>
</svg>