<?xml version='1.0' encoding='UTF-8'?>
<svg viewBox="-5.5015 -1.9999 31.9975 32" xmlns="http://www.w3.org/2000/svg">
  <g transform="matrix(0.0547, 0, 0, 0.0547, 0, 0)">
    <path d="M352, 0L96, 0C78.3, 0 64, 14.3 64, 32L64, 96C64, 113.7 78.3, 128 96, 128L96, 251.5L57, 277.5C-1.8, 316.7 -17.7, 396.2 21.5, 455C46.2, 492 86.7, 512 128.1, 512C152.5, 512 177.2, 505 199, 490.5L280.7, 436C325.3, 406.3 351.9, 356.5 351.9, 302.9L351.9, 128C369.6, 128 383.9, 113.7 383.9, 96L383.9, 32C384, 14.3 369.7, 0 352, 0zM320, 302.9C320, 345.8 298.7, 385.6 263, 409.4L181.2, 463.9C165.4, 474.5 147, 480 128.1, 480C95.9, 480 65.9, 464 48.1, 437.2C33.9, 415.9 28.8, 390.3 33.8, 365.1C38.8, 340 53.3, 318.3 74.7, 304.1L113.7, 278.1L127.9, 268.6L127.9, 128L319.9, 128L319.9, 302.9zM352, 96L96, 96L96, 32L352, 32L352, 96z" fill="#727272" fill-opacity="1" class="Black" />
  </g>
</svg>