<?xml version='1.0' encoding='UTF-8'?>
<svg viewBox="-3.7495 -2 32 32" xmlns="http://www.w3.org/2000/svg">
  <g transform="matrix(0.0547, 0, 0, 0.0547, 0, 0)">
    <path d="M393.3, 141.3L410.8, 123.8C415.5, 119.1 415.5, 111.5 410.8, 106.8L405.1, 101.1C400.4, 96.4 392.8, 96.4 388.1, 101.1L370.6, 118.6C334.8, 87.6 289.1, 67.7 238.9, 64.4L238.9, 32L263.9, 32C270.5, 32 275.9, 26.6 275.9, 20L275.9, 12C275.9, 5.4 270.5, 0 263.9, 0L183.9, 0C177.3, 0 171.9, 5.4 171.9, 12L171.9, 20C171.9, 26.6 177.3, 32 183.9, 32L206.9, 32L206.9, 64.6C91.2, 73.3 0, 170 0, 288C0, 411.7 100.3, 512 224, 512C347.7, 512 448, 411.7 448, 288C448, 231.9 427.4, 180.6 393.3, 141.3zM224, 480C117.9, 480 32, 394.1 32, 288C32, 181.9 117.9, 96 224, 96C330.1, 96 416, 181.9 416, 288C416, 394.1 330.1, 480 224, 480zM228, 352L220, 352C213.4, 352 208, 346.6 208, 340L208, 172C208, 165.4 213.4, 160 220, 160L228, 160C234.6, 160 240, 165.4 240, 172L240, 340C240, 346.6 234.6, 352 228, 352z" fill="#727272" fill-opacity="1" class="Black" />
  </g>
</svg>