<?xml version='1.0' encoding='UTF-8'?>
<svg viewBox="-1.9973 -4.8002 31.995 32" xmlns="http://www.w3.org/2000/svg">
  <g transform="matrix(0.9988, 0, 0, 0.9988, 0, 0)">
    <g transform="matrix(0.0438, 0, 0, 0.0438, 0, 0)">
      <path d="M635.7, 176.1L544.3, 16.1C538.6, 6.2 528, 0 516.5, 0L123.5, 0C112, 0 101.4, 6.2 95.7, 16.1L4.3, 176.1C-7.9, 197.5 7.4, 224 32, 224L64, 224L64, 478.5C64, 497 78.3, 512 96, 512L352, 512C369.7, 512 384, 497 384, 478.5L384, 224L544, 224L544, 504C544, 508.4 547.6, 512 552, 512L568, 512C572.4, 512 576, 508.4 576, 504L576, 224L608, 224C632.6, 224 647.9, 197.5 635.7, 176.1zM352, 478.5C352, 479.4 351.7, 479.9 351.8, 480L96.6, 480.2C96.6, 480.2 96, 479.7 96, 478.5L96, 352L352, 352L352, 478.5zM352, 320L96, 320L96, 224L352, 224L352, 320zM32.1, 192L123.5, 32L516.5, 32L608, 192L32.1, 192z" fill="#727272" fill-opacity="1" class="Black" />
    </g>
  </g>
</svg>