<?xml version='1.0' encoding='UTF-8'?>
<svg viewBox="-1.9974 -4.3626 31.9975 32" xmlns="http://www.w3.org/2000/svg">
  <g transform="matrix(0.999, 0, 0, 0.999, 0, 0)">
    <g transform="matrix(0.0455, 0, 0, 0.0455, 0, 0)">
      <path d="M602, 118.6L537.1, 15C531.3, 5.7 521, 0 510, 0L106, 0C95, 0 84.7, 5.7 78.9, 15L14, 118.6C-15.6, 165.8 4, 229.2 52, 249.4L52, 476.8C52, 496.2 66.3, 512 84, 512L532, 512C549.7, 512 564, 496.2 564, 476.8L564, 249.4C612, 229.2 631.6, 165.8 602, 118.6zM532, 476.8C532, 478.8 531.2, 479.9 531.8, 480L85.2, 480.3C84.9, 480.1 84, 479 84, 476.8L84, 352L532, 352zM84, 320L84, 256L86.5, 256C116.1, 256 142.3, 243 160.3, 222.9C178.3, 243 204.6, 256 234.1, 256C263.7, 256 289.9, 243 307.9, 222.9C325.9, 243 352.2, 256 381.7, 256C411.3, 256 437.5, 243 455.5, 222.9C473.6, 243 499.8, 256 529.4, 256L531.9, 256L531.9, 320zM578.2, 193.5C570.4, 210.1 556.1, 221 538.9, 223.3C535.8, 223.7 532.7, 223.9 529.5, 223.9C510.2, 223.9 492.5, 215.9 479.5, 201.4L455.7, 175L431.9, 201.6C418.9, 216.1 401.2, 224.1 381.9, 224.1C362.6, 224.1 344.9, 216.1 331.9, 201.6L308, 175L284.2, 201.6C271.2, 216.1 253.5, 224.1 234.2, 224.1C214.9, 224.1 197.2, 216.1 184.2, 201.6L160.3, 175L136.5, 201.6C123.5, 216.1 105.8, 224.1 86.5, 224.1C83.3, 224.1 80.2, 223.9 77.1, 223.5C59.9, 221.2 45.6, 210.3 37.8, 193.7C29.1, 175.1 30.3, 152.9 41.1, 135.8L106, 32L510, 32L574.9, 135.6C585.7, 152.8 586.9, 174.9 578.2, 193.5z" fill="#727272" fill-opacity="1" class="Black" />
    </g>
  </g>
</svg>