<?xml version='1.0' encoding='UTF-8'?>
<svg viewBox="-2 -1.9988 32 32" xmlns="http://www.w3.org/2000/svg">
  <g transform="matrix(0.0547, 0, 0, 0.0547, 0, 0)">
    <path d="M8, 128L440, 128C444.42, 128 448, 124.42 448, 120L448, 104C448, 99.58 444.42, 96 440, 96L8, 96C3.58, 96 0, 99.58 0, 104L0, 120C0, 124.42 3.58, 128 8, 128zM504, 240L72, 240C67.58, 240 64, 243.58 64, 248L64, 264C64, 268.42 67.58, 272 72, 272L504, 272C508.42, 272 512, 268.42 512, 264L512, 248C512, 243.58 508.42, 240 504, 240zM440, 384L8, 384C3.58, 384 0, 387.58 0, 392L0, 408C0, 412.42 3.58, 416 8, 416L440, 416C444.42, 416 448, 412.42 448, 408L448, 392C448, 387.58 444.42, 384 440, 384z" fill="#727272" fill-opacity="1" class="Black" />
  </g>
</svg>