<?xml version='1.0' encoding='UTF-8'?>
<svg viewBox="-2 -2 32 32" xmlns="http://www.w3.org/2000/svg">
  <g transform="matrix(0.0547, 0, 0, 0.0547, 0, 0)">
    <path d="M368, 360.15L368, 391.02C430.27, 399.44 472, 414.62 472, 432.01C472, 458.52 375.29, 480.01 256, 480.01C136.71, 480.01 40, 458.51 40, 432C40, 414.62 81.73, 399.44 144, 391.01L144, 360.14C58.82, 373.14 0, 400.39 0, 432C0, 476.18 114.62, 512 256, 512C397.38, 512 512, 476.18 512, 432C512, 400.39 453.18, 373.14 368, 360.15zM176, 320L176, 400C176, 426.47 197.53, 448 224, 448L288, 448C314.47, 448 336, 426.47 336, 400L336, 320C362.47, 320 384, 298.47 384, 272L384, 208C384, 173.47 361.89, 144.25 331.18, 133.07C339.14, 119.84 344, 104.54 344, 88C344, 39.48 304.52, 0 256, 0C207.48, 0 168, 39.48 168, 88C168, 104.54 172.86, 119.84 180.82, 133.07C150.11, 144.25 128, 173.47 128, 208L128, 272C128, 298.47 149.53, 320 176, 320zM256, 32C286.93, 32 312, 57.07 312, 88C312, 118.93 286.93, 144 256, 144C225.07, 144 200, 118.93 200, 88C200, 57.07 225.07, 32 256, 32zM160, 208C160, 182.24 180.44, 161.32 205.93, 160.21C220.17, 170.11 237.38, 176 256, 176C274.62, 176 291.83, 170.11 306.07, 160.21C331.56, 161.32 352, 182.24 352, 208L352, 272C352, 280.83 344.81, 288 336, 288L304, 288L304, 400C304, 408.83 296.81, 416 288, 416L224, 416C215.19, 416 208, 408.83 208, 400L208, 288L176, 288C167.19, 288 160, 280.83 160, 272L160, 208z" fill="#727272" fill-opacity="1" class="Black" />
  </g>
</svg>