<?xml version='1.0' encoding='UTF-8'?>
<svg viewBox="-2 -0.2492 32 32" xmlns="http://www.w3.org/2000/svg">
  <g transform="matrix(0.0547, 0, 0, 0.0547, 0, 0)">
    <path d="M344, 64L288, 64A16 16 0 0 0 274.51, 71.41L176, 226.2L77.5, 71.41A16 16 0 0 0 64, 64L8, 64A8 8 0 0 0 0, 72L0, 88A8 8 0 0 0 8, 96L55.22, 96L157, 256L55.22, 416L8, 416A8 8 0 0 0 0, 424L0, 440A8 8 0 0 0 8, 448L64, 448A16 16 0 0 0 77.5, 440.59L176, 285.8L274.51, 440.59A16 16 0 0 0 288, 448L344, 448A8 8 0 0 0 352, 440L352, 424A8 8 0 0 0 344, 416L296.78, 416L195, 256L296.78, 96L344, 96A8 8 0 0 0 352, 88L352, 72A8 8 0 0 0 344, 64zM504, 480L464, 480L464, 304A16 16 0 0 0 448, 288L432, 288A16 16 0 0 0 417.71, 296.83L401.71, 328.83A16 16 0 0 0 416, 352L432, 352L432, 480L392, 480A8 8 0 0 0 384, 488L384, 504A8 8 0 0 0 392, 512L504, 512A8 8 0 0 0 512, 504L512, 488A8 8 0 0 0 504, 480z" fill="#727272" fill-opacity="1" class="Black" />
  </g>
</svg>