<?xml version='1.0' encoding='UTF-8'?>
<svg viewBox="-3.7505 -1.9998 32 31.9975" xmlns="http://www.w3.org/2000/svg">
  <g transform="matrix(0.0547, 0, 0, 0.0547, 0, 0)">
    <path d="M112, 384C138.51, 384 160, 362.51 160, 336C160, 309.49 138.51, 288 112, 288C85.49, 288 64, 309.49 64, 336C64, 362.51 85.49, 384 112, 384zM112, 320C120.823, 320 128, 327.177 128, 336C128, 344.823 120.823, 352 112, 352C103.177, 352 96, 344.823 96, 336C96, 327.177 103.177, 320 112, 320zM336, 384C362.51, 384 384, 362.51 384, 336C384, 309.49 362.51, 288 336, 288C309.49, 288 288, 309.49 288, 336C288, 362.51 309.49, 384 336, 384zM336, 320C344.823, 320 352, 327.177 352, 336C352, 344.823 344.823, 352 336, 352C327.177, 352 320, 344.823 320, 336C320, 327.177 327.177, 320 336, 320zM320, 0L128, 0C64, 0 0, 42.981 0, 96L0, 352C0, 399.169 50.656, 438.391 106.9, 446.473L51.615, 501.758C47.835, 505.538 50.512, 512.001 55.858, 512.001L81.656, 512.001C84.838, 512.001 87.891, 510.737 90.141, 508.486L150.627, 448L297.372, 448L357.858, 508.485A12.002 12.002 0 0 0 366.343, 512L392.141, 512C397.486, 512 400.163, 505.537 396.384, 501.757L341.1, 446.472C397.344, 438.391 448, 399.169 448, 352L448, 96C448, 42.981 385, 0 320, 0zM32, 128L208, 128L208, 224L32, 224L32, 128zM416, 352C416, 384.299 368.448, 416 320, 416L128, 416C79.552, 416 32, 384.299 32, 352L32, 256L416, 256L416, 352zM416, 224L240, 224L240, 128L416, 128L416, 224zM32, 96C32, 63.701 79.552, 32 128, 32L320, 32C378.237, 32 416, 69.881 416, 96L32, 96z" fill="#727272" fill-opacity="1" class="Black" />
  </g>
</svg>