<?xml version='1.0' encoding='UTF-8'?>
<svg viewBox="-2 -1.9988 32 32" xmlns="http://www.w3.org/2000/svg">
  <g transform="matrix(0.0547, 0, 0, 0.0547, 0, 0)">
    <path d="M464, 128L352, 128L352, 80C352, 53.53 330.47, 32 304, 32L208, 32C181.53, 32 160, 53.53 160, 80L160, 128L48, 128C21.5, 128 0, 149.5 0, 176L0, 432C0, 458.5 21.5, 480 48, 480L464, 480C490.5, 480 512, 458.5 512, 432L512, 176C512, 149.5 490.5, 128 464, 128zM192, 80C192, 71.17 199.19, 64 208, 64L304, 64C312.81, 64 320, 71.17 320, 80L320, 128L192, 128L192, 80zM96, 448L48, 448C39.2, 448 32, 440.8 32, 432L32, 176C32, 167.2 39.2, 160 48, 160L96, 160L96, 448zM384, 448L128, 448L128, 160L384, 160L384, 448zM480, 432C480, 440.8 472.8, 448 464, 448L416, 448L416, 160L464, 160C472.8, 160 480, 167.2 480, 176L480, 432z" fill="#727272" fill-opacity="1" class="Black" />
  </g>
</svg>