<?xml version='1.0' encoding='UTF-8'?>
<svg viewBox="-5.5003 -2 32 32" xmlns="http://www.w3.org/2000/svg">
  <g transform="matrix(0.0547, 0, 0, 0.0547, 0, 0)">
    <path d="M336, 160L288, 160L288, 48C288, 21.49 266.51, 0 240, 0L144, 0C117.49, 0 96, 21.49 96, 48L96, 160L48, 160C21.49, 160 0, 181.49 0, 208L0, 432C0, 458.51 21.49, 480 48, 480L64, 480L64, 496C64, 504.84 71.16, 512 80, 512L112, 512C120.84, 512 128, 504.84 128, 496L128, 480L256, 480L256, 496C256, 504.84 263.16, 512 272, 512L304, 512C312.84, 512 320, 504.84 320, 496L320, 480L336, 480C362.51, 480 384, 458.51 384, 432L384, 208C384, 181.49 362.51, 160 336, 160zM128, 48C128, 39.18 135.18, 32 144, 32L240, 32C248.82, 32 256, 39.18 256, 48L256, 160L128, 160L128, 48zM352, 432C352, 440.82 344.82, 448 336, 448L48, 448C39.18, 448 32, 440.82 32, 432L32, 208C32, 199.18 39.18, 192 48, 192L336, 192C344.82, 192 352, 199.18 352, 208L352, 432zM280, 352L104, 352C99.58, 352 96, 355.58 96, 360L96, 376C96, 380.42 99.58, 384 104, 384L280, 384C284.42, 384 288, 380.42 288, 376L288, 360C288, 355.58 284.42, 352 280, 352zM280, 256L104, 256C99.58, 256 96, 259.58 96, 264L96, 280C96, 284.42 99.58, 288 104, 288L280, 288C284.42, 288 288, 284.42 288, 280L288, 264C288, 259.58 284.42, 256 280, 256z" fill="#727272" fill-opacity="1" class="Black" />
  </g>
</svg>