<?xml version='1.0' encoding='UTF-8'?>
<svg viewBox="-1.9998 -4.7989 31.9975 32" xmlns="http://www.w3.org/2000/svg">
  <g transform="matrix(0.9988, 0, 0, 0.9988, 0, 0)">
    <g transform="matrix(0.0438, 0, 0, 0.0438, 0, 0)">
      <path d="M216, 480L72, 480C67.6, 480 64, 483.6 64, 488L64, 504C64, 508.4 67.6, 512 72, 512L216, 512C220.4, 512 224, 508.4 224, 504L224, 488C224, 483.6 220.4, 480 216, 480zM632, 480L296, 480C291.6, 480 288, 483.6 288, 488L288, 504C288, 508.4 291.6, 512 296, 512L632, 512C636.4, 512 640, 508.4 640, 504L640, 488C640, 483.6 636.4, 480 632, 480zM576, 424L576, 408C576, 403.6 572.4, 400 568, 400L8, 400C3.6, 400 0, 403.6 0, 408L0, 424C0, 428.4 3.6, 432 8, 432L568, 432C572.4, 432 576, 428.4 576, 424zM632, 319.9L488, 319.9C483.6, 319.9 480, 323.5 480, 327.9L480, 343.9C480, 348.3 483.6, 351.9 488, 351.9L632, 351.9C636.4, 351.9 640, 348.3 640, 343.9L640, 327.9C640, 323.5 636.4, 319.9 632, 319.9zM72, 352L408, 352C412.4, 352 416, 348.4 416, 344L416, 328C416, 323.6 412.4, 320 408, 320L72, 320C67.6, 320 64, 323.6 64, 328L64, 344C64, 348.4 67.6, 352 72, 352zM208.3, 247.5C208, 252 211.8, 255.9 216.4, 255.9L232.4, 255.9C236.7, 255.9 240, 252.5 240.4, 248.3C244.2, 207.7 278.5, 175.9 320, 175.9C361.5, 175.9 395.8, 207.7 399.6, 248.3C400, 252.5 403.3, 255.9 407.6, 255.9L423.6, 255.9C428.2, 255.9 432, 252.1 431.7, 247.5C427.4, 189.6 378.9, 143.9 320, 143.9C261.1, 143.9 212.6, 189.7 208.3, 247.5zM96, 255.9C98.8, 255.9 101.7, 255.2 104.2, 253.6L180, 208.2C185.8, 204.7 188.8, 198 187.5, 191.4L170.7, 106.5L255.5, 123.3C262, 124.6 268.3, 121.9 271.9, 116.5L320, 44.7L368.1, 116.6C371.7, 122 378, 124.7 384.5, 123.4L469.3, 106.6L452.5, 191.5C451.2, 198.1 454.2, 204.9 460, 208.3L535.8, 253.7C538.4, 255.2 541.2, 256 544, 256C549.4, 256 554.7, 253.2 557.7, 248.2C562.3, 240.6 559.8, 230.8 552.2, 226.3L486.1, 186.7L505.4, 89.4C506.4, 84.2 504.8, 78.8 501, 75C497.2, 71.2 491.9, 69.5 486.6, 70.6L388.8, 90L333.4, 7.1L333.3, 7C332.7, 6.1 331.9, 5.6 331.2, 4.9C330.4, 4.1 329.9, 3.2 328.9, 2.6C327.1, 1.4 325.1, 0.6 323.1, 0.2C322.5, 0.1 321.9, 0.2 321.3, 0.2C319.9, 0.1 318.4, -0.1 317, 0.2C315, 0.6 313, 1.4 311.2, 2.6C310.3, 3.2 309.7, 4.1 309, 4.8C308.3, 5.5 307.4, 6.1 306.8, 7L306.7, 7.1L251.3, 89.9L153.5, 70.5C148.2, 69.4 142.9, 71.1 139.1, 74.9C135.3, 78.7 133.7, 84.1 134.7, 89.3L154, 186.6L87.9, 226.2C80.3, 230.7 77.8, 240.6 82.4, 248.1C85.3, 253.2 90.6, 255.9 96, 255.9z" fill="#727272" fill-opacity="1" class="Black" />
    </g>
  </g>
</svg>