<?xml version='1.0' encoding='UTF-8'?>
<svg viewBox="-2 -1.9988 32 32" xmlns="http://www.w3.org/2000/svg">
  <g transform="matrix(0.0547, 0, 0, 0.0547, 0, 0)">
    <path d="M256, 143.7C194.2, 143.7 144, 194 144, 255.8C144, 317.6 194.2, 367.9 256, 367.9C317.8, 367.9 368, 317.6 368, 255.8C368, 194 317.8, 143.7 256, 143.7zM256, 335.9C211.9, 335.9 176, 300 176, 255.8C176, 211.6 211.9, 175.7 256, 175.7C300.1, 175.7 336, 211.6 336, 255.8C336, 300 300.1, 335.9 256, 335.9zM512, 255.8C512, 250.5 509.3, 245.5 504.9, 242.5L422, 187L441.4, 89.1C442.4, 83.9 440.8, 78.4 437, 74.7C433.2, 70.9 427.9, 69.2 422.6, 70.3L324.8, 89.7L269.3, 6.7C263.3, -2.2 248.7, -2.2 242.7, 6.7L187.2, 89.7L89.4, 70.2C84.1, 69.1 78.8, 70.8 75, 74.6C71.2, 78.4 69.6, 83.8 70.6, 89L90, 187L7.1, 242.5C2.7, 245.5 0, 250.5 0, 255.8C0, 261.1 2.7, 266.1 7.1, 269.1L90, 324.6L70.6, 422.5C69.6, 427.7 71.2, 433.2 75, 436.9C78.8, 440.7 84.1, 442.4 89.4, 441.3L187.2, 421.9L242.7, 504.9C245.7, 509.4 250.7, 512 256, 512C261.3, 512 266.3, 509.3 269.3, 504.9L324.8, 421.9L422.6, 441.3C428, 442.5 433.3, 440.7 437, 436.9C440.8, 433.1 442.4, 427.7 441.4, 422.5L422, 324.6L504.9, 269.1C509.3, 266.1 512, 261.1 512, 255.8zM395.3, 303.9C389.9, 307.5 387.3, 314 388.5, 320.3L405.3, 405.2L320.5, 388.4C313.9, 387 307.7, 389.8 304.1, 395.2L256, 467.2L207.9, 395.3C204.9, 390.8 199.9, 388.2 194.6, 388.2C193.6, 388.2 192.5, 388.3 191.5, 388.5L106.7, 405.3L123.5, 320.4C124.7, 314.1 122.1, 307.6 116.7, 304L44.8, 255.9L116.7, 207.7C122.1, 204.1 124.7, 197.6 123.5, 191.3L106.7, 106.4L191.5, 123.2C198, 124.5 204.3, 121.8 207.9, 116.4L256, 44.4L304.1, 116.4C307.7, 121.8 314, 124.5 320.5, 123.2L405.3, 106.4L388.5, 191.3C387.3, 197.6 389.9, 204.1 395.3, 207.7L467.2, 255.9L395.3, 303.9z" fill="#727272" fill-opacity="1" class="Black" />
  </g>
</svg>