<?xml version='1.0' encoding='UTF-8'?>
<svg viewBox="-1.9998 -3.5563 31.9975 32" xmlns="http://www.w3.org/2000/svg">
  <g transform="matrix(0.0486, 0, 0, 0.0486, 0, 0)">
    <path d="M276.7, 219.3C279.8, 222.4 283.9, 224 288, 224C292.1, 224 296.2, 222.4 299.3, 219.3L389.6, 129C392.7, 125.9 392.7, 120.8 389.6, 117.7L378.3, 106.4C375.2, 103.3 370.1, 103.3 367, 106.4L304, 169.4L304, 8C304, 3.6 300.4, 0 296, 0L280, 0C275.6, 0 272, 3.6 272, 8L272, 169.4L209, 106.4C205.9, 103.3 200.8, 103.3 197.7, 106.4L186.4, 117.7C183.3, 120.8 183.3, 125.9 186.4, 129L276.7, 219.3zM95.8, 448L134.3, 448L90.3, 382L176.3, 364.8C182.6, 363.5 187.6, 358.6 188.9, 352.2L206.1, 266.2L279.1, 314.9C284.5, 318.5 291.5, 318.5 296.9, 314.9L369.9, 266.2L387.1, 352.2C388.3, 358.5 393.3, 363.5 399.7, 364.8L485.7, 382L441.7, 448L480.2, 448L525.7, 379.9C528.7, 375.5 529.2, 369.8 527.2, 364.9C525.2, 360 520.8, 356.4 515.5, 355.3L416.5, 335.5L396.7, 236.5C395.7, 231.3 392.1, 226.9 387.1, 224.8C382.1, 222.7 376.5, 223.3 372.1, 226.3L288.1, 282.3L204.1, 226.3C199.7, 223.4 194, 222.8 189.1, 224.8C184.2, 226.8 180.6, 231.2 179.5, 236.5L159.7, 335.5L60.7, 355.3C55.5, 356.3 51.1, 359.9 49, 364.9C46.9, 369.9 47.5, 375.5 50.5, 379.9L95.8, 448zM287.8, 352C231.5, 352 185.3, 393.9 177.4, 448L209.4, 448C216.8, 411.5 249.1, 384 287.8, 384C326.5, 384 358.7, 411.5 366.2, 448L398.2, 448C390.4, 393.9 344.1, 352 287.8, 352zM568, 480L8, 480C3.6, 480 0, 483.6 0, 488L0, 504C0, 508.4 3.6, 512 8, 512L568, 512C572.4, 512 576, 508.4 576, 504L576, 488C576, 483.6 572.4, 480 568, 480z" fill="#727272" fill-opacity="1" class="Black" />
  </g>
</svg>