<?xml version='1.0' encoding='UTF-8'?>
<svg viewBox="-2 -2 32 32" xmlns="http://www.w3.org/2000/svg">
  <g transform="matrix(0.0547, 0, 0, 0.0547, 0, 0)">
    <path d="M496.04, 0C495.28, 0 494.51, 0.05 493.73, 0.17L400, 16L165.26, 250.74L126.11, 211.59A15.887 15.887 0 0 0 114.8, 206.91C110.71, 206.91 106.61, 208.47 103.49, 211.59L68.7, 246.39A16.005 16.005 0 0 0 66.7, 266.58L112.6, 335.42L72.81, 375.21L56.05, 366.83A13.82 13.82 0 0 0 49.84, 365.36C46.23, 365.36 42.68, 366.76 40.01, 369.43L4.07, 405.36C-1.35, 410.79 -1.35, 419.58 4.07, 425L87, 507.93C89.71, 510.64 93.27, 512 96.82, 512C100.37, 512 103.93, 510.64 106.64, 507.93L142.57, 472A13.889 13.889 0 0 0 145.17, 455.97L136.79, 439.21L176.57, 399.43L245.41, 445.33C248.12, 447.13 251.21, 448.01 254.28, 448.01C258.41, 448.01 262.51, 446.42 265.6, 443.32L300.4, 408.53C306.65, 402.28 306.65, 392.15 300.4, 385.9L261.25, 346.75L496, 112L511.83, 18.27C513.23, 8.49 505.57, 0 496.04, 0zM266.47, 397.2L252.26, 411.41L194.34, 372.79L172.51, 358.24L153.96, 376.79L114.18, 416.57L97.87, 432.88L108.18, 453.51L110.72, 458.6L96.82, 472.5L39.5, 415.18L53.4, 401.28L58.48, 403.82L79.11, 414.14L95.42, 397.83L135.21, 358.04L153.76, 339.49L139.21, 317.66L100.59, 259.74L114.8, 245.53L266.47, 397.2zM466.15, 96.6L238.63, 324.11L187.89, 273.37L415.4, 45.85L476.46, 35.53L466.15, 96.6z" fill="#727272" fill-opacity="1" class="Black" />
  </g>
</svg>