<?xml version='1.0' encoding='UTF-8'?>
<svg viewBox="-2 -4.7992 32 32" xmlns="http://www.w3.org/2000/svg">
  <g transform="matrix(0.9988, 0, 0, 0.9988, 0, 0)">
    <g transform="matrix(0.0438, 0, 0, 0.0438, 0, 0)">
      <path d="M406.38, 150.77A13.18 13.18 0 0 0 394.82, 143.93L357.67, 143.93L331.17, 102.21C326.29, 94.55 313.73, 94.54 308.86, 102.19L282.35, 143.92L245.21, 143.92C240.4, 143.92 235.96, 146.54 233.65, 150.76C231.34, 154.95 231.53, 160.06 234.09, 164.07L251.82, 191.98L234.09, 219.89C231.53, 223.92 231.34, 229.03 233.65, 233.22A13.18 13.18 0 0 0 245.21, 240.06L282.36, 240.06L308.86, 281.78C311.3, 285.61 315.45, 287.9 320.02, 287.9C324.59, 287.9 328.74, 285.62 331.18, 281.79L357.69, 240.06L394.83, 240.06C399.64, 240.06 404.08, 237.44 406.39, 233.22C408.7, 229.03 408.51, 223.92 405.95, 219.91L388.22, 192L405.95, 164.09C408.5, 160.06 408.69, 154.95 406.38, 150.77zM320, 114.47L338.71, 143.92L301.29, 143.92L320, 114.47zM250.38, 159.92L272.17, 159.92L261.27, 177.07L250.38, 159.92zM250.38, 224.08L261.28, 206.92L272.18, 224.08L250.38, 224.08zM320, 269.53L301.29, 240.08L338.71, 240.08L320, 269.53zM348.87, 224.08L291.12, 224.08L270.75, 192L291.13, 159.92L348.88, 159.92L369.25, 192L348.87, 224.08zM389.62, 224.08L367.83, 224.08L378.73, 206.93L389.62, 224.08zM378.72, 177.08L367.82, 159.92L389.62, 159.92L378.72, 177.08zM313.71, 320.3C280.43, 323.47 256, 353.32 256, 386.75L256, 504C256, 508.42 259.58, 512 264, 512L280, 512C284.42, 512 288, 508.42 288, 504L288, 385.8C288, 369.85 298.86, 355.04 314.59, 352.44C334.61, 349.15 352, 364.58 352, 384L352, 504C352, 508.42 355.58, 512 360, 512L376, 512C380.42, 512 384, 508.42 384, 504L384, 384C384, 346.58 351.88, 316.66 313.71, 320.3zM631.99, 268.29L555.99, 196.51C549.39, 190.28 538.59, 190.28 531.99, 196.51L479.99, 245.62L479.99, 134.4C479.99, 124.68 475.57, 115.48 467.98, 109.41L339.98, 7.01C334.15, 2.34 327.07, 0 320, 0C312.93, 0 305.85, 2.34 300.01, 7.01L172.01, 109.41A32.005 32.005 0 0 0 160, 134.4L160, 245.63L108, 196.52C101.4, 190.29 90.6, 190.29 84, 196.52L8, 268.3C2.85, 273.16 0, 279.43 0, 285.93L0, 504C0, 508.42 3.58, 512 8, 512L24, 512C28.42, 512 32, 508.42 32, 504L32, 289.64L96, 229.19L160, 289.64L160, 504C160, 508.42 163.58, 512 168, 512L184, 512C188.42, 512 192, 508.42 192, 504L192, 134.4L320, 32L448, 134.4L448, 504C448, 508.42 451.58, 512 456, 512L472, 512C476.42, 512 480, 508.42 480, 504L480, 289.64L544, 229.19L608, 289.64L608, 504C608, 508.42 611.58, 512 616, 512L632, 512C636.42, 512 640, 508.42 640, 504L640, 285.93C640, 279.43 637.15, 273.16 631.99, 268.29z" fill="#727272" fill-opacity="1" class="Black" />
    </g>
  </g>
</svg>