<?xml version='1.0' encoding='UTF-8'?>
<svg viewBox="-1.5477 -1.5477 32 32" xmlns="http://www.w3.org/2000/svg">
  <g transform="matrix(0.9991, 0, 0, 0.9991, 0, 0)">
    <g transform="matrix(0.0565, 0, 0, 0.0565, 0, 0)">
      <path d="M492, 8L482, 8C475.373, 8 470, 13.373 470, 20L470, 130.627C426.929, 57.261 347.224, 8 256, 8C123.228, 8 14.824, 112.338 8.31, 243.493C7.971, 250.311 13.475, 256 20.301, 256L30.317, 256C36.67, 256 41.963, 251.051 42.294, 244.707C48.157, 132.216 141.097, 42 256, 42C338.862, 42 410.737, 89.077 446.289, 158L332, 158C325.373, 158 320, 163.373 320, 170L320, 180C320, 186.627 325.373, 192 332, 192L492, 192C498.627, 192 504, 186.627 504, 180L504, 20C504, 13.373 498.627, 8 492, 8zM491.699, 256L481.684, 256C475.332, 256 470.037, 260.949 469.707, 267.293C463.841, 380.158 370.546, 470 256, 470C173.392, 470 101.328, 423.048 65.701, 354L180, 354C186.627, 354 192, 348.627 192, 342L192, 332C192, 325.373 186.627, 320 180, 320L20, 320C13.373, 320 8, 325.373 8, 332L8, 492C8, 498.627 13.373, 504 20, 504L30, 504C36.627, 504 42, 498.627 42, 492L42, 381.373C85.071, 454.739 164.777, 504 256, 504C388.773, 504 497.176, 399.662 503.69, 268.507C504.029, 261.689 498.525, 256 491.699, 256z" fill="#727272" fill-opacity="1" class="Black" />
    </g>
  </g>
</svg>