<?xml version='1.0' encoding='UTF-8'?>
<svg viewBox="-1.9999 -1.9974 32 31.995" xmlns="http://www.w3.org/2000/svg">
  <g transform="matrix(0.0547, 0, 0, 0.0547, 0, 0)">
    <path d="M457.373, 9.387L407.278, 59.489C365.411, 27.211 312.953, 8 256, 8C123.228, 8 14.824, 112.338 8.31, 243.493C7.971, 250.311 13.475, 256 20.301, 256L30.316, 256C36.668, 256 41.963, 251.051 42.293, 244.707C48.159, 131.913 141.389, 42 256, 42C303.554, 42 347.487, 57.512 383.02, 83.75L329.405, 137.372C309.305, 157.472 323.55, 192 352.032, 192L480, 192C497.673, 192 512, 177.673 512, 160L512, 32.015C512, 3.54 477.436, -10.676 457.373, 9.387zM480, 160L352, 160L480, 32L480, 160zM491.699, 256L481.685, 256C475.332, 256 470.038, 260.949 469.708, 267.293C463.84, 380.203 370.504, 470 256, 470C208.475, 470 164.532, 454.491 128.984, 428.243L182.596, 374.627C202.695, 354.527 188.451, 320 159.969, 320L32, 320C14.327, 320 0, 334.327 0, 352L0, 479.978C0, 508.592 34.615, 522.619 54.627, 502.605L104.719, 452.509C146.587, 484.788 199.046, 504 256, 504C388.773, 504 497.176, 399.662 503.69, 268.507C504.029, 261.689 498.525, 256 491.699, 256zM32, 480L32, 352L160, 352L32, 480z" fill="#727272" fill-opacity="1" class="Black" />
  </g>
</svg>