<?xml version='1.0' encoding='UTF-8'?>
<svg viewBox="-1.9998 -2.0023 32 31.9975" xmlns="http://www.w3.org/2000/svg">
  <g transform="matrix(0.0547, 0, 0, 0.0547, 0, 0)">
    <path d="M509.7, 81.5L430.5, 2.3C427.4, -0.8 422.3, -0.8 419.2, 2.3L407.9, 13.6C404.8, 16.7 404.8, 21.8 407.9, 24.9L436.2, 53.2L390.9, 98.5L334.3, 41.9L317.3, 24.9C314.2, 21.8 309.1, 21.8 306, 24.9L294.7, 36.2C291.6, 39.3 291.6, 44.4 294.7, 47.5L311.7, 64.5L84.5, 291.7C67.2, 309 58.9, 332.8 61.5, 357.1L68.6, 420.7L2.3, 487C-0.8, 490.1 -0.8, 495.2 2.3, 498.3L13.6, 509.6C16.7, 512.7 21.8, 512.7 24.9, 509.6L91.2, 443.3L154.8, 450.4C178.7, 453 202.7, 445 220.2, 427.4L447.4, 200.2L464.4, 217.2C467.5, 220.3 472.6, 220.3 475.7, 217.2L487, 206C490.1, 202.9 490.1, 197.8 487, 194.7L413.5, 121.2L458.8, 75.9L487.1, 104.2C490.2, 107.3 495.3, 107.3 498.4, 104.2L509.7, 92.9C512.8, 89.7 512.8, 84.7 509.7, 81.5zM424.8, 177.7L197.7, 404.9C187.3, 415.3 173.1, 420.3 158.5, 418.7L100, 412.2L93.5, 353.7C91.9, 339.1 96.9, 324.8 107.3, 314.5L130.8, 291L170.4, 330.6C173.5, 333.7 178.6, 333.7 181.7, 330.6L193, 319.3C196.1, 316.2 196.1, 311.1 193, 308L153.4, 268.4L198.7, 223.1L238.3, 262.7C241.4, 265.8 246.5, 265.8 249.6, 262.7L260.9, 251.4C264, 248.3 264, 243.2 260.9, 240.1L221.3, 200.5L266.6, 155.2L306.2, 194.8C309.3, 197.9 314.4, 197.9 317.5, 194.8L328.8, 183.5C331.9, 180.4 331.9, 175.3 328.8, 172.2L289, 132.4L334.3, 87.1L424.8, 177.7z" fill="#727272" fill-opacity="1" class="Black" />
  </g>
</svg>