<?xml version='1.0' encoding='UTF-8'?>
<svg viewBox="-3.7495 -2 32 32" xmlns="http://www.w3.org/2000/svg">
  <g transform="matrix(0.0547, 0, 0, 0.0547, 0, 0)">
    <path d="M400, 0L48, 0C21.5, 0 0, 21.5 0, 48L0, 464C0, 490.5 21.5, 512 48, 512L400, 512C426.5, 512 448, 490.5 448, 464L448, 48C448, 21.5 426.5, 0 400, 0zM416, 464C416, 472.8 408.8, 480 400, 480L48, 480C39.2, 480 32, 472.8 32, 464L32, 48C32, 39.2 39.2, 32 48, 32L400, 32C408.8, 32 416, 39.2 416, 48L416, 464zM276, 448L172, 448C165.4, 448 160, 442.6 160, 436L160, 428C160, 421.4 165.4, 416 172, 416L276, 416C282.6, 416 288, 421.4 288, 428L288, 436C288, 442.6 282.6, 448 276, 448z" fill="#727272" fill-opacity="1" class="Black" />
  </g>
</svg>