<?xml version='1.0' encoding='UTF-8'?>
<svg viewBox="-2 -4.7992 32 32" xmlns="http://www.w3.org/2000/svg">
  <g transform="matrix(0.9988, 0, 0, 0.9988, 0, 0)">
    <g transform="matrix(0.0438, 0, 0, 0.0438, 0, 0)">
      <path d="M480, 0C391.6, 0 320, 71.6 320, 160C320, 248.4 391.6, 320 480, 320C568.4, 320 640, 248.4 640, 160C640, 71.6 568.4, 0 480, 0zM480, 288C409.3, 288 352, 230.7 352, 160C352, 130.4 362.4, 103.6 379.3, 81.9L558.2, 260.8C536.4, 277.6 509.6, 288 480, 288zM580.7, 238.1L401.9, 59.3C423.6, 42.4 450.4, 32 480, 32C550.7, 32 608, 89.3 608, 160C608, 189.6 597.6, 216.4 580.7, 238.1zM160, 192C71.6, 192 0, 263.6 0, 352C0, 440.4 71.6, 512 160, 512C248.4, 512 320, 440.4 320, 352C320, 263.6 248.4, 192 160, 192zM160, 480C94.8, 480 41.6, 431.1 33.6, 368L286.4, 368C278.4, 431.1 225.2, 480 160, 480zM33.6, 336C41.6, 272.9 94.8, 224 160, 224C225.2, 224 278.4, 272.9 286.4, 336L33.6, 336z" fill="#727272" fill-opacity="1" class="Black" />
    </g>
  </g>
</svg>