<?xml version='1.0' encoding='UTF-8'?>
<svg viewBox="-2 -1.9988 32 32" xmlns="http://www.w3.org/2000/svg">
  <g transform="matrix(0.0547, 0, 0, 0.0547, 0, 0)">
    <path d="M464, 32L48, 32C21.49, 32 0, 53.49 0, 80L0, 432C0, 458.51 21.49, 480 48, 480L464, 480C490.51, 480 512, 458.51 512, 432L512, 80C512, 53.49 490.51, 32 464, 32zM160, 448L48, 448C39.163, 448 32, 440.837 32, 432L32, 352L160, 352L160, 448zM160, 320L32, 320L32, 224L160, 224L160, 320zM160, 192L32, 192L32, 96L160, 96L160, 192zM320, 448L192, 448L192, 352L320, 352L320, 448zM320, 320L192, 320L192, 224L320, 224L320, 320zM320, 192L192, 192L192, 96L320, 96L320, 192zM480, 352L480, 432C480, 440.837 472.837, 448 464, 448L352, 448L352, 352L480, 352zM480, 320L352, 320L352, 224L480, 224L480, 320zM480, 192L352, 192L352, 96L480, 96L480, 192z" fill="#727272" fill-opacity="1" class="Black" />
  </g>
</svg>