<?xml version='1.0' encoding='UTF-8'?>
<svg viewBox="-3.7495 -2 32 32" xmlns="http://www.w3.org/2000/svg">
  <g transform="matrix(0.0547, 0, 0, 0.0547, 0, 0)">
    <path d="M352, 96L352, 352L96, 352L96, 96L352, 96M400, 0L48, 0C21.5, 0 0, 21.5 0, 48L0, 464C0, 490.5 21.5, 512 48, 512L400, 512C426.5, 512 448, 490.5 448, 464L448, 48C448, 21.5 426.5, 0 400, 0zM48, 480C39.2, 480 32, 472.8 32, 464L32, 48C32, 39.2 39.2, 32 48, 32L400, 32C408.8, 32 416, 39.2 416, 48L416, 464C416, 472.8 408.8, 480 400, 480L48, 480zM372, 64L76, 64C69.4, 64 64, 69.4 64, 76L64, 372C64, 378.6 69.4, 384 76, 384L372, 384C378.6, 384 384, 378.6 384, 372L384, 76C384, 69.4 378.6, 64 372, 64zM276, 416L172, 416C165.4, 416 160, 421.4 160, 428L160, 436C160, 442.6 165.4, 448 172, 448L276, 448C282.6, 448 288, 442.6 288, 436L288, 428C288, 421.4 282.6, 416 276, 416z" fill="#727272" fill-opacity="1" class="Black" />
  </g>
</svg>