<?xml version='1.0' encoding='UTF-8'?>
<svg viewBox="-2 -3.554 32 32" xmlns="http://www.w3.org/2000/svg">
  <g transform="matrix(0.0486, 0, 0, 0.0486, 0, 0)">
    <path d="M411.56, 173.94L314.47, 293.88C306.38, 290.19 297.47, 288 288, 288C252.65, 288 224, 316.65 224, 352C224, 387.35 252.65, 416 288, 416C323.35, 416 352, 387.35 352, 352C352, 337.74 347.18, 324.7 339.29, 314.06L436.43, 194.06C441.99, 187.2 440.93, 177.12 434.05, 171.56C427.16, 166.02 417.12, 167.06 411.56, 173.94zM288, 384C270.33, 384 256, 369.67 256, 352C256, 334.33 270.33, 320 288, 320C305.67, 320 320, 334.33 320, 352C320, 369.67 305.67, 384 288, 384zM288, 32C128.94, 32 0, 160.94 0, 320C0, 372.8 14.25, 422.26 39.06, 464.8C44.67, 474.42 55.36, 480 66.5, 480L509.5, 480C520.64, 480 531.33, 474.42 536.94, 464.8C561.75, 422.26 576, 372.8 576, 320C576, 160.94 447.06, 32 288, 32zM509.5, 448L66.7, 448.68C44, 409.75 32, 365.26 32, 320C32, 178.84 146.84, 64 288, 64C429.16, 64 544, 178.84 544, 320C544, 365.26 532, 409.75 509.5, 448z" fill="#727272" fill-opacity="1" class="Black" />
  </g>
</svg>