<?xml version='1.0' encoding='UTF-8'?>
<svg viewBox="-2 -3.554 32 32" xmlns="http://www.w3.org/2000/svg">
  <g transform="matrix(0.0486, 0, 0, 0.0486, 0, 0)">
    <path d="M120, 320C120, 333.26 109.26, 344 96, 344C82.74, 344 72, 333.26 72, 320C72, 306.74 82.74, 296 96, 296C109.26, 296 120, 306.74 120, 320zM288, 152C301.26, 152 312, 141.26 312, 128C312, 114.74 301.26, 104 288, 104C274.74, 104 264, 114.74 264, 128C264, 141.26 274.74, 152 288, 152zM352, 352C352, 387.35 323.35, 416 288, 416C252.65, 416 224, 387.35 224, 352C224, 337.74 228.82, 324.7 236.71, 314.06L139.57, 194.06C134.01, 187.2 135.07, 177.12 141.95, 171.56C148.83, 166.01 158.92, 167.06 164.45, 173.94L261.54, 293.88C269.63, 290.19 278.54, 288 288.01, 288C323.35, 288 352, 316.65 352, 352zM320, 352C320, 334.33 305.67, 320 288, 320C270.33, 320 256, 334.33 256, 352C256, 369.67 270.33, 384 288, 384C305.67, 384 320, 369.67 320, 352zM576, 320C576, 372.8 561.75, 422.26 536.94, 464.8C531.33, 474.42 520.64, 480 509.5, 480L66.5, 480C55.36, 480 44.67, 474.42 39.06, 464.8C14.25, 422.26 0, 372.8 0, 320C0, 160.94 128.94, 32 288, 32C447.06, 32 576, 160.94 576, 320zM544, 320C544, 178.84 429.16, 64 288, 64C146.84, 64 32, 178.84 32, 320C32, 365.26 44, 409.75 66.7, 448.68L509.5, 448C532, 409.75 544, 365.26 544, 320zM424, 160C410.74, 160 400, 170.74 400, 184C400, 197.26 410.74, 208 424, 208C437.26, 208 448, 197.26 448, 184C448, 170.74 437.26, 160 424, 160zM480, 296C466.74, 296 456, 306.74 456, 320C456, 333.26 466.74, 344 480, 344C493.26, 344 504, 333.26 504, 320C504, 306.74 493.26, 296 480, 296z" fill="#727272" fill-opacity="1" class="Black" />
  </g>
</svg>