<?xml version='1.0' encoding='UTF-8'?>
<svg viewBox="-2 -3.554 32 32" xmlns="http://www.w3.org/2000/svg">
  <g transform="matrix(0.0486, 0, 0, 0.0486, 0, 0)">
    <path d="M120, 320C120, 333.26 109.26, 344 96, 344C82.74, 344 72, 333.26 72, 320C72, 306.74 82.74, 296 96, 296C109.26, 296 120, 306.74 120, 320zM288, 152C301.26, 152 312, 141.26 312, 128C312, 114.74 301.26, 104 288, 104C274.74, 104 264, 114.74 264, 128C264, 141.26 274.74, 152 288, 152zM152, 160C138.74, 160 128, 170.74 128, 184C128, 197.26 138.74, 208 152, 208C165.26, 208 176, 197.26 176, 184C176, 170.74 165.26, 160 152, 160zM434.06, 171.56C440.94, 177.12 442, 187.2 436.44, 194.06L339.3, 314.06C347.18, 324.7 352, 337.74 352, 352C352, 387.35 323.35, 416 288, 416C252.65, 416 224, 387.35 224, 352C224, 316.65 252.65, 288 288, 288C297.47, 288 306.38, 290.18 314.47, 293.88L411.56, 173.94C417.12, 167.06 427.16, 166.02 434.06, 171.56zM320, 352C320, 334.33 305.67, 320 288, 320C270.33, 320 256, 334.33 256, 352C256, 369.67 270.33, 384 288, 384C305.67, 384 320, 369.67 320, 352zM480, 296C466.74, 296 456, 306.74 456, 320C456, 333.26 466.74, 344 480, 344C493.26, 344 504, 333.26 504, 320C504, 306.74 493.26, 296 480, 296zM576, 320C576, 372.8 561.75, 422.26 536.94, 464.8C531.33, 474.42 520.64, 480 509.5, 480L66.5, 480C55.36, 480 44.67, 474.42 39.06, 464.8C14.25, 422.26 0, 372.8 0, 320C0, 160.94 128.94, 32 288, 32C447.06, 32 576, 160.94 576, 320zM544, 320C544, 178.84 429.16, 64 288, 64C146.84, 64 32, 178.84 32, 320C32, 365.26 44, 409.75 66.7, 448.68L509.5, 448C532, 409.75 544, 365.26 544, 320z" fill="#727272" fill-opacity="1" class="Black" />
  </g>
</svg>