<?xml version='1.0' encoding='UTF-8'?>
<svg viewBox="-2 -3.554 32 32" xmlns="http://www.w3.org/2000/svg">
  <g transform="matrix(0.0486, 0, 0, 0.0486, 0, 0)">
    <path d="M120, 320C120, 333.26 109.26, 344 96, 344C82.74, 344 72, 333.26 72, 320C72, 306.74 82.74, 296 96, 296C109.26, 296 120, 306.74 120, 320zM288, 152C301.26, 152 312, 141.26 312, 128C312, 114.74 301.26, 104 288, 104C274.74, 104 264, 114.74 264, 128C264, 141.26 274.74, 152 288, 152zM424, 208C437.26, 208 448, 197.26 448, 184C448, 170.74 437.26, 160 424, 160C410.74, 160 400, 170.74 400, 184C400, 197.26 410.74, 208 424, 208zM495.78, 317.38C497.25, 326.1 491.34, 334.33 482.62, 335.79L351.42, 357.66C348.53, 390.3 321.41, 416 288, 416C252.65, 416 224, 387.35 224, 352C224, 316.65 252.65, 288 288, 288C314.09, 288 336.44, 303.66 346.41, 326.05L477.38, 304.22C485.91, 302.73 494.31, 308.66 495.78, 317.38zM320, 352C320, 334.33 305.67, 320 288, 320C270.33, 320 256, 334.33 256, 352C256, 369.67 270.33, 384 288, 384C305.67, 384 320, 369.67 320, 352zM152, 160C138.74, 160 128, 170.74 128, 184C128, 197.26 138.74, 208 152, 208C165.26, 208 176, 197.26 176, 184C176, 170.74 165.26, 160 152, 160zM576, 320C576, 372.8 561.75, 422.26 536.94, 464.8C531.33, 474.42 520.64, 480 509.5, 480L66.5, 480C55.36, 480 44.67, 474.42 39.06, 464.8C14.25, 422.26 0, 372.8 0, 320C0, 160.94 128.94, 32 288, 32C447.06, 32 576, 160.94 576, 320zM544, 320C544, 178.84 429.16, 64 288, 64C146.84, 64 32, 178.84 32, 320C32, 365.26 44, 409.75 66.7, 448.68L509.5, 448C532, 409.75 544, 365.26 544, 320z" fill="#727272" fill-opacity="1" class="Black" />
  </g>
</svg>