<?xml version='1.0' encoding='UTF-8'?>
<svg viewBox="-2 -3.554 32 32" xmlns="http://www.w3.org/2000/svg">
  <g transform="matrix(0.0486, 0, 0, 0.0486, 0, 0)">
    <path d="M288, 32C128.94, 32 0, 160.94 0, 320C0, 372.8 14.25, 422.26 39.06, 464.8C44.67, 474.42 55.36, 480 66.5, 480L509.5, 480C520.64, 480 531.33, 474.42 536.94, 464.8C561.75, 422.26 576, 372.8 576, 320C576, 160.94 447.06, 32 288, 32zM509.5, 448L66.7, 448.68C44, 409.75 32, 365.26 32, 320C32, 178.84 146.84, 64 288, 64C429.16, 64 544, 178.84 544, 320C544, 365.26 532, 409.75 509.5, 448zM365.22, 128.88C357.03, 126.1 347.78, 130.43 344.88, 138.77L293.05, 288.51C291.36, 288.38 289.74, 288 288.01, 288C252.66, 288 224.01, 316.65 224.01, 352C224.01, 387.35 252.66, 416 288.01, 416C323.36, 416 352.01, 387.35 352.01, 352C352.01, 329.75 340.63, 310.18 323.39, 298.71L375.13, 149.23C378, 140.89 373.59, 131.77 365.22, 128.88zM288, 384C270.36, 384 256, 369.64 256, 352C256, 334.36 270.36, 320 288, 320C305.64, 320 320, 334.36 320, 352C320, 369.64 305.64, 384 288, 384z" fill="#727272" fill-opacity="1" class="Black" />
  </g>
</svg>