<?xml version='1.0' encoding='UTF-8'?>
<svg viewBox="-2 -2 32 32" xmlns="http://www.w3.org/2000/svg">
  <g transform="matrix(0.0547, 0, 0, 0.0547, 0, 0)">
    <path d="M497.941, 225.941L286.059, 14.059A48 48 0 0 0 252.118, 0L48, 0C21.49, 0 0, 21.49 0, 48L0, 252.118A48 48 0 0 0 14.059, 286.059L225.941, 497.941C244.686, 516.686 275.078, 516.687 293.823, 497.941L497.941, 293.823C516.686, 275.078 516.686, 244.686 497.941, 225.941zM475.314, 271.196L271.196, 475.314C264.953, 481.557 254.821, 481.567 248.569, 475.314L36.686, 263.431A15.895 15.895 0 0 1 32, 252.117L32, 48C32, 39.178 39.178, 32 48, 32L252.118, 32C256.392, 32 260.41, 33.664 263.432, 36.686L475.314, 248.568C481.552, 254.807 481.552, 264.958 475.314, 271.196zM144, 124C155.028, 124 164, 132.972 164, 144C164, 155.028 155.028, 164 144, 164C132.972, 164 124, 155.028 124, 144C124, 132.972 132.972, 124 144, 124M144, 96C117.49, 96 96, 117.49 96, 144C96, 170.51 117.49, 192 144, 192C170.51, 192 192, 170.51 192, 144C192, 117.49 170.51, 96 144, 96z" fill="#727272" fill-opacity="1" class="Black" />
  </g>
</svg>