<?xml version='1.0' encoding='UTF-8'?>
<svg viewBox="-2 -4.7992 32 32" xmlns="http://www.w3.org/2000/svg">
  <g transform="matrix(0.9988, 0, 0, 0.9988, 0, 0)">
    <g transform="matrix(0.0438, 0, 0, 0.0438, 0, 0)">
      <path d="M625.941, 293.823L421.823, 497.941C403.077, 516.687 372.685, 516.686 353.941, 497.941L352.166, 496.166L374.793, 473.539L376.568, 475.314C382.821, 481.567 392.952, 481.557 399.195, 475.314L603.313, 271.196C609.551, 264.957 609.551, 254.807 603.313, 248.569L391.431, 36.686A15.895 15.895 0 0 0 380.117, 32L360.568, 32L328.568, 0L380.117, 0A48 48 0 0 1 414.058, 14.059L625.94, 225.941C644.686, 244.686 644.686, 275.078 625.941, 293.823zM252.118, 32L48, 32C39.178, 32 32, 39.178 32, 48L32, 252.118C32, 256.392 33.664, 260.41 36.686, 263.432L248.568, 475.314C254.821, 481.567 264.952, 481.557 271.195, 475.314L475.313, 271.196C481.551, 264.957 481.551, 254.807 475.313, 248.569L263.431, 36.686A15.895 15.895 0 0 0 252.118, 32M252.118, 0A48 48 0 0 1 286.059, 14.059L497.941, 225.941C516.686, 244.686 516.686, 275.078 497.941, 293.823L293.823, 497.941C275.077, 516.687 244.685, 516.686 225.941, 497.941L14.059, 286.059A48 48 0 0 1 0, 252.118L0, 48C0, 21.49 21.49, 0 48, 0L252.118, 0zM144, 124C132.972, 124 124, 132.972 124, 144C124, 155.028 132.972, 164 144, 164C155.028, 164 164, 155.028 164, 144C164, 132.972 155.028, 124 144, 124M144, 96C170.51, 96 192, 117.49 192, 144C192, 170.51 170.51, 192 144, 192C117.49, 192 96, 170.51 96, 144C96, 117.49 117.49, 96 144, 96z" fill="#727272" fill-opacity="1" class="Black" />
    </g>
  </g>
</svg>