<?xml version='1.0' encoding='UTF-8'?>
<svg viewBox="-1.9975 -4.7973 32 32" xmlns="http://www.w3.org/2000/svg">
  <g transform="matrix(1.0013, 0, 0, 1.0013, 0, 0)">
    <g transform="matrix(0.0437, 0, 0, 0.0437, 0, 0)">
      <path d="M634.79, 149.58C633.46, 145.37 628.96, 143.04 624.75, 144.37L528, 174.49L528, 40C528, 35.58 524.42, 32 520, 32L504, 32C499.58, 32 496, 35.58 496, 40L496, 184.45L400, 214.33L400, 40C400, 35.58 396.42, 32 392, 32L376, 32C371.58, 32 368, 35.58 368, 40L368, 224.3L272, 254.18L272, 40C272, 35.58 268.42, 32 264, 32L248, 32C243.58, 32 240, 35.58 240, 40L240, 264.15L144, 294.03L144, 40C144, 35.58 140.42, 32 136, 32L120, 32C115.58, 32 112, 35.58 112, 40L112, 303.99L5.58, 337.12A8.005 8.005 0 0 0 0.37, 347.16L5.21, 362.41C6.54, 366.62 11.04, 368.95 15.25, 367.62L112, 337.51L112, 472C112, 476.42 115.58, 480 120, 480L136, 480C140.42, 480 144, 476.42 144, 472L144, 327.54L240, 297.66L240, 472C240, 476.42 243.58, 480 248, 480L264, 480C268.42, 480 272, 476.42 272, 472L272, 287.7L368, 257.82L368, 472C368, 476.42 371.58, 480 376, 480L392, 480C396.42, 480 400, 476.42 400, 472L400, 247.85L496, 217.97L496, 472C496, 476.42 499.58, 480 504, 480L520, 480C524.42, 480 528, 476.42 528, 472L528, 208.01L634.42, 174.88A8.005 8.005 0 0 0 639.63, 164.84L634.79, 149.58z" fill="#727272" fill-opacity="1" class="Black" />
    </g>
  </g>
</svg>