<?xml version='1.0' encoding='UTF-8'?>
<svg viewBox="-3.7495 -2 32 32" xmlns="http://www.w3.org/2000/svg">
  <g transform="matrix(0.0547, 0, 0, 0.0547, 0, 0)">
    <path d="M368, 0L24, 0A23.94 23.94 0 0 0 0, 24L0, 392A24.1 24.1 0 0 0 14.9, 414.2C18.5, 430.3 19.3, 459.8 15.3, 480L12, 480A12 12 0 0 0 0, 492L0, 500A12 12 0 0 0 12, 512L384, 512A64 64 0 0 0 448, 448L448, 80A80 80 0 0 0 368, 0zM384, 480L43.7, 480A228.6 228.6 0 0 0 43.7, 416L384, 416A32 32 0 0 1 384, 480zM416, 392.88A63.33 63.33 0 0 0 384, 384L32, 384L32, 32L368, 32A48 48 0 0 1 416, 80zM314.58, 208L342.28, 161.68A20 20 0 0 0 325.09, 131.42L268.74, 131.42L241, 85.16C237.41, 79.09 231.13, 74.78 224, 75.48A20 20 0 0 0 206.78, 85.28L179.18, 131.44L122.88, 131.44A20.14 20.14 0 0 0 105.38, 141.59A19.68 19.68 0 0 0 105.59, 161.59L133.42, 208L105.72, 254.32A20 20 0 0 0 122.91, 284.58L179.26, 284.58L207, 330.84A19.64 19.64 0 0 0 223.94, 340.52L224, 340.52A20 20 0 0 0 241.22, 330.72L268.82, 284.56L325.12, 284.56A20.14 20.14 0 0 0 342.62, 274.41A19.68 19.68 0 0 0 342.41, 254.41zM318.06, 155.42L300.59, 184.63L283.1, 155.44zM224, 103.38L240.8, 131.44L207.18, 131.44zM130, 155.44L164.91, 155.44L147.4, 184.61zM130, 260.56L147.47, 231.35L164.96, 260.56zM224, 312.62L207.2, 284.56L240.79, 284.56zM255.15, 260.56L192.87, 260.56L161.39, 208L192.82, 155.46L255.13, 155.46L286.61, 208zM283.15, 260.56L300.6, 231.39L318.06, 260.56z" fill="#727272" fill-opacity="1" class="Black" />
  </g>
</svg>