<?xml version='1.0' encoding='UTF-8'?>
<svg viewBox="-2 -4.7992 32 32" xmlns="http://www.w3.org/2000/svg">
  <g transform="matrix(0.9988, 0, 0, 0.9988, 0, 0)">
    <g transform="matrix(0.0438, 0, 0, 0.0438, 0, 0)">
      <path d="M632, 448L338.9, 448C404.2, 408.8 448, 337.6 448, 256C448, 132.3 347.7, 32 224, 32C100.3, 32 0, 132.3 0, 256C0, 379.7 100.3, 480 224, 480L632, 480C636.4, 480 640, 476.4 640, 472L640, 456C640, 451.6 636.4, 448 632, 448zM32, 256C32, 150.1 118.1, 64 224, 64C329.9, 64 416, 150.1 416, 256C416, 361.9 329.9, 448 224, 448C118.1, 448 32, 361.9 32, 256zM224, 160C171, 160 128, 203 128, 256C128, 309 171, 352 224, 352C277, 352 320, 309 320, 256C320, 203 277, 160 224, 160zM224, 320C188.7, 320 160, 291.3 160, 256C160, 220.7 188.7, 192 224, 192C259.3, 192 288, 220.7 288, 256C288, 291.3 259.3, 320 224, 320z" fill="#727272" fill-opacity="1" class="Black" />
    </g>
  </g>
</svg>