<?xml version='1.0' encoding='UTF-8'?>
<svg viewBox="-2.0524 -2.5286 31.9975 32" xmlns="http://www.w3.org/2000/svg">
  <g transform="matrix(0.0547, 0, 0, 0.0547, 0, 0)">
    <path d="M145.35, 207A8 8 0 0 0 134, 207L63, 278L24, 239A8 8 0 0 0 12.69, 239L1.35, 250.34A8 8 0 0 0 1.35, 261.66L57.35, 317.66A8 8 0 0 0 68.66, 317.66L156.66, 229.66A8 8 0 0 0 156.66, 218.34zM62.93, 384C45.26, 384 30.53, 398.33 30.53, 416C30.53, 433.67 45.26, 448 62.93, 448A32 32 0 0 0 62.93, 384zM145.35, 47A8 8 0 0 0 134, 47L63, 118L24, 79A8 8 0 0 0 12.69, 79L1.35, 90.34A8 8 0 0 0 1.35, 101.66L57.35, 157.66A8 8 0 0 0 68.66, 157.66L156.66, 69.66A8 8 0 0 0 156.66, 58.34zM503, 400L199, 400A8 8 0 0 0 191, 408L191, 424A8 8 0 0 0 199, 432L503, 432A8 8 0 0 0 511, 424L511, 408A8 8 0 0 0 503, 400zM503, 80L199, 80A8 8 0 0 0 191, 88L191, 104A8 8 0 0 0 199, 112L503, 112A8 8 0 0 0 511, 104L511, 88A8 8 0 0 0 503, 80zM503, 240L199, 240A8 8 0 0 0 191, 248L191, 264A8 8 0 0 0 199, 272L503, 272A8 8 0 0 0 511, 264L511, 248A8 8 0 0 0 503, 240z" fill="#727272" fill-opacity="1" class="Black" />
  </g>
</svg>