<?xml version='1.0' encoding='UTF-8'?>
<svg viewBox="-1.9999 -2.0524 32 31.9975" xmlns="http://www.w3.org/2000/svg">
  <g transform="matrix(0.0547, 0, 0, 0.0547, 0, 0)">
    <path d="M488, 191L24, 191C10.7, 191 0, 201.7 0, 215L0, 295C0, 308.3 10.7, 319 24, 319L488, 319C501.3, 319 512, 308.3 512, 295L512, 215C512, 201.7 501.3, 191 488, 191zM128, 287L32, 287L32, 223L128, 223L128, 287zM480, 287L160, 287L160, 223L480, 223L480, 287zM488, 31L24, 31C10.7, 31 0, 41.7 0, 55L0, 135C0, 148.3 10.7, 159 24, 159L488, 159C501.3, 159 512, 148.3 512, 135L512, 55C512, 41.7 501.3, 31 488, 31zM320, 127L32, 127L32, 63L320, 63L320, 127zM480, 127L352, 127L352, 63L480, 63L480, 127zM488, 351L24, 351C10.7, 351 0, 361.7 0, 375L0, 455C0, 468.3 10.7, 479 24, 479L488, 479C501.3, 479 512, 468.3 512, 455L512, 375C512, 361.7 501.3, 351 488, 351zM256, 447L32, 447L32, 383L256, 383L256, 447zM480, 447L288, 447L288, 383L480, 383L480, 447z" fill="#727272" fill-opacity="1" class="Black" />
  </g>
</svg>