<?xml version='1.0' encoding='UTF-8'?>
<svg viewBox="-2 -4.7992 32 32" xmlns="http://www.w3.org/2000/svg">
  <g transform="matrix(0.9988, 0, 0, 0.9988, 0, 0)">
    <g transform="matrix(0.0438, 0, 0, 0.0438, 0, 0)">
      <path d="M576, 304L64, 304C28.66, 304 0, 332.65 0, 368L0, 416C0, 469.02 42.98, 512 96, 512L544, 512C597.02, 512 640, 469.02 640, 416L640, 368C640, 332.65 611.34, 304 576, 304zM464, 368L464, 349.33C464, 341.97 469.97, 336 477.33, 336L530.66, 336C538.02, 336 543.99, 341.97 543.99, 349.33L543.99, 370.66C543.99, 392.75 526.08, 410.66 503.99, 410.66C481.9, 410.66 463.99, 392.75 463.99, 370.66L463.99, 368zM336, 349.71C336, 342.14 342.14, 336 349.71, 336L418.28, 336C425.85, 336 431.99, 342.14 431.99, 349.71L431.99, 368C431.99, 394.51 410.5, 416 383.99, 416C357.48, 416 335.99, 394.51 335.99, 368L335.99, 349.71zM208, 349.71C208, 342.14 214.14, 336 221.71, 336L290.28, 336C297.85, 336 303.99, 342.14 303.99, 349.71L303.99, 368C303.99, 394.51 282.5, 416 255.99, 416C229.48, 416 207.99, 394.51 207.99, 368L207.99, 349.71zM96, 349.33C96, 341.97 101.97, 336 109.33, 336L162.66, 336C170.02, 336 175.99, 341.97 175.99, 349.33L175.99, 370.67C175.99, 392.76 158.08, 410.67 135.99, 410.67C113.9, 410.67 95.99, 392.76 95.99, 370.67L95.99, 349.33zM608, 416C608, 451.29 579.29, 480 544, 480L96, 480C60.71, 480 32, 451.29 32, 416L32, 368C32, 350.36 46.36, 336 64, 336L66.23, 336C64.91, 340.24 64, 344.66 64, 349.33L64, 370.66C64, 410.36 96.3, 442.66 136, 442.66C158.7, 442.66 178.73, 431.89 191.94, 415.43C206.53, 435.08 229.71, 448 256, 448C282.26, 448 305.4, 435.11 320, 415.51C334.6, 435.11 357.74, 448 384, 448C410.29, 448 433.47, 435.08 448.06, 415.43C461.27, 431.89 481.3, 442.66 504, 442.66C543.7, 442.66 576, 410.36 576, 370.66L576, 349.33C576, 344.66 575.09, 340.24 573.77, 336L576, 336C593.64, 336 608, 350.36 608, 368L608, 416zM544, 0L96, 0C42.98, 0 0, 42.98 0, 96L0, 176C0, 211.35 28.66, 240 64, 240L576, 240C611.34, 240 640, 211.35 640, 176L640, 96C640, 42.98 597.02, 0 544, 0zM176, 194.67C176, 202.03 170.03, 208 162.67, 208L109.34, 208C101.98, 208 96.01, 202.03 96.01, 194.67L96.01, 173.34C96.01, 151.25 113.92, 133.34 136.01, 133.34C158.1, 133.34 176.01, 151.25 176.01, 173.34L176.01, 194.67zM304, 194.29C304, 201.86 297.86, 208 290.29, 208L221.72, 208C214.15, 208 208.01, 201.86 208.01, 194.29L208.01, 150.86C208.01, 124.35 229.5, 102.86 256.01, 102.86C282.52, 102.86 304.01, 124.35 304.01, 150.86L304.01, 194.29zM432, 194.29C432, 201.86 425.86, 208 418.29, 208L349.72, 208C342.15, 208 336.01, 201.86 336.01, 194.29L336.01, 150.86C336.01, 124.35 357.5, 102.86 384.01, 102.86C410.52, 102.86 432.01, 124.35 432.01, 150.86L432.01, 194.29zM544, 194.67C544, 202.03 538.03, 208 530.67, 208L477.34, 208C469.98, 208 464.01, 202.03 464.01, 194.67L464.01, 173.34C464.01, 151.25 481.92, 133.34 504.01, 133.34C526.1, 133.34 544.01, 151.25 544.01, 173.34L544.01, 194.67zM608, 176C608, 193.64 593.64, 208 576, 208L573.77, 208C575.09, 203.76 576, 199.34 576, 194.67L576, 173.34C576, 133.64 543.7, 101.34 504, 101.34C486.16, 101.34 469.81, 107.86 457.22, 118.65C444.8, 90.53 416.66, 70.86 384, 70.86C357.86, 70.86 334.61, 83.46 320, 102.91C305.39, 83.46 282.14, 70.86 256, 70.86C223.34, 70.86 195.2, 90.53 182.78, 118.64C170.19, 107.85 153.84, 101.33 136, 101.33C96.3, 101.33 64, 133.63 64, 173.33L64, 194.66C64, 199.33 64.91, 203.75 66.23, 207.99L64, 207.99C46.36, 207.99 32, 193.63 32, 175.99L32, 96C32, 60.71 60.71, 32 96, 32L544, 32C579.29, 32 608, 60.71 608, 96L608, 176z" fill="#727272" fill-opacity="1" class="Black" />
    </g>
  </g>
</svg>