<?xml version='1.0' encoding='UTF-8'?>
<svg viewBox="-1.9998 -3.5563 31.9975 32" xmlns="http://www.w3.org/2000/svg">
  <g transform="matrix(0.0486, 0, 0, 0.0486, 0, 0)">
    <path d="M128, 240C128, 292.9 171.1, 336 224, 336C276.9, 336 320, 292.9 320, 240C320, 187.1 276.9, 144 224, 144C171.1, 144 128, 187.1 128, 240zM288, 240C288, 275.3 259.3, 304 224, 304C188.7, 304 160, 275.3 160, 240C160, 204.7 188.7, 176 224, 176C259.3, 176 288, 204.7 288, 240zM480, 354.9L480, 80C480, 71.2 472.8, 64 464, 64C455.2, 64 448, 71.2 448, 80L448, 354.9C429.4, 361.5 416, 379.1 416, 400C416, 426.5 437.5, 448 464, 448C490.5, 448 512, 426.5 512, 400C512, 379.1 498.6, 361.5 480, 354.9zM544, 321.9L544, 80C544, 35.9 508.1, 0 464, 0C419.9, 0 384, 35.9 384, 80L384, 321.9C363.7, 342.7 352, 370.8 352, 400C352, 461.8 402.2, 512 464, 512C525.8, 512 576, 461.8 576, 400C576, 370.8 564.3, 342.6 544, 321.9zM464, 480C419.9, 480 384, 444.1 384, 400C384, 374.5 396.3, 351.1 416, 336.2L416, 80C416, 53.5 437.5, 32 464, 32C490.5, 32 512, 53.5 512, 80L512, 336.2C531.8, 351 544, 374.5 544, 400C544, 444.1 508.1, 480 464, 480zM263.9, 359.6L224, 419.2L184.1, 359.5C180.5, 354.1 174.1, 351.3 167.7, 352.7L97.3, 366.7L111.2, 296.3C112.5, 290 109.8, 283.5 104.4, 279.9L44.8, 240L104.5, 200.1C109.9, 196.5 112.5, 190 111.3, 183.7L97.4, 113.3L167.8, 127.3C174.2, 128.6 180.6, 125.9 184.2, 120.5L224, 60.8L263.9, 120.5C267.5, 125.9 273.8, 128.6 280.3, 127.3L352, 113L352, 80.4L284.6, 93.8L237.3, 23.1C231.3, 14.2 216.7, 14.2 210.7, 23.1L163.4, 93.8L80.1, 77.2C74.8, 76.1 69.4, 77.8 65.7, 81.6C61.9, 85.4 60.3, 90.8 61.3, 96L77.8, 179.4L7.1, 226.7C2.7, 229.7 0, 234.7 0, 240C0, 245.3 2.7, 250.3 7.1, 253.3L77.8, 300.6L61.3, 384C60.3, 389.2 61.9, 394.7 65.7, 398.4C69.5, 402.2 74.8, 403.9 80.1, 402.8L163.4, 386.3L210.7, 457C213.7, 461.5 218.7, 464.1 224, 464.1C229.3, 464.1 234.3, 461.4 237.3, 457L284.6, 386.3L320.6, 393.4C321.1, 382.7 322.9, 372.1 325.8, 361.8L280.3, 352.8C273.8, 351.4 267.5, 354.2 263.9, 359.6z" fill="#727272" fill-opacity="1" class="Black" />
  </g>
</svg>