<?xml version='1.0' encoding='UTF-8'?>
<svg viewBox="-1.9998 -2.0011 31.9975 32" xmlns="http://www.w3.org/2000/svg">
  <g transform="matrix(0.0547, 0, 0, 0.0547, 0, 0)">
    <path d="M416, 354.9L416, 336C416, 327.2 408.8, 320 400, 320C391.2, 320 384, 327.2 384, 336L384, 354.9C365.4, 361.5 352, 379.1 352, 400C352, 426.5 373.5, 448 400, 448C426.5, 448 448, 426.5 448, 400C448, 379.1 434.6, 361.5 416, 354.9zM480, 321.9L480, 80C480, 35.9 444.1, 0 400, 0C355.9, 0 320, 35.9 320, 80L320, 321.9C299.7, 342.7 288, 370.8 288, 400C288, 461.8 338.2, 512 400, 512C461.8, 512 512, 461.8 512, 400C512, 370.8 500.3, 342.6 480, 321.9zM400, 480C355.9, 480 320, 444.1 320, 400C320, 374.5 332.2, 351.1 352, 336.2L352, 80C352, 53.5 373.5, 32 400, 32C426.5, 32 448, 53.5 448, 80L448, 336.2C467.8, 351 480, 374.5 480, 400C480, 444.1 444.1, 480 400, 480zM277.1, 326C280.5, 320.4 283.9, 314.9 288, 309.8L288, 295.6L222.9, 256L288, 216.5L288, 179.4L208, 228L208, 134.7L253.7, 89C256.8, 85.9 256.8, 80.8 253.7, 77.7L242.4, 66.4C239.3, 63.3 234.2, 63.3 231.1, 66.4L208.1, 89.4L208.1, 40C208.1, 35.6 204.5, 32 200.1, 32L184.1, 32C179.7, 32 176.1, 35.6 176.1, 40L176.1, 89.4L153.1, 66.4C150, 63.3 144.9, 63.3 141.8, 66.4L130.5, 77.7C127.4, 80.8 127.4, 85.9 130.5, 89L176.2, 134.7L176.2, 228L98.5, 181.5L82.4, 119.1C81.3, 114.8 77.1, 112.3 73, 113.4L58.1, 117.5C54, 118.6 51.5, 123 52.6, 127.3L60.7, 158.8L19.5, 134.1C15.8, 131.9 11.1, 133.2 9, 137L1, 150.9C-1.1, 154.7 0.1, 159.6 3.8, 161.8L45, 186.5L14.8, 195C10.7, 196.1 8.2, 200.5 9.3, 204.8L13.3, 220.3C14.4, 224.6 18.6, 227.1 22.7, 226L82.9, 209.3L161.1, 256.1L82.9, 302.9L22.7, 286.2C18.6, 285.1 14.4, 287.6 13.3, 291.9L9.3, 307.4C8.2, 311.7 10.6, 316.1 14.8, 317.2L45.1, 325.6L3.9, 350.1C0.2, 352.3 -1.1, 357.2 1.1, 361L8.8, 374.9C10.9, 378.7 15.7, 380 19.3, 377.8L60.5, 353.1L52.4, 384.6C51.3, 388.9 53.7, 393.3 57.9, 394.4L72.8, 398.5C76.9, 399.6 81.1, 397.1 82.2, 392.8L98.3, 330.4L176, 283.9L176, 377.2L130.3, 423C127.2, 426.1 127.2, 431.2 130.3, 434.3L141.6, 445.6C144.7, 448.7 149.8, 448.7 152.9, 445.6L175.9, 422.6L175.9, 472C175.9, 476.4 179.5, 480 183.9, 480L199.9, 480C204.3, 480 207.9, 476.4 207.9, 472L207.9, 422.6L230.9, 445.6C234, 448.7 239.1, 448.7 242.2, 445.6L253.5, 434.3C256.6, 431.2 256.6, 426.1 253.5, 423L208, 377.4L208, 284.1L277.1, 326z" fill="#727272" fill-opacity="1" class="Black" />
  </g>
</svg>