<?xml version='1.0' encoding='UTF-8'?>
<svg viewBox="-1.9999 -1.549 31.9975 32" xmlns="http://www.w3.org/2000/svg">
  <g transform="matrix(0.999, 0, 0, 0.999, 0, 0)">
    <g transform="matrix(0.0565, 0, 0, 0.0565, 0, 0)">
      <path d="M248, 8C111.2, 8 0, 119.2 0, 256C0, 392.8 111.2, 504 248, 504C384.8, 504 496, 392.8 496, 256C496, 119.2 384.8, 8 248, 8zM235.5, 40.6C230, 50.3 226.2, 61.1 226.2, 73C226.2, 114.3 207.7, 160.6 180.2, 188.1C152.7, 215.6 106.4, 234.1 65.2, 234.1C53.2, 234.1 42.4, 237.9 32.7, 243.5C38.9, 134.4 126.4, 46.9 235.5, 40.6zM34.5, 287.2C39.4, 274.6 51.1, 266.1 65.1, 266.1C115.1, 266.1 169.1, 244.3 202.7, 210.7C236.3, 177.1 258.1, 123 258.1, 73C258.1, 59 266.5, 47.3 279.1, 42.5C373.2, 56.2 447.7, 130.7 461.4, 224.8C456.5, 237.3 444.8, 245.7 430.8, 245.8C380.8, 245.8 326.8, 267.6 293.2, 301.2C259.6, 334.8 237.8, 388.9 237.8, 438.9C237.8, 452.9 229.3, 464.7 216.7, 469.5C122.7, 455.8 48.2, 381.3 34.5, 287.2zM260.5, 471.4C266.1, 461.7 269.8, 450.9 269.9, 438.9C269.9, 397.6 288.4, 351.3 315.9, 323.8C343.4, 296.3 389.7, 277.8 430.9, 277.8C442.8, 277.8 453.7, 274 463.3, 268.5C457.1, 377.6 369.6, 465.1 260.5, 471.4z" fill="#727272" fill-opacity="1" class="Black" />
    </g>
  </g>
</svg>