<?xml version='1.0' encoding='UTF-8'?>
<svg viewBox="-2 -3.554 32 32" xmlns="http://www.w3.org/2000/svg">
  <g transform="matrix(0.0486, 0, 0, 0.0486, 0, 0)">
    <path d="M560, 368L496, 368L496, 144L560, 144C574.31, 144 581.33, 126.69 571.31, 116.69L491.31, 36.69A16 16 0 0 0 468.68, 36.69L388.68, 116.69C379.36, 126 384.36, 144 400, 144L464, 144L464, 368L400, 368C385.69, 368 378.67, 385.32 388.69, 395.32L468.69, 475.32A16 16 0 0 0 491.32, 475.32L571.32, 395.32C580.64, 386 575.64, 368 560, 368zM438.63, 112L480, 70.62L521.36, 112L438.63, 112zM480, 441.36L438.64, 400L521.38, 400zM304, 32L16, 32A16 16 0 0 0 0, 48L0, 120A8 8 0 0 0 8, 128L24, 128A8 8 0 0 0 32, 120L32, 64L144, 64L144, 448L72, 448A8 8 0 0 0 64, 456L64, 472A8 8 0 0 0 72, 480L248, 480A8 8 0 0 0 256, 472L256, 456A8 8 0 0 0 248, 448L176, 448L176, 64L288, 64L288, 120A8 8 0 0 0 296, 128L312, 128A8 8 0 0 0 320, 120L320, 48A16 16 0 0 0 304, 32z" fill="#727272" fill-opacity="1" class="Black" />
  </g>
</svg>