<?xml version='1.0' encoding='UTF-8'?>
<svg viewBox="-2 -4.7992 32 32" xmlns="http://www.w3.org/2000/svg">
  <g transform="matrix(0.9988, 0, 0, 0.9988, 0, 0)">
    <g transform="matrix(0.0438, 0, 0, 0.0438, 0, 0)">
      <path d="M624, 32L272, 32A16 16 0 0 0 256, 48L256, 120A8 8 0 0 0 264, 128L280, 128A8 8 0 0 0 288, 120L288, 64L432, 64L432, 448L360, 448A8 8 0 0 0 352, 456L352, 472A8 8 0 0 0 360, 480L536, 480A8 8 0 0 0 544, 472L544, 456A8 8 0 0 0 536, 448L464, 448L464, 64L608, 64L608, 120A8 8 0 0 0 616, 128L632, 128A8 8 0 0 0 640, 120L640, 48A16 16 0 0 0 624, 32zM304, 224L16, 224A16 16 0 0 0 0, 240L0, 296A8 8 0 0 0 8, 304L24, 304A8 8 0 0 0 32, 296L32, 256L144, 256L144, 448L88, 448A8 8 0 0 0 80, 456L80, 472A8 8 0 0 0 88, 480L232, 480A8 8 0 0 0 240, 472L240, 456A8 8 0 0 0 232, 448L176, 448L176, 256L288, 256L288, 296A8 8 0 0 0 296, 304L312, 304A8 8 0 0 0 320, 296L320, 240A16 16 0 0 0 304, 224z" fill="#727272" fill-opacity="1" class="Black" />
    </g>
  </g>
</svg>