<?xml version='1.0' encoding='UTF-8'?>
<svg viewBox="-2 -1.9988 32 32" xmlns="http://www.w3.org/2000/svg">
  <g transform="matrix(0.0547, 0, 0, 0.0547, 0, 0)">
    <path d="M0, 80L0, 432C0, 458.51 21.49, 480 48, 480L464, 480C490.51, 480 512, 458.51 512, 432L512, 80C512, 53.49 490.51, 32 464, 32L48, 32C21.49, 32 0, 53.49 0, 80zM480, 80L480, 170.667L192, 170.667L192, 64L464, 64C472.837, 64 480, 71.163 480, 80zM480, 309.333L192, 309.333L192, 202.667L480, 202.667L480, 309.333zM32, 202.667L160, 202.667L160, 309.334L32, 309.334L32, 202.667zM160, 64L160, 170.667L32, 170.667L32, 80C32, 71.163 39.163, 64 48, 64L160, 64zM32, 432L32, 341.333L160, 341.333L160, 448L48, 448C39.163, 448 32, 440.837 32, 432zM192, 448L192, 341.333L480, 341.333L480, 432C480, 440.837 472.837, 448 464, 448L192, 448z" fill="#727272" fill-opacity="1" class="Black" />
  </g>
</svg>