<?xml version='1.0' encoding='UTF-8'?>
<svg viewBox="-1.9975 -4.7983 32 32" xmlns="http://www.w3.org/2000/svg">
  <g transform="matrix(0.9989, 0, 0, 0.9989, 0, 0)">
    <g transform="matrix(0.0438, 0, 0, 0.0438, 0, 0)">
      <path d="M151.06, 206.02C170.4, 202.61 186.84, 188.16 196.22, 166.35C199.69, 158.23 195.94, 148.82 187.81, 145.33C179.69, 141.83 170.28, 145.58 166.78, 153.72C163.84, 160.61 157.16, 172.45 145.5, 174.5C133.81, 176.66 123.47, 167.69 118.34, 162.25C112.25, 155.81 102.12, 155.53 95.72, 161.56C89.28, 167.62 88.97, 177.75 95.03, 184.18C100.2, 189.68 121.34, 211.32 151.06, 206.02zM513.84, 208.14C494.43, 204.66 474.37, 212.39 457.81, 229.95C451.75, 236.39 452.06, 246.51 458.5, 252.57C464.91, 258.6 475.03, 258.32 481.12, 251.88C486.24, 246.41 496.5, 237.54 508.28, 239.63C519.94, 241.69 526.62, 253.54 529.56, 260.41C533.1, 268.6 542.58, 272.26 550.59, 268.8C558.71, 265.32 562.47, 255.91 559, 247.78C549.63, 226 533.19, 211.55 513.84, 208.14zM519.53, 318.75C493.22, 334.69 456.47, 339.98 418.65, 333.33C380.84, 326.66 348.12, 309.1 328.84, 285.13C319.69, 273.79 301.59, 279.61 300.43, 293.83C295.18, 356.91 339.12, 412.91 402.62, 424.1C423.72, 427.82 517.66, 430.6 543.24, 336.65C547.01, 322.82 532, 311.3 519.53, 318.75zM408.19, 392.59C375, 386.73 349, 364.51 337.91, 335.64C359.25, 349.73 385.13, 359.91 413.1, 364.83C441.13, 369.81 468.85, 369.08 493.76, 363.11C473.41, 386.44 441.38, 398.41 408.19, 392.59zM339.31, 226.89C344.43, 221.45 354.81, 212.34 366.47, 214.64C378.13, 216.69 384.81, 228.53 387.75, 235.42C391.29, 243.61 400.77, 247.27 408.78, 243.81C416.9, 240.33 420.66, 230.92 417.19, 222.79C407.69, 200.65 391.66, 186.56 372.03, 183.1C352.44, 179.74 332.53, 187.41 316, 204.94C309.94, 211.38 310.25, 221.5 316.69, 227.56C323.13, 233.61 333.22, 233.33 339.31, 226.89zM606.8, 119.91C565.07, 96.69 486.8, 61.36 379.7, 62.98C373.83, 29.73 351.11, 9.87 325.17, 5.72C301.27, 1.89 277.24, 0 253.32, 0C176.66, 0 101.02, 19.47 33.2, 57.21C9.03, 70.65 -3.92, 98.72 1.05, 126.9L32.78, 306.86C47.01, 387.58 169.11, 449.3 237.23, 449.3C251.08, 449.3 261.09, 447.42 280.84, 437.64C283.42, 440.62 343.63, 512 402.77, 512C470.89, 512 592.99, 450.29 607.22, 369.56L638.95, 189.6C643.92, 161.43 630.97, 133.36 606.8, 119.91zM237.23, 417.29C179.78, 417.29 75.19, 363.08 64.29, 301.3L32.57, 121.34C29.96, 106.55 36.47, 92.01 48.76, 85.17C74.2, 71.02 178.25, 14.61 320.12, 37.32C333.6, 39.48 344.29, 50.38 347.3, 64.54C336.47, 65.48 325.64, 66.69 314.83, 68.42C287.52, 72.79 265.75, 94.74 260.79, 122.91L237.12, 257.1C169.88, 260.16 136.87, 303.13 135.47, 304.88C129.94, 311.77 131.03, 321.85 137.91, 327.38C145.81, 333.7 155.7, 330.79 160.41, 324.94C161.43, 323.67 182.75, 295.39 231.36, 289.82L229.06, 302.89C222.81, 338.31 237.49, 377.31 261.16, 411.99C250.64, 416.47 245.03, 417.29 237.23, 417.29zM607.44, 184.04L575.7, 364.01C564.81, 425.79 460.21, 480 402.77, 480C363.72, 480 315.91, 429.67 303.21, 414.69C271.4, 377.15 255.45, 337.43 260.57, 308.44L292.3, 128.48C294.91, 113.69 306, 102.25 319.89, 100.03C462.03, 77.29 566.16, 133.92 591.25, 147.88C603.54, 154.71 610.04, 169.25 607.44, 184.04z" fill="#727272" fill-opacity="1" class="Black" />
    </g>
  </g>
</svg>