<?xml version='1.0' encoding='UTF-8'?>
<svg viewBox="-2 -2 32 32" xmlns="http://www.w3.org/2000/svg">
  <g transform="matrix(0.0547, 0, 0, 0.0547, 0, 0)">
    <path d="M476.4, 20.5C438.9, -10.3 381.1, -5.9 345, 30.3L137.2, 238.6C131.2, 244.6 128.3, 252.8 128.3, 261.3L128.3, 316.3L14, 430C-11.3, 455.3 3.4, 487.3 14, 498C32.7, 516.8 63.1, 516.7 81.8, 498L195.3, 383.9L250.2, 383.9C258.7, 383.9 266.8, 381 272.8, 375L483.8, 163.1C518.4, 128.3 526.8, 61.9 476.4, 20.5zM59.2, 475.3C44.2, 490.3 21.7, 467.6 36.6, 452.7L67.1, 422.5L89.7, 445.1L59.2, 475.3zM461.1, 140.4L250.1, 352L195.2, 352C186.7, 352 178.6, 355.7 172.6, 361.7L112.2, 422.5L89.7, 399.9L150.3, 338.9C156.3, 332.9 160.1, 324.7 160.1, 316.2L160.1, 261.2L194.6, 226.3L234.1, 265.9C237.2, 269 242.3, 269 245.4, 265.9L256.7, 254.6C259.8, 251.5 259.8, 246.4 256.7, 243.3L217.2, 203.7L262.4, 158.4L301.9, 198C305, 201.1 310.1, 201.1 313.2, 198L324.5, 186.7C327.6, 183.6 327.6, 178.5 324.5, 175.4L285, 135.7L330.2, 90.4L369.7, 130C372.8, 133.1 377.9, 133.1 381, 130L392.3, 118.7C395.4, 115.6 395.4, 110.5 392.3, 107.4L352.7, 67.8L367.5, 53C392.2, 28.3 431.1, 24.9 456.1, 45.4C489.2, 72.3 484.7, 116.8 461.1, 140.4z" fill="#727272" fill-opacity="1" class="Black" />
  </g>
</svg>