<?xml version='1.0' encoding='UTF-8'?>
<svg viewBox="-5 0 32 32" xmlns="http://www.w3.org/2000/svg">
  <g transform="matrix(0.0625, 0, 0, 0.0625, 0, 0)">
    <path d="M176, 32C78.8, 32 0, 132.29 0, 256C0, 379.71 78.8, 480 176, 480C273.2, 480 352, 379.71 352, 256C352, 132.29 273.2, 32 176, 32zM176, 64C251.35, 64 313.26, 141.61 319.39, 240L32.61, 240C38.74, 141.61 100.65, 64 176, 64zM176, 448C100.65, 448 38.74, 370.39 32.61, 272L319.4, 272C313.26, 370.39 251.35, 448 176, 448z" fill="#727272" fill-opacity="1" class="Black" />
  </g>
</svg>