<?xml version='1.0' encoding='UTF-8'?>
<svg viewBox="-1.9999 -1.9999 32 32" xmlns="http://www.w3.org/2000/svg">
  <g transform="matrix(0.0547, 0, 0, 0.0547, 0, 0)">
    <path d="M496.656, 285.683C506.583, 272.809 512, 256 512, 235.468C511.999, 197.794 479.927, 162.897 439.273, 162.897L369.123, 162.897C377.843, 145.529 389.818, 123.986 389.818, 93.08C389.819, 34.672 366.518, 0 306.91, 0C276.915, 0 265.784, 37.918 260.081, 67.228C256.674, 84.739 253.455, 101.28 243.556, 111.179C219.986, 134.75 184, 192 162.382, 203.625C160.193, 204.547 157.396, 205.273 154.35, 205.848C148.577, 197.484 138.931, 192 128, 192L32, 192C14.327, 192 0, 206.327 0, 224L0, 480C0, 497.673 14.327, 512 32, 512L128, 512C145.673, 512 160, 497.673 160, 480L160, 471.26C192.495, 471.26 260.687, 512.007 337.455, 511.986C342.96, 511.989 375.105, 512.016 378.468, 511.986C437.75, 512 470.723, 476.099 468.803, 422.193C483.93, 404.466 491.342, 378.856 487.028, 355.088C499.484, 335.562 502.154, 308.018 496.656, 285.683zM32, 480L32, 224L128, 224L128, 480L32, 480zM456.017, 276.352C472, 288 472, 336 450.41, 347.017C463.932, 369.777 451.762, 400.233 435.395, 409.013C443.688, 461.553 416.434, 479.619 378.183, 479.987C374.871, 480.017 340.936, 479.987 337.456, 479.987C264.527, 479.987 202.714, 439.26 160.001, 439.26L160.001, 235.625C197.709, 235.625 232.306, 167.686 266.184, 133.807C296.729, 103.262 286.547, 52.353 306.911, 31.99C357.82, 31.99 357.82, 67.507 357.82, 93.081C357.82, 135.27 327.275, 154.171 327.275, 194.898L439.274, 194.898C462.004, 194.898 479.901, 215.262 480.001, 235.625C480.1, 255.988 472, 272 456.017, 276.352zM104, 432C104, 445.255 93.255, 456 80, 456C66.745, 456 56, 445.255 56, 432C56, 418.745 66.745, 408 80, 408C93.255, 408 104, 418.745 104, 432z" fill="#727272" fill-opacity="1" class="Black" />
  </g>
</svg>