<?xml version='1.0' encoding='UTF-8'?>
<svg viewBox="-5.5019 -2 32 32" xmlns="http://www.w3.org/2000/svg">
  <g transform="matrix(0.0547, 0, 0, 0.0547, 0, 0)">
    <path d="M300.8, 203.9L290.7, 128L328, 128C341.2, 128 352, 117.2 352, 104L352, 24C352, 10.8 341.2, 0 328, 0L56, 0C42.8, 0 32, 10.8 32, 24L32, 104C32, 117.2 42.8, 128 56, 128L93.3, 128L83.2, 203.9C34.9, 231.5 0, 278.4 0, 335.2C0, 344 7.2, 351.2 16, 351.2L176, 351.2L176, 472C176, 472.7 176.1, 473.3 176.2, 473.9L184.2, 505.9C186.2, 513.9 197.7, 514 199.7, 505.9L207.7, 473.9C207.9, 473.3 207.9, 472.6 207.9, 472L207.9, 351.2L367.9, 351.2C376.7, 351.2 383.9, 344 383.9, 335.2C384, 278.4 349.1, 231.5 300.8, 203.9zM33.3, 319.2C40.1, 276.3 72.9, 242.8 112.8, 224.7L128, 96L64, 96L64, 32L320, 32L320, 96L256, 96L271.3, 224.8C311.3, 243 344, 276.6 350.8, 319.3L33.3, 319.3z" fill="#727272" fill-opacity="1" class="Black" />
  </g>
</svg>