<?xml version='1.0' encoding='UTF-8'?>
<svg viewBox="-1.9998 -3.5588 31.9975 32" xmlns="http://www.w3.org/2000/svg">
  <g transform="matrix(0.0486, 0, 0, 0.0486, 0, 0)">
    <path d="M573.9, 237.5C570.3, 229.8 562.4, 224.9 554, 224.9L552.6, 224.9L549.9, 225.3C543.6, 226.5 537.3, 227.1 531, 227.1C476.6, 227.1 432.3, 183.1 432.3, 128.9C432.3, 93.7 451.5, 61 482.4, 43.6C490.6, 39 494.8, 30 493.3, 20.8C491.7, 11.5 484.8, 4.5 475.5, 2.8C465.7, 0.9 455.8, 0 446, 0C378.9, 0 321.3, 41.1 297.2, 99.2C307.7, 101.7 317.7, 105.5 326.9, 110.7C346.1, 65.2 391.1, 32.9 443.7, 32C416.4, 56.4 400.2, 91.6 400.2, 128.8C400.2, 199.5 457.2, 257.3 527.8, 258.9C505.5, 277.1 477.5, 287.3 448, 287.7L448, 287.9C448, 298.9 446.2, 309.4 443.5, 319.7C444.3, 319.7 445.1, 319.9 445.9, 319.9C494.6, 319.9 540.2, 298.3 570.9, 260.7C576.4, 254.2 577.5, 245.2 573.9, 237.5zM304, 304L244.5, 304L255.5, 259.9C256.7, 255.1 255.6, 250.1 252.6, 246.2C249.6, 242.3 244.9, 240 240, 240L160, 240C152.7, 240 146.2, 245 144.5, 252.1L112.5, 380.1C110, 390.3 117.7, 400 128, 400L189.6, 400L176.2, 493.7C174.6, 504.8 183.9, 511.9 192, 511.9C200.5, 511.9 204.7, 505.7 205.6, 504.3C209, 499 317.5, 328.5 317.5, 328.5C324.3, 317.8 316.5, 304 304, 304zM218.3, 425.2L223.9, 386.3C224.6, 381.7 223.2, 377.1 220.1, 373.6C217.1, 370.1 212.6, 368.1 208, 368.1L148.5, 368.1L172.5, 272.1L219.5, 272.1L208.5, 316.2C206, 326.4 213.7, 336.1 224, 336.1L274.8, 336.1C250.7, 374 232.2, 403 218.3, 425.2zM351.3, 197.3C346, 158.2 312.5, 128 272, 128C263.4, 128 255, 129.4 246.8, 132.3C227.1, 109.3 198.6, 96 168, 96C111.5, 96 65.3, 141.3 64, 197.6C26.2, 210.9 0, 246.9 0, 288C0, 335.5 34.7, 374.8 80.1, 382.4C80.2, 379 80.6, 375.7 81.4, 372.3L86.7, 351C55.9, 346.5 32, 320.1 32, 288C32, 257.4 53.8, 231 84, 225.2L98.5, 222.4L96.5, 204.4C96.3, 202.9 96.1, 201.5 96.1, 200C96.1, 160.3 128.4, 128 168.1, 128C192.4, 128 214.9, 140.2 228.3, 160.8L236.4, 173.2L249.4, 166.1C282.1, 148.3 320.1, 174.3 320.2, 206.5L320, 222.7L332.8, 225.3C362.6, 231.3 384.1, 257.6 384.1, 288C384.1, 315 367.2, 338 343.6, 347.4C340.8, 351.7 332, 365.6 320.3, 384C373.2, 383.9 416.1, 340.9 416.1, 288C416, 246.7 389.4, 210.4 351.3, 197.3z" fill="#727272" fill-opacity="1" class="Black" />
  </g>
</svg>