<?xml version='1.0' encoding='UTF-8'?>
<svg viewBox="-2 -3.554 32 32" xmlns="http://www.w3.org/2000/svg">
  <g transform="matrix(0.0486, 0, 0, 0.0486, 0, 0)">
    <path d="M544, 224L576, 224L576, 112C576, 85.49 554.51, 64 528, 64L48, 64C21.49, 64 0, 85.49 0, 112L0, 224L32, 224C49.673, 224 64, 238.327 64, 256C64, 273.673 49.673, 288 32, 288L0, 288L0, 400C0, 426.51 21.49, 448 48, 448L528, 448C554.51, 448 576, 426.51 576, 400L576, 288L544, 288C526.327, 288 512, 273.673 512, 256C512, 238.327 526.327, 224 544, 224zM544, 320L544, 400C544, 408.823 536.823, 416 528, 416L48, 416C39.177, 416 32, 408.823 32, 400L32, 320C67.29, 320 96, 291.29 96, 256C96, 220.71 67.29, 192 32, 192L32, 112C32, 103.177 39.177, 96 48, 96L528, 96C536.823, 96 544, 103.177 544, 112L544, 192C508.71, 192 480, 220.71 480, 256C480, 291.29 508.71, 320 544, 320z" fill="#727272" fill-opacity="1" class="Black" />
  </g>
</svg>