<?xml version='1.0' encoding='UTF-8'?>
<svg viewBox="-2 -0.9988 32 32" xmlns="http://www.w3.org/2000/svg">
  <g transform="matrix(0.0625, 0, 0, 0.0625, 0, 0)">
    <path d="M416, 168L416, 239.85C416, 275.76 392.84, 309.01 357.99, 317.69C326.19, 325.6 293.92, 312.76 276.03, 286.95L200.75, 178.4C179.62, 147.94 145.33, 127.82 108.26, 128.02C48.5, 128.32 0, 177.02 0, 236.84L0, 312C0, 316.42 3.58, 320 8, 320L24, 320C28.42, 320 32, 316.42 32, 312L32, 240.15C32, 204.24 55.16, 170.99 90.01, 162.31C121.81, 154.4 154.08, 167.24 171.97, 193.05L247.25, 301.6C268.38, 332.06 302.67, 352.18 339.74, 351.98C399.5, 351.68 448, 302.98 448, 243.16L448, 168C448, 163.58 444.42, 160 440, 160L424, 160C419.58, 160 416, 163.58 416, 168z" fill="#727272" fill-opacity="1" class="Black" />
  </g>
</svg>