<?xml version='1.0' encoding='UTF-8'?>
<svg viewBox="-2 6.4 32 32" xmlns="http://www.w3.org/2000/svg">
  <g transform="matrix(0.0875, 0, 0, 0.0875, 0, 0)">
    <path d="M193.94, 256L296.5, 153.44L317.65, 132.29C320.77, 129.17 320.77, 124.1 317.65, 120.98L295.02, 98.35C291.9, 95.23 286.83, 95.23 283.71, 98.35L160, 222.06L36.29, 98.34C33.17, 95.22 28.1, 95.22 24.98, 98.34L2.34, 120.97C-0.78, 124.09 -0.78, 129.16 2.34, 132.28L126.06, 256L2.34, 379.71C-0.78, 382.83 -0.78, 387.9 2.34, 391.02L24.97, 413.65C28.09, 416.77 33.16, 416.77 36.28, 413.65L160, 289.94L262.56, 392.5L283.71, 413.65C286.83, 416.77 291.9, 416.77 295.02, 413.65L317.65, 391.02C320.77, 387.9 320.77, 382.83 317.65, 379.71L193.94, 256z" fill="#727272" fill-opacity="1" class="Black" />
  </g>
</svg>