<?xml version='1.0' encoding='UTF-8'?>
<svg viewBox="-1.9949 -4.8006 31.9975 32" xmlns="http://www.w3.org/2000/svg">
  <g transform="matrix(0.9989, 0, 0, 0.9989, 0, 0)">
    <g transform="matrix(0.0438, 0, 0, 0.0438, 0, 0)">
      <path d="M320, 480C240.6, 480 176, 414.5 176, 333.9C176, 300.5 187.1, 274.4 204.4, 246.4L179.1, 226.4C158.6, 259.1 144, 291.5 144, 333.8C144, 432.2 222.7, 511.9 320, 511.9C375.5, 511.9 424.9, 485.9 457.1, 445.4L431.4, 425.2C405, 458.4 365.2, 480 320, 480zM320, 36.1C343.8, 113.6 380.1, 165.4 409.3, 207.2C427.7, 233.6 443, 255.7 452.8, 279.1L494.6, 312C482.6, 216 393, 169.8 349.3, 22.1C345.2, 7.5 332.6, 0 320, 0C307.6, 0 295.3, 7.2 290.8, 22.1C279.5, 60.3 265, 91.7 249.6, 119.1L275, 139.1C291.5, 110.2 307.5, 76.7 320, 36.1zM637, 485.2L23, 1.8C19.6, -1 14.5, -0.5 11.8, 3L1.8, 15.5C-1, 19 -0.4, 24 3, 26.7L617, 510.2C620.4, 513 625.5, 512.4 628.2, 509L638.2, 496.5C641, 493 640.5, 488 637, 485.2z" fill="#727272" fill-opacity="1" class="Black" />
    </g>
  </g>
</svg>