<?xml version='1.0' encoding='UTF-8'?>
<svg viewBox="-1.9999 -1.9999 32 32" xmlns="http://www.w3.org/2000/svg">
  <g transform="matrix(0.0547, 0, 0, 0.0547, 0, 0)">
    <path d="M256, 296.02C242.74, 296.02 232, 306.76 232, 320.02C232, 333.27 242.74, 344.02 256, 344.02C269.26, 344.02 280, 333.27 280, 320.02C280, 306.76 269.26, 296.02 256, 296.02zM248.05, 272.02L263.95, 272.02C270.82, 272.02 276.56, 266.82 277.24, 259.99L287.93, 110.7C288.72, 102.83 282.54, 96.01 274.64, 96.01L237.36, 96.01C229.46, 96.01 223.28, 102.83 224.07, 110.7L234.76, 259.99C235.44, 266.81 241.19, 272.02 248.05, 272.02zM471.51, 132.91C460.46, 114.62 454.63, 95.12 454.63, 76.48L454.63, 40C454.63, 17.94 436.69, 0 414.63, 0L398.63, 0C376.57, 0 358.63, 17.94 358.63, 40L358.63, 76.48C358.63, 112.56 369.22, 149.2 389.25, 182.45C406.75, 211.5 416, 244.87 416, 278.93C416, 317.08 403.59, 347.56 374.52, 380.87C372.79, 382.86 370.18, 383.99 367.38, 383.99L144.62, 383.99C141.81, 383.99 139.21, 382.85 137.48, 380.87C108.41, 347.57 96, 317.08 96, 278.94C96, 244.87 105.25, 211.51 122.75, 182.47C142.79, 149.2 153.37, 112.55 153.37, 76.48L153.37, 40C153.37, 17.94 135.43, 0 113.37, 0L97.37, 0C75.31, 0 57.37, 17.94 57.37, 40L57.37, 76.48C57.37, 95.11 51.54, 114.62 40.5, 132.9C14, 176.89 0, 227.38 0, 278.94C0, 340.62 20.7, 393.06 65.14, 443.99C69.62, 449.13 74.69, 453.61 80, 457.72L80, 504C80, 508.42 83.58, 512 88, 512L104, 512C108.42, 512 112, 508.42 112, 504L112, 474.25C122.28, 477.59 132.94, 479.87 144, 479.94L144, 504C144, 508.42 147.58, 512 152, 512L168, 512C172.42, 512 176, 508.42 176, 504L176, 480L208, 480L208, 504C208, 508.42 211.58, 512 216, 512L232, 512C236.42, 512 240, 508.42 240, 504L240, 480L272, 480L272, 504C272, 508.42 275.58, 512 280, 512L296, 512C300.42, 512 304, 508.42 304, 504L304, 480L336, 480L336, 504C336, 508.42 339.58, 512 344, 512L360, 512C364.42, 512 368, 508.42 368, 504L368, 479.93C379.06, 479.86 389.72, 477.59 400, 474.24L400, 504C400, 508.42 403.58, 512 408, 512L424, 512C428.42, 512 432, 508.42 432, 504L432, 457.72C437.31, 453.6 442.39, 449.12 446.88, 443.97C491.3, 393.06 512, 340.62 512, 278.94C512, 227.39 498, 176.89 471.51, 132.91zM422.75, 422.95C408.88, 438.88 388.69, 448 367.38, 448L144.62, 448C123.31, 448 103.12, 438.88 89.24, 422.95C50.19, 378.19 32, 332.42 32, 278.94C32, 233.22 44.41, 188.44 67.91, 149.44C81.97, 126.14 89.38, 100.91 89.38, 76.49L89.38, 40C89.38, 35.58 92.96, 32 97.38, 32L113.38, 32C117.8, 32 121.38, 35.58 121.38, 40L121.38, 76.48C121.38, 106.73 112.38, 137.67 95.35, 165.95C74.84, 199.97 64, 239.05 64, 278.94C64, 324.86 79.22, 362.8 113.38, 401.92C121.19, 410.87 132.57, 416 144.63, 416L367.38, 416C379.44, 416 390.82, 410.88 398.63, 401.92C432.78, 362.8 448, 324.86 448, 278.94C448, 239.05 437.16, 199.97 416.66, 165.94C399.63, 137.67 390.63, 106.74 390.63, 76.49L390.63, 40C390.63, 35.58 394.21, 32 398.63, 32L414.63, 32C419.05, 32 422.63, 35.58 422.63, 40L422.63, 76.48C422.63, 100.9 430.04, 126.14 444.1, 149.42C467.6, 188.44 480.01, 233.22 480.01, 278.94C480, 332.42 461.81, 378.19 422.75, 422.95z" fill="#727272" fill-opacity="1" class="Black" />
  </g>
</svg>