<?xml version='1.0' encoding='UTF-8'?>
<svg viewBox="-2 -2 32 32" xmlns="http://www.w3.org/2000/svg">
  <g transform="matrix(0.0547, 0, 0, 0.0547, 0, 0)">
    <path d="M467.12, 169.93C466.8, 169.14 466.48, 168.36 466.15, 167.57C479.63, 144.58 476.52, 114.48 456.82, 94.78L417.22, 55.18C405.89, 43.85 390.82, 37.61 374.79, 37.61C363.93, 37.61 353.52, 40.47 344.4, 45.84C343.62, 45.52 342.85, 45.2 342.07, 44.88C335.35, 19.09 311.87, 0 284, 0L228, 0C200.13, 0 176.65, 19.09 169.93, 44.88C169.15, 45.2 168.37, 45.52 167.6, 45.84C158.49, 40.47 148.07, 37.61 137.21, 37.61C121.18, 37.61 106.11, 43.85 94.78, 55.19L55.18, 94.78C35.48, 114.48 32.37, 144.59 45.85, 167.57C45.52, 168.35 45.2, 169.14 44.88, 169.93C19.09, 176.65 0, 200.13 0, 228L0, 284C0, 311.86 19.09, 335.35 44.88, 342.07C45.2, 342.86 45.52, 343.64 45.85, 344.43C32.37, 367.42 35.48, 397.52 55.18, 417.22L94.78, 456.82C106.11, 468.15 121.18, 474.39 137.21, 474.39C148.07, 474.39 158.48, 471.53 167.6, 466.16C168.38, 466.48 169.15, 466.8 169.93, 467.12C176.65, 492.91 200.13, 512 228, 512L284, 512C311.87, 512 335.35, 492.91 342.07, 467.12L344.41, 466.16C353.52, 471.53 363.94, 474.39 374.79, 474.39C390.82, 474.39 405.88, 468.15 417.22, 456.82L456.82, 417.22C476.52, 397.52 479.63, 367.42 466.15, 344.43C466.48, 343.65 466.8, 342.86 467.12, 342.07C492.91, 335.35 512, 311.86 512, 284L512, 228C512, 200.13 492.91, 176.65 467.12, 169.93zM480, 284C480, 299.46 467.46, 312 452, 312L443.78, 312C439.9, 325.02 434.8, 337.51 428.44, 349.24L434.2, 355C445.13, 365.93 445.13, 383.66 434.2, 394.6L394.6, 434.2C389.13, 439.67 381.97, 442.4 374.8, 442.4C367.63, 442.4 360.47, 439.67 355, 434.2L349.24, 428.44C337.51, 434.8 325.02, 439.9 312, 443.78L312, 452C312, 467.46 299.46, 480 284, 480L228, 480C212.54, 480 200, 467.46 200, 452L200, 443.78C186.98, 439.9 174.49, 434.8 162.76, 428.44L157, 434.2C151.53, 439.67 144.37, 442.4 137.2, 442.4C130.03, 442.4 122.87, 439.67 117.4, 434.2L77.8, 394.6C66.87, 383.67 66.87, 365.94 77.8, 355L83.56, 349.24C77.21, 337.51 72.1, 325.02 68.22, 312L60, 312C44.54, 312 32, 299.46 32, 284L32, 228C32, 212.54 44.54, 200 60, 200L68.22, 200C72.1, 186.98 77.2, 174.49 83.56, 162.76L77.8, 157C66.87, 146.06 66.87, 128.33 77.8, 117.4L117.4, 77.8C122.87, 72.33 130.03, 69.6 137.2, 69.6C144.37, 69.6 151.53, 72.33 157, 77.8L162.76, 83.56C174.49, 77.2 186.98, 72.1 200, 68.22L200, 60C200, 44.54 212.54, 32 228, 32L284, 32C299.46, 32 312, 44.54 312, 60L312, 68.22C325.02, 72.1 337.51, 77.2 349.24, 83.56L355, 77.8C360.47, 72.33 367.63, 69.6 374.8, 69.6C381.97, 69.6 389.13, 72.33 394.6, 77.8L434.2, 117.4C445.13, 128.33 445.13, 146.06 434.2, 157L428.44, 162.76C434.8, 174.49 439.9, 186.98 443.78, 200L452, 200C467.46, 200 480, 212.54 480, 228L480, 284zM256, 95.98C167.63, 95.98 96, 167.61 96, 255.98C96, 344.35 167.63, 415.98 256, 415.98C344.37, 415.98 416, 344.35 416, 255.98C416, 167.61 344.37, 95.98 256, 95.98zM256, 383.98C185.42, 383.98 128, 326.56 128, 255.98C128, 185.4 185.42, 127.98 256, 127.98C326.58, 127.98 384, 185.4 384, 255.98C384, 326.56 326.58, 383.98 256, 383.98zM256, 160C242.75, 160 232, 170.74 232, 184C232, 197.25 242.75, 208 256, 208C269.25, 208 280, 197.25 280, 184C280, 170.74 269.25, 160 256, 160zM256, 303.98C242.75, 303.98 232, 314.72 232, 327.98C232, 341.23 242.75, 351.98 256, 351.98C269.25, 351.98 280, 341.23 280, 327.98C280, 314.73 269.25, 303.98 256, 303.98zM328, 232C314.75, 232 304, 242.74 304, 256C304, 269.25 314.75, 280 328, 280C341.25, 280 352, 269.25 352, 256C352, 242.74 341.25, 232 328, 232zM184, 232C170.75, 232 160, 242.74 160, 256C160, 269.25 170.75, 280 184, 280C197.25, 280 208, 269.25 208, 256C208, 242.74 197.25, 232 184, 232z" fill="#727272" fill-opacity="1" class="Black" />
  </g>
</svg>