<?xml version='1.0' encoding='UTF-8'?>
<svg viewBox="-1.9999 -1.549 31.9975 32" xmlns="http://www.w3.org/2000/svg">
  <g transform="matrix(0.999, 0, 0, 0.999, 0, 0)">
    <g transform="matrix(0.0565, 0, 0, 0.0565, 0, 0)">
      <path d="M248, 8C111, 8 0, 119 0, 256C0, 393 111, 504 248, 504C385, 504 496, 393 496, 256C496, 119 385, 8 248, 8zM248, 472C128.9, 472 32, 375.1 32, 256C32, 136.9 128.9, 40 248, 40C367.1, 40 464, 136.9 464, 256C464, 375.1 367.1, 472 248, 472zM361.8, 149.7L281.8, 197.7C274, 202.4 274, 213.6 281.8, 218.3L361.8, 266.3C373.4, 273.2 385.8, 258.6 377.2, 248.3L343.6, 208L377.2, 167.7C385.8, 157.4 373.4, 142.9 361.8, 149.7zM134.2, 266.3L214.2, 218.3C222, 213.6 222, 202.4 214.2, 197.7L134.2, 149.7C122.6, 142.8 110.2, 157.4 118.8, 167.7L152.4, 208L118.8, 248.3C110.2, 258.6 122.6, 273.2 134.2, 266.3zM248, 272C196.1, 272 132.7, 315.8 124.8, 378.7C124, 385 125.7, 391.4 129.4, 395.6C130, 396.3 135.2, 402.3 142.6, 399.2C168.5, 388.1 207, 381.8 248.1, 381.8C289.2, 381.8 327.7, 388.1 353.6, 399.2C359.1, 401.6 364.1, 398.7 366.8, 395.6C370.4, 391.4 372.1, 385 371.4, 378.7C363.3, 315.8 299.9, 272 248, 272zM248, 349.7C217.4, 349.7 188.5, 352.9 163.7, 358.8C179.5, 326.3 216.7, 304 248, 304C279.3, 304 316.5, 326.3 332.3, 358.8C307.5, 352.9 278.7, 349.7 248, 349.7z" fill="#727272" fill-opacity="1" class="Black" />
    </g>
  </g>
</svg>