<?xml version='1.0' encoding='UTF-8'?>
<svg viewBox="-2 -2 32 32" xmlns="http://www.w3.org/2000/svg">
  <g transform="matrix(0.0547, 0, 0, 0.0547, 0, 0)">
    <path d="M256, 0C114.62, 0 0, 114.62 0, 256C0, 397.38 114.62, 512 256, 512C397.38, 512 512, 397.38 512, 256C512, 114.62 397.38, 0 256, 0zM256, 480C132.49, 480 32, 379.51 32, 256C32, 132.49 132.49, 32 256, 32C379.51, 32 480, 132.49 480, 256C480, 379.51 379.51, 480 256, 480zM256, 96C167.63, 96 96, 167.63 96, 256C96, 344.37 167.63, 416 256, 416C344.37, 416 416, 344.37 416, 256C416, 167.63 344.37, 96 256, 96zM256, 128C278.34, 128 299.04, 134.26 317.34, 144.36L279.77, 196.07C272.4, 193.14 264.42, 191.42 256, 191.42C247.58, 191.42 239.61, 193.14 232.23, 196.07L194.66, 144.36C212.96, 134.26 233.66, 128 256, 128zM128, 256C128, 219.26 143.77, 186.33 168.64, 162.97L206.46, 215.03C197.21, 226.21 191.42, 240.36 191.42, 256C191.42, 257.38 191.74, 258.67 191.83, 260.03L130.43, 279.98C128.94, 272.19 128, 264.21 128, 256zM240, 382.38A127.631 127.631 0 0 1 140.55, 310.33L201.58, 290.5C210.26, 304.16 223.9, 314.21 240, 318.34L240, 382.38zM224, 255.98C224, 238.31 238.33, 223.98 256, 223.98C273.67, 223.98 288, 238.31 288, 255.98C288, 273.65 273.67, 287.98 256, 287.98C238.33, 287.98 224, 273.66 224, 255.98zM272, 382.38L272, 318.34C288.1, 314.21 301.74, 304.17 310.42, 290.5L371.45, 310.33A127.631 127.631 0 0 1 272, 382.38zM320.17, 260.03C320.26, 258.67 320.58, 257.38 320.58, 256C320.58, 240.36 314.79, 226.21 305.54, 215.03L343.36, 162.97C368.23, 186.33 384, 219.26 384, 256C384, 264.21 383.06, 272.19 381.58, 279.97L320.17, 260.03z" fill="#727272" fill-opacity="1" class="Black" />
  </g>
</svg>