<?xml version='1.0' encoding='UTF-8'?>
<svg viewBox="-5.5003 -2 32 32" xmlns="http://www.w3.org/2000/svg">
  <g transform="matrix(0.0547, 0, 0, 0.0547, 0, 0)">
    <path d="M376, 32C380.4, 32 384, 28.4 384, 24L384, 8C384, 3.6 380.4, 0 376, 0L8, 0C3.6, 0 0, 3.6 0, 8L0, 24C0, 28.4 3.6, 32 8, 32L32, 32L32, 204.7C11.8, 214.8 0, 226.9 0, 240C0, 307.2 34.6, 366.2 86.8, 400.5L65.4, 470.7C59.1, 491.2 74.5, 512 96, 512L288, 512C309.5, 512 324.9, 491.2 318.6, 470.7L297.2, 400.5C349.4, 366.2 384, 307.2 384, 240C384, 226.9 372.2, 214.8 352, 204.7L352, 32L376, 32zM64, 32L320, 32L320, 192.4C286, 182.2 241.2, 176 192, 176C142.8, 176 98, 182.2 64, 192.4L64, 32zM192, 208C275.9, 208 344, 222.3 344, 240C344, 257.7 275.9, 272 192, 272C108.1, 272 40, 257.7 40, 240C40, 222.3 108.1, 208 192, 208zM96, 480L115.5, 416.1C139, 426.3 164.8, 432 192, 432C219.2, 432 245, 426.3 268.5, 416.1L288, 480L96, 480zM192, 400C116.8, 400 53.9, 347.7 36.9, 277.6C71.8, 293.6 128.2, 304 192, 304C255.8, 304 312.2, 293.6 347.1, 277.6C330.1, 347.7 267.2, 400 192, 400zM152, 64L104, 64C99.6, 64 96, 67.6 96, 72L96, 88C96, 92.4 99.6, 96 104, 96L152, 96C156.4, 96 160, 92.4 160, 88L160, 72C160, 67.6 156.4, 64 152, 64z" fill="#727272" fill-opacity="1" class="Black" />
  </g>
</svg>