<?xml version='1.0' encoding='UTF-8'?>
<svg viewBox="-1.9949 -3.554 31.9975 32" xmlns="http://www.w3.org/2000/svg">
  <g transform="matrix(0.0486, 0, 0, 0.0486, 0, 0)">
    <path d="M464, 0L144, 0C82.14, 0 32, 85.96 32, 192L32, 364.07C32, 405.19 22.2, 426.84 0.83, 490.94C-2.62, 501.3 5.09, 512 16.01, 512L328.93, 512C342.7, 512 354.93, 503.19 359.29, 490.12C370.45, 456.64 380.88, 426.58 383.4, 384L464, 384C525.86, 384 576, 298.04 576, 192C576, 85.96 525.86, 0 464, 0zM352, 192L352, 364.07C352, 410.9 342.33, 439.86 330.1, 476.52L328.94, 480L38.29, 480C38.83, 478.39 39.37, 476.82 39.9, 475.28C55.44, 429.55 64, 404.37 64, 364.07L64, 192C64, 97.71 106.16, 32 144, 32L402.14, 32C371.93, 66.39 352, 125.18 352, 192zM464, 352C426.16, 352 384, 286.29 384, 192C384, 97.71 426.16, 32 464, 32C501.84, 32 544, 97.71 544, 192C544, 286.29 501.84, 352 464, 352zM464, 144C450.75, 144 440, 165.49 440, 192C440, 218.51 450.75, 240 464, 240C477.26, 240 488, 218.51 488, 192C488, 165.49 477.26, 144 464, 144z" fill="#727272" fill-opacity="1" class="Black" />
  </g>
</svg>