<?xml version='1.0' encoding='UTF-8'?>
<svg viewBox="-2 -1.9988 32 32" xmlns="http://www.w3.org/2000/svg">
  <g transform="matrix(0.0547, 0, 0, 0.0547, 0, 0)">
    <path d="M496, 416L448, 416L448, 200.05C448, 94.92 366.99, 3.24 261.9, 0.09C153.17, -3.17 64, 84 64, 192L64, 416L16, 416C7.16, 416 0, 423.16 0, 432L0, 496C0, 504.84 7.16, 512 16, 512L496, 512C504.84, 512 512, 504.84 512, 496L512, 432C512, 423.16 504.84, 416 496, 416zM96, 192C96, 103.78 167.78, 32 256, 32C344.22, 32 416, 103.78 416, 192L416, 416L96, 416L96, 192zM479.95, 480L32.01, 480L32.05, 448L479.99, 448L479.95, 480z" fill="#727272" fill-opacity="1" class="Black" />
  </g>
</svg>