<?xml version='1.0' encoding='UTF-8'?>
<svg viewBox="-2 -1.9988 32 32" xmlns="http://www.w3.org/2000/svg">
  <g transform="matrix(0.0547, 0, 0, 0.0547, 0, 0)">
    <path d="M502.63, 214.63L457.38, 169.37C451.38, 163.37 443.24, 160 434.75, 160L384, 160L384, 80C384, 53.53 362.47, 32 336, 32L176, 32C149.53, 32 128, 53.53 128, 80L128, 160L77.25, 160C68.76, 160 60.63, 163.37 54.62, 169.37L9.37, 214.63C3.37, 220.63 0, 228.77 0, 237.26L0, 448C0, 465.67 14.33, 480 32, 480L480, 480C497.67, 480 512, 465.67 512, 448L512, 237.25C512, 228.77 508.63, 220.63 502.63, 214.63zM160, 80C160, 71.17 167.19, 64 176, 64L336, 64C344.81, 64 352, 71.17 352, 80L352, 160L160, 160L160, 80zM480, 448L32, 448L32, 352L128, 352L128, 376C128, 380.42 131.58, 384 136, 384L152, 384C156.42, 384 160, 380.42 160, 376L160, 352L352, 352L352, 376C352, 380.42 355.58, 384 360, 384L376, 384C380.42, 384 384, 380.42 384, 376L384, 352L480, 352L480, 448zM384, 320L384, 296C384, 291.58 380.42, 288 376, 288L360, 288C355.58, 288 352, 291.58 352, 296L352, 320L160, 320L160, 296C160, 291.58 156.42, 288 152, 288L136, 288C131.58, 288 128, 291.58 128, 296L128, 320L32, 320L32, 237.25L77.25, 192L434.74, 192L480, 237.25L480, 320L384, 320z" fill="#727272" fill-opacity="1" class="Black" />
  </g>
</svg>