<?xml version='1.0' encoding='UTF-8'?>
<svg viewBox="-2.0035 -1.9999 32 31.9975" xmlns="http://www.w3.org/2000/svg">
  <g transform="matrix(0.0547, 0, 0, 0.0547, 0, 0)">
    <path d="M502.6, 389.5L378.2, 265C362.6, 249.4 342.1, 241.6 321.6, 241.6C306.2, 241.6 290.8, 246 277.5, 254.9L192, 169.4L192, 96L64, 0L0, 64L96, 192L169.4, 192L254.9, 277.5C234.3, 308.6 237.7, 350.8 265.1, 378.2L389.6, 502.7C395.8, 508.9 404, 512.1 412.2, 512.1C420.4, 512.1 428.6, 509 434.8, 502.7L502.7, 434.8C515.1, 422.2 515.1, 402 502.6, 389.5zM160, 158.1L160, 160L112, 160L42.3, 67L67, 42.3L160, 112L160, 158.1zM412.1, 480L287.7, 355.5C278.6, 346.4 273.6, 334.4 273.6, 321.6C273.6, 308.8 278.6, 296.7 287.7, 287.7C296.8, 278.6 308.8, 273.6 321.6, 273.6C334.4, 273.6 346.5, 278.6 355.5, 287.7L480, 412.1L412.1, 480zM64, 432C64, 440.8 71.2, 448 80, 448C88.8, 448 96, 440.8 96, 432C96, 423.2 88.8, 416 80, 416C71.2, 416 64, 423.2 64, 432zM276.8, 66.9C299.5, 44.2 329.4, 32 360.6, 32C367.5, 32 374.4, 32.6 381.3, 33.8L312, 103.2L325.8, 186.2L408.9, 200L478.2, 130.7C484.9, 168.9 472.9, 207.5 445.1, 235.2C436.2, 244.1 426, 251.2 415.1, 256.7L438.7, 280.3C449.1, 274.1 458.9, 266.7 467.7, 257.8C505.5, 220 520.4, 166.4 507.4, 114.5C505.1, 105 497.7, 97.5 488.3, 94.9C478.8, 92.3 468.6, 94.9 461.6, 101.9L397.7, 165.8L353.5, 158.4L346.1, 114.2L410, 50.3C416.9, 43.4 419.6, 33.2 417, 23.8C414.4, 14.3 406.8, 7 397.3, 4.6C345.6, -8.3 292, 6.5 254.1, 44.3C241.2, 57.2 231.2, 72.2 224, 88.3L224, 156.1L246.1, 178.2C236.5, 137.8 247.7, 96 276.8, 66.9zM107, 467.1C90.4, 483.7 61.4, 483.7 44.8, 467.1C27.7, 450 27.7, 422 44.8, 404.9L190.9, 258.8L168.3, 236.2L22.2, 382.3C-7.4, 411.9 -7.4, 460.1 22.2, 489.8C36.5, 504.1 55.6, 512 75.9, 512C96.2, 512 115.3, 504.1 129.6, 489.7L231.4, 388C224.7, 378.8 219.6, 368.7 215.9, 358.2L107, 467.1z" fill="#727272" fill-opacity="1" class="Black" />
  </g>
</svg>