<?xml version='1.0' encoding='UTF-8'?>
<svg viewBox="-3.7483 -1.9975 32 31.9975" xmlns="http://www.w3.org/2000/svg">
  <g transform="matrix(0.0547, 0, 0, 0.0547, 0, 0)">
    <path d="M443.94, 96.25C432.91, 50.97 396.82, 14.17 351.92, 2.52C323.99, -4.7 294.36, 3.64 262.84, 26.86C250.26, 36.1 218.64, 51.34 185.25, 26.92L184.85, 26.64C184.79, 26.6 184.72, 26.6 184.66, 26.56C153.32, 3.6 123.92, -4.66 96.05, 2.54C51.18, 14.18 15.06, 50.98 4.05, 96.26C-5.56, 135.74 2.08, 174.96 25.55, 206.7C46.06, 234.43 57.61, 268.54 61.84, 314.04C65.46, 352.73 71.09, 403.65 82.77, 454.35L90.58, 488.32C93.8, 502.27 105.98, 512.01 120.23, 512.01C134.26, 512.01 146.41, 502.46 149.76, 488.85L184.26, 350.41C188.82, 332.08 205.16, 319.27 224, 319.27C242.84, 319.27 259.18, 332.08 263.74, 350.43L298.24, 488.84A30.348 30.348 0 0 0 327.77, 512.01C342.02, 512.01 354.2, 502.28 357.42, 488.32L365.23, 454.35C376.92, 403.63 382.54, 352.71 386.16, 314.04C390.44, 268.48 401.97, 234.38 422.47, 206.7C445.94, 174.94 453.57, 135.72 443.94, 96.25zM396.73, 187.66C372.64, 220.22 359.14, 259.42 354.3, 311.05C350.8, 348.75 345.3, 398.28 334.05, 447.16L327.71, 474.75L294.81, 342.69C286.69, 310.05 257.56, 287.27 224.01, 287.27C190.46, 287.27 161.33, 310.05 153.21, 342.68L121.78, 481.13L113.97, 447.16C102.72, 398.3 97.22, 348.77 93.72, 311.07C88.91, 259.51 75.41, 220.29 51.27, 187.66C33.55, 163.69 27.82, 133.91 35.15, 103.82C43.41, 69.84 70.47, 42.24 104.09, 33.52C128.39, 27.25 152.64, 42.65 166.21, 52.66C166.28, 52.71 166.36, 52.74 166.42, 52.79C166.45, 52.81 166.46, 52.84 166.49, 52.86L246.82, 109.11C257.52, 116.54 266.97, 108.24 269.1, 105.17C274.19, 97.94 272.41, 87.97 265.19, 82.89L245.5, 69.11C258.55, 65.98 271.04, 60.56 281.81, 52.64C305.31, 35.28 325.55, 28.75 343.9, 33.5C377.52, 42.23 404.61, 69.83 412.89, 103.81C420.19, 133.91 414.48, 163.69 396.73, 187.66z" fill="#727272" fill-opacity="1" class="Black" />
  </g>
</svg>