<?xml version='1.0' encoding='UTF-8'?>
<svg viewBox="-2 -4.8417 32 31.9975" xmlns="http://www.w3.org/2000/svg">
  <g transform="matrix(0.9988, 0, 0, 0.9988, 0, 0)">
    <g transform="matrix(0.0438, 0, 0, 0.0438, 0, 0)">
      <path d="M210.64, 255L177.25, 310.86A24.16 24.16 0 0 0 197.94, 347.44L266, 347.44L299.44, 403.31A23.72 23.72 0 0 0 320, 415A24.13 24.13 0 0 0 340.76, 403.14L374.07, 347.46L442.07, 347.46A24.31 24.31 0 0 0 463.2, 335.21A23.67 23.67 0 0 0 462.92, 311.06L429.35, 255L462.77, 199.14A24.16 24.16 0 0 0 442.07, 162.56L374, 162.56L340.55, 106.69A23.71 23.71 0 0 0 320.06, 95A24.11 24.11 0 0 0 299.23, 106.86L265.92, 162.54L197.92, 162.54A24.3 24.3 0 0 0 176.79, 174.8A23.67 23.67 0 0 0 177.07, 198.92zM206.5, 318.46L227.5, 283.22L248.6, 318.46zM320.06, 381.33L299.77, 347.44L340.32, 347.44zM433.55, 318.46L391.4, 318.46L412.46, 283.24zM433.49, 191.54L412.49, 226.78L391.38, 191.54zM320, 128.69L340.22, 162.56L299.68, 162.56zM282.35, 191.52L357.57, 191.52L395.57, 255L357.65, 318.46L282.42, 318.46L244.42, 255zM248.59, 191.52L227.59, 226.74L206.49, 191.52zM576, -1C547.68, -1 524.43, 12.22 515.8, 31L124.2, 31C115.57, 12.22 92.32, -1 64, -1C28.12, -1 0, 20.08 0, 47L0, 463C0, 489.92 28.12, 511 64, 511C92.32, 511 115.57, 497.78 124.2, 479L515.8, 479C524.43, 497.78 547.68, 511 576, 511C611.88, 511 640, 489.92 640, 463L640, 47C640, 20.08 611.88, -1 576, -1zM96, 63L96, 463C96, 469.38 83.25, 479 64, 479C44.75, 479 32, 469.38 32, 463L32, 47C32, 40.63 44.75, 31 64, 31C83.25, 31 96, 40.63 96, 47zM512, 447L128, 447L128, 63L512, 63zM608, 463C608, 469.38 595.25, 479 576, 479C556.75, 479 544, 469.38 544, 463L544, 47C544, 40.63 556.75, 31 576, 31C595.25, 31 608, 40.63 608, 47z" fill="#727272" fill-opacity="1" class="Black" />
    </g>
  </g>
</svg>