<?xml version='1.0' encoding='UTF-8'?>
<svg viewBox="-2 -2 32 32" xmlns="http://www.w3.org/2000/svg">
  <g transform="matrix(0.0547, 0, 0, 0.0547, 0, 0)">
    <path d="M480, 160C497.67, 160 512, 145.67 512, 128L512, 0A303.17 303.17 0 0 1 376.45, 32L135.55, 32A303.17 303.17 0 0 1 0, 0L0, 128C0, 145.67 14.33, 160 32, 160L64, 160L64, 256L8, 256C3.58, 256 0, 259.58 0, 264L0, 280C0, 284.42 3.58, 288 8, 288L64, 288L64, 504C64, 508.42 67.58, 512 72, 512L88, 512C92.42, 512 96, 508.42 96, 504L96, 288L416, 288L416, 504C416, 508.42 419.58, 512 424, 512L440, 512C444.42, 512 448, 508.42 448, 504L448, 288L504, 288C508.42, 288 512, 284.42 512, 280L512, 264C512, 259.58 508.42, 256 504, 256L448, 256L448, 160L480, 160zM32, 128L32, 47.56C65.39, 58.38 100.49, 64 135.55, 64L376.44, 64C411.51, 64 446.61, 58.38 479.99, 47.56L479.99, 128L32, 128zM96, 160L240, 160L240, 256L96, 256L96, 160zM416, 256L272, 256L272, 160L416, 160L416, 256z" fill="#727272" fill-opacity="1" class="Black" />
  </g>
</svg>