<?xml version='1.0' encoding='UTF-8'?>
<svg viewBox="-2.0036 -1.9998 32 31.9975" xmlns="http://www.w3.org/2000/svg">
  <g transform="matrix(0.0547, 0, 0, 0.0547, 0, 0)">
    <path d="M429.1, 25.2C436.5, 14.6 429.1, 0 416.2, 0L16.2, 0C7.1, 0 -0.3, 7.6 0, 16.5C13.3, 369.2 452, 236.3 331.7, 489.1C326.7, 499.7 334.3, 512 346, 512L373.4, 512C381.3, 512 389.2, 509 395.1, 503.7C715.7, 217 256.2, 273.9 429.1, 25.2zM386.7, 32C373, 55.5 364.7, 76.6 360.3, 96L45.5, 96C39.4, 77.1 35, 56 33, 32L386.7, 32zM58.4, 128L356.4, 128C356.3, 152.5 363.2, 173.5 373.6, 192L108.6, 192C88.7, 174.7 71.5, 153.9 58.4, 128zM153.7, 224L396.3, 224C407.4, 236.9 419.5, 248.5 430.7, 259.2C441.9, 269.9 450.9, 279.1 458.6, 288L287.7, 288C271.8, 280 255, 272.5 237.9, 265C209.3, 252.4 180.4, 239.7 153.7, 224zM338.9, 320L477.7, 320C478.9, 324.4 480.1, 328.7 480.1, 333.3C479.9, 347.7 473.3, 364.7 461, 384L380.5, 384C379.5, 380 378.9, 375.9 377.5, 372.1C369.6, 350.9 356, 334.2 338.9, 320zM373.4, 480L370.5, 480C379.4, 456.7 383.7, 435.6 384.1, 416L437.2, 416C420.6, 435.5 399.4, 456.8 373.4, 480z" fill="#727272" fill-opacity="1" class="Black" />
  </g>
</svg>