<?xml version='1.0' encoding='UTF-8'?>
<svg viewBox="-1.9998 -4.7979 32 31.9975" xmlns="http://www.w3.org/2000/svg">
  <g transform="matrix(0.9989, 0, 0, 0.9989, 0, 0)">
    <g transform="matrix(0.0438, 0, 0, 0.0438, 0, 0)">
      <path d="M176, 256C131.82, 256 96, 291.82 96, 336C96, 380.18 131.82, 416 176, 416C220.18, 416 256, 380.18 256, 336C256, 291.82 220.18, 256 176, 256zM176, 376C153.94, 376 136, 358.06 136, 336C136, 313.94 153.94, 296 176, 296C198.06, 296 216, 313.94 216, 336C216, 358.06 198.06, 376 176, 376zM608, 192L544, 192L544, 181.05C544, 158.69 551.8, 137.55 566.13, 120.72C568.9, 117.47 568.94, 112.74 565.92, 109.72L554.59, 98.39C551.37, 95.17 545.97, 95.16 542.96, 98.59C522.94, 121.41 512, 150.38 512, 181.05L512, 192L368.57, 192L284.73, 18.1A32.02 32.02 0 0 0 255.9, 0L128, 0C110.33, 0 96, 14.33 96, 32L96, 187.75C85.24, 186.29 73.98, 189.16 65.69, 197.4L37.41, 225.68C24.6, 238.51 23.47, 258.68 34.1, 272.77C32.98, 275.27 31.91, 277.8 30.94, 280.35C13.47, 282.83 0, 297.86 0, 316L0, 356C0, 374.14 13.47, 389.17 30.94, 391.64C31.91, 394.19 32.97, 396.72 34.1, 399.22C29.41, 405.42 26.88, 412.92 26.88, 420.83C26.85, 430.45 30.6, 439.52 37.41, 446.31L65.69, 474.59C78.57, 487.42 98.72, 488.53 112.78, 477.92C115.28, 479.03 117.81, 480.08 120.34, 481.06C122.81, 498.52 137.88, 512 156, 512L196, 512C214.12, 512 229.19, 498.52 231.66, 481.06C234.19, 480.08 236.72, 479.03 239.22, 477.92C253.34, 488.53 273.5, 487.42 286.31, 474.59L314.59, 446.31C321.4, 439.51 325.15, 430.45 325.12, 420.83C325.12, 412.92 322.59, 405.39 317.9, 399.22C319.02, 396.72 320.09, 394.19 321.06, 391.64C327.41, 390.74 332.88, 387.76 337.72, 384L421.87, 384C418.3, 394.05 415.99, 404.72 415.99, 416C415.99, 469.02 458.97, 512 511.99, 512C565.01, 512 607.99, 469.02 607.99, 416C607.99, 389.49 597.25, 365.49 579.87, 348.12L630.61, 297.38C636.61, 291.38 639.98, 283.24 639.98, 274.75L639.98, 224C640, 206.33 625.67, 192 608, 192zM128, 32L255.9, 32L333.04, 192L278.44, 192C267.5, 185.79 254.36, 185.84 243.38, 192L234.21, 192C233.35, 191.65 232.51, 191.27 231.65, 190.94C229.19, 173.48 214.12, 160 196, 160L156, 160C144.47, 160 134.6, 165.81 128, 174.27L128, 32zM320, 356C320, 358.2 318.22, 360 316, 360L297.59, 360C290.48, 383.63 290.88, 382.85 278.97, 404.98L291.94, 418.01L291.97, 423.68L263.69, 451.96C262.13, 453.57 259.6, 453.51 258.03, 451.96L245.03, 438.96C223.29, 450.64 223.37, 450.61 200, 457.57L200, 476C200, 478.2 198.22, 480 196, 480L156, 480C153.78, 480 152, 478.2 152, 476L152, 457.58C128.63, 450.62 128.71, 450.65 106.97, 438.97L93.97, 451.97A3.972 3.972 0 0 1 88.31, 451.97L60.03, 423.69L60.06, 418.02L73.03, 404.99C61.11, 382.84 61.51, 383.6 54.41, 360L36, 360C33.78, 360 32, 358.2 32, 356L32, 316C32, 313.8 33.78, 312 36, 312L54.41, 312C61.56, 288.23 61.13, 289.17 73.03, 266.98L60.03, 253.98A4.02 4.02 0 0 1 60.03, 248.31L88.31, 220.03C89.9, 218.47 92.43, 218.5 93.97, 220.03L106.97, 233.03C128.71, 221.35 128.63, 221.38 152, 214.42L152, 196C152, 193.8 153.78, 192 156, 192L196, 192C198.22, 192 200, 193.8 200, 196L200, 214.42C223.37, 221.38 223.29, 221.35 245.03, 233.03L258.03, 220.03C259.59, 218.5 262.12, 218.47 263.69, 220.03L291.97, 248.31A4.02 4.02 0 0 1 291.97, 253.98L278.97, 266.98C290.88, 289.18 290.45, 288.26 297.59, 312L316, 312C318.22, 312 320, 313.8 320, 316L320, 356zM512, 480C476.71, 480 448, 451.29 448, 416C448, 380.71 476.71, 352 512, 352C547.29, 352 576, 380.71 576, 416C576, 451.29 547.29, 480 512, 480zM608, 274.74L553.15, 329.59C540.64, 323.62 526.79, 319.99 512, 319.99C483.68, 319.99 458.49, 332.48 440.91, 351.99L352, 351.99L352, 315.99C352, 297.85 338.53, 282.82 321.06, 280.35C320.09, 277.8 319.03, 275.27 317.9, 272.77C328.52, 258.68 327.4, 238.5 314.59, 225.68L312.9, 223.99L608, 223.99L608, 274.74z" fill="#727272" fill-opacity="1" class="Black" />
    </g>
  </g>
</svg>