<?xml version='1.0' encoding='UTF-8'?>
<svg viewBox="-4.6242 -1.9999 32 32" xmlns="http://www.w3.org/2000/svg">
  <g transform="matrix(0.0547, 0, 0, 0.0547, 0, 0)">
    <path d="M416, 64L416, 48L336, 48L336, 28.44C336, 12.73 323.27, 0 307.55, 0L108.45, 0C92.73, 0 80, 12.73 80, 28.44L80, 48L0, 48L0, 64C0, 114.55 33.89, 156.77 80, 170.57L80, 176L0, 176L0, 192C0, 242.55 33.89, 284.77 80, 298.57L80, 304L0, 304L0, 320C0, 373.54 38.07, 417.51 88.38, 428.43C106.49, 477.13 153, 512 208, 512C263, 512 309.51, 477.13 327.62, 428.43C377.93, 417.51 416, 373.54 416, 320L416, 304L336, 304L336, 298.57C382.11, 284.77 416, 242.55 416, 192L416, 176L336, 176L336, 170.57C382.11, 156.77 416, 114.55 416, 64zM336, 80L382.41, 80C377.17, 105.62 359.36, 126.21 336, 136.56L336, 80zM33.59, 80L80, 80L80, 136.56C56.64, 126.21 38.84, 105.62 33.59, 80zM33.59, 208L80, 208L80, 264.56C56.64, 254.21 38.84, 233.62 33.59, 208zM33.59, 336L80, 336L80, 384C80, 387.04 80.69, 389.9 80.9, 392.89C57.11, 382.69 38.9, 361.94 33.59, 336zM304, 384C304, 436.93 260.94, 480 208, 480C155.06, 480 112, 436.93 112, 384L112, 32L304, 32L304, 384zM382.41, 336C377.1, 361.94 358.9, 382.69 335.11, 392.89C335.32, 389.9 336.01, 387.05 336.01, 384L336.01, 336L382.41, 336zM382.41, 208C377.17, 233.62 359.36, 254.21 336, 264.56L336, 208L382.41, 208zM208, 184C238.93, 184 264, 158.93 264, 128C264, 97.07 238.93, 72 208, 72C177.07, 72 152, 97.07 152, 128C152, 158.93 177.07, 184 208, 184zM208, 312C238.93, 312 264, 286.93 264, 256C264, 225.07 238.93, 200 208, 200C177.07, 200 152, 225.07 152, 256C152, 286.93 177.07, 312 208, 312zM208, 224C225.64, 224 240, 238.36 240, 256C240, 273.64 225.64, 288 208, 288C190.36, 288 176, 273.64 176, 256C176, 238.36 190.36, 224 208, 224zM208, 440C238.93, 440 264, 414.93 264, 384C264, 353.07 238.93, 328 208, 328C177.07, 328 152, 353.07 152, 384C152, 414.93 177.07, 440 208, 440zM208, 352C225.64, 352 240, 366.36 240, 384C240, 401.64 225.64, 416 208, 416C190.36, 416 176, 401.64 176, 384C176, 366.36 190.36, 352 208, 352z" fill="#727272" fill-opacity="1" class="Black" />
  </g>
</svg>