<?xml version='1.0' encoding='UTF-8'?>
<svg viewBox="-3.7505 -1.9998 32 31.9975" xmlns="http://www.w3.org/2000/svg">
  <g transform="matrix(0.0547, 0, 0, 0.0547, 0, 0)">
    <path d="M224, 320C232.823, 320 240, 327.177 240, 336C240, 344.823 232.823, 352 224, 352C215.177, 352 208, 344.823 208, 336C208, 327.177 215.177, 320 224, 320M224, 288C197.49, 288 176, 309.49 176, 336C176, 362.51 197.49, 384 224, 384C250.51, 384 272, 362.51 272, 336C272, 309.49 250.51, 288 224, 288zM320, 0L128, 0C64, 0 0, 42.981 0, 96L0, 352C0, 399.169 50.656, 438.391 106.9, 446.473L51.615, 501.758C47.835, 505.538 50.512, 512.001 55.858, 512.001L81.656, 512.001C84.839, 512.001 87.891, 510.737 90.141, 508.486L150.627, 448L297.372, 448L357.858, 508.485A12.002 12.002 0 0 0 366.343, 512L392.141, 512C397.486, 512 400.163, 505.537 396.384, 501.757L341.1, 446.472C397.344, 438.391 448, 399.169 448, 352L448, 96C448, 42.981 385, 0 320, 0zM32, 128L416, 128L416, 224L32, 224L32, 128zM128, 32L320, 32C378.237, 32 416, 69.881 416, 96L32, 96C32, 63.701 79.552, 32 128, 32zM320, 416L128, 416C79.552, 416 32, 384.299 32, 352L32, 256L416, 256L416, 352C416, 384.299 368.448, 416 320, 416z" fill="#727272" fill-opacity="1" class="Black" />
  </g>
</svg>