<?xml version='1.0' encoding='UTF-8'?>
<svg viewBox="-1.9998 -2.0011 31.9975 32" xmlns="http://www.w3.org/2000/svg">
  <g transform="matrix(0.0547, 0, 0, 0.0547, 0, 0)">
    <path d="M511.6, 76.4C509.6, 67.8 501.1, 62.5 492.4, 64.5L12.4, 176.5C3.8, 178.5 -1.6, 187.1 0.4, 195.7C2.2, 203 8.7, 208 16, 208C17.2, 208 18.4, 207.9 19.6, 207.6L240, 156.2L240, 224L64, 224C46.3, 224 32, 238.3 32, 256L32, 480C32, 497.7 46.3, 512 64, 512L448, 512C465.7, 512 480, 497.7 480, 480L480, 256C480, 238.3 465.7, 224 448, 224L272, 224L272, 148.7L499.6, 95.6C508.2, 93.6 513.6, 85 511.6, 76.4zM64, 256L160, 256L160, 352L64, 352L64, 256zM352, 256L448, 256L448, 352L352, 352L352, 256zM448, 384L448, 480L64, 480L64, 384L448, 384zM320, 256L320, 352L192, 352L192, 256L320, 256zM176, 128C202.5, 128 224, 106.5 224, 80C224, 53.5 202.5, 32 176, 32C149.5, 32 128, 53.5 128, 80C128, 106.5 149.5, 128 176, 128zM176, 64C184.8, 64 192, 71.2 192, 80C192, 88.8 184.8, 96 176, 96C167.2, 96 160, 88.8 160, 80C160, 71.2 167.2, 64 176, 64zM304, 96C330.5, 96 352, 74.5 352, 48C352, 21.5 330.5, 0 304, 0C277.5, 0 256, 21.5 256, 48C256, 74.5 277.5, 96 304, 96zM304, 32C312.8, 32 320, 39.2 320, 48C320, 56.8 312.8, 64 304, 64C295.2, 64 288, 56.8 288, 48C288, 39.2 295.2, 32 304, 32z" fill="#727272" fill-opacity="1" class="Black" />
  </g>
</svg>