<?xml version='1.0' encoding='UTF-8'?>
<svg viewBox="-5.5003 -2 32 32" xmlns="http://www.w3.org/2000/svg">
  <g transform="matrix(0.0547, 0, 0, 0.0547, 0, 0)">
    <path d="M160, 383.1C232, 375.1 288, 314.1 288, 240C288, 206 276.2, 174.8 256.5, 150.1L352, 54.6L352, 100C352, 106.6 357.4, 112 364, 112L372, 112C378.6, 112 384, 106.6 384, 100L384, 12C384, 5.4 378.6, 0 372, 0L284, 0C277.4, 0 272, 5.4 272, 12L272, 20C272, 26.6 277.4, 32 284, 32L329.4, 32L233.9, 127.5C209.2, 107.8 178, 96 144, 96C64.5, 96 0, 160.5 0, 240C0, 314.1 56, 375.2 128, 383.1L128, 424L76, 424C69.4, 424 64, 429.4 64, 436L64, 444C64, 450.6 69.4, 456 76, 456L128, 456L128, 500C128, 506.6 133.4, 512 140, 512L148, 512C154.6, 512 160, 506.6 160, 500L160, 456L212, 456C218.6, 456 224, 450.6 224, 444L224, 436C224, 429.4 218.6, 424 212, 424L160, 424L160, 383.1zM144, 352C82.1, 352 32, 302 32, 240C32, 178.1 82, 128 144, 128C205.9, 128 256, 178 256, 240C256, 301.9 206, 352 144, 352z" fill="#727272" fill-opacity="1" class="Black" />
  </g>
</svg>