<?xml version='1.0' encoding='UTF-8'?>
<svg viewBox="-2.8747 -2 32 32" xmlns="http://www.w3.org/2000/svg">
  <g transform="matrix(0.0547, 0, 0, 0.0547, 0, 0)">
    <path d="M468, 0L380, 0C373.4, 0 368, 5.4 368, 12L368, 20C368, 26.6 373.4, 32 380, 32L425.4, 32L329.9, 127.5C305.2, 107.8 274, 96 240, 96C206, 96 174.8, 107.8 150.1, 127.5L121.2, 98.6L152.3, 67.5C157, 62.8 157, 55.2 152.3, 50.5L146.6, 44.8C141.9, 40.1 134.3, 40.1 129.6, 44.8L98.6, 76L54.6, 32L100, 32C106.6, 32 112, 26.6 112, 20L112, 12C112, 5.4 106.6, 0 100, 0L12, 0C5.4, 0 0, 5.4 0, 12L0, 100C0, 106.6 5.4, 112 12, 112L20, 112C26.6, 112 32, 106.6 32, 100L32, 54.6L76, 98.6L44.9, 129.7C40.2, 134.4 40.2, 142 44.9, 146.7L50.6, 152.4C55.3, 157.1 62.9, 157.1 67.6, 152.4L98.7, 121.3L127.6, 150.2C107.8, 174.8 96, 206 96, 240C96, 314.1 152, 375.2 224, 383.1L224, 424L172, 424C165.4, 424 160, 429.4 160, 436L160, 444C160, 450.6 165.4, 456 172, 456L224, 456L224, 500C224, 506.6 229.4, 512 236, 512L244, 512C250.6, 512 256, 506.6 256, 500L256, 456L308, 456C314.6, 456 320, 450.6 320, 444L320, 436C320, 429.4 314.6, 424 308, 424L256, 424L256, 383.1C328, 375.1 384, 314.1 384, 240C384, 206 372.2, 174.8 352.5, 150.1L448, 54.6L448, 100C448, 106.6 453.4, 112 460, 112L468, 112C474.6, 112 480, 106.6 480, 100L480, 12C480, 5.4 474.6, 0 468, 0zM240, 352C178.1, 352 128, 302 128, 240C128, 178.1 178, 128 240, 128C301.9, 128 352, 178 352, 240C352, 301.9 302, 352 240, 352z" fill="#727272" fill-opacity="1" class="Black" />
  </g>
</svg>