<?xml version='1.0' encoding='UTF-8'?>
<svg viewBox="-3.7495 -2 32 32" xmlns="http://www.w3.org/2000/svg">
  <g transform="matrix(0.0547, 0, 0, 0.0547, 0, 0)">
    <path d="M440, 64L336, 64L302.41, 19.2C294.44, 8.59 277.25, 0 264, 0L184, 0C170.75, 0 153.56, 8.59 145.59, 19.2L112, 64L8, 64A8 8 0 0 0 0, 72L0, 88A8 8 0 0 0 8, 96L26.91, 96L60.09, 468.3C62.28, 492.42 83.69, 512 107.91, 512L340.09, 512C364.31, 512 385.72, 492.42 387.91, 468.3L421.09, 96L440, 96A8 8 0 0 0 448, 88L448, 72A8 8 0 0 0 440, 64zM171.19, 38.41A18.15 18.15 0 0 1 184, 32L264, 32A18.15 18.15 0 0 1 276.81, 38.41L296, 64L152, 64zM356, 465.41A16.2 16.2 0 0 1 340.16, 480L107.84, 480A16.2 16.2 0 0 1 92, 465.41L59, 96L389, 96zM192.75, 360.34A28 28 0 0 0 240, 340L240, 288L256, 288A48.05 48.05 0 0 1 304, 336A16 16 0 0 0 336, 336A80.09 80.09 0 0 0 256, 256L240, 256L240, 204A28 28 0 0 0 192.75, 183.66L120.75, 251.66A28 28 0 0 0 120.75, 292.34zM208, 213.28L208, 330.72L145.81, 272z" fill="#727272" fill-opacity="1" class="Black" />
  </g>
</svg>