<?xml version='1.0' encoding='UTF-8'?>
<svg viewBox="-3.7495 -2 32 32" xmlns="http://www.w3.org/2000/svg">
  <g transform="matrix(0.0547, 0, 0, 0.0547, 0, 0)">
    <path d="M440, 64L336, 64L302.4, 19.2A48 48 0 0 0 264, 0L184, 0A48 48 0 0 0 145.6, 19.2L112, 64L8, 64A8 8 0 0 0 0, 72L0, 88A8 8 0 0 0 8, 96L32, 96L32, 464A48 48 0 0 0 80, 512L368, 512A48 48 0 0 0 416, 464L416, 96L440, 96A8 8 0 0 0 448, 88L448, 72A8 8 0 0 0 440, 64zM171.2, 38.4A16.1 16.1 0 0 1 184, 32L264, 32A16.1 16.1 0 0 1 276.8, 38.4L296, 64L152, 64zM384, 464A16 16 0 0 1 368, 480L80, 480A16 16 0 0 1 64, 464L64, 96L384, 96zM155.35, 288L208, 288L208, 408A8 8 0 0 0 216, 416L232, 416A8 8 0 0 0 240, 408L240, 288L292.66, 288A26.94 26.94 0 0 0 317.66, 271.28A28.38 28.38 0 0 0 312.22, 240.47L244.1, 168.67C233.41, 157.48 214.59, 157.47 203.91, 168.67L135.79, 240.42A28.43 28.43 0 0 0 130.35, 271.25A26.94 26.94 0 0 0 155.35, 288zM224, 194L282.84, 256L165.16, 256z" fill="#727272" fill-opacity="1" class="Black" />
  </g>
</svg>