<?xml version='1.0' encoding='UTF-8'?>
<svg viewBox="-2 -3.554 32 32" xmlns="http://www.w3.org/2000/svg">
  <g transform="matrix(0.0486, 0, 0, 0.0486, 0, 0)">
    <path d="M480, 32L96, 32C42.98, 32 0, 74.98 0, 128L0, 448C0, 465.67 14.33, 480 32, 480L544, 480C561.67, 480 576, 465.67 576, 448L576, 128C576, 74.98 533.02, 32 480, 32zM96, 448L32, 448L32, 288L96, 288L96, 448zM96, 256L32, 256L32, 128C32, 92.71 60.71, 64 96, 64L96, 256zM448, 448L128, 448L128, 288L192, 288L192, 336C192, 362.47 213.53, 384 240, 384L336, 384C362.47, 384 384, 362.47 384, 336L384, 288L448, 288L448, 448zM224, 336L224, 208C224, 199.16 231.16, 192 240, 192L336, 192C344.84, 192 352, 199.16 352, 208L352, 336C352, 344.84 344.84, 352 336, 352L240, 352C231.16, 352 224, 344.84 224, 336zM448, 256L384, 256L384, 208C384, 181.53 362.47, 160 336, 160L240, 160C213.53, 160 192, 181.53 192, 208L192, 256L128, 256L128, 64L448, 64L448, 256zM544, 448L480, 448L480, 288L544, 288L544, 448zM544, 256L480, 256L480, 64C515.29, 64 544, 92.71 544, 128L544, 256zM288, 320C296.84, 320 304, 312.84 304, 304L304, 240C304, 231.16 296.84, 224 288, 224C279.16, 224 272, 231.16 272, 240L272, 304C272, 312.84 279.16, 320 288, 320z" fill="#727272" fill-opacity="1" class="Black" />
  </g>
</svg>