<?xml version='1.0' encoding='UTF-8'?>
<svg viewBox="-2.0024 -1.9999 32 32" xmlns="http://www.w3.org/2000/svg">
  <g transform="matrix(0.0547, 0, 0, 0.0547, 0, 0)">
    <path d="M304, 352C277.5, 352 256, 373.5 256, 400C256, 426.5 277.5, 448 304, 448C330.5, 448 352, 426.5 352, 400C352, 373.5 330.5, 352 304, 352zM304, 416C295.2, 416 288, 408.8 288, 400C288, 391.2 295.2, 384 304, 384C312.8, 384 320, 391.2 320, 400C320, 408.8 312.8, 416 304, 416zM272, 272C272, 245.5 250.5, 224 224, 224C197.5, 224 176, 245.5 176, 272C176, 298.5 197.5, 320 224, 320C250.5, 320 272, 298.5 272, 272zM224, 288C215.2, 288 208, 280.8 208, 272C208, 263.2 215.2, 256 224, 256C232.8, 256 240, 263.2 240, 272C240, 280.8 232.8, 288 224, 288zM505.3, 460.4L420.8, 351.7C431.3, 350.1 440.5, 343.4 445.1, 333.6C450.4, 322.4 448.7, 309.1 440.7, 299.5L306.6, 138.5L334.5, 124.6C345.3, 119.2 352.2, 108.1 352.2, 96C352.2, 83.9 345.4, 72.8 334.5, 67.4L301.4, 50.8L284.8, 17.7C279.2, 6.8 268.1, 0 256, 0C243.9, 0 232.8, 6.8 227.4, 17.7L210.8, 50.8L177.7, 67.4C166.8, 72.8 160, 83.9 160, 96C160, 108.1 166.8, 119.2 177.7, 124.6L205.6, 138.5L71.5, 299.5C63.6, 309 61.8, 322.3 67.1, 333.6C71.7, 343.4 80.9, 350.1 91.4, 351.7L6.7, 460.4C-0.8, 470 -2.2, 483.1 3.2, 494.1C8.6, 505.1 19.8, 512 32, 512L480, 512C492.2, 512 503.4, 505 508.7, 494.1C514, 483.2 512.8, 470 505.3, 460.4zM192, 96L234.7, 74.7L256, 32L277.3, 74.7L320, 96L277.3, 117.3L256, 160L234.7, 117.3L192, 96zM32, 480L156.4, 320L96, 320L223.6, 166.8L227.3, 174.3C232.7, 185.1 243.8, 192 255.9, 192C268, 192 279.1, 185.2 284.5, 174.3L288.2, 166.8L416, 320L355.6, 320L480, 480L32, 480z" fill="#727272" fill-opacity="1" class="Black" />
  </g>
</svg>