<?xml version='1.0' encoding='UTF-8'?>
<svg viewBox="-1.9925 -4.793 32 32" xmlns="http://www.w3.org/2000/svg">
  <g transform="matrix(0.9993, 0, 0, 0.9993, 0, 0)">
    <g transform="matrix(0.0438, 0, 0, 0.0438, 0, 0)">
      <path d="M636.09, 389.46L561.97, 303.91L592, 303.91C598.22, 303.91 603.91, 300.3 606.5, 294.64C609.12, 288.98 608.25, 282.32 604.22, 277.57L531.72, 191.86L560, 191.86C566.31, 191.86 572.03, 188.14 574.62, 182.37C577.18, 176.59 576.12, 169.85 571.9, 165.14L427.9, 5.07C421.78, -1.68 410.21, -1.68 404.09, 5.07L320, 98.55L235.91, 5.07C229.79, -1.68 218.22, -1.68 212.1, 5.07L68.1, 165.14A16.06 16.06 0 0 0 65.38, 182.37C67.97, 188.14 73.69, 191.86 80, 191.86L108.28, 191.86L35.78, 277.57C31.75, 282.32 30.87, 288.98 33.5, 294.64C36.09, 300.3 41.78, 303.91 48, 303.91L78.03, 303.91L3.91, 389.46C-0.18, 394.2 -1.15, 400.9 1.44, 406.59C4.06, 412.3 9.75, 415.95 16, 415.95L176, 415.95L176, 440.41L151.8, 488.83C146.48, 499.47 154.22, 512 166.11, 512L281.89, 512C293.78, 512 301.52, 499.48 296.2, 488.83L272, 440.41L272, 415.95L368, 415.95L368, 440.41L343.8, 488.83C338.48, 499.47 346.22, 512 358.11, 512L473.89, 512C485.78, 512 493.52, 499.48 488.2, 488.83L464, 440.41L464, 415.95L624, 415.95C630.25, 415.95 635.94, 412.29 638.56, 406.59C641.16, 400.9 640.19, 394.2 636.09, 389.46zM192, 479.98L208, 447.97L208, 415.95L240, 415.95L240, 447.97L256, 479.98L192, 479.98zM50.78, 384L146.78, 272L82.5, 272L177.28, 160L115.94, 160L224, 39.92L332.06, 160L270.72, 160L365.5, 272L301.22, 272L397.22, 384L50.78, 384zM384, 479.98L400, 447.97L400, 415.95L432, 415.95L432, 447.97L448, 479.98L384, 479.98zM439.36, 384L369.97, 303.9L400, 303.9C406.22, 303.9 411.91, 300.29 414.5, 294.63C417.12, 288.97 416.25, 282.31 412.22, 277.56L339.72, 191.85L368, 191.85C374.31, 191.85 380.03, 188.13 382.62, 182.36C385.18, 176.58 384.12, 169.84 379.9, 165.13L341.61, 122.57L416, 39.92L524.06, 160L462.72, 160L557.5, 272L493.22, 272L589.22, 384L439.36, 384z" fill="#727272" fill-opacity="1" class="Black" />
    </g>
  </g>
</svg>