<?xml version='1.0' encoding='UTF-8'?>
<svg viewBox="-2.0011 -1.9998 32 31.9975" xmlns="http://www.w3.org/2000/svg">
  <g transform="matrix(0.0547, 0, 0, 0.0547, 0, 0)">
    <path d="M459.94, 202.98C462.63, 194.12 464, 185.09 464, 176C464, 123.06 420.94, 80 368, 80C362.25, 80 356.56, 80.53 350.91, 81.56C343.94, 35.45 304.03, 0 256, 0C207.97, 0 168.06, 35.45 161.09, 81.56A95.058 95.058 0 0 0 144, 80C91.06, 80 48, 123.06 48, 176C48, 185.09 49.38, 194.12 52.06, 202.98C20.34, 219.17 0, 251.53 0, 288C0, 340.94 43.06, 384 96, 384L208, 384L208, 440.45L183.8, 488.85C178.48, 499.49 186.22, 512.01 198.11, 512.01L313.89, 512.01C325.78, 512.01 333.52, 499.49 328.2, 488.85L304, 440.45L304, 384L416, 384C468.94, 384 512, 340.94 512, 288C512, 251.53 491.66, 219.17 459.94, 202.98zM224, 480L240, 448L240, 384L272, 384L272, 448L288, 480L224, 480zM416, 352L96, 352C60.72, 352 32, 323.3 32, 288C32, 259.88 50.28, 235.41 77.47, 227.12L95.63, 221.59L87.1, 204.62C82.41, 195.25 80, 185.61 80, 176C80, 140.7 108.72, 112 144, 112C158.34, 112 163.95, 114.94 195.16, 128.98C192.26, 97.28 192.88, 103.56 192, 96C192, 60.7 220.72, 32 256, 32C291.28, 32 320, 60.7 319.75, 98.42L316.84, 128.98C345.08, 116.28 352.1, 112 368, 112C403.28, 112 432, 140.7 432, 176C432, 185.61 429.59, 195.25 424.91, 204.62L416.38, 221.59L434.54, 227.12C461.72, 235.41 480, 259.88 480, 288C480, 323.3 451.28, 352 416, 352z" fill="#727272" fill-opacity="1" class="Black" />
  </g>
</svg>