<?xml version='1.0' encoding='UTF-8'?>
<svg viewBox="-1.9975 -4.7983 32 32" xmlns="http://www.w3.org/2000/svg">
  <g transform="matrix(0.9989, 0, 0, 0.9989, 0, 0)">
    <g transform="matrix(0.0438, 0, 0, 0.0438, 0, 0)">
      <path d="M464.75, 64C420.13, 64 377.63, 78.79 344.88, 103.86C323.48, 44 255.61, 0 175.25, 0C87.35, 0 13.85, 51.27 0.54, 121.89C-3.14, 141.44 12.45, 160 34, 160L93.63, 160L128, 132.48L141.29, 143.13C140.72, 143.69 140.07, 144.13 139.5, 144.67C77.31, 206.86 61.62, 295.06 102.15, 354.39C113.15, 370.47 137.04, 373.44 153.25, 357.16L273.88, 224.94C276.88, 326.65 253.54, 426.87 241.16, 471.53A31.84 31.84 0 0 0 271.63, 512L362.06, 512A31.66 31.66 0 0 0 393.44, 485.23C408.44, 392.23 395.12, 292.52 380.95, 224L470.62, 224L496, 198.62L521.37, 224L606, 224C627.46, 224 643.14, 205.56 639.46, 185.89C626.15, 115.27 552.65, 64 464.75, 64zM128, 91.52L82.41, 128L32, 127.83C42.29, 73.2 103.88, 32 175.25, 32C228.93, 32 275.6, 54.88 300.59, 88.57C257.37, 80.28 208.24, 92.05 166.28, 122.12zM128.59, 336.34C97.22, 290.45 111.65, 217.78 162.12, 167.34C194.62, 134.85 235.59, 117.54 272.96, 117.54A104.67 104.67 0 0 1 319.18, 127.77zM362.06, 480L272, 480.05C286.13, 429.14 314.32, 308.6 304.29, 191.59L332.43, 160.75C344.55, 202.9 382.73, 351 362.06, 480zM534.62, 192L496, 153.38L457.37, 192L373.84, 192C365.07, 155.56 357.98, 134.87 357.69, 134C385.48, 110 424.1, 96 464.75, 96C536.12, 96 597.75, 137.2 606, 192z" fill="#727272" fill-opacity="1" class="Black" />
    </g>
  </g>
</svg>