<?xml version='1.0' encoding='UTF-8'?>
<svg viewBox="-1.9974 -4.7969 32 31.9975" xmlns="http://www.w3.org/2000/svg">
  <g transform="matrix(0.9989, 0, 0, 0.9989, 0, 0)">
    <g transform="matrix(0.0438, 0, 0, 0.0438, 0, 0)">
      <path d="M416, 32L640, 32L640, 0L416, 0C380.7, 0 352, 28.7 352, 64L352, 371.9L5.9, 480.8C1.6, 482 -0.9, 486.4 0.3, 490.6L4.5, 506C5.7, 510.3 10.1, 512.8 14.3, 511.6L367.2, 400L416, 400C416, 461.9 466.1, 512 528, 512C589.9, 512 640, 461.9 640, 400C640, 338.1 589.9, 288 528, 288C477.4, 288 435.2, 321.9 421.3, 368L384, 368L384, 64C384, 46.4 398.4, 32 416, 32zM528, 320C572.1, 320 608, 355.9 608, 400C608, 444.1 572.1, 480 528, 480C483.9, 480 448, 444.1 448, 400C448, 355.9 483.9, 320 528, 320zM3, 325.7L24.4, 394.5C29.7, 411.3 47.6, 420.7 64.4, 415.5L64.5, 415.5L320, 336.1L320, 302.6L55, 385L33.6, 316.2C29.6, 303.4 36.8, 290.1 49.4, 286.2C62, 282.3 75.5, 289.4 79.4, 302L91.3, 340.2L305.2, 273.7L293.3, 235.5C289.4, 222.9 296.4, 209.4 309.1, 205.4C312.8, 204.3 316.4, 204.1 319.9, 204.7L319.9, 159.4L317.7, 152.4C304.6, 110.3 259.7, 86.7 217.7, 99.7L217.6, 99.7L64.9, 147.3C22.7, 160.4 -0.9, 205.2 12.3, 247.4L18.7, 268C1.6, 283.8 -3.1, 306.1 3, 325.7zM74.4, 177.9L227.2, 130.4L227.3, 130.4C252.5, 122.6 279.4, 136.8 287.3, 162L292.3, 178.1C267.6, 189.9 254.5, 218.2 262.8, 245.1L265.2, 252.7L112.4, 300.2L110, 292.6C101.7, 265.7 74.8, 249.9 47.8, 254.1L42.8, 238C34.9, 212.6 49.1, 185.8 74.4, 177.9z" fill="#727272" fill-opacity="1" class="Black" />
    </g>
  </g>
</svg>