<?xml version='1.0' encoding='UTF-8'?>
<svg viewBox="-2 -4.7992 32 32" xmlns="http://www.w3.org/2000/svg">
  <g transform="matrix(0.9988, 0, 0, 0.9988, 0, 0)">
    <g transform="matrix(0.0438, 0, 0, 0.0438, 0, 0)">
      <path d="M632, 352L608, 352L608, 224C608, 197.49 586.51, 176 560, 176L515.2, 176L419.21, 56.02A63.99 63.99 0 0 0 369.24, 32L256, 32C238.33, 32 224, 46.33 224, 64L224, 176L80, 176C53.49, 176 32, 197.49 32, 224L32, 352L8, 352C3.58, 352 0, 355.58 0, 360L0, 376C0, 380.42 3.58, 384 8, 384L80, 384C80, 437.02 122.98, 480 176, 480C229.02, 480 272, 437.02 272, 384L368, 384C368, 437.02 410.98, 480 464, 480C517.02, 480 560, 437.02 560, 384L632, 384C636.42, 384 640, 380.42 640, 376L640, 360C640, 355.58 636.42, 352 632, 352zM256, 64L369.24, 64C379.02, 64 388.12, 68.38 394.23, 76.01L474.22, 176L256, 176L256, 64zM176, 448C140.65, 448 112, 419.35 112, 384C112, 348.65 140.65, 320 176, 320C211.35, 320 240, 348.65 240, 384C240, 419.35 211.35, 448 176, 448zM464, 448C428.65, 448 400, 419.35 400, 384C400, 348.65 428.65, 320 464, 320C499.35, 320 528, 348.65 528, 384C528, 419.35 499.35, 448 464, 448zM576, 352L554.12, 352C540.9, 314.8 505.74, 288 464, 288C422.26, 288 387.1, 314.8 373.88, 352L266.12, 352C252.9, 314.8 217.74, 288 176, 288C134.26, 288 99.1, 314.8 85.88, 352L64, 352L64, 224C64, 215.18 71.18, 208 80, 208L560, 208C568.82, 208 576, 215.18 576, 224L576, 352z" fill="#727272" fill-opacity="1" class="Black" />
    </g>
  </g>
</svg>