<?xml version='1.0' encoding='UTF-8'?>
<svg viewBox="-1.9999 -4.7979 32 31.9975" xmlns="http://www.w3.org/2000/svg">
  <g transform="matrix(1.0011, 0, 0, 1.0011, 0, 0)">
    <g transform="matrix(0.0437, 0, 0, 0.0437, 0, 0)">
      <path d="M621.3, 205.3L562.8, 146.8C550.8, 134.8 534.5, 128.1 517.5, 128.1L464, 128.1L464, 64C464, 46.3 449.7, 32 432, 32L32, 32C14.3, 32 0, 46.3 0, 64L0, 400C0, 444.2 35.8, 480 80, 480C106.3, 480 129.4, 467.1 144, 447.6C158.6, 467.2 181.7, 480 208, 480C252.2, 480 288, 444.2 288, 400C288, 394.5 287.4, 389.2 286.4, 384L449.6, 384C448.5, 389.2 448, 394.5 448, 400C448, 444.2 483.8, 480 528, 480C572.2, 480 608, 444.2 608, 400C608, 394.5 607.4, 389.2 606.4, 384L624, 384C632.8, 384 640, 376.8 640, 368L640, 250.5C640, 233.5 633.3, 217.3 621.3, 205.3zM80, 448C53.5, 448 32, 426.5 32, 400C32, 373.5 53.5, 352 80, 352C106.5, 352 128, 373.5 128, 400C128, 426.5 106.5, 448 80, 448zM208, 448C181.5, 448 160, 426.5 160, 400C160, 373.5 181.5, 352 208, 352C234.5, 352 256, 373.5 256, 400C256, 426.5 234.5, 448 208, 448zM432, 352L271.6, 352C257, 332.7 234.1, 320 208, 320C181.9, 320 159, 332.7 144.4, 352L143.7, 352C129, 332.7 106, 320 80, 320C61.9, 320 45.4, 326.2 32, 336.4L32, 64L432, 64zM464, 160L517.5, 160C526, 160 534.1, 163.3 540.1, 169.4L594.7, 224L464, 224zM528, 448C501.5, 448 480, 426.5 480, 400C480, 373.5 501.5, 352 528, 352C554.5, 352 576, 373.5 576, 400C576, 426.5 554.5, 448 528, 448zM608, 352L591.6, 352C577, 332.7 554.1, 320 528, 320C501.9, 320 479, 332.7 464.4, 352L464, 352L464, 256L608, 256z" fill="#727272" fill-opacity="1" class="Black" />
    </g>
  </g>
</svg>