<?xml version='1.0' encoding='UTF-8'?>
<svg viewBox="-2 -4.0988 32 32" xmlns="http://www.w3.org/2000/svg">
  <g transform="matrix(0.9988, 0, 0, 0.9988, 0, 0)">
    <g transform="matrix(0.0438, 0, 0, 0.0438, 0, 0)">
      <path d="M632, 384L608, 384L608, 275.9C608, 259.1 601.2, 242.6 589.2, 230.7L505.3, 146.8C493.5, 134.8 477, 128 460.1, 128L416, 128L416, 78.6C416, 52.9 393.8, 32 366.6, 32L49.4, 32C22.2, 32 0, 52.9 0, 78.6L0, 369.4C0, 395.1 22.2, 416 49.4, 416L65.6, 416C64.5, 421.2 64, 426.5 64, 432C64, 476.2 99.8, 512 144, 512C188.2, 512 224, 476.2 224, 432C224, 426.5 223.4, 421.2 222.4, 416L417.6, 416C416.5, 421.2 416, 426.5 416, 432C416, 476.2 451.8, 512 496, 512C540.2, 512 576, 476.2 576, 432C576, 426.5 575.4, 421.2 574.4, 416L632, 416C636.4, 416 640, 412.4 640, 408L640, 392C640, 387.6 636.4, 384 632, 384zM460.1, 160C468.5, 160 476.8, 163.4 482.7, 169.4L566.6, 253.3C567.4, 254.1 567.7, 255.2 568.4, 256.1L416, 256.1L416, 160.1L460.1, 160.1zM144, 480C117.5, 480 96, 458.5 96, 432C96, 405.5 117.5, 384 144, 384C170.5, 384 192, 405.5 192, 432C192, 458.5 170.5, 480 144, 480zM207.6, 384C193, 364.7 170, 352 144, 352C118, 352 95, 364.7 80.4, 384L49.4, 384C39.8, 384 32, 377.5 32, 369.4L32, 78.6C32, 70.5 39.8, 64 49.4, 64L366.6, 64C376.2, 64 384, 70.5 384, 78.6L384, 384L207.6, 384zM496, 480C469.5, 480 448, 458.5 448, 432C448, 405.5 469.5, 384 496, 384C522.5, 384 544, 405.5 544, 432C544, 458.5 522.5, 480 496, 480zM496, 352C469.9, 352 447, 364.7 432.4, 384L416, 384L416, 288L576, 288L576, 384L559.6, 384C545, 364.7 522.1, 352 496, 352z" fill="#727272" fill-opacity="1" class="Black" />
    </g>
  </g>
</svg>