<?xml version='1.0' encoding='UTF-8'?>
<svg viewBox="-1.9999 -4.7979 32 31.9975" xmlns="http://www.w3.org/2000/svg">
  <g transform="matrix(1.0011, 0, 0, 1.0011, 0, 0)">
    <g transform="matrix(0.0437, 0, 0, 0.0437, 0, 0)">
      <path d="M32, 320L368, 320C385.7, 320 400, 305.7 400, 288L400, 64C400, 46.3 385.7, 32 368, 32L32, 32C14.3, 32 0, 46.3 0, 64L0, 288C0, 305.7 14.3, 320 32, 320zM32, 64L368, 64L368, 288L32, 288L32, 64zM621.3, 205.3L562.8, 146.8C550.8, 134.8 534.5, 128.1 517.5, 128.1L448, 128.1C439.2, 128.1 432, 135.3 432, 144.1L432, 352.1L228.7, 352.1C216.4, 342.2 201, 336.1 184, 336.1C161.2, 336.1 141.2, 346.9 128, 363.4C114.8, 346.8 94.8, 336 72, 336C32.2, 336 0, 368.2 0, 408C0, 447.8 32.2, 480 72, 480C94.8, 480 114.8, 469.2 128, 452.7C141.2, 469.2 161.2, 480 184, 480C223.8, 480 256, 447.8 256, 408C256, 399.5 254.3, 391.5 251.6, 384L449.6, 384C446.9, 397.2 447.4, 411.6 452.4, 426.4C460.8, 451.5 482.3, 471.3 508, 477.5C560.8, 490.3 608, 450.6 608, 399.9C608, 394.4 607.4, 389.1 606.4, 383.9L624, 383.9C632.8, 383.9 640, 376.7 640, 367.9L640, 250.5C640, 233.5 633.3, 217.3 621.3, 205.3zM72, 448C49.9, 448 32, 430.1 32, 408C32, 385.9 49.9, 368 72, 368C94.1, 368 112, 385.9 112, 408C112, 430.1 94.1, 448 72, 448zM184, 448C161.9, 448 144, 430.1 144, 408C144, 385.9 161.9, 368 184, 368C206.1, 368 224, 385.9 224, 408C224, 430.1 206.1, 448 184, 448zM464, 160L517.5, 160C526, 160 534.1, 163.3 540.1, 169.4L594.7, 224L464, 224L464, 160zM528, 448C501.5, 448 480, 426.5 480, 400C480, 373.5 501.5, 352 528, 352C554.5, 352 576, 373.5 576, 400C576, 426.5 554.5, 448 528, 448zM608, 352L591.6, 352C577, 332.7 554.1, 320 528, 320C501.9, 320 479, 332.7 464.4, 352L464, 352L464, 256L608, 256L608, 352zM104, 256L120, 256C124.4, 256 128, 252.4 128, 248L128, 104C128, 99.6 124.4, 96 120, 96L104, 96C99.6, 96 96, 99.6 96, 104L96, 248C96, 252.4 99.6, 256 104, 256zM200, 256L216, 256C220.4, 256 224, 252.4 224, 248L224, 104C224, 99.6 220.4, 96 216, 96L200, 96C195.6, 96 192, 99.6 192, 104L192, 248C192, 252.4 195.6, 256 200, 256zM296, 256L312, 256C316.4, 256 320, 252.4 320, 248L320, 104C320, 99.6 316.4, 96 312, 96L296, 96C291.6, 96 288, 99.6 288, 104L288, 248C288, 252.4 291.6, 256 296, 256z" fill="#727272" fill-opacity="1" class="Black" />
    </g>
  </g>
</svg>