<?xml version='1.0' encoding='UTF-8'?>
<svg viewBox="-1.9974 -4.7969 32 31.9975" xmlns="http://www.w3.org/2000/svg">
  <g transform="matrix(0.9989, 0, 0, 0.9989, 0, 0)">
    <g transform="matrix(0.0438, 0, 0, 0.0438, 0, 0)">
      <path d="M100.4, 414.6L313.8, 346.4C330.6, 341 339.9, 323 334.5, 306.2L276, 123.3C270.6, 106.4 252.5, 97.1 235.8, 102.5L22.5, 170.7C5.7, 176 -3.7, 194 1.7, 210.9L60.1, 393.8C65.4, 410.4 83.3, 420 100.4, 414.6zM154.1, 162.2L173.6, 223.2L143.2, 233L123.7, 172L154.1, 162.2zM93.1, 181.7L122.4, 273.1L213.8, 243.9L184.6, 152.5L245.5, 133L304, 315.9L90.6, 384.1L32.2, 201.2L93.1, 181.7zM416, 32L640, 32L640, 0L416, 0C380.7, 0 352, 28.7 352, 64L352, 371.9L5.9, 480.8C1.6, 482 -0.9, 486.4 0.3, 490.6L4.5, 506C5.7, 510.3 10.1, 512.8 14.3, 511.6L367.2, 400L416, 400C416, 461.9 466.1, 512 528, 512C589.9, 512 640, 461.9 640, 400C640, 338.1 589.9, 288 528, 288C477.4, 288 435.2, 321.9 421.3, 368L384, 368L384, 64C384, 46.4 398.4, 32 416, 32zM528, 320C572.1, 320 608, 355.9 608, 400C608, 444.1 572.1, 480 528, 480C483.9, 480 448, 444.1 448, 400C448, 355.9 483.9, 320 528, 320z" fill="#727272" fill-opacity="1" class="Black" />
    </g>
  </g>
</svg>