<?xml version='1.0' encoding='UTF-8'?>
<svg viewBox="-1.955 -4.7822 31.9975 32" xmlns="http://www.w3.org/2000/svg">
  <g transform="matrix(0.0438, 0, 0, 0.0438, 0, 0)">
    <path d="M617.38, 65.36L617.29, 65.29A32.32 32.32 0 0 0 581.44, 78.23C581, 78.89 536.51, 144.56 469.08, 180.23C454.51, 187.9 437.13, 192 418.78, 192L368.42, 192L368.42, 168A8 8 0 0 0 360.42, 160L344.42, 160A8 8 0 0 0 336.42, 168L336.42, 192L304.42, 192L304.42, 168A8 8 0 0 0 296.42, 160L280.42, 160A8 8 0 0 0 272.42, 168L272.42, 192L240.62, 192L240.62, 168A8 8 0 0 0 232.62, 160L216.62, 160A8 8 0 0 0 208.62, 168L208.62, 192L33, 192L33, 184A8 8 0 0 0 25, 176L9, 176A8 8 0 0 0 1, 184L1, 296A8 8 0 0 0 9, 304L25, 304A8 8 0 0 0 33, 296L33, 288L81.49, 288A103.74 103.74 0 0 0 168.74, 448L408.36, 448A103.93 103.93 0 0 0 512.2, 344A100.34 100.34 0 0 0 510.37, 327.16C553.97, 361.57 581.1, 401.23 581.47, 401.79A32 32 0 0 0 608.05, 416A32.85 32.85 0 0 0 617.38, 414.59A31.83 31.83 0 0 0 640, 384L640, 96A31.82 31.82 0 0 0 617.38, 65.36zM168.74, 416A71.74 71.74 0 0 1 124.11, 288L208.67, 288L208.67, 416zM240.62, 416L240.62, 288L272.57, 288L272.57, 416zM304.52, 416L304.52, 288L336.52, 288L336.52, 416zM408.36, 416L368.42, 416L368.42, 288L418.78, 288A108.77 108.77 0 0 1 462.78, 297.43A71.65 71.65 0 0 1 408.36, 416zM484, 271.45C464.87, 261.32 442.31, 256 418.78, 256L33, 256L33, 224L418.78, 224C442.31, 224 464.87, 218.66 483.99, 208.53C559.38, 168.62 607.77, 96.42 608, 96L608.16, 384.25C607.77, 383.52 559.38, 311.33 484, 271.45z" fill="#727272" fill-opacity="1" class="Black" />
  </g>
</svg>