<?xml version='1.0' encoding='UTF-8'?>
<svg viewBox="-1.995 -2.215 32 32" xmlns="http://www.w3.org/2000/svg">
  <g transform="matrix(0.0547, 0, 0, 0.0547, 0, 0)">
    <path d="M364, 464L148, 464C141.4, 464 136, 469.4 136, 476L136, 484C136, 490.6 141.4, 496 148, 496L364, 496C370.6, 496 376, 490.6 376, 484L376, 476C376, 469.4 370.6, 464 364, 464zM184, 396C184, 402.6 189.4, 408 196, 408L220, 408C226.6, 408 232, 402.6 232, 396L232, 372C232, 365.4 226.6, 360 220, 360L196, 360C189.4, 360 184, 365.4 184, 372L184, 396zM136, 372C136, 365.4 130.6, 360 124, 360L100, 360C93.4, 360 88, 365.4 88, 372L88, 396C88, 402.6 93.4, 408 100, 408L124, 408C130.6, 408 136, 402.6 136, 396L136, 372zM76, 456L52, 456C45.4, 456 40, 461.4 40, 468L40, 492C40, 498.6 45.4, 504 52, 504L76, 504C82.6, 504 88, 498.6 88, 492L88, 468C88, 461.4 82.6, 456 76, 456zM52, 312L76, 312C82.6, 312 88, 306.6 88, 300L88, 276C88, 269.4 82.6, 264 76, 264L52, 264C45.4, 264 40, 269.4 40, 276L40, 300C40, 306.6 45.4, 312 52, 312zM268, 264L244, 264C237.4, 264 232, 269.4 232, 276L232, 300C232, 306.6 237.4, 312 244, 312L268, 312C274.6, 312 280, 306.6 280, 300L280, 276C280, 269.4 274.6, 264 268, 264zM172, 264L148, 264C141.4, 264 136, 269.4 136, 276L136, 300C136, 306.6 141.4, 312 148, 312L172, 312C178.6, 312 184, 306.6 184, 300L184, 276C184, 269.4 178.6, 264 172, 264zM460, 264L436, 264C429.4, 264 424, 269.4 424, 276L424, 300C424, 306.6 429.4, 312 436, 312L460, 312C466.6, 312 472, 306.6 472, 300L472, 276C472, 269.4 466.6, 264 460, 264zM502.2, 102.3C366.1, -34.2 145.6, -33.9 9.8, 102.3C-1.2, 113.3 -3.1, 130.2 5.1, 143.4L45.6, 208.4C54.1, 222.1 71.1, 227.6 86.1, 221.7L167.1, 189.2C180.7, 183.7 189.2, 169.7 187.8, 155L183.5, 111.8C230.7, 97.3 281.4, 97.3 328.6, 111.8L324.3, 155C322.8, 169.7 331.3, 183.7 345, 189.2L426, 221.7C440.9, 227.7 457.9, 222.1 466.5, 208.4L507, 143.4C515.2, 130.2 513.2, 113.3 502.2, 102.3zM479.8, 126.4L439.3, 191.4C439, 191.9 438.4, 192.1 437.9, 191.9L356.9, 159.4C356.4, 159.2 356.1, 158.7 356.2, 158.2L363, 89.8C284, 61.2 225.2, 62.3 149.2, 89.8L156, 158.2C156.1, 158.7 155.8, 159.2 155.3, 159.4L74.3, 191.9C73.8, 192.1 73.2, 191.9 72.9, 191.4L32.4, 126.4C32.1, 125.9 32.2, 125.3 32.6, 124.9C156, 1 356.1, 1.1 479.6, 124.9C480, 125.3 480.1, 126 479.8, 126.4zM460, 456L436, 456C429.4, 456 424, 461.4 424, 468L424, 492C424, 498.6 429.4, 504 436, 504L460, 504C466.6, 504 472, 498.6 472, 492L472, 468C472, 461.4 466.6, 456 460, 456zM280, 396C280, 402.6 285.4, 408 292, 408L316, 408C322.6, 408 328, 402.6 328, 396L328, 372C328, 365.4 322.6, 360 316, 360L292, 360C285.4, 360 280, 365.4 280, 372L280, 396zM424, 372C424, 365.4 418.6, 360 412, 360L388, 360C381.4, 360 376, 365.4 376, 372L376, 396C376, 402.6 381.4, 408 388, 408L412, 408C418.6, 408 424, 402.6 424, 396L424, 372zM364, 312C370.6, 312 376, 306.6 376, 300L376, 276C376, 269.4 370.6, 264 364, 264L340, 264C333.4, 264 328, 269.4 328, 276L328, 300C328, 306.6 333.4, 312 340, 312L364, 312z" fill="#727272" fill-opacity="1" class="Black" />
  </g>
</svg>