<?xml version='1.0' encoding='UTF-8'?>
<svg viewBox="-1.9999 -4.8004 32 32" xmlns="http://www.w3.org/2000/svg">
  <g transform="matrix(1.0011, 0, 0, 1.0011, 0, 0)">
    <g transform="matrix(0.0437, 0, 0, 0.0437, 0, 0)">
      <path d="M608, 0L32, 0A32 32 0 0 0 0, 32L0, 384A32 32 0 0 0 32, 416L608, 416A32 32 0 0 0 640, 384L640, 32A32 32 0 0 0 608, 0zM608, 384L32, 384L32, 32L608, 32zM536, 480L104, 480A8 8 0 0 0 96, 488L96, 504A8 8 0 0 0 104, 512L536, 512A8 8 0 0 0 544, 504L544, 488A8 8 0 0 0 536, 480zM240, 320C266.5, 320 288, 305.67 288, 288L288, 179.16L384, 141.64L384, 226A69.89 69.89 0 0 0 368, 224C341.5, 224 320, 238.33 320, 256C320, 273.67 341.5, 288 368, 288C394.5, 288 416, 273.67 416, 256L416, 112A16 16 0 0 0 395.19, 96.75L267.19, 144A16 16 0 0 0 256, 159.25L256, 258A69.89 69.89 0 0 0 240, 256C213.5, 256 192, 270.33 192, 288C192, 305.67 213.5, 320 240, 320z" fill="#727272" fill-opacity="1" class="Black" />
    </g>
  </g>
</svg>