<?xml version='1.0' encoding='UTF-8'?>
<svg viewBox="-2 -4.7992 32 32" xmlns="http://www.w3.org/2000/svg">
  <g transform="matrix(0.9988, 0, 0, 0.9988, 0, 0)">
    <g transform="matrix(0.0438, 0, 0, 0.0438, 0, 0)">
      <path d="M592, 0L48, 0A48 48 0 0 0 0, 48L0, 368A48 48 0 0 0 48, 416L304, 416L304, 480L136, 480A8 8 0 0 0 128, 488L128, 504A8 8 0 0 0 136, 512L504, 512A8 8 0 0 0 512, 504L512, 488A8 8 0 0 0 504, 480L336, 480L336, 416L592, 416A48 48 0 0 0 640, 368L640, 48A48 48 0 0 0 592, 0zM608, 368A16 16 0 0 1 592, 384L48, 384A16 16 0 0 1 32, 368L32, 48A16 16 0 0 1 48, 32L592, 32A16 16 0 0 1 608, 48z" fill="#727272" fill-opacity="1" class="Black" />
    </g>
  </g>
</svg>