<?xml version='1.0' encoding='UTF-8'?>
<svg viewBox="-1.9999 -1.9999 32 32" xmlns="http://www.w3.org/2000/svg">
  <g transform="matrix(0.0547, 0, 0, 0.0547, 0, 0)">
    <path d="M312, 384L328, 384A8 8 0 0 0 336, 376L336, 360A8 8 0 0 0 328, 352L312, 352A8 8 0 0 0 304, 360L304, 376A8 8 0 0 0 312, 384zM376, 384L392, 384A8 8 0 0 0 400, 376L400, 360A8 8 0 0 0 392, 352L376, 352A8 8 0 0 0 368, 360L368, 376A8 8 0 0 0 376, 384zM120, 384L136, 384A8 8 0 0 0 144, 376L144, 360A8 8 0 0 0 136, 352L120, 352A8 8 0 0 0 112, 360L112, 376A8 8 0 0 0 120, 384zM480, 192L448, 192L448, 109.27A32.07 32.07 0 0 0 438.62, 86.62L361.38, 9.38A32 32 0 0 0 338.75, 0L112, 0A48 48 0 0 0 64, 48L64, 192L32, 192A32 32 0 0 0 0, 224L0, 288A32 32 0 0 0 32, 320L32, 448A64 64 0 0 0 96, 512L416, 512A64 64 0 0 0 480, 448L480, 320A32 32 0 0 0 512, 288L512, 224A32 32 0 0 0 480, 192zM352, 45.25L402.75, 96L352, 96zM96, 48A16 16 0 0 1 112, 32L320, 32L320, 96A32 32 0 0 0 352, 128L416, 128L416, 192L365.25, 192A32 32 0 0 0 342.63, 201.37L329.37, 214.63A32 32 0 0 1 306.75, 224L205.25, 224A32 32 0 0 1 182.63, 214.63L169.37, 201.37A32 32 0 0 0 146.75, 192L96, 192zM448, 448A32 32 0 0 1 416, 480L96, 480A32 32 0 0 1 64, 448L64, 320L448, 320zM480, 288L32, 288L32, 224L146.75, 224L160, 237.25A63.58 63.58 0 0 0 205.25, 256L306.75, 256A63.58 63.58 0 0 0 352, 237.25L365.25, 224L480, 224zM144, 440A8 8 0 0 0 152, 448L360, 448A8 8 0 0 0 368, 440L368, 424A8 8 0 0 0 360, 416L152, 416A8 8 0 0 0 144, 424zM184, 384L200, 384A8 8 0 0 0 208, 376L208, 360A8 8 0 0 0 200, 352L184, 352A8 8 0 0 0 176, 360L176, 376A8 8 0 0 0 184, 384zM248, 384L264, 384A8 8 0 0 0 272, 376L272, 360A8 8 0 0 0 264, 352L248, 352A8 8 0 0 0 240, 360L240, 376A8 8 0 0 0 248, 384z" fill="#727272" fill-opacity="1" class="Black" />
  </g>
</svg>