<?xml version='1.0' encoding='UTF-8'?>
<svg viewBox="-2 -4.7992 32 32" xmlns="http://www.w3.org/2000/svg">
  <g transform="matrix(0.9988, 0, 0, 0.9988, 0, 0)">
    <g transform="matrix(0.0438, 0, 0, 0.0438, 0, 0)">
      <path d="M443.48, 18.08C409.77, 5.81 375.31, 0 341.41, 0C250.94, 0 164.57, 41.45 107.97, 112.33C101.27, 120.72 105.3, 133.37 115.39, 137.04L351.54, 222.99L257.99, 480L8, 480C3.58, 480 0, 483.58 0, 488L0, 504C0, 508.42 3.58, 512 8, 512L568, 512C572.42, 512 576, 508.42 576, 504L576, 488C576, 483.58 572.42, 480 568, 480L292.03, 480L381.59, 233.93L618.34, 320.1C620.17, 320.77 622.04, 321.08 623.87, 321.08C632.14, 321.08 639.69, 314.73 639.91, 305.94C642.94, 181.28 567.14, 63.09 443.48, 18.08zM148.17, 114.92C198.11, 62.64 268.77, 32 341.42, 32C349.23, 32 357.02, 32.35 364.78, 33.04C327.91, 56.2 291.02, 99.66 261.72, 156.25L148.17, 114.92zM463.38, 229.65L292.26, 167.37C332.69, 90.93 384.89, 46.1 420.4, 46.09C424.75, 46.09 428.72, 46.77 432.53, 48.15C452.09, 55.27 466.5, 83.31 471.09, 123.15C474.75, 154.98 471.62, 191.6 463.38, 229.65zM494.18, 240.86C508.01, 179.29 507.85, 122.58 494.88, 81.22C560.21, 127.3 602.46, 200.67 607.49, 282.11L494.18, 240.86z" fill="#727272" fill-opacity="1" class="Black" />
    </g>
  </g>
</svg>