<?xml version='1.0' encoding='UTF-8'?>
<svg viewBox="-2 -1.9975 32 31.9975" xmlns="http://www.w3.org/2000/svg">
  <g transform="matrix(0.9992, 0, 0, 0.9992, 0, 0)">
    <g transform="matrix(0.0556, 0, 0, 0.0556, 0, 0)">
      <path d="M256.2, 8C199.2, 8 146.7, 27.2 104.7, 59.5L54.6, 9.4C34.6, -10.7 0, 3.5 0, 32L0, 160C0, 177.7 14.3, 192 32, 192L160, 192C188.5, 192 202.7, 157.5 182.6, 137.4L129, 83.7C165.3, 56.9 209.5, 42 256, 42C374.4, 42 470, 138 470, 256C470, 374.4 374, 470 256, 470C202.3, 470 151.8, 450.2 112.9, 415.1C108.2, 410.8 100.9, 411.1 96.4, 415.6L89.3, 422.7C84.4, 427.6 84.7, 435.5 89.8, 440.1C133.8, 479.8 192.1, 504 256, 504C392.8, 504 503.7, 393.2 504, 256.5C504.3, 119.8 392.8, 8.1 256.2, 8zM160, 160L32, 160L32, 32z" fill="#727272" fill-opacity="1" class="Black" />
    </g>
  </g>
</svg>