<?xml version='1.0' encoding='UTF-8'?>
<svg viewBox="-1.9999 -4.8014 31.9975 32" xmlns="http://www.w3.org/2000/svg">
  <g transform="matrix(1.001, 0, 0, 1.001, 0, 0)">
    <g transform="matrix(0.0437, 0, 0, 0.0437, 0, 0)">
      <path d="M448, 80C439.16, 80 432, 87.16 432, 96C432, 104.84 439.16, 112 448, 112C456.84, 112 464, 104.84 464, 96C464, 87.16 456.84, 80 448, 80zM631.98, 64L535.05, 64L534.81, 63.7C540.2, 54.25 543.19, 43.38 543.19, 32C543.19, 14.33 528.86, 0 511.19, 0L400, 0C329.42, 0 272, 57.42 272, 128L163.36, 128C127.38, 128 96.09, 147.42 78.66, 176.13C35.11, 176.87 0, 212.28 0, 256L0, 312C0, 316.42 3.58, 320 8, 320L24, 320C28.42, 320 32, 316.42 32, 312L32, 256C32, 234.5 46.23, 216.52 65.71, 210.41C64.75, 215.95 64, 221.56 64, 227.37C64, 251.57 72.9, 274.7 88.53, 292.61L66.56, 366.88C63.44, 377.65 63.18, 388.91 65.76, 399.62L86.89, 487.48C90.34, 501.86 103.21, 512 118, 512L175.53, 512C196.48, 512 211.65, 492.24 206.55, 472.14L184.87, 386.57L204.16, 332.84L256, 344.36L256, 480C256, 497.67 270.33, 512 288, 512L352, 512C369.67, 512 384, 497.67 384, 480L384, 323.8C404.5, 302.3 416, 274.05 416, 244.21L416, 193.69L430.55, 215.51C449.66, 244.18 480.53, 236.18 486, 234.31L511.52, 225.6C530.96, 218.97 544.02, 200.71 544.01, 180.16L543.98, 115.33L636.44, 78.66C643.01, 74.27 639.9, 64 631.98, 64zM501.17, 195.31L475.65, 204.02C466.32, 207.21 459.51, 201.26 457.17, 197.75L432, 160L384, 144L384, 244.21C384, 270.88 371.35, 294.38 352, 309.81L352, 480L288, 480L288, 318.69L183.57, 295.48L151.45, 384.95L175.53, 480L118, 480L96.87, 392.14A31.698 31.698 0 0 1 97.24, 375.96L124.87, 282.55C107.45, 270.37 96, 250.24 96, 227.37C96, 190.16 126.16, 160 163.37, 160L304, 160L304, 128C304, 74.98 346.98, 32 400, 32L511.19, 32C511.19, 45.29 503.09, 56.66 491.56, 61.5L511.95, 86.28L512, 180.16A16 16 0 0 1 501.17, 195.31z" fill="#727272" fill-opacity="1" class="Black" />
    </g>
  </g>
</svg>