<?xml version='1.0' encoding='UTF-8'?>
<svg viewBox="-2 -1.9988 32 32" xmlns="http://www.w3.org/2000/svg">
  <g transform="matrix(0.0547, 0, 0, 0.0547, 0, 0)">
    <path d="M496, 448L480, 448L480, 408C480, 394.745 469.255, 384 456, 384L416, 384L416, 208L384, 208L384, 384L320, 384L320, 208L288, 208L288, 384L224, 384L224, 208L192, 208L192, 384L128, 384L128, 208L96, 208L96, 384L56, 384C42.745, 384 32, 394.745 32, 408L32, 448L16, 448C7.163, 448 0, 455.163 0, 464L0, 472A8 8 0 0 0 8, 480L504, 480A8 8 0 0 0 512, 472L512, 464C512, 455.163 504.837, 448 496, 448zM64, 416L448, 416L448, 448L64, 448L64, 416zM504.267, 136L271.179, 34.463A48.004 48.004 0 0 0 240.821, 34.463L7.733, 136A11.999 11.999 0 0 0 0, 147.216L0, 156C0, 162.627 5.373, 168 12, 168L32, 168L32, 180C32, 186.627 37.373, 192 44, 192L468, 192C474.627, 192 480, 186.627 480, 180L480, 168L500, 168C506.627, 168 512, 162.627 512, 156L512, 147.216C512, 142.234 508.923, 137.771 504.267, 136zM448, 160L64, 160L64, 146.394L251.943, 64.523A16.004 16.004 0 0 1 260.057, 64.523L448, 146.394L448, 160z" fill="#727272" fill-opacity="1" class="Black" />
  </g>
</svg>