<?xml version='1.0' encoding='UTF-8'?>
<svg viewBox="-2 -2 32 32" xmlns="http://www.w3.org/2000/svg">
  <g transform="matrix(0.0547, 0, 0, 0.0547, 0, 0)">
    <path d="M452, 432C452, 443 443, 452 432, 452C421, 452 412, 443 412, 432C412, 421 421, 412 432, 412C443, 412 452, 421 452, 432zM368, 412C357, 412 348, 421 348, 432C348, 443 357, 452 368, 452C379, 452 388, 443 388, 432C388, 421 379, 412 368, 412zM512, 364L512, 468C512, 492.3 492.3, 512 468, 512L44, 512C19.7, 512 0, 492.3 0, 468L0, 364C0, 339.7 19.7, 320 44, 320L168, 320L168, 220.7L115.3, 220.7C79.7, 220.7 61.9, 177.6 87, 152.4L227.7, 11.7C243.3, -3.9 268.6, -3.9 284.3, 11.7L425, 152.4C450.2, 177.6 432.3, 220.7 396.7, 220.7L344, 220.7L344, 320L468, 320C492.3, 320 512, 339.7 512, 364zM200, 188.7L200, 376C200, 380.4 203.6, 384 208, 384L304, 384C308.4, 384 312, 380.4 312, 376L312, 188.7L396.7, 188.7C403.8, 188.7 407.4, 180.1 402.4, 175L261.7, 34.3C258.6, 31.2 253.5, 31.2 250.4, 34.3L109.7, 175C104.7, 180 108.2, 188.7 115.4, 188.7L200, 188.7zM480, 364C480, 357.4 474.6, 352 468, 352L344, 352L344, 376C344, 398.1 326.1, 416 304, 416L208, 416C185.9, 416 168, 398.1 168, 376L168, 352L44, 352C37.4, 352 32, 357.4 32, 364L32, 468C32, 474.6 37.4, 480 44, 480L468, 480C474.6, 480 480, 474.6 480, 468L480, 364z" fill="#727272" fill-opacity="1" class="Black" />
  </g>
</svg>