<?xml version='1.0' encoding='UTF-8'?>
<svg viewBox="-2 -4.7992 32 32" xmlns="http://www.w3.org/2000/svg">
  <g transform="matrix(0.9988, 0, 0, 0.9988, 0, 0)">
    <g transform="matrix(0.0438, 0, 0, 0.0438, 0, 0)">
      <path d="M536, 240L552, 240A16 16 0 0 0 568, 224L568, 208A16 16 0 0 0 552, 192L536, 192A16 16 0 0 0 520, 208L520, 224A16 16 0 0 0 536, 240zM536, 320L552, 320A16 16 0 0 0 568, 304L568, 288A16 16 0 0 0 552, 272L536, 272A16 16 0 0 0 520, 288L520, 304A16 16 0 0 0 536, 320zM624, 128L480, 128L480, 112A16 16 0 0 0 464, 96L64, 96A64 64 0 0 0 0, 160L0, 352A64 64 0 0 0 64, 416L464, 416A16 16 0 0 0 480, 400L480, 384L624, 384A16 16 0 0 0 640, 368L640, 144A16 16 0 0 0 624, 128zM448, 384L64, 384A32 32 0 0 1 32, 352L32, 160A32 32 0 0 1 64, 128L448, 128zM608, 352L480, 352L480, 160L608, 160z" fill="#727272" fill-opacity="1" class="Black" />
    </g>
  </g>
</svg>