<?xml version='1.0' encoding='UTF-8'?>
<svg viewBox="-2 -4.7992 32 32" xmlns="http://www.w3.org/2000/svg">
  <g transform="matrix(0.9988, 0, 0, 0.9988, 0, 0)">
    <g transform="matrix(0.0438, 0, 0, 0.0438, 0, 0)">
      <path d="M224, 256C294.7, 256 352, 198.7 352, 128C352, 57.3 294.7, 0 224, 0C153.3, 0 96, 57.3 96, 128C96, 198.7 153.3, 256 224, 256zM224, 32C276.9, 32 320, 75.1 320, 128C320, 180.9 276.9, 224 224, 224C171.1, 224 128, 180.9 128, 128C128, 75.1 171.1, 32 224, 32zM632, 224L424, 224C419.6, 224 416, 227.6 416, 232L416, 248C416, 252.4 419.6, 256 424, 256L632, 256C636.4, 256 640, 252.4 640, 248L640, 232C640, 227.6 636.4, 224 632, 224zM313.6, 288C284.9, 288 271.1, 304 224, 304C176.9, 304 163.2, 288 134.4, 288C60.2, 288 0, 348.2 0, 422.4L0, 464C0, 490.5 21.5, 512 48, 512L400, 512C426.5, 512 448, 490.5 448, 464L448, 422.4C448, 348.2 387.8, 288 313.6, 288zM416, 464C416, 472.8 408.8, 480 400, 480L48, 480C39.2, 480 32, 472.8 32, 464L32, 422.4C32, 365.9 77.9, 320 134.4, 320C154, 320 173.5, 336 224, 336C274.4, 336 294, 320 313.6, 320C370.1, 320 416, 365.9 416, 422.4L416, 464z" fill="#727272" fill-opacity="1" class="Black" />
    </g>
  </g>
</svg>