<?xml version='1.0' encoding='UTF-8'?>
<svg viewBox="-2 -4.7992 32 32" xmlns="http://www.w3.org/2000/svg">
  <g transform="matrix(0.9988, 0, 0, 0.9988, 0, 0)">
    <g transform="matrix(0.0438, 0, 0, 0.0438, 0, 0)">
      <path d="M480, 256C533, 256 576, 213 576, 160C576, 107 533, 64 480, 64C427, 64 384, 107 384, 160C384, 213 427, 256 480, 256zM480, 96C515.3, 96 544, 124.7 544, 160C544, 195.3 515.3, 224 480, 224C444.7, 224 416, 195.3 416, 160C416, 124.7 444.7, 96 480, 96zM192, 256C253.9, 256 304, 205.9 304, 144C304, 82.1 253.9, 32 192, 32C130.1, 32 80, 82.1 80, 144C80, 205.9 130.1, 256 192, 256zM192, 64C236.1, 64 272, 99.9 272, 144C272, 188.1 236.1, 224 192, 224C147.9, 224 112, 188.1 112, 144C112, 99.9 147.9, 64 192, 64zM272.1, 276C238.7, 276 230.4, 288 192, 288C153.6, 288 145.3, 276 111.9, 276C75.6, 276 40.3, 292.2 19.6, 322.9C7.2, 341.3 0, 363.4 0, 387.2L0, 432C0, 458.5 21.5, 480 48, 480L336, 480C362.5, 480 384, 458.5 384, 432L384, 387.2C384, 363.4 376.8, 341.3 364.4, 322.9C343.7, 292.2 308.4, 276 272.1, 276zM352, 432C352, 440.8 344.8, 448 336, 448L48, 448C39.2, 448 32, 440.8 32, 432L32, 387.2C32, 370.6 36.9, 354.5 46.1, 340.8C59.9, 320.3 84.5, 308 111.8, 308C139.2, 308 149, 320 192, 320C235, 320 244.8, 308 272.1, 308C299.4, 308 324, 320.3 337.8, 340.8C347, 354.5 351.9, 370.6 351.9, 387.2L351.9, 432zM623.7, 317.1C606.4, 291.5 577, 278 546.8, 278C519, 278 512, 288 480, 288C448, 288 441, 278 413.2, 278C400, 278 387.1, 281 375.1, 286.1C390.3, 301.5 393.6, 309.7 395.3, 312.7C401, 311.1 406.9, 310.1 413.2, 310.1C435, 310.1 443.2, 320.1 480, 320.1C516.8, 320.1 525, 310.1 546.8, 310.1C567.8, 310.1 586.6, 319.4 597.2, 335.1C604.3, 345.6 608.1, 358 608.1, 370.8L608.1, 408C608.1, 412.4 604.5, 416 600.1, 416L416, 416C416, 433.7 416.3, 438.5 414.4, 448L600, 448C622.1, 448 640, 430.1 640, 408L640, 370.7C640, 350.8 634, 332.4 623.7, 317.1z" fill="#727272" fill-opacity="1" class="Black" />
    </g>
  </g>
</svg>