<?xml version='1.0' encoding='UTF-8'?>
<svg viewBox="-1.9998 -4.8002 31.9975 32" xmlns="http://www.w3.org/2000/svg">
  <g transform="matrix(0.9988, 0, 0, 0.9988, 0, 0)">
    <g transform="matrix(0.0438, 0, 0, 0.0438, 0, 0)">
      <path d="M608, 0L192, 0C174.33, 0 160, 14.33 160, 32L160, 128C106.98, 128 64, 170.98 64, 224C64, 277.02 106.98, 320 160, 320C213.02, 320 256, 277.02 256, 224C256, 182.26 229.2, 147.1 192, 133.88L192, 32L608, 32L608, 384L305.34, 384C304.75, 383.06 304.31, 382.04 303.69, 381.12C286.44, 355.5 257.02, 342.01 226.79, 342.01C199, 342.02 192.02, 352 160, 352C128.03, 352 121.05, 342.02 93.21, 342.02C62.98, 342.02 33.56, 355.5 16.31, 381.13C6.01, 396.42 0, 414.84 0, 434.67L0, 472C0, 494.09 17.91, 512 40, 512L280, 512C302.09, 512 320, 494.09 320, 472L320, 434.67C320, 428.26 319.16, 422.07 317.96, 416L608, 416C625.67, 416 640, 401.67 640, 384L640, 32C640, 14.33 625.67, 0 608, 0zM224, 224C224, 259.29 195.29, 288 160, 288C124.71, 288 96, 259.29 96, 224C96, 188.71 124.71, 160 160, 160C195.29, 160 224, 188.71 224, 224zM288, 472C288, 476.41 284.41, 480 280, 480L40, 480C35.59, 480 32, 476.41 32, 472L32, 434.67C32, 421.88 35.75, 409.54 42.85, 399C53.38, 383.36 72.2, 374.02 93.21, 374.02C115.01, 374.02 123.2, 384 160, 384C196.79, 384 205.01, 374.02 226.79, 374.02C247.79, 374.02 266.62, 383.36 277.15, 399C284.25, 409.54 288, 421.88 288, 434.67L288, 472zM338.62, 152.69C329.24, 143.31 314.06, 143.31 304.68, 152.69L279.19, 178.18C283.75, 189.9 286.49, 202.35 287.4, 215.22L321.65, 180.97L384.69, 244C389.38, 248.69 395.5, 251.02 401.66, 251.02C407.82, 251.02 413.94, 248.69 418.63, 244L477.6, 185.03L510.84, 218.27C514.8, 222.23 519.66, 224 524.44, 224C534.43, 224 544.01, 216.24 544.01, 204.53L544.01, 108.95C544.01, 101.8 538.21, 96 531.06, 96L435.48, 96C418.17, 96 409.5, 116.93 421.74, 129.17L454.98, 162.41L401.67, 215.72L338.62, 152.69zM512, 128L512, 174.18L465.82, 128L512, 128z" fill="#727272" fill-opacity="1" class="Black" />
    </g>
  </g>
</svg>