<?xml version='1.0' encoding='UTF-8'?>
<svg viewBox="-2 -4.7992 32 32" xmlns="http://www.w3.org/2000/svg">
  <g transform="matrix(0.9988, 0, 0, 0.9988, 0, 0)">
    <g transform="matrix(0.0438, 0, 0, 0.0438, 0, 0)">
      <path d="M287.4, 250.6C290.3, 240.2 293.9, 230.2 298.3, 220.6C264.7, 211.1 239.9, 180.5 239.9, 143.9C239.9, 99.8 275.8, 63.9 319.9, 63.9C356.5, 63.9 387, 88.7 396.6, 122.3C406.2, 117.9 416.2, 114.2 426.6, 111.4C412.6, 65.6 370.4, 32 320, 32C258.1, 32 208, 82.1 208, 144C208, 194.4 241.6, 236.6 287.4, 250.6zM96, 224C140.2, 224 176, 188.2 176, 144C176, 99.8 140.2, 64 96, 64C51.8, 64 16, 99.8 16, 144C16, 188.2 51.8, 224 96, 224zM96, 96C122.5, 96 144, 117.5 144, 144C144, 170.5 122.5, 192 96, 192C69.5, 192 48, 170.5 48, 144C48, 117.5 69.5, 96 96, 96zM157.1, 268.9C145.2, 260.8 131.1, 256 116, 256L76, 256C34.1, 256 0, 291.9 0, 336C0, 344.8 7.2, 352 16, 352C24.8, 352 32, 344.8 32, 336C32, 309.5 51.8, 288 76, 288L116, 288C121.5, 288 126.8, 289.2 131.7, 291.3C139.2, 282.8 147.8, 275.3 157.1, 268.9zM176, 448C167.2, 448 160, 440.8 160, 432L160, 387.2C160, 370.6 164.9, 354.5 174.1, 340.8C187.9, 320.3 212.5, 308 239.8, 308C254.1, 308 258.6, 310.4 280.5, 315.2C280.3, 311.4 279.1, 301.8 281.1, 282.6C264.8, 278.3 254.7, 276 239.8, 276C203.5, 276 168.2, 292.2 147.5, 322.9C135.1, 341.3 127.9, 363.4 127.9, 387.2L127.9, 432C127.9, 458.5 149.4, 480 175.9, 480L384.9, 480C368.9, 471.4 354.3, 460.5 341.4, 448L176, 448zM480, 239.5C444.4, 239.5 415.5, 268.5 415.5, 304C415.5, 339.5 444.4, 368.5 480, 368.5C515.6, 368.5 544.5, 339.5 544.5, 304C544.5, 268.5 515.6, 239.5 480, 239.5zM480, 336.5C462.1, 336.5 447.5, 321.9 447.5, 304C447.5, 286.1 462.1, 271.5 480, 271.5C497.9, 271.5 512.5, 286.1 512.5, 304C512.5, 321.9 497.9, 336.5 480, 336.5zM628.3, 326.3L611.8, 316.8C612.6, 308.3 612.6, 299.7 611.8, 291.2L628.4, 281.7C637.9, 276.2 642.2, 265 638.9, 254.7C631.7, 231.3 619, 209.3 602.2, 191.2C594.8, 183.1 582.9, 181.3 573.4, 186.8L556.9, 196.3C549.9, 191.3 542.5, 187 534.7, 183.5L534.7, 164.5C534.7, 153.5 527.2, 144.2 516.5, 141.8C492.6, 136.4 467.2, 136.4 443.2, 141.8C432.5, 144.2 425, 153.6 425, 164.5L425, 183.5C417.2, 187 409.7, 191.3 402.8, 196.3L386.3, 186.8C376.8, 181.3 365, 183.1 357.6, 191.2C340.8, 209.3 328.2, 231.3 320.9, 254.6C317.6, 265 322.1, 276.4 331.5, 281.8L348, 291.3C347.2, 299.8 347.2, 308.4 348, 316.9L331.4, 326.4C322.1, 331.8 317.6, 343.3 320.9, 353.5C328.2, 376.9 340.8, 398.9 357.6, 417C365, 425 376.8, 426.8 386.4, 421.4L402.9, 411.9C409.9, 416.9 417.3, 421.2 425.1, 424.7L425.1, 443.7C425.1, 454.7 432.6, 464 443.3, 466.4C455.3, 469.1 467.6, 470.4 479.9, 470.4C492.2, 470.4 504.6, 469.1 516.5, 466.4C527.2, 464 534.7, 454.6 534.7, 443.7L534.7, 424.7C542.5, 421.2 549.9, 416.9 556.9, 411.9L573.4, 421.4C582.8, 426.8 594.7, 425 602.1, 417C618.9, 398.9 631.5, 376.9 638.8, 353.6C642.2, 343.2 637.7, 331.7 628.3, 326.3zM576.7, 333.5L606.1, 350.5C600.8, 364.8 593.1, 378.3 583.3, 390L553.9, 373C532.5, 391.3 529.4, 393.1 502.8, 402.5L502.8, 436.5C487.7, 439.1 472.2, 439.1 457.2, 436.5L457.2, 402.5C430.3, 393 427, 390.8 406.1, 373L376.7, 390C366.9, 378.2 359.1, 364.8 353.9, 350.5L383.3, 333.5C378.4, 306.7 378.1, 302.9 383.3, 274.5L353.9, 257.5C359.1, 243.2 366.9, 229.8 376.7, 218L406.1, 235C427.5, 216.7 430.6, 214.9 457.2, 205.5L457.2, 171.5C472.3, 169 487.9, 169 502.8, 171.5L502.8, 205.5C529.6, 215 533, 217.1 553.9, 235L583.3, 218C593.1, 229.8 600.9, 243.2 606.1, 257.5L576.7, 274.5C581.6, 301.3 581.9, 305.1 576.7, 333.5z" fill="#727272" fill-opacity="1" class="Black" />
    </g>
  </g>
</svg>