<?xml version='1.0' encoding='UTF-8'?>
<svg viewBox="-1.995 -4.7962 32 32" xmlns="http://www.w3.org/2000/svg">
  <g transform="matrix(0.9991, 0, 0, 0.9991, 0, 0)">
    <g transform="matrix(0.0438, 0, 0, 0.0438, 0, 0)">
      <path d="M637, 485.2L23, 1.8C19.6, -1 14.5, -0.4 11.8, 3L1.8, 15.5C-1, 19 -0.4, 24 3, 26.8L617, 510.3C620.4, 513.1 625.5, 512.5 628.2, 509.1L638.2, 496.6C641, 493 640.4, 488 637, 485.2zM320, 32C381.8, 32 432, 82.2 432, 144C432, 178.8 415.7, 209.6 390.7, 230.2L416.3, 250.4C445.4, 224 464, 186.3 464, 144C464, 64.5 399.5, 0 320, 0C265.4, 0 218.6, 30.7 194.1, 75.4L219.5, 95.4C237.7, 58 275.7, 32 320, 32zM96, 480L96, 448C96, 395.1 139.1, 352 192, 352L228.8, 352C251.2, 352 269.1, 368 320, 368C331.7, 368 343.3, 366.9 354.8, 364.9L317.9, 335.8C271.7, 335.2 258.6, 320 228.7, 320L192, 320C121.3, 320 64, 377.3 64, 448L64, 480C64, 497.7 78.3, 512 96, 512L541.6, 512L501, 480L96, 480z" fill="#727272" fill-opacity="1" class="Black" />
    </g>
  </g>
</svg>