<?xml version='1.0' encoding='UTF-8'?>
<svg viewBox="-2 -4.7992 32 32" xmlns="http://www.w3.org/2000/svg">
  <g transform="matrix(0.9988, 0, 0, 0.9988, 0, 0)">
    <g transform="matrix(0.0438, 0, 0, 0.0438, 0, 0)">
      <path d="M564, 288L524, 288C508.82, 288 494.73, 292.83 482.85, 300.93C492.23, 307.3 500.78, 314.8 508.3, 323.3C513.19, 321.25 518.45, 320 524, 320L564, 320C588.25, 320 608, 341.53 608, 368C608, 376.84 615.16, 384 624, 384C632.84, 384 640, 376.84 640, 368C640, 323.89 605.91, 288 564, 288zM544, 256C588.18, 256 624, 220.18 624, 176C624, 131.82 588.18, 96 544, 96C499.82, 96 464, 131.82 464, 176C464, 220.18 499.82, 256 544, 256zM544, 128C570.47, 128 592, 149.53 592, 176C592, 202.47 570.47, 224 544, 224C517.53, 224 496, 202.47 496, 176C496, 149.53 517.53, 128 544, 128zM400.15, 308.02C388.27, 308.02 376.28, 309.75 364.66, 313.28C350.5, 317.58 335.56, 320 320, 320C304.44, 320 289.5, 317.58 275.34, 313.29A122.209 122.209 0 0 0 239.85, 308.03C203.56, 308.03 168.27, 324.21 147.57, 354.96C135.21, 373.3 128, 395.41 128, 419.2L128, 432C128, 458.51 149.49, 480 176, 480L464, 480C490.51, 480 512, 458.51 512, 432L512, 419.2C512, 395.41 504.79, 373.3 492.43, 354.95C471.73, 324.2 436.43, 308.02 400.15, 308.02zM480, 432C480, 440.82 472.82, 448 464, 448L176, 448C167.18, 448 160, 440.82 160, 432L160, 419.2C160, 402.57 164.88, 386.53 174.11, 372.82C187.94, 352.28 212.51, 340.02 239.85, 340.02C248.75, 340.02 257.56, 341.33 266.04, 343.9C283.73, 349.27 301.88, 352 320, 352C338.12, 352 356.27, 349.28 373.96, 343.9A89.887 89.887 0 0 1 400.15, 340.02C427.49, 340.02 452.06, 352.28 465.89, 372.82C475.12, 386.53 480, 402.57 480, 419.2L480, 432zM96, 256C140.18, 256 176, 220.18 176, 176C176, 131.82 140.18, 96 96, 96C51.82, 96 16, 131.82 16, 176C16, 220.18 51.82, 256 96, 256zM96, 128C122.47, 128 144, 149.53 144, 176C144, 202.47 122.47, 224 96, 224C69.53, 224 48, 202.47 48, 176C48, 149.53 69.53, 128 96, 128zM157.15, 300.93C145.27, 292.83 131.18, 288 116, 288L76, 288C34.09, 288 0, 323.89 0, 368C0, 376.84 7.16, 384 16, 384C24.84, 384 32, 376.84 32, 368C32, 341.53 51.75, 320 76, 320L116, 320C121.55, 320 126.81, 321.25 131.7, 323.3C139.22, 314.8 147.77, 307.3 157.15, 300.93zM320, 288C381.86, 288 432, 237.86 432, 176L432, 32L376, 60L320, 32L264, 60L208, 32L208, 176C208, 237.86 258.14, 288 320, 288zM240, 83.78L264, 95.78L320, 67.78L376, 95.78L400, 83.78L400, 128L240, 128L240, 83.78zM240, 160L400, 160L400, 176C400, 220.11 364.11, 256 320, 256C275.89, 256 240, 220.11 240, 176L240, 160z" fill="#727272" fill-opacity="1" class="Black" />
    </g>
  </g>
</svg>