<?xml version='1.0' encoding='UTF-8'?>
<svg viewBox="-2 -4.7992 32 32" xmlns="http://www.w3.org/2000/svg">
  <g transform="matrix(0.9988, 0, 0, 0.9988, 0, 0)">
    <g transform="matrix(0.0438, 0, 0, 0.0438, 0, 0)">
      <path d="M512, 224A128 128 0 1 0 640, 352A128 128 0 0 0 512, 224zM512, 448A96 96 0 1 1 608, 352A96 96 0 0 1 512, 448zM570.67, 330.67L533.33, 330.67L533.33, 293.33A5.33 5.33 0 0 0 528, 288L496, 288A5.33 5.33 0 0 0 490.67, 293.33L490.67, 330.67L453.33, 330.67A5.33 5.33 0 0 0 448, 336L448, 368A5.33 5.33 0 0 0 453.33, 373.33L490.67, 373.33L490.67, 410.67A5.33 5.33 0 0 0 496, 416L528, 416A5.33 5.33 0 0 0 533.33, 410.67L533.33, 373.33L570.67, 373.33A5.33 5.33 0 0 0 576, 368L576, 336A5.33 5.33 0 0 0 570.67, 330.67zM320, 256A112 112 0 1 0 208, 144A111.94 111.94 0 0 0 320, 256zM320, 64A80 80 0 1 1 240, 144A80.11 80.11 0 0 1 320, 64zM96, 224A80 80 0 1 0 16, 144A80 80 0 0 0 96, 224zM96, 96A48 48 0 1 1 48, 144A48 48 0 0 1 96, 96zM384.81, 448L176, 448A16 16 0 0 1 160, 432L160, 387.2A83.08 83.08 0 0 1 174.1, 340.8C187.9, 320.3 212.5, 308 239.8, 308C267.1, 308 277, 320 320, 320A164.08 164.08 0 0 0 356.33, 316.34A157.66 157.66 0 0 1 370, 279.85C356.13, 283.36 343.89, 288 320, 288C281.6, 288 273.3, 276 239.9, 276C203.6, 276 168.3, 292.2 147.6, 322.9A114.59 114.59 0 0 0 128, 387.2L128, 432A48 48 0 0 0 176, 480L417, 480A161 161 0 0 1 384.81, 448zM157.1, 268.9A72.83 72.83 0 0 0 116, 256L76, 256C34.1, 256 0, 291.9 0, 336A16 16 0 0 0 32, 336C32, 309.5 51.8, 288 76, 288L116, 288A39.79 39.79 0 0 1 131.7, 291.3A138.76 138.76 0 0 1 157.1, 268.9z" fill="#727272" fill-opacity="1" class="Black" />
    </g>
  </g>
</svg>