<?xml version='1.0' encoding='UTF-8'?>
<svg viewBox="-3.7495 -2 32 32" xmlns="http://www.w3.org/2000/svg">
  <g transform="matrix(0.0547, 0, 0, 0.0547, 0, 0)">
    <path d="M383.9, 308.3L407.8, 245.7C411.8, 235.2 404.1, 224 392.8, 224L349.6, 224C351.1, 216.2 352, 208.2 352, 200C352, 192.8 351.1, 185.8 349.8, 178.9C390.3, 169.1 416, 154.7 416, 138.7C416, 122.2 389, 107.5 346.7, 97.7C337.8, 64.1 319.3, 29.8 305.4, 12.3C299.1, 4.3 289.7, 0 280.1, 0C270.6, 0 267.8, 2.4 238.3, 17.2C225.5, 23.6 214, 19.3 209.7, 17.2C179.9, 2.3 177.3, 0 167.9, 0C158.3, 0 149, 4.3 142.7, 12.2C128.8, 29.7 110.3, 64 101.4, 97.6C59, 107.4 32, 122.2 32, 138.7C32, 154.8 57.7, 169.2 98.2, 178.9C96.9, 185.8 96, 192.8 96, 200C96, 208.2 96.9, 216.2 98.4, 224L56.3, 224C44.8, 224 37.1, 235.7 41.6, 246.3L67.4, 306.5C27.3, 329.8 0, 372.7 0, 422.4L0, 467.2C0, 491.9 20.1, 512 44.8, 512L403.2, 512C427.9, 512 448, 491.9 448, 467.2L448, 422.4C448, 374 422.2, 332 383.9, 308.3zM128, 200C128, 197.3 128.3, 194.7 128.6, 192.1C129.9, 192.9 133.7, 195.4 134.4, 197.5C138.3, 209.4 141.4, 222.1 150.9, 230.9C158.9, 238.3 197.9, 256 214.9, 205.9C217.7, 197.5 230.3, 197.5 233.2, 205.9C249.2, 253.3 287.1, 240.3 297.2, 230.9C306.7, 222.1 309.9, 209.4 313.7, 197.5C314.4, 195.4 318.1, 192.9 319.5, 192.1C319.8, 194.7 320.1, 197.3 320.1, 200C320.1, 252.9 277, 296 224.1, 296C171.2, 296 128, 252.9 128, 200zM127.3, 124.5C128, 121.8 139.6, 67.5 167.8, 32C196.5, 46.4 205.5, 52.5 224, 52.5C242.6, 52.5 251.7, 46.2 280.2, 32L280.3, 32.1C308.4, 67.5 320, 121.7 320.7, 124.5C342.1, 129.4 356.5, 132.4 371.7, 138.7C347.4, 148.6 296.3, 160 224, 160C151.7, 160 100.6, 148.6 76.3, 138.7C91.5, 132.4 106.2, 129.4 127.3, 124.5zM44.8, 480C37.7, 480 32, 474.3 32, 467.2L32, 422.4C32, 385.9 51.2, 352.9 83.4, 334.2L108, 320L80.6, 256L109.5, 256C114.2, 265.6 173.8, 364.5 173.8, 364.5L142.9, 480L44.8, 480zM176, 480L208, 360L186.1, 321.6C198.2, 325.4 210.7, 328 224, 328C237.3, 328 249.9, 325.4 261.9, 321.6L240, 360L272, 480L176, 480zM416, 467.2C416, 474.3 410.3, 480 403.2, 480L305.1, 480L274.3, 364.5C274.3, 364.5 333.9, 265.6 338.6, 256L369.6, 256L344.6, 321.6L367.1, 335.5C397.7, 354.4 416, 386.9 416, 422.4L416, 467.2z" fill="#727272" fill-opacity="1" class="Black" />
  </g>
</svg>