<?xml version='1.0' encoding='UTF-8'?>
<svg viewBox="-2 -4.7992 32 32" xmlns="http://www.w3.org/2000/svg">
  <g transform="matrix(0.9988, 0, 0, 0.9988, 0, 0)">
    <g transform="matrix(0.0438, 0, 0, 0.0438, 0, 0)">
      <path d="M48, 480A16 16 0 0 1 32, 464L32, 422.4A102.47 102.47 0 0 1 134.4, 320C154, 320 173.5, 336 224, 336C274.5, 336 294, 320 313.6, 320C316.3, 320 318.9, 320.6 321.5, 320.8A79.45 79.45 0 0 1 334.6, 290.1A132.34 132.34 0 0 0 313.5, 288C284.8, 288 271, 304 223.9, 304C176.8, 304 163.1, 288 134.3, 288C60.2, 288 0, 348.2 0, 422.4L0, 464A48 48 0 0 0 48, 512L336.4, 512A78.34 78.34 0 0 1 321.6, 480zM224, 256A128 128 0 1 0 96, 128A128 128 0 0 0 224, 256zM224, 32A96 96 0 1 1 128, 128A96.15 96.15 0 0 1 224, 32zM496, 368A32 32 0 1 0 528, 400A32 32 0 0 0 496, 368zM592, 288L576, 288L576, 240A80 80 0 0 0 416, 240L416, 288L400, 288A48 48 0 0 0 352, 336L352, 464A48 48 0 0 0 400, 512L592, 512A48 48 0 0 0 640, 464L640, 336A48 48 0 0 0 592, 288zM448, 240A48 48 0 0 1 544, 240L544, 288L448, 288zM608, 464A16 16 0 0 1 592, 480L400, 480A16 16 0 0 1 384, 464L384, 336A16 16 0 0 1 400, 320L592, 320A16 16 0 0 1 608, 336z" fill="#727272" fill-opacity="1" class="Black" />
    </g>
  </g>
</svg>