<?xml version='1.0' encoding='UTF-8'?>
<svg viewBox="-2 -4.7992 32 32" xmlns="http://www.w3.org/2000/svg">
  <g transform="matrix(0.9988, 0, 0, 0.9988, 0, 0)">
    <g transform="matrix(0.0438, 0, 0, 0.0438, 0, 0)">
      <path d="M598, 97.64L501.44, 129.52C488.72, 133.73 480, 146 480, 160L480, 376.13C459.66, 361.28 431.38, 352 400, 352C338.14, 352 288, 387.82 288, 432C288, 476.18 338.14, 512 400, 512C461.86, 512 512, 476.18 512, 432L512, 288L618.12, 252.63A32 32 0 0 0 640, 222.27L640, 128A32 32 0 0 0 598, 97.64zM400, 480C352.86, 480 320, 454.7 320, 432C320, 409.3 352.86, 384 400, 384C447.14, 384 480, 409.3 480, 432C480, 454.7 447.14, 480 400, 480zM608, 222.28L512, 254.28L512, 160L511.44, 160L511.44, 159.87L608, 128zM269.91, 480L48, 480A16 16 0 0 1 32, 464L32, 422.41A102.49 102.49 0 0 1 134.41, 320C154, 320 173.5, 336 224, 336C274.5, 336 294, 320 313.59, 320A101.48 101.48 0 0 1 350.23, 327.06A184.33 184.33 0 0 1 399.72, 320.06C376.34, 300.37 346.55, 288.06 313.59, 288.06C284.91, 288.06 271.09, 304.06 224, 304.06C176.91, 304.06 163.19, 288.06 134.41, 288.06A134.43 134.43 0 0 0 0, 422.41L0, 464A48 48 0 0 0 48, 512L298.42, 512A113.81 113.81 0 0 1 269.91, 480zM224, 256A128 128 0 1 0 96, 128A128 128 0 0 0 224, 256zM224, 32A96 96 0 1 1 128, 128A96.14 96.14 0 0 1 224, 32z" fill="#727272" fill-opacity="1" class="Black" />
    </g>
  </g>
</svg>