<?xml version='1.0' encoding='UTF-8'?>
<svg viewBox="-2 -4.7992 32 32" xmlns="http://www.w3.org/2000/svg">
  <g transform="matrix(0.9988, 0, 0, 0.9988, 0, 0)">
    <g transform="matrix(0.0438, 0, 0, 0.0438, 0, 0)">
      <path d="M544, 224C588.2, 224 624, 188.2 624, 144C624, 99.8 588.2, 64 544, 64C499.8, 64 464, 99.8 464, 144C464, 188.2 499.8, 224 544, 224zM544, 96C570.5, 96 592, 117.5 592, 144C592, 170.5 570.5, 192 544, 192C517.5, 192 496, 170.5 496, 144C496, 117.5 517.5, 96 544, 96zM320, 256C381.9, 256 432, 205.9 432, 144C432, 82.1 381.9, 32 320, 32C258.1, 32 208, 82.1 208, 144C208, 205.9 258.1, 256 320, 256zM320, 64C364.1, 64 400, 99.9 400, 144C400, 188.1 364.1, 224 320, 224C275.9, 224 240, 188.1 240, 144C240, 99.9 275.9, 64 320, 64zM564, 256L524, 256C508.8, 256 494.7, 260.8 482.9, 268.9C492.3, 275.3 500.8, 282.8 508.3, 291.3C513.2, 289.2 518.5, 288 524, 288L564, 288C588.2, 288 608, 309.5 608, 336C608, 344.8 615.2, 352 624, 352C632.8, 352 640, 344.8 640, 336C640, 291.9 605.9, 256 564, 256zM96, 224C140.2, 224 176, 188.2 176, 144C176, 99.8 140.2, 64 96, 64C51.8, 64 16, 99.8 16, 144C16, 188.2 51.8, 224 96, 224zM96, 96C122.5, 96 144, 117.5 144, 144C144, 170.5 122.5, 192 96, 192C69.5, 192 48, 170.5 48, 144C48, 117.5 69.5, 96 96, 96zM400.1, 276C366.7, 276 358.4, 288 320, 288C281.6, 288 273.3, 276 239.9, 276C203.6, 276 168.3, 292.2 147.6, 322.9C135.2, 341.3 128, 363.4 128, 387.2L128, 432C128, 458.5 149.5, 480 176, 480L464, 480C490.5, 480 512, 458.5 512, 432L512, 387.2C512, 363.4 504.8, 341.3 492.4, 322.9C471.7, 292.2 436.4, 276 400.1, 276zM480, 432C480, 440.8 472.8, 448 464, 448L176, 448C167.2, 448 160, 440.8 160, 432L160, 387.2C160, 370.6 164.9, 354.5 174.1, 340.8C187.9, 320.3 212.5, 308 239.8, 308C267.2, 308 277, 320 320, 320C363, 320 372.8, 308 400.1, 308C427.4, 308 452, 320.3 465.8, 340.8C475, 354.5 479.9, 370.6 479.9, 387.2L479.9, 432zM157.1, 268.9C145.2, 260.8 131.1, 256 116, 256L76, 256C34.1, 256 0, 291.9 0, 336C0, 344.8 7.2, 352 16, 352C24.8, 352 32, 344.8 32, 336C32, 309.5 51.8, 288 76, 288L116, 288C121.5, 288 126.8, 289.2 131.7, 291.3C139.2, 282.8 147.8, 275.3 157.1, 268.9z" fill="#727272" fill-opacity="1" class="Black" />
    </g>
  </g>
</svg>