<?xml version='1.0' encoding='UTF-8'?>
<svg viewBox="-3.7505 -1.9998 32 31.9975" xmlns="http://www.w3.org/2000/svg">
  <g transform="matrix(0.0547, 0, 0, 0.0547, 0, 0)">
    <path d="M320, 352L315.3, 352C303.14, 352 291.3, 354.9 279.8, 358.8A173.76 173.76 0 0 1 168.16, 358.8C156.68, 354.9 144.87, 352.02 132.74, 352.02L128, 352.02A128 128 0 0 0 0, 480A32 32 0 0 0 32, 512L416, 512A32 32 0 0 0 448, 480A128 128 0 0 0 320, 352zM32, 480A96.1 96.1 0 0 1 128, 384L132.74, 384C139.66, 384 147.66, 385.62 157.9, 389.09A205.75 205.75 0 0 0 290.06, 389.09C300.37, 385.6 308.39, 383.98 315.3, 383.98L320, 383.98A96.1 96.1 0 0 1 416, 479.98zM48, 224A16 16 0 0 0 64, 208L64, 192C64, 103.78 135.78, 32 224, 32C312.22, 32 384, 103.78 384, 192L384, 208A80.09 80.09 0 0 1 304, 288L272, 288A32 32 0 0 0 240, 256L208, 256A32 32 0 0 0 208, 320L304, 320A112.14 112.14 0 0 0 416, 208L416, 192C416, 86.12 329.88, 0 224, 0C118.12, 0 32, 86.12 32, 192L32, 208A16 16 0 0 0 48, 224zM224, 96A95.57 95.57 0 0 1 295.23, 255.76C295.23, 255.85 295.36, 255.91 295.41, 256L304, 256A47.89 47.89 0 0 0 344.55, 233.42C349, 220.36 352, 206.58 352, 192A128 128 0 0 0 96, 192C96, 232.42 115.1, 268 144.35, 291.47C144.29, 290.3 144, 289.19 144, 288A63.25 63.25 0 0 1 152.93, 256A95.58 95.58 0 0 1 224, 96z" fill="#727272" fill-opacity="1" class="Black" />
  </g>
</svg>