<?xml version='1.0' encoding='UTF-8'?>
<svg viewBox="-3.7558 -2 32 32" xmlns="http://www.w3.org/2000/svg">
  <g transform="matrix(0.0547, 0, 0, 0.0547, 0, 0)">
    <path d="M224, 256C294.7, 256 352, 198.7 352, 128C352, 57.3 294.7, 0 224, 0C153.3, 0 96, 57.3 96, 128C96, 198.7 153.3, 256 224, 256zM224, 32C276.9, 32 320, 75.1 320, 128C320, 180.9 276.9, 224 224, 224C171.1, 224 128, 180.9 128, 128C128, 75.1 171.1, 32 224, 32zM317.7, 288.1C283.9, 287.1 273.4, 304 224, 304C174.7, 304 164.2, 287.1 130.4, 288.1C58, 290.2 0, 349.5 0, 422.4L0, 504C0, 508.4 3.6, 512 8, 512L24, 512C28.4, 512 32, 508.4 32, 504L32, 422.4C32, 368.1 74.6, 324 128, 320.6L128, 402.3C104.9, 409.2 88, 430.6 88, 456C88, 486.9 113.1, 512 144, 512C174.9, 512 200, 486.9 200, 456C200, 430.6 183.1, 409.2 160, 402.3L160, 325.4C180.8, 332.2 202.2, 335.9 224, 335.9C245.8, 335.9 267.2, 332.2 288, 325.4L288, 394.2C259.8, 401.7 240, 428.7 240, 458.8L240, 488C240, 492.2 241.7, 496.3 244.7, 499.3L255, 509.6C258.1, 512.7 263.2, 512.7 266.3, 509.6L277.6, 498.3C280.7, 495.2 280.7, 490.1 277.6, 487L271.9, 481.3L271.9, 456C271.9, 436.6 289.3, 421.2 309.3, 424.4C325, 427 335.9, 441.8 335.9, 457.7L335.9, 481.3L330.2, 487C327.1, 490.1 327.1, 495.2 330.2, 498.3L341.5, 509.6C344.6, 512.7 349.7, 512.7 352.8, 509.6L363.1, 499.3C366.1, 496.3 367.8, 492.2 367.8, 488L367.8, 456C367.8, 426.3 347.3, 401.5 319.8, 394.4L319.8, 320.7C373.2, 324.1 415.8, 368.2 415.8, 422.5L415.8, 504C415.8, 508.4 419.4, 512 423.8, 512L439.8, 512C444.2, 512 447.8, 508.4 447.8, 504L447.8, 422.4C448, 349.5 390, 290.2 317.7, 288.1zM168, 456C168, 469.2 157.2, 480 144, 480C130.8, 480 120, 469.2 120, 456C120, 442.8 130.8, 432 144, 432C157.2, 432 168, 442.8 168, 456z" fill="#727272" fill-opacity="1" class="Black" />
  </g>
</svg>