<?xml version='1.0' encoding='UTF-8'?>
<svg viewBox="-1.995 -4.7962 32 32" xmlns="http://www.w3.org/2000/svg">
  <g transform="matrix(0.9991, 0, 0, 0.9991, 0, 0)">
    <g transform="matrix(0.0438, 0, 0, 0.0438, 0, 0)">
      <path d="M637, 485.2L23, 1.8C19.6, -1 14.5, -0.4 11.8, 3L1.8, 15.5C-1, 19 -0.4, 24 3, 26.8L617, 510.3C620.4, 513.1 625.5, 512.5 628.2, 509.1L638.2, 496.6C641, 493 640.4, 488 637, 485.2zM320, 32C372.9, 32 416, 75.1 416, 128C416, 163.9 396, 194.9 366.7, 211.3L393.5, 232.4C426.4, 209.3 448, 171.2 448, 128C448, 57.3 390.7, 0 320, 0C266, 0 220, 33.6 201.2, 81L228, 102.1C239.4, 61.8 276.1, 32 320, 32zM496, 480L144, 480C135.2, 480 128, 472.8 128, 464L128, 422.4C128, 365.9 173.9, 320 230.4, 320C236.5, 320 243.4, 321.4 252.1, 324.4C273.4, 331.8 295.5, 335.5 317.9, 335.8L266.3, 295.2C248.8, 289.5 239.5, 288 230.4, 288C156.2, 288 96, 348.2 96, 422.4L96, 464C96, 490.5 117.5, 512 144, 512L496, 512C507.9, 512 518.6, 507.5 526.9, 500.4L499.9, 479.2C498.7, 479.5 497.4, 480 496, 480z" fill="#727272" fill-opacity="1" class="Black" />
    </g>
  </g>
</svg>