<?xml version='1.0' encoding='UTF-8'?>
<svg viewBox="-3.7495 -2 32 32" xmlns="http://www.w3.org/2000/svg">
  <g transform="matrix(0.0547, 0, 0, 0.0547, 0, 0)">
    <path d="M99.46, 165.1A150.52 150.52 0 0 0 96, 192A128 128 0 0 0 352, 192A150.48 150.48 0 0 0 348.5, 164.93C420.69, 129.31 446.38, 71.07 446.75, 70.23A16 16 0 0 0 417.28, 57.7C416.12, 60.37 397.51, 101.22 346.07, 130.48C336.2, 80.21 314.75, 0 278.1, 0C267.77, 0 258.55, 4.45 250.8, 10.47A42.32 42.32 0 0 1 224.8, 19.4A42.32 42.32 0 0 1 198.8, 10.47C191, 4.45 181.76, 0 171.43, 0C134.65, 0 113.17, 80.78 103.35, 131C51.09, 101.68 31.84, 60.25 30.66, 57.56A16 16 0 0 0 1.38, 70.56C2.9, 73.94 28.82, 130.37 99.46, 165.1zM172.86, 32.22A19.71 19.71 0 0 1 179.09, 35.73A74.77 74.77 0 0 0 224.76, 51.4A74.83 74.83 0 0 0 270.44, 35.74A19.57 19.57 0 0 1 276.67, 32.22C285.84, 39.11 303.26, 74.02 316.17, 144.49L316.17, 144.55C291.24, 153.84 260.85, 160 224, 160C187.87, 160 158, 154 133.29, 144.9C146.19, 74.19 163.66, 39.13 172.86, 32.22zM129.59, 177.22C156.07, 186.12 187.12, 192 224, 192C260.88, 192 291.91, 186.08 318.4, 177.13A95 95 0 0 1 320, 192A96 96 0 0 1 128, 192A95.31 95.31 0 0 1 129.59, 177.2zM313.59, 352.02C284.87, 352.02 271.16, 368.02 224, 368.02C176.84, 368.02 163.12, 352.02 134.44, 352.02A134.46 134.46 0 0 0 0, 486.41A25.61 25.61 0 0 0 25.59, 512L422.4, 512A25.61 25.61 0 0 0 448, 486.41A134.46 134.46 0 0 0 313.59, 352zM32.19, 480C35.59, 427.06 81.37, 384.05 134.44, 384C154.25, 384 173.37, 400 224, 400C275, 400 293.59, 384 313.59, 384C366.59, 384.06 412.44, 427.08 415.81, 480z" fill="#727272" fill-opacity="1" class="Black" />
  </g>
</svg>