<?xml version='1.0' encoding='UTF-8'?>
<svg viewBox="-2 -1.995 32 31.9975" xmlns="http://www.w3.org/2000/svg">
  <g transform="matrix(0.0547, 0, 0, 0.0547, 0, 0)">
    <path d="M72.9, 498.4L24.6, 450.1C7, 432.5 6.2, 404.5 23.3, 387.4L398.3, 12.4C415.2, -4.5 443.4, -4 461, 13.7C481.8, 34.3 501, 74.5 501, 136C501, 238.8 433.4, 361.8 269.1, 341.2L138.1, 497C121.5, 516.7 91.4, 516.9 72.9, 498.4zM421, 35L46, 410C41.4, 414.6 42.3, 422.5 47.3, 427.5L95.6, 475.8C101, 481.2 109.4, 481.5 113.6, 476.5L256.1, 307C338.9, 319.7 409.3, 303 447.4, 227.7C462.1, 198.7 469.1, 166.3 469.1, 136C469.1, 88 457.8, 55.6 438.5, 36.3C433.3, 31.1 425.5, 30.5 421, 35z" fill="#727272" fill-opacity="1" class="Black" />
  </g>
</svg>