<?xml version='1.0' encoding='UTF-8'?>
<svg viewBox="-2 -3.5552 32 31.9975" xmlns="http://www.w3.org/2000/svg">
  <g transform="matrix(0.0486, 0, 0, 0.0486, 0, 0)">
    <path d="M0, 60C0, 202.9 69.8, 275.8 188.6, 286.5L84.2, 379.1C58.4, 402 57.2, 442.1 81.6, 466.4L109.6, 494.4C134.2, 519 174.2, 517.5 196.9, 491.8L290, 386.7C386.3, 500.2 379.4, 492.1 380.3, 493C403.2, 517.4 442.2, 518.7 466.5, 494.4L494.5, 466.4C518.6, 442.3 517.7, 403.1 492.9, 380L384.8, 279.7L392, 272C430.8, 284.1 469.1, 279 502.3, 245.9C523.2, 225 564, 166.2 569.1, 158.8C589.2, 130.3 561.8, 92 531.7, 88.2C528.9, 66.1 508.1, 46.7 487.8, 44.2C483.9, 13.2 445.2, -12.9 417.2, 6.8C409.8, 11.9 351, 52.8 330.1, 73.7C298, 105.8 291.4, 144 304, 184L292.8, 194.3L100.8, 16.1C62.6, -19.4 0, 7.7 0, 60zM379.7, 237.2L361.3, 257.9L316.4, 216.2L338.9, 196.3C320.1, 163.3 323.5, 125.6 352.8, 96.3C372.3, 76.7 435.6, 33 435.6, 33C443.2, 27.5 460.7, 45.3 455, 52.7L374, 133.6C367, 141.8 384.9, 160 393.4, 153.3L479.5, 76.9C486.9, 71.5 504.4, 88.9 499, 96.4L422.6, 182.5C416, 191 434.1, 209 442.4, 202L523.3, 121.1C530.7, 115.3 548.5, 132.9 543, 140.5C543, 140.5 499.3, 203.7 479.7, 223.4C450.1, 252.8 412.4, 255.8 379.7, 237.2zM218.7, 302.7L269.1, 362L173, 470.6C162.3, 482.6 143.7, 483.3 132.2, 471.8L104.2, 443.8C92.8, 432.4 93.4, 413.7 105.4, 403L218.7, 302.7zM32, 60C32, 35.6 61.1, 22.8 79.1, 39.5L471.1, 403.5C482.7, 414.3 483.1, 432.6 471.8, 443.8L443.8, 471.8C432.6, 483 414.4, 482.7 403.6, 471.2L221, 256C81, 256 32, 177.2 32, 60z" fill="#727272" fill-opacity="1" class="Black" />
  </g>
</svg>