<?xml version='1.0' encoding='UTF-8'?>
<svg viewBox="-2.8747 -2 32 32" xmlns="http://www.w3.org/2000/svg">
  <g transform="matrix(0.0547, 0, 0, 0.0547, 0, 0)">
    <path d="M344.1, 470.3L358.3, 305.5C316.2, 272.4 287.9, 228.5 287.9, 176C288, 81.7 376.1, 0 440, 0C462.1, 0 480, 17.3 480, 38.5L480, 473.5C480, 494.7 462.1, 512 440, 512L384, 512C361.2, 512 342.2, 493.3 344.1, 470.3zM320, 176C320, 227 352.2, 261.5 391.8, 290.5L376, 473.1C375.7, 476.8 379.4, 480 384, 480L440, 480C444.3, 480 448, 477 448, 473.5L448, 38.5C448, 35 444.3, 32 440, 32C395.4, 32 320, 97.8 320, 176zM240.7, 33.8C237.4, 14.3 219.5, 0 194.6, 0C182.7, 0 170.5, 3.4 161.3, 11.2C152.9, 4.1 141.3, 0 128, 0C114.7, 0 103.1, 4.1 94.7, 11.2C85.5, 3.4 73.3, 0 61.4, 0C36.2, 0 18.6, 14.5 15.3, 33.8C13.5, 43.2 0, 118.4 0, 149.9C0, 200.8 26.7, 241.5 71, 260.6L59.6, 471.4C58.4, 493.4 75.9, 512 98, 512L158, 512C180, 512 197.6, 493.5 196.4, 471.4L185, 260.6C229.2, 241.5 256, 200.8 256, 149.9C256, 118.4 242.5, 43.2 240.7, 33.8zM152.3, 240L164.5, 473.1C164.7, 476.8 161.8, 480 158, 480L98, 480C94.3, 480 91.3, 476.9 91.5, 473.1L103.7, 240C61.3, 231.2 32, 197 32, 149.9C32, 120.2 46.8, 39.3 46.8, 39.3C48.4, 29.4 75.1, 29.6 76.3, 39.5L76.3, 162C77.2, 173.5 104.5, 173.7 105.8, 162.2L113.2, 39.3C114.8, 29.6 141.1, 29.6 142.7, 39.3L150.1, 162.2C151.4, 173.6 178.7, 173.4 179.6, 162L179.6, 39.6C180.8, 29.7 207.5, 29.5 209.1, 39.4C209.1, 39.4 223.9, 120.3 223.9, 150C224, 196.8 194.9, 231.2 152.3, 240z" fill="#727272" fill-opacity="1" class="Black" />
  </g>
</svg>