<?xml version='1.0' encoding='UTF-8'?>
<svg viewBox="-2 0 32 32" xmlns="http://www.w3.org/2000/svg">
  <g transform="matrix(0.0625, 0, 0, 0.0625, 0, 0)">
    <path d="M24, 32L8, 32C3.6, 32 0, 35.6 0, 40L0, 472C0, 476.4 3.6, 480 8, 480L24, 480C28.4, 480 32, 476.4 32, 472L32, 40C32, 35.6 28.4, 32 24, 32zM440, 32L424, 32C419.6, 32 416, 35.6 416, 40L416, 472C416, 476.4 419.6, 480 424, 480L440, 480C444.4, 480 448, 476.4 448, 472L448, 40C448, 35.6 444.4, 32 440, 32zM325.7, 165.6L314.4, 154.3C311.3, 151.2 306.2, 151.2 303.1, 154.3L224.1, 233.3L145.1, 154.3C142, 151.2 136.9, 151.2 133.8, 154.3L122.5, 165.6C119.4, 168.7 119.4, 173.8 122.5, 176.9L201.5, 255.9L122.5, 334.9C119.4, 338 119.4, 343.1 122.5, 346.2L133.8, 357.5C136.9, 360.6 142, 360.6 145.1, 357.5L224.1, 278.5L303.1, 357.5C306.2, 360.6 311.3, 360.6 314.4, 357.5L325.7, 346.2C328.8, 343.1 328.8, 338 325.7, 334.9L246.7, 255.9L325.7, 176.9C328.8, 173.8 328.8, 168.8 325.7, 165.6z" fill="#727272" fill-opacity="1" class="Black" />
  </g>
</svg>