<?xml version='1.0' encoding='UTF-8'?>
<svg viewBox="-1.9999 -1.9999 32 32" xmlns="http://www.w3.org/2000/svg">
  <g transform="matrix(0.0547, 0, 0, 0.0547, 0, 0)">
    <path d="M486.4, 128C500.54, 128 512, 116.54 512, 102.4L512, 25.6C512, 11.46 500.54, 0 486.4, 0L409.6, 0C395.46, 0 384, 11.46 384, 25.6L384, 48L128, 48L128, 25.6C128, 11.46 116.54, 0 102.4, 0L25.6, 0C11.46, 0 0, 11.46 0, 25.6L0, 102.4C0, 116.54 11.46, 128 25.6, 128L48, 128L48, 384L25.6, 384C11.46, 384 0, 395.46 0, 409.6L0, 486.4C0, 500.54 11.46, 512 25.6, 512L102.4, 512C116.54, 512 128, 500.54 128, 486.4L128, 464L384, 464L384, 486.4C384, 500.54 395.46, 512 409.6, 512L486.4, 512C500.54, 512 512, 500.54 512, 486.4L512, 409.6C512, 395.46 500.54, 384 486.4, 384L464, 384L464, 128L486.4, 128zM416, 32L480, 32L480, 96L416, 96L416, 32zM32, 96L32, 32L96, 32L96, 96L32, 96zM96, 480L32, 480L32, 416L96, 416L96, 480zM480, 416L480, 480L416, 480L416, 416L480, 416zM432, 384L409.6, 384C395.46, 384 384, 395.46 384, 409.6L384, 432L128, 432L128, 409.6C128, 395.46 116.54, 384 102.4, 384L80, 384L80, 128L102.4, 128C116.54, 128 128, 116.54 128, 102.4L128, 80L384, 80L384, 102.4C384, 116.54 395.46, 128 409.6, 128L432, 128L432, 384z" fill="#727272" fill-opacity="1" class="Black" />
  </g>
</svg>