<?xml version='1.0' encoding='UTF-8'?>
<svg viewBox="-2 -1.9988 32 32" xmlns="http://www.w3.org/2000/svg">
  <g transform="matrix(0.0547, 0, 0, 0.0547, 0, 0)">
    <path d="M288, 176C288, 96.5 223.5, 32 144, 32C64.5, 32 0, 96.5 0, 176C0, 250.1 56, 311.2 128, 319.1L128, 384L76, 384C69.4, 384 64, 389.4 64, 396L64, 404C64, 410.6 69.4, 416 76, 416L128, 416L128, 468C128, 474.6 133.4, 480 140, 480L148, 480C154.6, 480 160, 474.6 160, 468L160, 416L212, 416C218.6, 416 224, 410.6 224, 404L224, 396C224, 389.4 218.6, 384 212, 384L160, 384L160, 319.1C232, 311.2 288, 250.1 288, 176zM32, 176C32, 114.1 82, 64 144, 64C205.9, 64 256, 114 256, 176C256, 237.9 206, 288 144, 288C82.1, 288 32, 238 32, 176zM384, 319.1L384, 384L436, 384C442.6, 384 448, 389.4 448, 396L448, 404C448, 410.6 442.6, 416 436, 416L384, 416L384, 468C384, 474.6 378.6, 480 372, 480L364, 480C357.4, 480 352, 474.6 352, 468L352, 416L300, 416C293.4, 416 288, 410.6 288, 404L288, 396C288, 389.4 293.4, 384 300, 384L352, 384L352, 319.1C324.6, 316.1 299.4, 305.3 278.8, 289.1C285.7, 280.9 291.8, 272.1 297.1, 262.8C317, 279.1 341.8, 288 367.9, 288C429.9, 288 479.9, 237.9 479.9, 176C479.9, 114 429.8, 64 367.9, 64C341.8, 64 317, 72.9 297.1, 89.2C291.8, 79.9 285.7, 71 278.8, 62.9C303.4, 43.6 334.3, 32 368, 32C447.5, 32 512, 96.5 512, 176C512, 250.1 456, 311.2 384, 319.1z" fill="#727272" fill-opacity="1" class="Black" />
  </g>
</svg>