<?xml version='1.0' encoding='UTF-8'?>
<svg viewBox="-1.9998 -3.5563 31.9975 32" xmlns="http://www.w3.org/2000/svg">
  <g transform="matrix(0.0486, 0, 0, 0.0486, 0, 0)">
    <path d="M288, 208C288, 128.5 223.5, 64 144, 64C64.5, 64 0, 128.5 0, 208C0, 282.1 56, 343.2 128, 351.1L128, 416L76, 416C69.4, 416 64, 421.4 64, 428L64, 436C64, 442.6 69.4, 448 76, 448L128, 448L128, 500C128, 506.6 133.4, 512 140, 512L148, 512C154.6, 512 160, 506.6 160, 500L160, 448L212, 448C218.6, 448 224, 442.6 224, 436L224, 428C224, 421.4 218.6, 416 212, 416L160, 416L160, 351.1C232, 343.2 288, 282.1 288, 208zM32, 208C32, 146.1 82, 96 144, 96C205.9, 96 256, 146 256, 208C256, 269.9 206, 320 144, 320C82.1, 320 32, 270 32, 208zM576, 12L576, 100C576, 106.6 570.6, 112 564, 112L556, 112C549.4, 112 544, 106.6 544, 100L544, 54.6L480.5, 118.1C500.2, 142.8 512, 174 512, 208C512, 287.5 447.5, 352 368, 352C334.3, 352 303.4, 340.4 278.8, 321.1C285.7, 312.9 291.8, 304.1 297.1, 294.8C317, 311.1 341.8, 320 367.9, 320C429.9, 320 479.9, 269.9 479.9, 208C479.9, 146 429.8, 96 367.9, 96C341.8, 96 317, 104.9 297.1, 121.2C291.8, 111.9 285.7, 103 278.8, 94.9C303.4, 75.6 334.3, 64 368, 64C402, 64 433.2, 75.8 457.9, 95.5L521.4, 32L476, 32C469.4, 32 464, 26.6 464, 20L464, 12C464, 5.4 469.4, 0 476, 0L564, 0C570.6, 0 576, 5.4 576, 12z" fill="#727272" fill-opacity="1" class="Black" />
  </g>
</svg>