<?xml version='1.0' encoding='UTF-8'?>
<svg viewBox="-2.0025 -1.0697 32 31.9975" xmlns="http://www.w3.org/2000/svg">
  <g transform="matrix(0.0583, 0, 0, 0.0583, 0, 0)">
    <path d="M477.7, 188L308, 18.3C304.9, 15.2 299.8, 15.2 296.7, 18.3L285.4, 29.6C282.3, 32.7 282.3, 37.8 285.4, 40.9L302.4, 57.9L28.1, 332.1C-9.4, 369.6 -9.5, 430.3 28.1, 467.8C65.6, 505.3 126.3, 505.4 163.8, 467.8L438, 193.6L455, 210.6C458.1, 213.7 463.2, 213.7 466.3, 210.6L477.6, 199.3C480.8, 196.2 480.8, 191.2 477.7, 188zM141.3, 445.2C117.1, 469.4 75, 469.4 50.8, 445.2C25.8, 420.2 25.8, 379.7 50.8, 354.7L117.5, 288L298.5, 288L141.3, 445.2zM330.5, 256L149.5, 256L324.9, 80.6L415.4, 171.1L330.5, 256z" fill="#727272" fill-opacity="1" class="Black" />
  </g>
</svg>