<?xml version='1.0' encoding='UTF-8'?>
<svg viewBox="-1.995 -4.7937 32 32" xmlns="http://www.w3.org/2000/svg">
  <g transform="matrix(0.9991, 0, 0, 0.9991, 0, 0)">
    <g transform="matrix(0.0438, 0, 0, 0.0438, 0, 0)">
      <path d="M637, 485.2L142.7, 96L126.5, 83.3L23, 1.8C19.6, -1 14.5, -0.4 11.8, 3L1.8, 15.5C-1, 19 -0.4, 24 3, 26.8L438.9, 370L448, 377.2L617, 510.3C620.4, 513.1 625.5, 512.5 628.2, 509.1L638.2, 496.6C641, 493 640.4, 488 637, 485.2zM396.2, 416L83.8, 416C73.1, 416 64, 408.8 64, 400.2L64, 135.9L32.1, 110.8C32.1, 111.2 32, 111.5 32, 111.9L32, 400.3C32, 426.7 55.2, 448.1 83.8, 448.1L396.2, 448.1C412.8, 448.1 427.4, 440.8 436.9, 429.6L411.6, 409.7C407.9, 413.4 402.5, 416 396.2, 416zM396.2, 96C406.9, 96 416, 103.2 416, 111.8L416, 250.1L448, 275.3L448, 209.5L576, 128L576, 376.1L604.4, 398.5C606.5, 394.3 608, 389.7 608, 384.5L608, 127.5C608, 109 592.5, 96 575.9, 96C569.7, 96 563.4, 97.8 557.7, 101.7L448, 171.6L448, 111.8C448, 85.4 424.8, 64 396.2, 64L179.6, 64L220.2, 96L396.2, 96z" fill="#727272" fill-opacity="1" class="Black" />
    </g>
  </g>
</svg>