<?xml version='1.0' encoding='UTF-8'?>
<svg viewBox="-2 -3.5518 32 32" xmlns="http://www.w3.org/2000/svg">
  <g transform="matrix(0.0486, 0, 0, 0.0486, 0, 0)">
    <path d="M543.9, 96C537.7, 96 531.4, 97.8 525.7, 101.7L416, 171.6L416, 111.8C416, 85.4 392.8, 64 364.2, 64L51.8, 64C23.2, 64 0, 85.4 0, 111.8L0, 400.2C0, 426.6 23.2, 448 51.8, 448L364.2, 448C392.8, 448 416, 426.6 416, 400.2L416, 340.4L525.6, 410.3C531.3, 414.3 537.7, 416 543.8, 416C560.4, 416 575.9, 403 575.9, 384.5L575.9, 127.5C576, 109 560.5, 96 543.9, 96zM384, 400.2C384, 408.8 374.9, 416 364.2, 416L51.8, 416C41.1, 416 32, 408.8 32, 400.2L32, 111.8C32, 103.2 41.1, 96 51.8, 96L364.2, 96C374.9, 96 384, 103.2 384, 111.8L384, 400.2zM544, 384.5L542.8, 383.2L416, 302.4L416, 209.5L544, 128L544, 384.5z" fill="#727272" fill-opacity="1" class="Black" />
  </g>
</svg>