<?xml version='1.0' encoding='UTF-8'?>
<svg viewBox="-1.9973 -4.7993 31.9975 32" xmlns="http://www.w3.org/2000/svg">
  <g transform="matrix(1.0012, 0, 0, 1.0012, 0, 0)">
    <g transform="matrix(0.0437, 0, 0, 0.0437, 0, 0)">
      <path d="M632.88, 400.71L544, 352L544, 288L599.16, 270.31C610.95, 264.41 610.95, 247.59 599.16, 241.69L480, 192L480, 128L507.31, 111.7C515.03, 103.98 512.92, 90.96 503.15, 86.08L320, 0L136.85, 86.07C127.08, 90.95 124.97, 103.97 132.69, 111.69L160, 128L160, 192L40.84, 241.69C29.05, 247.59 29.05, 264.41 40.84, 270.31L96, 288L96, 352L7.12, 400.71C-3.1, 407.53 -2.15, 422.84 8.84, 428.33L64, 448L64, 504C64, 508.42 67.58, 512 72, 512L88, 512C92.42, 512 96, 508.42 96, 504L96, 448L304, 448L304, 504C304, 508.42 307.58, 512 312, 512L328, 512C332.42, 512 336, 508.42 336, 504L336, 448L544, 448L544, 504C544, 508.42 547.58, 512 552, 512L568, 512C572.42, 512 576, 508.42 576, 504L576, 448L631.15, 428.33C642.14, 422.84 643.1, 407.52 632.88, 400.71zM320, 35.36L449.06, 96L190.96, 96L320, 35.36zM192, 128L448, 128L448, 192L192, 192L192, 128zM94.6, 253.94L166.4, 224L473.6, 224L545.41, 253.94L539, 256L101.01, 256L94.6, 253.94zM128, 288L512, 288L512, 352L128, 352L128, 288zM570.47, 416L69.53, 416L55.15, 410.87L104.19, 384L535.8, 384L584.84, 410.87L570.47, 416z" fill="#727272" fill-opacity="1" class="Black" />
    </g>
  </g>
</svg>