<?xml version='1.0' encoding='UTF-8'?>
<svg viewBox="-1.9998 -4.8011 31.995 32" xmlns="http://www.w3.org/2000/svg">
  <g transform="matrix(0.9987, 0, 0, 0.9987, 0, 0)">
    <g transform="matrix(0.0438, 0, 0, 0.0438, 0, 0)">
      <path d="M472, 96A24 24 0 1 0 448, 72A24 24 0 0 0 472, 96zM349.66, 13.66L338.34, 2.34A8 8 0 0 0 327.03, 2.34L2.34, 327A8 8 0 0 0 2.34, 338.32L13.66, 349.63A8 8 0 0 0 24.97, 349.63L349.66, 25A8 8 0 0 0 349.66, 13.66zM520, 48A24 24 0 1 0 496, 24A24 24 0 0 0 520, 48zM616, 96A24 24 0 1 0 640, 120A24 24 0 0 0 616, 96zM568, 144A24 24 0 1 0 592, 168A24 24 0 0 0 568, 144zM481.14, 192.8L635.31, 38.62A16 16 0 0 0 635.31, 16L624, 4.69A16 16 0 0 0 601.38, 4.69L447.18, 158.88C431.74, 146.04 414.12, 135.88 394.59, 131.35A128.23 128.23 0 0 0 365.9, 128.05C344.79, 128.05 318.35, 133.57 296.55, 155.38C292.87, 159.07 290.05, 163.28 287.15, 167.43A63.51 63.51 0 0 1 224.36, 240A64.53 64.53 0 0 1 201.2, 235.65C185.97, 240.8 171.89, 248.76 160.2, 260.51C122, 298.64 119, 360.11 146.9, 414.06L138, 420A22.41 22.41 0 0 0 134.59, 454.48L185.54, 505.43A22.22 22.22 0 0 0 193.6, 510.49A20.75 20.75 0 0 0 196.53, 511.05A22.54 22.54 0 0 0 201.36, 511.99C201.72, 511.99 202.03, 511.76 202.36, 511.74A22.35 22.35 0 0 0 208.9, 510.15A20.62 20.62 0 0 0 212.1, 509.15A22 22 0 0 0 220, 502L225.81, 493.29C249.2, 505.4 273.95, 511.9 297.69, 511.9C328.69, 511.9 357.87, 501.37 379.49, 479.74C391.24, 468.06 399.2, 453.97 404.36, 438.74C388.26, 396.56 419.36, 352.28 463.45, 352.28A68.11 68.11 0 0 1 472.38, 352.88C476.59, 349.94 480.86, 347.08 484.61, 343.34C509.55, 318.34 517.04, 281.86 508.61, 245.43C504.09, 225.88 494, 208.25 481.14, 192.8zM199.86, 474.53L165.47, 440.14L245.55, 386.75L253.25, 394.45zM462.38, 320.27A95.45 95.45 0 0 0 370.55, 437.27A67.49 67.49 0 0 1 356.85, 457.13C338, 476 314.28, 479.92 297.68, 479.92C279.92, 479.92 261.27, 475.2 243.6, 466.6L284.24, 405.6A22.4 22.4 0 0 0 281.44, 377.34L262.61, 358.51A25.73 25.73 0 0 0 247.76, 352.15C247.42, 352.15 247.11, 351.95 246.76, 351.95A22.17 22.17 0 0 0 243.25, 352.46A21.39 21.39 0 0 0 240.98, 352.79A22.39 22.39 0 0 0 234.34, 355.71L173.56, 396.23C153, 354.45 156, 309.9 182.91, 283A67 67 0 0 1 202.59, 269.42A95.34 95.34 0 0 0 296.37, 239.09A94 94 0 0 0 319.79, 177.37C331.62, 165.85 347.13, 160.01 365.9, 160.01A96.24 96.24 0 0 1 387.34, 162.47C399.58, 165.33 411.98, 172.02 424.26, 181.76L324.69, 281.34A16 16 0 0 0 324.69, 303.96L336, 315.31A16 16 0 0 0 358.62, 315.31L458.21, 215.72C467.93, 227.98 474.6, 240.37 477.43, 252.62C483.65, 279.54 478.16, 304.16 462.38, 320.27z" fill="#727272" fill-opacity="1" class="Black" />
    </g>
  </g>
</svg>