<?xml version='1.0' encoding='UTF-8'?>
<svg viewBox="-2 -4.0988 32 32" xmlns="http://www.w3.org/2000/svg">
  <g transform="matrix(0.9988, 0, 0, 0.9988, 0, 0)">
    <g transform="matrix(0.0438, 0, 0, 0.0438, 0, 0)">
      <path d="M640, 272A144 144 0 0 0 352, 272C352, 317.52 373.54, 357.61 406.51, 384L233.51, 384C266.51, 357.61 288.02, 317.52 288.02, 272A144 144 0 0 0 0, 272C0, 346.05 56.1, 406.33 128, 414.39L128, 416L512, 416L512, 414.39C583.9, 406.33 640, 346.05 640, 272zM32, 272A112 112 0 1 1 144, 384A112.12 112.12 0 0 1 32, 272zM496, 384A112 112 0 1 1 608, 272A112.12 112.12 0 0 1 496, 384z" fill="#727272" fill-opacity="1" class="Black" />
    </g>
  </g>
</svg>