<?xml version='1.0' encoding='UTF-8'?>
<svg viewBox="-1.9999 -1.549 31.9975 32" xmlns="http://www.w3.org/2000/svg">
  <g transform="matrix(0.999, 0, 0, 0.999, 0, 0)">
    <g transform="matrix(0.0565, 0, 0, 0.0565, 0, 0)">
      <path d="M248, 8C111.2, 8 0, 119.2 0, 256C0, 392.8 111.2, 504 248, 504C384.8, 504 496, 392.8 496, 256C496, 119.2 384.8, 8 248, 8zM420, 386.1C334.4, 408.5 243.5, 390.9 172.3, 339.2C193.6, 313.6 219.4, 291.7 248.8, 274.4C333.1, 321.5 408.6, 319.5 456.3, 312.3C449, 339.3 436.5, 364.3 420, 386.1zM462.8, 278.9C438.4, 283.5 413.9, 285.3 389.6, 283.8C398.3, 202.2 376, 120.9 327.8, 55.5C387, 79.1 476, 153.7 462.8, 278.9zM274.4, 41.8C336.7, 104.7 367, 192.2 357.8, 279.9C325, 274.3 293.3, 262.9 263.6, 246.2C262.6, 173.4 237.9, 104 192.7, 47.3C232.9, 36.8 262, 40.3 274.4, 41.8zM160.5, 58.7C176.6, 77.5 190.5, 97.8 201.3, 119.5C126.4, 152.7 67.1, 212.7 34.5, 287C14, 145.8 123.2, 75.3 160.5, 58.7zM49.2, 340.4C72.5, 254.9 133.2, 184.8 213.8, 148.9C225.3, 180.1 231.3, 213.3 231.7, 247.3C169.1, 284.5 121.4, 340.8 94.9, 408.2C75.7, 388.8 60, 365.9 49.2, 340.4zM120.9, 430.3C129, 407.1 139.7, 385.1 153, 365C200.5, 399.6 278.7, 436.9 381.5, 425.5C329, 466.9 220.8, 503.4 120.9, 430.3z" fill="#727272" fill-opacity="1" class="Black" />
    </g>
  </g>
</svg>