<?xml version='1.0' encoding='UTF-8'?>
<svg viewBox="-1.995 -4.7973 32 31.9975" xmlns="http://www.w3.org/2000/svg">
  <g transform="matrix(0.999, 0, 0, 0.999, 0, 0)">
    <g transform="matrix(0.0438, 0, 0, 0.0438, 0, 0)">
      <path d="M256, 107.3L256, 144.5L288, 169.7L288, 88C288, 73.5 276.1, 64 263.8, 64C257.9, 64 251.9, 66.2 247, 71L209.9, 108.1L235.2, 128zM408, 125.9C452.4, 151.4 480, 201.3 480, 256C480, 275.8 476.3, 295 469.5, 312.6L495.4, 333C506, 309.4 512, 283.2 512, 256C512, 189.9 478.3, 129.4 424, 98.1C416.4, 93.7 406.6, 96.3 402.2, 104C397.7, 111.7 400.4, 121.5 408, 125.9zM438.8, 30.2C523.4, 74.7 576, 161.2 576, 256C576, 297.8 565.3, 337.7 546.6, 373.3L572.1, 393.4C595, 352 608, 305.1 608, 256C608, 149.3 548.9, 51.9 453.8, 1.8C445.9, -2.3 436.3, 0.7 432.2, 8.5C428, 16.4 431, 26 438.8, 30.2zM361.1, 222.4C370.6, 226.9 377.4, 234.4 381, 242.9L414.1, 268.9C415, 264.6 416, 260.4 416, 255.9C416, 229.5 400.2, 205.6 374.9, 193.5C367.1, 189.7 357.4, 193 353.6, 201C349.8, 209 353.1, 218.6 361.1, 222.4zM637, 485.2L23, 1.8C19.6, -1 14.5, -0.5 11.8, 3L1.8, 15.5C-1, 19 -0.4, 24 3, 26.7L617, 510.2C620.4, 513 625.5, 512.4 628.2, 509L638.2, 496.5C641, 493 640.5, 488 637, 485.2zM438.8, 481.8C431, 485.9 428, 495.6 432.1, 503.4C434.9, 508.7 440.3, 512 446.3, 511.9C448.8, 511.9 451.4, 511.3 453.8, 510.1C475.5, 498.7 495, 484.6 512.6, 468.7L486.9, 448.5C472.2, 461.1 456.4, 472.6 438.8, 481.8zM256, 404.7L171.3, 320L64, 320L64, 192L161.1, 192L120.5, 160L56, 160C42.7, 160 32, 170.7 32, 184L32, 328C32, 341.2 42.7, 352 56, 352L158.1, 352L247.1, 441C252, 445.9 258, 448 263.9, 448C276.2, 448 288.1, 438.5 288.1, 424L288.1, 291.9L256.1, 266.7L256.1, 404.7z" fill="#727272" fill-opacity="1" class="Black" />
    </g>
  </g>
</svg>