<?xml version='1.0' encoding='UTF-8'?>
<svg viewBox="-2.0011 2.7407 32 31.995" xmlns="http://www.w3.org/2000/svg">
  <g transform="matrix(0.0729, 0, 0, 0.0729, 0, 0)">
    <path d="M342.91, 194.57C335.1, 190.77 325.41, 194.09 321.57, 202.07C317.76, 210.04 321.13, 219.6 329.1, 223.41C343.22, 230.2 352, 243.06 352, 257C352, 270.94 343.22, 283.8 329.1, 290.58C321.13, 294.39 317.76, 303.96 321.57, 311.92C325.43, 319.97 335.11, 323.21 342.91, 319.42C368.25, 307.28 384, 283.36 384, 257C384, 230.64 368.25, 206.71 342.91, 194.57zM231.81, 65C225.9, 65 219.89, 67.18 215.03, 72.05L126.06, 161L24, 161C10.74, 161 0, 171.74 0, 185L0, 329C0, 342.25 10.74, 353 24, 353L126.06, 353L215.03, 441.95C219.9, 446.82 225.91, 449 231.81, 449C244.14, 449 256, 439.48 256, 424.98L256, 89.02C256, 74.51 244.13, 65 231.81, 65zM224, 405.67L139.31, 321L32, 321L32, 193L139.31, 193L224, 108.33L224, 405.67z" fill="#727272" fill-opacity="1" class="Black" />
  </g>
</svg>