<?xml version='1.0' encoding='UTF-8'?>
<svg viewBox="-6.6671 2.6684 32 31.9975" xmlns="http://www.w3.org/2000/svg">
  <g transform="matrix(0.0729, 0, 0, 0.0729, 0, 0)">
    <path d="M231.81, 64A23.44 23.44 0 0 0 215.03, 71L126.03, 160L24, 160A24 24 0 0 0 0, 184L0, 328A24 24 0 0 0 24, 352L126.06, 352L215, 441A23.47 23.47 0 0 0 231.81, 448C244.14, 448 256, 438.48 256, 424L256, 88C256, 73.49 244.14, 64 231.81, 64zM224, 404.67L139.31, 320L32, 320L32, 192L139.31, 192L224, 107.33L224, 404.67z" fill="#727272" fill-opacity="1" class="Black" />
  </g>
</svg>