<?xml version='1.0' encoding='UTF-8'?>
<svg viewBox="-1.9999 -4.7979 32 31.9975" xmlns="http://www.w3.org/2000/svg">
  <g transform="matrix(1.0011, 0, 0, 1.0011, 0, 0)">
    <g transform="matrix(0.0437, 0, 0, 0.0437, 0, 0)">
      <path d="M409.3, 138.6C407.7, 137 405.7, 136.3 403.6, 136.3C401.6, 136.3 399.5, 137.1 397.9, 138.6L290.5, 246.1L242, 197.5C240.4, 195.9 238.4, 195.2 236.3, 195.2C234.3, 195.2 232.2, 196 230.6, 197.5L219.3, 208.8C216.2, 211.9 216.2, 217 219.3, 220.1L284.8, 285.6C286.4, 287.2 288.4, 287.9 290.5, 287.9C292.6, 287.9 294.6, 287.1 296.2, 285.6L420.7, 161.1C423.8, 158 423.8, 152.9 420.7, 149.8L409.3, 138.6zM608, 288L544, 288L544, 62.5C544, 45.7 529.7, 32 512, 32L128, 32C110.3, 32 96, 45.7 96, 62.5L96, 288L32, 288C14.3, 288 0, 302.3 0, 320L0, 448C0, 465.7 14.3, 480 32, 480L608, 480C625.7, 480 640, 465.7 640, 448L640, 320C640, 302.3 625.7, 288 608, 288zM128, 64L512, 64L512, 368L128, 368L128, 64zM608, 448L32, 448L32, 320L96, 320L96, 368L73.6, 368C68.3, 368 64, 371.6 64, 376L64, 392C64, 396.4 68.3, 400 73.6, 400L566.4, 400C571.7, 400 576, 396.4 576, 392L576, 376C576, 371.6 571.7, 368 566.4, 368L544, 368L544, 320L608, 320L608, 448z" fill="#727272" fill-opacity="1" class="Black" />
    </g>
  </g>
</svg>