<?xml version='1.0' encoding='UTF-8'?>
<svg viewBox="-1.9999 -4.7979 32 31.9975" xmlns="http://www.w3.org/2000/svg">
  <g transform="matrix(1.0011, 0, 0, 1.0011, 0, 0)">
    <g transform="matrix(0.0437, 0, 0, 0.0437, 0, 0)">
      <path d="M393.5, 153.8L382.2, 142.5C380.6, 140.9 378.6, 140.2 376.5, 140.2C374.4, 140.2 372.4, 141 370.8, 142.5L320, 193.4L269.1, 142.5C267.5, 140.9 265.5, 140.2 263.4, 140.2C261.3, 140.2 259.3, 141 257.7, 142.5L246.4, 153.8C243.3, 156.9 243.3, 162 246.4, 165.1L297.3, 216L246.4, 266.9C243.3, 270 243.3, 275.1 246.4, 278.2L257.7, 289.5C259.3, 291.1 261.3, 291.8 263.4, 291.8C265.5, 291.8 267.5, 291 269.1, 289.5L320, 238.6L370.9, 289.5C372.5, 291.1 374.5, 291.8 376.6, 291.8C378.7, 291.8 380.7, 291 382.3, 289.5L393.6, 278.2C396.7, 275.1 396.7, 270 393.6, 266.9L342.6, 216L393.5, 165.1C396.7, 162 396.7, 156.9 393.5, 153.8zM608, 288L544, 288L544, 62.5C544, 45.7 529.7, 32 512, 32L128, 32C110.3, 32 96, 45.7 96, 62.5L96, 288L32, 288C14.3, 288 0, 302.3 0, 320L0, 448C0, 465.7 14.3, 480 32, 480L608, 480C625.7, 480 640, 465.7 640, 448L640, 320C640, 302.3 625.7, 288 608, 288zM128, 64L512, 64L512, 368L128, 368L128, 64zM608, 448L32, 448L32, 320L96, 320L96, 368L73.6, 368C68.3, 368 64, 371.6 64, 376L64, 392C64, 396.4 68.3, 400 73.6, 400L566.4, 400C571.7, 400 576, 396.4 576, 392L576, 376C576, 371.6 571.7, 368 566.4, 368L544, 368L544, 320L608, 320L608, 448z" fill="#727272" fill-opacity="1" class="Black" />
    </g>
  </g>
</svg>