<?xml version='1.0' encoding='UTF-8'?>
<svg viewBox="-1.9949 -4.7981 31.9975 32" xmlns="http://www.w3.org/2000/svg">
  <g transform="matrix(0.9989, 0, 0, 0.9989, 0, 0)">
    <g transform="matrix(0.0438, 0, 0, 0.0438, 0, 0)">
      <path d="M544.15, 256L635.15, 86.33A62.18 62.18 0 0 0 577.68, 0C560.75, 0 426.09, 32 410.05, 32A63.67 63.67 0 0 0 368, 16L272, 16A63.67 63.67 0 0 0 230, 32C213.92, 32 79.49, 0 62.39, 0A62.18 62.18 0 0 0 4.75, 85.85L96, 256L96, 321.83A111.88 111.88 0 0 0 176, 512C232.37, 512 278.56, 470.21 286.39, 416L353.61, 416C361.44, 470.21 407.61, 512 464, 512A111.88 111.88 0 0 0 544, 321.78L544, 256zM572, 32.51C575.35, 31.9 590.45, 29.85 601.24, 43.22A30.14 30.14 0 0 1 606.02, 72.76L525, 224L432, 224L432, 79.59A62.62 62.62 0 0 0 429.2, 62zM244.71, 64C250.25, 54.5 260.17, 47.79 272, 47.79L368, 47.79C379.83, 47.79 389.75, 54.5 395.29, 64C397.35, 67.54 400, 73.85 400, 79.59L400, 224L240, 224L240, 79.59C240, 73.85 242.65, 67.54 244.71, 64zM38.71, 43.24A30.53 30.53 0 0 1 67.31, 32.38L210.81, 61.94A62.48 62.48 0 0 0 208, 79.59L208, 224L115.18, 224L33.79, 72.29A29.78 29.78 0 0 1 38.75, 43.24zM254.38, 384L192, 384L192, 321.62A80.22 80.22 0 0 1 254.38, 384zM160, 384L97.62, 384A80.22 80.22 0 0 1 160, 321.62zM97.62, 416L160, 416L160, 478.38A80.22 80.22 0 0 1 97.62, 416zM192, 478.38L192, 416L254.38, 416A80.22 80.22 0 0 1 192, 478.38zM542.38, 384L480, 384L480, 321.62A80.22 80.22 0 0 1 542.38, 384zM448, 384L385.62, 384A80.22 80.22 0 0 1 448, 321.62zM385.62, 416L448, 416L448, 478.38A80.22 80.22 0 0 1 385.62, 416zM480, 478.38L480, 416L542.38, 416A80.22 80.22 0 0 1 480, 478.38zM512.12, 299.25A111 111 0 0 0 464, 288C407.62, 288 361.44, 329.79 353.61, 384L286.39, 384C278.56, 329.79 232.39, 288 176, 288A111 111 0 0 0 127.88, 299.25L127.88, 256L512.12, 256z" fill="#727272" fill-opacity="1" class="Black" />
    </g>
  </g>
</svg>