<?xml version='1.0' encoding='UTF-8'?>
<svg viewBox="-7.2499 -2 32 32" xmlns="http://www.w3.org/2000/svg">
  <g transform="matrix(0.0547, 0, 0, 0.0547, 0, 0)">
    <path d="M305.5, 247.3L285.9, 226.2L277.2, 197.7C269.3, 171.6 253.9, 149.9 234, 134.9C253.3, 121.5 266, 99.2 266, 74C266, 33.2 232.8, 0 192, 0C151.2, 0 118, 33.2 118, 74C118, 89.7 122.9, 104.3 131.3, 116.3C116.6, 120.1 102.9, 126.1 86, 133.7L77.4, 137.5C53.4, 148 34, 167.6 22.5, 192.7L10.7, 220.7C3.4, 237.9 5, 256.4 14.9, 271.4C24.6, 286 41.2, 295 58.4, 295C70.9, 295 82.4, 290.3 91.3, 282.1C91.5, 283.5 91.7, 284.8 91.9, 286.2L77.7, 325.1L61.4, 369.7L14, 422.1C-4.7, 442.5 -4.7, 474.5 14, 495C23.6, 505.5 37.2, 511.6 51.2, 511.6C65.2, 511.6 78.8, 505.6 88.4, 495L135.1, 443.8C144.7, 433.2 152.1, 420.9 157.1, 407.3L165.8, 383.4L176.4, 394.1C176.9, 394.6 177.2, 395.4 177.3, 396L192.9, 470.2C198, 494.5 219, 512 242.8, 512C246.8, 512 250.9, 511.5 254.9, 510.5C282.3, 503.6 298.9, 475.9 292.9, 447.6L277.3, 373.5C274.5, 360.3 269.5, 347.9 262.6, 336.8C264.4, 337 266.2, 337.1 268.1, 337.1C288.4, 337.1 307, 324.5 315.5, 304.9C324.1, 285.4 320.2, 263.3 305.5, 247.3zM192, 32C215.2, 32 234, 50.8 234, 74C234, 97.2 215.2, 116 192, 116C168.8, 116 150, 97.2 150, 74C150, 50.8 168.8, 32 192, 32zM127, 396.3C123.5, 406 118.2, 414.7 111.4, 422.2L64.7, 473.4C61, 477.5 56.1, 479.6 51.1, 479.6C46.2, 479.6 41.3, 477.5 37.5, 473.4C30, 465.2 30, 451.9 37.5, 443.7L84.2, 392.5C87.3, 389.1 89.7, 385.1 91.3, 380.7L107.6, 336.1L107.7, 336.2L108.7, 337.4L137.7, 366.7L127, 396.3zM268.1, 305.2C263.7, 305.2 259.1, 303.4 255.1, 299L231.6, 273.7C226.6, 268.3 222.8, 261.6 220.6, 254.3C209.2, 216.8 209.1, 214.4 203.1, 205.8L182.2, 297.5L225.2, 340.9C235.6, 351.5 242.9, 365.1 246, 380.2L261.6, 454.3C264, 465.6 257.6, 476.9 247.2, 479.5C245.7, 479.9 244.2, 480 242.8, 480C233.4, 480 226.1, 472.4 224.2, 463.7L208.6, 389.5C207.2, 382.6 203.9, 376.5 199.1, 371.7L136, 307.8C124.4, 294 120.3, 276.6 124.1, 260.1L139.9, 190.8C130.9, 194 121.8, 198.1 104.5, 205.8C96.5, 209.3 90, 215.8 86.2, 224.2L75, 250.8C71.3, 259.5 64.9, 263.1 58.4, 263.1C45.9, 263.1 33.2, 249.7 40.2, 233.2L51.7, 206C60, 187.8 73.6, 174.1 90.3, 166.8C124.5, 151.7 139, 144 166.9, 144C203.2, 144 235.2, 169.3 246.7, 207L257, 240.9C257.3, 241.9 257.8, 242.9 258.6, 243.7L282, 269C296.1, 284.3 282.9, 305.2 268.1, 305.2z" fill="#727272" fill-opacity="1" class="Black" />
  </g>
</svg>