<?xml version='1.0' encoding='UTF-8'?>
<svg viewBox="-5.5003 -2 32 32" xmlns="http://www.w3.org/2000/svg">
  <g transform="matrix(0.0547, 0, 0, 0.0547, 0, 0)">
    <path d="M104, 192L280, 192A8 8 0 0 0 288, 184L288, 168A8 8 0 0 0 280, 160L104, 160A8 8 0 0 0 96, 168L96, 184A8 8 0 0 0 104, 192zM352, 96L320, 96L320, 80A16 16 0 0 0 304, 64L272, 64A16 16 0 0 0 256, 80L256, 96L224, 96L224, 80A16 16 0 0 0 208, 64L176, 64A16 16 0 0 0 160, 80L160, 96L96, 96L96, 8A8 8 0 0 0 88, 0L72, 0A8 8 0 0 0 64, 8L64, 96L32, 96A32.09 32.09 0 0 0 0, 128L0, 306.74A32 32 0 0 0 9.38, 329.37L32, 352L32, 464A48 48 0 0 0 80, 512L304, 512A48 48 0 0 0 352, 464L352, 352L374.62, 329.37A32 32 0 0 0 384, 306.74L384, 128A32.09 32.09 0 0 0 352, 96zM352, 306.75L329.37, 329.37L320, 338.75L320, 464A16 16 0 0 1 304, 480L80, 480A16 16 0 0 1 64, 464L64, 338.75L54.63, 329.37L32, 306.74L32, 128L352, 128zM104, 256L280, 256A8 8 0 0 0 288, 248L288, 232A8 8 0 0 0 280, 224L104, 224A8 8 0 0 0 96, 232L96, 248A8 8 0 0 0 104, 256zM104, 320L280, 320A8 8 0 0 0 288, 312L288, 296A8 8 0 0 0 280, 288L104, 288A8 8 0 0 0 96, 296L96, 312A8 8 0 0 0 104, 320z" fill="#727272" fill-opacity="1" class="Black" />
  </g>
</svg>