<?xml version='1.0' encoding='UTF-8'?>
<svg viewBox="-3.7495 -2.0524 32 31.9975" xmlns="http://www.w3.org/2000/svg">
  <g transform="matrix(0.0547, 0, 0, 0.0547, 0, 0)">
    <path d="M384, -1L64, -1A64 64 0 0 0 0, 63L0, 479A32 32 0 0 0 32, 511L416, 511A32 32 0 0 0 448, 479L448, 63A64 64 0 0 0 384, -1zM416, 479L32, 479L32, 63A32 32 0 0 1 64, 31L384, 31A32 32 0 0 1 416, 63zM80, 95A16 16 0 1 0 64, 79A16 16 0 0 0 80, 95zM144, 95A16 16 0 1 0 128, 79A16 16 0 0 0 144, 95zM224, 127A160 160 0 1 0 384, 287A160 160 0 0 0 224, 127zM224, 415A128 128 0 1 1 352, 287A128.14 128.14 0 0 1 224, 415zM260.87, 283.34A51.23 51.23 0 0 1 187.13, 283.34A51.81 51.81 0 0 1 150, 299C142.29, 299 135.26, 296.85 128.69, 293.84C132.27, 343.53 173.41, 383 224, 383C274.59, 383 315.73, 343.53 319.31, 293.84C312.74, 296.84 305.71, 299 298, 299A51.81 51.81 0 0 1 260.87, 283.34z" fill="#727272" fill-opacity="1" class="Black" />
  </g>
</svg>