<?xml version='1.0' encoding='UTF-8'?>
<svg viewBox="-5.5003 -2 32 32" xmlns="http://www.w3.org/2000/svg">
  <g transform="matrix(0.0547, 0, 0, 0.0547, 0, 0)">
    <path d="M320, 112.9L320, 24C320, 10.8 309.2, 0 296, 0L88, 0C74.8, 0 64, 10.8 64, 24L64, 112.9C24.7, 148.1 0, 199.1 0, 256C0, 312.9 24.7, 363.9 64, 399.1L64, 488C64, 501.2 74.8, 512 88, 512L296, 512C309.2, 512 320, 501.2 320, 488L320, 399.1C359.3, 363.9 384, 312.9 384, 256C384, 199.1 359.3, 148.1 320, 112.9zM96, 32L288, 32L288, 89.7C259.8, 73.3 227, 64 192, 64C157, 64 124.2, 73.3 96, 89.7L96, 32zM288, 480L96, 480L96, 422.3C124.2, 438.6 157, 448 192, 448C227, 448 259.8, 438.6 288, 422.3L288, 480zM192, 416C103.4, 416 32, 344.2 32, 256C32, 167.8 103.5, 96 192, 96C280.4, 96 352, 167.6 352, 256C352, 344.4 280.4, 416 192, 416zM241, 323.8L180.9, 280.1C177.8, 277.8 176, 274.2 176, 270.4L176, 150.3C176, 143.7 181.4, 138.3 188, 138.3L196, 138.3C202.6, 138.3 208, 143.7 208, 150.3L208, 260.2L259.8, 297.9C265.2, 301.8 266.3, 309.3 262.4, 314.7L257.7, 321.2C253.9, 326.5 246.4, 327.7 241, 323.8z" fill="#727272" fill-opacity="1" class="Black" />
  </g>
</svg>