<?xml version='1.0' encoding='UTF-8'?>
<svg viewBox="-1.9998 -3.5572 31.9975 32" xmlns="http://www.w3.org/2000/svg">
  <g transform="matrix(0.0486, 0, 0, 0.0486, 0, 0)">
    <path d="M568.3, 416C538.8, 414.5 510.6, 404.4 490.1, 387.7C484.2, 382.9 475.8, 382.9 469.9, 387.8C426.2, 423.7 342.9, 424.1 298.1, 387.7C292.2, 382.9 283.8, 382.9 277.9, 387.8C234.2, 423.7 150.9, 424.1 106.1, 387.7C100.2, 382.9 91.8, 383 85.9, 387.8C65.7, 404.4 37.5, 414.5 7.7, 416C3.4, 416.2 0, 419.6 0, 423.9L0, 439.9C0, 444.4 3.8, 448.2 8.3, 448C40.6, 446.5 71.6, 436.6 96.1, 420.1C149.9, 456.2 235.3, 455.9 288.1, 420.1C341.8, 456.2 427.3, 455.9 480.1, 420.1C504.7, 436.6 535.7, 446.5 567.7, 448C572.2, 448.2 576, 444.4 576, 439.9L576, 423.9C576, 419.6 572.6, 416.2 568.3, 416zM568.3, 309.3C538.8, 307.8 510.6, 297.7 490.1, 281C484.2, 276.2 475.8, 276.2 469.9, 281.1C426.2, 317 342.9, 317.4 298.1, 281C292.2, 276.2 283.8, 276.2 277.9, 281.1C234.2, 317 150.9, 317.4 106.1, 281C100.2, 276.2 91.8, 276.3 85.9, 281.1C65.7, 297.7 37.6, 307.8 7.8, 309.3C3.5, 309.5 0.1, 312.9 0.1, 317.2L0.1, 333.2C0.1, 337.7 3.9, 341.5 8.4, 341.3C40.7, 339.8 71.7, 329.9 96.2, 313.4C150, 349.5 235.4, 349.2 288.2, 313.4C341.9, 349.5 427.4, 349.2 480.2, 313.4C504.8, 329.9 535.8, 339.8 567.8, 341.3C572.3, 341.5 576.1, 337.7 576.1, 333.2L576.1, 317.2C576, 312.9 572.6, 309.5 568.3, 309.3zM568.3, 202.6C538.8, 201.1 510.6, 191 490.1, 174.3C484.2, 169.5 475.8, 169.5 469.9, 174.4C426.2, 210.3 342.9, 210.7 298.1, 174.3C292.2, 169.5 283.8, 169.5 277.9, 174.4C234.2, 210.3 150.9, 210.7 106.1, 174.3C100.2, 169.5 91.8, 169.6 85.9, 174.4C65.7, 191 37.5, 201.1 7.7, 202.6C3.4, 202.8 0, 206.2 0, 210.5L0, 226.5C0, 231 3.8, 234.8 8.3, 234.6C40.6, 233.1 71.6, 223.2 96.1, 206.7C149.9, 242.8 235.3, 242.5 288.1, 206.7C341.8, 242.8 427.3, 242.5 480.1, 206.7C504.7, 223.2 535.7, 233.1 567.7, 234.6C572.2, 234.8 576, 231 576, 226.5L576, 210.5C576, 206.2 572.6, 202.8 568.3, 202.6zM568.3, 95.9C538.8, 94.4 510.6, 84.3 490.1, 67.6C484.2, 62.8 475.8, 62.8 469.9, 67.7C426.2, 103.6 342.9, 104 298.1, 67.6C292.2, 62.8 283.8, 62.8 277.9, 67.7C234.2, 103.6 150.9, 104 106.1, 67.6C100.2, 62.8 91.8, 62.9 85.9, 67.7C65.7, 84.3 37.5, 94.4 7.7, 95.9C3.4, 96.1 0, 99.5 0, 103.8L0, 119.8C0, 124.3 3.8, 128.1 8.3, 127.9C40.6, 126.4 71.6, 116.5 96.1, 100C149.9, 136.1 235.3, 135.8 288.1, 100C341.8, 136.1 427.3, 135.8 480.1, 100C504.7, 116.5 535.7, 126.4 567.7, 127.9C572.2, 128.1 576, 124.3 576, 119.8L576, 103.8C576, 99.5 572.6, 96.1 568.3, 95.9z" fill="#727272" fill-opacity="1" class="Black" />
  </g>
</svg>