<?xml version='1.0' encoding='UTF-8'?>
<svg viewBox="-2 -3.5575 32 32" xmlns="http://www.w3.org/2000/svg">
  <g transform="matrix(0.0486, 0, 0, 0.0486, 0, 0)">
    <path d="M197.7, 117.7C200.8, 120.8 205.9, 120.8 209, 117.7L272, 54.7L272, 248.1C272, 252.5 275.6, 256.1 280, 256.1L296, 256.1C300.4, 256.1 304, 252.5 304, 248.1L304, 54.6L367, 117.6C370.1, 120.7 375.2, 120.7 378.3, 117.6L389.6, 106.3C392.7, 103.2 392.7, 98.1 389.6, 95L299.3, 4.7C296.2, 1.6 292.1, 0 288, 0C283.9, 0 279.8, 1.6 276.7, 4.7L186.4, 95.1C183.3, 98.2 183.3, 103.3 186.4, 106.4L197.7, 117.7zM568.3, 480C538.8, 478.5 510.6, 468.4 490.1, 451.7C484.2, 446.9 475.8, 446.9 469.9, 451.8C426.2, 487.7 342.9, 488.1 298.1, 451.7C292.2, 446.9 283.8, 446.9 277.9, 451.8C234.2, 487.7 150.9, 488.1 106.1, 451.7C100.2, 446.9 91.8, 447 85.9, 451.8C65.7, 468.4 37.5, 478.5 7.7, 480C3.4, 480.2 0, 483.6 0, 487.9L0, 503.9C0, 508.4 3.8, 512.2 8.3, 512C40.6, 510.5 71.6, 500.6 96.1, 484.1C149.9, 520.2 235.3, 519.9 288.1, 484.1C341.8, 520.2 427.3, 519.9 480.1, 484.1C504.7, 500.6 535.7, 510.5 567.7, 512C572.2, 512.2 576, 508.4 576, 503.9L576, 487.9C576, 483.6 572.6, 480.2 568.3, 480zM568.3, 351.9C538.8, 350.4 510.6, 340.3 490.1, 323.6C484.2, 318.8 475.8, 318.8 469.9, 323.7C426.2, 359.6 342.9, 360 298.1, 323.6C292.2, 318.8 283.8, 318.8 277.9, 323.7C234.2, 359.6 150.9, 360 106.1, 323.6C100.2, 318.8 91.8, 318.9 85.9, 323.7C65.7, 340.3 37.6, 350.4 7.8, 351.9C3.5, 352.1 0.1, 355.5 0.1, 359.8L0.1, 375.8C0.1, 380.3 3.9, 384.1 8.4, 383.9C40.7, 382.4 71.7, 372.5 96.2, 356C150, 392.1 235.4, 391.8 288.2, 356C341.9, 392.1 427.4, 391.8 480.2, 356C504.8, 372.5 535.8, 382.4 567.8, 383.9C572.3, 384.1 576.1, 380.3 576.1, 375.8L576.1, 359.8C576, 355.5 572.6, 352.2 568.3, 351.9z" fill="#727272" fill-opacity="1" class="Black" />
  </g>
</svg>