<?xml version='1.0' encoding='UTF-8'?>
<svg viewBox="-2 -4.7992 32 32" xmlns="http://www.w3.org/2000/svg">
  <g transform="matrix(0.9988, 0, 0, 0.9988, 0, 0)">
    <g transform="matrix(0.0438, 0, 0, 0.0438, 0, 0)">
      <path d="M632, 240L496, 240A32 32 0 0 0 464, 272L464, 448L336, 448L336, 64A32 32 0 0 0 304, 32L176, 32A32 32 0 0 0 144, 64L144, 240L8, 240A8 8 0 0 0 0, 248L0, 264A8 8 0 0 0 8, 272L144, 272A32 32 0 0 0 176, 240L176, 64L304, 64L304, 448A32 32 0 0 0 336, 480L464, 480A32 32 0 0 0 496, 448L496, 272L632, 272A8 8 0 0 0 640, 264L640, 248A8 8 0 0 0 632, 240z" fill="#727272" fill-opacity="1" class="Black" />
    </g>
  </g>
</svg>