<?xml version='1.0' encoding='UTF-8'?>
<svg viewBox="-2 -4.7992 32 32" xmlns="http://www.w3.org/2000/svg">
  <g transform="matrix(0.9988, 0, 0, 0.9988, 0, 0)">
    <g transform="matrix(0.0438, 0, 0, 0.0438, 0, 0)">
      <path d="M632, 276L570.28, 276L555.84, 182.17A12 12 0 0 0 544.25, 172C539.56, 172.11 533.34, 176.11 532.25, 181.66L498, 353L459.88, 86.3A12 12 0 0 0 436.12, 86.14L385, 412.42L331.94, 10.42A12 12 0 0 0 308.12, 10.42L255, 412.42L203.88, 86.14A12 12 0 0 0 180.12, 86.3L142, 353L107.75, 181.64C106.59, 175.83 99.88, 172.11 95.56, 172A12 12 0 0 0 84.12, 182.17L69.72, 276L8, 276A8 8 0 0 0 0, 284L0, 292A8 8 0 0 0 8, 300L80, 300A12 12 0 0 0 91.84, 289.83L97.56, 252.92L132.25, 426.36C133.41, 432.28 137.81, 435.7 144.62, 436A11.92 11.92 0 0 0 155.88, 425.7L192.56, 169L244.12, 501.91C244.62, 504.99 246.75, 512.05 255.72, 512.05L256.09, 512.05A12.09 12.09 0 0 0 267.91, 501.63L320, 106.78L372.09, 501.58A12 12 0 0 0 395.88, 501.86L447.44, 169L484.12, 425.7A12 12 0 0 0 495.69, 436C500.44, 435.75 506.5, 432.61 507.78, 426.34L542.44, 252.92L548.16, 289.83A11.88 11.88 0 0 0 560, 300L632, 300A8 8 0 0 0 640, 292L640, 284A8 8 0 0 0 632, 276z" fill="#727272" fill-opacity="1" class="Black" />
    </g>
  </g>
</svg>