<?xml version='1.0' encoding='UTF-8'?>
<svg viewBox="-1.2607 -4.21 31.9975 32" xmlns="http://www.w3.org/2000/svg">
  <g transform="matrix(0.9989, 0, 0, 0.9989, 0, 0)">
    <g transform="matrix(0.0461, 0, 0, 0.0461, 0, 0)">
      <path d="M232, 96L216, 96A8 8 0 0 0 208, 104L208, 408A8 8 0 0 0 216, 416L232, 416A8 8 0 0 0 240, 408L240, 104A8 8 0 0 0 232, 96zM136, 192L120, 192A8 8 0 0 0 112, 200L112, 312A8 8 0 0 0 120, 320L136, 320A8 8 0 0 0 144, 312L144, 200A8 8 0 0 0 136, 192zM40, 224L24, 224A8 8 0 0 0 16, 232L16, 280A8 8 0 0 0 24, 288L40, 288A8 8 0 0 0 48, 280L48, 232A8 8 0 0 0 40, 224zM424, 128L408, 128A8 8 0 0 0 400, 136L400, 376A8 8 0 0 0 408, 384L424, 384A8 8 0 0 0 432, 376L432, 136A8 8 0 0 0 424, 128zM616, 224L600, 224A8 8 0 0 0 592, 232L592, 280A8 8 0 0 0 600, 288L616, 288A8 8 0 0 0 624, 280L624, 232A8 8 0 0 0 616, 224zM520, 64L504, 64A8 8 0 0 0 496, 72L496, 440A8 8 0 0 0 504, 448L520, 448A8 8 0 0 0 528, 440L528, 72A8 8 0 0 0 520, 64zM328, 0L312, 0A8 8 0 0 0 304, 8L304, 504A8 8 0 0 0 312, 512L328, 512A8 8 0 0 0 336, 504L336, 8A8 8 0 0 0 328, 0z" fill="#727272" fill-opacity="1" class="Black" />
    </g>
  </g>
</svg>