<?xml version='1.0' encoding='UTF-8'?>
<svg viewBox="-2 -2 32 32" xmlns="http://www.w3.org/2000/svg">
  <g transform="matrix(0.0547, 0, 0, 0.0547, 0, 0)">
    <path d="M510.28, 445.86L437.25, 153.73C433.45, 138.54 420.81, 128.01 406.38, 128.01L319.64, 128.01C329.77, 114.6 336, 98.09 336, 80C336, 35.82 300.18, 0 256, 0C211.82, 0 176, 35.82 176, 80C176, 98.09 182.23, 114.6 192.36, 128L105.62, 128C91.19, 128 78.54, 138.54 74.75, 153.72L1.72, 445.86C-6.61, 479.17 16.38, 512 48.03, 512L463.98, 512C495.62, 512 518.61, 479.17 510.28, 445.86zM208, 80C208, 53.53 229.53, 32 256, 32C282.47, 32 304, 53.53 304, 80C304, 106.47 282.47, 128 256, 128C229.53, 128 208, 106.47 208, 80zM475.27, 473.92C473.1, 476.69 469.39, 480 463.97, 480L48.03, 480C42.61, 480 38.9, 476.7 36.73, 473.92C32.44, 468.43 30.96, 460.84 32.77, 453.62L105.8, 161.49C106.01, 160.66 106.32, 160.17 106.23, 160.01L405.54, 160.01C405.74, 160.27 406.01, 160.73 406.2, 161.49L479.23, 453.62C481.04, 460.84 479.56, 468.43 475.27, 473.92z" fill="#727272" fill-opacity="1" class="Black" />
  </g>
</svg>