<?xml version='1.0' encoding='UTF-8'?>
<svg viewBox="-3.7494 -1.9974 32 31.9975" xmlns="http://www.w3.org/2000/svg">
  <g transform="matrix(0.0547, 0, 0, 0.0547, 0, 0)">
    <path d="M443.875, 396.323L447.026, 403.676C449.637, 409.768 446.815, 416.822 440.723, 419.433L398.302, 438.706C390.644, 441.99 380.957, 439.006 377.127, 429.909L317.376, 288L176, 288A16 16 0 0 1 160.161, 274.263C125.779, 33.586 128.211, 51.165 128, 48C128, 20.87 150.508, -1.003 177.87, 0.036C202.748, 0.981 223.02, 21.252 223.965, 46.13C225.004, 73.491 203.131, 96 176, 96C172.885, 96 169.844, 95.693 166.895, 95.126L176.162, 160L308, 160C314.627, 160 320, 165.373 320, 172L320, 180C320, 186.627 314.627, 192 308, 192L180.734, 192L189.877, 256L328, 256A16 16 0 0 1 342.746, 265.791L400.498, 402.95L428.119, 390.021C434.21, 387.41 441.265, 390.232 443.875, 396.323zM316.387, 368.112C301.755, 432.107 244.366, 480 176, 480C96.599, 480 32, 415.401 32, 336C32, 277.286 67.326, 226.675 117.836, 204.283L113.165, 171.604C47.059, 196.957 0, 261.081 0, 336C0, 433.047 78.953, 512 176, 512C245.906, 512 306.418, 471.031 334.801, 411.845L316.387, 368.112z" fill="#727272" fill-opacity="1" class="Black" />
  </g>
</svg>