<?xml version='1.0' encoding='UTF-8'?>
<svg viewBox="-2 -4.8868 32 32" xmlns="http://www.w3.org/2000/svg">
  <g transform="matrix(1.0011, 0, 0, 1.0011, 0, 0)">
    <g transform="matrix(0.0437, 0, 0, 0.0437, 0, 0)">
      <path d="M210, 189.4C174.3, 189.4 145.4, 218.3 145.4, 254C145.4, 289.7 174.3, 318.6 210, 318.6C245.7, 318.6 274.6, 289.7 274.6, 254C274.6, 218.3 245.7, 189.4 210, 189.4zM210, 286.3C192.2, 286.3 177.7, 271.8 177.7, 254C177.7, 236.2 192.2, 221.7 210, 221.7C227.8, 221.7 242.3, 236.2 242.3, 254C242.3, 271.8 227.8, 286.3 210, 286.3zM464.2, 202.6L436.5, 219C433.6, 220.7 430, 220.5 427.3, 218.4L401.9, 198C399.2, 195.9 398.2, 192.3 399.3, 189.1L409.6, 159.3C411.8, 152.8 409.7, 145.7 404.4, 141.4C336.4, 87 296.6, 44.1 209.9, 44.1C176.9, 44.1 143.9, 51.9 113.8, 67.4C101.5, 52.8 83.8, 44 64.6, 44C29, 44 0, 73 0, 108.6C0, 128.1 8.7, 146.1 23.2, 158.2C-17.3, 237.2 -4.6, 336.4 61.5, 402.5C102.5, 443.5 156.2, 464 210, 464C263.8, 464 317.5, 443.5 358.5, 402.5C368.6, 392.4 377.4, 381.6 385, 370.1L536.9, 456.9C544, 460.9 552.9, 459.1 557.8, 452.6L636.8, 347.3C642, 340.3 640.8, 330.4 634, 325L482.5, 203.8C477.3, 199.6 470, 199.1 464.2, 202.6zM32.3, 108.6C32.3, 90.8 46.8, 76.3 64.6, 76.3C72.7, 76.3 80.4, 79.3 86.2, 84.6C77.6, 90.9 69.2, 97.7 61.5, 105.5C53.8, 113.2 47.1, 121.5 40.8, 130C35.6, 124.2 32.3, 116.8 32.3, 108.6zM544.8, 416.1C542.4, 419.4 537.9, 420.3 534.3, 418.3L374.8, 327.1C361.6, 347 317.8, 431.3 210.7, 431.7C52.7, 432.3 -27.6, 240.3 84.3, 128.4C166.6, 46.1 267.7, 80.4 304.8, 103.9C314, 110.6 375.3, 159.5 375.3, 159.5L363.2, 194.7C361, 201.2 363.1, 208.3 368.4, 212.6L420.3, 254.1C425.5, 258.3 432.8, 258.8 438.6, 255.4L471.1, 236.2L595.5, 335.7C598.9, 338.4 599.5, 343.4 596.9, 346.9L544.8, 416.1z" fill="#727272" fill-opacity="1" class="Black" />
    </g>
  </g>
</svg>