<?xml version='1.0' encoding='UTF-8'?>
<svg viewBox="-1.9975 -4.7995 32 32" xmlns="http://www.w3.org/2000/svg">
  <g transform="matrix(1.0012, 0, 0, 1.0012, 0, 0)">
    <g transform="matrix(0.0437, 0, 0, 0.0437, 0, 0)">
      <path d="M324.2, 320.4C322.8, 320.3 321.4, 320 320, 320C275.8, 320 240, 355.8 240, 400C240, 444.2 275.8, 480 320, 480C364.2, 480 400, 444.2 400, 400C400, 392 398.5, 384.5 396.3, 377.2zM320, 448C293.5, 448 272, 426.5 272, 400C272, 373.5 293.5, 352 320, 352C346.5, 352 368, 373.5 368, 400C368, 426.5 346.5, 448 320, 448zM3.8, 158C-1.1, 162.7 -1.3, 170.5 3.5, 175.3L9.2, 181C13.8, 185.6 21.3, 185.7 26, 181.3C45.1, 163.2 65.5, 147.4 86.8, 133.5L60.4, 112.7C40.8, 126.3 21.7, 141 3.8, 158zM614, 181.3C618.7, 185.8 626.2, 185.7 630.8, 181L636.5, 175.3C641.3, 170.5 641.2, 162.7 636.2, 158C503.6, 32.2 314.1, 0.6 152.9, 63.3L183.1, 87.1C328.9, 37.9 495.8, 69.2 614, 181.3zM316.5, 192.1L361.1, 227.3C412.9, 235 462.9, 257.1 504.4, 294C509.2, 298.3 516.6, 298 521, 293.3L526.5, 287.5C531.2, 282.6 530.9, 274.8 525.8, 270.3C466.4, 217.3 391.4, 191.3 316.5, 192.1zM637, 485.2L23, 1.8C19.6, -1 14.5, -0.5 11.8, 3L1.8, 15.5C-1, 19 -0.4, 24 3, 26.7L617, 510.2C620.4, 513 625.5, 512.4 628.2, 509L638.2, 496.5C641, 493 640.5, 488 637, 485.2zM114, 270.3C109, 274.8 108.7, 282.6 113.4, 287.5L118.9, 293.3C123.4, 298 130.7, 298.3 135.6, 294C161.4, 271 191.3, 253.1 223.7, 241.2L195, 218.6C166, 231.3 138.6, 248.4 114, 270.3z" fill="#727272" fill-opacity="1" class="Black" />
    </g>
  </g>
</svg>