<?xml version='1.0' encoding='UTF-8'?>
<svg viewBox="-4.8995 -1.995 32 31.9975" xmlns="http://www.w3.org/2000/svg">
  <g transform="matrix(0.0547, 0, 0, 0.0547, 0, 0)">
    <path d="M323.48, 430.84A45.94 45.94 0 0 0 401.42, 383.84L333.68, 228.26A16.75 16.75 0 0 1 333.46, 215.37L393.92, 62.7A45.82 45.82 0 0 0 314.18, 19L218, 152.06A16.9 16.9 0 0 1 207, 158.8L39.45, 185.34A45.93 45.93 0 0 0 41.69, 276.34L207, 294.27L195, 480L162.7, 480A36.94 36.94 0 0 0 129.7, 500.42A8 8 0 0 0 136.81, 512L376.81, 512A8 8 0 0 0 383.96, 500.42A36.93 36.93 0 0 0 350.96, 480L318.63, 480L314.77, 420.42L321.77, 428.72zM227, 480L236.83, 328.36L279.99, 379.36L286.56, 480zM244, 280.54A48.85 48.85 0 0 0 211.16, 262.54L45.16, 244.54A13.83 13.83 0 0 1 32.81, 231.1L32.81, 230.9A13.82 13.82 0 0 1 44.46, 216.9L212, 190.41A48.75 48.75 0 0 0 243.91, 170.81L340.11, 37.72A13.83 13.83 0 0 1 364.17, 50.91L303.71, 203.59A48.77 48.77 0 0 0 304.35, 241.04L372.08, 396.56A13.82 13.82 0 0 1 366.59, 413.89L366.42, 413.99A13.83 13.83 0 0 1 348.42, 410.82zM256.8, 200A24 24 0 1 0 280.8, 224A24 24 0 0 0 256.8, 200z" fill="#727272" fill-opacity="1" class="Black" />
  </g>
</svg>