<?xml version='1.0' encoding='UTF-8'?>
<svg viewBox="-2 -4.798 32 32" xmlns="http://www.w3.org/2000/svg">
  <g transform="matrix(0.9988, 0, 0, 0.9988, 0, 0)">
    <g transform="matrix(0.0438, 0, 0, 0.0438, 0, 0)">
      <path d="M192, 0C86, 0 0, 86 0, 192C0, 298 86, 384 192, 384C298, 384 384, 298 384, 192C384, 86 298, 0 192, 0zM192, 352C103.8, 352 32, 280.2 32, 192C32, 103.8 103.8, 32 192, 32C280.2, 32 352, 103.8 352, 192C352, 280.2 280.2, 352 192, 352zM183.5, 208L200.5, 208C204.7, 208 208.2, 204.7 208.5, 200.5L215.5, 88.5C215.8, 83.9 212.1, 80 207.5, 80L176.5, 80C171.9, 80 168.2, 83.9 168.5, 88.5L175.5, 200.5C175.8, 204.7 179.3, 208 183.5, 208zM192, 232C178.7, 232 168, 242.7 168, 256C168, 269.3 178.7, 280 192, 280C205.3, 280 216, 269.3 216, 256C216, 242.7 205.3, 232 192, 232zM539.7, 320L375.6, 320C367.6, 331.5 358.5, 342.2 348.5, 352L540.9, 352C574.3, 352 604.2, 376.4 607.4, 409.6C611.1, 447.7 581.1, 480 543.7, 480C510.9, 480 483.8, 455.2 480.1, 423.5C479.6, 419.3 476.4, 416.1 472.2, 416.1L456.1, 416.1C451.5, 416.1 447.7, 420 448.1, 424.5C452.4, 473.6 493.6, 512.1 543.7, 512.1C597.7, 512.1 641.3, 467.5 639.7, 413.2C638.1, 360.5 592.2, 320 539.7, 320zM637.8, 171.3C630.2, 135 600.9, 105.7 564.6, 98.1C505.5, 85.8 453.1, 127.9 448.3, 183.5C447.9, 188.1 451.8, 191.9 456.3, 191.9L472.5, 191.9C476.7, 191.9 479.9, 188.6 480.4, 184.5C484.6, 147.9 519.9, 120.7 559.1, 129.7C582.2, 135 600.9, 153.8 606.3, 176.9C615.9, 218.7 584.2, 256 544, 256L406.6, 256C403.3, 267.1 399, 277.7 394.1, 288L544, 288C603.8, 288 650.8, 233.4 637.8, 171.3z" fill="#727272" fill-opacity="1" class="Black" />
    </g>
  </g>
</svg>