<?xml version='1.0' encoding='UTF-8'?>
<svg viewBox="-2 -1.9988 32 32" xmlns="http://www.w3.org/2000/svg">
  <g transform="matrix(0.0547, 0, 0, 0.0547, 0, 0)">
    <path d="M96, 160C78.3, 160 64, 145.7 64, 128C64, 110.3 78.3, 96 96, 96C113.7, 96 128, 110.3 128, 128C128, 145.7 113.7, 160 96, 160zM224, 128C224, 110.3 209.7, 96 192, 96C174.3, 96 160, 110.3 160, 128C160, 145.7 174.3, 160 192, 160C209.7, 160 224, 145.7 224, 128zM320, 128C320, 110.3 305.7, 96 288, 96C270.3, 96 256, 110.3 256, 128C256, 145.7 270.3, 160 288, 160C305.7, 160 320, 145.7 320, 128zM512, 80L512, 432C512, 458.5 490.5, 480 464, 480L48, 480C21.5, 480 0, 458.5 0, 432L0, 80C0, 53.5 21.5, 32 48, 32L464, 32C490.5, 32 512, 53.5 512, 80zM480, 224L32, 224L32, 432C32, 440.8 39.2, 448 48, 448L464, 448C472.8, 448 480, 440.8 480, 432L480, 224zM480, 192L480, 80C480, 71.2 472.8, 64 464, 64L48, 64C39.2, 64 32, 71.2 32, 80L32, 192L480, 192z" fill="#727272" fill-opacity="1" class="Black" />
  </g>
</svg>