<?xml version='1.0' encoding='UTF-8'?>
<svg viewBox="-2 -2 32 32" xmlns="http://www.w3.org/2000/svg">
  <g transform="matrix(0.0547, 0, 0, 0.0547, 0, 0)">
    <path d="M497.3, 158L64, 100.3L64, 93.1C82.6, 86.5 96, 68.9 96, 48C96, 21.5 74.5, 0 48, 0C21.5, 0 0, 21.5 0, 48C0, 68.9 13.4, 86.5 32, 93.1L32, 503.4C32, 508.2 35.6, 512 40, 512L56, 512C60.4, 512 64, 508.1 64, 503.4L64, 403.7L497.3, 346C505.7, 344.9 512, 338.1 512, 330.2L512, 173.9C512, 165.9 505.7, 159.2 497.3, 158zM48, 32C56.8, 32 64, 39.2 64, 48C64, 56.8 56.8, 64 48, 64C39.2, 64 32, 56.8 32, 48C32, 39.2 39.2, 32 48, 32zM304, 164.5L384, 175.2L384, 328.8L304, 339.5L304, 164.5zM272, 343.7L176, 356.5L176, 147.5L272, 160.3L272, 343.7zM64, 132.5L144, 143.2L144, 360.8L64, 371.5L64, 132.5zM480, 316L416, 324.5L416, 179.5L480, 188L480, 316z" fill="#727272" fill-opacity="1" class="Black" />
  </g>
</svg>