<?xml version='1.0' encoding='UTF-8'?>
<svg viewBox="-5.9988 0 32 32" xmlns="http://www.w3.org/2000/svg">
  <g transform="matrix(0.0625, 0, 0, 0.0625, 0, 0)">
    <path d="M307.982, 32L285.457, 32A12 12 0 0 0 275.059, 38.01L187.722, 191.316C174.34, 216.808 160.32, 248.034 160.32, 248.034L159.046, 248.034C159.046, 248.034 145.026, 216.808 131.643, 191.316L45.038, 38.042A12 12 0 0 0 34.621, 32L12.018, 32C2.781, 32 -2.992, 41.998 1.624, 49.998L100.974, 224L44, 224C37.373, 224 32, 229.373 32, 236L32, 244C32, 250.627 37.373, 256 44, 256L119.442, 256L138.015, 288.182L138.015, 320L44, 320C37.373, 320 32, 325.373 32, 332L32, 340C32, 346.627 37.373, 352 44, 352L138.014, 352L138.014, 468C138.014, 474.627 143.387, 480 150.014, 480L170.622, 480C177.249, 480 182.622, 474.627 182.622, 468L182.622, 352L276, 352C282.627, 352 288, 346.627 288, 340L288, 332C288, 325.373 282.627, 320 276, 320L182.623, 320L182.623, 288.182L200.323, 256L276, 256C282.627, 256 288, 250.627 288, 244L288, 236C288, 229.373 282.627, 224 276, 224L217.938, 224L318.35, 50.042C323.012, 42.042 317.241, 32 307.982, 32z" fill="#727272" fill-opacity="1" class="Black" />
  </g>
</svg>