<?xml version='1.0' encoding='UTF-8'?>
<svg viewBox="-1.9999 -1.549 31.9975 32" xmlns="http://www.w3.org/2000/svg">
  <g transform="matrix(0.999, 0, 0, 0.999, 0, 0)">
    <g transform="matrix(0.0565, 0, 0, 0.0565, 0, 0)">
      <path d="M232, 192C258.47, 192 280, 170.47 280, 144C280, 117.53 258.47, 96 232, 96C205.53, 96 184, 117.53 184, 144C184, 170.47 205.53, 192 232, 192zM232, 128C240.81, 128 248, 135.17 248, 144C248, 152.83 240.81, 160 232, 160C223.19, 160 216, 152.83 216, 144C216, 135.17 223.19, 128 232, 128zM264, 320C237.53, 320 216, 341.53 216, 368C216, 394.47 237.53, 416 264, 416C290.47, 416 312, 394.47 312, 368C312, 341.53 290.47, 320 264, 320zM264, 384C255.19, 384 248, 376.83 248, 368C248, 359.17 255.19, 352 264, 352C272.81, 352 280, 359.17 280, 368C280, 376.83 272.81, 384 264, 384zM248, 8C111.03, 8 0, 119.03 0, 256C0, 392.97 111.03, 504 248, 504C384.75, 504 496, 392.75 496, 256C496, 119.25 384.75, 8 248, 8zM32, 256C32, 136.9 128.9, 40 248, 40C303.12, 40 348, 84.86 348, 140C348, 195.14 303.12, 240 248, 240C175.22, 240 116, 299.22 116, 372C116, 396.96 123.37, 420.08 135.46, 440.01C73.53, 401.99 32, 333.84 32, 256zM248, 472C192.88, 472 148, 427.14 148, 372C148, 316.86 192.88, 272 248, 272C320.78, 272 380, 212.78 380, 140C380, 115.17 373.12, 91.92 361.16, 72.06C422.81, 110.14 464, 178.34 464, 256C464, 375.11 367.09, 472 248, 472z" fill="#727272" fill-opacity="1" class="Black" />
    </g>
  </g>
</svg>