<?xml version='1.0' encoding='UTF-8'?>
<svg viewBox="-1.9999 -3.5552 32 32" xmlns="http://www.w3.org/2000/svg">
  <g transform="matrix(0.0486, 0, 0, 0.0486, 0, 0)">
    <defs>
      <style>.fa-secondary{opacity:.4}</style>
    </defs>
    <path d="M192, 440L160, 440L160, 392L192, 392zM160, 72L160, 120L192, 120L192, 72zM256, 232L256, 280L288, 280L288, 232zM160, 232L160, 280L192, 280L192, 232zM256, 440L416, 440L416, 392L256, 392zM352, 280L480, 280L480, 232L352, 232zM544, 0A32 32 0 0 0 512, 32L512, 496A16 16 0 0 0 528, 512L560, 512A16 16 0 0 0 576, 496L576, 32A32 32 0 0 0 544, 0zM416, 72L256, 72L256, 120L416, 120zM32, 0A32 32 0 0 0 0, 32L0, 496A16 16 0 0 0 16, 512L48, 512A16 16 0 0 0 64, 496L64, 32A32 32 0 0 0 32, 0z" fill="#727272" opacity="0.4" fill-opacity="1" class="Black" />
    <path d="M144, 32L112, 32A16 16 0 0 0 96, 48L96, 144A16 16 0 0 0 112, 160L144, 160A16 16 0 0 0 160, 144L160, 48A16 16 0 0 0 144, 32zM240, 32L208, 32A16 16 0 0 0 192, 48L192, 144A16 16 0 0 0 208, 160L240, 160A16 16 0 0 0 256, 144L256, 48A16 16 0 0 0 240, 32zM144, 192L112, 192A16 16 0 0 0 96, 208L96, 304A16 16 0 0 0 112, 320L144, 320A16 16 0 0 0 160, 304L160, 208A16 16 0 0 0 144, 192zM336, 192L304, 192A16 16 0 0 0 288, 208L288, 304A16 16 0 0 0 304, 320L336, 320A16 16 0 0 0 352, 304L352, 208A16 16 0 0 0 336, 192zM240, 192L208, 192A16 16 0 0 0 192, 208L192, 304A16 16 0 0 0 208, 320L240, 320A16 16 0 0 0 256, 304L256, 208A16 16 0 0 0 240, 192zM464, 32L432, 32A16 16 0 0 0 416, 48L416, 144A16 16 0 0 0 432, 160L464, 160A16 16 0 0 0 480, 144L480, 48A16 16 0 0 0 464, 32zM144, 352L112, 352A16 16 0 0 0 96, 368L96, 464A16 16 0 0 0 112, 480L144, 480A16 16 0 0 0 160, 464L160, 368A16 16 0 0 0 144, 352zM240, 352L208, 352A16 16 0 0 0 192, 368L192, 464A16 16 0 0 0 208, 480L240, 480A16 16 0 0 0 256, 464L256, 368A16 16 0 0 0 240, 352zM464, 352L432, 352A16 16 0 0 0 416, 368L416, 464A16 16 0 0 0 432, 480L464, 480A16 16 0 0 0 480, 464L480, 368A16 16 0 0 0 464, 352z" fill="#727272" fill-opacity="1" class="Black" />
  </g>
</svg>