<?xml version='1.0' encoding='UTF-8'?>
<svg viewBox="-3.7483 -1.9949 32 31.9975" xmlns="http://www.w3.org/2000/svg">
  <g transform="matrix(0.0547, 0, 0, 0.0547, 0, 0)">
    <defs>
      <style>.fa-secondary{opacity:.4}</style>
    </defs>
    <path d="M32, 256L416, 256A258.87 258.87 0 0 1 272.89, 487.55L224, 512L175.11, 487.55A258.87 258.87 0 0 1 32, 256z" fill="#727272" opacity="0.4" fill-opacity="1" class="Black" />
    <path d="M448, 160L448, 192A32 32 0 0 1 416, 224L32, 224A32 32 0 0 1 0, 192L0, 160A96 96 0 0 1 96, 64L202, 64A132.41 132.41 0 0 1 231.41, 5.36A15.7 15.7 0 0 1 242.72, 0.06A15.44 15.44 0 0 1 254.72, 4.78L266, 16.1A16 16 0 0 1 266.66, 38A84.32 84.32 0 0 0 251.5, 64L352, 64A96 96 0 0 1 448, 160z" fill="#727272" fill-opacity="1" class="Black" />
  </g>
</svg>