<?xml version='1.0' encoding='UTF-8'?>
<svg viewBox="-2 -1.9988 32 32" xmlns="http://www.w3.org/2000/svg">
  <g transform="matrix(0.0547, 0, 0, 0.0547, 0, 0)">
    <defs>
      <style>.fa-secondary{opacity:.4}</style>
    </defs>
    <path d="M352, 256A24 24 0 1 0 376, 280A24 24 0 0 0 352, 256zM157.52, 272L194.52, 272L176, 218.78zM464, 64L48, 64A48 48 0 0 0 0, 112L0, 400A48 48 0 0 0 48, 448L464, 448A48 48 0 0 0 512, 400L512, 112A48 48 0 0 0 464, 64zM250.58, 352L233.64, 352A16 16 0 0 1 218.52, 341.25L211.15, 320L140.86, 320L133.48, 341.25A16 16 0 0 1 118.36, 352L101.42, 352A16 16 0 0 1 86.3, 330.75L140, 176.12A24 24 0 0 1 162.67, 160L189.33, 160A24 24 0 0 1 212, 176.13L265.69, 330.75A16 16 0 0 1 250.58, 352zM424, 336A16 16 0 0 1 408, 352L392, 352A15.74 15.74 0 0 1 380, 346.32A72 72 0 1 1 352, 208A71.05 71.05 0 0 1 376, 212.42L376, 176A16 16 0 0 1 392, 160L408, 160A16 16 0 0 1 424, 176z" fill="#727272" opacity="0.4" fill-opacity="1" class="Black" />
    <path d="M212, 176.13A24 24 0 0 0 189.33, 160L162.67, 160A24 24 0 0 0 140, 176.12L86.3, 330.75A16 16 0 0 0 101.42, 352L118.36, 352A16 16 0 0 0 133.48, 341.25L140.86, 320L211.15, 320L218.52, 341.25A16 16 0 0 0 233.64, 352L250.58, 352A16 16 0 0 0 265.69, 330.75zM157.52, 272L176, 218.78L194.48, 272zM408, 160L392, 160A16 16 0 0 0 376, 176L376, 212.42A71.05 71.05 0 0 0 352, 208A72 72 0 1 0 380, 346.32A15.74 15.74 0 0 0 392, 352L408, 352A16 16 0 0 0 424, 336L424, 176A16 16 0 0 0 408, 160zM352, 304A24 24 0 1 1 376, 280A24 24 0 0 1 352, 304z" fill="#727272" fill-opacity="1" class="Black" />
  </g>
</svg>