<?xml version='1.0' encoding='UTF-8'?>
<svg viewBox="-2 -3.554 32 32" xmlns="http://www.w3.org/2000/svg">
  <g transform="matrix(0.0486, 0, 0, 0.0486, 0, 0)">
    <defs>
      <style>.fa-secondary{opacity:.4}</style>
    </defs>
    <path d="M528, 32L48, 32A48 48 0 0 0 0, 80L0, 432A48 48 0 0 0 48, 480L528, 480A48 48 0 0 0 576, 432L576, 80A48 48 0 0 0 528, 32zM176, 128A64 64 0 1 1 112, 192A64.06 64.06 0 0 1 176, 128zM288, 364.8C288, 375.4 278, 384 265.6, 384L86.4, 384C74, 384 64, 375.4 64, 364.8L64, 345.6C64, 313.8 94.1, 288 131.2, 288L136.2, 288A103 103 0 0 0 215.8, 288L220.8, 288C257.9, 288 288, 313.8 288, 345.6zM512, 312A8 8 0 0 1 504, 320L360, 320A8 8 0 0 1 352, 312L352, 296A8 8 0 0 1 360, 288L504, 288A8 8 0 0 1 512, 296zM512, 248A8 8 0 0 1 504, 256L360, 256A8 8 0 0 1 352, 248L352, 232A8 8 0 0 1 360, 224L504, 224A8 8 0 0 1 512, 232zM512, 184A8 8 0 0 1 504, 192L360, 192A8 8 0 0 1 352, 184L352, 168A8 8 0 0 1 360, 160L504, 160A8 8 0 0 1 512, 168z" fill="#727272" opacity="0.4" fill-opacity="1" class="Black" />
    <path d="M176, 256A64 64 0 1 0 112, 192A64.06 64.06 0 0 0 176, 256zM220.8, 288L215.8, 288A103 103 0 0 1 136.2, 288L131.2, 288C94.1, 288 64, 313.8 64, 345.6L64, 364.8C64, 375.4 74, 384 86.4, 384L265.6, 384C278, 384 288, 375.4 288, 364.8L288, 345.6C288, 313.8 257.9, 288 220.8, 288z" fill="#727272" fill-opacity="1" class="Black" />
  </g>
</svg>