<?xml version='1.0' encoding='UTF-8'?>
<svg viewBox="-3.7495 -2 32 32" xmlns="http://www.w3.org/2000/svg">
  <g transform="matrix(0.0547, 0, 0, 0.0547, 0, 0)">
    <defs>
      <style>.fa-secondary{opacity:.4}</style>
    </defs>
    <path d="M416, 48A48 48 0 0 0 368, 0L48, 0A48 48 0 0 0 0, 48L0, 464A48 48 0 0 0 48, 512L368, 512A48 48 0 0 0 416, 464zM208, 128A64 64 0 1 1 144, 192A64.06 64.06 0 0 1 208, 128zM320, 364.8C320, 375.4 310, 384 297.6, 384L118.4, 384C106, 384 96, 375.4 96, 364.8L96, 345.6C96, 313.8 126.1, 288 163.2, 288L168.2, 288A103 103 0 0 0 247.8, 288L252.8, 288C289.9, 288 320, 313.8 320, 345.6z" fill="#727272" opacity="0.4" fill-opacity="1" class="Black" />
    <path d="M252.8, 288L247.8, 288A103 103 0 0 1 168.2, 288L163.2, 288C126.1, 288 96, 313.8 96, 345.6L96, 364.8C96, 375.4 106, 384 118.4, 384L297.6, 384C310, 384 320, 375.4 320, 364.8L320, 345.6C320, 313.8 289.9, 288 252.8, 288zM208, 256A64 64 0 1 0 144, 192A64.06 64.06 0 0 0 208, 256zM436, 224L416, 224L416, 288L436, 288A12 12 0 0 0 448, 276L448, 236A12 12 0 0 0 436, 224zM436, 352L416, 352L416, 416L436, 416A12 12 0 0 0 448, 404L448, 364A12 12 0 0 0 436, 352zM436, 96L416, 96L416, 160L436, 160A12 12 0 0 0 448, 148L448, 108A12 12 0 0 0 436, 96z" fill="#727272" fill-opacity="1" class="Black" />
  </g>
</svg>