<?xml version='1.0' encoding='UTF-8'?>
<svg viewBox="-2 -2 32 32" xmlns="http://www.w3.org/2000/svg">
  <g transform="matrix(0.0547, 0, 0, 0.0547, 0, 0)">
    <defs>
      <style>.fa-secondary{opacity:.4}</style>
    </defs>
    <path d="M434.55, 422A223.27 223.27 0 0 0 479.16, 288C479.16, 164.29 379.25, 64 256.02, 64C132.79, 64 32.88, 164.29 32.88, 288A223.21 223.21 0 0 0 77.49, 422L37.54, 462.06A16.05 16.05 0 0 0 37.54, 484.69L60.08, 507.31A15.89 15.89 0 0 0 82.62, 507.31L122.56, 467.22A221.25 221.25 0 0 0 389.47, 467.22L429.42, 507.31A15.89 15.89 0 0 0 451.96, 507.31L474.49, 484.69A16 16 0 0 0 474.49, 462.06zM338.4, 223L242, 344L319.77, 344A16 16 0 0 1 335.7, 360L335.7, 376A16 16 0 0 1 319.77, 392L192.23, 392A24 24 0 0 1 173.56, 353L270, 232L192.23, 232A16 16 0 0 1 176.29, 216L176.29, 200A16 16 0 0 1 192.23, 184L319.74, 184A24 24 0 0 1 338.4, 223z" fill="#727272" opacity="0.4" fill-opacity="1" class="Black" />
    <path d="M319.74, 184L192.23, 184A16 16 0 0 0 176.29, 200L176.29, 216A16 16 0 0 0 192.23, 232L270, 232L173.56, 353A24 24 0 0 0 192.23, 392L319.74, 392A16 16 0 0 0 335.67, 376L335.67, 360A16 16 0 0 0 319.74, 344L242, 344L338.4, 223A24 24 0 0 0 319.74, 184zM1, 96A95.11 95.11 0 0 0 16.24, 147.26L161.57, 25.68A95 95 0 0 0 96.62, 0C43.83, 0 1, 43 1, 96zM415.38, 0A95.09 95.09 0 0 0 350.45, 25.66L495.77, 147.23A95.14 95.14 0 0 0 511, 96C511, 43 468.16, 0 415.38, 0z" fill="#727272" fill-opacity="1" class="Black" />
  </g>
</svg>