<?xml version='1.0' encoding='UTF-8'?>
<svg viewBox="-1.9998 -2.0011 31.9975 32" xmlns="http://www.w3.org/2000/svg">
  <g transform="matrix(0.0547, 0, 0, 0.0547, 0, 0)">
    <defs>
      <style>.fa-secondary{opacity:.4}</style>
    </defs>
    <path d="M480, 160L32, 160A32 32 0 0 0 0.13, 194.9L26.32, 482.9A32 32 0 0 0 58.18, 512L453.82, 512A32 32 0 0 0 485.68, 482.9L511.87, 194.9A32 32 0 0 0 480, 160zM256, 472.89C161.74, 472.89 81.61, 418.36 76.8, 347.74C71.71, 273.1 151.82, 209.4 256, 209.4C360.18, 209.4 440.29, 273.1 435.2, 347.74C430.39, 418.37 350.27, 472.89 256, 472.89z" fill="#727272" opacity="0.4" fill-opacity="1" class="Black" />
    <path d="M480, 24A24 24 0 0 0 456, 0L56, 0A24 24 0 0 0 32, 24L32, 48L480, 48zM472, 80L40, 80A24 24 0 0 0 16, 104L16, 128L496, 128L496, 104A24 24 0 0 0 472, 80zM256, 209.4C151.82, 209.4 71.71, 273.1 76.81, 347.74C81.62, 418.36 161.75, 472.89 256.01, 472.89C350.27, 472.89 430.39, 418.37 435.2, 347.74C440.29, 273.1 360.18, 209.4 256, 209.4zM256, 369.46C239.64, 369.46 226.27, 359.78 226.14, 347.74C226.01, 335.7 239.37, 325.65 256, 325.65C272.63, 325.65 286, 335.58 285.87, 347.74C285.74, 359.9 272.36, 369.46 256, 369.46z" fill="#727272" fill-opacity="1" class="Black" />
  </g>
</svg>