<?xml version='1.0' encoding='UTF-8'?>
<svg viewBox="-2 0 32 32" xmlns="http://www.w3.org/2000/svg">
  <g transform="matrix(0.0625, 0, 0, 0.0625, 0, 0)">
    <defs>
      <style>.fa-secondary{opacity:.4}</style>
    </defs>
    <path d="M432, 416L16, 416A16 16 0 0 0 0, 432L0, 464A16 16 0 0 0 16, 480L432, 480A16 16 0 0 0 448, 464L448, 432A16 16 0 0 0 432, 416zM432, 160L16, 160A16 16 0 0 0 0, 176L0, 208A16 16 0 0 0 16, 224L432, 224A16 16 0 0 0 448, 208L448, 176A16 16 0 0 0 432, 160z" fill="#727272" opacity="0.4" fill-opacity="1" class="Black" />
    <path d="M432, 288L16, 288A16 16 0 0 0 0, 304L0, 336A16 16 0 0 0 16, 352L432, 352A16 16 0 0 0 448, 336L448, 304A16 16 0 0 0 432, 288zM432, 32L16, 32A16 16 0 0 0 0, 48L0, 80A16 16 0 0 0 16, 96L432, 96A16 16 0 0 0 448, 80L448, 48A16 16 0 0 0 432, 32z" fill="#727272" fill-opacity="1" class="Black" />
  </g>
</svg>