<?xml version='1.0' encoding='UTF-8'?>
<svg viewBox="-1.945 -1.835 32 32" xmlns="http://www.w3.org/2000/svg">
  <g transform="matrix(0.0547, 0, 0, 0.0547, 0, 0)">
    <defs>
      <style>.fa-secondary{opacity:.4}</style>
    </defs>
    <path d="M321, 403A16 16 0 1 0 305, 387A16 16 0 0 0 321, 403zM257, 275A16 16 0 0 0 273, 259L241, 259A16 16 0 0 0 257, 275zM225, 371A16 16 0 1 0 209, 355A16 16 0 0 0 225, 371zM257, 307A16 16 0 1 0 273, 323A16 16 0 0 0 257, 307zM257, 403A16 16 0 1 0 241, 387A16 16 0 0 0 257, 403zM289, 371A16 16 0 1 0 273, 355A16 16 0 0 0 289, 371zM353, 371A16 16 0 1 0 337, 355A16 16 0 0 0 353, 371zM385, 403A16 16 0 1 0 369, 387A16 16 0 0 0 385, 403zM321, 275A16 16 0 0 0 337, 259L305, 259A16 16 0 0 0 321, 275zM321, 307A16 16 0 1 0 337, 323A16 16 0 0 0 321, 307zM353, 307A16 16 0 1 0 337, 291A16 16 0 0 0 353, 307zM289, 307A16 16 0 1 0 273, 291A16 16 0 0 0 289, 307zM129, 307A16 16 0 1 0 145, 323A16 16 0 0 0 129, 307zM97, 339A16 16 0 1 0 113, 355A16 16 0 0 0 97, 339zM385, 307A16 16 0 1 0 401, 323A16 16 0 0 0 385, 307zM129, 403A16 16 0 1 0 113, 387A16 16 0 0 0 129, 403zM417, 307A16 16 0 1 0 401, 291A16 16 0 0 0 417, 307zM193, 275A16 16 0 0 0 209, 259L177, 259A16 16 0 0 0 193, 275zM161, 307A16 16 0 1 0 145, 291A16 16 0 0 0 161, 307zM225, 307A16 16 0 1 0 209, 291A16 16 0 0 0 225, 307zM193, 307A16 16 0 1 0 209, 323A16 16 0 0 0 193, 307zM193, 403A16 16 0 1 0 177, 387A16 16 0 0 0 193, 403zM161, 371A16 16 0 1 0 145, 355A16 16 0 0 0 161, 371zM129, 275A16 16 0 0 0 145, 259L113, 259A16 16 0 0 0 129, 275zM353, 403A16 16 0 1 0 369, 419A16 16 0 0 0 353, 403zM321, 435A16 16 0 0 0 305, 451L337, 451A16 16 0 0 0 321, 435zM257, 435A16 16 0 0 0 241, 451L273, 451A16 16 0 0 0 257, 435zM289, 403A16 16 0 1 0 305, 419A16 16 0 0 0 289, 403zM385, 435A16 16 0 0 0 369, 451L401, 451A16 16 0 0 0 385, 435zM417, 403A16 16 0 1 0 433, 419A16 16 0 0 0 417, 403zM433, 259A16 16 0 0 0 449, 275L449, 259zM225, 403A16 16 0 1 0 241, 419A16 16 0 0 0 225, 403zM433, 323A16 16 0 0 0 449, 339L449, 307A16 16 0 0 0 433, 323zM433, 387A16 16 0 0 0 449, 403L449, 371A16 16 0 0 0 433, 387zM385, 275A16 16 0 0 0 401, 259L369, 259A16 16 0 0 0 385, 275zM433, 451L449, 451L449, 435A16 16 0 0 0 433, 451zM81, 259L65, 259L65, 275A16 16 0 0 0 81, 259zM81, 323A16 16 0 0 0 65, 307L65, 339A16 16 0 0 0 81, 323zM417, 371A16 16 0 1 0 401, 355A16 16 0 0 0 417, 371zM97, 307A16 16 0 1 0 81, 291A16 16 0 0 0 97, 307zM81, 387A16 16 0 0 0 65, 371L65, 403A16 16 0 0 0 81, 387zM129, 435A16 16 0 0 0 113, 451L145, 451A16 16 0 0 0 129, 435zM65, 435L65, 451L81, 451A16 16 0 0 0 65, 435zM193, 435A16 16 0 0 0 177, 451L209, 451A16 16 0 0 0 193, 435zM161, 403A16 16 0 1 0 177, 419A16 16 0 0 0 161, 403zM97, 403A16 16 0 1 0 113, 419A16 16 0 0 0 97, 403zM257, 51C283.89, 51 311, 65.79 333.25, 83L403.5, 83C378.75, 55.71 322.51, 3 257, 3C191.49, 3 135.25, 55.71 110.5, 83L180.75, 83C203, 65.79 230.12, 51 257, 51z" fill="#727272" opacity="0.4" fill-opacity="1" class="Black" />
    <path d="M465, 83L49, 83A48 48 0 0 0 1, 131L1, 467A48 48 0 0 0 49, 515L465, 515A48 48 0 0 0 513, 467L513, 131A48 48 0 0 0 465, 83zM345, 147A24 24 0 1 1 321, 171A24 24 0 0 1 345, 147zM169, 147A24 24 0 1 1 145, 171A24 24 0 0 1 169, 147zM89, 147A24 24 0 1 1 65, 171A24 24 0 0 1 89, 147zM449, 451L65, 451L65, 259L449, 259zM425, 195A24 24 0 1 1 449, 171A24 24 0 0 1 425, 195z" fill="#727272" fill-opacity="1" class="Black" />
  </g>
</svg>