<?xml version='1.0' encoding='UTF-8'?>
<svg viewBox="-1.9975 -3.5542 32 32" xmlns="http://www.w3.org/2000/svg">
  <g transform="matrix(0.0486, 0, 0, 0.0486, 0, 0)">
    <defs>
      <style>.fa-secondary{opacity:.4}</style>
    </defs>
    <path d="M372, 192L320, 192L320, 186.53A96 96 0 0 0 384, 96C384, 43.78 341.64, 0.75 289.42, 0A96 96 0 0 0 256, 186.54L256, 192L204, 192A12 12 0 0 0 192, 204L192, 244A12 12 0 0 0 204, 256L372, 256A12 12 0 0 0 384, 244L384, 204A12 12 0 0 0 372, 192zM288, 64A32 32 0 1 1 256, 96A32 32 0 0 1 288, 64z" fill="#727272" opacity="0.4" fill-opacity="1" class="Black" />
    <path d="M564, 352L531.49, 352C509.63, 454.62 394.61, 512 288, 512C181.59, 512 66.42, 454.73 44.54, 352L12, 352A12 12 0 0 1 3.49, 331.51L70.75, 264.51A12.07 12.07 0 0 1 87.75, 264.51L155.01, 331.51A12 12 0 0 1 146.55, 352L111.29, 352C131.66, 406.34 196.76, 438.62 255.9, 446L255.9, 288L320.12, 288L320.12, 446C379.48, 438.57 444.38, 406.3 464.74, 352L429.48, 352A12 12 0 0 1 421, 331.51L488.26, 264.51A12.07 12.07 0 0 1 505.26, 264.51L572.52, 331.51A12 12 0 0 1 564, 352z" fill="#727272" fill-opacity="1" class="Black" />
  </g>
</svg>