<?xml version='1.0' encoding='UTF-8'?>
<svg viewBox="-4.8006 6.3987 32 32" xmlns="http://www.w3.org/2000/svg">
  <g transform="matrix(0.0875, 0, 0, 0.0875, 0, 0)">
    <defs>
      <style>.fa-secondary{opacity:.4}</style>
    </defs>
    <path d="M223.83, 352.44A24 24 0 0 1 223.83, 386.3L201.32, 409L201.14, 409.18A23.76 23.76 0 0 1 167.54, 409L71.39, 312.5L127.86, 256z" fill="#727272" opacity="0.4" fill-opacity="1" class="Black" />
    <path d="M167.81, 102.87L167.64, 103.05L32.11, 239A24 24 0 0 0 31.94, 272.93L32, 273L71.39, 312.51L224, 159.66A23.92 23.92 0 0 0 224, 125.82L201.46, 103.08A23.77 23.77 0 0 0 167.84, 102.85z" fill="#727272" fill-opacity="1" class="Black" />
  </g>
</svg>