<?xml version='1.0' encoding='UTF-8'?>
<svg viewBox="-4.7439 2.0098 32 31.995" xmlns="http://www.w3.org/2000/svg">
  <g transform="matrix(0.0703, 0, 0, 0.0703, 0, 0)">
    <defs>
      <style>.fa-secondary{opacity:.4}</style>
    </defs>
    <path d="M143, 256L7.05, 120.37A23.78 23.78 0 0 1 7.05, 86.57L29.64, 64A23.94 23.94 0 0 1 63.53, 64L159.9, 160.13L256.27, 64A23.94 23.94 0 0 1 290.16, 64L313, 86.47A23.78 23.78 0 0 1 313, 120.27L177, 255.88A23.94 23.94 0 0 1 143, 255.98z" fill="#727272" opacity="0.4" fill-opacity="1" class="Black" />
    <path d="M143, 447.89L7.05, 312.34A23.77 23.77 0 0 1 7.05, 278.55L29.74, 256A23.94 23.94 0 0 1 63.63, 256L160, 352.11L256.47, 256.11A23.94 23.94 0 0 1 290.36, 256.11L313, 278.65A23.77 23.77 0 0 1 313, 312.44L177, 448A24 24 0 0 1 143, 447.89z" fill="#727272" fill-opacity="1" class="Black" />
  </g>
</svg>