<?xml version='1.0' encoding='UTF-8'?>
<svg viewBox="-4.7439 2.0098 32 31.9975" xmlns="http://www.w3.org/2000/svg">
  <g transform="matrix(0.0703, 0, 0, 0.0703, 0, 0)">
    <defs>
      <style>.fa-secondary{opacity:.4}</style>
    </defs>
    <path d="M177, 256L313, 391.63A23.78 23.78 0 0 1 313, 425.43L290.36, 448A23.94 23.94 0 0 1 256.47, 448L160.1, 351.84L63.73, 448A23.94 23.94 0 0 1 29.84, 448L7.05, 425.53A23.78 23.78 0 0 1 7.05, 391.73L143, 256.12A23.94 23.94 0 0 1 177, 256.02z" fill="#727272" opacity="0.4" fill-opacity="1" class="Black" />
    <path d="M177, 64.11L313, 199.66A23.77 23.77 0 0 1 313, 233.45L290.26, 256A23.94 23.94 0 0 1 256.37, 256L160, 159.89L63.53, 255.89A23.94 23.94 0 0 1 29.64, 255.89L7.05, 233.35A23.77 23.77 0 0 1 7.05, 199.56L143, 64A24 24 0 0 1 177, 64.11z" fill="#727272" fill-opacity="1" class="Black" />
  </g>
</svg>