<?xml version='1.0' encoding='UTF-8'?>
<svg viewBox="-3.7456 -1.9999 31.995 32" xmlns="http://www.w3.org/2000/svg">
  <g transform="matrix(0.0547, 0, 0, 0.0547, 0, 0)">
    <defs>
      <style>.fa-secondary{opacity:.4}</style>
    </defs>
    <path d="M295.92, 88Q281.92, 101 258.92, 107A116.69 116.69 0 0 1 223.92, 112L208.92, 111A128.32 128.32 0 0 1 208.92, 79Q212.92, 43 231.92, 24Q245.92, 11 268.92, 5A116.69 116.69 0 0 1 303.92, 0L318.92, 1L319.92, 16A117.29 117.29 0 0 1 314.92, 51Q308.92, 74 295.92, 88z" fill="#727272" opacity="0.4" fill-opacity="1" class="Black" />
    <path d="M350.86, 129Q389.86, 136 414.78, 171Q436.78, 202 444.78, 249A248.7 248.7 0 0 1 443.78, 335Q431.78, 406 395.84, 454Q352.84, 512 287.97, 512Q271.97, 512 252.97, 502A56.45 56.45 0 0 0 195, 502Q176, 512 160, 512Q95.15, 512 52.2, 454Q16.2, 406 4.26, 335A248.7 248.7 0 0 1 3.26, 249Q11.26, 202 33.26, 171Q58.26, 136 97.18, 129Q121.18, 125 163.1, 136Q199.1, 146 224.03, 160Q249.03, 146 284.96, 136Q326.89, 125 350.86, 129z" fill="#727272" fill-opacity="1" class="Black" />
  </g>
</svg>