<?xml version='1.0' encoding='UTF-8'?>
<svg viewBox="-2 -1.9988 32 32" xmlns="http://www.w3.org/2000/svg">
  <g transform="matrix(0.0547, 0, 0, 0.0547, 0, 0)">
    <defs>
      <style>.fa-secondary{opacity:.4}</style>
    </defs>
    <path d="M424.17, 80.61C406.04, 77.61 372.27, 86.79 351.68, 98.3C334.68, 88.78 309.23, 81.3 290.53, 80.51C292.35, 82.72 294.36, 84.68 296.03, 87.09C316.87, 117.24 321.77, 159.39 318.2, 192L478, 192C483.25, 152.53 472.84, 89.35 424.17, 80.61zM210.53, 50.47C221.82, 38.28 225, 18.44 223.75, 0.25C210.87, -0.61 188.08, 0.13 173.75, 13.53C157.2, 30.13 160, 59.89 160.51, 63.75C179, 65 198.28, 61.9 210.53, 50.47zM402.22, 50.47C413.51, 38.28 416.65, 18.47 415.44, 0.25C402.56, -0.61 379.77, 0.13 365.44, 13.53C348.91, 30.13 351.67, 59.89 352.22, 63.75C370.67, 65 390, 61.9 402.22, 50.47zM232.48, 80.61C214.35, 77.61 180.58, 86.79 160, 98.3C139.34, 86.74 105.57, 77.59 87.52, 80.61C38.91, 89.34 28.53, 152.88 33.7, 192L286.3, 192C291.56, 152.53 281.15, 89.35 232.48, 80.61z" fill="#727272" opacity="0.4" fill-opacity="1" class="Black" />
    <path d="M496, 224L16, 224A16 16 0 0 0 0, 240L0, 352L512, 352L512, 240A16 16 0 0 0 496, 224zM64, 304A16 16 0 1 1 80, 288A16 16 0 0 1 64, 304zM448, 304A16 16 0 1 1 464, 288A16 16 0 0 1 448, 304zM0, 496A16 16 0 0 0 16, 512L496, 512A16 16 0 0 0 512, 496L512, 384L0, 384zM448, 432A16 16 0 1 1 432, 448A16 16 0 0 1 448, 432zM64, 432A16 16 0 1 1 48, 448A16 16 0 0 1 64, 432z" fill="#727272" fill-opacity="1" class="Black" />
  </g>
</svg>