<?xml version='1.0' encoding='UTF-8'?>
<svg viewBox="-1.9998 -3.5563 31.9975 32" xmlns="http://www.w3.org/2000/svg">
  <g transform="matrix(0.0486, 0, 0, 0.0486, 0, 0)">
    <defs>
      <style>.fa-secondary{opacity:.4}</style>
    </defs>
    <path d="M576, 16L576, 48A16 16 0 0 1 560, 64L16, 64A16 16 0 0 1 0, 48L0, 16A16 16 0 0 1 16, 0L560, 0A16 16 0 0 1 576, 16z" fill="#727272" opacity="0.4" fill-opacity="1" class="Black" />
    <path d="M576, 464L576, 496A16 16 0 0 1 560, 512L400, 512A16 16 0 0 1 384, 496L384, 320A96 96 0 0 0 192, 320L192, 496A16 16 0 0 1 176, 512L16, 512A16 16 0 0 1 0, 496L0, 464A16 16 0 0 1 16, 448L32, 448L32, 96L544, 96L544, 448L560, 448A16 16 0 0 1 576, 464z" fill="#727272" fill-opacity="1" class="Black" />
  </g>
</svg>