<?xml version='1.0' encoding='UTF-8'?>
<svg viewBox="-4.001 -0.0002 32 32" xmlns="http://www.w3.org/2000/svg">
  <g transform="matrix(0.0625, 0, 0, 0.0625, 0, 0)">
    <defs>
      <style>.fa-secondary{opacity:.4}</style>
    </defs>
    <path d="M384, 56L384, 72A23.94 23.94 0 0 1 360, 96L24, 96A23.94 23.94 0 0 1 0, 72L0, 56A23.94 23.94 0 0 1 24, 32L360, 32A23.94 23.94 0 0 1 384, 56z" fill="#727272" opacity="0.4" fill-opacity="1" class="Black" />
    <path d="M151.89, 128L232, 128A24 24 0 0 1 256, 152L256, 288L344, 288C361.82, 288 370.73, 309.51 358.12, 322.11L205.67, 474.37A19.4 19.4 0 0 1 178.33, 474.37L25.91, 322.14C13.3, 309.54 22.21, 288 40, 288L127.83, 288L127.83, 152A24 24 0 0 1 151.89, 128z" fill="#727272" fill-opacity="1" class="Black" />
  </g>
</svg>