<?xml version='1.0' encoding='UTF-8'?>
<svg viewBox="-1.5477 -1.5477 32 32" xmlns="http://www.w3.org/2000/svg">
  <g transform="matrix(0.9991, 0, 0, 0.9991, 0, 0)">
    <g transform="matrix(0.0565, 0, 0, 0.0565, 0, 0)">
      <defs>
        <style>.fa-secondary{opacity:.4}</style>
      </defs>
      <path d="M256, 8C119, 8 8, 119 8, 256C8, 393 119, 504 256, 504C393, 504 504, 393 504, 256C504, 119 393, 8 256, 8zM380.41, 276.32L264.52, 390.48A12.08 12.08 0 0 1 247.52, 390.48L131.59, 276.32C123.92, 268.83 129.37, 255.84 140.16, 255.84L211.67, 255.84L211.67, 140A12.08 12.08 0 0 1 223.77, 128L288.33, 128A12.08 12.08 0 0 1 300.43, 140L300.43, 255.84L371.84, 255.84C382.63, 255.84 388.08, 268.73 380.41, 276.32z" fill="#727272" opacity="0.4" fill-opacity="1" class="Black" />
      <path d="M223.77, 128L288.33, 128A12.08 12.08 0 0 1 300.43, 140L300.43, 255.84L371.84, 255.84C382.63, 255.84 388.08, 268.73 380.41, 276.32L264.52, 390.48A12.08 12.08 0 0 1 247.52, 390.48L131.59, 276.32C123.92, 268.83 129.37, 255.84 140.16, 255.84L211.67, 255.84L211.67, 140A12.08 12.08 0 0 1 223.77, 128z" fill="#727272" fill-opacity="1" class="Black" />
    </g>
  </g>
</svg>