<?xml version='1.0' encoding='UTF-8'?>
<svg viewBox="-2 0 32 32" xmlns="http://www.w3.org/2000/svg">
  <g transform="matrix(0.0625, 0, 0, 0.0625, 0, 0)">
    <defs>
      <style>.fa-secondary{opacity:.4}</style>
    </defs>
    <path d="M448, 88L448, 424A23.94 23.94 0 0 1 424, 448L408, 448A23.94 23.94 0 0 1 384, 424L384, 88A23.94 23.94 0 0 1 408, 64L424, 64A23.94 23.94 0 0 1 448, 88z" fill="#727272" opacity="0.4" fill-opacity="1" class="Black" />
    <path d="M0, 296.11L0, 216A24 24 0 0 1 24, 192L160, 192L160, 104C160, 86.18 181.51, 77.27 194.11, 89.88L346.37, 242.33A19.4 19.4 0 0 1 346.37, 269.67L194.14, 422.09C181.54, 434.7 160, 425.79 160, 408L160, 320.14L24, 320.14A24 24 0 0 1 0, 296.11z" fill="#727272" fill-opacity="1" class="Black" />
  </g>
</svg>