<?xml version='1.0' encoding='UTF-8'?>
<svg viewBox="-4 0 32 32" xmlns="http://www.w3.org/2000/svg">
  <g transform="matrix(0.0625, 0, 0, 0.0625, 0, 0)">
    <defs>
      <style>.fa-secondary{opacity:.4}</style>
    </defs>
    <path d="M24, 32L360, 32A23.94 23.94 0 0 1 384, 55.88L384, 72A23.94 23.94 0 0 1 360.12, 96L24, 96A23.94 23.94 0 0 1 0, 72.12L0, 56A23.94 23.94 0 0 1 23.88, 32z" fill="#727272" opacity="0.4" fill-opacity="1" class="Black" />
    <path d="M232.11, 480L152, 480A24 24 0 0 1 128, 456L128, 320L40, 320C22.18, 320 13.27, 298.49 25.88, 285.89L178.33, 133.63A19.4 19.4 0 0 1 205.67, 133.63L358.09, 285.86C370.7, 298.46 361.79, 320 344, 320L256.17, 320L256.17, 456A24 24 0 0 1 232.17, 480z" fill="#727272" fill-opacity="1" class="Black" />
  </g>
</svg>