<?xml version='1.0' encoding='UTF-8'?>
<svg viewBox="-8.9994 -2 32 32" xmlns="http://www.w3.org/2000/svg">
  <g transform="matrix(0.0547, 0, 0, 0.0547, 0, 0)">
    <defs>
      <style>.fa-secondary{opacity:.4}</style>
    </defs>
    <path d="M88, 378L88, 134.08L168, 134.08L168, 378z" fill="#727272" opacity="0.4" fill-opacity="1" class="Black" />
    <path d="M42, 134.08L213.94, 134.08C235.34, 134.08 246.03, 108.21 230.94, 93.08L145, 7A24 24 0 0 0 111.11, 7L25, 93.09C10, 108.24 20.68, 134.08 42, 134.08zM213.94, 378L42.14, 378C20.74, 378 10.05, 403.88 25.14, 419L111.14, 505A24 24 0 0 0 145, 505L230.93, 419C246, 403.77 235.33, 378 213.94, 378z" fill="#727272" fill-opacity="1" class="Black" />
  </g>
</svg>