<?xml version='1.0' encoding='UTF-8'?>
<svg viewBox="-2 0 32 32" xmlns="http://www.w3.org/2000/svg">
  <g transform="matrix(0.0625, 0, 0, 0.0625, 0, 0)">
    <defs>
      <style>.fa-secondary{opacity:.4}</style>
    </defs>
    <path d="M400, 32L48, 32A48 48 0 0 0 0, 80L0, 432A48 48 0 0 0 48, 480L400, 480A48 48 0 0 0 448, 432L448, 80A48 48 0 0 0 400, 32zM339.85, 256L268.36, 256L268.36, 372A12.07 12.07 0 0 1 256.26, 384L191.74, 384A12.07 12.07 0 0 1 179.64, 372L179.64, 256L108.15, 256C97.37, 256 91.92, 243.17 99.58, 235.68L215.58, 120.52A12.08 12.08 0 0 1 232.58, 120.52L348.42, 235.68C356.08, 243.17 350.63, 256 339.85, 256z" fill="#727272" opacity="0.4" fill-opacity="1" class="Black" />
    <path d="M256.26, 384L191.74, 384A12.07 12.07 0 0 1 179.64, 372L179.64, 256L108.15, 256C97.37, 256 91.92, 243.17 99.58, 235.68L215.58, 120.52A12.08 12.08 0 0 1 232.58, 120.52L348.42, 235.68C356.08, 243.17 350.63, 256 339.85, 256L268.36, 256L268.36, 372A12.07 12.07 0 0 1 256.26, 384z" fill="#727272" fill-opacity="1" class="Black" />
  </g>
</svg>