<?xml version='1.0' encoding='UTF-8'?>
<svg viewBox="-2 0.0025 32 31.9975" xmlns="http://www.w3.org/2000/svg">
  <g transform="matrix(0.0625, 0, 0, 0.0625, 0, 0)">
    <defs>
      <style>.fa-secondary{opacity:.4}</style>
    </defs>
    <path d="M424, 297L137.6, 297L96, 256L137.59, 215L424, 215C437.3, 215 448, 226 448, 239.63L448, 272.45A24.22 24.22 0 0 1 424, 297z" fill="#727272" opacity="0.4" fill-opacity="1" class="Black" />
    <path d="M201.69, 473.48L200.98, 472.77L7, 273.44A25 25 0 0 1 7, 238.66L201, 39.23A23.38 23.38 0 0 1 234.11, 38.53C234.35, 38.75 234.58, 38.99 234.81, 39.23L256.94, 62A25.13 25.13 0 0 1 256.54, 97.18L95.81, 256L256.54, 414.8A24.94 24.94 0 0 1 256.94, 449.98L234.79, 472.76A23.38 23.38 0 0 1 201.69, 473.48z" fill="#727272" fill-opacity="1" class="Black" />
  </g>
</svg>