<?xml version='1.0' encoding='UTF-8'?>
<svg viewBox="-2 0 32 32" xmlns="http://www.w3.org/2000/svg">
  <g transform="matrix(0.0625, 0, 0, 0.0625, 0, 0)">
    <defs>
      <style>.fa-secondary{opacity:.4}</style>
    </defs>
    <path d="M400, 32L48, 32A48 48 0 0 0 0, 80L0, 432A48 48 0 0 0 48, 480L400, 480A48 48 0 0 0 448, 432L448, 80A48 48 0 0 0 400, 32zM359.48, 264.57L244.32, 380.42C236.83, 388.08 224, 382.63 224, 371.85L224, 300.36L108, 300.36A12.07 12.07 0 0 1 96, 288.26L96, 223.74A12.07 12.07 0 0 1 108, 211.64L224, 211.64L224, 140.15C224, 129.37 236.83, 123.92 244.32, 131.58L359.48, 247.58A12.08 12.08 0 0 1 359.48, 264.57z" fill="#727272" opacity="0.4" fill-opacity="1" class="Black" />
    <path d="M96, 288.26L96, 223.74A12.07 12.07 0 0 1 108, 211.64L224, 211.64L224, 140.15C224, 129.37 236.83, 123.92 244.32, 131.58L359.48, 247.58A12.08 12.08 0 0 1 359.48, 264.58L244.32, 380.42C236.83, 388.08 224, 382.63 224, 371.85L224, 300.36L108, 300.36A12.07 12.07 0 0 1 96, 288.26z" fill="#727272" fill-opacity="1" class="Black" />
  </g>
</svg>