<?xml version='1.0' encoding='UTF-8'?>
<svg viewBox="-4.001 -0.0002 32 31.9975" xmlns="http://www.w3.org/2000/svg">
  <g transform="matrix(0.0625, 0, 0, 0.0625, 0, 0)">
    <defs>
      <style>.fa-secondary{opacity:.4}</style>
    </defs>
    <path d="M360, 480L24, 480A23.94 23.94 0 0 1 0, 456L0, 440A23.94 23.94 0 0 1 24, 416L360, 416A23.94 23.94 0 0 1 384, 440L384, 456A23.94 23.94 0 0 1 360, 480z" fill="#727272" opacity="0.4" fill-opacity="1" class="Black" />
    <path d="M56.13, 225.48L39.07, 208.48A23.86 23.86 0 0 1 39.07, 174.57L175, 39.05A24 24 0 0 1 209, 39.05L344.93, 174.57A23.86 23.86 0 0 1 344.93, 208.48L327.87, 225.48A24 24 0 0 1 293.87, 225.48L228.06, 159.87L228.06, 360A24 24 0 0 1 204, 384L179.91, 384A24 24 0 0 1 155.84, 360L155.84, 159.87L90, 225.48A23.9 23.9 0 0 1 56.13, 225.48z" fill="#727272" fill-opacity="1" class="Black" />
  </g>
</svg>