<?xml version='1.0' encoding='UTF-8'?>
<svg viewBox="-1.5477 -1.5477 32 32" xmlns="http://www.w3.org/2000/svg">
  <g transform="matrix(0.9991, 0, 0, 0.9991, 0, 0)">
    <g transform="matrix(0.0565, 0, 0, 0.0565, 0, 0)">
      <defs>
        <style>.fa-secondary{opacity:.4}</style>
      </defs>
      <path d="M256, 8C119, 8 8, 119 8, 256C8, 393 119, 504 256, 504C393, 504 504, 393 504, 256C504, 119 393, 8 256, 8zM405.6, 274.3L394.7, 285.3A24 24 0 0 1 360.4, 284.9L288, 209.4L288, 392A23.94 23.94 0 0 1 264, 416L248, 416A23.94 23.94 0 0 1 224, 392L224, 209.4L151.6, 284.9A24.15 24.15 0 0 1 117.2, 285.3L106.3, 274.3A23.9 23.9 0 0 1 106.3, 240.4L239.1, 107.7A23.9 23.9 0 0 1 273, 107.7L405.6, 240.4A23.9 23.9 0 0 1 405.6, 274.3z" fill="#727272" opacity="0.4" fill-opacity="1" class="Black" />
      <path d="M117.2, 285.3L106.3, 274.3A23.9 23.9 0 0 1 106.3, 240.4L239.1, 107.7A23.9 23.9 0 0 1 273, 107.7L405.6, 240.4A23.9 23.9 0 0 1 405.6, 274.3L394.7, 285.3A24 24 0 0 1 360.4, 284.9L288, 209.4L288, 392A23.94 23.94 0 0 1 264, 416L248, 416A23.94 23.94 0 0 1 224, 392L224, 209.4L151.6, 284.9A24.15 24.15 0 0 1 117.2, 285.3z" fill="#727272" fill-opacity="1" class="Black" />
    </g>
  </g>
</svg>