<?xml version='1.0' encoding='UTF-8'?>
<svg viewBox="-2 0 32 32" xmlns="http://www.w3.org/2000/svg">
  <g transform="matrix(0.0625, 0, 0, 0.0625, 0, 0)">
    <defs>
      <style>.fa-secondary{opacity:.4}</style>
    </defs>
    <path d="M0, 424L0, 88A23.94 23.94 0 0 1 24, 64L40, 64A23.94 23.94 0 0 1 64, 88L64, 424A23.94 23.94 0 0 1 40, 448L24, 448A23.94 23.94 0 0 1 0, 424z" fill="#727272" opacity="0.4" fill-opacity="1" class="Black" />
    <path d="M289.48, 391.87L272.48, 408.93A23.86 23.86 0 0 1 238.57, 408.93L103.05, 273A24 24 0 0 1 103.05, 239L238.57, 103.07A23.86 23.86 0 0 1 272.48, 103.07L289.48, 120.13A24 24 0 0 1 289.48, 154.13L223.87, 219.94L424, 219.94A24 24 0 0 1 448, 244L448, 268.08A24 24 0 0 1 424, 292.15L223.87, 292.15L289.48, 358A23.9 23.9 0 0 1 289.48, 391.87z" fill="#727272" fill-opacity="1" class="Black" />
  </g>
</svg>