<?xml version='1.0' encoding='UTF-8'?>
<svg viewBox="-2 -1.9988 31.9975 32" xmlns="http://www.w3.org/2000/svg">
  <g transform="matrix(0.0547, 0, 0, 0.0547, 0, 0)">
    <defs>
      <style>.fa-secondary{opacity:.4}</style>
    </defs>
    <path d="M440, 256L405.32, 288L288, 288L288, 405.34L256, 440L224, 405.32L224, 288L106.66, 288L72, 256L106.68, 224L224, 224L224, 106.66L256, 72L288, 106.67L288, 224L405.34, 224z" fill="#727272" opacity="0.4" fill-opacity="1" class="Black" />
    <path d="M128.57, 170.71L128.11, 170.24L117.28, 159.4A24 24 0 0 0 83.35, 159.4L9.35, 233.4A32 32 0 0 0 9.35, 278.64L83.35, 352.64A24 24 0 0 0 117.28, 352.64L128.11, 341.8L128.57, 341.33A24 24 0 0 0 127.64, 307.41L72, 256L127.66, 204.63A24 24 0 0 0 128.57, 170.71zM502.62, 233.38L428.62, 159.38A24 24 0 0 0 394.69, 159.38L383.86, 170.22L383.4, 170.69A24 24 0 0 0 384.33, 204.61L440, 256L384.34, 307.37A24 24 0 0 0 383.41, 341.29L383.87, 341.76L394.7, 352.6A24 24 0 0 0 428.63, 352.6L502.63, 278.6A32 32 0 0 0 502.63, 233.36zM341.76, 383.89L341.29, 383.43A24 24 0 0 0 307.37, 384.36L256, 440L204.63, 384.34A24 24 0 0 0 170.71, 383.41L170.24, 383.87L159.4, 394.72A24 24 0 0 0 159.4, 428.65L233.4, 502.65A32 32 0 0 0 278.64, 502.65L352.64, 428.65A24 24 0 0 0 352.64, 394.72zM278.62, 9.38A32 32 0 0 0 233.38, 9.38L159.38, 83.38A24 24 0 0 0 159.38, 117.31L170.22, 128.14L170.69, 128.6A24 24 0 0 0 204.61, 127.67L256, 72L307.37, 127.66A24 24 0 0 0 341.29, 128.59L341.76, 128.13L352.6, 117.3A24 24 0 0 0 352.6, 83.37z" fill="#727272" fill-opacity="1" class="Black" />
  </g>
</svg>