<?xml version='1.0' encoding='UTF-8'?>
<svg viewBox="-3.999 0.0027 32 32" xmlns="http://www.w3.org/2000/svg">
  <g transform="matrix(0.0625, 0, 0, 0.0625, 0, 0)">
    <defs>
      <style>.fa-secondary{opacity:.4}</style>
    </defs>
    <path d="M360, 480L24, 480A24 24 0 0 1 0, 456L0, 440A24 24 0 0 1 24, 416L360, 416A24 24 0 0 1 384, 440L384, 456A24 24 0 0 1 360, 480z" fill="#727272" opacity="0.4" fill-opacity="1" class="Black" />
    <path d="M232, 384L152, 384A23.94 23.94 0 0 1 128, 360L128, 224L40.3, 224C22.5, 224 13.5, 202.49 26.1, 189.89L178.4, 37.63A19.36 19.36 0 0 1 205.7, 37.63L357.8, 189.86C370.4, 202.46 361.5, 223.97 343.7, 223.97L256, 223.97L256, 360A23.94 23.94 0 0 1 232, 384z" fill="#727272" fill-opacity="1" class="Black" />
  </g>
</svg>