<?xml version='1.0' encoding='UTF-8'?>
<svg viewBox="-4 0 32 32" xmlns="http://www.w3.org/2000/svg">
  <g transform="matrix(0.0625, 0, 0, 0.0625, 0, 0)">
    <defs>
      <style>.fa-secondary{opacity:.4}</style>
    </defs>
    <path d="M360, 480L24, 480A24 24 0 0 1 0, 456L0, 440A24 24 0 0 1 24, 416L360, 416A24 24 0 0 1 384, 440L384, 456A24 24 0 0 1 360, 480z" fill="#727272" opacity="0.4" fill-opacity="1" class="Black" />
    <path d="M151.92, 32L231.92, 32A23.94 23.94 0 0 1 255.92, 56L255.92, 192L343.62, 192C361.42, 192 370.42, 213.51 357.82, 226.11L205.52, 378.37A19.36 19.36 0 0 1 178.22, 378.37L26.12, 226.14C13.52, 213.54 22.42, 192.03 40.22, 192.03L127.92, 192.03L127.92, 56A23.94 23.94 0 0 1 151.92, 32z" fill="#727272" fill-opacity="1" class="Black" />
  </g>
</svg>