<?xml version='1.0' encoding='UTF-8'?>
<svg viewBox="-1.9973 -2.0011 31.995 32" xmlns="http://www.w3.org/2000/svg">
  <g transform="matrix(0.0547, 0, 0, 0.0547, 0, 0)">
    <defs>
      <style>.fa-secondary{opacity:.4}</style>
    </defs>
    <path d="M405.66, 288L106.34, 288L72.57, 256L106.34, 224L405.66, 224L439.43, 256z" fill="#727272" opacity="0.4" fill-opacity="1" class="Black" />
    <path d="M358.59, 146.37A23.93 23.93 0 0 0 359.53, 180.29L439.43, 256L359.53, 331.71A23.93 23.93 0 0 0 358.59, 365.63L369.9, 377A24.15 24.15 0 0 0 404, 377L502.65, 278.64A31.92 31.92 0 0 0 502.65, 233.4L404, 135A24.15 24.15 0 0 0 369.95, 135zM153.41, 365.63A23.93 23.93 0 0 0 152.47, 331.71L72.57, 256L152.47, 180.29A23.93 23.93 0 0 0 153.41, 146.37L142.1, 135A24.15 24.15 0 0 0 108.1, 135L9.4, 233.38A31.92 31.92 0 0 0 9.4, 278.62L108.05, 377A24.15 24.15 0 0 0 142.1, 377z" fill="#727272" fill-opacity="1" class="Black" />
  </g>
</svg>