<?xml version='1.0' encoding='UTF-8'?>
<svg viewBox="-4 0 32 32" xmlns="http://www.w3.org/2000/svg">
  <g transform="matrix(0.0625, 0, 0, 0.0625, 0, 0)">
    <defs>
      <style>.fa-secondary{opacity:.4}</style>
    </defs>
    <path d="M360, 480L24, 480A23.94 23.94 0 0 1 0, 456.12L0, 440A23.94 23.94 0 0 1 23.88, 416L360, 416A23.94 23.94 0 0 1 384, 439.88L384, 456A23.94 23.94 0 0 1 360.12, 480z" fill="#727272" opacity="0.4" fill-opacity="1" class="Black" />
    <path d="M327.87, 190.52L344.93, 207.52A23.86 23.86 0 0 1 345.1, 241.26L344.93, 241.43L209, 377A24 24 0 0 1 175.06, 377.06L175, 377L39.07, 241.43A23.86 23.86 0 0 1 38.9, 207.69L39.07, 207.52L56.13, 190.52A24 24 0 0 1 90.07, 190.46L90.13, 190.52L155.94, 256.13L155.94, 56A24 24 0 0 1 179.94, 32L204.08, 32A24 24 0 0 1 228.15, 55.93L228.15, 256.13L294, 190.52A23.91 23.91 0 0 1 327.8, 190.45z" fill="#727272" fill-opacity="1" class="Black" />
  </g>
</svg>