<?xml version='1.0' encoding='UTF-8'?>
<svg viewBox="-1.9987 -0.0002 31.9975 32" xmlns="http://www.w3.org/2000/svg">
  <g transform="matrix(0.0625, 0, 0, 0.0625, 0, 0)">
    <defs>
      <style>.fa-secondary{opacity:.4}</style>
    </defs>
    <path d="M265, 56L265, 342.4L224, 384L183, 342.41L183, 56C183, 42.7 194, 32 207.63, 32L240.45, 32A24.22 24.22 0 0 1 265, 56z" fill="#727272" opacity="0.4" fill-opacity="1" class="Black" />
    <path d="M441.48, 278.31C441.25, 278.55 441.01, 278.79 440.77, 279.02L241.44, 473A25 25 0 0 1 206.66, 473L7.23, 279A23.38 23.38 0 0 1 6.53, 245.89C6.75, 245.65 6.99, 245.42 7.23, 245.19L30, 223.06A25.13 25.13 0 0 1 65.18, 223.46L224, 384.19L382.8, 223.46A24.94 24.94 0 0 1 417.98, 223.06L440.76, 245.21A23.38 23.38 0 0 1 441.48, 278.31z" fill="#727272" fill-opacity="1" class="Black" />
  </g>
</svg>