<?xml version='1.0' encoding='UTF-8'?>
<svg viewBox="-2 -0.0029 32 32" xmlns="http://www.w3.org/2000/svg">
  <g transform="matrix(0.0625, 0, 0, 0.0625, 0, 0)">
    <defs>
      <style>.fa-secondary{opacity:.4}</style>
    </defs>
    <path d="M0, 424L0, 88A23.94 23.94 0 0 1 24, 64L40, 64A23.94 23.94 0 0 1 64, 88L64, 424A23.94 23.94 0 0 1 40, 448L24, 448A23.94 23.94 0 0 1 0, 424z" fill="#727272" opacity="0.4" fill-opacity="1" class="Black" />
    <path d="M254.52, 120.13L271.52, 103.07A23.86 23.86 0 0 1 305.43, 103.07L441, 239A24 24 0 0 1 441, 273L305.43, 408.93A23.86 23.86 0 0 1 271.52, 408.93L254.52, 391.87A24 24 0 0 1 254.52, 357.87L320.13, 292.06L120, 292.06A24 24 0 0 1 96, 268L96, 243.91A24 24 0 0 1 120, 219.84L320.13, 219.84L254.52, 154A23.9 23.9 0 0 1 254.52, 120.13z" fill="#727272" fill-opacity="1" class="Black" />
  </g>
</svg>