<?xml version='1.0' encoding='UTF-8'?>
<svg viewBox="-2.0023 -1.9998 32 31.995" xmlns="http://www.w3.org/2000/svg">
  <g transform="matrix(0.0547, 0, 0, 0.0547, 0, 0)">
    <defs>
      <style>.fa-secondary{opacity:.4}</style>
    </defs>
    <path d="M160, 320A32 32 0 1 0 192, 352A32 32 0 0 0 160, 320zM32, 448A32 32 0 1 0 64, 480A32 32 0 0 0 32, 448zM512, 255.48C510.12, 140.48 436.2, 38.48 328, 1.48A28 28 0 1 0 309.9, 54.48C395.79, 83.86 454.5, 165 456, 256.46L456, 260.01A28 28 0 0 0 512, 260.01L512, 255.48zM39, 393L119, 473L153, 439L73, 359z" fill="#727272" opacity="0.4" fill-opacity="1" class="Black" />
    <path d="M240, 236A24 24 0 0 1 264, 260A28 28 0 0 0 320, 260A80 80 0 0 0 160, 260A28 28 0 0 0 216, 260A24 24 0 0 1 240, 236zM240, 84C143, 84 64, 163 64, 260A28 28 0 0 0 120, 260A120 120 0 0 1 360, 260C360, 335.16 289, 330.31 288, 403.62L288, 404A52.06 52.06 0 0 1 236, 456A28 28 0 0 0 236, 512A108.12 108.12 0 0 0 344, 404.23C344.59, 369.8 416, 356 416, 260C416, 163 337.05, 84 240, 84z" fill="#727272" fill-opacity="1" class="Black" />
  </g>
</svg>