<?xml version='1.0' encoding='UTF-8'?>
<svg viewBox="-1.5477 -1.5477 32 32" xmlns="http://www.w3.org/2000/svg">
  <g transform="matrix(0.9991, 0, 0, 0.9991, 0, 0)">
    <g transform="matrix(0.0565, 0, 0, 0.0565, 0, 0)">
      <defs>
        <style>.fa-secondary{opacity:.4}</style>
      </defs>
      <path d="M440, 232C440, 129.62 356.14, 72 256, 72C154.54, 72 72, 154.54 72, 256C72, 357.46 154.54, 440 256, 440A184.46 184.46 0 0 0 355.41, 410.87A23.94 23.94 0 0 1 386.78, 416L397, 428.4A24.94 24.94 0 0 1 398.61, 430.61A24 24 0 0 1 391.41, 463.78A248.76 248.76 0 0 1 256, 504C118.92, 504 8, 393.08 8, 256C8, 118.92 118.94, 8 256, 8C394, 8 504, 95.65 504, 232C504, 300.32 470.37, 365.22 384, 377.37L384, 315.37C419.72, 310.1 440, 270 440, 232z" fill="#727272" opacity="0.4" fill-opacity="1" class="Black" />
      <path d="M391.79, 164.58A24 24 0 0 0 372.79, 136.44A24.26 24.26 0 0 0 368.21, 136L323.21, 136A13.52 13.52 0 0 0 309.78, 148L309.78, 148.09C295.09, 130.19 269.33, 126.32 249.78, 126.32C175.23, 126.32 111.98, 188.54 111.98, 277.77C111.98, 343.07 148.77, 383.64 207.98, 383.64C234.98, 383.64 265.35, 368 282.98, 345.31C292.5, 379.41 323.59, 379.41 353.69, 379.41A217.39 217.39 0 0 0 383.98, 377.41L383.98, 315.41C383.26, 315.51 382.54, 315.63 381.81, 315.71C364.46, 315.26 364.9, 302.86 368.33, 285.71zM234.32, 312.43C212.07, 312.43 198.25, 296.81 198.25, 271.66C198.25, 226.66 229.03, 198.93 256.88, 198.93C279.17, 198.93 292.48, 214.17 292.48, 239.7C292.48, 284.76 258.61, 312.43 234.32, 312.43z" fill="#727272" fill-opacity="1" class="Black" />
    </g>
  </g>
</svg>