<?xml version='1.0' encoding='UTF-8'?>
<svg viewBox="-3.7494 -1.9999 32 32" xmlns="http://www.w3.org/2000/svg">
  <g transform="matrix(0.0547, 0, 0, 0.0547, 0, 0)">
    <defs>
      <style>.fa-secondary{opacity:.4}</style>
    </defs>
    <path d="M96, 448C76.8, 448 64, 435.2 64, 416C64, 396.8 80, 384 96, 384L415.33, 384C413.4, 400.24 413.57, 432.38 415.86, 448z" fill="#727272" opacity="0.4" fill-opacity="1" class="Black" />
    <path d="M224, 97.31C216.31, 104.76 203.23, 131.73 200.57, 176L247.44, 176C244.77, 131.74 231.69, 104.76 224, 97.31zM318.38, 208L279.29, 208C277.8, 235 272.75, 259.35 265.08, 278.41A95.85 95.85 0 0 0 318.38, 208zM318.38, 176A95.87 95.87 0 0 0 265.08, 105.59C272.76, 124.65 277.8, 149 279.29, 176zM182.92, 278.41C175.24, 259.35 170.2, 235 168.71, 208L129.62, 208A95.85 95.85 0 0 0 182.92, 278.41zM247.43, 208L200.56, 208C203.22, 252.26 216.3, 279.24 223.99, 286.69C231.69, 279.24 244.77, 252.26 247.43, 208zM96, 384L424, 384A24 24 0 0 0 448, 360L448, 32A32 32 0 0 0 416, 0L96, 0A96 96 0 0 0 0, 96L0, 416A96 96 0 0 0 96, 512L424, 512A24 24 0 0 0 448, 488L448, 472A24 24 0 0 0 424, 448L96, 448C76.8, 448 64, 435.2 64, 416C64, 396.8 80, 384 96, 384zM224, 64A128 128 0 1 1 96, 192A128 128 0 0 1 224, 64zM182.92, 105.59A95.85 95.85 0 0 0 129.62, 176L168.71, 176C170.2, 149 175.24, 124.65 182.92, 105.59z" fill="#727272" fill-opacity="1" class="Black" />
  </g>
</svg>