<?xml version='1.0' encoding='UTF-8'?>
<svg viewBox="-1.9975 0.0025 32 32" xmlns="http://www.w3.org/2000/svg">
  <g transform="matrix(0.0625, 0, 0, 0.0625, 0, 0)">
    <defs>
      <style>.fa-secondary{opacity:.4}</style>
    </defs>
    <path d="M224, 80.64C307.21, 28.91 387.1, 15.72 425.7, 54.31C464.3, 92.9 451.09, 172.79 399.37, 256A514.73 514.73 0 0 0 361.49, 203.11C389.26, 155.9 398.12, 116.38 380.87, 99.11C351.47, 69.72 257.41, 116.11 170.78, 202.76A651.68 651.68 0 0 0 144.2, 230.95A430.51 430.51 0 0 1 116.07, 190.2C113.34, 185.68 110.91, 181.41 108.73, 177.38Q117.38, 167.93 126.66, 158.64A584.93 584.93 0 0 1 171.12, 118.48Q174.33, 115.87 177.56, 113.32L177.82, 113.12Q187.63, 105.39 197.48, 98.34L197.68, 98.2Q200.68, 96.07 203.68, 94L204.91, 93.16C206.59, 92 208.28, 90.85 209.91, 89.72L211.34, 88.72C213.1, 87.55 214.86, 86.39 216.62, 85.26L217.62, 84.62Q220.79, 82.63 224, 80.64zM224, 224A32 32 0 1 0 256, 256A32 32 0 0 0 224, 224zM277.22, 309.22Q263.22, 323.22 249.04, 335.79A403.3 403.3 0 0 0 302.04, 371C302.21, 371.1 302.38, 371.18 302.55, 371.27Q312, 362.62 321.29, 353.34A582.54 582.54 0 0 0 361.44, 308.89A466.42 466.42 0 0 0 324.83, 256A625.1 625.1 0 0 1 277.22, 309.22zM171.12, 393.5C123.9, 421.26 84.38, 430.12 67.12, 412.87C49.86, 395.62 58.73, 356.1 86.49, 308.87A516.23 516.23 0 0 1 48.64, 256C-3.08, 339.22 -16.28, 419.09 22.31, 457.69C60.9, 496.29 140.78, 483.08 224, 431.36A516.23 516.23 0 0 1 171.12, 393.5z" fill="#727272" opacity="0.4" fill-opacity="1" class="Black" />
    <path d="M425.69, 457.69C371.93, 511.45 238.05, 464.69 126.69, 353.34C15.33, 241.99 -31.45, 108.07 22.31, 54.31C60.91, 15.72 140.78, 28.92 224, 80.64A516.23 516.23 0 0 0 171.13, 118.5C123.91, 90.74 84.39, 81.88 67.13, 99.13C37.74, 128.53 84.13, 222.59 170.78, 309.22C257.43, 395.85 351.47, 442.22 380.87, 412.87C410.27, 383.52 363.87, 289.41 277.22, 202.78Q263.22, 188.78 249.02, 176.2A433.78 433.78 0 0 1 289.78, 148.07C294.3, 145.34 298.57, 142.91 302.6, 140.73Q312.05, 149.39 321.34, 158.66C432.73, 270.05 479.45, 403.93 425.69, 457.69z" fill="#727272" fill-opacity="1" class="Black" />
  </g>
</svg>