<?xml version='1.0' encoding='UTF-8'?>
<svg viewBox="-2 -1.9988 32 32" xmlns="http://www.w3.org/2000/svg">
  <g transform="matrix(0.0547, 0, 0, 0.0547, 0, 0)">
    <defs>
      <style>.fa-secondary{opacity:.4}</style>
    </defs>
    <path d="M159, 223.47C157.78, 228.71 156.41, 234.29 155.13, 238.71L146.13, 269.36L171.7, 269.36L162.87, 238.71C161.61, 234.29 160.23, 228.72 159, 223.47zM464, 64L48, 64A48 48 0 0 0 0, 112L0, 400A48 48 0 0 0 48, 448L464, 448A48 48 0 0 0 512, 400L512, 112A48 48 0 0 0 464, 64zM234.1, 352L204.93, 352A12 12 0 0 1 193.4, 343.4L184.61, 313.4L133.24, 313.4L124.67, 343.31A12 12 0 0 1 113.13, 352L84, 352A12 12 0 0 1 72.65, 336.14L129.74, 168.14A12 12 0 0 1 141.11, 160L177, 160A12 12 0 0 1 188.36, 168.14L245.46, 336.14A12 12 0 0 1 234.1, 352zM331.2, 352L273.83, 352A12 12 0 0 1 261.83, 340L261.83, 172A12 12 0 0 1 273.83, 160L331.2, 160C392.2, 160 430.2, 196.64 430.2, 255.61C430.2, 315.07 392.2, 352 331.2, 352zM329.4, 206.61L314.88, 206.61L314.88, 305.39L329.4, 305.39C359.17, 305.39 375.57, 287.71 375.57, 255.61C375.57, 223.51 358.08, 206.61 329.4, 206.61z" fill="#727272" opacity="0.4" fill-opacity="1" class="Black" />
    <path d="M188.36, 168.14A12 12 0 0 0 177, 160L141.11, 160A12 12 0 0 0 129.74, 168.14L72.65, 336.14A12 12 0 0 0 84, 352L113.13, 352A12 12 0 0 0 124.67, 343.31L133.24, 313.4L184.61, 313.4L193.4, 343.4A12 12 0 0 0 204.93, 352L234.1, 352A12 12 0 0 0 245.46, 336.14zM146.14, 269.36L155.14, 238.71C156.42, 234.29 157.79, 228.71 159.01, 223.47C160.23, 228.72 161.61, 234.29 162.88, 238.71L171.71, 269.36zM331.2, 160L273.83, 160A12 12 0 0 0 261.83, 172L261.83, 340A12 12 0 0 0 273.83, 352L331.2, 352C392.2, 352 430.2, 315.07 430.2, 255.61C430.16, 196.64 392.24, 160 331.2, 160zM329.4, 305.39L314.88, 305.39L314.88, 206.61L329.4, 206.61C358.08, 206.61 375.57, 223.38 375.57, 255.61C375.57, 287.84 359.17, 305.39 329.4, 305.39z" fill="#727272" fill-opacity="1" class="Black" />
  </g>
</svg>