<?xml version='1.0' encoding='UTF-8'?>
<svg viewBox="-5.4965 -2 32 32" xmlns="http://www.w3.org/2000/svg">
  <g transform="matrix(0.0547, 0, 0, 0.0547, 0, 0)">
    <defs>
      <style>.fa-secondary{opacity:.4}</style>
    </defs>
    <path d="M382.78, 448.69L324, 304.23A40.63 40.63 0 0 1 301.77, 319.85C280, 325.78 278.26, 324.44 263, 340A39.72 39.72 0 0 1 213.27, 345.82A39.68 39.68 0 0 0 170.74, 345.82A39.73 39.73 0 0 1 121, 340C106.27, 325 104.6, 326 82.27, 319.88A40.54 40.54 0 0 1 60.2, 304.48L1.2, 448.7A16 16 0 0 0 16.63, 470.7L69.32, 468.7L105.54, 507A16 16 0 0 0 128.16, 507.61A16.23 16.23 0 0 0 132, 502L192.15, 354.9L252, 502A16 16 0 0 0 278.43, 507L314.68, 468.72L367.37, 470.72A16 16 0 0 0 384, 455.33A16.23 16.23 0 0 0 382.78, 448.69zM192, 240A64 64 0 1 0 128, 176A64 64 0 0 0 192, 240z" fill="#727272" opacity="0.4" fill-opacity="1" class="Black" />
    <path d="M366.62, 152.72A41.51 41.51 0 0 0 356.2, 113.13C335.79, 92.36 337.73, 95.78 330.25, 67.39A40.66 40.66 0 0 0 301.78, 38.39C273.9, 30.78 277.26, 32.77 256.78, 11.98A39.79 39.79 0 0 0 218, 1.39C190.08, 8.99 194, 8.99 166.05, 1.39A39.8 39.8 0 0 0 127.16, 12C106.75, 32.78 110.16, 30.8 82.22, 38.41A40.66 40.66 0 0 0 53.75, 67.41C46.28, 95.8 48.21, 92.41 27.8, 113.16A41.46 41.46 0 0 0 17.38, 152.74C24.85, 181.1 24.86, 177.14 17.38, 205.56A41.52 41.52 0 0 0 27.8, 245.13C48.21, 265.91 46.27, 262.48 53.8, 290.88A40.64 40.64 0 0 0 82.27, 319.88C104.6, 326 106.27, 325 121, 340A39.74 39.74 0 0 0 170.74, 345.82A39.68 39.68 0 0 1 213.27, 345.82A39.73 39.73 0 0 0 263, 340C278.28, 324.45 280, 325.79 301.79, 319.86A40.64 40.64 0 0 0 330.26, 290.86C337.74, 262.46 335.8, 265.86 356.21, 245.11A41.49 41.49 0 0 0 366.63, 205.53C359.15, 177.17 359.14, 181.13 366.62, 152.72zM192, 272A96 96 0 1 1 288, 176A96 96 0 0 1 192, 272z" fill="#727272" fill-opacity="1" class="Black" />
  </g>
</svg>