<?xml version='1.0' encoding='UTF-8'?>
<svg viewBox="-1.9999 -1.9974 32 31.9975" xmlns="http://www.w3.org/2000/svg">
  <g transform="matrix(0.0547, 0, 0, 0.0547, 0, 0)">
    <defs>
      <style>.fa-secondary{opacity:.4}</style>
    </defs>
    <path d="M512, 160.92C505.16, 99.16 478.4, 44.29 438.94, 4.7C429.73, -4.55 415.05, 0.58 411.88, 13.7C399.88, 63.37 364.63, 101.97 320, 114.93L320, 269.11C364.63, 282.11 399.85, 320.67 411.88, 370.34C415.05, 383.42 429.73, 388.55 438.94, 379.34C478.4, 339.75 505.16, 284.89 512, 223.12L449.24, 192zM101, 13.66C97.86, 0.58 83.32, -4.54 74.2, 4.7C28.67, 50.83 0, 117.62 0, 192C0, 266.38 28.67, 333.17 74.2, 379.3C83.33, 388.55 97.86, 383.42 101, 370.3C112.92, 320.63 147.79, 282.03 192, 269.07L192, 114.89C147.79, 101.93 112.92, 63.33 101, 13.66z" fill="#727272" opacity="0.4" fill-opacity="1" class="Black" />
    <path d="M288, 80L288, 496A16 16 0 0 1 272, 512L240, 512A16 16 0 0 1 224, 496L224, 80A16 16 0 0 1 240, 64L272, 64A16 16 0 0 1 288, 80z" fill="#727272" fill-opacity="1" class="Black" />
  </g>
</svg>