<?xml version='1.0' encoding='UTF-8'?>
<svg viewBox="-2 -1.9988 32 32" xmlns="http://www.w3.org/2000/svg">
  <g transform="matrix(0.0547, 0, 0, 0.0547, 0, 0)">
    <defs>
      <style>.fa-secondary{opacity:.4}</style>
    </defs>
    <path d="M96, 384A64 64 0 1 0 160, 448A64 64 0 0 0 96, 384zM352, 384A64 64 0 1 0 416, 448A64 64 0 0 0 352, 384zM90.8, 7.61C35.3, 51.91 0, 118 0, 192L256, 192L144.8, 17C133.5, -0.79 107.6, -5.79 90.8, 7.61z" fill="#727272" opacity="0.4" fill-opacity="1" class="Black" />
    <path d="M496, 96L448, 96A64.06 64.06 0 0 0 384, 160L384, 224L0, 224A191.44 191.44 0 0 0 56.82, 360.34A96.07 96.07 0 0 1 186.5, 415.92C188.33, 415.97 190.16, 416 192, 416L256, 416C257.84, 416 259.67, 416 261.5, 415.92A96.07 96.07 0 0 1 391.18, 360.34A191.44 191.44 0 0 0 448, 224L448, 160L496, 160A16 16 0 0 0 512, 144L512, 112A16 16 0 0 0 496, 96z" fill="#727272" fill-opacity="1" class="Black" />
  </g>
</svg>