<?xml version='1.0' encoding='UTF-8'?>
<svg viewBox="-3.7495 -2 32 32" xmlns="http://www.w3.org/2000/svg">
  <g transform="matrix(0.0547, 0, 0, 0.0547, 0, 0)">
    <defs>
      <style>.fa-secondary{opacity:.4}</style>
    </defs>
    <path d="M320, 320L128, 320A32 32 0 0 0 96, 352L96, 384L352, 384L352, 352A32 32 0 0 0 320, 320zM136, 208L312, 208A8 8 0 0 0 320, 200L320, 184A8 8 0 0 0 312, 176L136, 176A8 8 0 0 0 128, 184L128, 200A8 8 0 0 0 136, 208z" fill="#727272" opacity="0.4" fill-opacity="1" class="Black" />
    <path d="M96, 512L352, 512L352, 416L96, 416zM320, 80L312, 80L312, 56A56.06 56.06 0 0 0 256, 0L192, 0A56.06 56.06 0 0 0 136, 56L136, 80L128, 80A128 128 0 0 0 0, 208L0, 448A64 64 0 0 0 64, 512L64, 352A64.07 64.07 0 0 1 128, 288L320, 288A64.07 64.07 0 0 1 384, 352L384, 512A64 64 0 0 0 448, 448L448, 208A128 128 0 0 0 320, 80zM184, 56A8 8 0 0 1 192, 48L256, 48A8 8 0 0 1 264, 56L264, 80L184, 80zM320, 200A8 8 0 0 1 312, 208L136, 208A8 8 0 0 1 128, 200L128, 184A8 8 0 0 1 136, 176L312, 176A8 8 0 0 1 320, 184z" fill="#727272" fill-opacity="1" class="Black" />
  </g>
</svg>