<?xml version='1.0' encoding='UTF-8'?>
<svg viewBox="-1.9975 -3.5506 32 32" xmlns="http://www.w3.org/2000/svg">
  <g transform="matrix(0.0486, 0, 0, 0.0486, 0, 0)">
    <defs>
      <style>.fa-secondary{opacity:.4}</style>
    </defs>
    <path d="M9.09, 407.62C-3.61, 395 -3, 374 10.88, 362.56C47.21, 332.56 77.08, 321.46 101.94, 312.2C111.11, 308.79 170.94, 292.94 200.66, 214.11C209.27, 191.3 247, 79.52 389.66, 26.38C405.51, 20.47 417.02, 16.18 430.66, 6.08A31 31 0 0 1 470.8, 8.91L497.11, 35.05C467, 62.7 444.24, 71.37 420.38, 80.37C392.08, 91 362.81, 102 323, 141.75C283.19, 181.5 272.24, 210.8 261.63, 239.09C251.78, 265.4 242.47, 290.21 207.58, 325.09C172.69, 359.97 147.93, 369.25 121.67, 379.09C95.67, 388.85 68.67, 399.22 33.5, 431.82zM566.92, 104.4L542.48, 80.2C507.29, 112.84 480.31, 123.2 454.24, 133C427.98, 142.85 403.18, 152.16 368.29, 187C333.4, 221.84 324.1, 246.69 314.29, 273C303.65, 301.33 292.67, 330.56 252.88, 370.34C213.09, 410.12 183.88, 421.07 155.58, 431.66C131.73, 440.66 108.99, 449.31 78.9, 476.96L105.22, 503.1A31 31 0 0 0 145.4, 505.92C159, 495.86 170.49, 491.58 186.34, 485.68C328.53, 432.68 366.34, 321.57 375.27, 297.98C405, 219.19 464.79, 203.31 474, 199.87C498.87, 190.59 528.74, 179.46 565.11, 149.45C579, 138.05 579.62, 117 566.92, 104.4z" fill="#727272" opacity="0.4" fill-opacity="1" class="Black" />
    <path d="M252.88, 370.34C213.09, 410.12 183.88, 421.07 155.58, 431.66C131.72, 440.66 108.98, 449.32 78.87, 476.99L33.54, 431.83C68.71, 399.23 95.71, 388.83 121.71, 379.1C147.97, 369.26 172.76, 359.98 207.62, 325.1C242.48, 290.22 251.82, 265.4 261.67, 239.1C272.28, 210.81 283.26, 181.56 323.04, 141.76C362.82, 101.96 392.04, 90.99 420.38, 80.38C444.26, 71.38 467.02, 62.7 497.17, 35.01L542.48, 80.21C507.29, 112.85 480.31, 123.21 454.24, 133.01C427.98, 142.86 403.18, 152.17 368.29, 187.01C333.4, 221.85 324.1, 246.7 314.29, 273.01C303.65, 301.33 292.67, 330.56 252.88, 370.34z" fill="#727272" fill-opacity="1" class="Black" />
  </g>
</svg>