<?xml version='1.0' encoding='UTF-8'?>
<svg viewBox="-2 -4.7993 32 32" xmlns="http://www.w3.org/2000/svg">
  <g transform="matrix(0.9988, 0, 0, 0.9988, 0, 0)">
    <g transform="matrix(0.0438, 0, 0, 0.0438, 0, 0)">
      <defs>
        <style>.fa-secondary{opacity:.4}</style>
      </defs>
      <path d="M0, 160L0, 352A64.05 64.05 0 0 0 64, 416L160, 416L160, 96L64, 96A64.05 64.05 0 0 0 0, 160zM576, 96L480, 96L480, 416L576, 416A64.05 64.05 0 0 0 640, 352L640, 160A64.05 64.05 0 0 0 576, 96zM192, 416L448, 416L448, 96L192, 96zM368, 184A24 24 0 1 1 344, 208A23.94 23.94 0 0 1 368, 184zM368, 280A24 24 0 1 1 344, 304A23.94 23.94 0 0 1 368, 280zM272, 184A24 24 0 1 1 248, 208A23.94 23.94 0 0 1 272, 184zM272, 280A24 24 0 1 1 248, 304A23.94 23.94 0 0 1 272, 280z" fill="#727272" opacity="0.4" fill-opacity="1" class="Black" />
      <path d="M160, 416L192, 416L192, 96L160, 96zM448, 96L448, 416L480, 416L480, 96z" fill="#727272" fill-opacity="1" class="Black" />
    </g>
  </g>
</svg>