<?xml version='1.0' encoding='UTF-8'?>
<svg viewBox="-1.9999 -2.0011 31.9975 32" xmlns="http://www.w3.org/2000/svg">
  <g transform="matrix(0.0547, 0, 0, 0.0547, 0, 0)">
    <defs>
      <style>.fa-secondary{opacity:.4}</style>
    </defs>
    <path d="M192, 200A120 120 0 1 1 72, 320A120.13 120.13 0 0 1 192, 200M192, 152A168 168 0 1 0 360, 320A168 168 0 0 0 192, 152z" fill="#727272" opacity="0.4" fill-opacity="1" class="Black" />
    <path d="M194.34, 381.66L205.65, 370.35A8 8 0 0 0 205.65, 359.03L153, 306.35A8 8 0 0 0 141.68, 306.35L130.37, 317.66A8 8 0 0 0 130.37, 328.97L183, 381.66A8 8 0 0 0 194.34, 381.66zM502.63, 39L473.05, 9.37A32 32 0 0 0 427.79, 9.37L381.48, 55.69A35.26 35.26 0 0 0 373, 69.48L360.81, 106.07L286, 180.79A168.81 168.81 0 0 1 331.29, 226L406.17, 151.12L442.52, 139A35.12 35.12 0 0 0 456.31, 130.48L502.63, 84.17A32 32 0 0 0 502.63, 39zM56.48, 221.48A168.39 168.39 0 0 1 93.48, 184.48L93.25, 184.25A26.18 26.18 0 0 0 56.25, 221.25zM56.48, 418.48L56.25, 418.7A26.18 26.18 0 1 0 93.25, 455.7L93.48, 455.47A168 168 0 0 1 56.48, 418.52zM26.18, 293.78A26.18 26.18 0 0 0 26.18, 346.14L26.64, 346.14C25.29, 337.59 24, 329 24, 320C24, 311 25.29, 302.41 26.64, 293.82zM327.52, 418.48A168 168 0 0 1 290.52, 455.48L290.75, 455.71A26.18 26.18 0 1 0 327.75, 418.71zM357.82, 293.78L357.36, 293.78C358.71, 302.41 360, 311 360, 320C360, 329 358.71, 337.59 357.36, 346.18L357.82, 346.18A26.18 26.18 0 0 0 357.82, 293.82zM165.82, 485.32L165.82, 485.78A26.18 26.18 0 0 0 218.18, 485.78L218.18, 485.32C209.59, 486.71 201, 488 192, 488C183, 488 174.41, 486.71 165.82, 485.36zM192, 128A26.18 26.18 0 0 0 165.82, 154.18L165.82, 154.64C174.41, 153.29 183, 152 192, 152C201, 152 209.59, 153.29 218.18, 154.64L218.18, 154.18A26.19 26.19 0 0 0 192, 128z" fill="#727272" fill-opacity="1" class="Black" />
  </g>
</svg>