<?xml version='1.0' encoding='UTF-8'?>
<svg viewBox="-2 -2 32 32" xmlns="http://www.w3.org/2000/svg">
  <g transform="matrix(0.0547, 0, 0, 0.0547, 0, 0)">
    <defs>
      <style>.fa-secondary{opacity:.4}</style>
    </defs>
    <path d="M179.71, 447.73L188.57, 447.73L188.57, 64L179.71, 64zM215.71, 447.73L224.57, 447.73L224.57, 64L215.71, 64zM98.86, 447.73L107.71, 447.73L107.71, 64L98.86, 64zM26.86, 447.73L36, 447.73L36, 64L26.86, 64zM494, 64L494, 448L512, 448L512, 64zM440.29, 447.73L467.14, 447.73L467.14, 64L440.29, 64zM296.29, 447.73L314.29, 447.73L314.29, 64L296.29, 64zM368.29, 447.73L386.29, 447.73L386.29, 64L368.29, 64z" fill="#727272" opacity="0.4" fill-opacity="1" class="Black" />
    <path d="M134.86, 447.73L152.57, 447.73L152.57, 64L134.86, 64zM197.71, 447.73L206.57, 447.73L206.57, 64L197.71, 64zM0, 448L18, 448L18, 64L0, 64zM54, 447.73L62.86, 447.73L62.86, 64L54, 64zM395.14, 447.73L413.14, 447.73L413.14, 64L395.14, 64zM476, 64L476, 447.73L485.14, 447.73L485.14, 64zM251.43, 447.73L269.43, 447.73L269.43, 64L251.43, 64zM332.29, 447.73L350.29, 447.73L350.29, 64L332.29, 64z" fill="#727272" fill-opacity="1" class="Black" />
  </g>
</svg>