<?xml version='1.0' encoding='UTF-8'?>
<svg viewBox="-2 -4.7992 32 32" xmlns="http://www.w3.org/2000/svg">
  <g transform="matrix(0.9988, 0, 0, 0.9988, 0, 0)">
    <g transform="matrix(0.0438, 0, 0, 0.0438, 0, 0)">
      <defs>
        <style>.fa-secondary{opacity:.4}</style>
      </defs>
      <path d="M280, 0L232, 0A8 8 0 0 0 224, 8L224, 160L288, 160L288, 8A8 8 0 0 0 280, 0zM152, 0L72, 0A8 8 0 0 0 64, 8L64, 160L160, 160L160, 8A8 8 0 0 0 152, 0zM64, 504A8 8 0 0 0 72, 512L152, 512A8 8 0 0 0 160, 504L160, 352L64, 352zM472, 0L424, 0A8 8 0 0 0 416, 8L416, 160L480, 160L480, 8A8 8 0 0 0 472, 0zM568, 0L520, 0A8 8 0 0 0 512, 8L512, 160L576, 160L576, 8A8 8 0 0 0 568, 0zM376, 0L360, 0A8 8 0 0 0 352, 8L352, 160L384, 160L384, 8A8 8 0 0 0 376, 0zM512, 504A8 8 0 0 0 520, 512L568, 512A8 8 0 0 0 576, 504L576, 352L512, 352zM224, 504A8 8 0 0 0 232, 512L280, 512A8 8 0 0 0 288, 504L288, 352L224, 352zM416, 504A8 8 0 0 0 424, 512L472, 512A8 8 0 0 0 480, 504L480, 352L416, 352zM352, 504A8 8 0 0 0 360, 512L376, 512A8 8 0 0 0 384, 504L384, 352L352, 352z" fill="#727272" opacity="0.4" fill-opacity="1" class="Black" />
      <path d="M640, 232L640, 280A8 8 0 0 1 632, 288L8, 288A8 8 0 0 1 0, 280L0, 232A8 8 0 0 1 8, 224L632, 224A8 8 0 0 1 640, 232z" fill="#727272" fill-opacity="1" class="Black" />
    </g>
  </g>
</svg>