<?xml version='1.0' encoding='UTF-8'?>
<svg viewBox="-2 -4.7992 32 32" xmlns="http://www.w3.org/2000/svg">
  <g transform="matrix(0.9988, 0, 0, 0.9988, 0, 0)">
    <g transform="matrix(0.0438, 0, 0, 0.0438, 0, 0)">
      <defs>
        <style>.fa-secondary{opacity:.4}</style>
      </defs>
      <path d="M144, 448L64, 448L64, 368A16 16 0 0 0 48, 352L16, 352A16 16 0 0 0 0, 368L0, 496A16 16 0 0 0 16, 512L144, 512A16 16 0 0 0 160, 496L160, 464A16 16 0 0 0 144, 448zM144, 0L16, 0A16 16 0 0 0 0, 16L0, 144A16 16 0 0 0 16, 160L48, 160A16 16 0 0 0 64, 144L64, 64L144, 64A16 16 0 0 0 160, 48L160, 16A16 16 0 0 0 144, 0zM624, 0L496, 0A16 16 0 0 0 480, 16L480, 48A16 16 0 0 0 496, 64L576, 64L576, 144A16 16 0 0 0 592, 160L624, 160A16 16 0 0 0 640, 144L640, 16A16 16 0 0 0 624, 0zM624, 352L592, 352A16 16 0 0 0 576, 368L576, 448L496, 448A16 16 0 0 0 480, 464L480, 496A16 16 0 0 0 496, 512L624, 512A16 16 0 0 0 640, 496L640, 368A16 16 0 0 0 624, 352z" fill="#727272" opacity="0.4" fill-opacity="1" class="Black" />
      <path d="M184, 128L136, 128A8 8 0 0 0 128, 136L128, 376A8 8 0 0 0 136, 384L184, 384A8 8 0 0 0 192, 376L192, 136A8 8 0 0 0 184, 128zM248, 128L232, 128A8 8 0 0 0 224, 136L224, 376A8 8 0 0 0 232, 384L248, 384A8 8 0 0 0 256, 376L256, 136A8 8 0 0 0 248, 128zM408, 128L360, 128A8 8 0 0 0 352, 136L352, 376A8 8 0 0 0 360, 384L408, 384A8 8 0 0 0 416, 376L416, 136A8 8 0 0 0 408, 128zM312, 128L296, 128A8 8 0 0 0 288, 136L288, 376A8 8 0 0 0 296, 384L312, 384A8 8 0 0 0 320, 376L320, 136A8 8 0 0 0 312, 128zM504, 128L456, 128A8 8 0 0 0 448, 136L448, 376A8 8 0 0 0 456, 384L504, 384A8 8 0 0 0 512, 376L512, 136A8 8 0 0 0 504, 128z" fill="#727272" fill-opacity="1" class="Black" />
    </g>
  </g>
</svg>