<?xml version='1.0' encoding='UTF-8'?>
<svg viewBox="-1.995 -4.7935 32 32" xmlns="http://www.w3.org/2000/svg">
  <g transform="matrix(1.0013, 0, 0, 1.0013, 0, 0)">
    <g transform="matrix(0.0437, 0, 0, 0.0437, 0, 0)">
      <defs>
        <style>.fa-secondary{opacity:.4}</style>
      </defs>
      <path d="M123, 354.88L169, 419C184.9, 409.9 201.3, 401.5 217.8, 393.5L162, 315.68C149.37, 329.18 136.47, 342.28 123, 354.88zM495, 352.08A80 80 0 1 0 574.8, 432.08A79.87 79.87 0 0 0 495, 352.08z" fill="#727272" opacity="0.4" fill-opacity="1" class="Black" />
      <path d="M629.67, 56.08L605.77, 22.68A53.82 53.82 0 0 0 530, 10.48L318, 166.78C248.9, 217.68 205.6, 266.58 180.8, 295.08L243, 381.78C277.6, 366.58 336.7, 339.98 405.8, 289.08L617.9, 132.88C642, 115.08 647.27, 80.68 629.67, 56.08zM46.37, 417.68C27.17, 393.58 9.77, 408.68 8.97, 409.28A24 24 0 0 0 5.27, 443L53.17, 503A23.87 23.87 0 0 0 86.87, 506.7C89.67, 504.5 104.37, 490.2 89.17, 471.1C97.37, 465.2 113.77, 452.9 145.57, 433.2L102.37, 372.9C72.37, 398.88 55.37, 411.08 46.37, 417.68z" fill="#727272" fill-opacity="1" class="Black" />
    </g>
  </g>
</svg>