<?xml version='1.0' encoding='UTF-8'?>
<svg viewBox="-1.9999 -1.549 31.9975 32" xmlns="http://www.w3.org/2000/svg">
  <g transform="matrix(0.999, 0, 0, 0.999, 0, 0)">
    <g transform="matrix(0.0565, 0, 0, 0.0565, 0, 0)">
      <defs>
        <style>.fa-secondary{opacity:.4}</style>
      </defs>
      <path d="M216, 10.05A247 247 0 0 0 84.33, 69.7L164.22, 149.59A212.33 212.33 0 0 0 216, 10.05zM186.89, 172.26L248, 233.37L411.67, 69.7A247 247 0 0 0 248, 8L248, 10A244.13 244.13 0 0 1 186.89, 172.26zM280, 502A247 247 0 0 0 411.67, 442.3L331.78, 362.41A212.38 212.38 0 0 0 280, 502zM434.3, 92.33L270.63, 256L331.74, 317.11A244.18 244.18 0 0 1 494, 256L496, 256A247 247 0 0 0 434.3, 92.33zM434.3, 419.67A247 247 0 0 0 494, 288A212.33 212.33 0 0 0 354.46, 339.78zM309.11, 339.74L248, 278.63L84.33, 442.3A247 247 0 0 0 248, 504L248, 502A244.13 244.13 0 0 1 309.11, 339.74zM61.7, 92.33A247 247 0 0 0 2.05, 224A212.33 212.33 0 0 0 141.59, 172.22zM164.26, 194.89A244.13 244.13 0 0 1 2, 256L0, 256A247 247 0 0 0 61.7, 419.67L225.37, 256z" fill="#727272" opacity="0.4" fill-opacity="1" class="Black" />
      <path d="M280, 502A249.84 249.84 0 0 1 248, 504L248, 502A244.13 244.13 0 0 1 309.11, 339.74L248, 278.63L84.33, 442.3A249.14 249.14 0 0 1 61.7, 419.67L225.37, 256L164.26, 194.89A244.13 244.13 0 0 1 2, 256L0, 256A249.89 249.89 0 0 1 2.05, 224A212.33 212.33 0 0 0 141.59, 172.22L61.7, 92.33A249.14 249.14 0 0 1 84.33, 69.7L164.22, 149.59A212.33 212.33 0 0 0 216, 10.05A249.89 249.89 0 0 1 248, 8L248, 10A244.13 244.13 0 0 1 186.89, 172.26L248, 233.37L411.67, 69.7A249.14 249.14 0 0 1 434.3, 92.33L270.63, 256L331.74, 317.11A244.18 244.18 0 0 1 494, 256L496, 256A249.84 249.84 0 0 1 494, 288A212.33 212.33 0 0 0 354.46, 339.78L434.35, 419.67A249.14 249.14 0 0 1 411.72, 442.3L331.83, 362.41A212.39 212.39 0 0 0 280, 502z" fill="#727272" fill-opacity="1" class="Black" />
    </g>
  </g>
</svg>