<?xml version='1.0' encoding='UTF-8'?>
<svg viewBox="-2 -4.8001 32 32" xmlns="http://www.w3.org/2000/svg">
  <g transform="matrix(0.9988, 0, 0, 0.9988, 0, 0)">
    <g transform="matrix(0.0438, 0, 0, 0.0438, 0, 0)">
      <defs>
        <style>.fa-secondary{opacity:.4}</style>
      </defs>
      <path d="M411.83, 175.3L320, 230.4L228.17, 175.3L256, 64L298.66, 96L341.33, 96L384, 64z" fill="#727272" opacity="0.4" fill-opacity="1" class="Black" />
      <path d="M640, 320L590.37, 303.46A64 64 0 0 0 516.88, 328.67L480, 384L468.18, 372.18A64 64 0 0 0 377.67, 372.18A65.74 65.74 0 0 0 371.72, 379.04L320, 448L268.28, 379A64 64 0 0 0 178.68, 366.2A64.73 64.73 0 0 0 171.82, 372.15L160, 384L123.11, 328.67A64 64 0 0 0 49.62, 303.46L0, 320L81.55, 129.69A32 32 0 0 1 123.55, 112.89A32.58 32.58 0 0 1 127.41, 114.89L320, 230.4L512.56, 114.87A32 32 0 0 1 556.47, 125.87A32.58 32.58 0 0 1 558.47, 129.73z" fill="#727272" fill-opacity="1" class="Black" />
    </g>
  </g>
</svg>