<?xml version='1.0' encoding='UTF-8'?>
<svg viewBox="-2 -4.7992 32 32" xmlns="http://www.w3.org/2000/svg">
  <g transform="matrix(0.9988, 0, 0, 0.9988, 0, 0)">
    <g transform="matrix(0.0438, 0, 0, 0.0438, 0, 0)">
      <defs>
        <style>.fa-secondary{opacity:.4}</style>
      </defs>
      <path d="M64, 160L156.28, 160L163.94, 96L48, 96A48 48 0 0 0 0, 144L0, 368A48 48 0 0 0 48, 416L228.61, 416L242.78, 352L64, 352zM616, 160L608, 160L608, 144A48 48 0 0 0 560, 96L405.38, 96L395.43, 144L428.78, 144A65.73 65.73 0 0 1 471.89, 160L544, 160L544, 224L576, 224L576, 288L544, 288L544, 352L427.17, 352L390.55, 416L560, 416A48 48 0 0 0 608, 368L608, 352L616, 352A24 24 0 0 0 640, 328L640, 184A24 24 0 0 0 616, 160z" fill="#727272" opacity="0.4" fill-opacity="1" class="Black" />
      <path d="M445.39, 223.52L304.62, 469.52A19 19 0 0 1 288, 480C275.74, 480 266.45, 467.44 269.33, 454.16L306.17, 287.77L211.17, 287.77C199.57, 287.77 190.61, 276.59 192.17, 264L217.77, 50.22C219, 39.79 227.18, 32 236.8, 32L345.6, 32C358.2, 32 367.4, 45.09 364.15, 58.41L336.46, 192L428.78, 192C443.56, 192 452.79, 209.55 445.39, 223.52z" fill="#727272" fill-opacity="1" class="Black" />
    </g>
  </g>
</svg>