<?xml version='1.0' encoding='UTF-8'?>
<svg viewBox="-2 -4.7992 32 32" xmlns="http://www.w3.org/2000/svg">
  <g transform="matrix(1.0011, 0, 0, 1.0011, 0, 0)">
    <g transform="matrix(0.0437, 0, 0, 0.0437, 0, 0)">
      <defs>
        <style>.fa-secondary{opacity:.4}</style>
      </defs>
      <path d="M165.31, 96L560, 96A48 48 0 0 1 608, 144L608, 160L616, 160A24 24 0 0 1 640, 184L640, 328A24 24 0 0 1 616, 352L608, 352L608, 368A48 48 0 0 1 575.86, 413.31L496.54, 352L544, 352L544, 288L576, 288L576, 224L544, 224L544, 160L248.12, 160zM64, 352L64, 179.49L1.87, 131.49A47.37 47.37 0 0 0 0, 144L0, 368A48 48 0 0 0 48, 416L370, 416L287.19, 352z" fill="#727272" opacity="0.4" fill-opacity="1" class="Black" />
      <path d="M633.83, 458.11L45.47, 3.38A16 16 0 0 0 23, 6.17L3.37, 31.46A16 16 0 0 0 6.18, 53.91L594.53, 508.64A16 16 0 0 0 617, 505.85L636.64, 480.58A16 16 0 0 0 633.83, 458.11z" fill="#727272" fill-opacity="1" class="Black" />
    </g>
  </g>
</svg>