<?xml version='1.0' encoding='UTF-8'?>
<svg viewBox="-1.9973 -4.7993 31.9975 32" xmlns="http://www.w3.org/2000/svg">
  <g transform="matrix(1.0012, 0, 0, 1.0012, 0, 0)">
    <g transform="matrix(0.0437, 0, 0, 0.0437, 0, 0)">
      <defs>
        <style>.fa-secondary{opacity:.4}</style>
      </defs>
      <path d="M370, 416L128.1, 416C108.98, 416 96.1, 400.4 96, 384A31.24 31.24 0 0 1 104.61, 362.29C120.82, 344.87 148.61, 319.5 157.23, 251.54zM543.64, 388.41A32.49 32.49 0 0 0 544, 384A31.23 31.23 0 0 0 535.39, 362.29C516.07, 341.53 479.92, 310.29 479.92, 208C479.92, 130.3 425.44, 68.1 351.98, 52.84L351.98, 32A32 32 0 1 0 287.98, 32L287.98, 52.84C247.67, 61.21 213.09, 83.73 190.08, 115.17zM320, 512A64 64 0 0 0 384, 448L256, 448A64 64 0 0 0 320, 512z" fill="#727272" opacity="0.4" fill-opacity="1" class="Black" />
      <path d="M633.82, 458.09L45.47, 3.38A16 16 0 0 0 23, 6.17L3.37, 31.46A16 16 0 0 0 6.18, 53.91L594.52, 508.62A16 16 0 0 0 617, 505.83L636.64, 480.56A16 16 0 0 0 633.82, 458.09z" fill="#727272" fill-opacity="1" class="Black" />
    </g>
  </g>
</svg>