<?xml version='1.0' encoding='UTF-8'?>
<svg viewBox="-1.9998 -2.0011 31.9975 32" xmlns="http://www.w3.org/2000/svg">
  <g transform="matrix(0.0547, 0, 0, 0.0547, 0, 0)">
    <defs>
      <style>.fa-secondary{opacity:.4}</style>
    </defs>
    <path d="M464, 320A48 48 0 0 0 436.86, 407.55A40.07 40.07 0 0 1 400, 432L352, 432L352, 480L400, 480A88.08 88.08 0 0 0 486, 410.44A47.86 47.86 0 0 0 464, 320zM208, 160A48 48 0 1 0 256, 208A48 48 0 0 0 208, 160z" fill="#727272" opacity="0.4" fill-opacity="1" class="Black" />
    <path d="M208, 0C93.12, 0 0, 93.12 0, 208C0, 322.88 93.12, 416 208, 416C322.88, 416 416, 322.88 416, 208C416, 93.12 322.88, 0 208, 0zM208, 288A80 80 0 1 1 288, 208A80.09 80.09 0 0 1 208, 288zM64, 399.54L64, 480A32 32 0 0 0 96, 512L320, 512A32 32 0 0 0 352, 480L352, 399.54A238.18 238.18 0 0 1 64, 399.54z" fill="#727272" fill-opacity="1" class="Black" />
  </g>
</svg>