<?xml version='1.0' encoding='UTF-8'?>
<svg viewBox="-3.7505 -1.9998 32 31.9975" xmlns="http://www.w3.org/2000/svg">
  <g transform="matrix(0.0547, 0, 0, 0.0547, 0, 0)">
    <defs>
      <style>.fa-secondary{opacity:.4}</style>
    </defs>
    <path d="M448, 384C447.9, 400.4 435, 416 415.9, 416L32.08, 416C13, 416 0.09, 400.4 0, 384A31.25 31.25 0 0 1 8.61, 362.29C27.93, 341.53 64.08, 310.29 64.08, 208C64.08, 130.3 118.56, 68.1 192.02, 52.84L192.02, 32A32 32 0 1 1 256.02, 32L256.02, 52.84C329.42, 68.1 383.9, 130.3 383.9, 208C383.9, 310.3 420.05, 341.53 439.37, 362.29A31.27 31.27 0 0 1 448, 384z" fill="#727272" opacity="0.4" fill-opacity="1" class="Black" />
    <path d="M160, 448L288, 448A64 64 0 0 1 160, 448z" fill="#727272" fill-opacity="1" class="Black" />
  </g>
</svg>