<?xml version='1.0' encoding='UTF-8'?>
<svg viewBox="-3.7494 -2.0524 32 31.9975" xmlns="http://www.w3.org/2000/svg">
  <g transform="matrix(0.0547, 0, 0, 0.0547, 0, 0)">
    <defs>
      <style>.fa-secondary{opacity:.4}</style>
    </defs>
    <path d="M439.39, 361.29C420.07, 340.53 383.92, 309.29 383.92, 207C383.92, 129.3 329.44, 67.1 255.98, 51.84L255.98, 31A32 32 0 1 0 191.98, 31L191.98, 51.84C118.56, 67.1 64.08, 129.3 64.08, 207C64.08, 309.3 27.93, 340.53 8.61, 361.29A31.24 31.24 0 0 0 0, 383C0.11, 399.4 13, 415 32.1, 415L415.9, 415C435.02, 415 447.9, 399.4 448, 383A31.23 31.23 0 0 0 439.39, 361.29zM320, 247A16 16 0 0 1 304, 263L248, 263L248, 319A16 16 0 0 1 232, 335L216, 335A16 16 0 0 1 200, 319L200, 263L144, 263A16 16 0 0 1 128, 247L128, 231A16 16 0 0 1 144, 215L200, 215L200, 159A16 16 0 0 1 216, 143L232, 143A16 16 0 0 1 248, 159L248, 215L304, 215A16 16 0 0 1 320, 231z" fill="#727272" opacity="0.4" fill-opacity="1" class="Black" />
    <path d="M224, 511A64 64 0 0 0 288, 447L160, 447A64 64 0 0 0 224, 511zM304, 215L248, 215L248, 159A16 16 0 0 0 232, 143L216, 143A16 16 0 0 0 200, 159L200, 215L144, 215A16 16 0 0 0 128, 231L128, 247A16 16 0 0 0 144, 263L200, 263L200, 319A16 16 0 0 0 216, 335L232, 335A16 16 0 0 0 248, 319L248, 263L304, 263A16 16 0 0 0 320, 247L320, 231A16 16 0 0 0 304, 215z" fill="#727272" fill-opacity="1" class="Black" />
  </g>
</svg>