<?xml version='1.0' encoding='UTF-8'?>
<svg viewBox="-1.9975 -4.8157 32 32" xmlns="http://www.w3.org/2000/svg">
  <g transform="matrix(0.9989, 0, 0, 0.9989, 0, 0)">
    <g transform="matrix(0.0438, 0, 0, 0.0438, 0, 0)">
      <defs>
        <style>.fa-secondary{opacity:.4}</style>
      </defs>
      <path d="M117.3, 119.08C116.5, 121.18 102.6, 159.58 101.9, 161.79C72.7, 242.1 35.5, 256.34 14.5, 267.07C-5.6, 277.4 -5, 307.78 17.5, 316L260.8, 404.84C269.2, 385.59 280.3, 359.12 257.5, 296.35L242, 253.57C214.1, 176.66 247, 92.57 315.7, 53.23A130.82 130.82 0 0 0 288.3, 39.06C219.05, 13.87 142.53, 49.68 117.3, 119.08zM543.77, 411L428.1, 453A63.76 63.76 0 0 0 543.77, 411z" fill="#727272" opacity="0.4" fill-opacity="1" class="Black" />
      <path d="M137.85, 444.14A63.73 63.73 0 0 0 211.68, 420.94L96.23, 378.83A63.78 63.78 0 0 0 137.85, 444.14zM625.55, 299C604.55, 288.27 567.22, 274 538.11, 193.72C537.31, 191.52 523.41, 153.11 522.71, 151C497.4, 81.63 420.88, 45.84 351.64, 71.1C282.4, 96.36 246.72, 173.1 271.91, 242.47C272.71, 244.58 286.72, 282.99 287.52, 285.19C316.73, 365.51 297.22, 400.41 288.02, 422.19C279.22, 442.95 299.23, 465.91 321.74, 457.69L622.45, 348C643, 340.45 647.35, 310.26 625.55, 299z" fill="#727272" fill-opacity="1" class="Black" />
    </g>
  </g>
</svg>