<?xml version='1.0' encoding='UTF-8'?>
<svg viewBox="-2 -1.9988 32 32" xmlns="http://www.w3.org/2000/svg">
  <g transform="matrix(0.0547, 0, 0, 0.0547, 0, 0)">
    <defs>
      <style>.fa-secondary{opacity:.4}</style>
    </defs>
    <path d="M0, 160L0, 400A48 48 0 0 0 48, 448L464, 448A48 48 0 0 0 512, 400L512, 160zM144, 384A80 80 0 1 1 224, 304A80 80 0 0 1 144, 384zM448, 384L288, 384L288, 224L448, 224z" fill="#727272" opacity="0.4" fill-opacity="1" class="Black" />
    <path d="M496, 64L16, 64A16 16 0 0 0 0, 80L0, 160L512, 160L512, 80A16 16 0 0 0 496, 64zM144, 224A80 80 0 1 0 224, 304A80 80 0 0 0 144, 224zM144, 336A32 32 0 1 1 176, 304A32 32 0 0 1 144, 336z" fill="#727272" fill-opacity="1" class="Black" />
  </g>
</svg>