<?xml version='1.0' encoding='UTF-8'?>
<svg viewBox="-3.7494 -1.9999 32 32" xmlns="http://www.w3.org/2000/svg">
  <g transform="matrix(0.0547, 0, 0, 0.0547, 0, 0)">
    <defs>
      <style>.fa-secondary{opacity:.4}</style>
    </defs>
    <path d="M96, 448C76.8, 448 64, 435.2 64, 416C64, 396.8 80, 384 96, 384L415.33, 384C413.4, 400.24 413.57, 432.38 415.86, 448z" fill="#727272" opacity="0.4" fill-opacity="1" class="Black" />
    <path d="M96, 384L424, 384A24 24 0 0 0 448, 360L448, 32A32 32 0 0 0 416, 0L96, 0A96 96 0 0 0 0, 96L0, 416A96 96 0 0 0 96, 512L424, 512A24 24 0 0 0 448, 488L448, 472A24 24 0 0 0 424, 448L96, 448C76.8, 448 64, 435.2 64, 416C64, 396.8 80, 384 96, 384zM144, 144A16 16 0 0 1 160, 128L208, 128L208, 80A16 16 0 0 1 224, 64L256, 64A16 16 0 0 1 272, 80L272, 128L320, 128A16 16 0 0 1 336, 144L336, 176A16 16 0 0 1 320, 192L272, 192L272, 304A16 16 0 0 1 256, 320L224, 320A16 16 0 0 1 208, 304L208, 192L160, 192A16 16 0 0 1 144, 176z" fill="#727272" fill-opacity="1" class="Black" />
  </g>
</svg>