<?xml version='1.0' encoding='UTF-8'?>
<svg viewBox="-1.9925 -4.7973 32 32" xmlns="http://www.w3.org/2000/svg">
  <g transform="matrix(0.999, 0, 0, 0.999, 0, 0)">
    <g transform="matrix(0.0438, 0, 0, 0.0438, 0, 0)">
      <defs>
        <style>.fa-secondary{opacity:.4}</style>
      </defs>
      <path d="M255, 304L206.39, 304A79.82 79.82 0 0 0 186.75, 265.77L212.63, 224A127.74 127.74 0 0 1 255, 304zM512, 192A127.54 127.54 0 0 0 466.07, 200.5L492.14, 242.5A80.25 80.25 0 1 1 451.4, 267.87L425.31, 225.87A128 128 0 1 0 512, 192zM201.3, 352A80 80 0 1 1 145.1, 241.86L171.31, 199.52A128 128 0 1 0 252, 352z" fill="#727272" opacity="0.4" fill-opacity="1" class="Black" />
      <path d="M495.83, 339.45A16 16 0 0 0 517.83, 344.61L531.43, 336.17A16 16 0 0 0 536.58, 314.17L388.39, 75.34A24 24 0 0 0 368, 64L304, 64A16 16 0 0 0 288, 80L288, 96A16 16 0 0 0 304, 112L354.65, 112L369.55, 136L256, 136L256, 120A16 16 0 0 0 240, 104L152.54, 104C139.1, 104 127.77, 115 128.01, 128.44A24 24 0 0 0 152, 152L200.73, 152L99.6, 315.37A24 24 0 0 0 120, 352L304, 352A24 24 0 0 0 324.41, 340.63L410.41, 201.77zM290.63, 304L163.09, 304L237.37, 184L364.92, 184z" fill="#727272" fill-opacity="1" class="Black" />
    </g>
  </g>
</svg>