<?xml version='1.0' encoding='UTF-8'?>
<svg viewBox="-2 -1.9988 32 32" xmlns="http://www.w3.org/2000/svg">
  <g transform="matrix(0.0547, 0, 0, 0.0547, 0, 0)">
    <defs>
      <style>.fa-secondary{opacity:.4}</style>
    </defs>
    <path d="M400, 32L336, 32A16 16 0 0 0 320, 48L320, 96L416, 96L416, 48A16 16 0 0 0 400, 32zM176, 32L112, 32A16 16 0 0 0 96, 48L96, 96L192, 96L192, 48A16 16 0 0 0 176, 32zM224, 288L288, 288L288, 128L224, 128z" fill="#727272" opacity="0.4" fill-opacity="1" class="Black" />
    <path d="M63.91, 160C61.4, 253.84 3.46, 274.22 0, 404L0, 448A32 32 0 0 0 32, 480L128, 480A32 32 0 0 0 160, 448L160, 288L192, 288L192, 128L95.84, 128C78.21, 128 64.39, 142.37 63.91, 160zM448.09, 160C447.61, 142.38 433.79, 128 416.16, 128L320, 128L320, 288L352, 288L352, 448A32 32 0 0 0 384, 480L480, 480A32 32 0 0 0 512, 448L512, 404C508.54, 274.22 450.6, 253.84 448.09, 160z" fill="#727272" fill-opacity="1" class="Black" />
  </g>
</svg>