<?xml version='1.0' encoding='UTF-8'?>
<svg viewBox="-1.9949 -3.5515 31.9975 32" xmlns="http://www.w3.org/2000/svg">
  <g transform="matrix(0.0486, 0, 0, 0.0486, 0, 0)">
    <defs>
      <style>.fa-secondary{opacity:.4}</style>
    </defs>
    <path d="M206, 80.83A89.75 89.75 0 0 0 235.5, 121.52C252.01, 115.82 269.5, 112.02 288.01, 112.02C306.52, 112.02 324.21, 115.82 340.82, 121.62A89.75 89.75 0 0 0 370.32, 80.93A207.71 207.71 0 0 0 206, 80.83zM129.28, 286.66A84 84 0 0 0 102.88, 282.07A81.46 81.46 0 0 0 80.38, 285.17A208.16 208.16 0 0 0 163.69, 438.62A91.09 91.09 0 0 0 188.19, 396.23A158.72 158.72 0 0 1 129.28, 286.66zM473.22, 282.07A85.81 85.81 0 0 0 446.62, 286.76A158.8 158.8 0 0 1 387.91, 396A91.4 91.4 0 0 0 412.41, 438.49A207.53 207.53 0 0 0 495.41, 285.04A83.1 83.1 0 0 0 473.22, 282.07z" fill="#727272" opacity="0.4" fill-opacity="1" class="Black" />
    <path d="M575.53, 283.47C562.43, 244.38 536.03, 211.47 501.43, 191.1A162.36 162.36 0 0 0 446.12, 171.2C452.12, 153.51 456.12, 134.81 456.12, 115.02A173.9 173.9 0 0 0 415.12, 2.86A7.84 7.84 0 0 0 405.12, 1.06A8.26 8.26 0 0 0 401.52, 10.75C406.02, 24.55 408.12, 37.04 408.12, 49.24C408.12, 117.02 354.32, 172.1 288.12, 172.1C221.92, 172.1 168.12, 117.02 168.12, 49.24C168.12, 37.14 170.32, 24.55 174.72, 10.75A8.26 8.26 0 0 0 171.12, 1.06A7.86 7.86 0 0 0 161.12, 2.86A174.49 174.49 0 0 0 120.12, 115.02C120.12, 134.81 124.02, 153.51 130.12, 171.2A163.12 163.12 0 0 0 74.81, 191.1C40.21, 211.59 13.81, 244.38 0.51, 283.47A8.32 8.32 0 0 0 4, 293.26A7.82 7.82 0 0 0 14, 291.66C23.4, 280.87 33, 272.57 43.2, 266.57C100.51, 232.68 174.02, 252.88 207.12, 311.57C240.22, 370.26 220.52, 445.57 163.22, 479.41C153.01, 485.51 141.22, 489.81 127.41, 492.81A8.27 8.27 0 0 0 121.01, 500.91A8.07 8.07 0 0 0 127.51, 508.91A163.8 163.8 0 0 0 242.69, 489.2C260.69, 478.6 275.6, 464.71 288, 449.11C300.4, 464.71 315.3, 478.6 333.31, 489.2A163.8 163.8 0 0 0 448.52, 508.89A8.07 8.07 0 0 0 455.02, 500.89A8.16 8.16 0 0 0 448.62, 492.79C434.72, 489.89 423.02, 485.49 412.81, 479.39C355.51, 445.5 335.81, 370.23 368.91, 311.55C402.01, 252.87 475.52, 232.67 532.83, 266.55C543.03, 272.65 552.63, 280.85 562.03, 291.64A7.82 7.82 0 0 0 572.03, 293.24A8.27 8.27 0 0 0 575.53, 283.47zM288, 320.05A48 48 0 1 1 336, 272.05A48 48 0 0 1 288, 320.05z" fill="#727272" fill-opacity="1" class="Black" />
  </g>
</svg>