<?xml version='1.0' encoding='UTF-8'?>
<svg viewBox="-3.7495 -2 32 32" xmlns="http://www.w3.org/2000/svg">
  <g transform="matrix(0.0547, 0, 0, 0.0547, 0, 0)">
    <defs>
      <style>.fa-secondary{opacity:.4}</style>
    </defs>
    <path d="M373.5, 384C345.5, 384 342.11, 416 298.75, 416C255.2, 416 252.15, 384 224, 384C196.72, 384 192.34, 416 149.5, 416C106, 416 102.7, 384 74.75, 384C46.8, 384 43.36, 416 0, 416L0, 512L448, 512L448, 416C404.75, 416 401, 384 373.5, 384zM96, 96C113.75, 96 128, 82.5 128, 56C128, 29.5 108, 0 96, 0C96, 41 64, 33 64, 64A31.9 31.9 0 0 0 96, 96zM224, 96C241.75, 96 256, 82.5 256, 56C256, 29.5 236, 0 224, 0C224, 41 192, 33 192, 64A31.9 31.9 0 0 0 224, 96zM352, 96C369.75, 96 384, 82.5 384, 56C384, 29.5 364, 0 352, 0C352, 41 320, 33 320, 64A31.9 31.9 0 0 0 352, 96z" fill="#727272" opacity="0.4" fill-opacity="1" class="Black" />
    <path d="M448, 384C420, 384 416.74, 352 373.5, 352C330.07, 352 326.67, 384 298.75, 384C271.05, 384 267.3, 352 224, 352C181.16, 352 176.78, 384 149.5, 384C121.35, 384 118.3, 352 74.75, 352C31.2, 352 28.1, 384 0, 384L0, 304A48 48 0 0 1 48, 256L64, 256L64, 112L128, 112L128, 256L192, 256L192, 112L256, 112L256, 256L320, 256L320, 112L384, 112L384, 256L400, 256A48 48 0 0 1 448, 304z" fill="#727272" fill-opacity="1" class="Black" />
  </g>
</svg>