<?xml version='1.0' encoding='UTF-8'?>
<svg viewBox="-1.9974 -3.5528 32 31.9975" xmlns="http://www.w3.org/2000/svg">
  <g transform="matrix(0.0486, 0, 0, 0.0486, 0, 0)">
    <defs>
      <style>.fa-secondary{opacity:.4}</style>
    </defs>
    <path d="M497.46, 288L480, 352L192, 352L192, 0L576, 0L558.55, 64L392, 64A8 8 0 0 0 384, 72L384, 88A8 8 0 0 0 392, 96L549.82, 96L532.37, 160L392, 160A8 8 0 0 0 384, 168L384, 184A8 8 0 0 0 392, 192L523.64, 192L506.19, 256L392, 256A8 8 0 0 0 384, 264L384, 280A8 8 0 0 0 392, 288z" fill="#727272" opacity="0.4" fill-opacity="1" class="Black" />
    <path d="M158.8, 335L133, 271.75A16.79 16.79 0 0 0 115.76, 261.49L70.76, 265.91A214.78 214.78 0 0 1 70.76, 118.19L115.76, 122.61A16.81 16.81 0 0 0 133, 112.35L158.8, 49.09A16.3 16.3 0 0 0 152.12, 29L112.84, 4.92C98.51, -3.87 80.09, -0.5 69, 12A269.64 269.64 0 0 0 71.09, 374.49C80.96, 385.29 100.21, 386.97 112.75, 379.29L152.15, 355.11A16.3 16.3 0 0 0 158.8, 335zM480, 384L192, 384A64 64 0 0 0 128, 448L128, 480A32 32 0 0 0 160, 512L512, 512A32 32 0 0 0 544, 480L544, 448A64 64 0 0 0 480, 384zM336, 480A32 32 0 1 1 368, 448A32 32 0 0 1 336, 480zM392, 288L497.46, 288L506.18, 256L392, 256A8 8 0 0 0 384, 264L384, 280A8 8 0 0 0 392, 288zM392, 192L523.64, 192L532.36, 160L392, 160A8 8 0 0 0 384, 168L384, 184A8 8 0 0 0 392, 192zM392, 64A8 8 0 0 0 384, 72L384, 88A8 8 0 0 0 392, 96L549.81, 96L558.54, 64z" fill="#727272" fill-opacity="1" class="Black" />
  </g>
</svg>