<?xml version='1.0' encoding='UTF-8'?>
<svg viewBox="-5.5032 -2 32 32" xmlns="http://www.w3.org/2000/svg">
  <g transform="matrix(0.0547, 0, 0, 0.0547, 0, 0)">
    <defs>
      <style>.fa-secondary{opacity:.4}</style>
    </defs>
    <path d="M380.15, 510.84A8 8 0 0 1 369.15, 508.16L243.83, 301.72A31.91 31.91 0 0 0 256.83, 292.24L382.83, 499.85A8 8 0 0 1 380.15, 510.85z" fill="#727272" opacity="0.4" fill-opacity="1" class="Black" />
    <path d="M142.8, 314.34L110.26, 403.82L146.38, 492.11A32 32 0 0 0 205.62, 467.88zM96, 88A44 44 0 1 0 52, 44A44 44 0 0 0 96, 88zM250.84, 257.13L130.84, 105.13A23.91 23.91 0 0 0 112, 96L80, 96A23.9 23.9 0 0 0 61.06, 105.24L0, 183.77L0, 279.46C0, 292.92 11, 304.25 24.46, 304A24 24 0 0 0 48, 280L48, 200.23L64, 179.66L64, 320.36L9.93, 469.05A32 32 0 0 0 69.84, 491.56C69.92, 491.35 70, 491.14 70.07, 490.93L136, 309.64L136, 202.44L104.59, 162.62A4 4 0 0 1 110.86, 157.62L213.16, 286.84C222.31, 298.43 237.53, 298.18 246.87, 290.84A24 24 0 0 0 250.87, 257.13z" fill="#727272" fill-opacity="1" class="Black" />
  </g>
</svg>