<?xml version='1.0' encoding='UTF-8'?>
<svg viewBox="-1.9999 -1.9999 31.9975 32" xmlns="http://www.w3.org/2000/svg">
  <g transform="matrix(0.0547, 0, 0, 0.0547, 0, 0)">
    <defs>
      <style>.fa-secondary{opacity:.4}</style>
    </defs>
    <path d="M511.9, 303C503.4, 139.82 372.2, 8.62 209, 0A16.1 16.1 0 0 0 192, 16L192, 47.6A15.84 15.84 0 0 0 207, 63.5C336.4, 70.5 440.4, 175.5 447.9, 305A16 16 0 0 0 463.8, 320L495.9, 320A16.1 16.1 0 0 0 511.9, 303zM209.3, 96A16.13 16.13 0 0 0 192, 112.1L192, 144.2A15.94 15.94 0 0 0 206.8, 160.1C283.6, 166.4 344.8, 228.3 351.7, 305.3A16.07 16.07 0 0 0 367.6, 320L399.8, 320A16.19 16.19 0 0 0 415.9, 302.7C407.5, 192.62 319.4, 104.52 209.3, 96z" fill="#727272" opacity="0.4" fill-opacity="1" class="Black" />
    <path d="M172.2, 226.82C247.7, 241.82 302.1, 316.12 284.7, 399.02C273.3, 453.32 229.4, 497.32 175, 508.72C82.1, 528.22 0, 457.52 0, 368L0, 120A23.94 23.94 0 0 1 24, 96L72, 96A23.94 23.94 0 0 1 96, 120L96, 368A48 48 0 1 0 160.7, 323C151.1, 319.4 144, 311.2 144, 301L144, 250.6C144, 235.7 157.6, 223.9 172.2, 226.8z" fill="#727272" fill-opacity="1" class="Black" />
  </g>
</svg>