<?xml version='1.0' encoding='UTF-8'?>
<svg viewBox="-7.2494 -1.9998 32 31.9975" xmlns="http://www.w3.org/2000/svg">
  <g transform="matrix(0.0547, 0, 0, 0.0547, 0, 0)">
    <defs>
      <style>.fa-secondary{opacity:.4}</style>
    </defs>
    <path d="M224, 24.19A23.89 23.89 0 0 1 223.21, 30.19L180.61, 160L142.71, 288L24, 288A24 24 0 0 1 0, 264A24.45 24.45 0 0 1 0.21, 260.8L32.21, 20.8A24 24 0 0 1 56, 0L200, 0A24.09 24.09 0 0 1 224, 24.19z" fill="#727272" opacity="0.4" fill-opacity="1" class="Black" />
    <path d="M319.93, 184.07A23.93 23.93 0 0 1 316.71, 196L140.71, 500A24 24 0 0 1 96.61, 482.5L142.71, 288L180.61, 160L296, 160A24 24 0 0 1 319.93, 184.07z" fill="#727272" fill-opacity="1" class="Black" />
  </g>
</svg>