<?xml version='1.0' encoding='UTF-8'?>
<svg viewBox="-1.9998 -2.0036 31.9975 32" xmlns="http://www.w3.org/2000/svg">
  <g transform="matrix(0.0547, 0, 0, 0.0547, 0, 0)">
    <defs>
      <style>.fa-secondary{opacity:.4}</style>
    </defs>
    <path d="M500, 60L476, 60A12 12 0 0 0 476, 84L500, 84A12 12 0 0 0 500, 60zM440, 0A12 12 0 0 0 428, 12L428, 36A12 12 0 0 0 452, 36L452, 12A12 12 0 0 0 440, 0zM473.9, 55L490.9, 38A12 12 0 0 0 473.9, 21L456.9, 38A12 12 0 0 0 473.9, 55zM406.1, 55A12 12 0 0 0 423.1, 38L406.1, 21A12 12 0 0 0 389.1, 38zM473.9, 89A12 12 0 0 0 456.9, 106L473.9, 123A12 12 0 0 0 490.9, 106zM371.4, 123.5L388.5, 140.5L440.5, 88.5L423.4, 71.5z" fill="#727272" opacity="0.4" fill-opacity="1" class="Black" />
    <path d="M415, 200.9A23.9 23.9 0 0 0 415, 167L344.9, 97A23.9 23.9 0 0 0 311, 97L293.6, 114.4A207.35 207.35 0 0 0 208, 96C93.1, 96 0, 189.1 0, 304C0, 418.9 93.1, 511.9 208, 511.9C322.9, 511.9 416, 418.8 416, 303.9A207.35 207.35 0 0 0 397.6, 218.3zM176, 208A64.06 64.06 0 0 0 112, 272A16 16 0 0 1 80, 272A96.15 96.15 0 0 1 176, 176A16 16 0 0 1 176, 208z" fill="#727272" fill-opacity="1" class="Black" />
  </g>
</svg>