<?xml version='1.0' encoding='UTF-8'?>
<svg viewBox="-3.7494 -1.9999 32 32" xmlns="http://www.w3.org/2000/svg">
  <g transform="matrix(0.0547, 0, 0, 0.0547, 0, 0)">
    <defs>
      <style>.fa-secondary{opacity:.4}</style>
    </defs>
    <path d="M96, 448C76.8, 448 64, 435.2 64, 416C64, 396.8 80, 384 96, 384L415.33, 384C413.4, 400.24 413.57, 432.38 415.86, 448z" fill="#727272" opacity="0.4" fill-opacity="1" class="Black" />
    <path d="M96, 384L424, 384A24 24 0 0 0 448, 360L448, 32A32 32 0 0 0 416, 0L96, 0A96 96 0 0 0 0, 96L0, 416A96 96 0 0 0 96, 512L424, 512A24 24 0 0 0 448, 488L448, 472A24 24 0 0 0 424, 448L96, 448C76.8, 448 64, 435.2 64, 416C64, 396.8 80, 384 96, 384zM149.8, 109.1C173.8, 89.1 209.5, 92.7 231.4, 114.9L240, 123.6L248.6, 114.9C270.6, 92.7 306.3, 89.1 330.2, 109.1A60.65 60.65 0 0 1 334.5, 198.2L249.8, 283.8A13.94 13.94 0 0 1 230, 283.8L145.3, 198.2A60.74 60.74 0 0 1 149.8, 109.1z" fill="#727272" fill-opacity="1" class="Black" />
  </g>
</svg>