<?xml version='1.0' encoding='UTF-8'?>
<svg viewBox="-2 -4.7983 32 32" xmlns="http://www.w3.org/2000/svg">
  <g transform="matrix(0.9989, 0, 0, 0.9989, 0, 0)">
    <g transform="matrix(0.0438, 0, 0, 0.0438, 0, 0)">
      <defs>
        <style>.fa-secondary{opacity:.4}</style>
      </defs>
      <path d="M160, 0L96, 0A32 32 0 0 0 64, 32L64, 108.33A160.25 160.25 0 0 1 192, 108.33L192, 32A32 32 0 0 0 160, 0zM224, 480A32 32 0 0 0 256, 512L320, 512A32 32 0 0 0 352, 480L352, 416L224, 416zM577.62, 462.22L465.08, 42.71L404.82, 58.85L517.17, 477.65C517.28, 478.04 517.37, 478.44 517.46, 478.83L577.75, 462.68C577.71, 462.53 577.66, 462.38 577.62, 462.22zM64, 401.68L64, 480A32 32 0 0 0 96, 512L160, 512A32 32 0 0 0 192, 480L192, 401.68A160.33 160.33 0 0 1 64, 401.68zM255, 352.32A160.35 160.35 0 0 1 224, 383L224, 384L352, 384L352, 127.84L225.3, 128A160 160 0 0 1 255, 352.32zM320, 0L256, 0A32 32 0 0 0 224, 32L224, 96L348.79, 96L340.79, 66.35A23.94 23.94 0 0 1 351.96, 39.35L351.96, 32A32 32 0 0 0 320, 0z" fill="#727272" opacity="0.4" fill-opacity="1" class="Black" />
      <path d="M128, 127A128 128 0 1 0 256, 255A128 128 0 0 0 128, 127zM192, 271A5.33 5.33 0 0 1 186.67, 276.33L149.33, 276.33L149.33, 313.67A5.33 5.33 0 0 1 144, 319L112, 319A5.33 5.33 0 0 1 106.67, 313.67L106.67, 276.34L69.33, 276.34A5.33 5.33 0 0 1 64, 271L64, 239A5.33 5.33 0 0 1 69.33, 233.67L106.67, 233.67L106.67, 196.34A5.33 5.33 0 0 1 112, 191L144, 191A5.33 5.33 0 0 1 149.33, 196.33L149.33, 233.67L186.67, 233.67A5.33 5.33 0 0 1 192, 239zM402.39, 49.78A23.89 23.89 0 0 0 373.21, 32.78L373.12, 32.78L357.73, 37A24 24 0 0 0 340.83, 66.36L348.83, 96.01L224, 96.01L224, 128.01L352, 128.01L352, 108L455.62, 494.22A23.89 23.89 0 0 0 484.8, 511.22L484.89, 511.22L500.27, 507A24 24 0 0 0 517.17, 477.67zM639.17, 445.65L524.39, 17.78A23.89 23.89 0 0 0 495.21, 0.78L495.12, 0.78L479.73, 5A24 24 0 0 0 462.83, 34.36L577.62, 462.22A23.89 23.89 0 0 0 606.8, 479.22L606.89, 479.22L622.27, 475A24 24 0 0 0 639.17, 445.65zM224, 416L352, 416L352, 384L224, 384z" fill="#727272" fill-opacity="1" class="Black" />
    </g>
  </g>
</svg>