<?xml version='1.0' encoding='UTF-8'?>
<svg viewBox="-1.9999 -1.9999 32 32" xmlns="http://www.w3.org/2000/svg">
  <g transform="matrix(0.0547, 0, 0, 0.0547, 0, 0)">
    <defs>
      <style>.fa-secondary{opacity:.4}</style>
    </defs>
    <path d="M256, 192A96 96 0 1 1 352, 96A96 96 0 0 1 256, 192z" fill="#727272" opacity="0.4" fill-opacity="1" class="Black" />
    <path d="M233.59, 241.1C174.26, 204.78 78.16, 194.8 29.8, 192.1C13.55, 191.13 0, 203.51 0, 219.14L0, 441.94C0, 456.27 11.59, 468.22 26.49, 469C70.15, 471.29 158.49, 479.68 219.49, 510.43C228.86, 515.15 239.97, 508.72 239.97, 498.56L239.97, 252.56A13.31 13.31 0 0 0 233.59, 241.1zM482.2, 192.1C433.85, 194.84 337.74, 204.83 278.42, 241.1A13.56 13.56 0 0 0 272, 252.73L272, 498.52C272, 508.71 283.14, 515.15 292.54, 510.42C353.54, 479.7 441.86, 471.31 485.54, 469.02C500.42, 468.24 512, 456.29 512, 442L512, 219.14C512, 203.51 498.45, 191.13 482.2, 192.05z" fill="#727272" fill-opacity="1" class="Black" />
  </g>
</svg>