<?xml version='1.0' encoding='UTF-8'?>
<svg viewBox="-1.9999 -3.5527 32 31.995" xmlns="http://www.w3.org/2000/svg">
  <g transform="matrix(0.0486, 0, 0, 0.0486, 0, 0)">
    <defs>
      <style>.fa-secondary{opacity:.4}</style>
    </defs>
    <path d="M576, 62.75L576, 400.59C576, 416.82 562.87, 430.36 546, 431.25C496.53, 433.85 396.48, 443.35 327.3, 478.17C316.65, 483.53 304.02, 476.23 304.02, 464.68L304.02, 100.81A15.37 15.37 0 0 1 311.29, 87.64C378.53, 46.48 487.45, 35.16 542.29, 32.05C560.64, 31 576, 45 576, 62.75z" fill="#727272" opacity="0.4" fill-opacity="1" class="Black" />
    <path d="M264.73, 87.64C197.5, 46.48 88.58, 35.17 33.78, 32.05C15.36, 31 0, 45 0, 62.75L0, 400.6C0, 416.84 13.13, 430.38 30, 431.26C79.49, 433.86 179.59, 443.37 248.77, 478.21C259.39, 483.56 271.98, 476.27 271.98, 464.75L271.98, 100.63A15.05 15.05 0 0 0 264.73, 87.64z" fill="#727272" fill-opacity="1" class="Black" />
  </g>
</svg>