<?xml version='1.0' encoding='UTF-8'?>
<svg viewBox="-2 -4.7992 32 32" xmlns="http://www.w3.org/2000/svg">
  <g transform="matrix(0.9988, 0, 0, 0.9988, 0, 0)">
    <g transform="matrix(0.0438, 0, 0, 0.0438, 0, 0)">
      <defs>
        <style>.fa-secondary{opacity:.4}</style>
      </defs>
      <path d="M592, 160L48, 160A48 48 0 0 0 0, 208L0, 464A48 48 0 0 0 48, 512L592, 512A48 48 0 0 0 640, 464L640, 208A48 48 0 0 0 592, 160zM176, 448A112 112 0 1 1 288, 336A112.12 112.12 0 0 1 176, 448zM464, 448A112 112 0 1 1 576, 336A112.12 112.12 0 0 1 464, 448z" fill="#727272" opacity="0.4" fill-opacity="1" class="Black" />
      <path d="M552, 0L88, 0A56.07 56.07 0 0 0 32, 56L32, 162.94A47.5 47.5 0 0 1 48, 160L80, 160L80, 56A8 8 0 0 1 88, 48L552, 48A8 8 0 0 1 560, 56L560, 160L592, 160A47.5 47.5 0 0 1 608, 162.94L608, 56A56.06 56.06 0 0 0 552, 0zM256, 144A16 16 0 0 0 240, 128L208, 128A16 16 0 0 0 192, 144L192, 160L256, 160zM448, 144A16 16 0 0 0 432, 128L400, 128A16 16 0 0 0 384, 144L384, 160L448, 160zM352, 144A16 16 0 0 0 336, 128L304, 128A16 16 0 0 0 288, 144L288, 160L352, 160zM464, 224A112 112 0 1 0 576, 336A112.12 112.12 0 0 0 464, 224zM464, 400A64 64 0 1 1 528, 336A64.07 64.07 0 0 1 464, 400zM176, 224A112 112 0 1 0 288, 336A112.12 112.12 0 0 0 176, 224zM176, 400A64 64 0 1 1 240, 336A64.07 64.07 0 0 1 176, 400z" fill="#727272" fill-opacity="1" class="Black" />
    </g>
  </g>
</svg>