<?xml version='1.0' encoding='UTF-8'?>
<svg viewBox="-2 0 32 32" xmlns="http://www.w3.org/2000/svg">
  <g transform="matrix(0.0625, 0, 0, 0.0625, 0, 0)">
    <defs>
      <style>.fa-secondary{opacity:.4}</style>
    </defs>
    <path d="M208, 96L240, 96A16 16 0 0 0 256, 80L256, 48A16 16 0 0 0 240, 32L208, 32A16 16 0 0 0 192, 48L192, 80A16 16 0 0 0 208, 96zM304, 96L336, 96A16 16 0 0 0 352, 80L352, 48A16 16 0 0 0 336, 32L304, 32A16 16 0 0 0 288, 48L288, 80A16 16 0 0 0 304, 96zM112, 96L144, 96A16 16 0 0 0 160, 80L160, 48A16 16 0 0 0 144, 32L112, 32A16 16 0 0 0 96, 48L96, 80A16 16 0 0 0 112, 96zM16, 288L48, 288A16 16 0 0 0 64, 272L64, 240A16 16 0 0 0 48, 224L16, 224A16 16 0 0 0 0, 240L0, 272A16 16 0 0 0 16, 288zM16, 192L48, 192A16 16 0 0 0 64, 176L64, 144A16 16 0 0 0 48, 128L16, 128A16 16 0 0 0 0, 144L0, 176A16 16 0 0 0 16, 192zM16, 96L48, 96A16 16 0 0 0 64, 80L64, 48A16 16 0 0 0 48, 32L16, 32A16 16 0 0 0 0, 48L0, 80A16 16 0 0 0 16, 96zM16, 384L48, 384A16 16 0 0 0 64, 368L64, 336A16 16 0 0 0 48, 320L16, 320A16 16 0 0 0 0, 336L0, 368A16 16 0 0 0 16, 384z" fill="#727272" opacity="0.4" fill-opacity="1" class="Black" />
    <path d="M432, 32L400, 32A16 16 0 0 0 384, 48L384, 416L16, 416A16 16 0 0 0 0, 432L0, 464A16 16 0 0 0 16, 480L416, 480A32 32 0 0 0 448, 448L448, 48A16 16 0 0 0 432, 32z" fill="#727272" fill-opacity="1" class="Black" />
  </g>
</svg>