<?xml version='1.0' encoding='UTF-8'?>
<svg viewBox="-2 0 32 32" xmlns="http://www.w3.org/2000/svg">
  <g transform="matrix(0.0625, 0, 0, 0.0625, 0, 0)">
    <defs>
      <style>.fa-secondary{opacity:.4}</style>
    </defs>
    <path d="M208, 288L240, 288A16 16 0 0 0 256, 272L256, 240A16 16 0 0 0 240, 224L208, 224A16 16 0 0 0 192, 240L192, 272A16 16 0 0 0 208, 288zM304, 288L336, 288A16 16 0 0 0 352, 272L352, 240A16 16 0 0 0 336, 224L304, 224A16 16 0 0 0 288, 240L288, 272A16 16 0 0 0 304, 288zM112, 288L144, 288A16 16 0 0 0 160, 272L160, 240A16 16 0 0 0 144, 224L112, 224A16 16 0 0 0 96, 240L96, 272A16 16 0 0 0 112, 288zM208, 384L240, 384A16 16 0 0 0 256, 368L256, 336A16 16 0 0 0 240, 320L208, 320A16 16 0 0 0 192, 336L192, 368A16 16 0 0 0 208, 384zM208, 192L240, 192A16 16 0 0 0 256, 176L256, 144A16 16 0 0 0 240, 128L208, 128A16 16 0 0 0 192, 144L192, 176A16 16 0 0 0 208, 192z" fill="#727272" opacity="0.4" fill-opacity="1" class="Black" />
    <path d="M416, 32L32, 32A32 32 0 0 0 0, 64L0, 448A32 32 0 0 0 32, 480L416, 480A32 32 0 0 0 448, 448L448, 64A32 32 0 0 0 416, 32zM384, 416L64, 416L64, 96L384, 96z" fill="#727272" fill-opacity="1" class="Black" />
  </g>
</svg>