<?xml version='1.0' encoding='UTF-8'?>
<svg viewBox="-2 0 32 32" xmlns="http://www.w3.org/2000/svg">
  <g transform="matrix(0.0625, 0, 0, 0.0625, 0, 0)">
    <defs>
      <style>.fa-secondary{opacity:.4}</style>
    </defs>
    <path d="M240, 416L208, 416A16 16 0 0 0 192, 432L192, 464A16 16 0 0 0 208, 480L240, 480A16 16 0 0 0 256, 464L256, 432A16 16 0 0 0 240, 416zM144, 416L112, 416A16 16 0 0 0 96, 432L96, 464A16 16 0 0 0 112, 480L144, 480A16 16 0 0 0 160, 464L160, 432A16 16 0 0 0 144, 416zM336, 416L304, 416A16 16 0 0 0 288, 432L288, 464A16 16 0 0 0 304, 480L336, 480A16 16 0 0 0 352, 464L352, 432A16 16 0 0 0 336, 416zM432, 224L400, 224A16 16 0 0 0 384, 240L384, 272A16 16 0 0 0 400, 288L432, 288A16 16 0 0 0 448, 272L448, 240A16 16 0 0 0 432, 224zM432, 320L400, 320A16 16 0 0 0 384, 336L384, 368A16 16 0 0 0 400, 384L432, 384A16 16 0 0 0 448, 368L448, 336A16 16 0 0 0 432, 320zM432, 416L400, 416A16 16 0 0 0 384, 432L384, 464A16 16 0 0 0 400, 480L432, 480A16 16 0 0 0 448, 464L448, 432A16 16 0 0 0 432, 416zM432, 128L400, 128A16 16 0 0 0 384, 144L384, 176A16 16 0 0 0 400, 192L432, 192A16 16 0 0 0 448, 176L448, 144A16 16 0 0 0 432, 128z" fill="#727272" opacity="0.4" fill-opacity="1" class="Black" />
    <path d="M432, 32L32, 32A32 32 0 0 0 0, 64L0, 464A16 16 0 0 0 16, 480L48, 480A16 16 0 0 0 64, 464L64, 96L432, 96A16 16 0 0 0 448, 80L448, 48A16 16 0 0 0 432, 32z" fill="#727272" fill-opacity="1" class="Black" />
  </g>
</svg>