<?xml version='1.0' encoding='UTF-8'?>
<svg viewBox="-1.9975 -1.9988 31.9975 32" xmlns="http://www.w3.org/2000/svg">
  <g transform="matrix(0.0547, 0, 0, 0.0547, 0, 0)">
    <defs>
      <style>.fa-secondary{opacity:.4}</style>
    </defs>
    <path d="M282.33, 150.47L328.94, 103.86A255.3 255.3 0 0 0 53.84, 104.59L49.94, 100.69A16 16 0 0 0 27.31, 100.69L4.69, 123.31A16 16 0 0 0 4.69, 145.94L145.78, 287L191, 241.78L100.46, 151.2A192.49 192.49 0 0 1 282.33, 150.47zM407.41, 457.47A255.3 255.3 0 0 0 408.14, 182.37L361.53, 229A192.51 192.51 0 0 1 360.8, 410.88L270.22, 320.3L225, 365.56L366.72, 507.32A16 16 0 0 0 389.35, 507.32L412, 484.69A16 16 0 0 0 412, 462.06z" fill="#727272" opacity="0.4" fill-opacity="1" class="Black" />
    <path d="M511.71, 18.78L486, 147.37A15.7 15.7 0 0 1 459.51, 155.37L425, 120.92L174.39, 371.56L191, 421.26A20.56 20.56 0 0 1 186, 442.26L122.32, 506A20.56 20.56 0 0 1 88.32, 498L69.73, 442.28L14.07, 423.73A20.56 20.56 0 0 1 6.07, 389.73L69.7, 326A20.58 20.58 0 0 1 90.7, 321L140.4, 337.57L391.08, 87L356.61, 52.52A15.7 15.7 0 0 1 364.61, 26.03L493.22, 0.31A15.72 15.72 0 0 1 511.71, 18.78z" fill="#727272" fill-opacity="1" class="Black" />
  </g>
</svg>