<?xml version='1.0' encoding='UTF-8'?>
<svg viewBox="-3.7508 -2 32 32" xmlns="http://www.w3.org/2000/svg">
  <g transform="matrix(0.0547, 0, 0, 0.0547, 0, 0)">
    <defs>
      <style>.fa-secondary{opacity:.4}</style>
    </defs>
    <path d="M133.17, 160C133.97, 124.2 154.07, 100.9 151.97, 64C150.07, 29.8 129.27, 0.1 96, 0C62.6, 0.1 41.9, 29.8 40, 64C37.9, 100.9 58, 124.2 58.8, 160zM314.77, 160L389.17, 160C389.97, 124.3 410.07, 100.9 407.97, 64C406.07, 29.7 385.37, 0.1 351.97, 0C318.67, 0.1 297.87, 29.8 295.97, 64C293.87, 100.9 313.97, 124.2 314.77, 160zM443.67, 320C432.87, 271.9 403.77, 237.2 392.97, 192L311.07, 192C300.27, 237.2 271.17, 271.9 260.37, 320C248.87, 371.1 260.97, 460.5 287.07, 512L417.07, 512C443.07, 460.5 455.07, 371 443.67, 320zM136.87, 192L55.07, 192C44.27, 237.2 15.07, 271.9 4.37, 320C-7.13, 371.1 4.87, 460.5 30.97, 512L161, 512C187.1, 460.5 199.1, 371.1 187.7, 320C176.87, 271.9 147.67, 237.2 136.87, 192z" fill="#727272" opacity="0.4" fill-opacity="1" class="Black" />
    <path d="M59, 160L55, 192L137, 192L133, 160zM389, 160L315, 160L311, 192L393, 192z" fill="#727272" fill-opacity="1" class="Black" />
  </g>
</svg>