<?xml version='1.0' encoding='UTF-8'?>
<svg viewBox="-2 0 32 32" xmlns="http://www.w3.org/2000/svg">
  <g transform="matrix(0.0625, 0, 0, 0.0625, 0, 0)">
    <defs>
      <style>.fa-secondary{opacity:.4}</style>
    </defs>
    <path d="M0, 192L0, 448A32 32 0 0 0 32, 480L416, 480A32 32 0 0 0 448, 448L448, 192zM240, 415.9L240, 432A8 8 0 0 1 232, 440L216, 440A8 8 0 0 1 208, 432L208, 415.7A57.66 57.66 0 0 1 176.6, 404.4A8 8 0 0 1 176, 392.3L187.8, 381.1A8.13 8.13 0 0 1 197.9, 380.4A24.4 24.4 0 0 0 210.7, 384.1L238.8, 384.1C245.3, 384.1 250.6, 378.2 250.6, 370.9C250.6, 364.9 247, 359.7 241.8, 358.2L196.8, 344.7C178.2, 339.1 165.2, 321.3 165.2, 301.3C165.2, 276.8 184.2, 256.9 207.9, 256.2L207.9, 240A8 8 0 0 1 215.9, 232L231.9, 232A8 8 0 0 1 239.9, 240L239.9, 256.3A57.66 57.66 0 0 1 271.3, 267.6A8 8 0 0 1 271.9, 279.7L260.2, 291A8.13 8.13 0 0 1 250.1, 291.7A24.4 24.4 0 0 0 237.3, 288L209.2, 288C202.7, 288 197.4, 293.9 197.4, 301.2C197.4, 307.2 201, 312.4 206.2, 313.9L251.2, 327.4C269.8, 333 282.8, 350.8 282.8, 370.8C282.7, 395.3 263.6, 415.3 240, 415.9z" fill="#727272" opacity="0.4" fill-opacity="1" class="Black" />
    <path d="M208, 32L87.1, 32A32 32 0 0 0 56.7, 53.9L0.4, 158.8C0.8, 159.3 0.9, 159.5 1.3, 160L208, 160zM251.2, 327.4L206.2, 313.9C201, 312.4 197.4, 307.2 197.4, 301.2C197.4, 293.9 202.7, 288 209.2, 288L237.3, 288A24.4 24.4 0 0 1 250.1, 291.7A8.13 8.13 0 0 0 260.2, 291L271.9, 279.7A8 8 0 0 0 271.3, 267.6A57.66 57.66 0 0 0 239.9, 256.3L239.9, 240A8 8 0 0 0 231.9, 232L215.9, 232A8 8 0 0 0 207.9, 240L207.9, 256.2C184.2, 256.9 165.2, 276.8 165.2, 301.3C165.2, 321.3 178.2, 339.1 196.8, 344.7L241.8, 358.2C247, 359.7 250.6, 364.9 250.6, 370.9C250.6, 378.2 245.3, 384.1 238.8, 384.1L210.7, 384.1A24.4 24.4 0 0 1 197.9, 380.4A8.13 8.13 0 0 0 187.8, 381.1L176, 392.3A8 8 0 0 0 176.6, 404.4A57.66 57.66 0 0 0 208, 415.7L208, 432A8 8 0 0 0 216, 440L232, 440A8 8 0 0 0 240, 432L240, 415.9C263.6, 415.3 282.7, 395.3 282.8, 370.8C282.8, 350.8 269.8, 333 251.2, 327.4zM391.3, 53.9A32 32 0 0 0 360.9, 32L240, 32L240, 160L446.7, 160C447.1, 159.5 447.2, 159.3 447.6, 158.8z" fill="#727272" fill-opacity="1" class="Black" />
  </g>
</svg>