<?xml version='1.0' encoding='UTF-8'?>
<svg viewBox="-1.9975 -4.7983 32 31.9975" xmlns="http://www.w3.org/2000/svg">
  <g transform="matrix(1.0012, 0, 0, 1.0012, 0, 0)">
    <g transform="matrix(0.0437, 0, 0, 0.0437, 0, 0)">
      <defs>
        <style>.fa-secondary{opacity:.4}</style>
      </defs>
      <path d="M439, 254.14L576, 215L576, 393A32.07 32.07 0 0 1 551.8, 424L335.4, 478.1A65 65 0 0 1 304.4, 478.1L88.24, 424A31.9 31.9 0 0 1 64, 393L64, 215L201, 254.2A46 46 0 0 0 214.3, 256.1A48.64 48.64 0 0 0 255.8, 232.6L320, 126L384.3, 232.6A48.47 48.47 0 0 0 425.7, 256A46 46 0 0 0 439, 254.14z" fill="#727272" opacity="0.4" fill-opacity="1" class="Black" />
      <path d="M638.34, 143.84L586.84, 41A16.33 16.33 0 0 0 570.14, 32.1L320, 64L411.7, 216.1A16.44 16.44 0 0 0 430.2, 223.4L628.1, 166.9A16.47 16.47 0 0 0 638.34, 143.84zM53.24, 41L1.74, 143.84A16.3 16.3 0 0 0 11.84, 166.84L209.74, 223.34A16.44 16.44 0 0 0 228.24, 216.04L320, 64L69.84, 32.14A16.34 16.34 0 0 0 53.24, 41z" fill="#727272" fill-opacity="1" class="Black" />
    </g>
  </g>
</svg>