<?xml version='1.0' encoding='UTF-8'?>
<svg viewBox="-1.9999 -3.5555 31.9994 32" xmlns="http://www.w3.org/2000/svg">
  <g transform="matrix(0.0486, 0, 0, 0.0486, 0, 0)">
    <defs>
      <style>.fa-secondary{opacity:.4}</style>
    </defs>
    <path d="M480, 288L480, 384L448, 362.7L416, 384L416, 288zM320, 0L320, 96L288, 74.7L256, 96L256, 0zM160, 288L160, 384L128, 362.7L96, 384L96, 288z" fill="#727272" opacity="0.4" fill-opacity="1" class="Black" />
    <path d="M560, 288L480, 288L480, 384L448, 362.7L416, 384L416, 288L336, 288A16 16 0 0 0 320, 304L320, 496A16 16 0 0 0 336, 512L560, 512A16 16 0 0 0 576, 496L576, 304A16 16 0 0 0 560, 288zM176, 224L400, 224A16 16 0 0 0 416, 208L416, 16A16 16 0 0 0 400, 0L320, 0L320, 96L288, 74.7L256, 96L256, 0L176, 0A16 16 0 0 0 160, 16L160, 208A16 16 0 0 0 176, 224zM240, 288L160, 288L160, 384L128, 362.7L96, 384L96, 288L16, 288A16 16 0 0 0 0, 304L0, 496A16 16 0 0 0 16, 512L240, 512A16 16 0 0 0 256, 496L256, 304A16 16 0 0 0 240, 288z" fill="#727272" fill-opacity="1" class="Black" />
  </g>
</svg>