<?xml version='1.0' encoding='UTF-8'?>
<svg viewBox="-3.7492 -1.9998 32 31.9975" xmlns="http://www.w3.org/2000/svg">
  <g transform="matrix(0.0547, 0, 0, 0.0547, 0, 0)">
    <defs>
      <style>.fa-secondary{opacity:.4}</style>
    </defs>
    <path d="M352, 400L352, 480A32 32 0 0 1 320, 512L64, 512A32 32 0 0 1 32, 480L32, 400L165.3, 400L124.8, 430.4A8.09 8.09 0 0 0 123.2, 441.6L132.8, 454.4A8 8 0 0 0 144, 456L192, 420L240, 456A8 8 0 0 0 251.2, 454.4L260.8, 441.6A8.08 8.08 0 0 0 259.2, 430.4L218.7, 400z" fill="#727272" opacity="0.4" fill-opacity="1" class="Black" />
    <path d="M15.8, 286.7A1161.36 1161.36 0 0 1 0, 95.9C0, 43.1 43.3, 0 96, 0L288, 0A96 96 0 0 1 384, 96L384, 128.2C354.9, 128.2 316.4, 122.6 288, 160.7L288, 160.2L141.2, 160.2A92.8 92.8 0 0 1 80.7, 137.9A8 8 0 0 0 69.8, 138.3L58.5, 149.6A8 8 0 0 0 58.9, 161.3A124.45 124.45 0 0 0 141.2, 192.1L273.7, 192.1A84.28 84.28 0 0 0 272.1, 208.1A80.12 80.12 0 0 0 343.3, 287.6A8 8 0 0 0 352.1, 279.6L352.1, 263.6A8.17 8.17 0 0 0 345.2, 255.5A47.9 47.9 0 0 1 304.1, 207.1C304.6, 180.8 326.6, 160 352.9, 160L384, 160A64.06 64.06 0 0 1 448, 224C448, 237.8 450.8, 285.1 410.5, 325.5L352, 384L352, 400L218.7, 400L259.2, 369.6A8.09 8.09 0 0 0 260.8, 358.4L251.2, 345.6A8 8 0 0 0 240, 344L192, 380L144, 344A8 8 0 0 0 132.8, 345.6L123.2, 358.4A8 8 0 0 0 124.8, 369.6L165.3, 400L32, 400L32, 384z" fill="#727272" fill-opacity="1" class="Black" />
  </g>
</svg>