<?xml version='1.0' encoding='UTF-8'?>
<svg viewBox="-2 -1.9988 32 32" xmlns="http://www.w3.org/2000/svg">
  <g transform="matrix(0.0547, 0, 0, 0.0547, 0, 0)">
    <defs>
      <style>.fa-secondary{opacity:.4}</style>
    </defs>
    <path d="M320, 288L512, 288L512, 432C512, 457.6 489.6, 480 464, 480L48, 480C22.4, 480 0, 457.6 0, 432L0, 288L192, 288L192, 336A16 16 0 0 0 208, 352L304, 352A16 16 0 0 0 320, 336z" fill="#727272" opacity="0.4" fill-opacity="1" class="Black" />
    <path d="M464, 128L384, 128L384, 80C384, 54.4 361.6, 32 336, 32L176, 32C150.4, 32 128, 54.4 128, 80L128, 128L48, 128C22.4, 128 0, 150.4 0, 176L0, 256L512, 256L512, 176C512, 150.4 489.6, 128 464, 128zM320, 128L192, 128L192, 96L320, 96z" fill="#727272" fill-opacity="1" class="Black" />
  </g>
</svg>