<?xml version='1.0' encoding='UTF-8'?>
<svg viewBox="-2 -1.124 32 32" xmlns="http://www.w3.org/2000/svg">
  <g transform="matrix(0.0547, 0, 0, 0.0547, 0, 0)">
    <defs>
      <style>.fa-secondary{opacity:.4}</style>
    </defs>
    <path d="M192, 128L128, 128L128, 80A48 48 0 0 1 176, 32L336, 32A48 48 0 0 1 384, 80L384, 128L320, 128L320, 96L192, 96z" fill="#727272" opacity="0.4" fill-opacity="1" class="Black" />
    <path d="M464, 128L48, 128A48 48 0 0 0 0, 176L0, 464A48 48 0 0 0 48, 512L464, 512A48 48 0 0 0 512, 464L512, 176A48 48 0 0 0 464, 128zM352, 344A8 8 0 0 1 344, 352L288, 352L288, 408A8 8 0 0 1 280, 416L232, 416A8 8 0 0 1 224, 408L224, 352L168, 352A8 8 0 0 1 160, 344L160, 296A8 8 0 0 1 168, 288L224, 288L224, 232A8 8 0 0 1 232, 224L280, 224A8 8 0 0 1 288, 232L288, 288L344, 288A8 8 0 0 1 352, 296z" fill="#727272" fill-opacity="1" class="Black" />
  </g>
</svg>