<?xml version='1.0' encoding='UTF-8'?>
<svg viewBox="-2 -4.8005 32 32" xmlns="http://www.w3.org/2000/svg">
  <g transform="matrix(0.9988, 0, 0, 0.9988, 0, 0)">
    <g transform="matrix(0.0438, 0, 0, 0.0438, 0, 0)">
      <defs>
        <style>.fa-secondary{opacity:.4}</style>
      </defs>
      <path d="M184.67, 64L150.94, 64A16 16 0 0 0 135.53, 75.23A188.52 188.52 0 0 0 135.53, 180.76A16 16 0 0 0 150.94, 192L184.67, 192A15.76 15.76 0 0 0 199.53, 170.82A125.2 125.2 0 0 1 199.53, 85.18A15.75 15.75 0 0 0 184.67, 64zM89.92, 23.34A15.83 15.83 0 0 0 76, 0L40.63, 0A16.18 16.18 0 0 0 25.89, 9.31A285.66 285.66 0 0 0 0, 128C0, 152.75 3.12, 196.33 26.69, 246.86A16.1 16.1 0 0 0 41.3, 256L76.14, 256A15.84 15.84 0 0 0 90.14, 232.63C40.31, 139.31 73.38, 54.48 89.92, 23.34zM614.06, 9.34A16.17 16.17 0 0 0 599.33, 0L563.91, 0A15.81 15.81 0 0 0 549.91, 23.25C568.18, 57.54 598.33, 142.67 550.19, 232.48A15.87 15.87 0 0 0 564.08, 256L599.31, 256A16.17 16.17 0 0 0 614, 246.71A284.5 284.5 0 0 0 614, 9.29zM489.06, 64L455.33, 64A15.76 15.76 0 0 0 440.47, 85.18A125.2 125.2 0 0 1 440.47, 170.82A15.75 15.75 0 0 0 455.33, 192L489.06, 192A16 16 0 0 0 504.47, 180.76A188.48 188.48 0 0 0 504.47, 75.24A15.94 15.94 0 0 0 489.06, 64z" fill="#727272" opacity="0.4" fill-opacity="1" class="Black" />
      <path d="M503.26, 477.53L372.76, 164.12A64 64 0 1 0 267.24, 164.12L136.74, 477.53A16 16 0 0 0 145.35, 498.45L174.86, 510.76A16 16 0 0 0 195.77, 502.15L245, 384L395, 384L444.2, 502.15A16 16 0 0 0 465.11, 510.76L494.62, 498.45A16 16 0 0 0 503.26, 477.53zM271.62, 320L320, 203.81L368.38, 320z" fill="#727272" fill-opacity="1" class="Black" />
    </g>
  </g>
</svg>