<?xml version='1.0' encoding='UTF-8'?>
<svg viewBox="-2 -4.797 32 31.9975" xmlns="http://www.w3.org/2000/svg">
  <g transform="matrix(1.0012, 0, 0, 1.0012, 0, 0)">
    <g transform="matrix(0.0437, 0, 0, 0.0437, 0, 0)">
      <defs>
        <style>.fa-secondary{opacity:.4}</style>
      </defs>
      <path d="M636.53, 31A16 16 0 0 1 634, 53.47L401.5, 231.27L361.78, 181.27L594.26, 3.47A15.94 15.94 0 0 1 616.67, 6L636.53, 31z" fill="#727272" opacity="0.4" fill-opacity="1" class="Black" />
      <path d="M93.17, 257.71C71.29, 275.14 53, 313.52 38.57, 355.18L99, 333.09A6 6 0 0 1 105.65, 342.59L11, 454.76C3.8, 487.05 0, 510.19 0, 510.19C0, 510.19 206.66, 523.85 266.63, 476.07C326.6, 428.29 343.2, 326 343.2, 326L256.47, 216.77C256.47, 216.77 153.14, 210 93.17, 257.71zM435.59, 274.19L327.64, 138.3A11 11 0 0 0 309.05, 140.51L283.72, 195.06L370.45, 304.24L429.25, 291.79A11 11 0 0 0 435.59, 274.19z" fill="#727272" fill-opacity="1" class="Black" />
    </g>
  </g>
</svg>