<?xml version='1.0' encoding='UTF-8'?>
<svg viewBox="-2 -1.9988 32 32" xmlns="http://www.w3.org/2000/svg">
  <g transform="matrix(0.0547, 0, 0, 0.0547, 0, 0)">
    <defs>
      <style>.fa-secondary{opacity:.4}</style>
    </defs>
    <path d="M76, 160L116, 160A12 12 0 0 0 128, 148L128, 108A12 12 0 0 0 116, 96L76, 96A12 12 0 0 0 64, 108L64, 148A12 12 0 0 0 76, 160zM0, 224L0, 432A48 48 0 0 0 48, 480L464, 480A48 48 0 0 0 512, 432L512, 224z" fill="#727272" opacity="0.4" fill-opacity="1" class="Black" />
    <path d="M464, 32L48, 32A48 48 0 0 0 0, 80L0, 224L512, 224L512, 80A48 48 0 0 0 464, 32zM128, 148A12 12 0 0 1 116, 160L76, 160A12 12 0 0 1 64, 148L64, 108A12 12 0 0 1 76, 96L116, 96A12 12 0 0 1 128, 108zM448, 148A12 12 0 0 1 436, 160L188, 160A12 12 0 0 1 176, 148L176, 108A12 12 0 0 1 188, 96L436, 96A12 12 0 0 1 448, 108z" fill="#727272" fill-opacity="1" class="Black" />
  </g>
</svg>