<?xml version='1.0' encoding='UTF-8'?>
<svg viewBox="-2.0011 -1.9998 32 31.9975" xmlns="http://www.w3.org/2000/svg">
  <g transform="matrix(0.0547, 0, 0, 0.0547, 0, 0)">
    <defs>
      <style>.fa-secondary{opacity:.4}</style>
    </defs>
    <path d="M369, 112L145, 112A112 112 0 0 1 369, 112z" fill="#727272" opacity="0.4" fill-opacity="1" class="Black" />
    <path d="M512, 288.9C511.52, 306.33 496.78, 320 479.34, 320L424, 320L424, 336A143.4 143.4 0 0 1 410.4, 397.14L470.63, 457.37A32 32 0 0 1 425.37, 502.63L370.64, 447.89A143.42 143.42 0 0 1 280, 480L280, 236A12 12 0 0 0 268, 224L244, 224A12 12 0 0 0 232, 236L232, 480A143.42 143.42 0 0 1 141.36, 447.89L86.63, 502.63A32 32 0 0 1 41.37, 457.37L101.6, 397.14A143.4 143.4 0 0 1 88, 336L88, 320L32.67, 320C15.23, 320 0.49, 306.33 0, 288.9A32 32 0 0 1 32, 256L88, 256L88, 197.26L41.37, 150.63A32 32 0 0 1 86.63, 105.37L141.25, 160L370.74, 160L425.37, 105.37A32 32 0 0 1 470.63, 150.63L424, 197.26L424, 256L480, 256A32 32 0 0 1 512, 288.9z" fill="#727272" fill-opacity="1" class="Black" />
  </g>
</svg>