<?xml version='1.0' encoding='UTF-8'?>
<svg viewBox="-2.0002 -1.5473 32 32" xmlns="http://www.w3.org/2000/svg">
  <g transform="matrix(1.0009, 0, 0, 1.0009, 0, 0)">
    <g transform="matrix(0.0564, 0, 0, 0.0564, 0, 0)">
      <defs>
        <style>.fa-secondary{opacity:.4}</style>
      </defs>
      <path d="M312, 256A64 64 0 0 1 283.07, 309.43L262.3, 382.53C326.18, 375.35 376, 321.78 376, 256A128 128 0 0 0 248, 128C182.22, 128 128.65, 177.82 121.47, 241.7L194.58, 220.92A63.91 63.91 0 0 1 312, 256zM248, 8C111.08, 8 0.11, 119 0.11, 256C0.11, 264.39 0.55, 272.67 1.37, 280.85A48.57 48.57 0 0 1 19.37, 270.77L64.21, 258C64.21, 257.32 64.11, 256.67 64.11, 256A184 184 0 1 1 248.11, 440C247.43, 440 246.77, 439.91 246.11, 439.9L233.36, 484.77A48.53 48.53 0 0 1 223.36, 502.77C231.52, 503.58 239.8, 504.02 248.18, 504.02C385, 504 496, 393 496, 256C496, 119 385, 8 248, 8z" fill="#727272" opacity="0.4" fill-opacity="1" class="Black" />
      <path d="M242.21, 240.65A17.13 17.13 0 0 1 263.37, 261.82L202.51, 476C198.2, 491.17 177.43, 493 170.6, 478.73L137.72, 410.26L48.57, 499.41A15.51 15.51 0 0 1 26.62, 499.41L26.57, 499.41L4.57, 477.41A15.52 15.52 0 0 1 4.52, 455.41L4.52, 455.41L4.57, 455.41L93.72, 366.26L25.36, 333.45C11.11, 326.63 12.92, 305.84 28.1, 301.53L242.23, 240.65z" fill="#727272" fill-opacity="1" class="Black" />
    </g>
  </g>
</svg>