<?xml version='1.0' encoding='UTF-8'?>
<svg viewBox="-1.9998 -3.5563 31.9975 32" xmlns="http://www.w3.org/2000/svg">
  <g transform="matrix(0.0486, 0, 0, 0.0486, 0, 0)">
    <defs>
      <style>.fa-secondary{opacity:.4}</style>
    </defs>
    <path d="M544, 448C544, 457.22 536.92, 480 512, 480A32 32 0 0 1 492, 473L407, 405A242.82 242.82 0 0 0 288, 354.21L288, 125.84A242.86 242.86 0 0 0 407, 75.05L492, 7A31.93 31.93 0 0 1 512, 0C537, 0 544, 23.26 544, 32z" fill="#727272" opacity="0.4" fill-opacity="1" class="Black" />
    <path d="M544, 184.88L544, 295.12A63.47 63.47 0 0 0 544, 184.88zM0, 192L0, 288A64 64 0 0 0 64, 352L97.7, 352A243 243 0 0 0 95.52, 384A253.32 253.32 0 0 0 121.08, 494.94C126.27, 505.63 137.6, 512 149.48, 512L223.76, 512C249.81, 512 265.45, 482.16 249.66, 461.44A127.35 127.35 0 0 1 223.51, 384A121 121 0 0 1 227.92, 352L256, 352L256, 128L64, 128A64 64 0 0 0 0, 192z" fill="#727272" fill-opacity="1" class="Black" />
  </g>
</svg>