<?xml version='1.0' encoding='UTF-8'?>
<svg viewBox="-5.5003 -2 32 32" xmlns="http://www.w3.org/2000/svg">
  <g transform="matrix(0.0547, 0, 0, 0.0547, 0, 0)">
    <defs>
      <style>.fa-secondary{opacity:.4}</style>
    </defs>
    <path d="M192, 0C79.7, 101.3 0, 220.9 0, 300.5C0, 425 79, 512 192, 512C305, 512 384, 425 384, 300.5C384, 220.6 303.8, 100.9 192, 0zM275, 415.6C253.85, 436.5 224.36, 448 192, 448C159.64, 448 130.13, 436.5 109, 415.6C87.87, 394.7 76, 365.29 76, 333.05C76, 316.75 81.1, 297.87 91.17, 276.94C106.17, 245.81 132.17, 209.94 168.41, 170.38L192, 144.65L215.59, 170.38C251.87, 209.95 277.86, 245.81 292.83, 276.94C302.9, 297.87 308, 316.75 308, 333.05C308, 365.29 296.29, 394.61 275, 415.6z" fill="#727272" opacity="0.4" fill-opacity="1" class="Black" />
    <path d="M276, 333.05C276, 381.88 241.44, 416 192, 416C142.56, 416 108, 381.88 108, 333.05C108, 321.24 112, 279.24 192, 192.05C272, 279.24 276, 321.24 276, 333.05z" fill="#727272" fill-opacity="1" class="Black" />
  </g>
</svg>