<?xml version='1.0' encoding='UTF-8'?>
<svg viewBox="-1.9999 -1.9999 32 32" xmlns="http://www.w3.org/2000/svg">
  <g transform="matrix(0.0547, 0, 0, 0.0547, 0, 0)">
    <defs>
      <style>.fa-secondary{opacity:.4}</style>
    </defs>
    <path d="M352, 448L352, 480A32 32 0 0 0 384, 512L416, 512A32 32 0 0 0 448, 480L448, 448zM64, 480A32 32 0 0 0 96, 512L128, 512A32 32 0 0 0 160, 480L160, 448L64, 448zM128, 288L384, 288A32 32 0 0 0 416, 256L416, 128A32 32 0 0 0 384, 96L128, 96A32 32 0 0 0 96, 128L96, 256A32 32 0 0 0 128, 288z" fill="#727272" opacity="0.4" fill-opacity="1" class="Black" />
    <path d="M488, 128L480, 128L480, 80C480, 35.2 380.8, 0 256, 0C131.2, 0 32, 35.2 32, 80L32, 128L24, 128A24 24 0 0 0 0, 152L0, 232A24 24 0 0 0 24, 256L32, 256L32, 416A32 32 0 0 0 64, 448L448, 448A32 32 0 0 0 480, 416L480, 256L488, 256A24 24 0 0 0 512, 232L512, 152A24 24 0 0 0 488, 128zM96, 128A32 32 0 0 1 128, 96L384, 96A32 32 0 0 1 416, 128L416, 256A32 32 0 0 1 384, 288L128, 288A32 32 0 0 1 96, 256zM112, 400A32 32 0 1 1 144, 368A32 32 0 0 1 112, 400zM400, 400A32 32 0 1 1 432, 368A32 32 0 0 1 400, 400z" fill="#727272" fill-opacity="1" class="Black" />
  </g>
</svg>