<?xml version='1.0' encoding='UTF-8'?>
<svg viewBox="-2 -4.7992 32 32" xmlns="http://www.w3.org/2000/svg">
  <g transform="matrix(0.9988, 0, 0, 0.9988, 0, 0)">
    <g transform="matrix(0.0438, 0, 0, 0.0438, 0, 0)">
      <defs>
        <style>.fa-secondary{opacity:.4}</style>
      </defs>
      <path d="M496, 224A144 144 0 1 0 640, 368A143.92 143.92 0 0 0 496, 224zM560, 374.29A9.74 9.74 0 0 1 550.29, 384L489.72, 384A9.74 9.74 0 0 1 480.01, 374.29L480.01, 297.72A9.74 9.74 0 0 1 489.72, 288.01L502.29, 288.01A9.74 9.74 0 0 1 512, 297.72L512, 352L550.29, 352A9.74 9.74 0 0 1 560, 361.71z" fill="#727272" opacity="0.4" fill-opacity="1" class="Black" />
      <path d="M326.82, 320L208, 320A16 16 0 0 1 192, 304L192, 256L0, 256L0, 400C0, 425.6 22.4, 448 48, 448L339.43, 448A173.64 173.64 0 0 1 326.82, 320zM512, 192.81L512, 144C512, 118.4 489.6, 96 464, 96L384, 96L384, 48C384, 22.4 361.6, 0 336, 0L176, 0C150.4, 0 128, 22.4 128, 48L128, 96L48, 96C22.4, 96 0, 118.4 0, 144L0, 224L395.12, 224A174.92 174.92 0 0 1 496, 192C501.4, 192 506.72, 192.33 512, 192.81zM320, 96L192, 96L192, 64L320, 64zM550.29, 352L512, 352L512, 297.72A9.74 9.74 0 0 0 502.29, 288.01L489.72, 288.01A9.74 9.74 0 0 0 480.01, 297.72L480.01, 374.29A9.74 9.74 0 0 0 489.72, 384L550.29, 384A9.74 9.74 0 0 0 560, 374.29L560, 361.71A9.74 9.74 0 0 0 550.29, 352z" fill="#727272" fill-opacity="1" class="Black" />
    </g>
  </g>
</svg>