<?xml version='1.0' encoding='UTF-8'?>
<svg viewBox="-1.9999 -1.9999 32 32" xmlns="http://www.w3.org/2000/svg">
  <g transform="matrix(0.0547, 0, 0, 0.0547, 0, 0)">
    <defs>
      <style>.fa-secondary{opacity:.4}</style>
    </defs>
    <path d="M0, 480A32 32 0 0 0 32, 512L480, 512A32 32 0 0 0 512, 480L512, 256L0, 256zM160, 368A16 16 0 0 1 176, 352L336, 352A16 16 0 0 1 352, 368L352, 408A8 8 0 0 1 344, 416L328, 416A8 8 0 0 1 320, 408L320, 384L192, 384L192, 408A8 8 0 0 1 184, 416L168, 416A8 8 0 0 1 160, 408zM480, 0L32, 0A32 32 0 0 0 0, 32L0, 224L512, 224L512, 32A32 32 0 0 0 480, 0zM352, 152A8 8 0 0 1 344, 160L328, 160A8 8 0 0 1 320, 152L320, 128L192, 128L192, 152A8 8 0 0 1 184, 160L168, 160A8 8 0 0 1 160, 152L160, 112A16 16 0 0 1 176, 96L336, 96A16 16 0 0 1 352, 112z" fill="#727272" opacity="0.4" fill-opacity="1" class="Black" />
    <path d="M336, 96L176, 96A16 16 0 0 0 160, 112L160, 152A8 8 0 0 0 168, 160L184, 160A8 8 0 0 0 192, 152L192, 128L320, 128L320, 152A8 8 0 0 0 328, 160L344, 160A8 8 0 0 0 352, 152L352, 112A16 16 0 0 0 336, 96zM336, 352L176, 352A16 16 0 0 0 160, 368L160, 408A8 8 0 0 0 168, 416L184, 416A8 8 0 0 0 192, 408L192, 384L320, 384L320, 408A8 8 0 0 0 328, 416L344, 416A8 8 0 0 0 352, 408L352, 368A16 16 0 0 0 336, 352z" fill="#727272" fill-opacity="1" class="Black" />
  </g>
</svg>