<?xml version='1.0' encoding='UTF-8'?>
<svg viewBox="-2 -2 32 32" xmlns="http://www.w3.org/2000/svg">
  <g transform="matrix(0.0547, 0, 0, 0.0547, 0, 0)">
    <defs>
      <style>.fa-secondary{opacity:.4}</style>
    </defs>
    <path d="M224, 144A16 16 0 1 0 240, 160A16 16 0 0 0 224, 144zM288, 368A16 16 0 1 0 304, 384A16 16 0 0 0 288, 368zM464, 224A48 48 0 0 0 416, 272L416, 336A16 16 0 0 1 400, 352L352, 352L352, 448L400, 448A112.14 112.14 0 0 0 512, 336L512, 272A48 48 0 0 0 464, 224zM96, 208L96, 144A48 48 0 0 0 0, 144L0, 208A112.14 112.14 0 0 0 112, 320L160, 320L160, 224L112, 224A16 16 0 0 1 96, 208z" fill="#727272" opacity="0.4" fill-opacity="1" class="Black" />
    <path d="M352, 96A96 96 0 0 0 160, 96L160, 512L352, 512zM224, 176A16 16 0 1 1 240, 160A16 16 0 0 1 224, 176zM288, 400A16 16 0 1 1 304, 384A16 16 0 0 1 288, 400z" fill="#727272" fill-opacity="1" class="Black" />
  </g>
</svg>