<?xml version='1.0' encoding='UTF-8'?>
<svg viewBox="-1.9999 -1.9999 32 32" xmlns="http://www.w3.org/2000/svg">
  <g transform="matrix(0.0547, 0, 0, 0.0547, 0, 0)">
    <defs>
      <style>.fa-secondary{opacity:.4}</style>
    </defs>
    <path d="M192, 0L32, 0A32 32 0 0 0 0, 32L0, 192A32 32 0 0 0 32, 224L192, 224A32 32 0 0 0 224, 192L224, 32A32 32 0 0 0 192, 0zM176, 120A8 8 0 0 1 168, 128L56, 128A8 8 0 0 1 48, 120L48, 104A8 8 0 0 1 56, 96L168, 96A8 8 0 0 1 176, 104zM192, 288L32, 288A32 32 0 0 0 0, 320L0, 480A32 32 0 0 0 32, 512L192, 512A32 32 0 0 0 224, 480L224, 320A32 32 0 0 0 192, 288zM162.91, 428.29A8 8 0 0 1 162.91, 439.6L151.6, 450.91A8 8 0 0 1 140.29, 450.91L112, 422.63L83.71, 450.92A8 8 0 0 1 72.4, 450.92L61.09, 439.6A8 8 0 0 1 61.09, 428.29L89.37, 400L61.08, 371.71A8 8 0 0 1 61.08, 360.4L72.39, 349.09A8 8 0 0 1 83.7, 349.09L112, 377.37L140.29, 349.08A8 8 0 0 1 151.6, 349.08L162.91, 360.39A8 8 0 0 1 162.91, 371.7L134.63, 400zM480, 0L320, 0A32 32 0 0 0 288, 32L288, 192A32 32 0 0 0 320, 224L480, 224A32 32 0 0 0 512, 192L512, 32A32 32 0 0 0 480, 0zM464, 120A8 8 0 0 1 456, 128L416, 128L416, 168A8 8 0 0 1 408, 176L392, 176A8 8 0 0 1 384, 168L384, 128L344, 128A8 8 0 0 1 336, 120L336, 104A8 8 0 0 1 344, 96L384, 96L384, 56A8 8 0 0 1 392, 48L408, 48A8 8 0 0 1 416, 56L416, 96L456, 96A8 8 0 0 1 464, 104z" fill="#727272" opacity="0.4" fill-opacity="1" class="Black" />
    <path d="M162.91, 360.39L151.6, 349.08A8 8 0 0 0 140.29, 349.08L112, 377.37L83.7, 349.09A8 8 0 0 0 72.39, 349.09L61.08, 360.4A8 8 0 0 0 61.08, 371.71L89.37, 400L61.09, 428.29A8 8 0 0 0 61.09, 439.6L72.4, 450.92A8 8 0 0 0 83.71, 450.92L112, 422.63L140.29, 450.91A8 8 0 0 0 151.6, 450.91L162.91, 439.6A8 8 0 0 0 162.91, 428.29L134.63, 400L162.91, 371.7A8 8 0 0 0 162.91, 360.39zM344, 128L384, 128L384, 168A8 8 0 0 0 392, 176L408, 176A8 8 0 0 0 416, 168L416, 128L456, 128A8 8 0 0 0 464, 120L464, 104A8 8 0 0 0 456, 96L416, 96L416, 56A8 8 0 0 0 408, 48L392, 48A8 8 0 0 0 384, 56L384, 96L344, 96A8 8 0 0 0 336, 104L336, 120A8 8 0 0 0 344, 128zM168, 96L56, 96A8 8 0 0 0 48, 104L48, 120A8 8 0 0 0 56, 128L168, 128A8 8 0 0 0 176, 120L176, 104A8 8 0 0 0 168, 96zM480, 288L320, 288A32 32 0 0 0 288, 320L288, 480A32 32 0 0 0 320, 512L480, 512A32 32 0 0 0 512, 480L512, 320A32 32 0 0 0 480, 288zM464, 440A8 8 0 0 1 456, 448L344, 448A8 8 0 0 1 336, 440L336, 424A8 8 0 0 1 344, 416L456, 416A8 8 0 0 1 464, 424zM464, 376A8 8 0 0 1 456, 384L344, 384A8 8 0 0 1 336, 376L336, 360A8 8 0 0 1 344, 352L456, 352A8 8 0 0 1 464, 360z" fill="#727272" fill-opacity="1" class="Black" />
  </g>
</svg>