<?xml version='1.0' encoding='UTF-8'?>
<svg viewBox="-3.7495 -2 32 32" xmlns="http://www.w3.org/2000/svg">
  <g transform="matrix(0.0547, 0, 0, 0.0547, 0, 0)">
    <defs>
      <style>.fa-secondary{opacity:.4}</style>
    </defs>
    <path d="M0, 192L0, 464A48 48 0 0 0 48, 512L400, 512A48 48 0 0 0 448, 464L448, 192zM196.18, 240L251.2, 240A12 12 0 0 1 263.2, 252L263.2, 252.83L256, 364.83A12 12 0 0 1 244, 376L204, 376A12 12 0 0 1 192, 364.8L184.8, 252.8A12.1 12.1 0 0 1 196.18, 240zM224, 472A40 40 0 1 1 264, 432A40 40 0 0 1 224, 472zM112, 128L144, 128A16 16 0 0 0 160, 112L160, 16A16 16 0 0 0 144, 0L112, 0A16 16 0 0 0 96, 16L96, 112A16 16 0 0 0 112, 128zM304, 128L336, 128A16 16 0 0 0 352, 112L352, 16A16 16 0 0 0 336, 0L304, 0A16 16 0 0 0 288, 16L288, 112A16 16 0 0 0 304, 128z" fill="#727272" opacity="0.4" fill-opacity="1" class="Black" />
    <path d="M224, 392A40 40 0 1 0 264, 432A40 40 0 0 0 224, 392zM204, 376L244, 376A12 12 0 0 0 256, 364.8L263.2, 252.8A12 12 0 0 0 252, 240L196.8, 240A12.1 12.1 0 0 0 184.8, 252.18L184.8, 252.8L192, 364.8A12 12 0 0 0 204, 376zM400, 64L352, 64L352, 112A16 16 0 0 1 336, 128L304, 128A16 16 0 0 1 288, 112L288, 64L160, 64L160, 112A16 16 0 0 1 144, 128L112, 128A16 16 0 0 1 96, 112L96, 64L48, 64A48 48 0 0 0 0, 112L0, 192L448, 192L448, 112A48 48 0 0 0 400, 64z" fill="#727272" fill-opacity="1" class="Black" />
  </g>
</svg>