<?xml version='1.0' encoding='UTF-8'?>
<svg viewBox="-3.7495 -2 32 32" xmlns="http://www.w3.org/2000/svg">
  <g transform="matrix(0.0547, 0, 0, 0.0547, 0, 0)">
    <defs>
      <style>.fa-secondary{opacity:.4}</style>
    </defs>
    <path d="M0, 192L0, 464A48 48 0 0 0 48, 512L400, 512A48 48 0 0 0 448, 464L448, 192zM317.4, 400.1A12 12 0 0 1 317.4, 417.1L289.1, 445.4A12 12 0 0 1 272.1, 445.4L224, 397.3L175.9, 445.4A12 12 0 0 1 158.9, 445.4L130.6, 417.1A12 12 0 0 1 130.6, 400.1L178.7, 352L130.6, 303.9A12 12 0 0 1 130.6, 286.9L158.9, 258.6A12 12 0 0 1 175.9, 258.6L224, 306.7L272.1, 258.6A12 12 0 0 1 289.1, 258.6L317.4, 286.9A12 12 0 0 1 317.4, 303.9L269.3, 352zM304, 128L336, 128A16 16 0 0 0 352, 112L352, 16A16 16 0 0 0 336, 0L304, 0A16 16 0 0 0 288, 16L288, 112A16 16 0 0 0 304, 128zM112, 128L144, 128A16 16 0 0 0 160, 112L160, 16A16 16 0 0 0 144, 0L112, 0A16 16 0 0 0 96, 16L96, 112A16 16 0 0 0 112, 128z" fill="#727272" opacity="0.4" fill-opacity="1" class="Black" />
    <path d="M317.43, 286.93L289.13, 258.63A12 12 0 0 0 272.13, 258.63L224, 306.7L175.9, 258.6A12 12 0 0 0 158.9, 258.6L130.6, 286.9A12 12 0 0 0 130.6, 303.9L178.7, 352L130.6, 400.1A12 12 0 0 0 130.6, 417.1L158.9, 445.4A12 12 0 0 0 175.9, 445.4L224, 397.3L272.1, 445.4A12 12 0 0 0 289.1, 445.4L317.4, 417.1A12 12 0 0 0 317.4, 400.1L269.3, 352L317.4, 303.9A12 12 0 0 0 317.43, 286.93zM400, 64L352, 64L352, 112A16 16 0 0 1 336, 128L304, 128A16 16 0 0 1 288, 112L288, 64L160, 64L160, 112A16 16 0 0 1 144, 128L112, 128A16 16 0 0 1 96, 112L96, 64L48, 64A48 48 0 0 0 0, 112L0, 192L448, 192L448, 112A48 48 0 0 0 400, 64z" fill="#727272" fill-opacity="1" class="Black" />
  </g>
</svg>