<?xml version='1.0' encoding='UTF-8'?>
<svg viewBox="-1.9998 -3.5563 31.9975 32" xmlns="http://www.w3.org/2000/svg">
  <g transform="matrix(0.0486, 0, 0, 0.0486, 0, 0)">
    <defs>
      <style>.fa-secondary{opacity:.4}</style>
    </defs>
    <path d="M368.2, 288L16, 288A16 16 0 0 0 0, 304L0, 336A16 16 0 0 0 16, 352L64, 352L64, 464.2A47.81 47.81 0 0 0 111.8, 512L368.2, 512A47.81 47.81 0 0 0 416, 464.2L416, 335.8A47.81 47.81 0 0 0 368.2, 288zM128, 192A64 64 0 1 0 64, 128A64.07 64.07 0 0 0 128, 192zM352, 192A64 64 0 1 0 288, 128A64.07 64.07 0 0 0 352, 192z" fill="#727272" opacity="0.4" fill-opacity="1" class="Black" />
    <path d="M535.68, 260.59L448, 321.07L448, 447L535.68, 507.4C552.68, 519.08 576, 507.17 576, 486.76L576, 281.23C576, 260.9 552.73, 248.9 535.68, 260.59zM352, 0C303.43, 0 261.69, 27.37 240, 67.24C218.31, 27.37 176.57, 0 128, 0A128 128 0 0 0 128, 256L352, 256A128 128 0 0 0 352, 0zM128, 192A64 64 0 1 1 192, 128A64.07 64.07 0 0 1 128, 192zM352, 192A64 64 0 1 1 416, 128A64.07 64.07 0 0 1 352, 192z" fill="#727272" fill-opacity="1" class="Black" />
  </g>
</svg>