<?xml version='1.0' encoding='UTF-8'?>
<svg viewBox="-1.9962 -1.9975 32 32" xmlns="http://www.w3.org/2000/svg">
  <g transform="matrix(0.0547, 0, 0, 0.0547, 0, 0)">
    <defs>
      <style>.fa-secondary{opacity:.4}</style>
    </defs>
    <path d="M86.71, 355.33L208.83, 431.65L284.49, 386.65L162.39, 310.34zM15.57, 397.6A32 32 0 0 0 4.57, 441.5L37.37, 496.4A32.05 32.05 0 0 0 64.87, 512A32.7 32.7 0 0 0 81.27, 507.5L177.89, 450.05L55.76, 373.72zM264.87, 137.8A32.05 32.05 0 0 0 292.37, 153.4A32.7 32.7 0 0 0 308.77, 148.9L327.68, 137.63L286.55, 14.25A160 160 0 0 0 270.55, 22.6L243.07, 39A32 32 0 0 0 232.07, 82.9zM360.41, 129L453.52, 35.89A160.26 160.26 0 0 0 316.87, 4L358.37, 128.51C359.06, 128.65 359.74, 128.79 360.41, 129zM497.47, 92A162.39 162.39 0 0 0 476.21, 58.42L383.47, 151.15C383.73, 152.04 383.95, 152.94 384.13, 153.84L507.33, 194.91C515.6, 161.24 513.15, 125.16 497.47, 92zM193.34, 292L315.43, 368.3L391.08, 323.3L269, 247zM369.17, 187.5L300, 228.62L422, 304.9L428.55, 301A173 173 0 0 0 496.72, 225.11L373.72, 184.11A32 32 0 0 1 369.17, 187.5z" fill="#727272" opacity="0.4" fill-opacity="1" class="Black" />
    <path d="M336.27, 132.5A31.46 31.46 0 0 1 352.67, 128A31.89 31.89 0 0 1 358.37, 128.52L316.87, 4A159.24 159.24 0 0 0 286.55, 14.24L327.68, 137.62zM55.76, 373.72L177.89, 450.05L208.83, 431.65L86.71, 355.33zM380.17, 143.6A31.62 31.62 0 0 1 383.47, 151.15L476.21, 58.42A159.17 159.17 0 0 0 453.52, 35.85L360.41, 129A32 32 0 0 1 380.17, 143.6zM162.39, 310.36L284.49, 386.67L315.43, 368.27L193.34, 292zM269, 247L391.06, 323.28L422, 304.9L300, 228.62zM384.11, 153.83A32.2 32.2 0 0 1 373.76, 184.11L496.76, 225.11A167.3 167.3 0 0 0 507.35, 194.91z" fill="#727272" fill-opacity="1" class="Black" />
  </g>
</svg>