<?xml version='1.0' encoding='UTF-8'?>
<svg viewBox="-2 -1.9988 32 32" xmlns="http://www.w3.org/2000/svg">
  <g transform="matrix(0.0547, 0, 0, 0.0547, 0, 0)">
    <defs>
      <style>.fa-secondary{opacity:.4}</style>
    </defs>
    <path d="M512, 374.4A16 16 0 0 1 503.49, 388.55C501, 389.84 442.72, 420.27 370, 420.27Q360.81, 420.27 352.5, 419.96C363.86, 442.19 369.02, 458.27 369.31, 459.18A16 16 0 0 1 349.31, 479.28C347.48, 478.7 311.59, 467.28 272.01, 439.99L272.01, 280A8 8 0 0 0 264.01, 272L248, 272A8 8 0 0 0 240, 280L240, 440C200.42, 467.3 164.53, 478.72 162.7, 479.29A16 16 0 0 1 142.7, 459.19C142.99, 458.28 148.14, 442.19 159.51, 419.97C153.97, 420.18 148.15, 420.28 142.01, 420.28C69.28, 420.28 11.01, 389.85 8.52, 388.56A16 16 0 0 1 8.52, 360.27C10.09, 359.45 40.91, 343.38 85.3, 334.46C21.06, 259.32 1.26, 172.77 0.38, 168.8A16 16 0 0 1 19.43, 149.71C23.32, 150.57 105.98, 169.31 180.01, 229.47L180.01, 225.07C180.01, 106.28 240.01, 11.35 242.54, 7.37A16 16 0 0 1 269.47, 7.37C272.02, 11.37 332, 106.28 332, 225.07L332, 229.47C406, 169.3 488.7, 150.56 492.58, 149.71A15.56 15.56 0 0 1 496.02, 149.33A16 16 0 0 1 511.64, 168.8C510.76, 172.8 490.96, 259.32 426.71, 334.44C471.1, 343.36 501.93, 359.44 503.49, 360.25A16 16 0 0 1 512, 374.4z" fill="#727272" opacity="0.4" fill-opacity="1" class="Black" />
    <path d="M272, 280L272, 504A8 8 0 0 1 264, 512L248, 512A8 8 0 0 1 240, 504L240, 280A8 8 0 0 1 248, 272L264, 272A8 8 0 0 1 272, 280z" fill="#727272" fill-opacity="1" class="Black" />
  </g>
</svg>