<?xml version='1.0' encoding='UTF-8'?>
<svg viewBox="-1.9975 -4.7985 32 32" xmlns="http://www.w3.org/2000/svg">
  <g transform="matrix(1.0013, 0, 0, 1.0013, 0, 0)">
    <g transform="matrix(0.0437, 0, 0, 0.0437, 0, 0)">
      <defs>
        <style>.fa-secondary{opacity:.4}</style>
      </defs>
      <path d="M428.07, 254.18L441.6, 288L198.4, 288L211.93, 254.18A48 48 0 0 1 256.5, 224L383.5, 224A48 48 0 0 1 428.07, 254.18zM152, 448A63.71 63.71 0 0 1 112, 433.94L112, 480A32 32 0 0 0 144, 512L176, 512A32 32 0 0 0 208, 480L208, 448zM631.76, 168.23L331.67, 3A24 24 0 0 0 308.33, 3L8.24, 168.23A16 16 0 0 0 2, 190L9.8, 204A16 16 0 0 0 31.59, 210.22L320, 51.53L608.41, 210.26A16 16 0 0 0 630.2, 204L638, 190A16 16 0 0 0 631.76, 168.23zM488, 448L432, 448L432, 480A32 32 0 0 0 464, 512L496, 512A32 32 0 0 0 528, 480L528, 433.94A63.71 63.71 0 0 1 488, 448z" fill="#727272" opacity="0.4" fill-opacity="1" class="Black" />
      <path d="M512.49, 292.91L507.42, 280.24L487.49, 230.41A111.47 111.47 0 0 0 383.49, 160.01L256.49, 160.01A111.46 111.46 0 0 0 152.49, 230.41L132.56, 280.23L127.49, 292.9A64 64 0 0 0 88, 352L88, 384A64 64 0 0 0 152, 448L488, 448A64 64 0 0 0 552, 384L552, 352A64 64 0 0 0 512.49, 292.91zM211.93, 254.18A48 48 0 0 1 256.5, 224L383.5, 224A48 48 0 0 1 428.07, 254.17L441.6, 288L198.4, 288zM160, 399.8C140.8, 399.8 128, 387.04 128, 367.9C128, 348.76 140.8, 336 160, 336C179.2, 336 208, 364.71 208, 383.85C208, 402.99 179.2, 399.8 160, 399.8zM512, 367.9C512, 387.04 499.2, 399.8 480, 399.8C460.8, 399.8 432, 402.99 432, 383.85C432, 364.71 460.8, 336 480, 336C499.2, 336 512, 348.76 512, 367.9z" fill="#727272" fill-opacity="1" class="Black" />
    </g>
  </g>
</svg>