<?xml version='1.0' encoding='UTF-8'?>
<svg viewBox="-2 -1.0658 32 32" xmlns="http://www.w3.org/2000/svg">
  <g transform="matrix(0.0583, 0, 0, 0.0583, 0, 0)">
    <defs>
      <style>.fa-secondary{opacity:.4}</style>
    </defs>
    <path d="M176.5, 128L303.5, 128A48 48 0 0 1 348.07, 158.17L368, 208L112, 208L131.93, 158.17A48 48 0 0 1 176.5, 128zM416, 384L368, 384L368, 416A32 32 0 0 0 400, 448L432, 448A32 32 0 0 0 464, 416L464, 368A31.28 31.28 0 0 0 463.57, 362.8A63.81 63.81 0 0 1 416, 384zM64, 384A63.81 63.81 0 0 1 16.43, 362.8A31.28 31.28 0 0 0 16, 368L16, 416A32 32 0 0 0 48, 448L80, 448A32 32 0 0 0 112, 416L112, 384z" fill="#727272" opacity="0.4" fill-opacity="1" class="Black" />
    <path d="M438.66, 212.33L407.49, 134.4A111.47 111.47 0 0 0 303.5, 64L176.5, 64A111.47 111.47 0 0 0 72.5, 134.4L41.34, 212.33A63.88 63.88 0 0 0 0, 272L0, 320A64 64 0 0 0 64, 384L416, 384A64 64 0 0 0 480, 320L480, 272A63.88 63.88 0 0 0 438.66, 212.33zM131.93, 158.17A48 48 0 0 1 176.5, 128L303.5, 128A48 48 0 0 1 348.07, 158.17L368, 208L112, 208zM80, 319.8C60.8, 319.8 48, 307.04 48, 287.9C48, 268.76 60.8, 256 80, 256C99.2, 256 128, 284.71 128, 303.85C128, 322.99 99.2, 319.8 80, 319.8zM400, 319.8C380.8, 319.8 352, 322.99 352, 303.85C352, 284.71 380.8, 256 400, 256C419.2, 256 432, 268.76 432, 287.9C432, 307.04 419.2, 319.8 400, 319.8z" fill="#727272" fill-opacity="1" class="Black" />
  </g>
</svg>