<?xml version='1.0' encoding='UTF-8'?>
<svg viewBox="-1.9999 -1.9974 32 31.9975" xmlns="http://www.w3.org/2000/svg">
  <g transform="matrix(0.0547, 0, 0, 0.0547, 0, 0)">
    <defs>
      <style>.fa-secondary{opacity:.4}</style>
    </defs>
    <path d="M176, 64L80, 64A16 16 0 0 0 64, 80L64, 128L192, 128L192, 80A16 16 0 0 0 176, 64zM432, 64L336, 64A16 16 0 0 0 320, 80L320, 128L448, 128L448, 80A16 16 0 0 0 432, 64z" fill="#727272" opacity="0.4" fill-opacity="1" class="Black" />
    <path d="M480, 128L32, 128A32 32 0 0 0 0, 160L0, 416A32 32 0 0 0 32, 448L480, 448A32 32 0 0 0 512, 416L512, 160A32 32 0 0 0 480, 128zM192, 264A8 8 0 0 1 184, 272L72, 272A8 8 0 0 1 64, 264L64, 248A8 8 0 0 1 72, 240L184, 240A8 8 0 0 1 192, 248zM448, 264A8 8 0 0 1 440, 272L400, 272L400, 312A8 8 0 0 1 392, 320L376, 320A8 8 0 0 1 368, 312L368, 272L328, 272A8 8 0 0 1 320, 264L320, 248A8 8 0 0 1 328, 240L368, 240L368, 200A8 8 0 0 1 376, 192L392, 192A8 8 0 0 1 400, 200L400, 240L440, 240A8 8 0 0 1 448, 248z" fill="#727272" fill-opacity="1" class="Black" />
  </g>
</svg>