<?xml version='1.0' encoding='UTF-8'?>
<svg viewBox="-2 -4.7992 32 32" xmlns="http://www.w3.org/2000/svg">
  <g transform="matrix(0.9988, 0, 0, 0.9988, 0, 0)">
    <g transform="matrix(0.0438, 0, 0, 0.0438, 0, 0)">
      <defs>
        <style>.fa-secondary{opacity:.4}</style>
      </defs>
      <path d="M176, 0C78, 0 0, 27.66 0, 62.86L0, 322.67A29.33 29.33 0 0 0 29.34, 352L40, 352L40, 384A32 32 0 0 0 72, 416L95.17, 416A32 32 0 0 0 127.17, 384L127.17, 352L194.17, 352C198.8, 327.51 212.9, 305.92 234.17, 292.71L252.17, 243.23A134.44 134.44 0 0 1 261.77, 224L192, 224L192, 80L273.34, 80A14.67 14.67 0 0 1 288, 94.67L288, 192.74A131.26 131.26 0 0 1 352, 162.18L352, 62.86C352, 27.66 274.05, 0 176, 0zM80, 312A24 24 0 1 1 104, 288A24 24 0 0 1 80, 312zM160, 224L78.66, 224A14.67 14.67 0 0 1 64, 209.33L64, 94.67A14.67 14.67 0 0 1 78.66, 80L160, 80z" fill="#727272" opacity="0.4" fill-opacity="1" class="Black" />
      <path d="M604.58, 315.56L600, 304.2L582.13, 255.12A99.92 99.92 0 0 0 488.93, 192L375.07, 192A99.92 99.92 0 0 0 281.84, 255.12L264, 304.2L259.45, 315.56A57.39 57.39 0 0 0 224.03, 368.56L224.03, 397.25A57 57 0 0 0 245.55, 441.71L245.55, 480A32 32 0 0 0 277.55, 512L299.62, 512A32 32 0 0 0 331.62, 480L331.62, 448L532.41, 448L532.41, 480A32 32 0 0 0 564.41, 512L586.48, 512A32 32 0 0 0 618.48, 480L618.48, 441.7A57 57 0 0 0 640, 397.24L640, 368.55A57.39 57.39 0 0 0 604.58, 315.56zM335.11, 284C341.64, 267.08 357.47, 256 375.11, 256L488.93, 256C506.53, 256 522.35, 267.1 528.93, 284L541, 320L323, 320zM300, 407.85C285.6, 407.85 276, 398.28 276, 383.93C276, 369.58 285.6, 360 300, 360C314.4, 360 336, 381.53 336, 395.89C336, 410.25 314.4, 407.85 300, 407.85zM564, 407.85C549.6, 407.85 528, 410.24 528, 395.85C528, 381.46 549.6, 360 564, 360C578.4, 360 588, 369.57 588, 383.93C588, 398.29 578.4, 407.85 564, 407.85z" fill="#727272" fill-opacity="1" class="Black" />
    </g>
  </g>
</svg>