<?xml version='1.0' encoding='UTF-8'?>
<svg viewBox="-1.9988 -2 32 32" xmlns="http://www.w3.org/2000/svg">
  <g transform="matrix(0.0547, 0, 0, 0.0547, 0, 0)">
    <defs>
      <style>.fa-secondary{opacity:.4}</style>
    </defs>
    <path d="M144, 448L144, 480A32 32 0 0 1 112, 512L80, 512A32 32 0 0 1 48, 480L48, 433.94A63.71 63.71 0 0 0 88, 448zM319.5, 224L192.5, 224A48 48 0 0 0 147.93, 254.17L134.4, 288L377.6, 288L364.07, 254.18A48 48 0 0 0 319.5, 224zM424, 448L368, 448L368, 480A32 32 0 0 0 400, 512L432, 512A32 32 0 0 0 464, 480L464, 433.94A63.71 63.71 0 0 1 424, 448zM503.91, 104L447.91, 104L423.91, 80L447.91, 56L503.91, 56A8.09 8.09 0 0 0 511.16, 44.36A79.52 79.52 0 0 0 424.31, 1.49C398.66, 6.35 377.59, 24.49 367.26, 48L145, 48C132.63, 19.83 104.81, 0 72.07, 0A79.48 79.48 0 0 0 0.84, 44.37A8.09 8.09 0 0 0 8.09, 56L64.09, 56L88.09, 80L64.09, 104L8.09, 104A8.09 8.09 0 0 0 0.84, 115.64A79.52 79.52 0 0 0 87.68, 158.51C113.33, 153.65 134.41, 135.51 144.68, 112L367, 112C379.38, 140.17 407.2, 160 439.94, 160A79.48 79.48 0 0 0 511.17, 115.63A8.08 8.08 0 0 0 503.91, 104z" fill="#727272" opacity="0.4" fill-opacity="1" class="Black" />
    <path d="M448.49, 292.91L443.42, 280.24L423.49, 230.41A111.47 111.47 0 0 0 319.49, 160.01L192.49, 160.01A111.46 111.46 0 0 0 88.49, 230.41L68.58, 280.23L63.51, 292.9A64 64 0 0 0 24, 352L24, 384A64 64 0 0 0 88, 448L424, 448A64 64 0 0 0 488, 384L488, 352A64 64 0 0 0 448.49, 292.91zM147.93, 254.18A48 48 0 0 1 192.5, 224L319.5, 224A48 48 0 0 1 364.07, 254.17L377.6, 288L134.4, 288zM96, 399.8C76.8, 399.8 64, 387.04 64, 367.9C64, 348.76 76.8, 336 96, 336C115.2, 336 144, 364.71 144, 383.85C144, 402.99 115.2, 399.8 96, 399.8zM448, 367.9C448, 387.04 435.2, 399.8 416, 399.8C396.8, 399.8 368, 402.99 368, 383.85C368, 364.71 396.8, 336 416, 336C435.2, 336 448, 348.76 448, 367.9z" fill="#727272" fill-opacity="1" class="Black" />
  </g>
</svg>