<?xml version='1.0' encoding='UTF-8'?>
<svg viewBox="-2 -4.798 32 32" xmlns="http://www.w3.org/2000/svg">
  <g transform="matrix(0.9988, 0, 0, 0.9988, 0, 0)">
    <g transform="matrix(0.0438, 0, 0, 0.0438, 0, 0)">
      <defs>
        <style>.fa-secondary{opacity:.4}</style>
      </defs>
      <path d="M519.94, 131A32.28 32.28 0 0 1 523.94, 134.37L557.88, 168.31A32 32 0 0 1 557.88, 213.57L535.25, 236.19A32 32 0 0 1 490, 236.19L467.37, 213.57L501.31, 179.62A63.78 63.78 0 0 0 519.94, 131zM293.57, 68A48 48 0 0 0 240.72, 78.18L150.92, 168A48 48 0 0 0 140.74, 220.85L161.88, 270.17L342.88, 89.17zM624, 448L317.27, 448A32 32 0 0 0 309, 417.21L286.37, 394.59L252.43, 428.53A63.86 63.86 0 0 1 203.81, 447.18C204.01, 447.45 204.21, 447.73 204.42, 448L16, 448A16 16 0 0 0 0, 464L0, 496A16 16 0 0 0 16, 512L624, 512A16 16 0 0 0 640, 496L640, 464A16 16 0 0 0 624, 448z" fill="#727272" opacity="0.4" fill-opacity="1" class="Black" />
      <path d="M501.29, 89.11L478.66, 66.49L467.35, 55.17A63.86 63.86 0 0 0 395.93, 42.17L318.78, 9.15A111.44 111.44 0 0 0 195.47, 32.9L105.67, 122.7A111.47 111.47 0 0 0 81.91, 246L115, 323.16A63.88 63.88 0 0 0 128, 394.59L139.31, 405.9L161.94, 428.53A64 64 0 0 0 252.45, 428.53L501.35, 179.62A64 64 0 0 0 501.29, 89.11zM218.29, 371.82C204.71, 385.4 186.64, 385.42 173.1, 371.89C159.56, 358.36 159.6, 340.28 173.17, 326.71C186.74, 313.14 227.41, 313.07 240.95, 326.6C254.49, 340.13 231.88, 358.24 218.31, 371.82zM161.88, 270.13L140.74, 220.81A48 48 0 0 1 150.92, 168L240.72, 78.19A48 48 0 0 1 293.57, 68L342.9, 89.11zM444.58, 145.54C431, 159.12 412.89, 181.74 399.36, 168.21C385.83, 154.68 385.89, 114.01 399.47, 100.43C413.05, 86.85 431.12, 86.83 444.65, 100.36C458.18, 113.89 458.16, 132 444.58, 145.54z" fill="#727272" fill-opacity="1" class="Black" />
    </g>
  </g>
</svg>