<?xml version='1.0' encoding='UTF-8'?>
<svg viewBox="-2 0 32 32" xmlns="http://www.w3.org/2000/svg">
  <g transform="matrix(0.0625, 0, 0, 0.0625, 0, 0)">
    <defs>
      <style>.fa-secondary{opacity:.4}</style>
    </defs>
    <path d="M400, 32L48, 32A48 48 0 0 0 0, 80L0, 432A48 48 0 0 0 48, 480L400, 480A48 48 0 0 0 448, 432L448, 80A48 48 0 0 0 400, 32zM340.6, 320L107.4, 320C97.26, 320 92.19, 305.93 99.35, 297.71L216, 163.82A10.38 10.38 0 0 1 232.08, 163.82L348.65, 297.71C355.81, 305.93 350.74, 320 340.6, 320z" fill="#727272" opacity="0.4" fill-opacity="1" class="Black" />
    <path d="M340.6, 320L107.4, 320C97.26, 320 92.19, 305.93 99.35, 297.71L216, 163.82A10.38 10.38 0 0 1 232.08, 163.82L348.65, 297.71C355.81, 305.93 350.74, 320 340.6, 320z" fill="#727272" fill-opacity="1" class="Black" />
  </g>
</svg>