<?xml version='1.0' encoding='UTF-8'?>
<svg viewBox="-1.5477 -1.5477 32 32" xmlns="http://www.w3.org/2000/svg">
  <g transform="matrix(0.9991, 0, 0, 0.9991, 0, 0)">
    <g transform="matrix(0.0565, 0, 0, 0.0565, 0, 0)">
      <defs>
        <style>.fa-secondary{opacity:.4}</style>
      </defs>
      <path d="M256, 8C119, 8 8, 119 8, 256C8, 393 119, 504 256, 504C393, 504 504, 393 504, 256C504, 119 393, 8 256, 8zM387.5, 228.5L264.5, 351.5A12 12 0 0 1 247.5, 351.5L124.5, 228.5A12 12 0 0 1 133, 208L379, 208A12 12 0 0 1 387.5, 228.5z" fill="#727272" opacity="0.4" fill-opacity="1" class="Black" />
      <path d="M387.5, 228.5L264.5, 351.5A12 12 0 0 1 247.5, 351.5L124.5, 228.5A12 12 0 0 1 133, 208L379, 208A12 12 0 0 1 387.5, 228.5z" fill="#727272" fill-opacity="1" class="Black" />
    </g>
  </g>
</svg>