<?xml version='1.0' encoding='UTF-8'?>
<svg viewBox="-2 0 32 32" xmlns="http://www.w3.org/2000/svg">
  <g transform="matrix(0.0625, 0, 0, 0.0625, 0, 0)">
    <defs>
      <style>.fa-secondary{opacity:.4}</style>
    </defs>
    <path d="M400, 32L48, 32A48 48 0 0 0 0, 80L0, 432A48 48 0 0 0 48, 480L400, 480A48 48 0 0 0 448, 432L448, 80A48 48 0 0 0 400, 32zM348.63, 214.31L232.06, 348.16A10.38 10.38 0 0 1 215.94, 348.16L99.37, 214.31C92.17, 206 97.28, 192 107.43, 192L340.57, 192C350.72, 192 355.83, 206 348.63, 214.31z" fill="#727272" opacity="0.4" fill-opacity="1" class="Black" />
    <path d="M348.63, 214.31L232.06, 348.16A10.38 10.38 0 0 1 215.94, 348.16L99.37, 214.31C92.17, 206 97.28, 192 107.43, 192L340.57, 192C350.72, 192 355.83, 206 348.63, 214.31z" fill="#727272" fill-opacity="1" class="Black" />
  </g>
</svg>