<?xml version='1.0' encoding='UTF-8'?>
<svg viewBox="-2 0 32 32" xmlns="http://www.w3.org/2000/svg">
  <g transform="matrix(0.0625, 0, 0, 0.0625, 0, 0)">
    <defs>
      <style>.fa-secondary{opacity:.4}</style>
    </defs>
    <path d="M400, 32L48, 32A48 48 0 0 0 0, 80L0, 432A48 48 0 0 0 48, 480L400, 480A48 48 0 0 0 448, 432L448, 80A48 48 0 0 0 400, 32zM288, 372.6C288, 382.74 273.93, 387.81 265.71, 380.6L131.82, 264A10.38 10.38 0 0 1 131.82, 247.92L265.71, 131.35C273.93, 124.19 288, 129.26 288, 139.4z" fill="#727272" opacity="0.4" fill-opacity="1" class="Black" />
    <path d="M288, 372.6C288, 382.74 273.93, 387.81 265.71, 380.6L131.82, 264A10.38 10.38 0 0 1 131.82, 247.92L265.71, 131.35C273.93, 124.19 288, 129.26 288, 139.4z" fill="#727272" fill-opacity="1" class="Black" />
  </g>
</svg>