<?xml version='1.0' encoding='UTF-8'?>
<svg viewBox="-1.9987 -2 32 32" xmlns="http://www.w3.org/2000/svg">
  <g transform="matrix(0.0547, 0, 0, 0.0547, 0, 0)">
    <defs>
      <style>.fa-secondary{opacity:.4}</style>
    </defs>
    <path d="M298.15, 156.6C245.45, 130.9 183.65, 146.1 147.95, 189.4L203.15, 244.6A16 16 0 1 1 180.55, 267.2L130.35, 217L2.25, 479.7A22.68 22.68 0 0 0 2.25, 499.4A22.48 22.48 0 0 0 32.25, 509.7L165.85, 444.5L116.65, 395.3A15.87 15.87 0 0 1 116.65, 372.7A16.06 16.06 0 0 1 139.25, 372.7L196.25, 429.7L298.25, 379.9A124.23 124.23 0 0 0 298.15, 156.6z" fill="#727272" opacity="0.4" fill-opacity="1" class="Black" />
    <path d="M390.25, 121.7C430.95, 102.2 479.05, 112.3 511.95, 152C470.35, 202.3 404.45, 204.5 360.05, 159.9L352.05, 151.9C307.45, 107.5 309.65, 41.7 360, 0C399.7, 32.9 409.8, 81 390.3, 121.7z" fill="#727272" fill-opacity="1" class="Black" />
  </g>
</svg>