<?xml version='1.0' encoding='UTF-8'?>
<svg viewBox="-1.9999 -3.5552 32 31.9975" xmlns="http://www.w3.org/2000/svg">
  <g transform="matrix(0.0486, 0, 0, 0.0486, 0, 0)">
    <defs>
      <style>.fa-secondary{opacity:.4}</style>
    </defs>
    <path d="M552, 64L159.21, 64L211.57, 320L504.72, 320A24 24 0 0 0 528.12, 301.32L575.39, 93.32A24 24 0 0 0 557.31, 64.6A23.69 23.69 0 0 0 552, 64zM448, 200A16 16 0 0 1 432, 216L392, 216L392, 256A16 16 0 0 1 376, 272L360, 272A16 16 0 0 1 344, 256L344, 216L304, 216A16 16 0 0 1 288, 200L288, 184A16 16 0 0 1 304, 168L344, 168L344, 128A16 16 0 0 1 360, 112L376, 112A16 16 0 0 1 392, 128L392, 168L432, 168A16 16 0 0 1 448, 184z" fill="#727272" opacity="0.4" fill-opacity="1" class="Black" />
    <path d="M504.42, 405.6L509.94, 381.32A24 24 0 0 0 486.54, 352L218.12, 352L150, 19.19A24 24 0 0 0 126.53, 0L24, 0A24 24 0 0 0 0, 24L0, 40A24 24 0 0 0 24, 64L93.88, 64L164.13, 407.43A56 56 0 1 0 231.18, 416L440.82, 416A56 56 0 1 0 504.42, 405.6zM304, 216L344, 216L344, 256A16 16 0 0 0 360, 272L376, 272A16 16 0 0 0 392, 256L392, 216L432, 216A16 16 0 0 0 448, 200L448, 184A16 16 0 0 0 432, 168L392, 168L392, 128A16 16 0 0 0 376, 112L360, 112A16 16 0 0 0 344, 128L344, 168L304, 168A16 16 0 0 0 288, 184L288, 200A16 16 0 0 0 304, 216z" fill="#727272" fill-opacity="1" class="Black" />
  </g>
</svg>