<?xml version='1.0' encoding='UTF-8'?>
<svg viewBox="-1.9998 -2.0011 31.9975 32" xmlns="http://www.w3.org/2000/svg">
  <g transform="matrix(0.0547, 0, 0, 0.0547, 0, 0)">
    <defs>
      <style>.fa-secondary{opacity:.4}</style>
    </defs>
    <path d="M296.1, 232A16 16 0 0 0 280.1, 248L280.1, 264A16 16 0 0 0 296.1, 280L312.1, 280A16 16 0 0 0 328.1, 264L328.1, 248A16 16 0 0 0 312.1, 232zM248.1, 360L264.1, 360A16 16 0 0 0 280.1, 344L280.1, 328A16 16 0 0 0 264.1, 312L248.1, 312A16 16 0 0 0 232.1, 328L232.1, 344A16 16 0 0 0 248.1, 360zM232.1, 248A16 16 0 0 0 216.1, 232L200.1, 232A16 16 0 0 0 184.1, 248L184.1, 264A16 16 0 0 0 200.1, 280L216.1, 280A16 16 0 0 0 232.1, 264zM136.1, 248A16 16 0 0 0 120.1, 232L104.1, 232A16 16 0 0 0 88.1, 248L88.1, 264A16 16 0 0 0 104.1, 280L120.1, 280A16 16 0 0 0 136.1, 264zM184.1, 344L184.1, 328A16 16 0 0 0 168.1, 312L152.1, 312A16 16 0 0 0 136.1, 328L136.1, 344A16 16 0 0 0 152.1, 360L168.1, 360A16 16 0 0 0 184.1, 344zM344.1, 432L168.1, 432A8 8 0 0 0 160.1, 440L160.1, 456A8 8 0 0 0 168.1, 464L344.1, 464A8 8 0 0 0 352.1, 456L352.1, 440A8 8 0 0 0 344.1, 432zM360.1, 312L344.1, 312A16 16 0 0 0 328.1, 328L328.1, 344A16 16 0 0 0 344.1, 360L360.1, 360A16 16 0 0 0 376.1, 344L376.1, 328A16 16 0 0 0 360.1, 312zM408.1, 232L392.1, 232A16 16 0 0 0 376.1, 248L376.1, 264A16 16 0 0 0 392.1, 280L408.1, 280A16 16 0 0 0 424.1, 264L424.1, 248A16 16 0 0 0 408.1, 232zM144, 192L208, 192.1L208, 128.1L304, 128.1A16 16 0 0 0 320, 112.1L320, 16A16 16 0 0 0 304, 0L48, 0A16 16 0 0 0 32, 16L32, 112A16 16 0 0 0 48, 128L144, 128zM82, 84L82, 44L270, 44L270, 84z" fill="#727272" opacity="0.4" fill-opacity="1" class="Black" />
    <path d="M511.2, 378.8L484.5, 218.8A32 32 0 0 0 452.9, 192.1L208, 192L208, 192.06L160.46, 192L59.2, 192A32.09 32.09 0 0 0 27.6, 218.7L0.9, 378.7A62 62 0 0 0 0, 389.2L0, 480A32 32 0 0 0 32, 512L480, 512A32 32 0 0 0 512, 480L512, 389.3A53.09 53.09 0 0 0 511.2, 378.8zM280.1, 248A16 16 0 0 1 296.1, 232L312.1, 232A16 16 0 0 1 328.1, 248L328.1, 264A16 16 0 0 1 312.1, 280L296.1, 280A16 16 0 0 1 280.1, 264zM248.1, 312L264.1, 312A16 16 0 0 1 280.1, 328L280.1, 344A16 16 0 0 1 264.1, 360L248.1, 360A16 16 0 0 1 232.1, 344L232.1, 328A16 16 0 0 1 248.1, 312zM184.1, 248A16 16 0 0 1 200.1, 232L216.1, 232A16 16 0 0 1 232.1, 248L232.1, 264A16 16 0 0 1 216.1, 280L200.1, 280A16 16 0 0 1 184.1, 264zM120.1, 280L104.1, 280A16 16 0 0 1 88.1, 264L88.1, 248A16 16 0 0 1 104.1, 232L120.1, 232A16 16 0 0 1 136.1, 248L136.1, 264A16 16 0 0 1 120.1, 280zM136.1, 344L136.1, 328A16 16 0 0 1 152.1, 312L168.1, 312A16 16 0 0 1 184.1, 328L184.1, 344A16 16 0 0 1 168.1, 360L152.1, 360A16 16 0 0 1 136.1, 344zM352.1, 456A8 8 0 0 1 344.1, 464L168.1, 464A8 8 0 0 1 160.1, 456L160.1, 440A8 8 0 0 1 168.1, 432L344.1, 432A8 8 0 0 1 352.1, 440zM376.1, 344A16 16 0 0 1 360.1, 360L344.1, 360A16 16 0 0 1 328.1, 344L328.1, 328A16 16 0 0 1 344.1, 312L360.1, 312A16 16 0 0 1 376.1, 328zM424.1, 264A16 16 0 0 1 408.1, 280L392.1, 280A16 16 0 0 1 376.1, 264L376.1, 248A16 16 0 0 1 392.1, 232L408.1, 232A16 16 0 0 1 424.1, 248z" fill="#727272" fill-opacity="1" class="Black" />
  </g>
</svg>