<?xml version='1.0' encoding='UTF-8'?>
<svg viewBox="-2 -3.554 32 32" xmlns="http://www.w3.org/2000/svg">
  <g transform="matrix(0.0486, 0, 0, 0.0486, 0, 0)">
    <defs>
      <style>.fa-secondary{opacity:.4}</style>
    </defs>
    <path d="M564.8, 259.9L507.6, 234.75L353.82, 330.86L504.5, 397.11A18.74 18.74 0 0 0 529.19, 387.5L574.41, 284.59A18.74 18.74 0 0 0 564.8, 259.9zM137.81, 400L64, 400L64, 368A16 16 0 0 0 48, 352L16, 352A16 16 0 0 0 0, 368L0, 496A16 16 0 0 0 16, 512L48, 512A16 16 0 0 0 64, 496L64, 464L160, 464A32 32 0 0 0 190, 443.23L236.85, 318.29L177.68, 293.78z" fill="#727272" opacity="0.4" fill-opacity="1" class="Black" />
    <path d="M4.23, 183L99.57, 16.13A32 32 0 0 1 139.24, 2.29L517.44, 168.58C541.77, 178.31 544.73, 211.58 522.52, 225.43L333.23, 343.73A32 32 0 0 1 305.34, 346.67L21.08, 228.93A32 32 0 0 1 4.23, 183z" fill="#727272" fill-opacity="1" class="Black" />
  </g>
</svg>