<?xml version='1.0' encoding='UTF-8'?>
<svg viewBox="-3.7505 -1.9998 32 31.9975" xmlns="http://www.w3.org/2000/svg">
  <g transform="matrix(0.0547, 0, 0, 0.0547, 0, 0)">
    <defs>
      <style>.fa-secondary{opacity:.4}</style>
    </defs>
    <path d="M352, 256L96, 256L96, 64A64 64 0 0 1 160, 0L288, 0A64 64 0 0 1 352, 64z" fill="#727272" opacity="0.4" fill-opacity="1" class="Black" />
    <path d="M64, 224L64, 160A32 32 0 0 0 0, 160L0, 224A32 32 0 0 0 64, 224zM416, 128A32 32 0 0 0 384, 160L384, 224A32 32 0 0 0 448, 224L448, 160A32 32 0 0 0 416, 128zM403.67, 309.88A32 32 0 0 0 373.31, 288L74.69, 288A32 32 0 0 0 44.33, 309.88L33.66, 341.88A32 32 0 0 0 64, 384L192, 384L192, 451.36C163.73, 457.36 141, 471.05 130.15, 488.57C123.74, 498.91 132.56, 512 145.15, 512L302.83, 512C315.44, 512 324.27, 498.91 317.83, 488.57C307, 471.05 284.26, 457.37 256, 451.36L256, 384L384, 384A32 32 0 0 0 414.36, 341.88z" fill="#727272" fill-opacity="1" class="Black" />
  </g>
</svg>