<?xml version='1.0' encoding='UTF-8'?>
<svg viewBox="-1.9998 -4.8002 31.9975 32" xmlns="http://www.w3.org/2000/svg">
  <g transform="matrix(0.9988, 0, 0, 0.9988, 0, 0)">
    <g transform="matrix(0.0438, 0, 0, 0.0438, 0, 0)">
      <defs>
        <style>.fa-secondary{opacity:.4}</style>
      </defs>
      <path d="M624, 448L608, 448L608, 40A40 40 0 0 0 568, 0L72, 0A40 40 0 0 0 32, 40L32, 448L16, 448A16 16 0 0 0 0, 464L0, 496A16 16 0 0 0 16, 512L624, 512A16 16 0 0 0 640, 496L640, 464A16 16 0 0 0 624, 448zM96, 448L96, 64L544, 64L544, 448z" fill="#727272" opacity="0.4" fill-opacity="1" class="Black" />
      <path d="M544, 64L544, 448L480, 448L480, 384L288, 384L288, 448L96, 448L96, 64z" fill="#727272" fill-opacity="1" class="Black" />
    </g>
  </g>
</svg>