<?xml version='1.0' encoding='UTF-8'?>
<svg viewBox="-1.9999 -1.9974 32 31.9975" xmlns="http://www.w3.org/2000/svg">
  <g transform="matrix(0.0547, 0, 0, 0.0547, 0, 0)">
    <defs>
      <style>.fa-secondary{opacity:.4}</style>
    </defs>
    <path d="M512, 400L512, 432A16 16 0 0 1 496, 448L32, 448A32 32 0 0 1 0, 416L0, 80A16 16 0 0 1 16, 64L48, 64A16 16 0 0 1 64, 80L64, 384L496, 384A16 16 0 0 1 512, 400z" fill="#727272" opacity="0.4" fill-opacity="1" class="Black" />
    <path d="M160, 256A32 32 0 1 0 192, 288A32 32 0 0 0 160, 256zM416, 96A32 32 0 1 0 448, 128A32 32 0 0 0 416, 96zM192, 96A32 32 0 1 0 224, 128A32 32 0 0 0 192, 96zM384, 256A32 32 0 1 0 416, 288A32 32 0 0 0 384, 256zM288, 192A32 32 0 1 0 320, 224A32 32 0 0 0 288, 192z" fill="#727272" fill-opacity="1" class="Black" />
  </g>
</svg>