<?xml version='1.0' encoding='UTF-8'?>
<svg viewBox="-1.9973 -2.8208 31.9975 32" xmlns="http://www.w3.org/2000/svg">
  <g transform="matrix(0.0515, 0, 0, 0.0515, 0, 0)">
    <defs>
      <style>.fa-secondary{opacity:.4}</style>
    </defs>
    <path d="M379.86, 443.87C386.71, 450.72 386.19, 462.35 378.29, 467.95A238.14 238.14 0 0 1 243, 512C114.83, 513.59 4.5, 408.51 0.14, 280.37C-4.1, 155.6 87, 51.49 206.16, 34.65C215.61, 33.31 224, 41.16 224, 50.71L224, 288z" fill="#727272" opacity="0.4" fill-opacity="1" class="Black" />
    <path d="M512, 223.2C503.72, 103.74 408.26, 8.28 288.8, 0C279.68, -0.59 272, 7.1 272, 16.24L272, 240L495.77, 240C504.91, 240 512.59, 232.32 512, 223.2zM527.79, 288L290.5, 288L448.5, 446C454.5, 452 464.5, 452.53 470.69, 446.68A239.5 239.5 0 0 0 543.82, 305.82C545.19, 296.39 537.34, 288 527.79, 288z" fill="#727272" fill-opacity="1" class="Black" />
  </g>
</svg>