<?xml version='1.0' encoding='UTF-8'?>
<svg viewBox="-1.9975 -2 32 32" xmlns="http://www.w3.org/2000/svg">
  <g transform="matrix(0.0547, 0, 0, 0.0547, 0, 0)">
    <defs>
      <style>.fa-secondary{opacity:.4}</style>
    </defs>
    <path d="M461.29, 288C470.83, 288 478.68, 296.39 477.35, 305.84C460.53, 424.92 356.57, 516 231.93, 511.87C107.91, 507.8 4.2, 404.1 0.13, 280.07C-3.96, 155.43 87.13, 51.47 206.13, 34.65C215.61, 33.32 224, 41.16 224, 50.71L224, 288z" fill="#727272" opacity="0.4" fill-opacity="1" class="Black" />
    <path d="M512, 223.2C512.62, 232.31 505, 240 495.81, 240L272, 240L272, 16.24C272, 7.1 279.68, -0.59 288.8, 0C408.26, 8.28 503.72, 103.74 512, 223.2z" fill="#727272" fill-opacity="1" class="Black" />
  </g>
</svg>