<?xml version='1.0' encoding='UTF-8'?>
<svg viewBox="-1.9999 -1.9974 32 31.9975" xmlns="http://www.w3.org/2000/svg">
  <g transform="matrix(0.0547, 0, 0, 0.0547, 0, 0)">
    <defs>
      <style>.fa-secondary{opacity:.4}</style>
    </defs>
    <path d="M512, 400L512, 432A16 16 0 0 1 496, 448L32, 448A32 32 0 0 1 0, 416L0, 80A16 16 0 0 1 16, 64L48, 64A16 16 0 0 1 64, 80L64, 384L496, 384A16 16 0 0 1 512, 400z" fill="#727272" opacity="0.4" fill-opacity="1" class="Black" />
    <path d="M464, 320L346, 320C324.62, 320 313.91, 294.15 329, 279L361.4, 246.6L288, 173.25L214.63, 246.63A32 32 0 0 1 169.38, 246.63L100.69, 177.94A16 16 0 0 1 100.69, 155.31L123.31, 132.69A16 16 0 0 1 145.94, 132.69L192, 178.75L265.38, 105.37A32 32 0 0 1 310.63, 105.37L406.63, 201.37L439, 169C454.12, 153.88 480, 164.59 480, 186L480, 304A16 16 0 0 1 464, 320z" fill="#727272" fill-opacity="1" class="Black" />
  </g>
</svg>