<?xml version='1.0' encoding='UTF-8'?>
<svg viewBox="-2 -4.798 32 31.9975" xmlns="http://www.w3.org/2000/svg">
  <g transform="matrix(1.0011, 0, 0, 1.0011, 0, 0)">
    <g transform="matrix(0.0437, 0, 0, 0.0437, 0, 0)">
      <defs>
        <style>.fa-secondary{opacity:.4}</style>
      </defs>
      <path d="M64, 240A64 64 0 1 0 128, 304A64.06 64.06 0 0 0 64, 240zM152, 320L200, 320L200, 288L152, 288zM446.4, 213.2L465.6, 238.8L513.6, 202.8L494.4, 177.2zM576, 64A64 64 0 1 0 640, 128A64.06 64.06 0 0 0 576, 64z" fill="#727272" opacity="0.4" fill-opacity="1" class="Black" />
      <path d="M576, 384A63.84 63.84 0 0 0 537.7, 397L441.7, 339.4A109.91 109.91 0 0 0 448, 303.9A111.94 111.94 0 0 0 336, 191.9A108.64 108.64 0 0 0 311.6, 194.8L270.8, 107.4A63.84 63.84 0 1 0 224, 128C225.1, 128 226.1, 127.7 227.2, 127.7L268.2, 215.5C241.5, 235.9 224, 267.8 224, 304A111.71 111.71 0 0 0 417.2, 380.7L513, 438.2A63.87 63.87 0 1 0 576, 384zM336, 352A48 48 0 1 1 384, 304A48 48 0 0 1 336, 352z" fill="#727272" fill-opacity="1" class="Black" />
    </g>
  </g>
</svg>