<?xml version='1.0' encoding='UTF-8'?>
<svg viewBox="-1.9998 -3.5563 31.9975 32" xmlns="http://www.w3.org/2000/svg">
  <g transform="matrix(0.0486, 0, 0, 0.0486, 0, 0)">
    <defs>
      <style>.fa-secondary{opacity:.4}</style>
    </defs>
    <path d="M256, 0L96, 0A64 64 0 0 0 32, 64L32, 448L320, 448L320, 64A64 64 0 0 0 256, 0zM260.09, 175.76L166.39, 314.76A12.41 12.41 0 0 1 156, 320C148.33, 320 142.53, 313.72 144.33, 307.08L167.33, 224L108, 224C100.75, 224 95.15, 218.41 96.11, 212.11L112.11, 105.11C112.9, 99.9 118, 96 124, 96L192, 96C199.88, 96 205.62, 102.54 203.6, 109.21L192, 160L249.7, 160C258.94, 160 264.71, 168.78 260.09, 175.76z" fill="#727272" opacity="0.4" fill-opacity="1" class="Black" />
    <path d="M336, 448L16, 448A16 16 0 0 0 0, 464L0, 496A16 16 0 0 0 16, 512L336, 512A16 16 0 0 0 352, 496L352, 464A16 16 0 0 0 336, 448zM108, 224L167.33, 224L144.33, 307.08C142.53, 313.72 148.33, 320 156, 320A12.41 12.41 0 0 0 166.39, 314.76L260.09, 175.76C264.71, 168.76 258.94, 160 249.7, 160L192, 160L203.6, 109.21C205.6, 102.54 199.88, 96 192, 96L124, 96C118, 96 112.9, 99.9 112.11, 105.11L96.11, 212.11C95.15, 218.41 100.75, 224 108, 224zM560, 128L544, 128L544, 80A16 16 0 0 0 512, 80L512, 128L480, 128L480, 80A16 16 0 0 0 448, 80L448, 128L432, 128A16 16 0 0 0 416, 144L416, 176C416, 211.76 439.62, 241.69 472, 251.93L472, 370.42C472, 384.37 462.5, 397.34 448.74, 399.61A28 28 0 0 1 416, 372L416, 344A88 88 0 0 0 328, 256L320, 256L320, 304L328, 304A40 40 0 0 1 368, 344L368, 368.61C368, 408.28 396.92, 443.77 436.41, 447.61A76.08 76.08 0 0 0 519.63, 379.43C519.87, 376.96 520, 374.48 520, 372L520, 251.93C552.38, 241.69 576, 211.76 576, 176L576, 144A16 16 0 0 0 560, 128z" fill="#727272" fill-opacity="1" class="Black" />
  </g>
</svg>