<?xml version='1.0' encoding='UTF-8'?>
<svg viewBox="-1.5477 -1.5477 32 32" xmlns="http://www.w3.org/2000/svg">
  <g transform="matrix(0.9991, 0, 0, 0.9991, 0, 0)">
    <g transform="matrix(0.0565, 0, 0, 0.0565, 0, 0)">
      <defs>
        <style>.fa-secondary{opacity:.4}</style>
      </defs>
      <path d="M256, 8C119, 8 8, 119 8, 256C8, 393 119, 504 256, 504C393, 504 504, 393 504, 256C504, 119 393, 8 256, 8zM411.31, 203.31L227.31, 387.31A16 16 0 0 1 204.69, 387.31L100.69, 283.31A16 16 0 0 1 100.69, 260.69L123.31, 238.06A16 16 0 0 1 145.94, 238.06L216, 308.12L366.06, 158.06A16 16 0 0 1 388.69, 158.06L411.31, 180.69A16 16 0 0 1 411.31, 203.31z" fill="#727272" opacity="0.4" fill-opacity="1" class="Black" />
      <path d="M227.31, 387.31A16 16 0 0 1 204.69, 387.31L100.69, 283.31A16 16 0 0 1 100.69, 260.69L123.31, 238.06A16 16 0 0 1 145.94, 238.06L216, 308.12L366.06, 158.06A16 16 0 0 1 388.69, 158.06L411.31, 180.69A16 16 0 0 1 411.31, 203.31L227.31, 387.31z" fill="#727272" fill-opacity="1" class="Black" />
    </g>
  </g>
</svg>