<?xml version='1.0' encoding='UTF-8'?>
<svg viewBox="-4.8003 -0.1315 32 31.9975" xmlns="http://www.w3.org/2000/svg">
  <g transform="matrix(0.0583, 0, 0, 0.0583, 0, 0)">
    <defs>
      <style>.fa-secondary{opacity:.4}</style>
    </defs>
    <path d="M368, 448L16, 448A16 16 0 0 0 0, 464L0, 496A16 16 0 0 0 16, 512L368, 512A16 16 0 0 0 384, 496L384, 464A16 16 0 0 0 368, 448z" fill="#727272" opacity="0.4" fill-opacity="1" class="Black" />
    <path d="M159.94, 32L12, 32A12 12 0 0 0 0, 44A16.9 16.9 0 0 0 1.79, 51.58L16, 80L7, 89A24 24 0 0 0 0, 106L0, 243.21A32 32 0 0 0 19, 272.47L59.63, 290.53A32 32 0 0 0 84.51, 291L97.3, 285.88A32 32 0 0 0 116.05, 265.38L125.27, 234.73A24 24 0 0 1 137.82, 219.08L159.94, 208L159.94, 258.33A48 48 0 0 1 133.41, 301.27L76.2, 329.92A80 80 0 0 0 32, 401.48L32, 416L351.86, 416L351.86, 224C351.86, 118 265.94, 32 159.94, 32zM52, 168A20 20 0 1 1 72, 148A20 20 0 0 1 52, 168z" fill="#727272" fill-opacity="1" class="Black" />
  </g>
</svg>