<?xml version='1.0' encoding='UTF-8'?>
<svg viewBox="-6 2 32 32" xmlns="http://www.w3.org/2000/svg">
  <g transform="matrix(0.0625, 0, 0, 0.0625, 0, 0)">
    <defs>
      <style>.fa-secondary{opacity:.4}</style>
    </defs>
    <path d="M320, 473.89L320, 496A16 16 0 0 1 304, 512L16, 512A16 16 0 0 1 0, 496L0, 473.89A16 16 0 0 1 8.85, 459.58L32, 448L32, 432A16 16 0 0 1 48, 416L272, 416A16 16 0 0 1 288, 432L288, 448L311.16, 459.58A16 16 0 0 1 320, 473.89z" fill="#727272" opacity="0.4" fill-opacity="1" class="Black" />
    <path d="M45.55, 235.52L74.38, 248.38A22.59 22.59 0 0 0 92.05, 248.72L101.14, 245.07A22.79 22.79 0 0 0 114.47, 230.45L121, 208.58A17.09 17.09 0 0 1 129.92, 197.43L144.12, 192L144.12, 229.21A28.58 28.58 0 0 1 127.22, 255.3L80.68, 279C40.87, 299.22 32.42, 352.42 64, 384L256, 384C263, 376.15 272, 365.69 272, 352L272, 203.16C272, 126.62 209.38, 64 132.84, 64L40.52, 64A8.54 8.54 0 0 0 32, 72.56A12.14 12.14 0 0 0 33.27, 78L43.37, 98.28L37, 104.63A17.21 17.21 0 0 0 32, 116.74L32, 214.64A22.86 22.86 0 0 0 45.55, 235.52zM80.07, 128A16 16 0 1 1 64.13, 144A16 16 0 0 1 80.07, 128z" fill="#727272" fill-opacity="1" class="Black" />
  </g>
</svg>