<?xml version='1.0' encoding='UTF-8'?>
<svg viewBox="-6 2 32 32" xmlns="http://www.w3.org/2000/svg">
  <g transform="matrix(0.0625, 0, 0, 0.0625, 0, 0)">
    <defs>
      <style>.fa-secondary{opacity:.4}</style>
    </defs>
    <path d="M320, 473.89L320, 496A16 16 0 0 1 304, 512L16, 512A16 16 0 0 1 0, 496L0, 473.89A16 16 0 0 1 8.85, 459.58L32, 448L32, 432A16 16 0 0 1 48, 416L272, 416A16 16 0 0 1 288, 432L288, 448L311.16, 459.58A16 16 0 0 1 320, 473.89z" fill="#727272" opacity="0.4" fill-opacity="1" class="Black" />
    <path d="M71.81, 210.32L57.33, 384L262.67, 384L248.19, 210.3L278.81, 179.19A32 32 0 0 0 288, 156.74L288, 72A8 8 0 0 0 280, 64L244.82, 64A8 8 0 0 0 236.82, 72L236.82, 112L203.88, 112L203.88, 72A8 8 0 0 0 195.88, 64L124.13, 64A8 8 0 0 0 116.13, 72L116.13, 112L83.19, 112L83.19, 72A8 8 0 0 0 75.19, 64L40, 64A8 8 0 0 0 32, 72L32, 156.82A32 32 0 0 0 41.21, 179.29zM136.41, 231.59A23.59 23.59 0 0 1 183.59, 231.59L183.59, 278.77L136.41, 278.77z" fill="#727272" fill-opacity="1" class="Black" />
  </g>
</svg>