<?xml version='1.0' encoding='UTF-8'?>
<svg viewBox="-2 -2 32 32" xmlns="http://www.w3.org/2000/svg">
  <g transform="matrix(0.0547, 0, 0, 0.0547, 0, 0)">
    <defs>
      <style>.fa-secondary{opacity:.4}</style>
    </defs>
    <path d="M512, 256L512, 192L448, 192L448, 256zM448, 0L384, 0L384, 64L448, 64zM512, 128L512, 64L448, 64L448, 128zM256, 192L192, 192L192, 256L256, 256zM320, 0L256, 0L256, 64L320, 64zM512, 384L512, 320L448, 320L448, 384zM512, 512L512, 448L448, 448L448, 512zM256, 128L256, 64L192, 64L192, 128zM64, 512L128, 512L128, 448L64, 448zM192, 512L256, 512L256, 448L192, 448zM0, 384L0, 448L64, 448L64, 384zM320, 512L384, 512L384, 448L320, 448zM0, 128L0, 192L64, 192L64, 128zM0, 0L0, 64L64, 64L64, 0zM0, 256L0, 320L64, 320L64, 256zM192, 0L128, 0L128, 64L192, 64zM384, 320L448, 320L448, 256L384, 256zM256, 256L256, 320L320, 320L320, 256zM128, 192L64, 192L64, 256L128, 256zM192, 320L192, 384L256, 384L256, 320zM320, 320L320, 384L384, 384L384, 320zM128, 320L64, 320L64, 384L128, 384zM128, 64L64, 64L64, 128L128, 128zM384, 192L448, 192L448, 128L384, 128zM128, 384L128, 448L192, 448L192, 384zM320, 256L384, 256L384, 192L320, 192zM448, 384L384, 384L384, 448L448, 448zM192, 256L128, 256L128, 320L192, 320zM320, 192L320, 128L256, 128L256, 192zM256, 384L256, 448L320, 448L320, 384zM384, 128L384, 64L320, 64L320, 128zM192, 128L128, 128L128, 192L192, 192z" fill="#727272" opacity="0.4" fill-opacity="1" class="Black" />
    <path d="M256, 0L192, 0L192, 64L256, 64zM0, 64L0, 128L64, 128L64, 64zM128, 0L64, 0L64, 64L128, 64zM192, 256L192, 320L256, 320L256, 256zM0, 192L0, 256L64, 256L64, 192zM384, 0L320, 0L320, 64L384, 64zM512, 0L448, 0L448, 64L512, 64zM128, 256L64, 256L64, 320L128, 320zM512, 448L512, 384L448, 384L448, 448zM512, 320L512, 256L448, 256L448, 320zM384, 512L448, 512L448, 448L384, 448zM512, 192L512, 128L448, 128L448, 192zM128, 512L192, 512L192, 448L128, 448zM0, 512L64, 512L64, 448L0, 448zM256, 512L320, 512L320, 448L256, 448zM0, 320L0, 384L64, 384L64, 320zM320, 128L320, 64L256, 64L256, 128zM256, 256L320, 256L320, 192L256, 192zM192, 384L192, 448L256, 448L256, 384zM320, 320L384, 320L384, 256L320, 256zM320, 192L384, 192L384, 128L320, 128zM320, 384L320, 448L384, 448L384, 384zM64, 384L64, 448L128, 448L128, 384zM192, 128L192, 64L128, 64L128, 128zM384, 384L448, 384L448, 320L384, 320zM256, 192L256, 128L192, 128L192, 192zM384, 64L384, 128L448, 128L448, 64zM256, 320L256, 384L320, 384L320, 320zM192, 192L128, 192L128, 256L192, 256zM384, 256L448, 256L448, 192L384, 192zM128, 128L64, 128L64, 192L128, 192zM128, 320L128, 384L192, 384L192, 320z" fill="#727272" fill-opacity="1" class="Black" />
  </g>
</svg>