<?xml version='1.0' encoding='UTF-8'?>
<svg viewBox="-8.5335 -0.1315 32 31.9975" xmlns="http://www.w3.org/2000/svg">
  <g transform="matrix(0.0583, 0, 0, 0.0583, 0, 0)">
    <defs>
      <style>.fa-secondary{opacity:.4}</style>
    </defs>
    <path d="M247.16, 459.58L224, 448L224, 432A16 16 0 0 0 208, 416L48, 416A16 16 0 0 0 32, 432L32, 448L8.85, 459.58A16 16 0 0 0 0, 473.89L0, 496A16 16 0 0 0 16, 512L240, 512A16 16 0 0 0 256, 496L256, 473.89A16 16 0 0 0 247.16, 459.58z" fill="#727272" opacity="0.4" fill-opacity="1" class="Black" />
    <path d="M64, 288L78.89, 288A535.84 535.84 0 0 1 64, 384L192, 384A535.84 535.84 0 0 1 177.11, 288L192, 288A16 16 0 0 0 208, 272L208, 256A16 16 0 0 0 192, 240L180.33, 240C196.33, 233.33 206.81, 214.91 206.81, 189.57C206.81, 170.25 199.61, 147.23 189.08, 126.24L140.49, 174.83A4 4 0 0 1 134.83, 174.83L129.17, 169.17A4 4 0 0 1 129.17, 163.52L181, 111.7C170.78, 94.89 158.8, 80.48 147.14, 72.37C155.31, 69.59 160, 61.85 160, 52.73C160, 41.28 151.92, 32 140.47, 32L115.53, 32C104.08, 32 96, 41.28 96, 52.73C96, 61.85 100.69, 69.59 108.87, 72.37C80.29, 92.24 49.19, 149.12 49.19, 189.57C49.19, 214.91 59.68, 233.33 75.67, 240L64, 240A16 16 0 0 0 48, 256L48, 272A16 16 0 0 0 64, 288z" fill="#727272" fill-opacity="1" class="Black" />
  </g>
</svg>