<?xml version='1.0' encoding='UTF-8'?>
<svg viewBox="-1.9999 -4.7979 32 31.9975" xmlns="http://www.w3.org/2000/svg">
  <g transform="matrix(1.0011, 0, 0, 1.0011, 0, 0)">
    <g transform="matrix(0.0437, 0, 0, 0.0437, 0, 0)">
      <defs>
        <style>.fa-secondary{opacity:.4}</style>
      </defs>
      <path d="M519.48, 243A12 12 0 0 0 502.48, 243L451.58, 293.89A12 12 0 0 0 451.58, 310.89L457.24, 316.55A12 12 0 0 0 474.24, 316.55L525.14, 265.65A12 12 0 0 0 525.14, 248.65zM180.29, 224.14L172.29, 224.14A12 12 0 0 0 160.29, 236.14L160.29, 308.14A12 12 0 0 0 172.29, 320.14L180.29, 320.14A12 12 0 0 0 192.29, 308.14L192.29, 236.14A12 12 0 0 0 180.29, 224.14zM240.06, 32L112.06, 32A16 16 0 0 0 96.06, 48L96.06, 63.94A16 16 0 0 0 112.06, 79.94L152.25, 79.94L152.25, 128L200.25, 128L200.25, 79.94L240.06, 79.94A16 16 0 0 0 256.06, 63.94L256.06, 48A16 16 0 0 0 240.06, 32zM528, 96L400, 96A16 16 0 0 0 384, 112L384, 128L544, 128L544, 112A16 16 0 0 0 528, 96z" fill="#727272" opacity="0.4" fill-opacity="1" class="Black" />
      <path d="M600, 128L40, 128A40 40 0 0 0 0, 168L0, 440A40 40 0 0 0 40, 480L600, 480A40 40 0 0 0 640, 440L640, 168A40 40 0 0 0 600, 128zM176.29, 416.06A112 112 0 1 1 288.29, 304.11A111.95 111.95 0 0 1 176.29, 416.06zM464.29, 416.06A112 112 0 1 1 576.29, 304.11A111.95 111.95 0 0 1 464.29, 416.06z" fill="#727272" fill-opacity="1" class="Black" />
    </g>
  </g>
</svg>