<?xml version='1.0' encoding='UTF-8'?>
<svg viewBox="-1.9999 -4.7979 32 31.9975" xmlns="http://www.w3.org/2000/svg">
  <g transform="matrix(1.0011, 0, 0, 1.0011, 0, 0)">
    <g transform="matrix(0.0437, 0, 0, 0.0437, 0, 0)">
      <defs>
        <style>.fa-secondary{opacity:.4}</style>
      </defs>
      <path d="M231.12, 243A12 12 0 0 0 214.12, 243L163.23, 293.89A12 12 0 0 0 163.23, 310.89L168.88, 316.55A12 12 0 0 0 185.88, 316.55L236.77, 265.65A12 12 0 0 0 236.77, 248.65zM467.82, 224.16L459.82, 224.16A12 12 0 0 0 447.82, 236.16L447.82, 308.16A12 12 0 0 0 459.82, 320.16L467.82, 320.16A12 12 0 0 0 479.82, 308.16L479.82, 236.16A12 12 0 0 0 467.82, 224.14zM239.91, 96L111.91, 96A16 16 0 0 0 95.91, 112L95.91, 128L255.91, 128L255.91, 112A16 16 0 0 0 239.91, 96zM528, 32L400, 32A16 16 0 0 0 384, 48L384, 64A16 16 0 0 0 400, 80L439.75, 80L439.75, 128L487.75, 128L487.75, 80L528, 80A16 16 0 0 0 544, 64L544, 48A16 16 0 0 0 528, 32z" fill="#727272" opacity="0.4" fill-opacity="1" class="Black" />
      <path d="M600, 128L40, 128A40.17 40.17 0 0 0 0, 168.11L0, 440A40 40 0 0 0 40, 480L600, 480A40 40 0 0 0 640, 440L640, 168.11A40.17 40.17 0 0 0 600, 128zM175.93, 416.06A112 112 0 1 1 287.93, 304.11A111.95 111.95 0 0 1 175.93, 416.06zM463.82, 416.06A112 112 0 1 1 575.82, 304.11A111.95 111.95 0 0 1 463.82, 416.06z" fill="#727272" fill-opacity="1" class="Black" />
    </g>
  </g>
</svg>