<?xml version='1.0' encoding='UTF-8'?>
<svg viewBox="-8.9981 -1.9999 31.9975 32" xmlns="http://www.w3.org/2000/svg">
  <g transform="matrix(0.0547, 0, 0, 0.0547, 0, 0)">
    <defs>
      <style>.fa-secondary{opacity:.4}</style>
    </defs>
    <path d="M256, 473.89L256, 496A16 16 0 0 1 240, 512L16, 512A16 16 0 0 1 0, 496L0, 473.89A16 16 0 0 1 8.85, 459.58L32, 448L32, 432A16 16 0 0 1 48, 416L208, 416A16 16 0 0 1 224, 432L224, 448L247.16, 459.58A16 16 0 0 1 256, 473.89z" fill="#727272" opacity="0.4" fill-opacity="1" class="Black" />
    <path d="M128, 48A24 24 0 1 0 104, 24A24 24 0 0 0 128, 48zM230.84, 87.65L220.78, 80.94C217.65, 78.86 213.66, 79.94 211.4, 82.94A20.05 20.05 0 0 1 191.51, 90.61C181.77, 88.8 175.16, 79.61 175.16, 69.61A5.65 5.65 0 0 0 169.52, 64L153.19, 64A5.45 5.45 0 0 0 147.78, 68.17A20.22 20.22 0 0 1 108.22, 68.17A5.45 5.45 0 0 0 102.81, 64L86.49, 64A5.65 5.65 0 0 0 80.84, 69.64C80.84, 80.46 72.84, 90.17 62.03, 90.9A20 20 0 0 1 44.54, 82.84A6.81 6.81 0 0 0 35.24, 80.93L25.16, 87.65A6.73 6.73 0 0 0 22.87, 96.27L67.37, 192L64, 192A16 16 0 0 0 48, 208L48, 224A16 16 0 0 0 64, 240L80, 240L80, 254A535.76 535.76 0 0 1 64, 384L192, 384A535.76 535.76 0 0 1 176, 254L176, 240L192, 240A16 16 0 0 0 208, 224L208, 208A16 16 0 0 0 192, 192L188.63, 192L233.13, 96.27A6.73 6.73 0 0 0 230.84, 87.65z" fill="#727272" fill-opacity="1" class="Black" />
  </g>
</svg>