<?xml version='1.0' encoding='UTF-8'?>
<svg viewBox="-1.5477 -1.5477 32 32" xmlns="http://www.w3.org/2000/svg">
  <g transform="matrix(0.9991, 0, 0, 0.9991, 0, 0)">
    <g transform="matrix(0.0565, 0, 0, 0.0565, 0, 0)">
      <defs>
        <style>.fa-secondary{opacity:.4}</style>
      </defs>
      <path d="M256, 8C119, 8 8, 119 8, 256C8, 393 119, 504 256, 504C393, 504 504, 393 504, 256C504, 119 393, 8 256, 8zM369.9, 273L234.4, 408.5A23.9 23.9 0 0 1 200.5, 408.5L183.5, 391.5A23.9 23.9 0 0 1 183.5, 357.6L285.1, 256L183.5, 154.4A23.9 23.9 0 0 1 183.5, 120.5L200.5, 103.5A23.9 23.9 0 0 1 234.4, 103.5L369.9, 239A24 24 0 0 1 369.9, 273z" fill="#727272" opacity="0.4" fill-opacity="1" class="Black" />
      <path d="M369.9, 273L234.4, 408.5A23.9 23.9 0 0 1 200.5, 408.5L183.5, 391.5A23.9 23.9 0 0 1 183.5, 357.6L285.1, 256L183.5, 154.4A23.9 23.9 0 0 1 183.5, 120.5L200.5, 103.5A23.9 23.9 0 0 1 234.4, 103.5L369.9, 239A24 24 0 0 1 369.9, 273z" fill="#727272" fill-opacity="1" class="Black" />
    </g>
  </g>
</svg>