<?xml version='1.0' encoding='UTF-8'?>
<svg viewBox="-2.2749 -0.3134 32 32" xmlns="http://www.w3.org/2000/svg">
  <g transform="matrix(0.0613, 0, 0, 0.0613, 0, 0)">
    <defs>
      <style>.fa-secondary{opacity:.4}</style>
    </defs>
    <path d="M207, 285.54L12.7, 91.14A23.9 23.9 0 0 1 12.7, 57.24L35.4, 34.54A24.08 24.08 0 0 1 69.3, 34.54L224, 188.54L378.7, 34.54A23.9 23.9 0 0 1 412.6, 34.54L435.3, 57.24A23.9 23.9 0 0 1 435.3, 91.14L241, 285.54A24.2 24.2 0 0 1 207, 285.54z" fill="#727272" opacity="0.4" fill-opacity="1" class="Black" />
    <path d="M207, 477.54L12.7, 283.14A23.9 23.9 0 0 1 12.7, 249.24L35.4, 226.54A23.9 23.9 0 0 1 69.3, 226.54L224, 380.54L378.7, 226.54A24.08 24.08 0 0 1 412.6, 226.54L435.3, 249.24A23.9 23.9 0 0 1 435.3, 283.14L241, 477.54A24.2 24.2 0 0 1 207, 477.54z" fill="#727272" fill-opacity="1" class="Black" />
  </g>
</svg>