<?xml version='1.0' encoding='UTF-8'?>
<svg viewBox="-2 0 32 32" xmlns="http://www.w3.org/2000/svg">
  <g transform="matrix(0.0625, 0, 0, 0.0625, 0, 0)">
    <defs>
      <style>.fa-secondary{opacity:.4}</style>
    </defs>
    <path d="M400, 32L48, 32A48 48 0 0 0 0, 80L0, 432A48 48 0 0 0 48, 480L400, 480A48 48 0 0 0 448, 432L448, 80A48 48 0 0 0 400, 32zM329.94, 273L194.43, 408.48A24 24 0 0 1 160.49, 408.48L143.49, 391.48A24 24 0 0 1 143.49, 357.54L245.09, 256L143.52, 154.43A24 24 0 0 1 143.52, 120.49L160.52, 103.49A24 24 0 0 1 194.46, 103.49L329.94, 239A24 24 0 0 1 329.94, 273z" fill="#727272" opacity="0.4" fill-opacity="1" class="Black" />
    <path d="M143.52, 154.43A24 24 0 0 1 143.52, 120.49L160.52, 103.49A24 24 0 0 1 194.46, 103.49L329.94, 239A24 24 0 0 1 329.94, 272.94L194.43, 408.48A24 24 0 0 1 160.49, 408.48L143.49, 391.48A24 24 0 0 1 143.49, 357.54L245.09, 256z" fill="#727272" fill-opacity="1" class="Black" />
  </g>
</svg>