<?xml version='1.0' encoding='UTF-8'?>
<svg viewBox="-0.2798 -0.2786 32 32" xmlns="http://www.w3.org/2000/svg">
  <g transform="matrix(0.0614, 0, 0, 0.0614, 0, 0)">
    <defs>
      <style>.fa-secondary{opacity:.4}</style>
    </defs>
    <path d="M226.56, 239L420.56, 45A23.84 23.84 0 0 1 454.29, 44.9L454.39, 45L477, 67.7A24.06 24.06 0 0 1 477, 101.55L323.36, 256L476.94, 410.45A23.87 23.87 0 0 1 477.04, 444.2L476.94, 444.3L454.29, 467A23.84 23.84 0 0 1 420.56, 467.1L420.46, 467L226.56, 273A24.17 24.17 0 0 1 226.56, 239z" fill="#727272" opacity="0.4" fill-opacity="1" class="Black" />
    <path d="M35, 239L229, 45A23.84 23.84 0 0 1 262.73, 44.9L262.83, 45L285.44, 67.7A23.87 23.87 0 0 1 285.54, 101.45L285.44, 101.55L131.76, 256L285.44, 410.45A24.06 24.06 0 0 1 285.44, 444.3L262.79, 467A23.84 23.84 0 0 1 229.06, 467.1L228.96, 467L35, 273A24.17 24.17 0 0 1 35, 239z" fill="#727272" fill-opacity="1" class="Black" />
  </g>
</svg>