<?xml version='1.0' encoding='UTF-8'?>
<svg viewBox="-2 0 32 32" xmlns="http://www.w3.org/2000/svg">
  <g transform="matrix(0.0625, 0, 0, 0.0625, 0, 0)">
    <defs>
      <style>.fa-secondary{opacity:.4}</style>
    </defs>
    <path d="M400, 32L48, 32A48 48 0 0 0 0, 80L0, 432A48 48 0 0 0 48, 480L400, 480A48 48 0 0 0 448, 432L448, 80A48 48 0 0 0 400, 32zM376.49, 226.43L241, 361.94A24 24 0 0 1 207.06, 361.94L71.52, 226.43A24 24 0 0 1 71.52, 192.49L88.52, 175.49A24 24 0 0 1 122.46, 175.49L224, 277.09L325.57, 175.51A24 24 0 0 1 359.52, 175.51L376.52, 192.51A24 24 0 0 1 376.49, 226.43z" fill="#727272" opacity="0.4" fill-opacity="1" class="Black" />
    <path d="M71.52, 192.49L88.52, 175.49A24 24 0 0 1 122.46, 175.49L224, 277.09L325.57, 175.51A24 24 0 0 1 359.52, 175.51L376.52, 192.51A24 24 0 0 1 376.52, 226.51L241, 361.94A24 24 0 0 1 207.06, 361.94L71.52, 226.43A24 24 0 0 1 71.52, 192.49z" fill="#727272" fill-opacity="1" class="Black" />
  </g>
</svg>