<?xml version='1.0' encoding='UTF-8'?>
<svg viewBox="-1.5477 -1.5477 32 32" xmlns="http://www.w3.org/2000/svg">
  <g transform="matrix(0.9991, 0, 0, 0.9991, 0, 0)">
    <g transform="matrix(0.0565, 0, 0, 0.0565, 0, 0)">
      <defs>
        <style>.fa-secondary{opacity:.4}</style>
      </defs>
      <path d="M256, 8C119, 8 8, 119 8, 256C8, 393 119, 504 256, 504C393, 504 504, 393 504, 256C504, 119 393, 8 256, 8zM408.5, 311.5L391.5, 328.5A23.9 23.9 0 0 1 357.6, 328.5L256, 226.9L154.4, 328.5A23.9 23.9 0 0 1 120.5, 328.5L103.5, 311.5A23.9 23.9 0 0 1 103.5, 277.6L239, 142.1A24 24 0 0 1 273, 142.1L408.5, 277.6A23.9 23.9 0 0 1 408.5, 311.5z" fill="#727272" opacity="0.4" fill-opacity="1" class="Black" />
      <path d="M273, 142.1L408.5, 277.6A23.9 23.9 0 0 1 408.5, 311.5L391.5, 328.5A23.9 23.9 0 0 1 357.6, 328.5L256, 226.9L154.4, 328.5A23.9 23.9 0 0 1 120.5, 328.5L103.5, 311.5A23.9 23.9 0 0 1 103.5, 277.6L239, 142.1A24 24 0 0 1 273, 142.1z" fill="#727272" fill-opacity="1" class="Black" />
    </g>
  </g>
</svg>