<?xml version='1.0' encoding='UTF-8'?>
<svg viewBox="-1.6023 0.4453 32 32" xmlns="http://www.w3.org/2000/svg">
  <g transform="matrix(1.0006, 0, 0, 1.0006, 0, 0)">
    <g transform="matrix(0.0642, 0, 0, 0.0642, 0, 0)">
      <defs>
        <style>.fa-secondary{opacity:.4}</style>
      </defs>
      <path d="M224.1, 284.64L167.21, 341.42L13.21, 187.11A24 24 0 0 1 13.21, 153.17L35.86, 130.47A23.93 23.93 0 0 1 69.7, 130.47z" fill="#727272" opacity="0.4" fill-opacity="1" class="Black" />
      <path d="M435, 187.15L241, 381.48A23.94 23.94 0 0 1 207.16, 381.48L167.16, 341.48L378.5, 130.48A23.93 23.93 0 0 1 412.34, 130.48L435, 153.21A24 24 0 0 1 435, 187.15z" fill="#727272" fill-opacity="1" class="Black" />
    </g>
  </g>
</svg>