<?xml version='1.0' encoding='UTF-8'?>
<svg viewBox="-1.5477 -1.5477 32 32" xmlns="http://www.w3.org/2000/svg">
  <g transform="matrix(0.9991, 0, 0, 0.9991, 0, 0)">
    <g transform="matrix(0.0565, 0, 0, 0.0565, 0, 0)">
      <defs>
        <style>.fa-secondary{opacity:.4}</style>
      </defs>
      <path d="M256, 8C119, 8 8, 119 8, 256C8, 393 119, 504 256, 504C393, 504 504, 393 504, 256C504, 119 393, 8 256, 8zM328.5, 357.6A23.9 23.9 0 0 1 328.5, 391.5L311.5, 408.5A23.9 23.9 0 0 1 277.6, 408.5L142.1, 273A24 24 0 0 1 142.1, 239L277.6, 103.5A23.9 23.9 0 0 1 311.5, 103.5L328.5, 120.5A23.9 23.9 0 0 1 328.5, 154.4L226.9, 256z" fill="#727272" opacity="0.4" fill-opacity="1" class="Black" />
      <path d="M142.1, 239L277.6, 103.5A23.9 23.9 0 0 1 311.5, 103.5L328.5, 120.5A23.9 23.9 0 0 1 328.5, 154.4L226.9, 256L328.5, 357.6A23.9 23.9 0 0 1 328.5, 391.5L311.5, 408.5A23.9 23.9 0 0 1 277.6, 408.5L142.1, 273A24 24 0 0 1 142.1, 239z" fill="#727272" fill-opacity="1" class="Black" />
    </g>
  </g>
</svg>