<?xml version='1.0' encoding='UTF-8'?>
<svg viewBox="-2 0 32 32" xmlns="http://www.w3.org/2000/svg">
  <g transform="matrix(0.0625, 0, 0, 0.0625, 0, 0)">
    <defs>
      <style>.fa-secondary{opacity:.4}</style>
    </defs>
    <path d="M400, 32L48, 32A48 48 0 0 0 0, 80L0, 432A48 48 0 0 0 48, 480L400, 480A48 48 0 0 0 448, 432L448, 80A48 48 0 0 0 400, 32zM304.49, 357.57A24 24 0 0 1 304.49, 391.52L287.49, 408.52A24 24 0 0 1 253.54, 408.52L118.06, 273A24 24 0 0 1 118.06, 239.06L253.57, 103.52A24 24 0 0 1 287.52, 103.52L304.52, 120.52A24 24 0 0 1 304.52, 154.46L202.91, 256z" fill="#727272" opacity="0.4" fill-opacity="1" class="Black" />
    <path d="M118.06, 239L253.57, 103.52A24 24 0 0 1 287.52, 103.52L304.52, 120.52A24 24 0 0 1 304.52, 154.46L202.91, 256L304.49, 357.57A24 24 0 0 1 304.49, 391.52L287.49, 408.52A24 24 0 0 1 253.54, 408.52L118.06, 273A24 24 0 0 1 118.06, 239z" fill="#727272" fill-opacity="1" class="Black" />
  </g>
</svg>