<?xml version='1.0' encoding='UTF-8'?>
<svg viewBox="-1.9999 -2.0002 32 31.9995" xmlns="http://www.w3.org/2000/svg">
  <g transform="matrix(0.0547, 0, 0, 0.0547, 0, 0)">
    <defs>
      <style>.fa-secondary{opacity:.4}</style>
    </defs>
    <path d="M160, 224L32, 224L32, 352L160, 352zM32, 512L320, 512L320, 384L32, 384zM352, 512L480, 512L480, 384L352, 384zM192, 224L192, 352L480, 352L480, 224z" fill="#727272" opacity="0.4" fill-opacity="1" class="Black" />
    <path d="M0, 160L0, 32A32 32 0 0 1 32, 0L480, 0A32 32 0 0 1 512, 32L512, 160A32 32 0 0 1 480, 192L32, 192A32 32 0 0 1 0, 160z" fill="#727272" fill-opacity="1" class="Black" />
  </g>
</svg>