<?xml version='1.0' encoding='UTF-8'?>
<svg viewBox="-1.9999 -4.8004 32 32" xmlns="http://www.w3.org/2000/svg">
  <g transform="matrix(1.0011, 0, 0, 1.0011, 0, 0)">
    <g transform="matrix(0.0437, 0, 0, 0.0437, 0, 0)">
      <defs>
        <style>.fa-secondary{opacity:.4}</style>
      </defs>
      <path d="M116, 352L76, 352A12 12 0 0 0 64, 364L64, 404A12 12 0 0 0 76, 416L116, 416A12 12 0 0 0 128, 404L128, 364A12 12 0 0 0 116, 352zM116, 256L76, 256A12 12 0 0 0 64, 268L64, 308A12 12 0 0 0 76, 320L116, 320A12 12 0 0 0 128, 308L128, 268A12 12 0 0 0 116, 256zM116, 160L76, 160A12 12 0 0 0 64, 172L64, 212A12 12 0 0 0 76, 224L116, 224A12 12 0 0 0 128, 212L128, 172A12 12 0 0 0 116, 160zM244, 352L204, 352A12 12 0 0 0 192, 364L192, 404A12 12 0 0 0 204, 416L244, 416A12 12 0 0 0 256, 404L256, 364A12 12 0 0 0 244, 352zM244, 256L204, 256A12 12 0 0 0 192, 268L192, 308A12 12 0 0 0 204, 320L244, 320A12 12 0 0 0 256, 308L256, 268A12 12 0 0 0 244, 256zM244, 160L204, 160A12 12 0 0 0 192, 172L192, 212A12 12 0 0 0 204, 224L244, 224A12 12 0 0 0 256, 212L256, 172A12 12 0 0 0 244, 160zM564, 352L524, 352A12 12 0 0 0 512, 364L512, 404A12 12 0 0 0 524, 416L564, 416A12 12 0 0 0 576, 404L576, 364A12 12 0 0 0 564, 352zM564, 256L524, 256A12 12 0 0 0 512, 268L512, 308A12 12 0 0 0 524, 320L564, 320A12 12 0 0 0 576, 308L576, 268A12 12 0 0 0 564, 256z" fill="#727272" opacity="0.4" fill-opacity="1" class="Black" />
      <path d="M616, 192L480, 192L480, 24A24 24 0 0 0 456, 0L312, 0A24 24 0 0 0 288, 24L288, 96L224, 96L224, 16A16 16 0 0 0 208, 0L192, 0A16 16 0 0 0 176, 16L176, 96L112, 96L112, 16A16 16 0 0 0 96, 0L80, 0A16 16 0 0 0 64, 16L64, 96L24, 96A24 24 0 0 0 0, 120L0, 480A32 32 0 0 0 32, 512L608, 512A32 32 0 0 0 640, 480L640, 216A24 24 0 0 0 616, 192zM128, 404A12 12 0 0 1 116, 416L76, 416A12 12 0 0 1 64, 404L64, 364A12 12 0 0 1 76, 352L116, 352A12 12 0 0 1 128, 364zM128, 308A12 12 0 0 1 116, 320L76, 320A12 12 0 0 1 64, 308L64, 268A12 12 0 0 1 76, 256L116, 256A12 12 0 0 1 128, 268zM128, 212A12 12 0 0 1 116, 224L76, 224A12 12 0 0 1 64, 212L64, 172A12 12 0 0 1 76, 160L116, 160A12 12 0 0 1 128, 172zM256, 404A12 12 0 0 1 244, 416L204, 416A12 12 0 0 1 192, 404L192, 364A12 12 0 0 1 204, 352L244, 352A12 12 0 0 1 256, 364zM256, 308A12 12 0 0 1 244, 320L204, 320A12 12 0 0 1 192, 308L192, 268A12 12 0 0 1 204, 256L244, 256A12 12 0 0 1 256, 268zM256, 212A12 12 0 0 1 244, 224L204, 224A12 12 0 0 1 192, 212L192, 172A12 12 0 0 1 204, 160L244, 160A12 12 0 0 1 256, 172zM416, 308A12 12 0 0 1 404, 320L364, 320A12 12 0 0 1 352, 308L352, 268A12 12 0 0 1 364, 256L404, 256A12 12 0 0 1 416, 268zM416, 212A12 12 0 0 1 404, 224L364, 224A12 12 0 0 1 352, 212L352, 172A12 12 0 0 1 364, 160L404, 160A12 12 0 0 1 416, 172zM416, 116A12 12 0 0 1 404, 128L364, 128A12 12 0 0 1 352, 116L352, 76A12 12 0 0 1 364, 64L404, 64A12 12 0 0 1 416, 76zM576, 404A12 12 0 0 1 564, 416L524, 416A12 12 0 0 1 512, 404L512, 364A12 12 0 0 1 524, 352L564, 352A12 12 0 0 1 576, 364zM576, 308A12 12 0 0 1 564, 320L524, 320A12 12 0 0 1 512, 308L512, 268A12 12 0 0 1 524, 256L564, 256A12 12 0 0 1 576, 268z" fill="#727272" fill-opacity="1" class="Black" />
    </g>
  </g>
</svg>