<?xml version='1.0' encoding='UTF-8'?>
<svg viewBox="-2 -5.1488 32 32" xmlns="http://www.w3.org/2000/svg">
  <g transform="matrix(0.9988, 0, 0, 0.9988, 0, 0)">
    <g transform="matrix(0.0438, 0, 0, 0.0438, 0, 0)">
      <defs>
        <style>.fa-secondary{opacity:.4}</style>
      </defs>
      <path d="M630.13, 129.22A16 16 0 0 0 612.69, 132.69L569.38, 176L101.2, 176A32 32 0 0 0 91.07, 177.64L10.94, 204.35A16 16 0 0 0 0, 219.53L0, 292.47A16 16 0 0 0 10.94, 307.65L91.07, 334.36A32 32 0 0 0 101.2, 336L569.38, 336L612.69, 379.31A16 16 0 0 0 640, 368L640, 144A16 16 0 0 0 630.13, 129.22zM272, 280A24 24 0 1 1 296, 256A24 24 0 0 1 272, 280zM368, 280A24 24 0 1 1 392, 256A24 24 0 0 1 368, 280zM464, 280A24 24 0 1 1 488, 256A24 24 0 0 1 464, 280z" fill="#727272" opacity="0.4" fill-opacity="1" class="Black" />
      <path d="M368, 232A24 24 0 1 0 392, 256A24 24 0 0 0 368, 232zM272, 232A24 24 0 1 0 296, 256A24 24 0 0 0 272, 232zM504, 112L232, 112A8 8 0 0 0 224, 120L224, 136A8 8 0 0 0 232, 144L256, 144L256, 176L288, 176L288, 144L352, 144L352, 176L384, 176L384, 144L448, 144L448, 176L480, 176L480, 144L504, 144A8 8 0 0 0 512, 136L512, 120A8 8 0 0 0 504, 112zM464, 232A24 24 0 1 0 488, 256A24 24 0 0 0 464, 232z" fill="#727272" fill-opacity="1" class="Black" />
    </g>
  </g>
</svg>