<?xml version='1.0' encoding='UTF-8'?>
<svg viewBox="-1.9975 -3.553 32 32" xmlns="http://www.w3.org/2000/svg">
  <g transform="matrix(0.0486, 0, 0, 0.0486, 0, 0)">
    <defs>
      <style>.fa-secondary{opacity:.4}</style>
    </defs>
    <path d="M288, 115L69.48, 307.72C67.86, 309.18 65.79, 309.86 64.01, 311.07L64.01, 496A16 16 0 0 0 80.01, 512L496, 512A16 16 0 0 0 512, 496L512, 311.11C510.3, 309.95 508.28, 309.29 506.74, 307.91zM384, 376A8 8 0 0 1 376, 384L320, 384L320, 440A8 8 0 0 1 312, 448L264, 448A8 8 0 0 1 256, 440L256, 384L200, 384A8 8 0 0 1 192, 376L192, 328A8 8 0 0 1 200, 320L256, 320L256, 264A8 8 0 0 1 264, 256L312, 256A8 8 0 0 1 320, 264L320, 320L376, 320A8 8 0 0 1 384, 328z" fill="#727272" opacity="0.4" fill-opacity="1" class="Black" />
    <path d="M570.7, 236.29L314.76, 10.29A39.85 39.85 0 0 0 261.31, 10.29L5.31, 236.29A16 16 0 0 0 4.1, 258.88L25.51, 282.7A16 16 0 0 0 48.1, 283.91L277.43, 81.64A16 16 0 0 1 298.6, 81.64L527.92, 283.91A16 16 0 0 0 550.52, 282.71L571.92, 258.89A16 16 0 0 0 570.7, 236.29zM376, 320L320, 320L320, 264A8 8 0 0 0 312, 256L264, 256A8 8 0 0 0 256, 264L256, 320L200, 320A8 8 0 0 0 192, 328L192, 376A8 8 0 0 0 200, 384L256, 384L256, 440A8 8 0 0 0 264, 448L312, 448A8 8 0 0 0 320, 440L320, 384L376, 384A8 8 0 0 0 384, 376L384, 328A8 8 0 0 0 376, 320z" fill="#727272" fill-opacity="1" class="Black" />
  </g>
</svg>