<?xml version='1.0' encoding='UTF-8'?>
<svg viewBox="-5.5003 -2.0524 32 31.9975" xmlns="http://www.w3.org/2000/svg">
  <g transform="matrix(0.0547, 0, 0, 0.0547, 0, 0)">
    <defs>
      <style>.fa-secondary{opacity:.4}</style>
    </defs>
    <path d="M336, 63L256, 63A64 64 0 0 1 320, 127L64, 127A64 64 0 0 1 128, 63L48, 63A48 48 0 0 0 0, 111L0, 463A48 48 0 0 0 48, 511L336, 511A48 48 0 0 0 384, 463L384, 111A48 48 0 0 0 336, 63zM304, 432L292.69, 443.31A16 16 0 0 1 270.06, 443.31L240, 413.25L209.94, 443.31A16 16 0 0 1 187.31, 443.31L176, 432A16 16 0 0 1 176, 409.37L206.06, 379.31L146.74, 320L128, 320L128, 368A16 16 0 0 1 112, 384L96, 384A16 16 0 0 1 80, 368L80, 208A16 16 0 0 1 96, 192L176, 192A63.8 63.8 0 0 1 206.54, 311.92L240, 345.38L269.9, 315.48A16 16 0 0 1 292.53, 315.48L303.83, 326.79A16 16 0 0 1 303.83, 349.42L273.93, 379.32L304, 409.38A16 16 0 0 1 304, 432zM192, 256A16 16 0 0 1 176, 272L128, 272L128, 240L176, 240A16 16 0 0 1 192, 256z" fill="#727272" opacity="0.4" fill-opacity="1" class="Black" />
    <path d="M273.93, 379.32L303.83, 349.42A16 16 0 0 0 303.83, 326.79L292.53, 315.48A16 16 0 0 0 269.9, 315.48L240, 345.38L206.54, 311.92A63.8 63.8 0 0 0 176, 192L96, 192A16 16 0 0 0 80, 208L80, 368A16 16 0 0 0 96, 384L112, 384A16 16 0 0 0 128, 368L128, 320L146.74, 320L206.06, 379.31L176, 409.37A16 16 0 0 0 176, 432L187.31, 443.31A16 16 0 0 0 209.94, 443.31L240, 413.25L270.06, 443.31A16 16 0 0 0 292.69, 443.31L304, 432A16 16 0 0 0 304, 409.38zM176, 272L128, 272L128, 240L176, 240A16 16 0 0 1 176, 272zM256, 63A64 64 0 0 0 128, 63A64 64 0 0 0 64, 127L320, 127A64 64 0 0 0 256, 63zM192, 87A24 24 0 1 1 216, 63A23.94 23.94 0 0 1 192, 87z" fill="#727272" fill-opacity="1" class="Black" />
  </g>
</svg>