<?xml version='1.0' encoding='UTF-8'?>
<svg viewBox="-5.5003 -2 32 32" xmlns="http://www.w3.org/2000/svg">
  <g transform="matrix(0.0547, 0, 0, 0.0547, 0, 0)">
    <defs>
      <style>.fa-secondary{opacity:.4}</style>
    </defs>
    <path d="M336, 64L256, 64A64 64 0 0 1 320, 128L64, 128A64 64 0 0 1 128, 64L48, 64A48 48 0 0 0 0, 112L0, 464A48 48 0 0 0 48, 512L336, 512A48 48 0 0 0 384, 464L384, 112A48 48 0 0 0 336, 64zM65.6, 241.4L78.3, 228.8A5.37 5.37 0 0 1 85.9, 228.8L106.5, 249.6L154.1, 202.4A5.37 5.37 0 0 1 161.7, 202.4L174.3, 215.1A5.37 5.37 0 0 1 174.3, 222.7L110.1, 286.3A5.37 5.37 0 0 1 102.5, 286.3L65.6, 249A5.37 5.37 0 0 1 65.6, 241.4zM96, 392A24 24 0 1 1 120, 368A23.94 23.94 0 0 1 96, 392zM320, 376A8 8 0 0 1 312, 384L168, 384A8 8 0 0 1 160, 376L160, 360A8 8 0 0 1 168, 352L312, 352A8 8 0 0 1 320, 360zM320, 280C320, 284.4 315.7, 288 310.4, 288L154.1, 288L186.4, 256L310.4, 256C315.7, 256 320, 259.6 320, 264z" fill="#727272" opacity="0.4" fill-opacity="1" class="Black" />
    <path d="M96, 344A24 24 0 1 0 120, 368A23.94 23.94 0 0 0 96, 344zM161.7, 202.4A5.37 5.37 0 0 0 154.1, 202.4L106.5, 249.6L85.9, 228.8A5.37 5.37 0 0 0 78.3, 228.8L65.6, 241.4A5.37 5.37 0 0 0 65.6, 249L102.5, 286.3A5.37 5.37 0 0 0 110.1, 286.3L174.3, 222.7A5.37 5.37 0 0 0 174.3, 215.1zM256, 64A64 64 0 0 0 128, 64A64 64 0 0 0 64, 128L320, 128A64 64 0 0 0 256, 64zM192, 88A24 24 0 1 1 216, 64A23.94 23.94 0 0 1 192, 88z" fill="#727272" fill-opacity="1" class="Black" />
  </g>
</svg>