<?xml version='1.0' encoding='UTF-8'?>
<svg viewBox="-2 -2 32 32" xmlns="http://www.w3.org/2000/svg">
  <g transform="matrix(0.0547, 0, 0, 0.0547, 0, 0)">
    <defs>
      <style>.fa-secondary{opacity:.4}</style>
    </defs>
    <path d="M48, 512A48 48 0 0 1 0, 464L0, 176A48 48 0 0 1 48, 128L96, 128L96, 336A80.09 80.09 0 0 0 176, 416L384, 416L384, 464A48 48 0 0 1 336, 512L48, 512z" fill="#727272" opacity="0.4" fill-opacity="1" class="Black" />
    <path d="M512, 48L512, 336A48 48 0 0 1 464, 384L176, 384A48 48 0 0 1 128, 336L128, 48A48 48 0 0 1 176, 0L464, 0A48 48 0 0 1 512, 48z" fill="#727272" fill-opacity="1" class="Black" />
  </g>
</svg>