<?xml version='1.0' encoding='UTF-8'?>
<svg viewBox="-2 -1.9988 32 32" xmlns="http://www.w3.org/2000/svg">
  <g transform="matrix(0.0547, 0, 0, 0.0547, 0, 0)">
    <defs>
      <style>.fa-secondary{opacity:.4}</style>
    </defs>
    <path d="M464, 64L48, 64A48 48 0 0 0 0, 112L0, 400A48 48 0 0 0 48, 448L464, 448A48 48 0 0 0 512, 400L512, 112A48 48 0 0 0 464, 64zM246.3, 324C192.7, 380.8 73.5, 356.1 73.5, 256.1C73.5, 158.8 195.2, 136.6 246, 186C248.1, 188 248.5, 189.2 247, 191.7L229.5, 222.2C229.39, 222.38 229.26, 222.56 229.13, 222.74A6.23 6.23 0 0 1 220.4, 223.9C179.6, 191.9 125.8, 209 125.8, 255.1C125.9, 303.1 176.9, 325.6 218.1, 287.7A6.47 6.47 0 0 1 218.67, 287.23A6.19 6.19 0 0 1 227.3, 288.6L246.8, 316.3A6 6 0 0 1 246.3, 324zM408.5, 287.7A6.47 6.47 0 0 1 409.07, 287.23A6.19 6.19 0 0 1 417.7, 288.6L437.2, 316.3A6 6 0 0 1 436.7, 324C383.2, 380.9 264, 356.1 264, 256.1C264, 158.8 385.7, 136.6 436.5, 186C438.6, 188 439, 189.2 437.5, 191.7L420, 222.2C419.89, 222.38 419.76, 222.56 419.63, 222.74A6.23 6.23 0 0 1 410.9, 223.9C370.1, 191.9 316.3, 209 316.3, 255.1C316.3, 303.1 367.3, 325.6 408.5, 287.7z" fill="#727272" opacity="0.4" fill-opacity="1" class="Black" />
    <path d="M227.3, 288.6A6.19 6.19 0 0 0 218.67, 287.23A6.47 6.47 0 0 0 218.1, 287.7C176.9, 325.6 125.9, 303.1 125.8, 255.1C125.8, 209 179.6, 191.9 220.4, 223.9A6.23 6.23 0 0 0 229.13, 222.74C229.26, 222.56 229.39, 222.38 229.5, 222.2L247, 191.7C248.5, 189.2 248.1, 188 246, 186C195.2, 136.6 73.5, 158.8 73.5, 256.1C73.5, 356.1 192.7, 380.8 246.3, 324A6 6 0 0 0 246.8, 316.3zM417.7, 288.6A6.19 6.19 0 0 0 409.07, 287.23A6.47 6.47 0 0 0 408.5, 287.7C367.3, 325.6 316.3, 303.1 316.3, 255.1C316.3, 209 370.1, 191.9 410.9, 223.9A6.23 6.23 0 0 0 419.63, 222.74C419.76, 222.56 419.89, 222.38 420, 222.2L437.5, 191.7C439, 189.2 438.6, 188 436.5, 186C385.7, 136.6 264, 158.8 264, 256.1C264, 356.1 383.2, 380.9 436.7, 324A6 6 0 0 0 437.2, 316.3z" fill="#727272" fill-opacity="1" class="Black" />
  </g>
</svg>