<?xml version='1.0' encoding='UTF-8'?>
<svg viewBox="-1.9999 -1.9999 32 32" xmlns="http://www.w3.org/2000/svg">
  <g transform="matrix(0.0547, 0, 0, 0.0547, 0, 0)">
    <defs>
      <style>.fa-secondary{opacity:.4}</style>
    </defs>
    <path d="M183.89, 370.13A15.88 15.88 0 0 0 162.09, 376.13L98.09, 488.13A15.91 15.91 0 0 0 104.09, 509.92A16 16 0 0 0 125.89, 503.92L189.89, 391.92A16 16 0 0 0 183.89, 370.13zM279.19, 369.73A16 16 0 0 0 257.69, 376.93L241.69, 408.93A16 16 0 0 0 248.89, 430.43A16.88 16.88 0 0 0 256.09, 432.13A16 16 0 0 0 270.39, 423.33L286.39, 391.33A16.23 16.23 0 0 0 279.19, 369.73zM87.19, 369.73A16 16 0 0 0 65.69, 376.93L49.69, 408.93A16 16 0 0 0 56.89, 430.43A16.88 16.88 0 0 0 64.09, 432.13A16 16 0 0 0 78.39, 423.33L94.39, 391.33A16.23 16.23 0 0 0 87.2, 369.73zM471.19, 369.73A16 16 0 0 0 449.69, 376.93L433.69, 408.93A16 16 0 0 0 440.88, 430.43A16.88 16.88 0 0 0 448.08, 432.13A16 16 0 0 0 462.38, 423.33L478.38, 391.33A16.23 16.23 0 0 0 471.18, 369.73zM375.9, 370.13A15.88 15.88 0 0 0 354.1, 376.13L290.1, 488.13A15.91 15.91 0 0 0 296.1, 509.92A16 16 0 0 0 317.9, 503.92L381.9, 391.92A16 16 0 0 0 375.89, 370.13zM32, 448A32 32 0 1 0 64, 480A32 32 0 0 0 32, 448zM224, 448A32 32 0 1 0 256, 480A32 32 0 0 0 224, 448zM416, 448A32 32 0 1 0 448, 480A32 32 0 0 0 416, 448z" fill="#727272" opacity="0.4" fill-opacity="1" class="Black" />
    <path d="M512, 224A96 96 0 0 1 416, 320L96, 320A96 96 0 0 1 0, 224C0, 181.5 27.8, 145.8 66.1, 133.2A113.72 113.72 0 0 1 64, 112A111.94 111.94 0 0 1 176, 0C219.3, 0 256.4, 24.8 275, 60.8C289.7, 43.3 311.4, 32 336, 32A80 80 0 0 1 416, 112A78.09 78.09 0 0 1 414.4, 128.2C414.9, 128.2 415.4, 128 416, 128A96 96 0 0 1 512, 224z" fill="#727272" fill-opacity="1" class="Black" />
  </g>
</svg>