<?xml version='1.0' encoding='UTF-8'?>
<svg viewBox="-2 -4.7992 32 32" xmlns="http://www.w3.org/2000/svg">
  <g transform="matrix(0.9988, 0, 0, 0.9988, 0, 0)">
    <g transform="matrix(0.0438, 0, 0, 0.0438, 0, 0)">
      <defs>
        <style>.fa-secondary{opacity:.4}</style>
      </defs>
      <path d="M161.6, 288L96, 288A96 96 0 0 1 96, 96C96.6, 96 97.1, 96.2 97.6, 96.2C105.3, 41.9 151.6, 0 208, 0A111.61 111.61 0 0 1 312.5, 72.7A95.07 95.07 0 0 1 352, 64A96 96 0 0 1 448, 160A93 93 0 0 1 441, 194.7A110.5 110.5 0 0 0 409.4, 206.5A142.54 142.54 0 0 0 304, 160C230.1, 160 169.7, 216.2 161.6, 288z" fill="#727272" opacity="0.4" fill-opacity="1" class="Black" />
      <path d="M640, 416A96 96 0 0 1 544, 512L224, 512A96 96 0 0 1 128, 416C128, 373.5 155.8, 337.8 194.1, 325.2A113.72 113.72 0 0 1 192, 304A111.94 111.94 0 0 1 304, 192C347.2, 192 384.4, 216.9 403, 252.8C417.7, 235.3 439.4, 224 464, 224A80 80 0 0 1 544, 304A78.09 78.09 0 0 1 542.4, 320.2C542.9, 320.2 543.4, 320 544, 320A96 96 0 0 1 640, 416z" fill="#727272" fill-opacity="1" class="Black" />
    </g>
  </g>
</svg>