<?xml version='1.0' encoding='UTF-8'?>
<svg viewBox="-2.0098 -4.8021 32 31.9975" xmlns="http://www.w3.org/2000/svg">
  <g transform="matrix(1.0008, 0, 0, 1.0008, 0, 0)">
    <g transform="matrix(0.0437, 0, 0, 0.0437, 0, 0)">
      <defs>
        <style>.fa-secondary{opacity:.4}</style>
      </defs>
      <path d="M537.59, 226.59A96 96 0 0 0 394.69, 112.2A160 160 0 0 0 96, 192C96, 194.7 96.09, 197.41 96.19, 200.09A144 144 0 0 0 144, 480L512, 480A128 128 0 0 0 537.59, 226.59zM384, 352C384, 369.67 362.5, 384 336, 384C309.5, 384 288, 369.67 288, 352C288, 334.33 309.5, 320 336, 320A69.82 69.82 0 0 1 352, 322L352, 245.64L256, 283.16L256, 384C256, 401.67 234.5, 416 208, 416C181.5, 416 160, 401.67 160, 384C160, 366.33 181.5, 352 208, 352A69.82 69.82 0 0 1 224, 354L224, 239.25A16 16 0 0 1 235.19, 224L363.19, 176.75A16 16 0 0 1 384, 192z" fill="#727272" opacity="0.4" fill-opacity="1" class="Black" />
      <path d="M208, 352A69.82 69.82 0 0 1 224, 354L224, 239.25A16 16 0 0 1 235.19, 224L363.19, 176.75A16 16 0 0 1 384, 192L384, 352C384, 369.67 362.5, 384 336, 384C309.5, 384 288, 369.67 288, 352C288, 334.33 309.5, 320 336, 320A69.82 69.82 0 0 1 352, 322L352, 245.64L256, 283.16L256, 384C256, 401.67 234.5, 416 208, 416C181.5, 416 160, 401.67 160, 384C160, 366.33 181.5, 352 208, 352z" fill="#727272" fill-opacity="1" class="Black" />
    </g>
  </g>
</svg>