<?xml version='1.0' encoding='UTF-8'?>
<svg viewBox="-2 -2 32 32" xmlns="http://www.w3.org/2000/svg">
  <g transform="matrix(0.0547, 0, 0, 0.0547, 0, 0)">
    <defs>
      <style>.fa-secondary{opacity:.4}</style>
    </defs>
    <path d="M88, 374.22C75.2, 418.62 48, 430.61 48, 461.91C48, 489.6 69.5, 512 96, 512C122.5, 512 144, 489.6 144, 461.91C144, 430.51 116.8, 418.82 104, 374.22A8.26 8.26 0 0 0 88, 374.22zM248, 374.22C235.2, 418.62 208, 430.61 208, 461.91C208, 489.6 229.5, 512 256, 512C282.5, 512 304, 489.6 304, 461.91C304, 430.51 276.8, 418.82 264, 374.22A8.26 8.26 0 0 0 248, 374.22zM424, 374.22A8.26 8.26 0 0 0 408, 374.22C395.2, 418.62 368, 430.61 368, 461.91C368, 489.6 389.5, 512 416, 512C442.5, 512 464, 489.6 464, 461.91C464, 430.51 436.8, 418.82 424, 374.22z" fill="#727272" opacity="0.4" fill-opacity="1" class="Black" />
    <path d="M512, 224A96 96 0 0 1 416, 320L96, 320A96 96 0 0 1 0, 224C0, 181.5 27.8, 145.8 66.1, 133.2A113.72 113.72 0 0 1 64, 112A111.94 111.94 0 0 1 176, 0C219.3, 0 256.4, 24.8 275, 60.8C289.7, 43.3 311.4, 32 336, 32A80 80 0 0 1 416, 112A78.09 78.09 0 0 1 414.4, 128.2C414.9, 128.2 415.4, 128 416, 128A96 96 0 0 1 512, 224z" fill="#727272" fill-opacity="1" class="Black" />
  </g>
</svg>