<?xml version='1.0' encoding='UTF-8'?>
<svg viewBox="-2.0075 -4.8025 32 32" xmlns="http://www.w3.org/2000/svg">
  <g transform="matrix(1.0009, 0, 0, 1.0009, 0, 0)">
    <g transform="matrix(0.0437, 0, 0, 0.0437, 0, 0)">
      <defs>
        <style>.fa-secondary{opacity:.4}</style>
      </defs>
      <path d="M537.6, 226.6A96.11 96.11 0 0 0 448, 96A95.51 95.51 0 0 0 394.7, 112.2A160 160 0 0 0 96, 192C96, 194.7 96.1, 197.4 96.2, 200.1A144 144 0 0 0 144, 480L512, 480A128 128 0 0 0 537.6, 226.6zM397.7, 290.3L386.9, 301.1A24.09 24.09 0 0 1 352.4, 300.6L320, 266.1L320, 392A23.94 23.94 0 0 1 296, 416L280, 416A23.94 23.94 0 0 1 256, 392L256, 266.1L223.6, 300.6A24 24 0 0 1 189.1, 301.1L178.3, 290.3A23.9 23.9 0 0 1 178.3, 256.4L271, 163.7A23.9 23.9 0 0 1 304.9, 163.7L397.6, 256.4A24 24 0 0 1 397.7, 290.3z" fill="#727272" opacity="0.4" fill-opacity="1" class="Black" />
      <path d="M397.7, 290.3L386.9, 301.1A24.09 24.09 0 0 1 352.4, 300.6L320, 266.1L320, 392A23.94 23.94 0 0 1 296, 416L280, 416A23.94 23.94 0 0 1 256, 392L256, 266.1L223.6, 300.6A24 24 0 0 1 189.1, 301.1L178.3, 290.3A23.9 23.9 0 0 1 178.3, 256.4L271, 163.7A23.9 23.9 0 0 1 304.9, 163.7L397.6, 256.4A24 24 0 0 1 397.7, 290.3z" fill="#727272" fill-opacity="1" class="Black" />
    </g>
  </g>
</svg>