<?xml version='1.0' encoding='UTF-8'?>
<svg viewBox="-2 -4.7992 32 32" xmlns="http://www.w3.org/2000/svg">
  <g transform="matrix(0.9988, 0, 0, 0.9988, 0, 0)">
    <g transform="matrix(0.0438, 0, 0, 0.0438, 0, 0)">
      <defs>
        <style>.fa-secondary{opacity:.4}</style>
      </defs>
      <path d="M366.8, 61.89L279, 91.18L237.5, 8.4A15.13 15.13 0 0 0 210.4, 8.4L169, 91.18L81.1, 61.89A15.23 15.23 0 0 0 61.9, 81.08L91.2, 168.87L8.4, 210.36A15.12 15.12 0 0 0 8.4, 237.45L91.2, 278.85L61.9, 366.63A15.16 15.16 0 0 0 81.1, 385.82L157.2, 360.53A129 129 0 0 1 180.8, 327A110.27 110.27 0 0 1 144.8, 303A112 112 0 1 1 325.5, 177.47A143.5 143.5 0 0 1 356.2, 169.97L386, 81.08A15.16 15.16 0 0 0 366.8, 61.89zM224, 140A83.85 83.85 0 0 0 207.9, 306.17A128.29 128.29 0 0 1 233.1, 294.47A144.12 144.12 0 0 1 300.5, 189.47A84.15 84.15 0 0 0 224, 140z" fill="#727272" opacity="0.4" fill-opacity="1" class="Black" />
      <path d="M575.2, 325.64C612.8, 338.64 640, 373.93 640, 416.02A96 96 0 0 1 544, 512.02L272, 512.02A96 96 0 0 1 176, 416.02C176, 365.43 215.3, 324.44 264.9, 320.74C264.7, 317.84 264, 315.04 264, 312.04A112 112 0 0 1 376, 200.04C421.4, 200.04 460.3, 227.24 477.9, 266.04A63.81 63.81 0 0 1 576, 320A53.91 53.91 0 0 1 575.2, 325.6z" fill="#727272" fill-opacity="1" class="Black" />
    </g>
  </g>
</svg>