<?xml version='1.0' encoding='UTF-8'?>
<svg viewBox="-1.9998 -3.5563 31.9975 32" xmlns="http://www.w3.org/2000/svg">
  <g transform="matrix(0.0486, 0, 0, 0.0486, 0, 0)">
    <defs>
      <style>.fa-secondary{opacity:.4}</style>
    </defs>
    <path d="M574, 313.47A191.54 191.54 0 0 1 436.9, 384A110.41 110.41 0 0 0 383.4, 331.3A94.83 94.83 0 0 0 384, 320.58C384, 267.58 340.9, 224.41 288, 224.41A95.1 95.1 0 0 0 251.6, 231.62A124.78 124.78 0 0 0 234.9, 217.4A188.15 188.15 0 0 1 233.1, 192.35C233.1, 86.06 319.1, 0 425, 0A197.47 197.47 0 0 1 460.1, 3.21C468.3, 4.81 470.2, 15.83 462.9, 19.94A150.63 150.63 0 0 0 386.8, 150.94C386.8, 245.11 472.2, 316.64 565.3, 298.94A9 9 0 0 1 574, 313.47z" fill="#727272" opacity="0.4" fill-opacity="1" class="Black" />
    <path d="M416, 432A80 80 0 0 1 336, 512L96, 512A96 96 0 0 1 0, 416C0, 374.1 27.1, 338.8 64.6, 325.7C64.5, 323.8 64, 322 64, 320A96 96 0 0 1 160, 224C196.2, 224 227.4, 244.3 243.7, 273.9A63.83 63.83 0 0 1 342.8, 352.7C383.7, 356.2 416, 390.1 416, 432z" fill="#727272" fill-opacity="1" class="Black" />
  </g>
</svg>