<?xml version='1.0' encoding='UTF-8'?>
<svg viewBox="-2 -2 32 32" xmlns="http://www.w3.org/2000/svg">
  <g transform="matrix(0.0547, 0, 0, 0.0547, 0, 0)">
    <defs>
      <style>.fa-secondary{opacity:.4}</style>
    </defs>
    <path d="M48, 352A48 48 0 1 0 96, 400A48 48 0 0 0 48, 352zM464, 352A48 48 0 1 0 512, 400A48 48 0 0 0 464, 352zM345, 363.1C349.6, 348.6 346.6, 332.3 335.2, 320.8C323.8, 309.3 307.4, 306.4 292.9, 310.9C285.9, 297.4 272.2, 287.9 256, 287.9C239.8, 287.9 226.1, 297.4 219.1, 310.9C204.6, 306.3 188.3, 309.3 176.8, 320.8C165.3, 332.3 162.4, 348.6 166.9, 363.1C153.4, 370.1 143.9, 383.8 143.9, 400C143.9, 416.2 153.4, 429.9 166.9, 436.9C162.3, 451.4 165.3, 467.7 176.8, 479.2A41.79 41.79 0 0 0 206.5, 491.5A39.21 39.21 0 0 0 219.1, 489C226.1, 502.5 239.8, 512 256, 512C272.2, 512 285.9, 502.5 292.9, 489C297, 490.3 301.2, 491.5 305.5, 491.5A41.79 41.79 0 0 0 335.2, 479.2C346.7, 467.7 349.6, 451.4 345, 436.9C358.5, 429.9 368, 416.2 368, 400C368, 383.8 358.5, 370.1 345, 363.1z" fill="#727272" opacity="0.4" fill-opacity="1" class="Black" />
    <path d="M416, 320L372.6, 320A70.78 70.78 0 0 0 357.8, 298.2A72.44 72.44 0 0 0 307, 276.9A72.67 72.67 0 0 0 205, 276.9A71.9 71.9 0 0 0 139.4, 320L96, 320A96 96 0 0 1 0, 224C0, 181.5 27.8, 145.8 66.1, 133.2A113.72 113.72 0 0 1 64, 112A111.94 111.94 0 0 1 176, 0C219.3, 0 256.4, 24.8 275, 60.8C289.7, 43.3 311.4, 32 336, 32A80 80 0 0 1 416, 112A78.09 78.09 0 0 1 414.4, 128.2C414.9, 128.2 415.4, 128 416, 128A96 96 0 0 1 416, 320z" fill="#727272" fill-opacity="1" class="Black" />
  </g>
</svg>