<?xml version='1.0' encoding='UTF-8'?>
<svg viewBox="-2.0035 -1.9999 32 31.9975" xmlns="http://www.w3.org/2000/svg">
  <g transform="matrix(0.0547, 0, 0, 0.0547, 0, 0)">
    <defs>
      <style>.fa-secondary{opacity:.4}</style>
    </defs>
    <path d="M87.2, 353.7A16.12 16.12 0 0 0 65.7, 360.9L1.7, 488.9A16 16 0 0 0 8.9, 510.4A16.88 16.88 0 0 0 16.1, 512.1A16 16 0 0 0 30.4, 503.3L94.4, 375.3A16.23 16.23 0 0 0 87.2, 353.7zM343.2, 353.7A16.12 16.12 0 0 0 321.7, 360.9L257.7, 488.9A16 16 0 0 0 264.9, 510.4A16.88 16.88 0 0 0 272.1, 512.1A16 16 0 0 0 286.4, 503.3L350.4, 375.3A16.23 16.23 0 0 0 343.2, 353.7zM492, 432L464.1, 416L492, 400A8 8 0 0 0 494.9, 389.1L486.9, 375.2A8 8 0 0 0 476, 372.3L448, 388.4L448, 360A8 8 0 0 0 440, 352L424, 352A8 8 0 0 0 416, 360L416, 388.4L388, 372.3A8 8 0 0 0 377.1, 375.2L369.1, 389.1A8 8 0 0 0 372, 400L399.9, 416L372, 432A8 8 0 0 0 369.1, 442.9L377.1, 456.8A8 8 0 0 0 388, 459.7L416, 443.6L416, 472A8 8 0 0 0 424, 480L440, 480A8 8 0 0 0 448, 472L448, 443.6L476, 459.7A8 8 0 0 0 486.9, 456.8L494.9, 442.9A8 8 0 0 0 492, 432zM238.9, 389.1L230.9, 375.2A8 8 0 0 0 220, 372.3L192, 388.4L192, 360A8 8 0 0 0 184, 352L168, 352A8 8 0 0 0 160, 360L160, 388.4L132, 372.3A8 8 0 0 0 121.1, 375.2L113.1, 389.1A8 8 0 0 0 116, 400L143.9, 416L116, 432A8 8 0 0 0 113.1, 442.9L121.1, 456.8A8 8 0 0 0 132, 459.7L160, 443.6L160, 472A8 8 0 0 0 168, 480L184, 480A8 8 0 0 0 192, 472L192, 443.6L220, 459.7A8 8 0 0 0 230.9, 456.8L238.9, 442.9A8 8 0 0 0 236, 432L208.1, 416L236, 400A8 8 0 0 0 238.9, 389.1z" fill="#727272" opacity="0.4" fill-opacity="1" class="Black" />
    <path d="M416, 320L96, 320A96 96 0 0 1 0, 224C0, 181.5 27.8, 145.8 66.1, 133.2A113.72 113.72 0 0 1 64, 112A111.94 111.94 0 0 1 176, 0C219.3, 0 256.4, 24.8 275, 60.8C289.7, 43.3 311.4, 32 336, 32A80 80 0 0 1 416, 112A78.09 78.09 0 0 1 414.4, 128.2C414.9, 128.2 415.4, 128 416, 128A96 96 0 0 1 416, 320z" fill="#727272" fill-opacity="1" class="Black" />
  </g>
</svg>