<?xml version='1.0' encoding='UTF-8'?>
<svg viewBox="-1.9999 -2.0011 32 32" xmlns="http://www.w3.org/2000/svg">
  <g transform="matrix(0.0547, 0, 0, 0.0547, 0, 0)">
    <defs>
      <style>.fa-secondary{opacity:.4}</style>
    </defs>
    <path d="M183.9, 370.1A15.88 15.88 0 0 0 162.1, 376.1L98.1, 488.1A15.92 15.92 0 0 0 104.1, 509.9A16 16 0 0 0 125.9, 503.9L189.9, 391.9A16 16 0 0 0 183.9, 370.1zM279.9, 370.1A15.88 15.88 0 0 0 258.1, 376.1L194.1, 488.1A15.92 15.92 0 0 0 200.1, 509.9A16 16 0 0 0 221.9, 503.9L285.9, 391.9A16 16 0 0 0 279.9, 370.1zM87.9, 370.1A15.88 15.88 0 0 0 66.1, 376.1L2.1, 488.1A15.92 15.92 0 0 0 8.1, 509.9A16 16 0 0 0 29.9, 503.9L93.9, 391.9A16 16 0 0 0 87.91, 370.1zM471.9, 370.1A15.88 15.88 0 0 0 450.1, 376.1L386.1, 488.1A15.92 15.92 0 0 0 392.1, 509.9A16 16 0 0 0 413.9, 503.9L477.9, 391.9A16 16 0 0 0 471.89, 370.1zM375.9, 370.1A15.88 15.88 0 0 0 354.1, 376.1L290.1, 488.1A15.92 15.92 0 0 0 296.1, 509.9A16 16 0 0 0 317.9, 503.9L381.9, 391.9A16 16 0 0 0 375.89, 370.1z" fill="#727272" opacity="0.4" fill-opacity="1" class="Black" />
    <path d="M512, 224A96 96 0 0 1 416, 320L96, 320A96 96 0 0 1 0, 224C0, 181.5 27.8, 145.8 66.1, 133.2A113.72 113.72 0 0 1 64, 112A112 112 0 0 1 176, 0C219.3, 0 256.4, 24.8 275, 60.8C289.7, 43.3 311.4, 32 336, 32A80 80 0 0 1 416, 112A78.09 78.09 0 0 1 414.4, 128.2C414.9, 128.2 415.4, 128 416, 128A96 96 0 0 1 512, 224z" fill="#727272" fill-opacity="1" class="Black" />
  </g>
</svg>