<?xml version='1.0' encoding='UTF-8'?>
<svg viewBox="-2 -2 32 32" xmlns="http://www.w3.org/2000/svg">
  <g transform="matrix(0.0547, 0, 0, 0.0547, 0, 0)">
    <defs>
      <style>.fa-secondary{opacity:.4}</style>
    </defs>
    <path d="M126.9, 389.1L118.9, 375.2A8 8 0 0 0 108, 372.3L80, 388.4L80, 360A8 8 0 0 0 72, 352L56, 352A8 8 0 0 0 48, 360L48, 388.4L20, 372.3A8 8 0 0 0 9.1, 375.2L1.1, 389.1A8 8 0 0 0 4, 400L31.9, 416L4, 432A8 8 0 0 0 1.1, 442.9L9.1, 456.8A8 8 0 0 0 20, 459.7L48, 443.6L48, 472A8 8 0 0 0 56, 480L72, 480A8 8 0 0 0 80, 472L80, 443.6L108, 459.7A8 8 0 0 0 118.9, 456.8L126.9, 442.9A8 8 0 0 0 124, 432L96.1, 416L124, 400A8 8 0 0 0 126.9, 389.1zM318.9, 421.1L310.9, 407.2A8 8 0 0 0 300, 404.3L272, 420.4L272, 392A8 8 0 0 0 264, 384L248, 384A8 8 0 0 0 240, 392L240, 420.4L212, 404.3A8 8 0 0 0 201.1, 407.2L193.1, 421.1A8 8 0 0 0 196, 432L223.9, 448L196, 464A8 8 0 0 0 193.1, 474.9L201.1, 488.8A8 8 0 0 0 212, 491.7L240, 475.6L240, 504A8 8 0 0 0 248, 512L264, 512A8 8 0 0 0 272, 504L272, 475.6L300, 491.7A8 8 0 0 0 310.9, 488.8L318.9, 474.9A8 8 0 0 0 316, 464L288.1, 448L316, 432A8 8 0 0 0 318.9, 421.1zM508, 432L480.1, 416L508, 400A8 8 0 0 0 510.9, 389.1L502.9, 375.2A8 8 0 0 0 492, 372.3L464, 388.4L464, 360A8 8 0 0 0 456, 352L440, 352A8 8 0 0 0 432, 360L432, 388.4L404, 372.3A8 8 0 0 0 393.1, 375.2L385.1, 389.1A8 8 0 0 0 388, 400L415.9, 416L388, 432A8 8 0 0 0 385.1, 442.9L393.1, 456.8A8 8 0 0 0 404, 459.7L432, 443.6L432, 472A8 8 0 0 0 440, 480L456, 480A8 8 0 0 0 464, 472L464, 443.6L492, 459.7A8 8 0 0 0 502.9, 456.8L510.9, 442.9A8 8 0 0 0 508, 432z" fill="#727272" opacity="0.4" fill-opacity="1" class="Black" />
    <path d="M0, 224C0, 181.5 27.8, 145.8 66.1, 133.2A113.72 113.72 0 0 1 64, 112A111.94 111.94 0 0 1 176, 0C219.3, 0 256.4, 24.8 275, 60.8C289.7, 43.3 311.4, 32 336, 32A80 80 0 0 1 416, 112A78.09 78.09 0 0 1 414.4, 128.2C414.9, 128.2 415.4, 128 416, 128A96 96 0 0 1 416, 320L96, 320A96 96 0 0 1 0, 224z" fill="#727272" fill-opacity="1" class="Black" />
  </g>
</svg>