<?xml version='1.0' encoding='UTF-8'?>
<svg viewBox="-2 -3.5576 31.9975 32" xmlns="http://www.w3.org/2000/svg">
  <g transform="matrix(0.0486, 0, 0, 0.0486, 0, 0)">
    <defs>
      <style>.fa-secondary{opacity:.4}</style>
    </defs>
    <path d="M322, 96.2L330.9, 69.5A13 13 0 0 0 314.4, 53.1L239.1, 78.2L203.6, 7.2A13 13 0 0 0 180.3, 7.2L144.8, 78.2L69.5, 53.1A13 13 0 0 0 53.1, 69.6L78.2, 144.9L7.2, 180.4A13 13 0 0 0 7.2, 203.7L78.2, 239.2L53.1, 314.5A13.06 13.06 0 0 0 69.6, 331L128.8, 311.3C128.6, 308.9 128.1, 306.6 128.1, 304.1A110.52 110.52 0 0 1 134.3, 268.2A92.22 92.22 0 0 1 124.1, 259.9A96.21 96.21 0 0 1 124.1, 124.1C158.7, 89.5 213.2, 87.3 250.8, 116.7A127.12 127.12 0 0 1 320, 96C320.7, 96 321.3, 96.2 322, 96.2zM225.8, 137.9A63.13 63.13 0 0 0 192, 128A64.06 64.06 0 0 0 128, 192A63.4 63.4 0 0 0 149.1, 239.1A112.14 112.14 0 0 1 193.9, 201.9A127.52 127.52 0 0 1 225.8, 137.9zM524.5, 418.1A16 16 0 0 0 502.7, 424.1L466.1, 488.1A15.94 15.94 0 0 0 472.1, 509.9A16 16 0 0 0 493.9, 503.9L530.5, 439.9A16 16 0 0 0 524.5, 418.1zM428.5, 418.1A16 16 0 0 0 406.7, 424.1L370.1, 488.1A15.94 15.94 0 0 0 376.1, 509.9A16 16 0 0 0 397.9, 503.9L434.5, 439.9A16 16 0 0 0 428.5, 418.1zM332.5, 418.1A16 16 0 0 0 310.7, 424.1L274.1, 488.1A15.94 15.94 0 0 0 280.1, 509.9A16 16 0 0 0 301.9, 503.9L338.5, 439.9A16 16 0 0 0 332.5, 418.1zM236.5, 418.1A16 16 0 0 0 214.7, 424.1L178.1, 488.1A15.94 15.94 0 0 0 184.1, 509.9A16 16 0 0 0 205.9, 503.9L242.5, 439.9A16 16 0 0 0 236.5, 418.1z" fill="#727272" opacity="0.4" fill-opacity="1" class="Black" />
    <path d="M576, 304A80 80 0 0 1 496, 384L240, 384A80 80 0 0 1 224.2, 225.6C224.2, 225.1 224, 224.5 224, 224A95.82 95.82 0 0 1 397.7, 168A79 79 0 0 1 432, 160A80 80 0 0 1 510.5, 225.5A79.79 79.79 0 0 1 576, 304z" fill="#727272" fill-opacity="1" class="Black" />
  </g>
</svg>