<?xml version='1.0' encoding='UTF-8'?>
<svg viewBox="-2 -2 32 32" xmlns="http://www.w3.org/2000/svg">
  <g transform="matrix(0.0547, 0, 0, 0.0547, 0, 0)">
    <defs>
      <style>.fa-secondary{opacity:.4}</style>
    </defs>
    <path d="M48, 368A16 16 0 0 0 32, 384L32, 464A16 16 0 0 0 64, 464L64, 384A16 16 0 0 0 48, 368zM144, 400A16 16 0 0 0 128, 416L128, 496A16 16 0 0 0 160, 496L160, 416A16 16 0 0 0 144, 400zM240, 368A16 16 0 0 0 224, 384L224, 464A16 16 0 0 0 256, 464L256, 384A16 16 0 0 0 240, 368zM336, 400A16 16 0 0 0 320, 416L320, 496A16 16 0 0 0 352, 496L352, 416A16 16 0 0 0 336, 400zM432, 368A16 16 0 0 0 416, 384L416, 464A16 16 0 0 0 448, 464L448, 384A16 16 0 0 0 432, 368z" fill="#727272" opacity="0.4" fill-opacity="1" class="Black" />
    <path d="M512, 224A96 96 0 0 1 416, 320L96, 320A96 96 0 0 1 0, 224C0, 181.5 27.8, 145.8 66.1, 133.2A113.72 113.72 0 0 1 64, 112A111.94 111.94 0 0 1 176, 0C219.3, 0 256.4, 24.8 275, 60.8C289.7, 43.3 311.4, 32 336, 32A80 80 0 0 1 416, 112A78.09 78.09 0 0 1 414.4, 128.2C414.9, 128.2 415.4, 128 416, 128A96 96 0 0 1 512, 224z" fill="#727272" fill-opacity="1" class="Black" />
  </g>
</svg>