<?xml version='1.0' encoding='UTF-8'?>
<svg viewBox="-2.0075 -4.8025 32 32" xmlns="http://www.w3.org/2000/svg">
  <g transform="matrix(1.0009, 0, 0, 1.0009, 0, 0)">
    <g transform="matrix(0.0437, 0, 0, 0.0437, 0, 0)">
      <defs>
        <style>.fa-secondary{opacity:.4}</style>
      </defs>
      <path d="M537.6, 226.6A96.11 96.11 0 0 0 448, 96A95.51 95.51 0 0 0 394.7, 112.2A160 160 0 0 0 96, 192C96, 194.7 96.1, 197.4 96.2, 200.1A144 144 0 0 0 144, 480L512, 480A128 128 0 0 0 537.6, 226.6zM404.7, 315.3L299.3, 420.7A16.06 16.06 0 0 1 276.7, 420.7L171.3, 315.3C161.2, 305.2 168.4, 288 182.6, 288L248, 288L248, 176A16 16 0 0 1 264, 160L312, 160A16 16 0 0 1 328, 176L328, 288L393.4, 288C407.6, 288 414.8, 305.2 404.7, 315.3z" fill="#727272" opacity="0.4" fill-opacity="1" class="Black" />
      <path d="M404.7, 315.3L299.3, 420.7A16.06 16.06 0 0 1 276.7, 420.7L171.3, 315.3C161.2, 305.2 168.4, 288 182.6, 288L248, 288L248, 176A16 16 0 0 1 264, 160L312, 160A16 16 0 0 1 328, 176L328, 288L393.4, 288C407.6, 288 414.8, 305.2 404.7, 315.3z" fill="#727272" fill-opacity="1" class="Black" />
    </g>
  </g>
</svg>