<?xml version='1.0' encoding='UTF-8'?>
<svg viewBox="-2.0136 -2.0274 32 32" xmlns="http://www.w3.org/2000/svg">
  <g transform="matrix(0.0546, 0, 0, 0.0546, 0, 0)">
    <defs>
      <style>.fa-secondary{opacity:.4}</style>
    </defs>
    <path d="M512, 292A124 124 0 0 1 388, 416C346.64, 416 310.45, 395.46 288, 364.31L288, 272A16 16 0 0 0 272, 256L240, 256A16 16 0 0 0 224, 272L224, 364.31C201.55, 395.46 165.36, 416 124, 416A124 124 0 0 1 124, 168C129.8, 168 135.36, 168.94 140.95, 169.71A124 124 0 1 1 371.05, 169.71C376.64, 168.94 382.2, 168 388, 168A124 124 0 0 1 512, 292z" fill="#727272" opacity="0.4" fill-opacity="1" class="Black" />
    <path d="M367.31, 486.59A32 32 0 0 1 336, 512L176, 512A32 32 0 0 1 163, 450.7C215.19, 427.5 223.91, 411.8 224, 375.09L224, 272A16 16 0 0 1 240, 256L272, 256A16 16 0 0 1 288, 272L288, 375.09C288.19, 412.59 297.41, 427.7 349, 450.7A32.09 32.09 0 0 1 367.31, 486.59z" fill="#727272" fill-opacity="1" class="Black" />
  </g>
</svg>