<?xml version='1.0' encoding='UTF-8'?>
<svg viewBox="-1.9973 -3.5747 31.995 32" xmlns="http://www.w3.org/2000/svg">
  <g transform="matrix(1.0007, 0, 0, 1.0007, 0, 0)">
    <g transform="matrix(0.0485, 0, 0, 0.0485, 0, 0)">
      <defs>
        <style>.fa-secondary{opacity:.4}</style>
      </defs>
      <path d="M208, 280.27L264.28, 224L151.72, 224zM432, 0C369.4, 0 316.66, 40.2 296.83, 96L349.36, 96C366, 67.45 396.63, 48 432, 48A96 96 0 0 1 432, 240A95 95 0 0 1 392.68, 231.36L357.42, 266.62A144 144 0 1 0 432, 0z" fill="#727272" opacity="0.4" fill-opacity="1" class="Black" />
      <path d="M408.75, 170.05C424.27, 154.53 413.28, 128 391.33, 128L24.69, 128C2.69, 128 -8.25, 154.53 7.27, 170.05L176, 338.78L176, 464L120, 464A40 40 0 0 0 80, 504A8 8 0 0 0 88, 512L328, 512A8 8 0 0 0 336, 504A40 40 0 0 0 296, 464L240, 464L240, 338.78zM208, 280.27L119.73, 192L296.28, 192z" fill="#727272" fill-opacity="1" class="Black" />
    </g>
  </g>
</svg>