<?xml version='1.0' encoding='UTF-8'?>
<svg viewBox="-5.5003 -2 32 32" xmlns="http://www.w3.org/2000/svg">
  <g transform="matrix(0.0547, 0, 0, 0.0547, 0, 0)">
    <defs>
      <style>.fa-secondary{opacity:.4}</style>
    </defs>
    <path d="M328, 220.33L328, 224C328, 256 321.31, 271.26 308, 287.8C279.8, 322.8 232, 327.3 189.8, 331.2C164.1, 333.6 139.9, 335.8 123.7, 344C119.88, 345.94 114.45, 350.44 110.26, 357.94A80.16 80.16 0 0 0 56, 355.67L56, 156.33A80.31 80.31 0 0 0 104, 156.33L104, 300.33C127.9, 288.83 157.1, 286.03 185.3, 283.43C221.2, 280.13 255.1, 276.93 270.5, 257.73C276.84, 249.9 280, 240.03 280, 224.03L280, 220.36A80.31 80.31 0 0 0 328, 220.36z" fill="#727272" opacity="0.4" fill-opacity="1" class="Black" />
    <path d="M80, 0A80 80 0 1 0 160, 80A80 80 0 0 0 80, 0zM80, 96A16 16 0 1 1 96, 80A16 16 0 0 1 80, 96zM80, 352A80 80 0 1 0 160, 432A80 80 0 0 0 80, 352zM80, 448A16 16 0 1 1 96, 432A16 16 0 0 1 80, 448zM304, 64A80 80 0 1 0 384, 144A80 80 0 0 0 304, 64zM304, 160A16 16 0 1 1 320, 144A16 16 0 0 1 304, 160z" fill="#727272" fill-opacity="1" class="Black" />
  </g>
</svg>