<?xml version='1.0' encoding='UTF-8'?>
<svg viewBox="-5.5003 -2 32 32" xmlns="http://www.w3.org/2000/svg">
  <g transform="matrix(0.0547, 0, 0, 0.0547, 0, 0)">
    <defs>
      <style>.fa-secondary{opacity:.4}</style>
    </defs>
    <path d="M227.06, 293.9A199.9 199.9 0 0 1 104, 225.83L104, 355.67A80.31 80.31 0 0 0 56, 355.67L56, 156.33A80.24 80.24 0 0 0 114.73, 152.09A152.51 152.51 0 0 0 228.51, 245.5A80 80 0 0 0 227.06, 293.9z" fill="#727272" opacity="0.4" fill-opacity="1" class="Black" />
    <path d="M80, 0A80 80 0 1 0 160, 80A80 80 0 0 0 80, 0zM80, 96A16 16 0 1 1 96, 80A16 16 0 0 1 80, 96zM80, 352A80 80 0 1 0 160, 432A80 80 0 0 0 80, 352zM80, 448A16 16 0 1 1 96, 432A16 16 0 0 1 80, 448zM304, 192A80 80 0 1 0 384, 272A80 80 0 0 0 304, 192zM304, 288A16 16 0 1 1 320, 272A16 16 0 0 1 304, 288z" fill="#727272" fill-opacity="1" class="Black" />
  </g>
</svg>