<?xml version='1.0' encoding='UTF-8'?>
<svg viewBox="-1.995 -4.7992 31.9975 32" xmlns="http://www.w3.org/2000/svg">
  <g transform="matrix(1.0011, 0, 0, 1.0011, 0, 0)">
    <g transform="matrix(0.0437, 0, 0, 0.0437, 0, 0)">
      <defs>
        <style>.fa-secondary{opacity:.4}</style>
      </defs>
      <path d="M559.76, 480L48.36, 480C0.76, 480 -12.64, 416 12.36, 416L595.66, 416C620.66, 416 607.46, 480 559.76, 480z" fill="#727272" opacity="0.4" fill-opacity="1" class="Black" />
      <path d="M512.06, 32L120.06, 32A23.94 23.94 0 0 0 96.06, 56L96.06, 288A96 96 0 0 0 192.06, 384L384.06, 384A96 96 0 0 0 480.06, 288L512.06, 288A128 128 0 0 0 512.06, 32zM512.06, 224L480.06, 224L480.06, 96L512.06, 96A64 64 0 0 1 512.06, 224z" fill="#727272" fill-opacity="1" class="Black" />
    </g>
  </g>
</svg>