<?xml version='1.0' encoding='UTF-8'?>
<svg viewBox="-1.9975 -4.7985 32 32" xmlns="http://www.w3.org/2000/svg">
  <g transform="matrix(1.0013, 0, 0, 1.0013, 0, 0)">
    <g transform="matrix(0.0437, 0, 0, 0.0437, 0, 0)">
      <defs>
        <style>.fa-secondary{opacity:.4}</style>
      </defs>
      <path d="M150.21, 84.35C195.39, 51.79 254.84, 32 320, 32C461.4, 32 576, 125.1 576, 240C576, 289.23 555, 334.46 519.77, 370.08zM64, 240C64, 289.6 85.4, 335 121, 370.7C108.4, 421 66.7, 465.9 66.2, 466.5A8 8 0 0 0 72, 480C138.3, 480 188, 448.2 212.6, 428.6A305 305 0 0 0 320, 448A312.39 312.39 0 0 0 398.4, 438L72.87, 186.37A171.62 171.62 0 0 0 64, 240z" fill="#727272" opacity="0.4" fill-opacity="1" class="Black" />
      <path d="M636.67, 480.52L617.07, 505.83A16.06 16.06 0 0 1 594.57, 508.63L6.17, 53.79A15.94 15.94 0 0 1 3.37, 31.38L23, 6.17A16.06 16.06 0 0 1 45.5, 3.37L633.8, 458.21A15.86 15.86 0 0 1 636.67, 480.52z" fill="#727272" fill-opacity="1" class="Black" />
    </g>
  </g>
</svg>