<?xml version='1.0' encoding='UTF-8'?>
<svg viewBox="-2 -1.9988 32 32" xmlns="http://www.w3.org/2000/svg">
  <g transform="matrix(0.0547, 0, 0, 0.0547, 0, 0)">
    <defs>
      <style>.fa-secondary{opacity:.4}</style>
    </defs>
    <path d="M256, 32C114.6, 32 0, 125.1 0, 240C0, 289.6 21.4, 335 57, 370.7C44.5, 421.1 2.7, 466 2.2, 466.5A8 8 0 0 0 0.7, 475.2A7.83 7.83 0 0 0 8, 480C74.3, 480 124, 448.2 148.6, 428.6A305 305 0 0 0 256, 448C397.4, 448 512, 354.9 512, 240C512, 125.1 397.4, 32 256, 32zM340.9, 313.5L329.6, 324.8A16.06 16.06 0 0 1 307, 324.8L256, 273.9L205.1, 324.8A16.06 16.06 0 0 1 182.5, 324.8L171.2, 313.5A16.06 16.06 0 0 1 171.2, 290.9L222.1, 240L171.2, 189.1A16.06 16.06 0 0 1 171.2, 166.5L182.5, 155.2A16.06 16.06 0 0 1 205.1, 155.2L256, 206.1L306.9, 155.2A16.06 16.06 0 0 1 329.5, 155.2L340.8, 166.5A16.06 16.06 0 0 1 340.8, 189.1L289.9, 240L340.9, 290.9A16.06 16.06 0 0 1 340.9, 313.5z" fill="#727272" opacity="0.4" fill-opacity="1" class="Black" />
    <path d="M340.9, 313.5L329.6, 324.8A16.06 16.06 0 0 1 307, 324.8L256, 273.9L205.1, 324.8A16.06 16.06 0 0 1 182.5, 324.8L171.2, 313.5A16.06 16.06 0 0 1 171.2, 290.9L222.1, 240L171.2, 189.1A16.06 16.06 0 0 1 171.2, 166.5L182.5, 155.2A16.06 16.06 0 0 1 205.1, 155.2L256, 206.1L306.9, 155.2A16.06 16.06 0 0 1 329.5, 155.2L340.8, 166.5A16.06 16.06 0 0 1 340.8, 189.1L289.9, 240L340.9, 290.9A16.06 16.06 0 0 1 340.9, 313.5z" fill="#727272" fill-opacity="1" class="Black" />
  </g>
</svg>