<?xml version='1.0' encoding='UTF-8'?>
<svg viewBox="-2 -1.9988 32 32" xmlns="http://www.w3.org/2000/svg">
  <g transform="matrix(0.0547, 0, 0, 0.0547, 0, 0)">
    <defs>
      <style>.fa-secondary{opacity:.4}</style>
    </defs>
    <path d="M256, 32C114.6, 32 0, 125.1 0, 240C0, 289.6 21.4, 335 57, 370.7C44.5, 421.1 2.7, 466 2.2, 466.5A8 8 0 0 0 0.7, 475.2A7.83 7.83 0 0 0 8, 480C74.3, 480 124, 448.2 148.6, 428.6A305 305 0 0 0 256, 448C397.4, 448 512, 354.9 512, 240C512, 125.1 397.4, 32 256, 32zM215.4, 342.6L167.2, 348A10.17 10.17 0 0 1 156, 336.8L161.4, 288.6L257.7, 192.3L311.7, 246.3zM366.1, 191.9L334.3, 223.7L280.3, 169.7L312.1, 137.9A20.22 20.22 0 0 1 340.7, 137.9L366.1, 163.3A20.22 20.22 0 0 1 366.1, 191.9z" fill="#727272" opacity="0.4" fill-opacity="1" class="Black" />
    <path d="M366.1, 163.3L340.7, 137.9A20.22 20.22 0 0 0 312.1, 137.9L280.3, 169.7L334.3, 223.7L366.1, 191.9A20.22 20.22 0 0 0 366.1, 163.3zM161.4, 288.6L156, 336.8A10.17 10.17 0 0 0 167.2, 348L215.4, 342.6L311.7, 246.3L257.7, 192.3z" fill="#727272" fill-opacity="1" class="Black" />
  </g>
</svg>