<?xml version='1.0' encoding='UTF-8'?>
<svg viewBox="-2.0011 -1.9998 32 31.9975" xmlns="http://www.w3.org/2000/svg">
  <g transform="matrix(0.0547, 0, 0, 0.0547, 0, 0)">
    <defs>
      <style>.fa-secondary{opacity:.4}</style>
    </defs>
    <path d="M448, 0L64, 0A64.05 64.05 0 0 0 0, 64L0, 352A64.06 64.06 0 0 0 64, 416L160, 416L160, 500A12 12 0 0 0 179.09, 509.7L304, 416L448, 416A64.06 64.06 0 0 0 512, 352L512, 64A64.05 64.05 0 0 0 448, 0zM352, 256C352, 273.68 330.5, 288 304, 288C277.5, 288 256, 273.68 256, 256C256, 238.32 277.5, 224 304, 224A69.27 69.27 0 0 1 320, 225.95L320, 149.63L224, 187.15L224, 288C224, 305.67 202.5, 320 176, 320C149.5, 320 128, 305.67 128, 288C128, 270.33 149.5, 256 176, 256A69.27 69.27 0 0 1 192, 258L192, 143.24A16 16 0 0 1 203.19, 128L331.19, 80.76A16 16 0 0 1 352, 96z" fill="#727272" opacity="0.4" fill-opacity="1" class="Black" />
    <path d="M176, 256A69.82 69.82 0 0 1 192, 258L192, 143.25A16 16 0 0 1 203.19, 128L331.19, 80.75A16 16 0 0 1 352, 96L352, 256C352, 273.67 330.5, 288 304, 288C277.5, 288 256, 273.67 256, 256C256, 238.33 277.5, 224 304, 224A69.82 69.82 0 0 1 320, 226L320, 149.64L224, 187.16L224, 288C224, 305.67 202.5, 320 176, 320C149.5, 320 128, 305.67 128, 288C128, 270.33 149.5, 256 176, 256z" fill="#727272" fill-opacity="1" class="Black" />
  </g>
</svg>