<?xml version='1.0' encoding='UTF-8'?>
<svg viewBox="-2 -1.9988 32 32" xmlns="http://www.w3.org/2000/svg">
  <g transform="matrix(0.0547, 0, 0, 0.0547, 0, 0)">
    <defs>
      <style>.fa-secondary{opacity:.4}</style>
    </defs>
    <path d="M256, 32C114.6, 32 0, 125.1 0, 240C0, 289.6 21.4, 335 57, 370.7C44.5, 421.1 2.7, 466 2.2, 466.5A8 8 0 0 0 0.7, 475.2A7.83 7.83 0 0 0 8, 480C74.3, 480 124, 448.2 148.6, 428.6A305 305 0 0 0 256, 448C397.4, 448 512, 354.9 512, 240C512, 125.1 397.4, 32 256, 32zM288, 296A8 8 0 0 1 280, 304L136, 304A8 8 0 0 1 128, 296L128, 280A8 8 0 0 1 136, 272L280, 272A8 8 0 0 1 288, 280zM384, 200A8 8 0 0 1 376, 208L136, 208A8 8 0 0 1 128, 200L128, 184A8 8 0 0 1 136, 176L376, 176A8 8 0 0 1 384, 184z" fill="#727272" opacity="0.4" fill-opacity="1" class="Black" />
    <path d="M376, 176L136, 176A8 8 0 0 0 128, 184L128, 200A8 8 0 0 0 136, 208L376, 208A8 8 0 0 0 384, 200L384, 184A8 8 0 0 0 376, 176zM280, 272L136, 272A8 8 0 0 0 128, 280L128, 296A8 8 0 0 0 136, 304L280, 304A8 8 0 0 0 288, 296L288, 280A8 8 0 0 0 280, 272z" fill="#727272" fill-opacity="1" class="Black" />
  </g>
</svg>