<?xml version='1.0' encoding='UTF-8'?>
<svg viewBox="-2 -1.9988 32 32" xmlns="http://www.w3.org/2000/svg">
  <g transform="matrix(0.0547, 0, 0, 0.0547, 0, 0)">
    <defs>
      <style>.fa-secondary{opacity:.4}</style>
    </defs>
    <path d="M256, 32C114.6, 32 0, 125.1 0, 240C0, 289.6 21.4, 335 57, 370.7C44.5, 421.1 2.7, 466 2.2, 466.5A8 8 0 0 0 0.7, 475.2A7.83 7.83 0 0 0 8, 480C74.3, 480 124, 448.2 148.6, 428.6A305 305 0 0 0 256, 448C397.4, 448 512, 354.9 512, 240C512, 125.1 397.4, 32 256, 32zM256, 368A32 32 0 1 1 288, 336A32 32 0 0 1 256, 368zM294.2, 129.6L281.4, 257.6A16 16 0 0 1 265.5, 272L246.5, 272A16 16 0 0 1 230.6, 257.6L217.8, 129.6A16.06 16.06 0 0 1 233.7, 112L278.3, 112A16 16 0 0 1 294.2, 129.6z" fill="#727272" opacity="0.4" fill-opacity="1" class="Black" />
    <path d="M256, 304A32 32 0 1 0 288, 336A32 32 0 0 0 256, 304zM278.3, 112L233.7, 112A16.06 16.06 0 0 0 217.8, 129.6L230.6, 257.6A16 16 0 0 0 246.5, 272L265.5, 272A16 16 0 0 0 281.4, 257.6L294.2, 129.6A16 16 0 0 0 278.3, 112z" fill="#727272" fill-opacity="1" class="Black" />
  </g>
</svg>