<?xml version='1.0' encoding='UTF-8'?>
<svg viewBox="-2 -3.554 32 32" xmlns="http://www.w3.org/2000/svg">
  <g transform="matrix(0.0486, 0, 0, 0.0486, 0, 0)">
    <defs>
      <style>.fa-secondary{opacity:.4}</style>
    </defs>
    <path d="M208, 352C167, 352 128.9, 342.7 96.7, 327C74.9, 339.7 44.6, 352 8, 352A7.83 7.83 0 0 1 0.7, 347.2A8 8 0 0 1 2.2, 338.5C2.5, 338.2 24.6, 314.2 38, 284C14.1, 257.9 0, 226.3 0, 192C0, 103.6 93.1, 32 208, 32C322.9, 32 416, 103.6 416, 192C416, 280.4 322.9, 352 208, 352z" fill="#727272" opacity="0.4" fill-opacity="1" class="Black" />
    <path d="M576, 320C576, 354.3 561.9, 386 538, 412C551.4, 442.3 573.5, 466.2 573.8, 466.5A8 8 0 0 1 575.3, 475.2A7.88 7.88 0 0 1 568, 480C531.4, 480 501.1, 467.7 479.3, 455C447.1, 470.8 409, 480 368, 480C281.8, 480 207.8, 439.6 176.3, 382.1A299.82 299.82 0 0 0 208, 384C340.3, 384 448, 297.9 448, 192A148.61 148.61 0 0 0 446.7, 171.9C522.5, 195.8 576, 253.1 576, 320z" fill="#727272" fill-opacity="1" class="Black" />
  </g>
</svg>