<?xml version='1.0' encoding='UTF-8'?>
<svg viewBox="-2.0011 -1.9998 32 31.9975" xmlns="http://www.w3.org/2000/svg">
  <g transform="matrix(0.0547, 0, 0, 0.0547, 0, 0)">
    <defs>
      <style>.fa-secondary{opacity:.4}</style>
    </defs>
    <path d="M448, 0L64, 0A64.06 64.06 0 0 0 0, 64L0, 352A64.06 64.06 0 0 0 64, 416L160, 416L160, 500A12 12 0 0 0 179.1, 509.7L304, 416L448, 416A64.06 64.06 0 0 0 512, 352L512, 64A64.06 64.06 0 0 0 448, 0zM370.1, 163.8L239.1, 293.8A11 11 0 0 1 223.5, 293.7L147.8, 217.4A11 11 0 0 1 147.9, 201.8L173.9, 176A11 11 0 0 1 189.5, 176.1L231.6, 218.6L328.8, 122.2A11 11 0 0 1 344.4, 122.3L370.2, 148.3A11 11 0 0 1 370.1, 163.8z" fill="#727272" opacity="0.4" fill-opacity="1" class="Black" />
    <path d="M370.1, 163.8L239.1, 293.8A11 11 0 0 1 223.5, 293.7L147.8, 217.4A11 11 0 0 1 147.9, 201.8L173.9, 176A11 11 0 0 1 189.5, 176.1L231.6, 218.6L328.8, 122.2A11 11 0 0 1 344.4, 122.3L370.2, 148.3A11 11 0 0 1 370.1, 163.8z" fill="#727272" fill-opacity="1" class="Black" />
  </g>
</svg>