<?xml version='1.0' encoding='UTF-8'?>
<svg viewBox="-2.0011 -1.9998 32 31.9975" xmlns="http://www.w3.org/2000/svg">
  <g transform="matrix(0.0547, 0, 0, 0.0547, 0, 0)">
    <defs>
      <style>.fa-secondary{opacity:.4}</style>
    </defs>
    <path d="M448, 0L64, 0A64.06 64.06 0 0 0 0, 64L0, 352A64.06 64.06 0 0 0 64, 416L160, 416L160, 500A12 12 0 0 0 179.1, 509.7L304, 416L448, 416A64.06 64.06 0 0 0 512, 352L512, 64A64.06 64.06 0 0 0 448, 0zM368, 216A16 16 0 0 1 352, 232L160, 232A16 16 0 0 1 144, 216L144, 200A16 16 0 0 1 160, 184L352, 184A16 16 0 0 1 368, 200z" fill="#727272" opacity="0.4" fill-opacity="1" class="Black" />
    <path d="M144, 200A16 16 0 0 1 160, 184L352, 184A16 16 0 0 1 368, 200L368, 216A16 16 0 0 1 352, 232L160, 232A16 16 0 0 1 144, 216z" fill="#727272" fill-opacity="1" class="Black" />
  </g>
</svg>