<?xml version='1.0' encoding='UTF-8'?>
<svg viewBox="-2.0013 -1.9975 32 31.9975" xmlns="http://www.w3.org/2000/svg">
  <g transform="matrix(0.0547, 0, 0, 0.0547, 0, 0)">
    <defs>
      <style>.fa-secondary{opacity:.4}</style>
    </defs>
    <path d="M507.25, 30.05L481.85, 4.65A16.06 16.06 0 0 0 459.25, 4.65L360, 104L328.9, 71C313.8, 55.9 288, 66.6 288, 88L288, 200A23.94 23.94 0 0 0 312, 224L424, 224C445.4, 224 456.1, 198.1 441, 183L408, 152L507.3, 52.7A16.06 16.06 0 0 0 507.25, 30.05zM200, 288L88, 288C66.6, 288 55.9, 313.8 71, 329L103.9, 360L4.7, 459.3A16.06 16.06 0 0 0 4.7, 481.9L30.1, 507.3A16.06 16.06 0 0 0 52.7, 507.3L152, 408L183.1, 441C198.2, 456.1 224, 445.4 224, 424L224, 312A23.94 23.94 0 0 0 200, 288z" fill="#727272" opacity="0.4" fill-opacity="1" class="Black" />
    <path d="M183, 71.05L152, 104L52.65, 4.65A16.06 16.06 0 0 0 30.05, 4.65L4.65, 30.05A16.06 16.06 0 0 0 4.65, 52.65L104, 152L71, 183.1C55.9, 198.2 66.6, 224 88, 224L200, 224A23.94 23.94 0 0 0 224, 200L224, 88C224, 66.65 198.05, 56 183, 71.05zM507.3, 459.35L408, 360L441, 328.9C456.1, 313.8 445.4, 288 424, 288L312, 288A23.94 23.94 0 0 0 288, 312L288, 424C288, 445.4 313.9, 456.1 329, 441L360, 408.1L459.3, 507.4A16.06 16.06 0 0 0 481.9, 507.4L507.3, 482A16.06 16.06 0 0 0 507.25, 459.35z" fill="#727272" fill-opacity="1" class="Black" />
  </g>
</svg>