<?xml version='1.0' encoding='UTF-8'?>
<svg viewBox="-1.9977 0.0025 32 32" xmlns="http://www.w3.org/2000/svg">
  <g transform="matrix(0.0625, 0, 0, 0.0625, 0, 0)">
    <defs>
      <style>.fa-secondary{opacity:.4}</style>
    </defs>
    <path d="M224, 280L224, 392C224, 413.38 198.2, 424.09 183.08, 409L152, 376L52.69, 475.31A16 16 0 0 1 30.06, 475.31L4.69, 449.94A16 16 0 0 1 4.69, 427.31L104, 328L71.08, 297C55.96, 281.88 66.67, 256 88.08, 256L200.08, 256A24 24 0 0 1 224, 280z" fill="#727272" opacity="0.4" fill-opacity="1" class="Black" />
    <path d="M443.31, 62.06A16 16 0 0 1 443.31, 84.69L344, 184L376.92, 215C392.04, 230.12 381.33, 256 359.92, 256L248, 256A24 24 0 0 1 224, 232L224, 120C224, 98.62 249.8, 87.91 264.92, 103L296, 136L395.31, 36.69A16 16 0 0 1 417.94, 36.69z" fill="#727272" fill-opacity="1" class="Black" />
  </g>
</svg>