<?xml version='1.0' encoding='UTF-8'?>
<svg viewBox="-2 -1.9988 32 32" xmlns="http://www.w3.org/2000/svg">
  <g transform="matrix(0.0547, 0, 0, 0.0547, 0, 0)">
    <defs>
      <style>.fa-secondary{opacity:.4}</style>
    </defs>
    <path d="M500, 160L416, 160L416, 76A12 12 0 0 0 404, 64L364, 64A12 12 0 0 0 352, 76L352, 200A23.94 23.94 0 0 0 376, 224L500, 224A12 12 0 0 0 512, 212L512, 172A12 12 0 0 0 500, 160zM136, 288L12, 288A12 12 0 0 0 0, 300L0, 340A12 12 0 0 0 12, 352L96, 352L96, 436A12 12 0 0 0 108, 448L148, 448A12 12 0 0 0 160, 436L160, 312A23.94 23.94 0 0 0 136, 288z" fill="#727272" opacity="0.4" fill-opacity="1" class="Black" />
    <path d="M500, 288L376, 288A23.94 23.94 0 0 0 352, 312L352, 436A12 12 0 0 0 364, 448L404, 448A12 12 0 0 0 416, 436L416, 352L500, 352A12 12 0 0 0 512, 340L512, 300A12 12 0 0 0 500, 288zM148, 64L108, 64A12 12 0 0 0 96, 76L96, 160L12, 160A12 12 0 0 0 0, 172L0, 212A12 12 0 0 0 12, 224L136, 224A23.94 23.94 0 0 0 160, 200L160, 76A12 12 0 0 0 148, 64z" fill="#727272" fill-opacity="1" class="Black" />
  </g>
</svg>