<?xml version='1.0' encoding='UTF-8'?>
<svg viewBox="-2 0 32 32" xmlns="http://www.w3.org/2000/svg">
  <g transform="matrix(0.0625, 0, 0, 0.0625, 0, 0)">
    <defs>
      <style>.fa-secondary{opacity:.4}</style>
    </defs>
    <path d="M436, 128L352, 128L352, 44A12 12 0 0 0 340, 32L300, 32A12 12 0 0 0 288, 44L288, 168A23.94 23.94 0 0 0 312, 192L436, 192A12 12 0 0 0 448, 180L448, 140A12 12 0 0 0 436, 128zM136, 320L12, 320A12 12 0 0 0 0, 332L0, 372A12 12 0 0 0 12, 384L96, 384L96, 468A12 12 0 0 0 108, 480L148, 480A12 12 0 0 0 160, 468L160, 344A23.94 23.94 0 0 0 136, 320z" fill="#727272" opacity="0.4" fill-opacity="1" class="Black" />
    <path d="M436, 320L312, 320A23.94 23.94 0 0 0 288, 344L288, 468A12 12 0 0 0 300, 480L340, 480A12 12 0 0 0 352, 468L352, 384L436, 384A12 12 0 0 0 448, 372L448, 332A12 12 0 0 0 436, 320zM148, 32L108, 32A12 12 0 0 0 96, 44L96, 128L12, 128A12 12 0 0 0 0, 140L0, 180A12 12 0 0 0 12, 192L136, 192A23.94 23.94 0 0 0 160, 168L160, 44A12 12 0 0 0 148, 32z" fill="#727272" fill-opacity="1" class="Black" />
  </g>
</svg>