<?xml version='1.0' encoding='UTF-8'?>
<svg viewBox="-2 -4.7992 32 32" xmlns="http://www.w3.org/2000/svg">
  <g transform="matrix(0.9988, 0, 0, 0.9988, 0, 0)">
    <g transform="matrix(0.0438, 0, 0, 0.0438, 0, 0)">
      <defs>
        <style>.fa-secondary{opacity:.4}</style>
      </defs>
      <path d="M64, 320L288, 320L288, 96L64, 96zM592, 32L368, 32A48 48 0 0 0 320, 80L320, 432A48 48 0 0 0 368, 480L592, 480A48 48 0 0 0 640, 432L640, 80A48 48 0 0 0 592, 32zM480, 96A32 32 0 1 1 448, 128A32 32 0 0 1 480, 96zM480, 416A96 96 0 1 1 576, 320A96 96 0 0 1 480, 416z" fill="#727272" opacity="0.4" fill-opacity="1" class="Black" />
      <path d="M288, 416L128, 416A32 32 0 0 0 128, 480L304.41, 480A79.24 79.24 0 0 1 288, 432zM0, 80L0, 336A48 48 0 0 0 48, 384L288, 384L288, 320L64, 320L64, 96L288, 96L288, 80A79.24 79.24 0 0 1 304.41, 32L48, 32A48 48 0 0 0 0, 80zM480, 160A32 32 0 1 0 448, 128A32 32 0 0 0 480, 160zM480, 224A96 96 0 1 0 576, 320A96 96 0 0 0 480, 224zM480, 368A48 48 0 1 1 528, 320A48 48 0 0 1 480, 368z" fill="#727272" fill-opacity="1" class="Black" />
    </g>
  </g>
</svg>