<?xml version='1.0' encoding='UTF-8'?>
<svg viewBox="-2.0036 -1.9973 32 31.995" xmlns="http://www.w3.org/2000/svg">
  <g transform="matrix(0.0547, 0, 0, 0.0547, 0, 0)">
    <defs>
      <style>.fa-secondary{opacity:.4}</style>
    </defs>
    <path d="M206.68, 111.08A39.13 39.13 0 0 1 252.1, 98.08A40.21 40.21 0 0 1 309.38, 65.13A39.86 39.86 0 0 1 370.51, 38.56A40.07 40.07 0 0 1 398, 11.7A39.12 39.12 0 0 1 436.41, 21.3A40.13 40.13 0 0 1 511.92, 42.1L511.92, 45.3A40.51 40.51 0 0 1 489.82, 79.83A40.33 40.33 0 0 1 498.82, 118.24A41.29 41.29 0 0 1 471.62, 145.43A39.49 39.49 0 0 1 474.5, 183.2A40.2 40.2 0 0 1 444.42, 206.25A39 39 0 0 1 442.83, 243.69A39.79 39.79 0 0 1 411.14, 263.54A39.15 39.15 0 0 1 406.35, 300.34A39.86 39.86 0 0 1 401.48, 305.65C350.25, 277.15 291.39, 268.16 235, 277.52A256.52 256.52 0 0 0 206.68, 111.08z" fill="#727272" opacity="0.4" fill-opacity="1" class="Black" />
    <path d="M423.85, 360C335.85, 283.48 202.36, 287.08 118.64, 370.79L50.76, 438.62L96, 483.88A96 96 0 0 0 231.76, 483.88L322.27, 393.37L419.93, 373.84C426.37, 372.55 428.79, 364.25 423.85, 360zM201, 284.85C216.42, 217.09 200.21, 143.59 152, 88.14C147.71, 83.2 139.42, 85.63 138.13, 92.05L118.59, 189.73L28.12, 280.24A96 96 0 0 0 28.12, 416.01L96, 348.12A254.29 254.29 0 0 1 201, 284.85z" fill="#727272" fill-opacity="1" class="Black" />
  </g>
</svg>