<?xml version='1.0' encoding='UTF-8'?>
<svg viewBox="-2 -4.7992 32 32" xmlns="http://www.w3.org/2000/svg">
  <g transform="matrix(1.0011, 0, 0, 1.0011, 0, 0)">
    <g transform="matrix(0.0437, 0, 0, 0.0437, 0, 0)">
      <defs>
        <style>.fa-secondary{opacity:.4}</style>
      </defs>
      <path d="M96, 160L64, 160A96 96 0 0 1 160, 64L480, 64A96 96 0 0 1 576, 160L544, 160A64.06 64.06 0 0 0 480, 224L480, 288L160, 288L160, 224A64.06 64.06 0 0 0 96, 160z" fill="#727272" opacity="0.4" fill-opacity="1" class="Black" />
      <path d="M640, 256A63.84 63.84 0 0 1 608, 311.1L608, 432A16 16 0 0 1 592, 448L528, 448A16 16 0 0 1 512, 432L512, 416L128, 416L128, 432A16 16 0 0 1 112, 448L48, 448A16 16 0 0 1 32, 432L32, 311.1A63.79 63.79 0 0 1 64, 192L96, 192A32 32 0 0 1 128, 224L128, 320L512, 320L512, 224A32 32 0 0 1 544, 192L576, 192A64.06 64.06 0 0 1 640, 256z" fill="#727272" fill-opacity="1" class="Black" />
    </g>
  </g>
</svg>