<?xml version='1.0' encoding='UTF-8'?>
<svg viewBox="-2 -4.798 32 32" xmlns="http://www.w3.org/2000/svg">
  <g transform="matrix(0.9988, 0, 0, 0.9988, 0, 0)">
    <g transform="matrix(0.0438, 0, 0, 0.0438, 0, 0)">
      <defs>
        <style>.fa-secondary{opacity:.4}</style>
      </defs>
      <path d="M97.37, 114.78A40.06 40.06 0 0 0 72, 152L72, 256A64 64 0 0 1 8, 320L0, 320L0, 288A63.61 63.61 0 0 1 24, 238.41L24, 152A88.1 88.1 0 0 1 112, 64L160, 64A64 64 0 0 0 97.37, 114.78zM333.73, 301.11A79.83 79.83 0 0 0 272, 272C222.71, 272 193.89, 312.73 192.1, 347.89C192.04, 349.25 192, 350.62 192, 352A109 109 0 0 0 224, 373.87L224, 399.55C224, 408.17 230.63, 415.55 239.23, 415.98A16 16 0 0 0 256, 400L256, 382.69C265.1, 383.81 268.81, 385.05 288, 382.69L288, 399.56C288, 408.18 294.63, 415.56 303.23, 415.99A16 16 0 0 0 320, 400L320, 373.82A108.92 108.92 0 0 0 352, 352A79.7 79.7 0 0 0 333.73, 301.11z" fill="#727272" opacity="0.4" fill-opacity="1" class="Black" />
      <path d="M634, 276.72L624, 262.91L624, 185.91A16 16 0 0 0 601, 171.52C590.11, 176.93 581.4, 185.14 574.53, 194.61L508.71, 103.71A96 96 0 0 0 431, 64L160, 64A64 64 0 0 0 96, 128L96, 432A16 16 0 0 0 112, 448L176, 448A16 16 0 0 0 192, 432L192, 352A80 80 0 0 1 352, 352L352, 432.79A16 16 0 0 0 368, 448L432, 448A16 16 0 0 0 448, 432L448, 256L480, 288L480, 329.48A64 64 0 0 0 490.71, 365L532, 427A47.24 47.24 0 0 0 617.66, 410L639.39, 301.4A31.56 31.56 0 0 0 634, 276.72zM377.23, 167.36L354.34, 190.12A116.65 116.65 0 0 1 272.08, 224L271.92, 224A116.66 116.66 0 0 1 189.66, 190.12L166.77, 167.36C151.05, 151.73 164.47, 128 189, 128L355, 128C379.53, 128 393, 151.73 377.23, 167.36zM576, 352A16 16 0 1 1 592, 336A16 16 0 0 1 576, 352z" fill="#727272" fill-opacity="1" class="Black" />
    </g>
  </g>
</svg>