<?xml version='1.0' encoding='UTF-8'?>
<svg viewBox="-2 -3.554 32 32" xmlns="http://www.w3.org/2000/svg">
  <g transform="matrix(0.0486, 0, 0, 0.0486, 0, 0)">
    <defs>
      <style>.fa-secondary{opacity:.4}</style>
    </defs>
    <path d="M0, 432A48 48 0 0 0 48, 480L528, 480A48 48 0 0 0 576, 432L576, 256L0, 256zM192, 364A12 12 0 0 1 204, 352L340, 352A12 12 0 0 1 352, 364L352, 404A12 12 0 0 1 340, 416L204, 416A12 12 0 0 1 192, 404zM64, 364A12 12 0 0 1 76, 352L148, 352A12 12 0 0 1 160, 364L160, 404A12 12 0 0 1 148, 416L76, 416A12 12 0 0 1 64, 404zM528, 32L48, 32A48 48 0 0 0 0, 80L0, 128L576, 128L576, 80A48 48 0 0 0 528, 32z" fill="#727272" opacity="0.4" fill-opacity="1" class="Black" />
    <path d="M576, 256L0, 256L0, 128L576, 128z" fill="#727272" fill-opacity="1" class="Black" />
  </g>
</svg>