<?xml version='1.0' encoding='UTF-8'?>
<svg viewBox="-1.995 -4.7973 32 32" xmlns="http://www.w3.org/2000/svg">
  <g transform="matrix(0.999, 0, 0, 0.999, 0, 0)">
    <g transform="matrix(0.0438, 0, 0, 0.0438, 0, 0)">
      <defs>
        <style>.fa-secondary{opacity:.4}</style>
      </defs>
      <path d="M421.48, 321.52L158, 506C149.1, 512.2 137.5, 513.9 127.6, 509.5A216.24 216.24 0 0 1 0.08, 327.42C-0.72, 316.62 4.88, 306.22 13.78, 300.02L277.28, 115.52L246.38, 290.62z" fill="#727272" opacity="0.4" fill-opacity="1" class="Black" />
      <path d="M496, 352A80 80 0 1 0 576, 432A80 80 0 0 0 496, 352zM635.7, 30.4L620.5, 10.2A24.14 24.14 0 0 0 587, 4.32L443, 104.82A32.07 32.07 0 0 1 398.4, 96.92L376.5, 65.62A16 16 0 0 0 354.2, 61.72L332.9, 76.62L302, 251.72L477.1, 282.62L498.4, 267.72A16 16 0 0 0 502.3, 245.42L477.8, 210.42A32.07 32.07 0 0 1 485.7, 165.82L629.8, 63.92A24.14 24.14 0 0 0 635.68, 30.42z" fill="#727272" fill-opacity="1" class="Black" />
    </g>
  </g>
</svg>