<?xml version='1.0' encoding='UTF-8'?>
<svg viewBox="-1.9974 -1.9999 31.9975 32" xmlns="http://www.w3.org/2000/svg">
  <g transform="matrix(0.0547, 0, 0, 0.0547, 0, 0)">
    <defs>
      <style>.fa-secondary{opacity:.4}</style>
    </defs>
    <path d="M13.15, 265.48A62.71 62.71 0 0 1 4.6, 261.91A215.11 215.11 0 0 0 44.2, 435.41A32 32 0 0 0 65.58, 447.74A32.43 32.43 0 0 0 69.64, 448A32 32 0 0 0 89.4, 441.17L211.72, 345.17C216.82, 341.17 219.83, 335.59 221.77, 329.57C221.56, 329.51 221.35, 329.57 221.15, 329.48zM447.71, 65.63A32 32 0 0 0 435.38, 44.2A214.91 214.91 0 0 0 261.17, 4.48C262.58, 7.41 264.47, 10 265.45, 13.18L329.45, 221.18C329.51, 221.38 329.45, 221.59 329.54, 221.8C335.54, 219.87 341.16, 216.8 345.15, 211.8L441.15, 89.48A32.06 32.06 0 0 0 447.71, 65.63z" fill="#727272" opacity="0.4" fill-opacity="1" class="Black" />
    <path d="M509.89, 180.66A215.77 215.77 0 0 0 465.7, 110L387.91, 209.1L474.71, 223.57A32 32 0 0 0 509.89, 180.66zM234.89, 22.59A32 32 0 0 0 196.52, 1A268.34 268.34 0 0 0 1, 196.55A32 32 0 0 0 22.56, 234.9L230.56, 298.9A32 32 0 0 0 262.56, 290.9L290.88, 262.59A32 32 0 0 0 298.88, 230.59zM209.09, 387.94L110, 465.73A215.37 215.37 0 0 0 180.67, 509.92A32 32 0 0 0 223.58, 474.74z" fill="#727272" fill-opacity="1" class="Black" />
  </g>
</svg>