<?xml version='1.0' encoding='UTF-8'?>
<svg viewBox="-2 -2 32 32" xmlns="http://www.w3.org/2000/svg">
  <g transform="matrix(0.0547, 0, 0, 0.0547, 0, 0)">
    <defs>
      <style>.fa-secondary{opacity:.4}</style>
    </defs>
    <path d="M256, 40C136.71, 40 40, 136.71 40, 256C40, 375.29 136.71, 472 256, 472C375.29, 472 472, 375.29 472, 256C472, 136.71 375.29, 40 256, 40zM363.48, 363.48A152 152 0 1 1 408, 256A151 151 0 0 1 363.48, 363.48z" fill="#727272" opacity="0.4" fill-opacity="1" class="Black" />
    <path d="M256, 224A32 32 0 1 0 288, 256A32 32 0 0 0 256, 224zM272, 352L240, 352A16 16 0 0 0 224, 368L224, 496A16 16 0 0 0 240, 512L272, 512A16 16 0 0 0 288, 496L288, 368A16 16 0 0 0 272, 352zM144, 224L16, 224A16 16 0 0 0 0, 240L0, 272A16 16 0 0 0 16, 288L144, 288A16 16 0 0 0 160, 272L160, 240A16 16 0 0 0 144, 224zM496, 224L368, 224A16 16 0 0 0 352, 240L352, 272A16 16 0 0 0 368, 288L496, 288A16 16 0 0 0 512, 272L512, 240A16 16 0 0 0 496, 224zM272, 0L240, 0A16 16 0 0 0 224, 16L224, 144A16 16 0 0 0 240, 160L272, 160A16 16 0 0 0 288, 144L288, 16A16 16 0 0 0 272, 0z" fill="#727272" fill-opacity="1" class="Black" />
  </g>
</svg>