<?xml version='1.0' encoding='UTF-8'?>
<svg viewBox="-2.025 -4.8155 32 32" xmlns="http://www.w3.org/2000/svg">
  <g transform="matrix(0.0437, 0, 0, 0.0437, 0, 0)">
    <defs>
      <style>.fa-secondary{opacity:.4}</style>
    </defs>
    <path d="M544, 464L544, 496A16 16 0 0 1 528, 512L112, 512A16 16 0 0 1 96, 496L96, 464A16 16 0 0 1 112, 448L528, 448A16 16 0 0 1 544, 464z" fill="#727272" opacity="0.4" fill-opacity="1" class="Black" />
    <path d="M640, 176A48 48 0 0 1 592, 224A49 49 0 0 1 584.3, 223.2L512, 416L128, 416L55.7, 223.2A49 49 0 0 1 48, 224A48.36 48.36 0 1 1 91.7, 195.8L164, 239.2A32 32 0 0 0 208.2, 227.6L289.7, 85A48 48 0 1 1 350.3, 85L431.8, 227.6A32 32 0 0 0 476, 239.2L548.4, 195.8A47 47 0 0 1 544, 176A48 48 0 0 1 640, 176z" fill="#727272" fill-opacity="1" class="Black" />
  </g>
</svg>