<?xml version='1.0' encoding='UTF-8'?>
<svg viewBox="-1.9999 -4.7969 32 31.9975" xmlns="http://www.w3.org/2000/svg">
  <g transform="matrix(0.9989, 0, 0, 0.9989, 0, 0)">
    <g transform="matrix(0.0438, 0, 0, 0.0438, 0, 0)">
      <defs>
        <style>.fa-secondary{opacity:.4}</style>
      </defs>
      <path d="M635.28, 185.7L454.28, 4.7A16 16 0 0 0 431.66, 4.7L409, 27.3A16 16 0 0 0 409, 49.93L590, 230.93A16 16 0 0 0 612.63, 230.93L635.25, 208.3A16 16 0 0 0 635.28, 185.7zM507.28, 462.06L441, 395.75A128 128 0 0 1 407.33, 408.75L371.71, 417L462, 507.31A16 16 0 0 0 484.63, 507.31L507.25, 484.68A16 16 0 0 0 507.25, 462.06zM231, 49.93A16 16 0 0 0 231, 27.31L208.3, 4.68A16 16 0 0 0 185.68, 4.68L4.68, 185.68A16 16 0 0 0 4.68, 208.3L27.28, 231A16 16 0 0 0 49.91, 231L61.23, 219.69L193.52, 351.93C194.2, 352.61 195.09, 352.99 195.79, 353.64L205.48, 343.95L218.7, 286.63L106.48, 174.39L174.37, 106.5L253.12, 185.25A128.23 128.23 0 0 1 265.41, 170.91L297.34, 139L219.62, 61.25z" fill="#727272" opacity="0.4" fill-opacity="1" class="Black" />
      <path d="M510.84, 197L455.74, 252.12L387.85, 184.23L442.95, 129.13L397.7, 83.87L288, 193.54A96.13 96.13 0 0 0 262.33, 239.83L234.62, 360.09L132.62, 462.09A16 16 0 0 0 132.62, 484.72L155.24, 507.34A16 16 0 0 0 177.87, 507.34L279.87, 405.34L400.12, 377.59A95.85 95.85 0 0 0 446.41, 351.94L556.09, 242.26zM401.17, 306.68A31.94 31.94 0 0 1 385.72, 315.22L306.42, 333.54L324.72, 254.24A32.31 32.31 0 0 1 333.28, 238.79L342.59, 229.48L410.48, 297.37z" fill="#727272" fill-opacity="1" class="Black" />
    </g>
  </g>
</svg>