<?xml version='1.0' encoding='UTF-8'?>
<svg viewBox="-1.9949 -1.9974 31.995 32" xmlns="http://www.w3.org/2000/svg">
  <g transform="matrix(0.0547, 0, 0, 0.0547, 0, 0)">
    <defs>
      <style>.fa-secondary{opacity:.4}</style>
    </defs>
    <path d="M480.85, 85.58L272.85, 7.58A47.17 47.17 0 0 0 239.15, 7.48L31.15, 85.48A48.06 48.06 0 0 0 0.05, 130.48L0.05, 355.58A48 48 0 0 0 26.55, 398.48L234.55, 502.48A47.66 47.66 0 0 0 277.45, 502.48L485.45, 398.48A47.91 47.91 0 0 0 511.95, 355.58L511.95, 130.48A47.93 47.93 0 0 0 480.85, 85.58zM448, 345.16L288, 425.16L288, 276.26L448, 211.26zM448.05, 142.68L256.05, 220.68L64.05, 142.68L64.05, 141.58L256.05, 69.58L448.05, 141.58z" fill="#727272" opacity="0.4" fill-opacity="1" class="Black" />
    <path d="M448, 345.16L288, 425.16L288, 276.26L448, 211.26z" fill="#727272" fill-opacity="1" class="Black" />
  </g>
</svg>