<?xml version='1.0' encoding='UTF-8'?>
<svg viewBox="-1.995 -0.0011 32 32" xmlns="http://www.w3.org/2000/svg">
  <g transform="matrix(0.0625, 0, 0, 0.0625, 0, 0)">
    <defs>
      <style>.fa-secondary{opacity:.4}</style>
    </defs>
    <path d="M96, 224A96.49 96.49 0 0 0 109.36, 223.07L142.29, 256L210.17, 188.12L185.32, 163.26A96 96 0 1 0 96, 224zM96, 96A32 32 0 1 1 64, 128A32 32 0 0 1 96, 96zM444.48, 422.43A12 12 0 0 1 444.48, 439.43A84 84 0 0 1 325.69, 439.43L210.17, 323.88L278.06, 256z" fill="#727272" opacity="0.4" fill-opacity="1" class="Black" />
    <path d="M444.48, 89.57A12 12 0 0 0 444.48, 72.57A84 84 0 0 0 325.69, 72.57L109.36, 288.93A95.9 95.9 0 1 0 185.36, 348.74zM96, 416A32 32 0 1 1 128, 384A32 32 0 0 1 96, 416z" fill="#727272" fill-opacity="1" class="Black" />
  </g>
</svg>