<?xml version='1.0' encoding='UTF-8'?>
<svg viewBox="-3.802 -2 31.9975 32" xmlns="http://www.w3.org/2000/svg">
  <g transform="matrix(0.0547, 0, 0, 0.0547, 0, 0)">
    <defs>
      <style>.fa-secondary{opacity:.4}</style>
    </defs>
    <path d="M447, 73.14L447, 118.86C447, 159.14 346.67, 192 223, 192C99.33, 192 -1, 159.14 -1, 118.86L-1, 73.14C-1, 32.86 99.33, 0 223, 0C346.67, 0 447, 32.86 447, 73.14z" fill="#727272" opacity="0.4" fill-opacity="1" class="Black" />
    <path d="M-1, 336L-1, 438.86C-1, 479.14 99.33, 512 223, 512C346.67, 512 447, 479.14 447, 438.86L447, 336C398.87, 369.14 310.79, 384.57 223, 384.57C135.21, 384.57 47.12, 369.14 -1, 336zM223, 224.57C135.21, 224.57 47.12, 209.14 -1, 176L-1, 278.86C-1, 319.14 99.33, 352 223, 352C346.67, 352 447, 319.14 447, 278.86L447, 176C398.87, 209.14 310.79, 224.57 223, 224.57z" fill="#727272" fill-opacity="1" class="Black" />
  </g>
</svg>