<?xml version='1.0' encoding='UTF-8'?>
<svg viewBox="-2.0001 -2.0001 32 32" xmlns="http://www.w3.org/2000/svg">
  <g transform="matrix(0.0547, 0, 0, 0.0547, 0, 0)">
    <defs>
      <style>.fa-secondary{opacity:.4}</style>
    </defs>
    <path d="M508.48, 31.8L480.2, 3.51A12 12 0 0 0 463.2, 3.51L376.2, 90.51A12 12 0 0 0 376.2, 107.51L404.48, 135.8A12 12 0 0 0 421.48, 135.8L508.48, 48.8A12 12 0 0 0 508.48, 31.8zM169, 314.74A12 12 0 0 0 152, 314.74L3.51, 463.23A12 12 0 0 0 3.51, 480.23L31.8, 508.48A12 12 0 0 0 48.8, 508.48L197.26, 360A12 12 0 0 0 197.26, 343z" fill="#727272" opacity="0.4" fill-opacity="1" class="Black" />
    <path d="M240, 84C143, 84 64, 163 64, 260A28 28 0 0 0 120, 260A120 120 0 0 1 360, 260C360, 335.16 289, 330.31 288, 403.62L288, 404A52.06 52.06 0 0 1 236, 456A28 28 0 0 0 236, 512A108.13 108.13 0 0 0 344, 404.23C344.59, 369.8 416, 356 416, 260C416, 163 337.05, 84 240, 84zM240, 236A24 24 0 0 1 264, 260A28 28 0 0 0 320, 260A80 80 0 0 0 160, 260A28 28 0 0 0 216, 260A24 24 0 0 1 240, 236z" fill="#727272" fill-opacity="1" class="Black" />
  </g>
</svg>