<?xml version='1.0' encoding='UTF-8'?>
<svg viewBox="-1.5477 -1.5477 32 32" xmlns="http://www.w3.org/2000/svg">
  <g transform="matrix(0.9991, 0, 0, 0.9991, 0, 0)">
    <g transform="matrix(0.0565, 0, 0, 0.0565, 0, 0)">
      <defs>
        <style>.fa-secondary{opacity:.4}</style>
      </defs>
      <path d="M159.12, 338.69L183.92, 322.15A78.87 78.87 0 0 1 177.15, 299.43L146.27, 303.84A16 16 0 0 1 141.73, 272.16L176, 267.26L176, 266.5L274.94, 365.45A76.89 76.89 0 0 1 203.26, 347.72L176.87, 365.31C176.72, 365.42 176.56, 365.52 176.4, 365.62A16 16 0 0 1 159.12, 338.69zM383.84, 290.27A16 16 0 0 0 370.27, 272.16L336, 267.26L336, 244.9L370.27, 240A16 16 0 1 0 365.73, 208.32L335.19, 212.68A79.31 79.31 0 0 0 328.34, 189.83L352.88, 173.47A16 16 0 1 0 335.59, 146.54L335.13, 146.85L309.13, 164.19A79.9 79.9 0 0 0 206.49, 161.19L346.32, 301.07L365.73, 303.84A16 16 0 0 0 383.84, 290.27z" fill="#727272" opacity="0.4" fill-opacity="1" class="Black" />
      <path d="M256, 8C119, 8 8, 119 8, 256C8, 393 119, 504 256, 504C393, 504 504, 393 504, 256C504, 119 393, 8 256, 8zM256, 440C154.54, 440 72, 357.46 72, 256A182.84 182.84 0 0 1 105.38, 150.63L361.38, 406.63A182.86 182.86 0 0 1 256, 440zM406.62, 361.37L150.62, 105.37A182.84 182.84 0 0 1 256, 72C357.46, 72 440, 154.54 440, 256A182.84 182.84 0 0 1 406.62, 361.37z" fill="#727272" fill-opacity="1" class="Black" />
    </g>
  </g>
</svg>