<?xml version='1.0' encoding='UTF-8'?>
<svg viewBox="-2 -2 32 32" xmlns="http://www.w3.org/2000/svg">
  <g transform="matrix(0.0547, 0, 0, 0.0547, 0, 0)">
    <defs>
      <style>.fa-secondary{opacity:.4}</style>
    </defs>
    <path d="M162.5, 277.84L98.08, 281.84A161.92 161.92 0 0 1 98.08, 230.1L162.5, 234.1Q161.9, 236.65 161.44, 239.28L161.35, 239.88C161.24, 240.52 161.13, 241.17 161.04, 241.83L160.92, 242.65C160.84, 243.23 160.76, 243.82 160.69, 244.4C160.69, 244.71 160.62, 245.02 160.59, 245.33C160.52, 245.89 160.47, 246.45 160.42, 247.01L160.33, 248.01C160.28, 248.57 160.25, 249.14 160.21, 249.7L160.15, 250.7C160.15, 251.3 160.09, 251.9 160.07, 252.51L160.07, 259.51C160.07, 260.12 160.12, 260.72 160.15, 261.32L160.21, 262.32C160.21, 262.88 160.28, 263.45 160.33, 264.01L160.42, 265.01C160.47, 265.57 160.52, 266.13 160.59, 266.69C160.59, 267 160.66, 267.31 160.69, 267.62C160.76, 268.2 160.84, 268.79 160.92, 269.37L161.04, 270.19C161.13, 270.85 161.24, 271.5 161.35, 272.14L161.44, 272.74Q161.91, 275.29 162.5, 277.84zM174.45, 205.34A96.68 96.68 0 0 1 182.54, 194.21A96.52 96.52 0 0 1 205.33, 174.47L162.63, 126A161.73 161.73 0 0 0 126, 162.62zM256, 96A162 162 0 0 0 230.13, 98.08L234.13, 162.5C235.83, 162.1 237.56, 161.75 239.3, 161.45L239.92, 161.34C240.56, 161.23 241.2, 161.13 241.85, 161.04L242.69, 160.92L244.43, 160.69L245.37, 160.59C245.92, 160.52 246.48, 160.47 247.04, 160.42L248.04, 160.33C248.6, 160.28 249.17, 160.25 249.73, 160.21L250.73, 160.15L252.54, 160.07L259.54, 160.07L261.35, 160.15L262.35, 160.21C262.91, 160.21 263.48, 160.28 264.04, 160.33L265.04, 160.42C265.6, 160.47 266.16, 160.52 266.71, 160.59L267.65, 160.69L269.39, 160.92L270.23, 161.04C270.88, 161.13 271.52, 161.23 272.16, 161.34L272.78, 161.45C274.52, 161.75 276.25, 162.1 277.95, 162.5L281.95, 98.08A162 162 0 0 0 256, 96zM281.87, 413.92L277.87, 349.5C276.17, 349.9 274.44, 350.25 272.7, 350.55L272.08, 350.66C271.44, 350.77 270.8, 350.87 270.15, 350.96L269.31, 351.08L267.57, 351.31L266.64, 351.41L264.96, 351.58L263.96, 351.67C263.4, 351.72 262.83, 351.75 262.27, 351.79L261.27, 351.85L259.46, 351.93L252.46, 351.93L250.65, 351.85L249.65, 351.79C249.09, 351.79 248.52, 351.72 247.96, 351.67L246.96, 351.58L245.27, 351.41L244.35, 351.31L242.58, 351.08L241.78, 350.96C241.12, 350.87 240.46, 350.76 239.78, 350.65L239.2, 350.56Q236.59, 350.1 234.02, 349.5L230.02, 413.92A162 162 0 0 0 281.77, 413.92zM350.56, 239.34L350.65, 239.94C350.76, 240.58 350.87, 241.23 350.96, 241.89L351.08, 242.71C351.16, 243.29 351.24, 243.88 351.31, 244.46C351.31, 244.77 351.38, 245.08 351.41, 245.39C351.48, 245.95 351.53, 246.51 351.58, 247.07L351.67, 248.07C351.72, 248.63 351.75, 249.2 351.79, 249.76L351.85, 250.76C351.85, 251.36 351.91, 251.96 351.93, 252.57L351.93, 259.57C351.93, 260.17 351.88, 260.77 351.85, 261.38L351.79, 262.38C351.79, 262.94 351.72, 263.5 351.67, 264.06L351.58, 265.06C351.53, 265.62 351.48, 266.18 351.41, 266.73C351.41, 267.05 351.34, 267.36 351.31, 267.67C351.24, 268.25 351.16, 268.83 351.08, 269.4C351.08, 269.68 351.01, 269.97 350.96, 270.25C350.87, 270.89 350.77, 271.53 350.66, 272.16C350.66, 272.37 350.59, 272.59 350.55, 272.8C350.41, 273.64 350.25, 274.48 350.08, 275.32C349.9, 276.21 349.71, 277.09 349.5, 277.96L413.92, 281.96A161.92 161.92 0 0 0 413.92, 230.22L349.5, 234.22Q350.1, 236.71 350.56, 239.34zM434.09, 120.14L446.87, 108.87A16 16 0 0 0 447.6, 85.56L426.44, 64.4A16 16 0 0 0 403.13, 65.13L391.85, 77.91A224.93 224.93 0 0 1 434.09, 120.14zM205.33, 337.54A96.39 96.39 0 0 1 174.45, 306.66L126, 349.37A161.82 161.82 0 0 0 142.82, 369.14A163.52 163.52 0 0 0 162.62, 386L205.33, 337.59zM337.56, 306.65A96.64 96.64 0 0 1 317.81, 329.45A94.54 94.54 0 0 1 306.67, 337.55L349.38, 386A163.52 163.52 0 0 0 369.14, 369.18A161.82 161.82 0 0 0 386, 349.37zM32, 256A226.63 226.63 0 0 1 34, 226.12L17, 225.06A16 16 0 0 0 0, 241L0, 271A16 16 0 0 0 17, 287L34, 285.94A226.63 226.63 0 0 1 32, 256zM446.88, 403.12L434.1, 391.84A225 225 0 0 1 391.86, 434.09L403.13, 446.87A16 16 0 0 0 426.44, 447.6L447.61, 426.43A16 16 0 0 0 446.88, 403.12zM495, 225.06L478, 226.12A225.32 225.32 0 0 1 478, 285.88L495, 286.94A16 16 0 0 0 512, 270.94L512, 241A16 16 0 0 0 495, 225.06zM285.88, 478A225.32 225.32 0 0 1 226.12, 478L225.06, 495A16 16 0 0 0 241.06, 512L271, 512A16 16 0 0 0 287, 495zM349.37, 126L306.66, 174.41A96.33 96.33 0 0 1 329.45, 194.16A95.58 95.58 0 0 1 337.55, 205.29L386, 162.62A161.73 161.73 0 0 0 349.37, 126zM226.12, 34A225.32 225.32 0 0 1 285.88, 34L286.94, 17A16 16 0 0 0 271, 0L241, 0A16 16 0 0 0 225, 17zM65.12, 108.88L77.9, 120.15A225.58 225.58 0 0 1 120.15, 77.9L108.88, 65.13A16 16 0 0 0 85.57, 64.4L64.4, 85.56A16 16 0 0 0 65.13, 108.87zM77.89, 391.88L65.13, 403.12A16 16 0 0 0 64.4, 426.43L85.57, 447.6A16 16 0 0 0 108.88, 446.87L120.15, 434.1A225.39 225.39 0 0 1 77.9, 391.85z" fill="#727272" opacity="0.4" fill-opacity="1" class="Black" />
    <path d="M256, 32C132.29, 32 32, 132.29 32, 256C32, 379.71 132.29, 480 256, 480C379.71, 480 480, 379.71 480, 256C480, 132.29 379.71, 32 256, 32zM369.14, 369.14A160 160 0 1 1 416, 256A159 159 0 0 1 369.14, 369.14zM256, 160A96 96 0 1 0 352, 256A96 96 0 0 0 256, 160zM256, 288A32 32 0 1 1 288, 256A32 32 0 0 1 256, 288z" fill="#727272" fill-opacity="1" class="Black" />
  </g>
</svg>