<?xml version='1.0' encoding='UTF-8'?>
<svg viewBox="-2 -4.7992 32 32" xmlns="http://www.w3.org/2000/svg">
  <g transform="matrix(0.9988, 0, 0, 0.9988, 0, 0)">
    <g transform="matrix(0.0438, 0, 0, 0.0438, 0, 0)">
      <defs>
        <style>.fa-secondary{opacity:.4}</style>
      </defs>
      <path d="M320, 176A88 88 0 1 0 232, 88A88.13 88.13 0 0 0 320, 176zM588, 292.3C576.1, 285.2 558.3, 275.3 536.9, 264.9C508.8, 311 437.5, 282.7 449.2, 229.8C409.3, 217.2 365.1, 208 320, 208C263, 208 207.1, 222.5 160, 240.2C159.8, 280.4 112.4, 303.5 80.8, 276.2C69.6, 282.2 59.5, 287.8 52.1, 292.2C34.5, 302.7 33.3, 324 42.1, 337.3L59.8, 364A31.88 31.88 0 0 0 102.7, 373.8A599.33 599.33 0 0 1 208, 325.2L208, 416L432, 416L432, 325.3A591.93 591.93 0 0 1 537.3, 373.9A32.08 32.08 0 0 0 580.2, 364.1L598, 337.4C606.8, 324.2 605.6, 302.8 588, 292.3zM272, 296A24 24 0 1 1 296, 272A23.94 23.94 0 0 1 272, 296zM368, 360A24 24 0 1 1 392, 336A23.94 23.94 0 0 1 368, 360z" fill="#727272" opacity="0.4" fill-opacity="1" class="Black" />
      <path d="M112, 256A16 16 0 1 0 96, 240A16 16 0 0 0 112, 256zM496, 256A16 16 0 1 0 480, 240A16 16 0 0 0 496, 256zM624, 448L16, 448A16 16 0 0 0 0, 464L0, 496A16 16 0 0 0 16, 512L624, 512A16 16 0 0 0 640, 496L640, 464A16 16 0 0 0 624, 448z" fill="#727272" fill-opacity="1" class="Black" />
    </g>
  </g>
</svg>