<?xml version='1.0' encoding='UTF-8'?>
<svg viewBox="-3.7509 -1.9975 32 31.9975" xmlns="http://www.w3.org/2000/svg">
  <g transform="matrix(0.0547, 0, 0, 0.0547, 0, 0)">
    <defs>
      <style>.fa-secondary{opacity:.4}</style>
    </defs>
    <path d="M442.14, 240.34L242.14, 8.34A24 24 0 0 0 205.78, 8.34L5.78, 240.34A23.84 23.84 0 0 0 5.78, 271.64L205.78, 503.64A24 24 0 0 0 242.14, 503.64L442.14, 271.64A23.84 23.84 0 0 0 442.14, 240.34zM348.09, 266.34L236.19, 394.49A16.23 16.23 0 0 1 211.81, 394.49L99.91, 266.38A15.74 15.74 0 0 1 99.91, 245.62L211.81, 117.51A16.23 16.23 0 0 1 236.19, 117.51L348.09, 245.62A15.74 15.74 0 0 1 348.09, 266.38z" fill="#727272" opacity="0.4" fill-opacity="1" class="Black" />
    <path d="M348.09, 245.62A15.74 15.74 0 0 1 348.09, 266.38L236.19, 394.49A16.23 16.23 0 0 1 211.81, 394.49L99.91, 266.38A15.74 15.74 0 0 1 99.91, 245.62L211.81, 117.51A16.23 16.23 0 0 1 236.19, 117.51z" fill="#727272" fill-opacity="1" class="Black" />
  </g>
</svg>