<?xml version='1.0' encoding='UTF-8'?>
<svg viewBox="-2 -2 32 32" xmlns="http://www.w3.org/2000/svg">
  <g transform="matrix(0.0547, 0, 0, 0.0547, 0, 0)">
    <defs>
      <style>.fa-secondary{opacity:.4}</style>
    </defs>
    <path d="M7.54, 176.92L131.16, 300.54L240, 246.11L240, 139.24L59, 74.07zM453, 74.07L272, 139.24L272, 246.11L380.84, 300.53L504.46, 176.91zM333.51, 6.76A63.87 63.87 0 0 0 304.89, 0L207.1, 0A63.91 63.91 0 0 0 178.48, 6.76L89.72, 51.14L256, 111L422.28, 51.14z" fill="#727272" opacity="0.4" fill-opacity="1" class="Black" />
    <path d="M256, 273.89L147.41, 328.18L206.23, 512L305.76, 512L364.58, 328.18zM0, 214.62L0, 304.89A63.87 63.87 0 0 0 6.76, 333.51L54.46, 428.91A63.92 63.92 0 0 0 83.08, 457.53L169, 500.47L114, 328.56zM398.05, 328.62L343, 500.48L428.88, 457.54A64 64 0 0 0 457.5, 428.92L505.2, 333.52A64.07 64.07 0 0 0 512, 304.9L512, 214.63z" fill="#727272" fill-opacity="1" class="Black" />
  </g>
</svg>