<?xml version='1.0' encoding='UTF-8'?>
<svg viewBox="-3.7494 -1.9974 32 31.9975" xmlns="http://www.w3.org/2000/svg">
  <g transform="matrix(0.0547, 0, 0, 0.0547, 0, 0)">
    <defs>
      <style>.fa-secondary{opacity:.4}</style>
    </defs>
    <path d="M25.87, 124.42A8.54 8.54 0 0 1 25.81, 110L191.81, 9.12A61.72 61.72 0 0 1 256.24, 9.12L422.19, 110A8.54 8.54 0 0 1 422.14, 124.47L224, 242.55z" fill="#727272" opacity="0.4" fill-opacity="1" class="Black" />
    <path d="M0, 161.83L0, 359.53C0, 383.3 12.11, 405.27 31.79, 417.23L184, 509.71C194.67, 516.19 208.05, 508.17 208.05, 495.27L208.05, 271.46L12, 154.58C6.64, 151.41 0, 155.43 0, 161.83zM436, 154.58L240, 271.46L240, 495.28C240, 508.17 253.39, 516.2 264.05, 509.71L416.21, 417.23C435.89, 405.23 448, 383.29 448, 359.53L448, 161.83C448, 155.42 441.36, 151.41 436, 154.58z" fill="#727272" fill-opacity="1" class="Black" />
  </g>
</svg>