<?xml version='1.0' encoding='UTF-8'?>
<svg viewBox="-2 0 32 32" xmlns="http://www.w3.org/2000/svg">
  <g transform="matrix(0.0625, 0, 0, 0.0625, 0, 0)">
    <defs>
      <style>.fa-secondary{opacity:.4}</style>
    </defs>
    <path d="M384, 32L64, 32A64 64 0 0 0 0, 96L0, 416A64 64 0 0 0 64, 480L384, 480A64 64 0 0 0 448, 416L448, 96A64 64 0 0 0 384, 32zM128, 384A32 32 0 1 1 160, 352A32 32 0 0 1 128, 384zM128, 192A32 32 0 1 1 160, 160A32 32 0 0 1 128, 192zM320, 384A32 32 0 1 1 352, 352A32 32 0 0 1 320, 384zM320, 192A32 32 0 1 1 352, 160A32 32 0 0 1 320, 192z" fill="#727272" opacity="0.4" fill-opacity="1" class="Black" />
    <path d="M128, 320A32 32 0 1 0 160, 352A32 32 0 0 0 128, 320zM128, 128A32 32 0 1 0 160, 160A32 32 0 0 0 128, 128zM320, 320A32 32 0 1 0 352, 352A32 32 0 0 0 320, 320zM320, 192A32 32 0 1 0 288, 160A32 32 0 0 0 320, 192z" fill="#727272" fill-opacity="1" class="Black" />
  </g>
</svg>