<?xml version='1.0' encoding='UTF-8'?>
<svg viewBox="-1.9975 -1.9988 32 32" xmlns="http://www.w3.org/2000/svg">
  <g transform="matrix(0.0547, 0, 0, 0.0547, 0, 0)">
    <defs>
      <style>.fa-secondary{opacity:.4}</style>
    </defs>
    <path d="M502.61, 233.32L278.68, 9.39A32.08 32.08 0 0 0 233.32, 9.39L9.39, 233.32A32.08 32.08 0 0 0 9.39, 278.68L233.32, 502.6A32.06 32.06 0 0 0 278.67, 502.6L502.61, 278.68A32.08 32.08 0 0 0 502.61, 233.32zM401.61, 245.88L317.4, 323.61A8 8 0 0 1 304, 317.73L304, 264L208, 264L208, 328A8 8 0 0 1 200, 336L168, 336A8 8 0 0 1 160, 328L160, 248A32 32 0 0 1 192, 216L304, 216L304, 162.27A8 8 0 0 1 317.43, 156.39L401.64, 234.12A8 8 0 0 1 402.08, 245.42C401.94, 245.58 401.79, 245.73 401.63, 245.88z" fill="#727272" opacity="0.4" fill-opacity="1" class="Black" />
    <path d="M401.63, 245.88L317.42, 323.61A8 8 0 0 1 304, 317.73L304, 264L208, 264L208, 328A8 8 0 0 1 200, 336L168, 336A8 8 0 0 1 160, 328L160, 248A32 32 0 0 1 192, 216L304, 216L304, 162.27A8 8 0 0 1 317.43, 156.39L401.64, 234.12A8 8 0 0 1 402.08, 245.42C401.94, 245.58 401.79, 245.73 401.63, 245.88z" fill="#727272" fill-opacity="1" class="Black" />
  </g>
</svg>