<?xml version='1.0' encoding='UTF-8'?>
<svg viewBox="-1.9974 -1.9961 31.9975 32" xmlns="http://www.w3.org/2000/svg">
  <g transform="matrix(0.0547, 0, 0, 0.0547, 0, 0)">
    <defs>
      <style>.fa-secondary{opacity:.4}</style>
    </defs>
    <path d="M472.27, 196L405.21, 173C385.93, 166.4 371.67, 152.08 367.07, 134.69L351.07, 74.24C339.49, 30.47 274.5, 17.11 241.07, 51.62L195, 99.29C181.74, 113 161.46, 120.22 140.8, 118.6L68.88, 113C16.88, 108.93 -18.05, 157.89 9.88, 195.84L48.42, 248.26C59.5, 263.33 61.24, 282.12 53.06, 298.5L24.63, 355.5C4, 396.72 47.44, 440.34 98.09, 429.28L168.09, 414C188.2, 409.61 209.54, 414 225.16, 425.73L279.48, 466.56C318.8, 496.12 380.48, 474.13 383.93, 429.34L388.63, 367.48C389.98, 349.68 401.43, 333.61 419.26, 324.48L481.26, 292.74C526.1, 269.78 520.81, 212.57 472.27, 196zM160, 256.05A32 32 0 1 1 192, 224.05A32 32 0 0 1 160, 256.05zM288, 352.05A32 32 0 1 1 320, 320.05A32 32 0 0 1 288, 352.05zM304, 224.05A16 16 0 1 1 320, 208.05A16 16 0 0 1 304, 224.05z" fill="#727272" opacity="0.4" fill-opacity="1" class="Black" />
    <path d="M304, 224.05A16 16 0 1 0 288, 208.05A16 16 0 0 0 304, 224.05zM288, 288.05A32 32 0 1 0 320, 320.05A32 32 0 0 0 288, 288.05z" fill="#727272" fill-opacity="1" class="Black" />
  </g>
</svg>