<?xml version='1.0' encoding='UTF-8'?>
<svg viewBox="-1.9999 -1.549 31.9975 32" xmlns="http://www.w3.org/2000/svg">
  <g transform="matrix(0.999, 0, 0, 0.999, 0, 0)">
    <g transform="matrix(0.0565, 0, 0, 0.0565, 0, 0)">
      <defs>
        <style>.fa-secondary{opacity:.4}</style>
      </defs>
      <path d="M248, 8C111, 8 0, 119 0, 256C0, 393 111, 504 248, 504C385, 504 496, 393 496, 256C496, 119 385, 8 248, 8zM152, 214.6L123.3, 243.3C108.5, 258.1 85.5, 235.8 100.7, 220.7L129.4, 192L100.7, 163.3C85.7, 148.3 108.4, 125.7 123.3, 140.7L152, 169.4L180.7, 140.7C195.7, 125.7 218.3, 148.4 203.3, 163.3L174.6, 192L203.3, 220.7C218.5, 235.9 195.4, 258.1 180.7, 243.3zM248, 416A64 64 0 1 1 312, 352A64 64 0 0 1 248, 416zM372.7, 243.3L344, 214.6L315.3, 243.3C300.5, 258.1 277.5, 235.8 292.7, 220.7L321.4, 192L292.7, 163.3C277.7, 148.3 300.4, 125.7 315.3, 140.7L344, 169.4L372.7, 140.7C387.7, 125.7 410.3, 148.4 395.3, 163.3L366.6, 192L395.3, 220.7C410.5, 235.9 387.4, 258.1 372.7, 243.3z" fill="#727272" opacity="0.4" fill-opacity="1" class="Black" />
      <path d="M395.3, 220.7L366.6, 192L395.3, 163.3C410.3, 148.4 387.7, 125.7 372.7, 140.7L344, 169.4L315.3, 140.7C300.4, 125.7 277.7, 148.3 292.7, 163.3L321.4, 192L292.7, 220.7C277.5, 235.8 300.5, 258.1 315.3, 243.3L344, 214.6L372.7, 243.3C387.4, 258.1 410.5, 235.9 395.3, 220.7zM174.6, 192L203.3, 163.3C218.3, 148.4 195.7, 125.7 180.7, 140.7L152, 169.4L123.3, 140.7C108.4, 125.7 85.7, 148.3 100.7, 163.3L129.4, 192L100.7, 220.7C85.5, 235.8 108.5, 258.1 123.3, 243.3L152, 214.6L180.7, 243.3C195.4, 258.1 218.5, 235.9 203.3, 220.7z" fill="#727272" fill-opacity="1" class="Black" />
    </g>
  </g>
</svg>