<?xml version='1.0' encoding='UTF-8'?>
<svg viewBox="-3.7495 -2 32 32" xmlns="http://www.w3.org/2000/svg">
  <g transform="matrix(0.0547, 0, 0, 0.0547, 0, 0)">
    <defs>
      <style>.fa-secondary{opacity:.4}</style>
    </defs>
    <path d="M222.18, 269.08A480.54 480.54 0 0 0 267.4, 243.45Q253, 235 237.72, 227.37C197.93, 207.54 164, 183.24 136.9, 155.14A284.35 284.35 0 0 1 92.86, 96L416, 96L416, 31L67.55, 31C66, 24.32 65, 18.49 64.27, 13.75A16 16 0 0 0 48.32, 0L16.05, 0.14A16 16 0 0 0 0.12, 18.1C2.46, 36.92 8.77, 68.78 25.77, 105.48A342.64 342.64 0 0 0 88.77, 197.48C119.41, 229.71 157.11, 257.57 200.91, 280.39Q211.09, 274.63 222.18, 269.08zM447.87, 494C445.52, 475.16 439.16, 443.28 422.05, 406.57A342.8 342.8 0 0 0 358.6, 314.45A383.16 383.16 0 0 0 328.6, 286.33A515.71 515.71 0 0 1 270.13, 321.94Q278.66, 328.29 286.64, 335L96, 335L96, 383L332.71, 383A272.08 272.08 0 0 1 362, 430.47A238.2 238.2 0 0 1 383.27, 498.24A16.11 16.11 0 0 0 399.2, 512L431.88, 512A16 16 0 0 0 447.87, 494z" fill="#727272" opacity="0.4" fill-opacity="1" class="Black" />
    <path d="M447.88, 18C445.53, 36.84 439.2, 68.72 422.16, 105.44A342.76 342.76 0 0 1 359, 197.51C326.39, 231.74 285.82, 261.05 238.41, 284.62C160.43, 323.39 117.15, 373 93.11, 416L354.46, 416Q358.46, 423.14 361.98, 430.47A247.24 247.24 0 0 1 379.71, 480L67.87, 480C66.18, 487.1 65.08, 493.25 64.38, 498.21A16.06 16.06 0 0 1 48.45, 512L16.09, 512A16 16 0 0 1 0.09, 494C2.44, 475.16 8.77, 443.28 25.81, 406.56A342.76 342.76 0 0 1 89, 314.49C121.61, 280.26 162.18, 250.95 209.59, 227.38C241.8, 211.38 268.08, 193.49 289.54, 175L157.94, 175Q146.82, 165.42 136.94, 155.14A295 295 0 0 1 113, 127L334.7, 127C370.09, 79.84 380.54, 35.45 383.62, 13.79A16.06 16.06 0 0 1 399.55, 0L431.91, 0A16 16 0 0 1 447.88, 18z" fill="#727272" fill-opacity="1" class="Black" />
  </g>
</svg>