<?xml version='1.0' encoding='UTF-8'?>
<svg viewBox="-1.9999 -3.5552 31.9975 32" xmlns="http://www.w3.org/2000/svg">
  <g transform="matrix(0.0486, 0, 0, 0.0486, 0, 0)">
    <defs>
      <style>.fa-secondary{opacity:.4}</style>
    </defs>
    <path d="M256, 320A96 96 0 1 0 352, 416A96 96 0 0 0 256, 320zM256, 448A32 32 0 1 1 288, 416A32 32 0 0 1 256, 448z" fill="#727272" opacity="0.4" fill-opacity="1" class="Black" />
    <path d="M128, 0L16, 0A16 16 0 0 0 0, 16L0, 48A16 16 0 0 0 16, 64L104.9, 64L186.39, 308.57A127.23 127.23 0 0 1 247.2, 288.31L158.4, 21.9A32 32 0 0 0 128, 0zM575.2, 326.4L565, 296A16 16 0 0 0 544.8, 285.9L363.42, 346.39A127.12 127.12 0 0 1 383.69, 407.15L565, 346.6A16 16 0 0 0 575.2, 326.4z" fill="#727272" fill-opacity="1" class="Black" />
  </g>
</svg>