<?xml version='1.0' encoding='UTF-8'?>
<svg viewBox="-8.124 -1.9998 32 31.9975" xmlns="http://www.w3.org/2000/svg">
  <g transform="matrix(0.0547, 0, 0, 0.0547, 0, 0)">
    <defs>
      <style>.fa-secondary{opacity:.4}</style>
    </defs>
    <path d="M176, 64L112, 64L112, 16A16 16 0 0 1 128, 0L160, 0A16 16 0 0 1 176, 16zM112, 448L112, 496A16 16 0 0 0 128, 512L160, 512A16 16 0 0 0 176, 496L176, 448z" fill="#727272" opacity="0.4" fill-opacity="1" class="Black" />
    <path d="M281.72, 375.1C266.32, 419.2 222.61, 446.9 176, 447.8L112, 448A141.39 141.39 0 0 1 25.49, 418C17.59, 411.9 16.59, 400.4 23.69, 393.5L58.5, 359.5A15.6 15.6 0 0 1 78, 357.5A61 61 0 0 0 112.19, 368L178.5, 368A29.49 29.49 0 0 0 186.8, 310.2L84.28, 280.2C39.88, 267.2 4.67, 229.7 0.47, 183.6A109.57 109.57 0 0 1 99.55, 64.46L99.55, 64.46C102.85, 64.16 106.16, 64 109.47, 64L176, 64A141.44 141.44 0 0 1 262.52, 94C270.42, 100.1 271.42, 111.6 264.32, 118.5L229.51, 152.5A15.6 15.6 0 0 1 210.01, 154.5A61.1 61.1 0 0 0 175.8, 144L109.49, 144A29.49 29.49 0 0 0 101.19, 201.8L209.19, 233.4C267.12, 250.3 303.23, 313.5 281.72, 375.1z" fill="#727272" fill-opacity="1" class="Black" />
  </g>
</svg>