<?xml version='1.0' encoding='UTF-8'?>
<svg viewBox="-1.9999 -1.9999 32 32" xmlns="http://www.w3.org/2000/svg">
  <g transform="matrix(0.0547, 0, 0, 0.0547, 0, 0)">
    <defs>
      <style>.fa-secondary{opacity:.4}</style>
    </defs>
    <path d="M256, 416C370.9, 416 464, 322.9 464, 208C464, 93.1 370.9, 0 256, 0C141.1, 0 48, 93.1 48, 208C48, 322.9 141.1, 416 256, 416zM233.8, 97.4L233.8, 80.6A16.56 16.56 0 0 1 250.4, 64L261.5, 64A16.56 16.56 0 0 1 278.1, 80.6L278.1, 97.6A78.84 78.84 0 0 1 321.1, 113A11.21 11.21 0 0 1 322.3, 130.1L306, 145.6C302.2, 149.3 296.5, 149.4 292, 146.6A32.91 32.91 0 0 0 274.2, 141.5L235.3, 141.5C226.3, 141.5 219, 149.7 219, 159.8C219, 168 224, 175.3 231.1, 177.4L293.4, 196.1C319.1, 203.8 337.1, 228.5 337.1, 256.2C337.1, 290.2 310.7, 317.7 278, 318.6L278, 335.4A16.56 16.56 0 0 1 261.4, 352L250.3, 352A16.56 16.56 0 0 1 233.7, 335.4L233.7, 318.4A78.84 78.84 0 0 1 190.7, 303A11.21 11.21 0 0 1 189.5, 285.9L205.8, 270.4C209.6, 266.7 215.3, 266.6 219.8, 269.4A32.91 32.91 0 0 0 237.6, 274.5L276.5, 274.5C285.5, 274.5 292.8, 266.3 292.8, 256.2C292.8, 248 287.8, 240.7 280.7, 238.6L218.4, 219.9C192.7, 212.2 174.7, 187.5 174.7, 159.8C174.8, 125.8 201.1, 98.3 233.8, 97.4z" fill="#727272" opacity="0.4" fill-opacity="1" class="Black" />
    <path d="M218.4, 219.9L280.7, 238.6C287.8, 240.7 292.8, 248 292.8, 256.2C292.8, 266.3 285.5, 274.5 276.5, 274.5L237.6, 274.5A32.91 32.91 0 0 1 219.8, 269.4C215.3, 266.6 209.6, 266.7 205.8, 270.4L189.5, 285.9A11.21 11.21 0 0 0 190.7, 303A78.84 78.84 0 0 0 233.7, 318.4L233.7, 335.4A16.56 16.56 0 0 0 250.3, 352L261.4, 352A16.56 16.56 0 0 0 278, 335.4L278, 318.6C310.7, 317.7 337.1, 290.2 337.1, 256.2C337.1, 228.5 319.1, 203.8 293.4, 196.1L231.1, 177.4C224, 175.3 219, 168 219, 159.8C219, 149.7 226.3, 141.5 235.3, 141.5L274.2, 141.5A32.91 32.91 0 0 1 292, 146.6C296.5, 149.4 302.2, 149.3 306, 145.6L322.3, 130.1A11.21 11.21 0 0 0 321.1, 113A78.84 78.84 0 0 0 278.1, 97.6L278.1, 80.6A16.56 16.56 0 0 0 261.5, 64L250.4, 64A16.56 16.56 0 0 0 233.8, 80.6L233.8, 97.4C201.1, 98.3 174.8, 125.8 174.7, 159.8C174.7, 187.5 192.7, 212.2 218.4, 219.9zM480, 352L447.5, 352A242.37 242.37 0 0 1 374.5, 416L438.3, 416C443.6, 416 447.9, 419.6 447.9, 424L447.9, 440C447.9, 444.4 443.6, 448 438.3, 448L73.6, 448C68.3, 448 64, 444.4 64, 440L64, 424C64, 419.6 68.3, 416 73.6, 416L137.4, 416A243.57 243.57 0 0 1 64.4, 352L32, 352A32 32 0 0 0 0, 384L0, 480A32 32 0 0 0 32, 512L480, 512A32 32 0 0 0 512, 480L512, 384A32 32 0 0 0 480, 352z" fill="#727272" fill-opacity="1" class="Black" />
  </g>
</svg>