<?xml version='1.0' encoding='UTF-8'?>
<svg viewBox="-1.9962 -1.9975 32 32" xmlns="http://www.w3.org/2000/svg">
  <g transform="matrix(0.0547, 0, 0, 0.0547, 0, 0)">
    <defs>
      <style>.fa-secondary{opacity:.4}</style>
    </defs>
    <path d="M400, 64A80.07 80.07 0 0 0 320, 144.1L320, 203.5A271.57 271.57 0 0 1 87, 41.75C81.5, 29.25 63.8, 28.55 58, 40.85A269.8 269.8 0 0 0 32, 156.55C32, 227.35 66.1, 293.45 117.1, 342.45A406.94 406.94 0 0 0 156, 375.25L12.1, 411.25A16.1 16.1 0 0 0 2.6, 435.65C20, 462.55 63, 508.15 155.88, 512A32.09 32.09 0 0 0 177.98, 504.1L243.18, 448L320, 448A159.86 159.86 0 0 0 480, 288.26L480, 128L512, 64zM400.05, 160.1L400, 160.1A11.31 11.31 0 1 1 400.05, 160.1z" fill="#727272" opacity="0.4" fill-opacity="1" class="Black" />
    <path d="M320, 176.69L320, 203.5A271.52 271.52 0 0 1 145.88, 126.71C147, 121.03 148.32, 115.37 149.88, 109.71A269.78 269.78 0 0 1 206.16, 5.35C215.07, -4.94 231.92, 0.51 233.85, 14A271.5 271.5 0 0 0 320, 176.69z" fill="#727272" fill-opacity="1" class="Black" />
  </g>
</svg>