<?xml version='1.0' encoding='UTF-8'?>
<svg viewBox="-1.9975 -4.7995 32 32" xmlns="http://www.w3.org/2000/svg">
  <g transform="matrix(1.0012, 0, 0, 1.0012, 0, 0)">
    <g transform="matrix(0.0437, 0, 0, 0.0437, 0, 0)">
      <defs>
        <style>.fa-secondary{opacity:.4}</style>
      </defs>
      <path d="M320, 194.35L320, 236.62A247.35 247.35 0 0 0 334.73, 320L112, 320C97.75, 320 90.61, 302.77 100.69, 292.69L192, 224L18.32, 255.82C2.36, 258.1 -6.57, 238 5.81, 227.68L123.21, 111.34A64 64 0 0 1 200.27, 106.75z" fill="#727272" opacity="0.4" fill-opacity="1" class="Black" />
      <path d="M575.19, 289.88L474.53, 239.57A48 48 0 0 1 448, 196.65L448, 160L512, 160L540.09, 182.63A32 32 0 0 0 562.72, 192L593.72, 192A32 32 0 0 0 622.34, 174.31L636.65, 145.69A32 32 0 0 0 633.65, 112.18L559.07, 12.76A32 32 0 0 0 533.47, 0L296, 0A8 8 0 0 0 290.34, 13.61L352, 64L292.42, 88.8A8 8 0 0 0 292.42, 103.11L352, 128L352, 236.58A215.61 215.61 0 0 0 448, 416C252.41, 422.81 103.44, 457 13.9, 476.91A17.78 17.78 0 0 0 17.76, 512L516.84, 512C580.13, 512 636.45, 464.44 639.84, 401.24A116.7 116.7 0 0 0 575.19, 289.88zM489.19, 66.25L534.84, 77.66C532.09, 88.57 522.37, 96.55 510.71, 95.92C497.74, 95.21 484.85, 83.39 489.18, 66.25z" fill="#727272" fill-opacity="1" class="Black" />
    </g>
  </g>
</svg>