<?xml version='1.0' encoding='UTF-8'?>
<svg viewBox="-2 0 32 32" xmlns="http://www.w3.org/2000/svg">
  <g transform="matrix(0.0625, 0, 0, 0.0625, 0, 0)">
    <defs>
      <style>.fa-secondary{opacity:.4}</style>
    </defs>
    <path d="M32, 360.58L32, 151.42A64 64 0 0 0 96, 151.42L96, 360.58A64 64 0 0 0 32, 360.58zM119.42, 64A64 64 0 0 1 119.42, 128L327.48, 128L289.07, 192A64 64 0 0 1 344, 224.94L383, 159.94A64 64 0 0 1 328.65, 63.94zM328.58, 448A64 64 0 0 1 382.93, 352L343.93, 287A64 64 0 0 1 289.07, 320L327.48, 384L119.42, 384A64 64 0 0 1 119.42, 448z" fill="#727272" opacity="0.4" fill-opacity="1" class="Black" />
    <path d="M64, 32A64 64 0 1 0 128, 96A64 64 0 0 0 64, 32zM64, 112A16 16 0 1 1 80, 96A16 16 0 0 1 64, 112zM384, 160A64 64 0 1 0 320, 96A64 64 0 0 0 384, 160zM384, 80A16 16 0 1 1 368, 96A16 16 0 0 1 384, 80zM64, 352A64 64 0 1 0 128, 416A64 64 0 0 0 64, 352zM64, 432A16 16 0 1 1 80, 416A16 16 0 0 1 64, 432zM384, 352A64 64 0 1 0 448, 416A64 64 0 0 0 384, 352zM384, 432A16 16 0 1 1 400, 416A16 16 0 0 1 384, 432zM352, 256A64 64 0 1 0 288, 320A64 64 0 0 0 352, 256zM288, 272A16 16 0 1 1 304, 256A16 16 0 0 1 288, 272z" fill="#727272" fill-opacity="1" class="Black" />
  </g>
</svg>