<?xml version='1.0' encoding='UTF-8'?>
<svg viewBox="-2 -0.0004 32 31.9975" xmlns="http://www.w3.org/2000/svg">
  <g transform="matrix(0.0625, 0, 0, 0.0625, 0, 0)">
    <defs>
      <style>.fa-secondary{opacity:.4}</style>
    </defs>
    <path d="M443.3, 82L334.3, 191L406.3, 262.9A33.38 33.38 0 0 1 406.3, 310.2L337.6, 378.9L101.2, 142.45L169.9, 73.75A33.38 33.38 0 0 1 217.2, 73.75L289.1, 145.65L398.1, 36.65A16.06 16.06 0 0 1 420.7, 36.65L443.3, 59.25A16 16 0 0 1 443.3, 82z" fill="#727272" opacity="0.4" fill-opacity="1" class="Black" />
    <path d="M78.5, 165.05L314.9, 401.45L256, 460.35A66.83 66.83 0 0 1 208.7, 480L66.9, 480A66.83 66.83 0 0 1 0, 413.05L0, 271.25A66.49 66.49 0 0 1 19.6, 224z" fill="#727272" fill-opacity="1" class="Black" />
  </g>
</svg>