<?xml version='1.0' encoding='UTF-8'?>
<svg viewBox="-2.05 -2.0237 31.9975 32" xmlns="http://www.w3.org/2000/svg">
  <g transform="matrix(0.0546, 0, 0, 0.0546, 0, 0)">
    <defs>
      <style>.fa-secondary{opacity:.4}</style>
    </defs>
    <path d="M300.34, 160L339.2, 131.94A64.05 64.05 0 1 1 380.06, 172.8L352, 211.66L352, 213.22A111.93 111.93 0 1 0 298.78, 160zM211.66, 352L172, 380.64A64.06 64.06 0 1 1 131.75, 339.47L160, 300.34L160, 299.26A111.93 111.93 0 1 0 212.22, 352zM111, 0A112 112 0 1 0 160, 212.74L160, 211.66L131.75, 172.53A64 64 0 1 1 172, 131.36L211.66, 160L212.22, 160A112 112 0 0 0 111, 0zM400, 288A111.58 111.58 0 0 0 352, 298.78L352, 300.34L380.06, 339.2A64.05 64.05 0 1 1 339.2, 380.06L300.34, 352L298.78, 352A112 112 0 1 0 400, 288z" fill="#727272" opacity="0.4" fill-opacity="1" class="Black" />
    <path d="M432, 399.19A31.91 31.91 0 1 1 368.2, 401L300.34, 352L211.66, 352L143.8, 401A31.91 31.91 0 1 1 111, 368.2L160, 300.34L160, 211.66L111, 143.8A31.91 31.91 0 1 1 143.8, 111L211.66, 160L300.34, 160L368.2, 111A31.91 31.91 0 1 1 401, 143.8L352, 211.66L352, 300.34L401, 368.2A31.9 31.9 0 0 1 432, 399.19z" fill="#727272" fill-opacity="1" class="Black" />
  </g>
</svg>