<?xml version='1.0' encoding='UTF-8'?>
<svg viewBox="-1.9987 -1.9975 32 32" xmlns="http://www.w3.org/2000/svg">
  <g transform="matrix(0.0547, 0, 0, 0.0547, 0, 0)">
    <defs>
      <style>.fa-secondary{opacity:.4}</style>
    </defs>
    <path d="M193.69, 392.5C183.97, 402.25 182.6, 416.5 187.69, 429.25A60.32 60.32 0 0 1 88.96, 494.25C73.69, 478.98 69.38, 457.75 73.87, 438.15C54.27, 442.64 33.04, 438.33 17.77, 423.06A60.31 60.31 0 0 1 82.77, 324.34C95.53, 329.41 109.82, 328.03 119.53, 318.34L160, 277.87L160, 288A64 64 0 0 0 224, 352L234.2, 352z" fill="#727272" opacity="0.4" fill-opacity="1" class="Black" />
    <path d="M160.06, 192C160.06, 128 187.76, 85 223.24, 49.57A169.5 169.5 0 0 1 462.79, 49.57C497.11, 83.85 513.23, 129.17 511.93, 174.13C469.93, 151.47 417.55, 156.57 383.16, 190.93C342.28, 231.77 342.47, 298.1 382.11, 342A187.7 187.7 0 0 1 320.21, 352L224, 352A64 64 0 0 1 160, 288z" fill="#727272" fill-opacity="1" class="Black" />
  </g>
</svg>