<?xml version='1.0' encoding='UTF-8'?>
<svg viewBox="-2 -3.554 32 32" xmlns="http://www.w3.org/2000/svg">
  <g transform="matrix(0.0486, 0, 0, 0.0486, 0, 0)">
    <defs>
      <style>.fa-secondary{opacity:.4}</style>
    </defs>
    <path d="M576, 240L576, 272A16 16 0 0 1 560, 288L532, 288L512, 448L512, 464A16 16 0 0 1 496, 480L464, 480A16 16 0 0 1 448, 464L448, 448L128, 448L128, 464A16 16 0 0 1 112, 480L80, 480A16 16 0 0 1 64, 464L64, 448L44, 288L16, 288A16 16 0 0 1 0, 272L0, 240A16 16 0 0 1 16, 224L36, 224L32, 192L544, 192L540, 224L560, 224A16 16 0 0 1 576, 240z" fill="#727272" opacity="0.4" fill-opacity="1" class="Black" />
    <path d="M24.5, 44.1L0.5, 140.1A16 16 0 0 0 16, 160L113.3, 160L138.9, 32L40, 32A16 16 0 0 0 24.5, 44.1zM145.9, 160L272, 160L272, 32L171.5, 32zM304, 32L304, 160L430.1, 160L404.5, 32zM575.5, 140.1L551.5, 44.1A16 16 0 0 0 536, 32L437.1, 32L462.7, 160L560, 160A16 16 0 0 0 575.5, 140.1z" fill="#727272" fill-opacity="1" class="Black" />
  </g>
</svg>