<?xml version='1.0' encoding='UTF-8'?>
<svg viewBox="-2.0024 -4.8004 31.9975 32" xmlns="http://www.w3.org/2000/svg">
  <g transform="matrix(1.0011, 0, 0, 1.0011, 0, 0)">
    <g transform="matrix(0.0437, 0, 0, 0.0437, 0, 0)">
      <defs>
        <style>.fa-secondary{opacity:.4}</style>
      </defs>
      <path d="M83.44, 200.9C102.24, 87.1 200.94, 0 319.94, 0C438.94, 0 537.74, 87.2 556.44, 201A69.63 69.63 0 0 0 540.74, 199A72.82 72.82 0 0 0 522.74, 201.3A71.77 71.77 0 0 0 506.24, 194.5C485.74, 110.6 410.14, 48 319.94, 48C229.74, 48 154.14, 110.6 133.64, 194.6A73.62 73.62 0 0 0 117.64, 201.1A72.82 72.82 0 0 0 99.64, 198.8A67.89 67.89 0 0 0 83.44, 200.9z" fill="#727272" opacity="0.4" fill-opacity="1" class="Black" />
      <path d="M639, 335A39.92 39.92 0 0 0 617.6, 308.1A39 39 0 0 0 609.6, 274.5A40.3 40.3 0 0 0 577.9, 259.8A39.6 39.6 0 0 0 554.5, 233.6C541.8, 228.6 528.4, 231.1 517.7, 238.1C510.4, 229.7 499.9, 224 487.8, 224A40 40 0 0 0 447.8, 264C447.8, 274.1 451.9, 283 458, 290A39.5 39.5 0 0 0 447.8, 316.1A39.05 39.05 0 0 0 457.4, 342A39.74 39.74 0 0 0 457.4, 393.8A39.05 39.05 0 0 0 447.8, 419.7A39.5 39.5 0 0 0 458, 445.8A39.63 39.63 0 0 0 517.1, 498.6A40.47 40.47 0 0 0 539.1, 505.1A33.57 33.57 0 0 0 553.8, 502.2A38.75 38.75 0 0 0 577.2, 476.3A41.17 41.17 0 0 0 609.2, 461.9A40.39 40.39 0 0 0 617.5, 428.3A40.36 40.36 0 0 0 638.6, 401.4A39 39 0 0 0 631.2, 368.1A39.19 39.19 0 0 0 639, 335zM151.94, 224A39.23 39.23 0 0 0 122.34, 237.7C111.74, 230.8 98.54, 228.4 85.94, 233.3A41.06 41.06 0 0 0 62.24, 259.5A39.81 39.81 0 0 0 22.24, 307.5A39.93 39.93 0 0 0 8.54, 367.7A39.79 39.79 0 0 0 22.24, 428.2A38.59 38.59 0 0 0 30.24, 461.5A40.3 40.3 0 0 0 61.94, 476.2A40.26 40.26 0 0 0 85.34, 502.4A42 42 0 0 0 100.34, 505.3A39.46 39.46 0 0 0 122.44, 498.5A39.35 39.35 0 0 0 151.94, 512A40 40 0 0 0 191.94, 472A39.3 39.3 0 0 0 181.84, 446.1A39.3 39.3 0 0 0 191.94, 420.2A39.84 39.84 0 0 0 182.34, 394A39.74 39.74 0 0 0 182.34, 342.2A39.05 39.05 0 0 0 191.94, 316.3A39.5 39.5 0 0 0 181.74, 290.2A39.65 39.65 0 0 0 151.94, 224z" fill="#727272" fill-opacity="1" class="Black" />
    </g>
  </g>
</svg>