<?xml version='1.0' encoding='UTF-8'?>
<svg viewBox="-1.9986 -1.9998 32 31.9975" xmlns="http://www.w3.org/2000/svg">
  <g transform="matrix(0.0547, 0, 0, 0.0547, 0, 0)">
    <defs>
      <style>.fa-secondary{opacity:.4}</style>
    </defs>
    <path d="M478.31, 150.45C438.81, 109.74 377.57, 104.16 333.9, 68.21C284.09, 27.2 245.77, -9.25 175.34, 2.1C88.55, 16.1 63.61, 82.1 50.34, 159.24C39.24, 223.58 -4.08, 286.24 0.34, 352.15C4.76, 418.06 53.18, 480.58 115.34, 502.89C208.34, 536.28 262.34, 471.18 320.01, 416.44C363.7, 375 413.42, 378.72 461.01, 342.55C517.21, 299.73 532.64, 202 478.31, 150.45zM224, 352.38C162.25, 352.38 112, 302.08 112, 240.27C112, 178.46 162.27, 128.15 224, 128.15C285.73, 128.15 336, 178.44 336, 240.27A112.14 112.14 0 0 1 224, 352.38z" fill="#727272" opacity="0.4" fill-opacity="1" class="Black" />
    <path d="M224, 128A112 112 0 1 0 336, 240A112.15 112.15 0 0 0 224, 128zM216, 191.78A40 40 0 0 0 176, 231.78A16 16 0 0 1 144, 231.78A72.05 72.05 0 0 1 216, 159.86A16 16 0 1 1 216, 191.86z" fill="#727272" fill-opacity="1" class="Black" />
  </g>
</svg>