<?xml version='1.0' encoding='UTF-8'?>
<svg viewBox="-5.5065 -2 32 32" xmlns="http://www.w3.org/2000/svg">
  <g transform="matrix(0.0547, 0, 0, 0.0547, 0, 0)">
    <defs>
      <style>.fa-secondary{opacity:.4}</style>
    </defs>
    <path d="M304, 320A112 112 0 0 1 80, 320C80, 301.68 84.26, 275.6 91.69, 248.44A471.69 471.69 0 0 1 125.53, 160.44C139.53, 132.99 154.82, 110.56 169.82, 95.57L170.18, 95.21A31 31 0 0 1 213.82, 95.21L214.18, 95.57C229.18, 110.57 244.49, 132.99 258.47, 160.44A471.69 471.69 0 0 1 292.31, 248.44C299.74, 275.6 304, 301.68 304, 320z" fill="#727272" opacity="0.4" fill-opacity="1" class="Black" />
    <path d="M192, 0C86, 0 0, 214 0, 320C0, 426 86, 512 192, 512C298, 512 384, 426 384, 320C384, 214 298, 0 192, 0zM192, 432A112.12 112.12 0 0 1 80, 320C80, 301.68 84.26, 275.6 91.69, 248.44A471.69 471.69 0 0 1 125.53, 160.44C139.53, 132.99 154.82, 110.56 169.82, 95.57L170.18, 95.21A31 31 0 0 1 213.82, 95.21L214.18, 95.57C229.18, 110.57 244.49, 132.99 258.47, 160.44A471.69 471.69 0 0 1 292.31, 248.44C299.74, 275.6 304, 301.68 304, 320A112.12 112.12 0 0 1 192, 432z" fill="#727272" fill-opacity="1" class="Black" />
  </g>
</svg>