<?xml version='1.0' encoding='UTF-8'?>
<svg viewBox="-10.5773 -1.5477 31.995 32" xmlns="http://www.w3.org/2000/svg">
  <g transform="matrix(0.9991, 0, 0, 0.9991, 0, 0)">
    <g transform="matrix(0.0565, 0, 0, 0.0565, 0, 0)">
      <defs>
        <style>.fa-secondary{opacity:.4}</style>
      </defs>
      <path d="M168, 80A72 72 0 1 0 96, 152A72 72 0 0 0 168, 80zM72, 80A24 24 0 1 1 96, 104A24 24 0 0 1 72, 80zM168, 432A72 72 0 1 0 96, 504A72 72 0 0 0 168, 432zM72, 432A24 24 0 1 1 96, 456A24 24 0 0 1 72, 432zM168, 256A72 72 0 1 0 96, 328A72 72 0 0 0 168, 256zM72, 256A24 24 0 1 1 96, 280A24 24 0 0 1 72, 256z" fill="#727272" opacity="0.4" fill-opacity="1" class="Black" />
      <path d="M120, 80A24 24 0 1 0 96, 104A24 24 0 0 0 120, 80zM120, 256A24 24 0 1 0 96, 280A24 24 0 0 0 120, 256zM120, 432A24 24 0 1 0 96, 456A24 24 0 0 0 120, 432z" fill="#727272" fill-opacity="1" class="Black" />
    </g>
  </g>
</svg>