<?xml version='1.0' encoding='UTF-8'?>
<svg viewBox="-1.5477 -1.5452 32 31.995" xmlns="http://www.w3.org/2000/svg">
  <g transform="matrix(0.9991, 0, 0, 0.9991, 0, 0)">
    <g transform="matrix(0.0565, 0, 0, 0.0565, 0, 0)">
      <defs>
        <style>.fa-secondary{opacity:.4}</style>
      </defs>
      <path d="M256, 184A72 72 0 1 0 328, 256A72 72 0 0 0 256, 184z" fill="#727272" opacity="0.4" fill-opacity="1" class="Black" />
      <path d="M432, 184A72 72 0 1 0 504, 256A72 72 0 0 0 432, 184zM80, 184A72 72 0 1 0 152, 256A72 72 0 0 0 80, 184z" fill="#727272" fill-opacity="1" class="Black" />
    </g>
  </g>
</svg>