<?xml version='1.0' encoding='UTF-8'?>
<svg viewBox="-2 -2 32 32" xmlns="http://www.w3.org/2000/svg">
  <g transform="matrix(0.0547, 0, 0, 0.0547, 0, 0)">
    <defs>
      <style>.fa-secondary{opacity:.4}</style>
    </defs>
    <path d="M448, 96L448, 257.62L284.12, 376A47.89 47.89 0 0 1 227.91, 376L64, 257.62L64, 96A32 32 0 0 1 96, 64L416, 64A32 32 0 0 1 448, 96z" fill="#727272" opacity="0.4" fill-opacity="1" class="Black" />
    <path d="M336, 224L176, 224A16 16 0 0 0 160, 240L160, 256A16 16 0 0 0 176, 272L336, 272A16 16 0 0 0 352, 256L352, 240A16 16 0 0 0 336, 224zM352, 160A16 16 0 0 0 336, 144L176, 144A16 16 0 0 0 160, 160L160, 176A16 16 0 0 0 176, 192L336, 192A16 16 0 0 0 352, 176zM329.41, 41.44C312.6, 29.18 279.2, -0.35 256, 0C232.8, -0.35 199.41, 29.17 182.59, 41.44L152, 64L360, 64zM64, 129C40.12, 146.69 21.33, 160.65 18.39, 163A48 48 0 0 0 0, 200.72L0, 211.37L64, 257.61zM493.61, 163C490.67, 160.7 471.88, 146.74 448, 129.07L448, 257.61L512, 211.37L512, 200.72A48 48 0 0 0 493.61, 163zM256, 417.13A79.83 79.83 0 0 1 209.14, 401.94L0, 250.86L0, 464A48 48 0 0 0 48, 512L464, 512A48 48 0 0 0 512, 464L512, 250.86L302.86, 401.94A80 80 0 0 1 256, 417.13z" fill="#727272" fill-opacity="1" class="Black" />
  </g>
</svg>