<?xml version='1.0' encoding='UTF-8'?>
<svg viewBox="-2 0 32 32" xmlns="http://www.w3.org/2000/svg">
  <g transform="matrix(0.0625, 0, 0, 0.0625, 0, 0)">
    <defs>
      <style>.fa-secondary{opacity:.4}</style>
    </defs>
    <path d="M400, 32L48, 32A48 48 0 0 0 0, 80L0, 432A48 48 0 0 0 48, 480L400, 480A48 48 0 0 0 448, 432L448, 80A48 48 0 0 0 400, 32zM384, 360A24 24 0 0 1 360, 384L88, 384A24 24 0 0 1 64, 360L64, 152A24 24 0 0 1 88, 128L360, 128A24 24 0 0 1 384, 152z" fill="#727272" opacity="0.4" fill-opacity="1" class="Black" />
    <path d="M224, 320C197.28, 320.13 173.46, 298.33 159.3, 288C97.33, 243 78, 228.57 64, 217.77L64, 360A24 24 0 0 0 88, 384L360, 384A24 24 0 0 0 384, 360L384, 217.77C370, 228.57 350.67, 243.01 288.72, 287.97C275, 298 250.88, 320.13 224, 320zM360, 128L88, 128A24 24 0 0 0 64, 152L64, 177.17C88.35, 196.17 87.43, 196.29 178.12, 262.1C188.63, 269.77 209.5, 288.22 224, 288C238.49, 288.22 259.38, 269.76 269.88, 262.1C360.57, 196.29 359.63, 196.1 384, 177.17L384, 152A24 24 0 0 0 360, 128z" fill="#727272" fill-opacity="1" class="Black" />
  </g>
</svg>