<?xml version='1.0' encoding='UTF-8'?>
<svg viewBox="-2 -1.9988 32 32" xmlns="http://www.w3.org/2000/svg">
  <g transform="matrix(0.0547, 0, 0, 0.0547, 0, 0)">
    <defs>
      <style>.fa-secondary{opacity:.4}</style>
    </defs>
    <path d="M256.47, 352L255.53, 352C225.43, 352 195.12, 328.58 172.99, 311.48C169.39, 308.7 24.77, 202.7 0, 183.33L0, 400A48 48 0 0 0 48, 448L464, 448A48 48 0 0 0 512, 400L512, 183.36C487.54, 202.53 342.6, 308.7 339, 311.48C316.88, 328.58 286.57, 352 256.47, 352zM464, 64L48, 64A48 48 0 0 0 0, 112L0, 131A24.08 24.08 0 0 0 9.2, 149.9C39.8, 173.8 49.9, 182.3 182.6, 278.6C199.4, 290.8 232.8, 320.4 256, 320C279.2, 320.4 312.6, 290.8 329.4, 278.6C462.1, 182.3 472.2, 173.9 502.8, 149.9A23.93 23.93 0 0 0 512, 131L512, 112A48 48 0 0 0 464, 64z" fill="#727272" opacity="0.4" fill-opacity="1" class="Black" />
    <path d="M512, 131L512, 183.36C487.54, 202.53 342.6, 308.7 339, 311.48C316.88, 328.58 286.57, 352 256.47, 352L255.53, 352C225.43, 352 195.12, 328.58 172.99, 311.48C169.39, 308.7 24.77, 202.7 0, 183.33L0, 131A24.08 24.08 0 0 0 9.2, 149.9C39.8, 173.8 49.9, 182.3 182.6, 278.6C199.29, 290.72 232.35, 320 255.53, 320L256.47, 320C279.65, 320 312.71, 290.72 329.4, 278.6C462.1, 182.3 472.2, 173.9 502.8, 149.9A23.93 23.93 0 0 0 512, 131z" fill="#727272" fill-opacity="1" class="Black" />
  </g>
</svg>