<?xml version='1.0' encoding='UTF-8'?>
<svg viewBox="-2 0 32 32" xmlns="http://www.w3.org/2000/svg">
  <g transform="matrix(0.0625, 0, 0, 0.0625, 0, 0)">
    <defs>
      <style>.fa-secondary{opacity:.4}</style>
    </defs>
    <path d="M448, 336L448, 368A32 32 0 0 1 416, 400L32, 400A32 32 0 0 1 0, 368L0, 336A32 32 0 0 1 32, 304L416, 304A32 32 0 0 1 448, 336z" fill="#727272" opacity="0.4" fill-opacity="1" class="Black" />
    <path d="M448, 144L448, 176A32 32 0 0 1 416, 208L32, 208A32 32 0 0 1 0, 176L0, 144A32 32 0 0 1 32, 112L416, 112A32 32 0 0 1 448, 144z" fill="#727272" fill-opacity="1" class="Black" />
  </g>
</svg>