<?xml version='1.0' encoding='UTF-8'?>
<svg viewBox="-6.0075 0.0025 32 32" xmlns="http://www.w3.org/2000/svg">
  <g transform="matrix(0.0625, 0, 0, 0.0625, 0, 0)">
    <defs>
      <style>.fa-secondary{opacity:.4}</style>
    </defs>
    <path d="M249.46, 272L12, 272A12 12 0 0 0 0, 284L0, 312.37A12 12 0 0 0 12, 324.37L243.08, 324.37A12 12 0 0 0 254.79, 315L261.16, 286.63A12.16 12.16 0 0 0 261.45, 284.01A12 12 0 0 0 249.46, 272zM268.46, 176L12, 176A12 12 0 0 0 0, 188L0, 217.76A12 12 0 0 0 12, 229.76L262, 229.76A12 12 0 0 0 273.67, 220.32L280.18, 190.57A12.26 12.26 0 0 0 280.46, 188A12 12 0 0 0 268.46, 176z" fill="#727272" opacity="0.4" fill-opacity="1" class="Black" />
    <path d="M310.74, 472.22A249.39 249.39 0 0 1 249.64, 480.01C-38.27, 480.01 -41.1, 32.01 249.64, 32.01A290.17 290.17 0 0 1 302.32, 37.22A12 12 0 0 1 311.85, 51.22C311.79, 51.51 311.73, 51.8 311.65, 52.09L299.65, 96.46A12 12 0 0 1 285.65, 105.08C51.4, 56.29 60.17, 459.08 296.28, 404.38A12 12 0 0 1 310.64, 413.38C310.64, 413.49 310.69, 413.6 310.71, 413.71L319.52, 458.2A12 12 0 0 1 310.74, 472.22z" fill="#727272" fill-opacity="1" class="Black" />
  </g>
</svg>