<?xml version='1.0' encoding='UTF-8'?>
<svg viewBox="-2 -1.9988 32 32" xmlns="http://www.w3.org/2000/svg">
  <g transform="matrix(0.0547, 0, 0, 0.0547, 0, 0)">
    <defs>
      <style>.fa-secondary{opacity:.4}</style>
    </defs>
    <path d="M128, 272L128, 320L488, 320A24 24 0 0 1 512, 344L512, 360A24 24 0 0 1 488, 384L128, 384L128, 432C128, 453.44 102.06, 464 87, 449L7, 369A24 24 0 0 1 7, 335.06L87, 255.06C102.14, 239.94 128, 250.71 128, 272z" fill="#727272" opacity="0.4" fill-opacity="1" class="Black" />
    <path d="M505, 143.05A24 24 0 0 1 505, 177L425, 257C410, 272 384, 261.49 384, 240L384, 192L24, 192A24 24 0 0 1 0, 168L0, 152A24 24 0 0 1 24, 128L384, 128L384, 80C384, 58.64 409.9, 48 425, 63z" fill="#727272" fill-opacity="1" class="Black" />
  </g>
</svg>