<?xml version='1.0' encoding='UTF-8'?>
<svg viewBox="-1.5477 -1.5477 32 32" xmlns="http://www.w3.org/2000/svg">
  <g transform="matrix(0.9991, 0, 0, 0.9991, 0, 0)">
    <g transform="matrix(0.0565, 0, 0, 0.0565, 0, 0)">
      <defs>
        <style>.fa-secondary{opacity:.4}</style>
      </defs>
      <path d="M256, 8C119, 8 8, 119.08 8, 256C8, 392.92 119, 504 256, 504C393, 504 504, 393 504, 256C504, 119 393, 8 256, 8zM256, 384A32 32 0 1 1 288, 352A32 32 0 0 1 256, 384zM294.24, 145.59L281.44, 273.59A16 16 0 0 1 265.52, 288L246.52, 288A16 16 0 0 1 230.6, 273.59L217.8, 145.59A16 16 0 0 1 233.68, 128L278.32, 128A16 16 0 0 1 294.24, 145.59z" fill="#727272" opacity="0.4" fill-opacity="1" class="Black" />
      <path d="M278.32, 128L233.68, 128A16 16 0 0 0 217.76, 145.59L230.56, 273.59A16 16 0 0 0 246.48, 288L265.48, 288A16 16 0 0 0 281.4, 273.59L294.2, 145.59A16 16 0 0 0 278.32, 128zM256, 320A32 32 0 1 0 288, 352A32 32 0 0 0 256, 320z" fill="#727272" fill-opacity="1" class="Black" />
    </g>
  </g>
</svg>