<?xml version='1.0' encoding='UTF-8'?>
<svg viewBox="-2 0 32 32" xmlns="http://www.w3.org/2000/svg">
  <g transform="matrix(0.0625, 0, 0, 0.0625, 0, 0)">
    <defs>
      <style>.fa-secondary{opacity:.4}</style>
    </defs>
    <path d="M0, 456L0, 344C0, 322.62 25.8, 311.91 40.92, 327L72, 360L164.69, 267.31A16 16 0 0 1 187.31, 267.31L212.69, 292.69A16 16 0 0 1 212.69, 315.31L120, 408L152.92, 439C168.04, 454.12 157.33, 480 135.92, 480L24, 480A24 24 0 0 1 0, 456z" fill="#727272" opacity="0.4" fill-opacity="1" class="Black" />
    <path d="M235.31, 196.69L328, 104L295.08, 73C279.96, 57.88 290.67, 32 312.08, 32L424.08, 32A24 24 0 0 1 448, 56L448, 168C448, 189.38 422.2, 200.09 407.08, 185L376, 152L283.31, 244.69A16 16 0 0 1 260.69, 244.69L235.31, 219.31A16 16 0 0 1 235.31, 196.69z" fill="#727272" fill-opacity="1" class="Black" />
  </g>
</svg>