<?xml version='1.0' encoding='UTF-8'?>
<svg viewBox="-2 -1.9988 32 32" xmlns="http://www.w3.org/2000/svg">
  <g transform="matrix(0.0547, 0, 0, 0.0547, 0, 0)">
    <defs>
      <style>.fa-secondary{opacity:.4}</style>
    </defs>
    <path d="M148, 64L24, 64A23.94 23.94 0 0 0 0, 88L0, 212A12 12 0 0 0 12, 224L52, 224A12 12 0 0 0 64, 212L64, 128L148, 128A12 12 0 0 0 160, 116L160, 76A12 12 0 0 0 148, 64zM500, 288L460, 288A12 12 0 0 0 448, 300L448, 384L364, 384A12 12 0 0 0 352, 396L352, 436A12 12 0 0 0 364, 448L488, 448A23.94 23.94 0 0 0 512, 424L512, 300A12 12 0 0 0 500, 288z" fill="#727272" opacity="0.4" fill-opacity="1" class="Black" />
    <path d="M148, 384L64, 384L64, 300A12 12 0 0 0 52, 288L12, 288A12 12 0 0 0 0, 300L0, 424A23.94 23.94 0 0 0 24, 448L148, 448A12 12 0 0 0 160, 436L160, 396A12 12 0 0 0 148, 384zM488, 64L364, 64A12 12 0 0 0 352, 76L352, 116A12 12 0 0 0 364, 128L448, 128L448, 212A12 12 0 0 0 460, 224L500, 224A12 12 0 0 0 512, 212L512, 88A23.94 23.94 0 0 0 488, 64z" fill="#727272" fill-opacity="1" class="Black" />
  </g>
</svg>