<?xml version='1.0' encoding='UTF-8'?>
<svg viewBox="-2 0 32 32" xmlns="http://www.w3.org/2000/svg">
  <g transform="matrix(0.0625, 0, 0, 0.0625, 0, 0)">
    <defs>
      <style>.fa-secondary{opacity:.4}</style>
    </defs>
    <path d="M0, 200L0, 64A32 32 0 0 1 32, 32L168, 32A23.94 23.94 0 0 1 192, 56L192, 71.3A24 24 0 0 1 167.3, 95.3L101, 93.4L224, 216.4L184.4, 256L61.4, 133L63.3, 199.3A24 24 0 0 1 39.3, 224L24, 224A23.94 23.94 0 0 1 0, 200zM424, 288L408.7, 288A24 24 0 0 0 384.7, 312.7L386.6, 379L263.6, 256L224, 295.6L347, 418.6L280.7, 416.7A24 24 0 0 0 256, 440.7L256, 456A23.94 23.94 0 0 0 280, 480L416, 480A32 32 0 0 0 448, 448L448, 312A23.94 23.94 0 0 0 424, 288z" fill="#727272" opacity="0.4" fill-opacity="1" class="Black" />
    <path d="M101, 418.6L167.3, 416.7A24 24 0 0 1 192, 440.7L192, 456A23.94 23.94 0 0 1 168, 480L32, 480A32 32 0 0 1 0, 448L0, 312A23.94 23.94 0 0 1 24, 288L39.3, 288A24 24 0 0 1 63.3, 312.7L61.4, 379L347, 93.4L280.7, 95.3A24 24 0 0 1 256, 71.3L256, 56A23.94 23.94 0 0 1 280, 32L416, 32A32 32 0 0 1 448, 64L448, 200A23.94 23.94 0 0 1 424, 224L408.7, 224A24 24 0 0 1 384.7, 199.3L386.6, 133z" fill="#727272" fill-opacity="1" class="Black" />
  </g>
</svg>