<?xml version='1.0' encoding='UTF-8'?>
<svg viewBox="-2 0 32 32" xmlns="http://www.w3.org/2000/svg">
  <g transform="matrix(0.0625, 0, 0, 0.0625, 0, 0)">
    <defs>
      <style>.fa-secondary{opacity:.4}</style>
    </defs>
    <path d="M400, 32L48, 32A48 48 0 0 0 0, 80L0, 432A48 48 0 0 0 48, 480L400, 480A48 48 0 0 0 448, 432L448, 80A48 48 0 0 0 400, 32zM384, 259.33A23.34 23.34 0 0 1 360.67, 282.67L345.76, 282.67A23.34 23.34 0 0 1 322.44, 258.67L324.03, 202.67L118.09, 410.09A20 20 0 0 1 89.76, 410.14L69.86, 390.24A20 20 0 0 1 69.86, 361.91L277.31, 156L221.31, 157.59A23.34 23.34 0 0 1 197.31, 134.27L197.31, 119.33A23.34 23.34 0 0 1 220.67, 96L352.89, 96A31.11 31.11 0 0 1 384, 127.11z" fill="#727272" opacity="0.4" fill-opacity="1" class="Black" />
    <path d="M69.91, 361.91L277.31, 156L221.31, 157.59A23.34 23.34 0 0 1 197.31, 134.27L197.31, 119.33A23.34 23.34 0 0 1 220.67, 96L352.89, 96A31.11 31.11 0 0 1 384, 127.11L384, 259.33A23.34 23.34 0 0 1 360.67, 282.67L345.76, 282.67A23.34 23.34 0 0 1 322.44, 258.67L324.03, 202.67L118.09, 410.09A20 20 0 0 1 89.76, 410.14L69.86, 390.24A20 20 0 0 1 69.91, 361.91z" fill="#727272" fill-opacity="1" class="Black" />
  </g>
</svg>