<?xml version='1.0' encoding='UTF-8'?>
<svg viewBox="-2 0 32 32" xmlns="http://www.w3.org/2000/svg">
  <g transform="matrix(0.0625, 0, 0, 0.0625, 0, 0)">
    <defs>
      <style>.fa-secondary{opacity:.4}</style>
    </defs>
    <path d="M400, 32L48, 32A48 48 0 0 0 0, 80L0, 432A48 48 0 0 0 48, 480L400, 480A48 48 0 0 0 448, 432L448, 80A48 48 0 0 0 400, 32zM384, 232C384, 253.45 358.06, 264 343, 249L311, 217L115.52, 412.48A12 12 0 0 1 98.52, 412.48L67.52, 381.48A12 12 0 0 1 67.52, 364.48L263, 169L231, 137C215.89, 121.89 226.66, 96 248, 96L360, 96A24 24 0 0 1 384, 120z" fill="#727272" opacity="0.4" fill-opacity="1" class="Black" />
    <path d="M384, 232C384, 253.44 358.06, 264 343, 249L311, 217L115.52, 412.48A12 12 0 0 1 98.52, 412.48L67.52, 381.48A12 12 0 0 1 67.52, 364.48L263, 169L231, 137C215.89, 121.89 226.66, 96 248, 96L360, 96A24 24 0 0 1 384, 120z" fill="#727272" fill-opacity="1" class="Black" />
  </g>
</svg>