<?xml version='1.0' encoding='UTF-8'?>
<svg viewBox="-1.9999 -1.9999 32 32" xmlns="http://www.w3.org/2000/svg">
  <g transform="matrix(0.0547, 0, 0, 0.0547, 0, 0)">
    <defs>
      <style>.fa-secondary{opacity:.4}</style>
    </defs>
    <path d="M400, 320L432, 320A16 16 0 0 1 448, 336L448, 464A48 48 0 0 1 400, 512L48, 512A48 48 0 0 1 0, 464L0, 112A48 48 0 0 1 48, 64L208, 64A16 16 0 0 1 224, 80L224, 112A16 16 0 0 1 208, 128L64, 128L64, 448L384, 448L384, 336A16 16 0 0 1 400, 320z" fill="#727272" opacity="0.4" fill-opacity="1" class="Black" />
    <path d="M484, 224L466.12, 224A28 28 0 0 1 438.12, 196L438.12, 195.22L440, 128L192.91, 376.91A24 24 0 0 1 159, 377L158.94, 376.94L135, 353.09A24 24 0 0 1 135, 319.15L135.06, 319.09L384, 72L316.79, 73.9A28 28 0 0 1 288, 46.68L288, 28A28 28 0 0 1 316, 0L474.67, 0A37.33 37.33 0 0 1 512, 37.33L512, 196A28 28 0 0 1 484, 224z" fill="#727272" fill-opacity="1" class="Black" />
  </g>
</svg>