<?xml version='1.0' encoding='UTF-8'?>
<svg viewBox="-2 -2 32 32" xmlns="http://www.w3.org/2000/svg">
  <g transform="matrix(0.0547, 0, 0, 0.0547, 0, 0)">
    <defs>
      <style>.fa-secondary{opacity:.4}</style>
    </defs>
    <path d="M400, 320L432, 320A16 16 0 0 1 448, 336L448, 464A48 48 0 0 1 400, 512L48, 512A48 48 0 0 1 0, 464L0, 112A48 48 0 0 1 48, 64L208, 64A16 16 0 0 1 224, 80L224, 112A16 16 0 0 1 208, 128L64, 128L64, 448L384, 448L384, 336A16 16 0 0 1 400, 320z" fill="#727272" opacity="0.4" fill-opacity="1" class="Black" />
    <path d="M512, 24L512, 152C512, 173.47 486, 184 471, 169L435.29, 133.29L191.8, 376.77A24 24 0 0 1 157.86, 376.77L135.23, 354.14A24 24 0 0 1 135.23, 320.2L378.76, 76.68L343.05, 41C328, 25.9 338.66, 0 360, 0L488, 0A24 24 0 0 1 512, 24z" fill="#727272" fill-opacity="1" class="Black" />
  </g>
</svg>