<?xml version='1.0' encoding='UTF-8'?>
<svg viewBox="-1.9975 -4.7983 32 32" xmlns="http://www.w3.org/2000/svg">
  <g transform="matrix(0.9989, 0, 0, 0.9989, 0, 0)">
    <g transform="matrix(0.0438, 0, 0, 0.0438, 0, 0)">
      <defs>
        <style>.fa-secondary{opacity:.4}</style>
      </defs>
      <path d="M344.35, 222.25A81 81 0 0 1 352, 256C351.51, 298.66 320, 320 320, 320C320, 320 288.52, 298.66 288, 256A81.1 81.1 0 0 1 295.64, 222.25A170.14 170.14 0 0 0 344.32, 222.25z" fill="#727272" opacity="0.4" fill-opacity="1" class="Black" />
      <path d="M627, 239.08L515.13, 208.78C510.34, 202.22 504.98, 195.38 499, 188.33C500.35, 186.26 554.18, 100.33 554.18, 100.33C563.16, 86 548.12, 69 531.77, 74.93L412, 118.29A215 215 0 0 0 381.36, 106L336.89, 10.73C330.21, -3.58 309.81, -3.58 303.13, 10.73L258.66, 106A213.81 213.81 0 0 0 228, 118.29L108.24, 74.93C91.89, 69 76.86, 86 85.79, 100.35C85.79, 100.35 139.63, 186.27 140.97, 188.35Q132.54, 198.28 124.84, 208.8L13, 239.08C-4.29, 243.76 -4.29, 268.23 13, 272.91L124.87, 303.21C129.65, 309.75 134.98, 316.56 140.94, 323.59C139.6, 325.68 85.82, 411.64 85.82, 411.64C76.85, 426 91.89, 443 108.24, 437.07L228, 393.71A213.81 213.81 0 0 0 258.66, 406L303.13, 501.24C309.81, 515.55 330.21, 515.55 336.89, 501.24L381.36, 406A213.81 213.81 0 0 0 412, 393.71L531.77, 437.07C548.12, 442.99 563.16, 425.96 554.22, 411.64C554.22, 411.64 500.44, 325.64 499.1, 323.59C505.1, 316.59 510.39, 309.75 515.17, 303.21L627.04, 272.91C644.33, 268.23 644.33, 243.77 627, 239.08zM320, 352A96 96 0 0 1 240, 202.92C261.92, 216.1 289.72, 224 320, 224C350.28, 224 378.08, 216.1 400, 202.92A96 96 0 0 1 320, 352z" fill="#727272" fill-opacity="1" class="Black" />
    </g>
  </g>
</svg>