<?xml version='1.0' encoding='UTF-8'?>
<svg viewBox="-1.9948 -1.9948 32 32" xmlns="http://www.w3.org/2000/svg">
  <g transform="matrix(0.0547, 0, 0, 0.0547, 0, 0)">
    <defs>
      <style>.fa-secondary{opacity:.4}</style>
    </defs>
    <path d="M352.57, 128C324.48, 128 298.48, 132.52 275.51, 140.86L287.92, 17.75C289, 7.31 279.81, -1.18 269.33, 0.13C189.63, 10.13 128, 77.64 128, 159.43C128, 187.52 132.52, 213.52 140.86, 236.49L17.75, 224.08C7.31, 223 -1.18, 232.19 0.13, 242.67C10.13, 322.37 77.64, 384 159.43, 384C187.52, 384 213.52, 379.48 236.49, 371.14L224.08, 494.25C223.03, 504.68 232.19, 513.18 242.67, 511.87C322.37, 501.87 384, 434.36 384, 352.57C384, 324.48 379.48, 298.48 371.14, 275.51L494.25, 287.92C504.69, 288.97 513.18, 279.81 511.87, 269.33C501.87, 189.63 434.36, 128 352.57, 128zM256, 292A36 36 0 1 1 292, 256A36 36 0 0 1 256, 292z" fill="#727272" opacity="0.4" fill-opacity="1" class="Black" />
    <path d="M256, 292A36 36 0 1 1 292, 256A36 36 0 0 1 256, 292z" fill="#727272" fill-opacity="1" class="Black" />
  </g>
</svg>