<?xml version='1.0' encoding='UTF-8'?>
<svg viewBox="-2 -3.5552 32 32" xmlns="http://www.w3.org/2000/svg">
  <g transform="matrix(0.0486, 0, 0, 0.0486, 0, 0)">
    <defs>
      <style>.fa-secondary{opacity:.4}</style>
    </defs>
    <path d="M190.24, 120.94L134.76, 231.94A64.35 64.35 0 0 0 128, 260.54L128, 512L0, 512L0, 112A111.93 111.93 0 0 1 221.87, 90.91L221.5, 91.08A64.12 64.12 0 0 0 190.24, 120.94z" fill="#727272" opacity="0.4" fill-opacity="1" class="Black" />
    <path d="M572.62, 246.22L517.13, 135.22A32 32 0 0 0 501.51, 120.29L381, 66.76A32 32 0 0 0 355, 66.76L234.49, 120.32A32 32 0 0 0 218.87, 135.25L163.38, 246.25A32.08 32.08 0 0 0 160, 260.54L160, 512L288, 512L288, 416L448, 416L448, 512L576, 512L576, 260.54A32.08 32.08 0 0 0 572.62, 246.22zM416, 320L320, 320L320, 224L416, 224z" fill="#727272" fill-opacity="1" class="Black" />
  </g>
</svg>