<?xml version='1.0' encoding='UTF-8'?>
<svg viewBox="-1.9999 -1.9999 32 32" xmlns="http://www.w3.org/2000/svg">
  <g transform="matrix(0.0547, 0, 0, 0.0547, 0, 0)">
    <defs>
      <style>.fa-secondary{opacity:.4}</style>
    </defs>
    <path d="M480, 96L480, 192L128, 192L128, 32A32 32 0 0 1 160, 0L384, 0L384, 80A16 16 0 0 0 400, 96z" fill="#727272" opacity="0.4" fill-opacity="1" class="Black" />
    <path d="M64, 128L32, 128A32 32 0 0 0 0, 160L0, 480A32 32 0 0 0 32, 512L64, 512A32 32 0 0 0 96, 480L96, 160A32 32 0 0 0 64, 128zM480, 192L128, 192L128, 480A32 32 0 0 0 160, 512L480, 512A32 32 0 0 0 512, 480L512, 224A32 32 0 0 0 480, 192zM288, 432A16 16 0 0 1 272, 448L240, 448A16 16 0 0 1 224, 432L224, 400A16 16 0 0 1 240, 384L272, 384A16 16 0 0 1 288, 400zM288, 304A16 16 0 0 1 272, 320L240, 320A16 16 0 0 1 224, 304L224, 272A16 16 0 0 1 240, 256L272, 256A16 16 0 0 1 288, 272zM416, 432A16 16 0 0 1 400, 448L368, 448A16 16 0 0 1 352, 432L352, 400A16 16 0 0 1 368, 384L400, 384A16 16 0 0 1 416, 400zM416, 304A16 16 0 0 1 400, 320L368, 320A16 16 0 0 1 352, 304L352, 272A16 16 0 0 1 368, 256L400, 256A16 16 0 0 1 416, 272zM400, 96L480, 96L480, 91.42A17.92 17.92 0 0 0 474.75, 78.75L401.32, 5.25A18 18 0 0 0 388.57, 0L384, 0L384, 80A16 16 0 0 0 400, 96z" fill="#727272" fill-opacity="1" class="Black" />
  </g>
</svg>