<?xml version='1.0' encoding='UTF-8'?>
<svg viewBox="-2 -1.9988 32 32" xmlns="http://www.w3.org/2000/svg">
  <g transform="matrix(0.0547, 0, 0, 0.0547, 0, 0)">
    <defs>
      <style>.fa-secondary{opacity:.4}</style>
    </defs>
    <path d="M483.4, 244.2L351.85, 288L449.63, 288C439.71, 298.68 453.31, 284.93 403.33, 334.86L255.75, 384L353.94, 384C279, 457.11 159.42, 454.65 107.12, 438.94L107.06, 438.89L305, 241A24 24 0 0 0 271, 207L73.19, 404.87L72.99, 404.66C60.86, 364.29 46.87, 238.38 129.1, 156.23C153.88, 131.49 136.25, 149.09 214.85, 70.57C305.46, -19.94 404.58, -17.64 467.13, 44.84C517.71, 95.36 528.83, 169.74 483.4, 244.2z" fill="#727272" opacity="0.4" fill-opacity="1" class="Black" />
    <path d="M24, 512A24 24 0 0 1 7, 471L271, 207A24 24 0 0 1 305, 241L41, 505A23.92 23.92 0 0 1 24, 512z" fill="#727272" fill-opacity="1" class="Black" />
  </g>
</svg>