<?xml version='1.0' encoding='UTF-8'?>
<svg viewBox="-2.005 -2.0075 32 32" xmlns="http://www.w3.org/2000/svg">
  <g transform="matrix(0.0547, 0, 0, 0.0547, 0, 0)">
    <defs>
      <style>.fa-secondary{opacity:.4}</style>
    </defs>
    <path d="M458.38, 234.79L351.83, 288L433, 288A396.85 396.85 0 0 1 402.54, 335.12L255.73, 384L356.73, 384C321.16, 414.07 277.62, 435.1 224.14, 440.54A1130.32 1130.32 0 0 1 98.15, 447.9L98.09, 447.9L305, 241A24 24 0 0 0 271, 207L64, 414C64.08, 351.19 68, 313.95 71, 287.56C96.44, 38.2 460.21, 3.56 512, 0C510.19, 26.26 500.29, 132.86 458.38, 234.79z" fill="#727272" opacity="0.4" fill-opacity="1" class="Black" />
    <path d="M24, 512A24 24 0 0 1 7, 471L271, 207A24 24 0 0 1 305, 241L41, 505A23.92 23.92 0 0 1 24, 512z" fill="#727272" fill-opacity="1" class="Black" />
  </g>
</svg>