<?xml version='1.0' encoding='UTF-8'?>
<svg viewBox="-1.9998 -4.8014 31.9975 32" xmlns="http://www.w3.org/2000/svg">
  <g transform="matrix(0.9988, 0, 0, 0.9988, 0, 0)">
    <g transform="matrix(0.0438, 0, 0, 0.0438, 0, 0)">
      <defs>
        <style>.fa-secondary{opacity:.4}</style>
      </defs>
      <path d="M628, 0L560.7, 0A11.57 11.57 0 0 0 552.3, 3.6L479, 76.9L592, 190L636.5, 145.4A12.3 12.3 0 0 0 640, 136.9L640, 12A12 12 0 0 0 628, 0zM480.2, 320A96 96 0 1 0 576.1, 416A95.94 95.94 0 0 0 480.2, 320z" fill="#727272" opacity="0.4" fill-opacity="1" class="Black" />
      <path d="M0, 319.2A190.68 190.68 0 0 1 56.2, 183.4A79.94 79.94 0 0 1 169.2, 296.5C139.4, 326.4 184.4, 371.7 214.4, 341.8L445.1, 110.8L558.1, 223.9L507.3, 274.7C407.7, 255.6 319.9, 342.7 339.2, 443.2C324.3, 458 277.9, 511.2 191.8, 511.2C85.6, 511.2 0, 425.2 0, 319.2z" fill="#727272" fill-opacity="1" class="Black" />
    </g>
  </g>
</svg>