<?xml version='1.0' encoding='UTF-8'?>
<svg viewBox="-2 -4.7992 32 32" xmlns="http://www.w3.org/2000/svg">
  <g transform="matrix(0.9988, 0, 0, 0.9988, 0, 0)">
    <g transform="matrix(0.0438, 0, 0, 0.0438, 0, 0)">
      <defs>
        <style>.fa-secondary{opacity:.4}</style>
      </defs>
      <path d="M168, 192L344, 192L227.16, 44L266.67, 44C278.33, 44 288, 41.38 288, 38C288, 34.62 278.33, 32 266.67, 32L152, 32L152, 44L168, 44zM168, 320L168, 468L152, 468L152, 480L266.67, 480C278.33, 480 288, 477.38 288, 474C288, 470.62 278.33, 468 266.67, 468L227.16, 468L344, 320z" fill="#727272" opacity="0.4" fill-opacity="1" class="Black" />
      <path d="M640, 256C640, 261.42 640, 266.67 544, 288L416, 304L368, 320L106.67, 320L53.33, 384L18.67, 384L8, 373.33L8, 304L16, 304L16, 288L64, 288L64, 285.33L0, 277.33L0, 234.67L64, 226.67L64, 224L16, 224L16, 208L8, 208L8, 138.67L18.67, 128L53.33, 128L106.67, 192L368, 192L416, 208L544, 224C640, 245.33 640, 250.58 640, 256z" fill="#727272" fill-opacity="1" class="Black" />
    </g>
  </g>
</svg>