<?xml version='1.0' encoding='UTF-8'?>
<svg viewBox="-5.5003 -2 32 32" xmlns="http://www.w3.org/2000/svg">
  <g transform="matrix(0.0547, 0, 0, 0.0547, 0, 0)">
    <defs>
      <style>.fa-secondary{opacity:.4}</style>
    </defs>
    <path d="M384, 128L272, 128A16 16 0 0 1 256, 112L256, 0L24, 0A23.94 23.94 0 0 0 0, 23.88L0, 488A23.94 23.94 0 0 0 23.88, 512L360, 512A23.94 23.94 0 0 0 384, 488.12L384, 128zM288, 344A8 8 0 0 1 280, 352L224, 352L224, 408A8 8 0 0 1 216, 416L168, 416A8 8 0 0 1 160, 408L160, 352L104, 352A8 8 0 0 1 96, 344L96, 296A8 8 0 0 1 104, 288L160, 288L160, 232A8 8 0 0 1 168, 224L216, 224A8 8 0 0 1 224, 232L224, 288L280, 288A8 8 0 0 1 288, 296z" fill="#727272" opacity="0.4" fill-opacity="1" class="Black" />
    <path d="M377, 105L279.1, 7A24 24 0 0 0 262.1, 0L256, 0L256, 112A16 16 0 0 0 272, 128L384, 128L384, 121.9A23.9 23.9 0 0 0 377, 105zM280, 288L224, 288L224, 232A8 8 0 0 0 216, 224L168, 224A8 8 0 0 0 160, 232L160, 288L104, 288A8 8 0 0 0 96, 296L96, 344A8 8 0 0 0 104, 352L160, 352L160, 408A8 8 0 0 0 168, 416L216, 416A8 8 0 0 0 224, 408L224, 352L280, 352A8 8 0 0 0 288, 344L288, 296A8 8 0 0 0 280, 288z" fill="#727272" fill-opacity="1" class="Black" />
  </g>
</svg>