<?xml version='1.0' encoding='UTF-8'?>
<svg viewBox="-5.5003 -2 32 32" xmlns="http://www.w3.org/2000/svg">
  <g transform="matrix(0.0547, 0, 0, 0.0547, 0, 0)">
    <defs>
      <style>.fa-secondary{opacity:.4}</style>
    </defs>
    <path d="M384, 128L272, 128A16 16 0 0 1 256, 112L256, 0L24, 0A23.94 23.94 0 0 0 0, 23.88L0, 488A23.94 23.94 0 0 0 23.88, 512L360, 512A23.94 23.94 0 0 0 384, 488.12L384, 128zM164.8, 208L220.03, 208A12 12 0 0 1 231.2, 220.8L224, 332.8A12 12 0 0 1 212, 344L172, 344A12 12 0 0 1 160, 332.8L152.8, 220.8L152.8, 219.97A12 12 0 0 1 164.8, 208zM192, 440A40 40 0 1 1 232, 400A40 40 0 0 1 192, 440z" fill="#727272" opacity="0.4" fill-opacity="1" class="Black" />
    <path d="M377, 105L279.1, 7A24 24 0 0 0 262.1, 0L256, 0L256, 112A16 16 0 0 0 272, 128L384, 128L384, 121.9A23.9 23.9 0 0 0 377, 105zM160, 332.8A12 12 0 0 0 172, 344L212, 344A12 12 0 0 0 224, 332.8L231.2, 220.8A12 12 0 0 0 220, 208L164.8, 208A12 12 0 0 0 152.8, 220L152.8, 220.83zM192, 360A40 40 0 1 0 232, 400A40 40 0 0 0 192, 360z" fill="#727272" fill-opacity="1" class="Black" />
  </g>
</svg>