<?xml version='1.0' encoding='UTF-8'?>
<svg viewBox="-5.5003 -2 32 32" xmlns="http://www.w3.org/2000/svg">
  <g transform="matrix(0.0547, 0, 0, 0.0547, 0, 0)">
    <defs>
      <style>.fa-secondary{opacity:.4}</style>
    </defs>
    <path d="M384, 128L272, 128A16 16 0 0 1 256, 112L256, 0L24, 0A23.94 23.94 0 0 0 0, 23.88L0, 488A23.94 23.94 0 0 0 23.88, 512L360, 512A23.94 23.94 0 0 0 384, 488.12L384, 128zM285.4, 368.1A12 12 0 0 1 285.4, 385.1L257.1, 413.4A12 12 0 0 1 240.1, 413.4L192, 365.3L143.9, 413.4A12 12 0 0 1 126.9, 413.4L98.6, 385.1A12 12 0 0 1 98.6, 368.1L146.7, 320L98.6, 271.9A12 12 0 0 1 98.6, 254.9L126.9, 226.6A12 12 0 0 1 143.9, 226.6L192, 274.7L240.1, 226.6A12 12 0 0 1 257.1, 226.6L285.4, 254.9A12 12 0 0 1 285.4, 271.9L237.3, 320z" fill="#727272" opacity="0.4" fill-opacity="1" class="Black" />
    <path d="M377, 105L279.1, 7A24 24 0 0 0 262.1, 0L256, 0L256, 112A16 16 0 0 0 272, 128L384, 128L384, 121.9A23.9 23.9 0 0 0 377, 105zM285.43, 271.87A12 12 0 0 0 285.43, 254.87L257.13, 226.57A12 12 0 0 0 240.13, 226.57L192, 274.7L143.9, 226.6A12 12 0 0 0 126.9, 226.6L98.6, 254.9A12 12 0 0 0 98.6, 271.9L146.7, 320L98.6, 368.1A12 12 0 0 0 98.6, 385.1L126.9, 413.4A12 12 0 0 0 143.9, 413.4L192, 365.3L240.1, 413.4A12 12 0 0 0 257.1, 413.4L285.43, 385.07A12 12 0 0 0 285.43, 368.07L237.3, 320L285.4, 271.9z" fill="#727272" fill-opacity="1" class="Black" />
  </g>
</svg>