<?xml version='1.0' encoding='UTF-8'?>
<svg viewBox="-1.9998 -3.5563 31.9975 32" xmlns="http://www.w3.org/2000/svg">
  <g transform="matrix(0.0486, 0, 0, 0.0486, 0, 0)">
    <defs>
      <style>.fa-secondary{opacity:.4}</style>
    </defs>
    <path d="M384, 352.05L384, 488.12A23.94 23.94 0 0 1 360, 512L23.88, 512A23.94 23.94 0 0 1 0, 488L0, 23.88A23.94 23.94 0 0 1 24, 0L256, 0L256, 112A16 16 0 0 0 272, 128L384, 128L384, 288.05L208, 288.05A16 16 0 0 0 192, 304.05L192, 336.05A16 16 0 0 0 208, 352.05z" fill="#727272" opacity="0.4" fill-opacity="1" class="Black" />
    <path d="M272, 128L384, 128L384, 121.9A23.9 23.9 0 0 0 377, 105L279.1, 7A24 24 0 0 0 262.1, 0L256, 0L256, 112A16 16 0 0 0 272, 128zM571, 308.05L475.39, 211.55C465.29, 201.45 447.98, 208.55 447.98, 222.85L447.98, 288.05L208, 288.05A16 16 0 0 0 192, 304.05L192, 336.05A16 16 0 0 0 208, 352.05L447.93, 352.05L447.93, 417.15C447.93, 431.45 465.24, 438.55 475.34, 428.45L571.05, 332.05A17 17 0 0 0 571, 308.05z" fill="#727272" fill-opacity="1" class="Black" />
  </g>
</svg>