<?xml version='1.0' encoding='UTF-8'?>
<svg viewBox="-5.5003 -2 32 32" xmlns="http://www.w3.org/2000/svg">
  <g transform="matrix(0.0547, 0, 0, 0.0547, 0, 0)">
    <defs>
      <style>.fa-secondary{opacity:.4}</style>
    </defs>
    <path d="M86.1, 428.1C86.1, 428.9 99.3, 422.7 121, 387.9C114.3, 394.2 91.9, 412.4 86.1, 428.1zM179.9, 209.2C177, 209.2 176.9, 240.1 181.9, 256.1C187.5, 246.1 188.3, 209.2 179.9, 209.2zM260.1, 351.3C297.2, 367.1 302.9, 360.3 302.9, 360.3C307, 357.6 300.4, 348.4 260.1, 351.3zM180.2, 303.3C172.5, 323.5 162.9, 346.6 151.8, 366C170.1, 359 190.8, 348.8 214.7, 344.1C202, 334.5 189.8, 320.7 180.2, 303.3zM272, 128A16 16 0 0 1 256, 112L256, 0L24, 0A23.94 23.94 0 0 0 0, 23.88L0, 488A23.94 23.94 0 0 0 23.88, 512L360, 512A23.94 23.94 0 0 0 384, 488.12L384, 128zM293.9, 382.4C277, 382.4 251.6, 374.7 229.9, 362.9C205, 367 176.7, 377.6 150.9, 386.1C125.5, 429.9 107.7, 447.9 89.8, 447.9C84.3, 447.9 73.9, 444.8 68.3, 437.9C49.2, 414.4 95.7, 383.8 122.8, 369.9C122.9, 369.9 122.9, 369.8 123, 369.8C135.1, 348.6 152.2, 311.6 163.8, 284C155.3, 251.1 150.7, 225.3 155.7, 207C161.1, 187.3 198.8, 184.4 203.5, 213.8C208.9, 231.4 201.8, 259.5 197.3, 278C206.7, 302.8 220, 319.6 240, 331.8C259.3, 329.3 299.7, 325.4 313.6, 339C325.1, 350.4 323.1, 382.4 293.9, 382.4z" fill="#727272" opacity="0.4" fill-opacity="1" class="Black" />
    <path d="M377, 105L279.1, 7A24 24 0 0 0 262.1, 0L256, 0L256, 112A16 16 0 0 0 272, 128L384, 128L384, 121.9A23.9 23.9 0 0 0 377, 105zM240, 331.8C220, 319.6 206.7, 302.8 197.3, 278C201.8, 259.5 208.9, 231.4 203.5, 213.8C198.8, 184.4 161.1, 187.3 155.7, 207C150.7, 225.3 155.3, 251.1 163.8, 284C152.2, 311.6 135.1, 348.6 123, 369.8C122.9, 369.8 122.9, 369.9 122.8, 369.9C95.7, 383.8 49.2, 414.4 68.3, 437.9C73.9, 444.8 84.3, 447.9 89.8, 447.9C107.7, 447.9 125.5, 429.9 150.9, 386.1C176.7, 377.6 205, 367 229.9, 362.9C251.6, 374.7 277, 382.4 293.9, 382.4C323.1, 382.4 325.1, 350.4 313.6, 339C299.7, 325.4 259.3, 329.3 240, 331.8zM86.1, 428.1C91.9, 412.4 114.3, 394.2 121, 387.9C99.3, 422.7 86.1, 428.9 86.1, 428.1zM179.9, 209.2C188.3, 209.2 187.5, 246.1 181.9, 256.1C176.9, 240.1 177, 209.2 179.9, 209.2zM151.8, 366C162.9, 346.6 172.5, 323.5 180.2, 303.3C189.8, 320.7 202, 334.5 214.7, 344.1C190.8, 348.8 170.1, 359 151.8, 366zM302.9, 360.3C302.9, 360.3 297.2, 367.1 260.1, 351.3C300.4, 348.4 307, 357.6 302.9, 360.3z" fill="#727272" fill-opacity="1" class="Black" />
  </g>
</svg>