<?xml version='1.0' encoding='UTF-8'?>
<svg viewBox="-5.5003 -2 32 32" xmlns="http://www.w3.org/2000/svg">
  <g transform="matrix(0.0547, 0, 0, 0.0547, 0, 0)">
    <defs>
      <style>.fa-secondary{opacity:.4}</style>
    </defs>
    <path d="M176, 240L128, 240L128, 272L176, 272A16 16 0 0 0 176, 240zM272, 128A16 16 0 0 1 256, 112L256, 0L24, 0A23.94 23.94 0 0 0 0, 23.88L0, 488A23.94 23.94 0 0 0 23.88, 512L360, 512A23.94 23.94 0 0 0 384, 488.12L384, 128zM304, 432L292.69, 443.32A16 16 0 0 1 270.06, 443.32L240, 413.25L209.94, 443.31A16 16 0 0 1 187.31, 443.31L176, 432A16 16 0 0 1 176, 409.37L206.06, 379.31L146.74, 320L128, 320L128, 368A16 16 0 0 1 112, 384L96, 384A16 16 0 0 1 80, 368L80, 208A16 16 0 0 1 96, 192L176, 192A63.8 63.8 0 0 1 206.54, 311.92L240, 345.38L269.9, 315.48A16 16 0 0 1 292.53, 315.48L303.84, 326.79A16 16 0 0 1 303.84, 349.42L273.94, 379.32L304, 409.38A16 16 0 0 1 304, 432z" fill="#727272" opacity="0.4" fill-opacity="1" class="Black" />
    <path d="M377, 105L279.1, 7A24 24 0 0 0 262.1, 0L256, 0L256, 112A16 16 0 0 0 272, 128L384, 128L384, 121.9A23.9 23.9 0 0 0 377, 105zM273.94, 379.32L303.84, 349.42A16 16 0 0 0 303.84, 326.79L292.53, 315.48A16 16 0 0 0 269.9, 315.48L240, 345.38L206.54, 311.92A63.8 63.8 0 0 0 176, 192L96, 192A16 16 0 0 0 80, 208L80, 368A16 16 0 0 0 96, 384L112, 384A16 16 0 0 0 128, 368L128, 320L146.74, 320L206.06, 379.31L176, 409.37A16 16 0 0 0 176, 432L187.31, 443.31A16 16 0 0 0 209.94, 443.31L240, 413.25L270.06, 443.32A16 16 0 0 0 292.69, 443.32L304, 432A16 16 0 0 0 304, 409.38zM176, 272L128, 272L128, 240L176, 240A16 16 0 0 1 176, 272z" fill="#727272" fill-opacity="1" class="Black" />
  </g>
</svg>