<?xml version='1.0' encoding='UTF-8'?>
<svg viewBox="-5.5003 -2 32 32" xmlns="http://www.w3.org/2000/svg">
  <g transform="matrix(0.0547, 0, 0, 0.0547, 0, 0)">
    <defs>
      <style>.fa-secondary{opacity:.4}</style>
    </defs>
    <path d="M384, 128L272, 128A16 16 0 0 1 256, 112L256, 0L24, 0A23.94 23.94 0 0 0 0, 23.88L0, 488A23.94 23.94 0 0 0 23.88, 512L360, 512A23.94 23.94 0 0 0 384, 488.12L384, 128zM316.7, 270.7L278.7, 438.7A11.9 11.9 0 0 1 267, 448L229, 448A12 12 0 0 1 217.4, 438.9C191.6, 335.4 196.6, 357.7 191.8, 328.4L191.3, 328.4C190.2, 342.7 188.9, 345.8 165.7, 438.9A12 12 0 0 1 154.1, 448L117, 448A12 12 0 0 1 105.3, 438.6L67.5, 270.6A12 12 0 0 1 79.2, 256L103.7, 256A12 12 0 0 1 115.5, 265.7C131.1, 343.7 135.6, 375.2 136.5, 387.9C138.1, 377.7 143.8, 355.2 165.9, 265.2A11.9 11.9 0 0 1 177.6, 256.1L206.7, 256.1A12 12 0 0 1 218.4, 265.3C242.4, 365.7 247.2, 389.3 248, 394.7C247.8, 383.5 245.4, 376.9 269.6, 265.5A11.59 11.59 0 0 1 281.1, 256L305, 256A12 12 0 0 1 317, 268A11.8 11.8 0 0 1 316.7, 270.7z" fill="#727272" opacity="0.4" fill-opacity="1" class="Black" />
    <path d="M377, 105L279.1, 7A24 24 0 0 0 262.1, 0L256, 0L256, 112A16 16 0 0 0 272, 128L384, 128L384, 121.9A23.9 23.9 0 0 0 377, 105zM305, 256L281.1, 256A11.59 11.59 0 0 0 269.6, 265.5C245.4, 376.9 247.8, 383.5 248, 394.7C247.2, 389.3 242.4, 365.7 218.4, 265.3A12 12 0 0 0 206.7, 256.1L177.6, 256.1A11.9 11.9 0 0 0 165.9, 265.2C143.8, 355.2 138.1, 377.7 136.5, 387.9C135.6, 375.2 131.1, 343.7 115.5, 265.7A12 12 0 0 0 103.7, 256L79.2, 256A12 12 0 0 0 67.5, 270.6L105.3, 438.6A12 12 0 0 0 117, 448L154.1, 448A12 12 0 0 0 165.7, 438.9C188.9, 345.8 190.2, 342.7 191.3, 328.4L191.8, 328.4C196.6, 357.7 191.6, 335.4 217.4, 438.9A12 12 0 0 0 229, 448L267, 448A11.9 11.9 0 0 0 278.7, 438.7L316.7, 270.7A11.8 11.8 0 0 0 317, 268A12 12 0 0 0 305, 256z" fill="#727272" fill-opacity="1" class="Black" />
  </g>
</svg>