<?xml version='1.0' encoding='UTF-8'?>
<svg viewBox="-5.5003 -2 32 32" xmlns="http://www.w3.org/2000/svg">
  <g transform="matrix(0.0547, 0, 0, 0.0547, 0, 0)">
    <defs>
      <style>.fa-secondary{opacity:.4}</style>
    </defs>
    <path d="M384, 128L272, 128A16 16 0 0 1 256, 112L256, 0L24, 0A23.94 23.94 0 0 0 0, 23.88L0, 488A23.94 23.94 0 0 0 23.88, 512L360, 512A23.94 23.94 0 0 0 384, 488.12L384, 128zM296, 340A12 12 0 0 1 284, 352L100, 352A12 12 0 0 1 88, 340L88, 300A12 12 0 0 1 100, 288L284, 288A12 12 0 0 1 296, 300z" fill="#727272" opacity="0.4" fill-opacity="1" class="Black" />
    <path d="M377, 105L279.1, 7A24 24 0 0 0 262.1, 0L256, 0L256, 112A16 16 0 0 0 272, 128L384, 128L384, 121.9A23.9 23.9 0 0 0 377, 105zM284, 288L100, 288A12 12 0 0 0 88, 300L88, 340A12 12 0 0 0 100, 352L284, 352A12 12 0 0 0 296, 340L296, 300A12 12 0 0 0 284, 288z" fill="#727272" fill-opacity="1" class="Black" />
  </g>
</svg>