<?xml version='1.0' encoding='UTF-8'?>
<svg viewBox="-5.5003 -2 32 32" xmlns="http://www.w3.org/2000/svg">
  <g transform="matrix(0.0547, 0, 0, 0.0547, 0, 0)">
    <defs>
      <style>.fa-secondary{opacity:.4}</style>
    </defs>
    <path d="M384, 128L272, 128A16 16 0 0 1 256, 112L256, 0L24, 0A23.94 23.94 0 0 0 0, 23.88L0, 488A23.94 23.94 0 0 0 23.88, 512L360, 512A23.94 23.94 0 0 0 384, 488.12L384, 128zM320, 392C320, 413.44 294.06, 424 279, 409L224, 354L224, 392A24 24 0 0 1 200, 416L88, 416A24 24 0 0 1 64, 392L64, 280A24 24 0 0 1 88, 256L200, 256A24 24 0 0 1 224, 280L224, 318.06L279, 263.06C294, 248 320, 258.56 320, 280z" fill="#727272" opacity="0.4" fill-opacity="1" class="Black" />
    <path d="M377, 105L279.1, 7A24 24 0 0 0 262.1, 0L256, 0L256, 112A16 16 0 0 0 272, 128L384, 128L384, 121.9A23.9 23.9 0 0 0 377, 105zM279, 263.06L224, 318.06L224, 280A24 24 0 0 0 200, 256L88, 256A24 24 0 0 0 64, 280L64, 392A24 24 0 0 0 88, 416L200, 416A24 24 0 0 0 224, 392L224, 354L279, 409C294.06, 424 320, 413.44 320, 392L320, 280C320, 258.56 294, 248 279, 263.06z" fill="#727272" fill-opacity="1" class="Black" />
  </g>
</svg>