<?xml version='1.0' encoding='UTF-8'?>
<svg viewBox="-2 -4.7992 32 32" xmlns="http://www.w3.org/2000/svg">
  <g transform="matrix(0.9988, 0, 0, 0.9988, 0, 0)">
    <g transform="matrix(0.0438, 0, 0, 0.0438, 0, 0)">
      <defs>
        <style>.fa-secondary{opacity:.4}</style>
      </defs>
      <path d="M300.59, 257.71A160.1 160.1 0 0 0 384, 466.71L384, 488.16A23.94 23.94 0 0 1 360, 512L23.88, 512A23.94 23.94 0 0 1 0, 488L0, 23.88A23.94 23.94 0 0 1 24, 0L256, 0L256, 112A16 16 0 0 0 272, 128L384, 128L384, 173.33A160.34 160.34 0 0 0 300.59, 257.71z" fill="#727272" opacity="0.4" fill-opacity="1" class="Black" />
      <path d="M384, 121.9A23.9 23.9 0 0 0 377, 105L279.1, 7A24 24 0 0 0 262.1, 0L256, 0L256, 112A16 16 0 0 0 272, 128L384, 128zM635.31, 462.06L557.9, 384.65A126.65 126.65 0 0 0 576, 320A128 128 0 1 0 448, 448C471.7, 448 493.61, 441.12 512.65, 429.89L590.06, 507.31A16 16 0 0 0 612.69, 507.31L635.31, 484.69A16 16 0 0 0 635.31, 462.06zM448, 384A64 64 0 1 1 512, 320A64 64 0 0 1 448, 384z" fill="#727272" fill-opacity="1" class="Black" />
    </g>
  </g>
</svg>