<?xml version='1.0' encoding='UTF-8'?>
<svg viewBox="-5.5003 -2 32 32" xmlns="http://www.w3.org/2000/svg">
  <g transform="matrix(0.0547, 0, 0, 0.0547, 0, 0)">
    <defs>
      <style>.fa-secondary{opacity:.4}</style>
    </defs>
    <path d="M384, 128L272, 128A16 16 0 0 1 256, 112L256, 0L24, 0A23.94 23.94 0 0 0 0, 23.88L0, 488A23.94 23.94 0 0 0 23.88, 512L360, 512A23.94 23.94 0 0 0 384, 488.12L384, 128zM112.54, 176A48 48 0 1 1 64.54, 224A48 48 0 0 1 112.54, 176zM320.54, 416L64.54, 416L65, 367.52L104.51, 328C109.2, 323.31 116.31, 323.8 121, 328.48L160.54, 368L264, 264.48A12 12 0 0 1 281, 264.48L320.54, 304z" fill="#727272" opacity="0.4" fill-opacity="1" class="Black" />
    <path d="M377, 105L279.1, 7A24 24 0 0 0 262.1, 0L256, 0L256, 112A16 16 0 0 0 272, 128L384, 128L384, 121.9A23.9 23.9 0 0 0 377, 105zM112.54, 272A48 48 0 1 0 64.54, 224A48 48 0 0 0 112.54, 272zM264, 264.45L160.54, 368L121, 328.48C116.31, 323.8 109.2, 323.31 104.51, 328L65, 367.52L64.54, 416L320.54, 416L320.54, 304L281, 264.48A12 12 0 0 0 264, 264.45z" fill="#727272" fill-opacity="1" class="Black" />
  </g>
</svg>