<?xml version='1.0' encoding='UTF-8'?>
<svg viewBox="-5.5003 -2 32 32" xmlns="http://www.w3.org/2000/svg">
  <g transform="matrix(0.0547, 0, 0, 0.0547, 0, 0)">
    <defs>
      <style>.fa-secondary{opacity:.4}</style>
    </defs>
    <path d="M96, 320L288, 320L288, 256L96, 256zM384, 128L272, 128A16 16 0 0 1 256, 112L256, 0L24, 0A23.94 23.94 0 0 0 0, 23.88L0, 488A23.94 23.94 0 0 0 23.88, 512L360, 512A23.94 23.94 0 0 0 384, 488.12L384, 128zM64, 72A8 8 0 0 1 72, 64L152, 64A8 8 0 0 1 160, 72L160, 88A8 8 0 0 1 152, 96L72, 96A8 8 0 0 1 64, 88zM64, 136A8 8 0 0 1 72, 128L152, 128A8 8 0 0 1 160, 136L160, 152A8 8 0 0 1 152, 160L72, 160A8 8 0 0 1 64, 152zM320, 440A8 8 0 0 1 312, 448L232, 448A8 8 0 0 1 224, 440L224, 424A8 8 0 0 1 232, 416L312, 416A8 8 0 0 1 320, 424zM320, 336A16 16 0 0 1 304, 352L80, 352A16 16 0 0 1 64, 336L64, 240A16 16 0 0 1 80, 224L304, 224A16 16 0 0 1 320, 240z" fill="#727272" opacity="0.4" fill-opacity="1" class="Black" />
    <path d="M377, 105L279.1, 7A24 24 0 0 0 262.1, 0L256, 0L256, 112A16 16 0 0 0 272, 128L384, 128L384, 121.9A23.9 23.9 0 0 0 377, 105zM304, 224L80, 224A16 16 0 0 0 64, 240L64, 336A16 16 0 0 0 80, 352L304, 352A16 16 0 0 0 320, 336L320, 240A16 16 0 0 0 304, 224zM288, 320L96, 320L96, 256L288, 256zM312, 416L232, 416A8 8 0 0 0 224, 424L224, 440A8 8 0 0 0 232, 448L312, 448A8 8 0 0 0 320, 440L320, 424A8 8 0 0 0 312, 416z" fill="#727272" fill-opacity="1" class="Black" />
  </g>
</svg>