<?xml version='1.0' encoding='UTF-8'?>
<svg viewBox="-5.5003 -2 32 32" xmlns="http://www.w3.org/2000/svg">
  <g transform="matrix(0.0547, 0, 0, 0.0547, 0, 0)">
    <defs>
      <style>.fa-secondary{opacity:.4}</style>
    </defs>
    <path d="M384, 128L272, 128A16 16 0 0 1 256, 112L256, 0L24, 0A23.94 23.94 0 0 0 0, 23.88L0, 488A23.94 23.94 0 0 0 23.88, 512L360, 512A23.94 23.94 0 0 0 384, 488.12L384, 128zM300.45, 347.36L204, 443.06A17.06 17.06 0 0 1 180, 443.06L83.58, 347.36C73.42, 337.29 80.54, 320 94.82, 320L160, 320L160, 240A16 16 0 0 1 176, 224L208, 224A16 16 0 0 1 224, 240L224, 320L289.18, 320C303.46, 320 310.58, 337.29 300.45, 347.36z" fill="#727272" opacity="0.4" fill-opacity="1" class="Black" />
    <path d="M377, 105L279.1, 7A24 24 0 0 0 262.1, 0L256, 0L256, 112A16 16 0 0 0 272, 128L384, 128L384, 121.9A23.9 23.9 0 0 0 377, 105zM289.18, 320L224, 320L224, 240A16 16 0 0 0 208, 224L176, 224A16 16 0 0 0 160, 240L160, 320L94.82, 320C80.54, 320 73.42, 337.29 83.58, 347.36L180, 443.06A17.06 17.06 0 0 0 204, 443.06L300.45, 347.36C310.58, 337.29 303.46, 320 289.18, 320z" fill="#727272" fill-opacity="1" class="Black" />
  </g>
</svg>