<?xml version='1.0' encoding='UTF-8'?>
<svg viewBox="-5.5003 -2 32 32" xmlns="http://www.w3.org/2000/svg">
  <g transform="matrix(0.0547, 0, 0, 0.0547, 0, 0)">
    <defs>
      <style>.fa-secondary{opacity:.4}</style>
    </defs>
    <path d="M384, 128L272, 128A16 16 0 0 1 256, 112L256, 0L24, 0A23.94 23.94 0 0 0 0, 23.88L0, 488A23.94 23.94 0 0 0 23.88, 512L360, 512A23.94 23.94 0 0 0 384, 488.12L384, 128zM280.51, 446.09A12 12 0 0 1 274, 448L239.1, 448A12 12 0 0 1 228.5, 441.7C208.9, 405.5 192, 373 192, 373C185.6, 387.8 182, 393 155.4, 441.8A11.89 11.89 0 0 1 144.9, 448.1L110, 448.1A12 12 0 0 1 99.9, 429.6L160.2, 336.1L99.9, 242.6A12 12 0 0 1 110, 224.1L144.8, 224.1A12 12 0 0 1 155.4, 230.4C181.5, 279.2 175.4, 264 192, 298.9C192, 298.9 198.1, 287.2 228.6, 230.4A12 12 0 0 1 239.2, 224.1L274, 224.1A11.93 11.93 0 0 1 284.1, 242.5L224, 336L284.1, 429.5A12 12 0 0 1 280.51, 446.09z" fill="#727272" opacity="0.4" fill-opacity="1" class="Black" />
    <path d="M377, 105L279.1, 7A24 24 0 0 0 262.1, 0L256, 0L256, 112A16 16 0 0 0 272, 128L384, 128L384, 121.9A23.9 23.9 0 0 0 377, 105zM224, 336L284.1, 242.5A11.93 11.93 0 0 0 274, 224.1L239.2, 224.1A12 12 0 0 0 228.6, 230.4C198.1, 287.2 192, 298.9 192, 298.9C175.4, 264 181.5, 279.2 155.4, 230.4A12 12 0 0 0 144.8, 224.1L110, 224.1A12 12 0 0 0 99.9, 242.6L160.2, 336.1L99.9, 429.6A12 12 0 0 0 110, 448.1L144.9, 448.1A11.89 11.89 0 0 0 155.4, 441.8C182, 393 185.6, 387.8 192, 373C192, 373 208.9, 405.5 228.5, 441.7A12 12 0 0 0 239.1, 448L274, 448A12 12 0 0 0 284.1, 429.5z" fill="#727272" fill-opacity="1" class="Black" />
  </g>
</svg>