<?xml version='1.0' encoding='UTF-8'?>
<svg viewBox="-5.5003 -2 32 32" xmlns="http://www.w3.org/2000/svg">
  <g transform="matrix(0.0547, 0, 0, 0.0547, 0, 0)">
    <defs>
      <style>.fa-secondary{opacity:.4}</style>
    </defs>
    <path d="M272, 128A16 16 0 0 1 256, 112L256, 0L160, 0L160, 32L128, 32L128, 0L24, 0A23.94 23.94 0 0 0 0, 23.88L0, 488A23.94 23.94 0 0 0 23.88, 512L360, 512A23.94 23.94 0 0 0 384, 488.12L384, 128zM95.9, 32L127.9, 32L127.9, 64L95.9, 64zM179.37, 374.08A52.43 52.43 0 1 1 76.63, 353.08L96, 256L96, 224L128, 224L128, 192L96, 192L96, 160L128, 160L128, 128L96, 128L96, 96L128, 96L128, 64L160, 64L160, 96L128, 96L128, 128L160, 128L160, 160L128, 160L128, 192L160, 192L160, 224L128, 224L128, 256L150.33, 256A12.08 12.08 0 0 1 162.13, 265.7L179.43, 353.4A52.54 52.54 0 0 1 179.37, 374.08z" fill="#727272" opacity="0.4" fill-opacity="1" class="Black" />
    <path d="M377, 105L279.1, 7A24 24 0 0 0 262.1, 0L256, 0L256, 112A16 16 0 0 0 272, 128L384, 128L384, 121.9A23.9 23.9 0 0 0 377, 105zM127.9, 32L95.9, 32L95.9, 64L127.9, 64zM96, 160L96, 192L128, 192L128, 160zM160, 0L128, 0L128, 32L160, 32zM96, 96L96, 128L128, 128L128, 96zM179.43, 353.4L162.13, 265.7A12.08 12.08 0 0 0 150.33, 256L128, 256L128, 224L96, 224L96, 256L76.63, 353.1A52.43 52.43 0 1 0 179.43, 353.4zM128.33, 390C110.43, 390 95.83, 378 95.83, 363C95.83, 348 110.33, 336 128.23, 336C146.13, 336 160.73, 348.1 160.73, 363C160.73, 377.9 146.23, 390 128.33, 390zM160, 192L128, 192L128, 224L160, 224zM160, 128L128, 128L128, 160L160, 160zM160, 64L128, 64L128, 96L160, 96z" fill="#727272" fill-opacity="1" class="Black" />
  </g>
</svg>