<?xml version='1.0' encoding='UTF-8'?>
<svg viewBox="-5.5003 -2 32 32" xmlns="http://www.w3.org/2000/svg">
  <g transform="matrix(0.0547, 0, 0, 0.0547, 0, 0)">
    <defs>
      <style>.fa-secondary{opacity:.4}</style>
    </defs>
    <path d="M384, 128L272, 128A16 16 0 0 1 256, 112L256, 0L24, 0A23.94 23.94 0 0 0 0, 23.88L0, 488A23.94 23.94 0 0 0 23.88, 512L360, 512A23.94 23.94 0 0 0 384, 488.12L384, 128zM136.47, 438.5A111.26 111.26 0 0 1 73.47, 375.5C43.47, 298.14 90.91, 224.8 160, 210.66L160, 352L301.34, 352C287.2, 421.09 213.86, 468.58 136.47, 438.5zM192, 320L192, 199.86A120.12 120.12 0 0 1 312.14, 320z" fill="#727272" opacity="0.4" fill-opacity="1" class="Black" />
    <path d="M377, 105L279.1, 7A24 24 0 0 0 262.1, 0L256, 0L256, 112A16 16 0 0 0 272, 128L384, 128L384, 121.9A23.9 23.9 0 0 0 377, 105zM160, 210.66C90.91, 224.8 43.42, 298.14 73.47, 375.5A111.26 111.26 0 0 0 136.47, 438.5C213.86, 468.58 287.2, 421.09 301.34, 352L160, 352z" fill="#727272" fill-opacity="1" class="Black" />
  </g>
</svg>