<?xml version='1.0' encoding='UTF-8'?>
<svg viewBox="-5.5003 -2 32 32" xmlns="http://www.w3.org/2000/svg">
  <g transform="matrix(0.0547, 0, 0, 0.0547, 0, 0)">
    <defs>
      <style>.fa-secondary{opacity:.4}</style>
    </defs>
    <path d="M384, 128L272, 128A16 16 0 0 1 256, 112L256, 0L24, 0A23.94 23.94 0 0 0 0, 23.88L0, 488A23.94 23.94 0 0 0 23.88, 512L360, 512A23.94 23.94 0 0 0 384, 488.12L384, 128zM141.79, 379.54L122.21, 400.38A5.41 5.41 0 0 1 114.57, 400.62L49.71, 339.93A5.37 5.37 0 0 1 49.47, 332.33L49.72, 332.08L114.58, 271.38A5.42 5.42 0 0 1 122.22, 271.62L141.8, 292.47A5.4 5.4 0 0 1 141.55, 300.09L141.42, 300.21L100.65, 336L141.41, 371.8A5.4 5.4 0 0 1 141.9, 379.42zM173.5, 450.79L146.05, 442.79A5.38 5.38 0 0 1 142.38, 436.12L203.87, 224.88A5.38 5.38 0 0 1 210.55, 221.24L238, 229.24A5.4 5.4 0 0 1 241.63, 235.91L180.18, 447.11A5.4 5.4 0 0 1 173.5, 450.79zM334.5, 339.67L334.25, 339.92L269.39, 400.61A5.42 5.42 0 0 1 261.75, 400.38L242.17, 379.54A5.37 5.37 0 0 1 242.43, 371.94L242.56, 371.82L283.35, 336L242.59, 300.2A5.4 5.4 0 0 1 242.1, 292.58L242.21, 292.46L261.79, 271.61A5.42 5.42 0 0 1 269.43, 271.37L334.29, 332.07A5.36 5.36 0 0 1 334.54, 339.67z" fill="#727272" opacity="0.4" fill-opacity="1" class="Black" />
    <path d="M377, 105L279.1, 7A24 24 0 0 0 262.1, 0L256, 0L256, 112A16 16 0 0 0 272, 128L384, 128L384, 121.9A23.9 23.9 0 0 0 377, 105zM141.41, 371.8L100.65, 336L141.41, 300.2L141.54, 300.08A5.4 5.4 0 0 0 141.79, 292.46L122.21, 271.61A5.42 5.42 0 0 0 114.57, 271.37L49.71, 332.07L49.46, 332.32A5.37 5.37 0 0 0 49.7, 339.92L114.56, 400.61A5.41 5.41 0 0 0 122.2, 400.37L141.78, 379.53L141.89, 379.41A5.4 5.4 0 0 0 141.41, 371.8zM241.63, 235.87A5.4 5.4 0 0 0 238, 229.2L210.55, 221.2A5.38 5.38 0 0 0 203.87, 224.84L142.37, 436.13A5.38 5.38 0 0 0 146, 442.8L173.45, 450.8A5.4 5.4 0 0 0 180.13, 447.12L241.57, 235.9zM334.29, 332.07L269.43, 271.37A5.42 5.42 0 0 0 261.79, 271.61L242.21, 292.46L242.1, 292.58A5.4 5.4 0 0 0 242.59, 300.2L283.35, 336L242.59, 371.8L242.46, 371.92A5.37 5.37 0 0 0 242.2, 379.52L261.78, 400.36A5.42 5.42 0 0 0 269.42, 400.59L334.28, 339.9L334.53, 339.65A5.36 5.36 0 0 0 334.28, 332.05z" fill="#727272" fill-opacity="1" class="Black" />
  </g>
</svg>