<?xml version='1.0' encoding='UTF-8'?>
<svg viewBox="-5.5003 -2 32 32" xmlns="http://www.w3.org/2000/svg">
  <g transform="matrix(0.0547, 0, 0, 0.0547, 0, 0)">
    <defs>
      <style>.fa-secondary{opacity:.4}</style>
    </defs>
    <path d="M384, 128L272, 128A16 16 0 0 1 256, 112L256, 0L24, 0A23.94 23.94 0 0 0 0, 23.88L0, 488A23.94 23.94 0 0 0 23.88, 512L360, 512A23.94 23.94 0 0 0 384, 488.12L384, 128zM288, 372A12 12 0 0 1 276, 384L108, 384A12 12 0 0 1 96, 372L96, 364A12 12 0 0 1 108, 352L276, 352A12 12 0 0 1 288, 364zM288, 308A12 12 0 0 1 276, 320L108, 320A12 12 0 0 1 96, 308L96, 300A12 12 0 0 1 108, 288L276, 288A12 12 0 0 1 288, 300zM288, 244A12 12 0 0 1 276, 256L108, 256A12 12 0 0 1 96, 244L96, 236A12 12 0 0 1 108, 224L276, 224A12 12 0 0 1 288, 236z" fill="#727272" opacity="0.4" fill-opacity="1" class="Black" />
    <path d="M377, 105L279.1, 7A24 24 0 0 0 262.1, 0L256, 0L256, 112A16 16 0 0 0 272, 128L384, 128L384, 121.9A23.9 23.9 0 0 0 377, 105zM276, 352L108, 352A12 12 0 0 0 96, 364L96, 372A12 12 0 0 0 108, 384L276, 384A12 12 0 0 0 288, 372L288, 364A12 12 0 0 0 276, 352zM276, 288L108, 288A12 12 0 0 0 96, 300L96, 308A12 12 0 0 0 108, 320L276, 320A12 12 0 0 0 288, 308L288, 300A12 12 0 0 0 276, 288zM276, 224L108, 224A12 12 0 0 0 96, 236L96, 244A12 12 0 0 0 108, 256L276, 256A12 12 0 0 0 288, 244L288, 236A12 12 0 0 0 276, 224z" fill="#727272" fill-opacity="1" class="Black" />
  </g>
</svg>