<?xml version='1.0' encoding='UTF-8'?>
<svg viewBox="-1.9998 -3.5563 31.9975 32" xmlns="http://www.w3.org/2000/svg">
  <g transform="matrix(0.0486, 0, 0, 0.0486, 0, 0)">
    <defs>
      <style>.fa-secondary{opacity:.4}</style>
    </defs>
    <path d="M320, 448L32, 448L32, 96L320, 96z" fill="#727272" opacity="0.4" fill-opacity="1" class="Black" />
    <path d="M544, 128L320, 128L320, 416L480, 416A32 32 0 0 0 512, 384L512, 352A32 32 0 0 1 544, 320A32 32 0 0 0 576, 288L576, 160A32 32 0 0 0 544, 128zM440, 360A16 16 0 0 1 424, 376L408, 376A16 16 0 0 1 392, 360L392, 344A16 16 0 0 1 408, 328L424, 328A16 16 0 0 1 440, 344zM440, 200A16 16 0 0 1 424, 216L408, 216A16 16 0 0 1 392, 200L392, 184A16 16 0 0 1 408, 168L424, 168A16 16 0 0 1 440, 184zM536, 200A16 16 0 0 1 520, 216L504, 216A16 16 0 0 1 488, 200L488, 184A16 16 0 0 1 504, 168L520, 168A16 16 0 0 1 536, 184zM16, 96L336, 96A16 16 0 0 0 352, 80L352, 48A16 16 0 0 0 336, 32L256, 32L256, 16A16 16 0 0 0 240, 0L112, 0A16 16 0 0 0 96, 16L96, 32L16, 32A16 16 0 0 0 0, 48L0, 80A16 16 0 0 0 16, 96zM336, 448L16, 448A16 16 0 0 0 0, 464L0, 496A16 16 0 0 0 16, 512L336, 512A16 16 0 0 0 352, 496L352, 464A16 16 0 0 0 336, 448z" fill="#727272" fill-opacity="1" class="Black" />
  </g>
</svg>