<?xml version='1.0' encoding='UTF-8'?>
<svg viewBox="-2.0025 -2 32 32" xmlns="http://www.w3.org/2000/svg">
  <g transform="matrix(0.0547, 0, 0, 0.0547, 0, 0)">
    <defs>
      <style>.fa-secondary{opacity:.4}</style>
    </defs>
    <path d="M506.1, 203.57A24 24 0 1 0 459.23, 213.91C463.94, 235.32 464.14, 251.32 463.93, 275.51A24 24 0 0 0 487.73, 299.71L487.93, 299.71A24 24 0 0 0 511.93, 275.91C512.11, 253.73 512.33, 231.8 506.1, 203.57zM256.11, 246A24 24 0 0 0 232.11, 270A731.23 731.23 0 0 1 204.41, 481.55C201.68, 491.27 206.56, 512.04 227.53, 512.04A24 24 0 0 0 250.62, 494.52A774 774 0 0 0 280.1, 270A24 24 0 0 0 256.11, 246zM144.56, 144.45A24 24 0 0 0 110.8, 147.93A173.44 173.44 0 0 0 72.05, 259.93A580.75 580.75 0 0 1 62.94, 372A24 24 0 0 0 82.3, 399.87C102.41, 403.37 109.37, 385.06 110.19, 380.51A629 629 0 0 0 120.05, 259.18A123.59 123.59 0 0 1 148.05, 178.18A24 24 0 0 0 144.56, 144.45z" fill="#727272" opacity="0.4" fill-opacity="1" class="Black" />
    <path d="M466, 112.85A266 266 0 0 0 252.8, 0C183, -0.82 118.46, 24.91 70.45, 72.94A238.49 238.49 0 0 0 0.13, 246.65L0, 268.12A24 24 0 0 0 23.28, 292.81L24, 292.81A24 24 0 0 0 48, 269.51L48.16, 245.87A190.77 190.77 0 0 1 104.44, 106.87C143.18, 68.09 195.76, 47.22 252.1, 48A217.86 217.86 0 0 1 426.72, 140.39A24 24 0 1 0 466, 112.85zM254, 82.12A178.75 178.75 0 0 0 208.22, 87.12A24 24 0 1 0 219.28, 133.84A143.52 143.52 0 0 1 253.28, 130.15C328.71, 131.28 391.01, 191.65 392.16, 264.73A881.07 881.07 0 0 1 386.58, 378.36A24 24 0 0 0 407.69, 404.94C424.41, 406.89 433.2, 393.06 434.27, 383.83A929.94 929.94 0 0 0 440.19, 264C438.63, 165.2 355.12, 83.62 254, 82.12zM255.22, 164.23C193.96, 164.16 151.22, 211.3 152.06, 265.32A656.09 656.09 0 0 1 138.69, 407.87A24 24 0 1 0 185.69, 417.59A704 704 0 0 0 200.06, 264.59C199.65, 238.64 219.98, 212.1 254.51, 212.25C285.82, 212.72 311.66, 237.59 312.13, 267.72A804 804 0 0 1 301.52, 411.27A24 24 0 0 0 321.28, 438.85C341.28, 442.18 348.09, 423.75 348.86, 419.08A853 853 0 0 0 360.16, 267C359.28, 211.15 312.22, 165.07 255.25, 164.23z" fill="#727272" fill-opacity="1" class="Black" />
  </g>
</svg>