<?xml version='1.0' encoding='UTF-8'?>
<svg viewBox="-3.7495 -2 32 32" xmlns="http://www.w3.org/2000/svg">
  <g transform="matrix(0.0547, 0, 0, 0.0547, 0, 0)">
    <defs>
      <style>.fa-secondary{opacity:.4}</style>
    </defs>
    <path d="M256, 67.09L256, 72C256, 70.82 255.9, 69.06 256, 67.09zM46.29, 184.91A24 24 0 0 1 1.72, 167.09C16.39, 130.42 39.72, 89.25 91.77, 76.2C77.63, 39.68 104.57, 0 144, 0A56 56 0 0 1 197.67, 72L256, 72L256, 120L216, 120L216, 146A96.87 96.87 0 0 0 168, 146L168, 120C107, 120 75.06, 113 46.29, 184.91zM144, 72A16 16 0 1 0 128, 56A16 16 0 0 0 144, 72zM256, 125.54L256, 120A51.87 51.87 0 0 0 256, 125.54z" fill="#727272" opacity="0.4" fill-opacity="1" class="Black" />
    <path d="M434, 26.33L266, 54.33C257.85, 55.69 256.23, 62.06 256, 67.09L256, 125.54C256.38, 130.33 258.24, 136.37 266, 137.67L434, 165.67A12 12 0 0 0 448, 153.83L448, 38.17A12 12 0 0 0 434, 26.33zM192, 143A96 96 0 0 0 96, 239L96, 480A32 32 0 0 0 128, 512L256, 512A32 32 0 0 0 288, 480L288, 239A96 96 0 0 0 192, 143z" fill="#727272" fill-opacity="1" class="Black" />
  </g>
</svg>