<?xml version='1.0' encoding='UTF-8'?>
<svg viewBox="-2 -4.7992 32 32" xmlns="http://www.w3.org/2000/svg">
  <g transform="matrix(0.9988, 0, 0, 0.9988, 0, 0)">
    <g transform="matrix(0.0438, 0, 0, 0.0438, 0, 0)">
      <defs>
        <style>.fa-secondary{opacity:.4}</style>
      </defs>
      <path d="M195.7, 283.2A145 145 0 0 0 151.2, 261.9A171.61 171.61 0 0 1 144, 213C144, 158.8 198.8, 68.9 276, 0C306.1, 26.9 332.6, 55.7 353.9, 84A458.59 458.59 0 0 1 398.1, 38.6C455.1, 89.4 495.9, 172.5 495.9, 212.8A171.61 171.61 0 0 1 488.7, 261.7A145 145 0 0 0 444.2, 283A160.46 160.46 0 0 0 407.7, 250.2A99.68 99.68 0 0 0 402.6, 172.4C400.1, 167.5 397.3, 162.3 394.2, 157L350.4, 208.7C350.4, 208.7 281.8, 118 276.6, 111.8C240.4, 156.8 222.2, 183.1 222.2, 212.9A103.85 103.85 0 0 0 229.6, 252.2A161 161 0 0 0 195.7, 283.2z" fill="#727272" opacity="0.4" fill-opacity="1" class="Black" />
      <path d="M640, 400A111.94 111.94 0 0 1 528, 512L112, 512A112 112 0 0 1 112, 288C149.1, 288 181.7, 306.3 202.1, 334.1A128 128 0 0 1 437.9, 334.1C458.3, 306.3 490.9, 288 528, 288A111.94 111.94 0 0 1 640, 400z" fill="#727272" fill-opacity="1" class="Black" />
    </g>
  </g>
</svg>