<?xml version='1.0' encoding='UTF-8'?>
<svg viewBox="-5.5003 -2 32 32" xmlns="http://www.w3.org/2000/svg">
  <g transform="matrix(0.0547, 0, 0, 0.0547, 0, 0)">
    <defs>
      <style>.fa-secondary{opacity:.4}</style>
    </defs>
    <path d="M216, 23.86C216, 9.06 204.15, 0 192, 0A24 24 0 0 0 171.9, 10.82C48, 191.85 224, 200 224, 288L224, 288.81A64 64 0 0 1 160, 352L159.13, 352C124, 351.5 96, 322.18 96, 287L96, 201.5C96, 186.98 84.17, 177.5 71.85, 177.5A23.63 23.63 0 0 0 54.57, 185C27.8, 213.16 0, 261.33 0, 320C0, 425.87 86.13, 512 192, 512C297.87, 512 384, 425.87 384, 320C384, 149.71 216, 127 216, 23.86zM192, 444A123.61 123.61 0 0 1 104.22, 407.5L106.85, 408.71A129.9 129.9 0 0 0 158.24, 419.94L160.02, 419.94A132 132 0 0 0 292, 289.71L292, 288C292, 260.17 283.31, 233.56 266.16, 208.89L265.86, 208.46C276.67, 219.46 286.48, 230.74 294.47, 243.14C309.16, 265.92 316, 290.34 316, 320A124.15 124.15 0 0 1 192, 444z" fill="#727272" opacity="0.4" fill-opacity="1" class="Black" />
    <path d="M265.86, 208.46C276.67, 219.46 286.48, 230.74 294.47, 243.14C309.16, 265.92 316, 290.34 316, 320A123.94 123.94 0 0 1 104.22, 407.5L106.85, 408.71A129.9 129.9 0 0 0 158.24, 419.94L160.02, 419.94A132 132 0 0 0 292, 289.71L292, 288C292, 260.17 283.31, 233.56 266.16, 208.89L265.86, 208.46" fill="#727272" fill-opacity="1" class="Black" />
  </g>
</svg>