<?xml version='1.0' encoding='UTF-8'?>
<svg viewBox="-1.9999 -3.5554 31.9994 32" xmlns="http://www.w3.org/2000/svg">
  <g transform="matrix(0.0486, 0, 0, 0.0486, 0, 0)">
    <defs>
      <style>.fa-secondary{opacity:.4}</style>
    </defs>
    <path d="M64, 480L128, 480L128, 32L64, 32zM448, 32L448, 480L512, 480L512, 32z" fill="#727272" opacity="0.4" fill-opacity="1" class="Black" />
    <path d="M128, 480L448, 480L448, 32L128, 32zM192, 232A8 8 0 0 1 200, 224L256, 224L256, 168A8 8 0 0 1 264, 160L312, 160A8 8 0 0 1 320, 168L320, 224L376, 224A8 8 0 0 1 384, 232L384, 280A8 8 0 0 1 376, 288L320, 288L320, 344A8 8 0 0 1 312, 352L264, 352A8 8 0 0 1 256, 344L256, 288L200, 288A8 8 0 0 1 192, 280zM0, 80L0, 432A48 48 0 0 0 48, 480L64, 480L64, 32L48, 32A48 48 0 0 0 0, 80zM528, 32L512, 32L512, 480L528, 480A48 48 0 0 0 576, 432L576, 80A48 48 0 0 0 528, 32z" fill="#727272" fill-opacity="1" class="Black" />
  </g>
</svg>