<?xml version='1.0' encoding='UTF-8'?>
<svg viewBox="-1.9975 -4.7983 32 32" xmlns="http://www.w3.org/2000/svg">
  <g transform="matrix(0.9989, 0, 0, 0.9989, 0, 0)">
    <g transform="matrix(0.0438, 0, 0, 0.0438, 0, 0)">
      <defs>
        <style>.fa-secondary{opacity:.4}</style>
      </defs>
      <path d="M363.43, 64C263.43, 64 176.17, 129.72 127.58, 186L30.58, 106.74C17.07, 95.68 -3, 107.42 0.39, 124.29L27.26, 256L0.38, 387.73C-3, 404.6 17.06, 416.32 30.53, 405.32L127.53, 326.06C176.16, 382.28 263.47, 448 363.43, 448C516.17, 448 640, 294.4 640, 256C640, 217.6 516.17, 64 363.43, 64zM245.68, 261.68L234.37, 250.37A8 8 0 0 1 234.37, 239.06L319, 154.34A8 8 0 0 1 330.31, 154.34L341.63, 165.66A8 8 0 0 1 341.63, 176.97L257, 261.65A8 8 0 0 1 245.68, 261.68zM304.96, 341.68A8 8 0 0 1 293.65, 341.68L282.34, 330.37A8 8 0 0 1 282.34, 319.06L431, 170.34A8 8 0 0 1 442.31, 170.34L453.63, 181.66A8 8 0 0 1 453.63, 192.97zM501.69, 273L417, 357.65A8 8 0 0 1 405.69, 357.65L394.38, 346.34A8 8 0 0 1 394.38, 335.03L479, 250.34A8 8 0 0 1 490.31, 250.34L501.63, 261.66A8 8 0 0 1 501.69, 273z" fill="#727272" opacity="0.4" fill-opacity="1" class="Black" />
      <path d="M453.63, 193A8 8 0 0 0 453.63, 181.69L442.3, 170.33A8 8 0 0 0 430.99, 170.33L282.34, 319A8 8 0 0 0 282.34, 330.31L293.65, 341.62A8 8 0 0 0 304.96, 341.62L453.62, 193zM341.63, 177A8 8 0 0 0 341.63, 165.69L330.3, 154.33A8 8 0 0 0 318.99, 154.33L234.34, 239A8 8 0 0 0 234.34, 250.31L245.65, 261.62A8 8 0 0 0 256.96, 261.62L341.62, 177zM501.63, 261.69L490.3, 250.33A8 8 0 0 0 478.99, 250.33L394.37, 335A8 8 0 0 0 394.37, 346.31L405.68, 357.62A8 8 0 0 0 416.99, 357.62L501.65, 273A8 8 0 0 0 501.62, 261.65z" fill="#727272" fill-opacity="1" class="Black" />
    </g>
  </g>
</svg>