<?xml version='1.0' encoding='UTF-8'?>
<svg viewBox="-5.5003 -2 32 32" xmlns="http://www.w3.org/2000/svg">
  <g transform="matrix(0.0547, 0, 0, 0.0547, 0, 0)">
    <defs>
      <style>.fa-secondary{opacity:.4}</style>
    </defs>
    <path d="M64, 512L64, 448L37.5, 421.49A128 128 0 0 1 0, 331L0, 253.05A47.26 47.26 0 0 0 16, 256L48, 256A47.65 47.65 0 0 0 80, 243.51A47.65 47.65 0 0 0 112, 256L144, 256A47.4 47.4 0 0 0 165.87, 250.48A64.34 64.34 0 0 0 204.74, 284.93C187.63, 299.75 173.16, 319.41 157.43, 343.01L151.12, 352.48A8 8 0 0 0 153.34, 363.56L166.65, 372.44A8 8 0 0 0 177.73, 370.22L184.04, 360.75C215.93, 312.91 235.57, 290.48 280.09, 288.2A8.22 8.22 0 0 0 287.97, 280.2L287.97, 264C287.97, 259.58 284.45, 256 274.77, 256L239.52, 256A47.59 47.59 0 0 1 192, 208.41L192, 207.85A15.86 15.86 0 0 1 207.85, 192L320, 192A64 64 0 0 1 384, 256L384, 344.22A96 96 0 0 1 355.88, 412.13L320, 448L320, 512z" fill="#727272" opacity="0.4" fill-opacity="1" class="Black" />
    <path d="M144, 32L112, 32A16 16 0 0 0 96, 48L96, 208A16 16 0 0 0 112, 224L144, 224A16 16 0 0 0 160, 208L160, 48A16 16 0 0 0 144, 32zM48, 64L16, 64A16 16 0 0 0 0, 80L0, 208A16 16 0 0 0 16, 224L48, 224A16 16 0 0 0 64, 208L64, 80A16 16 0 0 0 48, 64zM336, 32L304, 32A16 16 0 0 0 288, 48L288, 160L320, 160A94.76 94.76 0 0 1 352, 165.9L352, 48A16 16 0 0 0 336, 32zM240, 0L208, 0A16 16 0 0 0 192, 16L192, 162.93A47.56 47.56 0 0 1 208, 160L256, 160L256, 16A16 16 0 0 0 240, 0z" fill="#727272" fill-opacity="1" class="Black" />
  </g>
</svg>