<?xml version='1.0' encoding='UTF-8'?>
<svg viewBox="-1.9999 -1.9999 32 32" xmlns="http://www.w3.org/2000/svg">
  <g transform="matrix(0.0547, 0, 0, 0.0547, 0, 0)">
    <defs>
      <style>.fa-secondary{opacity:.4}</style>
    </defs>
    <path d="M512, 30.83L512, 332.12A31.39 31.39 0 0 1 493.5, 360.92C317.7, 437.33 281.7, 291.83 96, 384L96, 32.42C305.4, -62.17 291.3, 91.52 462.6, 4.23C485.2, -7.27 512, 5.73 512, 30.83z" fill="#727272" opacity="0.4" fill-opacity="1" class="Black" />
    <path d="M64, 32L64, 496A16 16 0 0 1 48, 512L16, 512A16 16 0 0 1 0, 496L0, 32A32 32 0 0 1 64, 32z" fill="#727272" fill-opacity="1" class="Black" />
  </g>
</svg>