<?xml version='1.0' encoding='UTF-8'?>
<svg viewBox="-1.9999 -1.9999 32 32" xmlns="http://www.w3.org/2000/svg">
  <g transform="matrix(0.0547, 0, 0, 0.0547, 0, 0)">
    <defs>
      <style>.fa-secondary{opacity:.4}</style>
    </defs>
    <path d="M299.9, 303.62C242.7, 288.53 188.2, 274.83 96, 314.72L96, 384C281.7, 291.8 317.7, 437.3 493.5, 360.89A31.39 31.39 0 0 0 512, 332.09L512, 296.09C468.4, 313.39 431.8, 320.19 399.9, 320.19C362.5, 320.12 331, 311.83 299.9, 303.62zM309.4, 81.73C361.2, 97.33 406.8, 110.73 512, 61.62L512, 30.83C512, 5.73 485.2, -7.27 462.6, 4.23C373.35, 49.71 334.43, 29.77 288, 13.62L288, 171.62C294.76, 173.28 301.45, 175.02 308.1, 176.76C365.3, 191.76 419.8, 205.46 512, 165.66L512, 96.73C458.4, 120.23 418.7, 128.12 385.9, 128.12C353.1, 128.12 326.9, 120.33 300.2, 112.23C296.2, 111.02 292.1, 109.83 288.1, 108.73L288.1, 75.52C295.3, 77.52 302.4, 79.62 309.4, 81.73zM299.9, 207.62C242.7, 192.53 188.2, 178.83 96, 218.72L96, 280.22C190.8, 242.62 250.6, 257.53 308.1, 272.62C365.3, 287.72 419.8, 301.42 512, 261.53L512, 200C468.4, 217.3 431.8, 224.09 399.9, 224.09C362.5, 224.12 331, 215.83 299.9, 207.62z" fill="#727272" opacity="0.4" fill-opacity="1" class="Black" />
    <path d="M32, 0A32 32 0 0 0 0, 32L0, 496A16 16 0 0 0 16, 512L48, 512A16 16 0 0 0 64, 496L64, 32A32 32 0 0 0 32, 0zM96, 32.4L96, 184.33C179.83, 151.16 236.29, 158.9 288, 171.58L288, 13.58C245.32, -1.23 196.3, -12.89 96, 32.42zM160, 128.1A16 16 0 1 1 176, 112.1A16 16 0 0 1 160, 128.12zM160, 72.31A16 16 0 1 1 176, 56.31A16 16 0 0 1 160, 72.33zM224, 120.21A16 16 0 1 1 240, 104.21A16 16 0 0 1 224, 120.23zM224, 64.31A16 16 0 1 1 240, 48.31A16 16 0 0 1 224, 64.33z" fill="#727272" fill-opacity="1" class="Black" />
  </g>
</svg>