<?xml version='1.0' encoding='UTF-8'?>
<svg viewBox="-5.5003 -2 32 32" xmlns="http://www.w3.org/2000/svg">
  <g transform="matrix(0.0547, 0, 0, 0.0547, 0, 0)">
    <defs>
      <style>.fa-secondary{opacity:.4}</style>
    </defs>
    <path d="M192, 0C79.7, 101.33 0, 220.92 0, 300.55C0, 425.05 79, 512 192, 512C305, 512 384, 425.05 384, 300.55C384, 220.6 303.78, 100.86 192, 0zM192, 448C121.42, 448 64, 395.11 64, 330.11C64, 286 89.84, 258.6 98.34, 250.35A8 8 0 0 1 112, 256L112, 296A56 56 0 0 0 224, 296C224, 224 111.36, 231.23 184.57, 131.67A9.37 9.37 0 0 1 195.15, 128.5C196.77, 129.03 200.53, 130.74 200.53, 135.28C200.53, 168.83 225.53, 190.28 252.1, 212.91C285.48, 241.45 320, 270.91 320, 330.12C320, 395.11 262.58, 448 192, 448z" fill="#727272" opacity="0.4" fill-opacity="1" class="Black" />
    <path d="M252.09, 212.92C285.47, 241.46 319.99, 270.92 319.99, 330.13C319.99, 395.13 262.58, 448 191.99, 448C121.4, 448 64, 395.11 64, 330.11C64, 286 89.84, 258.6 98.34, 250.35A8 8 0 0 1 112, 256L112, 296A56 56 0 0 0 224, 296C224, 224 111.36, 231.23 184.57, 131.67A9.37 9.37 0 0 1 195.15, 128.5C196.77, 129.03 200.53, 130.74 200.53, 135.28C200.53, 168.84 225.53, 190.28 252.09, 212.92z" fill="#727272" fill-opacity="1" class="Black" />
  </g>
</svg>