<?xml version='1.0' encoding='UTF-8'?>
<svg viewBox="-1.9999 -4.7979 32 31.9975" xmlns="http://www.w3.org/2000/svg">
  <g transform="matrix(1.0011, 0, 0, 1.0011, 0, 0)">
    <g transform="matrix(0.0437, 0, 0, 0.0437, 0, 0)">
      <defs>
        <style>.fa-secondary{opacity:.4}</style>
      </defs>
      <path d="M400.13, 149.25L384, 160L32, 160A32 32 0 0 0 0, 192L0, 320A32 32 0 0 0 32, 352L384, 352L400.13, 362.75A317 317 0 0 0 576, 416L576, 96A317 317 0 0 0 400.13, 149.25zM288, 288L256, 288A32 32 0 0 1 256, 224L288, 224A32 32 0 0 1 288, 288z" fill="#727272" opacity="0.4" fill-opacity="1" class="Black" />
      <path d="M608, 96L576, 96L576, 416L608, 416A32 32 0 0 0 640, 384L640, 128A32 32 0 0 0 608, 96zM288, 224L256, 224A32 32 0 0 0 256, 288L288, 288A32 32 0 0 0 288, 224z" fill="#727272" fill-opacity="1" class="Black" />
    </g>
  </g>
</svg>