<?xml version='1.0' encoding='UTF-8'?>
<svg viewBox="-4.6252 -1.9998 32 31.9975" xmlns="http://www.w3.org/2000/svg">
  <g transform="matrix(0.0547, 0, 0, 0.0547, 0, 0)">
    <defs>
      <style>.fa-secondary{opacity:.4}</style>
    </defs>
    <path d="M208, 224C146.14, 224 96, 263.4 96, 312C96, 341.87 115, 368.17 144, 384.08L144, 416A16 16 0 0 0 160, 432L256, 432A16 16 0 0 0 272, 416L272, 384.08C301, 368.17 320, 341.87 320, 312C320, 263.4 269.83, 224 208, 224zM168, 336A24 24 0 1 1 192, 312A24 24 0 0 1 168, 336zM248, 336A24 24 0 1 1 272, 312A24 24 0 0 1 248, 336z" fill="#727272" opacity="0.4" fill-opacity="1" class="Black" />
    <path d="M96, 64L320, 64A16 16 0 0 0 336, 48L336, 16A16 16 0 0 0 320, 0L96, 0A16 16 0 0 0 80, 16L80, 48A16 16 0 0 0 96, 64zM304, 169.05L304, 96L112, 96L112, 168.12C45.61, 202.85 0, 271.88 0, 352A207.15 207.15 0 0 0 53.93, 491.7A63.44 63.44 0 0 0 100.93, 512L315, 512A64 64 0 0 0 362.57, 491.15A207.15 207.15 0 0 0 416, 356.67C417.71, 276.72 371.2, 205.18 304, 169.05zM272, 384.05L272, 416A16 16 0 0 1 256, 432L160, 432A16 16 0 0 1 144, 416L144, 384.08C115, 368.17 96, 341.87 96, 312C96, 263.4 146.13, 224 208, 224C269.87, 224 320, 263.4 320, 312C320, 341.87 301, 368.17 272, 384.08z" fill="#727272" fill-opacity="1" class="Black" />
  </g>
</svg>