<?xml version='1.0' encoding='UTF-8'?>
<svg viewBox="-1.9975 -1.9975 31.9975 32" xmlns="http://www.w3.org/2000/svg">
  <g transform="matrix(0.0547, 0, 0, 0.0547, 0, 0)">
    <defs>
      <style>.fa-secondary{opacity:.4}</style>
    </defs>
    <path d="M511.93, 336.84C501.94, 435 405.57, 512 288.17, 512L223.83, 512C106.43, 512 10.06, 435 0.07, 336.84C-0.87, 327.72 6.94, 320 16.13, 320L63.39, 320C126.39, 320 183.21, 342.23 224, 377.92L224, 281.34A80.33 80.33 0 0 0 256, 256A80.33 80.33 0 0 0 288, 281.34L288, 377.92C328.79, 342.23 385.61, 320 448.61, 320L495.87, 320C505.06, 320 512.85, 327.72 511.93, 336.84z" fill="#727272" opacity="0.4" fill-opacity="1" class="Black" />
    <path d="M368, 144A80 80 0 1 0 256, 32A80 80 0 1 0 144, 144A80 80 0 1 0 256, 256A80 80 0 1 0 368, 144zM256, 192A48 48 0 1 1 304, 144A48 48 0 0 1 256, 192z" fill="#727272" fill-opacity="1" class="Black" />
  </g>
</svg>