<?xml version='1.0' encoding='UTF-8'?>
<svg viewBox="-1.9999 -1.549 31.9975 32" xmlns="http://www.w3.org/2000/svg">
  <g transform="matrix(0.999, 0, 0, 0.999, 0, 0)">
    <g transform="matrix(0.0565, 0, 0, 0.0565, 0, 0)">
      <defs>
        <style>.fa-secondary{opacity:.4}</style>
      </defs>
      <path d="M248, 8C111, 8 0, 119 0, 256C0, 393 111, 504 248, 504C385, 504 496, 393 496, 256C496, 119 385, 8 248, 8zM80, 224A72 72 0 1 1 152, 296A72 72 0 0 1 80, 224zM312, 400L184, 400C162.8, 400 162.8, 368 184, 368L312, 368C333.2, 368 333.2, 400 312, 400zM344, 296A72 72 0 1 1 416, 224A72 72 0 0 1 344, 296z" fill="#727272" opacity="0.4" fill-opacity="1" class="Black" />
      <path d="M152, 200A23.94 23.94 0 1 0 152.12, 200zM344, 200A23.94 23.94 0 1 0 344.12, 200z" fill="#727272" fill-opacity="1" class="Black" />
    </g>
  </g>
</svg>