<?xml version='1.0' encoding='UTF-8'?>
<svg viewBox="-2 0 32 32" xmlns="http://www.w3.org/2000/svg">
  <g transform="matrix(0.0625, 0, 0, 0.0625, 0, 0)">
    <defs>
      <style>.fa-secondary{opacity:.4}</style>
    </defs>
    <path d="M248, 352A24 24 0 0 1 200, 352L200, 310.68A48 48 0 1 0 248, 310.68zM128, 112A48 48 0 0 0 128, 208A47.36 47.36 0 0 0 140.27, 206.21L111, 177A24 24 0 0 1 145, 143L174.24, 172.24A47.36 47.36 0 0 0 176, 160A48.05 48.05 0 0 0 128, 112zM368, 32L80, 32A80.09 80.09 0 0 0 0, 112L0, 400A80.09 80.09 0 0 0 80, 480L368, 480A80.09 80.09 0 0 0 448, 400L448, 112A80.09 80.09 0 0 0 368, 32zM320, 240A79.11 79.11 0 0 1 283.26, 230.68L248, 265.94L248, 276.07C280.38, 286.31 304, 316.24 304, 352A80 80 0 0 1 144, 352C144, 316.24 167.62, 286.31 200, 276.07L200, 265.94L164.74, 230.68A79.11 79.11 0 0 1 128, 240A80 80 0 1 1 208, 160A79.12 79.12 0 0 1 198.67, 196.74L224, 222.06L249.33, 196.74A79.12 79.12 0 0 1 240, 160A80 80 0 1 1 320, 240zM320, 112A48.05 48.05 0 0 0 272, 160A47.36 47.36 0 0 0 273.79, 172.27L303, 143A24 24 0 0 1 337, 177L307.76, 206.24A47.36 47.36 0 0 0 320, 208A48 48 0 0 0 320, 112z" fill="#727272" opacity="0.4" fill-opacity="1" class="Black" />
    <path d="M337, 177L248, 266L248, 352A24 24 0 0 1 200, 352L200, 265.94L111, 176.94A24 24 0 0 1 145, 143L224, 222L303, 143A24 24 0 0 1 337, 177z" fill="#727272" fill-opacity="1" class="Black" />
  </g>
</svg>