<?xml version='1.0' encoding='UTF-8'?>
<svg viewBox="-1.9999 -1.549 31.9975 32" xmlns="http://www.w3.org/2000/svg">
  <g transform="matrix(0.999, 0, 0, 0.999, 0, 0)">
    <g transform="matrix(0.0565, 0, 0, 0.0565, 0, 0)">
      <defs>
        <style>.fa-secondary{opacity:.4}</style>
      </defs>
      <path d="M0, 328.41L0, 329.94L174.06, 504L175.59, 504A321.72 321.72 0 0 0 236.19, 498.25L5.75, 267.81A321.72 321.72 0 0 0 0, 328.41zM496, 182.06L321.94, 8L320.41, 8A321.72 321.72 0 0 0 259.81, 13.75L490.25, 244.19A321.72 321.72 0 0 0 496, 183.59z" fill="#727272" opacity="0.4" fill-opacity="1" class="Black" />
      <path d="M14.5, 451.7A52.8 52.8 0 0 0 51.8, 489.1C101.1, 502.3 140.29, 504 174.06, 504L0, 329.94C0, 363.51 1.47, 402.26 14.5, 451.7zM481.5, 60.3A52.8 52.8 0 0 0 444.2, 22.9C394.9, 9.7 355.71, 8.05 321.94, 8L496, 182.06C496, 148.49 494.53, 109.74 481.5, 60.3zM5.75, 267.81L236.19, 498.25C364.54, 473.68 465.68, 372.54 490.25, 244.19L259.81, 13.75C131.46, 38.32 30.32, 139.46 5.75, 267.81zM294.66, 186.12L323.87, 156.7A8.29 8.29 0 0 1 335.54, 156.7L347.2, 168.36A8.29 8.29 0 0 1 347.2, 180.03L318, 209.24L347.21, 238.45A8.29 8.29 0 0 1 347.21, 250.12L335.55, 261.78A8.29 8.29 0 0 1 323.88, 261.78L294.67, 232.57L271.33, 256L300.54, 285.21A8.29 8.29 0 0 1 300.54, 296.88L288.88, 308.54A8.29 8.29 0 0 1 277.21, 308.54L248, 279.33L224.67, 302.66L253.88, 331.87A8.29 8.29 0 0 1 253.88, 343.54L242.22, 355.2A8.29 8.29 0 0 1 230.55, 355.2L201.34, 326L172.13, 355.2A8.29 8.29 0 0 1 160.46, 355.2L148.8, 343.54A8.29 8.29 0 0 1 148.8, 331.87L178, 302.66L148.8, 273.55A8.29 8.29 0 0 1 148.8, 261.88L160.46, 250.22A8.29 8.29 0 0 1 172.13, 250.22L201.34, 279.43L224.67, 256.1L195.46, 226.89A8.28 8.28 0 0 1 195.46, 215.23L207.12, 203.56A8.29 8.29 0 0 1 218.79, 203.56L248, 232.77L271.33, 209.45L242.12, 180.23A8.28 8.28 0 0 1 242.12, 168.57L253.78, 156.9A8.29 8.29 0 0 1 265.45, 156.9z" fill="#727272" fill-opacity="1" class="Black" />
    </g>
  </g>
</svg>