<?xml version='1.0' encoding='UTF-8'?>
<svg viewBox="-1.995 -2.2125 32 31.9975" xmlns="http://www.w3.org/2000/svg">
  <g transform="matrix(0.0547, 0, 0, 0.0547, 0, 0)">
    <defs>
      <style>.fa-secondary{opacity:.4}</style>
    </defs>
    <path d="M480, 320L355.46, 320L340.26, 244L308.46, 248.1L322.86, 320L273.56, 320C273.56, 320 292.26, 366.8 286.36, 352L329.26, 352L338.76, 399.3C348.26, 446.7 386.76, 484.6 434.66, 490.6C478.66, 496.1 477.16, 496 479.96, 496C502.46, 496 511.96, 476.3 511.96, 464L511.96, 352A32 32 0 0 0 480, 320zM480, 464L438.7, 458.8A79.72 79.72 0 0 1 378.6, 418.1L480, 418.1zM480, 384L368.26, 384L361.86, 352L480, 352z" fill="#727272" opacity="0.4" fill-opacity="1" class="Black" />
    <path d="M491, 207.46C466.2, 82.56 347.9, -8.64 211.9, 10.56C104.6, 25.66 17.8, 112.56 2.6, 219.86C-7.6, 291.96 13.3, 358.96 53.7, 409.86A16.26 16.26 0 0 0 66.5, 415.96L120, 415.96L205.7, 460.96A65.58 65.58 0 0 0 281.4, 448.66C317.6, 412.46 292.3, 366.76 286.4, 351.96L263.3, 294.26A32 32 0 0 1 288.9, 250.66L477.1, 226.16C486.06, 225 492.66, 216.36 491, 207.46zM176, 360A24 24 0 1 1 200, 336A23.94 23.94 0 0 1 176, 360z" fill="#727272" fill-opacity="1" class="Black" />
  </g>
</svg>