<?xml version='1.0' encoding='UTF-8'?>
<svg viewBox="-2 -4.7992 32 32" xmlns="http://www.w3.org/2000/svg">
  <g transform="matrix(0.9988, 0, 0, 0.9988, 0, 0)">
    <g transform="matrix(0.0438, 0, 0, 0.0438, 0, 0)">
      <defs>
        <style>.fa-secondary{opacity:.4}</style>
      </defs>
      <path d="M96, 352A80 80 0 1 0 176, 432A80 80 0 0 0 96, 352zM624, 384L544, 384L544, 16A16 16 0 0 0 528, 0L496, 0A16 16 0 0 0 480, 16L480, 432A16 16 0 0 0 496, 448L624, 448A16 16 0 0 0 640, 432L640, 400A16 16 0 0 0 624, 384zM352, 352A80 80 0 1 0 432, 432A80 80 0 0 0 352, 352z" fill="#727272" opacity="0.4" fill-opacity="1" class="Black" />
      <path d="M410.8, 211.9L332.5, 29.1A48 48 0 0 0 288.3, 0L144, 0A48 48 0 0 0 96, 48L96, 160L48, 160A48 48 0 0 0 0, 208L0, 374.23A113.49 113.49 0 0 1 16.8, 352.8A112 112 0 0 1 175.2, 352.8A111.19 111.19 0 0 1 206.87, 416L241.13, 416A112 112 0 0 1 416, 340.06L416, 237.06A64.23 64.23 0 0 0 410.8, 211.9zM352, 256L256, 256L160, 160L160, 64L277.8, 64L352, 237.1z" fill="#727272" fill-opacity="1" class="Black" />
    </g>
  </g>
</svg>