<?xml version='1.0' encoding='UTF-8'?>
<svg viewBox="-1.9987 -1.9975 32 32" xmlns="http://www.w3.org/2000/svg">
  <g transform="matrix(0.0547, 0, 0, 0.0547, 0, 0)">
    <defs>
      <style>.fa-secondary{opacity:.4}</style>
    </defs>
    <path d="M169.57, 0.3A16.22 16.22 0 0 0 162.85, 3.3L134.34, 24.9A16 16 0 0 0 128.27, 40.58L165.17, 237.8C170.47, 245.39 179.66, 252.67 192, 258.55L192, 33.19L188.24, 13.08A16 16 0 0 0 169.57, 0.3zM279.17, 17.7L247.17, 1.7A16 16 0 0 0 224, 16L224, 268.79A160.37 160.37 0 0 0 288, 268.79L288, 32A16 16 0 0 0 279.17, 17.7zM84.61, 80.7A16 16 0 0 0 64.25, 98.78L80.55, 192L114, 192C117.6, 192 121, 193 124.35, 193.75L104.35, 86.59zM370.75, 32.27A16.38 16.38 0 0 0 363.42, 32.7L329.14, 43C324.9, 44.27 321.97, 47.51 320.01, 51.33L320.01, 258.55C337.56, 250.17 349.16, 239.01 351.55, 228.16C351.95, 226.37 353.01, 224.94 353.61, 223.24L383.76, 50.78A16 16 0 0 0 370.75, 32.27zM434.75, 80.27A16.38 16.38 0 0 0 427.42, 80.7L410.11, 85.87L391.36, 193.13C393.6, 192.81 395.69, 192.01 397.99, 192.01L431.46, 192.01L447.76, 98.78A16 16 0 0 0 434.75, 80.27z" fill="#727272" opacity="0.4" fill-opacity="1" class="Black" />
    <path d="M64, 240A16 16 0 0 1 80, 224L114, 224C120.92, 224 127.7, 228.24 129.19, 235C137.79, 274 191.28, 304 255.98, 304C320.68, 304 374.18, 274 382.78, 235C384.27, 228.27 391.05, 224 397.97, 224L431.97, 224A16 16 0 0 1 447.97, 240A16.16 16.16 0 0 1 447.59, 243.46L393.48, 487A32 32 0 0 1 362.28, 512L149.73, 512A32 32 0 0 1 118.48, 487L64.38, 243.48A16.18 16.18 0 0 1 64, 240z" fill="#727272" fill-opacity="1" class="Black" />
  </g>
</svg>