<?xml version='1.0' encoding='UTF-8'?>
<svg viewBox="-1.9999 -1.549 31.9975 32" xmlns="http://www.w3.org/2000/svg">
  <g transform="matrix(0.999, 0, 0, 0.999, 0, 0)">
    <g transform="matrix(0.0565, 0, 0, 0.0565, 0, 0)">
      <defs>
        <style>.fa-secondary{opacity:.4}</style>
      </defs>
      <path d="M248, 8C111, 8 0, 119 0, 256C0, 393 111, 504 248, 504C385, 504 496, 393 496, 256C496, 119 385, 8 248, 8zM328, 176A32 32 0 1 1 296, 208A32 32 0 0 1 328, 176zM168, 176A32 32 0 1 1 136, 208A32 32 0 0 1 168, 176zM338.2, 394.2A117.5 117.5 0 0 0 157.8, 394.2C144.3, 410.5 119.7, 390 133.2, 373.7A149.34 149.34 0 0 1 362.7, 373.8C376.3, 390 351.7, 410.5 338.2, 394.2z" fill="#727272" opacity="0.4" fill-opacity="1" class="Black" />
      <path d="M168, 176A32 32 0 1 0 200, 208A32 32 0 0 0 168, 176zM328, 176A32 32 0 1 0 360, 208A32 32 0 0 0 328, 176z" fill="#727272" fill-opacity="1" class="Black" />
    </g>
  </g>
</svg>