<?xml version='1.0' encoding='UTF-8'?>
<svg viewBox="-2 -4.8005 32 32" xmlns="http://www.w3.org/2000/svg">
  <g transform="matrix(0.9988, 0, 0, 0.9988, 0, 0)">
    <g transform="matrix(0.0438, 0, 0, 0.0438, 0, 0)">
      <defs>
        <style>.fa-secondary{opacity:.4}</style>
      </defs>
      <path d="M334.59, 152.91L309.9, 131.91C302.9, 125.91 292.07, 126.82 286.52, 134.14A307.46 307.46 0 0 0 286.52, 505.82C292.08, 513.14 302.9, 514 309.9, 508.05L334.59, 487.05C341.18, 481.44 341.9, 471.85 336.74, 464.91A242.8 242.8 0 0 1 336.74, 175.02C341.91, 168.11 341.19, 158.51 334.59, 152.91zM577.48, 134.16C571.92, 126.84 561.1, 125.98 554.1, 131.93L529.41, 152.93C522.82, 158.54 522.1, 168.13 527.26, 175.07A242.82 242.82 0 0 1 527.26, 464.97C522.09, 471.91 522.81, 481.51 529.41, 487.11L554.1, 508.11C561.1, 514.06 571.93, 513.2 577.48, 505.88A307.48 307.48 0 0 0 577.48, 134.19z" fill="#727272" opacity="0.4" fill-opacity="1" class="Black" />
      <path d="M477.25, 320L523.31, 273.94A16 16 0 0 0 523.31, 251.31L500.69, 228.69A16 16 0 0 0 478.06, 228.69L432, 274.75L385.94, 228.69A16 16 0 0 0 363.31, 228.69L340.69, 251.31A16 16 0 0 0 340.69, 273.94L386.75, 320L340.69, 366.06A16 16 0 0 0 340.69, 388.69L363.31, 411.31A16 16 0 0 0 385.94, 411.31L432, 365.25L478.06, 411.31A16 16 0 0 0 500.69, 411.31L523.31, 388.69A16 16 0 0 0 523.31, 366.06zM208, 0L160, 0A104 104 0 0 0 56, 104L56, 168L16, 168A16 16 0 0 0 0, 184L0, 232A16 16 0 0 0 16, 248L56, 248L56, 376A24.07 24.07 0 0 1 32, 400L16, 400A16 16 0 0 0 0, 416L0, 464A16 16 0 0 0 16, 480L32, 480A104 104 0 0 0 136, 376L136, 248L176, 248A16 16 0 0 0 192, 232L192, 184A16 16 0 0 0 176, 168L136, 168L136, 104A24.07 24.07 0 0 1 160, 80L208, 80A16 16 0 0 0 224, 64L224, 16A16 16 0 0 0 208, 0z" fill="#727272" fill-opacity="1" class="Black" />
    </g>
  </g>
</svg>