<?xml version='1.0' encoding='UTF-8'?>
<svg viewBox="-2 -2 32 32" xmlns="http://www.w3.org/2000/svg">
  <g transform="matrix(0.0547, 0, 0, 0.0547, 0, 0)">
    <defs>
      <style>.fa-secondary{opacity:.4}</style>
    </defs>
    <path d="M256, 0L96, 0A64.06 64.06 0 0 0 32, 64L32, 448L320, 448L320, 64A64.06 64.06 0 0 0 256, 0zM256, 192L96, 192L96, 64L256, 64z" fill="#727272" opacity="0.4" fill-opacity="1" class="Black" />
    <path d="M256, 64L96, 64L96, 192L256, 192zM336, 448L16, 448A16 16 0 0 0 0, 464L0, 496A16 16 0 0 0 16, 512L336, 512A16 16 0 0 0 352, 496L352, 464A16 16 0 0 0 336, 448zM493.2, 107.3L412.2, 26.3A16.06 16.06 0 0 0 389.6, 26.3L378.3, 37.6A16.06 16.06 0 0 0 378.3, 60.2L416, 97.9L416, 160A55.9 55.9 0 0 0 464, 215.2L464, 376A24 24 0 0 1 416, 376L416, 344A88 88 0 0 0 328, 256L320, 256L320, 304L328, 304A40 40 0 0 1 368, 344L368, 371.8C368, 409.5 395, 443.8 432.5, 447.7A72.2 72.2 0 0 0 512, 376L512, 152.6A64.15 64.15 0 0 0 493.2, 107.3z" fill="#727272" fill-opacity="1" class="Black" />
  </g>
</svg>