<?xml version='1.0' encoding='UTF-8'?>
<svg viewBox="-1.995 -4.7973 31.9975 32" xmlns="http://www.w3.org/2000/svg">
  <g transform="matrix(0.999, 0, 0, 0.999, 0, 0)">
    <g transform="matrix(0.0438, 0, 0, 0.0438, 0, 0)">
      <defs>
        <style>.fa-secondary{opacity:.4}</style>
      </defs>
      <path d="M442.3, 60.2A16.06 16.06 0 0 1 442.3, 37.6L453.6, 26.3A16.06 16.06 0 0 1 476.2, 26.3L557.2, 107.3A64.12 64.12 0 0 1 576, 152.6L576, 376A71.45 71.45 0 0 1 568.61, 407.7L528, 376.3L528, 215.2A55.91 55.91 0 0 1 480, 160L480, 97.9zM370, 416L96, 204.21L96, 416zM160, 91.89L160, 64L320, 64L320, 192L289.53, 192L479.86, 339.11A88 88 0 0 0 392, 256L384, 256L384, 64A64.06 64.06 0 0 0 320, 0L160, 0A64.1 64.1 0 0 0 99, 44.72zM400, 448L80, 448A16 16 0 0 0 64, 464L64, 496A16 16 0 0 0 80, 512L400, 512A16 16 0 0 0 416, 496L416, 464A16 16 0 0 0 400, 448z" fill="#727272" opacity="0.4" fill-opacity="1" class="Black" />
      <path d="M636.64, 480.55L617, 505.82A16 16 0 0 1 594.54, 508.63L6.18, 53.9A16 16 0 0 1 3.37, 31.45L23, 6.18A16 16 0 0 1 45.47, 3.37L633.82, 458.1A16 16 0 0 1 636.64, 480.55z" fill="#727272" fill-opacity="1" class="Black" />
    </g>
  </g>
</svg>