<?xml version='1.0' encoding='UTF-8'?>
<svg viewBox="-1.9999 -3.5555 31.9995 32" xmlns="http://www.w3.org/2000/svg">
  <g transform="matrix(0.0486, 0, 0, 0.0486, 0, 0)">
    <defs>
      <style>.fa-secondary{opacity:.4}</style>
    </defs>
    <path d="M100.7, 192L0, 192L218.7, 447A3 3 0 0 0 223.7, 443.7zM475.3, 192L352.3, 443.7A3 3 0 0 0 357.3, 446.9L576, 192zM148.2, 192L285.3, 510.2A3 3 0 0 0 290.8, 510.2L427.8, 192z" fill="#727272" opacity="0.4" fill-opacity="1" class="Black" />
    <path d="M90.5, 0L0, 160L101.1, 160L170.3, 0zM485.5, 0L405.7, 0L474.9, 160L576, 160zM218.5, 0L149.3, 160L426.7, 160L357.5, 0z" fill="#727272" fill-opacity="1" class="Black" />
  </g>
</svg>