<?xml version='1.0' encoding='UTF-8'?>
<svg viewBox="-5.5003 -1.9975 32 32" xmlns="http://www.w3.org/2000/svg">
  <g transform="matrix(0.0547, 0, 0, 0.0547, 0, 0)">
    <defs>
      <style>.fa-secondary{opacity:.4}</style>
    </defs>
    <path d="M186.1, 0.09C81, 3.24 0, 94.92 0, 200.05L0, 464A16 16 0 0 0 27.31, 475.31L52.23, 456.78A16 16 0 0 1 73.74, 459L116.74, 507.35A16 16 0 0 0 139.37, 507.35L180, 461.46A16 16 0 0 1 203.92, 461.46L244.64, 507.31A16 16 0 0 0 267.27, 507.31L310.26, 459A16 16 0 0 1 331.77, 456.79L356.69, 475.32C366.77, 485.36 384, 478.22 384, 464L384, 192C384, 84 294.83, -3.17 186.1, 0.09zM128, 224A32 32 0 1 1 160, 192A32 32 0 0 1 128, 224zM256, 224A32 32 0 1 1 288, 192A32 32 0 0 1 256, 224z" fill="#727272" opacity="0.4" fill-opacity="1" class="Black" />
    <path d="M128, 160A32 32 0 1 0 160, 192A32 32 0 0 0 128, 160zM256, 160A32 32 0 1 0 288, 192A32 32 0 0 0 256, 160z" fill="#727272" fill-opacity="1" class="Black" />
  </g>
</svg>