<?xml version='1.0' encoding='UTF-8'?>
<svg viewBox="-1.9999 -1.9974 32 31.9975" xmlns="http://www.w3.org/2000/svg">
  <g transform="matrix(0.0547, 0, 0, 0.0547, 0, 0)">
    <defs>
      <style>.fa-secondary{opacity:.4}</style>
    </defs>
    <path d="M224, 320L224, 480L64, 480A32 32 0 0 1 32, 448L32, 320zM224, 160L32, 160A32 32 0 0 0 0, 192L0, 272A16 16 0 0 0 16, 288L224, 288zM480, 160L288, 160L288, 288L496, 288A16 16 0 0 0 512, 272L512, 192A32 32 0 0 0 480, 160zM288, 480L448, 480A32 32 0 0 0 480, 448L480, 320L288, 320z" fill="#727272" opacity="0.4" fill-opacity="1" class="Black" />
    <path d="M224, 480L288, 480L288, 320L224, 320zM359.54, 32C317.72, 32 290.68, 53.3 256, 100.3C221.32, 53.3 194.28, 32 152.46, 32C103.71, 32 64, 71.5 64, 120A85.65 85.65 0 0 0 74.15, 160L152.36, 160A40 40 0 1 1 152.36, 80C172.36, 80 187.14, 83.3 238.91, 160L224, 160L224, 288L288, 288L288, 160L273, 160C324.67, 83.5 339, 80 359.55, 80A40 40 0 1 1 359.55, 160L437.86, 160A86.86 86.86 0 0 0 448, 120C448, 71.5 408.29, 32 359.54, 32z" fill="#727272" fill-opacity="1" class="Black" />
  </g>
</svg>