<?xml version='1.0' encoding='UTF-8'?>
<svg viewBox="-4.6233 -1.9975 32 32" xmlns="http://www.w3.org/2000/svg">
  <g transform="matrix(0.0547, 0, 0, 0.0547, 0, 0)">
    <defs>
      <style>.fa-secondary{opacity:.4}</style>
    </defs>
    <path d="M322.21, 304L352, 304A64.07 64.07 0 0 0 415.11, 229.2C410.01, 197.7 380.4, 176 348.6, 176L282.71, 176A7.86 7.86 0 0 1 277.21, 162.5C298.01, 140.9 308.81, 109.71 302.11, 76.21C294.61, 38.71 263.61, 8.41 226.11, 1.61C165, -9.38 112, 37.12 112, 96A95.56 95.56 0 0 0 138.7, 162.29C143.7, 167.49 140.4, 175.99 133.2, 175.99L67.38, 175.99C35.48, 176 6, 197.81 0.87, 229.21A64.07 64.07 0 0 0 64, 304L93.79, 304A18.2 18.2 0 0 1 111.99, 322.2A18.43 18.43 0 0 1 107.79, 333.9L49.58, 403.7C26.28, 431.6 27.98, 476.1 56.68, 498.4A63 63 0 0 0 96, 512A63.92 63.92 0 0 0 145.2, 489L183.51, 443.1A32 32 0 0 1 232.71, 443.1L271, 489A64.06 64.06 0 0 0 359.51, 498.5C388.21, 476.1 389.91, 431.7 366.61, 403.8L308.41, 334A18.43 18.43 0 0 1 304.21, 322.3A18 18 0 0 1 322.21, 304zM176, 96A16 16 0 1 1 192, 80A16 16 0 0 1 176, 96zM208, 368A16 16 0 1 1 224, 352A16 16 0 0 1 208, 368zM208, 304A16 16 0 1 1 224, 288A16 16 0 0 1 208, 304zM208, 240A16 16 0 1 1 224, 224A16 16 0 0 1 208, 240zM240, 96A16 16 0 1 1 256, 80A16 16 0 0 1 240, 96z" fill="#727272" opacity="0.4" fill-opacity="1" class="Black" />
    <path d="M208, 240A16 16 0 1 0 192, 224A16 16 0 0 0 208, 240zM208, 272A16 16 0 1 0 224, 288A16 16 0 0 0 208, 272zM208, 336A16 16 0 1 0 224, 352A16 16 0 0 0 208, 336z" fill="#727272" fill-opacity="1" class="Black" />
  </g>
</svg>