<?xml version='1.0' encoding='UTF-8'?>
<svg viewBox="-1.9975 -4.7995 32 32" xmlns="http://www.w3.org/2000/svg">
  <g transform="matrix(1.0012, 0, 0, 1.0012, 0, 0)">
    <g transform="matrix(0.0437, 0, 0, 0.0437, 0, 0)">
      <defs>
        <style>.fa-secondary{opacity:.4}</style>
      </defs>
      <path d="M378.84, 156.05L463.05, 121.12L508.65, 197.12A51.11 51.11 0 0 1 514, 234.53C505, 273.77 458, 293.53 423.57, 272.25A51.21 51.21 0 0 1 400.8, 242.12zM126.16, 234.53C135.16, 273.77 182.16, 293.53 216.58, 272.25A51.18 51.18 0 0 0 239.36, 242.12L261.36, 156.12L177.13, 121.18L131.56, 197.18A51.15 51.15 0 0 0 126.16, 234.53z" fill="#727272" opacity="0.4" fill-opacity="1" class="Black" />
      <path d="M639.39, 433.59A39.84 39.84 0 0 0 587.19, 411.99L565.1, 421.19L526.4, 319.31C574.29, 284.31 591.19, 219.02 560.9, 166.53L474.3, 16.05A32.1 32.1 0 0 0 434.3, 2.46L320, 49.85L205.71, 2.46A31.71 31.71 0 0 0 193.46, 0A32.05 32.05 0 0 0 165.71, 16.05L79.12, 166.53C48.92, 219.02 65.72, 284.31 113.62, 319.21L74.92, 421.09L52.82, 411.89A39.84 39.84 0 0 0 0.62, 433.49A8 8 0 0 0 4.92, 444L167.21, 511.39A8.13 8.13 0 0 0 170.31, 512.01A7.88 7.88 0 0 0 177.61, 507.09A40.08 40.08 0 0 0 156, 454.79L133.91, 445.59L173.31, 342C177.71, 342.5 182.11, 343.3 186.41, 343.3C238.11, 343.3 285.81, 310.21 299.81, 258.02L320, 182.63L340.21, 258C354.21, 310.19 401.9, 343.28 453.6, 343.28C457.9, 343.28 462.3, 342.48 466.7, 341.98L506, 445.59L483.9, 454.79A40 40 0 0 0 462.3, 507.08A8 8 0 0 0 469.65, 512A7.81 7.81 0 0 0 472.7, 511.38L635.09, 444A8 8 0 0 0 639.39, 433.59zM239.39, 242.12A51.18 51.18 0 0 1 216.61, 272.25C182.21, 293.54 135.22, 273.77 126.19, 234.53A51.15 51.15 0 0 1 131.57, 197.15L206.57, 72.15L275.52, 100.91zM514, 234.53C505, 273.77 458, 293.53 423.57, 272.25A51.21 51.21 0 0 1 400.8, 242.12L364.76, 100.94L433.7, 72.18L508.65, 197.18A51.11 51.11 0 0 1 514, 234.53z" fill="#727272" fill-opacity="1" class="Black" />
    </g>
  </g>
</svg>