<?xml version='1.0' encoding='UTF-8'?>
<svg viewBox="-1.9999 -1.9999 32 32" xmlns="http://www.w3.org/2000/svg">
  <g transform="matrix(0.0547, 0, 0, 0.0547, 0, 0)">
    <defs>
      <style>.fa-secondary{opacity:.4}</style>
    </defs>
    <path d="M512, 144C512, 222.32 449.39, 285.73 371.52, 287.64L376.37, 239.15C425.37, 234.84 464, 194.07 464, 144A96.11 96.11 0 0 0 368, 48C332.63, 48 302, 67.45 285.36, 96L232.82, 96C252.65, 40.2 305.39, 0 368, 0A144 144 0 0 1 512, 144zM256, 448L276.57, 256L73.23, 256L93.8, 448z" fill="#727272" opacity="0.4" fill-opacity="1" class="Black" />
    <path d="M283.43, 192L256, 448L93.8, 448L66.37, 192L283.43, 192M317.8, 128L32, 128A32 32 0 0 0 0, 160C0, 160.67 0, 161.33 0.06, 162L32.06, 482A32 32 0 0 0 64, 512L285.8, 512A32 32 0 0 0 317.74, 482L349.74, 162A32 32 0 0 0 319.81, 128.06C319.13, 128.06 318.46, 128 317.8, 128z" fill="#727272" fill-opacity="1" class="Black" />
  </g>
</svg>