<?xml version='1.0' encoding='UTF-8'?>
<svg viewBox="-1.9975 -1.9975 32 32" xmlns="http://www.w3.org/2000/svg">
  <g transform="matrix(0.0547, 0, 0, 0.0547, 0, 0)">
    <defs>
      <style>.fa-secondary{opacity:.4}</style>
    </defs>
    <path d="M119.6, 415.59L119.66, 415.99L392.72, 415.99L392.72, 415.68L392.79, 415.25L427.66, 192L84.49, 192L119.49, 415.15zM327.43, 233.7L374.3, 280.59A33.19 33.19 0 0 1 374.3, 327.48L327.43, 374.37A33.14 33.14 0 0 1 280.57, 374.37L233.7, 327.48A33.19 33.19 0 0 1 233.7, 280.59L280.57, 233.7A33.15 33.15 0 0 1 327.43, 233.7zM128, 256A32 32 0 0 1 160, 224L224, 224A31.86 31.86 0 0 1 240.47, 228.55L211.07, 258A65.24 65.24 0 0 0 211.07, 350.13L213, 352L160, 352A32 32 0 0 1 128, 320z" fill="#727272" opacity="0.4" fill-opacity="1" class="Black" />
    <path d="M442.63, 96L392.86, 415.22L392.79, 415.65L392.79, 415.96L119.73, 415.96L119.67, 415.56L119.6, 415.12L69.42, 96L442.63, 96M480, 32L32, 32A32 32 0 0 0 0.32, 68.51L56.32, 425.09A64 64 0 0 0 119.71, 480L392.71, 480A64.07 64.07 0 0 0 456.11, 425.09L511.68, 68.51A32 32 0 0 0 480, 32z" fill="#727272" fill-opacity="1" class="Black" />
  </g>
</svg>