<?xml version='1.0' encoding='UTF-8'?>
<svg viewBox="-1.9998 -3.5563 31.9975 32" xmlns="http://www.w3.org/2000/svg">
  <g transform="matrix(0.0486, 0, 0, 0.0486, 0, 0)">
    <defs>
      <style>.fa-secondary{opacity:.4}</style>
    </defs>
    <path d="M64, 328.58L64, 366.12C64, 393.63 87, 416 115.2, 416L152.32, 416C178.98, 416 201.41, 395.7 203.38, 369.79L206.51, 328.57A196.2 196.2 0 0 0 136.58, 315.65A217.08 217.08 0 0 0 64, 328.58zM512, 366.13L512, 328.59A217.07 217.07 0 0 0 439.45, 315.66A196.27 196.27 0 0 0 369.5, 328.58L372.63, 369.8C374.63, 395.71 397.02, 416.01 423.69, 416.01L460.8, 416.01C489, 416 512, 393.64 512, 366.13z" fill="#727272" opacity="0.4" fill-opacity="1" class="Black" />
    <path d="M574.1, 280.38L528.75, 98.67A87.94 87.94 0 0 0 415.56, 36.53L400.31, 41.61A16 16 0 0 0 390.19, 61.85L395.25, 77A16 16 0 0 0 415.48, 87.12L428.66, 82.73C439.53, 79.11 451.66, 79.16 461.82, 84.46A39.62 39.62 0 0 1 482.19, 110.28L520.65, 264.1A276.75 276.75 0 0 0 439.45, 251.64C404.68, 251.64 365.45, 258.64 324.6, 278.38L251.42, 278.38C210.55, 258.64 171.34, 251.63 136.56, 251.63A276.76 276.76 0 0 0 55.35, 264.09L93.81, 110.29A39.59 39.59 0 0 1 114.19, 84.48C124.35, 79.18 136.47, 79.13 147.34, 82.75L160.51, 87.14A16 16 0 0 0 180.74, 77L185.8, 61.82A16 16 0 0 0 175.68, 41.6L160.43, 36.52A87.95 87.95 0 0 0 47.24, 98.65L1.9, 280.38A64.16 64.16 0 0 0 0, 295.87L0, 366.12C0, 429 51.58, 480 115.2, 480L152.32, 480C212.6, 480 262.69, 434.06 267.2, 374.63L270.13, 336L305.88, 336L308.81, 374.63C313.31, 434.07 363.4, 480 423.68, 480L460.8, 480C524.42, 480 576, 429 576, 366.13L576, 295.88A64.24 64.24 0 0 0 574.1, 280.38zM203.38, 369.8C201.38, 395.71 178.98, 416.01 152.32, 416.01L115.2, 416.01C87, 416 64, 393.63 64, 366.12L64, 328.58A217.08 217.08 0 0 1 136.58, 315.66A196.2 196.2 0 0 1 206.51, 328.58zM460.8, 416L423.68, 416C397.01, 416 374.58, 395.7 372.62, 369.79L369.49, 328.57A196.27 196.27 0 0 1 439.44, 315.65A217.07 217.07 0 0 1 512, 328.59L512, 366.13C512, 393.64 489, 416 460.8, 416z" fill="#727272" fill-opacity="1" class="Black" />
  </g>
</svg>