<?xml version='1.0' encoding='UTF-8'?>
<svg viewBox="-8.9981 -1.9999 31.9975 32" xmlns="http://www.w3.org/2000/svg">
  <g transform="matrix(0.0547, 0, 0, 0.0547, 0, 0)">
    <defs>
      <style>.fa-secondary{opacity:.4}</style>
    </defs>
    <path d="M64.44, 221L78, 128L178, 128L191.59, 221A55.77 55.77 0 0 1 181.33, 260.82C155.69, 296.63 100.18, 296.47 74.66, 260.82A55.67 55.67 0 0 1 64.44, 221z" fill="#727272" opacity="0.4" fill-opacity="1" class="Black" />
    <path d="M216, 464L160, 464L160, 347.7C220.7, 332.5 263.3, 275.7 255, 212.3L228, 27.4A32.07 32.07 0 0 0 196.33, 0L59.73, 0A32.07 32.07 0 0 0 28, 27.4L1, 212.3C-7.3, 275.7 35.3, 332.5 96, 347.7L96, 464L40, 464A40 40 0 0 0 0, 504A8 8 0 0 0 8, 512L248, 512A8 8 0 0 0 256, 504A40 40 0 0 0 216, 464zM74.7, 260.82A55.67 55.67 0 0 1 64.44, 221L87.37, 64L168.7, 64L191.63, 221A55.77 55.77 0 0 1 181.37, 260.82C155.73, 296.63 100.22, 296.47 74.7, 260.82z" fill="#727272" fill-opacity="1" class="Black" />
  </g>
</svg>