<?xml version='1.0' encoding='UTF-8'?>
<svg viewBox="-3.7508 -1.9975 32 31.9975" xmlns="http://www.w3.org/2000/svg">
  <g transform="matrix(0.0547, 0, 0, 0.0547, 0, 0)">
    <defs>
      <style>.fa-secondary{opacity:.4}</style>
    </defs>
    <path d="M94.87, 305.14A160 160 0 1 1 321.14, 305.14A160 160 0 0 1 94.87, 305.14z" fill="#727272" opacity="0.4" fill-opacity="1" class="Black" />
    <path d="M4.69, 377.38L64.19, 317.88C67.01, 321.11 69.19, 324.69 72.26, 327.76A192.1 192.1 0 0 0 343.88, 327.76C418.77, 252.9 418.77, 131.09 343.88, 56.23C340.88, 53.23 337.65, 50.49 334.47, 47.7L377.47, 4.7A16 16 0 0 1 400.11, 4.7L411.45, 16A16 16 0 0 1 411.45, 38.63L400.75, 49.33C470.57, 143.27 463.09, 276.49 377.84, 361.71A238.35 238.35 0 0 1 256.09, 427L256.09, 464L348.09, 464A36 36 0 0 1 384.09, 500A12 12 0 0 1 372.09, 512L76, 512A12 12 0 0 1 64, 500A36 36 0 0 1 100, 464L192, 464L192, 431.25A239.42 239.42 0 0 1 65.35, 384.61L38.64, 411.31A16 16 0 0 1 16, 411.31L4.69, 400A16 16 0 0 1 4.69, 377.38z" fill="#727272" fill-opacity="1" class="Black" />
  </g>
</svg>