<?xml version='1.0' encoding='UTF-8'?>
<svg viewBox="-1.9999 -1.549 31.9975 32" xmlns="http://www.w3.org/2000/svg">
  <g transform="matrix(0.999, 0, 0, 0.999, 0, 0)">
    <g transform="matrix(0.0565, 0, 0, 0.0565, 0, 0)">
      <defs>
        <style>.fa-secondary{opacity:.4}</style>
      </defs>
      <path d="M312, 16.35L312, 50.73A28 28 0 0 1 300.88, 73.08L259.47, 104.35A8 8 0 0 0 260.33, 118.16L271.16, 123.57A16 16 0 0 1 280, 137.88L280, 216A8 8 0 0 1 272, 224L268.94, 224A8 8 0 0 1 261.79, 219.58A4.47 4.47 0 0 0 260.07, 217.72A4.42 4.42 0 0 0 254.01, 219.26L254.01, 219.26L236.67, 248.26A16 16 0 0 1 222.94, 256L222.63, 256A16 16 0 0 0 211.31, 260.69L205.65, 266.35A8 8 0 0 0 205.65, 277.66L211.31, 283.32A16 16 0 0 1 216, 294.63L216, 304A16 16 0 0 1 200, 320L193.9, 320A16 16 0 0 1 179.62, 311.15L157, 265.92A8 8 0 0 0 146.28, 262.32L146.28, 262.32A8.14 8.14 0 0 0 144.17, 263.85L124.7, 283.31A16 16 0 0 1 113.38, 288L2.05, 288C17.74, 409.88 121.84, 504 248, 504C385, 504 496, 393 496, 256C496, 141.13 418, 44.56 312, 16.35zM408, 358.43A16 16 0 0 1 403.31, 369.74L393.74, 379.31A16 16 0 0 1 382.43, 384L367.27, 384A16 16 0 0 1 355.91, 379.26L342.91, 366.26A26.78 26.78 0 0 0 317.49, 359.26L296.22, 364.58A15.86 15.86 0 0 1 292.34, 365.06L282, 365.06A16 16 0 0 1 270.76, 360.37L258.85, 348.46A8 8 0 0 1 256.51, 342.8L256.51, 332.6A8 8 0 0 1 261.51, 325.17L300.85, 309.43A26.35 26.35 0 0 0 306.44, 306.38L330.15, 289.49A8 8 0 0 1 334.79, 288.01L346.93, 288.01A8 8 0 0 1 354.32, 292.94L359.67, 305.79A4 4 0 0 0 363.36, 308.25L367.16, 308.25A4 4 0 0 0 371, 305.37L375.16, 290.88A4 4 0 0 1 379, 288L385.06, 288A4 4 0 0 1 389.06, 292L389.06, 305A8 8 0 0 0 391.4, 310.66L403.31, 322.57A16 16 0 0 1 408, 333.83z" fill="#727272" opacity="0.4" fill-opacity="1" class="Black" />
      <path d="M260.07, 217.72A4.47 4.47 0 0 1 261.79, 219.58A8 8 0 0 0 268.94, 224L272, 224A8 8 0 0 0 280, 216L280, 137.88A16 16 0 0 0 271.16, 123.57L260.33, 118.16A8 8 0 0 1 259.47, 104.35L300.88, 73.08A28 28 0 0 0 312, 50.73L312, 16.35A248.23 248.23 0 0 0 248, 8C111, 8 0, 119 0, 256A249.89 249.89 0 0 0 2.05, 288L113.38, 288A16 16 0 0 0 124.69, 283.31L144.16, 263.85A8 8 0 0 1 157, 265.92L179.62, 311.15A16 16 0 0 0 193.9, 320L200, 320A16 16 0 0 0 216, 304L216, 294.63A16 16 0 0 0 211.31, 283.32L205.65, 277.66A8 8 0 0 1 205.65, 266.35L211.31, 260.69A16 16 0 0 1 222.63, 256L222.94, 256A16 16 0 0 0 236.66, 248.23L254, 219.28A4.42 4.42 0 0 1 260.05, 217.71zM403.31, 322.52L391.4, 310.61A8 8 0 0 1 389.06, 304.95L389.06, 292A4 4 0 0 0 385.06, 288L379, 288A4 4 0 0 0 375.16, 290.88L371, 305.37A4 4 0 0 1 367.16, 308.25L363.36, 308.25A4 4 0 0 1 359.67, 305.79L354.32, 292.94A8 8 0 0 0 346.93, 288.01L334.79, 288.01A8 8 0 0 0 330.15, 289.49L306.44, 306.38A26.35 26.35 0 0 1 300.85, 309.43L261.51, 325.17A8 8 0 0 0 256.51, 332.6L256.51, 342.8A8 8 0 0 0 258.85, 348.46L270.76, 360.37A16 16 0 0 0 282, 365.06L292.34, 365.06A15.86 15.86 0 0 0 296.22, 364.58L317.49, 359.26A26.78 26.78 0 0 1 342.91, 366.26L355.91, 379.26A16 16 0 0 0 367.27, 384L382.43, 384A16 16 0 0 0 393.74, 379.31L403.31, 369.74A16 16 0 0 0 408, 358.43L408, 333.83A16 16 0 0 0 403.31, 322.52z" fill="#727272" fill-opacity="1" class="Black" />
    </g>
  </g>
</svg>