<?xml version='1.0' encoding='UTF-8'?>
<svg viewBox="-1.9999 -1.549 31.9975 32" xmlns="http://www.w3.org/2000/svg">
  <g transform="matrix(0.999, 0, 0, 0.999, 0, 0)">
    <g transform="matrix(0.0565, 0, 0, 0.0565, 0, 0)">
      <defs>
        <style>.fa-secondary{opacity:.4}</style>
      </defs>
      <path d="M489.55, 312.41C464, 422.22 365.59, 504 248, 504C111, 504 0, 393 0, 256A247 247 0 0 1 56, 99L56, 144.71A50 50 0 0 0 64.55, 172.66C76.27, 190.05 92.93, 214.73 100.22, 225.43A114.79 114.79 0 0 0 118.28, 246.17L119.08, 246.89A144.26 144.26 0 0 0 150.73, 268.64C164.73, 275.69 185.17, 286.8 199.54, 294.75A31.9 31.9 0 0 1 216, 322.75L216, 354.75A32 32 0 0 0 225.37, 377.38C240.37, 392.38 249.69, 416.01 248, 428.63L248, 457.7A21 21 0 0 0 271.49, 478.55C273.24, 478.34 274.98, 478.11 276.72, 477.85A20.91 20.91 0 0 0 293.89, 462.09L308, 404.46C310, 398.97 311.26, 393.25 312.77, 387.59A23.9 23.9 0 0 1 319, 376.88C322.32, 373.55 326.41, 369.48 330.31, 365.6A46.46 46.46 0 0 0 344.03, 332.6A30.49 30.49 0 0 0 335.1, 311L321.39, 297.33A32 32 0 0 0 298.76, 288L232, 288C222.59, 283.29 210.52, 256 200, 256A67.72 67.72 0 0 1 169.69, 248.84L158.61, 243.3A12 12 0 0 1 160.17, 221.3L191.34, 210.91A16 16 0 0 1 206.9, 214L216.18, 222.06A8 8 0 0 0 221.42, 224.06L227.06, 224.06A8 8 0 0 0 234.21, 212.48L218.62, 181.29A8 8 0 0 1 220.2, 172L230.12, 162.35A8 8 0 0 1 235.7, 160L244.7, 160A8 8 0 0 0 250.36, 157.66L258.36, 149.66A8 8 0 0 0 258.36, 138.35L253.67, 133.66A8 8 0 0 1 253.67, 122.35L264, 112L268.69, 107.32A16 16 0 0 0 268.69, 84.69L268.69, 84.69L244.29, 60.29A12.38 12.38 0 0 0 234.74, 56.68C232.21, 56.85 229.69, 57.06 227.16, 57.33A12.41 12.41 0 0 0 216, 69.66A16.35 16.35 0 0 1 204.41, 85.49A16 16 0 0 1 192.84, 84.42A66.09 66.09 0 0 1 176.84, 73.18L136.26, 34.54A247 247 0 0 1 248, 8C351.83, 8 440.71, 71.76 477.67, 162.27L441.16, 165.42A76.22 76.22 0 0 0 413.68, 173.16A24.05 24.05 0 0 0 404.44, 181.31L384.85, 210.69A24 24 0 0 0 384.85, 237.31L402.85, 264.31A24 24 0 0 0 413.39, 273.09L433.91, 283.19z" fill="#727272" opacity="0.4" fill-opacity="1" class="Black" />
      <path d="M321.39, 297.36A32 32 0 0 0 298.76, 288L232, 288C222.59, 283.29 210.52, 256 200, 256A67.72 67.72 0 0 1 169.69, 248.84L158.61, 243.3A12 12 0 0 1 160.17, 221.3L191.34, 210.91A16 16 0 0 1 206.9, 214L216.18, 222.06A8 8 0 0 0 221.42, 224.06L227.06, 224.06A8 8 0 0 0 234.21, 212.48L218.62, 181.29A8 8 0 0 1 220.2, 172L230.12, 162.35A8 8 0 0 1 235.7, 160L244.7, 160A8 8 0 0 0 250.36, 157.66L258.36, 149.66A8 8 0 0 0 258.36, 138.35L253.67, 133.66A8 8 0 0 1 253.67, 122.35L264, 112L268.69, 107.32A16 16 0 0 0 268.69, 84.69L268.69, 84.69L244.29, 60.29A12.38 12.38 0 0 0 234.74, 56.68C232.21, 56.85 229.69, 57.06 227.16, 57.33A12.41 12.41 0 0 0 216, 69.66A16.35 16.35 0 0 1 204.41, 85.49A16 16 0 0 1 192.84, 84.42A66.09 66.09 0 0 1 176.84, 73.18L136.26, 34.54A249 249 0 0 0 56, 99L56, 144.71A50 50 0 0 0 64.55, 172.66C76.27, 190.05 92.93, 214.73 100.22, 225.43A114.79 114.79 0 0 0 118.28, 246.17L119.08, 246.89A144.26 144.26 0 0 0 150.73, 268.64C164.73, 275.69 185.17, 286.8 199.54, 294.75A31.9 31.9 0 0 1 216, 322.75L216, 354.75A32 32 0 0 0 225.37, 377.38C240.37, 392.38 249.69, 416.01 248, 428.63L248, 457.7A21 21 0 0 0 271.49, 478.55C273.24, 478.34 274.98, 478.11 276.72, 477.85A20.91 20.91 0 0 0 293.89, 462.09L308, 404.46C310, 398.97 311.26, 393.25 312.77, 387.59A23.9 23.9 0 0 1 319, 376.88C322.32, 373.55 326.41, 369.48 330.31, 365.6A46.46 46.46 0 0 0 344.03, 332.6A30.49 30.49 0 0 0 335.1, 311zM477.67, 162.27L441.16, 165.42A76.22 76.22 0 0 0 413.68, 173.16A24.05 24.05 0 0 0 404.44, 181.31L384.85, 210.69A24 24 0 0 0 384.85, 237.31L402.85, 264.31A24 24 0 0 0 413.39, 273.09L433.91, 283.19L489.55, 312.41A249.21 249.21 0 0 0 477.67, 162.27z" fill="#727272" fill-opacity="1" class="Black" />
    </g>
  </g>
</svg>