<?xml version='1.0' encoding='UTF-8'?>
<svg viewBox="-3.7495 -2 32 32" xmlns="http://www.w3.org/2000/svg">
  <g transform="matrix(0.0547, 0, 0, 0.0547, 0, 0)">
    <defs>
      <style>.fa-secondary{opacity:.4}</style>
    </defs>
    <path d="M67.9, 384L192, 384L192, 352L134.1, 352C119.9, 352 112.1, 337 121.2, 327.1L186.7, 256L156.6, 256C145.9, 256 140.1, 244.8 146.9, 237.3L214.3, 164.1A13.35 13.35 0 0 1 233.6, 164.1L301, 237.3C307.8, 244.7 302, 256 291.3, 256L261.2, 256L326.7, 327.1C335.8, 337 328, 352 313.8, 352L256, 352L256, 384L380.1, 384C421.8, 343.4 448, 286.9 448, 224C448, 100.3 347.7, 0 224, 0C100.3, 0 0, 100.3 0, 224C0, 286.9 26.1, 343.4 67.9, 384zM336, 160A16 16 0 1 1 320, 176A16 16 0 0 1 336, 160zM240, 64A16 16 0 1 1 224, 80A16 16 0 0 1 240, 64zM80, 224A16 16 0 1 1 64, 240A16 16 0 0 1 80, 224z" fill="#727272" opacity="0.4" fill-opacity="1" class="Black" />
    <path d="M134.1, 352L192, 352L192, 384L256, 384L256, 352L313.8, 352C328, 352 335.8, 337 326.7, 327.1L261.2, 256L291.3, 256C302, 256 307.8, 244.7 301, 237.3L233.6, 164.1A13.35 13.35 0 0 0 214.3, 164.1L146.9, 237.3C140.1, 244.8 145.9, 256 156.6, 256L186.7, 256L121.2, 327.1C112.1, 337 119.9, 352 134.1, 352zM431.4, 487.1L384, 416L64, 416L16.6, 487.1A16 16 0 0 0 29.9, 512L418.1, 512A16 16 0 0 0 431.4, 487.1z" fill="#727272" fill-opacity="1" class="Black" />
  </g>
</svg>