<?xml version='1.0' encoding='UTF-8'?>
<svg viewBox="-1.9999 -1.549 31.9975 32" xmlns="http://www.w3.org/2000/svg">
  <g transform="matrix(0.999, 0, 0, 0.999, 0, 0)">
    <g transform="matrix(0.0565, 0, 0, 0.0565, 0, 0)">
      <defs>
        <style>.fa-secondary{opacity:.4}</style>
      </defs>
      <path d="M491.33, 208L423.5, 208A15.5 15.5 0 0 0 408, 223.5L408, 223.5L408, 230.43A15.49 15.49 0 0 1 399.43, 244.29L384, 252A15.49 15.49 0 0 1 368.47, 251L350.3, 238.88A15.52 15.52 0 0 0 336.8, 237.07L334.15, 237.95A15.47 15.47 0 0 0 324.32, 257.51A15.83 15.83 0 0 0 326.15, 261.25L339.39, 281.11A15.49 15.49 0 0 0 352.28, 288.01L360.49, 288.01A15.5 15.5 0 0 1 375.99, 303.51L375.99, 314.85A15.52 15.52 0 0 1 372.89, 324.15L354.15, 349.15A15.57 15.57 0 0 0 351.32, 355.58L347, 378.39A15.53 15.53 0 0 1 342.24, 386.95A159.61 159.61 0 0 0 317.24, 416.11L304.24, 435.66A27.77 27.77 0 0 1 256.33, 432.66A78.82 78.82 0 0 1 248, 397.39L248, 367.5A15.5 15.5 0 0 0 232.5, 352L206.62, 352A54.63 54.63 0 0 1 152, 297.37L152, 283.31A54.65 54.65 0 0 1 173.85, 239.61L201.43, 218.92A54.6 54.6 0 0 1 234.2, 208L235.09, 208A54.52 54.52 0 0 1 259.52, 213.77L274.24, 221.13A15.49 15.49 0 0 0 286.07, 221.97L333.38, 206.2A15.5 15.5 0 0 0 328.48, 176L318.39, 176A15.5 15.5 0 0 1 307.39, 171.46L300.47, 164.54A15.5 15.5 0 0 0 289.47, 160L199.47, 160A15.5 15.5 0 0 1 184, 144.5L184, 140.1A15.52 15.52 0 0 1 195.74, 125.1L210.19, 121.49A15.53 15.53 0 0 0 219.33, 115.05L227.41, 102.94A15.47 15.47 0 0 1 240.3, 96L264.51, 96A15.5 15.5 0 0 0 280, 80.49L280, 10.05A249.89 249.89 0 0 0 248, 8C111, 8 0, 119 0, 256C0, 393 111, 504 248, 504C385, 504 496, 393 496, 256A249.51 249.51 0 0 0 491.33, 208z" fill="#727272" opacity="0.4" fill-opacity="1" class="Black" />
      <path d="M423.5, 208A15.5 15.5 0 0 0 408, 223.5L408, 223.5L408, 230.43A15.49 15.49 0 0 1 399.43, 244.29L384, 252A15.49 15.49 0 0 1 368.47, 251L350.3, 238.88A15.52 15.52 0 0 0 336.8, 237.07L334.15, 237.95A15.47 15.47 0 0 0 324.32, 257.51A15.83 15.83 0 0 0 326.15, 261.25L339.39, 281.11A15.49 15.49 0 0 0 352.28, 288.01L360.49, 288.01A15.5 15.5 0 0 1 375.99, 303.51L375.99, 314.85A15.52 15.52 0 0 1 372.89, 324.15L354.15, 349.15A15.57 15.57 0 0 0 351.32, 355.58L347, 378.39A15.53 15.53 0 0 1 342.24, 386.95A159.61 159.61 0 0 0 317.24, 416.11L304.24, 435.66A27.77 27.77 0 0 1 256.33, 432.66A78.82 78.82 0 0 1 248, 397.39L248, 367.5A15.5 15.5 0 0 0 232.5, 352L206.62, 352A54.63 54.63 0 0 1 152, 297.37L152, 283.31A54.65 54.65 0 0 1 173.85, 239.61L201.43, 218.92A54.6 54.6 0 0 1 234.2, 208L235.09, 208A54.52 54.52 0 0 1 259.52, 213.77L274.24, 221.13A15.49 15.49 0 0 0 286.07, 221.97L333.38, 206.2A15.5 15.5 0 0 0 328.48, 176L318.39, 176A15.5 15.5 0 0 1 307.39, 171.46L300.47, 164.54A15.5 15.5 0 0 0 289.47, 160L199.47, 160A15.5 15.5 0 0 1 184, 144.5L184, 140.1A15.52 15.52 0 0 1 195.74, 125.1L210.19, 121.49A15.53 15.53 0 0 0 219.33, 115.05L227.41, 102.94A15.47 15.47 0 0 1 240.3, 96L264.51, 96A15.5 15.5 0 0 0 280, 80.49L280, 10.05C386, 23.7 471, 104.24 491.34, 208z" fill="#727272" fill-opacity="1" class="Black" />
    </g>
  </g>
</svg>