<?xml version='1.0' encoding='UTF-8'?>
<svg viewBox="-1.9973 -1.5477 31.9975 32" xmlns="http://www.w3.org/2000/svg">
  <g transform="matrix(0.9991, 0, 0, 0.9991, 0, 0)">
    <g transform="matrix(0.0565, 0, 0, 0.0565, 0, 0)">
      <defs>
        <style>.fa-secondary{opacity:.4}</style>
      </defs>
      <path d="M340.45, 320L155.55, 320A579.08 579.08 0 0 1 155.55, 192L340.45, 192A575 575 0 0 1 344, 256A575 575 0 0 1 340.45, 320zM160.2, 160L335.8, 160C335.39, 157.69 334.96, 155.38 334.52, 153.09C328.52, 122.24 320.1, 94.72 309.39, 71.31C299.54, 49.77 288, 32.54 276.05, 21.48C266.38, 12.53 256.94, 8 248, 8C239.06, 8 229.62, 12.53 220, 21.48C208, 32.54 196.51, 49.77 186.66, 71.31C176, 94.72 167.5, 122.24 161.53, 153.09C161, 155.38 160.61, 157.69 160.2, 160zM120, 256A608 608 0 0 1 123.34, 192L8.35, 192A249.52 249.52 0 0 0 8.35, 320L123.35, 320A608 608 0 0 1 120, 256zM487.62, 192L372.62, 192A608.06 608.06 0 0 1 376, 256A608 608 0 0 1 372.66, 320L487.66, 320A249.52 249.52 0 0 0 487.66, 192zM476.7, 160A248.62 248.62 0 0 0 315.58, 17.32C339.71, 50.32 358.47, 100.47 368.33, 160zM315.58, 494.68A248.59 248.59 0 0 0 476.71, 352L368.33, 352C358.47, 411.53 339.71, 461.68 315.58, 494.68zM335.8, 352L160.2, 352C160.61, 354.31 161.04, 356.62 161.48, 358.91C167.48, 389.76 175.9, 417.28 186.61, 440.69C196.46, 462.23 207.99, 479.46 219.95, 490.52C229.62, 499.52 239.06, 504 248, 504C256.94, 504 266.38, 499.47 276.05, 490.52C288.05, 479.46 299.54, 462.23 309.39, 440.69C320.1, 417.28 328.55, 389.76 334.52, 358.91C335, 356.62 335.39, 354.31 335.8, 352zM180.42, 17.32A248.59 248.59 0 0 0 19.29, 160L127.67, 160C137.53, 100.47 156.29, 50.32 180.42, 17.32zM19.29, 352A248.59 248.59 0 0 0 180.42, 494.68C156.29, 461.68 137.53, 411.53 127.67, 352z" fill="#727272" opacity="0.4" fill-opacity="1" class="Black" />
      <path d="M376, 256A608 608 0 0 0 372.66, 192L487.66, 192A245.72 245.72 0 0 0 476.74, 160L368.33, 160C358.47, 100.47 339.71, 50.32 315.58, 17.32A248.23 248.23 0 0 0 248, 8C256.94, 8 266.38, 12.53 276.05, 21.48C288.05, 32.54 299.54, 49.77 309.39, 71.31C320.1, 94.72 328.55, 122.24 334.52, 153.09C334.96, 155.38 335.39, 157.69 335.8, 160L160.2, 160C160.61, 157.69 161.04, 155.38 161.48, 153.09C167.48, 122.24 175.9, 94.72 186.61, 71.31C196.46, 49.77 208, 32.54 220, 21.48C229.62, 12.53 239.06, 8 248, 8A248.23 248.23 0 0 0 180.42, 17.32C156.29, 50.32 137.53, 100.47 127.67, 160L19.29, 160A245.72 245.72 0 0 0 8.37, 192L123.37, 192A613.93 613.93 0 0 0 123.37, 320L8.37, 320A245.72 245.72 0 0 0 19.29, 352L127.67, 352C137.53, 411.53 156.29, 461.68 180.42, 494.68A248.23 248.23 0 0 0 248, 504C239.06, 504 229.62, 499.47 219.95, 490.52C207.95, 479.46 196.46, 462.23 186.61, 440.69C175.9, 417.28 167.45, 389.76 161.48, 358.91C161.04, 356.62 160.61, 354.31 160.2, 352L335.8, 352C335.39, 354.31 334.96, 356.62 334.52, 358.91C328.52, 389.76 320.1, 417.28 309.39, 440.69C299.54, 462.23 288.01, 479.46 276.05, 490.52C266.38, 499.52 256.94, 504 248, 504A248.23 248.23 0 0 0 315.58, 494.68C339.71, 461.68 358.47, 411.53 368.33, 352L476.71, 352A245.72 245.72 0 0 0 487.63, 320L372.63, 320A605.37 605.37 0 0 0 376, 256zM340.46, 320L155.55, 320A579.08 579.08 0 0 1 155.55, 192L340.45, 192A575 575 0 0 1 344, 256A575 575 0 0 1 340.45, 320z" fill="#727272" fill-opacity="1" class="Black" />
    </g>
  </g>
</svg>