<?xml version='1.0' encoding='UTF-8'?>
<svg viewBox="-4.6243 -2 32 32" xmlns="http://www.w3.org/2000/svg">
  <g transform="matrix(0.0547, 0, 0, 0.0547, 0, 0)">
    <defs>
      <style>.fa-secondary{opacity:.4}</style>
    </defs>
    <path d="M208, 0C93.1, 0 0, 93.1 0, 208C0, 282.2 39, 347.2 97.5, 384L318.5, 384C377, 347.2 416, 282.2 416, 208C416, 93.1 322.9, 0 208, 0zM205, 229.8C231.3, 239.2 256.5, 214.7 246.9, 187.9A32.91 32.91 0 1 1 205, 229.8zM251.9, 331.9A32.88 32.88 0 0 1 221, 309.8C247.3, 319.2 272.5, 294.7 262.9, 267.9A32.91 32.91 0 0 1 251.9, 331.9zM315.9, 267.9A32.88 32.88 0 0 1 285, 245.8C311.3, 255.2 336.5, 230.7 326.9, 203.9A32.91 32.91 0 0 1 315.9, 267.9z" fill="#727272" opacity="0.4" fill-opacity="1" class="Black" />
    <path d="M326.9, 203.9C336.5, 230.7 311.3, 255.2 285, 245.8A32.91 32.91 0 1 0 326.9, 203.9zM221, 309.8A32.91 32.91 0 1 0 262.9, 267.9C272.5, 294.7 247.3, 319.2 221, 309.8zM235.9, 251.9A32.91 32.91 0 0 0 246.9, 187.9C256.5, 214.7 231.3, 239.2 205, 229.8A32.88 32.88 0 0 0 235.9, 251.9zM128, 448L144, 448A32 32 0 0 1 176, 480L176, 500A12 12 0 0 0 188, 512L228, 512A12 12 0 0 0 240, 500L240, 480A32 32 0 0 1 272, 448L288, 448A32 32 0 0 0 320, 416L96, 416A32 32 0 0 0 128, 448z" fill="#727272" fill-opacity="1" class="Black" />
  </g>
</svg>