<?xml version='1.0' encoding='UTF-8'?>
<svg viewBox="-2 -4.7992 32 32" xmlns="http://www.w3.org/2000/svg">
  <g transform="matrix(0.9988, 0, 0, 0.9988, 0, 0)">
    <g transform="matrix(0.0438, 0, 0, 0.0438, 0, 0)">
      <defs>
        <style>.fa-secondary{opacity:.4}</style>
      </defs>
      <path d="M323.07, 175.7L118.8, 215.6A48.1 48.1 0 0 0 80.06, 260.33A32 32 0 0 1 82.27, 314.27L107.67, 428.53A16 16 0 0 1 92, 448L35.94, 448A16 16 0 0 1 20.33, 428.53L45.72, 314.26A32 32 0 0 1 48.05, 260.26A80.16 80.16 0 0 1 112.67, 184.19L316.93, 144.3A16 16 0 1 1 323.07, 175.7z" fill="#727272" opacity="0.4" fill-opacity="1" class="Black" />
      <path d="M622.33, 198.8L343.33, 284.5A80 80 0 0 1 296.54, 284.5L99.67, 224A47.84 47.84 0 0 1 118.8, 215.61L323.07, 175.71A16 16 0 1 0 316.93, 144.31L112.67, 184.19A79.87 79.87 0 0 0 65.1, 213.37L17.66, 198.79C-5.88, 191.56 -5.88, 160.43 17.66, 153.2L296.6, 67.5A79.92 79.92 0 0 1 343.4, 67.5L622.33, 153.2C645.88, 160.44 645.88, 191.56 622.33, 198.8zM352.79, 315.09A111.94 111.94 0 0 1 287.2, 315.09L142.2, 270.54L128, 384C128, 419.35 214, 448 320, 448C426, 448 512, 419.35 512, 384L497.81, 270.53z" fill="#727272" fill-opacity="1" class="Black" />
    </g>
  </g>
</svg>