<?xml version='1.0' encoding='UTF-8'?>
<svg viewBox="-2.9329 -1.0644 32 31.9975" xmlns="http://www.w3.org/2000/svg">
  <g transform="matrix(0.0583, 0, 0, 0.0583, 0, 0)">
    <defs>
      <style>.fa-secondary{opacity:.4}</style>
    </defs>
    <path d="M24, 400L424, 400A24 24 0 0 1 448, 424L448, 472A24 24 0 0 1 424, 496L24, 496A24 24 0 0 1 0, 472L0, 424A24 24 0 0 1 24, 400z" fill="#727272" opacity="0.4" fill-opacity="1" class="Black" />
    <path d="M55.34, 243.83L230.78, 175.78L55.22, 107.69C36.93, 101.69 27.48, 83.43 34.12, 66.9L46.15, 37C52.79, 20.45 73, 11.92 91.3, 17.92L393, 137.9C406.77, 142.42 416, 154.51 416, 168.07L416, 184.07C416, 197.63 406.79, 209.72 393, 214.24L91.61, 334.06C73.22, 340.06 52.91, 331.52 46.23, 314.91L34.14, 284.83C27.46, 268.22 37, 249.86 55.34, 243.83z" fill="#727272" fill-opacity="1" class="Black" />
  </g>
</svg>