<?xml version='1.0' encoding='UTF-8'?>
<svg viewBox="-1.9999 -1.549 31.9975 32" xmlns="http://www.w3.org/2000/svg">
  <g transform="matrix(0.999, 0, 0, 0.999, 0, 0)">
    <g transform="matrix(0.0565, 0, 0, 0.0565, 0, 0)">
      <defs>
        <style>.fa-secondary{opacity:.4}</style>
      </defs>
      <path d="M248, 8C111, 8 0, 119 0, 256C0, 393 111, 504 248, 504C385, 504 496, 393 496, 256C496, 119 385, 8 248, 8zM144, 400L136, 400A32 32 0 0 1 104, 368L104, 360L144, 360zM144, 344L104, 344L104, 336A32 32 0 0 1 136, 304L144, 304zM136, 208A32 32 0 1 1 168, 240A32 32 0 0 1 136, 208zM208, 400L160, 400L160, 360L208, 360zM208, 344L160, 344L160, 304L208, 304zM272, 400L224, 400L224, 360L272, 360zM272, 344L224, 344L224, 304L272, 304zM336, 400L288, 400L288, 360L336, 360zM336, 344L288, 344L288, 304L336, 304zM328, 240A32 32 0 1 1 360, 208A32 32 0 0 1 328, 240zM392, 368A32 32 0 0 1 360, 400L352, 400L352, 360L392, 360zM392, 344L352, 344L352, 304L360, 304A32 32 0 0 1 392, 336z" fill="#727272" opacity="0.4" fill-opacity="1" class="Black" />
      <path d="M168, 176A32 32 0 1 0 200, 208A32 32 0 0 0 168, 176zM328, 176A32 32 0 1 0 360, 208A32 32 0 0 0 328, 176z" fill="#727272" fill-opacity="1" class="Black" />
    </g>
  </g>
</svg>