<?xml version='1.0' encoding='UTF-8'?>
<svg viewBox="-2.2209 -1.5552 32 32" xmlns="http://www.w3.org/2000/svg">
  <g transform="matrix(0.9992, 0, 0, 0.9992, 0, 0)">
    <g transform="matrix(0.0556, 0, 0, 0.0556, 0, 0)">
      <defs>
        <style>.fa-secondary{opacity:.4}</style>
      </defs>
      <path d="M248, 8C111, 8 0, 119 0, 256.07C0, 362.4 67, 452.82 161, 488.07A95.5 95.5 0 0 1 152, 448.07L152, 402.6C127.3, 386.4 108.5, 364.5 104.2, 338.79A16.06 16.06 0 0 1 124.9, 320.89C155.1, 330.59 200, 336.09 248, 336.09C296, 336.09 340.9, 330.59 371.1, 320.89A16 16 0 0 1 391.8, 338.79C387.5, 364.5 368.7, 386.4 344, 402.6L344, 448.12A95.5 95.5 0 0 1 335, 488.12C429, 452.81 496, 362.39 496, 256.12C496, 119 385, 8 248, 8zM192, 233L182.5, 224.5C167.7, 211.3 136.3, 211.3 121.5, 224.5L112, 233C103.5, 240.4 90.4, 233.3 92.2, 222.2C96.2, 197 126.4, 180.09 152.1, 180.09C177.8, 180.09 208, 197 212, 222.26C213.6, 233.36 200.4, 240.46 192, 233zM344, 272A45.25 45.25 0 1 1 344.05, 272.05L344, 272.05z" fill="#727272" opacity="0.4" fill-opacity="1" class="Black" />
      <path d="M212, 222.26C208, 197.06 177.8, 180.15 152.1, 180.15C126.4, 180.15 96.2, 197 92.2, 222.26C90.4, 233.36 103.5, 240.46 112, 233.06L121.5, 224.56C136.3, 211.36 167.7, 211.36 182.5, 224.56L192, 233C200.4, 240.4 213.6, 233.3 212, 222.2zM258.5, 392.26L256.7, 400.06C254.6, 409.28 241.5, 409.28 239.4, 400.06L237.6, 392.26C234.1, 376.86 217.4, 368.16 203, 374.66C202.1, 375.06 203.3, 374.46 184.1, 384.06L184.1, 447.06C184.1, 482.27 212.1, 511.57 247.2, 511.97A64 64 0 0 0 312.09, 448.75L312.09, 384C292.59, 374.4 293.89, 375.1 293.09, 374.7C278.7, 368.2 262, 376.9 258.5, 392.3zM344, 184A23.94 23.94 0 1 0 344.12, 184z" fill="#727272" fill-opacity="1" class="Black" />
    </g>
  </g>
</svg>