<?xml version='1.0' encoding='UTF-8'?>
<svg viewBox="-1.9999 -1.549 31.9975 32" xmlns="http://www.w3.org/2000/svg">
  <g transform="matrix(0.999, 0, 0, 0.999, 0, 0)">
    <g transform="matrix(0.0565, 0, 0, 0.0565, 0, 0)">
      <defs>
        <style>.fa-secondary{opacity:.4}</style>
      </defs>
      <path d="M248, 8C111, 8 0, 119 0, 256C0, 393 111, 504 248, 504C385, 504 496, 393 496, 256C496, 119 385, 8 248, 8zM272.2, 223.4C275.3, 181.3 304.2, 152 328, 152C351.8, 152 380.7, 181.3 384, 223.4C384.7, 232 373.2, 235.3 369.1, 227.9L359.6, 210.9C351.9, 197.2 340.4, 189.3 328.1, 189.3C315.8, 189.3 304.3, 197.2 296.6, 210.9L287.1, 227.9C283, 235.2 271.5, 231.9 272.2, 223.4zM112.2, 223.4C115.3, 181.3 144.2, 152 168, 152C191.8, 152 220.7, 181.3 224, 223.4C224.7, 232 213.2, 235.3 209.1, 227.9L199.6, 210.9C191.9, 197.2 180.4, 189.3 168.1, 189.3C155.8, 189.3 144.3, 197.2 136.6, 210.9L127.1, 227.9C122.9, 235.3 111.5, 231.9 112.2, 223.4zM391.8, 338.7C382.5, 393.7 308.6, 432 248, 432C187.4, 432 113.5, 393.7 104.2, 338.7A16 16 0 0 1 124.9, 320.8C155.1, 330.5 200, 336 248, 336C296, 336 340.9, 330.5 371.1, 320.8A16 16 0 0 1 391.8, 338.7z" fill="#727272" opacity="0.4" fill-opacity="1" class="Black" />
      <path d="M168, 152C144.2, 152 115.3, 181.3 112.2, 223.4C111.5, 231.9 122.9, 235.3 127.1, 227.9L136.6, 210.9C144.3, 197.2 155.8, 189.3 168.1, 189.3C180.4, 189.3 191.9, 197.2 199.6, 210.9L209.1, 227.9C213.2, 235.3 224.7, 232 224, 223.4C220.7, 181.3 191.8, 152 168, 152zM384, 223.4C380.7, 181.3 351.8, 152 328, 152C304.2, 152 275.3, 181.3 272.2, 223.4C271.5, 231.9 283, 235.2 287.1, 227.9L296.6, 210.9C304.3, 197.2 315.8, 189.3 328.1, 189.3C340.4, 189.3 351.9, 197.2 359.6, 210.9L369.1, 227.9C373.2, 235.3 384.7, 232 384, 223.4z" fill="#727272" fill-opacity="1" class="Black" />
    </g>
  </g>
</svg>