<?xml version='1.0' encoding='UTF-8'?>
<svg viewBox="-2 -1.9988 32 32" xmlns="http://www.w3.org/2000/svg">
  <g transform="matrix(0.9992, 0, 0, 0.9992, 0, 0)">
    <g transform="matrix(0.0556, 0, 0, 0.0556, 0, 0)">
      <defs>
        <style>.fa-secondary{opacity:.4}</style>
      </defs>
      <path d="M456, 160C411.9, 160 376, 124.6 376, 81C376, 76.59 376.3, 66.8 384.1, 48.8A246.82 246.82 0 0 0 248, 8C111, 8 0, 119 0, 256C0, 393 111, 504 248, 504C385, 504 496, 393 496, 256A247.08 247.08 0 0 0 475.5, 157.39A83.3 83.3 0 0 1 456, 160zM272.2, 223.4C275.3, 181.31 304.2, 152 328, 152C351.8, 152 380.7, 181.31 384, 223.4C384.7, 232 373.2, 235.4 369.1, 227.9L359.6, 210.9C351.9, 197.21 340.4, 189.31 328.1, 189.31C315.8, 189.31 304.3, 197.21 296.6, 210.9L287.1, 227.9C283, 235.33 271.5, 231.9 272.2, 223.42zM112.2, 223.4C115.3, 181.31 144.2, 152 168, 152C191.8, 152 220.7, 181.31 224, 223.4C224.7, 232 213.2, 235.4 209.1, 227.9L199.6, 210.9C191.9, 197.21 180.4, 189.31 168.1, 189.31C155.8, 189.31 144.3, 197.21 136.6, 210.9L127.1, 227.9C122.9, 235.33 111.5, 231.9 112.2, 223.42zM391.8, 338.72C382.5, 393.72 308.6, 432 248, 432C187.4, 432 113.5, 393.7 104.2, 338.7A16 16 0 0 1 124.9, 320.8C155.1, 330.51 200, 336 248, 336C296, 336 340.9, 330.5 371.1, 320.81A16.05 16.05 0 0 1 391.8, 338.73z" fill="#727272" opacity="0.4" fill-opacity="1" class="Black" />
      <path d="M462.4, 3.2A8 8 0 0 0 451.2, 1.6L451.2, 1.6A7.58 7.58 0 0 0 449.6, 3.2C436.5, 20.59 408, 61 408, 81C408, 107 429.5, 128 456, 128C482.5, 128 504, 107 504, 81C504, 61 475.5, 20.59 462.4, 3.2zM168, 152C144.2, 152 115.3, 181.31 112.2, 223.4C111.5, 231.9 122.9, 235.31 127.1, 227.9L136.6, 210.9C144.3, 197.21 155.8, 189.31 168.1, 189.31C180.4, 189.31 191.9, 197.21 199.6, 210.9L209.1, 227.9C213.2, 235.4 224.7, 232 224, 223.4C220.7, 181.33 191.8, 152 168, 152zM328, 152C304.2, 152 275.3, 181.31 272.2, 223.4C271.5, 231.9 283, 235.31 287.1, 227.9L296.6, 210.9C304.3, 197.21 315.8, 189.31 328.1, 189.31C340.4, 189.31 351.9, 197.21 359.6, 210.9L369.1, 227.9C373.2, 235.4 384.7, 232 384, 223.4C380.7, 181.31 351.8, 152 328, 152z" fill="#727272" fill-opacity="1" class="Black" />
    </g>
  </g>
</svg>