<?xml version='1.0' encoding='UTF-8'?>
<svg viewBox="-1.9999 -1.549 31.9975 32" xmlns="http://www.w3.org/2000/svg">
  <g transform="matrix(0.999, 0, 0, 0.999, 0, 0)">
    <g transform="matrix(0.0565, 0, 0, 0.0565, 0, 0)">
      <defs>
        <style>.fa-secondary{opacity:.4}</style>
      </defs>
      <path d="M248, 8C111, 8 0, 119 0, 256C0, 393 111, 504 248, 504C385, 504 496, 393 496, 256C496, 119 385, 8 248, 8zM94.6, 168.9L129.5, 163.9L145, 132.3A7.73 7.73 0 0 1 158.9, 132.3L174.4, 163.9L209.3, 168.9A7.78 7.78 0 0 1 213.6, 182.1L188.2, 206.7L194.2, 241.6A7.48 7.48 0 0 1 183.2, 249.5L152, 233.3L120.7, 249.6A7.48 7.48 0 0 1 109.7, 241.7L115.7, 206.8L90.3, 182.2A7.85 7.85 0 0 1 94.6, 168.9zM391.8, 338.7C382.5, 393.7 308.6, 432 248, 432C187.4, 432 113.5, 393.7 104.2, 338.7A16.06 16.06 0 0 1 124.9, 320.8C155.1, 330.5 200, 336 248, 336C296, 336 340.9, 330.5 371.1, 320.8A16 16 0 0 1 391.8, 338.7zM405.7, 182.1L380.3, 206.7L386.3, 241.6A7.48 7.48 0 0 1 375.3, 249.5L344, 233.3L312.7, 249.6A7.48 7.48 0 0 1 301.7, 241.7L307.7, 206.8L282.3, 182.2A7.81 7.81 0 0 1 286.6, 169L321.5, 164L337, 132.4A7.73 7.73 0 0 1 350.9, 132.4L366.4, 164L401.3, 169A7.7 7.7 0 0 1 405.7, 182.1z" fill="#727272" opacity="0.4" fill-opacity="1" class="Black" />
      <path d="M209.3, 168.9L174.4, 163.9L158.9, 132.3A7.73 7.73 0 0 0 145, 132.3L129.5, 163.9L94.6, 168.9A7.85 7.85 0 0 0 90.3, 182.2L115.7, 206.8L109.7, 241.7A7.48 7.48 0 0 0 120.7, 249.6L152, 233.3L183.2, 249.5A7.48 7.48 0 0 0 194.2, 241.6L188.2, 206.7L213.6, 182.1A7.78 7.78 0 0 0 209.3, 168.9zM401.3, 169L366.4, 164L350.9, 132.4A7.73 7.73 0 0 0 337, 132.4L321.5, 164L286.6, 169A7.81 7.81 0 0 0 280.13, 177.95L280.13, 178A7.92 7.92 0 0 0 282.29, 182.24L307.69, 206.84L301.69, 241.74A7.48 7.48 0 0 0 312.69, 249.64L344, 233.3L375.3, 249.5A7.48 7.48 0 0 0 386.3, 241.6L380.3, 206.7L405.7, 182.1A7.68 7.68 0 0 0 401.3, 169z" fill="#727272" fill-opacity="1" class="Black" />
    </g>
  </g>
</svg>