<?xml version='1.0' encoding='UTF-8'?>
<svg viewBox="-2.2209 -1.5552 32 32" xmlns="http://www.w3.org/2000/svg">
  <g transform="matrix(0.9992, 0, 0, 0.9992, 0, 0)">
    <g transform="matrix(0.0556, 0, 0, 0.0556, 0, 0)">
      <defs>
        <style>.fa-secondary{opacity:.4}</style>
      </defs>
      <path d="M248, 8C111, 8 0, 119 0, 256.06C0, 362.38 67, 452.79 161, 488.06A95.5 95.5 0 0 1 152, 448.06L152, 402.58C127.3, 386.38 108.5, 364.48 104.2, 338.77A16 16 0 0 1 124.9, 320.87C155.1, 330.57 200, 336.07 248, 336.07C296, 336.07 340.9, 330.57 371.1, 320.87A16 16 0 0 1 391.8, 338.77C387.5, 364.48 368.7, 386.38 344, 402.58L344, 448.09A95.5 95.5 0 0 1 335, 488.09C429, 452.78 496, 362.37 496, 256.09C496, 119 385, 8 248, 8zM214.2, 218.35L134.2, 266.35C122.7, 273.15 110.2, 258.75 118.8, 248.35L152.4, 208L118.8, 167.68C110.2, 157.38 122.6, 142.78 134.2, 149.68L214.2, 197.68A12.07 12.07 0 0 1 218.2, 214.27A12.2 12.2 0 0 1 214.2, 218.27zM361.8, 266.35L281.8, 218.35A12 12 0 0 1 281.8, 197.75L361.8, 149.75C373.5, 142.85 385.7, 157.45 377.2, 167.75L343.6, 208L377.2, 248.31C385.9, 258.71 373.3, 273.11 361.8, 266.31z" fill="#727272" opacity="0.4" fill-opacity="1" class="Black" />
      <path d="M214.2, 197.75L134.2, 149.75C122.6, 142.85 110.2, 157.45 118.8, 167.75L152.4, 208L118.8, 248.31C110.2, 258.71 122.7, 273.11 134.2, 266.31L214.2, 218.31A12.05 12.05 0 0 0 214.2, 197.71zM258.5, 392.28L256.7, 400.08C254.6, 409.29 241.5, 409.29 239.4, 400.08L237.6, 392.28C234.1, 376.88 217.4, 368.18 203, 374.68C202.1, 375.08 203.3, 374.48 184.1, 384.08L184.1, 447.08C184.1, 482.29 212.1, 511.59 247.2, 511.99A64 64 0 0 0 312.09, 448.77L312.09, 384C292.59, 374.4 293.89, 375.1 293.09, 374.7C278.7, 368.17 262, 376.87 258.5, 392.27zM377.2, 248.36L343.6, 208L377.2, 167.68C385.7, 157.38 373.5, 142.78 361.8, 149.68L281.8, 197.68A12 12 0 0 0 281.8, 218.28L361.8, 266.28C373.3, 273.08 385.9, 258.68 377.2, 248.28z" fill="#727272" fill-opacity="1" class="Black" />
    </g>
  </g>
</svg>