<?xml version='1.0' encoding='UTF-8'?>
<svg viewBox="-1.9999 -1.549 31.9975 32" xmlns="http://www.w3.org/2000/svg">
  <g transform="matrix(0.999, 0, 0, 0.999, 0, 0)">
    <g transform="matrix(0.0565, 0, 0, 0.0565, 0, 0)">
      <defs>
        <style>.fa-secondary{opacity:.4}</style>
      </defs>
      <path d="M248, 8C111, 8 0, 119 0, 256C0, 393 111, 504 248, 504C385, 504 496, 393 496, 256C496, 119 385, 8 248, 8zM90.4, 183.6C97.1, 166 117.1, 156.9 135.3, 161.7L142.4, 163.6L144.4, 156.5C149.4, 138.4 167.2, 125.6 185.9, 128.6A35.38 35.38 0 0 1 215.61, 168.86L215.61, 168.86A35.93 35.93 0 0 1 214.7, 173.1L195.3, 243A8.59 8.59 0 0 1 184.8, 249L114.6, 230.8A35.49 35.49 0 0 1 89.13, 187.55L89.13, 187.55A34.27 34.27 0 0 1 90.4, 183.6zM391.8, 338.7C382.5, 393.7 308.6, 432 248, 432C187.4, 432 113.5, 393.7 104.2, 338.7A16 16 0 0 1 124.9, 320.8C155.1, 330.5 200, 336 248, 336C296, 336 340.9, 330.5 371.1, 320.8A16.08 16.08 0 0 1 391.8, 338.7zM381.4, 230.7L311.2, 248.9A8.68 8.68 0 0 1 300.7, 242.9L281.3, 173A35.38 35.38 0 0 1 305.84, 129.41L305.84, 129.41A35.93 35.93 0 0 1 310.08, 128.5C328.68, 125.5 346.48, 138.3 351.58, 156.4L353.58, 163.5L360.68, 161.6C378.88, 156.9 398.88, 165.9 405.58, 183.5A35.42 35.42 0 0 1 385.48, 229.38A36.92 36.92 0 0 1 381.38, 230.7z" fill="#727272" opacity="0.4" fill-opacity="1" class="Black" />
      <path d="M185.9, 128.6C167.2, 125.6 149.4, 138.4 144.4, 156.5L142.4, 163.6L135.3, 161.7C117.1, 156.9 97.1, 166 90.4, 183.6A35.5 35.5 0 0 0 110.65, 229.53A36.32 36.32 0 0 0 114.6, 230.8L184.8, 249A8.59 8.59 0 0 0 195.3, 243L214.7, 173.1A35.38 35.38 0 0 0 190.16, 129.51L190.16, 129.51A35.93 35.93 0 0 0 185.92, 128.6zM405.6, 183.5C398.9, 165.9 378.9, 156.9 360.7, 161.6L353.6, 163.5L351.6, 156.4C346.5, 138.3 328.7, 125.5 310.1, 128.5A35.38 35.38 0 0 0 280.39, 168.76L280.39, 168.76A35.93 35.93 0 0 0 281.3, 173L300.7, 242.9A8.68 8.68 0 0 0 311.2, 248.9L381.4, 230.7A35.4 35.4 0 0 0 406.92, 187.62L406.92, 187.62A36.92 36.92 0 0 0 405.6, 183.52z" fill="#727272" fill-opacity="1" class="Black" />
    </g>
  </g>
</svg>