<?xml version='1.0' encoding='UTF-8'?>
<svg viewBox="-2 -2 32 32" xmlns="http://www.w3.org/2000/svg">
  <g transform="matrix(0.0547, 0, 0, 0.0547, 0, 0)">
    <defs>
      <style>.fa-secondary{opacity:.4}</style>
    </defs>
    <path d="M512, 304L512, 336A16 16 0 0 1 496, 352L16, 352A16 16 0 0 1 0, 336L0, 304A16 16 0 0 1 16, 288L496, 288A16 16 0 0 1 512, 304z" fill="#727272" opacity="0.4" fill-opacity="1" class="Black" />
    <path d="M512, 176L512, 208A16 16 0 0 1 496, 224L16, 224A16 16 0 0 1 0, 208L0, 176A16 16 0 0 1 16, 160L496, 160A16 16 0 0 1 512, 176z" fill="#727272" fill-opacity="1" class="Black" />
  </g>
</svg>