<?xml version='1.0' encoding='UTF-8'?>
<svg viewBox="-6 0 32 32" xmlns="http://www.w3.org/2000/svg">
  <g transform="matrix(0.0625, 0, 0, 0.0625, 0, 0)">
    <defs>
      <style>.fa-secondary{opacity:.4}</style>
    </defs>
    <path d="M288, 352L224, 352A32 32 0 0 0 192, 384L192, 448A32 32 0 0 0 224, 480L288, 480A32 32 0 0 0 320, 448L320, 384A32 32 0 0 0 288, 352zM288, 32L224, 32A32 32 0 0 0 192, 64L192, 128A32 32 0 0 0 224, 160L288, 160A32 32 0 0 0 320, 128L320, 64A32 32 0 0 0 288, 32zM288, 192L224, 192A32 32 0 0 0 192, 224L192, 288A32 32 0 0 0 224, 320L288, 320A32 32 0 0 0 320, 288L320, 224A32 32 0 0 0 288, 192z" fill="#727272" opacity="0.4" fill-opacity="1" class="Black" />
    <path d="M96, 352L32, 352A32 32 0 0 0 0, 384L0, 448A32 32 0 0 0 32, 480L96, 480A32 32 0 0 0 128, 448L128, 384A32 32 0 0 0 96, 352zM96, 192L32, 192A32 32 0 0 0 0, 224L0, 288A32 32 0 0 0 32, 320L96, 320A32 32 0 0 0 128, 288L128, 224A32 32 0 0 0 96, 192zM96, 32L32, 32A32 32 0 0 0 0, 64L0, 128A32 32 0 0 0 32, 160L96, 160A32 32 0 0 0 128, 128L128, 64A32 32 0 0 0 96, 32z" fill="#727272" fill-opacity="1" class="Black" />
  </g>
</svg>