<?xml version='1.0' encoding='UTF-8'?>
<svg viewBox="-8.9981 -2 32 32" xmlns="http://www.w3.org/2000/svg">
  <g transform="matrix(0.0547, 0, 0, 0.0547, 0, 0)">
    <defs>
      <style>.fa-secondary{opacity:.4}</style>
    </defs>
    <path d="M224, 16L224, 496A16 16 0 0 1 208, 512L176, 512A16 16 0 0 1 160, 496L160, 16A16 16 0 0 1 176, 0L208, 0A16 16 0 0 1 224, 16z" fill="#727272" opacity="0.4" fill-opacity="1" class="Black" />
    <path d="M96, 16L96, 496A16 16 0 0 1 80, 512L48, 512A16 16 0 0 1 32, 496L32, 16A16 16 0 0 1 48, 0L80, 0A16 16 0 0 1 96, 16z" fill="#727272" fill-opacity="1" class="Black" />
  </g>
</svg>