<?xml version='1.0' encoding='UTF-8'?>
<svg viewBox="-1.9975 -1.9987 32 32" xmlns="http://www.w3.org/2000/svg">
  <g transform="matrix(0.0547, 0, 0, 0.0547, 0, 0)">
    <defs>
      <style>.fa-secondary{opacity:.4}</style>
    </defs>
    <path d="M243.76, 223.27A39.45 39.45 0 0 1 240.58, 184.85L257.87, 147.72A18.82 18.82 0 0 0 227.49, 126.49L189.18, 164.76A77.49 77.49 0 0 0 170.94, 193.59A77.6 77.6 0 0 1 130.42, 238L54, 273.33C-3.23, 296.19 -18.4, 370 25.16, 413.54L98.55, 486.87C142.11, 530.38 216, 515.23 238.9, 458.09L274.3, 381.71A77.64 77.64 0 0 1 318.71, 341.23A77.77 77.77 0 0 0 347.57, 323L369.14, 301.45A19.87 19.87 0 0 0 349.03, 268.45L325.32, 276A39.67 39.67 0 0 1 288.56, 268.89zM181.66, 394.36L170.35, 405.67A8 8 0 0 1 159.03, 405.67L106.34, 353A8 8 0 0 1 106.34, 341.69L117.66, 330.38A8 8 0 0 1 128.97, 330.38L181.66, 383.06A8 8 0 0 1 181.66, 394.36zM245.66, 330.36L234.35, 341.67A8 8 0 0 1 223.03, 341.67L170.35, 289A8 8 0 0 1 170.35, 277.69L181.66, 266.38A8 8 0 0 1 192.97, 266.38L245.66, 319.06A8 8 0 0 1 245.66, 330.37z" fill="#727272" opacity="0.4" fill-opacity="1" class="Black" />
    <path d="M511.21, 39.57A48.12 48.12 0 0 0 473.42, 1.31C450.48, -3 450.66, 0.79 366.74, 54.93A32.15 32.15 0 0 0 352, 81.88L352, 115.15L243.81, 223.33L288.56, 268.93L288.65, 268.98L461.65, 96.05C462.47, 96.11 463.22, 96.4 464.05, 96.4A48 48 0 0 0 511.21, 39.57zM129, 330.37A8 8 0 0 0 117.69, 330.37L106.37, 341.68A8 8 0 0 0 106.37, 352.99L159, 405.67A8 8 0 0 0 170.32, 405.67L181.63, 394.36A8 8 0 0 0 181.63, 383.05zM193, 266.37A8 8 0 0 0 181.69, 266.37L170.38, 277.68A8 8 0 0 0 170.38, 288.99L223, 341.68A8 8 0 0 0 234.32, 341.68L245.63, 330.37A8 8 0 0 0 245.63, 319.06z" fill="#727272" fill-opacity="1" class="Black" />
  </g>
</svg>