<?xml version='1.0' encoding='UTF-8'?>
<svg viewBox="-2 0 32 32" xmlns="http://www.w3.org/2000/svg">
  <g transform="matrix(0.0625, 0, 0, 0.0625, 0, 0)">
    <defs>
      <style>.fa-secondary{opacity:.4}</style>
    </defs>
    <path d="M400, 32L48, 32A48 48 0 0 0 0, 80L0, 432A48 48 0 0 0 48, 480L400, 480A48 48 0 0 0 448, 432L448, 80A48 48 0 0 0 400, 32zM352, 368A16 16 0 0 1 336, 384L304, 384A16 16 0 0 1 288, 368L288, 288L160, 288L160, 368A16 16 0 0 1 144, 384L112, 384A16 16 0 0 1 96, 368L96, 144A16 16 0 0 1 112, 128L144, 128A16 16 0 0 1 160, 144L160, 224L288, 224L288, 144A16 16 0 0 1 304, 128L336, 128A16 16 0 0 1 352, 144z" fill="#727272" opacity="0.4" fill-opacity="1" class="Black" />
    <path d="M352, 368A16 16 0 0 1 336, 384L304, 384A16 16 0 0 1 288, 368L288, 288L160, 288L160, 368A16 16 0 0 1 144, 384L112, 384A16 16 0 0 1 96, 368L96, 144A16 16 0 0 1 112, 128L144, 128A16 16 0 0 1 160, 144L160, 224L288, 224L288, 144A16 16 0 0 1 304, 128L336, 128A16 16 0 0 1 352, 144z" fill="#727272" fill-opacity="1" class="Black" />
  </g>
</svg>