<?xml version='1.0' encoding='UTF-8'?>
<svg viewBox="-2 -3.554 32 32" xmlns="http://www.w3.org/2000/svg">
  <g transform="matrix(0.0486, 0, 0, 0.0486, 0, 0)">
    <defs>
      <style>.fa-secondary{opacity:.4}</style>
    </defs>
    <path d="M304, 96L205.06, 96A13.06 13.06 0 0 0 192, 109.06L192, 146.94A13.06 13.06 0 0 0 205.06, 160L224, 160L224, 224L96, 224L96, 160L114.94, 160A13.06 13.06 0 0 0 128, 146.94L128, 112A16 16 0 0 0 112, 96L16, 96A16 16 0 0 0 0, 112L0, 146.94A13.06 13.06 0 0 0 13.06, 160L32, 160L32, 352L13.06, 352A13.06 13.06 0 0 0 0, 365.06L0, 400A16 16 0 0 0 16, 416L114.94, 416A13.06 13.06 0 0 0 128, 402.94L128, 365.06A13.06 13.06 0 0 0 114.94, 352L96, 352L96, 288L224, 288L224, 352L205.06, 352A13.06 13.06 0 0 0 192, 365.06L192, 400A16 16 0 0 0 208, 416L304, 416A16 16 0 0 0 320, 400L320, 365.06A13.06 13.06 0 0 0 306.94, 352L288, 352L288, 160L306.94, 160A13.06 13.06 0 0 0 320, 146.94L320, 112A16 16 0 0 0 304, 96z" fill="#727272" opacity="0.4" fill-opacity="1" class="Black" />
    <path d="M560, 352L512, 352L512, 120A24 24 0 0 0 488, 96L448, 96A24 24 0 0 0 426.56, 109.26L402.56, 157.26A24 24 0 0 0 424, 192L448, 192L448, 352L400, 352A16 16 0 0 0 384, 368L384, 400A16 16 0 0 0 400, 416L560, 416A16 16 0 0 0 576, 400L576, 368A16 16 0 0 0 560, 352z" fill="#727272" fill-opacity="1" class="Black" />
  </g>
</svg>