<?xml version='1.0' encoding='UTF-8'?>
<svg viewBox="-1.9999 -1.9999 32 32" xmlns="http://www.w3.org/2000/svg">
  <g transform="matrix(0.0547, 0, 0, 0.0547, 0, 0)">
    <defs>
      <style>.fa-secondary{opacity:.4}</style>
    </defs>
    <path d="M288, 352A32 32 0 1 1 256, 320A32 32 0 0 1 288, 352z" fill="#727272" opacity="0.4" fill-opacity="1" class="Black" />
    <path d="M509.34, 307.25A32 32 0 0 0 480, 288L416, 288L416, 80A40 40 0 0 0 336, 80L336, 214A10 10 0 0 1 326, 224L306, 224A10 10 0 0 1 296, 214L296, 40A40 40 0 0 0 216, 40L216, 214A10 10 0 0 1 206, 224L186, 224A10 10 0 0 1 176, 214L176, 80A40 40 0 0 0 96, 80L96, 288L32, 288A32 32 0 0 0 8.6, 341.83L111.29, 451.83C147, 490.08 199.69, 512 256, 512C312.31, 512 365, 490.08 400.72, 451.86L503.4, 341.86A32 32 0 0 0 509.34, 307.25zM256, 416C203, 416 160, 352 160, 352C160, 352 203, 288 256, 288C309, 288 352, 352 352, 352C352, 352 309, 416 256, 416z" fill="#727272" fill-opacity="1" class="Black" />
  </g>
</svg>