<?xml version='1.0' encoding='UTF-8'?>
<svg viewBox="-2 -4.7955 32 32" xmlns="http://www.w3.org/2000/svg">
  <g transform="matrix(0.9988, 0, 0, 0.9988, 0, 0)">
    <g transform="matrix(0.0438, 0, 0, 0.0438, 0, 0)">
      <defs>
        <style>.fa-secondary{opacity:.4}</style>
      </defs>
      <path d="M0, 384L64, 384A32 32 0 0 0 96, 352L96, 128.2L0, 128.2zM48, 320.1A16 16 0 1 1 32, 336.1A16 16 0 0 1 48, 320.1zM457.3, 73.4A31.77 31.77 0 0 0 434.7, 64L348.8, 64A32 32 0 0 0 327.2, 72.4L228.9, 162.4C228.8, 162.5 228.7, 162.7 228.6, 162.8A39.78 39.78 0 0 0 226.5, 218.8C239.2, 232.7 265.9, 236.4 282.6, 221.5C282.7, 221.4 282.9, 221.4 283, 221.3L362.9, 148.1A16 16 0 0 1 384.5, 171.7L358.4, 195.6L504, 313.8A72 72 0 0 1 511.9, 321.5L511.9, 128z" fill="#727272" opacity="0.4" fill-opacity="1" class="Black" />
      <path d="M544, 128.2L544, 352.1A32 32 0 0 0 576, 384.1L640, 384.1L640, 128.2zM592, 352.1A16 16 0 1 1 608, 336.1A16 16 0 0 1 592, 352.1zM483.9, 338.7L334.6, 217.5L304.6, 245A72 72 0 0 1 207.3, 138.9L289.1, 64L205.3, 64A31.94 31.94 0 0 0 182.7, 73.4L128, 128L128, 351.9L146.3, 351.9L236.8, 433.8A64 64 0 0 0 326.8, 424.5L327, 424.3L344.9, 439.8A37.16 37.16 0 0 0 397.2, 434.4L428.6, 395.8L434, 400.2A32 32 0 0 0 479, 395.5L488.5, 383.8A32.06 32.06 0 0 0 483.9, 338.7z" fill="#727272" fill-opacity="1" class="Black" />
    </g>
  </g>
</svg>