<?xml version='1.0' encoding='UTF-8'?>
<svg viewBox="-2 -4.7955 32 32" xmlns="http://www.w3.org/2000/svg">
  <g transform="matrix(0.9988, 0, 0, 0.9988, 0, 0)">
    <g transform="matrix(0.0438, 0, 0, 0.0438, 0, 0)">
      <defs>
        <style>.fa-secondary{opacity:.4}</style>
      </defs>
      <path d="M640, 143.9L640, 335.7A16 16 0 0 1 624, 351.7L526.4, 351.7A63.36 63.36 0 0 0 504.2, 313.8L358.6, 195.6L384.7, 171.7A16 16 0 0 0 363.1, 148.1L336.1, 172.8L283.1, 221.3C283, 221.4 282.8, 221.4 282.7, 221.5C261.6, 240.4 236.2, 229.3 226.6, 218.8A39.69 39.69 0 0 1 228.7, 162.8C228.8, 162.7 228.9, 162.5 229, 162.4L327.3, 72.4A32 32 0 0 1 348.9, 64L434.8, 64A31.94 31.94 0 0 1 457.4, 73.4L512, 128L624, 128A16 16 0 0 1 640, 143.9z" fill="#727272" opacity="0.4" fill-opacity="1" class="Black" />
      <path d="M0, 335.9L0, 144A16 16 0 0 1 16, 128L128, 128L182.7, 73.4A31.94 31.94 0 0 1 205.3, 64L289.1, 64L207.3, 138.9A72 72 0 0 0 202.9, 240.6C217.8, 256.9 264, 282.1 304.6, 245L334.6, 217.5L483.9, 338.7A32.06 32.06 0 0 1 488.5, 383.8L479, 395.5A32 32 0 0 1 434, 400.2L428.6, 395.8L397.2, 434.4A37.16 37.16 0 0 1 344.9, 439.8L327, 424.3L326.8, 424.5A64 64 0 0 1 236.8, 433.8L146.3, 351.9L16, 351.9A16 16 0 0 1 0, 335.9z" fill="#727272" fill-opacity="1" class="Black" />
    </g>
  </g>
</svg>