<?xml version='1.0' encoding='UTF-8'?>
<svg viewBox="-3.752 -2 32 32" xmlns="http://www.w3.org/2000/svg">
  <g transform="matrix(0.0547, 0, 0, 0.0547, 0, 0)">
    <defs>
      <style>.fa-secondary{opacity:.4}</style>
    </defs>
    <path d="M448, 256L448, 336A40.36 40.36 0 0 1 446.94, 345.16L414.94, 481.16A40 40 0 0 1 376, 512L136, 512A40 40 0 0 1 101.27, 491.85L37.27, 379.85A40 40 0 0 1 47, 328.77L78.1, 303.89L3.34, 113.55A48 48 0 1 1 92.69, 78.45L162.43, 256L176, 256L176, 48A48 48 0 0 1 272, 48L272, 256L280, 256L280, 224A40 40 0 0 1 360, 224L360, 256L368, 256A40 40 0 0 1 448, 256z" fill="#727272" opacity="0.4" fill-opacity="1" class="Black" />
  </g>
</svg>