<?xml version='1.0' encoding='UTF-8'?>
<svg viewBox="-5.5003 -2 32 32" xmlns="http://www.w3.org/2000/svg">
  <g transform="matrix(0.0547, 0, 0, 0.0547, 0, 0)">
    <defs>
      <style>.fa-secondary{opacity:.4}</style>
    </defs>
    <path d="M0, 224C0, 189.78 35.1, 166.25 66.91, 179.88A135.83 135.83 0 0 1 91.83, 194L91.83, 44.8C91.83, 21.35 112.37, 0 135.65, 0C159.28, 0 179.48, 20.65 179.48, 44.8L179.48, 144.65C196.53, 128.31 229.24, 126.3 250.42, 150.95C273.25, 136.66 303.42, 148.8 312.74, 167.4C361.88, 158.4 384, 189.35 384, 240C384, 242.75 383.8, 253.28 383.8, 256C383.97, 318 352.74, 332.89 345.49, 379.73A24 24 0 0 1 321.79, 400L150.26, 400A48 48 0 0 1 106.42, 371.53C93.42, 342.65 57.42, 276.12 29.09, 264C10.9, 256.2 0, 242.62 0, 224z" fill="#727272" opacity="0.4" fill-opacity="1" class="Black" />
    <path d="M328, 416L136, 416A24 24 0 0 0 112, 440L112, 488A24 24 0 0 0 136, 512L328, 512A24 24 0 0 0 352, 488L352, 440A24 24 0 0 0 328, 416zM304, 484A20 20 0 1 1 324, 464A20 20 0 0 1 304, 484z" fill="#727272" fill-opacity="1" class="Black" />
  </g>
</svg>