<?xml version='1.0' encoding='UTF-8'?>
<svg viewBox="-1.9988 -2 32 32" xmlns="http://www.w3.org/2000/svg">
  <g transform="matrix(0.0547, 0, 0, 0.0547, 0, 0)">
    <defs>
      <style>.fa-secondary{opacity:.4}</style>
    </defs>
    <path d="M479.93, 317.16L480, 400A112 112 0 0 1 368.05, 512L153.05, 512A112 112 0 0 1 73.86, 479.19L42.93, 448.28A37.31 37.31 0 0 1 32, 421.89L32, 348.44A37.34 37.34 0 0 1 52.64, 315L80, 300L80, 376A8 8 0 0 0 96, 376L96, 229C96, 213.74 108.87, 200.62 126.87, 197.62L157.55, 192.5C175.37, 189.5 192, 200.89 192, 216.04L192, 248.04A8 8 0 0 0 208, 248.04L208, 46.54A48 48 0 0 1 257.44, 0L257.44, 0C283.75, 0.86 304, 23.78 304, 50L304, 248A8 8 0 0 0 320, 248L320, 216C320, 200.86 336.63, 189.51 354.45, 192.47L392.85, 198.87C406.31, 201.16 416, 211 416, 222.45L416, 272L451.65, 281A37.34 37.34 0 0 1 479.93, 317.16z" fill="#727272" fill-opacity="1" class="Black" />
  </g>
</svg>