<?xml version='1.0' encoding='UTF-8'?>
<svg viewBox="-1.9998 -3.5563 31.9975 32" xmlns="http://www.w3.org/2000/svg">
  <g transform="matrix(0.0486, 0, 0, 0.0486, 0, 0)">
    <defs>
      <style>.fa-secondary{opacity:.4}</style>
    </defs>
    <path d="M564, 377L412.78, 498A64 64 0 0 1 372.78, 512L16, 512A16 16 0 0 1 0, 496L0, 400A16 16 0 0 1 16, 384L71.4, 384L117.9, 346.29A117.65 117.65 0 0 1 192, 320L352, 320A32 32 0 0 1 384, 351.94A31.2 31.2 0 0 1 383.54, 357.4C381, 373.1 366.19, 384 350.29, 384L272, 384A16 16 0 0 0 272, 416L390.28, 416A63.64 63.64 0 0 0 430.28, 402L522.68, 328.1C535.08, 318.1 553.48, 317.4 565.28, 328.1A32 32 0 0 1 564, 377z" fill="#727272" opacity="0.4" fill-opacity="1" class="Black" />
    <path d="M329.28, 222.4L329.28, 240C329.28, 248.8 321.51, 256 312.02, 256L294.77, 256C285.29, 256 277.52, 248.8 277.52, 240L277.52, 222.3A82.78 82.78 0 0 1 243.24, 210.8A11.46 11.46 0 0 1 239.39, 195.06A11.64 11.64 0 0 1 241.62, 192.4L260.49, 174.9C264.49, 171.2 270.49, 170.7 275.69, 172.9A29.62 29.62 0 0 0 286.8, 175.1L322.16, 175.1C327.16, 175.1 331.22, 171.3 331.22, 166.7A8.58 8.58 0 0 0 324.64, 158.6L270.73, 144.3C246.8, 137.9 227.6, 119.6 224.48, 96.6C220.17, 64.6 244.96, 37.2 277.63, 33.6L277.63, 16C277.63, 7.2 285.39, 0 294.88, 0L312.13, 0C321.62, 0 329.38, 7.2 329.38, 16L329.38, 33.7A82.92 82.92 0 0 1 363.67, 45.2A11.48 11.48 0 0 1 365.29, 63.6L346.42, 81.1C342.42, 84.8 336.42, 85.3 331.22, 83.1A29.62 29.62 0 0 0 320.11, 80.9L284.75, 80.9C279.75, 80.9 275.69, 84.7 275.69, 89.3A8.58 8.58 0 0 0 282.27, 97.4L336.18, 111.7C360.11, 118.1 379.29, 136.4 382.42, 159.4C386.73, 191.4 361.99, 218.8 329.28, 222.4z" fill="#727272" fill-opacity="1" class="Black" />
  </g>
</svg>