<?xml version='1.0' encoding='UTF-8'?>
<svg viewBox="-1.9998 -3.5563 31.9975 32" xmlns="http://www.w3.org/2000/svg">
  <g transform="matrix(0.0486, 0, 0, 0.0486, 0, 0)">
    <defs>
      <style>.fa-secondary{opacity:.4}</style>
    </defs>
    <path d="M564, 377L412.75, 498A64 64 0 0 1 372.75, 512L16, 512A16 16 0 0 1 0, 496L0, 400A16 16 0 0 1 16, 384L71.44, 384L117.94, 346.27A117.51 117.51 0 0 1 192, 320L352, 320A32 32 0 0 1 383.56, 357.37C381, 373.11 366.22, 384 350.28, 384L272, 384A16 16 0 0 0 272, 416L390.33, 416A64 64 0 0 0 430.33, 402L522.67, 328.13C535.12, 318.13 553.47, 317.44 565.3, 328.13A32 32 0 0 1 564, 377z" fill="#727272" opacity="0.4" fill-opacity="1" class="Black" />
    <path d="M384, 128L384, 96A32 32 0 0 0 352, 64L224, 64A32 32 0 0 0 192, 96L192, 128C192, 142.5 206.28, 160 224, 160C288, 160 320, 128 320, 128A96.1 96.1 0 0 1 224, 224C172.86, 224 128, 179.14 128, 128L128, 96A96.1 96.1 0 0 1 224, 0L352, 0A96.1 96.1 0 0 1 448, 96L448, 129.56C447.4, 205.72 382.87, 266.63 305.82, 270.99L288, 272L341.91, 218.8C366.49, 194.54 384, 162.3 384, 128z" fill="#727272" fill-opacity="1" class="Black" />
  </g>
</svg>