<?xml version='1.0' encoding='UTF-8'?>
<svg viewBox="-1.9999 -4.8004 32 32" xmlns="http://www.w3.org/2000/svg">
  <g transform="matrix(1.0011, 0, 0, 1.0011, 0, 0)">
    <g transform="matrix(0.0437, 0, 0, 0.0437, 0, 0)">
      <defs>
        <style>.fa-secondary{opacity:.4}</style>
      </defs>
      <path d="M608, 64A32 32 0 0 0 576, 96L576, 244.4L486.2, 352.2A16.06 16.06 0 0 1 462.6, 353.3L449.8, 340.5A16 16 0 0 1 448.3, 319.6L486.4, 268.8A32 32 0 1 0 435.2, 230.4L377.6, 307.2A128.2 128.2 0 0 0 352, 384L352, 496A16 16 0 0 0 368, 512L499.7, 512A15.76 15.76 0 0 0 515, 500.4A59.69 59.69 0 0 1 525.4, 478.7L629.5, 344.4A48.05 48.05 0 0 0 640, 314.4L640, 96A32 32 0 0 0 608, 64zM204.8, 230.4A32 32 0 1 0 153.6, 268.8L191.7, 319.6A16 16 0 0 1 190.2, 340.5L177.4, 353.3A15.9 15.9 0 0 1 153.8, 352.2L64, 244.4L64, 96A32 32 0 0 0 0, 96L0, 314.4A48.05 48.05 0 0 0 10.5, 344.4L114.6, 478.7A59.69 59.69 0 0 1 125, 500.4A15.67 15.67 0 0 0 140.3, 512L272, 512A16 16 0 0 0 288, 496L288, 384A128.2 128.2 0 0 0 262.4, 307.2z" fill="#727272" opacity="0.4" fill-opacity="1" class="Black" />
      <path d="M246.7, 96.6C242.6, 64.6 265.7, 37.2 296, 33.6L296, 16A16 16 0 0 1 312, 0L328, 0A16 16 0 0 1 344, 16L344, 33.7A73.53 73.53 0 0 1 375.8, 45.2C382, 49.3 382.6, 58.3 377.3, 63.6L359.8, 81.1C356.1, 84.8 350.5, 85.3 345.7, 83.1A25.73 25.73 0 0 0 335.4, 80.9L302.6, 80.9A8.41 8.41 0 0 0 300.3, 97.4L350.4, 111.7C372.6, 118.1 390.4, 136.4 393.3, 159.4A56.14 56.14 0 0 1 344, 222.4L344, 240A16 16 0 0 1 328, 256L312, 256A16 16 0 0 1 296, 240L296, 222.3A73.53 73.53 0 0 1 264.2, 210.8C258, 206.7 257.4, 197.7 262.7, 192.4L280.2, 174.9C283.9, 171.2 289.5, 170.7 294.3, 172.9A25.73 25.73 0 0 0 304.6, 175.1L337.4, 175.1A8.41 8.41 0 0 0 339.7, 158.6L289.6, 144.3C267.4, 137.9 249.6, 119.6 246.7, 96.6z" fill="#727272" fill-opacity="1" class="Black" />
    </g>
  </g>
</svg>