<?xml version='1.0' encoding='UTF-8'?>
<svg viewBox="-2 -3.554 32 32" xmlns="http://www.w3.org/2000/svg">
  <g transform="matrix(0.0486, 0, 0, 0.0486, 0, 0)">
    <defs>
      <style>.fa-secondary{opacity:.4}</style>
    </defs>
    <path d="M561.17, 312.52A96 96 0 0 1 576, 363.78L576, 480L384, 480L384, 418.54A24 24 0 0 0 372.85, 398.27L261.1, 327.46A48 48 0 0 0 235.41, 320L88, 320A24 24 0 0 1 64, 296L64, 288A64 64 0 0 1 128, 224L251.65, 224A32 32 0 0 0 281.19, 204.31L302.6, 152.92A18 18 0 0 0 286, 128L56, 128A56 56 0 0 1 0, 72L0, 56A24 24 0 0 1 24, 32L357.54, 32A48 48 0 0 1 398.13, 54.37z" fill="#727272" opacity="0.4" fill-opacity="1" class="Black" />
  </g>
</svg>