<?xml version='1.0' encoding='UTF-8'?>
<svg viewBox="-3.7469 -1.9999 31.9975 32" xmlns="http://www.w3.org/2000/svg">
  <g transform="matrix(0.0547, 0, 0, 0.0547, 0, 0)">
    <defs>
      <style>.fa-secondary{opacity:.4}</style>
    </defs>
    <path d="M408, 200A40 40 0 0 0 368, 240L360, 240L360, 216A40 40 0 0 0 280, 216L280, 240L272, 240L272, 200A40 40 0 0 0 192, 200L192, 240L184, 240L184, 40A40 40 0 0 0 104, 40L104, 316L72.35, 272.47A40 40 0 0 0 7.65, 319.53L135.65, 495.53A40 40 0 0 0 168, 512L376, 512A40 40 0 0 0 414.94, 481.16L446.94, 345.16A40.36 40.36 0 0 0 448, 336L448, 240A40 40 0 0 0 408, 200zM224, 400A16 16 0 0 1 192, 400L192, 336A16 16 0 0 1 224, 336zM288, 400A16 16 0 0 1 256, 400L256, 336A16 16 0 0 1 288, 336zM352, 400A16 16 0 0 1 320, 400L320, 336A16 16 0 0 1 352, 336z" fill="#727272" opacity="0.4" fill-opacity="1" class="Black" />
    <path d="M272, 320A16 16 0 0 0 256, 336L256, 400A16 16 0 0 0 288, 400L288, 336A16 16 0 0 0 272, 320zM208, 320A16 16 0 0 0 192, 336L192, 400A16 16 0 0 0 224, 400L224, 336A16 16 0 0 0 208, 320zM336, 320A16 16 0 0 0 320, 336L320, 400A16 16 0 0 0 352, 400L352, 336A16 16 0 0 0 336, 320z" fill="#727272" fill-opacity="1" class="Black" />
  </g>
</svg>