<?xml version='1.0' encoding='UTF-8'?>
<svg viewBox="-1.9999 -1.9974 32 31.9975" xmlns="http://www.w3.org/2000/svg">
  <g transform="matrix(0.0547, 0, 0, 0.0547, 0, 0)">
    <defs>
      <style>.fa-secondary{opacity:.4}</style>
    </defs>
    <path d="M512, 199.65C512, 223.28 491.35, 243.48 467.2, 243.48L367.35, 243.48C383.69, 260.48 385.69, 293.24 361.05, 314.42C375.34, 337.25 363.2, 367.42 344.6, 376.74C353.6, 425.88 322.6, 448 272, 448C269.25, 448 258.72, 447.8 256, 447.81C194, 447.97 179.11, 416.74 132.27, 409.49A24 24 0 0 1 112, 385.79L112, 214.26A48 48 0 0 1 140.47, 170.42C169.35, 157.42 235.88, 121.42 248, 93.09C255.8, 74.9 269.38, 64 288, 64C322.22, 64 345.75, 99.1 332.12, 130.91A135.83 135.83 0 0 1 318, 155.83L467.2, 155.83C490.65, 155.83 512, 176.37 512, 199.65z" fill="#727272" opacity="0.4" fill-opacity="1" class="Black" />
    <path d="M72, 176L24, 176A24 24 0 0 0 0, 200L0, 392A24 24 0 0 0 24, 416L72, 416A24 24 0 0 0 96, 392L96, 200A24 24 0 0 0 72, 176zM48, 388A20 20 0 1 1 68, 368A20 20 0 0 1 48, 388z" fill="#727272" fill-opacity="1" class="Black" />
  </g>
</svg>