<?xml version='1.0' encoding='UTF-8'?>
<svg viewBox="-1.9998 -3.5563 31.9975 32" xmlns="http://www.w3.org/2000/svg">
  <g transform="matrix(0.0486, 0, 0, 0.0486, 0, 0)">
    <defs>
      <style>.fa-secondary{opacity:.4}</style>
    </defs>
    <path d="M564, 377L412.8, 498A64.08 64.08 0 0 1 372.8, 512L16, 512A16.05 16.05 0 0 1 0, 496L0, 400A16 16 0 0 1 16, 384L71.4, 384L117.9, 346.29A117.69 117.69 0 0 1 192, 320L352, 320A32 32 0 0 1 383.6, 357.4C381, 373.1 366.2, 384 350.3, 384L272, 384A16 16 0 0 0 272, 416L390.3, 416A63.67 63.67 0 0 0 430.3, 402L522.7, 328.1C535.1, 318.1 553.5, 317.4 565.3, 328.1A32 32 0 0 1 564, 377z" fill="#727272" opacity="0.4" fill-opacity="1" class="Black" />
    <path d="M300.8, 6.38C326.9, 41.27 384, 122 384, 162C384, 213.9 341, 256 288, 256C235, 256 192, 213.9 192, 162C192, 122 249.1, 41.29 275.2, 6.4A16 16 0 0 1 300.8, 6.38z" fill="#727272" fill-opacity="1" class="Black" />
  </g>
</svg>