<?xml version='1.0' encoding='UTF-8'?>
<svg viewBox="-1.9974 -4.7994 31.9975 32" xmlns="http://www.w3.org/2000/svg">
  <g transform="matrix(0.9989, 0, 0, 0.9989, 0, 0)">
    <g transform="matrix(0.0438, 0, 0, 0.0438, 0, 0)">
      <defs>
        <style>.fa-secondary{opacity:.4}</style>
      </defs>
      <path d="M224, 248L224, 121.68A31.78 31.78 0 0 1 239, 94.58L272.5, 73.68A64.48 64.48 0 0 1 306.4, 64L408.61, 64L512, 4.28A32 32 0 0 1 555.72, 16L635.72, 154.6A32 32 0 0 1 624.02, 198.3L544.02, 244.5L544.02, 216A56 56 0 0 0 488.02, 160L304, 160L304, 248A40 40 0 1 1 224, 248z" fill="#727272" opacity="0.4" fill-opacity="1" class="Black" />
      <path d="M4.32, 357.38A31.92 31.92 0 0 1 16, 313.68L96, 267.48L96, 220.18A63.86 63.86 0 0 1 127.1, 165.38L191.99, 126.38L191.99, 248A72 72 0 1 0 335.99, 248L335.99, 192L488, 192A23.94 23.94 0 0 1 512, 216L512, 264A23.94 23.94 0 0 1 488, 288L480, 288L480, 352A32 32 0 0 1 448, 384L432, 384A64.06 64.06 0 0 1 368, 448L231.41, 448L128, 507.68A32 32 0 0 1 84.32, 496z" fill="#727272" fill-opacity="1" class="Black" />
    </g>
  </g>
</svg>