<?xml version='1.0' encoding='UTF-8'?>
<svg viewBox="-1.9998 -3.5563 31.9975 32" xmlns="http://www.w3.org/2000/svg">
  <g transform="matrix(0.0486, 0, 0, 0.0486, 0, 0)">
    <defs>
      <style>.fa-secondary{opacity:.4}</style>
    </defs>
    <path d="M352, 128L352, 0L224, 0L224, 128L288, 96zM565.3, 328.1C553.5, 317.4 535.1, 318.1 522.7, 328.1L430.3, 402A63.67 63.67 0 0 1 390.3, 416L272, 416A16 16 0 0 1 272, 384L350.3, 384C366.2, 384 381, 373.1 383.6, 357.4A32 32 0 0 0 352, 320L192, 320A117.69 117.69 0 0 0 117.9, 346.3L71.4, 384L16, 384A16 16 0 0 0 0, 400L0, 496A16 16 0 0 0 16, 512L372.8, 512A64.08 64.08 0 0 0 412.8, 498L564, 377A32 32 0 0 0 565.3, 328.1z" fill="#727272" opacity="0.4" fill-opacity="1" class="Black" />
    <path d="M480, 16L480, 240A16 16 0 0 1 464, 256L112, 256A16 16 0 0 1 96, 240L96, 16A16 16 0 0 1 112, 0L224, 0L224, 128L288, 96L352, 128L352, 0L464, 0A16 16 0 0 1 480, 16z" fill="#727272" fill-opacity="1" class="Black" />
  </g>
</svg>