<?xml version='1.0' encoding='UTF-8'?>
<svg viewBox="-5.499 -1.9999 31.9975 32" xmlns="http://www.w3.org/2000/svg">
  <g transform="matrix(0.0547, 0, 0, 0.0547, 0, 0)">
    <defs>
      <style>.fa-secondary{opacity:.4}</style>
    </defs>
    <path d="M383.81, 256C383.81, 258.72 384, 269.25 384, 272C384, 322.65 361.88, 353.57 312.74, 344.6C303.44, 363.2 273.25, 375.34 250.42, 361.05C229.25, 385.69 196.53, 383.69 179.48, 367.35L179.48, 467.2C179.48, 491.35 159.28, 512 135.65, 512C112.37, 512 91.83, 490.65 91.83, 467.2L91.83, 318A135.83 135.83 0 0 1 66.91, 332.15C35.1, 345.75 0, 322.22 0, 288C0, 269.38 10.9, 255.8 29.09, 248C57.38, 235.88 93.42, 169.35 106.42, 140.47A48 48 0 0 1 150.26, 112L321.79, 112A24 24 0 0 1 345.49, 132.27C352.74, 179.11 384, 194 383.81, 256z" fill="#727272" opacity="0.4" fill-opacity="1" class="Black" />
    <path d="M328, 0L136, 0A24 24 0 0 0 112, 24L112, 72A24 24 0 0 0 136, 96L328, 96A24 24 0 0 0 352, 72L352, 24A24 24 0 0 0 328, 0zM304, 68A20 20 0 1 1 324, 48A20 20 0 0 1 304, 68z" fill="#727272" fill-opacity="1" class="Black" />
  </g>
</svg>