<?xml version='1.0' encoding='UTF-8'?>
<svg viewBox="-3.7479 -1.9998 31.9975 32" xmlns="http://www.w3.org/2000/svg">
  <g transform="matrix(0.0547, 0, 0, 0.0547, 0, 0)">
    <defs>
      <style>.fa-secondary{opacity:.4}</style>
    </defs>
    <path d="M416, 112A32.09 32.09 0 0 0 384, 144L384, 216A8 8 0 0 1 376, 224L360, 224A8 8 0 0 1 352, 216L352, 64A32 32 0 0 0 288, 64L288, 216A8 8 0 0 1 280, 224L264, 224A8 8 0 0 1 256, 216L256, 32A32 32 0 0 0 192, 32L192, 216A8 8 0 0 1 184, 224L168, 224A8 8 0 0 1 160, 216L160, 64A32 32 0 0 0 96, 64L96, 305L72.4, 272.5A40 40 0 1 0 7.7, 319.6L133.3, 492.3A48.08 48.08 0 0 0 172.1, 512.1L369.7, 512.1A47.93 47.93 0 0 0 416.4, 475.1L442.9, 362.4A201.31 201.31 0 0 0 448, 320.1L448, 144A32.09 32.09 0 0 0 416, 112zM353.1, 373.2L280.5, 444.6A12.2 12.2 0 0 1 263.5, 444.6L190.9, 373.2A49.59 49.59 0 0 1 194.6, 299C215.1, 282.3 245.7, 285.3 264.6, 303.8L272, 311.1L279.4, 303.8C298.2, 285.3 328.8, 282.3 349.4, 299A49.66 49.66 0 0 1 353.07, 373.2z" fill="#727272" opacity="0.4" fill-opacity="1" class="Black" />
    <path d="M194.57, 299C215.07, 282.3 245.67, 285.3 264.57, 303.8L271.97, 311.1L279.37, 303.8C298.17, 285.3 328.77, 282.3 349.37, 299A49.66 49.66 0 0 1 353.07, 373.2L280.47, 444.6A12.2 12.2 0 0 1 263.47, 444.6L190.87, 373.2A49.59 49.59 0 0 1 194.57, 299z" fill="#727272" fill-opacity="1" class="Black" />
  </g>
</svg>