<?xml version='1.0' encoding='UTF-8'?>
<svg viewBox="-2.0599 -2.0286 32 31.9975" xmlns="http://www.w3.org/2000/svg">
  <g transform="matrix(0.9993, 0, 0, 0.9993, 0, 0)">
    <g transform="matrix(0.0546, 0, 0, 0.0546, 0, 0)">
      <defs>
        <style>.fa-secondary{opacity:.4}</style>
      </defs>
      <path d="M511, 145.31L474.7, 297.81A97 97 0 0 0 472.1, 320.01L472.1, 362.01A97 97 0 0 1 468.1, 389.31L441.9, 477.61A47.91 47.91 0 0 1 395.9, 512.01L179.17, 512.01A47.91 47.91 0 0 1 146.27, 499.01L12.57, 373.11A40 40 0 1 1 67.37, 314.91L127.97, 371.91L127.97, 292.51L89, 120.91A40 40 0 0 1 167, 103.11L201.8, 255.91L211.6, 255.91L164, 48.91A40 40 0 1 1 242, 31.11L293.67, 256L308.77, 256L357.17, 62.3A40 40 0 1 1 434.77, 81.7L391.17, 256L402.27, 256L433.07, 126.7A40 40 0 0 1 510.97, 145.3z" fill="#727272" opacity="0.4" fill-opacity="1" class="Black" />
    </g>
  </g>
</svg>