<?xml version='1.0' encoding='UTF-8'?>
<svg viewBox="-2 -2.0025 32 32" xmlns="http://www.w3.org/2000/svg">
  <g transform="matrix(0.0547, 0, 0, 0.0547, 0, 0)">
    <defs>
      <style>.fa-secondary{opacity:.4}</style>
    </defs>
    <path d="M512, 168L512, 408A40 40 0 0 1 481.16, 446.94L345.16, 478.94A40.36 40.36 0 0 1 336, 480L256, 480A40 40 0 0 1 256, 400L256, 392L224, 392A40 40 0 0 1 224, 312L256, 312L256, 304L48, 304A48 48 0 0 1 48, 208L256, 208L256, 194.43L78.45, 124.69A48 48 0 1 1 113.55, 35.34L303.89, 110.1L328.77, 79A40 40 0 0 1 379.85, 69.26L491.85, 133.26A40 40 0 0 1 512, 168z" fill="#727272" opacity="0.4" fill-opacity="1" class="Black" />
  </g>
</svg>