<?xml version='1.0' encoding='UTF-8'?>
<svg viewBox="-1.9998 -3.5563 31.9975 32" xmlns="http://www.w3.org/2000/svg">
  <g transform="matrix(0.0486, 0, 0, 0.0486, 0, 0)">
    <defs>
      <style>.fa-secondary{opacity:.4}</style>
    </defs>
    <path d="M564, 377L412.8, 498A64.08 64.08 0 0 1 372.8, 512L16, 512A16 16 0 0 1 0, 496L0, 400A16 16 0 0 1 16, 384L71.4, 384L117.9, 346.3A117.69 117.69 0 0 1 192, 320L352, 320A32 32 0 0 1 383.6, 357.4C381, 373.1 366.2, 384 350.3, 384L272, 384A16 16 0 0 0 272, 416L390.3, 416A63.67 63.67 0 0 0 430.3, 402L522.7, 328.1C535.1, 318.1 553.5, 317.4 565.3, 328.1A32 32 0 0 1 564, 377z" fill="#727272" opacity="0.4" fill-opacity="1" class="Black" />
    <path d="M404.1, 17.52C439.5, 48.12 441.3, 103.12 409.7, 136.32L300.8, 250.52A17.42 17.42 0 0 1 275.3, 250.52L166.4, 136.32C134.8, 103.12 136.7, 48.12 172, 17.52C202.8, -9.18 248.7, -4.38 276.9, 25.32L288, 36.92L299.2, 25.22C327.4, -4.38 373.3, -9.18 404.1, 17.52z" fill="#727272" fill-opacity="1" class="Black" />
  </g>
</svg>