<?xml version='1.0' encoding='UTF-8'?>
<svg viewBox="-2 -3.5552 32 32" xmlns="http://www.w3.org/2000/svg">
  <g transform="matrix(0.0486, 0, 0, 0.0486, 0, 0)">
    <defs>
      <style>.fa-secondary{opacity:.4}</style>
    </defs>
    <path d="M571.21, 426.81L548.54, 404.15C542.54, 398.15 533.05, 398.15 526.54, 403.72A185.1 185.1 0 0 1 405.88, 448L170.1, 448A185.14 185.14 0 0 1 49.42, 403.72C42.92, 398.19 33.42, 398.11 27.42, 404.15L4.78, 426.81C-1.66, 433.25 -1.67, 444.06 5.18, 450.06A248.62 248.62 0 0 0 170.1, 512L405.88, 512A248.64 248.64 0 0 0 570.81, 450.06C577.65, 444.06 577.65, 433.25 571.21, 426.81zM320, 352L256, 352L256, 416L320, 416z" fill="#727272" opacity="0.4" fill-opacity="1" class="Black" />
    <path d="M542.35, 114.76L512, 192L498, 149.88A32 32 0 0 0 467.59, 128L428.4, 128A32 32 0 0 0 398, 149.87L391.65, 168.87A64.06 64.06 0 0 0 393.54, 214.32L473.14, 400.05A152.57 152.57 0 0 1 405.88, 416L352, 416L352, 352A32 32 0 0 0 320, 320L256, 320A32 32 0 0 0 224, 352L224, 416L170.1, 416A152.51 152.51 0 0 1 103, 400.19L207, 166.33A128.08 128.08 0 0 1 260.46, 107.18L426.81, 4.18A32 32 0 0 1 465.31, 9.34L534.62, 82A32 32 0 0 1 542.35, 114.76z" fill="#727272" fill-opacity="1" class="Black" />
  </g>
</svg>