<?xml version='1.0' encoding='UTF-8'?>
<svg viewBox="-2 -4.0987 32 32" xmlns="http://www.w3.org/2000/svg">
  <g transform="matrix(1.0012, 0, 0, 1.0012, 0, 0)">
    <g transform="matrix(0.0437, 0, 0, 0.0437, 0, 0)">
      <defs>
        <style>.fa-secondary{opacity:.4}</style>
      </defs>
      <path d="M509.94, 318.61C462.5, 336.65 399.18, 352 320, 352C241, 352 177.66, 336.56 130.1, 318.44C130.22, 317.57 130.34, 316.73 130.45, 315.91C133.04, 300.6 136.53, 280.79 141.07, 258.68C180.16, 274.28 237.79, 288 320, 288C402.21, 288 459.87, 274.29 499, 258.7C503.56, 280.88 507.05, 300.7 509.64, 316.05C509.7, 316.89 509.82, 317.74 509.94, 318.61z" fill="#727272" opacity="0.4" fill-opacity="1" class="Black" />
      <path d="M499, 258.7C481.92, 175.83 450.62, 64 401.33, 64C385.58, 64 371.52, 70.67 359.7, 79.7A65.47 65.47 0 0 1 280.3, 79.7C268.48, 70.7 254.43, 64 238.67, 64C189.39, 64 158.1, 175.82 141.06, 258.68C180.16, 274.28 237.79, 288 320, 288C402.21, 288 459.87, 274.29 499, 258.7zM633, 259.7A16 16 0 0 0 613.25, 261.2C612.25, 262.1 511.98, 351.98 320.09, 351.98C129.27, 351.98 27.87, 262.04 26.85, 261.14A16 16 0 0 0 1, 278.53C1.73, 280.55 78.32, 480 320, 480C561.68, 480 638.27, 280.55 639, 278.53A16 16 0 0 0 632.91, 259.72z" fill="#727272" fill-opacity="1" class="Black" />
    </g>
  </g>
</svg>