<?xml version='1.0' encoding='UTF-8'?>
<svg viewBox="-1.9975 -2 32 32" xmlns="http://www.w3.org/2000/svg">
  <g transform="matrix(0.0547, 0, 0, 0.0547, 0, 0)">
    <defs>
      <style>.fa-secondary{opacity:.4}</style>
    </defs>
    <path d="M239.69, 218L256, 166.72L272.29, 218L317.24, 189.38L297.24, 239.25L349.81, 246.63L302.9, 271.75L338.51, 311.68L286.62, 300.38L288.62, 354.17L256, 311.68L223.41, 354.17L225.41, 300.38L173.52, 311.68L209.12, 271.75L162.2, 246.58L214.77, 239.2L194.77, 189.33z" fill="#727272" opacity="0.4" fill-opacity="1" class="Black" />
    <path d="M496.25, 202.52L386.25, 187.08L428.07, 82.74C434.74, 66.1 416.47, 50.56 401.48, 60.11L307.48, 120L273.35, 12.82A18.15 18.15 0 0 0 238.65, 12.82L204.56, 120L110.56, 60.11C95.56, 50.56 77.31, 66.11 83.97, 82.74L125.79, 187.08L15.79, 202.51C-1.75, 204.97 -5.89, 228.78 9.79, 237.18L107.95, 289.84L33.4, 373.39C22.48, 385.64 31.68, 404.32 46.69, 404.32A18.79 18.79 0 0 0 50.76, 403.87L159.33, 380.22L155.22, 492.77A18.32 18.32 0 0 0 173.63, 512A17.65 17.65 0 0 0 187.83, 504.82L256, 415.91L324.18, 504.81A17.64 17.64 0 0 0 338.38, 511.99A18.32 18.32 0 0 0 356.79, 492.77L352.68, 380.22L461.25, 403.87C478.61, 407.63 490.46, 386.67 478.6, 373.38L404.12, 289.84L502.28, 237.18C517.93, 228.79 513.79, 205 496.25, 202.52zM338.51, 311.68L286.62, 300.38L288.62, 354.17L256, 311.68L223.41, 354.17L225.41, 300.38L173.52, 311.68L209.12, 271.75L162.2, 246.58L214.77, 239.2L194.77, 189.33L239.69, 218L256, 166.72L272.29, 218L317.24, 189.38L297.24, 239.25L349.81, 246.63L302.9, 271.75z" fill="#727272" fill-opacity="1" class="Black" />
  </g>
</svg>