<?xml version='1.0' encoding='UTF-8'?>
<svg viewBox="-2.0025 -2 32 32" xmlns="http://www.w3.org/2000/svg">
  <g transform="matrix(0.0547, 0, 0, 0.0547, 0, 0)">
    <defs>
      <style>.fa-secondary{opacity:.4}</style>
    </defs>
    <path d="M480, 320L448, 320L448, 384A64 64 0 0 1 384, 448L320, 448L320, 512L64, 512L64, 334.81A191.27 191.27 0 0 1 0, 192C0, 86 86, 0 192, 0A191.52 191.52 0 0 0 160, 2.88L160, 107.2C122.27, 125.2 96, 163.4 96, 208A112 112 0 0 0 320, 208C320, 163.39 293.73, 125.2 256, 107.19L256, 0L266.08, 0A207.87 207.87 0 0 1 436.08, 88.25C460.74, 123.25 488.24, 227.88 509.18, 275A32 32 0 0 1 480, 320z" fill="#727272" opacity="0.4" fill-opacity="1" class="Black" />
    <path d="M256, 107.19L256, 0L192, 0A191.52 191.52 0 0 0 160, 2.88L160, 107.2C122.27, 125.2 96, 163.4 96, 208A112 112 0 0 0 320, 208C320, 163.39 293.75, 125.2 256, 107.19zM208, 272A64 64 0 1 1 272, 208A64 64 0 0 1 208, 272zM208, 176A32 32 0 1 0 240, 208A32 32 0 0 0 208, 176z" fill="#727272" fill-opacity="1" class="Black" />
  </g>
</svg>