<?xml version='1.0' encoding='UTF-8'?>
<svg viewBox="-2.0025 -2 32 32" xmlns="http://www.w3.org/2000/svg">
  <g transform="matrix(0.0547, 0, 0, 0.0547, 0, 0)">
    <defs>
      <style>.fa-secondary{opacity:.4}</style>
    </defs>
    <path d="M509.21, 275C488.27, 227.88 460.77, 123.27 436.13, 88.25A208 208 0 0 0 266.09, 0L192, 0C86, 0 0, 86 0, 192A191.28 191.28 0 0 0 64, 334.82L64, 512L320, 512L320, 448L384, 448A64 64 0 0 0 448, 384L448, 320L480, 320A32 32 0 0 0 509.21, 275zM320, 224A32 32 0 1 1 352, 192A32 32 0 0 1 320, 224z" fill="#727272" opacity="0.4" fill-opacity="1" class="Black" />
    <path d="M320, 224A32 32 0 1 1 352, 192A32 32 0 0 1 320, 224z" fill="#727272" fill-opacity="1" class="Black" />
  </g>
</svg>