<?xml version='1.0' encoding='UTF-8'?>
<svg viewBox="-2 -2 32 32" xmlns="http://www.w3.org/2000/svg">
  <g transform="matrix(0.0547, 0, 0, 0.0547, 0, 0)">
    <defs>
      <style>.fa-secondary{opacity:.4}</style>
    </defs>
    <path d="M192, 464A48 48 0 0 1 240, 416L272, 416A48 48 0 0 1 320, 464L421.72, 464A42.28 42.28 0 0 0 464, 421.72C464, 421.72 464, 258.43 463.88, 256L464, 256C464, 141.31 370.69, 48 256, 48C141.31, 48 48, 141.31 48, 256L48, 272A16 16 0 0 1 32, 288L16, 288A16 16 0 0 1 0, 272L0, 256C4.58, 118.83 113.18, 0 256, 0C398.82, 0 507.42, 118.83 512, 256L512, 421.72A90.28 90.28 0 0 1 421.72, 512L240, 512A48 48 0 0 1 192, 464z" fill="#727272" opacity="0.4" fill-opacity="1" class="Black" />
    <path d="M368, 176L352, 176A32 32 0 0 0 320, 208L320, 320A32 32 0 0 0 352, 352L368, 352A64 64 0 0 0 432, 288L432, 240A64 64 0 0 0 368, 176zM160, 176L144, 176A64 64 0 0 0 80, 240L80, 288A64 64 0 0 0 144, 352L160, 352A32 32 0 0 0 192, 320L192, 208A32 32 0 0 0 160, 176z" fill="#727272" fill-opacity="1" class="Black" />
  </g>
</svg>