<?xml version='1.0' encoding='UTF-8'?>
<svg viewBox="-2 -1.9988 32 32" xmlns="http://www.w3.org/2000/svg">
  <g transform="matrix(0.0547, 0, 0, 0.0547, 0, 0)">
    <defs>
      <style>.fa-secondary{opacity:.4}</style>
    </defs>
    <path d="M496, 416L480, 416A16 16 0 0 1 464, 400L464, 288C464, 173.33 370.67, 80.2 256, 80.18C141.33, 80.16 48, 173.33 48, 288L48, 400A16 16 0 0 1 32, 416L16, 416A16 16 0 0 1 0, 400L0, 288C4.57, 151.13 112.91, 32 256, 32C399.09, 32 507.43, 151.13 512, 288L512, 400A16 16 0 0 1 496, 416z" fill="#727272" opacity="0.4" fill-opacity="1" class="Black" />
    <path d="M160, 288L144, 288A64.05 64.05 0 0 0 80, 352.12L80, 415.88A64.06 64.06 0 0 0 144, 480L160, 480A32 32 0 0 0 192, 447.94L192, 320.06A32 32 0 0 0 160, 288zM368, 288L352, 288A32 32 0 0 0 320, 320.06L320, 447.94A32 32 0 0 0 352, 480L368, 480A64.06 64.06 0 0 0 432, 415.88L432, 352.12A64.06 64.06 0 0 0 368, 288z" fill="#727272" fill-opacity="1" class="Black" />
  </g>
</svg>