<?xml version='1.0' encoding='UTF-8'?>
<svg viewBox="-2 -2 32 32" xmlns="http://www.w3.org/2000/svg">
  <g transform="matrix(0.0547, 0, 0, 0.0547, 0, 0)">
    <defs>
      <style>.fa-secondary{opacity:.4}</style>
    </defs>
    <path d="M509.2, 275C506.73, 269.44 504.15, 263 501.51, 256L308.56, 256A119.09 119.09 0 0 1 227.64, 224L35, 224A191.65 191.65 0 0 0 96, 334.82L96, 512L320, 512L320, 448L384, 448A64 64 0 0 0 448, 384L448, 320L480, 320A32 32 0 0 0 509.2, 275zM220.94, 68.87A112.21 112.21 0 0 1 304, 32L376.3, 32A207.36 207.36 0 0 0 266.09, 0L224, 0C140.44, 0 69.54, 53.48 43.16, 128L193.16, 128A112.22 112.22 0 0 1 220.94, 68.87z" fill="#727272" opacity="0.4" fill-opacity="1" class="Black" />
    <path d="M496, 64L448, 64L448, 224L496, 224A16 16 0 0 0 512, 208L512, 80A16 16 0 0 0 496, 64zM225.6, 128L16, 128A16 16 0 0 0 0, 144L0, 176A16 16 0 0 0 16, 192L240.84, 192C256.65, 211.71 281.84, 224 308.56, 224L416, 224L416, 64L304, 64A80 80 0 0 0 225.6, 128z" fill="#727272" fill-opacity="1" class="Black" />
  </g>
</svg>