<?xml version='1.0' encoding='UTF-8'?>
<svg viewBox="-1.9975 -1.9975 32 32" xmlns="http://www.w3.org/2000/svg">
  <g transform="matrix(0.0547, 0, 0, 0.0547, 0, 0)">
    <defs>
      <style>.fa-secondary{opacity:.4}</style>
    </defs>
    <path d="M462.32, 62.63C407.5, 15.94 326, 24.33 275.69, 76.23L256, 96.53L236.31, 76.23C186.1, 24.33 104.51, 15.94 49.7, 62.63C-13.08, 116.23 -16.39, 212.44 39.82, 270.53L233.32, 470.32A31.31 31.31 0 0 0 278.6, 470.32L472.1, 270.53C528.41, 212.44 525.1, 116.23 462.32, 62.63zM409.52, 247.63L266.42, 391.48A15.29 15.29 0 0 1 244.72, 391.48L104.72, 250.7C76.35, 222.18 70.94, 175.7 96.35, 144.47A76.44 76.44 0 0 1 210.12, 138.59L255.61, 184.29L297.98, 141.71C326.36, 113.19 372.63, 107.71 403.69, 133.26A77.35 77.35 0 0 1 409.52, 247.62z" fill="#727272" opacity="0.4" fill-opacity="1" class="Black" />
    <path d="M244.72, 391.48L104.72, 250.7C76.35, 222.18 70.94, 175.7 96.36, 144.47A76.43 76.43 0 0 1 210.12, 138.59L255.61, 184.29L297.98, 141.71C326.36, 113.2 372.63, 107.71 403.69, 133.26A77.35 77.35 0 0 1 409.56, 247.62L266.41, 391.48A15.28 15.28 0 0 1 244.72, 391.48z" fill="#727272" fill-opacity="1" class="Black" />
  </g>
</svg>