<?xml version='1.0' encoding='UTF-8'?>
<svg viewBox="-1.995 -1.9938 32 32" xmlns="http://www.w3.org/2000/svg">
  <g transform="matrix(0.0547, 0, 0, 0.0547, 0, 0)">
    <defs>
      <style>.fa-secondary{opacity:.4}</style>
    </defs>
    <path d="M473.68, 73.78C522.39, 123.57 524.48, 202.86 480.98, 255.86L268.8, 474.53A17.82 17.82 0 0 1 243.61, 475.03L243.1, 474.53L31, 256C-12.49, 202.9 -10.39, 123.61 38.3, 73.82L40.7, 71.42C87, 24 159.7, 19.6 211.41, 57.39L240, 143.87L144, 207.87L288, 351.87L240, 223.87L336, 159.87L301.69, 56.48C353.29, 19.59 425.28, 24.29 471.28, 71.28z" fill="#727272" opacity="0.4" fill-opacity="1" class="Black" />
    <path d="M288, 352L144, 208L240, 143.9L211.41, 57.38Q228.09, 71.53 243.41, 87.19L256, 100L267.67, 88Q283.9, 71.36 301.67, 56.4L336, 159.87L240, 223.87z" fill="#727272" fill-opacity="1" class="Black" />
  </g>
</svg>