<?xml version='1.0' encoding='UTF-8'?>
<svg viewBox="-1.9999 -1.549 31.9975 32" xmlns="http://www.w3.org/2000/svg">
  <g transform="matrix(0.999, 0, 0, 0.999, 0, 0)">
    <g transform="matrix(0.0565, 0, 0, 0.0565, 0, 0)">
      <defs>
        <style>.fa-secondary{opacity:.4}</style>
      </defs>
      <path d="M248, 8C111, 8 0, 119 0, 256C0, 393 111, 504 248, 504C385, 504 496, 393 496, 256C496, 119 385, 8 248, 8zM371.5, 280.3L260.9, 394.5A17.88 17.88 0 0 1 235.62, 395.12L235.62, 395.12C235.41, 394.92 235.2, 394.71 235, 394.5L124.5, 280.3C92.4, 247.1 94.3, 192.1 130.2, 161.5C161.5, 134.8 208.1, 139.6 236.8, 169.2L248.1, 180.8L259.4, 169.2C288.1, 139.6 334.7, 134.8 366, 161.5C401.8, 192.1 403.7, 247.1 371.5, 280.3z" fill="#727272" opacity="0.4" fill-opacity="1" class="Black" />
      <path d="M371.5, 280.3L260.9, 394.5A17.88 17.88 0 0 1 235.62, 395.12L235.62, 395.12C235.41, 394.92 235.2, 394.71 235, 394.5L124.5, 280.3C92.4, 247.1 94.3, 192.1 130.2, 161.5C161.5, 134.8 208.1, 139.6 236.8, 169.2L248.1, 180.8L259.4, 169.2C288.1, 139.6 334.7, 134.8 366, 161.5C401.8, 192.1 403.7, 247.1 371.5, 280.3z" fill="#727272" fill-opacity="1" class="Black" />
    </g>
  </g>
</svg>