<?xml version='1.0' encoding='UTF-8'?>
<svg viewBox="-1.1755 -2.8221 32 32" xmlns="http://www.w3.org/2000/svg">
  <g transform="matrix(0.0515, 0, 0, 0.0515, 0, 0)">
    <defs>
      <style>.fa-secondary{opacity:.4}</style>
    </defs>
    <path d="M553.48, 231.8L441.48, 39.8A48.08 48.08 0 0 0 400, 16L176, 16A48.08 48.08 0 0 0 134.5, 39.8L22.5, 231.8A48.19 48.19 0 0 0 22.5, 280.2L134.5, 472.2A48.08 48.08 0 0 0 176, 496L400, 496A48.08 48.08 0 0 0 441.5, 472.2L553.5, 280.2A48.19 48.19 0 0 0 553.48, 231.8zM466.29, 270.66L389.91, 401.57A29.1 29.1 0 0 1 364.78, 416L211.22, 416A29.1 29.1 0 0 1 186.09, 401.57L109.71, 270.66A29.12 29.12 0 0 1 109.71, 241.34L186.09, 110.43A29.08 29.08 0 0 1 211.22, 96L364.78, 96A29.08 29.08 0 0 1 389.91, 110.43L466.29, 241.34A29.12 29.12 0 0 1 466.29, 270.66z" fill="#727272" opacity="0.4" fill-opacity="1" class="Black" />
    <path d="M466.29, 270.66L389.91, 401.57A29.1 29.1 0 0 1 364.78, 416L211.22, 416A29.1 29.1 0 0 1 186.09, 401.57L109.71, 270.66A29.12 29.12 0 0 1 109.71, 241.34L186.09, 110.43A29.08 29.08 0 0 1 211.22, 96L364.78, 96A29.08 29.08 0 0 1 389.91, 110.43L466.29, 241.34A29.12 29.12 0 0 1 466.29, 270.66z" fill="#727272" fill-opacity="1" class="Black" />
  </g>
</svg>