<?xml version='1.0' encoding='UTF-8'?>
<svg viewBox="-1.9999 -2.823 31.9975 32" xmlns="http://www.w3.org/2000/svg">
  <g transform="matrix(0.9993, 0, 0, 0.9993, 0, 0)">
    <g transform="matrix(0.0515, 0, 0, 0.0515, 0, 0)">
      <defs>
        <style>.fa-secondary{opacity:.4}</style>
      </defs>
      <path d="M0, 480L99.92, 512L135.37, 476.55L68.37, 409.55zM527.92, 79.27L464.72, 16.07A54.89 54.89 0 0 0 389.6, 13.72L190.6, 183.72L360.32, 353.46L530.32, 154.4A54.88 54.88 0 0 0 527.92, 79.27z" fill="#727272" opacity="0.4" fill-opacity="1" class="Black" />
      <path d="M75.94, 371.84L126.87, 320.9L113.82, 278.07A36.6 36.6 0 0 1 124.61, 240L166.13, 204.56L339.47, 377.87L303.92, 419.51A36.59 36.59 0 0 1 265.77, 430.29L223, 417.21L172.14, 468.07z" fill="#727272" fill-opacity="1" class="Black" />
    </g>
  </g>
</svg>