<?xml version='1.0' encoding='UTF-8'?>
<svg viewBox="-2 -4.7992 32 32" xmlns="http://www.w3.org/2000/svg">
  <g transform="matrix(0.9988, 0, 0, 0.9988, 0, 0)">
    <g transform="matrix(0.0438, 0, 0, 0.0438, 0, 0)">
      <defs>
        <style>.fa-secondary{opacity:.4}</style>
      </defs>
      <path d="M581.12, 96.2C553.45, 96.05 528.62, 113.78 504.52, 122.82A96 96 0 0 0 416, 64A95 95 0 0 0 384, 69.88L384, 56A24 24 0 0 0 360, 32L344, 32A24 24 0 0 0 320, 56L320, 105C286, 79.6 241.24, 64 192, 64C86, 64 0, 135.64 0, 224L0, 464A16 16 0 0 0 16, 480L80, 480A16 16 0 0 0 96, 464L96, 393.21C128.35, 407.57 166.72, 416 208, 416C249.28, 416 287.65, 407.57 320, 393.21L320, 464A16 16 0 0 0 336, 480L400, 480A16 16 0 0 0 416, 464L416, 288L608, 288A32 32 0 0 0 640, 256L640, 164C640, 129.89 615.21, 96.39 581.12, 96.2zM448, 176A16 16 0 1 1 464, 160A16 16 0 0 1 448, 176z" fill="#727272" opacity="0.4" fill-opacity="1" class="Black" />
      <path d="M544, 288L544, 304A16 16 0 0 0 560, 320L592, 320A16 16 0 0 0 608, 304L608, 288zM448, 144A16 16 0 1 0 464, 160A16 16 0 0 0 448, 144z" fill="#727272" fill-opacity="1" class="Black" />
    </g>
  </g>
</svg>