<?xml version='1.0' encoding='UTF-8'?>
<svg viewBox="-1.5477 -1.5477 32 32" xmlns="http://www.w3.org/2000/svg">
  <g transform="matrix(0.9991, 0, 0, 0.9991, 0, 0)">
    <g transform="matrix(0.0565, 0, 0, 0.0565, 0, 0)">
      <defs>
        <style>.fa-secondary{opacity:.4}</style>
      </defs>
      <path d="M141.68, 400.23A184 184 0 1 0 129.93, 121.93L180.69, 172.69C190.77, 182.77 183.63, 200 169.37, 200L24, 200A16 16 0 0 1 8, 184L8, 38.63C8, 24.37 25.23, 17.23 35.31, 27.31L84.69, 76.69A247.14 247.14 0 0 1 256, 8C392.81, 8 503.75, 118.78 504, 255.53C504.25, 392.28 392.82, 503.9 256.18, 504A247 247 0 0 1 100.36, 449.09A24 24 0 0 1 98.52, 413.48L109.79, 402.21A24 24 0 0 1 141.68, 400.23z" fill="#727272" opacity="0.4" fill-opacity="1" class="Black" />
      <path d="M288, 152L288, 256.35L328.7, 288A24 24 0 0 1 332.91, 321.68L323.09, 334.3A24 24 0 0 1 289.41, 338.51L224, 287.65L224, 152A24 24 0 0 1 248, 128L264, 128A24 24 0 0 1 288, 152z" fill="#727272" fill-opacity="1" class="Black" />
    </g>
  </g>
</svg>