<?xml version='1.0' encoding='UTF-8'?>
<svg viewBox="-3.7495 -2 32 32" xmlns="http://www.w3.org/2000/svg">
  <g transform="matrix(0.0547, 0, 0, 0.0547, 0, 0)">
    <defs>
      <style>.fa-secondary{opacity:.4}</style>
    </defs>
    <path d="M376.61, 54.46C293.66, -18.15 154.35, -18.15 71.39, 54.46C7.39, 110.46 -31.01, 224.46 32.63, 416C64.53, 512 224, 512 224, 512C224, 512 383.47, 512 415.37, 416C479, 224.44 440.64, 110.5 376.61, 54.46zM288, 64A16 16 0 1 1 272, 80A16 16 0 0 1 288, 64zM160, 64A16 16 0 1 1 144, 80A16 16 0 0 1 160, 64zM176, 464A16 16 0 1 1 192, 448A16 16 0 0 1 176, 464zM176, 400A16 16 0 1 1 192, 384A16 16 0 0 1 176, 400zM176, 336A16 16 0 1 1 192, 320A16 16 0 0 1 176, 336zM128, 272A64 64 0 0 1 64, 208A32 32 0 0 1 96, 176L160, 176A32 32 0 0 1 192, 208A64 64 0 0 1 128, 272zM224, 144A16 16 0 1 1 240, 128A16 16 0 0 1 224, 144zM272, 464A16 16 0 1 1 288, 448A16 16 0 0 1 272, 464zM272, 400A16 16 0 1 1 288, 384A16 16 0 0 1 272, 400zM272, 336A16 16 0 1 1 288, 320A16 16 0 0 1 272, 336zM320, 272A64 64 0 0 1 256, 208A32 32 0 0 1 288, 176L352, 176A32 32 0 0 1 384, 208A64 64 0 0 1 320, 272z" fill="#727272" opacity="0.4" fill-opacity="1" class="Black" />
    <path d="M176, 432A16 16 0 1 0 192, 448A16 16 0 0 0 176, 432zM176, 368A16 16 0 1 0 192, 384A16 16 0 0 0 176, 368zM176, 304A16 16 0 1 0 192, 320A16 16 0 0 0 176, 304zM288, 64A16 16 0 1 0 304, 80A16 16 0 0 0 288, 64zM272, 304A16 16 0 1 0 288, 320A16 16 0 0 0 272, 304zM272, 368A16 16 0 1 0 288, 384A16 16 0 0 0 272, 368zM272, 432A16 16 0 1 0 288, 448A16 16 0 0 0 272, 432zM224, 112A16 16 0 1 0 240, 128A16 16 0 0 0 224, 112zM176, 80A16 16 0 1 0 160, 96A16 16 0 0 0 176, 80z" fill="#727272" fill-opacity="1" class="Black" />
  </g>
</svg>