<?xml version='1.0' encoding='UTF-8'?>
<svg viewBox="-3.755 -2 32 32" xmlns="http://www.w3.org/2000/svg">
  <g transform="matrix(0.9993, 0, 0, 0.9993, 0, 0)">
    <g transform="matrix(0.0547, 0, 0, 0.0547, 0, 0)">
      <defs>
        <style>.fa-secondary{opacity:.4}</style>
      </defs>
      <path d="M207.86, 235.1A15.66 15.66 0 0 0 184.06, 221.4C149.76, 241.7 112.66, 254.1 75.36, 257.6A14.38 14.38 0 0 0 63.76, 277.8A247.71 247.71 0 0 1 78.46, 321.6A29.59 29.59 0 0 1 58.26, 356.7A237.74 237.74 0 0 1 13, 365.8A14.45 14.45 0 0 0 1.26, 386C16.26, 418.8 24.16, 455.5 24.26, 493.7A18.34 18.34 0 0 0 51.86, 509.7C85.06, 490.7 120.76, 479.2 156.66, 475.8A14.38 14.38 0 0 0 168.26, 455.6A247.71 247.71 0 0 1 153.56, 411.8A29.59 29.59 0 0 1 173.76, 376.7A237.74 237.74 0 0 1 219.06, 367.6A14.45 14.45 0 0 0 230.76, 347.4C215.26, 313.2 207.46, 274.9 207.86, 235.1zM435.06, 365.6A256.08 256.08 0 0 1 389.76, 356.5A29.59 29.59 0 0 1 369.56, 321.4A250.47 250.47 0 0 1 384.26, 277.6A14.38 14.38 0 0 0 372.66, 257.4C335.36, 253.9 298.26, 241.5 263.96, 221.2A15.72 15.72 0 0 0 240.16, 234.9C240.16, 236.5 239.96, 238.1 239.96, 239.8C240.16, 273.1 246.96, 305.5 259.86, 333.8A46 46 0 0 1 259.26, 372.7C264.16, 373.9 269.16, 374.9 274.06, 376.4A29.59 29.59 0 0 1 294.26, 411.5A250.47 250.47 0 0 1 279.56, 455.3A14.38 14.38 0 0 0 291.16, 475.5C327.06, 478.9 362.76, 490.4 395.96, 509.4A18.3 18.3 0 0 0 423.56, 493.4C423.76, 455.2 431.56, 418.4 446.56, 385.7C450.86, 377 444.76, 366.6 435.06, 365.6z" fill="#727272" opacity="0.4" fill-opacity="1" class="Black" />
      <path d="M144.06, 96A48 48 0 1 0 192.06, 144A48 48 0 0 0 144.06, 96zM304.06, 96A48 48 0 1 0 352.06, 144A48 48 0 0 0 304.06, 96zM272.06, 48A48 48 0 1 0 224.06, 96A48 48 0 0 0 272.06, 48z" fill="#727272" fill-opacity="1" class="Black" />
    </g>
  </g>
</svg>