<?xml version='1.0' encoding='UTF-8'?>
<svg viewBox="-1.9975 -3.5518 32 32" xmlns="http://www.w3.org/2000/svg">
  <g transform="matrix(0.0486, 0, 0, 0.0486, 0, 0)">
    <defs>
      <style>.fa-secondary{opacity:.4}</style>
    </defs>
    <path d="M496, 512L368, 512A16 16 0 0 1 352, 496L352, 368A16 16 0 0 0 336, 352L240, 352A16 16 0 0 0 224, 368L224, 496A16 16 0 0 1 208, 512L80, 512A16 16 0 0 1 64, 496L64, 311C65.78, 309.79 67.85, 309.11 69.47, 307.65L288, 115L506.74, 307.9C508.28, 309.28 510.3, 309.9 512, 311.1L512, 496A16 16 0 0 1 496, 512z" fill="#727272" opacity="0.4" fill-opacity="1" class="Black" />
    <path d="M527.92, 283.88L298.6, 81.61A16 16 0 0 0 277.43, 81.61L48.11, 283.89A16 16 0 0 1 25.52, 282.68L4.1, 258.89A16 16 0 0 1 5.31, 236.3L261.31, 10.3A39.85 39.85 0 0 1 314.76, 10.3L416, 99.67L416, 48A16 16 0 0 1 432, 32L496, 32A16 16 0 0 1 512, 48L512, 184.43L570.69, 236.26A16 16 0 0 1 571.91, 258.85L550.51, 282.67A16 16 0 0 1 527.92, 283.88z" fill="#727272" fill-opacity="1" class="Black" />
  </g>
</svg>