<?xml version='1.0' encoding='UTF-8'?>
<svg viewBox="-1.9975 -3.5551 32 32" xmlns="http://www.w3.org/2000/svg">
  <g transform="matrix(0.0486, 0, 0, 0.0486, 0, 0)">
    <defs>
      <style>.fa-secondary{opacity:.4}</style>
    </defs>
    <path d="M64.11, 311.38L64.11, 496A16.05 16.05 0 0 0 80.11, 512L496.11, 512A16.05 16.05 0 0 0 512.11, 496L512.11, 311.38C505.41, 305.88 467.41, 273.07 288.11, 114.98C108, 273.88 70.51, 306.07 64.11, 311.38zM378.21, 285.07A60.6 60.6 0 0 1 382.71, 374.18L298, 459.77A13.94 13.94 0 0 1 278.2, 459.77L193.5, 374.18A60.66 60.66 0 0 1 197.8, 285.07C221.8, 265.07 257.5, 268.68 279.4, 290.88L288, 299.57L296.6, 290.88C318.61, 268.68 354.31, 265.07 378.21, 285.07z" fill="#727272" opacity="0.4" fill-opacity="1" class="Black" />
    <path d="M378.21, 285.07C354.31, 265.07 318.61, 268.68 296.61, 290.88L288.01, 299.57L279.41, 290.88C257.51, 268.68 221.81, 265.07 197.81, 285.07A60.66 60.66 0 0 0 193.51, 374.18L278.21, 459.77A13.94 13.94 0 0 0 298.01, 459.77L382.71, 374.18A60.6 60.6 0 0 0 378.21, 285.07zM570.81, 236.27L512.11, 184.48L512.11, 48A16 16 0 0 0 496.11, 32L432.11, 32A16 16 0 0 0 416.11, 48L416.11, 99.7L314.81, 10.27A40 40 0 0 0 261.31, 10.27L5.31, 236.27A16 16 0 0 0 4.11, 258.88L25.51, 282.68A16 16 0 0 0 48.11, 283.88L277.51, 81.68A16.12 16.12 0 0 1 298.71, 81.68L528, 284A16 16 0 0 0 550.6, 282.79L572, 259A16.11 16.11 0 0 0 570.81, 236.27z" fill="#727272" fill-opacity="1" class="Black" />
  </g>
</svg>