<?xml version='1.0' encoding='UTF-8'?>
<svg viewBox="-1.9975 -3.553 32 32" xmlns="http://www.w3.org/2000/svg">
  <g transform="matrix(0.0486, 0, 0, 0.0486, 0, 0)">
    <defs>
      <style>.fa-secondary{opacity:.4}</style>
    </defs>
    <path d="M352, 496L352, 368A16 16 0 0 0 336, 352L240, 352A16 16 0 0 0 224, 368L224, 496A16 16 0 0 1 208, 512L80, 512A16 16 0 0 1 64, 496L64, 311.07C65.78, 309.86 67.85, 309.18 69.47, 307.72L288, 115L506.74, 307.9C508.28, 309.28 510.3, 309.9 512, 311.1L512, 496A16 16 0 0 1 496, 512L368, 512A16 16 0 0 1 352, 496z" fill="#727272" opacity="0.4" fill-opacity="1" class="Black" />
    <path d="M527.92, 283.91L298.6, 81.64A16 16 0 0 0 277.43, 81.64L48.11, 283.92A16 16 0 0 1 25.52, 282.71L4.1, 258.89A16 16 0 0 1 5.31, 236.3L261.31, 10.3A39.85 39.85 0 0 1 314.76, 10.3L570.7, 236.3A16 16 0 0 1 571.92, 258.89L550.52, 282.71A16 16 0 0 1 527.92, 283.91z" fill="#727272" fill-opacity="1" class="Black" />
  </g>
</svg>