<?xml version='1.0' encoding='UTF-8'?>
<svg viewBox="-1.9999 -4.8004 32 32" xmlns="http://www.w3.org/2000/svg">
  <g transform="matrix(1.0011, 0, 0, 1.0011, 0, 0)">
    <g transform="matrix(0.0437, 0, 0, 0.0437, 0, 0)">
      <defs>
        <style>.fa-secondary{opacity:.4}</style>
      </defs>
      <path d="M320, 96L288, 96L288, 32A32 32 0 0 0 256, 0L96, 0A32 32 0 0 0 64, 32L64, 96L32, 96A32 32 0 0 0 0, 128L0, 496A16 16 0 0 0 16, 512L304.31, 512A78.66 78.66 0 0 1 288, 464.79A143.1 143.1 0 0 1 329.91, 362.45A145.13 145.13 0 0 1 352, 344.62L352, 128A32 32 0 0 0 320, 96zM144, 404A12 12 0 0 1 132, 416L92, 416A12 12 0 0 1 80, 404L80, 364A12 12 0 0 1 92, 352L132, 352A12 12 0 0 1 144, 364zM144, 276A12 12 0 0 1 132, 288L92, 288A12 12 0 0 1 80, 276L80, 236A12 12 0 0 1 92, 224L132, 224A12 12 0 0 1 144, 236zM197.33, 168A8 8 0 0 1 189.33, 176L162.67, 176A8 8 0 0 1 154.67, 168L154.67, 133.33L120, 133.33A8 8 0 0 1 112, 125.33L112, 98.67A8 8 0 0 1 120, 90.67L154.67, 90.67L154.67, 56A8 8 0 0 1 162.67, 48L189.33, 48A8 8 0 0 1 197.33, 56L197.33, 90.67L232, 90.67A8 8 0 0 1 240, 98.67L240, 125.33A8 8 0 0 1 232, 133.33L197.33, 133.33zM272, 404A12 12 0 0 1 260, 416L220, 416A12 12 0 0 1 208, 404L208, 364A12 12 0 0 1 220, 352L260, 352A12 12 0 0 1 272, 364zM272, 276A12 12 0 0 1 260, 288L220, 288A12 12 0 0 1 208, 276L208, 236A12 12 0 0 1 220, 224L260, 224A12 12 0 0 1 272, 236z" fill="#727272" opacity="0.4" fill-opacity="1" class="Black" />
      <path d="M528.62, 352L528, 352A22.83 22.83 0 0 0 520.94, 353.09A124.81 124.81 0 0 1 439.05, 353.09A22.82 22.82 0 0 0 432, 352A112 112 0 0 0 320, 464L320, 464.62C320.14, 490.88 341.73, 512 368, 512L592, 512C618.27, 512 639.86, 490.88 640, 464.62A112 112 0 0 0 528.62, 352zM480, 320A96 96 0 1 0 384, 224A96 96 0 0 0 480, 320zM232, 90.67L197.33, 90.67L197.33, 56A8 8 0 0 0 189.33, 48L162.67, 48A8 8 0 0 0 154.67, 56L154.67, 90.67L120, 90.67A8 8 0 0 0 112, 98.67L112, 125.33A8 8 0 0 0 120, 133.33L154.67, 133.33L154.67, 168A8 8 0 0 0 162.67, 176L189.33, 176A8 8 0 0 0 197.33, 168L197.33, 133.33L232, 133.33A8 8 0 0 0 240, 125.33L240, 98.67A8 8 0 0 0 232, 90.67z" fill="#727272" fill-opacity="1" class="Black" />
    </g>
  </g>
</svg>