<?xml version='1.0' encoding='UTF-8'?>
<svg viewBox="-3.7494 -1.9999 32 32" xmlns="http://www.w3.org/2000/svg">
  <g transform="matrix(0.0547, 0, 0, 0.0547, 0, 0)">
    <defs>
      <style>.fa-secondary{opacity:.4}</style>
    </defs>
    <path d="M436, 480L416, 480L416, 120A24 24 0 0 0 392, 96L320, 96L320, 24A24 24 0 0 0 296, 0L152, 0A24 24 0 0 0 128, 24L128, 96L56, 96A24 24 0 0 0 32, 120L32, 480L12, 480A12 12 0 0 0 0, 492L0, 512L192, 512L192, 416A12 12 0 0 1 204, 404L244, 404A12 12 0 0 1 256, 416L256, 512L448, 512L448, 492A12 12 0 0 0 436, 480zM192, 340A12 12 0 0 1 180, 352L140, 352A12 12 0 0 1 128, 340L128, 300A12 12 0 0 1 140, 288L180, 288A12 12 0 0 1 192, 300zM192, 244A12 12 0 0 1 180, 256L140, 256A12 12 0 0 1 128, 244L128, 204A12 12 0 0 1 140, 192L180, 192A12 12 0 0 1 192, 204zM245.33, 117.33L245.33, 152A8 8 0 0 1 237.33, 160L210.67, 160A8 8 0 0 1 202.67, 152L202.67, 117.33L168, 117.33A8 8 0 0 1 160, 109.33L160, 82.67A8 8 0 0 1 168, 74.67L202.67, 74.67L202.67, 40A8 8 0 0 1 210.67, 32L237.33, 32A8 8 0 0 1 245.33, 40L245.33, 74.67L280, 74.67A8 8 0 0 1 288, 82.67L288, 109.33A8 8 0 0 1 280, 117.33zM320, 340A12 12 0 0 1 308, 352L268, 352A12 12 0 0 1 256, 340L256, 300A12 12 0 0 1 268, 288L308, 288A12 12 0 0 1 320, 300zM320, 244A12 12 0 0 1 308, 256L268, 256A12 12 0 0 1 256, 244L256, 204A12 12 0 0 1 268, 192L308, 192A12 12 0 0 1 320, 204z" fill="#727272" opacity="0.4" fill-opacity="1" class="Black" />
    <path d="M180, 288L140, 288A12 12 0 0 0 128, 300L128, 340A12 12 0 0 0 140, 352L180, 352A12 12 0 0 0 192, 340L192, 300A12 12 0 0 0 180, 288zM180, 192L140, 192A12 12 0 0 0 128, 204L128, 244A12 12 0 0 0 140, 256L180, 256A12 12 0 0 0 192, 244L192, 204A12 12 0 0 0 180, 192zM288, 109.33L288, 82.67A8 8 0 0 0 280, 74.67L245.33, 74.67L245.33, 40A8 8 0 0 0 237.33, 32L210.67, 32A8 8 0 0 0 202.67, 40L202.67, 74.67L168, 74.67A8 8 0 0 0 160, 82.67L160, 109.33A8 8 0 0 0 168, 117.33L202.67, 117.33L202.67, 152A8 8 0 0 0 210.67, 160L237.33, 160A8 8 0 0 0 245.33, 152L245.33, 117.33L280, 117.33A8 8 0 0 0 288, 109.33zM308, 288L268, 288A12 12 0 0 0 256, 300L256, 340A12 12 0 0 0 268, 352L308, 352A12 12 0 0 0 320, 340L320, 300A12 12 0 0 0 308, 288zM308, 192L268, 192A12 12 0 0 0 256, 204L256, 244A12 12 0 0 0 268, 256L308, 256A12 12 0 0 0 320, 244L320, 204A12 12 0 0 0 308, 192z" fill="#727272" fill-opacity="1" class="Black" />
  </g>
</svg>