<?xml version='1.0' encoding='UTF-8'?>
<svg viewBox="-1.9999 -4.8004 32 32" xmlns="http://www.w3.org/2000/svg">
  <g transform="matrix(1.0011, 0, 0, 1.0011, 0, 0)">
    <g transform="matrix(0.0437, 0, 0, 0.0437, 0, 0)">
      <defs>
        <style>.fa-secondary{opacity:.4}</style>
      </defs>
      <path d="M608, 96L608, 32A32 32 0 0 0 576, 0L416, 0A32 32 0 0 0 384, 32L384, 96A32 32 0 0 0 352, 128L352, 480A32 32 0 0 0 384, 512L608, 512A32 32 0 0 0 640, 480L640, 128A32 32 0 0 0 608, 96zM480, 404A12 12 0 0 1 468, 416L428, 416A12 12 0 0 1 416, 404L416, 364A12 12 0 0 1 428, 352L468, 352A12 12 0 0 1 480, 364zM480, 276A12 12 0 0 1 468, 288L428, 288A12 12 0 0 1 416, 276L416, 236A12 12 0 0 1 428, 224L468, 224A12 12 0 0 1 480, 236zM482.67, 160A8 8 0 0 1 474.67, 152L474.67, 117.33L440, 117.33A8 8 0 0 1 432, 109.33L432, 82.67A8 8 0 0 1 440, 74.67L474.67, 74.67L474.67, 40A8 8 0 0 1 482.67, 32L509.33, 32A8 8 0 0 1 517.33, 40L517.33, 74.67L552, 74.67A8 8 0 0 1 560, 82.67L560, 109.33A8 8 0 0 1 552, 117.33L517.33, 117.33L517.33, 152A8 8 0 0 1 509.33, 160zM576, 404A12 12 0 0 1 564, 416L524, 416A12 12 0 0 1 512, 404L512, 364A12 12 0 0 1 524, 352L564, 352A12 12 0 0 1 576, 364zM576, 276A12 12 0 0 1 564, 288L524, 288A12 12 0 0 1 512, 276L512, 236A12 12 0 0 1 524, 224L564, 224A12 12 0 0 1 576, 236zM200, 74.67L165.33, 74.67L165.33, 40A8 8 0 0 0 157.33, 32L130.67, 32A8 8 0 0 0 122.67, 40L122.67, 74.67L88, 74.67A8 8 0 0 0 80, 82.67L80, 109.33A8 8 0 0 0 88, 117.33L122.67, 117.33L122.67, 152A8 8 0 0 0 130.67, 160L157.33, 160A8 8 0 0 0 165.33, 152L165.33, 117.33L200, 117.33A8 8 0 0 0 208, 109.33L208, 82.67A8 8 0 0 0 200, 74.67z" fill="#727272" opacity="0.4" fill-opacity="1" class="Black" />
      <path d="M256, 96L256, 32A32 32 0 0 0 224, 0L64, 0A32 32 0 0 0 32, 32L32, 96A32 32 0 0 0 0, 128L0, 480A32 32 0 0 0 32, 512L256, 512A32 32 0 0 0 288, 480L288, 128A32 32 0 0 0 256, 96zM128, 404A12 12 0 0 1 116, 416L76, 416A12 12 0 0 1 64, 404L64, 364A12 12 0 0 1 76, 352L116, 352A12 12 0 0 1 128, 364zM128, 276A12 12 0 0 1 116, 288L76, 288A12 12 0 0 1 64, 276L64, 236A12 12 0 0 1 76, 224L116, 224A12 12 0 0 1 128, 236zM130.67, 160A8 8 0 0 1 122.67, 152L122.67, 117.33L88, 117.33A8 8 0 0 1 80, 109.33L80, 82.67A8 8 0 0 1 88, 74.67L122.67, 74.67L122.67, 40A8 8 0 0 1 130.67, 32L157.33, 32A8 8 0 0 1 165.33, 40L165.33, 74.67L200, 74.67A8 8 0 0 1 208, 82.67L208, 109.33A8 8 0 0 1 200, 117.33L165.33, 117.33L165.33, 152A8 8 0 0 1 157.33, 160zM224, 404A12 12 0 0 1 212, 416L172, 416A12 12 0 0 1 160, 404L160, 364A12 12 0 0 1 172, 352L212, 352A12 12 0 0 1 224, 364zM224, 276A12 12 0 0 1 212, 288L172, 288A12 12 0 0 1 160, 276L160, 236A12 12 0 0 1 172, 224L212, 224A12 12 0 0 1 224, 236zM552, 74.67L517.33, 74.67L517.33, 40A8 8 0 0 0 509.33, 32L482.67, 32A8 8 0 0 0 474.67, 40L474.67, 74.67L440, 74.67A8 8 0 0 0 432, 82.67L432, 109.33A8 8 0 0 0 440, 117.33L474.67, 117.33L474.67, 152A8 8 0 0 0 482.67, 160L509.33, 160A8 8 0 0 0 517.33, 152L517.33, 117.33L552, 117.33A8 8 0 0 0 560, 109.33L560, 82.67A8 8 0 0 0 552, 74.67z" fill="#727272" fill-opacity="1" class="Black" />
    </g>
  </g>
</svg>