<?xml version='1.0' encoding='UTF-8'?>
<svg viewBox="-1.9999 -3.5552 32 32" xmlns="http://www.w3.org/2000/svg">
  <g transform="matrix(0.0486, 0, 0, 0.0486, 0, 0)">
    <defs>
      <style>.fa-secondary{opacity:.4}</style>
    </defs>
    <path d="M544, 96L416, 96L416, 32A32 32 0 0 0 384, 0L192, 0A32 32 0 0 0 160, 32L160, 96L32, 96A32 32 0 0 0 0, 128L0, 496A16 16 0 0 0 16, 512L560, 512A16 16 0 0 0 576, 496L576, 128A32 32 0 0 0 544, 96zM160, 436A12 12 0 0 1 148, 448L108, 448A12 12 0 0 1 96, 436L96, 396A12 12 0 0 1 108, 384L148, 384A12 12 0 0 1 160, 396zM160, 308A12 12 0 0 1 148, 320L108, 320A12 12 0 0 1 96, 308L96, 268A12 12 0 0 1 108, 256L148, 256A12 12 0 0 1 160, 268zM320, 436A12 12 0 0 1 308, 448L268, 448A12 12 0 0 1 256, 436L256, 396A12 12 0 0 1 268, 384L308, 384A12 12 0 0 1 320, 396zM320, 308A12 12 0 0 1 308, 320L268, 320A12 12 0 0 1 256, 308L256, 268A12 12 0 0 1 268, 256L308, 256A12 12 0 0 1 320, 268zM352, 125.33A8 8 0 0 1 344, 133.33L309.33, 133.33L309.33, 168A8 8 0 0 1 301.33, 176L274.67, 176A8 8 0 0 1 266.67, 168L266.67, 133.33L232, 133.33A8 8 0 0 1 224, 125.33L224, 98.67A8 8 0 0 1 232, 90.67L266.67, 90.67L266.67, 56A8 8 0 0 1 274.67, 48L301.33, 48A8 8 0 0 1 309.33, 56L309.33, 90.67L344, 90.67A8 8 0 0 1 352, 98.67zM480, 436A12 12 0 0 1 468, 448L428, 448A12 12 0 0 1 416, 436L416, 396A12 12 0 0 1 428, 384L468, 384A12 12 0 0 1 480, 396zM480, 308A12 12 0 0 1 468, 320L428, 320A12 12 0 0 1 416, 308L416, 268A12 12 0 0 1 428, 256L468, 256A12 12 0 0 1 480, 268z" fill="#727272" opacity="0.4" fill-opacity="1" class="Black" />
    <path d="M344, 90.67L309.33, 90.67L309.33, 56A8 8 0 0 0 301.33, 48L274.67, 48A8 8 0 0 0 266.67, 56L266.67, 90.67L232, 90.67A8 8 0 0 0 224, 98.67L224, 125.33A8 8 0 0 0 232, 133.33L266.67, 133.33L266.67, 168A8 8 0 0 0 274.67, 176L301.33, 176A8 8 0 0 0 309.33, 168L309.33, 133.33L344, 133.33A8 8 0 0 0 352, 125.33L352, 98.67A8 8 0 0 0 344, 90.67zM148, 384L108, 384A12 12 0 0 0 96, 396L96, 436A12 12 0 0 0 108, 448L148, 448A12 12 0 0 0 160, 436L160, 396A12 12 0 0 0 148, 384zM148, 256L108, 256A12 12 0 0 0 96, 268L96, 308A12 12 0 0 0 108, 320L148, 320A12 12 0 0 0 160, 308L160, 268A12 12 0 0 0 148, 256zM308, 384L268, 384A12 12 0 0 0 256, 396L256, 436A12 12 0 0 0 268, 448L308, 448A12 12 0 0 0 320, 436L320, 396A12 12 0 0 0 308, 384zM308, 256L268, 256A12 12 0 0 0 256, 268L256, 308A12 12 0 0 0 268, 320L308, 320A12 12 0 0 0 320, 308L320, 268A12 12 0 0 0 308, 256zM468, 384L428, 384A12 12 0 0 0 416, 396L416, 436A12 12 0 0 0 428, 448L468, 448A12 12 0 0 0 480, 436L480, 396A12 12 0 0 0 468, 384zM468, 256L428, 256A12 12 0 0 0 416, 268L416, 308A12 12 0 0 0 428, 320L468, 320A12 12 0 0 0 480, 308L480, 268A12 12 0 0 0 468, 256z" fill="#727272" fill-opacity="1" class="Black" />
  </g>
</svg>