<?xml version='1.0' encoding='UTF-8'?>
<svg viewBox="-2 -2 32 32" xmlns="http://www.w3.org/2000/svg">
  <g transform="matrix(0.0547, 0, 0, 0.0547, 0, 0)">
    <defs>
      <style>.fa-secondary{opacity:.4}</style>
    </defs>
    <path d="M304, 76.49C286.63, 62.32 275.18, 39.74 272, 14.34A16.06 16.06 0 0 0 256.23, 0L240.11, 0C230.6, 0 223.02, 8.57 224.11, 18.35C228.45, 57.46 246.51, 92.88 274.24, 115.51C291.6, 129.68 303.06, 152.26 306.24, 177.65A16.07 16.07 0 0 0 322, 192L338.12, 192C347.63, 192 355.2, 183.43 354.12, 173.65C349.74, 134.54 331.68, 99.12 304, 76.49zM64, 128A64 64 0 1 0 0, 64A64 64 0 0 0 64, 128zM462.08, 173.65C457.74, 134.54 439.68, 99.12 411.95, 76.49C394.58, 62.32 383.13, 39.74 379.95, 14.34A16.06 16.06 0 0 0 364.23, 0L348.11, 0C338.6, 0 331.02, 8.57 332.11, 18.35C336.45, 57.46 354.51, 92.88 382.24, 115.51C399.6, 129.68 411.06, 152.26 414.24, 177.65A16.07 16.07 0 0 0 430, 192L446.12, 192C455.59, 192 463.16, 183.43 462.08, 173.65zM106.67, 160L64, 160A64 64 0 0 0 0, 224L0, 256L256, 256L145.07, 172.8A64 64 0 0 0 106.67, 160z" fill="#727272" opacity="0.4" fill-opacity="1" class="Black" />
    <path d="M480, 256L0, 256L0, 448A64 64 0 0 0 64, 512L448, 512A64 64 0 0 0 512, 448L512, 288A32 32 0 0 0 480, 256zM128, 440A8 8 0 0 1 120, 448L104, 448A8 8 0 0 1 96, 440L96, 328A8 8 0 0 1 104, 320L120, 320A8 8 0 0 1 128, 328zM224, 440A8 8 0 0 1 216, 448L200, 448A8 8 0 0 1 192, 440L192, 328A8 8 0 0 1 200, 320L216, 320A8 8 0 0 1 224, 328zM320, 440A8 8 0 0 1 312, 448L296, 448A8 8 0 0 1 288, 440L288, 328A8 8 0 0 1 296, 320L312, 320A8 8 0 0 1 320, 328zM416, 440A8 8 0 0 1 408, 448L392, 448A8 8 0 0 1 384, 440L384, 328A8 8 0 0 1 392, 320L408, 320A8 8 0 0 1 416, 328z" fill="#727272" fill-opacity="1" class="Black" />
  </g>
</svg>