<?xml version='1.0' encoding='UTF-8'?>
<svg viewBox="-2.0198 -1.9998 32 32" xmlns="http://www.w3.org/2000/svg">
  <g transform="matrix(1.0008, 0, 0, 1.0008, 0, 0)">
    <g transform="matrix(0.0546, 0, 0, 0.0546, 0, 0)">
      <defs>
        <style>.fa-secondary{opacity:.4}</style>
      </defs>
      <path d="M488.62, 23.38A79.86 79.86 0 0 0 375.71, 23.38L24.38, 374.72A79.85 79.85 0 1 0 135.32, 489.59C135.99, 488.94 136.64, 488.29 137.32, 487.59L488.62, 136.29A79.86 79.86 0 0 0 488.62, 23.38zM438.62, 118.63C419.02, 138.22 401.1, 141.3 386.69, 143.77C373.74, 146 364.38, 147.6 352, 160C339.62, 172.4 338, 181.76 335.77, 194.71C333.29, 209.11 330.22, 227.04 310.62, 246.63C291.02, 266.22 273.1, 269.3 258.7, 271.78C245.7, 274 236.4, 275.6 224, 288C211.6, 300.4 210, 309.75 207.77, 322.7C205.3, 337.1 202.23, 355.03 182.63, 374.62C163.03, 394.21 145.1, 397.3 130.7, 399.77C117.74, 402 108.38, 403.6 96, 416A16 16 0 1 1 73.37, 393.37C92.97, 373.78 110.89, 370.7 125.29, 368.23C138.29, 366.01 147.59, 364.41 160, 352C172.41, 339.59 174, 330.25 176.22, 317.3C178.7, 302.9 181.77, 284.97 201.37, 265.38C220.97, 245.79 238.89, 242.71 253.29, 240.24C266.29, 238.02 275.59, 236.41 287.99, 224.01C300.39, 211.61 301.99, 202.25 304.23, 189.3C306.7, 174.9 309.77, 156.97 329.37, 137.38C348.97, 117.79 366.89, 114.7 381.29, 112.23C394.29, 110 403.59, 108.41 416, 96A16 16 0 0 1 438.63, 118.63z" fill="#727272" opacity="0.4" fill-opacity="1" class="Black" />
      <path d="M310.64, 19.89C285.64, -5.11 246.79, -6.77 223.85, 16.17L16.17, 223.85C-6.77, 246.79 -5.1, 285.64 19.89, 310.63L31.44, 322.18L322.18, 31.44zM492.11, 201.36L480.56, 189.82L189.82, 480.56L201.36, 492.11C226.36, 517.11 265.21, 518.77 288.15, 495.83L495.83, 288.15C518.77, 265.21 517.1, 226.36 492.11, 201.36zM224, 288C236.4, 275.6 245.75, 274 258.7, 271.78C273.1, 269.3 291.02, 266.22 310.62, 246.63C330.22, 227.04 333.29, 209.11 335.77, 194.71C338, 181.71 339.6, 172.4 352, 160C364.4, 147.6 373.76, 146 386.7, 143.77C401.11, 141.3 419.03, 138.22 438.63, 118.63A16 16 0 0 0 416, 96C403.59, 108.41 394.24, 110 381.29, 112.23C366.89, 114.7 348.97, 117.79 329.37, 137.38C309.77, 156.97 306.7, 174.9 304.23, 189.3C302, 202.25 300.37, 211.61 288, 224C275.63, 236.39 266.3, 238 253.3, 240.23C238.9, 242.7 220.98, 245.78 201.38, 265.37C181.78, 284.96 178.68, 302.9 176.2, 317.3C174, 330.25 172.39, 339.59 160, 352C147.61, 364.41 138.29, 366 125.29, 368.23C110.89, 370.7 92.97, 373.78 73.37, 393.37A16 16 0 1 0 96, 416C108.4, 403.6 117.76, 402 130.7, 399.77C145.1, 397.3 163.03, 394.21 182.63, 374.62C202.23, 355.03 205.3, 337.1 207.77, 322.7C210, 309.75 211.58, 300.4 224, 288z" fill="#727272" fill-opacity="1" class="Black" />
    </g>
  </g>
</svg>