<?xml version='1.0' encoding='UTF-8'?>
<svg viewBox="-5.5002 -1.9999 32 32" xmlns="http://www.w3.org/2000/svg">
  <g transform="matrix(0.0547, 0, 0, 0.0547, 0, 0)">
    <defs>
      <style>.fa-secondary{opacity:.4}</style>
    </defs>
    <path d="M296, 448L88, 448C88, 370.54 134.2, 304 192, 304C249.8, 304 296, 370.52 296, 448z" fill="#727272" opacity="0.4" fill-opacity="1" class="Black" />
    <path d="M24, 448A24 24 0 0 0 0, 472L0, 488A24 24 0 0 0 24, 512L360, 512A24 24 0 0 0 384, 488L384, 472A24 24 0 0 0 360, 448C360, 357 309, 280.27 239.16, 256C309, 231.73 360, 155 360, 64A24 24 0 0 0 384, 40L384, 24A24 24 0 0 0 360, 0L24, 0A24 24 0 0 0 0, 24L0, 40A24 24 0 0 0 24, 64C24, 155 75, 231.73 144.84, 256C75, 280.27 24, 357 24, 448zM88, 64L296, 64C296, 141.46 249.8, 208 192, 208C134.2, 208 88, 141.48 88, 64zM192, 304C249.79, 304 296, 370.52 296, 448L88, 448C88, 370.54 134.2, 304 192, 304z" fill="#727272" fill-opacity="1" class="Black" />
  </g>
</svg>