<?xml version='1.0' encoding='UTF-8'?>
<svg viewBox="-5.5002 -1.9999 32 32" xmlns="http://www.w3.org/2000/svg">
  <g transform="matrix(0.0547, 0, 0, 0.0547, 0, 0)">
    <defs>
      <style>.fa-secondary{opacity:.4}</style>
    </defs>
    <path d="M192, 304C134.2, 304 88, 370.54 88, 448L296, 448C296, 370.52 249.79, 304 192, 304zM192, 208C249.8, 208 296, 141.46 296, 64L88, 64C88, 141.48 134.21, 208 192, 208z" fill="#727272" opacity="0.4" fill-opacity="1" class="Black" />
    <path d="M360, 64A24 24 0 0 0 384, 40L384, 24A24 24 0 0 0 360, 0L24, 0A24 24 0 0 0 0, 24L0, 40A24 24 0 0 0 24, 64C24, 155 75, 231.73 144.84, 256C75, 280.27 24, 357 24, 448A24 24 0 0 0 0, 472L0, 488A24 24 0 0 0 24, 512L360, 512A24 24 0 0 0 384, 488L384, 472A24 24 0 0 0 360, 448C360, 357 309, 280.27 239.16, 256C309, 231.73 360, 155 360, 64zM296, 448L88, 448C88, 370.54 134.2, 304 192, 304C249.8, 304 296, 370.52 296, 448zM192, 208C134.21, 208 88, 141.48 88, 64L296, 64C296, 141.46 249.8, 208 192, 208z" fill="#727272" fill-opacity="1" class="Black" />
  </g>
</svg>