<?xml version='1.0' encoding='UTF-8'?>
<svg viewBox="-2 -3.5567 32 32" xmlns="http://www.w3.org/2000/svg">
  <g transform="matrix(0.0486, 0, 0, 0.0486, 0, 0)">
    <defs>
      <style>.fa-secondary{opacity:.4}</style>
    </defs>
    <path d="M287.94, 114.85L96.29, 285L96.29, 384.4C96.79, 384.4 97.18, 384.3 97.68, 384.3A64 64 0 0 1 139, 399C151.77, 409.6 171.23, 415.7 192.38, 415.7C212.74, 415.7 231.38, 410.1 243.77, 400.3A73.57 73.57 0 0 1 289.17, 384.2A64.13 64.13 0 0 1 330.67, 399C343.45, 409.6 362.9, 415.7 384.06, 415.7C404.21, 415.7 423.47, 409.9 435.64, 400.1A70 70 0 0 1 479.44, 384.7L479.54, 384.7L479.54, 284.9zM335.85, 240.1L335.85, 304.1A16 16 0 0 1 319.85, 320.1L256, 320.1A16 16 0 0 1 240, 304.1L240, 240.1A16 16 0 0 1 256, 224.1L319.91, 224.1A16 16 0 0 1 335.82, 240.1z" fill="#727272" opacity="0.4" fill-opacity="1" class="Black" />
    <path d="M562.2, 447.88C540.69, 445.48 520.09, 437.37 504.29, 424.96A38.76 38.76 0 0 0 456.08, 424.96C418.17, 455.39 348.86, 455.39 310.35, 423.46C296.85, 412.26 277.35, 414.35 263.65, 425.26C225.65, 455.39 156.73, 455.26 118.42, 423.56C104.92, 412.35 85.11, 414.65 71.31, 425.56C55.81, 437.77 35.31, 445.68 13.6, 447.98C5.7, 448.78 0, 455.79 0, 463.7L0, 495.92C0, 505.02 7.6, 512.72 16.7, 511.92C45.51, 509.42 72.81, 500.51 96.12, 486C152.6, 520.63 233.12, 520.13 288.12, 486C344.6, 520.63 425.12, 520.13 480.12, 486A184.87 184.87 0 0 0 559.24, 511.83C568.34, 512.64 575.94, 504.94 575.94, 495.83L575.94, 464.2C576, 456.19 570.24, 448.78 562.2, 447.88zM22, 244.05L43.15, 268.05A16 16 0 0 0 65.65, 269.5L65.7, 269.45L287.94, 72.15L510.25, 269.45A16 16 0 0 0 532.8, 268.05L553.95, 244.05A16.11 16.11 0 0 0 552.57, 221.45L552.57, 221.5L479.57, 156.7L479.57, 48.05A16 16 0 0 0 463.57, 32.05L431.64, 32.05A16 16 0 0 0 415.64, 48.05L415.64, 100.05L314.4, 10.05A39.67 39.67 0 0 0 261.62, 10.05L23.35, 221.45A16 16 0 0 0 21.94, 244z" fill="#727272" fill-opacity="1" class="Black" />
  </g>
</svg>