<?xml version='1.0' encoding='UTF-8'?>
<svg viewBox="-4 0 32 32" xmlns="http://www.w3.org/2000/svg">
  <g transform="matrix(0.0625, 0, 0, 0.0625, 0, 0)">
    <defs>
      <style>.fa-secondary{opacity:.4}</style>
    </defs>
    <path d="M0, 224L0, 192A16 16 0 0 1 16, 176L221.38, 176L156, 240L16, 240A16 16 0 0 1 0, 224zM77.91, 316.38L123.27, 272L16, 272A16 16 0 0 0 0, 288L0, 320A16 16 0 0 0 16, 336L62.56, 336A94.82 94.82 0 0 1 77.91, 316.38zM368, 272L228, 272L162.6, 336L368, 336A16 16 0 0 0 384, 320L384, 288A16 16 0 0 0 368, 272zM368, 176L321.44, 176A94.78 94.78 0 0 1 306.1, 195.61L260.74, 240L368, 240A16 16 0 0 0 384, 224L384, 192A16 16 0 0 0 368, 176z" fill="#727272" opacity="0.4" fill-opacity="1" class="Black" />
    <path d="M323.32, 84.26C343.39, 120.84 335.92, 166.43 306.1, 195.61L134.81, 363.22A21.21 21.21 0 0 0 149.2, 400L232.83, 400A24 24 0 0 0 248.19, 394.44L259.94, 384.64A24 24 0 0 1 293.75, 387.71L314.24, 412.3A24 24 0 0 1 311.17, 446.1L299.4, 455.91A104 104 0 0 1 232.86, 480L154, 480C116.86, 480 80.62, 462.15 62, 430.05C61.55, 429.28 61.12, 428.51 60.69, 427.74C40.62, 391.16 48.09, 345.56 77.92, 316.39L249.2, 148.79A21.21 21.21 0 0 0 234.8, 112L151.18, 112A24 24 0 0 0 135.79, 117.57L124.06, 127.35A24 24 0 0 1 90.25, 124.28L69.76, 99.7A24 24 0 0 1 72.83, 65.9L84.6, 56.09A104 104 0 0 1 151.14, 32L230, 32C267.14, 32 303.38, 49.84 322, 82C322.46, 82.72 322.89, 83.49 323.32, 84.26z" fill="#727272" fill-opacity="1" class="Black" />
  </g>
</svg>