<?xml version='1.0' encoding='UTF-8'?>
<svg viewBox="-5.4964 -1.9923 32 31.9975" xmlns="http://www.w3.org/2000/svg">
  <g transform="matrix(0.0547, 0, 0, 0.0547, 0, 0)">
    <defs>
      <style>.fa-secondary{opacity:.4}</style>
    </defs>
    <path d="M176, 96L200.5, 21.21A16.22 16.22 0 0 0 183.1, 0.12C80, 12.42 0, 101.61 0, 208C0, 322.9 93.1, 416 208, 416L183.5, 490.79A16.24 16.24 0 0 0 200.9, 511.89C304, 499.58 384, 410.39 384, 304C384, 189.1 290.9, 96 176, 96zM192, 352A96 96 0 1 1 288, 256A96 96 0 0 1 192, 352z" fill="#727272" opacity="0.4" fill-opacity="1" class="Black" />
    <path d="M236, 256A44 44 0 1 1 192, 212A44 44 0 0 1 236, 256z" fill="#727272" fill-opacity="1" class="Black" />
  </g>
</svg>