<?xml version='1.0' encoding='UTF-8'?>
<svg viewBox="-1.9986 -1.9998 31.9975 32" xmlns="http://www.w3.org/2000/svg">
  <g transform="matrix(0.0547, 0, 0, 0.0547, 0, 0)">
    <defs>
      <style>.fa-secondary{opacity:.4}</style>
    </defs>
    <path d="M511.36, 37.9L423.86, 505.6C422.16, 514.2 409.86, 514.2 408.16, 505.6L341.46, 141.8L295.66, 314.3A8 8 0 0 1 280.36, 314.3L246.26, 180.9L199.76, 377.8C197.86, 386.1 186.06, 386.1 184.16, 377.8L140, 190.5L103.6, 314.6C101.2, 321.8 91, 321.8 88.5, 314.6L1.36, 41.2A32 32 0 0 1 32, 0L480, 0A32 32 0 0 1 511.95, 32.05A32.83 32.83 0 0 1 511.4, 37.9z" fill="#727272" opacity="0.4" fill-opacity="1" class="Black" />
    <path d="M480, 0L353.41, 0A32 32 0 0 0 321.94, 37.8L408.16, 505.6C409.86, 514.2 422.16, 514.2 423.86, 505.6L511.36, 37.9A32.83 32.83 0 0 0 511.91, 32.05A32 32 0 0 0 480, 0z" fill="#727272" fill-opacity="1" class="Black" />
  </g>
</svg>