<?xml version='1.0' encoding='UTF-8'?>
<svg viewBox="-1.9999 -1.9999 32 32" xmlns="http://www.w3.org/2000/svg">
  <g transform="matrix(0.0547, 0, 0, 0.0547, 0, 0)">
    <defs>
      <style>.fa-secondary{opacity:.4}</style>
    </defs>
    <path d="M208, 96L16, 96A16 16 0 0 0 0, 112L0, 144A16 16 0 0 0 16, 160L80, 160L80, 208A16 16 0 0 0 96, 224L128, 224A16 16 0 0 0 144, 208L144, 160L208, 160A16 16 0 0 0 224, 144L224, 112A16 16 0 0 0 208, 96zM208, 0L16, 0A16 16 0 0 0 0, 16L0, 48A16 16 0 0 0 16, 64L208, 64A16 16 0 0 0 224, 48L224, 16A16 16 0 0 0 208, 0zM328, 368A40 40 0 1 0 288, 328A40 40 0 0 0 328, 368zM507.31, 315.31L484.69, 292.69A16 16 0 0 0 462.06, 292.69L292.69, 462.06A16 16 0 0 0 292.69, 484.69L315.31, 507.31A16 16 0 0 0 337.94, 507.31L507.31, 337.94A16 16 0 0 0 507.31, 315.31zM472, 432A40 40 0 1 0 512, 472A40 40 0 0 0 472, 432z" fill="#727272" opacity="0.4" fill-opacity="1" class="Black" />
    <path d="M478.08, 0.33L329.51, 23.18C314.87, 25.44 304, 38.94 304, 54.86L304, 161.7A83.25 83.25 0 0 0 288, 160C252.65, 160 224, 181.49 224, 208C224, 234.51 252.65, 256 288, 256C323.2, 256 351.73, 234.67 352, 208.31L352, 99.73L464, 82.5L464, 129.7A83.25 83.25 0 0 0 448, 128C412.65, 128 384, 149.49 384, 176C384, 202.51 412.65, 224 448, 224C483.2, 224 511.73, 202.67 512, 176.31L512, 32C512, 12.53 496, -2.43 478.08, 0.33zM219.59, 383.94L197, 361.31A16 16 0 0 0 174.37, 361.31L146.45, 389.2L123.75, 366.5A64 64 0 1 0 33.05, 363.2L26.13, 370.12C-3.46, 399.71 -9.56, 447.75 16.32, 480.64A81.31 81.31 0 0 0 138, 488.19L146.48, 479.7L174.09, 507.31A16 16 0 0 0 196.72, 507.31L219.34, 484.69A16 16 0 0 0 219.34, 462.06L191.7, 434.45L219.59, 406.56A16 16 0 0 0 219.59, 383.94zM80, 304A16 16 0 1 1 64, 320A16 16 0 0 1 80, 304zM92.72, 442.94A17.29 17.29 0 1 1 68.27, 418.48L76.75, 410L101.2, 434.45z" fill="#727272" fill-opacity="1" class="Black" />
  </g>
</svg>