<?xml version='1.0' encoding='UTF-8'?>
<svg viewBox="-2 -1.9988 32 32" xmlns="http://www.w3.org/2000/svg">
  <g transform="matrix(0.0547, 0, 0, 0.0547, 0, 0)">
    <defs>
      <style>.fa-secondary{opacity:.4}</style>
    </defs>
    <path d="M137.86, 22.44L128, 32.58L118.15, 22.44C93.05, -3.5 52.25, -7.7 24.86, 15.64C-6.55, 42.42 -8.14, 90.49 19.86, 119.52L116.61, 219.35A15.68 15.68 0 0 0 139.26, 219.35L236.01, 119.52C264.15, 90.52 262.51, 42.42 231.1, 15.64C203.75, -7.7 163, -3.5 137.86, 22.44zM499.4, 352.1L438.82, 352.1L461.18, 301.35C463.28, 294.7 457.24, 288.14 449, 288.14L373.4, 288.14C367.1, 288.14 361.75, 292.04 360.91, 297.24L344.11, 404.17C343.11, 410.47 348.99, 416.06 356.6, 416.06L418.92, 416.06L394.72, 499.06C392.83, 505.71 398.92, 511.96 406.95, 511.96A13.26 13.26 0 0 0 417.87, 506.71L510.27, 367.8C515.15, 360.89 509.11, 352.1 499.4, 352.1z" fill="#727272" opacity="0.4" fill-opacity="1" class="Black" />
    <path d="M260.57, 319.84L212.57, 319.84L205.49, 305.6A27.39 27.39 0 0 0 179.83, 287.82L108.12, 287.82A27.39 27.39 0 0 0 82.46, 305.6L75.46, 319.84L27.46, 319.84A27.45 27.45 0 0 0 0, 347.3L0, 484.55A27.45 27.45 0 0 0 27.43, 512L260.57, 512A27.45 27.45 0 0 0 288, 484.55L288, 347.3A27.45 27.45 0 0 0 260.57, 319.84zM144, 468A52 52 0 1 1 196, 416A52 52 0 0 1 144, 468zM478.08, 0.33L329.51, 23.17C314.87, 25.42 304, 38.92 304, 54.83L304, 161.6A83.25 83.25 0 0 0 288, 159.9C252.65, 159.9 224, 181.38 224, 207.9C224, 234.42 252.65, 255.9 288, 255.9C323.2, 255.9 351.73, 234.58 352, 208.24L352, 99.66L464, 82.44L464, 129.62A83.25 83.25 0 0 0 448, 127.92C412.65, 127.92 384, 149.4 384, 175.92C384, 202.44 412.65, 223.92 448, 223.92C483.2, 223.92 511.73, 202.6 512, 176.26L512, 32C512, 12.52 496, -2.42 478.08, 0.33z" fill="#727272" fill-opacity="1" class="Black" />
  </g>
</svg>