<?xml version='1.0' encoding='UTF-8'?>
<svg viewBox="-1.9998 -3.5563 31.9975 32" xmlns="http://www.w3.org/2000/svg">
  <g transform="matrix(0.0486, 0, 0, 0.0486, 0, 0)">
    <defs>
      <style>.fa-secondary{opacity:.4}</style>
    </defs>
    <path d="M528, 64L352, 64L352, 128L368, 128A16 16 0 0 1 368, 160L208, 160A16 16 0 0 1 208, 128L224, 128L224, 64L48, 64A48 48 0 0 0 0, 112L0, 464A48 48 0 0 0 48, 512L528, 512A48 48 0 0 0 576, 464L576, 112A48 48 0 0 0 528, 64zM288, 224A64 64 0 1 1 224, 288A64 64 0 0 1 288, 224zM381.3, 448L194.7, 448C184.3, 448 175.9, 438 179.1, 428.2A64 64 0 0 1 240, 384L248.2, 384A103 103 0 0 0 327.8, 384L336, 384A64.09 64.09 0 0 1 396.9, 428.2C400.1, 438 391.7, 448 381.3, 448z" fill="#727272" opacity="0.4" fill-opacity="1" class="Black" />
    <path d="M352, 32A32 32 0 0 0 320, 0L256, 0A32 32 0 0 0 224, 32L224, 128L352, 128zM288, 352A64 64 0 1 0 224, 288A64 64 0 0 0 288, 352zM396.9, 428.2A64.09 64.09 0 0 0 336, 384L327.8, 384A103 103 0 0 1 248.2, 384L240, 384A64 64 0 0 0 179.1, 428.2C175.9, 438 184.3, 448 194.7, 448L381.3, 448C391.7, 448 400.1, 438 396.9, 428.2z" fill="#727272" fill-opacity="1" class="Black" />
  </g>
</svg>