<?xml version='1.0' encoding='UTF-8'?>
<svg viewBox="-2 -3.554 32 32" xmlns="http://www.w3.org/2000/svg">
  <g transform="matrix(0.0486, 0, 0, 0.0486, 0, 0)">
    <defs>
      <style>.fa-secondary{opacity:.4}</style>
    </defs>
    <path d="M384, 384L384, 480L192, 480L192, 384A96 96 0 0 1 384, 384z" fill="#727272" opacity="0.4" fill-opacity="1" class="Black" />
    <path d="M320, 33.9A282 282 0 0 0 288, 32A287.48 287.48 0 0 0 48.6, 160L320, 160zM96, 192L30.3, 192A286.63 286.63 0 0 0 0, 320L96, 320zM352, 39.4L352, 160L527.4, 160A287.83 287.83 0 0 0 352, 39.4zM480, 320L576, 320A286.63 286.63 0 0 0 545.7, 192L480, 192zM416, 384L416, 480L544, 480A32 32 0 0 0 576, 448L576, 352L411.5, 352C414.1, 362.3 416, 372.9 416, 384zM448, 192L128, 192L128, 320L177.8, 320C200, 281.9 240.8, 256 288, 256C335.2, 256 376, 281.9 398.2, 320L448, 320zM0, 448A32 32 0 0 0 32, 480L160, 480L160, 384C160, 372.9 161.9, 362.3 164.5, 352L0, 352z" fill="#727272" fill-opacity="1" class="Black" />
  </g>
</svg>