<?xml version='1.0' encoding='UTF-8'?>
<svg viewBox="-2 -1.9988 32 32" xmlns="http://www.w3.org/2000/svg">
  <g transform="matrix(0.0547, 0, 0, 0.0547, 0, 0)">
    <defs>
      <style>.fa-secondary{opacity:.4}</style>
    </defs>
    <path d="M448, 384L64, 384L64, 336L135.51, 264.48A12 12 0 0 1 152.51, 264.48L208, 320L343.51, 184.48A12 12 0 0 1 360.51, 184.48L448, 272z" fill="#727272" opacity="0.4" fill-opacity="1" class="Black" />
    <path d="M464, 64L48, 64A48 48 0 0 0 0, 112L0, 400A48 48 0 0 0 48, 448L464, 448A48 48 0 0 0 512, 400L512, 112A48 48 0 0 0 464, 64zM112, 120A56 56 0 1 1 56, 176A56 56 0 0 1 112, 120zM448, 384L64, 384L64, 336L135.51, 264.48A12 12 0 0 1 152.51, 264.48L208, 320L343.51, 184.48A12 12 0 0 1 360.51, 184.48L448, 272z" fill="#727272" fill-opacity="1" class="Black" />
  </g>
</svg>