<?xml version='1.0' encoding='UTF-8'?>
<svg viewBox="-1.9999 -1.9974 32 31.9975" xmlns="http://www.w3.org/2000/svg">
  <g transform="matrix(0.0547, 0, 0, 0.0547, 0, 0)">
    <defs>
      <style>.fa-secondary{opacity:.4}</style>
    </defs>
    <path d="M148, 320L108, 320A12 12 0 0 0 96, 332L96, 372A12 12 0 0 0 108, 384L148, 384A12 12 0 0 0 160, 372L160, 332A12 12 0 0 0 148, 320zM276, 320L236, 320A12 12 0 0 0 224, 332L224, 372A12 12 0 0 0 236, 384L276, 384A12 12 0 0 0 288, 372L288, 332A12 12 0 0 0 276, 320zM404, 320L364, 320A12 12 0 0 0 352, 332L352, 372A12 12 0 0 0 364, 384L404, 384A12 12 0 0 0 416, 372L416, 332A12 12 0 0 0 404, 320z" fill="#727272" opacity="0.4" fill-opacity="1" class="Black" />
    <path d="M475.12, 163.78L336, 252.31L336, 184A24 24 0 0 0 299.12, 163.75L160, 252.31L160, 56A24 24 0 0 0 136, 32L24, 32A24 24 0 0 0 0, 56L0, 456A24 24 0 0 0 24, 480L488, 480A24 24 0 0 0 512, 456L512, 184A24 24 0 0 0 475.12, 163.78zM160, 372A12 12 0 0 1 148, 384L108, 384A12 12 0 0 1 96, 372L96, 332A12 12 0 0 1 108, 320L148, 320A12 12 0 0 1 160, 332zM288, 372A12 12 0 0 1 276, 384L236, 384A12 12 0 0 1 224, 372L224, 332A12 12 0 0 1 236, 320L276, 320A12 12 0 0 1 288, 332zM416, 372A12 12 0 0 1 404, 384L364, 384A12 12 0 0 1 352, 372L352, 332A12 12 0 0 1 364, 320L404, 320A12 12 0 0 1 416, 332z" fill="#727272" fill-opacity="1" class="Black" />
  </g>
</svg>