<?xml version='1.0' encoding='UTF-8'?>
<svg viewBox="-1.5477 -1.5477 32 32" xmlns="http://www.w3.org/2000/svg">
  <g transform="matrix(0.9991, 0, 0, 0.9991, 0, 0)">
    <g transform="matrix(0.0565, 0, 0, 0.0565, 0, 0)">
      <defs>
        <style>.fa-secondary{opacity:.4}</style>
      </defs>
      <path d="M256, 8C119, 8 8, 119.08 8, 256C8, 392.92 119, 504 256, 504C393, 504 504, 393 504, 256C504, 119 393, 8 256, 8zM256, 118A42 42 0 1 1 214, 160A42 42 0 0 1 256, 118zM312, 372A12 12 0 0 1 300, 384L212, 384A12 12 0 0 1 200, 372L200, 348A12 12 0 0 1 212, 336L224, 336L224, 272L212, 272A12 12 0 0 1 200, 260L200, 236A12 12 0 0 1 212, 224L276, 224A12 12 0 0 1 288, 236L288, 336L300, 336A12 12 0 0 1 312, 348z" fill="#727272" opacity="0.4" fill-opacity="1" class="Black" />
      <path d="M256, 202A42 42 0 1 0 214, 160A42 42 0 0 0 256, 202zM300, 336L288, 336L288, 236A12 12 0 0 0 276, 224L212, 224A12 12 0 0 0 200, 236L200, 260A12 12 0 0 0 212, 272L224, 272L224, 336L212, 336A12 12 0 0 0 200, 348L200, 372A12 12 0 0 0 212, 384L300, 384A12 12 0 0 0 312, 372L312, 348A12 12 0 0 0 300, 336z" fill="#727272" fill-opacity="1" class="Black" />
    </g>
  </g>
</svg>