<?xml version='1.0' encoding='UTF-8'?>
<svg viewBox="-2 -4.796 32 32" xmlns="http://www.w3.org/2000/svg">
  <g transform="matrix(1.0013, 0, 0, 1.0013, 0, 0)">
    <g transform="matrix(0.0437, 0, 0, 0.0437, 0, 0)">
      <defs>
        <style>.fa-secondary{opacity:.4}</style>
      </defs>
      <path d="M32, 448A32 32 0 1 0 64, 480A32 32 0 0 0 32, 448zM128, 304A32 32 0 1 0 160, 336A32 32 0 0 0 128, 304zM32, 256A32 32 0 1 0 64, 288A32 32 0 0 0 32, 256zM32, 352A32 32 0 1 0 64, 384A32 32 0 0 0 32, 352zM128, 400A32 32 0 1 0 160, 432A32 32 0 0 0 128, 400zM616.27, 38L478.47, 1.1A32 32 0 0 0 439.28, 23.73L423.87, 81.25L592.61, 250L638.9, 77.21A32 32 0 0 0 616.27, 38z" fill="#727272" opacity="0.4" fill-opacity="1" class="Black" />
      <path d="M586.15, 288.78A32 32 0 0 1 594.48, 319.53L550.26, 488.12A32 32 0 0 1 519.26, 512L224, 512A32 32 0 0 1 192, 480L192, 288A32 32 0 0 1 224, 256L346.49, 256L382.4, 119.08A16 16 0 0 1 409.19, 111.82z" fill="#727272" fill-opacity="1" class="Black" />
    </g>
  </g>
</svg>