<?xml version='1.0' encoding='UTF-8'?>
<svg viewBox="-5.4972 -2 32 32" xmlns="http://www.w3.org/2000/svg">
  <g transform="matrix(0.0547, 0, 0, 0.0547, 0, 0)">
    <defs>
      <style>.fa-secondary{opacity:.4}</style>
    </defs>
    <path d="M377.21, 73A32.71 32.71 0 0 1 372.37, 118L348.19, 138A30.29 30.29 0 0 1 304.67, 133L276.67, 96.8L197.47, 435.91C186.5, 485 141.92, 517.8 92.1, 511.13C66.74, 507.74 44.19, 492.55 28.21, 471.92L6.79, 444.27A32.73 32.73 0 0 1 11.61, 399.27L35.78, 379.27A30.3 30.3 0 0 1 79.31, 384.27L103.31, 415.18L181.42, 80.82C190.54, 40 221.86, 6.41 262.05, 0.89C295.87, -3.75 328.43, 9.98 349.21, 36.89z" fill="#727272" opacity="0.4" fill-opacity="1" class="Black" />
  </g>
</svg>