<?xml version='1.0' encoding='UTF-8'?>
<svg viewBox="-3.7483 -2 32 32" xmlns="http://www.w3.org/2000/svg">
  <g transform="matrix(0.0547, 0, 0, 0.0547, 0, 0)">
    <defs>
      <style>.fa-secondary{opacity:.4}</style>
    </defs>
    <path d="M284.91, 358.8A144 144 0 0 0 241.2, 352L196.13, 352C206.13, 309.15 221.13, 229.23 217.13, 149.67L238.89, 128L266.28, 128C277.44, 176 294.86, 270.41 284.91, 358.8z" fill="#727272" opacity="0.4" fill-opacity="1" class="Black" />
    <path d="M241.2, 352L142.8, 352A144 144 0 0 0 0.36, 474.78C-2.53, 494.3 12.39, 512 32.12, 512L351.88, 512C371.61, 512 386.53, 494.3 383.64, 474.78A144 144 0 0 0 241.2, 352zM447.82, 113.64C439.69, 67.43 393, 32 336.53, 32C301.65, 32 270.87, 45.82 250.23, 67.08C235.78, 28.29 193.72, 0 143.47, 0C87, 0 40.31, 35.43 32.18, 81.64A12.37 12.37 0 0 0 42.42, 95.84A12.24 12.24 0 0 0 44.6, 96L80, 96L96, 64L112, 96L142.17, 96C107.96, 131 102.55, 182.88 127.63, 218.58C131.99, 224.78 140.77, 225.89 146.13, 220.53L238.89, 128L368, 128L384, 96L400, 128L435.4, 128A12.38 12.38 0 0 0 448, 115.82A12.24 12.24 0 0 0 447.82, 113.64z" fill="#727272" fill-opacity="1" class="Black" />
  </g>
</svg>