<?xml version='1.0' encoding='UTF-8'?>
<svg viewBox="-1.9975 -3.553 32 32" xmlns="http://www.w3.org/2000/svg">
  <g transform="matrix(0.0486, 0, 0, 0.0486, 0, 0)">
    <defs>
      <style>.fa-secondary{opacity:.4}</style>
    </defs>
    <path d="M495.3, 153.12C468.3, 130.04 429.94, 123.37 395.81, 132.2C401.9, 137.7 407.97, 143.2 413, 150C416.1, 154.26 418.46, 159.42 421.15, 164.17C389.39, 140.54 345.54, 128 288, 128C230.46, 128 186.61, 140.54 154.85, 164.17C157.54, 159.42 159.85, 154.26 163, 150C168, 143.21 174.1, 137.71 180.19, 132.2C146.06, 123.37 107.7, 130.04 80.7, 153.12C-26.9, 245.12 -26.9, 394.85 80.7, 486.87C119.33, 519.87 181.52, 520.21 220.82, 488.12C238.65, 503.51 260.72, 512 288, 512C315.28, 512 337.35, 503.51 355.19, 488.12C394.49, 520.21 456.68, 519.9 495.31, 486.87C602.9, 394.86 602.9, 245.14 495.3, 153.12zM320.85, 278L362, 211.33C364.33, 206.76 370.6, 206.91 374, 211.33L415.15, 278C416.81, 281.25 416.05, 288 409.15, 288L326.86, 288C320, 288 319.16, 281.31 320.85, 278zM160.85, 278L202, 211.33C204.33, 206.76 210.6, 206.91 214, 211.33L255.15, 278C256.81, 281.25 256.05, 288 249.15, 288L166.86, 288C160, 288 159.16, 281.31 160.85, 278zM469.85, 345.6C463.85, 362.6 457.1, 374.21 451.15, 382.6C441.77, 395.54 429.81, 406.4 415.96, 415.6A15.94 15.94 0 0 0 400, 400L384, 400A16 16 0 0 0 368, 416L368, 437.48C344.54, 444.36 317.84, 448 288, 448C258.16, 448 231.44, 444.35 208, 437.49L208, 416A16 16 0 0 0 192, 400L176, 400A16 16 0 0 0 160.08, 415.62C146.37, 406.54 134.55, 395.84 125.33, 383.12A146.4 146.4 0 0 1 106.33, 345.66C101.46, 331.77 116.89, 319.51 129.57, 326.99A308.41 308.41 0 0 0 240, 365.83L240, 384A16 16 0 0 0 256, 400L272, 400A16 16 0 0 0 288, 384L288, 369.74C346.38, 369.74 400.72, 354 446.54, 326.95C459.22, 319.46 474.65, 331.71 469.8, 345.6z" fill="#727272" opacity="0.4" fill-opacity="1" class="Black" />
    <path d="M326.86, 288L409.15, 288C416.05, 288 416.81, 281.25 415.15, 278L374, 211.33C370.6, 206.91 364.33, 206.76 362, 211.33L320.85, 278C319.16, 281.31 320, 288 326.86, 288zM166.86, 288L249.15, 288C256.05, 288 256.81, 281.25 255.15, 278L214, 211.33C210.6, 206.91 204.33, 206.76 202, 211.33L160.85, 278C159.16, 281.31 160, 288 166.86, 288zM446.56, 327C400.74, 354 346.4, 369.74 288, 369.74L288, 384A16 16 0 0 1 272, 400L256, 400A16 16 0 0 1 240, 384L240, 365.83A308.41 308.41 0 0 1 129.53, 327C116.85, 319.52 101.42, 331.78 106.29, 345.67A146.4 146.4 0 0 0 125.29, 383.13C134.51, 395.85 146.29, 406.55 160.04, 415.63A16 16 0 0 1 176, 400L192, 400A16 16 0 0 1 208, 416L208, 437.49C231.46, 444.35 258.17, 448 288, 448C317.83, 448 344.52, 444.36 368, 437.48L368, 416A16 16 0 0 1 384, 400L400, 400A15.94 15.94 0 0 1 415.91, 415.54C429.76, 406.36 441.72, 395.54 451.1, 382.54C457.05, 374.19 463.84, 362.62 469.8, 345.54C474.65, 331.71 459.22, 319.46 446.56, 327zM352, 106.6L352, 35.81A16 16 0 0 0 343.16, 21.5L303.56, 1.7A16 16 0 0 0 281.56, 10.07L245.5, 100.22A214 214 0 0 1 288, 96A189.94 189.94 0 0 1 352, 106.6z" fill="#727272" fill-opacity="1" class="Black" />
  </g>
</svg>