<?xml version='1.0' encoding='UTF-8'?>
<svg viewBox="-2 -4.7992 32 32" xmlns="http://www.w3.org/2000/svg">
  <g transform="matrix(0.9988, 0, 0, 0.9988, 0, 0)">
    <g transform="matrix(0.0438, 0, 0, 0.0438, 0, 0)">
      <defs>
        <style>.fa-secondary{opacity:.4}</style>
      </defs>
      <path d="M487.66, 141.63C463.85, 125 448, 99.34 448, 70.31L448, 8A8 8 0 0 0 440, 0L392, 0A8 8 0 0 0 384, 8L384, 74.4C384, 118.09 408.56, 156.03 444.34, 181.1A83.55 83.55 0 0 1 480, 249.69L480, 280A8 8 0 0 0 488, 288L536, 288A8 8 0 0 0 544, 280L544, 249.69A131.49 131.49 0 0 0 487.66, 141.63zM553.28, 87.09A20.28 20.28 0 0 1 544, 70.31L544, 8A8 8 0 0 0 536, 0L488, 0A8 8 0 0 0 480, 8L480, 70.31C480, 92.31 490.17, 113.72 508.64, 125.7A147.47 147.47 0 0 1 576, 249.7L576, 280A8 8 0 0 0 584, 288L632, 288A8 8 0 0 0 640, 280L640, 249.69A195.36 195.36 0 0 0 553.28, 87.09z" fill="#727272" opacity="0.4" fill-opacity="1" class="Black" />
      <path d="M360.89, 352.05C326.49, 352.11 274.08, 352.2 272.68, 352.22L390.48, 489.65A64 64 0 0 0 439.07, 512L527.52, 512L409.57, 374.4A64 64 0 0 0 360.89, 352.05zM195, 359A525 525 0 0 0 0, 432A526.3 526.3 0 0 0 278.94, 512L367.51, 512L254.79, 380.49A65 65 0 0 0 195, 359zM616, 352L432, 352L550, 489.65A64 64 0 0 0 598.58, 512L616, 512A24 24 0 0 0 640, 488L640, 376A24 24 0 0 0 616, 352z" fill="#727272" fill-opacity="1" class="Black" />
    </g>
  </g>
</svg>