<?xml version='1.0' encoding='UTF-8'?>
<svg viewBox="-3.7505 -1.9998 32 31.9975" xmlns="http://www.w3.org/2000/svg">
  <g transform="matrix(0.0547, 0, 0, 0.0547, 0, 0)">
    <defs>
      <style>.fa-secondary{opacity:.4}</style>
    </defs>
    <path d="M112, 320L80, 320A16 16 0 0 0 64, 336L64, 352L128, 352L128, 336A16 16 0 0 0 112, 320zM224, 224C212.8, 224 202.2, 221.86 192, 218.8L192, 352L256, 352L256, 218.8C245.8, 221.86 235.2, 224 224, 224z" fill="#727272" opacity="0.4" fill-opacity="1" class="Black" />
    <path d="M416, 352L32, 352A32 32 0 0 0 0, 384L0, 480A32 32 0 0 0 32, 512L416, 512A32 32 0 0 0 448, 480L448, 384A32 32 0 0 0 416, 352zM224, 224A112 112 0 1 0 112, 112A112 112 0 0 0 224, 224zM200, 48A24 24 0 1 1 176, 72A24 24 0 0 1 200, 48z" fill="#727272" fill-opacity="1" class="Black" />
  </g>
</svg>