<?xml version='1.0' encoding='UTF-8'?>
<svg viewBox="-2 -3.554 32 32" xmlns="http://www.w3.org/2000/svg">
  <g transform="matrix(0.0486, 0, 0, 0.0486, 0, 0)">
    <defs>
      <style>.fa-secondary{opacity:.4}</style>
    </defs>
    <path d="M117.89, 205.81L37.89, 227.63A8 8 0 0 0 32, 235.35L32, 251.93A8 8 0 0 0 42.11, 259.65L122.11, 237.83A8 8 0 0 0 128, 230.11L128, 213.53A8 8 0 0 0 117.89, 205.81zM261.89, 166.53L165.89, 192.71A8 8 0 0 0 160, 200.43L160, 217A8 8 0 0 0 170.11, 224.72L266.11, 198.54A8 8 0 0 0 272, 190.82L272, 174.25A8 8 0 0 0 261.89, 166.53zM538.11, 227.63L458.11, 205.81A8 8 0 0 0 448, 213.53L448, 230.11A8 8 0 0 0 453.89, 237.83L533.89, 259.65A8 8 0 0 0 544, 251.93L544, 235.35A8 8 0 0 0 538.11, 227.63zM410.11, 192.72L314.11, 166.54A8 8 0 0 0 304, 174.26L304, 190.84A8 8 0 0 0 309.89, 198.56L405.89, 224.74A8 8 0 0 0 416, 217L416, 200.44A8 8 0 0 0 410.11, 192.72z" fill="#727272" opacity="0.4" fill-opacity="1" class="Black" />
    <path d="M301.81, 114A47.66 47.66 0 0 0 274.22, 114L0, 196.3L0, 424.68A32 32 0 0 0 25.06, 455.92L267.18, 509.72A95.94 95.94 0 0 0 308.83, 509.72L551, 455.92A32 32 0 0 0 576, 424.68L576, 196.29zM128, 230.11A8 8 0 0 1 122.11, 237.83L42.11, 259.65A8 8 0 0 1 32, 251.93L32, 235.35A8 8 0 0 1 37.89, 227.63L117.89, 205.81A8 8 0 0 1 128, 213.53zM272, 190.83A8 8 0 0 1 266.11, 198.55L170.11, 224.73A8 8 0 0 1 160, 217L160, 200.43A8 8 0 0 1 165.89, 192.71L261.89, 166.53A8 8 0 0 1 272, 174.25zM416, 217A8 8 0 0 1 405.89, 224.72L309.89, 198.54A8 8 0 0 1 304, 190.82L304, 174.26A8 8 0 0 1 314.11, 166.54L410.11, 192.72A8 8 0 0 1 416, 200.44zM544, 251.91A8 8 0 0 1 533.89, 259.63L453.89, 237.81A8 8 0 0 1 448, 230.09L448, 213.53A8 8 0 0 1 458.11, 205.81L538.11, 227.63A8 8 0 0 1 544, 235.35zM265, 83.37L0, 162.88L0, 113.88A32 32 0 0 1 21.88, 83.51L257.65, 4.93A96 96 0 0 1 318.36, 4.93L554.12, 83.51A32 32 0 0 1 576, 113.87L576, 162.87L311, 83.37A80 80 0 0 0 265, 83.37z" fill="#727272" fill-opacity="1" class="Black" />
  </g>
</svg>