<?xml version='1.0' encoding='UTF-8'?>
<svg viewBox="-2 -4.7992 32 32" xmlns="http://www.w3.org/2000/svg">
  <g transform="matrix(0.9988, 0, 0, 0.9988, 0, 0)">
    <g transform="matrix(0.0438, 0, 0, 0.0438, 0, 0)">
      <defs>
        <style>.fa-secondary{opacity:.4}</style>
      </defs>
      <path d="M608, 128L512.68, 128C559.55, 151.75 592, 199.86 592, 256C592, 312.14 559.55, 360.25 512.68, 384L608, 384A32 32 0 0 0 640, 352L640, 160A32 32 0 0 0 608, 128zM304, 256C304, 199.86 336.45, 151.75 383.32, 128L241.93, 128A128.18 128.18 0 0 0 206.77, 132.92L23.21, 185.37A32 32 0 0 0 0, 216.14L0, 295.86A32 32 0 0 0 23.21, 326.63L206.77, 379.07A127.81 127.81 0 0 0 241.93, 384L383.32, 384C336.45, 360.25 304, 312.14 304, 256zM544, 256A96 96 0 1 0 448, 352A96 96 0 0 0 544, 256zM498.91, 284.28A8 8 0 0 1 498.91, 295.6L487.6, 306.91A8 8 0 0 1 476.28, 306.91L448, 278.63L419.71, 306.91A8 8 0 0 1 408.4, 306.91L397.09, 295.6A8 8 0 0 1 397.09, 284.28L425.38, 256L397.09, 227.71A8 8 0 0 1 397.09, 216.4L408.4, 205.09A8 8 0 0 1 419.71, 205.09L448, 233.37L476.28, 205.09A8 8 0 0 1 487.6, 205.09L498.91, 216.4A8 8 0 0 1 498.91, 227.71L470.63, 256z" fill="#727272" opacity="0.4" fill-opacity="1" class="Black" />
      <path d="M448, 112A144 144 0 1 0 592, 256A144 144 0 0 0 448, 112zM448, 352A96 96 0 1 1 544, 256A96 96 0 0 1 448, 352z" fill="#727272" fill-opacity="1" class="Black" />
    </g>
  </g>
</svg>