<?xml version='1.0' encoding='UTF-8'?>
<svg viewBox="-1.9949 -4.7981 31.995 32" xmlns="http://www.w3.org/2000/svg">
  <g transform="matrix(0.9989, 0, 0, 0.9989, 0, 0)">
    <g transform="matrix(0.0438, 0, 0, 0.0438, 0, 0)">
      <defs>
        <style>.fa-secondary{opacity:.4}</style>
      </defs>
      <path d="M416.54, 0L399.54, 0A8 8 0 0 0 392, 5.32L215.72, 501.32A8 8 0 0 0 223.27, 512L240.27, 512A8 8 0 0 0 247.81, 506.68L424.09, 10.68A8 8 0 0 0 416.54, 0z" fill="#727272" opacity="0.4" fill-opacity="1" class="Black" />
      <path d="M304, 96L253.38, 96A16 16 0 0 0 238.22, 106.89L160, 306.68L81.78, 106.89A16 16 0 0 0 66.62, 96L16, 96A16 16 0 0 0 0.85, 117.11L106.12, 394.31A32 32 0 0 0 136.42, 416L183.58, 416A32 32 0 0 0 213.88, 394.31L319.15, 117.11A16 16 0 0 0 304, 96zM639.15, 394.89L533.88, 117.69A32 32 0 0 0 503.58, 96L456.42, 96A32 32 0 0 0 426.12, 117.69L320.85, 394.89A16 16 0 0 0 336, 416L386.61, 416A16 16 0 0 0 401.77, 405.11L416.31, 368L543.69, 368L558.22, 405.11A16 16 0 0 0 573.38, 416L624, 416A16 16 0 0 0 639.15, 394.89zM447.63, 288L480, 205.32L512.37, 288z" fill="#727272" fill-opacity="1" class="Black" />
    </g>
  </g>
</svg>