<?xml version='1.0' encoding='UTF-8'?>
<svg viewBox="-1.9999 -1.9999 32 32" xmlns="http://www.w3.org/2000/svg">
  <g transform="matrix(0.0547, 0, 0, 0.0547, 0, 0)">
    <defs>
      <style>.fa-secondary{opacity:.4}</style>
    </defs>
    <path d="M303.06, 348.91L303.16, 349L279.16, 376A24 24 0 0 1 261.22, 384L224, 384L224, 424A24 24 0 0 1 200, 448L160, 448L160, 488A24 24 0 0 1 136, 512L24, 512A24 24 0 0 1 0, 488L0, 410A24 24 0 0 1 7, 393L168.83, 231.17L168.72, 230.82A176.24 176.24 0 0 0 303.06, 348.91z" fill="#727272" opacity="0.4" fill-opacity="1" class="Black" />
    <path d="M336, 0A176 176 0 1 0 512, 176A176 176 0 0 0 336, 0zM384, 176A48 48 0 1 1 432, 128A48 48 0 0 1 384, 176z" fill="#727272" fill-opacity="1" class="Black" />
  </g>
</svg>