<?xml version='1.0' encoding='UTF-8'?>
<svg viewBox="-1.9999 -1.9999 32 32" xmlns="http://www.w3.org/2000/svg">
  <g transform="matrix(0.0547, 0, 0, 0.0547, 0, 0)">
    <defs>
      <style>.fa-secondary{opacity:.4}</style>
    </defs>
    <path d="M368, 448L288, 448L288, 384L224, 384L224, 448L144, 448A16 16 0 0 0 128, 464L128, 496A16 16 0 0 0 144, 512L368, 512A16 16 0 0 0 384, 496L384, 464A16 16 0 0 0 368, 448zM206.68, 82.45A47.73 47.73 0 0 0 240, 96L304, 96A48 48 0 0 0 304, 0L240, 0A47.89 47.89 0 0 0 193.69, 36C137.77, 49.72 96, 99.91 96, 160L144, 160C144, 122.38 170.21, 90.94 206.68, 82.45z" fill="#727272" opacity="0.4" fill-opacity="1" class="Black" />
    <path d="M508.62, 281.24A32.07 32.07 0 0 1 512, 295.55L512, 320A32 32 0 0 1 480, 352L32, 352A32 32 0 0 1 0, 320L0, 295.55A32 32 0 0 1 3.38, 281.24L55.16, 177.69A32 32 0 0 1 83.78, 160L428.22, 160A32 32 0 0 1 456.84, 177.69z" fill="#727272" fill-opacity="1" class="Black" />
  </g>
</svg>