<?xml version='1.0' encoding='UTF-8'?>
<svg viewBox="-1.9949 -4.7939 32 32" xmlns="http://www.w3.org/2000/svg">
  <g transform="matrix(1.0014, 0, 0, 1.0014, 0, 0)">
    <g transform="matrix(0.0437, 0, 0, 0.0437, 0, 0)">
      <defs>
        <style>.fa-secondary{opacity:.4}</style>
      </defs>
      <path d="M402.73, 199.72L366.84, 217.72A55.81 55.81 0 0 0 335.84, 267.81L335.84, 496.02A16 16 0 0 0 351.84, 512.02L367.84, 512.02A16 16 0 0 0 383.84, 496.02L383.84, 267.77A8 8 0 0 1 388.31, 260.61L412.18, 248.67L414.31, 241.28C419.23, 224.34 411.26, 209.72 402.73, 199.72zM303.87, 267.72A55.74 55.74 0 0 0 272.87, 217.63L237.03, 199.71C228.46, 209.83 220.48, 224.71 225.37, 241.97L227.19, 248.46L251.4, 260.57A8 8 0 0 1 255.84, 267.73L255.84, 496A16 16 0 0 0 271.84, 512L287.84, 512A16 16 0 0 0 303.84, 496L303.84, 448z" fill="#727272" opacity="0.4" fill-opacity="1" class="Black" />
      <path d="M639.9, 224C637.81, 150 604.09, 77.84 543.9, 24.3A96 96 0 1 0 416.21, 167.72C465.81, 211.84 442.7, 258.87 441.97, 261.43C424.49, 322 469.62, 384 534.29, 384A96.07 96.07 0 0 0 626.55, 314.54C632.09, 295.27 641.09, 266.46 639.9, 224zM96, 24.38C36.08, 77.85 2.39, 150 0.13, 224C-1.15, 266 7.6, 294.91 13, 314.06A96 96 0 0 0 105.37, 384C169.68, 384 215.02, 322.53 197.84, 261.89C196.84, 258.19 174.76, 211.46 223.91, 167.62A96 96 0 1 0 96, 24.38z" fill="#727272" fill-opacity="1" class="Black" />
    </g>
  </g>
</svg>