<?xml version='1.0' encoding='UTF-8'?>
<svg viewBox="-1.9999 -1.549 31.9975 32" xmlns="http://www.w3.org/2000/svg">
  <g transform="matrix(0.999, 0, 0, 0.999, 0, 0)">
    <g transform="matrix(0.0565, 0, 0, 0.0565, 0, 0)">
      <defs>
        <style>.fa-secondary{opacity:.4}</style>
      </defs>
      <path d="M248, 8C111, 8 0, 119 0, 256C0, 393 111, 504 248, 504C385, 504 496, 393 496, 256C496, 119 385, 8 248, 8zM168, 240A32 32 0 1 1 200, 208A32 32 0 0 1 168, 240zM304, 396C304, 415.2 275.3, 437.5 232.5, 440C224, 440.8 220.4, 428.2 228.9, 424.6L245.9, 417.4C258.9, 411.9 266.7, 403.9 266.7, 395.9C266.7, 387.9 258.9, 379.9 245.9, 374.4L228.9, 367.2C222.9, 364.7 222.8, 355 228.9, 352.4L245.9, 345.2C258.9, 339.7 266.7, 331.7 266.7, 323.7C266.7, 315.7 258.9, 307.7 245.9, 302.2L228.9, 295C220.3, 291.4 224.1, 278.5 232.5, 279.6C275.3, 282.1 304, 304.4 304, 323.6C304, 336.6 290.6, 350.9 268.8, 359.6C290.6, 368.7 304, 383 304, 396zM328, 240A32 32 0 1 1 360, 208A32 32 0 0 1 328, 240z" fill="#727272" opacity="0.4" fill-opacity="1" class="Black" />
      <path d="M328, 176A32 32 0 1 0 360, 208A32 32 0 0 0 328, 176zM168, 176A32 32 0 1 0 200, 208A32 32 0 0 0 168, 176z" fill="#727272" fill-opacity="1" class="Black" />
    </g>
  </g>
</svg>