<?xml version='1.0' encoding='UTF-8'?>
<svg viewBox="-1.9999 -4.8004 32 32" xmlns="http://www.w3.org/2000/svg">
  <g transform="matrix(1.0011, 0, 0, 1.0011, 0, 0)">
    <g transform="matrix(0.0437, 0, 0, 0.0437, 0, 0)">
      <defs>
        <style>.fa-secondary{opacity:.4}</style>
      </defs>
      <path d="M72, 251L96, 266.87L120, 251L120, 224A88 88 0 0 0 32, 136L16, 136A16 16 0 0 0 0, 152L0, 168A16 16 0 0 0 16, 184L32, 184A40 40 0 0 1 72, 224zM630.63, 9.37L475.1, 164.9L628.92, 318.72A32 32 0 0 0 640, 294.5L640, 32A31.9 31.9 0 0 0 630.63, 9.37zM321.27, 11.11A32 32 0 0 0 314.27, 24.8L234.18, 371.89L146.64, 459.43A15.6 15.6 0 0 1 120.01, 448.43L120.01, 325L96, 309.16L72, 325L72, 443.31C72, 459.86 77, 476.31 87.7, 489.02C114.18, 520.55 156.7, 517.28 180.57, 493.36L268.12, 405.81L261.42, 407.36A24 24 0 0 1 239.06, 400.94L475, 165z" fill="#727272" opacity="0.4" fill-opacity="1" class="Black" />
      <path d="M154.69, 228L96, 266.84L37.31, 228C21.31, 217.45 0, 228.79 0, 247.8L0, 328.12C0, 347.12 21.36, 358.47 37.31, 347.92L96, 309.16L154.69, 348C170.64, 358.55 192, 347.21 192, 328.2L192, 247.84C192, 228.83 170.64, 217.49 154.69, 228zM630.63, 9.37A31.9 31.9 0 0 0 608, 0L345.5, 0A32.08 32.08 0 0 0 321.27, 11.11L475, 165L239.06, 400.94A24 24 0 0 0 261.42, 407.36L615.2, 325.7A31.76 31.76 0 0 0 628.92, 318.7L475.1, 164.9z" fill="#727272" fill-opacity="1" class="Black" />
    </g>
  </g>
</svg>