<?xml version='1.0' encoding='UTF-8'?>
<svg viewBox="-2 0 32 32" xmlns="http://www.w3.org/2000/svg">
  <g transform="matrix(0.0625, 0, 0, 0.0625, 0, 0)">
    <defs>
      <style>.fa-secondary{opacity:.4}</style>
    </defs>
    <path d="M194.62, 243.73L99.62, 465.45A24 24 0 0 1 77.54, 480L25.31, 480A24 24 0 0 1 3.25, 446.55L136.13, 136.49z" fill="#727272" opacity="0.4" fill-opacity="1" class="Black" />
    <path d="M448, 408L448, 456A24 24 0 0 1 424, 480L342.5, 480A32 32 0 0 1 314.4, 463.32L131.5, 128L24, 128A24 24 0 0 1 0, 104L0, 56A24 24 0 0 1 24, 32L169.5, 32A32 32 0 0 1 197.6, 48.68L380.5, 384L424, 384A24 24 0 0 1 448, 408z" fill="#727272" fill-opacity="1" class="Black" />
  </g>
</svg>