<?xml version='1.0' encoding='UTF-8'?>
<svg viewBox="-2 -2 32 32" xmlns="http://www.w3.org/2000/svg">
  <g transform="matrix(0.0547, 0, 0, 0.0547, 0, 0)">
    <defs>
      <style>.fa-secondary{opacity:.4}</style>
    </defs>
    <path d="M0, 496L0, 464A16 16 0 0 1 16, 448L32, 448L32, 432A16 16 0 0 1 48, 416L64, 416L64, 288L128, 288L128, 416L224, 416L224, 288L288, 288L288, 416L384, 416L384, 288L448, 288L448, 416L464, 416A16 16 0 0 1 480, 432L480, 448L496, 448A16 16 0 0 1 512, 464L512, 496A16 16 0 0 1 496, 512L16, 512A16 16 0 0 1 0, 496z" fill="#727272" opacity="0.4" fill-opacity="1" class="Black" />
    <path d="M288, 16L288, 34.9A191.88 191.88 0 0 1 445.1, 192L464, 192A16 16 0 0 1 480, 208L480, 240A16 16 0 0 1 464, 256L48, 256A16 16 0 0 1 32, 240L32, 208A16 16 0 0 1 48, 192L66.9, 192A191.88 191.88 0 0 1 224, 34.9L224, 16A16 16 0 0 1 240, 0L272, 0A16 16 0 0 1 288, 16z" fill="#727272" fill-opacity="1" class="Black" />
  </g>
</svg>