<?xml version='1.0' encoding='UTF-8'?>
<svg viewBox="-2 -4.7992 32 32" xmlns="http://www.w3.org/2000/svg">
  <g transform="matrix(0.9988, 0, 0, 0.9988, 0, 0)">
    <g transform="matrix(0.0438, 0, 0, 0.0438, 0, 0)">
      <defs>
        <style>.fa-secondary{opacity:.4}</style>
      </defs>
      <path d="M528, 0L112, 0A48.14 48.14 0 0 0 64, 48L64, 384L576, 384L576, 48A48.14 48.14 0 0 0 528, 0zM512, 320L128, 320L128, 64L512, 64z" fill="#727272" opacity="0.4" fill-opacity="1" class="Black" />
      <path d="M624, 416L381.54, 416C380.8, 435.81 366.83, 448 348.8, 448L288, 448C269.31, 448 255, 430.53 255.23, 416L16, 416A16 16 0 0 0 0, 432L0, 448A64.19 64.19 0 0 0 64, 512L576, 512A64.19 64.19 0 0 0 640, 448L640, 432A16 16 0 0 0 624, 416zM512, 64L128, 64L128, 320L512, 320zM289, 250.34L277.69, 261.65A16 16 0 0 1 255.06, 261.65L196.71, 203.31A16 16 0 0 1 196.71, 180.68L255, 122.34A16 16 0 0 1 277.63, 122.34L289, 133.65A16 16 0 0 1 289, 156.28L253.25, 192L289, 227.71A16 16 0 0 1 289, 250.34zM443.35, 203.34L385, 261.66A16 16 0 0 1 362.37, 261.66L351, 250.35A16 16 0 0 1 351, 227.72L386.75, 192L351, 156.29A16 16 0 0 1 351, 133.66L362.31, 122.35A16 16 0 0 1 384.94, 122.35L443.28, 180.69A16 16 0 0 1 443.32, 203.32z" fill="#727272" fill-opacity="1" class="Black" />
    </g>
  </g>
</svg>