<?xml version='1.0' encoding='UTF-8'?>
<svg viewBox="-1.9999 -1.549 31.9975 32" xmlns="http://www.w3.org/2000/svg">
  <g transform="matrix(0.999, 0, 0, 0.999, 0, 0)">
    <g transform="matrix(0.0565, 0, 0, 0.0565, 0, 0)">
      <defs>
        <style>.fa-secondary{opacity:.4}</style>
      </defs>
      <path d="M248, 8C111, 8 0, 119 0, 256C0, 393 111, 504 248, 504C385, 504 496, 393 496, 256C496, 119 385, 8 248, 8zM328, 160A32 32 0 1 1 296, 192A32 32 0 0 1 328, 160zM168, 160A32 32 0 1 1 136, 192A32 32 0 0 1 168, 160zM398.9, 306A144.12 144.12 0 0 1 256, 432L240, 432A144.12 144.12 0 0 1 97.1, 306A16.06 16.06 0 0 1 111.1, 288.12A15 15 0 0 1 113, 288L383, 288A16 16 0 0 1 399, 304A16.64 16.64 0 0 1 398.9, 306z" fill="#727272" opacity="0.4" fill-opacity="1" class="Black" />
      <path d="M328, 160A32 32 0 1 0 360, 192A32 32 0 0 0 328, 160zM168, 160A32 32 0 1 0 200, 192A32 32 0 0 0 168, 160z" fill="#727272" fill-opacity="1" class="Black" />
    </g>
  </g>
</svg>