<?xml version='1.0' encoding='UTF-8'?>
<svg viewBox="-1.9999 -1.549 31.9975 32" xmlns="http://www.w3.org/2000/svg">
  <g transform="matrix(0.999, 0, 0, 0.999, 0, 0)">
    <g transform="matrix(0.0565, 0, 0, 0.0565, 0, 0)">
      <defs>
        <style>.fa-secondary{opacity:.4}</style>
      </defs>
      <path d="M248, 8C111, 8 0, 119 0, 256C0, 393 111, 504 248, 504C385, 504 496, 393 496, 256C496, 119 385, 8 248, 8zM268.1, 206.1C272.1, 180.9 302.3, 164 328, 164C353.7, 164 383.9, 180.9 387.9, 206.1C389.6, 217.2 376.5, 224.4 368.1, 216.9L358.6, 208.4C343.8, 195.2 312.4, 195.2 297.6, 208.4L288, 217A12.08 12.08 0 0 1 268.1, 206.1zM168, 160A32 32 0 1 1 136, 192A32 32 0 0 1 168, 160zM398.9, 306A144.12 144.12 0 0 1 256, 432L240, 432A144.12 144.12 0 0 1 97.1, 306A16.06 16.06 0 0 1 111.1, 288.12A15 15 0 0 1 113, 288L383, 288A16 16 0 0 1 399, 304A16.64 16.64 0 0 1 398.9, 306z" fill="#727272" opacity="0.4" fill-opacity="1" class="Black" />
      <path d="M387.9, 206.1C383.9, 180.9 353.7, 164 328, 164C302.3, 164 272.1, 180.9 268.1, 206.1A12.08 12.08 0 0 0 288, 217L297.6, 208.4C312.4, 195.2 343.8, 195.2 358.6, 208.4L368.1, 216.9C376.5, 224.4 389.6, 217.2 387.9, 206.1zM168, 160A32 32 0 1 0 200, 192A32 32 0 0 0 168, 160z" fill="#727272" fill-opacity="1" class="Black" />
    </g>
  </g>
</svg>