<?xml version='1.0' encoding='UTF-8'?>
<svg viewBox="-1.9973 -2.0011 31.995 32" xmlns="http://www.w3.org/2000/svg">
  <g transform="matrix(0.0547, 0, 0, 0.0547, 0, 0)">
    <defs>
      <style>.fa-secondary{opacity:.4}</style>
    </defs>
    <path d="M12.41, 236.3L245.41, 130.72A25.68 25.68 0 0 1 266.7, 130.72L499.59, 236.3C516.14, 243.8 516.14, 268.8 499.59, 276.3L266.64, 381.89A25.68 25.68 0 0 1 245.35, 381.89L12.41, 276.3C-4.14, 268.8 -4.14, 243.8 12.41, 236.3z" fill="#727272" opacity="0.4" fill-opacity="1" class="Black" />
    <path d="M499.59, 364.1L441.5, 337.77L279.87, 411A57.64 57.64 0 0 1 232.15, 411L70.51, 337.77L12.41, 364.1C-4.14, 371.6 -4.14, 396.6 12.41, 404.1L245.35, 509.69A25.68 25.68 0 0 0 266.64, 509.69L499.64, 404.1C516.14, 396.6 516.14, 371.6 499.59, 364.1zM304, 64L496, 64A16 16 0 0 0 512, 48L512, 16A16 16 0 0 0 496, 0L304, 0A16 16 0 0 0 288, 16L288, 48A16 16 0 0 0 304, 64z" fill="#727272" fill-opacity="1" class="Black" />
  </g>
</svg>