<?xml version='1.0' encoding='UTF-8'?>
<svg viewBox="-1.9975 -1.9988 31.9975 32" xmlns="http://www.w3.org/2000/svg">
  <g transform="matrix(0.0547, 0, 0, 0.0547, 0, 0)">
    <defs>
      <style>.fa-secondary{opacity:.4}</style>
    </defs>
    <path d="M12.41, 236.31L70.51, 210L232.14, 283.27A57.64 57.64 0 0 0 279.86, 283.27L441.5, 210L499.59, 236.33C516.14, 243.83 516.14, 268.83 499.59, 276.33L266.64, 381.9A25.68 25.68 0 0 1 245.35, 381.9L12.41, 276.31C-4.14, 268.81 -4.14, 243.81 12.41, 236.31z" fill="#727272" opacity="0.4" fill-opacity="1" class="Black" />
    <path d="M12.41, 148L245.35, 253.7A25.61 25.61 0 0 0 266.64, 253.7L499.58, 148C516.13, 140.49 516.13, 115.48 499.58, 108L266.65, 2.32A25.61 25.61 0 0 0 245.36, 2.32L12.41, 108C-4.14, 115.5 -4.14, 140.52 12.41, 148zM499.59, 364.11L441.72, 337.88L279.86, 411.25A57.64 57.64 0 0 1 232.14, 411.25L70.29, 337.88L12.41, 364.11C-4.14, 371.61 -4.14, 396.61 12.41, 404.11L245.35, 509.7A25.68 25.68 0 0 0 266.64, 509.7L499.64, 404.11C516.14, 396.61 516.14, 371.61 499.59, 364.11z" fill="#727272" fill-opacity="1" class="Black" />
  </g>
</svg>