<?xml version='1.0' encoding='UTF-8'?>
<svg viewBox="-1.9963 -2 32 32" xmlns="http://www.w3.org/2000/svg">
  <g transform="matrix(0.0547, 0, 0, 0.0547, 0, 0)">
    <defs>
      <style>.fa-secondary{opacity:.4}</style>
    </defs>
    <path d="M504, 195.56L363.17, 285.15L428, 268.57A17.33 17.33 0 0 1 448.57, 289.69L434.77, 315.41L486.08, 360.71A17.34 17.34 0 0 1 486.08, 387.78L434.77, 433.08L448.57, 458.8A17.33 17.33 0 0 1 428, 479.92L267.81, 446.92L251.94, 484C245.94, 498 226.08, 498 220.06, 484L170.92, 376L312.78, 234.09A24.65 24.65 0 1 0 277.92, 199.22L136.06, 341.1L28, 291.94C14, 285.94 14, 266.07 28, 260.07L65.08, 244.18L32.08, 84A17.34 17.34 0 0 1 53.21, 63.41L78.94, 77.22L124.24, 25.89A17.33 17.33 0 0 1 151.3, 25.89L196.6, 77.22L222.33, 63.4A17.33 17.33 0 0 1 243.45, 84L226.87, 148.84L316.46, 8A17.35 17.35 0 0 1 345.96, 8.39L368.29, 45.62L457.06, 35.76A17.34 17.34 0 0 1 476.21, 54.9L466.34, 143.68L503.58, 166.02A17.35 17.35 0 0 1 504, 195.56z" fill="#727272" opacity="0.4" fill-opacity="1" class="Black" />
    <path d="M24.67, 512A24.61 24.61 0 0 1 7.24, 470L277.92, 199.22A24.65 24.65 0 1 1 312.78, 234.09L42.1, 504.82A24.51 24.51 0 0 1 24.67, 512z" fill="#727272" fill-opacity="1" class="Black" />
  </g>
</svg>