<?xml version='1.0' encoding='UTF-8'?>
<svg viewBox="-2 -3.554 32 32" xmlns="http://www.w3.org/2000/svg">
  <g transform="matrix(0.0486, 0, 0, 0.0486, 0, 0)">
    <defs>
      <style>.fa-secondary{opacity:.4}</style>
    </defs>
    <path d="M546.2, 9.72C540.6, -2.78 524.59, -3.28 517.89, 8.52C486.89, 62.42 431.38, 96 368, 96L287.75, 96C181.86, 96 96, 181.83 96, 287.72A192.06 192.06 0 0 0 101.78, 334.59Q93.62, 342.69 85.78, 351.32C29.17, 413.42 3, 475.15 1.93, 477.75A24.73 24.73 0 0 0 15, 510.05A24.41 24.41 0 0 0 47.11, 496.94C47.35, 496.37 71.44, 439.94 122.16, 384.39A191.66 191.66 0 0 0 287.79, 479.46L288, 479.46L288, 480A199 199 0 0 0 308.45, 478.88C465.49, 467.48 576, 326.69 576, 154.31C576, 104.11 565.2, 52.12 546.2, 9.72zM430.55, 294.42L345.85, 380A13.94 13.94 0 0 1 326.05, 380L241.35, 294.4A60.65 60.65 0 0 1 245.65, 205.3C269.65, 185.3 305.25, 188.9 327.25, 211.1L335.85, 219.8L344.45, 211.1C366.45, 188.9 402.15, 185.3 426.05, 205.3A60.58 60.58 0 0 1 430.55, 294.42z" fill="#727272" opacity="0.4" fill-opacity="1" class="Black" />
    <path d="M245.65, 205.32C269.65, 185.32 305.25, 188.92 327.25, 211.12L335.85, 219.82L344.45, 211.12C366.45, 188.92 402.15, 185.32 426.05, 205.32A60.58 60.58 0 0 1 430.55, 294.42L345.85, 380A13.94 13.94 0 0 1 326.05, 380L241.35, 294.4A60.65 60.65 0 0 1 245.65, 205.32z" fill="#727272" fill-opacity="1" class="Black" />
  </g>
</svg>