<?xml version='1.0' encoding='UTF-8'?>
<svg viewBox="-1.9975 -3.5517 32 31.9975" xmlns="http://www.w3.org/2000/svg">
  <g transform="matrix(0.0486, 0, 0, 0.0486, 0, 0)">
    <defs>
      <style>.fa-secondary{opacity:.4}</style>
    </defs>
    <path d="M576, 154.31C576, 326.69 465.49, 467.48 308.47, 478.88A199 199 0 0 1 288, 480L288, 479.45L287.75, 479.45A191.66 191.66 0 0 1 122.12, 384.38L122.89, 383.53C152.47, 351.3 185.17, 325.69 220.07, 307.41A297.55 297.55 0 0 1 359.47, 273.36A24.69 24.69 0 0 0 359.47, 223.99A345.79 345.79 0 0 0 196.53, 264.09C162.76, 281.9 130.97, 305.57 101.76, 334.58A192.06 192.06 0 0 1 96, 287.72C96, 181.83 181.86, 96 287.77, 96L368, 96C431.4, 96 486.91, 62.41 517.91, 8.51C524.61, -3.29 540.62, -2.79 546.22, 9.71C565.2, 52.12 576, 104.11 576, 154.31z" fill="#727272" opacity="0.4" fill-opacity="1" class="Black" />
    <path d="M24.5, 512A24.32 24.32 0 0 1 15, 510.05A24.73 24.73 0 0 1 2, 477.75C3.08, 475.15 29.24, 413.42 85.81, 351.32C119.28, 314.57 156.56, 285.23 196.62, 264.1A345.79 345.79 0 0 1 359.49, 224A24.69 24.69 0 0 1 359.49, 273.37A297.55 297.55 0 0 0 220.09, 307.42C185.19, 325.7 152.49, 351.31 122.91, 383.54C71.66, 439.39 47.33, 496.37 47.09, 496.94A24.54 24.54 0 0 1 24.5, 512z" fill="#727272" fill-opacity="1" class="Black" />
  </g>
</svg>