<?xml version='1.0' encoding='UTF-8'?>
<svg viewBox="-2.9352 -1.0695 32 31.9975" xmlns="http://www.w3.org/2000/svg">
  <g transform="matrix(0.0583, 0, 0, 0.0583, 0, 0)">
    <defs>
      <style>.fa-secondary{opacity:.4}</style>
    </defs>
    <path d="M24, 400L424, 400A24 24 0 0 1 448, 424L448, 472A24 24 0 0 1 424, 496L24, 496A24 24 0 0 1 0, 472L0, 424A24 24 0 0 1 24, 400z" fill="#727272" opacity="0.4" fill-opacity="1" class="Black" />
    <path d="M392.77, 107.69L217.21, 175.78L392.65, 243.83C411.04, 249.83 420.54, 268.22 413.86, 284.83L401.77, 314.91C395.1, 331.52 374.77, 340.09 356.39, 334.06L55, 214.19C41.21, 209.67 32, 197.58 32, 184L32, 168C32, 154.43 41.21, 142.34 55, 137.82L356.71, 17.82C375, 11.82 395.22, 20.35 401.86, 36.88L413.86, 66.8C420.51, 83.42 411.06, 101.69 392.77, 107.69z" fill="#727272" fill-opacity="1" class="Black" />
  </g>
</svg>