<?xml version='1.0' encoding='UTF-8'?>
<svg viewBox="-6.3718 -1.9975 31.9975 32" xmlns="http://www.w3.org/2000/svg">
  <g transform="matrix(0.0547, 0, 0, 0.0547, 0, 0)">
    <defs>
      <style>.fa-secondary{opacity:.4}</style>
    </defs>
    <path d="M68, 432L152, 432L152, 139.31L192, 96.08L232, 139.29L232, 488A24 24 0 0 1 208, 512L12, 512A12 12 0 0 1 3.52, 491.52L59.52, 435.52A12 12 0 0 1 68, 432z" fill="#727272" opacity="0.4" fill-opacity="1" class="Black" />
    <path d="M345, 178.76L323, 200.93A23.93 23.93 0 0 1 289.17, 201.06L289.05, 200.93C288.84, 200.72 288.63, 200.5 288.43, 200.28L192, 96.08L95.53, 200.29C95.33, 200.51 95.12, 200.73 94.91, 200.94A23.93 23.93 0 0 1 61.08, 201.07A0.53 0.53 0 0 0 60.95, 200.94L39, 178.76A24.22 24.22 0 0 1 39, 144.76L174.91, 7.13A0.93 0.93 0 0 0 175.05, 6.99A24.1 24.1 0 0 1 209, 7L209.14, 7.14L345, 144.72A24.22 24.22 0 0 1 345, 178.72z" fill="#727272" fill-opacity="1" class="Black" />
  </g>
</svg>