<?xml version='1.0' encoding='UTF-8'?>
<svg viewBox="-1.547 -1.547 32 32" xmlns="http://www.w3.org/2000/svg">
  <g transform="matrix(1.0008, 0, 0, 1.0008, 0, 0)">
    <g transform="matrix(0.0564, 0, 0, 0.0564, 0, 0)">
      <defs>
        <style>.fa-secondary{opacity:.4}</style>
      </defs>
      <path d="M292.08, 167L291.67, 166.83zM225.46, 165A96.5 96.5 0 0 1 286.54, 165L398.54, 53A248 248 0 0 0 113.54, 53zM294.13, 167.92L294.65, 168.14zM296.62, 169.04L297.08, 169.25zM186.25, 322L186.06, 321.79zM180.74, 315.64L180.95, 315.9zM182.39, 317.64C182.51, 317.78 182.62, 317.92 182.74, 318.05C182.62, 317.9 182.51, 317.76 182.39, 317.62zM184.13, 319.64L184.49, 320.04zM319.64, 184.13L320.04, 184.49zM177.51, 311.29L177.41, 311.14zM304.18, 173L304.52, 173.19zM315.6, 180.78L315.86, 180.99zM321.96, 186.29L321.75, 186.1zM318, 182.74L317.58, 182.39zM306.4, 174.31L306.87, 174.6zM311.08, 177.4L311.25, 177.52zM309.08, 176.05L308.65, 175.76zM299.37, 170.37L299.27, 170.32zM175.76, 203.28C175.86, 203.14 175.95, 203 176.04, 202.86C176, 203 175.86, 203.14 175.76, 203.28zM174.31, 205.56L174.6, 205.1zM173, 207.81L173.19, 207.49zM170.4, 212.58zM180.78, 196.4L180.99, 196.14zM182.78, 193.97C182.66, 194.1 182.55, 194.24 182.43, 194.38C182.51, 194.24 182.62, 194.1 182.74, 194zM177.45, 200.86L177.55, 200.71zM169.25, 214.93C169.18, 215.07 169.12, 215.22 169.05, 215.36C169.08, 215.22 169.14, 215.07 169.21, 214.93zM174.64, 306.93L174.35, 306.47zM170.37, 299.4L170.37, 299.45zM173.19, 304.54L173, 304.22zM175.8, 308.75C175.9, 308.89 175.99, 309.03 176.08, 309.17C176, 309 175.86, 308.86 175.76, 308.72zM169, 296.64C169.07, 296.78 169.13, 296.93 169.2, 297.07C169.14, 296.93 169.08, 296.78 169, 296.64zM167, 219.94C167, 220.07 166.9, 220.19 166.84, 220.32C166.91, 220.19 167, 220.07 167, 219.94zM168.09, 217.36C168.02, 217.53 167.94, 217.7 167.87, 217.86C168, 217.7 168, 217.53 168.1, 217.36zM167.87, 294.14C167.94, 294.3 168.02, 294.47 168.09, 294.64C168, 294.47 168, 294.3 167.88, 294.14zM166.87, 291.68C166.93, 291.81 166.98, 291.93 167.03, 292.06C167, 291.93 166.91, 291.81 166.85, 291.68zM338.87, 207.49L339.06, 207.81zM327.51, 320L327.87, 319.6zM325.94, 321.71L325.75, 321.92zM325.75, 190L325.94, 190.21zM329.26, 318C329.38, 317.87 329.49, 317.73 329.61, 317.59C329.49, 317.76 329.38, 317.9 329.26, 318zM331.26, 196.37L331.05, 196.11zM331.26, 315.57L331.05, 315.83zM329.61, 194.35C329.49, 194.21 329.38, 194.07 329.26, 193.94C329.38, 194.1 329.49, 194.24 329.61, 194.38zM327.87, 192.35L327.51, 191.95zM334.49, 200.7L334.59, 200.85zM334.59, 311.13L334.49, 311.28zM398.49, 53Q400.49, 54.41 402.49, 55.85Q400.49, 54.42 398.49, 53zM343.9, 294.64C343.97, 294.47 344.05, 294.3 344.12, 294.14C344.05, 294.3 344, 294.47 343.9, 294.64zM344.99, 292.06C345.04, 291.93 345.09, 291.81 345.15, 291.68C345.09, 291.81 345, 291.93 345, 292.06zM341.64, 299.42L341.64, 299.37zM336.24, 308.72L335.96, 309.14zM337.69, 306.44L337.4, 306.9zM339.04, 304.19L338.85, 304.51zM342.79, 297.07C342.86, 296.93 342.92, 296.78 342.99, 296.64C342.92, 296.78 342.86, 296.93 342.79, 297.07zM449, 100.21Q447.59, 98.46 446.15, 96.75Q447.54, 98.46 449, 100.21zM445.49, 96C444.49, 94.82 443.49, 93.65 442.49, 92.49C443.49, 93.68 444.5, 94.85 445.49, 96zM452.36, 104.5Q451, 102.76 449.6, 101Q451, 102.76 452.36, 104.53zM455.72, 108.94C454.81, 107.71 453.89, 106.5 452.97, 105.29C453.89, 106.53 454.81, 107.74 455.72, 109zM336.24, 203.28L335.96, 202.86zM403, 56.28Q404.85, 57.64 406.66, 59.04Q404.88, 57.65 403, 56.28zM415.23, 65.9Q413.51, 64.46 411.76, 63.05Q413.53, 64.46 415.26, 65.9zM411, 62.4Q409.26, 61 407.49, 59.63Q409.24, 61 411, 62.4zM419.5, 69.53Q417.76, 68 415.99, 66.53Q417.74, 68 419.48, 69.53zM344.12, 217.86C344.05, 217.7 343.97, 217.53 343.9, 217.36C344, 217.53 344.05, 217.7 344.12, 217.86zM184.49, 192L184.13, 192.4zM343, 215.36C342.93, 215.22 342.87, 215.07 342.8, 214.93C342.86, 215.07 342.92, 215.22 343, 215.36zM456.16, 109.56C457.16, 110.87 458.06, 112.18 459, 113.5C458.05, 112.18 457.11, 110.87 456.15, 109.56zM337.4, 205.1L337.69, 205.56zM419.93, 69.92A248.82 248.82 0 0 1 442.07, 92.07A250.17 250.17 0 0 0 419.93, 69.92zM345.15, 220.32A6.15 6.15 0 0 1 344.99, 219.94C345, 220.07 345.09, 220.19 345.15, 220.32zM459, 398.49A248 248 0 0 0 459, 113.49L347, 225.46A96.5 96.5 0 0 1 347, 286.54zM341.67, 212.63zM220.33, 345.15L219.92, 344.98zM217.87, 344.15L217.35, 343.93zM212.57, 341.66L212.67, 341.71zM322, 325.75L321.79, 325.94zM309.14, 336L308.71, 336.29zM311.14, 334.65L311.31, 334.53zM315.62, 331.31L315.88, 331.1zM319.62, 327.92L320.02, 327.56zM318.02, 329.31L317.6, 329.66zM215.38, 343L214.92, 342.79zM196.38, 331.26L196.12, 331.05zM192.38, 327.87L191.98, 327.51zM186.08, 190.25L186.27, 190.04zM190.08, 325.75L190.29, 325.94zM205.6, 337.69L205.13, 337.4zM207.86, 339.04L207.52, 338.85zM286.58, 347.04A96.5 96.5 0 0 1 225.5, 347.04L113.51, 459A248 248 0 0 0 398.51, 459zM202.86, 336L203.29, 336.29zM200.86, 334.65L200.69, 334.53zM416, 445.49Q417.77, 444 419.51, 442.49Q417.74, 444 416, 445.49zM459, 398.49C458.07, 399.82 457.12, 401.13 456.16, 402.44C457.11, 401.13 458.06, 399.82 459, 398.49zM411.79, 449Q413.53, 447.59 415.26, 446.15Q413.54, 447.54 411.79, 449zM407.47, 452.42Q409.24, 451.04 410.98, 449.65Q409.24, 451 407.47, 452.37zM455.72, 403Q454.35, 404.85 452.96, 406.66Q454.36, 404.88 455.72, 403zM445.49, 416C444.49, 417.18 443.49, 418.35 442.49, 419.51C443.49, 418.32 444.5, 417.15 445.49, 416zM448.95, 411.82Q447.54, 413.56 446.1, 415.29Q447.54, 413.54 449, 411.79zM449.6, 411.01Q450.99, 409.27 452.37, 407.5Q451, 409.24 449.6, 411zM299.43, 341.63A0.31 0.31 0 0 1 299.33, 341.68A0.31 0.31 0 0 0 299.43, 341.63zM294.13, 344.12L294.65, 343.9zM306.44, 337.69L306.91, 337.4zM296.62, 343L297.08, 342.79zM304.18, 339L304.52, 338.81zM442.08, 419.89A248.94 248.94 0 0 1 419.93, 442.04A248.94 248.94 0 0 0 442.08, 419.93zM402.45, 456.1Q400.45, 457.54 398.45, 458.95Q400.49, 457.58 402.45, 456.14zM292.08, 345L291.67, 345.17zM403, 455.72Q404.85, 454.35 406.66, 452.96Q404.88, 454.36 403, 455.72zM194, 329.26L194.42, 329.61zM69.93, 92.07A248.82 248.82 0 0 1 92.07, 69.92A250.17 250.17 0 0 0 69.93, 92.07zM100.21, 63.07Q98.47, 64.48 96.74, 65.92Q98.47, 64.46 100.21, 63.05zM190.21, 186.07L190, 186.26zM194.34, 182.4L193.92, 182.75zM109.55, 55.86Q111.55, 54.42 113.55, 53.01Q111.52, 54.42 109.55, 55.86zM196.14, 181L196.4, 180.79zM104.53, 59.63Q102.76, 61 101, 62.4Q102.76, 61 104.53, 59.63zM105.31, 59.04Q107.12, 57.64 108.97, 56.28Q107.13, 57.65 105.31, 59zM192.36, 184.13L191.96, 184.49zM214.92, 169.21L215.38, 169zM212.67, 170.32L212.57, 170.37zM217.35, 168.1L217.87, 167.88zM219.92, 167.02L220.33, 166.85zM202.86, 176.02L203.29, 175.73zM207.86, 172.93L207.52, 173.12zM200.75, 177.49L200.92, 177.37zM205.13, 174.57L205.6, 174.28zM96.74, 446.1Q98.47, 447.54 100.21, 448.95Q98.47, 447.54 96.74, 446.1zM63.05, 411.79Q64.46, 413.53 65.9, 415.26Q64.46, 413.54 63.05, 411.79zM66.51, 416C67.51, 417.18 68.51, 418.35 69.51, 419.51C68.51, 418.32 67.5, 417.15 66.51, 416zM56.28, 403Q57.64, 404.85 59.04, 406.66Q57.65, 404.88 56.28, 403zM59.63, 407.44Q61, 409.24 62.4, 411Q61, 409.24 59.63, 407.47zM92.52, 442.44Q94.26, 443.97 96.03, 445.44Q94.26, 444 92.52, 442.47zM105.31, 453Q107.12, 454.4 108.97, 455.76Q107.13, 454.36 105.31, 453zM113.51, 459Q111.51, 457.59 109.51, 456.15Q111.52, 457.58 113.51, 459zM101, 449.6Q102.74, 450.99 104.51, 452.37Q102.76, 451 101, 449.6zM55.85, 402.44C54.85, 401.13 53.95, 399.82 53.01, 398.49C54, 399.82 54.89, 401.13 55.85, 402.44zM65.9, 96.75Q64.46, 98.46 63.05, 100.21Q64.46, 98.46 65.9, 96.75zM56.29, 109C57.19, 107.77 58.11, 106.55 59.03, 105.35C58.11, 106.52 57.19, 107.74 56.29, 109zM62.4, 101Q61, 102.74 59.64, 104.51Q61, 102.76 62.4, 101zM69.52, 92.5C68.52, 93.66 67.52, 94.83 66.52, 96.01C67.5, 94.85 68.51, 93.68 69.52, 92.52zM92.52, 69.5Q94.26, 67.97 96.03, 66.5Q94.26, 68 92.52, 69.53zM92.07, 442.05A248.94 248.94 0 0 1 69.92, 419.9A248.94 248.94 0 0 0 92.07, 442.08zM165, 286.54A96.5 96.5 0 0 1 165, 225.46L53, 113.51A248 248 0 0 0 53, 398.51zM55.89, 109.54Q54.45, 111.54 53.05, 113.47Q54.41, 111.52 55.85, 109.57z" fill="#727272" opacity="0.4" fill-opacity="1" class="Black" />
      <path d="M347, 225.46L459, 113.51A249.4 249.4 0 0 0 398.49, 53L286.54, 165A96.26 96.26 0 0 1 347, 225.46zM165, 286.54L53, 398.54A249.4 249.4 0 0 0 113.5, 459.04L225.46, 347A96.26 96.26 0 0 1 165, 286.54zM53, 113.54L165, 225.54A96.26 96.26 0 0 1 225.5, 165.04L113.51, 53A249.4 249.4 0 0 0 53, 113.51zM286.54, 347L398.54, 459A249.4 249.4 0 0 0 459.04, 398.5L347, 286.54A96.26 96.26 0 0 1 286.54, 347z" fill="#727272" fill-opacity="1" class="Black" />
    </g>
  </g>
</svg>