<?xml version='1.0' encoding='UTF-8'?>
<svg viewBox="-1.9975 -4.7958 32 32" xmlns="http://www.w3.org/2000/svg">
  <g transform="matrix(0.9989, 0, 0, 0.9989, 0, 0)">
    <g transform="matrix(0.0438, 0, 0, 0.0438, 0, 0)">
      <defs>
        <style>.fa-secondary{opacity:.4}</style>
      </defs>
      <path d="M147, 236.07C132.34, 230.57 77.83, 216.07 53.23, 281.63C34.62, 331.25 66.23, 410.85 79.76, 415.91C93.29, 420.97 169.41, 381.91 188.06, 332.2C214.23, 262.41 154, 238.74 147, 236.07zM320, 256.07C304.33, 256.07 248.2, 261.61 248.2, 331.66C248.2, 384.66 305.8, 448.07 320.2, 448.07C334.6, 448.07 392.2, 384.77 392.2, 331.66C392.21, 257.07 327.53, 256.07 320, 256.07zM586.8, 281.66C562.2, 216.07 507.69, 230.6 493, 236.07C486, 238.71 425.76, 262.38 451.94, 332.2C470.59, 381.93 546.75, 420.97 560.24, 415.91C573.73, 410.85 605.42, 331.28 586.81, 281.66z" fill="#727272" opacity="0.4" fill-opacity="1" class="Black" />
      <path d="M632.59, 121.75C594.5, 144.15 551.5, 161.75 505.59, 174.75L525.94, 230.89A82.79 82.79 0 0 0 465.74, 253.17L442.59, 189.35A701.58 701.58 0 0 1 352.19, 199.15L352.19, 262.52A82.78 82.78 0 0 0 288.19, 262.52L288.19, 199.15A699.63 699.63 0 0 1 197.79, 189.35L174.65, 253.17A85.87 85.87 0 0 0 147.18, 236.07A84.92 84.92 0 0 0 114.45, 230.86L134.8, 174.72C88.91, 161.72 45.91, 144.12 7.8, 121.72C-0.1, 117.12 -2.3, 106.62 2.6, 98.82L20.1, 71.42A16 16 0 0 1 41.9, 66.32C118, 110.75 216, 135.07 320, 135.07C424, 135.07 522, 110.77 598.1, 66.37A16 16 0 0 1 619.89, 71.47L637.39, 98.87C642.29, 106.65 640.09, 117.15 632.59, 121.75z" fill="#727272" fill-opacity="1" class="Black" />
    </g>
  </g>
</svg>