<?xml version='1.0' encoding='UTF-8'?>
<svg viewBox="-1.995 -4.7973 31.9975 32" xmlns="http://www.w3.org/2000/svg">
  <g transform="matrix(0.999, 0, 0, 0.999, 0, 0)">
    <g transform="matrix(0.0438, 0, 0, 0.0438, 0, 0)">
      <defs>
        <style>.fa-secondary{opacity:.4}</style>
      </defs>
      <path d="M163.75, 94.79C192.16, 39.71 249, 0.2 319.45, 0A175.9 175.9 0 0 1 452.45, 291.78C448.59, 296.19 444.21, 301.72 439.66, 308.03L242.66, 155.74A80.16 80.16 0 0 1 320, 96A16 16 0 1 0 320, 64A112.16 112.16 0 0 0 215.78, 135zM163.75, 256.56A176 176 0 0 0 187.58, 291.78C204.1, 310.63 229.94, 350.01 239.79, 383.23C239.79, 383.49 239.86, 383.75 239.9, 384.01L328.64, 384.01zM240, 416L240, 454.35A32 32 0 0 0 245.41, 472L262.5, 497.69A32 32 0 0 0 289.14, 512L350.85, 512A32 32 0 0 0 377.49, 497.72L394.58, 472A32 32 0 0 0 399.94, 454.31L399.94, 439.1L370, 416z" fill="#727272" opacity="0.4" fill-opacity="1" class="Black" />
      <path d="M3.37, 31.45L23, 6.18A16 16 0 0 1 45.47, 3.37L633.82, 458.1A16 16 0 0 1 636.64, 480.55L617, 505.82A16 16 0 0 1 594.54, 508.63L6.18, 53.9A16 16 0 0 1 3.37, 31.45z" fill="#727272" fill-opacity="1" class="Black" />
    </g>
  </g>
</svg>