<?xml version='1.0' encoding='UTF-8'?>
<svg viewBox="-6.3751 -2 32 32" xmlns="http://www.w3.org/2000/svg">
  <g transform="matrix(0.0547, 0, 0, 0.0547, 0, 0)">
    <defs>
      <style>.fa-secondary{opacity:.4}</style>
    </defs>
    <path d="M175.45, 0C73.44, 0.31 0, 83 0, 176A175 175 0 0 0 43.56, 291.78C60.08, 310.63 85.92, 350 95.77, 383.23C95.77, 383.49 95.84, 383.75 95.88, 384.01L256.12, 384.01C256.12, 383.75 256.19, 383.5 256.23, 383.23C266.08, 350.01 291.92, 310.63 308.44, 291.78A175.9 175.9 0 0 0 175.45, 0zM176, 96A80.09 80.09 0 0 0 96, 176A16 16 0 0 1 64, 176A112.12 112.12 0 0 1 176, 64A16 16 0 0 1 176, 96z" fill="#727272" opacity="0.4" fill-opacity="1" class="Black" />
    <path d="M96.06, 454.35L96, 416L256, 416L256, 454.35A32 32 0 0 1 250.59, 472L233.5, 497.73A32 32 0 0 1 206.86, 512L145.15, 512A32 32 0 0 1 118.51, 497.72L101.42, 472A32 32 0 0 1 96.06, 454.35z" fill="#727272" fill-opacity="1" class="Black" />
  </g>
</svg>