<?xml version='1.0' encoding='UTF-8'?>
<svg viewBox="-4 0 32 32" xmlns="http://www.w3.org/2000/svg">
  <g transform="matrix(0.0625, 0, 0, 0.0625, 0, 0)">
    <defs>
      <style>.fa-secondary{opacity:.4}</style>
    </defs>
    <path d="M0, 232.82L0, 273.82A11.71 11.71 0 0 0 0.29, 276.45A12 12 0 0 0 14.6, 285.56L64, 274.56L64, 209L9.4, 221.11A12 12 0 0 0 0, 232.82zM0, 136.82L0, 177.82A11.71 11.71 0 0 0 0.29, 180.45A12 12 0 0 0 14.6, 189.56L64, 178.56L64, 113L9.4, 125.11A12 12 0 0 0 0, 136.82zM287.71, 75.58A12 12 0 0 0 273.4, 66.46L144, 95.22L144, 160.78L278.6, 130.9A12 12 0 0 0 288, 119.18L288, 78.18A11.91 11.91 0 0 0 287.71, 75.58zM273.4, 162.46L144, 191.22L144, 256.78L278.6, 226.89A12 12 0 0 0 288, 215.18L288, 174.18A12 12 0 0 0 273.4, 162.46z" fill="#727272" opacity="0.4" fill-opacity="1" class="Black" />
    <path d="M64, 468L64, 44A12 12 0 0 1 76, 32L132, 32A12 12 0 0 1 144, 44L144, 416C230.18, 416 312, 368 312, 267.25C312, 260.91 317.64, 256 324, 256L372, 256A12 12 0 0 1 384, 268L384, 268.42C378.84, 402.17 289.67, 480 155.58, 480L76, 480A12 12 0 0 1 64, 468z" fill="#727272" fill-opacity="1" class="Black" />
  </g>
</svg>