<?xml version='1.0' encoding='UTF-8'?>
<svg viewBox="-2 -1.9975 32 32" xmlns="http://www.w3.org/2000/svg">
  <g transform="matrix(0.0547, 0, 0, 0.0547, 0, 0)">
    <defs>
      <style>.fa-secondary{opacity:.4}</style>
    </defs>
    <path d="M272, 192L16, 192A16 16 0 0 0 0, 208L0, 240A16 16 0 0 0 16, 256L272, 256A16 16 0 0 0 288, 240L288, 208A16 16 0 0 0 272, 192zM272, 64L16, 64A16 16 0 0 0 0, 80L0, 112A16 16 0 0 0 16, 128L272, 128A16 16 0 0 0 288, 112L288, 80A16 16 0 0 0 272, 64zM144, 320L16, 320A16 16 0 0 0 0, 336L0, 368A16 16 0 0 0 16, 384L144, 384A16 16 0 0 0 160, 368L160, 336A16 16 0 0 0 144, 320z" fill="#727272" opacity="0.4" fill-opacity="1" class="Black" />
    <path d="M192, 432C192, 476.18 242.14, 512 304, 512C365.86, 512 416, 476.18 416, 432L416, 148.15L489, 126.76A32 32 0 0 0 512, 96.05L512, 32A32 32 0 0 0 470.94, 1.33L374.41, 29.84A32 32 0 0 0 352, 60.34L352, 360A148.76 148.76 0 0 0 304, 352C242.14, 352 192, 387.82 192, 432z" fill="#727272" fill-opacity="1" class="Black" />
  </g>
</svg>