<?xml version='1.0' encoding='UTF-8'?>
<svg viewBox="-2 -1.9988 32 32" xmlns="http://www.w3.org/2000/svg">
  <g transform="matrix(0.0547, 0, 0, 0.0547, 0, 0)">
    <defs>
      <style>.fa-secondary{opacity:.4}</style>
    </defs>
    <path d="M464, 32L48, 32A48 48 0 0 0 0, 80L0, 432A48 48 0 0 0 48, 480L464, 480A48 48 0 0 0 512, 432L512, 80A48 48 0 0 0 464, 32zM128, 392A40 40 0 1 1 168, 352A40 40 0 0 1 128, 392zM128, 296A40 40 0 1 1 168, 256A40 40 0 0 1 128, 296zM128, 200A40 40 0 1 1 168, 160A40 40 0 0 1 128, 200zM416, 368A12 12 0 0 1 404, 380L204, 380A12 12 0 0 1 192, 368L192, 336A12 12 0 0 1 204, 324L404, 324A12 12 0 0 1 416, 336zM416, 272A12 12 0 0 1 404, 284L204, 284A12 12 0 0 1 192, 272L192, 240A12 12 0 0 1 204, 228L404, 228A12 12 0 0 1 416, 240zM416, 176A12 12 0 0 1 404, 188L204, 188A12 12 0 0 1 192, 176L192, 144A12 12 0 0 1 204, 132L404, 132A12 12 0 0 1 416, 144z" fill="#727272" opacity="0.4" fill-opacity="1" class="Black" />
    <path d="M128, 200A40 40 0 1 0 88, 160A40 40 0 0 0 128, 200zM128, 216A40 40 0 1 0 168, 256A40 40 0 0 0 128, 216zM128, 312A40 40 0 1 0 168, 352A40 40 0 0 0 128, 312z" fill="#727272" fill-opacity="1" class="Black" />
  </g>
</svg>