<?xml version='1.0' encoding='UTF-8'?>
<svg viewBox="-2 -1.9988 32 32" xmlns="http://www.w3.org/2000/svg">
  <g transform="matrix(0.0547, 0, 0, 0.0547, 0, 0)">
    <defs>
      <style>.fa-secondary{opacity:.4}</style>
    </defs>
    <path d="M496, 384L176, 384A16 16 0 0 0 160, 400L160, 432A16 16 0 0 0 176, 448L496, 448A16 16 0 0 0 512, 432L512, 400A16 16 0 0 0 496, 384zM496, 64L176, 64A16 16 0 0 0 160, 80L160, 112A16 16 0 0 0 176, 128L496, 128A16 16 0 0 0 512, 112L512, 80A16 16 0 0 0 496, 64zM496, 224L176, 224A16 16 0 0 0 160, 240L160, 272A16 16 0 0 0 176, 288L496, 288A16 16 0 0 0 512, 272L512, 240A16 16 0 0 0 496, 224z" fill="#727272" opacity="0.4" fill-opacity="1" class="Black" />
    <path d="M80, 368L16, 368A16 16 0 0 0 0, 384L0, 448A16 16 0 0 0 16, 464L80, 464A16 16 0 0 0 96, 448L96, 384A16 16 0 0 0 80, 368zM80, 48L16, 48A16 16 0 0 0 0, 64L0, 128A16 16 0 0 0 16, 144L80, 144A16 16 0 0 0 96, 128L96, 64A16 16 0 0 0 80, 48zM80, 208L16, 208A16 16 0 0 0 0, 224L0, 288A16 16 0 0 0 16, 304L80, 304A16 16 0 0 0 96, 288L96, 224A16 16 0 0 0 80, 208z" fill="#727272" fill-opacity="1" class="Black" />
  </g>
</svg>