<?xml version='1.0' encoding='UTF-8'?>
<svg viewBox="-1.9999 -1.549 31.9975 32" xmlns="http://www.w3.org/2000/svg">
  <g transform="matrix(0.999, 0, 0, 0.999, 0, 0)">
    <g transform="matrix(0.0565, 0, 0, 0.0565, 0, 0)">
      <defs>
        <style>.fa-secondary{opacity:.4}</style>
      </defs>
      <path d="M248, 8C111, 8 0, 119 0, 256C0, 393 111, 504 248, 504C385, 504 496, 393 496, 256C496, 119 385, 8 248, 8zM358.24, 177.74L262.29, 385.63C251.09, 409.63 215.91, 401.63 215.91, 376.04L215.91, 288L128, 288C102.41, 288 94.42, 252.82 118.41, 241.62L326.3, 145.71C345.45, 137.71 366.24, 158.55 358.24, 177.71z" fill="#727272" opacity="0.4" fill-opacity="1" class="Black" />
      <path d="M118.36, 241.7L326.25, 145.75C345.45, 137.75 366.25, 158.55 358.25, 177.75L262.25, 385.63C251.05, 409.63 215.87, 401.63 215.87, 376.04L215.87, 288L128, 288C102.36, 288 94.37, 252.86 118.36, 241.66z" fill="#727272" fill-opacity="1" class="Black" />
    </g>
  </g>
</svg>