<?xml version='1.0' encoding='UTF-8'?>
<svg viewBox="-2 -2 32 32" xmlns="http://www.w3.org/2000/svg">
  <g transform="matrix(0.0547, 0, 0, 0.0547, 0, 0)">
    <defs>
      <style>.fa-secondary{opacity:.4}</style>
    </defs>
    <path d="M344, 256A88 88 0 1 1 256, 168A88 88 0 0 1 344, 256z" fill="#727272" opacity="0.4" fill-opacity="1" class="Black" />
    <path d="M496, 224L445.12, 224A191.86 191.86 0 0 0 288, 66.88L288, 16A16 16 0 0 0 272, 0L240, 0A16 16 0 0 0 224, 16L224, 66.88A191.86 191.86 0 0 0 66.88, 224L16, 224A16 16 0 0 0 0, 240L0, 272A16 16 0 0 0 16, 288L66.88, 288A191.86 191.86 0 0 0 224, 445.12L224, 496A16 16 0 0 0 240, 512L272, 512A16 16 0 0 0 288, 496L288, 445.12A191.86 191.86 0 0 0 445.12, 288L496, 288A16 16 0 0 0 512, 272L512, 240A16 16 0 0 0 496, 224zM256, 384A128 128 0 1 1 384, 256A128 128 0 0 1 256, 384z" fill="#727272" fill-opacity="1" class="Black" />
  </g>
</svg>