<?xml version='1.0' encoding='UTF-8'?>
<svg viewBox="-2 -2 32 32" xmlns="http://www.w3.org/2000/svg">
  <g transform="matrix(0.0547, 0, 0, 0.0547, 0, 0)">
    <defs>
      <style>.fa-secondary{opacity:.4}</style>
    </defs>
    <path d="M461.91, 0A45 45 0 0 0 444.51, 3.52L28.73, 195.42C-19.27, 217.81 -3.27, 288.17 47.92, 288.17L223.83, 288.17L223.83, 464.08C223.83, 494.08 248.04, 512.02 272.57, 512.02C289.87, 512.02 307.33, 503.11 316.57, 483.27L508.48, 67.49C522.06, 34.89 494.14, 0 461.91, 0zM303.83, 320L303.83, 208.17L192, 208.17L399.67, 112.32z" fill="#727272" opacity="0.4" fill-opacity="1" class="Black" />
    <path d="M399.68, 112.32L303.83, 320L303.83, 208.17L192, 208.17L399.67, 112.32" fill="#727272" fill-opacity="1" class="Black" />
  </g>
</svg>