<?xml version='1.0' encoding='UTF-8'?>
<svg viewBox="-1.995 -4.7773 31.9975 32" xmlns="http://www.w3.org/2000/svg">
  <g transform="matrix(0.999, 0, 0, 0.999, 0, 0)">
    <g transform="matrix(0.0438, 0, 0, 0.0438, 0, 0)">
      <defs>
        <style>.fa-secondary{opacity:.4}</style>
      </defs>
      <path d="M189.36, 115.58A191.34 191.34 0 0 1 288, 66.88L288, 16A16 16 0 0 1 304, 0L336, 0A16 16 0 0 1 352, 16L352, 66.88A191.86 191.86 0 0 1 509.12, 224L560, 224A16 16 0 0 1 576, 240L576, 272A16 16 0 0 1 560, 288L509.12, 288A190.53 190.53 0 0 1 488.82, 347L437.31, 307.19A128 128 0 0 0 240.87, 155.4zM320, 384A127.93 127.93 0 0 1 194.45, 280.3L121.61, 224L80, 224A16 16 0 0 0 64, 240L64, 272A16 16 0 0 0 80, 288L130.88, 288A191.86 191.86 0 0 0 288, 445.12L288, 496A16 16 0 0 0 304, 512L336, 512A16 16 0 0 0 352, 496L352, 445.12C366.07, 442.75 379.35, 438.37 392.19, 433.12L327.62, 383.22C325.05, 383.38 322.61, 384 320, 384zM320, 168A87.6 87.6 0 0 0 274, 181L404.2, 281.63A88 88 0 0 0 320, 168z" fill="#727272" opacity="0.4" fill-opacity="1" class="Black" />
      <path d="M3.37, 32.45L23, 7.18A16 16 0 0 1 45.47, 4.37L633.82, 459.1A16 16 0 0 1 636.64, 481.55L617, 506.82A16 16 0 0 1 594.54, 509.63L6.18, 54.9A16 16 0 0 1 3.37, 32.45z" fill="#727272" fill-opacity="1" class="Black" />
    </g>
  </g>
</svg>