<?xml version='1.0' encoding='UTF-8'?>
<svg viewBox="-1.9998 -3.5563 31.9975 32" xmlns="http://www.w3.org/2000/svg">
  <g transform="matrix(0.0486, 0, 0, 0.0486, 0, 0)">
    <defs>
      <style>.fa-secondary{opacity:.4}</style>
    </defs>
    <path d="M576, 152L576, 232A23.94 23.94 0 0 1 552, 256L520, 256A23.94 23.94 0 0 1 496, 232L496, 152A72.11 72.11 0 0 0 423.3, 80C383.7, 80.4 352, 113.3 352, 152.9L352, 224L272, 224L272, 153.5C272, 69.5 339.5, 0.3 423.5, 0C507.5, -0.3 576, 68 576, 152z" fill="#727272" opacity="0.4" fill-opacity="1" class="Black" />
    <path d="M448, 272L448, 464A48 48 0 0 1 400, 512L48, 512A48 48 0 0 1 0, 464L0, 272A48 48 0 0 1 48, 224L400, 224A48 48 0 0 1 448, 272z" fill="#727272" fill-opacity="1" class="Black" />
  </g>
</svg>