<?xml version='1.0' encoding='UTF-8'?>
<svg viewBox="-3.7495 -2 32 32" xmlns="http://www.w3.org/2000/svg">
  <g transform="matrix(0.0547, 0, 0, 0.0547, 0, 0)">
    <defs>
      <style>.fa-secondary{opacity:.4}</style>
    </defs>
    <path d="M152, 224L72, 224L72, 152C72, 68.2 140.2, 0 224, 0C307.8, 0 376, 68.2 376, 152L376, 224L296, 224L296, 152A72 72 0 0 0 152, 152z" fill="#727272" opacity="0.4" fill-opacity="1" class="Black" />
    <path d="M448, 272L448, 464A48 48 0 0 1 400, 512L48, 512A48 48 0 0 1 0, 464L0, 272A48 48 0 0 1 48, 224L400, 224A48 48 0 0 1 448, 272z" fill="#727272" fill-opacity="1" class="Black" />
  </g>
</svg>