<?xml version='1.0' encoding='UTF-8'?>
<svg viewBox="-1.9998 -3.5563 31.9975 32" xmlns="http://www.w3.org/2000/svg">
  <g transform="matrix(0.0486, 0, 0, 0.0486, 0, 0)">
    <defs>
      <style>.fa-secondary{opacity:.4}</style>
    </defs>
    <path d="M576, 152L576, 232A23.94 23.94 0 0 1 552, 256L520, 256A23.94 23.94 0 0 1 496, 232L496, 152A72.11 72.11 0 0 0 423.3, 80C383.7, 80.4 352, 113.3 352, 152.9L352, 224L272, 224L272, 153.5C272, 69.5 339.5, 0.3 423.5, 0C507.5, -0.3 576, 68 576, 152z" fill="#727272" opacity="0.4" fill-opacity="1" class="Black" />
    <path d="M400, 224L48, 224A48 48 0 0 0 0, 272L0, 464A48 48 0 0 0 48, 512L400, 512A48 48 0 0 0 448, 464L448, 272A48 48 0 0 0 400, 224zM264, 392A40 40 0 0 1 184, 392L184, 344A40 40 0 0 1 264, 344z" fill="#727272" fill-opacity="1" class="Black" />
  </g>
</svg>