<?xml version='1.0' encoding='UTF-8'?>
<svg viewBox="-1.9999 0.0011 32 31.9975" xmlns="http://www.w3.org/2000/svg">
  <g transform="matrix(0.0625, 0, 0, 0.0625, 0, 0)">
    <defs>
      <style>.fa-secondary{opacity:.4}</style>
    </defs>
    <path d="M319.91, 292L24, 292A24 24 0 0 1 0, 268L0, 244A24 24 0 0 1 24, 220L319.91, 220L355.57, 256z" fill="#727272" opacity="0.4" fill-opacity="1" class="Black" />
    <path d="M305.44, 103.05L441, 238.54L441.06, 238.6A25.23 25.23 0 0 1 441.06, 273.44L441, 273.5L305.44, 409A24 24 0 0 1 271.5, 409L254.5, 392A24 24 0 0 1 254.5, 358.06L355.57, 256L254.5, 154A24 24 0 0 1 254.5, 120.06L271.5, 103.06A24 24 0 0 1 305.44, 103.05z" fill="#727272" fill-opacity="1" class="Black" />
  </g>
</svg>