<?xml version='1.0' encoding='UTF-8'?>
<svg viewBox="-2 -1.9988 32 32" xmlns="http://www.w3.org/2000/svg">
  <g transform="matrix(0.0547, 0, 0, 0.0547, 0, 0)">
    <defs>
      <style>.fa-secondary{opacity:.4}</style>
    </defs>
    <path d="M160, 288L160, 224A64.06 64.06 0 0 0 96, 160L64, 160A96 96 0 0 1 160, 64L352, 64A96 96 0 0 1 448, 160L416, 160A64.06 64.06 0 0 0 352, 224L352, 288z" fill="#727272" opacity="0.4" fill-opacity="1" class="Black" />
    <path d="M512, 256A63.84 63.84 0 0 1 480, 311.1L480, 432A16 16 0 0 1 464, 448L400, 448A16 16 0 0 1 384, 432L384, 416L128, 416L128, 432A16 16 0 0 1 112, 448L48, 448A16 16 0 0 1 32, 432L32, 311.1A63.79 63.79 0 0 1 64, 192L96, 192A32 32 0 0 1 128, 224L128, 320L384, 320L384, 224A32 32 0 0 1 416, 192L448, 192A64.06 64.06 0 0 1 512, 256z" fill="#727272" fill-opacity="1" class="Black" />
  </g>
</svg>