<?xml version='1.0' encoding='UTF-8'?>
<svg viewBox="-1.9975 -3.5517 32 31.9975" xmlns="http://www.w3.org/2000/svg">
  <g transform="matrix(0.0486, 0, 0, 0.0486, 0, 0)">
    <defs>
      <style>.fa-secondary{opacity:.4}</style>
    </defs>
    <path d="M320, 192A32 32 0 0 0 380.57, 206.41A105 105 0 0 1 372, 319L256.19, 155.91A105.27 105.27 0 0 1 337.59, 163.43A32 32 0 0 0 320, 192zM569.34, 231.63C513, 136 407.81, 72 288, 72A329.94 329.94 0 0 0 204.25, 82.74L237.56, 129.66A135.86 135.86 0 0 1 288, 120A135.93 135.93 0 0 1 424, 256A135.47 135.47 0 0 1 390.62, 345.27L433.78, 406.06A324.33 324.33 0 0 0 569.34, 280.37A47.88 47.88 0 0 0 576, 256A47.88 47.88 0 0 0 569.34, 231.63zM170.44, 145.69L142.25, 106A324.78 324.78 0 0 0 6.68, 231.61A48 48 0 0 0 6.68, 280.35A324.92 324.92 0 0 0 179.51, 421.75L55.32, 244.33A272.12 272.12 0 0 1 83.61, 208.42L203, 379L243.63, 437A329.89 329.89 0 0 0 322.57, 438.17L132.57, 166.77A277.74 277.74 0 0 1 170.44, 145.69z" fill="#727272" opacity="0.4" fill-opacity="1" class="Black" />
    <path d="M469.76, 498.48L456.65, 507.66A24 24 0 0 1 423.22, 501.76L100.34, 46.94A24 24 0 0 1 106.24, 13.52L119.35, 4.34A24 24 0 0 1 152.78, 10.24L475.66, 465.06A24 24 0 0 1 469.76, 498.48z" fill="#727272" fill-opacity="1" class="Black" />
  </g>
</svg>