<?xml version='1.0' encoding='UTF-8'?>
<svg viewBox="-3.7495 -2 32 32" xmlns="http://www.w3.org/2000/svg">
  <g transform="matrix(0.0547, 0, 0, 0.0547, 0, 0)">
    <defs>
      <style>.fa-secondary{opacity:.4}</style>
    </defs>
    <path d="M372, 160L304, 160C266.1, 160 234.7, 188.3 226.5, 226.2C225.6, 225.5 222.3, 225.5 221.4, 226.2C213.3, 188.3 182, 160 144, 160L76, 160A12 12 0 0 0 64, 172L64, 202.7C64, 249.8 99.8, 288 144, 288L166.4, 288A177.85 177.85 0 0 0 150.6, 320.9A63.87 63.87 0 0 0 96, 384C96, 419.5 125.4, 448 160.9, 448L287, 448C322.5, 448 351.9, 419.5 351.9, 384A63.87 63.87 0 0 0 297.3, 320.9A174.87 174.87 0 0 0 281.5, 288L304, 288C348.2, 288 384, 249.8 384, 202.7L384, 172A12 12 0 0 0 372, 160zM224, 266.7C244.2, 286.6 255.9, 305.2 262.7, 320L185.3, 320C192.1, 305.2 203.8, 286.6 224, 266.7zM144, 256C117.5, 256 96, 232.1 96, 202.7L96, 192L144, 192C170.5, 192 192, 215.9 192, 245.3L192, 252.77A3.19 3.19 0 0 1 191.15, 254.94A3.21 3.21 0 0 1 188.79, 255.94zM288, 352A32 32 0 0 1 288, 416L160, 416A32 32 0 0 1 160, 352zM352, 202.7C352, 232.1 330.5, 256 304, 256L259.23, 256A3.21 3.21 0 0 1 256.87, 255A3.19 3.19 0 0 1 256.02, 252.83L256.02, 245.3C256.02, 215.9 277.52, 192 304.02, 192L352.02, 192z" fill="#727272" opacity="0.4" fill-opacity="1" class="Black" />
    <path d="M224, 0C100.3, 0 0, 100.3 0, 224L0, 352A160 160 0 0 0 160, 512L288, 512A160 160 0 0 0 448, 352L448, 224C448, 100.3 347.7, 0 224, 0zM384, 202.7C384, 249.8 348.2, 288 304, 288L281.5, 288A174.87 174.87 0 0 1 297.3, 320.9A63.87 63.87 0 0 1 351.9, 384C351.9, 419.5 322.5, 448 287, 448L160.9, 448C125.4, 448 96, 419.5 96, 384A63.87 63.87 0 0 1 150.6, 320.9A177.85 177.85 0 0 1 166.4, 288L144, 288C99.8, 288 64, 249.8 64, 202.7L64, 172A12 12 0 0 1 76, 160L144, 160C182, 160 213.3, 188.3 221.4, 226.2C222.3, 225.5 225.6, 225.5 226.5, 226.2C234.7, 188.3 266.1, 160 304, 160L372, 160A12 12 0 0 1 384, 172z" fill="#727272" fill-opacity="1" class="Black" />
  </g>
</svg>