<?xml version='1.0' encoding='UTF-8'?>
<svg viewBox="-1.9998 -4.8014 31.9975 32" xmlns="http://www.w3.org/2000/svg">
  <g transform="matrix(0.9988, 0, 0, 0.9988, 0, 0)">
    <g transform="matrix(0.0438, 0, 0, 0.0438, 0, 0)">
      <defs>
        <style>.fa-secondary{opacity:.4}</style>
      </defs>
      <path d="M170.16, 373.57L256, 316.34L256, 403.83C256, 444.98 226.92, 481.15 184.74, 492.45L125.24, 508.4C62.48, 525.22 0, 481 0, 419.78A114.68 114.68 0 0 1 3.89, 390.15A821.31 821.31 0 0 1 105.89, 159.15C128, 124.56 142, 96 186, 96C224.64, 96 256, 125.42 256, 161.71L256, 221.82L128, 307.15A16 16 0 0 0 123.56, 329.34L132.44, 342.65A16 16 0 0 0 150.21, 349.15A8 8 0 0 0 150.21, 358.04L159.09, 371.35A8 8 0 0 0 170.16, 373.57zM636.16, 390.15A821.31 821.31 0 0 0 534.16, 159.15C512, 124.56 498, 96 454.05, 96C415.36, 96 384, 125.42 384, 161.71L384, 221.82L512, 307.15A16 16 0 0 1 516.44, 329.34L507.56, 342.65A16 16 0 0 1 489.78, 349.14A8 8 0 0 1 489.78, 358.03L480.9, 371.34A8 8 0 0 1 469.82, 373.56L384, 316.34L384, 403.83C384, 444.98 413.08, 481.14 455.26, 492.45L514.76, 508.4C577.52, 525.22 640, 481 640, 419.78A114.68 114.68 0 0 0 636.11, 390.15z" fill="#727272" opacity="0.4" fill-opacity="1" class="Black" />
      <path d="M516.45, 329.34L507.57, 342.65A16 16 0 0 1 485.38, 347.09L320, 236.84L154.63, 347.09A16 16 0 0 1 132.44, 342.65L123.56, 329.34A16 16 0 0 1 128, 307.15L288.88, 199.9A16 16 0 0 0 296, 186.59L296, 16A16 16 0 0 1 312, 0L328, 0A16 16 0 0 1 344, 16L344, 186.59A16 16 0 0 0 351.12, 199.9L512, 307.15A16 16 0 0 1 516.45, 329.34z" fill="#727272" fill-opacity="1" class="Black" />
    </g>
  </g>
</svg>