<?xml version='1.0' encoding='UTF-8'?>
<svg viewBox="-2 -2 32 32" xmlns="http://www.w3.org/2000/svg">
  <g transform="matrix(0.0547, 0, 0, 0.0547, 0, 0)">
    <defs>
      <style>.fa-secondary{opacity:.4}</style>
    </defs>
    <path d="M215.92, 341.35L49.92, 507.35A16 16 0 0 1 27.29, 507.35L4.69, 484.69A16 16 0 0 1 4.69, 462.06L170.69, 296.06A161.12 161.12 0 0 0 215.92, 341.35z" fill="#727272" opacity="0.4" fill-opacity="1" class="Black" />
    <path d="M501, 195L426, 171.2A127.4 127.4 0 0 0 338.33, 85.25L313.05, 10.8C308.13, -3.7 295.59, -3.57 291, 11L267.2, 86A127.43 127.43 0 0 0 181.2, 173.67L106.8, 199C92.3, 203.92 92.43, 216.46 107.02, 221.08L182.02, 244.85A127.43 127.43 0 0 0 269.69, 330.85L294.95, 405.29C299.87, 419.79 312.41, 419.66 317.03, 405.07L340.8, 330.07A127.4 127.4 0 0 0 426.75, 242.4L501.19, 217.14C515.7, 212.13 515.57, 199.59 501, 195zM304, 240A32 32 0 1 1 336, 208A32 32 0 0 1 304, 240z" fill="#727272" fill-opacity="1" class="Black" />
  </g>
</svg>