<?xml version='1.0' encoding='UTF-8'?>
<svg viewBox="-2.0023 -1.9998 32 31.9975" xmlns="http://www.w3.org/2000/svg">
  <g transform="matrix(0.0547, 0, 0, 0.0547, 0, 0)">
    <defs>
      <style>.fa-secondary{opacity:.4}</style>
    </defs>
    <path d="M80, 0L53.34, 53.33L0, 80L53.34, 106.67L80, 160L106.66, 106.67L160, 80L106.66, 53.33zM272, 48L240, 32L224, 0L208, 32L176, 48L208, 64L224, 96L240, 64zM458.66, 341.33L432, 288L405.34, 341.33L352, 368L405.34, 394.67L432, 448L458.66, 394.67L512, 368zM399, 243.07L485.6, 156.52L502.6, 139.52A32 32 0 0 0 502.6, 94.26L485.6, 77.26L434.74, 26.4L417.74, 9.4A32 32 0 0 0 372.49, 9.4L355.49, 26.4L269, 112.94L229.38, 152.54L268.99, 192.15L319.9, 243.06L359.49, 282.64zM308.5, 152.55L395.14, 66L446.05, 116.91L359.45, 203.46z" fill="#727272" opacity="0.4" fill-opacity="1" class="Black" />
    <path d="M359.44, 282.64L139.44, 502.64A32 32 0 0 1 94.19, 502.64L9.38, 417.77A32 32 0 0 1 9.38, 372.52L229.38, 152.52z" fill="#727272" fill-opacity="1" class="Black" />
  </g>
</svg>