<?xml version='1.0' encoding='UTF-8'?>
<svg viewBox="-1.9999 -3.5552 32 32" xmlns="http://www.w3.org/2000/svg">
  <g transform="matrix(0.0486, 0, 0, 0.0486, 0, 0)">
    <defs>
      <style>.fa-secondary{opacity:.4}</style>
    </defs>
    <path d="M288, 256L32, 256A32 32 0 0 0 0, 288L0, 304C25.6, 323.2 22.4, 323.2 115.2, 390.4C124.8, 396.8 144, 416 160, 416C176, 416 195.2, 396.8 204.8, 393.6C297.6, 326.4 294.4, 326.4 320, 307.2L320, 288A32 32 0 0 0 288, 256zM160, 448C134.4, 448 108.8, 425.6 96, 416C32, 371.2 12.8, 355.2 0, 345.6L0, 480A32 32 0 0 0 32, 512L288, 512A32 32 0 0 0 320, 480L320, 345.6C307.2, 355.2 288, 371.2 224, 416C211.2, 425.6 185.6, 448 160, 448zM448, 224L448, 288L512, 288L512, 224z" fill="#727272" opacity="0.4" fill-opacity="1" class="Black" />
    <path d="M544, 160L224, 160A32 32 0 0 0 192, 192L192, 224L288, 224A64.09 64.09 0 0 1 351.71, 281.82L352, 281.6L352, 416L544, 416A32 32 0 0 0 576, 384L576, 192A32 32 0 0 0 544, 160zM512, 288L448, 288L448, 224L512, 224zM448, 128L448, 32A32 32 0 0 0 416, 0L96, 0A32 32 0 0 0 64, 32L64, 224L160, 224L160, 192A64.07 64.07 0 0 1 224, 128z" fill="#727272" fill-opacity="1" class="Black" />
  </g>
</svg>