<?xml version='1.0' encoding='UTF-8'?>
<svg viewBox="-2 -3.554 32 32" xmlns="http://www.w3.org/2000/svg">
  <g transform="matrix(0.0486, 0, 0, 0.0486, 0, 0)">
    <defs>
      <style>.fa-secondary{opacity:.4}</style>
    </defs>
    <path d="M432, 64L144, 64A144 144 0 0 1 288, 208L288, 416A32 32 0 0 1 256, 448L544, 448A32 32 0 0 0 576, 416L576, 208A144 144 0 0 0 432, 64zM512, 272A16 16 0 0 1 496, 288L464, 288A16 16 0 0 1 448, 272L448, 224L392, 224A8 8 0 0 1 384, 216L384, 200A8 8 0 0 1 392, 192L496, 192A16 16 0 0 1 512, 208z" fill="#727272" opacity="0.4" fill-opacity="1" class="Black" />
    <path d="M143.93, 64C64.2, 64 0, 129.65 0, 209.38L0, 416A32 32 0 0 0 32, 448L256, 448A32 32 0 0 0 288, 416L288, 208A144 144 0 0 0 143.93, 64zM224, 240A16 16 0 0 1 208, 256L80, 256A16 16 0 0 1 64, 240L64, 208A16 16 0 0 1 80, 192L208, 192A16 16 0 0 1 224, 208zM496, 192L392, 192A8 8 0 0 0 384, 200L384, 216A8 8 0 0 0 392, 224L448, 224L448, 272A16 16 0 0 0 464, 288L496, 288A16 16 0 0 0 512, 272L512, 208A16 16 0 0 0 496, 192z" fill="#727272" fill-opacity="1" class="Black" />
  </g>
</svg>