<?xml version='1.0' encoding='UTF-8'?>
<svg viewBox="-2 -1.9988 32 32" xmlns="http://www.w3.org/2000/svg">
  <g transform="matrix(0.0547, 0, 0, 0.0547, 0, 0)">
    <defs>
      <style>.fa-secondary{opacity:.4}</style>
    </defs>
    <path d="M278.63, 278.63L233.38, 233.38L274.57, 192.19C90.39, 190.67 46, 241 30.73, 256.28C-16.07, 303.07 -8.78, 406.64 48.27, 463.73C105.32, 520.82 208.93, 528.07 255.72, 481.26C271, 466 321.32, 421.62 319.8, 237.46zM176, 384A48 48 0 1 1 224, 336A48 48 0 0 1 176, 384z" fill="#727272" opacity="0.4" fill-opacity="1" class="Black" />
    <path d="M509.56, 70.48L469.49, 134.48A32 32 0 0 1 450.38, 148.48L394.28, 163L278.63, 278.63L233.38, 233.38L349, 117.74L363.51, 61.62A32 32 0 0 1 377.51, 42.51L441.51, 2.44A16 16 0 0 1 461.32, 4.69L507.32, 50.69A16 16 0 0 1 509.56, 70.48z" fill="#727272" fill-opacity="1" class="Black" />
  </g>
</svg>