<?xml version='1.0' encoding='UTF-8'?>
<svg viewBox="-1.9975 -2 31.9975 32" xmlns="http://www.w3.org/2000/svg">
  <g transform="matrix(0.0547, 0, 0, 0.0547, 0, 0)">
    <defs>
      <style>.fa-secondary{opacity:.4}</style>
    </defs>
    <path d="M224, 496A16 16 0 0 0 240, 512L272, 512A15.88 15.88 0 0 0 277.71, 510.93L278.23, 510.74L278.33, 510.69A16.08 16.08 0 0 0 283.33, 507.31A15.91 15.91 0 0 0 288, 496L288, 384L224, 384zM272, 0L240, 0A16 16 0 0 0 224, 16L224, 32L288, 32L288, 16A16 16 0 0 0 272, 0zM224, 224L288, 224L288, 192L224, 192z" fill="#727272" opacity="0.4" fill-opacity="1" class="Black" />
    <path d="M456, 224L70.63, 224A32 32 0 0 0 48, 233.37L4.69, 276.69A16 16 0 0 0 4.69, 299.32L48, 342.63A32 32 0 0 0 70.63, 352L456, 352A24 24 0 0 0 480, 328L480, 248A24 24 0 0 0 456, 224zM507.31, 84.69L464, 41.37A32 32 0 0 0 441.37, 32L56, 32A24 24 0 0 0 32, 56L32, 136A24 24 0 0 0 56, 160L441.37, 160A32 32 0 0 0 464, 150.63L507.31, 107.32A16 16 0 0 0 507.31, 84.69z" fill="#727272" fill-opacity="1" class="Black" />
  </g>
</svg>