<?xml version='1.0' encoding='UTF-8'?>
<svg viewBox="-5.5053 -2 32 32" xmlns="http://www.w3.org/2000/svg">
  <g transform="matrix(0.0547, 0, 0, 0.0547, 0, 0)">
    <defs>
      <style>.fa-secondary{opacity:.4}</style>
    </defs>
    <path d="M192, 0C86.4, 0 0, 86.4 0, 192C0, 268.8 25.6, 291.2 172.8, 502.4A24 24 0 0 0 211.2, 502.4C358.4, 291.2 384, 268.8 384, 192C384, 86.4 297.6, 0 192, 0zM276.85, 242.91A16 16 0 0 1 276.85, 265.54L265.54, 276.85A16 16 0 0 1 242.91, 276.85L192, 225.94L141.09, 276.85A16 16 0 0 1 118.46, 276.85L107.15, 265.54A16 16 0 0 1 107.15, 242.91L158.06, 192L107.15, 141.09A16 16 0 0 1 107.15, 118.46L118.46, 107.15A16 16 0 0 1 141.09, 107.15L192, 158.06L242.91, 107.15A16 16 0 0 1 265.54, 107.15L276.85, 118.46A16 16 0 0 1 276.85, 141.09L225.94, 192z" fill="#727272" opacity="0.4" fill-opacity="1" class="Black" />
    <path d="M276.85, 242.91A16 16 0 0 1 276.85, 265.54L265.54, 276.85A16 16 0 0 1 242.91, 276.85L192, 225.94L141.09, 276.85A16 16 0 0 1 118.46, 276.85L107.15, 265.54A16 16 0 0 1 107.15, 242.91L158.06, 192L107.15, 141.09A16 16 0 0 1 107.15, 118.46L118.46, 107.15A16 16 0 0 1 141.09, 107.15L192, 158.06L242.91, 107.15A16 16 0 0 1 265.54, 107.15L276.85, 118.46A16 16 0 0 1 276.85, 141.09L225.94, 192z" fill="#727272" fill-opacity="1" class="Black" />
  </g>
</svg>