<?xml version='1.0' encoding='UTF-8'?>
<svg viewBox="-5.5053 -2 32 32" xmlns="http://www.w3.org/2000/svg">
  <g transform="matrix(0.0547, 0, 0, 0.0547, 0, 0)">
    <defs>
      <style>.fa-secondary{opacity:.4}</style>
    </defs>
    <path d="M192, 0C86.4, 0 0, 86.4 0, 192C0, 268.8 25.6, 291.2 172.8, 502.4A24 24 0 0 0 211.2, 502.4C358.4, 291.2 384, 268.8 384, 192C384, 86.4 297.6, 0 192, 0zM306.08, 163.83L175.08, 293.83A11 11 0 0 1 159.53, 293.77L83.77, 217.43A11 11 0 0 1 83.83, 201.87L109.83, 176.05A11 11 0 0 1 125.39, 176.11L167.54, 218.6L264.74, 122.18A11 11 0 0 1 280.29, 122.24L306.11, 148.24A11 11 0 0 1 306.08, 163.83z" fill="#727272" opacity="0.4" fill-opacity="1" class="Black" />
    <path d="M306.08, 163.83L175.08, 293.83A11 11 0 0 1 159.53, 293.77L83.77, 217.43A11 11 0 0 1 83.83, 201.87L109.83, 176.05A11 11 0 0 1 125.39, 176.11L167.54, 218.6L264.74, 122.18A11 11 0 0 1 280.29, 122.24L306.11, 148.24A11 11 0 0 1 306.08, 163.83z" fill="#727272" fill-opacity="1" class="Black" />
  </g>
</svg>