<?xml version='1.0' encoding='UTF-8'?>
<svg viewBox="-5.5053 -2 32 32" xmlns="http://www.w3.org/2000/svg">
  <g transform="matrix(0.0547, 0, 0, 0.0547, 0, 0)">
    <defs>
      <style>.fa-secondary{opacity:.4}</style>
    </defs>
    <path d="M192, 0C86.4, 0 0, 86.4 0, 192C0, 268.8 25.6, 291.2 172.8, 502.4A24 24 0 0 0 211.2, 502.4C358.4, 291.2 384, 268.8 384, 192C384, 86.4 297.6, 0 192, 0zM192, 352A32 32 0 1 1 224, 320A32 32 0 0 1 192, 352zM218.67, 238.73L218.67, 240.16A15.84 15.84 0 0 1 202.83, 256L186.51, 256A15.84 15.84 0 0 1 170.67, 240.16L170.67, 224A24.09 24.09 0 0 1 184, 202.5C214.61, 187.19 234.67, 175.96 234.67, 160C234.67, 140.61 220.67, 120 194.67, 120A40.06 40.06 0 0 0 156.47, 148.12C154.32, 155 148.36, 160 141.14, 160L124.3, 160A15.92 15.92 0 0 1 108.86, 140.45A88.14 88.14 0 0 1 194.67, 72C249.75, 72 282.67, 116.75 282.67, 160C282.67, 201 249.92, 222.47 218.67, 238.73z" fill="#727272" opacity="0.4" fill-opacity="1" class="Black" />
    <path d="M192, 288A32 32 0 1 0 224, 320A32 32 0 0 0 192, 288zM194.67, 72A88.14 88.14 0 0 0 108.86, 140.45A15.92 15.92 0 0 0 124.3, 160L141.14, 160C148.36, 160 154.32, 155 156.47, 148.12A40.06 40.06 0 0 1 194.67, 120C220.67, 120 234.67, 140.61 234.67, 160C234.67, 176 214.61, 187.19 184, 202.5A24.09 24.09 0 0 0 170.67, 224L170.67, 240.16A15.84 15.84 0 0 0 186.51, 256L202.83, 256A15.84 15.84 0 0 0 218.67, 240.16L218.67, 238.73C249.92, 222.47 282.67, 200.95 282.67, 160C282.67, 116.75 249.75, 72 194.67, 72z" fill="#727272" fill-opacity="1" class="Black" />
  </g>
</svg>