<?xml version='1.0' encoding='UTF-8'?>
<svg viewBox="-5.5053 -2 32 32" xmlns="http://www.w3.org/2000/svg">
  <g transform="matrix(0.0547, 0, 0, 0.0547, 0, 0)">
    <defs>
      <style>.fa-secondary{opacity:.4}</style>
    </defs>
    <path d="M192, 0C86.4, 0 0, 86.4 0, 192C0, 268.8 25.6, 291.2 172.8, 502.4A24 24 0 0 0 211.2, 502.4C358.4, 291.2 384, 268.8 384, 192C384, 86.4 297.6, 0 192, 0zM256, 117.16A26.84 26.84 0 1 1 229.16, 144A26.84 26.84 0 0 1 256, 117.16zM128, 117.16A26.84 26.84 0 1 1 101.16, 144A26.84 26.84 0 0 1 128, 117.16zM292.17, 258.16A132.31 132.31 0 0 1 91.84, 258.16A16 16 0 0 1 116.16, 237.38A100.31 100.31 0 0 0 267.83, 237.38A16 16 0 1 1 292.17, 258.17z" fill="#727272" opacity="0.4" fill-opacity="1" class="Black" />
    <path d="M256, 170.84A26.84 26.84 0 1 0 229.16, 144A26.84 26.84 0 0 0 256, 170.84zM128, 170.84A26.84 26.84 0 1 0 101.16, 144A26.84 26.84 0 0 0 128, 170.84zM290.39, 235.56A16 16 0 0 0 267.83, 237.34A100.31 100.31 0 0 1 116.16, 237.34A16 16 0 0 0 91.84, 258.12A132.31 132.31 0 0 0 292.17, 258.12A16 16 0 0 0 290.39, 235.56z" fill="#727272" fill-opacity="1" class="Black" />
  </g>
</svg>