<?xml version='1.0' encoding='UTF-8'?>
<svg viewBox="-5.5053 -2 32 32" xmlns="http://www.w3.org/2000/svg">
  <g transform="matrix(0.0547, 0, 0, 0.0547, 0, 0)">
    <defs>
      <style>.fa-secondary{opacity:.4}</style>
    </defs>
    <path d="M192, 0C86.4, 0 0, 86.4 0, 192C0, 268.8 25.6, 291.2 172.8, 502.4A24 24 0 0 0 211.2, 502.4C358.4, 291.2 384, 268.8 384, 192C384, 86.4 297.6, 0 192, 0zM192, 336A32 32 0 1 1 224, 304A32 32 0 0 1 192, 336zM230.24, 97.59L217.44, 225.59A16 16 0 0 1 201.52, 240L182.52, 240A16 16 0 0 1 166.6, 225.59L153.8, 97.59A16 16 0 0 1 169.68, 80L214.32, 80A16 16 0 0 1 230.24, 97.59z" fill="#727272" opacity="0.4" fill-opacity="1" class="Black" />
    <path d="M192, 272A32 32 0 1 0 224, 304A32 32 0 0 0 192, 272zM214.32, 80L169.68, 80A16 16 0 0 0 153.76, 97.59L166.56, 225.59A16 16 0 0 0 182.48, 240L201.48, 240A16 16 0 0 0 217.4, 225.59L230.2, 97.59A16 16 0 0 0 214.32, 80z" fill="#727272" fill-opacity="1" class="Black" />
  </g>
</svg>