<?xml version='1.0' encoding='UTF-8'?>
<svg viewBox="-5.5053 -2 32 32" xmlns="http://www.w3.org/2000/svg">
  <g transform="matrix(0.0547, 0, 0, 0.0547, 0, 0)">
    <defs>
      <style>.fa-secondary{opacity:.4}</style>
    </defs>
    <path d="M192, 0C86.4, 0 0, 86.4 0, 192C0, 268.8 25.6, 291.2 172.8, 502.4A24 24 0 0 0 211.2, 502.4C358.4, 291.2 384, 268.8 384, 192C384, 86.4 297.6, 0 192, 0zM148.83, 283.15L106, 288A9 9 0 0 1 96, 278.05L100.8, 235.22L186.34, 149.68L234.34, 197.68zM282.74, 149.25L254.48, 177.51L206.48, 129.51L234.74, 101.25A18 18 0 0 1 260.15, 101.25L282.72, 123.82A18 18 0 0 1 282.74, 149.25z" fill="#727272" opacity="0.4" fill-opacity="1" class="Black" />
    <path d="M282.74, 123.84L260.17, 101.27A18 18 0 0 0 234.76, 101.27L206.5, 129.53L254.5, 177.53L282.76, 149.27A18 18 0 0 0 282.74, 123.84zM100.85, 235.17L96.05, 278A9 9 0 0 0 106, 288L148.83, 283.2L234.37, 197.66L186.37, 149.66z" fill="#727272" fill-opacity="1" class="Black" />
  </g>
</svg>