<?xml version='1.0' encoding='UTF-8'?>
<svg viewBox="-5.5061 -1.9998 32 31.9975" xmlns="http://www.w3.org/2000/svg">
  <g transform="matrix(0.0547, 0, 0, 0.0547, 0, 0)">
    <defs>
      <style>.fa-secondary{opacity:.4}</style>
    </defs>
    <path d="M192, 0C86, 0 0, 86 0, 192C0, 269.41 27, 291 172.27, 501.67A24 24 0 0 0 211.73, 501.67C357, 291 384, 269.41 384, 192C384, 86 298, 0 192, 0zM192, 288A96 96 0 1 1 288, 192A96 96 0 0 1 192, 288z" fill="#727272" opacity="0.4" fill-opacity="1" class="Black" />
    <path d="M192, 256A64 64 0 1 1 256, 192A64 64 0 0 1 192, 256z" fill="#727272" fill-opacity="1" class="Black" />
  </g>
</svg>