<?xml version='1.0' encoding='UTF-8'?>
<svg viewBox="-1.995 -4.7973 31.9975 32" xmlns="http://www.w3.org/2000/svg">
  <g transform="matrix(0.999, 0, 0, 0.999, 0, 0)">
    <g transform="matrix(0.0438, 0, 0, 0.0438, 0, 0)">
      <defs>
        <style>.fa-secondary{opacity:.4}</style>
      </defs>
      <path d="M157.4, 89.88A191.85 191.85 0 0 1 320, 0C426, 0 512, 86 512, 192C512, 238.83 502.12, 265.25 462.17, 325.43zM300.8, 502.4A24 24 0 0 0 339.2, 502.4C357.8, 475.71 374.43, 452.08 389.34, 430.93L131.47, 231.62C142.18, 284.17 181.62, 331.4 300.8, 502.4z" fill="#727272" opacity="0.4" fill-opacity="1" class="Black" />
      <path d="M3.37, 31.45L23, 6.18A16 16 0 0 1 45.47, 3.37L633.82, 458.1A16 16 0 0 1 636.64, 480.55L617, 505.82A16 16 0 0 1 594.54, 508.63L6.18, 53.9A16 16 0 0 1 3.37, 31.45z" fill="#727272" fill-opacity="1" class="Black" />
    </g>
  </g>
</svg>