<?xml version='1.0' encoding='UTF-8'?>
<svg viewBox="-1.9998 -3.5563 31.9975 32" xmlns="http://www.w3.org/2000/svg">
  <g transform="matrix(0.0486, 0, 0, 0.0486, 0, 0)">
    <defs>
      <style>.fa-secondary{opacity:.4}</style>
    </defs>
    <path d="M554.06, 161.16L416, 224L416, 512L555.88, 456.05A32 32 0 0 0 576, 426.34L576, 176A16 16 0 0 0 554.06, 161.16zM20.12, 216A32 32 0 0 0 0, 245.66L0, 496A16 16 0 0 0 21.94, 510.86L160, 448L160, 214.92A302.84 302.84 0 0 1 138.75, 168.5zM288, 359.67A47.78 47.78 0 0 1 251.49, 342.67C231.83, 319.51 210.92, 293.09 192, 266L192, 448L384, 512L384, 266C365.08, 293.09 344.18, 319.52 324.51, 342.72A47.8 47.8 0 0 1 288, 359.67z" fill="#727272" opacity="0.4" fill-opacity="1" class="Black" />
    <path d="M288, 0A126 126 0 0 0 162, 126C162, 182.26 244.35, 284.8 275.9, 322A15.77 15.77 0 0 0 300.1, 322C331.65, 284.8 414, 182.26 414, 126A126 126 0 0 0 288, 0zM288, 168A42 42 0 1 1 330, 126A42 42 0 0 1 288, 168z" fill="#727272" fill-opacity="1" class="Black" />
  </g>
</svg>