<?xml version='1.0' encoding='UTF-8'?>
<svg viewBox="-5.5053 -2 32 32" xmlns="http://www.w3.org/2000/svg">
  <g transform="matrix(0.0547, 0, 0, 0.0547, 0, 0)">
    <defs>
      <style>.fa-secondary{opacity:.4}</style>
    </defs>
    <path d="M192, 0C86.4, 0 0, 86.4 0, 192C0, 268.8 25.6, 291.2 172.8, 502.4A24 24 0 0 0 211.2, 502.4C358.4, 291.2 384, 268.8 384, 192C384, 86.4 297.6, 0 192, 0zM304, 200A16 16 0 0 1 288, 216L96, 216A16 16 0 0 1 80, 200L80, 184A16 16 0 0 1 96, 168L288, 168A16 16 0 0 1 304, 184z" fill="#727272" opacity="0.4" fill-opacity="1" class="Black" />
    <path d="M304, 184L304, 200A16 16 0 0 1 288, 216L96, 216A16 16 0 0 1 80, 200L80, 184A16 16 0 0 1 96, 168L288, 168A16 16 0 0 1 304, 184z" fill="#727272" fill-opacity="1" class="Black" />
  </g>
</svg>