<?xml version='1.0' encoding='UTF-8'?>
<svg viewBox="-2.0237 -1.9975 32 32" xmlns="http://www.w3.org/2000/svg">
  <g transform="matrix(0.0547, 0, 0, 0.0547, 0, 0)">
    <defs>
      <style>.fa-secondary{opacity:.4}</style>
    </defs>
    <path d="M169.36, 214.63L297.36, 342.63L222, 418.05A327 327 0 0 1 26.66, 511.85A24 24 0 0 1 0.15, 485.34L0.15, 485.11A327 327 0 0 1 94, 290z" fill="#727272" opacity="0.4" fill-opacity="1" class="Black" />
    <path d="M485.5, 154.53L320, 320L192, 192L290.48, 93.53L270.88, 73.94L183.73, 161.09A16 16 0 0 1 161.1, 161.09L138.48, 138.47A16 16 0 0 1 138.48, 115.84L242.6, 11.72A40 40 0 0 1 299.16, 11.72L335.72, 48.27L357.48, 26.51A90.52 90.52 0 0 1 485.48, 154.51z" fill="#727272" fill-opacity="1" class="Black" />
  </g>
</svg>