<?xml version='1.0' encoding='UTF-8'?>
<svg viewBox="-2 2.6609 32 32" xmlns="http://www.w3.org/2000/svg">
  <g transform="matrix(0.0729, 0, 0, 0.0729, 0, 0)">
    <defs>
      <style>.fa-secondary{opacity:.4}</style>
    </defs>
    <path d="M144, 384A80 80 0 1 1 224, 304A80 80 0 0 1 144, 384z" fill="#727272" opacity="0.4" fill-opacity="1" class="Black" />
    <path d="M372, 64L293, 64A12 12 0 0 0 284.5, 84.5L301.4, 101.4L283.9, 118.9L269.8, 104.8A12 12 0 0 0 252.8, 104.8L224.5, 133A12 12 0 0 0 224.5, 150L238.6, 164.1L220.6, 182.1A143.3 143.3 0 0 0 143.9, 160C64.5, 160 0, 224.5 0, 304A144 144 0 1 0 265.9, 227.3L283.9, 209.3L298, 223.4A12 12 0 0 0 315, 223.4L343.3, 195.1A12 12 0 0 0 343.3, 178.1L329.2, 164L346.7, 146.5L363.6, 163.4A12 12 0 0 0 384.1, 154.9L384.1, 76A12.19 12.19 0 0 0 372, 64zM144, 384A80 80 0 1 1 224, 304A80 80 0 0 1 144, 384z" fill="#727272" fill-opacity="1" class="Black" />
  </g>
</svg>