<?xml version='1.0' encoding='UTF-8'?>
<svg viewBox="-1.995 -1.063 32 32" xmlns="http://www.w3.org/2000/svg">
  <g transform="matrix(1.0008, 0, 0, 1.0008, 0, 0)">
    <g transform="matrix(0.0583, 0, 0, 0.0583, 0, 0)">
      <defs>
        <style>.fa-secondary{opacity:.4}</style>
      </defs>
      <path d="M200.54, 312.58A80.06 80.06 0 1 1 200.54, 199.38A80.09 80.09 0 0 1 200.54, 312.58z" fill="#727272" opacity="0.4" fill-opacity="1" class="Black" />
      <path d="M476.41, 247.44L420.41, 191.51A12 12 0 0 0 399.9, 200L399.9, 224L376.16, 224L376.16, 204A12 12 0 0 0 364.16, 192L324.16, 192A12 12 0 0 0 312.16, 204L312.16, 224L284.47, 224A144 144 0 1 0 284.47, 288L312.1, 288L312.1, 308A12 12 0 0 0 324.1, 320L364.1, 320A12 12 0 0 0 376.1, 308L376.1, 288L400.03, 288L400.03, 311.91A12 12 0 0 0 420.55, 320.42L476.5, 264.49A12.12 12.12 0 0 0 476.41, 247.44zM200.54, 312.58A80.06 80.06 0 1 1 200.54, 199.38A80.09 80.09 0 0 1 200.54, 312.58z" fill="#727272" fill-opacity="1" class="Black" />
    </g>
  </g>
</svg>