<?xml version='1.0' encoding='UTF-8'?>
<svg viewBox="-1.9986 2.6698 32 31.995" xmlns="http://www.w3.org/2000/svg">
  <g transform="matrix(0.0729, 0, 0, 0.0729, 0, 0)">
    <defs>
      <style>.fa-secondary{opacity:.4}</style>
    </defs>
    <path d="M143.9, 384A80 80 0 1 1 223.9, 304A80 80 0 0 1 143.9, 384z" fill="#727272" opacity="0.4" fill-opacity="1" class="Black" />
    <path d="M371.9, 64L292.9, 64A12 12 0 0 0 284.4, 84.5L301.3, 101.4L220.6, 182.1A143.94 143.94 0 1 0 265.8, 227.3L346.5, 146.6L363.4, 163.5A12 12 0 0 0 383.9, 155L383.9, 76A12 12 0 0 0 371.9, 64zM143.9, 384A80 80 0 1 1 223.9, 304A80 80 0 0 1 143.9, 384z" fill="#727272" fill-opacity="1" class="Black" />
  </g>
</svg>