<?xml version='1.0' encoding='UTF-8'?>
<svg viewBox="-1.9975 -2 31.9975 32" xmlns="http://www.w3.org/2000/svg">
  <g transform="matrix(0.0547, 0, 0, 0.0547, 0, 0)">
    <defs>
      <style>.fa-secondary{opacity:.4}</style>
    </defs>
    <path d="M127.18, 0L16, 0A16 16 0 0 0 2.92, 25.18L114.19, 184.18A207 207 0 0 1 223.75, 130.79L154.62, 15.54A32 32 0 0 0 127.18, 0zM496, 0L384.82, 0A32 32 0 0 0 357.38, 15.54L288.25, 130.75A207 207 0 0 1 397.81, 184.13L509.08, 25.18A16 16 0 0 0 496, 0z" fill="#727272" opacity="0.4" fill-opacity="1" class="Black" />
    <path d="M256, 160A176 176 0 1 0 432, 336A176 176 0 0 0 256, 160zM348.52, 317.26L310.59, 354.26L319.59, 406.48A11.48 11.48 0 0 1 302.94, 418.57L256, 393.88L209.1, 418.53A11.48 11.48 0 0 1 192.45, 406.44L201.45, 354.22L163.52, 317.22A11.49 11.49 0 0 1 169.87, 297.63L222.27, 290L245.7, 242.48A11.5 11.5 0 0 1 266.31, 242.48L289.74, 290L342.17, 297.64A11.49 11.49 0 0 1 348.52, 317.26z" fill="#727272" fill-opacity="1" class="Black" />
  </g>
</svg>