<?xml version='1.0' encoding='UTF-8'?>
<svg viewBox="-1.9999 -3.5527 32 31.9975" xmlns="http://www.w3.org/2000/svg">
  <g transform="matrix(0.0486, 0, 0, 0.0486, 0, 0)">
    <defs>
      <style>.fa-secondary{opacity:.4}</style>
    </defs>
    <path d="M480, 64L64, 192L64, 320L165.72, 351.3A96 96 0 1 0 349.05, 407.71L480, 448zM256, 432A48 48 0 0 1 211.73, 365.46L303, 393.55A48.07 48.07 0 0 1 256, 432z" fill="#727272" opacity="0.4" fill-opacity="1" class="Black" />
    <path d="M560, 32L528, 32A16 16 0 0 0 512, 48L512, 464A16 16 0 0 0 528, 480L560, 480A16 16 0 0 0 576, 464L576, 48A16 16 0 0 0 560, 32zM32, 160A32 32 0 0 0 0, 192L0, 320A32 32 0 0 0 64, 320L64, 192A32 32 0 0 0 32, 160z" fill="#727272" fill-opacity="1" class="Black" />
  </g>
</svg>