<?xml version='1.0' encoding='UTF-8'?>
<svg viewBox="-2 -4.7992 32 32" xmlns="http://www.w3.org/2000/svg">
  <g transform="matrix(0.9988, 0, 0, 0.9988, 0, 0)">
    <g transform="matrix(0.0438, 0, 0, 0.0438, 0, 0)">
      <defs>
        <style>.fa-secondary{opacity:.4}</style>
      </defs>
      <path d="M480, 64A32 32 0 0 0 544, 64C544, 46.33 512, 0 512, 0C512, 0 480, 46.33 480, 64zM384, 64A32 32 0 0 0 448, 64C448, 46.33 416, 0 416, 0C416, 0 384, 46.33 384, 64zM0, 64A32 32 0 0 0 64, 64C64, 46.33 32, 0 32, 0C32, 0 0, 46.33 0, 64zM288, 64A32 32 0 0 0 352, 64C352, 46.33 320, 0 320, 0C320, 0 288, 46.33 288, 64zM192, 64A32 32 0 0 0 256, 64C256, 46.33 224, 0 224, 0C224, 0 192, 46.33 192, 64zM96, 64A32 32 0 0 0 160, 64C160, 46.33 128, 0 128, 0C128, 0 96, 46.33 96, 64zM608, 0C608, 0 576, 46.33 576, 64A32 32 0 0 0 640, 64C640, 46.33 608, 0 608, 0z" fill="#727272" opacity="0.4" fill-opacity="1" class="Black" />
      <path d="M160, 144A16 16 0 0 0 144, 128L112, 128A16 16 0 0 0 96, 144L96, 288L160, 288zM448, 144A16 16 0 0 0 432, 128L400, 128A16 16 0 0 0 384, 144L384, 288L448, 288zM256, 144A16 16 0 0 0 240, 128L208, 128A16 16 0 0 0 192, 144L192, 288L256, 288zM544, 144A16 16 0 0 0 528, 128L496, 128A16 16 0 0 0 480, 144L480, 288L544, 288zM624, 128L592, 128A16 16 0 0 0 576, 144L576, 288A32 32 0 0 1 544, 320L352, 320L352, 144A16 16 0 0 0 336, 128L304, 128A16 16 0 0 0 288, 144L288, 320L96, 320A32 32 0 0 1 64, 288L64, 144A16 16 0 0 0 48, 128L16, 128A16 16 0 0 0 0, 144L0, 288A96 96 0 0 0 96, 384L288, 384L288, 448L112, 448A16 16 0 0 0 96, 464L96, 496A16 16 0 0 0 112, 512L528, 512A16 16 0 0 0 544, 496L544, 464A16 16 0 0 0 528, 448L352, 448L352, 384L544, 384A96 96 0 0 0 640, 288L640, 144A16 16 0 0 0 624, 128z" fill="#727272" fill-opacity="1" class="Black" />
    </g>
  </g>
</svg>