<?xml version='1.0' encoding='UTF-8'?>
<svg viewBox="-8.1783 -2 32 32" xmlns="http://www.w3.org/2000/svg">
  <g transform="matrix(0.0547, 0, 0, 0.0547, 0, 0)">
    <defs>
      <style>.fa-secondary{opacity:.4}</style>
    </defs>
    <path d="M143, 288A80 80 0 1 1 223, 208A80 80 0 0 1 143, 288z" fill="#727272" opacity="0.4" fill-opacity="1" class="Black" />
    <path d="M287, 208A143.64 143.64 0 0 0 235.8, 97.9C238.3, 96.1 240.7, 94.1 243, 92.1C267.7, 70.9 282.8, 43.3 286.2, 13.3A11.89 11.89 0 0 0 275.83, 0.08A12.79 12.79 0 0 0 274.31, 0L233.81, 0A12 12 0 0 0 222, 9.8C219.6, 22.3 212.4, 34.1 201.31, 43.6C186, 56.8 165.32, 64 143, 64C120.68, 64 100, 56.8 84.6, 43.6C73.5, 34.1 66.4, 22.3 63.9, 9.8A12 12 0 0 0 52.23, 0L11.73, 0A11.88 11.88 0 0 0 -0.27, 11.76A13.08 13.08 0 0 0 -0.18, 13.3C3.23, 43.4 18.23, 71 43, 92.2C45.3, 94.2 47.7, 96.1 50.2, 98A143.9 143.9 0 0 0 111, 348.4L111, 400L75, 400A12 12 0 0 0 63, 412L63, 452A12 12 0 0 0 75, 464L111, 464L111, 500A12 12 0 0 0 123, 512L163, 512A12 12 0 0 0 175, 500L175, 464L211, 464A12 12 0 0 0 223, 452L223, 412A12 12 0 0 0 211, 400L175, 400L175, 348.4A144 144 0 0 0 287, 208zM143, 288A80 80 0 1 1 223, 208A80 80 0 0 1 143, 288z" fill="#727272" fill-opacity="1" class="Black" />
  </g>
</svg>