<?xml version='1.0' encoding='UTF-8'?>
<svg viewBox="-6.3751 -2 32 32" xmlns="http://www.w3.org/2000/svg">
  <g transform="matrix(0.0547, 0, 0, 0.0547, 0, 0)">
    <defs>
      <style>.fa-secondary{opacity:.4}</style>
    </defs>
    <path d="M80, 256L80, 96A96 96 0 0 1 272, 96L272, 256A96 96 0 0 1 80, 256z" fill="#727272" opacity="0.4" fill-opacity="1" class="Black" />
    <path d="M352, 256C352, 344.9 285.71, 418.47 200, 430.23L200, 464L256, 464A16 16 0 0 1 272, 480L272, 496A16 16 0 0 1 256, 512L96, 512A16 16 0 0 1 80, 496L80, 480A16 16 0 0 1 96, 464L152, 464L152, 429.85C64, 417.71 0, 337.8 0, 248.16L0, 208A16 16 0 0 1 16, 192L32, 192A16 16 0 0 1 48, 208L48, 250.3C48, 317.11 96.71, 376.89 163.21, 383.38A128.15 128.15 0 0 0 304, 256L304, 208A16 16 0 0 1 320, 192L336, 192A16 16 0 0 1 352, 208z" fill="#727272" fill-opacity="1" class="Black" />
  </g>
</svg>