<?xml version='1.0' encoding='UTF-8'?>
<svg viewBox="-2.04 -4.7973 32 32" xmlns="http://www.w3.org/2000/svg">
  <g transform="matrix(0.999, 0, 0, 0.999, 0, 0)">
    <g transform="matrix(0.0438, 0, 0, 0.0438, 0, 0)">
      <defs>
        <style>.fa-secondary{opacity:.4}</style>
      </defs>
      <path d="M436.61, 306.45A127.25 127.25 0 0 0 447, 256L447, 208A16 16 0 0 1 463, 192L479, 192A16 16 0 0 1 495, 208L495, 256A174.58 174.58 0 0 1 475.46, 336.47zM399, 464L343, 464L343, 430.22A175.69 175.69 0 0 0 377, 422.14L326.6, 383.14C319.89, 383.54 313.19, 384.01 306.25, 383.34C250.4, 377.89 207.51, 334.71 195.07, 281.49L143.07, 241.27L143.07, 248.12C143.07, 337.76 207.07, 417.67 295.07, 429.81L295.07, 464L239, 464A16 16 0 0 0 223, 480L223, 496A16 16 0 0 0 239, 512L399, 512A16 16 0 0 0 415, 496L415, 480A16 16 0 0 0 399, 464zM410.2, 286A95.94 95.94 0 0 0 415, 256L415, 96A96 96 0 0 0 223, 96L223, 141.35z" fill="#727272" opacity="0.4" fill-opacity="1" class="Black" />
      <path d="M2.37, 31.45L22, 6.18A16 16 0 0 1 44.47, 3.37L632.82, 458.1A16 16 0 0 1 635.64, 480.55L616, 505.82A16 16 0 0 1 593.54, 508.63L5.18, 53.9A16 16 0 0 1 2.37, 31.45z" fill="#727272" fill-opacity="1" class="Black" />
    </g>
  </g>
</svg>