<?xml version='1.0' encoding='UTF-8'?>
<svg viewBox="-1.9988 -2 32 32" xmlns="http://www.w3.org/2000/svg">
  <g transform="matrix(0.0547, 0, 0, 0.0547, 0, 0)">
    <defs>
      <style>.fa-secondary{opacity:.4}</style>
    </defs>
    <path d="M6.73, 423.18A26.67 26.67 0 0 0 7.81, 459.75L52.25, 504.19A26.67 26.67 0 0 0 88.82, 505.26L344, 280L232, 168zM314.34, 35.72L291.72, 58.34L453.66, 220.28L476.28, 197.65z" fill="#727272" opacity="0.4" fill-opacity="1" class="Black" />
    <path d="M289.54, 60.53C265.7, 84.37 254.98, 116.08 256.54, 147.3L364.7, 255.44C395.91, 257.02 427.63, 246.3 451.47, 222.44L453.66, 220.26L291.72, 58.34zM478.46, 33.53A114.49 114.49 0 0 0 316.53, 33.53L314.34, 35.71L476.28, 197.65L478.46, 195.47A114.49 114.49 0 0 0 478.46, 33.54zM224, 512L288, 512L288, 329.44L224, 385.93z" fill="#727272" fill-opacity="1" class="Black" />
  </g>
</svg>