<?xml version='1.0' encoding='UTF-8'?>
<svg viewBox="-2 -2 32 32" xmlns="http://www.w3.org/2000/svg">
  <g transform="matrix(0.0547, 0, 0, 0.0547, 0, 0)">
    <defs>
      <style>.fa-secondary{opacity:.4}</style>
    </defs>
    <path d="M104, 384L312, 384A8 8 0 0 1 320, 392L320, 408A8 8 0 0 1 312, 416L104, 416A8 8 0 0 1 96, 408L96, 392A8 8 0 0 1 104, 384z" fill="#727272" opacity="0.4" fill-opacity="1" class="Black" />
    <path d="M464, 448L462.71, 448A191 191 0 0 0 512, 320C512, 214.12 425.88, 128 320, 128L320, 192A128 128 0 0 1 320, 448L48, 448A48 48 0 0 0 0, 496A16 16 0 0 0 16, 512L496, 512A16 16 0 0 0 512, 496A48 48 0 0 0 464, 448zM160, 320L172, 320L172, 336A16 16 0 0 0 188, 352L228, 352A16 16 0 0 0 244, 336L244, 320L256, 320A32 32 0 0 0 288, 288L288, 64A32 32 0 0 0 256, 32L256, 16A16 16 0 0 0 240, 0L176, 0A16 16 0 0 0 160, 16L160, 32A32 32 0 0 0 128, 64L128, 288A32 32 0 0 0 160, 320z" fill="#727272" fill-opacity="1" class="Black" />
  </g>
</svg>