<?xml version='1.0' encoding='UTF-8'?>
<svg viewBox="-6.3751 -2 32 32" xmlns="http://www.w3.org/2000/svg">
  <g transform="matrix(0.0547, 0, 0, 0.0547, 0, 0)">
    <defs>
      <style>.fa-secondary{opacity:.4}</style>
    </defs>
    <path d="M80, 256L80, 96A96 96 0 0 1 272, 96L186.67, 96C180.78, 96 176, 99.58 176, 104L176, 120C176, 124.42 180.78, 128 186.67, 128L272, 128L272, 160L186.67, 160C180.78, 160 176, 163.58 176, 168L176, 184C176, 188.42 180.78, 192 186.67, 192L272, 192L272, 224L186.67, 224C180.78, 224 176, 227.58 176, 232L176, 248C176, 252.42 180.78, 256 186.67, 256L272, 256A96 96 0 0 1 80, 256z" fill="#727272" opacity="0.4" fill-opacity="1" class="Black" />
    <path d="M186.67, 128L272, 128L272, 96L186.67, 96C180.78, 96 176, 99.58 176, 104L176, 120C176, 124.42 180.78, 128 186.67, 128zM186.67, 192L272, 192L272, 160L186.67, 160C180.78, 160 176, 163.58 176, 168L176, 184C176, 188.42 180.78, 192 186.67, 192zM336, 192L320, 192A16 16 0 0 0 304, 208L304, 256A128.15 128.15 0 0 1 163.21, 383.38C96.71, 376.89 48, 317.11 48, 250.3L48, 208A16 16 0 0 0 32, 192L16, 192A16 16 0 0 0 0, 208L0, 248.16C0, 337.8 64, 417.71 152, 429.85L152, 464L96, 464A16 16 0 0 0 80, 480L80, 496A16 16 0 0 0 96, 512L256, 512A16 16 0 0 0 272, 496L272, 480A16 16 0 0 0 256, 464L200, 464L200, 430.23C285.71, 418.47 352, 344.9 352, 256L352, 208A16 16 0 0 0 336, 192zM186.67, 256L272, 256L272, 224L186.67, 224C180.78, 224 176, 227.58 176, 232L176, 248C176, 252.42 180.78, 256 186.67, 256z" fill="#727272" fill-opacity="1" class="Black" />
  </g>
</svg>