<?xml version='1.0' encoding='UTF-8'?>
<svg viewBox="-1.9974 -3.5565 31.9975 32" xmlns="http://www.w3.org/2000/svg">
  <g transform="matrix(0.0486, 0, 0, 0.0486, 0, 0)">
    <defs>
      <style>.fa-secondary{opacity:.4}</style>
    </defs>
    <path d="M554, 394.1C520.7, 427.4 461.3, 422 421.3, 382C395.3, 356 382.7, 292.4 377.1, 251.1L311.9, 185.9L311.9, 282.2C340.3, 314.9 383.9, 371.4 383.9, 409.5C383.9, 466.1 340.9, 511.9 287.9, 511.9C234.9, 511.9 191.9, 466.1 191.9, 409.5C191.9, 400.9 194.4, 391.3 198.1, 381.4A69.54 69.54 0 0 0 215.9, 383.9A71.75 71.75 0 0 0 263.9, 258.6L263.9, 185.8L198.8, 251.1C197.97, 257.21 196.99, 263.81 195.8, 270.7A42.62 42.62 0 0 0 179.8, 336.28C173.34, 355 165.05, 371.54 154.6, 382C114.6, 422 55.2, 427.4 21.9, 394.1C-11.4, 360.8 -6.1, 301.4 33.9, 261.4C59.9, 235.4 123.5, 222.8 164.8, 217.2L263.93, 118.1L263.93, 16A16 16 0 0 1 279.93, 0L295.93, 0A16 16 0 0 1 311.93, 16L311.93, 32.3A74.59 74.59 0 0 0 298.63, 74.7A73.84 73.84 0 0 0 311.93, 117.1L411.13, 217.2C452.43, 222.8 516.03, 235.4 542.03, 261.4C582, 301.4 587.43, 360.8 554, 394.1z" fill="#727272" opacity="0.4" fill-opacity="1" class="Black" />
    <path d="M373.23, 32A42.65 42.65 0 1 0 415.93, 74.6A42.68 42.68 0 0 0 373.23, 32zM213.23, 267A42.65 42.65 0 1 0 255.93, 309.6A42.68 42.68 0 0 0 213.23, 267z" fill="#727272" fill-opacity="1" class="Black" />
  </g>
</svg>