<?xml version='1.0' encoding='UTF-8'?>
<svg viewBox="-7.2499 -2 32 32" xmlns="http://www.w3.org/2000/svg">
  <g transform="matrix(0.0547, 0, 0, 0.0547, 0, 0)">
    <defs>
      <style>.fa-secondary{opacity:.4}</style>
    </defs>
    <path d="M272, 0L48, 0A48 48 0 0 0 0, 48L0, 464A48 48 0 0 0 48, 512L272, 512A48 48 0 0 0 320, 464L320, 48A48 48 0 0 0 272, 0zM208, 452A12 12 0 0 1 196, 464L124, 464A12 12 0 0 1 112, 452L112, 444A12 12 0 0 1 124, 432L196, 432A12 12 0 0 1 208, 444zM272, 372A12 12 0 0 1 260, 384L60, 384A12 12 0 0 1 48, 372L48, 60A12 12 0 0 1 60, 48L260, 48A12 12 0 0 1 272, 60z" fill="#727272" opacity="0.4" fill-opacity="1" class="Black" />
    <path d="M272, 372A12 12 0 0 1 260, 384L60, 384A12 12 0 0 1 48, 372L48, 60A12 12 0 0 1 60, 48L260, 48A12 12 0 0 1 272, 60z" fill="#727272" fill-opacity="1" class="Black" />
  </g>
</svg>