<?xml version='1.0' encoding='UTF-8'?>
<svg viewBox="-1.9999 -4.7979 32 31.9975" xmlns="http://www.w3.org/2000/svg">
  <g transform="matrix(1.0011, 0, 0, 1.0011, 0, 0)">
    <g transform="matrix(0.0437, 0, 0, 0.0437, 0, 0)">
      <defs>
        <style>.fa-secondary{opacity:.4}</style>
      </defs>
      <path d="M608, 32L32, 32A32 32 0 0 0 0, 64L0, 448A32 32 0 0 0 32, 480L608, 480A32 32 0 0 0 640, 448L640, 64A32 32 0 0 0 608, 32zM176, 327.88L176, 344A8 8 0 0 1 168, 352L152, 352A8 8 0 0 1 144, 344L144, 327.71A57.26 57.26 0 0 1 112.63, 316.36A8 8 0 0 1 112.06, 304.22L123.81, 293A8.21 8.21 0 0 1 133.94, 292.27A24.08 24.08 0 0 0 146.76, 296L174.87, 296C181.37, 296 186.67, 290.08 186.67, 282.81C186.67, 276.86 183.06, 271.62 177.9, 270.08L132.9, 256.58C114.31, 251 101.32, 233.16 101.32, 213.19C101.32, 188.67 120.37, 168.75 143.99, 168.12L143.99, 152A8 8 0 0 1 151.99, 144L167.99, 144A8 8 0 0 1 175.99, 152L175.99, 168.29A57.18 57.18 0 0 1 207.36, 179.64A8 8 0 0 1 207.93, 191.78L196.18, 203A8.21 8.21 0 0 1 186.05, 203.73A24 24 0 0 0 173.23, 200L145.12, 200C138.62, 200 133.32, 205.92 133.32, 213.19C133.32, 219.14 136.93, 224.38 142.09, 225.92L187.09, 239.42C205.68, 245 218.67, 262.84 218.67, 282.81C218.67, 307.34 199.62, 327.25 176, 327.88zM416, 312A8 8 0 0 1 408, 320L296, 320A8 8 0 0 1 288, 312L288, 296A8 8 0 0 1 296, 288L408, 288A8 8 0 0 1 416, 296zM576, 312A8 8 0 0 1 568, 320L488, 320A8 8 0 0 1 480, 312L480, 296A8 8 0 0 1 488, 288L568, 288A8 8 0 0 1 576, 296zM576, 216A8 8 0 0 1 568, 224L296, 224A8 8 0 0 1 288, 216L288, 200A8 8 0 0 1 296, 192L568, 192A8 8 0 0 1 576, 200z" fill="#727272" opacity="0.4" fill-opacity="1" class="Black" />
      <path d="M144, 168.12L144, 152A8 8 0 0 1 152, 144L168, 144A8 8 0 0 1 176, 152L176, 168.29A57.18 57.18 0 0 1 207.37, 179.64A8 8 0 0 1 207.94, 191.78L196.18, 203A8.21 8.21 0 0 1 186.05, 203.73A24 24 0 0 0 173.23, 200L145.12, 200C138.62, 200 133.32, 205.92 133.32, 213.19C133.32, 219.14 136.93, 224.38 142.09, 225.92L187.09, 239.42C205.68, 245 218.67, 262.84 218.67, 282.81C218.67, 307.34 199.67, 327.25 176, 327.88L176, 344A8 8 0 0 1 168, 352L152, 352A8 8 0 0 1 144, 344L144, 327.71A57.26 57.26 0 0 1 112.63, 316.36A8 8 0 0 1 112.06, 304.22L123.81, 293A8.21 8.21 0 0 1 133.94, 292.27A24.08 24.08 0 0 0 146.76, 296L174.87, 296C181.37, 296 186.67, 290.08 186.67, 282.81C186.67, 276.86 183.06, 271.62 177.9, 270.08L132.9, 256.58C114.31, 251 101.32, 233.16 101.32, 213.19C101.32, 188.67 120.37, 168.75 144, 168.12z" fill="#727272" fill-opacity="1" class="Black" />
    </g>
  </g>
</svg>