<?xml version='1.0' encoding='UTF-8'?>
<svg viewBox="-1.9999 -4.7979 32 31.9975" xmlns="http://www.w3.org/2000/svg">
  <g transform="matrix(1.0011, 0, 0, 1.0011, 0, 0)">
    <g transform="matrix(0.0437, 0, 0, 0.0437, 0, 0)">
      <defs>
        <style>.fa-secondary{opacity:.4}</style>
      </defs>
      <path d="M640, 192L640, 480A32 32 0 0 1 608, 512L32, 512A32 32 0 0 1 0, 480L0, 192A32 32 0 0 1 32, 160L203.06, 160L331, 288L104, 288A8 8 0 0 0 96, 296L96, 312A8 8 0 0 0 104, 320L363, 320L427, 384L104, 384A8 8 0 0 0 96, 392L96, 408A8 8 0 0 0 104, 416L560, 416A16 16 0 0 0 576, 400L576, 325.54A64 64 0 0 0 557.26, 280.28L437, 160L608, 160A32 32 0 0 1 640, 192z" fill="#727272" opacity="0.4" fill-opacity="1" class="Black" />
      <path d="M534.64, 302.91L303.18, 71.47L231.48, 143.17L462.87, 374.62A32 32 0 0 0 485.51, 384L528, 384A16 16 0 0 0 544, 368L544, 325.54A32 32 0 0 0 534.64, 302.91zM238.78, 7A24.1 24.1 0 0 0 204.88, 7L167, 44.87A24 24 0 0 0 167, 78.67L208.9, 120.57L280.6, 48.77z" fill="#727272" fill-opacity="1" class="Black" />
    </g>
  </g>
</svg>