<?xml version='1.0' encoding='UTF-8'?>
<svg viewBox="-1.9999 -4.7979 32 31.9975" xmlns="http://www.w3.org/2000/svg">
  <g transform="matrix(1.0011, 0, 0, 1.0011, 0, 0)">
    <g transform="matrix(0.0437, 0, 0, 0.0437, 0, 0)">
      <defs>
        <style>.fa-secondary{opacity:.4}</style>
      </defs>
      <path d="M545.58, 371.77A112.42 112.42 0 0 1 592.01, 330.77L592.01, 133.21A112.4 112.4 0 0 1 539.85, 82.12A283.47 283.47 0 0 0 504.75, 80C449.15, 80 392.14, 94.43 331.75, 109.7C268.36, 125.7 202.8, 142.34 135.24, 142.34A385.14 385.14 0 0 1 94.41, 140.22A112.42 112.42 0 0 1 47.99, 181.22L47.99, 378.79A112.42 112.42 0 0 1 100.14, 429.88A283.47 283.47 0 0 0 135.24, 432C190.84, 432 247.86, 417.57 308.24, 402.29C371.64, 386.24 437.24, 369.65 504.77, 369.65A385 385 0 0 1 545.58, 371.77zM320, 352C275.81, 352 240, 309 240, 256C240, 203 275.82, 160 320, 160C364.18, 160 400, 203 400, 256C400, 309 364.17, 352 320, 352z" fill="#727272" opacity="0.4" fill-opacity="1" class="Black" />
      <path d="M621.16, 54.46C582.37, 38.19 543.55, 32 504.75, 32C381.56, 32 258.41, 94.34 135.25, 94.34C104.36, 94.34 73.49, 90.42 42.6, 80.62A34.19 34.19 0 0 0 32.25, 79C15, 79 0, 92.32 0, 110.81L0, 428.07C0, 440.7 7.23, 452.67 18.84, 457.53C57.63, 473.81 96.45, 480 135.25, 480C258.42, 480 381.59, 417.65 504.76, 417.65C535.65, 417.65 566.52, 421.57 597.41, 431.37A34.19 34.19 0 0 0 607.76, 433C625, 433 640, 419.67 640, 401.18L640, 83.93C640, 71.29 632.77, 59.33 621.16, 54.46zM308.23, 402.29C247.87, 417.57 190.85, 432 135.25, 432A283.47 283.47 0 0 1 100.15, 429.88A112.42 112.42 0 0 0 48, 378.79L48, 181.21A112.42 112.42 0 0 0 94.42, 140.21A385.14 385.14 0 0 0 135.25, 142.33C202.81, 142.33 268.37, 125.74 331.76, 109.69C392.11, 94.43 449.12, 80 504.72, 80A283.47 283.47 0 0 1 539.82, 82.12A112.4 112.4 0 0 0 592, 133.21L592, 330.79A112.42 112.42 0 0 0 545.57, 371.79A385 385 0 0 0 504.75, 369.67C437.19, 369.65 371.63, 386.24 308.23, 402.29z" fill="#727272" fill-opacity="1" class="Black" />
    </g>
  </g>
</svg>