<?xml version='1.0' encoding='UTF-8'?>
<svg viewBox="-1.9999 -4.7979 32 31.9975" xmlns="http://www.w3.org/2000/svg">
  <g transform="matrix(1.0011, 0, 0, 1.0011, 0, 0)">
    <g transform="matrix(0.0437, 0, 0, 0.0437, 0, 0)">
      <defs>
        <style>.fa-secondary{opacity:.4}</style>
      </defs>
      <path d="M101.22, 112A112.5 112.5 0 0 1 48, 165.22L48, 346.78A112.5 112.5 0 0 1 101.22, 400L538.78, 400A112.5 112.5 0 0 1 592, 346.78L592, 165.22A112.5 112.5 0 0 1 538.78, 112zM320, 368C267, 368 224, 317.84 224, 256C224, 194.16 267, 144 320, 144C373, 144 416, 194.14 416, 256C416, 317.86 373, 368 320, 368z" fill="#727272" opacity="0.4" fill-opacity="1" class="Black" />
      <path d="M616, 64L24, 64A24 24 0 0 0 0, 88L0, 424A24 24 0 0 0 24, 448L616, 448A24 24 0 0 0 640, 424L640, 88A24 24 0 0 0 616, 64zM592, 346.78A112.5 112.5 0 0 0 538.78, 400L101.22, 400A112.5 112.5 0 0 0 48, 346.78L48, 165.22A112.5 112.5 0 0 0 101.22, 112L538.78, 112A112.5 112.5 0 0 0 592, 165.22zM352, 288L336, 288L336, 200A8 8 0 0 0 328, 192L314.42, 192A24 24 0 0 0 301.11, 196L285.78, 206.22A8 8 0 0 0 283.56, 217.3L292.44, 230.61A8 8 0 0 0 303.52, 232.83L303.99, 232.52L303.99, 288L288, 288A8 8 0 0 0 280, 296L280, 312A8 8 0 0 0 288, 320L352, 320A8 8 0 0 0 360, 312L360, 296A8 8 0 0 0 352, 288z" fill="#727272" fill-opacity="1" class="Black" />
    </g>
  </g>
</svg>