<?xml version='1.0' encoding='UTF-8'?>
<svg viewBox="-2 -4.7992 32 32" xmlns="http://www.w3.org/2000/svg">
  <g transform="matrix(0.9988, 0, 0, 0.9988, 0, 0)">
    <g transform="matrix(0.0438, 0, 0, 0.0438, 0, 0)">
      <defs>
        <style>.fa-secondary{opacity:.4}</style>
      </defs>
      <path d="M0, 448A32 32 0 0 0 32, 480L608, 480A32 32 0 0 0 640, 448L640, 128L0, 128zM448, 240A16 16 0 0 1 464, 224L560, 224A16 16 0 0 1 576, 240L576, 272A16 16 0 0 1 560, 288L464, 288A16 16 0 0 1 448, 272zM448, 360A8 8 0 0 1 456, 352L568, 352A8 8 0 0 1 576, 360L576, 376A8 8 0 0 1 568, 384L456, 384A8 8 0 0 1 448, 376zM64, 264A8 8 0 0 1 72, 256L376, 256A8 8 0 0 1 384, 264L384, 280A8 8 0 0 1 376, 288L72, 288A8 8 0 0 1 64, 280zM64, 360A8 8 0 0 1 72, 352L248, 352A8 8 0 0 1 256, 360L256, 376A8 8 0 0 1 248, 384L72, 384A8 8 0 0 1 64, 376z" fill="#727272" opacity="0.4" fill-opacity="1" class="Black" />
      <path d="M568, 352L456, 352A8 8 0 0 0 448, 360L448, 376A8 8 0 0 0 456, 384L568, 384A8 8 0 0 0 576, 376L576, 360A8 8 0 0 0 568, 352zM376, 256L72, 256A8 8 0 0 0 64, 264L64, 280A8 8 0 0 0 72, 288L376, 288A8 8 0 0 0 384, 280L384, 264A8 8 0 0 0 376, 256zM248, 352L72, 352A8 8 0 0 0 64, 360L64, 376A8 8 0 0 0 72, 384L248, 384A8 8 0 0 0 256, 376L256, 360A8 8 0 0 0 248, 352zM624, 32L16, 32A16 16 0 0 0 0, 48L0, 96L640, 96L640, 48A16 16 0 0 0 624, 32z" fill="#727272" fill-opacity="1" class="Black" />
    </g>
  </g>
</svg>