<?xml version='1.0' encoding='UTF-8'?>
<svg viewBox="-2 -1.9988 32 32" xmlns="http://www.w3.org/2000/svg">
  <g transform="matrix(0.0547, 0, 0, 0.0547, 0, 0)">
    <defs>
      <style>.fa-secondary{opacity:.4}</style>
    </defs>
    <path d="M501.54, 60.91L402.46, 160L251.09, 160L454.9, 7.14A35.68 35.68 0 0 1 501.54, 60.91z" fill="#727272" opacity="0.4" fill-opacity="1" class="Black" />
    <path d="M16, 192L496, 192A16 16 0 0 1 512, 208L512, 240A16 16 0 0 1 496, 256L480, 256C480, 337 429.8, 406.11 358.87, 434.32A128.08 128.08 0 0 1 383.82, 493A16.43 16.43 0 0 1 367.75, 512L144.25, 512A16.43 16.43 0 0 1 128.18, 493A128.29 128.29 0 0 1 153.13, 434.31C82.2, 406.11 32, 337 32, 256L16, 256A16 16 0 0 1 0, 240L0, 208A16 16 0 0 1 16, 192z" fill="#727272" fill-opacity="1" class="Black" />
  </g>
</svg>