<?xml version='1.0' encoding='UTF-8'?>
<svg viewBox="-1.99 -4.795 32 32" xmlns="http://www.w3.org/2000/svg">
  <g transform="matrix(0.9991, 0, 0, 0.9991, 0, 0)">
    <g transform="matrix(0.0438, 0, 0, 0.0438, 0, 0)">
      <defs>
        <style>.fa-secondary{opacity:.4}</style>
      </defs>
      <path d="M252, 352A127.94 127.94 0 1 1 164.58, 197.3L140.58, 240.99A80 80 0 1 0 201.3, 352zM512, 192A127.81 127.81 0 0 0 470.54, 198.87L496.15, 241.58A80.22 80.22 0 1 1 454.15, 264.84L428.89, 222.67A128 128 0 1 0 512, 192z" fill="#727272" opacity="0.4" fill-opacity="1" class="Black" />
      <path d="M175.83, 176.8C166.73, 162.9 152.53, 152 128.03, 152L72, 152A24 24 0 0 1 48, 128.5C47.73, 115 59, 104 72.53, 104L128, 104C183, 104 210.2, 120.9 227.9, 144L381.6, 144L362.4, 112L296, 112A16 16 0 0 1 280, 96L280, 80A16 16 0 0 1 296, 64L376, 64A24.16 24.16 0 0 1 396.6, 75.6L419.4, 113.6L456.9, 71.9A24 24 0 0 1 474.7, 64L520, 64A23.94 23.94 0 0 1 544, 88L544, 120A23.94 23.94 0 0 1 520, 144L437.6, 144L544.7, 322.6A16.07 16.07 0 0 1 539.2, 344.6L525.5, 352.8A16.07 16.07 0 0 1 503.5, 347.3L416.4, 201.9A151.48 151.48 0 0 0 360.2, 326.9A24 24 0 0 1 336.2, 352L120, 352A24 24 0 0 1 99, 316.4z" fill="#727272" fill-opacity="1" class="Black" />
    </g>
  </g>
</svg>