<?xml version='1.0' encoding='UTF-8'?>
<svg viewBox="-5.5003 -2 32 32" xmlns="http://www.w3.org/2000/svg">
  <g transform="matrix(0.0547, 0, 0, 0.0547, 0, 0)">
    <defs>
      <style>.fa-secondary{opacity:.4}</style>
    </defs>
    <path d="M176, 0L160, 0A160 160 0 0 0 0, 160L0, 192L176, 192zM224, 0L208, 0L208, 192L384, 192L384, 160A160 160 0 0 0 224, 0zM0, 352A160 160 0 0 0 160, 512L224, 512A160 160 0 0 0 384, 352L384, 224L0, 224z" fill="#727272" opacity="0.4" fill-opacity="1" class="Black" />
    <path d="M384, 192L384, 224L0, 224L0, 192L176, 192L176, 0L208, 0L208, 192z" fill="#727272" fill-opacity="1" class="Black" />
  </g>
</svg>