<?xml version='1.0' encoding='UTF-8'?>
<svg viewBox="-1.9999 -1.9974 32 31.9975" xmlns="http://www.w3.org/2000/svg">
  <g transform="matrix(0.0547, 0, 0, 0.0547, 0, 0)">
    <defs>
      <style>.fa-secondary{opacity:.4}</style>
    </defs>
    <path d="M200.9, 44.79C195, 37.5 186.4, 32.4 176.3, 32.4L64, 32.4A32 32 0 0 0 32, 64.4L32, 128.29L162.1, 128.29A63.41 63.41 0 0 1 178.5, 67.19zM96, 224A32 32 0 0 0 160, 224L160, 160L96, 160zM343.3, 89.79L294.8, 41.4A32 32 0 0 0 249.54, 41.4L201, 89.79C190.6, 100.29 189.5, 116.1 196.7, 128.4L347.7, 128.4C354.9, 116.1 353.8, 100.29 343.3, 89.79z" fill="#727272" opacity="0.4" fill-opacity="1" class="Black" />
    <path d="M400, 160L224, 160L224, 160.27L160, 160.27L160, 223.77A32 32 0 0 1 96, 223.77L96, 160.27L32, 160.27A32 32 0 0 0 0, 192.27L0, 384.08A95.94 95.94 0 0 0 96, 480L288, 480A95.94 95.94 0 0 0 384, 384.12L384, 384L400, 384A112 112 0 0 0 400, 160zM400, 320L384, 320L384, 224L400, 224A48 48 0 0 1 400, 320z" fill="#727272" fill-opacity="1" class="Black" />
  </g>
</svg>