<?xml version='1.0' encoding='UTF-8'?>
<svg viewBox="-1.995 -4.7948 31.9975 32" xmlns="http://www.w3.org/2000/svg">
  <g transform="matrix(0.999, 0, 0, 0.999, 0, 0)">
    <g transform="matrix(0.0438, 0, 0, 0.0438, 0, 0)">
      <defs>
        <style>.fa-secondary{opacity:.4}</style>
      </defs>
      <path d="M192, 387.92A139 139 0 0 0 160, 384C107, 384 64, 412.66 64, 448C64, 483.34 107, 512 160, 512C213, 512 256, 483.34 256, 448L256, 327.88L192, 278.42zM534.38, 1.51L214.41, 96A31.87 31.87 0 0 0 193.41, 117.73L301.23, 201.05L512, 139.3L512, 323.92A139 139 0 0 0 480, 320A136.93 136.93 0 0 0 457.85, 322.11L568.76, 407.82C573.27, 400.45 576, 392.47 576, 384L576, 32A32 32 0 0 0 534.38, 1.51z" fill="#727272" opacity="0.4" fill-opacity="1" class="Black" />
      <path d="M633.82, 458.1L45.47, 3.39A16 16 0 0 0 23, 6.2L3.37, 31.47A16 16 0 0 0 6.18, 53.92L594.53, 508.63A16 16 0 0 0 617, 505.82L636.63, 480.55A16 16 0 0 0 633.82, 458.1z" fill="#727272" fill-opacity="1" class="Black" />
    </g>
  </g>
</svg>