<?xml version='1.0' encoding='UTF-8'?>
<svg viewBox="-1.995 -4.7948 31.9975 32" xmlns="http://www.w3.org/2000/svg">
  <g transform="matrix(0.999, 0, 0, 0.999, 0, 0)">
    <g transform="matrix(0.0438, 0, 0, 0.0438, 0, 0)">
      <defs>
        <style>.fa-secondary{opacity:.4}</style>
      </defs>
      <path d="M272, 352C210.14, 352 160, 387.82 160, 432C160, 476.18 210.14, 512 272, 512C333.86, 512 384, 476.18 384, 432L384, 426.82L289.08, 353.46A143.68 143.68 0 0 0 272, 352zM438.94, 1.33L342.4, 29.84A32 32 0 0 0 320, 60.34L320, 215.56L384, 265L384, 148.15L457, 126.76A32 32 0 0 0 480, 96.05L480, 32A32 32 0 0 0 438.94, 1.33z" fill="#727272" opacity="0.4" fill-opacity="1" class="Black" />
      <path d="M633.82, 458.1L45.47, 3.39A16 16 0 0 0 23, 6.2L3.37, 31.47A16 16 0 0 0 6.18, 53.92L594.53, 508.63A16 16 0 0 0 617, 505.82L636.63, 480.55A16 16 0 0 0 633.82, 458.1z" fill="#727272" fill-opacity="1" class="Black" />
    </g>
  </g>
</svg>