<?xml version='1.0' encoding='UTF-8'?>
<svg viewBox="-6.9992 0.0027 32 32" xmlns="http://www.w3.org/2000/svg">
  <g transform="matrix(0.0625, 0, 0, 0.0625, 0, 0)">
    <defs>
      <style>.fa-secondary{opacity:.4}</style>
    </defs>
    <path d="M144, 256A80 80 0 1 1 224, 176A80 80 0 0 1 144, 256z" fill="#727272" opacity="0.4" fill-opacity="1" class="Black" />
    <path d="M284.37, 144A144 144 0 1 0 112, 316.41L112, 468A12 12 0 0 0 124, 480L164, 480A12 12 0 0 0 176, 468L176, 316.41A144 144 0 0 0 284.37, 144zM144, 256A80 80 0 1 1 224, 176A80 80 0 0 1 144, 256z" fill="#727272" fill-opacity="1" class="Black" />
  </g>
</svg>