<?xml version='1.0' encoding='UTF-8'?>
<svg viewBox="-3.7494 -1.9974 32 31.9975" xmlns="http://www.w3.org/2000/svg">
  <g transform="matrix(0.0547, 0, 0, 0.0547, 0, 0)">
    <defs>
      <style>.fa-secondary{opacity:.4}</style>
    </defs>
    <path d="M35.59, 466.83A16 16 0 0 0 38.59, 489.25L64, 508.75A16 16 0 0 0 86.43, 505.75L168.52, 400L87.52, 400zM162, 304L243, 304L317.51, 208L236.51, 208zM441, 22.78L415.61, 3.29A16 16 0 0 0 393.18, 6.29L311.11, 112L392.11, 112L444, 45.21A16 16 0 0 0 441, 22.78z" fill="#727272" opacity="0.4" fill-opacity="1" class="Black" />
    <path d="M416, 304L32, 304A32 32 0 0 0 0, 336L0, 368A32 32 0 0 0 32, 400L416, 400A32 32 0 0 0 448, 368L448, 336A32 32 0 0 0 416, 304zM416, 112L32, 112A32 32 0 0 0 0, 144L0, 176A32 32 0 0 0 32, 208L416, 208A32 32 0 0 0 448, 176L448, 144A32 32 0 0 0 416, 112z" fill="#727272" fill-opacity="1" class="Black" />
  </g>
</svg>