<?xml version='1.0' encoding='UTF-8'?>
<svg viewBox="-2 -3.554 32 32" xmlns="http://www.w3.org/2000/svg">
  <g transform="matrix(0.0486, 0, 0, 0.0486, 0, 0)">
    <defs>
      <style>.fa-secondary{opacity:.4}</style>
    </defs>
    <path d="M544, 224L544, 416L570, 416A6 6 0 0 1 576, 422L576, 474A6 6 0 0 1 570, 480L518, 480A6 6 0 0 1 512, 474L512, 448L224, 448L224, 474A6 6 0 0 1 218, 480L166, 480A6 6 0 0 1 160, 474L160, 422A6 6 0 0 1 166, 416L192, 416L192, 320L224, 320L224, 416L512, 416L512, 224L384, 224L384, 192L512, 192L512, 166A6 6 0 0 1 518, 160L570, 160A6 6 0 0 1 576, 166L576, 218A6 6 0 0 1 570, 224z" fill="#727272" opacity="0.4" fill-opacity="1" class="Black" />
    <path d="M384, 96L384, 288L410, 288A6 6 0 0 1 416, 294L416, 346A6 6 0 0 1 410, 352L358, 352A6 6 0 0 1 352, 346L352, 320L64, 320L64, 346A6 6 0 0 1 58, 352L6, 352A6 6 0 0 1 0, 346L0, 294A6 6 0 0 1 6, 288L32, 288L32, 96L6, 96A6 6 0 0 1 0, 90L0, 38A6 6 0 0 1 6, 32L58, 32A6 6 0 0 1 64, 38L64, 64L352, 64L352, 38A6 6 0 0 1 358, 32L410, 32A6 6 0 0 1 416, 38L416, 90A6 6 0 0 1 410, 96z" fill="#727272" fill-opacity="1" class="Black" />
  </g>
</svg>