<?xml version='1.0' encoding='UTF-8'?>
<svg viewBox="-2 -4.7992 32 32" xmlns="http://www.w3.org/2000/svg">
  <g transform="matrix(0.9988, 0, 0, 0.9988, 0, 0)">
    <g transform="matrix(0.0438, 0, 0, 0.0438, 0, 0)">
      <defs>
        <style>.fa-secondary{opacity:.4}</style>
      </defs>
      <path d="M629.81, 160.31L416, 224L365.51, 198.76A64.2 64.2 0 0 0 336.9, 192L176, 192L37.72, 166.86A31.93 31.93 0 0 0 0, 198.34L0, 293.34A32 32 0 0 0 26.28, 324.82L96, 337.46L96, 384A32 32 0 0 0 128, 416L402.64, 416A32 32 0 0 0 425.4, 406.49L637.66, 191.74A8 8 0 0 0 640, 186.08L640, 168A8 8 0 0 0 629.81, 160.31zM96, 288.67L48, 279.94L48, 217.51L96, 226.24z" fill="#727272" opacity="0.4" fill-opacity="1" class="Black" />
      <path d="M592, 288C592, 288 549.33, 349.77 549.33, 373.33A42.67 42.67 0 0 0 634.67, 373.33C634.67, 349.76 592, 288 592, 288zM336, 96L176, 96A16 16 0 0 0 160, 112L160, 128A16 16 0 0 0 176, 144L232, 144L232, 192L280, 192L280, 144L336, 144A16 16 0 0 0 352, 128L352, 112A16 16 0 0 0 336, 96z" fill="#727272" fill-opacity="1" class="Black" />
    </g>
  </g>
</svg>