<?xml version='1.0' encoding='UTF-8'?>
<svg viewBox="-2 -2 32 32" xmlns="http://www.w3.org/2000/svg">
  <g transform="matrix(0.0547, 0, 0, 0.0547, 0, 0)">
    <defs>
      <style>.fa-secondary{opacity:.4}</style>
    </defs>
    <path d="M339, 39.37L360.6, 60.93A10.43 10.43 0 0 0 375.35, 60.93L396.92, 39.37A10.43 10.43 0 0 0 396.92, 24.62L375.35, 3.05A10.45 10.45 0 0 0 360.59, 3.05L339, 24.61A10.43 10.43 0 0 0 339, 39.36zM454.29, 67.26C368.74, 132.38 285.29, 70.01 281.71, 67.26A16 16 0 0 0 257.91, 87.61C259.52, 90.61 298.28, 159.95 376.71, 159.95C456.63, 159.95 475.49, 128.59 478.46, 122.29A15.78 15.78 0 0 0 479.99, 115.46L479.99, 80A16 16 0 0 0 454.29, 67.26z" fill="#727272" opacity="0.4" fill-opacity="1" class="Black" />
    <path d="M224, 384A64.07 64.07 0 0 0 160, 320L127, 320A15.92 15.92 0 0 1 113.83, 311.45L97.65, 279.27A16.08 16.08 0 0 1 112, 256L143.9, 256A48 48 0 1 0 113.63, 170.71A15.57 15.57 0 0 1 94.43, 170.92L68.32, 151.28A16.32 16.32 0 0 1 67.2, 126.35C92.31, 102.61 127.06, 91.64 163.2, 97.57C206.36, 104.65 242.62, 138.21 252.72, 180.76A112.69 112.69 0 0 1 245, 256L291.84, 256A35.66 35.66 0 0 0 317.22, 245.5L341.47, 221.25A99.9 99.9 0 0 1 512, 291.87L512, 392C512, 440.53 464.52, 480 416, 480C320, 480 320, 416 320, 416L320, 378.12A8 8 0 0 1 334.2, 373.12C349.31, 391.75 376.58, 416 416, 416C429.24, 416 448, 405.23 448, 392L448, 291.87A35.89 35.89 0 0 0 386.74, 266.49L362.49, 290.74A99.26 99.26 0 0 1 291.84, 320L270.15, 320C281.15, 338.9 287.96, 360.58 287.96, 384C287.96, 454.58 230.53, 512 159.96, 512C41.13, 512 -0.09, 416 0, 361.18C0, 352.38 10.26, 348.41 14.79, 355.96C37.59, 393.96 63.92, 447.96 159.94, 447.96A64.07 64.07 0 0 0 224, 384z" fill="#727272" fill-opacity="1" class="Black" />
  </g>
</svg>