<?xml version='1.0' encoding='UTF-8'?>
<svg viewBox="-5.4974 -1.9998 32 31.9975" xmlns="http://www.w3.org/2000/svg">
  <g transform="matrix(0.0547, 0, 0, 0.0547, 0, 0)">
    <defs>
      <style>.fa-secondary{opacity:.4}</style>
    </defs>
    <path d="M384.1, 320A190.88 190.88 0 0 1 372.9, 384L11.2, 384A186.89 186.89 0 0 1 11.4, 256L372.6, 256A194 194 0 0 1 384.1, 320zM136.58, 96A64 64 0 1 1 247.42, 96zM176, 64A16 16 0 1 0 192, 48A16 16 0 0 0 176, 64z" fill="#727272" opacity="0.4" fill-opacity="1" class="Black" />
    <path d="M192, 512C263, 512 324.9, 473.3 358.1, 416L25.9, 416C59.1, 473.3 121, 512 192, 512zM288, 153.82L288, 112A16 16 0 0 0 272, 96L112, 96A16 16 0 0 0 96, 112L96, 153.82A193.4 193.4 0 0 0 25.9, 224L358.1, 224A193.4 193.4 0 0 0 288, 153.82z" fill="#727272" fill-opacity="1" class="Black" />
  </g>
</svg>