<?xml version='1.0' encoding='UTF-8'?>
<svg viewBox="-2 0 32 32" xmlns="http://www.w3.org/2000/svg">
  <g transform="matrix(0.0625, 0, 0, 0.0625, 0, 0)">
    <defs>
      <style>.fa-secondary{opacity:.4}</style>
    </defs>
    <path d="M432, 416L16, 416A16 16 0 0 0 0, 432L0, 464A16 16 0 0 0 16, 480L432, 480A16 16 0 0 0 448, 464L448, 432A16 16 0 0 0 432, 416zM435.17, 288L204.83, 288A12.82 12.82 0 0 0 192, 300.83L192, 339.17A12.82 12.82 0 0 0 204.83, 352L435.17, 352A12.82 12.82 0 0 0 448, 339.17L448, 300.83A12.82 12.82 0 0 0 435.17, 288zM435.17, 160L204.83, 160A12.82 12.82 0 0 0 192, 172.83L192, 211.17A12.82 12.82 0 0 0 204.83, 224L435.17, 224A12.82 12.82 0 0 0 448, 211.17L448, 172.83A12.82 12.82 0 0 0 435.17, 160zM432, 32L16, 32A16 16 0 0 0 0, 48L0, 80A16 16 0 0 0 16, 96L432, 96A16 16 0 0 0 448, 80L448, 48A16 16 0 0 0 432, 32z" fill="#727272" opacity="0.4" fill-opacity="1" class="Black" />
    <path d="M100.69, 363.29C110.69, 373.29 128, 366.22 128, 351.98L128, 160C128, 145.68 110.67, 138.69 100.69, 148.69L4.69, 244.69A16 16 0 0 0 4.69, 267.31z" fill="#727272" fill-opacity="1" class="Black" />
  </g>
</svg>