<?xml version='1.0' encoding='UTF-8'?>
<svg viewBox="-2 -2 32 32" xmlns="http://www.w3.org/2000/svg">
  <g transform="matrix(0.0547, 0, 0, 0.0547, 0, 0)">
    <defs>
      <style>.fa-secondary{opacity:.4}</style>
    </defs>
    <path d="M512, 49.55C512, 65.69 505.48, 81.19 498.1, 95.55C385.06, 306.53 349.06, 352 287, 352A92 92 0 0 1 264.61, 349L200.79, 295.82A92.58 92.58 0 0 1 192.06, 257.12C192.06, 203.37 213.33, 199.12 417.74, 16.48C428.53, 6.71 442.74, 0 457.9, 0C486, 0 512, 20.64 512, 49.55z" fill="#727272" opacity="0.4" fill-opacity="1" class="Black" />
    <path d="M255, 382.68A86.64 86.64 0 0 1 256, 391.81C256, 468.23 203.87, 512 128, 512C37.94, 512 0, 439.62 0, 357.27C9.79, 363.95 44.14, 391.62 55.25, 391.62A15.26 15.26 0 0 0 69.84, 381.62C90.5, 327.18 126.91, 311.9 167.03, 309.32z" fill="#727272" fill-opacity="1" class="Black" />
  </g>
</svg>