<?xml version='1.0' encoding='UTF-8'?>
<svg viewBox="-2.0013 -1.9925 32 32" xmlns="http://www.w3.org/2000/svg">
  <g transform="matrix(0.0547, 0, 0, 0.0547, 0, 0)">
    <defs>
      <style>.fa-secondary{opacity:.4}</style>
    </defs>
    <path d="M490.92, 133L272.11, 354.51L194.11, 289.51L366, 33.1C428, -55.3 564.15, 52.52 490.92, 133z" fill="#727272" opacity="0.4" fill-opacity="1" class="Black" />
    <path d="M167.87, 309.29L254.94, 381.85A86.87 86.87 0 0 1 256, 391.85C256, 468.23 203.86, 512 128, 512C37.93, 512 0, 439.62 0, 357.27C9.79, 363.95 44.14, 391.62 55.25, 391.62A15.26 15.26 0 0 0 69.84, 381.62C90.64, 326.82 127.42, 311.7 167.87, 309.29z" fill="#727272" fill-opacity="1" class="Black" />
  </g>
</svg>