<?xml version='1.0' encoding='UTF-8'?>
<svg viewBox="-2 -2.0013 32 31.9975" xmlns="http://www.w3.org/2000/svg">
  <g transform="matrix(0.0547, 0, 0, 0.0547, 0, 0)">
    <defs>
      <style>.fa-secondary{opacity:.4}</style>
    </defs>
    <path d="M204.29, 5C104.89, 24.4 24.79, 104.29 5.19, 203.4C-31.81, 390.4 136.89, 529.79 263.99, 510.09C305.19, 503.69 325.39, 455.5 306.49, 418.4C283.39, 373 316.39, 320 367.39, 320L447.09, 320C482.89, 320 511.89, 290.4 511.99, 254.69C511.49, 97.13 368.09, -26.87 204.29, 5zM96, 320A32 32 0 1 1 128, 288A32 32 0 0 1 96, 320zM128, 192A32 32 0 1 1 160, 160A32 32 0 0 1 128, 192zM256, 128A32 32 0 1 1 288, 96A32 32 0 0 1 256, 128zM384, 192A32 32 0 1 1 416, 160A32 32 0 0 1 384, 192z" fill="#727272" opacity="0.4" fill-opacity="1" class="Black" />
    <path d="M96, 256A32 32 0 1 0 128, 288A32 32 0 0 0 96, 256zM128, 128A32 32 0 1 0 160, 160A32 32 0 0 0 128, 128zM256, 64A32 32 0 1 0 288, 96A32 32 0 0 0 256, 64zM384, 128A32 32 0 1 0 416, 160A32 32 0 0 0 384, 128z" fill="#727272" fill-opacity="1" class="Black" />
  </g>
</svg>