<?xml version='1.0' encoding='UTF-8'?>
<svg viewBox="-2 -4.7992 32 32" xmlns="http://www.w3.org/2000/svg">
  <g transform="matrix(0.9988, 0, 0, 0.9988, 0, 0)">
    <g transform="matrix(0.0438, 0, 0, 0.0438, 0, 0)">
      <defs>
        <style>.fa-secondary{opacity:.4}</style>
      </defs>
      <path d="M560, 64L400, 64A16 16 0 0 0 384, 80L384, 240A16 16 0 0 0 400, 256L560, 256A16 16 0 0 0 576, 240L576, 80A16 16 0 0 0 560, 64zM304, 0L80, 0A16 16 0 0 0 64, 16L64, 240A16 16 0 0 0 80, 256L304, 256A16 16 0 0 0 320, 240L320, 16A16 16 0 0 0 304, 0z" fill="#727272" opacity="0.4" fill-opacity="1" class="Black" />
      <path d="M624, 384A16 16 0 0 0 640, 368L640, 336A16 16 0 0 0 624, 320L16, 320A16 16 0 0 0 0, 336L0, 368A16 16 0 0 0 16, 384L64, 384L64, 448L16, 448A16 16 0 0 0 0, 464L0, 496A16 16 0 0 0 16, 512L624, 512A16 16 0 0 0 640, 496L640, 464A16 16 0 0 0 624, 448L576, 448L576, 384zM288, 448L128, 448L128, 384L288, 384zM512, 448L352, 448L352, 384L512, 384z" fill="#727272" fill-opacity="1" class="Black" />
    </g>
  </g>
</svg>