<?xml version='1.0' encoding='UTF-8'?>
<svg viewBox="-3.7495 -2 32 32" xmlns="http://www.w3.org/2000/svg">
  <g transform="matrix(0.0547, 0, 0, 0.0547, 0, 0)">
    <defs>
      <style>.fa-secondary{opacity:.4}</style>
    </defs>
    <path d="M171.43, 319.93C166.49, 324.93 166.19, 333.36 170.78, 338.22A10.66 10.66 0 0 0 186.47, 338.38L369.32, 151.53A52.37 52.37 0 0 0 369.32, 78.74A48 48 0 0 0 300.17, 78.74L90.39, 293.3C55.63, 328.86 55.09, 386.42 89.2, 421.61A85.28 85.28 0 0 0 212.26, 421.89L384.32, 245.89A16 16 0 0 1 406.94, 245.63L429.82, 268A16 16 0 0 1 430.08, 290.63L258, 466.63A149.21 149.21 0 0 1 43.23, 466.14C-15.2, 405.85 -14.12, 308.63 44.61, 248.56L254.39, 34A111.9 111.9 0 0 1 415.06, 34C458.95, 78.89 459.01, 151.33 415.06, 196.28L232.21, 383.13A74.61 74.61 0 0 1 124.21, 382.13C95.94, 352.13 96.84, 304.66 125.66, 275.18L269.43, 128.34A16 16 0 0 1 292.05, 128.1L314.91, 150.48A16 16 0 0 1 315.15, 173.11z" fill="#727272" opacity="0.4" fill-opacity="1" class="Black" />
  </g>
</svg>