<?xml version='1.0' encoding='UTF-8'?>
<svg viewBox="-1.9999 -1.549 31.9975 32" xmlns="http://www.w3.org/2000/svg">
  <g transform="matrix(0.999, 0, 0, 0.999, 0, 0)">
    <g transform="matrix(0.0565, 0, 0, 0.0565, 0, 0)">
      <defs>
        <style>.fa-secondary{opacity:.4}</style>
      </defs>
      <path d="M168, 352L168, 234.61L257.78, 304L232, 304L232, 352A16 16 0 0 1 216, 368L184, 368A16 16 0 0 1 168, 352zM360, 224A80 80 0 0 0 280, 144L184, 144A16 16 0 0 0 169, 154.49L238.22, 208L280, 208A16 16 0 0 1 280, 240L279.62, 240L334.57, 282.47A79.75 79.75 0 0 0 360, 224z" fill="#727272" opacity="0.4" fill-opacity="1" class="Black" />
      <path d="M248, 8C111, 8 0, 119 0, 256C0, 393 111, 504 248, 504C385, 504 496, 393 496, 256C496, 119 385, 8 248, 8zM248, 440C146.54, 440 64, 357.46 64, 256A182.66 182.66 0 0 1 85.17, 170.59L371.56, 391.94A183.06 183.06 0 0 1 248, 440zM410.83, 341.41L124.44, 120.06A183.06 183.06 0 0 1 248, 72C349.46, 72 432, 154.54 432, 256A182.66 182.66 0 0 1 410.83, 341.41z" fill="#727272" fill-opacity="1" class="Black" />
    </g>
  </g>
</svg>