<?xml version='1.0' encoding='UTF-8'?>
<svg viewBox="-2 0 32 32" xmlns="http://www.w3.org/2000/svg">
  <g transform="matrix(0.0625, 0, 0, 0.0625, 0, 0)">
    <defs>
      <style>.fa-secondary{opacity:.4}</style>
    </defs>
    <path d="M272, 224A32.09 32.09 0 0 1 240, 256L192, 256L192, 192L240, 192A32.09 32.09 0 0 1 272, 224zM448, 80L448, 432A48 48 0 0 1 400, 480L48, 480A48 48 0 0 1 0, 432L0, 80A48 48 0 0 1 48, 32L400, 32A48 48 0 0 1 448, 80zM336, 224A96.15 96.15 0 0 0 240, 128L144, 128A16 16 0 0 0 128, 144L128, 368A16 16 0 0 0 144, 384L176, 384A16 16 0 0 0 192, 368L192, 320L240, 320A96.15 96.15 0 0 0 336, 224z" fill="#727272" opacity="0.4" fill-opacity="1" class="Black" />
    <path d="M240, 128L144, 128A16 16 0 0 0 128, 144L128, 368A16 16 0 0 0 144, 384L176, 384A16 16 0 0 0 192, 368L192, 320L240, 320A96 96 0 0 0 240, 128zM240, 256L192, 256L192, 192L240, 192A32 32 0 0 1 240, 256z" fill="#727272" fill-opacity="1" class="Black" />
  </g>
</svg>