<?xml version='1.0' encoding='UTF-8'?>
<svg viewBox="-3.7494 -1.9999 32 32" xmlns="http://www.w3.org/2000/svg">
  <g transform="matrix(0.0547, 0, 0, 0.0547, 0, 0)">
    <defs>
      <style>.fa-secondary{opacity:.4}</style>
    </defs>
    <path d="M224, 64A128 128 0 1 0 352, 192A128 128 0 0 0 224, 64zM318.38, 176L279.29, 176C277.8, 149 272.76, 124.65 265.08, 105.59A95.85 95.85 0 0 1 318.38, 176zM129.62, 208L168.71, 208C170.2, 235 175.24, 259.35 182.92, 278.41A95.87 95.87 0 0 1 129.62, 208zM168.71, 176L129.62, 176A95.85 95.85 0 0 1 182.92, 105.59C175.25, 124.65 170.2, 149 168.71, 176zM224, 286.69C216.31, 279.24 203.23, 252.26 200.56, 208L247.43, 208C244.77, 252.27 231.69, 279.24 224, 286.69zM200.57, 176C203.23, 131.74 216.31, 104.76 224.01, 97.31C231.7, 104.76 244.78, 131.74 247.44, 176zM265.08, 278.41C272.76, 259.35 277.8, 235 279.29, 208L318.38, 208A95.85 95.85 0 0 1 265.08, 278.41z" fill="#727272" opacity="0.4" fill-opacity="1" class="Black" />
    <path d="M224, 286.69C231.69, 279.24 244.77, 252.27 247.43, 208L200.56, 208C203.23, 252.26 216.31, 279.24 224, 286.69zM129.62, 208A95.87 95.87 0 0 0 182.92, 278.41C175.24, 259.35 170.2, 235 168.71, 208zM129.62, 176L168.71, 176C170.2, 149 175.25, 124.65 182.92, 105.59A95.85 95.85 0 0 0 129.62, 176zM265.08, 105.59C272.76, 124.65 277.8, 149 279.29, 176L318.38, 176A95.85 95.85 0 0 0 265.08, 105.59zM200.57, 176L247.44, 176C244.78, 131.74 231.7, 104.76 224.01, 97.31C216.31, 104.76 203.23, 131.74 200.57, 176zM416, 0L64, 0A64 64 0 0 0 0, 64L0, 448A64 64 0 0 0 64, 512L416, 512A32 32 0 0 0 448, 480L448, 32A32 32 0 0 0 416, 0zM336, 416L112, 416A16 16 0 0 1 112, 384L336, 384A16 16 0 0 1 336, 416zM224, 320A128 128 0 1 1 352, 192A128 128 0 0 1 224, 320zM265.08, 278.41A95.85 95.85 0 0 0 318.38, 208L279.29, 208C277.8, 235 272.76, 259.35 265.08, 278.41z" fill="#727272" fill-opacity="1" class="Black" />
  </g>
</svg>