<?xml version='1.0' encoding='UTF-8'?>
<svg viewBox="-1.5477 -1.5477 32 32" xmlns="http://www.w3.org/2000/svg">
  <g transform="matrix(0.9991, 0, 0, 0.9991, 0, 0)">
    <g transform="matrix(0.0565, 0, 0, 0.0565, 0, 0)">
      <defs>
        <style>.fa-secondary{opacity:.4}</style>
      </defs>
      <path d="M256, 8C119, 8 8, 119 8, 256C8, 393 119, 504 256, 504C393, 504 504, 393 504, 256C504, 119 393, 8 256, 8zM240, 336A16 16 0 0 1 224, 352L176, 352A16 16 0 0 1 160, 336L160, 176A16 16 0 0 1 176, 160L224, 160A16 16 0 0 1 240, 176zM352, 336A16 16 0 0 1 336, 352L288, 352A16 16 0 0 1 272, 336L272, 176A16 16 0 0 1 288, 160L336, 160A16 16 0 0 1 352, 176z" fill="#727272" opacity="0.4" fill-opacity="1" class="Black" />
      <path d="M224, 160L176, 160A16 16 0 0 0 160, 176L160, 336A16 16 0 0 0 176, 352L224, 352A16 16 0 0 0 240, 336L240, 176A16 16 0 0 0 224, 160zM336, 160L288, 160A16 16 0 0 0 272, 176L272, 336A16 16 0 0 0 288, 352L336, 352A16 16 0 0 0 352, 336L352, 176A16 16 0 0 0 336, 160z" fill="#727272" fill-opacity="1" class="Black" />
    </g>
  </g>
</svg>