<?xml version='1.0' encoding='UTF-8'?>
<svg viewBox="-2 0 32 32" xmlns="http://www.w3.org/2000/svg">
  <g transform="matrix(0.0625, 0, 0, 0.0625, 0, 0)">
    <defs>
      <style>.fa-secondary{opacity:.4}</style>
    </defs>
    <path d="M416, 384A96 96 0 0 1 320, 480C268.29, 481.76 247.81, 448 224, 448C200.19, 448 179.71, 481.75 128, 480A95.76 95.76 0 0 1 80.68, 300.78C107.73, 285.51 127.56, 239.91 147.85, 202.95C163.59, 174.31 193.79, 160 224, 160C254.21, 160 284.41, 174.31 300.14, 202.95C320.14, 239.37 341.02, 285.95 367.31, 300.78A95.32 95.32 0 0 1 416, 384z" fill="#727272" opacity="0.4" fill-opacity="1" class="Black" />
    <path d="M400, 144A48 48 0 1 0 448, 192A48 48 0 0 0 400, 144zM304, 32A48 48 0 1 0 352, 80A48 48 0 0 0 304, 32zM48, 144A48 48 0 1 0 96, 192A48 48 0 0 0 48, 144zM144, 32A48 48 0 1 0 192, 80A48 48 0 0 0 144, 32z" fill="#727272" fill-opacity="1" class="Black" />
  </g>
</svg>