<?xml version='1.0' encoding='UTF-8'?>
<svg viewBox="-2 -2 32 32" xmlns="http://www.w3.org/2000/svg">
  <g transform="matrix(0.0547, 0, 0, 0.0547, 0, 0)">
    <defs>
      <style>.fa-secondary{opacity:.4}</style>
    </defs>
    <path d="M448, 456.25C448, 491.15 421.19, 512 376.26, 512C327.85, 512 295.51, 486.92 256, 486.92C216.83, 486.92 184.58, 512 135.74, 512C90.81, 512 64, 491.15 64, 456.25C64, 378.76 176.59, 256 256, 256C335.41, 256 448, 378.76 448, 456.25z" fill="#727272" opacity="0.4" fill-opacity="1" class="Black" />
    <path d="M320, 0L320, 75C304.05, 86.26 290.51, 105.37 284, 129.29C272.16, 172.71 287.64, 214.51 318.58, 222.65C349.52, 230.79 384.2, 202.2 396.04, 158.78C404.48, 127.84 399.04, 97.73 384.04, 80.03zM493.51, 190.37L448, 128L448, 194.94C428.17, 201.49 410.49, 219.37 403.28, 243.4C392.88, 278.05 408.05, 311.78 437.17, 318.74C466.29, 325.7 498.32, 303.26 508.73, 268.61A76 76 0 0 0 512, 247.09A96.28 96.28 0 0 0 493.51, 190.37zM192, 75L192, 0L128, 80C113, 97.7 107.55, 127.82 116, 158.75C127.84, 202.17 162.53, 230.75 193.46, 222.62C224.39, 214.49 239.88, 172.68 228.04, 129.26C221.49, 105.33 208, 86.21 192, 75zM64, 195L64, 128L18.49, 190.37A96.2 96.2 0 0 0 0, 247.09A76.09 76.09 0 0 0 3.28, 268.61C13.68, 303.26 45.72, 325.7 74.84, 318.74C103.96, 311.78 119.12, 278.04 108.72, 243.39C101.51, 219.36 83.83, 201.48 64, 194.93z" fill="#727272" fill-opacity="1" class="Black" />
  </g>
</svg>