<?xml version='1.0' encoding='UTF-8'?>
<svg viewBox="-1.995 -1.995 32 32" xmlns="http://www.w3.org/2000/svg">
  <g transform="matrix(0.0547, 0, 0, 0.0547, 0, 0)">
    <defs>
      <style>.fa-secondary{opacity:.4}</style>
    </defs>
    <path d="M448, 424.26C448, 459.16 421.19, 480.01 376.26, 480.01C327.85, 480.01 295.51, 454.93 256, 454.93C216.83, 454.93 184.58, 480.01 135.74, 480.01C90.82, 480 64, 459.16 64, 424.26C64, 346.77 176.6, 224 256, 224C335.4, 224 448, 346.77 448, 424.26z" fill="#727272" opacity="0.4" fill-opacity="1" class="Black" />
    <path d="M474.84, 161.28C445.72, 154.28 413.69, 176.76 403.28, 211.41C392.87, 246.06 408.05, 279.79 437.17, 286.75C466.29, 293.71 498.32, 271.27 508.73, 236.62C519.14, 201.97 504, 168.24 474.84, 161.28zM37.17, 161.28C8.05, 168.23 -7.12, 202 3.28, 236.61C13.68, 271.22 45.72, 293.7 74.84, 286.74C103.96, 279.78 119.13, 246.05 108.73, 211.4C98.33, 176.75 66.29, 154.31 37.17, 161.27zM150.57, 33.39C119.63, 41.53 104.15, 83.33 115.99, 126.75C127.83, 170.17 162.52, 198.75 193.45, 190.62C224.38, 182.49 239.87, 140.68 228, 97.26C216.13, 53.84 181.51, 25.25 150.57, 33.39zM361.45, 33.39C330.51, 25.24 295.83, 53.84 284, 97.26C272.17, 140.68 287.64, 182.48 318.58, 190.62C349.52, 198.76 384.2, 170.17 396.04, 126.75C407.88, 83.33 392.39, 41.54 361.45, 33.39z" fill="#727272" fill-opacity="1" class="Black" />
  </g>
</svg>