<?xml version='1.0' encoding='UTF-8'?>
<svg viewBox="-1.9999 -1.549 31.9975 32" xmlns="http://www.w3.org/2000/svg">
  <g transform="matrix(0.999, 0, 0, 0.999, 0, 0)">
    <g transform="matrix(0.0565, 0, 0, 0.0565, 0, 0)">
      <defs>
        <style>.fa-secondary{opacity:.4}</style>
      </defs>
      <path d="M409.54, 344.25A184.93 184.93 0 0 1 378.11, 386.11Q373.91, 390.29 369.5, 394.18L280, 322.58L280, 437.24A186.89 186.89 0 0 1 216, 437.24L216, 322.58L126.5, 394.18Q122.09, 390.29 117.89, 386.11A184.93 184.93 0 0 1 86.46, 344.25L216, 240.62L216, 74.76A186.89 186.89 0 0 1 280, 74.76L280, 240.62z" fill="#727272" opacity="0.4" fill-opacity="1" class="Black" />
      <path d="M248, 8C111, 8 0, 119 0, 256C0, 393 111, 504 248, 504C385, 504 496, 393 496, 256C496, 119 385, 8 248, 8zM378.11, 386.11A184 184 0 0 1 117.89, 386.11L117.89, 386.11A183.93 183.93 0 0 1 117.89, 125.9C189.63, 53.9 306.14, 53.75 378.1, 125.49C450.06, 197.23 450.26, 313.74 378.51, 385.71z" fill="#727272" fill-opacity="1" class="Black" />
    </g>
  </g>
</svg>