<?xml version='1.0' encoding='UTF-8'?>
<svg viewBox="-1.9998 -3.5563 31.9975 32" xmlns="http://www.w3.org/2000/svg">
  <g transform="matrix(0.0486, 0, 0, 0.0486, 0, 0)">
    <defs>
      <style>.fa-secondary{opacity:.4}</style>
    </defs>
    <path d="M64.36, 215.74A39.92 39.92 0 0 0 48, 248L48, 304A16 16 0 0 1 32, 320L16, 320A16 16 0 0 1 0, 304L0, 248A88 88 0 0 1 88, 160L88.46, 160A95.62 95.62 0 0 0 64.36, 215.74z" fill="#727272" opacity="0.4" fill-opacity="1" class="Black" />
    <path d="M567.34, 54.8C563.56, 50.8 558.76, 45.68 553.65, 40.3C564.71, 33.46 573.15, 22.81 575.83, 9.64A8.09 8.09 0 0 0 567.9, 0L447.9, 0A128 128 0 0 0 319.9, 128C256, 128 215.72, 91.22 192.26, 37.73C189.04, 30.38 178.65, 29.97 175.26, 37.23A158.37 158.37 0 0 0 160, 105.1C160, 172.1 211, 238.19 288, 252.84L288, 256C205.11, 256 144.67, 198.48 131, 133.14Q129.5, 133.63 128, 134.14L128, 133.44A95.72 95.72 0 0 0 94.54, 293.88L68.82, 362.48A63.94 63.94 0 0 0 66.66, 400.48L91.51, 499.89A16 16 0 0 0 107, 512L173, 512A16 16 0 0 0 188.52, 492.12L162.19, 386.86L186, 323.27L320, 345.6L320, 496A16 16 0 0 0 336, 512L400, 512A16 16 0 0 0 416, 496L416, 318.22A111.55 111.55 0 0 0 448, 240C448, 239.78 447.93, 239.58 447.92, 239.36L447.92, 136.89L463.92, 144L482.82, 181.7A32 32 0 0 0 523.31, 197.07L555.86, 184.07A32 32 0 0 0 576, 154.31L575.94, 76.6A31.76 31.76 0 0 0 567.34, 54.8zM511.92, 96A16 16 0 1 1 527.92, 80A16 16 0 0 1 511.92, 96z" fill="#727272" fill-opacity="1" class="Black" />
  </g>
</svg>