<?xml version='1.0' encoding='UTF-8'?>
<svg viewBox="-2 0 32 32" xmlns="http://www.w3.org/2000/svg">
  <g transform="matrix(0.0625, 0, 0, 0.0625, 0, 0)">
    <defs>
      <style>.fa-secondary{opacity:.4}</style>
    </defs>
    <path d="M400, 32L48, 32A48 48 0 0 0 0, 80L0, 432A48 48 0 0 0 48, 480L400, 480A48 48 0 0 0 448, 432L448, 80A48 48 0 0 0 400, 32zM302.2, 242L166.5, 377.7L109.4, 384A12.11 12.11 0 0 1 96.1, 370.7L102.4, 313.6L238.1, 177.9A6.13 6.13 0 0 1 246.7, 178L302.2, 233.5A6.1 6.1 0 0 1 302.2, 242zM345, 199L321.9, 222.1A6.1 6.1 0 0 1 313.4, 222.1L257.9, 166.6A6.1 6.1 0 0 1 257.9, 158.1L281, 135A23.9 23.9 0 0 1 314.9, 135L345, 165.1A24.08 24.08 0 0 1 345, 199z" fill="#727272" opacity="0.4" fill-opacity="1" class="Black" />
    <path d="M345, 165.1L314.9, 135A23.9 23.9 0 0 0 281, 135L257.9, 158.1A6.1 6.1 0 0 0 257.9, 166.6L313.4, 222.1A6.1 6.1 0 0 0 321.9, 222.1L345, 199A24.08 24.08 0 0 0 345, 165.1zM246.7, 178A6.13 6.13 0 0 0 238.1, 177.9L102.4, 313.6L96.1, 370.7A12.11 12.11 0 0 0 109.4, 384L166.5, 377.7L302.2, 242A6.1 6.1 0 0 0 302.2, 233.5z" fill="#727272" fill-opacity="1" class="Black" />
  </g>
</svg>