<?xml version='1.0' encoding='UTF-8'?>
<svg viewBox="-1.9975 -2 32 32" xmlns="http://www.w3.org/2000/svg">
  <g transform="matrix(0.0547, 0, 0, 0.0547, 0, 0)">
    <defs>
      <style>.fa-secondary{opacity:.4}</style>
    </defs>
    <path d="M498, 74.17A48 48 0 0 1 498, 142.08L441.4, 198.63L313.4, 70.63L369.95, 14.08A48 48 0 0 1 437.86, 14.08z" fill="#727272" opacity="0.4" fill-opacity="1" class="Black" />
    <path d="M336, 138.49L418.77, 221.26L222, 418.05A327 327 0 0 1 26.66, 511.85A24 24 0 0 1 0.15, 485.34L0.15, 485.11A327 327 0 0 1 94, 290L245.52, 138.48L222.89, 115.86L121.07, 217.68A16 16 0 0 1 98.44, 217.68L75.81, 195.05A16 16 0 0 1 75.81, 172.43L194.59, 53.64A40 40 0 0 1 251.15, 53.64z" fill="#727272" fill-opacity="1" class="Black" />
  </g>
</svg>