<?xml version='1.0' encoding='UTF-8'?>
<svg viewBox="-1.9975 -1.9988 32 32" xmlns="http://www.w3.org/2000/svg">
  <g transform="matrix(0.0547, 0, 0, 0.0547, 0, 0)">
    <defs>
      <style>.fa-secondary{opacity:.4}</style>
    </defs>
    <path d="M138.25, 127.05A7.92 7.92 0 0 1 127.05, 127.05L115.84, 115.84A7.92 7.92 0 0 1 115.84, 104.63L177.5, 43L143.87, 9.3A31.73 31.73 0 0 0 99, 9.3L9.29, 99A31.74 31.74 0 0 0 9.29, 143.86L109.46, 244.05L244, 109.49L199.92, 65.37zM502.71, 368.15L469.08, 334.51L407.4, 396.19A7.92 7.92 0 0 1 396.19, 396.19L385, 385A7.92 7.92 0 0 1 385, 373.79L446.68, 312.11L402.52, 268L267.94, 402.51L368.15, 502.71A31.7 31.7 0 0 0 413, 502.71L502.71, 413A31.72 31.72 0 0 0 502.71, 368.15z" fill="#727272" opacity="0.4" fill-opacity="1" class="Black" />
    <path d="M497.94, 59.32L452.69, 14.07A48.05 48.05 0 0 0 384.74, 14.07L338.74, 60.07L451.95, 173.27L497.95, 127.27A48 48 0 0 0 497.94, 59.32zM19.08, 379.68L0.33, 487.12A21.23 21.23 0 0 0 24.92, 511.68L132.37, 492.84L429.29, 195.91L316.08, 82.72z" fill="#727272" fill-opacity="1" class="Black" />
  </g>
</svg>