<?xml version='1.0' encoding='UTF-8'?>
<svg viewBox="-2.0001 -2.0001 32 32" xmlns="http://www.w3.org/2000/svg">
  <g transform="matrix(0.0547, 0, 0, 0.0547, 0, 0)">
    <defs>
      <style>.fa-secondary{opacity:.4}</style>
    </defs>
    <path d="M96, 352L32, 352L16, 416L96, 496L160, 480L160, 416L96, 416zM498, 74.26L497.89, 74.15L437.77, 14A48.09 48.09 0 0 0 369.87, 14L323.77, 60.1A12 12 0 0 0 323.77, 77.1L434.77, 188.1A12 12 0 0 0 451.77, 188.1L497.87, 142A47.93 47.93 0 0 0 498, 74.26z" fill="#727272" opacity="0.4" fill-opacity="1" class="Black" />
    <path d="M0.37, 483.85A24 24 0 0 0 19.84, 511.65A24.27 24.27 0 0 0 28.17, 511.65L95.49, 495.49L16.49, 416.49zM412.3, 210.78L301.3, 99.78A12.13 12.13 0 0 0 284.2, 99.78L32, 352L96, 352L96, 416L160, 416L160, 480L412.27, 227.75A12 12 0 0 0 412.3, 210.78zM297.89, 185.85L143.89, 339.85A14 14 0 1 1 124.09, 320.05L278.09, 166.05A14 14 0 1 1 297.89, 185.85z" fill="#727272" fill-opacity="1" class="Black" />
  </g>
</svg>