<?xml version='1.0' encoding='UTF-8'?>
<svg viewBox="-1.9963 -2 32 32" xmlns="http://www.w3.org/2000/svg">
  <g transform="matrix(0.0547, 0, 0, 0.0547, 0, 0)">
    <defs>
      <style>.fa-secondary{opacity:.4}</style>
    </defs>
    <path d="M21.08, 133L120.19, 233.33L216, 137.52L146, 33.11C84.06, -55.29 -52.15, 52.53 21.08, 133zM456.76, 391.63A15.26 15.26 0 0 1 442.17, 381.63C424.04, 333.85 393.77, 316.25 359.52, 310.92L257.83, 412.62C266.65, 476 315.43, 512 384, 512C474.07, 512 512, 439.62 512, 357.27C502.22, 364 467.86, 391.63 456.76, 391.63z" fill="#727272" opacity="0.4" fill-opacity="1" class="Black" />
    <path d="M19.08, 379.68L0.33, 487.12A21.23 21.23 0 0 0 24.92, 511.68L132.36, 492.84L429.29, 195.91L316.08, 82.72zM497.94, 59.32L452.68, 14.07A48 48 0 0 0 384.74, 14.07L338.74, 60.07L451.94, 173.27L497.94, 127.27A48 48 0 0 0 497.94, 59.32z" fill="#727272" fill-opacity="1" class="Black" />
  </g>
</svg>