<?xml version='1.0' encoding='UTF-8'?>
<svg viewBox="-2 -1.9975 32 32" xmlns="http://www.w3.org/2000/svg">
  <g transform="matrix(0.0547, 0, 0, 0.0547, 0, 0)">
    <defs>
      <style>.fa-secondary{opacity:.4}</style>
    </defs>
    <path d="M0, 456A56 56 0 0 1 56, 400C197.58, 400 219.44, 218.76 277.92, 149.18L330.67, 173.4L330.67, 263.1L438.13, 263.1L475.18, 301.64C426.65, 389.11 268.64, 512 56, 512A56 56 0 0 1 0, 456z" fill="#727272" opacity="0.4" fill-opacity="1" class="Black" />
    <path d="M362.67, 152.86L288, 118.57C310.34, 104.57 336.34, 95.98 364.34, 95.98A142.91 142.91 0 0 1 421.5, 107.98C439.95, 70.76 429.76, 45.98 422.9, 35.66A8.07 8.07 0 0 1 423.79, 25.43L446.69, 2.43A6.67 6.67 0 0 1 447.37, 1.81A8 8 0 0 1 458.62, 3C477.18, 26.48 493.92, 74.91 461.76, 134.75A154 154 0 0 1 512, 248.67C512, 262.35 509.7, 275.36 506.44, 287.98L451.76, 231.1L362.67, 231.1z" fill="#727272" fill-opacity="1" class="Black" />
  </g>
</svg>