<?xml version='1.0' encoding='UTF-8'?>
<svg viewBox="-2 -3.5127 32 32" xmlns="http://www.w3.org/2000/svg">
  <g transform="matrix(0.0486, 0, 0, 0.0486, 0, 0)">
    <defs>
      <style>.fa-secondary{opacity:.4}</style>
    </defs>
    <path d="M192, 32L192, 192L256, 192L256, 0L224, 0A32 32 0 0 0 192, 32zM192, 496A16 16 0 0 0 208, 512L240, 512A16 16 0 0 0 256, 496L256, 320L192, 320zM64, 32A48 48 0 1 0 112, 80A48 48 0 0 0 64, 32zM544, 0L512, 0L512, 496A16 16 0 0 0 528, 512L560, 512A16 16 0 0 0 576, 496L576, 32A32 32 0 0 0 544, 0z" fill="#727272" opacity="0.4" fill-opacity="1" class="Black" />
    <path d="M288, 0L288, 32L319.5, 255.1L288.6, 409.7C284.3, 431.3 301.6, 448 320, 448C335.2, 448 348, 438.9 352.3, 417.6A31.87 31.87 0 0 0 416, 416A32 32 0 0 0 480, 416L480, 0zM224, 224L173.1, 224L127.9, 178.7A63.55 63.55 0 0 0 82.7, 160L64, 160A64 64 0 0 0 0, 224.1L0.2, 320L0, 480A32 32 0 1 0 63.9, 480L64, 379.3C64.9, 379.8 65.6, 380.6 66.5, 381L95.6, 424L95.6, 480A32 32 0 0 0 159.6, 480L159.6, 423.5A64.27 64.27 0 0 0 152.9, 394.9L111.7, 333.6L111.7, 253L132.6, 273.9A47.58 47.58 0 0 0 166.5, 288L224, 288A32 32 0 0 0 224, 224z" fill="#727272" fill-opacity="1" class="Black" />
  </g>
</svg>