<?xml version='1.0' encoding='UTF-8'?>
<svg viewBox="-2.0299 -2.0136 32 32" xmlns="http://www.w3.org/2000/svg">
  <g transform="matrix(0.0546, 0, 0, 0.0546, 0, 0)">
    <defs>
      <style>.fa-secondary{opacity:.4}</style>
    </defs>
    <path d="M144, 0A48 48 0 1 0 192, 48A48.08 48.08 0 0 0 144, 0zM501.5, 66.6L321.08, 1A16 16 0 0 0 300.58, 10.6L256.78, 130.9A16 16 0 0 0 266.38, 151.4L446.88, 217A16 16 0 0 0 467.38, 207.4L511, 87.1A15.93 15.93 0 0 0 501.48, 66.6z" fill="#727272" opacity="0.4" fill-opacity="1" class="Black" />
    <path d="M321, 212L273.2, 196L223.9, 146.7A63.47 63.47 0 0 0 178.7, 127.9L115.8, 127.9A63.63 63.63 0 0 0 58.6, 163.3L3.38, 273.7A32 32 0 1 0 60.58, 302.3L80, 263.6L80, 318.4L64.08, 476.8A32 32 0 0 0 92.68, 511.8C93.78, 511.9 94.88, 512 95.88, 512A32.05 32.05 0 0 0 127.68, 483.2L140.88, 352L156.18, 352L192, 423.5L192, 480A32 32 0 0 0 256, 480L256, 423.5A64.27 64.27 0 0 0 249.3, 394.9L208.1, 312.4L208.1, 221.2L228.1, 241.2A65 65 0 0 0 253.1, 256.7L299.2, 272.1L288, 302.9A16 16 0 0 0 297.6, 323.4L312.6, 328.9A16 16 0 0 0 333.1, 319.3L379.29, 192.43L334, 176zM429.68, 6.5L414.68, 1A16 16 0 0 0 394.18, 10.6L388.69, 25.6L433.79, 42L439.28, 27A16 16 0 0 0 429.68, 6.5z" fill="#727272" fill-opacity="1" class="Black" />
  </g>
</svg>