<?xml version='1.0' encoding='UTF-8'?>
<svg viewBox="-1.9999 -2.0024 31.9975 32" xmlns="http://www.w3.org/2000/svg">
  <g transform="matrix(0.0547, 0, 0, 0.0547, 0, 0)">
    <defs>
      <style>.fa-secondary{opacity:.4}</style>
    </defs>
    <path d="M511.74, 404.81L503.54, 373.91A8 8 0 0 0 493.77, 368.2L339.67, 409.5A63.53 63.53 0 0 0 298.77, 385L239.37, 163.4A8 8 0 0 0 229.6, 157.69L198.7, 165.99A8 8 0 0 0 192.99, 175.76L251.89, 395.76A63.87 63.87 0 1 0 351.89, 455.86L506, 414.58A8 8 0 0 0 511.74, 404.81zM288.73, 464A16 16 0 1 1 304.73, 448A16 16 0 0 1 288.73, 464zM80, 0L79.9, 0A48.05 48.05 0 1 0 80, 0z" fill="#727272" opacity="0.4" fill-opacity="1" class="Black" />
    <path d="M479, 320.9L447.6, 204A16 16 0 0 0 428, 192.7L311, 224A16 16 0 0 0 299.7, 243.6L331.1, 360.5A16 16 0 0 0 350.7, 371.8L467.7, 340.5A16 16 0 0 0 479, 320.9zM0, 479.9A32 32 0 0 0 64, 479.9L64, 405.4C48, 391.7 0.5, 350.8 0, 350.3zM128, 287.9L222.8, 287.9L205.7, 223.9L166.7, 223.9L133.4, 162.1A63.83 63.83 0 0 0 76.7, 127.9L48, 127.9A48 48 0 0 0 0, 175.9L0, 278.9A64.07 64.07 0 0 0 22.4, 327.5L98.4, 392.6L112.5, 485.1C113.5, 490.8 122.6, 515.8 149.3, 511.4A32 32 0 0 0 175.6, 474.6L161.5, 382.1A64.4 64.4 0 0 0 140, 344L96, 306.3L96, 228z" fill="#727272" fill-opacity="1" class="Black" />
  </g>
</svg>