<?xml version='1.0' encoding='UTF-8'?>
<svg viewBox="-2 -2.005 32 32" xmlns="http://www.w3.org/2000/svg">
  <g transform="matrix(0.0547, 0, 0, 0.0547, 0, 0)">
    <defs>
      <style>.fa-secondary{opacity:.4}</style>
    </defs>
    <path d="M144, 16L144, 80L208, 80A16 16 0 0 1 224, 96L224, 128A16 16 0 0 1 208, 144L144, 144L144, 208A16 16 0 0 1 128, 224L96, 224A16 16 0 0 1 80, 208L80, 144L16, 144A16 16 0 0 1 0, 128L0, 96A16 16 0 0 1 16, 80L80, 80L80, 16A16 16 0 0 1 96, 0L128, 0A16 16 0 0 1 144, 16z" fill="#727272" opacity="0.4" fill-opacity="1" class="Black" />
    <path d="M512, 48C512, 304.5 304.1, 512 48, 512A24 24 0 0 1 24.6, 493.4L0.6, 389.4A24.29 24.29 0 0 1 14.6, 361.8L126.6, 313.8A24 24 0 0 1 154.6, 320.7L204.2, 381.3A370.61 370.61 0 0 0 381.4, 204.1L320.8, 154.5A23.94 23.94 0 0 1 313.9, 126.5L361.9, 14.5A24.16 24.16 0 0 1 389.41, 0.61L493.41, 24.61A24 24 0 0 1 512, 48z" fill="#727272" fill-opacity="1" class="Black" />
  </g>
</svg>