<?xml version='1.0' encoding='UTF-8'?>
<svg viewBox="-2 0 32 32" xmlns="http://www.w3.org/2000/svg">
  <g transform="matrix(0.0625, 0, 0, 0.0625, 0, 0)">
    <defs>
      <style>.fa-secondary{opacity:.4}</style>
    </defs>
    <path d="M400, 32L48, 32A48 48 0 0 0 0, 80L0, 432A48 48 0 0 0 48, 480L400, 480A48 48 0 0 0 448, 432L448, 80A48 48 0 0 0 400, 32zM94, 416A15 15 0 0 1 79.38, 404.37L64.38, 339.37A15 15 0 0 1 73.08, 322.21L143.08, 292.21A15 15 0 0 1 160.6, 296.5L191.6, 334.39A231.87 231.87 0 0 0 302.39, 223.61L264.5, 192.61A15 15 0 0 1 260.21, 175.09L290.21, 105.09A15 15 0 0 1 307.37, 96.39L372.37, 111.39A15 15 0 0 1 384, 126C384, 286.29 254.05, 416 94, 416z" fill="#727272" opacity="0.4" fill-opacity="1" class="Black" />
    <path d="M73.09, 322.21L143.09, 292.21A15 15 0 0 1 160.61, 296.5L191.61, 334.39A231.91 231.91 0 0 0 302.39, 223.61L264.5, 192.61A15 15 0 0 1 260.21, 175.09L290.21, 105.09A15 15 0 0 1 307.37, 96.39L372.37, 111.39A15 15 0 0 1 384, 126C384, 286.29 254.06, 416 94, 416A15 15 0 0 1 79.38, 404.37L64.38, 339.37A15 15 0 0 1 73.09, 322.21z" fill="#727272" fill-opacity="1" class="Black" />
  </g>
</svg>