<?xml version='1.0' encoding='UTF-8'?>
<svg viewBox="-1.9998 -3.5563 31.9975 32" xmlns="http://www.w3.org/2000/svg">
  <g transform="matrix(0.0486, 0, 0, 0.0486, 0, 0)">
    <defs>
      <style>.fa-secondary{opacity:.4}</style>
    </defs>
    <path d="M192, 0L128, 0A32 32 0 0 0 96, 32L96, 384A32 32 0 0 0 128, 416L192, 416A32 32 0 0 0 224, 384L224, 32A32 32 0 0 0 192, 0zM496, 384L464, 384A16 16 0 0 0 448, 400L448, 432A16 16 0 0 0 464, 448L496, 448A16 16 0 0 0 512, 432L512, 400A16 16 0 0 0 496, 384zM496, 256L464, 256A16 16 0 0 0 448, 272L448, 304A16 16 0 0 0 464, 320L496, 320A16 16 0 0 0 512, 304L512, 272A16 16 0 0 0 496, 256zM368, 384L336, 384A16 16 0 0 0 320, 400L320, 432A16 16 0 0 0 336, 448L368, 448A16 16 0 0 0 384, 432L384, 400A16 16 0 0 0 368, 384zM368, 256L336, 256A16 16 0 0 0 320, 272L320, 304A16 16 0 0 0 336, 320L368, 320A16 16 0 0 0 384, 304L384, 272A16 16 0 0 0 368, 256z" fill="#727272" opacity="0.4" fill-opacity="1" class="Black" />
    <path d="M528, 32L256, 32L256, 384A64.07 64.07 0 0 1 192, 448L128, 448A64.07 64.07 0 0 1 64, 384L64, 32L48, 32A48 48 0 0 0 0, 80L0, 464A48 48 0 0 0 48, 512L528, 512A48 48 0 0 0 576, 464L576, 80A48 48 0 0 0 528, 32zM384, 432A16 16 0 0 1 368, 448L336, 448A16 16 0 0 1 320, 432L320, 400A16 16 0 0 1 336, 384L368, 384A16 16 0 0 1 384, 400zM384, 304A16 16 0 0 1 368, 320L336, 320A16 16 0 0 1 320, 304L320, 272A16 16 0 0 1 336, 256L368, 256A16 16 0 0 1 384, 272zM512, 432A16 16 0 0 1 496, 448L464, 448A16 16 0 0 1 448, 432L448, 400A16 16 0 0 1 464, 384L496, 384A16 16 0 0 1 512, 400zM512, 304A16 16 0 0 1 496, 320L464, 320A16 16 0 0 1 448, 304L448, 272A16 16 0 0 1 464, 256L496, 256A16 16 0 0 1 512, 272zM512, 192L320, 192L320, 96L512, 96z" fill="#727272" fill-opacity="1" class="Black" />
  </g>
</svg>