<?xml version='1.0' encoding='UTF-8'?>
<svg viewBox="-1.9975 -4.7972 32 32" xmlns="http://www.w3.org/2000/svg">
  <g transform="matrix(1.0013, 0, 0, 1.0013, 0, 0)">
    <g transform="matrix(0.0437, 0, 0, 0.0437, 0, 0)">
      <defs>
        <style>.fa-secondary{opacity:.4}</style>
      </defs>
      <path d="M377.91, 126.51L425.91, 14.51A24.16 24.16 0 0 1 453.41, 0.61L557.41, 24.61A24 24 0 0 1 576, 48A462 462 0 0 1 475.83, 336L399.83, 277.24A367.76 367.76 0 0 0 445.43, 204.07L384.83, 154.47A23.94 23.94 0 0 1 377.91, 126.51zM268.17, 381.41L218.57, 320.81A24 24 0 0 0 190.57, 313.91L78.57, 361.91A24 24 0 0 0 64.67, 389.41L88.67, 493.41A24 24 0 0 0 112.07, 512.01A461.2 461.2 0 0 0 381.77, 425.11L301.77, 363.31C290.87, 369.81 279.67, 376 268.17, 381.41z" fill="#727272" opacity="0.4" fill-opacity="1" class="Black" />
      <path d="M3.37, 31.41L23, 6.21A16.06 16.06 0 0 1 45.5, 3.41L633.8, 458.11A15.85 15.85 0 0 1 636.7, 480.41L617.1, 505.71A16.06 16.06 0 0 1 594.6, 508.51L6.17, 53.81A15.93 15.93 0 0 1 3.37, 31.41z" fill="#727272" fill-opacity="1" class="Black" />
    </g>
  </g>
</svg>