<?xml version='1.0' encoding='UTF-8'?>
<svg viewBox="-1.9999 -1.9999 32 32" xmlns="http://www.w3.org/2000/svg">
  <g transform="matrix(0.0547, 0, 0, 0.0547, 0, 0)">
    <defs>
      <style>.fa-secondary{opacity:.4}</style>
    </defs>
    <path d="M512, 384L512, 480A32 32 0 0 1 480, 512L32, 512A32 32 0 0 1 0, 480L0, 384L48, 384L48, 464L464, 464L464, 384z" fill="#727272" opacity="0.4" fill-opacity="1" class="Black" />
    <path d="M512, 327.55L512, 384L416, 384L416, 424A8 8 0 0 1 408, 432L392, 432A8 8 0 0 1 384, 424L384, 384L352, 384L352, 424A8 8 0 0 1 344, 432L328, 432A8 8 0 0 1 320, 424L320, 384L272, 384L272, 424A8 8 0 0 1 264, 432L248, 432A8 8 0 0 1 240, 424L240, 384L192, 384L192, 424A8 8 0 0 1 184, 432L168, 432A8 8 0 0 1 160, 424L160, 384L128, 384L128, 424A8 8 0 0 1 120, 432L104, 432A8 8 0 0 1 96, 424L96, 384L0, 384L0, 184.45A184.45 184.45 0 0 1 184.45, 0L199.55, 0A184.45 184.45 0 0 1 384, 184.45A64 64 0 0 0 419.38, 241.69L476.62, 270.31A64 64 0 0 1 512, 327.55z" fill="#727272" fill-opacity="1" class="Black" />
  </g>
</svg>