<?xml version='1.0' encoding='UTF-8'?>
<svg viewBox="-2 -4.798 32 32" xmlns="http://www.w3.org/2000/svg">
  <g transform="matrix(0.9988, 0, 0, 0.9988, 0, 0)">
    <g transform="matrix(0.0438, 0, 0, 0.0438, 0, 0)">
      <defs>
        <style>.fa-secondary{opacity:.4}</style>
      </defs>
      <path d="M620.61, 366.55L512, 320L512, 512L624, 512A16 16 0 0 0 640, 496L640, 396A32 32 0 0 0 620.61, 366.55zM0, 396L0, 496A16 16 0 0 0 16, 512L128, 512L128, 320L19.39, 366.55A32 32 0 0 0 0, 396z" fill="#727272" opacity="0.4" fill-opacity="1" class="Black" />
      <path d="M416, 102.63L416, 217.63L464.46, 246.71A32 32 0 0 1 480, 274.12L480, 512L384, 512L384, 416A64 64 0 0 0 256, 416L256, 512L160, 512L160, 274.12A32 32 0 0 1 175.54, 246.68L224, 217.6L224, 102.6A32 32 0 0 1 233.38, 80L308.69, 4.69A16 16 0 0 1 331.31, 4.69L406.62, 80A32 32 0 0 1 416, 102.63z" fill="#727272" fill-opacity="1" class="Black" />
    </g>
  </g>
</svg>