<?xml version='1.0' encoding='UTF-8'?>
<svg viewBox="-1.9998 -4.7989 31.9975 32" xmlns="http://www.w3.org/2000/svg">
  <g transform="matrix(0.9988, 0, 0, 0.9988, 0, 0)">
    <g transform="matrix(0.0438, 0, 0, 0.0438, 0, 0)">
      <defs>
        <style>.fa-secondary{opacity:.4}</style>
      </defs>
      <path d="M640, 464L640, 496A16 16 0 0 1 624, 512L16, 512A16 16 0 0 1 0, 496L0, 464A16 16 0 0 1 16, 448L624, 448A16 16 0 0 1 640, 464z" fill="#727272" opacity="0.4" fill-opacity="1" class="Black" />
      <path d="M32.23, 182.41L32, 80.63A16.52 16.52 0 0 1 52.72, 64.75L92.45, 75.58A16.54 16.54 0 0 1 103.45, 85.51L131.04, 153.39L233.24, 181.23L185.34, 17A16.51 16.51 0 0 1 206.05, 0.58L271.14, 18.31A16.62 16.62 0 0 1 282.8, 30.22L383.16, 222.07L480.67, 248.63C507.15, 255.84 532.22, 268.81 551.5, 288.63C573.14, 310.88 578.7, 329.09 574.87, 343.63C571.04, 358.17 557.29, 371 527.62, 379.3C501.18, 386.66 473.1, 385.15 446.62, 377.94L159, 299.59A62.52 62.52 0 0 1 133.53, 285.66L44.79, 205.66C38.26, 199.75 32.42, 191.32 32.23, 182.41z" fill="#727272" fill-opacity="1" class="Black" />
    </g>
  </g>
</svg>