<?xml version='1.0' encoding='UTF-8'?>
<svg viewBox="-2 -2 32 32" xmlns="http://www.w3.org/2000/svg">
  <g transform="matrix(0.0547, 0, 0, 0.0547, 0, 0)">
    <defs>
      <style>.fa-secondary{opacity:.4}</style>
    </defs>
    <path d="M497.9, 150.5L361.4, 14.1A48 48 0 0 0 327.5, 0L184.4, 0A48 48 0 0 0 150.5, 14.1L14.1, 150.6A48 48 0 0 0 0, 184.5L0, 327.6A48 48 0 0 0 14.1, 361.5L150.6, 497.9A48 48 0 0 0 184.5, 512L327.6, 512A48 48 0 0 0 361.5, 497.9L497.9, 361.4A48 48 0 0 0 512, 327.5L512, 184.4A48 48 0 0 0 497.9, 150.5zM400, 284A12 12 0 0 1 388, 296L296, 296L296, 388A12 12 0 0 1 284, 400L228, 400A12 12 0 0 1 216, 388L216, 296L124, 296A12 12 0 0 1 112, 284L112, 228A12 12 0 0 1 124, 216L216, 216L216, 124A12 12 0 0 1 228, 112L284, 112A12 12 0 0 1 296, 124L296, 216L388, 216A12 12 0 0 1 400, 228z" fill="#727272" opacity="0.4" fill-opacity="1" class="Black" />
    <path d="M400, 284A12 12 0 0 1 388, 296L296, 296L296, 388A12 12 0 0 1 284, 400L228, 400A12 12 0 0 1 216, 388L216, 296L124, 296A12 12 0 0 1 112, 284L112, 228A12 12 0 0 1 124, 216L216, 216L216, 124A12 12 0 0 1 228, 112L284, 112A12 12 0 0 1 296, 124L296, 216L388, 216A12 12 0 0 1 400, 228z" fill="#727272" fill-opacity="1" class="Black" />
  </g>
</svg>