<?xml version='1.0' encoding='UTF-8'?>
<svg viewBox="-1.1754 -2.8219 32 31.9975" xmlns="http://www.w3.org/2000/svg">
  <g transform="matrix(0.9994, 0, 0, 0.9994, 0, 0)">
    <g transform="matrix(0.0515, 0, 0, 0.0515, 0, 0)">
      <defs>
        <style>.fa-secondary{opacity:.4}</style>
      </defs>
      <path d="M553.5, 231.8L441.5, 39.8A48.14 48.14 0 0 0 400, 16L176, 16A48.09 48.09 0 0 0 134.5, 39.8L22.5, 231.8A48.19 48.19 0 0 0 22.5, 280.2L134.5, 472.2A48.09 48.09 0 0 0 176, 496L400, 496A48.13 48.13 0 0 0 441.5, 472.2L553.5, 280.2A48.19 48.19 0 0 0 553.5, 231.8zM432, 284A12 12 0 0 1 420, 296L328, 296L328, 388A12 12 0 0 1 316, 400L260, 400A12 12 0 0 1 248, 388L248, 296L156, 296A12 12 0 0 1 144, 284L144, 228A12 12 0 0 1 156, 216L248, 216L248, 124A12 12 0 0 1 260, 112L316, 112A12 12 0 0 1 328, 124L328, 216L420, 216A12 12 0 0 1 432, 228z" fill="#727272" opacity="0.4" fill-opacity="1" class="Black" />
      <path d="M432, 284A12 12 0 0 1 420, 296L328, 296L328, 388A12 12 0 0 1 316, 400L260, 400A12 12 0 0 1 248, 388L248, 296L156, 296A12 12 0 0 1 144, 284L144, 228A12 12 0 0 1 156, 216L248, 216L248, 124A12 12 0 0 1 260, 112L316, 112A12 12 0 0 1 328, 124L328, 216L420, 216A12 12 0 0 1 432, 228z" fill="#727272" fill-opacity="1" class="Black" />
    </g>
  </g>
</svg>