<?xml version='1.0' encoding='UTF-8'?>
<svg viewBox="-2 0 32 32" xmlns="http://www.w3.org/2000/svg">
  <g transform="matrix(0.0625, 0, 0, 0.0625, 0, 0)">
    <defs>
      <style>.fa-secondary{opacity:.4}</style>
    </defs>
    <path d="M400, 32L48, 32A48 48 0 0 0 0, 80L0, 432A48 48 0 0 0 48, 480L400, 480A48 48 0 0 0 448, 432L448, 80A48 48 0 0 0 400, 32zM368, 284A12 12 0 0 1 356, 296L264, 296L264, 388A12 12 0 0 1 252, 400L196, 400A12 12 0 0 1 184, 388L184, 296L92, 296A12 12 0 0 1 80, 284L80, 228A12 12 0 0 1 92, 216L184, 216L184, 124A12 12 0 0 1 196, 112L252, 112A12 12 0 0 1 264, 124L264, 216L356, 216A12 12 0 0 1 368, 228z" fill="#727272" opacity="0.4" fill-opacity="1" class="Black" />
    <path d="M80, 228A12 12 0 0 1 92, 216L184, 216L184, 124A12 12 0 0 1 196, 112L252, 112A12 12 0 0 1 264, 124L264, 216L356, 216A12 12 0 0 1 368, 228L368, 284A12 12 0 0 1 356, 296L264, 296L264, 388A12 12 0 0 1 252, 400L196, 400A12 12 0 0 1 184, 388L184, 296L92, 296A12 12 0 0 1 80, 284z" fill="#727272" fill-opacity="1" class="Black" />
  </g>
</svg>