<?xml version='1.0' encoding='UTF-8'?>
<svg viewBox="-3.7495 -2 32 32" xmlns="http://www.w3.org/2000/svg">
  <g transform="matrix(0.0547, 0, 0, 0.0547, 0, 0)">
    <defs>
      <style>.fa-secondary{opacity:.4}</style>
    </defs>
    <path d="M224, 0A223.88 223.88 0 0 0 0, 224C0, 314 52.6, 389.65 125.74, 425.41A6 6 0 0 0 134.27, 419.1C131.89, 403.59 129.93, 388.1 128.87, 374.76A6 6 0 0 0 126.19, 370.25A176 176 0 0 1 48, 222.9C48.59, 126.66 127.29, 48.25 223.53, 48C320.79, 47.75 400, 126.8 400, 224A176 176 0 0 1 319.35, 371.87C318.35, 385.87 316.28, 402.46 313.73, 419.1A6 6 0 0 0 322.26, 425.41C395.23, 389.73 448, 314.19 448, 224A223.89 223.89 0 0 0 224, 0zM322.45, 325A143.63 143.63 0 0 0 368, 216.43C366.14, 140.22 304.4, 78.22 228.2, 76.06C146.87, 73.75 80, 139.21 80, 220A143.62 143.62 0 0 0 125.55, 325A6 6 0 0 0 135, 323.1A66.57 66.57 0 0 1 156.24, 297.74A6 6 0 0 0 156.87, 288.55A96 96 0 1 1 291.13, 288.55A6 6 0 0 0 291.76, 297.74A66.57 66.57 0 0 1 313, 323.1A6 6 0 0 0 322.45, 325z" fill="#727272" opacity="0.4" fill-opacity="1" class="Black" />
    <path d="M224, 312C191.14, 312 160, 320.59 160, 355.75C160, 388.9 172.93, 460.13 180.57, 488.56C185.71, 507.56 205.14, 512 224, 512C242.86, 512 262.29, 507.57 267.43, 488.56C275.13, 459.93 288, 388.7 288, 355.75C288, 320.59 256.86, 312 224, 312zM224, 288A64 64 0 1 0 160, 224A64 64 0 0 0 224, 288z" fill="#727272" fill-opacity="1" class="Black" />
  </g>
</svg>