<?xml version='1.0' encoding='UTF-8'?>
<svg viewBox="-3.7495 -2 32 32" xmlns="http://www.w3.org/2000/svg">
  <g transform="matrix(0.0547, 0, 0, 0.0547, 0, 0)">
    <defs>
      <style>.fa-secondary{opacity:.4}</style>
    </defs>
    <path d="M384, 224L361.78, 464L86.22, 464L64, 224z" fill="#727272" opacity="0.4" fill-opacity="1" class="Black" />
    <path d="M400, 464L48, 464A16 16 0 0 0 32, 480L32, 496A16 16 0 0 0 48, 512L400, 512A16 16 0 0 0 416, 496L416, 480A16 16 0 0 0 400, 464zM307.37, 321A10.05 10.05 0 0 0 298.9, 309.57L253.3, 302.87L232.9, 261.47A10 10 0 0 0 215, 261.47L194.6, 302.87L149, 309.6A10 10 0 0 0 143.5, 326.7L176.5, 358.9L168.7, 404.4A10 10 0 0 0 183.2, 414.9L224, 393.4L264.8, 414.9A10 10 0 0 0 279.3, 404.4L271.5, 358.9L304.5, 326.7A10 10 0 0 0 307.37, 321zM432, 144L113.68, 144C119.88, 113.71 143.53, 89.7 174.68, 82.45A47.72 47.72 0 0 0 208, 96L272, 96A48 48 0 0 0 272, 0L208, 0A47.89 47.89 0 0 0 161.69, 36C110.81, 48.48 71.66, 91.15 65, 144L16, 144A16 16 0 0 0 0, 160L0, 176A16 16 0 0 0 16, 192L432, 192A16 16 0 0 0 448, 176L448, 160A16 16 0 0 0 432, 144z" fill="#727272" fill-opacity="1" class="Black" />
  </g>
</svg>