<?xml version='1.0' encoding='UTF-8'?>
<svg viewBox="-2 -4.7992 32 32" xmlns="http://www.w3.org/2000/svg">
  <g transform="matrix(0.9988, 0, 0, 0.9988, 0, 0)">
    <g transform="matrix(0.0438, 0, 0, 0.0438, 0, 0)">
      <defs>
        <style>.fa-secondary{opacity:.4}</style>
      </defs>
      <path d="M616.12, 32L248, 32A23.94 23.94 0 0 0 224, 55.88L224, 168A23.94 23.94 0 0 0 247.88, 192L616, 192A23.94 23.94 0 0 0 640, 168.12L640, 56A23.94 23.94 0 0 0 616.12, 32zM576, 128L288, 128L288, 96L576, 96zM616.12, 320L248, 320A23.94 23.94 0 0 0 224, 343.88L224, 456A23.94 23.94 0 0 0 247.88, 480L616, 480A23.94 23.94 0 0 0 640, 456.12L640, 344A23.94 23.94 0 0 0 616.12, 320zM576, 416L288, 416L288, 384L576, 384z" fill="#727272" opacity="0.4" fill-opacity="1" class="Black" />
      <path d="M96, 416L64, 416A64.06 64.06 0 0 0 0, 480L0, 496A16 16 0 0 0 16, 512L144, 512A16 16 0 0 0 160, 496L160, 480A64.06 64.06 0 0 0 96, 416zM80, 96A48 48 0 1 0 32, 48A48 48 0 0 0 80, 96zM128, 336A48 48 0 1 0 80, 384A48 48 0 0 0 128, 336zM288, 96L288, 128L512, 128L512, 96zM288, 416L416, 416L416, 384L288, 384zM96, 128L64, 128A64.06 64.06 0 0 0 0, 192L0, 208A16 16 0 0 0 16, 224L144, 224A16 16 0 0 0 160, 208L160, 192A64.06 64.06 0 0 0 96, 128z" fill="#727272" fill-opacity="1" class="Black" />
    </g>
  </g>
</svg>