<?xml version='1.0' encoding='UTF-8'?>
<svg viewBox="-2 0 32 32" xmlns="http://www.w3.org/2000/svg">
  <g transform="matrix(0.0625, 0, 0, 0.0625, 0, 0)">
    <defs>
      <style>.fa-secondary{opacity:.4}</style>
    </defs>
    <path d="M0, 80L0, 432A48 48 0 0 0 48, 480L400, 480A48 48 0 0 0 448, 432L448, 80A48 48 0 0 0 400, 32L48, 32A48 48 0 0 0 0, 80zM112, 384A16 16 0 0 1 96, 368L96, 240A16 16 0 0 1 112, 224L144, 224A16 16 0 0 1 160, 240L160, 368A16 16 0 0 1 144, 384zM336, 288A16 16 0 0 1 352, 304L352, 368A16 16 0 0 1 336, 384L304, 384A16 16 0 0 1 288, 368L288, 304A16 16 0 0 1 304, 288zM240, 128A16 16 0 0 1 256, 144L256, 368A16 16 0 0 1 240, 384L208, 384A16 16 0 0 1 192, 368L192, 144A16 16 0 0 1 208, 128z" fill="#727272" opacity="0.4" fill-opacity="1" class="Black" />
    <path d="M160, 368L160, 240A16 16 0 0 0 144, 224L112, 224A16 16 0 0 0 96, 240L96, 368A16 16 0 0 0 112, 384L144, 384A16 16 0 0 0 160, 368zM288, 304L288, 368A16 16 0 0 0 304, 384L336, 384A16 16 0 0 0 352, 368L352, 304A16 16 0 0 0 336, 288L304, 288A16 16 0 0 0 288, 304zM192, 144L192, 368A16 16 0 0 0 208, 384L240, 384A16 16 0 0 0 256, 368L256, 144A16 16 0 0 0 240, 128L208, 128A16 16 0 0 0 192, 144z" fill="#727272" fill-opacity="1" class="Black" />
  </g>
</svg>