<?xml version='1.0' encoding='UTF-8'?>
<svg viewBox="-3.7563 -1.9999 32 31.9975" xmlns="http://www.w3.org/2000/svg">
  <g transform="matrix(0.9994, 0, 0, 0.9994, 0, 0)">
    <g transform="matrix(0.0547, 0, 0, 0.0547, 0, 0)">
      <defs>
        <style>.fa-secondary{opacity:.4}</style>
      </defs>
      <path d="M318.4, 354L230.4, 506A12 12 0 0 1 208.3, 497.2L231.3, 400L172, 400A12 12 0 0 1 160.1, 386.4L176.1, 266.4A12.06 12.06 0 0 1 188, 256L256, 256A12 12 0 0 1 267.6, 271.1L250.3, 336L308, 336A12 12 0 0 1 318.4, 354z" fill="#727272" opacity="0.4" fill-opacity="1" class="Black" />
      <path d="M374.4, 224.7C415.4, 228 448, 262.2 447.9, 304A80.24 80.24 0 0 1 367.9, 384L337.9, 384L346, 370A44 44 0 0 0 307.9, 304L291.9, 304L298.5, 279.3A44 44 0 0 0 256, 224L188, 224A44.26 44.26 0 0 0 144.3, 262.2L128.3, 382.2A10.82 10.82 0 0 1 128.3, 384L80, 384A80.24 80.24 0 0 1 0, 304C0, 262.2 32.6, 228 73.6, 224.7A62 62 0 0 1 64, 192A64.06 64.06 0 0 1 128, 128L144, 128A79.79 79.79 0 0 0 208.9, 1.5A93.1 93.1 0 0 1 224, 0A96 96 0 0 1 320, 96A94.61 94.61 0 0 1 314.1, 128L320, 128A64.06 64.06 0 0 1 384, 192A62 62 0 0 1 374.4, 224.7z" fill="#727272" fill-opacity="1" class="Black" />
    </g>
  </g>
</svg>