<?xml version='1.0' encoding='UTF-8'?>
<svg viewBox="-1.9912 -1.9975 31.9975 32" xmlns="http://www.w3.org/2000/svg">
  <g transform="matrix(0.0547, 0, 0, 0.0547, 0, 0)">
    <defs>
      <style>.fa-secondary{opacity:.4}</style>
    </defs>
    <path d="M480, 311L480, 313A70.89 70.89 0 0 1 452.66, 369A71.2 71.2 0 0 0 441, 368L71, 368A71.2 71.2 0 0 0 59.34, 369A70.89 70.89 0 0 1 32, 313L32, 311A71 71 0 0 1 103, 240L409, 240A71 71 0 0 1 480, 311z" fill="#727272" opacity="0.4" fill-opacity="1" class="Black" />
    <path d="M118.05, 240L394, 240A63.76 63.76 0 0 0 352, 128L346.12, 128A98.21 98.21 0 0 0 350.48, 77.22A94.18 94.18 0 0 0 240.91, 1.55A79.78 79.78 0 0 1 176, 128L160, 128A63.76 63.76 0 0 0 118, 240zM451.38, 369.17L451.8, 368.84A71.12 71.12 0 0 0 441, 368L71, 368A70.69 70.69 0 0 0 60.24, 368.84C60.38, 368.95 60.51, 369.07 60.66, 369.17A71.87 71.87 0 0 0 72, 512L440, 512A71.87 71.87 0 0 0 451.36, 369.14z" fill="#727272" fill-opacity="1" class="Black" />
  </g>
</svg>