<?xml version='1.0' encoding='UTF-8'?>
<svg viewBox="-5.5003 -2 32 32" xmlns="http://www.w3.org/2000/svg">
  <g transform="matrix(0.0547, 0, 0, 0.0547, 0, 0)">
    <defs>
      <style>.fa-secondary{opacity:.4}</style>
    </defs>
    <path d="M336, 0L48, 0A48 48 0 0 0 0, 48L0, 464A48 48 0 0 0 48, 512L336, 512A48 48 0 0 0 384, 464L384, 48A48 48 0 0 0 336, 0zM192, 128A64 64 0 1 1 128, 192A64.06 64.06 0 0 1 192, 128zM304, 364.8C304, 375.4 294, 384 281.6, 384L102.4, 384C90, 384 80, 375.4 80, 364.8L80, 345.6C80, 313.8 110.1, 288 147.2, 288L152.2, 288A103 103 0 0 0 231.8, 288L236.8, 288C273.9, 288 304, 313.8 304, 345.6z" fill="#727272" opacity="0.4" fill-opacity="1" class="Black" />
    <path d="M192, 256A64 64 0 1 0 128, 192A64.06 64.06 0 0 0 192, 256zM236.8, 288L231.8, 288A103 103 0 0 1 152.2, 288L147.2, 288C110.1, 288 80, 313.8 80, 345.6L80, 364.8C80, 375.4 90, 384 102.4, 384L281.6, 384C294, 384 304, 375.4 304, 364.8L304, 345.6C304, 313.8 273.9, 288 236.8, 288z" fill="#727272" fill-opacity="1" class="Black" />
  </g>
</svg>