<?xml version='1.0' encoding='UTF-8'?>
<svg viewBox="-6 0 32 32" xmlns="http://www.w3.org/2000/svg">
  <g transform="matrix(0.0625, 0, 0, 0.0625, 0, 0)">
    <defs>
      <style>.fa-secondary{opacity:.4}</style>
    </defs>
    <path d="M8, 236L8, 276A12 12 0 0 0 20, 288L48, 288L48, 224L20, 224A12 12 0 0 0 8, 236zM212, 224L128, 224L128, 288L212, 288A12 12 0 0 0 224, 276L224, 236A12 12 0 0 0 212, 224z" fill="#727272" opacity="0.4" fill-opacity="1" class="Black" />
    <path d="M48, 416L48, 158C48, 84.74 106, 32 187.93, 32C236.58, 32 273.12, 54.56 289.51, 66.93A12 12 0 0 1 291.82, 83.74A2.56 2.56 0 0 1 291.62, 84L263.13, 119.51A12 12 0 0 1 247.44, 122.2C235.67, 114.85 213.44, 103.35 189.79, 103.35C152.56, 103.35 128, 128.17 128, 160.43L128, 414.85L250.51, 414.85L250.51, 364A12 12 0 0 1 262.51, 352L308, 352A12 12 0 0 1 320, 364L320, 468A12 12 0 0 1 308, 480L12, 480A12 12 0 0 1 0, 468L0, 428A12 12 0 0 1 12, 416z" fill="#727272" fill-opacity="1" class="Black" />
  </g>
</svg>