<?xml version='1.0' encoding='UTF-8'?>
<svg viewBox="-1.7777 -2 32 32" xmlns="http://www.w3.org/2000/svg">
  <g transform="matrix(0.9992, 0, 0, 0.9992, 0, 0)">
    <g transform="matrix(0.0556, 0, 0, 0.0556, 0, 0)">
      <defs>
        <style>.fa-secondary{opacity:.4}</style>
      </defs>
      <path d="M272, 0A23.94 23.94 0 0 1 296, 24L296, 264A23.94 23.94 0 0 1 272, 288L240, 288A23.94 23.94 0 0 1 216, 264L216, 24A23.94 23.94 0 0 1 240, 0z" fill="#727272" opacity="0.4" fill-opacity="1" class="Black" />
      <path d="M504, 256C504, 392.8 393.2, 503.7 256.5, 504C120, 504.3 8.2, 393 8, 256.4A248 248 0 0 1 111.8, 54.2A24.07 24.07 0 0 1 146.8, 61.9L162.6, 90A24 24 0 0 1 156, 121A168 168 0 0 0 256, 424C347.6, 424 424.6, 349.8 424, 254.9A168.07 168.07 0 0 0 355.9, 120.9A23.86 23.86 0 0 1 349.4, 90L365.2, 61.9A24 24 0 0 1 400, 54.1A247.51 247.51 0 0 1 504, 256z" fill="#727272" fill-opacity="1" class="Black" />
    </g>
  </g>
</svg>