<?xml version='1.0' encoding='UTF-8'?>
<svg viewBox="-1.9998 -4.8002 31.9975 32" xmlns="http://www.w3.org/2000/svg">
  <g transform="matrix(0.9988, 0, 0, 0.9988, 0, 0)">
    <g transform="matrix(0.0438, 0, 0, 0.0438, 0, 0)">
      <defs>
        <style>.fa-secondary{opacity:.4}</style>
      </defs>
      <path d="M640, 384L640, 480C640, 490.82 631.48, 512 608, 512A32.16 32.16 0 0 1 599.94, 511L420.75, 464.35A117.32 117.32 0 0 1 336, 352L336, 224A32 32 0 0 1 400, 224L400, 304A16 16 0 0 0 432, 304L432, 227.46A95.86 95.86 0 0 0 418.31, 178.07L340.56, 48.48A31.8 31.8 0 0 1 393.83, 13.78C394.03, 14.02 394.44, 13.99 394.62, 14.26L511.88, 190.15A95.66 95.66 0 0 1 528, 243.38L528, 323.61L618.12, 353.61A32 32 0 0 1 640, 384z" fill="#727272" opacity="0.4" fill-opacity="1" class="Black" />
      <path d="M32, 511.92C8.52, 511.92 0, 490.74 0, 479.92L0, 383.92A32 32 0 0 1 21.88, 353.57L112, 323.57L112, 243.3A95.66 95.66 0 0 1 128.12, 190.07L245.38, 14.17C245.55, 13.9 245.97, 13.92 246.17, 13.69A31.8 31.8 0 0 1 299.44, 48.39L221.69, 178A95.86 95.86 0 0 0 208, 227.37L208, 303.92A16 16 0 1 0 240, 303.92L240, 223.92A32 32 0 1 1 304, 223.92L304, 351.92A117.35 117.35 0 0 1 219.25, 464.27L40.06, 510.89A32 32 0 0 1 32, 511.92z" fill="#727272" fill-opacity="1" class="Black" />
    </g>
  </g>
</svg>