<?xml version='1.0' encoding='UTF-8'?>
<svg viewBox="-1.995 -4.7973 31.9975 32" xmlns="http://www.w3.org/2000/svg">
  <g transform="matrix(0.999, 0, 0, 0.999, 0, 0)">
    <g transform="matrix(0.0438, 0, 0, 0.0438, 0, 0)">
      <defs>
        <style>.fa-secondary{opacity:.4}</style>
      </defs>
      <path d="M176, 104.26L176, 48L416, 48L416, 80A16 16 0 0 0 432, 96L464, 96L464, 192L289.53, 192L538, 384L560, 384A16 16 0 0 0 576, 368L576, 256A64 64 0 0 0 512, 192L512, 77.25A32 32 0 0 0 502.63, 54.62L457.37, 9.37A32 32 0 0 0 434.74, 0L160, 0A32 32 0 0 0 128, 32L128, 67.16zM496, 248A24 24 0 1 1 472, 272A24 24 0 0 1 496, 248zM432, 464L491.29, 509.72A31.48 31.48 0 0 1 480, 512L160, 512A32 32 0 0 1 128, 480L128, 384L80, 384A16 16 0 0 1 64, 368L64, 256A63.83 63.83 0 0 1 93.47, 202.25L328, 384L176, 384L176, 464z" fill="#727272" opacity="0.4" fill-opacity="1" class="Black" />
      <path d="M636.64, 480.55L617, 505.82A16 16 0 0 1 594.54, 508.63L6.18, 53.9A16 16 0 0 1 3.37, 31.45L23, 6.18A16 16 0 0 1 45.47, 3.37L633.82, 458.1A16 16 0 0 1 636.64, 480.55z" fill="#727272" fill-opacity="1" class="Black" />
    </g>
  </g>
</svg>