<?xml version='1.0' encoding='UTF-8'?>
<svg viewBox="-1.9975 -3.553 32 32" xmlns="http://www.w3.org/2000/svg">
  <g transform="matrix(0.0486, 0, 0, 0.0486, 0, 0)">
    <defs>
      <style>.fa-secondary{opacity:.4}</style>
    </defs>
    <path d="M244, 103.93L281.55, 10.07A16 16 0 0 1 303.55, 1.7L343.15, 21.5A16 16 0 0 1 352, 35.81L352, 113.21C334.23, 102.12 313.16, 96 288, 96A128.55 128.55 0 0 0 244, 103.93z" fill="#727272" opacity="0.4" fill-opacity="1" class="Black" />
    <path d="M495.31, 486.87C456.68, 519.87 394.49, 520.21 355.19, 488.12C337.35, 503.51 315.28, 512 288, 512C260.72, 512 238.65, 503.51 220.82, 488.12C181.52, 520.21 119.33, 519.9 80.7, 486.87C-26.9, 394.87 -26.9, 245.14 80.7, 153.13C112.31, 126.13 159.5, 121.44 197.21, 138.13C194.13, 142.13 190.69, 145.51 188, 150.05C179.67, 164.32 173.5, 181.82 168.89, 201.66A138.4 138.4 0 0 1 181.75, 177.55Q215.76, 128 288, 128Q360.24, 128 394.25, 177.5A138.5 138.5 0 0 1 407.11, 201.62C402.5, 181.78 396.32, 164.27 388, 150C385.31, 145.46 381.86, 142.05 378.79, 138.08C416.5, 121.44 463.69, 126.08 495.3, 153.08C602.9, 245.14 602.9, 394.86 495.31, 486.87z" fill="#727272" fill-opacity="1" class="Black" />
  </g>
</svg>