<?xml version='1.0' encoding='UTF-8'?>
<svg viewBox="-2 -3.5577 32 32" xmlns="http://www.w3.org/2000/svg">
  <g transform="matrix(0.0486, 0, 0, 0.0486, 0, 0)">
    <defs>
      <style>.fa-secondary{opacity:.4}</style>
    </defs>
    <path d="M576, 354.44C576, 388 556.71, 416 521.08, 416C481.19, 416 470.73, 379.85 434.77, 379.85C374.22, 379.85 408.94, 499.95 408.94, 499.95C357.39, 499.95 227.71, 535.02 227.71, 474.22C227.71, 438.39 264, 427.97 264, 388.22C264, 352.72 235.88, 333.51 202.21, 333.51C167.88, 333.51 138.63, 352.4 138.63, 389.85C138.63, 431.22 178.63, 448.85 178.63, 471.32C178.63, 541 0, 500 0, 500L0, 166.76C0, 166.76 175.88, 207.76 175.88, 138.1C175.88, 115.62 144.17, 97.71 144.17, 56.35C144.17, 18.89 175.88, 0 210.54, 0C243.88, 0 272, 19.22 272, 54.72C272, 94.45 235.71, 104.88 235.71, 140.72C235.71, 224 432, 144 432, 144C432, 144 377.41, 320.24 437.38, 320.24C459.94, 320.24 477.92, 288.65 519.44, 288.65C557, 288.65 576, 320.24 576, 354.44z" fill="#727272" opacity="0.4" fill-opacity="1" class="Black" />
  </g>
</svg>