<?xml version='1.0' encoding='UTF-8'?>
<svg viewBox="-1.5477 -1.5477 32 32" xmlns="http://www.w3.org/2000/svg">
  <g transform="matrix(0.9991, 0, 0, 0.9991, 0, 0)">
    <g transform="matrix(0.0565, 0, 0, 0.0565, 0, 0)">
      <defs>
        <style>.fa-secondary{opacity:.4}</style>
      </defs>
      <path d="M256, 8C119, 8 8, 119.08 8, 256C8, 392.92 119, 504 256, 504C393, 504 504, 393 504, 256C504, 119 393, 8 256, 8zM256, 430A46 46 0 1 1 302, 384A46.05 46.05 0 0 1 256, 430zM296, 298.67L296, 300A12 12 0 0 1 284, 312L228, 312A12 12 0 0 1 216, 300L216, 296C216, 254.94 247.13, 238.53 270.65, 225.34C290.82, 214.03 303.19, 206.34 303.19, 191.34C303.19, 171.52 277.92, 158.34 257.49, 158.34C230.3, 158.34 218.05, 171.48 200.19, 194.13A12 12 0 0 1 183.52, 196.26L148.82, 170A12 12 0 0 1 146.11, 153.74C173.4, 113 208.16, 90 262.66, 90C319, 90 379.19, 134 379.19, 192C379.19, 269 296, 270.21 296, 298.67z" fill="#727272" opacity="0.4" fill-opacity="1" class="Black" />
      <path d="M256, 338A46 46 0 1 0 302, 384A46 46 0 0 0 256, 338zM262.66, 90C208.16, 90 173.4, 113 146.11, 153.76A12 12 0 0 0 148.82, 170L183.52, 196.31A12 12 0 0 0 200.19, 194.18C218.05, 171.53 230.3, 158.39 257.49, 158.39C277.92, 158.39 303.19, 171.53 303.19, 191.39C303.19, 206.39 290.82, 214.05 270.65, 225.39C247.13, 238.53 216, 254.94 216, 296L216, 300A12 12 0 0 0 228, 312L284, 312A12 12 0 0 0 296, 300L296, 298.67C296, 270.21 379.19, 269 379.19, 192C379.19, 134 319, 90 262.66, 90z" fill="#727272" fill-opacity="1" class="Black" />
    </g>
  </g>
</svg>