<?xml version='1.0' encoding='UTF-8'?>
<svg viewBox="-2 0 32 32" xmlns="http://www.w3.org/2000/svg">
  <g transform="matrix(0.0625, 0, 0, 0.0625, 0, 0)">
    <defs>
      <style>.fa-secondary{opacity:.4}</style>
    </defs>
    <path d="M400, 32L48, 32A48 48 0 0 0 0, 80L0, 432A48 48 0 0 0 48, 480L400, 480A48 48 0 0 0 448, 432L448, 80A48 48 0 0 0 400, 32zM224, 430A46 46 0 1 1 270, 384A46.06 46.06 0 0 1 224, 430zM264, 298.67L264, 300A12 12 0 0 1 252, 312L196, 312A12 12 0 0 1 184, 300L184, 296C184, 254.94 215.13, 238.53 238.65, 225.34C258.82, 214.03 271.19, 206.34 271.19, 191.34C271.19, 171.53 245.92, 158.34 225.49, 158.34C198.3, 158.34 186.05, 171.47 168.19, 194.13A12 12 0 0 1 151.52, 196.26L116.82, 170A12 12 0 0 1 114.11, 153.74C141.4, 113 176.16, 90 230.66, 90C287, 90 347.19, 134 347.19, 192C347.19, 269 264, 270.21 264, 298.67z" fill="#727272" opacity="0.4" fill-opacity="1" class="Black" />
    <path d="M224, 338A46 46 0 1 0 270, 384A46.05 46.05 0 0 0 224, 338zM230.66, 90C176.16, 90 141.4, 113 114.11, 153.76A12 12 0 0 0 116.82, 170L151.52, 196.31A12 12 0 0 0 168.19, 194.18C186.05, 171.52 198.3, 158.39 225.49, 158.39C245.92, 158.39 271.19, 171.53 271.19, 191.39C271.19, 206.39 258.82, 214.06 238.65, 225.39C215.13, 238.53 184, 254.94 184, 296L184, 300A12 12 0 0 0 196, 312L252, 312A12 12 0 0 0 264, 300L264, 298.67C264, 270.21 347.19, 269 347.19, 192C347.19, 134 287, 90 230.66, 90z" fill="#727272" fill-opacity="1" class="Black" />
  </g>
</svg>