<?xml version='1.0' encoding='UTF-8'?>
<svg viewBox="-2 -1.9988 32 32" xmlns="http://www.w3.org/2000/svg">
  <g transform="matrix(0.0547, 0, 0, 0.0547, 0, 0)">
    <defs>
      <style>.fa-secondary{opacity:.4}</style>
    </defs>
    <path d="M176, 32L48, 32A48 48 0 0 0 0, 80L0, 208A48 48 0 0 0 48, 256L128, 256L128, 320A64.06 64.06 0 0 1 64, 384L56, 384A23.94 23.94 0 0 0 32, 407.88L32, 456A23.94 23.94 0 0 0 55.88, 480L64, 480A160 160 0 0 0 224, 320L224, 80A48 48 0 0 0 176, 32z" fill="#727272" opacity="0.4" fill-opacity="1" class="Black" />
    <path d="M464, 32L336, 32A48 48 0 0 0 288, 80L288, 208A48 48 0 0 0 336, 256L416, 256L416, 320A64.06 64.06 0 0 1 352, 384L344, 384A23.94 23.94 0 0 0 320, 407.88L320, 456A23.94 23.94 0 0 0 343.88, 480L352, 480A160 160 0 0 0 512, 320L512, 80A48 48 0 0 0 464, 32z" fill="#727272" fill-opacity="1" class="Black" />
  </g>
</svg>