<?xml version='1.0' encoding='UTF-8'?>
<svg viewBox="-2 -1.9988 32 32" xmlns="http://www.w3.org/2000/svg">
  <g transform="matrix(0.0547, 0, 0, 0.0547, 0, 0)">
    <defs>
      <style>.fa-secondary{opacity:.4}</style>
    </defs>
    <path d="M464, 256L384, 256L384, 192A64.06 64.06 0 0 1 448, 128L456, 128A23.94 23.94 0 0 0 480, 104.12L480, 56A23.94 23.94 0 0 0 456.12, 32L448, 32A160 160 0 0 0 288, 192L288, 432A48 48 0 0 0 336, 480L464, 480A48 48 0 0 0 512, 432L512, 304A48 48 0 0 0 464, 256z" fill="#727272" opacity="0.4" fill-opacity="1" class="Black" />
    <path d="M176, 256L96, 256L96, 192A64.06 64.06 0 0 1 160, 128L168, 128A23.94 23.94 0 0 0 192, 104.12L192, 56A23.94 23.94 0 0 0 168.12, 32L160, 32A160 160 0 0 0 0, 192L0, 432A48 48 0 0 0 48, 480L176, 480A48 48 0 0 0 224, 432L224, 304A48 48 0 0 0 176, 256z" fill="#727272" fill-opacity="1" class="Black" />
  </g>
</svg>