<?xml version='1.0' encoding='UTF-8'?>
<svg viewBox="-3.7494 -1.9999 32 32" xmlns="http://www.w3.org/2000/svg">
  <g transform="matrix(0.0547, 0, 0, 0.0547, 0, 0)">
    <defs>
      <style>.fa-secondary{opacity:.4}</style>
    </defs>
    <path d="M96, 448C76.8, 448 64, 435.2 64, 416C64, 396.8 80, 384 96, 384L415.33, 384C413.4, 400.24 413.57, 432.38 415.86, 448z" fill="#727272" opacity="0.4" fill-opacity="1" class="Black" />
    <path d="M96, 384L424, 384A24 24 0 0 0 448, 360L448, 32A32 32 0 0 0 416, 0L96, 0A96 96 0 0 0 0, 96L0, 416A96 96 0 0 0 96, 512L424, 512A24 24 0 0 0 448, 488L448, 472A24 24 0 0 0 424, 448L96, 448C76.8, 448 64, 435.2 64, 416C64, 396.8 80, 384 96, 384zM304, 144A3.23 3.23 0 0 1 306.92, 145.82L318.1, 168.47L343.1, 172.1A3.26 3.26 0 0 1 344.91, 177.66L326.82, 195.29L331.09, 220.18A3.25 3.25 0 0 1 326.36, 223.62L304, 211.87L281.64, 223.62A3.25 3.25 0 0 1 276.91, 220.18L281.18, 195.29L263.09, 177.66A3.26 3.26 0 0 1 264.9, 172.1L289.9, 168.47L301.09, 145.82A3.23 3.23 0 0 1 304, 144zM243.19, 76.81A114.69 114.69 0 0 1 283.57, 84.22A6.78 6.78 0 1 1 283.57, 97.77A6.85 6.85 0 0 1 281.2, 97.34C280.53, 97.34 278.11, 97.13 277.07, 97.13A94.86 94.86 0 0 0 277.07, 286.85C278.07, 286.85 280.55, 286.64 281.2, 286.64A6.78 6.78 0 0 1 283.38, 299.84A115.14 115.14 0 1 1 243.2, 76.84z" fill="#727272" fill-opacity="1" class="Black" />
  </g>
</svg>