<?xml version='1.0' encoding='UTF-8'?>
<svg viewBox="-1.9875 -3.5497 32 32" xmlns="http://www.w3.org/2000/svg">
  <g transform="matrix(1.0006, 0, 0, 1.0006, 0, 0)">
    <g transform="matrix(0.0486, 0, 0, 0.0486, 0, 0)">
      <defs>
        <style>.fa-secondary{opacity:.4}</style>
      </defs>
      <path d="M135.5, 396.68A16 16 0 0 0 128, 410.25L128, 448A16 16 0 0 0 152.48, 461.57L219.17, 421.7L171.33, 373.85zM552.27, 201.26L495.85, 166.64C495.79, 152.69 493.56, 135.87 488.77, 117.97C477.46, 75.73 456.87, 44.54 442.77, 48.31C428.67, 52.08 426.44, 89.39 437.77, 131.63C438.42, 134.07 439.21, 136.33 439.92, 138.69A224.93 224.93 0 0 0 423.6, 120.37C392.7, 89.45 359.27, 72.73 349, 83C338.73, 93.27 355.41, 126.73 386.33, 157.66A198.36 198.36 0 0 0 423.75, 187.44A60.18 60.18 0 0 0 416.87, 206.76A63.07 63.07 0 0 0 416.12, 216.07C364.54, 179.12 261.59, 112 192, 112A121.32 121.32 0 0 0 80.49, 185.53A61.82 61.82 0 0 0 93.59, 253.59L259.41, 419.41A43 43 0 0 0 289.81, 432L432, 432A16 16 0 0 0 448, 416L448, 400A32 32 0 0 0 416, 368L320, 368L320, 312.42A80.3 80.3 0 0 0 262, 235.51L219.6, 223.4A16 16 0 0 1 228.38, 192.62L270.77, 204.73A112.46 112.46 0 0 1 352, 312.42L352, 336L416, 304L519.33, 304A56.66 56.66 0 0 0 552.27, 201.25zM496, 240A16 16 0 1 1 512, 224A16 16 0 0 1 496, 240z" fill="#727272" opacity="0.4" fill-opacity="1" class="Black" />
      <path d="M17.46, 154.94A48 48 0 0 0 78.54, 229A61.77 61.77 0 0 1 80.49, 185.5A121.83 121.83 0 0 1 89.67, 168.15A47 47 0 0 0 85, 161.43A48 48 0 0 0 17.46, 154.94zM496, 208A16 16 0 1 0 512, 224A16 16 0 0 0 496, 208z" fill="#727272" fill-opacity="1" class="Black" />
    </g>
  </g>
</svg>