<?xml version='1.0' encoding='UTF-8'?>
<svg viewBox="-1.9974 -4.8002 31.9975 32" xmlns="http://www.w3.org/2000/svg">
  <g transform="matrix(1.001, 0, 0, 1.001, 0, 0)">
    <g transform="matrix(0.0437, 0, 0, 0.0437, 0, 0)">
      <defs>
        <style>.fa-secondary{opacity:.4}</style>
      </defs>
      <path d="M6.65, 431.11A16.1 16.1 0 0 0 3, 453.41L39.8, 505.21A16 16 0 0 0 62, 509.11L182.7, 426.51L126, 346.51C126, 346.51 6.75, 431.21 6.65, 431.11zM486, 64C379.6, 64 307.4, 154 291, 205.1C269.7, 271.3 304.3, 317.9 374.9, 317.9C459, 317.9 546, 251.1 569.9, 176.8C591.15, 110.71 556.55, 64 486, 64z" fill="#727272" opacity="0.4" fill-opacity="1" class="Black" />
      <path d="M615.55, 59.81C560.35, -18.09 432.65, -19.09 332.15, 52.11C274.85, 92.71 237.55, 148.51 225.35, 203.21C214.35, 252.71 190.35, 297.71 157.65, 335.91L203.35, 400.41C290.75, 366.71 347.65, 381.81 375.25, 381.81C424.85, 381.81 479.65, 364.61 528.75, 329.81C631, 257.41 669.85, 136.51 615.55, 59.81zM210.15, 347A355.28 355.28 0 0 0 236.35, 306C245.55, 324 245.85, 323.4 257.55, 335.7A379.24 379.24 0 0 0 210.15, 347zM569.85, 176.8C545.95, 251.1 458.95, 317.9 374.85, 317.9C304.25, 317.9 269.65, 271.3 290.95, 205.1C307.35, 154 379.55, 64 486, 64C556.55, 64 591.15, 110.71 569.85, 176.81z" fill="#727272" fill-opacity="1" class="Black" />
    </g>
  </g>
</svg>