<?xml version='1.0' encoding='UTF-8'?>
<svg viewBox="-2 -0.3048 32 32" xmlns="http://www.w3.org/2000/svg">
  <g transform="matrix(1.0009, 0, 0, 1.0009, 0, 0)">
    <g transform="matrix(0.0564, 0, 0, 0.0564, 0, 0)">
      <defs>
        <style>.fa-secondary{opacity:.4}</style>
      </defs>
      <path d="M296, 255.82A48 48 0 1 1 248, 207.82A48 48 0 0 1 296, 255.82z" fill="#727272" opacity="0.4" fill-opacity="1" class="Black" />
      <path d="M125.23, 452C120.43, 459.7 122.83, 470.1 130.83, 474.4A246.73 246.73 0 0 0 365.19, 474.4C373.19, 470.1 375.59, 459.6 370.79, 452L290.41, 323.52A78.67 78.67 0 0 1 205.63, 323.52zM16.23, 255.82L167.82, 255.82C167.82, 227.23 183.02, 202.33 205.62, 188.13L125.23, 59.74C120.43, 52.04 109.93, 49.54 102.53, 54.94C44.44, 96.94 5.14, 163.33 0, 239.12C-0.6, 248.12 7.1, 255.82 16.2, 255.82zM328.23, 255.82L479.79, 255.82C488.89, 255.82 496.58, 248.12 495.99, 239.02C490.89, 163.23 451.59, 96.84 393.5, 54.84C386.1, 49.54 375.6, 51.94 370.8, 59.64L290.41, 188C313.01, 202.3 328.2, 227.2 328.2, 255.79z" fill="#727272" fill-opacity="1" class="Black" />
    </g>
  </g>
</svg>