<?xml version='1.0' encoding='UTF-8'?>
<svg viewBox="-2 -3.5515 32 31.9975" xmlns="http://www.w3.org/2000/svg">
  <g transform="matrix(0.0486, 0, 0, 0.0486, 0, 0)">
    <defs>
      <style>.fa-secondary{opacity:.4}</style>
    </defs>
    <path d="M287.83, 224A96.24 96.24 0 0 0 268.9, 225.9C223.3, 234.8 192, 277.4 192, 323.8L192, 464A16 16 0 0 0 208, 480L240, 480A16 16 0 0 0 256, 464L256, 320A32 32 0 0 1 320, 320L320, 464A16 16 0 0 0 336, 480L368, 480A16 16 0 0 0 384, 464L384, 320A96.11 96.11 0 0 0 287.83, 224zM268.3, 32.67C115.4, 42.87 0, 176.87 0, 330.17L0, 464A16 16 0 0 0 16, 480L48, 480A16 16 0 0 0 64, 464L64, 320C64, 186.8 180.9, 80.3 317.5, 97.9C430.4, 112.37 512, 214 512, 327.77L512, 464A16 16 0 0 0 528, 480L560, 480A16 16 0 0 0 576, 464L576, 320C576, 154.67 436, 21.37 268.3, 32.67z" fill="#727272" opacity="0.4" fill-opacity="1" class="Black" />
    <path d="M480, 320L480, 464A16 16 0 0 1 464, 480L432, 480A16 16 0 0 1 416, 464L416, 325.69C416, 258.8 367.3, 199.11 300.8, 192.61C224.5, 185.21 160, 245.2 160, 320L160, 464A16 16 0 0 1 144, 480L112, 480A16 16 0 0 1 96, 464L96, 326.69C96, 229.11 166, 142 262.7, 129.62C379.8, 114.62 480, 205.81 480, 320z" fill="#727272" fill-opacity="1" class="Black" />
  </g>
</svg>