<?xml version='1.0' encoding='UTF-8'?>
<svg viewBox="-2 -4.7992 32 32" xmlns="http://www.w3.org/2000/svg">
  <g transform="matrix(0.9988, 0, 0, 0.9988, 0, 0)">
    <g transform="matrix(0.0438, 0, 0, 0.0438, 0, 0)">
      <defs>
        <style>.fa-secondary{opacity:.4}</style>
      </defs>
      <path d="M488.14, 303.26A58.45 58.45 0 0 1 480.7, 354.47A53.12 53.12 0 0 1 437.25, 377.77C436.14, 377.77 435.03, 377.77 433.92, 377.66C426.08, 399.18 406.03, 413.84 383.69, 413.84A51.08 51.08 0 0 1 353.29, 403.66A51.46 51.46 0 0 1 287.67, 404.66A51.74 51.74 0 0 1 255.46, 415.86A50.43 50.43 0 0 1 223.6, 404.69A50.77 50.77 0 0 1 192.26, 415.26A55.21 55.21 0 0 1 158.08, 403.48A52.9 52.9 0 0 1 127.5, 413.34C104.77, 413.34 85.18, 398.89 77.5, 376.92C76.39, 376.99 75.27, 377.03 74.16, 377.03C57.23, 377.03 41.09, 368.33 30.99, 353.76A58.55 58.55 0 0 1 23.57, 302.48C8.92, 292.3 0, 274.74 0, 255.8C0, 236.56 8.86, 219.31 23.86, 208.94A58.59 58.59 0 0 1 31.34, 157.66C41.43, 143.09 57.61, 134.38 74.61, 134.38Q76.35, 134.38 78.09, 134.5C85.94, 113 106, 98.38 128.29, 98.38A51.2 51.2 0 0 1 158.78, 108.59A56 56 0 0 1 193, 96.91A49.43 49.43 0 0 1 224, 107.47A52 52 0 0 1 288.26, 107.47A52 52 0 0 1 304, 98.71A96 96 0 0 0 477, 153.27A56.5 56.5 0 0 1 481, 158.34A58.58 58.58 0 0 1 488.45, 209.66C503.08, 219.88 512, 237.44 512, 256.38C512, 275.62 503.14, 292.88 488.14, 303.26z" fill="#727272" opacity="0.4" fill-opacity="1" class="Black" />
      <path d="M622.25, 106L576, 83.22L576, 64A32 32 0 0 0 544, 32L471.55, 32A96 96 0 1 0 477.05, 153.27A57.42 57.42 0 0 1 491.31, 192L599.66, 192A25.71 25.71 0 0 0 622, 179.06C629.59, 165.8 640, 145.61 640, 134.47A31.8 31.8 0 0 0 622.25, 106zM400, 144A48 48 0 1 1 448, 96A48.05 48.05 0 0 1 400, 144zM512, 112A16 16 0 1 1 528, 96A16 16 0 0 1 512, 112zM193.46, 418.86L194.83, 415.22C193.97, 415.22 193.12, 415.29 192.26, 415.29A55.21 55.21 0 0 1 158.08, 403.51A52.9 52.9 0 0 1 127.5, 413.37A51.69 51.69 0 0 1 97.38, 403.77A64 64 0 0 0 97.92, 432.47L114.77, 499.88A16 16 0 0 0 130.29, 512L196.29, 512A16 16 0 0 0 211.81, 492.12zM433.92, 377.66C426.08, 399.18 406.03, 413.84 383.69, 413.84A51.08 51.08 0 0 1 353.29, 403.66C352.87, 404.02 352.43, 404.36 352, 404.66L352, 496A16 16 0 0 0 368, 512L432, 512A16 16 0 0 0 448, 496L448, 376.59A50.8 50.8 0 0 1 437.25, 377.77C436.14, 377.77 435, 377.73 433.92, 377.66z" fill="#727272" fill-opacity="1" class="Black" />
    </g>
  </g>
</svg>