<?xml version='1.0' encoding='UTF-8'?>
<svg viewBox="-5.5002 -1.9999 32 32" xmlns="http://www.w3.org/2000/svg">
  <g transform="matrix(0.0547, 0, 0, 0.0547, 0, 0)">
    <defs>
      <style>.fa-secondary{opacity:.4}</style>
    </defs>
    <path d="M355.4, 383.3L321, 314.5A13 13 0 0 0 320, 313L320, 64L64, 64L64, 313C63.7, 313.5 63.3, 313.9 63, 314.5L28.6, 383.3C12.6, 381.5 0, 368.5 0, 352L0, 32A32 32 0 0 1 32, 0L352, 0A32 32 0 0 1 384, 32L384, 352C384, 368.4 371.4, 381.5 355.4, 383.3z" fill="#727272" opacity="0.4" fill-opacity="1" class="Black" />
    <path d="M292.4, 328.8L372.4, 488.8A16 16 0 0 1 358.1, 512L25.9, 512A16 16 0 0 1 11.6, 488.8L91.6, 328.8A15.92 15.92 0 0 1 105.9, 320L278.1, 320A15.92 15.92 0 0 1 292.4, 328.8z" fill="#727272" fill-opacity="1" class="Black" />
  </g>
</svg>