<?xml version='1.0' encoding='UTF-8'?>
<svg viewBox="-5.5003 -2 32 32" xmlns="http://www.w3.org/2000/svg">
  <g transform="matrix(0.0547, 0, 0, 0.0547, 0, 0)">
    <defs>
      <style>.fa-secondary{opacity:.4}</style>
    </defs>
    <path d="M336, 0L48, 0A48 48 0 0 0 0, 48L0, 464A48 48 0 0 0 48, 512L336, 512A48 48 0 0 0 384, 464L384, 48A48 48 0 0 0 336, 0zM320, 432A16 16 0 0 1 304, 448L80, 448A16 16 0 0 1 64, 432L64, 80A16 16 0 0 1 80, 64L304, 64A16 16 0 0 1 320, 80z" fill="#727272" opacity="0.4" fill-opacity="1" class="Black" />
    <path d="M64, 432L64, 80A16 16 0 0 1 80, 64L304, 64A16 16 0 0 1 320, 80L320, 432A16 16 0 0 1 304, 448L80, 448A16 16 0 0 1 64, 432z" fill="#727272" fill-opacity="1" class="Black" />
  </g>
</svg>