<?xml version='1.0' encoding='UTF-8'?>
<svg viewBox="-2 -2 32 32" xmlns="http://www.w3.org/2000/svg">
  <g transform="matrix(0.0547, 0, 0, 0.0547, 0, 0)">
    <defs>
      <style>.fa-secondary{opacity:.4}</style>
    </defs>
    <path d="M497.29, 301.1L469.77, 257A12 12 0 0 0 453.24, 253.17L419.38, 274.33A12 12 0 0 0 415.57, 290.87L443.12, 335C456.38, 356.21 441.06, 384 415.98, 384L320, 384L320, 448L415.88, 448C491.15, 448 537.21, 365 497.29, 301.1zM148, 384L96, 384C71, 384 55.6, 356.27 68.88, 335L119.75, 253.6L65.53, 219.71L14.71, 301.1C-25.19, 365 20.78, 448 96.11, 448L148, 448A12 12 0 0 0 160, 436L160, 396A12 12 0 0 0 148, 384zM378.67, 111.14L337.41, 45.06C299.89, -14.94 212.2, -15.11 174.59, 45.06L156.59, 73.82A12 12 0 0 0 160.4, 90.36L194.32, 111.55A12 12 0 0 0 210.86, 107.77L228.9, 79C241.62, 58.66 270.9, 59.32 283.16, 79L324.45, 145.07z" fill="#727272" opacity="0.4" fill-opacity="1" class="Black" />
    <path d="M184.56, 261.88L159.11, 151.65A16 16 0 0 0 139.93, 139.65L29.68, 165.11C15.84, 168.3 12.68, 186.72 24.8, 194.27L160.48, 279C172.48, 286.47 187.78, 275.83 184.55, 261.83zM292.69, 324.67L212.69, 404.67A16 16 0 0 0 212.69, 427.3L292.69, 507.3C302.69, 517.3 320, 510.3 320, 495.99L320, 336C320, 321.77 302.76, 314.6 292.69, 324.67zM419.36, 85.67L283.71, 170.52C271.71, 178.05 274.71, 196.47 288.59, 199.68L398.83, 225.13A16 16 0 0 0 418.02, 213.13L443.43, 102.88C446.62, 89 431.43, 78.16 419.36, 85.71z" fill="#727272" fill-opacity="1" class="Black" />
  </g>
</svg>