<?xml version='1.0' encoding='UTF-8'?>
<svg viewBox="-1.5724 -2.01 31.9975 32" xmlns="http://www.w3.org/2000/svg">
  <g transform="matrix(0.0555, 0, 0, 0.0555, 0, 0)">
    <defs>
      <style>.fa-secondary{opacity:.4}</style>
    </defs>
    <path d="M422.36, 422.69A12 12 0 0 1 422.36, 439.69L421.87, 440.15A247.1 247.1 0 0 1 255.67, 504C118.77, 504 7.77, 393.07 7.67, 256.19C7.57, 119.53 119, 8 255.67, 8A247.45 247.45 0 0 1 444.57, 95.33L448.09, 159.76L401.59, 157.54A176 176 0 1 0 372, 388.15A12 12 0 0 1 388.38, 388.69z" fill="#727272" opacity="0.4" fill-opacity="1" class="Black" />
    <path d="M512, 12L512, 212A12 12 0 0 1 500, 224L300, 224A12 12 0 0 1 288, 212L288, 164.68A12 12 0 0 1 300, 152.68L300.58, 152.68L448.12, 159.74L440.68, 12.55A12 12 0 0 1 452.07, 0L500, 0A12 12 0 0 1 512, 12z" fill="#727272" fill-opacity="1" class="Black" />
  </g>
</svg>