<?xml version='1.0' encoding='UTF-8'?>
<svg viewBox="-1.5477 -1.5477 32 32" xmlns="http://www.w3.org/2000/svg">
  <g transform="matrix(0.9991, 0, 0, 0.9991, 0, 0)">
    <g transform="matrix(0.0565, 0, 0, 0.0565, 0, 0)">
      <defs>
        <style>.fa-secondary{opacity:.4}</style>
      </defs>
      <path d="M250.43, 179.77L227.06, 179.77L227.06, 235.91L256.93, 235.91C275.53, 235.91 285.36, 226.08 285.36, 207.47C285.36, 188.54 279.1, 179.77 250.43, 179.77zM256, 8C119, 8 8, 119 8, 256C8, 393 119, 504 256, 504C393, 504 504, 393 504, 256C504, 119 393, 8 256, 8zM342.39, 396L317.93, 396A24 24 0 0 1 296.74, 383.27L252.61, 300.34L227.06, 300.34L227.06, 372A24 24 0 0 1 203.06, 396L180.49, 396A24 24 0 0 1 156.49, 372L156.49, 139.68A24 24 0 0 1 180.49, 115.68L251.16, 115.68C325.16, 115.68 356.65, 150.68 356.65, 204.93C356.65, 236.41 342.14, 264.24 318.71, 279.41C320.11, 281.78 316.71, 275.59 363.41, 360.41A24 24 0 0 1 342.41, 396z" fill="#727272" opacity="0.4" fill-opacity="1" class="Black" />
      <path d="M363.41, 360.41C316.68, 275.59 320.11, 281.78 318.71, 279.41C342.14, 264.24 356.65, 236.41 356.65, 204.93C356.65, 150.68 325.15, 115.68 251.16, 115.68L180.49, 115.68A24 24 0 0 0 156.49, 139.68L156.49, 372A24 24 0 0 0 180.49, 396L203.06, 396A24 24 0 0 0 227.06, 372L227.06, 300.34L252.61, 300.34L296.74, 383.27A24 24 0 0 0 317.93, 396L342.39, 396A24 24 0 0 0 363.39, 360.41zM256.93, 235.91L227.06, 235.91L227.06, 179.77L250.43, 179.77C279.1, 179.77 285.36, 188.54 285.36, 207.47C285.36, 226.08 275.53, 235.91 256.93, 235.91z" fill="#727272" fill-opacity="1" class="Black" />
    </g>
  </g>
</svg>