<?xml version='1.0' encoding='UTF-8'?>
<svg viewBox="-1.9998 -1.9986 31.9975 32" xmlns="http://www.w3.org/2000/svg">
  <g transform="matrix(0.0547, 0, 0, 0.0547, 0, 0)">
    <defs>
      <style>.fa-secondary{opacity:.4}</style>
    </defs>
    <path d="M493.54, 181.5A159 159 0 0 1 512, 257.25C511.34, 345.4 438.56, 416 350.4, 416L192, 416L192, 463.5C192, 486 165.82, 495.8 151, 481L71, 401A24 24 0 0 1 71, 367.06L151, 287.06C166.11, 271.95 192, 282.72 192, 304.06L192, 352.06L350.87, 352.06C403.69, 352.06 447.45, 309.88 447.99, 257.06A95.53 95.53 0 0 0 438.78, 215A23.94 23.94 0 0 1 443.58, 187.72C448.32, 183.01 452.22, 179.17 455.45, 175.93A24 24 0 0 1 493.54, 181.5z" fill="#727272" opacity="0.4" fill-opacity="1" class="Black" />
    <path d="M441, 111.06L361, 31.06C346, 16.11 320, 26.29 320, 48.58L320, 96L161.6, 96C73.44, 96 0.66, 166.67 0, 254.82A159 159 0 0 0 18.46, 330.57A24 24 0 0 0 56.55, 336.14C59.78, 332.91 63.68, 329.06 68.42, 324.36A24 24 0 0 0 73.22, 297.07A95.46 95.46 0 0 1 64, 255C64.55, 202.18 108.31, 160 161.12, 160L320, 160L320, 207.51C320, 229.88 346.12, 239.82 361, 224.97L441, 144.97A24 24 0 0 0 441, 111.06zM306.13, 288L290.64, 288L290.64, 203.6C290.64, 195.95 286.55, 192.03 278.89, 192.03L266.79, 192.03C260.73, 192.03 256.79, 193.63 252.37, 197.73L230.65, 217.67C225.13, 222.83 224.77, 228.67 230.11, 234.05L235.63, 240.28C240.79, 245.8 246.85, 245.62 251.3, 241.34A33.07 33.07 0 0 0 254.14, 237.61L254.5, 237.61C254.5, 237.61 254, 243 254, 248.11L254, 288L238.84, 288C231.18, 288 227.26, 292.09 227.26, 299.57L227.26, 308.47C227.26, 315.95 231.18, 320.04 238.84, 320.04L306.13, 320.04C313.78, 320.04 317.7, 315.95 317.7, 308.47L317.7, 299.57C317.7, 292.08 313.78, 288 306.13, 288z" fill="#727272" fill-opacity="1" class="Black" />
  </g>
</svg>