<?xml version='1.0' encoding='UTF-8'?>
<svg viewBox="-2 -2.0188 32 32" xmlns="http://www.w3.org/2000/svg">
  <g transform="matrix(0.0547, 0, 0, 0.0547, 0, 0)">
    <defs>
      <style>.fa-secondary{opacity:.4}</style>
    </defs>
    <path d="M494.84, 183.65A159 159 0 0 1 512, 255.65C512, 343.87 440.23, 415.65 352, 415.65L170.07, 415.65L204.58, 448.06A24 24 0 0 1 205.12, 482.53L194.34, 493.3A24 24 0 0 1 160.4, 493.3L67.72, 400.66A24 24 0 0 1 67.72, 366.72L148, 286.45A24 24 0 0 1 181.94, 286.45L192.71, 297.22A24 24 0 0 1 192.17, 331.69L170.08, 351.69L352, 351.69A96 96 0 0 0 439.62, 216.48A23.78 23.78 0 0 1 444.35, 189.85L456.53, 177.67A24 24 0 0 1 494.84, 183.65z" fill="#727272" opacity="0.4" fill-opacity="1" class="Black" />
    <path d="M306.13, 287.64L290.64, 287.64L290.64, 203.26C290.64, 195.6 286.55, 191.68 278.89, 191.68L266.79, 191.68C260.73, 191.68 256.79, 193.29 252.37, 197.38L230.65, 217.32C225.13, 222.48 224.77, 228.32 230.11, 233.7L235.63, 239.93C240.79, 245.45 246.85, 245.27 251.3, 241A34.35 34.35 0 0 0 254.15, 237.26L254.5, 237.26C254.5, 237.26 253.97, 242.6 253.97, 247.76L253.97, 287.64L238.84, 287.64C231.18, 287.64 227.26, 291.74 227.26, 299.21L227.26, 308.11C227.26, 315.59 231.18, 319.68 238.84, 319.68L306.13, 319.68C313.78, 319.68 317.7, 315.59 317.7, 308.11L317.7, 299.21C317.7, 291.73 313.78, 287.64 306.13, 287.64zM444.28, 110.72L351.6, 18A24 24 0 0 0 317.66, 18L306.88, 28.8A24 24 0 0 0 307.42, 63.27L341.93, 95.69L160, 95.69C71.77, 95.69 0, 167.46 0, 255.69A159 159 0 0 0 17.16, 327.69A24 24 0 0 0 55.47, 333.69L67.65, 321.5A23.77 23.77 0 0 0 72.38, 294.87A96 96 0 0 1 160, 159.69L341.93, 159.69L319.84, 179.69A24 24 0 0 0 319.3, 214.15L330.07, 224.93A24 24 0 0 0 364.02, 224.93L444.28, 144.66A24 24 0 0 0 444.28, 110.72z" fill="#727272" fill-opacity="1" class="Black" />
  </g>
</svg>