<?xml version='1.0' encoding='UTF-8'?>
<svg viewBox="-2 -3.604 32 32" xmlns="http://www.w3.org/2000/svg">
  <g transform="matrix(0.0486, 0, 0, 0.0486, 0, 0)">
    <defs>
      <style>.fa-secondary{opacity:.4}</style>
    </defs>
    <path d="M115.39, 250.38L224, 344.17L224, 360C224, 380.7 199.7, 391.45 184.31, 378.16L8.31, 226.16A24 24 0 0 1 8.31, 189.84L184.31, 37.84C199.72, 24.55 224, 35.35 224, 56L224, 71.83L115.39, 165.62A56 56 0 0 0 115.39, 250.38z" fill="#727272" opacity="0.4" fill-opacity="1" class="Black" />
    <path d="M576, 321.33C576, 382.77 536.42, 443.63 492.67, 475.46C479.01, 485.39 459.56, 472.92 464.59, 456.83C503.1, 333.66 460.67, 287.34 352, 274.83L352, 359C352, 379.7 327.7, 390.45 312.31, 377.16L136.31, 225.16A24 24 0 0 1 136.31, 188.84L312.31, 36.84C327.72, 23.55 352, 34.35 352, 55L352, 137.77C481.18, 148 576, 190 576, 321.33z" fill="#727272" fill-opacity="1" class="Black" />
  </g>
</svg>