<?xml version='1.0' encoding='UTF-8'?>
<svg viewBox="-1.9998 -4.7989 31.9975 32" xmlns="http://www.w3.org/2000/svg">
  <g transform="matrix(0.9988, 0, 0, 0.9988, 0, 0)">
    <g transform="matrix(0.0438, 0, 0, 0.0438, 0, 0)">
      <defs>
        <style>.fa-secondary{opacity:.4}</style>
      </defs>
      <path d="M0, 464L0, 288L544, 288L544, 400A16 16 0 0 0 576, 400L576, 336A16 16 0 0 1 592, 320L624, 320A16 16 0 0 1 640, 336L640, 400A80.14 80.14 0 0 1 551.6, 479.6C510, 475.4 480, 437.1 480, 395.3L480, 352L448, 352L448, 464A16 16 0 0 1 432, 480L336, 480A16 16 0 0 1 320, 464L320, 384L128, 384L128, 464A16 16 0 0 1 112, 480L16, 480A16 16 0 0 1 0, 464z" fill="#727272" opacity="0.4" fill-opacity="1" class="Black" />
      <path d="M384, 32L160, 32A160 160 0 0 0 0, 192L0, 256L544, 256L544, 192A160 160 0 0 0 384, 32zM176.3, 170.4L156.5, 189.7L161.2, 217A6 6 0 0 1 152.5, 223.3L128, 210.4L103.5, 223.3A6 6 0 0 1 94.8, 217L99.5, 189.7L79.7, 170.4A6 6 0 0 1 83, 160.2L110.4, 156.2L122.6, 131.4A6 6 0 0 1 133.3, 131.4L145.5, 156.2L172.9, 160.2A6 6 0 0 1 176.3, 170.4zM320.3, 170.4L300.5, 189.7L305.2, 217A6 6 0 0 1 296.5, 223.3L272, 210.4L247.5, 223.3A6 6 0 0 1 238.8, 217L243.5, 189.7L223.7, 170.4A6 6 0 0 1 227, 160.2L254.4, 156.2L266.6, 131.4A6 6 0 0 1 277.3, 131.4L289.5, 156.2L316.9, 160.2A6 6 0 0 1 320.3, 170.4zM464.3, 170.4L444.5, 189.7L449.2, 217A6 6 0 0 1 440.5, 223.3L416, 210.4L391.5, 223.3A6 6 0 0 1 382.8, 217L387.5, 189.7L367.7, 170.4A6 6 0 0 1 371, 160.2L398.4, 156.2L410.6, 131.4A6 6 0 0 1 421.3, 131.4L433.5, 156.2L460.9, 160.2A6 6 0 0 1 464.3, 170.4z" fill="#727272" fill-opacity="1" class="Black" />
    </g>
  </g>
</svg>