<?xml version='1.0' encoding='UTF-8'?>
<svg viewBox="-1.2608 -4.2091 31.9975 32" xmlns="http://www.w3.org/2000/svg">
  <g transform="matrix(0.999, 0, 0, 0.999, 0, 0)">
    <g transform="matrix(0.0461, 0, 0, 0.0461, 0, 0)">
      <defs>
        <style>.fa-secondary{opacity:.4}</style>
      </defs>
      <path d="M112, 0A64 64 0 1 0 176, 64A64.06 64.06 0 0 0 112, 0zM320, 0L288, 0A16 16 0 0 0 272, 16L272, 496A16 16 0 0 0 288, 512L320, 512A16 16 0 0 0 336, 496L336, 16A16 16 0 0 0 320, 0zM496, 0A64 64 0 1 0 560, 64A64.06 64.06 0 0 0 496, 0z" fill="#727272" opacity="0.4" fill-opacity="1" class="Black" />
      <path d="M623.3, 354.5L577.7, 168.7C574.4, 155.2 562.2, 145.7 547.9, 144.5A95 95 0 0 1 443.9, 144.5C429.6, 145.7 417.4, 155.2 414.1, 168.7L368.5, 354.5C365, 369.6 377, 384 393.2, 384L448, 384L448, 488A23.94 23.94 0 0 0 472, 512L520, 512A23.94 23.94 0 0 0 544, 488L544, 384L598.8, 384C615, 384 627, 369.6 623.3, 354.5zM164.1, 144.4A94.8 94.8 0 0 1 59.9, 144.4A47.82 47.82 0 0 0 16, 192L16, 328A23.94 23.94 0 0 0 40, 352L48, 352L48, 488A23.94 23.94 0 0 0 72, 512L152, 512A23.94 23.94 0 0 0 176, 488L176, 352L184, 352A23.94 23.94 0 0 0 208, 328L208, 192A47.82 47.82 0 0 0 164.1, 144.4z" fill="#727272" fill-opacity="1" class="Black" />
    </g>
  </g>
</svg>