<?xml version='1.0' encoding='UTF-8'?>
<svg viewBox="-1.8673 -4.6664 32 31.9975" xmlns="http://www.w3.org/2000/svg">
  <g transform="matrix(0.0442, 0, 0, 0.0442, 0, 0)">
    <defs>
      <style>.fa-secondary{opacity:.4}</style>
    </defs>
    <path d="M10, 202.66A24 24 0 0 1 10, 168.72L110.72, 68A24 24 0 0 1 144.66, 68L245.34, 168.71A24 24 0 0 1 245.34, 202.66L234.52, 213.48A24 24 0 0 1 200.1, 213L159.69, 170.2L159.69, 352.31L347.23, 352.31A24 24 0 0 1 364.23, 359.31L380.23, 375.31C395.35, 390.43 384.64, 416.31 363.23, 416.31L119.69, 416.31A24 24 0 0 1 95.69, 392.31L95.69, 170.19L55.27, 213A24 24 0 0 1 20.85, 213.49z" fill="#727272" opacity="0.4" fill-opacity="1" class="Black" />
    <path d="M259.17, 137.28C244.05, 122.16 254.76, 96.28 276.17, 96.28L519.69, 96.28A24 24 0 0 1 543.69, 120.28L543.69, 342.43L584.1, 299.64A24 24 0 0 1 618.52, 299.15L629.34, 310A24 24 0 0 1 629.34, 343.94L528.66, 444.6A24 24 0 0 1 494.72, 444.6L394, 343.91A24 24 0 0 1 394, 310L404.82, 299.18A24 24 0 0 1 439.24, 299.67L479.66, 342.46L479.66, 160.31L292.14, 160.31A24 24 0 0 1 275.14, 153.31z" fill="#727272" fill-opacity="1" class="Black" />
  </g>
</svg>