<?xml version='1.0' encoding='UTF-8'?>
<svg viewBox="-2 -1.9988 32 32" xmlns="http://www.w3.org/2000/svg">
  <g transform="matrix(0.0547, 0, 0, 0.0547, 0, 0)">
    <defs>
      <style>.fa-secondary{opacity:.4}</style>
    </defs>
    <path d="M64, 208C64, 163.82 150, 128 256, 128C362, 128 448, 163.82 448, 208C448, 229.81 427.05, 249.57 393.1, 264C358.25, 249.19 309.71, 240 256, 240C202.29, 240 153.75, 249.19 118.9, 264C85, 249.57 64, 229.81 64, 208z" fill="#727272" opacity="0.4" fill-opacity="1" class="Black" />
    <path d="M256, 64C110.06, 64 0, 125.91 0, 208L0, 306.13C0, 384.48 114.62, 448 256, 448C397.38, 448 512, 384.48 512, 306.13L512, 208C512, 125.91 401.94, 64 256, 64zM256, 288C150, 288 64, 252.18 64, 208C64, 163.82 150, 128 256, 128C362, 128 448, 163.82 448, 208C448, 252.18 362, 288 256, 288z" fill="#727272" fill-opacity="1" class="Black" />
  </g>
</svg>