<?xml version='1.0' encoding='UTF-8'?>
<svg viewBox="-1.9973 -2.0011 31.9975 32" xmlns="http://www.w3.org/2000/svg">
  <g transform="matrix(0.0547, 0, 0, 0.0547, 0, 0)">
    <defs>
      <style>.fa-secondary{opacity:.4}</style>
    </defs>
    <path d="M130.92, 101.84L96, 32L128, 0L224, 0L256, 32L221.08, 101.84A176.91 176.91 0 0 0 130.92, 101.84zM350, 160.56A207.16 207.16 0 0 1 379.06, 232.56A111.89 111.89 0 1 1 282.6, 237.51Q281.1, 232.86 279.2, 228.37L279.12, 228.17C278.73, 227.27 278.34, 226.37 277.93, 225.48A3.54 3.54 0 0 0 277.77, 225.14C277.36, 224.24 276.93, 223.35 276.5, 222.46L276.41, 222.28Q274.97, 219.37 273.35, 216.55L273.35, 216.48C272.85, 215.61 272.35, 214.76 271.83, 213.91C271.72, 213.73 271.61, 213.55 271.49, 213.37C271.06, 212.66 270.62, 211.96 270.16, 211.26C270.03, 211.05 269.89, 210.84 269.75, 210.63C269.29, 209.93 268.83, 209.24 268.35, 208.56L268, 208Q266.2, 205.42 264.26, 203L263.78, 202.41C263.3, 201.8 262.78, 201.2 262.31, 200.6L261.64, 199.8C261.19, 199.27 260.73, 198.74 260.27, 198.22L259.55, 197.39C259.06, 196.86 258.55, 196.33 258.08, 195.8L257.42, 195.08C256.71, 194.33 255.98, 193.58 255.25, 192.84A114.18 114.18 0 0 0 246.15, 184.71A176.23 176.23 0 0 0 166.52, 383.6A175.18 175.18 0 0 0 184, 424.69Q185.11, 426.6 186.26, 428.46C187.02, 429.7 187.8, 430.92 188.6, 432.14A0.21 0.21 0 0 0 188.6, 432.2Q189.78, 434.02 191.02, 435.8L191.07, 435.87Q192.3, 437.66 193.58, 439.41C194.43, 440.59 195.31, 441.76 196.19, 442.91Q197.52, 444.66 198.91, 446.37A176 176 0 1 0 350, 160.56z" fill="#727272" opacity="0.4" fill-opacity="1" class="Black" />
    <path d="M199, 446.5A176 176 0 1 1 293, 403.5A80.87 80.87 0 0 1 279.44, 392.59A79.37 79.37 0 0 1 257.12, 349.26A112 112 0 1 0 166.53, 383.62A175.41 175.41 0 0 0 199, 446.5z" fill="#727272" fill-opacity="1" class="Black" />
  </g>
</svg>