<?xml version='1.0' encoding='UTF-8'?>
<svg viewBox="-2.0011 -1.9999 32 31.9975" xmlns="http://www.w3.org/2000/svg">
  <g transform="matrix(0.0547, 0, 0, 0.0547, 0, 0)">
    <defs>
      <style>.fa-secondary{opacity:.4}</style>
    </defs>
    <path d="M383.85, 311.19L383.85, 417.19A47.92 47.92 0 0 1 357.35, 460.09L258.65, 509.48A24 24 0 0 1 224, 488L224, 384.16L357.12, 324.74Q370.8, 318.62 383.85, 311.19zM187.18, 154.6Q193.24, 141 200.59, 128L94.82, 128A48 48 0 0 0 52, 154.49L2.53, 253.29A24 24 0 0 0 24, 288L127.79, 288z" fill="#727272" opacity="0.4" fill-opacity="1" class="Black" />
    <path d="M505, 19.1A15.9 15.9 0 0 0 492.8, 6.9C460.6, 0 435.41, 0 410.31, 0C334.75, 0 281.31, 29.59 240.01, 74A293 293 0 0 0 187.18, 154.59L127.79, 288L105.32, 310.47A32 32 0 0 0 105.32, 355.72L156.22, 406.63A32 32 0 0 0 201.47, 406.63L224, 384.16L357.12, 324.74A293.28 293.28 0 0 0 437.71, 271.74C482.16, 230.34 511.9, 176.89 511.9, 101.66C512, 76.5 512, 51.3 505, 19.1zM384, 168A40 40 0 1 1 424, 128A40 40 0 0 1 384, 168z" fill="#727272" fill-opacity="1" class="Black" />
  </g>
</svg>