<?xml version='1.0' encoding='UTF-8'?>
<svg viewBox="-3.7484 -1.9975 32 32" xmlns="http://www.w3.org/2000/svg">
  <g transform="matrix(0.0547, 0, 0, 0.0547, 0, 0)">
    <defs>
      <style>.fa-secondary{opacity:.4}</style>
    </defs>
    <path d="M428.4, 269.21C466.34, 325.73 446.95, 408.64 389.59, 435.21L224, 512L58.41, 435.25C1.05, 408.65 -18.34, 325.74 19.6, 269.25A93.67 93.67 0 0 0 35, 224L413, 224A93.55 93.55 0 0 0 428.4, 269.21z" fill="#727272" opacity="0.4" fill-opacity="1" class="Black" />
    <path d="M6.6, 113.82A24.73 24.73 0 0 1 8.47, 88.69L49.65, 30.32C54.65, 23.23 65.32, 17.19 77.14, 21.71A141.61 141.61 0 0 0 127.39, 30.6C156.9, 30.6 187.21, 22.13 210.56, 4.49A22.36 22.36 0 0 1 237.44, 4.49C260.79, 22.13 291.09, 30.6 320.6, 30.6A141.7 141.7 0 0 0 370.86, 21.71C382.59, 17.22 393.29, 23.14 398.35, 30.32L439.53, 88.68A24.73 24.73 0 0 1 441.4, 113.81C429.24, 138.81 418.56, 165.69 414.4, 192L33.58, 192C29.43, 165.69 18.76, 138.78 6.6, 113.82z" fill="#727272" fill-opacity="1" class="Black" />
  </g>
</svg>