<?xml version='1.0' encoding='UTF-8'?>
<svg viewBox="-2 -2 32 32" xmlns="http://www.w3.org/2000/svg">
  <g transform="matrix(0.0547, 0, 0, 0.0547, 0, 0)">
    <defs>
      <style>.fa-secondary{opacity:.4}</style>
    </defs>
    <path d="M512, 416A96.15 96.15 0 0 1 416, 512L138.2, 512A690.4 690.4 0 0 0 185.5, 448L416, 448A32 32 0 0 0 416, 384L320, 384A96 96 0 0 1 320, 192L365.24, 192A799.82 799.82 0 0 0 416, 256L320, 256A32 32 0 0 0 320, 320L416, 320A96.15 96.15 0 0 1 512, 416z" fill="#727272" opacity="0.4" fill-opacity="1" class="Black" />
    <path d="M96, 256A96 96 0 0 0 0, 352C0, 405 96, 512 96, 512C96, 512 192, 405 192, 352A96 96 0 0 0 96, 256zM96, 384A32 32 0 1 1 128, 352A32 32 0 0 1 96, 384zM416, 0A96 96 0 0 0 320, 96C320, 149 416, 256 416, 256C416, 256 512, 149 512, 96A96 96 0 0 0 416, 0zM416, 128A32 32 0 1 1 448, 96A32 32 0 0 1 416, 128z" fill="#727272" fill-opacity="1" class="Black" />
  </g>
</svg>