<?xml version='1.0' encoding='UTF-8'?>
<svg viewBox="-2 -3.554 32 32" xmlns="http://www.w3.org/2000/svg">
  <g transform="matrix(0.0486, 0, 0, 0.0486, 0, 0)">
    <defs>
      <style>.fa-secondary{opacity:.4}</style>
    </defs>
    <path d="M566.22, 82.05C444.81, -27.34 259.26, -27.34 137.78, 82A16.11 16.11 0 0 0 137.07, 105.34L159.41, 127.68A15.85 15.85 0 0 0 181.27, 128.32C277.72, 41.77 425.51, 42.47 522.38, 128.74A16 16 0 0 0 544.23, 128.11L566.93, 105.41A16.1 16.1 0 0 0 566.22, 82.05zM205.88, 165.66A16.12 16.12 0 0 0 205.02, 189.27L227.73, 212A15.94 15.94 0 0 0 249.43, 212.78C308.2, 162.94 395.23, 163.42 454.57, 212.99A16.07 16.07 0 0 0 476.2, 212.15L499, 189.35A16.22 16.22 0 0 0 498.16, 165.72C414.33, 93.81 289.74, 93.81 205.88, 165.66zM96, 384A32 32 0 1 0 128, 416A32 32 0 0 0 96, 384z" fill="#727272" opacity="0.4" fill-opacity="1" class="Black" />
    <path d="M528, 320L376, 320L376, 240A16 16 0 0 0 360, 224L344, 224A16 16 0 0 0 328, 240L328, 320L48, 320A48 48 0 0 0 0, 368L0, 464A48 48 0 0 0 48, 512L528, 512A48 48 0 0 0 576, 464L576, 368A48 48 0 0 0 528, 320zM96, 448A32 32 0 1 1 128, 416A32 32 0 0 1 96, 448zM192, 448A32 32 0 1 1 224, 416A32 32 0 0 1 192, 448z" fill="#727272" fill-opacity="1" class="Black" />
  </g>
</svg>