<?xml version='1.0' encoding='UTF-8'?>
<svg viewBox="-2.8734 -1.9999 31.9975 32" xmlns="http://www.w3.org/2000/svg">
  <g transform="matrix(0.0547, 0, 0, 0.0547, 0, 0)">
    <defs>
      <style>.fa-secondary{opacity:.4}</style>
    </defs>
    <path d="M475.24, 224C458.54, 331.6 394.94, 448.14 240, 512C85.05, 448.14 21.46, 331.6 4.76, 224z" fill="#727272" opacity="0.4" fill-opacity="1" class="Black" />
    <path d="M1.1, 192C-2.71, 140.27 3.74, 92.2 15.18, 55.13C18.79, 43.44 30.18, 36.03 41.36, 39.13A214.52 214.52 0 0 0 99.46, 47.13C148.58, 47.13 193.07, 31.06 225.63, 5.03A23 23 0 0 1 254.38, 5.03C286.94, 31.03 331.43, 47.13 380.55, 47.13A214.52 214.52 0 0 0 438.65, 39.13C449.91, 35.98 461.23, 43.42 464.83, 55.13C476.26, 92.22 482.71, 140.29 478.9, 192z" fill="#727272" fill-opacity="1" class="Black" />
  </g>
</svg>