<?xml version='1.0' encoding='UTF-8'?>
<svg viewBox="-2.0034 -0.013 31.995 32" xmlns="http://www.w3.org/2000/svg">
  <g transform="matrix(0.0625, 0, 0, 0.0625, 0, 0)">
    <defs>
      <style>.fa-secondary{opacity:.4}</style>
    </defs>
    <path d="M303.74, 463.21C295.39, 308.61 171.56, 184.62 16.79, 176.26A16 16 0 0 0 0, 192.25L0, 240.32A16 16 0 0 0 14.89, 256.32C126.72, 263.6 216.36, 353.02 223.66, 465.09A16 16 0 0 0 239.66, 479.98L287.73, 479.98A16 16 0 0 0 303.73, 463.19zM16.5, 32A16 16 0 0 0 0, 48L0, 96.08A16 16 0 0 0 15.45, 112.08C206.63, 119.92 360.08, 273.4 367.92, 464.55A16 16 0 0 0 383.92, 480L432, 480A16 16 0 0 0 448, 463.5C439.6, 229.68 251.46, 40.45 16.5, 32z" fill="#727272" opacity="0.4" fill-opacity="1" class="Black" />
    <path d="M0, 416A64 64 0 1 1 64, 480A64 64 0 0 1 0, 416z" fill="#727272" fill-opacity="1" class="Black" />
  </g>
</svg>