<?xml version='1.0' encoding='UTF-8'?>
<svg viewBox="-4 0 32 32" xmlns="http://www.w3.org/2000/svg">
  <g transform="matrix(0.0625, 0, 0, 0.0625, 0, 0)">
    <defs>
      <style>.fa-secondary{opacity:.4}</style>
    </defs>
    <path d="M320, 368L320, 400A16 16 0 0 1 304, 416L16, 416A16 16 0 0 1 0, 400L0, 368A16 16 0 0 1 16, 352L304, 352A16 16 0 0 1 320, 368z" fill="#727272" opacity="0.4" fill-opacity="1" class="Black" />
    <path d="M239.36, 32L76, 32A12 12 0 0 0 64, 44L64, 250.63L12, 250.63A12 12 0 0 0 0, 262.63L0, 308A12 12 0 0 0 12, 320L64, 320L64, 468A12 12 0 0 0 76, 480L134.56, 480A12 12 0 0 0 146.56, 468L146.56, 320L239.36, 320C324.48, 320 384, 260.54 384, 175.07C384, 89.6 324.48, 32 239.36, 32zM224, 250.63L146.56, 250.63L146.56, 100.75L225.28, 100.75C272, 100.75 300.16, 129.86 300.16, 175.07C300.16, 220.9 272, 250.63 224, 250.63z" fill="#727272" fill-opacity="1" class="Black" />
  </g>
</svg>