<?xml version='1.0' encoding='UTF-8'?>
<svg viewBox="-8.9993 -1.9999 32 32" xmlns="http://www.w3.org/2000/svg">
  <g transform="matrix(0.0547, 0, 0, 0.0547, 0, 0)">
    <defs>
      <style>.fa-secondary{opacity:.4}</style>
    </defs>
    <path d="M160, 104L160, 120A8 8 0 0 0 168, 128L256, 128L256, 192L168, 192A8 8 0 0 0 160, 200L160, 216A8 8 0 0 0 168, 224L256, 224L256, 288L168, 288A8 8 0 0 0 160, 296L160, 312A8 8 0 0 0 168, 320L256, 320L256, 384L168, 384A8 8 0 0 0 160, 392L160, 408A8 8 0 0 0 168, 416L256, 416L256, 480A32 32 0 0 1 224, 512L32, 512A32 32 0 0 1 0, 480L0, 32A32 32 0 0 1 32, 0L224, 0A32 32 0 0 1 256, 32L256, 96L168, 96A8 8 0 0 0 160, 104z" fill="#727272" opacity="0.4" fill-opacity="1" class="Black" />
    <path d="M160, 296L160, 312A8 8 0 0 0 168, 320L256, 320L256, 288L168, 288A8 8 0 0 0 160, 296zM160, 392L160, 408A8 8 0 0 0 168, 416L256, 416L256, 384L168, 384A8 8 0 0 0 160, 392zM160, 200L160, 216A8 8 0 0 0 168, 224L256, 224L256, 192L168, 192A8 8 0 0 0 160, 200zM168, 96A8 8 0 0 0 160, 104L160, 120A8 8 0 0 0 168, 128L256, 128L256, 96z" fill="#727272" fill-opacity="1" class="Black" />
  </g>
</svg>