<?xml version='1.0' encoding='UTF-8'?>
<svg viewBox="-1.9999 -1.9999 32 32" xmlns="http://www.w3.org/2000/svg">
  <g transform="matrix(0.0547, 0, 0, 0.0547, 0, 0)">
    <defs>
      <style>.fa-secondary{opacity:.4}</style>
    </defs>
    <path d="M512, 384L512, 480A32 32 0 0 1 480, 512L32, 512C29.24, 512 26.76, 511.09 24.2, 510.43L182.63, 352L224, 352L224, 408A8 8 0 0 0 232, 416L248, 416A8 8 0 0 0 256, 408L256, 352L320, 352L320, 408A8 8 0 0 0 328, 416L344, 416A8 8 0 0 0 352, 408L352, 352L416, 352L416, 408A8 8 0 0 0 424, 416L440, 416A8 8 0 0 0 448, 408L448, 352L480, 352A32 32 0 0 1 512, 384zM160, 288L104, 288A8 8 0 0 1 96, 280L96, 264A8 8 0 0 1 104, 256L160, 256L160, 192L104, 192A8 8 0 0 1 96, 184L96, 168A8 8 0 0 1 104, 160L160, 160L160, 96L104, 96A8 8 0 0 1 96, 88L96, 72A8 8 0 0 1 104, 64L160, 64L160, 32A32 32 0 0 0 128, 0L32, 0A32 32 0 0 0 0, 32L0, 480C0, 482.77 0.91, 485.24 1.57, 487.8L160, 329.38z" fill="#727272" opacity="0.4" fill-opacity="1" class="Black" />
    <path d="M96, 264L96, 280A8 8 0 0 0 104, 288L160, 288L160, 256L104, 256A8 8 0 0 0 96, 264zM96, 72L96, 88A8 8 0 0 0 104, 96L160, 96L160, 64L104, 64A8 8 0 0 0 96, 72zM96, 168L96, 184A8 8 0 0 0 104, 192L160, 192L160, 160L104, 160A8 8 0 0 0 96, 168zM416, 352L416, 408A8 8 0 0 0 424, 416L440, 416A8 8 0 0 0 448, 408L448, 352zM224, 408A8 8 0 0 0 232, 416L248, 416A8 8 0 0 0 256, 408L256, 352L224, 352zM320, 408A8 8 0 0 0 328, 416L344, 416A8 8 0 0 0 352, 408L352, 352L320, 352z" fill="#727272" fill-opacity="1" class="Black" />
  </g>
</svg>