<?xml version='1.0' encoding='UTF-8'?>
<svg viewBox="-2.0075 -2.0037 31.9975 32" xmlns="http://www.w3.org/2000/svg">
  <g transform="matrix(0.0547, 0, 0, 0.0547, 0, 0)">
    <defs>
      <style>.fa-secondary{opacity:.4}</style>
    </defs>
    <path d="M192, 96L320, 96L367.4, 24.88A16 16 0 0 0 354.09, 0L157.94, 0A16 16 0 0 0 144.63, 24.88zM320, 128L192, 128C-10.38, 243.4 0.09, 396.64 0.09, 416C0.09, 469 49.2, 512 109.77, 512L402.25, 512C462.83, 512 511.93, 469 511.93, 416C511.93, 397 521.28, 242.76 320, 128z" fill="#727272" opacity="0.4" fill-opacity="1" class="Black" />
    <path d="M337, 104L337, 120A8 8 0 0 1 329, 128L183, 128A8 8 0 0 1 175, 120L175, 104A8 8 0 0 1 183, 96L329, 96A8 8 0 0 1 337, 104z" fill="#727272" fill-opacity="1" class="Black" />
  </g>
</svg>