<?xml version='1.0' encoding='UTF-8'?>
<svg viewBox="-1.9999 -1.549 31.9975 32" xmlns="http://www.w3.org/2000/svg">
  <g transform="matrix(0.999, 0, 0, 0.999, 0, 0)">
    <g transform="matrix(0.0565, 0, 0, 0.0565, 0, 0)">
      <defs>
        <style>.fa-secondary{opacity:.4}</style>
      </defs>
      <path d="M248, 8C111, 8 0, 119 0, 256C0, 393 111, 504 248, 504C385, 504 496, 393 496, 256C496, 119 385, 8 248, 8zM328, 176A32 32 0 1 1 296, 208A32 32 0 0 1 328, 176zM152, 416C125.5, 416 104, 395 104, 369C104, 349 132.5, 308.6 145.6, 291.2A8 8 0 0 1 156.8, 289.6A7.58 7.58 0 0 1 158.4, 291.2C171.5, 308.6 200, 349 200, 369C200, 395 178.5, 416 152, 416zM168, 240A32 32 0 1 1 200, 208A32 32 0 0 1 168, 240zM338.2, 394.2A117.35 117.35 0 0 0 248, 352C226.8, 352 226.8, 320 248, 320A148.8 148.8 0 0 1 362.7, 373.8C376.5, 390.2 351.5, 410.3 338.2, 394.2z" fill="#727272" opacity="0.4" fill-opacity="1" class="Black" />
      <path d="M328, 176A32 32 0 1 0 360, 208A32 32 0 0 0 328, 176zM145.6, 291.2C132.5, 308.6 104, 349 104, 369C104, 395 125.5, 416 152, 416C178.5, 416 200, 395 200, 369C200, 349 171.5, 308.6 158.4, 291.2A8 8 0 0 0 147.2, 289.6A7.58 7.58 0 0 0 145.6, 291.2zM168, 176A32 32 0 1 0 200, 208A32 32 0 0 0 168, 176z" fill="#727272" fill-opacity="1" class="Black" />
    </g>
  </g>
</svg>