<?xml version='1.0' encoding='UTF-8'?>
<svg viewBox="-2.0088 -2 32 32" xmlns="http://www.w3.org/2000/svg">
  <g transform="matrix(0.0547, 0, 0, 0.0547, 0, 0)">
    <defs>
      <style>.fa-secondary{opacity:.4}</style>
    </defs>
    <path d="M416, 96C418.65, 96 421.12, 96.62 423.73, 96.78C406.14, 76.87 380.69, 64 352, 64A95.2 95.2 0 0 0 326.85, 67.75A111.94 111.94 0 0 0 121.15, 67.75A95.2 95.2 0 0 0 96, 64A96 96 0 0 0 96, 256L169.37, 256L82.37, 169A8 8 0 0 1 82.37, 157.69L93.69, 146.4A8 8 0 0 1 105, 146.4L208, 249.4L208, 104A8 8 0 0 1 216, 96L232, 96A8 8 0 0 1 240, 104L240, 256L292.54, 256A126.78 126.78 0 0 1 288, 224A128.14 128.14 0 0 1 416, 96zM449.25, 134A95.3 95.3 0 0 0 325.88, 256L495.17, 256A48.23 48.23 0 0 1 505.74, 257.24A95.86 95.86 0 0 0 449.25, 134z" fill="#727272" opacity="0.4" fill-opacity="1" class="Black" />
    <path d="M384, 468.52L384, 480A32 32 0 0 1 352, 512L160, 512A32 32 0 0 1 128, 480L128, 468.72C58.27, 444.26 6.69, 381.24 0.06, 304.87C-0.74, 295.75 7, 288 16.17, 288L495.17, 288C504.32, 288 512.06, 295.72 511.27, 304.84C504.66, 381 453.4, 443.9 384, 468.52z" fill="#727272" fill-opacity="1" class="Black" />
  </g>
</svg>