<?xml version='1.0' encoding='UTF-8'?>
<svg viewBox="-1.9999 -1.9974 32 31.9975" xmlns="http://www.w3.org/2000/svg">
  <g transform="matrix(0.0547, 0, 0, 0.0547, 0, 0)">
    <defs>
      <style>.fa-secondary{opacity:.4}</style>
    </defs>
    <path d="M512, 271.07L512, 303.21C512, 303.68 512, 304.14 511.92, 304.61A16.27 16.27 0 0 1 494.14, 319.21C465.62, 316.61 448.2, 307.85 433.73, 300.61C419.26, 293.37 408.54, 288 384.12, 288C359.7, 288 349.12, 293.3 334.48, 300.62C317.22, 309.25 295.78, 320 256.22, 320C216.66, 320 195.14, 309.27 177.88, 300.62C163.2, 293.3 152.58, 288 128.11, 288C103.64, 288 93, 293.3 78.36, 300.63C63.72, 307.96 46.43, 316.63 17.85, 319.22C17.38, 319.22 16.91, 319.29 16.44, 319.3A16.26 16.26 0 0 1 0, 303.22L0, 271.08A15.93 15.93 0 0 1 14.1, 255.29C29.26, 253.62 38.26, 249.12 49.77, 243.38C67, 234.73 88.53, 224 128.11, 224C167.69, 224 189.19, 234.75 206.47, 243.38C221.14, 250.7 231.8, 256 256.22, 256C280.64, 256 291.22, 250.7 305.86, 243.38C323.12, 234.75 344.58, 224 384.12, 224C423.66, 224 445.12, 234.75 462.39, 243.39C473.9, 249.12 482.82, 253.61 497.9, 255.29A15.94 15.94 0 0 1 512, 271.07z" fill="#727272" opacity="0.4" fill-opacity="1" class="Black" />
    <path d="M480, 352L416, 352L320, 400L224, 352L32, 352A32 32 0 0 0 0, 384L0, 448A32 32 0 0 0 32, 480L480, 480A32 32 0 0 0 512, 448L512, 384A32 32 0 0 0 480, 352zM480, 32L32, 32A32 32 0 0 0 0, 64L0, 160A32 32 0 0 0 32, 192L480, 192A32 32 0 0 0 512, 160L512, 64A32 32 0 0 0 480, 32z" fill="#727272" fill-opacity="1" class="Black" />
  </g>
</svg>