<?xml version='1.0' encoding='UTF-8'?>
<svg viewBox="-1.9987 -2 32 32" xmlns="http://www.w3.org/2000/svg">
  <g transform="matrix(0.0547, 0, 0, 0.0547, 0, 0)">
    <defs>
      <style>.fa-secondary{opacity:.4}</style>
    </defs>
    <path d="M224, 256.15A32 32 0 0 0 192, 288.15C192, 290.95 192.9, 293.35 193.6, 295.95L166.2, 323.35L188.8, 346L216.2, 318.6C218.8, 319.3 221.2, 320.2 224, 320.2A32 32 0 0 0 224, 256.2zM511.9, 303C503.4, 139.85 372.2, 8.65 209, 0A16.08 16.08 0 0 0 192, 15.2L192, 47.63A15.85 15.85 0 0 0 207, 63.53C336.4, 70.53 440.4, 175.53 447.9, 305.03A16 16 0 0 0 463.8, 320.03L495.9, 320.03A16.12 16.12 0 0 0 511.9, 303.85C511.93, 303.58 511.92, 303.3 511.9, 303zM209.3, 96A16.12 16.12 0 0 0 192.05, 110.91C192.05, 111.31 192, 111.7 192, 112.1L192, 144.2A15.94 15.94 0 0 0 206.8, 160.1C283.6, 166.4 344.8, 228.3 351.7, 305.3A16.08 16.08 0 0 0 367.6, 320L399.8, 320A16.19 16.19 0 0 0 415.94, 303.75L415.94, 302.75C407.5, 192.65 319.4, 104.55 209.3, 96z" fill="#727272" opacity="0.4" fill-opacity="1" class="Black" />
    <path d="M302.4, 487.55C224.7, 529.35 125.7, 517.45 60.1, 451.85C-5.5, 386.25 -17.4, 287.35 24.4, 209.55C29.3, 200.45 42.1, 199.25 49.4, 206.55L305.4, 462.55C312.8, 469.85 311.6, 482.65 302.4, 487.55z" fill="#727272" fill-opacity="1" class="Black" />
  </g>
</svg>