<?xml version='1.0' encoding='UTF-8'?>
<svg viewBox="-1.9923 -2.0011 31.9975 32" xmlns="http://www.w3.org/2000/svg">
  <g transform="matrix(0.0547, 0, 0, 0.0547, 0, 0)">
    <defs>
      <style>.fa-secondary{opacity:.4}</style>
    </defs>
    <path d="M111.93, 377.4L94.13, 395.2C91.53, 394.5 89.13, 393.6 86.33, 393.6A32 32 0 1 0 118.33, 425.6C118.33, 422.8 117.43, 420.4 116.73, 417.8L134.53, 400zM502.72, 265.09L502.63, 265L422.25, 184.58L388.3, 218.58L280.5, 326.38L360.85, 406.73A31.87 31.87 0 0 0 405.85, 406.73L502.55, 310.03A31.78 31.78 0 0 0 502.72, 265.09zM247, 9.3A32 32 0 0 0 224.43, 0A31.61 31.61 0 0 0 201.93, 9.3L105.23, 106A32 32 0 0 0 105.23, 151.1L185.56, 231.43L327.26, 89.59z" fill="#727272" opacity="0.4" fill-opacity="1" class="Black" />
    <path d="M470.13, 136.8L270.63, 336.25A190.46 190.46 0 0 1 265.23, 504.7C260.73, 513.2 248.83, 514.3 242.03, 507.5L4.43, 270C-2.37, 263.2 -1.27, 251.41 7.23, 246.81A190.6 190.6 0 0 1 175.73, 241.41L375.13, 41.82A33.64 33.64 0 0 1 422.63, 41.82L470.13, 89.31A33.61 33.61 0 0 1 470.13, 136.8z" fill="#727272" fill-opacity="1" class="Black" />
  </g>
</svg>