<?xml version='1.0' encoding='UTF-8'?>
<svg viewBox="-2 -2 32 32" xmlns="http://www.w3.org/2000/svg">
  <g transform="matrix(0.0547, 0, 0, 0.0547, 0, 0)">
    <defs>
      <style>.fa-secondary{opacity:.4}</style>
    </defs>
    <path d="M416, 64A96 96 0 0 0 320, 160C320, 248.22 248.22, 320 160, 320A96 96 0 0 0 160, 512A351.79 351.79 0 0 0 512, 160A96 96 0 0 0 416, 64zM160, 400A16 16 0 0 1 160, 368C274.69, 368 368, 274.69 368, 160A16 16 0 0 1 400, 160C400, 292.34 292.34, 400 160, 400z" fill="#727272" opacity="0.4" fill-opacity="1" class="Black" />
    <path d="M24.18, 369A18.36 18.36 0 0 0 1, 380.59A18.11 18.11 0 0 0 0, 386.38L0, 445.62A18.38 18.38 0 0 0 24.18, 463L69.44, 447.92A96.4 96.4 0 0 1 69.44, 384.04zM451.41, 1A18.11 18.11 0 0 0 445.62, 0L386.38, 0A18.36 18.36 0 0 0 368.05, 18.39A18.68 18.68 0 0 0 369, 24.18L384.08, 69.44A96.4 96.4 0 0 1 447.96, 69.44L462.96, 24.17A18.36 18.36 0 0 0 451.41, 1zM384, 144A16 16 0 0 0 368, 160C368, 274.69 274.69, 368 160, 368A16 16 0 0 0 160, 400C292.34, 400 400, 292.34 400, 160A16 16 0 0 0 384, 144z" fill="#727272" fill-opacity="1" class="Black" />
  </g>
</svg>