<?xml version='1.0' encoding='UTF-8'?>
<svg viewBox="-2 0 32 32" xmlns="http://www.w3.org/2000/svg">
  <g transform="matrix(0.0625, 0, 0, 0.0625, 0, 0)">
    <defs>
      <style>.fa-secondary{opacity:.4}</style>
    </defs>
    <path d="M288, 352A64 64 0 1 1 224, 288A64 64 0 0 1 288, 352z" fill="#727272" opacity="0.4" fill-opacity="1" class="Black" />
    <path d="M433.94, 129.94L350.06, 46.06A48 48 0 0 0 316.12, 32L48, 32A48 48 0 0 0 0, 80L0, 432A48 48 0 0 0 48, 480L400, 480A48 48 0 0 0 448, 432L448, 163.88A48 48 0 0 0 433.94, 129.94zM224, 416A64 64 0 1 1 288, 352A64 64 0 0 1 224, 416zM320, 212A12 12 0 0 1 308, 224L76, 224A12 12 0 0 1 64, 212L64, 108A12 12 0 0 1 76, 96L304.52, 96A12 12 0 0 1 313, 99.52L316.48, 103A12 12 0 0 1 320, 111.48z" fill="#727272" fill-opacity="1" class="Black" />
  </g>
</svg>