<?xml version='1.0' encoding='UTF-8'?>
<svg viewBox="-2 -4.798 32 32" xmlns="http://www.w3.org/2000/svg">
  <g transform="matrix(0.9988, 0, 0, 0.9988, 0, 0)">
    <g transform="matrix(0.0438, 0, 0, 0.0438, 0, 0)">
      <defs>
        <style>.fa-secondary{opacity:.4}</style>
      </defs>
      <path d="M234.29, 430.84C170.28, 482.82 87, 512.07 0, 512L176, 320L281.6, 320L281.6, 328C281.6, 366.39 266.25, 404.61 234.88, 430.32z" fill="#727272" opacity="0.4" fill-opacity="1" class="Black" />
      <path d="M482.71, 11.85C453.51, -8.98 412.53, -1.15 389.22, 26.07L187.72, 261.53A16 16 0 0 0 199.91, 288L331.85, 288A32.08 32.08 0 0 0 356.22, 276.78L495.22, 114.34C521.6, 83.54 516.46, 35.93 482.71, 11.85zM632, 480L552, 480A8 8 0 0 0 544, 488L544, 504A8 8 0 0 0 552, 512L632, 512A8 8 0 0 0 640, 504L640, 488A8 8 0 0 0 632, 480zM472, 480L392, 480A8 8 0 0 0 384, 488L384, 504A8 8 0 0 0 392, 512L472, 512A8 8 0 0 0 480, 504L480, 488A8 8 0 0 0 472, 480zM312, 480L232, 480A8 8 0 0 0 224, 488L224, 504A8 8 0 0 0 232, 512L312, 512A8 8 0 0 0 320, 504L320, 488A8 8 0 0 0 312, 480z" fill="#727272" fill-opacity="1" class="Black" />
    </g>
  </g>
</svg>