<?xml version='1.0' encoding='UTF-8'?>
<svg viewBox="-1.9999 -4.7966 32 31.9975" xmlns="http://www.w3.org/2000/svg">
  <g transform="matrix(1.0011, 0, 0, 1.0011, 0, 0)">
    <g transform="matrix(0.0437, 0, 0, 0.0437, 0, 0)">
      <defs>
        <style>.fa-secondary{opacity:.4}</style>
      </defs>
      <path d="M0, 320L0, 448A32 32 0 0 0 32, 480L608, 480A32 32 0 0 0 640, 448L640, 288L32, 288A32 32 0 0 0 0, 320zM120, 400A8 8 0 0 1 112, 408L80, 408A8 8 0 0 1 72, 400L72, 368A8 8 0 0 1 80, 360L112, 360A8 8 0 0 1 120, 368zM216, 400A8 8 0 0 1 208, 408L176, 408A8 8 0 0 1 168, 400L168, 368A8 8 0 0 1 176, 360L208, 360A8 8 0 0 1 216, 368z" fill="#727272" opacity="0.4" fill-opacity="1" class="Black" />
      <path d="M617.84, 220.84L36.31, 32.83A16 16 0 0 0 16.06, 42.93L0.83, 88.46A16 16 0 0 0 10.93, 108.71L566.88, 288L640, 288L640, 251.29A32 32 0 0 0 617.84, 220.84zM112, 360L80, 360A8 8 0 0 0 72, 368L72, 400A8 8 0 0 0 80, 408L112, 408A8 8 0 0 0 120, 400L120, 368A8 8 0 0 0 112, 360z" fill="#727272" fill-opacity="1" class="Black" />
    </g>
  </g>
</svg>