<?xml version='1.0' encoding='UTF-8'?>
<svg viewBox="-2 -1.9988 32 32" xmlns="http://www.w3.org/2000/svg">
  <g transform="matrix(0.0547, 0, 0, 0.0547, 0, 0)">
    <defs>
      <style>.fa-secondary{opacity:.4}</style>
    </defs>
    <path d="M509.72, 395.71L392.33, 278.61L369.72, 301.21L487, 418.31A8 8 0 0 0 498.3, 418.31L509.62, 407A7.92 7.92 0 0 0 509.72, 395.71zM301.83, 368.91L279.22, 391.51L396.62, 508.71A8 8 0 0 0 407.92, 508.71L419.22, 497.41A8 8 0 0 0 419.22, 486.11zM166, 323.71L47.62, 441.91A8 8 0 0 0 47.62, 453.21L58.92, 464.51A8 8 0 0 0 70.22, 464.51L188.62, 346.31zM120.69, 278.61L2.33, 396.71A8 8 0 0 0 2.33, 408.01L13.62, 419.31A8 8 0 0 0 24.92, 419.31L143.33, 301.11zM347, 323.71L324.39, 346.31L441.8, 463.51A8 8 0 0 0 453.09, 463.51L464.39, 452.21A8 8 0 0 0 464.39, 440.91zM92.92, 487.11A8 8 0 0 0 92.92, 498.41L104.22, 509.71A8 8 0 0 0 115.53, 509.71L233.92, 391.51L211.33, 368.91z" fill="#727272" opacity="0.4" fill-opacity="1" class="Black" />
    <path d="M279.12, 120.51L298.62, 101.11A185.4 185.4 0 0 0 214.22, 100.91L369.62, 256L256.53, 369.11L121.43, 228.41C72.83, 174.71 108.43, 115.11 109.93, 112.61L153.53, 39.51A56.71 56.71 0 0 1 170.33, 21.51C214.33, -8.19 301.03, -6.09 341.63, 21.41A56.71 56.71 0 0 1 358.43, 39.41L402.13, 112.81C409.33, 124.81 435.53, 178.41 388.93, 230.11z" fill="#727272" fill-opacity="1" class="Black" />
  </g>
</svg>