<?xml version='1.0' encoding='UTF-8'?>
<svg viewBox="-3.747 -2 31.9975 32" xmlns="http://www.w3.org/2000/svg">
  <g transform="matrix(0.0547, 0, 0, 0.0547, 0, 0)">
    <defs>
      <style>.fa-secondary{opacity:.4}</style>
    </defs>
    <path d="M216.84, 414.2L192, 401L192, 496A16 16 0 0 0 208, 512L240, 512A16 16 0 0 0 256, 496L256, 401L231.13, 414.2A15.08 15.08 0 0 1 216.84, 414.2zM224, 0A96 96 0 1 0 320, 96A96 96 0 0 0 224, 0zM192, 96A16 16 0 1 1 208, 80A16 16 0 0 1 192, 96zM256, 112A16 16 0 1 1 272, 96A16 16 0 0 1 256, 112z" fill="#727272" opacity="0.4" fill-opacity="1" class="Black" />
    <path d="M445.75, 186.39L445.67, 186.3L419.28, 160L437.57, 141.7A8 8 0 0 0 431.87, 128L314.48, 128A96 96 0 0 1 133.48, 128L16, 128A8 8 0 0 0 10.3, 141.7L28.72, 160L2.34, 186.3A8 8 0 0 0 2.34, 197.6L28.72, 224L10.42, 242.3A8 8 0 0 0 16.12, 256L122.21, 256L96.21, 397.3A16 16 0 0 0 119.11, 414.2L151.82, 390A16 16 0 0 1 168.9, 388.7L216.81, 414.2A15.08 15.08 0 0 0 231.1, 414.2L279, 388.7A16 16 0 0 1 296.1, 390L328.8, 414.2A15.93 15.93 0 0 0 351.69, 397.3L325.88, 256L431.94, 256A8.05 8.05 0 0 0 437.63, 242.3L419.28, 224L445.57, 197.7A8 8 0 0 0 445.75, 186.39zM256, 112A16 16 0 1 0 240, 96A16 16 0 0 0 256, 112zM192, 96A16 16 0 1 0 176, 80A16 16 0 0 0 192, 96z" fill="#727272" fill-opacity="1" class="Black" />
  </g>
</svg>