<?xml version='1.0' encoding='UTF-8'?>
<svg viewBox="-1.9999 -4.7991 32 31.9975" xmlns="http://www.w3.org/2000/svg">
  <g transform="matrix(1.0011, 0, 0, 1.0011, 0, 0)">
    <g transform="matrix(0.0437, 0, 0, 0.0437, 0, 0)">
      <defs>
        <style>.fa-secondary{opacity:.4}</style>
      </defs>
      <path d="M360, 176L336, 176L336, 136A8 8 0 0 0 328, 128L312, 128A8 8 0 0 0 304, 136L304, 200A8 8 0 0 0 312, 208L360, 208A8 8 0 0 0 368, 200L368, 184A8 8 0 0 0 360, 176zM0, 224L0, 496A16 16 0 0 0 16, 512L96, 512L96, 192L32, 192A32 32 0 0 0 0, 224zM608, 192L544, 192L544, 512L624, 512A16 16 0 0 0 640, 496L640, 224A32 32 0 0 0 608, 192z" fill="#727272" opacity="0.4" fill-opacity="1" class="Black" />
      <path d="M497.75, 112L337.75, 5.37A32 32 0 0 0 302.25, 5.37L142.25, 112A32 32 0 0 0 128, 138.66L128, 512L256, 512L256, 368A16 16 0 0 1 272, 352L368, 352A16 16 0 0 1 384, 368L384, 512L512, 512L512, 138.67A32 32 0 0 0 497.75, 112zM320, 256A80 80 0 1 1 400, 176A80 80 0 0 1 320, 256z" fill="#727272" fill-opacity="1" class="Black" />
    </g>
  </g>
</svg>