<?xml version='1.0' encoding='UTF-8'?>
<svg viewBox="-2 -4.7992 32 32" xmlns="http://www.w3.org/2000/svg">
  <g transform="matrix(0.9988, 0, 0, 0.9988, 0, 0)">
    <g transform="matrix(0.0438, 0, 0, 0.0438, 0, 0)">
      <defs>
        <style>.fa-secondary{opacity:.4}</style>
      </defs>
      <path d="M539.31, 228.69L512, 256L539.31, 283.31A16 16 0 0 1 544, 294.63L544, 384L454.63, 384A16 16 0 0 0 443.31, 388.69L416, 416L388.69, 388.69A16 16 0 0 0 377.37, 384L304, 384A16 16 0 0 0 288, 400L288, 432A80 80 0 0 1 207.39, 512C163.28, 511.67 128, 475.11 128, 431L128, 262.63A16 16 0 0 1 132.69, 251.31L160, 224L132.69, 196.69A16 16 0 0 1 128, 185.37L128, 65A65 65 0 0 0 63, 0L448, 0A96.1 96.1 0 0 1 543.68, 88.2A16.15 16.15 0 0 1 539.05, 101L512, 128L539.31, 155.31A16 16 0 0 1 544, 166.63L544, 217.37A16 16 0 0 1 539.31, 228.69z" fill="#727272" opacity="0.4" fill-opacity="1" class="Black" />
      <path d="M192, 512L208, 512C205.41, 512 202.86, 511.87 200.34, 511.63C197.59, 511.87 194.81, 512 192, 512zM64, 0A64 64 0 0 0 0, 64L0, 112A16 16 0 0 0 16, 128L128, 128L128, 65A65 65 0 0 0 64, 0zM624, 384L454.63, 384A16 16 0 0 0 443.31, 388.69L416, 416L388.69, 388.69A16 16 0 0 0 377.37, 384L304, 384A16 16 0 0 0 288, 400L288, 432A80 80 0 0 1 208, 512L528, 512A112 112 0 0 0 640, 399.94A16 16 0 0 0 624, 384z" fill="#727272" fill-opacity="1" class="Black" />
    </g>
  </g>
</svg>