<?xml version='1.0' encoding='UTF-8'?>
<svg viewBox="-1.9999 -1.549 31.9975 32" xmlns="http://www.w3.org/2000/svg">
  <g transform="matrix(0.999, 0, 0, 0.999, 0, 0)">
    <g transform="matrix(0.0565, 0, 0, 0.0565, 0, 0)">
      <defs>
        <style>.fa-secondary{opacity:.4}</style>
      </defs>
      <path d="M248, 8C111, 8 0, 119 0, 256C0, 393 111, 504 248, 504C385, 504 496, 393 496, 256C496, 119 385, 8 248, 8zM248, 320A64 64 0 1 1 312, 256A64 64 0 0 1 248, 320z" fill="#727272" opacity="0.4" fill-opacity="1" class="Black" />
      <path d="M248, 320A64 64 0 1 1 312, 256A64 64 0 0 1 248, 320z" fill="#727272" fill-opacity="1" class="Black" />
    </g>
  </g>
</svg>