<?xml version='1.0' encoding='UTF-8'?>
<svg viewBox="-2.0025 -2 32 32" xmlns="http://www.w3.org/2000/svg">
  <g transform="matrix(0.0547, 0, 0, 0.0547, 0, 0)">
    <defs>
      <style>.fa-secondary{opacity:.4}</style>
    </defs>
    <path d="M208, 80A128 128 0 1 1 117.49, 117.49A127.15 127.15 0 0 1 208, 80M208, 0C93.12, 0 0, 93.12 0, 208C0, 322.88 93.12, 416 208, 416C322.88, 416 416, 322.88 416, 208C416, 93.12 322.88, 0 208, 0z" fill="#727272" opacity="0.4" fill-opacity="1" class="Black" />
    <path d="M504.9, 476.7L476.6, 505A23.9 23.9 0 0 1 442.7, 505L343, 405.3A24 24 0 0 1 336, 388.3L336, 372L372, 336L388.3, 336A24 24 0 0 1 405.3, 343L505, 442.7A24.11 24.11 0 0 1 504.9, 476.7z" fill="#727272" fill-opacity="1" class="Black" />
  </g>
</svg>