<?xml version='1.0' encoding='UTF-8'?>
<svg viewBox="-2.0025 -2 32 32" xmlns="http://www.w3.org/2000/svg">
  <g transform="matrix(0.0547, 0, 0, 0.0547, 0, 0)">
    <defs>
      <style>.fa-secondary{opacity:.4}</style>
    </defs>
    <path d="M208, 80A128 128 0 1 1 117.49, 117.49A127.15 127.15 0 0 1 208, 80M208, 0C93.12, 0 0, 93.12 0, 208C0, 322.88 93.12, 416 208, 416C322.88, 416 416, 322.88 416, 208C416, 93.12 322.88, 0 208, 0z" fill="#727272" opacity="0.4" fill-opacity="1" class="Black" />
    <path d="M292, 180L124, 180A12 12 0 0 0 112, 192L112, 224A12 12 0 0 0 124, 236L292, 236A12 12 0 0 0 304, 224L304, 192A12 12 0 0 0 292, 180zM505, 442.7L405.3, 343A24 24 0 0 0 388.3, 336L372, 336L336, 372L336, 388.3A24 24 0 0 0 343, 405.3L442.7, 505A23.9 23.9 0 0 0 476.6, 505L504.9, 476.7A24.11 24.11 0 0 0 505, 442.7z" fill="#727272" fill-opacity="1" class="Black" />
  </g>
</svg>