<?xml version='1.0' encoding='UTF-8'?>
<svg viewBox="-2.0025 -2 32 32" xmlns="http://www.w3.org/2000/svg">
  <g transform="matrix(0.0547, 0, 0, 0.0547, 0, 0)">
    <defs>
      <style>.fa-secondary{opacity:.4}</style>
    </defs>
    <path d="M208, 80A128 128 0 1 1 117.49, 117.49A127.15 127.15 0 0 1 208, 80M208, 0C93.12, 0 0, 93.12 0, 208C0, 322.88 93.12, 416 208, 416C322.88, 416 416, 322.88 416, 208C416, 93.12 322.88, 0 208, 0z" fill="#727272" opacity="0.4" fill-opacity="1" class="Black" />
    <path d="M235.13, 199.42L190.13, 185.92C184.97, 184.37 181.36, 179.14 181.36, 173.19C181.36, 165.92 186.66, 160 193.16, 160L221.27, 160A24 24 0 0 1 234.09, 163.72A8.21 8.21 0 0 0 244.22, 162.99L256, 151.78A8 8 0 0 0 255.43, 139.64A57.26 57.26 0 0 0 224, 128.29L224, 112A8 8 0 0 0 216, 104L200, 104A8 8 0 0 0 192, 112L192, 128.12C168.37, 128.75 149.32, 148.67 149.32, 173.19C149.32, 193.19 162.32, 211 180.9, 216.58L225.9, 230.08C231.06, 231.63 234.67, 236.86 234.67, 242.81C234.67, 250.08 229.37, 256 222.87, 256L194.8, 256A24 24 0 0 1 182, 252.28A8.21 8.21 0 0 0 171.87, 253.01L160.1, 264.22A8 8 0 0 0 160.67, 276.36A57.26 57.26 0 0 0 192, 287.71L192, 304A8 8 0 0 0 200, 312L216, 312A8 8 0 0 0 224, 304L224, 287.88C247.63, 287.25 266.68, 267.34 266.68, 242.81C266.72, 222.84 253.73, 205 235.13, 199.42zM505, 442.7L405.3, 343A24 24 0 0 0 388.3, 336L372, 336L336, 372L336, 388.3A24 24 0 0 0 343, 405.3L442.7, 505A23.9 23.9 0 0 0 476.6, 505L504.9, 476.7A24.11 24.11 0 0 0 505, 442.7z" fill="#727272" fill-opacity="1" class="Black" />
  </g>
</svg>