<?xml version='1.0' encoding='UTF-8'?>
<svg viewBox="-1.9999 -1.9974 32 31.9975" xmlns="http://www.w3.org/2000/svg">
  <g transform="matrix(0.0547, 0, 0, 0.0547, 0, 0)">
    <defs>
      <style>.fa-secondary{opacity:.4}</style>
    </defs>
    <path d="M432, 120A24 24 0 1 0 408, 96A24 24 0 0 0 432, 120zM432, 392A24 24 0 1 0 456, 416A24 24 0 0 0 432, 392zM480, 192L32, 192A32 32 0 0 0 0, 224L0, 288A32 32 0 0 0 32, 320L480, 320A32 32 0 0 0 512, 288L512, 224A32 32 0 0 0 480, 192zM368, 280A24 24 0 1 1 392, 256A24 24 0 0 1 368, 280zM432, 280A24 24 0 1 1 456, 256A24 24 0 0 1 432, 280z" fill="#727272" opacity="0.4" fill-opacity="1" class="Black" />
    <path d="M456, 256A24 24 0 1 0 432, 280A24 24 0 0 0 456, 256zM480, 32L32, 32A32 32 0 0 0 0, 64L0, 128A32 32 0 0 0 32, 160L480, 160A32 32 0 0 0 512, 128L512, 64A32 32 0 0 0 480, 32zM368, 120A24 24 0 1 1 392, 96A24 24 0 0 1 368, 120zM432, 120A24 24 0 1 1 456, 96A24 24 0 0 1 432, 120zM480, 352L32, 352A32 32 0 0 0 0, 384L0, 448A32 32 0 0 0 32, 480L480, 480A32 32 0 0 0 512, 448L512, 384A32 32 0 0 0 480, 352zM368, 440A24 24 0 1 1 392, 416A24 24 0 0 1 368, 440zM432, 440A24 24 0 1 1 456, 416A24 24 0 0 1 432, 440z" fill="#727272" fill-opacity="1" class="Black" />
  </g>
</svg>