<?xml version='1.0' encoding='UTF-8'?>
<svg viewBox="-2 0 32 32" xmlns="http://www.w3.org/2000/svg">
  <g transform="matrix(0.0625, 0, 0, 0.0625, 0, 0)">
    <defs>
      <style>.fa-secondary{opacity:.4}</style>
    </defs>
    <path d="M200, 176L200, 400L312, 400A56 56 0 0 0 368, 344L368, 48A16 16 0 0 1 384, 32L432, 32A16 16 0 0 1 448, 48L448, 344A136 136 0 0 1 312, 480L144, 480A24 24 0 0 1 120, 456L120, 176A16 16 0 0 1 136, 160L184, 160A16 16 0 0 1 200, 176z" fill="#727272" opacity="0.4" fill-opacity="1" class="Black" />
    <path d="M328, 168L328, 336A16 16 0 0 1 312, 352L264, 352A16 16 0 0 1 248, 336L248, 168A56 56 0 0 0 192, 112L80, 112L80, 464A16 16 0 0 1 64, 480L16, 480A16 16 0 0 1 0, 464L0, 56A24 24 0 0 1 24, 32L192, 32A136 136 0 0 1 328, 168z" fill="#727272" fill-opacity="1" class="Black" />
  </g>
</svg>