<?xml version='1.0' encoding='UTF-8'?>
<svg viewBox="-3.7494 -1.9974 32 31.9975" xmlns="http://www.w3.org/2000/svg">
  <g transform="matrix(0.0547, 0, 0, 0.0547, 0, 0)">
    <defs>
      <style>.fa-secondary{opacity:.4}</style>
    </defs>
    <path d="M192, 501.06L192, 224L8.76, 224C34.6, 361.89 113.71, 459.21 192, 501.06zM0, 128C0, 138.86 0.34, 149.52 1, 160L192, 160L192, 10.28L27.57, 83.69C10.88, 91.14 0, 108.62 0, 128zM420.43, 83.69L256, 10.28L256, 160L447.08, 160Q447.98, 144.35 448, 128C448, 108.62 437.12, 91.14 420.43, 83.69zM256, 501C322.65, 464.75 411.84, 374.08 439.48, 224L256, 224z" fill="#727272" opacity="0.4" fill-opacity="1" class="Black" />
    <path d="M447.08, 160A517.11 517.11 0 0 1 439.48, 224L256, 224L256, 501C250.94, 503.75 246, 506.2 241.23, 508.33A42.07 42.07 0 0 1 206.77, 508.33C201.86, 506.14 196.93, 503.71 192, 501.08L192, 224L8.76, 224A509.43 509.43 0 0 1 1, 160L192, 160L192, 10.28L206.77, 3.69A42.07 42.07 0 0 1 241.23, 3.69L256, 10.28L256, 160z" fill="#727272" fill-opacity="1" class="Black" />
  </g>
</svg>