<?xml version='1.0' encoding='UTF-8'?>
<svg viewBox="-1.995 -1.9975 31.9975 32" xmlns="http://www.w3.org/2000/svg">
  <g transform="matrix(0.0547, 0, 0, 0.0547, 0, 0)">
    <defs>
      <style>.fa-secondary{opacity:.4}</style>
    </defs>
    <path d="M466.5, 83.67L274.5, 3.67A48.15 48.15 0 0 0 237.6, 3.67L45.6, 83.67A48 48 0 0 0 16, 128C16, 326.5 130.5, 463.69 237.5, 508.29A48.15 48.15 0 0 0 274.4, 508.29C360.1, 472.58 496, 349.27 496, 128A48 48 0 0 0 466.5, 83.67zM419.3, 197.88L235.3, 381.88A16.06 16.06 0 0 1 212.7, 381.88L108.7, 277.88A16.07 16.07 0 0 1 108.7, 255.27L131.3, 232.67A16.07 16.07 0 0 1 153.9, 232.67L224, 302.77L374.1, 152.67A16.07 16.07 0 0 1 396.7, 152.67L419.3, 175.27A15.89 15.89 0 0 1 419.3, 197.88z" fill="#727272" opacity="0.4" fill-opacity="1" class="Black" />
    <path d="M419.3, 197.88L235.3, 381.88A16.06 16.06 0 0 1 212.7, 381.88L108.7, 277.88A16.07 16.07 0 0 1 108.7, 255.27L131.3, 232.67A16.07 16.07 0 0 1 153.9, 232.67L224, 302.77L374.1, 152.67A16.07 16.07 0 0 1 396.7, 152.67L419.3, 175.27A15.89 15.89 0 0 1 419.3, 197.88z" fill="#727272" fill-opacity="1" class="Black" />
  </g>
</svg>