<?xml version='1.0' encoding='UTF-8'?>
<svg viewBox="-0.4421 -3.5564 31.9975 32" xmlns="http://www.w3.org/2000/svg">
  <g transform="matrix(0.0486, 0, 0, 0.0486, 0, 0)">
    <defs>
      <style>.fa-secondary{opacity:.4}</style>
    </defs>
    <path d="M594.3, 447.89C572.77, 445.49 552.17, 437.38 536.37, 424.97A38.77 38.77 0 0 0 488.15, 424.97C450.24, 455.4 380.91, 455.4 342.4, 423.47C328.9, 412.26 309.4, 414.36 295.69, 425.27C257.69, 455.4 188.76, 455.27 150.44, 423.57C136.94, 412.36 117.13, 414.66 103.32, 425.57C87.82, 437.78 67.32, 445.69 45.6, 447.99C37.7, 448.79 32, 455.8 32, 463.71L32, 495.94C32, 505.05 39.6, 512.75 48.7, 511.94C77.51, 509.44 104.82, 500.53 128.14, 486.02C184.66, 520.65 265.14, 520.15 320.14, 486.02C376.65, 520.65 457.14, 520.15 512.14, 486.02A184.89 184.89 0 0 0 591.28, 511.84C600.38, 512.64 607.98, 504.94 607.98, 495.84L607.98, 464.21C608.14, 456.21 602.34, 448.79 594.24, 447.89zM192, 128L448, 128L448, 215.53L512, 236.11L512, 96A32 32 0 0 0 480, 64L416, 64L416, 24A24 24 0 0 0 392, 0L248, 0A24 24 0 0 0 224, 24L224, 64L160, 64A32 32 0 0 0 128, 96L128, 236.11L192, 215.53z" fill="#727272" opacity="0.4" fill-opacity="1" class="Black" />
    <path d="M574.56, 289.82A32.13 32.13 0 0 1 566.72, 302.65L474.22, 391.9A83.19 83.19 0 0 1 417, 415.61L416.5, 415.61C395.27, 415.61 375.71, 409.49 362.86, 398.84A64.17 64.17 0 0 0 321.29, 384A73.55 73.55 0 0 0 275.79, 400.19C263.41, 409.99 244.67, 415.61 224.35, 415.61L223.84, 415.61A85 85 0 0 1 165.36, 391.39L73.36, 302.65A32 32 0 0 1 86.21, 249.56L310.21, 177.56A31.94 31.94 0 0 1 329.79, 177.56L553.79, 249.56A32 32 0 0 1 574.49, 289.81L574.49, 289.81z" fill="#727272" fill-opacity="1" class="Black" />
  </g>
</svg>