<?xml version='1.0' encoding='UTF-8'?>
<svg viewBox="-3.7542 -2 32 32" xmlns="http://www.w3.org/2000/svg">
  <g transform="matrix(0.0547, 0, 0, 0.0547, 0, 0)">
    <defs>
      <style>.fa-secondary{opacity:.4}</style>
    </defs>
    <path d="M0.06, 160L0.06, 159.87L96.06, 159.93L96.06, 127.93C96.12, 57.35 153.57, 0 224.15, 0C294.73, 0 352.15, 57.49 352.07, 128.07L352.07, 160L288.07, 160L288.07, 128A64 64 0 0 0 160.07, 127.92L160.07, 159.92L224.07, 159.92z" fill="#727272" opacity="0.4" fill-opacity="1" class="Black" />
    <path d="M0.06, 159.87L-0.1, 431.87A80 80 0 0 0 79.85, 511.92L367.85, 512.08A80 80 0 0 0 447.85, 432.08L448.01, 160.08zM128, 247.94A24 24 0 1 1 152, 223.94A24 24 0 0 1 128, 247.94zM320, 248.06A24 24 0 1 1 344, 224.06A24 24 0 0 1 320, 248.06z" fill="#727272" fill-opacity="1" class="Black" />
  </g>
</svg>