<?xml version='1.0' encoding='UTF-8'?>
<svg viewBox="-1.9999 -3.5577 32 32" xmlns="http://www.w3.org/2000/svg">
  <g transform="matrix(0.0486, 0, 0, 0.0486, 0, 0)">
    <defs>
      <style>.fa-secondary{opacity:.4}</style>
    </defs>
    <path d="M242.82, 38.12A32 32 0 0 0 198.12, 45.18L91.34, 192L170.48, 192L249.88, 82.82A32 32 0 0 0 242.82, 38.12zM377.88, 45.18A32 32 0 1 0 326.12, 82.82L405.52, 192L484.66, 192z" fill="#727272" opacity="0.4" fill-opacity="1" class="Black" />
    <path d="M552, 192L24, 192A24 24 0 0 0 0, 216L0, 232A24 24 0 0 0 24, 256L32, 256L58.11, 438.79A48 48 0 0 0 105.63, 480L470.37, 480A48 48 0 0 0 517.89, 438.79L544, 256L552, 256A24 24 0 0 0 576, 232L576, 216A24 24 0 0 0 552, 192zM200, 392A24 24 0 0 1 152, 392L152, 280A24 24 0 0 1 200, 280zM312, 392A24 24 0 0 1 264, 392L264, 280A24 24 0 0 1 312, 280zM424, 392A24 24 0 0 1 376, 392L376, 280A24 24 0 0 1 424, 280z" fill="#727272" fill-opacity="1" class="Black" />
  </g>
</svg>