<?xml version='1.0' encoding='UTF-8'?>
<svg viewBox="-2 -2 32 32" xmlns="http://www.w3.org/2000/svg">
  <g transform="matrix(0.0547, 0, 0, 0.0547, 0, 0)">
    <defs>
      <style>.fa-secondary{opacity:.4}</style>
    </defs>
    <path d="M203.72, 244.36A15.88 15.88 0 0 0 181.27, 244.23L181.15, 244.36L101.25, 324.26A16 16 0 0 0 122.71, 347.94A14.53 14.53 0 0 0 123.82, 346.83L203.72, 266.93A16 16 0 0 0 203.72, 244.36zM245.06, 308.28L165.17, 388.18A16 16 0 0 0 186.63, 411.86C187.01, 411.51 187.39, 411.14 187.74, 410.75L267.63, 330.85A16 16 0 1 0 245.06, 308.28zM503.23, 72.18L439.81, 8.76A30 30 0 0 0 397.47, 8.76L373, 33.23A74.58 74.58 0 0 0 352.62, 100.88A77.16 77.16 0 0 0 359.02, 119.25L259.84, 218.41L293.7, 252.28L392.87, 153.1A76.19 76.19 0 0 0 411.25, 159.49A74.41 74.41 0 0 0 478.76, 139L503.23, 114.53A30 30 0 0 0 503.23, 72.18zM444.94, 105.18A26.9 26.9 0 0 1 399.6, 91.39A27.18 27.18 0 0 1 406.89, 67.11L418.68, 55.33L456.73, 93.39z" fill="#727272" opacity="0.4" fill-opacity="1" class="Black" />
    <path d="M342.66, 301.9L210.16, 169.4A31.77 31.77 0 0 0 168.26, 166.69L12.36, 287A31.69 31.69 0 0 0 6.58, 331.45A33.3 33.3 0 0 0 9.36, 334.6L177.36, 502.6A31.77 31.77 0 0 0 222.29, 502.6A29.52 29.52 0 0 0 224.96, 499.6L345.36, 343.79A31.73 31.73 0 0 0 342.66, 301.9zM122.66, 347.9A16 16 0 0 1 101.2, 324.22L181.1, 244.32L181.22, 244.19A16 16 0 0 1 203.67, 266.89L123.77, 346.79A14.53 14.53 0 0 1 122.71, 347.94zM267.58, 330.81L187.69, 410.71C187.34, 411.1 186.96, 411.47 186.58, 411.82A16 16 0 0 1 165.12, 388.14L245.01, 308.24A16 16 0 1 1 267.58, 330.81z" fill="#727272" fill-opacity="1" class="Black" />
  </g>
</svg>