<?xml version='1.0' encoding='UTF-8'?>
<svg viewBox="-1.9999 -4.7979 32 31.9975" xmlns="http://www.w3.org/2000/svg">
  <g transform="matrix(1.0011, 0, 0, 1.0011, 0, 0)">
    <g transform="matrix(0.0437, 0, 0, 0.0437, 0, 0)">
      <defs>
        <style>.fa-secondary{opacity:.4}</style>
      </defs>
      <path d="M160, 320A80 80 0 1 0 240, 400A80 80 0 0 0 160, 320zM480, 320A80 80 0 1 0 560, 400A80 80 0 0 0 480, 320z" fill="#727272" opacity="0.4" fill-opacity="1" class="Black" />
      <path d="M628.88, 210.65L494.39, 49.27A48 48 0 0 0 457.52, 32L32, 32A32 32 0 0 0 0, 64L0, 352A32 32 0 0 0 32, 384L49.14, 384A112 112 0 0 1 270.86, 384L369.14, 384A112 112 0 0 1 590.86, 384L608, 384A32 32 0 0 0 640, 352L640, 241.38A48.05 48.05 0 0 0 628.88, 210.65zM160, 192L64, 192L64, 96L160, 96zM320, 192L224, 192L224, 96L320, 96zM384, 192L384, 96L450, 96L530, 192z" fill="#727272" fill-opacity="1" class="Black" />
    </g>
  </g>
</svg>