<?xml version='1.0' encoding='UTF-8'?>
<svg viewBox="-1.9663 -2 32 32" xmlns="http://www.w3.org/2000/svg">
  <g transform="matrix(1.0009, 0, 0, 1.0009, 0, 0)">
    <g transform="matrix(0.0547, 0, 0, 0.0547, 0, 0)">
      <defs>
        <style>.fa-secondary{opacity:.4}</style>
      </defs>
      <path d="M181.05, 481A106.07 106.07 0 0 1 31.05, 331L33.65, 328.4L183.65, 478.4z" fill="#727272" opacity="0.4" fill-opacity="1" class="Black" />
      <path d="M512, 220L512, 274.6A28.15 28.15 0 0 1 495.8, 300L245.45, 416.5L206.25, 455.7L56.25, 305.7L95.45, 266.5L212, 16.2A28.09 28.09 0 0 1 237.35, 0L292, 0A28.08 28.08 0 0 1 320, 28L320, 48C307.7, 48 263.4, 46.7 248.9, 92.7L220.1, 183.9L174.7, 210.3L138.4, 288.3L164.1, 314L234.9, 243.2L279.4, 102.4A32 32 0 0 1 309.85, 80L404, 80A28 28 0 0 1 432, 108L432, 202.1A32.08 32.08 0 0 1 409.6, 232.6L268.8, 277.1L198, 347.9L223.7, 373.7L301.7, 337.4L328.1, 292L419.3, 263.2C468.3, 247.7 464, 198 464, 192L484, 192A28.08 28.08 0 0 1 512, 220z" fill="#727272" fill-opacity="1" class="Black" />
    </g>
  </g>
</svg>