<?xml version='1.0' encoding='UTF-8'?>
<svg viewBox="-1.9988 -2 32 32" xmlns="http://www.w3.org/2000/svg">
  <g transform="matrix(0.0547, 0, 0, 0.0547, 0, 0)">
    <defs>
      <style>.fa-secondary{opacity:.4}</style>
    </defs>
    <path d="M203.37, 382.05A16 16 0 0 1 203.37, 404.68L180.75, 427.3A16 16 0 0 1 158.13, 427.3L155.39, 424.56L72.63, 507.31A16 16 0 0 1 50.01, 507.31L4.69, 462.06A16 16 0 0 1 4.69, 439.43L87.43, 356.69L84.69, 353.94A16 16 0 0 1 84.69, 331.31L107.31, 308.69A16 16 0 0 1 129.94, 308.69L203.37, 382.05z" fill="#727272" opacity="0.4" fill-opacity="1" class="Black" />
    <path d="M511.82, 155.39C513.47, 163.8 502.76, 168.77 497.68, 161.87A148.08 148.08 0 0 0 450.35, 120.45C405.88, 95.55 349.35, 97.21 306.35, 124.45C235.59, 169.18 220.94, 256.25 259.47, 320.45L224, 355.87L192.29, 325.78C146.59, 280.09 122.14, 214.58 135.88, 151.44C153.75, 69.31 224, 0 320, 0C448, 0 501.17, 100.72 511.82, 155.39z" fill="#727272" fill-opacity="1" class="Black" />
  </g>
</svg>