<?xml version='1.0' encoding='UTF-8'?>
<svg viewBox="-2 -1.9988 32 32" xmlns="http://www.w3.org/2000/svg">
  <g transform="matrix(0.0547, 0, 0, 0.0547, 0, 0)">
    <defs>
      <style>.fa-secondary{opacity:.4}</style>
    </defs>
    <path d="M512, 160L512, 352A96 96 0 0 1 416, 448L332, 448A12 12 0 0 1 320, 436L320, 396A12 12 0 0 1 332, 384L416, 384A32 32 0 0 0 448, 352L448, 160A32 32 0 0 0 416, 128L332, 128A12 12 0 0 1 320, 116L320, 76A12 12 0 0 1 332, 64L416, 64A96 96 0 0 1 512, 160z" fill="#727272" opacity="0.4" fill-opacity="1" class="Black" />
    <path d="M215.6, 295.9L24, 295.9A23.94 23.94 0 0 1 0, 271.9L0, 239.9A23.94 23.94 0 0 1 24, 215.9L215.5, 215.9L137.9, 144.8A23.84 23.84 0 0 1 137.2, 110.3L159.1, 88.4A24.08 24.08 0 0 1 193, 88.3L344.9, 239A24 24 0 0 1 344.9, 273.1L193, 423.7A24 24 0 0 1 159.1, 423.6L137.2, 401.7A24 24 0 0 1 138, 367z" fill="#727272" fill-opacity="1" class="Black" />
  </g>
</svg>