<?xml version='1.0' encoding='UTF-8'?>
<svg viewBox="-1.995 -4.7973 31.9975 32" xmlns="http://www.w3.org/2000/svg">
  <g transform="matrix(0.999, 0, 0, 0.999, 0, 0)">
    <g transform="matrix(0.0438, 0, 0, 0.0438, 0, 0)">
      <defs>
        <style>.fa-secondary{opacity:.4}</style>
      </defs>
      <path d="M290.71, 192.91A16 16 0 0 1 296, 192L344, 192A16 16 0 0 1 360, 208L360, 246.47zM88, 384L40, 384A16 16 0 0 0 24, 400L24, 496A16 16 0 0 0 40, 512L88, 512A16 16 0 0 0 104, 496L104, 400A16 16 0 0 0 88, 384zM488, 345.4L488, 112A16 16 0 0 0 472, 96L424, 96A16 16 0 0 0 408, 112L408, 283.57zM616, 444.33L616, 16A16 16 0 0 0 600, 0L552, 0A16 16 0 0 0 536, 16L536, 382.5zM408, 496A16 16 0 0 0 424, 512L472, 512A15.72 15.72 0 0 0 485, 504.85L408, 445.35zM280, 496A16 16 0 0 0 296, 512L344, 512A16 16 0 0 0 360, 496L360, 408.25L280, 346.42zM168, 288A16 16 0 0 0 152, 304L152, 496A16 16 0 0 0 168, 512L216, 512A16 16 0 0 0 232, 496L232, 309.32L204.41, 288z" fill="#727272" opacity="0.4" fill-opacity="1" class="Black" />
      <path d="M636.63, 480.54L617, 505.81A15.77 15.77 0 0 1 602.07, 511.58A14.47 14.47 0 0 1 600, 512L597.44, 512A15.42 15.42 0 0 0 594.54, 508.63L6.18, 53.9A16 16 0 0 1 3.37, 31.45L23, 6.18A16 16 0 0 1 45.47, 3.37L633.82, 458.1A16 16 0 0 1 636.63, 480.54z" fill="#727272" fill-opacity="1" class="Black" />
    </g>
  </g>
</svg>