<?xml version='1.0' encoding='UTF-8'?>
<svg viewBox="-2 -1.9988 32 32" xmlns="http://www.w3.org/2000/svg">
  <g transform="matrix(0.0547, 0, 0, 0.0547, 0, 0)">
    <defs>
      <style>.fa-secondary{opacity:.4}</style>
    </defs>
    <path d="M512, 160L512, 352A96 96 0 0 1 416, 448L332, 448A12 12 0 0 1 320, 436L320, 396A12 12 0 0 1 332, 384L416, 384A32 32 0 0 0 448, 352L448, 160A32 32 0 0 0 416, 128L332, 128A12 12 0 0 1 320, 116L320, 76A12 12 0 0 1 332, 64L416, 64A96 96 0 0 1 512, 160z" fill="#727272" opacity="0.4" fill-opacity="1" class="Black" />
    <path d="M369, 273L201, 441C186, 456 160, 445.5 160, 424L160, 328L24, 328A23.94 23.94 0 0 1 0, 304L0, 208A23.94 23.94 0 0 1 24, 184L160, 184L160, 88C160, 66.5 186, 56 201, 71L369, 239A24.2 24.2 0 0 1 369, 273z" fill="#727272" fill-opacity="1" class="Black" />
  </g>
</svg>