<?xml version='1.0' encoding='UTF-8'?>
<svg viewBox="-0.4421 -3.5552 31.9975 32" xmlns="http://www.w3.org/2000/svg">
  <g transform="matrix(0.0486, 0, 0, 0.0486, 0, 0)">
    <defs>
      <style>.fa-secondary{opacity:.4}</style>
    </defs>
    <path d="M576, 0L544, 0A32 32 0 0 0 512, 32L512, 480A32 32 0 0 0 544, 512L576, 512A32 32 0 0 0 608, 480L608, 32A32 32 0 0 0 576, 0zM416, 128L384, 128A32 32 0 0 0 352, 160L352, 480A32 32 0 0 0 384, 512L416, 512A32 32 0 0 0 448, 480L448, 160A32 32 0 0 0 416, 128z" fill="#727272" opacity="0.4" fill-opacity="1" class="Black" />
    <path d="M96, 384L64, 384A32 32 0 0 0 32, 416L32, 480A32 32 0 0 0 64, 512L96, 512A32 32 0 0 0 128, 480L128, 416A32 32 0 0 0 96, 384zM256, 256L224, 256A32 32 0 0 0 192, 288L192, 480A32 32 0 0 0 224, 512L256, 512A32 32 0 0 0 288, 480L288, 288A32 32 0 0 0 256, 256z" fill="#727272" fill-opacity="1" class="Black" />
  </g>
</svg>