<?xml version='1.0' encoding='UTF-8'?>
<svg viewBox="-5.5003 -2 32 32" xmlns="http://www.w3.org/2000/svg">
  <g transform="matrix(0.0547, 0, 0, 0.0547, 0, 0)">
    <defs>
      <style>.fa-secondary{opacity:.4}</style>
    </defs>
    <path d="M128, 192L96, 192A32 32 0 0 0 64, 224L64, 256L128, 256zM64, 416A32 32 0 0 0 96, 448L128, 448L128, 384L64, 384zM224, 192L160, 192L160, 256L224, 256zM256, 448L288, 448A32 32 0 0 0 320, 416L320, 384L256, 384zM160, 448L224, 448L224, 384L160, 384zM288, 192L256, 192L256, 256L320, 256L320, 224A32 32 0 0 0 288, 192zM64, 352L320, 352L320, 288L64, 288z" fill="#727272" opacity="0.4" fill-opacity="1" class="Black" />
    <path d="M256, 0L64, 0A64.06 64.06 0 0 0 0, 64L0, 448A64.06 64.06 0 0 0 64, 512L320, 512A64.06 64.06 0 0 0 384, 448L384, 128zM320, 416A32 32 0 0 1 288, 448L96, 448A32 32 0 0 1 64, 416L64, 224A32 32 0 0 1 96, 192L288, 192A32 32 0 0 1 320, 224z" fill="#727272" fill-opacity="1" class="Black" />
  </g>
</svg>