<?xml version='1.0' encoding='UTF-8'?>
<svg viewBox="-3.7645 -2 32 32" xmlns="http://www.w3.org/2000/svg">
  <g transform="matrix(0.0547, 0, 0, 0.0547, 0, 0)">
    <defs>
      <style>.fa-secondary{opacity:.4}</style>
    </defs>
    <path d="M400, 448A16 16 0 0 0 384, 464A16 16 0 0 1 368, 480L272, 480A16 16 0 0 0 272, 512L368, 512A48 48 0 0 0 416, 464A16 16 0 0 0 400, 448zM117.8, 456.6A16 16 0 0 1 95.2, 456.6L27.3, 388.7A16 16 0 1 0 4.7, 411.3L72.6, 479.2A48.16 48.16 0 0 0 140.5, 479.2A16 16 0 1 0 117.8, 456.6zM400, 0A48 48 0 1 0 448, 48A48 48 0 0 0 400, 0z" fill="#727272" opacity="0.4" fill-opacity="1" class="Black" />
    <path d="M360.85, 164.3A40 40 0 0 0 332.55, 96L128, 96A32 32 0 1 0 128, 160L233.5, 160L213.4, 177.2A63.94 63.94 0 0 0 209.8, 271L288, 349.2L288, 432A32 32 0 0 0 352, 432L352, 342.6A48 48 0 0 0 337.9, 308.7L276.9, 247.7A16.29 16.29 0 0 0 278.6, 246.6zM173.85, 276.8L80.15, 370.5A32 32 0 0 0 102.75, 425.1A31.55 31.55 0 0 0 125.35, 415.7L217.25, 323.8L187.05, 293.6A94 94 0 0 1 173.85, 276.8z" fill="#727272" fill-opacity="1" class="Black" />
  </g>
</svg>