<?xml version='1.0' encoding='UTF-8'?>
<svg viewBox="-1.9963 -2 32 32" xmlns="http://www.w3.org/2000/svg">
  <g transform="matrix(0.0547, 0, 0, 0.0547, 0, 0)">
    <defs>
      <style>.fa-secondary{opacity:.4}</style>
    </defs>
    <path d="M400, 96A48 48 0 1 0 352, 48A48 48 0 0 0 400, 96zM510.7, 190.2A24 24 0 0 0 463.3, 198.2C466.6, 217.5 457.3, 237.1 441.2, 246.3L13, 466.7A24 24 0 0 0 24.1, 512A24.14 24.14 0 0 0 35.1, 509.3L464.3, 288.4A95.42 95.42 0 0 0 510.7, 190.2z" fill="#727272" opacity="0.4" fill-opacity="1" class="Black" />
    <path d="M113.7, 414.8A31.85 31.85 0 0 1 106.4, 379.8C166.8, 232.9 163.2, 240.9 166.6, 236.5L225.5, 160L128, 160A32 32 0 0 1 128, 96L312, 96A40 40 0 0 1 340.3, 164.3L218.9, 274.8L174, 383.8z" fill="#727272" fill-opacity="1" class="Black" />
  </g>
</svg>