<?xml version='1.0' encoding='UTF-8'?>
<svg viewBox="-2.0524 -2.0288 32 32" xmlns="http://www.w3.org/2000/svg">
  <g transform="matrix(0.0546, 0, 0, 0.0546, 0, 0)">
    <defs>
      <style>.fa-secondary{opacity:.4}</style>
    </defs>
    <path d="M432, 96A48 48 0 1 0 384, 48A48 48 0 0 0 432, 96zM505, 452.1A23.9 23.9 0 0 0 471.1, 452.1C459, 464.2 440.6, 467.5 426, 460.8L35, 258.7A24 24 0 1 0 13, 301.3L404.9, 503.8A88.06 88.06 0 0 0 442, 511.9A89 89 0 0 0 505, 485.9A24 24 0 0 0 505, 452.1zM120, 91.6L108.5, 114.1A39.15 39.15 0 0 0 151.3, 109.3L367.58, 219.05A47.52 47.52 0 0 1 351.58, 196.4L340.82, 167.4L164.9, 80.4A38.77 38.77 0 0 0 144, 44.8L132.9, 66.5L132.7, 66.5L98.3, 59.5A5.11 5.11 0 0 0 93.3, 61.2A5.23 5.23 0 0 0 93.8, 68.6z" fill="#727272" opacity="0.4" fill-opacity="1" class="Black" />
    <path d="M293, 215.7L186, 162.6A63.8 63.8 0 0 0 203.7, 217L278.8, 292.2L232.9, 361L290.2, 390.6L339.4, 316.8A48 48 0 0 0 333.4, 256.2zM462.3, 195.4L410.2, 169.3L393.1, 118.1C385, 93.9 352.2, 61.5 308.6, 78.9L227.17, 111.18L340.84, 167.36L351.6, 196.36A47.6 47.6 0 0 0 375.6, 224.06L433.7, 253.06A32.2 32.2 0 0 0 462.3, 195.36z" fill="#727272" fill-opacity="1" class="Black" />
  </g>
</svg>