<?xml version='1.0' encoding='UTF-8'?>
<svg viewBox="-1.9999 -3.5552 32 32" xmlns="http://www.w3.org/2000/svg">
  <g transform="matrix(0.0486, 0, 0, 0.0486, 0, 0)">
    <defs>
      <style>.fa-secondary{opacity:.4}</style>
    </defs>
    <path d="M336, 96A48 48 0 1 0 288, 48A48 48 0 0 0 336, 96zM552, 416A24 24 0 0 0 528, 440A24.07 24.07 0 0 1 504, 464L434.5, 464L460, 285.67A31.85 31.85 0 0 1 448, 288L427.3, 288L402.1, 464L99.5, 464L151.71, 203.06A32 32 0 0 1 120.83, 194.06L66.9, 464L24, 464A24 24 0 0 0 24, 512L504, 512A72.08 72.08 0 0 0 576, 440A24.07 24.07 0 0 0 552, 416z" fill="#727272" opacity="0.4" fill-opacity="1" class="Black" />
    <path d="M186.2, 332.2L123.7, 464L194.6, 464L237.7, 373L215.7, 360A95.84 95.84 0 0 1 186.2, 332.2zM448, 224L404.1, 224L378, 170.8C365.5, 145.3 342.5, 126.6 316.2, 119.9L245, 98.7A95.74 95.74 0 0 0 164.2, 115.8L124.5, 146.2A32.17 32.17 0 1 0 166.71, 194.55L203.2, 166.55C210.9, 160.65 220.6, 158.55 228.5, 160.45L243.2, 164.85L205.7, 252.25A64.18 64.18 0 0 0 232, 332.6L317, 382.8L291.5, 464L358.5, 464L382.1, 388.5A48.25 48.25 0 0 0 360.5, 334.1L299.3, 298L330.6, 219.7L350.9, 261.1A48.35 48.35 0 0 0 394, 288L448, 288A32 32 0 0 0 480, 256A32 32 0 0 0 448, 224z" fill="#727272" fill-opacity="1" class="Black" />
  </g>
</svg>