<?xml version='1.0' encoding='UTF-8'?>
<svg viewBox="-2 -2 32 32" xmlns="http://www.w3.org/2000/svg">
  <g transform="matrix(0.0547, 0, 0, 0.0547, 0, 0)">
    <defs>
      <style>.fa-secondary{opacity:.4}</style>
    </defs>
    <path d="M256, 0C114.6, 0 0, 100.3 0, 224C0, 294.1 36.9, 356.6 94.5, 397.7C104.1, 404.6 109.7, 415.8 108, 427.6L98.6, 493.8A15.87 15.87 0 0 0 111.97, 511.8A16.49 16.49 0 0 0 114.3, 511.97L192, 511.97L192, 456A8 8 0 0 1 200, 448L216, 448A8 8 0 0 1 224, 456L224, 512L288, 512L288, 456A8 8 0 0 1 296, 448L312, 448A8 8 0 0 1 320, 456L320, 512L397.7, 512A15.87 15.87 0 0 0 413.57, 496.13A16.49 16.49 0 0 0 413.4, 493.8L404, 427.6C402.3, 415.9 407.8, 404.6 417.5, 397.7C475.1, 356.6 512, 294.1 512, 224C512, 100.3 397.4, 0 256, 0zM160, 320A64 64 0 1 1 224, 256A64 64 0 0 1 160, 320zM352, 320A64 64 0 1 1 416, 256A64 64 0 0 1 352, 320z" fill="#727272" opacity="0.4" fill-opacity="1" class="Black" />
    <path d="M160, 192A64 64 0 1 0 224, 256A64 64 0 0 0 160, 192zM352, 192A64 64 0 1 0 416, 256A64 64 0 0 0 352, 192z" fill="#727272" fill-opacity="1" class="Black" />
  </g>
</svg>