<?xml version='1.0' encoding='UTF-8'?>
<svg viewBox="-3.7484 -2 32 32" xmlns="http://www.w3.org/2000/svg">
  <g transform="matrix(0.0547, 0, 0, 0.0547, 0, 0)">
    <defs>
      <style>.fa-secondary{opacity:.4}</style>
    </defs>
    <path d="M368, 128C368, 57.31 303.51, 0 224, 0C144.49, 0 80, 57.31 80, 128C80, 174.53 108.21, 214.87 150, 237.28L144.52, 263.15C141.84, 275.77 149.93, 288 161, 288L287, 288C298, 288 306.12, 275.78 303.45, 263.16L298, 237.28C339.76, 214.87 368, 174.53 368, 128zM168, 176A32 32 0 1 1 200, 144A32 32 0 0 1 168, 176zM280, 176A32 32 0 1 1 312, 144A32 32 0 0 1 280, 176z" fill="#727272" opacity="0.4" fill-opacity="1" class="Black" />
    <path d="M280, 176A32 32 0 1 0 248, 144A32 32 0 0 0 280, 176zM439.15, 453.05L297.15, 384L439.15, 314.94A16 16 0 0 0 446.3, 293.48L432, 264.85A16 16 0 0 0 410.54, 257.7L224, 348.4L37.47, 257.69A16 16 0 0 0 16, 264.85L1.69, 293.47A16 16 0 0 0 8.85, 314.93L150.85, 383.99L8.85, 453.05A16 16 0 0 0 1.7, 474.52L16, 503.15A16 16 0 0 0 37.47, 510.28L224, 419.58L410.51, 510.3A16 16 0 0 0 432, 503.15L446.33, 474.52A16 16 0 0 0 439.15, 453.05zM168, 176A32 32 0 1 0 136, 144A32 32 0 0 0 168, 176z" fill="#727272" fill-opacity="1" class="Black" />
  </g>
</svg>