<?xml version='1.0' encoding='UTF-8'?>
<svg viewBox="-2 -4.798 32 32" xmlns="http://www.w3.org/2000/svg">
  <g transform="matrix(0.9988, 0, 0, 0.9988, 0, 0)">
    <g transform="matrix(0.0438, 0, 0, 0.0438, 0, 0)">
      <defs>
        <style>.fa-secondary{opacity:.4}</style>
      </defs>
      <path d="M60.07, 113.24C43.35, 89.15 56.88, 37.69 63, 21.58A16 16 0 0 0 36.79, 4.58C13.05, 27.82 0, 60.17 0, 95.67C0, 166.12 57.43, 224 128, 224L160, 224L160, 160A63.33 63.33 0 0 1 168.88, 128L96, 128C78.61, 128 66.87, 123 60.07, 113.24zM603.26, 4.57A16 16 0 0 0 577.05, 21.57C583.12, 37.68 596.65, 89.14 579.93, 113.23C573.13, 123 561.39, 128 544, 128L471.12, 128A63.32 63.32 0 0 1 480, 160L480, 224L512, 224C582.59, 224 640, 166.12 640, 95.67C640, 60.17 627, 27.82 603.26, 4.57z" fill="#727272" opacity="0.4" fill-opacity="1" class="Black" />
      <path d="M416, 96L224, 96A64 64 0 0 0 160, 160L160, 288A64 64 0 0 0 224, 352L250.8, 486.27A32 32 0 0 0 282.19, 512L357.72, 512A32 32 0 0 0 389.1, 486.28L416, 352A64 64 0 0 0 480, 288L480, 160A64 64 0 0 0 416, 96zM240, 288A32 32 0 1 1 272, 256A32 32 0 0 1 240, 288zM400, 288A32 32 0 1 1 432, 256A32 32 0 0 1 400, 288z" fill="#727272" fill-opacity="1" class="Black" />
    </g>
  </g>
</svg>