<?xml version='1.0' encoding='UTF-8'?>
<svg viewBox="-1.9998 -4.7959 32 31.9975" xmlns="http://www.w3.org/2000/svg">
  <g transform="matrix(1.0013, 0, 0, 1.0013, 0, 0)">
    <g transform="matrix(0.0437, 0, 0, 0.0437, 0, 0)">
      <defs>
        <style>.fa-secondary{opacity:.4}</style>
      </defs>
      <path d="M639.9, 411.7C637.7, 450.7 603, 480 564, 480L48, 480A16 16 0 0 1 32, 464L32, 448A16 16 0 0 1 48, 432L567.3, 432A24.61 24.61 0 0 0 582.7, 388.2L573.4, 380.8A16 16 0 0 1 570.9, 358.3L580.9, 345.8A16 16 0 0 1 603.4, 343.3L612.7, 350.7A72.06 72.06 0 0 1 639.9, 411.7z" fill="#727272" opacity="0.4" fill-opacity="1" class="Black" />
      <path d="M0, 64A32 32 0 0 1 32, 32L52.7, 32A173.75 173.75 0 0 1 208, 128A173.64 173.64 0 0 0 363.3, 224L384, 224A64.06 64.06 0 0 0 448, 160L448, 96L544, 96A32 32 0 0 1 544, 160L544, 256A96 96 0 0 1 448, 352L448, 400L384, 400L384, 352L192, 352L192, 400L128, 400L128, 347.5C72.9, 333.2 32, 283.6 32, 224L32, 96A32 32 0 0 1 0, 64z" fill="#727272" fill-opacity="1" class="Black" />
    </g>
  </g>
</svg>