<?xml version='1.0' encoding='UTF-8'?>
<svg viewBox="-2 -1.9988 32 32" xmlns="http://www.w3.org/2000/svg">
  <g transform="matrix(0.0547, 0, 0, 0.0547, 0, 0)">
    <defs>
      <style>.fa-secondary{opacity:.4}</style>
    </defs>
    <path d="M496, 64L288, 64L288, 128L496, 128A16 16 0 0 0 512, 112L512, 80A16 16 0 0 0 496, 64zM16, 128L192, 128L192, 64L16, 64A16 16 0 0 0 0, 80L0, 112A16 16 0 0 0 16, 128zM16, 288L320, 288L320, 224L16, 224A16 16 0 0 0 0, 240L0, 272A16 16 0 0 0 16, 288zM496, 224L416, 224L416, 288L496, 288A16 16 0 0 0 512, 272L512, 240A16 16 0 0 0 496, 224zM496, 384L160, 384L160, 448L496, 448A16 16 0 0 0 512, 432L512, 400A16 16 0 0 0 496, 384zM0, 400L0, 432A16 16 0 0 0 16, 448L64, 448L64, 384L16, 384A16 16 0 0 0 0, 400z" fill="#727272" opacity="0.4" fill-opacity="1" class="Black" />
    <path d="M272, 32L240, 32A16 16 0 0 0 224, 48L224, 144A16 16 0 0 0 240, 160L272, 160A16 16 0 0 0 288, 144L288, 48A16 16 0 0 0 272, 32zM400, 192L368, 192A16 16 0 0 0 352, 208L352, 304A16 16 0 0 0 368, 320L400, 320A16 16 0 0 0 416, 304L416, 208A16 16 0 0 0 400, 192zM144, 352L112, 352A16 16 0 0 0 96, 368L96, 464A16 16 0 0 0 112, 480L144, 480A16 16 0 0 0 160, 464L160, 368A16 16 0 0 0 144, 352z" fill="#727272" fill-opacity="1" class="Black" />
  </g>
</svg>