<?xml version='1.0' encoding='UTF-8'?>
<svg viewBox="-3.7495 -2 32 32" xmlns="http://www.w3.org/2000/svg">
  <g transform="matrix(0.0547, 0, 0, 0.0547, 0, 0)">
    <defs>
      <style>.fa-secondary{opacity:.4}</style>
    </defs>
    <path d="M80, 0L48, 0A16 16 0 0 0 32, 16L32, 96L96, 96L96, 16A16 16 0 0 0 80, 0zM192, 496A16 16 0 0 0 208, 512L240, 512A16 16 0 0 0 256, 496L256, 448L192, 448zM32, 496A16 16 0 0 0 48, 512L80, 512A16 16 0 0 0 96, 496L96, 192L32, 192zM240, 0L208, 0A16 16 0 0 0 192, 16L192, 352L256, 352L256, 16A16 16 0 0 0 240, 0zM352, 496A16 16 0 0 0 368, 512L400, 512A16 16 0 0 0 416, 496L416, 320L352, 320zM400, 0L368, 0A16 16 0 0 0 352, 16L352, 224L416, 224L416, 16A16 16 0 0 0 400, 0z" fill="#727272" opacity="0.4" fill-opacity="1" class="Black" />
    <path d="M112, 96L16, 96A16 16 0 0 0 0, 112L0, 144A16 16 0 0 0 16, 160L112, 160A16 16 0 0 0 128, 144L128, 112A16 16 0 0 0 112, 96zM432, 224L336, 224A16 16 0 0 0 320, 240L320, 272A16 16 0 0 0 336, 288L432, 288A16 16 0 0 0 448, 272L448, 240A16 16 0 0 0 432, 224zM272, 352L176, 352A16 16 0 0 0 160, 368L160, 400A16 16 0 0 0 176, 416L272, 416A16 16 0 0 0 288, 400L288, 368A16 16 0 0 0 272, 352z" fill="#727272" fill-opacity="1" class="Black" />
  </g>
</svg>