<?xml version='1.0' encoding='UTF-8'?>
<svg viewBox="-2 0 32 32" xmlns="http://www.w3.org/2000/svg">
  <g transform="matrix(0.0625, 0, 0, 0.0625, 0, 0)">
    <defs>
      <style>.fa-secondary{opacity:.4}</style>
    </defs>
    <path d="M400, 32L48, 32A48 48 0 0 0 0, 80L0, 432A48 48 0 0 0 48, 480L400, 480A48 48 0 0 0 448, 432L448, 80A48 48 0 0 0 400, 32zM384, 356A12 12 0 0 1 372, 368L320, 368L320, 392A23.94 23.94 0 0 1 296, 416L280, 416A23.94 23.94 0 0 1 256, 392L256, 368L76, 368A12 12 0 0 1 64, 356L64, 316A12 12 0 0 1 76, 304L256, 304L256, 280A23.94 23.94 0 0 1 280, 256L296, 256A23.94 23.94 0 0 1 320, 280L320, 304L372, 304A12 12 0 0 1 384, 316zM384, 196A12 12 0 0 1 372, 208L192, 208L192, 232A23.94 23.94 0 0 1 168, 256L152, 256A23.94 23.94 0 0 1 128, 232L128, 208L76, 208A12 12 0 0 1 64, 196L64, 156A12 12 0 0 1 76, 144L128, 144L128, 120A23.94 23.94 0 0 1 152, 96L168, 96A23.94 23.94 0 0 1 192, 120L192, 144L372, 144A12 12 0 0 1 384, 156z" fill="#727272" opacity="0.4" fill-opacity="1" class="Black" />
    <path d="M168, 256A23.94 23.94 0 0 0 192, 232L192, 120A23.94 23.94 0 0 0 168, 96L152, 96A23.94 23.94 0 0 0 128, 120L128, 232A23.94 23.94 0 0 0 152, 256zM280, 416L296, 416A23.94 23.94 0 0 0 320, 392L320, 280A23.94 23.94 0 0 0 296, 256L280, 256A23.94 23.94 0 0 0 256, 280L256, 392A23.94 23.94 0 0 0 280, 416z" fill="#727272" fill-opacity="1" class="Black" />
  </g>
</svg>