<?xml version='1.0' encoding='UTF-8'?>
<svg viewBox="-2 -4.7992 32 32" xmlns="http://www.w3.org/2000/svg">
  <g transform="matrix(0.9988, 0, 0, 0.9988, 0, 0)">
    <g transform="matrix(0.0438, 0, 0, 0.0438, 0, 0)">
      <defs>
        <style>.fa-secondary{opacity:.4}</style>
      </defs>
      <path d="M208, 96C93.1, 96 0, 189.1 0, 304C0, 418.9 93.1, 512 208, 512C322.9, 512 416, 418.9 416, 304C416, 189.1 322.9, 96 208, 96zM272, 229.2A26.8 26.8 0 1 1 245.2, 256A26.8 26.8 0 0 1 272, 229.2zM144, 229.2A26.8 26.8 0 1 1 117.2, 256A26.8 26.8 0 0 1 144, 229.2zM308.2, 370.1A132.32 132.32 0 0 1 107.8, 370.1A16 16 0 1 1 132.1, 349.4A100.23 100.23 0 0 0 283.7, 349.3A16.07 16.07 0 0 1 308.2, 370.1z" fill="#727272" opacity="0.4" fill-opacity="1" class="Black" />
      <path d="M624, 80L560, 80L560, 16A16 16 0 0 0 544, 0L512, 0A16 16 0 0 0 496, 16L496, 80L432, 80A16 16 0 0 0 416, 96L416, 128A16 16 0 0 0 432, 144L496, 144L496, 208A16 16 0 0 0 512, 224L544, 224A16 16 0 0 0 560, 208L560, 144L624, 144A16 16 0 0 0 640, 128L640, 96A16 16 0 0 0 624, 80zM272, 229.2A26.8 26.8 0 1 0 298.8, 256A26.8 26.8 0 0 0 272, 229.2zM144, 229.2A26.8 26.8 0 1 0 170.8, 256A26.8 26.8 0 0 0 144, 229.2z" fill="#727272" fill-opacity="1" class="Black" />
    </g>
  </g>
</svg>