<?xml version='1.0' encoding='UTF-8'?>
<svg viewBox="-1.9999 -1.549 31.9975 32" xmlns="http://www.w3.org/2000/svg">
  <g transform="matrix(0.999, 0, 0, 0.999, 0, 0)">
    <g transform="matrix(0.0565, 0, 0, 0.0565, 0, 0)">
      <defs>
        <style>.fa-secondary{opacity:.4}</style>
      </defs>
      <path d="M248, 8C111, 8 0, 119 0, 256C0, 393 111, 504 248, 504C385, 504 496, 393 496, 256C496, 119 385, 8 248, 8zM168, 176A32 32 0 1 1 136, 208A32 32 0 0 1 168, 176zM362.8, 346.3A149.48 149.48 0 0 1 133.2, 346.2C119.7, 329.9 144.4, 309.5 157.8, 325.8A117.5 117.5 0 0 0 338.2, 325.8C351.8, 309.6 376.3, 330 362.8, 346.3zM368.2, 233L358.5, 224.5C343.7, 211.3 312.3, 211.3 297.5, 224.5L288, 233C279.7, 240.4 266.4, 233.4 268.2, 222.2C272.2, 197 302.4, 180.1 328.1, 180.1C353.8, 180.1 384, 197 388, 222.2C389.7, 233.3 376.6, 240.5 368.2, 233z" fill="#727272" opacity="0.4" fill-opacity="1" class="Black" />
      <path d="M388, 222.2C384, 197 353.8, 180.1 328.1, 180.1C302.4, 180.1 272.2, 197 268.2, 222.2C266.4, 233.4 279.7, 240.4 288, 233L297.5, 224.5C312.3, 211.3 343.7, 211.3 358.5, 224.5L368.2, 233C376.6, 240.5 389.7, 233.3 388, 222.2zM168, 176A32 32 0 1 0 200, 208A32 32 0 0 0 168, 176z" fill="#727272" fill-opacity="1" class="Black" />
    </g>
  </g>
</svg>