<?xml version='1.0' encoding='UTF-8'?>
<svg viewBox="-1.9998 -1.5483 31.9975 32" xmlns="http://www.w3.org/2000/svg">
  <g transform="matrix(1.0008, 0, 0, 1.0008, 0, 0)">
    <g transform="matrix(0.0564, 0, 0, 0.0564, 0, 0)">
      <defs>
        <style>.fa-secondary{opacity:.4}</style>
      </defs>
      <path d="M245.47, 8C108.5, 9.43 -1.36, 121.56 0, 258.53C1.36, 395.5 113.56, 505.36 250.53, 504C387.5, 502.64 497.36, 390.44 496, 253.47C494.64, 116.5 382.44, 6.64 245.47, 8zM112, 223.4C115.3, 181.3 144.2, 152.02 168, 152.02C191.8, 152.02 220.7, 181.3 224, 223.4C224.7, 232 213.2, 235.3 209.1, 227.9L199.6, 210.9C191.9, 197.2 180.4, 189.3 168.1, 189.3C155.8, 189.3 144.32, 197.2 136.62, 210.9L127.12, 227.9C122.82, 235.3 111.32, 231.9 112, 223.4zM363.69, 345A149.34 149.34 0 0 1 134.15, 347.35C120.48, 331.18 144.77, 310.54 158.52, 326.6A117.57 117.57 0 0 0 338.91, 324.76C352.32, 308.44 376.99, 328.69 363.69, 345zM369, 227.9L359.5, 210.9C351.8, 197.2 340.32, 189.3 328.02, 189.3C315.72, 189.3 304.22, 197.2 296.52, 210.9L287.02, 227.9C282.92, 235.2 271.42, 231.9 272.12, 223.4C275.42, 181.3 304.32, 152.02 328.12, 152.02C351.92, 152.02 380.8, 181.3 384.12, 223.4C384.7, 232 373.12, 235.3 369.01, 227.9z" fill="#727272" opacity="0.4" fill-opacity="1" class="Black" />
      <path d="M168, 152C144.22, 152 115.32, 181.28 112, 223.38C111.3, 231.88 122.8, 235.28 127.1, 227.88L136.6, 210.88C144.3, 197.18 155.78, 189.28 168.08, 189.28C180.38, 189.28 191.88, 197.18 199.58, 210.88L209.08, 227.88C213.18, 235.28 224.68, 231.98 223.98, 223.38C220.7, 181.3 191.8, 152 168, 152zM384.08, 223.4C380.78, 181.3 351.88, 152.02 328.08, 152.02C304.28, 152.02 275.38, 181.3 272.08, 223.4C271.38, 231.9 282.88, 235.2 286.98, 227.9L296.48, 210.9C304.18, 197.2 315.68, 189.3 327.98, 189.3C340.28, 189.3 351.76, 197.2 359.46, 210.9L368.96, 227.9C373.07, 235.3 384.67, 232 384.07, 223.4z" fill="#727272" fill-opacity="1" class="Black" />
    </g>
  </g>
</svg>