<?xml version='1.0' encoding='UTF-8'?>
<svg viewBox="-2 -4.7992 32 32" xmlns="http://www.w3.org/2000/svg">
  <g transform="matrix(0.9988, 0, 0, 0.9988, 0, 0)">
    <g transform="matrix(0.0438, 0, 0, 0.0438, 0, 0)">
      <defs>
        <style>.fa-secondary{opacity:.4}</style>
      </defs>
      <path d="M624, 368L80, 368A16 16 0 0 0 64, 384L64, 400A16 16 0 0 0 80, 416L624, 416A16 16 0 0 0 640, 400L640, 384A16 16 0 0 0 624, 368zM144, 464L16, 464A16 16 0 0 0 0, 480L0, 496A16 16 0 0 0 16, 512L144, 512A16 16 0 0 0 160, 496L160, 480A16 16 0 0 0 144, 464zM560, 464L224, 464A16 16 0 0 0 208, 480L208, 496A16 16 0 0 0 224, 512L560, 512A16 16 0 0 0 576, 496L576, 480A16 16 0 0 0 560, 464z" fill="#727272" opacity="0.4" fill-opacity="1" class="Black" />
      <path d="M0, 144A143.73 143.73 0 0 1 248, 44.8A143.18 143.18 0 0 1 352, 0C406.8, 0 454, 31 478.3, 76.1A110.53 110.53 0 0 1 528, 64A112 112 0 0 1 528, 288L467.9, 288C445.3, 307.7 416.3, 320 384, 320C351.7, 320 322.6, 307.7 300.1, 288L144, 288A144 144 0 0 1 0, 144z" fill="#727272" fill-opacity="1" class="Black" />
    </g>
  </g>
</svg>