<?xml version='1.0' encoding='UTF-8'?>
<svg viewBox="-2 -1.9988 32 32" xmlns="http://www.w3.org/2000/svg">
  <g transform="matrix(0.0547, 0, 0, 0.0547, 0, 0)">
    <defs>
      <style>.fa-secondary{opacity:.4}</style>
    </defs>
    <path d="M256, 32C114.6, 32 0, 125.1 0, 240C0, 289.6 21.4, 335 57, 370.7C44.5, 421.1 2.7, 466 2.2, 466.5A8 8 0 0 0 0.7, 475.2A7.83 7.83 0 0 0 8, 480C74.3, 480 124, 448.2 148.6, 428.6A305 305 0 0 0 256, 448C397.4, 448 512, 354.9 512, 240C512, 125.1 397.4, 32 256, 32zM128.2, 304L116, 304A8 8 0 0 1 108, 296L108, 280A8 8 0 0 1 116, 272L128.3, 272C134.3, 272 138.7, 268.5 138.7, 265.4A5.29 5.29 0 0 0 136.6, 261.6L114.7, 242.8A37 37 0 0 1 101.4, 214.7C101.4, 193.4 120.4, 176.1 143.8, 176.1L156, 176.1A8 8 0 0 1 164, 184.1L164, 200.1A8 8 0 0 1 156, 208.1L143.7, 208.1C137.7, 208.1 133.3, 211.6 133.3, 214.7A5.29 5.29 0 0 0 135.4, 218.5L157.3, 237.3A37 37 0 0 1 170.6, 265.4C170.7, 286.7 151.6, 304 128.2, 304zM320, 296A8 8 0 0 1 312, 304L296, 304A8 8 0 0 1 288, 296L288, 227.8L263.2, 283.6A8 8 0 0 1 248.9, 283.6L224, 227.8L224, 296A8 8 0 0 1 216, 304L200, 304A8 8 0 0 1 192, 296L192, 192A16 16 0 0 1 208, 176L224, 176A15.92 15.92 0 0 1 238.3, 184.8L256, 220.2L273.7, 184.8A16 16 0 0 1 288, 176L304, 176A16 16 0 0 1 320, 192zM368.3, 304L356, 304A8 8 0 0 1 348, 296L348, 280A8 8 0 0 1 356, 272L368.3, 272C374.3, 272 378.7, 268.5 378.7, 265.4A5.29 5.29 0 0 0 376.6, 261.6L354.7, 242.8A37 37 0 0 1 341.4, 214.7C341.4, 193.4 360.4, 176.1 383.8, 176.1L396, 176.1A8 8 0 0 1 404, 184.1L404, 200.1A8 8 0 0 1 396, 208.1L383.7, 208.1C377.7, 208.1 373.3, 211.6 373.3, 214.7A5.29 5.29 0 0 0 375.4, 218.5L397.3, 237.3A37 37 0 0 1 410.6, 265.4C410.7, 286.7 391.7, 304 368.3, 304z" fill="#727272" opacity="0.4" fill-opacity="1" class="Black" />
    <path d="M397.3, 237.3L375.4, 218.5A5.29 5.29 0 0 1 373.3, 214.7C373.3, 211.6 377.7, 208.1 383.7, 208.1L396, 208.1A8 8 0 0 0 404, 200.1L404, 184.1A8 8 0 0 0 396, 176.1L383.8, 176.1C360.4, 176.1 341.4, 193.4 341.4, 214.7A37 37 0 0 0 354.7, 242.8L376.6, 261.6A5.29 5.29 0 0 1 378.7, 265.4C378.7, 268.5 374.3, 272 368.3, 272L356, 272A8 8 0 0 0 348, 280L348, 296A8 8 0 0 0 356, 304L368.3, 304C391.7, 304 410.7, 286.7 410.6, 265.4A37 37 0 0 0 397.3, 237.3zM304, 176L288, 176A16 16 0 0 0 273.7, 184.8L256, 220.2L238.3, 184.8A15.92 15.92 0 0 0 224, 176L208, 176A16 16 0 0 0 192, 192L192, 296A8 8 0 0 0 200, 304L216, 304A8 8 0 0 0 224, 296L224, 227.8L248.9, 283.6A8 8 0 0 0 263.2, 283.6L288, 227.8L288, 296A8 8 0 0 0 296, 304L312, 304A8 8 0 0 0 320, 296L320, 192A16 16 0 0 0 304, 176zM157.3, 237.3L135.4, 218.5A5.29 5.29 0 0 1 133.3, 214.7C133.3, 211.6 137.7, 208.1 143.7, 208.1L156, 208.1A8 8 0 0 0 164, 200.1L164, 184.1A8 8 0 0 0 156, 176.1L143.8, 176.1C120.4, 176.1 101.4, 193.4 101.4, 214.7A37 37 0 0 0 114.7, 242.8L136.6, 261.6A5.29 5.29 0 0 1 138.7, 265.4C138.7, 268.5 134.3, 272 128.3, 272L116, 272A8 8 0 0 0 108, 280L108, 296A8 8 0 0 0 116, 304L128.2, 304C151.6, 304 170.7, 286.7 170.6, 265.4A37 37 0 0 0 157.3, 237.3z" fill="#727272" fill-opacity="1" class="Black" />
  </g>
</svg>