<?xml version='1.0' encoding='UTF-8'?>
<svg viewBox="-1.9998 -4.8002 31.9975 32" xmlns="http://www.w3.org/2000/svg">
  <g transform="matrix(0.9988, 0, 0, 0.9988, 0, 0)">
    <g transform="matrix(0.0438, 0, 0, 0.0438, 0, 0)">
      <defs>
        <style>.fa-secondary{opacity:.4}</style>
      </defs>
      <path d="M368, 352A48 48 0 0 1 368, 448L112, 448A48 48 0 0 1 112, 352L368, 352M368, 288L112, 288A112 112 0 0 0 112, 512L368, 512A112 112 0 0 0 368, 288z" fill="#727272" opacity="0.4" fill-opacity="1" class="Black" />
      <path d="M120, 376A23.94 23.94 0 1 0 120.12, 376zM200, 376A23.94 23.94 0 1 0 200.12, 376zM360, 376A23.94 23.94 0 1 0 360.12, 376zM280, 376A23.94 23.94 0 1 0 280.12, 376zM598.6, 425.4A77.16 77.16 0 0 1 576, 370.8L576, 269.2A77.16 77.16 0 0 1 598.6, 214.6L635.3, 177.9A16.06 16.06 0 0 0 635.3, 155.3L612.7, 132.7A16.06 16.06 0 0 0 590.1, 132.7L553.4, 169.4A141.23 141.23 0 0 0 512, 269.3L512, 288L448, 288L448, 237.1A64.23 64.23 0 0 0 442.8, 211.9L364.5, 29.1A48 48 0 0 0 320.3, 0L176, 0A48 48 0 0 0 128, 48L128, 160L112, 160A48 48 0 0 0 64, 208L64, 298.78A111.63 111.63 0 0 1 112, 288L368, 288A112 112 0 0 1 469.22, 352L512, 352L512, 370.7A141.23 141.23 0 0 0 553.4, 470.6L590.1, 507.3A16.06 16.06 0 0 0 612.7, 507.3L635.3, 484.7A16.06 16.06 0 0 0 635.3, 462.1zM256, 224L192, 160L192, 64L309.8, 64L378.4, 224z" fill="#727272" fill-opacity="1" class="Black" />
    </g>
  </g>
</svg>