<?xml version='1.0' encoding='UTF-8'?>
<svg viewBox="-1.9999 -4.8004 31.9975 32" xmlns="http://www.w3.org/2000/svg">
  <g transform="matrix(1.0011, 0, 0, 1.0011, 0, 0)">
    <g transform="matrix(0.0437, 0, 0, 0.0437, 0, 0)">
      <defs>
        <style>.fa-secondary{opacity:.4}</style>
      </defs>
      <path d="M240, 0A48 48 0 1 0 288, 48A48 48 0 0 0 240, 0zM499.38, 403.11L492.11, 408A48 48 0 0 1 465.5, 416L449.25, 416L486, 464L432, 464A16 16 0 0 0 416, 480L416, 496A16 16 0 0 0 432, 512L546.7, 512A88.18 88.18 0 0 0 599.5, 494.4L633.6, 468.8A16 16 0 0 0 636.8, 446.4L627.2, 433.6A15.89 15.89 0 0 0 614.42, 427.19A16.05 16.05 0 0 0 604.8, 430.4L570.7, 456A39.8 39.8 0 0 1 546.7, 464L546, 464zM288, 448L32, 448A32 32 0 0 0 32, 512L288, 512A32 32 0 0 0 288, 448z" fill="#727272" opacity="0.4" fill-opacity="1" class="Black" />
      <path d="M465.5, 416A48 48 0 0 0 492.11, 408L568.9, 356.8A15.94 15.94 0 0 0 576, 343.5L576, 266A15.94 15.94 0 0 0 567.2, 251.7L407.9, 172L366.4, 88.9A16 16 0 0 0 337.7, 103.2L373.3, 174.4L360, 192L301.3, 192L246, 136.8A64 64 0 0 0 143.5, 153.4L113.7, 213.1A63.27 63.27 0 0 0 127.1, 288.1L96, 288.1A31.87 31.87 0 0 0 67.4, 305.8L35.4, 369.8C24.7, 391 40.2, 416 64, 416zM288, 288L263.6, 288L196.6, 254.5L222.2, 203.4L256.1, 237.3A63.66 63.66 0 0 0 301.3, 256.1L312, 256.1z" fill="#727272" fill-opacity="1" class="Black" />
    </g>
  </g>
</svg>