<?xml version='1.0' encoding='UTF-8'?>
<svg viewBox="-3.7495 -2 32 32" xmlns="http://www.w3.org/2000/svg">
  <g transform="matrix(0.0547, 0, 0, 0.0547, 0, 0)">
    <defs>
      <style>.fa-secondary{opacity:.4}</style>
    </defs>
    <path d="M138.08, 441.66A15.87 15.87 0 0 0 138.24, 464.1L149.54, 475.4A16.06 16.06 0 0 0 172.14, 475.4L191.84, 455.7L191.9, 387.84L138.24, 441.5zM91.37, 83.9L76.47, 87.9A15.46 15.46 0 0 0 65.57, 106.8L72.57, 132.8L129.24, 165.54L110.24, 94.8A15.47 15.47 0 0 0 91.37, 83.9zM65.45, 405.3A15.46 15.46 0 0 0 76.35, 424.2L91.25, 428.2A15.47 15.47 0 0 0 110.14, 417.3L129.14, 346.57L72.45, 379.3zM420.45, 238.1A15.48 15.48 0 0 0 439.35, 227.2L443.35, 212.3A15.47 15.47 0 0 0 432.45, 193.4L406.45, 186.4L349.75, 219.13zM8.67, 227.2A15.47 15.47 0 0 0 27.57, 238.1L98.34, 219.1L41.62, 186.3L15.67, 193.3A15.51 15.51 0 0 0 4.67, 212.3zM27.54, 273.9A15.47 15.47 0 0 0 8.64, 284.8L4.64, 299.7A15.46 15.46 0 0 0 15.54, 318.6L41.54, 325.6L98.3, 292.89zM149.74, 36.7L138.34, 48A1.21 1.21 0 0 0 138.18, 48.16A15.87 15.87 0 0 0 138.34, 70.6L192, 124.3L192, 56.4L172.3, 36.7A16.06 16.06 0 0 0 149.74, 36.7zM443.44, 299.8L439.44, 284.9A15.48 15.48 0 0 0 420.54, 274L349.87, 293L406.56, 325.73L432.56, 318.73A15.47 15.47 0 0 0 443.44, 299.8zM382.54, 106.8A15.47 15.47 0 0 0 371.64, 87.9L356.74, 83.9A15.45 15.45 0 0 0 337.84, 94.8L318.84, 165.54L375.53, 132.8zM375.54, 379.2L318.87, 346.47L337.87, 417.2A15.46 15.46 0 0 0 356.76, 428.1L371.66, 424.1A15.47 15.47 0 0 0 382.56, 405.2zM256, 387.7L255.84, 455.64L275.5, 475.3A16.06 16.06 0 0 0 298.1, 475.3L309.4, 464A16.07 16.07 0 0 0 309.4, 441.4zM298.4, 36.7A16.06 16.06 0 0 0 275.8, 36.7L256, 56.4L256, 124.3L309.71, 70.6A16.07 16.07 0 0 0 309.71, 48z" fill="#727272" opacity="0.4" fill-opacity="1" class="Black" />
    <path d="M446, 366.05L445.91, 366.2L430.44, 393A15.42 15.42 0 0 1 409.38, 398.72L256, 310.2L255.8, 496A16 16 0 0 1 239.8, 512L207.8, 512A16 16 0 0 1 191.8, 496L191.9, 310.3L38.65, 398.8A15.51 15.51 0 0 1 17.55, 393.1L2, 366.3A15.51 15.51 0 0 1 7.7, 345.2L162.16, 256L7.87, 166.8A15.43 15.43 0 0 1 2.14, 145.74L17.67, 119A15.41 15.41 0 0 1 38.67, 113.28L38.72, 113.28L192, 201.8L192, 16A16 16 0 0 1 208, 0L240, 0A16 16 0 0 1 256, 16L256, 201.8L409.3, 113.3A15.51 15.51 0 0 1 430.4, 119L445.9, 145.8A15.51 15.51 0 0 1 440.2, 166.9L285.85, 256L440.34, 345.2A15.29 15.29 0 0 1 446, 366.05z" fill="#727272" fill-opacity="1" class="Black" />
  </g>
</svg>