<?xml version='1.0' encoding='UTF-8'?>
<svg viewBox="-1.9975 -4.842 31.9975 32" xmlns="http://www.w3.org/2000/svg">
  <g transform="matrix(1.0012, 0, 0, 1.0012, 0, 0)">
    <g transform="matrix(0.0437, 0, 0, 0.0437, 0, 0)">
      <defs>
        <style>.fa-secondary{opacity:.4}</style>
      </defs>
      <path d="M528, 120A8 8 0 0 0 536, 128L552, 128A8 8 0 0 0 560, 120L560, 91.6L588, 107.7A8 8 0 0 0 599, 104.8L607, 90.9A8 8 0 0 0 604, 80L576.15, 64L604, 48A8 8 0 0 0 606.9, 37.1L598.9, 23.2A8 8 0 0 0 588, 20.3L560, 36.4L560, 8A8 8 0 0 0 552, 0L536, 0A8 8 0 0 0 528, 8L528, 36.4L500, 20.3A8 8 0 0 0 489.09, 23.2L481.09, 37.1A8 8 0 0 0 484, 48L512, 64L484, 80A8 8 0 0 0 481.1, 90.9L489.1, 104.8A8 8 0 0 0 500, 107.7L528, 91.6zM636, 272L608.08, 256L636, 240A8 8 0 0 0 638.9, 229.1L630.9, 215.2A8 8 0 0 0 620, 212.3L592, 228.4L592, 200A8 8 0 0 0 584, 192L568, 192A8 8 0 0 0 560, 200L560, 228.4L532, 212.3A8 8 0 0 0 521.09, 215.2L513.09, 229.1A8 8 0 0 0 516, 240L544, 256L516, 272A8 8 0 0 0 513.1, 282.9L521.1, 296.8A8 8 0 0 0 532, 299.7L560, 283.6L560, 312A8 8 0 0 0 568, 320L584, 320A8 8 0 0 0 592, 312L592, 283.6L620, 299.7A8 8 0 0 0 631, 296.8L639, 282.9A8 8 0 0 0 636, 272zM65.45, 404.3A15.46 15.46 0 0 0 76.35, 423.2L91.25, 427.2A15.47 15.47 0 0 0 110.14, 416.3L129.14, 345.57L72.45, 378.3zM91.37, 82.9L76.47, 86.9A15.46 15.46 0 0 0 65.57, 105.8L72.57, 131.8L129.24, 164.54L110.24, 93.8A15.47 15.47 0 0 0 91.37, 82.9zM138.08, 440.66A15.87 15.87 0 0 0 138.24, 463.1L149.54, 474.4A16.06 16.06 0 0 0 172.14, 474.4L191.84, 454.7L191.9, 386.84L138.24, 440.5zM27.54, 272.9A15.47 15.47 0 0 0 8.64, 283.8L4.64, 298.7A15.46 15.46 0 0 0 15.54, 317.6L41.54, 324.6L98.3, 291.89zM8.67, 226.2A15.47 15.47 0 0 0 27.57, 237.1L98.34, 218.1L41.62, 185.3L15.67, 192.3A15.51 15.51 0 0 0 4.67, 211.3zM420.44, 237.1A15.48 15.48 0 0 0 439.34, 226.2L443.34, 211.3A15.47 15.47 0 0 0 432.44, 192.4L406.44, 185.4L349.74, 218.13zM375.54, 378.2L318.87, 345.47L337.87, 416.2A15.46 15.46 0 0 0 356.76, 427.1L371.66, 423.1A15.47 15.47 0 0 0 382.56, 404.2zM439.44, 283.9A15.48 15.48 0 0 0 420.54, 273L349.87, 292L406.56, 324.73L432.56, 317.73A15.47 15.47 0 0 0 443.46, 298.83zM382.54, 105.8A15.47 15.47 0 0 0 371.64, 86.9L356.74, 82.9A15.45 15.45 0 0 0 337.84, 93.8L318.84, 164.54L375.53, 131.8zM298.44, 35.7A16.06 16.06 0 0 0 275.84, 35.7L256, 55.4L256, 123.3L309.71, 69.6A16.07 16.07 0 0 0 309.71, 47zM256, 386.7L255.84, 454.64L275.5, 474.3A16.06 16.06 0 0 0 298.1, 474.3L309.4, 463A16.07 16.07 0 0 0 309.4, 440.4zM149.7, 35.7L138.34, 47A1.21 1.21 0 0 0 138.18, 47.16A15.87 15.87 0 0 0 138.34, 69.6L192, 123.3L192, 55.4L172.3, 35.7A16.06 16.06 0 0 0 149.74, 35.7z" fill="#727272" opacity="0.4" fill-opacity="1" class="Black" />
      <path d="M446, 365.05L445.91, 365.2L430.44, 392A15.42 15.42 0 0 1 409.38, 397.72L256, 309.2L255.8, 495A16 16 0 0 1 239.8, 511L207.8, 511A16 16 0 0 1 191.8, 495L191.9, 309.3L38.65, 397.8A15.51 15.51 0 0 1 17.55, 392.1L2, 365.3A15.51 15.51 0 0 1 7.7, 344.2L162.16, 255L7.87, 165.8A15.43 15.43 0 0 1 2.14, 144.74L17.67, 118A15.41 15.41 0 0 1 38.67, 112.28L38.72, 112.28L192, 200.8L192, 15A16 16 0 0 1 208, -1L240, -1A16 16 0 0 1 256, 15L256, 200.8L409.3, 112.3A15.51 15.51 0 0 1 430.4, 118L445.9, 144.8A15.51 15.51 0 0 1 440.2, 165.9L285.85, 255L440.34, 344.2A15.29 15.29 0 0 1 446, 365.05z" fill="#727272" fill-opacity="1" class="Black" />
    </g>
  </g>
</svg>