<?xml version='1.0' encoding='UTF-8'?>
<svg viewBox="-1.9975 -4.8108 32 32" xmlns="http://www.w3.org/2000/svg">
  <g transform="matrix(1.0012, 0, 0, 1.0012, 0, 0)">
    <g transform="matrix(0.0437, 0, 0, 0.0437, 0, 0)">
      <defs>
        <style>.fa-secondary{opacity:.4}</style>
      </defs>
      <path d="M540.3, 320L361.72, 320A32.4 32.4 0 0 0 343.91, 325.4L299.91, 354.7C286.71, 363.5 292.91, 384 308.82, 384L542.2, 384C558.1, 384 573.01, 394.9 575.61, 410.6A32.06 32.06 0 0 1 513.61, 426.1C511.5, 419.8 505, 416 498.4, 416L465.56, 416A16.06 16.06 0 0 0 449.86, 435.1A96.06 96.06 0 0 0 638.14, 396.9C629.43, 351.3 586.72, 320 540.3, 320zM400, 288L544, 288A96.2 96.2 0 0 0 637.81, 171.28C630.21, 135.07 600.9, 105.76 564.7, 98.16A96.23 96.23 0 0 0 449.79, 173.68C447.89, 183.28 455.89, 191.98 465.59, 191.98L498.39, 191.98C505.09, 191.98 511.49, 188.18 513.59, 181.88A32.05 32.05 0 0 1 575.59, 197.38C573, 213.09 558.22, 224 542.22, 224L400, 224A16 16 0 0 0 384, 240L384, 272A16 16 0 0 0 400, 288z" fill="#727272" opacity="0.4" fill-opacity="1" class="Black" />
      <path d="M291.93, 324.1L280.22, 327.2A12.16 12.16 0 0 1 265.32, 318.6L250.42, 263L200, 233.9L200, 290.8L240.4, 331A12 12 0 0 1 240.4, 348L231.9, 356.5A12 12 0 0 1 214.9, 356.5L200.1, 341.7L200.1, 372A12 12 0 0 1 188.1, 384L164.1, 384A12 12 0 0 1 152.1, 372L152.1, 341.7L137.3, 356.5A12 12 0 0 1 120.3, 356.5L111.8, 348A12 12 0 0 1 111.8, 331L152, 290.8L152, 233.9L101.58, 263L86.68, 318.6A12.21 12.21 0 0 1 71.78, 327.2L60.07, 324.1A12.21 12.21 0 0 1 51.47, 309.2L57, 288.8L30.4, 304.1A12.13 12.13 0 0 1 13.79, 299.7L1.69, 278.7A12.12 12.12 0 0 1 6.09, 262.1L32.6, 246.7L12.19, 241.2A12.21 12.21 0 0 1 3.59, 226.3L6.69, 214.6A12.21 12.21 0 0 1 21.59, 206L77.31, 221L127.52, 192L77.28, 163L21.66, 177.9A12.16 12.16 0 0 1 6.76, 169.3L3.66, 157.6A12.16 12.16 0 0 1 12.26, 142.7L32.67, 137.2L6.06, 121.9A12.12 12.12 0 0 1 1.66, 105.3L13.76, 84.3A12.13 12.13 0 0 1 30.37, 79.9L56.87, 95.2L51.37, 74.8A12.16 12.16 0 0 1 60, 59.9L71.71, 56.7A12.16 12.16 0 0 1 86.61, 65.3L101.61, 121L152, 150.1L152, 93.2L111.69, 53A12 12 0 0 1 111.69, 36L120.19, 27.5A12 12 0 0 1 137.19, 27.5L152, 42.3L152, 12A12 12 0 0 1 164, 0L188, 0A12 12 0 0 1 200, 12L200, 42.3L214.7, 27.5A12 12 0 0 1 231.7, 27.5L240.2, 36A12 12 0 0 1 240.2, 53L200, 93.2L200, 150.1L250.42, 121L265.32, 65.4A12.21 12.21 0 0 1 280.22, 56.8L291.93, 59.9A12.21 12.21 0 0 1 300.53, 74.8L295, 95.2L321.6, 79.9A12.13 12.13 0 0 1 338.21, 84.3L350.31, 105.3A12.12 12.12 0 0 1 345.91, 121.9L319.3, 137.2L339.71, 142.7A12.21 12.21 0 0 1 348.31, 157.6L345.21, 169.3A12.21 12.21 0 0 1 330.31, 177.9L274.72, 163L224.51, 192L274.72, 221L330.34, 206.1A12.16 12.16 0 0 1 345.24, 214.7L348.34, 226.4A12.16 12.16 0 0 1 339.74, 241.3L319.33, 246.8L345.94, 262.1A12.12 12.12 0 0 1 350.34, 278.7L338.24, 299.7A12.13 12.13 0 0 1 321.63, 304.1L295, 288.8L300.5, 309.2A12.09 12.09 0 0 1 291.93, 324.1z" fill="#727272" fill-opacity="1" class="Black" />
    </g>
  </g>
</svg>