<?xml version='1.0' encoding='UTF-8'?>
<svg viewBox="-2.01 -4.8045 32 32" xmlns="http://www.w3.org/2000/svg">
  <g transform="matrix(1.0007, 0, 0, 1.0007, 0, 0)">
    <g transform="matrix(0.0437, 0, 0, 0.0437, 0, 0)">
      <defs>
        <style>.fa-secondary{opacity:.4}</style>
      </defs>
      <path d="M585.2, 26.74A32.42 32.42 0 0 0 553.06, 0L86.93, 0A32.42 32.42 0 0 0 54.79, 26.74C-3.32, 369.16 0, 348.08 0, 352C0, 369.32 14.29, 384 32.6, 384L607.37, 384C625.6, 384 639.88, 369.44 639.96, 352.21C640, 348.13 643.31, 369.16 585.2, 26.74zM259.83, 64L380.16, 64L389.93, 160L250.06, 160zM184.66, 320L71.09, 320L90.09, 208L196.09, 208zM201, 160L98.24, 160L114.53, 64L210.72, 64zM233.82, 320L245.22, 208L394.82, 208L406.22, 320zM429.27, 64L525.46, 64L541.75, 160L439, 160zM455.33, 320L443.93, 208L549.93, 208L568.93, 320z" fill="#727272" opacity="0.4" fill-opacity="1" class="Black" />
      <path d="M432, 448L384, 448.05L384, 416L256, 416L256, 448.21L208, 448.26A16 16 0 0 0 192, 464.26L192, 496A16 16 0 0 0 208, 512L432, 511.74A16 16 0 0 0 448, 495.74L448, 464A16 16 0 0 0 432, 448zM380.16, 64L259.83, 64L250.06, 160L389.93, 160zM541.75, 160L525.46, 64L429.27, 64L439, 160zM394.82, 208L245.17, 208L233.77, 320L406.22, 320zM90.1, 208L71.1, 320L184.66, 320L196.07, 208zM210.72, 64L114.53, 64L98.24, 160L201, 160zM549.9, 208L443.9, 208L455.3, 320L568.91, 320z" fill="#727272" fill-opacity="1" class="Black" />
    </g>
  </g>
</svg>