<?xml version='1.0' encoding='UTF-8'?>
<svg viewBox="-1.9999 -1.9974 32 31.9975" xmlns="http://www.w3.org/2000/svg">
  <g transform="matrix(0.0547, 0, 0, 0.0547, 0, 0)">
    <defs>
      <style>.fa-secondary{opacity:.4}</style>
    </defs>
    <path d="M304, 416L240, 416A16 16 0 0 0 224, 432L224, 464A16 16 0 0 0 240, 480L304, 480A16 16 0 0 0 320, 464L320, 432A16 16 0 0 0 304, 416zM432, 160L240, 160A16 16 0 0 0 224, 176L224, 208A16 16 0 0 0 240, 224L432, 224A16 16 0 0 0 448, 208L448, 176A16 16 0 0 0 432, 160zM368, 288L240, 288A16 16 0 0 0 224, 304L224, 336A16 16 0 0 0 240, 352L368, 352A16 16 0 0 0 384, 336L384, 304A16 16 0 0 0 368, 288zM496, 32L240, 32A16 16 0 0 0 224, 48L224, 80A16 16 0 0 0 240, 96L496, 96A16 16 0 0 0 512, 80L512, 48A16 16 0 0 0 496, 32z" fill="#727272" opacity="0.4" fill-opacity="1" class="Black" />
    <path d="M16, 160L64, 160L64, 464A16 16 0 0 0 80, 480L112, 480A16 16 0 0 0 128, 464L128, 160L176, 160C190.21, 160 197.38, 142.76 187.31, 132.69L107.31, 36.69A16 16 0 0 0 84.69, 36.69L4.69, 132.69C-5.35, 142.74 1.77, 160 16, 160z" fill="#727272" fill-opacity="1" class="Black" />
  </g>
</svg>