<?xml version='1.0' encoding='UTF-8'?>
<svg viewBox="-4.7399 2.0095 31.9975 32" xmlns="http://www.w3.org/2000/svg">
  <g transform="matrix(0.0703, 0, 0, 0.0703, 0, 0)">
    <defs>
      <style>.fa-secondary{opacity:.4}</style>
    </defs>
    <path d="M279.07, 224.05L41.07, 224.05C19.67, 224.05 8.97, 198.15 24.07, 183.05L143.07, 64.05A23.9 23.9 0 0 1 176.87, 63.95L176.97, 64.05L296.07, 183.05C311.14, 198.1 300.47, 224.05 279.07, 224.05z" fill="#727272" opacity="0.4" fill-opacity="1" class="Black" />
    <path d="M296.07, 329.05L177, 448.05A23.9 23.9 0 0 1 143.2, 448.15L143.1, 448.05L24.1, 329.05C9, 313.95 19.7, 288.05 41.1, 288.05L279.1, 288.05C300.47, 288.05 311.14, 314 296.07, 329.05z" fill="#727272" fill-opacity="1" class="Black" />
  </g>
</svg>