<?xml version='1.0' encoding='UTF-8'?>
<svg viewBox="-2.0013 0 32 32" xmlns="http://www.w3.org/2000/svg">
  <g transform="matrix(0.0625, 0, 0, 0.0625, 0, 0)">
    <defs>
      <style>.fa-secondary{opacity:.4}</style>
    </defs>
    <path d="M288, 224L416, 224A16 16 0 0 0 432, 208L432, 176A16 16 0 0 0 416, 160L360, 160L421.26, 89.55A32 32 0 0 0 432, 65.63L432, 48A16 16 0 0 0 416, 32L288, 32A16 16 0 0 0 272, 48L272, 80A16 16 0 0 0 288, 96L344, 96L282.74, 166.45A32 32 0 0 0 272, 190.37L272, 208A16 16 0 0 0 288, 224zM447.06, 458.62L387.79, 298.62A16 16 0 0 0 372.72, 288L331.28, 288A16 16 0 0 0 316.21, 298.62L256.94, 458.62A16 16 0 0 0 272, 480L296.83, 480A16 16 0 0 0 312.06, 468.92L316.48, 456L387.48, 456L391.89, 468.92A16 16 0 0 0 407.16, 480L432, 480A16 16 0 0 0 447.06, 458.62zM335.61, 400L352, 352L368.39, 400z" fill="#727272" opacity="0.4" fill-opacity="1" class="Black" />
    <path d="M16, 160L64, 160L64, 464A16 16 0 0 0 80, 480L112, 480A16 16 0 0 0 128, 464L128, 160L176, 160C190.21, 160 197.38, 142.76 187.31, 132.69L107.31, 36.69A16 16 0 0 0 84.69, 36.69L4.69, 132.69C-5.35, 142.74 1.78, 160 16, 160z" fill="#727272" fill-opacity="1" class="Black" />
  </g>
</svg>