<?xml version='1.0' encoding='UTF-8'?>
<svg viewBox="-2.495 0.0027 31.9975 32" xmlns="http://www.w3.org/2000/svg">
  <g transform="matrix(0.0625, 0, 0, 0.0625, 0, 0)">
    <defs>
      <style>.fa-secondary{opacity:.4}</style>
    </defs>
    <path d="M400, 416L384, 416L384, 304A16 16 0 0 0 368, 288L320, 288A16 16 0 0 0 305.71, 296.83L289.71, 328.83A16 16 0 0 0 304, 352L320, 352L320, 416L304, 416A16 16 0 0 0 288, 432L288, 464A16 16 0 0 0 304, 480L400, 480A16 16 0 0 0 416, 464L416, 432A16 16 0 0 0 400, 416zM330.17, 34.91A79 79 0 0 0 275.17, 89.08C260.9, 140.13 296.36, 186.85 344, 191.61A84.07 84.07 0 0 1 323.15, 204.52C315.58, 207.92 312.35, 216.99 314.97, 224.86L324.87, 244.86C327.74, 253.49 337.4, 258.35 345.77, 254.77C403.77, 230 432.02, 193.16 432.02, 122.77L432.02, 112C432, 60.79 383.62, 20.66 330.17, 34.91zM352, 132A20 20 0 1 1 372, 112A20 20 0 0 1 352, 132z" fill="#727272" opacity="0.4" fill-opacity="1" class="Black" />
    <path d="M107.31, 36.69A16 16 0 0 0 84.69, 36.69L4.69, 132.69C-5.35, 142.74 1.78, 160 16, 160L64, 160L64, 464A16 16 0 0 0 80, 480L112, 480A16 16 0 0 0 128, 464L128, 160L176, 160C190.21, 160 197.38, 142.76 187.31, 132.69z" fill="#727272" fill-opacity="1" class="Black" />
  </g>
</svg>