<?xml version='1.0' encoding='UTF-8'?>
<svg viewBox="-2.0011 0 32 31.9975" xmlns="http://www.w3.org/2000/svg">
  <g transform="matrix(0.0625, 0, 0, 0.0625, 0, 0)">
    <defs>
      <style>.fa-secondary{opacity:.4}</style>
    </defs>
    <path d="M444.1, 182.86L361, 45.71C349.91, 27.43 322.19, 27.43 311.1, 45.71L227.9, 182.86C216.82, 201.14 230.67, 224 252.85, 224L419.15, 224C441.33, 224 455.18, 201.14 444.1, 182.86zM408, 288L264, 288A24 24 0 0 0 240, 312L240, 456A24 24 0 0 0 264, 480L408, 480A24 24 0 0 0 432, 456L432, 312A24 24 0 0 0 408, 288z" fill="#727272" opacity="0.4" fill-opacity="1" class="Black" />
    <path d="M176, 352L128, 352L128, 48A16 16 0 0 0 112, 32L80, 32A16 16 0 0 0 64, 48L64, 352L16, 352C1.81, 352 -5.36, 369.24 4.71, 379.31L84.71, 475.31A16 16 0 0 0 107.33, 475.31L187.33, 379.31C197.35, 369.26 190.22, 352 176, 352z" fill="#727272" fill-opacity="1" class="Black" />
  </g>
</svg>