<?xml version='1.0' encoding='UTF-8'?>
<svg viewBox="-1.9988 0 32 32" xmlns="http://www.w3.org/2000/svg">
  <g transform="matrix(0.0625, 0, 0, 0.0625, 0, 0)">
    <defs>
      <style>.fa-secondary{opacity:.4}</style>
    </defs>
    <path d="M444.1, 182.86L361, 45.71C349.91, 27.43 322.19, 27.43 311.1, 45.71L227.9, 182.86C216.82, 201.14 230.67, 224 252.85, 224L419.15, 224C441.33, 224 455.18, 201.14 444.1, 182.86zM408, 288L264, 288A24 24 0 0 0 240, 312L240, 456A24 24 0 0 0 264, 480L408, 480A24 24 0 0 0 432, 456L432, 312A24 24 0 0 0 408, 288z" fill="#727272" opacity="0.4" fill-opacity="1" class="Black" />
    <path d="M107.31, 36.69A16 16 0 0 0 84.69, 36.69L4.69, 132.69C-5.35, 142.74 1.78, 160 16, 160L64, 160L64, 464A16 16 0 0 0 80, 480L112, 480A16 16 0 0 0 128, 464L128, 160L176, 160C190.21, 160 197.39, 142.76 187.31, 132.69z" fill="#727272" fill-opacity="1" class="Black" />
  </g>
</svg>