<?xml version='1.0' encoding='UTF-8'?>
<svg viewBox="-2.0011 0 32 31.9975" xmlns="http://www.w3.org/2000/svg">
  <g transform="matrix(0.0625, 0, 0, 0.0625, 0, 0)">
    <defs>
      <style>.fa-secondary{opacity:.4}</style>
    </defs>
    <path d="M444.1, 438.86L361, 301.71C349.91, 283.43 322.19, 283.43 311.1, 301.71L227.9, 438.86C216.82, 457.14 230.67, 480 252.85, 480L419.15, 480C441.33, 480 455.18, 457.14 444.1, 438.86zM264, 224L408, 224A24 24 0 0 0 432, 200L432, 56A24 24 0 0 0 408, 32L264, 32A24 24 0 0 0 240, 56L240, 200A24 24 0 0 0 264, 224z" fill="#727272" opacity="0.4" fill-opacity="1" class="Black" />
    <path d="M176, 352L128, 352L128, 48A16 16 0 0 0 112, 32L80, 32A16 16 0 0 0 64, 48L64, 352L16, 352C1.81, 352 -5.36, 369.24 4.71, 379.31L84.71, 475.31A16 16 0 0 0 107.33, 475.31L187.33, 379.31C197.35, 369.26 190.22, 352 176, 352z" fill="#727272" fill-opacity="1" class="Black" />
  </g>
</svg>