<?xml version='1.0' encoding='UTF-8'?>
<svg viewBox="-1.9975 -1.9975 32 32" xmlns="http://www.w3.org/2000/svg">
  <g transform="matrix(0.0547, 0, 0, 0.0547, 0, 0)">
    <defs>
      <style>.fa-secondary{opacity:.4}</style>
    </defs>
    <path d="M240, 96L304, 96A16 16 0 0 0 320, 80L320, 48A16 16 0 0 0 304, 32L240, 32A16 16 0 0 0 224, 48L224, 80A16 16 0 0 0 240, 96zM240, 224L368, 224A16 16 0 0 0 384, 208L384, 176A16 16 0 0 0 368, 160L240, 160A16 16 0 0 0 224, 176L224, 208A16 16 0 0 0 240, 224zM496, 416L240, 416A16 16 0 0 0 224, 432L224, 464A16 16 0 0 0 240, 480L496, 480A16 16 0 0 0 512, 464L512, 432A16 16 0 0 0 496, 416zM240, 352L432, 352A16 16 0 0 0 448, 336L448, 304A16 16 0 0 0 432, 288L240, 288A16 16 0 0 0 224, 304L224, 336A16 16 0 0 0 240, 352z" fill="#727272" opacity="0.4" fill-opacity="1" class="Black" />
    <path d="M176, 352L128, 352L128, 48A16 16 0 0 0 112, 32L80, 32A16 16 0 0 0 64, 48L64, 352L16, 352C1.81, 352 -5.37, 369.24 4.71, 379.31L84.71, 475.31A16 16 0 0 0 107.33, 475.31L187.33, 379.31C197.35, 369.26 190.22, 352 176, 352z" fill="#727272" fill-opacity="1" class="Black" />
  </g>
</svg>