<?xml version='1.0' encoding='UTF-8'?>
<svg viewBox="-2.0011 -1.9998 32 31.9975" xmlns="http://www.w3.org/2000/svg">
  <g transform="matrix(0.0547, 0, 0, 0.0547, 0, 0)">
    <defs>
      <style>.fa-secondary{opacity:.4}</style>
    </defs>
    <path d="M203.31, 67.3A94.84 94.84 0 0 1 176.91, 13.8A16.12 16.12 0 0 0 160.81, 0L144.41, 0A16.32 16.32 0 0 0 128, 16.23A17.48 17.48 0 0 0 128.09, 18A145.37 145.37 0 0 0 168.69, 102.4A81.21 81.21 0 0 1 191.09, 146.5A16.23 16.23 0 0 0 207.09, 160L223.59, 160C233.39, 160 241.19, 151.5 239.89, 142A130.71 130.71 0 0 0 203.31, 67.3zM351.91, 142A130.71 130.71 0 0 0 315.31, 67.3A94.84 94.84 0 0 1 288.91, 13.8A16.12 16.12 0 0 0 272.76, 0L256.36, 0C246.56, 0 238.86, 8.5 240.06, 18A145.37 145.37 0 0 0 280.66, 102.4A81.21 81.21 0 0 1 303.06, 146.5L303.11, 146.5A16.23 16.23 0 0 0 319.11, 160L335.61, 160C345.41, 160 353.21, 151.5 351.91, 142z" fill="#727272" opacity="0.4" fill-opacity="1" class="Black" />
    <path d="M32, 192L480, 192A32 32 0 0 1 512, 224C512, 318.7 460.44, 401.16 384, 445.45L384, 480A32 32 0 0 1 352, 512L160, 512A32 32 0 0 1 128, 480L128, 445.45C51.56, 401.16 0, 318.7 0, 224A32 32 0 0 1 32, 192z" fill="#727272" fill-opacity="1" class="Black" />
  </g>
</svg>