<?xml version='1.0' encoding='UTF-8'?>
<svg viewBox="-2.0025 -2.0563 32 32" xmlns="http://www.w3.org/2000/svg">
  <g transform="matrix(0.0547, 0, 0, 0.0547, 0, 0)">
    <defs>
      <style>.fa-secondary{opacity:.4}</style>
    </defs>
    <path d="M423.16, 186.58L448, 127L507.58, 102.16A8 8 0 0 0 507.58, 87.84L448, 63L423.16, 3.42A8 8 0 0 0 408.84, 3.42L384, 63L324.42, 87.84A8 8 0 0 0 324.42, 102.16L384, 127L408.84, 186.58A8 8 0 0 0 423.16, 186.58zM408.84, 323.42L384, 383L324.42, 407.84A8 8 0 0 0 324.42, 422.16L384, 447L408.84, 506.58A8 8 0 0 0 423.16, 506.58L448, 447L507.58, 422.16A8 8 0 0 0 507.58, 407.84L448, 383L423.16, 323.42A8 8 0 0 0 408.84, 323.42z" fill="#727272" opacity="0.4" fill-opacity="1" class="Black" />
    <path d="M384, 254.64A16.06 16.06 0 0 0 375.16, 240.31L262.59, 183.92L206.31, 71.15C200.87, 60.28 183.12, 60.28 177.69, 71.15L121.41, 183.92L8.84, 240.31A16 16 0 0 0 8.84, 268.98L121.41, 325.37L177.69, 438.14A16 16 0 0 0 206.31, 438.14L262.59, 325.37L375.16, 269A16.07 16.07 0 0 0 384, 254.64z" fill="#727272" fill-opacity="1" class="Black" />
  </g>
</svg>