<?xml version='1.0' encoding='UTF-8'?>
<svg viewBox="-1.9974 -3.5552 31.9975 32" xmlns="http://www.w3.org/2000/svg">
  <g transform="matrix(0.0486, 0, 0, 0.0486, 0, 0)">
    <defs>
      <style>.fa-secondary{opacity:.4}</style>
    </defs>
    <path d="M571.35, 276.48L526.14, 231.18A15.88 15.88 0 0 0 503.55, 231.18L352.05, 382.68L296.64, 327.18A15.88 15.88 0 0 0 274.05, 327.18L228.75, 372.48A16 16 0 0 0 228.75, 395.07L340.75, 507.28A15.89 15.89 0 0 0 363.35, 507.28L571.35, 299.07A16 16 0 0 0 571.35, 276.48z" fill="#727272" opacity="0.4" fill-opacity="1" class="Black" />
    <path d="M272, 256L363.36, 256C406.56, 256 445.36, 223.8 447.87, 180.66A79.82 79.82 0 0 0 422.61, 117.59A79.81 79.81 0 0 0 431.67, 72.68C427.9, 30.57 389.3, 0 347, 0L272, 0A16 16 0 0 0 256, 16L256, 240A16 16 0 0 0 272, 256zM312, 56L352, 56A24 24 0 0 1 352, 104L312, 104zM312, 152L368, 152A24 24 0 0 1 368, 200L312, 200zM155.12, 22.25A32 32 0 0 0 124.64, 0L99.36, 0A32 32 0 0 0 68.88, 22.25L0.59, 235.73A16 16 0 0 0 16, 256L40.93, 256A16 16 0 0 0 56.35, 244.27L68.29, 208L155.71, 208L167.65, 244.27A16 16 0 0 0 183.07, 256L208, 256A16 16 0 0 0 223.42, 235.73zM89.37, 144L112, 75.3L134.63, 144z" fill="#727272" fill-opacity="1" class="Black" />
  </g>
</svg>