<?xml version='1.0' encoding='UTF-8'?>
<svg viewBox="-1.9975 -3.5527 31.9975 32" xmlns="http://www.w3.org/2000/svg">
  <g transform="matrix(0.0486, 0, 0, 0.0486, 0, 0)">
    <defs>
      <style>.fa-secondary{opacity:.4}</style>
    </defs>
    <path d="M453.71, 88.63L427.82, 11A16 16 0 0 0 407.58, 0.83L392.41, 5.89A16 16 0 0 0 382.29, 26.13L406.09, 97.52L385.8, 138.1A99.35 99.35 0 0 1 389, 149.89L394.23, 176L398.9, 176L424.83, 167.35L452, 113.06A32 32 0 0 0 453.71, 88.63zM183.59, 5.89L168.42, 0.83A16 16 0 0 0 148.18, 11L122.29, 88.63A32 32 0 0 0 124, 113.06L151.15, 167.36L177.1, 176L181.77, 176L187, 149.89A99.35 99.35 0 0 1 190.21, 138.1L169.91, 97.52L193.71, 26.13A16 16 0 0 0 183.59, 5.89z" fill="#727272" opacity="0.4" fill-opacity="1" class="Black" />
    <path d="M573.31, 349.39A16 16 0 0 1 568.87, 371.57L555.56, 380.45A16 16 0 0 1 533.37, 376L485.37, 304L438.31, 304L499.14, 401.33A32.05 32.05 0 0 1 504, 418.33L504, 496A16 16 0 0 1 488, 512L472, 512A16 16 0 0 1 456, 496L456, 422.9L381.92, 304.37C382.92, 318.42 384, 332.48 384, 346.58C384, 399.65 343.24, 448 288, 448C232.76, 448 192, 399.64 192, 346.57C192, 332.47 193.07, 318.41 194.08, 304.36L120, 422.9L120, 496A16 16 0 0 1 104, 512L88, 512A16 16 0 0 1 72, 496L72, 418.3A32 32 0 0 1 76.86, 401.3L137.69, 304L90.63, 304L42.63, 376A16 16 0 0 1 20.44, 380.44L7.13, 371.58A16 16 0 0 1 2.69, 349.39L55.43, 270.26A32 32 0 0 1 82.06, 256L160, 256L91, 231.66A32 32 0 0 1 74.5, 219.05L20.9, 138.64A16 16 0 0 1 25.34, 116.45L38.65, 107.57A16 16 0 0 1 60.84, 112L111.41, 187.83L171.9, 208L208, 208L218.37, 156.15C220.56, 145.19 235.74, 96 288, 96C340.26, 96 355.44, 145.18 357.63, 156.15L368, 208L404.1, 208L464.6, 187.83L515.16, 112A16 16 0 0 1 537.35, 107.56L550.66, 116.44A16 16 0 0 1 555.1, 138.63L501.5, 219.04A32 32 0 0 1 485, 231.66L416, 256L493.94, 256A32 32 0 0 1 520.56, 270.25z" fill="#727272" fill-opacity="1" class="Black" />
  </g>
</svg>