<?xml version='1.0' encoding='UTF-8'?>
<svg viewBox="-1.9999 -3.5552 32 32" xmlns="http://www.w3.org/2000/svg">
  <g transform="matrix(0.0486, 0, 0, 0.0486, 0, 0)">
    <defs>
      <style>.fa-secondary{opacity:.4}</style>
    </defs>
    <path d="M576, 72A24 24 0 0 1 552, 96L357, 96L259.22, 470.52C249.38, 503 222.21, 512 204.94, 512C186.3, 512 168.99, 503.5 156.5, 483.73L67.62, 320L24, 320A24 24 0 0 1 0, 296L0, 248A24 24 0 0 1 24, 224L105.47, 224A32 32 0 0 1 133.47, 240.57L191.88, 346.67L276.7, 23.87A32 32 0 0 1 307.65, 0L552, 0A24 24 0 0 1 576, 24z" fill="#727272" opacity="0.4" fill-opacity="1" class="Black" />
    <path d="M571.31, 366.06A16 16 0 0 1 571.31, 388.69L548.69, 411.31A16 16 0 0 1 526.06, 411.31L480, 365.25L433.94, 411.31A16 16 0 0 1 411.31, 411.31L388.69, 388.69A16 16 0 0 1 388.69, 366.06L434.75, 320L388.69, 273.94A16 16 0 0 1 388.69, 251.31L411.31, 228.69A16 16 0 0 1 433.94, 228.69L480, 274.75L526.06, 228.69A16 16 0 0 1 548.69, 228.69L571.31, 251.31A16 16 0 0 1 571.31, 273.94L525.25, 320z" fill="#727272" fill-opacity="1" class="Black" />
  </g>
</svg>