<?xml version='1.0' encoding='UTF-8'?>
<svg viewBox="-2 -2 31.9975 32" xmlns="http://www.w3.org/2000/svg">
  <g transform="matrix(0.0547, 0, 0, 0.0547, 0, 0)">
    <defs>
      <style>.fa-secondary{opacity:.4}</style>
    </defs>
    <path d="M263.48, 512C175.39, 511.58 97.93, 443.62 96, 355.46C95.18, 317.88 107.81, 283.59 128.74, 255.92C128.47, 255.92 128.22, 256 127.95, 256A128 128 0 0 1 128, 0C214.2, 0 312.54, 112.89 265.33, 254.86L230.76, 358.71A8 8 0 0 0 235.83, 368.83L251, 373.88A8 8 0 0 0 260.57, 370.05L229.35, 463.75C221.55, 487.25 238.78, 511.73 263.48, 512z" fill="#727272" opacity="0.4" fill-opacity="1" class="Black" />
    <path d="M479.84, 448L448.92, 448C467.11, 429.6 479.85, 405.88 479.85, 384C479.85, 357.45 457.77, 331.19 432, 322.91L432, 224L479.85, 224A32.2 32.2 0 0 0 511.28, 185.13C500.84, 136.42 466.72, 96 415.87, 96L415.87, 64C367.87, 64 341.65, 126.73 326.47, 172.29L229.37, 463.76C221.52, 487.34 238.91, 511.93 263.77, 512L495.85, 512A16 16 0 0 0 511.85, 496L511.85, 480A32 32 0 0 0 479.84, 448zM415.84, 160A16 16 0 1 1 431.84, 176A16 16 0 0 1 415.87, 160z" fill="#727272" fill-opacity="1" class="Black" />
  </g>
</svg>