<?xml version='1.0' encoding='UTF-8'?>
<svg viewBox="-3.3109 -2 32 32" xmlns="http://www.w3.org/2000/svg">
  <g transform="matrix(0.0547, 0, 0, 0.0547, 0, 0)">
    <defs>
      <style>.fa-secondary{opacity:.4}</style>
    </defs>
    <path d="M176, 344L175.93, 344L131.93, 270.07L71, 168L110.72, 168L144.05, 112L37.11, 112C8.51, 112 -9.31, 142.38 5.11, 166.59L61.71, 261.67L91, 310.55L90.91, 310.69L110.72, 344zM336.17, 263.3L288.12, 344L288.05, 344L254.65, 400L254.78, 400L232, 438.25L209.22, 400L144.05, 400L200, 494A37.44 37.44 0 0 0 264, 494L320, 400L319.81, 400L353, 344L353.3, 344L373.15, 310.67L340.52, 256zM426.89, 112L209.35, 112L176, 168L393, 168L373.12, 201.33L405.68, 256L458.89, 166.6C473.3, 142.41 455.48, 112.02 426.89, 112.02z" fill="#727272" opacity="0.4" fill-opacity="1" class="Black" />
    <path d="M91, 310.55L58.32, 256L5.11, 345.41C-9.3, 369.62 8.52, 400 37.11, 400L254.57, 400L287.85, 344L71, 344zM127.86, 248.72L175.86, 168.02L176, 168.02L209.39, 112.02L209.26, 112.02L232, 73.78L254.78, 112L319.94, 112L264, 18A37.44 37.44 0 0 0 200, 18L90.88, 201.32L123.5, 256zM458.92, 345.41L353.28, 168L288.07, 168L332.07, 241.93L393, 344L353, 344L319.78, 400L426.89, 400C455.49, 400 473.31, 369.64 458.89, 345.43z" fill="#727272" fill-opacity="1" class="Black" />
  </g>
</svg>