<?xml version='1.0' encoding='UTF-8'?>
<svg viewBox="-2.8678 -1.985 32 32" xmlns="http://www.w3.org/2000/svg">
  <g transform="matrix(0.0547, 0, 0, 0.0547, 0, 0)">
    <defs>
      <style>.fa-secondary{opacity:.4}</style>
    </defs>
    <path d="M2.14, 155.72L34.14, 100.29A16 16 0 0 1 56, 94.43L240, 200.86L424, 94.42A16 16 0 0 1 445.86, 100.26L477.86, 155.69A16 16 0 0 1 472, 177.56L288, 284.19L288, 496A16 16 0 0 1 272, 512L208, 512A16 16 0 0 1 192, 496L192, 284.18L8, 177.57A16 16 0 0 1 2.14, 155.72z" fill="#727272" opacity="0.4" fill-opacity="1" class="Black" />
    <path d="M477.87, 356.55L445.87, 411.98A16 16 0 0 1 424, 417.84L240, 311.41L56, 417.85A16 16 0 0 1 34.15, 412L2.15, 356.57A16 16 0 0 1 8, 334.7L192, 228.08L192, 16.27A16 16 0 0 1 208, 0.27L272, 0.27A16 16 0 0 1 288, 16.27L288, 228.09L472, 334.7A16 16 0 0 1 477.87, 356.55z" fill="#727272" fill-opacity="1" class="Black" />
  </g>
</svg>