<?xml version='1.0' encoding='UTF-8'?>
<svg viewBox="-1.9993 -2 31.9999 32" xmlns="http://www.w3.org/2000/svg">
  <g transform="matrix(0.0547, 0, 0, 0.0547, 0, 0)">
    <defs>
      <style>.fa-secondary{opacity:.4}</style>
    </defs>
    <path d="M362.69, 53.3L336, 0L309.3, 53.3L256, 80L309.3, 106.7L336, 160L362.7, 106.7L416, 80zM480, 192L464, 160L448, 192L416, 208L448, 224L464, 256L480, 224L512, 208z" fill="#727272" opacity="0.4" fill-opacity="1" class="Black" />
    <path d="M377.09, 306.5L301.19, 380.5L319.09, 485.1A23 23 0 0 1 285.79, 509.3L192, 459.9L98.2, 509.3C81.6, 518.2 61.7, 504 64.9, 485.1L82.9, 380.5L7, 306.5C-6.7, 293.2 0.9, 270 19.7, 267.3L124.49, 252L171.39, 156.8C179.89, 139.6 204.19, 139.8 212.59, 156.8L259.49, 252L364.29, 267.3C383.09, 270 390.69, 293.2 377.09, 306.5z" fill="#727272" fill-opacity="1" class="Black" />
  </g>
</svg>