<?xml version='1.0' encoding='UTF-8'?>
<svg viewBox="-0.9516 -2.6218 32 31.9975" xmlns="http://www.w3.org/2000/svg">
  <g transform="matrix(1.0009, 0, 0, 1.0009, 0, 0)">
    <g transform="matrix(0.0522, 0, 0, 0.0522, 0, 0)">
      <defs>
        <style>.fa-secondary{opacity:.4}</style>
      </defs>
      <path d="M528.53, 171.5L382.17, 150.2L316.74, 17.81C305.03, -5.78 271.06, -6.08 259.26, 17.81L193.83, 150.2L47.47, 171.5C21.2, 175.29 10.68, 207.58 29.72, 226.08L135.63, 329.08L110.63, 474.57C106.11, 500.87 133.85, 520.57 157.11, 508.26L288, 439.56L418.93, 508.25C442.19, 520.46 469.93, 500.86 465.41, 474.56L440.41, 329.07L546.32, 226.07C565.32, 207.58 554.8, 175.29 528.53, 171.5zM437.64, 242.5L371.59, 306.73L387.22, 397.59A12 12 0 0 1 369.82, 410.25L288, 367.27L206.18, 410.21A12 12 0 0 1 188.78, 397.55L204.41, 306.69L138.41, 242.46A12 12 0 0 1 145, 222L236.34, 208.72L277.24, 125.91A12 12 0 0 1 298.76, 125.91L339.66, 208.72L431, 222A12 12 0 0 1 437.64, 242.46z" fill="#727272" opacity="0.4" fill-opacity="1" class="Black" />
      <path d="M437.64, 242.46L371.59, 306.69L387.22, 397.55A12 12 0 0 1 369.82, 410.21L288, 367.27L206.18, 410.21A12 12 0 0 1 188.78, 397.55L204.41, 306.69L138.41, 242.46A12 12 0 0 1 145, 222L236.34, 208.72L277.24, 125.91A12 12 0 0 1 298.76, 125.91L339.66, 208.72L431, 222A12 12 0 0 1 437.64, 242.46z" fill="#727272" fill-opacity="1" class="Black" />
    </g>
  </g>
</svg>