<?xml version='1.0' encoding='UTF-8'?>
<svg viewBox="-1.9975 -2.6243 32 32" xmlns="http://www.w3.org/2000/svg">
  <g transform="matrix(1.0009, 0, 0, 1.0009, 0, 0)">
    <g transform="matrix(0.0522, 0, 0, 0.0522, 0, 0)">
      <defs>
        <style>.fa-secondary{opacity:.4}</style>
      </defs>
      <path d="M526.29, 226.11L420.29, 329.11L445.29, 474.6C448.93, 495.37 432.29, 512 413.63, 512A31.75 31.75 0 0 1 398.79, 508.29L267.79, 439.58L267.79, 385.34L290.18, 397.07L392.4, 450.66L372.9, 337.21L368.61, 312.33L386.75, 294.71L469.48, 214.33L355.07, 197.7L330.07, 194.06L318.81, 171.43L267.75, 68.14L267.75, 0A31.92 31.92 0 0 1 296.56, 17.81L362, 150.2L508.51, 171.51C534.79, 175.31 545.32, 207.61 526.26, 226.11z" fill="#727272" opacity="0.4" fill-opacity="1" class="Black" />
      <path d="M90.48, 474.5L115.48, 329L9.7, 226C-9.3, 207.5 1.19, 175.2 27.42, 171.4L173.66, 150.2L239, 17.8A31.67 31.67 0 0 1 267.75, 0L267.75, 439.6L136.93, 508.2C113.51, 520.5 86, 500.6 90.48, 474.5z" fill="#727272" fill-opacity="1" class="Black" />
    </g>
  </g>
</svg>