<?xml version='1.0' encoding='UTF-8'?>
<svg viewBox="-3.747 -2 32 32" xmlns="http://www.w3.org/2000/svg">
  <g transform="matrix(0.0547, 0, 0, 0.0547, 0, 0)">
    <defs>
      <style>.fa-secondary{opacity:.4}</style>
    </defs>
    <path d="M224, 96C109.12, 96 16, 189.12 16, 304C16, 418.88 109.12, 512 224, 512C338.88, 512 432, 418.88 432, 304C432, 189.12 338.88, 96 224, 96zM256, 336A16 16 0 0 1 240, 352L208, 352A16 16 0 0 1 192, 336L192, 208.5A16 16 0 0 1 208, 192.5L240, 192.5A16 16 0 0 1 256, 208.5z" fill="#727272" opacity="0.4" fill-opacity="1" class="Black" />
    <path d="M240, 192.5L208, 192.5A16 16 0 0 0 192, 208.5L192, 336A16 16 0 0 0 208, 352L240, 352A16 16 0 0 0 256, 336L256, 208.5A16 16 0 0 0 240, 192.5zM428.53, 143.93L400.23, 115.63A12 12 0 0 0 383.23, 115.63L355.78, 143.08A209.14 209.14 0 0 1 398.58, 190.88L399.13, 190.33L428.53, 160.93A12 12 0 0 0 428.53, 143.93zM280, 0L168, 0A16 16 0 0 0 152, 16L152, 48A16 16 0 0 0 168, 64L192, 64L192, 98.45A210 210 0 0 1 256, 98.45L256, 64L280, 64A16 16 0 0 0 296, 48L296, 16A16 16 0 0 0 280, 0z" fill="#727272" fill-opacity="1" class="Black" />
  </g>
</svg>