<?xml version='1.0' encoding='UTF-8'?>
<svg viewBox="-1.9924 -4.3584 31.9975 32" xmlns="http://www.w3.org/2000/svg">
  <g transform="matrix(0.9994, 0, 0, 0.9994, 0, 0)">
    <g transform="matrix(0.0455, 0, 0, 0.0455, 0, 0)">
      <defs>
        <style>.fa-secondary{opacity:.4}</style>
      </defs>
      <path d="M547.69, 286.8A102.1 102.1 0 0 0 564.09, 283.2L564.09, 480A32 32 0 0 1 532.09, 512L84, 512A32 32 0 0 1 52, 480L52, 283.2A125.89 125.89 0 0 0 68.4, 286.8A135.49 135.49 0 0 0 86.4, 288A132.81 132.81 0 0 0 115.91, 284.2L115.91, 384L500, 384L500, 284.2A127.12 127.12 0 0 0 529.51, 288A138.38 138.38 0 0 0 547.69, 286.8z" fill="#727272" opacity="0.4" fill-opacity="1" class="Black" />
      <path d="M602, 118.6C635.6, 172.2 605.8, 246.6 543, 255A102.9 102.9 0 0 1 529.3, 255.9A99.08 99.08 0 0 1 455.49, 222.8A98.83 98.83 0 0 1 316, 230.88A96.26 96.26 0 0 1 307.92, 222.8A98.9 98.9 0 0 1 168.3, 230.8A97.4 97.4 0 0 1 160.3, 222.8A98.75 98.75 0 0 1 86.49, 255.9A104.6 104.6 0 0 1 72.79, 255C10.12, 246.5 -19.58, 172.1 14, 118.6L78.83, 15A32 32 0 0 1 106, 0L510, 0A32 32 0 0 1 537.07, 15z" fill="#727272" fill-opacity="1" class="Black" />
    </g>
  </g>
</svg>