<?xml version='1.0' encoding='UTF-8'?>
<svg viewBox="-2 -1.9988 32 32" xmlns="http://www.w3.org/2000/svg">
  <g transform="matrix(0.0547, 0, 0, 0.0547, 0, 0)">
    <defs>
      <style>.fa-secondary{opacity:.4}</style>
    </defs>
    <path d="M512, 224L512, 288A16 16 0 0 1 496, 304L80, 304A16 16 0 0 1 64, 288L64, 224A16 16 0 0 1 80, 208L496, 208A16 16 0 0 1 512, 224z" fill="#727272" opacity="0.4" fill-opacity="1" class="Black" />
    <path d="M432, 32L16, 32A16 16 0 0 0 0, 48L0, 112A16 16 0 0 0 16, 128L432, 128A16 16 0 0 0 448, 112L448, 48A16 16 0 0 0 432, 32zM432, 384L16, 384A16 16 0 0 0 0, 400L0, 464A16 16 0 0 0 16, 480L432, 480A16 16 0 0 0 448, 464L448, 400A16 16 0 0 0 432, 384z" fill="#727272" fill-opacity="1" class="Black" />
  </g>
</svg>