<?xml version='1.0' encoding='UTF-8'?>
<svg viewBox="-2 -2 32 32" xmlns="http://www.w3.org/2000/svg">
  <g transform="matrix(0.0547, 0, 0, 0.0547, 0, 0)">
    <defs>
      <style>.fa-secondary{opacity:.4}</style>
    </defs>
    <path d="M188.12, 210.74L142.86, 256L188.11, 301.25L233.37, 256zM210.75, 323.88L256, 369.14L301.26, 323.88L256, 278.63zM301.25, 188.12L256, 142.86L210.75, 188.11L256, 233.37zM256, 0C114.62, 0 0, 114.62 0, 256C0, 397.38 114.62, 512 256, 512C397.38, 512 512, 397.38 512, 256C512, 114.62 397.38, 0 256, 0zM442.68, 295.6L431.37, 306.91A8 8 0 0 1 420.06, 306.91L391.77, 278.62L346.52, 323.87L380.46, 357.81L397.46, 340.81A8 8 0 0 1 408.77, 340.81L420.08, 352.12A8 8 0 0 1 420.08, 363.43L403.08, 380.43L420.08, 397.43A8 8 0 0 1 420.08, 408.74L408.74, 420A8 8 0 0 1 397.43, 420L380.43, 403L363.43, 420A8 8 0 0 1 352.12, 420L340.81, 408.69A8 8 0 0 1 340.81, 397.38L357.81, 380.38L323.9, 346.49L278.64, 391.75L306.93, 420A8 8 0 0 1 306.93, 431.31L295.62, 442.62A8 8 0 0 1 284.31, 442.62L256, 414.39L227.71, 442.68A8 8 0 0 1 216.4, 442.68L205.09, 431.37A8 8 0 0 1 205.09, 420.06L233.38, 391.77L188.13, 346.51L154.19, 380.45L171.19, 397.45A8 8 0 0 1 171.19, 408.76L159.85, 420A8 8 0 0 1 148.54, 420L131.54, 403L114.54, 420A8 8 0 0 1 103.23, 420L92, 408.73A8 8 0 0 1 92, 397.42L109, 380.42L92, 363.42A8 8 0 0 1 92, 352.11L103.31, 340.8A8 8 0 0 1 114.62, 340.8L131.62, 357.8L165.56, 323.86L120.31, 278.61L92, 306.93A8 8 0 0 1 80.69, 306.93L69.32, 295.6A8 8 0 0 1 69.32, 284.29L97.61, 256L69.32, 227.71A8 8 0 0 1 69.32, 216.4L80.63, 205.09A8 8 0 0 1 91.94, 205.09L120.23, 233.38L165.48, 188.12L131.54, 154.18L114.54, 171.18A8 8 0 0 1 103.23, 171.18L92, 159.84A8 8 0 0 1 92, 148.53L109, 131.53L92, 114.53A8 8 0 0 1 92, 103.22L103.26, 92A8 8 0 0 1 114.57, 92L131.57, 109L148.57, 92A8 8 0 0 1 159.88, 92L171.19, 103.31A8 8 0 0 1 171.19, 114.62L154.19, 131.62L188.1, 165.5L233.36, 120.25L205.07, 92A8 8 0 0 1 205.07, 80.69L216.38, 69.38A8 8 0 0 1 227.69, 69.38L256, 97.61L284.29, 69.32A8 8 0 0 1 295.6, 69.32L306.91, 80.63A8 8 0 0 1 306.91, 91.94L278.62, 120.23L323.88, 165.48L357.82, 131.54L340.82, 114.54A8 8 0 0 1 340.82, 103.23L352.16, 92A8 8 0 0 1 363.47, 92L380.47, 109L397.47, 92A8 8 0 0 1 408.78, 92L420, 103.26A8 8 0 0 1 420, 114.57L403, 131.57L420, 148.57A8 8 0 0 1 420, 159.88L408.69, 171.19A8 8 0 0 1 397.38, 171.19L380.38, 154.19L346.5, 188.1L391.75, 233.36L420, 205.07A8 8 0 0 1 431.31, 205.07L442.62, 216.38A8 8 0 0 1 442.62, 227.69L414.39, 256L442.68, 284.28A8 8 0 0 1 442.68, 295.6zM278.68, 256L323.94, 301.25L369.14, 256L323.89, 210.74z" fill="#727272" opacity="0.4" fill-opacity="1" class="Black" />
    <path d="M442.68, 284.28L414.39, 256L442.66, 227.69A8 8 0 0 0 442.66, 216.38L431.35, 205.07A8 8 0 0 0 420.04, 205.07L391.75, 233.36L346.5, 188.1L380.44, 154.16L397.44, 171.16A8 8 0 0 0 408.75, 171.16L420, 159.82A8 8 0 0 0 420, 148.51L403, 131.51L420, 114.51A8 8 0 0 0 420, 103.2L408.72, 92A8 8 0 0 0 397.41, 92L380.41, 109L363.41, 92A8 8 0 0 0 352.1, 92L340.79, 103.31A8 8 0 0 0 340.79, 114.62L357.79, 131.62L323.85, 165.56L278.59, 120.31L306.88, 92.02A8 8 0 0 0 306.88, 80.71L295.6, 69.32A8 8 0 0 0 284.29, 69.32L256, 97.61L227.69, 69.34A8 8 0 0 0 216.38, 69.34L205.07, 80.65A8 8 0 0 0 205.07, 91.96L233.36, 120.25L188.1, 165.5L154.16, 131.56L171.16, 114.56A8 8 0 0 0 171.16, 103.25L159.82, 92A8 8 0 0 0 148.51, 92L131.51, 109L114.51, 92A8 8 0 0 0 103.2, 92L92, 103.28A8 8 0 0 0 92, 114.59L109, 131.59L92, 148.59A8 8 0 0 0 92, 159.9L103.31, 171.21A8 8 0 0 0 114.62, 171.21L131.62, 154.21L165.56, 188.15L120.31, 233.41L91.94, 205.09A8 8 0 0 0 80.63, 205.09L69.32, 216.4A8 8 0 0 0 69.32, 227.71L97.61, 256L69.32, 284.29A8 8 0 0 0 69.32, 295.6L80.66, 306.93A8 8 0 0 0 91.97, 306.93L120.26, 278.64L165.51, 323.89L131.57, 357.83L114.57, 340.83A8 8 0 0 0 103.26, 340.83L92, 352.17A8 8 0 0 0 92, 363.48L109, 380.48L92, 397.48A8 8 0 0 0 92, 408.79L103.29, 420A8 8 0 0 0 114.6, 420L131.6, 403L148.6, 420A8 8 0 0 0 159.91, 420L171.22, 408.69A8 8 0 0 0 171.22, 397.38L154.22, 380.38L188.16, 346.44L233.41, 391.7L205.12, 419.99A8 8 0 0 0 205.12, 431.3L216.43, 442.61A8 8 0 0 0 227.74, 442.61L256, 414.39L284.31, 442.66A8 8 0 0 0 295.62, 442.66L306.93, 431.35A8 8 0 0 0 306.93, 420.04L278.64, 391.75L323.9, 346.49L357.84, 380.43L340.84, 397.43A8 8 0 0 0 340.84, 408.74L352.18, 420A8 8 0 0 0 363.49, 420L380.49, 403L397.49, 420A8 8 0 0 0 408.8, 420L420.11, 408.69A8 8 0 0 0 420.11, 397.38L403.11, 380.38L420.11, 363.38A8 8 0 0 0 420.11, 352.07L408.8, 340.76A8 8 0 0 0 397.49, 340.76L380.49, 357.76L346.55, 323.82L391.8, 278.57L420.09, 306.86A8 8 0 0 0 431.4, 306.86L442.71, 295.55A8 8 0 0 0 442.68, 284.28zM256, 142.86L301.25, 188.12L256, 233.37L210.75, 188.11zM188.11, 301.25L142.86, 256L188.12, 210.74L233.37, 256zM256, 369.14L210.75, 323.88L256, 278.63L301.26, 323.88zM323.89, 301.25L278.63, 256L323.89, 210.74L369.14, 256z" fill="#727272" fill-opacity="1" class="Black" />
  </g>
</svg>