<?xml version='1.0' encoding='UTF-8'?>
<svg viewBox="-3.7495 -2 32 32" xmlns="http://www.w3.org/2000/svg">
  <g transform="matrix(0.0547, 0, 0, 0.0547, 0, 0)">
    <defs>
      <style>.fa-secondary{opacity:.4}</style>
    </defs>
    <path d="M176, 256A24 24 0 0 0 200, 232L200, 120A24 24 0 0 0 176, 96L72, 96A24 24 0 0 0 48, 120L48, 232A24 24 0 0 0 72, 256zM376, 96L272, 96A24 24 0 0 0 248, 120L248, 232A24 24 0 0 0 272, 256L376, 256A24 24 0 0 0 400, 232L400, 120A24 24 0 0 0 376, 96zM381, 497.72L318, 448L130, 448L67, 497.72A8 8 0 0 0 72, 512L376, 512A8 8 0 0 0 381, 497.72z" fill="#727272" opacity="0.4" fill-opacity="1" class="Black" />
    <path d="M130, 448L318, 448C386.4, 448 448, 403.81 448, 352L448, 96C448, 43 385, 0 320, 0L128, 0C64, 0 0, 43 0, 96L0, 352C0, 404 61.82, 448 130, 448zM352, 384A48 48 0 1 1 400, 336A48 48 0 0 1 352, 384zM248, 120A24 24 0 0 1 272, 96L376, 96A24 24 0 0 1 400, 120L400, 232A24 24 0 0 1 376, 256L272, 256A24 24 0 0 1 248, 232zM48, 120A24 24 0 0 1 72, 96L176, 96A24 24 0 0 1 200, 120L200, 232A24 24 0 0 1 176, 256L72, 256A24 24 0 0 1 48, 232zM96, 288A48 48 0 1 1 48, 336A48 48 0 0 1 96, 288z" fill="#727272" fill-opacity="1" class="Black" />
  </g>
</svg>