<?xml version='1.0' encoding='UTF-8'?>
<svg viewBox="-5.5003 -2 32 32" xmlns="http://www.w3.org/2000/svg">
  <g transform="matrix(0.0547, 0, 0, 0.0547, 0, 0)">
    <defs>
      <style>.fa-secondary{opacity:.4}</style>
    </defs>
    <path d="M144, 48L240, 48L240, 160L288, 160L288, 48A48 48 0 0 0 240, 0L144, 0A48 48 0 0 0 96, 48L96, 160L144, 160zM64, 496A16 16 0 0 0 80, 512L112, 512A16 16 0 0 0 128, 496L128, 480L64, 480zM256, 496A16 16 0 0 0 272, 512L304, 512A16 16 0 0 0 320, 496L320, 480L256, 480zM312, 256L72, 256A8 8 0 0 0 64, 264L64, 280A8 8 0 0 0 72, 288L312, 288A8 8 0 0 0 320, 280L320, 264A8 8 0 0 0 312, 256zM312, 352L72, 352A8 8 0 0 0 64, 360L64, 376A8 8 0 0 0 72, 384L312, 384A8 8 0 0 0 320, 376L320, 360A8 8 0 0 0 312, 352z" fill="#727272" opacity="0.4" fill-opacity="1" class="Black" />
    <path d="M336, 160L48, 160A48 48 0 0 0 0, 208L0, 432A48 48 0 0 0 48, 480L336, 480A48 48 0 0 0 384, 432L384, 208A48 48 0 0 0 336, 160zM320, 376A8 8 0 0 1 312, 384L72, 384A8 8 0 0 1 64, 376L64, 360A8 8 0 0 1 72, 352L312, 352A8 8 0 0 1 320, 360zM320, 280A8 8 0 0 1 312, 288L72, 288A8 8 0 0 1 64, 280L64, 264A8 8 0 0 1 72, 256L312, 256A8 8 0 0 1 320, 264z" fill="#727272" fill-opacity="1" class="Black" />
  </g>
</svg>