<?xml version='1.0' encoding='UTF-8'?>
<svg viewBox="-2 -3.554 32 32" xmlns="http://www.w3.org/2000/svg">
  <g transform="matrix(0.0486, 0, 0, 0.0486, 0, 0)">
    <defs>
      <style>.fa-secondary{opacity:.4}</style>
    </defs>
    <path d="M250.9, 374.45C230.3, 383 214.6, 398 204.3, 416L371.5, 416C347.7, 374.35 296.4, 355.65 250.9, 374.45zM511.7, 354.35L405.2, 346.75L397.6, 240.25A17.5 17.5 0 0 0 368.7, 228.25L288, 298.25L207.3, 228.25A17.5 17.5 0 0 0 178.4, 240.25L170.8, 346.75L64.3, 354.35A17.5 17.5 0 0 0 52.3, 383.25L80.7, 416L168.3, 416C168.5, 415.5 168.5, 415 168.7, 414.6C196, 348.8 271.6, 317.4 337.4, 344.7A128.68 128.68 0 0 1 407.7, 416L495.3, 416L523.7, 383.3A17.5 17.5 0 0 0 511.7, 354.35z" fill="#727272" opacity="0.4" fill-opacity="1" class="Black" />
    <path d="M560, 464L16, 464A16 16 0 0 0 0, 480L0, 496A16 16 0 0 0 16, 512L560, 512A16 16 0 0 0 576, 496L576, 480A16 16 0 0 0 560, 464zM190.8, 128L256, 128L256, 208A16 16 0 0 0 272, 224L304, 224A16 16 0 0 0 320, 208L320, 128L385.2, 128C399.5, 128 406.6, 110.7 396.4, 100.6L300, 5A17 17 0 0 0 276, 5L179.6, 100.7C169.4, 110.65 176.6, 128 190.8, 128z" fill="#727272" fill-opacity="1" class="Black" />
  </g>
</svg>