<?xml version='1.0' encoding='UTF-8'?>
<svg viewBox="-2 -4.7992 32 32" xmlns="http://www.w3.org/2000/svg">
  <g transform="matrix(0.9988, 0, 0, 0.9988, 0, 0)">
    <g transform="matrix(0.0438, 0, 0, 0.0438, 0, 0)">
      <defs>
        <style>.fa-secondary{opacity:.4}</style>
      </defs>
      <path d="M538, 120L437.68, 98.47A112.22 112.22 0 0 0 349.12, 116.85L269.1, 174A111.54 111.54 0 0 0 242.38, 201L173.75, 299A92 92 0 0 1 189.61, 310.58C193.15, 313.84 204.88, 320 224, 320C243.12, 320 254.86, 313.84 258.39, 310.58C274.39, 295.81 292.89, 288 311.85, 288L328.15, 288C347.15, 288 365.6, 295.81 381.61, 310.58C385.15, 313.84 396.88, 320 416, 320C435.12, 320 446.86, 313.84 450.39, 310.58C465.25, 296.87 482.27, 289.46 499.78, 288.42L386.94, 207.82L404.94, 194.96A16.22 16.22 0 0 1 417.56, 192.35L517.91, 213.88A48 48 0 0 0 538, 120zM112, 96A80 80 0 1 0 192, 176A80 80 0 0 0 112, 96z" fill="#727272" opacity="0.4" fill-opacity="1" class="Black" />
      <path d="M640, 368L640, 400A16 16 0 0 1 624, 416L608, 416C569.38, 416 535.28, 403.82 512, 384.16C488.72, 403.81 454.62, 416 416, 416C377.38, 416 343.28, 403.82 320, 384.16C296.72, 403.81 262.62, 416 224, 416C185.38, 416 151.28, 403.82 128, 384.16C104.72, 403.81 70.62, 416 32, 416L16, 416A16 16 0 0 1 0, 400L0, 368A16 16 0 0 1 16, 352L32, 352C58, 352 77.8, 343.58 88.07, 334.1C96.97, 325.89 107.73, 320 119.84, 320L136.14, 320C148.25, 320 159.01, 325.89 167.91, 334.1C178.2, 343.58 198, 352 224, 352C250, 352 269.8, 343.58 280.07, 334.1C288.97, 325.89 299.73, 320 311.84, 320L328.14, 320C340.25, 320 351.01, 325.89 359.91, 334.1C370.2, 343.58 390, 352 416, 352C442, 352 461.8, 343.58 472.07, 334.1C480.97, 325.89 491.73, 320 503.84, 320L520.14, 320C532.25, 320 543.01, 325.89 551.91, 334.1C562.2, 343.58 582, 352 608, 352L624, 352A16 16 0 0 1 640, 368z" fill="#727272" fill-opacity="1" class="Black" />
    </g>
  </g>
</svg>