<?xml version='1.0' encoding='UTF-8'?>
<svg viewBox="-2 -4.7992 32 32" xmlns="http://www.w3.org/2000/svg">
  <g transform="matrix(0.9988, 0, 0, 0.9988, 0, 0)">
    <g transform="matrix(0.0438, 0, 0, 0.0438, 0, 0)">
      <defs>
        <style>.fa-secondary{opacity:.4}</style>
      </defs>
      <path d="M189.61, 374.57A86.6 86.6 0 0 0 160, 356.5L160, 128A96 96 0 0 1 352, 128L352, 144A16 16 0 0 1 336, 160L304, 160A16 16 0 0 1 288, 144L288, 128A32 32 0 0 0 224, 128L224, 224L416, 224L416, 128A96 96 0 0 1 608, 128L608, 144A16 16 0 0 1 592, 160L560, 160A16 16 0 0 1 544, 144L544, 128A32 32 0 0 0 480, 128L480, 356.51A86.44 86.44 0 0 0 450.39, 374.58C446.86, 377.84 435.12, 384 416, 384L416, 288L224, 288L224, 384C204.88, 384 193.14, 377.84 189.61, 374.57z" fill="#727272" opacity="0.4" fill-opacity="1" class="Black" />
      <path d="M0, 464L0, 432A16 16 0 0 1 16, 416L32, 416C58, 416 77.8, 407.58 88.07, 398.1C96.97, 389.89 107.73, 384 119.84, 384L136.14, 384C148.25, 384 159.01, 389.89 167.91, 398.1C178.2, 407.58 198, 416 224, 416C250, 416 269.8, 407.58 280.07, 398.1C288.97, 389.89 299.73, 384 311.84, 384L328.14, 384C340.25, 384 351.01, 389.89 359.91, 398.1C370.2, 407.58 390, 416 416, 416C442, 416 461.8, 407.58 472.07, 398.1C480.97, 389.89 491.73, 384 503.84, 384L520.14, 384C532.25, 384 543.01, 389.89 551.91, 398.1C562.2, 407.58 582, 416 608, 416L624, 416A16 16 0 0 1 640, 432L640, 464A16 16 0 0 1 624, 480L608, 480C569.38, 480 535.28, 467.82 512, 448.16C488.72, 467.81 454.62, 480 416, 480C377.38, 480 343.28, 467.82 320, 448.16C296.72, 467.81 262.62, 480 224, 480C185.38, 480 151.28, 467.82 128, 448.16C104.72, 467.81 70.62, 480 32, 480L16, 480A16 16 0 0 1 0, 464z" fill="#727272" fill-opacity="1" class="Black" />
    </g>
  </g>
</svg>