<?xml version='1.0' encoding='UTF-8'?>
<svg viewBox="-2 -4.7992 32 32" xmlns="http://www.w3.org/2000/svg">
  <g transform="matrix(0.9988, 0, 0, 0.9988, 0, 0)">
    <g transform="matrix(0.0438, 0, 0, 0.0438, 0, 0)">
      <defs>
        <style>.fa-secondary{opacity:.4}</style>
      </defs>
      <path d="M70, 196.51L6.67, 268.29A26.66 26.66 0 0 0 0, 285.93L0, 512L128, 512L128, 239.58L90, 196.51A13.35 13.35 0 0 0 70, 196.51zM633.33, 268.29L570, 196.51A13.33 13.33 0 0 0 550, 196.51L512, 239.58L512, 512L640, 512L640, 285.93A26.64 26.64 0 0 0 633.33, 268.29z" fill="#727272" opacity="0.4" fill-opacity="1" class="Black" />
      <path d="M468, 109.41L340, 7A32 32 0 0 0 300, 7L172, 109.41A32 32 0 0 0 160, 134.41L160, 512L256, 512L256, 419.43C256, 387.55 277.78, 358 309.25, 352.88A64 64 0 0 1 384, 416L384, 512L480, 512L480, 134.4A32 32 0 0 0 468, 109.41zM392.06, 222.56A4.73 4.73 0 0 1 388.06, 229.8L349.12, 229.8L324, 269.8A4.72 4.72 0 0 1 316, 269.8L290.88, 229.8L251.94, 229.8A4.72 4.72 0 0 1 247.94, 222.56L267.14, 192L247.94, 161.44A4.73 4.73 0 0 1 251.94, 154.2L290.88, 154.2L316, 114.2A4.72 4.72 0 0 1 324, 114.2L349.12, 154.2L388.07, 154.2A4.73 4.73 0 0 1 392.07, 161.44L372.87, 192z" fill="#727272" fill-opacity="1" class="Black" />
    </g>
  </g>
</svg>