<?xml version='1.0' encoding='UTF-8'?>
<svg viewBox="-1.5477 -1.5477 32 32" xmlns="http://www.w3.org/2000/svg">
  <g transform="matrix(0.9991, 0, 0, 0.9991, 0, 0)">
    <g transform="matrix(0.0565, 0, 0, 0.0565, 0, 0)">
      <defs>
        <style>.fa-secondary{opacity:.4}</style>
      </defs>
      <path d="M8, 454.06L8, 320A24 24 0 0 1 32, 296L166.06, 296C187.44, 296 198.15, 321.85 183.06, 337L141.31, 378.75A166.82 166.82 0 0 0 256.16, 424C333.57, 423.93 400.47, 370.86 418.94, 297.15A12 12 0 0 1 430.59, 288L487.9, 288A12 12 0 0 1 499.71, 302.18C478.07, 417.08 377.19, 504 256, 504A247.14 247.14 0 0 1 84.69, 435.31L49, 471C33.85, 486.15 8, 475.44 8, 454.06z" fill="#727272" opacity="0.4" fill-opacity="1" class="Black" />
      <path d="M12.3, 209.82C33.93, 94.92 134.81, 8 256, 8A247.14 247.14 0 0 1 427.31, 76.69L463, 41C478.12, 25.88 504, 36.59 504, 58L504, 192A24 24 0 0 1 480, 216L345.94, 216C324.56, 216 313.85, 190.15 328.94, 175L370.69, 133.25A166.8 166.8 0 0 0 255.85, 88C178.39, 88.07 111.52, 141.18 93.06, 214.85A12 12 0 0 1 81.41, 224L24.1, 224A12 12 0 0 1 12.3, 209.82z" fill="#727272" fill-opacity="1" class="Black" />
    </g>
  </g>
</svg>