<?xml version='1.0' encoding='UTF-8'?>
<svg viewBox="-3.7495 -2 32 32" xmlns="http://www.w3.org/2000/svg">
  <g transform="matrix(0.0547, 0, 0, 0.0547, 0, 0)">
    <defs>
      <style>.fa-secondary{opacity:.4}</style>
    </defs>
    <path d="M400, 0L48, 0A48 48 0 0 0 0, 48L0, 464A48 48 0 0 0 48, 512L400, 512A48 48 0 0 0 448, 464L448, 48A48 48 0 0 0 400, 0zM288, 452A12 12 0 0 1 276, 464L172, 464A12 12 0 0 1 160, 452L160, 444A12 12 0 0 1 172, 432L276, 432A12 12 0 0 1 288, 444zM400, 372A12 12 0 0 1 388, 384L60, 384A12 12 0 0 1 48, 372L48, 60A12 12 0 0 1 60, 48L388, 48A12 12 0 0 1 400, 60z" fill="#727272" opacity="0.4" fill-opacity="1" class="Black" />
    <path d="M48, 60A12 12 0 0 1 60, 48L388, 48A12 12 0 0 1 400, 60L400, 372A12 12 0 0 1 388, 384L60, 384A12 12 0 0 1 48, 372z" fill="#727272" fill-opacity="1" class="Black" />
  </g>
</svg>