<?xml version='1.0' encoding='UTF-8'?>
<svg viewBox="-3.7495 -2 32 32" xmlns="http://www.w3.org/2000/svg">
  <g transform="matrix(0.0547, 0, 0, 0.0547, 0, 0)">
    <defs>
      <style>.fa-secondary{opacity:.4}</style>
    </defs>
    <path d="M439.2, 164.4A15.92 15.92 0 0 0 448, 150.1L448, 73.9A15.92 15.92 0 0 0 439.2, 59.6L416, 48A48 48 0 0 0 368, 0L80, 0A48 48 0 0 0 32, 48L8.8, 59.6A15.92 15.92 0 0 0 0, 73.9L0, 150.1A15.92 15.92 0 0 0 8.8, 164.4L32, 176L32, 192L8.8, 203.6A15.92 15.92 0 0 0 0, 217.9L0, 294.1A15.92 15.92 0 0 0 8.8, 308.4L32, 320L32, 336L8.8, 347.6A15.92 15.92 0 0 0 0, 361.9L0, 438.1A15.92 15.92 0 0 0 8.8, 452.4L32, 464A48 48 0 0 0 80, 512L368, 512A48 48 0 0 0 416, 464L439.2, 452.4A15.92 15.92 0 0 0 448, 438.1L448, 361.9A15.92 15.92 0 0 0 439.2, 347.6L416, 336L416, 320L439.2, 308.4A15.92 15.92 0 0 0 448, 294.1L448, 217.9A15.92 15.92 0 0 0 439.2, 203.6L416, 192L416, 176zM352, 432A16 16 0 0 1 336, 448L112, 448A16 16 0 0 1 96, 432L96, 80A16 16 0 0 1 112, 64L336, 64A16 16 0 0 1 352, 80z" fill="#727272" opacity="0.4" fill-opacity="1" class="Black" />
    <path d="M352, 432A16 16 0 0 1 336, 448L112, 448A16 16 0 0 1 96, 432L96, 80A16 16 0 0 1 112, 64L336, 64A16 16 0 0 1 352, 80z" fill="#727272" fill-opacity="1" class="Black" />
  </g>
</svg>