<?xml version='1.0' encoding='UTF-8'?>
<svg viewBox="-2 -3.554 32 32" xmlns="http://www.w3.org/2000/svg">
  <g transform="matrix(0.0486, 0, 0, 0.0486, 0, 0)">
    <defs>
      <style>.fa-secondary{opacity:.4}</style>
    </defs>
    <path d="M288, 32C128.94, 32 0, 160.94 0, 320A286.5 286.5 0 0 0 39.06, 464.8C44.67, 474.42 55.36, 480 66.5, 480L509.5, 480C520.64, 480 531.33, 474.42 536.94, 464.8A286.5 286.5 0 0 0 576, 320C576, 160.94 447.06, 32 288, 32zM288, 96A32 32 0 1 1 256, 128A32 32 0 0 1 288, 96zM144, 160A32 32 0 1 1 112, 192A32 32 0 0 1 144, 160zM343.12, 416L232.88, 416A65.78 65.78 0 0 1 225.98, 398L92.05, 375.67A24 24 0 0 1 99.95, 328.33L233.63, 350.61A63.77 63.77 0 0 1 343.12, 416zM400, 192A32 32 0 1 1 432, 224A32 32 0 0 1 400, 192zM480, 384A32 32 0 1 1 512, 352A32 32 0 0 1 480, 384z" fill="#727272" opacity="0.4" fill-opacity="1" class="Black" />
    <path d="M72.33, 348.05A24 24 0 0 1 100, 328.33L233.68, 350.61A63.77 63.77 0 0 1 343.12, 416L232.88, 416A65.78 65.78 0 0 1 225.98, 398L92.05, 375.67A24 24 0 0 1 72.33, 348.05z" fill="#727272" fill-opacity="1" class="Black" />
  </g>
</svg>