<?xml version='1.0' encoding='UTF-8'?>
<svg viewBox="-2 -3.554 32 32" xmlns="http://www.w3.org/2000/svg">
  <g transform="matrix(0.0486, 0, 0, 0.0486, 0, 0)">
    <defs>
      <style>.fa-secondary{opacity:.4}</style>
    </defs>
    <path d="M288, 32C128.94, 32 0, 160.94 0, 320A286.5 286.5 0 0 0 39.06, 464.8C44.67, 474.42 55.36, 480 66.5, 480L509.5, 480C520.64, 480 531.33, 474.42 536.94, 464.8A286.5 286.5 0 0 0 576, 320C576, 160.94 447.06, 32 288, 32zM390.77, 151.59L329.44, 335.59A62.8 62.8 0 0 1 343.12, 416L232.88, 416A63.34 63.34 0 0 1 283.88, 320.41L345.22, 136.41A24 24 0 0 1 390.75, 151.6z" fill="#727272" opacity="0.4" fill-opacity="1" class="Black" />
    <path d="M283.9, 320.41L345.24, 136.41A24 24 0 0 1 390.77, 151.6L329.44, 335.6A62.8 62.8 0 0 1 343.12, 416L232.88, 416A63.34 63.34 0 0 1 283.88, 320.41z" fill="#727272" fill-opacity="1" class="Black" />
  </g>
</svg>