<?xml version='1.0' encoding='UTF-8'?>
<svg viewBox="-2 -3.554 32 32" xmlns="http://www.w3.org/2000/svg">
  <g transform="matrix(0.0486, 0, 0, 0.0486, 0, 0)">
    <defs>
      <style>.fa-secondary{opacity:.4}</style>
    </defs>
    <path d="M288, 32C128.94, 32 0, 160.94 0, 320A286.5 286.5 0 0 0 39.06, 464.8C44.67, 474.42 55.36, 480 66.5, 480L509.5, 480C520.64, 480 531.33, 474.42 536.94, 464.8A286.5 286.5 0 0 0 576, 320C576, 160.94 447.06, 32 288, 32zM288, 96A32 32 0 1 1 256, 128A32 32 0 0 1 288, 96zM96, 384A32 32 0 1 1 128, 352A32 32 0 0 1 96, 384zM343.12, 416L232.88, 416A62.26 62.26 0 0 1 233.35, 351.14L124.8, 206.41A24 24 0 0 1 163.21, 177.6L271.77, 322.34A63.5 63.5 0 0 1 343.12, 416zM400, 192A32 32 0 1 1 432, 224A32 32 0 0 1 400, 192zM480, 384A32 32 0 1 1 512, 352A32 32 0 0 1 480, 384z" fill="#727272" opacity="0.4" fill-opacity="1" class="Black" />
    <path d="M343.12, 416L232.88, 416A62.26 62.26 0 0 1 233.35, 351.14L124.8, 206.41A24 24 0 0 1 163.21, 177.6L271.77, 322.34A63.5 63.5 0 0 1 343.12, 416z" fill="#727272" fill-opacity="1" class="Black" />
  </g>
</svg>