<?xml version='1.0' encoding='UTF-8'?>
<svg viewBox="-3.7505 -1.9998 32 31.9975" xmlns="http://www.w3.org/2000/svg">
  <g transform="matrix(0.0547, 0, 0, 0.0547, 0, 0)">
    <defs>
      <style>.fa-secondary{opacity:.4}</style>
    </defs>
    <path d="M32.14, 448C34.43, 432.38 34.6, 400.24 32.67, 384L352, 384C368, 384 384, 396.8 384, 416C384, 435.2 371.2, 448 352, 448z" fill="#727272" opacity="0.4" fill-opacity="1" class="Black" />
    <path d="M224, 87.38L207.22, 115.44L240.8, 115.44zM164.89, 139.44L130, 139.44L147.47, 168.61zM318, 139.44L283.1, 139.44L300.58, 168.63zM130, 244.56L164.9, 244.56L147.42, 215.37zM352, 0L32, 0A32 32 0 0 0 0, 32L0, 360A24 24 0 0 0 24, 384L352, 384C368, 384 384, 396.8 384, 416C384, 435.2 371.2, 448 352, 448L24, 448A24 24 0 0 0 0, 472L0, 488A24 24 0 0 0 24, 512L352, 512A96 96 0 0 0 448, 416L448, 96A96 96 0 0 0 352, 0zM342.59, 258.43A20.12 20.12 0 0 1 325.09, 268.58L268.79, 268.58L241.2, 314.7A20 20 0 0 1 224, 324.52A19.66 19.66 0 0 1 207, 314.84L179.3, 268.56L122.91, 268.56A20 20 0 0 1 105.77, 238.27L133.43, 192L105.64, 145.57A19.6 19.6 0 0 1 105.41, 125.57A20.12 20.12 0 0 1 122.91, 115.42L179.21, 115.42L206.8, 69.3A20 20 0 0 1 224.05, 59.48A19.67 19.67 0 0 1 241.05, 69.16L268.75, 115.44L325.11, 115.44A20 20 0 0 1 342.25, 145.73L314.57, 192L342.36, 238.43A19.59 19.59 0 0 1 342.59, 258.43zM224.05, 296.63L240.83, 268.56L207.25, 268.56zM283.14, 244.56L318.05, 244.56L300.58, 215.39zM255.14, 139.42L192.84, 139.42L161.41, 192L192.88, 244.56L255.18, 244.56L286.59, 192z" fill="#727272" fill-opacity="1" class="Black" />
  </g>
</svg>