<?xml version='1.0' encoding='UTF-8'?>
<svg viewBox="-1.9999 -1.9974 32 31.9975" xmlns="http://www.w3.org/2000/svg">
  <g transform="matrix(0.0547, 0, 0, 0.0547, 0, 0)">
    <defs>
      <style>.fa-secondary{opacity:.4}</style>
    </defs>
    <path d="M488.12, 352L23.94, 352A23.94 23.94 0 0 0 0, 375.88L0, 456A23.94 23.94 0 0 0 23.88, 480L488.06, 480A23.94 23.94 0 0 0 512, 456.12L512, 376A23.94 23.94 0 0 0 488.12, 352zM464, 432L48, 432L48, 400L464, 400zM488.12, 192L23.94, 192A23.94 23.94 0 0 0 0, 215.88L0, 296A23.94 23.94 0 0 0 23.88, 320L488.06, 320A23.94 23.94 0 0 0 512, 296.12L512, 216A23.94 23.94 0 0 0 488.12, 192zM464, 272L48, 272L48, 240L464, 240zM488.12, 32L23.94, 32A23.94 23.94 0 0 0 0, 55.88L0, 136A23.94 23.94 0 0 0 23.88, 160L488.06, 160A23.94 23.94 0 0 0 512, 136.12L512, 56A23.94 23.94 0 0 0 488.12, 32zM464, 112L48, 112L48, 80L464, 80z" fill="#727272" opacity="0.4" fill-opacity="1" class="Black" />
    <path d="M48, 80L48, 112L352, 112L352, 80zM160, 240L48, 240L48, 272L160, 272zM48, 432L288, 432L288, 400L48, 400z" fill="#727272" fill-opacity="1" class="Black" />
  </g>
</svg>