<?xml version='1.0' encoding='UTF-8'?>
<svg viewBox="-2 -1.9988 32 32" xmlns="http://www.w3.org/2000/svg">
  <g transform="matrix(0.0547, 0, 0, 0.0547, 0, 0)">
    <defs>
      <style>.fa-secondary{opacity:.4}</style>
    </defs>
    <path d="M352, 64A32 32 0 0 0 320, 32L192, 32A32 32 0 0 0 160, 64L160, 96L352, 96zM96, 368L64, 368A32 32 0 0 0 32, 400L32, 448A32 32 0 0 0 64, 480L96, 480A32 32 0 0 0 128, 448L128, 400A32 32 0 0 0 96, 368zM448, 368L416, 368A32 32 0 0 0 384, 400L384, 448A32 32 0 0 0 416, 480L448, 480A32 32 0 0 0 480, 448L480, 400A32 32 0 0 0 448, 368zM378.06, 172.86C376.06, 165.48 368.68, 160 363.21, 160L148.81, 160C143.34, 160 135.98, 165.48 133.75, 173.64L116.55, 240L395.45, 240z" fill="#727272" opacity="0.4" fill-opacity="1" class="Black" />
    <path d="M462, 241.55L440, 156.8C430.4, 121.6 398.4, 96 363.2, 96L148.8, 96C113.6, 96 81.6, 121.6 72, 156.8L50, 241.55A64 64 0 0 0 0, 304L0, 352A64 64 0 0 0 64, 416L448, 416A64 64 0 0 0 512, 352L512, 304A64 64 0 0 0 462, 241.55zM133.75, 173.64C136, 165.48 143.34, 160 148.81, 160L363.21, 160C368.68, 160 376.04, 165.48 378.06, 172.86L395.45, 240L116.55, 240zM96, 352A32 32 0 1 1 128, 320A32 32 0 0 1 96, 352zM416, 352A32 32 0 1 1 448, 320A32 32 0 0 1 416, 352z" fill="#727272" fill-opacity="1" class="Black" />
  </g>
</svg>