<?xml version='1.0' encoding='UTF-8'?>
<svg viewBox="-1.9948 -4.7991 31.995 32" xmlns="http://www.w3.org/2000/svg">
  <g transform="matrix(0.9989, 0, 0, 0.9989, 0, 0)">
    <g transform="matrix(0.0438, 0, 0, 0.0438, 0, 0)">
      <defs>
        <style>.fa-secondary{opacity:.4}</style>
      </defs>
      <path d="M608, 278.5L608, 112C608, 50.1 557.9, 0 496, 0C434.1, 0 384, 50.1 384, 112L384, 278.5C364.3, 303.1 352, 334 352, 368C352, 447.5 416.5, 512 496, 512C575.5, 512 640, 447.5 640, 368C640, 334 627.7, 303.1 608, 278.5zM496, 448C451.9, 448.1 416.1, 412.4 416, 368.3C416, 343.1 427.8, 319.4 448, 304.2L448, 112C448, 85.5 469.5, 64 496, 64C522.5, 64 544, 85.5 544, 112L544, 304.2C579.3, 330.6 586.5, 380.7 560.1, 416C544.9, 436.2 521.2, 448 496, 448z" fill="#727272" opacity="0.4" fill-opacity="1" class="Black" />
      <path d="M160, 224C160, 259.3 188.7, 288 224, 288C259.3, 288 288, 259.3 288, 224C288, 188.7 259.3, 160 224, 160C188.7, 160 160, 188.7 160, 224zM237.6, 8.4C233.8, 0.9 224.7, -2.2 217.2, 1.6C214.3, 3.1 211.9, 5.5 210.4, 8.4L169, 91.2L81.1, 61.9C73.1, 59.3 64.5, 63.7 61.9, 71.7C60.9, 74.8 60.9, 78.1 61.9, 81.1L91.2, 169L8.4, 210.4C0.9, 214.1 -2.1, 223.2 1.6, 230.7C3.1, 233.7 5.5, 236.1 8.4, 237.5L91.2, 279L61.9, 366.9C59.2, 374.8 63.5, 383.4 71.5, 386.1C74.6, 387.1 78, 387.1 81.1, 386.1L169, 356.8L210.4, 439.6C214.1, 447.1 223.2, 450.1 230.7, 446.4C233.7, 444.9 236.1, 442.5 237.5, 439.6L278.9, 356.7L320, 370.4C320, 369.6 319.9, 368.8 319.9, 367.9C320, 332 331.2, 297.1 352, 267.9L352, 112C352, 95.1 355.5, 79 360.9, 63.9L279, 91.2L237.6, 8.4zM291.9, 291.9C254.4, 329.3 193.6, 329.3 156.1, 291.9C118.6, 254.5 118.7, 193.5 156.1, 156.1C193.6, 118.6 254.4, 118.6 291.9, 156.1C329.4, 193.6 329.4, 254.4 291.9, 291.9zM512, 322.9L512, 112C512, 103.2 504.8, 96 496, 96C487.2, 96 480, 103.2 480, 112L480, 322.9C455, 331.7 441.9, 359.2 450.7, 384.2C459.5, 409.2 487, 422.3 512, 413.5C537, 404.7 550.1, 377.2 541.3, 352.2C536.4, 338.5 525.7, 327.7 512, 322.9z" fill="#727272" fill-opacity="1" class="Black" />
    </g>
  </g>
</svg>