<?xml version='1.0' encoding='UTF-8'?>
<svg viewBox="-1.9999 -1.549 31.9975 32" xmlns="http://www.w3.org/2000/svg">
  <g transform="matrix(0.999, 0, 0, 0.999, 0, 0)">
    <g transform="matrix(0.0565, 0, 0, 0.0565, 0, 0)">
      <defs>
        <style>.fa-secondary{opacity:.4}</style>
      </defs>
      <path d="M267, 77.5C266.41, 58.24 270, 13.91 319.93, 18.61A247.88 247.88 0 0 0 248, 8C244.39, 8 240.81, 8.09 237.24, 8.25C224.55, 26.92 218.1, 51.32 219, 79.1C221.2, 150.3 150, 228.8 71.1, 226.9C43.22, 225.71 18.92, 232.35 0.25, 245.14C0.1, 248.74 0, 252.36 0, 256A248.12 248.12 0 0 0 10.72, 328.31C5.7, 278 50.22, 274.51 69.6, 275C117, 276.8 171.2, 253.5 208.3, 216.2C245.4, 179.1 268.5, 124.6 267, 77.5zM485.26, 183.63C490.26, 233.86 445.61, 237.3 426.4, 236.9C379.6, 235 324.9, 258.5 287.7, 295.7C250.5, 332.9 227.5, 387.3 229, 434.4C229.59, 453.79 225.87, 498.12 175.66, 493.27A248 248 0 0 0 248, 504C251.57, 504 255.12, 503.91 258.66, 503.76C271.45, 485.09 277.9, 460.68 277, 432.9C274.6, 355.4 353.4, 282.4 424.9, 285C452.73, 285.9 477.17, 279.43 495.76, 266.69C495.91, 263.15 496, 259.58 496, 256A247.87 247.87 0 0 0 485.26, 183.63z" fill="#727272" opacity="0.4" fill-opacity="1" class="Black" />
      <path d="M424.9, 285C353.4, 282.4 274.6, 355.4 277, 432.9C277.9, 460.8 271.4, 485.3 258.5, 504C379.5, 498.9 490.1, 403.9 495.9, 266.6C477.3, 279.4 452.8, 285.9 424.9, 285zM71.1, 226.9C150, 228.8 221.2, 150.3 219, 79.1C218.1, 51.2 224.6, 26.7 237.4, 8C113.8, 13.2 5.8, 110.6 0, 245.3C18.7, 232.4 43.1, 225.7 71.1, 226.9zM287.7, 295.7C324.9, 258.5 379.6, 235 426.4, 236.9C445.8, 237.3 491.2, 233.8 485.1, 182.1A248.21 248.21 0 0 0 321.8, 18.8C270.1, 12.8 266.4, 58 267, 77.5C268.5, 124.6 245.4, 179.1 208.3, 216.2C171.2, 253.5 117, 276.8 69.6, 275C50, 274.5 4.7, 278.1 10.9, 330A247.64 247.64 0 0 0 174, 493.1C225.8, 499.1 229.6, 454 229, 434.4C227.5, 387.3 250.6, 332.8 287.7, 295.7z" fill="#727272" fill-opacity="1" class="Black" />
    </g>
  </g>
</svg>