<?xml version='1.0' encoding='UTF-8'?>
<svg viewBox="-2 0 32 32" xmlns="http://www.w3.org/2000/svg">
  <g transform="matrix(0.0625, 0, 0, 0.0625, 0, 0)">
    <defs>
      <style>.fa-secondary{opacity:.4}</style>
    </defs>
    <path d="M448, 48L448, 128A16 16 0 0 1 432, 144L400, 144A16 16 0 0 1 384, 128L384, 112L264, 112L264, 224L288, 224A16 16 0 0 1 304, 240L304, 272A16 16 0 0 1 288, 288L160, 288A16 16 0 0 1 144, 272L144, 240A16 16 0 0 1 160, 224L184, 224L184, 112L64, 112L64, 128A16 16 0 0 1 48, 144L16, 144A16 16 0 0 1 0, 128L0, 48A16 16 0 0 1 16, 32L432, 32A16 16 0 0 1 448, 48z" fill="#727272" opacity="0.4" fill-opacity="1" class="Black" />
    <path d="M443.31, 372.69A16 16 0 0 1 443.31, 395.31L363.31, 475.31C353.31, 485.31 336, 478.31 336, 464L336, 416L112, 416L112, 464C112, 479.64 94, 484.64 84.69, 475.31L4.69, 395.31A16 16 0 0 1 4.69, 372.69L84.69, 292.69C94.69, 282.69 112, 289.69 112, 304L112, 352L336, 352L336, 304C336, 288.36 354, 283.36 363.31, 292.69z" fill="#727272" fill-opacity="1" class="Black" />
  </g>
</svg>