<?xml version='1.0' encoding='UTF-8'?>
<svg viewBox="-2 -4.7992 32 32" xmlns="http://www.w3.org/2000/svg">
  <g transform="matrix(0.9988, 0, 0, 0.9988, 0, 0)">
    <g transform="matrix(0.0438, 0, 0, 0.0438, 0, 0)">
      <defs>
        <style>.fa-secondary{opacity:.4}</style>
      </defs>
      <path d="M320, 240L320, 304A16 16 0 0 1 304, 320L272, 320A16 16 0 0 1 256, 304L256, 288L200, 288L200, 416L224, 416A16 16 0 0 1 240, 432L240, 464A16 16 0 0 1 224, 480L96, 480A16 16 0 0 1 80, 464L80, 432A16 16 0 0 1 96, 416L120, 416L120, 288L64, 288L64, 304A16 16 0 0 1 48, 320L16, 320A16 16 0 0 1 0, 304L0, 240A16 16 0 0 1 16, 224L304, 224A16 16 0 0 1 320, 240z" fill="#727272" opacity="0.4" fill-opacity="1" class="Black" />
      <path d="M640, 48L640, 144A16 16 0 0 1 624, 160L592, 160A16 16 0 0 1 576, 144L576, 112L488, 112L488, 416L528, 416A16 16 0 0 1 544, 432L544, 464A16 16 0 0 1 528, 480L368, 480A16 16 0 0 1 352, 464L352, 432A16 16 0 0 1 368, 416L408, 416L408, 112L320, 112L320, 144A16 16 0 0 1 304, 160L272, 160A16 16 0 0 1 256, 144L256, 48A16 16 0 0 1 272, 32L624, 32A16 16 0 0 1 640, 48z" fill="#727272" fill-opacity="1" class="Black" />
    </g>
  </g>
</svg>