<?xml version='1.0' encoding='UTF-8'?>
<svg viewBox="-1.9999 -1.9974 32 31.9975" xmlns="http://www.w3.org/2000/svg">
  <g transform="matrix(0.0547, 0, 0, 0.0547, 0, 0)">
    <defs>
      <style>.fa-secondary{opacity:.4}</style>
    </defs>
    <path d="M488, 272L296, 272A24 24 0 0 0 272, 296L272, 456A24 24 0 0 0 296, 480L488, 480A24 24 0 0 0 512, 456L512, 296A24 24 0 0 0 488, 272zM216, 272L24, 272A24 24 0 0 0 0, 296L0, 456A24 24 0 0 0 24, 480L216, 480A24 24 0 0 0 240, 456L240, 296A24 24 0 0 0 216, 272z" fill="#727272" opacity="0.4" fill-opacity="1" class="Black" />
    <path d="M488, 32L296, 32A24 24 0 0 0 272, 56L272, 216A24 24 0 0 0 296, 240L488, 240A24 24 0 0 0 512, 216L512, 56A24 24 0 0 0 488, 32zM216, 32L24, 32A24 24 0 0 0 0, 56L0, 216A24 24 0 0 0 24, 240L216, 240A24 24 0 0 0 240, 216L240, 56A24 24 0 0 0 216, 32z" fill="#727272" fill-opacity="1" class="Black" />
  </g>
</svg>