<?xml version='1.0' encoding='UTF-8'?>
<svg viewBox="-1.9999 -1.9974 32 31.9975" xmlns="http://www.w3.org/2000/svg">
  <g transform="matrix(0.0547, 0, 0, 0.0547, 0, 0)">
    <defs>
      <style>.fa-secondary{opacity:.4}</style>
    </defs>
    <path d="M306.67, 352L205.33, 352A24 24 0 0 0 181.33, 376L181.33, 456A24 24 0 0 0 205.33, 480L306.67, 480A24 24 0 0 0 330.67, 456L330.67, 376A24 24 0 0 0 306.67, 352zM488, 192L386.67, 192A24 24 0 0 0 362.67, 216L362.67, 296A24 24 0 0 0 386.67, 320L488, 320A24 24 0 0 0 512, 296L512, 216A24 24 0 0 0 488, 192zM306.67, 32L205.33, 32A24 24 0 0 0 181.33, 56L181.33, 136A24 24 0 0 0 205.33, 160L306.67, 160A24 24 0 0 0 330.67, 136L330.67, 56A24 24 0 0 0 306.67, 32zM125.33, 192L24, 192A24 24 0 0 0 0, 216L0, 296A24 24 0 0 0 24, 320L125.33, 320A24 24 0 0 0 149.33, 296L149.33, 216A24 24 0 0 0 125.33, 192z" fill="#727272" opacity="0.4" fill-opacity="1" class="Black" />
    <path d="M488, 352L386.67, 352A24 24 0 0 0 362.67, 376L362.67, 456A24 24 0 0 0 386.67, 480L488, 480A24 24 0 0 0 512, 456L512, 376A24 24 0 0 0 488, 352zM306.67, 192L205.33, 192A24 24 0 0 0 181.33, 216L181.33, 296A24 24 0 0 0 205.33, 320L306.67, 320A24 24 0 0 0 330.67, 296L330.67, 216A24 24 0 0 0 306.67, 192zM488, 32L386.67, 32A24 24 0 0 0 362.67, 56L362.67, 136A24 24 0 0 0 386.67, 160L488, 160A24 24 0 0 0 512, 136L512, 56A24 24 0 0 0 488, 32zM125.33, 32L24, 32A24 24 0 0 0 0, 56L0, 136A24 24 0 0 0 24, 160L125.33, 160A24 24 0 0 0 149.33, 136L149.33, 56A24 24 0 0 0 125.33, 32zM125.33, 352L24, 352A24 24 0 0 0 0, 376L0, 456A24 24 0 0 0 24, 480L125.33, 480A24 24 0 0 0 149.33, 456L149.33, 376A24 24 0 0 0 125.33, 352z" fill="#727272" fill-opacity="1" class="Black" />
  </g>
</svg>