<?xml version='1.0' encoding='UTF-8'?>
<svg viewBox="-1.9677 -2.0014 32 32" xmlns="http://www.w3.org/2000/svg">
  <g transform="matrix(1.0007, 0, 0, 1.0007, 0, 0)">
    <g transform="matrix(0.0547, 0, 0, 0.0547, 0, 0)">
      <defs>
        <style>.fa-secondary{opacity:.4}</style>
      </defs>
      <path d="M484.05, 162.6L229.85, 415.9L130, 415.9L41, 504.9A24 24 0 0 1 7.05, 471L96.05, 382L96.05, 281.1L141.39, 235.46L191.45, 285.6A8 8 0 0 0 202.75, 285.6L214.05, 274.3A8 8 0 0 0 214.05, 263L163.92, 212.79L209.05, 167.37L259.35, 217.6A8 8 0 0 0 270.65, 217.6L282, 206.3A8 8 0 0 0 282, 195L231.7, 144.63L276.8, 99.23L327.2, 149.7A8 8 0 0 0 338.5, 149.7L349.8, 138.4A8 8 0 0 0 349.8, 127.1L299.3, 76.59L345, 30.59C381.4, -5.91 439.4, -10.31 476.9, 20.39C526.25, 61.1 519, 127.7 484.05, 162.6z" fill="#727272" opacity="0.4" fill-opacity="1" class="Black" />
      <path d="M214.05, 263A8 8 0 0 1 214.05, 274.3L202.75, 285.6A8 8 0 0 1 191.45, 285.6L141.39, 235.46L163.92, 212.79zM276.75, 99.23L327.15, 149.7A8 8 0 0 0 338.45, 149.7L349.75, 138.4A8 8 0 0 0 349.75, 127.1L299.25, 76.59zM270.65, 217.6L282, 206.3A8 8 0 0 0 282, 195L231.7, 144.63L209.1, 167.37L259.4, 217.6A8 8 0 0 0 270.65, 217.6z" fill="#727272" fill-opacity="1" class="Black" />
    </g>
  </g>
</svg>