<?xml version='1.0' encoding='UTF-8'?>
<svg viewBox="-5.1609 -1.5477 32 32" xmlns="http://www.w3.org/2000/svg">
  <g transform="matrix(0.9991, 0, 0, 0.9991, 0, 0)">
    <g transform="matrix(0.0565, 0, 0, 0.0565, 0, 0)">
      <defs>
        <style>.fa-secondary{opacity:.4}</style>
      </defs>
      <path d="M288, 256A229.75 229.75 0 0 1 283.08, 304L100.92, 304A236.61 236.61 0 0 1 100.92, 208L283.08, 208A229.75 229.75 0 0 1 288, 256z" fill="#727272" opacity="0.4" fill-opacity="1" class="Black" />
      <path d="M192, 104C219.82, 104 240.24, 122.83 252.46, 138.62C263.13, 152.4 271.64, 169.02 277.76, 188.02A221.26 221.26 0 0 1 288, 256A221.26 221.26 0 0 1 277.76, 324C271.64, 343 263.13, 359.62 252.46, 373.4C240.24, 389.17 219.82, 408 192, 408C164.18, 408 143.76, 389.17 131.54, 373.38C120.87, 359.6 112.36, 342.98 106.24, 323.98A221.26 221.26 0 0 1 96, 256A221.26 221.26 0 0 1 106.24, 188C112.36, 169 120.87, 152.38 131.54, 138.6C143.76, 122.83 164.18, 104 192, 104M192, 8C84.34, 8 0, 116.94 0, 256C0, 395.06 84.34, 504 192, 504C299.66, 504 384, 395.06 384, 256C384, 116.94 299.66, 8 192, 8z" fill="#727272" fill-opacity="1" class="Black" />
    </g>
  </g>
</svg>