<?xml version='1.0' encoding='UTF-8'?>
<svg viewBox="-1.9999 -1.9999 32 32" xmlns="http://www.w3.org/2000/svg">
  <g transform="matrix(0.0547, 0, 0, 0.0547, 0, 0)">
    <defs>
      <style>.fa-secondary{opacity:.4}</style>
    </defs>
    <path d="M163.56, 229.81C203.17, 190.66 220.21, 149.22 252.68, 116.7C267.48, 101.86 272.86, 79.46 278.07, 57.79C282.52, 39.29 291.82, 0 312, 0C336, 0 384, 8 384, 81.45C384, 123.87 358, 147.66 350.72, 176L452.45, 176C485.84, 176 511.84, 203.75 512, 234.1C512.08, 252.04 504.45, 271.35 492.56, 283.29L492.45, 283.41C502.29, 306.74 500.69, 339.41 483.14, 362.87C491.82, 388.77 483.07, 420.58 466.76, 437.63C471.06, 455.23 469, 470.21 460.61, 482.26C440.2, 511.59 389.62, 512 346.84, 512L344, 512C295.72, 512 256.2, 494.4 224.44, 480.27C208.44, 473.18 187.62, 464.39 171.79, 464.1A12 12 0 0 1 160.01, 452.1L160.01, 238.33A12 12 0 0 1 163.56, 229.81z" fill="#727272" opacity="0.4" fill-opacity="1" class="Black" />
    <path d="M104, 224L24, 224A24 24 0 0 0 0, 248L0, 488A24 24 0 0 0 24, 512L104, 512A24 24 0 0 0 128, 488L128, 248A24 24 0 0 0 104, 224zM64, 472A24 24 0 1 1 88, 448A24 24 0 0 1 64, 472z" fill="#727272" fill-opacity="1" class="Black" />
  </g>
</svg>