<?xml version='1.0' encoding='UTF-8'?>
<svg viewBox="-1.9948 -3.5492 32 31.9975" xmlns="http://www.w3.org/2000/svg">
  <g transform="matrix(0.0486, 0, 0, 0.0486, 0, 0)">
    <defs>
      <style>.fa-secondary{opacity:.4}</style>
    </defs>
    <path d="M567.94, 223.8C497.54, 237.1 432.94, 183.5 432.94, 113A112.62 112.62 0 0 1 490.44, 14.9A6.74 6.74 0 0 0 488.34, 2.4A146.75 146.75 0 0 0 461.84, 0C383.93, 0 320.73, 61.2 317.43, 137.9A111.46 111.46 0 0 1 376.33, 199.6A111.82 111.82 0 0 1 446.54, 286.4C451.64, 286.9 456.54, 287.9 461.74, 287.9A145 145 0 0 0 574.34, 234.6C578.54, 229.8 574.14, 222.6 567.94, 223.8zM276, 336L218.32, 336L235.62, 271.1A12 12 0 0 0 224, 256L156, 256A12.06 12.06 0 0 0 144.1, 266.4L128.1, 386.4A12 12 0 0 0 140, 400L199.3, 400L176.3, 497.2A12 12 0 0 0 198.4, 506L286.4, 354A12 12 0 0 0 276, 336z" fill="#727272" opacity="0.4" fill-opacity="1" class="Black" />
    <path d="M350.58, 225.5A79.91 79.91 0 0 1 336, 384L306, 384L314.11, 370A44 44 0 0 0 276, 304L260, 304L266.6, 279.3A44 44 0 0 0 224.05, 224L156, 224A44.26 44.26 0 0 0 112.29, 262.2L96.29, 382.2A10.82 10.82 0 0 1 96.29, 384L80, 384A80 80 0 0 1 64.2, 225.6C64.2, 225.1 64, 224.5 64, 224A95.85 95.85 0 0 1 237.74, 168A79 79 0 0 1 272.05, 160A80 80 0 0 1 350.56, 225.5z" fill="#727272" fill-opacity="1" class="Black" />
  </g>
</svg>