<?xml version='1.0' encoding='UTF-8'?>
<svg viewBox="-2 -3.554 32 32" xmlns="http://www.w3.org/2000/svg">
  <g transform="matrix(0.0486, 0, 0, 0.0486, 0, 0)">
    <defs>
      <style>.fa-secondary{opacity:.4}</style>
    </defs>
    <path d="M576, 208L576, 112A48 48 0 0 0 528, 64L48, 64A48 48 0 0 0 0, 112L0, 208A48 48 0 0 1 0, 304L0, 400A48 48 0 0 0 48, 448L528, 448A48 48 0 0 0 576, 400L576, 304A48 48 0 0 1 576, 208zM400, 400A16 16 0 1 1 416, 384A16 16 0 0 1 400, 400zM400, 336A16 16 0 1 1 416, 320A16 16 0 0 1 400, 336zM400, 272A16 16 0 1 1 416, 256A16 16 0 0 1 400, 272zM400, 208A16 16 0 1 1 416, 192A16 16 0 0 1 400, 208zM400, 144A16 16 0 1 1 416, 128A16 16 0 0 1 400, 144z" fill="#727272" opacity="0.4" fill-opacity="1" class="Black" />
    <path d="M400, 304A16 16 0 1 0 416, 320A16 16 0 0 0 400, 304zM400, 368A16 16 0 1 0 416, 384A16 16 0 0 0 400, 368zM400, 144A16 16 0 1 0 384, 128A16 16 0 0 0 400, 144zM400, 240A16 16 0 1 0 416, 256A16 16 0 0 0 400, 240zM400, 176A16 16 0 1 0 416, 192A16 16 0 0 0 400, 176z" fill="#727272" fill-opacity="1" class="Black" />
  </g>
</svg>