<?xml version='1.0' encoding='UTF-8'?>
<svg viewBox="-2 -3.554 32 32" xmlns="http://www.w3.org/2000/svg">
  <g transform="matrix(0.0486, 0, 0, 0.0486, 0, 0)">
    <defs>
      <style>.fa-secondary{opacity:.4}</style>
    </defs>
    <path d="M576, 208L576, 112A48 48 0 0 0 528, 64L48, 64A48 48 0 0 0 0, 112L0, 208A48 48 0 0 1 0, 304L0, 400A48 48 0 0 0 48, 448L528, 448A48 48 0 0 0 576, 400L576, 304A48 48 0 0 1 576, 208zM480, 384L96, 384L96, 128L480, 128z" fill="#727272" opacity="0.4" fill-opacity="1" class="Black" />
    <path d="M480, 128L480, 384L96, 384L96, 128z" fill="#727272" fill-opacity="1" class="Black" />
  </g>
</svg>