<?xml version='1.0' encoding='UTF-8'?>
<svg viewBox="-1.1756 -2.8232 32 32" xmlns="http://www.w3.org/2000/svg">
  <g transform="matrix(0.9994, 0, 0, 0.9994, 0, 0)">
    <g transform="matrix(0.0515, 0, 0, 0.0515, 0, 0)">
      <defs>
        <style>.fa-secondary{opacity:.4}</style>
      </defs>
      <path d="M553.49, 231.8L441.49, 39.8A48.14 48.14 0 0 0 400, 16L176, 16A48.07 48.07 0 0 0 134.51, 39.8L22.51, 231.8A48.09 48.09 0 0 0 22.51, 280.2L134.51, 472.2A48.07 48.07 0 0 0 176, 496L400, 496A48.13 48.13 0 0 0 441.5, 472.2L553.5, 280.2A48.14 48.14 0 0 0 553.5, 231.8zM409.6, 321A12 12 0 0 1 409.6, 338L370.22, 377.8A12 12 0 0 1 353.22, 377.8L288.12, 312.7L223, 377.8A12 12 0 0 1 206, 377.8L166.4, 338.2A12 12 0 0 1 166.4, 321.2L231.49, 256.1L166.44, 191A12 12 0 0 1 166.44, 174L205.94, 134.3A12 12 0 0 1 222.94, 134.3L288, 199.4L353, 134.4A12 12 0 0 1 370, 134.4L409.69, 173.9A12 12 0 0 1 409.69, 190.9L344.61, 256z" fill="#727272" opacity="0.4" fill-opacity="1" class="Black" />
      <path d="M409.6, 321A12 12 0 0 1 409.6, 338L370.22, 377.8A12 12 0 0 1 353.22, 377.8L288.12, 312.7L223, 377.8A12 12 0 0 1 206, 377.8L166.4, 338.2A12 12 0 0 1 166.4, 321.2L231.49, 256.1L166.44, 191A12 12 0 0 1 166.44, 174L205.94, 134.3A12 12 0 0 1 222.94, 134.3L288, 199.4L353, 134.4A12 12 0 0 1 370, 134.4L409.69, 173.9A12 12 0 0 1 409.69, 190.9L344.61, 256z" fill="#727272" fill-opacity="1" class="Black" />
    </g>
  </g>
</svg>