<?xml version='1.0' encoding='UTF-8'?>
<svg viewBox="-1.9988 4.3659 32 31.9975" xmlns="http://www.w3.org/2000/svg">
  <g transform="matrix(0.0795, 0, 0, 0.0795, 0, 0)">
    <defs>
      <style>.fa-secondary{opacity:.4}</style>
    </defs>
    <path d="M9.21, 356.07A31.46 31.46 0 0 0 9.21, 400.55L31.45, 422.79A31.46 31.46 0 0 0 75.93, 422.79L176, 322.72L109.28, 256zM342.79, 111.45L320.55, 89.21A31.46 31.46 0 0 0 276.07, 89.21L176, 189.28L242.72, 256L342.79, 155.93A31.46 31.46 0 0 0 342.79, 111.45z" fill="#727272" opacity="0.4" fill-opacity="1" class="Black" />
    <path d="M342.79, 356.07A31.46 31.46 0 0 1 342.79, 400.55L320.55, 422.79A31.46 31.46 0 0 1 276.07, 422.79L9.21, 155.93A31.46 31.46 0 0 1 9.21, 111.45L31.45, 89.21A31.46 31.46 0 0 1 75.93, 89.21z" fill="#727272" fill-opacity="1" class="Black" />
  </g>
</svg>