<?xml version='1.0' encoding='UTF-8'?>
<svg viewBox="-2 -2 32 32" xmlns="http://www.w3.org/2000/svg">
  <g transform="matrix(0.0547, 0, 0, 0.0547, 0, 0)">
    <defs>
      <style>.fa-secondary{opacity:.4}</style>
    </defs>
    <path d="M497.9, 150.5L361.4, 14.1A48 48 0 0 0 327.5, 0L184.4, 0A48 48 0 0 0 150.5, 14.1L14.1, 150.6A48 48 0 0 0 0, 184.5L0, 327.6A48 48 0 0 0 14.1, 361.5L150.6, 497.9A48 48 0 0 0 184.5, 512L327.6, 512A48 48 0 0 0 361.5, 497.9L497.9, 361.4A48 48 0 0 0 512, 327.5L512, 184.4A48 48 0 0 0 497.9, 150.5zM377.6, 321A12 12 0 0 1 377.6, 338L338.2, 377.8A12 12 0 0 1 321.2, 377.8L256.1, 312.7L191, 377.8A12 12 0 0 1 174, 377.8L134.4, 338.2A12 12 0 0 1 134.4, 321.2L199.5, 256.1L134.4, 191A12 12 0 0 1 134.4, 174L173.9, 134.3A12 12 0 0 1 190.9, 134.3L256, 199.4L321, 134.4A12 12 0 0 1 338, 134.4L377.7, 173.9A12 12 0 0 1 377.7, 190.9L312.6, 256z" fill="#727272" opacity="0.4" fill-opacity="1" class="Black" />
    <path d="M134.4, 191A12 12 0 0 1 134.4, 174L173.9, 134.3A12 12 0 0 1 190.9, 134.3L256, 199.4L321, 134.4A12 12 0 0 1 338, 134.4L377.7, 173.9A12 12 0 0 1 377.7, 190.9L312.6, 256L377.6, 321A12 12 0 0 1 377.6, 338L338.2, 377.8A12 12 0 0 1 321.2, 377.8L256.1, 312.7L191, 377.8A12 12 0 0 1 174, 377.8L134.4, 338.2A12 12 0 0 1 134.4, 321.2L199.5, 256.1z" fill="#727272" fill-opacity="1" class="Black" />
  </g>
</svg>