<?xml version='1.0' encoding='UTF-8'?>
<svg viewBox="-6.3743 -1.9975 32 32" xmlns="http://www.w3.org/2000/svg">
  <g transform="matrix(0.0547, 0, 0, 0.0547, 0, 0)">
    <defs>
      <style>.fa-secondary{opacity:.4}</style>
    </defs>
    <path d="M205.22, 22.09C197.28, -6.69 155.78, -8.03 146.78, 22.09C100, 179.85 0, 222.72 0, 333.91C0, 432.35 78.72, 512 176, 512C273.28, 512 352, 432.35 352, 333.91C352, 222.16 252.21, 180.57 205.22, 22.09zM176, 448A112.14 112.14 0 0 1 64, 336A16 16 0 0 1 96, 336A80.09 80.09 0 0 0 176, 416A16 16 0 0 1 176, 448z" fill="#727272" opacity="0.4" fill-opacity="1" class="Black" />
    <path d="M176, 448A112.14 112.14 0 0 1 64, 336A16 16 0 0 1 96, 336A80.09 80.09 0 0 0 176, 416A16 16 0 0 1 176, 448z" fill="#727272" fill-opacity="1" class="Black" />
  </g>
</svg>