<?xml version='1.0' encoding='UTF-8'?>
<svg viewBox="-1.995 -4.796 31.9975 32" xmlns="http://www.w3.org/2000/svg">
  <g transform="matrix(0.999, 0, 0, 0.999, 0, 0)">
    <g transform="matrix(0.0438, 0, 0, 0.0438, 0, 0)">
      <defs>
        <style>.fa-secondary{opacity:.4}</style>
      </defs>
      <path d="M162.72, 255.78L436.4, 467.3A174 174 0 0 1 320, 512C222.72, 512 144, 432.35 144, 333.91C144, 304.13 151.31, 279.28 162.72, 255.78zM495.2, 351C495.72, 345.39 496, 339.7 496, 334C496, 222.25 396.21, 180.66 349.22, 22.18C341.28, -6.6 299.78, -7.94 290.78, 22.18C275.28, 74.48 253.92, 114.18 232.3, 147.86z" fill="#727272" opacity="0.4" fill-opacity="1" class="Black" />
      <path d="M636.64, 480.55L617, 505.82A16 16 0 0 1 594.54, 508.63L6.18, 53.9A16 16 0 0 1 3.37, 31.45L23, 6.18A16 16 0 0 1 45.47, 3.37L633.82, 458.1A16 16 0 0 1 636.64, 480.55z" fill="#727272" fill-opacity="1" class="Black" />
    </g>
  </g>
</svg>