<?xml version='1.0' encoding='UTF-8'?>
<svg viewBox="-1.9999 -1.9999 32 32" xmlns="http://www.w3.org/2000/svg">
  <g transform="matrix(0.0547, 0, 0, 0.0547, 0, 0)">
    <defs>
      <style>.fa-secondary{opacity:.4}</style>
    </defs>
    <path d="M256, 128A128 128 0 1 0 384, 256A128 128 0 0 0 256, 128zM184, 280A24 24 0 1 1 208, 256A24 24 0 0 1 184, 280zM256, 352A24 24 0 1 1 280, 328A24 24 0 0 1 256, 352zM256, 208A24 24 0 1 1 280, 184A24 24 0 0 1 256, 208zM328, 280A24 24 0 1 1 352, 256A24 24 0 0 1 328, 280z" fill="#727272" opacity="0.4" fill-opacity="1" class="Black" />
    <path d="M480, 192L470.6, 192A222.73 222.73 0 0 0 453.07, 149.44L459.65, 142.86A32 32 0 0 0 459.65, 97.61L414.4, 52.35A32 32 0 0 0 369.15, 52.35L362.57, 58.93A221.82 221.82 0 0 0 320, 41.4L320, 32A32 32 0 0 0 288, 0L224, 0A32 32 0 0 0 192, 32L192, 41.4A222.73 222.73 0 0 0 149.44, 58.93L142.86, 52.35A32 32 0 0 0 97.61, 52.35L52.35, 97.61A32 32 0 0 0 52.35, 142.86L58.93, 149.44A222.64 222.64 0 0 0 41.4, 192L32, 192A32 32 0 0 0 0, 224L0, 288A32 32 0 0 0 32, 320L41.4, 320A222.73 222.73 0 0 0 58.93, 362.56L52.35, 369.14A32 32 0 0 0 52.35, 414.39L97.6, 459.66A32 32 0 0 0 142.85, 459.66L149.43, 453.08A221.82 221.82 0 0 0 192, 470.61L192, 480A32 32 0 0 0 224, 512L288, 512A32 32 0 0 0 320, 480L320, 470.6A222.73 222.73 0 0 0 362.56, 453.07L369.14, 459.65A32 32 0 0 0 414.39, 459.65L459.64, 414.39A32 32 0 0 0 459.64, 369.14L453.06, 362.56A221.82 221.82 0 0 0 470.6, 320L480, 320A32 32 0 0 0 512, 288L512, 224A32 32 0 0 0 480, 192zM256, 384A128 128 0 1 1 384, 256A128 128 0 0 1 256, 384z" fill="#727272" fill-opacity="1" class="Black" />
  </g>
</svg>