<?xml version='1.0' encoding='UTF-8'?>
<svg viewBox="-1.9999 -1.549 31.9975 32" xmlns="http://www.w3.org/2000/svg">
  <g transform="matrix(0.999, 0, 0, 0.999, 0, 0)">
    <g transform="matrix(0.0565, 0, 0, 0.0565, 0, 0)">
      <defs>
        <style>.fa-secondary{opacity:.4}</style>
      </defs>
      <path d="M248, 8C111, 8 0, 119 0, 256C0, 393 111, 504 248, 504C385, 504 496, 393 496, 256C496, 119 385, 8 248, 8zM118.8, 248.3L152.4, 208L118.8, 167.7C110.2, 157.4 122.6, 142.8 134.2, 149.7L214.2, 197.7A12 12 0 0 1 214.2, 218.3L134.2, 266.3C122.7, 273.1 110.2, 258.7 118.8, 248.3zM353.5, 415.1C327.6, 404 289.1, 397.7 248, 397.7C206.9, 397.7 168.4, 404 142.5, 415.1C132.7, 419.3 123.1, 408.1 124.8, 394.7C132.7, 331.8 196.1, 288 248, 288C299.9, 288 363.3, 331.8 371.2, 394.7C372.9, 408.3 363.2, 419.3 353.5, 415.1zM361.8, 266.3L281.8, 218.3A12.07 12.07 0 0 1 281.8, 197.7L361.8, 149.7C373.4, 142.8 385.8, 157.4 377.2, 167.7L343.6, 208L377.2, 248.3C385.9, 258.7 373.3, 273.1 361.8, 266.3z" fill="#727272" opacity="0.4" fill-opacity="1" class="Black" />
      <path d="M214.2, 197.7L134.2, 149.7C122.6, 142.8 110.2, 157.4 118.8, 167.7L152.4, 208L118.8, 248.3C110.2, 258.7 122.7, 273.1 134.2, 266.3L214.2, 218.3A12 12 0 0 0 214.2, 197.7zM377.2, 248.3L343.6, 208L377.2, 167.7C385.8, 157.4 373.4, 142.8 361.8, 149.7L281.8, 197.7A12.07 12.07 0 0 0 281.8, 218.3L361.8, 266.3C373.3, 273.1 385.9, 258.7 377.2, 248.3z" fill="#727272" fill-opacity="1" class="Black" />
    </g>
  </g>
</svg>