<?xml version='1.0' encoding='UTF-8'?>
<svg viewBox="-5.5003 -2 32 32" xmlns="http://www.w3.org/2000/svg">
  <g transform="matrix(0.0547, 0, 0, 0.0547, 0, 0)">
    <defs>
      <style>.fa-secondary{opacity:.4}</style>
    </defs>
    <path d="M368, 0L16, 0A16 16 0 0 0 0, 16L0, 32A16 16 0 0 0 16, 48L368, 48A16 16 0 0 0 384, 32L384, 16A16 16 0 0 0 368, 0zM136, 64L88, 64A8 8 0 0 0 80, 72L80, 88A8 8 0 0 0 88, 96L136, 96A8 8 0 0 0 144, 88L144, 72A8 8 0 0 0 136, 64z" fill="#727272" opacity="0.4" fill-opacity="1" class="Black" />
    <path d="M352, 204.7L352, 48L32, 48L32, 204.7C11.8, 214.8 0, 226.9 0, 240A191.76 191.76 0 0 0 86.8, 400.5L65.4, 470.7A32 32 0 0 0 96, 512L288, 512A32 32 0 0 0 318.6, 470.7L297.2, 400.5A191.76 191.76 0 0 0 384, 240C384, 226.9 372.2, 214.8 352, 204.7zM80, 72A8 8 0 0 1 88, 64L136, 64A8 8 0 0 1 144, 72L144, 88A8 8 0 0 1 136, 96L88, 96A8 8 0 0 1 80, 88zM192, 272C114.9, 272 52.4, 257.7 52.4, 240C52.4, 222.3 114.9, 208 192, 208C269.1, 208 331.6, 222.3 331.6, 240C331.6, 257.7 269.1, 272 192, 272z" fill="#727272" fill-opacity="1" class="Black" />
  </g>
</svg>