<?xml version='1.0' encoding='UTF-8'?>
<svg viewBox="-1.9974 -3.5552 31.9975 32" xmlns="http://www.w3.org/2000/svg">
  <g transform="matrix(0.0486, 0, 0, 0.0486, 0, 0)">
    <defs>
      <style>.fa-secondary{opacity:.4}</style>
    </defs>
    <path d="M480, 0C427, 0 384, 86 384, 192L384, 364.07C384, 417.72 372.12, 451.64 359.29, 490.12A32 32 0 0 1 328.92, 512L16, 512A16 16 0 0 1 0.82, 490.94C22.19, 426.84 32, 405.19 32, 364.07L32, 192C32, 86 75, 0 128, 0z" fill="#727272" opacity="0.4" fill-opacity="1" class="Black" />
    <path d="M480, 0C427, 0 384, 86 384, 192C384, 298 427, 384 480, 384C533, 384 576, 298 576, 192C576, 86 533, 0 480, 0zM480, 256C462.33, 256 448, 227.35 448, 192C448, 156.65 462.33, 128 480, 128C497.67, 128 512, 156.65 512, 192C512, 227.35 497.66, 256 480, 256z" fill="#727272" fill-opacity="1" class="Black" />
  </g>
</svg>