<?xml version='1.0' encoding='UTF-8'?>
<svg viewBox="-2.0013 -2 32 32" xmlns="http://www.w3.org/2000/svg">
  <g transform="matrix(0.0547, 0, 0, 0.0547, 0, 0)">
    <defs>
      <style>.fa-secondary{opacity:.4}</style>
    </defs>
    <path d="M193.8, 227.7L18.74, 402.76A64 64 0 0 0 109.24, 493.26L258.12, 344.38A75.36 75.36 0 0 1 264.7, 298.6zM64, 472A24 24 0 1 1 88, 448A24 24 0 0 1 64, 472zM507.73, 109.1A12 12 0 0 0 487.61, 103.59L413.25, 178L345.37, 166.69L334.06, 98.76L408.42, 24.4A12 12 0 0 0 402.76, 4.24A143.92 143.92 0 0 0 266.18, 42.17C226.54, 81.81 215.63, 139.27 232.13, 189.37L227.7, 193.8L298.6, 264.7A74.25 74.25 0 0 1 384, 278.6L391.21, 285.81A141.74 141.74 0 0 0 469.82, 245.81A143.94 143.94 0 0 0 507.73, 109.1z" fill="#727272" opacity="0.4" fill-opacity="1" class="Black" />
    <path d="M501.1, 395.7A37.36 37.36 0 0 1 501.1, 448.4L448.4, 501.1A37.18 37.18 0 0 1 395.82, 501.22L395.7, 501.1L278.6, 384C255.5, 360.9 251.1, 326.4 264.7, 298.6L158.1, 192L96, 192L0, 64L64, 0L192, 96L192, 158.1L298.6, 264.7A74.25 74.25 0 0 1 384, 278.6z" fill="#727272" fill-opacity="1" class="Black" />
  </g>
</svg>