<?xml version='1.0' encoding='UTF-8'?>
<svg viewBox="-3.7472 -1.9975 32 32" xmlns="http://www.w3.org/2000/svg">
  <g transform="matrix(0.0547, 0, 0, 0.0547, 0, 0)">
    <defs>
      <style>.fa-secondary{opacity:.4}</style>
    </defs>
    <path d="M444, 96.25C454.13, 137.88 444.42, 177.07 422.47, 206.68C399.1, 238.25 389.78, 275.33 386.17, 314C381.76, 361.16 375.84, 408.17 365.23, 454.32L357.43, 488.27A30.42 30.42 0 0 1 298.22, 488.81L263.75, 350.42A40.95 40.95 0 0 0 184.23, 350.42L149.76, 488.84A30.42 30.42 0 0 1 90.55, 488.3L82.75, 454.35C72.14, 408.19 66.21, 361.19 61.81, 314C58.2, 275.31 48.88, 238.22 25.52, 206.65C3.6, 177.06 -6.11, 137.87 4, 96.25C15, 51 51.13, 14.2 96, 2.53C119.43, -3.56 142.11, 1.99 162.81, 12.84L263.35, 77.46A16 16 0 0 0 280.66, 50.55L252.34, 32.34C255.88, 30.59 259.59, 29.25 262.84, 26.86C289, 7.63 319.79, -5.83 352, 2.53C396.88, 14.19 433, 51 444, 96.25z" fill="#727272" opacity="0.4" fill-opacity="1" class="Black" />
  </g>
</svg>