<?xml version='1.0' encoding='UTF-8'?>
<svg viewBox="-2 -4.7992 32 32" xmlns="http://www.w3.org/2000/svg">
  <g transform="matrix(0.9988, 0, 0, 0.9988, 0, 0)">
    <g transform="matrix(0.0438, 0, 0, 0.0438, 0, 0)">
      <defs>
        <style>.fa-secondary{opacity:.4}</style>
      </defs>
      <path d="M320, 232A8 8 0 0 0 312, 224L296, 224A8 8 0 0 0 288, 232L288, 416L320, 416zM384, 232A8 8 0 0 0 376, 224L360, 224A8 8 0 0 0 352, 232L352, 416L384, 416zM448, 232A8 8 0 0 0 440, 224L424, 224A8 8 0 0 0 416, 232L416, 416L448, 416zM256, 232A8 8 0 0 0 248, 224L232, 224A8 8 0 0 0 224, 232L224, 416L256, 416zM624, 448L16, 448A16 16 0 0 0 0, 464L0, 496A16 16 0 0 0 16, 512L624, 512A16 16 0 0 0 640, 496L640, 464A16 16 0 0 0 624, 448zM64, 232A8 8 0 0 0 56, 224L40, 224A8 8 0 0 0 32, 232L32, 416L64, 416zM192, 232A8 8 0 0 0 184, 224L168, 224A8 8 0 0 0 160, 232L160, 416L192, 416zM128, 232A8 8 0 0 0 120, 224L104, 224A8 8 0 0 0 96, 232L96, 416L128, 416z" fill="#727272" opacity="0.4" fill-opacity="1" class="Black" />
      <path d="M0, 128A64 64 0 0 1 64, 64L325.49, 64C358.89, 64 375.62, 23.62 352, 0A128 128 0 0 1 480, 128A64 64 0 0 1 416, 192L64, 192A64 64 0 0 1 0, 128z" fill="#727272" fill-opacity="1" class="Black" />
    </g>
  </g>
</svg>