<?xml version='1.0' encoding='UTF-8'?>
<svg viewBox="-2 -4.7992 32 32" xmlns="http://www.w3.org/2000/svg">
  <g transform="matrix(0.9988, 0, 0, 0.9988, 0, 0)">
    <g transform="matrix(0.0438, 0, 0, 0.0438, 0, 0)">
      <defs>
        <style>.fa-secondary{opacity:.4}</style>
      </defs>
      <path d="M320, 145.53L302.23, 175.15L337.68, 175.15zM229.93, 296.09L220.74, 311.5L257.59, 311.5L239.13, 280.68zM419.25, 200.53L382.41, 200.53L400.86, 231.35zM257.55, 200.53L220.74, 200.53L239.18, 231.33zM96, 48L96, 464L544, 464L544, 48zM445.22, 326.15A21.24 21.24 0 0 1 426.74, 336.87L367.29, 336.87L338.16, 385.57A21.09 21.09 0 0 1 321.39, 395.89A12.92 12.92 0 0 1 320, 395.94A20.81 20.81 0 0 1 302, 385.72L272.78, 336.84L213.24, 336.84A19.53 19.53 0 0 1 211.08, 336.73A21.13 21.13 0 0 1 195.14, 304.86L224.35, 256L195, 207A20.71 20.71 0 0 1 194.11, 187.1C194.31, 186.68 194.53, 186.26 194.77, 185.85C195.01, 185.44 195.26, 185.03 195.52, 184.64A21.19 21.19 0 0 1 213.25, 175.14L272.7, 175.14L301.83, 126.43A21.13 21.13 0 0 1 320.05, 116.06A20.75 20.75 0 0 1 338, 126.29L367.25, 175.14L426.79, 175.14A21.12 21.12 0 0 1 444.89, 207.14L430.27, 231.57L415.65, 256L445, 305A20.69 20.69 0 0 1 445.22, 326.15zM382.44, 311.53L419.3, 311.53L400.85, 280.73zM320.05, 366.53L337.77, 336.89L302.31, 336.89zM352.86, 200.53L287.07, 200.53L270.49, 228.29L253.91, 256L270.52, 283.75L287.13, 311.5L352.92, 311.5L386.09, 256z" fill="#727272" opacity="0.4" fill-opacity="1" class="Black" />
      <path d="M48, 0C21.49, 0 0, 14.33 0, 32L0, 480C0, 497.67 21.49, 512 48, 512C74.51, 512 96, 497.67 96, 480L96, 32C96, 14.33 74.51, 0 48, 0zM592, 0C565.49, 0 544, 14.33 544, 32L544, 480C544, 497.67 565.49, 512 592, 512C618.51, 512 640, 497.67 640, 480L640, 32C640, 14.33 618.51, 0 592, 0zM415.63, 256L444.87, 207.14A21.12 21.12 0 0 0 426.77, 175.14L367.25, 175.14L338, 126.29A20.75 20.75 0 0 0 320.05, 116.06A21.1 21.1 0 0 0 301.84, 126.43L272.7, 175.14L213.25, 175.14A21.2 21.2 0 0 0 194.77, 185.85A20.72 20.72 0 0 0 195, 207L224.34, 256L195.13, 304.86A21.11 21.11 0 0 0 213.23, 336.86L272.8, 336.86L302.05, 385.74A20.77 20.77 0 0 0 320, 395.94A21.13 21.13 0 0 0 338.16, 385.57L367.29, 336.87L426.74, 336.87A21.24 21.24 0 0 0 445.22, 326.15A20.69 20.69 0 0 0 445, 305zM419.26, 200.5L400.86, 231.32L382.41, 200.5zM320, 145.5L337.68, 175.12L302.23, 175.12zM220.73, 200.5L257.55, 200.5L239.18, 231.3zM220.73, 311.5L239.13, 280.68L257.59, 311.5zM320.05, 366.5L302.31, 336.86L337.77, 336.86zM352.92, 311.5L287.13, 311.5L253.91, 256L287.07, 200.48L352.86, 200.48L386.09, 256zM382.45, 311.5L400.86, 280.7L419.31, 311.5z" fill="#727272" fill-opacity="1" class="Black" />
    </g>
  </g>
</svg>