<?xml version='1.0' encoding='UTF-8'?>
<svg viewBox="-1.9998 -2.0011 31.9975 32" xmlns="http://www.w3.org/2000/svg">
  <g transform="matrix(0.0547, 0, 0, 0.0547, 0, 0)">
    <defs>
      <style>.fa-secondary{opacity:.4}</style>
    </defs>
    <path d="M393.42, 96L11.9, 96C21.54, 130.16 36.39, 158.05 54.61, 181.3L404.39, 181.3C390.32, 158.16 383.71, 131.08 393.42, 96zM429.73, 213.3L84.64, 213.3C129.69, 253.73 185.74, 276.9 234.91, 298.6L504.52, 298.6C490, 266.41 456.82, 241.74 429.73, 213.3zM429.11, 25.2C436.51, 14.6 429.11, 0 416.21, 0L16.21, 0A16.2 16.2 0 0 0 0, 16.5A369.9 369.9 0 0 0 4.76, 64L405.88, 64A302.21 302.21 0 0 1 429.11, 25.2zM331.71, 489.1A16 16 0 0 0 346, 512L373.4, 512A32.82 32.82 0 0 0 395.1, 503.7C417.68, 483.5 436.4, 465.01 451.73, 448L347.4, 448A248.42 248.42 0 0 1 331.71, 489.1zM512, 330.6L299, 330.6C332, 351.18 353.66, 376.31 352.54, 416L478, 416C503.13, 381.56 512.53, 354 512, 330.6z" fill="#727272" opacity="0.4" fill-opacity="1" class="Black" />
    <path d="M405.88, 64L4.76, 64A302.42 302.42 0 0 0 11.9, 96L393.42, 96A181.86 181.86 0 0 1 405.88, 64zM404.39, 181.3L54.61, 181.3A250.81 250.81 0 0 0 84.61, 213.3L429.73, 213.3C420.17, 203.27 411.37, 192.77 404.39, 181.3zM347.4, 448L451.74, 448A406.12 406.12 0 0 0 478, 416L352.51, 416A135.56 135.56 0 0 1 347.4, 448zM504.52, 298.6L234.91, 298.6C258.51, 309.02 280.52, 319.1 298.97, 330.6L512, 330.6A81.4 81.4 0 0 0 504.52, 298.6z" fill="#727272" fill-opacity="1" class="Black" />
  </g>
</svg>