<?xml version='1.0' encoding='UTF-8'?>
<svg viewBox="-2 -4.7992 32 32" xmlns="http://www.w3.org/2000/svg">
  <g transform="matrix(0.9988, 0, 0, 0.9988, 0, 0)">
    <g transform="matrix(0.0438, 0, 0, 0.0438, 0, 0)">
      <defs>
        <style>.fa-secondary{opacity:.4}</style>
      </defs>
      <path d="M528, 336A88 88 0 1 0 616, 424A88 88 0 0 0 528, 336zM528, 448A24 24 0 1 1 552, 424A24 24 0 0 1 528, 448zM330, 292L322.86, 292A152.15 152.15 0 0 0 311, 263.28L316.06, 258.22A22 22 0 0 0 316.06, 227.11L284.9, 196A22 22 0 0 0 253.79, 196L248.73, 201.06A152.15 152.15 0 0 0 220, 189.15L220, 182A22 22 0 0 0 198, 160L154, 160A22 22 0 0 0 132, 182L132, 189.14A152.43 152.43 0 0 0 103.27, 201.05L98.27, 196A22 22 0 0 0 67.16, 196L36, 227.1A22 22 0 0 0 36, 258.21L41.06, 263.27A152.15 152.15 0 0 0 29.15, 292L22, 292A22 22 0 0 0 0, 314L0, 358A22 22 0 0 0 22, 380L29.14, 380A152.43 152.43 0 0 0 41.05, 408.73L36.05, 413.73A22 22 0 0 0 36.05, 444.84L67.1, 476A22 22 0 0 0 98.21, 476L103.27, 470.94A152.15 152.15 0 0 0 132, 482.85L132, 490A22 22 0 0 0 154, 512L198, 512A22 22 0 0 0 220, 490L220, 482.86A152.15 152.15 0 0 0 248.72, 471L253.78, 476.06A22 22 0 0 0 284.89, 476.06L316, 444.9A22 22 0 0 0 316, 413.79L310.94, 408.73A152.15 152.15 0 0 0 322.85, 380L330, 380A22 22 0 0 0 352, 358L352, 314A22 22 0 0 0 330, 292zM176, 416A80 80 0 1 1 256, 336A80 80 0 0 1 176, 416z" fill="#727272" opacity="0.4" fill-opacity="1" class="Black" />
      <path d="M640, 192L640, 242.76A32 32 0 0 1 630.63, 265.39L579.81, 316.2A118.61 118.61 0 0 0 528, 304C488.86, 304 454.45, 323 432.54, 352L352, 352L352, 314A22 22 0 0 0 330, 292L322.86, 292A152.24 152.24 0 0 0 311, 263.27L316.06, 258.21A22 22 0 0 0 316.06, 227.1L284.9, 196A22 22 0 0 0 253.79, 196L248.73, 201.06A151.54 151.54 0 0 0 220, 189.14L220, 182A22 22 0 0 0 198, 160L308, 160L266.89, 64L160, 64L160, 160L154, 160A22 22 0 0 0 132, 182L132, 189.14A152.15 152.15 0 0 0 103.28, 201L98.22, 196A22.57 22.57 0 0 0 96, 194.07L96, 48A48.05 48.05 0 0 1 144, 0L277.45, 0A47.91 47.91 0 0 1 321.58, 29.14L377.67, 160L480, 160L480, 119.8A128.16 128.16 0 0 1 509.5, 38.08A16.28 16.28 0 0 1 534.2, 37.3L555.83, 61.47C560.7, 66.9 561.57, 75.16 557.15, 80.96A64.07 64.07 0 0 0 544, 119.8L544, 160L608, 160A32 32 0 0 1 640, 192z" fill="#727272" fill-opacity="1" class="Black" />
    </g>
  </g>
</svg>