<?xml version='1.0' encoding='UTF-8'?>
<svg viewBox="-2 -4.7992 32 32" xmlns="http://www.w3.org/2000/svg">
  <g transform="matrix(0.9988, 0, 0, 0.9988, 0, 0)">
    <g transform="matrix(0.0438, 0, 0, 0.0438, 0, 0)">
      <defs>
        <style>.fa-secondary{opacity:.4}</style>
      </defs>
      <path d="M640, 403.85A12.09 12.09 0 0 1 628, 416L574.1, 416A12 12 0 0 1 562.1, 404.8L553, 271.9C551.2, 247.7 553, 218.2 553, 218.2L552.1, 218.2C552.1, 218.2 541.4, 251.8 534.2, 271.9L503.5, 356.6A12 12 0 0 1 492.2, 364.5L441.9, 364.5A12 12 0 0 1 430.6, 356.6L399.9, 271.9C392.7, 251.8 382, 218.2 382, 218.2L381.1, 218.2C381.1, 218.2 382.9, 247.7 381.1, 271.9L372, 404.8A12.09 12.09 0 0 1 360, 416L304.5, 416A12 12 0 0 1 293.5, 403L317.9, 107A12.14 12.14 0 0 1 329.9, 96L395.3, 96A12.06 12.06 0 0 1 406.6, 104.1L450.4, 231.2C457.6, 251.8 466.5, 284 466.5, 284L467.4, 284C467.4, 284 476.3, 251.8 483.5, 231.2L527.3, 104.1A12 12 0 0 1 538.6, 96L604, 96A12 12 0 0 1 616, 107L640, 403L640, 403.85z" fill="#727272" opacity="0.4" fill-opacity="1" class="Black" />
      <path d="M272.5, 108L272.5, 151.1A12 12 0 0 1 260.5, 163.1L175.4, 163.1L175.4, 404A12 12 0 0 1 163.4, 416L109.1, 416A12 12 0 0 1 97.1, 404L97.1, 163.1L12, 163.1A12 12 0 0 1 0, 151.1L0, 108A12 12 0 0 1 12, 96L260.72, 96A11.89 11.89 0 0 1 272.5, 108z" fill="#727272" fill-opacity="1" class="Black" />
    </g>
  </g>
</svg>