<?xml version='1.0' encoding='UTF-8'?>
<svg viewBox="-2 -2 32 32" xmlns="http://www.w3.org/2000/svg">
  <g transform="matrix(0.0547, 0, 0, 0.0547, 0, 0)">
    <defs>
      <style>.fa-secondary{opacity:.4}</style>
    </defs>
    <path d="M337, 128L175, 128L149.6, 192L362.37, 192zM400.42, 288L111.5, 288L86.21, 352L425.79, 352z" fill="#727272" opacity="0.4" fill-opacity="1" class="Black" />
    <path d="M289.73, 10.08A16 16 0 0 0 274.86, 0L237.14, 0A16 16 0 0 0 222.27, 10.08L175.35, 128L336.65, 128zM362.12, 192L149.88, 192L111.67, 288L400.32, 288zM496, 448L464, 448L425.79, 352L86.21, 352L48, 448L16, 448A16 16 0 0 0 0, 464L0, 496A16 16 0 0 0 16, 512L496, 512A16 16 0 0 0 512, 496L512, 464A16 16 0 0 0 496, 448z" fill="#727272" fill-opacity="1" class="Black" />
  </g>
</svg>