<?xml version='1.0' encoding='UTF-8'?>
<svg viewBox="-5.494 -2 31.9975 32" xmlns="http://www.w3.org/2000/svg">
  <g transform="matrix(0.0547, 0, 0, 0.0547, 0, 0)">
    <defs>
      <style>.fa-secondary{opacity:.4}</style>
    </defs>
    <path d="M224, 240A80 80 0 1 1 144, 160A80.11 80.11 0 0 1 224, 240z" fill="#727272" opacity="0.4" fill-opacity="1" class="Black" />
    <path d="M372, 0L293, 0A12 12 0 0 0 284.5, 20.5L301.4, 37.4L220.7, 118.1A144 144 0 1 0 112, 380.4L112, 408L76, 408A12 12 0 0 0 64, 420L64, 460A12 12 0 0 0 76, 472L112, 472L112, 500A12 12 0 0 0 124, 512L164, 512A12 12 0 0 0 176, 500L176, 472L212, 472A12 12 0 0 0 224, 460L224, 420A12 12 0 0 0 212, 408L176, 408L176, 380.4A144 144 0 0 0 265.9, 163.3L346.6, 82.6L363.5, 99.5A12 12 0 0 0 384, 91L384, 12A12 12 0 0 0 372, 0zM144, 320A80 80 0 1 1 224, 240A80 80 0 0 1 144, 320z" fill="#727272" fill-opacity="1" class="Black" />
  </g>
</svg>