<?xml version='1.0' encoding='UTF-8'?>
<svg viewBox="-3.7495 -2 32 32" xmlns="http://www.w3.org/2000/svg">
  <g transform="matrix(0.0547, 0, 0, 0.0547, 0, 0)">
    <defs>
      <style>.fa-secondary{opacity:.4}</style>
    </defs>
    <path d="M32, 96L32, 464A48 48 0 0 0 80, 512L368, 512A48 48 0 0 0 416, 464L416, 96zM313.37, 288L256, 288L256, 400A16 16 0 0 1 240, 416L208, 416A16 16 0 0 1 192, 400L192, 288L134.63, 288C120.37, 288 113.23, 269.82 123.31, 259.2L212.69, 164.94A15.41 15.41 0 0 1 234.47, 164.1Q234.9, 164.51 235.31, 164.94L324.69, 259.2C334.77, 269.82 327.63, 288 313.37, 288z" fill="#727272" opacity="0.4" fill-opacity="1" class="Black" />
    <path d="M432, 32L312, 32L302.6, 13.3A24 24 0 0 0 281.1, 0L166.8, 0A23.72 23.72 0 0 0 145.4, 13.3L136, 32L16, 32A16 16 0 0 0 0, 48L0, 80A16 16 0 0 0 16, 96L432, 96A16 16 0 0 0 448, 80L448, 48A16 16 0 0 0 432, 32zM235.31, 164.94Q234.9, 164.5 234.47, 164.1A15.41 15.41 0 0 0 212.69, 164.94L123.31, 259.2C113.23, 269.82 120.37, 288 134.63, 288L192, 288L192, 400A16 16 0 0 0 208, 416L240, 416A16 16 0 0 0 256, 400L256, 288L313.37, 288C327.63, 288 334.77, 269.82 324.69, 259.2z" fill="#727272" fill-opacity="1" class="Black" />
  </g>
</svg>