<?xml version='1.0' encoding='UTF-8'?>
<svg viewBox="-2 -3.554 32 32" xmlns="http://www.w3.org/2000/svg">
  <g transform="matrix(0.0486, 0, 0, 0.0486, 0, 0)">
    <defs>
      <style>.fa-secondary{opacity:.4}</style>
    </defs>
    <path d="M0, 128L0, 256L96, 256L96, 32A96 96 0 0 0 0, 128zM0, 448A32 32 0 0 0 32, 480L96, 480L96, 288L0, 288zM352, 336A16 16 0 0 1 336, 352L240, 352A16 16 0 0 1 224, 336L224, 288L160, 288L160, 480L416, 480L416, 288L352, 288zM480, 32L480, 256L576, 256L576, 128A96 96 0 0 0 480, 32zM480, 480L544, 480A32 32 0 0 0 576, 448L576, 288L480, 288zM160, 256L224, 256L224, 208A16 16 0 0 1 240, 192L336, 192A16 16 0 0 1 352, 208L352, 256L416, 256L416, 32L160, 32z" fill="#727272" opacity="0.4" fill-opacity="1" class="Black" />
    <path d="M96, 256L160, 256L160, 32L96, 32zM96, 480L160, 480L160, 288L96, 288zM416, 480L480, 480L480, 288L416, 288zM416, 32L416, 256L480, 256L480, 32zM336, 192L240, 192A16 16 0 0 0 224, 208L224, 336A16 16 0 0 0 240, 352L336, 352A16 16 0 0 0 352, 336L352, 208A16 16 0 0 0 336, 192zM304, 304A16 16 0 0 1 272, 304L272, 240A16 16 0 0 1 304, 240z" fill="#727272" fill-opacity="1" class="Black" />
  </g>
</svg>