<?xml version='1.0' encoding='UTF-8'?>
<svg viewBox="-3.7474 -1.9975 32 32" xmlns="http://www.w3.org/2000/svg">
  <g transform="matrix(0.0547, 0, 0, 0.0547, 0, 0)">
    <defs>
      <style>.fa-secondary{opacity:.4}</style>
    </defs>
    <path d="M160, 312A24 24 0 1 1 184, 288A23.94 23.94 0 0 1 160, 312z" fill="#727272" opacity="0.4" fill-opacity="1" class="Black" />
    <path d="M439.63, 455.57L349.83, 352L385.83, 352C411.43, 352 425.33, 322.8 409.03, 303.5L314.13, 192L358.93, 192C380.23, 192 391.83, 169.5 378.23, 154.71L243.33, 8.18C233.33, -2.72 214.73, -2.72 204.73, 8.18L69.93, 154.68C56.33, 169.47 67.93, 191.97 89.23, 191.97L134, 191.97L39, 303.47C22.7, 322.77 36.6, 351.97 62.2, 351.97L98.2, 351.97L8.43, 455.57C-10.57, 477.47 4.63, 511.97 33.13, 511.97L414.83, 511.97C443.43, 512 458.53, 477.38 439.63, 455.57zM160, 312A24 24 0 1 1 184, 288A23.94 23.94 0 0 1 160, 312zM232, 160A24 24 0 1 1 256, 184A23.95 23.95 0 0 1 232, 160zM288, 440A24 24 0 1 1 312, 416A23.94 23.94 0 0 1 288, 440z" fill="#727272" fill-opacity="1" class="Black" />
  </g>
</svg>