<?xml version='1.0' encoding='UTF-8'?>
<svg viewBox="-3.7495 -2 32 32" xmlns="http://www.w3.org/2000/svg">
  <g transform="matrix(0.0547, 0, 0, 0.0547, 0, 0)">
    <defs>
      <style>.fa-secondary{opacity:.4}</style>
    </defs>
    <path d="M197.33, 106.7L144, 80L197.3, 53.3L224, 0L250.7, 53.3L304, 80L250.7, 106.7L224, 160z" fill="#727272" opacity="0.4" fill-opacity="1" class="Black" />
    <path d="M439.63, 455.6L349.83, 352L385.83, 352C411.43, 352 425.33, 325.7 409.03, 308.5L262.83, 154L224, 208L185.2, 154L39, 308.5C22.7, 325.7 36.6, 352 62.2, 352L98.2, 352L8.43, 455.6C-10.57, 477.5 4.63, 512 33.13, 512L414.83, 512C443.43, 512 458.53, 477.4 439.63, 455.6zM160, 312A24 24 0 1 1 184, 288A23.94 23.94 0 0 1 160, 312zM288, 440A24 24 0 1 1 312, 416A23.94 23.94 0 0 1 288, 440z" fill="#727272" fill-opacity="1" class="Black" />
  </g>
</svg>