<?xml version='1.0' encoding='UTF-8'?>
<svg viewBox="-2 -4.7992 32 32" xmlns="http://www.w3.org/2000/svg">
  <g transform="matrix(0.9988, 0, 0, 0.9988, 0, 0)">
    <g transform="matrix(0.0438, 0, 0, 0.0438, 0, 0)">
      <defs>
        <style>.fa-secondary{opacity:.4}</style>
      </defs>
      <path d="M224, 440.46L224, 416L160, 416L160, 440.45L129.71, 488.85A16 16 0 0 0 144, 512L240, 512A16 16 0 0 0 254.31, 488.84zM634.31, 378.46L554.42, 288L585.05, 288A22.73 22.73 0 0 0 605.83, 275A22 22 0 0 0 602.55, 251L524.42, 160L553.31, 160A22.69 22.69 0 0 0 574.17, 146.39A22.27 22.27 0 0 0 569.93, 122.31L459.66, 4.84C453.66, -1.61 442.38, -1.61 436.34, 4.84L341.28, 106.1C352.37, 121.47 355.28, 141.4 347.62, 159.1A54.48 54.48 0 0 1 329.36, 181.78L370.9, 230.1A54.56 54.56 0 0 1 364.83, 307Q362.83, 308.68 360.73, 310.18L402.35, 357.33C411, 367.11 415.69, 371.46 416, 384L416, 440.45L385.71, 488.85A16 16 0 0 0 400, 512L496, 512A16 16 0 0 0 510.31, 488.84L480, 440.46L480, 416L616.87, 416A23.19 23.19 0 0 0 637.87, 402.75A22.15 22.15 0 0 0 634.31, 378.5z" fill="#727272" opacity="0.4" fill-opacity="1" class="Black" />
      <path d="M381.86, 402.76A23.19 23.19 0 0 1 360.86, 416.01L23.13, 416.01A23.17 23.17 0 0 1 2.13, 402.76A22.09 22.09 0 0 1 5.69, 378.5L85.58, 288L55, 288A22.72 22.72 0 0 1 34.17, 274.92A22.06 22.06 0 0 1 37.44, 250.92L115.58, 160L86.69, 160A22.67 22.67 0 0 1 65.82, 146.4A22.25 22.25 0 0 1 70.06, 122.32L180.34, 4.84C186.34, -1.61 197.66, -1.61 203.66, 4.84L313.93, 122.31A22.27 22.27 0 0 1 318.17, 146.39A22.69 22.69 0 0 1 297.31, 160L268.42, 160L346.55, 251A22 22 0 0 1 349.83, 275A22.73 22.73 0 0 1 329.05, 288L298.42, 288L378.3, 378.5A22.12 22.12 0 0 1 381.86, 402.76z" fill="#727272" fill-opacity="1" class="Black" />
    </g>
  </g>
</svg>