<?xml version='1.0' encoding='UTF-8'?>
<svg viewBox="-1.9975 -3.554 31.9975 32" xmlns="http://www.w3.org/2000/svg">
  <g transform="matrix(0.0486, 0, 0, 0.0486, 0, 0)">
    <defs>
      <style>.fa-secondary{opacity:.4}</style>
    </defs>
    <path d="M569.54, 440L329.54, 24C311.14, -8 264.86, -8 246.36, 24L6.48, 440C-11.93, 471.91 11.07, 512 48.07, 512L527.94, 512C564.85, 512 587.94, 472 569.54, 440zM444.86, 448L131.15, 448A32 32 0 0 1 103.43, 400L260.25, 128A32 32 0 0 1 315.69, 128L472.58, 400A32 32 0 0 1 444.86, 448z" fill="#727272" opacity="0.4" fill-opacity="1" class="Black" />
    <path d="M103.43, 400L260.25, 128A32 32 0 0 1 315.69, 128L472.58, 400A32 32 0 0 1 444.87, 448L131.15, 448C106.53, 448 91.13, 421.35 103.43, 400z" fill="#727272" fill-opacity="1" class="Black" />
  </g>
</svg>