<?xml version='1.0' encoding='UTF-8'?>
<svg viewBox="-1.9999 -4.7979 32 31.9975" xmlns="http://www.w3.org/2000/svg">
  <g transform="matrix(1.0011, 0, 0, 1.0011, 0, 0)">
    <g transform="matrix(0.0437, 0, 0, 0.0437, 0, 0)">
      <defs>
        <style>.fa-secondary{opacity:.4}</style>
      </defs>
      <path d="M224, 352A64 64 0 1 0 288, 416A64 64 0 0 0 224, 352zM64, 352A64 64 0 1 0 128, 416A64 64 0 0 0 64, 352zM528, 352A64 64 0 1 0 592, 416A64 64 0 0 0 528, 352z" fill="#727272" opacity="0.4" fill-opacity="1" class="Black" />
      <path d="M621.3, 237.3L562.8, 178.8A64 64 0 0 0 517.5, 160.1L480, 160.1L480, 64A32 32 0 0 0 448, 32L32, 32A32 32 0 0 0 0, 64L0, 344.51A95.88 95.88 0 0 1 144, 363A96 96 0 0 1 314.51, 384L437.51, 384A96 96 0 0 1 618.51, 384L624, 384A16 16 0 0 0 640, 368L640, 282.5A63.79 63.79 0 0 0 621.3, 237.3zM480, 256L480, 208L517.5, 208A15.88 15.88 0 0 1 528.8, 212.7L572.1, 256z" fill="#727272" fill-opacity="1" class="Black" />
    </g>
  </g>
</svg>