<?xml version='1.0' encoding='UTF-8'?>
<svg viewBox="-1.9998 -4.7979 32 31.9975" xmlns="http://www.w3.org/2000/svg">
  <g transform="matrix(0.9989, 0, 0, 0.9989, 0, 0)">
    <g transform="matrix(0.0438, 0, 0, 0.0438, 0, 0)">
      <defs>
        <style>.fa-secondary{opacity:.4}</style>
      </defs>
      <path d="M120, 304A88 88 0 1 0 208, 392A88 88 0 0 0 120, 304zM376, 304A88 88 0 1 0 464, 392A88 88 0 0 0 376, 304z" fill="#727272" opacity="0.4" fill-opacity="1" class="Black" />
      <path d="M598.6, 393.4A77.12 77.12 0 0 1 576, 338.8L576, 237.2A77.12 77.12 0 0 1 598.6, 182.6L635.3, 145.9A16.06 16.06 0 0 0 635.3, 123.3L612.7, 100.7A16.06 16.06 0 0 0 590.1, 100.7L553.4, 137.4A141.23 141.23 0 0 0 512, 237.3L512, 288L480, 288L480, 224A32 32 0 0 0 448, 192L402.1, 192L320.1, 55.3A48.17 48.17 0 0 0 278.9, 32L168, 32A40 40 0 0 0 128, 72L128, 192L32, 192A32 32 0 0 0 0, 224L0, 320A31.87 31.87 0 0 0 10.2, 343.43A120.13 120.13 0 0 1 233.2, 352L262.8, 352A120.12 120.12 0 0 1 489.2, 352L513.3, 352C516.4, 384.6 530, 415.3 553.4, 438.6L590.1, 475.3A16.06 16.06 0 0 0 612.7, 475.3L635.3, 452.7A16.06 16.06 0 0 0 635.3, 430.1zM192, 192L192, 96L269.9, 96L327.5, 192z" fill="#727272" fill-opacity="1" class="Black" />
    </g>
  </g>
</svg>