<?xml version='1.0' encoding='UTF-8'?>
<svg viewBox="-2 -4.7992 32 32" xmlns="http://www.w3.org/2000/svg">
  <g transform="matrix(0.9988, 0, 0, 0.9988, 0, 0)">
    <g transform="matrix(0.0438, 0, 0, 0.0438, 0, 0)">
      <defs>
        <style>.fa-secondary{opacity:.4}</style>
      </defs>
      <path d="M400, 160A16 16 0 0 0 384, 144L368, 144A16 16 0 0 0 352, 160L352, 192L400, 192zM224, 160A16 16 0 0 0 208, 144L192, 144A16 16 0 0 0 176, 160L176, 192L224, 192zM312, 160A16 16 0 0 0 296, 144L280, 144A16 16 0 0 0 264, 160L264, 192L312, 192zM492.27, 269.64C487.66, 267.21 472.41, 259.78 448, 257.19L448, 352A32 32 0 0 1 416, 384L400, 384L400, 256L352, 256L352, 384L312, 384L312, 256L264, 256L264, 384L224, 384L224, 256L81.75, 256C70.75, 274.9 64, 296.57 64, 320A128 128 0 0 0 192, 448L416, 448A96 96 0 0 0 512, 352L512, 281.7C505.58, 277.54 499.22, 273.3 492.27, 269.64zM176, 381.73A63.69 63.69 0 0 1 176, 258.27z" fill="#727272" opacity="0.4" fill-opacity="1" class="Black" />
      <path d="M640, 80L640, 368C640, 380 629.19, 384 624, 384A16.22 16.22 0 0 1 611, 377.33A555.44 555.44 0 0 0 544.81, 305.65C529.43, 292.65 511.88, 279.99 492.27, 269.65C486.72, 266.72 466.52, 256.05 432.27, 256.02L48, 256.02A16 16 0 0 1 32, 272.02L16, 272.02A16 16 0 0 1 0, 256L0, 192A16 16 0 0 1 16, 176L32, 176A16 16 0 0 1 48, 192L432.27, 192C466.52, 192 486.72, 181.31 492.27, 178.37C511.88, 168.02 529.43, 155.32 544.81, 142.37A555.44 555.44 0 0 0 611, 70.67A16.27 16.27 0 0 1 624, 64C629.19, 64 640, 68 640, 80z" fill="#727272" fill-opacity="1" class="Black" />
    </g>
  </g>
</svg>