<?xml version='1.0' encoding='UTF-8'?>
<svg viewBox="-1.9975 -4.7973 32 32" xmlns="http://www.w3.org/2000/svg">
  <g transform="matrix(0.999, 0, 0, 0.999, 0, 0)">
    <g transform="matrix(0.0438, 0, 0, 0.0438, 0, 0)">
      <defs>
        <style>.fa-secondary{opacity:.4}</style>
      </defs>
      <path d="M8.86, 96.5A16.11 16.11 0 0 0 1.66, 118L58.89, 232.5A16.11 16.11 0 0 0 80.39, 239.7L97.71, 231.22L26.09, 88zM467.86, 15.55A187.31 187.31 0 0 1 454.54, 28.81C418.45, 61.3 370.67, 79.2 320, 79.2C269.33, 79.2 221.59, 61.3 185.49, 28.81A187.31 187.31 0 0 1 172.17, 15.55L54.76, 73.75L126.45, 217.15L137, 212A16 16 0 0 1 160, 226.4L160, 480A32 32 0 0 0 192, 512L448, 512A32 32 0 0 0 480, 480L480, 226.3A16 16 0 0 1 503, 211.9L513.57, 217.08L585.19, 73.7zM631.17, 96.55L613.85, 87.96L542.25, 231.15L559.49, 239.6L559.55, 239.6A16 16 0 0 0 581, 232.4L638.28, 118A16 16 0 0 0 631.18, 96.5z" fill="#727272" opacity="0.4" fill-opacity="1" class="Black" />
      <path d="M320, 47.2C268.11, 47.2 223.61, 27.8 203.51, 0L172.17, 15.55A187.31 187.31 0 0 0 185.49, 28.81C221.59, 61.3 269.37, 79.2 320, 79.2C370.63, 79.2 418.43, 61.3 454.53, 28.81A187.31 187.31 0 0 0 467.85, 15.55L436.51, 0C416.41, 27.8 371.91, 47.2 320, 47.2zM26.09, 88L97.71, 231.22L126.45, 217.15L54.76, 73.75zM585.19, 73.7L513.51, 217.08L542.25, 231.15L613.86, 87.91z" fill="#727272" fill-opacity="1" class="Black" />
    </g>
  </g>
</svg>