<?xml version='1.0' encoding='UTF-8'?>
<svg viewBox="-1.9975 -1.9975 32 32" xmlns="http://www.w3.org/2000/svg">
  <g transform="matrix(0.0547, 0, 0, 0.0547, 0, 0)">
    <defs>
      <style>.fa-secondary{opacity:.4}</style>
    </defs>
    <path d="M468, 256L428, 256A12 12 0 0 0 416, 268L416, 308A12 12 0 0 0 428, 320L468, 320A12 12 0 0 0 480, 308L480, 268A12 12 0 0 0 468, 256zM84, 448L44, 448A12 12 0 0 0 32, 460L32, 500A12 12 0 0 0 44, 512L84, 512A12 12 0 0 0 96, 500L96, 460A12 12 0 0 0 84, 448zM372, 448L140, 448A12 12 0 0 0 128, 460L128, 500A12 12 0 0 0 140, 512L372, 512A12 12 0 0 0 384, 500L384, 460A12 12 0 0 0 372, 448zM468, 448L428, 448A12 12 0 0 0 416, 460L416, 500A12 12 0 0 0 428, 512L468, 512A12 12 0 0 0 480, 500L480, 460A12 12 0 0 0 468, 448zM140, 320L180, 320A12 12 0 0 0 192, 308L192, 268A12 12 0 0 0 180, 256L140, 256A12 12 0 0 0 128, 268L128, 308A12 12 0 0 0 140, 320zM44, 320L84, 320A12 12 0 0 0 96, 308L96, 268A12 12 0 0 0 84, 256L44, 256A12 12 0 0 0 32, 268L32, 308A12 12 0 0 0 44, 320zM368, 364L368, 404A12 12 0 0 0 380, 416L420, 416A12 12 0 0 0 432, 404L432, 364A12 12 0 0 0 420, 352L380, 352A12 12 0 0 0 368, 364zM92, 352A12 12 0 0 0 80, 364L80, 404A12 12 0 0 0 92, 416L132, 416A12 12 0 0 0 144, 404L144, 364A12 12 0 0 0 132, 352zM284, 352A12 12 0 0 0 272, 364L272, 404A12 12 0 0 0 284, 416L324, 416A12 12 0 0 0 336, 404L336, 364A12 12 0 0 0 324, 352zM332, 320L372, 320A12 12 0 0 0 384, 308L384, 268A12 12 0 0 0 372, 256L332, 256A12 12 0 0 0 320, 268L320, 308A12 12 0 0 0 332, 320zM188, 352A12 12 0 0 0 176, 364L176, 404A12 12 0 0 0 188, 416L228, 416A12 12 0 0 0 240, 404L240, 364A12 12 0 0 0 228, 352zM236, 320L276, 320A12 12 0 0 0 288, 308L288, 268A12 12 0 0 0 276, 256L236, 256A12 12 0 0 0 224, 268L224, 308A12 12 0 0 0 236, 320z" fill="#727272" opacity="0.4" fill-opacity="1" class="Black" />
    <path d="M509.22, 126.5L466, 195.64A18.33 18.33 0 0 1 443.65, 203L357.22, 168.43A18.35 18.35 0 0 1 345.79, 149.58L351.74, 90A283.34 283.34 0 0 0 160.26, 90L166.26, 149.53A18.35 18.35 0 0 1 154.83, 168.38L68.35, 203A18.34 18.34 0 0 1 46, 195.64L2.79, 126.5A18.32 18.32 0 0 1 5.37, 103.82C143.9, -34.71 368.31, -34.5 506.63, 103.82A18.34 18.34 0 0 1 509.22, 126.5z" fill="#727272" fill-opacity="1" class="Black" />
  </g>
</svg>