<?xml version='1.0' encoding='UTF-8'?>
<svg viewBox="-1.9998 -3.5538 32 31.9975" xmlns="http://www.w3.org/2000/svg">
  <g transform="matrix(0.0486, 0, 0, 0.0486, 0, 0)">
    <defs>
      <style>.fa-secondary{opacity:.4}</style>
    </defs>
    <path d="M552.28, 137.25L503.63, 102.5C468.46, 85.08 423.14, 104.07 416.82, 142.81A63.4 63.4 0 0 0 416, 153L416, 224.22A62.79 62.79 0 0 1 402.73, 262.66A64.75 64.75 0 0 1 351.05, 288L18.6, 288A18.6 18.6 0 0 0 12.71, 324.24L111, 346.34L66.17, 424A16 16 0 0 0 80, 448L117, 448A16 16 0 0 0 130.86, 440L171.16, 370.2C197.16, 378.72 216.71, 384 256.03, 384C295.35, 384 314.92, 378.72 340.9, 370.2L381.2, 440A16 16 0 0 0 395, 448L432, 448A16 16 0 0 0 445.86, 424L398.65, 342.24C419.9, 333.82 439.01, 320.46 453.46, 301.71A126.33 126.33 0 0 0 478.74, 240L519.36, 240A56.65 56.65 0 0 0 552.28, 137.24zM480, 176A16 16 0 1 1 496, 160A16 16 0 0 1 480, 176z" fill="#727272" opacity="0.4" fill-opacity="1" class="Black" />
    <path d="M68.25, 256C44.71, 256 27.25, 236.2 33.15, 216C53.15, 147 123.68, 64 207.59, 64L208.41, 64C292.33, 64 362.84, 147 382.86, 216C388.73, 236.24 371.3, 256 347.76, 256z" fill="#727272" fill-opacity="1" class="Black" />
  </g>
</svg>