<?xml version='1.0' encoding='UTF-8'?>
<svg viewBox="-2 -4.7992 32 32" xmlns="http://www.w3.org/2000/svg">
  <g transform="matrix(0.9988, 0, 0, 0.9988, 0, 0)">
    <g transform="matrix(0.0438, 0, 0, 0.0438, 0, 0)">
      <defs>
        <style>.fa-secondary{opacity:.4}</style>
      </defs>
      <path d="M64, 64L64, 352L576, 352L576, 64zM416, 256C416, 273.67 394.5, 288 368, 288C341.5, 288 320, 273.67 320, 256C320, 238.33 341.5, 224 368, 224A69.82 69.82 0 0 1 384, 226L384, 165.64L288, 203.16L288, 288C288, 305.67 266.5, 320 240, 320C213.5, 320 192, 305.67 192, 288C192, 270.33 213.5, 256 240, 256A69.82 69.82 0 0 1 256, 258L256, 159.3A16 16 0 0 1 267.19, 144L395.19, 96.75A16 16 0 0 1 416, 112z" fill="#727272" opacity="0.4" fill-opacity="1" class="Black" />
      <path d="M512, 448L128, 448A32 32 0 0 0 128, 512L512, 512A32 32 0 0 0 512, 448zM592, 0L48, 0A48 48 0 0 0 0, 48L0, 368A48 48 0 0 0 48, 416L592, 416A48 48 0 0 0 640, 368L640, 48A48 48 0 0 0 592, 0zM576, 352L64, 352L64, 64L576, 64zM240, 320C266.5, 320 288, 305.67 288, 288L288, 203.16L384, 165.64L384, 226A69.82 69.82 0 0 0 368, 224C341.5, 224 320, 238.33 320, 256C320, 273.67 341.5, 288 368, 288C394.5, 288 416, 273.67 416, 256L416, 112A16 16 0 0 0 395.19, 96.75L267.19, 144A16 16 0 0 0 256, 159.25L256, 258A69.82 69.82 0 0 0 240, 256C213.5, 256 192, 270.33 192, 288C192, 305.67 213.5, 320 240, 320z" fill="#727272" fill-opacity="1" class="Black" />
    </g>
  </g>
</svg>