<?xml version='1.0' encoding='UTF-8'?>
<svg viewBox="-1.5477 -1.5477 32 32" xmlns="http://www.w3.org/2000/svg">
  <g transform="matrix(0.9991, 0, 0, 0.9991, 0, 0)">
    <g transform="matrix(0.0565, 0, 0, 0.0565, 0, 0)">
      <defs>
        <style>.fa-secondary{opacity:.4}</style>
      </defs>
      <path d="M129, 383A12 12 0 0 1 145.37, 382.44A166.77 166.77 0 0 0 256, 424C349.82, 424 423.24, 348 424, 257.45C424.79, 162 346.91, 87.21 254.51, 88A166.73 166.73 0 0 0 141.31, 133.25L84.69, 76.69A247.12 247.12 0 0 1 255.54, 8C392.35, 7.76 504, 119.19 504, 256C504, 393 393, 504 256, 504A247.11 247.11 0 0 1 89.82, 440.09L89.33, 439.63A12 12 0 0 1 89.33, 422.63z" fill="#727272" opacity="0.4" fill-opacity="1" class="Black" />
      <path d="M49, 41L183.06, 175C198.15, 190.15 187.44, 216 166.06, 216L32, 216A24 24 0 0 1 8, 192L8, 57.94C8, 36.56 33.85, 25.85 49, 41z" fill="#727272" fill-opacity="1" class="Black" />
    </g>
  </g>
</svg>