<?xml version='1.0' encoding='UTF-8'?>
<svg viewBox="-1.0645 -1.0658 31.9975 32" xmlns="http://www.w3.org/2000/svg">
  <g transform="matrix(0.0583, 0, 0, 0.0583, 0, 0)">
    <defs>
      <style>.fa-secondary{opacity:.4}</style>
    </defs>
    <path d="M160, 192L160, 384L224, 384L224, 192L288, 192L288, 384L352, 384L352, 192L416, 192L416, 384L452, 384A12 12 0 0 1 464, 396L464, 416L48, 416L48, 396A12 12 0 0 1 60, 384L96, 384L96, 192z" fill="#727272" opacity="0.4" fill-opacity="1" class="Black" />
    <path d="M491.06, 120.61L259.06, 32.61A8 8 0 0 0 252.94, 32.61L20.94, 120.61A8 8 0 0 0 16, 128L16, 144A8 8 0 0 0 24, 152L48, 152L48, 164A12 12 0 0 0 60, 176L452, 176A12 12 0 0 0 464, 164L464, 152L488, 152A8 8 0 0 0 496, 144L496, 128A8 8 0 0 0 491.06, 120.61zM472, 432L40, 432A24 24 0 0 0 16, 456L16, 472A8 8 0 0 0 24, 480L488, 480A8 8 0 0 0 496, 472L496, 456A24 24 0 0 0 472, 432z" fill="#727272" fill-opacity="1" class="Black" />
  </g>
</svg>