<?xml version='1.0' encoding='UTF-8'?>
<svg viewBox="-2 -2.0025 32 32" xmlns="http://www.w3.org/2000/svg">
  <g transform="matrix(0.0547, 0, 0, 0.0547, 0, 0)">
    <defs>
      <style>.fa-secondary{opacity:.4}</style>
    </defs>
    <path d="M488, 351.92L352, 351.92L352, 359.92A56 56 0 0 1 296, 415.92L216, 415.92A56 56 0 0 1 160, 359.92L160, 351.92L24, 351.92A23.94 23.94 0 0 0 0, 375.92L0, 487.92A23.94 23.94 0 0 0 24, 511.92L488, 511.92A23.94 23.94 0 0 0 512, 487.92L512, 375.92A23.94 23.94 0 0 0 488, 351.92zM368, 483.92A20 20 0 1 1 388, 463.92A20.06 20.06 0 0 1 368, 483.92zM432, 483.92A20 20 0 1 1 452, 463.92A20.06 20.06 0 0 1 432, 483.92z" fill="#727272" opacity="0.4" fill-opacity="1" class="Black" />
    <path d="M192, 359.93L192, 191.93L104.3, 191.93C86.5, 191.93 77.6, 170.43 90.2, 157.82L242.3, 5.62A19.37 19.37 0 0 1 269.6, 5.62L421.8, 157.82C434.4, 170.43 425.5, 191.93 407.7, 191.93L320, 191.93L320, 359.93A23.94 23.94 0 0 1 296, 383.93L216, 383.93A23.94 23.94 0 0 1 192, 359.93z" fill="#727272" fill-opacity="1" class="Black" />
  </g>
</svg>