<?xml version='1.0' encoding='UTF-8'?>
<svg viewBox="-2 -4.7992 32 32" xmlns="http://www.w3.org/2000/svg">
  <g transform="matrix(0.9988, 0, 0, 0.9988, 0, 0)">
    <g transform="matrix(0.0438, 0, 0, 0.0438, 0, 0)">
      <defs>
        <style>.fa-secondary{opacity:.4}</style>
      </defs>
      <path d="M624, 128L448, 128L448, 384L624, 384A16 16 0 0 0 640, 368L640, 144A16 16 0 0 0 624, 128zM584, 312A16 16 0 0 1 568, 328L552, 328A16 16 0 0 1 536, 312L536, 296A16 16 0 0 1 552, 280L568, 280A16 16 0 0 1 584, 296zM584, 216A16 16 0 0 1 568, 232L552, 232A16 16 0 0 1 536, 216L536, 200A16 16 0 0 1 552, 184L568, 184A16 16 0 0 1 584, 200z" fill="#727272" opacity="0.4" fill-opacity="1" class="Black" />
      <path d="M448, 112L448, 400A16 16 0 0 1 432, 416L64, 416A64 64 0 0 1 0, 352L0, 160A64 64 0 0 1 64, 96L432, 96A16 16 0 0 1 448, 112z" fill="#727272" fill-opacity="1" class="Black" />
    </g>
  </g>
</svg>