<?xml version='1.0' encoding='UTF-8'?>
<svg viewBox="-2 0 32 32" xmlns="http://www.w3.org/2000/svg">
  <g transform="matrix(0.0625, 0, 0, 0.0625, 0, 0)">
    <defs>
      <style>.fa-secondary{opacity:.4}</style>
    </defs>
    <path d="M400, 32L48, 32A48 48 0 0 0 0, 80L0, 432A48 48 0 0 0 48, 480L400, 480A48 48 0 0 0 448, 432L448, 80A48 48 0 0 0 400, 32zM248, 384L248, 400A16 16 0 0 1 232, 416L216, 416A16 16 0 0 1 200, 400L200, 383.8A88.84 88.84 0 0 1 153.6, 368.7C144.9, 362.8 143.6, 350.6 151.3, 343.5L163.3, 332.2C168.7, 327.1 176.6, 326.8 183, 330.6A38.9 38.9 0 0 0 202.9, 336L247.9, 336C259.2, 336 268.4, 325.5 268.4, 312.6C268.4, 302 262.1, 292.7 253.2, 289.9L181, 268C152, 259.2 131.8, 231 131.8, 199.4C131.8, 160.1 162.4, 128.1 200, 128L200, 112A16 16 0 0 1 216, 96L232, 96A16 16 0 0 1 248, 112L248, 128.2A88.84 88.84 0 0 1 294.4, 143.3C303.1, 149.2 304.4, 161.4 296.7, 168.5L284.7, 179.8C279.3, 184.9 271.4, 185.2 265, 181.4A38.9 38.9 0 0 0 245.1, 176L200.1, 176C188.8, 176 179.6, 186.5 179.6, 199.4C179.6, 210 185.9, 219.3 194.8, 222.1L266.8, 244C295.8, 252.8 316, 281 316, 312.6C316.2, 351.9 285.6, 383.8 248, 384z" fill="#727272" opacity="0.4" fill-opacity="1" class="Black" />
    <path d="M248, 384L248, 400A16 16 0 0 1 232, 416L216, 416A16 16 0 0 1 200, 400L200, 383.8A88.84 88.84 0 0 1 153.6, 368.7C144.9, 362.8 143.6, 350.6 151.3, 343.5L163.3, 332.2C168.7, 327.1 176.6, 326.8 183, 330.6A38.9 38.9 0 0 0 202.9, 336L247.9, 336C259.2, 336 268.4, 325.5 268.4, 312.6C268.4, 302 262.1, 292.7 253.2, 289.9L181, 268C152, 259.2 131.8, 231 131.8, 199.4C131.8, 160.1 162.4, 128.1 200, 128L200, 112A16 16 0 0 1 216, 96L232, 96A16 16 0 0 1 248, 112L248, 128.2A88.84 88.84 0 0 1 294.4, 143.3C303.1, 149.2 304.4, 161.4 296.7, 168.5L284.7, 179.8C279.3, 184.9 271.4, 185.2 265, 181.4A38.9 38.9 0 0 0 245.1, 176L200.1, 176C188.8, 176 179.6, 186.5 179.6, 199.4C179.6, 210 185.9, 219.3 194.8, 222.1L266.8, 244C295.8, 252.8 316, 281 316, 312.6C316.2, 351.9 285.6, 383.8 248, 384z" fill="#727272" fill-opacity="1" class="Black" />
  </g>
</svg>