<?xml version='1.0' encoding='UTF-8'?>
<svg viewBox="-3.7505 -1.9998 32 31.9975" xmlns="http://www.w3.org/2000/svg">
  <g transform="matrix(0.0547, 0, 0, 0.0547, 0, 0)">
    <defs>
      <style>.fa-secondary{opacity:.4}</style>
    </defs>
    <path d="M296, 96L152, 96C125.5, 96 104, 113.9 104, 136L104, 160A96 96 0 0 0 200, 256L248, 256A96 96 0 0 0 344, 160L344, 136C344, 113.9 322.5, 96 296, 96zM188, 172L176, 208L164, 172L128, 160L164, 148L176, 112L188, 148L224, 160zM176, 448A16 16 0 0 0 160, 464L160, 512L192, 512L192, 464A16 16 0 0 0 176, 448zM272, 448A16 16 0 1 0 288, 464A16 16 0 0 0 272, 448z" fill="#727272" opacity="0.4" fill-opacity="1" class="Black" />
    <path d="M327.6, 321.4A190.68 190.68 0 0 1 120.4, 321.4C52.9, 328.5 0, 385 0, 454.4L0, 464A48 48 0 0 0 48, 512L128, 512L128, 448A32 32 0 0 1 160, 416L288, 416A32 32 0 0 1 320, 448L320, 512L400, 512A48 48 0 0 0 448, 464L448, 454.4C448, 385 395.1, 328.5 327.6, 321.4zM64, 224L77.5, 224A159.78 159.78 0 0 0 370.5, 224L384, 224A16 16 0 0 0 400, 208L400, 112A16 16 0 0 0 384, 96L370.5, 96A159.78 159.78 0 0 0 77.5, 96L64, 96A16 16 0 0 0 48, 112L48, 208A16 16 0 0 0 64, 224zM104, 136C104, 113.9 125.5, 96 152, 96L296, 96C322.5, 96 344, 113.9 344, 136L344, 160A96 96 0 0 1 248, 256L200, 256A96 96 0 0 1 104, 160z" fill="#727272" fill-opacity="1" class="Black" />
  </g>
</svg>