<?xml version='1.0' encoding='UTF-8'?>
<svg viewBox="-3.7495 -2 32 32" xmlns="http://www.w3.org/2000/svg">
  <g transform="matrix(0.0547, 0, 0, 0.0547, 0, 0)">
    <defs>
      <style>.fa-secondary{opacity:.4}</style>
    </defs>
    <path d="M406.2, 272A16 16 0 0 1 390.2, 288L307.86, 288C285.35, 307.68 256.24, 320 224, 320C191.76, 320 162.65, 307.68 140.14, 288L57.78, 288A16 16 0 0 1 43.5, 264.82C58.73, 235 74.78, 202.59 85.67, 169.28C85.81, 168.85 85.93, 168.43 86.07, 168L144, 168L144, 192A80 80 0 0 0 304, 192L304, 168L362, 168C362.14, 168.43 362.26, 168.85 362.4, 169.28C373.27, 202.59 389.32, 234.97 404.55, 264.82A15.88 15.88 0 0 1 406.2, 272z" fill="#727272" opacity="0.4" fill-opacity="1" class="Black" />
    <path d="M319.41, 320L224, 415.39L128.59, 320C57.1, 323.1 0, 381.6 0, 453.79A58.21 58.21 0 0 0 58.21, 512L389.79, 512A58.21 58.21 0 0 0 448, 453.79C448, 381.6 390.9, 323.1 319.41, 320zM352, 97.2L352, 48L224, 0L96, 48L96, 97.2A269.12 269.12 0 0 1 93.34, 136L354.67, 136A267.71 267.71 0 0 1 352, 97.2zM264, 88.33A5 5 0 0 1 259, 93.33L237.33, 93.33L237.33, 115A5 5 0 0 1 232.33, 120L215.67, 120A5 5 0 0 1 210.67, 115L210.67, 93.33L189, 93.33A5 5 0 0 1 184, 88.33L184, 71.67A5 5 0 0 1 189, 66.67L210.67, 66.67L210.67, 45A5 5 0 0 1 215.67, 40L232.33, 40A5 5 0 0 1 237.33, 45L237.33, 66.67L259, 66.67A5 5 0 0 1 264, 71.67z" fill="#727272" fill-opacity="1" class="Black" />
  </g>
</svg>