<?xml version='1.0' encoding='UTF-8'?>
<svg viewBox="-1.9974 -4.7956 31.9975 32" xmlns="http://www.w3.org/2000/svg">
  <g transform="matrix(0.9989, 0, 0, 0.9989, 0, 0)">
    <g transform="matrix(0.0438, 0, 0, 0.0438, 0, 0)">
      <defs>
        <style>.fa-secondary{opacity:.4}</style>
      </defs>
      <path d="M192.47, 117A128 128 0 1 1 362.79, 248.66zM96, 422.4L96, 464A48 48 0 0 0 144, 512L494.2, 512L207.37, 290.3C144.17, 301.3 96, 356 96, 422.4z" fill="#727272" opacity="0.4" fill-opacity="1" class="Black" />
      <path d="M636.67, 480.4L617.07, 505.7A16.06 16.06 0 0 1 594.57, 508.5L6.17, 53.8A15.93 15.93 0 0 1 3.37, 31.4L23, 6.2A16.06 16.06 0 0 1 45.5, 3.4L633.8, 458.1A15.85 15.85 0 0 1 636.67, 480.4z" fill="#727272" fill-opacity="1" class="Black" />
    </g>
  </g>
</svg>