<?xml version='1.0' encoding='UTF-8'?>
<svg viewBox="-2 -4.8008 32 31.9975" xmlns="http://www.w3.org/2000/svg">
  <g transform="matrix(0.9989, 0, 0, 0.9989, 0, 0)">
    <g transform="matrix(0.0438, 0, 0, 0.0438, 0, 0)">
      <defs>
        <style>.fa-secondary{opacity:.4}</style>
      </defs>
      <path d="M636.3, 356.1L610.5, 341.2A117.31 117.31 0 0 0 610.5, 298.6L636.3, 283.7A7.24 7.24 0 0 0 639.6, 275.2A150.07 150.07 0 0 0 606.4, 217.8A7.29 7.29 0 0 0 597.4, 216.4L571.6, 231.3A117.4 117.4 0 0 0 534.7, 210L534.7, 180.2A7.28 7.28 0 0 0 529, 173.1A150.88 150.88 0 0 0 462.8, 173.1A7.28 7.28 0 0 0 457.1, 180.2L457.1, 210A117.4 117.4 0 0 0 420.2, 231.3L394.4, 216.4A7.31 7.31 0 0 0 385.4, 217.8A150.07 150.07 0 0 0 352.2, 275.2A7.37 7.37 0 0 0 355.5, 283.7L381.3, 298.6A117.31 117.31 0 0 0 381.3, 341.2L355.5, 356.1A7.24 7.24 0 0 0 352.2, 364.6A150.82 150.82 0 0 0 385.4, 422A7.29 7.29 0 0 0 394.4, 423.4L420.2, 408.5A117.4 117.4 0 0 0 457.1, 429.8L457.1, 459.6A7.28 7.28 0 0 0 462.8, 466.7A150.88 150.88 0 0 0 529, 466.7A7.28 7.28 0 0 0 534.7, 459.6L534.7, 429.8A117.4 117.4 0 0 0 571.6, 408.5L597.4, 423.4A7.31 7.31 0 0 0 606.4, 422A150.07 150.07 0 0 0 639.6, 364.6A7.37 7.37 0 0 0 636.3, 356.1zM496, 368.4A48.5 48.5 0 1 1 544.5, 319.9A48.55 48.55 0 0 1 496, 368.4z" fill="#727272" opacity="0.4" fill-opacity="1" class="Black" />
      <path d="M320, 255.9C321.9, 255.9 323.7, 255.4 325.6, 255.3A184.35 184.35 0 0 1 361.9, 196.1A39.41 39.41 0 0 1 390.8, 183.5A38.44 38.44 0 0 1 410.4, 188.8L418.3, 193.4C419.1, 192.9 419.9, 192.5 420.7, 192A110.69 110.69 0 0 0 431.9, 144A112 112 0 1 0 320, 255.9zM173.1, 274.5A63.81 63.81 0 0 0 128, 255.9L64, 255.9A64.06 64.06 0 0 0 0, 319.9L0, 351.9A32 32 0 0 0 32, 383.9L97.9, 383.9A146.64 146.64 0 0 1 173.1, 274.5zM96, 223.9A64 64 0 1 0 32, 159.9A64.06 64.06 0 0 0 96, 223.9zM425.2, 450.4C422.9, 449.2 420.6, 447.8 418.4, 446.5C410.2, 451.3 403.1, 456.3 390.9, 456.3A39.75 39.75 0 0 1 362, 443.7A182.34 182.34 0 0 1 321.8, 374.1C311.1, 339.6 346.7, 324.4 347.6, 323.8Q347.45, 319.9 347.6, 316L339.7, 311.4A40.73 40.73 0 0 1 329.9, 303.3C326.6, 303.5 323.4, 303.9 320.1, 303.9C295.5, 303.9 272.5, 297.9 251.6, 287.9L243.3, 287.9A115.25 115.25 0 0 0 128, 403.1L128, 431.9A48 48 0 0 0 176, 479.9L431.4, 479.9A38.5 38.5 0 0 1 425.2, 459.6z" fill="#727272" fill-opacity="1" class="Black" />
    </g>
  </g>
</svg>