<?xml version='1.0' encoding='UTF-8'?>
<svg viewBox="-2 -4.7992 32 32" xmlns="http://www.w3.org/2000/svg">
  <g transform="matrix(0.9988, 0, 0, 0.9988, 0, 0)">
    <g transform="matrix(0.0438, 0, 0, 0.0438, 0, 0)">
      <defs>
        <style>.fa-secondary{opacity:.4}</style>
      </defs>
      <path d="M592, 0L208, 0C181.53, 0 160, 22.25 160, 49.59L160, 96C183.42, 96 205.1, 102.78 224, 113.8L224, 64L576, 64L576, 352L307.76, 352A127.45 127.45 0 0 1 347.45, 416L592, 416C618.47, 416 640, 393.75 640, 366.41L640, 49.59C640, 22.25 618.47, 0 592, 0zM312, 217.94L367, 272.94A24 24 0 0 0 401, 273L473, 201L497.3, 225.3C508.64, 236.64 528.03, 228.61 528.03, 212.57L528.03, 124A12 12 0 0 0 516.03, 112L427.46, 112C411.46, 112 403.39, 131.39 414.73, 142.73L439, 167L384, 222L329, 167A24 24 0 0 0 295, 167L280.25, 181.75C285, 195.07 288, 209.13 288, 224A126.17 126.17 0 0 1 286, 243.95z" fill="#727272" opacity="0.4" fill-opacity="1" class="Black" />
      <path d="M160, 320A96 96 0 1 0 64, 224A96 96 0 0 0 160, 320zM208, 352L204.19, 352C190.26, 356.83 175.55, 360 160, 360C144.45, 360 129.74, 356.83 115.81, 352L112, 352A112 112 0 0 0 0, 464A48 48 0 0 0 48, 512L272, 512A48 48 0 0 0 320, 464A112 112 0 0 0 208, 352z" fill="#727272" fill-opacity="1" class="Black" />
    </g>
  </g>
</svg>