<?xml version='1.0' encoding='UTF-8'?>
<svg viewBox="-2 -4.7967 32 32" xmlns="http://www.w3.org/2000/svg">
  <g transform="matrix(0.9988, 0, 0, 0.9988, 0, 0)">
    <g transform="matrix(0.0438, 0, 0, 0.0438, 0, 0)">
      <defs>
        <style>.fa-secondary{opacity:.4}</style>
      </defs>
      <path d="M512, 224A128 128 0 1 0 640, 352A128 128 0 0 0 512, 224zM576, 368A5.33 5.33 0 0 1 570.67, 373.33L533.33, 373.33L533.33, 410.67A5.33 5.33 0 0 1 528, 416L496, 416A5.33 5.33 0 0 1 490.67, 410.67L490.67, 373.33L453.33, 373.33A5.33 5.33 0 0 1 448, 368L448, 336A5.33 5.33 0 0 1 453.33, 330.67L490.67, 330.67L490.67, 293.33A5.33 5.33 0 0 1 496, 288L528, 288A5.33 5.33 0 0 1 533.33, 293.33L533.33, 330.67L570.67, 330.67A5.33 5.33 0 0 1 576, 336z" fill="#727272" opacity="0.4" fill-opacity="1" class="Black" />
      <path d="M352, 352C352, 332.9 355.92, 314.83 362.09, 297.83A152.59 152.59 0 0 1 320, 304C295.4, 304 272.4, 298 251.5, 288L243.2, 288A115.23 115.23 0 0 0 128, 403.2L128, 432A48 48 0 0 0 176, 480L417, 480C377.78, 450.81 352, 404.53 352, 352zM96, 224A64 64 0 1 0 32, 160A64 64 0 0 0 96, 224zM173.1, 274.6A63.81 63.81 0 0 0 128, 256L64, 256A64.06 64.06 0 0 0 0, 320L0, 352A32 32 0 0 0 32, 384L97.9, 384A146.64 146.64 0 0 1 173.1, 274.6zM319.88, 256L320, 256A111.94 111.94 0 1 0 319.88, 256z" fill="#727272" fill-opacity="1" class="Black" />
    </g>
  </g>
</svg>