<?xml version='1.0' encoding='UTF-8'?>
<svg viewBox="-3.7495 -2 32 32" xmlns="http://www.w3.org/2000/svg">
  <g transform="matrix(0.0547, 0, 0, 0.0547, 0, 0)">
    <defs>
      <style>.fa-secondary{opacity:.4}</style>
    </defs>
    <path d="M304, 128L144, 128A32 32 0 0 1 176, 96L272, 96A32 32 0 0 1 304, 128z" fill="#727272" opacity="0.4" fill-opacity="1" class="Black" />
    <path d="M325.4, 289.2L224, 390.6L122.6, 289.2C54, 295.3 0, 352.2 0, 422.4L0, 464A48 48 0 0 0 48, 512L400, 512A48 48 0 0 0 448, 464L448, 422.4C448, 352.2 394, 295.3 325.4, 289.2zM32, 192A95.47 95.47 0 0 0 101.2, 162.3C116.3, 216.2 165.2, 256 224, 256A128 128 0 0 0 224, 0C173.6, 0 130.4, 29.4 109.5, 71.8A95.53 95.53 0 0 0 32, 32A95.74 95.74 0 0 0 75.1, 112A95.74 95.74 0 0 0 32, 192zM176, 96L272, 96A32 32 0 0 1 304, 128L144, 128A32 32 0 0 1 176, 96z" fill="#727272" fill-opacity="1" class="Black" />
  </g>
</svg>