<?xml version='1.0' encoding='UTF-8'?>
<svg viewBox="-3.7505 -1.9998 32 31.9975" xmlns="http://www.w3.org/2000/svg">
  <g transform="matrix(0.0547, 0, 0, 0.0547, 0, 0)">
    <defs>
      <style>.fa-secondary{opacity:.4}</style>
    </defs>
    <path d="M416, 192L416, 208A112.15 112.15 0 0 1 304, 320L208, 320A32 32 0 0 1 208, 256L240, 256A32 32 0 0 1 272, 288L304, 288A80.09 80.09 0 0 0 384, 208L384, 192C384, 103.78 312.22, 32 224, 32C135.78, 32 64, 103.78 64, 192L64, 208A16 16 0 0 1 32, 208L32, 192C32, 86.13 118.13, 0 224, 0C329.87, 0 416, 86.13 416, 192z" fill="#727272" opacity="0.4" fill-opacity="1" class="Black" />
    <path d="M320, 352L296.9, 352A174.1 174.1 0 0 1 151.1, 352L128, 352A128 128 0 0 0 0, 480A32 32 0 0 0 32, 512L416, 512A32 32 0 0 0 448, 480A128 128 0 0 0 320, 352zM144.35, 291.47C144.29, 290.3 144, 289.19 144, 288A64.07 64.07 0 0 1 208, 224L240, 224A64 64 0 0 1 295.41, 256L304, 256A48.05 48.05 0 0 0 352, 208L352, 192A128 128 0 0 0 96, 192C96, 232.42 115.1, 268 144.35, 291.47z" fill="#727272" fill-opacity="1" class="Black" />
  </g>
</svg>