<?xml version='1.0' encoding='UTF-8'?>
<svg viewBox="-1.9999 -1.549 31.9975 32" xmlns="http://www.w3.org/2000/svg">
  <g transform="matrix(0.999, 0, 0, 0.999, 0, 0)">
    <g transform="matrix(0.0565, 0, 0, 0.0565, 0, 0)">
      <defs>
        <style>.fa-secondary{opacity:.4}</style>
      </defs>
      <path d="M248, 8C111, 8 0, 119 0, 256C0, 393 111, 504 248, 504C385, 504 496, 393 496, 256C496, 119 385, 8 248, 8zM248, 104A88 88 0 1 1 160, 192A88 88 0 0 1 248, 104zM248, 448A191.61 191.61 0 0 1 101.5, 379.8C120.3, 344.4 157.1, 320 200, 320A24.76 24.76 0 0 1 207.1, 321.1A124.67 124.67 0 0 0 288.9, 321.1A24.76 24.76 0 0 1 296, 320C338.9, 320 375.7, 344.4 394.5, 379.8A191.61 191.61 0 0 1 248, 448z" fill="#727272" opacity="0.4" fill-opacity="1" class="Black" />
      <path d="M248, 280A88 88 0 1 0 160, 192A88 88 0 0 0 248, 280zM296, 320A24.76 24.76 0 0 0 288.9, 321.1A124.67 124.67 0 0 1 207.1, 321.1A24.76 24.76 0 0 0 200, 320C157.1, 320 120.3, 344.4 101.5, 379.8C169.57, 460.71 290.34, 471.12 371.25, 403.05A192 192 0 0 0 394.5, 379.8C375.7, 344.4 338.9, 320 296, 320z" fill="#727272" fill-opacity="1" class="Black" />
    </g>
  </g>
</svg>