<?xml version='1.0' encoding='UTF-8'?>
<svg viewBox="-1.9998 -4.7991 31.9975 32" xmlns="http://www.w3.org/2000/svg">
  <g transform="matrix(0.9989, 0, 0, 0.9989, 0, 0)">
    <g transform="matrix(0.0438, 0, 0, 0.0438, 0, 0)">
      <defs>
        <style>.fa-secondary{opacity:.4}</style>
      </defs>
      <path d="M635.2, 194.4L589.6, 240L635.2, 285.6A16.11 16.11 0 0 1 635.2, 308.4L612.4, 331.2A16.11 16.11 0 0 1 589.6, 331.2L544, 285.6L498.4, 331.2A16.11 16.11 0 0 1 475.6, 331.2L452.8, 308.4A16.11 16.11 0 0 1 452.8, 285.6L498.4, 240L452.8, 194.4A16.11 16.11 0 0 1 452.8, 171.6L475.6, 148.8A16.11 16.11 0 0 1 498.4, 148.8L544, 194.4L589.6, 148.8A16.11 16.11 0 0 1 612.4, 148.8L635.2, 171.6A16.11 16.11 0 0 1 635.2, 194.4z" fill="#727272" opacity="0.4" fill-opacity="1" class="Black" />
      <path d="M313.6, 288L296.9, 288A174.08 174.08 0 0 1 151.1, 288L134.4, 288A134.43 134.43 0 0 0 0, 422.4L0, 464A48 48 0 0 0 48, 512L400, 512A48 48 0 0 0 448, 464L448, 422.4A134.43 134.43 0 0 0 313.6, 288zM224, 256A128 128 0 1 0 96, 128A128 128 0 0 0 224, 256z" fill="#727272" fill-opacity="1" class="Black" />
    </g>
  </g>
</svg>