<?xml version='1.0' encoding='UTF-8'?>
<svg viewBox="-2 -4.7992 32 32" xmlns="http://www.w3.org/2000/svg">
  <g transform="matrix(0.9988, 0, 0, 0.9988, 0, 0)">
    <g transform="matrix(0.0438, 0, 0, 0.0438, 0, 0)">
      <defs>
        <style>.fa-secondary{opacity:.4}</style>
      </defs>
      <path d="M636.6, 159.6A12 12 0 0 1 636.5, 176.4L495.2, 316.6A11.86 11.86 0 0 1 478.4, 316.5L396.7, 234.2A11.86 11.86 0 0 1 396.8, 217.4L424.9, 189.5A11.86 11.86 0 0 1 441.7, 189.6L487.2, 235.4L592, 131.4A11.86 11.86 0 0 1 608.8, 131.5z" fill="#727272" opacity="0.4" fill-opacity="1" class="Black" />
      <path d="M224, 256A128 128 0 1 0 96, 128A128 128 0 0 0 224, 256zM313.6, 288L296.9, 288A174.08 174.08 0 0 1 151.1, 288L134.4, 288A134.43 134.43 0 0 0 0, 422.4L0, 464A48 48 0 0 0 48, 512L400, 512A48 48 0 0 0 448, 464L448, 422.4A134.43 134.43 0 0 0 313.6, 288z" fill="#727272" fill-opacity="1" class="Black" />
    </g>
  </g>
</svg>