<?xml version='1.0' encoding='UTF-8'?>
<svg viewBox="-2 -4.7992 32 32" xmlns="http://www.w3.org/2000/svg">
  <g transform="matrix(0.9988, 0, 0, 0.9988, 0, 0)">
    <g transform="matrix(0.0438, 0, 0, 0.0438, 0, 0)">
      <defs>
        <style>.fa-secondary{opacity:.4}</style>
      </defs>
      <path d="M496, 224A144 144 0 1 0 640, 368A143.91 143.91 0 0 0 496, 224zM560, 374.3A9.77 9.77 0 0 1 550.3, 384L489.7, 384A9.77 9.77 0 0 1 480, 374.3L480, 297.7A9.77 9.77 0 0 1 489.7, 288L502.3, 288A9.77 9.77 0 0 1 512, 297.7L512, 352L550.3, 352A9.77 9.77 0 0 1 560, 361.7z" fill="#727272" opacity="0.4" fill-opacity="1" class="Black" />
      <path d="M224, 256A128 128 0 1 0 96, 128A128 128 0 0 0 224, 256zM320, 368A175.38 175.38 0 0 1 338.2, 290.5A133.25 133.25 0 0 0 313.6, 288L296.9, 288A174.08 174.08 0 0 1 151.1, 288L134.4, 288A134.43 134.43 0 0 0 0, 422.4L0, 464A48 48 0 0 0 48, 512L395.1, 512C349.8, 480.1 320, 427.5 320, 368z" fill="#727272" fill-opacity="1" class="Black" />
    </g>
  </g>
</svg>