<?xml version='1.0' encoding='UTF-8'?>
<svg viewBox="-2 -4.7992 32 32" xmlns="http://www.w3.org/2000/svg">
  <g transform="matrix(0.9988, 0, 0, 0.9988, 0, 0)">
    <g transform="matrix(0.0438, 0, 0, 0.0438, 0, 0)">
      <defs>
        <style>.fa-secondary{opacity:.4}</style>
      </defs>
      <path d="M96, 224A64 64 0 1 0 32, 160A64.06 64.06 0 0 0 96, 224zM576, 256L512, 256A63.81 63.81 0 0 0 466.9, 274.6A146.27 146.27 0 0 1 542, 384L608, 384A32 32 0 0 0 640, 352L640, 320A64.06 64.06 0 0 0 576, 256zM64, 256A64.06 64.06 0 0 0 0, 320L0, 352A32 32 0 0 0 32, 384L97.9, 384A146.64 146.64 0 0 1 173.1, 274.6A63.81 63.81 0 0 0 128, 256zM544, 224A64 64 0 1 0 480, 160A64.06 64.06 0 0 0 544, 224z" fill="#727272" opacity="0.4" fill-opacity="1" class="Black" />
      <path d="M396.8, 288L388.5, 288A157.53 157.53 0 0 1 320, 304C295.4, 304 272.4, 298 251.5, 288L243.2, 288A115.23 115.23 0 0 0 128, 403.2L128, 432A48 48 0 0 0 176, 480L464, 480A48 48 0 0 0 512, 432L512, 403.2A115.23 115.23 0 0 0 396.8, 288zM320, 256A112 112 0 1 0 208, 144A111.94 111.94 0 0 0 320, 256z" fill="#727272" fill-opacity="1" class="Black" />
    </g>
  </g>
</svg>