<?xml version='1.0' encoding='UTF-8'?>
<svg viewBox="-2 -4.7992 32 32" xmlns="http://www.w3.org/2000/svg">
  <g transform="matrix(0.9988, 0, 0, 0.9988, 0, 0)">
    <g transform="matrix(0.0438, 0, 0, 0.0438, 0, 0)">
      <defs>
        <style>.fa-secondary{opacity:.4}</style>
      </defs>
      <path d="M358.9, 433.3L352.1, 494.3A15.92 15.92 0 0 0 369.7, 511.9L430.6, 505.1L568.5, 367.2L496.8, 295.5zM633, 268.9L595.1, 231A24 24 0 0 0 561.3, 231L523.5, 268.8L519.4, 272.9L591.2, 344.6L633, 302.8A24.08 24.08 0 0 0 633, 268.9z" fill="#727272" opacity="0.4" fill-opacity="1" class="Black" />
      <path d="M313.6, 288L296.9, 288A174.08 174.08 0 0 1 151.1, 288L134.4, 288A134.43 134.43 0 0 0 0, 422.4L0, 464A48 48 0 0 0 48, 512L322.9, 512A48 48 0 0 1 320.3, 490.7L327.1, 429.8L328.3, 418.7L413.5, 333.5C389, 305.8 353.5, 288 313.6, 288zM224, 256A128 128 0 1 0 96, 128A128 128 0 0 0 224, 256z" fill="#727272" fill-opacity="1" class="Black" />
    </g>
  </g>
</svg>