<?xml version='1.0' encoding='UTF-8'?>
<svg viewBox="-2 -4.7992 32 32" xmlns="http://www.w3.org/2000/svg">
  <g transform="matrix(0.9988, 0, 0, 0.9988, 0, 0)">
    <g transform="matrix(0.0438, 0, 0, 0.0438, 0, 0)">
      <defs>
        <style>.fa-secondary{opacity:.4}</style>
      </defs>
      <path d="M608, 217A95.26 95.26 0 0 0 544, 192L544, 64L96, 64L96, 192A95.28 95.28 0 0 0 32, 217L32, 49.59C32, 22.25 53.53, 0 80, 0L560, 0C586.47, 0 608, 22.25 608, 49.59z" fill="#727272" opacity="0.4" fill-opacity="1" class="Black" />
      <path d="M576, 384L512, 384A64 64 0 0 0 448, 448L448, 480A32 32 0 0 0 480, 512L608, 512A32 32 0 0 0 640, 480L640, 448A64 64 0 0 0 576, 384zM544, 352A64 64 0 1 0 480, 288A64 64 0 0 0 544, 352zM352, 384L288, 384A64 64 0 0 0 224, 448L224, 480A32 32 0 0 0 256, 512L384, 512A32 32 0 0 0 416, 480L416, 448A64 64 0 0 0 352, 384zM128, 384L64, 384A64 64 0 0 0 0, 448L0, 480A32 32 0 0 0 32, 512L160, 512A32 32 0 0 0 192, 480L192, 448A64 64 0 0 0 128, 384zM320, 352A64 64 0 1 0 256, 288A64 64 0 0 0 320, 352zM96, 352A64 64 0 1 0 32, 288A64 64 0 0 0 96, 352z" fill="#727272" fill-opacity="1" class="Black" />
    </g>
  </g>
</svg>