<?xml version='1.0' encoding='UTF-8'?>
<svg viewBox="-1.9998 -4.8014 31.9975 32" xmlns="http://www.w3.org/2000/svg">
  <g transform="matrix(0.9988, 0, 0, 0.9988, 0, 0)">
    <g transform="matrix(0.0438, 0, 0, 0.0438, 0, 0)">
      <defs>
        <style>.fa-secondary{opacity:.4}</style>
      </defs>
      <path d="M630.6, 364.9L540.3, 274.7A64 64 0 0 0 495, 256L415.7, 256A32 32 0 0 0 383.7, 288L383.7, 367.2A63.79 63.79 0 0 0 402.4, 412.4L492.7, 502.6A32 32 0 0 0 538, 502.6L630.5, 410.1A31.84 31.84 0 0 0 630.6, 364.9zM447.8, 343.9A24 24 0 1 1 471.8, 319.9A23.94 23.94 0 0 1 447.8, 343.9z" fill="#727272" opacity="0.4" fill-opacity="1" class="Black" />
      <path d="M379.9, 435A95.37 95.37 0 0 1 351.8, 367.1L351.8, 294C339.6, 290.4 326.9, 287.8 313.6, 287.8L296.9, 287.8A174.08 174.08 0 0 1 151.1, 287.8L134.4, 287.8A134.58 134.58 0 0 0 0, 422.3L0, 463.9A48 48 0 0 0 48, 511.9L400, 511.9A47.78 47.78 0 0 0 437.9, 493zM224, 255.9A128 128 0 1 0 96, 128A128 128 0 0 0 224, 255.9z" fill="#727272" fill-opacity="1" class="Black" />
    </g>
  </g>
</svg>