<?xml version='1.0' encoding='UTF-8'?>
<svg viewBox="-3.7495 -2 32 32" xmlns="http://www.w3.org/2000/svg">
  <g transform="matrix(0.0547, 0, 0, 0.0547, 0, 0)">
    <defs>
      <style>.fa-secondary{opacity:.4}</style>
    </defs>
    <path d="M191.35, 414.77L208, 344L176, 288L272, 288L240, 344L256.65, 414.77L224, 480zM224, 256A128 128 0 1 0 96, 128A128 128 0 0 0 224, 256z" fill="#727272" opacity="0.4" fill-opacity="1" class="Black" />
    <path d="M319.8, 288.6L224, 480L128.2, 288.6C56.9, 292 0, 350.3 0, 422.4L0, 464A48 48 0 0 0 48, 512L400, 512A48 48 0 0 0 448, 464L448, 422.4C448, 350.3 391.1, 292 319.8, 288.6z" fill="#727272" fill-opacity="1" class="Black" />
  </g>
</svg>