<?xml version='1.0' encoding='UTF-8'?>
<svg viewBox="-2 -4.7992 32 32" xmlns="http://www.w3.org/2000/svg">
  <g transform="matrix(0.9988, 0, 0, 0.9988, 0, 0)">
    <g transform="matrix(0.0438, 0, 0, 0.0438, 0, 0)">
      <defs>
        <style>.fa-secondary{opacity:.4}</style>
      </defs>
      <path d="M512, 0C441.31, 0 384, 50.15 384, 112C384, 140.76 396.75, 166.72 417.11, 186.55A312.19 312.19 0 0 1 385.82, 241.92A9.85 9.85 0 0 0 384.57, 250.99C385.66, 254.12 388, 255.99 390.68, 255.99C430.52, 255.99 463.03, 238.86 485.9, 221.63A146.46 146.46 0 0 0 512, 224C582.69, 224 640, 173.85 640, 112C640, 50.15 582.69, 0 512, 0zM144, 370.6L144, 288L134.4, 288A135.6 135.6 0 0 0 112, 289.87L112, 370.6A56 56 0 1 0 144, 370.6zM128, 448A24 24 0 1 1 152, 424A23.94 23.94 0 0 1 128, 448zM352, 128A128 128 0 1 0 224, 256A128 128 0 0 0 352, 128zM319.8, 362.4L319.8, 288.15C317.74, 288.05 315.68, 288 313.6, 288L296.9, 288Q292.52, 290 288, 291.79L288, 362.2C259.8, 369.7 240, 396.7 240, 426.8L240, 456A16.06 16.06 0 0 0 244.7, 467.3L255, 477.6A8 8 0 0 0 266.3, 477.6L277.6, 466.3A8 8 0 0 0 277.6, 455L271.9, 449.3L271.9, 424A32.14 32.14 0 0 1 309.3, 392.4C325, 395 335.9, 409.8 335.9, 425.7L335.9, 449.3L330.2, 455A8 8 0 0 0 330.2, 466.3L341.5, 477.6A8 8 0 0 0 352.8, 477.6L363.1, 467.3A16.06 16.06 0 0 0 367.8, 456L367.8, 424A63.8 63.8 0 0 0 319.8, 362.4z" fill="#727272" opacity="0.4" fill-opacity="1" class="Black" />
      <path d="M319.8, 288.15L319.8, 362.4A63.8 63.8 0 0 1 367.8, 424L367.8, 456A16.06 16.06 0 0 1 363.1, 467.3L352.8, 477.6A8 8 0 0 1 341.5, 477.6L330.2, 466.3A8 8 0 0 1 330.2, 455L335.9, 449.3L335.9, 425.7C335.9, 409.8 325, 395 309.3, 392.4A32.14 32.14 0 0 0 271.9, 424L271.9, 449.3L277.6, 455A8 8 0 0 1 277.6, 466.3L266.3, 477.6A8 8 0 0 1 255, 477.6L244.7, 467.3A16.06 16.06 0 0 1 240, 456L240, 426.8C240, 396.7 259.8, 369.7 288, 362.2L288, 291.79A174 174 0 0 1 151.1, 288L144, 288L144, 370.6A56 56 0 1 1 112, 370.6L112, 289.87A134.47 134.47 0 0 0 0, 422.4L0, 464A48 48 0 0 0 48, 512L400, 512A48 48 0 0 0 448, 464L448, 422.4A134.44 134.44 0 0 0 319.8, 288.15zM104, 424A24 24 0 1 0 128, 400A23.94 23.94 0 0 0 104, 424z" fill="#727272" fill-opacity="1" class="Black" />
    </g>
  </g>
</svg>