<?xml version='1.0' encoding='UTF-8'?>
<svg viewBox="-2 -1.9987 32 32" xmlns="http://www.w3.org/2000/svg">
  <g transform="matrix(0.0547, 0, 0, 0.0547, 0, 0)">
    <defs>
      <style>.fa-secondary{opacity:.4}</style>
    </defs>
    <path d="M446.15, 269.48C405.54, 310.09 310.06, 314.4 253.83, 258.17C197.6, 201.94 201.9, 106.46 242.52, 65.85C310.4, -2 423.86, -24.33 480.09, 31.91C536.32, 88.15 514, 201.6 446.15, 269.48z" fill="#727272" opacity="0.4" fill-opacity="1" class="Black" />
    <path d="M293.78, 285.89L98.8, 503A27.26 27.26 0 0 1 60.3, 505C59.96, 504.69 59.63, 504.38 59.3, 504.05L8, 452.78A27.18 27.18 0 0 1 7.88, 414.34C8.24, 413.98 8.62, 413.62 9, 413.28L226.14, 218.28A136.7 136.7 0 0 0 293.8, 285.93z" fill="#727272" fill-opacity="1" class="Black" />
  </g>
</svg>