<?xml version='1.0' encoding='UTF-8'?>
<svg viewBox="-2 -3.5518 32 31.9975" xmlns="http://www.w3.org/2000/svg">
  <g transform="matrix(0.0486, 0, 0, 0.0486, 0, 0)">
    <defs>
      <style>.fa-secondary{opacity:.4}</style>
    </defs>
    <path d="M74.8, 424A32 32 0 0 0 73.4, 470.6L105.4, 502.6A32 32 0 0 0 152, 501.2L269.5, 368.5L212.9, 301.7zM546.5, 94.82L452.7, 176C451.2, 177.4 446.8, 173 448.1, 171.4L526.9, 74.5C539.3, 59.2 516.5, 36.7 501.4, 49L404.5, 127.8C402.8, 129.2 398.5, 124.7 399.8, 123.2L481, 29.42C493.8, 14.72 472.3, -8.58 456.2, 3.22C452.3, 6.02 379.3, 57.72 357.5, 79.42C324.2, 112.72 320, 151.52 341.4, 187.82C311, 214.72 321.8, 205.22 293, 230.72L347, 280.82C373.5, 250.82 361.4, 264.62 388, 234.52C423, 255.22 462.3, 252.62 496.5, 218.32C518.2, 196.62 569.9, 123.72 572.7, 119.72C584.5, 103.52 561.2, 82.12 546.5, 94.82z" fill="#727272" opacity="0.4" fill-opacity="1" class="Black" />
    <path d="M501.7, 424.42A32 32 0 0 1 502.5, 470.52L470.5, 502.52A32.09 32.09 0 0 1 424.5, 501.82C405.4, 479.22 223.9, 265.32 216, 256C56, 256 0, 165.92 0, 32.12C0, 4.22 33.3, -10.38 53.8, 8.62z" fill="#727272" fill-opacity="1" class="Black" />
  </g>
</svg>