<?xml version='1.0' encoding='UTF-8'?>
<svg viewBox="-4.6273 -2.0075 32 32" xmlns="http://www.w3.org/2000/svg">
  <g transform="matrix(0.0547, 0, 0, 0.0547, 0, 0)">
    <defs>
      <style>.fa-secondary{opacity:.4}</style>
    </defs>
    <path d="M416, 24L416, 488A23.94 23.94 0 0 1 392, 512L336, 512A24 24 0 0 1 312.1, 486L327.1, 300.9C170.6, 178.5 309.5, 0 392, 0A24 24 0 0 1 416, 24z" fill="#727272" opacity="0.4" fill-opacity="1" class="Black" />
    <path d="M207.9, 15.2C208.7, 19.9 224, 109.7 224, 144C224, 196.3 196.2, 233.6 155.1, 248.6L168, 486.7A24.06 24.06 0 0 1 144, 512L80, 512A24.06 24.06 0 0 1 56, 486.7L68.9, 248.6C27.7, 233.6 0, 196.2 0, 144C0, 109.6 15.3, 19.9 16.1, 15.2C19.3, -5.1 61.4, -5.4 64, 16.3L64, 157.5C65.3, 160.9 79.1, 160.7 80, 157.5C81.4, 132.2 87.9, 18.3 88, 15.7C91.3, -5.1 132.7, -5.1 135.9, 15.7C136.1, 18.4 142.5, 132.2 143.9, 157.5C144.8, 160.7 158.7, 160.9 159.9, 157.5L159.9, 16.3C162.5, -5.3 204.7, -5.1 207.9, 15.2z" fill="#727272" fill-opacity="1" class="Black" />
  </g>
</svg>