<?xml version='1.0' encoding='UTF-8'?>
<svg viewBox="-2 -1.9988 32 32" xmlns="http://www.w3.org/2000/svg">
  <g transform="matrix(0.0547, 0, 0, 0.0547, 0, 0)">
    <defs>
      <style>.fa-secondary{opacity:.4}</style>
    </defs>
    <path d="M48, 32L16, 32A16 16 0 0 0 0, 48L0, 464A16 16 0 0 0 16, 480L48, 480A16 16 0 0 0 64, 464L64, 48A16 16 0 0 0 48, 32zM496, 32L464, 32A16 16 0 0 0 448, 48L448, 464A16 16 0 0 0 464, 480L496, 480A16 16 0 0 0 512, 464L512, 48A16 16 0 0 0 496, 32z" fill="#727272" opacity="0.4" fill-opacity="1" class="Black" />
    <path d="M377.3, 183.22L304.52, 256L377.3, 328.78A22.88 22.88 0 0 1 377.3, 361.13L361.13, 377.3A22.88 22.88 0 0 1 328.78, 377.3L256, 304.52L183.22, 377.3A22.88 22.88 0 0 1 150.87, 377.3L134.7, 361.13A22.88 22.88 0 0 1 134.7, 328.78L207.48, 256L134.7, 183.22A22.88 22.88 0 0 1 134.7, 150.87L150.87, 134.7A22.88 22.88 0 0 1 183.22, 134.7L256, 207.48L328.78, 134.7A22.88 22.88 0 0 1 361.13, 134.7L377.3, 150.87A22.88 22.88 0 0 1 377.3, 183.22z" fill="#727272" fill-opacity="1" class="Black" />
  </g>
</svg>