<?xml version='1.0' encoding='UTF-8'?>
<svg viewBox="-2 -1.9988 32 32" xmlns="http://www.w3.org/2000/svg">
  <g transform="matrix(0.0547, 0, 0, 0.0547, 0, 0)">
    <defs>
      <style>.fa-secondary{opacity:.4}</style>
    </defs>
    <path d="M0, 160L0, 400A48 48 0 0 0 48, 448L464, 448A48 48 0 0 0 512, 400L512, 160zM128, 384L79.14, 384C60, 362.74 48, 334.88 48, 304C48, 273.12 60, 245.27 79.14, 224L128, 224zM320, 384L192, 384L192, 224L320, 224zM432.86, 384L384, 384L384, 224L432.86, 224C452, 245.26 464, 273.12 464, 304C464, 334.88 452, 362.73 432.86, 384z" fill="#727272" opacity="0.4" fill-opacity="1" class="Black" />
    <path d="M496, 64L16, 64A16 16 0 0 0 0, 80L0, 160L512, 160L512, 80A16 16 0 0 0 496, 64zM384, 224L384, 258.94A47.73 47.73 0 0 1 384, 349.06L384, 384L432.86, 384C452, 362.73 464, 334.87 464, 304C464, 273.13 452, 245.26 432.86, 224zM48, 304C48, 334.88 60, 362.74 79.14, 384L128, 384L128, 349.06A47.73 47.73 0 0 1 128, 258.94L128, 224L79.14, 224C60, 245.27 48, 273.13 48, 304z" fill="#727272" fill-opacity="1" class="Black" />
  </g>
</svg>