<?xml version='1.0' encoding='UTF-8'?>
<svg viewBox="-1.9975 -4.7998 32 32" xmlns="http://www.w3.org/2000/svg">
  <g transform="matrix(1.0013, 0, 0, 1.0013, 0, 0)">
    <g transform="matrix(0.0437, 0, 0, 0.0437, 0, 0)">
      <defs>
        <style>.fa-secondary{opacity:.4}</style>
      </defs>
      <path d="M448, 314.49L448, 177.3L557.6, 101.7C578.9, 87.1 608, 102.1 608, 127.5L608, 384.4C608, 401.79 594.41, 414.24 579, 415.78zM416, 289.75L416, 111.8A47.8 47.8 0 0 0 368.2, 64L123.91, 64zM32, 400.17A47.8 47.8 0 0 0 79.77, 448L368.17, 448A47.45 47.45 0 0 0 397.77, 437.5L32, 154.67z" fill="#727272" opacity="0.4" fill-opacity="1" class="Black" />
      <path d="M3.37, 31.37L23, 6.17A16.06 16.06 0 0 1 45.5, 3.37L633.8, 458.07A15.85 15.85 0 0 1 636.6, 480.47L617, 505.77A16.06 16.06 0 0 1 594.5, 508.57L6.17, 53.77A15.93 15.93 0 0 1 3.37, 31.37z" fill="#727272" fill-opacity="1" class="Black" />
    </g>
  </g>
</svg>