<?xml version='1.0' encoding='UTF-8'?>
<svg viewBox="-2 -3.554 32 32" xmlns="http://www.w3.org/2000/svg">
  <g transform="matrix(0.0486, 0, 0, 0.0486, 0, 0)">
    <defs>
      <style>.fa-secondary{opacity:.4}</style>
    </defs>
    <path d="M525.6, 101.8L416, 177.3L416, 334.7L525.6, 410.2C546.9, 424.8 576, 409.9 576, 384.4L576, 127.5C576, 102.1 546.9, 87.1 525.6, 101.8zM288, 232L216, 232L216, 160A16 16 0 0 0 200, 144L184, 144A16 16 0 0 0 168, 160L168, 232L96, 232A16 16 0 0 0 80, 248L80, 264A16 16 0 0 0 96, 280L168, 280L168, 352A16 16 0 0 0 184, 368L200, 368A16 16 0 0 0 216, 352L216, 280L288, 280A16 16 0 0 0 304, 264L304, 248A16 16 0 0 0 288, 232z" fill="#727272" opacity="0.4" fill-opacity="1" class="Black" />
    <path d="M336.2, 64L47.8, 64A47.8 47.8 0 0 0 0, 111.8L0, 400.2A47.8 47.8 0 0 0 47.8, 448L336.2, 448A47.8 47.8 0 0 0 384, 400.2L384, 111.8A47.8 47.8 0 0 0 336.2, 64zM304, 264A16 16 0 0 1 288, 280L216, 280L216, 352A16 16 0 0 1 200, 368L184, 368A16 16 0 0 1 168, 352L168, 280L96, 280A16 16 0 0 1 80, 264L80, 248A16 16 0 0 1 96, 232L168, 232L168, 160A16 16 0 0 1 184, 144L200, 144A16 16 0 0 1 216, 160L216, 232L288, 232A16 16 0 0 1 304, 248z" fill="#727272" fill-opacity="1" class="Black" />
  </g>
</svg>