<?xml version='1.0' encoding='UTF-8'?>
<svg viewBox="-1.9975 -4.0987 32 32" xmlns="http://www.w3.org/2000/svg">
  <g transform="matrix(1.0012, 0, 0, 1.0012, 0, 0)">
    <g transform="matrix(0.0437, 0, 0, 0.0437, 0, 0)">
      <defs>
        <style>.fa-secondary{opacity:.4}</style>
      </defs>
      <path d="M496, 224A48 48 0 1 0 544, 272A48.05 48.05 0 0 0 496, 224zM144, 224A48 48 0 1 0 192, 272A48.05 48.05 0 0 0 144, 224z" fill="#727272" opacity="0.4" fill-opacity="1" class="Black" />
      <path d="M496, 128A144 144 0 0 0 376.26, 352L263.74, 352A144 144 0 1 0 144, 416L496, 416A144 144 0 0 0 496, 128zM64, 272A80 80 0 1 1 144, 352A80 80 0 0 1 64, 272zM496, 352A80 80 0 1 1 576, 272A80 80 0 0 1 496, 352z" fill="#727272" fill-opacity="1" class="Black" />
    </g>
  </g>
</svg>