<?xml version='1.0' encoding='UTF-8'?>
<svg viewBox="-1.9998 -3.5411 31.9975 32" xmlns="http://www.w3.org/2000/svg">
  <g transform="matrix(0.0486, 0, 0, 0.0486, 0, 0)">
    <defs>
      <style>.fa-secondary{opacity:.4}</style>
    </defs>
    <path d="M0, 328L0, 184A24 24 0 0 1 24, 160L126.06, 160L215.06, 71.05C230.06, 56.05 256.06, 66.56 256.06, 88.05L256.06, 424C256.06, 445.44 230.12, 456 215.06, 441L126.06, 352.05L24, 352.05A24 24 0 0 1 0, 328z" fill="#727272" opacity="0.4" fill-opacity="1" class="Black" />
    <path d="M338.23, 179.13A24 24 0 1 0 315.07, 221.19A39.42 39.42 0 0 1 315.07, 290.81A24 24 0 1 0 338.23, 332.87A87.43 87.43 0 0 0 338.23, 179.13zM480, 256A184.64 184.64 0 0 0 394.23, 99.76A23.9 23.9 0 0 0 361.11, 107.22A24.29 24.29 0 0 0 368.52, 140.58A136.67 136.67 0 0 1 368.52, 371.42A24.28 24.28 0 0 0 361.11, 404.78A23.94 23.94 0 0 0 394.23, 412.24A184.62 184.62 0 0 0 480, 256zM448.35, 20A24.2 24.2 0 1 0 421.79, 60.46A233.65 233.65 0 0 1 421.79, 451.62A24.2 24.2 0 1 0 448.35, 492A282 282 0 0 0 448.35, 19.93z" fill="#727272" fill-opacity="1" class="Black" />
  </g>
</svg>