<?xml version='1.0' encoding='UTF-8'?>
<svg viewBox="-1.995 -4.7973 31.9975 32" xmlns="http://www.w3.org/2000/svg">
  <g transform="matrix(0.999, 0, 0, 0.999, 0, 0)">
    <g transform="matrix(0.0438, 0, 0, 0.0438, 0, 0)">
      <defs>
        <style>.fa-secondary{opacity:.4}</style>
      </defs>
      <path d="M393.11, 107.22A23.9 23.9 0 0 1 426.23, 99.76A185.33 185.33 0 0 1 488.74, 346L450.09, 316.1A136.7 136.7 0 0 0 400.52, 140.58A24.29 24.29 0 0 1 393.11, 107.22zM453.79, 60.43A233.7 233.7 0 0 1 526.79, 375.43L565.31, 405.21A282.1 282.1 0 0 0 480.35, 20A24.2 24.2 0 1 0 453.79, 60.46zM347.07, 221.19A40 40 0 0 1 367.82, 252.51L410.74, 285.69A86.79 86.79 0 0 0 416, 256A87.89 87.89 0 0 0 370.22, 179.14A24 24 0 1 0 347.06, 221.2zM288, 190.82L288, 88C288, 66.54 262, 56 247, 71L197.3, 120.69zM32, 184L32, 328A24 24 0 0 0 56, 352L158.06, 352L247, 441C262, 456 288, 445.47 288, 424L288, 352.6L43.76, 163.84C36.86, 168.05 32, 175.32 32, 184z" fill="#727272" opacity="0.4" fill-opacity="1" class="Black" />
      <path d="M594.54, 508.63L6.18, 53.9A16 16 0 0 1 3.37, 31.45L23, 6.18A16 16 0 0 1 45.47, 3.37L633.82, 458.1A16 16 0 0 1 636.64, 480.55L617, 505.82A16 16 0 0 1 594.54, 508.63z" fill="#727272" fill-opacity="1" class="Black" />
    </g>
  </g>
</svg>