<?xml version='1.0' encoding='UTF-8'?>
<svg viewBox="-1.9999 -4.7979 32 31.9975" xmlns="http://www.w3.org/2000/svg">
  <g transform="matrix(1.0011, 0, 0, 1.0011, 0, 0)">
    <g transform="matrix(0.0437, 0, 0, 0.0437, 0, 0)">
      <defs>
        <style>.fa-secondary{opacity:.4}</style>
      </defs>
      <path d="M512, 64.3A32.29 32.29 0 0 0 479.7, 32L160.4, 32A32.37 32.37 0 0 0 128, 64.3L128, 384L512, 384zM428.8, 164.8L300.5, 292A10.65 10.65 0 0 1 285.3, 291.9L211.2, 217.2A10.65 10.65 0 0 1 211.2, 202L236.7, 176.7A10.65 10.65 0 0 1 251.9, 176.8L293.2, 218.4L388.4, 124A10.65 10.65 0 0 1 403.6, 124.1L428.9, 149.6A10.65 10.65 0 0 1 428.8, 164.8z" fill="#727272" opacity="0.4" fill-opacity="1" class="Black" />
      <path d="M285.3, 291.9A10.65 10.65 0 0 0 300.5, 292L428.8, 164.8A10.65 10.65 0 0 0 428.9, 149.6L403.6, 124.1A10.65 10.65 0 0 0 388.4, 124L293.2, 218.4L251.9, 176.8A10.65 10.65 0 0 0 236.7, 176.7L211.2, 202A10.65 10.65 0 0 0 211.2, 217.2zM608, 320L544, 320L544, 384L566.4, 384C571.7, 384 576, 387.6 576, 392L576, 408C576, 412.4 571.7, 416 566.4, 416L73.6, 416C68.3, 416 64, 412.4 64, 408L64, 392C64, 387.6 68.3, 384 73.6, 384L96, 384L96, 320L32, 320A32 32 0 0 0 0, 352L0, 448A32 32 0 0 0 32, 480L608, 480A32 32 0 0 0 640, 448L640, 352A32 32 0 0 0 608, 320z" fill="#727272" fill-opacity="1" class="Black" />
    </g>
  </g>
</svg>