<?xml version='1.0' encoding='UTF-8'?>
<svg viewBox="-1.9999 -4.7979 32 31.9975" xmlns="http://www.w3.org/2000/svg">
  <g transform="matrix(1.0011, 0, 0, 1.0011, 0, 0)">
    <g transform="matrix(0.0437, 0, 0, 0.0437, 0, 0)">
      <defs>
        <style>.fa-secondary{opacity:.4}</style>
      </defs>
      <path d="M512, 64.3A32.29 32.29 0 0 0 479.7, 32L160.4, 32A32.37 32.37 0 0 0 128, 64.3L128, 384L512, 384zM404.8, 281.5L393.5, 292.8A16.06 16.06 0 0 1 370.9, 292.8L320, 241.9L269.1, 292.8A16.06 16.06 0 0 1 246.5, 292.8L235.2, 281.5A16.06 16.06 0 0 1 235.2, 258.9L286.1, 208L235.1, 157.1A16.06 16.06 0 0 1 235.1, 134.5L246.4, 123.2A16.06 16.06 0 0 1 269, 123.2L319.9, 174.1L370.8, 123.2A16.06 16.06 0 0 1 393.4, 123.2L404.7, 134.5A16.06 16.06 0 0 1 404.7, 157.1L353.9, 208L404.8, 258.9A16.06 16.06 0 0 1 404.8, 281.5z" fill="#727272" opacity="0.4" fill-opacity="1" class="Black" />
      <path d="M286.1, 208L235.2, 258.9A16.06 16.06 0 0 0 235.2, 281.5L246.5, 292.8A16.06 16.06 0 0 0 269.1, 292.8L320, 241.9L370.9, 292.8A16.06 16.06 0 0 0 393.5, 292.8L404.8, 281.5A16.06 16.06 0 0 0 404.8, 258.9L353.9, 208L404.7, 157.1A16.06 16.06 0 0 0 404.7, 134.5L393.4, 123.2A16.06 16.06 0 0 0 370.8, 123.2L319.9, 174.1L269, 123.2A16.06 16.06 0 0 0 246.4, 123.2L235.1, 134.5A16.06 16.06 0 0 0 235.1, 157.1zM608, 320L544, 320L544, 384L566.4, 384C571.7, 384 576, 387.6 576, 392L576, 408C576, 412.4 571.7, 416 566.4, 416L73.6, 416C68.3, 416 64, 412.4 64, 408L64, 392C64, 387.6 68.3, 384 73.6, 384L96, 384L96, 320L32, 320A32 32 0 0 0 0, 352L0, 448A32 32 0 0 0 32, 480L608, 480A32 32 0 0 0 640, 448L640, 352A32 32 0 0 0 608, 320z" fill="#727272" fill-opacity="1" class="Black" />
    </g>
  </g>
</svg>