<?xml version='1.0' encoding='UTF-8'?>
<svg viewBox="-1.9999 -4.7979 32 31.9975" xmlns="http://www.w3.org/2000/svg">
  <g transform="matrix(1.0011, 0, 0, 1.0011, 0, 0)">
    <g transform="matrix(0.0437, 0, 0, 0.0437, 0, 0)">
      <defs>
        <style>.fa-secondary{opacity:.4}</style>
      </defs>
      <path d="M608, 64L32, 64A32 32 0 0 0 0, 96L0, 416A32 32 0 0 0 32, 448L192.22, 448A64 64 0 0 0 250.58, 410.26L278.32, 348.62C286.21, 331.08 302.32, 320 320, 320C337.68, 320 353.79, 331.08 361.68, 348.62L389.42, 410.26A64 64 0 0 0 447.78, 448L608, 448A32 32 0 0 0 640, 416L640, 96A32 32 0 0 0 608, 64zM160, 304A64 64 0 1 1 224, 240A64 64 0 0 1 160, 304zM480, 304A64 64 0 1 1 544, 240A64 64 0 0 1 480, 304z" fill="#727272" opacity="0.4" fill-opacity="1" class="Black" />
      <path d="M160, 176A64 64 0 1 0 224, 240A64 64 0 0 0 160, 176zM480, 176A64 64 0 1 0 544, 240A64 64 0 0 0 480, 176z" fill="#727272" fill-opacity="1" class="Black" />
    </g>
  </g>
</svg>