<?xml version='1.0' encoding='UTF-8'?>
<svg viewBox="-7.2453 -2 32 32" xmlns="http://www.w3.org/2000/svg">
  <g transform="matrix(0.9991, 0, 0, 0.9991, 0, 0)">
    <g transform="matrix(0.0547, 0, 0, 0.0547, 0, 0)">
      <defs>
        <style>.fa-secondary{opacity:.4}</style>
      </defs>
      <path d="M208, 0A48 48 0 1 1 160, 48A48 48 0 0 1 208, 0z" fill="#727272" opacity="0.4" fill-opacity="1" class="Black" />
      <path d="M73.58, 385.8A62.05 62.05 0 0 1 59.38, 407.3L9.38, 457.4A32 32 0 0 0 54.58, 502.7L114, 443.3A64.82 64.82 0 0 0 128.19, 421.8L141.69, 388C86.4, 327.7 103, 346.2 94.29, 334.3zM302.48, 245.1L279.17, 233.3L269.48, 203.9C254.77, 159.3 213.77, 128.1 167.27, 128C131.27, 127.9 111.38, 138.1 73.98, 153.2A95.41 95.41 0 0 0 24.27, 199.4L17.58, 213A32.1 32.1 0 0 0 31.77, 255.9A31.56 31.56 0 0 0 74.27, 241.6L81, 228A31.75 31.75 0 0 1 97.5, 212.6L124.29, 201.8L109.1, 262.5A64.22 64.22 0 0 0 124, 321.3L183.9, 386.7A64.52 64.52 0 0 1 198.79, 414.4L217.1, 487.7A32 32 0 1 0 279.19, 472.2L257, 383.2A64.07 64.07 0 0 0 242.1, 355.5L196.6, 305.8L213.79, 237.1L219.29, 253.6A63.83 63.83 0 0 0 251, 290.6L274.29, 302.4A31.56 31.56 0 0 0 316.79, 288.1A32.37 32.37 0 0 0 302.48, 245.1z" fill="#727272" fill-opacity="1" class="Black" />
    </g>
  </g>
</svg>