<?xml version='1.0' encoding='UTF-8'?>
<svg viewBox="-3.7495 -2 32 32" xmlns="http://www.w3.org/2000/svg">
  <g transform="matrix(0.0547, 0, 0, 0.0547, 0, 0)">
    <defs>
      <style>.fa-secondary{opacity:.4}</style>
    </defs>
    <path d="M298, 300A51.75 51.75 0 0 0 334.11, 285.31A110.76 110.76 0 0 1 336, 304A112 112 0 0 1 112, 304A110.76 110.76 0 0 1 113.89, 285.31A51.79 51.79 0 0 0 187.13, 284.31A51.23 51.23 0 0 0 260.87, 284.31A51.81 51.81 0 0 0 298, 300z" fill="#727272" opacity="0.4" fill-opacity="1" class="Black" />
    <path d="M384, 0L64, 0A64 64 0 0 0 0, 64L0, 480A32 32 0 0 0 32, 512L416, 512A32 32 0 0 0 448, 480L448, 64A64 64 0 0 0 384, 0zM184, 64A24 24 0 1 1 160, 88A24 24 0 0 1 184, 64zM64, 88A24 24 0 1 1 88, 112A24 24 0 0 1 64, 88zM224, 448A144 144 0 1 1 368, 304A144 144 0 0 1 224, 448z" fill="#727272" fill-opacity="1" class="Black" />
  </g>
</svg>