<?xml version='1.0' encoding='UTF-8'?>
<svg viewBox="-5.5002 -1.9999 32 32" xmlns="http://www.w3.org/2000/svg">
  <g transform="matrix(0.0547, 0, 0, 0.0547, 0, 0)">
    <defs>
      <style>.fa-secondary{opacity:.4}</style>
    </defs>
    <path d="M320, 80L64, 80A64 64 0 0 0 0, 144L0, 368A64 64 0 0 0 64, 432L320, 432A64 64 0 0 0 384, 368L384, 144A64 64 0 0 0 320, 80zM120, 368A8 8 0 0 1 112, 376L80, 376A8 8 0 0 1 72, 368L72, 336A8 8 0 0 1 80, 328L112, 328A8 8 0 0 1 120, 336zM120, 272A8 8 0 0 1 112, 280L80, 280A8 8 0 0 1 72, 272L72, 240A8 8 0 0 1 80, 232L112, 232A8 8 0 0 1 120, 240zM216, 368A8 8 0 0 1 208, 376L176, 376A8 8 0 0 1 168, 368L168, 336A8 8 0 0 1 176, 328L208, 328A8 8 0 0 1 216, 336zM216, 272A8 8 0 0 1 208, 280L176, 280A8 8 0 0 1 168, 272L168, 240A8 8 0 0 1 176, 232L208, 232A8 8 0 0 1 216, 240zM312, 368A8 8 0 0 1 304, 376L272, 376A8 8 0 0 1 264, 368L264, 336A8 8 0 0 1 272, 328L304, 328A8 8 0 0 1 312, 336zM312, 272A8 8 0 0 1 304, 280L272, 280A8 8 0 0 1 264, 272L264, 240A8 8 0 0 1 272, 232L304, 232A8 8 0 0 1 312, 240zM312, 176A8 8 0 0 1 304, 184L80, 184A8 8 0 0 1 72, 176L72, 144A8 8 0 0 1 80, 136L304, 136A8 8 0 0 1 312, 144z" fill="#727272" opacity="0.4" fill-opacity="1" class="Black" />
    <path d="M64, 480A32 32 0 0 0 96, 512L288, 512A32 32 0 0 0 320, 480L320, 432L64, 432zM288, 0L96, 0A32 32 0 0 0 64, 32L64, 80L320, 80L320, 32A32 32 0 0 0 288, 0zM72, 368A8 8 0 0 0 80, 376L112, 376A8 8 0 0 0 120, 368L120, 336A8 8 0 0 0 112, 328L80, 328A8 8 0 0 0 72, 336zM80, 280L112, 280A8 8 0 0 0 120, 272L120, 240A8 8 0 0 0 112, 232L80, 232A8 8 0 0 0 72, 240L72, 272A8 8 0 0 0 80, 280zM168, 368A8 8 0 0 0 176, 376L208, 376A8 8 0 0 0 216, 368L216, 336A8 8 0 0 0 208, 328L176, 328A8 8 0 0 0 168, 336zM176, 280L208, 280A8 8 0 0 0 216, 272L216, 240A8 8 0 0 0 208, 232L176, 232A8 8 0 0 0 168, 240L168, 272A8 8 0 0 0 176, 280zM264, 368A8 8 0 0 0 272, 376L304, 376A8 8 0 0 0 312, 368L312, 336A8 8 0 0 0 304, 328L272, 328A8 8 0 0 0 264, 336zM272, 280L304, 280A8 8 0 0 0 312, 272L312, 240A8 8 0 0 0 304, 232L272, 232A8 8 0 0 0 264, 240L264, 272A8 8 0 0 0 272, 280z" fill="#727272" fill-opacity="1" class="Black" />
  </g>
</svg>