<?xml version='1.0' encoding='UTF-8'?>
<svg viewBox="-5.5002 -1.9999 32 32" xmlns="http://www.w3.org/2000/svg">
  <g transform="matrix(0.0547, 0, 0, 0.0547, 0, 0)">
    <defs>
      <style>.fa-secondary{opacity:.4}</style>
    </defs>
    <path d="M320, 80L64, 80A64 64 0 0 0 0, 144L0, 368A64 64 0 0 0 64, 432L320, 432A64 64 0 0 0 384, 368L384, 144A64 64 0 0 0 320, 80zM286.57, 262.21L201.9, 347.85A13.89 13.89 0 0 1 182.26, 348.01L182.1, 347.85L97.43, 262.21A60.64 60.64 0 0 1 98.1, 176.45Q99.85, 174.73 101.76, 173.13C125.76, 153.13 161.41, 156.71 183.38, 178.94L192, 187.66L200.62, 178.94C222.62, 156.71 258.28, 153.12 282.24, 173.13A60.64 60.64 0 0 1 289.89, 258.55Q288.31, 260.44 286.57, 262.21z" fill="#727272" opacity="0.4" fill-opacity="1" class="Black" />
    <path d="M182.26, 348A13.89 13.89 0 0 0 201.9, 347.84L286.57, 262.2Q288.31, 260.43 289.89, 258.54A60.64 60.64 0 0 0 282.24, 173.12C258.24, 153.12 222.62, 156.7 200.62, 178.93L192, 187.66L183.38, 178.94C161.38, 156.71 125.76, 153.13 101.76, 173.13Q99.85, 174.72 98.1, 176.45A60.64 60.64 0 0 0 97.43, 262.21L182.1, 347.85zM64, 480A32 32 0 0 0 96, 512L288, 512A32 32 0 0 0 320, 480L320, 432L64, 432zM288, 0L96, 0A32 32 0 0 0 64, 32L64, 80L320, 80L320, 32A32 32 0 0 0 288, 0z" fill="#727272" fill-opacity="1" class="Black" />
  </g>
</svg>