<?xml version='1.0' encoding='UTF-8'?>
<svg viewBox="-5.499 -2 32 32" xmlns="http://www.w3.org/2000/svg">
  <g transform="matrix(0.0547, 0, 0, 0.0547, 0, 0)">
    <defs>
      <style>.fa-secondary{opacity:.4}</style>
    </defs>
    <path d="M192, 80A176 176 0 1 0 368, 256A176 176 0 0 0 192, 80zM263.8, 299.8L245, 325.7A11.91 11.91 0 0 1 228.38, 328.43L228.2, 328.3L168.9, 285.1A12 12 0 0 1 164, 275.4L164, 160A12 12 0 0 1 176, 148L208, 148A12 12 0 0 1 220, 160L220, 253L261.2, 283A12.07 12.07 0 0 1 263.8, 299.8z" fill="#727272" opacity="0.4" fill-opacity="1" class="Black" />
    <path d="M208, 148L176, 148A12 12 0 0 0 164, 160L164, 275.4A12 12 0 0 0 168.9, 285.1L228.2, 328.3L228.38, 328.43A11.91 11.91 0 0 0 245, 325.7L263.8, 299.8A12.07 12.07 0 0 0 261.2, 283L220, 253L220, 160A12 12 0 0 0 208, 148zM192, 432A175.5 175.5 0 0 1 64, 376.79L64, 488A23.94 23.94 0 0 0 87.88, 512L296, 512A23.94 23.94 0 0 0 320, 488.12L320, 376.79A175.5 175.5 0 0 1 192, 432zM296.12, 0L88, 0A23.94 23.94 0 0 0 64, 23.88L64, 135.21A176 176 0 0 1 320, 135.21L320, 24A23.94 23.94 0 0 0 296.12, 0z" fill="#727272" fill-opacity="1" class="Black" />
  </g>
</svg>