<?xml version='1.0' encoding='UTF-8'?>
<svg viewBox="-2 -3.554 32 31.9975" xmlns="http://www.w3.org/2000/svg">
  <g transform="matrix(0.0486, 0, 0, 0.0486, 0, 0)">
    <defs>
      <style>.fa-secondary{opacity:.4}</style>
    </defs>
    <path d="M562.2, 95.86C570.3, 96.76 576.1, 104.16 576, 112.16L576, 143.77C576, 152.87 568.4, 160.57 559.3, 159.77A185 185 0 0 1 480.18, 134C425.18, 168.11 344.66, 168.61 288.18, 134C233.18, 168.11 152.66, 168.61 96.18, 134C72.87, 148.5 45.57, 157.4 16.76, 159.9C7.66, 160.7 0.06, 153 0.06, 143.9L0.06, 111.66C0.06, 103.76 5.76, 96.76 13.66, 95.96C35.37, 93.66 55.87, 85.76 71.37, 73.55C85.17, 62.65 104.98, 60.35 118.48, 71.55C156.79, 103.26 225.7, 103.36 263.71, 73.25C277.41, 62.35 296.91, 60.25 310.41, 71.45C348.92, 103.36 418.23, 103.36 456.14, 72.95A38.79 38.79 0 0 1 504.35, 72.95C520.15, 85.36 540.75, 93.36 562.26, 95.86z" fill="#727272" opacity="0.4" fill-opacity="1" class="Black" />
    <path d="M562.2, 383.93C540.69, 381.53 520.09, 373.43 504.29, 361.02A38.79 38.79 0 0 0 456.08, 361.02C418.17, 391.43 348.86, 391.43 310.35, 359.52C296.85, 348.32 277.35, 350.42 263.65, 361.32C225.65, 391.43 156.73, 391.32 118.42, 359.62C104.92, 348.42 85.11, 350.72 71.31, 361.62C55.81, 373.83 35.31, 381.73 13.6, 384.03C5.7, 384.83 0, 391.83 0, 399.73L0, 431.94C0, 441.04 7.6, 448.74 16.7, 447.94C45.51, 445.44 72.81, 436.54 96.12, 422.04C152.63, 456.65 233.12, 456.14 288.12, 422.04C344.63, 456.65 425.12, 456.14 480.12, 422.04A185 185 0 0 0 559.24, 447.84C568.34, 448.64 575.94, 440.94 575.94, 431.84L575.94, 400.23C576.1, 392.23 570.3, 384.83 562.2, 383.93zM562.2, 239.93C540.69, 237.53 520.09, 229.43 504.29, 217.03A38.79 38.79 0 0 0 456.08, 217.03C418.17, 247.44 348.86, 247.44 310.35, 215.53C296.85, 204.32 277.35, 206.43 263.65, 217.33C225.65, 247.44 156.73, 247.33 118.42, 215.63C104.92, 204.42 85.11, 206.73 71.31, 217.63C55.81, 229.83 35.31, 237.73 13.6, 240.03C5.7, 240.79 0, 247.8 0, 255.7L0, 287.9C0, 297.01 7.6, 304.71 16.7, 303.9C45.51, 301.4 72.81, 292.5 96.12, 277.99C152.63, 312.6 233.12, 312.1 288.12, 277.99C344.63, 312.6 425.12, 312.1 480.12, 277.99A184.83 184.83 0 0 0 559.24, 303.8C568.34, 304.6 575.94, 296.9 575.94, 287.8L575.94, 256.2C576.1, 248.2 570.3, 240.79 562.2, 239.89z" fill="#727272" fill-opacity="1" class="Black" />
  </g>
</svg>