<?xml version='1.0' encoding='UTF-8'?>
<svg viewBox="-2 -4.798 32 32" xmlns="http://www.w3.org/2000/svg">
  <g transform="matrix(0.9988, 0, 0, 0.9988, 0, 0)">
    <g transform="matrix(0.0438, 0, 0, 0.0438, 0, 0)">
      <defs>
        <style>.fa-secondary{opacity:.4}</style>
      </defs>
      <path d="M195.41, 64.23A24 24 0 0 0 168.25, 84.61L140.06, 281.94L167.53, 419.3A23.82 23.82 0 0 1 167.53, 428.09C167.53, 427.84 167.72, 427.64 167.76, 427.39L215.76, 91.39A24 24 0 0 0 195.41, 64.23zM99.66, 160.28A24 24 0 0 0 72.28, 180.34L59.41, 264L16, 264A16 16 0 0 0 0, 280L0, 296A16 16 0 0 0 16, 312L80, 312A24 24 0 0 0 103.71, 291.65L119.71, 187.65A24 24 0 0 0 99.66, 160.28zM451.78, 64.28A23.94 23.94 0 0 0 424.31, 84.18L385.77, 325.11L407.77, 484.72A23.61 23.61 0 0 1 407.26, 493C407.35, 492.57 407.61, 492.23 407.68, 491.8L471.68, 91.8A24 24 0 0 0 451.78, 64.3zM548.72, 160.45A23.91 23.91 0 0 0 520.47, 179.28L499.94, 281.94L519.75, 420.61A23.84 23.84 0 0 1 519.25, 429.43C519.31, 429.17 519.48, 428.97 519.53, 428.7L567.53, 188.7A24 24 0 0 0 548.72, 160.47zM323.28, 0.22A24 24 0 0 0 296.22, 20.72L254.22, 325.11L279.69, 484.2A23.78 23.78 0 0 1 279.35, 492.59C279.44, 492.12 279.72, 491.75 279.78, 491.28L343.78, 27.28A24 24 0 0 0 323.28, 0.22z" fill="#727272" opacity="0.4" fill-opacity="1" class="Black" />
      <path d="M119.31, 178.78A23.7 23.7 0 0 1 119.72, 187.65L103.72, 291.65A23.94 23.94 0 0 1 95.91, 305.88L120.47, 428.7A24 24 0 0 0 144, 448A23.39 23.39 0 0 0 148.75, 447.53A24 24 0 0 0 167.56, 419.3L119.56, 179.3C119.49, 179.1 119.36, 179 119.31, 178.78zM215.31, 83.1A23.65 23.65 0 0 1 215.78, 91.39L193.34, 248.24L232.34, 491.8A24 24 0 0 0 256, 512A23.56 23.56 0 0 0 259.81, 511.7A24 24 0 0 0 279.72, 484.2L215.72, 84.2C215.63, 83.8 215.36, 83.5 215.28, 83.1zM624, 264L580.59, 264L567.72, 180.34C567.72, 180.14 567.55, 179.99 567.52, 179.79A23.83 23.83 0 0 1 567.52, 188.7L544.1, 305.88A23.87 23.87 0 0 0 560, 312L624, 312A16 16 0 0 0 640, 296L640, 280A16 16 0 0 0 624, 264zM343.28, 19.29A23.66 23.66 0 0 1 343.78, 27.29L320, 199.7L360.22, 491.28A24 24 0 0 0 384, 512A26.66 26.66 0 0 0 387.31, 511.78A24 24 0 0 0 407.81, 484.72L343.81, 20.72C343.71, 20.2 343.39, 19.8 343.28, 19.29zM471.35, 83.48A23.86 23.86 0 0 1 471.69, 91.8L446.69, 248.24L472.28, 427.39A24 24 0 0 0 496, 448A27 27 0 0 0 499.44, 447.77A24 24 0 0 0 519.78, 420.61L471.78, 84.61C471.69, 84.2 471.43, 83.88 471.35, 83.48z" fill="#727272" fill-opacity="1" class="Black" />
    </g>
  </g>
</svg>