<?xml version='1.0' encoding='UTF-8'?>
<svg viewBox="-1.9975 -4.7973 32 32" xmlns="http://www.w3.org/2000/svg">
  <g transform="matrix(0.999, 0, 0, 0.999, 0, 0)">
    <g transform="matrix(0.0438, 0, 0, 0.0438, 0, 0)">
      <defs>
        <style>.fa-secondary{opacity:.4}</style>
      </defs>
      <path d="M464, 480L463.66, 480A32 32 0 0 1 438.41, 467.2L175.41, 116.55L53.73, 281.88A16 16 0 0 1 31.27, 284.58L6.12, 264.82A16 16 0 0 1 3.42, 242.35L150.84, 44.23A32 32 0 0 1 176, 32L176.34, 32A32 32 0 0 1 201.59, 44.8L464.59, 395.45L586.27, 230.12A16 16 0 0 1 608.73, 227.42L633.88, 247.18A16 16 0 0 1 636.58, 269.65L489.16, 467.77A32 32 0 0 1 464, 480z" fill="#727272" opacity="0.4" fill-opacity="1" class="Black" />
    </g>
  </g>
</svg>