<?xml version='1.0' encoding='UTF-8'?>
<svg viewBox="-3.7495 -2 32 32" xmlns="http://www.w3.org/2000/svg">
  <g transform="matrix(0.0547, 0, 0, 0.0547, 0, 0)">
    <defs>
      <style>.fa-secondary{opacity:.4}</style>
    </defs>
    <path d="M224, 96A128 128 0 1 0 352, 224A128 128 0 0 0 224, 96zM224, 176A48.05 48.05 0 0 0 176, 224A16 16 0 0 1 144, 224A80.09 80.09 0 0 1 224, 144A16 16 0 1 1 224, 176z" fill="#727272" opacity="0.4" fill-opacity="1" class="Black" />
    <path d="M401, 438.6L351.81, 407.85C409.88, 367.39 448, 300.19 448, 224C448, 100.29 347.71, 0 224, 0C100.29, 0 0, 100.29 0, 224C0, 300.19 38.12, 367.39 96.23, 407.85L47, 438.6A32 32 0 0 0 32, 465.74L32, 480A32 32 0 0 0 64, 512L384, 512A32 32 0 0 0 416, 480L416, 465.74A32 32 0 0 0 401, 438.6zM224, 384A160 160 0 1 1 384, 224A160 160 0 0 1 224, 384z" fill="#727272" fill-opacity="1" class="Black" />
  </g>
</svg>