<?xml version='1.0' encoding='UTF-8'?>
<svg viewBox="-2 -2 32 32" xmlns="http://www.w3.org/2000/svg">
  <g transform="matrix(0.0547, 0, 0, 0.0547, 0, 0)">
    <defs>
      <style>.fa-secondary{opacity:.4}</style>
    </defs>
    <path d="M256, 320A160 160 0 1 0 96, 160A160 160 0 0 0 256, 320zM255.72, 168L289.28, 89.7A16 16 0 0 1 318.72, 102.29L285.14, 180.62A40 40 0 1 1 255.72, 168z" fill="#727272" opacity="0.4" fill-opacity="1" class="Black" />
    <path d="M512, 128L512, 448A64.07 64.07 0 0 1 448, 512L64, 512A64.07 64.07 0 0 1 0, 448L0, 128A64.07 64.07 0 0 1 64, 64L90, 64A190.6 190.6 0 0 0 64, 160C64, 265.87 150.13, 352 256, 352C361.87, 352 448, 265.87 448, 160A190.6 190.6 0 0 0 422, 64L448, 64A64.07 64.07 0 0 1 512, 128zM256, 248A40 40 0 0 0 285.14, 180.62L318.72, 102.29A16 16 0 0 0 289.28, 89.7L255.72, 168A40 40 0 0 0 256, 248z" fill="#727272" fill-opacity="1" class="Black" />
  </g>
</svg>