<?xml version='1.0' encoding='UTF-8'?>
<svg viewBox="-2 -2.6992 32 32" xmlns="http://www.w3.org/2000/svg">
  <g transform="matrix(0.9988, 0, 0, 0.9988, 0, 0)">
    <g transform="matrix(0.0438, 0, 0, 0.0438, 0, 0)">
      <defs>
        <style>.fa-secondary{opacity:.4}</style>
      </defs>
      <path d="M544, 192C301, 192 228.71, 416 163.88, 416A35.92 35.92 0 0 1 128, 380.11L128, 282.11L177.75, 251.6A32 32 0 0 0 192, 225L192, 144A16 16 0 0 0 167.12, 130.69L96, 178.11L24.88, 130.69A16 16 0 0 0 0, 144L0, 225A32 32 0 0 0 14.25, 251.6L64, 282.12L64, 380.12A100 100 0 0 0 163.88, 480L576, 480A64 64 0 0 0 640, 416L640, 288A96.11 96.11 0 0 0 544, 192zM432, 360A24 24 0 1 1 456, 336A24 24 0 0 1 432, 360z" fill="#727272" opacity="0.4" fill-opacity="1" class="Black" />
      <path d="M432, 312A24 24 0 1 0 456, 336A24 24 0 0 0 432, 312z" fill="#727272" fill-opacity="1" class="Black" />
    </g>
  </g>
</svg>