<?xml version='1.0' encoding='UTF-8'?>
<svg viewBox="-1.9998 -4.8004 31.9975 32" xmlns="http://www.w3.org/2000/svg">
  <g transform="matrix(0.9989, 0, 0, 0.9989, 0, 0)">
    <g transform="matrix(0.0438, 0, 0, 0.0438, 0, 0)">
      <defs>
        <style>.fa-secondary{opacity:.4}</style>
      </defs>
      <path d="M634, 326.36L484, 206.36A16.16 16.16 0 0 0 465.8, 205.16L438.4, 221.37A8 8 0 0 1 429.3, 220.77L404.1, 200.56A8 8 0 0 1 401.5, 191.66L411.7, 162.15A16 16 0 0 0 406.6, 144.45L320, 80.8C257.4, 40.7 178.3, 37.9 113, 71.5C100.9, 56.9 83.2, 48 64, 48A64.06 64.06 0 0 0 0, 112A63.27 63.27 0 0 0 23, 161C-17.1, 239.24 -4.5, 337.56 61, 403C150.8, 492.82 312.11, 484.42 387.51, 371L537.92, 457A15.93 15.93 0 0 0 558.62, 452.7L636.82, 348.37A16 16 0 0 0 634, 326.36zM40.4, 133.22A31.86 31.86 0 0 1 85.5, 88.3C67.7, 101.31 55.6, 112.62 40.4, 133.22zM208, 352A96 96 0 1 1 304, 256A96 96 0 0 1 208, 352z" fill="#727272" opacity="0.4" fill-opacity="1" class="Black" />
      <path d="M208, 160A96 96 0 1 0 304, 256A96 96 0 0 0 208, 160zM208, 304A48 48 0 1 1 256, 256A48 48 0 0 1 208, 304z" fill="#727272" fill-opacity="1" class="Black" />
    </g>
  </g>
</svg>