<?xml version='1.0' encoding='UTF-8'?>
<svg viewBox="-1.9925 -4.7962 32 32" xmlns="http://www.w3.org/2000/svg">
  <g transform="matrix(0.9991, 0, 0, 0.9991, 0, 0)">
    <g transform="matrix(0.0438, 0, 0, 0.0438, 0, 0)">
      <defs>
        <style>.fa-secondary{opacity:.4}</style>
      </defs>
      <path d="M635.3, 177.9L601.1, 211.9C594.9, 218 585.1, 218.1 578.7, 212.3C432.7, 78.6 207.4, 78.6 61.5, 212.3C55.1, 218.2 45.3, 218 39.1, 211.9L4.9, 177.9L4.4, 177.4C-1.6, 171 -1.2, 160.9 5.3, 154.9C182.2, -8.9 457.7, -9 634.9, 154.9C635.1, 155.1 635.3, 155.2 635.4, 155.4C641.6, 161.7 641.5, 171.7 635.3, 177.9z" fill="#727272" opacity="0.4" fill-opacity="1" class="Black" />
      <path d="M320, 352C284.7, 352 256, 380.7 256, 416C256, 451.3 284.7, 480 320, 480C355.3, 480 384, 451.3 384, 416C384, 380.7 355.3, 352 320, 352zM523.5, 269.2L522.7, 268.4C407.4, 166.5 232.5, 166.6 117.4, 268.4C110.9, 274.2 110.3, 284.2 116, 290.7C116.3, 291 116.5, 291.3 116.8, 291.5L151.2, 325.5C157.2, 331.4 166.8, 331.8 173.2, 326.3C257.2, 253.7 382.9, 253.9 466.7, 326.3C473.1, 331.8 482.7, 331.5 488.7, 325.5L523.1, 291.5C529.5, 285.5 529.6, 275.5 523.5, 269.2z" fill="#727272" fill-opacity="1" class="Black" />
    </g>
  </g>
</svg>