<?xml version='1.0' encoding='UTF-8'?>
<svg viewBox="-1.9974 -4.7944 32 31.995" xmlns="http://www.w3.org/2000/svg">
  <g transform="matrix(0.9989, 0, 0, 0.9989, 0, 0)">
    <g transform="matrix(0.0438, 0, 0, 0.0438, 0, 0)">
      <defs>
        <style>.fa-secondary{opacity:.4}</style>
      </defs>
      <path d="M320, 352C284.7, 352 256, 380.7 256, 416C256, 451.3 284.7, 480 320, 480C355.3, 480 384, 451.3 384, 416C384, 380.7 355.3, 352 320, 352zM522.7, 268.4C407.4, 166.5 232.5, 166.6 117.4, 268.4C110.9, 274.2 110.3, 284.2 116, 290.7C116.3, 291 116.5, 291.3 116.8, 291.5L151.2, 325.5C157.2, 331.4 166.8, 331.8 173.2, 326.3C257.2, 253.7 382.9, 253.9 466.7, 326.3C473.1, 331.8 482.7, 331.5 488.7, 325.5L523.1, 291.5C529.3, 285.4 529.5, 275.4 523.4, 269.1L522.7, 268.4zM635.4, 155.4C635.2, 155.2 635, 155.1 634.9, 154.9C457.7, -9 182.2, -8.9 5.1, 154.9C-1.3, 160.9 -1.7, 170.9 4.2, 177.4C4.4, 177.6 4.5, 177.8 4.7, 177.9L38.9, 211.9C45.1, 218 54.9, 218.1 61.3, 212.3C207.2, 78.6 432.6, 78.6 578.5, 212.3C584.9, 218.2 594.7, 218 600.9, 211.9L635.1, 177.9C641.5, 171.7 641.6, 161.7 635.4, 155.4z" fill="#727272" fill-opacity="1" class="Black" />
    </g>
  </g>
</svg>