<?xml version='1.0' encoding='UTF-8'?>
<svg viewBox="-2 -4.7992 32 32" xmlns="http://www.w3.org/2000/svg">
  <g transform="matrix(1.0011, 0, 0, 1.0011, 0, 0)">
    <g transform="matrix(0.0437, 0, 0, 0.0437, 0, 0)">
      <defs>
        <style>.fa-secondary{opacity:.4}</style>
      </defs>
      <path d="M384, 192C384, 86 298, 0 192, 0C86, 0 0, 86 0, 192C0, 298 86, 384 192, 384C298, 384 384, 298 384, 192zM192, 320A32 32 0 1 1 224, 288A32 32 0 0 1 192, 320zM230.2, 81.6L217.4, 209.6A16 16 0 0 1 201.5, 224L182.5, 224A16 16 0 0 1 166.6, 209.6L153.8, 81.6A16 16 0 0 1 169.7, 64L214.3, 64A16 16 0 0 1 230.2, 81.6z" fill="#727272" opacity="0.4" fill-opacity="1" class="Black" />
      <path d="M540.17, 320L375.59, 320A225.79 225.79 0 0 1 307.29, 383.7A9 9 0 0 0 308.89, 384L542.17, 384C558.07, 384 572.97, 394.9 575.57, 410.6A32 32 0 0 1 513.57, 426.1C511.47, 419.8 504.97, 416 498.37, 416L465.57, 416A16.06 16.06 0 0 0 449.87, 435.1A96 96 0 0 0 638.06, 396.9C629.17, 351.3 586.57, 320 540.17, 320zM635.27, 161.5A93.75 93.75 0 0 0 574.57, 100.7C515.48, 82.3 460.57, 119.8 449.88, 173.1C447.88, 182.9 455.68, 192 465.58, 192L498.38, 192C505.08, 192 511.48, 188.2 513.58, 181.9A32 32 0 0 1 575.58, 197.4C572.98, 213.1 558.18, 224 542.18, 224L413.38, 224A223.2 223.2 0 0 1 394, 288L544, 288C606.77, 288 655.77, 227.3 635.27, 161.5zM192, 256A32 32 0 1 0 224, 288A32 32 0 0 0 192, 256zM214.3, 64L169.7, 64A16 16 0 0 0 153.8, 81.6L166.6, 209.6A16 16 0 0 0 182.5, 224L201.5, 224A16 16 0 0 0 217.4, 209.6L230.2, 81.6A16 16 0 0 0 214.3, 64z" fill="#727272" fill-opacity="1" class="Black" />
    </g>
  </g>
</svg>