<?xml version='1.0' encoding='UTF-8'?>
<svg viewBox="-2 -1.9988 32 32" xmlns="http://www.w3.org/2000/svg">
  <g transform="matrix(0.0547, 0, 0, 0.0547, 0, 0)">
    <defs>
      <style>.fa-secondary{opacity:.4}</style>
    </defs>
    <path d="M288, 160A32 32 0 1 0 256, 128A32 32 0 0 0 288, 160zM192, 160A32 32 0 1 0 160, 128A32 32 0 0 0 192, 160zM0, 224L0, 432A48 48 0 0 0 48, 480L464, 480A48 48 0 0 0 512, 432L512, 224z" fill="#727272" opacity="0.4" fill-opacity="1" class="Black" />
    <path d="M464, 32L48, 32A48 48 0 0 0 0, 80L0, 224L512, 224L512, 80A48 48 0 0 0 464, 32zM96, 160A32 32 0 1 1 128, 128A32 32 0 0 1 96, 160zM192, 160A32 32 0 1 1 224, 128A32 32 0 0 1 192, 160zM288, 160A32 32 0 1 1 320, 128A32 32 0 0 1 288, 160z" fill="#727272" fill-opacity="1" class="Black" />
  </g>
</svg>