<?xml version='1.0' encoding='UTF-8'?>
<svg viewBox="-2 -2 32 31.9975" xmlns="http://www.w3.org/2000/svg">
  <g transform="matrix(0.0547, 0, 0, 0.0547, 0, 0)">
    <defs>
      <style>.fa-secondary{opacity:.4}</style>
    </defs>
    <path d="M508.88, 394.71C499.28, 435.81 465.38, 468.71 424.19, 477.41C365.29, 489.91 312.59, 455.71 294.8, 405.11C291.1, 394.81 299.2, 384.01 310.09, 384.01L343.89, 384.01C349.69, 384.01 355.49, 386.61 358.39, 391.61A47.93 47.93 0 1 0 400, 320L283.5, 320A126.41 126.41 0 0 0 243.7, 256L400, 256C470.48, 256 526, 321.5 508.88, 394.71z" fill="#727272" opacity="0.4" fill-opacity="1" class="Black" />
    <path d="M156.76, 256L16, 256A16 16 0 0 0 0, 272L0, 304A16 16 0 0 0 16, 320L158.26, 320C174.16, 320 189.07, 330.9 191.67, 346.6A32.06 32.06 0 0 1 129.67, 362.1C127.56, 355.8 121.06, 352 114.46, 352L81.63, 352C71.83, 352 63.92, 360.8 65.72, 370.4A96 96 0 0 0 255.19, 339.4C249.09, 291 205.47, 256 156.76, 256zM445.83, 107.28C438.23, 71.07 408.92, 41.76 372.72, 34.16A96.22 96.22 0 0 0 257.82, 109.68C255.92, 119.28 263.92, 127.98 273.62, 127.98L306.42, 127.98C313.12, 127.98 319.52, 124.18 321.62, 117.88A32 32 0 0 1 383.62, 133.38C381, 149.09 366.22, 160 350.22, 160L16, 160A16 16 0 0 0 0, 176L0, 208A16 16 0 0 0 16, 224L352, 224A96.2 96.2 0 0 0 445.83, 107.28z" fill="#727272" fill-opacity="1" class="Black" />
  </g>
</svg>