<?xml version='1.0' encoding='UTF-8'?>
<svg viewBox="-3.7494 -1.9974 32 31.9975" xmlns="http://www.w3.org/2000/svg">
  <g transform="matrix(0.0547, 0, 0, 0.0547, 0, 0)">
    <defs>
      <style>.fa-secondary{opacity:.4}</style>
    </defs>
    <path d="M320, 400L320, 496A16 16 0 0 1 298.9, 511.2L224, 480L149.1, 511.2A16.06 16.06 0 0 1 128, 496L128, 400A16 16 0 0 1 149.1, 384.8L224, 416L298.9, 384.8A16.06 16.06 0 0 1 320, 400z" fill="#727272" opacity="0.4" fill-opacity="1" class="Black" />
    <path d="M448, 224A47.8 47.8 0 0 0 426.1, 183.8A47.88 47.88 0 0 0 394.5, 109.4C397.8, 94 394.3, 77.5 382.4, 65.6C370.5, 53.7 353.9, 50.2 338.6, 53.5A47.78 47.78 0 0 0 264.3, 21.9A47.94 47.94 0 0 0 183.8, 21.9A47.78 47.78 0 0 0 109.5, 53.5C94.1, 50.2 77.6, 53.7 65.7, 65.6C53.8, 77.5 50.3, 94 53.6, 109.4A47.78 47.78 0 0 0 22, 183.7A47.88 47.88 0 0 0 21.9, 264.2A47.65 47.65 0 0 0 17.1, 309.7C23.7, 325.5 37.8, 335.5 53.6, 338.2C50.2, 353.7 53.6, 370.4 65.7, 382.4C74.3, 391 85.3, 395.1 96.5, 395.9A47.52 47.52 0 0 1 144, 352A46.15 46.15 0 0 1 159.2, 354.5L160.3, 354.9L161.4, 355.3L224.1, 381.4L286.8, 355.3L287.9, 354.9L289, 354.5A48.91 48.91 0 0 1 304.2, 352A48 48 0 0 1 351.8, 395.8A47.07 47.07 0 0 0 382.6, 382.3C394.6, 370.3 398.1, 353.6 394.7, 338.1C410.5, 335.4 424.6, 325.5 431.2, 309.6A47.91 47.91 0 0 0 426.4, 264.1A47.94 47.94 0 0 0 448, 224zM301.5, 250.2C298.7, 259.1 300.4, 270.4 295.2, 277.8C290, 285.2 279.1, 287.1 271.9, 292.6C264.7, 298.1 259.8, 308.2 251.2, 311.1C243, 313.9 233.1, 308.8 224, 308.8C214.9, 308.8 205, 313.9 196.8, 311.1C188.3, 308.2 183.2, 298 176.1, 292.6C169, 287.2 158, 285.3 152.8, 277.8C147.6, 270.3 149.3, 259.1 146.5, 250.2C143.8, 241.6 136, 233.5 136, 224C136, 214.5 143.8, 206.4 146.5, 197.8C149.3, 188.9 147.6, 177.6 152.8, 170.2C158, 162.8 168.9, 160.9 176.1, 155.4C183.3, 149.9 188.2, 139.8 196.8, 136.9C205, 134.1 214.9, 139.2 224, 139.2C233.1, 139.2 243, 134.1 251.2, 136.9C259.7, 139.8 264.8, 150 271.9, 155.4C279, 160.8 290, 162.7 295.2, 170.2C300.4, 177.7 298.7, 188.9 301.5, 197.8C304.2, 206.4 312, 214.5 312, 224C312, 233.5 304.2, 241.6 301.5, 250.2z" fill="#727272" fill-opacity="1" class="Black" />
  </g>
</svg>