<?xml version='1.0' encoding='UTF-8'?>
<svg viewBox="-2 -1.9975 32 31.9975" xmlns="http://www.w3.org/2000/svg">
  <g transform="matrix(0.0547, 0, 0, 0.0547, 0, 0)">
    <defs>
      <style>.fa-secondary{opacity:.4}</style>
    </defs>
    <path d="M322, 280.47L321.74, 280.73A144.62 144.62 0 0 1 231.44, 190.09L18.09, 403.41A64 64 0 0 0 108.59, 493.91L322, 280.49zM63.35, 472.65A24 24 0 1 1 87.35, 448.65A24 24 0 0 1 63.35, 472.65z" fill="#727272" opacity="0.4" fill-opacity="1" class="Black" />
    <path d="M469.69, 246.2C429.69, 286.2 372.21, 297.2 321.97, 280.47L321.71, 280.73A144.64 144.64 0 0 1 231.3, 189.79L231.43, 189.66C214.89, 139.49 225.83, 81.95 265.56, 42.26A144.38 144.38 0 0 1 402.47, 4.26A12 12 0 0 1 408.14, 24.45L333.61, 98.93L344.94, 166.93L413, 178.28L487.53, 103.76A12 12 0 0 1 507.7, 109.28A144 144 0 0 1 469.69, 246.2z" fill="#727272" fill-opacity="1" class="Black" />
  </g>
</svg>