<?xml version='1.0' encoding='UTF-8'?>
<svg viewBox="-3.9863 0 32 32" xmlns="http://www.w3.org/2000/svg">
  <g transform="matrix(0.0625, 0, 0, 0.0625, 0, 0)">
    <defs>
      <style>.fa-secondary{opacity:.4}</style>
    </defs>
    <path d="M32.18, 332L32.18, 364A12 12 0 0 0 44.18, 376L152.18, 376L152.18, 320L44.18, 320A12 12 0 0 0 32.18, 332zM340.18, 320L232.18, 320L232.18, 376L340.18, 376A12 12 0 0 0 352.18, 364L352.18, 332A12 12 0 0 0 340.18, 320zM44.18, 256L132.35, 256L102.52, 200L44.19, 200A12 12 0 0 0 32.19, 212L32.19, 244A12 12 0 0 0 44.19, 256zM340.18, 200L281.81, 200L252, 256L340.19, 256A12 12 0 0 0 352.19, 244L352.19, 212A12 12 0 0 0 340.19, 200z" fill="#727272" opacity="0.4" fill-opacity="1" class="Black" />
    <path d="M362, 49.6L232.18, 293.2L232.18, 468A12 12 0 0 1 220.18, 480L164.18, 480A12 12 0 0 1 152.18, 468L152.18, 293.2L22.39, 49.6A12 12 0 0 1 33, 32L98.2, 32A12 12 0 0 1 109, 38.7L164.4, 151.9C178.9, 186.6 191.5, 223.8 191.5, 223.8L192.8, 223.8C192.8, 223.8 205.4, 186.6 219.9, 151.9L275.3, 38.7A12 12 0 0 1 286.1, 32L351.4, 32A12 12 0 0 1 362, 49.6z" fill="#727272" fill-opacity="1" class="Black" />
  </g>
</svg>