<?xml version='1.0' encoding='UTF-8'?>
<svg viewBox="-1.9999 -1.549 31.9975 32" xmlns="http://www.w3.org/2000/svg">
  <g transform="matrix(0.999, 0, 0, 0.999, 0, 0)">
    <g transform="matrix(0.0565, 0, 0, 0.0565, 0, 0)">
      <defs>
        <style>.fa-secondary{opacity:.4}</style>
      </defs>
      <path d="M248, 8C111, 8 0, 119 0, 256C0, 393 111, 504 248, 504A124 124 0 0 1 248, 256A124 124 0 0 0 248, 8zM248, 160A32 32 0 1 1 280, 128A32 32 0 0 1 248, 160zM248, 352A32 32 0 1 0 280, 384A32 32 0 0 0 248, 352z" fill="#727272" opacity="0.4" fill-opacity="1" class="Black" />
      <path d="M248, 160A32 32 0 1 0 216, 128A32 32 0 0 0 248, 160zM248, 8A124 124 0 0 1 248, 256A124 124 0 0 0 248, 504C385, 504 496, 393 496, 256C496, 119 385, 8 248, 8zM248, 416A32 32 0 1 1 280, 384A32 32 0 0 1 248, 416z" fill="#727272" fill-opacity="1" class="Black" />
    </g>
  </g>
</svg>