<?xml version='1.0' encoding='UTF-8'?>
<svg viewBox="-2 0 32 32" xmlns="http://www.w3.org/2000/svg">
  <g transform="matrix(0.0625, 0, 0, 0.0625, 0, 0)">
    <path d="M12.83, 344L275.17, 344A12.82 12.82 0 0 0 288, 331.17L288, 308.83A12.82 12.82 0 0 0 275.17, 296L12.83, 296A12.82 12.82 0 0 0 0, 308.83L0, 331.17A12.82 12.82 0 0 0 12.83, 344zM12.83, 88L275.17, 88A12.82 12.82 0 0 0 288, 75.17L288, 52.83A12.82 12.82 0 0 0 275.17, 40L12.83, 40A12.82 12.82 0 0 0 0, 52.83L0, 75.17A12.82 12.82 0 0 0 12.83, 88zM432, 168L16, 168A16 16 0 0 0 0, 184L0, 200A16 16 0 0 0 16, 216L432, 216A16 16 0 0 0 448, 200L448, 184A16 16 0 0 0 432, 168zM432, 424L16, 424A16 16 0 0 0 0, 440L0, 456A16 16 0 0 0 16, 472L432, 472A16 16 0 0 0 448, 456L448, 440A16 16 0 0 0 432, 424z" fill="#727272" fill-opacity="1" class="Black" />
  </g>
</svg>