<?xml version='1.0' encoding='UTF-8'?>
<svg viewBox="-2 0 32 32" xmlns="http://www.w3.org/2000/svg">
  <g transform="matrix(0.0625, 0, 0, 0.0625, 0, 0)">
    <path d="M432, 424L16, 424A16 16 0 0 0 0, 440L0, 456A16 16 0 0 0 16, 472L432, 472A16 16 0 0 0 448, 456L448, 440A16 16 0 0 0 432, 424zM432, 296L16, 296A16 16 0 0 0 0, 312L0, 328A16 16 0 0 0 16, 344L432, 344A16 16 0 0 0 448, 328L448, 312A16 16 0 0 0 432, 296zM432, 168L16, 168A16 16 0 0 0 0, 184L0, 200A16 16 0 0 0 16, 216L432, 216A16 16 0 0 0 448, 200L448, 184A16 16 0 0 0 432, 168zM432, 40L16, 40A16 16 0 0 0 0, 56L0, 72A16 16 0 0 0 16, 88L432, 88A16 16 0 0 0 448, 72L448, 56A16 16 0 0 0 432, 40z" fill="#727272" fill-opacity="1" class="Black" />
  </g>
</svg>