<?xml version='1.0' encoding='UTF-8'?>
<svg viewBox="-1.9975 -4.7972 32 31.9975" xmlns="http://www.w3.org/2000/svg">
  <g transform="matrix(1.0013, 0, 0, 1.0013, 0, 0)">
    <g transform="matrix(0.0437, 0, 0, 0.0437, 0, 0)">
      <path d="M634, 471L36, 3.5A16 16 0 0 0 13.49, 6L3.49, 18.5A16 16 0 0 0 6, 41L604, 508.5A16 16 0 0 0 626.5, 506L636.5, 493.5A16 16 0 0 0 634, 471zM528, 296L488.06, 296L540.75, 337.19A15.6 15.6 0 0 0 544, 328L544, 312A16 16 0 0 0 528, 296zM544, 184A16 16 0 0 0 528, 168L324.34, 168L385.73, 216L528, 216A16 16 0 0 0 544, 200zM528, 88A16 16 0 0 0 544, 72L544, 56A16 16 0 0 0 528, 40L160.61, 40L222, 88zM112, 424A16 16 0 0 0 96, 440L96, 456A16 16 0 0 0 112, 472L479.37, 472L418, 424zM112, 344L315.65, 344L254.26, 296L112, 296A16 16 0 0 0 96, 312L96, 328A16 16 0 0 0 112, 344z" fill="#727272" fill-opacity="1" class="Black" />
    </g>
  </g>
</svg>