<?xml version='1.0' encoding='UTF-8'?>
<svg viewBox="-2 0 32 32" xmlns="http://www.w3.org/2000/svg">
  <g transform="matrix(0.0625, 0, 0, 0.0625, 0, 0)">
    <path d="M108.1, 88L339.91, 88A12.09 12.09 0 0 0 352, 75.9L352, 52.09A12.09 12.09 0 0 0 339.91, 40L108.1, 40A12.09 12.09 0 0 0 96, 52.09L96, 75.9A12.1 12.1 0 0 0 108.1, 88zM432, 424L16, 424A16 16 0 0 0 0, 440L0, 456A16 16 0 0 0 16, 472L432, 472A16 16 0 0 0 448, 456L448, 440A16 16 0 0 0 432, 424zM432, 168L16, 168A16 16 0 0 0 0, 184L0, 200A16 16 0 0 0 16, 216L432, 216A16 16 0 0 0 448, 200L448, 184A16 16 0 0 0 432, 168zM339.91, 344A12.09 12.09 0 0 0 352, 331.9L352, 308.09A12.09 12.09 0 0 0 339.91, 296L108.1, 296A12.09 12.09 0 0 0 96, 308.09L96, 331.9A12.1 12.1 0 0 0 108.1, 344z" fill="#727272" fill-opacity="1" class="Black" />
  </g>
</svg>