<?xml version='1.0' encoding='UTF-8'?>
<svg viewBox="-1.9975 -4.796 32 32" xmlns="http://www.w3.org/2000/svg">
  <g transform="matrix(0.999, 0, 0, 0.999, 0, 0)">
    <g transform="matrix(0.0438, 0, 0, 0.0438, 0, 0)">
      <path d="M635.1, 210.8C635, 210.7 594.9, 130.4 594.9, 130.4C583.5, 107.7 555, 96.8 530.5, 109.1L478.9, 135C478.9, 135 402.5, 128 401.5, 128C382.8, 128 364.9, 132.3 348.8, 140.5C342.2, 131.7 334.5, 126.4 325.3, 122.2C336.7, 86.6 310.5, 48.7 271.8, 49C268.6, 22.6 245.9, 0 216.3, 0C203.3, 0 190.7, 4.5 180.6, 12.8C135.2, 50.1 106.2, 102.4 98.2, 159.4L68.5, 212.9C68.5, 212.9 23.8, 238.3 23.7, 238.4C2.1, 251.1 -6.1, 278.5 4.9, 301.2C5, 301.3 45.1, 381.6 45.1, 381.6C56.6, 404.5 85.2, 415.1 109.5, 402.9L161.1, 377C238, 384 238, 384 239.9, 384C258, 384 275.5, 379.5 291.1, 371.5C297.7, 380.3 305.4, 385.6 314.6, 389.8C302.8, 426.8 331.7, 463.6 368.1, 463.2C371.5, 490.3 394.8, 512.1 423.7, 512.1C436.7, 512.1 449.4, 507.6 459.3, 499.3C504.7, 462 533.7, 409.7 541.7, 352.7L571.4, 299.2C571.4, 299.2 616.1, 273.8 616.2, 273.7C637.9, 260.9 646.1, 233.6 635.1, 210.8zM297, 188.6C277.1, 178.7 253.6, 177.3 232.5, 184.7C224.1, 187.7 226.2, 200.2 235.2, 200.2C267.6, 200.2 292.4, 214.7 305, 241.2C314, 260 285.2, 274.1 276.2, 254.8L276.1, 254.7C269.2, 240.7 255.4, 232 239.9, 232C217.8, 232 199.9, 249.9 199.9, 272C199.9, 296.7 220.7, 312 239.9, 312C255.4, 312 269.2, 303.3 276.1, 289.3L276.2, 289.2C285.3, 270 314, 284 305, 302.8C293.1, 327.7 267.7, 343.9 240.3, 344C235.7, 343.6 178.1, 338.3 155.7, 336.3C154.2, 336.2 152.7, 336.4 151.4, 337.1L91.6, 367.1C87.1, 369.3 82.5, 367.1 80.8, 363.7L40.8, 283.8C38.9, 279.9 40.3, 275.1 43.9, 273L96.1, 243.3C97.4, 242.6 98.4, 241.5 99.1, 240.2L136.1, 173.5C136.6, 172.6 136.9, 171.6 137.1, 170.5C142.7, 120.7 167.1, 75.7 206, 43.8C212.7, 38.2 222.9, 39 228.4, 45.9C234.4, 53.4 232.8, 63.1 226.2, 68.5C214.1, 78.7 203.8, 90 195.6, 102C190.7, 109.3 199.4, 118.1 206.7, 113.1C226, 100 247.3, 92 270, 89.2C278.2, 88.1 286.4, 93.3 287.8, 103.1C288.9, 111.8 283, 119.8 274, 120.9C259, 122.7 244.6, 127.7 231.1, 135.7C223.3, 140.3 228.1, 152.3 236.9, 150.4C260.5, 145.2 288.2, 148.7 310.9, 159.7C330.1, 169.2 316, 197.8 297, 188.6zM596.1, 239.1L543.9, 268.8C542.6, 269.5 541.6, 270.6 540.9, 271.9L503.9, 338.6C503.4, 339.5 503.1, 340.5 502.9, 341.6C497.3, 391.4 472.9, 436.4 434, 468.3C418, 481.7 397.2, 457.3 413.8, 443.6C426, 433.3 436.3, 422 444.5, 410C449.5, 402.6 440.5, 394 433.4, 398.9C414.1, 412 392.8, 420.1 370.2, 422.8C349, 425.4 345.3, 393.5 366.1, 391.2C381.1, 389.4 395.5, 384.4 409, 376.4C416.8, 371.8 412, 359.8 403.2, 361.7C379.6, 366.9 351.9, 363.4 329.2, 352.4C310, 342.8 324.2, 314.2 343.1, 323.5C363, 333.4 386.5, 334.9 407.6, 327.4C416, 324.4 413.9, 311.9 404.9, 311.9C372.5, 311.9 347.7, 297.4 335.1, 270.9C326.1, 252.1 354.9, 238 363.9, 257.3L364, 257.4C370.9, 271.4 384.7, 280.1 400.2, 280.1C422.3, 280.1 440.2, 262.2 440.2, 240.1C440.2, 215.4 419.4, 200.1 400.2, 200.1C384.7, 200.1 370.9, 208.8 364, 222.8L363.9, 222.9C354.8, 242.1 326.1, 228.1 335.1, 209.3C347.2, 184 372.5, 168.2 401.3, 168.1L484.4, 175.8C485.9, 175.9 487.4, 175.7 488.7, 175L548.5, 145C553, 142.8 557.6, 145 559.3, 148.4L599.3, 228.3C601, 232.2 599.7, 236.9 596.1, 239.1z" fill="#727272" fill-opacity="1" class="Black" />
    </g>
  </g>
</svg>