<?xml version='1.0' encoding='UTF-8'?>
<svg viewBox="-1.9999 -4.21 32 32" xmlns="http://www.w3.org/2000/svg">
  <g transform="matrix(0.9989, 0, 0, 0.9989, 0, 0)">
    <g transform="matrix(0.0461, 0, 0, 0.0461, 0, 0)">
      <path d="M416, 320L352, 320C334.33, 320 320, 334.33 320, 352L320, 480C320, 497.67 334.33, 512 352, 512L416, 512C433.67, 512 448, 497.67 448, 480L448, 352C448, 334.33 433.67, 320 416, 320zM400, 464L368, 464L368, 368L400, 368L400, 464zM576, 192L512, 192C494.33, 192 480, 206.33 480, 224L480, 480C480, 497.67 494.33, 512 512, 512L576, 512C593.67, 512 608, 497.67 608, 480L608, 224C608, 206.33 593.67, 192 576, 192zM560, 464L528, 464L528, 240L560, 240L560, 464zM256, 192L192, 192C174.33, 192 160, 206.33 160, 224L160, 480C160, 497.67 174.33, 512 192, 512L256, 512C273.67, 512 288, 497.67 288, 480L288, 224C288, 206.33 273.67, 192 256, 192zM240, 464L208, 464L208, 240L240, 240L240, 464zM96, 352L32, 352C14.33, 352 0, 366.33 0, 384L0, 480C0, 497.67 14.33, 512 32, 512L96, 512C113.67, 512 128, 497.67 128, 480L128, 384C128, 366.33 113.67, 352 96, 352zM80, 464L48, 464L48, 400L80, 400L80, 464zM64, 256C90.51, 256 112, 234.51 112, 208C112, 203.73 111.26, 199.66 110.22, 195.72L211.72, 94.22C215.66, 95.26 219.73, 96 224, 96C230.15, 96 235.97, 94.74 241.38, 92.63L336.72, 168.9C336.37, 171.23 336.01, 173.57 336.01, 176C336.01, 202.51 357.5, 224 384.01, 224C410.52, 224 432.01, 202.51 432.01, 176C432.01, 173.57 431.64, 171.24 431.3, 168.91L526.64, 92.64C532.03, 94.74 537.85, 96 544, 96C570.51, 96 592, 74.51 592, 48C592, 21.49 570.51, 0 544, 0C517.49, 0 496, 21.49 496, 48C496, 50.43 496.37, 52.76 496.71, 55.09L401.37, 131.36C395.97, 129.25 390.14, 127.99 383.99, 127.99C377.84, 127.99 372.02, 129.25 366.61, 131.36L271.29, 55.1C271.64, 52.77 272, 50.43 272, 48C272, 21.49 250.51, 0 224, 0C197.49, 0 176, 21.49 176, 48C176, 52.27 176.74, 56.34 177.78, 60.28L76.28, 161.78C72.34, 160.74 68.27, 160 64, 160C37.49, 160 16, 181.49 16, 208C16, 234.51 37.49, 256 64, 256z" fill="#727272" fill-opacity="1" class="Black" />
    </g>
  </g>
</svg>