<?xml version='1.0' encoding='UTF-8'?>
<svg viewBox="-1.9499 -3.5117 31.9975 32" xmlns="http://www.w3.org/2000/svg">
  <g transform="matrix(0.0488, 0, 0, 0.0488, 0, 0)">
    <path d="M571.515, 331.515L504.486, 264.486C499.8, 259.8 492.202, 259.8 487.515, 264.486L420.486, 331.515C412.926, 339.075 418.28, 352 428.971, 352L473.239, 352C453.531, 417.326 380.693, 456.315 312, 462.865L312, 216L372, 216C378.627, 216 384, 210.627 384, 204L384, 180C384, 173.373 378.627, 168 372, 168L312, 168L312, 156.332C344.456, 146.137 368, 115.82 368, 80C368, 35.817 332.183, 0 288, 0C243.817, 0 208, 35.817 208, 80C208, 115.82 231.544, 146.138 264, 156.332L264, 168L204, 168C197.373, 168 192, 173.373 192, 180L192, 204C192, 210.627 197.373, 216 204, 216L264, 216L264, 462.865C195.192, 456.304 122.424, 417.176 102.762, 352L147.03, 352C157.721, 352 163.075, 339.074 155.515, 331.515L88.486, 264.486C83.8, 259.8 76.202, 259.8 71.515, 264.486L4.485, 331.515C-3.074, 339.074 2.28, 352 12.971, 352L53.255, 352C73.657, 451.556 181.238, 512 288, 512C401.135, 512 503.338, 446.7 522.745, 352L563.029, 352C573.72, 352 579.074, 339.074 571.515, 331.515zM288, 48C305.645, 48 320, 62.355 320, 80C320, 97.645 305.645, 112 288, 112C270.355, 112 256, 97.645 256, 80C256, 62.355 270.355, 48 288, 48z" fill="#727272" fill-opacity="1" class="Black" />
  </g>
</svg>