<?xml version='1.0' encoding='UTF-8'?>
<svg viewBox="-1.9974 -3.554 31.9975 32" xmlns="http://www.w3.org/2000/svg">
  <g transform="matrix(0.0486, 0, 0, 0.0486, 0, 0)">
    <path d="M571.7, 453.1L533.5, 374.5C526.9, 361 526.9, 344.9 533.5, 331.4C549.7, 298 559.9, 293.9 559.9, 256.1C559.9, 205 513, 160.1 459.5, 160.1C434.4, 160.1 410.8, 170.1 393.2, 188.2L320.5, 261.6C310.2, 258.2 299.3, 256.2 288, 256.2C276.8, 256.2 265.9, 258.2 255.6, 261.6L182.9, 188.3C165.3, 170.3 141.7, 160.2 116.6, 160.2C63.1, 160.2 16.2, 205.1 16.2, 256.2C16.2, 294.1 26.4, 298.2 42.6, 331.5C49.2, 345 49.2, 361.1 42.6, 374.6L4.4, 453.1C-10.1, 482.9 13.7, 512 40.7, 512L535.4, 512C563, 512 585.8, 482.1 571.7, 453.1zM52.4, 464L85.8, 395.4C98.7, 368.8 98.7, 336.9 85.8, 310.3C80.4, 299.1 75.9, 291.4 72.3, 285.2C65.1, 272.8 64.2, 271.2 64.2, 256C64.2, 231.3 89.7, 208 116.6, 208C128.7, 208 140.1, 212.9 148.7, 221.7L213.9, 287.5C206.6, 295 200.3, 303.6 195.5, 313.2L120.1, 464L52.4, 464zM173.8, 464L238.4, 334.7C247.9, 315.8 266.9, 304 288.1, 304C309.3, 304 328.3, 315.8 337.8, 334.7L402.3, 464L173.8, 464zM455.9, 464L380.6, 313.2C375.8, 303.5 369.5, 295 362.2, 287.5L427.4, 221.7C436, 212.8 447.4, 208 459.5, 208C486.5, 208 511.9, 231.3 511.9, 256C511.9, 271.2 511, 272.8 503.8, 285.2C500.2, 291.4 495.7, 299.1 490.3, 310.3C477.4, 336.9 477.4, 368.8 490.3, 395.4L523.7, 464L455.9, 464zM208, 144C208, 188.2 243.8, 224 288, 224C332.2, 224 368, 188.2 368, 144C368, 99.8 332.2, 64 288, 64C243.8, 64 208, 99.8 208, 144zM320, 144C320, 161.6 305.6, 176 288, 176C270.4, 176 256, 161.6 256, 144C256, 126.4 270.4, 112 288, 112C305.6, 112 320, 126.4 320, 144zM176.7, 137.3L176.9, 137.2C177.7, 124.2 180.8, 112 185.7, 100.6C174.7, 94.6 168.1, 87.6 168.1, 80C168.1, 57.9 221.8, 40 288.1, 40C354.4, 40 408.1, 57.9 408.1, 80C408.1, 87.6 401.4, 94.6 390.5, 100.6C395.4, 112 398.5, 124.2 399.3, 137.2L399.5, 137.3C429.3, 122.8 448, 102.5 448, 80C448, 35.8 376.4, 0 288, 0C199.6, 0 128, 35.8 128, 80C128, 102.5 146.7, 122.8 176.7, 137.3z" fill="#727272" fill-opacity="1" class="Black" />
  </g>
</svg>