<?xml version='1.0' encoding='UTF-8'?>
<svg viewBox="-0.6659 4.4434 32 32" xmlns="http://www.w3.org/2000/svg">
  <g transform="matrix(0.9994, 0, 0, 0.9994, 0, 0)">
    <g transform="matrix(0.0799, 0, 0, 0.0799, 0, 0)">
      <path d="M363.8, 264.5L217, 412.5C212.3, 417.2 204.7, 417.2 200, 412.5L180.2, 392.7C175.5, 388 175.5, 380.4 180.2, 375.7L298.7, 256L180.2, 136.3C175.5, 131.6 175.5, 124 180.2, 119.3L200, 99.5C204.7, 94.8 212.3, 94.8 217, 99.5L363.8, 247.5C368.5, 252.2 368.5, 259.8 363.8, 264.5zM203.8, 247.5L57, 99.5C52.3, 94.8 44.7, 94.8 40, 99.5L20.2, 119.3C15.5, 124 15.5, 131.6 20.2, 136.3L138.7, 256L20.2, 375.7C15.5, 380.4 15.5, 388 20.2, 392.7L40, 412.5C44.7, 417.2 52.3, 417.2 57, 412.5L203.8, 264.5C208.5, 259.8 208.5, 252.2 203.8, 247.5z" fill="#727272" fill-opacity="1" class="Black" />
    </g>
  </g>
</svg>