<?xml version='1.0' encoding='UTF-8'?>
<svg viewBox="-0.6659 4.4434 32 32" xmlns="http://www.w3.org/2000/svg">
  <g transform="matrix(0.9994, 0, 0, 0.9994, 0, 0)">
    <g transform="matrix(0.0799, 0, 0, 0.0799, 0, 0)">
      <path d="M20.2, 247.5L167, 99.5C171.7, 94.8 179.3, 94.8 184, 99.5L203.8, 119.3C208.5, 124 208.5, 131.6 203.8, 136.3L85.3, 256L203.8, 375.7C208.5, 380.4 208.5, 388 203.8, 392.7L184, 412.5C179.3, 417.2 171.7, 417.2 167, 412.5L20.2, 264.5C15.5, 259.8 15.5, 252.2 20.2, 247.5zM180.2, 264.5L327, 412.5C331.7, 417.2 339.3, 417.2 344, 412.5L363.8, 392.7C368.5, 388 368.5, 380.4 363.8, 375.7L245.3, 256L363.8, 136.3C368.5, 131.6 368.5, 124 363.8, 119.3L344, 99.5C339.3, 94.8 331.7, 94.8 327, 99.5L180.2, 247.5C175.5, 252.2 175.5, 259.8 180.2, 264.5z" fill="#727272" fill-opacity="1" class="Black" />
    </g>
  </g>
</svg>