<?xml version='1.0' encoding='UTF-8'?>
<svg viewBox="-1.9999 -1.549 31.9975 32" xmlns="http://www.w3.org/2000/svg">
  <g transform="matrix(0.999, 0, 0, 0.999, 0, 0)">
    <g transform="matrix(0.0565, 0, 0, 0.0565, 0, 0)">
      <path d="M248, 8C111, 8 0, 119 0, 256C0, 393 111, 504 248, 504C385, 504 496, 393 496, 256C496, 119 385, 8 248, 8zM248, 456C137.7, 456 48, 366.3 48, 256C48, 145.7 137.7, 56 248, 56C358.3, 56 448, 145.7 448, 256C448, 366.3 358.3, 456 248, 456zM248, 312C214.4, 312 182.8, 326.8 161.2, 352.6C152.7, 362.8 154.1, 377.9 164.3, 386.4C174.5, 394.9 189.6, 393.6 198.1, 383.4C222.9, 353.7 273.1, 353.7 297.9, 383.4C306, 393.1 321.1, 395.3 331.7, 386.4C341.9, 377.9 343.2, 362.8 334.8, 352.6C313.2, 326.8 281.6, 312 248, 312zM200, 240C210.3, 240 219.9, 233.3 223, 222.9C226.8, 210.2 219.6, 196.8 206.9, 193L126.9, 169C114.1, 165.1 100.8, 172.4 97, 185.1C93.2, 197.8 100.4, 211.2 113.1, 215L141.3, 223.5C138.2, 228.4 136, 233.9 136, 240.1C136, 257.8 150.3, 272.1 168, 272.1C185.7, 272.1 200, 257.7 200, 240zM399, 185.1C395.2, 172.4 381.9, 165.2 369.1, 169L289.1, 193C276.4, 196.8 269.2, 210.2 273, 222.9C276.1, 233.3 285.7, 240 296, 240C296, 257.7 310.3, 272 328, 272C345.7, 272 360, 257.7 360, 240C360, 233.8 357.8, 228.3 354.7, 223.4L382.9, 214.9C395.6, 211.2 402.8, 197.8 399, 185.1z" fill="#727272" fill-opacity="1" class="Black" />
    </g>
  </g>
</svg>