<?xml version='1.0' encoding='UTF-8'?>
<svg viewBox="-2 -3.554 32 32" xmlns="http://www.w3.org/2000/svg">
  <g transform="matrix(0.0486, 0, 0, 0.0486, 0, 0)">
    <path d="M434.22, 50.47C445.51, 38.28 448.65, 18.44 447.44, 0.25C434.56, -0.61 411.77, 0.13 397.42, 13.53C380.89, 30.13 383.65, 59.89 384.2, 63.75C402.67, 64.98 421.97, 61.9 434.22, 50.47zM242.53, 50.47C253.82, 38.28 256.96, 18.44 255.75, 0.25C242.87, -0.61 220.08, 0.13 205.73, 13.53C189.2, 30.13 191.96, 59.89 192.51, 63.75C210.98, 64.98 230.28, 61.9 242.53, 50.47zM560, 192L510.29, 192C514.26, 165.03 510.73, 128.45 493.07, 102.94C481.82, 86.63 465.98, 76.24 447.29, 72.88L447, 72.83C428.78, 69.81 403.44, 75.85 384, 84.24C364.5, 75.85 339.09, 69.85 320.72, 72.88C308.37, 75.11 297.42, 80.7 288.04, 88.78C278.65, 80.69 267.68, 75.11 255.28, 72.88L255, 72.83C236.78, 69.81 211.44, 75.85 192, 84.24C172.53, 75.83 147, 69.88 128.72, 72.88C110.1, 76.24 94.28, 86.61 83.03, 102.91C65.27, 128.62 61.71, 165.38 65.69, 192L16, 192C7.16, 192 0, 199.16 0, 208L0, 496C0, 504.84 7.16, 512 16, 512L560, 512C568.84, 512 576, 504.84 576, 496L576, 208C576, 199.16 568.84, 192 560, 192zM314.5, 130.2C319.75, 122.59 325.41, 120.79 328.94, 120.17C335.72, 119 357.44, 123.54 372.32, 131.86L384.01, 138.41L395.73, 131.85C410.51, 123.58 431.92, 119.04 438.98, 120.16C442.79, 120.86 448.42, 122.72 453.6, 130.22C463.72, 144.88 465.82, 170.86 462.6, 188.25C462.37, 189.62 461.84, 190.67 461.58, 192L318.29, 192C320.93, 174.05 319.77, 151.99 313.82, 131.62C314.09, 131.2 314.22, 130.61 314.5, 130.2zM122.53, 130.2C127.78, 122.59 133.44, 120.79 136.91, 120.17C143.94, 119.22 165.41, 123.53 180.29, 131.84L192.01, 138.4L203.73, 131.84C218.51, 123.57 239.89, 119.03 246.98, 120.15C252.98, 121.27 257.67, 124.48 261.64, 130.24C271.76, 144.88 273.83, 170.85 270.61, 188.24C270.38, 189.61 269.85, 190.66 269.59, 191.99L114.49, 191.99C114.2, 190.52 113.62, 189.37 113.37, 187.85C110.19, 170.91 112.34, 144.92 122.53, 130.2zM528, 464L48, 464L48, 376L528, 376L528, 464zM528, 328L48, 328L48, 240L528, 240L528, 328zM96, 304C104.84, 304 112, 296.84 112, 288C112, 279.16 104.84, 272 96, 272C87.16, 272 80, 279.16 80, 288C80, 296.84 87.16, 304 96, 304zM480, 432C488.84, 432 496, 424.84 496, 416C496, 407.16 488.84, 400 480, 400C471.16, 400 464, 407.16 464, 416C464, 424.84 471.16, 432 480, 432zM96, 432C104.84, 432 112, 424.84 112, 416C112, 407.16 104.84, 400 96, 400C87.16, 400 80, 407.16 80, 416C80, 424.84 87.16, 432 96, 432zM480, 304C488.84, 304 496, 296.84 496, 288C496, 279.16 488.84, 272 480, 272C471.16, 272 464, 279.16 464, 288C464, 296.84 471.16, 304 480, 304z" fill="#727272" fill-opacity="1" class="Black" />
  </g>
</svg>