<?xml version='1.0' encoding='UTF-8'?>
<svg viewBox="-8.9988 -1.9975 32 32" xmlns="http://www.w3.org/2000/svg">
  <g transform="matrix(0.0547, 0, 0, 0.0547, 0, 0)">
    <path d="M227.03, 388.97L156, 388.97L156, 123.03L227.03, 123.03C237.721, 123.03 243.075, 110.104 235.515, 102.545L136.486, 3.515C131.8, -1.171 124.202, -1.171 119.515, 3.515L20.486, 102.545C12.926, 110.105 18.28, 123.03 28.971, 123.03L100, 123.03L100, 388.97L28.97, 388.97C18.279, 388.97 12.925, 401.896 20.485, 409.455L119.514, 508.485C124.2, 513.171 131.798, 513.171 136.485, 508.485L235.514, 409.455C243.074, 401.896 237.72, 388.97 227.03, 388.97z" fill="#727272" fill-opacity="1" class="Black" />
  </g>
</svg>