<?xml version='1.0' encoding='UTF-8'?>
<svg viewBox="-1.9975 -1.9975 32 32" xmlns="http://www.w3.org/2000/svg">
  <g transform="matrix(0.0547, 0, 0, 0.0547, 0, 0)">
    <path d="M347.404, 142.86C342.651, 147.613 342.729, 155.344 347.577, 160L420.78, 230L91.22, 230L164.423, 160C169.272, 155.344 169.35, 147.613 164.596, 142.86L144.97, 123.234C140.284, 118.548 132.686, 118.548 127.999, 123.234L3.515, 247.515C-1.171, 252.201 -1.171, 259.799 3.515, 264.486L128, 388.766C132.686, 393.452 140.284, 393.452 144.971, 388.766L164.597, 369.14C169.35, 364.387 169.272, 356.656 164.424, 352L91.22, 282L420.78, 282L347.577, 352C342.728, 356.656 342.65, 364.387 347.404, 369.14L367.03, 388.766C371.716, 393.452 379.314, 393.452 384.001, 388.766L508.486, 264.485C513.172, 259.799 513.172, 252.201 508.486, 247.514L384, 123.234C379.314, 118.548 371.716, 118.548 367.029, 123.234L347.404, 142.86z" fill="#727272" fill-opacity="1" class="Black" />
  </g>
</svg>