<?xml version='1.0' encoding='UTF-8'?>
<svg viewBox="-2 0 32 32" xmlns="http://www.w3.org/2000/svg">
  <g transform="matrix(0.0625, 0, 0, 0.0625, 0, 0)">
    <path d="M352, 236L352, 276C352, 282.6 346.6, 288 340, 288L224, 288L224, 355C224, 365.7 211.1, 371 203.5, 363.5L104.5, 264.5C99.8, 259.8 99.8, 252.2 104.5, 247.5L203.5, 148.5C211.1, 140.9 224, 146.3 224, 157L224, 224L340, 224C346.6, 224 352, 229.4 352, 236zM448, 80L448, 432C448, 458.5 426.5, 480 400, 480L48, 480C21.5, 480 0, 458.5 0, 432L0, 80C0, 53.5 21.5, 32 48, 32L400, 32C426.5, 32 448, 53.5 448, 80zM400, 426L400, 86C400, 82.7 397.3, 80 394, 80L54, 80C50.7, 80 48, 82.7 48, 86L48, 426C48, 429.3 50.7, 432 54, 432L394, 432C397.3, 432 400, 429.3 400, 426z" fill="#727272" fill-opacity="1" class="Black" />
  </g>
</svg>