<?xml version='1.0' encoding='UTF-8'?>
<svg viewBox="-2 -0.0013 32 32" xmlns="http://www.w3.org/2000/svg">
  <g transform="matrix(0.0625, 0, 0, 0.0625, 0, 0)">
    <path d="M144, 112L144, 163.6L48, 163.6C21.5, 163.6 0, 185.1 0, 211.6L0, 300.2C0, 326.7 21.5, 348.2 48, 348.2L144, 348.2L144, 399.8C144, 442.4 195.7, 464 225.9, 433.7L369.9, 289.8C388.6, 271.1 388.6, 240.7 369.9, 221.9L225.9, 77.9C195.8, 48 144, 69.3 144, 112zM336, 256L192, 400L192, 300.3L48, 300.3L48, 211.7L192, 211.7L192, 112L336, 256zM412, 64L436, 64C442.6, 64 448, 69.4 448, 76L448, 436C448, 442.6 442.6, 448 436, 448L412, 448C405.4, 448 400, 442.6 400, 436L400, 76C400, 69.4 405.4, 64 412, 64z" fill="#727272" fill-opacity="1" class="Black" />
  </g>
</svg>