<?xml version='1.0' encoding='UTF-8'?>
<svg viewBox="-1.9988 0 32 32" xmlns="http://www.w3.org/2000/svg">
  <g transform="matrix(0.0625, 0, 0, 0.0625, 0, 0)">
    <path d="M48.048, 304L121.846, 304L121.846, 432C121.846, 458.51 143.336, 480 169.846, 480L278.154, 480C304.664, 480 326.154, 458.51 326.154, 432L326.154, 304L399.943, 304C442.581, 304 464.094, 252.269 433.884, 222.059L257.941, 46.059C239.196, 27.314 208.804, 27.313 190.059, 46.059L14.107, 222.059C-16.042, 252.208 5.325, 304 48.048, 304zM224, 80L400, 256L278.154, 256L278.154, 432L169.846, 432L169.846, 256L48, 256L224, 80z" fill="#727272" fill-opacity="1" class="Black" />
  </g>
</svg>