<?xml version='1.0' encoding='UTF-8'?>
<svg viewBox="-2 -0.0002 32 32" xmlns="http://www.w3.org/2000/svg">
  <g transform="matrix(0.0625, 0, 0, 0.0625, 0, 0)">
    <path d="M176, 80.048L176, 153.846L48, 153.846C21.49, 153.846 0, 175.336 0, 201.846L0, 310.154C0, 336.664 21.49, 358.154 48, 358.154L176, 358.154L176, 431.943C176, 474.581 227.731, 496.094 257.941, 465.884L433.941, 289.941C452.686, 271.196 452.687, 240.804 433.941, 222.059L257.941, 46.107C227.792, 15.958 176, 37.325 176, 80.048zM400, 256L224, 432L224, 310.154L48, 310.154L48, 201.846L224, 201.846L224, 80L400, 256z" fill="#727272" fill-opacity="1" class="Black" />
  </g>
</svg>