<?xml version='1.0' encoding='UTF-8'?>
<svg viewBox="-2 -0.0002 32 32" xmlns="http://www.w3.org/2000/svg">
  <g transform="matrix(0.0625, 0, 0, 0.0625, 0, 0)">
    <path d="M218.101, 38.101L198.302, 57.9C193.616, 62.586 193.616, 70.184 198.302, 74.871L353.432, 230L12, 230C5.373, 230 0, 235.373 0, 242L0, 270C0, 276.627 5.373, 282 12, 282L353.432, 282L198.302, 437.13C193.616, 441.816 193.616, 449.414 198.302, 454.101L218.101, 473.9C222.787, 478.586 230.385, 478.586 235.072, 473.9L444.486, 264.486C449.172, 259.8 449.172, 252.202 444.486, 247.515L235.071, 38.101C230.385, 33.414 222.787, 33.414 218.101, 38.101z" fill="#727272" fill-opacity="1" class="Black" />
  </g>
</svg>