<?xml version='1.0' encoding='UTF-8'?>
<svg viewBox="-2 0 32 32" xmlns="http://www.w3.org/2000/svg">
  <g transform="matrix(0.0625, 0, 0, 0.0625, 0, 0)">
    <path d="M353.9, 266.9L232.5, 388.3C227.8, 393 220.2, 393 215.5, 388.3L94.1, 266.9C89.4, 262.2 89.4, 254.6 94.1, 249.9L113.7, 230.3C118.5, 225.5 126.2, 225.6 130.9, 230.5L198, 300.8L198, 140C198, 133.4 203.4, 128 210, 128L238, 128C244.6, 128 250, 133.4 250, 140L250, 300.8L317.1, 230.5C321.8, 225.6 329.5, 225.5 334.3, 230.3L353.9, 249.9C358.6, 254.6 358.6, 262.2 353.9, 266.9zM448, 80L448, 432C448, 458.5 426.5, 480 400, 480L48, 480C21.5, 480 0, 458.5 0, 432L0, 80C0, 53.5 21.5, 32 48, 32L400, 32C426.5, 32 448, 53.5 448, 80zM400, 426L400, 86C400, 82.7 397.3, 80 394, 80L54, 80C50.7, 80 48, 82.7 48, 86L48, 426C48, 429.3 50.7, 432 54, 432L394, 432C397.3, 432 400, 429.3 400, 426z" fill="#727272" fill-opacity="1" class="Black" />
  </g>
</svg>