<?xml version='1.0' encoding='UTF-8'?>
<svg viewBox="-1.995 0.0004 32 32" xmlns="http://www.w3.org/2000/svg">
  <g transform="matrix(0.0625, 0, 0, 0.0625, 0, 0)">
    <path d="M400, 208L326.2, 208L326.2, 80C326.2, 53.5 304.7, 32 278.2, 32L169.8, 32C143.3, 32 121.8, 53.5 121.8, 80L121.8, 208L48.1, 208C5.5, 208 -16.1, 259.7 14.2, 289.9L190.1, 465.9C208.8, 484.6 239.2, 484.6 258, 465.9L434, 289.9C464, 259.8 442.7, 208 400, 208zM224, 432L48, 256L169.8, 256L169.8, 80L278.1, 80L278.1, 256L400, 256L224, 432z" fill="#727272" fill-opacity="1" class="Black" />
  </g>
</svg>