<?xml version='1.0' encoding='UTF-8'?>
<svg viewBox="-1.5477 -1.5477 32 32" xmlns="http://www.w3.org/2000/svg">
  <g transform="matrix(0.9991, 0, 0, 0.9991, 0, 0)">
    <g transform="matrix(0.0565, 0, 0, 0.0565, 0, 0)">
      <path d="M504, 256C504, 119 393, 8 256, 8C119, 8 8, 119 8, 256C8, 393 119, 504 256, 504C393, 504 504, 393 504, 256zM56, 256C56, 145.5 145.5, 56 256, 56C366.5, 56 456, 145.5 456, 256C456, 366.5 366.5, 456 256, 456C145.5, 456 56, 366.5 56, 256zM245.1, 385.9L123.7, 264.5C119, 259.8 119, 252.2 123.7, 247.5L245.1, 126.1C249.8, 121.4 257.4, 121.4 262.1, 126.1L281.7, 145.7C286.5, 150.5 286.4, 158.2 281.5, 162.9L211.2, 230L372, 230C378.6, 230 384, 235.4 384, 242L384, 270C384, 276.6 378.6, 282 372, 282L211.2, 282L281.5, 349.1C286.4, 353.8 286.5, 361.5 281.7, 366.3L262.1, 385.9C257.4, 390.6 249.8, 390.6 245.1, 385.9z" fill="#727272" fill-opacity="1" class="Black" />
    </g>
  </g>
</svg>