<?xml version='1.0' encoding='UTF-8'?>
<svg viewBox="-4 0 32 32" xmlns="http://www.w3.org/2000/svg">
  <g transform="matrix(0.0625, 0, 0, 0.0625, 0, 0)">
    <path d="M336, 176L284.4, 176L284.4, 80C284.4, 53.5 262.9, 32 236.4, 32L147.8, 32C121.3, 32 99.8, 53.5 99.8, 80L99.8, 176L48.1, 176C5.5, 176 -16.1, 227.7 14.2, 257.9L158.1, 401.9C176.8, 420.6 207.2, 420.6 226, 401.9L370, 257.9C400, 227.8 378.7, 176 336, 176zM192, 368L48, 224L147.7, 224L147.7, 80L236.3, 80L236.3, 224L336, 224L192, 368zM384, 444L384, 468C384, 474.6 378.6, 480 372, 480L12, 480C5.4, 480 0, 474.6 0, 468L0, 444C0, 437.4 5.4, 432 12, 432L372, 432C378.6, 432 384, 437.4 384, 444z" fill="#727272" fill-opacity="1" class="Black" />
  </g>
</svg>