<?xml version='1.0' encoding='UTF-8'?>
<svg viewBox="-2 0 32 32" xmlns="http://www.w3.org/2000/svg">
  <g transform="matrix(0.0625, 0, 0, 0.0625, 0, 0)">
    <path d="M151.9, 412.5L3.5, 264.5C-1.2, 259.8 -1.2, 252.2 3.5, 247.5L151.9, 99.5C156.6, 94.8 164.2, 94.8 168.9, 99.5L188.5, 119.1C193.3, 123.9 193.2, 131.6 188.3, 136.2L91.2, 230L340, 230C346.6, 230 352, 235.4 352, 242L352, 270C352, 276.6 346.6, 282 340, 282L91.2, 282L188.3, 375.7C193.1, 380.4 193.2, 388.1 188.5, 392.8L168.9, 412.4C164.2, 417.2 156.6, 417.2 151.9, 412.5zM396, 76L396, 436C396, 442.6 401.4, 448 408, 448L436, 448C442.6, 448 448, 442.6 448, 436L448, 76C448, 69.4 442.6, 64 436, 64L408, 64C401.4, 64 396, 69.4 396, 76z" fill="#727272" fill-opacity="1" class="Black" />
  </g>
</svg>