<?xml version='1.0' encoding='UTF-8'?>
<svg viewBox="-1.995 0.0029 32 32" xmlns="http://www.w3.org/2000/svg">
  <g transform="matrix(0.0625, 0, 0, 0.0625, 0, 0)">
    <path d="M412, 64L436, 64C442.6, 64 448, 69.4 448, 76L448, 436C448, 442.6 442.6, 448 436, 448L412, 448C405.4, 448 400, 442.6 400, 436L400, 76C400, 69.4 405.4, 64 412, 64zM158.1, 433.9L14.1, 289.9C-4.6, 271.2 -4.6, 240.8 14.1, 222L158.1, 78.1C188.3, 47.9 240, 69.4 240, 112L240, 163.6L320, 163.6C346.5, 163.6 368, 185.1 368, 211.6L368, 300.2C368, 326.7 346.5, 348.2 320, 348.2L240, 348.2L240, 400C240, 442.7 188.2, 464 158.1, 433.9zM192, 400L192, 300.3L320, 300.3L320, 211.7L192, 211.7L192, 112L48, 256L192, 400z" fill="#727272" fill-opacity="1" class="Black" />
  </g>
</svg>