<?xml version='1.0' encoding='UTF-8'?>
<svg viewBox="-3.9978 0.0054 32 32" xmlns="http://www.w3.org/2000/svg">
  <g transform="matrix(0.0625, 0, 0, 0.0625, 0, 0)">
    <path d="M384, 444L384, 468C384, 474.6 378.6, 480 372, 480L12, 480C5.4, 480 0, 474.6 0, 468L0, 444C0, 437.4 5.4, 432 12, 432L372, 432C378.6, 432 384, 437.4 384, 444zM14.1, 190.1L158.1, 46.1C176.8, 27.4 207.2, 27.4 226, 46.1L369.9, 190.1C400.1, 220.3 378.6, 272 336, 272L284.4, 272L284.4, 352C284.4, 378.5 262.9, 400 236.4, 400L147.8, 400C121.3, 400 99.8, 378.5 99.8, 352L99.8, 272L48, 272C5.3, 272 -16, 220.2 14.1, 190.1zM48, 224L147.7, 224L147.7, 352L236.3, 352L236.3, 224L336, 224L192, 80L48, 224z" fill="#727272" fill-opacity="1" class="Black" />
  </g>
</svg>