<?xml version='1.0' encoding='UTF-8'?>
<svg viewBox="-1.5477 -1.5477 32 32" xmlns="http://www.w3.org/2000/svg">
  <g transform="matrix(0.9991, 0, 0, 0.9991, 0, 0)">
    <g transform="matrix(0.0565, 0, 0, 0.0565, 0, 0)">
      <path d="M8, 256C8, 393 119, 504 256, 504C393, 504 504, 393 504, 256C504, 119 393, 8 256, 8C119, 8 8, 119 8, 256zM456, 256C456, 366.5 366.5, 456 256, 456C145.5, 456 56, 366.5 56, 256C56, 145.5 145.5, 56 256, 56C366.5, 56 456, 145.5 456, 256zM384, 236L384, 276C384, 282.6 378.6, 288 372, 288L256, 288L256, 355C256, 365.7 243.1, 371 235.5, 363.5L136.5, 264.5C131.8, 259.8 131.8, 252.2 136.5, 247.5L235.5, 148.5C243.1, 140.9 256, 146.3 256, 157L256, 224L372, 224C378.6, 224 384, 229.4 384, 236z" fill="#727272" fill-opacity="1" class="Black" />
    </g>
  </g>
</svg>