<?xml version='1.0' encoding='UTF-8'?>
<svg viewBox="-2 -0.0014 32 32" xmlns="http://www.w3.org/2000/svg">
  <g transform="matrix(0.0625, 0, 0, 0.0625, 0, 0)">
    <path d="M296.1, 99.5L444.5, 247.5C449.2, 252.2 449.2, 259.8 444.5, 264.5L296.1, 412.5C291.4, 417.2 283.8, 417.2 279.1, 412.5L259.5, 392.9C254.7, 388.1 254.8, 380.4 259.7, 375.8L356.8, 282.1L108, 282.1C101.4, 282.1 96, 276.7 96, 270.1L96, 242.1C96, 235.5 101.4, 230.1 108, 230.1L356.8, 230.1L259.7, 136.4C254.9, 131.7 254.8, 124 259.5, 119.3L279.1, 99.7C283.8, 94.8 291.4, 94.8 296.1, 99.5zM52, 436L52, 76C52, 69.4 46.6, 64 40, 64L12, 64C5.4, 64 0, 69.4 0, 76L0, 436C0, 442.6 5.4, 448 12, 448L40, 448C46.6, 448 52, 442.6 52, 436z" fill="#727272" fill-opacity="1" class="Black" />
  </g>
</svg>