<?xml version='1.0' encoding='UTF-8'?>
<svg viewBox="-4 0 32 32" xmlns="http://www.w3.org/2000/svg">
  <g transform="matrix(0.0625, 0, 0, 0.0625, 0, 0)">
    <path d="M348.5, 232.1L200.5, 380.5C195.8, 385.2 188.2, 385.2 183.5, 380.5L35.5, 232.1C30.8, 227.4 30.8, 219.8 35.5, 215.1L55.1, 195.5C59.9, 190.7 67.6, 190.8 72.2, 195.7L165.9, 292.8L165.9, 44C165.9, 37.4 171.3, 32 177.9, 32L205.9, 32C212.5, 32 217.9, 37.4 217.9, 44L217.9, 292.8L311.6, 195.7C316.3, 190.9 324, 190.8 328.7, 195.5L348.3, 215.1C353.2, 219.8 353.2, 227.4 348.5, 232.1zM372, 428L12, 428C5.4, 428 0, 433.4 0, 440L0, 468C0, 474.6 5.4, 480 12, 480L372, 480C378.6, 480 384, 474.6 384, 468L384, 440C384, 433.4 378.6, 428 372, 428z" fill="#727272" fill-opacity="1" class="Black" />
  </g>
</svg>