<?xml version='1.0' encoding='UTF-8'?>
<svg viewBox="-2 0 32 32" xmlns="http://www.w3.org/2000/svg">
  <g transform="matrix(0.0625, 0, 0, 0.0625, 0, 0)">
    <path d="M213.1, 385.9L91.7, 264.5C87, 259.8 87, 252.2 91.7, 247.5L213.1, 126.1C217.8, 121.4 225.4, 121.4 230.1, 126.1L249.7, 145.7C254.5, 150.5 254.4, 158.2 249.5, 162.9L179.2, 230L340, 230C346.6, 230 352, 235.4 352, 242L352, 270C352, 276.6 346.6, 282 340, 282L179.2, 282L249.5, 349.1C254.4, 353.8 254.5, 361.5 249.7, 366.3L230.1, 385.9C225.4, 390.6 217.8, 390.6 213.1, 385.9zM448, 80L448, 432C448, 458.5 426.5, 480 400, 480L48, 480C21.5, 480 0, 458.5 0, 432L0, 80C0, 53.5 21.5, 32 48, 32L400, 32C426.5, 32 448, 53.5 448, 80zM400, 426L400, 86C400, 82.7 397.3, 80 394, 80L54, 80C50.7, 80 48, 82.7 48, 86L48, 426C48, 429.3 50.7, 432 54, 432L394, 432C397.3, 432 400, 429.3 400, 426z" fill="#727272" fill-opacity="1" class="Black" />
  </g>
</svg>