<?xml version='1.0' encoding='UTF-8'?>
<svg viewBox="-1.9987 -0.0002 31.9975 32" xmlns="http://www.w3.org/2000/svg">
  <g transform="matrix(0.0625, 0, 0, 0.0625, 0, 0)">
    <path d="M441.9, 250.1L422.1, 230.3C417.4, 225.6 409.8, 225.6 405.1, 230.3L250, 385.4L250, 44C250, 37.4 244.6, 32 238, 32L210, 32C203.4, 32 198, 37.4 198, 44L198, 385.4L42.9, 230.3C38.2, 225.6 30.6, 225.6 25.9, 230.3L6.1, 250.1C1.4, 254.8 1.4, 262.4 6.1, 267.1L215.5, 476.5C220.2, 481.2 227.8, 481.2 232.5, 476.5L441.9, 267.1C446.6, 262.4 446.6, 254.8 441.9, 250.1z" fill="#727272" fill-opacity="1" class="Black" />
  </g>
</svg>