<?xml version='1.0' encoding='UTF-8'?>
<svg viewBox="-2 0 32 32" xmlns="http://www.w3.org/2000/svg">
  <g transform="matrix(0.0625, 0, 0, 0.0625, 0, 0)">
    <path d="M234.9, 126.1L356.3, 247.5C361, 252.2 361, 259.8 356.3, 264.5L234.9, 385.9C230.2, 390.6 222.6, 390.6 217.9, 385.9L198.3, 366.3C193.5, 361.5 193.6, 353.8 198.5, 349.1L268.8, 282L108, 282C101.4, 282 96, 276.6 96, 270L96, 242C96, 235.4 101.4, 230 108, 230L268.8, 230L198.5, 162.9C193.6, 158.2 193.5, 150.5 198.3, 145.7L217.9, 126.1C222.6, 121.4 230.2, 121.4 234.9, 126.1zM448, 80L448, 432C448, 458.5 426.5, 480 400, 480L48, 480C21.5, 480 0, 458.5 0, 432L0, 80C0, 53.5 21.5, 32 48, 32L400, 32C426.5, 32 448, 53.5 448, 80zM400, 426L400, 86C400, 82.7 397.3, 80 394, 80L54, 80C50.7, 80 48, 82.7 48, 86L48, 426C48, 429.3 50.7, 432 54, 432L394, 432C397.3, 432 400, 429.3 400, 426z" fill="#727272" fill-opacity="1" class="Black" />
  </g>
</svg>