<?xml version='1.0' encoding='UTF-8'?>
<svg viewBox="-2 0.0012 32 32" xmlns="http://www.w3.org/2000/svg">
  <g transform="matrix(0.0625, 0, 0, 0.0625, 0, 0)">
    <path d="M229.9, 473.899L249.699, 454.1C254.385, 449.414 254.385, 441.816 249.699, 437.129L94.569, 282L436, 282C442.627, 282 448, 276.627 448, 270L448, 242C448, 235.373 442.627, 230 436, 230L94.569, 230L249.699, 74.87C254.385, 70.184 254.385, 62.586 249.699, 57.899L229.9, 38.101C225.214, 33.415 217.616, 33.415 212.929, 38.101L3.515, 247.515C-1.171, 252.201 -1.171, 259.799 3.515, 264.486L212.929, 473.9C217.615, 478.586 225.213, 478.586 229.9, 473.899z" fill="#727272" fill-opacity="1" class="Black" />
  </g>
</svg>