<?xml version='1.0' encoding='UTF-8'?>
<svg viewBox="-1.9999 -1.9961 32 31.9975" xmlns="http://www.w3.org/2000/svg">
  <g transform="matrix(0.0547, 0, 0, 0.0547, 0, 0)">
    <path d="M189.149, 512C175.894, 512 165.149, 501.255 165.149, 488C165.149, 474.745 175.894, 464 189.149, 464C225.542, 464 255.149, 433.984 255.149, 397.091L255.151, 396.757C256.157, 324.62 328, 312.824 328, 264C328, 197.082 274.503, 144 208, 144C141.62, 144 88, 196.95 88, 264C88, 277.255 77.255, 288 64, 288C50.745, 288 40, 277.255 40, 264C40, 170.662 114.866, 96 208, 96C300.97, 96 376, 170.484 376, 264C376, 338.659 303.901, 351.835 303.149, 397.282C303.043, 460.554 251.944, 512 189.149, 512zM296, 264C296, 215.477 256.523, 176 208, 176C159.477, 176 120, 215.477 120, 264C120, 277.255 130.745, 288 144, 288C157.255, 288 168, 277.255 168, 264C168, 241.944 185.944, 224 208, 224C230.056, 224 248, 241.944 248, 264C248, 277.255 258.745, 288 272, 288C285.255, 288 296, 277.255 296, 264zM426.99, 193C438.93, 187.245 443.945, 172.9 438.19, 160.96C420.984, 125.261 395.261, 93.556 363.805, 69.272C353.31, 61.173 338.241, 63.112 330.141, 73.605C322.041, 84.098 323.981, 99.168 334.473, 107.269C360.054, 127.017 380.966, 152.79 394.95, 181.801C400.709, 193.747 415.059, 198.752 426.99, 193zM498.394, 157.63C510.339, 151.886 515.368, 137.547 509.624, 125.601C485.742, 75.923 453.811, 35.36 414.708, 5.036C404.233, -3.086 389.159, -1.182 381.034, 9.294C372.912, 19.768 374.818, 34.844 385.292, 42.967C418.462, 68.69 445.735, 103.489 466.365, 146.399C472.109, 158.348 486.449, 163.371 498.394, 157.63zM208, 280C194.745, 280 184, 290.745 184, 304C184, 317.255 194.745, 328 208, 328C221.255, 328 232, 317.255 232, 304C232, 290.745 221.255, 280 208, 280zM144, 344C130.745, 344 120, 354.745 120, 368C120, 381.255 130.745, 392 144, 392C157.255, 392 168, 381.255 168, 368C168, 354.745 157.255, 344 144, 344zM24, 464C10.745, 464 0, 474.745 0, 488C0, 501.255 10.745, 512 24, 512C37.255, 512 48, 501.255 48, 488C48, 474.745 37.255, 464 24, 464zM128.971, 447.029L64.971, 383.029L31.03, 416.97L95.03, 480.97L128.971, 447.029z" fill="#727272" fill-opacity="1" class="Black" />
  </g>
</svg>