<?xml version='1.0' encoding='UTF-8'?>
<svg viewBox="-1.9988 0.0025 32 32" xmlns="http://www.w3.org/2000/svg">
  <g transform="matrix(0.0625, 0, 0, 0.0625, 0, 0)">
    <path d="M424.99, 55.03C385.37, 15.43 307.46, 28.48 224, 82.08C140.54, 28.51 62.65, 15.49 23.01, 55.03C-16.57, 94.58 -3.54, 172.42 50.11, 255.84C-3.53, 339.25 -16.56, 417.09 23.01, 456.65C84.05, 517.64 205.87, 441.28 224, 429.65C242.19, 441.33 363.91, 517.61 424.99, 456.65C464.57, 417.1 451.54, 339.26 397.89, 255.84C451.53, 172.42 464.56, 94.58 424.99, 55.03zM391.01, 88.97C407.77, 105.71 401.59, 153.62 367.3, 213.3C327.27, 162.97 289.07, 130.51 266.53, 112.63C308.64, 88.46 368.76, 66.8 391.01, 88.97zM56.99, 88.97C79.33, 66.7 139.66, 88.63 181.46, 112.62C131.08, 152.62 98.57, 190.83 80.7, 213.3C46.41, 153.62 40.23, 105.71 56.99, 88.97zM56.99, 422.69C40.23, 405.95 46.41, 358.04 80.7, 298.36C121.23, 349.33 158.89, 380.97 181.52, 398.93C121.78, 433.22 73.8, 439.41 56.99, 422.69zM223.99, 370.69C178.94, 337.26 143.02, 301.56 109.03, 255.84C128.27, 229.96 164.96, 184.32 223.99, 140.49C283.04, 184.33 319.81, 230.08 338.95, 255.84C305.25, 301.19 269.4, 337.01 223.99, 370.69zM391.01, 422.69C374.18, 439.42 326.21, 433.23 266.47, 398.94C289.1, 380.99 326.77, 349.32 367.3, 298.36C401.59, 358.04 407.77, 405.96 391.01, 422.69zM224, 223.82C206.31, 223.82 191.96, 238.15 191.96, 255.83C191.96, 273.51 206.3, 287.84 224, 287.84C241.7, 287.84 256.04, 273.51 256.04, 255.83C256.04, 238.15 241.69, 223.82 224, 223.82z" fill="#727272" fill-opacity="1" class="Black" />
  </g>
</svg>