<?xml version='1.0' encoding='UTF-8'?>
<svg viewBox="-3.7483 -2 32 32" xmlns="http://www.w3.org/2000/svg">
  <g transform="matrix(0.0547, 0, 0, 0.0547, 0, 0)">
    <path d="M439.22, 128.31C409.26, 74.65 326.97, 88.8 316.7, 90.36C296.45, 37.14 265.31, 0 224, 0C182.69, 0 151.56, 37.13 131.31, 90.34C121.02, 88.78 38.74, 74.67 8.78, 128.31C-10.17, 162.29 2.39, 208.82 38.5, 256C2.39, 303.18 -10.17, 349.71 8.78, 383.69C39.28, 438.31 123.53, 422.68 131.25, 421.51C151.5, 474.8 182.65, 512 224, 512C265.35, 512 296.5, 474.79 316.75, 421.51C324.5, 422.68 408.72, 438.3 439.22, 383.69C458.17, 349.72 445.61, 303.18 409.49, 256C445.61, 208.82 458.17, 162.29 439.22, 128.31zM50.76, 360.31C43.37, 347.08 50.33, 322.01 71.23, 292.49C82.39, 303.4 94.73, 314.14 108.14, 324.63C110.3, 341.9 113.35, 358.74 117.13, 374.89C96.74, 377.31 60.79, 378.34 50.76, 360.31zM108.14, 187.36C94.73, 197.85 82.39, 208.6 71.23, 219.5C50.33, 189.98 43.37, 164.91 50.76, 151.68C54.44, 145.06 68.28, 131.21 117.15, 137.02A487.708 487.708 0 0 0 108.14, 187.36zM224, 48C238.28, 48 255.68, 67.27 269.82, 101.53C254.85, 106.11 239.6, 111.54 224.02, 118.3C208.43, 111.53 193.17, 106.09 178.19, 101.51C192.33, 67.26 209.73, 48 224, 48zM224, 464C209.74, 464 192.37, 444.78 178.24, 410.61C193.16, 406.04 208.47, 400.34 224, 393.6C239.53, 400.34 254.83, 406.04 269.76, 410.61C255.63, 444.78 238.26, 464 224, 464zM294.36, 298.74C264.41, 320.12 242.6, 331.63 224, 340.75C205.43, 331.64 183.61, 320.14 153.64, 298.74C152.27, 281.66 150.57, 251.62 153.64, 213.26C183.66, 191.82 205.34, 180.41 224, 171.26C242.72, 180.44 264.39, 191.86 294.36, 213.26C295.73, 230.34 297.43, 260.38 294.36, 298.74zM397.24, 360.31C387.22, 378.32 351.32, 377.31 330.87, 374.89C334.65, 358.74 337.7, 341.9 339.86, 324.63C353.27, 314.14 365.61, 303.39 376.77, 292.49C397.67, 322.01 404.62, 347.08 397.24, 360.31zM376.76, 219.51C365.6, 208.6 353.26, 197.86 339.85, 187.37A486.552 486.552 0 0 0 330.84, 137.04C379.71, 131.23 393.55, 145.08 397.23, 151.7C404.62, 164.92 397.67, 189.99 376.76, 219.51zM224, 224C206.31, 224 191.96, 238.33 191.96, 256C191.96, 273.67 206.3, 288 224, 288C241.7, 288 256.04, 273.67 256.04, 256C256.04, 238.33 241.69, 224 224, 224z" fill="#727272" fill-opacity="1" class="Black" />
  </g>
</svg>