<?xml version='1.0' encoding='UTF-8'?>
<svg viewBox="-1.9975 -4.7983 32 32" xmlns="http://www.w3.org/2000/svg">
  <g transform="matrix(0.9989, 0, 0, 0.9989, 0, 0)">
    <g transform="matrix(0.0438, 0, 0, 0.0438, 0, 0)">
      <path d="M525.74, 160L467.15, 101.41L507.07, 61.49C513.32, 55.24 513.32, 45.11 507.07, 38.86L473.13, 4.93C466.88, -1.32 456.75, -1.32 450.5, 4.93L410.58, 44.85L375.12, 9.37C368.87, 3.12 360.68, 0 352.49, 0C344.3, 0 336.11, 3.12 329.86, 9.37L233.37, 105.86C220.87, 118.36 220.87, 138.62 233.37, 151.11L268.84, 186.58L4.69, 450.74C-1.56, 456.99 -1.56, 467.12 4.69, 473.37L38.63, 507.31C44.88, 513.56 55.01, 513.56 61.26, 507.31L325.42, 243.15L384, 301.74L384, 416L416, 416C539.71, 416 640, 315.71 640, 192L640, 160L525.74, 160zM432, 367.28L432, 281.86L427.31, 277.17L278.63, 128.49L352.48, 54.62L501.18, 203.32L505.87, 208.01L591.29, 208.01C583.65, 292.31 516.31, 359.65 432, 367.28z" fill="#727272" fill-opacity="1" class="Black" />
    </g>
  </g>
</svg>