<?xml version='1.0' encoding='UTF-8'?>
<svg viewBox="-5.5061 -1.9998 32 31.9975" xmlns="http://www.w3.org/2000/svg">
  <g transform="matrix(0.0547, 0, 0, 0.0547, 0, 0)">
    <path d="M192, 160C236.2, 160 272, 124.2 272, 80C272, 35.8 236.2, 0 192, 0C147.8, 0 112, 35.8 112, 80C112, 124.2 147.8, 160 192, 160zM327.6, 216.2L370.4, 186.2C384.9, 176.1 388.4, 156.1 378.2, 141.6C368.1, 127.1 348.1, 123.6 333.6, 133.8L290.8, 163.8C231.9, 205.1 151.9, 205.1 93, 163.8L50.2, 133.8C35.7, 123.6 15.7, 127.2 5.6, 141.6C-4.6, 156.1 -1.1, 176 13.4, 186.2L56.2, 216.2C73.6, 228.4 92.4, 237.6 111.8, 244.7L111.8, 284.9C102.4, 290.5 95.8, 300.3 95.8, 312L95.8, 330.7C95.8, 336.9 98.1, 342.6 101.4, 347.7L63, 396C53.9, 407.4 53.7, 423.5 62.4, 435.2L110.4, 499.2C116.7, 507.6 126.3, 512 136, 512C142.7, 512 149.4, 509.9 155.2, 505.6C169.4, 495 172.2, 474.9 161.6, 460.8L128.5, 416.6L146.8, 393.7C158.1, 402.7 172, 407.9 186.6, 407.9L197.6, 407.9C212.2, 407.9 226.1, 402.7 237.4, 393.7L255.7, 416.6L222.6, 460.8C212, 474.9 214.8, 495 229, 505.6C234.8, 509.9 241.5, 512 248.2, 512C258, 512 267.5, 507.6 273.8, 499.2L321.8, 435.2C330.6, 423.5 330.3, 407.4 321.2, 396L282.6, 347.7C285.9, 342.6 288.2, 336.9 288.2, 330.7L288.2, 312C288.2, 300.3 281.6, 290.5 272.2, 284.9L272.2, 244.7C291.5, 237.6 310.2, 228.4 327.6, 216.2zM256, 330.7L220.1, 366.6C214.1, 372.6 206, 376 197.5, 376L186.5, 376C178, 376 169.9, 372.7 163.9, 366.6L128, 330.7L128, 312L256, 312L256, 330.7z" fill="#727272" fill-opacity="1" class="Black" />
  </g>
</svg>