<?xml version='1.0' encoding='UTF-8'?>
<svg viewBox="-3.7495 -2 32 32" xmlns="http://www.w3.org/2000/svg">
  <g transform="matrix(0.0547, 0, 0, 0.0547, 0, 0)">
    <path d="M320, 80L312, 80L312, 56C312, 25.12 286.88, 0 256, 0L192, 0C161.12, 0 136, 25.12 136, 56L136, 80L128, 80C57.31, 80 0, 137.31 0, 208L0, 448C0, 483.35 28.65, 512 64, 512L384, 512C419.35, 512 448, 483.35 448, 448L448, 208C448, 137.31 390.69, 80 320, 80zM184, 56C184, 51.59 187.59, 48 192, 48L256, 48C260.41, 48 264, 51.59 264, 56L264, 80L184, 80L184, 56zM320, 464L128, 464L128, 400L320, 400L320, 464zM320, 352L128, 352L128, 320C128, 302.33 142.33, 288 160, 288L288, 288C305.67, 288 320, 302.33 320, 320L320, 352zM400, 448C400, 456.82 392.82, 464 384, 464L368, 464L368, 320C368, 275.89 332.11, 240 288, 240L160, 240C115.89, 240 80, 275.89 80, 320L80, 464L64, 464C55.18, 464 48, 456.82 48, 448L48, 208C48, 163.89 83.89, 128 128, 128L320, 128C364.11, 128 400, 163.89 400, 208L400, 448zM304, 160L144, 160C135.16, 160 128, 167.16 128, 176L128, 192C128, 200.84 135.16, 208 144, 208L304, 208C312.84, 208 320, 200.84 320, 192L320, 176C320, 167.16 312.84, 160 304, 160z" fill="#727272" fill-opacity="1" class="Black" />
  </g>
</svg>