<?xml version='1.0' encoding='UTF-8'?>
<svg viewBox="-1.9974 -1.9974 32 31.9975" xmlns="http://www.w3.org/2000/svg">
  <g transform="matrix(0.0547, 0, 0, 0.0547, 0, 0)">
    <path d="M267.5, 281.2L459.5, 440.6C480.1, 457.8 512, 443.4 512, 416L512, 96C512, 68.6 480.1, 54.2 459.5, 71.4L267.5, 232C252.2, 244.8 252.2, 268.4 267.5, 281.2zM464, 130.3L464, 382L313, 256.6L464, 130.3zM11.5, 281.2L203.5, 440.6C224.1, 457.8 256, 443.4 256, 416L256, 96C256, 68.6 224.1, 54.2 203.5, 71.4L11.5, 232C-3.8, 244.8 -3.8, 268.4 11.5, 281.2zM208, 130.3L208, 382L57, 256.6L208, 130.3z" fill="#727272" fill-opacity="1" class="Black" />
  </g>
</svg>