<?xml version='1.0' encoding='UTF-8'?>
<svg viewBox="-1.9974 -3.5527 31.9975 32" xmlns="http://www.w3.org/2000/svg">
  <g transform="matrix(0.0486, 0, 0, 0.0486, 0, 0)">
    <path d="M566.93, 104.4L470.81, 8.91A31 31 0 0 0 430.63, 6.08C416.99, 16.18 405.48, 20.47 389.63, 26.38C247, 79.52 209.26, 191.29 200.65, 214.11C170.9, 292.93 111.1, 308.78 101.93, 312.19C77.07, 321.45 47.2, 332.57 10.86, 362.55C-3, 374 -3.63, 395 9.07, 407.61L105.21, 503.1A30.73 30.73 0 0 0 126.92, 512A31.05 31.05 0 0 0 145.39, 505.92C158.99, 495.86 170.48, 491.58 186.33, 485.68C328.53, 432.68 366.33, 321.58 375.27, 297.99C405, 219.18 464.8, 203.3 474, 199.86C498.87, 190.6 528.74, 179.46 565.11, 149.45C579, 138.05 579.63, 117 566.93, 104.4zM83.14, 413.53L57.08, 387.64C80.14, 371.53 99.83, 364.2 119.64, 356.85C194, 331.54 229.17, 274.47 245.55, 231.06L246.55, 228.49C274.55, 153.32 328.3, 100.49 406.4, 71.36C419.95, 66.36 432.9, 61.49 447.01, 52.89L469.42, 75.16C456.33, 82.39 444.16, 87 431.69, 91.71C403.41, 102.31 374.12, 113.3 334.34, 153.08C294.56, 192.86 283.56, 222.14 273, 250.44C263.12, 276.71 253.84, 301.5 219, 336.39C184.16, 371.28 159.34, 380.55 133.09, 390.39C117.27, 396.29 101.14, 402.49 83.14, 413.53zM456.31, 155.21C381.87, 180.56 346.73, 237.64 330.36, 281L329.45, 283.42C301.39, 358.7 247.59, 411.6 169.55, 440.67C156.04, 445.67 143.12, 450.51 129.04, 459.08L106.63, 436.81C119.63, 429.6 131.8, 424.98 144.25, 420.31C172.53, 409.71 201.78, 398.74 241.56, 358.98C281.34, 319.22 292.31, 289.98 302.91, 261.63C312.78, 235.37 322.06, 210.57 356.97, 175.63C391.88, 140.69 416.66, 131.44 442.97, 121.63C458.73, 115.72 474.87, 109.5 492.89, 98.44L518.96, 124.34C495.84, 140.52 476.14, 147.85 456.31, 155.21z" fill="#727272" fill-opacity="1" class="Black" />
  </g>
</svg>