<?xml version='1.0' encoding='UTF-8'?>
<svg viewBox="-1.9999 -3.5552 32 32" xmlns="http://www.w3.org/2000/svg">
  <g transform="matrix(0.0486, 0, 0, 0.0486, 0, 0)">
    <path d="M272, 240A16 16 0 0 0 288, 256L304, 256A16 16 0 0 0 320, 240L320, 208L400, 208L400, 256L448, 256L448, 192A32 32 0 0 0 416, 160L320, 160L320, 96A96 96 0 0 0 128, 96L128, 160L32, 160A32 32 0 0 0 0, 192L0, 448A32 32 0 0 0 32, 480L160, 480L160, 432L48, 432L48, 208L128, 208L128, 240A16 16 0 0 0 144, 256L160, 256A16 16 0 0 0 176, 240L176, 208L272, 208zM176, 160L176, 96A48 48 0 0 1 272, 96L272, 160zM544, 288L224, 288A32 32 0 0 0 192, 320L192, 480A32 32 0 0 0 224, 512L544, 512A32 32 0 0 0 576, 480L576, 320A32 32 0 0 0 544, 288zM432, 336A48 48 0 0 1 336, 336zM528, 464L240, 464L240, 336L288.3, 336C289.87, 383.4 324.1, 425.12 371.37, 431.19A96.12 96.12 0 0 0 480, 336L528, 336z" fill="#727272" fill-opacity="1" class="Black" />
  </g>
</svg>