<?xml version='1.0' encoding='UTF-8'?>
<svg viewBox="-2 -4.7992 32 32" xmlns="http://www.w3.org/2000/svg">
  <g transform="matrix(0.9988, 0, 0, 0.9988, 0, 0)">
    <g transform="matrix(0.0438, 0, 0, 0.0438, 0, 0)">
      <path d="M256, 304L255.98, 304C255.98, 288.33 258.06, 296.75 170.93, 122.49C162.1, 104.82 145.05, 96 128.01, 96C110.95, 96 93.89, 104.84 85.06, 122.49C-1.32, 295.27 0.02, 287.82 0.02, 304L0, 304C0, 348.18 57.31, 384 128, 384C198.69, 384 256, 348.18 256, 304zM128, 143.96L128.02, 144C128.17, 144 193.98, 275.32 200.17, 288L55.75, 288C61.6, 276.04 108.18, 183.6 128, 143.96zM529.89, 168.25L534.97, 153.08C537.77, 144.7 533.25, 135.63 524.87, 132.83L398.92, 90.69C399.4, 87.16 400, 83.66 400, 80C400, 35.82 364.18, 0 320, 0C290.04, 0 264.24, 16.66 250.53, 41.04L130.36, 0.83C121.98, -1.97 112.91, 2.55 110.11, 10.93L105.03, 26.1C102.23, 34.48 106.75, 43.55 115.13, 46.35L240.84, 88.41C244.23, 120.39 266.22, 146.51 295.99, 155.93L295.99, 464L112, 464C103.16, 464 96, 471.16 96, 480L96, 496C96, 504.84 103.16, 512 112, 512L328, 512C336.84, 512 344, 504.84 344, 496L344, 155.93C357.29, 151.73 369.06, 144.36 378.34, 134.42L509.63, 178.35C518.02, 181.15 527.08, 176.63 529.89, 168.25zM320, 112C302.36, 112 288, 97.64 288, 80C288, 62.36 302.36, 48 320, 48C337.64, 48 352, 62.36 352, 80C352, 97.64 337.64, 112 320, 112zM639.98, 432C639.98, 416.33 642.06, 424.75 554.93, 250.49C546.09, 232.82 529.05, 223.99 512.01, 224C494.95, 224 477.89, 232.84 469.06, 250.49C382.68, 423.27 384.02, 415.82 384.02, 432L384, 432C384, 476.18 441.31, 512 512, 512C582.69, 512 640, 476.18 640, 432L639.98, 432zM439.75, 416C445.6, 404.04 492.18, 311.6 512, 271.96L512.02, 272C512.17, 272 512.28, 272.03 512.31, 272.03C530.75, 309.44 577.98, 403.32 584.18, 416L439.75, 416z" fill="#727272" fill-opacity="1" class="Black" />
    </g>
  </g>
</svg>