<?xml version='1.0' encoding='UTF-8'?>
<svg viewBox="-2 -4.7992 32 32" xmlns="http://www.w3.org/2000/svg">
  <g transform="matrix(0.9988, 0, 0, 0.9988, 0, 0)">
    <g transform="matrix(0.0438, 0, 0, 0.0438, 0, 0)">
      <path d="M512, 384C582.69, 384 640, 348.18 640, 304L639.98, 304C639.98, 287.82 641.32, 295.27 554.93, 122.49C546.11, 104.84 529.04, 96 511.99, 96C494.95, 96 477.91, 104.82 469.07, 122.49C381.94, 296.75 384.02, 288.33 384.02, 304L384, 304C384, 348.18 441.31, 384 512, 384zM584.25, 288L439.83, 288C446.02, 275.32 511.83, 144 511.98, 144L512, 143.96C531.82, 183.6 578.4, 276.04 584.25, 288zM130.36, 178.35L261.65, 134.42C270.93, 144.37 282.71, 151.73 295.99, 155.93L295.99, 496C295.99, 504.84 303.15, 512 311.99, 512L527.99, 512C536.83, 512 543.99, 504.84 543.99, 496L543.99, 480C543.99, 471.16 536.83, 464 527.99, 464L344, 464L344, 155.93C373.77, 146.51 395.76, 120.39 399.15, 88.41L524.86, 46.35C533.24, 43.55 537.76, 34.48 534.96, 26.1L529.88, 10.93C527.08, 2.55 518.01, -1.97 509.63, 0.83L389.47, 41.04C375.76, 16.66 349.96, 0 320, 0C275.82, 0 240, 35.82 240, 80C240, 83.66 240.6, 87.16 241.08, 90.69L115.13, 132.83C106.75, 135.63 102.23, 144.7 105.03, 153.08L110.11, 168.25C112.92, 176.63 121.98, 181.15 130.36, 178.35zM288, 80C288, 62.36 302.36, 48 320, 48C337.64, 48 352, 62.36 352, 80C352, 97.64 337.64, 112 320, 112C302.36, 112 288, 97.65 288, 80zM0, 432C0, 476.18 57.31, 512 128, 512C198.69, 512 256, 476.18 256, 432L255.98, 432C255.98, 415.82 257.32, 423.27 170.93, 250.49C162.1, 232.84 145.04, 224 127.98, 224C110.94, 224 93.9, 232.82 85.06, 250.49C-2.06, 424.75 0.02, 416.33 0.02, 432L0, 432zM55.83, 416C62.02, 403.32 109.26, 309.44 127.7, 272.03C127.73, 272.02 127.83, 272 127.99, 272L128.01, 271.96C147.83, 311.6 194.41, 404.04 200.26, 416L55.83, 416z" fill="#727272" fill-opacity="1" class="Black" />
    </g>
  </g>
</svg>