<?xml version='1.0' encoding='UTF-8'?>
<svg viewBox="-1.9998 -3.5563 31.9975 32" xmlns="http://www.w3.org/2000/svg">
  <g transform="matrix(0.0486, 0, 0, 0.0486, 0, 0)">
    <path d="M480, 320C469.6, 320 459.7, 322.1 450.3, 325.2C468.5, 307.7 480, 283.3 480, 256C480, 203 437, 160 384, 160C373.6, 160 363.7, 162.1 354.3, 165.2C372.6, 147.7 384, 123.2 384, 96C384, 43 341, 0 288, 0C235, 0 192, 43 192, 96C192, 123.2 203.4, 147.7 221.7, 165.2C212.3, 162.1 202.5, 160 192, 160C139, 160 96, 203 96, 256C96, 283.2 107.4, 307.7 125.7, 325.2C116.3, 322.1 106.5, 320 96, 320C43, 320 0, 363 0, 416C0, 469 43, 512 96, 512C149, 512 192, 469 192, 416C192, 388.8 180.6, 364.3 162.3, 346.8C171.7, 349.9 181.5, 352 192, 352C202.5, 352 212.3, 349.9 221.7, 346.8C203.4, 364.3 192, 388.8 192, 416C192, 469 235, 512 288, 512C341, 512 384, 469 384, 416C384, 388.8 372.6, 364.3 354.3, 346.8C363.7, 349.9 373.5, 352 384, 352C394.5, 352 404.3, 349.9 413.7, 346.8C395.4, 364.3 384, 388.8 384, 416C384, 469 427, 512 480, 512C533, 512 576, 469 576, 416C576, 363 533, 320 480, 320zM288, 48C314.5, 48 336, 69.5 336, 96C336, 122.5 314.5, 144 288, 144C261.5, 144 240, 122.5 240, 96C240, 69.5 261.5, 48 288, 48zM317.7, 325.2C308.3, 322.1 298.5, 320 288, 320C277.5, 320 267.7, 322.1 258.3, 325.2C276.5, 307.7 288, 283.3 288, 256C288, 228.7 276.6, 204.3 258.3, 186.8C267.7, 189.9 277.5, 192 288, 192C298.5, 192 308.3, 189.9 317.7, 186.8C299.4, 204.3 288, 228.8 288, 256C288, 283.2 299.4, 307.7 317.7, 325.2zM96, 464C69.5, 464 48, 442.5 48, 416C48, 389.5 69.5, 368 96, 368C122.5, 368 144, 389.5 144, 416C144, 442.5 122.5, 464 96, 464zM192, 304C165.5, 304 144, 282.5 144, 256C144, 229.5 165.5, 208 192, 208C218.5, 208 240, 229.5 240, 256C240, 282.5 218.5, 304 192, 304zM288, 464C261.5, 464 240, 442.5 240, 416C240, 389.5 261.5, 368 288, 368C314.5, 368 336, 389.5 336, 416C336, 442.5 314.5, 464 288, 464zM384, 304C357.5, 304 336, 282.5 336, 256C336, 229.5 357.5, 208 384, 208C410.5, 208 432, 229.5 432, 256C432, 282.5 410.5, 304 384, 304zM480, 464C453.5, 464 432, 442.5 432, 416C432, 389.5 453.5, 368 480, 368C506.5, 368 528, 389.5 528, 416C528, 442.5 506.5, 464 480, 464z" fill="#727272" fill-opacity="1" class="Black" />
  </g>
</svg>