<?xml version='1.0' encoding='UTF-8'?>
<svg viewBox="-3.7494 -1.9999 32 32" xmlns="http://www.w3.org/2000/svg">
  <g transform="matrix(0.0547, 0, 0, 0.0547, 0, 0)">
    <path d="M200, 408L344, 408C348.4, 408 352, 404.4 352, 400L352, 368C352, 363.6 348.4, 360 344, 360L200, 360C195.6, 360 192, 363.6 192, 368L192, 400C192, 404.4 195.6, 408 200, 408zM112, 416L144, 416C152.8, 416 160, 408.8 160, 400L160, 368C160, 359.2 152.8, 352 144, 352L112, 352C103.2, 352 96, 359.2 96, 368L96, 400C96, 408.8 103.2, 416 112, 416zM112, 288L144, 288C152.8, 288 160, 280.8 160, 272L160, 240C160, 231.2 152.8, 224 144, 224L112, 224C103.2, 224 96, 231.2 96, 240L96, 272C96, 280.8 103.2, 288 112, 288zM200, 280L344, 280C348.4, 280 352, 276.4 352, 272L352, 240C352, 235.6 348.4, 232 344, 232L200, 232C195.6, 232 192, 235.6 192, 240L192, 272C192, 276.4 195.6, 280 200, 280zM112, 160L144, 160C152.8, 160 160, 152.8 160, 144L160, 112C160, 103.2 152.8, 96 144, 96L112, 96C103.2, 96 96, 103.2 96, 112L96, 144C96, 152.8 103.2, 160 112, 160zM200, 152L344, 152C348.4, 152 352, 148.4 352, 144L352, 112C352, 107.6 348.4, 104 344, 104L200, 104C195.6, 104 192, 107.6 192, 112L192, 144C192, 148.4 195.6, 152 200, 152zM416, 0L32, 0C14.3, 0 0, 14.3 0, 32L0, 480C0, 497.7 14.3, 512 32, 512L416, 512C433.7, 512 448, 497.7 448, 480L448, 32C448, 14.3 433.7, 0 416, 0zM400, 464L48, 464L48, 48L400, 48L400, 464z" fill="#727272" fill-opacity="1" class="Black" />
  </g>
</svg>