<?xml version='1.0' encoding='UTF-8'?>
<svg viewBox="-1.5477 -1.5477 32 32" xmlns="http://www.w3.org/2000/svg">
  <g transform="matrix(0.9991, 0, 0, 0.9991, 0, 0)">
    <g transform="matrix(0.0565, 0, 0, 0.0565, 0, 0)">
      <path d="M256, 8C119.033, 8 8, 119.033 8, 256C8, 392.967 119.033, 504 256, 504C392.967, 504 504, 392.967 504, 256C504, 119.033 392.967, 8 256, 8zM397.421, 114.579C470.597, 187.754 474.471, 301.88 413.385, 379.444L132.556, 98.615C210.144, 37.51 324.265, 41.422 397.421, 114.579zM114.579, 397.421C41.403, 324.246 37.529, 210.12 98.615, 132.556L379.444, 413.385C301.856, 474.49 187.735, 470.578 114.579, 397.421z" fill="#727272" fill-opacity="1" class="Black" />
    </g>
  </g>
</svg>