<?xml version='1.0' encoding='UTF-8'?>
<svg viewBox="-2 -4.7992 32 32" xmlns="http://www.w3.org/2000/svg">
  <g transform="matrix(0.9988, 0, 0, 0.9988, 0, 0)">
    <g transform="matrix(0.0438, 0, 0, 0.0438, 0, 0)">
      <path d="M552, 96L88, 96C39.5, 96 0, 135.5 0, 184L0, 328C0, 376.5 39.5, 416 88, 416L552, 416C600.5, 416 640, 376.5 640, 328L640, 184C640, 135.5 600.5, 96 552, 96zM88, 368C65.9, 368 48, 350.1 48, 328L48, 184C48, 161.9 65.9, 144 88, 144L192, 144L192, 368L88, 368zM272, 280C285.3, 280 296, 290.7 296, 304C296, 317.3 285.3, 328 272, 328C258.7, 328 248, 317.3 248, 304C248, 290.7 258.7, 280 272, 280zM248, 208C248, 194.7 258.7, 184 272, 184C285.3, 184 296, 194.7 296, 208C296, 221.3 285.3, 232 272, 232C258.7, 232 248, 221.3 248, 208zM344, 304C344, 290.7 354.7, 280 368, 280C381.3, 280 392, 290.7 392, 304C392, 317.3 381.3, 328 368, 328C354.7, 328 344, 317.3 344, 304zM368, 232C354.7, 232 344, 221.3 344, 208C344, 194.7 354.7, 184 368, 184C381.3, 184 392, 194.7 392, 208C392, 221.3 381.3, 232 368, 232zM592, 328C592, 350.1 574.1, 368 552, 368L448, 368L448, 144L552, 144C574.1, 144 592, 161.9 592, 184L592, 328z" fill="#727272" fill-opacity="1" class="Black" />
    </g>
  </g>
</svg>