<?xml version='1.0' encoding='UTF-8'?>
<svg viewBox="-2 -4.7992 32 32" xmlns="http://www.w3.org/2000/svg">
  <g transform="matrix(0.9988, 0, 0, 0.9988, 0, 0)">
    <g transform="matrix(0.0438, 0, 0, 0.0438, 0, 0)">
      <path d="M632, 232L8, 232C3.6, 232 0, 234.7 0, 238L0, 274C0, 277.3 3.6, 280 8, 280L632, 280C636.4, 280 640, 277.3 640, 274L640, 238C640, 234.7 636.4, 232 632, 232zM288, 8C288, 3.6 284.4, 0 280, 0L232, 0C227.6, 0 224, 3.6 224, 8L224, 160L288, 160L288, 8zM384, 8C384, 3.6 380.4, 0 376, 0L360, 0C355.6, 0 352, 3.6 352, 8L352, 160L384, 160L384, 8zM480, 8C480, 3.6 476.4, 0 472, 0L424, 0C419.6, 0 416, 3.6 416, 8L416, 160L480, 160L480, 8zM160, 8C160, 3.6 156.4, 0 152, 0L72, 0C67.6, 0 64, 3.6 64, 8L64, 160L160, 160L160, 8zM576, 8C576, 3.6 572.4, 0 568, 0L520, 0C515.6, 0 512, 3.6 512, 8L512, 160L576, 160L576, 8zM512, 504C512, 508.4 515.6, 512 520, 512L568, 512C572.4, 512 576, 508.4 576, 504L576, 352L512, 352L512, 504zM352, 504C352, 508.4 355.6, 512 360, 512L376, 512C380.4, 512 384, 508.4 384, 504L384, 352L352, 352L352, 504zM416, 504C416, 508.4 419.6, 512 424, 512L472, 512C476.4, 512 480, 508.4 480, 504L480, 352L416, 352L416, 504zM224, 504C224, 508.4 227.6, 512 232, 512L280, 512C284.4, 512 288, 508.4 288, 504L288, 352L224, 352L224, 504zM64, 504C64, 508.4 67.6, 512 72, 512L152, 512C156.4, 512 160, 508.4 160, 504L160, 352L64, 352L64, 504z" fill="#727272" fill-opacity="1" class="Black" />
    </g>
  </g>
</svg>