<?xml version='1.0' encoding='UTF-8'?>
<svg viewBox="-2 -4.7992 32 32" xmlns="http://www.w3.org/2000/svg">
  <g transform="matrix(0.9988, 0, 0, 0.9988, 0, 0)">
    <g transform="matrix(0.0438, 0, 0, 0.0438, 0, 0)">
      <path d="M248, 128L232, 128C227.6, 128 224, 131.6 224, 136L224, 376C224, 380.4 227.6, 384 232, 384L248, 384C252.4, 384 256, 380.4 256, 376L256, 136C256, 131.6 252.4, 128 248, 128zM184, 128L136, 128C131.6, 128 128, 131.6 128, 136L128, 376C128, 380.4 131.6, 384 136, 384L184, 384C188.4, 384 192, 380.4 192, 376L192, 136C192, 131.6 188.4, 128 184, 128zM144, 464L48, 464L48, 368C48, 359.2 40.8, 352 32, 352L16, 352C7.2, 352 0, 359.2 0, 368L0, 496C0, 504.8 7.2, 512 16, 512L144, 512C152.8, 512 160, 504.8 160, 496L160, 480C160, 471.2 152.8, 464 144, 464zM16, 160L32, 160C40.8, 160 48, 152.8 48, 144L48, 48L144, 48C152.8, 48 160, 40.8 160, 32L160, 16C160, 7.2 152.8, 0 144, 0L16, 0C7.2, 0 0, 7.2 0, 16L0, 144C0, 152.8 7.2, 160 16, 160zM512, 376L512, 136C512, 131.6 508.4, 128 504, 128L456, 128C451.6, 128 448, 131.6 448, 136L448, 376C448, 380.4 451.6, 384 456, 384L504, 384C508.4, 384 512, 380.4 512, 376zM312, 128L296, 128C291.6, 128 288, 131.6 288, 136L288, 376C288, 380.4 291.6, 384 296, 384L312, 384C316.4, 384 320, 380.4 320, 376L320, 136C320, 131.6 316.4, 128 312, 128zM624, 352L608, 352C599.2, 352 592, 359.2 592, 368L592, 464L496, 464C487.2, 464 480, 471.2 480, 480L480, 496C480, 504.8 487.2, 512 496, 512L624, 512C632.8, 512 640, 504.8 640, 496L640, 368C640, 359.2 632.8, 352 624, 352zM624, 0L496, 0C487.2, 0 480, 7.2 480, 16L480, 32C480, 40.8 487.2, 48 496, 48L592, 48L592, 144C592, 152.8 599.2, 160 608, 160L624, 160C632.8, 160 640, 152.8 640, 144L640, 16C640, 7.2 632.8, 0 624, 0zM408, 128L360, 128C355.6, 128 352, 131.6 352, 136L352, 376C352, 380.4 355.6, 384 360, 384L408, 384C412.4, 384 416, 380.4 416, 376L416, 136C416, 131.6 412.4, 128 408, 128z" fill="#727272" fill-opacity="1" class="Black" />
    </g>
  </g>
</svg>