<?xml version='1.0' encoding='UTF-8'?>
<svg viewBox="-2 0 32 32" xmlns="http://www.w3.org/2000/svg">
  <g transform="matrix(0.0625, 0, 0, 0.0625, 0, 0)">
    <path d="M436, 124L12, 124C5.373, 124 0, 118.627 0, 112L0, 80C0, 73.373 5.373, 68 12, 68L436, 68C442.627, 68 448, 73.373 448, 80L448, 112C448, 118.627 442.627, 124 436, 124zM436, 284L12, 284C5.373, 284 0, 278.627 0, 272L0, 240C0, 233.373 5.373, 228 12, 228L436, 228C442.627, 228 448, 233.373 448, 240L448, 272C448, 278.627 442.627, 284 436, 284zM436, 444L12, 444C5.373, 444 0, 438.627 0, 432L0, 400C0, 393.373 5.373, 388 12, 388L436, 388C442.627, 388 448, 393.373 448, 400L448, 432C448, 438.627 442.627, 444 436, 444z" fill="#727272" fill-opacity="1" class="Black" />
  </g>
</svg>