<?xml version='1.0' encoding='UTF-8'?>
<svg viewBox="-2 -4.7992 32 32" xmlns="http://www.w3.org/2000/svg">
  <g transform="matrix(0.9988, 0, 0, 0.9988, 0, 0)">
    <g transform="matrix(0.0438, 0, 0, 0.0438, 0, 0)">
      <path d="M320, 320L96, 320L96, 192L320, 192L320, 320zM560, 144L48, 144L48, 368L560, 368L560, 304L592, 304L592, 208L560, 208L560, 144M560, 96C586.51, 96 608, 117.49 608, 144L608, 160L616, 160C629.255, 160 640, 170.745 640, 184L640, 328C640, 341.255 629.255, 352 616, 352L608, 352L608, 368C608, 394.51 586.51, 416 560, 416L48, 416C21.49, 416 0, 394.51 0, 368L0, 144C0, 117.49 21.49, 96 48, 96L560, 96z" fill="#727272" fill-opacity="1" class="Black" />
    </g>
  </g>
</svg>