<?xml version='1.0' encoding='UTF-8'?>
<svg viewBox="-1.9925 -4.7952 32 32" xmlns="http://www.w3.org/2000/svg">
  <g transform="matrix(0.9992, 0, 0, 0.9992, 0, 0)">
    <g transform="matrix(0.0438, 0, 0, 0.0438, 0, 0)">
      <path d="M638.4, 313.9C636.3, 308 632, 302.7 625.5, 299.4C604.5, 288.6 567.2, 274.5 538.1, 194.4C537.3, 192.2 523.4, 153.9 522.7, 151.8C503, 97.6 451.8, 64 397.4, 64C382.3, 64 366.9, 66.6 351.8, 72.1C348.2, 73.4 345.2, 75.4 341.8, 76.9C327.6, 60.9 309.7, 47.9 288.3, 40.1C273.3, 34.6 257.8, 32 242.7, 32C188.2, 32 137.1, 65.6 117.4, 119.8C116.6, 121.9 102.8, 160.2 102, 162.4C72.8, 242.5 35.6, 256.7 14.6, 267.4C8.1, 270.7 3.8, 276 1.7, 281.9C-2.9, 294.8 2.7, 310.7 17.7, 316.1L99.5, 346C97.4, 353 96, 360.3 96, 368C96, 412.2 131.8, 448 176, 448C208.6, 448 236.5, 428.4 248.9, 400.4L291, 415.7C288.2, 422.2 283.5, 430.5 287.6, 441.7C292.5, 454.8 307.2, 463 321.9, 457.6L398.2, 429.8C410, 459.1 438.4, 480 472, 480C516.2, 480 552, 444.2 552, 400C552, 391.3 550.1, 383.2 547.5, 375.4L622.5, 348.1C637.4, 342.7 643, 326.8 638.4, 313.9zM176, 400C158.4, 400 144, 385.6 144, 368C144, 366.1 144.6, 364.3 144.9, 362.5L203.3, 383.7C197.7, 393.3 187.8, 400 176, 400zM76.1, 286.4C99.3, 268.2 125.8, 237.1 147, 178.9C156.1, 153.9 152.6, 163.3 162.4, 136.3C174.6, 102.7 206.9, 80.1 242.6, 80.1C264.1, 80.1 285.1, 87.9 302, 104.9C267.6, 140.4 254, 193.5 272, 243.1C272.8, 245.2 286.8, 283.5 287.6, 285.7C300.7, 321.8 303.8, 348.3 302.6, 369L76.1, 286.4zM504, 400C504, 417.6 489.6, 432 472, 432C459.2, 432 448.5, 424.2 443.6, 413.3L502.5, 391.8C503.3, 394.4 504, 397.1 504, 400zM347.5, 397.1C353.5, 368.3 353.9, 327.4 332.7, 269.1C324.1, 245.6 327.2, 254.1 317.1, 226.5C301, 182.3 323.9, 133.2 368.1, 117.1C412.7, 100.9 461.5, 124.2 477.5, 168.1C487.2, 194.8 482.5, 181.9 492.9, 210.7C514.1, 269 540.7, 300 563.8, 318.3L347.5, 397.1z" fill="#727272" fill-opacity="1" class="Black" />
    </g>
  </g>
</svg>