<?xml version='1.0' encoding='UTF-8'?>
<svg viewBox="-3.773 -2.0523 32 32" xmlns="http://www.w3.org/2000/svg">
  <g transform="matrix(0.0546, 0, 0, 0.0546, 0, 0)">
    <path d="M236.46, 290.51A31.94 31.94 0 1 0 253.46, 307.51A31.92 31.92 0 0 0 236.46, 290.51zM246.29, 128L201.69, 128A16.06 16.06 0 0 0 185.79, 145.6L198.59, 241.6A16 16 0 0 0 214.49, 256L233.49, 256A16 16 0 0 0 249.39, 241.6L262.19, 145.6A16 16 0 0 0 246.29, 128zM224, 512A64 64 0 0 0 288, 448L160, 448A64 64 0 0 0 224, 512zM439.37, 362.3C420.06, 341.53 383.91, 310.3 383.91, 208C383.91, 130.3 329.44, 68.09 255.97, 52.84L255.97, 32A32 32 0 1 0 192, 32L192, 52.84C118.56, 68.09 64.09, 130.3 64.09, 208C64.09, 310.3 27.94, 341.53 8.63, 362.3A31.17 31.17 0 0 0 0, 384C0.13, 400.41 13, 416 32.09, 416L415.91, 416C435.03, 416 447.91, 400.41 448, 384A31.17 31.17 0 0 0 439.37, 362.3zM67.53, 368C88.75, 340 111.94, 293.67 112.06, 208.58C112.06, 208.38 112, 208.2 112, 208A112 112 0 0 1 336, 208C336, 208.2 335.94, 208.38 335.94, 208.58C336.06, 293.69 359.25, 340.05 380.47, 368z" fill="#727272" fill-opacity="1" class="Black" />
  </g>
</svg>