<?xml version='1.0' encoding='UTF-8'?>
<svg viewBox="-1.9973 -4.7991 31.995 32" xmlns="http://www.w3.org/2000/svg">
  <g transform="matrix(0.9989, 0, 0, 0.9989, 0, 0)">
    <g transform="matrix(0.0438, 0, 0, 0.0438, 0, 0)">
      <path d="M633.99, 471.02L36, 3.51C29.1, -2.01 19.03, -0.9 13.51, 6L3.51, 18.49C-2.02, 25.39 -0.9, 35.46 6, 40.98L604, 508.49C610.9, 514.01 620.96, 512.89 626.49, 506L636.49, 493.51C642.01, 486.61 640.9, 476.54 633.99, 471.02zM163.53, 368C180.24, 345.97 198.01, 312.2 204.93, 257.42L159.46, 221.87C156.19, 312.6 122.99, 342.55 104.62, 362.29C98.62, 368.74 95.96, 376.45 96.01, 384C96.12, 400.4 108.99, 416 128.11, 416L407.77, 416L346.37, 368L163.53, 368zM320, 96C381.86, 96 432, 146.14 432, 208C432, 208.2 431.94, 208.38 431.94, 208.58C431.96, 225.42 433.1, 240.35 434.73, 254.31L494.26, 300.85C485.95, 278.72 479.92, 249.36 479.92, 208C479.92, 130.3 425.44, 68.1 351.98, 52.84L351.98, 32C351.98, 14.33 337.66, 0 320, 0C302.34, 0 288.02, 14.33 288.02, 32L288.02, 52.84C262, 58.25 238.57, 69.78 218.89, 85.56L257.06, 115.4C275, 103.18 296.65, 96 320, 96zM320, 512C355.32, 512 383.97, 483.35 383.97, 448L256.03, 448C256.03, 483.35 284.68, 512 320, 512z" fill="#727272" fill-opacity="1" class="Black" />
    </g>
  </g>
</svg>