<?xml version='1.0' encoding='UTF-8'?>
<svg viewBox="-2 -1.9988 32 32" xmlns="http://www.w3.org/2000/svg">
  <g transform="matrix(0.0547, 0, 0, 0.0547, 0, 0)">
    <path d="M464, 400L48, 400L48, 192L0, 192L0, 400A48 48 0 0 0 48, 448L464, 448A48 48 0 0 0 512, 400L512, 192L464, 192zM240, 288A80 80 0 1 0 160, 368A80 80 0 0 0 240, 288zM128, 288A32 32 0 1 1 160, 320A32 32 0 0 1 128, 288zM496, 64L16, 64A16 16 0 0 0 0, 80L0, 160L512, 160L512, 80A16 16 0 0 0 496, 64zM400, 368A32 32 0 0 0 432, 336L432, 240A32 32 0 0 0 400, 208L304, 208A32 32 0 0 0 272, 240L272, 336A32 32 0 0 0 304, 368zM320, 256L384, 256L384, 320L320, 320z" fill="#727272" fill-opacity="1" class="Black" />
  </g>
</svg>