<?xml version='1.0' encoding='UTF-8'?>
<svg viewBox="-2 -4.7992 32 32" xmlns="http://www.w3.org/2000/svg">
  <g transform="matrix(0.9988, 0, 0, 0.9988, 0, 0)">
    <g transform="matrix(0.0438, 0, 0, 0.0438, 0, 0)">
      <path d="M400, 96A48 48 0 1 0 352, 48A48 48 0 0 0 400, 96zM128, 256A128 128 0 1 0 256, 384A128 128 0 0 0 128, 256zM128, 464A80 80 0 1 1 208, 384A80.09 80.09 0 0 1 128, 464zM512, 256A128 128 0 1 0 640, 384A128 128 0 0 0 512, 256zM512, 464A80 80 0 1 1 592, 384A80.09 80.09 0 0 1 512, 464zM401, 210.73A24 24 0 0 0 416, 216L480, 216A24 24 0 0 0 480, 168L424.41, 168L351, 109.27A24 24 0 0 0 320.38, 109.78L216.38, 198.89A32 32 0 0 0 219.44, 249.83L295.97, 300.83L295.97, 416A24 24 0 0 0 343.97, 416L343.97, 288A24 24 0 0 0 333.28, 268L283.17, 234.6L354.46, 173.5z" fill="#727272" fill-opacity="1" class="Black" />
    </g>
  </g>
</svg>