<?xml version='1.0' encoding='UTF-8'?>
<svg viewBox="-2 -1.9988 32 32" xmlns="http://www.w3.org/2000/svg">
  <g transform="matrix(0.0547, 0, 0, 0.0547, 0, 0)">
    <path d="M511.67, 388C508.21, 258.23 450.61, 237.84 448.09, 144.02C447.61, 126.37 433.81, 112 416.16, 112L416, 112L416, 64C416, 46.33 401.67, 32 384, 32L304, 32C286.33, 32 272, 46.33 272, 64L272, 112L240, 112L240, 64C240, 46.33 225.67, 32 208, 32L128, 32C110.33, 32 96, 46.33 96, 64L96, 112L95.84, 112C78.19, 112 64.39, 126.38 63.91, 144.02C61.39, 237.84 3.79, 258.23 0.33, 388L0, 432C0, 458.51 21.49, 480 48, 480L176, 480C202.51, 480 224, 458.51 224, 432L224, 288L288, 288L288, 432C288, 458.51 309.49, 480 336, 480L464, 480C490.51, 480 512, 458.51 512, 432L511.67, 388zM320, 80L368, 80L368, 112L320, 112L320, 80zM144, 80L192, 80L192, 112L144, 112L144, 80zM176, 432L48, 432.36L48.31, 389.28C49.92, 329.04 64.38, 297.81 79.7, 264.74C92.75, 236.57 107.37, 205.01 111.1, 160L176, 160L176, 432zM224, 240L224, 160L288, 160L288, 240L224, 240zM336, 432L336, 160L400.9, 160C404.63, 205.01 419.25, 236.58 432.3, 264.74C447.62, 297.81 462.08, 329.04 463.67, 388.35L464, 432L336, 432z" fill="#727272" fill-opacity="1" class="Black" />
  </g>
</svg>