<?xml version='1.0' encoding='UTF-8'?>
<svg viewBox="-3.7495 -2 32 32" xmlns="http://www.w3.org/2000/svg">
  <g transform="matrix(0.0547, 0, 0, 0.0547, 0, 0)">
    <path d="M192, 64C192, 33 224, 41 224, 0C236, 0 256, 29.5 256, 56C256, 82.5 241.75, 96 224, 96C206.25, 96 192, 81.75 192, 64zM352, 96C369.75, 96 384, 82.5 384, 56C384, 29.5 364, 0 352, 0C352, 41 320, 33 320, 64C320, 81.75 334.25, 96 352, 96zM448, 272L448, 512L0, 512L0, 272C0, 245.5 21.5, 224 48, 224L72, 224L72, 112L120, 112L120, 224L200, 224L200, 112L248, 112L248, 224L328, 224L328, 112L376, 112L376, 224L400, 224C426.5, 224 448, 245.5 448, 272zM48, 278L48, 334.831C56.352, 341.831 63.27, 348 74.75, 348C100.128, 348 104.88, 316 149.5, 316C193.474, 316 199.254, 348 224, 348C249.588, 348 254.061, 316 298.75, 316C343.223, 316 348.079, 348 373.5, 348C384.758, 348 391.635, 341.82 400, 334.813L400, 278.008A6 6 0 0 0 394, 272.008L54, 272A6 6 0 0 0 48, 278zM400, 464L400, 383.13C392.999, 386.044 384.46, 388 373.5, 388C328.956, 388 324.111, 356 298.75, 356C273.606, 356 268.421, 388 224, 388C180.026, 388 174.245, 356 149.5, 356C123.913, 356 119.438, 388 74.75, 388C63.666, 388 55.052, 386.026 48, 383.089L48, 464L400, 464zM96, 96C113.75, 96 128, 82.5 128, 56C128, 29.5 108, 0 96, 0C96, 41 64, 33 64, 64C64, 81.75 78.25, 96 96, 96z" fill="#727272" fill-opacity="1" class="Black" />
  </g>
</svg>