<?xml version='1.0' encoding='UTF-8'?>
<svg viewBox="-2 -2 32 32" xmlns="http://www.w3.org/2000/svg">
  <g transform="matrix(0.0547, 0, 0, 0.0547, 0, 0)">
    <path d="M440, 368L112, 368C103.2, 368 96, 375.2 96, 384L96, 400C96, 408.8 103.2, 416 112, 416L440, 416C479.8, 416 511.7, 383.5 511.6, 343.6L512, 344L512, 88C512, 39.5 472.5, 0 424, 0L88, 0C39.5, 0 0, 39.5 0, 88L0, 392L0.3, 391.5C0.3, 399.9 0.8, 408.5 2.6, 417.2C14.1, 473.3 66.2, 512 123.4, 512L496, 512C504.8, 512 512, 504.8 512, 496L512, 480C512, 471.2 504.8, 464 496, 464L120, 464C77.8, 464 44, 427.5 48.4, 384.5C52.2, 347 86.6, 320 124.3, 320L440, 320C453.2, 320 464, 330.8 464, 344C464, 357.2 453.2, 368 440, 368zM435.7, 272L120, 272C93, 272 68.1, 281.2 48, 296.3L48, 88C48, 65.9 65.9, 48 88, 48L424, 48C446.1, 48 464, 65.9 464, 88L464, 277.3C455.1, 273.9 445.6, 272 435.7, 272z" fill="#727272" fill-opacity="1" class="Black" />
  </g>
</svg>