<?xml version='1.0' encoding='UTF-8'?>
<svg viewBox="-2 -2 32 32" xmlns="http://www.w3.org/2000/svg">
  <g transform="matrix(0.0547, 0, 0, 0.0547, 0, 0)">
    <path d="M425.91, 330.01L512, 0L48, 0C21.49, 0 0, 21.49 0, 48L0, 208C0, 234.51 21.49, 256 48, 256L150.26, 256L156.43, 326.99C121.06, 341.14 96, 375.57 96, 416L96, 480C96, 497.67 110.33, 512 128, 512L448, 512C465.67, 512 480, 497.67 480, 480L480, 416C480, 378.08 457.83, 345.61 425.91, 330.01zM48, 208L48, 48L132.17, 48L146.08, 208L48, 208zM449.87, 48L437.35, 96L296, 96C291.58, 96 288, 99.58 288, 104L288, 120C288, 124.42 291.58, 128 296, 128L429, 128L412.3, 192L296, 192C291.58, 192 288, 195.58 288, 200L288, 216C288, 220.42 291.58, 224 296, 224L403.96, 224L378.92, 320L204.01, 320L180.36, 48L449.87, 48zM432, 464L144, 464L144, 416C144, 389.53 165.53, 368 192, 368L384, 368C410.47, 368 432, 389.53 432, 416L432, 464zM288, 392C274.74, 392 264, 402.74 264, 416C264, 429.25 274.74, 440 288, 440C301.26, 440 312, 429.25 312, 416C312, 402.74 301.26, 392 288, 392z" fill="#727272" fill-opacity="1" class="Black" />
  </g>
</svg>