<?xml version='1.0' encoding='UTF-8'?>
<svg viewBox="-5.5003 -2 32 32" xmlns="http://www.w3.org/2000/svg">
  <g transform="matrix(0.0547, 0, 0, 0.0547, 0, 0)">
    <path d="M192.913, 510.276C180.588, 515.205 166.632, 509.197 161.717, 496.906L111.178, 370.565L134.154, 298.764L206.283, 479.08C211.206, 491.387 205.22, 505.354 192.913, 510.276zM96, 0C71.699, 0 52, 19.699 52, 44C52, 68.301 71.699, 88 96, 88C120.301, 88 140, 68.301 140, 44C140, 19.699 120.301, 0 96, 0zM108.53, 140.603A4.002 4.002 0 0 1 114.135, 141.405L219.2, 281.6C224.629, 288.839 234.714, 289.964 241.599, 284.8C248.65, 279.512 250.071, 269.427 244.799, 262.401L124.799, 102.401C121.659, 98.213 116.86, 96.016 111.999, 96.015L80, 96L80, 96.009C75.31, 96.012 70.664, 98.058 67.506, 102.005L0, 186.388L0, 271.549C0, 280.165 6.621, 287.578 15.227, 287.982C24.416, 288.414 32, 281.093 32, 272L32, 197.612L64, 157.612L64, 334.252L17.142, 480.679C13.103, 493.303 20.062, 506.812 32.686, 510.852C45.316, 514.893 58.82, 507.928 62.859, 495.308L128, 291.746L128, 173.333L107.725, 146.201A4.003 4.003 0 0 1 108.53, 140.603zM382.837, 499.848L252.28, 284.813A24.013 24.013 0 0 1 239.61, 294.773L369.161, 508.15A8 8 0 0 0 380.15, 510.837A7.998 7.998 0 0 0 382.837, 499.848z" fill="#727272" fill-opacity="1" class="Black" />
  </g>
</svg>