<?xml version='1.0' encoding='UTF-8'?>
<svg viewBox="-2 -2.0037 32 32" xmlns="http://www.w3.org/2000/svg">
  <g transform="matrix(0.0547, 0, 0, 0.0547, 0, 0)">
    <path d="M208.8, 96C199.7, 95.3 192, 103 192, 112.2L192, 128.2C192, 136.8 198.8, 143.5 207.4, 144C292.7, 149.9 360.6, 219.3 367.8, 304.7C368.5, 313.2 375.1, 319.9 383.6, 319.9L399.8, 319.9C408.9, 319.9 416.6, 312.2 416, 303.1C407.7, 192.7 319.3, 104.2 208.8, 96zM208.7, 0C199.6, -0.4 192, 7.2 192, 16.3L192, 32.3C192, 40.9 198.8, 47.6 207.4, 48.1C345.6, 55.8 457.2, 166.4 464, 304.5C464.4, 313.1 471.2, 320 479.8, 320L495.8, 320C504.9, 320 512.5, 312.4 512.1, 303.3C503.5, 139.9 372.1, 8.5 208.7, 0zM137, 224L128, 224C119.2, 224 112, 231.2 112, 240L112, 272C112, 280.8 119.2, 288 128, 288L138.9, 288C185.9, 288 226.9, 326.4 223.8, 373.3C221.2, 413.2 189.2, 445.1 149.4, 447.8C102.4, 451 64, 410 64, 362.9L64, 112C64, 103.2 56.8, 96 48, 96L16, 96C7.2, 96 0, 103.2 0, 112L0, 361C0, 443.6 66.5, 514.7 149, 511.9C224.4, 509.3 285.3, 448.4 287.9, 373C290.8, 290.5 219.6, 224 137, 224z" fill="#727272" fill-opacity="1" class="Black" />
  </g>
</svg>