<?xml version='1.0' encoding='UTF-8'?>
<svg viewBox="-3 0 32 32" xmlns="http://www.w3.org/2000/svg">
  <g transform="matrix(0.0625, 0, 0, 0.0625, 0, 0)">
    <path d="M314.52, 238.78A119.76 119.76 0 0 0 232, 32L48, 32A16 16 0 0 0 32, 48L32, 64A16 16 0 0 0 48, 80L64, 80L64, 432L48, 432A16 16 0 0 0 32, 448L32, 464A16 16 0 0 0 48, 480L256, 480A128 128 0 0 0 384, 352C384, 302.51 355.62, 260.08 314.52, 238.78zM128, 80L216, 80A72 72 0 0 1 216, 224L128, 224zM240, 432L128, 432L128, 272L240, 272A80 80 0 0 1 240, 432z" fill="#727272" fill-opacity="1" class="Black" />
  </g>
</svg>