<?xml version='1.0' encoding='UTF-8'?>
<svg viewBox="-5.4965 -2 32 32" xmlns="http://www.w3.org/2000/svg">
  <g transform="matrix(0.0547, 0, 0, 0.0547, 0, 0)">
    <path d="M377.8, 167.9C369.6, 153.6 354.7, 145 338.2, 145L243.8, 145L272.5, 57.5C276.2, 43.7 273.3, 29.2 264.6, 17.8C255.8, 6.5 242.5, 0 228.2, 0L97.7, 0C74.9, 0 55.4, 17.1 52.9, 37.1L0.5, 249.3C-1.4, 263.1 2.7, 277 11.8, 287.5C20.9, 298 34.1, 304 48, 304L146.1, 304L111.2, 455.7C108, 469.4 111.1, 483.6 119.8, 494.6C128.5, 505.7 141.6, 512 155.7, 512C172, 512 187.2, 503.2 194.5, 490.4L377.7, 213.7C386.1, 199.4 386.1, 182.2 377.8, 167.9zM160.1, 457.4L206.4, 256L47.5, 256L97.7, 48L225.3, 47.1L177.5, 193L334, 193L160.1, 457.4z" fill="#727272" fill-opacity="1" class="Black" />
  </g>
</svg>