<?xml version='1.0' encoding='UTF-8'?>
<svg viewBox="-2 -2 32 32" xmlns="http://www.w3.org/2000/svg">
  <g transform="matrix(0.0547, 0, 0, 0.0547, 0, 0)">
    <path d="M384.5, 144.5L440.5, 88.5L423.5, 71.5L367.5, 127.5L315.3, 75.3C309.1, 69.1 298.9, 69.1 292.7, 75.3L264.3, 103.7C246.4, 98.7 227.5, 96 208, 96C93.1, 96 0, 189.1 0, 304C0, 418.9 93.1, 512 208, 512C322.9, 512 416, 418.9 416, 304C416, 284.5 413.3, 265.6 408.3, 247.7L436.7, 219.3C442.9, 213.1 442.9, 202.9 436.7, 196.7L384.5, 144.5zM354.5, 233.6C362.4, 261.8 368, 277.5 368, 304C368, 392.4 296.4, 464 208, 464C119.6, 464 48, 392.4 48, 304C48, 215.6 119.6, 144 208, 144C234.3, 144 249.4, 149.4 278.4, 157.5L304, 131.9L380.1, 208L354.5, 233.6zM512, 72C512, 78.6 506.6, 84 500, 84L476, 84C469.4, 84 464, 78.6 464, 72C464, 65.4 469.4, 60 476, 60L500, 60C506.6, 60 512, 65.4 512, 72zM452, 12L452, 36C452, 42.6 446.6, 48 440, 48C433.4, 48 428, 42.6 428, 36L428, 12C428, 5.4 433.4, 0 440, 0C446.6, 0 452, 5.4 452, 12zM457, 55C452.3, 50.3 452.3, 42.7 457, 38L474, 21C478.7, 16.3 486.3, 16.3 491, 21C495.7, 25.7 495.7, 33.3 491, 38L474, 55C469.3, 59.7 461.7, 59.7 457, 55zM389.1, 38.1C384.4, 33.4 384.4, 25.8 389.1, 21.1C393.8, 16.4 401.4, 16.4 406.1, 21.1L423.1, 38.1C427.8, 42.8 427.8, 50.4 423.1, 55.1C418.4, 59.8 410.8, 59.8 406.1, 55.1L389.1, 38.1zM490.9, 105.9C495.6, 110.6 495.6, 118.2 490.9, 122.9C486.2, 127.6 478.6, 127.6 473.9, 122.9L456.9, 105.9C452.2, 101.2 452.2, 93.6 456.9, 88.9C461.6, 84.2 469.2, 84.2 473.9, 88.9L490.9, 105.9zM216, 208C216, 221.3 205.3, 232 192, 232C161.1, 232 136, 257.1 136, 288C136, 301.3 125.3, 312 112, 312C98.7, 312 88, 301.3 88, 288C88, 230.7 134.7, 184 192, 184C205.3, 184 216, 194.7 216, 208z" fill="#727272" fill-opacity="1" class="Black" />
  </g>
</svg>