<?xml version='1.0' encoding='UTF-8'?>
<svg viewBox="-2 -4.7992 32 32" xmlns="http://www.w3.org/2000/svg">
  <g transform="matrix(0.9988, 0, 0, 0.9988, 0, 0)">
    <g transform="matrix(0.0438, 0, 0, 0.0438, 0, 0)">
      <path d="M640, 183.23C640, 135.14 598.38, 96 547.19, 96C507.47, 96 472.19, 119.73 459.35, 155.06C458.23, 158.3 452.72, 176 448, 176L192, 176C187.28, 176 181.77, 158.3 180.66, 155.06C167.81, 119.73 132.53, 96 92.81, 96C41.62, 96 0, 135.14 0, 183.23C0, 212.68 8.09, 236.57 32.34, 256C7.93, 275.57 0, 299.54 0, 328.77C0, 376.86 41.62, 416 92.81, 416C132.53, 416 167.81, 392.27 180.65, 356.95C181.74, 353.72 187.54, 336 191.99, 336L447.99, 336C452.44, 336 458.24, 353.73 459.33, 356.95C472.17, 392.26 507.45, 416 547.17, 416C598.36, 416 639.98, 376.86 639.98, 328.77C639.98, 299.54 632.05, 275.58 607.64, 256C631.91, 236.57 640, 212.69 640, 183.23zM567.94, 287.53C587.28, 296.41 592, 310.65 592, 328.76C592, 350.4 571.91, 367.99 547.19, 367.99C527.6, 367.99 510.44, 356.97 504.47, 340.58C494.42, 310.66 483.78, 288 448, 288L192, 288C156.22, 288 145.58, 310.66 135.53, 340.59C129.56, 356.98 112.41, 368 92.81, 368C68.09, 368 48, 350.41 48, 328.77C48, 310.65 52.72, 296.41 72.06, 287.54C84.68, 281.73 92.56, 269.65 92.56, 256.01C92.56, 242.37 84.72, 230.31 72.06, 224.48C52.28, 215.39 48, 200.72 48, 183.23C48, 161.59 68.09, 144 92.81, 144C112.4, 144 129.56, 155.02 135.53, 171.42C154.17, 225.19 176.64, 224 192, 224L448, 224C463.36, 224 485.83, 225.19 504.47, 171.42C510.44, 155.01 527.59, 144 547.19, 144C571.91, 144 592, 161.59 592, 183.23C592, 200.71 587.72, 215.39 567.94, 224.46C555.28, 230.29 547.44, 242.35 547.44, 255.99C547.44, 269.63 555.31, 281.72 567.94, 287.53z" fill="#727272" fill-opacity="1" class="Black" />
    </g>
  </g>
</svg>