<?xml version='1.0' encoding='UTF-8'?>
<svg viewBox="-3.7505 -1.9998 32 31.9975" xmlns="http://www.w3.org/2000/svg">
  <g transform="matrix(0.0547, 0, 0, 0.0547, 0, 0)">
    <path d="M443.31, 217.37L390.62, 164.68C384.37, 158.43 374.24, 158.43 367.99, 164.68L356.68, 175.99C350.43, 182.24 350.43, 192.37 356.68, 198.62L366.06, 208L326.65, 247.41C315.09, 236.04 302.12, 226.08 288, 217.9L288, 47.74L303.97, 47.72C312.79, 47.71 319.94, 40.56 319.95, 31.74L319.99, 16.02C320, 7.17 312.82, -0.01 303.97, 0L80.03, 0.26C71.21, 0.27 64.06, 7.42 64.05, 16.24L64.01, 31.97C64, 40.82 71.18, 47.99 80.03, 47.98L96, 47.96L96, 217.89C38.67, 251.1 0, 312.97 0, 384C0, 427.81 14.8, 468.07 39.52, 500.35C45.34, 507.96 54.73, 512 64.31, 512L319.68, 512C329.26, 512 338.65, 507.96 344.47, 500.35C369.21, 468.07 384, 427.8 384, 384C384, 347.88 373.92, 314.19 356.56, 285.38L400, 241.94L409.38, 251.32C415.63, 257.57 425.76, 257.57 432.01, 251.32L443.31, 240C449.56, 233.75 449.56, 223.62 443.31, 217.37zM120.06, 259.43L144, 245.56L144, 47.99L240, 47.99L240, 245.56L263.94, 259.43C288.75, 273.8 308.06, 295.16 320.5, 320L63.5, 320C75.95, 295.16 95.25, 273.8 120.06, 259.43zM311.53, 464L72.47, 464C56.43, 440.25 48, 412.77 48, 384C48, 378.61 48.47, 373.29 49.07, 368L334.92, 368C335.52, 373.29 335.99, 378.61 335.99, 384C336, 412.77 327.57, 440.25 311.53, 464z" fill="#727272" fill-opacity="1" class="Black" />
  </g>
</svg>