<?xml version='1.0' encoding='UTF-8'?>
<svg viewBox="-3.7495 -2 32 32" xmlns="http://www.w3.org/2000/svg">
  <g transform="matrix(0.0547, 0, 0, 0.0547, 0, 0)">
    <path d="M128.3, 297.64L132.61, 313.88C133.8, 318.36 138.13, 320.95 142.28, 319.67L240, 289.56L337.71, 319.67C341.86, 320.95 346.19, 318.36 347.38, 313.88L351.69, 297.64C352.88, 293.16 350.48, 288.48 346.32, 287.2L296.99, 272L346.32, 256.8C350.48, 255.52 352.88, 250.85 351.69, 246.36L347.38, 230.12C346.19, 225.64 341.86, 223.05 337.71, 224.33L240, 254.44L142.29, 224.33C138.14, 223.05 133.81, 225.64 132.62, 230.12L128.31, 246.36C127.12, 250.84 129.52, 255.52 133.68, 256.8L183.01, 272L133.68, 287.2C129.52, 288.48 127.11, 293.15 128.3, 297.64zM192, 194.91L192, 208C192, 216.84 199.16, 224 208, 224L272, 224C280.84, 224 288, 216.84 288, 208L288, 194.91C307.32, 183.23 320, 164.87 320, 144C320, 108.65 284.18, 80 240, 80C195.82, 80 160, 108.65 160, 144C160, 164.87 172.68, 183.23 192, 194.91zM272, 128C280.84, 128 288, 135.16 288, 144C288, 152.84 280.84, 160 272, 160C263.16, 160 256, 152.84 256, 144C256, 135.16 263.16, 128 272, 128zM208, 128C216.84, 128 224, 135.16 224, 144C224, 152.84 216.84, 160 208, 160C199.16, 160 192, 152.84 192, 144C192, 135.16 199.16, 128 208, 128zM448, 384L448, 16C448, 7.2 440.8, 0 432, 0L80, 0C35.8, 0 0, 35.8 0, 80L0, 432C0, 476.2 35.8, 512 80, 512L432, 512C440.8, 512 448, 504.8 448, 496L448, 480C448, 472.2 442.4, 465.7 435.1, 464.3C430.9, 451.3 430.9, 412.7 435.1, 399.7C442.5, 398.2 448, 391.8 448, 384zM394, 464L80, 464C62.3, 464 48, 449.7 48, 432C48, 414.4 62.4, 400 80, 400L394, 400C391.3, 417.3 391.3, 446.7 394, 464zM400, 352L80, 352C68.6, 352 57.8, 354.4 48, 358.7L48, 80C48, 62.3 62.3, 48 80, 48L400, 48L400, 352z" fill="#727272" fill-opacity="1" class="Black" />
  </g>
</svg>