<?xml version='1.0' encoding='UTF-8'?>
<svg viewBox="-1.9999 -3.554 32 32" xmlns="http://www.w3.org/2000/svg">
  <g transform="matrix(0.0486, 0, 0, 0.0486, 0, 0)">
    <path d="M575.46, 454.59L458.55, 11.86C456.27, 3.36 447.45, -1.73 438.95, 0.55L423.5, 4.68C415.96, 6.7 411.13, 13.79 411.67, 21.21C400.2, 28.63 347.45, 42.76 333.82, 42.07C330.58, 35.38 322.85, 31.65 315.32, 33.67L304, 36.7L304, 32C304, 14.33 289.67, 0 264, 0L24, 0C14.33, 0 0, 14.33 0, 32L0, 480C0, 497.67 14.33, 512 24, 512L264, 512C289.67, 512 304, 497.67 304, 480L304, 115.94L405.45, 500.14C407.73, 508.64 416.55, 513.73 425.05, 511.45L440.51, 507.31C448.05, 505.29 452.88, 498.2 452.34, 490.79C463.81, 483.37 516.55, 469.24 530.19, 469.93C533.43, 476.62 541.16, 480.35 548.69, 478.33L564.15, 474.19C572.64, 471.91 577.73, 463.09 575.46, 454.59zM128, 464L48, 464L48, 416L128, 416L128, 464zM128, 368L48, 368L48, 144L128, 144L128, 368zM128, 96L48, 96L48, 48L128, 48L128, 96zM256, 464L176, 464L176, 416L256, 416L256, 464zM256, 368L176, 368L176, 144L256, 144L256, 368zM256, 96L176, 96L176, 48L256, 48L256, 96zM441.98, 451.01L344.74, 81.69C361.5, 79.89 405.48, 68.3 422.02, 60.98L519.26, 430.3C502.5, 432.11 458.52, 443.7 441.98, 451.01z" fill="#727272" fill-opacity="1" class="Black" />
  </g>
</svg>