<?xml version='1.0' encoding='UTF-8'?>
<svg viewBox="-2 -4.7992 32 32" xmlns="http://www.w3.org/2000/svg">
  <g transform="matrix(0.9988, 0, 0, 0.9988, 0, 0)">
    <g transform="matrix(0.0438, 0, 0, 0.0438, 0, 0)">
      <path d="M561.91, 0C549.44, 0 406.51, 6.49 320, 56.89C233.49, 6.49 90.56, 0 78.09, 0C35.03, 0 0, 34.34 0, 76.55L0, 390.27C0, 431 32.47, 464.57 73.92, 466.68C110.7, 468.59 202.73, 476.18 261.65, 505.37C269.84, 509.42 278.9, 511.66 287.99, 511.95L287.99, 512L352.01, 512L352.01, 511.95C361.1, 511.66 370.16, 509.42 378.35, 505.37C437.27, 476.18 529.3, 468.59 566.08, 466.68C607.53, 464.57 640, 431 640, 390.27L640, 76.55C640, 34.34 604.97, 0 561.91, 0zM296, 438.15C296, 449.24 285.04, 457.06 274.67, 453.11C210.14, 428.57 120.71, 421.04 76.36, 418.73C60.46, 417.93 48, 405.43 48, 390.27L48, 76.55C48, 60.81 61.5, 48 78.06, 48C97.99, 48.1 204.61, 55.81 276.59, 88.49C288.22, 93.77 295.86, 105.15 295.87, 117.93L296, 224L296, 438.15zM592, 390.27C592, 405.43 579.54, 417.93 563.64, 418.74C519.29, 421.04 429.86, 428.57 365.33, 453.12C354.96, 457.06 344, 449.25 344, 438.16L344, 224L344.14, 117.92C344.16, 105.14 351.79, 93.77 363.42, 88.48C435.4, 55.81 542.02, 48.1 561.94, 48C578.5, 48 592, 60.81 592, 76.55L592, 390.27z" fill="#727272" fill-opacity="1" class="Black" />
    </g>
  </g>
</svg>