<?xml version='1.0' encoding='UTF-8'?>
<svg viewBox="-3.7495 -2 32 32" xmlns="http://www.w3.org/2000/svg">
  <g transform="matrix(0.0547, 0, 0, 0.0547, 0, 0)">
    <path d="M448, 384L448, 16C448, 7.2 440.8, 0 432, 0L80, 0C35.8, 0 0, 35.8 0, 80L0, 432C0, 476.2 35.8, 512 80, 512L432, 512C440.8, 512 448, 504.8 448, 496L448, 480C448, 472.2 442.4, 465.7 435.1, 464.3C430.9, 451.3 430.9, 412.7 435.1, 399.7C442.5, 398.2 448, 391.8 448, 384zM394, 464L80, 464C62.3, 464 48, 449.7 48, 432C48, 414.4 62.4, 400 80, 400L394, 400C391.3, 417.3 391.3, 446.7 394, 464zM400, 352L80, 352C68.6, 352 57.8, 354.4 48, 358.7L48, 80C48, 62.3 62.3, 48 80, 48L400, 48L400, 352zM245.34, 266.67L272, 320L298.66, 266.67L352, 240L298.66, 213.33L272, 160L245.34, 213.33L192, 240L245.34, 266.67zM160, 200L178.66, 162.67L216, 144L178.66, 125.33L160, 88L141.33, 125.33L104, 144L141.33, 162.67L160, 200z" fill="#727272" fill-opacity="1" class="Black" />
  </g>
</svg>