<?xml version='1.0' encoding='UTF-8'?>
<svg viewBox="-3.7495 -2 32 32" xmlns="http://www.w3.org/2000/svg">
  <g transform="matrix(0.0547, 0, 0, 0.0547, 0, 0)">
    <path d="M448, 384L448, 16C448, 7.2 440.8, 0 432, 0L80, 0C35.8, 0 0, 35.8 0, 80L0, 432C0, 476.2 35.8, 512 80, 512L432, 512C440.8, 512 448, 504.8 448, 496L448, 480C448, 472.2 442.4, 465.7 435.1, 464.3C430.9, 451.3 430.9, 412.7 435.1, 399.7C442.5, 398.2 448, 391.8 448, 384zM394, 464L80, 464C62.3, 464 48, 449.7 48, 432C48, 414.4 62.4, 400 80, 400L394, 400C391.3, 417.3 391.3, 446.7 394, 464zM400, 352L80, 352C68.6, 352 57.8, 354.4 48, 358.7L48, 80C48, 62.3 62.3, 48 80, 48L400, 48L400, 352zM215.5, 284.5C220.2, 289.1 227.8, 289.1 232.5, 284.5L305.1, 213.2C326.2, 192.5 324.9, 158.1 301.4, 139C277.9, 119.9 247.1, 128.4 231.4, 143.8L224, 151.1L216.6, 143.8C201.3, 128.7 170.4, 119.7 146.6, 139C123, 158.1 121.8, 192.5 142.9, 213.2L215.5, 284.5z" fill="#727272" fill-opacity="1" class="Black" />
  </g>
</svg>