<?xml version='1.0' encoding='UTF-8'?>
<svg viewBox="-3.7495 -2 32 32" xmlns="http://www.w3.org/2000/svg">
  <g transform="matrix(0.0547, 0, 0, 0.0547, 0, 0)">
    <path d="M435.1, 399.7C430.9, 412.7 430.9, 451.3 435.1, 464.3C442.4, 465.7 448, 472.2 448, 480L448, 496C448, 504.8 440.8, 512 432, 512L80, 512C35.8, 512 0, 476.2 0, 432L0, 80C0, 35.8 35.8, 0 80, 0L432, 0C440.8, 0 448, 7.2 448, 16L448, 384C448, 391.8 442.5, 398.2 435.1, 399.7zM394, 400L80, 400C62.4, 400 48, 414.4 48, 432C48, 449.7 62.3, 464 80, 464L394, 464C391.3, 446.7 391.3, 417.3 394, 400zM400, 48L80, 48C62.3, 48 48, 62.3 48, 80L48, 358.7C57.8, 354.4 68.6, 352 80, 352L400, 352L400, 48z" fill="#727272" fill-opacity="1" class="Black" />
  </g>
</svg>