<?xml version='1.0' encoding='UTF-8'?>
<svg viewBox="-2 -4.7992 32 32" xmlns="http://www.w3.org/2000/svg">
  <g transform="matrix(0.9988, 0, 0, 0.9988, 0, 0)">
    <g transform="matrix(0.0438, 0, 0, 0.0438, 0, 0)">
      <path d="M448, 432A96 96 0 1 0 352, 336A96 96 0 0 0 448, 432zM592, 160L592, 56A56.06 56.06 0 0 0 536, 0L104, 0A56.07 56.07 0 0 0 48, 56L48, 160A48 48 0 0 0 0, 208L0, 464A48 48 0 0 0 48, 512L592, 512A48 48 0 0 0 640, 464L640, 208A48 48 0 0 0 592, 160zM96, 56A8 8 0 0 1 104, 48L536, 48A8 8 0 0 1 544, 56L544, 160L448, 160L448, 144A16 16 0 0 0 432, 128L400, 128A16 16 0 0 0 384, 144L384, 160L352, 160L352, 144A16 16 0 0 0 336, 128L304, 128A16 16 0 0 0 288, 144L288, 160L256, 160L256, 144A16 16 0 0 0 240, 128L208, 128A16 16 0 0 0 192, 144L192, 160L96, 160zM592, 464L48, 464L48, 208L592, 208zM192, 432A96 96 0 1 0 96, 336A96 96 0 0 0 192, 432z" fill="#727272" fill-opacity="1" class="Black" />
    </g>
  </g>
</svg>