<?xml version='1.0' encoding='UTF-8'?>
<svg viewBox="-2 0 32 32" xmlns="http://www.w3.org/2000/svg">
  <g transform="matrix(0.0625, 0, 0, 0.0625, 0, 0)">
    <path d="M432, 32L32, 32A32 32 0 0 0 0, 64L0, 464A16 16 0 0 0 16, 480L32, 480A16 16 0 0 0 48, 464L48, 80L432, 80A16 16 0 0 0 448, 64L448, 48A16 16 0 0 0 432, 32zM236, 424L212, 424A16 16 0 0 0 196, 440L196, 464A16 16 0 0 0 212, 480L236, 480A16 16 0 0 0 252, 464L252, 440A16 16 0 0 0 236, 424zM136, 424L112, 424A16 16 0 0 0 96, 440L96, 464A16 16 0 0 0 112, 480L136, 480A16 16 0 0 0 152, 464L152, 440A16 16 0 0 0 136, 424zM336, 424L312, 424A16 16 0 0 0 296, 440L296, 464A16 16 0 0 0 312, 480L336, 480A16 16 0 0 0 352, 464L352, 440A16 16 0 0 0 336, 424zM432, 228L408, 228A16 16 0 0 0 392, 244L392, 268A16 16 0 0 0 408, 284L432, 284A16 16 0 0 0 448, 268L448, 244A16 16 0 0 0 432, 228zM432, 328L408, 328A16 16 0 0 0 392, 344L392, 368A16 16 0 0 0 408, 384L432, 384A16 16 0 0 0 448, 368L448, 344A16 16 0 0 0 432, 328zM432, 128L408, 128A16 16 0 0 0 392, 144L392, 168A16 16 0 0 0 408, 184L432, 184A16 16 0 0 0 448, 168L448, 144A16 16 0 0 0 432, 128zM432, 424L408, 424A16 16 0 0 0 392, 440L392, 464A16 16 0 0 0 408, 480L432, 480A16 16 0 0 0 448, 464L448, 440A16 16 0 0 0 432, 424z" fill="#727272" fill-opacity="1" class="Black" />
  </g>
</svg>