<?xml version='1.0' encoding='UTF-8'?>
<svg viewBox="-2 0 32 32" xmlns="http://www.w3.org/2000/svg">
  <g transform="matrix(0.0625, 0, 0, 0.0625, 0, 0)">
    <path d="M432, 32L416, 32A16 16 0 0 0 400, 48L400, 432L16, 432A16 16 0 0 0 0, 448L0, 464A16 16 0 0 0 16, 480L416, 480A32 32 0 0 0 448, 448L448, 48A16 16 0 0 0 432, 32zM312, 88L336, 88A16 16 0 0 0 352, 72L352, 48A16 16 0 0 0 336, 32L312, 32A16 16 0 0 0 296, 48L296, 72A16 16 0 0 0 312, 88zM212, 88L236, 88A16 16 0 0 0 252, 72L252, 48A16 16 0 0 0 236, 32L212, 32A16 16 0 0 0 196, 48L196, 72A16 16 0 0 0 212, 88zM16, 384L40, 384A16 16 0 0 0 56, 368L56, 344A16 16 0 0 0 40, 328L16, 328A16 16 0 0 0 0, 344L0, 368A16 16 0 0 0 16, 384zM16, 284L40, 284A16 16 0 0 0 56, 268L56, 244A16 16 0 0 0 40, 228L16, 228A16 16 0 0 0 0, 244L0, 268A16 16 0 0 0 16, 284zM112, 88L136, 88A16 16 0 0 0 152, 72L152, 48A16 16 0 0 0 136, 32L112, 32A16 16 0 0 0 96, 48L96, 72A16 16 0 0 0 112, 88zM16, 184L40, 184A16 16 0 0 0 56, 168L56, 144A16 16 0 0 0 40, 128L16, 128A16 16 0 0 0 0, 144L0, 168A16 16 0 0 0 16, 184zM16, 88L40, 88A16 16 0 0 0 56, 72L56, 48A16 16 0 0 0 40, 32L16, 32A16 16 0 0 0 0, 48L0, 72A16 16 0 0 0 16, 88z" fill="#727272" fill-opacity="1" class="Black" />
  </g>
</svg>