<?xml version='1.0' encoding='UTF-8'?>
<svg viewBox="-2 0 32 32" xmlns="http://www.w3.org/2000/svg">
  <g transform="matrix(0.0625, 0, 0, 0.0625, 0, 0)">
    <path d="M432, 432L16, 432A16 16 0 0 0 0, 448L0, 464A16 16 0 0 0 16, 480L432, 480A16 16 0 0 0 448, 464L448, 448A16 16 0 0 0 432, 432zM112, 88L136, 88A16 16 0 0 0 152, 72L152, 48A16 16 0 0 0 136, 32L112, 32A16 16 0 0 0 96, 48L96, 72A16 16 0 0 0 112, 88zM112, 284L136, 284A16 16 0 0 0 152, 268L152, 244A16 16 0 0 0 136, 228L112, 228A16 16 0 0 0 96, 244L96, 268A16 16 0 0 0 112, 284zM212, 284L236, 284A16 16 0 0 0 252, 268L252, 244A16 16 0 0 0 236, 228L212, 228A16 16 0 0 0 196, 244L196, 268A16 16 0 0 0 212, 284zM312, 284L336, 284A16 16 0 0 0 352, 268L352, 244A16 16 0 0 0 336, 228L312, 228A16 16 0 0 0 296, 244L296, 268A16 16 0 0 0 312, 284zM212, 184L236, 184A16 16 0 0 0 252, 168L252, 144A16 16 0 0 0 236, 128L212, 128A16 16 0 0 0 196, 144L196, 168A16 16 0 0 0 212, 184zM312, 88L336, 88A16 16 0 0 0 352, 72L352, 48A16 16 0 0 0 336, 32L312, 32A16 16 0 0 0 296, 48L296, 72A16 16 0 0 0 312, 88zM212, 88L236, 88A16 16 0 0 0 252, 72L252, 48A16 16 0 0 0 236, 32L212, 32A16 16 0 0 0 196, 48L196, 72A16 16 0 0 0 212, 88zM212, 384L236, 384A16 16 0 0 0 252, 368L252, 344A16 16 0 0 0 236, 328L212, 328A16 16 0 0 0 196, 344L196, 368A16 16 0 0 0 212, 384zM432, 228L408, 228A16 16 0 0 0 392, 244L392, 268A16 16 0 0 0 408, 284L432, 284A16 16 0 0 0 448, 268L448, 244A16 16 0 0 0 432, 228zM432, 328L408, 328A16 16 0 0 0 392, 344L392, 368A16 16 0 0 0 408, 384L432, 384A16 16 0 0 0 448, 368L448, 344A16 16 0 0 0 432, 328zM432, 128L408, 128A16 16 0 0 0 392, 144L392, 168A16 16 0 0 0 408, 184L432, 184A16 16 0 0 0 448, 168L448, 144A16 16 0 0 0 432, 128zM432, 32L408, 32A16 16 0 0 0 392, 48L392, 72A16 16 0 0 0 408, 88L432, 88A16 16 0 0 0 448, 72L448, 48A16 16 0 0 0 432, 32zM16, 384L40, 384A16 16 0 0 0 56, 368L56, 344A16 16 0 0 0 40, 328L16, 328A16 16 0 0 0 0, 344L0, 368A16 16 0 0 0 16, 384zM16, 184L40, 184A16 16 0 0 0 56, 168L56, 144A16 16 0 0 0 40, 128L16, 128A16 16 0 0 0 0, 144L0, 168A16 16 0 0 0 16, 184zM16, 88L40, 88A16 16 0 0 0 56, 72L56, 48A16 16 0 0 0 40, 32L16, 32A16 16 0 0 0 0, 48L0, 72A16 16 0 0 0 16, 88zM16, 284L40, 284A16 16 0 0 0 56, 268L56, 244A16 16 0 0 0 40, 228L16, 228A16 16 0 0 0 0, 244L0, 268A16 16 0 0 0 16, 284z" fill="#727272" fill-opacity="1" class="Black" />
  </g>
</svg>