<?xml version='1.0' encoding='UTF-8'?>
<svg viewBox="-2 -1.9975 32 32" xmlns="http://www.w3.org/2000/svg">
  <g transform="matrix(0.0547, 0, 0, 0.0547, 0, 0)">
    <path d="M145.78, 286.65L179.72, 252.75L80.18, 153.33C114.01, 128.87 154.44, 115.48 197.03, 115.48C231.04, 115.48 263.73, 123.98 292.76, 139.85L327.72, 104.94C288.84, 80.73 244, 67.54 197.03, 67.54C141.59, 67.54 89.07, 85.8 45.91, 119.1L38.63, 111.83C32.38, 105.59 22.25, 105.59 16, 111.83L4.69, 123.13C-1.56, 129.37 -1.56, 139.49 4.69, 145.73L145.78, 286.65zM493.2, 0.3L364.62, 25.98C352.33, 28.43 347.74, 43.58 356.6, 52.43L391.07, 86.85L140.44, 337.18L90.74, 320.63C88.81, 319.99 78.35, 316.95 69.71, 325.59L6.03, 389.19C-4.77, 399.98 -0.43, 418.36 14.07, 423.18L69.72, 441.71L88.27, 497.29C91.26, 506.26 99.46, 511.34 107.84, 511.34C112.98, 511.34 118.2, 509.42 122.31, 505.32L185.98, 441.73A20.51 20.51 0 0 0 190.95, 420.72L174.38, 371.08L425, 120.75L459.46, 155.17C468.38, 164.08 483.5, 159.37 485.94, 147.16L511.66, 18.73C514.02, 7 503.46, -1.74 493.2, 0.3zM116.27, 454.85L101.34, 410.13L56.56, 395.22L89.48, 362.34L134.26, 377.25L149.19, 421.97L116.27, 454.85zM455.64, 94.86L417, 56.26L465.3, 46.61L455.64, 94.86zM407.07, 183.86L372.11, 218.77C388.3, 247.98 397.01, 280.91 397.01, 315.22C397.01, 357.75 383.59, 398.12 359.1, 431.91L258.9, 331.83L224.96, 365.73L366.71, 507.31C372.96, 513.55 383.09, 513.55 389.33, 507.31L400.64, 496.01C406.89, 489.77 406.89, 479.65 400.64, 473.41L393.36, 466.14C426.71, 423.04 445, 370.59 445, 315.22C445.01, 267.99 431.64, 222.89 407.07, 183.86z" fill="#727272" fill-opacity="1" class="Black" />
  </g>
</svg>