<?xml version='1.0' encoding='UTF-8'?>
<svg viewBox="-2.4361 -2 32 32" xmlns="http://www.w3.org/2000/svg">
  <g transform="matrix(0.0547, 0, 0, 0.0547, 0, 0)">
    <path d="M491, 308.2C477.6, 254.2 441.6, 220.8 437.2, 176.2C434.2, 145.7 458.6, 123.1 456, 80.4C453.1, 34 419.5, 0.1 376, 0C332.6, 0.1 299, 34 296.1, 80.5C293.3, 123.2 317.8, 145.8 314.8, 176.3C310.4, 220.8 274.3, 254.4 261.1, 308.2C248.1, 360.7 261.4, 448.3 290.2, 499.7L297.1, 512L455.2, 512L462.1, 499.7C490.7, 448.3 504, 360.6 491, 308.2zM408.1, 83.5C409.6, 107.7 393.2, 126.9 389.7, 160.1L362.3, 160.1C358.8, 126.7 342.4, 107.9 343.9, 83.5C346.9, 36 405.1, 36 408.1, 83.5zM426.2, 463.9L325.9, 463.9C307.1, 421.7 298.5, 356.9 307.7, 319.7C318.4, 276.6 351.2, 244.7 360.6, 192L391.6, 192C401, 244.7 433.8, 276.6 444.5, 319.7C453.6, 356.9 444.9, 421.7 426.2, 463.9zM181.2, 176.3C178.2, 145.8 202.6, 123.2 199.9, 80.5C197, 34 163.4, 0.2 119.9, 0.1C76.5, 0.2 42.9, 34 40, 80.5C37.3, 123.3 61.8, 145.7 58.7, 176.3C54.3, 221 18.4, 254.2 5, 308.2C-8, 360.7 5.3, 448.4 34, 499.7L40.9, 512L199, 512L205.9, 499.7C234.6, 448.4 247.9, 360.7 234.9, 308.2C221.6, 254.2 185.6, 221 181.2, 176.3zM152, 83.5C153.5, 107.8 137.1, 126.7 133.6, 160L106.2, 160C102.7, 126.5 86.3, 108 87.8, 83.5C90.9, 36.1 149.1, 36.1 152, 83.5zM170.1, 464L69.8, 464C51, 421.7 42.4, 356.9 51.6, 319.7C62.2, 276.7 95, 244.9 104.5, 192L135.4, 192C144.9, 245 177.7, 276.7 188.3, 319.8C197.5, 357 188.9, 421.7 170.1, 464z" fill="#727272" fill-opacity="1" class="Black" />
  </g>
</svg>