<?xml version='1.0' encoding='UTF-8'?>
<svg viewBox="-1.9999 -1.549 31.9975 32" xmlns="http://www.w3.org/2000/svg">
  <g transform="matrix(0.999, 0, 0, 0.999, 0, 0)">
    <g transform="matrix(0.0565, 0, 0, 0.0565, 0, 0)">
      <path d="M248, 8C111, 8 0, 119 0, 256C0, 393 111, 504 248, 504C385, 504 496, 393 496, 256C496, 119 385, 8 248, 8zM248, 456C137.7, 456 48, 366.3 48, 256C48, 145.7 137.7, 56 248, 56C358.3, 56 448, 145.7 448, 256C448, 366.3 358.3, 456 248, 456zM152, 160C134.3, 160 120, 174.3 120, 192C120, 209.7 134.3, 224 152, 224C169.7, 224 184, 209.7 184, 192C184, 174.3 169.7, 160 152, 160zM264, 128C264, 110.3 249.7, 96 232, 96C214.3, 96 200, 110.3 200, 128C200, 145.7 214.3, 160 232, 160C249.7, 160 264, 145.7 264, 128zM248, 192C230.3, 192 216, 206.3 216, 224C216, 241.7 230.3, 256 248, 256C265.7, 256 280, 241.7 280, 224C280, 206.3 265.7, 192 248, 192z" fill="#727272" fill-opacity="1" class="Black" />
    </g>
  </g>
</svg>