<?xml version='1.0' encoding='UTF-8'?>
<svg viewBox="-2 -4.8005 32 32" xmlns="http://www.w3.org/2000/svg">
  <g transform="matrix(1.0011, 0, 0, 1.0011, 0, 0)">
    <g transform="matrix(0.0437, 0, 0, 0.0437, 0, 0)">
      <path d="M638.3, 239.8L586.8, 137C582.8, 128.9 574.7, 127.5 570.1, 128.1L519.4, 134.6L541.5, 74C545.2, 64 544.7, 53.1 540.2, 43.4C535.7, 33.7 527.7, 26.4 517.6, 22.7L462.1, 2.4C441.4, -5.2 418.4, 5.6 410.8, 26.3L379.9, 111.2C365, 47.5 308.2, 0 240, 0C164.7, 0 103.6, 58 97.2, 131.6L69.8, 128.1C65.2, 127.5 57.2, 129 53.1, 137L1.7, 239.8C-2.9, 249 2, 260 11.8, 262.8L64, 277.7L64, 425C64, 439.7 74, 452.5 88.2, 456L304.4, 510.1C318, 513.5 329.4, 511.6 335.4, 510.1L551.8, 456C566, 452.4 576, 439.6 576, 425L576, 277.7L628.1, 262.8C638, 260 642.8, 249 638.3, 239.8zM453.2, 50.3L493.7, 65L465.9, 141.4L417.7, 147.5L453.2, 50.3zM61.7, 227.2L86, 178.6L240.8, 198.3L199.6, 266.6L61.7, 227.2zM296, 458.5L112, 412.5L112, 291.4L209.8, 319.3C217.8, 321.6 225, 317.5 228.3, 312L296, 199.8L296, 458.5zM334.6, 158.1L320, 160L144.6, 137.7C148, 87.7 189.2, 48 240, 48C292.9, 48 336, 91.1 336, 144C336, 148.8 335.3, 153.5 334.6, 158.1zM528, 412.5L344, 458.5L344, 199.8L411.7, 312.1C415, 317.6 422.3, 321.7 430.2, 319.4L528, 291.5L528, 412.5zM440.3, 266.6L399.1, 198.3L554, 178.6L578.3, 227.2L440.3, 266.6z" fill="#727272" fill-opacity="1" class="Black" />
    </g>
  </g>
</svg>