<?xml version='1.0' encoding='UTF-8'?>
<svg viewBox="-2 0 32 32" xmlns="http://www.w3.org/2000/svg">
  <g transform="matrix(0.0625, 0, 0, 0.0625, 0, 0)">
    <path d="M447.9, 176C447.9, 165.4 445.3, 155 440.3, 145.7L391.2, 53.8C386.9, 40.8 374.7, 32 360.9, 32L87.1, 32C73.3, 32 61.1, 40.8 56.7, 53.9L7.6, 145.8C2.6, 155.1 0, 165.5 0, 176.1C0.1, 236.6 0, 448 0, 448C0, 465.7 14.3, 480 32, 480L416, 480C433.7, 480 448, 465.7 448, 448C448, 448 447.9, 236.6 447.9, 176zM350.8, 80L393.6, 160L278.4, 160L254.4, 80L350.8, 80zM97.2, 80L193.6, 80L169.6, 160L54.4, 160L97.2, 80zM48, 432C48, 389.7 48.1, 274.1 48.1, 208L160, 208L160, 272C160, 280.8 167.2, 288 176, 288L272, 288C280.8, 288 288, 280.8 288, 272L288, 208L399.9, 208C399.9, 274.1 399.9, 389.8 400, 432L48, 432z" fill="#727272" fill-opacity="1" class="Black" />
  </g>
</svg>