<?xml version='1.0' encoding='UTF-8'?>
<svg viewBox="-2 -2 32 32" xmlns="http://www.w3.org/2000/svg">
  <g transform="matrix(0.0547, 0, 0, 0.0547, 0, 0)">
    <path d="M400, 368L112, 368C103.2, 368 96, 375.2 96, 384L96, 400C96, 408.8 103.2, 416 112, 416L400, 416C408.8, 416 416, 408.8 416, 400L416, 384C416, 375.2 408.8, 368 400, 368zM448, 0L64, 0C28.7, 0 0, 28.7 0, 64L0, 448C0, 483.3 28.7, 512 64, 512L448, 512C483.3, 512 512, 483.3 512, 448L512, 64C512, 28.7 483.3, 0 448, 0zM464, 448C464, 456.8 456.8, 464 448, 464L64, 464C55.2, 464 48, 456.8 48, 448L48, 64C48, 55.2 55.2, 48 64, 48L448, 48C456.8, 48 464, 55.2 464, 64L464, 448zM358.2, 99C355.1, 95.2 348.8, 95.2 345.7, 99L281.7, 179C277.5, 184.3 281.3, 192 287.9, 192L319.9, 192L319.9, 304C319.9, 312.8 327.1, 320 335.9, 320L367.9, 320C376.7, 320 383.9, 312.8 383.9, 304L383.9, 192L415.9, 192C422.6, 192 426.3, 184.3 422.1, 179L358.2, 99zM128, 192L128, 304C128, 312.8 135.2, 320 144, 320L176, 320C184.8, 320 192, 312.8 192, 304L192, 192L224, 192C230.7, 192 234.4, 184.3 230.2, 179L166.2, 99C163.1, 95.2 156.8, 95.2 153.7, 99L89.7, 179C85.5, 184.3 89.3, 192 95.9, 192L128, 192z" fill="#727272" fill-opacity="1" class="Black" />
  </g>
</svg>