<?xml version='1.0' encoding='UTF-8'?>
<svg viewBox="-2 0 32 32" xmlns="http://www.w3.org/2000/svg">
  <g transform="matrix(0.0625, 0, 0, 0.0625, 0, 0)">
    <path d="M447.9, 176C447.9, 165.4 445.3, 155 440.3, 145.7L391.2, 53.8C386.9, 40.8 374.7, 32 360.9, 32L87.1, 32C73.3, 32 61.1, 40.8 56.7, 53.9L7.6, 145.8C2.6, 155.1 0, 165.5 0, 176.1C0.1, 236.6 0, 448 0, 448C0, 465.7 14.3, 480 32, 480L416, 480C433.7, 480 448, 465.7 448, 448C448, 448 447.9, 236.6 447.9, 176zM248, 80L350.8, 80L385, 144L248, 144L248, 80zM97.2, 80L200, 80L200, 144L63, 144L97.2, 80zM48, 432C48, 395.5 48.1, 268.5 48.1, 192L399.9, 192C399.9, 268.5 400, 395.5 400, 432L48, 432zM249.3, 302.3L207.1, 290.9C202.9, 289.8 200, 286.4 200, 282.6C200, 277.8 204.5, 273.9 210.1, 273.9L236.4, 273.9C240.5, 273.9 244.6, 274.9 248.2, 276.9C251.3, 278.6 255, 278.3 257.4, 275.7L269.5, 263C272.6, 259.7 272.1, 254.4 268.4, 251.8C260.1, 246.1 250.3, 242.9 240.1, 242.3L240.1, 232C240.1, 227.6 236.5, 224 232.1, 224L216.1, 224C211.7, 224 208.1, 227.6 208.1, 232L208.1, 242.2C185.9, 243.3 168.1, 260.8 168.1, 282.5C168.1, 300.7 180.7, 316.8 198.8, 321.7L241, 333.1C245.2, 334.2 248.1, 337.6 248.1, 341.4C248.1, 346.2 243.6, 350.1 238, 350.1L211.7, 350.1C207.6, 350.1 203.5, 349.1 199.9, 347.1C196.8, 345.4 193.1, 345.7 190.7, 348.3L178.6, 361C175.5, 364.3 176, 369.6 179.7, 372.2C188, 377.9 197.8, 381.1 208, 381.7L208, 392C208, 396.4 211.6, 400 216, 400L232, 400C236.4, 400 240, 396.4 240, 392L240, 381.8C262.2, 380.7 280, 363.2 280, 341.5C280, 323.3 267.4, 307.2 249.3, 302.3z" fill="#727272" fill-opacity="1" class="Black" />
  </g>
</svg>