<?xml version='1.0' encoding='UTF-8'?>
<svg viewBox="-2 -4.7992 32 32" xmlns="http://www.w3.org/2000/svg">
  <g transform="matrix(0.9988, 0, 0, 0.9988, 0, 0)">
    <g transform="matrix(0.0438, 0, 0, 0.0438, 0, 0)">
      <path d="M492.5, 133.4L458.9, 32.8C452.4, 13.2 434.1, 0 413.4, 0L98.6, 0C77.9, 0 59.6, 13.2 53.1, 32.8L2.5, 184.6C0.9, 189.5 0, 194.6 0, 199.8L0, 464C0, 490.5 21.5, 512 48, 512L448, 512C554, 512 640, 426 640, 320C640, 229.3 577, 153.5 492.5, 133.4zM280, 48L413.4, 48L440.2, 128.4C390.4, 130.4 345.5, 151.1 312.5, 184L280, 184L280, 48zM98.6, 48L232, 48L232, 184L53.3, 184L98.6, 48zM48, 464L48, 232L277.5, 232C263.9, 258.4 256, 288.3 256, 320C256, 377.4 281.3, 428.8 321.3, 464L48, 464zM448, 464C368.6, 464 304, 399.4 304, 320C304, 240.6 368.6, 176 448, 176C527.4, 176 592, 240.6 592, 320C592, 399.4 527.4, 464 448, 464zM512.6, 258.3C509.5, 255.2 504.5, 255.2 501.4, 258.3L431.5, 327.6L401.2, 297C398.1, 293.9 393.1, 293.9 390, 297L371.3, 315.6C368.2, 318.7 368.2, 323.7 371.3, 326.8L425.7, 381.7C428.8, 384.8 433.8, 384.8 436.9, 381.7L531.1, 288.2C534.2, 285.1 534.2, 280.1 531.1, 277L512.6, 258.3z" fill="#727272" fill-opacity="1" class="Black" />
    </g>
  </g>
</svg>