<?xml version='1.0' encoding='UTF-8'?>
<svg viewBox="-2 -2 32 32" xmlns="http://www.w3.org/2000/svg">
  <g transform="matrix(0.0547, 0, 0, 0.0547, 0, 0)">
    <path d="M509.5, 184.6L458.9, 32.8C452.4, 13.2 434.1, 0 413.4, 0L98.6, 0C77.9, 0 59.6, 13.2 53.1, 32.8L2.5, 184.6C0.9, 189.5 0, 194.6 0, 199.8L0, 464C0, 490.5 21.5, 512 48, 512L464, 512C490.5, 512 512, 490.5 512, 464L512, 199.8C512, 194.6 511.2, 189.5 509.5, 184.6zM461.4, 192L280, 192L280, 48L413.4, 48L461.4, 192zM98.6, 48L232, 48L232, 192L50.6, 192L98.6, 48zM48, 464L48, 240L464, 240L464, 464L48, 464z" fill="#727272" fill-opacity="1" class="Black" />
  </g>
</svg>