<?xml version='1.0' encoding='UTF-8'?>
<svg viewBox="-2 -4.7992 32 32" xmlns="http://www.w3.org/2000/svg">
  <g transform="matrix(0.9988, 0, 0, 0.9988, 0, 0)">
    <g transform="matrix(0.0438, 0, 0, 0.0438, 0, 0)">
      <path d="M592, 224L480, 224L480, 48C480, 21.5 458.5, 0 432, 0L208, 0C181.5, 0 160, 21.5 160, 48L160, 224L48, 224C21.5, 224 0, 245.5 0, 272L0, 464C0, 490.5 21.5, 512 48, 512L592, 512C618.5, 512 640, 490.5 640, 464L640, 272C640, 245.5 618.5, 224 592, 224zM208, 48L272, 48L272, 138.7L320, 117.4L368, 138.7L368, 48L432, 48L432, 224L208, 224L208, 48zM296, 464L48, 464L48, 272L128, 272L128, 362.7L176, 341.4L224, 362.7L224, 272L296, 272L296, 464zM592, 464L344, 464L344, 272L416, 272L416, 362.7L464, 341.4L512, 362.7L512, 272L592, 272L592, 464z" fill="#727272" fill-opacity="1" class="Black" />
    </g>
  </g>
</svg>