<?xml version='1.0' encoding='UTF-8'?>
<svg viewBox="-3.7517 -2 32 32" xmlns="http://www.w3.org/2000/svg">
  <g transform="matrix(0.0547, 0, 0, 0.0547, 0, 0)">
    <path d="M252.4, 360.8L259.6, 375.1C261.6, 379.1 260, 383.9 256, 385.8L227.8, 400L256, 414.1C260, 416.1 261.6, 420.9 259.6, 424.8L252.4, 439.1C250.4, 443.1 245.6, 444.7 241.7, 442.7L192, 417.9L142.3, 442.7C138.3, 444.7 133.5, 443.1 131.6, 439.1L124.4, 424.8C122.4, 420.8 124, 416 128, 414.1L156.2, 400L128, 385.9C124, 383.9 122.4, 379.1 124.4, 375.2L131.6, 360.9C133.6, 356.9 138.4, 355.3 142.3, 357.3L192, 382.1L241.7, 357.3C245.6, 355.3 250.4, 356.9 252.4, 360.8zM448, 229.5C448, 285.2 424.7, 339.7 384.1, 379.1L368, 394.7L368, 472.6C368, 494.4 350.1, 512.1 328, 512.1L72, 512.1C49.9, 512.1 32, 494.4 32, 472.6L32, 389.8L15, 287.8C5, 229.5 0, 170 0, 111C0, 49.8 50.8, 0 113.2, 0L288, 0C349.8, 0 400, 49.8 400, 111L400, 144.2C428.8, 162.3 448, 193.7 448, 229.5zM400, 229.5C400, 200 374.9, 176 344, 176L312.7, 176C291.2, 176 272.5, 193.6 272, 215.1C271.5, 235.3 286.2, 252.3 305.4, 255.5C309.2, 256.1 312, 259.5 312, 263.4L312, 295.7C312, 300.4 307.9, 304.1 303.2, 303.7C258.8, 299.3 224, 261.7 224, 216.1C224, 207.7 225.6, 199.8 227.7, 192.1L157.2, 192.1C126.6, 192.1 97.7, 181.2 74.9, 161.3C71.4, 158.2 71.2, 152.9 74.5, 149.6L85.8, 138.3C88.8, 135.3 93.5, 135.2 96.7, 137.9C113.6, 152.3 134.8, 160.2 157.2, 160.2L244.6, 160.2C260.8, 140.8 284.8, 128.2 311.9, 128.2L343.9, 128.2C354.1, 128.2 351.9, 134.2 351.9, 111.2C351.9, 75.9 323.8, 48.2 287.9, 48.2L113.2, 48.2C77.2, 48 48, 76.2 48, 111C48, 206.9 59.4, 262 79.4, 384L104, 384C108.4, 384 112, 387.6 112, 392L112, 408C112, 412.4 108.4, 416 104, 416L80, 416L80, 464L320, 464L320, 416L296, 416C291.6, 416 288, 412.4 288, 408L288, 392C288, 387.6 291.6, 384 296, 384L320, 384C320, 377.8 322.5, 371.9 326.9, 367.6L350.7, 344.5C382.5, 313.8 400, 272.9 400, 229.5z" fill="#727272" fill-opacity="1" class="Black" />
  </g>
</svg>