<?xml version='1.0' encoding='UTF-8'?>
<svg viewBox="-2.0025 -3.5563 32 32" xmlns="http://www.w3.org/2000/svg">
  <g transform="matrix(0.0486, 0, 0, 0.0486, 0, 0)">
    <path d="M208, 32L120, 32A56 56 0 0 0 64, 88L64, 165.49A40 40 0 0 1 52.28, 193.78L7, 239A24 24 0 0 0 7, 273L52.24, 318.24A40 40 0 0 1 64, 346.52L64, 424A56 56 0 0 0 120, 480L208, 480A16 16 0 0 0 224, 464L224, 448A16 16 0 0 0 208, 432L120, 432A8 8 0 0 1 112, 424L112, 346.52A88.06 88.06 0 0 0 86.22, 284.28L57.93, 256L86.22, 227.72A88.06 88.06 0 0 0 112, 165.48L112, 88A8 8 0 0 1 120, 80L208, 80A16 16 0 0 0 224, 64L224, 48A16 16 0 0 0 208, 32zM569, 239L523.75, 193.76A40.07 40.07 0 0 1 512, 165.48L512, 88A56 56 0 0 0 456, 32L368, 32A16 16 0 0 0 352, 48L352, 64A16 16 0 0 0 368, 80L456, 80A8 8 0 0 1 464, 88L464, 165.48A88 88 0 0 0 489.78, 227.72L518.06, 256L489.78, 284.28A88 88 0 0 0 464, 346.52L464, 424A8 8 0 0 1 456, 432L368, 432A16 16 0 0 0 352, 448L352, 464A16 16 0 0 0 368, 480L456, 480A56 56 0 0 0 512, 424L512, 346.51A40 40 0 0 1 523.72, 318.22L569, 273A24 24 0 0 0 569, 239z" fill="#727272" fill-opacity="1" class="Black" />
  </g>
</svg>