<?xml version='1.0' encoding='UTF-8'?>
<svg viewBox="-2 0 32 32" xmlns="http://www.w3.org/2000/svg">
  <g transform="matrix(0.0625, 0, 0, 0.0625, 0, 0)">
    <path d="M128, 32L32, 32A32 32 0 0 0 0, 64L0, 448A32 32 0 0 0 32, 480L128, 480A16 16 0 0 0 144, 464L144, 448A16 16 0 0 0 128, 432L48, 432L48, 80L128, 80A16 16 0 0 0 144, 64L144, 48A16 16 0 0 0 128, 32zM416, 32L320, 32A16 16 0 0 0 304, 48L304, 64A16 16 0 0 0 320, 80L400, 80L400, 432L320, 432A16 16 0 0 0 304, 448L304, 464A16 16 0 0 0 320, 480L416, 480A32 32 0 0 0 448, 448L448, 64A32 32 0 0 0 416, 32z" fill="#727272" fill-opacity="1" class="Black" />
  </g>
</svg>