<?xml version='1.0' encoding='UTF-8'?>
<svg viewBox="-1.9999 -2.8219 31.9975 32" xmlns="http://www.w3.org/2000/svg">
  <g transform="matrix(0.0515, 0, 0, 0.0515, 0, 0)">
    <path d="M511.9, 228.2C513.8, 220.7 514.8, 213 514.8, 205.2C514.8, 172.2 498.1, 142.2 471.1, 124.6C470.7, 84.9 441.7, 51.8 403.6, 44.8C389.9, 17.8 361.8, 0 330.3, 0C307.5, 0 286.9, 9.2 272, 24.1A82.316 82.316 0 0 0 213.7, 0C182.3, 0 154.1, 17.8 140.4, 44.9C102.3, 51.9 73.3, 85 72.9, 124.7C45.8, 142.3 29.2, 172.3 29.2, 205.3C29.2, 213 30.2, 220.7 32.1, 228.3C11.9, 246.3 0, 272.2 0, 299.5C0, 332.5 16.7, 362.5 43.7, 380.1C44.2, 427.6 82.2, 466.3 129.5, 468.4C145.4, 495.1 174.4, 512 206.3, 512C232.3, 512 255.5, 500.8 271.9, 483.2C288.3, 500.8 311.5, 512 337.5, 512C369.4, 512 398.4, 495.1 414.3, 468.4C461.7, 466.4 499.7, 427.6 500.2, 380.1C527.2, 362.5 543.9, 332.4 543.9, 299.5C544, 272.2 532.1, 246.3 511.9, 228.2zM247.9, 422.8C247.9, 445.6 229.3, 464 206.4, 464C173.5, 464 166.9, 434.5 160.8, 416.4L140.5, 419.8C116.5, 423.8 92, 404.5 92, 379.3C92, 376.5 96.7, 351.9 96.7, 351.9L78.5, 344.4C41.6, 329.2 37.2, 278.3 73, 257.8L92.5, 246.6L82.6, 226.5C65, 190.7 94, 166 107.7, 160.4L126.6, 152.7C121.6, 130.8 121.1, 129.9 121.1, 125.5C121.1, 106.7 136.4, 91.5 153, 91.4L175.9, 92.6L180.7, 73.7C184.6, 58.6 198.1, 48.1 213.6, 48.1C232.5, 48.1 247.8, 63.3 247.8, 82.1L247.9, 422.8zM465.6, 344.3L447.3, 351.8C447.3, 351.8 451.9, 376.4 451.9, 379.2C451.9, 404.4 427.4, 423.6 403.4, 419.7L383.1, 416.3C377, 434.5 370.4, 463.9 337.5, 463.9C314.6, 463.9 296, 445.4 296, 422.7L296, 82C296, 63.2 311.3, 48 330.2, 48C345.7, 48 359.3, 58.5 363.1, 73.6L367.9, 92.5L390.8, 91.3C407.3, 91.4 422.7, 106.7 422.7, 125.4C422.7, 129.8 422.3, 130.7 417.2, 152.6L436.1, 160.3C449.8, 165.9 478.8, 190.5 461.2, 226.2L451.3, 246.3L470.8, 257.5C506.9, 278.2 502.5, 329.1 465.6, 344.3z" fill="#727272" fill-opacity="1" class="Black" />
  </g>
</svg>