<?xml version='1.0' encoding='UTF-8'?>
<svg viewBox="-1.9998 -3.5563 31.9975 32" xmlns="http://www.w3.org/2000/svg">
  <g transform="matrix(0.0486, 0, 0, 0.0486, 0, 0)">
    <path d="M288, 0C110.12, 0 0, 93.77 0, 180.66C0, 218.4 26, 247.08 64, 254.2L64, 480A32 32 0 0 0 96, 512L480, 512A32 32 0 0 0 512, 480L512, 254.41C551.71, 247.56 576, 218.68 576, 180.66C576, 93.77 465.88, 0 288, 0zM503.84, 207.11L464, 208L464, 464L112, 464L112, 208L72.84, 207C65.37, 205.62 48, 200.25 48, 180.66C48, 126.44 133.46, 48 288, 48C442.54, 48 528, 126.44 528, 180.66C528, 195.65 520.1, 204.3 503.84, 207.11z" fill="#727272" fill-opacity="1" class="Black" />
  </g>
</svg>