<?xml version='1.0' encoding='UTF-8'?>
<svg viewBox="-2 -1.124 32 32" xmlns="http://www.w3.org/2000/svg">
  <g transform="matrix(0.0547, 0, 0, 0.0547, 0, 0)">
    <path d="M344, 288L288, 288L288, 232C288, 227.6 284.4, 224 280, 224L232, 224C227.6, 224 224, 227.6 224, 232L224, 288L168, 288C163.6, 288 160, 291.6 160, 296L160, 344C160, 348.4 163.6, 352 168, 352L224, 352L224, 408C224, 412.4 227.6, 416 232, 416L280, 416C284.4, 416 288, 412.4 288, 408L288, 352L344, 352C348.4, 352 352, 348.4 352, 344L352, 296C352, 291.6 348.4, 288 344, 288zM464, 128L352, 128L352, 80C352, 53.5 330.5, 32 304, 32L208, 32C181.5, 32 160, 53.5 160, 80L160, 128L48, 128C21.5, 128 0, 149.5 0, 176L0, 464C0, 490.5 21.5, 512 48, 512L464, 512C490.5, 512 512, 490.5 512, 464L512, 176C512, 149.5 490.5, 128 464, 128zM208, 80L304, 80L304, 128L208, 128L208, 80zM464, 458C464, 461.3 461.3, 464 458, 464L54, 464C50.7, 464 48, 461.3 48, 458L48, 182C48, 178.7 50.7, 176 54, 176L458, 176C461.3, 176 464, 178.7 464, 182L464, 458z" fill="#727272" fill-opacity="1" class="Black" />
  </g>
</svg>