<?xml version='1.0' encoding='UTF-8'?>
<svg viewBox="-2 -4.7992 32 32" xmlns="http://www.w3.org/2000/svg">
  <g transform="matrix(0.9988, 0, 0, 0.9988, 0, 0)">
    <g transform="matrix(0.0438, 0, 0, 0.0438, 0, 0)">
      <path d="M480, 368L480, 144A48 48 0 0 0 432, 96L208, 96A48 48 0 0 0 160, 144L160, 368A48 48 0 0 0 208, 416L432, 416A48 48 0 0 0 480, 368zM208, 144L432, 144L432, 368L208, 368zM48, 48L208, 48L208, 64L256, 64L256, 48A48 48 0 0 0 208, 0L48, 0A48 48 0 0 0 0, 48L0, 208A48 48 0 0 0 48, 256L128, 256L128, 208L48, 208zM592, 256L512, 256L512, 304L592, 304L592, 464L432, 464L432, 448L384, 448L384, 464A48 48 0 0 0 432, 512L592, 512A48 48 0 0 0 640, 464L640, 304A48 48 0 0 0 592, 256zM96, 160L128, 160L128, 144A79.24 79.24 0 0 1 144.41, 96L96, 96zM544, 352L512, 352L512, 368A79.24 79.24 0 0 1 495.59, 416L544, 416z" fill="#727272" fill-opacity="1" class="Black" />
    </g>
  </g>
</svg>