<?xml version='1.0' encoding='UTF-8'?>
<svg viewBox="-2 -4.798 32 32" xmlns="http://www.w3.org/2000/svg">
  <g transform="matrix(0.9988, 0, 0, 0.9988, 0, 0)">
    <g transform="matrix(0.0438, 0, 0, 0.0438, 0, 0)">
      <path d="M636.52, 31.02L616.6, 6.02C611.1, -0.88 601.03, -2.03 594.11, 3.46L363.38, 181.38L328.66, 137.82C323.84, 131.77 314.63, 131.8 309.85, 137.88L252.24, 211.06C221.15, 211.8 148.26, 217.71 100.37, 255.72C38.28, 304.99 0, 511.31 0, 511.31C15.1, 511.97 212.37, 518.66 272.15, 471.21C319.86, 433.34 342.15, 363.82 349.94, 333.58L434.28, 294.06C441.3, 290.77 443.41, 281.78 438.57, 275.71L403.23, 231.37L633.96, 53.47C640.88, 47.97 642.02, 37.93 636.52, 31.02zM242.27, 433.73C225.63, 446.94 167.98, 462.24 59.47, 463.94C64.23, 444.84 69.57, 425.76 75.27, 407.59L120.56, 371.64C125.52, 367.7 121.79, 359.76 115.59, 361.07L89.53, 366.57C102.96, 331.29 117.26, 303.52 130.25, 293.21C157.29, 271.75 201.57, 262.17 239.99, 259.68L299.8, 334.71C290.36, 365.65 271.66, 410.4 242.27, 433.73zM330.33, 289.85L290.55, 239.94L314.77, 209.17C317.16, 206.13 321.77, 206.12 324.18, 209.14L367.95, 264.05C370.37, 267.08 369.32, 271.58 365.8, 273.22L330.33, 289.85z" fill="#727272" fill-opacity="1" class="Black" />
    </g>
  </g>
</svg>