<?xml version='1.0' encoding='UTF-8'?>
<svg viewBox="-1.1754 -2.8231 31.9975 32" xmlns="http://www.w3.org/2000/svg">
  <g transform="matrix(0.9994, 0, 0, 0.9994, 0, 0)">
    <g transform="matrix(0.0515, 0, 0, 0.0515, 0, 0)">
      <path d="M536, 264L472, 264L472, 169.941L512.971, 128.97C522.343, 119.597 522.343, 104.401 512.971, 95.029C503.598, 85.657 488.403, 85.657 479.03, 95.029L438.059, 136L425, 136C425, 60.87 364.091, 0 289, 0C213.87, 0 153, 60.909 153, 136L137.941, 136L96.971, 95.029C87.598, 85.657 72.403, 85.657 63.03, 95.029C53.657, 104.402 53.657, 119.598 63.03, 128.97L104, 169.941L104, 264L40, 264C26.745, 264 16, 274.745 16, 288C16, 301.255 26.745, 312 40, 312L104, 312L104, 336C104, 365.275 111.91, 392.733 125.694, 416.365L71.029, 471.03C61.656, 480.403 61.656, 495.598 71.029, 504.971C80.4, 514.343 95.597, 514.344 104.97, 504.971L155.999, 453.942C184.482, 480.046 222.411, 496 264, 496L312, 496C353.589, 496 391.518, 480.046 420.001, 453.942L471.03, 504.971C480.402, 514.343 495.598, 514.344 504.971, 504.971C514.343, 495.598 514.343, 480.403 504.971, 471.03L450.306, 416.365C464.09, 392.734 472, 365.275 472, 336L472, 312L536, 312C549.255, 312 560, 301.255 560, 288C560, 274.745 549.255, 264 536, 264zM289, 48C337.601, 48 377, 87.399 377, 136L201, 136C201, 87.399 240.399, 48 289, 48zM312, 448L312, 260C312, 253.373 306.627, 248 300, 248L276, 248C269.373, 248 264, 253.373 264, 260L264, 448C202.243, 448 152, 397.757 152, 336L152, 184L424, 184L424, 336C424, 397.757 373.757, 448 312, 448z" fill="#727272" fill-opacity="1" class="Black" />
    </g>
  </g>
</svg>