<?xml version='1.0' encoding='UTF-8'?>
<svg viewBox="-3.7494 -1.9999 32 32" xmlns="http://www.w3.org/2000/svg">
  <g transform="matrix(0.0547, 0, 0, 0.0547, 0, 0)">
    <path d="M128, 148L128, 108C128, 101.4 133.4, 96 140, 96L180, 96C186.6, 96 192, 101.4 192, 108L192, 148C192, 154.6 186.6, 160 180, 160L140, 160C133.4, 160 128, 154.6 128, 148zM268, 160L308, 160C314.6, 160 320, 154.6 320, 148L320, 108C320, 101.4 314.6, 96 308, 96L268, 96C261.4, 96 256, 101.4 256, 108L256, 148C256, 154.6 261.4, 160 268, 160zM140, 256L180, 256C186.6, 256 192, 250.6 192, 244L192, 204C192, 197.4 186.6, 192 180, 192L140, 192C133.4, 192 128, 197.4 128, 204L128, 244C128, 250.6 133.4, 256 140, 256zM268, 256L308, 256C314.6, 256 320, 250.6 320, 244L320, 204C320, 197.4 314.6, 192 308, 192L268, 192C261.4, 192 256, 197.4 256, 204L256, 244C256, 250.6 261.4, 256 268, 256zM192, 340L192, 300C192, 293.4 186.6, 288 180, 288L140, 288C133.4, 288 128, 293.4 128, 300L128, 340C128, 346.6 133.4, 352 140, 352L180, 352C186.6, 352 192, 346.6 192, 340zM268, 352L308, 352C314.6, 352 320, 346.6 320, 340L320, 300C320, 293.4 314.6, 288 308, 288L268, 288C261.4, 288 256, 293.4 256, 300L256, 340C256, 346.6 261.4, 352 268, 352zM448, 476L448, 512L0, 512L0, 476C0, 469.4 5.4, 464 12, 464L31.5, 464L31.5, 24C31.5, 10.7 42.2, 0 55.5, 0L392.5, 0C405.8, 0 416.5, 10.7 416.5, 24L416.5, 464L436, 464C442.6, 464 448, 469.4 448, 476zM79.5, 463L192, 463L192, 396C192, 389.4 197.4, 384 204, 384L244, 384C250.6, 384 256, 389.4 256, 396L256, 463L368.5, 463L368.5, 49L80, 48L79.5, 463z" fill="#727272" fill-opacity="1" class="Black" />
  </g>
</svg>