<?xml version='1.0' encoding='UTF-8'?>
<svg viewBox="-1.9998 -3.5563 31.9975 32" xmlns="http://www.w3.org/2000/svg">
  <g transform="matrix(0.0486, 0, 0, 0.0486, 0, 0)">
    <path d="M544, 184.88L544, 32.01C544, 23.26 537.02, 0 512.01, 0L512, 0C504.88, 0 497.81, 2.38 492.02, 7.02L406.99, 75.05C364.28, 109.19 310.66, 128 256, 128L64, 128C28.65, 128 0, 156.65 0, 192L0, 288C0, 323.35 28.65, 352 64, 352L63.52, 384C63.52, 423.77 72.78, 461.35 89.08, 494.94C94.27, 505.63 105.6, 512 117.48, 512L223.76, 512C249.81, 512 265.45, 482.16 249.66, 461.44C233.26, 439.92 223.51, 413.08 223.51, 384C223.51, 372.89 225.13, 362.21 227.92, 352L256, 352C310.66, 352 364.28, 370.81 406.98, 404.95L492.01, 472.98A32.023 32.023 0 0 0 511.99, 480C536.91, 480 543.99, 457.22 543.99, 448L543.99, 295.13C563.04, 284.04 575.99, 263.64 575.99, 240.01C576, 216.37 563.05, 195.97 544, 184.88zM127.73, 464C116.97, 438.55 111.52, 411.69 111.52, 384C111.52, 369.78 113.24, 358.66 114.12, 352L179.03, 352C176.94, 362.7 175.51, 373.41 175.51, 384C175.51, 412.22 182.09, 439.4 194.72, 464L127.73, 464zM240, 304L64, 304C55.18, 304 48, 296.82 48, 288L48, 192C48, 183.18 55.18, 176 64, 176L240, 176L240, 304zM496, 414.7L436.96, 367.46C394.16, 333.24 342.17, 312.09 288, 306.01L288, 173.99C342.17, 167.91 394.16, 146.76 436.97, 112.53L496, 65.3L496, 414.7z" fill="#727272" fill-opacity="1" class="Black" />
  </g>
</svg>