<?xml version='1.0' encoding='UTF-8'?>
<svg viewBox="-5.5003 -2 32 32" xmlns="http://www.w3.org/2000/svg">
  <g transform="matrix(0.0547, 0, 0, 0.0547, 0, 0)">
    <path d="M192, 0C86.2, 93.5 0, 214.4 0, 298.1C0, 424 79, 512 192, 512C305, 512 384, 424 384, 298.1C384, 214.1 296.7, 92.5 192, 0zM192, 65.2C243.4, 116.3 336, 223.7 336, 298.1C336, 327.6 330.4, 353.7 320.9, 376.5C317.4, 301.8 237.2, 218.6 192, 167.7C146.2, 219.2 66.6, 301.5 63.1, 376.5C53.7, 353.7 48, 327.5 48, 298.1C48, 223.9 140.6, 116.4 192, 65.2zM173.9, 462.2C135.8, 454.7 110.5, 423.5 110.5, 381.1C110.5, 360.5 124, 316.5 192, 240C260, 316.5 273.5, 360.5 273.5, 381.1C273.5, 423.5 248.2, 454.8 210.1, 462.2C189.2, 464.6 194.7, 464.6 173.9, 462.2z" fill="#727272" fill-opacity="1" class="Black" />
  </g>
</svg>