<?xml version='1.0' encoding='UTF-8'?>
<svg viewBox="-1.9988 -2 32 32" xmlns="http://www.w3.org/2000/svg">
  <g transform="matrix(0.0547, 0, 0, 0.0547, 0, 0)">
    <path d="M512, 123A74.13 74.13 0 0 0 459.74, 52.26A74.05 74.05 0 0 0 358.12, 6.73A80.49 80.49 0 0 0 252.12, 48.3L34, 266.45A116 116 0 0 0 34, 430.5L81.5, 478A116 116 0 0 0 245.55, 478L463.7, 259.87A80.49 80.49 0 0 0 505.27, 153.87A73.46 73.46 0 0 0 512, 123zM163.52, 464A67.54 67.54 0 0 1 115.44, 444.08L67.92, 396.56A67.27 67.27 0 0 1 50.82, 366.85A216.16 216.16 0 0 0 112, 376C204.14, 376 282.78, 317.89 313.75, 236.48A171.27 171.27 0 0 1 412.32, 243.38L211.62, 444.08A67.55 67.55 0 0 1 163.52, 464zM268.43, 99.88A167.07 167.07 0 0 1 280, 160C280, 252.64 204.62, 328 112, 328A168 168 0 0 1 55.56, 317.93A67.89 67.89 0 0 1 67.93, 300.39z" fill="#727272" fill-opacity="1" class="Black" />
  </g>
</svg>