<?xml version='1.0' encoding='UTF-8'?>
<svg viewBox="-1.9999 -1.9999 32 32" xmlns="http://www.w3.org/2000/svg">
  <g transform="matrix(0.0547, 0, 0, 0.0547, 0, 0)">
    <path d="M488, 128L464, 128L464, 80C464, 35.2 371.89, 0 256, 0C140.11, 0 48, 35.2 48, 80L48, 128L24, 128C10.75, 128 0, 138.74 0, 152L0, 232C0, 245.25 10.75, 256 24, 256L40.91, 256C25.59, 273.01 16, 295.3 16, 320L16, 384C16, 413.95 36.65, 438.88 64.43, 445.87C64.38, 446.61 64, 447.24 64, 448L64, 480C64, 497.67 78.33, 512 96, 512L128, 512C145.67, 512 160, 497.67 160, 480L160, 448L352, 448L352, 480C352, 497.67 366.33, 512 384, 512L416, 512C433.67, 512 448, 497.67 448, 480L448, 448C448, 447.24 447.62, 446.61 447.57, 445.87C475.35, 438.88 496, 413.95 496, 384L496, 320C496, 295.3 486.41, 273.01 471.09, 256L488, 256C501.25, 256 512, 245.25 512, 232L512, 152C512, 138.74 501.25, 128 488, 128zM96, 84.4C108.24, 71.08 164.99, 48 256, 48C347.01, 48 403.76, 71.08 416, 84.4L416, 112L336, 112C336, 94.33 321.67, 80 304, 80L208, 80C190.33, 80 176, 94.33 176, 112L96, 112L96, 84.4zM416, 160L416, 224L272, 224L272, 160L416, 160zM96, 160L240, 160L240, 224L96, 224L96, 160zM448, 384C448, 392.82 440.82, 400 432, 400L80, 400C71.18, 400 64, 392.82 64, 384L64, 320C64, 293.53 85.53, 272 112, 272L400, 272C426.47, 272 448, 293.53 448, 320L448, 384zM368, 304C350.33, 304 336, 318.33 336, 336C336, 353.67 350.33, 368 368, 368C385.67, 368 400, 353.67 400, 336C400, 318.33 385.67, 304 368, 304zM144, 304C126.33, 304 112, 318.33 112, 336C112, 353.67 126.33, 368 144, 368C161.67, 368 176, 353.67 176, 336C176, 318.33 161.67, 304 144, 304z" fill="#727272" fill-opacity="1" class="Black" />
  </g>
</svg>