<?xml version='1.0' encoding='UTF-8'?>
<svg viewBox="-1.9999 -1.9999 32 32" xmlns="http://www.w3.org/2000/svg">
  <g transform="matrix(0.0547, 0, 0, 0.0547, 0, 0)">
    <path d="M144, 304C126.33, 304 112, 318.33 112, 336C112, 353.67 126.33, 368 144, 368C161.67, 368 176, 353.67 176, 336C176, 318.33 161.67, 304 144, 304zM488, 128L480, 128L480, 80C480, 35.2 380.8, 0 256, 0C131.2, 0 32, 35.2 32, 80L32, 128L24, 128C10.75, 128 0, 138.74 0, 152L0, 232C0, 245.25 10.75, 256 24, 256L32, 256L32, 416C32, 433.67 46.33, 448 64, 448L64, 480C64, 497.67 78.33, 512 96, 512L112, 512C129.67, 512 144, 497.67 144, 480L144, 448L368, 448L368, 480C368, 497.67 382.33, 512 400, 512L416, 512C433.67, 512 448, 497.67 448, 480L448, 448C465.67, 448 480, 433.67 480, 416L480, 256L488, 256C501.25, 256 512, 245.25 512, 232L512, 152C512, 138.74 501.25, 128 488, 128zM80, 160L232, 160L232, 224L80, 224L80, 160zM432, 400L80, 400L80, 272L432, 272L432, 400zM432, 224L280, 224L280, 160L432, 160L432, 224zM432, 112L336, 112C336, 94.33 321.67, 80 304, 80L208, 80C190.33, 80 176, 94.33 176, 112L80, 112L80, 85.43C94.18, 71.6 156.69, 48 256, 48C355.31, 48 417.82, 71.6 432, 85.43L432, 112zM368, 368C385.67, 368 400, 353.67 400, 336C400, 318.33 385.67, 304 368, 304C350.33, 304 336, 318.33 336, 336C336, 353.67 350.33, 368 368, 368z" fill="#727272" fill-opacity="1" class="Black" />
  </g>
</svg>