<?xml version='1.0' encoding='UTF-8'?>
<svg viewBox="-3.7495 -2 32 32" xmlns="http://www.w3.org/2000/svg">
  <g transform="matrix(0.0547, 0, 0, 0.0547, 0, 0)">
    <path d="M400, 0L48, 0C22.4, 0 0, 22.4 0, 48L0, 464C0, 489.6 22.4, 512 48, 512L400, 512C425.6, 512 448, 489.6 448, 464L448, 48C448, 22.4 425.6, 0 400, 0zM400, 464L48, 464L48, 208L400, 208L400, 464zM400, 160L48, 160L48, 48L400, 48L400, 160zM108.8, 320L147.2, 320C153.6, 320 160, 313.6 160, 307.2L160, 268.8C160, 262.4 153.6, 256 147.2, 256L108.8, 256C102.4, 256 96, 262.4 96, 268.8L96, 307.2C96, 313.6 102.4, 320 108.8, 320zM300.8, 416L339.2, 416C345.6, 416 352, 409.6 352, 403.2L352, 268.8C352, 262.4 345.6, 256 339.2, 256L300.8, 256C294.4, 256 288, 262.4 288, 268.8L288, 403.2C288, 409.6 294.4, 416 300.8, 416zM108.8, 416L147.2, 416C153.6, 416 160, 409.6 160, 403.2L160, 364.8C160, 358.4 153.6, 352 147.2, 352L108.8, 352C102.4, 352 96, 358.4 96, 364.8L96, 403.2C96, 409.6 102.4, 416 108.8, 416zM204.8, 320L243.2, 320C249.6, 320 256, 313.6 256, 307.2L256, 268.8C256, 262.4 249.6, 256 243.2, 256L204.8, 256C198.4, 256 192, 262.4 192, 268.8L192, 307.2C192, 313.6 198.4, 320 204.8, 320zM204.8, 416L243.2, 416C249.6, 416 256, 409.6 256, 403.2L256, 364.8C256, 358.4 249.6, 352 243.2, 352L204.8, 352C198.4, 352 192, 358.4 192, 364.8L192, 403.2C192, 409.6 198.4, 416 204.8, 416z" fill="#727272" fill-opacity="1" class="Black" />
  </g>
</svg>