<?xml version='1.0' encoding='UTF-8'?>
<svg viewBox="-3.7495 -2 32 32" xmlns="http://www.w3.org/2000/svg">
  <g transform="matrix(0.0547, 0, 0, 0.0547, 0, 0)">
    <path d="M336, 292L336, 316C336, 322.6 330.6, 328 324, 328L248, 328L248, 404C248, 410.6 242.6, 416 236, 416L212, 416C205.4, 416 200, 410.6 200, 404L200, 328L124, 328C117.4, 328 112, 322.6 112, 316L112, 292C112, 285.4 117.4, 280 124, 280L200, 280L200, 204C200, 197.4 205.4, 192 212, 192L236, 192C242.6, 192 248, 197.4 248, 204L248, 280L324, 280C330.6, 280 336, 285.4 336, 292zM448, 112L448, 464C448, 490.5 426.5, 512 400, 512L48, 512C21.5, 512 0, 490.5 0, 464L0, 112C0, 85.5 21.5, 64 48, 64L96, 64L96, 12C96, 5.4 101.4, 0 108, 0L148, 0C154.6, 0 160, 5.4 160, 12L160, 64L288, 64L288, 12C288, 5.4 293.4, 0 300, 0L340, 0C346.6, 0 352, 5.4 352, 12L352, 64L400, 64C426.5, 64 448, 85.5 448, 112zM400, 458L400, 160L48, 160L48, 458C48, 461.3 50.7, 464 54, 464L394, 464C397.3, 464 400, 461.3 400, 458z" fill="#727272" fill-opacity="1" class="Black" />
  </g>
</svg>