<?xml version='1.0' encoding='UTF-8'?>
<svg viewBox="-3.7495 -2 32 32" xmlns="http://www.w3.org/2000/svg">
  <g transform="matrix(0.0547, 0, 0, 0.0547, 0, 0)">
    <path d="M400, 64L352, 64L352, 12C352, 5.4 346.6, 0 340, 0L300, 0C293.4, 0 288, 5.4 288, 12L288, 64L160, 64L160, 12C160, 5.4 154.6, 0 148, 0L108, 0C101.4, 0 96, 5.4 96, 12L96, 64L48, 64C21.5, 64 0, 85.5 0, 112L0, 464C0, 490.5 21.5, 512 48, 512L400, 512C426.5, 512 448, 490.5 448, 464L448, 112C448, 85.5 426.5, 64 400, 64zM394, 464L54, 464C50.7, 464 48, 461.3 48, 458L48, 160L400, 160L400, 458C400, 461.3 397.3, 464 394, 464z" fill="#727272" fill-opacity="1" class="Black" />
  </g>
</svg>