<?xml version='1.0' encoding='UTF-8'?>
<svg viewBox="-3.7495 -2 32 32" xmlns="http://www.w3.org/2000/svg">
  <g transform="matrix(0.0547, 0, 0, 0.0547, 0, 0)">
    <path d="M112, 368L208, 368C216.8, 368 224, 360.8 224, 352L224, 256C224, 247.2 216.8, 240 208, 240L112, 240C103.2, 240 96, 247.2 96, 256L96, 352C96, 360.8 103.2, 368 112, 368zM400, 64L352, 64L352, 16C352, 7.2 344.8, 0 336, 0L304, 0C295.2, 0 288, 7.2 288, 16L288, 64L160, 64L160, 16C160, 7.2 152.8, 0 144, 0L112, 0C103.2, 0 96, 7.2 96, 16L96, 64L48, 64C21.5, 64 0, 85.5 0, 112L0, 464C0, 490.5 21.5, 512 48, 512L400, 512C426.5, 512 448, 490.5 448, 464L448, 112C448, 85.5 426.5, 64 400, 64zM400, 458C400, 461.3 397.3, 464 394, 464L54, 464C50.7, 464 48, 461.3 48, 458L48, 160L400, 160L400, 458z" fill="#727272" fill-opacity="1" class="Black" />
  </g>
</svg>