<?xml version='1.0' encoding='UTF-8'?>
<svg viewBox="-3.7495 -2 32 32" xmlns="http://www.w3.org/2000/svg">
  <g transform="matrix(0.0547, 0, 0, 0.0547, 0, 0)">
    <path d="M167, 331.4L157.6, 386C155.9, 395.9 166.3, 403.2 175, 398.6L223.9, 372.8L272.8, 398.6C281.5, 403.2 291.9, 395.8 290.2, 386L280.8, 331.4L320.4, 292.8C327.5, 285.9 323.6, 273.8 313.8, 272.3L259.1, 264.3L234.6, 214.7C230.2, 205.9 217.5, 205.7 213.1, 214.7L188.6, 264.3L133.9, 272.3C124.1, 273.7 120.2, 285.8 127.3, 292.8L167, 331.4zM400, 64L352, 64L352, 16C352, 7.2 344.8, 0 336, 0L304, 0C295.2, 0 288, 7.2 288, 16L288, 64L160, 64L160, 16C160, 7.2 152.8, 0 144, 0L112, 0C103.2, 0 96, 7.2 96, 16L96, 64L48, 64C21.5, 64 0, 85.5 0, 112L0, 464C0, 490.5 21.5, 512 48, 512L400, 512C426.5, 512 448, 490.5 448, 464L448, 112C448, 85.5 426.5, 64 400, 64zM400, 458C400, 461.3 397.3, 464 394, 464L54, 464C50.7, 464 48, 461.3 48, 458L48, 160L400, 160L400, 458z" fill="#727272" fill-opacity="1" class="Black" />
  </g>
</svg>