<?xml version='1.0' encoding='UTF-8'?>
<svg viewBox="-3.7495 -2 32 32" xmlns="http://www.w3.org/2000/svg">
  <g transform="matrix(0.0547, 0, 0, 0.0547, 0, 0)">
    <path d="M400, 64L352, 64L352, 12C352, 5.373 346.627, 0 340, 0L300, 0C293.373, 0 288, 5.373 288, 12L288, 64L160, 64L160, 12C160, 5.373 154.627, 0 148, 0L108, 0C101.373, 0 96, 5.373 96, 12L96, 64L48, 64C21.49, 64 0, 85.49 0, 112L0, 464C0, 490.51 21.49, 512 48, 512L400, 512C426.51, 512 448, 490.51 448, 464L448, 112C448, 85.49 426.51, 64 400, 64zM394, 464L54, 464A6 6 0 0 1 48, 458L48, 160L400, 160L400, 458A6 6 0 0 1 394, 464zM341.151, 263.35L198.842, 404.519C194.137, 409.186 186.539, 409.156 181.871, 404.451L106.78, 328.752C102.113, 324.047 102.143, 316.449 106.848, 311.781L129.567, 289.245C134.272, 284.578 141.87, 284.608 146.537, 289.314L190.641, 333.775L301.713, 223.594C306.418, 218.927 314.016, 218.957 318.684, 223.662L341.22, 246.38C345.887, 251.085 345.856, 258.683 341.151, 263.35z" fill="#727272" fill-opacity="1" class="Black" />
  </g>
</svg>