<?xml version='1.0' encoding='UTF-8'?>
<svg viewBox="-3.7495 -2 32 32" xmlns="http://www.w3.org/2000/svg">
  <g transform="matrix(0.0547, 0, 0, 0.0547, 0, 0)">
    <path d="M243.1, 234.1L289.9, 280.9C291.9, 282.9 291.9, 286.1 289.9, 288.1L175.4, 402.6L127.2, 408C120.8, 408.7 115.3, 403.3 116, 396.8L121.4, 348.6L235.9, 234.1C237.9, 232.1 241.1, 232.1 243.1, 234.1zM326.1, 223.3L300.7, 197.9C292.8, 190 280, 190 272.1, 197.9L252.6, 217.4C250.6, 219.4 250.6, 222.6 252.6, 224.6L299.4, 271.4C301.4, 273.4 304.6, 273.4 306.6, 271.4L326.1, 251.9C334, 244 334, 231.2 326.1, 223.3zM448, 112L448, 464C448, 490.5 426.5, 512 400, 512L48, 512C21.5, 512 0, 490.5 0, 464L0, 112C0, 85.5 21.5, 64 48, 64L96, 64L96, 12C96, 5.4 101.4, 0 108, 0L148, 0C154.6, 0 160, 5.4 160, 12L160, 64L288, 64L288, 12C288, 5.4 293.4, 0 300, 0L340, 0C346.6, 0 352, 5.4 352, 12L352, 64L400, 64C426.5, 64 448, 85.5 448, 112zM400, 458L400, 160L48, 160L48, 458C48, 461.3 50.7, 464 54, 464L394, 464C397.3, 464 400, 461.3 400, 458z" fill="#727272" fill-opacity="1" class="Black" />
  </g>
</svg>