<?xml version='1.0' encoding='UTF-8'?>
<svg viewBox="-2 -3.554 32 32" xmlns="http://www.w3.org/2000/svg">
  <g transform="matrix(0.0486, 0, 0, 0.0486, 0, 0)">
    <path d="M543.86, 160A32.13 32.13 0 0 0 525.59, 165.73L416, 240.73L416, 224A64 64 0 0 0 352, 160L96, 160L96, 120A40 40 0 0 1 136, 80L304, 80A16 16 0 0 0 320, 64L320, 48A16 16 0 0 0 304, 32L136, 32A88 88 0 0 0 48, 120L48, 162.26A63.85 63.85 0 0 0 0, 224L0, 416A64 64 0 0 0 64, 480L352, 480A64 64 0 0 0 416, 416L416, 399.2L525.59, 474.2A32 32 0 0 0 543.85, 480C560.48, 480 576, 467 576, 448.41L576, 191.5C576, 173 560.51, 160 543.86, 160zM368, 416A16 16 0 0 1 352, 432L64, 432A16 16 0 0 1 48, 416L48, 224A16 16 0 0 1 64, 208L352, 208A16 16 0 0 1 368, 224zM528, 417.69L416, 341L416, 298.91L528, 222.23zM304, 256L112, 256A16 16 0 0 0 96, 272L96, 288A16 16 0 0 0 112, 304L304, 304A16 16 0 0 0 320, 288L320, 272A16 16 0 0 0 304, 256z" fill="#727272" fill-opacity="1" class="Black" />
  </g>
</svg>