<?xml version='1.0' encoding='UTF-8'?>
<svg viewBox="-2 -1.9988 32 32" xmlns="http://www.w3.org/2000/svg">
  <g transform="matrix(0.0547, 0, 0, 0.0547, 0, 0)">
    <path d="M154, 80L38, 80C34.7, 80 32, 77.3 32, 74L32, 38C32, 34.7 34.7, 32 38, 32L154, 32C157.3, 32 160, 34.7 160, 38L160, 74C160, 77.3 157.3, 80 154, 80zM512, 80L512, 432C512, 458.5 490.5, 480 464, 480L48, 480C21.5, 480 0, 458.5 0, 432L0, 144C0, 117.5 21.5, 96 48, 96L184, 96L217.6, 51.2C226.7, 39.1 240.9, 32 256, 32L464, 32C490.5, 32 512, 53.5 512, 80zM464, 144L48, 144L48, 432L464, 432L464, 144zM464, 80L256, 80L244, 96L464, 96L464, 80zM376, 288C376, 221.8 322.2, 168 256, 168C189.8, 168 136, 221.8 136, 288C136, 354.2 189.8, 408 256, 408C322.2, 408 376, 354.2 376, 288zM328, 288C328, 327.7 295.7, 360 256, 360C216.3, 360 184, 327.7 184, 288C184, 248.3 216.3, 216 256, 216C295.7, 216 328, 248.3 328, 288zM232, 288C232, 274.8 242.8, 264 256, 264C264.8, 264 272, 256.8 272, 248C272, 239.2 264.8, 232 256, 232C225.1, 232 200, 257.1 200, 288C200, 296.8 207.2, 304 216, 304C224.8, 304 232, 296.8 232, 288z" fill="#727272" fill-opacity="1" class="Black" />
  </g>
</svg>