<?xml version='1.0' encoding='UTF-8'?>
<svg viewBox="-2 -1.9988 32 32" xmlns="http://www.w3.org/2000/svg">
  <g transform="matrix(0.0547, 0, 0, 0.0547, 0, 0)">
    <path d="M342.7, 144L464, 144L464, 432L48, 432L48, 144L169.3, 144L193.3, 80L318.8, 80L342.7, 144zM324.3, 32L193.3, 32C173.3, 32 155.4, 44.4 148.4, 63.1L136, 96L48, 96C21.5, 96 0, 117.5 0, 144L0, 432C0, 458.5 21.5, 480 48, 480L464, 480C490.5, 480 512, 458.5 512, 432L512, 144C512, 117.5 490.5, 96 464, 96L376, 96L361.7, 58C355.9, 42.3 341, 32 324.3, 32zM256, 408C189.8, 408 136, 354.2 136, 288C136, 221.8 189.8, 168 256, 168C322.2, 168 376, 221.8 376, 288C376, 354.2 322.2, 408 256, 408zM256, 216C216.3, 216 184, 248.3 184, 288C184, 327.7 216.3, 360 256, 360C295.7, 360 328, 327.7 328, 288C328, 248.3 295.7, 216 256, 216z" fill="#727272" fill-opacity="1" class="Black" />
  </g>
</svg>