<?xml version='1.0' encoding='UTF-8'?>
<svg viewBox="-2 -3.554 32 32" xmlns="http://www.w3.org/2000/svg">
  <g transform="matrix(0.0486, 0, 0, 0.0486, 0, 0)">
    <path d="M288, 128A80 80 0 1 0 368, 208A80.12 80.12 0 0 0 288, 128zM288, 240A32 32 0 1 1 320, 208A32 32 0 0 1 288, 240zM570.63, 343.94L512, 256L512, 80A48 48 0 0 0 464, 32L112, 32A48 48 0 0 0 64, 80L64, 256L5.38, 343.94A32 32 0 0 0 0, 361.69L0, 448A32 32 0 0 0 32, 480L544, 480A32 32 0 0 0 576, 448L576, 361.69A32 32 0 0 0 570.63, 343.94zM112, 270.53L112, 80L464, 80L464, 270.53L507.64, 336L68.36, 336zM528, 432L48, 432L48, 384L528, 384zM424, 112L392, 112A8 8 0 0 0 384, 120L384, 152A8 8 0 0 0 392, 160L424, 160A8 8 0 0 0 432, 152L432, 120A8 8 0 0 0 424, 112z" fill="#727272" fill-opacity="1" class="Black" />
  </g>
</svg>