<?xml version='1.0' encoding='UTF-8'?>
<svg viewBox="-1.9999 -3.5552 32 32" xmlns="http://www.w3.org/2000/svg">
  <g transform="matrix(0.0486, 0, 0, 0.0486, 0, 0)">
    <path d="M176, 96A48 48 0 1 0 224, 144A48 48 0 0 0 176, 96zM368, 96A48 48 0 1 0 416, 144A48 48 0 0 0 368, 96zM550.29, 240A25.69 25.69 0 0 0 535.68, 244.59L448, 303.22L448, 304A63.5 63.5 0 0 0 437.63, 269.26C481.75, 244.62 512, 198 512, 144C512, 64.6 447.4, 0 368, 0C332.85, 0 298.76, 13.27 272, 37.37C245.24, 13.27 211.15, 0 176, 0C96.6, 0 32, 64.6 32, 144C32, 181 46.43, 214.46 69.46, 240L32, 240A32 32 0 0 0 0, 272L0, 336A32 32 0 0 0 32, 368L80, 368L80, 448A64 64 0 0 0 144, 512L384, 512A64 64 0 0 0 448, 448L448, 448.73L535.68, 507.35A25.56 25.56 0 0 0 550.29, 511.95C563.59, 511.95 576, 501.59 576, 486.72L576, 265.22C576, 250.4 563.61, 240 550.29, 240zM400, 448A16 16 0 0 1 384, 464L144, 464A16 16 0 0 1 128, 448L128, 320L48, 320L48, 288L384, 288A16 16 0 0 1 400, 304zM368, 240L176, 240A96 96 0 0 1 176, 48C199.27, 48 221.95, 56.89 239.88, 73L272, 102L304.13, 73C322.05, 56.86 344.73, 48 368, 48A96 96 0 0 1 368, 240zM528, 444.48L448, 391L448, 361L528, 307.5z" fill="#727272" fill-opacity="1" class="Black" />
  </g>
</svg>