<?xml version='1.0' encoding='UTF-8'?>
<svg viewBox="-2 -2.0537 32 32" xmlns="http://www.w3.org/2000/svg">
  <g transform="matrix(0.0547, 0, 0, 0.0547, 0, 0)">
    <path d="M256, 408C189.8, 408 136, 354.2 136, 288C136, 221.8 189.8, 168 256, 168C322.2, 168 376, 221.8 376, 288C376, 354.2 322.2, 408 256, 408zM256, 216C216.3, 216 184, 248.3 184, 288C184, 327.7 216.3, 360 256, 360C295.7, 360 328, 327.7 328, 288C328, 248.3 295.7, 216 256, 216zM232, 288C232, 274.8 242.8, 264 256, 264C264.8, 264 272, 256.8 272, 248C272, 239.2 264.8, 232 256, 232C225.1, 232 200, 257.1 200, 288C200, 296.8 207.2, 304 216, 304C224.8, 304 232, 296.8 232, 288zM342.7, 143L464, 143L464, 431L48, 431L48, 143L169.3, 143L193.3, 79L318.8, 79L342.7, 143zM324.3, 31L193.3, 31C173.3, 31 155.4, 43.4 148.4, 62.1L136, 95L48, 95C21.5, 95 0, 116.5 0, 143L0, 431C0, 457.5 21.5, 479 48, 479L464, 479C490.5, 479 512, 457.5 512, 431L512, 143C512, 116.5 490.5, 95 464, 95L376, 95L361.7, 57C355.9, 41.3 341, 31 324.3, 31z" fill="#727272" fill-opacity="1" class="Black" />
  </g>
</svg>