<?xml version='1.0' encoding='UTF-8'?>
<svg viewBox="-1.9987 -2 32 32" xmlns="http://www.w3.org/2000/svg">
  <g transform="matrix(0.0547, 0, 0, 0.0547, 0, 0)">
    <path d="M256, 320C335.53, 320 400, 255.53 400, 176C400, 142.71 366.58, 74.04 320, 32C306.63, 44.06 294.55, 56.75 283.86, 69.48C266.34, 46.01 244.61, 22.21 220, 0C156.83, 56.98 112, 131.22 112, 176C112, 255.53 176.47, 320 256, 320zM220.26, 67.87C229.39, 77.89 237.84, 88.08 245.4, 98.2L281.66, 146.76L318.51, 102.87C339.82, 133.29 352, 165.07 352, 176C352, 228.93 308.94, 272 256, 272C203.07, 272 160, 228.93 160, 176C160, 156.68 180.77, 112.62 220.26, 67.87zM500.9, 465.46L335.49, 413.14L500.9, 360.82C509.23, 358.18 513.88, 349.21 511.28, 340.78L506.57, 325.51C503.97, 317.08 495.1, 312.37 486.77, 315.01L256, 387.99L25.24, 315C16.91, 312.36 8.04, 317.07 5.44, 325.5L0.73, 340.77C-1.87, 349.2 2.77, 358.18 11.1, 360.81L176.51, 413.13L11.1, 465.46C2.77, 468.09 -1.88, 477.07 0.73, 485.5L5.44, 500.77C8.04, 509.21 16.91, 513.91 25.24, 511.27L256, 438.28L486.76, 511.27C495.09, 513.9 503.96, 509.2 506.56, 500.77L511.27, 485.5C513.88, 477.06 509.24, 468.09 500.9, 465.46z" fill="#727272" fill-opacity="1" class="Black" />
  </g>
</svg>