<?xml version='1.0' encoding='UTF-8'?>
<svg viewBox="-3.7495 -2 32 32" xmlns="http://www.w3.org/2000/svg">
  <g transform="matrix(0.0547, 0, 0, 0.0547, 0, 0)">
    <path d="M160, 192C205.93, 192 238, 159.39 238, 112.71C238, 82.72 205.41, 37.82 160, 0C114.38, 38 82, 82.84 82, 112.71C82, 159.39 114.07, 192 160, 192zM160, 66.17C180.01, 88.24 189.44, 106.16 190, 112.7C190, 124.39 186.1, 143.99 160, 143.99C133.9, 143.99 130, 124.38 129.99, 112.99C130.55, 106.25 139.99, 88.26 160, 66.17zM376, 368C336.3, 368 304, 400.3 304, 440C304, 448.46 305.73, 456.46 308.42, 464L272, 464L272, 256C272, 238.33 257.67, 224 240, 224L80, 224C62.33, 224 48, 238.33 48, 256L48, 464L16, 464C7.16, 464 0, 471.16 0, 480L0, 496C0, 504.84 7.16, 512 16, 512L376, 512C415.7, 512 448, 479.7 448, 440C448, 400.3 415.7, 368 376, 368zM224, 464L96, 464L96, 272L128, 272L128, 328C128, 341.25 138.75, 352 152, 352C165.25, 352 176, 341.25 176, 328L176, 272L224, 272L224, 464zM376, 464C362.77, 464 352, 453.23 352, 440C352, 426.77 362.77, 416 376, 416C389.23, 416 400, 426.77 400, 440C400, 453.23 389.23, 464 376, 464z" fill="#727272" fill-opacity="1" class="Black" />
  </g>
</svg>