<?xml version='1.0' encoding='UTF-8'?>
<svg viewBox="-1.9961 -1.9998 32 31.9975" xmlns="http://www.w3.org/2000/svg">
  <g transform="matrix(0.0547, 0, 0, 0.0547, 0, 0)">
    <path d="M497.1, 95.4C469.2, 36.6 411.5, 0 346.5, 0C316.6, 0 287.3, 8.1 261.5, 23.5L235.7, 38.9C213.9, 51.9 206.8, 80.2 219.8, 102L250.6, 153.5C262.7, 173.7 290.5, 183.2 313.7, 169.4L339.5, 154C355.5, 144.4 369.6, 168.6 353.9, 178L22.5, 375C11.9, 381.3 4.5, 391.4 1.5, 403.3C-1.5, 415.2 0.3, 427.6 6.6, 438.1L37.4, 489.6C45.7, 503.4 60.8, 512 76.9, 512C85.2, 512 93.3, 509.7 100.5, 505.5L426.2, 311.9C501.9, 266.6 533.1, 171.5 497.1, 95.4zM212.4, 383.3L156, 351.5L220.2, 313.3L276.6, 345.1L212.4, 383.3zM324.2, 316.8L267.8, 285L327.2, 249.7L383.5, 281.4L324.2, 316.8zM395.1, 128C391.9, 123.9 388.3, 120.3 384.2, 117.2L384.2, 54.3C414.3, 64.3 439.5, 85.9 453.7, 116C455.6, 119.9 456.6, 124 458, 128.1L395.1, 128.1zM336.1, 48.7L336.1, 105.4C320.2, 108.2 316.8, 111.6 291, 127.4L262.1, 79.1C289.7, 62.6 304.7, 51.5 336.1, 48.7zM108.4, 379.8L164.9, 411.6L77.7, 463.5L48.8, 415.2L108.4, 379.8zM426.6, 250.6L374.8, 221.4C392.7, 210.8 404, 198.2 407.7, 176L463.1, 176C460, 203.5 447.2, 229.9 426.6, 250.6z" fill="#727272" fill-opacity="1" class="Black" />
  </g>
</svg>