<?xml version='1.0' encoding='UTF-8'?>
<svg viewBox="-1.9999 -2.8243 31.9975 32" xmlns="http://www.w3.org/2000/svg">
  <g transform="matrix(0.9993, 0, 0, 0.9993, 0, 0)">
    <g transform="matrix(0.0515, 0, 0, 0.0515, 0, 0)">
      <path d="M516.88, 312.08C514.72, 311.03 504.98, 306.44 489.69, 301.12C528.7, 243.51 541.94, 190.2 542.67, 187.17C546.52, 171.22 541.89, 154.43 530.4, 142.63C521.19, 133.18 508.6, 127.99 495.62, 127.99C492.41, 127.99 489.17, 128.31 485.96, 128.96C482.86, 129.59 430.42, 140.52 371.59, 172.43C357.11, 86.62 313.99, 23.83 311.8, 20.69C302.76, 7.74 287.89, 0 272, 0C256.11, 0 241.24, 7.74 232.21, 20.7C230.02, 23.84 186.9, 86.62 172.42, 172.44C113.59, 140.53 61.15, 129.59 58.05, 128.97A48.7 48.7 0 0 0 48.39, 128C35.41, 128 22.82, 133.19 13.61, 142.64C2.11, 154.43 -2.52, 171.22 1.33, 187.17C2.06, 190.2 15.31, 243.51 54.31, 301.12C39.02, 306.44 29.28, 311.03 27.12, 312.08C10.54, 320.13 0.01, 336.85 0, 355.17C-0.01, 373.49 10.49, 390.22 27.06, 398.29C29.23, 399.34 73.34, 420.53 132.52, 426.96A47.751 47.751 0 0 0 145.61, 465.11C154.87, 474.76 167.59, 480 180.64, 480C185.11, 480 189.61, 479.38 194.04, 478.12C197.71, 477.07 219.87, 470.35 248, 455.85L248, 496C248, 504.84 255.16, 512 264, 512L280, 512C288.84, 512 296, 504.84 296, 496L296, 455.85C324.13, 470.35 346.29, 477.07 349.96, 478.12C354.38, 479.39 358.89, 480 363.36, 480C376.41, 480 389.13, 474.76 398.39, 465.11C408.3, 454.79 412.95, 440.79 411.48, 426.96C470.66, 420.52 514.77, 399.34 516.94, 398.29C533.51, 390.22 544.01, 373.49 544, 355.17C543.99, 336.85 533.46, 320.13 516.88, 312.08zM378.22, 380.8C360.92, 380.8 347.09, 379.94 335.8, 378.47C335.58, 378.58 335.4, 378.62 335.18, 378.74C354.95, 407.55 363.36, 432 363.36, 432C363.36, 432 315.36, 418.27 272, 383.52C228.63, 418.27 180.64, 432 180.64, 432C180.64, 432 189.06, 407.55 208.82, 378.74C208.6, 378.63 208.42, 378.59 208.2, 378.47C196.91, 379.93 183.08, 380.8 165.78, 380.8C100.94, 380.8 48.38, 355.2 48.38, 355.2C48.38, 355.2 89.26, 335.36 143.35, 330.64C142.5, 329.87 141.78, 329.34 140.92, 328.55C69.37, 263.02 48.38, 176 48.38, 176C48.38, 176 143.4, 195.22 214.95, 260.75C215.88, 261.6 216.52, 262.32 217.43, 263.16C216.58, 252.33 216.1, 240.44 216.1, 227.2C216.1, 128.23 272, 48 272, 48C272, 48 327.9, 128.23 327.9, 227.2C327.9, 240.43 327.42, 252.33 326.57, 263.16C327.48, 262.32 328.11, 261.6 329.05, 260.75C400.6, 195.22 495.62, 176 495.62, 176C495.62, 176 474.63, 263.02 403.08, 328.55C402.22, 329.34 401.5, 329.87 400.65, 330.64C454.74, 335.35 495.62, 355.2 495.62, 355.2C495.62, 355.2 443.06, 380.8 378.22, 380.8z" fill="#727272" fill-opacity="1" class="Black" />
    </g>
  </g>
</svg>