<?xml version='1.0' encoding='UTF-8'?>
<svg viewBox="-2 -2.8208 32 31.9975" xmlns="http://www.w3.org/2000/svg">
  <g transform="matrix(0.0515, 0, 0, 0.0515, 0, 0)">
    <path d="M529, 296.8L417.5, 103.8C386.8, 50.4 318.6, 32.2 265.3, 63C244.1, 75.3 228.7, 93.5 219.5, 114.3C206.4, 67 163.5, 32 112, 32C50.1, 32 0, 82.1 0, 144L0, 368C0, 429.9 50.1, 480 112, 480C173.9, 480 224, 429.9 224, 368L224, 214C224.2, 214.4 224.3, 214.8 224.5, 215.2L336, 408.2C366.8, 461.5 434.9, 479.8 488.3, 449C541.7, 418.2 559.8, 350.1 529, 296.8zM176, 256L48, 256L48, 144C48, 59.3 176, 59.3 176, 144L176, 256zM265.9, 191.3C223.8, 118.3 334.1, 54.6 376.2, 127.6L420, 203.4L309.7, 267.1L265.9, 191.3z" fill="#727272" fill-opacity="1" class="Black" />
  </g>
</svg>