<?xml version='1.0' encoding='UTF-8'?>
<svg viewBox="-2 -2 32 32" xmlns="http://www.w3.org/2000/svg">
  <g transform="matrix(0.0547, 0, 0, 0.0547, 0, 0)">
    <path d="M503.91, 104L447.93, 104L423.93, 80L447.93, 56L503.9, 56C509.85, 56 513.8, 49.69 511.15, 44.36C495.96, 13.84 462.14, -5.68 424.31, 1.48C398.66, 6.35 377.59, 24.47 367.26, 48L145.01, 48C132.63, 19.83 104.81, 0 72.07, 0C40.75, 0 13.9, 18.12 0.84, 44.37C-1.81, 49.7 2.15, 56 8.09, 56L64.07, 56L88.07, 80L64.07, 104L8.09, 104C2.14, 104 -1.81, 110.31 0.84, 115.64C16.03, 146.16 49.85, 165.68 87.68, 158.52C113.33, 153.66 134.41, 135.53 144.73, 112L366.98, 112C379.36, 140.17 407.18, 160 439.92, 160C471.24, 160 498.09, 141.88 511.15, 115.62C513.81, 110.31 509.85, 104 503.91, 104zM434.21, 266.17L408.42, 202.13C396.24, 171.84 366.87, 152 334.22, 152L161.78, 152C129.13, 152 99.76, 171.84 87.57, 202.12L61.78, 266.16C30.04, 281.83 8, 314.2 8, 352L8, 488C8, 501.25 18.75, 512 32, 512L48, 512C61.25, 512 72, 501.25 72, 488L72, 464L424, 464L424, 488C424, 501.25 434.75, 512 448, 512L464, 512C477.25, 512 488, 501.25 488, 488L488, 352C488, 314.2 465.96, 281.83 434.21, 266.17zM132.1, 220.05C137, 207.87 148.66, 200 161.79, 200L334.23, 200C347.36, 200 359.01, 207.87 363.92, 220.05L378.39, 255.99L117.63, 255.99L132.1, 220.05zM440, 400C440, 408.82 432.82, 416 424, 416L72, 416C63.18, 416 56, 408.82 56, 400L56, 352C56, 325.53 77.53, 304 104, 304L392, 304C418.47, 304 440, 325.53 440, 352L440, 400zM120, 327.99C100.8, 327.99 88, 340.75 88, 359.9C88, 379.05 100.8, 391.81 120, 391.81C139.2, 391.81 168, 395 168, 375.85C168, 356.7 139.2, 327.99 120, 327.99zM376, 327.99C356.8, 327.99 328, 356.71 328, 375.85C328, 394.99 356.8, 391.81 376, 391.81C395.2, 391.81 408, 379.05 408, 359.9C408, 340.75 395.2, 327.99 376, 327.99z" fill="#727272" fill-opacity="1" class="Black" />
  </g>
</svg>