<?xml version='1.0' encoding='UTF-8'?>
<svg viewBox="-1.9999 -4.8004 32 32" xmlns="http://www.w3.org/2000/svg">
  <g transform="matrix(1.0011, 0, 0, 1.0011, 0, 0)">
    <g transform="matrix(0.0437, 0, 0, 0.0437, 0, 0)">
      <path d="M148, 192L108, 192A12 12 0 0 0 96, 204L96, 244A12 12 0 0 0 108, 256L148, 256A12 12 0 0 0 160, 244L160, 204A12 12 0 0 0 148, 192zM148, 288L108, 288A12 12 0 0 0 96, 300L96, 340A12 12 0 0 0 108, 352L148, 352A12 12 0 0 0 160, 340L160, 300A12 12 0 0 0 148, 288zM148, 96L108, 96A12 12 0 0 0 96, 108L96, 148A12 12 0 0 0 108, 160L148, 160A12 12 0 0 0 160, 148L160, 108A12 12 0 0 0 148, 96zM304, 176.14A143.45 143.45 0 0 1 352, 150.33L352, 32A32 32 0 0 0 320, 0L32, 0A32 32 0 0 0 0, 32L0, 432A16 16 0 0 0 16, 448L32, 448A16 16 0 0 0 48, 432L48, 48L304, 48zM204, 96A12 12 0 0 0 192, 108L192, 148A12 12 0 0 0 204, 160L244, 160A12 12 0 0 0 256, 148L256, 108A12 12 0 0 0 244, 96zM528, 344A24 24 0 1 0 552, 368A24 24 0 0 0 528, 344zM586.77, 276.6L572.77, 243.88A111.86 111.86 0 0 0 469.8, 176L394.2, 176A111.86 111.86 0 0 0 291.26, 243.88L277.26, 276.6A80.15 80.15 0 0 0 224, 352L224, 384A79.67 79.67 0 0 0 256.07, 447.65C256.07, 447.77 256, 447.88 256, 448L256, 480A32 32 0 0 0 288, 512L304, 512A32 32 0 0 0 336, 480L336, 464L528, 464L528, 480A32 32 0 0 0 560, 512L576, 512A32 32 0 0 0 608, 480L608, 448C608, 447.88 607.93, 447.77 607.93, 447.65A79.67 79.67 0 0 0 640, 384L640, 352A80.16 80.16 0 0 0 586.77, 276.6zM592, 384A32 32 0 0 1 560, 416L304, 416A32 32 0 0 1 272, 384L272, 352A32 32 0 0 1 304, 320L310.86, 320L335.38, 262.79A64 64 0 0 1 394.2, 224L469.8, 224A64 64 0 0 1 528.62, 262.79L553.14, 320L560, 320A32 32 0 0 1 592, 352zM256, 244L256, 204A12 12 0 0 0 244, 192L204, 192A12 12 0 0 0 192, 204L192, 244A12 12 0 0 0 204, 256L244, 256A12 12 0 0 0 256, 244zM336, 344A24 24 0 1 0 360, 368A24 24 0 0 0 336, 344zM499.32, 275.65A32.06 32.06 0 0 0 469.8, 256L394.2, 256A32 32 0 0 0 364.79, 275.4L345.2, 320L518.8, 320z" fill="#727272" fill-opacity="1" class="Black" />
    </g>
  </g>
</svg>