<?xml version='1.0' encoding='UTF-8'?>
<svg viewBox="-1.995 -4.7962 32 32" xmlns="http://www.w3.org/2000/svg">
  <g transform="matrix(1.0013, 0, 0, 1.0013, 0, 0)">
    <g transform="matrix(0.0437, 0, 0, 0.0437, 0, 0)">
      <path d="M631.76, 168.24L331.67, 3.02A24.06 24.06 0 0 0 308.32, 3.02L8.24, 168.24C0.5, 172.54 -2.28, 182.29 2.01, 190.03L9.79, 204.04C14.09, 211.78 23.84, 214.56 31.58, 210.27L320, 51.53L608.41, 210.26C616.15, 214.56 625.9, 211.77 630.2, 204.03L637.98, 190.02C642.28, 182.29 639.49, 172.53 631.76, 168.24zM192, 328C172.8, 328 160, 340.76 160, 359.91C160, 379.05 172.8, 391.82 192, 391.82C211.2, 391.82 240, 395.01 240, 375.86C240, 356.72 211.2, 328 192, 328zM448, 328C428.8, 328 400, 356.72 400, 375.86C400, 395 428.8, 391.82 448, 391.82C467.2, 391.82 480, 379.06 480, 359.91C480, 340.76 467.2, 328 448, 328zM506.21, 266.17L480.42, 202.13C468.23, 171.85 438.86, 152.01 406.21, 152.01L233.78, 152.01C201.13, 152.01 171.76, 171.85 159.57, 202.13L133.78, 266.17C102.04, 281.83 80, 314.2 80, 352L80, 488C80, 501.25 90.75, 512 104, 512L120, 512C133.25, 512 144, 501.25 144, 488L144, 464L496, 464L496, 488C496, 501.25 506.75, 512 520, 512L536, 512C549.25, 512 560, 501.25 560, 488L560, 352C560, 314.2 537.96, 281.83 506.21, 266.17zM204.1, 220.06C209, 207.88 220.66, 200.01 233.79, 200.01L406.23, 200.01C419.36, 200.01 431.01, 207.88 435.92, 220.06L450.37, 256L189.63, 256L204.1, 220.06zM512, 400C512, 408.82 504.82, 416 496, 416L144, 416C135.18, 416 128, 408.82 128, 400L128, 352C128, 325.53 149.53, 304 176, 304L464, 304C490.47, 304 512, 325.53 512, 352L512, 400z" fill="#727272" fill-opacity="1" class="Black" />
    </g>
  </g>
</svg>