<?xml version='1.0' encoding='UTF-8'?>
<svg viewBox="-2 -4.7992 32 32" xmlns="http://www.w3.org/2000/svg">
  <g transform="matrix(0.9988, 0, 0, 0.9988, 0, 0)">
    <g transform="matrix(0.0438, 0, 0, 0.0438, 0, 0)">
      <path d="M336, 344.48A23.93 23.93 0 1 0 360, 368.41A24 24 0 0 0 336, 344.48zM499.32, 276.32A32.06 32.06 0 0 0 469.8, 256.73L394.2, 256.73A32 32 0 0 0 364.79, 276.07L345.2, 320.54L518.8, 320.54zM528, 344.48A23.93 23.93 0 1 0 552, 368.41A24 24 0 0 0 528, 344.48zM586.77, 277.27L572.77, 244.64A111.88 111.88 0 0 0 469.8, 177L394.2, 177A111.88 111.88 0 0 0 291.26, 244.69L277.26, 277.32A79.93 79.93 0 0 0 224, 352.45L224, 384.36C224, 410.36 236.72, 433.26 256.07, 447.83C256.07, 447.96 256, 448.06 256, 448.18L256, 480.09A32 32 0 0 0 288, 512L304, 512A32 32 0 0 0 336, 480.09L336, 464.14L528, 464.14L528, 480.09A32 32 0 0 0 560, 512L576, 512A32 32 0 0 0 608, 480.09L608, 448.18C608, 448.06 607.93, 447.96 607.93, 447.83C627.28, 433.26 640, 410.35 640, 384.36L640, 352.45A79.93 79.93 0 0 0 586.77, 277.27zM592, 384.36A32 32 0 0 1 560, 416.27L304, 416.27A32 32 0 0 1 272, 384.36L272, 352.45A32 32 0 0 1 304, 320.54L310.86, 320.54L335.38, 263.54A64 64 0 0 1 394.2, 224.86L469.8, 224.86A64 64 0 0 1 528.62, 263.54L553.14, 320.54L560, 320.54A32 32 0 0 1 592, 352.45zM176, 97.18L96, 97.18A16 16 0 0 0 80, 113.13L80, 224.82A16 16 0 0 0 96, 240.82L176, 240.82zM48, 328.52L48, 99.15C48, 70.43 111.77, 47.86 192, 47.86C272.23, 47.86 336, 70.43 336, 99.15L336, 157.48A144.12 144.12 0 0 1 384, 145.79L384, 99.15C384, 26 280.57, 0 192, 0C103.43, 0 0, 26 0, 99.15L0, 328.52A56 56 0 0 0 56, 384.36L64, 384.36L64, 416.27A32 32 0 0 0 96, 448.18L112, 448.18A32 32 0 0 0 144, 416.27L144, 384.36L192, 384.36L192, 352.45A110.91 110.91 0 0 1 193.18, 336.5L56, 336.5A8 8 0 0 1 48, 328.52zM80, 288.63A24 24 0 1 0 104, 264.7A24 24 0 0 0 80, 288.63zM261.84, 232.07A143.19 143.19 0 0 1 304, 177.07L304, 113.07A16 16 0 0 0 288, 97.12L208, 97.12L208, 240.77L258.11, 240.77z" fill="#727272" fill-opacity="1" class="Black" />
    </g>
  </g>
</svg>