<?xml version='1.0' encoding='UTF-8'?>
<svg viewBox="-1.5477 -1.5477 32 32" xmlns="http://www.w3.org/2000/svg">
  <g transform="matrix(0.9991, 0, 0, 0.9991, 0, 0)">
    <g transform="matrix(0.0565, 0, 0, 0.0565, 0, 0)">
      <path d="M296, 157.1L296, 354.9C296, 365.6 283, 371 275.5, 363.4L177.2, 264.5C172.5, 259.8 172.5, 252.3 177.2, 247.6L275.5, 148.7C283, 141 296, 146.4 296, 157.1zM256, 504C119, 504 8, 393 8, 256C8, 119 119, 8 256, 8C393, 8 504, 119 504, 256C504, 393 393, 504 256, 504zM256, 456C366.5, 456 456, 366.5 456, 256C456, 145.5 366.5, 56 256, 56C145.5, 56 56, 145.5 56, 256C56, 366.5 145.5, 456 256, 456z" fill="#727272" fill-opacity="1" class="Black" />
    </g>
  </g>
</svg>