<?xml version='1.0' encoding='UTF-8'?>
<svg viewBox="-1.5477 -1.5477 32 32" xmlns="http://www.w3.org/2000/svg">
  <g transform="matrix(0.9991, 0, 0, 0.9991, 0, 0)">
    <g transform="matrix(0.0565, 0, 0, 0.0565, 0, 0)">
      <path d="M216, 354.9L216, 157.1C216, 146.4 229, 141 236.5, 148.6L334.8, 247.5C339.5, 252.2 339.5, 259.7 334.8, 264.4L236.5, 363.3C229, 371 216, 365.6 216, 354.9zM256, 8C393, 8 504, 119 504, 256C504, 393 393, 504 256, 504C119, 504 8, 393 8, 256C8, 119 119, 8 256, 8zM256, 56C145.5, 56 56, 145.5 56, 256C56, 366.5 145.5, 456 256, 456C366.5, 456 456, 366.5 456, 256C456, 145.5 366.5, 56 256, 56z" fill="#727272" fill-opacity="1" class="Black" />
    </g>
  </g>
</svg>