<?xml version='1.0' encoding='UTF-8'?>
<svg viewBox="-2 0 32 32" xmlns="http://www.w3.org/2000/svg">
  <g transform="matrix(0.0625, 0, 0, 0.0625, 0, 0)">
    <path d="M125.1, 208L322.9, 208C333.6, 208 339, 221 331.4, 228.5L232.5, 326.8C227.8, 331.5 220.3, 331.5 215.6, 326.8L116.7, 228.5C109, 221 114.4, 208 125.1, 208zM448, 80L448, 432C448, 458.5 426.5, 480 400, 480L48, 480C21.5, 480 0, 458.5 0, 432L0, 80C0, 53.5 21.5, 32 48, 32L400, 32C426.5, 32 448, 53.5 448, 80zM400, 426L400, 86C400, 82.7 397.3, 80 394, 80L54, 80C50.7, 80 48, 82.7 48, 86L48, 426C48, 429.3 50.7, 432 54, 432L394, 432C397.3, 432 400, 429.3 400, 426z" fill="#727272" fill-opacity="1" class="Black" />
  </g>
</svg>