<?xml version='1.0' encoding='UTF-8'?>
<svg viewBox="-2 0 32 32" xmlns="http://www.w3.org/2000/svg">
  <g transform="matrix(0.0625, 0, 0, 0.0625, 0, 0)">
    <path d="M176, 354.9L176, 157.1C176, 146.4 189, 141 196.5, 148.6L294.8, 247.5C299.5, 252.2 299.5, 259.7 294.8, 264.4L196.5, 363.3C189, 371 176, 365.6 176, 354.9zM448, 80L448, 432C448, 458.5 426.5, 480 400, 480L48, 480C21.5, 480 0, 458.5 0, 432L0, 80C0, 53.5 21.5, 32 48, 32L400, 32C426.5, 32 448, 53.5 448, 80zM400, 426L400, 86C400, 82.7 397.3, 80 394, 80L54, 80C50.7, 80 48, 82.7 48, 86L48, 426C48, 429.3 50.7, 432 54, 432L394, 432C397.3, 432 400, 429.3 400, 426z" fill="#727272" fill-opacity="1" class="Black" />
  </g>
</svg>