<?xml version='1.0' encoding='UTF-8'?>
<svg viewBox="-2 -4.7992 32 32" xmlns="http://www.w3.org/2000/svg">
  <g transform="matrix(0.9988, 0, 0, 0.9988, 0, 0)">
    <g transform="matrix(0.0438, 0, 0, 0.0438, 0, 0)">
      <path d="M499.32, 275.65A32.06 32.06 0 0 0 469.8, 256L394.2, 256A32 32 0 0 0 364.79, 275.4L345.2, 320L518.8, 320zM336, 344A24 24 0 1 0 360, 368A24 24 0 0 0 336, 344zM586.77, 276.6L572.77, 243.88A111.86 111.86 0 0 0 469.8, 176L394.2, 176A111.86 111.86 0 0 0 291.26, 243.88L277.26, 276.6A80.16 80.16 0 0 0 224, 352L224, 384A79.67 79.67 0 0 0 256.07, 447.65C256.07, 447.77 256, 447.88 256, 448L256, 480A32 32 0 0 0 288, 512L304, 512A32 32 0 0 0 336, 480L336, 464L528, 464L528, 480A32 32 0 0 0 560, 512L576, 512A32 32 0 0 0 608, 480L608, 448C608, 447.88 607.93, 447.77 607.93, 447.65A79.67 79.67 0 0 0 640, 384L640, 352A80.16 80.16 0 0 0 586.77, 276.6zM592, 384A32 32 0 0 1 560, 416L304, 416A32 32 0 0 1 272, 384L272, 352A32 32 0 0 1 304, 320L310.86, 320L335.38, 262.79A64 64 0 0 1 394.2, 224L469.8, 224A64 64 0 0 1 528.62, 262.79L553.14, 320L560, 320A32 32 0 0 1 592, 352zM528, 344A24 24 0 1 0 552, 368A24 24 0 0 0 528, 344zM275.32, 99.65A32.06 32.06 0 0 0 245.8, 80L170.2, 80A32 32 0 0 0 140.79, 99.4L121.2, 144L294.8, 144zM252.79, 252.4L258.11, 240L80, 240A32 32 0 0 1 48, 208L48, 176A32 32 0 0 1 80, 144L86.86, 144L111.38, 86.79A64 64 0 0 1 170.2, 48L245.8, 48A64 64 0 0 1 304.62, 86.79L329.14, 144L336, 144C342.62, 144 348.41, 146.49 353.52, 149.93A143.81 143.81 0 0 1 394.2, 144L409.08, 144A80.3 80.3 0 0 0 362.77, 100.6L348.77, 67.88A111.86 111.86 0 0 0 245.8, 0L170.2, 0A111.86 111.86 0 0 0 67.26, 67.88L53.26, 100.6A80.16 80.16 0 0 0 0, 176L0, 208A79.67 79.67 0 0 0 32.07, 271.65C32.07, 271.77 32, 271.88 32, 272L32, 304A32 32 0 0 0 64, 336L80, 336A32 32 0 0 0 112, 304L112, 288L212.46, 288A112 112 0 0 1 252.79, 252.4zM88, 192A24 24 0 1 0 112, 168A24 24 0 0 0 88, 192z" fill="#727272" fill-opacity="1" class="Black" />
    </g>
  </g>
</svg>