<?xml version='1.0' encoding='UTF-8'?>
<svg viewBox="-1.9999 -3.5552 32 32" xmlns="http://www.w3.org/2000/svg">
  <g transform="matrix(0.0486, 0, 0, 0.0486, 0, 0)">
    <path d="M416, 128C407.16, 128 400, 135.16 400, 144C400, 152.84 407.16, 160 416, 160C424.84, 160 432, 152.84 432, 144C432, 135.16 424.84, 128 416, 128zM547.53, 4.15A47.971 47.971 0 0 0 528.01, 0C516.37, 0 504.88, 4.23 495.89, 12.32L456.25, 48L439.76, 48L400.12, 12.32A48.032 48.032 0 0 0 348.47, 4.15C331.16, 11.87 320, 29.04 320, 48L320, 160C320, 164.24 320.85, 168.24 321.25, 172.38L274.25, 179.5C206.77, 189.73 149.63, 225.9 112, 277.02L112, 184C112, 135.47 72.53, 96 24, 96C10.75, 96 0, 106.75 0, 120C0, 133.47 11.12, 144.37 24.68, 143.99C47.02, 143.37 64, 164.57 64, 186.92L64, 399.3C64, 472.71 103.4, 512 152, 512L336, 512C344.84, 512 352, 504.84 352, 496C352, 478.33 337.67, 464 320, 464L303.86, 464C303.75, 456.63 303.08, 449.37 302.01, 442.19L384, 393.95L384, 480C384, 497.67 398.33, 512 416, 512L480, 512C497.67, 512 512, 497.67 512, 480L512, 270.2C550.07, 248 576, 207.17 576, 160.01L576, 48C576, 29.05 564.84, 11.87 547.53, 4.15zM464, 464L432, 464L432, 365.98C432, 354.53 425.84, 343.89 415.91, 338.21C406, 332.52 393.69, 332.59 383.79, 338.4L287.44, 395.08C275.36, 370.1 257.21, 348.2 233.99, 331.97C226.47, 326.71 215.92, 329.76 211.46, 337.78L204.02, 351.17C200.05, 358.32 201.47, 367.66 208.09, 372.46C237.31, 393.63 254.96, 427.5 255.72, 464L152, 464C129.94, 464 112, 446.06 112, 424C112, 324.72 183.25, 241.84 281.44, 226.97L335.01, 218.85C356.4, 259.74 398.75, 288 448, 288C453.48, 288 458.7, 287.05 464, 286.38L464, 464zM528, 160C528, 204.18 492.18, 240 448, 240C403.82, 240 368, 204.18 368, 160L368, 48L421.33, 96L474.66, 96L528, 48L528, 160zM464, 144C464, 152.84 471.16, 160 480, 160C488.84, 160 496, 152.84 496, 144C496, 135.16 488.84, 128 480, 128C471.16, 128 464, 135.16 464, 144z" fill="#727272" fill-opacity="1" class="Black" />
  </g>
</svg>