<?xml version='1.0' encoding='UTF-8'?>
<svg viewBox="-2 -3.554 32 32" xmlns="http://www.w3.org/2000/svg">
  <g transform="matrix(0.0486, 0, 0, 0.0486, 0, 0)">
    <path d="M573.86, 256.4A30.75 30.75 0 0 0 557.48, 239.31L523.68, 224.45C544.42, 210.09 541.25, 178.12 517.43, 168.59L139.24, 2.32C119.9, -5.41 104.23, 8 99.57, 16.15L4.23, 183A32 32 0 0 0 21.08, 228.94L185.08, 296.86L143.37, 408L48, 408L48, 368A16 16 0 0 0 32, 352L16, 352A16 16 0 0 0 0, 368L0, 496A16 16 0 0 0 16, 512L32, 512A16 16 0 0 0 48, 496L48, 456L160, 456A24 24 0 0 0 182.47, 440.44L229.42, 315.23L305.34, 346.68C318.14, 351.33 330.34, 345.54 333.23, 343.74L354.02, 330.74L490.84, 390.9L490.93, 390.96A31.15 31.15 0 0 0 531.68, 374.96L573.33, 280.13A30.62 30.62 0 0 0 573.86, 256.4zM314.8, 298.65L54.93, 191L134.09, 52.49L471.39, 200.78z" fill="#727272" fill-opacity="1" class="Black" />
  </g>
</svg>