<?xml version='1.0' encoding='UTF-8'?>
<svg viewBox="-3.7505 -1.9998 32 31.9975" xmlns="http://www.w3.org/2000/svg">
  <g transform="matrix(0.0547, 0, 0, 0.0547, 0, 0)">
    <path d="M64, 224L64, 160C64, 142.33 49.67, 128 32, 128C14.33, 128 0, 142.33 0, 160L0, 224C0, 241.67 14.33, 256 32, 256C49.67, 256 64, 241.67 64, 224zM416, 128C398.33, 128 384, 142.33 384, 160L384, 224C384, 241.67 398.33, 256 416, 256C433.67, 256 448, 241.67 448, 224L448, 160C448, 142.33 433.67, 128 416, 128zM402.47, 294.3C395.13, 272.27 375.01, 257.55 352, 256.42L352, 64C352, 28.65 323.35, 0 288, 0L160, 0C124.65, 0 96, 28.65 96, 64L96, 256.42C72.99, 257.54 52.87, 272.26 45.57, 294.26L34.85, 326.3C29.19, 343.33 32.07, 362.19 42.57, 376.74C53.07, 391.31 70.04, 400 88.01, 400L200, 400L200, 450.01C168.07, 454.98 142.01, 469.44 130.15, 488.57C123.74, 498.91 132.56, 512 145.17, 512L302.83, 512C315.44, 512 324.27, 498.91 317.85, 488.57C305.99, 469.44 279.93, 454.98 248, 450.01L248, 400L360, 400C377.97, 400 394.94, 391.31 405.45, 376.73C415.95, 362.18 418.83, 343.32 413.14, 326.26L402.47, 294.3zM144, 64C144, 55.18 151.18, 48 160, 48L288, 48C296.82, 48 304, 55.18 304, 64L304, 256L144, 256L144, 64zM360, 352L88.01, 352C82.59, 352 78.68, 346.72 80.39, 341.48L91.11, 309.45C92.17, 306.18 95.23, 304 98.67, 304L349.34, 304C352.78, 304 355.84, 306.19 356.94, 309.48L367.6, 341.45C369.37, 346.8 365.34, 352 360, 352z" fill="#727272" fill-opacity="1" class="Black" />
  </g>
</svg>