<?xml version='1.0' encoding='UTF-8'?>
<svg viewBox="-1.9998 -4.8002 31.9975 32" xmlns="http://www.w3.org/2000/svg">
  <g transform="matrix(0.9988, 0, 0, 0.9988, 0, 0)">
    <g transform="matrix(0.0438, 0, 0, 0.0438, 0, 0)">
      <path d="M80, 48L560, 48L560, 416L608, 416L608, 40C608, 17.94 590.06, 0 568, 0L72, 0C49.94, 0 32, 17.94 32, 40L32, 416L80, 416L80, 48zM624, 464L512, 464L512, 384C512, 366.33 497.67, 352 480, 352L288, 352C270.33, 352 256, 366.33 256, 384L256, 464L16, 464C7.16, 464 0, 471.16 0, 480L0, 496C0, 504.84 7.16, 512 16, 512L624, 512C632.84, 512 640, 504.84 640, 496L640, 480C640, 471.16 632.84, 464 624, 464zM464, 464L304, 464L304, 400L464, 400L464, 464z" fill="#727272" fill-opacity="1" class="Black" />
    </g>
  </g>
</svg>