<?xml version='1.0' encoding='UTF-8'?>
<svg viewBox="-2 -4.7992 32 32" xmlns="http://www.w3.org/2000/svg">
  <g transform="matrix(0.9988, 0, 0, 0.9988, 0, 0)">
    <g transform="matrix(0.0438, 0, 0, 0.0438, 0, 0)">
      <path d="M226.79, 342.02C199, 342.02 192.02, 352 160, 352C128.03, 352 121.05, 342.02 93.21, 342.02C21.12, 342.02 0, 403 0, 434.67L0, 472C0, 494.09 17.91, 512 40, 512L280, 512C302.09, 512 320, 494.09 320, 472L320, 434.67C320, 391.95 289.42, 342.02 226.79, 342.02zM272, 464L48, 464L48, 434.67C48, 420.66 56.15, 390.02 93.21, 390.02C110.45, 390.02 122.77, 400 160, 400C197.37, 400 209.49, 390.02 226.79, 390.02C263.81, 390.02 272, 420.6 272, 434.67L272, 464zM160, 320C213.02, 320 256, 277.02 256, 224C256, 170.98 213.02, 128 160, 128C106.98, 128 64, 170.98 64, 224C64, 277.02 106.98, 320 160, 320zM160, 176C186.47, 176 208, 197.53 208, 224C208, 250.47 186.47, 272 160, 272C133.53, 272 112, 250.47 112, 224C112, 197.53 133.53, 176 160, 176zM592, 0L208, 0C181.53, 0 160, 22.25 160, 49.59L160, 96C169.69, 96 192.27, 99.13 208, 105.52L208, 48L592, 48L592, 368L544, 368L544, 320C544, 302.33 529.67, 288 512, 288L384, 288C366.33, 288 352, 302.33 352, 320L352, 416L592, 416C618.47, 416 640, 393.75 640, 366.41L640, 49.59C640, 22.25 618.47, 0 592, 0zM496, 368L400, 368L400, 336L496, 336L496, 368z" fill="#727272" fill-opacity="1" class="Black" />
    </g>
  </g>
</svg>