<?xml version='1.0' encoding='UTF-8'?>
<svg viewBox="-1.9974 -2.8219 31.9975 32" xmlns="http://www.w3.org/2000/svg">
  <g transform="matrix(0.0515, 0, 0, 0.0515, 0, 0)">
    <path d="M511.96, 223.2C503.72, 103.74 408.26, 8.28 288.8, 0.04C288.45, 0.01 288.1, 0 287.76, 0C279.11, 0 272, 7.44 272, 16.23L272, 240L495.77, 240C504.91, 240 512.59, 232.32 511.96, 223.2zM320, 192L320, 53.51C387.56, 70.95 441.05, 124.44 458.49, 192L320, 192zM224, 288L224, 50.72C224, 41.89 216.82, 34.51 208.26, 34.51C207.56, 34.51 206.86, 34.56 206.15, 34.66C86.99, 51.49 -4.1, 155.6 0.14, 280.37C4.47, 407.53 113.18, 512 240.12, 512C241.1, 512 242.05, 511.99 243.03, 511.98C293.43, 511.35 340, 495.11 378.29, 467.95C386.19, 462.35 386.71, 450.72 379.86, 443.87L224, 288zM242.44, 463.99L240.13, 464C139.47, 464 51.54, 379.16 48.12, 278.74C45.21, 193.34 98.27, 118.37 176, 91.14L176, 307.88L190.06, 321.94L316.28, 448.16C293.12, 458.26 268.12, 463.66 242.44, 463.99zM527.79, 288L290.5, 288L448.53, 446.03C451.7, 449.2 455.94, 450.84 460.15, 450.84C463.97, 450.84 467.77, 449.49 470.72, 446.71C509.42, 410.25 536.04, 361.1 543.85, 305.85C545.19, 296.39 537.34, 288 527.79, 288z" fill="#727272" fill-opacity="1" class="Black" />
  </g>
</svg>