<?xml version='1.0' encoding='UTF-8'?>
<svg viewBox="-2 -1.9988 32 32" xmlns="http://www.w3.org/2000/svg">
  <g transform="matrix(0.0547, 0, 0, 0.0547, 0, 0)">
    <path d="M500, 400C506.6, 400 512, 405.4 512, 412L512, 436C512, 442.6 506.6, 448 500, 448L12, 448C5.4, 448 0, 442.6 0, 436L0, 76C0, 69.4 5.4, 64 12, 64L36, 64C42.6, 64 48, 69.4 48, 76L48, 400L500, 400zM372, 128.7L288, 184.7L202.9, 99.6C197.4, 94.1 188.1, 95.2 184.1, 101.9L96, 256L96, 352L480, 352L389.7, 133.9C386.7, 127 378.2, 124.5 372, 128.7zM144, 269.3L201.5, 166.1L281.9, 246.5C353.7, 198.6 290.1, 241.1 362.6, 192.7L407.2, 304L144, 304L144, 269.3z" fill="#727272" fill-opacity="1" class="Black" />
  </g>
</svg>