<?xml version='1.0' encoding='UTF-8'?>
<svg viewBox="-1.9998 -3.5563 31.9975 32" xmlns="http://www.w3.org/2000/svg">
  <g transform="matrix(0.0486, 0, 0, 0.0486, 0, 0)">
    <path d="M120.57, 224L162.96, 224L154.18, 278.77C152.9, 283.51 157.04, 288 162.52, 288C165.5, 288 168.37, 286.63 169.94, 284.26L236.87, 184.98C240.17, 179.99 236.05, 173.72 229.45, 173.72L188.23, 173.72L196.51, 137.44C197.96, 132.68 193.85, 128.01 188.23, 128.01L139.66, 128.01C135.36, 128.01 131.73, 130.79 131.16, 134.52L112.06, 215.52C111.39, 220.01 115.39, 224 120.57, 224zM560, 128L544, 128L544, 80C544, 71.16 536.84, 64 528, 64C519.16, 64 512, 71.16 512, 80L512, 128L480, 128L480, 80C480, 71.16 472.84, 64 464, 64C455.16, 64 448, 71.16 448, 80L448, 128L432, 128C423.16, 128 416, 135.16 416, 144L416, 192C416, 227.76 439.62, 257.69 472, 267.93L472, 372C472, 387.44 459.44, 400 444, 400C428.56, 400 416, 387.44 416, 372L416, 344C416, 295.47 376.53, 256 328, 256L320, 256L320, 48C320, 21.49 298.51, 0 272, 0L80, 0C53.49, 0 32, 21.49 32, 48L32, 464L8, 464C3.58, 464 0, 467.58 0, 472L0, 504C0, 508.42 3.58, 512 8, 512L344, 512C348.42, 512 352, 508.42 352, 504L352, 472C352, 467.58 348.42, 464 344, 464L320, 464L320, 304L328, 304C350.06, 304 368, 321.94 368, 344L368, 372C368, 413.91 402.09, 448 444, 448C485.91, 448 520, 413.91 520, 372L520, 267.93C552.38, 257.69 576, 227.76 576, 192L576, 144C576, 135.16 568.84, 128 560, 128zM272, 464L80, 464L80, 48L272, 48L272, 464zM528, 192C528, 209.64 513.64, 224 496, 224C478.36, 224 464, 209.64 464, 192L464, 176L528, 176L528, 192z" fill="#727272" fill-opacity="1" class="Black" />
  </g>
</svg>