<?xml version='1.0' encoding='UTF-8'?>
<svg viewBox="-2 -1.9988 32 32" xmlns="http://www.w3.org/2000/svg">
  <g transform="matrix(0.0547, 0, 0, 0.0547, 0, 0)">
    <path d="M396.8, 352L419.2, 352C425.6, 352 432, 345.6 432, 339.2L432, 108.8C432, 102.4 425.6, 96 419.2, 96L396.8, 96C390.4, 96 384, 102.4 384, 108.8L384, 339.2C384, 345.6 390.4, 352 396.8, 352zM204.8, 352L227.2, 352C233.6, 352 240, 345.6 240, 339.2L240, 140.8C240, 134.4 233.6, 128 227.2, 128L204.8, 128C198.4, 128 192, 134.4 192, 140.8L192, 339.2C192, 345.6 198.4, 352 204.8, 352zM300.8, 352L323.2, 352C329.6, 352 336, 345.6 336, 339.2L336, 204.8C336, 198.4 329.6, 192 323.2, 192L300.8, 192C294.4, 192 288, 198.4 288, 204.8L288, 339.2C288, 345.6 294.4, 352 300.8, 352zM496, 400L48, 400L48, 80C48, 71.16 40.84, 64 32, 64L16, 64C7.16, 64 0, 71.16 0, 80L0, 416C0, 433.67 14.33, 448 32, 448L496, 448C504.84, 448 512, 440.84 512, 432L512, 416C512, 407.16 504.84, 400 496, 400zM108.8, 352L131.2, 352C137.6, 352 144, 345.6 144, 339.2L144, 268.8C144, 262.4 137.6, 256 131.2, 256L108.8, 256C102.4, 256 96, 262.4 96, 268.8L96, 339.2C96, 345.6 102.4, 352 108.8, 352z" fill="#727272" fill-opacity="1" class="Black" />
  </g>
</svg>