<?xml version='1.0' encoding='UTF-8'?>
<svg viewBox="-2 -4.7967 32 32" xmlns="http://www.w3.org/2000/svg">
  <g transform="matrix(0.9988, 0, 0, 0.9988, 0, 0)">
    <g transform="matrix(0.0438, 0, 0, 0.0438, 0, 0)">
      <path d="M568, 368C548.9, 368 531.7, 375.6 518.8, 387.7L440.6, 343C445.1, 330.8 448, 317.8 448, 304C448, 242.1 397.9, 192 336, 192C327.6, 192 319.4, 193.1 311.6, 194.9L279.4, 125.9C294.4, 112.7 304, 93.6 304, 72.1C304, 32.3 271.8, 0.1 232, 0.1C192.2, 0.1 160, 32.3 160, 72.1C160, 111.9 192.2, 144.1 232, 144.1C232.9, 144.1 233.8, 143.9 234.7, 143.8L268.2, 215.5C241.5, 235.9 224, 267.8 224, 304C224, 365.9 274.1, 416 336, 416C366.7, 416 394.6, 403.6 414.8, 383.5L497, 430.5C496.6, 433.6 496, 436.8 496, 440C496, 479.8 528.2, 512 568, 512C607.8, 512 640, 479.8 640, 440C640, 400.2 607.8, 368 568, 368zM232, 96C218.8, 96 208, 85.2 208, 72C208, 58.8 218.8, 48 232, 48C245.2, 48 256, 58.8 256, 72C256, 85.2 245.2, 96 232, 96zM336, 368C300.7, 368 272, 339.3 272, 304C272, 268.7 300.7, 240 336, 240C371.3, 240 400, 268.7 400, 304C400, 339.3 371.3, 368 336, 368zM568, 464C554.8, 464 544, 453.2 544, 440C544, 426.8 554.8, 416 568, 416C581.2, 416 592, 426.8 592, 440C592, 453.2 581.2, 464 568, 464zM513.6, 202.8L494.4, 177.2L446.4, 213.2L465.6, 238.8L513.6, 202.8zM576, 192C611.3, 192 640, 163.3 640, 128C640, 92.7 611.3, 64 576, 64C540.7, 64 512, 92.7 512, 128C512, 163.3 540.7, 192 576, 192zM152, 320L200, 320L200, 288L152, 288L152, 320zM64, 240C28.7, 240 0, 268.7 0, 304C0, 339.3 28.7, 368 64, 368C99.3, 368 128, 339.3 128, 304C128, 268.7 99.3, 240 64, 240z" fill="#727272" fill-opacity="1" class="Black" />
    </g>
  </g>
</svg>