<?xml version='1.0' encoding='UTF-8'?>
<svg viewBox="-2 -1.9988 32 32" xmlns="http://www.w3.org/2000/svg">
  <g transform="matrix(0.0547, 0, 0, 0.0547, 0, 0)">
    <path d="M176, 319.9A48 48 0 1 0 224, 367.9A48 48 0 0 0 176, 319.9zM299.83, 32L298.34, 32A32.27 32.27 0 0 0 278.7, 39L0, 255.87L0, 448A32 32 0 0 0 32, 480L480, 480A32 32 0 0 0 512, 448L512, 255.87C512, 136.05 418, 38.2 299.83, 32zM196.48, 163.8A47.9 47.9 0 1 0 270, 106.59L303.6, 80.44C391.34, 88.11 459.23, 159.91 463.24, 247.86L409.34, 247.86A47.59 47.59 0 0 0 326.66, 247.86L88.47, 247.86zM464, 432L48, 432L48, 295.89L326.66, 295.89A47.59 47.59 0 0 0 409.34, 295.89L464, 295.89z" fill="#727272" fill-opacity="1" class="Black" />
  </g>
</svg>