<?xml version='1.0' encoding='UTF-8'?>
<svg viewBox="-1.9975 -1.9962 32 31.9975" xmlns="http://www.w3.org/2000/svg">
  <g transform="matrix(0.0547, 0, 0, 0.0547, 0, 0)">
    <path d="M352, 176A16 16 0 1 0 336, 160A16 16 0 0 0 352, 176zM256, 144A16 16 0 1 0 240, 128A16 16 0 0 0 256, 144zM160, 176A16 16 0 1 0 144, 160A16 16 0 0 0 160, 176zM512, 288A79.33 79.33 0 0 0 483.9, 227.6A8.78 8.78 0 0 0 485.1, 226.1A72.49 72.49 0 0 0 485.7, 150.7C442.3, 78.7 352.19, 32.1 256, 32C159.9, 32.1 69.69, 78.7 26.29, 150.7A72.45 72.45 0 0 0 26.89, 226.1A15.76 15.76 0 0 0 28.09, 227.6A79.35 79.35 0 0 0 18.79, 339.4A78.09 78.09 0 0 0 33.79, 353.1C33.09, 355.9 32.09, 358.6 32.09, 361.6L32.09, 396.3A83.73 83.73 0 0 0 115.79, 480L396.39, 480A83.8 83.8 0 0 0 480.1, 396.3L480.1, 361.6C480.1, 358.6 479, 355.9 478.4, 353.1A80 80 0 0 0 512, 288zM67.37, 175.5C102.27, 117.6 176.37, 80.1 255.98, 80C335.69, 80.1 409.79, 117.6 444.7, 175.5A24.51 24.51 0 0 1 444.5, 200.7C441.6, 205.4 437.09, 208.1 432.29, 208.1L79.67, 208.1C74.87, 208.1 70.37, 205.4 67.47, 200.7A24.73 24.73 0 0 1 67.37, 175.5zM432, 396.3A35.72 35.72 0 0 1 396.3, 432L115.67, 432A35.72 35.72 0 0 1 80, 396.3L80, 370.7L432, 370.7zM432, 320L80, 320A32 32 0 0 1 80, 256L224, 256L320, 304L416, 256L432, 256A32 32 0 1 1 432, 320z" fill="#727272" fill-opacity="1" class="Black" />
  </g>
</svg>