<?xml version='1.0' encoding='UTF-8'?>
<svg viewBox="-1.9999 -4.8004 32 32" xmlns="http://www.w3.org/2000/svg">
  <g transform="matrix(1.0011, 0, 0, 1.0011, 0, 0)">
    <g transform="matrix(0.0437, 0, 0, 0.0437, 0, 0)">
      <path d="M448.22, 416.06A112 112 0 1 0 336.22, 304.11A112 112 0 0 0 448.22, 416.06zM435.55, 293.87L486.46, 243A12 12 0 0 1 503.46, 243L509.12, 248.65A12 12 0 0 1 509.12, 265.65L458.21, 316.55A12 12 0 0 1 441.21, 316.55L435.56, 310.89A12 12 0 0 1 435.55, 293.87zM600, 96L544.21, 96L544.21, 80A16 16 0 0 0 528.21, 64L400.21, 64A16 16 0 0 0 384.21, 80L384.21, 96L200.08, 96L200.08, 48L240.08, 48A16 16 0 0 0 256.08, 32L256.08, 16A16 16 0 0 0 240.08, 0L112, 0A16 16 0 0 0 96, 16L96, 32A16 16 0 0 0 112, 48L152, 48L152, 96L40, 96A40 40 0 0 0 0, 136L0, 472A40 40 0 0 0 40, 512L600, 512A40 40 0 0 0 640, 472L640, 136A40 40 0 0 0 600, 96zM592, 464L48, 464L48, 144L592, 144zM192.12, 415.91A112 112 0 1 0 80.12, 303.91A112 112 0 0 0 192.12, 415.91zM176.12, 236A12 12 0 0 1 188.12, 224L196.12, 224A12 12 0 0 1 208.12, 236L208.12, 308A12 12 0 0 1 196.12, 320L188.12, 320A12 12 0 0 1 176.12, 308z" fill="#727272" fill-opacity="1" class="Black" />
    </g>
  </g>
</svg>