<?xml version='1.0' encoding='UTF-8'?>
<svg viewBox="-1.9999 -1.9999 32 32" xmlns="http://www.w3.org/2000/svg">
  <g transform="matrix(0.0547, 0, 0, 0.0547, 0, 0)">
    <path d="M448, 384L448, 320L384, 320L384, 384zM448, 256.07L448, 192.07L384, 192.07L384, 256.07zM320.07, 448L384.07, 448L384.07, 384L320.07, 384zM192.13, 448L256.13, 448L256.13, 384L192.13, 384zM64.2, 256.1L64.2, 320.1L128.2, 320.1L128.2, 256.1zM448, 64.2L384, 64.2L384, 128.2L448, 128.2zM192.13, 64.2L128.13, 64.2L128.13, 128.2L192.13, 128.2zM64.2, 128.2L64.2, 192.2L128.2, 192.2L128.2, 128.2zM320.07, 64.2L256.07, 64.2L256.07, 128.2L320.07, 128.2zM256.07, 320.07L256.07, 384.07L320.07, 384.07L320.07, 320.07zM192.07, 320.07L128.07, 320.07L128.07, 384.07L192.07, 384.07zM384, 192.13L384, 128.13L320, 128.13L320, 192.13zM320, 320.07L384, 320.07L384, 256.07L320, 256.07zM256, 192.13L256, 128.13L192, 128.13L192, 192.13zM320, 256.13L320, 192.13L256, 192.13L256, 256.13zM256, 256.13L192, 256.13L192, 320.13L256, 320.13zM192, 192.13L128, 192.13L128, 256.13L192, 256.13zM128, 384.03L64, 384.03L64, 448.03L128, 448.03zM480, 0L32, 0A32 32 0 0 0 0, 32L0, 480A32 32 0 0 0 32, 512L480, 512A32 32 0 0 0 512, 480L512, 32A32 32 0 0 0 480, 0zM464, 464L48, 464L48, 48L464, 48z" fill="#727272" fill-opacity="1" class="Black" />
  </g>
</svg>