<?xml version='1.0' encoding='UTF-8'?>
<svg viewBox="-1.9999 -4.8004 32 32" xmlns="http://www.w3.org/2000/svg">
  <g transform="matrix(1.0011, 0, 0, 1.0011, 0, 0)">
    <g transform="matrix(0.0437, 0, 0, 0.0437, 0, 0)">
      <path d="M600, 96L487.94, 96L487.94, 48L527.94, 48A16 16 0 0 0 543.94, 32L543.94, 16A16 16 0 0 0 528, 0L400, 0A16 16 0 0 0 384, 16L384, 32A16 16 0 0 0 400, 48L440, 48L440, 96L256, 96L256, 80A16 16 0 0 0 240, 64L112, 64A16 16 0 0 0 96, 80L96, 96L40, 96A40 40 0 0 0 0, 136L0, 472A40 40 0 0 0 40, 512L600, 512A40 40 0 0 0 640, 472L640, 136A40 40 0 0 0 600, 96zM592, 464L48, 464L48, 144L592, 144zM192, 416.06A112 112 0 1 0 80, 304.11A112 112 0 0 0 192, 416.06zM179.33, 293.87L230.24, 243A12 12 0 0 1 247.24, 243L252.89, 248.65A12 12 0 0 1 252.89, 265.65L202, 316.49A12 12 0 0 1 185, 316.49L179.34, 310.83A12 12 0 0 1 179.33, 293.87zM448, 415.91A112 112 0 1 0 336, 304A112 112 0 0 0 448, 415.91zM432, 236A12 12 0 0 1 444, 224L452, 224A12 12 0 0 1 464, 236L464, 308A12 12 0 0 1 452, 320L444, 320A12 12 0 0 1 432, 308z" fill="#727272" fill-opacity="1" class="Black" />
    </g>
  </g>
</svg>