<?xml version='1.0' encoding='UTF-8'?>
<svg viewBox="-4.8011 -0.1315 32 31.995" xmlns="http://www.w3.org/2000/svg">
  <g transform="matrix(0.0583, 0, 0, 0.0583, 0, 0)">
    <path d="M368, 464L16, 464A16 16 0 0 0 0, 480L0, 496A16 16 0 0 0 16, 512L368, 512A16 16 0 0 0 384, 496L384, 480A16 16 0 0 0 368, 464zM346, 32L38, 32A38 38 0 0 0 0, 70L0, 209.43A32 32 0 0 0 11, 233.57L48, 265.78C48, 314.27 49.54, 358.78 36.15, 432L85.15, 432C98, 356.41 96, 309.53 96, 238.22L48, 196.44L48, 80L112, 80L112, 128L160, 128L160, 80L224, 80L224, 128L272, 128L272, 80L336, 80L336, 196.44L288, 238.22C288, 309 286, 356.6 298.86, 432L347.86, 432C334.47, 358.81 336, 314 336, 265.78L373, 233.57A32 32 0 0 0 384, 209.43L384, 70A38 38 0 0 0 346, 32zM192, 224A32 32 0 0 0 160, 256L160, 320L224, 320L224, 256A32 32 0 0 0 192, 224z" fill="#727272" fill-opacity="1" class="Black" />
  </g>
</svg>