<?xml version='1.0' encoding='UTF-8'?>
<svg viewBox="-2 -2 32 32" xmlns="http://www.w3.org/2000/svg">
  <g transform="matrix(0.0547, 0, 0, 0.0547, 0, 0)">
    <path d="M256, 112A56 56 0 1 0 200, 56A56 56 0 0 0 256, 112zM504.87, 184.16L476.36, 168.24A15.09 15.09 0 0 0 467.91, 165.65A17.59 17.59 0 0 0 454.07, 172.92A47.48 47.48 0 0 1 416, 192A50.79 50.79 0 0 1 406.84, 191.15C383.7, 186.86 368, 164.93 368, 141.4A13.4 13.4 0 0 0 354.6, 128L315.83, 128C309.83, 128 304.22, 132 302.97, 137.91A48 48 0 0 1 209.03, 137.91C207.78, 131.99 202.21, 128 196.17, 128L157.4, 128A13.4 13.4 0 0 0 144, 141.4C144, 167.09 125, 190.15 99.33, 191.89C98.21, 191.96 97.1, 192 96, 192A47.47 47.47 0 0 1 57.79, 172.74A17.17 17.17 0 0 0 44.18, 165.61A15.16 15.16 0 0 0 35.7, 168.2L7.13, 184.2A16 16 0 0 0 1.69, 204.67L109.84, 432L163, 432L69.91, 236.32A94.78 94.78 0 0 0 96, 240C98.17, 240 100.37, 239.93 102.57, 239.78C136.63, 237.47 165.67, 216.78 180.8, 187.56A95.81 95.81 0 0 0 331.09, 187.7C344.38, 213.7 368.6, 232.88 398.09, 238.34A98.41 98.41 0 0 0 416, 240A96.13 96.13 0 0 0 442, 236.45L349, 432L402.16, 432L510.31, 204.63A16 16 0 0 0 504.87, 184.16zM432, 464L80, 464A16 16 0 0 0 64, 480L64, 496A16 16 0 0 0 80, 512L432, 512A16 16 0 0 0 448, 496L448, 480A16 16 0 0 0 432, 464z" fill="#727272" fill-opacity="1" class="Black" />
  </g>
</svg>