<?xml version='1.0' encoding='UTF-8'?>
<svg viewBox="-7.2486 -2 32 32" xmlns="http://www.w3.org/2000/svg">
  <g transform="matrix(0.0547, 0, 0, 0.0547, 0, 0)">
    <path d="M281.6, 435.2L256, 416L256, 392A23.73 23.73 0 0 0 239.17, 369.45C235.34, 344.45 232.76, 319.31 232.76, 294.03L232.76, 256L240, 256A16 16 0 0 0 256, 240L256, 224A16 16 0 0 0 240, 208L236.9, 208L263.82, 127.59A24 24 0 0 0 241, 96L176.76, 96L176.76, 64L200.76, 64A8 8 0 0 0 208.76, 56L208.76, 40A8 8 0 0 0 200.76, 32L176.76, 32L176.76, 8A8 8 0 0 0 168.76, 0L152.76, 0A8 8 0 0 0 144.76, 8L144.76, 32L120.76, 32A8 8 0 0 0 112.76, 40L112.76, 56A8 8 0 0 0 120.76, 64L144.76, 64L144.76, 96L80.5, 96A24 24 0 0 0 57.72, 127.59L84.72, 208L80, 208A16 16 0 0 0 64, 224L64, 240A16 16 0 0 0 80, 256L88.76, 256L88.76, 294C88.76, 319.17 86.2, 344.23 82.4, 369.1C71.93, 371.71 64, 380.73 64, 392L64, 416L38.4, 435.2A16 16 0 0 0 32, 448L32, 496A16 16 0 0 0 48, 512L272, 512A16 16 0 0 0 288, 496L288, 448A16 16 0 0 0 281.6, 435.2zM207.72, 144L186.2, 208L135.32, 208L113.82, 144zM190.43, 368L131.1, 368C134.47, 343.47 136.76, 318.8 136.76, 294L136.76, 256L184.76, 256L184.76, 294C184.76, 318.8 187.05, 343.47 190.43, 368zM80, 464L112, 440L112, 416L208, 416L208, 440L240, 464z" fill="#727272" fill-opacity="1" class="Black" />
  </g>
</svg>