<?xml version='1.0' encoding='UTF-8'?>
<svg viewBox="-7.3975 4.4075 32 32" xmlns="http://www.w3.org/2000/svg">
  <g transform="matrix(0.0672, 0, 0, 0.0672, 0, 0)">
    <path d="M249.6, 435.2L224, 416L224, 392A24 24 0 0 0 200, 368L202.61, 368C201.07, 352 200, 336 200, 320L200, 288L208, 288A16 16 0 0 0 224, 272L224, 256A15.76 15.76 0 0 0 210.39, 240.54A95 95 0 0 0 224, 192A96 96 0 1 0 45.58, 240.49A15.79 15.79 0 0 0 32, 256L32, 272A16 16 0 0 0 48, 288L56, 288L56, 320C56, 336 54.93, 352 53.39, 368L56, 368A24 24 0 0 0 32, 392L32, 416L6.4, 435.2A16 16 0 0 0 0, 448L0, 496A16 16 0 0 0 16, 512L240, 512A16 16 0 0 0 256, 496L256, 448A16 16 0 0 0 249.6, 435.2zM152, 288L152, 318C152, 334.69 153, 351.35 154.54, 368L101.46, 368C103, 351.38 104, 334.72 104, 318L104, 288zM128, 144A48 48 0 1 1 80, 192A48.05 48.05 0 0 1 128, 144zM48, 464L80, 440L80, 416L176, 416L176, 440L208, 464z" fill="#727272" fill-opacity="1" class="Black" />
  </g>
</svg>