<?xml version='1.0' encoding='UTF-8'?>
<svg viewBox="-6.0013 2 32 32" xmlns="http://www.w3.org/2000/svg">
  <g transform="matrix(0.0625, 0, 0, 0.0625, 0, 0)">
    <path d="M89.69, 195.2A13.87 13.87 0 1 0 75.88, 181.33A13.84 13.84 0 0 0 89.69, 195.2zM313.6, 435.2L288, 416L288, 385.87A78.67 78.67 0 0 0 304, 338.74L304, 232.61C304, 139.64 228.38, 64 135.42, 64L55.42, 64A55.65 55.65 0 0 0 3.11, 138.15A62.19 62.19 0 0 0 0.05, 157.71L0.05, 242.55A67.88 67.88 0 0 0 37.05, 302.98Q21.29, 325.07 16.85, 354.5A75.61 75.61 0 0 0 32, 411.57L32, 416L6.4, 435.2A16 16 0 0 0 0, 448L0, 496A16 16 0 0 0 16, 512L304, 512A16 16 0 0 0 320, 496L320, 448A16 16 0 0 0 313.6, 435.2zM55.43, 112L135.43, 112C201.74, 112 256, 166.27 256, 232.61L256, 338.74A32 32 0 0 1 246.63, 361.37L240, 368L64.8, 368C64.61, 365.86 64.02, 363.77 64.35, 361.6C68.69, 332.6 85.83, 315.71 110.53, 304.6L145.38, 293.74A24.76 24.76 0 0 0 160, 271.19L160, 222.93L132.88, 227.63A14.88 14.88 0 0 0 125.16, 237.31L119.48, 256.26A19.76 19.76 0 0 1 108, 268.93C102.46, 271.15 97.78, 273.54 92.52, 273.54A18.67 18.67 0 0 1 84.81, 271.8L59.81, 260.65A19.83 19.83 0 0 1 48, 242.55L48, 157.71C48, 150.34 52.39, 147.16 57.85, 141.71L49.14, 124.1C45.84, 117.47 50.28, 112 55.43, 112zM48, 464L80, 440L80, 416L240, 416L240, 440L272, 464z" fill="#727272" fill-opacity="1" class="Black" />
  </g>
</svg>