<?xml version='1.0' encoding='UTF-8'?>
<svg viewBox="-1.8361 0.1885 32 31.9975" xmlns="http://www.w3.org/2000/svg">
  <g transform="matrix(0.0632, 0, 0, 0.0632, 0, 0)">
    <path d="M390.3, 473.9L180.9, 264.5C176.2, 259.8 176.2, 252.2 180.9, 247.5L390.3, 38.1C395, 33.4 402.6, 33.4 407.3, 38.1L427.1, 57.9C431.8, 62.6 431.8, 70.2 427.1, 74.9L246.4, 256L427.1, 437.1C431.8, 441.8 431.8, 449.4 427.1, 454.1L407.3, 473.9C402.6, 478.6 395, 478.6 390.3, 473.9zM247.3, 473.9L267.1, 454.1C271.8, 449.4 271.8, 441.8 267.1, 437.1L86.4, 256L267.1, 74.9C271.8, 70.2 271.8, 62.6 267.1, 57.9L247.3, 38.1C242.6, 33.4 235, 33.4 230.3, 38.1L20.9, 247.5C16.2, 252.2 16.2, 259.8 20.9, 264.5L230.3, 473.9C235, 478.6 242.6, 478.6 247.3, 473.9z" fill="#727272" fill-opacity="1" class="Black" />
  </g>
</svg>