<?xml version='1.0' encoding='UTF-8'?>
<svg viewBox="-1.5477 -1.5477 32 32" xmlns="http://www.w3.org/2000/svg">
  <g transform="matrix(0.9991, 0, 0, 0.9991, 0, 0)">
    <g transform="matrix(0.0565, 0, 0, 0.0565, 0, 0)">
      <path d="M256, 8C119, 8 8, 119 8, 256C8, 393 119, 504 256, 504C393, 504 504, 393 504, 256C504, 119 393, 8 256, 8zM256, 456C145.5, 456 56, 366.5 56, 256C56, 145.5 145.5, 56 256, 56C366.5, 56 456, 145.5 456, 256C456, 366.5 366.5, 456 256, 456zM264.5, 348.5L387.3, 225.7C392, 221 392, 213.4 387.3, 208.7L364.7, 186.1C360, 181.4 352.4, 181.4 347.7, 186.1L256, 277.8L164.3, 186.1C159.6, 181.4 152, 181.4 147.3, 186.1L124.7, 208.7C120, 213.4 120, 221 124.7, 225.7L247.5, 348.5C252.2, 353.2 259.8, 353.2 264.5, 348.5z" fill="#727272" fill-opacity="1" class="Black" />
    </g>
  </g>
</svg>