<?xml version='1.0' encoding='UTF-8'?>
<svg viewBox="-1.8348 0.1872 31.9975 32" xmlns="http://www.w3.org/2000/svg">
  <g transform="matrix(0.0632, 0, 0, 0.0632, 0, 0)">
    <path d="M6.1, 422.3L215.5, 212.9C220.2, 208.2 227.8, 208.2 232.5, 212.9L441.9, 422.3C446.6, 427 446.6, 434.6 441.9, 439.3L422.1, 459.1C417.4, 463.8 409.8, 463.8 405.1, 459.1L224, 278.4L42.9, 459.1C38.2, 463.8 30.6, 463.8 25.9, 459.1L6.1, 439.3C1.4, 434.6 1.4, 427 6.1, 422.3zM6.1, 279.3L25.9, 299.1C30.6, 303.8 38.2, 303.8 42.9, 299.1L224, 118.4L405.1, 299.1C409.8, 303.8 417.4, 303.8 422.1, 299.1L441.9, 279.3C446.6, 274.6 446.6, 267 441.9, 262.3L232.5, 52.9C227.8, 48.2 220.2, 48.2 215.5, 52.9L6.1, 262.3C1.4, 267 1.4, 274.6 6.1, 279.3z" fill="#727272" fill-opacity="1" class="Black" />
  </g>
</svg>