<?xml version='1.0' encoding='UTF-8'?>
<svg viewBox="-2 0 32 32" xmlns="http://www.w3.org/2000/svg">
  <g transform="matrix(0.0625, 0, 0, 0.0625, 0, 0)">
    <path d="M215.5, 348.5L92.7, 225.7C88, 221 88, 213.4 92.7, 208.7L115.3, 186.1C120, 181.4 127.6, 181.4 132.3, 186.1L224, 277.8L315.7, 186.1C320.4, 181.4 328, 181.4 332.7, 186.1L355.3, 208.7C360, 213.4 360, 221 355.3, 225.7L232.5, 348.5C227.8, 353.2 220.2, 353.2 215.5, 348.5zM448, 80L448, 432C448, 458.5 426.5, 480 400, 480L48, 480C21.5, 480 0, 458.5 0, 432L0, 80C0, 53.5 21.5, 32 48, 32L400, 32C426.5, 32 448, 53.5 448, 80zM400, 426L400, 86C400, 82.7 397.3, 80 394, 80L54, 80C50.7, 80 48, 82.7 48, 86L48, 426C48, 429.3 50.7, 432 54, 432L394, 432C397.3, 432 400, 429.3 400, 426z" fill="#727272" fill-opacity="1" class="Black" />
  </g>
</svg>