<?xml version='1.0' encoding='UTF-8'?>
<svg viewBox="-1.5477 -1.5477 32 32" xmlns="http://www.w3.org/2000/svg">
  <g transform="matrix(0.9991, 0, 0, 0.9991, 0, 0)">
    <g transform="matrix(0.0565, 0, 0, 0.0565, 0, 0)">
      <path d="M8, 256C8, 393 119, 504 256, 504C393, 504 504, 393 504, 256C504, 119 393, 8 256, 8C119, 8 8, 119 8, 256zM456, 256C456, 366.5 366.5, 456 256, 456C145.5, 456 56, 366.5 56, 256C56, 145.5 145.5, 56 256, 56C366.5, 56 456, 145.5 456, 256zM348.5, 264.5L225.7, 387.3C221, 392 213.4, 392 208.7, 387.3L186.1, 364.7C181.4, 360 181.4, 352.4 186.1, 347.7L277.8, 256L186.1, 164.3C181.4, 159.6 181.4, 152 186.1, 147.3L208.7, 124.7C213.4, 120 221, 120 225.7, 124.7L348.5, 247.5C353.2, 252.2 353.2, 259.8 348.5, 264.5z" fill="#727272" fill-opacity="1" class="Black" />
    </g>
  </g>
</svg>