<?xml version='1.0' encoding='UTF-8'?>
<svg viewBox="-1.5477 -1.5477 32 32" xmlns="http://www.w3.org/2000/svg">
  <g transform="matrix(0.9991, 0, 0, 0.9991, 0, 0)">
    <g transform="matrix(0.0565, 0, 0, 0.0565, 0, 0)">
      <path d="M504, 256C504, 119 393, 8 256, 8C119, 8 8, 119 8, 256C8, 393 119, 504 256, 504C393, 504 504, 393 504, 256zM56, 256C56, 145.5 145.5, 56 256, 56C366.5, 56 456, 145.5 456, 256C456, 366.5 366.5, 456 256, 456C145.5, 456 56, 366.5 56, 256zM163.5, 247.5L286.3, 124.7C291, 120 298.6, 120 303.3, 124.7L325.9, 147.3C330.6, 152 330.6, 159.6 325.9, 164.3L234.2, 256L325.9, 347.7C330.6, 352.4 330.6, 360 325.9, 364.7L303.3, 387.3C298.6, 392 291, 392 286.3, 387.3L163.5, 264.5C158.8, 259.8 158.8, 252.2 163.5, 247.5z" fill="#727272" fill-opacity="1" class="Black" />
    </g>
  </g>
</svg>