<?xml version='1.0' encoding='UTF-8'?>
<svg viewBox="-1.9999 -1.9999 32 32" xmlns="http://www.w3.org/2000/svg">
  <g transform="matrix(0.0547, 0, 0, 0.0547, 0, 0)">
    <path d="M480, 0L32, 0C14.3, 0 0, 14.3 0, 32L0, 192C0, 209.7 14.3, 224 32, 224L32, 480C32, 497.7 46.3, 512 64, 512L448, 512C465.7, 512 480, 497.7 480, 480L480, 224C497.7, 224 512, 209.7 512, 192L512, 32C512, 14.3 497.7, 0 480, 0zM304, 464L80, 464L80, 384L304, 384L304, 464zM80, 336L80, 224L160, 224L160, 336L80, 336zM432, 464L352, 464L352, 384L432, 384L432, 464zM432, 336L208, 336L208, 224L432, 224L432, 336zM464, 176L48, 176L48, 48L464, 48L464, 176z" fill="#727272" fill-opacity="1" class="Black" />
  </g>
</svg>