<?xml version='1.0' encoding='UTF-8'?>
<svg viewBox="-1.5477 -1.5477 32 32" xmlns="http://www.w3.org/2000/svg">
  <g transform="matrix(0.9991, 0, 0, 0.9991, 0, 0)">
    <g transform="matrix(0.0565, 0, 0, 0.0565, 0, 0)">
      <path d="M256, 8C119, 8 8, 119 8, 256C8, 393 119, 504 256, 504C393, 504 504, 393 504, 256C504, 119 393, 8 256, 8zM256, 456C145.5, 456 56, 366.5 56, 256C56, 145.5 145.5, 56 256, 56C366.5, 56 456, 145.5 456, 256C456, 366.5 366.5, 456 256, 456z" fill="#727272" fill-opacity="1" class="Black" />
    </g>
  </g>
</svg>