<?xml version='1.0' encoding='UTF-8'?>
<svg viewBox="-2 -5.1501 32 32" xmlns="http://www.w3.org/2000/svg">
  <g transform="matrix(0.9988, 0, 0, 0.9988, 0, 0)">
    <g transform="matrix(0.0438, 0, 0, 0.0438, 0, 0)">
      <path d="M616, 112A23.7 23.7 0 0 0 602.72, 116L536.72, 160L480, 160L480, 128L504, 128A8 8 0 0 0 512, 120L512, 104A8 8 0 0 0 504, 96L232, 96A8 8 0 0 0 224, 104L224, 120A8 8 0 0 0 232, 128L256, 128L256, 160L101.2, 160A31.92 31.92 0 0 0 91.08, 161.64L21.88, 184.71A32 32 0 0 0 0, 215.06L0, 296.94A32 32 0 0 0 21.88, 327.29L91.08, 350.36A31.92 31.92 0 0 0 101.2, 352L536.73, 352L602.73, 396A24 24 0 0 0 640, 376L640, 136A24 24 0 0 0 616, 112zM384, 128L448, 128L448, 160L384, 160zM288, 128L352, 128L352, 160L288, 160zM592, 331.15L551.27, 304L103.79, 304L48, 285.4L48, 226.6L103.79, 208L551.27, 208L592, 180.84zM464, 232A24 24 0 1 0 488, 256A24 24 0 0 0 464, 232zM368, 232A24 24 0 1 0 392, 256A24 24 0 0 0 368, 232zM272, 232A24 24 0 1 0 296, 256A24 24 0 0 0 272, 232z" fill="#727272" fill-opacity="1" class="Black" />
    </g>
  </g>
</svg>