<?xml version='1.0' encoding='UTF-8'?>
<svg viewBox="-1.9986 -1.9974 32 31.9975" xmlns="http://www.w3.org/2000/svg">
  <g transform="matrix(0.0547, 0, 0, 0.0547, 0, 0)">
    <path d="M7.11, 224.51C2.12, 222.14 -2.28, 228.6 1.62, 232.51L86.73, 317.64C92.73, 323.64 96.1, 331.78 96.1, 340.27L96.1, 384L139.83, 384C148.32, 384 156.45, 387.37 162.45, 393.37L279.58, 510.53C283.44, 514.39 289.89, 509.97 287.56, 505.04C206.47, 333.11 63.46, 251.26 7.11, 224.51zM246.69, 29.63C252.69, 35.63 256.06, 43.77 256.06, 52.26L256.06, 96L299.79, 96C308.28, 96 316.41, 99.37 322.41, 105.37L374.66, 157.63C380.66, 163.63 384.03, 171.77 384.03, 180.26L384.03, 224L427.75, 224C436.24, 224 444.37, 227.37 450.37, 233.37L503.51, 286.53C507.37, 290.39 513.82, 285.97 511.49, 281.04C430.42, 109.11 287.41, 27.26 231.05, 0.51C226.06, -1.86 221.66, 4.6 225.56, 8.51L246.69, 29.63zM508.94, 466.53L507.5, 463.5C453.42, 347.77 321.51, 134.06 45.64, 3.14C31.74, -3.47 15.02, 0.89 6.06, 13.53C-2.97, 26.3 -1.51, 43.59 7.8, 52.74L152.08, 232.44L152.08, 296L214.13, 296L280.05, 361.94L280.05, 424L344.47, 424L459.44, 504.47A31.741 31.741 0 0 0 479.94, 511.95C486.38, 511.95 492.81, 510.03 498.4, 506.09C511.09, 497.16 515.53, 480.53 508.94, 466.53zM359.6, 376L328.04, 376L328.04, 342.06L234, 248L200.07, 248L200.07, 215.56L92.85, 82.16C277.03, 188.93 382.78, 335.35 435.9, 429.43L359.6, 376z" fill="#727272" fill-opacity="1" class="Black" />
  </g>
</svg>