<?xml version='1.0' encoding='UTF-8'?>
<svg viewBox="-5.5003 -2 32 32" xmlns="http://www.w3.org/2000/svg">
  <g transform="matrix(0.0547, 0, 0, 0.0547, 0, 0)">
    <path d="M280, 240L168, 240C163.6, 240 160, 243.6 160, 248L160, 264C160, 268.4 163.6, 272 168, 272L280, 272C284.4, 272 288, 268.4 288, 264L288, 248C288, 243.6 284.4, 240 280, 240zM280, 336L168, 336C163.6, 336 160, 339.6 160, 344L160, 360C160, 364.4 163.6, 368 168, 368L280, 368C284.4, 368 288, 364.4 288, 360L288, 344C288, 339.6 284.4, 336 280, 336zM112, 232C98.7, 232 88, 242.7 88, 256C88, 269.3 98.7, 280 112, 280C125.3, 280 136, 269.3 136, 256C136, 242.7 125.3, 232 112, 232zM112, 328C98.7, 328 88, 338.7 88, 352C88, 365.3 98.7, 376 112, 376C125.3, 376 136, 365.3 136, 352C136, 338.7 125.3, 328 112, 328zM336, 64L256, 64C256, 28.7 227.3, 0 192, 0C156.7, 0 128, 28.7 128, 64L48, 64C21.5, 64 0, 85.5 0, 112L0, 464C0, 490.5 21.5, 512 48, 512L336, 512C362.5, 512 384, 490.5 384, 464L384, 112C384, 85.5 362.5, 64 336, 64zM192, 48C200.8, 48 208, 55.2 208, 64C208, 72.8 200.8, 80 192, 80C183.2, 80 176, 72.8 176, 64C176, 55.2 183.2, 48 192, 48zM336, 456C336, 460.4 332.4, 464 328, 464L56, 464C51.6, 464 48, 460.4 48, 456L48, 120C48, 115.6 51.6, 112 56, 112L96, 112L96, 144C96, 152.8 103.2, 160 112, 160L272, 160C280.8, 160 288, 152.8 288, 144L288, 112L328, 112C332.4, 112 336, 115.6 336, 120L336, 456z" fill="#727272" fill-opacity="1" class="Black" />
  </g>
</svg>