<?xml version='1.0' encoding='UTF-8'?>
<svg viewBox="-1.5477 -1.5477 32 32" xmlns="http://www.w3.org/2000/svg">
  <g transform="matrix(0.9991, 0, 0, 0.9991, 0, 0)">
    <g transform="matrix(0.0565, 0, 0, 0.0565, 0, 0)">
      <path d="M256, 8C119, 8 8, 119 8, 256C8, 393 119, 504 256, 504C393, 504 504, 393 504, 256C504, 119 393, 8 256, 8zM256, 456C145.5, 456 56, 366.5 56, 256C56, 145.5 145.5, 56 256, 56C366.5, 56 456, 145.5 456, 256C456, 366.5 366.5, 456 256, 456zM317.8, 351.6L232.9, 289.9C229.8, 287.6 228, 284 228, 280.2L228, 116C228, 109.4 233.4, 104 240, 104L272, 104C278.6, 104 284, 109.4 284, 116L284, 257.7L350.8, 306.3C356.2, 310.2 357.3, 317.7 353.4, 323.1L334.6, 349C330.7, 354.3 323.2, 355.5 317.8, 351.6z" fill="#727272" fill-opacity="1" class="Black" />
    </g>
  </g>
</svg>