<?xml version='1.0' encoding='UTF-8'?>
<svg viewBox="-2 -2 32 32" xmlns="http://www.w3.org/2000/svg">
  <g transform="matrix(0.0547, 0, 0, 0.0547, 0, 0)">
    <path d="M464, 0L144, 0C117.49, 0 96, 21.49 96, 48L96, 96L48, 96C21.49, 96 0, 117.49 0, 144L0, 464C0, 490.51 21.49, 512 48, 512L368, 512C394.51, 512 416, 490.51 416, 464L416, 416L464, 416C490.51, 416 512, 394.51 512, 368L512, 48C512, 21.49 490.51, 0 464, 0zM362, 464L54, 464A6 6 0 0 1 48, 458L48, 150A6 6 0 0 1 54, 144L96, 144L96, 368C96, 394.51 117.49, 416 144, 416L368, 416L368, 458A6 6 0 0 1 362, 464zM458, 368L150, 368A6 6 0 0 1 144, 362L144, 54A6 6 0 0 1 150, 48L458, 48A6 6 0 0 1 464, 54L464, 362A6 6 0 0 1 458, 368z" fill="#727272" fill-opacity="1" class="Black" />
  </g>
</svg>