<?xml version='1.0' encoding='UTF-8'?>
<svg viewBox="-2 -2 32 32" xmlns="http://www.w3.org/2000/svg">
  <g transform="matrix(0.0547, 0, 0, 0.0547, 0, 0)">
    <path d="M48, 368C39.2, 368 32, 375.2 32, 384L32, 464C32, 472.8 39.2, 480 48, 480C56.8, 480 64, 472.8 64, 464L64, 384C64, 375.2 56.8, 368 48, 368zM144, 400C135.2, 400 128, 407.2 128, 416L128, 496C128, 504.8 135.2, 512 144, 512C152.8, 512 160, 504.8 160, 496L160, 416C160, 407.2 152.8, 400 144, 400zM240, 368C231.2, 368 224, 375.2 224, 384L224, 464C224, 472.8 231.2, 480 240, 480C248.8, 480 256, 472.8 256, 464L256, 384C256, 375.2 248.8, 368 240, 368zM336, 400C327.2, 400 320, 407.2 320, 416L320, 496C320, 504.8 327.2, 512 336, 512C344.8, 512 352, 504.8 352, 496L352, 416C352, 407.2 344.8, 400 336, 400zM432, 368C423.2, 368 416, 375.2 416, 384L416, 464C416, 472.8 423.2, 480 432, 480C440.8, 480 448, 472.8 448, 464L448, 384C448, 375.2 440.8, 368 432, 368zM410.7, 104.2C397.2, 61.8 358, 32 312, 32C298.5, 32 285.2, 34.6 272.8, 39.7C250.3, 14.5 218.4, 0 184, 0C120, 0 67.6, 50.3 64.2, 113.4C25.6, 130.4 0, 168.5 0, 212C0, 271.5 48.4, 320 108, 320L404, 320C463.6, 320 512, 271.5 512, 212C512, 154.7 467.1, 107.7 410.7, 104.2zM404, 272L108, 272C74.9, 272 48, 245.1 48, 212C48, 184 67.1, 160 94.4, 153.7L115.2, 148.9L112.4, 124C112.2, 122.7 112, 121.4 112, 120C112, 80.3 144.3, 48 184, 48C209.2, 48 232.2, 61.1 245.4, 83.1L258.7, 105.2L279.8, 90.3C289.4, 83.6 300.5, 80 312, 80C340.6, 80 364.4, 101.7 367.3, 130.4L369.5, 152L404, 152C437.1, 152 464, 178.9 464, 212C464, 245.1 437.1, 272 404, 272z" fill="#727272" fill-opacity="1" class="Black" />
  </g>
</svg>