<?xml version='1.0' encoding='UTF-8'?>
<svg viewBox="-2 -4.8005 32 32" xmlns="http://www.w3.org/2000/svg">
  <g transform="matrix(1.0011, 0, 0, 1.0011, 0, 0)">
    <g transform="matrix(0.0437, 0, 0, 0.0437, 0, 0)">
      <path d="M268.5, 418.1C260.9, 413.8 251.1, 416.3 246.7, 424.1L210.1, 488.1C205.7, 495.8 208.4, 505.5 216.1, 509.9C218.6, 511.3 221.3, 512 224, 512C229.5, 512 234.9, 509.1 237.9, 503.9L274.5, 439.9C278.8, 432.2 276.2, 422.5 268.5, 418.1zM172.5, 418.1C164.9, 413.8 155.1, 416.3 150.7, 424.1L114.1, 488.1C109.7, 495.8 112.4, 505.5 120.1, 509.9C122.6, 511.3 125.3, 512 128, 512C133.5, 512 138.9, 509.1 141.9, 503.9L178.5, 439.9C182.8, 432.2 180.2, 422.5 172.5, 418.1zM76.5, 418.1C68.9, 413.8 59.1, 416.3 54.7, 424.1L18.1, 488.1C13.7, 495.8 16.4, 505.5 24.1, 509.9C26.6, 511.3 29.3, 512 32, 512C37.5, 512 42.9, 509.1 45.9, 503.9L82.5, 439.9C86.8, 432.2 84.2, 422.5 76.5, 418.1zM364.5, 418.1C356.9, 413.8 347.1, 416.3 342.7, 424.1L306.1, 488.1C301.7, 495.8 304.4, 505.5 312.1, 509.9C314.6, 511.3 317.3, 512 320, 512C325.5, 512 330.9, 509.1 333.9, 503.9L370.5, 439.9C374.8, 432.2 372.2, 422.5 364.5, 418.1zM363.4, 183.4C351.4, 146.6 316.7, 120 276, 120C272.9, 120 269.9, 120.2 266.9, 120.5C245.3, 104.7 219.2, 96 192, 96C139.6, 96 94.4, 127.3 74.8, 173.2C31.4, 187.3 0, 228 0, 276C0, 335.6 48.4, 384 108, 384L308, 384C367.6, 384 416, 335.6 416, 276C416, 237.2 395.2, 202.4 363.4, 183.4zM308, 336L108, 336C74.9, 336 48, 309.1 48, 276C48, 242.9 74.9, 216 108, 216C109.6, 216 111.2, 216.4 112.8, 216.5C116.6, 175.9 150.4, 144 192, 144C217.2, 144 239.4, 155.9 254.1, 174.1C260.6, 170.3 268, 168 276, 168C300.3, 168 320, 187.7 320, 212C320, 213.8 319.7, 215.4 319.5, 217.2C347.1, 222.6 368, 246.8 368, 276C368, 309.1 341.1, 336 308, 336zM637.8, 236.7C634, 228.8 626, 223.7 617.3, 223.7L615.8, 223.7L613, 224.1C606.9, 225.3 600.7, 225.9 594.6, 225.9C541.4, 225.9 498.1, 182.5 498.1, 129.1C498.1, 94.4 516.9, 62.1 547.1, 44.9C555.5, 40.1 559.9, 30.9 558.3, 21.3C556.7, 11.8 549.5, 4.5 540, 2.7C530.3, 0.9 520.5, 0 510.7, 0C437.1, 0 375.6, 50.3 357.1, 118.2C370.9, 130.1 382.1, 145 389.7, 162.3C390.3, 162.7 390.7, 163.2 391.3, 163.6C391.3, 162.4 390.9, 161.2 390.9, 160C390.9, 101.1 433.5, 52 489.5, 41.9C469.6, 66.1 458.2, 96.8 458.2, 129C458.2, 196.4 507, 252.5 571.1, 263.8C553.1, 274.3 532.4, 280 510.9, 280C487.5, 280 465.8, 273 447.3, 261.3C447.8, 266.2 448.2, 271.1 448.2, 276C448.2, 286.1 446.9, 295.8 444.9, 305.3C465.1, 314.5 487.3, 320 511, 320C559.4, 320 604.6, 298.4 635.2, 260.8C640.5, 253.9 641.6, 244.7 637.8, 236.7z" fill="#727272" fill-opacity="1" class="Black" />
    </g>
  </g>
</svg>