<?xml version='1.0' encoding='UTF-8'?>
<svg viewBox="-1.9998 -4.8023 32 32" xmlns="http://www.w3.org/2000/svg">
  <g transform="matrix(1.0009, 0, 0, 1.0009, 0, 0)">
    <g transform="matrix(0.0437, 0, 0, 0.0437, 0, 0)">
      <path d="M543.69, 200.09A111.8 111.8 0 0 0 409.59, 98.3A176 176 0 0 0 99.69, 171.8A160 160 0 0 0 160, 480L496, 480A144 144 0 0 0 543.69, 200.09zM496, 432L160, 432A112 112 0 0 1 144, 209.09L144, 208A128 128 0 0 1 390.41, 159.41A64 64 0 0 1 487.19, 240.41A81.06 81.06 0 0 1 496, 240A96 96 0 0 1 496, 432zM363.19, 176.75L235.19, 224A16 16 0 0 0 224, 239.25L224, 338A69.27 69.27 0 0 0 208, 336C181.5, 336 160, 350.33 160, 368C160, 385.67 181.5, 400 208, 400C234.5, 400 256, 385.67 256, 368L256, 283.16L352, 245.64L352, 306A69.27 69.27 0 0 0 336, 304C309.5, 304 288, 318.33 288, 336C288, 353.67 309.5, 368 336, 368C362.5, 368 384, 353.67 384, 336L384, 192A16 16 0 0 0 363.19, 176.75z" fill="#727272" fill-opacity="1" class="Black" />
    </g>
  </g>
</svg>