<?xml version='1.0' encoding='UTF-8'?>
<svg viewBox="-2 -2 32 32" xmlns="http://www.w3.org/2000/svg">
  <g transform="matrix(0.0547, 0, 0, 0.0547, 0, 0)">
    <path d="M88, 374.2C75.2, 418.6 48, 430.6 48, 461.9C48, 489.6 69.5, 512 96, 512C122.5, 512 144, 489.6 144, 461.9C144, 430.5 116.8, 418.8 104, 374.2C101.8, 366.1 90.5, 365.7 88, 374.2zM248, 374.2C235.2, 418.6 208, 430.6 208, 461.9C208, 489.6 229.5, 512 256, 512C282.5, 512 304, 489.6 304, 461.9C304, 430.5 276.8, 418.8 264, 374.2C261.8, 366.1 250.5, 365.7 248, 374.2zM408, 374.2C395.2, 418.6 368, 430.6 368, 461.9C368, 489.6 389.5, 512 416, 512C442.5, 512 464, 489.6 464, 461.9C464, 430.5 436.8, 418.8 424, 374.2C421.8, 366.1 410.5, 365.7 408, 374.2zM410.7, 104.2C397.2, 61.8 358, 32 312, 32C298.5, 32 285.2, 34.6 272.8, 39.7C250.3, 14.5 218.4, 0 184, 0C120, 0 67.6, 50.3 64.2, 113.4C25.6, 130.4 0, 168.5 0, 212C0, 271.5 48.4, 320 108, 320L404, 320C463.6, 320 512, 271.5 512, 212C512, 154.7 467.1, 107.7 410.7, 104.2zM404, 272L108, 272C74.9, 272 48, 245.1 48, 212C48, 184 67.1, 160 94.4, 153.7L115.2, 148.9L112.4, 124C112.2, 122.7 112, 121.4 112, 120C112, 80.3 144.3, 48 184, 48C209.2, 48 232.2, 61.1 245.4, 83.1L258.7, 105.2L279.8, 90.3C289.4, 83.6 300.5, 80 312, 80C340.6, 80 364.4, 101.7 367.3, 130.4L369.5, 152L404, 152C437.1, 152 464, 178.9 464, 212C464, 245.1 437.1, 272 404, 272z" fill="#727272" fill-opacity="1" class="Black" />
  </g>
</svg>