<?xml version='1.0' encoding='UTF-8'?>
<svg viewBox="-2 -4.7992 32 32" xmlns="http://www.w3.org/2000/svg">
  <g transform="matrix(0.9988, 0, 0, 0.9988, 0, 0)">
    <g transform="matrix(0.0438, 0, 0, 0.0438, 0, 0)">
      <path d="M543.7, 200.1C539.7, 142.1 491.4, 96 432, 96C424.4, 96 416.9, 96.8 409.6, 98.3C377.7, 58.3 328.1, 32 272, 32C187.4, 32 116.5, 91.7 99.7, 171.8C39.9, 196.1 0, 254.4 0, 320C0, 408.4 71.6, 480 160, 480L496, 480C575.5, 480 640, 415.5 640, 336C640, 274.2 600.8, 220.2 543.7, 200.1zM496, 432L160, 432C98.1, 432 48, 381.9 48, 320C48, 263.6 89.7, 216.9 144, 209.1L144, 208C144, 137.3 201.3, 80 272, 80C325.5, 80 371.3, 112.8 390.4, 159.4C401.6, 149.8 416.1, 144 432, 144C467.3, 144 496, 172.7 496, 208C496, 219.8 492.8, 230.9 487.2, 240.4C490.1, 240.1 493.1, 240 496, 240C549, 240 592, 283 592, 336C592, 389 549, 432 496, 432zM387, 256L320, 256L320, 172C320, 165.4 314.6, 160 308, 160L268, 160C261.4, 160 256, 165.4 256, 172L256, 256L189, 256C178.3, 256 173, 268.9 180.5, 276.5L279.5, 375.5C284.2, 380.2 291.8, 380.2 296.5, 375.5L395.5, 276.5C403.1, 268.9 397.7, 256 387, 256z" fill="#727272" fill-opacity="1" class="Black" />
    </g>
  </g>
</svg>