<?xml version='1.0' encoding='UTF-8'?>
<svg viewBox="-2 -4.7992 32 32" xmlns="http://www.w3.org/2000/svg">
  <g transform="matrix(0.9988, 0, 0, 0.9988, 0, 0)">
    <g transform="matrix(0.0438, 0, 0, 0.0438, 0, 0)">
      <path d="M640, 236.8C640, 186 601.5, 143.9 552.2, 138.2C532, 103.4 494.4, 80 452, 80C406, 80 366.1, 106.4 347.5, 146C315.8, 159.8 293.1, 189.6 288.9, 225C266.6, 237.7 248.2, 256.8 236.8, 280.3C191.4, 297.6 160, 341.1 160, 392C160, 458.2 213.8, 512 280, 512L520, 512C586.2, 512 640, 458.2 640, 392C640, 360 627.2, 331.2 606.7, 309.7C626.8, 291.6 640, 266 640, 236.8zM520, 464L280, 464C240.2, 464 208, 431.8 208, 392C208, 354.4 236.9, 324 273.5, 320.7C280.7, 283.9 313, 256 352, 256C375.9, 256 397.1, 266.7 411.8, 283.3C422.1, 276.2 434.6, 272 448, 272C478.2, 272 503.3, 292.9 510, 321C513.3, 320.5 516.5, 320 520, 320C559.8, 320 592, 352.2 592, 392C592, 431.8 559.8, 464 520, 464zM565.6, 281.3C557.8, 278.1 549.7, 275.3 541.1, 273.8C520.8, 243.3 486.4, 224 448, 224C438.4, 224 428.8, 225.2 419.7, 227.6C399.5, 214.9 376.1, 208 352, 208C349.8, 208 347.8, 208.4 345.6, 208.5C354.4, 195.6 368.4, 186.6 385, 185.9C389.9, 153.2 417.9, 128.1 452, 128.1C487.8, 128.1 516.8, 155.9 519.5, 191C526, 187.9 533.1, 185.7 540.8, 185.7C569.1, 185.7 592, 208.6 592, 236.9C592, 256 581.3, 272.6 565.6, 281.3zM115, 297.4L121, 266.3L94.8, 248.5L57.8, 223.4L94.8, 198.3L121, 180.5L115, 149.4L106.5, 105.5L150.2, 114L181.4, 120L199.2, 93.7L224, 57L224, 58L248.9, 94.9L266.7, 121.2L297.9, 115.2L333, 108.4C346.1, 90.4 362.9, 75.9 382.2, 65.6C375.6, 59.1 366.8, 55.4 357.6, 55.4C355.4, 55.4 353.1, 55.6 350.8, 56L288.8, 68L253.4, 15.6C246.7, 5.8 235.8, 0 224, 0C212.6, 0 201.3, 4.9 194.7, 14.7L159.3, 67.1L97.3, 55.1C95, 54.7 92.8, 54.4 90.5, 54.4C81.2, 54.4 72.2, 58.1 65.5, 64.8C57.2, 73.2 53.6, 85 55.8, 96.6L67.8, 158.7L15.5, 194.2C5.8, 200.8 0, 211.8 0, 223.5C0, 235.3 5.8, 246.2 15.6, 252.8L67.9, 288.2L55.9, 350.3C53.7, 361.9 57.3, 373.8 65.6, 382.1C72.3, 388.8 81.2, 392.5 90.6, 392.5C92.8, 392.5 95.1, 392.3 97.4, 391.9L128.5, 385.9C129.2, 368 132.9, 350.8 139.3, 334.9L106.6, 341.2L115, 297.4zM224, 184C239.5, 184 252.7, 193.1 259.3, 206.1C259.6, 205.9 259.9, 205.7 260.1, 205.5C264.3, 188.4 271.7, 172.4 282.1, 158.4C266.6, 144.7 246.4, 136 224, 136C175.5, 136 136, 175.5 136, 224C136, 250.7 148.2, 274.3 167, 290.5C178.1, 278.2 191.4, 267.8 206.5, 259.5C193.3, 253 184, 239.7 184, 224C184, 201.9 201.9, 184 224, 184z" fill="#727272" fill-opacity="1" class="Black" />
    </g>
  </g>
</svg>