<?xml version='1.0' encoding='UTF-8'?>
<svg viewBox="-2 -4.7992 32 32" xmlns="http://www.w3.org/2000/svg">
  <g transform="matrix(0.9988, 0, 0, 0.9988, 0, 0)">
    <g transform="matrix(0.0438, 0, 0, 0.0438, 0, 0)">
      <path d="M582.8, 296.4C575.3, 246.4 532, 208 480, 208C474.9, 208 469.8, 208.4 464.8, 209.1C440.5, 188 409.2, 176 376, 176C312, 176 257.7, 221.2 243.6, 281.3C211.6, 305.1 192, 343 192, 384C192, 454.6 249.4, 512 320, 512L524, 512C588, 512 640, 460 640, 396C640, 354.2 617.2, 316.7 582.8, 296.4zM524, 464L320, 464C275.8, 464 240, 428.2 240, 384C240, 351.2 259.8, 323 288.1, 310.7C288.8, 262.7 327.8, 224 376, 224C407.2, 224 434.4, 240.3 450.1, 264.8C458.8, 259.3 469, 256 480, 256C510.9, 256 536, 281.1 536, 312C536, 317.9 534.8, 323.5 533.1, 328.9C566.3, 333.4 592, 361.5 592, 396C592, 433.6 561.6, 464 524, 464zM106.5, 341.3L115, 297.4L121, 266.3L94.8, 248.5L57.8, 223.4L94.8, 198.3L121, 180.5L115, 149.4L106.5, 105.5L150.2, 114L181.4, 120L199.2, 93.7L224, 57L224, 58L248.9, 94.9L266.7, 121.2L297.9, 115.2L341.5, 106.7L333.1, 150.3C347, 146.5 361.3, 144 376, 144C378.4, 144 380.7, 144.5 383, 144.6L392.1, 97.6C394.3, 86 390.7, 74.1 382.4, 65.8C375.7, 59.1 366.8, 55.4 357.4, 55.4C355.2, 55.4 352.9, 55.6 350.6, 56L288.6, 68L253.2, 15.6C246.7, 5.8 235.8, 0 224, 0C212.6, 0 201.3, 4.9 194.7, 14.7L159.3, 67.1L97.3, 55.1C95, 54.7 92.8, 54.4 90.5, 54.4C81.2, 54.4 72.2, 58.1 65.5, 64.8C57.2, 73.2 53.6, 85 55.8, 96.6L67.8, 158.7L15.5, 194.2C5.8, 200.8 0, 211.8 0, 223.5C0, 235.3 5.8, 246.2 15.6, 252.8L67.9, 288.2L55.9, 350.3C53.7, 361.9 57.3, 373.8 65.6, 382.1C72.3, 388.8 81.2, 392.5 90.6, 392.5C92.8, 392.5 95.1, 392.3 97.4, 391.9L159.4, 379.9L160.2, 381.2C160.5, 363.2 164, 345.6 170.1, 329L150.3, 332.8L106.5, 341.3zM215.7, 262.3C197.7, 258.4 184, 243.1 184, 224C184, 201.9 201.9, 184 224, 184C236, 184 246.4, 189.5 253.7, 197.9C264.7, 186.1 277.4, 176.2 291.2, 168C275.1, 148.6 251.1, 136 224, 136C175.5, 136 136, 175.5 136, 224C136, 257.7 155.2, 286.7 183.1, 301.5C191.8, 287.1 202.6, 274.1 215.5, 263C215.6, 262.7 215.7, 262.5 215.7, 262.3z" fill="#727272" fill-opacity="1" class="Black" />
    </g>
  </g>
</svg>