<?xml version='1.0' encoding='UTF-8'?>
<svg viewBox="-1.9999 -4.8014 31.9975 32" xmlns="http://www.w3.org/2000/svg">
  <g transform="matrix(1.001, 0, 0, 1.001, 0, 0)">
    <g transform="matrix(0.0437, 0, 0, 0.0437, 0, 0)">
      <path d="M390.8, 296.4C383.3, 246.4 340, 208 288, 208C282.9, 208 277.8, 208.4 272.8, 209.1C248.5, 188 217.2, 176 184, 176C120, 176 65.7, 221.2 51.6, 281.3C19.6, 305.1 0, 343 0, 384C0, 454.6 57.4, 512 128, 512L332, 512C396, 512 448, 460 448, 396C448, 354.2 425.2, 316.7 390.8, 296.4zM332, 464L128, 464C83.8, 464 48, 428.2 48, 384C48, 351.2 67.8, 323 96.1, 310.7C96.8, 262.7 135.8, 224 184, 224C215.2, 224 242.4, 240.3 258.1, 264.8C266.8, 259.3 277, 256 288, 256C318.9, 256 344, 281.1 344, 312C344, 317.9 342.8, 323.5 341.1, 328.9C374.3, 333.4 400, 361.5 400, 396C400, 433.6 369.5, 464 332, 464zM637.6, 287.2C633.5, 278.6 625.2, 273.3 615.8, 273.3C614.3, 273.3 612.8, 273.4 611.2, 273.7C603.5, 275.2 595.7, 275.9 588, 275.9C521, 275.9 466.5, 221.2 466.5, 154C466.5, 110.3 490.1, 69.7 528.1, 48C537, 42.9 541.7, 33 540, 22.9C538.3, 12.7 530.6, 5 520.5, 3.1C509, 1.1 497.3, 0 485.5, 0C385, 0 302.4, 77.9 294.5, 176.6C311.3, 177.4 327.3, 181.4 342.1, 187.9C344, 121.6 390.6, 66.3 452.9, 51.8C431, 80.9 418.5, 116.7 418.5, 154.2C418.5, 235.3 475.5, 303.3 551.4, 320.1C531.3, 330.5 508.8, 336.1 485.5, 336.1C478.8, 336.1 472.4, 335 465.9, 334.1C473.2, 349.6 477.7, 366.4 479.2, 383.8C481.3, 383.9 483.4, 384.1 485.5, 384.1C543.6, 384.1 597.9, 358.2 634.5, 313C640.5, 305.6 641.7, 295.7 637.6, 287.2z" fill="#727272" fill-opacity="1" class="Black" />
    </g>
  </g>
</svg>