<?xml version='1.0' encoding='UTF-8'?>
<svg viewBox="-2 -3.554 32 32" xmlns="http://www.w3.org/2000/svg">
  <g transform="matrix(0.0486, 0, 0, 0.0486, 0, 0)">
    <path d="M384.5, 375.6L367.8, 366.9L373.5, 348.9C379.6, 329.7 366, 313 348.2, 313C342.2, 313 339.7, 314.2 321.1, 320.1L312.4, 303.4C301.6, 282.7 274.3, 282.8 263.6, 303.4L254.9, 320.1C237.2, 314.5 234.1, 313 227.8, 313C210, 313 196.4, 329.7 202.5, 348.9L208.2, 366.9L191.5, 375.6C171, 386.3 170.7, 413.6 191.5, 424.4L208.2, 433.1L202.5, 451.1C196.2, 471 211.1, 487.5 228.6, 487.5C232.3, 487.5 241.1, 484.3 254.9, 479.9L263.6, 496.6C274.4, 517.3 301.7, 517.2 312.4, 496.6L321.1, 479.9C335, 484.3 343.7, 487.5 347.4, 487.5C365, 487.5 379.8, 471.1 373.5, 451.1L367.8, 433.1L384.5, 424.4C405.2, 413.6 405.1, 386.3 384.5, 375.6zM576, 256C576, 196.8 534.5, 145.9 478.4, 132.2C468.9, 75.4 419.4, 32 360, 32C347.2, 32 334.4, 34.2 322, 38.5C293.6, 13.5 258, 0 220, 0C137.7, 0 70.1, 64.1 64.4, 145C24.8, 167.6 0, 209.6 0, 256C0, 326.6 57.4, 384 128, 384L146.5, 384C150.3, 370.9 158.5, 359.2 170.2, 351.2C169.2, 346.1 169.1, 341 169.4, 336L128, 336C83.9, 336 48, 300.1 48, 256C48, 223.5 67.4, 194.5 97.6, 182.1L113.2, 175.7L112.4, 158.8C112.3, 157.4 112.2, 156 112, 156C112, 96.5 160.4, 48 220, 48C250.1, 48 278.2, 60.4 299.1, 83L311.4, 96.3L327.6, 88.1C376.6, 63.2 431.1, 100.7 432, 150.6L429.2, 174.7L454.1, 176.6C495.6, 179.8 528, 214.6 528, 255.9C528, 300 492.1, 335.9 448, 335.9L406.6, 335.9C406.9, 340.9 406.8, 346 405.9, 351.1C417.6, 359.1 425.8, 370.8 429.6, 383.9L448, 383.9C518.6, 384 576, 326.6 576, 256zM64, 416C46.3, 416 32, 430.3 32, 448C32, 465.7 46.3, 480 64, 480C81.7, 480 96, 465.7 96, 448C96, 430.3 81.7, 416 64, 416zM512, 416C494.3, 416 480, 430.3 480, 448C480, 465.7 494.3, 480 512, 480C529.7, 480 544, 465.7 544, 448C544, 430.3 529.7, 416 512, 416z" fill="#727272" fill-opacity="1" class="Black" />
  </g>
</svg>