<?xml version='1.0' encoding='UTF-8'?>
<svg viewBox="-2 -2 32 32" xmlns="http://www.w3.org/2000/svg">
  <g transform="matrix(0.0547, 0, 0, 0.0547, 0, 0)">
    <path d="M510.9, 389.1L502.9, 375.2C500.7, 371.4 495.8, 370.1 492, 372.3L464, 388.4L464, 360C464, 355.6 460.4, 352 456, 352L440, 352C435.6, 352 432, 355.6 432, 360L432, 388.4L404, 372.3C400.2, 370.1 395.3, 371.4 393.1, 375.2L385.1, 389.1C382.9, 392.9 384.2, 397.8 388, 400L415.9, 416L388, 432C384.2, 434.2 382.9, 439.1 385.1, 442.9L393.1, 456.8C395.3, 460.6 400.2, 461.9 404, 459.7L432, 443.6L432, 472C432, 476.4 435.6, 480 440, 480L456, 480C460.4, 480 464, 476.4 464, 472L464, 443.6L492, 459.7C495.8, 461.9 500.7, 460.6 502.9, 456.8L510.9, 442.9C513.1, 439.1 511.8, 434.2 508, 432L480.1, 416L508, 400C511.8, 397.8 513.1, 392.9 510.9, 389.1zM126.9, 389.1L118.9, 375.2C116.7, 371.4 111.8, 370.1 108, 372.3L80, 388.4L80, 360C80, 355.6 76.4, 352 72, 352L56, 352C51.6, 352 48, 355.6 48, 360L48, 388.4L20, 372.3C16.2, 370.1 11.3, 371.4 9.1, 375.2L1.1, 389.1C-1.1, 392.9 0.2, 397.8 4, 400L31.9, 416L4, 432C0.2, 434.2 -1.1, 439.1 1.1, 442.9L9.1, 456.8C11.3, 460.6 16.2, 461.9 20, 459.7L48, 443.6L48, 472C48, 476.4 51.6, 480 56, 480L72, 480C76.4, 480 80, 476.4 80, 472L80, 443.6L108, 459.7C111.8, 461.9 116.7, 460.6 118.9, 456.8L126.9, 442.9C129.1, 439.1 127.8, 434.2 124, 432L96.1, 416L124, 400C127.8, 397.8 129.1, 392.9 126.9, 389.1zM318.9, 421.1L310.9, 407.2C308.7, 403.4 303.8, 402.1 300, 404.3L272, 420.4L272, 392C272, 387.6 268.4, 384 264, 384L248, 384C243.6, 384 240, 387.6 240, 392L240, 420.4L212, 404.3C208.2, 402.1 203.3, 403.4 201.1, 407.2L193.1, 421.1C190.9, 424.9 192.2, 429.8 196, 432L223.9, 448L196, 464C192.2, 466.2 190.9, 471.1 193.1, 474.9L201.1, 488.8C203.3, 492.6 208.2, 493.9 212, 491.7L240, 475.6L240, 504C240, 508.4 243.6, 512 248, 512L264, 512C268.4, 512 272, 508.4 272, 504L272, 475.6L300, 491.7C303.8, 493.9 308.7, 492.6 310.9, 488.8L318.9, 474.9C321.1, 471.1 319.8, 466.2 316, 464L288.1, 448L316, 432C319.8, 429.8 321.1, 424.9 318.9, 421.1zM108, 320L404, 320C463.6, 320 512, 271.5 512, 212C512, 154.7 467.1, 107.7 410.7, 104.2C397.2, 61.8 358, 32 312, 32C298.5, 32 285.2, 34.6 272.8, 39.7C250.3, 14.5 218.4, 0 184, 0C120, 0 67.6, 50.3 64.2, 113.4C25.6, 130.4 0, 168.5 0, 212C0, 271.5 48.4, 320 108, 320zM94.4, 153.7L115.1, 148.9L112.4, 124C112.2, 122.7 112, 121.4 112, 120C112, 80.3 144.3, 48 184, 48C209.2, 48 232.2, 61.1 245.4, 83.1L258.7, 105.2L279.8, 90.3C289.4, 83.6 300.5, 80 312, 80C340.6, 80 364.4, 101.7 367.3, 130.4L369.5, 152L404, 152C437.1, 152 464, 178.9 464, 212C464, 245.1 437.1, 272 404, 272L108, 272C74.9, 272 48, 245.1 48, 212C48, 184 67.1, 160 94.4, 153.7z" fill="#727272" fill-opacity="1" class="Black" />
  </g>
</svg>