<?xml version='1.0' encoding='UTF-8'?>
<svg viewBox="-2 -2 32 32" xmlns="http://www.w3.org/2000/svg">
  <g transform="matrix(0.0547, 0, 0, 0.0547, 0, 0)">
    <path d="M48, 360C39.2, 360 32, 367.2 32, 376L32, 416C32, 424.8 39.2, 432 48, 432C56.8, 432 64, 424.8 64, 416L64, 376C64, 367.2 56.8, 360 48, 360zM144, 440C135.2, 440 128, 447.2 128, 456L128, 496C128, 504.8 135.2, 512 144, 512C152.8, 512 160, 504.8 160, 496L160, 456C160, 447.2 152.8, 440 144, 440zM240, 360C231.2, 360 224, 367.2 224, 376L224, 416C224, 424.8 231.2, 432 240, 432C248.8, 432 256, 424.8 256, 416L256, 376C256, 367.2 248.8, 360 240, 360zM336, 440C327.2, 440 320, 447.2 320, 456L320, 496C320, 504.8 327.2, 512 336, 512C344.8, 512 352, 504.8 352, 496L352, 456C352, 447.2 344.8, 440 336, 440zM432, 360C423.2, 360 416, 367.2 416, 376L416, 416C416, 424.8 423.2, 432 432, 432C440.8, 432 448, 424.8 448, 416L448, 376C448, 367.2 440.8, 360 432, 360zM410.7, 104.2C397.2, 61.8 358, 32 312, 32C298.5, 32 285.2, 34.6 272.8, 39.7C250.3, 14.5 218.4, 0 184, 0C120, 0 67.6, 50.3 64.2, 113.4C25.6, 130.4 0, 168.5 0, 212C0, 271.5 48.4, 320 108, 320L404, 320C463.6, 320 512, 271.5 512, 212C512, 154.7 467.1, 107.7 410.7, 104.2zM404, 272L108, 272C74.9, 272 48, 245.1 48, 212C48, 184 67.1, 160 94.4, 153.7L115.2, 148.9L112.4, 124C112.2, 122.7 112, 121.4 112, 120C112, 80.3 144.3, 48 184, 48C209.2, 48 232.2, 61.1 245.4, 83.1L258.7, 105.2L279.8, 90.3C289.4, 83.6 300.5, 80 312, 80C340.6, 80 364.4, 101.7 367.3, 130.4L369.5, 152L404, 152C437.1, 152 464, 178.9 464, 212C464, 245.1 437.1, 272 404, 272z" fill="#727272" fill-opacity="1" class="Black" />
  </g>
</svg>