<?xml version='1.0' encoding='UTF-8'?>
<svg viewBox="-1.9999 -1.9999 32 32" xmlns="http://www.w3.org/2000/svg">
  <g transform="matrix(0.0547, 0, 0, 0.0547, 0, 0)">
    <path d="M87.9, 370.1C80.3, 365.7 70.5, 368.3 66.1, 376.1L2.1, 488.1C-2.3, 495.8 0.4, 505.6 8.1, 509.9C10.6, 511.3 13.3, 512 16, 512C21.5, 512 26.9, 509.1 29.9, 503.9L93.9, 391.9C98.3, 384.3 95.6, 374.5 87.9, 370.1zM471.9, 370.1C464.3, 365.7 454.5, 368.3 450.1, 376.1L386.1, 488.1C381.7, 495.8 384.4, 505.6 392.1, 509.9C394.6, 511.3 397.3, 512 400, 512C405.5, 512 410.9, 509.1 413.9, 503.9L477.9, 391.9C482.3, 384.3 479.6, 374.5 471.9, 370.1zM375.9, 370.1C368.3, 365.7 358.5, 368.3 354.1, 376.1L290.1, 488.1C285.7, 495.8 288.4, 505.6 296.1, 509.9C298.6, 511.3 301.3, 512 304, 512C309.5, 512 314.9, 509.1 317.9, 503.9L381.9, 391.9C386.3, 384.3 383.6, 374.5 375.9, 370.1zM279.9, 370.1C272.3, 365.7 262.5, 368.3 258.1, 376.1L194.1, 488.1C189.7, 495.8 192.4, 505.6 200.1, 509.9C202.6, 511.3 205.3, 512 208, 512C213.5, 512 218.9, 509.1 221.9, 503.9L285.9, 391.9C290.3, 384.3 287.6, 374.5 279.9, 370.1zM183.9, 370.1C176.3, 365.7 166.5, 368.3 162.1, 376.1L98.1, 488.1C93.7, 495.8 96.4, 505.6 104.1, 509.9C106.6, 511.3 109.3, 512 112, 512C117.5, 512 122.9, 509.1 125.9, 503.9L189.9, 391.9C194.3, 384.3 191.6, 374.5 183.9, 370.1zM410.7, 104.2C397.2, 61.8 358, 32 312, 32C298.5, 32 285.2, 34.6 272.8, 39.7C250.3, 14.5 218.4, 0 184, 0C120, 0 67.6, 50.3 64.2, 113.4C25.6, 130.4 0, 168.5 0, 212C0, 271.5 48.4, 320 108, 320L404, 320C463.6, 320 512, 271.5 512, 212C512, 154.7 467.1, 107.7 410.7, 104.2zM404, 272L108, 272C74.9, 272 48, 245.1 48, 212C48, 184 67.1, 160 94.4, 153.7L115.1, 148.9L112.4, 124C112.2, 122.7 112, 121.4 112, 120C112, 80.3 144.3, 48 184, 48C209.2, 48 232.2, 61.1 245.4, 83.1L258.7, 105.2L279.8, 90.3C289.4, 83.6 300.5, 80 312, 80C340.6, 80 364.4, 101.7 367.3, 130.4L369.5, 152L404, 152C437.1, 152 464, 178.9 464, 212C464, 245.1 437.1, 272 404, 272z" fill="#727272" fill-opacity="1" class="Black" />
  </g>
</svg>