<?xml version='1.0' encoding='UTF-8'?>
<svg viewBox="-2 -4.7992 32 32" xmlns="http://www.w3.org/2000/svg">
  <g transform="matrix(0.9988, 0, 0, 0.9988, 0, 0)">
    <g transform="matrix(0.0438, 0, 0, 0.0438, 0, 0)">
      <path d="M128, 256C128, 266.8 128.9, 277.5 130.6, 288L12, 288C5.4, 288 0, 282.6 0, 276L0, 236C0, 229.4 5.4, 224 12, 224L130.6, 224C128.9, 234.5 128, 245.2 128, 256zM628, 224L509.4, 224C511.2, 234.5 512, 245.2 512, 256C512, 266.8 511.1, 277.5 509.4, 288L628, 288C634.6, 288 640, 282.6 640, 276L640, 236C640, 229.4 634.6, 224 628, 224zM320, 144C290.1, 144 262, 155.7 240.8, 176.8C219.6, 198 208, 226.1 208, 256C208, 285.9 219.6, 314 240.8, 335.2C262, 356.3 290.1, 368 320, 368C349.9, 368 378, 356.3 399.2, 335.2C420.4, 314 432, 285.9 432, 256C432, 226.1 420.4, 198 399.2, 176.8C378, 155.7 349.9, 144 320, 144M320, 96C408.4, 96 480, 167.6 480, 256C480, 344.4 408.4, 416 320, 416C231.6, 416 160, 344.4 160, 256C160, 167.6 231.6, 96 320, 96z" fill="#727272" fill-opacity="1" class="Black" />
    </g>
  </g>
</svg>