<?xml version='1.0' encoding='UTF-8'?>
<svg viewBox="-5.5003 -2 32 32" xmlns="http://www.w3.org/2000/svg">
  <g transform="matrix(0.0547, 0, 0, 0.0547, 0, 0)">
    <path d="M304, 192C266, 192 234.2, 218.5 226.1, 254C202.2, 250.5 168.1, 241.1 142.2, 216.4C125.6, 200.5 114.3, 179.9 108.5, 154.8C138.6, 143.3 160, 114.1 160, 80C160, 35.8 124.2, 0 80, 0C35.8, 0 0, 35.8 0, 80C0, 115.8 23.5, 146.1 56, 156.3L56, 355.6C23.5, 365.9 0, 396.2 0, 432C0, 476.2 35.8, 512 80, 512C124.2, 512 160, 476.2 160, 432C160, 396.2 136.5, 365.9 104, 355.7L104, 246.1C105.6, 247.8 107.3, 249.5 109, 251.1C148.3, 288.6 199.4, 299.7 230.2, 302.9C242.3, 331.8 270.8, 352.1 304, 352.1C348.2, 352.1 384, 316.3 384, 272.1C384, 227.9 348.2, 192 304, 192zM80, 48C97.6, 48 112, 62.4 112, 80C112, 97.6 97.6, 112 80, 112C62.4, 112 48, 97.6 48, 80C48, 62.4 62.4, 48 80, 48zM80, 464C62.4, 464 48, 449.6 48, 432C48, 414.4 62.4, 400 80, 400C97.6, 400 112, 414.4 112, 432C112, 449.6 97.6, 464 80, 464zM304, 304C286.4, 304 272, 289.6 272, 272C272, 254.4 286.4, 240 304, 240C321.6, 240 336, 254.4 336, 272C336, 289.6 321.6, 304 304, 304z" fill="#727272" fill-opacity="1" class="Black" />
  </g>
</svg>