<?xml version='1.0' encoding='UTF-8'?>
<svg viewBox="-2 -3.5542 32 32" xmlns="http://www.w3.org/2000/svg">
  <g transform="matrix(0.0486, 0, 0, 0.0486, 0, 0)">
    <path d="M234.8, 511.7L196, 500.4C191.8, 499.2 189.3, 494.7 190.5, 490.5L331.3, 5.8C332.5, 1.6 337, -0.9 341.2, 0.3L380, 11.6C384.2, 12.8 386.7, 17.3 385.5, 21.5L244.7, 506.2C243.5, 510.5 239.1, 512.9 234.8, 511.7zM151.6, 390.6L178.8, 361.6C181.9, 358.3 181.6, 353.1 178.3, 350.1L72.2, 256L178.3, 161.9C181.7, 158.9 181.9, 153.7 178.8, 150.4L151.6, 121.4C148.6, 118.2 143.5, 118 140.3, 121L2.5, 250.2C-0.9, 253.4 -0.9, 258.7 2.5, 261.9L140.3, 391C143.5, 394 148.5, 393.8 151.6, 390.6zM435.7, 391L573.4, 261.9C576.8, 258.7 576.8, 253.4 573.4, 250.2L435.7, 121C432.5, 118 427.4, 118.1 424.4, 121.4L397.2, 150.4C394.1, 153.7 394.4, 158.9 397.7, 161.9L503.8, 256L397.7, 350.1C394.3, 353.1 394.1, 358.3 397.2, 361.6L424.4, 390.6C427.5, 393.8 432.5, 394 435.7, 391z" fill="#727272" fill-opacity="1" class="Black" />
  </g>
</svg>