<?xml version='1.0' encoding='UTF-8'?>
<svg viewBox="-1.9975 -4.7983 32 32" xmlns="http://www.w3.org/2000/svg">
  <g transform="matrix(0.9989, 0, 0, 0.9989, 0, 0)">
    <g transform="matrix(0.0438, 0, 0, 0.0438, 0, 0)">
      <path d="M512, 32L112, 32C103.2, 32 96, 39.2 96, 48L96, 304C96, 348.2 131.8, 384 176, 384L400, 384C444.2, 384 480, 348.2 480, 304L480, 288L512, 288C582.6, 288 640, 230.6 640, 160C640, 89.4 582.6, 32 512, 32zM432, 304C432, 321.6 417.6, 336 400, 336L176, 336C158.4, 336 144, 321.6 144, 304L144, 80L432, 80L432, 304zM512, 240L480, 240L480, 80L512, 80C556.1, 80 592, 115.9 592, 160C592, 204.1 556.1, 240 512, 240zM567.8, 480L40.2, 480C2.9, 480 -10, 432 8.2, 432L599.9, 432C618, 432 605.1, 480 567.8, 480z" fill="#727272" fill-opacity="1" class="Black" />
    </g>
  </g>
</svg>