<?xml version='1.0' encoding='UTF-8'?>
<svg viewBox="-5.499 -2 32 32" xmlns="http://www.w3.org/2000/svg">
  <g transform="matrix(0.0547, 0, 0, 0.0547, 0, 0)">
    <path d="M374.45, 115.19L266.71, 9.37C260.6, 3.37 252.31, 0 243.67, 0L140.33, 0C131.69, 0 123.4, 3.37 117.29, 9.37L9.55, 115.19C1.46, 123.14 -1.8, 134.67 0.98, 145.58L88.09, 487.76C91.71, 502.01 104.75, 512 119.7, 512L264.32, 512C279.27, 512 292.3, 502.01 295.93, 487.76L383.04, 145.58C385.8, 134.67 382.55, 123.14 374.45, 115.19zM252.44, 464L131.56, 464L49.82, 142.91L146.46, 48L237.54, 48L334.18, 142.91L252.44, 464zM216, 112C216, 103.16 208.84, 96 200, 96L184, 96C175.16, 96 168, 103.16 168, 112L168, 160L112, 160C103.16, 160 96, 167.16 96, 176L96, 192C96, 200.84 103.16, 208 112, 208L168, 208L168, 336C168, 344.84 175.16, 352 184, 352L200, 352C208.84, 352 216, 344.84 216, 336L216, 208L272, 208C280.84, 208 288, 200.84 288, 192L288, 176C288, 167.16 280.84, 160 272, 160L216, 160L216, 112z" fill="#727272" fill-opacity="1" class="Black" />
  </g>
</svg>