<?xml version='1.0' encoding='UTF-8'?>
<svg viewBox="-2 -1.9988 32 32" xmlns="http://www.w3.org/2000/svg">
  <g transform="matrix(0.0547, 0, 0, 0.0547, 0, 0)">
    <path d="M256, 64C114.67, 64 0, 128.44 0, 208L0, 320C0, 390.72 114.67, 448 256, 448C397.33, 448 512, 390.72 512, 320L512, 208C512, 128.44 397.33, 64 256, 64zM88, 363.37C62.42, 349.16 48, 333.2 48, 320L48, 291.73A226 226 0 0 0 88, 316.48zM184, 394.25A348.83 348.83 0 0 1 120, 377.93L120, 329.84A373.73 373.73 0 0 0 184, 346.12zM296, 398.25C283.19, 399.35 269.9, 400.03 256, 400.03C242.1, 400.03 228.81, 399.35 216, 398.25L216, 350.07C229.07, 351.23 242.36, 352 256, 352C269.64, 352 282.93, 351.23 296, 350.07zM392, 377.96A348.83 348.83 0 0 1 328, 394.28L328, 346.12A373.73 373.73 0 0 0 392, 329.84zM464, 320C464, 333.2 449.58, 349.16 424, 363.37L424, 316.48A226 226 0 0 0 464, 291.73zM256, 304C137, 304 48, 253.32 48, 208C48, 162.68 137, 112 256, 112C375, 112 464, 162.68 464, 208C464, 253.32 375.05, 304 256, 304z" fill="#727272" fill-opacity="1" class="Black" />
  </g>
</svg>