<?xml version='1.0' encoding='UTF-8'?>
<svg viewBox="-1.9999 -3.5527 32 31.9975" xmlns="http://www.w3.org/2000/svg">
  <g transform="matrix(0.0486, 0, 0, 0.0486, 0, 0)">
    <path d="M532.01, 386.17C559.48, 359.05 576, 325.04 576, 288C576, 207.98 499.55, 141.87 399.82, 130.06C368.35, 72.46 294.32, 32 208, 32C93.12, 32 0, 103.64 0, 192C0, 229.04 16.52, 263.05 43.99, 290.17C28.69, 320.91 6.65, 344.7 6.29, 345.06C-0.02, 351.75 -1.76, 361.59 1.87, 370.05A23.085 23.085 0 0 0 23.06, 384C76.6, 384 119.73, 363.76 148.23, 345.22C157.44, 347.34 166.92, 348.96 176.6, 350.11C208.11, 407.58 281.8, 448 368, 448C388.79, 448 408.83, 445.59 427.77, 441.22C456.27, 459.76 499.4, 480 552.94, 480C562.16, 480 570.49, 474.5 574.12, 466.04C577.76, 457.58 576.01, 447.74 569.7, 441.05C569.35, 440.69 547.31, 416.91 532.01, 386.17zM159.02, 298.45L139.15, 293.87L122.06, 304.99C107.99, 314.14 93.6, 321.28 78.96, 326.4A258.5 258.5 0 0 0 86.96, 311.56L102.45, 280.44L77.71, 256.02C64.16, 242.63 48, 220.66 48, 192C48, 131.29 121.27, 80 208, 80C294.73, 80 368, 131.29 368, 192C368, 252.71 294.73, 304 208, 304C191.48, 304 175, 302.13 159.02, 298.45zM498.29, 352.01L473.55, 376.43L489.04, 407.55C491.6, 412.7 494.3, 417.66 497.04, 422.39C482.4, 417.28 468.01, 410.13 453.94, 400.99L436.85, 389.87L416.98, 394.45A218.576 218.576 0 0 1 368, 400C314.04, 400 265.78, 379.94 236.7, 350.3C337.96, 339.53 416, 272.86 416, 192C416, 188.63 415.61, 185.34 415.35, 182.03C479.7, 196.49 528, 238.85 528, 288C528, 316.66 511.84, 338.63 498.29, 352.01zM233.28, 182.28L191.09, 170.84C186.9, 169.7 184, 166.29 184, 162.54C184, 157.74 188.5, 153.84 194.06, 153.84L220.4, 153.84C224.55, 153.84 228.63, 154.88 232.17, 156.79C235.25, 158.45 239.01, 158.16 241.41, 155.61L253.48, 142.88C256.59, 139.6 256.08, 134.24 252.35, 131.69C244.05, 126.04 234.29, 122.81 224, 122.17L224, 112C224, 107.58 220.42, 104 216, 104L200, 104C195.58, 104 192, 107.58 192, 112L192, 122.25C169.82, 123.35 152, 140.82 152, 162.55C152, 180.72 164.62, 196.83 182.72, 201.72L224.91, 213.16C229.1, 214.3 232, 217.71 232, 221.46C232, 226.26 227.5, 230.16 221.94, 230.16L195.6, 230.16C191.45, 230.16 187.37, 229.12 183.83, 227.21C180.75, 225.54 176.99, 225.84 174.59, 228.39L162.52, 241.12C159.41, 244.4 159.92, 249.76 163.65, 252.31C171.95, 257.96 181.71, 261.19 192, 261.83L192, 272C192, 276.42 195.58, 280 200, 280L216, 280C220.42, 280 224, 276.42 224, 272L224, 261.75C246.18, 260.65 264, 243.18 264, 221.45C264, 203.28 251.38, 187.17 233.28, 182.28z" fill="#727272" fill-opacity="1" class="Black" />
  </g>
</svg>