<?xml version='1.0' encoding='UTF-8'?>
<svg viewBox="-1.9975 -4.7973 32 32" xmlns="http://www.w3.org/2000/svg">
  <g transform="matrix(0.999, 0, 0, 0.999, 0, 0)">
    <g transform="matrix(0.0438, 0, 0, 0.0438, 0, 0)">
      <path d="M634, 471L36, 3.5C29.1, -2 19, -0.9 13.5, 6L3.5, 18.5C-2, 25.4 -0.9, 35.5 6, 41L64, 86.3L105.6, 118.8L604, 508.5C610.9, 514 621, 512.9 626.5, 506L636.5, 493.5C642, 486.6 640.9, 476.5 634, 471zM512, 48C520.8, 48 528, 55.2 528, 64L528, 327.2L574.8, 363.8C575.5, 360 576, 356 576, 352L576, 64C576, 28.7 547.3, 0 512, 0L128, 0C122.5, 0 117.3, 0.9 112.2, 2.2L170.8, 48L512, 48zM339.2, 377.6L272, 428L272, 368L128, 368C119.2, 368 112, 360.8 112, 352L112, 184.8L64, 147.3L64, 352C64, 387.3 92.7, 416 128, 416L224, 416L224, 500C224, 507.1 229.8, 512 236, 512C238.4, 512 240.9, 511.3 243.1, 509.6L368, 416L407.8, 416L349.2, 370.2L339.2, 377.6z" fill="#727272" fill-opacity="1" class="Black" />
    </g>
  </g>
</svg>