<?xml version='1.0' encoding='UTF-8'?>
<svg viewBox="-2 -2 32 32" xmlns="http://www.w3.org/2000/svg">
  <g transform="matrix(0.0547, 0, 0, 0.0547, 0, 0)">
    <path d="M448, 0L64, 0C28.7, 0 0, 28.7 0, 64L0, 352C0, 387.3 28.7, 416 64, 416L160, 416L160, 500C160, 507.1 165.8, 512 172, 512C174.4, 512 176.9, 511.3 179.1, 509.6L304, 416L448, 416C483.3, 416 512, 387.3 512, 352L512, 64C512, 28.7 483.3, 0 448, 0zM464, 352C464, 360.8 456.8, 368 448, 368L288, 368L275.2, 377.6L208, 428L208, 368L64, 368C55.2, 368 48, 360.8 48, 352L48, 64C48, 55.2 55.2, 48 64, 48L448, 48C456.8, 48 464, 55.2 464, 64L464, 352zM325.8, 240.2C308.5, 260.4 283.1, 272 256, 272C228.9, 272 203.5, 260.4 186.2, 240.2C177.6, 230.1 162.4, 228.9 152.4, 237.5C142.4, 246.1 141.2, 261.3 149.7, 271.3C176.2, 302.3 214.9, 320 256, 320C297.1, 320 335.8, 302.2 362.2, 271.3C370.8, 261.2 369.6, 246.1 359.5, 237.5C349.5, 228.9 334.4, 230.1 325.8, 240.2zM192, 192C209.7, 192 224, 177.7 224, 160C224, 142.3 209.7, 128 192, 128C174.3, 128 160, 142.3 160, 160C160, 177.7 174.3, 192 192, 192zM320, 192C337.7, 192 352, 177.7 352, 160C352, 142.3 337.7, 128 320, 128C302.3, 128 288, 142.3 288, 160C288, 177.7 302.3, 192 320, 192z" fill="#727272" fill-opacity="1" class="Black" />
  </g>
</svg>