<?xml version='1.0' encoding='UTF-8'?>
<svg viewBox="-1.9998 -3.5525 32 31.995" xmlns="http://www.w3.org/2000/svg">
  <g transform="matrix(0.0486, 0, 0, 0.0486, 0, 0)">
    <path d="M532, 386.2C559.5, 359.1 576, 325.1 576, 288C576, 208 499.5, 141.9 399.8, 130.1C368.3, 72.5 294.3, 32 208, 32C93.1, 32 0, 103.6 0, 192C0, 229 16.5, 263 44, 290.2C28.7, 320.9 6.7, 344.7 6.3, 345.1C0, 351.8 -1.8, 361.6 1.9, 370.1C5.5, 378.6 13.9, 384.1 23.1, 384.1C76.6, 384.1 119.8, 363.9 148.3, 345.3C157.5, 347.4 167, 349 176.7, 350.2C208.1, 407.6 281.8, 448 368, 448C388.8, 448 408.8, 445.6 427.8, 441.2C456.3, 459.7 499.4, 480 553, 480C562.2, 480 570.5, 474.5 574.2, 466C577.8, 457.5 576.1, 447.7 569.8, 441C569.4, 440.7 547.3, 416.9 532, 386.2zM139.2, 293.9L122.1, 305C108, 314.1 93.6, 321.3 79, 326.4C81.7, 321.7 84.4, 316.7 87, 311.6L102.5, 280.5L77.7, 256C64.2, 242.6 48, 220.7 48, 192C48, 131.3 121.3, 80 208, 80C294.7, 80 368, 131.3 368, 192C368, 252.7 294.7, 304 208, 304C191.5, 304 175, 302.1 159, 298.4L139.2, 293.9zM498.3, 352L473.6, 376.4L489.1, 407.5C491.7, 412.6 494.4, 417.6 497.1, 422.3C482.5, 417.2 468.1, 410 454, 400.9L436.9, 389.8L417, 394.4C401, 398.1 384.5, 400 368, 400C314, 400 265.8, 379.9 236.7, 350.3C338, 339.5 416, 272.9 416, 192C416, 188.6 415.6, 185.3 415.3, 182C479.7, 196.5 528, 238.8 528, 288C528, 316.7 511.8, 338.6 498.3, 352z" fill="#727272" fill-opacity="1" class="Black" />
  </g>
</svg>