<?xml version='1.0' encoding='UTF-8'?>
<svg viewBox="-2 -2 32 32" xmlns="http://www.w3.org/2000/svg">
  <g transform="matrix(0.0547, 0, 0, 0.0547, 0, 0)">
    <path d="M448, 0L64, 0C28.7, 0 0, 28.7 0, 64L0, 352C0, 387.3 28.7, 416 64, 416L160, 416L160, 500C160, 507.1 165.8, 512 172, 512C174.4, 512 176.9, 511.3 179.1, 509.6L304, 416L448, 416C483.3, 416 512, 387.3 512, 352L512, 64C512, 28.7 483.3, 0 448, 0zM464, 352C464, 360.8 456.8, 368 448, 368L288, 368L275.2, 377.6L208, 428L208, 368L64, 368C55.2, 368 48, 360.8 48, 352L48, 64C48, 55.2 55.2, 48 64, 48L448, 48C456.8, 48 464, 55.2 464, 64L464, 352zM329.5, 145.8L318.2, 134.5C312, 128.3 301.8, 128.3 295.6, 134.5L256, 174.1L216.4, 134.5C210.2, 128.3 200, 128.3 193.8, 134.5L182.5, 145.8C176.3, 152 176.3, 162.2 182.5, 168.4L222.1, 208L182.5, 247.6C176.3, 253.8 176.3, 264 182.5, 270.2L193.8, 281.5C200, 287.7 210.2, 287.7 216.4, 281.5L256, 241.9L295.6, 281.5C301.8, 287.7 312, 287.7 318.2, 281.5L329.5, 270.2C335.7, 264 335.7, 253.8 329.5, 247.6L289.9, 208L329.5, 168.4C335.8, 162.2 335.8, 152 329.5, 145.8z" fill="#727272" fill-opacity="1" class="Black" />
  </g>
</svg>