<?xml version='1.0' encoding='UTF-8'?>
<svg viewBox="-2 -2 32 32" xmlns="http://www.w3.org/2000/svg">
  <g transform="matrix(0.0547, 0, 0, 0.0547, 0, 0)">
    <path d="M448, 0L64, 0C28.7, 0 0, 28.7 0, 64L0, 352C0, 387.3 28.7, 416 64, 416L160, 416L160, 500C160, 507.1 165.8, 512 172, 512C174.4, 512 176.9, 511.3 179.1, 509.6L304, 416L448, 416C483.3, 416 512, 387.3 512, 352L512, 64C512, 28.7 483.3, 0 448, 0zM464, 352C464, 360.8 456.8, 368 448, 368L288, 368L275.2, 377.6L208, 428L208, 368L64, 368C55.2, 368 48, 360.8 48, 352L48, 64C48, 55.2 55.2, 48 64, 48L448, 48C456.8, 48 464, 55.2 464, 64L464, 352zM164.9, 243.2L160.1, 286C159.5, 291.7 164.3, 296.6 170.1, 296L212.9, 291.2L298.4, 205.7L250.4, 157.7L164.9, 243.2zM324.2, 109.3C317.2, 102.3 305.8, 102.3 298.8, 109.3L270.5, 137.6L318.5, 185.6L346.8, 157.3C353.8, 150.3 353.8, 138.9 346.8, 131.9L324.2, 109.3z" fill="#727272" fill-opacity="1" class="Black" />
  </g>
</svg>