<?xml version='1.0' encoding='UTF-8'?>
<svg viewBox="-2.0023 -1.9973 32 31.995" xmlns="http://www.w3.org/2000/svg">
  <g transform="matrix(0.0547, 0, 0, 0.0547, 0, 0)">
    <path d="M164.9, 275.2L160.1, 318C159.5, 323.7 164.3, 328.6 170.1, 328L212.9, 323.2L298.4, 237.7L250.4, 189.7L164.9, 275.2zM324.2, 141.3C317.2, 134.3 305.8, 134.3 298.8, 141.3L270.5, 169.6L318.5, 217.6L346.8, 189.3C353.8, 182.3 353.8, 170.9 346.8, 163.9L324.2, 141.3zM256, 32C114.6, 32 0, 125.1 0, 240C0, 287.6 19.9, 331.2 52.9, 366.3C38, 405.7 7, 439.1 6.5, 439.5C-0.1, 446.5 -1.9, 456.7 1.9, 465.5C5.7, 474.3 14.4, 480 24, 480C85.5, 480 134, 454.3 163.1, 433.7C192, 442.8 223.2, 448 256, 448C397.4, 448 512, 354.9 512, 240C512, 125.1 397.4, 32 256, 32zM256, 400C229.3, 400 202.9, 395.9 177.6, 387.9L154.9, 380.7L135.4, 394.5C121.1, 404.6 101.5, 415.9 77.9, 423.5C85.2, 411.4 92.3, 397.8 97.8, 383.3L108.4, 355.2L87.8, 333.4C69.7, 314.1 48, 282.2 48, 240C48, 151.8 141.3, 80 256, 80C370.7, 80 464, 151.8 464, 240C464, 328.2 370.7, 400 256, 400z" fill="#727272" fill-opacity="1" class="Black" />
  </g>
</svg>