<?xml version='1.0' encoding='UTF-8'?>
<svg viewBox="-2 -2 32 32" xmlns="http://www.w3.org/2000/svg">
  <g transform="matrix(0.0547, 0, 0, 0.0547, 0, 0)">
    <path d="M448, 0L64, 0A64 64 0 0 0 0, 64L0, 352A64 64 0 0 0 64, 416L160, 416L160, 500A12 12 0 0 0 172.05, 512A11.84 11.84 0 0 0 179.13, 509.63L304, 416L448, 416A64 64 0 0 0 512, 352L512, 64A64 64 0 0 0 448, 0zM464, 352A16 16 0 0 1 448, 368L288, 368L275.21, 377.6L208, 428L208, 368L64, 368A16 16 0 0 1 48, 352L48, 64A16 16 0 0 1 64, 48L448, 48A16 16 0 0 1 464, 64zM344, 176L288, 176L288, 120A8 8 0 0 0 280, 112L232, 112A8 8 0 0 0 224, 120L224, 176L168, 176A8 8 0 0 0 160, 184L160, 232A8 8 0 0 0 168, 240L224, 240L224, 296A8 8 0 0 0 232, 304L280, 304A8 8 0 0 0 288, 296L288, 240L344, 240A8 8 0 0 0 352, 232L352, 184A8 8 0 0 0 344, 176z" fill="#727272" fill-opacity="1" class="Black" />
  </g>
</svg>