<?xml version='1.0' encoding='UTF-8'?>
<svg viewBox="-1.995 -1.995 32 31.9975" xmlns="http://www.w3.org/2000/svg">
  <g transform="matrix(0.0547, 0, 0, 0.0547, 0, 0)">
    <path d="M256, 32C114.64, 32 0.07, 125.09 0.07, 240C0.07, 287.59 20, 331.2 53, 366.3C38.09, 405.7 7.1, 439.09 6.6, 439.5A24 24 0 0 0 24.06, 480C85.55, 480 134.06, 454.3 163.14, 433.7A308.73 308.73 0 0 0 256, 448C397.39, 448 512, 354.91 512, 240C512, 125.09 397.42, 32 256, 32zM256, 400A259.93 259.93 0 0 1 177.61, 387.91L155, 380.7L135.5, 394.5A215.27 215.27 0 0 1 78, 423.5A252.11 252.11 0 0 0 97.91, 383.3L108.5, 355.2L87.87, 333.41C69.74, 314.09 48.06, 282.2 48.06, 240C48.06, 151.8 141.36, 80 256.06, 80C370.76, 80 464.06, 151.8 464.06, 240C464.06, 328.2 370.71, 400 256, 400zM331.18, 128.75L203.23, 176A16 16 0 0 0 192, 191.25L192, 290A69.82 69.82 0 0 0 176, 288C149.51, 288 128, 302.33 128, 320C128, 337.67 149.5, 352 176, 352C202.5, 352 224, 337.67 224, 320L224, 235.16L320, 197.64L320, 258A69.8 69.8 0 0 0 304, 256C277.5, 256 256, 270.33 256, 288C256, 305.67 277.5, 320 304, 320C330.5, 320 352, 305.67 352, 288L352, 144A16 16 0 0 0 331.21, 128.75z" fill="#727272" fill-opacity="1" class="Black" />
  </g>
</svg>