<?xml version='1.0' encoding='UTF-8'?>
<svg viewBox="-2 -2 32 32" xmlns="http://www.w3.org/2000/svg">
  <g transform="matrix(0.0547, 0, 0, 0.0547, 0, 0)">
    <path d="M448, 0L64, 0C28.7, 0 0, 28.7 0, 64L0, 352C0, 387.3 28.7, 416 64, 416L160, 416L160, 500C160, 507.1 165.8, 512 172, 512C174.4, 512 176.9, 511.3 179.1, 509.6L304, 416L448, 416C483.3, 416 512, 387.3 512, 352L512, 64C512, 28.7 483.3, 0 448, 0zM464, 352C464, 360.8 456.8, 368 448, 368L288, 368L275.2, 377.6L208, 428L208, 368L64, 368C55.2, 368 48, 360.8 48, 352L48, 64C48, 55.2 55.2, 48 64, 48L448, 48C456.8, 48 464, 55.2 464, 64L464, 352zM332.7, 130.4C328.9, 126.5 322.6, 126.5 318.7, 130.3L231.4, 217L193.5, 178.8C189.7, 174.9 183.4, 174.9 179.5, 178.7L156.1, 201.9C152.2, 205.7 152.2, 212 156, 215.9L224.1, 284.5C227.9, 288.4 234.2, 288.4 238.1, 284.6L355.9, 167.8C359.8, 164 359.8, 157.7 356, 153.8L332.7, 130.4z" fill="#727272" fill-opacity="1" class="Black" />
  </g>
</svg>