<?xml version='1.0' encoding='UTF-8'?>
<svg viewBox="-2.0023 -1.9973 32 31.995" xmlns="http://www.w3.org/2000/svg">
  <g transform="matrix(0.0547, 0, 0, 0.0547, 0, 0)">
    <path d="M325.8, 272.2C308.5, 292.4 283.1, 304 256, 304C228.9, 304 203.5, 292.4 186.2, 272.2C177.6, 262.1 162.4, 261 152.4, 269.5C142.3, 278.1 141.2, 293.3 149.7, 303.3C176.2, 334.3 214.9, 352 256, 352C297.1, 352 335.8, 334.2 362.2, 303.3C370.8, 293.2 369.6, 278.1 359.5, 269.5C349.5, 260.9 334.4, 262.1 325.8, 272.2zM192, 224C209.7, 224 224, 209.7 224, 192C224, 174.3 209.7, 160 192, 160C174.3, 160 160, 174.3 160, 192C160, 209.7 174.3, 224 192, 224zM320, 224C337.7, 224 352, 209.7 352, 192C352, 174.3 337.7, 160 320, 160C302.3, 160 288, 174.3 288, 192C288, 209.7 302.3, 224 320, 224zM256, 32C114.6, 32 0, 125.1 0, 240C0, 287.6 19.9, 331.2 52.9, 366.3C38, 405.7 7, 439.1 6.5, 439.5C-0.1, 446.5 -1.9, 456.7 1.9, 465.5C5.7, 474.3 14.4, 480 24, 480C85.5, 480 134, 454.3 163.1, 433.7C192, 442.8 223.2, 448 256, 448C397.4, 448 512, 354.9 512, 240C512, 125.1 397.4, 32 256, 32zM256, 400C229.3, 400 202.9, 395.9 177.6, 387.9L154.9, 380.7L135.4, 394.5C121.1, 404.6 101.5, 415.9 77.9, 423.5C85.2, 411.4 92.3, 397.8 97.8, 383.3L108.4, 355.2L87.8, 333.4C69.7, 314.1 48, 282.2 48, 240C48, 151.8 141.3, 80 256, 80C370.7, 80 464, 151.8 464, 240C464, 328.2 370.7, 400 256, 400z" fill="#727272" fill-opacity="1" class="Black" />
  </g>
</svg>