<?xml version='1.0' encoding='UTF-8'?>
<svg viewBox="-1.9998 -3.5563 31.9975 32" xmlns="http://www.w3.org/2000/svg">
  <g transform="matrix(0.0486, 0, 0, 0.0486, 0, 0)">
    <path d="M512, 160L416, 160L416, 64C416, 28.65 387.35, 0 352, 0L64, 0C28.65, 0 0, 28.65 0, 64L0, 272C0, 307.35 28.65, 336 64, 336L96, 336L96, 387.98C96, 395.08 101.83, 400 108.05, 400C110.46, 400 112.92, 399.26 115.13, 397.63L192, 354.12L192, 384C192, 419.35 220.65, 448 256, 448L352, 448L460.87, 509.63C463.08, 511.26 465.55, 512 467.95, 512C474.17, 512 480, 507.08 480, 499.98L480, 448L512, 448C547.35, 448 576, 419.35 576, 384L576, 224C576, 188.65 547.35, 160 512, 160zM200.35, 294.23L144, 326.13L144, 288L64, 288C55.18, 288 48, 280.82 48, 272L48, 64C48, 55.18 55.18, 48 64, 48L352, 48C360.82, 48 368, 55.18 368, 64L368, 272C368, 280.82 360.82, 288 352, 288L211.36, 288L200.35, 294.23zM528, 384C528, 392.82 520.82, 400 512, 400L432, 400L432, 438.13L375.65, 406.23L364.65, 400L256, 400C247.18, 400 240, 392.82 240, 384L240, 336L352, 336C387.35, 336 416, 307.35 416, 272L416, 208L512, 208C520.82, 208 528, 215.18 528, 224L528, 384zM233.28, 158.28L191.09, 146.84C186.9, 145.7 184, 142.29 184, 138.54C184, 133.74 188.5, 129.84 194.06, 129.84L220.4, 129.84C224.55, 129.84 228.63, 130.88 232.17, 132.79C235.25, 134.45 239.01, 134.16 241.41, 131.61L253.48, 118.88C256.59, 115.6 256.08, 110.24 252.35, 107.69C244.05, 102.04 234.29, 98.81 224, 98.17L224, 88C224, 83.58 220.42, 80 216, 80L200, 80C195.58, 80 192, 83.58 192, 88L192, 98.25C169.82, 99.35 152, 116.82 152, 138.55C152, 156.72 164.62, 172.83 182.72, 177.72L224.91, 189.16C229.1, 190.3 232, 193.71 232, 197.46C232, 202.26 227.5, 206.16 221.94, 206.16L195.6, 206.16C191.45, 206.16 187.37, 205.12 183.83, 203.21C180.75, 201.54 176.99, 201.84 174.59, 204.39L162.52, 217.12C159.41, 220.4 159.92, 225.76 163.65, 228.31C171.95, 233.96 181.71, 237.19 192, 237.83L192, 248C192, 252.42 195.58, 256 200, 256L216, 256C220.42, 256 224, 252.42 224, 248L224, 237.75C246.18, 236.65 264, 219.18 264, 197.45C264, 179.28 251.38, 163.17 233.28, 158.28z" fill="#727272" fill-opacity="1" class="Black" />
  </g>
</svg>