<?xml version='1.0' encoding='UTF-8'?>
<svg viewBox="-2.0023 -1.9973 32 31.995" xmlns="http://www.w3.org/2000/svg">
  <g transform="matrix(0.0547, 0, 0, 0.0547, 0, 0)">
    <path d="M329.5, 177.8L318.2, 166.5C312, 160.3 301.8, 160.3 295.6, 166.5L256, 206.1L216.4, 166.5C210.2, 160.3 200, 160.3 193.8, 166.5L182.5, 177.8C176.3, 184 176.3, 194.2 182.5, 200.4L222.1, 240L182.5, 279.6C176.3, 285.8 176.3, 296 182.5, 302.2L193.8, 313.5C200, 319.7 210.2, 319.7 216.4, 313.5L256, 273.9L295.6, 313.5C301.8, 319.7 312, 319.7 318.2, 313.5L329.5, 302.2C335.7, 296 335.7, 285.8 329.5, 279.6L289.9, 240L329.5, 200.4C335.8, 194.2 335.8, 184 329.5, 177.8zM256, 32C114.6, 32 0, 125.1 0, 240C0, 287.6 19.9, 331.2 52.9, 366.3C38, 405.7 7, 439.1 6.5, 439.5C-0.1, 446.5 -1.9, 456.7 1.9, 465.5C5.7, 474.3 14.4, 480 24, 480C85.5, 480 134, 454.3 163.1, 433.7C192, 442.8 223.2, 448 256, 448C397.4, 448 512, 354.9 512, 240C512, 125.1 397.4, 32 256, 32zM256, 400C229.3, 400 202.9, 395.9 177.6, 387.9L154.9, 380.7L135.4, 394.5C121.1, 404.6 101.5, 415.9 77.9, 423.5C85.2, 411.4 92.3, 397.8 97.8, 383.3L108.4, 355.2L87.8, 333.4C69.7, 314.1 48, 282.2 48, 240C48, 151.8 141.3, 80 256, 80C370.7, 80 464, 151.8 464, 240C464, 328.2 370.7, 400 256, 400z" fill="#727272" fill-opacity="1" class="Black" />
  </g>
</svg>