<?xml version='1.0' encoding='UTF-8'?>
<svg viewBox="-2.0023 -1.9973 32 31.995" xmlns="http://www.w3.org/2000/svg">
  <g transform="matrix(0.0547, 0, 0, 0.0547, 0, 0)">
    <path d="M256, 288C238.3, 288 224, 302.3 224, 320C224, 337.7 238.3, 352 256, 352C273.7, 352 288, 337.7 288, 320C288, 302.3 273.7, 288 256, 288zM284.7, 128L227.3, 128C217.3, 128 209.7, 137.1 211.6, 146.9L229.6, 242.9C231, 250.5 237.6, 256 245.3, 256L266.7, 256C274.4, 256 281, 250.5 282.4, 242.9L300.4, 146.9C302.3, 137.1 294.7, 128 284.7, 128zM256, 32C114.6, 32 0, 125.1 0, 240C0, 287.6 19.9, 331.2 52.9, 366.3C38, 405.7 7, 439.1 6.5, 439.5C-0.1, 446.5 -1.9, 456.7 1.9, 465.5C5.7, 474.3 14.4, 480 24, 480C85.5, 480 134, 454.3 163.1, 433.7C192, 442.8 223.2, 448 256, 448C397.4, 448 512, 354.9 512, 240C512, 125.1 397.4, 32 256, 32zM256, 400C229.3, 400 202.9, 395.9 177.6, 387.9L154.9, 380.7L135.4, 394.5C121.1, 404.6 101.5, 415.9 77.9, 423.5C85.2, 411.4 92.3, 397.8 97.8, 383.3L108.4, 355.2L87.8, 333.4C69.7, 314.1 48, 282.2 48, 240C48, 151.8 141.3, 80 256, 80C370.7, 80 464, 151.8 464, 240C464, 328.2 370.7, 400 256, 400z" fill="#727272" fill-opacity="1" class="Black" />
  </g>
</svg>