<?xml version='1.0' encoding='UTF-8'?>
<svg viewBox="-1.9998 -3.5563 31.9975 32" xmlns="http://www.w3.org/2000/svg">
  <g transform="matrix(0.0486, 0, 0, 0.0486, 0, 0)">
    <path d="M512, 160L416, 160L416, 64C416, 28.7 387.3, 0 352, 0L64, 0C28.7, 0 0, 28.7 0, 64L0, 224C0, 259.3 28.7, 288 64, 288L96, 288L96, 340C96, 347.1 101.8, 352 108, 352C110.4, 352 112.9, 351.3 115.1, 349.6L192, 306.1L192, 384C192, 419.3 220.7, 448 256, 448L352, 448L460.9, 509.6C463.1, 511.2 465.6, 512 468, 512C474.2, 512 480, 507.1 480, 500L480, 448L512, 448C547.3, 448 576, 419.3 576, 384L576, 224C576, 188.7 547.3, 160 512, 160zM96, 240L64, 240C55.2, 240 48, 232.8 48, 224L48, 64C48, 55.2 55.2, 48 64, 48L352, 48C360.8, 48 368, 55.2 368, 64L368, 224C368, 232.8 360.8, 240 352, 240L211.4, 240L200.4, 246.2L144, 278.1L144, 240L96, 240zM528, 384C528, 392.8 520.8, 400 512, 400L432, 400L432, 438.1L375.6, 406.2L364.6, 400L256, 400C247.2, 400 240, 392.8 240, 384L240, 288L352, 288C387.3, 288 416, 259.3 416, 224L416, 208L512, 208C520.8, 208 528, 215.2 528, 224L528, 384z" fill="#727272" fill-opacity="1" class="Black" />
  </g>
</svg>