<?xml version='1.0' encoding='UTF-8'?>
<svg viewBox="-1.9975 -4.7983 31.9975 32" xmlns="http://www.w3.org/2000/svg">
  <g transform="matrix(0.9989, 0, 0, 0.9989, 0, 0)">
    <g transform="matrix(0.0438, 0, 0, 0.0438, 0, 0)">
      <path d="M633.99, 471.02L36, 3.51C29.1, -2.01 19.03, -0.9 13.51, 6L3.51, 18.49C-2.02, 25.39 -0.9, 35.46 6, 40.98L604, 508.49C610.9, 514.01 620.96, 512.89 626.49, 506L636.49, 493.51C642.01, 486.61 640.9, 476.54 633.99, 471.02zM320, 56C430.28, 56 520, 145.72 520, 256C520, 276.23 516.93, 295.75 511.31, 314.18L551.15, 345.33C561.88, 317.58 568, 287.53 568, 256C568, 119.03 456.97, 8 320, 8C266.92, 8 217.85, 24.82 177.51, 53.21L217.57, 84.53C247.58, 66.54 282.54, 56 320, 56zM419.94, 129.86L328.82, 171.51L410.05, 235.02L446.14, 156.06C453.75, 139.4 436.6, 122.25 419.94, 129.86zM220.06, 382.14L311.19, 340.49L229.96, 276.98L193.87, 355.94C186.25, 372.59 203.4, 389.75 220.06, 382.14zM320, 456C209.72, 456 120, 366.28 120, 256C120, 235.76 123.08, 216.24 128.69, 197.82L88.85, 166.67C78.12, 194.42 72, 224.47 72, 256C72, 392.97 183.03, 504 320, 504C373.08, 504 422.15, 487.18 462.49, 458.78L422.43, 427.46C392.42, 445.46 357.46, 456 320, 456z" fill="#727272" fill-opacity="1" class="Black" />
    </g>
  </g>
</svg>