<?xml version='1.0' encoding='UTF-8'?>
<svg viewBox="-2 -4.7992 32 32" xmlns="http://www.w3.org/2000/svg">
  <g transform="matrix(0.9988, 0, 0, 0.9988, 0, 0)">
    <g transform="matrix(0.0438, 0, 0, 0.0438, 0, 0)">
      <path d="M592, 32L368, 32A48 48 0 0 0 320, 80L320, 432A48 48 0 0 0 368, 480L592, 480A48 48 0 0 0 640, 432L640, 80A48 48 0 0 0 592, 32zM592, 432L368, 432L368, 80L592, 80zM112, 432A16 16 0 0 0 96, 448L96, 464A16 16 0 0 0 112, 480L304.41, 480A79.24 79.24 0 0 1 288, 432zM0, 80L0, 336A48 48 0 0 0 48, 384L288, 384L288, 336L48, 336L48, 80L288, 80A79.24 79.24 0 0 1 304.41, 32L48, 32A48 48 0 0 0 0, 80zM480, 192A32 32 0 1 0 448, 160A32 32 0 0 0 480, 192zM480, 400A80 80 0 1 0 400, 320A80 80 0 0 0 480, 400zM480, 288A32 32 0 1 1 448, 320A32 32 0 0 1 480, 288z" fill="#727272" fill-opacity="1" class="Black" />
    </g>
  </g>
</svg>