<?xml version='1.0' encoding='UTF-8'?>
<svg viewBox="-2 -0.0002 32 32" xmlns="http://www.w3.org/2000/svg">
  <g transform="matrix(0.0625, 0, 0, 0.0625, 0, 0)">
    <path d="M224, 232L224, 136.995C224, 115.613 249.851, 104.905 264.971, 120.024L292.675, 147.728L404.888, 35.515C409.574, 30.829 417.172, 30.829 421.859, 35.515L444.486, 58.142C449.172, 62.828 449.172, 70.426 444.486, 75.113L332.272, 187.326L359.976, 215.03C375.095, 230.149 364.387, 256 343.005, 256L248, 256C234.745, 256 224, 245.255 224, 232zM43.112, 476.485L155.325, 364.272L183.029, 391.976C198.149, 407.095 224, 396.387 224, 375.005L224, 280C224, 266.745 213.255, 256 200, 256L104.995, 256C83.613, 256 72.905, 281.851 88.024, 296.971L115.728, 324.675L3.515, 436.888C-1.171, 441.574 -1.171, 449.172 3.515, 453.859L26.142, 476.486C30.828, 481.172 38.426, 481.172 43.112, 476.485z" fill="#727272" fill-opacity="1" class="Black" />
  </g>
</svg>