<?xml version='1.0' encoding='UTF-8'?>
<svg viewBox="-1.9999 -1.549 31.9975 32" xmlns="http://www.w3.org/2000/svg">
  <g transform="matrix(0.999, 0, 0, 0.999, 0, 0)">
    <g transform="matrix(0.0565, 0, 0, 0.0565, 0, 0)">
      <path d="M248, 8C111, 8 0, 119 0, 256C0, 393 111, 504 248, 504C385, 504 496, 393 496, 256C496, 119 385, 8 248, 8zM248, 456C137.7, 456 48, 366.3 48, 256C48, 145.7 137.7, 56 248, 56C358.3, 56 448, 145.7 448, 256C448, 366.3 358.3, 456 248, 456zM248, 96C159.8, 96 88, 167.8 88, 256L120, 256C120, 185.4 177.4, 128 248, 128L248, 96zM248, 168C199.4, 168 160, 207.4 160, 256C160, 304.6 199.4, 344 248, 344C296.6, 344 336, 304.6 336, 256C336, 207.4 296.6, 168 248, 168zM248, 288C230.3, 288 216, 273.7 216, 256C216, 238.3 230.3, 224 248, 224C265.7, 224 280, 238.3 280, 256C280, 273.7 265.7, 288 248, 288z" fill="#727272" fill-opacity="1" class="Black" />
    </g>
  </g>
</svg>