<?xml version='1.0' encoding='UTF-8'?>
<svg viewBox="-2 0 32 32" xmlns="http://www.w3.org/2000/svg">
  <g transform="matrix(0.0625, 0, 0, 0.0625, 0, 0)">
    <path d="M436, 192L312, 192C298.7, 192 288, 181.3 288, 168L288, 44C288, 37.4 293.4, 32 300, 32L324, 32C330.6, 32 336, 37.4 336, 44L336, 144L436, 144C442.6, 144 448, 149.4 448, 156L448, 180C448, 186.6 442.6, 192 436, 192zM160, 168L160, 44C160, 37.4 154.6, 32 148, 32L124, 32C117.4, 32 112, 37.4 112, 44L112, 144L12, 144C5.4, 144 0, 149.4 0, 156L0, 180C0, 186.6 5.4, 192 12, 192L136, 192C149.3, 192 160, 181.3 160, 168zM160, 468L160, 344C160, 330.7 149.3, 320 136, 320L12, 320C5.4, 320 0, 325.4 0, 332L0, 356C0, 362.6 5.4, 368 12, 368L112, 368L112, 468C112, 474.6 117.4, 480 124, 480L148, 480C154.6, 480 160, 474.6 160, 468zM336, 468L336, 368L436, 368C442.6, 368 448, 362.6 448, 356L448, 332C448, 325.4 442.6, 320 436, 320L312, 320C298.7, 320 288, 330.7 288, 344L288, 468C288, 474.6 293.4, 480 300, 480L324, 480C330.6, 480 336, 474.6 336, 468z" fill="#727272" fill-opacity="1" class="Black" />
  </g>
</svg>