<?xml version='1.0' encoding='UTF-8'?>
<svg viewBox="-2 -1.9988 32 32" xmlns="http://www.w3.org/2000/svg">
  <g transform="matrix(0.0547, 0, 0, 0.0547, 0, 0)">
    <path d="M496, 400L480, 400L480, 352C480, 239.18 396.51, 146.11 288, 130.54L288, 112L336, 112C344.84, 112 352, 104.84 352, 96L352, 80C352, 71.16 344.84, 64 336, 64L176, 64C167.16, 64 160, 71.16 160, 80L160, 96C160, 104.84 167.16, 112 176, 112L224, 112L224, 130.54C115.49, 146.11 32, 239.18 32, 352L32, 400L16, 400C7.16, 400 0, 407.16 0, 416L0, 432C0, 440.84 7.16, 448 16, 448L496, 448C504.84, 448 512, 440.84 512, 432L512, 416C512, 407.16 504.84, 400 496, 400zM432, 400L80, 400L80, 352C80, 254.95 158.95, 176 256, 176C353.05, 176 432, 254.95 432, 352L432, 400z" fill="#727272" fill-opacity="1" class="Black" />
  </g>
</svg>