<?xml version='1.0' encoding='UTF-8'?>
<svg viewBox="-1.9974 -4.7969 31.9975 32" xmlns="http://www.w3.org/2000/svg">
  <g transform="matrix(0.9989, 0, 0, 0.9989, 0, 0)">
    <g transform="matrix(0.0438, 0, 0, 0.0438, 0, 0)">
      <path d="M324, 216A28 28 0 1 0 296, 188A28 28 0 0 0 324, 216zM305.38, 356.36L222.38, 302.69L192.58, 411.8A16 16 0 0 0 203.8, 431.44A15.8 15.8 0 0 0 208, 432A16 16 0 0 0 223.43, 420.2L241.68, 353.31L288, 383.23L288, 416A16 16 0 0 0 320, 416L320, 383.23A31.92 31.92 0 0 0 305.38, 356.36zM440.38, 347.1L426.38, 367.96L358.31, 326L347.78, 273.25C344.03, 254.64 329.65, 239.95 312.22, 236.13L287.63, 228.83A48 48 0 0 0 238.85, 246.83L227.23, 262.31A16 16 0 0 0 231.64, 285.54L335.56, 349.54L335.65, 349.61L406.32, 393.09L385, 393.09A19.13 19.13 0 0 0 366.79, 405.6L357.59, 432L521.48, 432L467.16, 347.36A16 16 0 0 0 440.41, 347.1zM631.05, 427.88L367.37, 25.3A57 57 0 0 0 272.66, 25.3L8.89, 427.89A52.87 52.87 0 0 0 6.58, 482.77A56.23 56.23 0 0 0 56.29, 512L583.74, 512A56.23 56.23 0 0 0 633.45, 482.73A52.82 52.82 0 0 0 631.08, 427.88zM591.21, 459.88C590.55, 461.12 588.49, 463.96 583.71, 463.96L56.29, 463.96C51.51, 463.96 49.45, 461.12 48.79, 459.9A5.25 5.25 0 0 1 49.04, 454.15L312.81, 51.55A9.06 9.06 0 0 1 327.22, 51.55L591, 454.19A5.27 5.27 0 0 1 591.24, 459.92z" fill="#727272" fill-opacity="1" class="Black" />
    </g>
  </g>
</svg>