<?xml version='1.0' encoding='UTF-8'?>
<svg viewBox="-2 -2 32 32" xmlns="http://www.w3.org/2000/svg">
  <g transform="matrix(0.0547, 0, 0, 0.0547, 0, 0)">
    <path d="M352, 320C334.33, 320 320, 334.33 320, 352C320, 369.67 334.33, 384 352, 384C369.67, 384 384, 369.67 384, 352C384, 334.33 369.67, 320 352, 320zM192, 192C192, 174.33 177.67, 160 160, 160C142.33, 160 128, 174.33 128, 192C128, 209.67 142.33, 224 160, 224C177.67, 224 192, 209.67 192, 192zM192, 320C174.33, 320 160, 334.33 160, 352C160, 369.67 174.33, 384 192, 384C209.67, 384 224, 369.67 224, 352C224, 334.33 209.67, 320 192, 320zM288, 224C270.33, 224 256, 238.33 256, 256C256, 273.67 270.33, 288 288, 288C305.67, 288 320, 273.67 320, 256C320, 238.33 305.67, 224 288, 224zM510.52, 255.82C440.55, 254.97 384.05, 198.13 384.05, 127.96C313.88, 127.96 257.05, 71.47 256.19, 1.51C249.57, 0.5 242.9, 0 236.26, 0C215.58, 0 195.08, 4.85 176.47, 14.33L107.34, 49.55A132.221 132.221 0 0 0 49.55, 107.36L14.45, 176.24A132.645 132.645 0 0 0 1.63, 257.19L13.71, 333.47A132.555 132.555 0 0 0 50.87, 406.43L105.64, 461.19A132.036 132.036 0 0 0 178.35, 498.25L255.06, 510.39C261.92, 511.48 268.82, 512.01 275.7, 512.01C296.42, 512.01 316.95, 507.13 335.59, 497.63L404.72, 462.41A132.221 132.221 0 0 0 462.51, 404.6L497.61, 335.72C510.17, 311.09 514.62, 283.15 510.52, 255.82zM454.84, 313.92L419.74, 382.8C411.6, 398.77 398.87, 411.5 382.93, 419.63L313.8, 454.85C302.06, 460.83 288.88, 464 275.7, 464C271.32, 464 266.9, 463.65 262.57, 462.97L185.86, 450.83C168.22, 448.04 152.22, 439.88 139.58, 427.24L84.81, 372.48C72.12, 359.79 63.93, 343.71 61.12, 325.96L49.04, 249.69C46.23, 231.92 49.05, 214.07 57.22, 198.05L92.32, 129.17C100.46, 113.2 113.19, 100.46 129.13, 92.34L198.26, 57.12C203.78, 54.31 209.62, 52.12 215.64, 50.6C233.47, 109.48 281.49, 155.56 341.33, 170.69C356.45, 230.54 402.55, 278.56 461.44, 296.38A83.485 83.485 0 0 1 454.84, 313.92z" fill="#727272" fill-opacity="1" class="Black" />
  </g>
</svg>