<?xml version='1.0' encoding='UTF-8'?>
<svg viewBox="-1.995 -4.7962 31.9975 32" xmlns="http://www.w3.org/2000/svg">
  <g transform="matrix(0.9991, 0, 0, 0.9991, 0, 0)">
    <g transform="matrix(0.0438, 0, 0, 0.0438, 0, 0)">
      <path d="M576, 196.6L576, 128C576, 75 533, 32 480, 32L160, 32C107, 32 64, 75 64, 128L64, 196.6C29.4, 207.3 3.1, 236.9 0.3, 273C-2, 302 9.9, 329.5 32, 347.6L32, 440C32, 462.1 49.9, 480 72, 480L160, 480C164, 480 190.2, 479.1 191.9, 448L448.1, 448C449.5, 478.8 476.1, 480 480, 480L568, 480C590.1, 480 608, 462.1 608, 440L608, 347.6C630, 329.5 642, 302.1 639.7, 273C636.9, 236.9 610.6, 207.3 576, 196.6zM144, 432L80, 432L80, 321.3L68.1, 314.3C54.6, 306.5 47, 292 48.2, 276.7C49.7, 256.5 69.4, 240 92, 240L104, 240C126.1, 240 144, 257.9 144, 280L144, 432zM448, 304L448, 400L192, 400L192, 304L448, 304zM451.7, 256L188.2, 256C178.4, 221.7 148.5, 196.2 112, 192.8L112, 128C112, 101.5 133.5, 80 160, 80L480, 80C506.5, 80 528, 101.5 528, 128L528, 192.8C491.4, 196.2 461.5, 221.7 451.7, 256zM571.9, 314.4L560, 321.4L560, 432L496, 432L496, 280C496, 257.9 513.9, 240 536, 240L548, 240C570.6, 240 590.3, 256.5 591.9, 276.8C593, 292.1 585.4, 306.5 571.9, 314.4z" fill="#727272" fill-opacity="1" class="Black" />
    </g>
  </g>
</svg>