<?xml version='1.0' encoding='UTF-8'?>
<svg viewBox="-1.9975 -4.7983 32 32" xmlns="http://www.w3.org/2000/svg">
  <g transform="matrix(0.9989, 0, 0, 0.9989, 0, 0)">
    <g transform="matrix(0.0438, 0, 0, 0.0438, 0, 0)">
      <path d="M464, 160C367, 160 288, 239 288, 336C288, 433 367, 512 464, 512C561, 512 640, 433.05 640, 336C640, 238.95 561.05, 160 464, 160zM464, 464A128 128 0 1 1 592, 336A128 128 0 0 1 464, 464zM544, 312L488, 312L488, 256A16 16 0 0 0 472, 240L456, 240A16 16 0 0 0 440, 256L440, 312L384, 312A16 16 0 0 0 368, 328L368, 344A16 16 0 0 0 384, 360L440, 360L440, 416A16 16 0 0 0 456, 432L472, 432A16 16 0 0 0 488, 416L488, 360L544, 360A16 16 0 0 0 560, 344L560, 328A16 16 0 0 0 544, 312zM300.39, 464L51.14, 464L108.68, 144L339.32, 144L343.42, 166.84A207.09 207.09 0 0 1 387.84, 142.64L384.19, 122.35A32 32 0 0 0 352.64, 96L336.64, 96L336.64, 48A48.1 48.1 0 0 0 288.52, 0L160.29, 0A48.1 48.1 0 0 0 112.2, 48L112.2, 96L95.36, 96A32 32 0 0 0 63.81, 122.35L0.51, 474.35A32 32 0 0 0 32.07, 512L353.66, 512A209.26 209.26 0 0 1 300.39, 464zM160, 48L288, 48L288, 96L160, 96z" fill="#727272" fill-opacity="1" class="Black" />
    </g>
  </g>
</svg>