<?xml version='1.0' encoding='UTF-8'?>
<svg viewBox="-3.7495 -2 32 32" xmlns="http://www.w3.org/2000/svg">
  <g transform="matrix(0.0547, 0, 0, 0.0547, 0, 0)">
    <path d="M384.19, 122.35A32 32 0 0 0 352.64, 96L336.64, 96L336.64, 48A48.1 48.1 0 0 0 288.52, 0L160.29, 0A48.1 48.1 0 0 0 112.2, 48L112.2, 96L95.36, 96A32 32 0 0 0 63.81, 122.35L0.51, 474.35A32 32 0 0 0 32.07, 512L415.93, 512A32 32 0 0 0 447.49, 474.35zM160, 48L288, 48L288, 96L160, 96zM51.14, 464L108.68, 144L339.32, 144L396.86, 464z" fill="#727272" fill-opacity="1" class="Black" />
  </g>
</svg>