<?xml version='1.0' encoding='UTF-8'?>
<svg viewBox="-2 -3.554 32 32" xmlns="http://www.w3.org/2000/svg">
  <g transform="matrix(0.0486, 0, 0, 0.0486, 0, 0)">
    <path d="M527.9, 32L48.1, 32C21.5, 32 0, 53.5 0, 80L0, 432C0, 458.5 21.5, 480 48.1, 480L527.9, 480C554.5, 480 576, 458.5 576, 432L576, 80C576, 53.5 554.5, 32 527.9, 32zM54.1, 80L521.9, 80C525.2, 80 527.9, 82.7 527.9, 86L527.9, 128L48.1, 128L48.1, 86C48.1, 82.7 50.8, 80 54.1, 80zM521.9, 432L54.1, 432C50.8, 432 48.1, 429.3 48.1, 426L48.1, 256L527.9, 256L527.9, 426C527.9, 429.3 525.2, 432 521.9, 432zM192, 332L192, 372C192, 378.6 186.6, 384 180, 384L108, 384C101.4, 384 96, 378.6 96, 372L96, 332C96, 325.4 101.4, 320 108, 320L180, 320C186.6, 320 192, 325.4 192, 332zM384, 332L384, 372C384, 378.6 378.6, 384 372, 384L236, 384C229.4, 384 224, 378.6 224, 372L224, 332C224, 325.4 229.4, 320 236, 320L372, 320C378.6, 320 384, 325.4 384, 332z" fill="#727272" fill-opacity="1" class="Black" />
  </g>
</svg>