<?xml version='1.0' encoding='UTF-8'?>
<svg viewBox="-2 -3.554 32 32" xmlns="http://www.w3.org/2000/svg">
  <g transform="matrix(0.0486, 0, 0, 0.0486, 0, 0)">
    <path d="M527.9, 32L48.1, 32C21.5, 32 0, 53.5 0, 80L0, 432C0, 458.5 21.5, 480 48.1, 480L527.9, 480C554.5, 480 576, 458.5 576, 432L576, 80C576, 53.5 554.5, 32 527.9, 32zM521.9, 432L54.1, 432C50.8, 432 48.1, 429.3 48.1, 426L48.1, 86C48.1, 82.7 50.8, 80 54.1, 80L521.9, 80C525.2, 80 527.9, 82.7 527.9, 86L527.9, 426C527.9, 429.3 525.2, 432 521.9, 432zM192, 364L192, 372C192, 378.6 186.6, 384 180, 384L108, 384C101.4, 384 96, 378.6 96, 372L96, 364C96, 357.4 101.4, 352 108, 352L180, 352C186.6, 352 192, 357.4 192, 364zM384, 364L384, 372C384, 378.6 378.6, 384 372, 384L236, 384C229.4, 384 224, 378.6 224, 372L224, 364C224, 357.4 229.4, 352 236, 352L372, 352C378.6, 352 384, 357.4 384, 364zM260, 320L204, 320C197.4, 320 192, 314.6 192, 308L192, 268C192, 261.4 197.4, 256 204, 256L260, 256C266.6, 256 272, 261.4 272, 268L272, 308C272, 314.6 266.6, 320 260, 320zM288, 308L288, 268C288, 261.4 293.4, 256 300, 256L356, 256C362.6, 256 368, 261.4 368, 268L368, 308C368, 314.6 362.6, 320 356, 320L300, 320C293.4, 320 288, 314.6 288, 308zM96, 308L96, 268C96, 261.4 101.4, 256 108, 256L164, 256C170.6, 256 176, 261.4 176, 268L176, 308C176, 314.6 170.6, 320 164, 320L108, 320C101.4, 320 96, 314.6 96, 308zM480, 268L480, 308C480, 314.6 474.6, 320 468, 320L396, 320C389.4, 320 384, 314.6 384, 308L384, 268C384, 261.4 389.4, 256 396, 256L468, 256C474.6, 256 480, 261.4 480, 268zM480, 136L480, 184C480, 197.3 469.3, 208 456, 208L376, 208C362.7, 208 352, 197.3 352, 184L352, 136C352, 122.7 362.7, 112 376, 112L456, 112C469.3, 112 480, 122.7 480, 136z" fill="#727272" fill-opacity="1" class="Black" />
  </g>
</svg>