<?xml version='1.0' encoding='UTF-8'?>
<svg viewBox="-1.9949 -4.7919 32 31.9975" xmlns="http://www.w3.org/2000/svg">
  <g transform="matrix(0.9989, 0, 0, 0.9989, 0, 0)">
    <g transform="matrix(0.0438, 0, 0, 0.0438, 0, 0)">
      <path d="M635.7, 31.9L620.5, 10.3C612.9, -0.5 597.9, -3.2 587.1, 4.4L442.6, 105.9C428.1, 116 408.2, 112.5 398.1, 98.1L385.4, 80C375.5, 66 355.7, 61.8 340.9, 72.2L13.8, 300.7C4.9, 306.9 -0.7, 317.2 0.1, 328C5.7, 407.3 54.8, 477.2 127.5, 509.6C142.9, 516.5 156.4, 507.1 157.9, 506.1L485, 277.6C499.5, 267.5 503, 247.6 492.9, 233.2L477.6, 211.4C467.5, 197 471, 177.1 485.5, 167L629.8, 65.2C640.6, 57.6 643.3, 42.7 635.7, 31.9zM138, 461.5C89.2, 436.2 56, 388.9 48.9, 334.6L273.7, 177.5L254.6, 285.4L362.8, 304.4L138, 461.5zM437.8, 252L399.9, 278.5L291.7, 259.5L310.8, 151.6L348.7, 125.1C352.3, 122.6 357.3, 123.5 359.8, 127.1L439.7, 241C442.3, 244.5 441.4, 249.5 437.8, 252zM511.6, 320.5C458.7, 320.5 415.7, 363.4 415.7, 416.2C415.7, 469 458.7, 511.9 511.6, 511.9C564.5, 511.9 607.5, 469 607.5, 416.2C607.5, 363.4 564.5, 320.5 511.6, 320.5zM511.6, 464.1C485.2, 464.1 463.6, 442.6 463.6, 416.2C463.6, 389.8 485.1, 368.3 511.6, 368.3C538, 368.3 559.6, 389.8 559.6, 416.2C559.6, 442.7 538.1, 464.1 511.6, 464.1z" fill="#727272" fill-opacity="1" class="Black" />
    </g>
  </g>
</svg>