<?xml version='1.0' encoding='UTF-8'?>
<svg viewBox="-5.499 -1.9999 31.9975 32" xmlns="http://www.w3.org/2000/svg">
  <g transform="matrix(0.0547, 0, 0, 0.0547, 0, 0)">
    <path d="M344, 104L280, 104L280, 40C280, 17.94 262.06, 0 240, 0L144, 0C121.94, 0 104, 17.94 104, 40L104, 104L40, 104C17.94, 104 0, 121.94 0, 144L0, 240C0, 262.06 17.94, 280 40, 280L104, 280L104, 472C104, 494.06 121.94, 512 144, 512L240, 512C262.06, 512 280, 494.06 280, 472L280, 280L344, 280C366.06, 280 384, 262.06 384, 240L384, 144C384, 121.94 366.06, 104 344, 104zM336, 232L232, 232L232, 464L152, 464L152, 232L48, 232L48, 152L152, 152L152, 48L232, 48L232, 152L336, 152L336, 232z" fill="#727272" fill-opacity="1" class="Black" />
  </g>
</svg>