<?xml version='1.0' encoding='UTF-8'?>
<svg viewBox="-2 -4.7992 32 32" xmlns="http://www.w3.org/2000/svg">
  <g transform="matrix(0.9988, 0, 0, 0.9988, 0, 0)">
    <g transform="matrix(0.0438, 0, 0, 0.0438, 0, 0)">
      <path d="M528, 464L112, 464C103.2, 464 96, 471.2 96, 480L96, 496C96, 504.8 103.2, 512 112, 512L528, 512C536.8, 512 544, 504.8 544, 496L544, 480C544, 471.2 536.8, 464 528, 464zM592, 128C565.5, 128 544, 149.5 544, 176C544, 183.1 545.6, 189.7 548.4, 195.8L476, 239.2C470.8, 242.3 465.2, 243.8 459.6, 243.8C448.5, 243.8 437.7, 238 431.8, 227.7L350.3, 85C361, 76.2 368, 63 368, 48C368, 21.5 346.5, 0 320, 0C293.5, 0 272, 21.5 272, 48C272, 63 279, 76.2 289.7, 85L208.2, 227.6C202.3, 238 191.5, 243.7 180.4, 243.7C174.8, 243.7 169.1, 242.2 164, 239.1L91.7, 195.7C94.4, 189.7 96.1, 183 96.1, 175.9C96.1, 149.4 74.6, 127.9 48.1, 127.9C21.6, 127.9 0, 149.5 0, 176C0, 202.5 21.5, 224 48, 224C50.6, 224 53.2, 223.6 55.7, 223.2L128, 416L512, 416L584.3, 223.2C586.8, 223.6 589.4, 224 592, 224C618.5, 224 640, 202.5 640, 176C640, 149.5 618.5, 128 592, 128zM478.7, 368L161.3, 368L125.3, 271.9L139.3, 280.3C151.7, 287.8 166, 291.7 180.4, 291.7C209.1, 291.7 235.7, 276.3 249.9, 251.4L320, 128.7L390.1, 251.4C404.3, 276.3 430.9, 291.7 459.6, 291.7C474.1, 291.7 488.3, 287.8 500.7, 280.3L514.7, 271.9L478.7, 368z" fill="#727272" fill-opacity="1" class="Black" />
    </g>
  </g>
</svg>