<?xml version='1.0' encoding='UTF-8'?>
<svg viewBox="-1.9988 -2 32 32" xmlns="http://www.w3.org/2000/svg">
  <g transform="matrix(0.0547, 0, 0, 0.0547, 0, 0)">
    <path d="M507.31, 185.59L326.29, 4.68A16 16 0 0 0 303.67, 4.68L292.35, 16A16 16 0 0 0 292.35, 38.61L473.35, 219.51A16 16 0 0 0 495.98, 219.51L507.29, 208.21A16 16 0 0 0 507.31, 185.59zM328.56, 262.79L249.37, 183.64L320.8, 112.26L286.86, 78.34L165.72, 199.34A87.62 87.62 0 0 0 142.22, 241.77L113.91, 364.24L5.27, 472.81A18 18 0 0 0 5.27, 498.25L13.76, 506.73A18 18 0 0 0 39.21, 506.73L147.87, 398.14L270.37, 369.9A87.85 87.85 0 0 0 312.78, 346.39L433.94, 225.33L400, 191.41zM278.81, 312.49A39.75 39.75 0 0 1 259.56, 323.15L167.78, 344.33L189, 252.59A39.74 39.74 0 0 1 199.69, 233.32L215.46, 217.56L294.65, 296.7z" fill="#727272" fill-opacity="1" class="Black" />
  </g>
</svg>