<?xml version='1.0' encoding='UTF-8'?>
<svg viewBox="-1.9975 -4.7992 31.9975 32" xmlns="http://www.w3.org/2000/svg">
  <g transform="matrix(0.9988, 0, 0, 0.9988, 0, 0)">
    <g transform="matrix(0.0438, 0, 0, 0.0438, 0, 0)">
      <path d="M635.31, 185.59L454.29, 4.68A16 16 0 0 0 431.67, 4.68L420.35, 16A16 16 0 0 0 420.35, 38.61L601.35, 219.51A16 16 0 0 0 623.98, 219.51L635.29, 208.21A16 16 0 0 0 635.31, 185.59zM456.56, 262.79L377.37, 183.64L448.8, 112.26L414.86, 78.34L293.72, 199.34A87.62 87.62 0 0 0 270.22, 241.77L241.91, 364.24L133.27, 472.81A18 18 0 0 0 133.27, 498.25L141.76, 506.73A18 18 0 0 0 167.21, 506.73L275.88, 398.14L398.37, 369.9A87.85 87.85 0 0 0 440.78, 346.39L561.94, 225.33L528, 191.41zM406.81, 312.49A39.75 39.75 0 0 1 387.56, 323.15L295.78, 344.33L317, 252.59A39.74 39.74 0 0 1 327.69, 233.32L343.46, 217.56L422.65, 296.7zM207.93, 353L212.8, 348.14L223.31, 302.67L89.38, 168.79L168.58, 89.64L264, 185C266.33, 182.21 268.57, 179.36 271.15, 176.78L297.42, 150.53L202.52, 55.72L219.65, 38.6A16 16 0 0 0 219.65, 15.99L208.33, 4.68A16 16 0 0 0 185.71, 4.68L4.69, 185.59A16 16 0 0 0 4.69, 208.2L16, 219.5A16 16 0 0 0 38.63, 219.5L55.44, 202.71L199.22, 346.39C201.81, 349 205.05, 350.72 207.93, 353zM427.36, 393.53A120.22 120.22 0 0 1 405.56, 401.13L374.29, 408.34L472.79, 506.77A18 18 0 0 0 498.24, 506.77L506.73, 498.29A18 18 0 0 0 506.73, 472.85z" fill="#727272" fill-opacity="1" class="Black" />
    </g>
  </g>
</svg>