<?xml version='1.0' encoding='UTF-8'?>
<svg viewBox="-2 -2 32 32" xmlns="http://www.w3.org/2000/svg">
  <g transform="matrix(0.0547, 0, 0, 0.0547, 0, 0)">
    <path d="M384, 215.1L384, 102.5C384, 87.5 374.7, 74.1 360.6, 68.8L268.6, 34.3C260.5, 31.2 251.5, 31.2 243.3, 34.3L151.3, 68.8C137.2, 74.1 127.9, 87.5 127.9, 102.5L127.9, 215.1L23.4, 254.4C9.3, 259.6 0, 273.1 0, 288.1L0, 394.7C0, 408.3 7.7, 420.8 19.9, 426.9L118.5, 476.2C128.6, 481.3 140.6, 481.3 150.7, 476.2L256, 423.6L361.3, 476.2C371.4, 481.3 383.4, 481.3 393.5, 476.2L492.1, 426.9C504.3, 420.8 512, 408.3 512, 394.7L512, 288.1C512, 273.1 502.7, 259.7 488.6, 254.4L384, 215.1zM268, 249.9L268, 152L360, 120.3L360, 217.9L268, 249.9zM152, 94.2L256, 55.2L360, 94.2L360, 94.4L256, 131L152, 94.3L152, 94.2zM152, 120.3L244, 152L244, 249.9L152, 217.9L152, 120.3zM122, 449.7L25.2, 401.3L25.2, 308L122, 347.3L122, 449.7zM25.2, 280.8L25.2, 280.6L134.6, 239.6L242.7, 280.1L242.7, 281.3L134.6, 325.2L25.2, 280.8zM147.2, 347.3L242.7, 308.5L242.7, 402L147.2, 449.8L147.2, 347.3zM364.8, 449.7L269.3, 402L269.3, 308.6L364.8, 347.4L364.8, 449.7zM486.8, 401.3L390, 449.7L390, 347.3L486.8, 308L486.8, 401.3zM486.8, 280.8L377.4, 325.2L269.3, 281.3L269.3, 280.1L377.4, 239.6L486.8, 280.6L486.8, 280.8z" fill="#727272" fill-opacity="1" class="Black" />
  </g>
</svg>