<?xml version='1.0' encoding='UTF-8'?>
<svg viewBox="-2 -4.7992 32 32" xmlns="http://www.w3.org/2000/svg">
  <g transform="matrix(0.9988, 0, 0, 0.9988, 0, 0)">
    <g transform="matrix(0.0438, 0, 0, 0.0438, 0, 0)">
      <path d="M540.5, 199.7C529.7, 158.5 492.6, 128 448, 128L288, 128L288, 112C288, 85.5 309.5, 64 336, 64L464, 64C472.8, 64 480, 56.8 480, 48L480, 16C480, 7.2 472.8, 0 464, 0L336, 0C274.1, 0 224, 50.1 224, 112L224, 128L192, 128C147.4, 128 110.3, 158.5 99.5, 199.7C41.9, 218.6 0, 272.1 0, 336L0, 368C0, 447.5 64.5, 512 144, 512L496, 512C575.5, 512 640, 447.5 640, 368L640, 336C640, 272.1 598.1, 218.6 540.5, 199.7zM144, 240L496, 240C548.9, 240 592, 283.1 592, 336L48, 336C48, 283.1 91.1, 240 144, 240zM496, 464L144, 464C91.1, 464 48, 420.9 48, 368L592, 368C592, 420.9 548.9, 464 496, 464z" fill="#727272" fill-opacity="1" class="Black" />
    </g>
  </g>
</svg>