<?xml version='1.0' encoding='UTF-8'?>
<svg viewBox="-2 -0.0014 32 32" xmlns="http://www.w3.org/2000/svg">
  <g transform="matrix(0.0625, 0, 0, 0.0625, 0, 0)">
    <path d="M263.39, 256L445.66, 73.37C448.78, 70.25 448.78, 65.18 445.66, 62.06C426.92, 43.32 396.52, 43.32 377.78, 62.06L223.82, 216.35L180.72, 173.17C187.92, 159.71 192, 144.33 192, 128C192, 74.98 149.02, 32 96, 32C42.98, 32 0, 74.98 0, 128C0, 181.02 42.98, 224 96, 224C112.31, 224 127.66, 219.93 141.11, 212.76L184.26, 256L141.11, 299.24C127.66, 292.07 112.31, 288 96, 288C42.98, 288 0, 330.98 0, 384C0, 437.02 42.98, 480 96, 480C149.02, 480 192, 437.02 192, 384C192, 367.67 187.92, 352.29 180.72, 338.83L223.82, 295.65L377.77, 449.94C396.51, 468.68 426.91, 468.68 445.65, 449.94C448.77, 446.82 448.77, 441.75 445.65, 438.63L263.39, 256zM96, 176C69.53, 176 48, 154.47 48, 128C48, 101.53 69.53, 80 96, 80C122.47, 80 144, 101.53 144, 128C144, 154.47 122.47, 176 96, 176zM96, 432C69.53, 432 48, 410.47 48, 384C48, 357.53 69.53, 336 96, 336C122.47, 336 144, 357.53 144, 384C144, 410.47 122.47, 432 96, 432z" fill="#727272" fill-opacity="1" class="Black" />
  </g>
</svg>