<?xml version='1.0' encoding='UTF-8'?>
<svg viewBox="-3.7495 -2 32 32" xmlns="http://www.w3.org/2000/svg">
  <g transform="matrix(0.0547, 0, 0, 0.0547, 0, 0)">
    <path d="M224, 48C321.167, 48 400, 75.723 400, 109.714L400, 114.285C400, 148.277 321.167, 176 224, 176C126.833, 176 48, 148.277 48, 114.286L48, 109.715C48, 75.723 126.833, 48 224, 48M400, 183.018L400, 209.417C400, 243.408 321.167, 271.131 224, 271.131C126.833, 271.131 48, 243.408 48, 209.417L48, 183.018C85.813, 210.982 155.021, 224 224, 224C292.979, 224 362.187, 210.982 400, 183.018M400, 279.018L400, 305.852C400, 339.843 321.167, 367.566 224, 367.566C126.833, 367.566 48, 339.842 48, 305.851L48, 279.017C85.813, 306.982 155.021, 320 224, 320C292.979, 320 362.187, 306.982 400, 279.018M400, 375.018L400, 402.286C400, 436.277 321.167, 464 224, 464C126.833, 464 48, 436.277 48, 402.286L48, 375.018C85.813, 402.982 155.021, 416 224, 416C292.979, 416 362.187, 402.982 400, 375.018M224, 0C137.052, 0 0, 23.26 0, 109.714L0, 402.285C0, 488.758 137.03, 512 224, 512C310.948, 512 448, 488.74 448, 402.286L448, 109.714C448, 23.242 310.97, 0 224, 0z" fill="#727272" fill-opacity="1" class="Black" />
  </g>
</svg>