<?xml version='1.0' encoding='UTF-8'?>
<svg viewBox="-1.5477 -1.5477 32 32" xmlns="http://www.w3.org/2000/svg">
  <g transform="matrix(0.9991, 0, 0, 0.9991, 0, 0)">
    <g transform="matrix(0.0565, 0, 0, 0.0565, 0, 0)">
      <path d="M117.75, 271A16 16 0 1 0 122.25, 302.68L165, 296.59A90.21 90.21 0 0 0 175.81, 335.59L140.3, 359.28A16 16 0 1 0 158, 385.89L195.64, 360.79A87.82 87.82 0 0 0 278.88, 380.73L162.77, 264.58zM256, 8C119, 8 8, 119 8, 256C8, 393 119, 504 256, 504C393, 504 504, 393 504, 256C504, 119 393, 8 256, 8zM256, 456C145.72, 456 56, 366.28 56, 256A198.86 198.86 0 0 1 98.81, 132.75L379.25, 413.19A198.86 198.86 0 0 1 256, 456zM413.19, 379.25L345, 311.08A89.64 89.64 0 0 0 347, 296.59L389.73, 302.7A16 16 0 1 0 394.23, 271.02L347.41, 264.33L347.41, 239.68L394.23, 232.98A16 16 0 1 0 389.73, 201.3L346.21, 207.52A90.15 90.15 0 0 0 336.21, 176.42L371.72, 152.73A16 16 0 1 0 354, 126.11L316.36, 151.21A90.27 90.27 0 0 0 190.28, 156.31L132.78, 98.81A198.86 198.86 0 0 1 256, 56C366.28, 56 456, 145.72 456, 256A198.86 198.86 0 0 1 413.19, 379.25z" fill="#727272" fill-opacity="1" class="Black" />
    </g>
  </g>
</svg>