<?xml version='1.0' encoding='UTF-8'?>
<svg viewBox="-2.0035 -1.9999 32 31.9975" xmlns="http://www.w3.org/2000/svg">
  <g transform="matrix(0.0547, 0, 0, 0.0547, 0, 0)">
    <path d="M384, 160C375.2, 160 368, 167.2 368, 176C368, 184.8 375.2, 192 384, 192C392.8, 192 400, 184.8 400, 176C400, 167.2 392.8, 160 384, 160zM465.4, 108.5L396.7, 89.1C399.7, 85.8 402.9, 82.8 405.4, 79.1L423.5, 52C428.4, 44.7 426.4, 34.7 419.1, 29.8L405.8, 20.9C398.4, 16 388.5, 18 383.6, 25.3L365.5, 52.5C361.6, 58.3 356.3, 63 350.1, 66.1L301.3, 90.5L291.8, 87.7C299.7, 77.8 304.1, 65.4 304.1, 52.7L304.1, 16C304.1, 7.2 296.9, 0 288.1, 0L272.1, 0C263.3, 0 256.1, 7.2 256.1, 16L256.1, 52.8C256.1, 54.6 255.5, 56.4 254.4, 57.8L241, 74.6L230, 71.5C226.6, 70.5 224.2, 67.4 224.2, 63.8L224.2, 16C224.2, 7.2 217, 0 208.2, 0L192.2, 0C183.4, 0 176.2, 7.2 176.2, 16L176.2, 63.8C176.2, 88.8 193, 111 217.1, 117.7L280.9, 135.6L266.3, 160L88, 160C39.5, 160 0, 199.5 0, 248L0, 312L48, 312L48, 319.2L37.6, 347C31.4, 363.8 30.3, 381.9 35, 400.3L59.5, 481.8C64, 499.6 79.9, 512.1 98.3, 512.1L162.1, 512.1C174.5, 512.1 186, 506.5 193.6, 496.8C201.2, 487 203.9, 474.5 200.6, 461.4L176.6, 380.7L187.3, 352.1L240, 352.1L240, 472.1C240, 494.2 257.9, 512.1 280, 512.1L344, 512.1C366.1, 512.1 384, 494.2 384, 472.1L384, 295.3L404.8, 264L448, 264C483.3, 264 512, 235.3 512, 200L512, 170.1C512, 141.6 492.8, 116.3 465.4, 108.5zM464, 200C464, 208.8 456.8, 216 448, 216L379.2, 216L336, 280.7L336, 464L288, 464L288, 304L154, 304L125.9, 378.8L151.3, 464L104.2, 464L81.1, 387.5C79.1, 379.6 79.6, 371.4 82.4, 363.8L96.5, 332L96, 264L48, 264L48, 248C48, 225.9 65.9, 208 88, 208L293.7, 208L328.2, 149.2C335.7, 134.2 352.8, 126.7 369, 131.2L452.3, 154.7C459.2, 156.6 464, 163 464, 170.1L464, 200z" fill="#727272" fill-opacity="1" class="Black" />
  </g>
</svg>