<?xml version='1.0' encoding='UTF-8'?>
<svg viewBox="-1.9998 -3.5538 31.9975 32" xmlns="http://www.w3.org/2000/svg">
  <g transform="matrix(0.0486, 0, 0, 0.0486, 0, 0)">
    <path d="M400, 160C391.2, 160 384, 167.2 384, 176C384, 184.8 391.2, 192 400, 192C408.8, 192 416, 184.8 416, 176C416, 167.2 408.8, 160 400, 160zM536, 96C520.5, 96 507.5, 105.1 500.8, 118C495, 113.9 488.5, 110.6 481.4, 108.6L412.7, 89.2C415.7, 85.9 418.9, 82.9 421.4, 79.2L439.5, 52C444.4, 44.6 442.4, 34.7 435.1, 29.8L421.8, 20.9C414.4, 16 404.5, 18 399.6, 25.3L381.5, 52.5C377.6, 58.3 372.3, 63 366.1, 66.1L317.3, 90.5L316, 91.1L307, 88.6L307.7, 87.7C315.6, 77.8 320, 65.4 320, 52.7L320, 16C320, 7.2 312.8, 0 304, 0L288, 0C279.2, 0 272, 7.2 272, 16L272, 52.8C272, 54.6 271.4, 56.4 270.3, 57.8L256.9, 74.6L245.9, 71.5C242.5, 70.5 240.1, 67.4 240.1, 63.8L240.1, 16C240.1, 7.2 232.9, 0 224.1, 0L208.1, 0C199.3, 0 192.1, 7.2 192.1, 16L192.1, 63.8C192.1, 88.8 208.9, 111 233, 117.7L296.8, 135.6L282.3, 160L88, 160C39.5, 160 0, 199.5 0, 248L0, 312L48, 312L48, 319.2L37.6, 347C31.4, 363.8 30.3, 381.9 35, 400.3L59.5, 481.8C64, 499.6 79.9, 512.1 98.3, 512.1L162.1, 512.1C174.5, 512.1 186, 506.5 193.6, 496.8C201.2, 487 203.9, 474.5 200.6, 461.4L176.6, 380.7L187.3, 352.1L256, 352.1L256, 472.1C256, 494.2 273.9, 512.1 296, 512.1L360, 512.1C382.1, 512.1 400, 494.2 400, 472.1L400, 302.4L421.9, 264L464, 264C499.3, 264 528, 235.3 528, 200L528, 174.4C530.7, 175 533.2, 176 536, 176C558.1, 176 576, 158.1 576, 136C576, 113.9 558.1, 96 536, 96zM480, 200C480, 208.8 472.8, 216 464, 216L394.1, 216L352, 289.6L352, 464L304, 464L304, 304L154, 304L125.9, 378.8L151.3, 464L104.2, 464L81.1, 387.5C79.1, 379.6 79.6, 371.4 82.4, 363.8L96.5, 332L96, 264L48, 264L48, 248C48, 225.9 65.9, 208 88, 208L309.7, 208L344.2, 149.2C351.7, 134.2 368.8, 126.7 385, 131.2L468.3, 154.7C475.2, 156.6 480, 163 480, 170.1L480, 200z" fill="#727272" fill-opacity="1" class="Black" />
  </g>
</svg>