<?xml version='1.0' encoding='UTF-8'?>
<svg viewBox="-1.9998 -3.5563 31.9975 32" xmlns="http://www.w3.org/2000/svg">
  <g transform="matrix(0.0486, 0, 0, 0.0486, 0, 0)">
    <path d="M528, 0L48, 0C21.5, 0 0, 21.5 0, 48L0, 336C0, 362.5 21.5, 384 48, 384L528, 384C554.5, 384 576, 362.5 576, 336L576, 48C576, 21.5 554.5, 0 528, 0zM48, 54C48, 50.7 50.7, 48 54, 48L522, 48C525.3, 48 528, 50.7 528, 54L528, 288L48, 288L48, 54zM480, 488C480, 501.3 469.3, 512 456, 512L120, 512C106.7, 512 96, 501.3 96, 488C96, 474.7 106.7, 464 120, 464L218.7, 464L237.3, 408.2C238.9, 403.3 243.5, 400 248.7, 400L327.4, 400C332.6, 400 337.2, 403.3 338.8, 408.2L357.4, 464L456, 464C469.3, 464 480, 474.7 480, 488z" fill="#727272" fill-opacity="1" class="Black" />
  </g>
</svg>