<?xml version='1.0' encoding='UTF-8'?>
<svg viewBox="-3.7495 -2 32 32" xmlns="http://www.w3.org/2000/svg">
  <g transform="matrix(0.0547, 0, 0, 0.0547, 0, 0)">
    <path d="M176, 0C163.6, 0 151.3, 6.8 146.8, 20.7C100, 168.6 0, 240.8 0, 345C0, 437.3 78.7, 512 176, 512C273.3, 512 352, 437.3 352, 345C352, 240.2 252.2, 169.2 205.2, 20.7C201.2, 7.1 188.6, 0 176, 0zM304, 345C304, 410.6 246.6, 464 176, 464C105.4, 464 48, 410.6 48, 345C48, 302.1 73.1, 262.1 104.8, 211.5C128.5, 173.7 154.7, 131.9 176, 80.5C197.4, 132.2 223.6, 173.9 247.4, 211.7C279, 262.1 304, 301.9 304, 345zM368, 0C323.9, 0 288, 35.9 288, 80C288, 124.1 323.9, 160 368, 160C412.1, 160 448, 124.1 448, 80C448, 35.9 412.1, 0 368, 0zM368, 112C350.3, 112 336, 97.7 336, 80C336, 62.3 350.3, 48 368, 48C385.7, 48 400, 62.3 400, 80C400, 97.7 385.7, 112 368, 112z" fill="#727272" fill-opacity="1" class="Black" />
  </g>
</svg>