<?xml version='1.0' encoding='UTF-8'?>
<svg viewBox="-2 -2 32 32" xmlns="http://www.w3.org/2000/svg">
  <g transform="matrix(0.0547, 0, 0, 0.0547, 0, 0)">
    <path d="M499.23, 232.01L478.77, 232.63C474.17, 188.3 456.61, 147.85 429.99, 115.04L444.95, 100.97C450.08, 96.25 450.25, 88.21 445.32, 83.28L428.72, 66.68C423.79, 61.75 415.75, 61.92 411.03, 67.05L396.96, 82.01C364.15, 55.39 323.7, 37.83 279.37, 33.23L279.99, 12.77C280.28, 5.8 274.71, 0 267.74, 0L244.26, 0C237.29, 0 231.72, 5.8 232.01, 12.77L232.63, 33.23C188.3, 37.83 147.86, 55.39 115.04, 82.01L100.97, 67.05C96.25, 61.92 88.21, 61.75 83.28, 66.68L66.68, 83.28C61.75, 88.21 61.92, 96.25 67.05, 100.97L82.01, 115.04C55.39, 147.85 37.83, 188.3 33.23, 232.63L12.77, 232.01C5.8, 231.72 0, 237.29 0, 244.26L0, 267.74C0, 274.71 5.8, 280.28 12.77, 279.99L33.23, 279.37C37.83, 323.7 55.39, 364.14 82.01, 396.96L67.05, 411.03C61.92, 415.75 61.75, 423.79 66.68, 428.72L83.28, 445.32C88.21, 450.25 96.25, 450.08 100.97, 444.95L115.04, 429.99C147.85, 456.61 188.3, 474.17 232.63, 478.77L232.01, 499.23C231.72, 506.19 237.29, 512 244.26, 512L267.74, 512C274.71, 512 280.28, 506.19 279.99, 499.23L279.37, 478.77C323.7, 474.17 364.14, 456.61 396.96, 429.99L411.03, 444.95C415.75, 450.08 423.79, 450.25 428.72, 445.32L445.32, 428.72C450.25, 423.79 450.08, 415.75 444.95, 411.03L429.99, 396.96C456.61, 364.15 474.17, 323.7 478.77, 279.37L499.23, 279.99C506.2, 280.28 512, 274.71 512, 267.74L512, 244.26C512, 237.29 506.2, 231.72 499.23, 232.01zM430.49, 234.11L350.01, 236.57C347.52, 224.51 342.68, 213.32 336.12, 203.37L394.79, 148.17C413.77, 172.54 426.47, 201.96 430.49, 234.11zM256, 304C229.49, 304 208, 282.51 208, 256C208, 229.49 229.49, 208 256, 208C282.51, 208 304, 229.49 304, 256C304, 282.51 282.51, 304 256, 304zM363.84, 117.21L308.64, 175.88C298.69, 169.32 287.5, 164.48 275.44, 161.99L277.9, 81.51C310.04, 85.52 339.46, 98.23 363.84, 117.21zM234.11, 81.51L236.57, 161.99C224.51, 164.48 213.32, 169.32 203.37, 175.88L148.17, 117.21C172.54, 98.23 201.96, 85.52 234.11, 81.51zM117.21, 148.16L175.88, 203.36C169.32, 213.31 164.48, 224.5 161.99, 236.56L81.51, 234.1C85.53, 201.96 98.23, 172.54 117.21, 148.16zM81.51, 277.89L161.99, 275.43C164.48, 287.49 169.32, 298.68 175.88, 308.63L117.21, 363.83C98.23, 339.46 85.52, 310.04 81.51, 277.89zM148.16, 394.79L203.36, 336.12C213.31, 342.68 224.5, 347.52 236.56, 350.01L234.1, 430.49C201.96, 426.48 172.54, 413.77 148.16, 394.79zM277.89, 430.49L275.43, 350.01C287.49, 347.52 298.68, 342.68 308.63, 336.12L363.83, 394.79C339.46, 413.77 310.04, 426.48 277.89, 430.49zM394.79, 363.84L336.12, 308.64C342.68, 298.69 347.52, 287.5 350.01, 275.44L430.49, 277.9C426.48, 310.04 413.77, 339.46 394.79, 363.84z" fill="#727272" fill-opacity="1" class="Black" />
  </g>
</svg>