<?xml version='1.0' encoding='UTF-8'?>
<svg viewBox="-2 -4.7992 32 32" xmlns="http://www.w3.org/2000/svg">
  <g transform="matrix(0.9988, 0, 0, 0.9988, 0, 0)">
    <g transform="matrix(0.0438, 0, 0, 0.0438, 0, 0)">
      <path d="M632, 464L8, 464C3.6, 464 0, 467.6 0, 472L0, 504C0, 508.4 3.6, 512 8, 512L632, 512C636.4, 512 640, 508.4 640, 504L640, 472C640, 467.6 636.4, 464 632, 464zM256, 304C256, 312.8 263.2, 320 272, 320C280.8, 320 288, 312.8 288, 304C288, 295.2 280.8, 288 272, 288C263.2, 288 256, 295.2 256, 304zM496, 256C504.8, 256 512, 248.8 512, 240C512, 231.2 504.8, 224 496, 224C487.2, 224 480, 231.2 480, 240C480, 248.8 487.2, 256 496, 256zM96, 272C104.8, 272 112, 264.8 112, 256C112, 247.2 104.8, 240 96, 240C87.2, 240 80, 247.2 80, 256C80, 264.8 87.2, 272 96, 272zM584.6, 328.4L566.8, 355.1C563.7, 359.7 558.7, 362.3 553.5, 362.3C543.7, 362.3 497.9, 327.4 416, 303.4L416, 416L464, 416L464, 372.2C490.3, 383.9 510.7, 395.3 521, 401.4C530.9, 407.2 542.1, 410.3 553.5, 410.3C574.9, 410.3 594.8, 399.6 606.7, 381.7L624.5, 355C634.2, 340.4 637.6, 322.3 633.7, 305.3C629.9, 288.4 619.2, 273.6 604.3, 264.7C590.5, 256.4 569, 244.6 543.1, 232.4C547.3, 258.9 529.8, 273.9 525.7, 277.3C548.9, 288.4 567.9, 298.9 579.6, 305.9C587.6, 310.6 589.7, 320.8 584.6, 328.4zM33.2, 381.7C45.1, 399.6 65, 410.3 86.4, 410.3C97.8, 410.3 109.1, 407.2 118.9, 401.4C129.2, 395.3 149.6, 383.9 175.9, 372.2L175.9, 416L223.9, 416L223.9, 303.4C142.8, 327.2 96, 362.3 86.4, 362.3C81.2, 362.3 76.2, 359.8 73.1, 355.1L55.3, 328.4C50.2, 320.8 52.4, 310.6 60.2, 305.9C63.8, 303.7 68.7, 301 73.6, 298.2C58.9, 290.4 48.7, 275.2 48.1, 257.5C43.7, 260 39, 262.6 35.5, 264.7C20.6, 273.6 9.9, 288.4 6.1, 305.3C2.3, 322.3 5.6, 340.4 15.3, 355L33.2, 381.7zM143.2, 264.4C192.7, 243.5 255.7, 224 320, 224C364.9, 224 409, 233.6 448.6, 246.4C445, 219.8 462.7, 205.3 466.9, 202C447, 195.4 425.8, 189.7 403.9, 185.2C421.1, 165.5 431.9, 140.1 431.9, 111.9C432, 50.2 381.8, 0 320, 0C258.2, 0 208, 50.2 208, 112C208, 140 218.7, 165.4 235.8, 185.1C196, 193.2 158.7, 205.9 126.5, 219.3C141.8, 232 145.8, 249.5 143.2, 264.4zM320, 48C355.3, 48 384, 76.7 384, 112C384, 147.3 355.3, 176 320, 176C284.7, 176 256, 147.3 256, 112C256, 76.7 284.7, 48 320, 48zM352, 384C352, 392.8 359.2, 400 368, 400C376.8, 400 384, 392.8 384, 384C384, 375.2 376.8, 368 368, 368C359.2, 368 352, 375.2 352, 384z" fill="#727272" fill-opacity="1" class="Black" />
    </g>
  </g>
</svg>