<?xml version='1.0' encoding='UTF-8'?>
<svg viewBox="-2 -2 32 32" xmlns="http://www.w3.org/2000/svg">
  <g transform="matrix(0.0547, 0, 0, 0.0547, 0, 0)">
    <path d="M502.12, 232.14L279.86, 9.88C273.27, 3.29 264.64, 0 256, 0C247.36, 0 238.73, 3.29 232.14, 9.88L9.88, 232.14C-3.3, 245.32 -3.3, 266.69 9.88, 279.87L232.13, 502.12C238.72, 508.71 247.36, 512 255.99, 512C264.62, 512 273.26, 508.71 279.85, 502.12L502.1, 279.87C515.29, 266.68 515.29, 245.32 502.12, 232.14zM280, 77.9L446.38, 244.28L280, 315.6L280, 77.9zM232, 315.6L65.62, 244.29L232, 77.9L232, 315.6zM232, 367.82L232, 434.09L116.04, 318.13L232, 367.82zM280, 367.82L395.97, 318.13L280, 434.1L280, 367.82z" fill="#727272" fill-opacity="1" class="Black" />
  </g>
</svg>