<?xml version='1.0' encoding='UTF-8'?>
<svg viewBox="-2 0 32 32" xmlns="http://www.w3.org/2000/svg">
  <g transform="matrix(0.0625, 0, 0, 0.0625, 0, 0)">
    <path d="M384, 32L64, 32C28.65, 32 0, 60.65 0, 96L0, 416C0, 451.35 28.65, 480 64, 480L384, 480C419.35, 480 448, 451.35 448, 416L448, 96C448, 60.65 419.35, 32 384, 32zM400, 416C400, 424.82 392.82, 432 384, 432L64, 432C55.18, 432 48, 424.82 48, 416L48, 96C48, 87.18 55.18, 80 64, 80L384, 80C392.82, 80 400, 87.18 400, 96L400, 416zM128, 128C110.33, 128 96, 142.33 96, 160C96, 177.67 110.33, 192 128, 192C145.67, 192 160, 177.67 160, 160C160, 142.33 145.67, 128 128, 128zM320, 320C302.33, 320 288, 334.33 288, 352C288, 369.67 302.33, 384 320, 384C337.67, 384 352, 369.67 352, 352C352, 334.33 337.67, 320 320, 320z" fill="#727272" fill-opacity="1" class="Black" />
  </g>
</svg>