<?xml version='1.0' encoding='UTF-8'?>
<svg viewBox="-1.9975 -4.7983 32 32" xmlns="http://www.w3.org/2000/svg">
  <g transform="matrix(0.9989, 0, 0, 0.9989, 0, 0)">
    <g transform="matrix(0.0438, 0, 0, 0.0438, 0, 0)">
      <path d="M480, 328C466.75, 328 456, 338.74 456, 352C456, 365.25 466.75, 376 480, 376C493.25, 376 504, 365.25 504, 352C504, 338.74 493.25, 328 480, 328zM576, 192L439.38, 192L439.38, 192.01C436.49, 186.84 433.12, 181.86 428.72, 177.46L270.54, 19.28C257.69, 6.42 240.84, 0 224, 0C207.16, 0 190.31, 6.42 177.46, 19.28L19.28, 177.46C-6.42, 203.16 -6.42, 244.84 19.28, 270.54L177.46, 428.72C190.31, 441.57 207.16, 448 224, 448C240.84, 448 257.69, 441.57 270.54, 428.72L320, 379.26L320, 448C320, 483.35 348.65, 512 384, 512L576, 512C611.35, 512 640, 483.35 640, 448L640, 256C640, 220.65 611.35, 192 576, 192zM235.63, 393.82C231.44, 398.01 226.54, 398.64 224, 398.64C221.46, 398.64 216.56, 398.01 212.37, 393.82L54.18, 235.63C47.76, 229.21 47.76, 218.77 54.18, 212.36L212.37, 54.18C216.56, 49.99 221.46, 49.36 224, 49.36C226.54, 49.36 231.44, 49.99 235.63, 54.18L393.82, 212.36C400.24, 218.77 400.24, 229.21 393.82, 235.63L235.63, 393.82zM592, 448C592, 456.82 584.82, 464 576, 464L384, 464C375.18, 464 368, 456.82 368, 448L368, 331.26L428.72, 270.54C437.45, 261.81 442.98, 251.17 445.77, 240L576, 240C584.82, 240 592, 247.18 592, 256L592, 448zM224, 200C210.75, 200 200, 210.74 200, 224C200, 237.25 210.75, 248 224, 248C237.25, 248 248, 237.25 248, 224C248, 210.74 237.25, 200 224, 200zM320, 200C306.75, 200 296, 210.74 296, 224C296, 237.25 306.75, 248 320, 248C333.25, 248 344, 237.25 344, 224C344, 210.74 333.25, 200 320, 200zM128, 200C114.75, 200 104, 210.74 104, 224C104, 237.25 114.75, 248 128, 248C141.25, 248 152, 237.25 152, 224C152, 210.74 141.25, 200 128, 200zM224, 296C210.75, 296 200, 306.74 200, 320C200, 333.25 210.75, 344 224, 344C237.25, 344 248, 333.25 248, 320C248, 306.74 237.25, 296 224, 296zM224, 104C210.75, 104 200, 114.74 200, 128C200, 141.25 210.75, 152 224, 152C237.25, 152 248, 141.25 248, 128C248, 114.74 237.25, 104 224, 104z" fill="#727272" fill-opacity="1" class="Black" />
    </g>
  </g>
</svg>