<?xml version='1.0' encoding='UTF-8'?>
<svg viewBox="-3.7484 -1.9975 32 32" xmlns="http://www.w3.org/2000/svg">
  <g transform="matrix(0.0547, 0, 0, 0.0547, 0, 0)">
    <path d="M431.88, 116.13L239.88, 4.3A31.478 31.478 0 0 0 208.12, 4.3L16.12, 116.14C6.15, 121.94 0, 132.75 0, 144.45L0, 367.54C0, 379.25 6.15, 390.05 16.12, 395.86L208.12, 507.7A31.478 31.478 0 0 0 239.88, 507.7L431.88, 395.86C441.85, 390.05 448, 379.24 448, 367.54L448, 144.45C448, 132.75 441.85, 121.94 431.88, 116.13zM224, 87.87L296.47, 184L151.53, 184L224, 87.87zM224, 339.29L155.72, 232L292.28, 232L224, 339.29zM113.12, 254.47L176.49, 354.05L93.07, 334.68L113.12, 254.47zM334.88, 254.47L354.93, 334.68L271.51, 354.05L334.88, 254.47zM351.48, 177.25L281.07, 83.84L387.09, 145.6L351.48, 177.25zM96.52, 177.25L60.91, 145.6L166.93, 83.84L96.52, 177.25zM72.28, 219.91L48, 317.05L48, 198.33L72.28, 219.91zM200, 408.78L200, 447.42L89.71, 383.18L200, 408.78zM248, 408.78L358.29, 383.17L248, 447.42L248, 408.78zM400, 317.05L375.72, 219.92L400, 198.33L400, 317.05z" fill="#727272" fill-opacity="1" class="Black" />
  </g>
</svg>