<?xml version='1.0' encoding='UTF-8'?>
<svg viewBox="-2 -2 32 32" xmlns="http://www.w3.org/2000/svg">
  <g transform="matrix(0.0547, 0, 0, 0.0547, 0, 0)">
    <path d="M508.62, 185.24L452.77, 73.54A32.06 32.06 0 0 0 438.46, 59.23L326.76, 3.38A32.066 32.066 0 0 0 312.45, 0L199.55, 0C194.58, 0 189.68, 1.16 185.24, 3.38L73.54, 59.23A32.06 32.06 0 0 0 59.23, 73.54L3.38, 185.24A32.066 32.066 0 0 0 0, 199.55L0, 312.44C0, 317.41 1.16, 322.31 3.38, 326.75L59.23, 438.45A32.06 32.06 0 0 0 73.54, 452.76L185.24, 508.61C189.68, 510.83 194.58, 511.99 199.55, 511.99L312.44, 511.99C317.41, 511.99 322.31, 510.83 326.75, 508.61L438.45, 452.76A32.06 32.06 0 0 0 452.76, 438.45L508.61, 326.75C510.83, 322.31 511.99, 317.41 511.99, 312.44L511.99, 199.55C512, 194.59 510.84, 189.69 508.62, 185.24zM455, 185.34L376.82, 289.58L280, 241.17L280, 147.67L420.72, 119.53L419.79, 114.92L455, 185.34zM300.56, 464L211.45, 464L158.49, 331.59L256, 282.83L353.52, 331.59L300.56, 464zM203.33, 48L308.67, 48L372.95, 80.14L256, 103.53L139.06, 80.14L203.33, 48zM92.21, 114.92L91.28, 119.53L232, 147.68L232, 241.18L135.18, 289.59L57, 185.34L92.21, 114.92zM48, 308.67L48, 253.32L106.9, 331.85L148.86, 436.76L99.78, 412.22L48, 308.67zM412.22, 412.22L363.14, 436.76L405.1, 331.85L464, 253.32L464, 308.67L412.22, 412.22z" fill="#727272" fill-opacity="1" class="Black" />
  </g>
</svg>