<?xml version='1.0' encoding='UTF-8'?>
<svg viewBox="-2.01 -3.541 32 32" xmlns="http://www.w3.org/2000/svg">
  <g transform="matrix(0.0486, 0, 0, 0.0486, 0, 0)">
    <path d="M272, 96A48 48 0 1 0 224, 48A48 48 0 0 0 272, 96zM311.06, 416A32 32 0 0 0 280.71, 437.88L256, 512L576, 512L474.07, 305.69A32 32 0 0 0 418, 303.54L386.48, 357.23L311.48, 316.71L289, 194.56A121.81 121.81 0 0 0 223.53, 108.94A123 123 0 0 0 168.72, 96L96, 96A24 24 0 0 0 78.06, 104.06L21.2, 170.38A32 32 0 0 0 30.2, 219.38L361.8, 399.28L352, 416zM107.84, 206L70, 185.38L106.78, 144L162.11, 144zM190.35, 251L239.53, 196.37L257.53, 287.52zM393.35, 440.26L444.19, 353.63L498.75, 464L379.48, 464zM195.5, 346.94L65.33, 273.88L1.09, 480.88A24 24 0 1 0 46.9, 495.11L93.25, 345.84L160, 382.25L160, 488A24 24 0 0 0 208, 488L208, 368A24 24 0 0 0 195.5, 346.94z" fill="#727272" fill-opacity="1" class="Black" />
  </g>
</svg>