<?xml version='1.0' encoding='UTF-8'?>
<svg viewBox="-1.9999 -4.7979 32 31.9975" xmlns="http://www.w3.org/2000/svg">
  <g transform="matrix(1.0011, 0, 0, 1.0011, 0, 0)">
    <g transform="matrix(0.0437, 0, 0, 0.0437, 0, 0)">
      <path d="M608, 96L32, 96C14.33, 96 0, 110.33 0, 128L0, 384C0, 401.67 14.33, 416 32, 416L608, 416C625.67, 416 640, 401.67 640, 384L640, 128C640, 110.33 625.67, 96 608, 96zM592, 368L48, 368L48, 144L592, 144L592, 368zM96, 240L288, 240C296.84, 240 304, 232.84 304, 224L304, 192C304, 183.16 296.84, 176 288, 176L96, 176C87.16, 176 80, 183.16 80, 192L80, 224C80, 232.84 87.16, 240 96, 240zM88, 344L296, 344C300.42, 344 304, 340.42 304, 336L304, 328C304, 323.58 300.42, 320 296, 320L88, 320C83.58, 320 80, 323.58 80, 328L80, 336C80, 340.42 83.58, 344 88, 344zM344, 344L552, 344C556.42, 344 560, 340.42 560, 336L560, 328C560, 323.58 556.42, 320 552, 320L344, 320C339.58, 320 336, 323.58 336, 328L336, 336C336, 340.42 339.58, 344 344, 344zM96, 264C91.58, 264 88, 267.58 88, 272L88, 288C88, 292.42 91.58, 296 96, 296L112, 296C116.42, 296 120, 292.42 120, 288L120, 272C120, 267.58 116.42, 264 112, 264L96, 264zM154.67, 264C150.25, 264 146.67, 267.58 146.67, 272L146.67, 288C146.67, 292.42 150.25, 296 154.67, 296L170.67, 296C175.09, 296 178.67, 292.42 178.67, 288L178.67, 272C178.67, 267.58 175.09, 264 170.67, 264L154.67, 264zM213.33, 264C208.91, 264 205.33, 267.58 205.33, 272L205.33, 288C205.33, 292.42 208.91, 296 213.33, 296L229.33, 296C233.75, 296 237.33, 292.42 237.33, 288L237.33, 272C237.33, 267.58 233.75, 264 229.33, 264L213.33, 264zM272, 264C267.58, 264 264, 267.58 264, 272L264, 288C264, 292.42 267.58, 296 272, 296L288, 296C292.42, 296 296, 292.42 296, 288L296, 272C296, 267.58 292.42, 264 288, 264L272, 264z" fill="#727272" fill-opacity="1" class="Black" />
    </g>
  </g>
</svg>