<?xml version='1.0' encoding='UTF-8'?>
<svg viewBox="-2 -4.0988 32 32" xmlns="http://www.w3.org/2000/svg">
  <g transform="matrix(0.9988, 0, 0, 0.9988, 0, 0)">
    <g transform="matrix(0.0438, 0, 0, 0.0438, 0, 0)">
      <path d="M608.64, 79.58C603.02, 70.04 591.58, 64.02 579.26, 64.02C571.91, 64.02 581.24, 61.56 444.64, 107.58A390.517 390.517 0 0 1 319.99, 128.02C277.61, 128.02 235.51, 121.12 195.34, 107.58C58.15, 61.36 68.05, 64.03 60.74, 64.03C48.43, 64.03 36.99, 70.04 31.36, 79.59C-10.45, 150.52 -10.45, 297.53 31.36, 368.46C36.99, 378 48.42, 384.02 60.74, 384.02C68.09, 384.02 58.76, 386.48 195.36, 340.46C202.9, 337.92 210.57, 335.85 218.24, 333.77L160.84, 432.68C157.79, 440.17 163.49, 448.31 171.57, 448L208.21, 448.01L233.42, 476.53C238.98, 482.4 248.75, 480.57 251.81, 473.08L320, 352.01L388.2, 473.07C391.25, 480.56 401.03, 482.39 406.59, 476.52L431.79, 448L468.43, 447.99C476.51, 448.3 482.21, 440.16 479.16, 432.67L421.76, 333.75C429.43, 335.82 437.1, 337.9 444.65, 340.44C581.85, 386.67 571.95, 384 579.27, 384C591.58, 384 603.02, 377.99 608.65, 368.44C650.45, 297.52 650.45, 150.52 608.64, 79.58zM180.02, 294.96L67.02, 333.03C41.53, 276.55 41.53, 171.47 67.02, 114.99L180.02, 153.06C204.83, 161.42 230.25, 167.29 256, 171.09L256, 268.67L250.85, 277.55C226.86, 281.39 203.19, 287.16 180.02, 294.96zM572.98, 333.04L459.98, 294.97C436.82, 287.17 413.14, 281.4 389.16, 277.57L384.01, 268.69L384.01, 171.1C409.75, 167.3 435.17, 161.43 459.99, 153.07L572.99, 115C598.46, 171.48 598.46, 276.56 572.98, 333.04z" fill="#727272" fill-opacity="1" class="Black" />
    </g>
  </g>
</svg>