<?xml version='1.0' encoding='UTF-8'?>
<svg viewBox="-1.9975 -2 32 32" xmlns="http://www.w3.org/2000/svg">
  <g transform="matrix(0.0547, 0, 0, 0.0547, 0, 0)">
    <path d="M502.61, 233.32L278.68, 9.39C272.42, 3.13 264.21, 0 256, 0C247.79, 0 239.58, 3.13 233.32, 9.39L9.39, 233.32C-3.13, 245.85 -3.13, 266.15 9.39, 278.68L233.32, 502.61C239.58, 508.87 247.79, 512 256, 512C264.21, 512 272.42, 508.87 278.68, 502.61L502.61, 278.68C515.13, 266.15 515.13, 245.85 502.61, 233.32zM256, 457.4L54.6, 256L256, 54.6L457.4, 256L256, 457.4zM160, 248L160, 328C160, 332.42 163.58, 336 168, 336L200, 336C204.42, 336 208, 332.42 208, 328L208, 264L288, 264L288, 317.73C288, 322.53 291.93, 325.75 296.05, 325.75C297.92, 325.75 299.83, 325.09 301.43, 323.61L385.64, 245.88C389.07, 242.71 389.07, 237.29 385.64, 234.12L301.43, 156.39C299.83, 154.92 297.92, 154.25 296.05, 154.25C291.93, 154.25 288, 157.47 288, 162.27L288, 216L192, 216C174.33, 216 160, 230.33 160, 248z" fill="#727272" fill-opacity="1" class="Black" />
  </g>
</svg>