<?xml version='1.0' encoding='UTF-8'?>
<svg viewBox="-2 -2 32 32" xmlns="http://www.w3.org/2000/svg">
  <g transform="matrix(0.0547, 0, 0, 0.0547, 0, 0)">
    <path d="M459.68, 179.63L398.9, 159.14C389.09, 155.82 381.96, 149.19 379.9, 141.44L365.37, 87.5C358.56, 62.04 337.72, 42.5 309.66, 35.06C278.78, 26.96 246.54, 35.21 225.41, 56.68L183.6, 99.25C176.6, 106.41 165.01, 110.25 153.45, 109.39L88.33, 104.39C54.58, 101.85 23.27, 117.58 8.4, 144.58C-4.45, 167.96 -2.48, 194.9 13.77, 216.64L48.67, 263.44C53.3, 269.61 53.99, 276.6 50.67, 283.11L25, 334C13.15, 357.36 15.75, 383.83 31.93, 404.85C51.14, 429.76 84.83, 441.29 118, 434.2L181.4, 420.56C192.72, 418.07 205.22, 420.51 213.78, 426.84L263, 463.3A87.24 87.24 0 0 0 314.87, 480A89.76 89.76 0 0 0 352.12, 472C377.53, 460.4 393.87, 438.23 395.87, 412.65L400.12, 357.41C400.68, 349.97 406.12, 342.94 414.74, 338.61L471, 310.25C498.21, 296.52 513.87, 270.65 511.87, 242.71C509.8, 214 489.8, 189.79 459.68, 179.63zM449.33, 267.37L393.12, 295.72C369.4, 307.72 354.12, 329.36 352.25, 353.72L348, 408.93C347.12, 420.31 336.65, 426.26 332.22, 428.29C321.97, 432.98 305.22, 434.81 291.56, 424.73L242.35, 388.26C227.66, 377.41 209.13, 371.62 190.35, 371.62A90.73 90.73 0 0 0 171.35, 373.62L107.95, 387.26C90.95, 390.99 76.54, 384.01 69.95, 375.49C65.08, 369.16 64.36, 362.49 67.83, 355.66L93.57, 304.78C105.01, 282.19 102.57, 255.34 87.2, 234.71L52.21, 187.9C47.3, 181.32 46.71, 174.52 50.46, 167.72C54.86, 159.72 66.89, 150.85 84.64, 152.22L149.76, 157.22C175.01, 159.22 200.88, 150.12 217.85, 132.86L259.66, 90.31C268.53, 81.23 283.44, 77.77 297.44, 81.46C308.66, 84.4 316.69, 91.29 319, 99.92L333.5, 153.92C339.78, 177.21 358.5, 196.16 383.59, 204.62L444.36, 225.12C456, 229 463.3, 236.9 464, 246.12C464.58, 254.64 459.24, 262.39 449.33, 267.37zM160, 192A32 32 0 1 0 192, 224A32 32 0 0 0 160, 192zM288, 288A32 32 0 1 0 320, 320A32 32 0 0 0 288, 288.05zM304, 192A16 16 0 1 0 320, 208A16 16 0 0 0 304, 192z" fill="#727272" fill-opacity="1" class="Black" />
  </g>
</svg>