<?xml version='1.0' encoding='UTF-8'?>
<svg viewBox="-2 2.6671 32 32" xmlns="http://www.w3.org/2000/svg">
  <g transform="matrix(0.0729, 0, 0, 0.0729, 0, 0)">
    <path d="M192, 160C218.51, 160 240, 138.51 240, 112C240, 85.49 218.51, 64 192, 64C165.49, 64 144, 85.49 144, 112C144, 138.51 165.49, 160 192, 160zM368, 224L16, 224C7.16, 224 0, 231.16 0, 240L0, 272C0, 280.84 7.16, 288 16, 288L368, 288C376.84, 288 384, 280.84 384, 272L384, 240C384, 231.16 376.84, 224 368, 224zM192, 352C165.49, 352 144, 373.49 144, 400C144, 426.51 165.49, 448 192, 448C218.51, 448 240, 426.51 240, 400C240, 373.49 218.51, 352 192, 352z" fill="#727272" fill-opacity="1" class="Black" />
  </g>
</svg>