<?xml version='1.0' encoding='UTF-8'?>
<svg viewBox="-5.5003 -2 32 32" xmlns="http://www.w3.org/2000/svg">
  <g transform="matrix(0.0547, 0, 0, 0.0547, 0, 0)">
    <path d="M0, 495.1C-0.5, 503 5.2, 512 15.4, 512L30.8, 512C38.9, 512 45.5, 505.8 46.1, 497.6C46.4, 493.1 47.1, 487.1 48.3, 480L335.3, 480C336.5, 487.1 337.4, 493.4 337.8, 497.7C338.5, 505.8 345.1, 512 353.1, 512L368.6, 512C380.1, 512 384.4, 501.3 383.9, 495.2C381.8, 465.7 367.6, 368.4 275.4, 286.4C262.8, 295.7 249.2, 304.6 234.5, 313.1C243.6, 320.6 251.5, 328.3 259.1, 336.1L123.6, 336.1C144.2, 315.2 170, 294.8 202.9, 276.8C359.8, 190.5 381.2, 56 384, 16.9C384.5, 9 378.8, 0 368.6, 0L353.2, 0C345.1, 0 338.5, 6.2 337.9, 14.4C337.6, 18.9 336.9, 24.9 335.7, 32L48.6, 32C47.3, 24.9 46.6, 18.8 46.2, 14.3C45.5, 6.2 38.9, 0 30.9, 0L15.4, 0C5.2, 0 -0.5, 9.1 0, 16.9C2.6, 52.6 21.2, 169.9 147.9, 255.8C21.3, 341.4 2.6, 458.9 0, 495.1zM322.4, 80C316.7, 95 308.8, 111.3 298.2, 128L86.3, 128C75.7, 111.3 67.8, 95 62, 80L322.4, 80zM192, 228.8C164.6, 212.5 142.6, 194.5 124.5, 176L259.9, 176C241.7, 194.4 219.6, 212.4 192, 228.8zM61.4, 432C67.1, 417.1 74.9, 400.8 85.5, 384L297.2, 384C307.8, 400.8 315.8, 417 321.6, 432L61.4, 432z" fill="#727272" fill-opacity="1" class="Black" />
  </g>
</svg>