<?xml version='1.0' encoding='UTF-8'?>
<svg viewBox="-1.9999 -1.549 31.9975 32" xmlns="http://www.w3.org/2000/svg">
  <g transform="matrix(0.999, 0, 0, 0.999, 0, 0)">
    <g transform="matrix(0.0565, 0, 0, 0.0565, 0, 0)">
      <path d="M394.67, 192L101.33, 192C93.97, 192 88, 199.16 88, 208L88, 304C88, 312.84 93.97, 320 101.33, 320L394.66, 320C402.02, 320 407.99, 312.84 407.99, 304L407.99, 208C408, 199.16 402.03, 192 394.67, 192zM360, 272L136, 272L136, 240L360, 240L360, 272zM248, 8C111.03, 8 0, 119.03 0, 256C0, 392.97 111.03, 504 248, 504C384.97, 504 496, 392.97 496, 256C496, 119.03 384.97, 8 248, 8zM248, 456C137.72, 456 48, 366.28 48, 256C48, 145.72 137.72, 56 248, 56C358.28, 56 448, 145.72 448, 256C448, 366.28 358.28, 456 248, 456z" fill="#727272" fill-opacity="1" class="Black" />
    </g>
  </g>
</svg>