<?xml version='1.0' encoding='UTF-8'?>
<svg viewBox="-1.9999 -3.5552 32 32" xmlns="http://www.w3.org/2000/svg">
  <g transform="matrix(0.0486, 0, 0, 0.0486, 0, 0)">
    <path d="M416, 112C407.16, 112 400, 119.16 400, 128C400, 136.84 407.16, 144 416, 144C424.84, 144 432, 136.84 432, 128C432, 119.16 424.84, 112 416, 112zM536, 64L486.84, 64L486.31, 62.98C476.78, 43.88 457.59, 32 436.22, 32L360, 32C359.47, 32 358.99, 32.14 358.46, 32.16L358.6, 32L331.31, 4.72C321.23, -5.36 304, 1.78 304, 16.03L304, 180.22L67.16, 3.19C60.08, -2.1 50.06, -0.65 44.77, 6.42L35.19, 19.23C29.9, 26.31 31.34, 36.34 38.42, 41.63L239.59, 192L184, 192C152.72, 192 124.44, 204.32 103.05, 224L88, 224C65.94, 224 48, 206.06 48, 184C48, 170.75 37.25, 160 24, 160C10.75, 160 0, 170.75 0, 184C0, 227.01 31.04, 262.76 71.88, 270.37C67.03, 283.39 64, 297.31 64, 312L64, 480C64, 497.64 78.34, 512 96, 512L176, 512C193.66, 512 208, 497.64 208, 480L208, 384L336, 384L336, 480C336, 497.64 350.34, 512 368, 512L448, 512C465.66, 512 480, 497.64 480, 480L480, 240L488, 240C536.53, 240 576, 200.53 576, 152L576, 104C576, 81.94 558.06, 64 536, 64zM280, 336L160, 336L160, 464L112, 464L112, 312C112, 272.3 144.31, 240 184, 240L280, 240L280, 336zM432, 464L384, 464L384, 336L328, 336L328, 242.73L432, 268.73L432, 464zM528, 152C528, 174.06 510.06, 192 488, 192L432, 192L432, 219.27L352, 199.27L352, 88C352, 83.59 355.59, 80 360, 80L436.22, 80C439.28, 80 442, 81.69 443.38, 84.42L457.16, 112L528, 112L528, 152z" fill="#727272" fill-opacity="1" class="Black" />
  </g>
</svg>