<?xml version='1.0' encoding='UTF-8'?>
<svg viewBox="-2 -4.7992 32 32" xmlns="http://www.w3.org/2000/svg">
  <g transform="matrix(0.9988, 0, 0, 0.9988, 0, 0)">
    <g transform="matrix(0.0438, 0, 0, 0.0438, 0, 0)">
      <path d="M624, 400L144, 400L144, 16C144, 7.2 136.8, 0 128, 0L16, 0C7.2, 0 0, 7.2 0, 16L0, 32C0, 40.8 7.2, 48 16, 48L96, 48L96, 432C96, 440.8 103.2, 448 112, 448L162.9, 448C161.1, 453 160, 458.4 160, 464C160, 490.5 181.5, 512 208, 512C234.5, 512 256, 490.5 256, 464C256, 458.4 254.8, 453 253.1, 448L451, 448C449.2, 453 448.1, 458.4 448.1, 464C448.1, 490.5 469.6, 512 496.1, 512C522.6, 512 544.1, 490.5 544.1, 464C544.1, 458.4 542.9, 453 541.2, 448L624, 448C632.8, 448 640, 440.8 640, 432L640, 416C640, 407.2 632.8, 400 624, 400z" fill="#727272" fill-opacity="1" class="Black" />
    </g>
  </g>
</svg>