<?xml version='1.0' encoding='UTF-8'?>
<svg viewBox="-1.9999 -3.5552 31.9975 32" xmlns="http://www.w3.org/2000/svg">
  <g transform="matrix(0.0486, 0, 0, 0.0486, 0, 0)">
    <path d="M575.2, 309.9L570.1, 294.7C567.3, 286.3 558.2, 281.8 549.9, 284.6L331.6, 357.5C314, 334.8 286.9, 320 256, 320C254.7, 320 253.4, 320.3 252.1, 320.4L158.1, 38.3C150.4, 15.4 129, 0 105, 0L16, 0C7.2, 0 0, 7.2 0, 16L0, 32C0, 40.8 7.2, 48 16, 48L104.9, 48C108.3, 48 111.4, 50.2 112.5, 53.5L206.1, 334.3C178.5, 351.2 159.9, 381.3 159.9, 416C159.9, 469 202.9, 512 255.9, 512C308.9, 512 351.9, 469 351.9, 416C351.9, 411.1 351.2, 406.5 350.5, 401.8L565, 330.2C573.4, 327.4 578, 318.3 575.2, 309.9zM256, 464C229.5, 464 208, 442.5 208, 416C208, 389.5 229.5, 368 256, 368C282.5, 368 304, 389.5 304, 416C304, 442.5 282.5, 464 256, 464z" fill="#727272" fill-opacity="1" class="Black" />
  </g>
</svg>