<?xml version='1.0' encoding='UTF-8'?>
<svg viewBox="-1.9999 -1.9999 32 32" xmlns="http://www.w3.org/2000/svg">
  <g transform="matrix(0.0547, 0, 0, 0.0547, 0, 0)">
    <path d="M225.6, 232.3L275.7, 246.6C279.3, 247.6 281.8, 251 281.8, 254.7C281.8, 259.3 278, 263.1 273.4, 263.1L240.6, 263.1C237, 263.1 233.5, 262.3 230.3, 260.9C225.5, 258.7 219.9, 259.2 216.2, 262.9L198.7, 280.4C193.4, 285.7 194, 294.7 200.2, 298.8C209.7, 305.1 220.6, 308.9 232, 310.3L232, 328C232, 336.8 239.2, 344 248, 344L264, 344C272.8, 344 280, 336.8 280, 328L280, 310.4C310.3, 306.8 333.4, 279.4 329.3, 247.4C326.4, 224.4 308.6, 206.1 286.4, 199.7L236.3, 185.4C232.7, 184.4 230.2, 181 230.2, 177.3C230.2, 172.7 234, 168.9 238.6, 168.9L271.4, 168.9C275, 168.9 278.5, 169.7 281.7, 171.1C286.5, 173.3 292.1, 172.8 295.8, 169.1L313.3, 151.6C318.6, 146.3 318, 137.3 311.8, 133.2C302.3, 126.9 291.4, 123.1 280, 121.7L280, 104C280, 95.2 272.8, 88 264, 88L248, 88C239.2, 88 232, 95.2 232, 104L232, 121.6C201.7, 125.2 178.6, 152.6 182.7, 184.6C185.6, 207.6 203.3, 225.9 225.6, 232.3zM480, 320L445.3, 320C462.3, 289.1 472, 253.7 472, 216C472, 96.7 375.3, 0 256, 0C136.7, 0 40, 96.7 40, 216C40, 253.7 49.7, 289.1 66.7, 320L32, 320C14.3, 320 0, 337.2 0, 358.4L0, 473.6C0, 494.8 14.3, 512 32, 512L480, 512C497.7, 512 512, 494.8 512, 473.6L512, 358.4C512, 337.2 497.7, 320 480, 320zM256, 48C348.6, 48 424, 123.4 424, 216C424, 308.6 348.6, 384 256, 384C163.4, 384 88, 308.6 88, 216C88, 123.4 163.4, 48 256, 48zM464, 464L48, 464L48, 368L102.6, 368C114.8, 380.3 128.5, 390.9 143.3, 400L104, 400C99.6, 400 96, 403.6 96, 408L96, 424C96, 428.4 99.6, 432 104, 432L408, 432C412.4, 432 416, 428.4 416, 424L416, 408C416, 403.6 412.4, 400 408, 400L368.7, 400C383.5, 390.9 397.2, 380.3 409.4, 368L464, 368L464, 464z" fill="#727272" fill-opacity="1" class="Black" />
  </g>
</svg>