<?xml version='1.0' encoding='UTF-8'?>
<svg viewBox="-2 -4.7992 32 32" xmlns="http://www.w3.org/2000/svg">
  <g transform="matrix(0.9988, 0, 0, 0.9988, 0, 0)">
    <g transform="matrix(0.0438, 0, 0, 0.0438, 0, 0)">
      <path d="M288, 288C301.25, 288 312, 273.67 312, 256C312, 238.33 301.25, 224 288, 224C274.75, 224 264, 238.33 264, 256C264, 273.67 274.75, 288 288, 288zM624, 464L512, 464L512, 113.45C512, 86.19 490.47, 64 464, 64L384, 64L384, 33.18C384, 14.42 369.21, 0 352.06, 0C349.49, 0 346.87, 0.32 344.23, 1.01L152.23, 50.75C137.99, 54.44 128, 67.7 128, 82.92L128, 464L16, 464C7.16, 464 0, 471.16 0, 480L0, 496C0, 504.84 7.16, 512 16, 512L624, 512C632.84, 512 640, 504.84 640, 496L640, 480C640, 471.16 632.84, 464 624, 464zM336, 464L176, 464L176, 94.18L336, 52.73L336, 464zM464, 464L384, 464L384, 112L464, 112L464, 464z" fill="#727272" fill-opacity="1" class="Black" />
    </g>
  </g>
</svg>