<?xml version='1.0' encoding='UTF-8'?>
<svg viewBox="-1.9948 -1.9973 32 31.9975" xmlns="http://www.w3.org/2000/svg">
  <g transform="matrix(0.0547, 0, 0, 0.0547, 0, 0)">
    <path d="M368, 160.2C368, 169 375.2, 176.2 384, 176.2C392.8, 176.2 400, 169 400, 160.2C400, 151.4 392.8, 144.2 384, 144.2C375.1, 144.2 368, 151.4 368, 160.2zM384, 64C337.8, 64 299.2, 96.8 290.1, 140.4C261.1, 103.8 241.1, 60.6 233.9, 13.9C231.8, 0.6 215, -5.1 206, 5.5C180.9, 35.1 161.7, 70.6 151, 110.6C149.4, 116.4 148.6, 122.3 147.6, 128.1C122.2, 103.7 101.3, 74.6 87, 41.8C81.5, 29.2 63.7, 28.7 57.9, 41.1C41.8, 75.2 32.6, 113.1 32, 153.1C30.7, 249.2 86.8, 316.2 127.9, 352.5L13.8, 391C1.6, 394.3 -3.9, 409.2 3, 420.3C22.8, 452.6 71.9, 507.3 177.8, 511.9C191.3, 512.5 195.4, 507.3 203, 502.5L279.4, 448.4L320, 448.4C408.4, 448.4 480, 376.7 480, 288.3L480, 159.9L512, 64L384, 64zM197.4, 123C200, 113.3 203.2, 103.9 207, 94.8C222.9, 133.2 246.9, 167.7 276.3, 197.2C246.1, 190.4 217.7, 179 192.2, 163.1C192.6, 149.4 194, 135.9 197.4, 123zM432, 152.1L432, 288.2C432, 350 381.8, 399.9 320, 399.9L264.1, 399.9L174.7, 463.6C122.4, 460.3 88.8, 442.2 67.7, 423.4L221.7, 371.4C165.9, 324.9 78.6, 261.1 80, 153.7C80.1, 144.7 80.8, 136.7 81.9, 128C174.6, 249.1 320, 256 336, 256L336, 160.2C336, 133.6 357.5, 112.1 384, 112.1L445.4, 112.1L432, 152.1z" fill="#727272" fill-opacity="1" class="Black" />
  </g>
</svg>