<?xml version='1.0' encoding='UTF-8'?>
<svg viewBox="-1.9998 -3.5563 31.9975 32" xmlns="http://www.w3.org/2000/svg">
  <g transform="matrix(0.0486, 0, 0, 0.0486, 0, 0)">
    <path d="M528, 288L435.9, 288L482, 241.9C512.1, 211.8 490.8, 160 448.1, 160L384.1, 160L384.1, 48C384.1, 21.5 362.6, 0 336.1, 0L240.1, 0C213.6, 0 192.1, 21.5 192.1, 48L192.1, 160L128.1, 160C85.5, 160 63.9, 211.7 94.2, 241.9L140.3, 288L48, 288C21.5, 288 0, 309.5 0, 336L0, 464C0, 490.5 21.5, 512 48, 512L528, 512C554.5, 512 576, 490.5 576, 464L576, 336C576, 309.5 554.5, 288 528, 288zM128, 208L240, 208L240, 48L336, 48L336, 208L448, 208L288, 368L128, 208zM528, 464L48, 464L48, 336L188.1, 336L254, 401.9C272.8, 420.7 303.1, 420.6 321.9, 401.9L387.8, 336L528, 336L528, 464zM440, 400C440, 386.7 450.7, 376 464, 376C477.3, 376 488, 386.7 488, 400C488, 413.3 477.3, 424 464, 424C450.7, 424 440, 413.3 440, 400z" fill="#727272" fill-opacity="1" class="Black" />
  </g>
</svg>