<?xml version='1.0' encoding='UTF-8'?>
<svg viewBox="-2 -2 32 32" xmlns="http://www.w3.org/2000/svg">
  <g transform="matrix(0.0547, 0, 0, 0.0547, 0, 0)">
    <path d="M450.33, 296.36C464.65, 282.44 477.84, 267.21 489.03, 250.25C494.05, 242.65 491.26, 232.19 483.39, 227.63L469.6, 219.63C462.21, 215.35 453.06, 217.86 448.31, 224.97C441.79, 234.72 434.39, 243.67 426.58, 252.21L350.28, 110.45C351, 105.7 351.73, 100.94 351.73, 95.99C351.72, 42.98 308.86, 0 256, 0C203.14, 0 160.28, 42.98 160.28, 95.99C160.28, 100.94 161.01, 105.7 161.73, 110.45L85.46, 252.16C77.61, 243.67 70.22, 234.72 63.7, 224.97C58.95, 217.86 49.8, 215.34 42.41, 219.63L28.62, 227.63C20.75, 232.19 17.96, 242.65 22.98, 250.25C34.15, 267.17 47.66, 281.91 62.04, 295.69L0, 410.94L7.91, 476.69C9.41, 489.31 16.54, 500.2 27.51, 506.58C33.71, 510.17 40.57, 512 47.45, 512C52.75, 512 58.11, 510.92 63.19, 508.73L124.63, 482.4L186.83, 366.83C209.2, 372.66 232.37, 375.96 256, 375.96C279.65, 375.96 302.91, 372.89 325.31, 367.09L387.36, 482.39L448.84, 508.73C453.92, 510.9 459.25, 511.98 464.54, 511.98C471.43, 511.98 478.28, 510.15 484.48, 506.56C495.45, 500.19 502.58, 489.3 504.05, 476.73L512, 410.92L450.33, 296.36zM256, 48C282.43, 48 303.86, 69.49 303.86, 96C303.86, 122.51 282.43, 144 256, 144C229.57, 144 208.14, 122.51 208.14, 96C208.14, 69.49 229.57, 48 256, 48zM90.48, 444.85L54.18, 460.41L49.35, 420.32L187.73, 163.17C198.89, 174.58 213, 182.83 228.66, 187.54L228.81, 187.82L90.48, 444.85zM256, 327.98C240.5, 327.98 225.29, 326.13 210.42, 323.01L256, 238.32L301.56, 322.97C286.67, 326 271.49, 327.98 256, 327.98zM283.18, 187.81L283.33, 187.53C299, 182.82 313.1, 174.57 324.26, 163.16L389.83, 285.01C376.79, 294.28 362.69, 301.9 348.03, 308.31L283.18, 187.81zM457.82, 460.41L421.52, 444.85L370.76, 350.54C385.32, 343.93 399.36, 336.29 412.59, 327.3L462.65, 420.33L457.82, 460.41z" fill="#727272" fill-opacity="1" class="Black" />
  </g>
</svg>