<?xml version='1.0' encoding='UTF-8'?>
<svg viewBox="-2 -4.7992 32 32" xmlns="http://www.w3.org/2000/svg">
  <g transform="matrix(0.9988, 0, 0, 0.9988, 0, 0)">
    <g transform="matrix(0.0438, 0, 0, 0.0438, 0, 0)">
      <path d="M481.12, 119.98C496.04, 120.83 508.48, 110.09 512, 95.39L453.57, 80.02C447.07, 107.15 469.08, 119.29 481.12, 119.98zM563.67, 256.88L469.48, 212.67A9.876 9.876 0 0 1 464.88, 207.98L483.56, 207.98C488.46, 211.1 492.47, 213.7 495.81, 215.87C512.33, 226.6 520.62, 231.99 538.46, 231.99L566.33, 231.99C589.36, 231.99 610.13, 219.4 620.55, 199.14L633.43, 174.1C643.92, 153.71 641.62, 128.78 627.59, 110.59L560.5, 23.65C549.07, 8.84 530.99, 0 512.12, 0L298.42, 0C261.14, 0 245.49, 46.77 273.43, 69.01L285.95, 78.95C281.51, 80.75 282.39, 80.38 281.2, 80.96C251.83, 95.24 251.96, 136.83 281.21, 151.04L320, 166.01L320, 178.96L152.31, 137.12C130.28, 131.64 106.81, 140.4 93.78, 158.89L5.03, 285.13C-9.36, 307.73 9.08, 337.52 38.09, 333.38L129.61, 316.17C114.9, 339.45 134.88, 368.2 161.43, 364.53L342.19, 340.3C347.1, 350.53 352.77, 360.29 359.2, 369.47C212.12, 379.55 112, 401.94 37.74, 417.99C15.88, 422.71 0, 442.24 0, 464.42C0, 490.63 21.52, 511.96 47.98, 511.96L497.15, 512C573.22, 512.01 635.88, 456.16 639.8, 384.85C642.76, 331.04 612.87, 280.81 563.67, 256.88zM68.03, 278.95L133.03, 186.51C134.69, 184.13 137.62, 182.85 140.72, 183.7L210.54, 201.03L169.14, 259.9L68.03, 278.95zM191.06, 312.13L260.44, 213.46L320, 228.47C320, 249.72 320.13, 265.24 326.72, 293.95L191.06, 312.13zM497.15, 464L47.89, 464.9C139.91, 445.02 244.73, 421.34 431.07, 413.88C447.65, 413.21 454.45, 392.12 440.36, 382.09C367.78, 330.38 368, 258.74 368, 239.03L368, 132.98L322.89, 115.76L380.23, 92.52L324.16, 48L512.38, 48C516.34, 48 520.08, 49.84 522.5, 52.97L589.63, 139.98C592.33, 143.48 592.76, 148.21 590.74, 152.14L577.86, 177.18C575.74, 181.31 571.21, 183.97 566.33, 183.97L538.46, 183.97C534.85, 183.97 534.85, 183.97 521.96, 175.6C516.84, 172.27 497.4, 159.96 497.4, 159.96L416, 159.96L416, 204.07C416, 226.26 428.6, 246.16 449.08, 256.11L542.67, 300.03C574.94, 315.72 593.79, 347.21 591.87, 382.19C589.39, 427.32 546.9, 464.01 497.15, 464z" fill="#727272" fill-opacity="1" class="Black" />
    </g>
  </g>
</svg>