<?xml version='1.0' encoding='UTF-8'?>
<svg viewBox="-2 -0.0014 32 32" xmlns="http://www.w3.org/2000/svg">
  <g transform="matrix(0.0625, 0, 0, 0.0625, 0, 0)">
    <path d="M384, 352C380.64, 352 377.41, 352.49 374.19, 352.99L338.98, 294.31C347.05, 283.6 352, 270.43 352, 256C352, 241.57 347.05, 228.4 338.99, 217.69L374.2, 159.01C377.42, 159.51 380.65, 160 384.01, 160C419.36, 160 448.01, 131.35 448.01, 96C448.01, 60.65 419.36, 32 384.01, 32C357.17, 32 334.26, 48.56 324.76, 72L123.25, 72C113.75, 48.56 90.85, 32 64, 32C28.65, 32 0, 60.65 0, 96C0, 122.84 16.56, 145.75 40, 155.25L40, 356.74C16.56, 366.25 0, 389.15 0, 416C0, 451.35 28.65, 480 64, 480C90.85, 480 113.75, 463.44 123.25, 440L324.74, 440C334.24, 463.44 357.15, 480 383.99, 480C419.34, 480 447.99, 451.35 447.99, 416C448, 380.65 419.35, 352 384, 352zM88, 356.75L88, 155.25A64.053 64.053 0 0 0 123.25, 120L324.74, 120C326.84, 125.19 329.7, 129.92 333.02, 134.32L297.81, 192.99C294.59, 192.49 291.36, 192 287.99, 192C252.64, 192 223.99, 220.65 223.99, 256C223.99, 291.35 252.64, 320 287.99, 320C291.35, 320 294.58, 319.51 297.81, 319.01L333.02, 377.68C329.7, 382.08 326.84, 386.82 324.74, 392L123.25, 392A64.053 64.053 0 0 0 88, 356.75zM288, 240C296.82, 240 304, 247.18 304, 256C304, 264.82 296.82, 272 288, 272C279.18, 272 272, 264.82 272, 256C272, 247.18 279.18, 240 288, 240zM384, 80C392.82, 80 400, 87.18 400, 96C400, 104.82 392.82, 112 384, 112C375.18, 112 368, 104.82 368, 96C368, 87.18 375.18, 80 384, 80zM64, 80C72.82, 80 80, 87.18 80, 96C80, 104.82 72.82, 112 64, 112C55.18, 112 48, 104.82 48, 96C48, 87.18 55.18, 80 64, 80zM64, 432C55.18, 432 48, 424.82 48, 416C48, 407.18 55.18, 400 64, 400C72.82, 400 80, 407.18 80, 416C80, 424.82 72.82, 432 64, 432zM384, 432C375.18, 432 368, 424.82 368, 416C368, 407.18 375.18, 400 384, 400C392.82, 400 400, 407.18 400, 416C400, 424.82 392.82, 432 384, 432z" fill="#727272" fill-opacity="1" class="Black" />
  </g>
</svg>