<?xml version='1.0' encoding='UTF-8'?>
<svg viewBox="-2 0.0011 32 32" xmlns="http://www.w3.org/2000/svg">
  <g transform="matrix(0.0625, 0, 0, 0.0625, 0, 0)">
    <path d="M443.3, 48L432, 36.7C425.8, 30.5 415.6, 30.5 409.4, 36.7L294.7, 151.4L217.1, 73.8C210.6, 67.3 202, 64 193.5, 64C184.9, 64 176.4, 67.3 169.9, 73.8L19.6, 224C7, 236.5 0, 253.5 0, 271.3L0, 413.1C0, 450.1 29.9, 480 66.9, 480L208.7, 480C226.4, 480 243.4, 473 256, 460.4L406.2, 310.2C419.3, 297.1 419.3, 276 406.2, 262.9L328.6, 185.3L443.3, 70.6C449.6, 64.4 449.6, 54.2 443.3, 48zM222.1, 426.5C218.5, 430.1 213.8, 432 208.8, 432L66.9, 432C56.5, 432 48, 423.5 48, 413.1L48, 271.3C48, 266.3 50, 261.5 53.5, 258L106.7, 204.8L275.2, 373.3L222.1, 426.5zM309.2, 339.3L140.7, 170.8L193.4, 118.1L362, 286.6L309.2, 339.3z" fill="#727272" fill-opacity="1" class="Black" />
  </g>
</svg>