<?xml version='1.0' encoding='UTF-8'?>
<svg viewBox="-2 -2 32 32" xmlns="http://www.w3.org/2000/svg">
  <g transform="matrix(0.0547, 0, 0, 0.0547, 0, 0)">
    <path d="M339.41, 92.33A63.82 63.82 0 1 1 419.67, 172.59L383.74, 222.36A110.32 110.32 0 0 0 400, 224A112 112 0 1 0 288, 112A110.32 110.32 0 0 0 289.64, 128.26zM111, 368.2A31.91 31.91 0 1 0 143.8, 401L211.66, 352L300.34, 352L368.2, 401A31.91 31.91 0 1 0 401, 368.2L352, 300.34L352, 211.66L401, 143.8A31.91 31.91 0 1 0 368.2, 111L300.34, 160L211.66, 160L143.8, 111A31.91 31.91 0 1 0 111, 143.8L160, 211.66L160, 300.34zM208, 208L304, 208L304, 304L208, 304zM400, 288A110.45 110.45 0 0 0 383.74, 289.64L419.67, 339.41A63.82 63.82 0 1 1 339.41, 419.66L289.64, 383.74A110.32 110.32 0 0 0 288, 400A112 112 0 1 0 400, 288zM112, 224A110.32 110.32 0 0 0 128.26, 222.36L92.34, 172.59A63.82 63.82 0 1 1 172.59, 92.33L222.36, 128.26A110.45 110.45 0 0 0 224, 112A112 112 0 1 0 112, 224zM172.59, 419.67A63.82 63.82 0 1 1 92.33, 339.41L128.26, 289.64A110.32 110.32 0 0 0 112, 288A112 112 0 1 0 224, 400A110.32 110.32 0 0 0 222.36, 383.74z" fill="#727272" fill-opacity="1" class="Black" />
  </g>
</svg>