<?xml version='1.0' encoding='UTF-8'?>
<svg viewBox="-2 -4.7913 32 32" xmlns="http://www.w3.org/2000/svg">
  <g transform="matrix(0.0438, 0, 0, 0.0438, 0, 0)">
    <path d="M287.94, 136A24 24 0 0 0 263.94, 112L166.34, 112A23.65 23.65 0 0 0 121.58, 112L24, 112A24 24 0 0 0 24, 160L264, 160A24 24 0 0 0 287.94, 136zM471.94, 237.65L375.09, 208.6A191.87 191.87 0 0 0 264.77, 208.6L168, 237.65L168, 192L120, 192L120, 256.05A32 32 0 0 0 152, 288.05L197.44, 288.05A178.39 178.39 0 0 0 144.08, 398.29A16.13 16.13 0 0 0 160.08, 416L176.33, 416C184.67, 416 191.09, 409.42 192.01, 401.13A130.07 130.07 0 0 1 233.88, 319.24L251, 336.38A53.34 53.34 0 0 0 288.7, 352L351.17, 352A53.32 53.32 0 0 0 388.87, 336.38L406, 319.24A130.07 130.07 0 0 1 447.87, 401.13C448.79, 409.42 455.21, 415.98 463.54, 416L479.8, 416A16.14 16.14 0 0 0 495.8, 398.29A178.49 178.49 0 0 0 442.44, 288.05L487.9, 288.05A32 32 0 0 0 519.9, 256.05L519.9, 192L471.9, 192zM354.94, 302.44A5.38 5.38 0 0 1 351.17, 304L288.7, 304A5.36 5.36 0 0 1 284.93, 302.44L246.65, 264.15L278.56, 254.58A143.9 143.9 0 0 1 361.3, 254.58L393.22, 264.16zM616.39, 112.07L518.49, 112.38A23.57 23.57 0 0 0 473.55, 112.53L375.55, 112.84A23.55 23.55 0 0 0 375.7, 159.93L616.56, 159.16A23.55 23.55 0 0 0 616.41, 112.07z" fill="#727272" fill-opacity="1" class="Black" />
  </g>
</svg>