<?xml version='1.0' encoding='UTF-8'?>
<svg viewBox="-2 -3.554 32 32" xmlns="http://www.w3.org/2000/svg">
  <g transform="matrix(0.0486, 0, 0, 0.0486, 0, 0)">
    <path d="M288, 32C128.94, 32 0, 89.31 0, 160L0, 352C0, 422.69 128.94, 480 288, 480C447.06, 480 576, 422.69 576, 352L576, 160C576, 89.31 447.06, 32 288, 32zM288, 80C312.31, 80 335.75, 81.23 357.87, 83.47L346.37, 128.18C341.86, 145.73 315.67, 160 288, 160C260.33, 160 234.14, 145.73 229.63, 128.18L218.13, 83.47C240.25, 81.23 263.69, 80 288, 80zM229.62, 175.55C245.95, 185.92 266.66, 192 288, 192C309.02, 192 329.47, 186.13 345.68, 176.05C348.5, 197.81 357.17, 217.99 370.32, 235.06C344.61, 238.2 316.97, 240 288, 240C258.68, 240 230.72, 238.16 204.75, 234.95C217.86, 217.66 226.72, 197.34 229.62, 175.55zM174.51, 89.51L187.53, 135.59C197.35, 170.36 184.16, 206.17 157.2, 227.03C91.51, 212.75 48, 188.09 48, 160C48, 129.5 99.21, 103.01 174.51, 89.51zM528, 352C528, 379.47 434.54, 432 288, 432C141.46, 432 48, 379.47 48, 352L48, 230.7C99.59, 265.22 187.77, 288 288, 288C388.23, 288 476.41, 265.22 528, 230.7L528, 352zM418.16, 227.15C409.78, 220.99 402.51, 213.3 396.84, 204.21C385.11, 185.39 381.42, 163.12 386.44, 141.51L398.63, 89.05C475.46, 102.39 528, 129.13 528, 160C528, 188.18 484.2, 212.9 418.16, 227.15z" fill="#727272" fill-opacity="1" class="Black" />
  </g>
</svg>