<?xml version='1.0' encoding='UTF-8'?>
<svg viewBox="-2 -2 32 32" xmlns="http://www.w3.org/2000/svg">
  <g transform="matrix(0.0547, 0, 0, 0.0547, 0, 0)">
    <path d="M431.67, 121.83L504.87, 74.63A16 16 0 0 0 509.31, 52.44L500.44, 39.13A16 16 0 0 0 478.25, 34.69L368.45, 105.5C319.94, 97 273.56, 96 256, 96C213.25, 96 0, 101.4 0, 208L0, 368C0, 429.86 114.62, 480 256, 480C397.38, 480 512, 429.86 512, 368L512, 208C512, 164.6 476.48, 138.15 431.67, 121.83zM88, 400.21C62, 387.88 48, 375.08 48, 368L48, 279.44A216.21 216.21 0 0 0 88, 297zM232, 431C194.47, 429.36 162.19, 424.43 136, 417.46L136, 309.2C172.05, 316.07 207.63, 318.63 232, 319.53zM376, 417.46C349.81, 424.46 317.53, 429.36 280, 431L280, 319.53C304.37, 318.63 339.95, 316.07 376, 309.2zM464, 368C464, 375.08 450, 387.88 424, 400.21L424, 297A216.21 216.21 0 0 0 464, 279.46zM256, 272C141.12, 272 48, 243.35 48, 208C48, 172.65 141.12, 144 256, 144C273.19, 144 289.8, 144.71 305.78, 145.92L232.87, 192.92A16 16 0 0 0 228.44, 215.11L237.31, 228.42A16 16 0 0 0 259.5, 232.86L378.24, 156.3C430.13, 167.93 464, 186.73 464, 208C464, 243.35 370.87, 272 256, 272z" fill="#727272" fill-opacity="1" class="Black" />
  </g>
</svg>