<?xml version='1.0' encoding='UTF-8'?>
<svg viewBox="-2 -1.9975 32 32" xmlns="http://www.w3.org/2000/svg">
  <g transform="matrix(0.0547, 0, 0, 0.0547, 0, 0)">
    <path d="M471.06, 57.65A169.92 169.92 0 0 0 348.12, 0.07A172.16 172.16 0 0 0 221.93, 49.79C195.34, 76.21 160, 119.46 160, 189.81L160, 250.23L116.3, 294C114.37, 295.88 110.55, 295 108.55, 294.17A79.19 79.19 0 0 0 23.22, 423.7A76.41 76.41 0 0 0 66.79, 445.29A76.39 76.39 0 0 0 88.36, 488.84A79.19 79.19 0 0 0 217.94, 403.51C216.94, 401.01 216.38, 397.51 218.1, 395.76L261.84, 352L323, 352C361.72, 352 395.75, 341.83 427, 320.92C473.22, 290.04 503.69, 241.56 510.56, 187.92C516.78, 139.6 502.75, 93.34 471.06, 57.65zM173.37, 421.34A31.07 31.07 0 0 1 144.43, 464C132.43, 464 116.79, 456.18 114.32, 438.61L109.32, 402.81L73.51, 397.76C56, 395.28 48, 379.69 48, 367.65A31.13 31.13 0 0 1 90.5, 338.65A60.4 60.4 0 0 0 113, 343.07A52.8 52.8 0 0 0 150.27, 327.9L170.7, 307.45A84.92 84.92 0 0 0 204.7, 341.32L184.21, 361.82C168.91, 377.06 164.78, 399.87 173.37, 421.34zM400.31, 281C377.18, 296.47 351.87, 304 322.97, 304L245.16, 304A37 37 0 0 1 208, 267.2L208, 189.81C208, 148.81 222.28, 117.11 255.78, 83.81C313.47, 26.42 395.64, 44.99 435.18, 89.51C497.11, 159.34 449.49, 248.17 400.31, 281z" fill="#727272" fill-opacity="1" class="Black" />
  </g>
</svg>