<?xml version='1.0' encoding='UTF-8'?>
<svg viewBox="-1.9988 -1.9975 32 32" xmlns="http://www.w3.org/2000/svg">
  <g transform="matrix(0.0547, 0, 0, 0.0547, 0, 0)">
    <path d="M471.15, 57.65A170 170 0 0 0 348.19, 0.07A172.2 172.2 0 0 0 222, 49.79C195.38, 76.21 160, 119.46 160, 189.8L160, 250.22L116.3, 294C114.37, 295.88 110.55, 295 108.55, 294.17A79.19 79.19 0 0 0 23.22, 423.7A76.41 76.41 0 0 0 66.79, 445.29A76.39 76.39 0 0 0 88.36, 488.84A79.19 79.19 0 0 0 217.94, 403.51C216.94, 401.01 216.38, 397.51 218.1, 395.76L261.89, 352L323, 352A189.07 189.07 0 0 0 373.76, 345.06A24 24 0 0 0 388.29, 310C368.91, 276.09 373.69, 234.1 399.92, 207.85C420.92, 186.85 451.4, 179.27 481.62, 187.62A24 24 0 0 0 512, 164.24C511.62, 124.15 497.5, 87.29 471.15, 57.65zM173.37, 421.34A31.07 31.07 0 0 1 144.43, 464C132.43, 464 116.79, 456.18 114.32, 438.62L109.32, 402.81L73.51, 397.76C56, 395.28 48, 379.7 48, 367.65A31.13 31.13 0 0 1 90.5, 338.65A60.4 60.4 0 0 0 113, 343.07A52.77 52.77 0 0 0 150.28, 327.9L170.74, 307.43A85 85 0 0 0 204.74, 341.3C183.53, 362.45 186, 360 184.15, 361.82C168.92, 377.06 164.79, 399.87 173.37, 421.34zM366, 173.92C332.15, 207.78 320.62, 257.74 333.84, 303.58C330.25, 303.85 326.68, 303.99 323.06, 303.99L245.2, 303.99A37 37 0 0 1 208, 267.2L208, 189.8C208, 148.8 222.29, 117.1 255.79, 83.8C313.49, 26.41 395.69, 44.99 435.23, 89.5A112.62 112.62 0 0 1 460.3, 136.41A128.69 128.69 0 0 0 366, 173.92z" fill="#727272" fill-opacity="1" class="Black" />
  </g>
</svg>