<?xml version='1.0' encoding='UTF-8'?>
<svg viewBox="-1.9999 -3.5527 32 31.9975" xmlns="http://www.w3.org/2000/svg">
  <g transform="matrix(0.0486, 0, 0, 0.0486, 0, 0)">
    <path d="M416, 144C416, 135.16 408.84, 128 400, 128C391.16, 128 384, 135.16 384, 144C384, 152.84 391.16, 160 400, 160C408.84, 160 416, 152.84 416, 144zM464, 240C525.86, 240 576, 189.86 576, 128L510.43, 128C509.97, 124.68 509.83, 121.42 509.07, 118.05C499.92, 77.44 467.1, 44.35 426.53, 35.05C417.53, 32.98 408.65, 32 400, 32C338.14, 32 288, 82.14 288, 144L288, 224L233.77, 224C194.77, 224 155.59, 210.24 128.98, 181.72C125.02, 177.47 120.04, 175.58 115.16, 175.58C105.38, 175.58 96, 183.17 96, 194.64C96, 289.35 168.21, 373.03 260.58, 382.66C270.05, 383.65 278.35, 376.17 278.35, 366.65L278.35, 350.56C278.35, 342.54 272.41, 335.7 264.45, 334.79C218.68, 329.59 178.92, 299.09 158.54, 257.3C181.92, 266.67 207.37, 271.57 233.78, 271.57L336, 272L336, 144C336, 108.71 364.71, 80 400, 80C405.19, 80 410.5, 80.62 415.79, 81.83C438.45, 87.03 457.11, 105.82 462.25, 128.6C470.15, 163.66 450.4, 190.47 427.33, 201.49L400, 214.54L400, 286.17L411.86, 299.74C420.75, 309.92 431.47, 326.95 431.98, 350.28C432.41, 369.85 424.37, 389.1 409.34, 404.47C392.22, 421.97 368.75, 432.01 344.95, 432.01L253.78, 432.01C247.75, 432.01 241.68, 431.7 235.12, 431.04C146.29, 423.14 71.75, 357.53 51.36, 272L80.64, 272A190.546 190.546 0 0 1 66.49, 224L32.25, 224C12.96, 224 -2.39, 241.03 0.31, 260.13C16.82, 376.94 112.22, 468.3 230.87, 478.84C238.4, 479.61 246.05, 480 253.78, 480L344.95, 480C416.91, 480 481.56, 421.16 479.97, 349.22C479.28, 318.09 467.11, 290.01 448, 268.15L448, 240L464, 240z" fill="#727272" fill-opacity="1" class="Black" />
  </g>
</svg>