<?xml version='1.0' encoding='UTF-8'?>
<svg viewBox="-5.5003 -2 32 32" xmlns="http://www.w3.org/2000/svg">
  <g transform="matrix(0.0547, 0, 0, 0.0547, 0, 0)">
    <path d="M192, 92C136.88, 92 92, 136.86 92, 192C92, 229.5 122.5, 260 160, 260C175.44, 260 188, 272.56 188, 288C188, 303.44 175.44, 316 160, 316L140, 316C133.38, 316 128, 321.39 128, 328L128, 344C128, 350.61 133.38, 356 140, 356L160, 356C197.5, 356 228, 325.5 228, 288C228, 250.5 197.5, 220 160, 220C144.56, 220 132, 207.44 132, 192C132, 158.92 158.91, 132 192, 132C225.09, 132 252, 158.92 252, 192L252, 212C252, 218.61 257.38, 224 264, 224L280, 224C286.62, 224 292, 218.61 292, 212L292, 192C292, 136.86 247.12, 92 192, 92zM192, 0C85.96, 0 0, 85.96 0, 192L0, 368C0, 447.53 64.47, 512 144, 512C223.53, 512 288, 447.53 288, 368L288, 358.1C345.33, 324.89 384, 263.02 384, 192C384, 85.96 298.04, 0 192, 0zM263.94, 316.57L240, 330.44L240, 368.01C240, 420.94 196.94, 464.01 144, 464.01C91.06, 464.01 48, 420.94 48, 368.01L48, 192C48, 112.6 112.6, 48 192, 48C271.4, 48 336, 112.6 336, 192C336, 243.09 308.39, 290.82 263.94, 316.57z" fill="#727272" fill-opacity="1" class="Black" />
  </g>
</svg>