<?xml version='1.0' encoding='UTF-8'?>
<svg viewBox="-2 0 32 32" xmlns="http://www.w3.org/2000/svg">
  <g transform="matrix(0.0625, 0, 0, 0.0625, 0, 0)">
    <path d="M400, 320L48, 320C21.49, 320 0, 341.49 0, 368L0, 432C0, 458.51 21.49, 480 48, 480L400, 480C426.51, 480 448, 458.51 448, 432L448, 368C448, 341.49 426.51, 320 400, 320zM400, 432L48, 432L48, 368L400, 368L400, 432zM48.048, 304L399.943, 304C442.58, 304 464.094, 252.269 433.884, 222.059L257.941, 46.059C239.196, 27.314 208.804, 27.313 190.059, 46.059L14.107, 222.059C-16.042, 252.208 5.325, 304 48.048, 304zM224, 80L400, 256L48, 256L224, 80z" fill="#727272" fill-opacity="1" class="Black" />
  </g>
</svg>