<?xml version='1.0' encoding='UTF-8'?>
<svg viewBox="-2 -4.7967 32 31.9975" xmlns="http://www.w3.org/2000/svg">
  <g transform="matrix(0.9988, 0, 0, 0.9988, 0, 0)">
    <g transform="matrix(0.0438, 0, 0, 0.0438, 0, 0)">
      <path d="M528, 127.97C519.16, 127.97 512, 135.13 512, 143.97C512, 152.81 519.16, 159.97 528, 159.97C536.84, 159.97 544, 152.81 544, 143.97C544, 135.13 536.84, 127.97 528, 127.97zM512, 31.97L450.84, 31.97C447.2, 28.2 443.38, 24.57 439.13, 21.31C413.16, 1.43 379.69, -4.91 347.31, 3.85C329.27, 8.75 313.43, 18.81 300.82, 31.96L192, 31.96C85.96, 31.97 0, 117.93 0, 223.98L0, 335.99C0, 344.83 7.16, 351.99 16, 351.99L32, 351.99L32, 480C32, 497.67 46.33, 512 64, 512L144, 512C161.67, 512 176, 497.67 176, 480L176, 407.16C194.48, 412.27 242.55, 424.14 304, 407.16L304, 480C304, 497.67 318.33, 512 336, 512L416, 512C433.67, 512 448, 497.67 448, 480L448, 287.98L592, 287.98L592, 375.99C592, 389.23 581.22, 399.99 568, 399.99C554.78, 399.99 544, 389.22 544, 375.99L544, 367.99C544, 359.15 536.84, 351.99 528, 351.99L512, 351.99C503.16, 351.99 496, 359.15 496, 367.99L496, 372.77C496, 410.35 523.38, 443.97 560.78, 447.64C603.69, 451.85 640, 418.08 640, 375.99L640, 159.97C640, 89.28 582.69, 31.97 512, 31.97zM400, 464L352, 464L352, 344.09C231.33, 377.43 240.92, 375.29 128, 344.09L128, 464L80, 464L80, 303.98L48, 303.98L48, 223.97C48, 144.43 112.47, 79.96 192, 79.96L275.24, 79.96C269.13, 106.89 272.81, 134.14 286.78, 157.43C298.31, 176.62 315.69, 191.48 336, 199.96C336, 240.11 363.18, 273.69 400, 284.22L400, 464zM592, 207.98C592, 225.65 577.67, 239.98 560, 239.98L424, 239.98C401.94, 239.98 384, 222.04 384, 199.98L384, 162.74C361.35, 158.15 342.11, 156.34 327.94, 132.74C311.51, 105.28 320.56, 60.88 359.88, 50.17C389.04, 42.26 415.4, 56.5 426.54, 79.97L512, 79.97C556.11, 79.97 592, 115.86 592, 159.98L592, 207.98z" fill="#727272" fill-opacity="1" class="Black" />
    </g>
  </g>
</svg>