<?xml version='1.0' encoding='UTF-8'?>
<svg viewBox="-1.5477 -1.5452 32 31.995" xmlns="http://www.w3.org/2000/svg">
  <g transform="matrix(0.9991, 0, 0, 0.9991, 0, 0)">
    <g transform="matrix(0.0565, 0, 0, 0.0565, 0, 0)">
      <path d="M256, 184C216.2, 184 184, 216.2 184, 256C184, 295.8 216.2, 328 256, 328C295.8, 328 328, 295.8 328, 256C328, 216.2 295.8, 184 256, 184zM256, 280C242.8, 280 232, 269.2 232, 256C232, 242.8 242.8, 232 256, 232C269.2, 232 280, 242.8 280, 256C280, 269.2 269.2, 280 256, 280zM432, 184C392.2, 184 360, 216.2 360, 256C360, 295.8 392.2, 328 432, 328C471.8, 328 504, 295.8 504, 256C504, 216.2 471.8, 184 432, 184zM432, 280C418.8, 280 408, 269.2 408, 256C408, 242.8 418.8, 232 432, 232C445.2, 232 456, 242.8 456, 256C456, 269.2 445.2, 280 432, 280zM80, 184C40.2, 184 8, 216.2 8, 256C8, 295.8 40.2, 328 80, 328C119.8, 328 152, 295.8 152, 256C152, 216.2 119.8, 184 80, 184zM80, 280C66.8, 280 56, 269.2 56, 256C56, 242.8 66.8, 232 80, 232C93.2, 232 104, 242.8 104, 256C104, 269.2 93.2, 280 80, 280z" fill="#727272" fill-opacity="1" class="Black" />
    </g>
  </g>
</svg>