<?xml version='1.0' encoding='UTF-8'?>
<svg viewBox="-11.52 1.92 32 32" xmlns="http://www.w3.org/2000/svg">
  <g transform="matrix(0.07, 0, 0, 0.07, 0, 0)">
    <path d="M64, 208C90.5, 208 112, 229.5 112, 256C112, 282.5 90.5, 304 64, 304C37.5, 304 16, 282.5 16, 256C16, 229.5 37.5, 208 64, 208zM16, 104C16, 130.5 37.5, 152 64, 152C90.5, 152 112, 130.5 112, 104C112, 77.5 90.5, 56 64, 56C37.5, 56 16, 77.5 16, 104zM16, 408C16, 434.5 37.5, 456 64, 456C90.5, 456 112, 434.5 112, 408C112, 381.5 90.5, 360 64, 360C37.5, 360 16, 381.5 16, 408z" fill="#727272" fill-opacity="1" class="Black" />
  </g>
</svg>