<?xml version='1.0' encoding='UTF-8'?>
<svg viewBox="0.593 0.593 32 32" xmlns="http://www.w3.org/2000/svg">
  <g transform="matrix(0.0648, 0, 0, 0.0648, 0, 0)">
    <path d="M304, 256C304, 282.5 282.5, 304 256, 304C229.5, 304 208, 282.5 208, 256C208, 229.5 229.5, 208 256, 208C282.5, 208 304, 229.5 304, 256zM424, 208C397.5, 208 376, 229.5 376, 256C376, 282.5 397.5, 304 424, 304C450.5, 304 472, 282.5 472, 256C472, 229.5 450.5, 208 424, 208zM88, 208C61.5, 208 40, 229.5 40, 256C40, 282.5 61.5, 304 88, 304C114.5, 304 136, 282.5 136, 256C136, 229.5 114.5, 208 88, 208z" fill="#727272" fill-opacity="1" class="Black" />
  </g>
</svg>