<?xml version='1.0' encoding='UTF-8'?>
<svg viewBox="-10.5773 -1.5477 31.995 32" xmlns="http://www.w3.org/2000/svg">
  <g transform="matrix(0.9991, 0, 0, 0.9991, 0, 0)">
    <g transform="matrix(0.0565, 0, 0, 0.0565, 0, 0)">
      <path d="M96, 184C56.2, 184 24, 216.2 24, 256C24, 295.8 56.2, 328 96, 328C135.8, 328 168, 295.8 168, 256C168, 216.2 135.8, 184 96, 184zM96, 280C82.8, 280 72, 269.2 72, 256C72, 242.8 82.8, 232 96, 232C109.2, 232 120, 242.8 120, 256C120, 269.2 109.2, 280 96, 280zM96, 360C56.2, 360 24, 392.2 24, 432C24, 471.8 56.2, 504 96, 504C135.8, 504 168, 471.8 168, 432C168, 392.2 135.8, 360 96, 360zM96, 456C82.8, 456 72, 445.2 72, 432C72, 418.8 82.8, 408 96, 408C109.2, 408 120, 418.8 120, 432C120, 445.2 109.2, 456 96, 456zM96, 152C135.8, 152 168, 119.8 168, 80C168, 40.2 135.8, 8 96, 8C56.2, 8 24, 40.2 24, 80C24, 119.8 56.2, 152 96, 152zM96, 56C109.2, 56 120, 66.8 120, 80C120, 93.2 109.2, 104 96, 104C82.8, 104 72, 93.2 72, 80C72, 66.8 82.8, 56 96, 56z" fill="#727272" fill-opacity="1" class="Black" />
    </g>
  </g>
</svg>