<?xml version='1.0' encoding='UTF-8'?>
<svg viewBox="-2 0 32 32" xmlns="http://www.w3.org/2000/svg">
  <g transform="matrix(0.0625, 0, 0, 0.0625, 0, 0)">
    <path d="M443.31, 48L432, 36.69C425.75, 30.44 415.62, 30.44 409.37, 36.69L341.6, 104.46C309.09, 79.19 268.36, 64 224, 64C117.96, 64 32, 149.96 32, 256C32, 300.36 47.19, 341.09 72.46, 373.6L4.69, 441.38C-1.56, 447.63 -1.56, 457.76 4.69, 464.01L16, 475.31C22.25, 481.56 32.38, 481.56 38.63, 475.31L106.4, 407.54C138.9, 432.81 179.64, 448 224, 448C330.04, 448 416, 362.04 416, 256C416, 211.64 400.81, 170.91 375.54, 138.4L443.31, 70.63C449.56, 64.38 449.56, 54.24 443.31, 48zM80, 256C80, 176.6 144.6, 112 224, 112C255.04, 112 283.64, 122.11 307.18, 138.88L106.87, 339.18C90.1, 315.64 80, 287.05 80, 256zM368, 256C368, 335.4 303.4, 400 224, 400C192.95, 400 164.36, 389.9 140.81, 373.12L341.12, 172.82C357.9, 196.36 368, 224.96 368, 256z" fill="#727272" fill-opacity="1" class="Black" />
  </g>
</svg>