<?xml version='1.0' encoding='UTF-8'?>
<svg viewBox="-2 -1.9988 32 32" xmlns="http://www.w3.org/2000/svg">
  <g transform="matrix(0.0547, 0, 0, 0.0547, 0, 0)">
    <path d="M464, 64L48, 64C21.49, 64 0, 85.49 0, 112L0, 400C0, 426.51 21.49, 448 48, 448L464, 448C490.51, 448 512, 426.51 512, 400L512, 112C512, 85.49 490.51, 64 464, 64zM464, 112L464, 152.805C441.578, 171.064 405.832, 199.456 329.413, 259.295C312.572, 272.542 279.212, 304.367 256, 303.996C232.792, 304.371 199.421, 272.537 182.587, 259.295C106.18, 199.465 70.425, 171.067 48, 152.805L48, 112L464, 112zM48, 400L48, 214.398C70.914, 232.649 103.409, 258.26 152.938, 297.044C174.795, 314.249 213.072, 352.23 256, 351.999C298.717, 352.23 336.509, 314.8 359.053, 297.052C408.581, 258.269 441.085, 232.651 464, 214.399L464, 400L48, 400z" fill="#727272" fill-opacity="1" class="Black" />
  </g>
</svg>