<?xml version='1.0' encoding='UTF-8'?>
<svg viewBox="-2 -2 32 32" xmlns="http://www.w3.org/2000/svg">
  <g transform="matrix(0.0547, 0, 0, 0.0547, 0, 0)">
    <path d="M494.59, 164.52C493.07, 163.26 480.73, 153.32 464, 139.86L464, 96C464, 69.49 442.51, 48 416, 48L349.87, 48C327.24, 28.85 293.77, 0 256, 0C218.35, 0 185.1, 28.63 162.15, 48L96, 48C69.49, 48 48, 69.49 48, 96L48, 139.85C31.19, 153.37 18.85, 163.31 17.52, 164.41A48.002 48.002 0 0 0 0, 201.48L0, 464C0, 490.51 21.49, 512 48, 512L464, 512C490.51, 512 512, 490.51 512, 464L512, 201.51C512, 187.2 505.62, 173.63 494.59, 164.52zM96, 96L416, 96L416, 252.66C379.74, 281.98 337.31, 316.33 329.41, 322.61C311.25, 337.12 279.6, 368 256, 368C232.31, 368 200.14, 336.63 182.59, 322.61C174.69, 316.33 132.26, 281.97 96, 252.64L96, 96zM464, 458C464, 461.31 461.31, 464 458, 464L54, 464C50.69, 464 48, 461.31 48, 458L48, 275.56C86.96, 307.04 143.95, 353.21 152.66, 360.14C174.71, 377.76 212.55, 416 256, 416C299.21, 416 336.64, 378.28 359.34, 360.14C368.34, 352.99 425.18, 306.95 464, 275.58L464, 458zM176, 192L336, 192C344.84, 192 352, 184.84 352, 176L352, 160C352, 151.16 344.84, 144 336, 144L176, 144C167.16, 144 160, 151.16 160, 160L160, 176C160, 184.84 167.16, 192 176, 192zM352, 256L352, 240C352, 231.16 344.84, 224 336, 224L176, 224C167.16, 224 160, 231.16 160, 240L160, 256C160, 264.84 167.16, 272 176, 272L336, 272C344.84, 272 352, 264.84 352, 256z" fill="#727272" fill-opacity="1" class="Black" />
  </g>
</svg>