<?xml version='1.0' encoding='UTF-8'?>
<svg viewBox="-2 0 32 32" xmlns="http://www.w3.org/2000/svg">
  <g transform="matrix(0.0625, 0, 0, 0.0625, 0, 0)">
    <path d="M187.293, 260.374C114.743, 210.491 115.482, 210.366 96, 196L96, 184C96, 170.745 106.745, 160 120, 160L328, 160C341.255, 160 352, 170.745 352, 184L352, 196C332.503, 210.376 333.253, 210.494 260.707, 260.374C252.293, 266.186 235.603, 280.164 224, 279.999C212.4, 280.165 195.704, 266.183 187.293, 260.374zM278.856, 286.729C267.519, 294.575 247.377, 312.105 224, 312C200.759, 312.104 180.918, 294.882 169.151, 286.734C124.097, 255.757 107.131, 243.851 96, 235.776L96, 328C96, 341.255 106.745, 352 120, 352L328, 352C341.255, 352 352, 341.255 352, 328L352, 235.776C340.87, 243.85 323.906, 255.754 278.856, 286.729zM448, 80L448, 432C448, 458.51 426.51, 480 400, 480L48, 480C21.49, 480 0, 458.51 0, 432L0, 80C0, 53.49 21.49, 32 48, 32L400, 32C426.51, 32 448, 53.49 448, 80zM400, 426L400, 86A6 6 0 0 0 394, 80L54, 80A6 6 0 0 0 48, 86L48, 426A6 6 0 0 0 54, 432L394, 432A6 6 0 0 0 400, 426z" fill="#727272" fill-opacity="1" class="Black" />
  </g>
</svg>