<?xml version='1.0' encoding='UTF-8'?>
<svg viewBox="-2 2.6684 32 31.9975" xmlns="http://www.w3.org/2000/svg">
  <g transform="matrix(0.0729, 0, 0, 0.0729, 0, 0)">
    <path d="M368, 304L16, 304C7.16, 304 0, 311.16 0, 320L0, 352C0, 360.84 7.16, 368 16, 368L368, 368C376.84, 368 384, 360.84 384, 352L384, 320C384, 311.16 376.84, 304 368, 304zM368, 144L16, 144C7.16, 144 0, 151.16 0, 160L0, 192C0, 200.84 7.16, 208 16, 208L368, 208C376.84, 208 384, 200.84 384, 192L384, 160C384, 151.16 376.84, 144 368, 144z" fill="#727272" fill-opacity="1" class="Black" />
  </g>
</svg>