<?xml version='1.0' encoding='UTF-8'?>
<svg viewBox="-1.9975 -1.9975 32 32" xmlns="http://www.w3.org/2000/svg">
  <g transform="matrix(0.0547, 0, 0, 0.0547, 0, 0)">
    <path d="M497.94, 273.94A48 48 0 0 0 497.94, 206.06L337.94, 46.06A48 48 0 0 0 270.06, 46.06L14.06, 302.06A48 48 0 0 0 14.06, 369.94L110.06, 465.94A48 48 0 0 0 144, 480L500, 480A12 12 0 0 0 512, 468L512, 444A12 12 0 0 0 500, 432L339.88, 432L497.94, 273.94zM304, 80L464, 240L361, 343L201, 183zM144, 432L48, 336L167, 217L327, 377L272, 432z" fill="#727272" fill-opacity="1" class="Black" />
  </g>
</svg>