<?xml version='1.0' encoding='UTF-8'?>
<svg viewBox="-6.1288 0 32 32" xmlns="http://www.w3.org/2000/svg">
  <g transform="matrix(0.0625, 0, 0, 0.0625, 0, 0)">
    <path d="M315.6, 458.6L309.1, 429.2C307.7, 422.7 301.1, 418.6 294.6, 420.1C284.3, 422.5 268.1, 425.5 249.9, 425.5C184.4, 425.5 132.9, 386 111.7, 328.1L241.2, 328.1C246.9, 328.1 251.8, 324.1 252.9, 318.5L257.9, 294.5C259.4, 287 253.8, 280.1 246.2, 280.1L98.2, 280.1C96.7, 264 96.1, 247.8 97.6, 232.1L260.1, 232.1C265.8, 232.1 270.7, 228.1 271.8, 222.6L276.9, 198.6C278.5, 191.1 272.8, 184.1 265.2, 184.1L108.1, 184.1C129.1, 125.7 180.6, 86.1 248.1, 86.1C262.8, 86.1 277, 88.2 286.3, 89.9C292.5, 91 298.5, 87.3 300.1, 81.2L308, 51.6C309.8, 44.8 305.5, 38 298.6, 36.7C287.2, 34.6 269.2, 32 249.3, 32C149.3, 32 69.6, 96.1 43.4, 184L12, 184C5.4, 184 0, 189.4 0, 196L0, 220C0, 226.6 5.4, 232 12, 232L35.1, 232C33.9, 247.8 34.1, 267.5 35.5, 280L12, 280C5.4, 280 0, 285.4 0, 292L0, 316C0, 322.6 5.4, 328 12, 328L44.2, 328C70.2, 416.7 147.6, 480 249.2, 480C273.6, 480 294.6, 475.8 306.7, 472.8C313.1, 471.2 317, 464.9 315.6, 458.6z" fill="#727272" fill-opacity="1" class="Black" />
  </g>
</svg>