<?xml version='1.0' encoding='UTF-8'?>
<svg viewBox="-2 0 32 32" xmlns="http://www.w3.org/2000/svg">
  <g transform="matrix(0.0625, 0, 0, 0.0625, 0, 0)">
    <path d="M448, 80L448, 432C448, 458.51 426.51, 480 400, 480L48, 480C21.49, 480 0, 458.51 0, 432L0, 80C0, 53.49 21.49, 32 48, 32L400, 32C426.51, 32 448, 53.49 448, 80zM400, 426L400, 86A6 6 0 0 0 394, 80L54, 80A6 6 0 0 0 48, 86L48, 426A6 6 0 0 0 54, 432L394, 432A6 6 0 0 0 400, 426zM266, 352C266, 375.159 247.159, 394 224, 394C200.841, 394 182, 375.159 182, 352C182, 328.841 200.841, 310 224, 310C247.159, 310 266, 328.841 266, 352zM184.63, 140.599L191.43, 276.599C191.749, 282.986 197.021, 288 203.415, 288L244.585, 288C250.979, 288 256.251, 282.986 256.57, 276.599L263.37, 140.599C263.713, 133.745 258.248, 128 251.385, 128L196.615, 128C189.752, 128 184.287, 133.745 184.63, 140.599z" fill="#727272" fill-opacity="1" class="Black" />
  </g>
</svg>