<?xml version='1.0' encoding='UTF-8'?>
<svg viewBox="-8.9981 -2 32 32" xmlns="http://www.w3.org/2000/svg">
  <g transform="matrix(0.0547, 0, 0, 0.0547, 0, 0)">
    <path d="M173.854, 48C180.728, 48 186.197, 53.763 185.838, 60.628L174.096, 284.628C173.762, 291.003 168.496, 296 162.112, 296L93.888, 296C87.505, 296 82.238, 291.003 81.904, 284.628L70.162, 60.628C69.802, 53.763 75.271, 48 82.146, 48L173.854, 48M128, 336C163.29, 336 192, 364.71 192, 400C192, 435.29 163.29, 464 128, 464C92.71, 464 64, 435.29 64, 400C64, 364.71 92.71, 336 128, 336M173.854, 0L82.146, 0C47.881, 0 20.427, 28.783 22.228, 63.141L33.97, 287.141C34.668, 300.45 39.659, 312.555 47.562, 322.142C28.035, 342.31 16, 369.777 16, 400C16, 461.757 66.243, 512 128, 512C189.757, 512 240, 461.757 240, 400C240, 369.777 227.965, 342.31 208.439, 322.142A59.78 59.78 0 0 0 222.031, 287.141L233.773, 63.141C235.566, 28.922 208.259, 0 173.854, 0z" fill="#727272" fill-opacity="1" class="Black" />
  </g>
</svg>