<?xml version='1.0' encoding='UTF-8'?>
<svg viewBox="-2 -1.9988 32 32" xmlns="http://www.w3.org/2000/svg">
  <g transform="matrix(0.0547, 0, 0, 0.0547, 0, 0)">
    <path d="M0, 212L0, 88C0, 74.7 10.7, 64 24, 64L148, 64C154.6, 64 160, 69.4 160, 76L160, 100C160, 106.6 154.6, 112 148, 112L48, 112L48, 212C48, 218.6 42.6, 224 36, 224L12, 224C5.4, 224 0, 218.6 0, 212zM352, 76L352, 100C352, 106.6 357.4, 112 364, 112L464, 112L464, 212C464, 218.6 469.4, 224 476, 224L500, 224C506.6, 224 512, 218.6 512, 212L512, 88C512, 74.7 501.3, 64 488, 64L364, 64C357.4, 64 352, 69.4 352, 76zM500, 288L476, 288C469.4, 288 464, 293.4 464, 300L464, 400L364, 400C357.4, 400 352, 405.4 352, 412L352, 436C352, 442.6 357.4, 448 364, 448L488, 448C501.3, 448 512, 437.3 512, 424L512, 300C512, 293.4 506.6, 288 500, 288zM160, 436L160, 412C160, 405.4 154.6, 400 148, 400L48, 400L48, 300C48, 293.4 42.6, 288 36, 288L12, 288C5.4, 288 0, 293.4 0, 300L0, 424C0, 437.3 10.7, 448 24, 448L148, 448C154.6, 448 160, 442.6 160, 436z" fill="#727272" fill-opacity="1" class="Black" />
  </g>
</svg>