<?xml version='1.0' encoding='UTF-8'?>
<svg viewBox="-2.0048 -0.0018 31.995 32" xmlns="http://www.w3.org/2000/svg">
  <g transform="matrix(0.0625, 0, 0, 0.0625, 0, 0)">
    <path d="M252.3, 256L373.7, 377.4L427.5, 323.6C435.1, 316 448, 321.4 448, 332.1L448, 468.1C448, 474.7 442.6, 480.1 436, 480.1L300, 480.1C289.3, 480.1 284, 467.2 291.5, 459.6L345.3, 405.8L224, 284.3L102.6, 405.7L156.4, 459.5C164, 467.1 158.6, 480 147.9, 480L11.9, 480C5.3, 480 -0.1, 474.6 -0.1, 468L-0.1, 332C-0.1, 321.3 12.8, 316 20.4, 323.5L74.2, 377.3L195.7, 256L74.3, 134.6L20.5, 188.4C12.9, 196 0, 190.7 0, 180L0, 44C0, 37.4 5.4, 32 12, 32L148, 32C158.7, 32 164, 44.9 156.5, 52.5L102.7, 106.3L224, 227.7L345.4, 106.3L291.6, 52.5C284, 44.9 289.3, 32 300, 32L436, 32C442.6, 32 448, 37.4 448, 44L448, 180C448, 190.7 435.1, 196 427.5, 188.5L373.7, 134.7L252.3, 256z" fill="#727272" fill-opacity="1" class="Black" />
  </g>
</svg>