<?xml version='1.0' encoding='UTF-8'?>
<svg viewBox="-2 0 32 32" xmlns="http://www.w3.org/2000/svg">
  <g transform="matrix(0.0625, 0, 0, 0.0625, 0, 0)">
    <path d="M448, 56L448, 151.005C448, 172.387 422.149, 183.095 407.029, 167.976L379.325, 140.272L272.083, 247.515C267.397, 252.201 259.799, 252.201 255.112, 247.515L232.485, 224.888C227.799, 220.202 227.799, 212.604 232.485, 207.917L339.728, 100.674L312.024, 72.97C296.905, 57.851 307.613, 32 328.995, 32L424, 32C437.255, 32 448, 42.745 448, 56zM175.917, 264.485L68.674, 371.728L40.97, 344.024C25.851, 328.905 0, 339.613 0, 360.995L0, 456C0, 469.255 10.745, 480 24, 480L119.005, 480C140.387, 480 151.095, 454.149 135.976, 439.029L108.272, 411.325L215.515, 304.082C220.201, 299.396 220.201, 291.798 215.515, 287.111L192.888, 264.484C188.201, 259.799 180.603, 259.799 175.917, 264.485z" fill="#727272" fill-opacity="1" class="Black" />
  </g>
</svg>