<?xml version='1.0' encoding='UTF-8'?>
<svg viewBox="-1.9973 -4.7994 31.9975 32" xmlns="http://www.w3.org/2000/svg">
  <g transform="matrix(1.0012, 0, 0, 1.0012, 0, 0)">
    <g transform="matrix(0.0437, 0, 0, 0.0437, 0, 0)">
      <path d="M634, 471L36, 3.51A16 16 0 0 0 13.51, 6L3.51, 18.49A16 16 0 0 0 6, 41L604, 508.49A16 16 0 0 0 626.49, 506L636.49, 493.51A16 16 0 0 0 634, 471zM296.79, 146.47L431.58, 251.85C429.36, 191.91 380.48, 144 320, 144A112.26 112.26 0 0 0 296.79, 146.47zM343.21, 365.54L208.42, 260.16C210.65, 320.09 259.53, 368 320, 368A113 113 0 0 0 343.21, 365.54zM320, 112C418.65, 112 509.09, 167 557.93, 256A285.53 285.53 0 0 1 513.93, 316.2L551.67, 345.7A333.7 333.7 0 0 0 604.57, 270.59A32.35 32.35 0 0 0 604.57, 241.4C550.29, 135.59 442.93, 64 320, 64C283.3, 64 248.29, 71 215.37, 82.81L261.78, 119.1C280.72, 114.8 300.12, 112 320, 112zM320, 400C221.35, 400 130.92, 345 82.07, 256A285.47 285.47 0 0 1 126.12, 195.81L88.38, 166.31A333.6 333.6 0 0 0 35.49, 241.41A32.35 32.35 0 0 0 35.49, 270.6C89.72, 376.41 197.08, 448 320, 448C356.7, 448 391.71, 440.95 424.63, 429.19L378.22, 392.91C359.28, 397.2 339.89, 400 320, 400z" fill="#727272" fill-opacity="1" class="Black" />
    </g>
  </g>
</svg>