<?xml version='1.0' encoding='UTF-8'?>
<svg viewBox="-1.9999 -4.8004 32 32" xmlns="http://www.w3.org/2000/svg">
  <g transform="matrix(1.0011, 0, 0, 1.0011, 0, 0)">
    <g transform="matrix(0.0437, 0, 0, 0.0437, 0, 0)">
      <path d="M610.12, 217.47L515.59, 192.38C530.56, 169.02 556.87, 127.86 556.9, 127.82C565.99, 113.51 565.06, 95.66 554.46, 82.38C543.46, 68.57 524.8, 63.36 507.84, 69.29L406.22, 105.35C402.25, 103.65 398.19, 102.04 394.03, 100.54L357.28, 23.38C350.41, 8.95 336.12, 0 320, 0C303.88, 0 289.59, 8.95 282.72, 23.39L245.97, 100.53C241.81, 102.03 237.75, 103.64 233.78, 105.34L132.16, 69.3C115.22, 63.28 96.54, 68.6 85.54, 82.38C74.94, 95.66 74, 113.5 83.12, 127.88C83.12, 127.88 109.43, 169.02 124.4, 192.38L29.87, 217.47C12, 222.2 0, 237.69 0, 256C0, 274.31 12, 289.8 29.84, 294.53L124.34, 319.61C109.43, 342.94 83.12, 384.16 83.09, 384.19C74, 398.5 74.93, 416.35 85.53, 429.63C96.53, 443.46 115.25, 448.71 132.15, 442.72L233.77, 406.66C237.74, 408.36 241.8, 409.97 245.96, 411.47L282.71, 488.59C289.59, 503.03 303.88, 512 320, 512C336.12, 512 350.41, 503.03 357.28, 488.59L394.03, 411.47C398.19, 409.97 402.25, 408.36 406.22, 406.66L507.84, 442.71C524.81, 448.76 543.5, 443.44 554.46, 429.63C565.05, 416.35 565.99, 398.51 556.87, 384.15C556.87, 384.15 530.56, 342.95 515.65, 319.62L610.12, 294.54C628, 289.8 640, 274.31 640, 256C640, 237.69 628, 222.2 610.12, 217.47zM486.31, 277.73L481.31, 284.4A298.45 298.45 0 0 1 467.53, 301.52L455.72, 315.25L465.6, 330.42C466.94, 332.5 489.32, 367.5 503.91, 390.37L403.63, 354.79L394.57, 359.2C386.85, 362.98 378.45, 366.29 369.63, 369.03L359.6, 372.15L320, 455.27L280.41, 372.18L270.38, 369.06C261.57, 366.33 253.16, 363.01 245.44, 359.23L236.38, 354.82L136.1, 390.4C150.69, 367.52 173.04, 332.54 174.38, 330.51L184.41, 315.31L172.47, 301.54C167.35, 295.63 162.78, 289.9 158.69, 284.42L153.69, 277.75L71.81, 256L153.69, 234.25L158.69, 227.58C162.81, 222.08 167.38, 216.35 172.5, 210.42L184.41, 196.62L174.41, 181.4C172.91, 179.09 150.66, 144.35 136.13, 121.62L236.38, 157.18L245.44, 152.77C253.16, 148.99 261.56, 145.68 270.38, 142.94L280.41, 139.82L320, 56.72L359.59, 139.83L369.62, 142.95C378.43, 145.68 386.84, 149 394.56, 152.78L403.62, 157.19L503.87, 121.63C489.34, 144.38 467.12, 179.07 465.68, 181.29L455.4, 196.56L467.49, 210.44C472.61, 216.36 477.18, 222.1 481.3, 227.6L486.3, 234.27L568.19, 256L486.31, 277.73zM344.21, 222.02C348.62, 231.27 352, 242.43 352, 256C352, 298.67 320, 320 320, 320C320, 320 288, 298.67 288, 256C288, 242.43 291.37, 231.27 295.79, 222.02C274.97, 219.02 256.11, 212.26 240.2, 202.69C229.99, 217.94 224, 236.27 224, 256C224, 309.02 266.98, 352 320, 352C373.02, 352 416, 309.02 416, 256C416, 236.27 410.01, 217.94 399.8, 202.69C383.9, 212.26 365.03, 219.02 344.21, 222.02z" fill="#727272" fill-opacity="1" class="Black" />
    </g>
  </g>
</svg>