<?xml version='1.0' encoding='UTF-8'?>
<svg viewBox="-2.0011 -1.9998 32 31.9975" xmlns="http://www.w3.org/2000/svg">
  <g transform="matrix(0.0547, 0, 0, 0.0547, 0, 0)">
    <path d="M483.89, 28.14L483.87, 28.12L483.84, 28.09C446.37, -9.38 385.58, -9.37 348.12, 28.12L271.03, 105.21L257.93, 92.11C248.49, 82.67 233.28, 82.8 223.99, 92.11L160.39, 155.71C151.02, 165.08 151.02, 180.28 160.39, 189.65L177.37, 206.63L50.75, 333.25C38.75, 345.25 32, 361.53 32, 378.51L32, 424L0, 480L32, 512L88, 480L133.49, 480C150.46, 480 166.74, 473.26 178.74, 461.26L305.38, 334.64L322.34, 351.6C331.78, 361.04 346.99, 360.91 356.28, 351.6L419.88, 288C429.25, 278.63 429.25, 263.43 419.88, 254.06L406.78, 240.96L483.87, 163.87C521.37, 126.4 521.37, 65.62 483.89, 28.14zM144.8, 427.32A15.892 15.892 0 0 1 133.49, 432L80, 432L80, 378.51C80, 374.24 81.66, 370.22 84.69, 367.2L211.32, 240.58L271.44, 300.7L144.8, 427.32zM449.94, 129.94L372.85, 207.03L338.91, 240.97L368.98, 271.03L339.32, 300.69L211.32, 172.69L240.98, 143.04L271.04, 173.11L382.08, 62.05C391.13, 52.99 403.18, 48 415.99, 48C428.81, 48 440.85, 52.98 449.9, 62.04L449.94, 62.08C459.01, 71.14 464, 83.19 464, 96.01C464, 108.82 459, 120.87 449.94, 129.94z" fill="#727272" fill-opacity="1" class="Black" />
  </g>
</svg>