<?xml version='1.0' encoding='UTF-8'?>
<svg viewBox="-2 -1.9975 32 31.9975" xmlns="http://www.w3.org/2000/svg">
  <g transform="matrix(0.0547, 0, 0, 0.0547, 0, 0)">
    <path d="M500, 64L476, 64C469.4, 64 464, 69.4 464, 76L464, 234.3C462.9, 233.1 461.8, 231.9 460.5, 230.9L276.5, 71.4C255.9, 54.3 224, 68.6 224, 96L224, 220L52.5, 71.4C31.9, 54.3 0, 68.6 0, 96L0, 416C0, 443.4 31.9, 457.8 52.5, 440.6L224, 291L224, 416C224, 443.4 255.9, 457.8 276.5, 440.6L460.5, 280.1C461.8, 279 462.9, 277.9 464, 276.7L464, 436C464, 442.6 469.4, 448 476, 448L500, 448C506.6, 448 512, 442.6 512, 436L512, 76C512, 69.4 506.6, 64 500, 64zM48, 380.8L48, 131.1L191.6, 255.5L48, 380.8zM272, 380.8L272, 131.1L415.6, 255.5L272, 380.8z" fill="#727272" fill-opacity="1" class="Black" />
  </g>
</svg>