<?xml version='1.0' encoding='UTF-8'?>
<svg viewBox="-2 -2 32 32" xmlns="http://www.w3.org/2000/svg">
  <g transform="matrix(0.0547, 0, 0, 0.0547, 0, 0)">
    <path d="M288, 368L256, 368A16 16 0 0 0 240, 384L240, 416A16 16 0 0 0 256, 432L288, 432A16 16 0 0 0 304, 416L304, 384A16 16 0 0 0 288, 368zM480, 200.88L480, 77.25A32 32 0 0 0 470.62, 54.62L425.38, 9.38A32 32 0 0 0 402.75, 0L176, 0A32 32 0 0 0 144, 32L144, 136.88A63.33 63.33 0 0 0 112, 128L64, 128A64 64 0 0 0 0, 192L0, 448A64 64 0 0 0 64, 512L112, 512A63.44 63.44 0 0 0 152, 497.59A63.44 63.44 0 0 0 192, 512L448, 512A64 64 0 0 0 512, 448L512, 256A63.71 63.71 0 0 0 480, 200.88zM128, 448A16 16 0 0 1 112, 464L64, 464A16 16 0 0 1 48, 448L48, 192A16 16 0 0 1 64, 176L112, 176A16 16 0 0 1 128, 192zM192, 48L384, 48L384, 80A16 16 0 0 0 400, 96L432, 96L432, 192L192, 192zM464, 448A16 16 0 0 1 448, 464L192, 464A16 16 0 0 1 176, 448L176, 240L448, 240A16 16 0 0 1 464, 256zM288, 272L256, 272A16 16 0 0 0 240, 288L240, 320A16 16 0 0 0 256, 336L288, 336A16 16 0 0 0 304, 320L304, 288A16 16 0 0 0 288, 272zM384, 272L352, 272A16 16 0 0 0 336, 288L336, 320A16 16 0 0 0 352, 336L384, 336A16 16 0 0 0 400, 320L400, 288A16 16 0 0 0 384, 272zM384, 368L352, 368A16 16 0 0 0 336, 384L336, 416A16 16 0 0 0 352, 432L384, 432A16 16 0 0 0 400, 416L400, 384A16 16 0 0 0 384, 368z" fill="#727272" fill-opacity="1" class="Black" />
  </g>
</svg>