<?xml version='1.0' encoding='UTF-8'?>
<svg viewBox="-2.0087 -2.01 32 32" xmlns="http://www.w3.org/2000/svg">
  <g transform="matrix(0.9994, 0, 0, 0.9994, 0, 0)">
    <g transform="matrix(0.0547, 0, 0, 0.0547, 0, 0)">
      <path d="M71.46, 287.61C66.61, 329.56 64.21, 371.75 64.08, 413.98L7.03, 471.03C-2.34, 480.4 -2.34, 495.6 7.03, 504.97C16.4, 514.34 31.6, 514.34 40.97, 504.97L98.02, 447.92C140.25, 447.8 182.44, 445.39 224.39, 440.54C473.8, 415.14 508.44, 51.72 512, 0C460.28, 3.56 96.87, 38.2 71.46, 287.61zM218.88, 392.86C195.47, 395.57 171.58, 397.22 147.57, 398.37L193.94, 352L319.31, 352C291.42, 373.72 258.42, 388.83 218.88, 392.86zM352.81, 320L225.94, 320L289.94, 256L396.06, 256C383.95, 279.11 369.52, 300.76 352.81, 320zM321.94, 224L335.48, 210.46C344.85, 201.09 344.85, 185.89 335.48, 176.52C326.11, 167.15 310.91, 167.15 301.54, 176.52L113.64, 364.42C114.8, 340.33 116.47, 316.29 119.22, 292.46C136.33, 124.4 349.77, 70.87 457.48, 54.51C450.59, 99.81 436.95, 163.76 411.11, 224L321.94, 224z" fill="#727272" fill-opacity="1" class="Black" />
    </g>
  </g>
</svg>