<?xml version='1.0' encoding='UTF-8'?>
<svg viewBox="-2 -2 32 32" xmlns="http://www.w3.org/2000/svg">
  <g transform="matrix(0.0547, 0, 0, 0.0547, 0, 0)">
    <path d="M467.1, 44.9C438.24, 16.04 401.59, 0 361.59, 0C314.89, 0 263.61, 21.85 214.81, 70.66L129.06, 156.42C54, 231.47 56.69, 352.92 72.69, 405.37L7.03, 471.03C-2.34, 480.4 -2.34, 495.6 7.03, 504.97C16.4, 514.34 31.6, 514.34 40.97, 504.97L106.57, 439.37C124.01, 444.67 149, 448.52 177.45, 448.52C234.64, 448.52 305.49, 433.04 355.58, 382.95L441.34, 297.2C531.95, 206.58 529.66, 107.45 467.1, 44.9zM147.37, 398.57L193.94, 352L318.06, 352C273.44, 393.83 211.19, 400.46 177.45, 400.46C166.04, 400.47 156.16, 399.65 147.37, 398.57zM350.58, 320L225.94, 320L289.94, 256L413.75, 256C411.52, 258.4 409.74, 260.83 407.36, 263.21L350.58, 320zM438.89, 224L321.94, 224L344.45, 201.49C353.82, 192.12 353.82, 176.92 344.45, 167.55C335.08, 158.18 319.88, 158.18 310.51, 167.55L113.51, 364.55C108.24, 318.58 113.22, 240.21 163.03, 190.4C163.03, 190.4 181.74, 171.69 248.78, 104.64C285.8, 67.62 324.81, 48.06 361.58, 48.06C388.21, 48.06 412.95, 58.72 433.11, 78.88C472.28, 118.04 473.13, 171.13 438.89, 224z" fill="#727272" fill-opacity="1" class="Black" />
  </g>
</svg>