<?xml version='1.0' encoding='UTF-8'?>
<svg viewBox="-7.2493 -1.9998 32 31.9975" xmlns="http://www.w3.org/2000/svg">
  <g transform="matrix(0.0547, 0, 0, 0.0547, 0, 0)">
    <path d="M300.6, 331.5L252.6, 192.5C249.1, 182.3 243.2, 173.1 235.2, 165.9C250.6, 148.3 260, 125.3 260, 100.1C260, 44.9 215.1, 0 160, 0C104.9, 0 60, 44.9 60, 100C60, 125.2 69.4, 148.2 84.8, 165.8C76.9, 173.1 70.9, 182.2 67.4, 192.4L19.5, 331.2C5.2, 374 36.9, 416 80, 416L80, 448C80, 483.3 108.7, 512 144, 512L176, 512C211.3, 512 240, 483.3 240, 448L240, 416C284, 415.8 314.5, 373.1 300.6, 331.5zM160, 48C188.7, 48 212, 71.3 212, 100C212, 128.7 188.7, 152 160, 152C131.3, 152 108, 128.7 108, 100C108, 71.3 131.3, 48 160, 48zM239.6, 368L192, 368L192, 448C192, 456.8 184.8, 464 176, 464L144, 464C135.2, 464 128, 456.8 128, 448L128, 368L80, 368C69.5, 368 61.2, 357.8 64.9, 346.6L112.8, 208C115, 201.5 121.1, 197.1 128, 197.1L135.9, 197.1C151.7, 201 168.3, 201 184.1, 197.1L192, 197.1C198.9, 197.1 205, 201.5 207.2, 208L255.2, 346.9C258.5, 356.9 251.4, 368 239.6, 368z" fill="#727272" fill-opacity="1" class="Black" />
  </g>
</svg>