<?xml version='1.0' encoding='UTF-8'?>
<svg viewBox="-2 -4.7992 32 32" xmlns="http://www.w3.org/2000/svg">
  <g transform="matrix(0.9988, 0, 0, 0.9988, 0, 0)">
    <g transform="matrix(0.0438, 0, 0, 0.0438, 0, 0)">
      <path d="M520, 181.4L412, 169.06L370.22, 152L359.07, 152L288.5, 63.79C310.73, 62.56 328, 56.09 328, 48C328, 39 306.62, 32 280.81, 32L128, 32L128, 64L144, 64L144, 127.53L119.48, 96L45.18, 96L8, 133.18L8, 195.3L0, 196.3L0, 315.72L8, 316.72L8, 378.84L45.18, 416L119.48, 416L144, 384.47L144, 448L128, 448L128, 480L280.81, 480C306.62, 480 328, 473 328, 464C328, 455.91 310.73, 449.44 288.5, 448.21L359.07, 360L370.22, 360L412, 342.94L520, 330.6C581, 317.05 640.35, 308.6 640, 256C640.3, 203.24 580.46, 194.85 520, 181.4zM512, 283.2L400, 296L360.8, 312L336, 312L240, 432L192, 432L192, 296L152, 296L96, 368L65.07, 368L56, 358.93L56, 304L64, 304L64, 288L104, 288L104, 280L48, 273.2L48, 238.8L104, 232L104, 224L64, 224L64, 208L56, 208L56, 153.07L65.07, 144L96, 144L152, 216L192, 216L192, 80L240, 80L336, 200L360.8, 200L400, 216L512, 228.8C593.6, 246.93 592, 251.4 592, 256C592, 260.6 593.6, 265.07 512, 283.2z" fill="#727272" fill-opacity="1" class="Black" />
    </g>
  </g>
</svg>