<?xml version='1.0' encoding='UTF-8'?>
<svg viewBox="-1.9998 -2.0011 31.9975 32" xmlns="http://www.w3.org/2000/svg">
  <g transform="matrix(0.0547, 0, 0, 0.0547, 0, 0)">
    <path d="M497.83, 97.98L413.94, 14.1C404.94, 5.1 392.74, 0 380.05, 0L175.99, 0C149.5, 0.1 128, 21.6 128, 48.09L128, 128L175.99, 128L175.99, 48.09L335.96, 48.09L335.96, 152.07C335.96, 165.37 346.66, 176.06 359.96, 176.06L464, 176.06L464, 464.01L224, 464.01L224, 512L463.93, 512C490.43, 512 512, 490.5 512, 464.01L512, 131.97C512, 119.28 506.83, 106.98 497.83, 97.98zM383.95, 128.07L383.95, 51.99L460.04, 128.07L383.95, 128.07zM247.42, 338.28C254.82, 330.75 257.71, 319.78 255, 309.49C249.57, 288.84 249.56, 291.75 255, 271.07C257.71, 260.78 254.82, 249.81 247.42, 242.28C232.56, 227.16 233.99, 229.67 228.55, 209.01C225.84, 198.72 217.95, 190.69 207.84, 187.94C187.56, 182.41 190, 183.84 175.15, 168.73C167.75, 161.2 156.97, 158.26 146.86, 161.02C126.54, 166.56 129.4, 166.55 109.11, 161.02C99.01, 158.26 88.23, 161.21 80.83, 168.73C65.92, 183.91 68.33, 182.43 48.14, 187.94C38.03, 190.7 30.14, 198.73 27.43, 209.01C21.97, 229.75 23.43, 227.14 8.56, 242.28C1.16, 249.81 -1.73, 260.78 0.98, 271.07C6.43, 291.78 6.4, 288.86 0.98, 309.49C-1.73, 319.78 1.16, 330.75 8.56, 338.28C23.41, 353.39 21.99, 350.89 27.43, 371.55C30.14, 381.84 38.03, 389.87 48.14, 392.62C62.45, 396.52 59.66, 395.59 63.98, 397.62L63.98, 512L127.98, 480L191.98, 512L191.98, 397.62C196.29, 395.6 193.5, 396.52 207.82, 392.62C217.93, 389.86 225.82, 381.83 228.53, 371.55C234.01, 350.8 232.55, 353.41 247.42, 338.28zM128, 352C92.66, 352 64, 323.35 64, 288C64, 252.65 92.66, 224 128, 224C163.34, 224 192, 252.65 192, 288C192, 323.35 163.34, 352 128, 352z" fill="#727272" fill-opacity="1" class="Black" />
  </g>
</svg>