<?xml version='1.0' encoding='UTF-8'?>
<svg viewBox="-0.4421 -3.5563 31.995 32" xmlns="http://www.w3.org/2000/svg">
  <g transform="matrix(0.0486, 0, 0, 0.0486, 0, 0)">
    <path d="M603.32, 473.39L521.84, 391.93A128 128 0 1 0 487.91, 425.86L569.39, 507.32A16 16 0 0 0 592.01, 507.32L603.32, 496A16 16 0 0 0 603.32, 473.39zM416, 400A80 80 0 1 1 496, 320A80.09 80.09 0 0 1 416, 400zM80, 464L80, 48.09L240, 48.09L240, 152.09A23.93 23.93 0 0 0 264, 176.09L347.29, 176.09C368.18, 166.09 391.29, 160.03 416, 160.03L416, 132A48.23 48.23 0 0 0 401.9, 98L318, 14.1A48 48 0 0 0 284.1, 0L80, 0A48.16 48.16 0 0 0 32, 48.09L32, 464A48 48 0 0 0 80, 512L368, 512A47.86 47.86 0 0 0 413.15, 479.71A158.48 158.48 0 0 1 347.43, 464zM288, 52L364.1, 128.08L288, 128.08z" fill="#727272" fill-opacity="1" class="Black" />
  </g>
</svg>