<?xml version='1.0' encoding='UTF-8'?>
<svg viewBox="-5.5003 -2 32 32" xmlns="http://www.w3.org/2000/svg">
  <g transform="matrix(0.0547, 0, 0, 0.0547, 0, 0)">
    <path d="M369.83, 97.98L285.94, 14.1C276.94, 5.1 264.74, 0 252.05, 0L47.99, 0C21.5, 0.1 0, 21.6 0, 48.09L0, 464.01C0, 490.5 21.5, 512 47.99, 512L335.93, 512C362.43, 512 384, 490.5 384, 464.01L384, 131.97C384, 119.28 378.83, 106.98 369.83, 97.98zM255.95, 51.99L332.04, 128.07L255.95, 128.07L255.95, 51.99zM336, 464.01L47.99, 464.01L47.99, 48.09L207.96, 48.09L207.96, 152.07C207.96, 165.37 218.66, 176.06 231.96, 176.06L336, 176.06L336, 464.01zM182.98, 227.79L110.67, 299.56C103.07, 307.1 108.41, 320.08 119.12, 320.08L168, 320.08L168, 404.08C168, 410.71 173.37, 416.08 180, 416.08L204, 416.08C210.63, 416.08 216, 410.71 216, 404.08L216, 320.08L264.88, 320.08C275.59, 320.08 280.93, 307.11 273.33, 299.56L201.02, 227.79C196.03, 222.84 187.97, 222.84 182.98, 227.79z" fill="#727272" fill-opacity="1" class="Black" />
  </g>
</svg>