<?xml version='1.0' encoding='UTF-8'?>
<svg viewBox="-5.5003 -2 32 32" xmlns="http://www.w3.org/2000/svg">
  <g transform="matrix(0.0547, 0, 0, 0.0547, 0, 0)">
    <path d="M369.83, 97.98L285.94, 14.1C276.94, 5.1 264.74, 0 252.05, 0L47.99, 0C21.5, 0.1 0, 21.6 0, 48.09L0, 464.01C0, 490.5 21.5, 512 47.99, 512L335.93, 512C362.43, 512 384, 490.5 384, 464.01L384, 131.97C384, 119.28 378.83, 106.98 369.83, 97.98zM255.95, 51.99L332.04, 128.07L255.95, 128.07L255.95, 51.99zM336, 464.01L47.99, 464.01L47.99, 48.09L207.96, 48.09L207.96, 152.07C207.96, 165.37 218.66, 176.06 231.96, 176.06L336, 176.06L336, 464.01zM160, 257.61C123.48, 265.02 96, 297.29 96, 336C96, 380.18 131.82, 416 176, 416C214.7, 416 246.97, 388.51 254.39, 352L160, 352L160, 257.61zM192, 225.61L192, 320L286.39, 320A80.321 80.321 0 0 0 288, 304C288, 259.82 252.18, 224 208, 224C202.52, 224 197.17, 224.56 192, 225.61z" fill="#727272" fill-opacity="1" class="Black" />
  </g>
</svg>