<?xml version='1.0' encoding='UTF-8'?>
<svg viewBox="-5.5021 -2.005 32 32" xmlns="http://www.w3.org/2000/svg">
  <g transform="matrix(0.0547, 0, 0, 0.0547, 0, 0)">
    <path d="M369.9, 97.9L286, 14C277, 5 264.8, -0.1 252.1, -0.1L48, -0.1C21.5, 0 0, 21.5 0, 48L0, 464C0, 490.5 21.5, 512 48, 512L336, 512C362.5, 512 384, 490.5 384, 464L384, 131.9C384, 119.2 378.9, 106.9 369.9, 97.9zM332.1, 128L256, 128L256, 51.9L332.1, 128zM48, 464L48, 48L208, 48L208, 152C208, 165.3 218.7, 176 232, 176L336, 176L336, 464L48, 464zM80, 416L304, 416L304, 288L280.5, 264.5C275.8, 259.8 268.2, 259.8 263.5, 264.5L176, 352L136.5, 312.5C131.8, 307.8 124.2, 307.8 119.5, 312.5L80, 352L80, 416zM128, 176C101.5, 176 80, 197.5 80, 224C80, 250.5 101.5, 272 128, 272C154.5, 272 176, 250.5 176, 224C176, 197.5 154.5, 176 128, 176z" fill="#727272" fill-opacity="1" class="Black" />
  </g>
</svg>