<?xml version='1.0' encoding='UTF-8'?>
<svg viewBox="-5.5003 -2 32 32" xmlns="http://www.w3.org/2000/svg">
  <g transform="matrix(0.0547, 0, 0, 0.0547, 0, 0)">
    <path d="M196.66, 363.33L182.78, 321.71C179.5, 311.9 170.34, 305.3 160, 305.3C149.66, 305.3 140.5, 311.89 137.22, 321.71L119, 376.36C117.5, 380.94 113.22, 384 108.41, 384L96, 384C87.16, 384 80, 391.16 80, 400C80, 408.84 87.16, 416 96, 416L108.41, 416C127.03, 416 143.5, 404.12 149.38, 386.47L160, 354.58L176.81, 405.06A15.994 15.994 0 0 0 190.87, 415.95C191.25, 415.98 191.62, 416 191.99, 416C198.02, 416 203.58, 412.59 206.3, 407.14L213.96, 391.81C216.74, 386.22 221.9, 385.62 223.99, 385.62C226.08, 385.62 231.24, 386.21 234.18, 392.15C241.56, 406.85 256.37, 415.99 272.8, 415.99L288, 415.99C296.84, 415.99 304, 408.83 304, 399.99C304, 391.15 296.84, 383.99 288, 383.99L272.81, 383.99C268.53, 383.99 264.69, 381.61 262.65, 377.49C250.72, 353.64 216.41, 347.16 196.66, 363.33zM369.83, 97.98L285.94, 14.1C276.94, 5.1 264.74, 0 252.05, 0L47.99, 0C21.5, 0.1 0, 21.6 0, 48.09L0, 464.01C0, 490.5 21.5, 512 47.99, 512L335.93, 512C362.43, 512 384, 490.5 384, 464.01L384, 131.97C384, 119.28 378.83, 106.98 369.83, 97.98zM255.95, 51.99L332.04, 128.07L255.95, 128.07L255.95, 51.99zM336, 464.01L47.99, 464.01L47.99, 48.09L207.96, 48.09L207.96, 152.07C207.96, 165.37 218.66, 176.06 231.96, 176.06L336, 176.06L336, 464.01zM88, 112L168, 112C172.42, 112 176, 108.42 176, 104L176, 88C176, 83.58 172.42, 80 168, 80L88, 80C83.58, 80 80, 83.58 80, 88L80, 104C80, 108.42 83.58, 112 88, 112zM88, 176L168, 176C172.42, 176 176, 172.42 176, 168L176, 152C176, 147.58 172.42, 144 168, 144L88, 144C83.58, 144 80, 147.58 80, 152L80, 168C80, 172.42 83.58, 176 88, 176z" fill="#727272" fill-opacity="1" class="Black" />
  </g>
</svg>