<?xml version='1.0' encoding='UTF-8'?>
<svg viewBox="-5.5003 -2 32 32" xmlns="http://www.w3.org/2000/svg">
  <g transform="matrix(0.0547, 0, 0, 0.0547, 0, 0)">
    <path d="M224, 232C224, 227.6 220.4, 224 216, 224L168, 224C163.6, 224 160, 227.6 160, 232L160, 288L104, 288C99.6, 288 96, 291.6 96, 296L96, 344C96, 348.4 99.6, 352 104, 352L160, 352L160, 408C160, 412.4 163.6, 416 168, 416L216, 416C220.4, 416 224, 412.4 224, 408L224, 352L280, 352C284.4, 352 288, 348.4 288, 344L288, 296C288, 291.6 284.4, 288 280, 288L224, 288L224, 232zM369.8, 98L285.9, 14.1C276.9, 5.1 264.7, 0 252, 0L48, 0C21.5, 0.1 0, 21.6 0, 48.1L0, 464C0, 490.5 21.5, 512 48, 512L335.9, 512C362.4, 512 384, 490.5 384, 464L384, 132C384, 119.3 378.8, 107 369.8, 98zM255.9, 52L332, 128.1L255.9, 128.1L255.9, 52zM336, 464L48, 464L48, 48.1L208, 48.1L208, 152.1C208, 165.4 218.7, 176.1 232, 176.1L336, 176.1L336, 464z" fill="#727272" fill-opacity="1" class="Black" />
  </g>
</svg>