<?xml version='1.0' encoding='UTF-8'?>
<svg viewBox="-5.5021 -2.005 32 32" xmlns="http://www.w3.org/2000/svg">
  <g transform="matrix(0.0547, 0, 0, 0.0547, 0, 0)">
    <path d="M369.9, 97.9L286, 14C277, 5 264.8, -0.1 252.1, -0.1L48, -0.1C21.5, 0 0, 21.5 0, 48L0, 464C0, 490.5 21.5, 512 48, 512L336, 512C362.5, 512 384, 490.5 384, 464L384, 131.9C384, 119.2 378.9, 106.9 369.9, 97.9zM332.1, 128L256, 128L256, 51.9L332.1, 128zM48, 464L48, 48L208, 48L208, 152C208, 165.3 218.7, 176 232, 176L336, 176L336, 464L48, 464zM260, 224L231.2, 224C226.8, 224 222.8, 226.4 220.7, 230.3C202.7, 263.4 198.5, 272.7 192.1, 288C178.2, 258.9 185.2, 270.7 163.5, 230.3C161.4, 226.4 157.3, 224 152.9, 224L124, 224C114.7, 224 109, 234 113.6, 242L159.9, 320L113.6, 398C108.9, 406 114.7, 416 124, 416L152.9, 416C157.3, 416 161.3, 413.6 163.4, 409.7C185.1, 369.7 186.4, 364.7 192, 352C206.9, 382.2 197.9, 367.9 220.6, 409.7C222.7, 413.6 226.8, 416 231.2, 416L260, 416C269.3, 416 275, 406 270.4, 398L224, 320C224.7, 318.9 254.3, 269.5 270.3, 242C275, 234 269.2, 224 260, 224z" fill="#727272" fill-opacity="1" class="Black" />
  </g>
</svg>