<?xml version='1.0' encoding='UTF-8'?>
<svg viewBox="-1.9998 -3.5563 31.9975 32" xmlns="http://www.w3.org/2000/svg">
  <g transform="matrix(0.0486, 0, 0, 0.0486, 0, 0)">
    <path d="M568.54, 167.33L536.67, 135.46C526.73, 125.52 510.6, 125.52 500.66, 135.46L473.41, 162.71L541.29, 230.59L568.54, 203.34C578.49, 193.4 578.49, 177.27 568.54, 167.33zM329.06, 306A63.974 63.974 0 0 0 312.8, 333.11L297.57, 384L272.81, 384C268.53, 384 264.69, 381.62 262.65, 377.5C250.68, 353.64 216.37, 347.16 196.65, 363.33L182.77, 321.71C179.49, 311.9 170.33, 305.3 159.99, 305.3C149.65, 305.3 140.49, 311.89 137.21, 321.71L119, 376.36C117.5, 380.94 113.22, 384 108.41, 384L96, 384C87.16, 384 80, 391.16 80, 400C80, 408.84 87.16, 416 96, 416L108.41, 416C127.03, 416 143.5, 404.12 149.38, 386.47L160, 354.58L176.81, 405.06A15.994 15.994 0 0 0 190.87, 415.95C191.25, 415.98 191.62, 416 191.99, 416C198.02, 416 203.58, 412.59 206.3, 407.14L213.96, 391.81C216.74, 386.22 221.9, 385.62 223.99, 385.62C226.08, 385.62 231.24, 386.21 234.18, 392.15C241.56, 406.85 256.37, 415.99 272.8, 415.99L336, 415.99L336, 464L47.99, 464L47.99, 48.09L207.96, 48.09L207.96, 152.07C207.96, 165.37 218.66, 176.06 231.96, 176.06L336, 176.06L336, 254.06L384, 206.48L384, 131.98C384, 119.28 378.83, 106.98 369.83, 97.99L285.94, 14.1C276.94, 5.1 264.74, 0 252.05, 0L47.99, 0C21.5, 0.1 0, 21.6 0, 48.09L0, 464.01C0, 490.5 21.5, 512 47.99, 512L335.93, 512C362.43, 512 384, 490.5 384, 464.01L384, 388.8L518.66, 253.22L450.78, 185.34L329.06, 306zM255.95, 51.99L332.04, 128.07L255.95, 128.07L255.95, 51.99z" fill="#727272" fill-opacity="1" class="Black" />
  </g>
</svg>