<?xml version='1.0' encoding='UTF-8'?>
<svg viewBox="-5.5003 -2 32 32" xmlns="http://www.w3.org/2000/svg">
  <g transform="matrix(0.0547, 0, 0, 0.0547, 0, 0)">
    <path d="M369.83, 97.98L285.94, 14.1C276.94, 5.1 264.74, 0 252.05, 0L47.99, 0C21.5, 0.1 0, 21.6 0, 48.09L0, 464.01C0, 490.5 21.5, 512 47.99, 512L335.93, 512C362.43, 512 384, 490.5 384, 464.01L384, 131.97C384, 119.28 378.83, 106.98 369.83, 97.98zM255.95, 51.99L332.04, 128.07L255.95, 128.07L255.95, 51.99zM336, 464.01L47.99, 464.01L47.99, 48.09L207.96, 48.09L207.96, 152.07C207.96, 165.37 218.66, 176.06 231.96, 176.06L336, 176.06L336, 464.01zM224.97, 330.34L192.67, 298.04C211.17, 288.9 224, 270.03 224, 248C224, 217.07 198.93, 192 168, 192L104, 192C99.58, 192 96, 195.58 96, 200L96, 344C96, 348.42 99.58, 352 104, 352L120, 352C124.42, 352 128, 348.42 128, 344L128, 304L153.37, 304L202.34, 352.97C201.19, 353.35 199.94, 353.43 199.03, 354.34L162.34, 391.03C159.22, 394.15 159.22, 399.22 162.34, 402.34L173.65, 413.65C176.77, 416.77 181.84, 416.77 184.96, 413.65L221.65, 376.96C222.57, 376.04 222.64, 374.8 223.02, 373.65L263.02, 413.65C266.14, 416.77 271.21, 416.77 274.33, 413.65L285.64, 402.34C288.76, 399.22 288.76, 394.15 285.64, 391.03L245.64, 351.03C246.79, 350.65 248.04, 350.57 248.95, 349.66L285.64, 312.97C288.76, 309.85 288.76, 304.78 285.64, 301.66L274.33, 290.35C271.21, 287.23 266.14, 287.23 263.02, 290.35L226.33, 327.04C225.43, 327.94 225.35, 329.19 224.97, 330.34zM168, 272L128, 272L128, 224L168, 224C181.23, 224 192, 234.77 192, 248C192, 261.23 181.23, 272 168, 272z" fill="#727272" fill-opacity="1" class="Black" />
  </g>
</svg>