<?xml version='1.0' encoding='UTF-8'?>
<svg viewBox="-5.5003 -2 32 32" xmlns="http://www.w3.org/2000/svg">
  <g transform="matrix(0.0547, 0, 0, 0.0547, 0, 0)">
    <path d="M369.941, 97.941L286.059, 14.059A48 48 0 0 0 252.118, 0L48, 0C21.49, 0 0, 21.49 0, 48L0, 464C0, 490.51 21.49, 512 48, 512L336, 512C362.51, 512 384, 490.51 384, 464L384, 131.882A48 48 0 0 0 369.941, 97.941zM332.118, 128L256, 128L256, 51.882L332.118, 128zM48, 464L48, 48L208, 48L208, 152C208, 165.255 218.745, 176 232, 176L336, 176L336, 464L48, 464zM309.151, 271.339L166.842, 412.508C162.137, 417.175 154.539, 417.145 149.871, 412.44L74.78, 336.74C70.113, 332.035 70.143, 324.437 74.848, 319.769L97.567, 297.233C102.272, 292.566 109.87, 292.596 114.537, 297.302L158.641, 341.763L269.713, 231.582C274.418, 226.915 282.016, 226.945 286.684, 231.65L309.22, 254.368C313.887, 259.074 313.856, 266.671 309.151, 271.339z" fill="#727272" fill-opacity="1" class="Black" />
  </g>
</svg>