<?xml version='1.0' encoding='UTF-8'?>
<svg viewBox="-2 -2 32 32" xmlns="http://www.w3.org/2000/svg">
  <g transform="matrix(0.0547, 0, 0, 0.0547, 0, 0)">
    <path d="M497.83, 97.98L413.94, 14.1C404.94, 5.1 392.74, 0 380.05, 0L175.99, 0C149.5, 0.1 128, 21.6 128, 48.09L128, 264.07L12, 264.07C5.37, 264.07 0, 269.44 0, 276.07L0, 300.07C0, 306.7 5.37, 312.07 12, 312.07L288, 312.07L288, 360.95C288, 371.66 300.97, 377 308.52, 369.4L380.29, 297.09C385.24, 292.1 385.24, 284.05 380.29, 279.06L308.52, 206.75C300.97, 199.15 288, 204.49 288, 215.2L288, 264.08L175.99, 264.08L175.99, 48.09L335.96, 48.09L335.96, 152.07C335.96, 165.37 346.66, 176.06 359.96, 176.06L464, 176.06L464, 464.01L175.99, 464.01L175.99, 360.07L128, 360.07L128, 464.01C128, 490.5 149.5, 512 175.99, 512L463.93, 512C490.43, 512 512, 490.5 512, 464.01L512, 131.97C512, 119.28 506.83, 106.98 497.83, 97.98zM383.95, 128.07L383.95, 51.99L460.04, 128.07L383.95, 128.07z" fill="#727272" fill-opacity="1" class="Black" />
  </g>
</svg>