<?xml version='1.0' encoding='UTF-8'?>
<svg viewBox="-5.5003 -2 32 32" xmlns="http://www.w3.org/2000/svg">
  <g transform="matrix(0.0547, 0, 0, 0.0547, 0, 0)">
    <path d="M80, 240L80, 416C80, 424.84 87.16, 432 96, 432L288, 432C296.84, 432 304, 424.84 304, 416L304, 240C304, 231.16 296.84, 224 288, 224L96, 224C87.16, 224 80, 231.16 80, 240zM208, 272L272, 272L272, 320L208, 320L208, 272zM208, 352L272, 352L272, 400L208, 400L208, 352zM112, 272L176, 272L176, 320L112, 320L112, 272zM112, 352L176, 352L176, 400L112, 400L112, 352zM369.83, 97.98L285.94, 14.1C276.94, 5.1 264.74, 0 252.05, 0L47.99, 0C21.5, 0.1 0, 21.6 0, 48.09L0, 464.01C0, 490.5 21.5, 512 47.99, 512L335.93, 512C362.43, 512 384, 490.5 384, 464.01L384, 131.97C384, 119.28 378.83, 106.98 369.83, 97.98zM255.95, 51.99L332.04, 128.07L255.95, 128.07L255.95, 51.99zM336, 464.01L47.99, 464.01L47.99, 48.09L207.96, 48.09L207.96, 152.07C207.96, 165.37 218.66, 176.06 231.96, 176.06L336, 176.06L336, 464.01z" fill="#727272" fill-opacity="1" class="Black" />
  </g>
</svg>