<?xml version='1.0' encoding='UTF-8'?>
<svg viewBox="-3.7495 -2 32 32" xmlns="http://www.w3.org/2000/svg">
  <g transform="matrix(0.0547, 0, 0, 0.0547, 0, 0)">
    <path d="M433.94, 65.94L382.06, 14.06A48 48 0 0 0 348.12, 0L176, 0A48 48 0 0 0 128, 48L128, 96L48, 96A48 48 0 0 0 0, 144L0, 464A48 48 0 0 0 48, 512L272, 512A48 48 0 0 0 320, 464L320, 416L400, 416A48 48 0 0 0 448, 368L448, 99.88A48 48 0 0 0 433.94, 65.94zM352, 51.88L396.12, 96L352, 96zM272, 458A6 6 0 0 1 266, 464L54, 464A6 6 0 0 1 48, 458L48, 150A6 6 0 0 1 54, 144L128, 144L128, 368A48 48 0 0 0 176, 416L272, 416zM400, 362A6 6 0 0 1 394, 368L182, 368A6 6 0 0 1 176, 362L176, 54A6 6 0 0 1 182, 48L304, 48L304, 112A32 32 0 0 0 336, 144L400, 144zM314.67, 182.66A6.67 6.67 0 0 0 308, 176L268, 176A6.67 6.67 0 0 0 261.33, 182.66L261.33, 229.33L214.67, 229.33A6.67 6.67 0 0 0 208, 236L208, 276A6.67 6.67 0 0 0 214.67, 282.66L261.33, 282.66L261.33, 329.33A6.67 6.67 0 0 0 268, 336L308, 336A6.67 6.67 0 0 0 314.67, 329.33L314.67, 282.66L361.33, 282.66A6.67 6.67 0 0 0 368, 276L368, 236A6.67 6.67 0 0 0 361.33, 229.33L314.67, 229.33z" fill="#727272" fill-opacity="1" class="Black" />
  </g>
</svg>