<?xml version='1.0' encoding='UTF-8'?>
<svg viewBox="-5.5003 -2 32 32" xmlns="http://www.w3.org/2000/svg">
  <g transform="matrix(0.0547, 0, 0, 0.0547, 0, 0)">
    <path d="M369.941, 97.941L286.059, 14.059A48 48 0 0 0 252.118, 0L48, 0C21.49, 0 0, 21.49 0, 48L0, 464C0, 490.51 21.49, 512 48, 512L336, 512C362.51, 512 384, 490.51 384, 464L384, 131.882A48 48 0 0 0 369.941, 97.941zM332.118, 128L256, 128L256, 51.882L332.118, 128zM48, 464L48, 48L208, 48L208, 152C208, 165.255 218.745, 176 232, 176L336, 176L336, 464L48, 464zM276.687, 252.697L224, 305.374L224, 268C224, 256.954 215.046, 248 204, 248L100, 248C88.954, 248 80, 256.954 80, 268L80, 372C80, 383.046 88.954, 392 100, 392L204, 392C215.046, 392 224, 383.046 224, 372L224, 334.626L276.687, 387.3C286.704, 397.318 304, 390.28 304, 375.986L304, 264.011C304, 249.7 286.691, 242.692 276.687, 252.697z" fill="#727272" fill-opacity="1" class="Black" />
  </g>
</svg>