<?xml version='1.0' encoding='UTF-8'?>
<svg viewBox="-2 -2.0013 31.9975 32" xmlns="http://www.w3.org/2000/svg">
  <g transform="matrix(0.0547, 0, 0, 0.0547, 0, 0)">
    <path d="M502.63, 217.06L294.94, 9.37A31.94 31.94 0 0 0 272.31, 0C264.12, 0 255.93, 3.12 249.69, 9.37L162.5, 96.56L70.62, 4.69C64.37, -1.56 54.24, -1.56 47.99, 4.69L36.69, 16C30.44, 22.25 30.44, 32.38 36.69, 38.63L128.57, 130.51L28.11, 230.95C-9.38, 268.43 -9.38, 329.21 28.11, 366.7L145.3, 483.89C164.04, 502.63 188.61, 512.01 213.17, 512.01C237.74, 512.01 262.3, 502.64 281.04, 483.89L502.61, 262.32C515.12, 249.81 515.12, 229.56 502.63, 217.06zM247.11, 449.95C238.05, 459.01 226, 464 213.18, 464C200.36, 464 188.31, 459.01 179.25, 449.95L65.3, 336L361.05, 336L247.11, 449.95zM409.06, 288L49.34, 288C51.34, 279.33 55.61, 271.33 62.05, 264.89L162.5, 164.44L232.4, 234.34C241.77, 243.71 256.96, 243.71 266.34, 234.34C275.71, 224.97 275.71, 209.77 266.34, 200.4L196.44, 130.5L272.31, 54.63L457.37, 239.69L409.06, 288z" fill="#727272" fill-opacity="1" class="Black" />
  </g>
</svg>