<?xml version='1.0' encoding='UTF-8'?>
<svg viewBox="-1.9986 -1.9974 32 31.9975" xmlns="http://www.w3.org/2000/svg">
  <g transform="matrix(0.0547, 0, 0, 0.0547, 0, 0)">
    <path d="M256.12, 245.96C242.87, 245.96 232.12, 256.7 232.12, 269.96C233.26, 342.21 223.98, 411.86 204.42, 481.51C201.69, 491.23 206.57, 512 227.54, 512C238.02, 512 247.65, 505.08 250.63, 494.48C264.16, 446.57 281.67, 369.07 280.11, 269.96C280.12, 256.71 269.38, 245.96 256.12, 245.96zM255.26, 164.23C194, 164.16 151.25, 211.3 152.1, 265.32C152.85, 313.26 148.35, 361.23 138.73, 407.87C136.04, 420.85 144.4, 433.56 157.37, 436.23C170.42, 438.9 183.04, 430.57 185.73, 417.59C196.07, 367.5 200.9, 316.01 200.1, 264.57C199.69, 238.62 220.02, 212.08 254.55, 212.23C285.86, 212.7 311.7, 237.57 312.17, 267.7C312.94, 315.75 309.36, 364.03 301.56, 411.25C299.39, 424.31 308.25, 436.67 321.32, 438.83C341.29, 442.16 348.13, 423.73 348.9, 419.06C357.18, 369.03 360.96, 317.85 360.17, 266.95C359.29, 211.15 312.23, 165.07 255.26, 164.23zM144.57, 144.45C134.27, 136.11 119.2, 137.65 110.81, 147.93C85.19, 179.43 71.42, 219.21 72.06, 259.93C72.65, 297.51 69.59, 335.2 62.95, 371.98C60.61, 385.03 69.26, 397.51 82.31, 399.87C102.42, 403.37 109.38, 385.06 110.2, 380.51C117.39, 340.67 120.7, 299.85 120.06, 259.18C119.59, 229.3 129.26, 201.3 148.06, 178.21C156.41, 167.93 154.85, 152.82 144.57, 144.45zM254.04, 82.12C238.63, 81.71 223.17, 83.56 208.26, 87.09C195.37, 90.15 187.39, 103.07 190.43, 115.98C193.49, 128.87 206.43, 136.81 219.32, 133.81C230.37, 131.2 241.79, 130.04 253.32, 130.12C328.75, 131.25 391.05, 191.62 392.2, 264.7C392.79, 302.58 390.92, 340.81 386.62, 378.33C385.12, 391.5 394.57, 403.41 407.73, 404.91C424.45, 406.86 433.24, 393.03 434.31, 383.8A929.06 929.06 0 0 0 440.2, 263.95C438.64, 165.2 355.13, 83.62 254.04, 82.12zM506.11, 203.57C503.25, 190.65 490.6, 182.37 477.5, 185.3C464.56, 188.16 456.38, 200.96 459.24, 213.91C463.95, 235.32 464.15, 251.32 463.94, 275.51C463.83, 288.78 474.49, 299.6 487.74, 299.71L487.94, 299.71C501.11, 299.71 511.83, 289.1 511.94, 275.91C512.12, 253.73 512.34, 231.8 506.11, 203.57zM465.99, 112.85C417.29, 43.46 337.6, 1.29 252.81, 0.02C183.02, -0.82 118.47, 24.91 70.46, 72.94C24.09, 119.37 -0.9, 181.04 0.14, 246.65L0.02, 268.12C-0.37, 281.37 10.05, 292.43 23.3, 292.81C23.53, 292.83 23.78, 292.83 24.02, 292.83C36.94, 292.83 47.61, 282.53 47.99, 269.53L48.15, 245.89C47.32, 193.39 67.31, 144.03 104.43, 106.89C143.19, 68.09 195.77, 47.22 252.11, 48.03C321.56, 49.06 386.84, 83.59 426.73, 140.42C434.34, 151.28 449.29, 153.87 460.15, 146.28C470.99, 138.66 473.61, 123.69 465.99, 112.85z" fill="#727272" fill-opacity="1" class="Black" />
  </g>
</svg>