<?xml version='1.0' encoding='UTF-8'?>
<svg viewBox="-3.7495 -2 32 32" xmlns="http://www.w3.org/2000/svg">
  <g transform="matrix(0.0547, 0, 0, 0.0547, 0, 0)">
    <path d="M420.054, 20.658L276.054, 44.658C264.919, 46.514 256, 54.906 256, 72L197.668, 72C208.353, 36.108 181.446, 0 144, 0C104.565, 0 77.632, 39.676 91.772, 76.203C39.733, 89.254 16.391, 130.416 1.723, 167.087C-3.2, 179.394 2.786, 193.361 15.093, 198.284C27.41, 203.21 41.372, 197.209 46.289, 184.914C75.058, 112.99 106.964, 120 168, 120L168, 147.076C126.457, 157.938 96, 196.311 96, 241.205L96, 488C96, 501.255 106.745, 512 120, 512L264, 512C277.255, 512 288, 501.255 288, 488L288, 240C288, 195.269 257.404, 157.682 216, 147.025L216, 120L256, 120C256, 136.871 264.727, 145.454 276.054, 147.342L420.054, 171.342C434.681, 173.78 448, 162.501 448, 147.669L448, 44.331C448, 29.502 434.684, 18.219 420.054, 20.658zM144, 72C135.178, 72 128, 64.822 128, 56C128, 47.178 135.178, 40 144, 40C152.822, 40 160, 47.178 160, 56C160, 64.822 152.822, 72 144, 72zM240, 240L240, 464L144, 464L144, 241.205C144, 214.269 165.366, 192.196 191.632, 192.001L192, 192C218.467, 192 240, 213.533 240, 240zM408, 128.782L296, 110.115L296, 81.885L408, 63.218L408, 128.782z" fill="#727272" fill-opacity="1" class="Black" />
  </g>
</svg>