<?xml version='1.0' encoding='UTF-8'?>
<svg viewBox="-2 -4.7992 32 32" xmlns="http://www.w3.org/2000/svg">
  <g transform="matrix(0.9988, 0, 0, 0.9988, 0, 0)">
    <g transform="matrix(0.0438, 0, 0, 0.0438, 0, 0)">
      <path d="M342.3, 311.6C328.3, 292.8 310.9, 273.8 291.2, 256C240.7, 301.6 204.8, 361 204.8, 396.8C204.8, 460.4 256.4, 512 320, 512C383.6, 512 435.2, 460.4 435.2, 396.8C435.2, 370.2 408.5, 315.2 371.2, 281.6C360.5, 291.2 350.8, 301.4 342.3, 311.6zM357.8, 448.5C347.2, 456.2 334.1, 460.8 320, 460.8C284.7, 460.8 256, 436.4 256, 396.8C256, 377.1 267.9, 359.7 291.6, 330C295, 334.1 339.9, 394.1 339.9, 394.1L368.6, 359.9C370.6, 363.4 372.5, 366.8 374.1, 370.1C387.5, 396.7 381.9, 430.9 357.8, 448.5zM624, 0L16, 0C7.2, 0 0, 7.2 0, 16L0, 128C0, 136.8 7.2, 144 16, 144L32, 144L32, 488C32, 501.3 42.7, 512 56, 512L136, 512C149.3, 512 160, 501.3 160, 488L160, 391.4C160, 307.7 220.9, 232.7 304.2, 224.7C309.5, 224.2 314.8, 223.9 320, 223.9C408.4, 223.9 480, 295.5 480, 383.9L480, 487.9C480, 501.2 490.7, 511.9 504, 511.9L584, 511.9C597.3, 511.9 608, 501.2 608, 487.9L608, 144L624, 144C632.8, 144 640, 136.8 640, 128L640, 16C640, 7.2 632.8, 0 624, 0zM560, 464L528, 464L528, 384C528, 269.3 434.7, 176 320, 176C313.3, 176 306.5, 176.3 299.7, 177C194.5, 187 112, 281 112, 390.9L112, 464L80, 464L80, 144L560, 144L560, 464zM592, 96L48, 96L48, 48L592, 48L592, 96z" fill="#727272" fill-opacity="1" class="Black" />
    </g>
  </g>
</svg>