<?xml version='1.0' encoding='UTF-8'?>
<svg viewBox="-5.5003 -2 32 32" xmlns="http://www.w3.org/2000/svg">
  <g transform="matrix(0.0547, 0, 0, 0.0547, 0, 0)">
    <path d="M216, 24.01C216, 0.21 184.84, -9.1 171.85, 10.97C76.55, 158.25 200, 238.73 200, 288C200, 310.06 182.06, 328 160, 328C137.94, 328 120, 310.06 120, 288L120, 182.13C120, 162.74 98.14, 151.37 82.27, 162.45C30.75, 198.38 0, 257.28 0, 320C0, 425.87 86.13, 512 192, 512C297.87, 512 384, 425.87 384, 320C384, 149.71 216, 127.15 216, 24.01zM192, 464C112.6, 464 48, 399.4 48, 320C48, 291.34 56.56, 255.29 72, 232L72, 288C72, 336.52 111.48, 376 160, 376C208.52, 376 248, 336.52 248, 288C248, 223.73 160, 168 184, 80C224, 168 336, 201.77 336, 320C336, 399.4 271.4, 464 192, 464z" fill="#727272" fill-opacity="1" class="Black" />
  </g>
</svg>