<?xml version='1.0' encoding='UTF-8'?>
<svg viewBox="-1.995 -4.7983 31.9975 32" xmlns="http://www.w3.org/2000/svg">
  <g transform="matrix(0.9989, 0, 0, 0.9989, 0, 0)">
    <g transform="matrix(0.0438, 0, 0, 0.0438, 0, 0)">
      <path d="M360.18, 64C257, 64 176.93, 126.92 140, 162.48L67, 104.75A42.27 42.27 0 0 0 18.78, 102.56C4.39, 111.59 -2.61, 128 0.89, 144.14L24.67, 256L0.89, 367.8A39.15 39.15 0 0 0 18.71, 409.45A42.33 42.33 0 0 0 67.11, 407.08L140, 349.5C177, 385.06 257, 448 360.22, 448C514.09, 448 640, 303.05 640, 256C640, 208.95 514.09, 64 360.18, 64zM360.18, 400C342.18, 400 252.54, 402.59 144.61, 284.61L52.11, 357.77L73.74, 256L52.11, 154.2L144.68, 227.39C252.75, 109 341.55, 112 360.18, 112C485.4, 112 588.18, 231.88 592.03, 255.2C588.16, 280.12 485.4, 400 360.18, 400zM347.31, 160L336, 148.69A16 16 0 0 0 313.38, 148.69L228.69, 233.38A16 16 0 0 0 228.69, 256L240, 267.31A16 16 0 0 0 262.63, 267.31L347.32, 182.62A16 16 0 0 0 347.31, 160zM459.31, 176L448, 164.69A16 16 0 0 0 425.37, 164.69L276.68, 313.38A16 16 0 0 0 276.68, 336L288, 347.31A16 16 0 0 0 310.63, 347.31L459.31, 198.62A16 16 0 0 0 459.31, 176zM496, 244.69A16 16 0 0 0 473.37, 244.69L388.68, 329.38A16 16 0 0 0 388.68, 352L400, 363.31A16 16 0 0 0 422.63, 363.31L507.32, 278.62A16 16 0 0 0 507.32, 256z" fill="#727272" fill-opacity="1" class="Black" />
    </g>
  </g>
</svg>