<?xml version='1.0' encoding='UTF-8'?>
<svg viewBox="-1.995 -4.7973 32 32" xmlns="http://www.w3.org/2000/svg">
  <g transform="matrix(0.999, 0, 0, 0.999, 0, 0)">
    <g transform="matrix(0.0438, 0, 0, 0.0438, 0, 0)">
      <path d="M360.18, 64C256.8, 64 176.68, 127.14 139.8, 162.67L66.92, 106.37C53.01, 95.62 33.67, 94.71 18.7, 104.14C4.39, 113.17 -2.61, 129.53 0.89, 145.81L24.64, 256L0.89, 366.19C-2.61, 382.47 4.39, 398.83 18.7, 407.86C33.67, 417.28 53.01, 416.36 66.92, 405.64L139.8, 349.33C176.68, 384.86 256.8, 448 360.18, 448C514.09, 448 640, 303.05 640, 256C640, 208.95 514.09, 64 360.18, 64zM360.18, 400C278.99, 400 203.39, 348.91 159.74, 301.09L144.83, 284.78L52.11, 356.41L73.77, 256L52.11, 155.59L144.83, 227.22L159.74, 210.91C203.4, 163.09 278.99, 112 360.18, 112C485.4, 112 588.15, 231.88 592.03, 255.2C588.15, 280.13 485.4, 400 360.18, 400zM448, 224C430.33, 224 416, 238.33 416, 256C416, 273.67 430.33, 288 448, 288C465.67, 288 480, 273.67 480, 256C480, 238.33 465.67, 224 448, 224z" fill="#727272" fill-opacity="1" class="Black" />
    </g>
  </g>
</svg>