<?xml version='1.0' encoding='UTF-8'?>
<svg viewBox="-3.7495 -2 32 32" xmlns="http://www.w3.org/2000/svg">
  <g transform="matrix(0.0547, 0, 0, 0.0547, 0, 0)">
    <path d="M400, 180.33L400, 88C400, 57.07 374.93, 32 344, 32L320, 32C315.6, 32 311.36, 32.63 307.25, 33.6C298.59, 13.86 278.9, 0 256, 0L232, 0C209.1, 0 189.41, 13.86 180.75, 33.6C176.64, 32.63 172.4, 32 168, 32L144, 32C121.1, 32 101.41, 45.86 92.75, 65.6C88.64, 64.63 84.4, 64 80, 64L56, 64C25.07, 64 0, 89.07 0, 120L0, 330.98C0, 371.27 16, 409.92 44.49, 438.41L64, 457.93L64, 496C64, 504.84 71.16, 512 80, 512L96, 512C104.84, 512 112, 504.84 112, 496L112, 438.06L78.47, 404.52C59.09, 385.16 48, 358.34 48, 330.98L48, 271.19C50.63, 271.57 53.26, 272 56, 272L80, 272C91.91, 272 102.91, 268.2 112, 261.83C121.09, 268.2 132.09, 272 144, 272L168, 272C179.78, 272 190.69, 268.3 199.72, 262.06C204.44, 273.15 211.16, 283.31 219.88, 292.04C223.73, 295.9 227.92, 299.27 232.27, 302.37C213.99, 317.98 198.8, 338.55 182.77, 362.57C176.83, 371.48 179.24, 383.51 188.15, 389.44L195.84, 394.56C204.75, 400.5 216.78, 398.09 222.71, 389.19C251.99, 345.28 269.45, 324.61 306.01, 320.7C314.01, 319.84 319.99, 312.9 319.99, 304.85L319.99, 288C319.99, 279.16 312.83, 272 303.99, 272L287.31, 272C261.15, 272 239.95, 250.8 239.95, 224.64L239.95, 223.9C239.95, 215.12 247.07, 208 255.85, 208L336, 208C371.35, 208 400, 236.65 400, 272L400, 320C400, 345.46 389.89, 369.88 371.88, 387.88L320, 439.76L320, 496C320, 504.84 327.16, 512 336, 512L352, 512C360.84, 512 368, 504.84 368, 496L368, 459.65L405.83, 421.82A144 144 0 0 0 448, 320L448, 272C448, 234.06 428.94, 200.6 400, 180.33zM80, 224L56, 224C51.59, 224 48, 220.41 48, 216L48, 120C48, 115.59 51.59, 112 56, 112L80, 112C84.41, 112 88, 115.59 88, 120L88, 216C88, 220.41 84.41, 224 80, 224zM176, 216C176, 220.41 172.41, 224 168, 224L144, 224C139.59, 224 136, 220.41 136, 216L136, 88C136, 83.59 139.59, 80 144, 80L168, 80C172.41, 80 176, 83.59 176, 88L176, 216zM224, 168.87L224, 56C224, 51.59 227.59, 48 232, 48L256, 48C260.41, 48 264, 51.59 264, 56L264, 160L255.97, 160C244.27, 160 233.44, 163.38 224, 168.87zM312, 160L312, 88C312, 83.59 315.59, 80 320, 80L344, 80C348.41, 80 352, 83.59 352, 88L352, 161.62C346.73, 160.86 341.48, 160 336, 160L312, 160z" fill="#727272" fill-opacity="1" class="Black" />
  </g>
</svg>