<?xml version='1.0' encoding='UTF-8'?>
<svg viewBox="-1.9998 -2.0023 32 32" xmlns="http://www.w3.org/2000/svg">
  <g transform="matrix(0.0547, 0, 0, 0.0547, 0, 0)">
    <path d="M472.5, 0C465.5, 0 458.2, 1.5 451.3, 4.6C400.8, 27.3 363.5, 34.9 332.2, 34.9C266.1, 34.9 227.7, 0.4 151.4, 0.4C123, 0.4 89.2, 5.3 46.9, 18.4C44.3, 7.9 35.3, 0 24, 0C10.7, 0 0, 10.7 0, 24L0, 500C0, 506.6 5.4, 512 12, 512L36, 512C42.6, 512 48, 506.6 48, 500L48, 398.1C85.3, 386.3 117.6, 381.6 146.5, 381.6C227.7, 381.6 284.3, 416 365.6, 416C400.9, 416 440.7, 409.5 489.3, 391C503.3, 385.6 512.1, 373.1 512.1, 359.8L512.1, 33.4C512, 13 493.4, 0 472.5, 0zM464, 349.1C428.7, 361.8 396.4, 368 365.5, 368C290, 368 237, 333.6 146.4, 333.6C114.5, 333.6 81.9, 338.3 47.9, 347.8L47.9, 68.5C87.7, 55 121.7, 48.4 151.4, 48.4C217.7, 48.4 256.6, 82.9 332.2, 82.9C372.5, 82.9 414.5, 72.9 464, 51.4L464, 349.1z" fill="#727272" fill-opacity="1" class="Black" />
  </g>
</svg>