<?xml version='1.0' encoding='UTF-8'?>
<svg viewBox="-1.9998 -2.0023 32 32" xmlns="http://www.w3.org/2000/svg">
  <g transform="matrix(0.0547, 0, 0, 0.0547, 0, 0)">
    <path d="M472.5, 0C465.5, 0 458.2, 1.5 451.3, 4.6C400.8, 27.3 363.5, 34.9 332.2, 34.9C266.1, 34.9 227.7, 0.4 151.4, 0.4C123, 0.4 89.2, 5.3 46.9, 18.4C44.3, 7.9 35.3, 0 24, 0C10.7, 0 0, 10.7 0, 24L0, 500C0, 506.6 5.4, 512 12, 512L36, 512C42.6, 512 48, 506.6 48, 500L48, 398.1C85.3, 386.3 117.6, 381.6 146.5, 381.6C227.7, 381.6 284.3, 416 365.6, 416C400.9, 416 440.7, 409.5 489.3, 391C503.3, 385.6 512.1, 373.1 512.1, 359.8L512.1, 33.4C512, 13 493.4, 0 472.5, 0zM176, 40C184.8, 40 192, 47.2 192, 56C192, 64.8 184.8, 72 176, 72C167.2, 72 160, 64.8 160, 56C160, 47.2 167.2, 40 176, 40zM176, 96C184.8, 96 192, 103.2 192, 112C192, 120.8 184.8, 128 176, 128C167.2, 128 160, 120.8 160, 112C160, 103.2 167.2, 96 176, 96zM104, 40C112.8, 40 120, 47.2 120, 56C120, 64.8 112.8, 72 104, 72C95.2, 72 88, 64.8 88, 56C88, 47.2 95.2, 40 104, 40zM104, 96C112.8, 96 120, 103.2 120, 112C120, 120.8 112.8, 128 104, 128C95.2, 128 88, 120.8 88, 112C88, 103.2 95.2, 96 104, 96zM464, 349.1C385, 377.5 338.2, 369.8 267.6, 352.2C194.6, 334 135.4, 323.4 48, 347.8L48, 292.5C140.6, 260 194, 273.1 250.2, 287.3C304.4, 301 363.8, 317.4 464, 286L464, 349.1zM464, 235.5C371.5, 267.9 318, 254.9 261.9, 240.7C204.4, 226.2 144.5, 211.7 48, 242L48, 180.4C140.6, 147.9 194, 161 250.2, 175.2C304.4, 189 363.8, 205.4 464, 174L464, 235.5zM464, 123.5C367.5, 157.3 313.1, 141.6 256, 127.2L256, 71C278.2, 77.4 302.9, 82.9 332.2, 82.9C372.5, 82.9 414.5, 72.9 464, 51.4L464, 123.5z" fill="#727272" fill-opacity="1" class="Black" />
  </g>
</svg>