<?xml version='1.0' encoding='UTF-8'?>
<svg viewBox="-2 -1.9975 32 32" xmlns="http://www.w3.org/2000/svg">
  <g transform="matrix(0.0547, 0, 0, 0.0547, 0, 0)">
    <path d="M336.174, 80C287.042, 80 242.869, 48 174.261, 48C142.96, 48 115.958, 54.482 93.54, 63.168A48.04 48.04 0 0 0 95.682, 42.441C93.067, 19.575 74.167, 1.594 51.201, 0.104C23.242, -1.71 0, 20.431 0, 48C0, 65.764 9.657, 81.262 24, 89.562L24, 496C24, 504.837 31.163, 512 40, 512L56, 512C64.837, 512 72, 504.837 72, 496L72, 412.557C109.869, 395.28 143.259, 384 199.826, 384C248.958, 384 293.131, 416 361.739, 416C420.218, 416 463.711, 393.383 490.287, 376.019C503.846, 367.161 512, 352.051 512, 335.855L512, 95.937C512, 61.478 476.736, 38.169 445.096, 51.82C409.193, 67.309 371.641, 80 336.174, 80zM464, 336C442.217, 351.412 403.176, 368 361.739, 368C301.794, 368 259.737, 336 199.826, 336C156.465, 336 103.447, 345.403 72, 360L72, 128C93.784, 112.588 132.824, 96 174.261, 96C234.206, 96 276.263, 128 336.174, 128C379.445, 128 432.494, 110.634 464, 96L464, 336z" fill="#727272" fill-opacity="1" class="Black" />
  </g>
</svg>