<?xml version='1.0' encoding='UTF-8'?>
<svg viewBox="-5.5003 -2 32 32" xmlns="http://www.w3.org/2000/svg">
  <g transform="matrix(0.0547, 0, 0, 0.0547, 0, 0)">
    <path d="M192, 0C79.7, 101.33 0, 220.92 0, 300.55C0, 425.05 78.95, 512 192, 512C305.05, 512 384, 425.05 384, 300.55C384, 220.6 303.78, 100.86 192, 0zM192, 464C105.87, 464 48, 398.31 48, 300.55C48, 254.28 93.31, 163.93 191.96, 66.08C278.21, 151.97 336, 244.82 336, 300.55C336, 398.31 278.13, 464 192, 464zM237.07, 239.68C217.18, 222.68 198.4, 206.62 198.4, 181.46C198.4, 178.06 195.58, 176.77 194.36, 176.38C192.04, 175.64 188.59, 175.81 186.42, 178.76C131.52, 253.42 216, 248 216, 302C216, 325.2 197.2, 344 174, 344C150.81, 344 132, 325.2 132, 302L132, 272A6 6 0 0 0 121.76, 267.76C115.38, 273.95 96, 294.48 96, 327.58C96, 376.33 139.06, 416 192, 416C244.94, 416 288, 376.33 288, 327.58C288, 283.21 262.11, 261.08 237.07, 239.68z" fill="#727272" fill-opacity="1" class="Black" />
  </g>
</svg>