<?xml version='1.0' encoding='UTF-8'?>
<svg viewBox="-2 -2 32 32" xmlns="http://www.w3.org/2000/svg">
  <g transform="matrix(0.0547, 0, 0, 0.0547, 0, 0)">
    <path d="M461.55, 256C492.22, 229.19 512, 190.23 512, 146.29A146.28 146.28 0 0 0 365.71, 0C321.77, 0 282.81, 19.78 256, 50.45C229.19, 19.78 190.23, 0 146.29, 0A146.28 146.28 0 0 0 0, 146.29C0, 190.23 19.78, 229.19 50.45, 256C19.78, 282.81 0, 321.77 0, 365.71A146.29 146.29 0 0 0 146.29, 512C190.23, 512 229.19, 492.22 256, 461.55C282.81, 492.22 321.77, 512 365.71, 512A146.29 146.29 0 0 0 512, 365.71C512, 321.77 492.22, 282.81 461.55, 256zM365.71, 464C337.46, 464 311.33, 451.91 292.14, 430L256, 388.62L219.86, 430C200.67, 452 174.54, 464 146.29, 464A98.4 98.4 0 0 1 48, 365.71C48, 337.46 60.09, 311.33 82, 292.14L123.38, 256L82, 219.86C60, 200.67 48, 174.54 48, 146.29A98.4 98.4 0 0 1 146.29, 48C174.54, 48 200.67, 60.09 219.86, 82L256, 123.38L292.14, 82C311.33, 60 337.46, 48 365.71, 48A98.4 98.4 0 0 1 464, 146.29C464, 174.54 451.91, 200.67 430, 219.86L388.62, 256L430, 292.14C452, 311.33 464, 337.46 464, 365.71A98.4 98.4 0 0 1 365.71, 464zM256, 176A80 80 0 1 0 336, 256A80 80 0 0 0 256, 176z" fill="#727272" fill-opacity="1" class="Black" />
  </g>
</svg>