<?xml version='1.0' encoding='UTF-8'?>
<svg viewBox="-2 -4.798 32 32" xmlns="http://www.w3.org/2000/svg">
  <g transform="matrix(0.9988, 0, 0, 0.9988, 0, 0)">
    <g transform="matrix(0.0438, 0, 0, 0.0438, 0, 0)">
      <path d="M592, 160L48, 160A48 48 0 0 0 0, 208L0, 304A48 48 0 0 0 48, 352L592, 352A48 48 0 0 0 640, 304L640, 208A48 48 0 0 0 592, 160zM96, 304L48, 304L48, 208L96, 208zM592, 304L144, 304L144, 208L592, 208zM512, 280A24 24 0 1 0 488, 256A24 24 0 0 0 512, 280zM416, 280A24 24 0 1 0 392, 256A24 24 0 0 0 416, 280zM320, 280A24 24 0 1 0 296, 256A24 24 0 0 0 320, 280z" fill="#727272" fill-opacity="1" class="Black" />
    </g>
  </g>
</svg>