<?xml version='1.0' encoding='UTF-8'?>
<svg viewBox="-2 0 32 32" xmlns="http://www.w3.org/2000/svg">
  <g transform="matrix(0.0625, 0, 0, 0.0625, 0, 0)">
    <path d="M267.55, 269L264, 272.57L264, 336A40 40 0 0 1 184, 336L184, 272.57L180.45, 269A80 80 0 1 0 267.55, 269zM360, 32L88, 32A88.09 88.09 0 0 0 0, 120L0, 392A88.09 88.09 0 0 0 88, 480L360, 480A88.09 88.09 0 0 0 448, 392L448, 120A88.09 88.09 0 0 0 360, 32zM400, 392A40 40 0 0 1 360, 432L88, 432A40 40 0 0 1 48, 392L48, 120A40 40 0 0 1 88, 80L360, 80A40 40 0 0 1 400, 120zM304, 96A80 80 0 0 0 224, 176A80 80 0 1 0 144, 256A77.09 77.09 0 0 0 164.45, 253L115.72, 204.27A40 40 0 1 1 172.28, 147.71L224, 199.43L275.72, 147.72A40 40 0 1 1 332.28, 204.28L283.55, 253A77.09 77.09 0 0 0 304, 256A80 80 0 0 0 304, 96zM224, 352A16 16 0 0 0 240, 336L240, 262.62L315.31, 187.31A16 16 0 0 0 292.69, 164.69L224, 233.37L155.31, 164.69A16 16 0 0 0 132.69, 187.31L208, 262.62L208, 336A16 16 0 0 0 224, 352z" fill="#727272" fill-opacity="1" class="Black" />
  </g>
</svg>