<?xml version='1.0' encoding='UTF-8'?>
<svg viewBox="-0.2492 -2 32 32" xmlns="http://www.w3.org/2000/svg">
  <g transform="matrix(0.0547, 0, 0, 0.0547, 0, 0)">
    <path d="M288, 224L512, 224A32 32 0 0 0 544, 192L544, 64A32 32 0 0 0 512, 32L400, 32L368, 0L288, 0A32 32 0 0 0 256, 32L256, 104L80, 104L80, 16A16 16 0 0 0 64, 0L48, 0A16 16 0 0 0 32, 16L32, 408A32 32 0 0 0 64, 440L256, 440L256, 480A32 32 0 0 0 288, 512L512, 512A32 32 0 0 0 544, 480L544, 352A32 32 0 0 0 512, 320L400, 320L368, 288L288, 288A32 32 0 0 0 256, 320L256, 392L80, 392L80, 152L256, 152L256, 192A32 32 0 0 0 288, 224zM304, 48L348.12, 48L380.12, 80L496, 80L496, 176L304, 176zM304, 336L348.12, 336L380.12, 368L496, 368L496, 464L304, 464z" fill="#727272" fill-opacity="1" class="Black" />
  </g>
</svg>