<?xml version='1.0' encoding='UTF-8'?>
<svg viewBox="-2 -3.554 32 32" xmlns="http://www.w3.org/2000/svg">
  <g transform="matrix(0.0486, 0, 0, 0.0486, 0, 0)">
    <path d="M527.9, 224L480, 224L480, 176C480, 149.5 458.5, 128 432, 128L272, 128L208, 64L48, 64C21.5, 64 0, 85.5 0, 112L0, 400C0, 426.5 21.5, 448 48, 448L448, 448C464.5, 448 479.9, 439.5 488.7, 425.4L568.6, 297.4C588.6, 265.5 565.6, 224 527.9, 224zM48, 118C48, 114.7 50.7, 112 54, 112L188.1, 112L252.1, 176L426, 176C429.3, 176 432, 178.7 432, 182L432, 224L152, 224C135.2, 224 119.6, 232.8 110.9, 247.2L48, 351.4zM448, 400L72, 400L149.2, 272L528, 272z" fill="#727272" fill-opacity="1" class="Black" />
  </g>
</svg>