<?xml version='1.0' encoding='UTF-8'?>
<svg viewBox="-1.9975 -1.5445 32 32" xmlns="http://www.w3.org/2000/svg">
  <g transform="matrix(1.001, 0, 0, 1.001, 0, 0)">
    <g transform="matrix(0.0564, 0, 0, 0.0564, 0, 0)">
      <path d="M481.4, 60.9C476.6, 42.7 462.3, 28.4 444.2, 23.5C420.4, 17.1 232.4, -36.4 94.5, 101.7C-28.2, 224.6 -2.4, 386.9 14.6, 451.6C19.4, 469.8 33.7, 483.2 51.8, 488.1C75.6, 494.5 263.5, 549 401.5, 410.8C524.2, 287.9 498.4, 125.5 481.4, 60.9zM64.3, 442.6C62.7, 442.2 61.5, 440.9 61.1, 439.3C55.7, 419 49.4, 387.4 48.3, 350.4L153.4, 455.5C116.6, 454.3 84.9, 448.1 64.3, 442.6zM367.6, 375.9C326.4, 417.2 276, 442.5 217.5, 451.8L52.3, 286.6C60.5, 236.4 81.9, 182.7 128.4, 136.1C169.6, 94.8 220, 69.5 278.5, 60.2L443.6, 225.3C435.5, 275.6 414.1, 329.3 367.6, 375.9zM342.6, 56.5C379.4, 57.7 411.1, 63.9 431.7, 69.4C433.3, 69.8 434.5, 71.1 434.9, 72.7C440.3, 93 446.6, 124.6 447.7, 161.6L342.6, 56.5zM253.7, 159.8L242.4, 171.1C239.3, 174.2 239.3, 179.3 242.4, 182.4L270.7, 210.7L248, 233.4L219.7, 205.1C216.6, 202 211.5, 202 208.4, 205.1L197.1, 216.4C194, 219.5 194, 224.6 197.1, 227.7L225.4, 256L202.8, 278.6L174.5, 250.3C171.4, 247.2 166.3, 247.2 163.2, 250.3L151.9, 261.6C148.8, 264.7 148.8, 269.8 151.9, 272.9L180.2, 301.2L151.9, 329.5C148.8, 332.6 148.8, 337.7 151.9, 340.8L163.2, 352.1C166.3, 355.2 171.4, 355.2 174.5, 352.1L202.8, 323.8L231.1, 352.1C234.2, 355.2 239.3, 355.2 242.4, 352.1L253.7, 340.8C256.8, 337.7 256.8, 332.6 253.7, 329.5L225.4, 301.2L248, 278.6L276.3, 306.9C279.4, 310 284.5, 310 287.6, 306.9L298.9, 295.6C302, 292.5 302, 287.4 298.9, 284.3L270.6, 256L293.2, 233.4L321.5, 261.7C324.6, 264.8 329.7, 264.8 332.8, 261.7L344.1, 250.4C347.2, 247.3 347.2, 242.2 344.1, 239.1L315.8, 210.8L344.1, 182.5C347.2, 179.4 347.2, 174.3 344.1, 171.2L332.8, 159.9C329.7, 156.8 324.6, 156.8 321.5, 159.9L293.2, 188.2L265, 159.8C261.8, 156.7 256.8, 156.7 253.7, 159.8z" fill="#727272" fill-opacity="1" class="Black" />
    </g>
  </g>
</svg>