<?xml version='1.0' encoding='UTF-8'?>
<svg viewBox="-2 -4.7992 32 32" xmlns="http://www.w3.org/2000/svg">
  <g transform="matrix(0.9988, 0, 0, 0.9988, 0, 0)">
    <g transform="matrix(0.0438, 0, 0, 0.0438, 0, 0)">
      <path d="M416, 344.9L416, 237.1C416, 228.4 414.2, 219.9 410.8, 211.9L332.5, 29.1C324.9, 11.4 307.6, 0 288.3, 0L144, 0C117.5, 0 96, 21.5 96, 48L96, 160L48, 160C21.5, 160 0, 181.5 0, 208L0, 416C0, 469 43, 512 96, 512C149, 512 192, 469 192, 416L256, 416C256, 469 299, 512 352, 512C405, 512 448, 469 448, 416C448, 387.7 435.5, 362.5 416, 344.9zM144, 48L288.3, 48L366.7, 230.8C367.6, 232.8 368, 234.9 368, 237.1L368, 240L246.1, 240C237.2, 240 228.4, 237 221.4, 231.5L144, 170.6L144, 48zM96, 464C69.5, 464 48, 442.5 48, 416C48, 389.5 69.5, 368 96, 368C122.5, 368 144, 389.5 144, 416C144, 442.5 122.5, 464 96, 464zM269.3, 368L178.7, 368C162.1, 339.4 131.5, 320 96, 320C78.4, 320 62.2, 325.1 48, 333.3L48, 208L113.9, 208L191.8, 269.2C207.2, 281.3 226.6, 288 246.2, 288L368, 288L368, 321.6C362.8, 320.7 357.5, 320 352, 320C316.6, 320 285.9, 339.4 269.3, 368zM352, 464C325.5, 464 304, 442.5 304, 416C304, 389.5 325.5, 368 352, 368C378.5, 368 400, 389.5 400, 416C400, 442.5 378.5, 464 352, 464zM624, 400L528, 400L528, 16C528, 7.2 520.8, 0 512, 0L496, 0C487.2, 0 480, 7.2 480, 16L480, 432C480, 440.8 487.2, 448 496, 448L624, 448C632.8, 448 640, 440.8 640, 432L640, 416C640, 407.2 632.8, 400 624, 400z" fill="#727272" fill-opacity="1" class="Black" />
    </g>
  </g>
</svg>