<?xml version='1.0' encoding='UTF-8'?>
<svg viewBox="-8.1233 -2 32 32" xmlns="http://www.w3.org/2000/svg">
  <g transform="matrix(0.0547, 0, 0, 0.0547, 0, 0)">
    <path d="M200, 464L168, 464L168, 349.4C240.7, 337 294.3, 269.9 287.4, 192.7L271.4, 14.6C270.7, 6.3 263.9, 0 255.7, 0L32.3, 0C24.1, 0 17.3, 6.3 16.6, 14.6L0.6, 192.7C-6.3, 269.9 47.3, 337 120, 349.4L120, 464L88.1, 464C50.9, 464 38.1, 512 56.1, 512L231.9, 512C250, 512 237.1, 464 200, 464zM72.6, 272C54.1, 251.4 45.2, 224.7 47.7, 197L61.1, 48L122.8, 48L149.4, 86L80, 130L178.7, 224L138.6, 142L208, 98L183.2, 48L227, 48L240.3, 197C242.8, 224.8 233.9, 251.4 215.4, 272C196.9, 292.6 171.5, 304 144, 304C116.5, 304 91.1, 292.7 72.6, 272z" fill="#727272" fill-opacity="1" class="Black" />
  </g>
</svg>