<?xml version='1.0' encoding='UTF-8'?>
<svg viewBox="-1.9975 -5.4994 32 32" xmlns="http://www.w3.org/2000/svg">
  <g transform="matrix(1.0013, 0, 0, 1.0013, 0, 0)">
    <g transform="matrix(0.0437, 0, 0, 0.0437, 0, 0)">
      <path d="M432, 240A32 32 0 1 0 464, 272A32 32 0 0 0 432, 240zM248, 216L200, 216L200, 168A8 8 0 0 0 192, 160L160, 160A8 8 0 0 0 152, 168L152, 216L104, 216A8 8 0 0 0 96, 224L96, 256A8 8 0 0 0 104, 264L152, 264L152, 312A8 8 0 0 0 160, 320L192, 320A8 8 0 0 0 200, 312L200, 264L248, 264A8 8 0 0 0 256, 256L256, 224A8 8 0 0 0 248, 216zM496, 176A32 32 0 1 0 528, 208A32 32 0 0 0 496, 176zM464, 64L176, 64A176 176 0 1 0 296.81, 368L343.19, 368A176 176 0 1 0 464, 64zM464, 368C408.19, 368 378.5, 335.31 362.31, 320L277.69, 320C262.09, 334.69 232.19, 368 176, 368A128 128 0 0 1 176, 112L464, 112A128 128 0 0 1 464, 368z" fill="#727272" fill-opacity="1" class="Black" />
    </g>
  </g>
</svg>