<?xml version='1.0' encoding='UTF-8'?>
<svg viewBox="-1.9975 -4.7983 31.9975 32" xmlns="http://www.w3.org/2000/svg">
  <g transform="matrix(0.9989, 0, 0, 0.9989, 0, 0)">
    <g transform="matrix(0.0438, 0, 0, 0.0438, 0, 0)">
      <path d="M633.99, 471.02L36, 3.51C29.1, -2.01 19.03, -0.9 13.51, 6L3.51, 18.49C-2.02, 25.39 -0.9, 35.46 6, 40.98L604, 508.49C610.9, 514.01 620.96, 512.89 626.49, 506L636.49, 493.51C642.01, 486.61 640.9, 476.54 633.99, 471.02zM480, 97.94L480, 160C480, 188.14 500.93, 211.27 528, 215.19L528, 327.23L576, 364.76L576, 152.57C576, 135.6 569.26, 119.32 557.25, 107.31L470.62, 20.68C467.5, 17.56 462.43, 17.56 459.31, 20.68L436.68, 43.3C433.56, 46.42 433.56, 51.49 436.68, 54.61L480, 97.94zM336, 48L336, 177.12L384, 214.65L384, 48C384, 21.49 362.51, 0 336, 0L144, 0C134.72, 0 126.14, 2.75 118.79, 7.31L170.84, 48L336, 48zM408, 464L384, 464L384, 397.42L336, 359.89L336, 464L144, 464L144, 209.79L96, 172.26L96, 464L72, 464C67.58, 464 64, 467.58 64, 472L64, 504C64, 508.42 67.58, 512 72, 512L408, 512C412.42, 512 416, 508.42 416, 504L416, 472C416, 467.58 412.42, 464 408, 464z" fill="#727272" fill-opacity="1" class="Black" />
    </g>
  </g>
</svg>