<?xml version='1.0' encoding='UTF-8'?>
<svg viewBox="-1.9975 -1.9975 32 32" xmlns="http://www.w3.org/2000/svg">
  <g transform="matrix(0.0547, 0, 0, 0.0547, 0, 0)">
    <path d="M497.965, 176.618L474.78, 153.433C461.169, 139.823 441.347, 136.112 424.346, 142.3L369.722, 87.676C375.911, 70.678 372.201, 50.855 358.589, 37.243L335.404, 14.069C316.647, -4.688 286.282, -4.691 267.522, 14.069L163.914, 117.667C145.199, 136.382 145.199, 166.834 163.914, 185.55L187.098, 208.734C200.711, 222.347 220.531, 226.06 237.532, 219.867L247.874, 230.209L191.331, 286.729C169.31, 264.709 139.465, 267.48 121.833, 285.113L14.069, 392.908C-4.688, 411.665 -4.691, 442.03 14.069, 460.79L51.232, 497.964C69.946, 516.678 100.397, 516.679 119.114, 497.964L226.887, 390.168C244.299, 372.758 247.539, 342.937 225.271, 320.669L281.814, 264.15L292.155, 274.491C285.966, 291.489 289.676, 311.312 303.289, 324.925L328.706, 350.342C346.19, 367.826 374.638, 367.827 392.123, 350.342L497.965, 244.5C516.678, 225.785 516.678, 195.333 497.965, 176.618zM85.195, 464.043L85.174, 464.022L48, 426.849L155.773, 319.054L192.946, 356.227L85.195, 464.043zM360.414, 314.168L337.23, 290.984L352.023, 276.191L235.832, 160L221.04, 174.792L197.856, 151.608L301.465, 48L324.649, 71.184L307.832, 88L424.023, 204.191L440.839, 187.375L464.023, 210.559L360.414, 314.168z" fill="#727272" fill-opacity="1" class="Black" />
  </g>
</svg>