<?xml version='1.0' encoding='UTF-8'?>
<svg viewBox="-1.9999 -4.7991 32 31.9975" xmlns="http://www.w3.org/2000/svg">
  <g transform="matrix(1.0011, 0, 0, 1.0011, 0, 0)">
    <g transform="matrix(0.0437, 0, 0, 0.0437, 0, 0)">
      <path d="M608, 224L587.6, 224C590.2, 216.4 592, 208.5 592, 200.2C592, 164.7 565, 128 519.9, 128C471.8, 128 444, 175.7 432, 203.3C420.6, 177.3 395.1, 133.9 352, 129L352, 128C352, 110.3 337.7, 96 320, 96L258.6, 96L289.3, 74C296.5, 68.9 298.2, 58.9 293, 51.7L283.7, 38.7C278.6, 31.5 268.6, 29.8 261.4, 35L229.4, 57.9L240.9, 27.3C244, 19 239.8, 9.8 231.5, 6.7L216.5, 1.1C208.2, -2 199, 2.2 195.9, 10.5L176, 63.5L156.1, 10.4C153, 2.1 143.8, -2.1 135.5, 1L120.5, 6.6C112.2, 9.7 108, 18.9 111.1, 27.2L122.6, 57.8L90.6, 35C83.4, 29.9 73.4, 31.5 68.3, 38.7L59, 51.7C53.9, 58.9 55.5, 68.9 62.7, 74L93.4, 96L32, 96C14.3, 96 0, 110.3 0, 128L0, 480C0, 497.7 14.3, 512 32, 512L608, 512C625.7, 512 640, 497.7 640, 480L640, 256C640, 238.3 625.7, 224 608, 224zM519.9, 176C537.6, 176 544, 190.5 544, 200.2C544, 205.3 542.5, 212.8 535.2, 219.2C533.1, 221 530.7, 222.6 528, 224L475.4, 224C484.2, 203.7 501.3, 176 519.9, 176zM344.1, 176C362.8, 176 379.7, 203.4 388.6, 224L336, 224C333.3, 222.6 330.9, 221 328.8, 219.2C321.5, 212.8 320, 205.4 320, 200.2C320, 190.5 326.4, 176 344.1, 176zM224, 256L224, 464L48, 464L48, 144L298.7, 144C281.7, 158 272, 179.2 272, 200.2C272, 208.5 273.7, 216.4 276.4, 224L256, 224C238.3, 224 224, 238.3 224, 256zM408, 464L272, 464L272, 392L408, 392L408, 464zM408, 344L272, 344L272, 272L408, 272L408, 344zM431.3, 224L432, 223.8L432.7, 224L431.3, 224zM592, 464L456, 464L456, 392L592, 392L592, 464zM592, 344L456, 344L456, 272L592, 272L592, 344z" fill="#727272" fill-opacity="1" class="Black" />
    </g>
  </g>
</svg>