<?xml version='1.0' encoding='UTF-8'?>
<svg viewBox="-1.9998 -3.5563 31.9975 32" xmlns="http://www.w3.org/2000/svg">
  <g transform="matrix(0.0486, 0, 0, 0.0486, 0, 0)">
    <path d="M528, 128L469.93, 128C476.15, 115.94 480, 102.48 480, 88C480, 39.48 440.52, 0 392, 0C350.4, 0 323.49, 21.34 288.96, 68.33C254.44, 21.33 227.53, 0 185.93, 0C137.41, 0 97.93, 39.48 97.93, 88C97.93, 102.48 101.78, 115.94 108, 128L48, 128C21.49, 128 0, 149.49 0, 176L0, 464C0, 490.51 21.49, 512 48, 512L528, 512C554.51, 512 576, 490.51 576, 464L576, 176C576, 149.49 554.51, 128 528, 128zM392, 48C414.06, 48 432, 65.94 432, 88C432, 110.05 414.06, 128 392, 128L305.93, 128C357.29, 51.53 371.65, 48 392, 48zM145.93, 88C145.93, 65.94 163.87, 48 185.93, 48C205.87, 48 220.51, 51.27 272, 128L185.93, 128C163.87, 128 145.93, 110.05 145.93, 88zM222.06, 176L170.34, 227.72C164.09, 233.97 164.09, 244.1 170.34, 250.35L181.65, 261.66C187.9, 267.91 198.03, 267.91 204.28, 261.66L288, 177.94L371.72, 261.66C377.97, 267.91 388.1, 267.91 394.35, 261.66L405.66, 250.35C411.91, 244.1 411.91, 233.97 405.66, 227.72L353.94, 176L528, 176L528, 320L48, 320L48, 176L222.06, 176zM48, 464L48, 384L528, 384L528, 464L48, 464z" fill="#727272" fill-opacity="1" class="Black" />
  </g>
</svg>