<?xml version='1.0' encoding='UTF-8'?>
<svg viewBox="-2 -2.0025 31.9975 32" xmlns="http://www.w3.org/2000/svg">
  <g transform="matrix(0.0547, 0, 0, 0.0547, 0, 0)">
    <path d="M480, 32L32, 32C12.5, 32 -2.4, 49.2 0.3, 68.5L56.3, 425C60.8, 456.5 87.8, 479.9 119.7, 479.9L392.7, 479.9C424.5, 479.9 451.6, 456.5 456.1, 425L511.7, 68.5C514.4, 49.2 499.5, 32 480, 32zM392.7, 432L119.7, 432C111.8, 432 105, 426.1 103.8, 417.6L90.5, 332.9C102.1, 344.7 118.2, 352 136, 352L200, 352C221.7, 352 240.9, 341.1 252.5, 324.4C255, 328.5 257.9, 332.4 261.5, 336L306.8, 381.3C318.9, 393.4 335, 400 352.1, 400C369.2, 400 385.3, 393.3 397.4, 381.3L417.6, 361.1L408.7, 418.3C407.4, 426.1 400.6, 432 392.7, 432zM120, 288L120, 224C120, 215.2 127.2, 208 136, 208L200, 208C208.8, 208 216, 215.2 216, 224L216, 288C216, 296.8 208.8, 304 200, 304L136, 304C127.2, 304 120, 296.8 120, 288zM295.4, 279.4L340.7, 234.1C343.7, 231.1 347.7, 229.4 352, 229.4C356.3, 229.4 360.3, 231.1 363.3, 234.1L408.6, 279.4C414.8, 285.6 414.8, 295.8 408.6, 302L363.3, 347.3C360.3, 350.3 356.3, 352 352, 352C347.7, 352 343.7, 350.3 340.7, 347.3L295.4, 302C289.2, 295.8 289.2, 285.7 295.4, 279.4zM436.4, 239.4L397.2, 200.2C385.1, 188.1 369, 181.5 351.9, 181.5C334.8, 181.5 318.7, 188.2 306.6, 200.2L264, 243L264, 224C264, 188.7 235.3, 160 200, 160L136, 160C102.5, 160 75.2, 186 72.5, 218.8L50.7, 80L461.3, 80L436.4, 239.4z" fill="#727272" fill-opacity="1" class="Black" />
  </g>
</svg>