<?xml version='1.0' encoding='UTF-8'?>
<svg viewBox="-1.9975 -2.0275 31.9975 32" xmlns="http://www.w3.org/2000/svg">
  <g transform="matrix(0.0547, 0, 0, 0.0547, 0, 0)">
    <path d="M502.05, 57.6C523.3, 36.34 508.25, 0 478.2, 0L33.8, 0C3.75, 0 -11.3, 36.34 9.95, 57.6L232, 279.64L232, 463L168, 463C145.91, 463 128, 480.91 128, 503C128, 507.42 131.58, 511 136, 511L376, 511C380.42, 511 384, 507.42 384, 503C384, 480.91 366.09, 463 344, 463L280, 463L280, 279.64L502.05, 57.6zM256, 235.76L68.23, 48L443.76, 48L256, 235.76z" fill="#727272" fill-opacity="1" class="Black" />
  </g>
</svg>