<?xml version='1.0' encoding='UTF-8'?>
<svg viewBox="-1.9999 -1.549 31.9975 32" xmlns="http://www.w3.org/2000/svg">
  <g transform="matrix(0.999, 0, 0, 0.999, 0, 0)">
    <g transform="matrix(0.0565, 0, 0, 0.0565, 0, 0)">
      <path d="M248, 8C111.04, 8 0, 119.03 0, 256C0, 392.97 111.04, 504 248, 504C384.96, 504 496, 392.97 496, 256C496, 119.03 384.96, 8 248, 8zM248, 456C137.72, 456 48, 366.28 48, 256C48, 145.72 137.72, 56 248, 56C258.92, 56 269.55, 57.12 280, 58.81L280, 80.51C280, 89.07 273.06, 96.01 264.5, 96.01L240.29, 96.01C235.11, 96.01 230.27, 98.6 227.4, 102.91L219.32, 115.02C217.18, 118.23 213.92, 120.52 210.18, 121.46L195.73, 125.07A15.492 15.492 0 0 0 183.99, 140.11L183.99, 144.51C183.99, 153.07 190.93, 160.01 199.49, 160.01L289.58, 160.01C293.69, 160.01 297.63, 161.64 300.54, 164.55L307.46, 171.47C310.37, 174.38 314.31, 176.01 318.42, 176.01L328.51, 176.01C337.07, 176.01 344.01, 182.95 344.01, 191.51C344.01, 198.18 339.74, 204.1 333.41, 206.21L286.1, 221.98C282.2, 223.28 277.95, 222.98 274.27, 221.14L259.55, 213.78A54.682 54.682 0 0 0 235.12, 208.01L234.23, 208.01C222.41, 208.01 210.91, 211.84 201.45, 218.94L173.87, 239.63A54.545 54.545 0 0 0 152, 283.31L152, 297.37C152, 311.86 157.76, 325.75 168, 336A54.641 54.641 0 0 0 206.63, 352L232.51, 352C241.07, 352 248.01, 358.94 248.01, 367.5L248.01, 397.38C248.01, 409.63 250.86, 421.71 256.34, 432.67C261.04, 442.07 270.65, 448.01 281.16, 448.01C290.44, 448.01 299.1, 443.37 304.25, 435.65L317.28, 416.1A159.608 159.608 0 0 1 342.28, 386.94C344.75, 384.68 346.42, 381.68 347.04, 378.38L351.34, 355.55C351.78, 353.22 352.75, 351.02 354.17, 349.12L372.91, 324.14C374.92, 321.46 376.01, 318.19 376.01, 314.84L376.01, 303.5C376.01, 294.94 369.07, 288 360.51, 288L352.3, 288C347.12, 288 342.28, 285.41 339.41, 281.1L326.17, 261.24C320.5, 252.74 324.47, 241.17 334.16, 237.94L336.81, 237.06C341.35, 235.55 346.33, 236.21 350.31, 238.87L368.52, 251.01A15.532 15.532 0 0 0 384.05, 251.98L399.44, 244.28C404.69, 241.66 408.01, 236.29 408.01, 230.42L408.01, 223.49C408.01, 214.93 414.95, 207.99 423.51, 207.99L441.95, 207.99C445.77, 223.4 448.02, 239.42 448.02, 255.99C448, 366.28 358.28, 456 248, 456z" fill="#727272" fill-opacity="1" class="Black" />
    </g>
  </g>
</svg>