<?xml version='1.0' encoding='UTF-8'?>
<svg viewBox="-1.9999 -1.549 31.9975 32" xmlns="http://www.w3.org/2000/svg">
  <g transform="matrix(0.999, 0, 0, 0.999, 0, 0)">
    <g transform="matrix(0.0565, 0, 0, 0.0565, 0, 0)">
      <path d="M248, 8C111, 8 0, 119 0, 256C0, 393 111, 504 248, 504C385, 504 496, 393 496, 256C496, 119 385, 8 248, 8zM427.3, 168L360.1, 168C353.4, 131.5 342.6, 99.2 328.9, 73.3C371.8, 92.3 406.6, 126 427.3, 168zM248, 56C266.6, 56 296.6, 97.2 311.2, 168L184.8, 168C199.4, 97.2 229.4, 56 248, 56zM48, 256C48, 242.3 49.4, 228.9 52, 216L129.7, 216C128.7, 229.1 128, 242.3 128, 256C128, 269.7 128.7, 282.9 129.7, 296L52, 296C49.4, 283.1 48, 269.7 48, 256zM68.7, 344L135.9, 344C142.6, 380.5 153.4, 412.8 167.1, 438.7C124.2, 419.7 89.4, 386 68.7, 344zM135.9, 168L68.7, 168C89.4, 126 124.2, 92.3 167.1, 73.3C153.4, 99.2 142.6, 131.5 135.9, 168zM248, 456C229.4, 456 199.4, 414.8 184.8, 344L311.3, 344C296.6, 414.8 266.6, 456 248, 456zM318.1, 296L177.9, 296C176.8, 283.2 176, 270 176, 256C176, 242 176.8, 228.8 177.9, 216L318.2, 216C319.3, 228.8 320.1, 242 320.1, 256C320.1, 270 319.2, 283.2 318.1, 296zM328.9, 438.7C342.6, 412.8 353.3, 380.5 360.1, 344L427.3, 344C406.6, 386 371.8, 419.7 328.9, 438.7zM366.3, 296C367.3, 282.9 368, 269.7 368, 256C368, 242.3 367.3, 229.1 366.3, 216L444, 216C446.6, 228.9 448, 242.3 448, 256C448, 269.7 446.6, 283.1 444, 296L366.3, 296z" fill="#727272" fill-opacity="1" class="Black" />
    </g>
  </g>
</svg>