<?xml version='1.0' encoding='UTF-8'?>
<svg viewBox="-1.9999 -1.549 31.9975 32" xmlns="http://www.w3.org/2000/svg">
  <g transform="matrix(0.999, 0, 0, 0.999, 0, 0)">
    <g transform="matrix(0.0565, 0, 0, 0.0565, 0, 0)">
      <path d="M248, 8C111, 8 0, 119 0, 256C0, 393 111, 504 248, 504C385, 504 496, 393 496, 256C496, 119 385, 8 248, 8zM216, 58.8L216, 70.1C216, 82 203.5, 89.7 192.8, 84.4L168.8, 72.4C183.7, 66 199.5, 61.5 216, 58.8zM248, 428.6L248, 456C137.7, 456 48, 366.3 48, 256C48, 226.9 54.4, 199.3 65.6, 174.3C75.5, 189 90.8, 211.7 100.2, 225.4C105.4, 233 111.4, 240 118.3, 246.1L119.1, 246.8C128.6, 255.4 139.3, 262.8 150.7, 268.6C164.7, 275.6 185.1, 286.8 199.5, 294.7C209.7, 300.3 216, 311 216, 322.7L216, 354.7C216, 363.2 219.4, 371.3 225.4, 377.3C240.4, 392.4 249.7, 416 248, 428.6zM290.7, 451.3L308.1, 404.4C310.1, 398.9 311.4, 393.2 312.9, 387.5C314, 383.5 316.1, 379.8 319.1, 376.8L330.4, 365.5C339.2, 356.8 344.1, 344.9 344.1, 332.5C344.1, 324.4 340.9, 316.6 335.2, 310.9L321.5, 297.2C315.5, 291.2 307.4, 287.8 298.9, 287.8L232, 287.8C222.6, 283.1 210.5, 255.8 200, 255.8C189.5, 255.8 179.1, 253.3 169.7, 248.6L158.6, 243.1C154.6, 241.1 152, 236.9 152, 232.4C152, 227.3 155.3, 222.7 160.2, 221.1L191.4, 210.7C196.8, 208.9 202.7, 210.1 206.9, 213.8L216.2, 221.9C217.7, 223.2 219.5, 223.9 221.4, 223.9L227, 223.9C233, 223.9 236.8, 217.6 234.2, 212.3L218.6, 181.1C217, 178 217.7, 174.2 220.2, 171.8L230.1, 162.2C231.6, 160.7 233.6, 159.9 235.7, 159.9L244.7, 159.9C246.8, 159.9 248.9, 159.1 250.4, 157.6L258.4, 149.6C261.5, 146.5 261.5, 141.4 258.4, 138.3L253.7, 133.6C250.6, 130.5 250.6, 125.4 253.7, 122.3L264, 112L268.7, 107.3C274.9, 101.1 274.9, 90.9 268.7, 84.7L240.4, 56.4C242.9, 56.3 245.4, 56 248, 56C326.2, 56 393.8, 101.2 426.7, 166.7L413.7, 173.2C410, 175.1 406.8, 177.9 404.5, 181.3L384.9, 210.7C379.5, 218.8 379.5, 229.3 384.9, 237.3L402.9, 264.3C406.2, 269.3 411.3, 272.8 417, 274.3L446.2, 281.6C435.4, 365.6 372.3, 433.5 290.7, 451.3z" fill="#727272" fill-opacity="1" class="Black" />
    </g>
  </g>
</svg>