<?xml version='1.0' encoding='UTF-8'?>
<svg viewBox="-1.9999 -1.549 31.9975 32" xmlns="http://www.w3.org/2000/svg">
  <g transform="matrix(0.999, 0, 0, 0.999, 0, 0)">
    <g transform="matrix(0.0565, 0, 0, 0.0565, 0, 0)">
      <path d="M178.1, 123.7C178.1, 117.5 173, 112.4 166.8, 112.4C163.8, 112.4 160.9, 113.6 158.8, 115.7L133.4, 141.1C131.3, 143.2 130.1, 146.1 130.1, 149.1C130.1, 155.3 135.2, 160.4 141.4, 160.4L157.4, 160.4C160.4, 160.4 163.3, 159.2 165.4, 157.1L174.8, 147.7C176.9, 145.6 178.1, 142.7 178.1, 139.7L178.1, 123.7zM248, 8C111, 8 0, 119 0, 256C0, 393 111, 504 248, 504C385, 504 496, 393 496, 256C496, 119 385, 8 248, 8zM423.1, 352.4L409.7, 352.4C404.9, 352.4 400.2, 350.5 396.8, 347.1L379.5, 329.8C373.5, 323.8 365.4, 320.4 356.9, 320.4L338.6, 320.4L295.4, 283.3C287.2, 276.2 276.7, 272.4 265.8, 272.4L234.6, 272.4C226.4, 272.4 218.3, 274.6 211.2, 278.9L168.3, 304.6C154.6, 312.8 146.2, 327.6 146.2, 343.6L146.2, 367.5C146.2, 381.8 152.9, 395.3 164.4, 403.9L186.6, 420.6C195.2, 427.1 211.2, 432.4 222, 432.4L242.2, 432.4C251, 432.4 258.2, 439.6 258.2, 448.4L258.2, 455.5C254.8, 455.7 251.5, 456 248.1, 456C137.8, 456 48.1, 366.3 48.1, 256C48.1, 147.7 134.8, 59.4 242.4, 56.3L213.3, 78C211.3, 79.5 210.1, 81.9 210.1, 84.4L210.1, 104.4C210.1, 108.8 213.7, 112.4 218.1, 112.4L234.1, 112.4C238.5, 112.4 242.1, 108.8 242.1, 104.4L242.1, 96.4L258.1, 80.4L278.8, 80.4C285, 80.4 290.1, 85.4 290.1, 91.7C290.1, 94.7 288.9, 97.6 286.8, 99.7L260, 126.5C258.8, 127.7 257.3, 128.7 255.6, 129.2L215.6, 142.5C212.3, 143.6 210.1, 146.6 210.1, 150.1C210.1, 156.7 207.5, 162.9 202.9, 167.6L182.8, 187.7C179.8, 190.7 178.1, 194.8 178.1, 199L178.1, 224.4C178.1, 233.2 185.3, 240.4 194.1, 240.4L216.2, 240.4C222.3, 240.4 227.8, 237 230.5, 231.6L239.9, 212.9C241.3, 210.2 244, 208.5 247.1, 208.5L250.2, 208.5C254.6, 208.5 258.2, 212.1 258.2, 216.5C258.2, 220.9 261.8, 224.5 266.2, 224.5L282.2, 224.5C286.6, 224.5 290.2, 220.9 290.2, 216.5L290.2, 214.3C290.2, 210.9 292.4, 207.8 295.7, 206.7L327.3, 196.2C333.8, 194 338.2, 187.9 338.2, 181L338.2, 176.5C338.2, 167.7 345.4, 160.5 354.2, 160.5L390.9, 160.5C397.1, 160.5 402.2, 165.6 402.2, 171.8L402.2, 181.2C402.2, 187.4 397.1, 192.5 390.9, 192.5L358.9, 192.5C355.9, 192.5 353, 193.7 350.9, 195.8L341.5, 205.2C339.4, 207.3 338.2, 210.2 338.2, 213.2C338.2, 219.4 343.3, 224.5 349.5, 224.5L365.5, 224.5C368.5, 224.5 371.4, 225.7 373.5, 227.8L382.9, 237.2C385, 239.3 386.2, 242.2 386.2, 245.2L386.2, 253.9L373.7, 266.4C369.1, 271 369.1, 278.4 373.6, 283.1L405.5, 315.7C408.5, 318.8 412.6, 320.5 416.9, 320.5L437.2, 320.5C433.4, 331.5 428.7, 342.2 423.1, 352.4z" fill="#727272" fill-opacity="1" class="Black" />
    </g>
  </g>
</svg>