<?xml version='1.0' encoding='UTF-8'?>
<svg viewBox="-3.7495 -2 32 32" xmlns="http://www.w3.org/2000/svg">
  <g transform="matrix(0.0547, 0, 0, 0.0547, 0, 0)">
    <path d="M232, 80C218.7, 80 208, 90.7 208, 104C208, 117.3 218.7, 128 232, 128C245.3, 128 256, 117.3 256, 104C256, 90.7 245.3, 80 232, 80zM104, 160C90.7, 160 80, 170.7 80, 184C80, 197.3 90.7, 208 104, 208C117.3, 208 128, 197.3 128, 184C128, 170.7 117.3, 160 104, 160zM328, 144C314.7, 144 304, 154.7 304, 168C304, 181.3 314.7, 192 328, 192C341.3, 192 352, 181.3 352, 168C352, 154.7 341.3, 144 328, 144zM363.3, 399C414.8, 358 448, 295 448, 224C448, 100.3 347.7, 0 224, 0C100.3, 0 0, 100.3 0, 224C0, 295 33.2, 358 84.7, 399L38.4, 460.8C22.6, 481.9 37.6, 512 64, 512L384, 512C410.4, 512 425.4, 481.9 409.6, 460.8L363.3, 399zM96, 464L120, 432L328, 432L352, 464L96, 464zM296.9, 384L256, 384L256, 336L313.9, 336C328.1, 336 335.9, 321 326.8, 311.1L276, 256L291.4, 256C302.1, 256 307.9, 244.8 301.1, 237.3L233.7, 164.1C228.7, 158.6 219.4, 158.6 214.4, 164.1L147, 237.3C140.2, 244.7 146, 256 156.7, 256L172, 256L121.3, 311.1C112.2, 321 120, 336 134.2, 336L192, 336L192, 384L151.1, 384C90.4, 356.2 48, 295 48, 224C48, 127 127, 48 224, 48C321, 48 400, 127 400, 224C400, 295 357.6, 356.2 296.9, 384z" fill="#727272" fill-opacity="1" class="Black" />
  </g>
</svg>