<?xml version='1.0' encoding='UTF-8'?>
<svg viewBox="-2 -4.7967 32 32" xmlns="http://www.w3.org/2000/svg">
  <g transform="matrix(0.9988, 0, 0, 0.9988, 0, 0)">
    <g transform="matrix(0.0438, 0, 0, 0.0438, 0, 0)">
      <path d="M631, 8.6L616.6, 1.7C608.6, -2.2 599.1, 1.2 595.2, 9.1L465.5, 279.3L75.8, 206.2C36, 198.7 0, 229.5 0, 269.1L0, 448C0, 483.3 28.6, 512 64, 512L366.7, 512C391.3, 512 413.7, 497.9 424.4, 475.7L638.4, 29.9C642.2, 22 638.9, 12.4 631, 8.6zM434.9, 342.9L381.1, 454.9C378.4, 460.4 372.8, 464 366.7, 464L64, 464C44.9, 464 48, 441 48, 440L120, 440C124.4, 440 128, 436.4 128, 432L128, 400C128, 395.6 124.4, 392 120, 392L48, 392L48, 344L120, 344C124.4, 344 128, 340.4 128, 336L128, 304C128, 299.6 124.4, 296 120, 296L48, 296L48, 269.1C48, 259.5 56.6, 251.4 66.9, 253.4L423.4, 320.3C433.8, 322.2 439.4, 333.4 434.9, 342.9z" fill="#727272" fill-opacity="1" class="Black" />
    </g>
  </g>
</svg>