<?xml version='1.0' encoding='UTF-8'?>
<svg viewBox="-2 -4.7992 32 32" xmlns="http://www.w3.org/2000/svg">
  <g transform="matrix(0.9988, 0, 0, 0.9988, 0, 0)">
    <g transform="matrix(0.0438, 0, 0, 0.0438, 0, 0)">
      <path d="M606.72, 147.91L348.72, 68.34C329.91, 62.56 310.1, 62.56 291.28, 68.34L33.28, 147.91C13.38, 154.05 0, 171.77 0, 192.02C0, 212.27 13.38, 229.99 33.28, 236.13L55.92, 243.11C53.46, 248.3 51.52, 253.73 50.22, 259.42C39.53, 264.6 32, 275.33 32, 288.01C32, 298.79 37.68, 307.86 45.86, 313.66L20.33, 428.53C18.11, 438.52 25.71, 448 35.95, 448L92.06, 448C102.3, 448 109.9, 438.52 107.68, 428.53L82.14, 313.66C90.31, 307.86 96, 298.79 96, 288.01C96, 277.41 90.51, 268.47 82.57, 262.65C83.7, 259.1 85.53, 255.98 87.42, 252.82L142.29, 269.74L128, 384C128, 419.34 213.96, 448 320, 448C426.04, 448 512, 419.35 512, 384L497.72, 269.74L606.72, 236.12C626.63, 229.98 640, 212.26 640, 192.01C640, 171.76 626.62, 154.05 606.72, 147.91zM462.44, 374.47C402.74, 408.67 236.54, 408.25 177.57, 374.47L188.87, 284.11L291.29, 315.7C302.44, 319.13 323.53, 323.47 348.73, 315.7L451.15, 284.11L462.44, 374.47zM334.59, 269.82C325.15, 272.73 314.84, 272.73 305.4, 269.82L154.62, 223.3L322.93, 191.74C331.62, 190.12 337.34, 181.76 335.71, 173.07C334.09, 164.35 325.62, 158.71 317.05, 160.31L113.27, 198.51C106.63, 199.75 100.47, 202.05 94.56, 204.78L53.19, 192L305.41, 114.21C314.85, 111.3 325.16, 111.3 334.6, 114.21L586.82, 192.03L334.59, 269.82z" fill="#727272" fill-opacity="1" class="Black" />
    </g>
  </g>
</svg>