<?xml version='1.0' encoding='UTF-8'?>
<svg viewBox="-5.498 -1.9974 31.9975 32" xmlns="http://www.w3.org/2000/svg">
  <g transform="matrix(0.0547, 0, 0, 0.0547, 0, 0)">
    <path d="M56, 320A24 24 0 0 0 69.56, 315.8C109.69, 288.32 194.56, 238.61 270.75, 238.61A144.32 144.32 0 0 1 308.16, 243.28A26.79 26.79 0 0 1 328, 269.15A34.81 34.81 0 0 1 293.22, 303.92L184, 303.92A24 24 0 0 0 160, 327.92L160, 351.92L293.22, 351.92A82.87 82.87 0 0 0 376, 269.15A74.88 74.88 0 0 0 320.59, 196.89C236.91, 174.46 175.43, 65 150.84, 13.63A24 24 0 0 0 106, 17.79L32.81, 289.79A24 24 0 0 0 56, 320zM136.7, 88.76C158.49, 125.19 187.28, 164.76 222.7, 195.49C176.45, 204.49 131.46, 224.69 94.9, 245.01zM368, 464L352, 464L352, 416A32 32 0 0 0 320, 384L64, 384A32 32 0 0 0 32, 416L32, 464L16, 464A16 16 0 0 0 0, 480L0, 496A16 16 0 0 0 16, 512L368, 512A16 16 0 0 0 384, 496L384, 480A16 16 0 0 0 368, 464zM304, 464L80, 464L80, 432L304, 432z" fill="#727272" fill-opacity="1" class="Black" />
  </g>
</svg>