<?xml version='1.0' encoding='UTF-8'?>
<svg viewBox="-3.2695 4.3673 32 32" xmlns="http://www.w3.org/2000/svg">
  <g transform="matrix(1.0007, 0, 0, 1.0007, 0, 0)">
    <g transform="matrix(0.0795, 0, 0, 0.0795, 0, 0)">
      <path d="M311.16, 218.53L37.47, 81.69C29.57, 77.74 19.95, 80.94 16, 88.85L1.69, 117.48C-2.26, 125.38 0.94, 134.99 8.85, 138.94L242.96, 256L8.85, 373.06C0.95, 377.01 -2.26, 386.62 1.69, 394.52L16, 423.15C19.95, 431.05 29.56, 434.26 37.47, 430.31L311.15, 293.47C316.57, 290.76 319.99, 285.22 319.99, 279.16L319.99, 232.85C320, 226.78 316.58, 221.24 311.16, 218.53z" fill="#727272" fill-opacity="1" class="Black" />
    </g>
  </g>
</svg>