<?xml version='1.0' encoding='UTF-8'?>
<svg viewBox="-1.9975 -4.797 32 32" xmlns="http://www.w3.org/2000/svg">
  <g transform="matrix(0.9989, 0, 0, 0.9989, 0, 0)">
    <g transform="matrix(0.0438, 0, 0, 0.0438, 0, 0)">
      <path d="M117.1, 256.1C91.3, 259.8 33.1, 269.8 16.2, 286.7C-5.7, 308.6 -5.3, 344.6 17.1, 367C39.5, 389.4 75.4, 389.8 97.4, 367.9C114.3, 351 124.3, 292.8 128, 267C128.8, 260.6 123.4, 255.2 117.1, 256.1zM623.8, 286.7C606.9, 269.8 548.7, 259.8 522.9, 256.1C516.6, 255.2 511.2, 260.6 512.1, 266.9C515.8, 292.7 525.8, 350.9 542.7, 367.8C564.6, 389.7 600.6, 389.3 623, 366.9C645.3, 344.6 645.7, 308.6 623.8, 286.7zM497.2, 348.4C463.8, 412.3 396.9, 456 320, 456C243.1, 456 176.2, 412.3 142.8, 348.4C130.3, 385.8 117.6, 392.3 114.5, 394.9C159.1, 460.7 234.5, 504 320, 504C405.5, 504 480.9, 460.7 525.5, 394.9C522.3, 392.2 509.6, 385.7 497.2, 348.4zM122.7, 224.5C137.9, 129.2 220.5, 56 320, 56C419.5, 56 502.1, 129.2 517.3, 224.5C519.4, 224.3 522.5, 222.1 566.8, 231.5C554.4, 106 448.7, 8 320, 8C191.3, 8 85.6, 106 73.2, 231.4C117.7, 222 120.3, 224.2 122.7, 224.5zM320, 400C371.9, 400 435.3, 367.1 443.3, 320C445, 310.1 435.6, 301.5 425.6, 304.7C399.7, 313 361.2, 317.8 320, 317.8C278.8, 317.8 240.4, 313 214.4, 304.7C204.6, 301.6 195, 310 196.7, 320C204.7, 367.1 268.1, 400 320, 400zM450.3, 231.7C453.9, 230.6 456.3, 227.2 456, 223.4C452.7, 181.3 423.8, 152 400, 152C376.2, 152 347.3, 181.3 344, 223.4C343.7, 227.1 346.1, 230.6 349.7, 231.7C353.2, 232.8 357.1, 231.2 359, 228L368.5, 211C376.2, 197.3 387.7, 189.4 400, 189.4C412.3, 189.4 423.8, 197.3 431.5, 211L441, 228C443.1, 231.6 447.2, 232.6 450.3, 231.7zM240, 189.4C252.3, 189.4 263.8, 197.3 271.5, 211L281, 228C283.1, 231.7 287.2, 232.7 290.3, 231.7C293.9, 230.6 296.3, 227.2 296, 223.4C292.7, 181.3 263.8, 152 240, 152C216.2, 152 187.3, 181.3 184, 223.4C183.7, 227.1 186.1, 230.6 189.7, 231.7C193.2, 232.8 197.1, 231.2 199, 228L208.5, 211C216.2, 197.2 227.7, 189.4 240, 189.4z" fill="#727272" fill-opacity="1" class="Black" />
    </g>
  </g>
</svg>