<?xml version='1.0' encoding='UTF-8'?>
<svg viewBox="-1.9999 -1.549 31.9975 32" xmlns="http://www.w3.org/2000/svg">
  <g transform="matrix(0.999, 0, 0, 0.999, 0, 0)">
    <g transform="matrix(0.0565, 0, 0, 0.0565, 0, 0)">
      <path d="M200.3, 248C212.7, 229.3 215.4, 210.7 216, 192C215.5, 173.3 212.7, 154.7 200.3, 136C192.3, 124 175.2, 124.6 167.6, 136C155.2, 154.7 152.5, 173.3 151.9, 192C152.4, 210.7 155.2, 229.3 167.6, 248C175.7, 260 192.8, 259.4 200.3, 248zM328.3, 248C340.7, 229.3 343.4, 210.7 344, 192C343.5, 173.3 340.7, 154.7 328.3, 136C320.3, 124 303.2, 124.6 295.6, 136C283.2, 154.7 280.5, 173.3 279.9, 192C280.4, 210.7 283.2, 229.3 295.6, 248C303.7, 260 320.8, 259.4 328.3, 248zM248, 8C111, 8 0, 119 0, 256C0, 393 111, 504 248, 504C385, 504 496, 393 496, 256C496, 119 385, 8 248, 8zM248, 456C137.7, 456 48, 366.3 48, 256C48, 145.7 137.7, 56 248, 56C358.3, 56 448, 145.7 448, 256C448, 366.3 358.3, 456 248, 456zM353.6, 304.6C327.7, 312.9 289.2, 317.7 248, 317.7C206.8, 317.7 168.4, 312.9 142.4, 304.6C132.5, 301.5 123, 309.9 124.7, 319.9C132.6, 367.1 196, 399.9 248, 399.9C300, 399.9 363.3, 367 371.3, 319.9C372.9, 310.1 363.6, 301.5 353.6, 304.6z" fill="#727272" fill-opacity="1" class="Black" />
    </g>
  </g>
</svg>