<?xml version='1.0' encoding='UTF-8'?>
<svg viewBox="-1.9999 -1.549 31.9975 32" xmlns="http://www.w3.org/2000/svg">
  <g transform="matrix(0.999, 0, 0, 0.999, 0, 0)">
    <g transform="matrix(0.0565, 0, 0, 0.0565, 0, 0)">
      <path d="M248, 8C111, 8 0, 119 0, 256C0, 393 111, 504 248, 504C385, 504 496, 393 496, 256C496, 119 385, 8 248, 8zM312, 408C312, 443.6 282.9, 472.5 247.1, 472C212, 471.5 184, 442.2 184, 407L184, 364.2L201.7, 355.4C216.7, 347.9 233.2, 357.1 236.6, 371.9L239.4, 384C241.5, 393.2 254.6, 393.2 256.7, 384L259.5, 371.9C262.9, 357.1 279.3, 347.8 294.4, 355.4L312.1, 364.2L312.1, 408zM340.2, 433.3C342.4, 425.2 344, 416.8 344, 408L344, 364.5C358.2, 352.1 368.4, 337 371.3, 320C373, 310.1 363.6, 301.5 353.6, 304.7C327.7, 313 289.2, 317.8 248, 317.8C206.8, 317.8 168.4, 313 142.4, 304.7C132.5, 301.6 123, 310 124.7, 320C127.6, 337 137.8, 352.1 152, 364.5L152, 408C152, 416.8 153.6, 425.2 155.8, 433.3C91.8, 399.9 48, 333 48, 256C48, 145.7 137.7, 56 248, 56C358.3, 56 448, 145.7 448, 256C448, 333 404.2, 399.9 340.2, 433.3zM168, 176C150.3, 176 136, 190.3 136, 208C136, 225.7 150.3, 240 168, 240C185.7, 240 200, 225.7 200, 208C200, 190.3 185.7, 176 168, 176zM328, 176C310.3, 176 296, 190.3 296, 208C296, 225.7 310.3, 240 328, 240C345.7, 240 360, 225.7 360, 208C360, 190.3 345.7, 176 328, 176z" fill="#727272" fill-opacity="1" class="Black" />
    </g>
  </g>
</svg>