<?xml version='1.0' encoding='UTF-8'?>
<svg viewBox="-2.0025 -2 32 32" xmlns="http://www.w3.org/2000/svg">
  <g transform="matrix(0.0547, 0, 0, 0.0547, 0, 0)">
    <path d="M502.63, 39L473.05, 9.37A32 32 0 0 0 427.79, 9.37L381.48, 55.7A35.14 35.14 0 0 0 373, 69.49L355.19, 122.94L319.19, 158.94C303.75, 146.09 286.13, 135.94 266.6, 131.4A125.39 125.39 0 0 0 238.12, 128C211.75, 128 187, 137 168.55, 155.4A90 90 0 0 0 146.48, 191.91C139.91, 212.15 121.17, 227.57 100.48, 229.51C74.65, 232 50.62, 242 32.21, 260.53C-17.57, 310.18 -8.61, 399.58 51.9, 460.12C86.08, 494.3 129.45, 512 169.67, 512C200.67, 512 229.86, 501.47 251.48, 479.83C270, 461.42 280.02, 437.4 282.48, 411.43C284.4, 390.86 299.82, 372.01 320.05, 365.43A90.34 90.34 0 0 0 356.57, 343.35C381.51, 318.35 389, 281.87 380.57, 245.43C376.05, 225.89 365.94, 208.26 353.1, 192.81L389.04, 156.81L442.48, 139A35.26 35.26 0 0 0 456.27, 130.47L502.59, 84.15A32 32 0 0 0 502.63, 39zM305.26, 319.79C266.77, 332.28 238.42, 367.32 234.74, 406.85C229.91, 457.17 186.54, 463.99 169.67, 463.99C140.43, 463.99 109.87, 450.21 85.85, 426.18C61.83, 402.15 48, 371.51 48, 342.25C48, 325.47 55, 282.08 105, 277.31C144.64, 273.59 179.67, 245.23 192.18, 206.63C203, 172.89 248.3, 164.83 285, 193.09L220.28, 257.81A48.8 48.8 0 1 0 254.2, 291.81L319, 227C345.49, 261.56 341.06, 308.22 305.26, 319.79z" fill="#727272" fill-opacity="1" class="Black" />
  </g>
</svg>