<?xml version='1.0' encoding='UTF-8'?>
<svg viewBox="-2 0 32 32" xmlns="http://www.w3.org/2000/svg">
  <g transform="matrix(0.0625, 0, 0, 0.0625, 0, 0)">
    <path d="M400, 32L48, 32C21.49, 32 0, 53.49 0, 80L0, 432C0, 458.51 21.49, 480 48, 480L400, 480C426.51, 480 448, 458.51 448, 432L448, 80C448, 53.49 426.51, 32 400, 32zM394, 432L54, 432A6 6 0 0 1 48, 426L48, 86A6 6 0 0 1 54, 80L394, 80A6 6 0 0 1 400, 86L400, 426A6 6 0 0 1 394, 432zM344, 140L344, 372C344, 378.627 338.627, 384 332, 384L308, 384C301.373, 384 296, 378.627 296, 372L296, 280L152, 280L152, 372C152, 378.627 146.627, 384 140, 384L116, 384C109.373, 384 104, 378.627 104, 372L104, 140C104, 133.373 109.373, 128 116, 128L140, 128C146.627, 128 152, 133.373 152, 140L152, 232L296, 232L296, 140C296, 133.373 301.373, 128 308, 128L332, 128C338.627, 128 344, 133.373 344, 140z" fill="#727272" fill-opacity="1" class="Black" />
  </g>
</svg>