<?xml version='1.0' encoding='UTF-8'?>
<svg viewBox="-2 -3.554 32 32" xmlns="http://www.w3.org/2000/svg">
  <g transform="matrix(0.0486, 0, 0, 0.0486, 0, 0)">
    <path d="M304, 96L205.06, 96A13.06 13.06 0 0 0 192, 109.06L192, 130.94A13.06 13.06 0 0 0 205.06, 144L232, 144L232, 232L88, 232L88, 144L114.94, 144A13.06 13.06 0 0 0 128, 130.94L128, 112A16 16 0 0 0 112, 96L16, 96A16 16 0 0 0 0, 112L0, 130.94A13.06 13.06 0 0 0 13.06, 144L40, 144L40, 368L13.06, 368A13.06 13.06 0 0 0 0, 381.06L0, 400A16 16 0 0 0 16, 416L114.94, 416A13.06 13.06 0 0 0 128, 402.94L128, 381.06A13.06 13.06 0 0 0 114.94, 368L88, 368L88, 280L232, 280L232, 368L205.06, 368A13.06 13.06 0 0 0 192, 381.06L192, 400A16 16 0 0 0 208, 416L304, 416A16 16 0 0 0 320, 400L320, 381.06A13.06 13.06 0 0 0 306.94, 368L280, 368L280, 144L306.94, 144A13.06 13.06 0 0 0 320, 130.94L320, 112A16 16 0 0 0 304, 96zM560, 368L504, 368L504, 120A24 24 0 0 0 480, 96L456, 96A24 24 0 0 0 434.56, 109.26L410.56, 157.26A24 24 0 0 0 432, 192L456, 192L456, 368L400, 368A16 16 0 0 0 384, 384L384, 400A16 16 0 0 0 400, 416L560, 416A16 16 0 0 0 576, 400L576, 384A16 16 0 0 0 560, 368z" fill="#727272" fill-opacity="1" class="Black" />
  </g>
</svg>