<?xml version='1.0' encoding='UTF-8'?>
<svg viewBox="-2 -3.2 32 32" xmlns="http://www.w3.org/2000/svg">
  <g transform="matrix(0.05, 0, 0, 0.05, 0, 0)">
    <path d="M304, 96L205.06, 96A13.06 13.06 0 0 0 192, 109.06L192, 130.94A13.06 13.06 0 0 0 205.06, 144L232, 144L232, 232L88, 232L88, 144L114.94, 144A13.06 13.06 0 0 0 128, 130.94L128, 112A16 16 0 0 0 112, 96L16, 96A16 16 0 0 0 0, 112L0, 130.94A13.06 13.06 0 0 0 13.06, 144L40, 144L40, 368L13.06, 368A13.06 13.06 0 0 0 0, 381.06L0, 400A16 16 0 0 0 16, 416L114.94, 416A13.06 13.06 0 0 0 128, 402.94L128, 381.06A13.06 13.06 0 0 0 114.94, 368L88, 368L88, 280L232, 280L232, 368L205.06, 368A13.06 13.06 0 0 0 192, 381.06L192, 400A16 16 0 0 0 208, 416L304, 416A16 16 0 0 0 320, 400L320, 381.06A13.06 13.06 0 0 0 306.94, 368L280, 368L280, 144L306.94, 144A13.06 13.06 0 0 0 320, 130.94L320, 112A16 16 0 0 0 304, 96zM548.14, 368.13L410.82, 368.13C419.34, 307.78 556.82, 288.85 556.82, 188.82C556.8, 134.17 515, 96 455.05, 96A114.71 114.71 0 0 0 357.13, 151.05A11.81 11.81 0 0 0 360.71, 167L382, 181.23A11.89 11.89 0 0 0 398.27, 178.23C411.27, 160 429.85, 146.88 451.99, 146.88C481.56, 146.88 501.42, 164.96 501.42, 191.88C501.42, 258.88 351.97, 275.88 351.97, 387.37A137.14 137.14 0 0 0 353.36, 405.79A12.18 12.18 0 0 0 365.16, 416L548.16, 416A11.85 11.85 0 0 0 560, 404.18L560, 380A11.85 11.85 0 0 0 548.14, 368.13z" fill="#727272" fill-opacity="1" class="Black" />
  </g>
</svg>