<?xml version='1.0' encoding='UTF-8'?>
<svg viewBox="-1.9988 -2 32 32" xmlns="http://www.w3.org/2000/svg">
  <g transform="matrix(0.0547, 0, 0, 0.0547, 0, 0)">
    <path d="M256.01, 288C203, 288 160.03, 352 160.03, 352C160.03, 352 203, 416 256.01, 416C309.02, 416 351.99, 352 351.99, 352C351.99, 352 309.01, 288 256.01, 288zM256.01, 384C238.34, 384 224.02, 369.67 224.02, 352C224.02, 334.33 238.35, 320 256.01, 320C273.67, 320 288, 334.33 288, 352C288, 369.67 273.67, 384 256.01, 384zM505.55, 283.4C493.76, 257.08 467.21, 240 437.96, 240L431.96, 240L431.96, 113.71C431.96, 73.94 403.19, 39.26 365.05, 33.06C360.63, 32.34 356.26, 32 351.98, 32C341.8, 32 332.05, 33.91 323.09, 37.4C311.12, 18.5 291.75, 4.75 269.08, 1.06A81.3 81.3 0 0 0 256, 0C227.61, 0 202.62, 14.88 188.42, 37.24A75.764 75.764 0 0 0 173.09, 33.06C168.67, 32.34 164.3, 32 160.02, 32C115.92, 32 80.04, 67.89 80.04, 112L80.04, 240L74.05, 240C44.8, 240 18.25, 257.08 6.42, 283.5C-5.79, 310.59 -0.28, 342.07 20.5, 363.62L103.92, 450.08C141.91, 489.43 197.34, 512 256.01, 512C314.68, 512 370.11, 489.43 408.09, 450.09L491.51, 363.63C512.3, 342.08 517.81, 310.59 505.55, 283.4zM456.98, 330.29L373.56, 416.74C344.58, 446.78 301.75, 464 256.01, 464C210.27, 464 167.44, 446.78 138.45, 416.75L55.03, 330.3C47.97, 322.98 46.07, 312.31 50.21, 303.13C54.32, 293.94 63.69, 288 74.05, 288L128.03, 288L128.03, 112C128.03, 94.33 142.35, 80 160.02, 80C161.78, 80 163.58, 80.14 165.39, 80.44C181.12, 83 192.01, 97.77 192.01, 113.71L192.01, 216C192.01, 220.42 195.59, 224 200.01, 224L216.01, 224C220.43, 224 224.01, 220.42 224.01, 216L224.01, 80C224.01, 62.33 238.33, 48 256, 48C257.76, 48 259.56, 48.14 261.37, 48.44C277.1, 51 287.99, 65.77 287.99, 81.71L287.99, 216C287.99, 220.42 291.57, 224 295.99, 224L311.99, 224C316.41, 224 319.99, 220.42 319.99, 216L319.99, 112C319.99, 94.33 334.31, 80 351.98, 80C353.74, 80 355.54, 80.14 357.35, 80.44C373.08, 83 383.97, 97.77 383.97, 113.71L383.97, 288L437.96, 288C448.32, 288 457.68, 293.94 461.8, 303.12C465.94, 312.31 464.04, 322.98 456.98, 330.29z" fill="#727272" fill-opacity="1" class="Black" />
  </g>
</svg>