<?xml version='1.0' encoding='UTF-8'?>
<svg viewBox="-2.8758 -1.9998 32 31.9975" xmlns="http://www.w3.org/2000/svg">
  <g transform="matrix(0.0547, 0, 0, 0.0547, 0, 0)">
    <path d="M479.94, 312.91C479.93, 300.38 475.6, 249.43 414.99, 234.28C410.47, 208.34 390.26, 187.32 363.63, 182.37C332.97, 176.67 321, 176.01 319.96, 176.06L320, 79.99C320, 35.81 284.18, -0.01 240, -0.01C195.89, -0.01 160.15, 35.69 160.02, 79.77L159.97, 176.06C149.58, 175.57 136.51, 178.71 123.15, 181.39C111.27, 183.77 63.99, 198.16 63.99, 258.33L44.22, 268.22C16.94, 281.86 0, 309.28 0, 339.78L0, 386.75C0, 408.12 8.32, 428.21 23.43, 443.32L49.93, 469.82C77.13, 497.02 113.29, 512 151.75, 512L336.04, 512C415.63, 512 480.06, 447.56 480, 367.91L479.94, 312.91zM336.04, 464L151.75, 464A95.942 95.942 0 0 1 83.88, 435.88L57.37, 409.37C51.37, 403.37 48, 395.23 48, 386.74L48, 339.77A32 32 0 0 1 65.69, 311.15L80, 304L80, 336C80, 344.84 87.16, 352 96, 352C104.84, 352 112, 344.84 112, 336L111.99, 253.57C111.99, 241.37 120.65, 230.85 132.61, 228.46C152.07, 224.57 153.72, 224 156.82, 224C167.16, 224 175.98, 232.4 175.98, 243.21C175.98, 250.28 181.71, 256 188.77, 256L195.18, 256C202.25, 256 207.97, 250.27 207.97, 243.21L208, 81.37C208, 64.66 220.22, 49.74 236.86, 48.15C255.94, 46.33 272, 61.29 272, 80L271.96, 243.2C271.96, 250.27 277.69, 256 284.75, 256L291.15, 256C298.22, 256 303.94, 250.27 303.94, 243.21C303.94, 232.4 312.76, 224 323.09, 224C325.98, 224 326.4, 224.29 354.78, 229.56C362.36, 230.97 367.92, 237.59 367.92, 245.31L367.92, 272L407.69, 281.94C421.92, 285.5 431.91, 298.28 431.92, 312.95L431.98, 367.95C432.04, 420.98 389.07, 464 336.04, 464z" fill="#727272" fill-opacity="1" class="Black" />
  </g>
</svg>