<?xml version='1.0' encoding='UTF-8'?>
<svg viewBox="-1.9999 -3.554 31.9975 32" xmlns="http://www.w3.org/2000/svg">
  <g transform="matrix(0.0486, 0, 0, 0.0486, 0, 0)">
    <path d="M551.9, 312C520.8, 285.6 482.6, 295.9 463.5, 310.2L403.1, 355.7L399.8, 355.7C399.6, 317.7 369.3, 287.9 330.6, 287.9L186.6, 287.9C158.2, 287.9 130.3, 297.3 108.1, 314.2L79.8, 336L16, 336C7.2, 336 0, 343.2 0, 352L0, 368C0, 376.8 7.2, 384 16, 384L96, 384L137.3, 352.5C151.3, 341.8 168.7, 336 186.7, 336L330.7, 336C358.6, 336 359.8, 376.2 329.6, 376.2L269.8, 376.2C262.2, 376.2 256, 382.4 256, 390L256, 390.1C256, 397.7 262.2, 403.9 269.8, 403.9L404.3, 403.9C414, 403.9 423.5, 400.7 431.2, 394.9L492.5, 348.8C500.8, 342.6 513, 342.1 520.9, 348.8C531, 357.3 530.2, 371.9 520, 379.5L419.4, 455C411.6, 460.8 402.2, 464 392.5, 464L16, 464C7.2, 464 0, 471.2 0, 480L0, 496C0, 504.8 7.2, 512 16, 512L392.8, 512C412.7, 512 432.1, 505.5 448, 493.5L548.8, 417.6C565.4, 405.1 575.3, 386.1 575.9, 365.6C576.6, 345.1 567.8, 325.5 551.9, 312zM112.5, 256L464.5, 256C473.3, 256 480.5, 248.8 480.5, 240L480.5, 16C480.5, 7.2 473.3, 0 464.5, 0L112.5, 0C103.7, 0 96.5, 7.2 96.5, 16L96.5, 240C96.5, 248.8 103.7, 256 112.5, 256zM144.5, 48L224.5, 48L224.5, 160L288.5, 128L352.5, 160L352.5, 48L432.5, 48L432.5, 208L144.5, 208L144.5, 48z" fill="#727272" fill-opacity="1" class="Black" />
  </g>
</svg>