<?xml version='1.0' encoding='UTF-8'?>
<svg viewBox="-2 -4.799 32 32" xmlns="http://www.w3.org/2000/svg">
  <g transform="matrix(1.001, 0, 0, 1.001, 0, 0)">
    <g transform="matrix(0.0437, 0, 0, 0.0437, 0, 0)">
      <path d="M289.6, 144.3L339.7, 158.6C343.3, 159.6 345.8, 163 345.8, 166.7C345.8, 171.3 342, 175.1 337.4, 175.1L304.6, 175.1C301, 175.1 297.5, 174.3 294.3, 172.9C289.5, 170.7 283.9, 171.2 280.2, 174.9L262.7, 192.4C257.4, 197.7 258, 206.7 264.2, 210.8C273.7, 217.1 284.6, 220.9 296, 222.3L296, 240C296, 248.8 303.2, 256 312, 256L328, 256C336.8, 256 344, 248.8 344, 240L344, 222.4C374.3, 218.8 397.4, 191.4 393.3, 159.4C390.4, 136.4 372.6, 118.1 350.4, 111.7L300.3, 97.4C296.7, 96.4 294.2, 93 294.2, 89.3C294.2, 84.7 298, 80.9 302.6, 80.9L335.4, 80.9C339, 80.9 342.5, 81.7 345.7, 83.1C350.5, 85.3 356.1, 84.8 359.8, 81.1L377.3, 63.6C382.6, 58.3 382, 49.3 375.8, 45.2C366.3, 38.9 355.4, 35.1 344, 33.7L344, 16C344, 7.2 336.8, 0 328, 0L312, 0C303.2, 0 296, 7.2 296, 16L296, 33.6C265.7, 37.2 242.6, 64.6 246.7, 96.6C249.6, 119.6 267.3, 137.9 289.6, 144.3zM572.9, 96.2C531, 93.4 496, 126.7 496, 168C496, 168 495.9, 207 495.8, 244C484.1, 236.2 470.1, 232 456, 232C433.5, 232 412.7, 242.2 399, 260L327.2, 353.3C324.5, 356.8 322.2, 360.7 320, 364.5C317.7, 360.7 315.5, 356.8 312.8, 353.3L241, 260C227.2, 242.2 206.4, 232 184, 232C169.9, 232 155.9, 236.3 144.2, 244C144.1, 206.9 144, 168 144, 168C144, 126.7 109, 93.4 67.1, 96.2C28.8, 98.7 0, 132.2 0, 170.5L0, 362C0, 387.3 8.7, 412.2 24.5, 432L83.2, 506C86.2, 509.8 90.9, 512.1 95.7, 512.1L112, 512.1C120.8, 512.1 128, 504.9 128, 496.1C128, 488.6 125.4, 481.3 120.8, 475.5L62, 402C52.9, 390.7 48, 376.6 48, 362L48, 168.9C48, 157.3 55.8, 146.6 67.2, 144.5C82.5, 141.5 96, 153.2 96, 168C96, 168 96.2, 269 96.3, 300.6C96.3, 308.2 99.1, 315.4 104.1, 321.2L180.6, 413.8C188.7, 423.6 204.2, 424.9 213.7, 414.8C221.2, 406.9 221, 394.4 214.5, 385.6L165, 318.6C156.9, 308.1 158.9, 293 169.4, 284.9C173.8, 281.5 178.9, 279.9 184, 279.9C191.2, 279.9 198.3, 283.1 203.1, 289.3L274.8, 382.5C283.4, 393.7 288.1, 407.4 288.1, 421.5L288.1, 496C288.1, 504.8 295.3, 512 304.1, 512L336.1, 512C344.9, 512 352.1, 504.8 352.1, 496L352.1, 421.6C352.1, 407.5 356.8, 393.8 365.4, 382.6L437.1, 289.4C441.8, 283.3 449, 280 456.2, 280C461.3, 280 466.4, 281.6 470.8, 285C481.3, 293.1 483.3, 308.1 475.2, 318.7L425.7, 385.7C419.2, 394.5 419.1, 407 426.5, 414.9C436.7, 425.8 452.2, 422.8 459.6, 413.9L536.1, 321.3C541.1, 315.5 543.8, 308.3 543.9, 300.7C543.8, 269 544, 168 544, 168C544, 153.2 557.4, 141.5 572.8, 144.5C584.2, 146.7 592, 157.3 592, 168.9L592, 362C592, 376.5 587.1, 390.6 578, 401.9L519.3, 475.3C514.6, 481.2 512.1, 488.4 512.1, 495.9C512.1, 504.7 519.3, 511.9 528.1, 511.9L544.4, 511.9C549.3, 511.9 553.9, 509.7 556.9, 505.8L615.6, 431.8C631.4, 412 640.1, 387.2 640.1, 361.8L640.1, 170.5C640, 132.2 611.2, 98.7 572.9, 96.2z" fill="#727272" fill-opacity="1" class="Black" />
    </g>
  </g>
</svg>