<?xml version='1.0' encoding='UTF-8'?>
<svg viewBox="-3.7495 -2 32 32" xmlns="http://www.w3.org/2000/svg">
  <g transform="matrix(0.0547, 0, 0, 0.0547, 0, 0)">
    <path d="M105.6, 83.2L105.6, 169.377A115.52 115.52 0 0 0 83.2, 167.201C35.286, 167.201 0, 202.273 0, 259.201C0, 304.515 48.537, 316.203 78.784, 334.908C91.197, 342.643 102.101, 351.902 112.037, 360.759L112.183, 360.89L112.331, 361.019C129.807, 376.338 136, 384.236 136, 391.2L136, 393.879C131.048, 399.626 128, 407.415 128, 415.999L128, 479.999C128, 497.672 140.894, 511.999 156.8, 511.999L387.2, 511.999C403.106, 511.999 416, 497.672 416, 479.999L416, 415.999C416, 407.415 412.952, 399.626 408, 393.879L408, 391.2C408, 362.512 448, 324.063 448, 264L448, 242.701C448, 180.159 409.342, 143.901 356.855, 142.761C339.042, 130.279 316.07, 124.27 294.064, 126.776A93.148 93.148 0 0 0 272, 118.847L272, 83.2C272, 37.765 234.416, 0 188.8, 0C143.701, 0 105.6, 38.101 105.6, 83.2zM224, 83.2L224, 174.226C238.669, 161.389 266.825, 159.811 285.05, 179.176C304.696, 167.949 330.674, 177.489 338.675, 192.101C377.803, 185.577 400, 202.177 400, 242.701L400, 264C400, 309.491 364.087, 341.21 360.324, 384L183.571, 384C180.607, 358.761 162.349, 341.034 143.975, 324.925C131.325, 313.65 118.675, 303.2 104.1, 294.126C80.712, 279.645 48, 267.994 48, 259.2C48, 235.825 56.8, 215.2 83.2, 215.2C118.4, 215.2 136.275, 241.6 153.6, 241.6L153.6, 83.2C153.6, 64.775 170.1, 48 188.8, 48C207.775, 48 224, 64.225 224, 83.2zM352, 424C365.255, 424 376, 434.745 376, 448C376, 461.255 365.255, 472 352, 472C338.745, 472 328, 461.255 328, 448C328, 434.745 338.745, 424 352, 424z" fill="#727272" fill-opacity="1" class="Black" />
  </g>
</svg>