<?xml version='1.0' encoding='UTF-8'?>
<svg viewBox="-2.876 -2 32 32" xmlns="http://www.w3.org/2000/svg">
  <g transform="matrix(0.0547, 0, 0, 0.0547, 0, 0)">
    <path d="M408, 112C405.3, 112 402.6, 112.2 400, 112.4L400, 104C400, 64.3 367.7, 32 328, 32C321.6, 32 315.3, 32.8 309.4, 34.4C296.7, 13.8 273.9, 0 248, 0C222.1, 0 199.3, 13.8 186.6, 34.4C180.7, 32.8 174.4, 32 168, 32C128.3, 32 96, 64.3 96, 104L96, 196.1C85.5, 192.4 57.9, 185.9 30.7, 205C-1.8, 227.8 -9.8, 272.8 13, 305.3L126.5, 476.3C141.4, 498.7 166.3, 512 193.1, 512L373.7, 512C411.7, 512 444.7, 485 452.2, 447.7L472.8, 344.5C477.5, 320.8 479.9, 296.5 479.9, 272.3L479.9, 184C480, 144.3 447.7, 112 408, 112zM432, 272.3C432, 293.4 429.9, 314.4 425.8, 335.1L405.2, 438.3C402.2, 453.3 389.1, 464 373.8, 464L193.1, 464C182.4, 464 172.4, 458.6 166.4, 449.7L52.3, 277.8C34.3, 252.1 73, 223.7 91.6, 250.3L129.4, 304.7C133.9, 311.2 144, 307.9 144, 300.1L144, 104C144, 72.2 192, 72.3 192, 104L192, 248C192, 252.4 195.6, 256 200, 256L216, 256C220.4, 256 224, 252.4 224, 248L224, 72C224, 40.2 272, 40.3 272, 72L272, 248C272, 252.4 275.6, 256 280, 256L296, 256C300.4, 256 304, 252.4 304, 248L304, 104C304, 72.2 352, 72.3 352, 104L352, 248C352, 252.4 355.6, 256 360, 256L376, 256C380.4, 256 384, 252.4 384, 248L384, 184C384, 152.2 432, 152.3 432, 184L432, 272.3zM336.5, 296.8C316.9, 281.5 291.3, 288.3 278.2, 300.7L272, 306.5L265.8, 300.7C253, 288.7 227.3, 281.4 207.5, 296.8C187.9, 312.1 186.8, 339.6 204.4, 356.2L264.9, 413.3C268.8, 417 275.1, 417 279, 413.3L339.5, 356.2C357.1, 339.6 356.1, 312.1 336.5, 296.8z" fill="#727272" fill-opacity="1" class="Black" />
  </g>
</svg>