<?xml version='1.0' encoding='UTF-8'?>
<svg viewBox="-3.7494 -1.9999 32 32" xmlns="http://www.w3.org/2000/svg">
  <g transform="matrix(0.0547, 0, 0, 0.0547, 0, 0)">
    <path d="M188.8, 512C234.416, 512 272, 474.235 272, 428.8L272, 393.153A93.148 93.148 0 0 0 294.064, 385.224C316.07, 387.731 339.042, 381.721 356.855, 369.239C409.342, 368.1 448, 331.841 448, 269.299L448, 248C448, 187.937 408, 149.488 408, 120.8L408, 118.121C412.952, 112.374 416, 104.585 416, 96.001L416, 32C416, 14.327 403.106, 0 387.2, 0L156.8, 0C140.894, 0 128, 14.327 128, 32L128, 96C128, 104.584 131.048, 112.373 136, 118.12L136, 120.799C136, 127.763 129.807, 135.661 112.332, 150.982L112.184, 151.111L112.038, 151.242C102.101, 160.098 91.197, 169.358 78.785, 177.093C48.537, 195.798 0, 207.486 0, 252.8C0, 309.728 35.286, 344.8 83.2, 344.8C91.226, 344.8 98.689, 343.986 105.6, 342.624L105.6, 428.8C105.6, 473.899 143.701, 512 188.8, 512zM188.8, 464C170.1, 464 153.6, 447.225 153.6, 428.8L153.6, 270.4C136.275, 270.4 118.4, 296.8 83.2, 296.8C56.8, 296.8 48, 276.175 48, 252.8C48, 244.006 80.712, 232.355 104.1, 217.874C118.675, 208.8 131.325, 198.35 143.975, 187.075C162.349, 170.966 180.608, 153.239 183.571, 128L360.323, 128C364.087, 170.79 400, 202.509 400, 248L400, 269.299C400, 309.823 377.803, 326.423 338.675, 319.9C330.674, 334.512 304.696, 344.051 285.05, 332.825C266.825, 352.19 238.669, 350.612 224, 337.775L224, 428.8C224, 447.775 207.775, 464 188.8, 464zM328, 64C328, 50.745 338.745, 40 352, 40C365.255, 40 376, 50.745 376, 64C376, 77.255 365.255, 88 352, 88C338.745, 88 328, 77.255 328, 64z" fill="#727272" fill-opacity="1" class="Black" />
  </g>
</svg>