<?xml version='1.0' encoding='UTF-8'?>
<svg viewBox="-2 -3.554 32 32" xmlns="http://www.w3.org/2000/svg">
  <g transform="matrix(0.0486, 0, 0, 0.0486, 0, 0)">
    <path d="M556.686, 290.542L410.328, 64.829C397.001, 44.272 374.417, 32 349.917, 32L56, 32C25.121, 32 0, 57.122 0, 88L0, 96C0, 140.112 35.888, 176 80, 176L276.042, 176L257.709, 224L144, 224C95.477, 224 56, 263.477 56, 312C56, 342.879 81.121, 368 112, 368L243.552, 368C246.539, 368 249.466, 368.549 252.249, 369.631L352, 408.418L352, 480L576, 480L576, 355.829C576, 332.604 569.321, 310.028 556.686, 290.542zM528, 432L400, 432L400, 408.418C400, 388.47 387.986, 370.91 369.396, 363.682L269.645, 324.894A71.733 71.733 0 0 0 243.552, 320L112, 320C107.589, 320 104, 316.411 104, 312C104, 289.944 121.944, 272 144, 272L257.709, 272C277.476, 272 295.495, 259.593 302.549, 241.127L327.101, 176.846C336.097, 153.293 318.673, 128 293.471, 128L80, 128C62.355, 128 48, 113.645 48, 96L48, 88C48, 83.589 51.589, 80 56, 80L349.917, 80C358.083, 80 365.61, 84.09 370.054, 90.942L516.412, 316.657A71.84 71.84 0 0 1 528, 355.829L528, 432z" fill="#727272" fill-opacity="1" class="Black" />
  </g>
</svg>