<?xml version='1.0' encoding='UTF-8'?>
<svg viewBox="-2 -1.9988 32 32" xmlns="http://www.w3.org/2000/svg">
  <g transform="matrix(0.0547, 0, 0, 0.0547, 0, 0)">
    <path d="M408.864, 79.052C386.463, 45.154 342.756, 36.779 310.051, 55.464C280.577, 23.995 230.906, 24.371 201.717, 55.442C154.557, 28.422 93.007, 60.497 91.046, 116.248C44.846, 105.407 0, 140.001 0, 187.429L0, 244.382C0, 277.123 14.28, 308.336 39.18, 330.016L136.89, 415.097C141.142, 418.799 140, 420.67 140, 448C140, 465.673 154.327, 480 172, 480L424, 480C441.673, 480 456, 465.673 456, 448C456, 424.487 454.985, 417.255 459.982, 405.63L502.817, 305.974C508.911, 291.797 512, 276.802 512, 261.406L512, 146.963C512, 94.124 457.686, 58.301 408.864, 79.052zM464, 261.406A64.505 64.505 0 0 1 458.718, 287.019L415.883, 386.674C410.653, 398.845 408, 411.714 408, 424.924L408, 432L188, 432L188, 421.714C188, 405.344 180.86, 389.737 168.41, 378.897L70.7, 293.817C56.274, 281.255 48, 263.236 48, 244.381L48, 187.428C48, 154.22 100, 153.891 100, 188.105L100, 229.333A16 16 0 0 0 105.493, 241.4L112.493, 247.495A16 16 0 0 0 139, 235.429L139, 118.857C139, 85.76 191, 85.132 191, 119.534L191, 146.285C191, 155.121 198.164, 162.285 207, 162.285L214, 162.285C222.836, 162.285 230, 155.121 230, 146.285L230, 105.142C230, 72.008 282, 71.467 282, 105.819L282, 146.285C282, 155.121 289.163, 162.285 298, 162.285L305, 162.285C313.837, 162.285 321, 155.121 321, 146.285L321, 118.856C321, 85.826 373, 85.076 373, 119.533L373, 146.284C373, 155.12 380.163, 162.284 389, 162.284L396, 162.284C404.837, 162.284 412, 155.12 412, 146.284C412, 113.138 464, 112.671 464, 146.961L464, 261.406z" fill="#727272" fill-opacity="1" class="Black" />
  </g>
</svg>