<?xml version='1.0' encoding='UTF-8'?>
<svg viewBox="-3.7483 -2 32 32" xmlns="http://www.w3.org/2000/svg">
  <g transform="matrix(0.0547, 0, 0, 0.0547, 0, 0)">
    <path d="M362.146, 191.976C348.436, 170.327 323.385, 157.96 297.14, 161.635L297.14, 74C297.14, 33.196 264.329, 0 223.999, 0C183.669, 0 150.859, 33.196 150.859, 74L160, 168L141.321, 89.15C126.578, 50.843 83.85, 32.11 46.209, 47.208C8.735, 62.238 -9.571, 104.963 5.008, 142.85L60.765, 287.777C30.208, 312.733 16.771, 345.586 36.032, 379.995L90.885, 477.994C102.625, 498.97 124.73, 512 148.575, 512L354.277, 512C385.021, 512 411.835, 490.56 418.832, 460.203L446.259, 341.204A67.801 67.801 0 0 0 447.988, 326.001L448, 256C448, 211.044 404.737, 178.657 362.146, 191.976zM399.987, 326C399.987, 327.488 399.818, 328.977 399.485, 330.423L372.058, 449.424C370.08, 458.006 362.768, 464 354.276, 464L148.575, 464C142.089, 464 136.033, 460.379 132.77, 454.551L77.916, 356.551C73.359, 348.41 75.297, 337.883 82.424, 332.063L109.071, 310.299A16 16 0 0 0 113.883, 292.16L49.793, 125.611C37.226, 92.956 84.37, 74.837 96.51, 106.389L156.294, 261.746A16 16 0 0 0 171.227, 272L182.859, 272C191.696, 272 198.859, 264.837 198.859, 256L198.859, 74C198.859, 39.625 249.14, 39.57 249.14, 74L249.14, 256C249.14, 264.837 256.303, 272 265.14, 272L271.996, 272C280.833, 272 287.996, 264.837 287.996, 256L287.996, 228C287.996, 202.878 324.563, 202.841 324.563, 228L324.563, 256C324.563, 264.837 331.726, 272 340.563, 272L347.419, 272C356.256, 272 363.419, 264.837 363.419, 256C363.419, 230.88 399.986, 230.84 399.986, 256L399.986, 326z" fill="#727272" fill-opacity="1" class="Black" />
  </g>
</svg>