<?xml version='1.0' encoding='UTF-8'?>
<svg viewBox="-2 -2.6955 32 32" xmlns="http://www.w3.org/2000/svg">
  <g transform="matrix(0.9988, 0, 0, 0.9988, 0, 0)">
    <g transform="matrix(0.0438, 0, 0, 0.0438, 0, 0)">
      <path d="M572.9, 96.2C531, 93.4 496, 126.7 496, 168C496, 168 495.9, 207 495.8, 244C484.1, 236.2 470.1, 232 456, 232C433.5, 232 412.7, 242.2 399, 260L327.2, 353.3C324.5, 356.8 322.2, 360.7 320, 364.5C317.7, 360.7 315.5, 356.8 312.8, 353.3L241, 260C227.2, 242.2 206.4, 232 184, 232C169.9, 232 155.9, 236.3 144.2, 244C144.1, 206.9 144, 168 144, 168C144, 126.7 109, 93.4 67.1, 96.2C28.8, 98.7 0, 132.2 0, 170.5L0, 362C0, 387.3 8.7, 412.2 24.5, 432L83.2, 506C86.2, 509.8 90.9, 512.1 95.7, 512.1L112, 512.1C120.8, 512.1 128, 504.9 128, 496.1L128, 484.5L62, 402C52.9, 390.7 48, 376.6 48, 362L48, 168.9C48, 157.3 55.8, 146.6 67.2, 144.5C82.5, 141.5 96, 153.2 96, 168C96, 168 96.2, 269 96.3, 300.6C96.3, 308.2 99.1, 315.4 104.1, 321.2L180.6, 413.8C185, 419.1 191.3, 421.8 197.6, 421.8C203.4, 421.8 209.3, 419.5 213.7, 414.8C221.2, 406.9 221, 394.4 214.5, 385.6L165, 318.6C156.9, 308.1 158.9, 293 169.4, 284.9C173.8, 281.5 178.9, 279.9 184, 279.9C191.2, 279.9 198.3, 283.1 203.1, 289.3L274.8, 382.5C283.4, 393.7 288.1, 407.4 288.1, 421.5L288.1, 496C288.1, 504.8 295.3, 512 304.1, 512L336.1, 512C344.9, 512 352.1, 504.8 352.1, 496L352.1, 421.6C352.1, 407.5 356.8, 393.8 365.4, 382.6L437.1, 289.4C441.8, 283.3 449, 280 456.2, 280C461.3, 280 466.4, 281.6 470.8, 285C481.3, 293.1 483.3, 308.1 475.2, 318.7L425.7, 385.7C419.2, 394.5 419.1, 407 426.5, 414.9C430.9, 419.6 436.7, 421.9 442.6, 421.9C448.9, 421.9 455.2, 419.2 459.6, 413.9L536.1, 321.3C541.1, 315.5 543.8, 308.3 543.9, 300.7C543.8, 269 544, 168 544, 168C544, 153.2 557.4, 141.5 572.8, 144.5C584.2, 146.7 592, 157.3 592, 168.9L592, 362C592, 376.5 587.1, 390.6 578, 401.9L512, 484.4L512, 496C512, 504.8 519.2, 512 528, 512L544.3, 512C549.2, 512 553.8, 509.8 556.8, 505.9L615.5, 431.9C631.3, 412.1 640, 387.3 640, 361.9L640, 170.5C640, 132.2 611.2, 98.7 572.9, 96.2z" fill="#727272" fill-opacity="1" class="Black" />
    </g>
  </g>
</svg>