<?xml version='1.0' encoding='UTF-8'?>
<svg viewBox="-1.9999 -3.554 31.9975 32" xmlns="http://www.w3.org/2000/svg">
  <g transform="matrix(0.0486, 0, 0, 0.0486, 0, 0)">
    <path d="M551.9, 312C520.8, 285.6 482.6, 295.9 463.5, 310.2L403.1, 355.7L399.8, 355.7C399.6, 317.7 369.3, 287.9 330.6, 287.9L186.6, 287.9C158.2, 287.9 130.3, 297.3 108.1, 314.2L79.8, 336L16, 336C7.2, 336 0, 343.2 0, 352L0, 368C0, 376.8 7.2, 384 16, 384L96, 384L137.3, 352.5C151.3, 341.8 168.7, 336 186.7, 336L330.7, 336C358.6, 336 359.8, 376.2 329.6, 376.2L269.8, 376.2C262.2, 376.2 256, 382.4 256, 390L256, 390.1C256, 397.7 262.2, 403.9 269.8, 403.9L404.3, 403.9C414, 403.9 423.5, 400.7 431.2, 394.9L492.5, 348.8C500.8, 342.6 513, 342.1 520.9, 348.8C531, 357.3 530.2, 371.9 520, 379.5L419.4, 455C411.6, 460.8 402.2, 464 392.5, 464L16, 464C7.2, 464 0, 471.2 0, 480L0, 496C0, 504.8 7.2, 512 16, 512L392.8, 512C412.7, 512 432.1, 505.5 448, 493.5L548.8, 417.6C565.4, 405.1 575.3, 386.1 575.9, 365.6C576.6, 345.1 567.8, 325.5 551.9, 312zM257.6, 144.3L307.7, 158.6C311.3, 159.6 313.8, 163 313.8, 166.7C313.8, 171.3 310, 175.1 305.4, 175.1L272.6, 175.1C269, 175.1 265.5, 174.3 262.3, 172.9C257.5, 170.7 251.9, 171.2 248.2, 174.9L230.7, 192.4C225.4, 197.7 226, 206.7 232.2, 210.8C241.7, 217.1 252.6, 220.9 264, 222.3L264, 240C264, 248.8 271.2, 256 280, 256L296, 256C304.8, 256 312, 248.8 312, 240L312, 222.4C342.3, 218.8 365.4, 191.4 361.3, 159.4C358.4, 136.4 340.6, 118.1 318.4, 111.7L268.3, 97.4C264.7, 96.4 262.2, 93 262.2, 89.3C262.2, 84.7 266, 80.9 270.6, 80.9L303.4, 80.9C307, 80.9 310.5, 81.7 313.7, 83.1C318.5, 85.3 324.1, 84.8 327.8, 81.1L345.3, 63.6C350.6, 58.3 350, 49.3 343.8, 45.2C334.3, 38.9 323.4, 35.1 312, 33.7L312, 16C312, 7.2 304.8, 0 296, 0L280, 0C271.2, 0 264, 7.2 264, 16L264, 33.6C233.7, 37.2 210.6, 64.6 214.7, 96.6C217.6, 119.6 235.3, 137.9 257.6, 144.3z" fill="#727272" fill-opacity="1" class="Black" />
  </g>
</svg>