<?xml version='1.0' encoding='UTF-8'?>
<svg viewBox="-3.7483 -2 32 32" xmlns="http://www.w3.org/2000/svg">
  <g transform="matrix(0.0547, 0, 0, 0.0547, 0, 0)">
    <path d="M358.182, 179.361C338.689, 154.593 305.503, 147.416 278.31, 160.263C263.183, 144.576 242.128, 137.776 221.715, 140.634L221.715, 67C221.715, 30.056 191.979, 0 155.429, 0C118.879, 0 89.143, 30.056 89.143, 67L89.143, 228.129C69.234, 220.719 45.871, 223.035 27.06, 237.001C-2.295, 258.796 -8.733, 300.334 12.51, 330.153L122.209, 484.154C134.632, 501.59 154.741, 512 176, 512L354.286, 512C385.088, 512 411.86, 490.5 418.843, 460.203L446.272, 341.204A67.873 67.873 0 0 0 448, 326L448, 242C448, 195.156 401.375, 162.727 358.182, 179.361zM80.985, 279.697L108.111, 317.776C117.106, 330.402 137.142, 324.063 137.142, 308.493L137.142, 67C137.142, 41.88 173.713, 41.84 173.713, 67L173.713, 242C173.713, 250.836 180.876, 258 189.713, 258L196.57, 258C205.407, 258 212.57, 250.836 212.57, 242L212.57, 207C212.57, 181.88 249.141, 181.84 249.141, 207L249.141, 242C249.141, 250.836 256.304, 258 265.141, 258L272, 258C280.837, 258 288, 250.836 288, 242L288, 221C288, 195.88 324.571, 195.84 324.571, 221L324.571, 242C324.571, 250.836 331.734, 258 340.571, 258L347.428, 258C356.265, 258 363.428, 250.836 363.428, 242C363.428, 216.879 399.999, 216.84 399.999, 242L399.999, 326C399.999, 327.488 399.83, 328.977 399.497, 330.423L372.067, 449.424C370.089, 458.006 362.777, 464 354.285, 464L176, 464C170.231, 464 164.737, 461.122 161.303, 456.303L51.591, 302.303C37.185, 282.08 66.585, 259.485 80.985, 279.697zM176.143, 400L176.143, 304C176.143, 295.163 182.411, 288 190.143, 288L196.143, 288C203.875, 288 210.143, 295.163 210.143, 304L210.143, 400C210.143, 408.837 203.875, 416 196.143, 416L190.143, 416C182.41, 416 176.143, 408.837 176.143, 400zM251.571, 400L251.571, 304C251.571, 295.163 257.839, 288 265.571, 288L271.571, 288C279.303, 288 285.571, 295.163 285.571, 304L285.571, 400C285.571, 408.837 279.303, 416 271.571, 416L265.571, 416C257.839, 416 251.571, 408.837 251.571, 400zM327, 400L327, 304C327, 295.163 333.268, 288 341, 288L347, 288C354.732, 288 361, 295.163 361, 304L361, 400C361, 408.837 354.732, 416 347, 416L341, 416C333.268, 416 327, 408.837 327, 400z" fill="#727272" fill-opacity="1" class="Black" />
  </g>
</svg>