<?xml version='1.0' encoding='UTF-8'?>
<svg viewBox="-2 -4.7992 32 32" xmlns="http://www.w3.org/2000/svg">
  <g transform="matrix(0.9988, 0, 0, 0.9988, 0, 0)">
    <g transform="matrix(0.0438, 0, 0, 0.0438, 0, 0)">
      <path d="M456, 160C451.58, 160 448, 163.58 448, 168L448, 296L480, 296L480, 168C480, 163.58 476.42, 160 472, 160L456, 160zM320, 80C333.25, 80 344, 68.06 344, 53.33C344, 38.6 320, 0 320, 0C320, 0 296, 38.61 296, 53.33C296, 68.05 306.75, 80 320, 80zM544, 168C544, 163.58 540.42, 160 536, 160L520, 160C515.58, 160 512, 163.58 512, 168L512, 296L544, 296L544, 168zM616, 128C629.25, 128 640, 116.06 640, 101.33C640, 86.61 616, 48 616, 48C616, 48 592, 86.61 592, 101.33C592, 116.06 602.75, 128 616, 128zM392, 160C387.58, 160 384, 163.58 384, 168L384, 296L416, 296L416, 168C416, 163.58 412.42, 160 408, 160L392, 160zM104, 160C99.58, 160 96, 163.58 96, 168L96, 296L128, 296L128, 168C128, 163.58 124.42, 160 120, 160L104, 160zM24, 128C37.25, 128 48, 116.06 48, 101.33C48, 86.61 24, 48 24, 48C24, 48 0, 86.61 0, 101.33C0, 116.06 10.75, 128 24, 128zM624, 160L608, 160C599.16, 160 592, 167.16 592, 176L592, 294.22C592, 317.29 573.29, 336 550.22, 336L344, 336L344, 128C344, 119.16 336.84, 112 328, 112L312, 112C303.16, 112 296, 119.16 296, 128L296, 336L89.78, 336C66.71, 336 48, 317.29 48, 294.22L48, 176C48, 167.16 40.84, 160 32, 160L16, 160C7.16, 160 0, 167.16 0, 176L0, 294.22C0, 343.8 40.2, 384 89.78, 384L296, 384L296, 464L112, 464C103.16, 464 96, 471.16 96, 480L96, 496C96, 504.84 103.16, 512 112, 512L528, 512C536.84, 512 544, 504.84 544, 496L544, 480C544, 471.16 536.84, 464 528, 464L344, 464L344, 384L550.22, 384C599.81, 384 640, 343.8 640, 294.22L640, 176C640, 167.16 632.84, 160 624, 160zM168, 160C163.58, 160 160, 163.58 160, 168L160, 296L192, 296L192, 168C192, 163.58 188.42, 160 184, 160L168, 160zM232, 160C227.58, 160 224, 163.58 224, 168L224, 296L256, 296L256, 168C256, 163.58 252.42, 160 248, 160L232, 160zM112, 128C125.25, 128 136, 116.06 136, 101.33C136, 86.6 112, 48 112, 48C112, 48 88, 86.61 88, 101.33C88, 116.05 98.75, 128 112, 128zM176, 128C189.25, 128 200, 116.06 200, 101.33C200, 86.6 176, 48 176, 48C176, 48 152, 86.61 152, 101.33C152, 116.05 162.75, 128 176, 128zM240, 128C253.25, 128 264, 116.06 264, 101.33C264, 86.6 240, 48 240, 48C240, 48 216, 86.61 216, 101.33C216, 116.05 226.75, 128 240, 128zM400, 128C413.25, 128 424, 116.06 424, 101.33C424, 86.6 400, 48 400, 48C400, 48 376, 86.61 376, 101.33C376, 116.05 386.75, 128 400, 128zM464, 128C477.25, 128 488, 116.06 488, 101.33C488, 86.6 464, 48 464, 48C464, 48 440, 86.61 440, 101.33C440, 116.05 450.75, 128 464, 128zM528, 128C541.25, 128 552, 116.06 552, 101.33C552, 86.6 528, 48 528, 48C528, 48 504, 86.61 504, 101.33C504, 116.05 514.75, 128 528, 128z" fill="#727272" fill-opacity="1" class="Black" />
    </g>
  </g>
</svg>