<?xml version='1.0' encoding='UTF-8'?>
<svg viewBox="-1.9999 -1.9974 32 31.9975" xmlns="http://www.w3.org/2000/svg">
  <g transform="matrix(0.0547, 0, 0, 0.0547, 0, 0)">
    <path d="M480, 320C480, 218.54 412.5, 133 320, 105.4L320, 80A16 16 0 0 0 304, 64L208, 64A16 16 0 0 0 192, 80L192, 105.4C99.49, 133 32, 218.54 32, 320A32 32 0 0 0 0, 352L0, 416A32 32 0 0 0 32, 448L480, 448A32 32 0 0 0 512, 416L512, 352A32 32 0 0 0 480, 320zM172.16, 165.29L189.94, 246.56A12 12 0 0 0 201.66, 256L212, 256A12 12 0 0 0 224, 244L224, 112L288, 112L288, 244A12 12 0 0 0 300, 256L310.34, 256A12 12 0 0 0 322.06, 246.56L339.84, 165.29A176.14 176.14 0 0 1 432, 320L80, 320A176.14 176.14 0 0 1 172.16, 165.29zM464, 400L48, 400L48, 368L464, 368z" fill="#727272" fill-opacity="1" class="Black" />
  </g>
</svg>