<?xml version='1.0' encoding='UTF-8'?>
<svg viewBox="-1.9988 0 32 32" xmlns="http://www.w3.org/2000/svg">
  <g transform="matrix(0.0625, 0, 0, 0.0625, 0, 0)">
    <path d="M443.524, 190.109L447.81, 166.109C449.123, 158.754 443.468, 152 435.997, 152L346.952, 152L365.861, 46.11C367.174, 38.755 361.519, 32 354.048, 32L329.668, 32A12 12 0 0 0 317.855, 41.89L298.192, 152L186.952, 152L205.861, 46.11C207.174, 38.755 201.519, 32 194.048, 32L169.668, 32A12 12 0 0 0 157.855, 41.89L138.192, 152L44.86, 152A12 12 0 0 0 33.047, 161.891L28.761, 185.891C27.448, 193.246 33.103, 200 40.575, 200L129.62, 200L109.62, 312L16.289, 312A12 12 0 0 0 4.476, 321.891L0.19, 345.891C-1.123, 353.246 4.532, 360 12.003, 360L101.048, 360L82.139, 465.891C80.826, 473.246 86.481, 480 93.953, 480L118.333, 480A12 12 0 0 0 130.146, 470.109L149.808, 360L261.048, 360L242.139, 465.891C240.826, 473.246 246.481, 480 253.952, 480L278.332, 480A12 12 0 0 0 290.145, 470.109L309.808, 360L403.139, 360A12 12 0 0 0 414.952, 350.109L419.238, 326.109C420.551, 318.754 414.896, 312 407.425, 312L318.38, 312L338.38, 200L431.711, 200A12 12 0 0 0 443.524, 190.109zM269.62, 312L158.38, 312L178.38, 200L289.62, 200L269.62, 312z" fill="#727272" fill-opacity="1" class="Black" />
  </g>
</svg>