<?xml version='1.0' encoding='UTF-8'?>
<svg viewBox="-2 -2 32 32" xmlns="http://www.w3.org/2000/svg">
  <g transform="matrix(0.0547, 0, 0, 0.0547, 0, 0)">
    <path d="M416, 32A95.17 95.17 0 0 0 358.27, 51.74C334.93, 20.5 298, 0 256, 0C214, 0 177.07, 20.5 153.73, 51.74A95.56 95.56 0 0 0 0, 128C0, 169.74 64, 352 64, 352L64, 480A32 32 0 0 0 96, 512L416, 512A32 32 0 0 0 448, 480L448, 352C448, 352 512, 169.74 512, 128A96 96 0 0 0 416, 32zM112, 464L112, 384L400, 384L400, 464zM402.74, 336L373.19, 336L384, 201.25A8 8 0 0 0 376.67, 192.64L360.67, 191.36L360.02, 191.36A8 8 0 0 0 352.02, 198.73L341.02, 336.03L271.34, 336.03L271.34, 200A8 8 0 0 0 263.34, 192L247.34, 192A8 8 0 0 0 239.34, 200L239.34, 336L170.92, 336L159.92, 198.7A8 8 0 0 0 151.92, 191.33L151.27, 191.33L135.27, 192.61A8 8 0 0 0 127.94, 201.22L138.81, 336L109.26, 336C80, 252.78 48.46, 149.34 48, 128A47.57 47.57 0 0 1 124.72, 90L163.24, 119.22L192.18, 80.49C207.6, 59.84 230.86, 48 256, 48C281.14, 48 304.4, 59.84 319.82, 80.47L348.76, 119.2L387.28, 90A47.57 47.57 0 0 1 464, 127.92C463.54, 149.34 432, 252.78 402.74, 336z" fill="#727272" fill-opacity="1" class="Black" />
  </g>
</svg>