<?xml version='1.0' encoding='UTF-8'?>
<svg viewBox="-1.9999 -1.9999 32 32" xmlns="http://www.w3.org/2000/svg">
  <g transform="matrix(0.0547, 0, 0, 0.0547, 0, 0)">
    <path d="M480, 416L32, 416C14.3, 416 0, 430.3 0, 448L0, 480C0, 497.7 14.3, 512 32, 512L480, 512C497.7, 512 512, 497.7 512, 480L512, 448C512, 430.3 497.7, 416 480, 416zM195.2, 105.2C189.7, 115.3 190.8, 128 199.4, 136.6C204.6, 141.8 211.4, 144.4 218.3, 144.4C222.7, 144.4 226.9, 142.9 230.8, 140.8C234.1, 151.8 243.9, 160 256, 160C268.1, 160 277.9, 151.8 281.2, 140.8C285.2, 142.9 289.4, 144.4 293.7, 144.4C300.5, 144.4 307.3, 141.8 312.6, 136.6C321.2, 128 322.3, 115.3 316.8, 105.2C327.8, 101.9 336, 92.1 336, 80C336, 67.9 327.8, 58.1 316.8, 54.8C322.3, 44.7 321.2, 32 312.6, 23.4C304, 14.8 291.3, 13.7 281.2, 19.2C277.9, 8.2 268.1, 0 256, 0C243.9, 0 234.1, 8.2 230.8, 19.2C220.7, 13.7 208, 14.8 199.4, 23.4C190.8, 32 189.7, 44.7 195.2, 54.8C184.2, 58.1 176, 67.9 176, 80C176, 92.1 184.2, 101.9 195.2, 105.2zM85.9, 335.9L128, 314.8L192, 346.8L256, 314.8L320, 346.8L384, 314.8L426.1, 335.9C431.6, 362.3 432, 381.5 432, 384L480, 384C480, 382 477.7, 218.5 348.1, 139.1C345.3, 146.4 341, 153.3 335.1, 159.2C328.5, 165.8 320.5, 170.4 311.9, 173.2C358.7, 197.8 387.1, 235 404.5, 271.4L384, 261.2L320, 293.2L256, 261.2L192, 293.2L128, 261.2L107.4, 271.5C124.8, 235.1 153.2, 197.9 200, 173.3C191.4, 170.5 183.4, 165.9 176.8, 159.3C170.9, 153.4 166.7, 146.6 163.9, 139.2C34.3, 218.5 32, 382 32, 384L80, 384C80, 381.5 80.4, 362.3 85.9, 335.9z" fill="#727272" fill-opacity="1" class="Black" />
  </g>
</svg>