<?xml version='1.0' encoding='UTF-8'?>
<svg viewBox="-1.9975 -4.0977 32 32" xmlns="http://www.w3.org/2000/svg">
  <g transform="matrix(0.9989, 0, 0, 0.9989, 0, 0)">
    <g transform="matrix(0.0438, 0, 0, 0.0438, 0, 0)">
      <path d="M483.88, 230L465.34, 129A78.2 78.2 0 0 0 372.09, 65.74L210.31, 100.07A77.94 77.94 0 0 0 148.84, 168.07L142, 228.25C74.23, 243.76 19.9, 303.83 1.86, 387.88C-2.79, 409.58 1.36, 432.27 13.3, 450.16C26, 469.12 45.4, 480 66.58, 480L559.28, 480A80.83 80.83 0 0 0 640, 399.27C640, 358.46 601.49, 255.71 483.88, 230zM66.58, 432C55.72, 432 44.88, 416.05 48.8, 398C65, 322.62 116.34, 272 176.65, 272C203.12, 272 228.87, 281.44 250.52, 298.73L341.52, 377.19C366.11, 398.38 388.33, 416.81 410.89, 432zM311.58, 288L281.21, 261.83A167.25 167.25 0 0 0 190.66, 225.22L196.59, 173.32A30.07 30.07 0 0 1 220.27, 147L382, 112.71A30.13 30.13 0 0 1 418.06, 137.38L445.71, 288zM561.83, 431.48A269.19 269.19 0 0 1 520.06, 427.22L493.54, 282.69C572.85, 309.9 592, 382.34 592, 399.27C592, 416.41 578.61, 430.11 561.83, 431.48z" fill="#727272" fill-opacity="1" class="Black" />
    </g>
  </g>
</svg>