<?xml version='1.0' encoding='UTF-8'?>
<svg viewBox="-1.9974 -3.554 31.9975 32" xmlns="http://www.w3.org/2000/svg">
  <g transform="matrix(0.0486, 0, 0, 0.0486, 0, 0)">
    <path d="M572, 433.06L561.53, 421.2C555.96, 414.89 546.59, 414.35 539.88, 419.44C528.93, 427.76 517.13, 434.7 504.92, 440.82L408.2, 223.85C403.66, 213.24 403.15, 201.14 406.87, 189.98L413.22, 170.94A15.982 15.982 0 0 1 428.4, 160L467.6, 160C474.5, 160 480.6, 164.4 482.78, 170.94L496.82, 213.06L510.76, 254.88L526.89, 213.85L557.25, 136.61C563.32, 118.46 558.88, 99.64 545.94, 86.7L476.86, 14.32C467.53, 4.99 455.47, 0 442.64, 0C434.31, 0 426.08, 2.19 418.84, 6.32L252.01, 109.58C225.68, 124.61 204.88, 147.62 192.34, 175.84L71.48, 441C59.13, 434.84 47.19, 427.85 36.11, 419.44C29.4, 414.34 20.04, 414.89 14.46, 421.2L4, 433.06C-1.92, 439.77 -1.25, 450.31 5.85, 455.77C53.08, 492.14 111.35, 512 171.63, 512L404.38, 512C464.66, 512 522.92, 492.14 570.15, 455.77C577.24, 450.3 577.92, 439.77 572, 433.06zM208, 464.88L171.63, 464.88C152.9, 464.88 134.62, 461.86 116.78, 457.37L135.63, 416L208, 416L208, 464.88zM320, 464L256, 464L256, 400L320, 400L320, 464zM330, 352L246, 352C233.41, 352 222.78, 358.55 215.86, 368L157.51, 368L236.21, 195.33C244.57, 176.52 258.44, 161.18 277.28, 150.39L442.65, 48.01L511.97, 120.61L509.29, 127.42A63.876 63.876 0 0 0 467.6, 112L428.4, 112A63.913 63.913 0 0 0 367.69, 155.76L361.34, 174.8C353.9, 197.13 354.9, 221.34 364.36, 243.4L419.91, 368L360.14, 368C353.22, 358.55 342.59, 352 330, 352zM404.37, 464.88L368, 464.88L368, 416L441.3, 416L459.69, 457.25C441.7, 461.82 423.27, 464.88 404.37, 464.88z" fill="#727272" fill-opacity="1" class="Black" />
  </g>
</svg>