<?xml version='1.0' encoding='UTF-8'?>
<svg viewBox="-2 -1.9988 32 32" xmlns="http://www.w3.org/2000/svg">
  <g transform="matrix(0.0547, 0, 0, 0.0547, 0, 0)">
    <path d="M192, 288L144, 288C108.65, 288 80, 316.7 80, 352.12L80, 415.88C80, 451.29 108.65, 480 144, 480L192, 480C209.67, 480 224, 465.64 224, 447.94L224, 320.06C224, 302.35 209.67, 288 192, 288zM176, 431.91L144, 431.91C135.18, 431.91 128, 424.72 128, 415.88L128, 352.12C128, 343.28 135.18, 336.09 144, 336.09L176, 336.09L176, 431.91zM256, 32C112.91, 32 4.57, 151.13 0, 288L0, 400C0, 408.84 7.16, 416 16, 416L32, 416C40.84, 416 48, 408.84 48, 400L48, 288C48, 173.33 141.33, 80.2 256, 80.18C370.67, 80.2 464, 173.33 464, 288L464, 400C464, 408.84 471.16, 416 480, 416L496, 416C504.84, 416 512, 408.84 512, 400L512, 288C507.43, 151.13 399.09, 32 256, 32zM368, 288L320, 288C302.33, 288 288, 302.35 288, 320.06L288, 447.94C288, 465.64 302.33, 480 320, 480L368, 480C403.35, 480 432, 451.29 432, 415.88L432, 352.12C432, 316.71 403.35, 288 368, 288zM384, 415.88C384, 424.72 376.82, 431.91 368, 431.91L336, 431.91L336, 336.09L368, 336.09C376.82, 336.09 384, 343.28 384, 352.12L384, 415.88z" fill="#727272" fill-opacity="1" class="Black" />
  </g>
</svg>