<?xml version='1.0' encoding='UTF-8'?>
<svg viewBox="-2 -2 32 32" xmlns="http://www.w3.org/2000/svg">
  <g transform="matrix(0.0547, 0, 0, 0.0547, 0, 0)">
    <path d="M224, 336L224, 192.36C224, 174.69 209.67, 160.36 192, 160.36L144, 160.36C108.65, 160.36 80, 189.01 80, 224.36L80, 304C80, 339.35 108.65, 368 144, 368L192, 368C209.67, 368 224, 353.67 224, 336zM176, 320L144, 320C135.18, 320 128, 312.82 128, 304L128, 224.36C128, 215.54 135.18, 208.36 144, 208.36L176, 208.36L176, 320zM256, 0C113.18, 0 4.58, 118.83 0, 256L0, 272C0, 280.84 7.16, 288 16, 288L32, 288C40.84, 288 48, 280.84 48, 272L48, 256C48, 141.31 141.31, 48 256, 48C370.69, 48 464, 141.31 464, 256L463.88, 256C463.96, 258.43 464, 421.72 464, 421.72C464, 445.07 445.07, 464 421.72, 464L320, 464C320, 437.49 298.51, 416 272, 416L240, 416C213.49, 416 192, 437.49 192, 464C192, 490.51 213.49, 512 240, 512L421.72, 512C471.58, 512 512, 471.58 512, 421.72L512, 256C507.42, 118.83 398.82, 0 256, 0zM368, 368C403.35, 368 432, 339.35 432, 304L432, 224.36C432, 189.01 403.35, 160.36 368, 160.36L320, 160.36C302.33, 160.36 288, 174.69 288, 192.36L288, 336C288, 353.67 302.33, 368 320, 368L368, 368zM336, 208.36L368, 208.36C376.82, 208.36 384, 215.54 384, 224.36L384, 304C384, 312.82 376.82, 320 368, 320L336, 320L336, 208.36z" fill="#727272" fill-opacity="1" class="Black" />
  </g>
</svg>