<?xml version='1.0' encoding='UTF-8'?>
<svg viewBox="-2 -1.9988 32 32" xmlns="http://www.w3.org/2000/svg">
  <g transform="matrix(0.0547, 0, 0, 0.0547, 0, 0)">
    <path d="M256, 32C114.52, 32 0, 146.497 0, 288L0, 337.714A24.001 24.001 0 0 0 12.319, 358.68L32.021, 369.657C32.908, 430.748 82.698, 480 144, 480L168, 480C181.255, 480 192, 469.255 192, 456L192, 280C192, 266.745 181.255, 256 168, 256L144, 256C103.256, 256 67.598, 277.758 48, 310.287L48, 288C48, 173.309 141.309, 80 256, 80C370.691, 80 464, 173.309 464, 288L464, 310.287C444.402, 277.758 408.744, 256 368, 256L344, 256C330.745, 256 320, 266.745 320, 280L320, 456C320, 469.255 330.745, 480 344, 480L368, 480C429.302, 480 479.092, 430.748 479.979, 369.656L499.681, 358.679A24.001 24.001 0 0 0 512, 337.713L512, 288C512, 146.52 397.503, 32 256, 32zM144, 304L144, 432C108.71, 432 80, 403.29 80, 368C80, 332.71 108.71, 304 144, 304zM368, 432L368, 304C403.29, 304 432, 332.71 432, 368C432, 403.29 403.29, 432 368, 432z" fill="#727272" fill-opacity="1" class="Black" />
  </g>
</svg>