<?xml version='1.0' encoding='UTF-8'?>
<svg viewBox="-1.9975 -2 32 32" xmlns="http://www.w3.org/2000/svg">
  <g transform="matrix(0.0547, 0, 0, 0.0547, 0, 0)">
    <path d="M352, 192C352, 174.33 337.67, 160 320, 160C302.33, 160 288, 174.33 288, 192C288, 209.67 302.33, 224 320, 224C337.67, 224 352, 209.67 352, 192zM509.21, 275C488.27, 227.88 460.77, 123.27 436.13, 88.25C397.68, 33.6 334.56, 0 266.09, 0L200.01, 0C95.47, 0 4.12, 80.08 0.14, 184.55C-2.13, 244.33 23.1, 298.14 64, 334.82L64, 496C64, 504.84 71.16, 512 80, 512L96, 512C104.84, 512 112, 504.84 112, 496L112, 313.39L96.05, 299.08C49.11, 256.98 32.94, 187.36 63.86, 126.58C89.2, 76.78 143.11, 48 198.99, 48L266.09, 48C318.08, 48 366.97, 73.37 396.87, 115.87C408.07, 131.78 424.93, 181.54 437.25, 217.87C443.8, 237.19 450.11, 255.79 456.22, 272L400, 272L400, 384C400, 392.84 392.84, 400 384, 400L304, 400L304, 496C304, 504.84 311.16, 512 320, 512L336, 512C344.84, 512 352, 504.84 352, 496L352, 448L384, 448C419.35, 448 448, 419.35 448, 384L448, 320L479.96, 320C503.12, 320 518.61, 296.16 509.21, 275z" fill="#727272" fill-opacity="1" class="Black" />
  </g>
</svg>