<?xml version='1.0' encoding='UTF-8'?>
<svg viewBox="-2 -4.7992 32 32" xmlns="http://www.w3.org/2000/svg">
  <g transform="matrix(0.9988, 0, 0, 0.9988, 0, 0)">
    <g transform="matrix(0.0438, 0, 0, 0.0438, 0, 0)">
      <path d="M624, 232L480, 232C470.7, 232 462.24, 237.37 458.28, 245.79L422.5, 321.83L343.22, 17.94C340.47, 7.36 330.91, 0 320, 0C319.81, 0 319.59, 0 319.38, 0.02C308.26, 0.3 298.76, 8.22 296.5, 19.14L220.66, 385.66L183.13, 249.63C180.26, 239.22 170.78, 232.01 159.98, 232.01L16, 232.01C7.16, 232.01 0, 239.17 0, 248.01L0, 264.01C0, 272.85 7.16, 280.01 16, 280.01L141.72, 280.01L200.88, 494.39A23.974 23.974 0 0 0 224, 512C224.25, 512 224.53, 512 224.78, 511.98C235.87, 511.62 245.25, 503.71 247.5, 492.86L322.69, 129.42L392.78, 398.06C395.31, 407.83 403.72, 414.97 413.78, 415.89C424.28, 417.03 433.4, 411.36 437.72, 402.22L495.22, 280L624, 280C632.84, 280 640, 272.84 640, 264L640, 248C640, 239.16 632.84, 232 624, 232z" fill="#727272" fill-opacity="1" class="Black" />
    </g>
  </g>
</svg>