<?xml version='1.0' encoding='UTF-8'?>
<svg viewBox="-1.9999 -1.549 31.9975 32" xmlns="http://www.w3.org/2000/svg">
  <g transform="matrix(0.999, 0, 0, 0.999, 0, 0)">
    <g transform="matrix(0.0565, 0, 0, 0.0565, 0, 0)">
      <path d="M361.8, 162.8C323.5, 130 272.8, 145 248, 170.6C223.2, 145 172.5, 130 134.2, 162.8C91.8, 199 98.1, 258 128.2, 289.1L226.9, 391.1C239.9, 404.5 259.4, 401.3 269.3, 391.1L368, 289.1C397.9, 258 404.2, 199 361.8, 162.8zM334.1, 255.5L248, 344.5L161.9, 255.4C148.9, 241.9 145.7, 215.7 164.6, 199.5C178.7, 187.5 200.7, 190.5 213.9, 204.2L248, 239.6L282.1, 204.2C295.3, 190.5 317.4, 187.5 331.4, 199.5C350.3, 215.7 347.2, 242 334.1, 255.5zM248, 8C111, 8 0, 119 0, 256C0, 393 111, 504 248, 504C385, 504 496, 393 496, 256C496, 119 385, 8 248, 8zM248, 456C137.7, 456 48, 366.3 48, 256C48, 145.7 137.7, 56 248, 56C358.3, 56 448, 145.7 448, 256C448, 366.3 358.3, 456 248, 456z" fill="#727272" fill-opacity="1" class="Black" />
    </g>
  </g>
</svg>