<?xml version='1.0' encoding='UTF-8'?>
<svg viewBox="-2 -1.9975 32 32" xmlns="http://www.w3.org/2000/svg">
  <g transform="matrix(0.0547, 0, 0, 0.0547, 0, 0)">
    <path d="M266.4, 427.7C260.6, 433.4 251.3, 433.4 245.5, 427.7L136.7, 320L68.5, 320L211.8, 461.8C236.3, 486 275.7, 486.1 300.2, 461.8L443.5, 320L375.3, 320L266.4, 427.7zM354.7, 32C318.2, 32 283.7, 44.3 256, 66.9C228.3, 44.3 193.8, 32 157.3, 32C86.2, 32 0, 88.9 0, 188C0, 225.3 13.7, 260.1 37.8, 288L154.6, 288L184.5, 216.3L241.4, 342.6C246.9, 354.9 264.3, 355.3 270.3, 343.2L320, 243.8L342.1, 288L474.1, 288C498.2, 260.1 511.9, 225.3 511.9, 188C512, 88.9 425.8, 32 354.7, 32zM438.6, 256L361.9, 256L334.3, 200.8C328.4, 189 311.6, 189 305.7, 200.8L256.8, 298.7L198.6, 169.4C192.9, 156.6 174.6, 156.9 169.2, 169.8L133.3, 256L73.4, 256C14.6, 186.5 66.4, 80 157.3, 80C188.3, 80 208.3, 86.2 256, 133.4C307.1, 82.9 325.1, 80 354.7, 80C445.9, 80 497.4, 186.5 438.6, 256z" fill="#727272" fill-opacity="1" class="Black" />
  </g>
</svg>