<?xml version='1.0' encoding='UTF-8'?>
<svg viewBox="-1.9999 -2.8231 31.9975 32" xmlns="http://www.w3.org/2000/svg">
  <g transform="matrix(0.9994, 0, 0, 0.9994, 0, 0)">
    <g transform="matrix(0.0515, 0, 0, 0.0515, 0, 0)">
      <path d="M0, 479.98L99.88, 512L135.44, 476.42L68.43, 409.38L0, 479.98zM527.93, 79.27L464.76, 16.07C454.09, 5.39 440.04, 0 425.97, 0C413.04, 0 400.09, 4.55 389.69, 13.73L124.8, 239.96A36.598 36.598 0 0 0 114.01, 278.06L127.06, 320.89L93.11, 354.86C83.74, 364.23 83.74, 379.42 93.11, 388.79L155.37, 451.08C164.74, 460.46 179.95, 460.46 189.32, 451.08L223.18, 417.2L265.9, 430.28A36.54 36.54 0 0 0 276.6, 431.89A36.57 36.57 0 0 0 304.03, 419.51L530.28, 154.38C549.44, 132.66 548.42, 99.77 527.93, 79.27zM272.78, 382.18L237.23, 371.29L209.64, 362.84L189.24, 383.25L172.35, 400.15L144.04, 371.83L161.01, 354.85L181.38, 334.47L172.98, 306.9L162.12, 271.24L200.35, 238.59L305.53, 343.82L272.78, 382.18zM493.77, 123.21L326.36, 319.39L224.76, 217.74L421.44, 49.74C422.73, 48.6 424.26, 48.02 425.97, 48.02C427.27, 48.02 429.17, 48.37 430.83, 50.03L494, 113.23C496.54, 115.79 496.67, 119.91 493.77, 123.21z" fill="#727272" fill-opacity="1" class="Black" />
    </g>
  </g>
</svg>