<?xml version='1.0' encoding='UTF-8'?>
<svg viewBox="-5.4978 -2 31.9975 32" xmlns="http://www.w3.org/2000/svg">
  <g transform="matrix(0.0547, 0, 0, 0.0547, 0, 0)">
    <path d="M114.13, 252.08L142.88, 141C148.47, 119.69 133.54, 102.31 116.94, 98.31C74.1, 88.06 29.72, 113.59 18.75, 155.59L1.13, 224.05C-3.77, 242.75 7.66, 262.06 27.07, 266.74L71.48, 277.38C91.68, 282.14 109.72, 269.15 114.13, 252.08zM70.82, 227.86L50.95, 223.09L65.23, 167.62C68.51, 155.03 79.54, 146.17 92.45, 144.34L70.82, 227.86zM368, 160L352, 160C343.16, 160 336, 167.16 336, 176L336, 200L298.88, 200L248.79, 142.84C239.2, 133.26 226.45, 128 212.92, 128C189.55, 128 169.3, 143.83 163.67, 166.47L141.14, 256.55C136.36, 275.52 141.98, 295.89 155.86, 309.78L229.67, 383.59C231.17, 385.09 232.01, 387.14 232.01, 389.25L232.01, 488C232.01, 501.25 242.76, 512 256.01, 512C269.26, 512 280.01, 501.25 280.01, 488L280.01, 389.25C280.01, 374.3 274.2, 360.23 263.6, 349.66L213.23, 299.28L237.78, 203.07L269.94, 239.82C274.5, 245.02 281.1, 248.01 288, 248.01L336, 248.01L336, 496.01C336, 504.85 343.16, 512.01 352, 512.01L368, 512.01C376.84, 512.01 384, 504.85 384, 496.01L384, 176C384, 167.16 376.84, 160 368, 160zM121.87, 317.6L80.73, 482.17C77.51, 495.03 85.32, 508.06 98.2, 511.28C100.14, 511.76 102.11, 512 104.04, 512C114.79, 512 124.57, 504.72 127.29, 493.83L160.76, 359.95L133.21, 332.4C128.75, 327.94 125.21, 322.81 121.87, 317.6zM239.99, 96C266.5, 96 287.99, 74.51 287.99, 48C287.99, 21.49 266.5, 0 239.99, 0C213.48, 0 191.99, 21.49 191.99, 48C191.99, 74.51 213.48, 96 239.99, 96z" fill="#727272" fill-opacity="1" class="Black" />
  </g>
</svg>