<?xml version='1.0' encoding='UTF-8'?>
<svg viewBox="-1.3654 -1.5477 31.9975 32" xmlns="http://www.w3.org/2000/svg">
  <g transform="matrix(0.9991, 0, 0, 0.9991, 0, 0)">
    <g transform="matrix(0.0565, 0, 0, 0.0565, 0, 0)">
      <path d="M504, 255.532C504.252, 392.172 392.818, 503.904 256.178, 504C192.164, 504.045 133.805, 479.837 89.784, 440.058C84.687, 435.452 84.484, 427.515 89.341, 422.658L106.301, 405.698C110.83, 401.169 118.077, 401.039 122.856, 405.303C158.208, 436.843 204.848, 456 256, 456C366.549, 456 456, 366.532 456, 256C456, 145.451 366.532, 56 256, 56C200.48, 56 150.292, 78.574 114.077, 115.043L163.168, 163.456C170.809, 170.991 165.473, 184 154.742, 184L26.412, 184C19.785, 184 14.412, 178.627 14.412, 172L14.412, 45.443C14.412, 34.792 27.255, 29.42 34.838, 36.899L79.935, 81.373C124.866, 36.067 187.15, 8 256, 8C392.811, 8 503.747, 118.781 504, 255.532zM336.942, 345.705L351.058, 326.296C354.956, 320.936 353.771, 313.431 348.411, 309.533L280, 259.778L280, 116C280, 109.373 274.627, 104 268, 104L244, 104C237.373, 104 232, 109.373 232, 116L232, 284.222L320.179, 348.352C325.539, 352.249 333.044, 351.064 336.942, 345.705z" fill="#727272" fill-opacity="1" class="Black" />
    </g>
  </g>
</svg>