<?xml version='1.0' encoding='UTF-8'?>
<svg viewBox="-1.9999 -2.8243 31.9975 32" xmlns="http://www.w3.org/2000/svg">
  <g transform="matrix(0.9993, 0, 0, 0.9993, 0, 0)">
    <g transform="matrix(0.0515, 0, 0, 0.0515, 0, 0)">
      <path d="M272, 48C136.6, 48 0, 87.6 0, 176L0, 320C0, 414.5 136.8, 464 272, 464C407.2, 464 544, 414.5 544, 320L544, 176C544, 87.6 407.4, 48 272, 48zM496, 320C496, 373 395.7, 416 272, 416C148.3, 416 48, 373 48, 320L48, 253.7C149.2, 320.9 394.8, 320.9 496, 253.7L496, 320zM272, 256C148.3, 256 48, 220.2 48, 176C48, 131.8 148.3, 96 272, 96C395.7, 96 496, 131.8 496, 176C496, 220.2 395.7, 256 272, 256z" fill="#727272" fill-opacity="1" class="Black" />
    </g>
  </g>
</svg>