<?xml version='1.0' encoding='UTF-8'?>
<svg viewBox="-3.7495 -2 32 32" xmlns="http://www.w3.org/2000/svg">
  <g transform="matrix(0.0547, 0, 0, 0.0547, 0, 0)">
    <path d="M192, 416C183.16, 416 176, 423.16 176, 432C176, 440.84 183.16, 448 192, 448C200.84, 448 208, 440.84 208, 432C208, 423.16 200.84, 416 192, 416zM192, 352C183.16, 352 176, 359.16 176, 368C176, 376.84 183.16, 384 192, 384C200.84, 384 208, 376.84 208, 368C208, 359.16 200.84, 352 192, 352zM272, 112C280.84, 112 288, 104.84 288, 96C288, 87.16 280.84, 80 272, 80C263.16, 80 256, 87.16 256, 96C256, 104.84 263.17, 112 272, 112zM176, 112C184.84, 112 192, 104.84 192, 96C192, 87.16 184.84, 80 176, 80C167.16, 80 160, 87.16 160, 96C160, 104.84 167.16, 112 176, 112zM192, 288C183.16, 288 176, 295.16 176, 304C176, 312.84 183.16, 320 192, 320C200.84, 320 208, 312.84 208, 304C208, 295.16 200.84, 288 192, 288zM256, 416C247.16, 416 240, 423.16 240, 432C240, 440.84 247.16, 448 256, 448C264.84, 448 272, 440.84 272, 432C272, 423.16 264.84, 416 256, 416zM256, 288C247.16, 288 240, 295.16 240, 304C240, 312.84 247.16, 320 256, 320C264.84, 320 272, 312.84 272, 304C272, 295.16 264.84, 288 256, 288zM256, 352C247.16, 352 240, 359.16 240, 368C240, 376.84 247.16, 384 256, 384C264.84, 384 272, 376.84 272, 368C272, 359.16 264.84, 352 256, 352zM224, 128C215.16, 128 208, 135.16 208, 144C208, 152.84 215.16, 160 224, 160C232.84, 160 240, 152.84 240, 144C240, 135.16 232.84, 128 224, 128zM376.61, 54.46C335.13, 18.15 279.56, 0 224, 0C168.43, 0 112.87, 18.15 71.39, 54.46C7.36, 110.5 -31.01, 224.44 32.63, 416C64.53, 512 224, 512 224, 512C224, 512 383.47, 512 415.37, 416C479.01, 224.44 440.64, 110.5 376.61, 54.46zM369.81, 400.87C352.86, 451.91 256.36, 463.84 224, 464C197.63, 464 95.6, 453.29 78.19, 400.87C30.98, 258.79 40.03, 145.7 103.01, 90.57C133.92, 63.52 178.02, 48 224, 48C269.98, 48 314.08, 63.52 344.99, 90.57C407.97, 145.7 417.02, 258.79 369.81, 400.87zM200, 208C200, 190.33 185.67, 176 168, 176L104, 176C86.33, 176 72, 190.33 72, 208C72, 243.35 100.65, 272 136, 272C171.35, 272 200, 243.35 200, 208zM280, 176C262.33, 176 248, 190.33 248, 208C248, 243.35 276.65, 272 312, 272C347.35, 272 376, 243.35 376, 208C376, 190.33 361.67, 176 344, 176L280, 176z" fill="#727272" fill-opacity="1" class="Black" />
  </g>
</svg>