<?xml version='1.0' encoding='UTF-8'?>
<svg viewBox="-3.7504 -2 32 32" xmlns="http://www.w3.org/2000/svg">
  <g transform="matrix(0.0547, 0, 0, 0.0547, 0, 0)">
    <path d="M224, 96C250.5, 96 272, 74.5 272, 48C272, 21.5 250.5, 0 224, 0C197.5, 0 176, 21.5 176, 48C176, 74.5 197.5, 96 224, 96zM255.9, 144C255.9, 170.5 277.4, 192 303.9, 192C330.4, 192 351.9, 170.5 351.9, 144C351.9, 117.5 330.4, 96 303.9, 96C277.4, 96 255.9, 117.5 255.9, 144zM144, 191.9C170.5, 191.9 192, 170.4 192, 143.9C192, 117.4 170.5, 95.9 144, 95.9C117.5, 95.9 96, 117.4 96, 143.9C96, 170.4 117.5, 191.9 144, 191.9zM420, 336.2C405.6, 334.8 390.8, 332 376.1, 327.8C369, 325.8 364.7, 319.1 366.3, 312.6C369.8, 298.4 374.6, 284.9 380.4, 272.6C389.2, 253.9 376.5, 231.8 355.4, 230C278, 223.1 260.5, 192.1 224, 192.1C186.4, 192.1 171.1, 223 92.6, 230C71.3, 231.9 58.8, 254.1 67.6, 272.6C73.5, 285 78.2, 298.5 81.7, 312.7C83.3, 319.2 79, 325.9 71.9, 327.9C57.1, 332.1 42.3, 334.9 28, 336.3C8.7, 338.2 -6.7, 358.9 3, 379C17.4, 408.8 25, 443.1 25.2, 478C25.3, 502.3 46.7, 512.1 60.1, 512.1C66, 512.1 71.9, 510.6 77.4, 507.6C109.6, 490.1 144.9, 479.2 179.5, 476.1C200.7, 474.2 213.4, 452.1 204.5, 433.5C198.6, 421.1 193.9, 407.6 190.4, 393.5C183.8, 367.2 264.1, 367.2 257.5, 393.5C254, 407.7 249.2, 421.1 243.4, 433.5C234.6, 452.2 247.3, 474.3 268.4, 476.1C303, 479.2 338.3, 490.1 370.5, 507.6C376, 510.6 381.9, 512.1 387.8, 512.1C401, 512.1 422.6, 502.4 422.7, 478C422.9, 443.1 430.5, 408.8 444.9, 379C455.1, 357.9 438.4, 338 420, 336.2zM187.1, 332.1C154.9, 341.2 135.9, 373.3 143.9, 405.1C146.2, 414.1 148.8, 422.9 151.9, 431.4C124.8, 436 98.2, 444.4 72.4, 456.4C70.4, 430 64.9, 404.7 55.9, 380.7C65.6, 378.9 75.3, 376.7 85, 373.9C117.2, 364.8 136.2, 332.7 128.2, 300.9C125.9, 291.9 123.3, 283.1 120.2, 274.6C147.2, 270 174.1, 261.5 199.7, 249.5C201.7, 275.7 207.3, 301.3 216.2, 325.2C206.5, 327 196.8, 329.3 187.1, 332.1zM375.6, 456.4C349.9, 444.4 323.3, 436 296.1, 431.4C299.2, 422.9 301.8, 414.1 304.1, 405.1C311.2, 376.8 296.8, 348.4 270.9, 336C269, 322 253, 300.7 248, 251C248, 250.5 248.1, 250 248.2, 249.5C273.8, 261.4 300.7, 269.9 327.7, 274.6C324.6, 283.1 322, 291.9 319.7, 300.9C311.7, 332.7 330.7, 364.8 362.9, 373.9C372.6, 376.7 382.3, 378.9 392, 380.7C383.1, 404.7 377.6, 430 375.6, 456.4z" fill="#727272" fill-opacity="1" class="Black" />
  </g>
</svg>