<?xml version='1.0' encoding='UTF-8'?>
<svg viewBox="-1.9948 -3.5505 32 31.9975" xmlns="http://www.w3.org/2000/svg">
  <g transform="matrix(0.0486, 0, 0, 0.0486, 0, 0)">
    <path d="M570.24, 215.42L511.89, 167.47L511.89, 72A8 8 0 0 0 503.89, 64L471.89, 64A8 8 0 0 0 464, 71.71L464, 128.12L323.87, 13A56 56 0 0 0 252.13, 13L5.76, 215.42A16 16 0 0 0 3.76, 237.96L14, 250.26A16 16 0 0 0 36.53, 252.26L64, 229.71L64, 288L63.69, 288L63.69, 496A16.13 16.13 0 0 0 79.79, 512L496, 512A16 16 0 0 0 512, 496L512, 229.71L539.5, 252.3A16 16 0 0 0 562.03, 250.3L572.29, 238A16 16 0 0 0 570.24, 215.42zM464, 224L463.79, 224L463.79, 464L352, 464L352, 320A32 32 0 0 0 320, 288L256, 288A32 32 0 0 0 224, 320L224, 464L111.69, 464L111.69, 194.48L112, 194.23L112, 190.23L288, 45.65L464, 190.27z" fill="#727272" fill-opacity="1" class="Black" />
  </g>
</svg>