<?xml version='1.0' encoding='UTF-8'?>
<svg viewBox="-1.995 -3.5507 32 32" xmlns="http://www.w3.org/2000/svg">
  <g transform="matrix(0.0486, 0, 0, 0.0486, 0, 0)">
    <path d="M570.24, 247.41L512, 199.52L512, 104A8 8 0 0 0 504, 96L472, 96A8 8 0 0 0 464.05, 103.88L464.05, 160.1L323.87, 45A56.06 56.06 0 0 0 252.13, 45L5.76, 247.41A16 16 0 0 0 3.76, 269.95L14, 282.25A16 16 0 0 0 36.53, 284.25L64, 261.69L64, 448A32.09 32.09 0 0 0 96, 480L224, 480A32.09 32.09 0 0 0 256, 448L256, 344L320, 344L320, 448A32.09 32.09 0 0 0 352, 480L480, 480A32.07 32.07 0 0 0 512, 448.24L512, 261.67L539.53, 284.29A16 16 0 0 0 562.06, 282.29L572.29, 270A16 16 0 0 0 570.24, 247.41zM463.85, 432L368, 432L368, 328A32.09 32.09 0 0 0 336, 296L240, 296A32.09 32.09 0 0 0 208, 328L208, 432L112, 432L112, 222.27L288, 77.65L464, 222.21z" fill="#727272" fill-opacity="1" class="Black" />
  </g>
</svg>