<?xml version='1.0' encoding='UTF-8'?>
<svg viewBox="-1.9998 -3.5563 31.9975 32" xmlns="http://www.w3.org/2000/svg">
  <g transform="matrix(0.0486, 0, 0, 0.0486, 0, 0)">
    <path d="M464, 80C455.16, 80 448, 87.16 448, 96C448, 104.84 455.16, 112 464, 112C472.84, 112 480, 104.84 480, 96C480, 87.16 472.84, 80 464, 80zM575.95, 102.25A48.011 48.011 0 0 0 565.01, 71.78L543.28, 45.3C559.3, 39.9 572.41, 26.46 575.84, 9.64C576.85, 4.68 572.96, 0 567.9, 0L432, 0C363.6, 0 306.18, 47.95 291.58, 112L176, 112C137.88, 112 104.23, 131.22 83.99, 160.4C37.36, 162.55 0, 200.84 0, 248L0, 304C0, 312.84 7.16, 320 16, 320L32, 320C40.84, 320 48, 312.84 48, 304L48, 248C48, 234.78 54.87, 223.61 64.78, 216.32C64.6, 218.91 64, 221.37 64, 224C64, 254.13 75.91, 282.09 96.16, 302.58L83.22, 346.34A78.948 78.948 0 0 0 82.17, 387.19L106.28, 487.48C109.74, 501.86 122.6, 512 137.39, 512L212.09, 512C232.95, 512 248.23, 492.36 243.11, 472.14L217.58, 371.38L227.06, 344.97L288, 358.5L288, 480C288, 497.67 302.33, 512 320, 512L400, 512C417.67, 512 432, 497.67 432, 480L432, 324.35C451.96, 301.88 463.31, 273.31 463.97, 242.8C464.02, 241.87 464.05, 234.37 464.05, 234.37C485, 241.34 502.37, 235.09 504.99, 234.2L536.01, 223.61C559.97, 215.43 576.02, 192.91 576, 167.59L575.95, 102.25zM520.51, 178.19L489.49, 188.78C487.98, 189.3 479.78, 191.73 473.01, 184.95L448.05, 160L416.05, 160L416.05, 240L416, 240C416, 266.09 403.32, 289.03 384, 303.64L384, 464L336, 464L336, 320L196.18, 288.93L167.45, 368.95L191.53, 464L150, 464L128.87, 376.14A31.698 31.698 0 0 1 129.24, 359.96L151.94, 283.24C128.54, 273.72 112, 250.83 112, 224C112, 188.65 140.65, 160 176, 160L336, 160L336, 144C336, 90.98 378.98, 48 432, 48L483.33, 48L528, 102.28L528.05, 167.63C528.05, 172.4 525.02, 176.65 520.51, 178.19z" fill="#727272" fill-opacity="1" class="Black" />
  </g>
</svg>