<?xml version='1.0' encoding='UTF-8'?>
<svg viewBox="-1.9998 -3.5563 31.9975 32" xmlns="http://www.w3.org/2000/svg">
  <g transform="matrix(0.0486, 0, 0, 0.0486, 0, 0)">
    <path d="M464, 80A16 16 0 1 0 480, 96A16 16 0 0 0 464, 80zM575.94, 102.25C575.94, 92.77 571.03, 79.11 565, 71.78L543.28, 45.3C559.28, 39.91 572.4, 26.45 575.84, 9.64A8.11 8.11 0 0 0 567.9, 0L432, 0C363.59, 0 306.19, 48 291.59, 112L176, 112A111.81 111.81 0 0 0 84, 160.41C37.37, 162.55 0, 200.84 0, 248L0, 304A16 16 0 0 0 16, 320L32, 320A16 16 0 0 0 48, 304L48, 248C48, 234.78 54.87, 223.61 64.78, 216.31C64.62, 218.48 58.05, 264.03 96.16, 302.58L83.22, 346.34A82.4 82.4 0 0 0 82.16, 387.19L106.28, 487.48A32 32 0 0 0 137.37, 512L212.09, 512A32 32 0 0 0 243.09, 472.14L217.59, 371.38L227.06, 345L288, 358.5L288, 480A32 32 0 0 0 320, 512L400, 512A32 32 0 0 0 432, 480L432, 324.34A126.17 126.17 0 0 0 464, 242.8C464.06, 241.88 464.09, 234.38 464.09, 234.38A64.41 64.41 0 0 0 505, 234.2L536, 223.61A59.07 59.07 0 0 0 576, 167.61zM224, 295.12L196.19, 288.94L167.44, 368.94L191.53, 464L150, 464L128.87, 376.14A33 33 0 0 1 129.25, 359.95L151.94, 283.23A63.79 63.79 0 0 1 160, 162.23L160, 176C160, 216.16 187.18, 249.73 224, 260.25zM208, 176L208, 160L288, 160L288, 176A40 40 0 0 1 208, 176zM520.5, 178.19L489.5, 188.78A16 16 0 0 1 473, 185L448.06, 160L416.06, 160L416.06, 240L416, 240A79.66 79.66 0 0 1 384, 303.64L384, 464L336, 464L336, 320L272, 305.78L272, 260.25C308.82, 249.73 336, 216.16 336, 176L336, 144A96 96 0 0 1 432, 48L483.34, 48L528, 102.28L528.06, 167.62A11.13 11.13 0 0 1 520.5, 178.19z" fill="#727272" fill-opacity="1" class="Black" />
  </g>
</svg>