<?xml version='1.0' encoding='UTF-8'?>
<svg viewBox="-3.7494 -1.9999 32 32" xmlns="http://www.w3.org/2000/svg">
  <g transform="matrix(0.0547, 0, 0, 0.0547, 0, 0)">
    <path d="M128, 244L128, 204C128, 197.373 133.373, 192 140, 192L180, 192C186.627, 192 192, 197.373 192, 204L192, 244C192, 250.627 186.627, 256 180, 256L140, 256C133.373, 256 128, 250.627 128, 244zM268, 256L308, 256C314.627, 256 320, 250.627 320, 244L320, 204C320, 197.373 314.627, 192 308, 192L268, 192C261.373, 192 256, 197.373 256, 204L256, 244C256, 250.627 261.373, 256 268, 256zM192, 340L192, 300C192, 293.373 186.627, 288 180, 288L140, 288C133.373, 288 128, 293.373 128, 300L128, 340C128, 346.627 133.373, 352 140, 352L180, 352C186.627, 352 192, 346.627 192, 340zM268, 352L308, 352C314.627, 352 320, 346.627 320, 340L320, 300C320, 293.373 314.627, 288 308, 288L268, 288C261.373, 288 256, 293.373 256, 300L256, 340C256, 346.627 261.373, 352 268, 352zM448, 476L448, 512L0, 512L0, 476C0, 469.373 5.373, 464 12, 464L31.5, 464L31.5, 85.035C31.5, 73.418 42.245, 64 55.5, 64L144, 64L144, 24C144, 10.745 154.745, 0 168, 0L280, 0C293.255, 0 304, 10.745 304, 24L304, 64L392.5, 64C405.755, 64 416.5, 73.418 416.5, 85.035L416.5, 464L436, 464C442.627, 464 448, 469.373 448, 476zM79.5, 463L192, 463L192, 396C192, 389.373 197.373, 384 204, 384L244, 384C250.627, 384 256, 389.373 256, 396L256, 463L368.5, 463L368.5, 112L304, 112L304, 136C304, 149.255 293.255, 160 280, 160L168, 160C154.745, 160 144, 149.255 144, 136L144, 112L79.5, 112L79.5, 463zM266, 64L240, 64L240, 38A6 6 0 0 0 234, 32L214, 32A6 6 0 0 0 208, 38L208, 64L182, 64A6 6 0 0 0 176, 70L176, 90A6 6 0 0 0 182, 96L208, 96L208, 122A6 6 0 0 0 214, 128L234, 128A6 6 0 0 0 240, 122L240, 96L266, 96A6 6 0 0 0 272, 90L272, 70A6 6 0 0 0 266, 64z" fill="#727272" fill-opacity="1" class="Black" />
  </g>
</svg>