<?xml version='1.0' encoding='UTF-8'?>
<svg viewBox="-2 -2 32 32" xmlns="http://www.w3.org/2000/svg">
  <g transform="matrix(0.0547, 0, 0, 0.0547, 0, 0)">
    <path d="M256, 0C114.6, 0 0, 114.6 0, 256C0, 397.4 114.6, 512 256, 512C397.4, 512 512, 397.4 512, 256C512, 114.6 397.4, 0 256, 0zM256, 464C141.3, 464 48, 370.7 48, 256C48, 141.3 141.3, 48 256, 48C370.7, 48 464, 141.3 464, 256C464, 370.7 370.7, 464 256, 464zM344, 144L312, 144C307.6, 144 304, 147.6 304, 152L304, 232L208, 232L208, 152C208, 147.6 204.4, 144 200, 144L168, 144C163.6, 144 160, 147.6 160, 152L160, 360C160, 364.4 163.6, 368 168, 368L200, 368C204.4, 368 208, 364.4 208, 360L208, 280L304, 280L304, 360C304, 364.4 307.6, 368 312, 368L344, 368C348.4, 368 352, 364.4 352, 360L352, 152C352, 147.6 348.4, 144 344, 144z" fill="#727272" fill-opacity="1" class="Black" />
  </g>
</svg>