<?xml version='1.0' encoding='UTF-8'?>
<svg viewBox="-2 -2 32 32" xmlns="http://www.w3.org/2000/svg">
  <g transform="matrix(0.0547, 0, 0, 0.0547, 0, 0)">
    <path d="M432.83, 209.65C433.83, 217.86 440.45, 224 448.31, 224L464.16, 224C473.51, 224 480.96, 215.43 479.89, 205.65C475.63, 166.54 457.87, 131.12 430.6, 108.49C413.53, 94.32 402.26, 71.74 399.16, 46.34C398.16, 38.13 391.54, 31.99 383.68, 31.99L367.83, 31.99C358.48, 31.99 351.03, 40.56 352.1, 50.34C356.37, 89.45 374.12, 124.87 401.39, 147.5C418.47, 161.68 429.73, 184.26 432.83, 209.65zM336.83, 209.65C337.83, 217.86 344.45, 224 352.31, 224L368.16, 224C377.51, 224 384.96, 215.43 383.89, 205.65C379.63, 166.54 361.87, 131.12 334.6, 108.49C317.53, 94.32 306.26, 71.74 303.16, 46.34C302.16, 38.13 295.54, 31.99 287.68, 31.99L271.83, 31.99C262.48, 31.99 255.03, 40.56 256.1, 50.34C260.37, 89.45 278.12, 124.87 305.39, 147.5C322.47, 161.68 333.73, 184.26 336.83, 209.65zM480, 288L288, 288L177.07, 204.8A63.99 63.99 0 0 0 138.67, 192L64, 192C28.65, 192 0, 220.65 0, 256L0, 448C0, 483.35 28.65, 512 64, 512L448, 512C483.35, 512 512, 483.35 512, 448L512, 320C512, 302.33 497.67, 288 480, 288zM48, 256C48, 247.18 55.18, 240 64, 240L138.67, 240C142.11, 240 145.52, 241.14 148.27, 243.2L208, 288L48, 288L48, 256zM112, 464L64, 464C55.18, 464 48, 456.82 48, 448L48, 336L112, 336L112, 464zM232, 464L160, 464L160, 336L232, 336L232, 464zM352, 464L280, 464L280, 336L352, 336L352, 464zM464, 448C464, 456.82 456.82, 464 448, 464L400, 464L400, 336L464, 336L464, 448zM96, 160C140.18, 160 176, 124.18 176, 80C176, 35.81 140.18, 0 96, 0C51.82, 0 16, 35.81 16, 80C16, 124.18 51.82, 160 96, 160zM96, 48C113.64, 48 128, 62.36 128, 80C128, 97.64 113.64, 112 96, 112C78.36, 112 64, 97.64 64, 80C64, 62.36 78.36, 48 96, 48z" fill="#727272" fill-opacity="1" class="Black" />
  </g>
</svg>