<?xml version='1.0' encoding='UTF-8'?>
<svg viewBox="-2 -2 32 32" xmlns="http://www.w3.org/2000/svg">
  <g transform="matrix(0.0547, 0, 0, 0.0547, 0, 0)">
    <path d="M484.05, 186.63C501.86, 166.11 512, 140.44 512, 113A113 113 0 0 0 399, 0C371.55, 0 345.88, 10.15 325.35, 28L322.47, 25.12C306.56, 9.14 284.94, 0 263.12, 0A74.51 74.51 0 0 0 209.94, 21.69L21.69, 209.89C-8.41, 240 -6.91, 290.53 25.06, 322.48L28, 325.37C10.14, 345.89 0, 371.56 0, 399A113 113 0 0 0 113, 512C140.46, 512 166.13, 501.85 186.65, 484L189.53, 486.88C205.44, 502.86 227.06, 512 248.88, 512A74.51 74.51 0 0 0 302.06, 490.31L490.28, 302.11C520.38, 271.98 518.88, 221.47 486.91, 189.52zM55.62, 243.83L243.84, 55.62C254.02, 45.41 273.16, 43.62 290.84, 61.34L61.33, 290.88C43.61, 273.16 45.48, 254 55.62, 243.83zM456.38, 268.17L268.16, 456.38C257.98, 466.58 238.84, 468.38 221.16, 450.66L450.67, 221.12C468.39, 238.84 466.52, 258 456.38, 268.17zM445, 159L159, 445A65 65 0 0 1 67, 353L353, 67A65 65 0 1 1 445, 159zM400, 112C389.5, 122.52 381, 123.53 369.25, 125C363.64, 125.68 305.73, 128.28 297.59, 196.67C292.49, 238.39 262.34, 239.34 253.91, 240.35C248.28, 241.02 190.4, 243.58 182.41, 311.88C181.41, 320.2 180.49, 350.41 138.88, 355.39C124.97, 357.05 107.69, 359.11 89.38, 377.39A16 16 0 0 0 112, 400C122.47, 389.53 130.94, 388.52 142.69, 387.11C148.37, 386.43 206.17, 383.89 214.16, 315.61C215.16, 307.46 216.02, 277.08 257.72, 272.08C263.44, 271.39 321.21, 268.81 329.34, 200.45C334.45, 158.71 364.69, 157.75 373.06, 156.73C387, 155.05 404.28, 152.95 422.62, 134.62A16 16 0 0 0 400, 112z" fill="#727272" fill-opacity="1" class="Black" />
  </g>
</svg>