<?xml version='1.0' encoding='UTF-8'?>
<svg viewBox="-1.9998 -3.5563 31.9975 32" xmlns="http://www.w3.org/2000/svg">
  <g transform="matrix(0.0486, 0, 0, 0.0486, 0, 0)">
    <path d="M560, 48C568.84, 48 576, 40.84 576, 32L576, 16C576, 7.16 568.84, 0 560, 0L16, 0C7.16, 0 0, 7.16 0, 16L0, 32C0, 40.84 7.16, 48 16, 48L31.98, 48L31.98, 464L16, 464C7.16, 464 0, 471.16 0, 480L0, 496C0, 504.84 7.16, 512 16, 512L560, 512C568.84, 512 576, 504.84 576, 496L576, 480C576, 471.16 568.84, 464 560, 464L544, 464L544, 48L560, 48zM496, 464L320, 464L320, 384L384, 384C384, 330.98 341.02, 288 288, 288C234.98, 288 192, 330.98 192, 384L256, 384L256, 464L79.98, 464L79.98, 48L496, 48L496, 464zM268.8, 160L307.2, 160C313.6, 160 320, 153.6 320, 147.2L320, 108.8C320, 102.4 313.6, 96 307.2, 96L268.8, 96C262.4, 96 256, 102.4 256, 108.8L256, 147.2C256, 153.6 262.4, 160 268.8, 160zM268.8, 256L307.2, 256C313.6, 256 320, 249.6 320, 243.2L320, 204.8C320, 198.4 313.6, 192 307.2, 192L268.8, 192C262.4, 192 256, 198.4 256, 204.8L256, 243.2C256, 249.6 262.4, 256 268.8, 256zM396.8, 256L435.2, 256C441.6, 256 448, 249.6 448, 243.2L448, 204.8C448, 198.4 441.6, 192 435.2, 192L396.8, 192C390.4, 192 384, 198.4 384, 204.8L384, 243.2C384, 249.6 390.4, 256 396.8, 256zM396.8, 160L435.2, 160C441.6, 160 448, 153.6 448, 147.2L448, 108.8C448, 102.4 441.6, 96 435.2, 96L396.8, 96C390.4, 96 384, 102.4 384, 108.8L384, 147.2C384, 153.6 390.4, 160 396.8, 160zM140.8, 256L179.2, 256C185.6, 256 192, 249.6 192, 243.2L192, 204.8C192, 198.4 185.6, 192 179.2, 192L140.8, 192C134.4, 192 128, 198.4 128, 204.8L128, 243.2C128, 249.6 134.4, 256 140.8, 256zM140.8, 160L179.2, 160C185.6, 160 192, 153.6 192, 147.2L192, 108.8C192, 102.4 185.6, 96 179.2, 96L140.8, 96C134.4, 96 128, 102.4 128, 108.8L128, 147.2C128, 153.6 134.4, 160 140.8, 160z" fill="#727272" fill-opacity="1" class="Black" />
  </g>
</svg>