<?xml version='1.0' encoding='UTF-8'?>
<svg viewBox="-5.5003 -2 32 32" xmlns="http://www.w3.org/2000/svg">
  <g transform="matrix(0.0547, 0, 0, 0.0547, 0, 0)">
    <path d="M372, 0L12, 0C5.373, 0 0, 5.373 0, 12L0, 36C0, 42.627 5.373, 48 12, 48L16, 48C16, 128.564 48.188, 213.807 113.18, 256C47.898, 298.381 16, 383.9 16, 464L12, 464C5.373, 464 0, 469.373 0, 476L0, 500C0, 506.627 5.373, 512 12, 512L372, 512C378.627, 512 384, 506.627 384, 500L384, 476C384, 469.373 378.627, 464 372, 464L368, 464C368, 383.436 335.812, 298.193 270.82, 256C336.102, 213.619 368, 128.1 368, 48L372, 48C378.627, 48 384, 42.627 384, 36L384, 12C384, 5.373 378.627, 0 372, 0zM192, 232C121.308, 232 64, 149.621 64, 48L320, 48C320, 149.621 262.692, 232 192, 232z" fill="#727272" fill-opacity="1" class="Black" />
  </g>
</svg>