<?xml version='1.0' encoding='UTF-8'?>
<svg viewBox="-1.9973 -3.5504 32 31.9975" xmlns="http://www.w3.org/2000/svg">
  <g transform="matrix(0.0486, 0, 0, 0.0486, 0, 0)">
    <path d="M573.05, 224L511.92, 171.77L511.92, 71.97C511.92, 67.57 508.32, 63.97 503.92, 63.97L471.9, 63.97C467.5, 63.97 463.9, 67.57 463.9, 71.97L463.9, 132.47L313.23, 9.07C298.52, -3.03 277.22, -3.03 262.51, 9.07L2.92, 224.33C-0.48, 227.13 -0.98, 232.13 1.82, 235.63L22.13, 260.43C24.93, 263.83 29.93, 264.33 33.43, 261.53L63.71, 233.86L63.71, 496C63.71, 504.8 71.02, 512 79.82, 512L253.2, 512L205.65, 393.17L285.48, 339.97A23.963 23.963 0 0 0 296.17, 320L296.17, 260.42L365.12, 346.54L290.86, 396.02C280.79, 402.74 277.29, 415.89 282.7, 426.72L325.34, 512L496.01, 512C504.81, 512 511.96, 504.8 511.96, 496L511.96, 233.77L542.73, 261.1C546.13, 263.9 551.23, 263.4 554.03, 260L574.34, 235.2C576.95, 231.8 576.45, 226.8 573.05, 224zM463.8, 464L355.04, 464L335.13, 424.22L413.55, 371.97A23.99 23.99 0 0 0 423.96, 355.69C424.99, 349.03 423.18, 342.27 418.99, 337L290.92, 177C284.54, 169.06 273.79, 165.95 264.22, 169.36C254.59, 172.74 248.15, 181.81 248.15, 192L248.15, 307.16L162.79, 364.03C153.35, 370.33 149.59, 382.37 153.82, 392.9L182.27, 464L111.74, 464L111.74, 194.47L282.71, 54.47C285.61, 52.07 289.92, 52.07 292.81, 54.47L463.8, 194.47L463.8, 464z" fill="#727272" fill-opacity="1" class="Black" />
  </g>
</svg>