<?xml version='1.0' encoding='UTF-8'?>
<svg viewBox="-5.5003 -2 32 32" xmlns="http://www.w3.org/2000/svg">
  <g transform="matrix(0.0547, 0, 0, 0.0547, 0, 0)">
    <path d="M209.9, 89.6L222.2, 50.6C226.3, 37.9 223.7, 24.1 215.2, 13.9C206.8, 3.8 194, -1.4 181.3, 0.3C77.9, 13.1 0, 104.3 0, 212.5C0, 318.5 75.6, 406.6 174.1, 422.4L161.8, 461.4C157.7, 474.1 160.3, 487.8 168.8, 498.1C176.1, 507 186.9, 512 198.1, 512C199.6, 512 201.2, 511.9 202.8, 511.7C306.1, 498.9 384, 407.7 384, 299.5C384, 193.5 308.4, 105.5 209.9, 89.6zM212.1, 461.4L238.8, 377L206, 377C118.9, 377 48, 303.2 48, 212.5C48, 134 100.3, 67 171.9, 50.6L145.2, 135L178, 135C265.1, 135 336, 208.8 336, 299.5C336, 378 283.7, 445 212.1, 461.4zM192, 184C152.3, 184 120, 216.3 120, 256C120, 295.7 152.3, 328 192, 328C231.7, 328 264, 295.7 264, 256C264, 216.3 231.7, 184 192, 184zM192, 280C178.8, 280 168, 269.2 168, 256C168, 242.8 178.8, 232 192, 232C205.2, 232 216, 242.8 216, 256C216, 269.2 205.2, 280 192, 280z" fill="#727272" fill-opacity="1" class="Black" />
  </g>
</svg>