<?xml version='1.0' encoding='UTF-8'?>
<svg viewBox="-2.0049 -1.9999 31.9975 32" xmlns="http://www.w3.org/2000/svg">
  <g transform="matrix(0.9993, 0, 0, 0.9993, 0, 0)">
    <g transform="matrix(0.0547, 0, 0, 0.0547, 0, 0)">
      <path d="M144, 343.78A48 48 0 1 0 192, 391.78A48 48 0 0 0 144, 343.78zM101.74, 213A37 37 0 0 0 154.1, 213L232.66, 134.56A79.06 79.06 0 0 0 227, 17.49C198.92, -5.64 157.46, -5.33 128, 16.63C98.55, -5.37 57, -5.67 28.95, 17.52A79.11 79.11 0 0 0 23.18, 134.6zM59.42, 54.53A29.54 29.54 0 0 1 78.35, 48A35.08 35.08 0 0 1 103, 58.32L128, 83.21L152.93, 58.32C165.18, 46.17 184.36, 44.49 196.51, 54.5A31.09 31.09 0 0 1 198.82, 100.65L127.97, 171.36L57.1, 100.67A31.13 31.13 0 0 1 59.42, 54.53zM397.35, 359.77L429.62, 289.88A24 24 0 1 0 386.08, 269.76L322.38, 407.76L431.65, 407.76L394.73, 476.34A24 24 0 1 0 437, 499.05L512, 359.77zM255.91, 287.77L228.49, 287.77L221.4, 273.6A27.36 27.36 0 0 0 195.76, 255.84L92.08, 255.84A27.39 27.39 0 0 0 66.43, 273.6L59.43, 287.81L32, 287.81A32 32 0 0 0 0, 319.81L0, 480A32 32 0 0 0 32, 512L255.91, 512A32 32 0 0 0 287.91, 480L287.91, 319.79A32 32 0 0 0 255.91, 287.81zM239.91, 464L48, 464L48, 335.79L89.22, 335.79L102.43, 309.06L105, 303.8L182.83, 303.8L185.52, 309.2L198.76, 335.79L239.89, 335.79zM351.91, 208L351.91, 68.24L463.83, 51L463.83, 129.58A84 84 0 0 0 447.83, 127.89C412.49, 127.89 383.83, 149.36 383.83, 175.89C383.83, 202.42 412.47, 223.89 447.83, 223.89C483.19, 223.89 511.83, 202.41 511.83, 175.89L511.83, 32C511.83, 14.1 498.29, 0 482.19, 0A28.08 28.08 0 0 0 477.93, 0.33L329.39, 23.17C314.76, 25.42 303.89, 38.91 303.89, 54.83L303.89, 161.6A83.25 83.25 0 0 0 287.89, 159.9C252.56, 159.9 223.89, 181.45 223.89, 208.03C223.89, 234.61 252.53, 256.16 287.89, 256.16C323.25, 256.16 351.87, 234.61 351.87, 208z" fill="#727272" fill-opacity="1" class="Black" />
    </g>
  </g>
</svg>