<?xml version='1.0' encoding='UTF-8'?>
<svg viewBox="-1.9998 -3.5563 31.9975 32" xmlns="http://www.w3.org/2000/svg">
  <g transform="matrix(0.0486, 0, 0, 0.0486, 0, 0)">
    <path d="M512, 64L368, 64L368, 32C368, 14.3 353.7, 0 336, 0L240, 0C222.3, 0 208, 14.3 208, 32L208, 64L64, 64C28.7, 64 0, 92.7 0, 128L0, 448C0, 483.3 28.7, 512 64, 512L512, 512C547.3, 512 576, 483.3 576, 448L576, 128C576, 92.7 547.3, 64 512, 64zM256, 48L320, 48L320, 112L256, 112L256, 48zM528, 448C528, 456.8 520.8, 464 512, 464L399.2, 464C399.4, 462.9 400, 461.9 400, 460.8L400, 441.6C400, 409.8 369.9, 384 332.8, 384C322, 384 314.1, 392 288, 392C261.1, 392 254.6, 384 243.2, 384C206.1, 384 176, 409.8 176, 441.6L176, 460.8C176, 461.9 176.5, 462.9 176.8, 464L64, 464C55.2, 464 48, 456.8 48, 448L48, 128C48, 119.2 55.2, 112 64, 112L208, 112L208, 160L368, 160L368, 112L512, 112C520.8, 112 528, 119.2 528, 128L528, 448zM288, 224C252.7, 224 224, 252.7 224, 288C224, 323.3 252.7, 352 288, 352C323.3, 352 352, 323.3 352, 288C352, 252.7 323.3, 224 288, 224z" fill="#727272" fill-opacity="1" class="Black" />
  </g>
</svg>