<?xml version='1.0' encoding='UTF-8'?>
<svg viewBox="-2 -3.554 32 32" xmlns="http://www.w3.org/2000/svg">
  <g transform="matrix(0.0486, 0, 0, 0.0486, 0, 0)">
    <path d="M480, 416L480, 432C480, 458.51 458.51, 480 432, 480L48, 480C21.49, 480 0, 458.51 0, 432L0, 176C0, 149.49 21.49, 128 48, 128L64, 128L64, 176L54, 176A6 6 0 0 0 48, 182L48, 426A6 6 0 0 0 54, 432L426, 432A6 6 0 0 0 432, 426L432, 416L480, 416zM522, 80L150, 80A6 6 0 0 0 144, 86L144, 330A6 6 0 0 0 150, 336L522, 336A6 6 0 0 0 528, 330L528, 86A6 6 0 0 0 522, 80zM528, 32C554.51, 32 576, 53.49 576, 80L576, 336C576, 362.51 554.51, 384 528, 384L144, 384C117.49, 384 96, 362.51 96, 336L96, 80C96, 53.49 117.49, 32 144, 32L528, 32zM264, 144C264, 166.091 246.091, 184 224, 184C201.909, 184 184, 166.091 184, 144C184, 121.909 201.909, 104 224, 104C246.091, 104 264, 121.909 264, 144zM192, 240L231.515, 200.485C236.201, 195.799 243.799, 195.799 248.486, 200.485L288, 240L391.515, 136.485C396.201, 131.799 403.799, 131.799 408.486, 136.485L480, 208L480, 288L192, 288L192, 240z" fill="#727272" fill-opacity="1" class="Black" />
  </g>
</svg>