<?xml version='1.0' encoding='UTF-8'?>
<svg viewBox="-1.9998 -3.5563 31.9975 32" xmlns="http://www.w3.org/2000/svg">
  <g transform="matrix(0.0486, 0, 0, 0.0486, 0, 0)">
    <path d="M395.5, 185.5L296.5, 284.5C291.8, 289.2 284.2, 289.2 279.5, 284.5L180.5, 185.5C172.9, 177.9 178.3, 165 189, 165L256, 165L256, 12C256, 5.4 261.4, 0 268, 0L308, 0C314.6, 0 320, 5.4 320, 12L320, 165L387, 165C397.7, 165 403.1, 177.9 395.5, 185.5zM528, 352L408, 352L376, 416L200, 416L168, 352L48, 352L48, 464L528, 464L528, 352zM576, 354.2L576, 464C576, 490.5 554.5, 512 528, 512L48, 512C21.5, 512 0, 490.5 0, 464L0, 354.2C0, 342.4 4.3, 331.1 12.1, 322.3L113.7, 208.1C116, 205.5 118.6, 203.2 121.4, 201.1C123.8, 199.4 127, 199.7 129.1, 201.8L153.9, 226.7C156.1, 228.9 156.2, 232.6 154.1, 234.9L92.7, 304L197.7, 304L229.7, 368L346.4, 368L378.4, 304L483.4, 304L422, 234.9C419.9, 232.5 420, 229 422.2, 226.7L446.8, 201.7C448.8, 199.6 452.1, 199.3 454.5, 201C457.4, 203.1 460, 205.4 462.4, 208.1L564, 322.3C571.7, 331.1 576, 342.5 576, 354.2z" fill="#727272" fill-opacity="1" class="Black" />
  </g>
</svg>