<?xml version='1.0' encoding='UTF-8'?>
<svg viewBox="-2 -4.7992 32 32" xmlns="http://www.w3.org/2000/svg">
  <g transform="matrix(0.9988, 0, 0, 0.9988, 0, 0)">
    <g transform="matrix(0.0438, 0, 0, 0.0438, 0, 0)">
      <path d="M484.4, 96C407, 96 349.3, 164.1 320, 208.5C290.7, 164.1 233, 96 155.6, 96C69.8, 96 0, 167.8 0, 256C0, 344.2 69.8, 416 155.6, 416C233.1, 416 290.7, 347.9 320, 303.5C349.3, 347.9 407, 416 484.4, 416C570.2, 416 640, 344.2 640, 256C640, 167.8 570.2, 96 484.4, 96zM155.6, 368C96.2, 368 48, 317.8 48, 256C48, 194.2 96.2, 144 155.6, 144C223.4, 144 276.1, 226.3 292.8, 256C276, 285.7 223.4, 368 155.6, 368zM484.4, 368C416.6, 368 363.9, 285.7 347.2, 256C364, 226.3 416.6, 144 484.4, 144C543.7, 144 592, 194.2 592, 256C592, 317.8 543.8, 368 484.4, 368z" fill="#727272" fill-opacity="1" class="Black" />
    </g>
  </g>
</svg>