<?xml version='1.0' encoding='UTF-8'?>
<svg viewBox="-2 0 32 32" xmlns="http://www.w3.org/2000/svg">
  <g transform="matrix(0.0625, 0, 0, 0.0625, 0, 0)">
    <path d="M448, 80L448, 432C448, 458.51 426.51, 480 400, 480L48, 480C21.49, 480 0, 458.51 0, 432L0, 80C0, 53.49 21.49, 32 48, 32L400, 32C426.51, 32 448, 53.49 448, 80zM400, 426L400, 86A6 6 0 0 0 394, 80L54, 80A6 6 0 0 0 48, 86L48, 426A6 6 0 0 0 54, 432L394, 432A6 6 0 0 0 400, 426zM224, 118C247.196, 118 266, 136.804 266, 160C266, 183.196 247.196, 202 224, 202C200.804, 202 182, 183.196 182, 160C182, 136.804 200.804, 118 224, 118zM280, 372C280, 378.627 274.627, 384 268, 384L180, 384C173.373, 384 168, 378.627 168, 372L168, 348C168, 341.373 173.373, 336 180, 336L192, 336L192, 272L180, 272C173.373, 272 168, 266.627 168, 260L168, 236C168, 229.373 173.373, 224 180, 224L244, 224C250.627, 224 256, 229.373 256, 236L256, 336L268, 336C274.627, 336 280, 341.373 280, 348L280, 372z" fill="#727272" fill-opacity="1" class="Black" />
  </g>
</svg>