<?xml version='1.0' encoding='UTF-8'?>
<svg viewBox="-8.9994 -2 32 32" xmlns="http://www.w3.org/2000/svg">
  <g transform="matrix(0.0547, 0, 0, 0.0547, 0, 0)">
    <path d="M224, 352.589L224, 224C224, 207.525 217.742, 192.483 207.479, 181.128C225.905, 161.14 236, 135.346 236, 108C236, 48.313 187.697, 0 128, 0C68.313, 0 20, 48.303 20, 108C20, 128.882 25.886, 148.859 36.874, 166.037C15.107, 176.264 0, 198.401 0, 224L0, 263.314C0, 286.955 12.884, 307.643 32, 318.725L32, 352.589C12.884, 363.671 0, 384.359 0, 408L0, 448C0, 483.29 28.71, 512 64, 512L192, 512C227.29, 512 256, 483.29 256, 448L256, 408C256, 384.359 243.116, 363.671 224, 352.589zM128, 48C161.137, 48 188, 74.863 188, 108C188, 141.137 161.137, 168 128, 168C94.863, 168 68, 141.137 68, 108C68, 74.863 94.863, 48 128, 48zM208, 448C208, 456.836 200.836, 464 192, 464L64, 464C55.164, 464 48, 456.836 48, 448L48, 408C48, 399.164 55.164, 392 64, 392L80, 392L80, 279.314L64, 279.314C55.164, 279.314 48, 272.15 48, 263.314L48, 224C48, 215.164 55.164, 208 64, 208L160, 208C168.836, 208 176, 215.164 176, 224L176, 392L192, 392C200.836, 392 208, 399.164 208, 408L208, 448z" fill="#727272" fill-opacity="1" class="Black" />
  </g>
</svg>