<?xml version='1.0' encoding='UTF-8'?>
<svg viewBox="-2 -4.7985 32 32" xmlns="http://www.w3.org/2000/svg">
  <g transform="matrix(1.0013, 0, 0, 1.0013, 0, 0)">
    <g transform="matrix(0.0437, 0, 0, 0.0437, 0, 0)">
      <path d="M128, 400C110.33, 400 96, 414.33 96, 432C96, 449.67 110.33, 464 128, 464C145.67, 464 160, 449.67 160, 432C160, 414.33 145.67, 400 128, 400zM32, 448C14.33, 448 0, 462.33 0, 480C0, 497.67 14.33, 512 32, 512C49.67, 512 64, 497.67 64, 480C64, 462.33 49.67, 448 32, 448zM32, 352C14.33, 352 0, 366.33 0, 384C0, 401.67 14.33, 416 32, 416C49.67, 416 64, 401.67 64, 384C64, 366.33 49.67, 352 32, 352zM32, 256C14.33, 256 0, 270.33 0, 288C0, 305.67 14.33, 320 32, 320C49.67, 320 64, 305.67 64, 288C64, 270.33 49.67, 256 32, 256zM128, 304C110.33, 304 96, 318.33 96, 336C96, 353.67 110.33, 368 128, 368C145.67, 368 160, 353.67 160, 336C160, 318.33 145.67, 304 128, 304zM409.19, 111.82C405.98, 108.61 401.93, 107.12 397.94, 107.12C391.07, 107.12 384.38, 111.51 382.4, 119.07L346.49, 256L224, 256C206.33, 256 192, 270.33 192, 288L192, 480C192, 497.67 206.33, 512 224, 512L494.62, 512C523.71, 512 549.15, 492.38 556.53, 464.24L594.49, 319.53C597.37, 308.53 594.21, 296.82 586.17, 288.78L409.19, 111.82zM510.1, 452.06C508.26, 459.09 501.89, 464 494.62, 464L240, 464L240, 304L383.53, 304L392.92, 268.18L414.69, 185.19L545.73, 316.23L510.1, 452.06zM616.27, 38.02L478.47, 1.1C475.7, 0.36 472.91, 0 470.17, 0C456.04, 0 443.11, 9.43 439.28, 23.72L423.87, 81.24L463.06, 120.43L481.51, 51.6L588.4, 80.24L553.42, 210.79L592.61, 249.98L638.9, 77.21C643.48, 60.14 633.35, 42.6 616.27, 38.02z" fill="#727272" fill-opacity="1" class="Black" />
    </g>
  </g>
</svg>