<?xml version='1.0' encoding='UTF-8'?>
<svg viewBox="-4.3328 2.6685 32 31.9975" xmlns="http://www.w3.org/2000/svg">
  <g transform="matrix(0.0729, 0, 0, 0.0729, 0, 0)">
    <path d="M48, 432L48, 227.22C48, 173.77 84.12, 125.14 136.48, 114.41C208.46, 99.67 272, 154.56 272, 224L272, 432C272, 440.84 279.16, 448 288, 448L304, 448C312.84, 448 320, 440.84 320, 432L320, 231.14C320, 147.63 259.11, 72.9 175.99, 64.79C80.62, 55.47 0, 130.5 0, 224L0, 432C0, 440.84 7.16, 448 16, 448L32, 448C40.84, 448 48, 440.84 48, 432z" fill="#727272" fill-opacity="1" class="Black" />
  </g>
</svg>