<?xml version='1.0' encoding='UTF-8'?>
<svg viewBox="-2 -4.7992 32 32" xmlns="http://www.w3.org/2000/svg">
  <g transform="matrix(0.9988, 0, 0, 0.9988, 0, 0)">
    <g transform="matrix(0.0438, 0, 0, 0.0438, 0, 0)">
      <path d="M624, 0L608, 0C599.2, 0 592, 7.2 592, 16L592, 160L544, 160L544, 16C544, 7.2 536.8, 0 528, 0L336, 0C327.2, 0 320, 7.2 320, 16L320, 160L48, 160L48, 16C48, 7.2 40.8, 0 32, 0L16, 0C7.2, 0 0, 7.2 0, 16L0, 512L48, 512L48, 480L592, 480L592, 512L640, 512L640, 16C640, 7.2 632.8, 0 624, 0zM368, 48L496, 48L496, 160L368, 160L368, 48zM144, 432L144, 304L264, 304L264, 432L144, 432zM312, 432L312, 304L432, 304L432, 432L312, 432zM480, 432L480, 272C480, 263.2 472.8, 256 464, 256L112, 256C103.2, 256 96, 263.2 96, 272L96, 432L48, 432L48, 208L592, 208L592, 432L480, 432z" fill="#727272" fill-opacity="1" class="Black" />
    </g>
  </g>
</svg>