<?xml version='1.0' encoding='UTF-8'?>
<svg viewBox="-3.7517 -1.9998 32 31.9975" xmlns="http://www.w3.org/2000/svg">
  <g transform="matrix(0.0547, 0, 0, 0.0547, 0, 0)">
    <path d="M336.53, 32A125.17 125.17 0 0 0 271.53, 49.87C249.61, 20.28 207.89, 0 159.39, 0C94.9, 0 41.49, 35.43 32.21, 81.64C30.71, 89.09 37.4, 96 46.4, 96L80, 96L96, 64L115, 101.91C108.73, 111.51 103.55, 121.54 100.47, 132.05C92.29, 159.95 95.55, 191.64 122.23, 221.37A8.26 8.26 0 0 0 133.97, 221.72L200.62, 153.05C194.85, 229.72 168.31, 306.27 149.62, 352.05L128, 352.05A128 128 0 0 0 0, 482.08C0.28, 498.93 15.14, 512 32, 512L352, 512C368.84, 512 383.71, 499 384, 482.12C385, 421.37 343.47, 370.54 287.38, 356.33C308.51, 248 297.19, 139.47 295.9, 128L368, 128L384, 96L400, 128L435.4, 128A12.38 12.38 0 0 0 447.82, 113.64C439.69, 67.43 393, 32 336.53, 32zM249.06, 150.16L249.72, 150.27C252.42, 186.12 255.54, 270.75 238.85, 352L201.17, 352C220.69, 301 244.35, 225.74 249.06, 150.16zM334.39, 464L49.61, 464A80.14 80.14 0 0 1 128, 400L256, 400A80.14 80.14 0 0 1 334.39, 464z" fill="#727272" fill-opacity="1" class="Black" />
  </g>
</svg>