<?xml version='1.0' encoding='UTF-8'?>
<svg viewBox="-3.7495 -2 32 32" xmlns="http://www.w3.org/2000/svg">
  <g transform="matrix(0.0547, 0, 0, 0.0547, 0, 0)">
    <path d="M448, 384L448, 16C448, 7.2 440.8, 0 432, 0L80, 0C35.8, 0 0, 35.8 0, 80L0, 432C0, 476.2 35.8, 512 80, 512L432, 512C440.8, 512 448, 504.8 448, 496L448, 480C448, 472.2 442.4, 465.7 435.1, 464.3C430.9, 451.3 430.9, 412.7 435.1, 399.7C442.5, 398.2 448, 391.8 448, 384zM394, 464L80, 464C62.3, 464 48, 449.7 48, 432C48, 414.4 62.4, 400 80, 400L394, 400C391.3, 417.3 391.3, 446.7 394, 464zM400, 352L80, 352C68.6, 352 57.8, 354.4 48, 358.7L48, 80C48, 62.3 62.3, 48 80, 48L400, 48L400, 352zM149.28, 230.52C152.59, 233.43 152.94, 238.47 150.03, 241.8C146.98, 245.27 141.94, 245.34 138.72, 242.55L118.69, 225.03C130.49, 279.18 180.37, 320 240, 320C299.63, 320 349.51, 279.18 361.31, 225.02L341.28, 242.54C338.04, 245.35 332.99, 245.23 329.97, 241.79A8.002 8.002 0 0 1 330.72, 230.51L363.89, 201.49C363.89, 201.13 364, 200.8 364, 200.44C364, 189.5 362.37, 178.78 359.35, 168.5L341.66, 186.19C338.53, 189.32 333.47, 189.32 330.35, 186.19C327.23, 183.07 327.23, 178 330.35, 174.88L353.06, 152.17C342.28, 129.11 324.02, 109.36 300.19, 96.49C298.6, 95.61 296.6, 95.94 295.35, 97.29A4.049 4.049 0 0 0 294.91, 102.17C301.22, 112.08 304.57, 123.22 304.57, 134.42C304.57, 148.7 299.38, 162.23 289.57, 173.54C288.38, 174.93 288.26, 176.95 289.32, 178.45C296.32, 188.56 300.01, 200.36 300.01, 212.54C300.01, 241.28 279.68, 265.32 252.65, 271.15L252, 271.15L252, 243.33L258.34, 249.67C259.9, 251.23 261.93, 252.01 264, 252.01C266.07, 252.01 268.09, 251.23 269.66, 249.67C272.78, 246.55 272.78, 241.48 269.66, 238.36L259.31, 228L272, 228C276.41, 228 280, 224.42 280, 220C280, 215.58 276.41, 212 272, 212L259.31, 212L269.65, 201.66C272.77, 198.54 272.77, 193.47 269.65, 190.35C266.53, 187.23 261.46, 187.23 258.34, 190.35L252, 196.69L252, 100C252, 93.38 246.62, 88 240, 88C233.38, 88 228, 93.38 228, 100L228, 196.69L221.66, 190.35C218.54, 187.23 213.47, 187.23 210.35, 190.35C207.23, 193.47 207.23, 198.54 210.35, 201.66L220.69, 212L208, 212C203.59, 212 200, 215.58 200, 220C200, 224.42 203.59, 228 208, 228L220.69, 228L210.35, 238.34C207.23, 241.46 207.23, 246.53 210.35, 249.65C211.91, 251.21 213.94, 251.99 216.01, 251.99C218.08, 251.99 220.1, 251.21 221.67, 249.65L228.01, 243.31L228.01, 271.13L227.37, 271.13C200.34, 265.3 180.01, 241.26 180.01, 212.52C180.01, 200.33 183.7, 188.54 190.7, 178.43C191.76, 176.93 191.64, 174.91 190.45, 173.52C180.64, 162.21 175.45, 148.68 175.45, 134.4C175.45, 123.2 178.79, 112.06 185.11, 102.15C186.08, 100.6 185.89, 98.6 184.67, 97.27C183.42, 95.93 181.42, 95.6 179.83, 96.47C155.99, 109.33 137.74, 129.09 126.96, 152.15L149.67, 174.86C152.79, 177.98 152.79, 183.05 149.67, 186.17C146.54, 189.3 141.48, 189.3 138.36, 186.17L120.67, 168.48C117.65, 178.76 116.02, 189.48 116.02, 200.42C116.02, 200.78 116.13, 201.12 116.13, 201.47L149.28, 230.52z" fill="#727272" fill-opacity="1" class="Black" />
  </g>
</svg>