<?xml version='1.0' encoding='UTF-8'?>
<svg viewBox="-3.7538 -2.0049 32 31.995" xmlns="http://www.w3.org/2000/svg">
  <g transform="matrix(0.9994, 0, 0, 0.9994, 0, 0)">
    <g transform="matrix(0.0547, 0, 0, 0.0547, 0, 0)">
      <path d="M416, 352L248, 352L248, 221.28A112 112 0 1 0 200, 221.28L200, 352L128, 352L128, 336A16 16 0 0 0 112, 320L80, 320A16 16 0 0 0 64, 336L64, 352L32, 352A32 32 0 0 0 0, 384L0, 480A32 32 0 0 0 32, 512L416, 512A32 32 0 0 0 448, 480L448, 384A32 32 0 0 0 416, 352zM160, 112A64 64 0 1 1 224, 176A64.07 64.07 0 0 1 160, 112zM400, 464L48, 464L48, 400L400, 400z" fill="#727272" fill-opacity="1" class="Black" />
    </g>
  </g>
</svg>