<?xml version='1.0' encoding='UTF-8'?>
<svg viewBox="-2.8722 -2 32 32" xmlns="http://www.w3.org/2000/svg">
  <g transform="matrix(0.0547, 0, 0, 0.0547, 0, 0)">
    <path d="M304, 288L144, 288A32 32 0 0 0 112, 320L112, 384A32 32 0 0 0 144, 416L304, 416A32 32 0 0 0 336, 384L336, 320A32 32 0 0 0 304, 288zM448, 168A72 72 0 0 0 376, 96A70.93 70.93 0 0 0 321.42, 121.77L311.01, 108.77A32 32 0 0 1 304.01, 88.77L304.01, 48A16 16 0 0 0 320.01, 32L320.01, 16A16 16 0 0 0 304, 0L144, 0A16 16 0 0 0 128, 16L128, 32A16 16 0 0 0 144, 48L144, 88.78A32 32 0 0 1 137, 108.78L60.05, 204.94A128 128 0 0 0 32.05, 284.94L32.05, 448A64 64 0 0 0 96.05, 512L352, 512A64 64 0 0 0 416, 448L416, 284.9A127.59 127.59 0 0 0 404.9, 233.9A72 72 0 0 0 448, 168zM368, 448A16 16 0 0 1 352, 464L96, 464A16 16 0 0 1 80, 448L80, 284.9A80.32 80.32 0 0 1 97.53, 234.9L174.47, 138.73A80.31 80.31 0 0 0 192, 88.73L192, 48L256, 48L256, 88.78A80.31 80.31 0 0 0 273.53, 138.78L350.47, 234.95A80.34 80.34 0 0 1 368, 284.95zM377.38, 191.72L353.29, 161.62C356.14, 151.54 365, 144 376, 144A23.88 23.88 0 0 1 377.38, 191.72z" fill="#727272" fill-opacity="1" class="Black" />
  </g>
</svg>