<?xml version='1.0' encoding='UTF-8'?>
<svg viewBox="-1.9998 -3.5563 31.9975 32" xmlns="http://www.w3.org/2000/svg">
  <g transform="matrix(0.0486, 0, 0, 0.0486, 0, 0)">
    <path d="M554.12, 83.51L318.36, 4.93C308.51, 1.64 298.25, 0 288, 0C277.75, 0 267.49, 1.64 257.64, 4.93L21.88, 83.51A32.006 32.006 0 0 0 0, 113.87L0, 424.67C0, 439.67 10.42, 452.65 25.06, 455.91L267.18, 509.71C274.04, 511.24 281.02, 512 288.01, 512C295, 512 301.98, 511.24 308.84, 509.71L550.96, 455.91C565.6, 452.66 576.02, 439.67 576.02, 424.67L576.02, 113.87C576, 100.1 567.19, 87.87 554.12, 83.51zM528, 248.87L458.11, 229.81C453.02, 228.42 448, 232.25 448, 237.53L448, 254.11C448, 257.72 450.41, 260.88 453.89, 261.83L528, 282.04L528, 411.84L298.41, 462.86C294.31, 463.77 286.75, 464.89 277.58, 462.86L48, 411.84L48, 282.04L122.11, 261.83A7.997 7.997 0 0 0 128, 254.11L128, 237.53C128, 232.25 122.98, 228.42 117.89, 229.81L48, 248.87L48, 214.24L276.56, 145.69C283.97, 143.41 291.94, 143.44 299.47, 145.69L528, 214.24L528, 248.87zM528, 164.13L313.31, 99.72C296.75, 94.75 279.28, 94.72 262.72, 99.72L48, 164.13L48, 125.4L272.82, 50.46C278.5, 48.56 289.86, 46.02 303.18, 50.46L528, 125.4L528, 164.13zM261.89, 190.54L165.89, 216.72A7.997 7.997 0 0 0 160, 224.44L160, 241.02C160, 246.3 165.02, 250.13 170.11, 248.74L266.11, 222.56A7.997 7.997 0 0 0 272, 214.84L272, 198.27C272, 192.98 266.98, 189.15 261.89, 190.54zM309.89, 222.55L405.89, 248.73C410.98, 250.12 416, 246.29 416, 241.01L416, 224.43C416, 220.82 413.59, 217.66 410.11, 216.71L314.11, 190.53C309.02, 189.14 304, 192.97 304, 198.25L304, 214.82A8 8 0 0 0 309.89, 222.55z" fill="#727272" fill-opacity="1" class="Black" />
  </g>
</svg>