<?xml version='1.0' encoding='UTF-8'?>
<svg viewBox="-1.258 -4.2079 31.995 32" xmlns="http://www.w3.org/2000/svg">
  <g transform="matrix(0.9991, 0, 0, 0.9991, 0, 0)">
    <g transform="matrix(0.0461, 0, 0, 0.0461, 0, 0)">
      <path d="M416.54, 0L399.54, 0A8 8 0 0 0 392, 5.32L215.72, 501.32A8 8 0 0 0 223.27, 512L240.27, 512A8 8 0 0 0 247.81, 506.68L424.1, 10.68A8 8 0 0 0 416.54, 0zM622.79, 393.94L518.88, 105.94A16 16 0 0 0 504.07, 96L455.93, 96A16 16 0 0 0 441.12, 105.94L337.21, 393.94A16 16 0 0 0 352, 416L377.92, 416A16 16 0 0 0 392.73, 406.06L411.83, 352L548.17, 352L567.25, 406.06A16 16 0 0 0 582.06, 416L608, 416A16 16 0 0 0 622.79, 393.94zM434.42, 288L480, 158.84L525.59, 288zM288, 96L262.06, 96A16 16 0 0 0 247.25, 105.94L160, 353.16L72.75, 105.94A16 16 0 0 0 57.94, 96L32, 96A16 16 0 0 0 17.19, 118.06L121.1, 406.06A16 16 0 0 0 135.93, 416L184.07, 416A16 16 0 0 0 198.88, 406.06L302.79, 118.06A16 16 0 0 0 288, 96z" fill="#727272" fill-opacity="1" class="Black" />
    </g>
  </g>
</svg>