<?xml version='1.0' encoding='UTF-8'?>
<svg viewBox="-2 -2 32 32" xmlns="http://www.w3.org/2000/svg">
  <g transform="matrix(0.0547, 0, 0, 0.0547, 0, 0)">
    <path d="M313.5, 153.27C301.01, 165.76 301.01, 186.01 313.5, 198.5C325.99, 210.99 346.24, 210.99 358.73, 198.5C371.22, 186.01 371.22, 165.76 358.73, 153.27C346.24, 140.78 325.99, 140.78 313.5, 153.27zM377.46, 89.31C364.97, 101.8 364.97, 122.05 377.46, 134.54C389.95, 147.03 410.2, 147.03 422.69, 134.54C435.18, 122.05 435.18, 101.8 422.69, 89.31C410.2, 76.82 389.95, 76.82 377.46, 89.31zM448.04, 0L288.15, 0C252.83, 0 224.19, 28.64 224.19, 63.96L224.19, 223.85C224.19, 232.71 226, 241.15 229.26, 248.82L4.68, 473.4C-1.56, 479.64 -1.56, 489.77 4.68, 496.01L15.98, 507.31C22.22, 513.55 32.35, 513.55 38.59, 507.31L77.38, 468.52L115.69, 506.83C121.93, 513.07 132.06, 513.07 138.3, 506.83L181.43, 463.7C187.67, 457.46 187.67, 447.33 181.43, 441.09L143.12, 402.78L173.98, 371.92L213.1, 411.04C219.34, 417.29 229.47, 417.29 235.71, 411.04L251.47, 395.28C257.71, 389.04 257.71, 378.91 251.47, 372.67L212.35, 333.55L263.16, 282.74A63.69 63.69 0 0 0 288.13, 287.81L448.02, 287.81C483.34, 287.81 511.98, 259.17 511.98, 223.85L511.98, 63.96C512, 28.64 483.37, 0 448.04, 0zM464.03, 223.85C464.03, 232.67 456.86, 239.84 448.04, 239.84L288.15, 239.84C279.33, 239.84 272.16, 232.67 272.16, 223.85L272.16, 63.96C272.16, 55.14 279.33, 47.97 288.15, 47.97L448.04, 47.97C456.86, 47.97 464.03, 55.14 464.03, 63.96L464.03, 223.85z" fill="#727272" fill-opacity="1" class="Black" />
  </g>
</svg>