<?xml version='1.0' encoding='UTF-8'?>
<svg viewBox="-2 -3.554 32 32" xmlns="http://www.w3.org/2000/svg">
  <g transform="matrix(0.0486, 0, 0, 0.0486, 0, 0)">
    <path d="M528, 64L48, 64C21.49, 64 0, 85.49 0, 112L0, 400C0, 426.51 21.49, 448 48, 448L528, 448C554.51, 448 576, 426.51 576, 400L576, 112C576, 85.49 554.51, 64 528, 64zM536, 400C536, 404.411 532.411, 408 528, 408L48, 408C43.589, 408 40, 404.411 40, 400L40, 112C40, 107.589 43.589, 104 48, 104L528, 104C532.411, 104 536, 107.589 536, 112L536, 400zM170, 270L170, 242C170, 235.373 164.627, 230 158, 230L130, 230C123.373, 230 118, 235.373 118, 242L118, 270C118, 276.627 123.373, 282 130, 282L158, 282C164.627, 282 170, 276.627 170, 270zM266, 270L266, 242C266, 235.373 260.627, 230 254, 230L226, 230C219.373, 230 214, 235.373 214, 242L214, 270C214, 276.627 219.373, 282 226, 282L254, 282C260.627, 282 266, 276.627 266, 270zM362, 270L362, 242C362, 235.373 356.627, 230 350, 230L322, 230C315.373, 230 310, 235.373 310, 242L310, 270C310, 276.627 315.373, 282 322, 282L350, 282C356.627, 282 362, 276.627 362, 270zM458, 270L458, 242C458, 235.373 452.627, 230 446, 230L418, 230C411.373, 230 406, 235.373 406, 242L406, 270C406, 276.627 411.373, 282 418, 282L446, 282C452.627, 282 458, 276.627 458, 270zM122, 352L122, 324C122, 317.373 116.627, 312 110, 312L82, 312C75.373, 312 70, 317.373 70, 324L70, 352C70, 358.627 75.373, 364 82, 364L110, 364C116.627, 364 122, 358.627 122, 352zM506, 352L506, 324C506, 317.373 500.627, 312 494, 312L466, 312C459.373, 312 454, 317.373 454, 324L454, 352C454, 358.627 459.373, 364 466, 364L494, 364C500.627, 364 506, 358.627 506, 352zM122, 188L122, 160C122, 153.373 116.627, 148 110, 148L82, 148C75.373, 148 70, 153.373 70, 160L70, 188C70, 194.627 75.373, 200 82, 200L110, 200C116.627, 200 122, 194.627 122, 188zM218, 188L218, 160C218, 153.373 212.627, 148 206, 148L178, 148C171.373, 148 166, 153.373 166, 160L166, 188C166, 194.627 171.373, 200 178, 200L206, 200C212.627, 200 218, 194.627 218, 188zM314, 188L314, 160C314, 153.373 308.627, 148 302, 148L274, 148C267.373, 148 262, 153.373 262, 160L262, 188C262, 194.627 267.373, 200 274, 200L302, 200C308.627, 200 314, 194.627 314, 188zM410, 188L410, 160C410, 153.373 404.627, 148 398, 148L370, 148C363.373, 148 358, 153.373 358, 160L358, 188C358, 194.627 363.373, 200 370, 200L398, 200C404.627, 200 410, 194.627 410, 188zM506, 188L506, 160C506, 153.373 500.627, 148 494, 148L466, 148C459.373, 148 454, 153.373 454, 160L454, 188C454, 194.627 459.373, 200 466, 200L494, 200C500.627, 200 506, 194.627 506, 188zM408, 346L408, 330C408, 323.373 402.627, 318 396, 318L180, 318C173.373, 318 168, 323.373 168, 330L168, 346C168, 352.627 173.373, 358 180, 358L396, 358C402.627, 358 408, 352.627 408, 346z" fill="#727272" fill-opacity="1" class="Black" />
  </g>
</svg>