<?xml version='1.0' encoding='UTF-8'?>
<svg viewBox="-1.9975 -4.7958 32 32" xmlns="http://www.w3.org/2000/svg">
  <g transform="matrix(0.9989, 0, 0, 0.9989, 0, 0)">
    <g transform="matrix(0.0438, 0, 0, 0.0438, 0, 0)">
      <path d="M273.01, 217.61L234.24, 197.25C237.11, 193.87 240.08, 191 242.66, 188.78C282.57, 154.43 297.98, 85.78 251.6, 35.65C210.93, -8.3 140.84, -12.13 95.36, 27.05C14.53, 96.69 -18.2, 199.6 9.9, 295.58C34.19, 379.41 101.95, 383.96 119.52, 383.96C141.75, 383.96 190.17, 375.76 217.17, 327.51C231, 302.77 234.28, 274.27 226.58, 247.26L251.52, 260.56C254.24, 261.94 255.96, 264.65 255.96, 267.72L255.99, 496C255.99, 504.84 263.16, 512 271.99, 512L288, 512C296.84, 512 304, 504.83 304, 496L303.98, 267.72C303.98, 246.39 292.14, 227.2 273.01, 217.61zM211.33, 152.39C199.99, 162.15 161.5, 194.7 180.32, 259.85C191.85, 299.04 161.75, 326.83 136.93, 333.58C103.33, 342.71 68, 323.2 58.85, 292.04C31.67, 198.26 62.42, 118.8 126.68, 63.41C153.98, 39.91 194.02, 44.12 216.33, 68.24C239.06, 92.78 237.04, 130.21 211.33, 152.39zM544.64, 27.05C499.16, -12.13 429.08, -8.3 388.41, 35.65C342.03, 85.77 357.44, 154.43 397.35, 188.78A79.29 79.29 0 0 1 405.77, 197.25L367, 217.61C347.87, 227.21 336.02, 246.4 336.02, 267.72L336, 496C336, 504.84 343.17, 512 352, 512L368.01, 512C376.85, 512 384.01, 504.83 384.01, 496L384.03, 267.72C384.03, 264.66 385.75, 261.94 388.47, 260.56L413.41, 247.26C405.71, 274.27 408.99, 302.77 422.82, 327.51C449.82, 375.76 498.24, 383.96 520.47, 383.96C538.05, 383.96 605.8, 379.41 630.09, 295.58C658.2, 199.6 625.47, 96.69 544.64, 27.05zM581.15, 292.05C571.99, 323.21 536.67, 342.72 503.07, 333.59C478.25, 326.84 448.15, 299.05 459.68, 259.86C478.5, 194.71 440.01, 162.16 428.67, 152.4C402.96, 130.22 400.94, 92.79 423.67, 68.26C445.98, 44.14 486.02, 39.93 513.32, 63.43C577.58, 118.81 608.33, 198.26 581.15, 292.05z" fill="#727272" fill-opacity="1" class="Black" />
    </g>
  </g>
</svg>