<?xml version='1.0' encoding='UTF-8'?>
<svg viewBox="-1.9999 -4.8004 32 32" xmlns="http://www.w3.org/2000/svg">
  <g transform="matrix(1.0011, 0, 0, 1.0011, 0, 0)">
    <g transform="matrix(0.0437, 0, 0, 0.0437, 0, 0)">
      <path d="M608, 0L345.5, 0C330.6, 0 317.7, 10.3 314.3, 24.8C314.3, 24.8 235.1, 369.4 235, 371.1L146.7, 459.4C136.9, 469.2 120.1, 462.3 120.1, 448.4L120.1, 319.3L167.2, 349.4C177.8, 356.2 192.1, 348.9 192.1, 336.6L192.1, 271.3C192.1, 259.1 177.9, 251.8 167.2, 258.5L120, 288.7L120, 224C120, 175.4 80.6, 136 32, 136L16, 136C7.2, 136 0, 143.2 0, 152L0, 168C0, 176.8 7.2, 184 16, 184L32, 184C54.1, 184 72, 201.9 72, 224L72, 288.7L24.9, 258.6C14.2, 251.8 0, 259.1 0, 271.3L0, 336.6C0, 348.8 14.2, 356.1 24.9, 349.4L72, 319.3L72, 443.3C72, 459.8 77, 476.3 87.7, 489C114.2, 520.5 156.7, 517.3 180.6, 493.3L268.9, 405C270.6, 404.9 615.2, 325.7 615.2, 325.7C629.7, 322.4 640, 309.4 640, 294.5L640, 32C640, 14.3 625.7, 0 608, 0zM592, 281.8L288, 352L475, 165L358.2, 48L592, 48L475.1, 164.9z" fill="#727272" fill-opacity="1" class="Black" />
    </g>
  </g>
</svg>