<?xml version='1.0' encoding='UTF-8'?>
<svg viewBox="-2 -3.554 32 32" xmlns="http://www.w3.org/2000/svg">
  <g transform="matrix(0.0486, 0, 0, 0.0486, 0, 0)">
    <path d="M575.83, 217.98C572.66, 157.41 518.3, 112 457.65, 112L448.28, 112C395.45, 112 344.02, 95.75 300.54, 65.76C269.69, 44.48 232.32, 32 191.99, 32C80.36, 32 -0.05, 121.84 0, 224C0.04, 294.95 38.68, 356.8 95.99, 390.01L95.99, 464C95.99, 472.84 103.15, 480 111.99, 480L127.99, 480C136.83, 480 143.99, 472.84 143.99, 464L143.99, 409.74C159.36, 413.7 175.39, 416 191.99, 416C197.43, 416 202.67, 415.27 207.99, 414.82L207.99, 464C207.99, 472.84 215.15, 480 223.99, 480L239.99, 480C248.82, 480 255.99, 472.84 255.99, 464L255.99, 404.54C270.23, 399.48 283.88, 393.17 296.33, 385.06C342.08, 355.25 393.88, 336 448.48, 336L463.99, 336C466.58, 336 468.99, 335.39 471.54, 335.21L545.96, 471.65C548.8, 476.88 554.24, 479.99 559.99, 479.99C568.4, 479.99 575.99, 473.22 575.99, 463.99C575.99, 208.04 576.06, 222.28 575.83, 217.98zM96.33, 390.21C96.34, 390.21 96.34, 390.22 96.35, 390.22C96.34, 390.27 96.34, 390.26 96.33, 390.21zM463.99, 288L448.48, 288C388.03, 288 328.02, 307.12 270.13, 344.84C246.88, 359.99 219.86, 368 191.99, 368C114.24, 368 47.81, 305.12 47.96, 224C48.11, 140.29 114.64, 80 191.99, 80C221.2, 80 249.31, 88.74 273.28, 105.27C325.2, 141.07 385.71, 160 448.28, 160L457.65, 160C494.64, 160 526.15, 187.13 527.9, 220.49C529.85, 257.75 500.29, 288 463.99, 288zM543.99, 401.25L504.12, 328.17C519.24, 322.34 532.86, 313.57 543.99, 302.19L543.99, 401.25zM463.99, 200C450.74, 200 439.99, 210.74 439.99, 224C439.99, 237.25 450.74, 248 463.99, 248C477.24, 248 487.99, 237.25 487.99, 224C487.99, 210.74 477.24, 200 463.99, 200z" fill="#727272" fill-opacity="1" class="Black" />
  </g>
</svg>