<?xml version='1.0' encoding='UTF-8'?>
<svg viewBox="-2 0 32 32" xmlns="http://www.w3.org/2000/svg">
  <g transform="matrix(0.0625, 0, 0, 0.0625, 0, 0)">
    <path d="M440, 432L367.09, 432L183.81, 50.15A32.01 32.01 0 0 0 154.96, 32L8, 32C3.58, 32 0, 35.58 0, 40L0, 72C0, 76.42 3.58, 80 8, 80L144.91, 80L153.99, 98.92L1.31, 457.7C-3.21, 468.25 4.53, 480 16.02, 480L33.43, 480C39.83, 480 45.61, 476.19 48.14, 470.3L182.15, 157.6L328.19, 461.85A31.998 31.998 0 0 0 357.04, 480L440, 480C444.42, 480 448, 476.42 448, 472L448, 440C448, 435.58 444.42, 432 440, 432z" fill="#727272" fill-opacity="1" class="Black" />
  </g>
</svg>