<?xml version='1.0' encoding='UTF-8'?>
<svg viewBox="-3.7492 -1.9998 32 31.9975" xmlns="http://www.w3.org/2000/svg">
  <g transform="matrix(0.0547, 0, 0, 0.0547, 0, 0)">
    <path d="M445.5, 237.8L368, 21.8C363.3, 8.6 352.4, 0 340.4, 0L120.6, 0C109.2, 0 98.8, 7.7 93.6, 19.9L3.2, 235.9C-6.8, 259.8 7.8, 288 30.2, 288L119.4, 288C94.7, 323.1 80, 366.5 80, 401.6C80, 434.3 92.8, 465.8 116, 490.3C129, 504.1 147.8, 512 167.5, 512L280.5, 512C300.2, 512 319, 504.1 332, 490.3C355.2, 465.8 368, 434.2 368, 401.6C368, 366.5 353.3, 323.1 328.6, 288L417.8, 288C439.5, 288 454.1, 261.6 445.5, 237.8zM320, 401.6C320, 422.9 311.3, 442.3 297.1, 457.3C292.8, 461.8 286.7, 464 280.5, 464L167.5, 464C161.3, 464 155.1, 461.8 150.9, 457.3C136.7, 442.3 128, 422.9 128, 401.6C128, 366.9 150.8, 314.2 183.6, 288L264.3, 288C297.2, 314.2 320, 366.9 320, 401.6zM53.5, 240L133.9, 48L326.5, 48L395.4, 240L53.5, 240z" fill="#727272" fill-opacity="1" class="Black" />
  </g>
</svg>