<?xml version='1.0' encoding='UTF-8'?>
<svg viewBox="-2 -2 32 32" xmlns="http://www.w3.org/2000/svg">
  <g transform="matrix(0.0547, 0, 0, 0.0547, 0, 0)">
    <path d="M496, 464L480, 464L480, 384C480, 375.2 472.8, 368 464, 368L448, 368L448, 256L464, 256C472.8, 256 480, 248.8 480, 240L480, 224C480, 215.2 472.8, 208 464, 208L447.2, 208C439.7, 117.6 369.3, 44.9 280, 33.7L280, 16C280, 7.2 272.8, 0 264, 0L248, 0C239.2, 0 232, 7.2 232, 16L232, 33.7C142.7, 44.9 72.3, 117.6 64.8, 208L48, 208C39.2, 208 32, 215.2 32, 224L32, 240C32, 248.8 39.2, 256 48, 256L64, 256L64, 368L48, 368C39.2, 368 32, 375.2 32, 384L32, 464L16, 464C7.2, 464 0, 471.2 0, 480L0, 496C0, 504.8 7.2, 512 16, 512L496, 512C504.8, 512 512, 504.8 512, 496L512, 480C512, 471.2 504.8, 464 496, 464zM256, 80C329.9, 80 390.3, 136.2 398.4, 208L113.6, 208C121.7, 136.2 182.1, 80 256, 80zM400, 256L400, 368L336, 368L336, 256L400, 256zM288, 256L288, 368L224, 368L224, 256L288, 256zM112, 256L176, 256L176, 368L112, 368L112, 256zM432, 464L80, 464L80, 416L432, 416L432, 464z" fill="#727272" fill-opacity="1" class="Black" />
  </g>
</svg>