<?xml version='1.0' encoding='UTF-8'?>
<svg viewBox="-1.9999 -4.7979 32 31.9975" xmlns="http://www.w3.org/2000/svg">
  <g transform="matrix(1.0011, 0, 0, 1.0011, 0, 0)">
    <g transform="matrix(0.0437, 0, 0, 0.0437, 0, 0)">
      <path d="M160.3, 203.8L159.8, 203.8C159.8, 203.8 155.5, 224.7 152, 236.8L141, 274.1L178.9, 274.1L168.2, 236.8C164.6, 224.7 160.3, 203.8 160.3, 203.8zM616, 96L24, 96C10.7, 96 0, 106.7 0, 120L0, 392C0, 405.3 10.7, 416 24, 416L616, 416C629.3, 416 640, 405.3 640, 392L640, 120C640, 106.7 629.3, 96 616, 96zM233.2, 352L210.6, 352A12 12 0 0 1 199.1, 343.4L189.8, 311.7L129.9, 311.7L120.8, 343.3C119.3, 348.4 114.6, 352 109.3, 352L86.8, 352C78.6, 352 72.8, 343.9 75.4, 336.1L132.5, 168.1C134.2, 163.2 138.7, 160 143.9, 160L176.1, 160C181.2, 160 185.8, 163.3 187.5, 168.1L244.6, 336.1C247.2, 343.9 241.4, 352 233.2, 352zM600, 376L320, 376L320, 136L600, 136zM372, 228L482.8, 228C476.5, 240.8 467.7, 253.9 456.9, 266.5C450.3, 258.7 444.1, 250.7 438.6, 242.5C435.1, 237.2 428, 235.6 422.5, 238.9L408.8, 247.1C402.9, 250.6 401.2, 258.4 405, 264.1C411.5, 273.8 419.4, 284.2 428.5, 294.7C419.5, 302.4 409.9, 309.5 399.8, 315.9C394.4, 319.3 392.7, 326.4 395.9, 331.9L403.8, 345.8C407.2, 351.7 414.8, 353.7 420.6, 350C433.1, 342.1 445.2, 333 456.6, 323.2C467.3, 332.8 478.9, 341.8 491.2, 349.8C497, 353.5 504.8, 351.7 508.2, 345.7L516.2, 331.8C519.3, 326.3 517.7, 319.3 512.4, 315.8C503.2, 309.8 494, 302.7 485.2, 294.9C486.7, 293.2 488.1, 291.6 489.5, 289.9C506.6, 269.3 519.1, 248.2 526.3, 227.9L540, 227.9C546.6, 227.9 552, 222.5 552, 215.9L552, 199.9C552, 193.3 546.6, 187.9 540, 187.9L476, 187.9L476, 171.9C476, 165.3 470.6, 159.9 464, 159.9L448, 159.9C441.4, 159.9 436, 165.3 436, 171.9L436, 187.9L372, 187.9C365.4, 187.9 360, 193.3 360, 199.9L360, 215.9C360, 222.6 365.4, 228 372, 228z" fill="#727272" fill-opacity="1" class="Black" />
    </g>
  </g>
</svg>