<?xml version='1.0' encoding='UTF-8'?>
<svg viewBox="-2 -4.7992 32 32" xmlns="http://www.w3.org/2000/svg">
  <g transform="matrix(0.9988, 0, 0, 0.9988, 0, 0)">
    <g transform="matrix(0.0438, 0, 0, 0.0438, 0, 0)">
      <path d="M624, 352L576, 352L576, 64C576, 28.8 547.2, 0 512, 0L128, 0C92.8, 0 64, 28.8 64, 64L64, 352L16, 352C7.2, 352 0, 359.2 0, 368L0, 416C0, 468.8 43.2, 512 96, 512L544, 512C596.8, 512 640, 468.8 640, 416L640, 368C640, 359.2 632.8, 352 624, 352zM112, 64C112, 55.33 119.33, 48 128, 48L512, 48C520.67, 48 528, 55.33 528, 64L528, 352L112, 352L112, 64zM592, 416C592, 442.47 570.47, 464 544, 464L96, 464C69.53, 464 48, 442.47 48, 416L48, 400L228.9, 400C234.47, 409.39 244.28, 416 256, 416L384, 416C395.72, 416 405.52, 409.39 411.1, 400L592, 400L592, 416zM277.66, 261.65L288.97, 250.34C295.22, 244.09 295.22, 233.96 288.97, 227.71L253.25, 192L288.96, 156.28C295.21, 150.03 295.21, 139.9 288.96, 133.65L277.65, 122.34C271.4, 116.09 261.27, 116.09 255.02, 122.34L196.68, 180.68C190.43, 186.93 190.43, 197.06 196.68, 203.31L255.02, 261.65C261.27, 267.9 271.41, 267.9 277.66, 261.65zM351.04, 250.35L362.35, 261.66C368.6, 267.91 378.73, 267.91 384.98, 261.66L443.32, 203.32C449.57, 197.07 449.57, 186.94 443.32, 180.69L384.98, 122.35C378.73, 116.1 368.6, 116.1 362.35, 122.35L351.04, 133.66C344.79, 139.91 344.79, 150.04 351.04, 156.29L386.75, 192L351.04, 227.72C344.79, 233.97 344.79, 244.1 351.04, 250.35z" fill="#727272" fill-opacity="1" class="Black" />
    </g>
  </g>
</svg>