<?xml version='1.0' encoding='UTF-8'?>
<svg viewBox="-2 -4.7992 32 32" xmlns="http://www.w3.org/2000/svg">
  <g transform="matrix(0.9988, 0, 0, 0.9988, 0, 0)">
    <g transform="matrix(0.0438, 0, 0, 0.0438, 0, 0)">
      <path d="M624, 352L576, 352L576, 64C576, 28.8 547.2, 0 512, 0L128, 0C92.8, 0 64, 28.8 64, 64L64, 352L16, 352C7.2, 352 0, 359.2 0, 368L0, 416C0, 468.8 43.2, 512 96, 512L544, 512C596.8, 512 640, 468.8 640, 416L640, 368C640, 359.2 632.8, 352 624, 352zM112, 64C112, 55.33 119.33, 48 128, 48L512, 48C520.67, 48 528, 55.33 528, 64L528, 352L112, 352L112, 64zM592, 416C592, 442.47 570.47, 464 544, 464L96, 464C69.53, 464 48, 442.47 48, 416L48, 400L228.9, 400C234.47, 409.39 244.28, 416 256, 416L384, 416C395.72, 416 405.52, 409.39 411.1, 400L592, 400L592, 416z" fill="#727272" fill-opacity="1" class="Black" />
    </g>
  </g>
</svg>