<?xml version='1.0' encoding='UTF-8'?>
<svg viewBox="-2 -4.7992 32 32" xmlns="http://www.w3.org/2000/svg">
  <g transform="matrix(0.9988, 0, 0, 0.9988, 0, 0)">
    <g transform="matrix(0.0438, 0, 0, 0.0438, 0, 0)">
      <path d="M624, 352L576, 352L576, 64A64.19 64.19 0 0 0 512, 0L128, 0A64.19 64.19 0 0 0 64, 64L64, 352L16, 352A16 16 0 0 0 0, 368L0, 416C0, 468.8 43.2, 512 96, 512L544, 512C596.8, 512 640, 468.8 640, 416L640, 368A16 16 0 0 0 624, 352zM112, 64A16.22 16.22 0 0 1 128, 48L512, 48A16.22 16.22 0 0 1 528, 64L528, 352L112, 352zM592, 416A48.05 48.05 0 0 1 544, 464L96, 464A48.05 48.05 0 0 1 48, 416L48, 400L228.9, 400C234.47, 409.39 244.28, 416 256, 416L384, 416C395.72, 416 405.52, 409.39 411.1, 400L592, 400zM408, 160L352, 160L352, 104A8 8 0 0 0 344, 96L296, 96A8 8 0 0 0 288, 104L288, 160L232, 160A8 8 0 0 0 224, 168L224, 216A8 8 0 0 0 232, 224L288, 224L288, 280A8 8 0 0 0 296, 288L344, 288A8 8 0 0 0 352, 280L352, 224L408, 224A8 8 0 0 0 416, 216L416, 168A8 8 0 0 0 408, 160z" fill="#727272" fill-opacity="1" class="Black" />
    </g>
  </g>
</svg>