<?xml version='1.0' encoding='UTF-8'?>
<svg viewBox="-1.9998 -3.5563 31.9975 32" xmlns="http://www.w3.org/2000/svg">
  <g transform="matrix(0.0486, 0, 0, 0.0486, 0, 0)">
    <path d="M288, 0C126.5, 0 0, 78.48 0, 178.67C0, 227 29.62, 271.91 83.44, 305.27C87.61, 307.86 92.13, 310.39 96.88, 312.92C91.27, 353.81 132.43, 386.67 182.53, 383.37A82.41 82.41 0 0 1 186.32, 410.48C185.69, 440.42 160.1, 464 130.16, 464L48, 464A16 16 0 0 0 32, 480L32, 496A16 16 0 0 0 48, 512L130.06, 512C187.06, 512 234.06, 466 234.34, 408.93A125.05 125.05 0 0 0 227.63, 368.41A71.77 71.77 0 0 0 242.85, 354.93C257.73, 356.35 272.75, 357.33 288, 357.33C449.5, 357.33 576, 278.86 576, 178.67C576, 78.48 449.5, 0 288, 0zM288, 309.33C276.65, 309.33 265.54, 308.45 254.45, 307.57C247.26, 278.13 214.91, 255.9 176, 255.9C155.62, 255.9 137.23, 262.18 123.1, 272.22C118.2, 269.66 112.98, 267.11 108.75, 264.48C69.56, 240.19 48, 209.72 48, 178.67C48, 107.84 157.91, 48 288, 48C418.09, 48 528, 107.84 528, 178.67C528, 249.5 418.09, 309.33 288, 309.33z" fill="#727272" fill-opacity="1" class="Black" />
  </g>
</svg>