<?xml version='1.0' encoding='UTF-8'?>
<svg viewBox="-1.9999 -1.549 31.9975 32" xmlns="http://www.w3.org/2000/svg">
  <g transform="matrix(0.999, 0, 0, 0.999, 0, 0)">
    <g transform="matrix(0.0565, 0, 0, 0.0565, 0, 0)">
      <path d="M248, 8C111, 8 0, 119 0, 256C0, 393 111, 504 248, 504C385, 504 496, 393 496, 256C496, 119 385, 8 248, 8zM389.4, 397.4C351.6, 435.2 301.4, 456 248, 456C194.6, 456 144.4, 435.2 106.6, 397.4C68.8, 359.6 48, 309.4 48, 256C48, 202.6 68.8, 152.4 106.6, 114.6C144.4, 76.8 194.6, 56 248, 56C301.4, 56 351.6, 76.8 389.4, 114.6C427.2, 152.4 448, 202.6 448, 256C448, 309.4 427.2, 359.6 389.4, 397.4zM328, 224C345.7, 224 360, 209.7 360, 192C360, 174.3 345.7, 160 328, 160C310.3, 160 296, 174.3 296, 192C296, 209.7 310.3, 224 328, 224zM168, 224C185.7, 224 200, 209.7 200, 192C200, 174.3 185.7, 160 168, 160C150.3, 160 136, 174.3 136, 192C136, 209.7 150.3, 224 168, 224zM362.4, 288L133.6, 288C125.4, 288 119.1, 295 120.1, 303C127.6, 362.2 179, 408 241.2, 408L254.8, 408C317, 408 368.4, 362.2 375.9, 303C376.9, 295 370.6, 288 362.4, 288z" fill="#727272" fill-opacity="1" class="Black" />
    </g>
  </g>
</svg>