<?xml version='1.0' encoding='UTF-8'?>
<svg viewBox="-2.0011 -1.9998 32 31.9975" xmlns="http://www.w3.org/2000/svg">
  <g transform="matrix(0.0547, 0, 0, 0.0547, 0, 0)">
    <path d="M492.88, 354.58L413.19, 320L492.87, 285.42C505.03, 280.14 510.59, 266.01 505.34, 253.86C500.06, 241.69 485.96, 236.19 473.75, 241.39L256.53, 336.11L71.91, 256L242.41, 182.02C254.57, 176.74 260.13, 162.61 254.88, 150.46C249.6, 138.27 235.5, 132.79 223.29, 137.99L19.16, 226.56C7.53, 231.59 0, 243.16 0, 256C0, 268.84 7.53, 280.41 19.12, 285.42L98.82, 320L19.15, 354.56C7.53, 359.59 0, 371.16 0, 384.02C0, 396.86 7.53, 408.43 19.12, 413.44L237.4, 508.13A46.488 46.488 0 0 0 255.99, 512.01C262.33, 511.99 268.68, 510.71 274.58, 508.15L492.83, 413.46C504.45, 408.43 511.99, 396.87 511.99, 384.02C512, 371.16 504.47, 359.59 492.88, 354.58zM256.53, 464.11L71.91, 384L159.13, 346.16L237.41, 380.12C243.32, 382.7 249.66, 383.98 256, 383.98C262.34, 383.98 268.69, 382.7 274.59, 380.14L352.89, 346.16L440.18, 384.04L256.53, 464.11zM496, 88L424, 88L424, 16C424, 7.16 416.84, 0 408, 0L392, 0C383.16, 0 376, 7.16 376, 16L376, 88L304, 88C295.16, 88 288, 95.16 288, 104L288, 120C288, 128.84 295.16, 136 304, 136L376, 136L376, 208C376, 216.84 383.16, 224 392, 224L408, 224C416.84, 224 424, 216.84 424, 208L424, 136L496, 136C504.84, 136 512, 128.84 512, 120L512, 104C512, 95.16 504.84, 88 496, 88z" fill="#727272" fill-opacity="1" class="Black" />
  </g>
</svg>