<?xml version='1.0' encoding='UTF-8'?>
<svg viewBox="-1.9998 -2.0011 31.9975 32" xmlns="http://www.w3.org/2000/svg">
  <g transform="matrix(0.0547, 0, 0, 0.0547, 0, 0)">
    <path d="M512, 256.01C512, 243.15 504.47, 231.59 492.88, 226.57L413.19, 191.99L492.85, 157.42C504.47, 152.39 512.01, 140.83 512.01, 127.98C512.01, 115.13 504.48, 103.57 492.89, 98.56L274.66, 3.89C262.82, -1.28 249.22, -1.3 237.38, 3.87L19.16, 98.55C7.53, 103.58 0, 115.14 0, 127.99C0, 140.84 7.53, 152.4 19.12, 157.41L98.82, 191.99L19.15, 226.56C7.53, 231.58 0, 243.15 0, 256.01C0, 268.85 7.53, 280.42 19.12, 285.43L98.81, 320L19.16, 354.56C7.53, 359.59 0, 371.15 0, 384.01C0, 396.85 7.53, 408.42 19.12, 413.43L237.4, 508.12A46.488 46.488 0 0 0 255.99, 512C262.33, 511.98 268.68, 510.7 274.58, 508.14L492.83, 413.45C504.45, 408.42 511.99, 396.86 511.99, 384.01C511.99, 371.15 504.46, 359.59 492.87, 354.57L413.19, 320L492.84, 285.44C504.47, 280.41 512, 268.85 512, 256.01zM255.47, 47.89L255.5, 47.91L255.44, 47.91L255.47, 47.89zM256, 48.12L440.16, 128.01L256.53, 208.1L71.91, 127.99L256, 48.12zM440.19, 384.04L256.53, 464.11L71.91, 384L159.12, 346.16L237.41, 380.12A46.488 46.488 0 0 0 256, 384C262.34, 383.98 268.69, 382.7 274.59, 380.14L352.88, 346.17L440.19, 384.04zM256.53, 336.1L71.91, 255.99L159.13, 218.15L237.41, 252.11A46.488 46.488 0 0 0 256, 255.99C262.34, 255.97 268.69, 254.69 274.59, 252.13L352.88, 218.16L440.19, 256.04L256.53, 336.1z" fill="#727272" fill-opacity="1" class="Black" />
  </g>
</svg>