<?xml version='1.0' encoding='UTF-8'?>
<svg viewBox="-1.9975 -3.5555 32 32" xmlns="http://www.w3.org/2000/svg">
  <g transform="matrix(0.0486, 0, 0, 0.0486, 0, 0)">
    <path d="M546.2, 9.7C543.3, 3.2 537.6, 0 531.9, 0C526.6, 0 521.2, 2.8 517.9, 8.5C486.9, 62.4 431.4, 96 368, 96L288, 96C182, 96 96, 182 96, 288C96, 305.8 98.6, 322.9 103.1, 339.2C29, 403.7 1.8, 478.8 1.3, 480.2C-3, 492.7 3.6, 506.4 16.1, 510.7C30.1, 515.5 42.8, 506.9 46.6, 495.9C47, 494.8 67.6, 438.4 122.9, 385.8C160.5, 449 231.5, 487 308.4, 478.9C465.5, 467.5 576, 326.7 576, 154.3C576, 104.1 565.2, 52.1 546.2, 9.7zM303.4, 431.2C217.3, 440.3 172.8, 376.7 161.2, 354.7C208.6, 321.8 273.2, 296 360.1, 296C373.3, 296 384.1, 285.2 384.1, 272C384.1, 258.8 373.3, 248 360.1, 248C268.8, 248 199, 273.5 146.1, 307.4C145.2, 301 144.1, 294.6 144.1, 288C144.1, 208.6 208.7, 144 288.1, 144L368.1, 144C426, 144 479.7, 122 520.1, 83.1C525.3, 106.3 528.1, 130.6 528.1, 154.3C528, 305.3 434.2, 421.7 303.4, 431.2z" fill="#727272" fill-opacity="1" class="Black" />
  </g>
</svg>