<?xml version='1.0' encoding='UTF-8'?>
<svg viewBox="-2 -2 32 32" xmlns="http://www.w3.org/2000/svg">
  <g transform="matrix(0.0547, 0, 0, 0.0547, 0, 0)">
    <path d="M511.56, 208.08C509.25, 186.71 497.31, 167.09 478.82, 154.29C475.92, 152.28 472.96, 150.32 469.9, 148.54C481.69, 100.91 462.48, 73.75 450.47, 62.48C438.28, 49.57 411.12, 30.38 363.44, 42.09C361.69, 39.05 359.73, 36.09 357.73, 33.19C344.88, 14.7 325.27, 2.76 303.91, 0.44C282.92, -1.88 262.56, 5.02 246.66, 19.77C238.3, 27.53 232.72, 36.65 226.64, 46.54C223.61, 51.41 220.72, 56.35 217.82, 61.4C200.23, 49.58 180.87, 45.12 162.56, 48.71C142.42, 52.7 124.8, 66.31 113.01, 87C96.48, 115.84 98.7, 145.55 102.06, 171.12C91.74, 170.18 81.42, 171.6 71.87, 175.56C53.97, 183.03 40.63, 198.76 35.29, 218.7C31.21, 233.91 30.89, 251.34 34.35, 266.51C36.88, 277.39 40.77, 287.15 44.58, 296.6C47.2, 303.16 49.88, 309.71 51.75, 316.46C53.87, 324.1 53.56, 329.31 53.09, 330.66C40.78, 364.72 41.48, 397.34 54.12, 422.55L7.31, 469.39C-2.44, 479.14 -2.44, 494.95 7.31, 504.7C12.18, 509.56 18.59, 512 24.97, 512C31.35, 512 37.75, 509.56 42.63, 504.7L89.26, 458.07C114.16, 470.9 146.38, 471.5 181.28, 458.86C182.62, 458.36 187.86, 458.03 195.5, 460.2C202.27, 462.08 208.81, 464.77 215.39, 467.4C224.84, 471.17 234.6, 475.09 245.48, 477.6C252.43, 479.21 259.89, 480 267.34, 480C276.16, 480 285.05, 478.88 293.28, 476.68C313.27, 471.32 329.01, 457.96 336.47, 440.03C340.4, 430.52 341.86, 420.25 340.87, 409.91C366.59, 413.34 396.22, 415.49 425, 398.98C445.74, 387.15 459.33, 369.53 463.29, 349.39C466.91, 331.12 462.42, 311.72 450.63, 294.18C455.9, 291.13 461.36, 287.91 467.31, 284.23C475.39, 279.26 484.52, 273.64 492.26, 265.27C507.01, 249.38 513.87, 229.07 511.56, 208.08zM457.12, 232.74C453.85, 236.29 448.2, 239.76 440.28, 244.64C432.14, 249.68 423.75, 254.4 414.96, 259.36L378.01, 280.5L401.15, 308.67C403.99, 312.08 406.45, 315.05 408.85, 318.1C413.15, 323.63 417.92, 331.93 416.33, 340.1C414.71, 348.19 407.22, 353.99 401.24, 357.42C386.8, 365.67 370.49, 365.51 347.08, 362.43C338.57, 361.31 330.05, 360.47 320.42, 359.51L253.72, 352.53L287.49, 401.19C288.58, 402.7 289.33, 403.65 289.89, 404.64C293.35, 410.69 294.22, 416.89 292.23, 421.68C290.02, 427 284.84, 429.37 280.88, 430.44C273.24, 432.5 263.76, 432.72 256.21, 430.94C248.98, 429.27 241.31, 426.2 233.23, 422.96C225.03, 419.67 216.8, 416.43 208.38, 414.09C202.83, 412.53 194.19, 410.66 184.65, 410.66C178.29, 410.66 171.52, 411.5 165.04, 413.82C151.03, 418.9 138.3, 420.81 127.47, 419.88L336.5, 210.84C346.25, 201.09 346.25, 185.28 336.5, 175.53C326.75, 165.81 310.94, 165.81 301.19, 175.53L92.4, 384.31C91.4, 373.35 93.23, 360.6 98.15, 346.96C103.67, 331.71 101.08, 314.99 97.93, 303.65C95.59, 295.2 92.35, 286.99 89.04, 278.78C85.8, 270.67 82.74, 263.03 81.06, 255.79C79.35, 248.23 79.53, 238.76 81.59, 231.09C82.65, 227.15 85.02, 221.99 90.32, 219.79C95.15, 217.76 101.33, 218.64 107.31, 222.07C108.34, 222.68 109.31, 223.44 110.86, 224.55L159.47, 258.52L152.45, 191.34C151.51, 181.83 150.67, 173.38 149.55, 164.93C146.46, 141.56 146.31, 125.21 154.57, 110.77C158, 104.77 163.77, 97.29 171.85, 95.7C180.11, 94.03 188.35, 98.86 193.9, 103.18C197.11, 105.67 200.26, 108.29 203.88, 111.33L231.48, 134.09L252.5, 97.31C257.52, 88.41 262.29, 79.96 268.56, 69.78C272.24, 63.81 275.7, 58.16 279.26, 54.86C286.43, 48.23 293.95, 47.42 298.72, 48.05C306.42, 48.88 313.41, 53.3 318.36, 60.46C320.17, 63.06 322.04, 65.7 323.25, 68.47C331.02, 86.24 351.44, 95.36 370.77, 89.7C384.9, 85.57 404.17, 83.2 416.64, 96.34C428.8, 107.81 426.4, 127.07 422.28, 141.21C416.64, 160.56 425.77, 181 443.51, 188.74C446.35, 189.99 448.94, 191.83 451.49, 193.62C458.69, 198.61 463.12, 205.58 463.93, 213.26C464.51, 218.22 463.76, 225.59 457.12, 232.74z" fill="#727272" fill-opacity="1" class="Black" />
  </g>
</svg>