<?xml version='1.0' encoding='UTF-8'?>
<svg viewBox="-1.9975 -1.9975 32 32" xmlns="http://www.w3.org/2000/svg">
  <g transform="matrix(0.0547, 0, 0, 0.0547, 0, 0)">
    <path d="M484.112, 27.889C455.989, -0.233 416.108, -8.057 387.059, 8.865C347.604, 31.848 223.504, -41.111 91.196, 91.197C-41.277, 223.672 31.923, 347.472 8.866, 387.058C-8.056, 416.109 -0.234, 455.99 27.888, 484.112C56.023, 512.247 95.899, 520.05 124.945, 503.133C164.368, 480.163 288.502, 553.102 420.803, 420.804C553.277, 288.327 480.076, 164.527 503.134, 124.943C520.056, 95.893 512.234, 56.012 484.112, 27.889zM461.707, 100.783C422.907, 167.392 507.307, 266.418 386.862, 386.863C266.422, 507.306 167.387, 422.911 100.786, 461.706C78.107, 474.913 36.751, 434.465 50.293, 411.218C89.093, 344.609 4.693, 245.583 125.138, 125.138C245.573, 4.702 344.616, 89.086 411.219, 50.292C433.949, 37.052 475.224, 77.58 461.707, 100.783zM291.846, 109.519C293.216, 120.479 285.442, 130.476 274.481, 131.846C219.635, 138.701 138.702, 219.633 131.846, 274.481C130.473, 285.47 120.447, 293.215 109.52, 291.846C98.559, 290.476 90.785, 280.48 92.155, 269.52C101.317, 196.234 196.322, 101.305 269.52, 92.155C280.473, 90.787 290.476, 98.558 291.846, 109.519z" fill="#727272" fill-opacity="1" class="Black" />
  </g>
</svg>