<?xml version='1.0' encoding='UTF-8'?>
<svg viewBox="-3.2732 4.3692 32 31.995" xmlns="http://www.w3.org/2000/svg">
  <g transform="matrix(1.0006, 0, 0, 1.0006, 0, 0)">
    <g transform="matrix(0.0795, 0, 0, 0.0795, 0, 0)">
      <path d="M311.15, 373.06L77.04, 256L311.15, 138.94C319.05, 134.99 322.26, 125.38 318.31, 117.48L304, 88.85C300.05, 80.95 290.44, 77.74 282.53, 81.69L8.84, 218.53A16 16 0 0 0 0, 232.85L0, 279.16C0, 285.22 3.42, 290.76 8.84, 293.47L282.52, 430.31C290.42, 434.26 300.04, 431.06 303.99, 423.15L318.3, 394.52C322.26, 386.62 319.05, 377.01 311.15, 373.06z" fill="#727272" fill-opacity="1" class="Black" />
    </g>
  </g>
</svg>