<?xml version='1.0' encoding='UTF-8'?>
<svg viewBox="-4.001 -0.0002 32 31.9975" xmlns="http://www.w3.org/2000/svg">
  <g transform="matrix(0.0625, 0, 0, 0.0625, 0, 0)">
    <path d="M368, 416L16, 416C7.16, 416 0, 423.16 0, 432L0, 464C0, 472.84 7.16, 480 16, 480L368, 480C376.84, 480 384, 472.84 384, 464L384, 432C384, 423.16 376.84, 416 368, 416zM42.06, 235.24L318.18, 350.8C326.39, 354.24 335.7, 350.06 338.98, 341.47L350.86, 310.37C354.14, 301.79 350.15, 292.05 341.94, 288.61L111.09, 192L341.94, 95.38C350.14, 91.95 354.13, 82.21 350.86, 73.62L338.98, 42.52C335.7, 33.93 326.39, 29.76 318.18, 33.19L42.06, 148.76C35.98, 151.3 32, 157.46 32, 164.3L32, 219.69C32, 226.54 35.98, 232.7 42.06, 235.24z" fill="#727272" fill-opacity="1" class="Black" />
  </g>
</svg>