<?xml version='1.0' encoding='UTF-8'?>
<svg viewBox="-7.2466 -1.9975 32 32" xmlns="http://www.w3.org/2000/svg">
  <g transform="matrix(0.0547, 0, 0, 0.0547, 0, 0)">
    <path d="M316.485, 120L200.485, 3.515C195.799, -1.171 188.201, -1.171 183.514, 3.515L67.515, 120C62.829, 124.686 62.829, 132.284 67.515, 136.971L89.827, 159.283C94.635, 164.091 102.473, 163.948 107.102, 158.968L164, 97.004L164, 456L44.024, 456A11.996 11.996 0 0 0 35.539, 459.515L3.539, 491.515C-4.021, 499.074 1.333, 512 12.024, 512L196, 512C209.255, 512 220, 501.255 220, 488L220, 97.004L276.899, 158.967C281.528, 163.947 289.366, 164.09 294.174, 159.282L316.486, 136.97C321.172, 132.284 321.172, 124.686 316.485, 120z" fill="#727272" fill-opacity="1" class="Black" />
  </g>
</svg>