<?xml version='1.0' encoding='UTF-8'?>
<svg viewBox="-7.246 -1.9999 31.9975 32" xmlns="http://www.w3.org/2000/svg">
  <g transform="matrix(0.0547, 0, 0, 0.0547, 0, 0)">
    <path d="M316.485, 392L200.485, 508.485C195.799, 513.171 188.201, 513.171 183.514, 508.485L67.515, 392C62.829, 387.314 62.829, 379.716 67.515, 375.029L89.827, 352.717C94.635, 347.909 102.473, 348.052 107.102, 353.032L164, 414.996L164, 56L44.024, 56A11.996 11.996 0 0 1 35.539, 52.485L3.539, 20.485C-4.021, 12.926 1.333, 0 12.024, 0L196, 0C209.255, 0 220, 10.745 220, 24L220, 414.996L276.899, 353.033C281.528, 348.053 289.366, 347.91 294.174, 352.718L316.486, 375.03C321.172, 379.716 321.172, 387.314 316.485, 392z" fill="#727272" fill-opacity="1" class="Black" />
  </g>
</svg>