<?xml version='1.0' encoding='UTF-8'?>
<svg viewBox="-1.5477 -1.5477 32 32" xmlns="http://www.w3.org/2000/svg">
  <g transform="matrix(0.9991, 0, 0, 0.9991, 0, 0)">
    <g transform="matrix(0.0565, 0, 0, 0.0565, 0, 0)">
      <path d="M256, 504C392.967, 504 504, 392.967 504, 256C504, 119.033 392.967, 8 256, 8C119.033, 8 8, 119.033 8, 256C8, 392.967 119.033, 504 256, 504zM152.602, 427.28L206.013, 373.869C237.819, 387.375 274.141, 387.391 305.987, 373.869L359.398, 427.28C296.181, 465.599 215.819, 465.599 152.602, 427.28zM336, 256C336, 300.112 300.112, 336 256, 336C211.888, 336 176, 300.112 176, 256C176, 211.888 211.888, 176 256, 176C300.112, 176 336, 211.888 336, 256zM427.28, 359.398L373.869, 305.987C387.374, 274.181 387.391, 237.859 373.869, 206.013L427.28, 152.602C465.599, 215.819 465.599, 296.181 427.28, 359.398zM359.397, 84.72L305.986, 138.131C274.18, 124.626 237.858, 124.609 206.013, 138.131L152.602, 84.72C215.819, 46.401 296.181, 46.401 359.397, 84.72zM84.72, 152.602L138.131, 206.013C124.625, 237.819 124.609, 274.141 138.131, 305.987L84.72, 359.398C46.401, 296.181 46.401, 215.819 84.72, 152.602z" fill="#727272" fill-opacity="1" class="Black" />
    </g>
  </g>
</svg>