<?xml version='1.0' encoding='UTF-8'?>
<svg viewBox="-1.9973 -4.7991 31.995 32" xmlns="http://www.w3.org/2000/svg">
  <g transform="matrix(0.9989, 0, 0, 0.9989, 0, 0)">
    <g transform="matrix(0.0438, 0, 0, 0.0438, 0, 0)">
      <path d="M250.43, 110.23L275.71, 129.99C287.22, 118.9 302.8, 112 320, 112C328.84, 112 336, 104.84 336, 96C336, 87.16 328.84, 80 320, 80C292.56, 80 267.94, 91.71 250.43, 110.23zM320, 48C390.58, 48 448, 105.42 448, 176C448, 201.62 439.93, 226.25 425.72, 247.27L463.45, 276.76C483.62, 248.16 496, 213.67 496, 176C496, 78.8 417.2, 0 320, 0C302.41, 0 238.67, 1.58 187.23, 60.82L225.07, 90.4C262.63, 48.81 307.46, 48 320, 48zM240.06, 459.17C240.06, 462.32 241, 465.39 242.74, 468.01L267.25, 504.85C270.22, 509.31 275.22, 511.99 280.57, 511.99L359.42, 511.99C364.78, 511.99 369.78, 509.31 372.74, 504.85L397.25, 468.01C398.99, 465.39 399.92, 462.31 399.93, 459.17L399.98, 415.99L240.02, 415.99L240.06, 459.17zM287.98, 384L287.98, 383.89C287.97, 379.09 287.24, 374.33 285.77, 369.76C281.31, 355.83 269.67, 324.21 246.22, 289.71L148.2, 213.08C154.6, 242.76 168.24, 269.74 187.55, 291.78C204.19, 310.77 230.29, 350.58 239.97, 383.94L239.97, 384L287.98, 384zM633.99, 471.02L36, 3.51C29.1, -2.01 19.03, -0.9 13.51, 6L3.51, 18.49C-2.02, 25.39 -0.9, 35.46 6, 40.98L604, 508.49C610.9, 514.01 620.96, 512.89 626.49, 506L636.49, 493.51C642.01, 486.61 640.9, 476.54 633.99, 471.02z" fill="#727272" fill-opacity="1" class="Black" />
    </g>
  </g>
</svg>