<?xml version='1.0' encoding='UTF-8'?>
<svg viewBox="-1.9975 -4.796 31.9975 32" xmlns="http://www.w3.org/2000/svg">
  <g transform="matrix(1.0013, 0, 0, 1.0013, 0, 0)">
    <g transform="matrix(0.0437, 0, 0, 0.0437, 0, 0)">
      <path d="M637.8, 85.7L629.7, 71.8C625.3, 64.2 615.6, 61.8 607.9, 65.9C527.1, 109.6 425.6, 133.6 320, 133.6C214.4, 133.6 112.9, 109.8 32.1, 66C24.4, 61.8 14.8, 64.3 10.3, 71.9L2.2, 85.7C-2.5, 93.6 0.5, 103.7 8.6, 108.1C54.4, 133 106.3, 151.8 161.6, 164.3L143.7, 203.6C138.3, 204.2 133.2, 207.3 130.8, 212.6L121.6, 232.8C96, 232.1 72, 245.4 56.4, 279.6C34.5, 327.9 60.7, 409.4 73.8, 415.3C86.9, 421.3 165.6, 387.4 187.5, 339.2C203.1, 305 197.3, 278.1 179.8, 259.4L189, 239.2C191.4, 233.9 190.4, 228 187.3, 223.6L210.1, 173.5C238.2, 177.8 266.9, 180.4 295.9, 181.3L295.9, 226.5C291.2, 229.3 287.9, 234.2 287.9, 240L287.9, 262.2C264.3, 272 247.9, 294 247.9, 331.7C247.9, 384.7 305.5, 448.1 319.9, 448.1C334.3, 448.1 391.9, 384.8 391.9, 331.7C391.9, 294.1 375.5, 272 351.9, 262.2L351.9, 240C351.9, 234.1 348.6, 229.2 343.9, 226.5L343.9, 181.3C373, 180.4 401.7, 177.7 429.7, 173.5L452.5, 223.6C449.4, 228.1 448.4, 233.9 450.8, 239.2L460, 259.4C442.5, 278.1 436.8, 304.9 452.3, 339.2C474.2, 387.5 552.9, 421.3 566, 415.3C579.1, 409.3 605.3, 327.8 583.4, 279.6C567.8, 245.4 543.8, 232.1 518.2, 232.9L509, 212.7C506.6, 207.4 501.5, 204.3 496.1, 203.7L478.2, 164.4C533.4, 151.9 585.3, 133.1 631.2, 108.2C639.5, 103.8 642.4, 93.7 637.8, 85.7zM143.8, 319.3C137.3, 333.5 117.3, 348.3 99.9, 357.9C95.6, 338.5 93.6, 313.7 100.1, 299.5C109.8, 278.1 118.6, 277.5 133.4, 284.3C148.2, 291 153.6, 297.9 143.8, 319.3zM506.6, 284.2C521.4, 277.5 530.2, 278 539.9, 299.4C546.4, 313.6 544.3, 338.4 540.1, 357.8C522.7, 348.2 502.7, 333.4 496.2, 319.2C486.4, 297.9 491.8, 291 506.6, 284.2zM320, 384.9C308.1, 369 296, 347.2 296, 331.6C296, 308.1 303.7, 304 320, 304C336.3, 304 344, 308.1 344, 331.6C344, 347.2 331.9, 369 320, 384.9z" fill="#727272" fill-opacity="1" class="Black" />
    </g>
  </g>
</svg>