<?xml version='1.0' encoding='UTF-8'?>
<svg viewBox="-1.9998 -4.8002 31.9975 32" xmlns="http://www.w3.org/2000/svg">
  <g transform="matrix(0.9988, 0, 0, 0.9988, 0, 0)">
    <g transform="matrix(0.0438, 0, 0, 0.0438, 0, 0)">
      <path d="M44.73, 323.21C37.08, 327.63 34.45, 337.41 38.87, 345.07L46.87, 358.93C51.29, 366.58 61.08, 369.21 68.73, 364.79L161.99, 310.95A207.865 207.865 0 0 1 135.16, 271.02L44.73, 323.21zM112.46, 168L16, 168C7.16, 168 0, 175.16 0, 184L0, 200C0, 208.84 7.16, 216 16, 216L116.21, 216A210.423 210.423 0 0 1 112.46, 168zM240.06, 459.17C240.06, 462.32 240.99, 465.39 242.74, 468.01L267.25, 504.85C270.22, 509.31 275.22, 511.99 280.57, 511.99L359.42, 511.99C364.78, 511.99 369.78, 509.31 372.74, 504.85L397.25, 468.01C398.99, 465.39 399.92, 462.31 399.93, 459.17L399.98, 415.99L240.02, 415.99L240.06, 459.17zM44.73, 60.78L123.71, 106.38C129.08, 91.09 136.68, 76.9 145.35, 63.45L68.73, 19.21C61.08, 14.79 51.29, 17.41 46.87, 25.07L38.87, 38.93C34.45, 46.58 37.08, 56.37 44.73, 60.78zM595.27, 60.78C602.92, 56.36 605.55, 46.58 601.13, 38.92L593.13, 25.06C588.71, 17.41 578.92, 14.78 571.27, 19.2L494.66, 63.43C503.34, 76.84 510.42, 91.33 515.86, 106.62L595.27, 60.78zM595.27, 323.21L504.3, 270.69C496.97, 284.92 488.5, 298.57 477.94, 310.9L571.27, 364.78C578.92, 369.2 588.71, 366.58 593.13, 358.92L601.13, 345.06C605.55, 337.42 602.92, 327.63 595.27, 323.21zM624, 168L527.59, 168C527.69, 170.68 528, 173.3 528, 176C528, 189.54 526.45, 202.89 523.88, 216L624, 216C632.84, 216 640, 208.84 640, 200L640, 184C640, 175.16 632.84, 168 624, 168zM320, 80C267.06, 80 224, 123.06 224, 176C224, 184.84 231.16, 192 240, 192C248.84, 192 256, 184.84 256, 176C256, 140.7 284.72, 112 320, 112C328.84, 112 336, 104.84 336, 96C336, 87.16 328.84, 80 320, 80zM320, 0C217.72, 0 144, 82.97 144, 176C144, 220.37 160.45, 260.85 187.56, 291.78C204.2, 310.77 230.3, 350.58 239.98, 383.94L239.98, 384L287.98, 384L287.98, 383.88C287.97, 379.11 287.26, 374.37 285.83, 369.81C280.24, 352 263.01, 305.04 223.66, 260.14C203.13, 236.71 192.14, 207 192.05, 176C191.85, 102.36 251.72, 48 320, 48C390.58, 48 448, 105.42 448, 176C448, 206.97 436.76, 236.85 416.35, 260.14C377.24, 304.75 359.93, 351.61 354.25, 369.6A47.507 47.507 0 0 0 352.03, 383.9L352.03, 384L400.03, 384L400.03, 383.95C409.71, 350.58 435.81, 310.77 452.45, 291.79C479.55, 260.85 496, 220.37 496, 176C496, 78.8 417.2, 0 320, 0z" fill="#727272" fill-opacity="1" class="Black" />
    </g>
  </g>
</svg>