<?xml version='1.0' encoding='UTF-8'?>
<svg viewBox="-6.3751 -2 32 32" xmlns="http://www.w3.org/2000/svg">
  <g transform="matrix(0.0547, 0, 0, 0.0547, 0, 0)">
    <path d="M96.06, 459.17C96.06, 462.32 96.99, 465.39 98.74, 468.01L123.25, 504.85C126.22, 509.31 131.22, 511.99 136.57, 511.99L215.42, 511.99C220.78, 511.99 225.78, 509.31 228.74, 504.85L253.25, 468.01C254.99, 465.39 255.92, 462.31 255.93, 459.17L255.98, 415.99L96.02, 415.99L96.06, 459.17zM176, 320C193.67, 320 208, 305.67 208, 288C208, 270.33 193.67, 256 176, 256C158.33, 256 144, 270.33 144, 288C144, 305.67 158.33, 320 176, 320zM176, 0C73.72, 0 0, 82.97 0, 176C0, 220.37 16.45, 260.85 43.56, 291.78C60.2, 310.77 86.3, 350.58 95.98, 383.94L95.98, 384L143.98, 384L143.98, 383.88C143.97, 379.11 143.26, 374.37 141.83, 369.81C136.24, 352 119.01, 305.04 79.66, 260.14C59.12, 236.71 48.14, 206.99 48.05, 176C47.85, 102.36 107.72, 48 176, 48C246.58, 48 304, 105.42 304, 176C304, 206.97 292.76, 236.85 272.35, 260.14C233.24, 304.75 215.93, 351.61 210.25, 369.6A47.507 47.507 0 0 0 208.03, 383.9L208.03, 384L256.03, 384L256.03, 383.95C265.71, 350.58 291.81, 310.77 308.45, 291.79C335.55, 260.85 352, 220.37 352, 176C352, 78.8 273.2, 0 176, 0zM166.48, 224L185.52, 224C193.74, 224 200.62, 217.77 201.44, 209.59L214.24, 113.59C215.18, 104.17 207.79, 96 198.32, 96L153.68, 96C144.21, 96 136.82, 104.17 137.76, 113.59L150.56, 209.59C151.38, 217.77 158.26, 224 166.48, 224z" fill="#727272" fill-opacity="1" class="Black" />
  </g>
</svg>