<?xml version='1.0' encoding='UTF-8'?>
<svg viewBox="-2 -1.9988 32 32" xmlns="http://www.w3.org/2000/svg">
  <g transform="matrix(0.0547, 0, 0, 0.0547, 0, 0)">
    <path d="M314.222, 197.78C365.313, 248.871 368.599, 330.067 323.972, 384.94C317.73, 392.67 321.188, 388.805 239.032, 470.96C184.336, 525.656 95.766, 525.705 41.042, 470.96C-13.669, 416.27 -13.692, 327.705 41.042, 272.97C73.815, 240.197 92.877, 221.071 104.451, 209.513C111.914, 202.061 124.782, 207.159 124.937, 217.705A173.31 173.31 0 0 0 129.683, 255.533C130.649, 259.562 129.411, 263.802 126.481, 266.731L80.632, 312.57C47.877, 345.345 47.745, 398.462 80.632, 431.37C113.407, 464.125 166.524, 464.257 199.432, 431.37L274.622, 356.17C307.34, 323.445 307.399, 270.157 274.622, 237.38A83.722 83.722 0 0 0 251.808, 221.151C247.185, 218.918 244.626, 213.901 245.247, 208.805C246.603, 197.683 251.543, 186.92 260.062, 178.4L264.437, 174.025C268.062, 170.399 273.614, 169.431 278.197, 171.731C291.196, 178.255 303.384, 186.942 314.222, 197.78zM470.958, 41.04C416.234, -13.705 327.664, -13.656 272.968, 41.04C190.812, 123.196 194.27, 119.33 188.028, 127.06C143.401, 181.933 146.687, 263.129 197.778, 314.22C208.616, 325.058 220.804, 333.745 233.803, 340.269C238.385, 342.569 243.937, 341.6 247.563, 337.975L251.938, 333.6C260.458, 325.081 265.397, 314.317 266.753, 303.195C267.374, 298.099 264.815, 293.082 260.192, 290.849A83.706 83.706 0 0 1 237.378, 274.62C204.601, 241.843 204.66, 188.555 237.378, 155.83L312.568, 80.63C345.476, 47.743 398.593, 47.875 431.368, 80.63C464.255, 113.538 464.123, 166.655 431.368, 199.43L385.52, 245.27C382.59, 248.199 381.352, 252.439 382.318, 256.468A173.31 173.31 0 0 1 387.064, 294.296C387.219, 304.842 400.087, 309.94 407.55, 302.488C419.124, 290.93 438.186, 271.804 470.959, 239.031C525.692, 184.296 525.669, 95.731 470.958, 41.04z" fill="#727272" fill-opacity="1" class="Black" />
  </g>
</svg>