<?xml version='1.0' encoding='UTF-8'?>
<svg viewBox="-1.995 -4.7962 32 32" xmlns="http://www.w3.org/2000/svg">
  <g transform="matrix(0.9991, 0, 0, 0.9991, 0, 0)">
    <g transform="matrix(0.0438, 0, 0, 0.0438, 0, 0)">
      <path d="M631.14, 195.68C579.47, 109.99 466.31, 32 417.72, 32C417.72, 32 385.15, 32 320, 82C254.85, 32 222.28, 32 222.28, 32C173.69, 32 60.53, 109.99 8.86, 195.68C-1.46, 212.79 -2.77, 233.67 4.97, 252.06C32.95, 318.51 117.59, 480 279.28, 480L360.71, 480C522.4, 480 607.04, 318.51 635.03, 252.05C642.77, 233.67 641.46, 212.79 631.14, 195.68zM590.8, 233.42C565.65, 293.13 492.91, 432 360.72, 432L279.29, 432C147.09, 432 74.35, 293.13 49.2, 233.42C47.36, 229.04 47.63, 224.32 49.96, 220.46C96.28, 143.65 191.9, 83.43 220.33, 80.14C250, 87.12 290.29, 119.71 320, 142.5C353.12, 117.09 390.35, 87.04 419.67, 80.14C448.14, 83.45 543.73, 143.67 590.04, 220.46C592.36, 224.32 592.64, 229.05 590.8, 233.42zM532.97, 231.24C512.72, 223.25 465.99, 208 404, 208C370.64, 216.34 352.87, 222 320, 222C287.47, 222 270.53, 216.63 236, 208C174.01, 208 127.28, 223.25 107.04, 231.24C101.53, 233.41 100.24, 240.47 104.63, 244.44C128.18, 265.73 199.97, 320 320, 320C440.03, 320 511.82, 265.73 535.37, 244.44C539.76, 240.47 538.47, 233.41 532.97, 231.24z" fill="#727272" fill-opacity="1" class="Black" />
    </g>
  </g>
</svg>