<?xml version='1.0' encoding='UTF-8'?>
<svg viewBox="-2 -1.9988 32 32" xmlns="http://www.w3.org/2000/svg">
  <g transform="matrix(0.0547, 0, 0, 0.0547, 0, 0)">
    <path d="M48, 368A48 48 0 1 0 96, 416A48 48 0 0 0 48, 368zM48, 208A48 48 0 1 0 96, 256A48 48 0 0 0 48, 208zM48, 48A48 48 0 1 0 96, 96A48 48 0 0 0 48, 48zM496, 72L176, 72A16 16 0 0 0 160, 88L160, 104A16 16 0 0 0 176, 120L496, 120A16 16 0 0 0 512, 104L512, 88A16 16 0 0 0 496, 72zM496, 232L176, 232A16 16 0 0 0 160, 248L160, 264A16 16 0 0 0 176, 280L496, 280A16 16 0 0 0 512, 264L512, 248A16 16 0 0 0 496, 232zM496, 392L176, 392A16 16 0 0 0 160, 408L160, 424A16 16 0 0 0 176, 440L496, 440A16 16 0 0 0 512, 424L512, 408A16 16 0 0 0 496, 392z" fill="#727272" fill-opacity="1" class="Black" />
  </g>
</svg>