<?xml version='1.0' encoding='UTF-8'?>
<svg viewBox="-1.9988 -2 32 32" xmlns="http://www.w3.org/2000/svg">
  <g transform="matrix(0.0547, 0, 0, 0.0547, 0, 0)">
    <path d="M461.9, 0C456.17, 0 450.31, 1.1 444.51, 3.52L28.74, 195.41C-19.23, 217.8 -3.24, 288.16 47.93, 288.16L223.84, 288.16L223.84, 464.07C223.84, 494.08 248.05, 512 272.58, 512C289.88, 512 307.33, 503.1 316.59, 483.26L508.49, 67.48C522.06, 34.89 494.14, 0 461.9, 0zM271.81, 464.07L271.81, 240.19L223.84, 240.19L48.36, 240.9C48.09, 240.53 47.89, 239.55 48.84, 238.97L462.05, 48.26C462.66, 48.67 463.33, 49.33 463.74, 49.94L271.81, 464.07z" fill="#727272" fill-opacity="1" class="Black" />
  </g>
</svg>