<?xml version='1.0' encoding='UTF-8'?>
<svg viewBox="-1.9999 -1.549 31.9975 32" xmlns="http://www.w3.org/2000/svg">
  <g transform="matrix(0.999, 0, 0, 0.999, 0, 0)">
    <g transform="matrix(0.0565, 0, 0, 0.0565, 0, 0)">
      <path d="M304.51, 140.2L122.45, 223.86C102.6, 233.09 92.44, 253.5 97.13, 274.67C101.76, 295.36 119.8, 309.82 141.02, 309.82L194.01, 309.82L194.01, 362.55C194.01, 383.69 208.55, 401.65 229.33, 406.24C232.77, 407 236.21, 407.38 239.58, 407.38C256.96, 407.38 272.59, 397.56 280.38, 380.93L364.38, 199.8L364.76, 198.97C371.7, 182.4 367.7, 163.22 354.54, 150.1C341.31, 136.95 322.05, 132.95 304.51, 140.2zM242.02, 349.61L242.02, 262.03L153.96, 262.03L317.49, 186.88L242.02, 349.61zM248, 8C111.03, 8 0, 119.03 0, 256C0, 392.97 111.03, 504 248, 504C384.97, 504 496, 392.97 496, 256C496, 119.03 384.97, 8 248, 8zM248, 456C137.72, 456 48, 366.28 48, 256C48, 145.72 137.72, 56 248, 56C358.28, 56 448, 145.72 448, 256C448, 366.28 358.28, 456 248, 456z" fill="#727272" fill-opacity="1" class="Black" />
    </g>
  </g>
</svg>