<?xml version='1.0' encoding='UTF-8'?>
<svg viewBox="-3.7495 -2 32 32" xmlns="http://www.w3.org/2000/svg">
  <g transform="matrix(0.0547, 0, 0, 0.0547, 0, 0)">
    <path d="M224, 412C208.5, 412 196, 399.5 196, 384L196, 320C196, 304.5 208.5, 292 224, 292C239.5, 292 252, 304.5 252, 320L252, 384C252, 399.5 239.5, 412 224, 412zM448, 240L448, 464C448, 490.5 426.5, 512 400, 512L48, 512C21.5, 512 0, 490.5 0, 464L0, 240C0, 213.5 21.5, 192 48, 192L80, 192L80, 144C80, 64.5 144.8, -0.2 224.4, 0C304, 0.2 368, 65.8 368, 145.4L368, 192L400, 192C426.5, 192 448, 213.5 448, 240zM128, 192L320, 192L320, 144C320, 91.1 276.9, 48 224, 48C171.1, 48 128, 91.1 128, 144L128, 192zM400, 240L48, 240L48, 464L400, 464L400, 240z" fill="#727272" fill-opacity="1" class="Black" />
  </g>
</svg>