<?xml version='1.0' encoding='UTF-8'?>
<svg viewBox="-3.7495 -2 32 32" xmlns="http://www.w3.org/2000/svg">
  <g transform="matrix(0.0547, 0, 0, 0.0547, 0, 0)">
    <path d="M400, 192L368, 192L368, 145.4C368, 65.8 304, 0.2 224.4, 0C144.8, -0.2 80, 64.5 80, 144L80, 192L48, 192C21.5, 192 0, 213.5 0, 240L0, 464C0, 490.5 21.5, 512 48, 512L400, 512C426.5, 512 448, 490.5 448, 464L448, 240C448, 213.5 426.5, 192 400, 192zM128, 144C128, 91.1 171.1, 48 224, 48C276.9, 48 320, 91.1 320, 144L320, 192L128, 192L128, 144zM400, 464L48, 464L48, 240L400, 240L400, 464z" fill="#727272" fill-opacity="1" class="Black" />
  </g>
</svg>