<?xml version='1.0' encoding='UTF-8'?>
<svg viewBox="-1.9998 -3.5563 31.9975 32" xmlns="http://www.w3.org/2000/svg">
  <g transform="matrix(0.0486, 0, 0, 0.0486, 0, 0)">
    <path d="M432.3, 0C352.8, -0.2 288, 64.5 288, 144L288, 192L48, 192C21.5, 192 0, 213.5 0, 240L0, 464C0, 490.5 21.5, 512 48, 512L400, 512C426.5, 512 448, 490.5 448, 464L448, 240C448, 213.5 426.5, 192 400, 192L336, 192L336, 145.2C336, 92.4 378.1, 48.5 431, 48C484.4, 47.4 528, 90.7 528, 144L528, 200C528, 213.3 538.7, 224 552, 224C565.3, 224 576, 213.3 576, 200L576, 145.4C576, 65.8 512, 0.2 432.3, 0zM400, 240L400, 464L48, 464L48, 240L400, 240z" fill="#727272" fill-opacity="1" class="Black" />
  </g>
</svg>