<?xml version='1.0' encoding='UTF-8'?>
<svg viewBox="-1.9875 0.0084 32 32" xmlns="http://www.w3.org/2000/svg">
  <g transform="matrix(0.0625, 0, 0, 0.0625, 0, 0)">
    <path d="M152.485, 396.284L172.111, 376.658C176.864, 371.905 176.786, 364.174 171.938, 359.518L91.22, 282L436, 282C442.627, 282 448, 276.627 448, 270L448, 242C448, 235.373 442.627, 230 436, 230L91.22, 230L171.937, 152.482C176.786, 147.826 176.864, 140.095 172.11, 135.342L152.484, 115.716C147.798, 111.03 140.2, 111.03 135.513, 115.716L3.716, 247.515C-0.97, 252.201 -0.97, 259.799 3.716, 264.486L135.515, 396.285C140.201, 400.97 147.799, 400.97 152.485, 396.284z" fill="#727272" fill-opacity="1" class="Black" />
  </g>
</svg>