<?xml version='1.0' encoding='UTF-8'?>
<svg viewBox="-5.9926 0.0007 32 32" xmlns="http://www.w3.org/2000/svg">
  <g transform="matrix(0.0625, 0, 0, 0.0625, 0, 0)">
    <path d="M300.3, 327.5L280.7, 307.9C275.9, 303.1 268.2, 303.2 263.6, 308.1L186, 388.8L186, 44C186, 37.4 180.6, 32 174, 32L146, 32C139.4, 32 134, 37.4 134, 44L134, 388.8L56.5, 308.1C51.8, 303.3 44.1, 303.2 39.4, 307.9L19.8, 327.5C15.1, 332.2 15.1, 339.8 19.8, 344.5L151.6, 476.3C156.3, 481 163.9, 481 168.6, 476.3L300.4, 344.5C305, 339.8 305, 332.2 300.3, 327.5z" fill="#727272" fill-opacity="1" class="Black" />
  </g>
</svg>