<?xml version='1.0' encoding='UTF-8'?>
<svg viewBox="-2 -3.554 32 32" xmlns="http://www.w3.org/2000/svg">
  <g transform="matrix(0.0486, 0, 0, 0.0486, 0, 0)">
    <path d="M569.348, 231.63C512.968, 135.95 407.81, 72 288, 72C256.56, 72 226.13, 76.4 197.33, 84.63L144, 5.12C140.2, -0.309 132.718, -1.63 127.288, 2.17L107.631, 15.928C102.201, 19.728 100.88, 27.212 104.681, 32.641L150.8, 101.84C91.949, 128.84 40.797, 173.66 6.653, 231.63A47.963 47.963 0 0 0 6.653, 280.37C42.803, 341.72 99.01, 390.03 166.29, 416.79L50.65, 251.6A273.208 273.208 0 0 1 89.259, 202.501L254.32, 438.3C274.115, 440.355 295.171, 440.483 313.41, 439.03L126.009, 171.311A277.521 277.521 0 0 1 178.86, 141.93L179.2, 142.42L432, 506.881C435.8, 512.31 443.282, 513.631 448.712, 509.831L468.369, 496.073C473.799, 492.273 475.12, 484.79 471.319, 479.36L425.2, 410.16C485.62, 382.44 536.018, 336.94 569.348, 280.37A47.963 47.963 0 0 0 569.348, 231.63zM397.15, 370.08L370.56, 332.09C424.582, 290.742 438.765, 217.453 408, 159.96L408, 160C408, 190.93 382.93, 216 352, 216C321.07, 216 296, 190.93 296, 160C296, 144.83 302.04, 131.08 311.84, 120.99C404.32, 128.73 483.84, 181.07 528, 256C498.2, 306.57 452.29, 346.86 397.15, 370.08z" fill="#727272" fill-opacity="1" class="Black" />
  </g>
</svg>