<?xml version='1.0' encoding='UTF-8'?>
<svg viewBox="-2 -4.8005 32 32" xmlns="http://www.w3.org/2000/svg">
  <g transform="matrix(1.0011, 0, 0, 1.0011, 0, 0)">
    <g transform="matrix(0.0437, 0, 0, 0.0437, 0, 0)">
      <path d="M636.11, 390.15C614.44, 308.85 580.07, 231 534.1, 159.13C511.98, 124.56 498.03, 96 454.05, 96C415.36, 96 384, 125.42 384, 161.71L384, 221.82L351.12, 199.9A15.996 15.996 0 0 1 344, 186.59L344, 16C344, 7.16 336.84, 0 328, 0L312, 0C303.16, 0 296, 7.16 296, 16L296, 186.59C296, 191.94 293.33, 196.93 288.88, 199.9L256, 221.82L256, 161.71C256, 125.42 224.64, 96 185.95, 96C141.97, 96 128.02, 124.56 105.9, 159.13C59.93, 231 25.56, 308.85 3.89, 390.15C1.3, 399.84 0, 409.79 0, 419.78C0, 472.11 45.63, 512 98.07, 512C116.16, 512 122.52, 509.13 184.75, 492.45C226.93, 481.15 256.01, 444.98 256.01, 403.83L256.01, 316.34L208.01, 348.34L208.01, 403.83C208.01, 423.08 193.34, 440.45 172.33, 446.08C107.71, 463.4 107.88, 464 98.07, 464C67.76, 464 40.16, 440.43 50.28, 402.51C70.68, 325.93 103, 252.74 146.33, 185C169.37, 148.59 171.67, 144 185.95, 144C197.9, 144 208, 152.11 208, 161.71L208, 253.82L128, 307.15C120.65, 312.05 118.66, 321.98 123.56, 329.34L132.44, 342.65C137.34, 350 147.28, 351.99 154.63, 347.09L320, 236.84L485.38, 347.09C492.73, 351.99 502.67, 350 507.57, 342.65L516.45, 329.34C521.35, 321.99 519.36, 312.05 512.01, 307.15L432.01, 253.82L432.01, 161.71C432.01, 152.11 442.11, 144 454.06, 144C468.34, 144 470.63, 148.59 493.68, 185C537.01, 252.74 569.33, 325.93 589.74, 402.51C599.86, 440.43 572.26, 464 541.95, 464C532.14, 464 532.31, 463.4 467.7, 446.09C446.69, 440.46 432.02, 423.08 432.02, 403.84L432.02, 348.35L384.02, 316.35L384.02, 403.84C384.02, 444.99 413.1, 481.15 455.28, 492.46C517.5, 509.14 523.87, 512.01 541.96, 512.01C594.4, 512.01 640.03, 472.12 640.03, 419.79C640, 409.79 638.7, 399.84 636.11, 390.15z" fill="#727272" fill-opacity="1" class="Black" />
    </g>
  </g>
</svg>