<?xml version='1.0' encoding='UTF-8'?>
<svg viewBox="-1.9975 -1.9975 32 32" xmlns="http://www.w3.org/2000/svg">
  <g transform="matrix(0.0547, 0, 0, 0.0547, 0, 0)">
    <path d="M304, 176C286.33, 176 272, 190.33 272, 208C272, 225.67 286.33, 240 304, 240C321.67, 240 336, 225.67 336, 208C336, 190.33 321.67, 176 304, 176zM500.98, 194.97L444.48, 177.06C432.27, 121.45 388.08, 77.91 332.06, 66.83L313.05, 10.8C308.13, -3.7 295.59, -3.57 290.97, 11.02L273.06, 67.52C217.45, 79.73 173.91, 123.92 162.83, 179.94L106.8, 198.95C92.3, 203.87 92.43, 216.41 107.02, 221.03L163.52, 238.94C167.73, 258.12 175.81, 275.75 186.83, 291.23L3.51, 474.54C-1.18, 479.23 -1.18, 486.83 3.51, 491.51L20.48, 508.48C25.17, 513.17 32.77, 513.17 37.45, 508.48L220.77, 325.16C237.03, 336.73 255.64, 345.15 275.93, 349.16L294.94, 405.19C299.86, 419.69 312.4, 419.56 317.02, 404.97L334.93, 348.47C390.54, 336.26 434.08, 292.07 445.16, 236.05L501.19, 217.04C515.7, 212.13 515.57, 199.59 500.98, 194.97zM304, 304C251.06, 304 208, 260.93 208, 208C208, 155.06 251.06, 112 304, 112C356.94, 112 400, 155.06 400, 208C400, 260.93 356.94, 304 304, 304z" fill="#727272" fill-opacity="1" class="Black" />
  </g>
</svg>