<?xml version='1.0' encoding='UTF-8'?>
<svg viewBox="-2 -1.3464 32 32" xmlns="http://www.w3.org/2000/svg">
  <g transform="matrix(0.0547, 0, 0, 0.0547, 0, 0)">
    <path d="M509.8, 55.6C508.6, 52.3 506.9, 49.2 504.8, 46.4C498.2, 37.6 487.8, 31.9 476, 31.9L372, 31.9C359.6, 31.9 348.6, 38.2 342.1, 47.8C341.1, 49.2 340.3, 50.7 339.5, 52.3C337.2, 57 336, 62.3 336, 67.9L336, 239.9C336, 303.9 296, 335.9 256.1, 335.9C216.1, 335.9 176, 303.9 176, 239.9L176, 68C176, 63.7 175.2, 59.5 173.8, 55.6C172.6, 52.3 170.9, 49.2 168.8, 46.4C162.2, 37.6 151.8, 31.9 140, 31.9L36, 31.9C24.2, 31.9 13.7, 37.6 7.2, 46.4C5.1, 49.2 3.4, 52.3 2.2, 55.6C0.8, 59.5 0, 63.7 0, 68L0, 257.3C0, 408 136.2, 504 256.8, 504C377.5, 504 512, 408 512, 257.3L512, 68C512, 63.7 511.2, 59.5 509.8, 55.6zM464, 257.3C464, 286.2 457.9, 313.5 445.8, 338.6C434.6, 362 418.5, 383 397.9, 401.1C378.4, 418.3 355, 432.3 330.3, 441.8C306.2, 451.1 280.7, 456 256.7, 456C207.2, 456 154.1, 435.4 114.6, 401C93.9, 382.9 77.6, 361.9 66.2, 338.5C54.2, 313.4 48, 286.1 48, 257.3L48, 176L128, 176L128, 240C128, 293.1 148.7, 326.3 166, 344.8C177.9, 357.5 192, 367.4 207.8, 374.1C223.1, 380.6 239.4, 384 256, 384C272.7, 384 288.9, 380.7 304.2, 374.2C320, 367.4 334.1, 357.6 346, 344.9C363.3, 326.4 384, 293.2 384, 240.1L384, 176.1L464, 176.1L464, 257.3z" fill="#727272" fill-opacity="1" class="Black" />
  </g>
</svg>