<?xml version='1.0' encoding='UTF-8'?>
<svg viewBox="-8.9994 -2 32 32" xmlns="http://www.w3.org/2000/svg">
  <g transform="matrix(0.0547, 0, 0, 0.0547, 0, 0)">
    <path d="M211.421, 155.079C221.892, 139.273 228, 120.338 228, 100C228, 44.86 183.14, 0 128, 0C72.86, 0 28, 44.86 28, 100C28, 120.338 34.108, 139.273 44.579, 155.079C18.005, 169.985 0, 198.424 0, 231L0, 320C0, 346.039 15.629, 368.494 38, 378.479L38, 448C38, 483.29 66.71, 512 102, 512L154, 512C189.29, 512 218, 483.29 218, 448L218, 378.479C240.371, 368.495 256, 346.039 256, 320L256, 231C256, 198.424 237.995, 169.985 211.421, 155.079zM128, 48C156.719, 48 180, 71.281 180, 100C180, 128.719 156.719, 152 128, 152C99.281, 152 76, 128.719 76, 100C76, 71.281 99.281, 48 128, 48zM208, 320C208, 328.8 200.8, 336 192, 336L170, 336L170, 448C170, 456.837 162.837, 464 154, 464L102, 464C93.163, 464 86, 456.837 86, 448L86, 336L64, 336C55.163, 336 48, 328.837 48, 320L48, 231C48, 211.207 63.074, 192 88.818, 192C113.779, 202.671 142.218, 202.672 167.182, 192C192.552, 192 208, 210.885 208, 231L208, 320z" fill="#727272" fill-opacity="1" class="Black" />
  </g>
</svg>