<?xml version='1.0' encoding='UTF-8'?>
<svg viewBox="-5.5053 -2 32 32" xmlns="http://www.w3.org/2000/svg">
  <g transform="matrix(0.0547, 0, 0, 0.0547, 0, 0)">
    <path d="M192, 0C86.4, 0 0, 86.4 0, 192C0, 268.8 25.6, 291.2 172.8, 502.4C177.6, 508.8 184.8, 512 192, 512C199.2, 512 206.4, 508.8 211.2, 502.4C358.4, 291.2 384, 268.8 384, 192C384, 86.4 297.6, 0 192, 0zM192, 446.09C177.59, 425.53 164.49, 406.96 152.59, 390.09C58.35, 256.48 48, 240.2 48, 192C48, 112.6 112.6, 48 192, 48C271.4, 48 336, 112.6 336, 192C336, 240.2 325.65, 256.48 231.41, 390.09C219.51, 406.96 206.41, 425.53 192, 446.09zM265.54, 129.77L254.23, 118.46C247.98, 112.21 237.85, 112.21 231.6, 118.46L192, 158.06L152.4, 118.46C146.15, 112.21 136.02, 112.21 129.77, 118.46L118.46, 129.77C112.21, 136.02 112.21, 146.15 118.46, 152.4L158.06, 192L118.46, 231.6C112.21, 237.85 112.21, 247.98 118.46, 254.23L129.77, 265.54C136.02, 271.79 146.15, 271.79 152.4, 265.54L192, 225.94L231.6, 265.54C237.85, 271.79 247.98, 271.79 254.23, 265.54L265.54, 254.23C271.79, 247.98 271.79, 237.85 265.54, 231.6L225.94, 192L265.54, 152.4C271.79, 146.15 271.79, 136.02 265.54, 129.77z" fill="#727272" fill-opacity="1" class="Black" />
  </g>
</svg>