<?xml version='1.0' encoding='UTF-8'?>
<svg viewBox="-5.5053 -2 32 32" xmlns="http://www.w3.org/2000/svg">
  <g transform="matrix(0.0547, 0, 0, 0.0547, 0, 0)">
    <path d="M192, 0C86.4, 0 0, 86.4 0, 192C0, 268.8 25.6, 291.2 172.8, 502.4C177.6, 508.8 184.8, 512 192, 512C199.2, 512 206.4, 508.8 211.2, 502.4C358.4, 291.2 384, 268.8 384, 192C384, 86.4 297.6, 0 192, 0zM192, 446.09C177.59, 425.53 164.49, 406.97 152.59, 390.1C58.35, 256.48 48, 240.2 48, 192C48, 112.6 112.6, 48 192, 48C271.4, 48 336, 112.6 336, 192C336, 240.2 325.65, 256.48 231.41, 390.09C219.51, 406.96 206.41, 425.53 192, 446.09zM113.59, 214.43L108.79, 257.26C108.17, 262.94 112.97, 267.83 118.74, 267.21L161.57, 262.41L228.68, 195.3L180.7, 147.32L113.59, 214.43zM247.43, 106C240.41, 98.98 229.04, 98.98 222.02, 106L203.32, 124.7L251.3, 172.68L270, 153.98C277.02, 146.96 277.02, 135.59 270, 128.57L247.43, 106z" fill="#727272" fill-opacity="1" class="Black" />
  </g>
</svg>