<?xml version='1.0' encoding='UTF-8'?>
<svg viewBox="-8.1246 -2 32 32" xmlns="http://www.w3.org/2000/svg">
  <g transform="matrix(0.0547, 0, 0, 0.0547, 0, 0)">
    <path d="M144, 0C64.47, 0 0, 64.47 0, 144C0, 215.31 51.96, 274.1 120, 285.58L120, 483.22L136.51, 507.99C140.07, 513.33 147.92, 513.33 151.49, 507.99L168, 483.22L168, 285.58C236.04, 274.1 288, 215.31 288, 144C288, 64.47 223.53, 0 144, 0zM144, 240C91.06, 240 48, 196.93 48, 144C48, 91.06 91.06, 48 144, 48C196.94, 48 240, 91.06 240, 144C240, 196.93 196.94, 240 144, 240zM144, 80C108.72, 80 80, 108.7 80, 144C80, 152.84 87.16, 160 96, 160C104.84, 160 112, 152.84 112, 144C112, 126.36 126.34, 112 144, 112C152.84, 112 160, 104.84 160, 96C160, 87.16 152.84, 80 144, 80z" fill="#727272" fill-opacity="1" class="Black" />
  </g>
</svg>