<?xml version='1.0' encoding='UTF-8'?>
<svg viewBox="-5.5053 -2 32 32" xmlns="http://www.w3.org/2000/svg">
  <g transform="matrix(0.0547, 0, 0, 0.0547, 0, 0)">
    <path d="M192, 0C86.4, 0 0, 86.4 0, 192C0, 268.8 25.6, 291.2 172.8, 502.4C177.6, 508.8 184.8, 512 192, 512C199.2, 512 206.4, 508.8 211.2, 502.4C358.4, 291.2 384, 268.8 384, 192C384, 86.4 297.6, 0 192, 0zM192, 446.09C177.59, 425.53 164.49, 406.97 152.59, 390.1C58.35, 256.48 48, 240.2 48, 192C48, 112.6 112.6, 48 192, 48C271.4, 48 336, 112.6 336, 192C336, 240.2 325.65, 256.48 231.41, 390.09C219.51, 406.96 206.41, 425.53 192, 446.09zM136, 176C149.25, 176 160, 165.25 160, 152C160, 138.74 149.25, 128 136, 128C122.75, 128 112, 138.74 112, 152C112, 165.25 122.75, 176 136, 176zM248, 176C261.25, 176 272, 165.25 272, 152C272, 138.74 261.25, 128 248, 128C234.75, 128 224, 138.74 224, 152C224, 165.25 234.75, 176 248, 176zM238, 227.23C214.75, 253.61 169.31, 253.62 146, 227.21C137.19, 217.23 122.06, 216.37 112.09, 225.12C102.18, 233.9 101.25, 249.06 110, 259C130.78, 282.52 160.69, 296 192, 296C223.38, 296 253.25, 282.5 274, 258.98C282.78, 249.04 281.81, 233.87 271.88, 225.1C261.97, 216.36 246.81, 217.27 238, 227.23z" fill="#727272" fill-opacity="1" class="Black" />
  </g>
</svg>