<?xml version='1.0' encoding='UTF-8'?>
<svg viewBox="-5.5003 -2 32 32" xmlns="http://www.w3.org/2000/svg">
  <g transform="matrix(0.0547, 0, 0, 0.0547, 0, 0)">
    <path d="M192, 0C85.903, 0 0, 86.014 0, 192C0, 263.117 23.991, 285.341 151.271, 489.424C170.056, 519.543 213.965, 519.507 232.728, 489.424C360.075, 285.234 384, 263.103 384, 192C384, 85.903 297.986, 0 192, 0zM192, 464C64.576, 259.686 48, 246.788 48, 192C48, 112.471 112.471, 48 192, 48C271.529, 48 336, 112.471 336, 192C336, 246.553 320.834, 257.425 192, 464z" fill="#727272" fill-opacity="1" class="Black" />
  </g>
</svg>