<?xml version='1.0' encoding='UTF-8'?>
<svg viewBox="-5.5053 -2 32 32" xmlns="http://www.w3.org/2000/svg">
  <g transform="matrix(0.0547, 0, 0, 0.0547, 0, 0)">
    <path d="M192, 0C86.4, 0 0, 86.4 0, 192C0, 268.8 25.6, 291.2 172.8, 502.4C177.6, 508.8 184.8, 512 192, 512C199.2, 512 206.4, 508.8 211.2, 502.4C358.4, 291.2 384, 268.8 384, 192C384, 86.4 297.6, 0 192, 0zM192, 446.09C177.59, 425.53 164.49, 406.97 152.59, 390.1C58.35, 256.48 48, 240.2 48, 192C48, 112.6 112.6, 48 192, 48C271.4, 48 336, 112.6 336, 192C336, 240.2 325.65, 256.48 231.41, 390.09C219.51, 406.96 206.41, 425.53 192, 446.09zM194.67, 88C152.86, 88 117.77, 117.3 108.86, 156.45C106.58, 166.44 114.06, 176 124.3, 176L141.14, 176C148.36, 176 154.33, 171.01 156.47, 164.12C161.54, 147.85 176.74, 136 194.67, 136C220.65, 136 234.67, 156.61 234.67, 176C234.67, 191.96 214.6, 203.19 184, 218.5C175.86, 222.57 170.67, 230.9 170.67, 240L170.67, 256.16C170.67, 264.91 177.76, 272 186.51, 272L202.83, 272C211.58, 272 218.67, 264.91 218.67, 256.16L218.67, 254.73C249.92, 238.46 282.67, 216.95 282.67, 176C282.67, 132.75 249.75, 88 194.67, 88zM192, 288C174.33, 288 160, 302.33 160, 320C160, 337.67 174.33, 352 192, 352C209.67, 352 224, 337.67 224, 320C224, 302.33 209.67, 288 192, 288z" fill="#727272" fill-opacity="1" class="Black" />
  </g>
</svg>