<?xml version='1.0' encoding='UTF-8'?>
<svg viewBox="-1.9975 -4.7983 31.9975 32" xmlns="http://www.w3.org/2000/svg">
  <g transform="matrix(0.9989, 0, 0, 0.9989, 0, 0)">
    <g transform="matrix(0.0438, 0, 0, 0.0438, 0, 0)">
      <path d="M633.99, 471.02L36, 3.51C29.1, -2.01 19.03, -0.9 13.51, 6L3.51, 18.49C-2.02, 25.39 -0.9, 35.46 6, 40.98L604, 508.49C610.9, 514.01 620.96, 512.89 626.49, 506L636.49, 493.51C642.01, 486.61 640.9, 476.54 633.99, 471.02zM320, 48C399.4, 48 464, 112.6 464, 192C464, 217.07 461.07, 233.62 445.12, 262.43L483.35, 292.32C505.9, 253.46 512, 228.95 512, 192C512, 86.4 425.6, 0 320, 0C266.58, 0 218.12, 22.16 183.23, 57.69L221.45, 87.57C247.25, 63.21 281.8, 48 320, 48zM285.77, 137.85L380.6, 211.99C382.63, 205.68 384, 199.06 384, 192C384, 156.16 355.84, 128 320, 128C307.29, 128 295.63, 131.68 285.77, 137.85zM359.41, 390.09C347.51, 406.96 334.41, 425.53 320, 446.08C305.59, 425.52 292.49, 406.96 280.59, 390.09C222.32, 307.49 196.17, 269.76 184.66, 241.58L128.13, 197.38C129.4, 269.87 157.18, 296.34 300.8, 502.4C305.6, 508.8 312.8, 512 320, 512C327.2, 512 334.4, 508.8 339.2, 502.4C363.66, 467.3 384.49, 437.81 402.67, 412.02L364.81, 382.42C362.97, 385.03 361.31, 387.39 359.41, 390.09z" fill="#727272" fill-opacity="1" class="Black" />
    </g>
  </g>
</svg>