<?xml version='1.0' encoding='UTF-8'?>
<svg viewBox="-5.5053 -2 32 32" xmlns="http://www.w3.org/2000/svg">
  <g transform="matrix(0.0547, 0, 0, 0.0547, 0, 0)">
    <path d="M192, 0C86.4, 0 0, 86.4 0, 192C0, 268.8 25.6, 291.2 172.8, 502.4C177.6, 508.8 184.8, 512 192, 512C199.2, 512 206.4, 508.8 211.2, 502.4C358.4, 291.2 384, 268.8 384, 192C384, 86.4 297.6, 0 192, 0zM192, 446.09C177.59, 425.53 164.49, 406.97 152.59, 390.1C58.35, 256.48 48, 240.2 48, 192C48, 112.6 112.6, 48 192, 48C271.4, 48 336, 112.6 336, 192C336, 240.2 325.65, 256.48 231.41, 390.09C219.51, 406.96 206.41, 425.53 192, 446.09zM291.93, 153.77L268.72, 130.37C264.87, 126.49 258.61, 126.47 254.74, 130.31L167.38, 216.97L129.5, 178.78C125.66, 174.9 119.39, 174.88 115.52, 178.72L92.12, 201.93C88.24, 205.78 88.22, 212.04 92.06, 215.91L160.11, 284.51C163.96, 288.39 170.22, 288.41 174.09, 284.57L291.87, 167.74C295.75, 163.9 295.78, 157.64 291.93, 153.77z" fill="#727272" fill-opacity="1" class="Black" />
  </g>
</svg>