<?xml version='1.0' encoding='UTF-8'?>
<svg viewBox="-5.5053 -2 32 32" xmlns="http://www.w3.org/2000/svg">
  <g transform="matrix(0.0547, 0, 0, 0.0547, 0, 0)">
    <path d="M192, 0C86.4, 0 0, 86.4 0, 192C0, 268.8 25.6, 291.2 172.8, 502.4C177.6, 508.8 184.8, 512 192, 512C199.2, 512 206.4, 508.8 211.2, 502.4C358.4, 291.2 384, 268.8 384, 192C384, 86.4 297.6, 0 192, 0zM192, 446.09C177.59, 425.53 164.49, 406.97 152.59, 390.1C58.35, 256.48 48, 240.2 48, 192C48, 112.6 112.6, 48 192, 48C271.4, 48 336, 112.6 336, 192C336, 240.2 325.65, 256.48 231.41, 390.09C219.51, 406.96 206.41, 425.53 192, 446.09zM192, 256C174.33, 256 160, 270.33 160, 288C160, 305.67 174.33, 320 192, 320C209.67, 320 224, 305.67 224, 288C224, 270.33 209.67, 256 192, 256zM220.72, 96L163.28, 96C153.26, 96 145.71, 105.1 147.55, 114.95L165.55, 210.95A16.001 16.001 0 0 0 181.28, 224L202.72, 224C210.42, 224 217.03, 218.52 218.45, 210.95L236.45, 114.95C238.29, 105.1 230.74, 96 220.72, 96z" fill="#727272" fill-opacity="1" class="Black" />
  </g>
</svg>