<?xml version='1.0' encoding='UTF-8'?>
<svg viewBox="-2 -3.554 32 32" xmlns="http://www.w3.org/2000/svg">
  <g transform="matrix(0.0486, 0, 0, 0.0486, 0, 0)">
    <path d="M560.02, 32C558.06, 32 556.04, 32.37 554.06, 33.16L384.01, 96L384, 96L212, 35.28A64.252 64.252 0 0 0 191.76, 32C185.07, 32 178.39, 33.05 171.95, 35.14L20.12, 87.95A32.006 32.006 0 0 0 0, 117.66L0, 463.98C0, 473.17 7.53, 480 15.99, 480C17.95, 480 19.96, 479.63 21.95, 478.84L192, 416L364, 476.71A63.98 63.98 0 0 0 404.05, 476.86L555.88, 424.05A31.996 31.996 0 0 0 576, 394.34L576, 48.02C576, 38.83 568.47, 32 560.02, 32zM224, 90.42L352, 135.61L352, 421.58L224, 376.39L224, 90.42zM48, 418.05L48, 129.07L176, 84.54L176, 370.74L175.36, 370.97L48, 418.05zM528, 382.92L400, 427.45L400, 141.26L400.64, 141.02L528, 93.95L528, 382.92z" fill="#727272" fill-opacity="1" class="Black" />
  </g>
</svg>