<?xml version='1.0' encoding='UTF-8'?>
<svg viewBox="-1.9973 -2.0011 31.995 32" xmlns="http://www.w3.org/2000/svg">
  <g transform="matrix(0.0547, 0, 0, 0.0547, 0, 0)">
    <path d="M485.48, 26.51C467.81, 8.84 444.64, 0 421.47, 0C398.3, 0 375.14, 8.84 357.46, 26.51L335.7, 48.27L299.15, 11.72C283.53, -3.9 258.2, -3.9 242.59, 11.72L123.8, 130.5C117.55, 136.75 117.55, 146.88 123.8, 153.13L135.11, 164.44C141.36, 170.69 151.49, 170.69 157.74, 164.44L270.87, 51.31L301.77, 82.21L93.95, 290.02A327.038 327.038 0 0 0 0.17, 485.11L0.14, 485.34C-1.45, 499.72 9.88, 512 23.95, 512C29.68, 512 135.01, 505.01 221.98, 418.05L485.49, 154.54C520.84, 119.18 520.84, 61.87 485.48, 26.51zM188.03, 384.11C151.01, 421.13 104.04, 446.99 53.29, 458.71C65.01, 407.97 90.88, 360.98 127.89, 323.97L200.96, 250.9L261.1, 311.04L188.03, 384.11zM451.55, 120.59L295.04, 277.1L234.9, 216.96L391.41, 60.46C399.44, 52.42 410.12, 48 421.47, 48C432.83, 48 443.51, 52.42 451.54, 60.46C459.58, 68.49 464, 79.17 464, 90.52C464, 101.88 459.58, 112.56 451.55, 120.59z" fill="#727272" fill-opacity="1" class="Black" />
  </g>
</svg>