<?xml version='1.0' encoding='UTF-8'?>
<svg viewBox="-2 -2 32 32" xmlns="http://www.w3.org/2000/svg">
  <g transform="matrix(0.0547, 0, 0, 0.0547, 0, 0)">
    <path d="M288, 208C288, 176.9 278.1, 148.1 261.4, 124.6L317, 69L331.5, 83.5C339.1, 91.1 352, 85.7 352, 75L352, 12C352, 5.4 346.6, 0 340, 0L277, 0C266.3, 0 261, 12.9 268.5, 20.5L283, 35L227.4, 90.6C203.9, 73.9 175.1, 64 144, 64C64.5, 64 0, 128.5 0, 208C0, 287.5 64.5, 352 144, 352C223.5, 352 288, 287.5 288, 208zM144, 304C91.1, 304 48, 260.9 48, 208C48, 155.1 91.1, 112 144, 112C196.9, 112 240, 155.1 240, 208C240, 260.9 196.9, 304 144, 304zM512, 172L512, 235C512, 245.7 499.1, 251 491.5, 243.5L477, 229L421.4, 284.6C438.2, 308.1 448, 336.9 448, 368C448, 447.5 383.5, 512 304, 512C229.6, 512 168.4, 455.6 160.8, 383.2C176.9, 381.7 192.8, 377.9 208.1, 372C210.2, 423.1 252.4, 464 304, 464C356.9, 464 400, 420.9 400, 368C400, 316.4 359.1, 274.2 308, 272.1C314, 256.8 317.7, 240.9 319.2, 224.8C344.5, 227.5 367.8, 236.6 387.4, 250.6L443, 195L428.5, 180.5C420.9, 172.9 426.3, 160 437, 160L500, 160C506.6, 160 512, 165.4 512, 172z" fill="#727272" fill-opacity="1" class="Black" />
  </g>
</svg>