<?xml version='1.0' encoding='UTF-8'?>
<svg viewBox="-2 2.6671 32 32" xmlns="http://www.w3.org/2000/svg">
  <g transform="matrix(0.0729, 0, 0, 0.0729, 0, 0)">
    <path d="M372, 64L309, 64C298.3, 64 293, 76.9 300.5, 84.5L315, 99L291.6, 122.4L277.5, 108.3C272.8, 103.6 265.2, 103.6 260.5, 108.3L243.5, 125.3C238.8, 130 238.8, 137.6 243.5, 142.3L257.6, 156.4L227.4, 186.6C203.9, 169.9 175.1, 160 144, 160C64.5, 160 0, 224.5 0, 304C0, 383.5 64.5, 448 144, 448C223.5, 448 288, 383.5 288, 304C288, 272.9 278.1, 244.1 261.4, 220.6L291.6, 190.4L305.7, 204.5C310.4, 209.2 318, 209.2 322.7, 204.5L339.7, 187.5C344.4, 182.8 344.4, 175.2 339.7, 170.5L325.6, 156.4L349, 133L363.5, 147.5C371.1, 155.1 384, 149.7 384, 139L384, 76C384, 69.4 378.6, 64 372, 64zM144, 400C91.1, 400 48, 356.9 48, 304C48, 251.1 91.1, 208 144, 208C196.9, 208 240, 251.1 240, 304C240, 356.9 196.9, 400 144, 400z" fill="#727272" fill-opacity="1" class="Black" />
  </g>
</svg>