<?xml version='1.0' encoding='UTF-8'?>
<svg viewBox="-7.5666 -1.9048 32 31.9975" xmlns="http://www.w3.org/2000/svg">
  <g transform="matrix(0.0585, 0, 0, 0.0585, 0, 0)">
    <path d="M245.8, 234.2C223.8, 212.2 196.5, 198.8 168, 194L168, 151.3L188, 151.3C194.6, 151.3 200, 145.9 200, 139.3L200, 115.3C200, 108.7 194.6, 103.3 188, 103.3L168, 103.3L168, 70.1L188.6, 70.1C199.3, 70.1 204.6, 57.2 197.1, 49.6L152.5, 5.1C147.8, 0.4 140.2, 0.4 135.5, 5.1L90.9, 49.6C83.3, 57.2 88.7, 70.1 99.4, 70.1L120, 70.1L120, 103.2L100, 103.2C93.4, 103.2 88, 108.6 88, 115.2L88, 139.2C88, 145.8 93.4, 151.2 100, 151.2L120, 151.2L120, 194C91.5, 198.8 64.2, 212.2 42.2, 234.2C-14, 290.4 -14, 381.6 42.2, 437.8C98.4, 494 189.6, 494 245.8, 437.8C302.1, 381.6 302.1, 290.4 245.8, 234.2zM211.9, 403.9C174.5, 441.3 113.6, 441.3 76.1, 403.9C38.7, 366.5 38.7, 305.6 76.1, 268.1C113.5, 230.7 174.4, 230.7 211.9, 268.1C249.3, 305.5 249.3, 366.5 211.9, 403.9z" fill="#727272" fill-opacity="1" class="Black" />
  </g>
</svg>