<?xml version='1.0' encoding='UTF-8'?>
<svg viewBox="-1.9974 -1.9999 31.995 32" xmlns="http://www.w3.org/2000/svg">
  <g transform="matrix(0.0547, 0, 0, 0.0547, 0, 0)">
    <path d="M342.17, 281.67L289.74, 274.03L266.31, 226.51C264.2, 222.26 260.09, 220.12 255.98, 220.12C251.9, 220.12 247.82, 222.24 245.7, 226.51L222.27, 274.03L169.84, 281.67C160.44, 283.03 156.67, 294.63 163.49, 301.26L201.42, 338.22L192.45, 390.44C191.17, 397.9 197.12, 403.88 203.77, 403.88C205.54, 403.88 207.35, 403.46 209.1, 402.53L256, 377.88L302.9, 402.53C304.64, 403.45 306.45, 403.86 308.21, 403.86C314.87, 403.86 320.83, 397.9 319.55, 390.43L310.58, 338.21L348.51, 301.25C355.34, 294.62 351.57, 283.03 342.17, 281.67zM495.97, 0L338.12, 0C326.88, 0 316.46, 5.9 310.68, 15.54L256, 106.67L201.32, 15.54A31.997 31.997 0 0 0 173.88, 0L16.03, 0C3.08, 0 -4.5, 14.57 2.92, 25.18L116.91, 188.03C84.21, 222.47 64, 268.87 64, 320C64, 425.87 150.13, 512 256, 512C361.87, 512 448, 425.87 448, 320C448, 268.87 427.79, 222.47 395.09, 188.02L509.08, 25.18C516.5, 14.57 508.92, 0 495.97, 0zM77.49, 48L164.82, 48L215.46, 132.4C193.35, 137.18 172.73, 145.85 154.16, 157.53L77.49, 48zM400, 320C400, 399.53 335.53, 464 256, 464C176.47, 464 112, 399.53 112, 320C112, 240.47 176.47, 176 256, 176C335.53, 176 400, 240.47 400, 320zM357.84, 157.53C339.27, 145.85 318.65, 137.17 296.54, 132.4L347.18, 48L434.51, 48L357.84, 157.53z" fill="#727272" fill-opacity="1" class="Black" />
  </g>
</svg>