<?xml version='1.0' encoding='UTF-8'?>
<svg viewBox="-2 -3.554 32 32" xmlns="http://www.w3.org/2000/svg">
  <g transform="matrix(0.0486, 0, 0, 0.0486, 0, 0)">
    <path d="M560, 32L544, 32C535.16, 32 528, 39.16 528, 48L528, 60.94L47.28, 172.41C45.61, 165.36 39.56, 160 32, 160L16, 160C7.16, 160 0, 167.16 0, 176L0, 336C0, 344.84 7.16, 352 16, 352L32, 352C39.56, 352 45.61, 346.64 47.28, 339.59L162.29, 366.26C161.12, 372.04 160.01, 377.86 160.01, 384C160.01, 437.02 202.99, 480 256.01, 480C300.2, 480 337, 450.01 348.09, 409.34L528, 451.06L528, 464C528, 472.84 535.16, 480 544, 480L560, 480C568.84, 480 576, 472.84 576, 464L576, 48C576, 39.16 568.84, 32 560, 32zM256, 432C229.53, 432 208, 410.47 208, 384C208, 381.58 208.9, 379.46 209.25, 377.15L301.5, 398.54C295.3, 417.87 277.37, 432 256, 432zM48, 290.5L48, 221.5L528, 110.19L528, 401.8L48, 290.5z" fill="#727272" fill-opacity="1" class="Black" />
  </g>
</svg>