<?xml version='1.0' encoding='UTF-8'?>
<svg viewBox="-1.9999 -1.549 31.9975 32" xmlns="http://www.w3.org/2000/svg">
  <g transform="matrix(0.999, 0, 0, 0.999, 0, 0)">
    <g transform="matrix(0.0565, 0, 0, 0.0565, 0, 0)">
      <path d="M248, 8C111, 8 0, 119 0, 256C0, 393 111, 504 248, 504C385, 504 496, 393 496, 256C496, 119 385, 8 248, 8zM248, 456C137.7, 456 48, 366.3 48, 256C48, 145.7 137.7, 56 248, 56C358.3, 56 448, 145.7 448, 256C448, 366.3 358.3, 456 248, 456zM336, 152C296.2, 152 264, 184.2 264, 224C264, 263.8 296.2, 296 336, 296C375.8, 296 408, 263.8 408, 224C408, 184.2 375.8, 152 336, 152zM336, 264C313.9, 264 296, 246.1 296, 224C296, 210.4 303.3, 198.9 313.7, 191.7C312.7, 194.3 312, 197 312, 200C312, 213.3 322.7, 224 336, 224C349.3, 224 360, 213.3 360, 200C360, 197.1 359.3, 194.3 358.3, 191.7C368.7, 198.9 376, 210.4 376, 224C376, 246.1 358.1, 264 336, 264zM232, 224C232, 184.2 199.8, 152 160, 152C120.2, 152 88, 184.2 88, 224C88, 263.8 120.2, 296 160, 296C199.8, 296 232, 263.8 232, 224zM120, 224C120, 210.4 127.3, 198.9 137.7, 191.7C136.7, 194.3 136, 197 136, 200C136, 213.3 146.7, 224 160, 224C173.3, 224 184, 213.3 184, 200C184, 197.1 183.3, 194.3 182.3, 191.7C192.7, 198.9 200, 210.4 200, 224C200, 246.1 182.1, 264 160, 264C137.9, 264 120, 246.1 120, 224zM312, 352L184, 352C170.8, 352 160, 362.8 160, 376C160, 389.2 170.8, 400 184, 400L312, 400C325.2, 400 336, 389.2 336, 376C336, 362.8 325.2, 352 312, 352z" fill="#727272" fill-opacity="1" class="Black" />
    </g>
  </g>
</svg>