<?xml version='1.0' encoding='UTF-8'?>
<svg viewBox="-1.9999 -1.549 31.9975 32" xmlns="http://www.w3.org/2000/svg">
  <g transform="matrix(0.999, 0, 0, 0.999, 0, 0)">
    <g transform="matrix(0.0565, 0, 0, 0.0565, 0, 0)">
      <path d="M248, 8C111, 8 0, 119 0, 256C0, 393 111, 504 248, 504C385, 504 496, 393 496, 256C496, 119 385, 8 248, 8zM248, 456C137.7, 456 48, 366.3 48, 256C48, 145.7 137.7, 56 248, 56C358.3, 56 448, 145.7 448, 256C448, 366.3 358.3, 456 248, 456zM168, 176C150.3, 176 136, 190.3 136, 208C136, 225.7 150.3, 240 168, 240C185.7, 240 200, 225.7 200, 208C200, 190.3 185.7, 176 168, 176zM328, 176C310.3, 176 296, 190.3 296, 208C296, 225.7 310.3, 240 328, 240C345.7, 240 360, 225.7 360, 208C360, 190.3 345.7, 176 328, 176z" fill="#727272" fill-opacity="1" class="Black" />
    </g>
  </g>
</svg>