<?xml version='1.0' encoding='UTF-8'?>
<svg viewBox="-8.1246 -2 32 32" xmlns="http://www.w3.org/2000/svg">
  <g transform="matrix(0.0547, 0, 0, 0.0547, 0, 0)">
    <path d="M288, 208C288, 157.7 262.2, 113.4 223, 87.6C226.2, 85.4 229.2, 83 232.2, 80.4C253.3, 62.3 266.3, 39 269.7, 13.6C270.7, 6.4 265.1, 0 257.8, 0L233.5, 0C227.8, 0 222.8, 4 221.7, 9.7C216, 40.4 183.3, 64 144, 64C104.7, 64 72, 40.4 66.2, 9.7C65.2, 4 60.2, 0 54.5, 0L30.1, 0C22.8, 0 17.2, 6.4 18.2, 13.6C21.7, 39 34.7, 62.4 55.8, 80.4C58.8, 82.9 61.8, 85.3 65, 87.6C25.8, 113.4 0, 157.7 0, 208C0, 279.6 52.2, 338.9 120.6, 350.1C120.2, 351.3 120, 352.5 120, 353.8L120, 408L76, 408C69.4, 408 64, 413.4 64, 420L64, 444C64, 450.6 69.4, 456 76, 456L120, 456L120, 500C120, 506.6 125.4, 512 132, 512L156, 512C162.6, 512 168, 506.6 168, 500L168, 456L212, 456C218.6, 456 224, 450.6 224, 444L224, 420C224, 413.4 218.6, 408 212, 408L168, 408L168, 353.8C168, 352.5 167.8, 351.2 167.4, 350.1C235.8, 338.9 288, 279.6 288, 208zM144, 304C91.1, 304 48, 260.9 48, 208C48, 155.1 91.1, 112 144, 112C196.9, 112 240, 155.1 240, 208C240, 260.9 196.9, 304 144, 304z" fill="#727272" fill-opacity="1" class="Black" />
  </g>
</svg>