<?xml version='1.0' encoding='UTF-8'?>
<svg viewBox="-2.0086 -2.0023 32 31.9975" xmlns="http://www.w3.org/2000/svg">
  <g transform="matrix(0.0547, 0, 0, 0.0547, 0, 0)">
    <path d="M502.3, 9.7C493.7, 1 481, -2.2 469.2, 1.4C440.8, 9.9 374.2, 30.6 315.9, 53.7C312.1, 43.9 304.6, 36 294.8, 32C284.2, 27.5 272.2, 28.1 262, 33.4C219.8, 55.4 115.7, 112.6 58.5, 169.7C-19.7, 247.9 -19.7, 375.1 58.5, 453.3C96.4, 491.2 146.7, 512 200.3, 512C253.9, 512 304.2, 491.2 342.1, 453.3C399.2, 396.3 456.5, 292 478.5, 249.9C483.8, 239.7 484.3, 227.7 479.9, 217.1C475.8, 207.4 468, 199.8 458.1, 196C481.3, 137.5 501.9, 71.1 510.4, 42.8C514.1, 31 511, 18.4 502.3, 9.7zM419.3, 234.4C423.3, 235.6 427.1, 236.7 430.7, 237.7C406.8, 282.5 356.7, 370.9 308.2, 419.3C279.4, 448.1 241.1, 464 200.4, 464C159.6, 464 121.4, 448.1 92.5, 419.3C33.1, 359.8 33.1, 263.1 92.5, 203.6C141.6, 154.5 234.3, 102.5 274.2, 81.2C275.3, 84.8 276.4, 88.6 277.6, 92.6L285.2, 118.6L310.1, 107.9C357.7, 87.5 417.5, 67.7 456.4, 55.5C444.2, 94.3 424.5, 153.9 404, 201.8L393.3, 226.7L419.3, 234.4zM199.9, 200C138, 200 87.9, 250.1 87.9, 312C87.9, 373.9 138.1, 424 199.9, 424C261.7, 424 311.9, 373.9 311.9, 312C311.9, 250.1 261.8, 200 199.9, 200zM175.9, 312C162.6, 312 151.9, 301.3 151.9, 288C151.9, 274.7 162.6, 264 175.9, 264C189.2, 264 199.9, 274.7 199.9, 288C199.9, 301.3 189.2, 312 175.9, 312zM215.9, 376C207.1, 376 199.9, 368.8 199.9, 360C199.9, 351.2 207.1, 344 215.9, 344C224.7, 344 231.9, 351.2 231.9, 360C231.9, 368.8 224.8, 376 215.9, 376z" fill="#727272" fill-opacity="1" class="Black" />
  </g>
</svg>