<?xml version='1.0' encoding='UTF-8'?>
<svg viewBox="-6.3751 -2 32 32" xmlns="http://www.w3.org/2000/svg">
  <g transform="matrix(0.0547, 0, 0, 0.0547, 0, 0)">
    <path d="M336, 192L320, 192C311.16, 192 304, 199.16 304, 208L304, 256C304, 330.8 239.51, 390.82 163.21, 383.38C96.71, 376.89 48, 317.11 48, 250.3L48, 208C48, 199.16 40.84, 192 32, 192L16, 192C7.16, 192 0, 199.16 0, 208L0, 248.16C0, 337.8 63.97, 417.71 152, 429.85L152, 464L96, 464C87.16, 464 80, 471.16 80, 480L80, 496C80, 504.84 87.16, 512 96, 512L256, 512C264.84, 512 272, 504.84 272, 496L272, 480C272, 471.16 264.84, 464 256, 464L200, 464L200, 430.23C285.71, 418.47 352, 344.9 352, 256L352, 208C352, 199.16 344.84, 192 336, 192zM176, 352C229.02, 352 272, 309.02 272, 256L272, 96C272, 42.98 229.02, 0 176, 0C122.98, 0 80, 42.98 80, 96L80, 256C80, 309.02 122.98, 352 176, 352zM128, 96C128, 69.53 149.53, 48 176, 48C202.47, 48 224, 69.53 224, 96L184, 96C179.58, 96 176, 99.58 176, 104L176, 120C176, 124.42 179.58, 128 184, 128L224, 128L224, 160L184, 160C179.58, 160 176, 163.58 176, 168L176, 184C176, 188.42 179.58, 192 184, 192L224, 192L224, 224L184, 224C179.58, 224 176, 227.58 176, 232L176, 248C176, 252.42 179.58, 256 184, 256L224, 256C224, 282.47 202.47, 304 176, 304C149.53, 304 128, 282.47 128, 256L128, 96z" fill="#727272" fill-opacity="1" class="Black" />
  </g>
</svg>