<?xml version='1.0' encoding='UTF-8'?>
<svg viewBox="-1.9999 -1.9999 32 32" xmlns="http://www.w3.org/2000/svg">
  <g transform="matrix(0.0547, 0, 0, 0.0547, 0, 0)">
    <path d="M476, 464L435.5, 464C472.56, 430.32 496, 381.9 496, 328C496, 229.25 417.74, 148.64 320, 144.4L320, 97.14C320, 78.75 309.84, 62.69 294.84, 54.26L294.84, 36.58C294.84, 16.41 278.44, 0 258.28, 0L157.72, 0C137.56, 0 121.16, 16.41 121.16, 36.58L121.16, 54.27C106.16, 62.69 96, 78.75 96, 97.14L96, 294.86C96, 316.88 110.56, 335.56 130.56, 341.8L130.56, 379.42C130.56, 399.59 146.97, 416 167.15, 416L248.84, 416C269.03, 416 285.43, 399.59 285.43, 379.42L285.43, 341.8C305.43, 335.57 319.99, 316.88 319.99, 294.86L319.99, 192.81C391.2, 197.04 447.99, 255.76 447.99, 328C447.99, 402.98 386.99, 464 311.99, 464L36, 464C16.12, 464 0, 480.12 0, 500C0, 506.63 5.37, 512 12, 512L500, 512C506.63, 512 512, 506.63 512, 500C512, 480.12 495.88, 464 476, 464zM178.56, 368L178.56, 328L237.44, 328L237.44, 368L178.56, 368zM270.84, 296L145.16, 296L144, 294.86L145.16, 96L169.16, 96L169.16, 48L246.85, 48L248, 96L272, 96L270.84, 296z" fill="#727272" fill-opacity="1" class="Black" />
  </g>
</svg>