<?xml version='1.0' encoding='UTF-8'?>
<svg viewBox="-1.9975 -4.7983 31.9975 32" xmlns="http://www.w3.org/2000/svg">
  <g transform="matrix(0.9989, 0, 0, 0.9989, 0, 0)">
    <g transform="matrix(0.0438, 0, 0, 0.0438, 0, 0)">
      <path d="M633.99, 471.02L36, 3.51C29.1, -2.01 19.03, -0.9 13.51, 6L3.51, 18.49C-2.02, 25.39 -0.9, 35.46 6, 40.98L604, 508.49C610.9, 514.01 620.96, 512.89 626.49, 506L636.49, 493.51C642.01, 486.61 640.9, 476.54 633.99, 471.02zM496, 256L496, 208C496, 199.16 488.84, 192 480, 192L464, 192C455.16, 192 448, 199.16 448, 208L448, 256C448, 258.75 447.31, 261.31 447.14, 264.01L490.35, 297.79C493.67, 284.32 496, 270.48 496, 256zM400, 464L344, 464L344, 430.23C364.68, 427.39 384.14, 420.8 401.9, 411.42L358.8, 377.73C342.71, 382.87 325.34, 385.15 307.21, 383.38C240.72, 376.89 192, 317.11 192, 250.3L192, 247.32L144, 209.79L144, 248.16C144, 337.8 207.97, 417.71 296, 429.85L296, 464L240, 464C231.16, 464 224, 471.16 224, 480L224, 496C224, 504.84 231.16, 512 240, 512L400, 512C408.84, 512 416, 504.84 416, 496L416, 480C416, 471.16 408.84, 464 400, 464zM272, 96C272, 69.53 293.53, 48 320, 48C346.47, 48 368, 69.53 368, 96L368, 202.14L416, 239.67L416, 96C416, 42.98 373.02, 0 320, 0C269.03, 0 227.74, 39.85 224.6, 90.03L272, 127.08L272, 96z" fill="#727272" fill-opacity="1" class="Black" />
    </g>
  </g>
</svg>