<?xml version='1.0' encoding='UTF-8'?>
<svg viewBox="-2 -2 32 32" xmlns="http://www.w3.org/2000/svg">
  <g transform="matrix(0.0547, 0, 0, 0.0547, 0, 0)">
    <path d="M368.5, 0L144, 0C117.5, 0 96, 21.5 96, 48L96, 464C96, 490.5 117.5, 512 144, 512L368.5, 512C395, 512 416.5, 490.5 416.5, 464L416.5, 48C416.5, 21.5 395, 0 368.5, 0zM368.5, 457C368.5, 460.3 365.8, 464 362.5, 464L150, 464C146.7, 464 144, 460.3 144, 457L144, 54C144, 50.7 146.7, 48 150, 48L362.5, 48C365.8, 48 368.5, 50.7 368.5, 54L368.5, 457zM512, 106L512, 118C512, 121.3 509.3, 124 506, 124L488, 124L488, 130C488, 133.3 485.3, 136 482, 136L440, 136L440, 88L482, 88C485.3, 88 488, 90.7 488, 94L488, 100L506, 100C509.3, 100 512, 102.7 512, 106zM512, 202L512, 214C512, 217.3 509.3, 220 506, 220L488, 220L488, 226C488, 229.3 485.3, 232 482, 232L440, 232L440, 184L482, 184C485.3, 184 488, 186.7 488, 190L488, 196L506, 196C509.3, 196 512, 198.7 512, 202zM512, 298L512, 310C512, 313.3 509.3, 316 506, 316L488, 316L488, 322C488, 325.3 485.3, 328 482, 328L440, 328L440, 280L482, 280C485.3, 280 488, 282.7 488, 286L488, 292L506, 292C509.3, 292 512, 294.7 512, 298zM512, 394L512, 406C512, 409.3 509.3, 412 506, 412L488, 412L488, 418C488, 421.3 485.3, 424 482, 424L440, 424L440, 376L482, 376C485.3, 376 488, 378.7 488, 382L488, 388L506, 388C509.3, 388 512, 390.7 512, 394zM30, 376L72, 376L72, 424L30, 424C26.7, 424 24, 421.3 24, 418L24, 412L6, 412C2.7, 412 0, 409.3 0, 406L0, 394C0, 390.7 2.7, 388 6, 388L24, 388L24, 382C24, 378.7 26.7, 376 30, 376zM30, 280L72, 280L72, 328L30, 328C26.7, 328 24, 325.3 24, 322L24, 316L6, 316C2.7, 316 0, 313.3 0, 310L0, 298C0, 294.7 2.7, 292 6, 292L24, 292L24, 286C24, 282.7 26.7, 280 30, 280zM30, 184L72, 184L72, 232L30, 232C26.7, 232 24, 229.3 24, 226L24, 220L6, 220C2.7, 220 0, 217.3 0, 214L0, 202C0, 198.7 2.7, 196 6, 196L24, 196L24, 190C24, 186.7 26.7, 184 30, 184zM30, 88L72, 88L72, 136L30, 136C26.7, 136 24, 133.3 24, 130L24, 124L6, 124C2.7, 124 0, 121.3 0, 118L0, 106C0, 102.7 2.7, 100 6, 100L24, 100L24, 94C24, 90.7 26.7, 88 30, 88z" fill="#727272" fill-opacity="1" class="Black" />
  </g>
</svg>