<?xml version='1.0' encoding='UTF-8'?>
<svg viewBox="-1.995 -3.5542 31.9975 32" xmlns="http://www.w3.org/2000/svg">
  <g transform="matrix(0.0486, 0, 0, 0.0486, 0, 0)">
    <path d="M542.1, 213.4C516.1, 187.4 452.5, 174.8 411.2, 169.2L312, 70.1L312, 16C312, 7.2 304.8, 0 296, 0L280, 0C271.2, 0 264, 7.2 264, 16L264, 70.1L164.9, 169.2C123.6, 174.8 60, 187.4 34, 213.4C-6, 253.4 -11.4, 312.8 21.9, 346.1C36.5, 360.8 56.3, 368 77.2, 368C103.8, 368 132.2, 356.5 154.6, 334.1C169.5, 319.2 179.9, 292.1 187.2, 263.9C192.8, 268.8 199.9, 272 208, 272C225.7, 272 240, 257.7 240, 240C240, 222.3 225.7, 208 208, 208C204.4, 208 201.1, 209 197.8, 210.1C198.2, 207.7 198.5, 205.5 198.8, 203.2L264, 138L264, 282.3C235.6, 315.1 192, 371.5 192, 409.6C192, 466.2 235, 512 288, 512C341, 512 384, 466.2 384, 409.6C384, 371.5 340.4, 315 312, 282.3L312, 137.9L377.2, 203.1C382.8, 244.4 395.4, 308 421.4, 334C443.8, 356.4 472.2, 367.9 498.8, 367.9C519.7, 367.9 539.5, 360.7 554.2, 346.1C587.5, 312.8 582.1, 253.4 542.1, 213.4zM120.7, 300.1C108.2, 312.6 92, 320 77.2, 320C71, 320 62.2, 318.6 55.8, 312.2C41.7, 298.1 47.4, 267.8 67.9, 247.3C78.3, 236.9 111.3, 227 147.7, 220.4C141, 256.7 131.1, 289.7 120.7, 300.1zM336, 409.6C336, 439.6 314.5, 464 288, 464C261.5, 464 240, 439.6 240, 409.6C240, 395.8 260.4, 362.1 288, 328.1C315.3, 362 336, 396 336, 409.6zM520.2, 312.2C513.8, 318.6 505, 320 498.8, 320C484, 320 467.8, 312.6 455.4, 300.1C445, 289.7 435.1, 256.7 428.5, 220.4C464.8, 227 497.9, 237 508.2, 247.3C528.6, 267.8 534.3, 298.1 520.2, 312.2zM384, 64C401.7, 64 416, 49.7 416, 32C416, 14.3 401.7, 0 384, 0C366.3, 0 352, 14.3 352, 32C352, 49.7 366.3, 64 384, 64z" fill="#727272" fill-opacity="1" class="Black" />
  </g>
</svg>