<?xml version='1.0' encoding='UTF-8'?>
<svg viewBox="-7.2499 -2 32 32" xmlns="http://www.w3.org/2000/svg">
  <g transform="matrix(0.0547, 0, 0, 0.0547, 0, 0)">
    <path d="M228, 368L92, 368C85.4, 368 80, 362.6 80, 356L80, 92C80, 85.4 85.4, 80 92, 80L228, 80C234.6, 80 240, 85.4 240, 92L240, 356C240, 362.6 234.6, 368 228, 368zM320, 48L320, 464C320, 490.5 298.5, 512 272, 512L48, 512C21.5, 512 0, 490.5 0, 464L0, 48C0, 21.5 21.5, 0 48, 0L272, 0C298.5, 0 320, 21.5 320, 48zM272, 458L272, 54C272, 50.7 269.3, 48 266, 48L54, 48C50.7, 48 48, 50.7 48, 54L48, 458C48, 461.3 50.7, 464 54, 464L266, 464C269.3, 464 272, 461.3 272, 458zM208, 420L208, 412C208, 405.4 202.6, 400 196, 400L124, 400C117.4, 400 112, 405.4 112, 412L112, 420C112, 426.6 117.4, 432 124, 432L196, 432C202.6, 432 208, 426.6 208, 420z" fill="#727272" fill-opacity="1" class="Black" />
  </g>
</svg>