<?xml version='1.0' encoding='UTF-8'?>
<svg viewBox="-7.2499 -2 32 32" xmlns="http://www.w3.org/2000/svg">
  <g transform="matrix(0.0547, 0, 0, 0.0547, 0, 0)">
    <path d="M272, 0L48, 0C21.5, 0 0, 21.5 0, 48L0, 464C0, 490.5 21.5, 512 48, 512L272, 512C298.5, 512 320, 490.5 320, 464L320, 48C320, 21.5 298.5, 0 272, 0zM266, 464L54, 464C50.7, 464 48, 461.3 48, 458L48, 54C48, 50.7 50.7, 48 54, 48L266, 48C269.3, 48 272, 50.7 272, 54L272, 458C272, 461.3 269.3, 464 266, 464zM196, 432L124, 432C117.4, 432 112, 426.6 112, 420L112, 412C112, 405.4 117.4, 400 124, 400L196, 400C202.6, 400 208, 405.4 208, 412L208, 420C208, 426.6 202.6, 432 196, 432z" fill="#727272" fill-opacity="1" class="Black" />
  </g>
</svg>