<?xml version='1.0' encoding='UTF-8'?>
<svg viewBox="-7.2499 -2 32 32" xmlns="http://www.w3.org/2000/svg">
  <g transform="matrix(0.0547, 0, 0, 0.0547, 0, 0)">
    <path d="M192, 416C192, 433.7 177.7, 448 160, 448C142.3, 448 128, 433.7 128, 416C128, 398.3 142.3, 384 160, 384C177.7, 384 192, 398.3 192, 416zM240, 356L240, 92C240, 85.4 234.6, 80 228, 80L92, 80C85.4, 80 80, 85.4 80, 92L80, 356C80, 362.6 85.4, 368 92, 368L228, 368C234.6, 368 240, 362.6 240, 356zM320, 48L320, 464C320, 490.5 298.5, 512 272, 512L48, 512C21.5, 512 0, 490.5 0, 464L0, 48C0, 21.5 21.5, 0 48, 0L272, 0C298.5, 0 320, 21.5 320, 48zM272, 458L272, 54C272, 50.7 269.3, 48 266, 48L54, 48C50.7, 48 48, 50.7 48, 54L48, 458C48, 461.3 50.7, 464 54, 464L266, 464C269.3, 464 272, 461.3 272, 458z" fill="#727272" fill-opacity="1" class="Black" />
  </g>
</svg>