<?xml version='1.0' encoding='UTF-8'?>
<svg viewBox="-1.9999 -4.7979 32 31.9975" xmlns="http://www.w3.org/2000/svg">
  <g transform="matrix(1.0011, 0, 0, 1.0011, 0, 0)">
    <g transform="matrix(0.0437, 0, 0, 0.0437, 0, 0)">
      <path d="M320, 160.55C275.82, 160.55 240, 203.71 240, 256.96C240, 310.2 275.81, 353.37 320, 353.37C364.17, 353.37 400, 310.22 400, 256.96C400, 203.71 364.18, 160.55 320, 160.55zM621.16, 54.46C582.37, 38.19 543.55, 32 504.75, 32C381.58, 31.99 258.42, 94.34 135.25, 94.34C104.36, 94.34 73.49, 90.42 42.6, 80.62C39.13, 79.52 35.65, 79 32.25, 79C15.04, 79 0, 92.32 0, 110.81L0, 428.07C0, 440.7 7.23, 452.67 18.84, 457.53C57.63, 473.81 96.45, 480 135.25, 480C258.42, 480 381.59, 417.65 504.76, 417.65C535.65, 417.65 566.52, 421.57 597.41, 431.37C600.88, 432.47 604.36, 432.99 607.76, 432.99C624.97, 432.99 640.01, 419.67 640.01, 401.18L640.01, 83.93C640, 71.29 632.77, 59.33 621.16, 54.46zM592, 322.05C565.11, 325.45 543.42, 345.36 537.62, 371.53C526.82, 370.61 516.06, 369.65 504.75, 369.65C437.19, 369.65 371.62, 386.24 308.22, 402.29C247.86, 417.57 190.85, 432 135.25, 432C127.23, 432 119.4, 431.68 111.74, 431.06C110.32, 396.83 82.45, 369.45 48.01, 369.45L48.01, 192.69C79.08, 192.69 104.94, 170.44 110.75, 140.94C118.89, 141.45 126.83, 142.34 135.26, 142.34C202.82, 142.34 268.38, 125.75 331.78, 109.7C392.13, 94.43 449.14, 80 504.75, 80C515.59, 80 525.97, 80.78 536.17, 81.91C537.02, 113.87 561.04, 139.75 592, 143.67L592, 322.05z" fill="#727272" fill-opacity="1" class="Black" />
    </g>
  </g>
</svg>