<?xml version='1.0' encoding='UTF-8'?>
<svg viewBox="-2 -4.7992 32 32" xmlns="http://www.w3.org/2000/svg">
  <g transform="matrix(0.9988, 0, 0, 0.9988, 0, 0)">
    <g transform="matrix(0.0438, 0, 0, 0.0438, 0, 0)">
      <path d="M624, 32L16, 32C7.16, 32 0, 39.16 0, 48L0, 448C0, 465.67 14.33, 480 32, 480L608, 480C625.67, 480 640, 465.67 640, 448L640, 48C640, 39.16 632.84, 32 624, 32zM592, 432L48, 432L48, 176L592, 176L592, 432zM592, 128L48, 128L48, 80L592, 80L592, 128zM104, 384L248, 384C252.42, 384 256, 380.42 256, 376L256, 344C256, 339.58 252.42, 336 248, 336L104, 336C99.58, 336 96, 339.58 96, 344L96, 376C96, 380.42 99.58, 384 104, 384zM456, 384L536, 384C540.42, 384 544, 380.42 544, 376L544, 344C544, 339.58 540.42, 336 536, 336L456, 336C451.58, 336 448, 339.58 448, 344L448, 376C448, 380.42 451.58, 384 456, 384zM104, 288L376, 288C380.42, 288 384, 284.42 384, 280L384, 248C384, 243.58 380.42, 240 376, 240L104, 240C99.58, 240 96, 243.58 96, 248L96, 280C96, 284.42 99.58, 288 104, 288zM464, 288L528, 288C536.84, 288 544, 280.84 544, 272L544, 240C544, 231.16 536.84, 224 528, 224L464, 224C455.16, 224 448, 231.16 448, 240L448, 272C448, 280.84 455.16, 288 464, 288z" fill="#727272" fill-opacity="1" class="Black" />
    </g>
  </g>
</svg>