<?xml version='1.0' encoding='UTF-8'?>
<svg viewBox="-1.9999 -4.7979 32 31.9975" xmlns="http://www.w3.org/2000/svg">
  <g transform="matrix(1.0011, 0, 0, 1.0011, 0, 0)">
    <g transform="matrix(0.0437, 0, 0, 0.0437, 0, 0)">
      <path d="M608, 64L32, 64C14.33, 64 0, 78.33 0, 96L0, 416C0, 433.67 14.33, 448 32, 448L608, 448C625.67, 448 640, 433.67 640, 416L640, 96C640, 78.33 625.67, 64 608, 64zM592, 336C556.65, 336 528, 364.65 528, 400L112, 400C112, 364.65 83.35, 336 48, 336L48, 176C83.35, 176 112, 147.35 112, 112L528, 112C528, 147.35 556.65, 176 592, 176L592, 336zM320, 160C275.82, 160 240, 202.98 240, 256C240, 309.01 275.81, 352 320, 352C364.17, 352 400, 309.03 400, 256C400, 202.98 364.18, 160 320, 160z" fill="#727272" fill-opacity="1" class="Black" />
    </g>
  </g>
</svg>