<?xml version='1.0' encoding='UTF-8'?>
<svg viewBox="-1.9999 -4.7979 32 31.9975" xmlns="http://www.w3.org/2000/svg">
  <g transform="matrix(1.0011, 0, 0, 1.0011, 0, 0)">
    <g transform="matrix(0.0437, 0, 0, 0.0437, 0, 0)">
      <path d="M485.51, 384L528, 384A16 16 0 0 0 544, 368L544, 325.54A32 32 0 0 0 534.63, 302.91L303.18, 71.47L231.48, 143.17L462.87, 374.62A32 32 0 0 0 485.51, 384zM208.88, 120.57L280.58, 48.77L238.78, 7A24.1 24.1 0 0 0 204.88, 7L167, 44.87A24 24 0 0 0 167, 78.67zM136, 424L152, 424A8 8 0 0 0 160, 416L160, 399.88C183.62, 399.25 202.67, 379.34 202.67, 354.81C202.67, 334.81 189.67, 317 171.09, 311.42L126.09, 297.92C120.93, 296.38 117.32, 291.14 117.32, 285.19C117.32, 277.92 122.62, 272 129.12, 272L157.23, 272A24 24 0 0 1 170.05, 275.72A9 9 0 0 0 174.8, 277.12A7.72 7.72 0 0 0 180.18, 274.99L191.93, 263.78A8 8 0 0 0 191.36, 251.64A57.18 57.18 0 0 0 160, 240.29L160, 224A8 8 0 0 0 152, 216L136, 216A8 8 0 0 0 128, 224L128, 240.12C104.38, 240.75 85.33, 260.67 85.33, 285.19C85.33, 305.19 98.33, 323 116.91, 328.58L161.91, 342.08C167.07, 343.62 170.68, 348.86 170.68, 354.81C170.68, 362.08 165.38, 368 158.88, 368L130.77, 368A24.08 24.08 0 0 1 118, 364.28A9 9 0 0 0 113.25, 362.88A7.7 7.7 0 0 0 107.87, 365.01L96.07, 376.22A8 8 0 0 0 96.64, 388.36A57.26 57.26 0 0 0 128, 399.71L128, 416A8 8 0 0 0 136, 424zM256, 304L347, 304L299, 256L256, 256A16 16 0 0 0 240, 272L240, 288A16 16 0 0 0 256, 304zM240, 368A16 16 0 0 0 256, 384L427, 384L379, 336L256, 336A16 16 0 0 0 240, 352zM608, 128L405, 128L453, 176L592, 176L592, 464L48, 464L48, 176L219.05, 176L208.85, 165.8L186.25, 143.2L171.05, 128L32, 128A32 32 0 0 0 0, 160L0, 480A32 32 0 0 0 32, 512L608, 512A32 32 0 0 0 640, 480L640, 160A32 32 0 0 0 608, 128z" fill="#727272" fill-opacity="1" class="Black" />
    </g>
  </g>
</svg>