<?xml version='1.0' encoding='UTF-8'?>
<svg viewBox="-1.9999 -4.7979 32 31.9975" xmlns="http://www.w3.org/2000/svg">
  <g transform="matrix(1.0011, 0, 0, 1.0011, 0, 0)">
    <g transform="matrix(0.0437, 0, 0, 0.0437, 0, 0)">
      <path d="M320, 160.55C275.82, 160.55 240, 203.71 240, 256.96C240, 310.2 275.81, 353.37 320, 353.37C364.17, 353.37 400, 310.22 400, 256.96C400, 203.71 364.18, 160.55 320, 160.55zM621.16, 54.46C582.37, 38.19 543.55, 32 504.75, 32C381.58, 31.99 258.42, 94.34 135.25, 94.34C104.36, 94.34 73.49, 90.42 42.6, 80.62C39.13, 79.52 35.65, 79 32.25, 79C15.04, 79 0, 92.32 0, 110.81L0, 428.07C0, 440.7 7.23, 452.67 18.84, 457.53C57.63, 473.81 96.45, 480 135.25, 480C258.42, 480 381.59, 417.65 504.76, 417.65C535.65, 417.65 566.52, 421.57 597.41, 431.37C600.88, 432.47 604.36, 432.99 607.76, 432.99C624.97, 432.99 640.01, 419.67 640.01, 401.18L640.01, 83.93C640, 71.29 632.77, 59.33 621.16, 54.46zM592, 379.98C564.3, 373.05 535.56, 369.66 504.75, 369.66C437.19, 369.66 371.62, 386.25 308.22, 402.3C247.86, 417.57 190.85, 432 135.25, 432C103.63, 432 74.97, 427.22 48, 417.42L48, 132.02C75.7, 138.95 104.44, 142.34 135.25, 142.34C202.81, 142.34 268.37, 125.75 331.77, 109.7C392.13, 94.43 449.14, 80 504.75, 80C536.38, 80 565.04, 84.78 592, 94.58L592, 379.98z" fill="#727272" fill-opacity="1" class="Black" />
    </g>
  </g>
</svg>