<?xml version='1.0' encoding='UTF-8'?>
<svg viewBox="-5.5003 -2 32 32" xmlns="http://www.w3.org/2000/svg">
  <g transform="matrix(0.0547, 0, 0, 0.0547, 0, 0)">
    <path d="M368, 464L334.02, 464L289.13, 100.74A31.97 31.97 0 0 0 279.92, 81.3L203.31, 4.69A15.905 15.905 0 0 0 192, 0C187.91, 0 183.81, 1.56 180.69, 4.69L104.08, 81.3A31.97 31.97 0 0 0 94.87, 100.74L49.98, 464L16, 464C7.16, 464 0, 471.16 0, 480L0, 496C0, 504.84 7.16, 512 16, 512L368, 512C376.84, 512 384, 504.84 384, 496L384, 480C384, 471.16 376.84, 464 368, 464zM98.34, 464L141.9, 111.35L192, 61.25L242.08, 111.33L285.66, 464L98.34, 464zM227.2, 272L156.8, 272C150.4, 272 144, 278.4 144, 284.8L144, 307.2C144, 313.6 150.4, 320 156.8, 320L227.2, 320C233.6, 320 240, 313.6 240, 307.2L240, 284.8C240, 278.4 233.6, 272 227.2, 272z" fill="#727272" fill-opacity="1" class="Black" />
  </g>
</svg>