<?xml version='1.0' encoding='UTF-8'?>
<svg viewBox="-1.9998 -4.8039 31.9975 32" xmlns="http://www.w3.org/2000/svg">
  <g transform="matrix(0.9988, 0, 0, 0.9988, 0, 0)">
    <g transform="matrix(0.0438, 0, 0, 0.0438, 0, 0)">
      <path d="M283.6, 176.1C259.7, 146.3 223.2, 128 184, 128C143.6, 128 106.3, 147 82.4, 178.3C35.4, 188.2 0, 230.1 0, 280C0, 337.3 46.7, 384 104, 384L280, 384C337.3, 384 384, 337.3 384, 280C384, 223.9 339.3, 178 283.6, 176.1zM280, 336L104, 336C73.1, 336 48, 310.9 48, 280C48, 249.1 73.1, 224 104, 224L110.8, 224C123.2, 195.8 151.3, 176 184, 176C218.4, 176 247.4, 197.8 258.8, 228.2C265.4, 225.5 272.5, 224 280, 224C310.9, 224 336, 249.1 336, 280C336, 310.9 310.9, 336 280, 336zM637.6, 351.2C633.5, 342.6 625.2, 337.3 615.8, 337.3C610.3, 337.3 603.9, 339.9 588, 339.9C521, 339.9 466.5, 285.2 466.5, 218C466.5, 174.3 490.1, 133.7 528.1, 112C537, 106.9 541.7, 97 540, 86.9C538.3, 76.7 530.6, 69 520.5, 67.1C509, 65 497.2, 63.9 485.5, 63.9C418.2, 63.9 359.5, 99.1 325.4, 151.8C340.8, 157.2 354.9, 165.3 367.1, 175.5C386.9, 145.9 417.1, 124 452.8, 115.6C430.9, 144.7 418.4, 180.5 418.4, 218C418.4, 299.1 475.4, 367.1 551.3, 383.9C531.2, 394.3 508.7, 399.9 485.4, 399.9C447.7, 399.9 413.7, 385.1 388.2, 361.2C378.5, 374 366.9, 385.2 353.4, 394C387.7, 427.2 434, 447.9 485.4, 447.9C543.5, 447.9 597.8, 422 634.4, 376.8C640.5, 369.6 641.7, 359.7 637.6, 351.2z" fill="#727272" fill-opacity="1" class="Black" />
    </g>
  </g>
</svg>