<?xml version='1.0' encoding='UTF-8'?>
<svg viewBox="-2 -2 32 32" xmlns="http://www.w3.org/2000/svg">
  <g transform="matrix(0.0547, 0, 0, 0.0547, 0, 0)">
    <path d="M279.135, 512C357.891, 512 430.117, 476.196 477.979, 417.225C506.249, 382.394 475.421, 331.503 431.73, 339.824C349.382, 355.507 273.458, 292.556 273.458, 209.032C273.458, 160.608 299.518, 116.74 340.892, 93.196C379.637, 71.146 369.891, 12.408 325.87, 4.277A257.936 257.936 0 0 0 279.135, 0C137.775, 0 23.135, 114.575 23.135, 256C23.135, 397.36 137.711, 512 279.135, 512zM279.135, 48C292.12, 48 304.824, 49.201 317.151, 51.478C262.391, 82.641 225.458, 141.52 225.458, 209.032C225.458, 322.88 329.099, 408.232 440.71, 386.976C402.574, 433.964 344.366, 464 279.135, 464C164.26, 464 71.135, 370.875 71.135, 256C71.135, 141.125 164.26, 48 279.135, 48z" fill="#727272" fill-opacity="1" class="Black" />
  </g>
</svg>