<?xml version='1.0' encoding='UTF-8'?>
<svg viewBox="-2 -4.7992 32 32" xmlns="http://www.w3.org/2000/svg">
  <g transform="matrix(0.9988, 0, 0, 0.9988, 0, 0)">
    <g transform="matrix(0.0438, 0, 0, 0.0438, 0, 0)">
      <path d="M635.73, 406.91L441.69, 109.31C435.9, 100.44 425.95, 96 416, 96C406.05, 96 396.1, 100.44 390.31, 109.31L338.31, 189.07L267.52, 78.52C261.32, 68.84 250.66, 64 240, 64C229.34, 64 218.68, 68.84 212.48, 78.52L4.58, 403.18C-7.99, 422.81 6.81, 448 30.92, 448L611.14, 448C633.64, 448 647.46, 424.91 635.73, 406.91zM63.61, 400L240, 124.55L416.39, 400L63.61, 400zM473.39, 400L366.71, 233.4L416, 157.8L573.92, 400L473.39, 400z" fill="#727272" fill-opacity="1" class="Black" />
    </g>
  </g>
</svg>