<?xml version='1.0' encoding='UTF-8'?>
<svg viewBox="-5.4969 -1.9975 31.9975 32" xmlns="http://www.w3.org/2000/svg">
  <g transform="matrix(0.0547, 0, 0, 0.0547, 0, 0)">
    <path d="M356.683, 255.576L115.915, 18.636C77.055, -21.086 8, 6.909 8, 62.87L8, 411.982C8, 467.223 75.457, 495.869 115.414, 456.709L139.341, 433.26L156.876, 473.929L156.997, 474.21L157.122, 474.484C171.025, 505.629 207.417, 520.378 239.277, 507.132L281.18, 489.737L281.434, 489.631L281.687, 489.522C297.305, 482.825 309.349, 470.484 315.599, 454.773C321.783, 439.228 321.526, 422.205 314.875, 406.84L296.165, 363.417L312.692, 363.417C368.54, 363.419 397.857, 294.932 356.683, 255.576zM312.811, 315.419L223.217, 315.419L270.824, 425.91C274.14, 433.571 270.35, 442.159 262.771, 445.409L220.849, 462.818C213.033, 466.068 204.269, 462.353 200.954, 454.926L155.716, 350.006L81.818, 422.429C72.038, 432.012 56, 424.734 56, 411.982L56, 62.868C56, 49.559 72.978, 43.039 81.817, 52.423L323.47, 290.117C333.26, 299.208 326.023, 315.419 312.811, 315.419z" fill="#727272" fill-opacity="1" class="Black" />
  </g>
</svg>