<?xml version='1.0' encoding='UTF-8'?>
<svg viewBox="-5.5003 -2 32 32" xmlns="http://www.w3.org/2000/svg">
  <g transform="matrix(0.0547, 0, 0, 0.0547, 0, 0)">
    <path d="M224, 0L160, 0A160 160 0 0 0 0, 160L0, 352A160 160 0 0 0 160, 512L224, 512A160 160 0 0 0 384, 352L384, 160A160 160 0 0 0 224, 0zM336, 352A112.12 112.12 0 0 1 224, 464L160, 464A112.12 112.12 0 0 1 48, 352L48, 160A112.12 112.12 0 0 1 160, 48L224, 48A112.12 112.12 0 0 1 336, 160zM192, 96A32 32 0 0 0 160, 128L160, 160A32 32 0 0 0 224, 160L224, 128A32 32 0 0 0 192, 96z" fill="#727272" fill-opacity="1" class="Black" />
  </g>
</svg>