<?xml version='1.0' encoding='UTF-8'?>
<svg viewBox="-5.4453 -2 32 32" xmlns="http://www.w3.org/2000/svg">
  <g transform="matrix(0.0547, 0, 0, 0.0547, 0, 0)">
    <path d="M305, 80L81, 80L81, 192L305, 192zM337, 0L49, 0A48 48 0 0 0 1, 48L1, 464A48 48 0 0 0 49, 512L337, 512A48 48 0 0 0 385, 464L385, 48A48 48 0 0 0 337, 0zM337, 464L49, 464L49, 48L337, 48zM193, 240A96 96 0 1 0 289, 336A96 96 0 0 0 193, 240zM193, 368A32 32 0 1 1 225, 336A32 32 0 0 1 193, 368z" fill="#727272" fill-opacity="1" class="Black" />
  </g>
</svg>