<?xml version='1.0' encoding='UTF-8'?>
<svg viewBox="-1.9975 -4.7983 32 32" xmlns="http://www.w3.org/2000/svg">
  <g transform="matrix(0.9989, 0, 0, 0.9989, 0, 0)">
    <g transform="matrix(0.0438, 0, 0, 0.0438, 0, 0)">
      <path d="M599.87, 432L8.16, 432C-10.03, 432 2.87, 480 40.16, 480L567.78, 480C605.06, 480 618, 432 599.87, 432zM176, 384L400, 384A80 80 0 0 0 480, 304L480, 288L512, 288C582.59, 288 640, 230.59 640, 160C640, 89.41 582.56, 32 512, 32L112, 32A16 16 0 0 0 96, 48L96, 304A80 80 0 0 0 176, 384zM480, 80L512, 80A80 80 0 0 1 512, 240L480, 240zM224, 179.88L240, 163.88L256, 179.88L256, 224L224, 224zM144, 80L216, 80L216, 120L185.37, 150.63A32 32 0 0 0 176, 173.25L176, 240A32 32 0 0 0 208, 272L272, 272A32 32 0 0 0 304, 240L304, 173.25A32 32 0 0 0 294.62, 150.63L264, 120L264, 80L432, 80L432, 304A32.11 32.11 0 0 1 400, 336L176, 336A32.1 32.1 0 0 1 144, 304z" fill="#727272" fill-opacity="1" class="Black" />
    </g>
  </g>
</svg>