<?xml version='1.0' encoding='UTF-8'?>
<svg viewBox="-1.9999 -1.9974 32 31.9975" xmlns="http://www.w3.org/2000/svg">
  <g transform="matrix(0.0547, 0, 0, 0.0547, 0, 0)">
    <path d="M400, 160L379.1, 160C386.3, 147.6 385.1, 131.7 374.5, 121L295, 41.5C288.7, 35.2 280.3, 32 272, 32C263.7, 32 255.4, 35.2 249, 41.5L221.6, 68.9C217, 57 205.6, 48.5 192, 48.5L64, 48.5C46.3, 48.5 32, 62.8 32, 80.5L32, 160C14.3, 160 0, 174.3 0, 192L0, 384C0, 437 43, 480 96, 480L288, 480C341, 480 384, 437 384, 384L400, 384C461.8, 384 512, 333.8 512, 272C512, 210.2 461.8, 160 400, 160zM272, 86.4L329.6, 144L313.6, 160L230.5, 160L214.5, 144L272, 86.4zM80, 96.5L176, 96.5L176, 114.6L169.5, 121.1C158.9, 131.7 157.7, 147.6 164.9, 160.1L80, 160.1L80, 96.5zM336, 384C336, 410.5 314.5, 432 288, 432L96, 432C69.5, 432 48, 410.5 48, 384L48, 208L96, 208L96, 264C96, 277.3 106.7, 288 120, 288C133.3, 288 144, 277.3 144, 264L144, 208L336, 208L336, 384zM400, 336L384, 336L384, 208L400, 208C435.3, 208 464, 236.7 464, 272C464, 307.3 435.3, 336 400, 336z" fill="#727272" fill-opacity="1" class="Black" />
  </g>
</svg>