<?xml version='1.0' encoding='UTF-8'?>
<svg viewBox="-1.9973 -4.7981 31.9975 32" xmlns="http://www.w3.org/2000/svg">
  <g transform="matrix(1.0012, 0, 0, 1.0012, 0, 0)">
    <g transform="matrix(0.0437, 0, 0, 0.0437, 0, 0)">
      <path d="M240, 352C178.14, 352 128, 387.82 128, 432C128, 476.18 178.14, 512 240, 512C301.86, 512 352, 476.18 352, 432C352, 387.82 301.85, 352 240, 352zM240, 464C200.3, 464 176, 443.28 176, 432C176, 420.72 200.3, 400 240, 400C279.7, 400 304, 420.72 304, 432C304, 443.28 279.7, 464 240, 464zM634, 471L36, 3.52A16 16 0 0 0 13.48, 6L3.48, 18.49A16 16 0 0 0 6, 41L604, 508.5A16 16 0 0 0 626.5, 506L636.5, 493.5A16 16 0 0 0 634, 471zM489.64, 162A32 32 0 0 0 512, 131.48L512, 32A32 32 0 0 0 470.36, 1.51L326.36, 36.89A32 32 0 0 0 304, 67.36L304, 152.12L357.58, 194zM352, 79.13L464, 53.86L464, 119.75L352, 145z" fill="#727272" fill-opacity="1" class="Black" />
    </g>
  </g>
</svg>