<?xml version='1.0' encoding='UTF-8'?>
<svg viewBox="-1.9999 -1.9999 32 32" xmlns="http://www.w3.org/2000/svg">
  <g transform="matrix(0.0547, 0, 0, 0.0547, 0, 0)">
    <path d="M480.06, 0A31.94 31.94 0 0 0 470.38, 1.5L166.38, 97.5A32 32 0 0 0 144, 128L144, 363.09A109.68 109.68 0 0 0 96, 352C43, 352 0, 387.81 0, 432C0, 476.19 43, 512 96, 512C145.38, 512 185.56, 480.84 190.91, 440.91A38.74 38.74 0 0 0 191.97, 432.25L191.97, 256L463.97, 170.09L463.97, 299.09A109.78 109.78 0 0 0 416, 288C363, 288 320, 323.81 320, 368C320, 412.19 363, 448 416, 448C465.38, 448 505.56, 416.81 510.94, 376.88A38.94 38.94 0 0 0 511.94, 368.66C511.94, 368.44 512, 368.22 512, 368L512, 32A32 32 0 0 0 480.06, 0zM96, 464C67.72, 464 48, 447.12 48, 432C48, 416.88 67.72, 400 96, 400C124.28, 400 144, 416.84 144, 432C144, 447.16 124.28, 464 96, 464zM464, 368C464, 383.12 444.28, 400 416, 400C387.72, 400 368, 383.12 368, 368C368, 352.88 387.72, 336 416, 336C444.28, 336 464, 352.84 464, 368zM464, 119.75L192, 205.66L192, 139.75L464, 53.88z" fill="#727272" fill-opacity="1" class="Black" />
  </g>
</svg>