<?xml version='1.0' encoding='UTF-8'?>
<svg viewBox="-1.9975 -4.7972 32 32" xmlns="http://www.w3.org/2000/svg">
  <g transform="matrix(1.0013, 0, 0, 1.0013, 0, 0)">
    <g transform="matrix(0.0437, 0, 0, 0.0437, 0, 0)">
      <path d="M528, 53.88L528, 119.78L339, 179.46L384.86, 215.31L528, 170.1L528, 327.25L576, 364.77L576, 32A31.95 31.95 0 0 0 534.38, 1.5L233.05, 96.66L278.92, 132.52zM634, 471L36, 3.52A16 16 0 0 0 13.48, 6L3.48, 18.49A16 16 0 0 0 6, 41L604, 508.5A16 16 0 0 0 626.5, 506L636.5, 493.5A16 16 0 0 0 634, 471zM208, 363.09A109.68 109.68 0 0 0 160, 352C107, 352 64, 387.81 64, 432C64, 476.19 107, 512 160, 512C209.37, 512 249.56, 480.84 254.91, 440.91A38.69 38.69 0 0 0 255.97, 432.28L255.97, 297.37L207.97, 259.84zM160, 464C131.72, 464 112, 447.13 112, 432C112, 416.87 131.72, 400 160, 400C188.28, 400 208, 416.88 208, 432C208, 447.12 188.28, 464 160, 464z" fill="#727272" fill-opacity="1" class="Black" />
    </g>
  </g>
</svg>