<?xml version='1.0' encoding='UTF-8'?>
<svg viewBox="-2 -4.7992 32 32" xmlns="http://www.w3.org/2000/svg">
  <g transform="matrix(1.0011, 0, 0, 1.0011, 0, 0)">
    <g transform="matrix(0.0437, 0, 0, 0.0437, 0, 0)">
      <path d="M591.21, 220.16L639.73, 12.88C640.77, 8.42 638.79, 3.63 634.59, 1.31C629.52, -1.49 623.14, 0.35 620.34, 5.42L517.06, 192.51C515.35, 192.44 513.74, 192 512, 192C370.86, 192 304.85, 275.47 203.31, 374.31C200.05, 377.57 196.04, 379.03 192.11, 379.03C183.88, 379.03 175.99, 372.64 175.99, 363L175.99, 300.13L207.37, 283.64C217.76, 277.7 224, 267.7 224, 257L224, 144.03C224, 134.62 214.99, 128 205.28, 128L205.27, 128C201.8, 128 198.25, 128.85 194.98, 130.71L112, 178.13L29.02, 130.71C25.75, 128.84 22.19, 128 18.72, 128C9.01, 128 0, 134.61 0, 144.03L0, 257C0, 267.7 6.24, 277.69 16.62, 283.62L48, 300.12L48, 380.12C48, 452.96 107.04, 512 179.88, 512L544, 512C597.02, 512 640, 469.02 640, 416L640, 320C640, 279.38 620.71, 243.61 591.21, 220.16zM592, 416C592, 442.47 570.47, 464 544, 464L179.88, 464C133.63, 464 96, 426.37 96, 380.13L96, 271.13L70.33, 257.64L48, 245.89L48, 196.84L88.19, 219.8L112, 233.42L135.82, 219.81L176, 196.84L176, 245.89L153.67, 257.63L128, 271.13L128, 363C128, 398.31 156.76, 427.03 192.12, 427.03C209.12, 427.03 225.15, 420.36 236.8, 408.71C248.33, 397.49 259.4, 386.47 270.18, 375.74C352.28, 294 406.52, 240 512, 240C556.11, 240 592, 275.89 592, 320L592, 416zM432, 344C418.75, 344 408, 354.74 408, 368C408, 381.25 418.75, 392 432, 392C445.25, 392 456, 381.25 456, 368C456, 354.74 445.25, 344 432, 344z" fill="#727272" fill-opacity="1" class="Black" />
    </g>
  </g>
</svg>