<?xml version='1.0' encoding='UTF-8'?>
<svg viewBox="-1.9999 -3.5527 32 31.9975" xmlns="http://www.w3.org/2000/svg">
  <g transform="matrix(0.0486, 0, 0, 0.0486, 0, 0)">
    <path d="M552, 64L112, 64C91.142, 64 73.357, 77.377 66.752, 96L24, 96C10.745, 96 0, 106.745 0, 120L0, 392C0, 422.928 25.072, 448 56, 448L552, 448C565.255, 448 576, 437.255 576, 424L576, 88C576, 74.745 565.255, 64 552, 64zM48, 392L48, 144L64, 144L64, 392C64, 396.411 60.411, 400 56, 400C51.589, 400 48, 396.411 48, 392zM528, 400L111.422, 400C111.796, 397.386 112, 394.717 112, 392L112, 112L528, 112L528, 400zM172, 280L308, 280C314.627, 280 320, 274.627 320, 268L320, 172C320, 165.373 314.627, 160 308, 160L172, 160C165.373, 160 160, 165.373 160, 172L160, 268C160, 274.627 165.373, 280 172, 280zM200, 200L280, 200L280, 240L200, 240L200, 200zM160, 340L160, 316C160, 309.373 165.373, 304 172, 304L308, 304C314.627, 304 320, 309.373 320, 316L320, 340C320, 346.627 314.627, 352 308, 352L172, 352C165.373, 352 160, 346.627 160, 340zM352, 340L352, 316C352, 309.373 357.373, 304 364, 304L468, 304C474.627, 304 480, 309.373 480, 316L480, 340C480, 346.627 474.627, 352 468, 352L364, 352C357.373, 352 352, 346.627 352, 340zM352, 196L352, 172C352, 165.373 357.373, 160 364, 160L468, 160C474.627, 160 480, 165.373 480, 172L480, 196C480, 202.627 474.627, 208 468, 208L364, 208C357.373, 208 352, 202.627 352, 196zM352, 268L352, 244C352, 237.373 357.373, 232 364, 232L468, 232C474.627, 232 480, 237.373 480, 244L480, 268C480, 274.627 474.627, 280 468, 280L364, 280C357.373, 280 352, 274.627 352, 268z" fill="#727272" fill-opacity="1" class="Black" />
  </g>
</svg>