<?xml version='1.0' encoding='UTF-8'?>
<svg viewBox="-3.999 0.0027 32 32" xmlns="http://www.w3.org/2000/svg">
  <g transform="matrix(0.0625, 0, 0, 0.0625, 0, 0)">
    <path d="M368, 208C376.84, 208 384, 200.84 384, 192L384, 160C384, 151.16 376.84, 144 368, 144L325.68, 144L380.71, 77.19C386.08, 70.17 384.75, 60.13 377.74, 54.76L352.32, 35.3C345.3, 29.93 335.26, 31.26 329.89, 38.27L242.81, 144L16, 144C7.16, 144 0, 151.16 0, 160L0, 192C0, 200.84 7.16, 208 16, 208L190.1, 208L111.03, 304L16, 304C7.16, 304 0, 311.16 0, 320L0, 352C0, 360.84 7.16, 368 16, 368L58.32, 368L3.3, 434.81C-2.07, 441.82 -0.74, 451.86 6.27, 457.24L31.68, 476.7C38.7, 482.08 48.74, 480.74 54.11, 473.73L141.19, 368L368, 368C376.84, 368 384, 360.84 384, 352L384, 320C384, 311.16 376.84, 304 368, 304L193.9, 304L272.97, 208L368, 208z" fill="#727272" fill-opacity="1" class="Black" />
  </g>
</svg>