<?xml version='1.0' encoding='UTF-8'?>
<svg viewBox="-2 -1.9988 32 32" xmlns="http://www.w3.org/2000/svg">
  <g transform="matrix(0.0547, 0, 0, 0.0547, 0, 0)">
    <path d="M500, 128C506.627, 128 512, 122.627 512, 116L512, 44C512, 37.373 506.627, 32 500, 32L428, 32C421.373, 32 416, 37.373 416, 44L416, 56L96, 56L96, 44C96, 37.373 90.627, 32 84, 32L12, 32C5.373, 32 0, 37.373 0, 44L0, 116C0, 122.627 5.373, 128 12, 128L24, 128L24, 384L12, 384C5.373, 384 0, 389.373 0, 396L0, 468C0, 474.627 5.373, 480 12, 480L84, 480C90.627, 480 96, 474.627 96, 468L96, 456L416, 456L416, 468C416, 474.627 421.373, 480 428, 480L500, 480C506.627, 480 512, 474.627 512, 468L512, 396C512, 389.373 506.627, 384 500, 384L488, 384L488, 128L500, 128zM448, 64L480, 64L480, 96L448, 96L448, 64zM32, 64L64, 64L64, 96L32, 96L32, 64zM64, 448L32, 448L32, 416L64, 416L64, 448zM480, 448L448, 448L448, 416L480, 416L480, 448zM440, 384L428, 384C421.373, 384 416, 389.373 416, 396L416, 408L96, 408L96, 396C96, 389.373 90.627, 384 84, 384L72, 384L72, 128L84, 128C90.627, 128 96, 122.627 96, 116L96, 104L416, 104L416, 116C416, 122.627 421.373, 128 428, 128L440, 128L440, 384zM404, 192L320, 192L320, 140C320, 133.372 314.627, 128 308, 128L108, 128C101.373, 128 96, 133.372 96, 140L96, 308C96, 314.628 101.373, 320 108, 320L192, 320L192, 372C192, 378.628 197.373, 384 204, 384L404, 384C410.627, 384 416, 378.628 416, 372L416, 204C416, 197.372 410.627, 192 404, 192zM136, 168L280, 168L280, 280L136, 280L136, 168zM376, 344L232, 344L232, 320L308, 320C314.627, 320 320, 314.628 320, 308L320, 232L376, 232L376, 344z" fill="#727272" fill-opacity="1" class="Black" />
  </g>
</svg>