<?xml version='1.0' encoding='UTF-8'?>
<svg viewBox="-2 -4.7992 32 32" xmlns="http://www.w3.org/2000/svg">
  <g transform="matrix(0.9988, 0, 0, 0.9988, 0, 0)">
    <g transform="matrix(0.0438, 0, 0, 0.0438, 0, 0)">
      <path d="M16, 400L32, 400C70.62, 400 104.72, 387.81 128, 368.16C151.21, 387.76 185.18, 399.9 223.66, 399.98C209.05, 385.31 198.32, 367.08 191.59, 347C181.44, 343.67 173.3, 339.08 167.91, 334.11C159.01, 325.9 148.25, 320.01 136.14, 320.01L119.84, 320.01C107.73, 320.01 96.97, 325.9 88.07, 334.11C77.8, 343.58 58.04, 352 32, 352L16, 352C7.16, 352 0, 359.16 0, 368L0, 384C0, 392.83 7.16, 400 16, 400zM624, 352L608, 352C581.96, 352 562.2, 343.58 551.91, 334.1C543.01, 325.89 532.25, 320 520.14, 320L503.84, 320C491.73, 320 480.97, 325.89 472.07, 334.1C466.68, 339.07 458.54, 343.67 448.39, 346.99C441.66, 367.07 430.93, 385.3 416.32, 399.97C454.8, 399.9 488.77, 387.75 511.98, 368.15C535.26, 387.81 569.36, 399.99 607.98, 399.99L623.98, 399.99C632.82, 399.99 639.98, 392.83 639.98, 383.99L639.98, 367.99C640, 359.16 632.84, 352 624, 352zM624, 464L608, 464C581.96, 464 562.2, 455.58 551.91, 446.1C543.01, 437.89 532.25, 432 520.14, 432L503.84, 432C491.73, 432 480.97, 437.89 472.07, 446.1C461.8, 455.58 442.04, 464 416, 464C389.96, 464 370.2, 455.58 359.91, 446.1A60.051 60.051 0 0 0 347.42, 437.25C338.56, 439.06 329.39, 440.02 320, 440.02C310.61, 440.02 301.43, 439.07 292.58, 437.25C288.12, 439.64 283.9, 442.59 280.09, 446.1C269.8, 455.58 250.04, 464 224, 464C197.96, 464 178.2, 455.58 167.91, 446.1C159.01, 437.89 148.25, 432 136.14, 432L119.84, 432C107.73, 432 96.97, 437.89 88.07, 446.1C77.8, 455.58 58.04, 464 32, 464L16, 464C7.16, 464 0, 471.16 0, 480L0, 496C0, 504.84 7.16, 512 16, 512L32, 512C70.62, 512 104.72, 499.81 128, 480.16C151.28, 499.82 185.38, 512 224, 512C262.62, 512 296.72, 499.81 320, 480.16C343.28, 499.82 377.38, 512 416, 512C454.62, 512 488.72, 499.81 512, 480.16C535.28, 499.82 569.38, 512 608, 512L624, 512C632.84, 512 640, 504.84 640, 496L640, 480C640, 471.16 632.84, 464 624, 464zM320, 400.01C372.94, 400.01 416, 356.95 416, 304.01C416, 259.41 385.29, 222.15 344, 211.42L344, 144L400, 144C408.84, 144 416, 136.84 416, 128L416, 112C416, 103.16 408.84, 96 400, 96L344, 96L344, 48L400, 48C408.84, 48 416, 40.84 416, 32L416, 16C416, 7.16 408.84, 0 400, 0L312, 0C303.16, 0 296, 7.16 296, 16L296, 211.41C254.71, 222.14 224, 259.4 224, 304C224, 356.95 267.06, 400.01 320, 400.01zM320, 256.01C346.47, 256.01 368, 277.54 368, 304.01C368, 330.48 346.47, 352.01 320, 352.01C293.53, 352.01 272, 330.48 272, 304.01C272, 277.54 293.53, 256.01 320, 256.01z" fill="#727272" fill-opacity="1" class="Black" />
    </g>
  </g>
</svg>