<?xml version='1.0' encoding='UTF-8'?>
<svg viewBox="-2 -4.7992 32 32" xmlns="http://www.w3.org/2000/svg">
  <g transform="matrix(0.9988, 0, 0, 0.9988, 0, 0)">
    <g transform="matrix(0.0438, 0, 0, 0.0438, 0, 0)">
      <path d="M629.8, 160.31L416, 224L365.51, 198.76A64.07 64.07 0 0 0 336.89, 192L280, 192L280, 144L336, 144C344.84, 144 352, 136.84 352, 128L352, 112C352, 103.16 344.84, 96 336, 96L176, 96C167.16, 96 160, 103.16 160, 112L160, 128C160, 136.84 167.16, 144 176, 144L232, 144L232, 192L176, 192C26.86, 164.88 36.11, 166.33 31.93, 166.33C14.67, 166.33 0, 180.36 0, 198.34L0, 293.29C0, 308.75 11.06, 322.01 26.28, 324.77L96, 337.46L96, 384C96, 401.67 110.33, 416 128, 416L402.64, 416C411.19, 416 419.39, 412.58 425.4, 406.49L637.66, 191.74C639.16, 190.24 640, 188.2 640, 186.08L640, 168C640, 162.25 634.49, 158.97 629.8, 160.31zM96, 288.67L48, 279.94L48, 217.51L96, 226.24L96, 288.67zM395.95, 368L144, 368L144, 240L336.89, 240C339.36, 240 341.84, 240.58 344.04, 241.69C405.26, 272.3 390.07, 264.7 411.5, 275.42C436.97, 267.83 424.53, 271.54 519.14, 243.35L395.95, 368zM549.33, 373.33C549.33, 396.89 568.43, 416 592, 416C615.57, 416 634.67, 396.9 634.67, 373.33C634.67, 349.76 592, 288 592, 288C592, 288 549.33, 349.77 549.33, 373.33z" fill="#727272" fill-opacity="1" class="Black" />
    </g>
  </g>
</svg>