<?xml version='1.0' encoding='UTF-8'?>
<svg viewBox="-2.0288 0.0054 32 32" xmlns="http://www.w3.org/2000/svg">
  <g transform="matrix(0.0625, 0, 0, 0.0625, 0, 0)">
    <path d="M360.62, 432C423.92, 382.45 460.47, 300.2 442.37, 209.93C424.95, 123.08 355.02, 53.21 268.24, 36.35C125.19, 8.56 0, 117.63 0, 256C0, 327.72 34.05, 391.04 86.38, 432L15.96, 432C7.15, 432 0, 439.16 0, 448L0, 464C0, 472.84 7.15, 480 15.96, 480L143.67, 480C152.49, 480 159.63, 472.84 159.63, 464L159.63, 441.01C159.63, 429.19 153.65, 417.73 143.18, 412.31C76.49, 377.78 34.5, 301.83 51.78, 218.51C65.59, 151.94 119.17, 98.03 185.55, 84.02C298.88, 60.09 399.11, 146.53 399.11, 256C399.11, 324.22 360.12, 383.37 303.35, 412.54C293.19, 417.76 287.36, 428.82 287.36, 440.26L287.36, 464C287.36, 472.84 294.51, 480 303.32, 480L431.03, 480C439.85, 480 446.99, 472.84 446.99, 464L446.99, 448C446.99, 439.16 439.84, 432 431.03, 432L360.62, 432z" fill="#727272" fill-opacity="1" class="Black" />
  </g>
</svg>