<?xml version='1.0' encoding='UTF-8'?>
<svg viewBox="-5.5003 -2 32 32" xmlns="http://www.w3.org/2000/svg">
  <g transform="matrix(0.0547, 0, 0, 0.0547, 0, 0)">
    <path d="M288, 153.9L288, 112C288, 103.2 280.8, 96 272, 96L247.1, 96C252.6, 86.6 256, 75.7 256, 64C256, 28.7 227.3, 0 192, 0C156.7, 0 128, 28.7 128, 64C128, 75.7 131.4, 86.6 136.9, 96L112, 96C103.2, 96 96, 103.2 96, 112L96, 153.9C38.7, 187.1 0, 249 0, 320C0, 426 86, 512 192, 512C298, 512 384, 426 384, 320C384, 249 345.3, 187.1 288, 153.9zM192, 48C200.8, 48 208, 55.2 208, 64C208, 72.8 200.8, 80 192, 80C183.2, 80 176, 72.8 176, 64C176, 55.2 183.2, 48 192, 48zM192, 176C234.4, 176 272.2, 194.8 298.5, 224L85.5, 224C111.8, 194.8 149.6, 176 192, 176zM336, 320C336, 336.9 332.5, 352.9 327.2, 368L56.8, 368C51.4, 352.9 48, 336.9 48, 320C48, 303.1 51.5, 287.1 56.8, 272L327.1, 272C332.5, 287.1 336, 303.1 336, 320zM192, 464C149.6, 464 111.8, 445.2 85.5, 416L298.6, 416C272.2, 445.2 234.4, 464 192, 464z" fill="#727272" fill-opacity="1" class="Black" />
  </g>
</svg>