<?xml version='1.0' encoding='UTF-8'?>
<svg viewBox="-2 -4.7992 32 32" xmlns="http://www.w3.org/2000/svg">
  <g transform="matrix(0.9988, 0, 0, 0.9988, 0, 0)">
    <g transform="matrix(0.0438, 0, 0, 0.0438, 0, 0)">
      <path d="M496, 72C487.16, 72 480, 79.16 480, 88C480, 96.84 487.17, 104 496, 104C504.84, 104 512, 96.84 512, 88C512, 79.16 504.84, 72 496, 72zM575.96, 32L566.49, 32L557.86, 23.39C542.74, 8.31 522.65, 0 501.27, 0L480.73, 0C466.84, 0 453.11, 3.63 441.05, 10.51L291.09, 96L272.38, 96C157.48, 96 64, 189.31 64, 304L64.08, 368.8C28.15, 372.81 0, 403.01 0, 440C0, 479.7 32.31, 512 72, 512L232, 512C245.25, 512 256, 501.25 256, 488C256, 474.75 245.25, 464 232, 464L72, 464C58.78, 464 48, 453.23 48, 440C48, 426.77 58.78, 416 72, 416L304.46, 416C330.97, 416 352.46, 394.51 352.46, 368C352.46, 348.55 345.48, 330.71 333.89, 316.83L347.83, 309.44L387.96, 389.51A48 48 0 0 0 430.87, 416L529, 416C555.51, 416 577, 394.51 577, 368C577, 323.89 541.08, 288 496.92, 288L480.33, 288L460.98, 249.4L492.1, 232.89C503.06, 227.07 515.42, 224 527.85, 224C589.69, 224 640, 173.76 640, 112L640, 96C640, 60.71 611.27, 32 575.96, 32zM527.85, 176C507.54, 176 487.54, 180.97 469.61, 190.49L465.93, 192.44L482.63, 170.73C491.63, 159 505.85, 152 520.66, 152L577.56, 152C565.8, 166.52 548.02, 176 527.85, 176zM592, 112C592, 114.74 591.53, 117.35 591.19, 120L520.66, 120C495.97, 120 472.28, 131.67 457.25, 151.23L397.93, 227.01L398.94, 227.97L397.05, 228.97L450.7, 336L496.92, 336C514.62, 336 529, 350.36 529, 368L430.87, 368L368.73, 244.01L195.33, 336L272.38, 336C290.08, 336 304.46, 350.36 304.46, 368L112, 368L112, 304C112, 215.63 183.81, 144 272.38, 144L303.81, 144L464.82, 52.21A32.16 32.16 0 0 1 480.73, 48L501.27, 48C509.84, 48 517.9, 51.33 523.95, 57.37L537.24, 70.63L546.64, 80.01L575.96, 80.01C584.82, 80.01 592, 87.17 592, 96.01L592, 112z" fill="#727272" fill-opacity="1" class="Black" />
    </g>
  </g>
</svg>