<?xml version='1.0' encoding='UTF-8'?>
<svg viewBox="-2 0 32 32" xmlns="http://www.w3.org/2000/svg">
  <g transform="matrix(0.0625, 0, 0, 0.0625, 0, 0)">
    <path d="M100.69, 363.29C110.69, 373.29 128, 366.22 128, 351.98L128, 160C128, 145.68 110.67, 138.69 100.69, 148.69L4.69, 244.69A16 16 0 0 0 4.69, 267.31zM432, 424L16, 424A16 16 0 0 0 0, 440L0, 456A16 16 0 0 0 16, 472L432, 472A16 16 0 0 0 448, 456L448, 440A16 16 0 0 0 432, 424zM435.17, 296L204.83, 296A12.82 12.82 0 0 0 192, 308.83L192, 331.17A12.82 12.82 0 0 0 204.83, 344L435.17, 344A12.82 12.82 0 0 0 448, 331.17L448, 308.83A12.82 12.82 0 0 0 435.17, 296zM432, 40L16, 40A16 16 0 0 0 0, 56L0, 72A16 16 0 0 0 16, 88L432, 88A16 16 0 0 0 448, 72L448, 56A16 16 0 0 0 432, 40zM435.17, 168L204.83, 168A12.82 12.82 0 0 0 192, 180.83L192, 203.17A12.82 12.82 0 0 0 204.83, 216L435.17, 216A12.82 12.82 0 0 0 448, 203.17L448, 180.83A12.82 12.82 0 0 0 435.17, 168z" fill="#727272" fill-opacity="1" class="Black" />
  </g>
</svg>