<?xml version='1.0' encoding='UTF-8'?>
<svg viewBox="-2 -1.9988 32 32" xmlns="http://www.w3.org/2000/svg">
  <g transform="matrix(0.0547, 0, 0, 0.0547, 0, 0)">
    <path d="M304, 304L224, 304L224, 352L304, 352A16 16 0 0 0 320, 336L320, 320A16 16 0 0 0 304, 304zM96, 320L96, 336A16 16 0 0 0 112, 352L192, 352L192, 304L112, 304A16 16 0 0 0 96, 320zM392, 160L120, 160A24 24 0 0 0 96, 184L96, 232A24 24 0 0 0 120, 256L392, 256A24 24 0 0 0 416, 232L416, 184A24 24 0 0 0 392, 160zM448, 64L64, 64A64 64 0 0 0 0, 128L0, 384A64 64 0 0 0 64, 448L448, 448A64 64 0 0 0 512, 384L512, 128A64 64 0 0 0 448, 64zM464, 384A16 16 0 0 1 448, 400L64, 400A16 16 0 0 1 48, 384L48, 128A16 16 0 0 1 64, 112L448, 112A16 16 0 0 1 464, 128z" fill="#727272" fill-opacity="1" class="Black" />
  </g>
</svg>