<?xml version='1.0' encoding='UTF-8'?>
<svg viewBox="-1.9998 -3.5563 31.9975 32" xmlns="http://www.w3.org/2000/svg">
  <g transform="matrix(0.0486, 0, 0, 0.0486, 0, 0)">
    <path d="M144, 48.06L304, 48L304, 160A16 16 0 0 0 320, 176L432, 176L432, 216L480, 216L480, 132A48.09 48.09 0 0 0 465.91, 98L382, 14.07A48.09 48.09 0 0 0 348, 0L128, 0.08A32 32 0 0 0 96, 32.08L96, 216L144, 216zM352, 52L428.07, 128L352, 128zM240, 264A16 16 0 0 0 224, 280L224, 296A16 16 0 0 0 240, 312L336, 312A16 16 0 0 0 352, 296L352, 280A16 16 0 0 0 336, 264zM432, 464L144, 464L144, 360L96, 360L96, 480A32 32 0 0 0 128, 512L448, 512A32 32 0 0 0 480, 480L480, 360L432, 360zM560, 264L432, 264A16 16 0 0 0 416, 280L416, 296A16 16 0 0 0 432, 312L560, 312A16 16 0 0 0 576, 296L576, 280A16 16 0 0 0 560, 264zM160, 296L160, 280A16 16 0 0 0 144, 264L16, 264A16 16 0 0 0 0, 280L0, 296A16 16 0 0 0 16, 312L144, 312A16 16 0 0 0 160, 296z" fill="#727272" fill-opacity="1" class="Black" />
  </g>
</svg>