<?xml version='1.0' encoding='UTF-8'?>
<svg viewBox="-2 -2 32 32" xmlns="http://www.w3.org/2000/svg">
  <g transform="matrix(0.0547, 0, 0, 0.0547, 0, 0)">
    <path d="M455.59, 0C439.78, 0 424.97, 6.99 413.66, 17.15C195.73, 211.82 169.77, 216.5 179.98, 281.99C138.46, 286.95 101.39, 306.04 79.66, 363.31C76.98, 370.39 70.54, 374.69 63.02, 374.69C50.35, 374.69 11.17, 343.13 0, 335.5C0, 429.45 43.26, 512 146, 512C263.18, 512 298.72, 424.25 291.06, 366.11C347.96, 359.1 388.21, 303.6 497.51, 99.62C505.2, 84.65 512, 68.48 512, 51.66C512, 21.52 484.89, 0 455.59, 0zM222.08, 432.89C205.84, 451.41 180.24, 460.8 146, 460.8C110.03, 460.8 87.4, 445.87 73.32, 425.15C97.88, 421.55 118.55, 405.19 127.53, 381.48C141.32, 345.15 160.14, 335.93 186.05, 332.83L202.48, 330.87L238.54, 359.38L240.31, 372.79C242.38, 388.56 238.85, 413.76 222.08, 432.89zM284.8, 315.29L267.93, 317.37L233, 289.75L230.56, 274.11C224.3, 233.92 444.24, 44.8 456.12, 54.57C468.24, 64.55 334.85, 309.13 284.8, 315.29z" fill="#727272" fill-opacity="1" class="Black" />
  </g>
</svg>