<?xml version='1.0' encoding='UTF-8'?>
<svg viewBox="-1.9988 -1.9925 32 31.9975" xmlns="http://www.w3.org/2000/svg">
  <g transform="matrix(0.0547, 0, 0, 0.0547, 0, 0)">
    <path d="M128, 224C110.3, 224 96, 238.3 96, 256C96, 273.7 110.3, 288 128, 288C145.7, 288 160, 273.7 160, 256C160, 238.3 145.6, 224 128, 224zM418.6, 58.1C359.2, 9.3 281.3, -10 204.6, 5C104.9, 24.4 24.7, 104.2 5.1, 203.7C-11.6, 287.9 13.2, 372 72.9, 434.3C120.2, 483.7 182.6, 512.1 240.8, 512.1C249.6, 512.1 258.3, 511.5 266.9, 510.1C291.1, 506.4 311.5, 491.4 323, 469C335.3, 445 335.3, 416.3 323.2, 392.4C317.1, 380.4 317.7, 366.2 325, 354.4C332, 342.6 343.7, 336 357, 336L429.2, 336C475.6, 336 512, 300.3 512, 254.7C511.8, 178.3 477.7, 106.6 418.6, 58.1zM429.2, 288L357, 288C327.1, 288 299.8, 303.4 284, 329.3C268, 355.4 266.7, 387.1 280.4, 414.2C285.5, 424.3 285.5, 436.9 280.2, 447.1C277.6, 452.1 271.5, 460.8 259.6, 462.7C210.3, 470.4 150.7, 446.1 107.6, 401.1C58.8, 350.2 38.6, 281.7 52.2, 213.1C68.1, 132.5 133, 67.8 213.8, 52.1C276.4, 39.8 339.9, 55.6 388.1, 95.2C436.2, 134.7 463.8, 192.8 464, 254.8C464, 273.4 448.7, 288 429.2, 288zM160, 128C142.3, 128 128, 142.3 128, 160C128, 177.7 142.3, 192 160, 192C177.7, 192 192, 177.7 192, 160C192, 142.3 177.6, 128 160, 128zM256, 95.9C238.3, 95.9 224, 110.2 224, 127.9C224, 145.6 238.3, 159.9 256, 159.9C273.7, 159.9 288, 145.6 288, 127.9C288, 110.3 273.7, 95.9 256, 95.9zM352, 128C334.3, 128 320, 142.3 320, 160C320, 177.7 334.3, 192 352, 192C369.7, 192 384, 177.7 384, 160C384, 142.3 369.7, 128 352, 128z" fill="#727272" fill-opacity="1" class="Black" />
  </g>
</svg>