<?xml version='1.0' encoding='UTF-8'?>
<svg viewBox="-2 -4.7992 32 32" xmlns="http://www.w3.org/2000/svg">
  <g transform="matrix(0.9988, 0, 0, 0.9988, 0, 0)">
    <g transform="matrix(0.0438, 0, 0, 0.0438, 0, 0)">
      <path d="M112, 288L528, 288C536.8, 288 544, 280.8 544, 272L544, 80C544, 71.2 536.8, 64 528, 64L384, 64L384, 16C384, 7.2 376.8, 0 368, 0L112, 0C103.2, 0 96, 7.2 96, 16L96, 272C96, 280.8 103.2, 288 112, 288zM384, 112L496, 112L496, 240L384, 240L384, 112zM144, 48L336, 48L336, 240L144, 240L144, 48zM624, 368C632.8, 368 640, 360.8 640, 352L640, 336C640, 327.2 632.8, 320 624, 320L16, 320C7.2, 320 0, 327.2 0, 336L0, 352C0, 360.8 7.2, 368 16, 368L64, 368L64, 464L16, 464C7.2, 464 0, 471.2 0, 480L0, 496C0, 504.8 7.2, 512 16, 512L624, 512C632.8, 512 640, 504.8 640, 496L640, 480C640, 471.2 632.8, 464 624, 464L576, 464L576, 368L624, 368zM176, 464L112, 464L112, 368L176, 368L176, 464zM416, 464L224, 464L224, 368L416, 368L416, 464zM528, 464L464, 464L464, 368L528, 368L528, 464z" fill="#727272" fill-opacity="1" class="Black" />
    </g>
  </g>
</svg>