<?xml version='1.0' encoding='UTF-8'?>
<svg viewBox="-1.9988 -2 32 32" xmlns="http://www.w3.org/2000/svg">
  <g transform="matrix(0.0547, 0, 0, 0.0547, 0, 0)">
    <path d="M67.508, 468.467C9.503, 410.454 9.492, 316.547 67.508, 258.524L292.519, 33.484C337.162, -11.161 409.798, -11.161 454.439, 33.484C499.182, 78.233 499.192, 150.67 454.439, 195.428L264.974, 384.918C233.564, 416.331 182.456, 416.33 151.048, 384.919C119.569, 353.437 119.558, 302.466 151.048, 270.975L311.51, 110.491C316.197, 105.804 323.796, 105.804 328.482, 110.491L345.449, 127.462C350.134, 132.148 350.134, 139.745 345.449, 144.431L184.983, 304.917C172.259, 317.641 172.253, 338.245 184.983, 350.975C197.679, 363.672 218.339, 363.674 231.037, 350.974L420.502, 161.485C446.489, 135.496 446.496, 93.425 420.503, 67.429C394.572, 41.495 352.384, 41.497 326.454, 67.429L101.444, 292.468C62.195, 331.72 62.186, 395.263 101.443, 434.525C140.728, 473.815 204.328, 473.812 243.605, 434.497A739446.174 739446.174 0 0 1 439.497, 238.49C444.183, 233.803 451.779, 233.806 456.466, 238.494L473.433, 255.465C478.118, 260.151 478.122, 267.744 473.437, 272.43A755654.128 755654.128 0 0 0 277.556, 468.426C219.522, 526.518 125.552, 526.519 67.508, 468.467z" fill="#727272" fill-opacity="1" class="Black" />
  </g>
</svg>