<?xml version='1.0' encoding='UTF-8'?>
<svg viewBox="-1.99 -1.9937 32 32" xmlns="http://www.w3.org/2000/svg">
  <g transform="matrix(0.0547, 0, 0, 0.0547, 0, 0)">
    <path d="M440, 6.5L24, 246.4C-10.4, 266.3 -7.1, 317.2 29.7, 332.3L144, 379.6L144, 464C144, 510.4 203.2, 529.5 230.6, 492.6L274.4, 433.5L386.3, 479.7C392.2, 482.1 398.4, 483.3 404.6, 483.3C412.8, 483.3 420.9, 481.2 428.2, 477.1C441, 469.9 449.8, 457.1 452.1, 442.6L511.5, 55.4C517.6, 15.3 474.6, -13.4 440, 6.5zM192, 464L192, 399.4L228.6, 414.5L192, 464zM404.6, 435.3L250.8, 371.8L391, 169.5C401.7, 154 381.5, 136 367.3, 148.3L155.8, 332.6L48, 288L464, 48L404.6, 435.3z" fill="#727272" fill-opacity="1" class="Black" />
  </g>
</svg>