<?xml version='1.0' encoding='UTF-8'?>
<svg viewBox="-1.9974 -1.9999 31.9975 32" xmlns="http://www.w3.org/2000/svg">
  <g transform="matrix(0.0547, 0, 0, 0.0547, 0, 0)">
    <path d="M511.9, 175C502.8, 99.4 433.5, 42.6 353.6, 16.3C389.9, 55.5 415.8, 116.4 416, 191.1L314.6, 320L280, 320L280, 192L384, 192C384, 76.8 315.1, 0 256, 0C196.9, 0 128, 76.8 128, 192L232, 192L232, 320L197.4, 320L96, 191.1C96.2, 116.4 122.1, 55.5 158.4, 16.3C78.5, 42.7 9.2, 99.5 0.1, 175C-1, 184.1 6.9, 192 16.1, 192L35.6, 192L160.3, 350.5C160.3, 351 160, 351.5 160, 352L160, 480C160, 497.7 174.3, 512 192, 512L320, 512C337.7, 512 352, 497.7 352, 480L352, 352C352, 351.5 351.7, 351 351.7, 350.5L476.4, 192L495.9, 192C505.1, 192 513, 184.2 511.9, 175zM304, 456C304, 460.4 300.4, 464 296, 464L216, 464C211.6, 464 208, 460.4 208, 456L208, 376C208, 371.6 211.6, 368 216, 368L296, 368C300.4, 368 304, 371.6 304, 376L304, 456z" fill="#727272" fill-opacity="1" class="Black" />
  </g>
</svg>