<?xml version='1.0' encoding='UTF-8'?>
<svg viewBox="-1.9999 -1.549 31.9975 32" xmlns="http://www.w3.org/2000/svg">
  <g transform="matrix(0.999, 0, 0, 0.999, 0, 0)">
    <g transform="matrix(0.0565, 0, 0, 0.0565, 0, 0)">
      <path d="M256.09, 135.91L176.09, 135.91C167.25, 135.91 160.09, 143.07 160.09, 151.91L160.09, 367.91C160.09, 376.75 167.25, 383.91 176.09, 383.91L192.09, 383.91C200.93, 383.91 208.09, 376.75 208.09, 367.91L208.09, 311.91L256.09, 311.91C304.62, 311.91 344.09, 272.44 344.09, 223.91C344.09, 175.38 304.62, 135.91 256.09, 135.91zM256.09, 263.91L208.09, 263.91L208.09, 183.91L256.09, 183.91C278.15, 183.91 296.09, 201.85 296.09, 223.91C296.09, 245.97 278.15, 263.91 256.09, 263.91zM248, 8C111.03, 8 0, 119.03 0, 256C0, 392.97 111.03, 504 248, 504C384.97, 504 496, 392.97 496, 256C496, 119.03 384.97, 8 248, 8zM248, 456C137.72, 456 48, 366.28 48, 256C48, 145.72 137.72, 56 248, 56C358.28, 56 448, 145.72 448, 256C448, 366.28 358.28, 456 248, 456z" fill="#727272" fill-opacity="1" class="Black" />
    </g>
  </g>
</svg>