<?xml version='1.0' encoding='UTF-8'?>
<svg viewBox="-2 0 32 32" xmlns="http://www.w3.org/2000/svg">
  <g transform="matrix(0.0625, 0, 0, 0.0625, 0, 0)">
    <path d="M400, 32L48, 32C21.5, 32 0, 53.5 0, 80L0, 432C0, 458.5 21.5, 480 48, 480L400, 480C426.5, 480 448, 458.5 448, 432L448, 80C448, 53.5 426.5, 32 400, 32zM400, 426C400, 429.3 397.3, 432 394, 432L54, 432C50.7, 432 48, 429.3 48, 426L48, 86C48, 82.7 50.7, 80 54, 80L394, 80C397.3, 80 400, 82.7 400, 86L400, 426zM232, 135.9L152, 135.9C143.2, 135.9 136, 143.1 136, 151.9L136, 367.9C136, 376.7 143.2, 383.9 152, 383.9L168, 383.9C176.8, 383.9 184, 376.7 184, 367.9L184, 311.9L232, 311.9C280.5, 311.9 320, 272.4 320, 223.9C320.1, 175.4 280.6, 135.9 232, 135.9zM232, 264L184, 264L184, 184L232, 184C254.1, 184 272, 201.9 272, 224C272, 246.1 254.1, 264 232, 264z" fill="#727272" fill-opacity="1" class="Black" />
  </g>
</svg>