<?xml version='1.0' encoding='UTF-8'?>
<svg viewBox="-3.7494 -1.9999 32 32" xmlns="http://www.w3.org/2000/svg">
  <g transform="matrix(0.0547, 0, 0, 0.0547, 0, 0)">
    <path d="M416, 0L64, 0C28.65, 0 0, 28.65 0, 64L0, 448C0, 483.35 28.65, 512 64, 512L416, 512C433.67, 512 448, 497.67 448, 480L448, 32C448, 14.33 433.67, 0 416, 0zM400, 464L64, 464C55.18, 464 48, 456.82 48, 448L48, 64C48, 55.18 55.18, 48 64, 48L400, 48L400, 464zM112, 416L336, 416C344.8, 416 352, 408.8 352, 400C352, 391.2 344.8, 384 336, 384L112, 384C103.2, 384 96, 391.2 96, 400C96, 408.8 103.2, 416 112, 416zM224, 328C290.28, 328 344, 274.27 344, 208C344, 141.72 290.28, 88 224, 88C157.73, 88 104, 141.72 104, 208C104, 274.27 157.73, 328 224, 328zM310.38, 192L275.79, 192C274.4, 168.32 270.04, 147.01 263.52, 129.81C287.57, 142.02 305.33, 164.68 310.38, 192zM275.79, 224L310.38, 224C305.33, 251.32 287.56, 273.98 263.52, 286.19C270.05, 268.98 274.4, 247.68 275.79, 224zM224, 122.24C230.91, 130.61 241.51, 154.63 243.96, 192L204.03, 192C206.49, 154.63 217.09, 130.61 224, 122.24zM243.96, 224C241.51, 261.37 230.91, 285.39 224, 293.76C217.09, 285.39 206.49, 261.37 204.04, 224L243.96, 224zM184.47, 129.81C177.95, 147.01 173.6, 168.32 172.2, 192L137.61, 192C142.67, 164.68 160.43, 142.02 184.47, 129.81zM172.21, 224C173.61, 247.68 177.96, 268.98 184.48, 286.19C160.44, 273.98 142.68, 251.32 137.62, 224L172.21, 224z" fill="#727272" fill-opacity="1" class="Black" />
  </g>
</svg>