<?xml version='1.0' encoding='UTF-8'?>
<svg viewBox="-3.7495 -2 32 32" xmlns="http://www.w3.org/2000/svg">
  <g transform="matrix(0.0547, 0, 0, 0.0547, 0, 0)">
    <path d="M433.941, 193.941L382.059, 142.059A48 48 0 0 0 348.118, 128L320, 128L320, 80C320, 53.49 298.51, 32 272, 32L210.586, 32C201.582, 13.098 182.294, 0 160, 0C137.706, 0 118.418, 13.098 109.414, 32L48, 32C21.49, 32 0, 53.49 0, 80L0, 368C0, 394.51 21.49, 416 48, 416L128, 416L128, 464C128, 490.51 149.49, 512 176, 512L400, 512C426.51, 512 448, 490.51 448, 464L448, 227.882A48 48 0 0 0 433.941, 193.941zM349.875, 177.757L398.243, 226.125A6 6 0 0 1 400, 230.368L400, 240L336, 240L336, 176L345.632, 176A6 6 0 0 1 349.875, 177.757zM160, 38C169.941, 38 178, 46.059 178, 56C178, 65.941 169.941, 74 160, 74C150.059, 74 142, 65.941 142, 56C142, 46.059 150.059, 38 160, 38zM128, 176L128, 368L54, 368A6 6 0 0 1 48, 362L48, 86A6 6 0 0 1 54, 80L109.414, 80C118.418, 98.902 137.706, 112 160, 112C182.294, 112 201.582, 98.902 210.586, 80L266, 80A6 6 0 0 1 272, 86L272, 128L176, 128C149.49, 128 128, 149.49 128, 176zM394, 464L182, 464A6 6 0 0 1 176, 458L176, 182A6 6 0 0 1 182, 176L288, 176L288, 264C288, 277.255 298.745, 288 312, 288L400, 288L400, 458A6 6 0 0 1 394, 464z" fill="#727272" fill-opacity="1" class="Black" />
  </g>
</svg>