<?xml version='1.0' encoding='UTF-8'?>
<svg viewBox="-2 0 32 32" xmlns="http://www.w3.org/2000/svg">
  <g transform="matrix(0.0625, 0, 0, 0.0625, 0, 0)">
    <path d="M400, 144C373.49, 144 352, 165.49 352, 192C352, 218.51 373.49, 240 400, 240C426.51, 240 448, 218.51 448, 192C448, 165.49 426.51, 144 400, 144zM144, 128C170.51, 128 192, 106.51 192, 80C192, 53.49 170.51, 32 144, 32C117.49, 32 96, 53.49 96, 80C96, 106.51 117.49, 128 144, 128zM304, 128C330.51, 128 352, 106.51 352, 80C352, 53.49 330.51, 32 304, 32C277.49, 32 256, 53.49 256, 80C256, 106.51 277.49, 128 304, 128zM367.31, 300.78C341.02, 285.94 320.17, 239.37 300.14, 202.95C284.41, 174.31 254.21, 160 224, 160C193.79, 160 163.59, 174.31 147.85, 202.95C127.56, 239.91 107.73, 285.51 80.68, 300.78C51.63, 317.18 32, 348.18 32, 383.95C32, 436.96 74.98, 479.93 128, 479.93C129.31, 479.97 130.6, 480 131.87, 480C180.75, 480 200.79, 447.94 224, 447.94C247.21, 447.94 267.25, 480 316.13, 480C317.4, 480 318.69, 479.98 320, 479.93C373.02, 479.93 416, 436.96 416, 383.95C416, 348.18 396.37, 317.18 367.31, 300.78zM320, 431.93L319.19, 431.93L318.38, 431.96L316.13, 432C300.43, 432 290.85, 426.29 277.59, 418.37C263.83, 410.16 246.7, 399.94 224, 399.94C201.3, 399.94 184.17, 410.16 170.41, 418.38C157.16, 426.29 147.58, 432 131.87, 432L129.63, 431.96L128.82, 431.93L128, 431.93C101.53, 431.93 80, 410.41 80, 383.95C80, 366.63 89.08, 351.16 104.29, 342.57C138.85, 323.05 159.54, 283.65 179.54, 245.55C183.02, 238.93 186.46, 232.35 189.92, 226.07C199.13, 209.3 218.33, 208 224, 208C229.67, 208 248.87, 209.3 258.08, 226.07C261.35, 232.02 264.64, 238.24 267.97, 244.55C288.44, 283.28 309.62, 323.33 343.71, 342.58C358.92, 351.17 368, 366.64 368, 383.96C368, 410.41 346.47, 431.93 320, 431.93zM96, 192C96, 165.49 74.51, 144 48, 144C21.49, 144 0, 165.49 0, 192C0, 218.51 21.49, 240 48, 240C74.51, 240 96, 218.51 96, 192z" fill="#727272" fill-opacity="1" class="Black" />
  </g>
</svg>