<?xml version='1.0' encoding='UTF-8'?>
<svg viewBox="-1.995 -1.9963 32 32" xmlns="http://www.w3.org/2000/svg">
  <g transform="matrix(0.0547, 0, 0, 0.0547, 0, 0)">
    <path d="M74.84, 286.73C103.96, 279.77 119.13, 246.04 108.72, 211.39C99.6, 181 73.83, 160 47.98, 160C44.36, 160 40.74, 160.41 37.17, 161.27C8.05, 168.23 -7.12, 201.96 3.28, 236.61C12.41, 267 38.18, 288 64.02, 288C67.64, 288 71.26, 287.59 74.84, 286.73zM41.59, 225.1C38.71, 215.51 40.21, 207.73 42.56, 203.63C44.25, 200.7 45.86, 200.31 46.47, 200.17C46.95, 200.06 47.44, 200 47.98, 200C54.5, 200 65.93, 207.96 70.41, 222.89C73.29, 232.48 71.79, 240.27 69.44, 244.36C67.75, 247.29 66.14, 247.68 64.02, 247.99C57.5, 248 46.08, 240.04 41.59, 225.1zM318.56, 190.61C322.11, 191.54 325.71, 191.99 329.32, 191.99C357.16, 191.99 385.54, 165.17 396.02, 126.74C407.86, 83.32 392.38, 41.53 361.44, 33.38A41.92 41.92 0 0 0 350.68, 31.99C322.84, 31.99 294.46, 58.81 283.98, 97.25C272.14, 140.67 287.62, 182.47 318.56, 190.61zM322.57, 107.78C328.98, 84.29 344.28, 72 350.68, 72L351.26, 72.07C352.14, 72.3 353.72, 73.74 355.27, 76.42C359.35, 83.48 362.36, 98.15 357.43, 116.22C351.04, 139.65 335.81, 151.93 328.8, 151.93L328.74, 151.93C327.86, 151.7 326.28, 150.27 324.73, 147.58C320.65, 140.52 317.64, 125.86 322.57, 107.78zM474.83, 161.27C471.26, 160.41 467.63, 160 464.02, 160C438.17, 160 412.4, 181 403.28, 211.39C392.88, 246.04 408.05, 279.77 437.17, 286.73C440.75, 287.59 444.37, 288 447.98, 288C473.83, 288 499.6, 267 508.72, 236.61C519.12, 201.96 503.95, 168.23 474.83, 161.27zM470.41, 225.1C465.97, 239.88 454.74, 247.83 446.72, 247.83L446.47, 247.83C445.86, 247.69 444.25, 247.3 442.56, 244.37C440.2, 240.27 438.71, 232.48 441.59, 222.9C446.08, 207.96 457.5, 200 464.02, 200L465.53, 200.17C466.14, 200.31 467.75, 200.7 469.44, 203.63C471.8, 207.73 473.29, 215.52 470.41, 225.1zM182.68, 192C186.29, 192 189.89, 191.55 193.44, 190.62C224.38, 182.48 239.86, 140.68 228.02, 97.26C217.54, 58.82 189.16, 32 161.32, 32C157.71, 32 154.11, 32.45 150.56, 33.39C119.62, 41.53 104.14, 83.33 115.98, 126.75C126.46, 165.18 154.85, 192 182.68, 192zM156.73, 76.42C158.28, 73.74 159.86, 72.3 160.74, 72.07C160.86, 72.04 161.03, 72 161.32, 72C167.72, 72 183.02, 84.29 189.43, 107.78C194.36, 125.86 191.35, 140.52 187.27, 147.58C185.72, 150.26 184.14, 151.7 182.68, 151.99C176.28, 151.99 160.97, 139.7 154.57, 116.21C149.64, 98.14 152.65, 83.48 156.73, 76.42zM256, 224C176.59, 224 64, 346.76 64, 424.25C64, 459.15 90.81, 480 135.74, 480C184.58, 480 216.83, 454.92 256, 454.92C295.51, 454.92 327.85, 480 376.26, 480C421.19, 480 448, 459.15 448, 424.25C448, 346.76 335.41, 224 256, 224zM399.81, 427.07C398.86, 428.12 392.11, 432 376.27, 432C358.54, 432 342.97, 426.87 324.93, 420.92C305.03, 414.36 282.47, 406.92 256.01, 406.92C229.79, 406.92 207.38, 414.32 187.61, 420.84C169.47, 426.83 153.81, 432 135.75, 432C119.9, 432 113.15, 428.11 112.37, 427.33C112.27, 427.1 112.01, 426.1 112.01, 424.25C112, 370.18 204.86, 272 256, 272C307.14, 272 400, 370.18 400, 424.25C400, 426.07 399.75, 427.07 399.81, 427.07z" fill="#727272" fill-opacity="1" class="Black" />
  </g>
</svg>