<?xml version='1.0' encoding='UTF-8'?>
<svg viewBox="-1.9999 -1.549 31.9975 32" xmlns="http://www.w3.org/2000/svg">
  <g transform="matrix(0.999, 0, 0, 0.999, 0, 0)">
    <g transform="matrix(0.0565, 0, 0, 0.0565, 0, 0)">
      <path d="M248, 8C111.03, 8 0, 119.03 0, 256C0, 392.97 111.03, 504 248, 504C384.97, 504 496, 392.97 496, 256C496, 119.03 384.97, 8 248, 8zM224, 454.42C179.13, 449.02 138.79, 428.79 108.09, 398.67L224, 305.93L224, 454.42zM272, 305.93L387.91, 398.66C357.2, 428.78 316.87, 449.01 272, 454.41L272, 305.93zM48, 256C48, 153.86 125.02, 69.49 224, 57.58L224, 244.46L78.18, 361.12C59.17, 330.54 48, 294.59 48, 256zM417.82, 361.12L272, 244.46L272, 57.58C370.98, 69.49 448, 153.86 448, 256C448, 294.59 436.83, 330.54 417.82, 361.12z" fill="#727272" fill-opacity="1" class="Black" />
    </g>
  </g>
</svg>