<?xml version='1.0' encoding='UTF-8'?>
<svg viewBox="-2.0011 -1.9998 32 31.9975" xmlns="http://www.w3.org/2000/svg">
  <g transform="matrix(0.0547, 0, 0, 0.0547, 0, 0)">
    <path d="M493.87, 95.6L416.4, 18.13C404.32, 6.04 388.48, 0 372.64, 0C356.8, 0 340.96, 6.04 328.88, 18.13L236.43, 110.58L136.6, 138.79A64.003 64.003 0 0 0 93.29, 180.14L0, 460L52, 512L331.86, 418.71A64.003 64.003 0 0 0 373.21, 375.4L401.42, 275.57L493.87, 183.12C518.04, 158.95 518.04, 119.77 493.87, 95.6zM327.02, 362.35C325.58, 367.45 321.71, 371.5 316.68, 373.18L83.83, 450.79L187.42, 347.2C193.68, 350.19 200.6, 352 208, 352C234.51, 352 256, 330.51 256, 304C256, 277.49 234.51, 256 208, 256C181.49, 256 160, 277.49 160, 304C160, 311.4 161.81, 318.32 164.8, 324.58L61.21, 428.17L138.83, 195.32C140.51, 190.29 144.55, 186.43 149.66, 184.98L249.49, 156.77L250.54, 156.47L355.54, 261.47L355.25, 262.51L327.02, 362.35zM459.93, 149.18L385.52, 223.59L288.41, 126.48L362.82, 52.07C365.11, 49.78 374.49, 44.1 382.46, 52.07L459.93, 129.54C465.35, 134.95 465.35, 143.76 459.93, 149.18z" fill="#727272" fill-opacity="1" class="Black" />
  </g>
</svg>