<?xml version='1.0' encoding='UTF-8'?>
<svg viewBox="-1.9974 -1.9999 31.9975 32" xmlns="http://www.w3.org/2000/svg">
  <g transform="matrix(0.0547, 0, 0, 0.0547, 0, 0)">
    <path d="M493.26, 56.26L455.75, 18.75C443.25, 6.25 426.87, 0 410.49, 0C394.11, 0 377.73, 6.25 365.24, 18.74L290.75, 93.23L256, 127.98L12.85, 371.12L0.15, 485.34C-1.45, 499.72 9.88, 512 23.95, 512C24.84, 512 25.74, 511.95 26.64, 511.85L140.78, 499.24L384.02, 256L418.76, 221.26L493.25, 146.77C518.25, 121.77 518.25, 81.25 493.26, 56.26zM118.75, 453.39L51.17, 460.85L58.7, 393.16L289.94, 161.92L320.96, 130.9L381.1, 191.04L350.08, 222.06L118.75, 453.39zM459.31, 112.82L415.03, 157.1L354.9, 96.96L399.18, 52.68C403.26, 48.6 408.02, 47.99 410.49, 47.99C412.96, 47.99 417.73, 48.6 421.8, 52.68L459.31, 90.19C465.55, 96.44 465.55, 106.59 459.31, 112.82z" fill="#727272" fill-opacity="1" class="Black" />
  </g>
</svg>