<?xml version='1.0' encoding='UTF-8'?>
<svg viewBox="-1.9988 -2 32 32" xmlns="http://www.w3.org/2000/svg">
  <g transform="matrix(0.0547, 0, 0, 0.0547, 0, 0)">
    <path d="M491.609, 73.625L437.748, 19.786C411.37, -6.593 368.673, -6.597 342.288, 19.785L24.91, 335.089L0.329, 484.085C-2.346, 500.3 11.697, 514.346 27.916, 511.672L176.911, 487.09L492.237, 169.712C518.567, 143.381 518.818, 100.833 491.609, 73.625zM200.443, 311.557C204.739, 315.853 210.37, 318 216, 318C221.63, 318 227.261, 315.853 231.557, 311.557L350.586, 192.527L379.155, 221.096L210, 391.355L210, 350L162, 350L162, 302L120.644, 302L290.903, 132.845L319.472, 161.414L200.442, 280.443C191.853, 289.035 191.853, 302.965 200.443, 311.557zM82.132, 458.132L53.869, 429.869L66.009, 356.282L84.409, 338L126, 338L126, 386L174, 386L174, 427.59L155.718, 445.991L82.132, 458.132zM461.117, 138.599L461.066, 138.65L461.015, 138.701L412.985, 187.045L324.955, 99.015L373.299, 50.985L373.349, 50.935L373.399, 50.885C382.546, 41.739 397.377, 41.626 406.635, 50.884L460.489, 104.738C470.367, 114.615 470.428, 129.287 461.117, 138.599z" fill="#727272" fill-opacity="1" class="Black" />
  </g>
</svg>