<?xml version='1.0' encoding='UTF-8'?>
<svg viewBox="-1.9974 -1.9999 31.9975 32" xmlns="http://www.w3.org/2000/svg">
  <g transform="matrix(0.0547, 0, 0, 0.0547, 0, 0)">
    <path d="M502.71, 368.14L379.88, 245.31L435.89, 189.3L493.25, 131.93C518.24, 106.94 518.24, 66.41 493.24, 41.42L470.56, 18.74C458.07, 6.25 441.69, 0 425.31, 0C408.93, 0 392.55, 6.25 380.06, 18.74L322.69, 76.1L322.68, 76.09L266.66, 132.1L230.57, 96L143.86, 9.29C137.66, 3.1 129.55, 0 121.43, 0C113.31, 0 105.2, 3.1 99, 9.29L9.29, 99.01C-3.09, 111.4 -3.1, 131.48 9.29, 143.87L109.47, 244.04L132.09, 266.66L19.07, 379.66L0.32, 487.1C-1.98, 500.34 8.33, 512 21.18, 512C22.41, 512 23.65, 511.89 24.92, 511.67L132.36, 492.83L245.31, 379.87L368.14, 502.7C374.33, 508.89 382.45, 511.99 390.57, 511.99C398.69, 511.99 406.81, 508.89 413, 502.7L502.71, 413C515.1, 400.61 515.1, 380.53 502.71, 368.14zM414, 52.68C418.08, 48.6 422.84, 47.99 425.31, 47.99C427.78, 47.99 432.54, 48.6 436.62, 52.68L459.3, 75.36C463.38, 79.44 463.99, 84.2 463.99, 86.67C463.99, 89.14 463.38, 93.91 459.3, 97.98L407.61, 149.67L362.3, 104.36L414, 52.68zM143.41, 210.1L54.75, 121.44L121.44, 54.75L160.39, 93.69L138.36, 115.72C132.11, 121.97 132.11, 132.1 138.36, 138.35L149.67, 149.66C155.92, 155.91 166.05, 155.91 172.3, 149.66L194.33, 127.63L196.65, 129.95L232.75, 166.05L166.06, 232.73L143.41, 210.1zM109.14, 448.17L54.17, 457.81L63.76, 402.87L328.38, 138.31L373.69, 183.62L109.14, 448.17zM390.57, 457.25L279.25, 345.94L345.94, 279.25L384.38, 317.69L362.35, 339.72C356.1, 345.97 356.1, 356.1 362.35, 362.35L373.66, 373.66C379.91, 379.91 390.04, 379.91 396.29, 373.66L418.32, 351.63L457.26, 390.57L390.57, 457.25z" fill="#727272" fill-opacity="1" class="Black" />
  </g>
</svg>