<?xml version='1.0' encoding='UTF-8'?>
<svg viewBox="-1.9988 -2 32 32" xmlns="http://www.w3.org/2000/svg">
  <g transform="matrix(0.0547, 0, 0, 0.0547, 0, 0)">
    <path d="M433.43, 365.35C412.87, 311.16 378.42, 291.52 339.5, 285.69L493.26, 131.93C518.25, 106.94 518.25, 66.41 493.25, 41.42L470.57, 18.74C458.07, 6.25 441.69, 0 425.32, 0C408.94, 0 392.56, 6.25 380.07, 18.74L240.21, 158.57L158.15, 35.86C140.34, 10.45 116.87, 0.01 93.48, 0.01C28.72, 0.01 -35.44, 80.03 22.84, 144.06L133.26, 265.51L19.08, 379.66L0.33, 487.1C-1.98, 500.33 8.34, 512 21.18, 512C22.41, 512 23.65, 511.89 24.92, 511.67L132.37, 492.83L226.09, 399.11C232.09, 444.02 260.26, 512 368, 512C469.33, 512 512, 430.58 512, 337.93C500.99, 345.45 462.34, 376.58 449.85, 376.58C442.43, 376.58 436.08, 372.34 433.43, 365.35zM414, 52.68C419.82, 46.86 429.98, 46.04 436.63, 52.68L459.31, 75.36C465.12, 81.16 465.97, 91.33 459.31, 97.99L407.62, 149.68L362.31, 104.37L414, 52.68zM58.33, 111.75C47.72, 100.1 45.39, 89.49 50.75, 77.36C57.9, 61.18 77.07, 48.01 93.47, 48.01C99.73, 48.01 109.17, 49.61 118.25, 62.54L205.6, 193.17L167.23, 231.53L58.33, 111.75zM109.14, 448.17L54.17, 457.81L63.76, 402.87L328.38, 138.31L373.69, 183.62L109.14, 448.17zM368, 464C333.46, 464 308.2, 455.42 292.94, 438.49C273.01, 416.38 271.65, 382.61 272.81, 371.46L275.02, 350.16L294.95, 330.23L321.01, 331.91C352.42, 333.93 373.55, 342.84 388.54, 382.35C397.57, 406.19 418.99, 422.18 444.06, 424.33C430.03, 447.13 406.6, 464 368, 464z" fill="#727272" fill-opacity="1" class="Black" />
  </g>
</svg>