<?xml version='1.0' encoding='UTF-8'?>
<svg viewBox="-2 -3.5542 32 32" xmlns="http://www.w3.org/2000/svg">
  <g transform="matrix(0.0486, 0, 0, 0.0486, 0, 0)">
    <path d="M542.3, 183.5C520.4, 188.3 437.6, 197.6 295.9, 120.7C221.3, 80.3 158.4, 70.3 109.2, 72.7C121.5, 33.7 90.9, 0 56, 0C25.1, 0 0, 25.1 0, 56C0, 78.3 13.2, 97.4 32, 106.4L32, 504C32, 508.4 35.6, 512 40, 512L72, 512C76.4, 512 80, 508.4 80, 504L80, 428.4C160.8, 374.1 236.4, 372.7 245.8, 372.2C274, 370.8 320.3, 366.3 380.9, 353.2C385.3, 352.2 489.9, 328.7 569.8, 228.5C585.9, 208.3 568.3, 178.2 542.3, 183.5zM370.8, 306.3C313.3, 318.7 269.8, 322.9 243.4, 324.3C173.8, 327.8 117.8, 350.6 80, 372.2L80, 124C124.1, 115.4 189.6, 117.7 273, 162.9C374.4, 217.8 450, 232.7 498.9, 234.4C437.1, 291 371.5, 306.1 370.8, 306.3z" fill="#727272" fill-opacity="1" class="Black" />
  </g>
</svg>