<?xml version='1.0' encoding='UTF-8'?>
<svg viewBox="-1.9998 -4.8014 31.9975 32" xmlns="http://www.w3.org/2000/svg">
  <g transform="matrix(0.9988, 0, 0, 0.9988, 0, 0)">
    <g transform="matrix(0.0438, 0, 0, 0.0438, 0, 0)">
      <path d="M128, 96C154.5, 96 176, 74.5 176, 48C176, 21.5 154.5, 0 128, 0C101.5, 0 80, 21.5 80, 48C80, 74.5 101.5, 96 128, 96zM512, 96C538.5, 96 560, 74.5 560, 48C560, 21.5 538.5, 0 512, 0C485.5, 0 464, 21.5 464, 48C464, 74.5 485.5, 96 512, 96zM600, 250.6L581, 172.2C576.8, 154.9 564.3, 140.2 547.5, 132.9C530.6, 125.5 511.8, 126.4 496.1, 135.2C470.5, 149.6 455.8, 182.8 449.3, 201.4L437.1, 236.1C436.5, 237.8 435.4, 239.3 433.7, 240.4L416, 250.5L416, 128C416, 119.2 408.8, 112 400, 112L240, 112C231.2, 112 224, 119.2 224, 128L224, 250.5L206.2, 240.4C204.6, 239.3 203.4, 237.8 202.8, 236.1L190.6, 201.4C184.1, 182.8 169.4, 149.6 143.8, 135.2C128.1, 126.4 109.3, 125.5 92.4, 132.9C75.7, 140.2 63.2, 154.9 58.9, 172.2L40, 250.7C34.9, 271.8 42, 293.9 58.3, 308.2L127, 368.2C133.3, 373.7 137.2, 381.4 137.9, 389.7L145.9, 489.9C146.7, 499 154.8, 513.2 171.7, 511.9C184.9, 510.8 194.8, 499.3 193.7, 486.1L185, 376.9C183.8, 361.8 176.7, 347.8 165.3, 337.8L113.1, 292.2L137.9, 200.1C140.6, 205.4 157.5, 251.9 157.5, 251.9C161.4, 263.1 168.7, 272.6 180.5, 280.8L217.4, 300.2C222, 302.6 227.1, 303.9 232.3, 303.9L407.8, 303.9C413, 303.9 418.1, 302.6 422.7, 300.2L459.6, 280.8C471.4, 272.6 478.7, 263.1 482.6, 251.9C482.6, 251.9 499.5, 205.3 502.2, 200.1L527, 292.2L474.8, 337.8C463.4, 347.8 456.3, 361.8 455.1, 376.9L446.3, 486C445.3, 499.2 455.1, 510.8 468.3, 511.8C485.2, 513.1 493.4, 499.1 494.1, 489.8L502.1, 389.6C502.8, 381.3 506.7, 373.5 513, 368.1L581.7, 308.2C598, 293.9 605, 271.7 600, 250.6zM368, 256L272, 256L272, 160L368, 160L368, 256zM638.2, 478.9L584.5, 348.1L546.3, 381.5L593.7, 497.1C598.7, 509.3 612.6, 515.2 625, 510.2C637.4, 505.2 643.2, 491.2 638.2, 478.9zM1.8, 478.9C-3.2, 491.2 2.6, 505.2 14.9, 510.2C27.3, 515.2 41.2, 509.3 46.2, 497.1L93.6, 381.5L55.4, 348.1L1.8, 478.9z" fill="#727272" fill-opacity="1" class="Black" />
    </g>
  </g>
</svg>