<?xml version='1.0' encoding='UTF-8'?>
<svg viewBox="-2.0023 -1.9973 32 31.995" xmlns="http://www.w3.org/2000/svg">
  <g transform="matrix(0.0547, 0, 0, 0.0547, 0, 0)">
    <path d="M456.54, 143C494.92, 79.36 478, 27.4 458.54, 2.9A7.94 7.94 0 0 0 446.73, 2.39L423.73, 25.39A7.91 7.91 0 0 0 422.73, 35.39C430.03, 46.29 441.59, 73.58 417.67, 115.17A166.42 166.42 0 0 0 340.34, 96C285.6, 96 247.97, 124.33 241.94, 128.12A17.16 17.16 0 0 0 242.06, 157.25C222.23, 182 211.15, 213 200.84, 242.22C160.44, 356.77 96.47, 364.88 68.54, 368.08A72 72 0 0 0 72, 512C269.58, 509 408.64, 413 468.24, 331.38L478.86, 339.38A14.94 14.94 0 0 0 502.3, 331.18C505.03, 320.59 512, 297.44 512, 272.73A178.43 178.43 0 0 0 456.54, 143zM340.34, 144C407.03, 144 461.56, 199.22 463.91, 268L424.91, 238.69A32 32 0 0 0 402.14, 232.46L363.14, 236.79L367.27, 199.66A32 32 0 0 0 352.27, 168.89L316.12, 146.6A114.26 114.26 0 0 1 340.34, 144zM72, 464A24 24 0 0 1 72, 416C102.46, 412.49 194.66, 404.05 246.12, 258.19C257.33, 226.39 266.8, 200.51 283.66, 182.96L318.47, 204.45L313.26, 251.45A32 32 0 0 0 348.6, 286.79L401.19, 280.94L429.91, 302.55C382.09, 368.39 259.26, 461.12 72, 464z" fill="#727272" fill-opacity="1" class="Black" />
  </g>
</svg>