<?xml version='1.0' encoding='UTF-8'?>
<svg viewBox="-3.9988 0 31.9975 32" xmlns="http://www.w3.org/2000/svg">
  <g transform="matrix(0.0625, 0, 0, 0.0625, 0, 0)">
    <path d="M96, 224C149, 224 192, 181 192, 128C192, 75 149, 32 96, 32C43, 32 0, 75 0, 128C0, 181 43, 224 96, 224zM96, 80C122.5, 80 144, 101.5 144, 128C144, 154.5 122.5, 176 96, 176C69.5, 176 48, 154.5 48, 128C48, 101.5 69.5, 80 96, 80zM288, 288C235, 288 192, 331 192, 384C192, 437 235, 480 288, 480C341, 480 384, 437 384, 384C384, 331 341, 288 288, 288zM288, 432C261.5, 432 240, 410.5 240, 384C240, 357.5 261.5, 336 288, 336C314.5, 336 336, 357.5 336, 384C336, 410.5 314.5, 432 288, 432zM381.9, 50.8L57.2, 475C54.9, 478.1 51.3, 480 47.5, 480L12, 480C2.4, 480 -3.3, 469.3 2, 461.3L327.2, 37C329.5, 33.9 333.1, 32 336.9, 32L372, 32C381.6, 32 387.3, 42.8 381.9, 50.8z" fill="#727272" fill-opacity="1" class="Black" />
  </g>
</svg>