<?xml version='1.0' encoding='UTF-8'?>
<svg viewBox="-1.9974 -1.9936 32 31.9975" xmlns="http://www.w3.org/2000/svg">
  <g transform="matrix(0.0547, 0, 0, 0.0547, 0, 0)">
    <path d="M501.5, 66.7L433.9, 42.1L439.4, 27.1C442.4, 18.8 438.1, 9.6 429.8, 6.6L414.8, 1.1C406.5, -1.9 397.3, 2.4 394.3, 10.7L388.8, 25.7L321.1, 1.1C310, -3 302.5, 5.6 300.6, 10.6L256.8, 130.9C253.8, 139.2 258.1, 148.4 266.4, 151.4L334, 176L318.2, 219.5C318.2, 219.5 268.3, 202.4 268.7, 203L218.2, 144.4C207.8, 134 193.4, 128 178.6, 128L115.7, 128C94.3, 128 75.2, 139.9 65.6, 158.9L2.5, 285.3C-3.4, 297.2 1.4, 311.6 13.2, 317.5C27.3, 324.5 40.6, 316.2 45.4, 306.8L96, 205.7L96, 302.4L72.2, 484.9C70.5, 498.1 79.8, 510.1 92.9, 511.8C93.9, 511.9 95, 512 96, 512C107.9, 512 118.2, 503.2 119.8, 491.1L141, 328L155, 328L206.2, 406.2C207.3, 407.6 207.9, 409.4 207.9, 411.2L207.9, 488C207.9, 501.2 218.6, 512 231.9, 512C245.1, 512 255.9, 501.3 255.9, 488L255.9, 411.2C255.9, 398.5 251.6, 386.1 245, 378.1L191.9, 296.9L191.9, 187.3L233.5, 235.6C239.6, 241.7 247.1, 246.4 255.4, 249.2L301.7, 264.6L287.8, 302.9C284.8, 311.2 289.1, 320.4 297.4, 323.4L312.4, 328.9C320.7, 331.9 329.9, 327.6 332.9, 319.3L379.1, 192.4L446.7, 217C458, 221.1 465.4, 212.3 467.2, 207.4L511, 87.2C514.1, 78.9 509.8, 69.7 501.5, 66.7zM433.1, 161L312.9, 117.2L334.8, 57.1L455, 100.9L433.1, 161zM144, 96.1C170.5, 96.1 192, 74.6 192, 48.1C192, 21.6 170.5, 0.1 144, 0.1C117.5, 0.1 96, 21.6 96, 48.1C96, 74.6 117.5, 96.1 144, 96.1z" fill="#727272" fill-opacity="1" class="Black" />
  </g>
</svg>