<?xml version='1.0' encoding='UTF-8'?>
<svg viewBox="-2.0036 -1.9998 32 31.9975" xmlns="http://www.w3.org/2000/svg">
  <g transform="matrix(0.0547, 0, 0, 0.0547, 0, 0)">
    <path d="M32, 48C32, 21.5 53.5, 0 80, 0C106.5, 0 128, 21.5 128, 48C128, 74.5 106.5, 96 80, 96C53.5, 96 32, 74.5 32, 48zM0, 488C0, 501.2 10.8, 512 24, 512C37.2, 512 48, 501.3 48, 488L48, 392.1C36, 382.6 0.5, 354.3 0, 353.9L0, 488zM503.4, 376.4L511.7, 407.3C512.8, 411.6 510.3, 416 506, 417.1L350.8, 458.7C345.7, 488.9 319.6, 512 287.9, 512C252.6, 512 223.9, 483.3 223.9, 448C223.9, 426.4 234.7, 407.3 251.1, 395.7L222.4, 288L147.8, 288C134.9, 288 123.2, 280.2 118.2, 268.2L96, 214.7L96, 328.1L134.1, 358.2C144.1, 366.1 151.1, 377.2 154, 389.6L175.4, 482.6C178.4, 495.5 170.3, 508.4 157.4, 511.4C143, 514.6 131.3, 504.9 128.6, 493.4L109, 408.6C107.4, 401.5 103.4, 395.2 97.7, 390.7L21.3, 330.3C3, 315.8 0, 294 0, 286.3L0, 184C0, 153.1 25.1, 128 56, 128L74.7, 128C97.3, 128 117.7, 141.6 126.4, 162.5L158.5, 240L209.6, 240L193, 178.4C191.9, 174.1 194.4, 169.7 198.7, 168.6L229.6, 160.3C233.9, 159.2 238.3, 161.7 239.4, 166L298.1, 385C315.8, 387.8 331.2, 397.7 340.9, 412L493.7, 370.8C497.9, 369.6 502.3, 372.2 503.4, 376.4zM304, 448C304, 439.2 296.8, 432 288, 432C279.2, 432 272, 439.2 272, 448C272, 456.8 279.2, 464 288, 464C296.8, 464 304, 456.8 304, 448z" fill="#727272" fill-opacity="1" class="Black" />
  </g>
</svg>