<?xml version='1.0' encoding='UTF-8'?>
<svg viewBox="-1.9998 -3.5563 31.9975 32" xmlns="http://www.w3.org/2000/svg">
  <g transform="matrix(0.0486, 0, 0, 0.0486, 0, 0)">
    <path d="M192, 496C192, 504.8 199.2, 512 208, 512L224, 512C232.8, 512 240, 504.8 240, 496L240, 320L192, 320L192, 496zM63.6, 128C90.1, 128 111.6, 106.5 111.6, 80C111.6, 53.5 90.1, 32 63.6, 32C37.1, 32 15.6, 53.5 15.6, 80C15.6, 106.5 37.1, 128 63.6, 128zM224.2, 232L169.9, 232L122.3, 184.4C111.8, 173.8 97.7, 168 82.8, 168L56.1, 168C25.1, 168 0, 193.1 0.1, 224.1L0.2, 320L0, 488C0, 501.2 10.7, 512 24, 512C37.2, 512 48, 501.3 48, 488L48.2, 370.1C48.4, 370.3 48.7, 370.4 49, 370.6C49.2, 370.8 49.3, 371 49.5, 371.1L100.9, 409.5C102.9, 411 104.1, 413.4 104.1, 415.9L104.1, 487.9C104.1, 501.1 114.9, 511.9 128.1, 511.9C141.3, 511.9 152.1, 501.1 152.1, 487.9L152.1, 415.9C152.1, 398.3 143.7, 381.5 129.6, 371.1L111.7, 357.7L111.7, 241.5L138.4, 268.3C145.8, 275.8 156.2, 280 166.7, 280L224.3, 280C237.5, 280 248.3, 269.2 248.3, 256C248.3, 242.8 237.5, 232 224.2, 232zM544, 0L224, 0C206.3, 0 192, 14.3 192, 32L192, 192L240, 192L240, 48.1L324.7, 252.8C301.8, 285.1 264, 342.7 264, 372C264, 413.9 298.1, 448 340, 448C354.3, 448 368.1, 443.9 380, 436.5C403.8, 451.5 436.2, 451.5 460, 436.5C471.9, 444 485.7, 448 500, 448C509.9, 448 519.3, 446 528, 442.5L528, 496C528, 504.8 535.2, 512 544, 512L560, 512C568.8, 512 576, 504.8 576, 496L576, 32C576, 14.3 561.7, 0 544, 0zM528, 372C528, 387.4 515.4, 400 500, 400C491.8, 400 484, 396.2 478.5, 389.6C473.9, 384.1 467.2, 380.8 460, 380.8C452.8, 380.8 446, 384 441.5, 389.6C430.6, 402.8 409.4, 402.8 398.6, 389.6C389.5, 378.5 370.7, 378.5 361.5, 389.6C356, 396.2 348.2, 400 340, 400C324.6, 400 312, 387.4 312, 372.2C312.8, 360 340.5, 312.3 371.3, 270.2C376.3, 263.4 377.3, 254.6 374.1, 246.8L291.9, 48L528, 48L528, 372z" fill="#727272" fill-opacity="1" class="Black" />
  </g>
</svg>