<?xml version='1.0' encoding='UTF-8'?>
<svg viewBox="-1.9999 -2.0011 31.9975 32" xmlns="http://www.w3.org/2000/svg">
  <g transform="matrix(0.0547, 0, 0, 0.0547, 0, 0)">
    <path d="M476.5, 22.9L382.3, 1.2C378.8, 0.4 375.4, 0 372, 0C354, 0 337.3, 10.6 330, 27.7L286.5, 129.2C278.5, 147.8 283.9, 169.8 299.6, 182.6L339.6, 215.3C311, 267.8 267.8, 311 215.4, 339.5L182.7, 299.5C173.8, 288.7 160.6, 282.8 147.2, 282.8C141.2, 282.8 135.1, 284 129.3, 286.5L27.7, 329.9C7.3, 338.6 -3.8, 360.6 1.1, 382.2L22.8, 476.4C27.6, 497.3 46, 511.9 67.4, 511.9C312.3, 512 512, 313.7 512, 67.5C512, 46.1 497.4, 27.7 476.5, 22.9zM69.3, 464L48.4, 373.3L146.6, 331.2L202.3, 399.3C301.1, 352.9 352.9, 301.3 399.3, 202.3L331.2, 146.6L373.3, 48.4L464, 69.3C463, 286.9 286.9, 463 69.3, 464zM88, 208C88, 216.8 95.2, 224 104, 224L120, 224C128.8, 224 136, 216.8 136, 208L136, 136L208, 136C216.8, 136 224, 128.8 224, 120L224, 104C224, 95.2 216.8, 88 208, 88L136, 88L136, 16C136, 7.2 128.8, 0 120, 0L104, 0C95.2, 0 88, 7.2 88, 16L88, 88L16, 88C7.2, 88 0, 95.2 0, 104L0, 120C0, 128.8 7.2, 136 16, 136L88, 136L88, 208z" fill="#727272" fill-opacity="1" class="Black" />
  </g>
</svg>