<?xml version='1.0' encoding='UTF-8'?>
<svg viewBox="-2 -2.0025 32 31.9975" xmlns="http://www.w3.org/2000/svg">
  <g transform="matrix(0.0547, 0, 0, 0.0547, 0, 0)">
    <path d="M484.25, 330L382.66, 286.45A45.86 45.86 0 0 0 329.27, 299.55L296.57, 339.55A311.08 311.08 0 0 1 172.38, 215.43L212.38, 182.73A45.91 45.91 0 0 0 225.48, 129.31L182, 27.79A45.63 45.63 0 0 0 129.69, 1.18L35.5, 22.89A45.59 45.59 0 0 0 0, 67.5C0, 313.76 199.68, 512.1 444.56, 512A45.58 45.58 0 0 0 489.15, 476.49L510.85, 382.27A45.75 45.75 0 0 0 484.25, 330zM442.66, 464.09C225.08, 463.09 49, 287 48, 69.3L138.69, 48.4L180.78, 146.62L112.69, 202.33C159.08, 301.33 210.88, 352.96 309.69, 399.33L365.38, 331.22L463.57, 373.33z" fill="#727272" fill-opacity="1" class="Black" />
  </g>
</svg>