<?xml version='1.0' encoding='UTF-8'?>
<svg viewBox="-1.9998 -3.5563 31.9975 32" xmlns="http://www.w3.org/2000/svg">
  <g transform="matrix(0.0486, 0, 0, 0.0486, 0, 0)">
    <path d="M368, 336L336, 336C327.16, 336 320, 343.16 320, 352L320, 384C320, 392.84 327.16, 400 336, 400L368, 400C376.84, 400 384, 392.84 384, 384L384, 352C384, 343.16 376.84, 336 368, 336zM320, 256L320, 288C320, 296.84 327.16, 304 336, 304L368, 304C376.84, 304 384, 296.84 384, 288L384, 256C384, 247.16 376.84, 240 368, 240L336, 240C327.16, 240 320, 247.16 320, 256zM432, 400L464, 400C472.84, 400 480, 392.84 480, 384L480, 352C480, 343.16 472.84, 336 464, 336L432, 336C423.16, 336 416, 343.16 416, 352L416, 384C416, 392.84 423.16, 400 432, 400zM432, 304L464, 304C472.84, 304 480, 296.84 480, 288L480, 256C480, 247.16 472.84, 240 464, 240L432, 240C423.16, 240 416, 247.16 416, 256L416, 288C416, 296.84 423.16, 304 432, 304zM512, 32L269.06, 32C262.45, 13.4 244.87, 0 224, 0L144, 0C123.13, 0 105.55, 13.4 98.94, 32L64, 32C28.65, 32 0, 60.65 0, 96L0, 448C0, 483.35 28.65, 512 64, 512L512, 512C547.35, 512 576, 483.35 576, 448L576, 96C576, 60.65 547.35, 32 512, 32zM144, 48L224, 48L224, 368L144, 368L144, 48zM528, 448C528, 456.82 520.82, 464 512, 464L64, 464C55.18, 464 48, 456.82 48, 448L48, 96C48, 87.18 55.18, 80 64, 80L96, 80L96, 368C96, 394.51 117.49, 416 144, 416L224, 416C250.51, 416 272, 394.51 272, 368L272, 80L320, 80L320, 152C320, 174.06 337.94, 192 360, 192L528, 192L528, 448zM528, 144L368, 144L368, 80L512, 80C520.82, 80 528, 87.18 528, 96L528, 144z" fill="#727272" fill-opacity="1" class="Black" />
  </g>
</svg>