<?xml version='1.0' encoding='UTF-8'?>
<svg viewBox="-1.9975 -4.7973 32 32" xmlns="http://www.w3.org/2000/svg">
  <g transform="matrix(0.999, 0, 0, 0.999, 0, 0)">
    <g transform="matrix(0.0438, 0, 0, 0.0438, 0, 0)">
      <path d="M634, 471L36, 3.5C29.1, -2 19, -0.9 13.5, 6L3.5, 18.5C-2, 25.4 -0.9, 35.5 6, 41L604, 508.5C610.9, 514 621, 512.9 626.5, 506L636.5, 493.5C642, 486.6 640.9, 476.5 634, 471zM403.5, 215.4C401.7, 218.8 399.3, 221.8 397.3, 225.1L435.1, 254.6C444.9, 238.6 454.3, 221.6 463.3, 202.3L395.2, 146.6L437.3, 48.4L528, 69.3C527.7, 146.5 504.9, 218.3 466.4, 279.1L504.4, 308.8C549.4, 239.3 575.9, 156.6 575.9, 67.5C575.9, 46.1 561.3, 27.7 540.4, 22.9L446.3, 1.2C424.7, -3.8 402.7, 7.4 394, 27.8L350.5, 129.3C342.5, 147.9 347.9, 169.9 363.6, 182.7L403.5, 215.4zM133.3, 464L112.4, 373.3L210.6, 331.2L266.3, 399.3C292.8, 386.9 315.7, 374 336.2, 360L296.2, 328.7C290.6, 332.3 285.3, 336.3 279.4, 339.5L246.7, 299.5C233.9, 283.8 211.9, 278.4 193.3, 286.4L91.7, 329.9C71.3, 338.6 60.2, 360.6 65.1, 382.2L86.8, 476.4C91.6, 497.3 110, 511.9 131.4, 511.9C235.6, 511.9 331.3, 475.8 407.3, 415.6L368.2, 385C302.6, 434.1 221.5, 463.6 133.3, 464z" fill="#727272" fill-opacity="1" class="Black" />
    </g>
  </g>
</svg>