<?xml version='1.0' encoding='UTF-8'?>
<svg viewBox="-3.5845 -1.6198 32 31.9975" xmlns="http://www.w3.org/2000/svg">
  <g transform="matrix(0.0554, 0, 0, 0.0554, 0, 0)">
    <path d="M226.615, 412.576L198.529, 342.358C190.615, 322.573 170.898, 311.054 150.322, 313.111L128.352, 315.308C122.102, 287.396 121.91, 257.436 128.35, 228.69L150.32, 230.887C170.861, 232.942 190.602, 221.454 198.528, 201.641L226.615, 131.423C235.053, 110.329 227.194, 86.28 207.929, 74.239L151.754, 39.132C133.657, 27.821 109.555, 29.922 93.738, 45.738C-30.884, 170.36 -31.609, 372.913 93.738, 498.261C109.554, 514.075 133.651, 516.183 151.755, 504.867L207.929, 469.76C227.194, 457.719 235.053, 433.669 226.615, 412.576zM127.059, 463.701C21.661, 357.639 21.517, 186.505 127.06, 80.297L181.706, 114.453L154.269, 183.042L94.323, 177.049C69.103, 246.844 69.082, 297.099 94.323, 366.95L154.27, 360.955L181.706, 429.546L127.059, 463.701zM282.787, 101.213L271.311, 112.689C267.194, 116.806 266.64, 123.273 269.97, 128.049A55.7 55.7 0 0 1 280, 160A55.688 55.688 0 0 1 269.969, 191.95C266.64, 196.726 267.194, 203.194 271.31, 207.31L282.786, 218.786C287.977, 223.977 296.537, 223.306 300.935, 217.427C312.913, 201.414 320, 181.535 320, 160C320, 138.465 312.913, 118.586 300.936, 102.572C296.538, 96.692 287.978, 96.022 282.787, 101.213zM373.662, 10.338L362.339, 21.661C357.878, 26.122 357.593, 33.312 361.78, 38.031C391.666, 71.708 408, 114.595 408, 160C408, 205.405 391.666, 248.292 361.78, 281.969C357.592, 286.688 357.878, 293.878 362.339, 298.339L373.662, 309.662C378.533, 314.533 386.505, 314.32 391.096, 309.183C426.488, 269.575 448, 217.302 448, 160C448, 102.698 426.488, 50.425 391.096, 10.817C386.505, 5.68 378.533, 5.467 373.662, 10.338zM328.307, 55.693L316.952, 67.048C312.546, 71.454 312.273, 78.477 316.267, 83.261C334.227, 104.771 344, 131.638 344, 160C344, 188.362 334.227, 215.229 316.267, 236.74C312.273, 241.523 312.546, 248.547 316.952, 252.953L328.307, 264.308C333.242, 269.243 341.366, 268.973 345.889, 263.658C369.655, 235.731 384, 199.54 384, 160C384, 120.46 369.655, 84.269 345.889, 56.343C341.366, 51.028 333.242, 50.759 328.307, 55.693z" fill="#727272" fill-opacity="1" class="Black" />
  </g>
</svg>