<?xml version='1.0' encoding='UTF-8'?>
<svg viewBox="-1.995 1.0031 32 32" xmlns="http://www.w3.org/2000/svg">
  <g transform="matrix(0.0625, 0, 0, 0.0625, 0, 0)">
    <path d="M436, 96L49.96, 96C41.47, 96 33.33, 99.37 27.33, 105.37L2.36, 130.34C-2.68, 135.38 0.89, 144 8.02, 144L144, 144L144, 281.79C144, 329.91 126.66, 375.36 94.9, 411C90.64, 415.78 90.59, 422.89 95.11, 427.42L112.1, 444.41C116.93, 449.24 125.04, 449.23 129.62, 444.16C169.95, 399.53 192, 342.35 192, 281.79L192, 144L288, 144L288, 379.9C288, 408.38 304.96, 435.41 331.97, 444.43C361.59, 454.32 392.2, 443.01 408.34, 418.75L431.97, 383.3C435.65, 377.78 434.16, 370.34 428.64, 366.66L408.67, 353.35C403.15, 349.67 395.7, 351.16 392.03, 356.68L368.41, 392.14A17.644 17.644 0 0 1 353.69, 400C343.94, 400 336, 392.06 336, 382.31L336, 144L436, 144C442.63, 144 448, 138.63 448, 132L448, 108C448, 101.37 442.63, 96 436, 96z" fill="#727272" fill-opacity="1" class="Black" />
  </g>
</svg>