<?xml version='1.0' encoding='UTF-8'?>
<svg viewBox="-2 -2 32 32" xmlns="http://www.w3.org/2000/svg">
  <g transform="matrix(0.0547, 0, 0, 0.0547, 0, 0)">
    <path d="M476.62, 270.31L419.38, 241.69A64 64 0 0 1 384, 184.44C384, 82.58 301.42, 0 199.55, 0L184.45, 0C82.58, 0 0, 82.58 0, 184.44L0, 480A32 32 0 0 0 32, 512L480, 512A32 32 0 0 0 512, 480L512, 327.55A64 64 0 0 0 476.62, 270.31zM464, 464L48, 464L48, 384L88, 384L88, 408A16 16 0 0 0 104, 424L120, 424A16 16 0 0 0 136, 408L136, 384L184, 384L184, 408A16 16 0 0 0 200, 424L216, 424A16 16 0 0 0 232, 408L232, 384L280, 384L280, 408A16 16 0 0 0 296, 424L312, 424A16 16 0 0 0 328, 408L328, 384L376, 384L376, 408A16 16 0 0 0 392, 424L408, 424A16 16 0 0 0 424, 408L424, 384L464, 384zM464, 336L48, 336L48, 184.44C48, 109.21 109.21, 48 184.45, 48L199.55, 48C274.79, 48 336, 109.21 336, 184.44A111.38 111.38 0 0 0 397.91, 284.62L455.15, 313.24A15.91 15.91 0 0 1 464, 327.55z" fill="#727272" fill-opacity="1" class="Black" />
  </g>
</svg>