<?xml version='1.0' encoding='UTF-8'?>
<svg viewBox="-1.9999 -3.5527 32 31.9975" xmlns="http://www.w3.org/2000/svg">
  <g transform="matrix(0.0486, 0, 0, 0.0486, 0, 0)">
    <path d="M544, 240C537.56, 240 533.63, 238.8 529.53, 236.48C494.93, 136.17 400.07, 64 288, 64C175.93, 64 81, 136.21 46.45, 236.55C42.38, 238.83 38.45, 240 32, 240A32 32 0 0 0 32, 304C64, 304 82, 290.53 93.92, 281.61C103, 274.81 106.75, 272 117.45, 272C128.15, 272 131.92, 274.81 141, 281.61C152.91, 290.53 170.89, 304 202.91, 304C234.93, 304 252.91, 290.52 264.79, 281.59C273.79, 274.81 277.59, 272 288.24, 272C298.89, 272 302.63, 274.81 311.68, 281.59C323.57, 290.51 341.54, 304 373.54, 304C405.54, 304 423.49, 290.52 435.38, 281.59C444.43, 274.81 448.18, 272 458.82, 272C469.46, 272 473.16, 274.81 482.2, 281.58C494.06, 290.52 512, 304 544, 304A32 32 0 0 0 544, 240zM206.31, 151.16L190.31, 183.16A16 16 0 0 1 176, 192A16 16 0 0 1 161.68, 168.84L177.68, 136.84A16 16 0 1 1 206.31, 151.16zM304, 176A16 16 0 0 1 272, 176L272, 144A16 16 0 0 1 304, 144zM407.16, 190.31A16 16 0 0 1 385.69, 183.16L369.69, 151.16A16 16 0 1 1 398.32, 136.85L414.32, 168.85A16 16 0 0 1 407.16, 190.31zM445.4, 400L130.6, 400L102.24, 314.92A122.1 122.1 0 0 1 57.75, 333.24L88.75, 426.12A32 32 0 0 0 119.07, 448L456.94, 448A32 32 0 0 0 487.3, 426.12L518.3, 333.24A121.62 121.62 0 0 1 473.83, 314.86z" fill="#727272" fill-opacity="1" class="Black" />
  </g>
</svg>