<?xml version='1.0' encoding='UTF-8'?>
<svg viewBox="-1.9988 -2 31.9975 32" xmlns="http://www.w3.org/2000/svg">
  <g transform="matrix(0.0547, 0, 0, 0.0547, 0, 0)">
    <path d="M158.87, 0.15C157.78, 0.05 156.69, 0 155.61, 0A32.85 32.85 0 0 0 123.54, 24.27L0.55, 491.63A16.24 16.24 0 0 0 16.15, 512A16.54 16.54 0 0 0 20.55, 511.39L488.15, 381.73C503.87, 377.38 513.64, 362.06 511.77, 345.84C490.89, 165.08 340.78, 17.32 158.87, 0.15zM61.05, 450.35L142.75, 139.87C264.88, 160.41 348.91, 243.26 371.14, 364.37zM417.44, 351.53C390.5, 215 292.6, 118.47 155, 93.45L166.61, 49.33C315.39, 69.09 439.5, 190.64 462.43, 339.06zM192, 192A32 32 0 1 0 224, 224A32 32 0 0 0 192, 192zM160, 320A32 32 0 1 0 192, 352A32 32 0 0 0 160, 320zM256, 320A32 32 0 1 0 288, 288A32 32 0 0 0 256, 320z" fill="#727272" fill-opacity="1" class="Black" />
  </g>
</svg>