<?xml version='1.0' encoding='UTF-8'?>
<svg viewBox="-1.9998 -3.5563 31.9975 32" xmlns="http://www.w3.org/2000/svg">
  <g transform="matrix(0.0486, 0, 0, 0.0486, 0, 0)">
    <path d="M457.75, 176.563L356.417, 176.563L329.66, 128L340, 128C346.627, 128 352, 122.627 352, 116L352, 76C352, 69.373 346.627, 64 340, 64L294.398, 64L268.829, 17.594L268.248, 16.596C261.947, 6.359 250.566, 0 238.547, 0L186.178, 0C163.706, 0 147.227, 20.866 152.163, 42.578L177.249, 178.316A624.765 624.765 0 0 0 139.772, 182.088L112.191, 139.701C105.865, 129.539 94.571, 123.25 82.581, 123.25L44.004, 123.25C21.975, 123.25 5.495, 143.405 9.806, 164.964L21.767, 224.769C7.821, 234.229 0, 244.818 0, 256.001C0, 267.184 7.821, 277.773 21.766, 287.232L9.806, 347.035C5.487, 368.636 22.018, 388.753 44.005, 388.749L82.587, 388.748C94.575, 388.745 105.865, 382.456 112.191, 372.298L139.771, 329.912A624.11 624.11 0 0 0 177.248, 333.684L152.163, 469.42C147.222, 491.159 163.731, 512 186.178, 512L238.547, 512C250.568, 512 261.948, 505.64 268.249, 495.402L268.551, 494.911L294.397, 448L340, 448C346.627, 448 352, 442.627 352, 436L352, 396C352, 389.373 346.627, 384 340, 384L329.659, 384L356.417, 335.435L457.75, 335.436C510.814, 335.436 576, 306.854 576, 256C576, 205.128 510.784, 176.563 457.75, 176.563zM457.75, 287.436L328.06, 287.435L230.778, 464L201.977, 464L234.519, 287.913C181.064, 286.319 171.952, 286.442 116.325, 277.935L75.453, 340.747L60.014, 340.748L76.964, 256L60.014, 171.249L75.454, 171.249L116.326, 234.063C171.997, 225.548 181.158, 225.677 234.52, 224.084L201.979, 48L230.779, 48L328.06, 224.563L457.75, 224.563C496.424, 224.563 528, 240 528, 256C528, 272 496.42, 287.436 457.75, 287.436z" fill="#727272" fill-opacity="1" class="Black" />
  </g>
</svg>