<?xml version='1.0' encoding='UTF-8'?>
<svg viewBox="-1.9974 -3.5552 31.9975 32" xmlns="http://www.w3.org/2000/svg">
  <g transform="matrix(0.0486, 0, 0, 0.0486, 0, 0)">
    <path d="M239.57, 48L340.14, 224L456, 224C482.03, 224 518.87, 243.73 527.1, 256C518.87, 268.27 482.03, 288 456, 288L340.14, 288L239.57, 464L202.43, 464L252.72, 288L136, 288L100, 336L58.68, 336L82, 256L58.68, 176L100, 176L136, 224L252.72, 224L202.43, 48L239.57, 48M258.14, 0L160.01, 0C149.38, 0 141.71, 10.17 144.63, 20.39L189.08, 176L160, 176L128.8, 134.4C125.78, 130.37 121.03, 128 116, 128L16.01, 128C5.6, 128 -2.04, 137.78 0.49, 147.88L32, 256L0.49, 364.12C-2.04, 374.22 5.6, 384 16.01, 384L116, 384C121.04, 384 125.78, 381.63 128.8, 377.6L160, 336L189.08, 336L144.62, 491.6C141.7, 501.82 149.37, 512 160, 512L258.13, 512C263.87, 512 269.17, 508.92 272.02, 503.94L368, 336L456, 336C500.18, 336 576, 300.18 576, 256C576, 211.81 500.18, 176 456, 176L368, 176L272.03, 8.06A15.998 15.998 0 0 0 258.14, 0z" fill="#727272" fill-opacity="1" class="Black" />
  </g>
</svg>