<?xml version='1.0' encoding='UTF-8'?>
<svg viewBox="-1.9999 -4.0971 32 31.9975" xmlns="http://www.w3.org/2000/svg">
  <g transform="matrix(1.0011, 0, 0, 1.0011, 0, 0)">
    <g transform="matrix(0.0437, 0, 0, 0.0437, 0, 0)">
      <path d="M624, 464L16, 464C7.16, 464 0, 471.16 0, 480L0, 496C0, 504.84 7.16, 512 16, 512L624, 512C632.84, 512 640, 504.84 640, 496L640, 480C640, 471.16 632.84, 464 624, 464zM74.64, 367.77A48.002 48.002 0 0 0 110.62, 384L110.83, 384L235.08, 383.46C247.11, 383.44 259.31, 380.39 270.21, 374.64L550.46, 226.7C580.52, 210.83 604.93, 188.66 621.04, 162.59C640.46, 131.17 644.99, 104.11 634.5, 82.15C624.12, 60.37 600.97, 48.09 565.71, 45.71C562.48, 45.49 559.25, 45.39 556.03, 45.39C529.23, 45.39 501.93, 52.62 474.91, 66.89L386.23, 113.71L385.87, 113.9L385.48, 113.75L184.48, 35.29A47.99 47.99 0 0 0 144.62, 37.55L108.7, 56.52A48.002 48.002 0 0 0 104.86, 139.16L208.78, 207.04L209.07, 207.23L208.72, 207.41L141.93, 242.67L141.51, 242.89L141.09, 242.67L86.45, 214.02A47.96 47.96 0 0 0 64.16, 208.53C56.46, 208.53 48.76, 210.38 41.75, 214.08L25.59, 222.61A47.987 47.987 0 0 0 0.78, 256.42A47.981 47.981 0 0 0 12.01, 296.82L74.64, 367.77zM64.16, 256.52L141.59, 297.12L303.57, 211.61L131.11, 98.97L167.03, 80L388.86, 166.59L497.32, 109.34C517.37, 98.75 537.13, 93.39 556.04, 93.39C558.18, 93.39 560.33, 93.46 562.48, 93.6C577.51, 94.62 589.04, 98.31 591.19, 102.84C593.27, 107.2 591.65, 118.85 580.21, 137.35C568.59, 156.15 550.55, 172.37 528.05, 184.25L247.81, 332.19C243.77, 334.32 239.29, 335.45 234.87, 335.46L110.62, 336L48, 265.05L64.16, 256.52z" fill="#727272" fill-opacity="1" class="Black" />
    </g>
  </g>
</svg>