<?xml version='1.0' encoding='UTF-8'?>
<svg viewBox="-2 2.6671 32 32" xmlns="http://www.w3.org/2000/svg">
  <g transform="matrix(0.0729, 0, 0, 0.0729, 0, 0)">
    <path d="M368, 224L224, 224L224, 80C224, 71.16 216.84, 64 208, 64L176, 64C167.16, 64 160, 71.16 160, 80L160, 224L16, 224C7.16, 224 0, 231.16 0, 240L0, 272C0, 280.84 7.16, 288 16, 288L160, 288L160, 432C160, 440.84 167.16, 448 176, 448L208, 448C216.84, 448 224, 440.84 224, 432L224, 288L368, 288C376.84, 288 384, 280.84 384, 272L384, 240C384, 231.16 376.84, 224 368, 224z" fill="#727272" fill-opacity="1" class="Black" />
  </g>
</svg>