<?xml version='1.0' encoding='UTF-8'?>
<svg viewBox="-1.5477 -1.5477 32 32" xmlns="http://www.w3.org/2000/svg">
  <g transform="matrix(0.9991, 0, 0, 0.9991, 0, 0)">
    <g transform="matrix(0.0565, 0, 0, 0.0565, 0, 0)">
      <path d="M384, 240L384, 272C384, 278.6 378.6, 284 372, 284L284, 284L284, 372C284, 378.6 278.6, 384 272, 384L240, 384C233.4, 384 228, 378.6 228, 372L228, 284L140, 284C133.4, 284 128, 278.6 128, 272L128, 240C128, 233.4 133.4, 228 140, 228L228, 228L228, 140C228, 133.4 233.4, 128 240, 128L272, 128C278.6, 128 284, 133.4 284, 140L284, 228L372, 228C378.6, 228 384, 233.4 384, 240zM504, 256C504, 393 393, 504 256, 504C119, 504 8, 393 8, 256C8, 119 119, 8 256, 8C393, 8 504, 119 504, 256zM456, 256C456, 145.5 366.5, 56 256, 56C145.5, 56 56, 145.5 56, 256C56, 366.5 145.5, 456 256, 456C366.5, 456 456, 366.5 456, 256z" fill="#727272" fill-opacity="1" class="Black" />
    </g>
  </g>
</svg>