<?xml version='1.0' encoding='UTF-8'?>
<svg viewBox="-1.1756 -2.8232 32 32" xmlns="http://www.w3.org/2000/svg">
  <g transform="matrix(0.9994, 0, 0, 0.9994, 0, 0)">
    <g transform="matrix(0.0515, 0, 0, 0.0515, 0, 0)">
      <path d="M441.5, 39.8C432.9, 25.1 417.1, 16 400, 16L176, 16C158.9, 16 143.1, 25.1 134.5, 39.8L22.5, 231.8C13.8, 246.7 13.8, 265.2 22.5, 280.2L134.5, 472.2C143.1, 486.9 158.9, 496 176, 496L400, 496C417.1, 496 432.9, 486.9 441.5, 472.2L553.5, 280.2C562.2, 265.3 562.2, 246.8 553.5, 231.8L441.5, 39.8zM400, 448L176, 448L64, 256L176, 64L400, 64L512, 256L400, 448zM416, 240L416, 272C416, 278.6 410.6, 284 404, 284L316, 284L316, 372C316, 378.6 310.6, 384 304, 384L272, 384C265.4, 384 260, 378.6 260, 372L260, 284L172, 284C165.4, 284 160, 278.6 160, 272L160, 240C160, 233.4 165.4, 228 172, 228L260, 228L260, 140C260, 133.4 265.4, 128 272, 128L304, 128C310.6, 128 316, 133.4 316, 140L316, 228L404, 228C410.6, 228 416, 233.4 416, 240z" fill="#727272" fill-opacity="1" class="Black" />
    </g>
  </g>
</svg>