<?xml version='1.0' encoding='UTF-8'?>
<svg viewBox="-2 0 32 32" xmlns="http://www.w3.org/2000/svg">
  <g transform="matrix(0.0625, 0, 0, 0.0625, 0, 0)">
    <path d="M352, 240L352, 272C352, 278.6 346.6, 284 340, 284L252, 284L252, 372C252, 378.6 246.6, 384 240, 384L208, 384C201.4, 384 196, 378.6 196, 372L196, 284L108, 284C101.4, 284 96, 278.6 96, 272L96, 240C96, 233.4 101.4, 228 108, 228L196, 228L196, 140C196, 133.4 201.4, 128 208, 128L240, 128C246.6, 128 252, 133.4 252, 140L252, 228L340, 228C346.6, 228 352, 233.4 352, 240zM448, 80L448, 432C448, 458.5 426.5, 480 400, 480L48, 480C21.5, 480 0, 458.5 0, 432L0, 80C0, 53.5 21.5, 32 48, 32L400, 32C426.5, 32 448, 53.5 448, 80zM400, 426L400, 86C400, 82.7 397.3, 80 394, 80L54, 80C50.7, 80 48, 82.7 48, 86L48, 426C48, 429.3 50.7, 432 54, 432L394, 432C397.3, 432 400, 429.3 400, 426z" fill="#727272" fill-opacity="1" class="Black" />
  </g>
</svg>