<?xml version='1.0' encoding='UTF-8'?>
<svg viewBox="-2 0 32 32" xmlns="http://www.w3.org/2000/svg">
  <g transform="matrix(0.0625, 0, 0, 0.0625, 0, 0)">
    <path d="M448, 432L448, 80C448, 53.5 426.5, 32 400, 32L48, 32C21.5, 32 0, 53.5 0, 80L0, 432C0, 458.5 21.5, 480 48, 480L400, 480C426.5, 480 448, 458.5 448, 432zM48, 432L48, 80L400, 80L400, 432L48, 432zM96, 152L96, 168C96, 176.84 103.16, 184 112, 184L240, 184C248.84, 184 256, 176.84 256, 168L256, 152C256, 143.16 248.84, 136 240, 136L112, 136C103.16, 136 96, 143.16 96, 152zM96, 248L96, 264C96, 272.84 103.16, 280 112, 280L336, 280C344.84, 280 352, 272.84 352, 264L352, 248C352, 239.16 344.84, 232 336, 232L112, 232C103.16, 232 96, 239.16 96, 248zM96, 344L96, 360C96, 368.84 103.16, 376 112, 376L176, 376C184.84, 376 192, 368.84 192, 360L192, 344C192, 335.16 184.84, 328 176, 328L112, 328C103.16, 328 96, 335.16 96, 344z" fill="#727272" fill-opacity="1" class="Black" />
  </g>
</svg>