<?xml version='1.0' encoding='UTF-8'?>
<svg viewBox="-2 0 32 32" xmlns="http://www.w3.org/2000/svg">
  <g transform="matrix(0.0625, 0, 0, 0.0625, 0, 0)">
    <path d="M400, 32L48, 32C21.5, 32 0, 53.5 0, 80L0, 432C0, 458.5 21.5, 480 48, 480L400, 480C426.5, 480 448, 458.5 448, 432L448, 80C448, 53.5 426.5, 32 400, 32zM400, 432L48, 432L48, 80L400, 80L400, 432zM120, 384L136, 384C144.84, 384 152, 376.84 152, 368L152, 240C152, 231.16 144.84, 224 136, 224L120, 224C111.16, 224 104, 231.16 104, 240L104, 368C104, 376.84 111.16, 384 120, 384zM216, 384L232, 384C240.84, 384 248, 376.84 248, 368L248, 144C248, 135.16 240.84, 128 232, 128L216, 128C207.16, 128 200, 135.16 200, 144L200, 368C200, 376.84 207.16, 384 216, 384zM312, 384L328, 384C336.84, 384 344, 376.84 344, 368L344, 304C344, 295.16 336.84, 288 328, 288L312, 288C303.16, 288 296, 295.16 296, 304L296, 368C296, 376.84 303.16, 384 312, 384z" fill="#727272" fill-opacity="1" class="Black" />
  </g>
</svg>