<?xml version='1.0' encoding='UTF-8'?>
<svg viewBox="-1.9988 -2 32 32" xmlns="http://www.w3.org/2000/svg">
  <g transform="matrix(0.0547, 0, 0, 0.0547, 0, 0)">
    <path d="M422.06, 113.61C416.49, 79.48 391.73, 59.83 372.06, 52.29C360.9, 35.44 337.69, 16.12 304.48, 16.52A80.37 80.37 0 0 0 255.57, 0A78.42 78.42 0 0 0 207.18, 16.52C187.1, 16.19 157.83, 24.42 139.48, 52.3A80.15 80.15 0 0 0 89.27, 113.66C60.35, 140 60.84, 173.53 68.34, 195.94L68.34, 196.32L107.7, 484.32A32.05 32.05 0 0 0 139.45, 512L372.14, 512A32 32 0 0 0 403.92, 484.32L443, 198.46C456.56, 160.83 440.17, 130 422.06, 113.61zM153.45, 464L118.45, 208L168.84, 208L190.22, 464zM273.1, 464L238.5, 464L217.11, 208L294.48, 208zM358.1, 464L321.36, 464L342.74, 208L393.13, 208zM114.42, 160C121.8, 143.25 136.34, 141.45 140.01, 141.09A30.59 30.59 0 0 1 140.26, 111.58C150.56, 92.58 170.17, 94.79 174.4, 95.68A31.58 31.58 0 0 1 196.13, 66.18A30.59 30.59 0 0 1 225.21, 71.18C226.21, 67.63 233.29, 47.95 255.57, 47.95C277.06, 47.95 286.14, 66.86 286.14, 71.18A31.15 31.15 0 0 1 315.44, 66.18A31.56 31.56 0 0 1 337.19, 95.68C341.42, 94.79 361.05, 92.59 371.31, 111.58A32 32 0 0 1 371.58, 141.09C379.27, 141.86 390.95, 145.88 397.16, 160z" fill="#727272" fill-opacity="1" class="Black" />
  </g>
</svg>