<?xml version='1.0' encoding='UTF-8'?>
<svg viewBox="-5.5003 -2 32 32" xmlns="http://www.w3.org/2000/svg">
  <g transform="matrix(0.0547, 0, 0, 0.0547, 0, 0)">
    <path d="M336, 0L48, 0C21.5, 0 0, 21.5 0, 48L0, 464C0, 490.5 21.5, 512 48, 512L336, 512C362.5, 512 384, 490.5 384, 464L384, 48C384, 21.5 362.5, 0 336, 0zM336, 464L48, 464L48, 48L336, 48L336, 464zM192, 256C227.3, 256 256, 227.3 256, 192C256, 156.7 227.3, 128 192, 128C156.7, 128 128, 156.7 128, 192C128, 227.3 156.7, 256 192, 256zM102.4, 384L281.6, 384C294, 384 304, 375.4 304, 364.8L304, 345.6C304, 313.8 273.9, 288 236.8, 288L231.8, 288C219.5, 293.1 206.1, 296 192, 296C177.9, 296 164.4, 293.1 152.2, 288L147.2, 288C110.1, 288 80, 313.8 80, 345.6L80, 364.8C80, 375.4 90, 384 102.4, 384z" fill="#727272" fill-opacity="1" class="Black" />
  </g>
</svg>