<?xml version='1.0' encoding='UTF-8'?>
<svg viewBox="-6 0 32 32" xmlns="http://www.w3.org/2000/svg">
  <g transform="matrix(0.0625, 0, 0, 0.0625, 0, 0)">
    <path d="M308, 360L277.716, 360C271.089, 360 265.716, 365.373 265.716, 372L265.716, 428.835L112, 428.835L112, 280L212, 280C218.627, 280 224, 274.627 224, 268L224, 244C224, 237.373 218.627, 232 212, 232L112, 232L112, 154.919C112, 117.481 138.786, 87.531 184.958, 87.531C210.898, 87.531 233.65, 99.413 245.51, 106.982C250.651, 110.262 257.433, 109.138 261.268, 104.396L280.926, 80.091C285.276, 74.713 284.188, 66.795 278.561, 62.771C262.736, 51.456 229.027, 32 184.334, 32C105.716, 32 48, 83.164 48, 152.423L48, 232L20, 232C13.373, 232 8, 237.373 8, 244L8, 268C8, 274.627 13.373, 280 20, 280L48, 280L48, 428.835L12, 428.835C5.373, 428.835 0, 434.208 0, 440.835L0, 468C0, 474.627 5.373, 480 12, 480L308, 480C314.627, 480 320, 474.627 320, 468L320, 372C320, 365.373 314.627, 360 308, 360z" fill="#727272" fill-opacity="1" class="Black" />
  </g>
</svg>