<?xml version='1.0' encoding='UTF-8'?>
<svg viewBox="-1.7777 -2 32 32" xmlns="http://www.w3.org/2000/svg">
  <g transform="matrix(0.9992, 0, 0, 0.9992, 0, 0)">
    <g transform="matrix(0.0556, 0, 0, 0.0556, 0, 0)">
      <path d="M388.5, 46.3C457.9, 90.3 504, 167.8 504, 256C504, 392.8 393.2, 503.7 256.5, 504C120, 504.3 8.2, 393 8, 256.4C7.9, 168 54, 90.3 123.5, 46.3C129.3, 42.6 137, 44.5 140.4, 50.5L152.2, 71.4C155.3, 76.9 153.6, 83.9 148.3, 87.3C92.8, 122.9 56, 185.1 56, 256C56, 366.5 145.5, 456 256, 456C366.5, 456 456, 366.5 456, 256C456, 185.1 419.2, 122.9 363.7, 87.4C358.4, 84 356.7, 77 359.8, 71.5L371.6, 50.6C374.9, 44.5 382.7, 42.7 388.5, 46.3zM280, 276L280, 12C280, 5.4 274.6, 0 268, 0L244, 0C237.4, 0 232, 5.4 232, 12L232, 276C232, 282.6 237.4, 288 244, 288L268, 288C274.6, 288 280, 282.6 280, 276z" fill="#727272" fill-opacity="1" class="Black" />
    </g>
  </g>
</svg>