<?xml version='1.0' encoding='UTF-8'?>
<svg viewBox="-3.7494 -1.9999 32 32" xmlns="http://www.w3.org/2000/svg">
  <g transform="matrix(0.0547, 0, 0, 0.0547, 0, 0)">
    <path d="M416, 0L32, 0C14.3, 0 0, 14.3 0, 32L0, 128C0, 136.8 7.2, 144 16, 144L32, 144L32, 480C32, 497.7 46.3, 512 64, 512L384, 512C401.7, 512 416, 497.7 416, 480L416, 144L432, 144C440.8, 144 448, 136.8 448, 128L448, 32C448, 14.3 433.7, 0 416, 0zM48, 48L400, 48L400, 96L48, 96L48, 48zM368, 464L80, 464L80, 424L168, 424C172.4, 424 176, 420.4 176, 416L176, 384C176, 379.6 172.4, 376 168, 376L80, 376L80, 328L168, 328C172.4, 328 176, 324.4 176, 320L176, 288C176, 283.6 172.4, 280 168, 280L80, 280L80, 232L168, 232C172.4, 232 176, 228.4 176, 224L176, 192C176, 187.6 172.4, 184 168, 184L80, 184L80, 144L368, 144L368, 464z" fill="#727272" fill-opacity="1" class="Black" />
  </g>
</svg>