<?xml version='1.0' encoding='UTF-8'?>
<svg viewBox="-1.9998 -3.5563 31.9975 32" xmlns="http://www.w3.org/2000/svg">
  <g transform="matrix(0.0486, 0, 0, 0.0486, 0, 0)">
    <path d="M560, 0L16, 0C7.16, 0 0, 7.16 0, 16L0, 32C0, 40.84 7.16, 48 16, 48L32, 48L32, 320C32, 337.67 46.33, 352 64, 352L264, 352L264, 395.72L186.35, 473.37C180.1, 479.62 180.1, 489.75 186.35, 496L197.66, 507.31C203.91, 513.56 214.04, 513.56 220.29, 507.31L288, 439.6L355.72, 507.32C361.97, 513.57 372.1, 513.57 378.35, 507.32L389.65, 496C395.9, 489.75 395.9, 479.62 389.65, 473.37L312, 395.72L312, 352L512, 352C529.67, 352 544, 337.67 544, 320L544, 48L560, 48C568.84, 48 576, 40.84 576, 32L576, 16C576, 7.16 568.84, 0 560, 0zM496, 304L80, 304L80, 48L496, 48L496, 304z" fill="#727272" fill-opacity="1" class="Black" />
  </g>
</svg>