<?xml version='1.0' encoding='UTF-8'?>
<svg viewBox="-2 -4.7992 32 32" xmlns="http://www.w3.org/2000/svg">
  <g transform="matrix(0.9988, 0, 0, 0.9988, 0, 0)">
    <g transform="matrix(0.0438, 0, 0, 0.0438, 0, 0)">
      <path d="M307.72, 133.65A16 16 0 0 0 330.35, 133.65L341.66, 122.34A16 16 0 0 0 341.66, 99.72L273.78, 31.83A16 16 0 0 0 251.15, 31.83L239.84, 43.14A16 16 0 0 0 239.84, 65.77zM408, 128L424, 128A16 16 0 0 0 440, 112L440, 16A16 16 0 0 0 424, 0L408, 0A16 16 0 0 0 392, 16L392, 112A16 16 0 0 0 408, 128zM501.65, 133.65A16 16 0 0 0 524.28, 133.65L592.16, 65.77A16 16 0 0 0 592.16, 43.14L580.85, 31.83A16 16 0 0 0 558.22, 31.83L490.34, 99.72A16 16 0 0 0 490.34, 122.34zM112, 296A24 24 0 1 0 136, 320A24 24 0 0 0 112, 296zM592, 192L480.58, 192C461.07, 182.11 439.33, 176 416, 176C392.67, 176 370.93, 182.11 351.42, 192L48, 192A48 48 0 0 0 0, 240L0, 400A48 48 0 0 0 48, 448L64, 448L77, 499.88A16 16 0 0 0 92.49, 512L115.49, 512A16 16 0 0 0 131, 499.88L144, 448L351.42, 448C370.93, 457.89 392.67, 464 416, 464C439.33, 464 461.07, 457.89 480.58, 448L496, 448L509, 499.88A16 16 0 0 0 524.49, 512L547.49, 512A16 16 0 0 0 563, 499.88L576, 448L592, 448A48 48 0 0 0 640, 400L640, 240A48 48 0 0 0 592, 192zM296.38, 400L48, 400L48, 240L296.38, 240A143.45 143.45 0 0 0 296.38, 400zM416, 416A96 96 0 1 1 512, 320A96.14 96.14 0 0 1 416, 416zM592, 400L535.62, 400A143.45 143.45 0 0 0 535.62, 240L592, 240zM176, 296A24 24 0 1 0 200, 320A24 24 0 0 0 176, 296z" fill="#727272" fill-opacity="1" class="Black" />
    </g>
  </g>
</svg>