<?xml version='1.0' encoding='UTF-8'?>
<svg viewBox="-2 0 32 32" xmlns="http://www.w3.org/2000/svg">
  <g transform="matrix(0.0625, 0, 0, 0.0625, 0, 0)">
    <path d="M448, 80L448, 432C448, 458.51 426.51, 480 400, 480L48, 480C21.49, 480 0, 458.51 0, 432L0, 80C0, 53.49 21.49, 32 48, 32L400, 32C426.51, 32 448, 53.49 448, 80zM400, 426L400, 86A6 6 0 0 0 394, 80L54, 80A6 6 0 0 0 48, 86L48, 426A6 6 0 0 0 54, 432L394, 432A6 6 0 0 0 400, 426zM331.244, 200.8C331.244, 267.852 258.823, 268.884 258.823, 293.663L258.823, 300C258.823, 306.627 253.45, 312 246.823, 312L201.176, 312C194.549, 312 189.176, 306.627 189.176, 300L189.176, 291.341C189.176, 255.596 216.276, 241.307 236.755, 229.825C254.316, 219.98 265.079, 213.284 265.079, 200.246C265.079, 183 243.08, 171.553 225.295, 171.553C202.106, 171.553 191.401, 182.53 176.353, 201.522C172.296, 206.642 164.893, 207.593 159.687, 203.646L131.863, 182.548C126.756, 178.676 125.612, 171.482 129.219, 166.185C152.846, 131.491 182.94, 112 229.794, 112C278.865, 112 331.244, 150.304 331.244, 200.8zM266, 368C266, 391.159 247.159, 410 224, 410C200.841, 410 182, 391.159 182, 368C182, 344.841 200.841, 326 224, 326C247.159, 326 266, 344.841 266, 368z" fill="#727272" fill-opacity="1" class="Black" />
  </g>
</svg>