<?xml version='1.0' encoding='UTF-8'?>
<svg viewBox="-3.7495 -2 32 32" xmlns="http://www.w3.org/2000/svg">
  <g transform="matrix(0.0547, 0, 0, 0.0547, 0, 0)">
    <path d="M257.13, 182.57L277.85, 202.77L272.96, 231.29C272.44, 234.31 275.61, 236.68 278.38, 235.23L304, 221.76L329.62, 235.23C332.37, 236.68 335.56, 234.33 335.04, 231.29L330.15, 202.77L350.87, 182.57C353.08, 180.41 351.86, 176.64 348.8, 176.2L320.16, 172.04L307.35, 146.09C305.98, 143.32 302.02, 143.32 300.65, 146.09L287.84, 172.04L259.2, 176.2C256.14, 176.64 254.92, 180.4 257.13, 182.57zM232.66, 304C244.97, 304 257.19, 301.77 268.69, 297.47C274.28, 295.59 278.03, 290.41 278.03, 284.53C278.03, 277.01 271.91, 270.89 264.34, 270.89L260.9, 271.06C221.71, 271.06 189.84, 239.18 189.84, 200C189.84, 160.82 221.72, 128.94 260.9, 128.94L264.34, 129.11C270.81, 129.11 276.43, 124.52 277.72, 118.22C279.06, 111.63 275.47, 105.1 269.13, 102.67C257.28, 98.25 245, 96 232.66, 96C175.32, 96 128.66, 142.66 128.66, 200C128.66, 257.34 175.31, 304 232.66, 304zM448, 384L448, 16C448, 7.2 440.8, 0 432, 0L80, 0C35.8, 0 0, 35.8 0, 80L0, 432C0, 476.2 35.8, 512 80, 512L432, 512C440.8, 512 448, 504.8 448, 496L448, 480C448, 472.2 442.4, 465.7 435.1, 464.3C430.9, 451.3 430.9, 412.7 435.1, 399.7C442.5, 398.2 448, 391.8 448, 384zM394, 464L80, 464C62.3, 464 48, 449.7 48, 432C48, 414.4 62.4, 400 80, 400L394, 400C391.3, 417.3 391.3, 446.7 394, 464zM400, 352L80, 352C68.6, 352 57.8, 354.4 48, 358.7L48, 80C48, 62.3 62.3, 48 80, 48L400, 48L400, 352z" fill="#727272" fill-opacity="1" class="Black" />
  </g>
</svg>