<?xml version='1.0' encoding='UTF-8'?>
<svg viewBox="-1.9999 -1.549 31.9975 32" xmlns="http://www.w3.org/2000/svg">
  <g transform="matrix(0.999, 0, 0, 0.999, 0, 0)">
    <g transform="matrix(0.0565, 0, 0, 0.0565, 0, 0)">
      <path d="M314.1, 256L395.8, 256C405.3, 256 413.3, 248 412.3, 238.6C407.5, 193.6 384.5, 154.2 350.8, 127.3C342.9, 121 331.3, 122.6 326, 131.2L282.9, 200.1C301.5, 211.8 314.1, 232.4 314.1, 256zM213.1, 311.9L169.9, 381C164.9, 389 167.4, 400 175.8, 404.2C197.6, 415 222, 421.2 247.9, 421.2C273.8, 421.2 298.2, 414.9 320, 404.2C328.5, 400 331, 389 325.9, 381L282.7, 311.9C272.5, 318.3 260.6, 322.1 247.8, 322.1C235, 322.1 223.2, 318.2 213.1, 311.9zM100.3, 256L182, 256C182, 232.4 194.5, 211.8 213.2, 200.1L170.1, 131.2C164.8, 122.6 153.2, 121 145.3, 127.3C111.7, 154.1 88.6, 193.6 83.8, 238.6C82.8, 248 90.8, 256 100.3, 256zM248, 289C266.2, 289 281, 274.2 281, 256C281, 237.8 266.2, 223 248, 223C229.8, 223 215, 237.8 215, 256C215, 274.2 229.8, 289 248, 289zM248, 504C385, 504 496, 393 496, 256C496, 119 385, 8 248, 8C111, 8 0, 119 0, 256C0, 393 111, 504 248, 504zM248, 56C358.3, 56 448, 145.7 448, 256C448, 366.3 358.3, 456 248, 456C137.7, 456 48, 366.3 48, 256C48, 145.7 137.7, 56 248, 56z" fill="#727272" fill-opacity="1" class="Black" />
    </g>
  </g>
</svg>