<?xml version='1.0' encoding='UTF-8'?>
<svg viewBox="-2 -3.554 32 32" xmlns="http://www.w3.org/2000/svg">
  <g transform="matrix(0.0486, 0, 0, 0.0486, 0, 0)">
    <path d="M268.3, 32.7C115.4, 42.9 0, 176.9 0, 330.2L0, 464C0, 472.8 7.2, 480 16, 480L32, 480C40.8, 480 48, 472.8 48, 464L48, 320C48, 177.3 173.2, 63.3 319.6, 82C440.6, 97.5 528, 206.4 528, 328.3L528, 464C528, 472.8 535.2, 480 544, 480L560, 480C568.8, 480 576, 472.8 576, 464L576, 320C576, 154.7 436, 21.4 268.3, 32.7zM262.7, 130.1C166, 142.5 96, 229.6 96, 327.2L96, 464C96, 472.8 103.2, 480 112, 480L128, 480C136.8, 480 144, 472.8 144, 464L144, 320.5C144, 236.3 216.5, 168.8 302.4, 177.2C377.2, 184.5 432, 251.7 432, 326.9L432, 464C432, 472.8 439.2, 480 448, 480L464, 480C472.8, 480 480, 472.8 480, 464L480, 320.5C480, 206.3 379.8, 115.1 262.7, 130.1zM268.9, 225.9C223.3, 234.8 192, 277.4 192, 323.8L192, 464C192, 472.8 199.2, 480 208, 480L224, 480C232.8, 480 240, 472.8 240, 464L240, 320C240, 293.5 261.5, 272 288, 272C314.5, 272 336, 293.5 336, 320L336, 464C336, 472.8 343.2, 480 352, 480L368, 480C376.8, 480 384, 472.8 384, 464L384, 320C384, 260.8 330.2, 214 268.9, 225.9z" fill="#727272" fill-opacity="1" class="Black" />
  </g>
</svg>