<?xml version='1.0' encoding='UTF-8'?>
<svg viewBox="-2 0 32 32" xmlns="http://www.w3.org/2000/svg">
  <g transform="matrix(0.0625, 0, 0, 0.0625, 0, 0)">
    <path d="M320, 216.7C334.8, 245 351.2, 267.1 365.4, 286.3C388.7, 317.8 400, 334 400, 357.5C400, 398.5 364.1, 431.9 320, 431.9C275.9, 431.9 240, 398.5 240, 357.5C240, 334.2 251.3, 317.9 274.7, 286.2C288.9, 267 305.2, 244.9 320, 216.7M160, 32C156.1, 32 152.1, 34.3 150.7, 38.9C135.8, 88.2 104, 101.6 104, 136.3C104, 167.1 129, 192 160, 192C191, 192 216, 167.1 216, 136.3C216, 101.4 184.2, 88.4 169.3, 38.9C168, 34.4 164, 32 160, 32zM320, 128C311, 128 302, 133 298.8, 143.2C264.7, 251.6 192, 281.1 192, 357.6C192, 425.3 249.2, 480 320, 480C390.8, 480 448, 425.2 448, 357.6C448, 280.8 375.4, 252.2 341.2, 143.2C338.3, 133.2 329.2, 128 320, 128zM56, 224C52.1, 224 48.1, 226.3 46.7, 230.9C31.8, 280.2 0, 293.6 0, 328.3C0, 359.1 25, 384 56, 384C87, 384 112, 359.1 112, 328.3C112, 293.4 80.2, 280.4 65.3, 230.9C64, 226.4 60, 224 56, 224z" fill="#727272" fill-opacity="1" class="Black" />
  </g>
</svg>