<?xml version='1.0' encoding='UTF-8'?>
<svg viewBox="-2 -4.8005 32 32" xmlns="http://www.w3.org/2000/svg">
  <g transform="matrix(1.0011, 0, 0, 1.0011, 0, 0)">
    <g transform="matrix(0.0437, 0, 0, 0.0437, 0, 0)">
      <path d="M609.81, 100.92L582.59, 84.72C575.84, 50.16 545.31, 24 508.81, 24L445.9, 24C424.49, 8.91 398.84, 0 371.69, 0C315.72, 0 269.99, 42.61 263.96, 97.02C251.14, 95.55 237.92, 97.26 226.41, 102.99C207.57, 93.52 183.5, 93.91 164.94, 103.99C152, 98.1 137.41, 96.47 122.63, 99.62C104.75, 103.64 89.51, 114.73 79.94, 129.96C62.35, 132.04 45.88, 141.12 34.28, 155.79C23.03, 170.36 18.06, 188.73 20, 206.67C7.38, 219.45 0, 237.01 0, 255.69C0, 274.37 7.25, 291.88 19.69, 304.61C17.63, 322.78 22.63, 341.23 33.97, 355.55C45.25, 370.22 61.63, 379.36 79.22, 381.46C83.99, 389.17 90.18, 395.82 97.39, 401.03L118.18, 487.49C121.64, 501.87 134.5, 512.01 149.29, 512.01L223.99, 512.01C244.85, 512.01 260.13, 492.37 255.01, 472.15L240.34, 414.24A66.566 66.566 0 0 0 255.57, 416.01C266.07, 416.01 276.29, 413.56 285.51, 408.92C291.2, 411.69 297.47, 413.38 304.03, 414.51L304.03, 480C304.03, 497.67 318.36, 512 336.03, 512L416.03, 512C433.7, 512 448.03, 497.67 448.03, 480L448.03, 377.86C459.39, 373.52 469.75, 366.3 477.73, 356.22C488.98, 341.64 493.95, 323.27 492.01, 305.33C504.63, 292.55 512.01, 274.99 512.01, 256.31C512.01, 247.83 510.33, 239.66 507.54, 232L575.67, 232C593.42, 232 609.98, 222.44 618.89, 206.95C637.83, 173.75 640.01, 158.81 640.01, 150.47C640, 129.41 628.47, 110.53 609.81, 100.92zM161.89, 464L149.48, 412.39C154.5, 411.41 159.45, 410.06 164.18, 407.93C172.36, 412.39 181.65, 414.65 191.09, 415.33L203.42, 464L161.89, 464zM400.02, 464L352.02, 464L352.02, 409.8C363.72, 414.03 376.44, 415.18 389.37, 412.39C393.07, 411.56 396.57, 410.25 400.02, 408.84L400.02, 464zM575.66, 184L452.64, 184L435.41, 227.39L453.75, 237.66C467.17, 245.22 467.72, 266.94 453.44, 274.97L435.1, 285.24L442.85, 304.77C449.04, 320.29 436.63, 336.82 421.07, 334.24L399.88, 330.47L393.85, 351.14C390.04, 364.21 373.83, 371.62 361.97, 361.06L344.81, 345.84L328.81, 362.28C322.25, 369.06 310.4, 370.57 301.93, 362.51L285.34, 346.73L268.81, 362.57C261.4, 369.59 249.78, 369.63 242.81, 362.8L226.22, 346.43L209.38, 362.57C200.82, 370.8 187, 366.85 182.69, 362.32L167, 346.09L149.84, 360.73C137.82, 370.91 121.58, 364.61 117.65, 350.68L111.71, 329.77L90.3, 333.6C75.71, 336.24 62.43, 320.23 68.83, 304.12L76.58, 284.6L58.24, 274.33C44.82, 266.77 44.27, 245.05 58.55, 237.02L76.89, 226.75L69.14, 207.22C62.91, 191.61 75.6, 175 90.92, 177.75L112.11, 181.52L118.14, 160.85C122, 147.61 138.34, 140.5 150.02, 150.93L167.18, 166.13L183.15, 149.71C187.59, 145.21 201.43, 141.27 209.37, 149.13L225.96, 165.58L242.87, 149.42C250.15, 142.44 262.06, 142.34 269.46, 149.45C281.09, 160.53 300.86, 200.09 353.9, 200.09C396.31, 200.09 430.81, 165.59 430.81, 123.17C430.81, 92.8 409.31, 65.92 379.81, 59.26C369.28, 55.33 361, 62.05 361, 70.22L361, 86.5C361, 90.97 363.47, 94.98 367.22, 96.98C378.92, 101.1 390.81, 106.05 390.81, 123.18C390.81, 143.54 374.25, 160.1 353.9, 160.1C325.68, 160.1 302.74, 137.15 302.74, 108.94C302.74, 70.92 333.68, 39.99 371.68, 39.99C398.44, 39.99 423.36, 52.37 440.4, 71.99L508.81, 71.99C523.81, 71.99 536, 84.19 536, 99.21L536, 112.87C606.12, 154.58 596.88, 140.11 575.66, 184zM496, 112C487.16, 112 480, 119.16 480, 128C480, 136.84 487.16, 144 496, 144C504.84, 144 512, 136.84 512, 128C512, 119.16 504.84, 112 496, 112z" fill="#727272" fill-opacity="1" class="Black" />
    </g>
  </g>
</svg>