<?xml version='1.0' encoding='UTF-8'?>
<svg viewBox="-2 -1.9962 32 31.9975" xmlns="http://www.w3.org/2000/svg">
  <g transform="matrix(0.0547, 0, 0, 0.0547, 0, 0)">
    <path d="M505, 400L425.8, 472.9C410.7, 488 384, 477.3 384, 455.9L384, 415.9L353, 415.9C349.7, 415.9 346.5, 414.5 344.2, 412L254.4, 314.8L292.5, 273.5L372.3, 359.8L384, 359.8L384, 311.8C384, 290.4 410.7, 279.7 425.8, 294.8L505, 365.8C514.3, 375.4 514.3, 390.6 505, 400zM12, 152L103.8, 152L183.6, 238.3L221.7, 197L131.9, 99.8C129.6, 97.3 126.4, 95.9 123.1, 95.9L12, 95.9C5.4, 95.9 0, 101.3 0, 107.9L0, 139.9C0, 146.6 5.4, 152 12, 152zM505, 110.1L425.8, 39.1C410.7, 24 384, 34.7 384, 56L384, 96L353, 96C349.7, 96 346.5, 97.4 344.2, 99.9L103.8, 360L12, 360C5.4, 360 0, 365.4 0, 372L0, 404C0, 410.6 5.4, 416 12, 416L123, 416C126.3, 416 129.5, 414.6 131.8, 412.1L372.2, 152L384, 152L384, 200C384, 221.4 410.7, 232.1 425.8, 217L505, 144C514.3, 134.6 514.3, 119.4 505, 110.1z" fill="#727272" fill-opacity="1" class="Black" />
  </g>
</svg>