<?xml version='1.0' encoding='UTF-8'?>
<svg viewBox="-1.5477 -1.5477 32 32" xmlns="http://www.w3.org/2000/svg">
  <g transform="matrix(0.9991, 0, 0, 0.9991, 0, 0)">
    <g transform="matrix(0.0565, 0, 0, 0.0565, 0, 0)">
      <path d="M256, 8C119, 8 8, 119 8, 256C8, 393 119, 504 256, 504C393, 504 504, 393 504, 256C504, 119 393, 8 256, 8zM256, 456C145.72, 456 56, 366.28 56, 256C56, 145.72 145.72, 56 256, 56C366.28, 56 456, 145.72 456, 256C456, 366.28 366.28, 456 256, 456zM256, 152A104 104 0 1 0 360, 256A104 104 0 0 0 256, 152zM256, 280A24 24 0 1 1 280, 256A24 24 0 0 1 256, 280z" fill="#727272" fill-opacity="1" class="Black" />
    </g>
  </g>
</svg>