<?xml version='1.0' encoding='UTF-8'?>
<svg viewBox="-5.4736 -1.9998 32 31.9975" xmlns="http://www.w3.org/2000/svg">
  <g transform="matrix(0.0547, 0, 0, 0.0547, 0, 0)">
    <path d="M385, 464L385, 48C385, 21.5 363.5, 0 337, 0L48, 0C21.5, 0 0, 21.5 0, 48L0, 464C0, 490.5 21.5, 512 48, 512L337, 512C363.5, 512 385, 490.5 385, 464zM48, 458L48, 54C48, 50.7 50.7, 48 54, 48L331, 48C334.3, 48 337, 50.7 337, 54L337, 458C337, 461.3 334.3, 464 331, 464L54, 464C50.7, 464 48, 461.3 48, 458z" fill="#727272" fill-opacity="1" class="Black" />
  </g>
</svg>