<?xml version='1.0' encoding='UTF-8'?>
<svg viewBox="-2 -2 32 32" xmlns="http://www.w3.org/2000/svg">
  <g transform="matrix(0.0547, 0, 0, 0.0547, 0, 0)">
    <path d="M214.951, 71.068L185.408, 119.838C181.983, 125.492 174.63, 127.311 168.964, 123.907L148.402, 111.552C142.708, 108.13 140.877, 100.733 144.317, 95.051L173.902, 46.19C211.232, -15.404 300.779, -15.389 338.1, 46.19L382.215, 119.046L417.145, 98.058C429.413, 90.687 444.335, 101.916 440.91, 115.643L419.024, 203.458C416.887, 212.032 408.203, 217.25 399.629, 215.112L311.825, 193.206C298.003, 189.76 295.275, 171.285 307.455, 163.967L341.086, 143.759L297.041, 71.052C278.405, 40.305 233.585, 40.322 214.951, 71.068zM55.006, 335.104L104.602, 253.231L138.632, 273.678C150.812, 280.996 165.843, 269.915 162.397, 256.093L140.517, 168.282C138.38, 159.708 129.696, 154.49 121.122, 156.628L33.312, 178.53C19.583, 181.951 16.674, 200.398 28.942, 207.769L63.496, 228.531L14.021, 310.242C-24.729, 374.181 21.448, 456 96.12, 456L164, 456C170.627, 456 176, 450.627 176, 444L176, 420C176, 413.373 170.627, 408 164, 408L96.045, 408C58.786, 408 35.619, 367.093 55.006, 335.104zM497.986, 310.243L462.995, 252.455C459.571, 246.8 452.217, 244.979 446.55, 248.384L426.02, 260.72C420.325, 264.142 418.494, 271.541 421.937, 277.224L457.011, 335.121C476.323, 366.988 453.337, 408 415.96, 408L320, 408L320, 368.02C320, 353.81 302.76, 346.634 292.687, 356.707L228.687, 420.687C222.438, 426.935 222.438, 437.066 228.687, 443.314L292.687, 507.303C302.689, 517.308 320, 510.3 320, 495.989L320, 456L415.887, 456C490.651, 456 536.689, 374.102 497.986, 310.243z" fill="#727272" fill-opacity="1" class="Black" />
  </g>
</svg>