<?xml version='1.0' encoding='UTF-8'?>
<svg viewBox="-1.5477 -1.5477 32 32" xmlns="http://www.w3.org/2000/svg">
  <g transform="matrix(0.9991, 0, 0, 0.9991, 0, 0)">
    <g transform="matrix(0.0565, 0, 0, 0.0565, 0, 0)">
      <path d="M483.515, 28.485L431.35, 80.65C386.475, 35.767 324.485, 8 256.001, 8C119.34, 8 7.9, 119.525 8, 256.185C8.1, 393.067 119.095, 504 256, 504C319.926, 504 378.202, 479.813 422.178, 440.092C427.291, 435.474 427.531, 427.531 422.66, 422.659L402.922, 402.921C398.424, 398.423 391.169, 398.136 386.421, 402.369C351.787, 433.246 306.105, 452 256, 452C147.679, 452 60, 364.338 60, 256C60, 147.679 147.662, 60 256, 60C310.163, 60 359.157, 81.923 394.614, 117.386L340.486, 171.515C332.926, 179.075 338.28, 192 348.971, 192L492, 192C498.627, 192 504, 186.627 504, 180L504, 36.971C504, 26.28 491.074, 20.926 483.515, 28.485z" fill="#727272" fill-opacity="1" class="Black" />
    </g>
  </g>
</svg>