<?xml version='1.0' encoding='UTF-8'?>
<svg viewBox="-1.9975 -1.9988 31.9975 32" xmlns="http://www.w3.org/2000/svg">
  <g transform="matrix(0.0547, 0, 0, 0.0547, 0, 0)">
    <path d="M481.162, 164.326C500.64, 190.004 512.159, 222.035 511.998, 256.714C511.61, 340.638 442.361, 408 358.436, 408L176, 408L176, 472C175.999, 482.683 163.051, 488.021 155.515, 480.485L67.515, 392.49C62.829, 387.804 62.828, 380.206 67.515, 375.519L155.515, 287.514C163.095, 279.934 176, 285.374 176, 295.999L176, 359.999L358.668, 359.999C415.933, 360 464.06, 313.154 464, 255.889C463.977, 233.517 456.851, 212.778 444.763, 195.807C441.332, 190.99 441.801, 184.42 445.986, 180.243C454.255, 171.988 459.578, 166.698 463.123, 163.139C468.254, 157.987 476.768, 158.534 481.162, 164.326zM48, 256.111C47.94, 198.846 96.067, 152 153.332, 152L336, 152L336, 216C336, 226.625 348.905, 232.066 356.485, 224.485L444.485, 136.48C449.172, 131.794 449.171, 124.195 444.485, 119.509L356.485, 31.514C348.949, 23.979 336.001, 29.317 336, 40L336, 104L153.564, 104C69.639, 104 0.389, 171.362 0.002, 255.286C-0.158, 289.965 11.36, 321.996 30.838, 347.674C35.232, 353.466 43.746, 354.013 48.877, 348.862C52.422, 345.303 57.744, 340.013 66.014, 331.757C70.199, 327.579 70.667, 321.009 67.237, 316.193C55.149, 299.222 48.024, 278.483 48, 256.111zM227.263, 299.527C227.263, 292.05 231.18, 287.955 238.836, 287.955L253.967, 287.955L253.967, 248.077C253.967, 242.914 254.501, 237.574 254.501, 237.574L254.145, 237.574C254.145, 237.574 252.366, 240.244 251.297, 241.312C246.846, 245.585 240.793, 245.763 235.631, 240.244L230.113, 234.013C224.771, 228.672 225.129, 222.797 230.647, 217.634L252.367, 197.695C256.816, 193.6 260.733, 191.998 266.787, 191.998L278.892, 191.998C286.548, 191.998 290.641, 195.914 290.641, 203.57L290.641, 287.954L306.129, 287.954C313.784, 287.954 317.701, 292.048 317.701, 299.526L317.701, 308.427C317.701, 315.904 313.784, 319.999 306.129, 319.999L238.836, 319.999C231.18, 319.999 227.263, 315.904 227.263, 308.427L227.263, 299.527z" fill="#727272" fill-opacity="1" class="Black" />
  </g>
</svg>