<?xml version='1.0' encoding='UTF-8'?>
<svg viewBox="-2 -1.9988 32 32" xmlns="http://www.w3.org/2000/svg">
  <g transform="matrix(0.0547, 0, 0, 0.0547, 0, 0)">
    <path d="M512, 256C512, 339.813 443.813, 408 360, 408L136.535, 408L192.297, 462.545C197.072, 467.215 197.114, 474.886 192.391, 479.609L175.514, 496.486C170.828, 501.172 163.23, 501.172 158.543, 496.486L54.543, 392.486C49.857, 387.8 49.857, 380.202 54.543, 375.515L154.59, 275.468C159.276, 270.782 166.874, 270.782 171.561, 275.468L188.438, 292.345C193.161, 297.068 193.119, 304.738 188.344, 309.409L136.535, 360L360, 360C417.346, 360 464, 313.346 464, 256C464, 236.548 458.628, 218.329 449.294, 202.742A11.991 11.991 0 0 1 451.098, 188.098L468.49, 170.706C473.852, 165.344 482.806, 166.222 486.981, 172.553C502.788, 196.521 512, 225.203 512, 256zM62.706, 309.258C53.372, 293.671 48, 275.452 48, 256C48, 198.654 94.654, 152 152, 152L375.465, 152L323.656, 202.592C318.881, 207.262 318.839, 214.933 323.562, 219.656L340.439, 236.533C345.125, 241.219 352.723, 241.219 357.41, 236.533L457.457, 136.486C462.143, 131.8 462.143, 124.202 457.457, 119.515L353.457, 15.515C348.771, 10.829 341.173, 10.829 336.486, 15.515L319.609, 32.392C314.886, 37.115 314.928, 44.785 319.703, 49.456L375.465, 104L152, 104C68.187, 104 0, 172.187 0, 256C0, 286.797 9.212, 315.479 25.019, 339.447C29.194, 345.778 38.148, 346.656 43.51, 341.294L60.902, 323.902A11.991 11.991 0 0 0 62.706, 309.258zM227.263, 299.527C227.263, 292.05 231.18, 287.955 238.836, 287.955L253.967, 287.955L253.967, 248.077C253.967, 242.914 254.501, 237.574 254.501, 237.574L254.145, 237.574C254.145, 237.574 252.366, 240.244 251.297, 241.312C246.846, 245.585 240.793, 245.763 235.631, 240.244L230.113, 234.013C224.771, 228.672 225.129, 222.797 230.647, 217.634L252.367, 197.695C256.816, 193.6 260.733, 191.998 266.787, 191.998L278.892, 191.998C286.548, 191.998 290.641, 195.914 290.641, 203.57L290.641, 287.954L306.129, 287.954C313.784, 287.954 317.701, 292.048 317.701, 299.526L317.701, 308.427C317.701, 315.904 313.784, 319.999 306.129, 319.999L238.836, 319.999C231.18, 319.999 227.263, 315.904 227.263, 308.427L227.263, 299.527z" fill="#727272" fill-opacity="1" class="Black" />
  </g>
</svg>