<?xml version='1.0' encoding='UTF-8'?>
<svg viewBox="-2 -4.8005 32 32" xmlns="http://www.w3.org/2000/svg">
  <g transform="matrix(0.9988, 0, 0, 0.9988, 0, 0)">
    <g transform="matrix(0.0438, 0, 0, 0.0438, 0, 0)">
      <path d="M142.06, 273.94L302.06, 433.91C332.08, 463.93 384, 442.89 384, 399.97L384, 328.89C502.18, 333.83 505.95, 359.88 488.44, 418.06C475.27, 461.81 524.65, 496.77 561.54, 471.49C612.15, 436.79 640, 392.16 640, 328.38C640, 185.98 512.84, 157.36 384, 152.77L384, 80.04C384, 37.16 332.11, 16.04 302.06, 46.1L142.06, 206.06C123.31, 224.8 123.31, 255.2 142.06, 273.94zM176, 240L336, 80L336, 200C456.616, 200 592, 206.513 592, 328.38C592, 384.18 563.21, 412.25 534.4, 432C575.402, 295.753 473.571, 280 336, 280L336, 400L176, 240zM14.059, 206.059L174.059, 46.097C194.448, 25.708 224.881, 28.877 242.349, 46.407L48, 240L242.35, 433.603C224.876, 451.134 194.429, 454.278 174.059, 433.909L14.059, 273.942C-4.686, 255.196 -4.686, 224.804 14.059, 206.059z" fill="#727272" fill-opacity="1" class="Black" />
    </g>
  </g>
</svg>