<?xml version='1.0' encoding='UTF-8'?>
<svg viewBox="-2 -3.5565 32 32" xmlns="http://www.w3.org/2000/svg">
  <g transform="matrix(0.0486, 0, 0, 0.0486, 0, 0)">
    <path d="M14.062, 257.94L190.06, 433.88C220.27, 464.09 272, 442.58 272, 399.94L272, 321.66C418.59, 330.2 430.53, 371.859 406.18, 449.539C392.53, 493.099 441.25, 528.429 478.37, 503.999C537.98, 464.768 576, 403.8 576, 330.05C576, 159.68 409.96, 132.9 272, 128.75L272, 48.047C272, 5.327 220.21, -16.043 190.06, 14.107L14.062, 190.06C-4.688, 208.8 -4.688, 239.2 14.062, 257.94zM48, 224L224, 48L224, 176.03C367.181, 176.66 528, 187.808 528, 330.05C528, 397.01 488, 440 451.98, 463.7C501.44, 305.911 388.521, 273.88 224, 272.09L224, 400L48, 224z" fill="#727272" fill-opacity="1" class="Black" />
  </g>
</svg>