<?xml version='1.0' encoding='UTF-8'?>
<svg viewBox="-1.9999 -4.8014 31.9975 32" xmlns="http://www.w3.org/2000/svg">
  <g transform="matrix(1.001, 0, 0, 1.001, 0, 0)">
    <g transform="matrix(0.0437, 0, 0, 0.0437, 0, 0)">
      <path d="M328, 0L312, 0C303.2, 0 296, 7.2 296, 16L296, 496C296, 504.8 303.2, 512 312, 512L328, 512C336.8, 512 344, 504.8 344, 496L344, 16C344, 7.2 336.8, 0 328, 0zM200.8, 137.4C210.4, 123.3 216, 106.3 216, 88C216, 39.4 176.6, 0 128, 0C79.4, 0 40, 39.4 40, 88C40, 106.3 45.6, 123.3 55.2, 137.4C22.7, 152.8 0, 185.6 0, 224L0, 336C0, 353.7 14.3, 368 32, 368L48, 368L48, 480C48, 497.7 62.3, 512 80, 512L176, 512C193.7, 512 208, 497.7 208, 480L208, 368L224, 368C241.7, 368 256, 353.7 256, 336L256, 224C256, 185.6 233.3, 152.8 200.8, 137.4zM128, 48C150.1, 48 168, 65.9 168, 88C168, 110.1 150.1, 128 128, 128C105.9, 128 88, 110.1 88, 88C88, 65.9 105.9, 48 128, 48zM208, 320L160, 320L160, 464L96, 464L96, 320L48, 320L48, 224C48, 197.5 69.5, 176 96, 176L160, 176C186.5, 176 208, 197.5 208, 224L208, 320zM638.8, 330.3L601.1, 195.6C596.2, 177.9 586, 162.9 572.9, 151.3C589.6, 135.3 600, 112.9 600, 88C600, 39.4 560.6, 0 512, 0C463.4, 0 424, 39.4 424, 88C424, 112.9 434.5, 135.3 451.1, 151.3C437.9, 162.9 427.8, 177.9 422.9, 195.6L385.2, 330.3C382.1, 343.1 385, 356.5 393.2, 366.9C401.7, 377.7 414.6, 383.9 428.5, 383.9L432, 383.9L432, 471.9C432, 494 449.9, 511.9 472, 511.9L552, 511.9C574.1, 511.9 592, 494 592, 471.9L592, 383.9L595.5, 383.9C609.4, 383.9 622.3, 377.7 630.8, 366.9C639, 356.5 641.9, 343.2 638.8, 330.3zM512, 48C534.1, 48 552, 65.9 552, 88C552, 110.1 534.1, 128 512, 128C489.9, 128 472, 110.1 472, 88C472, 65.9 489.9, 48 512, 48zM544, 336L544, 464L480, 464L480, 336L433.1, 337.2L469.1, 208.5C474.4, 189.3 492.1, 176 512, 176C531.9, 176 549.5, 189.4 554.9, 208.5L590.5, 336L544, 336z" fill="#727272" fill-opacity="1" class="Black" />
    </g>
  </g>
</svg>