<?xml version='1.0' encoding='UTF-8'?>
<svg viewBox="-1.0689 -4.0549 32 32" xmlns="http://www.w3.org/2000/svg">
  <g transform="matrix(1.0012, 0, 0, 1.0012, 0, 0)">
    <g transform="matrix(0.0466, 0, 0, 0.0466, 0, 0)">
      <path d="M388.461, 387.515C396.021, 395.075 390.667, 408 379.976, 408L128, 408C114.745, 408 104, 397.255 104, 384L104, 171.187L31.838, 171.186C21.155, 171.185 15.816, 158.237 23.353, 150.701L119.509, 54.545C124.195, 49.859 131.793, 49.858 136.48, 54.545L232.64, 150.705C240.22, 158.285 234.78, 171.19 224.155, 171.19L152, 171.188L152, 360L355.976, 360C359.159, 360 362.211, 361.264 364.461, 363.515L388.461, 387.515zM608.162, 340.815L536, 340.813L536, 128C536, 114.745 525.255, 104 512, 104L260.024, 104C249.333, 104 243.979, 116.926 251.539, 124.485L275.539, 148.485A12.002 12.002 0 0 0 284.024, 152L488, 152L488, 340.812L415.846, 340.811C405.221, 340.811 399.78, 353.716 407.361, 361.296L503.521, 457.456C508.207, 462.143 515.806, 462.142 520.492, 457.456L616.648, 361.3C624.183, 353.764 618.845, 340.815 608.162, 340.815z" fill="#727272" fill-opacity="1" class="Black" />
    </g>
  </g>
</svg>