<?xml version='1.0' encoding='UTF-8'?>
<svg viewBox="-1.9938 -2 32 32" xmlns="http://www.w3.org/2000/svg">
  <g transform="matrix(0.0547, 0, 0, 0.0547, 0, 0)">
    <path d="M371.94, 163.7A222.3 222.3 0 0 1 394.37, 222.7C435.52, 244.05 464, 286.55 464, 336A128 128 0 0 1 208, 336C208, 281.34 242.52, 234.83 290.85, 216.56A126.49 126.49 0 0 1 304, 272C304, 309.37 287.62, 342.73 262, 366.15A80.3 80.3 0 0 0 293, 403.15A175.71 175.71 0 0 0 246.67, 110.85L288, 44.66L232.53, 0L119.47, 0L64, 44.66L105.29, 110.89A176 176 0 0 0 176, 448A164 164 0 0 0 198.86, 446.18A176 176 0 1 0 371.94, 163.7zM128, 55.34L136.53, 48L215.47, 48L224, 55.34L198.53, 97.6A160 160 0 0 0 153.47, 97.6zM48, 272A128.14 128.14 0 0 1 176, 144C209, 144 238.87, 156.91 261.6, 177.51C201.72, 205.51 160, 265.51 160, 336A175.18 175.18 0 0 0 172, 399.6C103.33, 397.45 48, 341.22 48, 272z" fill="#727272" fill-opacity="1" class="Black" />
  </g>
</svg>