<?xml version='1.0' encoding='UTF-8'?>
<svg viewBox="-1.995 -3.5496 32 32" xmlns="http://www.w3.org/2000/svg">
  <g transform="matrix(0.0486, 0, 0, 0.0486, 0, 0)">
    <path d="M267.73, 192L308.27, 192C315.4, 192 320.95, 185.83 320.2, 178.74L315.6, 135.16A8 8 0 0 0 307.64, 128L268.35, 128C264.26, 128 260.82, 131.09 260.39, 135.16L255.79, 178.74C255.05, 185.83 260.61, 192 267.73, 192zM260.36, 304L315.65, 304C325.15, 304 332.56, 295.77 331.56, 286.32L326.49, 238.32C325.63, 230.18 318.77, 224 310.58, 224L265.43, 224C257.24, 224 250.38, 230.18 249.52, 238.32L244.45, 286.32C243.45, 295.77 250.86, 304 260.36, 304zM273.42, 96L302.58, 96C307.33, 96 311.03, 91.88 310.54, 87.16L308.85, 71.16A8 8 0 0 0 300.89, 64L275.11, 64C271.02, 64 267.58, 67.09 267.15, 71.16L265.46, 87.16C264.97, 91.88 268.67, 96 273.42, 96zM322.4, 336L253.6, 336C245.41, 336 238.55, 342.18 237.69, 350.32L229.24, 430.32C228.24, 439.77 235.65, 448 245.15, 448L330.84, 448C340.34, 448 347.75, 439.77 346.75, 430.32L338.3, 350.32C337.45, 342.18 330.59, 336 322.4, 336zM173.35, 64L157.35, 64A7.99 7.99 0 0 0 149.97, 68.92L1.25, 425.85C-3.14, 436.38 4.6, 448 16.02, 448L60.02, 448C67.13, 448 73.39, 443.31 75.38, 436.48L181.03, 74.24C182.52, 69.12 178.68, 64 173.35, 64zM574.75, 425.85L426.04, 68.92A8 8 0 0 0 418.66, 64L402.66, 64C397.33, 64 393.49, 69.12 394.98, 74.24L500.63, 436.48A15.996 15.996 0 0 0 515.99, 448L559.99, 448C571.4, 448 579.14, 436.38 574.75, 425.85z" fill="#727272" fill-opacity="1" class="Black" />
  </g>
</svg>