<?xml version='1.0' encoding='UTF-8'?>
<svg viewBox="-1.9963 -2 32 32" xmlns="http://www.w3.org/2000/svg">
  <g transform="matrix(0.0547, 0, 0, 0.0547, 0, 0)">
    <path d="M505.09, 19.34A16.08 16.08 0 0 0 492.73, 7C460.12, 0 434.6, 0 409.17, 0C305.44, 0 243, 55.1 196.28, 128L94.87, 128A48 48 0 0 0 52, 154.49L2.58, 253.29A24 24 0 0 0 24.07, 288L116.67, 288L106.08, 309.42A31.75 31.75 0 0 0 112.23, 346.05L166, 399.77C181.55, 415.31 199.82, 407.3 202.64, 405.91L224, 395.33L224, 488A24 24 0 0 0 258.7, 509.5L357.4, 460.1A47.91 47.91 0 0 0 383.9, 417.2L383.9, 315.71C456.61, 268.93 512, 206.25 512, 103C512.08, 77.47 512.08, 52 505.09, 19.34zM358.57, 275C321.63, 293.48 237.45, 335.14 191.78, 357.73L154.28, 320.24C176.87, 274.55 218.53, 190.24 236.98, 153.34C284.38, 79.53 336, 48 409.17, 48C427.17, 48 443.45, 48 461.73, 50.34C464.11, 69.07 464.05, 85.63 463.98, 102.99C464, 175.77 432.42, 227.32 358.57, 275zM368, 104A40 40 0 1 0 408, 144A40 40 0 0 0 368, 104z" fill="#727272" fill-opacity="1" class="Black" />
  </g>
</svg>