<?xml version='1.0' encoding='UTF-8'?>
<svg viewBox="-2.876 -2 32 32" xmlns="http://www.w3.org/2000/svg">
  <g transform="matrix(0.0547, 0, 0, 0.0547, 0, 0)">
    <path d="M464.83, 55.14C461.76, 45.19 453.17, 38.47 443.89, 38.47C442.16, 38.47 440.4, 38.7 438.65, 39.19C420.42, 44.31 400.91, 47.15 380.55, 47.15C331.43, 47.15 286.94, 31.08 254.38, 5.04C250.18, 1.68 245.09, 0 240, 0C234.91, 0 229.82, 1.68 225.62, 5.03C193.06, 31.07 148.57, 47.14 99.45, 47.14C79.09, 47.14 59.58, 44.3 41.35, 39.18C39.6, 38.69 37.84, 38.46 36.11, 38.46C26.83, 38.46 18.24, 45.19 15.17, 55.13C-21.83, 175.11 -6.68, 410.34 240, 512C486.68, 410.34 501.83, 175.11 464.83, 55.14zM55.32, 91.44C69.84, 93.9 84.6, 95.14 99.46, 95.14C150.82, 95.14 200, 80.62 240, 53.93C280, 80.62 329.18, 95.15 380.55, 95.15C395.4, 95.15 410.17, 93.91 424.69, 91.45C429.41, 113.56 432.12, 139.81 431.68, 168.01L48.32, 168.01C47.88, 139.8 50.6, 113.55 55.32, 91.44zM240, 459.61C153.46, 419.33 95.16, 357.2 66.55, 274.71C59.74, 255.07 55.28, 235.35 52.34, 216L427.65, 216C424.71, 235.35 420.25, 255.07 413.44, 274.71C384.84, 357.2 326.54, 419.33 240, 459.61z" fill="#727272" fill-opacity="1" class="Black" />
  </g>
</svg>