<?xml version='1.0' encoding='UTF-8'?>
<svg viewBox="-1.9998 -3.5563 31.9975 32" xmlns="http://www.w3.org/2000/svg">
  <g transform="matrix(0.0486, 0, 0, 0.0486, 0, 0)">
    <path d="M528, 288L376, 288L376, 208A16 16 0 0 0 360, 192L344, 192A16 16 0 0 0 328, 208L328, 288L48, 288A48 48 0 0 0 0, 336L0, 464A48 48 0 0 0 48, 512L528, 512A48 48 0 0 0 576, 464L576, 336A48 48 0 0 0 528, 288zM528, 464L48, 464L48, 336L528, 336zM112, 432A32 32 0 1 0 80, 400A32 32 0 0 0 112, 432zM208, 432A32 32 0 1 0 176, 400A32 32 0 0 0 208, 432zM243.44, 135.53A16.44 16.44 0 0 0 242.14, 159.53L253.25, 170.9A15.15 15.15 0 0 0 273.78, 172.19A122.72 122.72 0 0 1 430.22, 172.19A15.15 15.15 0 0 0 450.75, 170.9L461.86, 159.53A16.44 16.44 0 0 0 460.56, 135.53A168.83 168.83 0 0 0 243.44, 135.53zM175.6, 107.33C181.6, 113.44 190.99, 113.39 197.31, 107.69A230.29 230.29 0 0 1 506.69, 107.69C513.01, 113.39 522.44, 113.44 528.4, 107.33L539.47, 96A16.41 16.41 0 0 0 538.47, 72.44C487, 25.59 421.42, 0 352, 0C282.58, 0 217, 25.59 165.48, 72.44A16.41 16.41 0 0 0 164.53, 96z" fill="#727272" fill-opacity="1" class="Black" />
  </g>
</svg>