<?xml version='1.0' encoding='UTF-8'?>
<svg viewBox="-2 -2 32 32" xmlns="http://www.w3.org/2000/svg">
  <g transform="matrix(0.0547, 0, 0, 0.0547, 0, 0)">
    <path d="M424, 336L328, 336C305.9, 336 288, 318.1 288, 296C288, 273.9 305.9, 256 328, 256L416, 256C416, 256 512, 149 512, 96C512, 43 469, 0 416, 0C363, 0 320, 43 320, 96C320, 125.8 350.3, 172.7 376.9, 208L328, 208C279.5, 208 240, 247.5 240, 296C240, 344.5 279.5, 384 328, 384L424, 384C446.1, 384 464, 401.9 464, 424C464, 446.1 446.1, 464 424, 464L135.1, 464C161.7, 428.7 192, 381.8 192, 352C192, 299 149, 256 96, 256C43, 256 0, 299 0, 352C0, 405 96, 512 96, 512L424, 512C472.5, 512 512, 472.5 512, 424C512, 375.5 472.5, 336 424, 336zM368, 96C368, 69.5 389.5, 48 416, 48C442.5, 48 464, 69.5 464, 95.9C463.5, 109.3 443.2, 144.1 416, 180.3C388.8, 144.1 368.5, 109.4 368, 96zM96, 436.3C68.8, 400.1 48.5, 365.4 48, 352C48, 325.5 69.5, 304 96, 304C122.5, 304 144, 325.5 144, 351.9C143.5, 365.3 123.2, 400.1 96, 436.3zM96, 336C87.2, 336 80, 343.2 80, 352C80, 360.8 87.2, 368 96, 368C104.8, 368 112, 360.8 112, 352C112, 343.2 104.8, 336 96, 336zM432, 96C432, 87.2 424.8, 80 416, 80C407.2, 80 400, 87.2 400, 96C400, 104.8 407.2, 112 416, 112C424.8, 112 432, 104.8 432, 96z" fill="#727272" fill-opacity="1" class="Black" />
  </g>
</svg>