<?xml version='1.0' encoding='UTF-8'?>
<svg viewBox="-2.0025 -0.0054 32 32" xmlns="http://www.w3.org/2000/svg">
  <g transform="matrix(0.0625, 0, 0, 0.0625, 0, 0)">
    <path d="M80, 368C97.645, 368 112, 382.355 112, 400C112, 417.645 97.645, 432 80, 432C62.355, 432 48, 417.645 48, 400C48, 382.355 62.355, 368 80, 368M80, 320C35.817, 320 0, 355.817 0, 400C0, 444.183 35.817, 480 80, 480C124.183, 480 160, 444.183 160, 400C160, 355.817 124.183, 320 80, 320zM447.996, 467.615C441.547, 229.781 249.939, 38.452 12.386, 32.005C5.609, 31.821 0, 37.229 0, 44.007L0, 68.027C0, 74.509 5.147, 79.835 11.626, 80.019C223.602, 86.059 393.942, 256.754 399.98, 468.373C400.165, 474.852 405.49, 479.999 411.972, 479.999L435.992, 479.999C442.772, 480 448.179, 474.391 447.996, 467.615zM311.757, 467.565C305.401, 305.01 174.966, 174.599 12.435, 168.243C5.643, 167.977 0, 173.444 0, 180.242L0, 204.266C0, 210.697 5.072, 215.971 11.497, 216.246C148.265, 222.093 257.908, 331.757 263.755, 468.504C264.03, 474.929 269.304, 480.001 275.735, 480.001L299.759, 480.001C306.556, 480 312.023, 474.357 311.757, 467.565z" fill="#727272" fill-opacity="1" class="Black" />
  </g>
</svg>