<?xml version='1.0' encoding='UTF-8'?>
<svg viewBox="-4 0 32 32" xmlns="http://www.w3.org/2000/svg">
  <g transform="matrix(0.0625, 0, 0, 0.0625, 0, 0)">
    <path d="M243.128, 314.38C324.987, 314.38 384, 257.269 384, 172.238C384, 87.207 324.987, 32 243.128, 32L76, 32C69.373, 32 64, 37.373 64, 44L64, 259.807L12, 259.807C5.373, 259.807 0, 265.18 0, 271.807L0, 302.379C0, 309.006 5.373, 314.379 12, 314.379L64, 314.379L64, 352L12, 352C5.373, 352 0, 357.373 0, 364L0, 388C0, 394.627 5.373, 400 12, 400L64, 400L64, 468C64, 474.627 69.373, 480 76, 480L116, 480C122.627, 480 128, 474.627 128, 468L128, 400L308, 400C314.627, 400 320, 394.627 320, 388L320, 364C320, 357.373 314.627, 352 308, 352L128, 352L128, 314.38L243.128, 314.38zM128, 86.572L233.61, 86.572C286.913, 86.572 319.911, 118.3 319.911, 172.238C319.911, 226.176 286.913, 259.807 232.976, 259.807L128, 259.807L128, 86.572z" fill="#727272" fill-opacity="1" class="Black" />
  </g>
</svg>