<?xml version='1.0' encoding='UTF-8'?>
<svg viewBox="-1.9999 -1.9999 32 32" xmlns="http://www.w3.org/2000/svg">
  <g transform="matrix(0.0547, 0, 0, 0.0547, 0, 0)">
    <path d="M480, 288L224, 288L224, 32C224, 14.33 209.67, 0 192, 0L32, 0C14.33, 0 0, 14.33 0, 32L0, 480C0, 497.67 14.33, 512 32, 512L480, 512C497.67, 512 512, 497.67 512, 480L512, 320C512, 302.33 497.67, 288 480, 288zM48, 48L176, 48L176, 96L104, 96C99.58, 96 96, 99.58 96, 104L96, 120C96, 124.42 99.58, 128 104, 128L176, 128L176, 176L104, 176C99.58, 176 96, 179.58 96, 184L96, 200C96, 204.42 99.58, 208 104, 208L176, 208L176, 256L104, 256C99.58, 256 96, 259.58 96, 264L96, 280C96, 284.42 99.58, 288 104, 288L176, 288L176, 313.38L48, 441.38L48, 48zM464, 464L70.62, 464L198.62, 336L224, 336L224, 408C224, 412.42 227.58, 416 232, 416L248, 416C252.42, 416 256, 412.42 256, 408L256, 336L304, 336L304, 408C304, 412.42 307.58, 416 312, 416L328, 416C332.42, 416 336, 412.42 336, 408L336, 336L384, 336L384, 408C384, 412.42 387.58, 416 392, 416L408, 416C412.42, 416 416, 412.42 416, 408L416, 336L464, 336L464, 464z" fill="#727272" fill-opacity="1" class="Black" />
  </g>
</svg>