<?xml version='1.0' encoding='UTF-8'?>
<svg viewBox="-1.995 -4.7952 32 32" xmlns="http://www.w3.org/2000/svg">
  <g transform="matrix(0.9992, 0, 0, 0.9992, 0, 0)">
    <g transform="matrix(0.0438, 0, 0, 0.0438, 0, 0)">
      <path d="M635.7, 179.2L543.2, 16.3C535.6, 2.8 516.7, -5.7 499.5, 4.4L16, 288.3C0.7, 297.3 -4.6, 317.2 4.3, 332.8L96.8, 495.7C104.4, 509.1 123.3, 517.7 140.5, 507.6L624, 223.7C639.3, 214.7 644.5, 194.8 635.7, 179.2zM130.3, 457.2L53.9, 322.5L99.9, 295.5L134.1, 355.8C136.3, 359.7 141.2, 361 145, 358.8L171.6, 343.2C175.4, 341 176.7, 336 174.5, 332.1L140.3, 271.8L180.7, 248.1L199.4, 281C201.6, 284.9 206.5, 286.2 210.3, 284L236.9, 268.4C240.7, 266.2 242, 261.2 239.8, 257.3L221.1, 224.4L261.5, 200.7L295.7, 261C297.9, 264.9 302.8, 266.2 306.6, 264L333.2, 248.4C337, 246.2 338.3, 241.2 336.1, 237.3L302, 176.8L342.4, 153.1L361.1, 186C363.3, 189.9 368.2, 191.2 372, 189L398.6, 173.4C402.4, 171.2 403.7, 166.2 401.5, 162.3L382.8, 129.4L423.2, 105.7L457.4, 166C459.6, 169.9 464.5, 171.2 468.3, 169L494.9, 153.4C498.7, 151.2 500, 146.2 497.8, 142.3L463.6, 82L509.6, 55L586.1, 189.7L130.3, 457.2z" fill="#727272" fill-opacity="1" class="Black" />
    </g>
  </g>
</svg>