<?xml version='1.0' encoding='UTF-8'?>
<svg viewBox="-6 0 32 32" xmlns="http://www.w3.org/2000/svg">
  <g transform="matrix(0.0625, 0, 0, 0.0625, 0, 0)">
    <path d="M308, 80C314.627, 80 320, 74.627 320, 68L320, 44C320, 37.373 314.627, 32 308, 32L12, 32C5.373, 32 0, 37.373 0, 44L0, 75.659C0, 82.286 5.373, 87.659 12, 87.659L105.61, 87.659C144.675, 87.659 172.813, 105.059 185.068, 136L12, 136C5.373, 136 0, 141.373 0, 148L0, 172C0, 178.627 5.373, 184 12, 184L191.59, 184C188.16, 233.738 155.913, 264.341 104.975, 264.341L12, 264.341C5.373, 264.341 0, 269.714 0, 276.341L0, 311.315C0, 314.81 1.524, 318.131 4.173, 320.411L186.267, 477.096A11.996 11.996 0 0 0 194.094, 480L255.42, 480C266.55, 480 271.683, 466.163 263.247, 458.904L101.818, 320L115.128, 320C194.13, 320 251.846, 265.743 255.778, 184L308, 184C314.627, 184 320, 178.627 320, 172L320, 148C320, 141.373 314.627, 136 308, 136L251.646, 136C246.579, 114.364 237.237, 95.503 224.444, 80L308, 80z" fill="#727272" fill-opacity="1" class="Black" />
  </g>
</svg>