<?xml version='1.0' encoding='UTF-8'?>
<svg viewBox="-2 -4.7992 32 32" xmlns="http://www.w3.org/2000/svg">
  <g transform="matrix(0.9988, 0, 0, 0.9988, 0, 0)">
    <g transform="matrix(0.0438, 0, 0, 0.0438, 0, 0)">
      <path d="M592.1, 208L596, 208C620.3, 208 640, 188.3 640, 164C640, 91.1 580.9, 32 508, 32L384, 32L384, 16C384, 7.2 376.8, 0 368, 0L240, 0C231.2, 0 224, 7.2 224, 16L224, 32L64, 32C28.7, 32 0, 60.7 0, 96L0, 293.5C0, 310.5 6.7, 326.8 18.7, 338.8L96, 416L96, 432C96, 476.2 131.8, 512 176, 512C220.2, 512 256, 476.2 256, 432C256, 426.5 255.4, 421.2 254.4, 416L417.6, 416C416.5, 421.2 416, 426.5 416, 432C416, 476.2 451.8, 512 496, 512C540.2, 512 576, 476.2 576, 432C576, 426.5 575.4, 421.2 574.4, 416L608, 416C625.6, 416 640, 401.6 640, 384L640, 282.4C640, 265.4 633.3, 249.2 621.3, 237.2L592.1, 208zM176, 464C158.4, 464 144, 449.6 144, 432C144, 414.4 158.4, 400 176, 400C193.6, 400 208, 414.4 208, 432C208, 449.6 193.6, 464 176, 464zM368, 368L223.6, 368C210.3, 358.1 193.9, 352 176, 352C158.1, 352 141.8, 358.1 128.4, 368L115.8, 368L52.6, 304.8C49.6, 301.8 47.9, 297.8 47.9, 293.5L47.9, 96C47.9, 87.2 55.1, 80 63.9, 80L507.9, 80C552.9, 80 589.7, 115.5 591.8, 160L368, 160L368, 368zM572.2, 256L416, 256L416, 208L517.5, 208C521.8, 208 525.9, 209.7 529, 212.8L572.2, 256zM496, 464C478.4, 464 464, 449.6 464, 432C464, 414.4 478.4, 400 496, 400C513.6, 400 528, 414.4 528, 432C528, 449.6 513.6, 464 496, 464zM592, 368L543.6, 368C530.3, 358.1 513.9, 352 496, 352C478.1, 352 461.8, 358.1 448.4, 368L416, 368L416, 304L592, 304L592, 368zM304, 128L112, 128C103.2, 128 96, 135.2 96, 144L96, 240C96, 248.8 103.2, 256 112, 256L304, 256C312.8, 256 320, 248.8 320, 240L320, 144C320, 135.2 312.8, 128 304, 128zM272, 208L144, 208L144, 176L272, 176L272, 208z" fill="#727272" fill-opacity="1" class="Black" />
    </g>
  </g>
</svg>