<?xml version='1.0' encoding='UTF-8'?>
<svg viewBox="-2.0074 -2.0049 31.9975 32" xmlns="http://www.w3.org/2000/svg">
  <g transform="matrix(0.9994, 0, 0, 0.9994, 0, 0)">
    <g transform="matrix(0.0547, 0, 0, 0.0547, 0, 0)">
      <path d="M326, 115.91L381.4, 34.73A24 24 0 0 0 360, 0L152, 0A24 24 0 0 0 130.53, 34.73L186, 115.92C-9.82, 235.66 0.08, 392.05 0.08, 412C0.08, 467.23 49.19, 512 109.77, 512L402.26, 512C462.83, 512 511.94, 467.23 511.94, 412C511.94, 392.41 520.74, 235 326, 115.91zM314.28, 48L276.06, 104L235.94, 104L197.72, 48zM463.94, 412C463.94, 440.67 436.27, 464 402.26, 464L109.77, 464C75.77, 464 48.09, 440.67 48.09, 412C47.27, 331 80.72, 236.55 219, 152L293.08, 152C430.66, 236.18 464.61, 330.93 463.94, 412zM285.61, 310.74L236.61, 296.2C230.96, 294.58 227.04, 288.98 227.04, 282.52C227.04, 274.66 232.81, 268.31 239.88, 268.31L270.47, 268.31A26.81 26.81 0 0 1 284.4, 272.31A8.92 8.92 0 0 0 295.4, 271.56L308.14, 259.39A8.54 8.54 0 0 0 307.48, 246.39A63.12 63.12 0 0 0 273.31, 234.22L273.31, 216.62A8.69 8.69 0 0 0 264.6, 208L247.18, 208A8.68 8.68 0 0 0 238.48, 216.62L238.48, 234.06C212.68, 234.81 192, 256.25 192, 282.63C192, 304.17 206.15, 323.34 226.39, 329.37L275.39, 343.91C281.04, 345.52 284.96, 351.12 284.96, 357.58C284.96, 365.45 279.19, 371.8 272.12, 371.8L241.52, 371.8A26.72 26.72 0 0 1 227.59, 367.8A8.92 8.92 0 0 0 216.59, 368.56L203.74, 380.62A8.54 8.54 0 0 0 204.4, 393.62A63.2 63.2 0 0 0 238.58, 405.79L238.58, 423.34A8.68 8.68 0 0 0 247.28, 431.96L264.7, 431.96A8.68 8.68 0 0 0 273.4, 423.34L273.4, 406C299.09, 405.36 319.88, 383.82 319.99, 357.44C320, 335.94 305.85, 316.77 285.61, 310.74z" fill="#727272" fill-opacity="1" class="Black" />
    </g>
  </g>
</svg>