<?xml version='1.0' encoding='UTF-8'?>
<svg viewBox="-2.0002 -2.0027 32 32" xmlns="http://www.w3.org/2000/svg">
  <g transform="matrix(0.0547, 0, 0, 0.0547, 0, 0)">
    <path d="M512, 240C512, 190.07 483, 147.18 441.13, 126.1A95.42 95.42 0 0 0 363.41, 65.16C350.63, 63.09 339.08, 64.38 326.72, 67.75A112 112 0 0 0 120.88, 67.75C103, 62.88 91.19, 64 84.21, 65.16A95.49 95.49 0 0 0 0.13, 155.16C-0.87, 171.16 4.24, 192.16 10.69, 204.3C19.69, 221.3 26.63, 239.2 29.78, 257.87C22.39, 259.68 15.38, 262.87 10.14, 268.58A38.29 38.29 0 0 0 0.14, 297.66C6.32, 370.56 51.45, 434.17 116.74, 464C119.58, 490.92 142.18, 512 169.52, 512L343.1, 512C370.54, 512 393.2, 490.83 395.92, 463.78C460.86, 433.78 505.71, 370.27 511.86, 297.67C512.53, 289.91 510.02, 282.52 506.17, 275.81C509.58, 264.38 512, 252.53 512, 240zM383.91, 160C430, 160 464, 198.84 464, 240C464, 245.57 462.86, 250.79 461.72, 256L306.13, 256C304.99, 250.79 303.86, 245.57 303.86, 240A80 80 0 0 1 383.91, 160zM215.8, 96L231.8, 96A8 8 0 0 1 239.8, 104L239.8, 256L207.8, 256L207.8, 104A8 8 0 0 1 215.8, 96zM74, 165.66L85.32, 154.34A8 8 0 0 1 96.64, 154.34L198.41, 256L153.13, 256L74, 177A8 8 0 0 1 74, 165.66zM364, 425.05L348.19, 430.78L348.19, 458.28C348.19, 461.44 345.9, 464 343.09, 464L169.52, 464C166.71, 464 164.43, 461.44 164.43, 458.28L164.43, 430.88L148.52, 425.19C95.8, 406.31 57.7, 359.42 49.2, 304L462.8, 304C454.33, 359.2 416.45, 406.05 364, 425.05z" fill="#727272" fill-opacity="1" class="Black" />
  </g>
</svg>