<?xml version='1.0' encoding='UTF-8'?>
<svg viewBox="-1.9999 -1.9974 32 31.9975" xmlns="http://www.w3.org/2000/svg">
  <g transform="matrix(0.0547, 0, 0, 0.0547, 0, 0)">
    <path d="M497.61, 247.3C480.75, 245.52 470.79, 240.53 458.81, 234.53C445.87, 228.06 387.14, 195.68 309.44, 234.53C256.78, 260.91 219.25, 242.72 202.88, 234.53C190.08, 228.14 131.63, 195.39 53.34, 234.53C41.34, 240.53 31.34, 245.53 14.39, 247.3A16 16 0 0 0 0, 263.13L0, 279.21C0, 288.8 8.51, 296.09 18.06, 295.21C44.46, 292.66 60.42, 284.69 74.78, 277.51C127.57, 251.11 165.13, 269.36 181.44, 277.51C259.14, 316.36 317.98, 283.98 330.94, 277.51C386.87, 249.51 426.38, 272.05 437.31, 277.51C451.67, 284.69 467.61, 292.66 493.93, 295.21C503.48, 296.13 512, 288.84 512, 279.21L512, 263.13A16 16 0 0 0 497.61, 247.3zM480, 32L32, 32A32 32 0 0 0 0, 64L0, 160A32 32 0 0 0 32, 192L480, 192A32 32 0 0 0 512, 160L512, 64A32 32 0 0 0 480, 32zM464, 144L48, 144L48, 80L464, 80zM480, 320L32, 320A32 32 0 0 0 0, 352L0, 448A32 32 0 0 0 32, 480L480, 480A32 32 0 0 0 512, 448L512, 352A32 32 0 0 0 480, 320zM464, 432L48, 432L48, 368L280, 368L352, 416L424, 368L464, 368z" fill="#727272" fill-opacity="1" class="Black" />
  </g>
</svg>