<?xml version='1.0' encoding='UTF-8'?>
<svg viewBox="-1.9961 -1.9999 31.9975 32" xmlns="http://www.w3.org/2000/svg">
  <g transform="matrix(0.0547, 0, 0, 0.0547, 0, 0)">
    <path d="M431.8, 194.1L502.6, 123.3C515.1, 110.8 515.1, 90.5 502.6, 78L433.9, 9.4C427.7, 3.1 419.5, 0 411.3, 0C403.1, 0 394.9, 3.1 388.7, 9.4L317.9, 80.2L247.1, 9.3C240.8, 3.1 232.7, 0 224.5, 0C216.3, 0 208.2, 3.1 202, 9.3L105.3, 106C92.9, 118.4 92.9, 138.6 105.3, 151.1L150.6, 196.4C136.7, 193.6 122.5, 192.1 108.3, 192.1C73.8, 192.1 39.2, 200.5 8, 217.3C-1.4, 222.4 -2.7, 235.5 4.9, 243.1L125.6, 363.8L103.7, 385.7C101.1, 385 98.7, 384.1 95.9, 384.1C78.2, 384.1 63.9, 398.4 63.9, 416.1C63.9, 433.8 78.2, 448.1 95.9, 448.1C113.6, 448.1 127.9, 433.8 127.9, 416.1C127.9, 413.3 127, 410.9 126.3, 408.3L148.2, 386.4L269, 507.1C272.3, 510.4 276.7, 512 280.9, 512C286.5, 512 291.9, 509.3 294.8, 503.9C318.6, 459.6 324.9, 408.8 314.9, 360.6L360.9, 406.6C367.1, 412.8 375.3, 415.9 383.4, 415.9C391.5, 415.9 399.7, 412.8 405.9, 406.6L502.6, 309.9C515, 297.5 515, 277.3 502.6, 264.8L431.8, 194.1zM411.3, 54.6L457.4, 100.7L279.1, 278.9C272.7, 270.2 265.8, 261.8 258, 254C250.1, 246.1 241.7, 239.3 233, 232.9L411.3, 54.6zM224.5, 54.7L283.9, 114.1L210.1, 187.9L150.7, 128.5L224.5, 54.7zM268.2, 438.4L73.6, 243.7C85, 241.2 96.7, 240 108.4, 240C152.1, 240 193.2, 257 224.1, 287.9C263.8, 327.7 279.6, 385 268.2, 438.4zM383.5, 361.3L324.1, 301.9L397.9, 228.1L457.3, 287.5L383.5, 361.3z" fill="#727272" fill-opacity="1" class="Black" />
  </g>
</svg>