<?xml version='1.0' encoding='UTF-8'?>
<svg viewBox="-2 0 32 32" xmlns="http://www.w3.org/2000/svg">
  <g transform="matrix(0.0625, 0, 0, 0.0625, 0, 0)">
    <path d="M433.941, 129.941L350.059, 46.059A48 48 0 0 0 316.118, 32L48, 32C21.49, 32 0, 53.49 0, 80L0, 432C0, 458.51 21.49, 480 48, 480L400, 480C426.51, 480 448, 458.51 448, 432L448, 163.882A48 48 0 0 0 433.941, 129.941zM272, 80L272, 160L144, 160L144, 80L272, 80zM394, 432L54, 432A6 6 0 0 1 48, 426L48, 86A6 6 0 0 1 54, 80L96, 80L96, 184C96, 197.255 106.745, 208 120, 208L296, 208C309.255, 208 320, 197.255 320, 184L320, 83.882L398.243, 162.125A6 6 0 0 1 400, 166.368L400, 426A6 6 0 0 1 394, 432zM224, 232C175.477, 232 136, 271.477 136, 320C136, 368.523 175.477, 408 224, 408C272.523, 408 312, 368.523 312, 320C312, 271.477 272.523, 232 224, 232zM224, 360C201.944, 360 184, 342.056 184, 320C184, 297.944 201.944, 280 224, 280C246.056, 280 264, 297.944 264, 320C264, 342.056 246.056, 360 224, 360z" fill="#727272" fill-opacity="1" class="Black" />
  </g>
</svg>