<?xml version='1.0' encoding='UTF-8'?>
<svg viewBox="-2 -4.7992 32 32" xmlns="http://www.w3.org/2000/svg">
  <g transform="matrix(0.9988, 0, 0, 0.9988, 0, 0)">
    <g transform="matrix(0.0438, 0, 0, 0.0438, 0, 0)">
      <path d="M509.82, 13.82C496.61, 4.4 481.33, 0 465.99, 0C441.77, 0 417.4, 10.96 400.75, 30.42L165.67, 305.12C158.88, 313.06 160.73, 323.4 166.94, 329.89L0, 512L0.38, 512C101.75, 512 198.76, 477.88 273.35, 417.32C273.58, 417.13 273.81, 416.94 274.04, 416.76C299.97, 395.51 316.05, 366.8 323.5, 336.01L333.82, 336.01C344.75, 336.01 355.14, 331.23 362.25, 322.92L524.43, 133.4C555.2, 97.46 549.21, 41.92 509.82, 13.82zM243.09, 380.05C209.21, 407.56 170.28, 428.79 128.35, 443.02L226.45, 336L273.94, 336C267.72, 353.28 257.23, 368.46 243.09, 380.05zM487.96, 102.19L328.94, 288L243.5, 288L437.22, 61.63C444.41, 53.22 455.43, 48 465.99, 48C472.02, 48 477.39, 49.65 481.95, 52.9C492.4, 60.35 495.08, 70.65 495.75, 76.12C496.92, 85.7 494.15, 94.96 487.96, 102.19zM488, 464L408, 464C403.58, 464 400, 467.58 400, 472L400, 504C400, 508.42 403.58, 512 408, 512L488, 512C492.42, 512 496, 508.42 496, 504L496, 472C496, 467.58 492.42, 464 488, 464zM344, 464L264, 464C259.58, 464 256, 467.58 256, 472L256, 504C256, 508.42 259.58, 512 264, 512L344, 512C348.42, 512 352, 508.42 352, 504L352, 472C352, 467.58 348.42, 464 344, 464zM632, 464L552, 464C547.58, 464 544, 467.58 544, 472L544, 504C544, 508.42 547.58, 512 552, 512L632, 512C636.42, 512 640, 508.42 640, 504L640, 472C640, 467.58 636.42, 464 632, 464z" fill="#727272" fill-opacity="1" class="Black" />
    </g>
  </g>
</svg>