<?xml version='1.0' encoding='UTF-8'?>
<svg viewBox="-1.9998 -3.5563 31.9975 32" xmlns="http://www.w3.org/2000/svg">
  <g transform="matrix(0.0486, 0, 0, 0.0486, 0, 0)">
    <path d="M400, 64L16, 64C7.2, 64 0, 71.2 0, 80L0, 262.6C0, 271.1 3.4, 279.2 9.4, 285.2L32, 307.9L32, 464C32, 490.5 53.5, 512 80, 512L336, 512C362.5, 512 384, 490.5 384, 464L384, 307.9L406.6, 285.3C412.6, 279.3 416, 271.2 416, 262.7L416, 80C416, 71.2 408.8, 64 400, 64zM368, 256L336, 288L336, 464L80, 464L80, 288L48, 256L48, 112L368, 112L368, 256zM184, 368L120, 368C115.6, 368 112, 371.6 112, 376L112, 424C112, 428.4 115.6, 432 120, 432L184, 432C188.4, 432 192, 428.4 192, 424L192, 376C192, 371.6 188.4, 368 184, 368zM296, 368L232, 368C227.6, 368 224, 371.6 224, 376L224, 424C224, 428.4 227.6, 432 232, 432L296, 432C300.4, 432 304, 428.4 304, 424L304, 376C304, 371.6 300.4, 368 296, 368zM184, 272L120, 272C115.6, 272 112, 275.6 112, 280L112, 328C112, 332.4 115.6, 336 120, 336L184, 336C188.4, 336 192, 332.4 192, 328L192, 280C192, 275.6 188.4, 272 184, 272zM296, 272L232, 272C227.6, 272 224, 275.6 224, 280L224, 328C224, 332.4 227.6, 336 232, 336L296, 336C300.4, 336 304, 332.4 304, 328L304, 280C304, 275.6 300.4, 272 296, 272zM112, 224L304, 224C312.8, 224 320, 216.8 320, 208L320, 176C320, 167.2 312.8, 160 304, 160L112, 160C103.2, 160 96, 167.2 96, 176L96, 208C96, 216.8 103.2, 224 112, 224zM256, 8C256, 3.6 252.4, 0 248, 0L200, 0C195.6, 0 192, 3.6 192, 8L192, 32L256, 32L256, 8zM320, 8C320, 3.6 316.4, 0 312, 0L296, 0C291.6, 0 288, 3.6 288, 8L288, 32L320, 32L320, 8zM568, 0L520, 0C515.6, 0 512, 3.6 512, 8L512, 280C512, 284.4 515.6, 288 520, 288L568, 288C572.4, 288 576, 284.4 576, 280L576, 8C576, 3.6 572.4, 0 568, 0zM408, 0L360, 0C355.6, 0 352, 3.6 352, 8L352, 32L416, 32L416, 8C416, 3.6 412.4, 0 408, 0zM472, 0L456, 0C451.6, 0 448, 3.6 448, 8L448, 280C448, 284.4 451.6, 288 456, 288L472, 288C476.4, 288 480, 284.4 480, 280L480, 8C480, 3.6 476.4, 0 472, 0z" fill="#727272" fill-opacity="1" class="Black" />
  </g>
</svg>