<?xml version='1.0' encoding='UTF-8'?>
<svg viewBox="-1.9998 -3.5563 31.9975 32" xmlns="http://www.w3.org/2000/svg">
  <g transform="matrix(0.0486, 0, 0, 0.0486, 0, 0)">
    <path d="M400, 64L16, 64C7.2, 64 0, 71.2 0, 80L0, 262.6C0, 271.1 3.4, 279.2 9.4, 285.2L32, 307.9L32, 464C32, 490.5 53.5, 512 80, 512L336, 512C362.5, 512 384, 490.5 384, 464L384, 307.9L406.6, 285.3C412.6, 279.3 416, 271.2 416, 262.7L416, 80C416, 71.2 408.8, 64 400, 64zM368, 256L336, 288L336, 464L80, 464L80, 288L48, 256L48, 112L368, 112L368, 256zM144, 416L272, 416C280.8, 416 288, 408.8 288, 400L288, 176C288, 167.2 280.8, 160 272, 160L144, 160C135.2, 160 128, 167.2 128, 176L128, 400C128, 408.8 135.2, 416 144, 416zM256, 8C256, 3.6 252.4, 0 248, 0L200, 0C195.6, 0 192, 3.6 192, 8L192, 32L256, 32L256, 8zM320, 8C320, 3.6 316.4, 0 312, 0L296, 0C291.6, 0 288, 3.6 288, 8L288, 32L320, 32L320, 8zM568, 0L520, 0C515.6, 0 512, 3.6 512, 8L512, 280C512, 284.4 515.6, 288 520, 288L568, 288C572.4, 288 576, 284.4 576, 280L576, 8C576, 3.6 572.4, 0 568, 0zM472, 0L456, 0C451.6, 0 448, 3.6 448, 8L448, 280C448, 284.4 451.6, 288 456, 288L472, 288C476.4, 288 480, 284.4 480, 280L480, 8C480, 3.6 476.4, 0 472, 0zM408, 0L360, 0C355.6, 0 352, 3.6 352, 8L352, 32L416, 32L416, 8C416, 3.6 412.4, 0 408, 0z" fill="#727272" fill-opacity="1" class="Black" />
  </g>
</svg>