<?xml version='1.0' encoding='UTF-8'?>
<svg viewBox="-2 -4.8005 32 32" xmlns="http://www.w3.org/2000/svg">
  <g transform="matrix(1.0011, 0, 0, 1.0011, 0, 0)">
    <g transform="matrix(0.0437, 0, 0, 0.0437, 0, 0)">
      <path d="M632, 64L456, 64C451.6, 64 448, 67.6 448, 72L448, 120C448, 124.4 451.6, 128 456, 128L632, 128C636.4, 128 640, 124.4 640, 120L640, 72C640, 67.6 636.4, 64 632, 64zM632, 0L456, 0C451.6, 0 448, 3.6 448, 8L448, 24C448, 28.4 451.6, 32 456, 32L632, 32C636.4, 32 640, 28.4 640, 24L640, 8C640, 3.6 636.4, 0 632, 0zM632, 160L456, 160C451.6, 160 448, 163.6 448, 168L448, 216C448, 220.4 451.6, 224 456, 224L632, 224C636.4, 224 640, 220.4 640, 216L640, 168C640, 163.6 636.4, 160 632, 160zM632, 352L456, 352C451.6, 352 448, 355.6 448, 360L448, 376C448, 380.4 451.6, 384 456, 384L632, 384C636.4, 384 640, 380.4 640, 376L640, 360C640, 355.6 636.4, 352 632, 352zM632, 288L456, 288C451.6, 288 448, 291.6 448, 296L448, 312C448, 316.4 451.6, 320 456, 320L632, 320C636.4, 320 640, 316.4 640, 312L640, 296C640, 291.6 636.4, 288 632, 288zM368, 64L112, 64C50.1, 64 0, 114.1 0, 176C0, 226.3 33.3, 268.3 78.9, 282.5L6.4, 408C-6.9, 431 1, 460.3 24, 473.6L79.4, 505.6C87, 510 95.2, 512 103.4, 512C120, 512 136.1, 503.4 145, 488L205, 384L272, 384C298.5, 384 320, 362.5 320, 336L320, 288L368, 288C376.8, 288 384, 280.8 384, 272L384, 80C384, 71.2 376.8, 64 368, 64zM103.4, 464L48, 432L131.1, 288L205, 288L103.4, 464zM288, 336C288, 344.8 280.8, 352 272, 352L223.5, 352L260.4, 288L288, 288L288, 336zM336, 240L112, 240C76.7, 240 48, 211.3 48, 176C48, 140.7 76.7, 112 112, 112L336, 112L336, 240zM632, 448L456, 448C451.6, 448 448, 451.6 448, 456L448, 504C448, 508.4 451.6, 512 456, 512L632, 512C636.4, 512 640, 508.4 640, 504L640, 456C640, 451.6 636.4, 448 632, 448z" fill="#727272" fill-opacity="1" class="Black" />
    </g>
  </g>
</svg>