<?xml version='1.0' encoding='UTF-8'?>
<svg viewBox="-2 -4.7992 32 32" xmlns="http://www.w3.org/2000/svg">
  <g transform="matrix(0.9988, 0, 0, 0.9988, 0, 0)">
    <g transform="matrix(0.0438, 0, 0, 0.0438, 0, 0)">
      <path d="M168, 408L200, 408A8 8 0 0 0 208, 400L208, 368A8 8 0 0 0 200, 360L168, 360A8 8 0 0 0 160, 368L160, 400A8 8 0 0 0 168, 408zM88, 408L120, 408A8 8 0 0 0 128, 400L128, 368A8 8 0 0 0 120, 360L88, 360A8 8 0 0 0 80, 368L80, 400A8 8 0 0 0 88, 408zM638.89, 288C636.2, 267 622.38, 248.81 601.89, 241.89L26.25, 32.85A15.75 15.75 0 0 0 21.13, 32A16 16 0 0 0 6, 42.88L0.85, 58.07A16 16 0 0 0 10.85, 78.35L586.55, 287.41C586.89, 287.52 587.05, 287.85 587.36, 288L48, 288A48 48 0 0 0 0, 336L0, 432A48 48 0 0 0 48, 480L592, 480A48 48 0 0 0 640, 432L640, 288zM592, 432L48, 432L48, 336L592, 336z" fill="#727272" fill-opacity="1" class="Black" />
    </g>
  </g>
</svg>