<?xml version='1.0' encoding='UTF-8'?>
<svg viewBox="-2 -1.9975 32 32" xmlns="http://www.w3.org/2000/svg">
  <g transform="matrix(0.0547, 0, 0, 0.0547, 0, 0)">
    <path d="M509.7, 395.7L440.9, 327.1L366.6, 252.9L390.7, 228.2C439.3, 174.5 403.7, 114.9 402.2, 112.4L358.6, 39.3C354.3, 32.1 348.7, 26 341.8, 21.3C296, -9.3 209.4, -4.9 170.3, 21.5C163.4, 26.2 157.8, 32.3 153.5, 39.5L109.9, 112.6C108.4, 115.1 72.8, 174.7 121.4, 228.4L145.5, 253.1L71.2, 327.3L2.3, 395.7C-0.8, 398.8 -0.8, 403.9 2.3, 407L13.6, 418.3C16.7, 421.4 21.8, 421.4 24.9, 418.3L93.7, 349.7L116.3, 372.3L47.5, 440.9C44.4, 444 44.4, 449.1 47.5, 452.2L58.8, 463.5C61.9, 466.6 67, 466.6 70.1, 463.5L138.9, 394.9L161.4, 417.4L92.7, 487.1C89.6, 490.2 89.6, 495.3 92.7, 498.4L104, 509.7C107.1, 512.8 112.2, 512.8 115.3, 509.7L256, 365.9L396.5, 509.6C399.6, 512.7 404.7, 512.7 407.8, 509.6L419.1, 498.3C422.2, 495.2 422.2, 490.1 419.1, 487L350.4, 417.3L372.9, 394.8L441.7, 463.4C444.8, 466.5 449.9, 466.5 453, 463.4L464.3, 452.1C467.4, 449 467.4, 443.9 464.3, 440.8L395.5, 372.2L418.1, 349.6L486.9, 418.2C490, 421.3 495.1, 421.3 498.2, 418.2L509.5, 406.9C512.8, 403.9 512.8, 398.9 509.7, 395.7zM361, 137.1C365.3, 144.5 377.6, 170.5 355.6, 195.4L332.5, 219L289.8, 176.2L349, 117L361, 137.1zM194.7, 64.1C207.3, 43.1 304.9, 43.1 317.4, 64L323.7, 74.5L256, 142.3L188.4, 74.5L194.7, 64.1zM221.7, 332.4L183.5, 371.5L139.1, 327.2L179.1, 287.3L222.5, 331.6L221.7, 332.4zM328.5, 371.4L156.4, 195.4C134.4, 170.5 146.7, 144.5 151.1, 137L163.1, 116.9L372.9, 327L328.5, 371.4z" fill="#727272" fill-opacity="1" class="Black" />
  </g>
</svg>