<?xml version='1.0' encoding='UTF-8'?>
<svg viewBox="-1.9999 -4.7991 32 31.9975" xmlns="http://www.w3.org/2000/svg">
  <g transform="matrix(1.0011, 0, 0, 1.0011, 0, 0)">
    <g transform="matrix(0.0437, 0, 0, 0.0437, 0, 0)">
      <path d="M368, 352L272, 352C263.16, 352 256, 359.16 256, 368L256, 496C256, 504.84 263.16, 512 272, 512L368, 512C376.84, 512 384, 504.84 384, 496L384, 368C384, 359.16 376.84, 352 368, 352zM320, 120C271.4, 120 232, 159.4 232, 208C232, 256.6 271.4, 296 320, 296C368.6, 296 408, 256.6 408, 208C408, 159.4 368.6, 120 320, 120zM368, 232C368, 236.42 364.42, 240 360, 240L312, 240C307.58, 240 304, 236.42 304, 232L304, 168C304, 163.58 307.58, 160 312, 160L328, 160C332.42, 160 336, 163.58 336, 168L336, 208L360, 208C364.42, 208 368, 211.58 368, 216L368, 232zM608, 192L512, 192L512, 138.67C512, 127.97 506.65, 117.98 497.75, 112.05L337.75, 5.38A31.9 31.9 0 0 0 320, 0A31.97 31.97 0 0 0 302.25, 5.37L142.25, 112.04A32.015 32.015 0 0 0 128, 138.66L128, 192L32, 192C14.33, 192 0, 206.33 0, 224L0, 496C0, 504.84 7.16, 512 16, 512L32, 512C40.84, 512 48, 504.84 48, 496L48, 240L128, 240L128, 512L176, 512L176, 147.23L320, 51.23L464, 147.23L464, 512L512, 512L512, 240L592, 240L592, 496C592, 504.84 599.16, 512 608, 512L624, 512C632.84, 512 640, 504.84 640, 496L640, 224C640, 206.33 625.67, 192 608, 192z" fill="#727272" fill-opacity="1" class="Black" />
    </g>
  </g>
</svg>