<?xml version='1.0' encoding='UTF-8'?>
<svg viewBox="-1.9988 -2 32 32" xmlns="http://www.w3.org/2000/svg">
  <g transform="matrix(0.0547, 0, 0, 0.0547, 0, 0)">
    <path d="M400, 224L512, 74.67L437.33, 0L288, 112L288, 190.06L212.15, 265.91C167.27, 242.12 129.47, 266.33 115.74, 280.07L12.03, 383.77C-4.01, 399.82 -4.01, 425.83 12.03, 441.88L70.12, 499.97C78.15, 507.99 88.66, 512 99.18, 512C109.69, 512 120.21, 507.99 128.23, 499.97L231.94, 396.26C258.08, 370.12 262.55, 330.89 246.1, 299.85L321.94, 224L400, 224zM336, 136L432.83, 63.38L448.62, 79.17L376, 176L336, 176L336, 136zM197.99, 362.32L99.17, 461.14L50.86, 412.83L149.68, 314.01C163.02, 300.67 184.63, 300.65 197.99, 314.01C211.31, 327.33 211.31, 349 197.99, 362.32z" fill="#727272" fill-opacity="1" class="Black" />
  </g>
</svg>