<?xml version='1.0' encoding='UTF-8'?>
<svg viewBox="-2 -4.7992 32 32" xmlns="http://www.w3.org/2000/svg">
  <g transform="matrix(0.9988, 0, 0, 0.9988, 0, 0)">
    <g transform="matrix(0.0438, 0, 0, 0.0438, 0, 0)">
      <path d="M608, 336L544, 336L544, 270.06L529.94, 256L544, 241.94L544, 142.06L529.94, 128L544, 113.94L544, 88C544, 39.48 504.53, 0 456, 0L80, 0C35.88, 0 0, 35.89 0, 80L0, 144C0, 161.64 14.34, 176 32, 176L112, 176L112, 241.94L126.06, 256L112, 270.06L112, 403.44C112, 458.88 153.69, 508.9 210.66, 511.74L522.66, 512C587.38, 512 640, 459.36 640, 394.67L640, 368C640, 350.36 625.66, 336 608, 336zM48, 128L48, 80C48, 62.36 62.34, 48 80, 48C97.66, 48 112, 62.36 112, 80L112, 128L48, 128zM160, 403.44L160, 289.94L193.94, 256L160, 222.06L160, 80C160, 68.62 157.62, 57.8 153.31, 48L456, 48C478.06, 48 496, 65.94 496, 88L496, 94.06L462.06, 128L496, 161.94L496, 222.06L462.06, 256L496, 289.94L496, 336L430.06, 336L416, 350.06L401.94, 336L304, 336C286.34, 336 272, 350.36 272, 368L272, 408C272, 423.78 265.28, 438.92 253.56, 449.53C241.68, 460.26 226.31, 465.2 210.15, 463.72C182.03, 460.89 160, 434.42 160, 403.44zM592, 394.67C592, 432.9 560.91, 464 522.66, 464L303.11, 464C313.78, 447.38 320, 428.08 320, 408L320, 384L382.06, 384L416, 417.94L449.94, 384L592, 384L592, 394.67z" fill="#727272" fill-opacity="1" class="Black" />
    </g>
  </g>
</svg>