<?xml version='1.0' encoding='UTF-8'?>
<svg viewBox="-1.9999 -4.8014 31.9975 32" xmlns="http://www.w3.org/2000/svg">
  <g transform="matrix(1.001, 0, 0, 1.001, 0, 0)">
    <g transform="matrix(0.0437, 0, 0, 0.0437, 0, 0)">
      <path d="M608, 0L338.84, 0C192, 0 64, 64 0, 224L552.09, 224L538.81, 288L400, 288A16 16 0 0 0 384, 304L384, 320A16 16 0 0 0 400, 336L528.86, 336L496.28, 493.05A16 16 0 0 0 512, 512L527.45, 512A16 16 0 0 0 543.17, 499L639.44, 38A32 32 0 0 0 608, 0zM78.62, 176C134.84, 91 222.06, 48 338.84, 48L588.59, 48L562, 176z" fill="#727272" fill-opacity="1" class="Black" />
    </g>
  </g>
</svg>