<?xml version='1.0' encoding='UTF-8'?>
<svg viewBox="-2 -2 32 32" xmlns="http://www.w3.org/2000/svg">
  <g transform="matrix(0.0547, 0, 0, 0.0547, 0, 0)">
    <path d="M312, 196L312, 220C312, 226.6 306.6, 232 300, 232L232, 232L232, 300C232, 306.6 226.6, 312 220, 312L196, 312C189.4, 312 184, 306.6 184, 300L184, 232L116, 232C109.4, 232 104, 226.6 104, 220L104, 196C104, 189.4 109.4, 184 116, 184L184, 184L184, 116C184, 109.4 189.4, 104 196, 104L220, 104C226.6, 104 232, 109.4 232, 116L232, 184L300, 184C306.6, 184 312, 189.4 312, 196zM508.5, 485.9L485.9, 508.5C481.2, 513.2 473.6, 513.2 468.9, 508.5L347.5, 387.1C345.2, 384.8 344, 381.8 344, 378.6L344, 365.4C307.5, 396.9 260, 416 208, 416C93.1, 416 0, 322.9 0, 208C0, 93.1 93.1, 0 208, 0C322.9, 0 416, 93.1 416, 208C416, 260 396.9, 307.5 365.4, 344L378.6, 344C381.8, 344 384.8, 345.3 387.1, 347.5L508.5, 468.9C513.2, 473.6 513.2, 481.2 508.5, 485.9zM368, 208C368, 119.6 296.4, 48 208, 48C119.6, 48 48, 119.6 48, 208C48, 296.4 119.6, 368 208, 368C296.4, 368 368, 296.4 368, 208z" fill="#727272" fill-opacity="1" class="Black" />
  </g>
</svg>