<?xml version='1.0' encoding='UTF-8'?>
<svg viewBox="-1.9998 -2.0011 31.9975 32" xmlns="http://www.w3.org/2000/svg">
  <g transform="matrix(0.0547, 0, 0, 0.0547, 0, 0)">
    <path d="M208, 112C167.22, 112 134.17, 145.05 134.17, 185.83C134.17, 218.79 182.42, 278.88 200.91, 300.69A9.24 9.24 0 0 0 215.09, 300.69C233.58, 278.88 281.83, 218.8 281.83, 185.83C281.83, 145.05 248.78, 112 208, 112zM208, 208C194.75, 208 184, 197.25 184, 184C184, 170.74 194.75, 160 208, 160C221.25, 160 232, 170.74 232, 184C232, 197.25 221.25, 208 208, 208zM508.47, 468.88L387.08, 347.48C384.78, 345.18 381.78, 343.98 378.58, 343.98L365.38, 343.98C396.88, 307.48 415.98, 259.98 415.98, 207.99C415.98, 93.1 322.88, 0 207.99, 0C93.1, 0 0, 93.1 0, 207.99C0, 322.88 93.1, 415.98 207.99, 415.98C259.99, 415.98 307.48, 396.88 343.98, 365.38L343.98, 378.58C343.98, 381.78 345.28, 384.78 347.48, 387.08L468.87, 508.47C473.57, 513.17 481.17, 513.17 485.87, 508.47L508.47, 485.87C513.18, 481.18 513.18, 473.58 508.47, 468.88zM207.99, 367.98C119.59, 367.98 48, 296.38 48, 207.99C48, 119.59 119.59, 48 207.99, 48C296.38, 48 367.98, 119.6 367.98, 207.99C367.98, 296.39 296.38, 367.98 207.99, 367.98z" fill="#727272" fill-opacity="1" class="Black" />
  </g>
</svg>