<?xml version='1.0' encoding='UTF-8'?>
<svg viewBox="-1.9998 -2.0011 31.9975 32" xmlns="http://www.w3.org/2000/svg">
  <g transform="matrix(0.0547, 0, 0, 0.0547, 0, 0)">
    <path d="M235.09, 199.42L190.09, 185.92C184.93, 184.37 181.32, 179.14 181.32, 173.19C181.32, 165.92 186.62, 160 193.12, 160L221.23, 160C225.79, 160 230.19, 161.29 234.05, 163.72C237.29, 165.75 241.41, 165.63 244.18, 162.99L255.93, 151.78C259.46, 148.41 259.26, 142.57 255.36, 139.64C246.26, 132.81 235.28, 128.87 223.99, 128.29L223.99, 112C223.99, 107.58 220.41, 104 215.99, 104L199.99, 104C195.57, 104 191.99, 107.58 191.99, 112L191.99, 128.12C168.37, 128.75 149.32, 148.67 149.32, 173.19C149.32, 193.16 162.3, 211 180.9, 216.58L225.9, 230.08C231.06, 231.63 234.67, 236.86 234.67, 242.81C234.67, 250.08 229.37, 256 222.87, 256L194.76, 256C190.2, 256 185.8, 254.71 181.94, 252.28C178.7, 250.25 174.58, 250.37 171.81, 253.01L160.06, 264.22C156.53, 267.59 156.73, 273.43 160.63, 276.36C169.73, 283.19 180.71, 287.13 192, 287.71L192, 304C192, 308.42 195.58, 312 200, 312L216, 312C220.42, 312 224, 308.42 224, 304L224, 287.88C247.62, 287.25 266.67, 267.34 266.67, 242.81C266.67, 222.84 253.69, 205 235.09, 199.42zM508.47, 468.88L387.08, 347.48C384.78, 345.18 381.78, 343.98 378.58, 343.98L365.38, 343.98C396.88, 307.48 415.98, 259.98 415.98, 207.99C415.98, 93.1 322.88, 0 207.99, 0C93.1, 0 0, 93.1 0, 207.99C0, 322.88 93.1, 415.98 207.99, 415.98C259.99, 415.98 307.48, 396.88 343.98, 365.38L343.98, 378.58C343.98, 381.78 345.28, 384.78 347.48, 387.08L468.87, 508.47C473.57, 513.17 481.17, 513.17 485.87, 508.47L508.47, 485.87C513.18, 481.18 513.18, 473.58 508.47, 468.88zM207.99, 367.98C119.59, 367.98 48, 296.38 48, 207.99C48, 119.59 119.59, 48 207.99, 48C296.38, 48 367.98, 119.6 367.98, 207.99C367.98, 296.39 296.38, 367.98 207.99, 367.98z" fill="#727272" fill-opacity="1" class="Black" />
  </g>
</svg>