<?xml version='1.0' encoding='UTF-8'?>
<svg viewBox="-2 -1.9988 32 32" xmlns="http://www.w3.org/2000/svg">
  <g transform="matrix(0.0547, 0, 0, 0.0547, 0, 0)">
    <path d="M436.4, 32C345.4, 32 268.1, 99.9 241.7, 193.4C204.6, 134.6 144, 96 75.6, 96L0, 96L0, 120C0, 247.9 91.7, 352 204.4, 352L232, 352L232, 464C232, 472.8 239.2, 480 248, 480L264, 480C272.8, 480 280, 472.8 280, 464L280, 288L307.6, 288C420.3, 288 512, 183.9 512, 56L512, 32L436.4, 32zM204.4, 304C125.1, 304 59.3, 234.2 49.3, 144L75.5, 144C154.8, 144 220.6, 213.8 230.6, 304L204.4, 304zM307.6, 240L281.4, 240C291.4, 149.8 357.2, 80 436.5, 80L462.7, 80C452.7, 170.2 386.9, 240 307.6, 240z" fill="#727272" fill-opacity="1" class="Black" />
  </g>
</svg>