<?xml version='1.0' encoding='UTF-8'?>
<svg viewBox="-2 -2 32 32" xmlns="http://www.w3.org/2000/svg">
  <g transform="matrix(0.0547, 0, 0, 0.0547, 0, 0)">
    <path d="M48, 48L304, 48L304, 128L352, 128L352, 48A48 48 0 0 0 304, 0L48, 0A48 48 0 0 0 0, 48L0, 304A48 48 0 0 0 48, 352L128, 352L128, 304L48, 304zM256, 432L416, 432A16 16 0 0 0 432, 416L432, 256A16 16 0 0 0 416, 240L256, 240A16 16 0 0 0 240, 256L240, 416A16 16 0 0 0 256, 432zM288, 288L384, 288L384, 384L288, 384zM464, 160L208, 160A48 48 0 0 0 160, 208L160, 464A48 48 0 0 0 208, 512L464, 512A48 48 0 0 0 512, 464L512, 208A48 48 0 0 0 464, 160zM464, 464L208, 464L208, 208L464, 208z" fill="#727272" fill-opacity="1" class="Black" />
  </g>
</svg>