<?xml version='1.0' encoding='UTF-8'?>
<svg viewBox="-2 -1.9988 32 32" xmlns="http://www.w3.org/2000/svg">
  <g transform="matrix(0.0547, 0, 0, 0.0547, 0, 0)">
    <path d="M424, 400C424, 413.255 413.255, 424 400, 424C386.745, 424 376, 413.255 376, 400C376, 386.745 386.745, 376 400, 376C413.255, 376 424, 386.745 424, 400zM336, 376C322.745, 376 312, 386.745 312, 400C312, 413.255 322.745, 424 336, 424C349.255, 424 360, 413.255 360, 400C360, 386.745 349.255, 376 336, 376zM400, 232C386.745, 232 376, 242.745 376, 256C376, 269.255 386.745, 280 400, 280C413.255, 280 424, 269.255 424, 256C424, 242.745 413.255, 232 400, 232zM336, 232C322.745, 232 312, 242.745 312, 256C312, 269.255 322.745, 280 336, 280C349.255, 280 360, 269.255 360, 256C360, 242.745 349.255, 232 336, 232zM512, 160A47.758 47.758 0 0 1 505.562, 184A47.758 47.758 0 0 1 512, 208L512, 304A47.758 47.758 0 0 1 505.562, 328A47.758 47.758 0 0 1 512, 352L512, 448C512, 474.51 490.51, 496 464, 496L48, 496C21.49, 496 0, 474.51 0, 448L0, 352A47.758 47.758 0 0 1 6.438, 328A47.758 47.758 0 0 1 0, 304L0, 208A47.758 47.758 0 0 1 6.438, 184A47.758 47.758 0 0 1 0, 160L0, 64C0, 37.49 21.49, 16 48, 16L464, 16C490.51, 16 512, 37.49 512, 64L512, 160zM48, 160L464, 160L464, 64L48, 64L48, 160zM464, 208L48, 208L48, 304L464, 304L464, 208zM464, 352L48, 352L48, 448L464, 448L464, 352zM400, 136C413.255, 136 424, 125.255 424, 112C424, 98.745 413.255, 88 400, 88C386.745, 88 376, 98.745 376, 112C376, 125.255 386.745, 136 400, 136zM336, 136C349.255, 136 360, 125.255 360, 112C360, 98.745 349.255, 88 336, 88C322.745, 88 312, 98.745 312, 112C312, 125.255 322.745, 136 336, 136z" fill="#727272" fill-opacity="1" class="Black" />
  </g>
</svg>