<?xml version='1.0' encoding='UTF-8'?>
<svg viewBox="-2 -3.5565 32 32" xmlns="http://www.w3.org/2000/svg">
  <g transform="matrix(0.0486, 0, 0, 0.0486, 0, 0)">
    <path d="M561.938, 190.06L385.94, 14.107C355.79, -16.043 304, 5.327 304, 48.047L304, 128.75C166.04, 132.9 0, 159.68 0, 330.05C0, 403.8 38.02, 464.769 97.63, 503.999C134.75, 528.429 183.47, 493.099 169.82, 449.539C145.47, 371.859 157.41, 330.2 304, 321.66L304, 399.94C304, 442.58 355.73, 464.09 385.94, 433.88L561.937, 257.94C580.688, 239.2 580.688, 208.8 561.938, 190.06zM352, 400L352, 272.09C187.479, 273.88 74.56, 305.911 124.02, 463.7C88, 440 48, 397.01 48, 330.05C48, 187.808 208.819, 176.66 352, 176.03L352, 48L528, 224L352, 400z" fill="#727272" fill-opacity="1" class="Black" />
  </g>
</svg>