<?xml version='1.0' encoding='UTF-8'?>
<svg viewBox="-3.7495 -2 32 32" xmlns="http://www.w3.org/2000/svg">
  <g transform="matrix(0.0547, 0, 0, 0.0547, 0, 0)">
    <path d="M352, 320C326.4, 320 303.1, 330 285.9, 346.4L187.6, 284.9C193.5, 266.1 193.5, 245.8 187.6, 227.1L285.9, 165.6C303.1, 182 326.4, 192 352, 192C405, 192 448, 149 448, 96C448, 43 405, 0 352, 0C299, 0 256, 43 256, 96C256, 105.8 257.5, 115.6 260.4, 124.9L162.1, 186.4C144.9, 170 121.6, 160 96, 160C43, 160 0, 203 0, 256C0, 309 43, 352 96, 352C121.6, 352 144.9, 342 162.1, 325.6L260.4, 387.1C257.5, 396.5 256, 406.2 256, 416C256, 469 299, 512 352, 512C405, 512 448, 469 448, 416C448, 363 405, 320 352, 320zM352, 48C378.5, 48 400, 69.5 400, 96C400, 122.5 378.5, 144 352, 144C325.5, 144 304, 122.5 304, 96C304, 69.5 325.5, 48 352, 48zM96, 304C69.5, 304 48, 282.5 48, 256C48, 229.5 69.5, 208 96, 208C122.5, 208 144, 229.5 144, 256C144, 282.5 122.5, 304 96, 304zM352, 464C325.5, 464 304, 442.5 304, 416C304, 389.5 325.5, 368 352, 368C378.5, 368 400, 389.5 400, 416C400, 442.5 378.5, 464 352, 464z" fill="#727272" fill-opacity="1" class="Black" />
  </g>
</svg>