<?xml version='1.0' encoding='UTF-8'?>
<svg viewBox="-2 -4.8005 32 32" xmlns="http://www.w3.org/2000/svg">
  <g transform="matrix(1.0011, 0, 0, 1.0011, 0, 0)">
    <g transform="matrix(0.0437, 0, 0, 0.0437, 0, 0)">
      <path d="M497.94, 206.06L337.94, 46.1C307.89, 16.04 256, 37.16 256, 80.04L256, 152.77C127.16, 157.36 0, 185.98 0, 328.38C0, 392.16 27.85, 436.79 78.46, 471.49C115.35, 496.77 164.73, 461.81 151.56, 418.06C134.05, 359.88 137.82, 333.83 256, 328.89L256, 399.97C256, 442.89 307.92, 463.93 337.94, 433.91L497.94, 273.94C516.69, 255.2 516.69, 224.8 497.94, 206.06zM304, 400L304, 280C166.429, 280 64.598, 295.753 105.6, 432C76.79, 412.25 48, 384.18 48, 328.38C48, 206.513 183.384, 200 304, 200L304, 80L464, 240L304, 400zM625.941, 273.941L465.941, 433.908C445.571, 454.278 415.124, 451.133 397.65, 433.602L592, 240L397.652, 46.407C415.12, 28.877 445.552, 25.708 465.942, 46.097L625.942, 206.059C644.686, 224.804 644.686, 255.196 625.941, 273.941z" fill="#727272" fill-opacity="1" class="Black" />
    </g>
  </g>
</svg>