<?xml version='1.0' encoding='UTF-8'?>
<svg viewBox="-2 0 32 32" xmlns="http://www.w3.org/2000/svg">
  <g transform="matrix(0.0625, 0, 0, 0.0625, 0, 0)">
    <path d="M400, 32L48, 32C21.49, 32 0, 53.49 0, 80L0, 432C0, 458.51 21.49, 480 48, 480L400, 480C426.51, 480 448, 458.51 448, 432L448, 80C448, 53.49 426.51, 32 400, 32zM394, 432L54, 432A6 6 0 0 1 48, 426L48, 86A6 6 0 0 1 54, 80L394, 80A6 6 0 0 1 400, 86L400, 426A6 6 0 0 1 394, 432zM336, 336C336, 362.51 314.51, 384 288, 384C261.49, 384 240, 362.51 240, 336C240, 333.993 240.138, 332.019 240.377, 330.077L171.246, 295.512A47.768 47.768 0 0 1 144, 304C117.49, 304 96, 282.51 96, 256C96, 229.49 117.49, 208 144, 208A47.762 47.762 0 0 1 171.246, 216.489L240.377, 181.924A48.461 48.461 0 0 1 240, 176C240, 149.49 261.49, 128 288, 128C314.51, 128 336, 149.49 336, 176C336, 202.51 314.51, 224 288, 224C275.059, 224 263.323, 218.869 254.69, 210.543L190.15, 242.813A47.935 47.935 0 0 1 190.15, 269.187L254.69, 301.457C263.323, 293.13 275.059, 288 288, 288C314.51, 288 336, 309.49 336, 336z" fill="#727272" fill-opacity="1" class="Black" />
  </g>
</svg>