<?xml version='1.0' encoding='UTF-8'?>
<svg viewBox="-2 -4.8005 32 32" xmlns="http://www.w3.org/2000/svg">
  <g transform="matrix(1.0011, 0, 0, 1.0011, 0, 0)">
    <g transform="matrix(0.0437, 0, 0, 0.0437, 0, 0)">
      <path d="M496, 96C487.16, 96 480, 103.16 480, 112C480, 120.84 487.16, 128 496, 128C504.84, 128 512, 120.84 512, 112C512, 103.16 504.84, 96 496, 96zM609.81, 100.92L584, 85.56L584, 80C584, 49.13 558.88, 24 528, 24L446.38, 24C442.76, 10.3 430.84, 0 416, 0C398.33, 0 384, 14.33 384, 32L384, 99.04C371.61, 97.33 359.17, 98.95 347.81, 104.05C330.7, 94.6 307.04, 92.49 286, 103.05C267.59, 93.85 244.81, 93.85 226.41, 102.99C207.57, 93.52 183.5, 93.91 164.94, 103.99C152, 98.1 137.38, 96.47 122.63, 99.62C104.75, 103.64 89.51, 114.73 79.94, 129.96C62.35, 132.04 45.88, 141.12 34.28, 155.79C23.03, 170.36 18.06, 188.73 20, 206.67C7.38, 219.45 0, 237.01 0, 255.69C0, 274.37 7.25, 291.88 19.69, 304.61C17.63, 322.78 22.63, 341.23 33.97, 355.55C45.25, 370.22 61.63, 379.36 79.22, 381.46C83.99, 389.17 90.18, 395.82 97.39, 401.03L118.18, 487.49C121.64, 501.87 134.5, 512.01 149.29, 512.01L223.99, 512.01C244.85, 512.01 260.13, 492.37 255.01, 472.15L240.34, 414.24A66.566 66.566 0 0 0 255.57, 416.01C266.07, 416.01 276.29, 413.56 285.51, 408.92C291.15, 411.67 297.47, 413.37 304.03, 414.49L304.03, 480C304.03, 497.67 318.36, 512 336.03, 512L416.03, 512C433.7, 512 448.03, 497.67 448.03, 480L448.03, 377.86C459.39, 373.52 469.75, 366.3 477.73, 356.22C488.98, 341.64 493.95, 323.27 492.01, 305.33C504.63, 292.55 512.01, 274.99 512.01, 256.31C512.01, 247.83 510.33, 239.66 507.54, 232L575.67, 232C593.42, 232 609.98, 222.44 618.89, 206.95C637.83, 173.75 640.01, 158.81 640.01, 150.47C640, 129.41 628.47, 110.53 609.81, 100.92zM161.89, 464L149.48, 412.39C154.5, 411.41 159.45, 410.06 164.18, 407.93C172.37, 412.39 181.66, 414.65 191.09, 415.33L203.42, 464L161.89, 464zM400.02, 464L352.02, 464L352.02, 409.8C363.72, 414.03 376.42, 415.18 389.37, 412.39C393.07, 411.56 396.57, 410.25 400.02, 408.84L400.02, 464zM453.44, 274.97L435.1, 285.24L442.85, 304.77C449.05, 320.29 436.63, 336.82 421.07, 334.24L399.88, 330.47L393.85, 351.14C390.02, 364.28 373.71, 371.59 361.97, 361.06L344.81, 345.84L328.81, 362.28C322.25, 369.06 310.4, 370.57 301.93, 362.51L285.34, 346.73L268.81, 362.57C261.4, 369.59 249.75, 369.63 242.81, 362.8L226.22, 346.43L209.38, 362.57C200.82, 370.8 187, 366.85 182.69, 362.32L167, 346.09L149.84, 360.73C138.63, 370.23 121.86, 365.6 117.65, 350.68L111.71, 329.77L90.3, 333.6C75.71, 336.24 62.43, 320.23 68.83, 304.12L76.58, 284.6L58.24, 274.33C44.82, 266.77 44.27, 245.05 58.55, 237.02L76.89, 226.75L69.14, 207.22C62.91, 191.61 75.6, 175 90.92, 177.75L112.11, 181.52L118.14, 160.85C122.01, 147.58 138.36, 140.52 150.02, 150.93L167.18, 166.13L183.15, 149.71C187.59, 145.21 201.43, 141.27 209.37, 149.13L225.96, 165.58L242.87, 149.42C250.15, 142.44 262.06, 142.34 269.46, 149.45L286.08, 165.29L302.64, 149.38C312.68, 139.68 324.51, 144.67 329.33, 149.66L344.99, 165.86L362.15, 151.24C374.3, 140.94 390.45, 147.52 394.34, 161.29L400.28, 182.2L421.69, 178.37C436.32, 175.68 449.53, 191.81 443.16, 207.85L435.41, 227.37L453.75, 237.64C467.17, 245.21 467.72, 266.93 453.44, 274.97zM575.66, 184L490.83, 184C488.61, 174.04 484.46, 164.56 478.04, 156.45C466.76, 141.78 450.38, 132.64 432.79, 130.54C432.56, 130.17 432.24, 129.88 432.01, 129.51L432.01, 72L528.01, 72C532.42, 72 536.01, 75.59 536.01, 80L536.01, 112.87L585.98, 142.59C595.64, 147.87 594.58, 153.08 575.66, 184z" fill="#727272" fill-opacity="1" class="Black" />
    </g>
  </g>
</svg>