<?xml version='1.0' encoding='UTF-8'?>
<svg viewBox="-3.7495 -2 32 32" xmlns="http://www.w3.org/2000/svg">
  <g transform="matrix(0.0547, 0, 0, 0.0547, 0, 0)">
    <path d="M420.43, 83.69L241.23, 3.69C235.72, 1.23 229.86, 0 224, 0C218.14, 0 212.28, 1.23 206.77, 3.69L27.57, 83.69C10.88, 91.14 0, 108.62 0, 128C0, 326.49 106.86, 463.71 206.77, 508.31C212.28, 510.77 218.14, 512 224, 512C229.86, 512 235.72, 510.77 241.23, 508.31C321.13, 472.64 448, 349.28 448, 128C448, 108.62 437.12, 91.14 420.43, 83.69zM398.33, 168L248, 168L248, 59.41L400, 128C400, 141.81 399.36, 155.08 398.33, 168zM200, 59.28L200, 168L49.17, 168C48.02, 154.81 47.21, 141.4 47.14, 127.52L200, 59.28zM55.76, 216L200, 216L200, 449.96C137.82, 410.28 77.53, 328.89 55.76, 216zM248, 449.75L248, 216L391.84, 216C368.77, 339.71 300.17, 415.42 248, 449.75z" fill="#727272" fill-opacity="1" class="Black" />
  </g>
</svg>