<?xml version='1.0' encoding='UTF-8'?>
<svg viewBox="-1.9962 -1.9975 32 32" xmlns="http://www.w3.org/2000/svg">
  <g transform="matrix(0.0547, 0, 0, 0.0547, 0, 0)">
    <path d="M237.5, 508.3C249.3, 513.2 262.6, 513.2 274.4, 508.3C360.1, 472.6 496, 349.3 496, 128C496, 108.6 484.3, 91.1 466.5, 83.7L274.5, 3.7A48.15 48.15 0 0 0 237.6, 3.7L45.6, 83.7C27.7, 91.1 16, 108.6 16, 128C16, 326.5 130.5, 463.7 237.5, 508.3zM256, 48L448, 128C448, 301.8 349.6, 425 256, 464C158.5, 423.4 64, 297.3 64, 128L256, 48z" fill="#727272" fill-opacity="1" class="Black" />
  </g>
</svg>