<?xml version='1.0' encoding='UTF-8'?>
<svg viewBox="-1.9998 -4.8002 31.9975 32" xmlns="http://www.w3.org/2000/svg">
  <g transform="matrix(0.9988, 0, 0, 0.9988, 0, 0)">
    <g transform="matrix(0.0438, 0, 0, 0.0438, 0, 0)">
      <path d="M484.843, 379.396L559.006, 316.643C587.364, 292.649 578.817, 246.796 543.702, 234.641L488, 215.359L488, 88C488, 74.745 477.255, 64 464, 64L416, 64L416, 24C416, 10.745 405.255, 0 392, 0L248, 0C234.745, 0 224, 10.745 224, 24L224, 64L176, 64C162.745, 64 152, 74.745 152, 88L152, 215.359L96.299, 234.64C61.196, 246.791 52.628, 292.64 80.995, 316.642L155.158, 379.395C131.794, 430.787 84.576, 464 12, 464C5.373, 464 0, 469.373 0, 476L0, 500C0, 506.627 5.373, 512 12, 512C73.682, 512 126.334, 494.985 169.164, 445.508C175.604, 483.207 208.493, 512 248, 512L392, 512C431.507, 512 464.396, 483.207 470.836, 445.508C513.949, 495.312 566.824, 512 628, 512C634.627, 512 640, 506.627 640, 500L640, 476C640, 469.373 634.627, 464 628, 464C556.02, 464 508.452, 431.328 484.843, 379.396zM264, 40L376, 40L376, 64L264, 64L264, 40zM200, 112L440, 112L440, 198.744L335.701, 162.641A48 48 0 0 0 304.298, 162.641L200, 198.744L200, 112zM424, 432C424, 449.673 409.673, 464 392, 464L248, 464C230.327, 464 216, 449.673 216, 432L216, 368L112, 280L320, 208L528, 280L424, 368L424, 432z" fill="#727272" fill-opacity="1" class="Black" />
    </g>
  </g>
</svg>