<?xml version='1.0' encoding='UTF-8'?>
<svg viewBox="-1.9998 -4.8002 31.9975 32" xmlns="http://www.w3.org/2000/svg">
  <g transform="matrix(0.9988, 0, 0, 0.9988, 0, 0)">
    <g transform="matrix(0.0438, 0, 0, 0.0438, 0, 0)">
      <path d="M491.42, 7.7C468.38, 2.4 444.87, 0 421.3, 0C412.15, 0 402.99, 0.36 393.84, 1.05C366.54, 3.12 339.74, 9.38 313.53, 17.17L256, 32L192, 32C156.65, 32 128, 64.98 128, 102.86C128, 140.73 156.65, 171.43 192, 171.43L256, 171.43C316.2, 171.43 335.94, 188.16 360.73, 205.72C389.3, 225.94 430.54, 240 465.46, 240C555.82, 240 640, 205.71 640, 137.14C640, 88.69 600.9, 32.89 491.42, 7.7zM240, 123.43L192, 123.43C183.33, 123.43 176, 114.01 176, 102.86C176, 90.2 184.75, 80 192, 80L240, 80L240, 123.43zM465.46, 192C441.3, 192 409.64, 181.53 388.47, 166.54L384.39, 163.63C363.43, 148.66 337.85, 130.8 288.01, 125.28L288.01, 73.32L325.52, 63.66L326.38, 63.44L327.23, 63.19C354.76, 55 377.08, 50.47 397.49, 48.92C405.43, 48.32 413.37, 48 421.32, 48C442.03, 48 462.01, 50.18 480.68, 54.48C562.75, 73.37 592, 109.57 592, 137.14C592, 171.48 527.66, 192 465.46, 192zM337.46, 272C302.55, 272 261.3, 286.06 232.73, 306.29C207.94, 323.84 188.21, 340.58 128, 340.58L64, 340.58C28.65, 340.58 0, 371.28 0, 409.15C0, 447.02 28.65, 480 64, 480L128, 480L185.53, 494.82C211.74, 502.61 238.54, 508.87 265.84, 510.94C274.98, 511.63 284.15, 511.99 293.3, 511.99C316.87, 511.99 340.39, 509.59 363.42, 504.29C472.9, 479.11 512, 423.3 512, 374.86C512, 306.29 427.82, 272 337.46, 272zM112, 432L64, 432C56.75, 432 48, 421.8 48, 409.14C48, 397.99 55.33, 388.57 64, 388.57L112, 388.57L112, 432zM352.66, 457.52C333.98, 461.82 314.01, 464 293.3, 464C285.36, 464 277.41, 463.68 269.47, 463.08C249.07, 461.53 226.74, 457 199.21, 448.81L198.36, 448.56L197.5, 448.34L160, 438.68L160, 386.71C209.84, 381.19 235.43, 363.34 256.38, 348.37L260.46, 345.46C281.64, 330.47 313.3, 320 337.46, 320C399.66, 320 464, 340.52 464, 374.86C464, 402.43 434.75, 438.63 352.66, 457.52z" fill="#727272" fill-opacity="1" class="Black" />
    </g>
  </g>
</svg>