<?xml version='1.0' encoding='UTF-8'?>
<svg viewBox="-3.7495 -2 32 32" xmlns="http://www.w3.org/2000/svg">
  <g transform="matrix(0.0547, 0, 0, 0.0547, 0, 0)">
    <path d="M352, 128C352, 57.42 294.579, 0 224, 0C153.42, 0 96, 57.42 96, 128L0, 128L0, 432C0, 476.183 35.817, 512 80, 512L368, 512C412.183, 512 448, 476.183 448, 432L448, 128L352, 128zM224, 48C268.112, 48 304, 83.888 304, 128L144, 128C144, 83.888 179.888, 48 224, 48zM400, 432C400, 449.645 385.645, 464 368, 464L80, 464C62.355, 464 48, 449.645 48, 432L48, 176L96, 176L96, 216C96, 229.255 106.745, 240 120, 240C133.255, 240 144, 229.255 144, 216L144, 176L304, 176L304, 216C304, 229.255 314.745, 240 328, 240C341.255, 240 352, 229.255 352, 216L352, 176L400, 176L400, 432z" fill="#727272" fill-opacity="1" class="Black" />
  </g>
</svg>