<?xml version='1.0' encoding='UTF-8'?>
<svg viewBox="-1.9975 -1.9975 31.9975 32" xmlns="http://www.w3.org/2000/svg">
  <g transform="matrix(0.0547, 0, 0, 0.0547, 0, 0)">
    <path d="M503.2, 72.3L439.7, 8.8C428, -2.9 409, -2.9 397.3, 8.8L372.8, 33.3C358.6, 47.5 350.9, 66.5 350.9, 86.2C350.9, 91.1 351.4, 96 352.4, 101C353.7, 107.5 356, 113.6 358.8, 119.4L262, 216.2L220.5, 174.7C210.8, 165 198, 160.1 185.2, 160.1C174.5, 160.1 163.7, 163.5 154.7, 170.5L19.4, 274.9C-4.4, 293.3 -6.7, 328.4 14.6, 349.7L162.3, 497.4C172.1, 507.2 184.9, 512 197.6, 512C212.4, 512 227.2, 505.4 237.1, 492.6L341.6, 357.4C357, 337.5 355.2, 309.3 337.4, 291.6L295.9, 250.1L392.7, 153.3C398.5, 156.1 404.6, 158.4 411.1, 159.7C435.7, 164.6 461, 157 478.7, 139.2L503.2, 114.7C514.9, 103 514.9, 84 503.2, 72.3zM303.4, 325.5C304.1, 326.2 304.2, 327.3 303.6, 328L199.1, 463.2C199, 463.4 198.8, 463.6 197.9, 463.6C197.5, 463.6 196.9, 463.5 196.2, 463.3L48.6, 315.8L48.8, 312.9L184, 208.4C184.2, 208.2 184.6, 208 185.2, 208L186.6, 208.6L303.4, 325.5zM444.8, 105.3C438.4, 111.7 429.3, 114.4 420.5, 112.6C409.8, 110.5 401.5, 102.2 399.4, 91.5C397.7, 82.6 400.4, 73.6 406.7, 67.2L418.5, 55.4L456.6, 93.5L444.8, 105.3zM153.7, 265.7L121.7, 297.7C112.3, 307.1 112.3, 322.3 121.7, 331.6C126.4, 336.3 132.5, 338.6 138.7, 338.6C144.9, 338.6 151, 336.3 155.7, 331.6L187.7, 299.6C197.1, 290.2 197.1, 275 187.7, 265.7C178.2, 256.3 163.1, 256.3 153.7, 265.7zM180.4, 390.3C185.1, 395 191.2, 397.3 197.4, 397.3C203.6, 397.3 209.7, 395 214.4, 390.3L246.4, 358.3C255.8, 348.9 255.8, 333.7 246.4, 324.4C237, 315.1 221.8, 315 212.5, 324.4L180.5, 356.4C171, 365.7 171, 380.9 180.4, 390.3z" fill="#727272" fill-opacity="1" class="Black" />
  </g>
</svg>