<?xml version='1.0' encoding='UTF-8'?>
<svg viewBox="-1.9963 -2 32 32" xmlns="http://www.w3.org/2000/svg">
  <g transform="matrix(0.0547, 0, 0, 0.0547, 0, 0)">
    <path d="M472, 192L432, 192L432, 120C432, 97.9 414.1, 80 392, 80L320, 80L320, 40C320, 17.9 302.1, 0 280, 0L245.1, 0C229.6, 0 215.3, 9.1 208.8, 23.1L95.5, 266.5L31.1, 331C-10.3, 372.4 -10.3, 439.6 31.1, 481C72.4, 522.3 139.5, 522.5 181.1, 481L245.6, 416.5L488.9, 303.2C503, 296.7 512.1, 282.4 512.1, 266.9L512.1, 232C512, 209.9 494.1, 192 472, 192zM384, 128L384, 190.4L292.8, 219.2L321.6, 128L384, 128zM85.1, 344.8L106, 323.9L188.1, 406L167.2, 426.9L85.1, 344.8zM250.2, 48L272, 48L272, 98.2L210, 134.2L250.2, 48zM261.1, 160L234.8, 243.1L164, 314L138.3, 288.3L174.6, 210.4L261.1, 160zM65, 447C43.2, 425.2 42.6, 390.4 62.8, 367.6L144.4, 449.2C120.6, 470.3 86.2, 468.2 65, 447zM223.7, 373.7L198, 347.9L268.8, 277.1L351.9, 250.8L301.6, 337.3L223.7, 373.7zM464, 261.8L377.8, 301.9L413.8, 240L464, 240L464, 261.8z" fill="#727272" fill-opacity="1" class="Black" />
  </g>
</svg>