<?xml version='1.0' encoding='UTF-8'?>
<svg viewBox="-4.3315 2.6685 32 31.9975" xmlns="http://www.w3.org/2000/svg">
  <g transform="matrix(0.0729, 0, 0, 0.0729, 0, 0)">
    <path d="M287.96, 448L42.36, 448A42.314 42.314 0 0 1 3.44, 422.38C-3.26, 406.8 0, 388.8 11.7, 376.52L126.63, 256L11.7, 135.48C0, 123.2 -3.26, 105.2 3.44, 89.62A42.325 42.325 0 0 1 42.36, 64L287.96, 64C305.65, 64 320, 78.33 320, 96L320, 144C320, 152.84 312.83, 160 303.98, 160L287.96, 160C279.11, 160 271.94, 152.84 271.94, 144L271.94, 112L55.66, 112L171.93, 233.94C183.72, 246.3 183.72, 265.72 171.93, 278.08L55.66, 400L271.94, 400L271.94, 368C271.94, 359.16 279.11, 352 287.96, 352L303.98, 352C312.83, 352 320, 359.16 320, 368L320, 416C320, 433.67 305.65, 448 287.96, 448z" fill="#727272" fill-opacity="1" class="Black" />
  </g>
</svg>