<?xml version='1.0' encoding='UTF-8'?>
<svg viewBox="-2 -1.9987 32 32" xmlns="http://www.w3.org/2000/svg">
  <g transform="matrix(0.0547, 0, 0, 0.0547, 0, 0)">
    <path d="M272, 112L272, 163.6L176, 163.6C149.5, 163.6 128, 185.1 128, 211.6L128, 300.2C128, 326.7 149.5, 348.2 176, 348.2L272, 348.2L272, 399.8C272, 442.4 323.7, 464 353.9, 433.7L497.9, 289.8C516.6, 271.1 516.6, 240.7 497.9, 221.9L353.9, 77.9C323.8, 48 272, 69.3 272, 112zM464, 256L320, 400L320, 300.3L176, 300.3L176, 211.7L320, 211.7L320, 112L464, 256zM96, 64L180, 64C186.6, 64 192, 69.4 192, 76L192, 100C192, 106.6 186.6, 112 180, 112L96, 112C69.5, 112 48, 133.5 48, 160L48, 352C48, 378.5 69.5, 400 96, 400L180, 400C186.6, 400 192, 405.4 192, 412L192, 436C192, 442.6 186.6, 448 180, 448L96, 448C43, 448 0, 405 0, 352L0, 160C0, 107 43, 64 96, 64z" fill="#727272" fill-opacity="1" class="Black" />
  </g>
</svg>