<?xml version='1.0' encoding='UTF-8'?>
<svg viewBox="-1.9924 -4.7991 31.995 32" xmlns="http://www.w3.org/2000/svg">
  <g transform="matrix(1.0011, 0, 0, 1.0011, 0, 0)">
    <g transform="matrix(0.0437, 0, 0, 0.0437, 0, 0)">
      <path d="M637.2, 199.8C636.3, 198.9 634.2, 197.3 631.5, 197.6C595.3, 200 546.9, 227.5 508.1, 249.5C492.1, 258.6 478.3, 266.4 467, 271.5C436.3, 285.5 409.9, 297.7 385.6, 297.7C375, 297.7 367.1, 294.7 361.8, 288.4C352.3, 277.4 352.5, 258.7 355.7, 234.1C359.4, 205.7 355.8, 183.6 346, 172.8C340, 166.3 331.5, 163.5 320.5, 164.2C292.7, 165.8 243.9, 203.2 151.8, 293.3L124.4, 320.2L181, 175.9C194.2, 142.4 185, 105.8 157.7, 82.8C135.9, 64.4 98.9, 53.6 60, 78.8L4, 117.1C0, 119.7 -1.1, 124.9 1.3, 128.7L18.9, 157C20.1, 158.9 21.9, 160.2 24.1, 160.7C26.2, 161.1 28.4, 160.8 30.3, 159.6L89.6, 119C95, 115.6 100.8, 113.9 106.6, 113.9C113.6, 113.9 120.5, 116.4 126.3, 121.3C136.9, 130.3 140.5, 144.4 135.4, 157.4L34.6, 413.6C31.7, 420.9 32.9, 430.9 37.6, 437.9C40.7, 442.5 46.6, 448 57.5, 448C64.1, 448 70.3, 445.4 74.9, 440.7C118.4, 396.5 233.4, 283.5 292.2, 235.7L307, 223.7L305.5, 242.9C303.4, 270.8 303, 300.1 324.5, 324.1C338.6, 339.8 359.2, 347.8 385.7, 347.8C420.5, 347.8 452.9, 332.9 487.3, 317.2C497.8, 312.4 512.3, 303.8 527.6, 294.7C562.8, 273.8 602.7, 250.2 632, 247.7C636.7, 247.3 640.1, 243.9 640.1, 239.5L640.1, 206C640, 203.7 639, 201.4 637.2, 199.8z" fill="#727272" fill-opacity="1" class="Black" />
    </g>
  </g>
</svg>