<?xml version='1.0' encoding='UTF-8'?>
<svg viewBox="-2 -2 32 32" xmlns="http://www.w3.org/2000/svg">
  <g transform="matrix(0.0547, 0, 0, 0.0547, 0, 0)">
    <path d="M144, 112L144, 163.6L48, 163.6C21.5, 163.6 0, 185.1 0, 211.6L0, 300.2C0, 326.7 21.5, 348.2 48, 348.2L144, 348.2L144, 399.8C144, 442.4 195.7, 464 225.9, 433.7L369.9, 289.8C388.6, 271.1 388.6, 240.7 369.9, 221.9L225.9, 77.9C195.8, 48 144, 69.3 144, 112zM336, 256L192, 400L192, 300.3L48, 300.3L48, 211.7L192, 211.7L192, 112L336, 256zM416, 448L332, 448C325.4, 448 320, 442.6 320, 436L320, 412C320, 405.4 325.4, 400 332, 400L416, 400C442.5, 400 464, 378.5 464, 352L464, 160C464, 133.5 442.5, 112 416, 112L332, 112C325.4, 112 320, 106.6 320, 100L320, 76C320, 69.4 325.4, 64 332, 64L416, 64C469, 64 512, 107 512, 160L512, 352C512, 405 469, 448 416, 448z" fill="#727272" fill-opacity="1" class="Black" />
  </g>
</svg>