<?xml version='1.0' encoding='UTF-8'?>
<svg viewBox="-1.9998 -3.5563 31.9975 32" xmlns="http://www.w3.org/2000/svg">
  <g transform="matrix(0.0486, 0, 0, 0.0486, 0, 0)">
    <path d="M186.87, 157.25L175.5, 146.14A16.44 16.44 0 0 0 151.5, 147.44A168.83 168.83 0 0 0 151.5, 364.56A16.44 16.44 0 0 0 175.5, 365.86L186.87, 354.75A15.14 15.14 0 0 0 188.16, 334.22A122.72 122.72 0 0 1 188.16, 177.78A15.15 15.15 0 0 0 186.87, 157.25zM107.33, 79.6L96, 68.53A16.41 16.41 0 0 0 72.44, 69.53C25.59, 121 0, 186.58 0, 256C0, 325.42 25.59, 391 72.44, 442.52A16.41 16.41 0 0 0 96, 443.52L107.33, 432.45C113.44, 426.45 113.39, 417.06 107.69, 410.74A230.28 230.28 0 0 1 107.69, 101.37C113.39, 95 113.44, 85.56 107.33, 79.6zM503.56, 69.48A16.41 16.41 0 0 0 480, 68.48L468.67, 79.6C462.56, 85.6 462.61, 94.99 468.31, 101.32A230.28 230.28 0 0 1 468.31, 410.69C462.61, 417.01 462.56, 426.44 468.67, 432.4L480, 443.47A16.41 16.41 0 0 0 503.56, 442.47C550.41, 391 576, 325.42 576, 256C576, 186.58 550.41, 121 503.56, 69.48zM288, 200A56 56 0 1 0 344, 256A56 56 0 0 0 288, 200zM400.5, 146.14L389.13, 157.25A15.15 15.15 0 0 0 387.84, 177.78A122.72 122.72 0 0 1 387.84, 334.22A15.15 15.15 0 0 0 389.13, 354.75L400.5, 365.86A16.44 16.44 0 0 0 424.5, 364.56A168.83 168.83 0 0 0 424.5, 147.44A16.44 16.44 0 0 0 400.5, 146.14z" fill="#727272" fill-opacity="1" class="Black" />
  </g>
</svg>