<?xml version='1.0' encoding='UTF-8'?>
<svg viewBox="-2 -1.9988 32 32" xmlns="http://www.w3.org/2000/svg">
  <g transform="matrix(0.0547, 0, 0, 0.0547, 0, 0)">
    <path d="M416, 448L332, 448C325.4, 448 320, 442.6 320, 436L320, 412C320, 405.4 325.4, 400 332, 400L416, 400C442.5, 400 464, 378.5 464, 352L464, 160C464, 133.5 442.5, 112 416, 112L332, 112C325.4, 112 320, 106.6 320, 100L320, 76C320, 69.4 325.4, 64 332, 64L416, 64C469, 64 512, 107 512, 160L512, 352C512, 405 469, 448 416, 448zM167.1, 83.5L147.5, 103.1C142.7, 107.9 142.8, 115.6 147.7, 120.2L260.8, 230L12, 230C5.4, 230 0, 235.4 0, 242L0, 270C0, 276.6 5.4, 282 12, 282L260.8, 282L147.7, 391.7C142.9, 396.4 142.8, 404.1 147.5, 408.8L167.1, 428.4C171.8, 433.1 179.4, 433.1 184.1, 428.4L348.5, 264.4C353.2, 259.7 353.2, 252.1 348.5, 247.4L184.1, 83.4C179.4, 78.8 171.8, 78.8 167.1, 83.5z" fill="#727272" fill-opacity="1" class="Black" />
  </g>
</svg>