<?xml version='1.0' encoding='UTF-8'?>
<svg viewBox="-1.9973 -4.7991 31.995 32" xmlns="http://www.w3.org/2000/svg">
  <g transform="matrix(0.9989, 0, 0, 0.9989, 0, 0)">
    <g transform="matrix(0.0438, 0, 0, 0.0438, 0, 0)">
      <path d="M633.99, 471.02L36, 3.51C29.1, -2.01 19.03, -0.9 13.51, 6L3.51, 18.49C-2.02, 25.39 -0.9, 35.46 6, 40.98L604, 508.49C610.9, 514.01 620.96, 512.89 626.49, 506L636.49, 493.51C642.01, 486.61 640.9, 476.54 633.99, 471.02zM544, 48L576, 48L576, 364.75L624, 402.28L624, 32C624, 14.33 609.67, 0 592, 0L528, 0C510.33, 0 496, 14.33 496, 32L496, 302.21L544, 339.74L544, 48zM384, 176L416, 176L416, 239.66L464, 277.19L464, 160C464, 142.33 449.67, 128 432, 128L368, 128C350.33, 128 336, 142.33 336, 160L336, 177.12L384, 214.65L384, 176zM112, 352L48, 352C30.33, 352 16, 366.33 16, 384L16, 480C16, 497.67 30.33, 512 48, 512L112, 512C129.67, 512 144, 497.67 144, 480L144, 384C144, 366.33 129.67, 352 112, 352zM96, 464L64, 464L64, 400L96, 400L96, 464zM416, 464L384, 464L384, 397.42L336, 359.89L336, 480C336, 497.67 350.33, 512 368, 512L432, 512C449.67, 512 464, 497.67 464, 480L464, 459.97L416, 422.44L416, 464zM176, 288L176, 480C176, 497.67 190.33, 512 208, 512L272, 512C289.67, 512 304, 497.67 304, 480L304, 334.88L204.11, 256.79C188.36, 258.79 176, 271.71 176, 288zM224, 304L256, 304L256, 464L224, 464L224, 304z" fill="#727272" fill-opacity="1" class="Black" />
    </g>
  </g>
</svg>