<?xml version='1.0' encoding='UTF-8'?>
<svg viewBox="-2 -2 32 32" xmlns="http://www.w3.org/2000/svg">
  <g transform="matrix(0.0547, 0, 0, 0.0547, 0, 0)">
    <path d="M496, 160L280, 160L280, 112L432, 112C440.84, 112 448, 104.84 448, 96L448, 80C448, 71.16 440.84, 64 432, 64L280, 64L280, 16C280, 7.16 272.84, 0 264, 0L248, 0C239.16, 0 232, 7.16 232, 16L232, 64L80, 64C71.16, 64 64, 71.16 64, 80L64, 96C64, 104.84 71.16, 112 80, 112L232, 112L232, 160L16, 160C7.16, 160 0, 167.16 0, 176L0, 192C0, 200.84 7.16, 208 16, 208L232, 208L232, 256L80, 256C71.16, 256 64, 263.16 64, 272L64, 288C64, 296.84 71.16, 304 80, 304L232, 304L232, 352L112, 352C67.82, 352 32, 387.82 32, 432C32, 476.18 67.82, 512 112, 512C156.18, 512 192, 476.18 192, 432C192, 420.61 189.54, 409.81 185.25, 400L326.76, 400C322.47, 409.81 320.01, 420.61 320.01, 432C320.01, 476.18 355.83, 512 400.01, 512C444.19, 512 480.01, 476.18 480.01, 432C480.01, 387.82 444.19, 352 400.01, 352L280, 352L280, 304L432, 304C440.84, 304 448, 296.84 448, 288L448, 272C448, 263.16 440.84, 256 432, 256L280, 256L280, 208L496, 208C504.84, 208 512, 200.84 512, 192L512, 176C512, 167.16 504.84, 160 496, 160zM144, 432C144, 449.64 129.64, 464 112, 464C94.36, 464 80, 449.64 80, 432C80, 414.36 94.36, 400 112, 400C129.64, 400 144, 414.36 144, 432zM432, 432C432, 449.64 417.64, 464 400, 464C382.36, 464 368, 449.64 368, 432C368, 414.36 382.36, 400 400, 400C417.64, 400 432, 414.36 432, 432z" fill="#727272" fill-opacity="1" class="Black" />
  </g>
</svg>