<?xml version='1.0' encoding='UTF-8'?>
<svg viewBox="-2.0025 -2 32 32" xmlns="http://www.w3.org/2000/svg">
  <g transform="matrix(0.0547, 0, 0, 0.0547, 0, 0)">
    <path d="M112, 128C138.5, 128 160, 106.5 160, 80C160, 53.5 138.5, 32 112, 32C85.5, 32 64, 53.5 64, 80C64, 106.5 85.5, 128 112, 128zM256, 0L224, 0L224, 216L256, 208L256, 0zM191.6, 381.4C204.2, 377.2 211, 363.6 206.8, 351C202.6, 338.4 189.1, 331.5 176.4, 335.8L158, 342C139, 348.4 118, 339.5 109.3, 321.3L45.7, 188.3C40, 176.4 25.7, 171.3 13.7, 177C1.7, 182.7 -3.3, 197 2.4, 209L66, 342C81, 373.2 112.4, 392 145.5, 392C158.1, 392 162.5, 391.1 191.6, 381.4zM488, 288C474.8, 288 464, 298.8 464, 312C464, 325.9 455.2, 338.5 442.2, 343.3L312, 391.5L312, 256C312, 240.2 297, 229 282.2, 232.7L188.7, 256.1L149, 170.6C141.6, 154.6 122.7, 147.5 106.5, 155C93.9, 160.8 82.4, 179.2 90.8, 197.5L138.1, 298.1C142.9, 308.6 154.6, 314.2 165.7, 311.3L263.9, 286.8L263.9, 409.3L111.6, 465.6C99.2, 470.2 92.8, 484 97.4, 496.4C101, 506.1 110.2, 512.1 119.9, 512.1C122.7, 512.1 125.5, 511.6 128.2, 510.6L458.7, 388.5C490.5, 376.7 511.9, 346 511.9, 312.1C512, 298.8 501.2, 288 488, 288z" fill="#727272" fill-opacity="1" class="Black" />
  </g>
</svg>