<?xml version='1.0' encoding='UTF-8'?>
<svg viewBox="-1.9975 -2 32 32" xmlns="http://www.w3.org/2000/svg">
  <g transform="matrix(0.0547, 0, 0, 0.0547, 0, 0)">
    <path d="M400, 96C426.5, 96 448, 74.5 448, 48C448, 21.5 426.5, 0 400, 0C373.5, 0 352, 21.5 352, 48C352, 74.5 373.5, 96 400, 96zM510.7, 190.1C508.5, 177 495.9, 168.1 483, 170.4C469.9, 172.6 461.1, 185 463.3, 198.1C466.6, 217.4 457.3, 237 441.2, 246.2L169, 386.4L219.5, 263.8C219.9, 262.7 220.7, 261.7 221.5, 260.9L342.7, 150.6C351.9, 141.4 354.6, 127.7 349.6, 115.7C344.6, 103.7 333, 96 320, 96L136, 96C122.7, 96 112, 106.8 112, 120C112, 133.2 122.8, 144 136, 144L249.7, 144L181, 233.4C179.7, 235 179.3, 235.4 175.1, 245.5L121.8, 374.9C117, 386.4 122.2, 399.2 133, 405L13, 466.7C1.2, 472.7 -3.4, 487.2 2.7, 499C7, 507.3 15.4, 512 24.1, 512C27.8, 512 31.5, 511.1 35, 509.3L464.2, 288.4C498.6, 268.7 517.3, 229.2 510.7, 190.1z" fill="#727272" fill-opacity="1" class="Black" />
  </g>
</svg>