<?xml version='1.0' encoding='UTF-8'?>
<svg viewBox="-1.9962 -2 32 32" xmlns="http://www.w3.org/2000/svg">
  <g transform="matrix(0.0547, 0, 0, 0.0547, 0, 0)">
    <path d="M432, 96C458.5, 96 480, 74.5 480, 48C480, 21.5 458.5, 0 432, 0C405.5, 0 384, 21.5 384, 48C384, 74.5 405.5, 96 432, 96zM120, 91.6L108.5, 114.1C122.9, 121.4 139.6, 119 151.3, 109.3L284, 175.5L345.1, 151.1L359.2, 193.4C362.6, 203.5 369.7, 211.7 379.3, 216.5L437.4, 245.5C449.3, 251.5 463.7, 246.6 469.6, 234.8C475.5, 222.9 470.7, 208.5 458.8, 202.6L403.6, 175L385.5, 120.6C380.6, 106 369.9, 94 355.9, 87.5C341.9, 81 325.8, 80.6 311.6, 86.3L237.1, 116.1L164.9, 80.3C165.2, 65.8 157.7, 51.8 144, 44.7L132.9, 66.4L132.6, 66.4L98.2, 59.4C96.4, 59 94.5, 59.6 93.2, 61.1C91.3, 63.3 91.5, 66.6 93.7, 68.5L120, 91.6zM505, 452C495.6, 442.6 480.4, 442.7 471.1, 452C459, 464.1 440.4, 467.3 426, 460.7L283, 386.8L332.7, 312.2C343.3, 296.4 341.2, 275.1 327.7, 261.7L270.5, 204.5L193.6, 166.4C192, 183 197.4, 199.4 209.3, 211.3L289.1, 291.1L240, 364.7L35, 258.7C23.1, 252.6 8.7, 257.2 2.7, 269C-3.4, 280.8 1.2, 295.3 13, 301.3L404.9, 503.8C416.8, 509.3 429.4, 511.9 442, 511.9C465.2, 511.9 488.1, 502.9 505, 485.9C514.3, 476.6 514.3, 461.4 505, 452z" fill="#727272" fill-opacity="1" class="Black" />
  </g>
</svg>