<?xml version='1.0' encoding='UTF-8'?>
<svg viewBox="-2 -4.798 32 32" xmlns="http://www.w3.org/2000/svg">
  <g transform="matrix(0.9988, 0, 0, 0.9988, 0, 0)">
    <g transform="matrix(0.0438, 0, 0, 0.0438, 0, 0)">
      <path d="M256, 224.09A32 32 0 1 0 288, 256.09A32 32 0 0 0 256, 224.09zM384, 224.09A32 32 0 1 0 416, 256.09A32 32 0 0 0 384, 224.09zM603.26, 4.57A16 16 0 0 0 577.05, 21.57C583.12, 37.68 596.65, 89.14 579.93, 113.24C573.13, 123 561.4, 128 544, 128L470.9, 127.88A63.75 63.75 0 0 0 415.9, 96.17L224, 96.17A63.74 63.74 0 0 0 169, 128L96, 128C78.63, 128 66.9, 123 60.1, 113.26C43.35, 89.2 56.49, 38.91 63, 21.56A16 16 0 0 0 36.81, 4.56C13.05, 27.8 0, 60.15 0, 95.67C0, 166.13 57.43, 223.93 128, 223.93L160, 223.93L160, 304.06A63.82 63.82 0 0 0 214.6, 367.06L249.33, 488.75A32 32 0 0 0 280.07, 512L359.79, 512A32 32 0 0 0 390.56, 488.81L425.39, 367.09A63.81 63.81 0 0 0 479.96, 304.09L479.96, 224L511.96, 223.92C582.55, 223.92 639.96, 166.11 639.96, 95.66C640, 60.16 627, 27.81 603.26, 4.57zM432, 304.06A15.78 15.78 0 0 1 418.36, 319.63L387.78, 324.18L379.28, 353.89L347.73, 464L292.14, 464L260.72, 353.93L252.22, 324.17L221.61, 319.63A15.79 15.79 0 0 1 208, 304.06L208, 160.11A16 16 0 0 1 224, 144.11L416, 144.11A16 16 0 0 1 432, 160.11z" fill="#727272" fill-opacity="1" class="Black" />
    </g>
  </g>
</svg>