<?xml version='1.0' encoding='UTF-8'?>
<svg viewBox="-3.7483 -2 32 32" xmlns="http://www.w3.org/2000/svg">
  <g transform="matrix(0.0547, 0, 0, 0.0547, 0, 0)">
    <path d="M184, 160C197.24, 160 208, 149.24 208, 136C208, 122.76 197.24, 112 184, 112C170.76, 112 160, 122.76 160, 136C160, 149.24 170.76, 160 184, 160zM264, 160C277.24, 160 288, 149.24 288, 136C288, 122.76 277.24, 112 264, 112C250.76, 112 240, 122.76 240, 136C240, 149.24 250.76, 160 264, 160zM135.85, 228.54L128.52, 263.15C125.85, 275.77 133.94, 288 144.97, 288L303.05, 288C314.08, 288 322.17, 275.77 319.5, 263.15L312.17, 228.54C345.91, 205.11 368, 169.01 368, 128C368, 57.31 303.53, 0 224, 0C144.47, 0 80, 57.31 80, 128C80, 169.01 102.09, 205.11 135.85, 228.54zM224, 48C276.94, 48 320, 83.89 320, 128C320, 151.3 307.16, 173.57 284.79, 189.1L258.59, 207.28L265.2, 238.48L265.52, 240L182.49, 240L182.81, 238.48L189.42, 207.28L163.22, 189.1C140.84, 173.57 128, 151.3 128, 128C128, 83.89 171.07, 48 224, 48zM438.7, 466.95L284.31, 400L438.7, 333.05C446.73, 329.34 450.23, 319.84 446.52, 311.81L439.81, 297.29C436.1, 289.27 426.6, 285.77 418.58, 289.47L224, 373.85L29.42, 289.48C21.4, 285.78 11.89, 289.28 8.19, 297.3L1.48, 311.82C-2.23, 319.84 1.27, 329.35 9.3, 333.06L163.69, 400L9.3, 466.95C1.27, 470.65 -2.23, 480.16 1.48, 488.19L8.19, 502.71C11.9, 510.73 21.4, 514.23 29.42, 510.53L224, 426.15L418.58, 510.52C426.6, 514.22 436.11, 510.72 439.81, 502.7L446.52, 488.18C450.23, 480.16 446.73, 470.65 438.7, 466.95z" fill="#727272" fill-opacity="1" class="Black" />
  </g>
</svg>