<?xml version='1.0' encoding='UTF-8'?>
<svg viewBox="-1.995 -1.9975 32 32" xmlns="http://www.w3.org/2000/svg">
  <g transform="matrix(0.0547, 0, 0, 0.0547, 0, 0)">
    <path d="M505, 420C495.6, 410.6 480.4, 410.7 471.1, 420C459, 432.1 440.4, 435.3 426, 428.7L375, 402.3C380.4, 397.9 384.1, 391.5 384.1, 384L384.1, 304C384.1, 281.9 366.2, 264 344.1, 264L272.6, 264L340.3, 196.3C351.8, 184.8 355.2, 167.7 349, 152.7C342.8, 137.7 328.3, 128 312, 128L152, 128C138.7, 128 128, 138.8 128, 152C128, 165.2 138.8, 176 152, 176L259, 176L159, 261.8C152.8, 267.1 149.7, 275.2 150.8, 283.3C151, 284.8 152, 285.9 152.5, 287.3L35, 226.7C23.1, 220.6 8.7, 225.2 2.7, 237C-3.4, 248.8 1.2, 263.3 13, 269.3L404.9, 471.8C416.8, 477.3 429.4, 479.9 442, 479.9C465.2, 479.9 488.1, 470.9 505, 453.9C514.3, 444.6 514.3, 429.4 505, 420zM336, 382.3L200.1, 312L336, 312L336, 382.3zM400, 128C426.5, 128 448, 106.5 448, 80C448, 53.5 426.5, 32 400, 32C373.5, 32 352, 53.5 352, 80C352, 106.5 373.5, 128 400, 128z" fill="#727272" fill-opacity="1" class="Black" />
  </g>
</svg>