<?xml version='1.0' encoding='UTF-8'?>
<svg viewBox="-2 -4.7973 32 32" xmlns="http://www.w3.org/2000/svg">
  <g transform="matrix(1.0013, 0, 0, 1.0013, 0, 0)">
    <g transform="matrix(0.0437, 0, 0, 0.0437, 0, 0)">
      <path d="M612.7, 350.7L603.4, 343.3C596.5, 337.8 586.4, 338.9 580.9, 345.8L570.9, 358.3C565.4, 365.2 566.5, 375.3 573.4, 380.8L582.7, 388.2C588.6, 392.9 591.9, 399.9 591.9, 407.4C591.9, 421 580.9, 432 567.3, 432L440, 432L440, 384C506.2, 384 560, 330.2 560, 264L560, 144L592, 144C600.8, 144 608, 136.8 608, 128L608, 112C608, 103.2 600.8, 96 592, 96L432, 96C423.2, 96 416, 103.2 416, 112L416, 184C416, 249.3 281.6, 236.3 234.8, 141.4C201.5, 73.9 134.6, 32 60.2, 32L16, 32C7.2, 32 0, 39.2 0, 48L0, 64C0, 72.8 7.2, 80 16, 80L32, 80L32, 232C32, 298.9 75.8, 355.3 136, 375.5L136, 432L48, 432C39.2, 432 32, 439.2 32, 448L32, 464C32, 472.8 39.2, 480 48, 480L564, 480C603, 480 637.7, 450.7 639.9, 411.7C641.3, 387.9 631.2, 365.4 612.7, 350.7zM80, 232L80, 81.4C127.9, 87.9 169.6, 117.8 191.7, 162.6C260.3, 301.6 464, 308.4 464, 184L464, 144L512, 144L512, 264C512, 303.7 479.7, 336 440, 336L184, 336C126.7, 336 80, 289.3 80, 232zM392, 432L184, 432L184, 384L392, 384L392, 432z" fill="#727272" fill-opacity="1" class="Black" />
    </g>
  </g>
</svg>