<?xml version='1.0' encoding='UTF-8'?>
<svg viewBox="-3.7495 -2 32 32" xmlns="http://www.w3.org/2000/svg">
  <g transform="matrix(0.0547, 0, 0, 0.0547, 0, 0)">
    <path d="M272, 352L248, 352L248, 16C248, 7.2 240.8, 0 232, 0L216, 0C207.2, 0 200, 7.2 200, 16L200, 352L176, 352C167.2, 352 160, 359.2 160, 368L160, 400C160, 408.8 167.2, 416 176, 416L200, 416L200, 496C200, 504.8 207.2, 512 216, 512L232, 512C240.8, 512 248, 504.8 248, 496L248, 416L272, 416C280.8, 416 288, 408.8 288, 400L288, 368C288, 359.2 280.8, 352 272, 352zM112, 96L88, 96L88, 16C88, 7.2 80.8, 0 72, 0L56, 0C47.2, 0 40, 7.2 40, 16L40, 96L16, 96C7.2, 96 0, 103.2 0, 112L0, 144C0, 152.8 7.2, 160 16, 160L40, 160L40, 496C40, 504.8 47.2, 512 56, 512L72, 512C80.8, 512 88, 504.8 88, 496L88, 160L112, 160C120.8, 160 128, 152.8 128, 144L128, 112C128, 103.2 120.8, 96 112, 96zM432, 224L408, 224L408, 16C408, 7.2 400.8, 0 392, 0L376, 0C367.2, 0 360, 7.2 360, 16L360, 224L336, 224C327.2, 224 320, 231.2 320, 240L320, 272C320, 280.8 327.2, 288 336, 288L360, 288L360, 496C360, 504.8 367.2, 512 376, 512L392, 512C400.8, 512 408, 504.8 408, 496L408, 288L432, 288C440.8, 288 448, 280.8 448, 272L448, 240C448, 231.2 440.8, 224 432, 224z" fill="#727272" fill-opacity="1" class="Black" />
  </g>
</svg>