<?xml version='1.0' encoding='UTF-8'?>
<svg viewBox="-2 -4.7992 32 32" xmlns="http://www.w3.org/2000/svg">
  <g transform="matrix(0.9988, 0, 0, 0.9988, 0, 0)">
    <g transform="matrix(0.0438, 0, 0, 0.0438, 0, 0)">
      <path d="M208, 96C93.1, 96 0, 189.1 0, 304C0, 418.9 93.1, 512 208, 512C322.9, 512 416, 418.9 416, 304C416, 189.1 322.9, 96 208, 96zM208, 464C119.8, 464 48, 392.2 48, 304C48, 215.8 119.8, 144 208, 144C296.2, 144 368, 215.8 368, 304C368, 392.2 296.2, 464 208, 464zM269.8, 339.8C239.2, 375.6 176.9, 375.6 146.3, 339.8C137.6, 329.7 122.5, 328.6 112.5, 337.1C102.4, 345.7 101.3, 360.9 109.8, 370.9C134.2, 399.5 170, 415.9 208, 415.9C246, 415.9 281.8, 399.5 306.2, 370.9C314.8, 360.8 313.6, 345.7 303.5, 337.1C293.5, 328.6 278.4, 329.7 269.8, 339.8zM144, 288C161.7, 288 176, 273.7 176, 256C176, 238.3 161.7, 224 144, 224C126.3, 224 112, 238.3 112, 256C112, 273.7 126.3, 288 144, 288zM272, 288C289.7, 288 304, 273.7 304, 256C304, 238.3 289.7, 224 272, 224C254.3, 224 240, 238.3 240, 256C240, 273.7 254.3, 288 272, 288zM624, 88L552, 88L552, 16C552, 7.2 544.8, 0 536, 0L520, 0C511.2, 0 504, 7.2 504, 16L504, 88L432, 88C423.2, 88 416, 95.2 416, 104L416, 120C416, 128.8 423.2, 136 432, 136L504, 136L504, 208C504, 216.8 511.2, 224 520, 224L536, 224C544.8, 224 552, 216.8 552, 208L552, 136L624, 136C632.8, 136 640, 128.8 640, 120L640, 104C640, 95.2 632.8, 88 624, 88z" fill="#727272" fill-opacity="1" class="Black" />
    </g>
  </g>
</svg>