<?xml version='1.0' encoding='UTF-8'?>
<svg viewBox="-2 -2 32 32" xmlns="http://www.w3.org/2000/svg">
  <g transform="matrix(0.0547, 0, 0, 0.0547, 0, 0)">
    <path d="M112, 320L218.2, 320L122.2, 224L112, 224C103.2, 224 96, 231.2 96, 240L96, 304C96, 312.8 103.2, 320 112, 320zM320.6, 128C305, 128 292, 116.8 289.2, 102.1C288.5, 98.5 285.2, 96 281.5, 96L265.3, 96C260.3, 96 256.6, 100.5 257.3, 105.4C261.9, 136.3 288.5, 160 320.6, 160C336.2, 160 349.2, 171.2 352, 185.9C352.7, 189.5 356, 192 359.7, 192L375.9, 192C380.9, 192 384.6, 187.5 383.9, 182.6C379.3, 151.7 352.7, 128 320.6, 128zM256, 0C114.6, 0 0, 114.6 0, 256C0, 397.4 114.6, 512 256, 512C397.4, 512 512, 397.4 512, 256C512, 114.6 397.4, 0 256, 0zM256, 464C141.3, 464 48, 370.7 48, 256C48, 207.3 65, 162.5 93.1, 127L385, 418.9C349.5, 447 304.7, 464 256, 464zM289.9, 256L384, 256L384, 288L321.9, 288L289.9, 256zM418.9, 385L353.9, 320L400, 320C408.8, 320 416, 312.8 416, 304L416, 240C416, 231.2 408.8, 224 400, 224L257.9, 224L127, 93.1C162.5, 65 207.3, 48 256, 48C370.7, 48 464, 141.3 464, 256C464, 304.7 447, 349.5 418.9, 385z" fill="#727272" fill-opacity="1" class="Black" />
  </g>
</svg>