<?xml version='1.0' encoding='UTF-8'?>
<svg viewBox="-2.0023 -1.9973 32 31.995" xmlns="http://www.w3.org/2000/svg">
  <g transform="matrix(0.0547, 0, 0, 0.0547, 0, 0)">
    <path d="M135.4, 218.5C134, 217.3 133.3, 216 133.3, 214.7C133.3, 211.6 137.8, 208.1 143.7, 208.1L156, 208.1C160.4, 208.1 164, 204.5 164, 200.1L164, 184.1C164, 179.7 160.4, 176.1 156, 176.1L143.8, 176.1C120.4, 176.1 101.4, 193.4 101.4, 214.7C101.4, 225.4 106.3, 235.6 114.7, 242.8L136.6, 261.6C138, 262.8 138.7, 264.1 138.7, 265.4C138.7, 268.5 134.2, 272 128.3, 272L116, 272C111.6, 272 108, 275.6 108, 280L108, 296C108, 300.4 111.6, 304 116, 304L128.3, 304C151.7, 304 170.7, 286.7 170.7, 265.4C170.7, 254.7 165.8, 244.5 157.4, 237.3L135.4, 218.5zM304, 176L288, 176C281.9, 176 276.4, 179.4 273.7, 184.8L256, 220.2L238.3, 184.8C235.6, 179.4 230.1, 176 224, 176L208, 176C199.2, 176 192, 183.2 192, 192L192, 296C192, 300.4 195.6, 304 200, 304L216, 304C220.4, 304 224, 300.4 224, 296L224, 227.8L248.8, 283.6C251.7, 289.5 260.2, 289.5 263.1, 283.6L287.9, 227.8L287.9, 296C287.9, 300.4 291.5, 304 295.9, 304L311.9, 304C316.3, 304 319.9, 300.4 319.9, 296L319.9, 192C320, 183.2 312.8, 176 304, 176zM375.4, 218.5C374, 217.3 373.3, 216 373.3, 214.7C373.3, 211.6 377.8, 208.1 383.7, 208.1L396, 208.1C400.4, 208.1 404, 204.5 404, 200.1L404, 184.1C404, 179.7 400.4, 176.1 396, 176.1L383.7, 176.1C360.3, 176.1 341.3, 193.4 341.3, 214.7C341.3, 225.4 346.2, 235.6 354.6, 242.8L376.5, 261.6C377.9, 262.8 378.6, 264.1 378.6, 265.4C378.6, 268.5 374.1, 272 368.2, 272L356, 272C351.6, 272 348, 275.6 348, 280L348, 296C348, 300.4 351.6, 304 356, 304L368.3, 304C391.7, 304 410.7, 286.7 410.7, 265.4C410.7, 254.7 405.8, 244.5 397.4, 237.3L375.4, 218.5zM256, 32C114.6, 32 0, 125.1 0, 240C0, 287.6 19.9, 331.2 52.9, 366.3C38, 405.7 7, 439.1 6.5, 439.5C-0.1, 446.5 -1.9, 456.7 1.9, 465.5C5.7, 474.3 14.4, 480 24, 480C85.5, 480 134, 454.3 163.1, 433.7C192, 442.8 223.2, 448 256, 448C397.4, 448 512, 354.9 512, 240C512, 125.1 397.4, 32 256, 32zM256, 400C229.3, 400 202.9, 395.9 177.6, 387.9L154.9, 380.7L135.4, 394.5C121.1, 404.6 101.5, 415.9 77.9, 423.5C85.2, 411.4 92.3, 397.8 97.8, 383.3L108.4, 355.2L87.8, 333.4C69.7, 314.1 48, 282.2 48, 240C48, 151.8 141.3, 80 256, 80C370.7, 80 464, 151.8 464, 240C464, 328.2 370.7, 400 256, 400z" fill="#727272" fill-opacity="1" class="Black" />
  </g>
</svg>