<?xml version='1.0' encoding='UTF-8'?>
<svg viewBox="-1.9949 -2.0036 31.9975 32" xmlns="http://www.w3.org/2000/svg">
  <g transform="matrix(0.0547, 0, 0, 0.0547, 0, 0)">
    <path d="M256, 288C247.2, 288 240, 295.2 240, 304C240, 312.8 247.2, 320 256, 320C264.8, 320 272, 312.8 272, 304C272, 295.2 264.8, 288 256, 288zM256, 224C247.2, 224 240, 231.2 240, 240C240, 248.8 247.2, 256 256, 256C264.8, 256 272, 248.8 272, 240C272, 231.2 264.8, 224 256, 224zM224, 88C215.2, 88 208, 95.2 208, 104C208, 112.8 215.2, 120 224, 120C232.8, 120 240, 112.8 240, 104C240, 95.2 232.8, 88 224, 88zM256, 352C247.2, 352 240, 359.2 240, 368C240, 376.8 247.2, 384 256, 384C264.8, 384 272, 376.8 272, 368C272, 359.2 264.8, 352 256, 352zM510.9, 184.3L505, 169.8C501.7, 161.8 492.4, 157.9 484.2, 161.1L456, 172.6L456, 143.6C456, 135 448.8, 128 440, 128L424, 128C415.2, 128 408, 135 408, 143.6L408, 190.5C408, 191 408.3, 191.5 408.3, 192L382.1, 202.7C378.4, 193.5 374, 184.4 368.4, 176.1C376, 159.8 380, 142 380, 124C380, 55.6 324.4, 0 256, 0C187.6, 0 132, 55.6 132, 124C132, 142 136, 159.8 143.6, 176.1C137.9, 184.5 133.5, 193.5 129.9, 202.7L103.7, 192C103.8, 191.5 104, 191 104, 190.5L104, 143.6C104, 135 96.8, 128 88, 128L72, 128C63.2, 128 56, 135 56, 143.6L56, 172.6L27.9, 161.1C19.7, 157.9 10.4, 161.8 7.1, 169.8L1.2, 184.3C-2.1, 192.3 1.9, 201.4 10.1, 204.6L120.2, 249.5C120.2, 250.3 120, 251.1 120, 251.9C120, 259 120.7, 266.2 122.1, 273.9C103.9, 300.7 94.3, 331.8 94.3, 364.6C94.3, 420 122.5, 470.8 169.6, 500.7C181.1, 508 195.3, 511.8 210.8, 511.8L300.7, 511.8C317.7, 511.8 334.1, 506.7 348.1, 496.9C400.9, 460.3 426.6, 398.1 415.1, 334.6C411.2, 313.3 402.6, 292.6 390, 274C391.4, 266.3 392.1, 258.9 392.1, 251.8C392.1, 251 391.9, 250.2 391.9, 249.4L502, 204.5C510.1, 201.5 514.1, 192.4 510.9, 184.3zM320.7, 457.7C314.8, 461.8 307.8, 464 300.6, 464L210.7, 464C206.3, 464 200, 463.4 195.2, 460.3C162, 439.3 142.2, 403.5 142.2, 364.7C142.2, 338.9 150.6, 314.5 166.6, 294.3L173.9, 285L171, 273.5C168.9, 265.3 167.9, 258.4 167.9, 251.9C167.9, 225 180, 205.6 190.1, 194.1L202.1, 180.4L192.2, 165.2C184.1, 152.7 179.9, 138.5 179.9, 123.9C179.9, 82 214, 47.9 255.9, 47.9C297.8, 47.9 331.9, 82 331.9, 123.9C331.9, 138.4 327.6, 152.7 319.6, 165.2L309.7, 180.4L321.7, 194.1C331.9, 205.6 343.9, 225.1 343.9, 251.9C343.9, 258.5 342.9, 265.4 340.8, 273.6L337.9, 285.1L345.2, 294.4C356.8, 309.1 364.6, 326 367.7, 343.3C375.9, 388.1 357.9, 431.9 320.7, 457.7zM288, 88C279.2, 88 272, 95.2 272, 104C272, 112.8 279.2, 120 288, 120C296.8, 120 304, 112.8 304, 104C304, 95.2 296.8, 88 288, 88zM256, 128C247.2, 128 240, 135.2 240, 144C240, 152.8 256, 176 256, 176C256, 176 272, 152.8 272, 144C272, 135.2 264.8, 128 256, 128z" fill="#727272" fill-opacity="1" class="Black" />
  </g>
</svg>