<?xml version='1.0' encoding='UTF-8'?>
<svg viewBox="-1.9987 -2 32 32" xmlns="http://www.w3.org/2000/svg">
  <g transform="matrix(0.0547, 0, 0, 0.0547, 0, 0)">
    <path d="M432, 96C458.5, 96 480, 74.5 480, 48C480, 21.5 458.5, 0 432, 0C405.5, 0 384, 21.5 384, 48C384, 74.5 405.5, 96 432, 96zM473.4, 251C477.7, 254.3 482.9, 256 488, 256C495.2, 256 502.3, 252.8 507.1, 246.6C515.2, 236.1 513.2, 221 502.7, 212.9L383, 121.3C369.9, 111.5 355.4, 103.9 339.8, 98.7L272.8, 76.3L236.9, 12.3C230.4, 0.8 215.7, -3.4 204.2, 3.1C192.6, 9.6 188.5, 24.2 195, 35.8L231.5, 100.9C236.3, 110.4 244.5, 117.5 254.6, 120.9L289.4, 132.5L231, 161.7C211.9, 171.2 200, 190.4 200, 211.8L200, 266.7C200, 269.9 198.1, 272.8 195.1, 274.1L118.8, 305.9C106.6, 311 100.8, 325.1 105.9, 337.3C107.1, 340.3 109, 342.7 111.2, 344.8L67.6, 328.9C57.9, 325.4 50.2, 318.3 45.8, 308.9C40.2, 296.9 25.9, 291.6 13.9, 297.3C1.9, 302.9 -3.3, 317.2 2.3, 329.2C12.1, 350.2 29.4, 366 51.1, 374L415.9, 506.8C425.6, 510.3 435.6, 512.1 445.6, 512.1C458.1, 512.1 470.5, 509.4 482.1, 503.9C494.1, 498.3 499.3, 484 493.7, 472C488.1, 460 473.8, 454.8 461.8, 460.4C452.5, 464.7 442, 465.2 432.3, 461.7L328.5, 423.9C339.3, 423.6 349, 416.1 351.4, 405L373.2, 303C376.4, 287.8 370.5, 271.9 358.1, 262.6L295.4, 215.6L377.6, 177.7L473.4, 251zM325.3, 298L304.5, 395C302.6, 404 306.2, 412.7 312.7, 418.2L129.9, 351.7C132.4, 351.5 134.8, 351.2 137.2, 350.2L213.5, 318.4C234.4, 309.7 247.9, 289.4 247.9, 266.7L247.9, 240L325.3, 298z" fill="#727272" fill-opacity="1" class="Black" />
  </g>
</svg>