<?xml version='1.0' encoding='UTF-8'?>
<svg viewBox="-1.9974 -4.7971 32 32" xmlns="http://www.w3.org/2000/svg">
  <g transform="matrix(0.999, 0, 0, 0.999, 0, 0)">
    <g transform="matrix(0.0438, 0, 0, 0.0438, 0, 0)">
      <path d="M527.9, 120C527.9, 124.4 531.5, 128 535.9, 128L551.9, 128C556.3, 128 559.9, 124.4 559.9, 120L559.9, 91.6L587.9, 107.7C591.7, 109.9 596.6, 108.6 598.8, 104.8L606.8, 90.9C609, 87.1 607.7, 82.2 603.9, 80L576, 64L603.9, 48C607.7, 45.8 609, 40.9 606.8, 37.1L598.8, 23.2C596.6, 19.4 591.7, 18.1 587.9, 20.3L559.9, 36.4L559.9, 8C559.9, 3.6 556.3, 0 551.9, 0L535.9, 0C531.5, 0 527.9, 3.6 527.9, 8L527.9, 36.4L499.9, 20.3C496.1, 18.1 491.2, 19.4 489, 23.2L481, 37.1C478.8, 40.9 480.1, 45.8 483.9, 48L511.8, 64L483.9, 80C480.1, 82.2 478.8, 87.1 481, 90.9L489, 104.8C491.2, 108.6 496.1, 109.9 499.9, 107.7L527.9, 91.6L527.9, 120zM608.1, 256L636, 240C639.8, 237.8 641.1, 232.9 638.9, 229.1L630.9, 215.2C628.7, 211.4 623.8, 210.1 620, 212.3L592, 228.4L592, 200C592, 195.6 588.4, 192 584, 192L568, 192C563.6, 192 560, 195.6 560, 200L560, 228.4L532, 212.3C528.2, 210.1 523.3, 211.4 521.1, 215.2L513.1, 229.1C510.9, 232.9 512.2, 237.8 516, 240L543.9, 256L516, 272C512.2, 274.2 510.9, 279.1 513.1, 282.9L521.1, 296.8C523.3, 300.6 528.2, 301.9 532, 299.7L560, 283.6L560, 312C560, 316.4 563.6, 320 568, 320L584, 320C588.4, 320 592, 316.4 592, 312L592, 283.6L620, 299.7C623.8, 301.9 628.7, 300.6 630.9, 296.8L638.9, 282.9C641.1, 279.1 639.8, 274.2 636, 272L608.1, 256zM445.9, 134.9L438, 121C433.7, 113.3 424, 110.7 416.5, 115.1L377.3, 138.1L386.4, 103.4C388.6, 94.9 383.7, 86.1 375.3, 83.8L360.1, 79.7C351.7, 77.4 343.1, 82.5 340.8, 91L319.5, 172L247.6, 214.2L247.6, 129.7L305.9, 70.4C312, 64.2 312, 54 305.9, 47.8L294.8, 36.5C288.7, 30.3 278.7, 30.3 272.6, 36.5L247.7, 61.9L247.7, 16C247.7, 7.2 240.7, 0 232, 0L216.3, 0C207.6, 0 200.6, 7.2 200.6, 16L200.6, 62.1L175.7, 36.7C169.6, 30.5 159.6, 30.5 153.5, 36.7L142.1, 48C136, 54.2 136, 64.4 142.1, 70.6L200.4, 129.9L200.4, 214.4L128.5, 172.2L107.2, 91.2C105, 82.7 96.3, 77.6 87.9, 79.9L72.7, 84C64.3, 86.3 59.3, 95.1 61.6, 103.6L70.7, 138.3L31.5, 115.3C24, 110.9 14.4, 113.5 10, 121.2L2.1, 135.1C-2.2, 142.8 0.3, 152.5 7.9, 157L47.1, 180L13, 189.1C4.6, 191.4 -0.4, 200.2 1.9, 208.7L6, 224.2C8.2, 232.7 16.9, 237.8 25.3, 235.5L105, 213.8L176.9, 256L105, 298.2L25.3, 276.5C16.9, 274.2 8.3, 279.3 6, 287.8L1.9, 303.3C-0.3, 311.8 4.6, 320.6 13, 322.9L47.1, 332.2L7.9, 355.2C0.4, 359.6 -2.2, 369.4 2.1, 377.1L10, 391C14.3, 398.7 24, 401.3 31.5, 396.9L70.7, 373.9L61.6, 408.6C59.4, 417.1 64.3, 425.9 72.7, 428.2L87.9, 432.3C96.3, 434.6 104.9, 429.5 107.2, 421L128.5, 340L200.4, 297.8L200.4, 382.3L142.1, 441.6C136, 447.8 136, 458 142.1, 464.2L153.2, 475.5C159.3, 481.7 169.3, 481.7 175.4, 475.5L200.3, 450.1L200.3, 496C200.3, 504.8 207.3, 512 216, 512L231.7, 512C240.4, 512 247.4, 504.8 247.4, 496L247.4, 449.9L272.3, 475.3C278.4, 481.5 288.4, 481.5 294.5, 475.3L305.6, 464C311.7, 457.8 311.7, 447.6 305.6, 441.4L247.3, 382.1L247.3, 297.6L319.2, 339.8L340.5, 420.8C342.7, 429.3 351.4, 434.4 359.8, 432.1L375, 428C383.4, 425.7 388.4, 416.9 386.1, 408.4L377, 373.7L416.2, 396.7C423.7, 401.1 433.3, 398.5 437.7, 390.8L445.6, 376.9C450.2, 369.4 447.7, 359.6 440.1, 355.2L400.9, 332.2L435, 322.9C443.4, 320.6 448.4, 311.8 446.1, 303.3L442, 287.8C439.8, 279.3 431.1, 274.2 422.7, 276.5L343, 298.2L271.2, 256L343.1, 213.8L422.8, 235.5C431.2, 237.8 439.8, 232.7 442.1, 224.2L446.2, 208.7C448.4, 200.2 443.5, 191.4 435.1, 189.1L401, 179.8L440.2, 156.8C447.6, 152.4 450.2, 142.6 445.9, 134.9z" fill="#727272" fill-opacity="1" class="Black" />
    </g>
  </g>
</svg>