<?xml version='1.0' encoding='UTF-8'?>
<svg viewBox="-2.4988 0 31.9975 32" xmlns="http://www.w3.org/2000/svg">
  <g transform="matrix(0.0625, 0, 0, 0.0625, 0, 0)">
    <path d="M400, 176L376, 176L376, 48A16 16 0 0 0 360, 32L324, 32A16 16 0 0 0 310.43, 39.52L290.43, 71.52A16 16 0 0 0 304, 96L328, 96L328, 176L304, 176A16 16 0 0 0 288, 192L288, 208A16 16 0 0 0 304, 224L400, 224A16 16 0 0 0 416, 208L416, 192A16 16 0 0 0 400, 176zM344, 256A72 72 0 0 0 344, 400A71.1 71.1 0 0 0 362.84, 397.18A59.56 59.56 0 0 1 320.52, 431.6A15.84 15.84 0 0 0 308, 447.16L308, 463.93A16 16 0 0 0 326.71, 479.76A108.19 108.19 0 0 0 416, 373.38L416, 328A72.08 72.08 0 0 0 344, 256zM344, 352A24 24 0 1 1 368, 328A24 24 0 0 1 344, 352zM164, 384L120, 384L120, 48A16 16 0 0 0 104, 32L88, 32A16 16 0 0 0 72, 48L72, 384L28, 384A12 12 0 0 0 19.27, 404.24L87.27, 476.24A12 12 0 0 0 104.71, 476.24L172.71, 404.24A12 12 0 0 0 164, 384z" fill="#727272" fill-opacity="1" class="Black" />
  </g>
</svg>