<?xml version='1.0' encoding='UTF-8'?>
<svg viewBox="-1.5012 0 32 31.9975" xmlns="http://www.w3.org/2000/svg">
  <g transform="matrix(0.0625, 0, 0, 0.0625, 0, 0)">
    <path d="M104.72, 35.76A12 12 0 0 0 87.27, 35.76L19.27, 107.76A12 12 0 0 0 28, 128L72, 128L72, 464A16 16 0 0 0 88, 480L104, 480A16 16 0 0 0 120, 464L120, 128L164, 128A12 12 0 0 0 172.73, 107.76zM444.1, 182.86L361, 45.71A29.56 29.56 0 0 0 311.1, 45.71L227.9, 182.86C216.82, 201.14 230.67, 224 252.85, 224L419.15, 224C441.33, 224 455.18, 201.14 444.1, 182.86zM288.19, 176L336, 97.14L383.81, 176zM408, 288L264, 288A24 24 0 0 0 240, 312L240, 456A24 24 0 0 0 264, 480L408, 480A24 24 0 0 0 432, 456L432, 312A24 24 0 0 0 408, 288zM384, 432L288, 432L288, 336L384, 336z" fill="#727272" fill-opacity="1" class="Black" />
  </g>
</svg>