<?xml version='1.0' encoding='UTF-8'?>
<svg viewBox="-4 0 32 32" xmlns="http://www.w3.org/2000/svg">
  <g transform="matrix(0.0625, 0, 0, 0.0625, 0, 0)">
    <path d="M164, 384L120, 384L120, 48A16 16 0 0 0 104, 32L88, 32A16 16 0 0 0 72, 48L72, 384L28, 384A12 12 0 0 0 19.27, 404.24L87.27, 476.24A12 12 0 0 0 104.71, 476.24L172.71, 404.24A12 12 0 0 0 164, 384zM364.72, 107.76L296.72, 35.76A12 12 0 0 0 279.28, 35.76L211.28, 107.76A12 12 0 0 0 220, 128L264, 128L264, 464A16 16 0 0 0 280, 480L296, 480A16 16 0 0 0 312, 464L312, 128L356, 128A12 12 0 0 0 364.72, 107.76z" fill="#727272" fill-opacity="1" class="Black" />
  </g>
</svg>