<?xml version='1.0' encoding='UTF-8'?>
<svg viewBox="-1.5012 0 32 31.9975" xmlns="http://www.w3.org/2000/svg">
  <g transform="matrix(0.0625, 0, 0, 0.0625, 0, 0)">
    <path d="M104.72, 35.76A12 12 0 0 0 87.27, 35.76L19.27, 107.76A12 12 0 0 0 28, 128L72, 128L72, 464A16 16 0 0 0 88, 480L104, 480A16 16 0 0 0 120, 464L120, 128L164, 128A12 12 0 0 0 172.73, 107.76zM264, 224L408, 224A24 24 0 0 0 432, 200L432, 56A24 24 0 0 0 408, 32L264, 32A24 24 0 0 0 240, 56L240, 200A24 24 0 0 0 264, 224zM288, 80L384, 80L384, 176L288, 176zM444.1, 438.86L361, 301.71A29.56 29.56 0 0 0 311.1, 301.71L227.9, 438.86C216.82, 457.14 230.67, 480 252.85, 480L419.15, 480C441.33, 480 455.18, 457.14 444.1, 438.86zM288.19, 432L336, 353.14L383.81, 432z" fill="#727272" fill-opacity="1" class="Black" />
  </g>
</svg>