<?xml version='1.0' encoding='UTF-8'?>
<svg viewBox="-1.0906 -1.5441 32 31.9975" xmlns="http://www.w3.org/2000/svg">
  <g transform="matrix(0.9993, 0, 0, 0.9993, 0, 0)">
    <g transform="matrix(0.0565, 0, 0, 0.0565, 0, 0)">
      <path d="M304, 376L240, 376A16 16 0 0 0 224, 392L224, 408A16 16 0 0 0 240, 424L304, 424A16 16 0 0 0 320, 408L320, 392A16 16 0 0 0 304, 376zM28, 128L72, 128L72, 464A16 16 0 0 0 88, 480L104, 480A16 16 0 0 0 120, 464L120, 128L164, 128A12 12 0 0 0 172.73, 107.76L104.73, 35.76A12 12 0 0 0 87.29, 35.76L19.29, 107.76A12 12 0 0 0 28, 128zM432, 184L240, 184A16 16 0 0 0 224, 200L224, 216A16 16 0 0 0 240, 232L432, 232A16 16 0 0 0 448, 216L448, 200A16 16 0 0 0 432, 184zM496, 88L240, 88A16 16 0 0 0 224, 104L224, 120A16 16 0 0 0 240, 136L496, 136A16 16 0 0 0 512, 120L512, 104A16 16 0 0 0 496, 88zM368, 280L240, 280A16 16 0 0 0 224, 296L224, 312A16 16 0 0 0 240, 328L368, 328A16 16 0 0 0 384, 312L384, 296A16 16 0 0 0 368, 280z" fill="#727272" fill-opacity="1" class="Black" />
    </g>
  </g>
</svg>