<?xml version='1.0' encoding='UTF-8'?>
<svg viewBox="-1.5012 0 32 31.9975" xmlns="http://www.w3.org/2000/svg">
  <g transform="matrix(0.0625, 0, 0, 0.0625, 0, 0)">
    <path d="M164, 384L120, 384L120, 48A16 16 0 0 0 104, 32L88, 32A16 16 0 0 0 72, 48L72, 384L28, 384A12 12 0 0 0 19.27, 404.24L87.27, 476.24A12 12 0 0 0 104.71, 476.24L172.71, 404.24A12 12 0 0 0 164, 384zM444.1, 182.86L361, 45.71A29.56 29.56 0 0 0 311.1, 45.71L227.9, 182.86C216.82, 201.14 230.67, 224 252.85, 224L419.15, 224C441.33, 224 455.18, 201.14 444.1, 182.86zM288.19, 176L336, 97.14L383.81, 176zM408, 288L264, 288A24 24 0 0 0 240, 312L240, 456A24 24 0 0 0 264, 480L408, 480A24 24 0 0 0 432, 456L432, 312A24 24 0 0 0 408, 288zM384, 432L288, 432L288, 336L384, 336z" fill="#727272" fill-opacity="1" class="Black" />
  </g>
</svg>