<?xml version='1.0' encoding='UTF-8'?>
<svg viewBox="-1.0906 -1.5441 32 31.9975" xmlns="http://www.w3.org/2000/svg">
  <g transform="matrix(0.9993, 0, 0, 0.9993, 0, 0)">
    <g transform="matrix(0.0565, 0, 0, 0.0565, 0, 0)">
      <path d="M484, 256L252, 256A28 28 0 0 0 224, 284L224, 452A28 28 0 0 0 252, 480L484, 480A28 28 0 0 0 512, 452L512, 284A28 28 0 0 0 484, 256zM464, 432L272, 432L272, 304L464, 304zM244, 192L428, 192A20 20 0 0 0 448, 172L448, 52A20 20 0 0 0 428, 32L244, 32A20 20 0 0 0 224, 52L224, 172A20 20 0 0 0 244, 192zM272, 80L400, 80L400, 144L272, 144zM104.72, 35.76A12 12 0 0 0 87.28, 35.76L19.28, 107.76A12 12 0 0 0 28, 128L72, 128L72, 464A16 16 0 0 0 88, 480L104, 480A16 16 0 0 0 120, 464L120, 128L164, 128A12 12 0 0 0 172.73, 107.76z" fill="#727272" fill-opacity="1" class="Black" />
    </g>
  </g>
</svg>