<?xml version='1.0' encoding='UTF-8'?>
<svg viewBox="-1.9999 -1.9999 32 32" xmlns="http://www.w3.org/2000/svg">
  <g transform="matrix(0.0547, 0, 0, 0.0547, 0, 0)">
    <path d="M303.06, 146.5A16.23 16.23 0 0 0 319.06, 160L335.56, 160C345.36, 160 353.16, 151.5 351.86, 142A130.72 130.72 0 0 0 315.26, 67.3A94.83 94.83 0 0 1 288.86, 13.8A16.11 16.11 0 0 0 272.76, 0L256.36, 0C246.56, 0 238.86, 8.5 240.06, 18A145.36 145.36 0 0 0 280.66, 102.4A81.22 81.22 0 0 1 303.06, 146.5zM480, 192L32, 192A32 32 0 0 0 0, 224C0, 318.7 51.56, 401.16 128, 445.45L128, 480A32 32 0 0 0 160, 512L352, 512A32 32 0 0 0 384, 480L384, 445.45C460.44, 401.16 512, 318.7 512, 224A32 32 0 0 0 480, 192zM336, 417.78L336, 464L176, 464L176, 417.78C108.46, 378.65 55.73, 330.7 48.62, 240L463.38, 240C456.41, 328.93 405.41, 377.57 336, 417.78zM191.11, 146.5A16.23 16.23 0 0 0 207.11, 160L223.61, 160C233.41, 160 241.21, 151.5 239.91, 142A130.72 130.72 0 0 0 203.31, 67.3A94.83 94.83 0 0 1 176.91, 13.8A16.11 16.11 0 0 0 160.81, 0L144.41, 0A16.31 16.31 0 0 0 128.11, 18A145.36 145.36 0 0 0 168.71, 102.4A81.22 81.22 0 0 1 191.11, 146.5z" fill="#727272" fill-opacity="1" class="Black" />
  </g>
</svg>