<?xml version='1.0' encoding='UTF-8'?>
<svg viewBox="-2 -3.554 32 32" xmlns="http://www.w3.org/2000/svg">
  <g transform="matrix(0.0486, 0, 0, 0.0486, 0, 0)">
    <path d="M568.28, 192L568.24, 192C546.86, 192.1 483.75, 195.63 420.49, 228.03C393.9, 149.72 351.22, 81.45 298.76, 35.81C295.84, 33.27 291.93, 32 288.02, 32C284.11, 32 280.2, 33.27 277.28, 35.81C224.81, 81.45 182.12, 149.72 155.5, 228.04C92.25, 195.63 29.14, 192.1 7.75, 192L7.71, 192C3.32, 192 -0.05, 195.41 -0.01, 199.82C0.22, 227.74 7.13, 325.96 88.76, 399.12C170.99, 479.18 252.43, 480 285.87, 480L290.35, 480C323.92, 480 405.18, 479.02 487.23, 399.12C568.87, 325.95 575.77, 227.74 576, 199.82C576.04, 195.41 572.68, 192 568.28, 192zM122.26, 364.73L121.55, 364.04L120.81, 363.38C78.42, 325.39 60.59, 278.98 53.17, 244.17C91.95, 250.75 145.11, 267.48 188.09, 309.38L188.82, 310.1L189.58, 310.78C213.12, 331.84 230.8, 357.17 243.63, 388.21L261.42, 431.25C227.65, 428.6 175.81, 416.88 122.26, 364.73zM288, 369.86C274.95, 338.3 254.71, 304.63 221.59, 275C213.66, 267.27 205.32, 260.74 196.94, 254.38C217.02, 190.55 248.79, 133.64 288.02, 92.02C327.24, 133.64 358.98, 190.56 379.05, 254.38C370.68, 260.74 362.34, 267.27 354.41, 274.99C321.29, 304.63 301.05, 338.3 288, 369.86zM455.19, 363.38L454.45, 364.04L453.74, 364.73C400.1, 416.96 348.27, 428.64 314.56, 431.25L332.36, 388.2C345.19, 357.16 362.87, 331.84 386.41, 310.77L387.17, 310.09L387.9, 309.37C430.91, 267.45 484.1, 250.72 522.83, 244.15C515.42, 278.96 497.58, 325.38 455.19, 363.38z" fill="#727272" fill-opacity="1" class="Black" />
  </g>
</svg>