<?xml version='1.0' encoding='UTF-8'?>
<svg viewBox="-1.9999 -4.7979 32 31.9975" xmlns="http://www.w3.org/2000/svg">
  <g transform="matrix(1.0011, 0, 0, 1.0011, 0, 0)">
    <g transform="matrix(0.0437, 0, 0, 0.0437, 0, 0)">
      <path d="M456, 168C248, 168 266.989, 32 96, 32C51.335, 32 29.6, 56.39 29.6, 96L29.6, 152C9.056, 152 0, 162.568 0, 176L0, 224C0, 236.834 8.412, 248 29.6, 248L29.6, 264C9.056, 264 0, 274.568 0, 288L0, 336C0, 348.834 8.412, 360 29.6, 360L29.6, 416C29.6, 455.602 51.327, 480 96, 480C267.029, 480 248, 344 456, 344C552, 344 640, 310.5 640, 256C640, 205 552, 168 456, 168zM115.417, 80C181.277, 80 240, 144 288, 168L144, 168C130.001, 158.497 112.845, 152 96, 152L96, 80L115.417, 80zM115.417, 432L96, 432L96, 360C112.845, 360 130.001, 353.503 144, 344L288, 344C240, 368 190.513, 432 115.417, 432zM456, 304L168.786, 304C178.182, 274.707 178.629, 238.685 168.786, 208L456, 208C495.888, 208 532.728, 211.778 559.734, 224C559.824, 224.041 559.824, 287.959 559.734, 288C532.728, 300.222 495.888, 304 456, 304zM480.242, 292.571A8 8 0 0 1 472.242, 284.571L472.242, 227.428A8 8 0 0 1 480.242, 219.428C522.626, 219.429 522.545, 292.571 480.242, 292.571z" fill="#727272" fill-opacity="1" class="Black" />
    </g>
  </g>
</svg>