<?xml version='1.0' encoding='UTF-8'?>
<svg viewBox="-1.9999 -2.0061 31.9975 32" xmlns="http://www.w3.org/2000/svg">
  <g transform="matrix(0.9993, 0, 0, 0.9993, 0, 0)">
    <g transform="matrix(0.0547, 0, 0, 0.0547, 0, 0)">
      <path d="M256, 48C256, 48 430.6, 215.3 448.2, 240C458.2, 254.1 464.1, 271.4 464, 290.1C463.7, 337.2 424.5, 374.9 377.4, 374.9L376.6, 374.9C338.5, 374.6 327.7, 368.9 298.2, 338.7C297, 337.4 295.5, 336.9 294, 336.9C290.9, 336.9 288, 339.3 288, 342.9L288, 360C288, 397.7 285.7, 408.8 312.7, 442.9C319.5, 451.4 313.4, 464 302.5, 464L209.3, 464C198.4, 464 192.4, 451.4 199.1, 442.9C226.1, 408.9 223.8, 397.7 223.8, 360L223.8, 342.9C223.8, 339.3 220.8, 336.9 217.8, 336.9C216.3, 336.9 214.8, 337.5 213.6, 338.7C184.4, 368.6 173.5, 374.5 135.3, 374.9L134.5, 374.9C87.3, 374.9 48.1, 337.1 47.9, 289.8C47.8, 271.1 53.8, 253.8 63.9, 239.7C81.6, 215.2 256, 48 256, 48M256, 0C244, 0 232.1, 4.5 222.8, 13.4C222.4, 13.8 178.5, 55.9 133, 100.4C38.5, 193 29.4, 205.6 25, 211.7C8.5, 234.6 -0.1, 261.7 0, 289.9C0.3, 363.2 60.6, 422.8 134.6, 422.8L135.8, 422.8C142.8, 422.7 149.4, 422.5 155.8, 422C151.9, 429.2 149.5, 437.2 148.7, 445.5C147.7, 456.5 149.7, 467.6 154.6, 477.5C159.4, 487.5 166.8, 495.9 176, 502C185.9, 508.5 197.5, 512 209.5, 512L302.7, 512C314.7, 512 326.3, 508.5 336.2, 502C345.4, 495.9 352.8, 487.5 357.6, 477.5C362.4, 467.5 364.4, 456.5 363.5, 445.5C362.8, 437.2 360.3, 429.3 356.4, 422C362.8, 422.5 369.4, 422.8 376.4, 422.8L377.6, 422.8C413, 422.8 446.5, 409.2 471.9, 384.5C497.6, 359.5 511.9, 326 512.2, 290.4C512.4, 262.2 503.9, 235.1 487.5, 212.1C483.1, 206 474, 193.2 379.3, 100.4C333.8, 55.8 289.9, 13.7 289.4, 13.3C279.9, 4.4 268, 0 256, 0z" fill="#727272" fill-opacity="1" class="Black" />
    </g>
  </g>
</svg>