<?xml version='1.0' encoding='UTF-8'?>
<svg viewBox="12.986 -1.3626 32 32" xmlns="http://www.w3.org/2000/svg">
  <g transform="matrix(0.0763, 0, 0, 0.0763, 0, 0)">
    <path d="M460.116, 373.846L439.293, 361.824C433.752, 358.625 431.753, 351.665 434.63, 345.95C464.767, 286.064 462.973, 214.298 429.244, 156.004C395.603, 97.61 334.348, 60.171 267.417, 56.328C261.028, 55.961 256, 50.751 256, 44.352L256, 20.309C256, 13.405 261.808, 7.972 268.703, 8.327C352.259, 12.633 428.866, 59.191 470.813, 132.004C512.876, 204.7 514.892, 294.32 476.844, 368.836C473.704, 374.984 466.094, 377.297 460.116, 373.846z" fill="#727272" fill-opacity="1" class="Black" />
  </g>
</svg>