<?xml version='1.0' encoding='UTF-8'?>
<svg viewBox="-1.549 -1.5478 32 31.9975" xmlns="http://www.w3.org/2000/svg">
  <g transform="matrix(0.999, 0, 0, 0.999, 0, 0)">
    <g transform="matrix(0.0565, 0, 0, 0.0565, 0, 0)">
      <path d="M296, 48C296, 70.091 278.091, 88 256, 88C233.909, 88 216, 70.091 216, 48C216, 25.909 233.909, 8 256, 8C278.091, 8 296, 25.909 296, 48zM256, 424C233.909, 424 216, 441.909 216, 464C216, 486.091 233.909, 504 256, 504C278.091, 504 296, 486.091 296, 464C296, 441.909 278.091, 424 256, 424zM504, 256C504, 233.909 486.091, 216 464, 216C441.909, 216 424, 233.909 424, 256C424, 278.091 441.909, 296 464, 296C486.091, 296 504, 278.091 504, 256zM88, 256C88, 233.909 70.091, 216 48, 216C25.909, 216 8, 233.909 8, 256C8, 278.091 25.909, 296 48, 296C70.091, 296 88, 278.091 88, 256zM108.922, 68.922C86.831, 68.922 68.922, 86.831 68.922, 108.922C68.922, 131.013 86.831, 148.922 108.922, 148.922C131.013, 148.922 148.922, 131.013 148.922, 108.922C148.922, 86.83 131.013, 68.922 108.922, 68.922zM403.078, 363.078C380.987, 363.078 363.078, 380.987 363.078, 403.078C363.078, 425.169 380.987, 443.078 403.078, 443.078C425.17, 443.078 443.078, 425.169 443.078, 403.078C443.078, 380.987 425.17, 363.078 403.078, 363.078zM108.922, 363.078C86.831, 363.078 68.922, 380.987 68.922, 403.078C68.922, 425.169 86.831, 443.078 108.922, 443.078C131.013, 443.078 148.922, 425.169 148.922, 403.078C148.922, 380.987 131.013, 363.078 108.922, 363.078z" fill="#727272" fill-opacity="1" class="Black" />
    </g>
  </g>
</svg>