<?xml version='1.0' encoding='UTF-8'?>
<svg viewBox="-1.9998 -1.9986 32 31.9975" xmlns="http://www.w3.org/2000/svg">
  <g transform="matrix(0.0547, 0, 0, 0.0547, 0, 0)">
    <path d="M459.67, 179.63L398.92, 159.14C389.23, 155.86 381.92, 149.09 379.89, 141.44L365.39, 87.47C358.55, 62.03 337.7, 42.42 309.64, 35.05C278.77, 26.99 246.55, 35.22 225.42, 56.71L183.61, 99.26C176.61, 106.42 164.99, 110.28 153.45, 109.4L88.3, 104.38C54.74, 101.96 23.27, 117.58 8.4, 144.59C-4.47, 167.97 -2.47, 194.91 13.74, 216.64L48.64, 263.42C53.26, 269.61 53.98, 276.58 50.67, 283.09L24.92, 333.97C13.08, 357.33 15.67, 383.82 31.89, 404.82C51.14, 429.81 84.89, 441.29 117.98, 434.2L181.38, 420.56C192.72, 418.06 205.16, 420.51 213.75, 426.84L263, 463.28C277.87, 474.31 296.28, 480 314.87, 480C327.56, 480 340.31, 477.36 352.12, 471.97C377.53, 460.38 393.87, 438.2 395.87, 412.62L400.12, 357.38C400.68, 349.94 406.15, 342.91 414.78, 338.58L470.97, 310.23C498.19, 296.49 513.84, 270.6 511.84, 242.68C509.8, 213.96 489.8, 189.78 459.67, 179.63zM449.33, 267.38L393.14, 295.73C369.39, 307.71 354.11, 329.39 352.24, 353.7L347.99, 408.94C347.12, 420.32 336.65, 426.27 332.18, 428.3C321.99, 432.93 305.18, 434.8 291.56, 424.72L242.34, 388.27C227.68, 377.41 209.15, 371.6 190.31, 371.6C183.97, 371.6 177.56, 372.27 171.28, 373.62L107.88, 387.26C90.88, 391.01 76.48, 384.03 69.91, 375.51C65.04, 369.18 64.29, 362.49 67.75, 355.67L93.5, 304.8C104.97, 282.22 102.53, 255.36 87.13, 234.7L52.23, 187.92C47.29, 181.33 46.7, 174.53 50.45, 167.73C54.89, 159.71 66.48, 150.98 84.64, 152.21L149.79, 157.23C175.04, 159.31 200.91, 150.14 217.88, 132.88L259.69, 90.32C268.56, 81.27 283.38, 77.79 297.44, 81.46C308.66, 84.41 316.72, 91.3 319.03, 99.93L333.53, 153.87C339.78, 177.18 358.5, 196.14 383.62, 204.61L444.37, 225.1C455.99, 229.02 463.31, 236.88 463.96, 246.1C464.58, 254.63 459.24, 262.39 449.33, 267.38z" fill="#727272" fill-opacity="1" class="Black" />
  </g>
</svg>