<?xml version='1.0' encoding='UTF-8'?>
<svg viewBox="-2 -1.9988 32 32" xmlns="http://www.w3.org/2000/svg">
  <g transform="matrix(0.0547, 0, 0, 0.0547, 0, 0)">
    <path d="M174.06, 480C156.22, 480 140.18, 470.08 132.25, 454.11L49.19, 288L16, 288C7.16, 288 0, 280.84 0, 272L0, 256C0, 247.16 7.16, 240 16, 240L54.12, 240C69.28, 240 83.15, 248.57 89.93, 262.13L165.58, 413.46C168.89, 420.09 178.66, 419.04 180.49, 411.86L277.68, 62.62C282.09, 44.58 298.09, 32 316.59, 32L496, 32C504.84, 32 512, 39.16 512, 48L512, 64C512, 72.84 504.84, 80 496, 80L322.88, 80L219.56, 444.2C214.47, 465.28 195.75, 480 174.06, 480z" fill="#727272" fill-opacity="1" class="Black" />
  </g>
</svg>