<?xml version='1.0' encoding='UTF-8'?>
<svg viewBox="-2 0 32 32" xmlns="http://www.w3.org/2000/svg">
  <g transform="matrix(0.0625, 0, 0, 0.0625, 0, 0)">
    <path d="M400, 32L48, 32C21.5, 32 0, 53.5 0, 80L0, 432C0, 458.5 21.5, 480 48, 480L400, 480C426.5, 480 448, 458.5 448, 432L448, 80C448, 53.5 426.5, 32 400, 32zM394, 432L54, 432C50.7, 432 48, 429.3 48, 426L48, 86C48, 82.7 50.7, 80 54, 80L394, 80C397.3, 80 400, 82.7 400, 86L400, 426C400, 429.3 397.3, 432 394, 432z" fill="#727272" fill-opacity="1" class="Black" />
  </g>
</svg>