<?xml version='1.0' encoding='UTF-8'?>
<svg viewBox="-2 -2 32 32" xmlns="http://www.w3.org/2000/svg">
  <g transform="matrix(0.0547, 0, 0, 0.0547, 0, 0)">
    <path d="M480, 256C497.67, 256 512, 241.67 512, 224L512, 192C512, 133.56 474.91, 86.12 424, 74.66L424, 48C424, 34.75 413.25, 24 400, 24C344.58, 24 311.27, 66.76 293.44, 97.23C265.04, 42.96 206.07, 0 147.72, 0C66.28, 0 0, 66.27 0, 147.73C0, 216.76 47.59, 274.89 111.69, 291.03L102.88, 309.33C84.24, 358.24 91.33, 409.45 125.51, 452.14C156.89, 491.34 206.05, 512 256.26, 512L496, 512C504.22, 512 511.57, 505.78 511.96, 497.57C512.84, 479.18 498.19, 464 480, 464L450.15, 464C462.87, 445.62 472, 423.52 472, 400C472, 348.67 441.94, 310.33 396.16, 299.25L404.04, 256L480, 256zM353.3, 344C373.8, 344 394.13, 351.13 408.61, 365.63C450.44, 407.52 395.21, 458.67 381.64, 464L242.44, 464C186.41, 464 140.82, 418.41 140.82, 362.36C140.82, 350.58 143.16, 338.48 146.94, 328.31L185.97, 247.47L151.19, 247.47C100.51, 247.47 55.29, 211.13 48.85, 160.85C41.05, 100.03 88.4, 48 147.72, 48C202.63, 48 262.94, 108.3 262.94, 163.2L263.38, 163.2L209.05, 293.88C205.66, 302.04 209.52, 311.4 217.68, 314.8L232.44, 320.94C240.6, 324.34 249.97, 320.47 253.36, 312.31L325.47, 138.73C341.47, 106.75 357.91, 86.78 376, 77.71L376, 120L400, 120C435.88, 120 464, 151.62 464, 192L464, 208L363.97, 208L339.25, 344L353.3, 344zM400, 176C408.84, 176 416, 168.84 416, 160C416, 151.16 408.84, 144 400, 144C391.16, 144 384, 151.16 384, 160C384, 168.84 391.16, 176 400, 176z" fill="#727272" fill-opacity="1" class="Black" />
  </g>
</svg>