<?xml version='1.0' encoding='UTF-8'?>
<svg viewBox="-2 -2 32 32" xmlns="http://www.w3.org/2000/svg">
  <g transform="matrix(0.0547, 0, 0, 0.0547, 0, 0)">
    <path d="M448, 0L371.77, 0A64 64 0 0 0 314.53, 35.38L298.53, 67.38C294.58, 75.28 297.78, 84.89 305.68, 88.84L334.31, 103.15C342.21, 107.1 351.82, 103.9 355.78, 96L371.78, 64L448, 64L448, 167.86L279.08, 216.14A159.974 159.974 0 0 0 209.93, 256.83L146.75, 320L112, 320C103.16, 320 96, 327.16 96, 336L96, 370.75L4.69, 462.06C-1.56, 468.31 -1.56, 478.44 4.69, 484.69L27.31, 507.31C33.56, 513.56 43.69, 513.56 49.94, 507.31L255.15, 302.1A96.027 96.027 0 0 1 296.69, 277.66L367, 257.56L402.14, 277.85C409.79, 282.27 419.58, 279.65 424, 271.99L445.24, 235.2L465.59, 229.38C493.06, 221.53 512, 196.42 512, 167.85L512, 64C512, 28.65 483.35, 0 448, 0z" fill="#727272" fill-opacity="1" class="Black" />
  </g>
</svg>