<?xml version='1.0' encoding='UTF-8'?>
<svg viewBox="-2 -2 32 32" xmlns="http://www.w3.org/2000/svg">
  <g transform="matrix(0.0547, 0, 0, 0.0547, 0, 0)">
    <path d="M416, 256L349.44, 256C333.18, 256 320, 242.82 320, 226.56L320, 217.1C320, 189.73 328.88, 163.68 341.46, 139.37C350.57, 121.76 354.36, 100.99 350.51, 78.95C343.74, 40.17 312.04, 8.25 273.25, 1.5C267.41, 0.49 261.65, 0 256, 0C202.98, 0 160, 42.98 160, 96C160, 110.16 163.12, 123.54 168.68, 135.57C182.02, 164.43 192, 194.71 192, 226.5L192, 226.56C192, 242.82 178.82, 256 162.56, 256L96, 256C42.98, 256 0, 298.98 0, 352L0, 400C0, 408.84 7.16, 416 16, 416L32, 416L32, 480C32, 497.67 46.33, 512 64, 512L448, 512C465.67, 512 480, 497.67 480, 480L480, 416L496, 416C504.84, 416 512, 408.84 512, 400L512, 352C512, 298.98 469.02, 256 416, 256zM48, 352C48, 325.53 69.53, 304 96, 304L162.56, 304C205.26, 304 240, 269.26 240, 226.5C240, 191.68 231.18, 156.39 212.26, 115.44C209.43, 109.32 208, 102.78 208, 96C208, 69.53 229.53, 48 256, 48C258.96, 48 262, 48.27 265.02, 48.79C283.84, 52.07 299.91, 68.22 303.22, 87.21C305.09, 97.92 303.61, 108.06 298.82, 117.32C280.78, 152.21 272, 184.85 272, 217.1L272, 226.56C272, 269.26 306.74, 304 349.44, 304L416, 304C442.47, 304 464, 325.53 464, 352L464, 368L48, 368L48, 352zM432, 464L80, 464L80, 416L432, 416L432, 464z" fill="#727272" fill-opacity="1" class="Black" />
  </g>
</svg>