<?xml version='1.0' encoding='UTF-8'?>
<svg viewBox="-2.0035 -1.9999 32 31.9975" xmlns="http://www.w3.org/2000/svg">
  <g transform="matrix(0.0547, 0, 0, 0.0547, 0, 0)">
    <path d="M487.7, 224.9L365.9, 194.4L426.6, 119C434.4, 109.2 433.7, 95.8 424.9, 87C416.1, 78.2 402.7, 77.6 392.9, 85.3L317.4, 145.7L287.1, 24.3C283.5, 10 270.7, 0 256, 0L255.9, 0C241.1, 0 228.4, 10 224.9, 24.3L194.4, 146.2L119, 85.5C109.2, 77.7 95.8, 78.4 87, 87.2C78.2, 96 77.5, 109.4 85.3, 119.2L145.7, 194.7L24.3, 224.9C10, 228.5 0, 241.3 0, 256C0, 270.7 10, 283.5 24.3, 287.1L146.1, 317.6L85.4, 393C77.6, 402.8 78.3, 416.2 87.1, 425C91.8, 429.7 97.9, 432.1 103.9, 432.1C109.2, 432.1 114.5, 430.3 119, 426.7L194.5, 366.3L224.9, 487.8C228.4, 502.1 241.2, 512.1 255.9, 512.1L256, 512.1C270.7, 512.1 283.5, 502.1 287.1, 487.8L317.6, 366L393, 426.7C397.5, 430.3 402.8, 432.1 408.1, 432.1C414.2, 432.1 420.2, 429.7 424.9, 425C433.7, 416.2 434.4, 402.8 426.6, 393L366.2, 317.5L487.7, 287.1C502, 283.5 512, 270.7 512, 256C512, 241.3 502, 228.5 487.7, 224.9zM287.6, 287.6L256, 414.1L224.4, 287.6L97.9, 256L224.4, 224.4L256, 97.9L287.6, 224.4L414.1, 256L287.6, 287.6z" fill="#727272" fill-opacity="1" class="Black" />
  </g>
</svg>