<?xml version='1.0' encoding='UTF-8'?>
<svg viewBox="-1.9988 -2 32 32" xmlns="http://www.w3.org/2000/svg">
  <g transform="matrix(0.0547, 0, 0, 0.0547, 0, 0)">
    <path d="M364.3, 267.3L259.5, 252L212.6, 156.8C208.4, 148.3 200.2, 144 191.9, 144C183.7, 144 175.6, 148.2 171.4, 156.8L124.5, 252L19.7, 267.3C0.9, 270 -6.7, 293.2 7, 306.5L82.9, 380.5L64.9, 485.1C62.3, 500 74.2, 512 87.5, 512C91, 512 94.7, 511.2 98.2, 509.3L192, 459.9L285.8, 509.3C289.3, 511.1 292.9, 512 296.4, 512C309.7, 512 321.6, 500.1 319.1, 485.1L301.2, 380.5L377.1, 306.5C390.7, 293.2 383.1, 270 364.3, 267.3zM267.6, 346.2L249.5, 363.8L253.8, 388.7L263.2, 443.2L214.3, 417.5L192, 405.7L169.6, 417.5L120.7, 443.2L130.1, 388.7L134.4, 363.8L116.3, 346.2L76.6, 307.5L131.4, 299.5L156.4, 295.9L167.6, 273.3L192, 223.7L216.4, 273.3L227.6, 295.9L252.6, 299.5L307.4, 307.5L267.6, 346.2zM336, 160L362.7, 106.7L416, 80L362.7, 53.3L336, 0L309.3, 53.3L256, 80L309.3, 106.7L336, 160zM480, 192L464, 160L448, 192L416, 208L448, 224L464, 256L480, 224L512, 208L480, 192z" fill="#727272" fill-opacity="1" class="Black" />
  </g>
</svg>