<?xml version='1.0' encoding='UTF-8'?>
<svg viewBox="-1.9999 -3.5552 32 32" xmlns="http://www.w3.org/2000/svg">
  <g transform="matrix(0.0486, 0, 0, 0.0486, 0, 0)">
    <path d="M368.85, 96C341.54, 96 316.96, 119.7 306.23, 156.36C299.99, 177.72 279.48, 262.57 133.07, 326.36C50.94, 362.12 123.42, 414.93 228.88, 414.93C301.64, 414.93 390.09, 389.81 454.33, 316.62C492.54, 273.09 487.13, 190.62 442.76, 140.03C417.86, 111.58 391.61, 96 368.85, 96zM384, 255.9A32 32 0 1 1 416, 223.9A32 32 0 0 1 384, 255.9zM514.92, 76.65C467.92, 23.11 416.28, 0 368.85, 0C298.27, 0 237, 51.17 214.1, 129.39C165, 269.32 1.37, 212.32 0, 351.63C-1.13, 467.49 126.32, 512 239.31, 512Q247.72, 512 256, 511.68C343.78, 508.27 443.32, 474.58 526.49, 379.83C596.78, 299.75 591.6, 164 514.92, 76.65zM490.42, 348.16C410.53, 439.16 317.83, 461.24 254.14, 463.71Q246.77, 464 239.31, 464C167.62, 464 103.48, 444.2 71.92, 412.34C55.59, 395.85 47.77, 376.15 48, 352.1C48.38, 312.58 63.05, 304.44 113.88, 282.31C162.4, 261.18 228.88, 232.25 259.38, 145.31L259.8, 144.11L260.15, 142.89C277, 85.24 319.69, 48 368.85, 48C406.17, 48 444.21, 68.86 478.85, 108.32C539, 176.9 544.34, 286.73 490.42, 348.16z" fill="#727272" fill-opacity="1" class="Black" />
  </g>
</svg>