<?xml version='1.0' encoding='UTF-8'?>
<svg viewBox="-2.0025 -0.0029 32 32" xmlns="http://www.w3.org/2000/svg">
  <g transform="matrix(0.0625, 0, 0, 0.0625, 0, 0)">
    <path d="M76, 480L100, 480C106.6, 480 112, 474.6 112, 468L112, 285L331.5, 472.6C352.1, 489.8 384, 475.4 384, 448L384, 64C384, 36.6 352.1, 22.2 331.5, 39.4L112, 228.1L112, 44C112, 37.4 106.6, 32 100, 32L76, 32C69.4, 32 64, 37.4 64, 44L64, 468C64, 474.6 69.4, 480 76, 480zM336, 98.5L336, 413.6L149.3, 256.5L336, 98.5z" fill="#727272" fill-opacity="1" class="Black" />
  </g>
</svg>