<?xml version='1.0' encoding='UTF-8'?>
<svg viewBox="-2 -1.9988 32 32" xmlns="http://www.w3.org/2000/svg">
  <g transform="matrix(0.0547, 0, 0, 0.0547, 0, 0)">
    <path d="M120, 334L120, 352C120, 440.2 195.4, 512 288, 512C380.6, 512 456, 440.2 456, 352L456, 252.3C488.3, 242.2 511.7, 212.1 512, 176.6C512.3, 133.2 477.4, 97 433.9, 96C388.9, 95 352, 131.2 352, 176C352, 211.8 375.5, 242.1 408, 252.3L408, 352C408, 413.8 354.2, 464 288, 464C221.8, 464 168, 413.8 168, 352L168, 334C236, 322.5 288, 263.2 288, 192L288, 27.5C288, 21.9 284.1, 17 278.6, 15.8L208.9, 0.3C202.4, -1.1 196, 2.9 194.6, 9.4L189.4, 32.8C188, 39.3 192, 45.7 198.5, 47.1L240, 56.3L240, 190.7C240, 243.6 197.8, 287.4 144.9, 287.9C91.6, 288.5 48, 245.3 48, 192L48, 56.4L89.5, 47.2C96, 45.8 100, 39.4 98.6, 32.9L93.4, 9.4C92, 2.9 85.5, -1.1 79.1, 0.3L9.4, 15.8C3.9, 17 0, 21.9 0, 27.5L0, 192C0, 263.2 52, 322.5 120, 334zM432, 144C449.6, 144 464, 158.4 464, 176C464, 193.6 449.6, 208 432, 208C414.4, 208 400, 193.6 400, 176C400, 158.4 414.4, 144 432, 144z" fill="#727272" fill-opacity="1" class="Black" />
  </g>
</svg>