<?xml version='1.0' encoding='UTF-8'?>
<svg viewBox="-1.9998 -0.0013 31.9975 32" xmlns="http://www.w3.org/2000/svg">
  <g transform="matrix(0.0625, 0, 0, 0.0625, 0, 0)">
    <path d="M448, 348.106L448, 80C448, 53.49 426.51, 32 400, 32L48, 32C21.49, 32 0, 53.49 0, 80L0, 431.988C0, 458.498 21.49, 479.988 48, 479.988L316.118, 479.988A48 48 0 0 0 350.059, 465.929L433.941, 382.047A48 48 0 0 0 448, 348.106zM320, 428.106L320, 351.988L396.118, 351.988L320, 428.106zM400, 80L400, 303.988L296, 303.988C282.745, 303.988 272, 314.733 272, 327.988L272, 431.988L48, 431.988L48, 80L400, 80z" fill="#727272" fill-opacity="1" class="Black" />
  </g>
</svg>