<?xml version='1.0' encoding='UTF-8'?>
<svg viewBox="-2 -2 32 32" xmlns="http://www.w3.org/2000/svg">
  <g transform="matrix(0.0547, 0, 0, 0.0547, 0, 0)">
    <path d="M397.91, 96.75C341.63, 90.74 292.2, 121.69 269.45, 168L256, 168C216.24, 168 184, 135.76 184, 96L184, 16C184, 7.16 176.84, 0 168, 0L152, 0C143.16, 0 136, 7.16 136, 16L136, 96C136, 162.27 189.73, 216 256, 216L256.81, 216C256.64, 218.7 256, 221.26 256, 224L256, 288C256, 327.76 223.76, 360 184, 360L120, 360C53.73, 360 0, 413.73 0, 480L0, 496C0, 504.84 7.16, 512 16, 512L32, 512C40.84, 512 48, 504.84 48, 496L48, 480C48, 479.6 48, 479.21 48.01, 478.82C48.84, 427.44 112.1, 402.02 151.99, 434.42L189.23, 464.67C217.49, 487.63 250.89, 504.39 286.91, 509.76C407.75, 527.79 512, 434.23 512, 316.78L512, 229.6C512, 163.23 463.91, 103.79 397.91, 96.75zM316.78, 464C283.09, 464 250.12, 452.3 223.94, 431.05L194.97, 407.5C241.57, 403.26 280.36, 372.2 296.21, 330L296.47, 330.69C320.78, 321.57 350.85, 325.05 369.53, 339.16C389.62, 354.33 416.22, 362.3 443.06, 362.3C447.53, 362.3 451.97, 361.59 456.42, 361.14C437.47, 420.55 382.41, 464 316.78, 464zM464, 311.11C441.26, 317.14 415.31, 313.6 398.47, 300.84C373.11, 281.69 337.47, 274.23 304, 279.56L304, 224C304, 179.89 339.88, 144 384, 144C428.12, 144 464, 179.89 464, 224L464, 311.11z" fill="#727272" fill-opacity="1" class="Black" />
  </g>
</svg>