<?xml version='1.0' encoding='UTF-8'?>
<svg viewBox="-3.7483 -2 32 32" xmlns="http://www.w3.org/2000/svg">
  <g transform="matrix(0.0547, 0, 0, 0.0547, 0, 0)">
    <path d="M393.9, 184L416.5, 161.4C421.2, 156.7 421.2, 149.1 416.5, 144.4L399.5, 127.4C394.8, 122.7 387.2, 122.7 382.5, 127.4L361.8, 148.1C330.7, 120.6 291.4, 102.2 248, 97.3L248, 48L276, 48C282.6, 48 288, 42.6 288, 36L288, 12C288, 5.4 282.6, 0 276, 0L172, 0C165.4, 0 160, 5.4 160, 12L160, 36C160, 42.6 165.4, 48 172, 48L200, 48L200, 97.4C96.4, 109.3 16, 197.2 16, 304C16, 418.9 109.1, 512 224, 512C338.9, 512 432, 418.9 432, 304C432, 259.3 417.9, 217.9 393.9, 184zM224, 464C135.6, 464 64, 392.4 64, 304C64, 215.6 135.6, 144 224, 144C312.4, 144 384, 215.6 384, 304C384, 392.4 312.4, 464 224, 464zM236, 352L212, 352C205.4, 352 200, 346.6 200, 340L200, 204C200, 197.4 205.4, 192 212, 192L236, 192C242.6, 192 248, 197.4 248, 204L248, 340C248, 346.6 242.6, 352 236, 352z" fill="#727272" fill-opacity="1" class="Black" />
  </g>
</svg>