<?xml version='1.0' encoding='UTF-8'?>
<svg viewBox="-1.9973 -4.8002 31.995 32" xmlns="http://www.w3.org/2000/svg">
  <g transform="matrix(0.9988, 0, 0, 0.9988, 0, 0)">
    <g transform="matrix(0.0438, 0, 0, 0.0438, 0, 0)">
      <path d="M635.7, 176.1L544.3, 16.1C538.6, 6.2 528, 0 516.5, 0L123.5, 0C112, 0 101.4, 6.2 95.7, 16.1L4.3, 176.1C-7.9, 197.5 7.4, 224 32, 224L64, 224L64, 476.8C64, 496.2 78.3, 512 96, 512L352, 512C369.7, 512 384, 496.2 384, 476.8L384, 224L528, 224L528, 496C528, 504.8 535.2, 512 544, 512L560, 512C568.8, 512 576, 504.8 576, 496L576, 224L608, 224C632.6, 224 647.9, 197.5 635.7, 176.1zM336, 464L112, 464L112, 368.2L336, 368.2L336, 464zM336, 320.2L112, 320.2L112, 224L336, 224L336, 320.2zM59.6, 176L132.7, 48L507.2, 48L580.3, 176L59.6, 176z" fill="#727272" fill-opacity="1" class="Black" />
    </g>
  </g>
</svg>