<?xml version='1.0' encoding='UTF-8'?>
<svg viewBox="-1.9974 -4.3626 31.9975 32" xmlns="http://www.w3.org/2000/svg">
  <g transform="matrix(0.999, 0, 0, 0.999, 0, 0)">
    <g transform="matrix(0.0455, 0, 0, 0.0455, 0, 0)">
      <path d="M602, 118.6L537.1, 15C531.3, 5.7 521, 0 510, 0L106, 0C95, 0 84.7, 5.7 78.9, 15L14, 118.6C-15.6, 165.8 4, 229.2 52, 249.4L52, 476.8C52, 496.2 66.3, 512 84, 512L532, 512C549.7, 512 564, 496.2 564, 476.8L564, 249.4C612, 229.2 631.6, 165.8 602, 118.6zM516, 464L100, 464L100, 368L516, 368zM515.8, 319.8L100, 319.8L100, 255.1C124, 251.8 145.1, 239.9 160.3, 222.9C178.3, 243 204.6, 256 234.1, 256C263.7, 256 289.9, 243 307.9, 222.9C325.9, 243 352.2, 256 381.7, 256C411.3, 256 437.5, 243 455.5, 222.9C470.8, 239.9 491.8, 251.8 515.8, 255.1zM563.7, 186.8C560.5, 193.6 552.8, 205.4 536.7, 207.6C534.3, 207.9 531.9, 208.1 529.5, 208.1C514.8, 208.1 501.3, 202 491.4, 190.9L455.7, 151L420, 190.8C410.1, 201.9 396.5, 208 381.9, 208C367.3, 208 353.7, 201.9 343.8, 190.8L308, 151L272.3, 190.8C262.4, 201.9 248.8, 208 234.2, 208C219.5, 208 206, 201.9 196.1, 190.8L160.3, 151L124.6, 190.8C114.7, 201.9 101.1, 208 86.5, 208C84, 208 81.6, 207.8 79.3, 207.5C63.3, 205.3 55.5, 193.6 52.3, 186.7C47.3, 175.9 45.2, 159.1 54.6, 144.1L114.8, 48L501.1, 48L561.3, 144.1C570.8, 159.2 568.8, 176 563.7, 186.8z" fill="#727272" fill-opacity="1" class="Black" />
    </g>
  </g>
</svg>