<?xml version='1.0' encoding='UTF-8'?>
<svg viewBox="-2 -1.9988 32 32" xmlns="http://www.w3.org/2000/svg">
  <g transform="matrix(0.0547, 0, 0, 0.0547, 0, 0)">
    <path d="M16, 128L432, 128C440.84, 128 448, 120.84 448, 112L448, 80C448, 71.16 440.84, 64 432, 64L16, 64C7.16, 64 0, 71.16 0, 80L0, 112C0, 120.84 7.16, 128 16, 128zM496, 224L80, 224C71.16, 224 64, 231.16 64, 240L64, 272C64, 280.84 71.16, 288 80, 288L496, 288C504.84, 288 512, 280.84 512, 272L512, 240C512, 231.16 504.84, 224 496, 224zM432, 384L16, 384C7.16, 384 0, 391.16 0, 400L0, 432C0, 440.84 7.16, 448 16, 448L432, 448C440.84, 448 448, 440.84 448, 432L448, 400C448, 391.16 440.84, 384 432, 384z" fill="#727272" fill-opacity="1" class="Black" />
  </g>
</svg>