<?xml version='1.0' encoding='UTF-8'?>
<svg viewBox="-2 -1.9988 32 32" xmlns="http://www.w3.org/2000/svg">
  <g transform="matrix(0.0547, 0, 0, 0.0547, 0, 0)">
    <path d="M150.39, 208L263.56, 208L217.25, 184.84A45.65 45.65 0 0 1 217.25, 103.16A67.93 67.93 0 0 1 247.56, 96L310, 96A45.59 45.59 0 0 1 346.49, 114.25L361.58, 134.38A16 16 0 0 0 383.98, 137.59L409.6, 118.4A16 16 0 0 0 412.81, 96L397.7, 75.84A109.44 109.44 0 0 0 310.1, 32L247.56, 32A132.49 132.49 0 0 0 188.62, 45.91C148.27, 66.08 124.43, 108.22 128.44, 153.91C130.2, 174 138.46, 192.28 150.39, 208zM496, 240L16, 240A16 16 0 0 0 0, 256L0, 272A16 16 0 0 0 16, 288L496, 288A16 16 0 0 0 512, 272L512, 256A16 16 0 0 0 496, 240zM403.5, 320L312.43, 320L326.75, 327.16A45.65 45.65 0 0 1 326.75, 408.84A67.93 67.93 0 0 1 296.44, 416L234, 416A45.59 45.59 0 0 1 197.51, 397.75L182.42, 377.62A16 16 0 0 0 160.02, 374.41L134.4, 393.6A16 16 0 0 0 131.19, 416L146.3, 436.17A109.44 109.44 0 0 0 233.9, 480L296.44, 480A132.42 132.42 0 0 0 355.37, 466.09C395.73, 445.92 419.57, 403.78 415.56, 358.09C414.37, 344.4 409.67, 331.82 403.5, 320z" fill="#727272" fill-opacity="1" class="Black" />
  </g>
</svg>