<?xml version='1.0' encoding='UTF-8'?>
<svg viewBox="-2 -0.2492 32 32" xmlns="http://www.w3.org/2000/svg">
  <g transform="matrix(0.0547, 0, 0, 0.0547, 0, 0)">
    <path d="M336, 64L283.72, 64A16 16 0 0 0 270.41, 71.12L176, 212.73L81.59, 71.12A16 16 0 0 0 68.28, 64L16, 64A16 16 0 0 0 0, 80L0, 96A16 16 0 0 0 16, 112L51.16, 112L147.16, 256L51.16, 400L16, 400A16 16 0 0 0 0, 416L0, 432A16 16 0 0 0 16, 448L68.28, 448A16 16 0 0 0 81.59, 440.88L176, 299.27L270.41, 440.88A16 16 0 0 0 283.72, 448L336, 448A16 16 0 0 0 352, 432L352, 416A16 16 0 0 0 336, 400L300.84, 400L204.84, 256L300.84, 112L336, 112A16 16 0 0 0 352, 96L352, 80A16 16 0 0 0 336, 64zM496, 464L472, 464L472, 304A16 16 0 0 0 456, 288L424, 288A16 16 0 0 0 409.71, 296.83L393.71, 328.83A16 16 0 0 0 408, 352L424, 352L424, 464L400, 464A16 16 0 0 0 384, 480L384, 496A16 16 0 0 0 400, 512L496, 512A16 16 0 0 0 512, 496L512, 480A16 16 0 0 0 496, 464z" fill="#727272" fill-opacity="1" class="Black" />
  </g>
</svg>