<?xml version='1.0' encoding='UTF-8'?>
<svg viewBox="-5.5003 -2 32 32" xmlns="http://www.w3.org/2000/svg">
  <g transform="matrix(0.0547, 0, 0, 0.0547, 0, 0)">
    <path d="M336, 128L288, 128L288, 48C288, 21.49 266.51, 0 240, 0L144, 0C117.49, 0 96, 21.49 96, 48L96, 128L48, 128C21.49, 128 0, 149.49 0, 176L0, 432C0, 458.51 21.49, 480 48, 480L64, 480L64, 496C64, 504.84 71.16, 512 80, 512L112, 512C120.84, 512 128, 504.84 128, 496L128, 480L256, 480L256, 496C256, 504.84 263.16, 512 272, 512L304, 512C312.84, 512 320, 504.84 320, 496L320, 480L336, 480C362.51, 480 384, 458.51 384, 432L384, 176C384, 149.49 362.51, 128 336, 128zM144, 48L240, 48L240, 128L144, 128L144, 48zM336, 432L48, 432L48, 176L336, 176L336, 432zM104, 384L280, 384C284.42, 384 288, 380.42 288, 376L288, 344C288, 339.58 284.42, 336 280, 336L104, 336C99.58, 336 96, 339.58 96, 344L96, 376C96, 380.42 99.58, 384 104, 384zM104, 272L280, 272C284.42, 272 288, 268.42 288, 264L288, 232C288, 227.58 284.42, 224 280, 224L104, 224C99.58, 224 96, 227.58 96, 232L96, 264C96, 268.42 99.58, 272 104, 272z" fill="#727272" fill-opacity="1" class="Black" />
  </g>
</svg>