<?xml version='1.0' encoding='UTF-8'?>
<svg viewBox="-2 -1.9988 32 32" xmlns="http://www.w3.org/2000/svg">
  <g transform="matrix(0.0547, 0, 0, 0.0547, 0, 0)">
    <path d="M464, 128L384, 128L384, 80C384, 53.5 362.5, 32 336, 32L176, 32C149.5, 32 128, 53.5 128, 80L128, 128L48, 128C21.5, 128 0, 149.5 0, 176L0, 432C0, 458.5 21.5, 480 48, 480L464, 480C490.5, 480 512, 458.5 512, 432L512, 176C512, 149.5 490.5, 128 464, 128zM176, 80L336, 80L336, 128L176, 128L176, 80zM48, 432L48, 176L128, 176L128, 432L48, 432zM176, 432L176, 176L336, 176L336, 432L176, 432zM464, 432L384, 432L384, 176L464, 176L464, 432z" fill="#727272" fill-opacity="1" class="Black" />
  </g>
</svg>