<?xml version='1.0' encoding='UTF-8'?>
<svg viewBox="-1.9998 -4.8002 31.9975 32" xmlns="http://www.w3.org/2000/svg">
  <g transform="matrix(0.9988, 0, 0, 0.9988, 0, 0)">
    <g transform="matrix(0.0438, 0, 0, 0.0438, 0, 0)">
      <path d="M80, 336L416, 336C424.8, 336 432, 328.8 432, 320L432, 304C432, 295.2 424.8, 288 416, 288L80, 288C71.2, 288 64, 295.2 64, 304L64, 320C64, 328.8 71.2, 336 80, 336zM624, 288L496, 288C487.2, 288 480, 295.2 480, 304L480, 320C480, 328.8 487.2, 336 496, 336L624, 336C632.8, 336 640, 328.8 640, 320L640, 304C640, 295.2 632.8, 288 624, 288zM208, 464L80, 464C71.2, 464 64, 471.2 64, 480L64, 496C64, 504.8 71.2, 512 80, 512L208, 512C216.8, 512 224, 504.8 224, 496L224, 480C224, 471.2 216.8, 464 208, 464zM624, 464L288, 464C279.2, 464 272, 471.2 272, 480L272, 496C272, 504.8 279.2, 512 288, 512L624, 512C632.8, 512 640, 504.8 640, 496L640, 480C640, 471.2 632.8, 464 624, 464zM576, 408L576, 392C576, 383.2 568.8, 376 560, 376L16, 376C7.2, 376 0, 383.2 0, 392L0, 408C0, 416.8 7.2, 424 16, 424L560, 424C568.8, 424 576, 416.8 576, 408zM194.7, 203.5L177.1, 112.3L268.1, 129.9L320, 53L371.9, 129.9L462.9, 112.3L445.3, 203.4L499.3, 240L572.7, 240C569.7, 232.8 564.9, 226.4 558.3, 221.9L498.5, 181.4L512.2, 110.4C514.8, 97.2 510.6, 83.6 501.1, 74C491.5, 64.5 477.9, 60.3 464.9, 62.9L394, 76.6L353.6, 16.7C338.5, -5.6 301.7, -5.6 286.6, 16.7L246.2, 76.6L175.4, 62.9C162.1, 60.3 148.6, 64.5 139.1, 74C129.6, 83.6 125.4, 97.1 128, 110.3L141.7, 181.3L81.9, 221.8C75.3, 226.3 70.5, 232.7 67.5, 239.9L140.9, 239.9L194.7, 203.5zM217.6, 240L266.6, 240C273.5, 217 294.7, 200 320, 200C345.3, 200 366.5, 217 373.4, 240L422.4, 240C414.6, 190.3 371.9, 152 320, 152C268.1, 152 225.4, 190.3 217.6, 240z" fill="#727272" fill-opacity="1" class="Black" />
    </g>
  </g>
</svg>