<?xml version='1.0' encoding='UTF-8'?>
<svg viewBox="-1.9998 -3.5575 31.9975 32" xmlns="http://www.w3.org/2000/svg">
  <g transform="matrix(0.0486, 0, 0, 0.0486, 0, 0)">
    <path d="M560, 464L491.5, 464L520.9, 419.3C528.3, 408.1 529.6, 394 524.5, 381.5C519.3, 369.1 508.4, 360 495.2, 357.3L424.5, 342.8L410, 272C407.3, 258.8 398.3, 247.8 385.8, 242.6C373.3, 237.4 359.1, 238.9 348.1, 246.2L287.8, 286L227.6, 246.1C205.1, 231.2 171.1, 245.3 165.7, 271.8L151.3, 342.6L80.6, 357C67.3, 359.7 56.5, 368.7 51.3, 381.2C46.2, 393.7 47.5, 407.8 55, 419L84.7, 464L16, 464C7.2, 464 0, 471.2 0, 480L0, 496C0, 504.8 7.2, 512 16, 512L560, 512C568.8, 512 576, 504.8 576, 496L576, 480C576, 471.2 568.8, 464 560, 464zM234.6, 464C239.3, 448.4 250.6, 435 266.8, 428.3C295.3, 416.5 328.2, 430.1 340, 458.6C340.7, 460.4 341.1, 462.2 341.6, 464L234.6, 464zM434, 464L390.7, 464C389.5, 456 387.6, 448 384.4, 440.2C362.5, 387.2 301.5, 362 248.5, 383.9C213.8, 398.3 191.1, 429.4 185.7, 464L142.3, 464L101.4, 401.9L192.2, 383.3L210.7, 292.4L288.1, 343.6L365.4, 292.5L384.1, 383.4L474.9, 402.1L434, 464zM190.2, 135.6C196.4, 141.9 206.6, 141.9 212.8, 135.7L264, 84.9L264, 192C264, 200.8 271.2, 208 280, 208L296, 208C304.8, 208 312, 200.8 312, 192L312, 84.9L363.1, 135.7C369.4, 141.9 379.5, 141.9 385.7, 135.6L397, 124.2C403.2, 117.9 403.2, 107.8 396.9, 101.6L299.2, 4.6C293, -1.6 282.9, -1.6 276.7, 4.6L179, 101.6C172.7, 107.8 172.7, 118 178.9, 124.2L190.2, 135.6z" fill="#727272" fill-opacity="1" class="Black" />
  </g>
</svg>