<?xml version='1.0' encoding='UTF-8'?>
<svg viewBox="-1.9998 -3.5563 31.9975 32" xmlns="http://www.w3.org/2000/svg">
  <g transform="matrix(0.0486, 0, 0, 0.0486, 0, 0)">
    <path d="M560, 464L491.5, 464L520.9, 419.3C528.3, 408.1 529.6, 394 524.5, 381.5C519.3, 369.1 508.4, 360 495.2, 357.3L424.5, 342.8L410, 272C407.3, 258.8 398.3, 247.8 385.8, 242.6C373.3, 237.4 359.1, 238.9 348.1, 246.2L287.8, 286L227.6, 246.1C205.1, 231.2 171.1, 245.3 165.7, 271.8L151.3, 342.6L80.6, 357C67.3, 359.7 56.5, 368.7 51.3, 381.2C46.2, 393.7 47.5, 407.8 55, 419L84.7, 464L16, 464C7.2, 464 0, 471.2 0, 480L0, 496C0, 504.8 7.2, 512 16, 512L560, 512C568.8, 512 576, 504.8 576, 496L576, 480C576, 471.2 568.8, 464 560, 464zM234.6, 464C239.3, 448.4 250.6, 435 266.8, 428.3C295.3, 416.5 328.2, 430.1 340, 458.6C340.7, 460.4 341.1, 462.2 341.6, 464L234.6, 464zM434, 464L390.7, 464C389.5, 456 387.6, 448 384.4, 440.2C362.5, 387.2 301.5, 362 248.5, 383.9C213.8, 398.3 191.1, 429.4 185.7, 464L142.3, 464L101.4, 401.9L192.2, 383.3L210.7, 292.4L288.1, 343.6L365.4, 292.5L384.1, 383.4L474.9, 402.1L434, 464zM276.7, 203.4C282.9, 209.6 293, 209.6 299.2, 203.4L396.9, 106.4C403.2, 100.2 403.2, 90 397, 83.8L385.7, 72.4C379.5, 66.1 369.3, 66.1 363.1, 72.3L312, 123.1L312, 16C312, 7.2 304.8, 0 296, 0L280, 0C271.2, 0 264, 7.2 264, 16L264, 123.1L212.9, 72.3C206.6, 66.1 196.5, 66.1 190.3, 72.4L179, 83.8C172.8, 90.1 172.8, 100.2 179.1, 106.4L276.7, 203.4z" fill="#727272" fill-opacity="1" class="Black" />
  </g>
</svg>