<?xml version='1.0' encoding='UTF-8'?>
<svg viewBox="-2 -3.7495 32 32" xmlns="http://www.w3.org/2000/svg">
  <g transform="matrix(0.0547, 0, 0, 0.0547, 0, 0)">
    <path d="M336, 64L283.72, 64A16 16 0 0 0 270.41, 71.12L176, 212.73L81.59, 71.12A16 16 0 0 0 68.28, 64L16, 64A16 16 0 0 0 0, 80L0, 96A16 16 0 0 0 16, 112L51.16, 112L147.16, 256L51.16, 400L16, 400A16 16 0 0 0 0, 416L0, 432A16 16 0 0 0 16, 448L68.28, 448A16 16 0 0 0 81.59, 440.88L176, 299.27L270.41, 440.88A16 16 0 0 0 283.72, 448L336, 448A16 16 0 0 0 352, 432L352, 416A16 16 0 0 0 336, 400L300.84, 400L204.84, 256L300.84, 112L336, 112A16 16 0 0 0 352, 96L352, 80A16 16 0 0 0 336, 64zM496, 176L472, 176L472, 16A16 16 0 0 0 456, 0L424, 0A16 16 0 0 0 409.71, 8.83L393.71, 40.83A16 16 0 0 0 408, 64L424, 64L424, 176L400, 176A16 16 0 0 0 384, 192L384, 208A16 16 0 0 0 400, 224L496, 224A16 16 0 0 0 512, 208L512, 192A16 16 0 0 0 496, 176z" fill="#727272" fill-opacity="1" class="Black" />
  </g>
</svg>