<?xml version='1.0' encoding='UTF-8'?>
<svg viewBox="-2 -4.7992 32 32" xmlns="http://www.w3.org/2000/svg">
  <g transform="matrix(0.9988, 0, 0, 0.9988, 0, 0)">
    <g transform="matrix(0.0438, 0, 0, 0.0438, 0, 0)">
      <path d="M624, 432L608, 432C581.96, 432 562.2, 423.58 551.91, 414.1C543.01, 405.89 532.25, 400 520.14, 400L503.84, 400C491.73, 400 480.97, 405.89 472.07, 414.1C461.8, 423.58 442.04, 432 416, 432C389.96, 432 370.2, 423.58 359.91, 414.1C351.01, 405.89 340.25, 400 328.14, 400L311.84, 400C299.73, 400 288.97, 405.89 280.07, 414.1C269.8, 423.58 250.04, 432 224, 432C197.96, 432 178.2, 423.58 167.91, 414.1C159.01, 405.89 148.25, 400 136.14, 400L119.84, 400C107.73, 400 96.97, 405.89 88.07, 414.1C77.8, 423.58 58.04, 432 32, 432L16, 432C7.16, 432 0, 439.16 0, 448L0, 464C0, 472.84 7.16, 480 16, 480L32, 480C70.62, 480 104.72, 467.81 128, 448.16C151.28, 467.82 185.38, 480 224, 480C262.62, 480 296.72, 467.81 320, 448.16C343.28, 467.82 377.38, 480 416, 480C454.62, 480 488.72, 467.81 512, 448.16C535.28, 467.82 569.38, 480 608, 480L624, 480C632.84, 480 640, 472.84 640, 464L640, 448C640, 439.16 632.84, 432 624, 432zM216, 399.37L216, 288L424, 288L424, 399.37C438.22, 397.94 447.4, 393.33 450.39, 390.58C457.18, 384.32 464.48, 379.6 472, 375.91L472, 120C472, 97.94 489.94, 80 512, 80C534.06, 80 552, 97.94 552, 120L552, 144C552, 152.84 559.16, 160 568, 160L584, 160C592.84, 160 600, 152.84 600, 144L600, 120C600, 71.47 560.53, 32 512, 32C463.47, 32 424, 71.47 424, 120L424, 240L216, 240L216, 120C216, 97.94 233.94, 80 256, 80C278.06, 80 296, 97.94 296, 120L296, 144C296, 152.84 303.16, 160 312, 160L328, 160C336.84, 160 344, 152.84 344, 144L344, 120C344, 71.47 304.53, 32 256, 32C207.47, 32 168, 71.47 168, 120L168, 375.9C175.52, 379.59 182.82, 384.31 189.61, 390.57C192.59, 393.33 201.78, 397.95 216, 399.37z" fill="#727272" fill-opacity="1" class="Black" />
    </g>
  </g>
</svg>