<?xml version='1.0' encoding='UTF-8'?>
<svg viewBox="-2 -2 32 32" xmlns="http://www.w3.org/2000/svg">
  <g transform="matrix(0.0547, 0, 0, 0.0547, 0, 0)">
    <path d="M511.84, 18.27C513.23, 8.49 505.57, 0 496.04, 0C495.28, 0 494.51, 0.05 493.73, 0.16L400, 16L148.51, 267.49L109.69, 228.67C103.47, 222.45 93.38, 222.44 87.15, 228.67L68.43, 247.4C63.06, 252.77 62.22, 261.19 66.44, 267.51L119.63, 347.3L66.4, 400.52L37.25, 385.95C36.04, 385.34 28, 381.81 21.28, 388.54L4.05, 405.76C-1.35, 411.17 -1.35, 419.93 4.05, 425.33L86.67, 507.95C89.37, 510.65 92.91, 512 96.45, 512C99.99, 512 103.53, 510.65 106.24, 507.95L123.47, 490.72A13.84 13.84 0 0 0 126.06, 474.75L111.49, 445.6L164.71, 392.37L244.5, 445.56C250.82, 449.77 259.24, 448.94 264.61, 443.57L283.34, 424.85C289.56, 418.63 289.56, 408.53 283.34, 402.31L244.52, 363.49L496, 112L511.84, 18.27zM451.22, 88.89L210.57, 329.55L182.45, 301.43L423.11, 60.77L456.94, 55.05L451.22, 88.89z" fill="#727272" fill-opacity="1" class="Black" />
  </g>
</svg>