<?xml version='1.0' encoding='UTF-8'?>
<svg viewBox="-2 -1.9988 32 32" xmlns="http://www.w3.org/2000/svg">
  <g transform="matrix(0.0547, 0, 0, 0.0547, 0, 0)">
    <path d="M500, 8L472.289, 8C465.55, 8 460.132, 13.548 460.292, 20.286L462.639, 118.861C418.212, 52.043 342.256, 8 256, 8C134.813, 8 33.933, 94.924 12.296, 209.824C10.908, 217.193 16.604, 224 24.103, 224L52.679, 224C58.353, 224 63.221, 220.018 64.416, 214.471C83.441, 126.128 161.917, 60 256, 60C335.545, 60 403.942, 107.282 434.676, 175.302L308.286, 172.293C301.549, 172.133 296, 177.55 296, 184.29L296, 212C296, 218.627 301.373, 224 308, 224L500, 224C506.627, 224 512, 218.627 512, 212L512, 20C512, 13.373 506.627, 8 500, 8zM487.897, 288L459.321, 288C453.647, 288 448.779, 291.982 447.584, 297.529C428.559, 385.872 350.083, 452 256, 452C176.454, 452 108.058, 404.718 77.324, 336.698L203.714, 339.707C210.451, 339.867 216, 334.45 216, 327.71L216, 300C216, 293.373 210.627, 288 204, 288L12, 288C5.373, 288 0, 293.373 0, 300L0, 492C0, 498.627 5.373, 504 12, 504L39.711, 504C46.45, 504 51.868, 498.452 51.708, 491.714L49.361, 393.139C93.788, 459.957 169.744, 504 256, 504C377.187, 504 478.067, 417.076 499.704, 302.176C501.092, 294.807 495.396, 288 487.897, 288z" fill="#727272" fill-opacity="1" class="Black" />
  </g>
</svg>