<?xml version='1.0' encoding='UTF-8'?>
<svg viewBox="-3.7495 -2 32 32" xmlns="http://www.w3.org/2000/svg">
  <g transform="matrix(0.0547, 0, 0, 0.0547, 0, 0)">
    <path d="M439.2, 164.4C444.6, 161.7 448, 156.2 448, 150.1L448, 73.9C448, 67.8 444.6, 62.3 439.2, 59.6L416, 48C416, 21.5 394.5, 0 368, 0L80, 0C53.5, 0 32, 21.5 32, 48L8.8, 59.6C3.4, 62.3 0, 67.8 0, 73.9L0, 150.1C0, 156.2 3.4, 161.7 8.8, 164.4L32, 176L32, 192L8.8, 203.6C3.4, 206.3 0, 211.8 0, 217.9L0, 294.1C0, 300.2 3.4, 305.7 8.8, 308.4L32, 320L32, 336L8.8, 347.6C3.4, 350.3 0, 355.8 0, 361.9L0, 438.1C0, 444.2 3.4, 449.7 8.8, 452.4L32, 464C32, 490.5 53.5, 512 80, 512L368, 512C394.5, 512 416, 490.5 416, 464L439.2, 452.4C444.6, 449.7 448, 444.2 448, 438.1L448, 361.9C448, 355.8 444.6, 350.3 439.2, 347.6L416, 336L416, 320L439.2, 308.4C444.6, 305.7 448, 300.2 448, 294.1L448, 217.9C448, 211.8 444.6, 206.3 439.2, 203.6L416, 192L416, 176L439.2, 164.4zM368, 448C368, 456.8 360.8, 464 352, 464L96, 464C87.2, 464 80, 456.8 80, 448L80, 64C80, 55.2 87.2, 48 96, 48L352, 48C360.8, 48 368, 55.2 368, 64L368, 448z" fill="#727272" fill-opacity="1" class="Black" />
  </g>
</svg>