<?xml version='1.0' encoding='UTF-8'?>
<svg viewBox="-2 -3.554 32 32" xmlns="http://www.w3.org/2000/svg">
  <g transform="matrix(0.0486, 0, 0, 0.0486, 0, 0)">
    <path d="M128, 288C110.33, 288 96, 302.33 96, 320C96, 337.67 110.33, 352 128, 352C145.67, 352 160, 337.67 160, 320C160, 302.33 145.67, 288 128, 288zM282.65, 190.92L298.89, 142.21C300.05, 138.76 302.07, 135.86 303.81, 132.78C299.08, 130.02 293.87, 128 288, 128C270.33, 128 256, 142.33 256, 160C256, 175.78 267.63, 188.29 282.65, 190.92zM176, 176C158.33, 176 144, 190.33 144, 208C144, 225.67 158.33, 240 176, 240C193.67, 240 208, 225.67 208, 208C208, 190.33 193.67, 176 176, 176zM288, 32C128.94, 32 0, 160.94 0, 320C0, 372.8 14.25, 422.26 39.06, 464.8C44.67, 474.42 55.36, 480 66.5, 480L509.5, 480C520.64, 480 531.33, 474.42 536.94, 464.8C561.75, 422.26 576, 372.8 576, 320C576, 160.94 447.06, 32 288, 32zM500.27, 432L75.73, 432C57.56, 397.63 48, 359.12 48, 320C48, 187.66 155.66, 80 288, 80C420.34, 80 528, 187.66 528, 320C528, 359.12 518.44, 397.63 500.27, 432zM416, 320C416, 337.67 430.33, 352 448, 352C465.67, 352 480, 337.67 480, 320C480, 302.33 465.67, 288 448, 288C430.33, 288 416, 302.33 416, 320zM359.59, 137.23C346.87, 133 333.43, 139.85 329.21, 152.4L283.87, 288.41C250.49, 290.58 224, 318.06 224, 352C224, 363.72 227.38, 374.55 232.88, 384L343.13, 384C348.63, 374.55 352.01, 363.72 352.01, 352C352.01, 332.55 343.15, 315.34 329.46, 303.6L374.8, 167.59C378.97, 155.02 372.16, 141.42 359.59, 137.23zM432, 208C432, 192.2 420.34, 179.67 405.28, 177.07C405.21, 177.28 405.21, 177.5 405.14, 177.72L385.64, 236.21C390.01, 238.45 394.75, 240.01 400, 240.01C417.67, 240 432, 225.67 432, 208z" fill="#727272" fill-opacity="1" class="Black" />
  </g>
</svg>