<?xml version='1.0' encoding='UTF-8'?>
<svg viewBox="-2 -3.554 32 32" xmlns="http://www.w3.org/2000/svg">
  <g transform="matrix(0.0486, 0, 0, 0.0486, 0, 0)">
    <path d="M443.28, 296.47L341.41, 316.85C329.96, 299.49 310.35, 288 288, 288C252.65, 288 224, 316.65 224, 352C224, 363.72 227.38, 374.55 232.88, 384L343.13, 384C346.67, 377.92 348.86, 371.11 350.31, 364.01L452.72, 343.53C465.72, 340.94 474.13, 328.3 471.53, 315.3C468.93, 302.3 456.22, 293.69 443.28, 296.47zM288, 32C128.94, 32 0, 160.94 0, 320C0, 372.8 14.25, 422.26 39.06, 464.8C44.67, 474.42 55.36, 480 66.5, 480L509.5, 480C520.64, 480 531.33, 474.42 536.94, 464.8C561.75, 422.26 576, 372.8 576, 320C576, 160.94 447.06, 32 288, 32zM500.27, 432L75.73, 432C57.56, 397.63 48, 359.12 48, 320C48, 187.66 155.66, 80 288, 80C420.34, 80 528, 187.66 528, 320C528, 359.12 518.44, 397.63 500.27, 432z" fill="#727272" fill-opacity="1" class="Black" />
  </g>
</svg>