<?xml version='1.0' encoding='UTF-8'?>
<svg viewBox="-2 -2 32 32" xmlns="http://www.w3.org/2000/svg">
  <g transform="matrix(0.0547, 0, 0, 0.0547, 0, 0)">
    <path d="M497.941, 225.941L286.059, 14.059A48 48 0 0 0 252.118, 0L48, 0C21.49, 0 0, 21.49 0, 48L0, 252.118A47.998 47.998 0 0 0 14.059, 286.059L225.941, 497.941C244.686, 516.686 275.078, 516.687 293.823, 497.941L497.941, 293.823C516.686, 275.078 516.686, 244.686 497.941, 225.941zM259.886, 463.996L48, 252.118L48, 48L252.118, 48L464, 259.882L259.886, 463.996zM192, 144C192, 170.51 170.51, 192 144, 192C117.49, 192 96, 170.51 96, 144C96, 117.49 117.49, 96 144, 96C170.51, 96 192, 117.49 192, 144z" fill="#727272" fill-opacity="1" class="Black" />
  </g>
</svg>