<?xml version='1.0' encoding='UTF-8'?>
<svg viewBox="-2 -4.8005 32 32" xmlns="http://www.w3.org/2000/svg">
  <g transform="matrix(1.0011, 0, 0, 1.0011, 0, 0)">
    <g transform="matrix(0.0437, 0, 0, 0.0437, 0, 0)">
      <path d="M625.941, 293.823L421.823, 497.941C403.077, 516.687 372.685, 516.686 353.941, 497.941L353.581, 497.581L592, 259.882L331.397, 0L380.118, 0A48 48 0 0 1 414.059, 14.059L625.941, 225.941C644.686, 244.686 644.686, 275.078 625.941, 293.823zM497.941, 293.823L293.823, 497.941C284.451, 507.314 272.166, 512 259.882, 512C247.598, 512 235.313, 507.314 225.941, 497.941L14.059, 286.059A48 48 0 0 1 0, 252.118L0, 48C0, 21.49 21.49, 0 48, 0L252.118, 0A47.998 47.998 0 0 1 286.059, 14.059L497.941, 225.941C516.686, 244.686 516.686, 275.078 497.941, 293.823zM464, 259.882L252.118, 48L48, 48L48, 252.118L259.886, 463.996L464, 259.882zM144, 96C117.49, 96 96, 117.49 96, 144C96, 170.51 117.49, 192 144, 192C170.51, 192 192, 170.51 192, 144C192, 117.49 170.51, 96 144, 96z" fill="#727272" fill-opacity="1" class="Black" />
    </g>
  </g>
</svg>