<?xml version='1.0' encoding='UTF-8'?>
<svg viewBox="-1.995 -4.7962 32 32" xmlns="http://www.w3.org/2000/svg">
  <g transform="matrix(1.0013, 0, 0, 1.0013, 0, 0)">
    <g transform="matrix(0.0437, 0, 0, 0.0437, 0, 0)">
      <path d="M639.25, 171.91L634.41, 156.66C631.74, 148.24 622.75, 143.57 614.32, 146.24L536, 171.08L536, 48C536, 39.16 528.84, 32 520, 32L504, 32C495.16, 32 488, 39.16 488, 48L488, 186.3L408, 211.67L408, 48C408, 39.16 400.84, 32 392, 32L376, 32C367.16, 32 360, 39.16 360, 48L360, 226.89L280, 252.26L280, 48C280, 39.16 272.84, 32 264, 32L248, 32C239.16, 32 232, 39.16 232, 48L232, 267.47L152, 292.84L152, 48C152, 39.16 144.84, 32 136, 32L120, 32C111.16, 32 104, 39.16 104, 48L104, 308.06L11.17, 337.5C2.75, 340.17 -1.92, 349.16 0.75, 357.59L5.59, 372.84C8.26, 381.26 17.26, 385.93 25.68, 383.25L104, 358.41L104, 464C104, 472.84 111.16, 480 120, 480L136, 480C144.84, 480 152, 472.84 152, 464L152, 343.19L232, 317.82L232, 464C232, 472.84 239.16, 480 248, 480L264, 480C272.84, 480 280, 472.84 280, 464L280, 302.61L360, 277.24L360, 464C360, 472.84 367.16, 480 376, 480L392, 480C400.84, 480 408, 472.84 408, 464L408, 262.02L488, 236.65L488, 464C488, 472.84 495.16, 480 504, 480L520, 480C528.84, 480 536, 472.84 536, 464L536, 221.44L628.83, 192C637.26, 189.33 641.92, 180.34 639.25, 171.91z" fill="#727272" fill-opacity="1" class="Black" />
    </g>
  </g>
</svg>