<?xml version='1.0' encoding='UTF-8'?>
<svg viewBox="-3.7495 -2 32 32" xmlns="http://www.w3.org/2000/svg">
  <g transform="matrix(0.0547, 0, 0, 0.0547, 0, 0)">
    <path d="M368, 0L16, 0A16 16 0 0 0 0, 16L0, 384A16 16 0 0 0 12.9, 399.7C17.1, 412.7 17.1, 451.3 12.9, 464.3A16 16 0 0 0 0, 480L0, 496A16 16 0 0 0 16, 512L368, 512A80 80 0 0 0 448, 432L448, 80A80 80 0 0 0 368, 0zM368, 464L54, 464C56.7, 446.7 56.7, 417.3 54, 400L368, 400A32 32 0 0 1 368, 464zM400, 358.7A79.37 79.37 0 0 0 368, 352L48, 352L48, 48L368, 48A32 32 0 0 1 400, 80zM314.58, 200L342.28, 153.68A20 20 0 0 0 325.09, 123.42L268.74, 123.42L241, 77.16A19.64 19.64 0 0 0 224.06, 67.48A20 20 0 0 0 206.78, 77.28L179.18, 123.44L122.88, 123.44A20.14 20.14 0 0 0 105.38, 133.59A19.68 19.68 0 0 0 105.59, 153.59L133.42, 200L105.72, 246.32A20 20 0 0 0 122.91, 276.58L179.26, 276.58L207, 322.84A19.64 19.64 0 0 0 223.94, 332.52L224, 332.52A20 20 0 0 0 241.22, 322.72L268.82, 276.56L325.12, 276.56A20.14 20.14 0 0 0 342.62, 266.41A19.68 19.68 0 0 0 342.41, 246.41zM318.06, 147.42L300.59, 176.63L283.1, 147.44zM224, 95.38L240.8, 123.44L207.18, 123.44zM130, 147.44L164.91, 147.44L147.4, 176.61zM130, 252.56L147.47, 223.35L164.96, 252.56zM224, 304.62L207.2, 276.56L240.79, 276.56zM255.15, 252.56L192.87, 252.56L161.39, 200L192.82, 147.46L255.13, 147.46L286.61, 200zM283.15, 252.56L300.6, 223.39L318.06, 252.56z" fill="#727272" fill-opacity="1" class="Black" />
  </g>
</svg>