<?xml version='1.0' encoding='UTF-8'?>
<svg viewBox="-2 -4.7992 32 32" xmlns="http://www.w3.org/2000/svg">
  <g transform="matrix(0.9988, 0, 0, 0.9988, 0, 0)">
    <g transform="matrix(0.0438, 0, 0, 0.0438, 0, 0)">
      <path d="M624, 432L362.3, 432C414.4, 391 448, 327.5 448, 256C448, 132.3 347.7, 32 224, 32C100.3, 32 0, 132.3 0, 256C0, 379.7 100.3, 480 224, 480L624, 480C632.8, 480 640, 472.8 640, 464L640, 448C640, 439.2 632.8, 432 624, 432zM224, 432C127, 432 48, 353 48, 256C48, 159 127, 80 224, 80C321, 80 400, 159 400, 256C400, 353 321, 432 224, 432zM224, 160C171, 160 128, 203 128, 256C128, 309 171, 352 224, 352C277, 352 320, 309 320, 256C320, 203 277, 160 224, 160zM224, 304C197.5, 304 176, 282.5 176, 256C176, 229.5 197.5, 208 224, 208C250.5, 208 272, 229.5 272, 256C272, 282.5 250.5, 304 224, 304z" fill="#727272" fill-opacity="1" class="Black" />
    </g>
  </g>
</svg>