<?xml version='1.0' encoding='UTF-8'?>
<svg viewBox="-2 -2.4373 32 32" xmlns="http://www.w3.org/2000/svg">
  <g transform="matrix(0.0547, 0, 0, 0.0547, 0, 0)">
    <path d="M496, 232L208, 232A16 16 0 0 0 192, 248L192, 264A16 16 0 0 0 208, 280L496, 280A16 16 0 0 0 512, 264L512, 248A16 16 0 0 0 496, 232zM496, 392L208, 392A16 16 0 0 0 192, 408L192, 424A16 16 0 0 0 208, 440L496, 440A16 16 0 0 0 512, 424L512, 408A16 16 0 0 0 496, 392zM496, 72L208, 72A16 16 0 0 0 192, 88L192, 104A16 16 0 0 0 208, 120L496, 120A16 16 0 0 0 512, 104L512, 88A16 16 0 0 0 496, 72zM64.3, 368C38, 368 16, 389.5 16, 416C16, 442.5 38, 464 64.3, 464A48 48 0 0 0 64.3, 368zM139.56, 195.49A12.09 12.09 0 0 0 122.56, 195.49L58.9, 258.79L36.22, 236.85A12 12 0 0 0 19.22, 236.85L3.53, 252.43A11.86 11.86 0 0 0 3.53, 269.32L51, 316.51A12.82 12.82 0 0 0 68.58, 316.51L84.28, 300.92L156.45, 229.18A11.86 11.86 0 0 0 156.55, 212.38zM139.56, 35.49A12 12 0 0 0 122.56, 35.49L58.91, 98.65L36.22, 76.58A12.07 12.07 0 0 0 19.22, 76.58L3.53, 92.26A11.93 11.93 0 0 0 3.53, 109.21L51.1, 156.49A12.79 12.79 0 0 0 68.7, 156.49L84.29, 140.91L156.46, 68.91A12.05 12.05 0 0 0 156.56, 51.91z" fill="#727272" fill-opacity="1" class="Black" />
  </g>
</svg>