<?xml version='1.0' encoding='UTF-8'?>
<svg viewBox="-2 -1.9988 32 32" xmlns="http://www.w3.org/2000/svg">
  <g transform="matrix(0.0547, 0, 0, 0.0547, 0, 0)">
    <path d="M112, 280C94.33, 280 80, 294.33 80, 312C80, 329.67 94.33, 344 112, 344C129.67, 344 144, 329.67 144, 312C144, 294.33 129.67, 280 112, 280zM400, 280C382.33, 280 368, 294.33 368, 312C368, 329.67 382.33, 344 400, 344C417.67, 344 432, 329.67 432, 312C432, 294.33 417.67, 280 400, 280zM328, 304L184, 304C179.58, 304 176, 307.58 176, 312L176, 328C176, 332.42 179.58, 336 184, 336L328, 336C332.42, 336 336, 332.42 336, 328L336, 312C336, 307.58 332.42, 304 328, 304zM454.15, 215.97L439.12, 138.31C432.56, 104.52 402.84, 80 368.44, 80L352, 80L352, 64C352, 46.33 337.67, 32 320, 32L192, 32C174.33, 32 160, 46.33 160, 64L160, 80L143.56, 80C109.15, 80 79.44, 104.52 72.87, 138.31L57.84, 215.97C23.83, 230.74 0, 264.55 0, 304L0, 352C0, 375.63 12.95, 396.04 32, 407.12L32, 456C32, 469.25 42.75, 480 56, 480L88, 480C101.25, 480 112, 469.25 112, 456L112, 416L400, 416L400, 456C400, 469.25 410.75, 480 424, 480L456, 480C469.25, 480 480, 469.25 480, 456L480, 407.12C499.05, 396.03 512, 375.63 512, 352L512, 304C512, 264.55 488.17, 230.74 454.15, 215.97zM120, 147.44C122.19, 136.17 132.09, 128 143.56, 128L368.44, 128C379.91, 128 389.82, 136.17 392, 147.44L403.72, 208L108.28, 208L120, 147.44zM464, 352C464, 360.82 456.82, 368 448, 368L64, 368C55.18, 368 48, 360.82 48, 352L48, 304C48, 277.53 69.53, 256 96, 256L416, 256C442.47, 256 464, 277.53 464, 304L464, 352z" fill="#727272" fill-opacity="1" class="Black" />
  </g>
</svg>