<?xml version='1.0' encoding='UTF-8'?>
<svg viewBox="-2 -4.7992 32 32" xmlns="http://www.w3.org/2000/svg">
  <g transform="matrix(0.9988, 0, 0, 0.9988, 0, 0)">
    <g transform="matrix(0.0438, 0, 0, 0.0438, 0, 0)">
      <path d="M544, 0L96, 0C42.98, 0 0, 42.98 0, 96L0, 192C0, 227.35 28.66, 256 64, 256L576, 256C611.34, 256 640, 227.35 640, 192L640, 96C640, 42.98 597.02, 0 544, 0zM160, 212.57C160, 218.88 154.88, 224 148.57, 224L91.43, 224C85.12, 224 80, 218.88 80, 212.57L80, 200C80, 177.91 97.91, 160 120, 160C142.09, 160 160, 177.91 160, 200L160, 212.57zM304, 210.29C304, 217.86 297.86, 224 290.29, 224L221.72, 224C214.15, 224 208.01, 217.86 208.01, 210.29L208.01, 176C208.01, 149.49 229.5, 128 256.01, 128C282.52, 128 304.01, 149.49 304.01, 176L304.01, 210.29zM432, 210.29C432, 217.86 425.86, 224 418.29, 224L349.72, 224C342.15, 224 336.01, 217.86 336.01, 210.29L336.01, 176C336.01, 149.49 357.5, 128 384.01, 128C410.52, 128 432.01, 149.49 432.01, 176L432.01, 210.29zM560, 212.57C560, 218.88 554.88, 224 548.57, 224L491.43, 224C485.12, 224 480, 218.88 480, 212.57L480, 200C480, 177.91 497.91, 160 520, 160C542.09, 160 560, 177.91 560, 200L560, 212.57zM592, 150.06C575.96, 127.13 549.53, 112 520, 112C500.65, 112 482.56, 118.43 467.87, 129.31C451.44, 99.92 420, 80 384, 80C359.44, 80 337, 89.27 320, 104.5C303, 89.27 280.56, 80 256, 80C220, 80 188.56, 99.92 172.13, 129.31C157.44, 118.43 139.35, 112 120, 112C90.47, 112 64.04, 127.13 48, 150.06L48, 96C48, 69.53 69.53, 48 96, 48L544, 48C570.47, 48 592, 69.53 592, 96L592, 150.06zM576, 288L64, 288C28.66, 288 0, 316.65 0, 352L0, 416C0, 469.02 42.98, 512 96, 512L544, 512C597.02, 512 640, 469.02 640, 416L640, 352C640, 316.65 611.34, 288 576, 288zM480, 331.43C480, 325.12 485.12, 320 491.43, 320L548.57, 320C554.88, 320 560, 325.12 560, 331.43L560, 344C560, 366.09 542.09, 384 520, 384C497.91, 384 480, 366.09 480, 344L480, 331.43zM336, 333.71C336, 326.14 342.14, 320 349.71, 320L418.28, 320C425.85, 320 431.99, 326.14 431.99, 333.71L431.99, 336C431.99, 362.51 410.5, 384 383.99, 384C357.48, 384 335.99, 362.51 335.99, 336L335.99, 333.71zM208, 333.71C208, 326.14 214.14, 320 221.71, 320L290.28, 320C297.85, 320 303.99, 326.14 303.99, 333.71L303.99, 336C303.99, 362.51 282.5, 384 255.99, 384C229.48, 384 207.99, 362.51 207.99, 336L207.99, 333.71zM80, 331.43C80, 325.12 85.12, 320 91.43, 320L148.57, 320C154.88, 320 160, 325.12 160, 331.43L160, 344C160, 366.09 142.09, 384 120, 384C97.91, 384 80, 366.09 80, 344L80, 331.43zM592, 416C592, 442.47 570.47, 464 544, 464L96, 464C69.53, 464 48, 442.47 48, 416L48, 394.32C63.93, 417.04 90.21, 432 120, 432C146.38, 432 170.09, 420.33 186.23, 401.88C203.75, 420.42 228.55, 432 256, 432C280.56, 432 303, 422.73 320, 407.5C337, 422.73 359.44, 432 384, 432C411.45, 432 436.25, 420.42 453.77, 401.88C469.91, 420.33 493.62, 432 520, 432C549.79, 432 576.07, 417.04 592, 394.32L592, 416z" fill="#727272" fill-opacity="1" class="Black" />
    </g>
  </g>
</svg>