<?xml version='1.0' encoding='UTF-8'?>
<svg viewBox="-1.9998 -3.5563 31.9975 32" xmlns="http://www.w3.org/2000/svg">
  <g transform="matrix(0.0486, 0, 0, 0.0486, 0, 0)">
    <path d="M200, 125.2L240.2, 85C244.9, 80.3 244.9, 72.7 240.2, 68L231.7, 59.5C227, 54.8 219.4, 54.8 214.7, 59.5L200, 74.3L200, 44C200, 37.4 194.6, 32 188, 32L164, 32C157.4, 32 152, 37.4 152, 44L152, 74.3L137.2, 59.5C132.5, 54.8 124.9, 54.8 120.2, 59.5L111.7, 68C107, 72.7 107, 80.3 111.7, 85L151.9, 125.2L151.9, 182.1L101.6, 153L86.6, 97.3C84.9, 90.8 78.2, 87 71.7, 88.7L60, 91.9C53.5, 93.6 49.7, 100.3 51.4, 106.8L56.9, 127.2L30.3, 111.9C24.5, 108.5 17.1, 110.5 13.7, 116.3L1.6, 137.3C-1.8, 143.1 0.2, 150.5 6, 153.9L32.6, 169.2L12.2, 174.7C5.7, 176.4 1.9, 183.1 3.6, 189.6L6.7, 201.3C8.4, 207.8 15.1, 211.6 21.6, 209.9L77.3, 195L127.5, 224L77.3, 253L21.6, 238C15.1, 236.3 8.5, 240.1 6.7, 246.6L3.6, 258.3C1.9, 264.8 5.7, 271.4 12.2, 273.2L32.6, 278.7L6.1, 294.1C0.3, 297.5 -1.7, 304.9 1.7, 310.7L13.8, 331.7C17.2, 337.5 24.6, 339.5 30.4, 336.1L57, 320.8L51.5, 341.2C49.8, 347.7 53.6, 354.3 60.1, 356.1L71.8, 359.2C78.3, 360.9 84.9, 357.1 86.7, 350.6L101.6, 295L152, 265.9L152, 322.8L111.8, 363C107.1, 367.7 107.1, 375.3 111.8, 380L120.3, 388.5C125, 393.2 132.6, 393.2 137.3, 388.5L152.1, 373.7L152.1, 404C152.1, 410.6 157.5, 416 164.1, 416L188.1, 416C194.7, 416 200.1, 410.6 200.1, 404L200.1, 373.7L214.9, 388.5C219.6, 393.2 227.2, 393.2 231.9, 388.5L240.4, 380C245.1, 375.3 245.1, 367.7 240.4, 363L200, 322.8L200, 265.9L268.3, 305.3C273.4, 292.3 279.7, 279.6 288, 267.8L288, 260.6L224.6, 224L288, 187.4L288, 131.3L200, 182.1L200, 125.2zM544, 278.5L544, 112C544, 50.1 493.9, 0 432, 0C370.1, 0 320, 50.1 320, 112L320, 278.5C300.3, 303.1 288, 334 288, 368C288, 447.5 352.5, 512 432, 512C511.5, 512 576, 447.5 576, 368C576, 334 563.7, 303.1 544, 278.5zM432, 464C379.1, 464 336, 420.9 336, 368C336, 341 347.7, 320.7 357.5, 308.5L368, 295.4L368, 112C368, 76.7 396.7, 48 432, 48C467.3, 48 496, 76.7 496, 112L496, 295.3L506.5, 308.4C516.3, 320.7 528, 341 528, 368C528, 420.9 484.9, 464 432, 464zM448, 322.9L448, 304C448, 295.2 440.8, 288 432, 288C423.2, 288 416, 295.2 416, 304L416, 322.9C397.4, 329.5 384, 347.1 384, 368C384, 394.5 405.5, 416 432, 416C458.5, 416 480, 394.5 480, 368C480, 347.1 466.6, 329.5 448, 322.9z" fill="#727272" fill-opacity="1" class="Black" />
  </g>
</svg>