<?xml version='1.0' encoding='UTF-8'?>
<svg viewBox="-1.9998 -3.5563 31.9975 32" xmlns="http://www.w3.org/2000/svg">
  <g transform="matrix(0.0486, 0, 0, 0.0486, 0, 0)">
    <path d="M448, 322.9L448, 112C448, 103.2 440.8, 96 432, 96C423.2, 96 416, 103.2 416, 112L416, 322.9C397.4, 329.5 384, 347.1 384, 368C384, 394.5 405.5, 416 432, 416C458.5, 416 480, 394.5 480, 368C480, 347.1 466.6, 329.5 448, 322.9zM258.7, 338.5L248.9, 353.1L224, 390L199.1, 353.1L181.3, 326.8L150.1, 332.8L106.5, 341.3L115, 297.4L121, 266.3L94.8, 248.5L57.8, 223.4L94.8, 198.3L121, 180.5L115, 149.4L106.5, 105.5L150.2, 114L181.4, 120L199.2, 93.7L224, 57L248.9, 93.9L266.6, 120.2L288, 116.1L288, 112C288, 95.7 291.3, 80.2 296.4, 65.6L288.7, 67.1L253.3, 14.7C246.7, 4.9 235.4, 0 224, 0C212.6, 0 201.3, 4.9 194.7, 14.7L159.3, 67.1L97.3, 55.1C95, 54.7 92.8, 54.4 90.5, 54.4C81.2, 54.4 72.2, 58.1 65.5, 64.8C57.2, 73.2 53.6, 85 55.8, 96.6L67.8, 158.7L15.5, 194.2C5.8, 200.8 0, 211.8 0, 223.5C0, 235.3 5.8, 246.2 15.6, 252.8L67.9, 288.2L55.9, 350.3C53.7, 361.9 57.3, 373.8 65.6, 382.1C72.3, 388.8 81.2, 392.5 90.6, 392.5C92.8, 392.5 95.1, 392.3 97.4, 391.9L159.4, 379.9L194.8, 432.3A35.318 35.318 0 0 0 253.4, 432.3L263.3, 417.6C258.6, 401.8 256, 385.2 256, 367.9C256, 358 257, 348.2 258.7, 338.5zM544, 278.5L544, 112C544, 50.1 493.9, 0 432, 0C370.1, 0 320, 50.1 320, 112L320, 278.5C300.3, 303.1 288, 334 288, 368C288, 447.5 352.5, 512 432, 512C511.5, 512 576, 447.5 576, 368C576, 334 563.7, 303.1 544, 278.5zM432, 464C379.1, 464 336, 420.9 336, 368C336, 341 347.7, 320.7 357.5, 308.5L368, 295.4L368, 112C368, 76.7 396.7, 48 432, 48C467.3, 48 496, 76.7 496, 112L496, 295.3L506.5, 308.4C516.3, 320.7 528, 341 528, 368C528, 420.9 484.9, 464 432, 464zM288, 164C271.9, 146.9 249.3, 136 224, 136C175.5, 136 136, 175.5 136, 224C136, 272.5 175.5, 312 224, 312C241.5, 312 257.6, 306.7 271.3, 297.9C275.9, 287.5 281.2, 277.4 288, 267.8L288, 164zM224, 264C201.9, 264 184, 246.1 184, 224C184, 201.9 201.9, 184 224, 184C246.1, 184 264, 201.9 264, 224C264, 246.1 246.1, 264 224, 264z" fill="#727272" fill-opacity="1" class="Black" />
  </g>
</svg>