<?xml version='1.0' encoding='UTF-8'?>
<svg viewBox="-1.9999 -1.549 31.9975 32" xmlns="http://www.w3.org/2000/svg">
  <g transform="matrix(0.999, 0, 0, 0.999, 0, 0)">
    <g transform="matrix(0.0565, 0, 0, 0.0565, 0, 0)">
      <path d="M495, 236.2C495, 236.1 495.1, 236 495.1, 235.9L495, 235.9C485.2, 115.2 388.8, 18.8 268.1, 9L268.1, 8.9C268, 8.9 267.9, 9 267.8, 9C261.3, 8.5 254.7, 8 248, 8C111.2, 8 0, 119.2 0, 256C0, 262.7 0.5, 269.3 1, 275.9L1, 276C10.7, 396.8 107.2, 493.3 228, 503L228.1, 503C234.7, 503.5 241.3, 504 248, 504C384.8, 504 496, 392.8 496, 256C496, 249.3 495.5, 242.8 495, 236.2zM219.3, 58.3C217.6, 64.5 216.5, 70.9 216.5, 77.6C216.5, 115.3 199.6, 157.5 174.6, 182.5C149.5, 207.5 107.4, 224.4 69.7, 224.4C63, 224.4 56.6, 225.5 50.4, 227.2C63, 140 132, 71 219.3, 58.3zM50, 282.9C54.2, 276.5 61.4, 272.4 69.6, 272.4C119.9, 272.4 174.4, 250.4 208.4, 216.4C242.4, 182.4 264.3, 127.9 264.4, 77.6C264.4, 69.4 268.4, 62.2 274.8, 58C363.6, 70 434, 140.4 446, 229.2C441.8, 235.6 434.6, 239.6 426.4, 239.6C376, 239.6 321.6, 261.6 287.6, 295.6C253.6, 329.6 231.7, 384 231.6, 434.4C231.6, 442.7 227.5, 449.9 221.1, 454.1C132.4, 442 62, 371.6 50, 282.9zM276.8, 453.7C278.5, 447.5 279.6, 441.1 279.6, 434.4C279.6, 396.7 296.5, 354.5 321.5, 329.5C346.6, 304.4 388.7, 287.6 426.4, 287.6C433.1, 287.6 439.5, 286.5 445.7, 284.8C433, 372 364, 441 276.8, 453.7z" fill="#727272" fill-opacity="1" class="Black" />
    </g>
  </g>
</svg>