<?xml version='1.0' encoding='UTF-8'?>
<svg viewBox="-1.9375 -4.7155 32 31.9975" xmlns="http://www.w3.org/2000/svg">
  <g transform="matrix(1.0011, 0, 0, 1.0011, 0, 0)">
    <g transform="matrix(0.0438, 0, 0, 0.0438, 0, 0)">
      <path d="M41.678, 38.101L251.092, 247.515C255.778, 252.201 255.778, 259.799 251.092, 264.486L41.678, 473.899C36.992, 478.585 29.394, 478.585 24.707, 473.899L4.908, 454.101C0.222, 449.415 0.222, 441.817 4.908, 437.13L185.607, 256L4.908, 74.87C0.222, 70.184 0.222, 62.586 4.908, 57.899L24.707, 38.1C29.393, 33.414 36.991, 33.414 41.678, 38.101zM640, 468L640, 440C640, 433.373 634.627, 428 628, 428L300, 428C293.373, 428 288, 433.373 288, 440L288, 468C288, 474.627 293.373, 480 300, 480L628, 480C634.627, 480 640, 474.627 640, 468z" fill="#727272" fill-opacity="1" class="Black" />
    </g>
  </g>
</svg>