<?xml version='1.0' encoding='UTF-8'?>
<svg viewBox="-2.0012 -0.0002 32 32" xmlns="http://www.w3.org/2000/svg">
  <g transform="matrix(0.0625, 0, 0, 0.0625, 0, 0)">
    <path d="M363.31, 292.68C354, 283.36 336, 288.36 336, 304L336, 360L112, 360L112, 304C112, 289.69 94.69, 282.67 84.69, 292.69L4.69, 372.69A16 16 0 0 0 4.69, 395.32L84.69, 475.32C94, 484.64 112, 479.64 112, 464L112, 408L336, 408L336, 464C336, 478.31 353.31, 485.33 363.31, 475.31L443.31, 395.31A16 16 0 0 0 443.31, 372.68zM432, 32L16, 32A16 16 0 0 0 0, 48L0, 128A16 16 0 0 0 16, 144L32, 144A16 16 0 0 0 48, 128L48, 96L192, 96L192, 240L160, 240A16 16 0 0 0 144, 256L144, 272A16 16 0 0 0 160, 288L288, 288A16 16 0 0 0 304, 272L304, 256A16 16 0 0 0 288, 240L256, 240L256, 96L400, 96L400, 128A16 16 0 0 0 416, 144L432, 144A16 16 0 0 0 448, 128L448, 48A16 16 0 0 0 432, 32z" fill="#727272" fill-opacity="1" class="Black" />
  </g>
</svg>