<?xml version='1.0' encoding='UTF-8'?>
<svg viewBox="-2 0 32 32" xmlns="http://www.w3.org/2000/svg">
  <g transform="matrix(0.0625, 0, 0, 0.0625, 0, 0)">
    <path d="M432, 32A16 16 0 0 1 448, 48L448, 128A16 16 0 0 1 432, 144L416, 144A16 16 0 0 1 400, 128L400, 96L256, 96L256, 432L304, 432A16 16 0 0 1 320, 448L320, 464A16 16 0 0 1 304, 480L144, 480A16 16 0 0 1 128, 464L128, 448A16 16 0 0 1 144, 432L192, 432L192, 96L48, 96L48, 128A16 16 0 0 1 32, 144L16, 144A16 16 0 0 1 0, 128L0, 48A16 16 0 0 1 16, 32z" fill="#727272" fill-opacity="1" class="Black" />
  </g>
</svg>