<?xml version='1.0' encoding='UTF-8'?>
<svg viewBox="-2 -3.554 32 32" xmlns="http://www.w3.org/2000/svg">
  <g transform="matrix(0.0486, 0, 0, 0.0486, 0, 0)">
    <path d="M560, 368L504, 368L504, 144L560, 144C574.31, 144 581.33, 126.69 571.31, 116.69L491.31, 36.69A16 16 0 0 0 468.69, 36.69L388.69, 116.69C379.36, 126 384.36, 144 400, 144L456, 144L456, 368L400, 368C385.69, 368 378.68, 385.31 388.69, 395.31L468.69, 475.31A16 16 0 0 0 491.31, 475.31L571.31, 395.31C580.64, 386 575.64, 368 560, 368zM304, 32L16, 32A16 16 0 0 0 0, 48L0, 128A16 16 0 0 0 16, 144L32, 144A16 16 0 0 0 48, 128L48, 96L128, 96L128, 432L80, 432A16 16 0 0 0 64, 448L64, 464A16 16 0 0 0 80, 480L240, 480A16 16 0 0 0 256, 464L256, 448A16 16 0 0 0 240, 432L192, 432L192, 96L272, 96L272, 128A16 16 0 0 0 288, 144L304, 144A16 16 0 0 0 320, 128L320, 48A16 16 0 0 0 304, 32z" fill="#727272" fill-opacity="1" class="Black" />
  </g>
</svg>