<?xml version='1.0' encoding='UTF-8'?>
<svg viewBox="-2 -1.9988 32 32" xmlns="http://www.w3.org/2000/svg">
  <g transform="matrix(0.0547, 0, 0, 0.0547, 0, 0)">
    <path d="M0, 80L0, 432C0, 458.51 21.49, 480 48, 480L464, 480C490.51, 480 512, 458.51 512, 432L512, 80C512, 53.49 490.51, 32 464, 32L48, 32C21.49, 32 0, 53.49 0, 80zM472, 304L197.333, 304L197.333, 208L472, 208L472, 304zM472, 344L472, 428C472, 434.627 466.627, 440 460, 440L197.333, 440L197.333, 344L472, 344zM40, 208L157.333, 208L157.333, 304L40, 304L40, 208zM197.333, 168L197.333, 72L460, 72C466.627, 72 472, 77.373 472, 84L472, 168L197.333, 168zM157.333, 72L157.333, 168L40, 168L40, 84C40, 77.373 45.373, 72 52, 72L157.333, 72zM40, 344L157.333, 344L157.333, 440L52, 440C45.373, 440 40, 434.627 40, 428L40, 344z" fill="#727272" fill-opacity="1" class="Black" />
  </g>
</svg>