<?xml version='1.0' encoding='UTF-8'?>
<svg viewBox="-2 -1.9988 32 32" xmlns="http://www.w3.org/2000/svg">
  <g transform="matrix(0.0547, 0, 0, 0.0547, 0, 0)">
    <path d="M0, 80L0, 432C0, 458.51 21.49, 480 48, 480L464, 480C490.51, 480 512, 458.51 512, 432L512, 80C512, 53.49 490.51, 32 464, 32L48, 32C21.49, 32 0, 53.49 0, 80zM232, 80L232, 232L48, 232L48, 86A6 6 0 0 1 54, 80L232, 80zM48, 280L232, 280L232, 432L54, 432A6 6 0 0 1 48, 426L48, 280zM280, 432L280, 280L464, 280L464, 426A6 6 0 0 1 458, 432L280, 432zM464, 232L280, 232L280, 80L458, 80A6 6 0 0 1 464, 86L464, 232z" fill="#727272" fill-opacity="1" class="Black" />
  </g>
</svg>