<?xml version='1.0' encoding='UTF-8'?>
<svg viewBox="-1.9975 -4.7995 32 32" xmlns="http://www.w3.org/2000/svg">
  <g transform="matrix(0.9989, 0, 0, 0.9989, 0, 0)">
    <g transform="matrix(0.0438, 0, 0, 0.0438, 0, 0)">
      <path d="M206.86, 244.47C170.98, 254.95 146.91, 285.77 149.33, 318.76C160.73, 306 178.14, 295 199.23, 287.76L206.86, 244.47zM606.8, 119.91C562.31, 95.15 514.45, 78.26 465.15, 69.57C415.85, 60.88 365.1, 60.38 314.83, 68.43C287.52, 72.8 265.75, 94.75 260.79, 122.92L229.06, 302.88C213.67, 390.15 324.34, 499.64 387.37, 510.76C450.4, 521.87 591.84, 456.83 607.23, 369.56L638.96, 189.6C643.92, 161.43 630.97, 133.36 606.8, 119.91zM559.94, 361.23C549.72, 419.18 435.74, 470.55 395.69, 463.49C355.63, 456.43 266.1, 369.17 276.31, 311.22L308.04, 131.26C309.44, 123.3 315.35, 116.96 322.4, 115.83C367.15, 108.67 412.36, 109.01 456.8, 116.85C501.24, 124.68 543.85, 139.83 583.44, 161.86C589.68, 165.33 593.06, 173.32 591.66, 181.28L559.94, 361.23zM80.05, 297.66L48.32, 118.22C46.92, 110.29 50.29, 102.33 56.54, 98.86C116.67, 65.49 184.72, 47.86 253.33, 47.86C261.78, 47.86 270.27, 48.34 278.75, 48.87C288.27, 43.61 298.66, 39.79 309.78, 38.01C328.67, 35 347.82, 33.47 366.96, 32.69C356.97, 18.74 342.49, 8.47 325.19, 5.7C301.27, 1.89 277.24, 0 253.32, 0C176.66, 0 101.02, 19.41 33.2, 57.04C9.03, 70.45 -3.92, 98.44 1.05, 126.53L32.78, 305.98C47.02, 386.46 169.11, 448 237.23, 448C240.92, 448 244.18, 447.54 247.52, 447.18C235.31, 431.62 224.41, 415.04 215.92, 397.8C163.04, 387.3 88.06, 342.95 80.05, 297.66zM193.36, 156.65C192.63, 152.52 191.13, 148.76 189.29, 145.23C181.04, 154.17 168.62, 161.02 153.97, 163.6C139.32, 166.18 125.3, 164 114.49, 158.42C113.97, 162.37 113.85, 166.42 114.58, 170.55C118.42, 192.31 139.16, 206.83 160.92, 203C182.68, 199.17 197.2, 178.4 193.36, 156.65zM505.95, 206.74C484.2, 202.9 463.45, 217.43 459.61, 239.19C458.88, 243.32 459, 247.37 459.52, 251.32C470.33, 245.74 484.35, 243.55 499, 246.14C513.65, 248.72 526.08, 255.57 534.33, 264.51C536.17, 260.98 537.67, 257.22 538.4, 253.08C542.23, 231.32 527.71, 210.57 505.95, 206.74zM372.95, 223.9C387.6, 226.48 400.03, 233.33 408.27, 242.27C410.11, 238.74 411.61, 234.98 412.34, 230.84C416.18, 209.08 401.65, 188.34 379.89, 184.5C358.14, 180.66 337.39, 195.19 333.55, 216.95C332.82, 221.08 332.94, 225.13 333.46, 229.08C344.28, 223.51 358.3, 221.32 372.95, 223.9zM417.26, 341.2C373.98, 333.57 338.37, 312.88 317.77, 287.28C313.29, 341.05 351.14, 390.64 406.81, 400.46C462.49, 410.28 515.02, 376.62 529.19, 324.56C501.08, 341.57 460.54, 348.83 417.26, 341.2z" fill="#727272" fill-opacity="1" class="Black" />
    </g>
  </g>
</svg>