<?xml version='1.0' encoding='UTF-8'?>
<svg viewBox="-2 -1.9988 32 31.9975" xmlns="http://www.w3.org/2000/svg">
  <g transform="matrix(0.0547, 0, 0, 0.0547, 0, 0)">
    <path d="M476.8, 20.4C439.3, -10.3 381.3, -5.9 344.9, 30.6L96, 281.1L96, 382L7, 471C-2.4, 480.4 -2.4, 495.6 7, 504.9C16.4, 514.3 31.6, 514.3 40.9, 504.9L129.9, 415.9L229.8, 415.9L484, 162.6C518.9, 127.7 526.2, 61.1 476.8, 20.4zM450.1, 128.6L210, 368L144, 368L144, 300.9L177.1, 267.6L204.7, 295.2C210.9, 301.4 221.1, 301.4 227.3, 295.2L238.6, 283.9C244.8, 277.7 244.8, 267.5 238.6, 261.3L211, 233.5L244.8, 199.4L272.6, 227.2C278.8, 233.4 289, 233.4 295.2, 227.2L306.5, 215.9C312.8, 209.7 312.8, 199.5 306.5, 193.3L278.5, 165.3L312.3, 131.2L340.4, 159.3C346.6, 165.5 356.8, 165.5 363, 159.3L374.3, 148C380.5, 141.7 380.5, 131.6 374.3, 125.4L346.1, 97.2L378.7, 64.4C397.9, 45.3 427.5, 42.2 446.1, 57.4C471.6, 78.4 467.2, 111.5 450.1, 128.6z" fill="#727272" fill-opacity="1" class="Black" />
  </g>
</svg>