<?xml version='1.0' encoding='UTF-8'?>
<svg viewBox="-8.9969 -2 31.9975 32" xmlns="http://www.w3.org/2000/svg">
  <g transform="matrix(0.0547, 0, 0, 0.0547, 0, 0)">
    <path d="M224, 96C224, 42.981 181.019, 0 128, 0C74.981, 0 32, 42.981 32, 96L32, 299.347C12.225, 321.756 0.166, 351.136 0.002, 383.333C-0.357, 453.636 56.789, 511.509 127.091, 511.997C127.39, 511.999 127.701, 512 128, 512C198.698, 512 256, 454.696 256, 384C256, 351.541 243.912, 321.91 224, 299.347L224, 96zM128, 472L127.369, 471.998C79.093, 471.663 39.755, 431.828 40.002, 383.537C40.19, 346.754 61.024, 326.912 72.001, 314.473L72.001, 96C72.001, 65.122 97.122, 40 128.001, 40C158.879, 40 184.001, 65.122 184.001, 96L184.001, 314.473C194.849, 326.765 216.001, 346.834 216.001, 384C216, 432.523 176.524, 472 128, 472zM184, 384C184, 414.928 158.928, 440 128, 440C97.072, 440 72, 414.928 72, 384C72, 361.662 85.082, 342.385 104, 333.396L104, 96C104, 82.745 114.745, 72 128, 72C141.255, 72 152, 82.745 152, 96L152, 333.396C170.918, 342.385 184, 361.662 184, 384z" fill="#727272" fill-opacity="1" class="Black" />
  </g>
</svg>