<?xml version='1.0' encoding='UTF-8'?>
<svg viewBox="-2 -4.7992 32 32" xmlns="http://www.w3.org/2000/svg">
  <g transform="matrix(0.9988, 0, 0, 0.9988, 0, 0)">
    <g transform="matrix(0.0438, 0, 0, 0.0438, 0, 0)">
      <path d="M500, 336L442.3, 336L459.6, 271.1C461.6, 263.5 455.9, 256 448, 256L380, 256C374, 256 368.9, 260.5 368.1, 266.4L352.1, 386.4C351.1, 393.6 356.7, 400 364, 400L423.3, 400L400.3, 497.2C398.5, 504.8 404.3, 512 412, 512C416.2, 512 420.2, 509.8 422.4, 506L510.4, 354C515, 346 509.2, 336 500, 336zM192.9, 263.7L187, 272.4L176.2, 288.4L165, 271.7L147.2, 245.4L116, 251.4L96.6, 255.2L100.4, 235.6L106.4, 204.5L80.2, 186.7L63.7, 175.5L80.2, 164.3L106.4, 146.5L100.4, 115.4L96.6, 95.9L116, 99.7L147.2, 105.7L165, 79.5L175.8, 63.5L187, 80.3L204.8, 106.6L236, 100.6L255.4, 96.9L251.6, 116.5L245.6, 147.6L259.1, 156.8C264.4, 153.6 269.8, 150.6 275.5, 148.1C282.5, 135.1 291.2, 123.3 301.2, 112.9L308.2, 76.8C310, 67.7 307.1, 58.4 300.6, 51.8C295.4, 46.5 288.3, 43.6 281, 43.6C279.2, 43.6 277.4, 43.8 275.7, 44.1L227, 53.5L199, 12.2C193.9, 4.6 185.2, 0 176, 0C167.1, 0 158.1, 3.8 153, 11.5L125.2, 52.7L76.5, 43.3C74.7, 43 72.9, 42.8 71.2, 42.8C63.9, 42.8 56.9, 45.7 51.6, 51C45.1, 57.6 42.2, 66.9 44, 76L53.4, 124.8L12.3, 152.7C4.6, 157.8 0, 166.4 0, 175.6C0, 184.8 4.6, 193.5 12.2, 198.7L53.3, 226.5L43.9, 275.3C42.1, 284.4 45, 293.7 51.5, 300.3C56.7, 305.6 63.8, 308.5 71.1, 308.5C72.9, 308.5 74.7, 308.3 76.4, 308L125.1, 298.6L152.9, 339.8C158.1, 347.5 166.7, 352.1 175.9, 352.1C184.8, 352.1 193.8, 348.3 198.9, 340.6L204.1, 332.8C196.3, 315.4 191.8, 296.3 191.8, 276.1C192, 271.8 192.5, 267.8 192.9, 263.7zM587.4, 183.4C575.4, 146.6 540.7, 120 500, 120C496.9, 120 493.9, 120.2 490.9, 120.5C469.3, 104.7 443.2, 96 416, 96C363.6, 96 318.4, 127.3 298.8, 173.2C255.4, 187.3 224, 228 224, 276C224, 331.6 266.3, 376.9 320.4, 382.8L320.4, 382.2L326.6, 335.5C296, 332.7 272, 307.3 272, 276C272, 242.9 298.9, 216 332, 216C333.6, 216 335.2, 216.4 336.8, 216.5C340.6, 175.9 374.4, 144 416, 144C441.2, 144 463.4, 155.9 478.1, 174.1C484.6, 170.3 492, 168 500, 168C524.3, 168 544, 187.7 544, 212C544, 213.8 543.7, 215.4 543.5, 217.2C571.1, 222.6 592, 246.8 592, 276C592, 305.8 570.2, 330.3 541.8, 335C545.4, 346.6 544.3, 359.3 538.1, 370L530, 384L532, 384C591.6, 384 640, 335.6 640, 276C640, 237.2 619.2, 202.4 587.4, 183.4zM176, 136C153.9, 136 136, 153.9 136, 176C136, 198.1 153.9, 216 176, 216C198.1, 216 216, 198.1 216, 176C216, 153.9 198.1, 136 176, 136z" fill="#727272" fill-opacity="1" class="Black" />
    </g>
  </g>
</svg>