<?xml version='1.0' encoding='UTF-8'?>
<svg viewBox="-2 -4.803 32 32" xmlns="http://www.w3.org/2000/svg">
  <g transform="matrix(1.0011, 0, 0, 1.0011, 0, 0)">
    <g transform="matrix(0.0437, 0, 0, 0.0437, 0, 0)">
      <path d="M277.6, 335.3L219.9, 335.3L237.2, 270.1C239.2, 262.5 233.5, 254.9 225.6, 254.9L157.6, 254.9C151.6, 254.9 146.5, 259.4 145.7, 265.4L129.7, 385.9C128.7, 393.1 134.3, 399.5 141.6, 399.5L201, 399.5L178, 497.1C176.2, 504.7 182, 511.9 189.7, 511.9C193.9, 511.9 197.9, 509.7 200.1, 505.9L288.1, 353.3C292.6, 345.4 286.9, 335.3 277.6, 335.3zM363.4, 184.1C351.3, 147.2 316.7, 120.5 276, 120.5C272.9, 120.5 269.9, 120.7 266.9, 121C245.3, 105.1 219.3, 96.4 192, 96.4C139.6, 96.4 94.4, 127.8 74.8, 173.9C31.4, 188 0, 228.9 0, 277.1C0, 333.4 43.2, 379.3 97.9, 384.5C98, 383.6 97.8, 382.6 98, 381.7L103.9, 336.9C72.7, 334.8 47.9, 309 47.9, 277.1C47.9, 243.8 74.8, 216.9 107.9, 216.9C109.5, 216.9 111.1, 217.3 112.7, 217.4C116.5, 176.6 150.3, 144.6 191.9, 144.6C217.1, 144.6 239.3, 156.5 254, 174.8C260.5, 171 267.9, 168.7 275.9, 168.7C300.2, 168.7 319.9, 188.5 319.9, 212.9C319.9, 214.7 319.6, 216.4 319.4, 218.1C347, 223.5 367.9, 247.9 367.9, 277.2C367.9, 306.3 347.4, 330.6 320, 336.2C322.9, 347.3 321.4, 359.4 315.6, 369.6L306.4, 385.6L307.9, 385.6C367.5, 385.6 415.9, 337 415.9, 277.2C416, 238.2 395.2, 203.2 363.4, 184.1zM637.8, 237.6C634, 229.7 626, 224.5 617.3, 224.5L615.8, 224.5L613, 225C606.9, 226.2 600.7, 226.8 594.6, 226.8C541.4, 226.8 498.1, 183.2 498.1, 129.6C498.1, 94.7 516.9, 62.3 547.1, 45.1C555.5, 40.3 559.9, 31 558.3, 21.4C556.7, 11.8 549.5, 4.5 540, 2.8C530.3, 0.9 520.5, 0 510.7, 0C437.1, 0 375.6, 50.5 357.1, 118.7C370.9, 130.6 382.1, 145.6 389.7, 163C390.3, 163.4 390.7, 163.9 391.3, 164.3C391.3, 163.1 390.9, 161.9 390.9, 160.7C390.9, 101.6 433.5, 52.3 489.5, 42.1C469.6, 66.4 458.2, 97.2 458.2, 129.6C458.2, 197.2 507, 253.6 571.1, 264.9C553.1, 275.5 532.4, 281.2 510.9, 281.2C487.5, 281.2 465.8, 274.2 447.3, 262.4C447.8, 267.3 448.2, 272.2 448.2, 277.1C448.2, 287.2 446.9, 297 444.9, 306.5C465.1, 315.8 487.3, 321.3 511, 321.3C559.4, 321.3 604.6, 299.6 635.2, 261.8C640.5, 254.9 641.6, 245.6 637.8, 237.6z" fill="#727272" fill-opacity="1" class="Black" />
    </g>
  </g>
</svg>