<?xml version='1.0' encoding='UTF-8'?>
<svg viewBox="-2 -3.554 32 32" xmlns="http://www.w3.org/2000/svg">
  <g transform="matrix(0.0486, 0, 0, 0.0486, 0, 0)">
    <path d="M568, 216L576, 216L576, 112C576, 85.49 554.51, 64 528, 64L48, 64C21.49, 64 0, 85.49 0, 112L0, 216L8, 216C30.091, 216 48, 233.909 48, 256C48, 278.091 30.091, 296 8, 296L0, 296L0, 400C0, 426.51 21.49, 448 48, 448L528, 448C554.51, 448 576, 426.51 576, 400L576, 296L568, 296C545.909, 296 528, 278.091 528, 256C528, 233.909 545.909, 216 568, 216zM528, 177.628C499.53, 192.218 480, 221.871 480, 256C480, 290.129 499.53, 319.782 528, 334.372L528, 400L48, 400L48, 334.372C76.471, 319.782 96, 290.129 96, 256C96, 221.871 76.471, 192.218 48, 177.628L48, 112L528, 112L528, 177.628z" fill="#727272" fill-opacity="1" class="Black" />
  </g>
</svg>