<?xml version='1.0' encoding='UTF-8'?>
<svg viewBox="-1.9999 -2.0035 31.9975 32" xmlns="http://www.w3.org/2000/svg">
  <g transform="matrix(0.0547, 0, 0, 0.0547, 0, 0)">
    <path d="M497.9, 150.5L361.5, 14.1C352.5, 5.1 340.3, 0 327.6, 0L184.5, 0C171.8, 0 159.6, 5.1 150.6, 14.1L14.1, 150.5C5.1, 159.5 0, 171.7 0, 184.4L0, 327.5C0, 340.2 5.1, 352.4 14.1, 361.4L150.6, 497.9C159.6, 506.9 171.8, 512 184.5, 512L327.6, 512C340.3, 512 352.5, 506.9 361.5, 497.9L498, 361.4C507, 352.4 512.1, 340.2 512.1, 327.5L512.1, 184.5C512, 171.7 506.9, 159.5 497.9, 150.5zM464, 327.5L327.5, 464L184.5, 464L48, 327.5L48, 184.5L184.5, 48L327.6, 48L464, 184.5L464, 327.5zM357.8, 335.2L335.2, 357.8C330.5, 362.5 322.9, 362.5 318.2, 357.8L256, 295.6L193.8, 357.8C189.1, 362.5 181.5, 362.5 176.8, 357.8L154.2, 335.2C149.5, 330.5 149.5, 322.9 154.2, 318.2L216.4, 256L154.2, 193.8C149.5, 189.1 149.5, 181.5 154.2, 176.8L176.8, 154.2C181.5, 149.5 189.1, 149.5 193.8, 154.2L256, 216.4L318.2, 154.2C322.9, 149.5 330.5, 149.5 335.2, 154.2L357.8, 176.8C362.5, 181.5 362.5, 189.1 357.8, 193.8L295.6, 256L357.8, 318.2C362.5, 322.9 362.5, 330.5 357.8, 335.2z" fill="#727272" fill-opacity="1" class="Black" />
  </g>
</svg>