<?xml version='1.0' encoding='UTF-8'?>
<svg viewBox="-1.1756 -2.8232 32 32" xmlns="http://www.w3.org/2000/svg">
  <g transform="matrix(0.9994, 0, 0, 0.9994, 0, 0)">
    <g transform="matrix(0.0515, 0, 0, 0.0515, 0, 0)">
      <path d="M441.5, 39.8C432.9, 25.1 417.1, 16 400, 16L176, 16C158.9, 16 143.1, 25.1 134.5, 39.8L22.5, 231.8C13.8, 246.7 13.8, 265.2 22.5, 280.2L134.5, 472.2C143.1, 486.9 158.9, 496 176, 496L400, 496C417.1, 496 432.9, 486.9 441.5, 472.2L553.5, 280.2C562.2, 265.3 562.2, 246.8 553.5, 231.8L441.5, 39.8zM400, 448L176, 448L64, 256L176, 64L400, 64L512, 256L400, 448zM389.8, 335.2L367.2, 357.8C362.5, 362.5 354.9, 362.5 350.2, 357.8L288, 295.6L225.8, 357.8C221.1, 362.5 213.5, 362.5 208.8, 357.8L186.2, 335.2C181.5, 330.5 181.5, 322.9 186.2, 318.2L248.4, 256L186.2, 193.8C181.5, 189.1 181.5, 181.5 186.2, 176.8L208.8, 154.2C213.5, 149.5 221.1, 149.5 225.8, 154.2L288, 216.4L350.2, 154.2C354.9, 149.5 362.5, 149.5 367.2, 154.2L389.8, 176.8C394.5, 181.5 394.5, 189.1 389.8, 193.8L327.6, 256L389.8, 318.2C394.5, 322.9 394.5, 330.5 389.8, 335.2z" fill="#727272" fill-opacity="1" class="Black" />
    </g>
  </g>
</svg>