<?xml version='1.0' encoding='UTF-8'?>
<svg viewBox="-1.9975 -4.7983 31.9975 32" xmlns="http://www.w3.org/2000/svg">
  <g transform="matrix(0.9989, 0, 0, 0.9989, 0, 0)">
    <g transform="matrix(0.0438, 0, 0, 0.0438, 0, 0)">
      <path d="M633.99, 471.01L36, 3.51C29.1, -2.01 19.03, -0.9 13.51, 6L3.51, 18.49C-2.02, 25.39 -0.9, 35.46 6, 40.98L604, 508.49C610.9, 514.01 620.96, 512.89 626.49, 506L636.49, 493.51C642.01, 486.61 640.9, 476.54 633.99, 471.01zM320, 83.66C343.15, 140.49 372.02, 181.76 396.2, 216.32C400.4, 222.32 404.36, 228.01 408.15, 233.53L492.39, 299.39C474.47, 211.69 391.03, 163.12 349.22, 22.09C345.21, 7.54 332.61, 0 319.97, 0C307.62, 0 295.23, 7.2 290.78, 22.09C280.34, 57.29 267.2, 86.56 253.16, 112.36L291.28, 142.16C301.29, 124.41 311.11, 105.45 320, 83.66zM320, 464C249.42, 464 192, 405.64 192, 333.91C192, 307.56 199.73, 286.26 212.76, 263.54L174.7, 233.78C156.55, 264.02 144, 294.72 144, 333.91C144, 432.35 222.72, 512 320, 512C372.93, 512 420.23, 488.31 452.48, 450.96L414.31, 421.12C390.88, 447.27 357.46, 464 320, 464z" fill="#727272" fill-opacity="1" class="Black" />
    </g>
  </g>
</svg>