<?xml version='1.0' encoding='UTF-8'?>
<svg viewBox="-6.3751 -2 32 32" xmlns="http://www.w3.org/2000/svg">
  <g transform="matrix(0.0547, 0, 0, 0.0547, 0, 0)">
    <path d="M205.22, 22.09C201.21, 7.53 188.61, 0 175.97, 0C163.62, 0 151.23, 7.2 146.78, 22.09C100.01, 179.85 0, 222.72 0, 333.91C0, 432.35 78.72, 512 176, 512C273.28, 512 352, 432.35 352, 333.91C352, 222.16 252.21, 180.57 205.22, 22.09zM176, 464C105.42, 464 48, 405.64 48, 333.91C48, 290.58 68.67, 260.96 99.96, 216.12C124.11, 181.51 152.94, 140.2 176, 83.66C199.15, 140.49 228.02, 181.76 252.2, 216.32C283.39, 260.9 304, 290.35 304, 333.92C304, 405.64 246.58, 464 176, 464zM192, 400C147.88, 400 112, 364.11 112, 320C112, 311.16 104.84, 304 96, 304C87.16, 304 80, 311.16 80, 320C80, 381.75 130.25, 432 192, 432C200.84, 432 208, 424.84 208, 416C208, 407.16 200.84, 400 192, 400z" fill="#727272" fill-opacity="1" class="Black" />
  </g>
</svg>