<?xml version='1.0' encoding='UTF-8'?>
<svg viewBox="-2 -2 32 32" xmlns="http://www.w3.org/2000/svg">
  <g transform="matrix(0.0547, 0, 0, 0.0547, 0, 0)">
    <path d="M474.35, 165.55C481.24, 140.67 474.92, 112.88 455.41, 93.36L418.63, 56.6C404.65, 42.62 386.07, 34.92 366.3, 34.92C359.48, 34.92 352.81, 35.84 346.41, 37.61C333.69, 15.17 309.58, 0 282, 0L230, 0C202.42, 0 178.31, 15.17 165.58, 37.61A74.512 74.512 0 0 0 145.69, 34.92C125.92, 34.92 107.34, 42.62 93.36, 56.6L56.6, 93.36C37.08, 112.88 30.77, 140.68 37.66, 165.55C15.19, 178.27 0, 202.39 0, 230L0, 282C0, 309.6 15.19, 333.72 37.65, 346.44C30.76, 371.32 37.08, 399.11 56.59, 418.63L93.36, 455.4C107.34, 469.38 125.92, 477.07 145.69, 477.07C152.51, 477.07 159.18, 476.15 165.58, 474.38C178.3, 496.83 202.41, 512 230, 512L282, 512C309.59, 512 333.7, 496.83 346.42, 474.39A74.457 74.457 0 0 0 366.31, 477.08C386.08, 477.08 404.66, 469.38 418.63, 455.41L455.4, 418.64C474.92, 399.12 481.23, 371.32 474.34, 346.45C496.81, 333.72 512, 309.6 512, 282L512, 230C512, 202.39 496.81, 178.27 474.35, 165.55zM464, 282C464, 296.36 452.36, 308 438, 308L430.36, 308C426.76, 320.09 422.02, 331.69 416.11, 342.58L421.46, 347.93C431.61, 358.08 431.61, 374.55 421.46, 384.7L384.69, 421.47C379.61, 426.55 372.96, 429.09 366.31, 429.09C359.66, 429.09 353, 426.55 347.93, 421.47L342.58, 416.12C331.69, 422.02 320.09, 426.76 308, 430.37L308, 438C308, 452.36 296.36, 464 282, 464L230, 464C215.64, 464 204, 452.36 204, 438L204, 430.36C191.91, 426.76 180.31, 422.02 169.42, 416.11L164.07, 421.46C158.99, 426.54 152.34, 429.08 145.69, 429.08C139.04, 429.08 132.38, 426.54 127.31, 421.46L90.54, 384.69C80.39, 374.54 80.39, 358.07 90.54, 347.92L95.89, 342.57C89.99, 331.68 85.25, 320.08 81.64, 307.99L74, 307.99C59.64, 307.99 48, 296.35 48, 281.99L48, 229.99C48, 215.63 59.64, 203.99 74, 203.99L81.64, 203.99C85.24, 191.9 89.98, 180.3 95.89, 169.41L90.54, 164.07C80.39, 153.92 80.39, 137.45 90.54, 127.3L127.31, 90.53C132.39, 85.45 139.04, 82.91 145.69, 82.91C152.34, 82.91 159, 85.45 164.07, 90.53L169.42, 95.87C180.31, 89.97 191.91, 85.23 204, 81.63L204, 74C204, 59.64 215.64, 48 230, 48L282, 48C296.36, 48 308, 59.64 308, 74L308, 81.64C320.09, 85.24 331.69, 89.98 342.58, 95.88L347.93, 90.54C353.01, 85.46 359.66, 82.92 366.31, 82.92C372.96, 82.92 379.62, 85.46 384.69, 90.54L421.46, 127.31C431.61, 137.46 431.61, 153.93 421.46, 164.08L416.11, 169.42C422.01, 180.31 426.75, 191.91 430.36, 204L438, 204C452.36, 204 464, 215.64 464, 230L464, 282zM256, 111.98C176.47, 111.98 112, 176.45 112, 255.98C112, 335.51 176.47, 399.98 256, 399.98C335.53, 399.98 400, 335.51 400, 255.98C400, 176.45 335.53, 111.98 256, 111.98zM256, 367.98C194.24, 367.98 144, 317.74 144, 255.98C144, 194.22 194.24, 143.98 256, 143.98C317.76, 143.98 368, 194.22 368, 255.98C368, 317.74 317.76, 367.98 256, 367.98zM256, 176C242.75, 176 232, 186.74 232, 200C232, 213.25 242.75, 224 256, 224C269.25, 224 280, 213.25 280, 200C280, 186.74 269.25, 176 256, 176zM256, 287.98C242.75, 287.98 232, 298.72 232, 311.98C232, 325.23 242.75, 335.98 256, 335.98C269.25, 335.98 280, 325.23 280, 311.98C280, 298.73 269.25, 287.98 256, 287.98zM312, 232C298.75, 232 288, 242.74 288, 256C288, 269.25 298.75, 280 312, 280C325.25, 280 336, 269.25 336, 256C336, 242.74 325.25, 232 312, 232zM200, 232C186.75, 232 176, 242.74 176, 256C176, 269.25 186.75, 280 200, 280C213.25, 280 224, 269.25 224, 256C224, 242.74 213.25, 232 200, 232z" fill="#727272" fill-opacity="1" class="Black" />
  </g>
</svg>