<?xml version='1.0' encoding='UTF-8'?>
<svg viewBox="-2 -2 32 32" xmlns="http://www.w3.org/2000/svg">
  <g transform="matrix(0.0547, 0, 0, 0.0547, 0, 0)">
    <path d="M246.48, 256.02L265.52, 256.02C273.74, 256.02 280.62, 249.79 281.44, 241.61L294.24, 113.61C295.18, 104.19 287.79, 96.02 278.32, 96.02L233.68, 96.02C224.21, 96.02 216.82, 104.19 217.76, 113.61L230.56, 241.61C231.38, 249.79 238.26, 256.02 246.48, 256.02zM504.15, 215.71C498.13, 187.16 484.66, 160.92 469.92, 135.73C455.57, 111.21 448, 84.89 448, 59.47L448, 16C448, 7.16 440.84, 0 432, 0L416, 0C407.16, 0 400, 7.16 400, 16L400, 59.47C400, 148.51 455.66, 171.95 463.19, 265.67C467.92, 324.61 452.14, 370.89 409.97, 418.94C402.53, 427.41 391.49, 432 380.22, 432L131.78, 432C120.49, 432 109.44, 427.41 102, 418.92C59.84, 370.86 44.07, 324.57 48.81, 265.63C56.21, 173.78 112, 147.1 112, 59.47L112, 16C112, 7.16 104.84, 0 96, 0L80, 0C71.16, 0 64, 7.16 64, 16L64, 59.47C64, 84.89 56.44, 111.2 42.09, 135.7C27.35, 160.86 13.89, 187.08 7.87, 215.62C-11.84, 308.97 4.83, 380.7 65.58, 450.16C69.9, 455.09 74.77, 459.41 80.01, 463.2L80.01, 496C80.01, 504.84 87.17, 512 96.01, 512L128.01, 512C136.85, 512 144.01, 504.84 144.01, 496L144.01, 480L176.01, 480L176.01, 496C176.01, 504.84 183.17, 512 192.01, 512L224.01, 512C232.85, 512 240.01, 504.84 240.01, 496L240.01, 480L272.01, 480L272.01, 496C272.01, 504.84 279.17, 512 288.01, 512L320.01, 512C328.85, 512 336.01, 504.84 336.01, 496L336.01, 480L368.01, 480L368.01, 496C368.01, 504.84 375.17, 512 384.01, 512L416.01, 512C424.85, 512 432.01, 504.84 432.01, 496L432.01, 463.2C437.23, 459.42 442.09, 455.11 446.4, 450.19C507.15, 380.75 523.84, 309.03 504.15, 215.71zM256, 288.02C238.33, 288.02 224, 302.35 224, 320.02C224, 337.69 238.33, 352.02 256, 352.02C273.67, 352.02 288, 337.69 288, 320.02C288, 302.34 273.67, 288.02 256, 288.02z" fill="#727272" fill-opacity="1" class="Black" />
  </g>
</svg>