<?xml version='1.0' encoding='UTF-8'?>
<svg viewBox="-1.9949 -3.554 31.9975 32" xmlns="http://www.w3.org/2000/svg">
  <g transform="matrix(0.0486, 0, 0, 0.0486, 0, 0)">
    <path d="M216, 232C229.25, 232 240, 221.25 240, 208C240, 194.74 229.25, 184 216, 184C202.75, 184 192, 194.74 192, 208C192, 221.25 202.75, 232 216, 232zM296, 232C309.25, 232 320, 221.25 320, 208C320, 194.74 309.25, 184 296, 184C282.75, 184 272, 194.74 272, 208C272, 221.25 282.75, 232 296, 232zM112, 208C112, 221.25 122.75, 232 136, 232C149.25, 232 160, 221.25 160, 208C160, 194.74 149.25, 184 136, 184C122.75, 184 112, 194.74 112, 208zM464, 144C450.75, 144 440, 165.49 440, 192C440, 218.51 450.75, 240 464, 240C477.26, 240 488, 218.51 488, 192C488, 165.49 477.26, 144 464, 144zM464, 0L144, 0C82.14, 0 32, 85.96 32, 192L32, 364.07C32, 405.19 22.2, 426.84 0.83, 490.94C-2.62, 501.3 5.09, 512 16.01, 512L344.93, 512C358.7, 512 370.93, 503.19 375.29, 490.12C386.45, 456.64 396.88, 426.58 399.4, 384L464, 384C525.86, 384 576, 298.04 576, 192C576, 85.96 525.86, 0 464, 0zM352, 192L352, 364.07C352, 405.14 343.98, 432.11 333.4, 464L60.6, 464C73.16, 426.48 80, 401.78 80, 364.07L80, 192C80, 105.43 118.52, 48 144, 48L390.09, 48C366.78, 83.19 352, 134.58 352, 192zM464, 336C438.52, 336 400, 278.57 400, 192C400, 105.43 438.52, 48 464, 48C489.48, 48 528, 105.43 528, 192C528, 278.57 489.48, 336 464, 336z" fill="#727272" fill-opacity="1" class="Black" />
  </g>
</svg>