<?xml version='1.0' encoding='UTF-8'?>
<svg viewBox="-5.5003 -2 32 32" xmlns="http://www.w3.org/2000/svg">
  <g transform="matrix(0.0547, 0, 0, 0.0547, 0, 0)">
    <path d="M152, 64L104, 64C99.6, 64 96, 67.6 96, 72L96, 88C96, 92.4 99.6, 96 104, 96L152, 96C156.4, 96 160, 92.4 160, 88L160, 72C160, 67.6 156.4, 64 152, 64zM368, 48C376.8, 48 384, 40.8 384, 32L384, 16C384, 7.2 376.8, 0 368, 0L16, 0C7.2, 0 0, 7.2 0, 16L0, 32C0, 40.8 7.2, 48 16, 48L32, 48L32, 204.7C11.8, 214.8 0, 226.9 0, 240C0, 301.4 28.9, 355.9 73.7, 391L49.4, 470.7C43.1, 491.2 58.5, 512 80, 512L304, 512C325.5, 512 340.9, 491.2 334.6, 470.7L310.3, 391C355.1, 355.9 384, 301.3 384, 240C384, 226.9 372.2, 214.8 352, 204.7L352, 48L368, 48zM80, 48L304, 48L304, 188.1C272.5, 180.5 233.8, 176 192, 176C150.2, 176 111.5, 180.5 80, 188.1L80, 48zM101.6, 464L116.1, 416.4C139.4, 426.4 165, 432 192, 432C219, 432 244.6, 426.4 267.9, 416.4L282.4, 464L101.6, 464zM192, 384C128.4, 384 74.7, 342.4 55.7, 285.1C90.5, 296.8 138.7, 304 192, 304C245.3, 304 293.5, 296.8 328.3, 285.1C309.3, 342.4 255.6, 384 192, 384zM192, 268C114.9, 268 52.4, 255.5 52.4, 240C52.4, 224.5 114.9, 212 192, 212C269.1, 212 331.6, 224.5 331.6, 240C331.6, 255.5 269.1, 268 192, 268z" fill="#727272" fill-opacity="1" class="Black" />
  </g>
</svg>