<?xml version='1.0' encoding='UTF-8'?>
<svg viewBox="-2 -1.9988 32 32" xmlns="http://www.w3.org/2000/svg">
  <g transform="matrix(0.0547, 0, 0, 0.0547, 0, 0)">
    <path d="M512, 237.25C512, 228.76 508.63, 220.63 502.63, 214.62L457.37, 169.36C451.37, 163.36 443.23, 159.99 434.74, 159.99L384, 159.99L384, 80C384, 53.49 362.51, 32 336, 32L176, 32C149.49, 32 128, 53.49 128, 80L128, 160L77.26, 160C68.77, 160 60.63, 163.37 54.63, 169.37L9.37, 214.63C3.37, 220.63 0, 228.77 0, 237.26L0.01, 304L0, 448C0, 465.67 14.33, 480 32, 480L480, 480C497.67, 480 512, 465.67 512, 448L512, 237.25zM176, 80L336, 80L336, 160L176, 160L176, 80zM48, 243.88L83.88, 208L428.11, 208L464, 243.88L464.01, 304L376, 304L376, 288C376, 279.16 368.84, 272 360, 272L344, 272C335.16, 272 328, 279.16 328, 288L328, 304L184, 304L184, 288C184, 279.16 176.84, 272 168, 272L152, 272C143.16, 272 136, 279.16 136, 288L136, 304L48.01, 304L48, 243.88zM464, 432L48, 432L48, 352L136, 352L136, 368C136, 376.84 143.16, 384 152, 384L168, 384C176.84, 384 184, 376.84 184, 368L184, 352L328, 352L328, 368C328, 376.84 335.16, 384 344, 384L360, 384C368.84, 384 376, 376.84 376, 368L376, 352L464, 352L464, 432z" fill="#727272" fill-opacity="1" class="Black" />
  </g>
</svg>