<?xml version='1.0' encoding='UTF-8'?>
<svg viewBox="-2 -4.7992 32 32" xmlns="http://www.w3.org/2000/svg">
  <g transform="matrix(0.9988, 0, 0, 0.9988, 0, 0)">
    <g transform="matrix(0.0438, 0, 0, 0.0438, 0, 0)">
      <path d="M624, 464L16, 464C7.16, 464 0, 471.16 0, 480L0, 496C0, 504.84 7.16, 512 16, 512L624, 512C632.84, 512 640, 504.84 640, 496L640, 480C640, 471.16 632.84, 464 624, 464zM48, 224C39.16, 224 32, 231.16 32, 240L32, 432L80, 432L80, 240C80, 231.16 72.84, 224 64, 224L48, 224zM416, 224C407.16, 224 400, 231.16 400, 240L400, 432L448, 432L448, 240C448, 231.16 440.84, 224 432, 224L416, 224zM144, 224C135.16, 224 128, 231.16 128, 240L128, 432L176, 432L176, 240C176, 231.16 168.84, 224 160, 224L144, 224zM320, 224C311.16, 224 304, 231.16 304, 240L304, 432L352, 432L352, 240C352, 231.16 344.84, 224 336, 224L320, 224zM232, 224C223.16, 224 216, 231.16 216, 240L216, 432L264, 432L264, 240C264, 231.16 256.84, 224 248, 224L232, 224zM64, 192L416, 192C451.35, 192 480, 163.35 480, 128C480, 57.31 422.69, 0 352, 0C375.62, 23.62 358.89, 64 325.49, 64L64, 64C28.65, 64 0, 92.65 0, 128C0, 163.35 28.65, 192 64, 192zM64, 112L325.49, 112C357.94, 112 387.15, 93.89 401.67, 65.32C420.13, 79.99 432, 102.64 432, 128C432, 136.82 424.82, 144 416, 144L64, 144C55.18, 144 48, 136.82 48, 128C48, 119.18 55.18, 112 64, 112z" fill="#727272" fill-opacity="1" class="Black" />
    </g>
  </g>
</svg>