<?xml version='1.0' encoding='UTF-8'?>
<svg viewBox="-3.7495 -1.9975 32 31.9975" xmlns="http://www.w3.org/2000/svg">
  <g transform="matrix(0.0547, 0, 0, 0.0547, 0, 0)">
    <path d="M443.96, 96.2C432.93, 50.91 396.83, 14.13 351.99, 2.5C324.51, -4.66 294.5, 3.53 262.83, 26.81C251.38, 35.23 237.63, 39.83 224.02, 40.11C217.74, 39.99 206.9, 40.24 183.59, 25.75C183.49, 25.69 183.38, 25.7 183.29, 25.64C152.33, 3.4 122.92, -4.46 96.04, 2.49C51.19, 14.13 15.08, 50.92 4.04, 96.22C-5.55, 135.74 2.09, 174.96 25.55, 206.67C46.06, 234.38 57.59, 268.49 61.84, 314.02C65.45, 352.71 71.1, 403.64 82.77, 454.34L90.57, 488.33C93.79, 502.27 105.99, 512 120.24, 512C134.21, 512 146.36, 502.5 149.78, 488.84L184.26, 350.41C188.82, 332.06 205.16, 319.25 224, 319.25C242.84, 319.25 259.2, 332.06 263.76, 350.41L298.22, 488.89C301.65, 502.5 313.8, 512 327.77, 512C342.02, 512 354.22, 502.26 357.44, 488.31L365.24, 454.34C376.91, 403.63 382.57, 352.71 386.17, 314.02C390.42, 268.48 401.95, 234.37 422.45, 206.67C445.92, 174.96 453.56, 135.74 443.96, 96.2zM383.87, 178.1C357.94, 213.15 343.49, 254.92 338.39, 309.55C335.87, 336.4 332.36, 369.29 326.45, 403.56L310.33, 338.81C300.41, 299.04 264.91, 271.26 224, 271.26C183.07, 271.26 147.57, 299.04 137.68, 338.83L121.54, 403.58C115.64, 369.33 112.12, 336.4 109.6, 309.56C104.51, 254.93 90.06, 213.16 64.11, 178.11C49.27, 158.05 44.49, 133 50.66, 107.59C57.56, 79.24 80.11, 56.23 108.1, 48.96C110.63, 48.3 113.24, 47.98 115.85, 47.98C131.77, 47.98 133.75, 51.33 251.33, 124.38C255.27, 126.83 259.64, 127.99 263.97, 127.99C271.98, 127.99 279.83, 123.97 284.37, 116.65C291.35, 105.4 287.9, 90.6 276.64, 83.6L268.18, 78.34C276.26, 74.87 284.08, 70.79 291.26, 65.52C310.48, 51.36 326.38, 45.39 339.89, 48.99C367.87, 56.24 390.41, 79.26 397.3, 107.59C403.51, 132.98 398.73, 158.03 383.87, 178.1z" fill="#727272" fill-opacity="1" class="Black" />
  </g>
</svg>