<?xml version='1.0' encoding='UTF-8'?>
<svg viewBox="-2 -4.7992 32 32" xmlns="http://www.w3.org/2000/svg">
  <g transform="matrix(0.9988, 0, 0, 0.9988, 0, 0)">
    <g transform="matrix(0.0438, 0, 0, 0.0438, 0, 0)">
      <path d="M224.36, 256L195.15, 304.86A21.11 21.11 0 0 0 213.25, 336.86L272.79, 336.86L302, 385.71A20.78 20.78 0 0 0 320, 395.94A21.13 21.13 0 0 0 338.16, 385.57L367.29, 336.87L426.74, 336.87A21.25 21.25 0 0 0 445.22, 326.15A20.69 20.69 0 0 0 445, 305L415.65, 256L444.89, 207.14A21.12 21.12 0 0 0 426.79, 175.14L367.25, 175.14L338, 126.29A20.76 20.76 0 0 0 320.05, 116.06A21.13 21.13 0 0 0 301.83, 126.43L272.7, 175.13L213.25, 175.13A21.23 21.23 0 0 0 194.77, 185.85A20.7 20.7 0 0 0 195, 207zM220.74, 311.5L239.13, 280.68L257.59, 311.5zM320.05, 366.5L302.31, 336.86L337.77, 336.86zM419.31, 311.5L382.45, 311.5L400.86, 280.7zM419.26, 200.5L400.86, 231.32L382.4, 200.5zM320, 145.5L337.68, 175.12L302.22, 175.12zM287.07, 200.45L352.86, 200.45L386.09, 256L352.92, 311.5L287.13, 311.5L253.9, 256zM257.55, 200.45L239.18, 231.25L220.74, 200.45zM560, 0C523.83, 0 494.33, 20 484.12, 48L155.88, 48C145.67, 20 116.17, 0 80, 0C35.14, 0 0, 30.46 0, 69.33L0, 442.67C0, 481.54 35.14, 512 80, 512C116.17, 512 145.67, 492.05 155.88, 464L484.12, 464C494.33, 492.05 523.83, 512 560, 512C604.86, 512 640, 481.54 640, 442.67L640, 69.33C640, 30.46 604.86, 0 560, 0zM112, 442.67C112, 454.45 97.67, 464 80, 464C62.33, 464 48, 454.45 48, 442.67L48, 69.33C48, 57.55 62.33, 48 80, 48C97.67, 48 112, 57.55 112, 69.33zM480, 416L160, 416L160, 96L480, 96zM592, 442.67C592, 454.45 577.67, 464 560, 464C542.33, 464 528, 454.45 528, 442.67L528, 69.33C528, 57.55 542.33, 48 560, 48C577.67, 48 592, 57.55 592, 69.33z" fill="#727272" fill-opacity="1" class="Black" />
    </g>
  </g>
</svg>