<?xml version='1.0' encoding='UTF-8'?>
<svg viewBox="-3.7495 -2 32 32" xmlns="http://www.w3.org/2000/svg">
  <g transform="matrix(0.0547, 0, 0, 0.0547, 0, 0)">
    <path d="M264, 336C264, 358.091 246.091, 376 224, 376C201.909, 376 184, 358.091 184, 336C184, 313.909 201.909, 296 224, 296C246.091, 296 264, 313.909 264, 336zM448, 109.714L448, 338.286C448, 387.48 404.295, 428.915 348.941, 442.999L407.699, 501.757C411.479, 505.537 408.802, 512 403.456, 512L355.029, 512A11.996 11.996 0 0 1 346.544, 508.485L286.059, 448L161.941, 448L101.456, 508.485A12.002 12.002 0 0 1 92.971, 512L44.544, 512C39.199, 512 36.522, 505.537 40.301, 501.757L99.059, 442.999C43.886, 428.961 0, 387.656 0, 338.286L0, 109.714C0, 45.928 71.001, 0 138.286, 0L309.714, 0C377.889, 0 448, 45.922 448, 109.714zM48, 224L400, 224L400, 144L48, 144L48, 224zM50.774, 96L397.308, 96C387.108, 69.864 349.337, 48 309.713, 48L138.286, 48C99.424, 48 61.275, 69.67 50.774, 96zM400, 338.286L400, 272L48, 272L48, 338.286C48, 374.495 99.974, 400 138.286, 400L309.714, 400C347.479, 400 400, 374.816 400, 338.286z" fill="#727272" fill-opacity="1" class="Black" />
  </g>
</svg>