<?xml version='1.0' encoding='UTF-8'?>
<svg viewBox="-2.0025 -2 32 32" xmlns="http://www.w3.org/2000/svg">
  <g transform="matrix(0.0547, 0, 0, 0.0547, 0, 0)">
    <path d="M511.1, 49.6C507.6, 36.8 494.4, 29.4 481.6, 32.8L17.6, 160.8C4.8, 164.3 -2.7, 177.6 0.8, 190.3C3.8, 201 13.5, 208 24, 208C26.1, 208 28.3, 207.7 30.4, 207.1L232, 151.5L232, 224L64, 224C46.3, 224 32, 238.3 32, 256L32, 480C32, 497.7 46.3, 512 64, 512L448, 512C465.7, 512 480, 497.7 480, 480L480, 256C480, 238.3 465.7, 224 448, 224L280, 224L280, 138.3L494.4, 79.2C507.2, 75.6 514.7, 62.4 511.1, 49.6zM432, 272L432, 464L80, 464L80, 272L432, 272zM144, 384L176, 384C184.8, 384 192, 376.8 192, 368L192, 336C192, 327.2 184.8, 320 176, 320L144, 320C135.2, 320 128, 327.2 128, 336L128, 368C128, 376.8 135.2, 384 144, 384zM240, 384L272, 384C280.8, 384 288, 376.8 288, 368L288, 336C288, 327.2 280.8, 320 272, 320L240, 320C231.2, 320 224, 327.2 224, 336L224, 368C224, 376.8 231.2, 384 240, 384zM336, 384L368, 384C376.8, 384 384, 376.8 384, 368L384, 336C384, 327.2 376.8, 320 368, 320L336, 320C327.2, 320 320, 327.2 320, 336L320, 368C320, 376.8 327.2, 384 336, 384zM192, 96C209.7, 96 224, 81.7 224, 64C224, 46.3 209.7, 32 192, 32C174.3, 32 160, 46.3 160, 64C160, 81.7 174.3, 96 192, 96zM288, 64C305.7, 64 320, 49.7 320, 32C320, 14.3 305.7, 0 288, 0C270.3, 0 256, 14.3 256, 32C256, 49.7 270.3, 64 288, 64z" fill="#727272" fill-opacity="1" class="Black" />
  </g>
</svg>