<?xml version='1.0' encoding='UTF-8'?>
<svg viewBox="-5.5003 -2 32 32" xmlns="http://www.w3.org/2000/svg">
  <g transform="matrix(0.0547, 0, 0, 0.0547, 0, 0)">
    <path d="M372, 0L309, 0C298.3, 0 293, 12.9 300.5, 20.5L315, 35L227.4, 122.6C203.9, 105.9 175.1, 96 144, 96C64.5, 96 0, 160.5 0, 240C0, 311.4 51.9, 370.6 120, 382L120, 416L76, 416C69.4, 416 64, 421.4 64, 428L64, 452C64, 458.6 69.4, 464 76, 464L120, 464L120, 500C120, 506.6 125.4, 512 132, 512L156, 512C162.6, 512 168, 506.6 168, 500L168, 464L212, 464C218.6, 464 224, 458.6 224, 452L224, 428C224, 421.4 218.6, 416 212, 416L168, 416L168, 382C236.1, 370.6 288, 311.4 288, 240C288, 208.9 278.1, 180.1 261.4, 156.6L349, 69L363.5, 83.5C371.1, 91.1 384, 85.7 384, 75L384, 12C384, 5.4 378.6, 0 372, 0zM144, 336C91.1, 336 48, 292.9 48, 240C48, 187.1 91.1, 144 144, 144C196.9, 144 240, 187.1 240, 240C240, 292.9 196.9, 336 144, 336z" fill="#727272" fill-opacity="1" class="Black" />
  </g>
</svg>