<?xml version='1.0' encoding='UTF-8'?>
<svg viewBox="-3.7495 -2 32 32" xmlns="http://www.w3.org/2000/svg">
  <g transform="matrix(0.0547, 0, 0, 0.0547, 0, 0)">
    <path d="M432, 80L349.6, 80L315.6, 23.3A48 48 0 0 0 274.4, 0L173.6, 0A48 48 0 0 0 132.4, 23.3L98.4, 80L16, 80A16 16 0 0 0 0, 96L0, 112A16 16 0 0 0 16, 128L32, 128L53.2, 467A48 48 0 0 0 101.1, 512L346.9, 512A48 48 0 0 0 394.8, 467L416, 128L432, 128A16 16 0 0 0 448, 112L448, 96A16 16 0 0 0 432, 80zM173.6, 48L274.4, 48L293.6, 80L154.4, 80zM346.9, 464L101.11, 464L80.11, 128L367.91, 128z" fill="#727272" fill-opacity="1" class="Black" />
  </g>
</svg>