<?xml version='1.0' encoding='UTF-8'?>
<svg viewBox="-2 -3.554 32 32" xmlns="http://www.w3.org/2000/svg">
  <g transform="matrix(0.0486, 0, 0, 0.0486, 0, 0)">
    <path d="M448, 32L128, 32C57.31, 32 0, 89.31 0, 160L0, 448C0, 465.67 14.33, 480 32, 480L544, 480C561.67, 480 576, 465.67 576, 448L576, 160C576, 89.31 518.69, 32 448, 32zM96, 432L48, 432L48, 288L96, 288L96, 432zM96, 240L48, 240L48, 160C48, 127.28 67.8, 99.16 96, 86.78L96, 240zM432, 432L144, 432L144, 288L224, 288L224, 336C224, 344.84 231.16, 352 240, 352L336, 352C344.84, 352 352, 344.84 352, 336L352, 288L432, 288L432, 432zM272, 288L272, 256C272, 247.16 279.16, 240 288, 240C296.84, 240 304, 247.16 304, 256L304, 288C304, 296.84 296.84, 304 288, 304C279.16, 304 272, 296.84 272, 288zM432, 240L352, 240L352, 208C352, 199.16 344.84, 192 336, 192L240, 192C231.16, 192 224, 199.16 224, 208L224, 240L144, 240L144, 80L432, 80L432, 240zM528, 432L480, 432L480, 288L528, 288L528, 432zM528, 240L480, 240L480, 86.78C508.2, 99.16 528, 127.28 528, 160L528, 240z" fill="#727272" fill-opacity="1" class="Black" />
  </g>
</svg>