<?xml version='1.0' encoding='UTF-8'?>
<svg viewBox="-1.9948 -1.9998 31.9975 32" xmlns="http://www.w3.org/2000/svg">
  <g transform="matrix(0.0547, 0, 0, 0.0547, 0, 0)">
    <path d="M232, 256C218.7, 256 208, 266.7 208, 280C208, 293.3 218.7, 304 232, 304C245.3, 304 256, 293.3 256, 280C256, 266.7 245.3, 256 232, 256zM312, 352C298.7, 352 288, 362.7 288, 376C288, 389.3 298.7, 400 312, 400C325.3, 400 336, 389.3 336, 376C336, 362.7 325.3, 352 312, 352zM502.1, 434.8L435.6, 347.8C446.2, 343 455, 334.5 459.9, 323.4C467.6, 306 464.3, 285.8 451.5, 271.7L338, 146.8L350.4, 140.6C361.2, 135.2 368.1, 124.1 368.1, 112C368.1, 99.9 361.3, 88.8 350.4, 83.4L306.6, 61.5L284.7, 17.7C279.2, 6.8 268.1, 0 256, 0C243.9, 0 232.8, 6.8 227.4, 17.7L205.5, 61.5L161.7, 83.4C150.8, 88.8 144, 99.9 144, 112C144, 124.1 150.8, 135.2 161.7, 140.6L174.1, 146.8L60.5, 271.7C47.7, 285.8 44.4, 306 52.1, 323.4C57, 334.5 65.8, 343 76.4, 347.8L9.9, 434.8C-1.2, 449.3 -3.1, 468.9 5, 485.2C13.1, 501.6 29.8, 511.9 48, 511.9L464, 511.9C482.3, 511.9 498.9, 501.5 507, 485.2C515.1, 468.9 513.2, 449.3 502.1, 434.8zM236.5, 99.6C239.6, 98.1 242.1, 95.5 243.7, 92.4L256, 67.8L268.4, 92.5C269.9, 95.6 272.5, 98.1 275.6, 99.7L300.3, 112.1L275.6, 124.5C272.5, 126 270, 128.6 268.4, 131.7L256, 156.2L243.6, 131.5C242.1, 128.4 239.5, 125.9 236.4, 124.3L211.8, 112L236.5, 99.6zM48, 464L170.4, 304L96, 304L212.3, 176.1L227.4, 206.3C232.8, 217.1 243.9, 224 256, 224C268.1, 224 279.2, 217.2 284.6, 206.3L299.7, 176.1L416, 304L341.6, 304L464, 464L48, 464z" fill="#727272" fill-opacity="1" class="Black" />
  </g>
</svg>