<?xml version='1.0' encoding='UTF-8'?>
<svg viewBox="-2 -4.8005 32 32" xmlns="http://www.w3.org/2000/svg">
  <g transform="matrix(1.0011, 0, 0, 1.0011, 0, 0)">
    <g transform="matrix(0.0437, 0, 0, 0.0437, 0, 0)">
      <path d="M634.19, 376.23L578.72, 311.86L584, 311.86C593.34, 311.86 601.84, 306.43 605.78, 297.94C609.72, 289.47 608.34, 279.46 602.31, 272.33L547.75, 207.78L560, 207.78C569.47, 207.78 578.06, 202.2 581.94, 193.54A24.088 24.088 0 0 0 577.85, 167.69L433.85, 7.58C424.72, -2.52 407.29, -2.52 398.16, 7.58L320, 94.48L241.84, 7.58C232.71, -2.52 215.28, -2.52 206.15, 7.58L62.15, 167.69A24.063 24.063 0 0 0 58.06, 193.54C61.94, 202.2 70.53, 207.78 80, 207.78L92.25, 207.78L37.69, 272.33C31.66, 279.46 30.28, 289.47 34.22, 297.94A24.021 24.021 0 0 0 56, 311.86L61.28, 311.86L5.81, 376.23C-0.32, 383.34 -1.72, 393.38 2.18, 401.92A23.998 23.998 0 0 0 23.99, 415.93L191.99, 415.93L191.99, 440.39L161.7, 488.82C156.38, 499.47 164.12, 511.99 176.01, 511.99L271.97, 511.99C283.86, 511.99 291.6, 499.46 286.28, 488.82L256, 440.39L256, 415.93L384, 415.93L384, 440.39L353.71, 488.82C348.39, 499.47 356.13, 511.99 368.02, 511.99L463.98, 511.99C475.87, 511.99 483.61, 499.46 478.29, 488.82L448, 440.39L448, 415.93L616, 415.93C625.38, 415.93 633.91, 410.46 637.81, 401.92C641.72, 393.38 640.32, 383.35 634.19, 376.23zM304, 367.9L76.37, 367.9L166.03, 263.83L107.75, 263.83L195.75, 159.76L133.87, 159.76L224, 59.55L314.13, 159.75L252.25, 159.75L340.25, 263.82L281.97, 263.82L371.63, 367.89L304, 367.89zM435, 367.9L386.71, 311.86L392, 311.86C401.34, 311.86 409.84, 306.43 413.78, 297.94C417.72, 289.47 416.34, 279.46 410.31, 272.33L355.75, 207.78L368, 207.78C377.47, 207.78 386.06, 202.2 389.94, 193.54A24.088 24.088 0 0 0 385.85, 167.69L352.3, 130.38L416, 59.55L506.13, 159.75L444.25, 159.75L532.25, 263.82L473.97, 263.82L563.63, 367.89L435, 367.89z" fill="#727272" fill-opacity="1" class="Black" />
    </g>
  </g>
</svg>