<?xml version='1.0' encoding='UTF-8'?>
<svg viewBox="-3.7484 -1.9975 32 32" xmlns="http://www.w3.org/2000/svg">
  <g transform="matrix(0.0547, 0, 0, 0.0547, 0, 0)">
    <path d="M442.2, 376.2L386.7, 311.8L392, 311.8C401.3, 311.8 409.8, 306.4 413.8, 297.9C417.7, 289.4 416.4, 279.4 410.3, 272.3L355.7, 207.8L368, 207.8C377.5, 207.8 386.1, 202.2 389.9, 193.6C393.7, 184.9 392.1, 174.8 385.8, 167.8L241.9, 7.6C232.8, -2.5 215.3, -2.5 206.2, 7.6L62.2, 167.7C55.9, 174.8 54.3, 184.9 58.1, 193.5C62, 202.2 70.6, 207.7 80, 207.7L92.2, 207.7L37.6, 272.2C31.6, 279.3 30.2, 289.3 34.1, 297.8C38, 306.3 46.5, 311.7 55.9, 311.7L61.2, 311.7L5.8, 376.2C-0.3, 383.3 -1.7, 393.4 2.2, 401.9C6.1, 410.4 14.6, 415.9 24, 415.9L192, 415.9L192, 440.4L161.7, 488.8C156.4, 499.4 164.1, 512 176, 512L272, 512C283.9, 512 291.6, 499.5 286.3, 488.8L256, 440.4L256, 415.9L424, 415.9C433.4, 415.9 441.9, 410.4 445.8, 401.9C449.7, 393.4 448.3, 383.3 442.2, 376.2zM76.4, 367.9L166, 263.8L107.7, 263.8L195.7, 159.7L133.8, 159.7L224, 59.5L314.1, 159.7L252.2, 159.7L340.2, 263.8L282, 263.8L371.7, 367.9z" fill="#727272" fill-opacity="1" class="Black" />
  </g>
</svg>