<?xml version='1.0' encoding='UTF-8'?>
<svg viewBox="-1.9998 -1.9998 32 31.9975" xmlns="http://www.w3.org/2000/svg">
  <g transform="matrix(0.0547, 0, 0, 0.0547, 0, 0)">
    <path d="M500.3, 432.6L453.7, 378.9C462.9, 374.2 470.5, 366.7 475.2, 357.1C483.2, 340.6 481.1, 320.9 469.8, 306.5L413.6, 235C423.5, 230 431.5, 221.7 436.1, 211.1C443.7, 193.5 440.1, 173.1 426.9, 159.1L290.9, 15.1C281.8, 5.4 269.2, 0 256, 0C242.8, 0 230.2, 5.4 221.1, 15L85.1, 159C71.9, 172.9 68.3, 193.4 75.9, 211C80.5, 221.6 88.5, 229.9 98.4, 234.9L42.2, 306.4C30.8, 320.8 28.7, 340.5 36.8, 357C41.5, 366.6 49.1, 374.2 58.3, 378.8L11.7, 432.5C-0.6, 446.7 -3.5, 466.8 4.3, 483.9C12.1, 501 29.2, 512 48, 512L464, 512C482.8, 512 499.9, 501 507.7, 483.9C515.5, 466.8 512.6, 446.8 500.3, 432.6zM48, 464L158.9, 336L80, 336L193.1, 192L120, 192L256, 48L392, 192L318.9, 192L432, 336L353.1, 336L464, 464L48, 464zM304, 376C290.7, 376 280, 386.7 280, 400C280, 413.3 290.7, 424 304, 424C317.3, 424 328, 413.3 328, 400C328, 386.7 317.3, 376 304, 376zM192, 264C178.7, 264 168, 274.7 168, 288C168, 301.3 178.7, 312 192, 312C205.3, 312 216, 301.3 216, 288C216, 274.7 205.3, 264 192, 264zM296, 176C296, 162.7 285.3, 152 272, 152C258.7, 152 248, 162.7 248, 176C248, 189.3 258.7, 200 272, 200C285.3, 200 296, 189.3 296, 176z" fill="#727272" fill-opacity="1" class="Black" />
  </g>
</svg>