<?xml version='1.0' encoding='UTF-8'?>
<svg viewBox="-1.9975 -4.7995 32 32" xmlns="http://www.w3.org/2000/svg">
  <g transform="matrix(1.0012, 0, 0, 1.0012, 0, 0)">
    <g transform="matrix(0.0437, 0, 0, 0.0437, 0, 0)">
      <path d="M640, 48L640, 0L384, 0C366.3, 0 352, 14.3 352, 32L352, 372.6L5.9, 465.4C1.6, 466.5 -0.9, 470.9 0.2, 475.2L8.5, 506.1C9.6, 510.4 14, 512.9 18.3, 511.8L416.5, 405C419.2, 464.5 467.9, 512 528, 512C589.9, 512 640, 461.9 640, 400C640, 338.1 589.9, 288 528, 288C483.4, 288 445.2, 314.3 427.2, 352L400, 352L400, 48L640, 48zM528, 336C563.3, 336 592, 364.7 592, 400C592, 435.3 563.3, 464 528, 464C492.7, 464 464, 435.3 464, 400C464, 364.7 492.7, 336 528, 336zM50.2, 375.6C52.5, 384.1 61.3, 389.2 69.8, 386.9L286.2, 328.9C294.7, 326.6 299.8, 317.8 297.5, 309.3L247.8, 123.8C245.5, 115.3 236.7, 110.2 228.2, 112.5L151, 133.3L175.8, 226L114, 242.5L89.2, 149.8L11.9, 170.5C3.4, 172.8 -1.7, 181.6 0.6, 190.1L50.2, 375.6z" fill="#727272" fill-opacity="1" class="Black" />
    </g>
  </g>
</svg>