<?xml version='1.0' encoding='UTF-8'?>
<svg viewBox="-2 -4.7992 32 32" xmlns="http://www.w3.org/2000/svg">
  <g transform="matrix(0.9988, 0, 0, 0.9988, 0, 0)">
    <g transform="matrix(0.0438, 0, 0, 0.0438, 0, 0)">
      <path d="M624, 336L608, 336L608, 208C608, 190.33 593.67, 176 576, 176L515.2, 176L419.21, 56.02A63.99 63.99 0 0 0 369.24, 32L256, 32C238.33, 32 224, 46.33 224, 64L224, 176L64, 176C46.33, 176 32, 190.33 32, 208L32, 336L16, 336C7.16, 336 0, 343.16 0, 352L0, 368C0, 376.84 7.16, 384 16, 384L65.61, 384C73.43, 438.21 119.62, 480 176, 480C232.38, 480 278.56, 438.21 286.39, 384L353.62, 384C361.44, 438.21 407.63, 480 464.01, 480C520.39, 480 566.57, 438.21 574.4, 384L624, 384C632.84, 384 640, 376.84 640, 368L640, 352C640, 343.16 632.84, 336 624, 336zM272, 80L369.24, 80C374.13, 80 378.68, 82.19 381.73, 86L453.73, 176L272, 176L272, 80zM176, 432C140.65, 432 112, 403.35 112, 368C112, 332.65 140.65, 304 176, 304C211.35, 304 240, 332.65 240, 368C240, 403.35 211.35, 432 176, 432zM464, 432C428.71, 432 400, 403.29 400, 368C400, 332.71 428.71, 304 464, 304C499.29, 304 528, 332.71 528, 368C528, 403.29 499.29, 432 464, 432zM560, 311.14C540.48, 278.27 505, 256 464, 256C413.34, 256 371.04, 289.85 357.2, 336L282.8, 336C268.96, 289.85 226.66, 256 176, 256C135, 256 99.52, 278.27 80, 311.14L80, 224L560, 224L560, 311.14z" fill="#727272" fill-opacity="1" class="Black" />
    </g>
  </g>
</svg>