<?xml version='1.0' encoding='UTF-8'?>
<svg viewBox="-2 -4.8005 32 32" xmlns="http://www.w3.org/2000/svg">
  <g transform="matrix(1.0011, 0, 0, 1.0011, 0, 0)">
    <g transform="matrix(0.0437, 0, 0, 0.0437, 0, 0)">
      <path d="M13.8, 237.9C16.3, 236.9 18.7, 235.8 21.3, 235.1C27.4, 233.5 33.7, 232.6 40, 232.6C69.8, 232.6 96.1, 251.1 106.8, 278.4L231.8, 244.9C229.3, 228.8 232.1, 212.5 240.3, 198.2C249.9, 181.5 265.4, 169.6 284, 164.7C286.6, 164 289.3, 164 292, 163.6L291.7, 162.6C282.6, 128.5 247.5, 108.2 213.3, 117.3L58.9, 158.8C24.8, 167.9 4.5, 203 13.6, 237.2L13.8, 237.9zM7.6, 338.2L24.1, 400L101.4, 379.3L286.9, 329.6L301.7, 325.6L320, 320.7L320, 198.7C311.7, 194.7 302, 193.1 292.4, 195.6C271.1, 201.3 258.4, 223.3 264.1, 244.6L270.3, 267.8L127.1, 306.2L115.7, 309.2L84.8, 317.5L78.6, 294.3C72.9, 273 50.9, 260.3 29.6, 266C8.3, 271.7 -4.4, 293.7 1.3, 315L7.6, 338.2zM640, 48L640, 0L384, 0C366.3, 0 352, 14.3 352, 32L352, 372.6L5.9, 465.4C1.6, 466.5 -0.9, 470.9 0.2, 475.2L8.5, 506.1C9.6, 510.4 14, 512.9 18.3, 511.8L416.5, 405C419.2, 464.5 467.9, 512 528, 512C589.9, 512 640, 461.9 640, 400C640, 338.1 589.9, 288 528, 288C483.4, 288 445.2, 314.3 427.2, 352L400, 352L400, 48L640, 48zM528, 336C563.3, 336 592, 364.7 592, 400C592, 435.3 563.3, 464 528, 464C492.7, 464 464, 435.3 464, 400C464, 364.7 492.7, 336 528, 336z" fill="#727272" fill-opacity="1" class="Black" />
    </g>
  </g>
</svg>