<?xml version='1.0' encoding='UTF-8'?>
<svg viewBox="-1.9998 -4.7979 32 31.9975" xmlns="http://www.w3.org/2000/svg">
  <g transform="matrix(0.9989, 0, 0, 0.9989, 0, 0)">
    <g transform="matrix(0.0438, 0, 0, 0.0438, 0, 0)">
      <path d="M579.7, 385.8C572.2, 378.3 568, 368.1 568, 357.5L568, 218.5C568, 207.9 572.2, 197.7 579.7, 190.2L635.3, 134.6C641.5, 128.4 641.5, 118.2 635.3, 112L624, 100.7C617.8, 94.5 607.6, 94.5 601.4, 100.7L545.8, 156.3C529.3, 172.8 520, 195.2 520, 218.5L520, 264L480, 264L480, 224C480, 206.3 465.7, 192 448, 192L405.6, 192L321.2, 51.5C314, 39.5 300.9, 32 286.9, 32L160, 32C142.3, 32 128, 46.4 128, 64L128, 192L32, 192C14.3, 192 0, 206.3 0, 224L0, 352C0, 369.7 14.3, 384 32, 384C32, 437 75, 480 128, 480C181, 480 224, 437 224, 384L288, 384C288, 437 331, 480 384, 480C437, 480 480, 437 480, 384L480, 312L520, 312L520, 357.5C520, 380.8 529.3, 403.2 545.8, 419.7L601.4, 475.3C607.6, 481.5 617.8, 481.5 624, 475.3L635.3, 464C641.5, 457.8 641.5, 447.6 635.3, 441.4L579.7, 385.8zM176, 80L282.4, 80L349.6, 192L176, 192L176, 80zM128, 432C101.5, 432 80, 410.5 80, 384C80, 357.5 101.5, 336 128, 336C154.5, 336 176, 357.5 176, 384C176, 410.5 154.5, 432 128, 432zM210.7, 336C194.1, 307.4 163.5, 288 128, 288C94.6, 288 65.2, 305.1 48, 331.1L48, 240L432, 240L432, 301.3C417.8, 293.1 401.6, 288 384, 288C348.6, 288 317.9, 307.4 301.3, 336L210.7, 336zM384, 432C357.5, 432 336, 410.5 336, 384C336, 357.5 357.5, 336 384, 336C410.5, 336 432, 357.5 432, 384C432, 410.5 410.5, 432 384, 432z" fill="#727272" fill-opacity="1" class="Black" />
    </g>
  </g>
</svg>