<?xml version='1.0' encoding='UTF-8'?>
<svg viewBox="-1.9998 -4.8002 31.9975 32" xmlns="http://www.w3.org/2000/svg">
  <g transform="matrix(0.9988, 0, 0, 0.9988, 0, 0)">
    <g transform="matrix(0.0438, 0, 0, 0.0438, 0, 0)">
      <path d="M534, 207.93A72.05 72.05 0 0 0 560.69, 215.66C588.47, 218.15 635.12, 201.2 639.69, 149.71A72.9 72.9 0 0 0 580.87, 71.82C580.55, 44 558.34, 0 508, 0A72.34 72.34 0 0 0 435.55, 66.25A71.24 71.24 0 0 0 438, 92.4C441.77, 105.51 435.11, 108.49 425.84, 116.23A165.52 165.52 0 0 1 407.44, 129.23C371, 108.72 330.67, 96 288, 96C128.94, 96 0, 269.13 0, 384C0, 498.87 128.94, 512 288, 512C447.06, 512 576, 498.88 576, 384C576, 332.6 550.06, 269.62 507.29, 215.63C509.06, 214.04 510.52, 212.19 512.36, 210.63C515.18, 208.3 521, 201.2 534, 207.93zM528, 384C528, 434.67 488.73, 464 288, 464C87.27, 464 48, 434.67 48, 384C48, 291.42 157.84, 144 288, 144A182.57 182.57 0 0 1 342.21, 152.72C337.26, 153.43 332.35, 154.44 327.34, 154.72C309.23, 155.63 219.67, 163.04 196.42, 251.61C185.96, 291.45 194.24, 332.8 219.14, 365.08C266.28, 426.19 334.07, 416.42 349.29, 413.53C398.82, 404.13 438.65, 364.19 450.78, 311.78A187.94 187.94 0 0 1 475.72, 252.56C508.22, 296 528, 344.86 528, 384zM481.61, 173.79C443.12, 205.9 415.61, 251.05 404.03, 300.93C396.19, 334.81 371.19, 360.49 340.35, 366.34C291.45, 375.61 264.53, 345.28 257.16, 335.73A82.57 82.57 0 0 1 242.86, 263.73C246.4, 250.24 263.13, 205.94 329.75, 202.59C403.09, 198.91 448.56, 160.07 463.51, 147.3C486.61, 127.68 489.65, 108.96 484.46, 79.23C479.27, 49.5 504.35, 48.03 507.66, 48.03C518.01, 48.03 534.61, 54.63 532.81, 74.9C532.67, 76.5 530.81, 81.65 528.34, 88.15C521.67, 105.45 536.34, 123.4 554.69, 120.46C572.34, 117.62 578.03, 118.46 585.35, 126.46A24.93 24.93 0 0 1 591.9, 145.46C591.43, 150.79 584.17, 176.25 553.9, 164.29C545.67, 161.04 535.43, 156.99 523.15, 156.99C508.77, 157 495.19, 162.49 481.61, 173.79z" fill="#727272" fill-opacity="1" class="Black" />
    </g>
  </g>
</svg>