<?xml version='1.0' encoding='UTF-8'?>
<svg viewBox="-2 -3.554 32 32" xmlns="http://www.w3.org/2000/svg">
  <g transform="matrix(0.0486, 0, 0, 0.0486, 0, 0)">
    <path d="M224, 112A144 144 0 1 0 368, 256A144 144 0 0 0 224, 112zM224, 280A24 24 0 1 1 248, 256A24 24 0 0 1 224, 280zM472, 128L456, 128A16 16 0 0 0 440, 144L440, 243.71A31.88 31.88 0 0 1 437.05, 257.12L416, 302.8A15.69 15.69 0 0 0 404.25, 311.15L378.56, 362.53A16 16 0 0 0 385.69, 384L414.31, 398.32A16 16 0 0 0 435.78, 391.16L461.47, 339.78A15.89 15.89 0 0 0 459.62, 322.78L485.05, 267.68A32 32 0 0 0 488, 254.24L488, 144A16 16 0 0 0 472, 128zM512, 32L64, 32A64 64 0 0 0 0, 96L0, 416A64 64 0 0 0 64, 480L512, 480A64 64 0 0 0 576, 416L576, 96A64 64 0 0 0 512, 32zM528, 416A16 16 0 0 1 512, 432L64, 432A16 16 0 0 1 48, 416L48, 96A16 16 0 0 1 64, 80L512, 80A16 16 0 0 1 528, 96z" fill="#727272" fill-opacity="1" class="Black" />
  </g>
</svg>