<?xml version='1.0' encoding='UTF-8'?>
<svg viewBox="-1.9998 -4.7979 32 31.9975" xmlns="http://www.w3.org/2000/svg">
  <g transform="matrix(0.9989, 0, 0, 0.9989, 0, 0)">
    <g transform="matrix(0.0438, 0, 0, 0.0438, 0, 0)">
      <path d="M637.12, 160.46C631.92, 139.81 618.26, 122.19 600.94, 109.82C556.31, 77.94 545.09, 64 507.68, 64C468.05, 64 434.09, 87.57 421.42, 121.9C380.78, 71.45 317.81, 32 248.39, 32C232.27, 32 84.6, 43.86 35.54, 191.49C30.17, 207.63 30.97, 224.63 37.45, 240L32, 240C14.33, 240 0, 254.33 0, 272L0, 288C0, 299.89 6.59, 310.8 17.11, 316.33L98.64, 359.18L70.46, 408C61.91, 422.8 61.91, 441.2 70.46, 456C79.01, 470.8 94.93, 480 112.03, 480L148.98, 480C166.13, 480 181.98, 470.85 190.55, 456L218.19, 408.12C258.53, 418.54 315.73, 419 357.82, 408.12L385.46, 456C394.03, 470.85 409.88, 480 427.03, 480L463.98, 480C481.07, 480 497, 470.8 505.55, 456C514.1, 441.2 514.1, 422.8 505.55, 408L474.87, 354.87C505.52, 334.09 526.07, 304.84 536.37, 272L551.35, 272C607.69, 272 651.91, 219.18 637.12, 160.46zM81.1, 206.63C100.2, 149.14 167.51, 80 247.61, 80L248.4, 80C328.5, 80 395.81, 149.14 414.91, 206.63C418.18, 216.46 408.22, 238.95 384.17, 239.75C383.23, 239.81 114.6, 240 114.6, 240C92.13, 240 75.49, 223.5 81.1, 206.63zM551.34, 224L504, 224C492.71, 314.33 429.12, 325.62 407.5, 334.19L463.97, 432L427, 432L380.25, 350.95C313.35, 372.88 271.48, 375.78 195.75, 350.95L148.97, 432L112, 432L165.19, 339.92L66.38, 288L383.06, 288C415.09, 288 463.86, 266.2 464, 208.22L464, 153C464, 133.16 475.64, 122.44 485.78, 117.25C517.24, 101.12 532.89, 120.22 574.97, 150.27C585.63, 157.89 592, 170.27 592, 183.35C592, 205.77 573.75, 224 551.34, 224zM512, 144C503.16, 144 496, 151.16 496, 160C496, 168.84 503.16, 176 512, 176C520.84, 176 528, 168.84 528, 160C528, 151.16 520.84, 144 512, 144z" fill="#727272" fill-opacity="1" class="Black" />
    </g>
  </g>
</svg>