<?xml version='1.0' encoding='UTF-8'?>
<svg viewBox="-1.9999 -1.9999 32 32" xmlns="http://www.w3.org/2000/svg">
  <g transform="matrix(0.0547, 0, 0, 0.0547, 0, 0)">
    <path d="M480, 192L448, 192L448, 77.25A32 32 0 0 0 438.62, 54.62L393.38, 9.38A32 32 0 0 0 370.75, 0L96, 0A32 32 0 0 0 64, 32L64, 192L32, 192A32 32 0 0 0 0, 224L0, 256A32 32 0 0 0 32, 288L32, 448A64 64 0 0 0 96, 512L416, 512A64 64 0 0 0 480, 448L480, 288A32 32 0 0 0 512, 256L512, 224A32 32 0 0 0 480, 192zM112, 48L352, 48L352, 80A16 16 0 0 0 368, 96L400, 96L400, 192L365.25, 192A32 32 0 0 0 342.63, 201.37L329.37, 214.63A32 32 0 0 1 306.75, 224L205.25, 224A32 32 0 0 1 182.63, 214.63L169.37, 201.37A32 32 0 0 0 146.75, 192L112, 192zM432, 448A16 16 0 0 1 416, 464L96, 464A16 16 0 0 1 80, 448L80, 288L432, 288zM144, 432L368, 432A16 16 0 0 0 384, 416L384, 400A16 16 0 0 0 368, 384L144, 384A16 16 0 0 0 128, 400L128, 416A16 16 0 0 0 144, 432zM136, 356L160, 356A8 8 0 0 0 168, 348L168, 324A8 8 0 0 0 160, 316L136, 316A8 8 0 0 0 128, 324L128, 348A8 8 0 0 0 136, 356zM352, 356L376, 356A8 8 0 0 0 384, 348L384, 324A8 8 0 0 0 376, 316L352, 316A8 8 0 0 0 344, 324L344, 348A8 8 0 0 0 352, 356zM208, 356L232, 356A8 8 0 0 0 240, 348L240, 324A8 8 0 0 0 232, 316L208, 316A8 8 0 0 0 200, 324L200, 348A8 8 0 0 0 208, 356zM280, 356L304, 356A8 8 0 0 0 312, 348L312, 324A8 8 0 0 0 304, 316L280, 316A8 8 0 0 0 272, 324L272, 348A8 8 0 0 0 280, 356z" fill="#727272" fill-opacity="1" class="Black" />
  </g>
</svg>