<?xml version='1.0' encoding='UTF-8'?>
<svg viewBox="-2 -4.7992 32 32" xmlns="http://www.w3.org/2000/svg">
  <g transform="matrix(0.9988, 0, 0, 0.9988, 0, 0)">
    <g transform="matrix(0.0438, 0, 0, 0.0438, 0, 0)">
      <path d="M443.48, 18.08C409.77, 5.81 375.31, 0 341.41, 0C250.94, 0 164.57, 41.45 107.97, 112.33C101.27, 120.72 105.3, 133.37 115.39, 137.04L344.57, 220.45L254.84, 464L16, 464C7.16, 464 0, 471.16 0, 480L0, 496C0, 504.84 7.16, 512 16, 512L560, 512C568.84, 512 576, 504.84 576, 496L576, 480C576, 471.16 568.84, 464 560, 464L306.01, 464L389.68, 236.88L618.34, 320.1C620.17, 320.77 622.04, 321.08 623.87, 321.08C632.14, 321.08 639.7, 314.73 639.91, 305.94C642.94, 181.28 567.14, 63.09 443.48, 18.08zM452.58, 208.69L307.4, 155.85C321.65, 130.59 337.94, 108.56 355.56, 91.88C380.9, 67.85 405.59, 57.72 422.97, 64.11C440.5, 70.49 452.81, 94.03 456.81, 128.73C459.58, 152.84 457.9, 180.18 452.58, 208.69zM177.95, 108.74C220.84, 72.08 275.76, 50.5 332.5, 48.41C328.03, 52.17 295.64, 76.86 262.21, 139.41L177.95, 108.74zM497.77, 225.14C505.15, 190.07 509.83, 148.07 501.88, 106.86C547.65, 145.14 579.02, 198.53 588.75, 258.25L497.77, 225.14z" fill="#727272" fill-opacity="1" class="Black" />
    </g>
  </g>
</svg>