<?xml version='1.0' encoding='UTF-8'?>
<svg viewBox="-2 -1.7777 32 32" xmlns="http://www.w3.org/2000/svg">
  <g transform="matrix(0.9992, 0, 0, 0.9992, 0, 0)">
    <g transform="matrix(0.0556, 0, 0, 0.0556, 0, 0)">
      <path d="M12, 8L39.711, 8C46.45, 8 51.868, 13.548 51.708, 20.286L49.361, 118.854C93.925, 51.834 170.212, 7.73 256.793, 8.001C393.18, 8.428 504.213, 120.009 504, 256.396C503.786, 393.181 392.835, 504 256, 504C192.074, 504 133.798, 479.813 89.822, 440.092C84.709, 435.474 84.468, 427.531 89.34, 422.659L109.078, 402.921C113.576, 398.423 120.831, 398.136 125.579, 402.369C160.213, 433.246 205.895, 452 256, 452C364.322, 452 452, 364.338 452, 256C452, 147.678 364.338, 60 256, 60C176.455, 60 108.059, 107.282 77.325, 175.302L203.714, 172.293C210.451, 172.133 216, 177.55 216, 184.29L216, 212C216, 218.627 210.627, 224 204, 224L12, 224C5.373, 224 0, 218.627 0, 212L0, 20C0, 13.373 5.373, 8 12, 8z" fill="#727272" fill-opacity="1" class="Black" />
    </g>
  </g>
</svg>