<?xml version='1.0' encoding='UTF-8'?>
<svg viewBox="-1.5477 -1.5477 32 32" xmlns="http://www.w3.org/2000/svg">
  <g transform="matrix(0.9991, 0, 0, 0.9991, 0, 0)">
    <g transform="matrix(0.0565, 0, 0, 0.0565, 0, 0)">
      <path d="M28.485, 28.485L80.65, 80.65C125.525, 35.767 187.515, 8 255.999, 8C392.66, 8 504.1, 119.525 504, 256.185C503.9, 393.067 392.905, 504 256, 504C192.074, 504 133.798, 479.813 89.822, 440.092C84.709, 435.474 84.469, 427.531 89.34, 422.659L109.078, 402.921C113.576, 398.423 120.831, 398.136 125.579, 402.369C160.213, 433.246 205.895, 452 256, 452C364.321, 452 452, 364.338 452, 256C452, 147.679 364.338, 60 256, 60C201.837, 60 152.843, 81.923 117.386, 117.386L171.514, 171.515C179.074, 179.075 173.72, 192 163.029, 192L20, 192C13.373, 192 8, 186.627 8, 180L8, 36.971C8, 26.28 20.926, 20.926 28.485, 28.485z" fill="#727272" fill-opacity="1" class="Black" />
    </g>
  </g>
</svg>