<?xml version='1.0' encoding='UTF-8'?>
<svg viewBox="-2 -4.8003 32 32" xmlns="http://www.w3.org/2000/svg">
  <g transform="matrix(0.9988, 0, 0, 0.9988, 0, 0)">
    <g transform="matrix(0.0438, 0, 0, 0.0438, 0, 0)">
      <path d="M631.98, 64L526.61, 64L511.33, 45.43C527.7, 40.2 540.36, 26.71 543.84, 9.64C544.85, 4.68 540.96, 0 535.9, 0L399.95, 0C331.54, 0 274.12, 47.95 259.53, 112L176, 112C137.87, 112 104.23, 131.22 83.99, 160.4C37.36, 162.55 0, 200.84 0, 248L0, 304C0, 312.84 7.16, 320 16, 320L32, 320C40.84, 320 48, 312.84 48, 304L48, 248C48, 234.78 54.87, 223.61 64.78, 216.32C64.6, 218.91 64, 221.37 64, 224C64, 254.13 75.9, 282.09 96.16, 302.58L83.21, 346.34A78.913 78.913 0 0 0 82.16, 387.18L106.28, 487.47C109.74, 501.85 122.6, 511.99 137.39, 511.99L212.09, 511.99C232.95, 511.99 248.23, 492.35 243.11, 472.13L217.58, 371.37L226.09, 347.66L256, 356.2L256, 480C256, 497.67 270.33, 512 288, 512L368, 512C385.67, 512 400, 497.67 400, 480L400, 324.35C420.57, 301.2 432, 271.55 432, 240L432, 234.38C452.95, 241.35 470.32, 235.1 472.93, 234.21L503.96, 223.62C527.92, 215.44 544.02, 192.92 544, 167.61L543.96, 115.34L636.42, 78.67C643.01, 74.27 639.9, 64 631.98, 64zM488.46, 178.19L457.44, 188.78C455.93, 189.3 447.73, 191.73 440.96, 184.95L416, 160L384, 160L384, 240C384, 266.09 371.32, 289.03 352, 303.64L352, 464L304, 464L304, 320L196.09, 289.17L167.44, 368.95L191.53, 464L150, 464L128.87, 376.14A31.698 31.698 0 0 1 129.24, 359.96L151.94, 283.24C128.54, 273.72 112, 250.83 112, 224C112, 188.65 140.65, 160 176, 160L303.95, 160L303.95, 144C303.95, 90.98 346.93, 48 399.95, 48L451.28, 48L495.95, 102.28L496, 167.63C496, 172.4 492.97, 176.65 488.46, 178.19zM432, 80C423.16, 80 416, 87.16 416, 96C416, 104.84 423.16, 112 432, 112C440.84, 112 448, 104.84 448, 96C448, 87.16 440.84, 80 432, 80z" fill="#727272" fill-opacity="1" class="Black" />
    </g>
  </g>
</svg>