<?xml version='1.0' encoding='UTF-8'?>
<svg viewBox="-4.3328 2.6685 32 31.9975" xmlns="http://www.w3.org/2000/svg">
  <g transform="matrix(0.0729, 0, 0, 0.0729, 0, 0)">
    <path d="M272, 80L272, 284.78C272, 338.23 235.88, 386.86 183.52, 397.59C111.54, 412.33 48, 357.44 48, 288L48, 80C48, 71.16 40.84, 64 32, 64L16, 64C7.16, 64 0, 71.16 0, 80L0, 280.86C0, 364.37 60.89, 439.1 144.01, 447.21C239.38, 456.53 320, 381.5 320, 288L320, 80C320, 71.16 312.84, 64 304, 64L288, 64C279.16, 64 272, 71.16 272, 80z" fill="#727272" fill-opacity="1" class="Black" />
  </g>
</svg>