<?xml version='1.0' encoding='UTF-8'?>
<svg viewBox="-1.0644 -1.0669 31.995 32" xmlns="http://www.w3.org/2000/svg">
  <g transform="matrix(0.0583, 0, 0, 0.0583, 0, 0)">
    <path d="M472, 440L464, 440L464, 384C464, 370.745 453.255, 360 440, 360L424, 360L424, 208L376, 208L376, 360L328, 360L328, 208L280, 208L280, 360L232, 360L232, 208L184, 208L184, 360L136, 360L136, 208L88, 208L88, 360L72, 360C58.745, 360 48, 370.745 48, 384L48, 440L40, 440C26.745, 440 16, 450.745 16, 464L16, 480A8 8 0 0 0 24, 488L488, 488A8 8 0 0 0 496, 480L496, 464C496, 450.745 485.255, 440 472, 440zM416, 440L96, 440L96, 408L416, 408L416, 440zM488.267, 117.058L271.179, 26.463A48.004 48.004 0 0 0 240.821, 26.463L23.733, 117.058A11.999 11.999 0 0 0 16, 128.274L16, 156C16, 162.627 21.373, 168 28, 168L48, 168L48, 180C48, 186.627 53.373, 192 60, 192L452, 192C458.627, 192 464, 186.627 464, 180L464, 168L484, 168C490.627, 168 496, 162.627 496, 156L496, 128.274C496, 123.292 492.923, 118.829 488.267, 117.058zM64, 144L256, 72L448, 144L64, 144z" fill="#727272" fill-opacity="1" class="Black" />
  </g>
</svg>