<?xml version='1.0' encoding='UTF-8'?>
<svg viewBox="-2 -2 32 32" xmlns="http://www.w3.org/2000/svg">
  <g transform="matrix(0.0547, 0, 0, 0.0547, 0, 0)">
    <path d="M304.083, 388.936C308.769, 393.622 308.769, 401.22 304.083, 405.907L239.026, 470.963C184.317, 525.674 95.756, 525.684 41.037, 470.963C-13.676, 416.25 -13.682, 327.693 41.037, 272.974L106.093, 207.917C110.779, 203.231 118.377, 203.231 123.064, 207.917L145.691, 230.544C150.377, 235.23 150.377, 242.828 145.691, 247.515L81.386, 311.82C47.045, 346.161 47.935, 400.089 81.983, 432.686C114.56, 463.873 166.771, 464.023 199.428, 431.366L264.485, 366.31C269.171, 361.624 276.769, 361.624 281.456, 366.31L304.083, 388.936zM247.515, 145.691L311.819, 81.387C346.165, 47.041 400.105, 47.934 432.701, 81.999C463.881, 114.585 464.01, 166.784 431.366, 199.429L366.31, 264.486C361.624, 269.172 361.624, 276.77 366.31, 281.457L388.937, 304.084C393.623, 308.77 401.221, 308.77 405.908, 304.084L470.964, 239.027C525.675, 184.318 525.685, 95.756 470.964, 41.037C416.254, -13.674 327.694, -13.683 272.975, 41.037L207.918, 106.094C203.232, 110.78 203.232, 118.378 207.918, 123.065L230.545, 145.692C235.23, 150.377 242.828, 150.377 247.515, 145.691zM485.858, 508.485L508.485, 485.858C513.171, 481.172 513.171, 473.574 508.485, 468.887L43.112, 3.515C38.426, -1.171 30.828, -1.171 26.141, 3.515L3.515, 26.142C-1.171, 30.828 -1.171, 38.426 3.515, 43.113L468.888, 508.486C473.574, 513.172 481.172, 513.172 485.858, 508.485z" fill="#727272" fill-opacity="1" class="Black" />
  </g>
</svg>