<?xml version='1.0' encoding='UTF-8'?>
<svg viewBox="-3.7495 -2 32 32" xmlns="http://www.w3.org/2000/svg">
  <g transform="matrix(0.0547, 0, 0, 0.0547, 0, 0)">
    <path d="M400, 240L128, 240L128, 145.2C128, 92.4 170.1, 48.5 223, 48C276.4, 47.4 320, 90.7 320, 144L320, 168C320, 181.3 330.7, 192 344, 192C357.3, 192 368, 181.3 368, 168L368, 145.4C368, 65.8 304, 0.2 224.3, 0C144.8, -0.2 80, 64.5 80, 144L80, 240L48, 240C21.5, 240 0, 261.5 0, 288L0, 464C0, 490.5 21.5, 512 48, 512L400, 512C426.5, 512 448, 490.5 448, 464L448, 288C448, 261.5 426.5, 240 400, 240zM400, 464L48, 464L48, 288L400, 288L400, 464zM224, 432C208.5, 432 196, 419.5 196, 404L196, 348C196, 332.5 208.5, 320 224, 320C239.5, 320 252, 332.5 252, 348L252, 404C252, 419.5 239.5, 432 224, 432z" fill="#727272" fill-opacity="1" class="Black" />
  </g>
</svg>