<?xml version='1.0' encoding='UTF-8'?>
<svg viewBox="-2 -4.7992 32 32" xmlns="http://www.w3.org/2000/svg">
  <g transform="matrix(0.9988, 0, 0, 0.9988, 0, 0)">
    <g transform="matrix(0.0438, 0, 0, 0.0438, 0, 0)">
      <path d="M622.3, 271.1L507.1, 226.1C503, 224.5 494.5, 222.4 484.9, 226.1L369.7, 271.1C359, 275.3 352, 285.1 352, 296C352, 407.6 420.7, 484.8 484.9, 509.9C494.5, 513.6 502.9, 511.5 507.1, 509.9C558.4, 489.9 640, 420.5 640, 296C640, 285.1 633, 275.3 622.3, 271.1zM496, 462.4L496, 273.3L591.5, 310.6C585.9, 397.7 530.6, 446 496, 462.4zM356.2, 464L48, 464L48, 438.4C48, 390.8 86.8, 352 134.4, 352C149, 352 172.7, 368 224, 368C271.1, 368 294.9, 354.5 309.4, 352.5C306.5, 337.3 304.8, 321.5 304.3, 305C278.7, 308.2 264.8, 320 223.9, 320C176.8, 320 163.1, 304 134.3, 304C60.2, 304 0, 364.2 0, 438.4L0, 464C0, 490.5 21.5, 512 48, 512L399.3, 512C383.8, 498.3 369.1, 482.3 356.2, 464zM224, 288C303.5, 288 368, 223.5 368, 144C368, 64.5 303.5, 0 224, 0C144.5, 0 80, 64.5 80, 144C80, 223.5 144.5, 288 224, 288zM224, 48C276.9, 48 320, 91.1 320, 144C320, 196.9 276.9, 240 224, 240C171.1, 240 128, 196.9 128, 144C128, 91.1 171.1, 48 224, 48z" fill="#727272" fill-opacity="1" class="Black" />
    </g>
  </g>
</svg>