<?xml version='1.0' encoding='UTF-8'?>
<svg viewBox="-2 -4.7992 32 32" xmlns="http://www.w3.org/2000/svg">
  <g transform="matrix(0.9988, 0, 0, 0.9988, 0, 0)">
    <g transform="matrix(0.0438, 0, 0, 0.0438, 0, 0)">
      <path d="M512, 224A128 128 0 1 0 640, 352A128 128 0 0 0 512, 224zM576, 368A5.33 5.33 0 0 1 570.67, 373.33L533.33, 373.33L533.33, 410.67A5.33 5.33 0 0 1 528, 416L496, 416A5.33 5.33 0 0 1 490.67, 410.67L490.67, 373.33L453.33, 373.33A5.33 5.33 0 0 1 448, 368L448, 336A5.33 5.33 0 0 1 453.33, 330.67L490.67, 330.67L490.67, 293.33A5.33 5.33 0 0 1 496, 288L528, 288A5.33 5.33 0 0 1 533.33, 293.33L533.33, 330.67L570.67, 330.67A5.33 5.33 0 0 1 576, 336zM320, 256A112 112 0 1 0 208, 144A111.94 111.94 0 0 0 320, 256zM320, 80A64 64 0 1 1 256, 144A64.06 64.06 0 0 1 320, 80zM96, 224A80 80 0 1 0 16, 144A80 80 0 0 0 96, 224zM96, 112A32 32 0 1 1 64, 144A32.09 32.09 0 0 1 96, 112zM374.26, 432L176, 432L176, 387.2A67.38 67.38 0 0 1 241.4, 320A203.8 203.8 0 0 0 320, 336A198.4 198.4 0 0 0 353.94, 332.86A157.56 157.56 0 0 1 369.94, 280.02C368.18, 280.47 366.38, 280.67 364.64, 281.2A152.46 152.46 0 0 1 275.24, 281.2C228.14, 266.9 174.94, 282 147.44, 322.9A114.59 114.59 0 0 0 127.84, 387.2L127.84, 432A48 48 0 0 0 175.84, 480L417, 480A160.27 160.27 0 0 1 374.26, 432zM154.8, 270.3A83.7 83.7 0 0 0 108, 256L84, 256A84.12 84.12 0 0 0 0, 340A24 24 0 0 0 48, 340A36.11 36.11 0 0 1 84, 304L108, 304A35.48 35.48 0 0 1 120.3, 306.5A148.37 148.37 0 0 1 154.8, 270.3z" fill="#727272" fill-opacity="1" class="Black" />
    </g>
  </g>
</svg>