<?xml version='1.0' encoding='UTF-8'?>
<svg viewBox="-1.9998 -4.7991 31.9975 32" xmlns="http://www.w3.org/2000/svg">
  <g transform="matrix(0.9989, 0, 0, 0.9989, 0, 0)">
    <g transform="matrix(0.0438, 0, 0, 0.0438, 0, 0)">
      <path d="M340.3, 464L48, 464L48, 438.4C48, 390.8 86.8, 352 134.4, 352C149, 352 172.7, 368 224, 368C266.6, 368 294, 356.1 304.1, 353.6C304, 346.1 304, 328.8 310.2, 304.4C281.6, 305.8 269.3, 320 224, 320C176.9, 320 163.2, 304 134.4, 304C60.2, 304 0, 364.2 0, 438.4L0, 464C0, 490.5 21.5, 512 48, 512L390, 512C370.6, 499.1 353.8, 482.8 340.3, 464zM224, 288C303.5, 288 368, 223.5 368, 144C368, 64.5 303.5, 0 224, 0C144.5, 0 80, 64.5 80, 144C80, 223.5 144.5, 288 224, 288zM224, 48C276.9, 48 320, 91.1 320, 144C320, 196.9 276.9, 240 224, 240C171.1, 240 128, 196.9 128, 144C128, 91.1 171.1, 48 224, 48zM610.5, 373.3C613.1, 359.2 613.1, 344.8 610.5, 330.7L636.3, 315.8C639.3, 314.1 640.6, 310.6 639.6, 307.3C632.9, 285.7 621.4, 266.1 606.4, 249.9C604.1, 247.4 600.4, 246.8 597.4, 248.5L571.6, 263.4C560.7, 254.1 548.2, 246.9 534.7, 242.1L534.7, 212.3C534.7, 208.9 532.3, 205.9 529, 205.2C506.7, 200.2 484, 200.4 462.8, 205.2C459.5, 205.9 457.1, 208.9 457.1, 212.3L457.1, 242.1C443.6, 246.9 431.1, 254.1 420.2, 263.4L394.4, 248.5C391.5, 246.8 387.7, 247.4 385.4, 249.9C370.4, 266.1 358.9, 285.7 352.2, 307.3C351.2, 310.6 352.6, 314.1 355.5, 315.8L381.3, 330.7C378.7, 344.8 378.7, 359.2 381.3, 373.3L355.5, 388.2C352.5, 389.9 351.2, 393.4 352.2, 396.7C358.9, 418.3 370.4, 437.8 385.4, 454.1C387.7, 456.6 391.4, 457.2 394.4, 455.5L420.2, 440.6C431.1, 449.9 443.6, 457.1 457.1, 461.9L457.1, 491.7C457.1, 495.1 459.5, 498.1 462.8, 498.8C485.1, 503.8 507.8, 503.6 529, 498.8C532.3, 498.1 534.7, 495.1 534.7, 491.7L534.7, 461.9C548.2, 457.1 560.7, 449.9 571.6, 440.6L597.4, 455.5C600.3, 457.2 604.1, 456.6 606.4, 454.1C621.4, 437.9 632.9, 418.3 639.6, 396.7C640.6, 393.4 639.2, 389.9 636.3, 388.2L610.5, 373.3zM496, 400.5C469.2, 400.5 447.5, 378.7 447.5, 352C447.5, 325.3 469.3, 303.5 496, 303.5C522.7, 303.5 544.5, 325.3 544.5, 352C544.5, 378.7 522.8, 400.5 496, 400.5z" fill="#727272" fill-opacity="1" class="Black" />
    </g>
  </g>
</svg>