<?xml version='1.0' encoding='UTF-8'?>
<svg viewBox="-3.7517 -2.005 32 32" xmlns="http://www.w3.org/2000/svg">
  <g transform="matrix(0.0547, 0, 0, 0.0547, 0, 0)">
    <path d="M383.9, 308.3L407.8, 245.7C411.8, 235.2 404.1, 224 392.8, 224L359.2, 224C364.6, 208.9 368, 192.9 368, 176C368, 169.4 367.3, 162.9 366.4, 156.6C397.1, 149 416, 139 416, 128C416, 114.7 388.7, 102.9 345.9, 95C336.7, 62.2 318.9, 29.2 305.3, 12.2C299.1, 4.3 289.7, 0 280.1, 0C275.3, 0 270.4, 1.1 265.8, 3.4C236, 18.3 233.5, 20.5 224, 20.5C214.5, 20.5 211.7, 18.1 182.1, 3.3C177.5, 1 172.7, -0.1 167.8, -0.1C158.2, -0.1 148.9, 4.2 142.6, 12.1C129.1, 29.1 111.2, 62.1 102, 94.9C59.3, 102.9 32, 114.7 32, 128C32, 139 50.9, 149 81.6, 156.6C80.6, 163 80, 169.4 80, 176C80, 192.9 83.5, 208.9 88.8, 224L56.3, 224C44.8, 224 37.1, 235.7 41.6, 246.3L67.4, 306.5C27.3, 329.8 0, 372.7 0, 422.4L0, 467.2C0, 491.9 20.1, 512 44.8, 512L403.2, 512C427.9, 512 448, 491.9 448, 467.2L448, 422.4C448, 374 422.2, 332 383.9, 308.3zM173, 52.5C189.2, 60.6 202, 68.5 224, 68.5C245.8, 68.5 258.8, 60.6 275, 52.5C294, 82.9 300.7, 111.7 302.7, 118.7C280.9, 121.1 254.6, 122.6 224, 122.6C193.4, 122.6 167.2, 121 145.3, 118.7C147.3, 111.6 154, 82.9 173, 52.5zM183.5, 464L48, 464L48, 422.4C48, 391.6 64.2, 363.8 91.5, 348.1L128.3, 326.8L104.8, 272L117.4, 272C134.4, 290.9 156.2, 304.9 181, 312.7L208, 360zM127.9, 176.1C128, 175.9 128, 175.8 128, 175.7C128.1, 175.8 133.5, 178.9 134.3, 181.5C138.2, 193.4 141.3, 206.1 150.8, 214.9C158.8, 222.3 197.8, 240 214.8, 189.9C217.6, 181.5 230.2, 181.5 233.1, 189.9C249.1, 237.3 287, 224.3 297.1, 214.9C306.6, 206.1 309.8, 193.4 313.6, 181.5C314.4, 179 319.8, 175.9 319.9, 175.8L319.9, 176.1C319.9, 229 276.8, 272.1 223.9, 272.1C171, 272.1 127.9, 229 127.9, 176.1zM264.5, 464L240, 360L267, 312.7C291.8, 304.9 313.6, 290.8 330.6, 272L346.3, 272L324.8, 328.3L358.6, 349.1C384.5, 365.1 399.9, 392.5 399.9, 422.3L399.9, 464z" fill="#727272" fill-opacity="1" class="Black" />
  </g>
</svg>