<?xml version='1.0' encoding='UTF-8'?>
<svg viewBox="-3.7495 -2 32 32" xmlns="http://www.w3.org/2000/svg">
  <g transform="matrix(0.0547, 0, 0, 0.0547, 0, 0)">
    <path d="M224, 288C294.7, 288 352, 230.69 352, 160L352, 0L288, 32L224, 0L160, 32L96, 0L96, 160C96, 230.69 153.31, 288 224, 288zM144, 128L304, 128L304, 160C304, 204.11 268.11, 240 224, 240C179.89, 240 144, 204.11 144, 160L144, 128zM313.6, 304C302.56, 304 291.82, 306.6 281.4, 310.24C263.4, 316.52 244.12, 320 224, 320C203.89, 320 184.6, 316.52 166.61, 310.24C156.19, 306.6 145.44, 304 134.4, 304C60.17, 304 0, 364.17 0, 438.4L0, 464C0, 490.51 21.49, 512 48, 512L400, 512C426.51, 512 448, 490.51 448, 464L448, 438.4C448, 364.17 387.83, 304 313.6, 304zM400, 464L48, 464L48, 438.4C48, 390.76 86.76, 352 134.4, 352C138.58, 352 143.93, 353.16 150.78, 355.55C174.44, 363.81 199.07, 368 224, 368C248.93, 368 273.56, 363.81 297.22, 355.55C304.07, 353.16 309.43, 352 313.6, 352C361.24, 352 400, 390.76 400, 438.4L400, 464z" fill="#727272" fill-opacity="1" class="Black" />
  </g>
</svg>