<?xml version='1.0' encoding='UTF-8'?>
<svg viewBox="-2 -4.7992 32 32" xmlns="http://www.w3.org/2000/svg">
  <g transform="matrix(0.9988, 0, 0, 0.9988, 0, 0)">
    <g transform="matrix(0.0438, 0, 0, 0.0438, 0, 0)">
      <path d="M556, 256L532, 256C514.7, 256 498.61, 261.27 485.23, 270.28C498.6, 280.42 510.41, 292.46 519.66, 306.5C523.54, 305.06 527.62, 304 532, 304L556, 304C575.84, 304 592, 320.16 592, 340C592, 353.25 602.75, 364 616, 364C629.25, 364 640, 353.25 640, 340C640, 293.69 602.31, 256 556, 256zM544, 224C588.18, 224 624, 188.18 624, 144C624, 99.82 588.18, 64 544, 64C499.82, 64 464, 99.82 464, 144C464, 188.18 499.82, 224 544, 224zM544, 112C561.64, 112 576, 126.36 576, 144C576, 161.64 561.64, 176 544, 176C526.36, 176 512, 161.64 512, 144C512, 126.36 526.36, 112 544, 112zM154.77, 270.28C141.39, 261.27 125.3, 256 108, 256L84, 256C37.69, 256 0, 293.69 0, 340C0, 353.25 10.75, 364 24, 364C37.25, 364 48, 353.25 48, 340C48, 320.16 64.16, 304 84, 304L108, 304C112.37, 304 116.46, 305.06 120.34, 306.5C129.59, 292.46 141.4, 280.42 154.77, 270.28zM96, 224C140.18, 224 176, 188.18 176, 144C176, 99.82 140.18, 64 96, 64C51.82, 64 16, 99.82 16, 144C16, 188.18 51.82, 224 96, 224zM96, 112C113.64, 112 128, 126.36 128, 144C128, 161.64 113.64, 176 96, 176C78.36, 176 64, 161.64 64, 144C64, 126.36 78.36, 112 96, 112zM364.66, 281.28C350.5, 285.58 335.56, 288 320, 288C304.44, 288 289.5, 285.58 275.34, 281.28C228.26, 266.98 175.05, 282.12 147.57, 322.94C135.21, 341.3 128, 363.41 128, 387.2L128, 432C128, 458.51 149.49, 480 176, 480L464, 480C490.51, 480 512, 458.51 512, 432L512, 387.2C512, 363.41 504.79, 341.3 492.43, 322.95C464.95, 282.13 411.74, 266.98 364.66, 281.28zM464, 432L176, 432L176, 387.2C176, 350.76 205.16, 321 241.38, 320.02C266.88, 330.63 293.32, 336 320, 336C346.67, 336 373.11, 330.63 398.62, 320.02C434.84, 321 464, 350.76 464, 387.2L464, 432zM320, 256C381.86, 256 432, 205.86 432, 144L432, 32L376, 60L320, 32L264, 60L208, 32L208, 144C208, 205.86 258.14, 256 320, 256zM256, 128L384, 128L384, 144C384, 179.29 355.29, 208 320, 208C284.71, 208 256, 179.29 256, 144L256, 128z" fill="#727272" fill-opacity="1" class="Black" />
    </g>
  </g>
</svg>