<?xml version='1.0' encoding='UTF-8'?>
<svg viewBox="-2 -4.7942 32 32" xmlns="http://www.w3.org/2000/svg">
  <g transform="matrix(0.9988, 0, 0, 0.9988, 0, 0)">
    <g transform="matrix(0.0438, 0, 0, 0.0438, 0, 0)">
      <path d="M512, 0C441.31, 0 384, 50.14 384, 112C384, 140.76 396.75, 166.72 417.11, 186.55A312.08 312.08 0 0 1 385.82, 241.92A9.86 9.86 0 0 0 384.57, 250.99C385.66, 254.12 388, 255.99 390.68, 255.99C430.52, 255.99 463.03, 238.85 485.9, 221.63A146 146 0 0 0 512, 224C582.69, 224 640, 173.86 640, 112C640, 50.14 582.69, 0 512, 0zM224, 288A144 144 0 1 0 80, 144A144 144 0 0 0 224, 288zM224, 48A96 96 0 1 1 128, 144A96.15 96.15 0 0 1 224, 48zM313.6, 304C302.6, 304 291.8, 306.6 281.4, 310.2A173 173 0 0 1 166.6, 310.2C156.2, 306.6 145.4, 304 134.4, 304A134.43 134.43 0 0 0 0, 438.4L0, 488A24 24 0 0 0 48, 488L48, 438.4C48, 392.9 83.4, 356 128, 352.6L128, 402.6A56 56 0 1 0 160, 402.6L160, 357.9C180.8, 364.2 202.3, 368 224, 368C245.7, 368 267.2, 364.2 288, 357.9L288, 394.2C259.8, 401.7 240, 428.7 240, 458.8L240, 488A16.06 16.06 0 0 0 244.7, 499.3L255, 509.6A8 8 0 0 0 266.3, 509.6L277.6, 498.3A8 8 0 0 0 277.6, 487L271.9, 481.3L271.9, 456A32.14 32.14 0 0 1 309.3, 424.4C325, 427 335.9, 441.8 335.9, 457.7L335.9, 481.3L330.2, 487A8 8 0 0 0 330.2, 498.3L341.5, 509.6A8 8 0 0 0 352.8, 509.6L363.1, 499.3A16.06 16.06 0 0 0 367.8, 488L367.8, 456A63.8 63.8 0 0 0 319.8, 394.4L319.8, 352.7C364.4, 356 399.8, 393 399.8, 438.5L399.8, 488A24 24 0 0 0 447.8, 488L447.8, 438.4C448, 364.2 387.8, 304 313.6, 304zM168, 456A24 24 0 1 1 144, 432A23.94 23.94 0 0 1 168, 456z" fill="#727272" fill-opacity="1" class="Black" />
    </g>
  </g>
</svg>