<?xml version='1.0' encoding='UTF-8'?>
<svg viewBox="-3.7495 -2 32 32" xmlns="http://www.w3.org/2000/svg">
  <g transform="matrix(0.0547, 0, 0, 0.0547, 0, 0)">
    <path d="M224, 272A80.13 80.13 0 0 1 145.62, 208L97.62, 208C105.62, 271.06 158.79, 320 224.01, 320C289.23, 320 342.45, 271.06 350.4, 208L302.4, 208A80.13 80.13 0 0 1 224, 272zM313.6, 352C284.88, 352 271.15, 368 224, 368C176.85, 368 163.12, 352 134.44, 352A134.4 134.4 0 0 0 0, 486.4A25.6 25.6 0 0 0 25.6, 512L422.4, 512A25.6 25.6 0 0 0 448, 486.4A134.4 134.4 0 0 0 313.6, 352zM50.94, 464A86.58 86.58 0 0 1 134.44, 400C148.88, 400 172.72, 416 224, 416C275.47, 416 299.1, 400 313.6, 400A86.55 86.55 0 0 1 397.06, 464zM88, 176L360, 176A8 8 0 0 0 368, 168L368, 136A8 8 0 0 0 360, 128L352, 128C352, 81.59 323.47, 42.46 283.21, 25.58L256, 80L256, 16A16 16 0 0 0 240, 0L208, 0A16 16 0 0 0 192, 16L192, 80L164.79, 25.58C124.53, 42.46 96, 81.59 96, 128L88, 128A8 8 0 0 0 80, 136L80, 168A8 8 0 0 0 88, 176z" fill="#727272" fill-opacity="1" class="Black" />
  </g>
</svg>