<?xml version='1.0' encoding='UTF-8'?>
<svg viewBox="-2 -4.7992 32 32" xmlns="http://www.w3.org/2000/svg">
  <g transform="matrix(0.9988, 0, 0, 0.9988, 0, 0)">
    <g transform="matrix(0.0438, 0, 0, 0.0438, 0, 0)">
      <path d="M598.36, 97.51L486.36, 132.89A32 32 0 0 0 464, 163.36L464, 366.48C445.84, 357.41 423.84, 352 400, 352C338.14, 352 288, 387.82 288, 432C288, 476.18 338.14, 512 400, 512C461.86, 512 512, 476.18 512, 432L512, 291.36L617.64, 258A32 32 0 0 0 640, 227.48L640, 128A32 32 0 0 0 598.36, 97.51zM400, 464C360.3, 464 336, 443.28 336, 432C336, 420.72 360.3, 400 400, 400C439.7, 400 464, 420.72 464, 432C464, 443.28 439.7, 464 400, 464zM592, 215.75L512, 241L512, 175.12L592, 149.86zM262.46, 464L48, 464L48, 438.41A86.56 86.56 0 0 1 134.41, 352C149, 352 172.69, 368 224, 368C256.8, 368 278.08, 361.58 293.05, 356.87C314.81, 338.08 344.62, 325.4 378.88, 321.61C359.47, 310.73 337.42, 304 313.59, 304C284.91, 304 271.09, 320 224, 320C176.91, 320 163.19, 304 134.41, 304A134.43 134.43 0 0 0 0, 438.41L0, 464A48 48 0 0 0 48, 512L298.42, 512A107.94 107.94 0 0 1 262.46, 464zM224, 288A144 144 0 1 0 80, 144A144 144 0 0 0 224, 288zM224, 48A96 96 0 1 1 128, 144A96.14 96.14 0 0 1 224, 48z" fill="#727272" fill-opacity="1" class="Black" />
    </g>
  </g>
</svg>