<?xml version='1.0' encoding='UTF-8'?>
<svg viewBox="-3.7505 -1.9998 32 31.9975" xmlns="http://www.w3.org/2000/svg">
  <g transform="matrix(0.0547, 0, 0, 0.0547, 0, 0)">
    <path d="M320, 352L315.3, 352C303.15, 352 291.3, 354.9 279.8, 358.8A173.73 173.73 0 0 1 168.17, 358.8C156.68, 354.9 144.87, 352.02 132.74, 352.02L128, 352.02A128 128 0 0 0 0, 480A32 32 0 0 0 32, 512L416, 512A32 32 0 0 0 448, 480A128 128 0 0 0 320, 352zM49.61, 464A80.14 80.14 0 0 1 128, 400L132.74, 400C137.86, 400 144.23, 401.35 152.74, 404.24A221.75 221.75 0 0 0 295.16, 404.24C303.76, 401.33 310.16, 399.97 315.27, 399.97L320, 399.97A80.14 80.14 0 0 1 398.39, 463.97zM55.33, 224A23.36 23.36 0 0 0 78.67, 200.67L78.67, 192C78.67, 111.86 143.86, 46.67 224, 46.67C304.14, 46.67 369.33, 111.86 369.33, 192L369.33, 204.67A68.74 68.74 0 0 1 300.67, 273.33L277.17, 273.33A38.74 38.74 0 0 0 239.33, 242.67L208.67, 242.67A38.67 38.67 0 1 0 208.67, 320L300.67, 320A115.46 115.46 0 0 0 416, 204.67L416, 192C416, 86.13 329.87, 0 224, 0C118.13, 0 32, 86.13 32, 192L32, 200.67A23.36 23.36 0 0 0 55.33, 224zM224, 128A64.07 64.07 0 0 1 288, 192A63.21 63.21 0 0 1 279.24, 223.73C286.24, 228.59 292.65, 234.28 297.53, 241.33L300.67, 241.33C313.36, 241.33 324.02, 234.45 330.61, 224.62C333.79, 214.23 336, 203.43 336, 192A112 112 0 0 0 112, 192C112, 220.2 122.78, 245.66 140, 265.35A70.73 70.73 0 0 1 168.54, 223.3A63.22 63.22 0 0 1 160, 192A64.07 64.07 0 0 1 224, 128z" fill="#727272" fill-opacity="1" class="Black" />
  </g>
</svg>