<?xml version='1.0' encoding='UTF-8'?>
<svg viewBox="-3.7558 -2 32 32" xmlns="http://www.w3.org/2000/svg">
  <g transform="matrix(0.0547, 0, 0, 0.0547, 0, 0)">
    <path d="M224, 288C303.5, 288 368, 223.5 368, 144C368, 64.5 303.5, 0 224, 0C144.5, 0 80, 64.5 80, 144C80, 223.5 144.5, 288 224, 288zM224, 48C276.9, 48 320, 91.1 320, 144C320, 196.9 276.9, 240 224, 240C171.1, 240 128, 196.9 128, 144C128, 91.1 171.1, 48 224, 48zM313.6, 304C302.6, 304 291.8, 306.6 281.4, 310.2C263.4, 316.5 244.1, 320 224, 320C203.9, 320 184.6, 316.5 166.6, 310.2C156.2, 306.6 145.4, 304 134.4, 304C60.2, 304 0, 364.2 0, 438.4L0, 488C0, 501.3 10.7, 512 24, 512C37.3, 512 48, 501.3 48, 488L48, 438.4C48, 392.9 83.4, 356 128, 352.6L128, 402.6C104.9, 409.5 88, 430.7 88, 456C88, 486.9 113.1, 512 144, 512C174.9, 512 200, 486.9 200, 456C200, 430.7 183.1, 409.5 160, 402.6L160, 357.9C180.8, 364.2 202.3, 368 224, 368C245.8, 368 267.2, 364.2 288, 357.9L288, 394.2C259.8, 401.7 240, 428.7 240, 458.8L240, 488C240, 492.2 241.7, 496.3 244.7, 499.3L255, 509.6C258.1, 512.7 263.2, 512.7 266.3, 509.6L277.6, 498.3C280.7, 495.2 280.7, 490.1 277.6, 487L271.9, 481.3L271.9, 456C271.9, 436.6 289.3, 421.2 309.3, 424.4C325, 427 335.9, 441.8 335.9, 457.7L335.9, 481.3L330.2, 487C327.1, 490.1 327.1, 495.2 330.2, 498.3L341.5, 509.6C344.6, 512.7 349.7, 512.7 352.8, 509.6L363.1, 499.3C366.1, 496.3 367.8, 492.2 367.8, 488L367.8, 456C367.8, 426.3 347.3, 401.5 319.8, 394.4L319.8, 352.7C364.4, 356 399.8, 393 399.8, 438.5L399.8, 488C399.8, 501.3 410.5, 512 423.8, 512C437.1, 512 447.8, 501.3 447.8, 488L447.8, 438.4C448, 364.2 387.8, 304 313.6, 304zM168, 456C168, 469.3 157.3, 480 144, 480C130.7, 480 120, 469.3 120, 456C120, 442.7 130.7, 432 144, 432C157.3, 432 168, 442.7 168, 456z" fill="#727272" fill-opacity="1" class="Black" />
  </g>
</svg>