<?xml version='1.0' encoding='UTF-8'?>
<svg viewBox="-1.9975 -4.7973 32 32" xmlns="http://www.w3.org/2000/svg">
  <g transform="matrix(0.999, 0, 0, 0.999, 0, 0)">
    <g transform="matrix(0.0438, 0, 0, 0.0438, 0, 0)">
      <path d="M634, 471L36, 3.5C29.1, -2 19, -0.9 13.5, 6L3.5, 18.5C-2, 25.4 -0.9, 35.5 6, 41L604, 508.5C610.9, 514 621, 512.9 626.5, 506L636.5, 493.5C642, 486.6 640.9, 476.5 634, 471zM320, 48C372.9, 48 416, 91.1 416, 144C416, 172.1 403.6, 197.3 384.2, 214.8L422.6, 244.8C448.1, 218.8 464, 183.3 464, 144C464, 64.5 399.5, 0 320, 0C268.1, 0 223, 27.7 197.6, 68.9L235.8, 98.8C252.1, 68.7 283.5, 48 320, 48zM144, 464L144, 438.4C144, 390.8 182.8, 352 230.4, 352C234.6, 352 239.9, 353.2 246.8, 355.6C270.5, 363.9 295.1, 368 320, 368C328, 368 335.9, 366.9 343.8, 366L277.4, 314.1C272.5, 312.8 267.4, 311.9 262.6, 310.3C252.2, 306.7 241.4, 304.1 230.4, 304.1C156.2, 304 96, 364.2 96, 438.4L96, 464C96, 490.5 117.5, 512 144, 512L496, 512C505.3, 512 513.9, 509.2 521.2, 504.7L469.2, 464L144, 464z" fill="#727272" fill-opacity="1" class="Black" />
    </g>
  </g>
</svg>