<?xml version='1.0' encoding='UTF-8'?>
<svg viewBox="-3.7495 -2 32 32" xmlns="http://www.w3.org/2000/svg">
  <g transform="matrix(0.0547, 0, 0, 0.0547, 0, 0)">
    <path d="M224, 288C303.53, 288 368, 223.53 368, 144C368, 64.47 303.53, 0 224, 0C144.47, 0 80, 64.47 80, 144C80, 223.53 144.47, 288 224, 288zM306.64, 96L239.99, 96L279.76, 66.17C290.75, 74.07 299.8, 84.27 306.64, 96zM224, 48C231.85, 48 239.37, 49.21 246.68, 51L186.68, 96L141.36, 96C158.01, 67.45 188.63, 48 224, 48zM129.62, 128L318.39, 128C319.28, 133.23 320.01, 138.52 320.01, 144C320.01, 196.93 276.95, 240 224.01, 240C171.08, 240 128.01, 196.93 128.01, 144C128, 138.52 128.73, 133.23 129.62, 128zM313.6, 304C302.56, 304 291.82, 306.6 281.4, 310.24C263.4, 316.52 244.12, 320 224, 320C203.89, 320 184.6, 316.52 166.61, 310.24C156.19, 306.6 145.44, 304 134.4, 304C60.17, 304 0, 364.17 0, 438.4L0, 464C0, 490.51 21.49, 512 48, 512L400, 512C426.51, 512 448, 490.51 448, 464L448, 438.4C448, 364.17 387.83, 304 313.6, 304zM80, 464L48, 464L48, 438.4C48, 411.48 60.63, 387.69 80, 371.83L80, 464zM112, 464L112, 355.32C119.19, 353.37 126.61, 352 134.4, 352C138.58, 352 143.93, 353.16 150.78, 355.55C152.24, 356.06 153.77, 356.22 155.24, 356.7L202.93, 464L112, 464zM283.08, 464L237.96, 464L216.63, 416L256, 416C273.66, 416 288, 430.36 288, 448C288, 453.95 285.93, 459.22 283.08, 464zM400, 464L317.73, 464C319.07, 458.86 320, 453.56 320, 448C320, 412.7 291.28, 384 256, 384L202.4, 384L194.17, 365.48C204.05, 366.83 213.97, 368 224, 368C248.93, 368 273.56, 363.81 297.22, 355.55C304.07, 353.16 309.43, 352 313.6, 352C361.24, 352 400, 390.76 400, 438.4L400, 464z" fill="#727272" fill-opacity="1" class="Black" />
  </g>
</svg>