<?xml version='1.0' encoding='UTF-8'?>
<svg viewBox="-2 -2 32 32" xmlns="http://www.w3.org/2000/svg">
  <g transform="matrix(0.0547, 0, 0, 0.0547, 0, 0)">
    <path d="M463.3, 16.6C441.2, -4.5 406.3, -6.1 384.3, 14.9L16.7, 365.1C-6.5, 387.2 -5.2, 424.2 18.5, 446.8L69.5, 495.4C93.4, 518.2 130.9, 517.6 151.9, 493.5L274.5, 352.8C340.9, 361 402.6, 352.1 450.9, 306.2C492, 266.9 512, 210.7 512, 152.6C512, 105.1 497.8, 49.5 463.3, 16.6zM417.7, 271.3C374, 312.9 314.7, 311.9 255.6, 301.3L115.7, 461.9C112.8, 465.3 106.6, 464.4 102.6, 460.6L51.6, 412.1C47.7, 408.3 46.8, 402.8 49.8, 399.9L417.4, 49.7C420.4, 46.9 426.2, 47.6 430.2, 51.4C470.8, 90.1 483.9, 208.4 417.7, 271.3z" fill="#727272" fill-opacity="1" class="Black" />
  </g>
</svg>