<?xml version='1.0' encoding='UTF-8'?>
<svg viewBox="-2.0013 -2 32 32" xmlns="http://www.w3.org/2000/svg">
  <g transform="matrix(0.0547, 0, 0, 0.0547, 0, 0)">
    <path d="M474.4, 37.5C410.4, -26.5 293.7, -2.2 229.2, 62.3C184.2, 107.4 171.3, 160.4 188.7, 215.7L18.8, 368.2C-5.4, 389.9 -6.5, 427.6 16.6, 450.7L61.3, 495.4C84.6, 518.7 122.3, 517.1 143.8, 493.2L296.2, 323.3C350, 340.2 403.3, 329.1 449.6, 282.8C513, 219.3 539.3, 102.4 474.4, 37.5zM415.7, 248.7C375.4, 289 332.8, 291.7 283.2, 265.8L108, 461.1C104.7, 464.8 98.8, 465.1 95.2, 461.4L50.5, 416.7C46.9, 413.1 47.1, 407.3 50.8, 403.9L246, 228.7C221.8, 182.2 220.7, 138.6 263.1, 96.2C311.4, 47.9 398.2, 29.2 440.4, 71.4C484.4, 115.3 461.5, 202.9 415.7, 248.7z" fill="#727272" fill-opacity="1" class="Black" />
  </g>
</svg>