<?xml version='1.0' encoding='UTF-8'?>
<svg viewBox="-1.995 -2 31.9975 32" xmlns="http://www.w3.org/2000/svg">
  <g transform="matrix(0.0547, 0, 0, 0.0547, 0, 0)">
    <path d="M457.4, 107.3C451.1, 82.5 428.5, 60.6 404.7, 54.5C394.5, 14.7 344.7, -16.3 307.1, 9.3C294, 18.1 230.8, 60.9 207, 84.8C165.7, 126.1 155.8, 181.2 172.4, 230.3L18.2, 368.2C-5.3, 389.2 -6.1, 425.7 16.3, 448.1L63.9, 495.7C86.5, 518.3 123, 517.1 143.8, 493.8L281.7, 339.5C333.2, 356.9 387.6, 344.5 427.2, 304.9C451, 281.1 493.7, 218 502.5, 204.8C528.9, 166.4 495.9, 117.1 457.4, 107.3zM462.9, 177.9C462.9, 177.9 415.1, 249.2 393.2, 271C358.9, 305.3 310.6, 308 270, 280.5L108, 461.9C105.5, 464.8 100.8, 464.8 97.8, 461.8L50.2, 414.2C47.3, 411.3 47.2, 406.6 50.1, 404L231.5, 242C204.3, 201.9 206.3, 153.5 241, 118.8C262.9, 96.9 334.1, 49.1 334.1, 49.1C342.6, 43.1 363.7, 64.4 357.3, 72.7L267.2, 162.8C259.5, 172 281, 193.8 290.4, 186.4L386.8, 101.7C395.2, 95.8 416.1, 116.7 410.2, 125.1L325.5, 221.5C318.1, 230.9 339.9, 252.5 349.1, 244.7L439.2, 154.6C447.6, 148.3 469, 169.3 462.9, 177.9z" fill="#727272" fill-opacity="1" class="Black" />
  </g>
</svg>