<?xml version='1.0' encoding='UTF-8'?>
<svg viewBox="-1.9999 -1.9999 32 32" xmlns="http://www.w3.org/2000/svg">
  <g transform="matrix(0.0547, 0, 0, 0.0547, 0, 0)">
    <path d="M480, 160C497.67, 160 512, 145.67 512, 128L512, 32C512, 14.33 497.67, 0 480, 0L384, 0C366.33, 0 352, 14.33 352, 32L352, 48L160, 48L160, 32C160, 14.33 145.67, 0 128, 0L32, 0C14.33, 0 0, 14.33 0, 32L0, 128C0, 145.67 14.33, 160 32, 160L48, 160L48, 352L32, 352C14.33, 352 0, 366.33 0, 384L0, 480C0, 497.67 14.33, 512 32, 512L128, 512C145.67, 512 160, 497.67 160, 480L160, 464L352, 464L352, 480C352, 497.67 366.33, 512 384, 512L480, 512C497.67, 512 512, 497.67 512, 480L512, 384C512, 366.33 497.67, 352 480, 352L464, 352L464, 160L480, 160zM400, 48L464, 48L464, 112L400, 112L400, 48zM48, 48L112, 48L112, 112L48, 112L48, 48zM112, 464L48, 464L48, 400L112, 400L112, 464zM464, 464L400, 464L400, 400L464, 400L464, 464zM416, 352L384, 352C366.33, 352 352, 366.33 352, 384L352, 416L160, 416L160, 384C160, 366.33 145.67, 352 128, 352L96, 352L96, 160L128, 160C145.67, 160 160, 145.67 160, 128L160, 96L352, 96L352, 128C352, 145.67 366.33, 160 384, 160L416, 160L416, 352z" fill="#727272" fill-opacity="1" class="Black" />
  </g>
</svg>