<?xml version='1.0' encoding='UTF-8'?>
<svg viewBox="-1.9998 -3.5563 31.9975 32" xmlns="http://www.w3.org/2000/svg">
  <g transform="matrix(0.0486, 0, 0, 0.0486, 0, 0)">
    <path d="M288, 208C288, 128.5 223.5, 64 144, 64C64.5, 64 0, 128.5 0, 208C0, 279.4 51.9, 338.6 120, 350L120, 408L76, 408C69.4, 408 64, 413.4 64, 420L64, 444C64, 450.6 69.4, 456 76, 456L120, 456L120, 500C120, 506.6 125.4, 512 132, 512L156, 512C162.6, 512 168, 506.6 168, 500L168, 456L212, 456C218.6, 456 224, 450.6 224, 444L224, 420C224, 413.4 218.6, 408 212, 408L168, 408L168, 350C236.1, 338.6 288, 279.4 288, 208zM48, 208C48, 155.1 91.1, 112 144, 112C196.9, 112 240, 155.1 240, 208C240, 260.9 196.9, 304 144, 304C91.1, 304 48, 260.9 48, 208zM576, 12L576, 75C576, 85.7 563.1, 91 555.5, 83.5L541, 69L485.4, 124.6C502.2, 148.1 512, 176.9 512, 208C512, 287.5 447.5, 352 368, 352C334.3, 352 303.4, 340.4 278.8, 321.1C289.2, 308.7 297.9, 295 304.6, 280.1C321.5, 295 343.7, 304.1 368, 304.1C420.9, 304.1 464, 261 464, 208.1C464, 155.2 420.9, 112.1 368, 112.1C343.7, 112.1 321.5, 121.2 304.6, 136.1C297.9, 121.2 289.2, 107.4 278.8, 95.1C303.4, 75.6 334.3, 64 368, 64C399.1, 64 427.9, 73.9 451.4, 90.6L507, 35L492.5, 20.5C484.9, 12.9 490.3, 0 501, 0L564, 0C570.6, 0 576, 5.4 576, 12z" fill="#727272" fill-opacity="1" class="Black" />
  </g>
</svg>