<?xml version='1.0' encoding='UTF-8'?>
<svg viewBox="-2 -1.9988 32 32" xmlns="http://www.w3.org/2000/svg">
  <g transform="matrix(0.0547, 0, 0, 0.0547, 0, 0)">
    <path d="M288, 176C288, 96.5 223.5, 32 144, 32C64.5, 32 0, 96.5 0, 176C0, 247.4 51.9, 306.6 120, 318L120, 376L76, 376C69.4, 376 64, 381.4 64, 388L64, 412C64, 418.6 69.4, 424 76, 424L120, 424L120, 468C120, 474.6 125.4, 480 132, 480L156, 480C162.6, 480 168, 474.6 168, 468L168, 424L212, 424C218.6, 424 224, 418.6 224, 412L224, 388C224, 381.4 218.6, 376 212, 376L168, 376L168, 318C236.1, 306.6 288, 247.4 288, 176zM48, 176C48, 123.1 91.1, 80 144, 80C196.9, 80 240, 123.1 240, 176C240, 228.9 196.9, 272 144, 272C91.1, 272 48, 228.9 48, 176zM392, 318L392, 376L436, 376C442.6, 376 448, 381.4 448, 388L448, 412C448, 418.6 442.6, 424 436, 424L392, 424L392, 468C392, 474.6 386.6, 480 380, 480L356, 480C349.4, 480 344, 474.6 344, 468L344, 424L300, 424C293.4, 424 288, 418.6 288, 412L288, 388C288, 381.4 293.4, 376 300, 376L344, 376L344, 318C319.7, 313.9 297.4, 303.7 278.8, 289.1C289.2, 276.7 297.9, 263 304.6, 248.1C321.5, 263 343.7, 272.1 368, 272.1C420.9, 272.1 464, 229 464, 176.1C464, 123.2 420.9, 80.1 368, 80.1C343.7, 80.1 321.5, 89.2 304.6, 104.1C297.9, 89.2 289.2, 75.4 278.8, 63.1C303.4, 43.6 334.3, 32 368, 32C447.5, 32 512, 96.5 512, 176C512, 247.4 460.1, 306.6 392, 318z" fill="#727272" fill-opacity="1" class="Black" />
  </g>
</svg>