<?xml version='1.0' encoding='UTF-8'?>
<svg viewBox="-7 0 32 32" xmlns="http://www.w3.org/2000/svg">
  <g transform="matrix(0.0625, 0, 0, 0.0625, 0, 0)">
    <path d="M288, 176C288, 96.5 223.5, 32 144, 32C64.5, 32 0, 96.5 0, 176C0, 247.4 51.9, 306.6 120, 318L120, 376L76, 376C69.4, 376 64, 381.4 64, 388L64, 412C64, 418.6 69.4, 424 76, 424L120, 424L120, 468C120, 474.6 125.4, 480 132, 480L156, 480C162.6, 480 168, 474.6 168, 468L168, 424L212, 424C218.6, 424 224, 418.6 224, 412L224, 388C224, 381.4 218.6, 376 212, 376L168, 376L168, 318C236.1, 306.6 288, 247.4 288, 176zM48, 176C48, 123.1 91.1, 80 144, 80C196.9, 80 240, 123.1 240, 176C240, 228.9 196.9, 272 144, 272C91.1, 272 48, 228.9 48, 176z" fill="#727272" fill-opacity="1" class="Black" />
  </g>
</svg>