<?xml version='1.0' encoding='UTF-8'?>
<svg viewBox="-2 -1.9988 32 32" xmlns="http://www.w3.org/2000/svg">
  <g transform="matrix(0.0547, 0, 0, 0.0547, 0, 0)">
    <path d="M464, 400L48, 400L48, 192L0, 192L0, 400A48 48 0 0 0 48, 448L464, 448A48 48 0 0 0 512, 400L512, 192L464, 192zM496, 64L16, 64A16 16 0 0 0 0, 80L0, 160L512, 160L512, 80A16 16 0 0 0 496, 64zM344, 368A88 88 0 0 0 344, 192L168, 192A88 88 0 0 0 168, 368zM352, 248A32 32 0 0 1 352, 312zM208, 240L304, 240L304, 320L208, 320zM160, 312A32 32 0 0 1 160, 248z" fill="#727272" fill-opacity="1" class="Black" />
  </g>
</svg>