<?xml version='1.0' encoding='UTF-8'?>
<svg viewBox="-1.9974 -1.0656 32 31.995" xmlns="http://www.w3.org/2000/svg">
  <g transform="matrix(0.0583, 0, 0, 0.0583, 0, 0)">
    <path d="M477.7, 186.1L309.9, 18.3C308.3, 16.7 306.3, 16 304.2, 16C302.2, 16 300.1, 16.8 298.5, 18.3L276.2, 40.6C273.1, 43.7 273.1, 48.8 276.2, 51.9L287.5, 63L30.1, 320.4C-10, 360.5 -10, 425.8 30.1, 465.9C70.2, 505.9 135.4, 506 175.6, 465.9L433, 208.5L444.1, 219.6C445.7, 221.2 447.7, 221.9 449.8, 221.9C451.9, 221.9 453.9, 221.1 455.5, 219.6L477.8, 197.3C480.8, 194.3 480.8, 189.2 477.7, 186.1zM141.6, 432C120.3, 453.3 85.5, 453.5 64, 432C42.6, 410.6 42.6, 375.8 64, 354.4L114.4, 304L269.6, 304L141.6, 432zM317.6, 256L162.4, 256L321, 97.4L398.6, 175L317.6, 256z" fill="#727272" fill-opacity="1" class="Black" />
  </g>
</svg>