<?xml version='1.0' encoding='UTF-8'?>
<svg viewBox="-2 -3.554 32 32" xmlns="http://www.w3.org/2000/svg">
  <g transform="matrix(0.0486, 0, 0, 0.0486, 0, 0)">
    <path d="M543.9, 96C537.7, 96 531.4, 97.8 525.7, 101.7L416, 170.1L416, 111.8C416, 85.4 392.8, 64 364.2, 64L51.8, 64C23.2, 64 0, 85.4 0, 111.8L0, 400.2C0, 426.6 23.2, 448 51.8, 448L364.2, 448C392.8, 448 416, 426.6 416, 400.2L416, 341.9L525.7, 410.2C531.4, 414.2 537.8, 415.9 543.9, 415.9C560.5, 415.9 576, 402.9 576, 384.4L576, 127.5C576, 109 560.5, 96 543.9, 96zM368, 200L368, 398.9C367.4, 399.3 366.2, 400 364.2, 400L51.8, 400C49.8, 400 48.6, 399.4 48, 398.9L48, 113.1C48.6, 112.7 49.8, 112 51.8, 112L364.2, 112C366.2, 112 367.4, 112.6 368, 113.1L368, 200zM528, 355.2L416, 285.4L416, 226.7L528, 156.9L528, 355.2z" fill="#727272" fill-opacity="1" class="Black" />
  </g>
</svg>