<?xml version='1.0' encoding='UTF-8'?>
<svg viewBox="-1.9975 -4.7973 32 32" xmlns="http://www.w3.org/2000/svg">
  <g transform="matrix(0.999, 0, 0, 0.999, 0, 0)">
    <g transform="matrix(0.0438, 0, 0, 0.0438, 0, 0)">
      <path d="M396.2, 112C398.2, 112 399.4, 112.6 400, 113.1L400, 227.2L448, 264.7L448, 226.7L560, 156.9L560, 352.3L607, 389.1C607.2, 387.5 608, 386.2 608, 384.5L608, 127.5C608, 109 592.5, 96 575.9, 96C569.7, 96 563.4, 97.8 557.7, 101.7L448, 170.1L448, 111.8C448, 85.4 424.8, 64 396.2, 64L191.3, 64L252.7, 112L396.2, 112zM634, 471L479.5, 350.2L400, 288.1L115.6, 65.7L113.4, 64L36, 3.5C29.1, -2 19, -0.9 13.5, 6L3.5, 18.5C-2, 25.4 -0.9, 35.5 6, 41L50.3, 75.6L89.3, 106.1L604, 508.5C610.9, 514 621, 512.9 626.5, 506L636.5, 493.5C642, 486.6 640.9, 476.5 634, 471zM83.8, 400C81.8, 400 80.6, 399.4 80, 398.9L80, 159.8L32, 122.3L32, 400.2C32, 426.6 55.2, 448 83.8, 448L396.2, 448C410, 448 422.5, 442.9 431.8, 434.8L387.3, 400L83.8, 400z" fill="#727272" fill-opacity="1" class="Black" />
    </g>
  </g>
</svg>