<?xml version='1.0' encoding='UTF-8'?>
<svg viewBox="-1.9973 -4.7993 31.9975 32" xmlns="http://www.w3.org/2000/svg">
  <g transform="matrix(1.0012, 0, 0, 1.0012, 0, 0)">
    <g transform="matrix(0.0437, 0, 0, 0.0437, 0, 0)">
      <path d="M632.88, 384.94L544, 320L544, 288L599.16, 264.41C610.95, 256.55 610.95, 234.11 599.16, 226.25L480, 160L480, 128L507.31, 111.7C515.03, 103.98 512.92, 90.96 503.15, 86.08L320, 0L136.85, 86.07C127.08, 90.95 124.97, 103.97 132.69, 111.69L160, 128L160, 160L40.84, 226.25C29.05, 234.11 29.05, 256.55 40.84, 264.41L96, 288L96, 320L7.12, 384.94C-3.1, 394.03 -2.15, 414.45 8.84, 421.77L64, 448L64, 496C64, 504.84 71.16, 512 80, 512L96, 512C104.84, 512 112, 504.84 112, 496L112, 448L296, 448L296, 496C296, 504.84 303.16, 512 312, 512L328, 512C336.84, 512 344, 504.84 344, 496L344, 448L528, 448L528, 496C528, 504.84 535.16, 512 544, 512L560, 512C568.84, 512 576, 504.84 576, 496L576, 448L631.15, 421.77C642.14, 414.45 643.1, 394.03 632.88, 384.94zM320, 53.04L377.39, 80L262.62, 80L320, 53.04zM208, 128L432, 128L432, 160L208, 160L208, 128zM172.45, 208L467.56, 208L525.11, 240L114.89, 240L172.45, 208zM144, 288L496, 288L496, 320L144, 320L144, 288zM111.67, 368L528.33, 368L576, 400L64, 400L111.67, 368z" fill="#727272" fill-opacity="1" class="Black" />
    </g>
  </g>
</svg>