<?xml version='1.0' encoding='UTF-8'?>
<svg viewBox="-1.9975 -4.8008 32 32" xmlns="http://www.w3.org/2000/svg">
  <g transform="matrix(0.9989, 0, 0, 0.9989, 0, 0)">
    <g transform="matrix(0.0438, 0, 0, 0.0438, 0, 0)">
      <path d="M481.14, 192.8L635.31, 38.62A16 16 0 0 0 635.31, 16L624, 4.69A16 16 0 0 0 601.38, 4.69L447.18, 158.88C431.74, 146.04 414.12, 135.88 394.59, 131.35C375.83, 126.98 330.59, 121.35 296.59, 155.35C292.91, 159.04 290.09, 163.25 287.19, 167.4C293.84, 216.21 246.37, 252.9 201.24, 235.6C186.01, 240.75 171.93, 248.71 160.24, 260.46C117.72, 302.86 118.38, 374.08 157, 431.7L135.13, 446.29A16 16 0 0 0 132.69, 470.91L169.09, 507.31A16 16 0 0 0 193.71, 504.87L208.17, 483.18C236.4, 502.1 267.89, 511.92 297.68, 511.92C328.68, 511.92 357.86, 501.39 379.48, 479.76C391.23, 468.08 399.19, 453.99 404.35, 438.76C387.18, 393.76 423.63, 346.43 472.35, 352.89C476.56, 349.95 480.83, 347.09 484.58, 343.35C509.52, 318.35 517.01, 281.87 508.58, 245.44C504.09, 225.88 494, 208.25 481.14, 192.8zM454.93, 304.38C393.49, 309.32 341.52, 367.08 353.71, 435.07C348.71, 443.92 333.1, 463.92 297.71, 463.92C276.42, 463.92 254.5, 456.45 234.85, 443.21L239.64, 436.03A16 16 0 0 0 237.64, 415.84L224.19, 402.39A16 16 0 0 0 204, 400.39L196.8, 405.19C183.5, 385.49 176.01, 363.52 176.03, 342.19C176.03, 316.06 187.67, 296.09 204.87, 286.28C273.32, 298.6 330.87, 246.62 335.7, 184.91C345.77, 177.66 357.5, 175.99 366.15, 175.99A78 78 0 0 1 383.74, 178.09C394.8, 180.66 404.74, 186.64 413.03, 193.09L324.72, 281.41A16 16 0 0 0 324.72, 304.03L336, 315.31A16 16 0 0 0 358.62, 315.31L447, 227C453.4, 235.33 459.34, 245.21 461.89, 256.23C466.22, 275.15 463.65, 292.33 454.93, 304.38zM347.31, 16L336, 4.69A16 16 0 0 0 313.38, 4.69L4.69, 313.38A16 16 0 0 0 4.69, 336L16, 347.31A16 16 0 0 0 38.62, 347.31L347.31, 38.62A16 16 0 0 0 347.31, 16zM520, 48A24 24 0 1 0 496, 24A24 24 0 0 0 520, 48zM472, 96A24 24 0 1 0 448, 72A24 24 0 0 0 472, 96zM616, 96A24 24 0 1 0 640, 120A24 24 0 0 0 616, 96zM568, 144A24 24 0 1 0 592, 168A24 24 0 0 0 568, 144z" fill="#727272" fill-opacity="1" class="Black" />
    </g>
  </g>
</svg>