<?xml version='1.0' encoding='UTF-8'?>
<svg viewBox="-2 -4.0988 32 32" xmlns="http://www.w3.org/2000/svg">
  <g transform="matrix(0.9988, 0, 0, 0.9988, 0, 0)">
    <g transform="matrix(0.0438, 0, 0, 0.0438, 0, 0)">
      <path d="M496, 128A144 144 0 0 0 352, 272C352, 309.05 366.38, 342.48 389.37, 368L250.63, 368C273.63, 342.48 288, 309.05 288, 272A144 144 0 1 0 144, 416L496, 416A144 144 0 0 0 496, 128zM48, 272A96 96 0 1 1 144, 368A96.11 96.11 0 0 1 48, 272zM496, 368A96 96 0 1 1 592, 272A96.11 96.11 0 0 1 496, 368z" fill="#727272" fill-opacity="1" class="Black" />
    </g>
  </g>
</svg>