<?xml version='1.0' encoding='UTF-8'?>
<svg viewBox="-2 -2 31.9975 32" xmlns="http://www.w3.org/2000/svg">
  <g transform="matrix(0.0547, 0, 0, 0.0547, 0, 0)">
    <path d="M500.9, 426.5L341.6, 228.3C331.5, 215.4 316.3, 208 299.8, 208L212, 208C195.6, 208 180.4, 215.4 170.4, 228.1L10.7, 427.2C-1.5, 443.4 -3.4, 464.6 5.6, 482.7C14.6, 500.8 32.8, 512 53, 512L459, 512C479.2, 512 497.4, 500.8 506.4, 482.7C515.4, 464.6 513.5, 443.3 500.9, 426.5zM208.2, 257.9C209.1, 256.7 210.6, 256 212.1, 256L299.9, 256C301.4, 256 302.9, 256.7 304, 258.2L353.4, 319.7L324.5, 355.3C320.9, 359.5 316.4, 360.1 314, 360.1C311.6, 360.1 307.1, 359.5 303.5, 355.3L274.9, 321.9C262.9, 307.9 245.2, 301 227, 300.3C208.6, 300.6 191.3, 309.1 179.8, 323.5C176.2, 328 171.5, 328.7 169, 328.7C166.5, 328.7 161.8, 328 159.8, 325.8L157.1, 321.5L208.2, 257.9zM459, 464L53.1, 464C51, 464 49.5, 463.1 48.6, 461.2C47.7, 459.4 47.8, 457.6 48.6, 456.5L126.8, 359.2C152, 382.3 195.4, 380.6 217.3, 353.4C220.8, 349 225.4, 348.3 227.8, 348.2C230.8, 347.8 234.8, 348.8 238.5, 353L267.1, 386.4C278.9, 400.2 296, 408 314, 408C332.1, 408 349.2, 400.2 361.3, 385.9L384.1, 357.8L463, 456C464.3, 457.7 464.4, 459.4 463.5, 461.3C462.5, 463.1 461, 464 459, 464zM160, 144C172.9, 144 184.8, 140.1 194.8, 133.6L224, 176L288, 176L317.2, 133.6C327.2, 140.1 339.1, 144 352, 144C387.3, 144 416, 115.3 416, 80C416, 44.7 387.3, 16 352, 16C336.2, 16 322, 21.9 310.8, 31.4C299.6, 12.7 279.4, 0 256, 0C232.6, 0 212.4, 12.7 201.2, 31.4C190.1, 21.9 175.8, 16 160, 16C124.7, 16 96, 44.7 96, 80C96, 115.3 124.7, 144 160, 144z" fill="#727272" fill-opacity="1" class="Black" />
  </g>
</svg>