<?xml version='1.0' encoding='UTF-8'?>
<svg viewBox="-1.9999 -1.549 31.9975 32" xmlns="http://www.w3.org/2000/svg">
  <g transform="matrix(0.999, 0, 0, 0.999, 0, 0)">
    <g transform="matrix(0.0565, 0, 0, 0.0565, 0, 0)">
      <path d="M248, 8C111.2, 8 0, 119.2 0, 256C0, 392.8 111.2, 504 248, 504C384.8, 504 496, 392.8 496, 256C496, 119.2 384.8, 8 248, 8zM394.6, 391.6C319.3, 404.3 242, 387.1 178.9, 343.8C198.7, 320.2 222.4, 299.9 249.2, 283.5C344.2, 334.9 426.6, 323.6 436.3, 322.8C427.1, 348.6 412.8, 371.9 394.6, 391.6zM447.1, 273.5C428.2, 276.1 409.2, 277 390.3, 275.8C395.9, 207.4 380, 139.5 345.3, 81.4C374.1, 97.6 457.2, 158 447.1, 273.5zM291.9, 61C340.7, 119.9 364.5, 195.6 358.6, 272C328.4, 266.7 299, 256.4 271.5, 241.5C269.7, 175.8 248.9, 113 211.6, 59.5C223.6, 57.3 252.7, 52.2 291.9, 61zM163.7, 74.9C175.4, 90 185.6, 106 194, 122.8C132, 152.1 81.1, 199.8 48.1, 259C46.8, 171.7 100.1, 104.6 163.7, 74.9zM57.1, 315.7C83.7, 243.9 137.3, 185.3 206.5, 152.2C217, 181 222.8, 211.6 223.6, 242.9C167.6, 277.3 123.6, 326.7 96, 385.7C78.7, 365.4 65.3, 341.7 57.1, 315.7zM133.3, 419.6C140.4, 402 149.2, 385.4 159.4, 369.7C193.1, 393 258.3, 428.9 350.2, 427.6C320.2, 445.5 285.4, 456 248, 456C205.3, 456 165.8, 442.4 133.3, 419.6z" fill="#727272" fill-opacity="1" class="Black" />
    </g>
  </g>
</svg>