<?xml version='1.0' encoding='UTF-8'?>
<svg viewBox="-2.0011 2.6682 32 31.995" xmlns="http://www.w3.org/2000/svg">
  <g transform="matrix(0.0729, 0, 0, 0.0729, 0, 0)">
    <path d="M338.23, 179.13C326.65, 172.8 312.04, 176.97 305.62, 188.58C299.23, 200.19 303.46, 214.78 315.07, 221.19C327.98, 228.28 336, 241.63 336, 256C336, 270.37 327.98, 283.72 315.08, 290.81C303.47, 297.22 299.24, 311.81 305.63, 323.42C312.06, 335.08 326.68, 339.22 338.24, 332.87C366.47, 317.32 384.01, 287.87 384.01, 256C384.01, 224.13 366.47, 194.67 338.23, 179.13zM231.81, 64C225.9, 64 219.89, 66.18 215.03, 71.05L126.06, 160L24, 160C10.74, 160 0, 170.74 0, 184L0, 328C0, 341.25 10.74, 352 24, 352L126.06, 352L215.03, 440.95C219.9, 445.82 225.91, 448 231.81, 448C244.14, 448 256, 438.48 256, 423.98L256, 88.02C256, 73.51 244.13, 64 231.81, 64zM208, 366.05L145.94, 304L48, 304L48, 208L145.94, 208L208, 145.95L208, 366.05z" fill="#727272" fill-opacity="1" class="Black" />
  </g>
</svg>