<?xml version='1.0' encoding='UTF-8'?>
<svg viewBox="-6.6671 2.6684 32 31.9975" xmlns="http://www.w3.org/2000/svg">
  <g transform="matrix(0.0729, 0, 0, 0.0729, 0, 0)">
    <path d="M231.81, 64C225.9, 64 219.89, 66.18 215.03, 71.05L126.06, 160L24, 160C10.74, 160 0, 170.74 0, 184L0, 328C0, 341.25 10.74, 352 24, 352L126.06, 352L215.03, 440.95C219.9, 445.82 225.91, 448 231.81, 448C244.14, 448 256, 438.48 256, 423.98L256, 88.02C256, 73.51 244.13, 64 231.81, 64zM208, 366.05L145.94, 304L48, 304L48, 208L145.94, 208L208, 145.95L208, 366.05z" fill="#727272" fill-opacity="1" class="Black" />
  </g>
</svg>