<?xml version='1.0' encoding='UTF-8'?>
<svg viewBox="-1.9999 -1.9974 32 31.9975" xmlns="http://www.w3.org/2000/svg">
  <g transform="matrix(0.0547, 0, 0, 0.0547, 0, 0)">
    <path d="M231.81, 64C225.9, 64 219.89, 66.18 215.03, 71.05L126.06, 160L24, 160C10.74, 160 0, 170.74 0, 184L0, 328C0, 341.25 10.74, 352 24, 352L126.06, 352L215.03, 440.95C219.9, 445.82 225.91, 448 231.81, 448C244.14, 448 256, 438.48 256, 423.98L256, 88.02C256, 73.51 244.13, 64 231.81, 64zM208, 366.05L160, 318.06L145.94, 304L48, 304L48, 208L145.94, 208L160, 193.94L208, 145.95L208, 366.05zM465.94, 256L507.31, 214.63C513.56, 208.38 513.56, 198.25 507.31, 192L496, 180.69C489.75, 174.44 479.62, 174.44 473.37, 180.69L432, 222.06L390.63, 180.69C384.38, 174.44 374.25, 174.44 368, 180.69L356.69, 192C350.44, 198.25 350.44, 208.38 356.69, 214.63L398.06, 256L356.69, 297.37C350.44, 303.62 350.44, 313.75 356.69, 320L368, 331.32C374.25, 337.57 384.38, 337.57 390.63, 331.32L432, 289.94L473.37, 331.31C479.62, 337.56 489.75, 337.56 496, 331.31L507.31, 320C513.56, 313.75 513.56, 303.62 507.31, 297.37L465.94, 256z" fill="#727272" fill-opacity="1" class="Black" />
  </g>
</svg>