<?xml version='1.0' encoding='UTF-8'?>
<svg viewBox="-1.9998 -4.8002 31.9975 32" xmlns="http://www.w3.org/2000/svg">
  <g transform="matrix(0.9988, 0, 0, 0.9988, 0, 0)">
    <g transform="matrix(0.0438, 0, 0, 0.0438, 0, 0)">
      <path d="M246.5, 268.4L257.8, 279.7C264, 285.9 274.2, 285.9 280.4, 279.7L320, 240.1L359.6, 279.7C365.8, 285.9 376, 285.9 382.2, 279.7L393.5, 268.4C399.7, 262.2 399.7, 252 393.5, 245.8L353.9, 206.2L393.5, 166.6C399.7, 160.4 399.7, 150.2 393.5, 144L382.2, 132.7C376, 126.5 365.8, 126.5 359.6, 132.7L320, 172.3L280.4, 132.7C274.2, 126.5 264, 126.5 257.8, 132.7L246.5, 144C240.3, 150.2 240.3, 160.4 246.5, 166.6L286.1, 206.2L246.5, 245.8C240.2, 252.1 240.2, 262.2 246.5, 268.4zM592, 272L512, 272L512, 38.2C512, 17.1 497.5, 0 479.7, 0L160.3, 0C142.5, 0 128, 17.1 128, 38.2L128, 272L48, 272C21.5, 272 0, 293.5 0, 320L0, 464C0, 490.5 21.5, 512 48, 512L592, 512C618.5, 512 640, 490.5 640, 464L640, 320C640, 293.5 618.5, 272 592, 272zM464, 48L464, 368L176, 368L176, 48L464, 48zM592, 464L48, 464L48, 320L128, 320L128, 368L105.6, 368C100.3, 368 96, 371.6 96, 376L96, 408C96, 412.4 100.3, 416 105.6, 416L534.4, 416C539.7, 416 544, 412.4 544, 408L544, 376C544, 371.6 539.7, 368 534.4, 368L512, 368L512, 320L592, 320L592, 464z" fill="#727272" fill-opacity="1" class="Black" />
    </g>
  </g>
</svg>