<?xml version='1.0' encoding='UTF-8'?>
<svg viewBox="-1.9998 -4.8002 31.9975 32" xmlns="http://www.w3.org/2000/svg">
  <g transform="matrix(0.9988, 0, 0, 0.9988, 0, 0)">
    <g transform="matrix(0.0438, 0, 0, 0.0438, 0, 0)">
      <path d="M288.1, 285.1C291.9, 289 298.2, 289 302.1, 285.2L419.9, 168.4C423.8, 164.6 423.8, 158.3 420, 154.4L396.8, 131C393, 127.1 386.7, 127.1 382.8, 130.9L295.4, 217.6L257.5, 179.4C253.7, 175.5 247.4, 175.5 243.5, 179.3L220.1, 202.5C216.2, 206.3 216.2, 212.6 220, 216.5L288.1, 285.1zM592, 272L512, 272L512, 38.2C512, 17.1 497.5, 0 479.7, 0L160.3, 0C142.5, 0 128, 17.1 128, 38.2L128, 272L48, 272C21.5, 272 0, 293.5 0, 320L0, 464C0, 490.5 21.5, 512 48, 512L592, 512C618.5, 512 640, 490.5 640, 464L640, 320C640, 293.5 618.5, 272 592, 272zM464, 48L464, 368L176, 368L176, 48L464, 48zM592, 464L48, 464L48, 320L128, 320L128, 368L105.6, 368C100.3, 368 96, 371.6 96, 376L96, 408C96, 412.4 100.3, 416 105.6, 416L534.4, 416C539.7, 416 544, 412.4 544, 408L544, 376C544, 371.6 539.7, 368 534.4, 368L512, 368L512, 320L592, 320L592, 464z" fill="#727272" fill-opacity="1" class="Black" />
    </g>
  </g>
</svg>