<?xml version='1.0' encoding='UTF-8'?>
<svg viewBox="-2 -4.7992 32 32" xmlns="http://www.w3.org/2000/svg">
  <g transform="matrix(0.9988, 0, 0, 0.9988, 0, 0)">
    <g transform="matrix(0.0438, 0, 0, 0.0438, 0, 0)">
      <path d="M576, 64L64, 64C28.65, 64 0, 92.65 0, 128L0, 384C0, 419.35 28.65, 448 64, 448L193.13, 448C230.91, 448 265.17, 425.84 280.67, 391.39L288.74, 373.46C294.66, 360.31 306.76, 352 320, 352C333.24, 352 345.34, 360.31 351.26, 373.46L359.33, 391.39C374.83, 425.84 409.1, 448 446.87, 448L576, 448C611.35, 448 640, 419.35 640, 384L640, 128C640, 92.65 611.35, 64 576, 64zM592, 384C592, 392.82 584.82, 400 576, 400L446.87, 400C428.02, 400 410.83, 388.89 403.1, 371.7L395.03, 353.77C381.43, 323.54 351.98, 304 320, 304C288.02, 304 258.57, 323.54 244.97, 353.77L236.9, 371.7C229.16, 388.89 211.98, 400 193.13, 400L64, 400C55.18, 400 48, 392.82 48, 384L48, 128C48, 119.18 55.18, 112 64, 112L576, 112C584.82, 112 592, 119.18 592, 128L592, 384zM176, 176C140.65, 176 112, 204.65 112, 240C112, 275.35 140.65, 304 176, 304C211.35, 304 240, 275.35 240, 240C240, 204.65 211.35, 176 176, 176zM464, 176C428.65, 176 400, 204.65 400, 240C400, 275.35 428.65, 304 464, 304C499.35, 304 528, 275.35 528, 240C528, 204.65 499.35, 176 464, 176z" fill="#727272" fill-opacity="1" class="Black" />
    </g>
  </g>
</svg>