<?xml version='1.0' encoding='UTF-8'?>
<svg viewBox="-1.9999 -1.9974 32 31.9975" xmlns="http://www.w3.org/2000/svg">
  <g transform="matrix(0.0547, 0, 0, 0.0547, 0, 0)">
    <path d="M432, 192A16 16 0 0 0 448, 176L448, 141.89L502, 82A38.48 38.48 0 0 0 500.69, 28.91L483, 11.28A38.47 38.47 0 0 0 430, 9.92L157.26, 256L112, 256A16 16 0 0 0 96, 272L96, 311.28L17.45, 382.12L17.39, 382.17A53 53 0 0 0 15.52, 458.93L53.05, 496.45A52.94 52.94 0 0 0 129.83, 494.53L402.77, 192zM94.2, 462.36C93.38, 463.27 89.97, 465.6 86.98, 462.53L49.45, 425C46.45, 422 48.72, 418.56 49.61, 417.73L455.48, 51.61L460.39, 56.49z" fill="#727272" fill-opacity="1" class="Black" />
  </g>
</svg>