<?xml version='1.0' encoding='UTF-8'?>
<svg viewBox="-2 -4.798 32 32" xmlns="http://www.w3.org/2000/svg">
  <g transform="matrix(0.9988, 0, 0, 0.9988, 0, 0)">
    <g transform="matrix(0.0438, 0, 0, 0.0438, 0, 0)">
      <path d="M528, 352L352, 352L352, 240C352, 231.2 344.8, 224 336, 224L112, 224C103.2, 224 96, 231.2 96, 240L96, 496C96, 504.8 103.2, 512 112, 512L528, 512C536.8, 512 544, 504.8 544, 496L544, 368C544, 359.2 536.8, 352 528, 352zM304, 464L144, 464L144, 400L304, 400L304, 464zM304, 336L144, 336L144, 272L304, 272L304, 336zM496, 464L352, 464L352, 400L496, 400L496, 464zM597.9, 110.1L346.3, 5.3C329.3, -1.7 310.6, -1.8 293.7, 5.3L42.1, 110.1C16.5, 120.7 0, 145.5 0, 173.2L0, 496C0, 504.8 7.2, 512 16, 512L32, 512C40.8, 512 48, 504.8 48, 496L48, 173.2C48, 164.9 52.9, 157.5 60.5, 154.4L312.2, 49.6C317.3, 47.5 322.8, 47.5 327.9, 49.6L579.5, 154.4C587.1, 157.6 592, 165 592, 173.2L592, 496C592, 504.8 599.2, 512 608, 512L624, 512C632.8, 512 640, 504.8 640, 496L640, 173.2C640, 145.5 623.5, 120.7 597.9, 110.1z" fill="#727272" fill-opacity="1" class="Black" />
    </g>
  </g>
</svg>