<?xml version='1.0' encoding='UTF-8'?>
<svg viewBox="-5.5003 -2 32 32" xmlns="http://www.w3.org/2000/svg">
  <g transform="matrix(0.0547, 0, 0, 0.0547, 0, 0)">
    <path d="M320, 112.9L320, 24C320, 10.8 309.2, 0 296, 0L88, 0C74.8, 0 64, 10.8 64, 24L64, 112.9C24.7, 148 0, 199.1 0, 256C0, 312.9 24.7, 364 64, 399.1L64, 488C64, 501.2 74.8, 512 88, 512L296, 512C309.2, 512 320, 501.2 320, 488L320, 399.1C359.3, 364 384, 312.9 384, 256C384, 199.1 359.3, 148 320, 112.9zM104, 40L280, 40L280, 85.3C253.6, 71.7 223.7, 64 192, 64C160.3, 64 130.4, 71.7 104, 85.3L104, 40zM280, 472L104, 472L104, 426.7C130.4, 440.3 160.3, 448 192, 448C223.7, 448 253.6, 440.3 280, 426.7L280, 472zM192, 400C113.1, 400 48, 336.2 48, 256C48, 177.4 111.5, 112 192, 112C270.9, 112 336, 175.8 336, 256C336, 334.6 272.5, 400 192, 400zM230.3, 328.4L169.2, 286.8C165.9, 284.6 164, 280.9 164, 276.9L164, 164C164, 157.4 169.4, 152 176, 152L208, 152C214.6, 152 220, 157.4 220, 164L220, 253.6L261.9, 282.1C267.4, 285.8 268.8, 293.3 265.1, 298.8L247.1, 325.2C243.3, 330.7 235.8, 332.1 230.3, 328.4z" fill="#727272" fill-opacity="1" class="Black" />
  </g>
</svg>