<?xml version='1.0' encoding='UTF-8'?>
<svg viewBox="-5.499 -1.9999 31.9975 32" xmlns="http://www.w3.org/2000/svg">
  <g transform="matrix(0.0547, 0, 0, 0.0547, 0, 0)">
    <path d="M320, 81.61L320, 32C320, 14.33 305.67, 0 288, 0L96, 0C78.33, 0 64, 14.33 64, 32L64, 81.61C27.49, 89.03 0, 121.3 0, 160L0, 352C0, 390.7 27.49, 422.97 64, 430.39L64, 480C64, 497.67 78.33, 512 96, 512L288, 512C305.67, 512 320, 497.67 320, 480L320, 430.39C356.52, 422.98 384, 390.7 384, 352L384, 160C384, 121.3 356.52, 89.03 320, 81.61zM112, 48L272, 48L272, 80L112, 80L112, 48zM272, 464L112, 464L112, 432L272, 432L272, 464zM336, 352C336, 369.64 321.64, 384 304, 384L80, 384C62.36, 384 48, 369.64 48, 352L48, 160C48, 142.36 62.36, 128 80, 128L304, 128C321.64, 128 336, 142.36 336, 160L336, 352zM264.51, 201.9C242.46, 184.71 213.65, 192.36 198.92, 206.26L191.99, 212.8L185.06, 206.26C170.7, 192.71 141.77, 184.53 119.47, 201.9C97.38, 219.11 96.22, 250.03 115.99, 268.69L184.03, 332.89C188.42, 337.03 195.55, 337.04 199.94, 332.89L267.98, 268.69C287.76, 250.03 286.6, 219.11 264.51, 201.9z" fill="#727272" fill-opacity="1" class="Black" />
  </g>
</svg>