<?xml version='1.0' encoding='UTF-8'?>
<svg viewBox="-5.5002 -1.9999 32 32" xmlns="http://www.w3.org/2000/svg">
  <g transform="matrix(0.0547, 0, 0, 0.0547, 0, 0)">
    <path d="M128, 232L96, 232A8 8 0 0 0 88, 240L88, 272A8 8 0 0 0 96, 280L128, 280A8 8 0 0 0 136, 272L136, 240A8 8 0 0 0 128, 232zM208, 304L176, 304A8 8 0 0 0 168, 312L168, 344A8 8 0 0 0 176, 352L208, 352A8 8 0 0 0 216, 344L216, 312A8 8 0 0 0 208, 304zM128, 304L96, 304A8 8 0 0 0 88, 312L88, 344A8 8 0 0 0 96, 352L128, 352A8 8 0 0 0 136, 344L136, 312A8 8 0 0 0 128, 304zM288, 304L256, 304A8 8 0 0 0 248, 312L248, 344A8 8 0 0 0 256, 352L288, 352A8 8 0 0 0 296, 344L296, 312A8 8 0 0 0 288, 304zM208, 232L176, 232A8 8 0 0 0 168, 240L168, 272A8 8 0 0 0 176, 280L208, 280A8 8 0 0 0 216, 272L216, 240A8 8 0 0 0 208, 232zM288, 160L96, 160A8 8 0 0 0 88, 168L88, 200A8 8 0 0 0 96, 208L288, 208A8 8 0 0 0 296, 200L296, 168A8 8 0 0 0 288, 160zM320, 81.61L320, 32A32 32 0 0 0 288, 0L96, 0A32 32 0 0 0 64, 32L64, 81.61A80 80 0 0 0 0, 160L0, 352A80 80 0 0 0 64, 430.39L64, 480A32 32 0 0 0 96, 512L288, 512A32 32 0 0 0 320, 480L320, 430.39A80 80 0 0 0 384, 352L384, 160A80 80 0 0 0 320, 81.61zM112, 48L272, 48L272, 80L112, 80zM272, 464L112, 464L112, 432L272, 432zM336, 352A32.06 32.06 0 0 1 304, 384L80, 384A32.06 32.06 0 0 1 48, 352L48, 160A32.06 32.06 0 0 1 80, 128L304, 128A32.06 32.06 0 0 1 336, 160zM288, 232L256, 232A8 8 0 0 0 248, 240L248, 272A8 8 0 0 0 256, 280L288, 280A8 8 0 0 0 296, 272L296, 240A8 8 0 0 0 288, 232z" fill="#727272" fill-opacity="1" class="Black" />
  </g>
</svg>