<?xml version='1.0' encoding='UTF-8'?>
<svg viewBox="-2 -3.5531 32 32" xmlns="http://www.w3.org/2000/svg">
  <g transform="matrix(0.0486, 0, 0, 0.0486, 0, 0)">
    <path d="M561.5, 399.9C536.4, 397.3 512.3, 388 495.1, 374C486.4, 366.9 473.5, 367 464.8, 374.1C444.3, 391 414.8, 400.7 384, 400.7C353.9, 400.7 323.7, 390.7 303.1, 374C294.4, 366.9 281.5, 367 272.8, 374.1C252.3, 391 222.8, 400.7 192, 400.7C161.9, 400.7 131.7, 390.7 111.1, 374C102.4, 366.9 89.5, 367 80.8, 374.1C63.6, 388.3 40.1, 397.4 14.7, 399.9C6.5, 400.8 0, 407.2 0, 415.4L0, 431.9C0, 441 7.6, 448.7 16.7, 447.9C45.6, 445.4 73.2, 436.4 96, 422.1C150.9, 456.3 233.9, 456 288, 422.1C342.9, 456.3 425.9, 456 480, 422.1C502.9, 436.4 530.5, 445.4 559.2, 447.9C568.3, 448.7 575.9, 441 575.9, 431.9L575.9, 415.2C576, 407.1 569.6, 400.8 561.5, 399.9zM561.5, 95.2C536.4, 92.6 512.3, 83.3 495.1, 69.3C486.4, 62.2 473.5, 62.3 464.8, 69.4C444.3, 86.3 414.8, 96 384, 96C353.9, 96 323.7, 86 303.1, 69.3C294.4, 62.2 281.5, 62.3 272.8, 69.4C252.3, 86.3 222.8, 96 192, 96C161.9, 96 131.7, 86 111.1, 69.3C102.4, 62.2 89.5, 62.3 80.8, 69.4C63.6, 83.5 40.1, 92.6 14.7, 95.2C6.5, 96 0, 102.4 0, 110.7L0, 127.2C0, 136.3 7.6, 144 16.7, 143.2C45.6, 140.7 73.2, 131.7 96, 117.4C150.9, 151.6 233.9, 151.3 288, 117.4C342.9, 151.6 425.9, 151.3 480, 117.4C502.9, 131.7 530.5, 140.7 559.2, 143.2C568.3, 144 575.9, 136.3 575.9, 127.2L575.9, 110.5C576, 102.3 569.6, 96 561.5, 95.2zM561.5, 247.2C536.4, 244.6 512.3, 235.3 495.1, 221.3C486.4, 214.2 473.5, 214.3 464.8, 221.4C444.3, 238.3 414.8, 248 384, 248C353.9, 248 323.7, 238 303.1, 221.3C294.4, 214.2 281.5, 214.3 272.8, 221.4C252.3, 238.3 222.8, 248 192, 248C161.9, 248 131.7, 238 111.1, 221.3C102.4, 214.2 89.5, 214.3 80.8, 221.4C63.6, 235.6 40.1, 244.7 14.7, 247.2C6.5, 248 0, 254.4 0, 262.7L0, 279.2C0, 288.3 7.6, 296 16.7, 295.2C45.6, 292.7 73.2, 283.7 96, 269.4C150.9, 303.6 233.9, 303.3 288, 269.4C342.9, 303.6 425.9, 303.3 480, 269.4C502.9, 283.7 530.5, 292.7 559.2, 295.2C568.3, 296 575.9, 288.3 575.9, 279.2L575.9, 262.5C576, 254.3 569.6, 248 561.5, 247.2z" fill="#727272" fill-opacity="1" class="Black" />
  </g>
</svg>