<?xml version='1.0' encoding='UTF-8'?>
<svg viewBox="-1.6401 -4.5131 31.9975 32" xmlns="http://www.w3.org/2000/svg">
  <g transform="matrix(0.9993, 0, 0, 0.9993, 0, 0)">
    <g transform="matrix(0.0449, 0, 0, 0.0449, 0, 0)">
      <path d="M328, 0L312, 0A16 16 0 0 0 296, 16L296, 496A16 16 0 0 0 312, 512L328, 512A16 16 0 0 0 344, 496L344, 16A16 16 0 0 0 328, 0zM232, 96L216, 96A16 16 0 0 0 200, 112L200, 400A16 16 0 0 0 216, 416L232, 416A16 16 0 0 0 248, 400L248, 112A16 16 0 0 0 232, 96zM424, 128L408, 128A16 16 0 0 0 392, 144L392, 368A16 16 0 0 0 408, 384L424, 384A16 16 0 0 0 440, 368L440, 144A16 16 0 0 0 424, 128zM520, 64L504, 64A16 16 0 0 0 488, 80L488, 432A16 16 0 0 0 504, 448L520, 448A16 16 0 0 0 536, 432L536, 80A16 16 0 0 0 520, 64zM136, 192L120, 192A16 16 0 0 0 104, 208L104, 304A16 16 0 0 0 120, 320L136, 320A16 16 0 0 0 152, 304L152, 208A16 16 0 0 0 136, 192zM40, 224L24, 224A16 16 0 0 0 8, 240L8, 272A16 16 0 0 0 24, 288L40, 288A16 16 0 0 0 56, 272L56, 240A16 16 0 0 0 40, 224zM616, 224L600, 224A16 16 0 0 0 584, 240L584, 272A16 16 0 0 0 600, 288L616, 288A16 16 0 0 0 632, 272L632, 240A16 16 0 0 0 616, 224z" fill="#727272" fill-opacity="1" class="Black" />
    </g>
  </g>
</svg>