<?xml version='1.0' encoding='UTF-8'?>
<svg viewBox="-2 -4.7992 32 32" xmlns="http://www.w3.org/2000/svg">
  <g transform="matrix(0.9988, 0, 0, 0.9988, 0, 0)">
    <g transform="matrix(0.0438, 0, 0, 0.0438, 0, 0)">
      <path d="M472, 480L328, 480A32 32 0 0 1 296, 448L296, 80L184, 80L184, 248A32 32 0 0 1 152, 280L8, 280A8 8 0 0 1 0, 272L0, 240A8 8 0 0 1 8, 232L136, 232L136, 64A32 32 0 0 1 168, 32L312, 32A32 32 0 0 1 344, 64L344, 432L456, 432L456, 264A32 32 0 0 1 488, 232L632, 232A8 8 0 0 1 640, 240L640, 272A8 8 0 0 1 632, 280L504, 280L504, 448A32 32 0 0 1 472, 480z" fill="#727272" fill-opacity="1" class="Black" />
    </g>
  </g>
</svg>