<?xml version='1.0' encoding='UTF-8'?>
<svg viewBox="-1.9973 -4.7993 31.9975 32" xmlns="http://www.w3.org/2000/svg">
  <g transform="matrix(1.0012, 0, 0, 1.0012, 0, 0)">
    <g transform="matrix(0.0437, 0, 0, 0.0437, 0, 0)">
      <path d="M634, 471L36, 3.51A16 16 0 0 0 13.51, 6L3.51, 18.49A16 16 0 0 0 6, 41L604, 508.49A16 16 0 0 0 626.49, 506L636.49, 493.51A16 16 0 0 0 634, 471zM455.58, 270.61C460.66, 255.91 464, 240.4 464, 224C464, 144.59 399.41, 80 320, 80A142.89 142.89 0 0 0 241.74, 103.43L282.74, 135.52A94.54 94.54 0 0 1 414.49, 238.52zM320, 48A176 176 0 0 1 482.48, 291.64L521.11, 321.84A222.06 222.06 0 0 0 544, 224C544, 100.29 443.71, 0 320, 0A223 223 0 0 0 176.29, 52.26L215.29, 82.76A175 175 0 0 1 320, 48zM320, 368A142.8 142.8 0 0 0 343.35, 365.64L177.18, 235.73C183.27, 309.58 244.61, 368 320, 368zM320, 400A176 176 0 0 1 144, 224C144, 219.38 144.34, 214.85 144.69, 210.33L101.2, 176.33A224.17 224.17 0 0 0 96, 224C96, 300.19 134.11, 367.39 192.23, 407.85L143, 438.6A32 32 0 0 0 128, 465.74L128, 480A32 32 0 0 0 160, 512L480, 512C492.39, 512 502.81, 504.75 508.14, 494.46L375.63, 390.88A175.61 175.61 0 0 1 320, 400z" fill="#727272" fill-opacity="1" class="Black" />
    </g>
  </g>
</svg>