<?xml version='1.0' encoding='UTF-8'?>
<svg viewBox="-2 -4.7992 32 32" xmlns="http://www.w3.org/2000/svg">
  <g transform="matrix(0.9988, 0, 0, 0.9988, 0, 0)">
    <g transform="matrix(0.0438, 0, 0, 0.0438, 0, 0)">
      <path d="M512, 128C370.86, 128 304.85, 211.47 203.31, 310.31C200.05, 313.57 196.04, 315.03 192.11, 315.03C183.88, 315.03 175.99, 308.64 175.99, 299L175.99, 236.13L207.37, 219.64C217.76, 213.7 224, 203.7 224, 193L224, 80.03C224, 70.62 214.99, 64 205.28, 64L205.27, 64C201.8, 64 198.25, 64.85 194.98, 66.71L112, 114.13L29.02, 66.71A20.781 20.781 0 0 0 18.72, 64C9.01, 64 0, 70.61 0, 80.03L0, 193C0, 203.7 6.24, 213.69 16.62, 219.62L48, 236.12L48, 316.12C48, 388.96 107.04, 448 179.88, 448L544, 448C597.02, 448 640, 405.02 640, 352L640, 256C640, 185.31 582.69, 128 512, 128zM592, 352C592, 378.47 570.47, 400 544, 400L179.88, 400C133.63, 400 96, 362.37 96, 316.12L96, 207.12L70.33, 193.63L48, 181.89L48, 132.84L88.19, 155.8L112, 169.42L135.82, 155.81L176, 132.84L176, 181.89L153.67, 193.63L128, 207.12L128, 298.99C128, 334.3 156.76, 363.02 192.12, 363.02C209.12, 363.02 225.15, 356.35 236.8, 344.7C248.33, 333.48 259.4, 322.46 270.18, 311.73C352.28, 230 406.52, 176 512, 176C556.11, 176 592, 211.89 592, 256L592, 352zM432, 280C418.75, 280 408, 290.74 408, 304C408, 317.25 418.75, 328 432, 328C445.25, 328 456, 317.25 456, 304C456, 290.74 445.25, 280 432, 280z" fill="#727272" fill-opacity="1" class="Black" />
    </g>
  </g>
</svg>