<?xml version='1.0' encoding='UTF-8'?>
<svg viewBox="-1.9975 -4.7983 32 32" xmlns="http://www.w3.org/2000/svg">
  <g transform="matrix(0.9989, 0, 0, 0.9989, 0, 0)">
    <g transform="matrix(0.0438, 0, 0, 0.0438, 0, 0)">
      <path d="M320, 368C337.64, 368 352, 382.36 352, 400C352, 417.64 337.64, 432 320, 432C302.36, 432 288, 417.64 288, 400C288, 382.36 302.35, 368 320, 368M320, 320C275.82, 320 240, 355.82 240, 400C240, 444.18 275.82, 480 320, 480C364.18, 480 400, 444.18 400, 400C400, 355.82 364.18, 320 320, 320zM524.69, 288.17C529.31, 283.3 529.07, 275.53 524.1, 271.02C408.36, 165.7 231.69, 165.64 115.88, 271.02C110.92, 275.53 110.68, 283.3 115.29, 288.17L131.76, 305.54C136.22, 310.25 143.57, 310.49 148.38, 306.14C245.82, 218.01 394.06, 217.93 491.6, 306.14C496.41, 310.49 503.76, 310.24 508.22, 305.54L524.69, 288.17zM636.11, 154.19C457.86, -8.86 181.84, -8.59 3.89, 154.19C-1.05, 158.71 -1.33, 166.33 3.32, 171.14L19.92, 188.32C24.44, 193 31.93, 193.25 36.73, 188.86C196.32, 43.07 443.55, 42.95 603.27, 188.86C608.08, 193.25 615.56, 192.99 620.08, 188.32L636.68, 171.14C641.33, 166.33 641.05, 158.7 636.11, 154.19z" fill="#727272" fill-opacity="1" class="Black" />
    </g>
  </g>
</svg>