<?xml version='1.0' encoding='UTF-8'?>
<svg viewBox="5.5382 6.6158 32 32" xmlns="http://www.w3.org/2000/svg">
  <g transform="matrix(0.0673, 0, 0, 0.0673, 0, 0)">
    <path d="M320, 368C337.64, 368 352, 382.36 352, 400C352, 417.64 337.64, 432 320, 432C302.36, 432 288, 417.64 288, 400C288, 382.36 302.35, 368 320, 368M320, 320C275.82, 320 240, 355.82 240, 400C240, 444.18 275.82, 480 320, 480C364.18, 480 400, 444.18 400, 400C400, 355.82 364.18, 320 320, 320zM524.69, 288.17C529.31, 283.3 529.07, 275.53 524.1, 271.02C408.36, 165.7 231.69, 165.64 115.88, 271.02C110.92, 275.53 110.68, 283.3 115.29, 288.17L131.76, 305.54C136.22, 310.25 143.57, 310.49 148.38, 306.14C245.82, 218.01 394.06, 217.93 491.6, 306.14C496.41, 310.49 503.76, 310.24 508.22, 305.54L524.69, 288.17z" fill="#727272" fill-opacity="1" class="Black" />
  </g>
</svg>