<?xml version='1.0' encoding='UTF-8'?>
<svg viewBox="-1.9975 -4.7995 32 32" xmlns="http://www.w3.org/2000/svg">
  <g transform="matrix(1.0012, 0, 0, 1.0012, 0, 0)">
    <g transform="matrix(0.0437, 0, 0, 0.0437, 0, 0)">
      <path d="M36, 3.51C29.1, -2.01 19.03, -0.9 13.51, 6L3.51, 18.49C-2.02, 25.39 -0.9, 35.46 6, 40.98L604, 508.49C610.9, 514.01 620.96, 512.89 626.49, 506L636.49, 493.51C642.02, 486.61 640.9, 476.54 634, 471.02L36, 3.51zM503.18, 307.82C504.95, 307.22 506.85, 306.99 508.23, 305.53L524.69, 288.16C529.31, 283.29 529.07, 275.52 524.11, 271.01C476.44, 227.63 418.4, 202.4 358.56, 194.75L503.18, 307.82zM603.27, 188.86C608.07, 193.25 615.56, 192.99 620.08, 188.32L636.68, 171.13C641.33, 166.32 641.05, 158.7 636.11, 154.18C509.51, 38.38 333.7, 5.4 178.62, 54.08L225.33, 90.6C356.03, 60.67 498.45, 93.11 603.27, 188.86zM3.89, 154.18C-1.05, 158.7 -1.33, 166.32 3.32, 171.13L19.92, 188.32C24.44, 193 31.93, 193.25 36.73, 188.86C49.45, 177.24 62.89, 166.89 76.63, 157.12L37.34, 126.4C25.87, 135.09 14.68, 144.31 3.89, 154.18zM115.89, 271.01C110.93, 275.53 110.69, 283.29 115.31, 288.16L131.77, 305.53C136.23, 310.24 143.58, 310.48 148.39, 306.13C168.09, 288.32 189.92, 274.29 212.93, 263.67L171.42, 231.22C151.87, 242.25 133.14, 255.31 115.89, 271.01zM240, 400C240, 444.18 275.82, 480 320, 480C361.03, 480 394.45, 449 399.07, 409.21L291.83, 325.37C261.6, 336.79 240, 365.77 240, 400zM320, 368C337.64, 368 352, 382.36 352, 400C352, 417.64 337.64, 432 320, 432C302.36, 432 288, 417.64 288, 400C288, 382.36 302.36, 368 320, 368z" fill="#727272" fill-opacity="1" class="Black" />
    </g>
  </g>
</svg>