<?xml version='1.0' encoding='UTF-8'?>
<svg viewBox="-5.0628 -1.9974 32 31.9975" xmlns="http://www.w3.org/2000/svg">
  <g transform="matrix(0.0547, 0, 0, 0.0547, 0, 0)">
    <path d="M350.1, 480L325.83, 480L322.83, 434L270.8, 372.7L277.8, 480L234.24, 480L243.3, 340.31L216.4, 308.63A24 24 0 0 0 200.4, 299.85L197.88, 299.58L186.17, 480L161.9, 480A36.94 36.94 0 0 0 128.9, 500.42A8 8 0 0 0 136, 512L376, 512A8 8 0 0 0 383.15, 500.42A36.93 36.93 0 0 0 350.1, 480zM398.69, 425.79L310.34, 243.47A55.73 55.73 0 0 1 309.61, 200.68L382.89, 21.61A15.8 15.8 0 0 0 355.39, 6.54L241.27, 163.21A55.74 55.74 0 0 1 204.8, 185.61L13.32, 215.94A15.81 15.81 0 0 0 0, 231.89L0, 232.12A15.8 15.8 0 0 0 14.1, 247.47L203.83, 268A55.78 55.78 0 0 1 241.37, 288.58L371.68, 442.08A15.81 15.81 0 0 0 392.21, 445.71L392.4, 445.59A15.79 15.79 0 0 0 398.69, 425.79zM256, 248A24 24 0 1 1 280, 224A24 24 0 0 1 256, 248z" fill="#727272" fill-opacity="1" class="Black" />
  </g>
</svg>