<?xml version='1.0' encoding='UTF-8'?>
<svg viewBox="-1.9998 -4.7989 31.9975 32" xmlns="http://www.w3.org/2000/svg">
  <g transform="matrix(0.9988, 0, 0, 0.9988, 0, 0)">
    <g transform="matrix(0.0438, 0, 0, 0.0438, 0, 0)">
      <path d="M544, 320L420.1, 320C410.9, 337.4 399.4, 353.4 386.4, 368L544, 368C575.4, 368 599.9, 398.3 589.6, 431.3C585.2, 445.6 573.5, 457.2 559.2, 461.7C530.7, 470.6 504.1, 453.4 497.5, 428.2C495.7, 421.3 490, 416.1 482.8, 416.1L464.4, 416.1C455.2, 416.1 447.8, 424.3 449.5, 433.3C458.8, 484.5 508.7, 521.6 564.6, 509.9C600.9, 502.3 630.2, 473 637.8, 436.7C650.8, 374.6 603.8, 320 544, 320zM637.8, 171.3C630.2, 135 600.9, 105.7 564.6, 98.1C508.7, 86.4 458.8, 123.5 449.5, 174.7C447.9, 183.7 455.3, 191.9 464.4, 191.9L482.8, 191.9C490, 191.9 495.7, 186.7 497.5, 179.8C504.1, 154.6 530.7, 137.4 559.2, 146.3C573.5, 150.8 585.1, 162.4 589.6, 176.7C599.8, 209.6 575.4, 240 544, 240L445.6, 240C443.4, 256.6 439.4, 272.6 434, 288L544, 288C603.8, 288 650.8, 233.4 637.8, 171.3zM208, 256C190.3, 256 176, 270.3 176, 288C176, 305.7 190.3, 320 208, 320C225.7, 320 240, 305.7 240, 288C240, 270.3 225.7, 256 208, 256zM236.7, 96L179.3, 96C169.3, 96 161.7, 105.1 163.6, 114.9L181.6, 210.9C183, 218.5 189.6, 224 197.3, 224L218.7, 224C226.4, 224 233, 218.5 234.4, 210.9L252.4, 114.9C254.3, 105.1 246.7, 96 236.7, 96zM208, 0C93.1, 0 0, 93.1 0, 208C0, 322.9 93.1, 416 208, 416C322.9, 416 416, 322.9 416, 208C416, 93.1 322.9, 0 208, 0zM208, 368C119.8, 368 48, 296.2 48, 208C48, 119.8 119.8, 48 208, 48C296.2, 48 368, 119.8 368, 208C368, 296.2 296.2, 368 208, 368z" fill="#727272" fill-opacity="1" class="Black" />
    </g>
  </g>
</svg>