<?xml version='1.0' encoding='UTF-8'?>
<svg viewBox="-2 -1.9988 32 32" xmlns="http://www.w3.org/2000/svg">
  <g transform="matrix(0.0547, 0, 0, 0.0547, 0, 0)">
    <path d="M464, 32L48, 32C21.5, 32 0, 53.5 0, 80L0, 432C0, 458.5 21.5, 480 48, 480L464, 480C490.5, 480 512, 458.5 512, 432L512, 80C512, 53.5 490.5, 32 464, 32zM384, 112C384, 94.3 398.3, 80 416, 80C433.7, 80 448, 94.3 448, 112C448, 129.7 433.7, 144 416, 144C398.3, 144 384, 129.7 384, 112zM288, 112C288, 94.3 302.3, 80 320, 80C337.7, 80 352, 94.3 352, 112C352, 129.7 337.7, 144 320, 144C302.3, 144 288, 129.7 288, 112zM192, 112C192, 94.3 206.3, 80 224, 80C241.7, 80 256, 94.3 256, 112C256, 129.7 241.7, 144 224, 144C206.3, 144 192, 129.7 192, 112zM464, 426C464, 429.3 461.3, 432 458, 432L54, 432C50.7, 432 48, 429.3 48, 426L48, 192L464, 192L464, 426z" fill="#727272" fill-opacity="1" class="Black" />
  </g>
</svg>