<?xml version='1.0' encoding='UTF-8'?>
<svg viewBox="-2 -2 32 32" xmlns="http://www.w3.org/2000/svg">
  <g transform="matrix(0.0547, 0, 0, 0.0547, 0, 0)">
    <path d="M464, 0L144, 0C117.5, 0 96, 21.5 96, 48L96, 96L48, 96C21.5, 96 0, 117.5 0, 144L0, 464C0, 490.5 21.5, 512 48, 512L368, 512C394.5, 512 416, 490.5 416, 464L416, 416L464, 416C490.5, 416 512, 394.5 512, 368L512, 48C512, 21.5 490.5, 0 464, 0zM368, 464L48, 464L48, 256L368, 256L368, 464zM464, 368L416, 368L416, 144C416, 117.5 394.5, 96 368, 96L144, 96L144, 48L464, 48L464, 368z" fill="#727272" fill-opacity="1" class="Black" />
  </g>
</svg>