<?xml version='1.0' encoding='UTF-8'?>
<svg viewBox="-2 -1.9988 32 32" xmlns="http://www.w3.org/2000/svg">
  <g transform="matrix(0.0547, 0, 0, 0.0547, 0, 0)">
    <path d="M464, 32L48, 32C21.5, 32 0, 53.5 0, 80L0, 432C0, 458.5 21.5, 480 48, 480L464, 480C490.5, 480 512, 458.5 512, 432L512, 80C512, 53.5 490.5, 32 464, 32zM256, 112C256, 94.3 270.3, 80 288, 80C305.7, 80 320, 94.3 320, 112C320, 129.7 305.7, 144 288, 144C270.3, 144 256, 129.7 256, 112zM160, 112C160, 94.3 174.3, 80 192, 80C209.7, 80 224, 94.3 224, 112C224, 129.7 209.7, 144 192, 144C174.3, 144 160, 129.7 160, 112zM64, 112C64, 94.3 78.3, 80 96, 80C113.7, 80 128, 94.3 128, 112C128, 129.7 113.7, 144 96, 144C78.3, 144 64, 129.7 64, 112zM464, 426C464, 429.3 461.3, 432 458, 432L54, 432C50.7, 432 48, 429.3 48, 426L48, 192L464, 192L464, 426z" fill="#727272" fill-opacity="1" class="Black" />
  </g>
</svg>