<?xml version='1.0' encoding='UTF-8'?>
<svg viewBox="-2.0011 -1.9998 32 31.9975" xmlns="http://www.w3.org/2000/svg">
  <g transform="matrix(0.0547, 0, 0, 0.0547, 0, 0)">
    <path d="M500.75, 72.77L439.21, 11.21C424.18, -3.76 399.74, -3.73 384.77, 11.24L341.61, 54.39C333.05, 62.99 329.39, 74.67 330.64, 85.9L305.48, 111.06C256.63, 96.76 204.04, 109.93 167.57, 146.44L24.03, 290.01C8.53, 305.48 0, 326.08 0, 347.99C0, 369.92 8.53, 390.51 24.03, 405.98L106.04, 488.04C122.04, 504.01 143.01, 512 164.01, 512C185.01, 512 206.01, 504.01 222.01, 488.03L365.58, 344.46C402.08, 307.92 415.18, 255.26 400.96, 206.53L426.09, 181.39C437.43, 182.59 449.03, 178.98 457.62, 170.37L500.75, 127.22C515.75, 112.21 515.75, 87.79 500.75, 72.77zM309.76, 332.4L236.38, 405.78L106.27, 275.65L179.64, 202.26L309.76, 332.4zM139.98, 454.08L57.97, 372.03C51.53, 365.61 48, 357.07 48, 347.98C48, 338.9 51.53, 330.37 57.97, 323.94L83.64, 298.26L213.76, 428.4L188.08, 454.08C174.89, 467.34 153.29, 467.37 139.98, 454.08zM430.4, 129.7L420.15, 119.45L344.86, 194.73L351.17, 209.62C365.72, 244 358.28, 283.14 332.33, 309.71L202.34, 179.7C247.33, 135.74 300.77, 160.15 302.42, 160.85L317.3, 167.15L392.52, 91.89L382.3, 81.62L411.99, 51.9L460.09, 100L430.4, 129.7z" fill="#727272" fill-opacity="1" class="Black" />
  </g>
</svg>