<?xml version='1.0' encoding='UTF-8'?>
<svg viewBox="-8.1233 -2 32 32" xmlns="http://www.w3.org/2000/svg">
  <g transform="matrix(0.0547, 0, 0, 0.0547, 0, 0)">
    <path d="M216, 464L168, 464L168, 348.54C240.6, 336.02 294.31, 269.79 287.4, 192.66L271.45, 14.55C270.71, 6.31 263.9, 0 255.74, 0L32.26, 0C24.11, 0 17.29, 6.31 16.56, 14.55L0.6, 192.66C-6.31, 269.79 47.4, 336.03 120, 348.54L120, 464L72, 464C49.91, 464 32, 481.91 32, 504C32, 508.42 35.58, 512 40, 512L248, 512C252.42, 512 256, 508.42 256, 504C256, 481.91 238.09, 464 216, 464zM226.25, 48L233.42, 128L54.58, 128L61.75, 48L226.25, 48zM48.41, 196.94L50.28, 176L237.71, 176L239.59, 196.94C244.29, 249.39 208.17, 295.17 157.01, 302.27L130.98, 302.27C79.83, 295.17 43.71, 249.38 48.41, 196.94z" fill="#727272" fill-opacity="1" class="Black" />
  </g>
</svg>