<?xml version='1.0' encoding='UTF-8'?>
<svg viewBox="-1.9998 -3.5463 31.9975 32" xmlns="http://www.w3.org/2000/svg">
  <g transform="matrix(0.0486, 0, 0, 0.0486, 0, 0)">
    <path d="M564, 168C570.6, 168 576, 162.6 576, 156L576, 132C576, 125.4 570.6, 120 564, 120L517.9, 120L535.2, 47.2C537, 39.7 531.3, 32.4 523.5, 32.4L492.7, 32.4C487.1, 32.4 482.2, 36.3 481, 41.7L463.2, 120L333.2, 120L314.3, 41.6C313, 36.2 308.2, 32.4 302.6, 32.4L271, 32.4C265.5, 32.4 260.6, 36.2 259.3, 41.6L240.5, 120L112.6, 120L95.5, 41.8C94.3, 36.3 89.4, 32.4 83.8, 32.4L55, 32.4C47.3, 32.4 41.6, 39.6 43.3, 47.1L60.1, 120L12, 120C5.4, 120 0, 125.4 0, 132L0, 156C0, 162.6 5.4, 168 12, 168L71.2, 168L82.3, 216L12, 216C5.4, 216 0, 221.4 0, 228L0, 252C0, 258.6 5.4, 264 12, 264L93.4, 264L141.1, 470.7C142.4, 476.1 147.2, 480 152.8, 480L194.8, 480C200.3, 480 205.2, 476.2 206.5, 470.8L256.3, 264L317.4, 264L367.3, 470.8C368.6, 476.2 373.4, 480 379, 480L423, 480C428.6, 480 433.4, 476.2 434.7, 470.8L483.7, 264L564, 264C570.6, 264 576, 258.6 576, 252L576, 228C576, 221.4 570.6, 216 564, 216L495.1, 216L506.5, 168zM182.4, 360.8C176.7, 385.5 173.8, 408.3 173.8, 408.3L172.7, 408.3C172.7, 408.3 170.4, 384.8 165.2, 360.8L144.1, 264L205.8, 264zM217.3, 216L133.5, 216L123, 168L228.8, 168zM267.9, 216L274.3, 189.6C276, 182.6 277.6, 175.2 279, 168L294.8, 168C296.2, 175.2 297.8, 182.6 299.5, 189.6L305.9, 216zM408.5, 360.8C402.8, 384.9 401, 408.3 401, 408.3L399.9, 408.3C399.9, 408.3 397, 385.5 391.3, 360.8L367.9, 264L430.4, 264zM441.4, 216L356.4, 216L344.8, 168L452.3, 168z" fill="#727272" fill-opacity="1" class="Black" />
  </g>
</svg>