<?xml version='1.0' encoding='UTF-8'?>
<svg viewBox="-2.0011 -1.9974 32 31.9975" xmlns="http://www.w3.org/2000/svg">
  <g transform="matrix(0.0547, 0, 0, 0.0547, 0, 0)">
    <path d="M507.48, 117.18C504.48, 105.01 495.07, 95.39 482.98, 92.03C470.88, 88.69 457.82, 92.14 449.01, 101L390.35, 159.63L357.91, 154.23L352.53, 121.82L411.2, 63.18C420.04, 54.29 423.48, 41.26 420.11, 29.19C416.73, 17.08 407.05, 7.69 394.82, 4.66C341.73, -8.53 286.91, 6.73 248.28, 45.35C210.65, 82.97 195.68, 136.72 207.56, 188.62L24.04, 372.06C8.53, 387.53 0, 408.12 0, 430.02C0, 451.92 8.53, 472.51 24.04, 487.99C39.51, 503.47 60.1, 512 82.01, 512C103.89, 512 124.48, 503.47 139.99, 487.99L323.33, 304.73C375.12, 316.6 428.97, 301.59 466.82, 263.8C504.91, 225.7 520.51, 169.53 507.48, 117.18zM432.87, 229.87C404.4, 258.33 362.67, 267.97 323.86, 255.08L309.8, 250.39L106.05, 454.06C93.2, 466.9 70.76, 466.87 57.98, 454.06C51.54, 447.64 48.01, 439.1 48.01, 430.02C48.01, 420.94 51.54, 412.41 57.98, 405.99L261.82, 202.21L257.19, 188.18C244.38, 149.28 253.97, 107.56 282.23, 79.28C302.58, 58.96 329.42, 48.04 357.27, 48.04L358.39, 48.04L301.07, 105.34L316.2, 195.93L406.77, 211.02L464.12, 153.73C464.44, 181.99 453.5, 209.25 432.87, 229.87zM88.01, 408.02C79.17, 408.02 72.01, 415.18 72.01, 424.02C72.01, 432.86 79.17, 440.02 88.01, 440.02C96.85, 440.02 104.01, 432.86 104.01, 424.02C104.01, 415.18 96.85, 408.02 88.01, 408.02z" fill="#727272" fill-opacity="1" class="Black" />
  </g>
</svg>