<?xml version='1.0' encoding='UTF-8'?>
<svg viewBox="-1.9999 -1.549 31.9975 32" xmlns="http://www.w3.org/2000/svg">
  <g transform="matrix(0.999, 0, 0, 0.999, 0, 0)">
    <g transform="matrix(0.0565, 0, 0, 0.0565, 0, 0)">
      <path d="M263.9, 332C244.02, 332 227.91, 348.12 227.91, 368C227.91, 387.88 244.02, 404 263.9, 404C283.78, 404 299.89, 387.88 299.89, 368C299.89, 348.12 283.78, 332 263.9, 332zM231.91, 180C251.79, 180 267.9, 163.88 267.9, 144C267.9, 124.12 251.79, 108 231.91, 108C212.03, 108 195.92, 124.12 195.92, 144C195.93, 163.88 212.04, 180 231.91, 180zM247.91, 8C110.99, 8 0, 119.03 0, 256C0, 392.97 110.99, 504 247.91, 504L247.91, 503.98C247.97, 503.98 248.03, 504 248.1, 504C384.79, 504 496, 392.75 496, 256C496, 119.25 384.6, 8 247.91, 8zM119.05, 408.67C75.65, 371.95 47.98, 317.18 47.98, 256C47.98, 145.72 137.66, 56 247.9, 56C296.41, 56 336.05, 95.47 336.05, 144C336.05, 192.53 296.6, 232 248.08, 232C173.11, 232 112.13, 293.02 112.13, 368C112.15, 382.26 114.96, 395.75 119.05, 408.67zM248.09, 456C199.58, 456 160.12, 416.53 160.12, 368C160.12, 319.47 199.57, 280 248.09, 280C323.06, 280 384.04, 218.98 384.04, 144C384.04, 130.16 381.95, 116.78 378.1, 104.17C420.87, 140.89 448.01, 195.33 448.01, 256C448.02, 366.28 358.33, 456 248.09, 456z" fill="#727272" fill-opacity="1" class="Black" />
    </g>
  </g>
</svg>