<?xml version='1.0' encoding='UTF-8'?>
<svg viewBox="-1.9992 -4.8035 32 32" xmlns="http://www.w3.org/2000/svg">
  <g transform="matrix(0.0437, 0, 0, 0.0437, 0, 0)">
    <path d="M322.1, 252L322.1, 251L270.9, 185.2C270.9, 185.2 258.9, 186.8 245.9, 200.3C236.9, 209.6 3.8, 439.4 2.5, 441.2C-4.5, 451.2 4.1, 448 18.2, 442.9C19, 442.9 132.7, 406.3 132.7, 406.3C133.2, 405.7 132.6, 406.2 133.3, 405.7C132.9, 400.6 132.5, 379.5 132.3, 378C131.7, 372.8 134.5, 371.1 139.3, 369.1L231.9, 335.3C232.5, 334.5 320.4, 253.6 322.1, 252zM482.2, 372.1C495.5, 388.2 502.9, 385.4 513, 381.4C516.2, 380.2 628.4, 333.8 630.8, 332.5C638.8, 328.2 629.1, 315.8 623.6, 309.1C621.5, 306.6 418.5, 63.5 416.4, 60.8C406.7, 48.6 402.1, 47.9 378, 48C367.8, 48 271.2, 48.5 261.5, 48.6C242.3, 48.7 228.6, 48.3 242.3, 65.5C250, 75 476.5, 365.2 482.2, 372.1zM634.9, 373.7C632.6, 373.4 610.3, 369 596.9, 366.5C596.9, 366.5 481.9, 416.9 479.4, 418.1C463.4, 425.4 452.5, 414.9 442.7, 403.5L385.6, 329.5C380.2, 328.6 325.2, 319.9 320.3, 320.2C317.2, 320.4 310.7, 321 305.9, 323.1C301, 325.2 160.7, 375.9 155.7, 377.8C150.6, 379.8 144.3, 381.4 144.6, 385.4C144.8, 387.9 146.6, 388 149.2, 388.9C151.9, 389.7 450.1, 456.5 457.2, 458C472.8, 461.3 495.7, 468.5 510.8, 459.7C512.9, 458.5 634.6, 383.3 636.6, 381.9C642, 377.9 640.9, 375.1 634.9, 373.7z" fill="#727272" fill-opacity="1" class="Black" />
  </g>
</svg>