<?xml version='1.0' encoding='UTF-8'?>
<svg viewBox="-5.5295 -2 32 32" xmlns="http://www.w3.org/2000/svg">
  <g transform="matrix(0.0547, 0, 0, 0.0547, 0, 0)">
    <path d="M357.45, 468.2C356.25, 460.5 356.15, 460.6 347.85, 460.6C248.05, 460.8 236.05, 458.2 235.15, 458C222.85, 456.3 214.55, 447.5 214.15, 434.9C214.05, 433.3 213.95, 363.3 213.15, 305.8C213.05, 301.1 214.75, 299.4 219.05, 298.3C231.55, 295.3 243.95, 292.2 256.35, 288.6C260.65, 287.3 263.15, 288.4 264.75, 292.1C269.25, 302.4 273.55, 312.7 277.95, 323C279.55, 326.7 278.05, 327.4 274.55, 327.4C264.55, 327.2 254.55, 327.3 244.15, 327.3L244.15, 354.3L360.15, 354.3C358.75, 344.8 357.45, 336.2 356.15, 326.8C349.15, 326.8 342.35, 327.2 335.75, 326.7C313.15, 325.1 317.45, 322.3 251.75, 168.1C242.95, 148 223.85, 106 215.25, 78.9C210.85, 64.9 220.75, 53.5 234.15, 52.3C252.75, 50.6 271.65, 50.7 290.35, 50.3C310.95, 49.9 331.55, 49.9 352.15, 49.8C355.25, 49.8 356.15, 48.4 356.45, 45.5C357.65, 35.7 359.15, 26 360.45, 16.3C361.25, 11 362.05, 5.6 362.85, 0.2L23.75, 0C20.15, 0 18.45, 1.1 19.15, 5.3C21.35, 18.5 18.35, 6.1 25.55, 50.6C88.95, 50.6 97.35, 51.5 127.35, 51.1C139.65, 50.9 164.35, 54.6 165.05, 73.2C165.45, 84.6 163.95, 84.5 132.45, 160.6C78.65, 290.4 81.75, 280.9 65.15, 321.6C63.45, 325.7 61.55, 326.8 57.55, 326.8C49.05, 326.6 40.55, 326.5 32.15, 326.9C30.25, 327 26.95, 328.7 26.65, 330.1C25.15, 338.2 24.45, 346.4 23.45, 355L137.75, 355L137.75, 327.4C130.85, 327.4 104.25, 327.8 102.45, 324.5C107.75, 312.2 112.85, 300.1 118.15, 287.8C134.45, 291.8 150.05, 295.6 165.75, 299.5C169.15, 300.4 170.35, 302.5 170.35, 306.3C170.25, 349.2 170.45, 392.2 170.55, 435.1C170.55, 445.3 165.05, 454.2 155.65, 458.2C149.15, 460.9 152.35, 461.6 34.25, 460.6C28.95, 460.6 27.15, 462.6 26.65, 467.4C25.15, 480.3 23.75, 493.3 21.65, 506.2C20.85, 511.2 22.95, 511.9 26.95, 511.9C210.15, 512.5 -3.75, 511.9 364.05, 511.9C361.55, 496.9 359.65, 482.5 357.45, 468.2zM182.55, 262.5C169.25, 258.3 155.95, 254.3 142.65, 250A44.53 44.53 0 0 1 136.85, 247.1C154.05, 202.8 171.05, 159 188.15, 115C195.65, 117.4 196.05, 114.2 197.55, 115C206.85, 137.5 215.65, 175.1 224.55, 197.8C231.15, 214.5 237.55, 231.3 244.25, 248.7A35.78 35.78 0 0 1 240.35, 250.8C227.25, 254.7 213.95, 258.3 200.95, 262.5A27.66 27.66 0 0 1 182.55, 262.5z" fill="#727272" fill-opacity="1" class="Black" />
  </g>
</svg>