<?xml version='1.0' encoding='UTF-8'?>
<svg viewBox="-1.9992 -1.1211 32 32" xmlns="http://www.w3.org/2000/svg">
  <g transform="matrix(0.0547, 0, 0, 0.0547, 0, 0)">
    <path d="M159.7, 237.4C108.4, 308.3 43.1, 348.2 14, 326.6C-15.2, 304.9 2.8, 230 54.2, 159.1C105.5, 88.2 170.8, 48.3 199.9, 69.9C229, 91.5 211, 166.5 159.7, 237.4zM510.9, 180.1C437.1, 303.5 319, 367.8 246.4, 323.7C221.4, 308.5 205.1, 282.5 197.4, 249.9C163.8, 314.7 104.6, 363.7 33.3, 383.1C83.1, 442.4 157.4, 480 240.3, 480C390.3, 480 511.9, 356.9 511.9, 205.1C512, 196.6 511.6, 188.3 510.9, 180.1z" fill="#727272" fill-opacity="1" class="Black" />
  </g>
</svg>