<?xml version='1.0' encoding='UTF-8'?>
<svg viewBox="-2.0004 0 32 32" xmlns="http://www.w3.org/2000/svg">
  <g transform="matrix(0.0625, 0, 0, 0.0625, 0, 0)">
    <path d="M224, 373.12C198.76, 341.45 183.92, 313.69 179, 289.94C156.45, 201.94 291.61, 201.94 269.06, 289.94C263.61, 314.19 248.77, 341.94 224.06, 373.12zM362.15, 446.35C320.09, 464.66 278.48, 435.47 242.85, 395.88C346.75, 265.81 288.96, 195.88 224, 195.88C169.08, 195.88 138.84, 242.39 150.72, 296.38C157.65, 325.57 175.95, 358.77 205.15, 395.88C172.62, 431.93 144.6, 448.57 120, 450.8C70, 458.23 30.89, 409.74 48.7, 359.71C63.8, 320.55 160.42, 128.53 164.57, 118.15C180.32, 88.08 190.13, 60.75 223.95, 60.75C256.29, 60.75 267.35, 86.69 284.32, 120.62C320.32, 191.24 373.67, 298.1 399.16, 359.71C412.33, 392.78 397.79, 431 362.15, 446.35zM409.15, 310.23C280.27, 35.93 273.13, 32 224, 32C178.48, 32 159.13, 63.67 139.34, 104.79C33.18, 317.1 22.89, 347.19 22, 349.81C-3.22, 419.14 48.74, 480 111.63, 480C133.34, 480 172.24, 473.94 224, 417.6C282.68, 481.38 325.26, 480 336.37, 480C399.26, 480.05 451.22, 419.14 425.98, 349.81C426, 345.92 409.16, 310.91 409.16, 310.23z" fill="#727272" fill-opacity="1" class="Black" />
  </g>
</svg>