<?xml version='1.0' encoding='UTF-8'?>
<svg viewBox="-1.3586 -4.2745 32 32" xmlns="http://www.w3.org/2000/svg">
  <g transform="matrix(0.0458, 0, 0, 0.0458, 0, 0)">
    <path d="M14, 325.3C16.3, 321.1 19.2, 320.4 23.7, 322.8C34.1, 328.4 44.3, 334.2 54.9, 339.5A595.88 595.88 0 0 0 182.3, 385.8A616.61 616.61 0 0 0 245.5, 397.6A603.33 603.33 0 0 0 340.5, 402.8C357.9, 402.4 375.3, 401 392.6, 399A603.66 603.66 0 0 0 555.9, 356.2C558.8, 355 561.8, 354.2 565, 355C571.7, 356.8 574, 364 569.1, 368.9A70 70 0 0 1 559.5, 376.3C528.8, 397.4 495.3, 412.7 459.9, 424.2A473.31 473.31 0 0 1 384.8, 441.8A431 431 0 0 1 331.6, 446.6A21.3 21.3 0 0 0 329.1, 446.9L308, 446.9A21.3 21.3 0 0 0 305.5, 446.6C301.9, 446.4 298.3, 446.3 294.8, 446.2A426.3 426.3 0 0 1 244.4, 440.9A448.4 448.4 0 0 1 164, 420A443.33 443.33 0 0 1 18.4, 333C16.6, 331.4 15.4, 329.2 14, 327.3zM172, 65.1L167.7, 65.7A80.92 80.92 0 0 0 129.7, 80.8C127.3, 82.5 125.1, 84.3 122.6, 86.2A4.29 4.29 0 0 1 122.2, 84.8C121.8, 82.1 121.4, 79.3 120.9, 76.6C120.2, 72 117.9, 70 113.3, 70L101.8, 70C94.9, 70 93.6, 71.3 93.6, 78.2L93.6, 287.5C93.6, 288.5 93.6, 289.5 93.7, 290.5C93.9, 293.5 95.7, 295.4 98.6, 295.5C105.6, 295.6 112.7, 295.6 119.7, 295.5C122.6, 295.5 124.4, 293.5 124.7, 290.5C124.8, 289.5 124.8, 288.5 124.8, 287.5L124.8, 215.1C125.9, 216 126.5, 216.5 127, 217C144.9, 231.9 165.5, 236.8 188, 232.4C208.4, 228.4 222.6, 215.9 231.8, 197.5C238.8, 183.6 241.7, 168.8 242.1, 153.4C242.6, 136.3 240.9, 119.5 234, 103.6C225.5, 84 211.4, 71.1 190.1, 66.7C186.9, 66 183.6, 65.7 180.3, 65.2C177.5, 65.1 174.8, 65.1 172, 65.1zM124.6, 107A3.48 3.48 0 0 1 126.3, 103.7C140, 94.2 155.1, 89.2 171.9, 90.5C186.8, 91.6 199, 98.9 205.4, 116.4C209.3, 127.1 210.3, 138.2 210.3, 149.4C210.3, 159.8 209.5, 170 206.3, 180C199.5, 201.3 183.9, 209.4 163.7, 208.5C149.7, 207.9 137.5, 202.5 126.3, 194.6A3.57 3.57 0 0 1 124.6, 191.3C124.7, 177.2 124.6, 163.2 124.6, 149.1C124.6, 135 124.7, 121.1 124.6, 107zM330.3, 65.1C329.3, 65.2 328.3, 65.4 327.4, 65.5A148 148 0 0 0 298.5, 69.6C292.4, 71.2 286.5, 73.4 280.6, 75.4C277, 76.6 275.2, 79.2 275.3, 83.1C275.4, 86.4 275.2, 89.7 275.3, 93C275.4, 97.8 277.4, 99.1 282.1, 97.9C289.9, 95.9 297.7, 93.7 305.6, 92.2C317.9, 89.9 330.3, 88.9 342.8, 90.8C349.3, 91.8 355.4, 93.7 359.6, 99.2C363.3, 104 364.7, 109.7 364.9, 115.6C365.2, 123.9 365.1, 132.2 365.2, 140.5A7.84 7.84 0 0 1 365, 141.9C364.5, 141.8 364.1, 141.9 363.7, 141.8A180.56 180.56 0 0 0 331.7, 136.9C320.4, 136.3 309.2, 137 298.4, 140.8C285.5, 145.3 275.1, 153.1 269, 165.7C264.3, 175.5 263.6, 185.9 265.1, 196.4C267.1, 210.4 274.1, 221.2 286.5, 228.1C298.4, 234.7 311.3, 235.5 324.4, 233.5C339.5, 231.2 352.9, 224.8 364.7, 215.1A7.36 7.36 0 0 1 366.3, 214C366.9, 217.8 367.4, 221.4 368.1, 225C368.7, 228.1 370.6, 230.1 373.5, 230.2C378.9, 230.3 384.4, 230.3 389.8, 230.2A4.84 4.84 0 0 0 394.6, 225.5A26.2 26.2 0 0 0 394.7, 222.7L394.7, 116.7A80 80 0 0 0 393.8, 103.8C391.9, 90.9 386.4, 80.3 374.8, 73.4C368.1, 69.4 360.7, 67.4 353, 66.3C349.4, 65.8 345.8, 65.5 342.2, 65C338.3, 65.1 334.3, 65.1 330.3, 65.1zM365.3, 192.8A3.33 3.33 0 0 1 363.8, 195.8C352.6, 203.9 340.3, 209.3 326.4, 210.7C320.7, 211.3 315, 211.1 309.6, 208.9A20.08 20.08 0 0 1 297.2, 195.6A32.9 32.9 0 0 1 297.1, 176.2C299.6, 167.9 305.5, 163.2 313.5, 160.6A61.33 61.33 0 0 1 338.3, 158.4C346.7, 159.1 354.9, 160.7 363.3, 161.8C364.9, 162 365.4, 162.8 365.4, 164.4C365.3, 169.2 365.4, 173.9 365.4, 178.7C365.4, 183.5 365.2, 188.1 365.3, 192.8zM625.2, 322.2C624.2, 317.2 620.4, 315.3 616.1, 313.9A88.42 88.42 0 0 0 595.1, 310A147.32 147.32 0 0 0 555.9, 311.9C541.6, 314.6 528, 319.2 515.9, 327.5A13.75 13.75 0 0 0 512.2, 331A5.11 5.11 0 0 0 511.7, 335C512.1, 336.5 513.8, 336.9 515.3, 336.8A16.2 16.2 0 0 0 517.5, 336.7C525.3, 335.9 533, 335 540.8, 334.2C552.2, 333.1 563.7, 332.4 575.1, 333.3A71.64 71.64 0 0 1 589.5, 336C594.6, 337.4 596.9, 341.2 597.1, 346.4C597.5, 354.4 595.7, 362.1 593.6, 369.7C589.5, 385.1 583.6, 400 577.8, 414.8A17.6 17.6 0 0 0 576.8, 417.8C576.3, 420.7 578, 422.6 580.9, 421.9A10.56 10.56 0 0 0 585.7, 419.4A145.91 145.91 0 0 0 598.4, 406C611.2, 389.6 618.7, 370.7 623.1, 350.4C623.9, 346.8 624.5, 343.1 625.2, 339.5L625.2, 322.2zM493.1, 199Q473.75, 145.45 454.4, 91.8C452.4, 86.1 450.2, 80.5 448.1, 74.9C447, 72 444.9, 70.1 441.7, 70.1C434.1, 70 426.5, 69.9 418.8, 70C416.3, 70 415.1, 72 415.6, 74.5A43.1 43.1 0 0 0 417.5, 80.6Q446.9, 153.35 476.6, 226.1C478.3, 230.2 478.7, 233.7 476.8, 237.9C473.5, 245.2 470.9, 252.9 467.5, 260.2C464.5, 266.7 459.5, 271.6 452.3, 273.5A42.13 42.13 0 0 1 436.9, 274.6C434.4, 274.4 431.9, 273.8 429.4, 273.6C426, 273.4 424.3, 274.9 424.2, 278.4Q424.05, 283.4 424.2, 288.3C424.3, 293.8 426.2, 296.3 431.6, 297.2A108.18 108.18 0 0 0 448.5, 299.2C465.6, 299.6 479.2, 292.7 488, 277.8A131.63 131.63 0 0 0 497.2, 259.4Q532.75, 169.7 567.8, 79.8A26.62 26.62 0 0 0 569.4, 74.3C569.8, 71.5 568.5, 69.9 565.7, 69.9C559.1, 69.8 552.4, 69.9 545.8, 69.9A7.54 7.54 0 0 0 538.1, 75.1C537.6, 76.5 537, 77.8 536.5, 79.2L501.7, 179.2C499.2, 186.4 496.6, 193.7 494, 201.4C493.6, 200.3 493.4, 199.7 493.1, 199z" fill="#727272" fill-opacity="1" class="Black" />
  </g>
</svg>