<?xml version='1.0' encoding='UTF-8'?>
<svg viewBox="-2.0022 -4.7987 32 32" xmlns="http://www.w3.org/2000/svg">
  <g transform="matrix(0.0437, 0, 0, 0.0437, 0, 0)">
    <path d="M116.9, 158.5C109.4, 167.4 97.4, 174.4 85.4, 173.4C83.9, 161.4 89.8, 148.6 96.7, 140.8C104.2, 131.7 117.3, 125.2 128, 124.7C129.2, 137.1 124.3, 149.4 116.9, 158.5M127.8, 175.7C110.4, 174.7 95.5, 185.6 87.3, 185.6C78.9, 185.6 66.3, 176.2 52.5, 176.5C34.6, 176.8 18, 186.9 8.9, 203C-9.9, 235.3 4, 283 22.2, 309.3C31.1, 322.3 41.7, 336.6 55.7, 336.1C69, 335.6 74.2, 327.5 90.2, 327.5C106.3, 327.5 111, 336.1 125, 335.9C139.5, 335.6 148.6, 322.9 157.5, 309.9C167.6, 295.1 171.8, 280.8 172, 280C171.7, 279.7 144, 269.1 143.7, 237.1C143.4, 210.3 165.6, 197.6 166.6, 196.8C154.1, 178.2 134.6, 176.2 127.8, 175.7M228.2, 139.5L228.2, 334.4L258.5, 334.4L258.5, 267.8L300.4, 267.8C338.7, 267.8 365.5, 241.5 365.5, 203.5C365.5, 165.5 339.1, 139.5 301.4, 139.5L228.2, 139.5zM258.5, 165L293.4, 165C319.7, 165 334.7, 179 334.7, 203.6C334.7, 228.2 319.7, 242.4 293.3, 242.4L258.5, 242.4L258.5, 165zM420.7, 335.9C439.7, 335.9 457.3, 326.3 465.3, 311L465.9, 311L465.9, 334.4L493.9, 334.4L493.9, 237.4C493.9, 209.3 471.4, 191.1 436.8, 191.1C404.7, 191.1 380.9, 209.5 380, 234.7L407.3, 234.7C409.6, 222.7 420.7, 214.8 435.9, 214.8C454.4, 214.8 464.8, 223.4 464.8, 239.3L464.8, 250.1L427, 252.4C391.9, 254.5 372.9, 268.9 372.9, 293.9C373, 319.1 392.6, 335.9 420.7, 335.9zM428.9, 312.8C412.8, 312.8 402.5, 305 402.5, 293.2C402.5, 280.9 412.4, 273.8 431.3, 272.7L464.9, 270.6L464.9, 281.6C464.9, 299.8 449.4, 312.8 428.9, 312.8zM531.4, 387.4C560.9, 387.4 574.8, 376.1 586.9, 342L640, 193L609.2, 193L573.6, 308.1L573, 308.1L537.4, 193L505.8, 193L557, 334.9L554.2, 343.5C549.6, 358.1 542.1, 363.8 528.7, 363.8C526.3, 363.8 521.7, 363.5 519.8, 363.3L519.8, 386.7C521.6, 387.1 529.1, 387.4 531.4, 387.4z" fill="#727272" fill-opacity="1" class="Black" />
  </g>
</svg>