<?xml version='1.0' encoding='UTF-8'?>
<svg viewBox="-2 -3.5542 32 32" xmlns="http://www.w3.org/2000/svg">
  <g transform="matrix(0.0486, 0, 0, 0.0486, 0, 0)">
    <path d="M517.5, 309.2C556.3, 269.2 575.6, 229.2 576, 193.1C576.8, 127.6 516.6, 74.9 406.6, 58.1C277.9, 38.4 118.1, 73.6 0, 140.5C52, 114 110.6, 92.3 170.7, 82.3C245.2, 61.8 323.7, 56.9 392, 67.5C544.5, 91.3 588.8, 195 490.8, 299.2C480.6, 310 468.8, 320.3 455.8, 329.8L304.9, 103.4L114.7, 388.9C49.1, 359.5 38.2, 298.7 95.6, 237.7C116.4, 215.5 143.9, 195.8 175.1, 179.6C195.1, 167.4 214.8, 157 237.1, 148.9C172, 169.2 114.4, 201.8 75.5, 241.8C47.8, 270.4 34.1, 298.9 33.8, 324.7C33.3, 359.8 57.2, 389.8 102.2, 407.7L67.7, 459.4L169.3, 459.4L191.3, 425C213.5, 426 236.6, 425 259.9, 422.3L237.1, 459.4L372.6, 459.4L340, 406.3C358.6, 401 376.9, 394.8 394.5, 387.6L440.4, 459.4L542, 459.4L468.6, 349C487.1, 336.9 503.6, 323.5 517.5, 309.2zM329.9, 389.7L304.9, 349.1L272.2, 402.4C248.8, 405.9 225.5, 407.5 203, 406.8L304.9, 247.5L383.6, 370.5C366.4, 377.9 348.3, 384.4 329.9, 389.7z" fill="#727272" fill-opacity="1" class="Black" />
  </g>
</svg>