<?xml version='1.0' encoding='UTF-8'?>
<svg viewBox="-2 -4.8 32 32" xmlns="http://www.w3.org/2000/svg">
  <g transform="matrix(0.0438, 0, 0, 0.0438, 0, 0)">
    <path d="M640, 199.9L640, 253.9L320, 453.9L0, 254L0, 200L320, 400L640, 199.9zM445.5, 271.9L492.6, 242.5C455.4, 186.7 391.9, 149.9 319.9, 149.9C247.9, 149.9 184.4, 186.6 147.3, 242.3L147.6, 242.3C150.1, 240 152.7, 237.8 155.3, 235.6C245, 161.2 374.7, 177.5 445.5, 271.9zM225.4, 290.7C242.3, 278.8 261.9, 272 282.8, 272C317.2, 272 348, 290.4 369.2, 319.6L414.6, 291.2C393.7, 261.3 359, 241.7 319.8, 241.7C280.9, 241.7 246.4, 261.1 225.4, 290.7zM103.6, 161.1C235.4, 56.8 421.8, 84.7 521.1, 223.2L521.8, 224.2L570.6, 193.8C517.1, 112.1 424.8, 58.1 319.9, 58.1C216.4, 58.1 123.3, 111.6 69.4, 193.7C79.3, 183.2 92.1, 170.2 103.6, 161.1zM570.6, 193.8z" fill="#727272" fill-opacity="1" class="Black" />
  </g>
</svg>