<?xml version='1.0' encoding='UTF-8'?>
<svg viewBox="-1.9986 -2.0005 32 32" xmlns="http://www.w3.org/2000/svg">
  <g transform="matrix(0.0547, 0, 0, 0.0547, 0, 0)">
    <path d="M453.1, 32L141.1, 32C102.2, 32 64.9, 63.2 57.8, 101.7L1.2, 410.3C-5.9, 448.8 19.9, 480 58.9, 480L370.9, 480C409.8, 480 447.1, 448.8 454.2, 410.3L510.9, 101.8C517.9, 63.2 492.1, 32 453.1, 32zM394.9, 379.3L362.9, 392.8L247.5, 282.8C232.8, 292.8 218.3, 302.3 205.8, 309.9L227.9, 374.1L210, 386.8L169.4, 325.8L117, 277.7L132.7, 262.3L190.7, 293.4C200, 282.9 211.5, 270.8 223.5, 258.5L203, 228.9L134.2, 129.1L153, 100.2L161.9, 95.4L265, 207.8L269.9, 212.3C289.3, 193.5 303.7, 179.9 303.7, 179.9C311.4, 173.4 325.2, 177 334.4, 187.8C343.4, 198.3 345, 212.5 337.1, 219.1C335.3, 220.4 321.6, 230.5 301.8, 244.7L306.3, 252L401.2, 371.4L394.9, 379.3z" fill="#727272" fill-opacity="1" class="Black" />
  </g>
</svg>