<?xml version='1.0' encoding='UTF-8'?>
<svg viewBox="-2 -4.8006 32 32" xmlns="http://www.w3.org/2000/svg">
  <g transform="matrix(0.0437, 0, 0, 0.0437, 0, 0)">
    <path d="M180.41, 203.01C179.69, 225.66 191.01, 235.69 191.29, 242.06A8.164 8.164 0 0 1 187.19, 248.33L174.39, 257.29A10.66 10.66 0 0 1 168.76, 259.21C168.33, 259.19 160.57, 261.04 148.28, 233.6A78.608 78.608 0 0 1 85.67, 263.05C69.39, 263.94 25.27, 253.81 27.54, 206.84C25.95, 168.56 61.6, 144.78 98.47, 146.79C105.57, 146.81 120.07, 147.16 145.46, 153.06L145.46, 137.44C148.15, 110.98 130.76, 90.45 100.65, 93.53C98.25, 93.54 81.25, 93.03 54.81, 103.64C47.45, 107.02 46.51, 106.46 44.06, 106.46C36.65, 106.46 39.7, 84.98 41.12, 82.26C46.33, 75.86 76.98, 63.91 107.06, 64.08A76.857 76.857 0 0 1 162.75, 81.36A70.285 70.285 0 0 1 180.42, 133.72L180.41, 203.01zM93.99, 235.4C126.42, 234.93 140.15, 215.43 143.28, 204.93C145.74, 194.88 145.33, 188.52 145.33, 177.53C135.66, 175.21 121.74, 172.68 105.77, 172.66C90.62, 171.52 62.95, 178.29 64.03, 204.92C62.79, 221.71 75.15, 236.32 93.99, 235.4zM264.91, 258.45C257.05, 259.17 253.39, 253.59 252.23, 248.08L202.43, 83.43C201.46, 80.65 200.82, 77.78 200.51, 74.85A4.61 4.61 0 0 1 204.37, 69.6C204.61, 69.56 202.24, 69.6 226.62, 69.6C235.4, 68.72 238.26, 75.63 239.17, 79.97L274.89, 220.8L308.05, 79.97C308.58, 76.75 310.99, 68.9 320.85, 69.73L338.01, 69.73C340.18, 69.55 349.12, 69.23 350.69, 80.1L384.11, 222.73L420.98, 80.1C421.46, 77.92 423.7, 68.73 433.66, 69.73L453.38, 69.73C454.23, 69.6 459.53, 68.92 458.63, 78.31C458.2, 80.16 462.04, 67.65 405.88, 248.21C404.73, 253.72 401.06, 259.3 393.2, 258.58L374.51, 258.58C363.57, 259.73 362, 248.92 361.83, 247.83L328.67, 110.7L295.89, 247.69C295.73, 248.78 294.16, 259.59 283.21, 258.44L264.91, 258.44zM538.39, 264.08C532.51, 264.09 504.47, 263.78 481.03, 251.79A12.802 12.802 0 0 1 473.22, 239.88L473.22, 229.13C473.22, 220.68 479.42, 222.23 482.05, 223.24C492.09, 227.3 498.53, 230.38 510.86, 232.84C547.51, 240.37 563.63, 230.54 567.58, 228.36C580.73, 220.55 581.77, 202.68 572.83, 193.41C562.35, 184.62 557.35, 184.29 519.7, 172.41C515.06, 171.12 476, 158.8 475.91, 120.05C475.3, 91.81 500.96, 63.87 545.43, 64.1C558.1, 64.09 591.86, 68.23 601, 79.72C602.35, 81.81 603.02, 84.27 602.92, 86.76L602.92, 96.87C602.92, 101.31 601.3, 103.53 598.05, 103.53C590.34, 102.67 576.66, 92.36 548.89, 92.78C542, 92.42 509, 93.69 510.48, 117.75C510.05, 136.71 537.09, 143.82 540.18, 144.64C576.64, 155.61 588.83, 157.43 603.3, 174.22C620.44, 196.47 611.2, 222.52 607.65, 229.66C588.57, 267.15 539.23, 264.1 538.39, 264.08zM578.59, 368.94C508.56, 420.66 406.9, 448.19 320.1, 448.19A469.127 469.127 0 0 1 2.83, 327.46C-3.7, 321.57 2.06, 313.5 10, 317.99A637.37 637.37 0 0 0 326.88, 402.11A630.22 630.22 0 0 0 568.47, 352.56C580.25, 347.56 590.24, 360.36 578.59, 368.94zM607.78, 335.65C598.82, 324.13 548.5, 330.27 525.97, 332.96C519.18, 333.73 518.03, 327.84 524.18, 323.49C564.25, 295.32 630.06, 303.39 637.62, 312.86C645.17, 322.33 635.57, 388.27 598.06, 419.77C592.3, 424.64 586.79, 422.07 589.35, 415.67C597.79, 394.42 616.74, 347.18 607.78, 335.65z" fill="#727272" fill-opacity="1" class="Black" />
  </g>
</svg>