<?xml version='1.0' encoding='UTF-8'?>
<svg viewBox="-2 0 32 32" xmlns="http://www.w3.org/2000/svg">
  <g transform="matrix(0.0625, 0, 0, 0.0625, 0, 0)">
    <path d="M416, 32L32, 32C14.4, 32 0, 46.4 0, 64L0, 448C0, 465.6 14.4, 480 32, 480L416, 480C433.6, 480 448, 465.6 448, 448L448, 64C448, 46.4 433.6, 32 416, 32zM352, 289.4C352, 338.8 340.6, 372 248.2, 372L231.3, 372C187.2, 372 168.9, 357.1 160.9, 333.2L160, 333.2L160, 368L96, 368L96, 136L160, 136L160, 210.7L161.1, 210.7C165.7, 180.2 200.8, 171.9 230.8, 171.9L248.1, 171.9C340.5, 171.9 351.9, 205 351.9, 254.4L351.9, 289.4zM288, 260.5L288, 283.4C288, 305.1 284.6, 317.2 249.6, 317.2L204.3, 317.2C175.4, 317.2 160.2, 310.7 160.2, 281.5L160.2, 262.5C160.2, 233.2 175.4, 226.8 204.3, 226.8L249.6, 226.8C284.6, 226.6 288, 238.8 288, 260.5z" fill="#727272" fill-opacity="1" class="Black" />
  </g>
</svg>