<?xml version='1.0' encoding='UTF-8'?>
<svg viewBox="-1.6635 -1.6158 32 32" xmlns="http://www.w3.org/2000/svg">
  <g transform="matrix(0.0561, 0, 0, 0.0561, 0, 0)">
    <path d="M22.2, 32A16 16 0 0 0 6, 47.8A26.35 26.35 0 0 0 6.2, 50.6L74.1, 462.7A21.77 21.77 0 0 0 95.4, 480.9L421.1, 480.9A16 16 0 0 0 437.1, 467.5L505, 50.7A16 16 0 0 0 491.8, 32.4A24.58 24.58 0 0 0 489, 32.2L22.2, 32zM308.1, 329.8L204.1, 329.8L176, 182.8L333.3, 182.8L308.1, 329.8z" fill="#727272" fill-opacity="1" class="Black" />
  </g>
</svg>