<?xml version='1.0' encoding='UTF-8'?>
<svg viewBox="-2 -1.9973 32 32" xmlns="http://www.w3.org/2000/svg">
  <g transform="matrix(0.0547, 0, 0, 0.0547, 0, 0)">
    <path d="M166, 116.9C166, 140.3 149.6, 166 93.5, 166L23.4, 166L44.4, 77.2L112.2, 77.2C154.3, 77.2 166, 100.5 166, 116.9zM292.2, 77.2L224.4, 77.2L205.7, 166L275.8, 166C329.6, 166 345.9, 140.3 345.9, 116.9C346, 100.5 334.3, 77.2 292.2, 77.2zM88.8, 208.1L21, 208.1L0, 296.9L70.1, 296.9C126.2, 296.9 142.6, 273.5 142.6, 247.8C142.6, 231.5 130.9, 208.1 88.8, 208.1zM268.9, 208.1L201.1, 208.1L182.4, 296.9L252.5, 296.9C306.3, 296.9 322.6, 273.5 322.6, 247.8C322.6, 231.5 310.9, 208.1 268.9, 208.1zM458.2, 154.3L390.4, 154.3L371.7, 243.1L441.8, 243.1C495.6, 243.1 511.9, 219.7 511.9, 194C512, 177.7 500.3, 154.3 458.2, 154.3zM430.2, 292.2L362.4, 292.2L343.7, 381L413.8, 381C469.9, 381 483.9, 357.6 483.9, 331.9C483.9, 315.6 472.3, 292.2 430.2, 292.2zM240.8, 346L173, 346L154.3, 434.8L224.4, 434.8C280.5, 434.8 294.5, 409.1 294.5, 385.7C294.6, 369.4 282.9, 346 240.8, 346z" fill="#727272" fill-opacity="1" class="Black" />
  </g>
</svg>