<?xml version='1.0' encoding='UTF-8'?>
<svg viewBox="-2 0 32 32" xmlns="http://www.w3.org/2000/svg">
  <g transform="matrix(0.0625, 0, 0, 0.0625, 0, 0)">
    <path d="M292.3, 311.93C292.3, 354.34 252.58, 353.36 248.38, 353.36L167.49, 353.36L167.49, 271.67L248.38, 271.67C290.94, 271.67 292.3, 303.57 292.3, 311.93zM242.15, 238.8C242.82, 238.8 280.59, 239.8 280.59, 202.49C280.59, 186.97 277.08, 166.62 242.15, 166.62L167.49, 166.62L167.49, 238.8L242.15, 238.8zM448, 106.67L448, 405.33A74.89 74.89 0 0 1 373.33, 480L74.67, 480A74.89 74.89 0 0 1 0, 405.33L0, 106.67A74.89 74.89 0 0 1 74.67, 32L373.33, 32A74.89 74.89 0 0 1 448, 106.67zM338.05, 317.86C338.05, 296.29 331.4, 259.57 289, 250.51L289, 249.78C311.91, 240 326.34, 221.53 326.34, 194.14C326.34, 187.14 328.34, 129.36 248.74, 129.36L121.74, 129.36L121.74, 390.69C249.97, 390.69 261.61, 392.37 285.34, 384.98C299.55, 380.56 338.05, 367 338.05, 317.86z" fill="#727272" fill-opacity="1" class="Black" />
  </g>
</svg>