<?xml version='1.0' encoding='UTF-8'?>
<svg viewBox="-2 -0.0002 32 32" xmlns="http://www.w3.org/2000/svg">
  <g transform="matrix(0.0625, 0, 0, 0.0625, 0, 0)">
    <path d="M427.84, 380.67L231.34, 478.49A18.6 18.6 0 0 1 216.67, 478.49L20.16, 380.67C16.16, 378.67 16.16, 375.39 20.16, 373.38L67.22, 350A18.65 18.65 0 0 1 81.91, 350L216.67, 417A18.51 18.51 0 0 0 231.34, 417L366.1, 350A18.62 18.62 0 0 1 380.78, 350L427.84, 373.43C431.89, 375.39 431.89, 378.67 427.84, 380.67zM427.84, 244.14L380.78, 220.71A18.62 18.62 0 0 0 366.1, 220.71L231.34, 287.79A18.68 18.68 0 0 1 216.67, 287.79L81.91, 220.71A18.65 18.65 0 0 0 67.22, 220.71L20.16, 244.14C16.16, 246.14 16.16, 249.43 20.16, 251.45L216.67, 349.25A18.6 18.6 0 0 0 231.34, 349.25L427.84, 251.45C431.89, 249.43 431.89, 246.15 427.84, 244.14zM20.16, 130.42L216.66, 220.71A20.08 20.08 0 0 0 231.33, 220.71L427.84, 130.42C431.84, 128.56 431.84, 125.53 427.84, 123.68L231.33, 33.4A19.88 19.88 0 0 0 216.66, 33.4L20.16, 123.68C16.11, 125.53 16.11, 128.56 20.16, 130.42z" fill="#727272" fill-opacity="1" class="Black" />
  </g>
</svg>