<?xml version='1.0' encoding='UTF-8'?>
<svg viewBox="-2 0 32 32" xmlns="http://www.w3.org/2000/svg">
  <g transform="matrix(0.0625, 0, 0, 0.0625, 0, 0)">
    <path d="M0, 32L0, 160L128, 160L128, 32L0, 32zM120, 152L8, 152L8, 40L120, 40L120, 152zM160, 32L160, 160L288, 160L288, 32L160, 32zM280, 152L168, 152L168, 40L280, 40L280, 152zM320, 32L320, 160L448, 160L448, 32L320, 32zM440, 152L328, 152L328, 40L440, 40L440, 152zM0, 192L0, 320L128, 320L128, 192L0, 192zM120, 312L8, 312L8, 200L120, 200L120, 312zM160, 192L160, 320L288, 320L288, 192L160, 192zM280, 312L168, 312L168, 200L280, 200L280, 312zM320, 192L320, 320L448, 320L448, 192L320, 192zM440, 312L328, 312L328, 200L440, 200L440, 312zM0, 352L0, 480L128, 480L128, 352L0, 352zM120, 472L8, 472L8, 360L120, 360L120, 472zM160, 352L160, 480L288, 480L288, 352L160, 352zM280, 472L168, 472L168, 360L280, 360L280, 472zM320, 352L320, 480L448, 480L448, 352L320, 352z" fill="#727272" fill-opacity="1" class="Black" />
  </g>
</svg>