<?xml version='1.0' encoding='UTF-8'?>
<svg viewBox="-1.6108 -3.2096 32 32" xmlns="http://www.w3.org/2000/svg">
  <g transform="matrix(0.05, 0, 0, 0.05, 0, 0)">
    <path d="M288, 32C133.27, 32 7.79, 132.32 7.79, 256C7.79, 379.68 133.27, 480 288, 480C442.73, 480 568.21, 379.68 568.21, 256C568.21, 132.32 442.73, 32 288, 32zM202.61, 389.19L64.1, 390.55L141.35, 99.81L274.79, 99.81C337.94, 99.81 359.72, 128.46 352.79, 172.65A60.24 60.24 0 0 1 351.29, 179.5A77.39 77.39 0 0 0 334.08, 177.57C291.73, 177.57 257.39, 211.45 257.39, 253.22C257.39, 290.36 284.53, 321.22 320.32, 327.67C302.08, 364.83 264.16, 388.59 202.61, 389.19zM358, 207.11L390, 207.11L367.84, 297.42L332.43, 297.42L321.24, 261.79L313.41, 297.42L275.58, 297.42L302.21, 207.11L333.55, 207.11L348.55, 243.86zM503.86, 389.19L306.79, 389.19L322.63, 328A78.8 78.8 0 0 0 334.1, 328.83C376.44, 328.83 410.79, 294.96 410.79, 253.18C410.79, 220.53 389.79, 192.72 360.41, 182.12L381.74, 99.77L474.24, 99.77L421.19, 305.13L525.06, 305.13zM211.7, 269.39L187, 269.39L173.2, 325.86L197.9, 325.86C214.04, 325.86 230.01, 322.68 235.84, 299.21C241.4, 276.9 227.85, 269.39 211.7, 269.39zM233, 170L211.66, 170L200, 217.71L221.37, 217.71C239.37, 217.71 256.75, 203.07 260.58, 187.57C265.23, 168.71 251.07, 170 233, 170z" fill="#727272" fill-opacity="1" class="Black" />
  </g>
</svg>