<?xml version='1.0' encoding='UTF-8'?>
<svg viewBox="-2 0 32 32" xmlns="http://www.w3.org/2000/svg">
  <g transform="matrix(0.0625, 0, 0, 0.0625, 0, 0)">
    <path d="M224, 150.7L266.9, 311.4L181.1, 311.4L224, 150.7zM448, 80L448, 432C448, 458.5 426.5, 480 400, 480L48, 480C21.5, 480 0, 458.5 0, 432L0, 80C0, 53.5 21.5, 32 48, 32L400, 32C426.5, 32 448, 53.5 448, 80zM382.7, 405.3L288.2, 106.6L159.8, 106.6L65.3, 405.3L156, 405.3L267.7, 313.7L291.9, 405.3L382.7, 405.3z" fill="#727272" fill-opacity="1" class="Black" />
  </g>
</svg>