<?xml version='1.0' encoding='UTF-8'?>
<svg viewBox="-2 -3.6042 32 32" xmlns="http://www.w3.org/2000/svg">
  <g transform="matrix(0.0486, 0, 0, 0.0486, 0, 0)">
    <path d="M302.2, 218.4C302.2, 235.6 291.7, 245.5 273.2, 245.5L248.9, 245.5L248.9, 191.3L273.3, 191.3C291.7, 191.3 302.2, 201.1 302.2, 218.4zM349.7, 281C349.7, 289.3 356.9, 294.7 368.2, 294.7C382.6, 294.7 393.4, 285.6 393.4, 272.8L393.4, 265.1L369.9, 266.6C356.6, 267.5 349.7, 272.4 349.7, 281zM576, 79L576, 431C576, 457.5 554.5, 479 528, 479L48, 479C21.5, 479 0, 457.5 0, 431L0, 79C0, 52.5 21.5, 31 48, 31L528, 31C554.5, 31 576, 52.5 576, 79zM127.8, 197.2C136.2, 197.9 144.6, 193 149.9, 186.8C155.1, 180.4 158.5, 171.8 157.6, 163.1C150.2, 163.4 141, 168 135.7, 174.4C130.9, 179.9 126.8, 188.8 127.8, 197.2zM188.4, 271.7C188.2, 271.5 168.8, 264.1 168.6, 241.7C168.4, 223 183.9, 214 184.6, 213.5C175.8, 200.5 162.2, 199.1 157.5, 198.8C145.3, 198.1 134.9, 205.7 129.1, 205.7C123.2, 205.7 114.4, 199.1 104.8, 199.3C92.3, 199.5 80.6, 206.6 74.3, 217.9C61.2, 240.5 70.9, 273.9 83.6, 292.3C89.8, 301.4 97.3, 311.4 107.1, 311C116.4, 310.6 120.1, 305 131.3, 305C142.6, 305 145.8, 311 155.6, 310.9C165.8, 310.7 172.1, 301.8 178.4, 292.7C185.3, 282.3 188.2, 272.3 188.4, 271.7zM323.8, 218.3C323.8, 191.7 305.3, 173.5 278.9, 173.5L227.7, 173.5L227.7, 309.9L248.9, 309.9L248.9, 263.3L278.2, 263.3C305, 263.3 323.8, 244.9 323.8, 218.3zM413.8, 242C413.8, 222.3 398, 209.6 373.8, 209.6C351.3, 209.6 334.7, 222.5 334.1, 240.1L353.2, 240.1C354.8, 231.7 362.6, 226.2 373.2, 226.2C386.2, 226.2 393.4, 232.2 393.4, 243.4L393.4, 250.9L367, 252.5C342.4, 254 329.1, 264.1 329.1, 281.6C329.1, 299.3 342.8, 311 362.5, 311C375.8, 311 388.1, 304.3 393.7, 293.6L394.1, 293.6L394.1, 310L413.7, 310L413.7, 242zM516, 210.9L494.5, 210.9L469.6, 291.5L469.2, 291.5L444.3, 210.9L422, 210.9L457.9, 310.2L456, 316.2C452.8, 326.4 447.5, 330.4 438.1, 330.4C436.4, 330.4 433.2, 330.2 431.9, 330.1L431.9, 346.5C433.1, 346.9 438.4, 347 440, 347C460.7, 347 470.4, 339.1 478.9, 315.2L516, 210.9z" fill="#727272" fill-opacity="1" class="Black" />
  </g>
</svg>