<?xml version='1.0' encoding='UTF-8'?>
<svg viewBox="-2 -3.5556 32 32" xmlns="http://www.w3.org/2000/svg">
  <g transform="matrix(0.0486, 0, 0, 0.0486, 0, 0)">
    <path d="M239.7, 79.9C142.8, 79.9 63.9, 158.5 63.9, 255.7C63.9, 352.6 142.8, 431.5 239.7, 431.5C336.9, 431.5 415.5, 352.6 415.5, 255.7C415.5, 158.5 336.9, 79.9 239.7, 79.9zM199.8, 359.5C158.1, 343.6 128.4, 303.1 128.4, 255.7C128.4, 208.3 158.1, 167.8 199.8, 151.6L199.8, 359.5zM279.6, 359.8L279.6, 151.6C321.3, 167.8 351, 208.3 351, 255.7C351, 303.1 321.3, 343.6 279.6, 359.8zM528, 32L48, 32C21.5, 32 0, 53.5 0, 80L0, 432C0, 458.5 21.5, 480 48, 480L528, 480C554.5, 480 576, 458.5 576, 432L576, 80C576, 53.5 554.5, 32 528, 32zM329.7, 448L239.4, 448C133.2, 448 45.6, 362.5 45.6, 257.8C45.6, 143.2 133.2, 64 239.4, 64L329.7, 64C434.7, 64 530.4, 143.2 530.4, 257.8C530.4, 362.5 434.7, 448 329.7, 448z" fill="#727272" fill-opacity="1" class="Black" />
  </g>
</svg>