<?xml version='1.0' encoding='UTF-8'?>
<svg viewBox="-2 -3.5069 32 32" xmlns="http://www.w3.org/2000/svg">
  <g transform="matrix(0.0486, 0, 0, 0.0486, 0, 0)">
    <path d="M482.9, 410.3C482.9, 417.1 478.3, 422 471.7, 422C464.9, 422 460.5, 416.8 460.5, 410.3C460.5, 403.8 464.9, 398.6 471.7, 398.6C478.3, 398.6 482.9, 403.8 482.9, 410.3zM172.1, 398.6C165, 398.6 160.9, 403.8 160.9, 410.3C160.9, 416.8 165, 422 172.1, 422C178.6, 422 183, 417.1 183, 410.3C182.9, 403.8 178.6, 398.6 172.1, 398.6zM289.6, 398.3C284.2, 398.3 280.9, 401.8 280.1, 407L299.2, 407C298.3, 401.3 294.8, 398.3 289.6, 398.3zM397.4, 398.6C390.6, 398.6 386.5, 403.8 386.5, 410.3C386.5, 416.8 390.6, 422 397.4, 422C404.2, 422 408.6, 417.1 408.6, 410.3C408.6, 403.8 404.2, 398.6 397.4, 398.6zM503.3, 424.7C503.3, 425 503.6, 425.2 503.6, 425.8C503.6, 426.1 503.3, 426.3 503.3, 426.9C503, 427.2 503, 427.4 502.8, 427.7C502.5, 428 502.3, 428.2 501.7, 428.2C501.4, 428.5 501.2, 428.5 500.6, 428.5C500.3, 428.5 500.1, 428.5 499.5, 428.2C499.2, 428.2 499, 427.9 498.7, 427.7C498.4, 427.4 498.2, 427.2 498.2, 426.9C497.9, 426.4 497.9, 426.1 497.9, 425.8C497.9, 425.3 497.9, 425 498.2, 424.7C498.2, 424.2 498.5, 423.9 498.7, 423.6C499, 423.3 499.2, 423.3 499.5, 423.1C500, 422.8 500.3, 422.8 500.6, 422.8C501.1, 422.8 501.4, 422.8 501.7, 423.1C502.2, 423.4 502.5, 423.4 502.8, 423.6C503.1, 423.8 503, 424.2 503.3, 424.7zM501.1, 426.1C501.6, 426.1 501.6, 425.8 501.9, 425.8C502.2, 425.5 502.2, 425.3 502.2, 425C502.2, 424.7 502.2, 424.5 501.9, 424.2C501.6, 424.2 501.4, 423.9 500.8, 423.9L499.2, 423.9L499.2, 427.4L500, 427.4L500, 426L500.3, 426L501.4, 427.4L502.2, 427.4L501.1, 426.1zM576, 81L576, 433C576, 459.5 554.5, 481 528, 481L48, 481C21.5, 481 0, 459.5 0, 433L0, 81C0, 54.5 21.5, 33 48, 33L528, 33C554.5, 33 576, 54.5 576, 81zM64, 220.6C64, 297.1 126.1, 359.1 202.5, 359.1C229.7, 359.1 256.4, 350.9 279, 336C206.1, 276.7 206.6, 164.8 279, 105.5C256.4, 90.5 229.7, 82.4 202.5, 82.4C126.1, 82.3 64, 144.4 64, 220.6zM288, 329.4C358.5, 274.4 358.2, 167.2 288, 111.9C217.8, 167.2 217.5, 274.5 288, 329.4zM145.7, 405.7C145.7, 397 140, 391.3 131, 391C126.4, 391 121.5, 392.4 118.2, 397.5C115.8, 393.4 111.7, 391 106, 391C102.2, 391 98.4, 392.4 95.4, 396.4L95.4, 392L87.2, 392L87.2, 428.7L95.4, 428.7C95.4, 409.8 92.9, 398.5 104.4, 398.5C114.6, 398.5 112.6, 408.7 112.6, 428.7L120.5, 428.7C120.5, 410.4 118, 398.5 129.5, 398.5C139.7, 398.5 137.7, 408.5 137.7, 428.7L145.9, 428.7L145.9, 405.7zM190.6, 392L182.7, 392L182.7, 396.4C180, 393.1 176.2, 391 171, 391C160.7, 391 152.8, 399.2 152.8, 410.3C152.8, 421.5 160.7, 429.6 171, 429.6C176.2, 429.6 180, 427.7 182.7, 424.2L182.7, 428.8L190.6, 428.8L190.6, 392zM231.1, 417.6C231.1, 402.6 208.2, 409.4 208.2, 402.4C208.2, 396.7 220.1, 397.6 226.7, 401.3L230, 394.8C220.6, 388.7 199.8, 388.8 199.8, 403C199.8, 417.3 222.7, 411.3 222.7, 418C222.7, 424.3 209.2, 423.8 202, 418.8L198.5, 425.1C209.7, 432.7 231.1, 431.1 231.1, 417.6zM266.5, 426.9L264.3, 420.1C260.5, 422.2 252.1, 424.5 252.1, 416L252.1, 399.4L265.2, 399.4L265.2, 392L252.1, 392L252.1, 380.8L243.9, 380.8L243.9, 392L236.3, 392L236.3, 399.3L243.9, 399.3L243.9, 416C243.9, 433.6 261.2, 430.4 266.5, 426.9zM279.8, 413.5L307.3, 413.5C307.3, 397.3 299.9, 390.9 289.9, 390.9C279.3, 390.9 271.7, 398.8 271.7, 410.2C271.7, 430.7 294.3, 434.1 305.5, 424.4L301.7, 418.4C293.9, 424.8 282.1, 424.2 279.8, 413.5zM338.9, 392C334.3, 390 327.3, 390.2 323.7, 396.4L323.7, 392L315.5, 392L315.5, 428.7L323.7, 428.7L323.7, 408C323.7, 396.4 333.2, 397.9 336.5, 399.6L338.9, 392zM349.5, 410.3C349.5, 398.9 361.1, 395.2 370.2, 401.9L374, 395.4C362.4, 386.3 341.3, 391.3 341.3, 410.4C341.3, 430.2 363.7, 434.2 374, 425.4L370.2, 418.9C361, 425.4 349.5, 421.5 349.5, 410.3zM416.2, 392L408, 392L408, 396.4C399.7, 385.4 378.1, 391.6 378.1, 410.3C378.1, 429.5 400.5, 435 408, 424.2L408, 428.8L416.2, 428.8L416.2, 392zM449.9, 392C447.5, 390.8 438.9, 389.1 434.7, 396.4L434.7, 392L426.8, 392L426.8, 428.7L434.7, 428.7L434.7, 408C434.7, 397 443.7, 397.7 447.5, 399.6L449.9, 392zM490.2, 377.1L482.3, 377.1L482.3, 396.4C474.1, 385.5 452.4, 391.3 452.4, 410.3C452.4, 429.7 474.9, 434.9 482.3, 424.2L482.3, 428.8L490.2, 428.8L490.2, 377.1zM497.8, 302L497.8, 306.6L498.6, 306.6L498.6, 302L500.5, 302L500.5, 301.2L495.9, 301.2L495.9, 302L497.8, 302zM504.4, 425.8C504.4, 425.3 504.4, 424.7 504.1, 424.2C503.8, 423.9 503.6, 423.4 503.3, 423.1C503, 422.8 502.5, 422.6 502.2, 422.3C501.7, 422.3 501.1, 422 500.6, 422C500.3, 422 499.8, 422.3 499.2, 422.3C498.7, 422.6 498.4, 422.8 498.1, 423.1C497.6, 423.4 497.3, 423.9 497.3, 424.2C497, 424.7 497, 425.3 497, 425.8C497, 426.1 497, 426.6 497.3, 427.2C497.3, 427.5 497.6, 428 498.1, 428.3C498.4, 428.6 498.6, 428.8 499.2, 429.1C499.7, 429.4 500.3, 429.4 500.6, 429.4C501.1, 429.4 501.7, 429.4 502.2, 429.1C502.5, 428.8 503, 428.6 503.3, 428.3C503.6, 428 503.8, 427.5 504.1, 427.2C504.4, 426.6 504.4, 426.1 504.4, 425.8zM507.6, 301.1L506.2, 301.1L504.6, 304.6L503, 301.1L501.6, 301.1L501.6, 306.5L502.4, 306.5L502.4, 302.4L504, 305.9L505.1, 305.9L506.5, 302.4L506.5, 306.5L507.6, 306.5L507.6, 301.1zM512, 220.6C512, 144.4 449.9, 82.3 373.5, 82.3C346.3, 82.3 319.6, 90.5 297, 105.4C369.1, 164.7 370.2, 276.9 297, 335.9C319.6, 350.9 346.5, 359 373.5, 359C449.9, 359.1 512, 297.1 512, 220.6z" fill="#727272" fill-opacity="1" class="Black" />
  </g>
</svg>