<?xml version='1.0' encoding='UTF-8'?>
<svg viewBox="-2 -0.0009 32 32" xmlns="http://www.w3.org/2000/svg">
  <g transform="matrix(0.0626, 0, 0, 0.0626, 0, 0)">
    <path d="M289.6, 97.5L321.2, 129.2L244.9, 205.7L244.9, 97.5zM127.2, 129.2L203.5, 205.7L203.5, 97.5L158.8, 97.5zM168.7, 87.6L213.4, 87.6L213.4, 215.5L224.2, 226.3L235, 215.5L235, 87.6L279.7, 87.6L224.2, 32zM194.9, 255.7L184.1, 244.9L55.5, 244.9L55.5, 200.1L0, 255.7L55.5, 311.3L55.5, 266.5L184.1, 266.5L194.9, 255.7zM274.2, 235L382.1, 235L382.1, 190.2L350.5, 158.5zM447.5, 255.7L392, 200.1L392, 244.9L264.3, 244.9L253.5, 255.7L264.3, 266.5L392, 266.5L392, 311.3L447.5, 255.7zM65.4, 176.2L97.9, 144.5L188.2, 235L203.5, 235L203.5, 219.7L113.2, 129.2L144.8, 97.5L65.4, 97.5zM382.1, 97.5L303.6, 97.5L335.2, 129.2L244.9, 219.7L244.9, 235L260.2, 235L350.5, 144.5L382.1, 176.2zM203.5, 413.9L203.5, 305.8L127.2, 382.3L158.8, 414L203.5, 414zM65.4, 235L174.2, 235L97.9, 158.5L65.4, 190.2zM382.1, 335.2L350.5, 366.9L260.2, 276.4L244.9, 276.4L244.9, 291.7L335.2, 382.2L303.6, 413.9L382.1, 413.9zM382.1, 276.4L274.2, 276.4L350.5, 352.9L382.1, 321.2zM321.2, 382.2L244.9, 305.7L244.9, 413.8L289.6, 413.8zM97.9, 352.9L174.2, 276.4L65.4, 276.4L65.4, 321.2zM279.7, 423.8L235, 423.8L235, 295.9L224.2, 285.1L213.4, 295.9L213.4, 423.8L168.7, 423.8L224.2, 479.4zM113.2, 382.2L203.5, 291.7L203.5, 276.4L188.2, 276.4L97.9, 366.9L65.4, 335.2L65.4, 413.9L144.8, 413.9z" fill="#727272" fill-opacity="1" class="Black" />
  </g>
</svg>