<?xml version='1.0' encoding='UTF-8'?>
<svg viewBox="-0.7307 -0.7307 32 32" xmlns="http://www.w3.org/2000/svg">
  <g transform="matrix(0.0596, 0, 0, 0.0596, 0, 0)">
    <path d="M447.83, 64L64, 64A42.72 42.72 0 0 0 21.28, 106.72L21.28, 170.64L64, 170.64L64, 106.72L447.83, 106.72L447.83, 405.28L298.64, 405.28L298.64, 448L448, 448A42.72 42.72 0 0 0 490.72, 405.28L490.72, 106.72A42.72 42.72 0 0 0 448, 64zM21.28, 383.58L21.28, 447.5L85.19, 447.5A63.91 63.91 0 0 0 21.28, 383.58zM21.28, 298.3L21.28, 341A106.63 106.63 0 0 1 127.92, 447.66L127.92, 448L170.64, 448A149.19 149.19 0 0 0 21.64, 298.64L21.31, 298.64zM21.28, 213.03L21.28, 255.75C127.28, 255.65 213.28, 341.5 213.36, 447.5L213.36, 448L256.08, 448C255.62, 318.54 150.74, 213.73 21.28, 213.36z" fill="#727272" fill-opacity="1" class="Black" />
  </g>
</svg>