<?xml version='1.0' encoding='UTF-8'?>
<svg viewBox="-2 -4.3625 32 32" xmlns="http://www.w3.org/2000/svg">
  <g transform="matrix(0.0455, 0, 0, 0.0455, 0, 0)">
    <path d="M148.6, 304C156.8, 372.5 216, 419.5 294.6, 415.3C345.8, 458.6 431.4, 461.1 481, 409.7C550.2, 410.8 599.5, 365.1 612.5, 310.2C627.3, 247.7 594.3, 177.7 520.4, 155.1C487.4, 67 389, 53.6 333.9, 70.1C276.6, 87.4 249.6, 123.3 234.6, 179.8C226.8, 182.5 208.1, 188.7 189.6, 203.9C201.3, 203.9 204.8, 212.8 204.8, 223.4L204.8, 243.8C204.8, 254.5 196.1, 263.3 185.3, 263.3L165.1, 263.3C154.4, 263.3 145.6, 257.3 145.6, 246.6L145.6, 240L98.8, 240C95, 240 88, 244.3 88, 251.9L88, 292.3C88, 298.7 93.3, 304.1 99.7, 304.1L148.6, 304.1zM376, 312C365.3, 358.3 397.7, 384.4 431.3, 398.8C324.1, 432.6 259.7, 348 296, 288C262.8, 309.6 262.3, 359.2 266.8, 380.9C248.9, 368.5 213, 348.5 209.4, 301.1C206.4, 261.2 230.9, 225.4 266.4, 207.2C297, 191.4 369.9, 198.7 400, 248C385.9, 200 346.2, 177.9 298.2, 173.2C329.1, 142.5 362.6, 122.9 412.4, 129.5C482.2, 138.8 545.6, 212.3 480.1, 280C515.1, 263.7 528.8, 225.6 527.6, 203.1L538.1, 222.7C549.9, 244.7 553.3, 270.3 547.5, 294.7C538.3, 333.7 506.9, 363.5 467.8, 371.2C435.7, 377.5 384.7, 366.1 376, 312zM128, 208L88.2, 208C79.3, 208 72, 200.7 72, 191.8L72, 152.2C72, 143.3 79.3, 136 88.2, 136L128, 136C136.9, 136 144.2, 143.3 144.2, 152.2L144.2, 191.8C144.2, 200.7 136.9, 208 128, 208zM10.1, 168C4.5, 168 0, 163.5 0, 157.9L0, 130.1C0, 124.5 4.5, 120 10.1, 120L37.8, 120C43.3, 120 47.9, 124.5 47.9, 130.1L47.9, 157.9C47.9, 163.5 43.4, 168 37.8, 168L10.1, 168zM168, 142.7L168, 121.3C168, 116.2 172.2, 112 177.3, 112L198.7, 112C203.8, 112 208, 116.2 208, 121.3L208, 142.7C208, 147.8 203.8, 152 198.7, 152L177.3, 152C172.2, 152 168, 147.8 168, 142.7zM56, 235.5L56, 260.5C56, 266.8 50.9, 272 44.6, 272L19.4, 272C13.1, 272 8, 266.8 8, 260.5L8, 235.5C8, 229.2 13.1, 224 19.4, 224L44.5, 224C50.9, 224 56, 229.2 56, 235.5z" fill="#727272" fill-opacity="1" class="Black" />
  </g>
</svg>