<?xml version='1.0' encoding='UTF-8'?>
<svg viewBox="-2 -2 32 32" xmlns="http://www.w3.org/2000/svg">
  <g transform="matrix(0.0547, 0, 0, 0.0547, 0, 0)">
    <path d="M502.285, 159.704L268.285, 3.704C260.298, -1.211 251.774, -1.256 243.714, 3.704L9.714, 159.704C3.714, 163.703 0, 170.847 0, 177.989L0, 333.988C0, 341.131 3.714, 348.274 9.715, 352.274L243.715, 508.296C251.702, 513.211 260.226, 513.256 268.286, 508.296L502.286, 352.274C508.286, 348.275 512.001, 341.131 512.001, 333.988L512.001, 177.989C512, 170.847 508.286, 163.703 502.285, 159.704zM278, 63.131L450.286, 177.989L373.429, 229.418L278, 165.703L278, 63.131zM234, 63.131L234, 165.703L138.571, 229.418L61.714, 177.989L234, 63.131zM44, 219.132L99.143, 255.989L44, 292.846L44, 219.132zM234, 448.847L61.714, 333.989L138.571, 282.56L234, 346.275L234, 448.847zM256, 307.989L178.285, 255.989L256, 203.989L333.715, 255.989L256, 307.989zM278, 448.847L278, 346.275L373.429, 282.56L450.286, 333.989L278, 448.847zM468, 292.846L412.857, 255.989L468, 219.132L468, 292.846z" fill="#727272" fill-opacity="1" class="Black" />
  </g>
</svg>