<?xml version='1.0' encoding='UTF-8'?>
<svg viewBox="-2 -1.5484 32 32" xmlns="http://www.w3.org/2000/svg">
  <g transform="matrix(0.0565, 0, 0, 0.0565, 0, 0)">
    <path d="M247.6, 8C104.7, 8 0, 123.1 0, 256C0, 394.5 113.6, 504 247.6, 504C377.5, 504 496, 403.1 496, 256C496, 118.1 389.4, 8 247.6, 8zM248.4, 458.8C135.9, 458.8 44.7, 365.8 44.7, 256C44.7, 150.6 130.2, 52.7 248.4, 52.7C361, 52.7 451.3, 142.2 451.2, 256C451.2, 377.7 351.6, 458.8 248.4, 458.8zM316.7, 186L263.5, 186L263.5, 323.2L316.7, 323.2C338.1, 323.2 386.7, 318.1 386.7, 254.6C386.7, 191.2 338.1, 186 316.7, 186zM317.5, 294.5L297.6, 294.5L297.6, 214.8L317, 214.7C320.8, 214.7 352, 212.6 352, 254.6C352, 279.2 341.5, 294.5 317.5, 294.5zM203.7, 186L135.5, 186L135.5, 323.3L170.1, 323.3L170.1, 279L197.1, 279C251.2, 279 254.2, 241.5 254.2, 232.5C254.2, 201.5 237.4, 186 203.7, 186zM198.8, 253.3L169.6, 253.3L169.6, 211.7L197.9, 211.7C228.8, 211.7 226.7, 253.3 198.8, 253.3z" fill="#727272" fill-opacity="1" class="Black" />
  </g>
</svg>