<?xml version='1.0' encoding='UTF-8'?>
<svg viewBox="-2 -1.5484 32 32" xmlns="http://www.w3.org/2000/svg">
  <g transform="matrix(0.0565, 0, 0, 0.0565, 0, 0)">
    <path d="M247.6, 8C387.4, 8 496, 115.9 496, 256C496, 403.2 377.5, 504 247.6, 504C113.1, 504 0, 393.2 0, 256C0, 123.1 104.7, 8 247.6, 8zM55.8, 189.1C48.4, 209.5 44.7, 231.8 44.7, 256C44.7, 366.9 136.8, 458.4 248.4, 458.4C370.8, 458.4 425.6, 356.6 426.9, 354.3L333.5, 312.7C325.8, 349.8 292.3, 365.7 265.3, 368.1L265.3, 406.2L236.5, 406.2L236.5, 368C209, 367.7 183.9, 357.8 161.2, 338.3L195.3, 303.8C227, 333.2 281.7, 335.6 281.7, 301.6C281.7, 295.4 279.5, 290.4 275.1, 286.5C260.9, 280.5 273.3, 286.4 55.8, 189.1zM248.4, 52.3C210, 52.3 136, 61 77.9, 145.3L172.7, 187.8C182.7, 156.5 213.1, 144.9 236.5, 143.5L236.5, 105.4L265.3, 105.4L265.3, 143.5C288, 144.7 308.7, 152.4 327.3, 166.5L295, 199.7C252.3, 169.8 211.5, 191.7 225, 210.8C278.4, 234.9 268.8, 230.6 318, 252.4L445.1, 309.1C449.2, 291.7 451.3, 274 451.3, 256C451.3, 199 431.5, 151 392, 112.1C352.7, 72.2 304.8, 52.3 248.4, 52.3z" fill="#727272" fill-opacity="1" class="Black" />
  </g>
</svg>