<?xml version='1.0' encoding='UTF-8'?>
<svg viewBox="-2 -1.5484 32 32" xmlns="http://www.w3.org/2000/svg">
  <g transform="matrix(0.0565, 0, 0, 0.0565, 0, 0)">
    <path d="M247.6, 8C389.4, 8 496, 118.1 496, 256C496, 403.1 377.5, 504 247.6, 504C113.6, 504 0, 394.5 0, 256C0, 123.1 104.7, 8 247.6, 8zM248.4, 52.7C130.2, 52.7 44.7, 150.6 44.7, 256C44.7, 365.8 135.9, 458.8 248.4, 458.8C351.6, 458.8 451.2, 377.7 451.2, 256C451.3, 142.2 361, 52.7 248.4, 52.7zM349.4, 185.1C357.2, 185.1 363.1, 191.2 363.1, 198.8L363.1, 381.3C363.1, 389 357, 395 349.4, 395L214.3, 395C206.6, 395 200.6, 389 200.6, 381.3L200.6, 327.3L146.6, 327.3C138.8, 327.3 132.9, 321.3 132.9, 313.6L132.9, 131.1C132.9, 122.9 139.5, 118.4 145.3, 117.4L281.7, 117.4C289.4, 117.4 295.4, 123.4 295.4, 131.1L295.4, 185.1L349.4, 185.1zM159.9, 300.3L200.6, 300.3L200.6, 198.9C200.6, 191.5 206.4, 186.3 212.6, 185.2L268.4, 185.2L268.4, 144.9L159.9, 144.9L159.9, 300.3zM336.1, 212.2L227.6, 212.2L227.6, 367.6L336.1, 367.6L336.1, 212.2z" fill="#727272" fill-opacity="1" class="Black" />
  </g>
</svg>