<?xml version='1.0' encoding='UTF-8'?>
<svg viewBox="-2 -1.5484 32 32" xmlns="http://www.w3.org/2000/svg">
  <g transform="matrix(0.0565, 0, 0, 0.0565, 0, 0)">
    <path d="M247.6, 8C389.4, 8 496, 118.1 496, 256C496, 403.1 377.5, 504 247.6, 504C113.6, 504 0, 394.5 0, 256C0, 123.1 104.7, 8 247.6, 8zM248.4, 52.7C130.2, 52.7 44.7, 150.6 44.7, 256C44.7, 365.8 135.9, 458.8 248.4, 458.8C351.6, 458.8 451.2, 377.7 451.2, 256C451.3, 142.2 361, 52.7 248.4, 52.7zM137.7, 221C150.7, 137.1 218.2, 125.3 246.6, 125.3C346.4, 125.3 374.1, 207.8 374.1, 259.5C374.1, 323.1 333.1, 392.4 245.2, 392.4C206.3, 392.4 146.1, 372.4 135.8, 295.4L198.3, 295.4C199.8, 325.5 217.9, 340.6 252.8, 340.6C276.1, 340.6 310.8, 322.4 310.8, 257.8C310.8, 175.3 261.7, 177.2 254.1, 177.2C221, 177.2 202.4, 191.8 198.3, 221L216.5, 221L167.3, 270.2L118.3, 221L137.7, 221z" fill="#727272" fill-opacity="1" class="Black" />
  </g>
</svg>