<?xml version='1.0' encoding='UTF-8'?>
<svg viewBox="-3.7597 -2 32 32" xmlns="http://www.w3.org/2000/svg">
  <g transform="matrix(0.0547, 0, 0, 0.0547, 0, 0)">
    <path d="M225.82, 0C226.08, 0.15 442.39, 124.51 442.94, 124.72C445.94, 125.9 446.64, 128.18 446.64, 131.28Q446.53, 256.45 446.64, 381.64A5.88 5.88 0 0 1 443.26, 387.42C421.89, 399.42 235.4, 505.71 224.33, 512L221.33, 512C142, 466.34 3.08, 386.56 2.93, 386.48A3.29 3.29 0 0 1 1.05, 383.24C1.05, 382.37 1.05, 157.3 1, 130.14A5 5 0 0 1 3.93, 125.21C27.19, 112.11 213.2, 6 224.07, 0zM215.4, 20.42L215.18, 20.26Q118.06, 75.55 21, 130.87C21, 130.99 21.08, 131.1 21.13, 131.22L51.99, 142.86C44.28, 148.86 43.67, 148.86 41.34, 147.99C41.24, 147.99 17.17, 138.71 14.54, 137.99L14.54, 368.42C15.42, 367.01 78.61, 257.51 78.67, 257.42C80.29, 254.6 81.67, 255.5 87.79, 255.9C89.19, 255.99 89.27, 256.12 88.57, 257.32C47.38, 328.65 52.17, 320.32 21.09, 374.26C20.28, 375.66 20.48, 375.39 22.34, 375.39L208.84, 375.39C210.28, 375.39 210.53, 375.16 210.54, 373.75L210.54, 364.87C210.54, 363.53 212.9, 364.06 192.17, 363.87C184.71, 363.8 178.03, 360.65 170.79, 351.17C163.41, 341.51 156.17, 331.74 148.94, 321.96C146.66, 318.88 145.49, 319.58 132.18, 319.58C130.43, 319.58 130.4, 319.58 130.42, 321.4C130.71, 347.61 130.57, 346.67 131.42, 354.06C131.94, 358.43 133.58, 358.26 141.11, 358.87C144.25, 359.13 144.99, 362.95 141.63, 363.79C140.06, 364.18 110.03, 364.3 107.96, 363.69A2.42 2.42 0 0 1 108.26, 358.96C111.55, 358.2 114.42, 359.77 114.92, 354.52C116.22, 340.86 116.09, 345.52 116.02, 275.1C116.02, 264.28 115.67, 262.52 110.66, 261.55C109.44, 261.31 107.12, 261.39 105.97, 261C103.09, 260 103.97, 256.16 107.74, 256.15C141.41, 256.15 153.82, 255.08 163.8, 261.01C171.54, 265.62 175.8, 272.49 176.31, 281.41C177.19, 296 169.8, 303.76 161.31, 314A1.46 1.46 0 0 0 161.31, 316.22C163.91, 319.47 166.31, 322.85 169.02, 326.05C196.58, 359.28 193.13, 356.59 210.3, 359.11C211.19, 359.24 211.3, 358.69 211.3, 357.96L211.3, 346.96C211.3, 345.96 211.62, 345.53 212.71, 345.7A72.37 72.37 0 0 0 236.29, 345.4C237.37, 345.25 237.79, 345.6 237.77, 346.73C237.77, 346.84 238.65, 373.42 238.64, 373.53C238.59, 375.05 239.31, 375.15 240.53, 375.15L427.24, 375.15Q386.51, 304.6 346, 234.33C348.26, 233.67 345.6, 234.33 352.69, 232.94C354.69, 232.55 354.74, 232.53 355.8, 234.38C363.11, 247.02 433.11, 368.38 433.17, 368.44L433.17, 138C431.45, 138.5 329.87, 176.72 327.41, 177.68C326.33, 178.1 325.86, 177.88 325.5, 176.8C324.87, 174.9 324.16, 173.04 323.41, 171.18C323.09, 170.39 323.32, 170.05 324.06, 169.79C324.16, 169.79 419.59, 133.94 427.06, 131.02C361.64, 93.45 296.5, 56.02 231.06, 18.42L317.88, 168.81L317.6, 169.14C308.03, 168.24 307.14, 167.54 305.8, 165.2C304.8, 163.51 232.3, 37.49 223.8, 23.04C214.7, 37.71 140.24, 169.25 138.43, 169.36C135.5, 169.53 132.55, 169.44 129.18, 169.44Q172.43, 94.7 215.36, 20.44zM267.33, 150.34A37.68 37.68 0 0 0 272.87, 149.49C274.56, 149.19 275.4, 149.69 275.47, 151.41C275.47, 151.52 275.54, 170.47 274.61, 171.86C273.68, 173.25 272.73, 173.08 272.01, 171.67C267.01, 161.98 278.23, 162.01 232.89, 159.67C232.19, 159.67 231.89, 159.9 231.89, 160.6C231.89, 160.73 235.61, 282.6 235.62, 282.71C235.62, 283.6 236.14, 283.91 236.83, 284.22A83.92 83.92 0 0 1 245.53, 288.27C252.84, 292.6 256.91, 299.11 257.94, 307.58C259.38, 319.38 255.17, 343.35 225.73, 344.72C222.98, 344.85 197.47, 345.8 191.59, 321.47C186.93, 302.21 199.85, 288.77 211.48, 285.07A2.45 2.45 0 0 0 213.48, 282.41C213.58, 276.78 216.48, 175.31 217.19, 161.06C217.24, 159.98 216.57, 159.9 215.84, 159.91C183.49, 160.43 179.09, 159.57 175.62, 168.43C173.2, 174.61 171.48, 169.75 171.67, 168.66Q173.26, 159.66 174.98, 150.66C175.38, 148.55 176.41, 148.05 178.41, 148.8C184, 150.91 185.13, 150.5 215.66, 150.72C217.39, 150.72 217.44, 150.64 217.48, 148.87C218.16, 121.38 218.06, 126.28 218.48, 119.32A2.69 2.69 0 0 0 216.85, 116.52C211.25, 113.61 208.1, 108.97 207.95, 102.65C207.6, 87.84 225.67, 80.98 235.33, 91.14C242.17, 98.33 241.13, 110.05 232.88, 115.29A4.35 4.35 0 0 0 230.66, 119.63C230.66, 120.22 230.55, 115.32 231.66, 149.68C231.66, 150.58 232.09, 150.8 232.9, 150.79C233, 150.79 255.9, 150.7 267.37, 150.42zM68.27, 141.7C88.11, 137.19 100.95, 141.14 120.76, 143.39C123.52, 143.7 124.5, 144.61 124.38, 147.39C124.17, 152.39 123.22, 169.72 123.14, 170.54A2.65 2.65 0 0 1 121.51, 172.88C117.45, 174.58 117.9, 168.43 117.51, 165.59C114.38, 143.16 43.64, 132.89 42.88, 190.99C42.57, 214.91 59.88, 244.62 96.96, 241.87C124.2, 239.87 115.96, 221.68 121.8, 221.4A2.72 2.72 0 0 1 124.8, 224.76C122.97, 235.61 121.38, 243.71 121.35, 243.91C119.81, 253.08 34.65, 266 28, 201.85C25.29, 176 38.44, 148.48 68.27, 141.7zM148.27, 229.37L128.78, 229.37A2.57 2.57 0 0 1 126.12, 227.58C128.5, 223.83 132.01, 228.5 131.98, 221.44C131.9, 195.69 132.19, 183.44 132.21, 181.34C132.21, 177.92 131.68, 176.69 128.89, 176.4C121.89, 175.68 125.78, 173.03 127.78, 173.02C139.62, 172.92 150.4, 172.84 157.83, 173.74C166.6, 174.81 174.54, 186.37 165.76, 196.36C163.76, 198.61 161.76, 200.78 159.62, 203.09C160.57, 204.24 166.52, 211.91 176.9, 222.77C179.56, 225.55 183.05, 226.28 186.78, 225.9A2.21 2.21 0 0 0 189.01, 223.78C189.31, 220.36 189.27, 228.51 189.46, 183.2C189.46, 177.55 189.12, 176.62 186.23, 176.37C182.28, 176.02 182.23, 174.11 185.54, 173L204.63, 172.91C204.95, 172.91 209.12, 173.44 205.63, 176.29C205.63, 176.34 205.47, 176.29 205.39, 176.29C201.78, 176.55 201.45, 177.29 201.39, 180.91C201.12, 224.84 201.46, 221.14 201.8, 223.73C201.91, 224.57 202.07, 225.96 206.9, 225.87C209.39, 225.87 210.76, 229.24 206.9, 229.27C196.53, 229.35 186.16, 229.27 175.79, 229.34C165.12, 229.34 162.32, 223.14 151.58, 208.52C149.98, 206.34 143.27, 206.16 143.38, 208.15C144.26, 224.62 143.38, 225.93 147.38, 225.82C152.13, 225.72 152.11, 229.39 148.21, 229.37zM423.27, 219.22C422.06, 226.35 423.44, 229.6 417.97, 229.56C356.42, 229.14 370.15, 229.34 367.25, 229.25A18.4 18.4 0 0 1 363.62, 228.52C361.09, 227.92 365.1, 227.29 363.24, 222.92C361.81, 219.55 360.46, 216.14 359.13, 212.73A1.94 1.94 0 0 0 357.13, 211.29A138 138 0 0 0 342.55, 211.36A2.23 2.23 0 0 0 340.93, 212.42C339.35, 216.04 337.86, 219.71 336.42, 223.42C335.15, 226.65 344.28, 224.74 348.61, 225.58C351.61, 226.15 353.14, 229.3 349.27, 229.31L322.9, 229.31C319.98, 229.31 319.81, 226.16 322.16, 226.1A6.3 6.3 0 0 0 328.08, 222.63C329.58, 219.63 330.88, 216.63 332.19, 213.54C350.37, 171.4 349.25, 173.37 350.61, 171.93A1.83 1.83 0 0 1 353.61, 171.93C356.54, 175.27 372.01, 216.64 377.23, 223.85C379.23, 226.55 382.97, 225.85 383.59, 225.85C387.2, 225.98 387.59, 224.74 387.72, 221.56C387.81, 219.69 387.8, 222.73 387.79, 180.32C387.79, 175.86 385.43, 176.58 382.24, 176.05C381.98, 176.05 379.68, 175.42 382.16, 172.99C382.37, 172.79 381.27, 172.75 403.86, 172.84C406.18, 172.84 409.18, 175.59 402.65, 176.29A2.56 2.56 0 0 0 399.99, 179.12C399.92, 180.75 399.8, 218.01 400.28, 220.33A3.06 3.06 0 0 0 403.51, 222.76C416.76, 223.19 418.43, 223.2 419.51, 219.35C421.18, 213.57 423.64, 216.83 423.24, 219.16zM318.55, 283.59C314.31, 283.59 314.13, 280.2 317.94, 280.18C353.85, 280.02 346.05, 280.56 355.13, 279.53C356.81, 279.34 357.51, 279.77 357.38, 281.42C357.12, 284.81 356.74, 288.2 356.38, 291.58C356.13, 293.74 353.18, 294.19 352.98, 291.43C352.6, 286.12 350.83, 286.98 337.35, 286.35C335.77, 286.28 335.71, 286.35 335.71, 287.87L335.71, 304C335.71, 305.65 335.71, 305.6 337.33, 305.47C340.45, 305.22 347.64, 305.81 353.02, 303.95C353.49, 303.79 356.32, 302.16 356.09, 305.71C356.09, 305.92 355.33, 316.06 354.91, 317.1C354.38, 318.39 353.03, 318.61 352.33, 317.42C351.16, 315.42 352.33, 312.34 348.62, 312.12C333.2, 311.22 335.71, 309.57 335.71, 318.12C335.71, 330.37 334.95, 334.23 339.6, 334.36C356.24, 334.84 354, 334.36 356.03, 328.65C356.87, 326.28 359.53, 326.88 359.21, 329.23C358.77, 332.44 358.36, 335.66 357.98, 338.87C357.98, 339.23 357.82, 341.27 353.32, 341.26C316.16, 341.18 318.78, 341.07 318.11, 340.95C315.39, 340.44 315.91, 337.95 318.33, 337.5C319.43, 337.31 322.33, 338.04 322.49, 334.94C324.93, 278.72 322.42, 283.6 318.58, 283.61zM318.14, 174.07C320.6, 174.68 321.27, 175.83 321.09, 178.72C320.76, 184.02 320.75, 187.72 320.54, 188.41C319.88, 190.64 317.39, 190.53 317.2, 188.14C316.82, 183.33 314.15, 180.32 309.63, 178.99C283.35, 171.26 276.82, 194.45 282.46, 209.21C288.34, 224.62 304.46, 225.13 311.32, 222.99C317.24, 221.14 317.2, 216.49 318.23, 215.41C319.46, 214.11 320.48, 213.57 321.35, 216.51C321.35, 216.61 321.92, 228.4 315.35, 229.26C313.75, 229.47 295.97, 232.95 282.67, 225.87C261.67, 214.68 265.93, 190.4 275.79, 180.54C289.79, 166.48 315.7, 173.48 318.11, 174.07zM289.8, 280.14C293.08, 280.14 293.46, 283.14 289.96, 283.57C287.35, 283.89 284.96, 283.15 284.96, 289.03C284.96, 291.03 284.77, 318.08 285.36, 330.48C285.47, 332.77 286.51, 334 288.8, 334.13C310.8, 335.34 303.75, 332.48 307.59, 327.79C309.42, 325.55 310.35, 328.63 310.35, 328.87C310.7, 342.49 306.35, 341.26 305.16, 341.27L267, 341.08C265.07, 340.85 264.94, 338.08 266.58, 337.7C268.58, 337.22 271.52, 338.1 271.71, 334.9C272.71, 319.03 272.28, 290.25 272.05, 287.09C271.78, 283.32 269.25, 283.82 266.37, 283.38C263.9, 283 264.37, 280.16 266.71, 280.16C268.16, 280.14 284.68, 280.13 289.8, 280.14zM258.17, 222.35C258.24, 226.43 261.03, 225.81 264.17, 225.93C266.78, 226.03 266.7, 229.34 264.1, 229.36C257.62, 229.36 250.4, 229.36 242.49, 229.3C238.65, 229.3 239.11, 225.95 242.49, 225.93C246.98, 225.93 245.73, 227.54 245.9, 180.39C245.9, 175.31 242.63, 176.85 241.18, 176.16C238.6, 174.93 239.82, 173.07 241.59, 173.01C242.88, 173.01 261.78, 172.6 262.76, 173.22C263.74, 173.84 264.63, 174.87 262.34, 176.08C261.34, 176.6 258.48, 175.8 258.19, 178.55C258.19, 178.76 257.37, 180.18 258.12, 222.35zM221.26, 496.62A2.93 2.93 0 0 0 224.52, 496.62C241.52, 486.83 406.52, 393.05 421.94, 384.11C421.8, 383.68 433.2, 383.93 240.42, 383.84C239.2, 383.84 238.85, 384.21 238.89, 385.4C238.89, 385.5 240.14, 429.91 240.11, 435.78A28.33 28.33 0 0 1 238.75, 443.49C238.2, 445.32 239.13, 442.99 225.25, 475.72C224.52, 477.44 224.25, 477.93 223.25, 475.64C219.06, 465.3 214.97, 454.92 210.68, 444.64A23.6 23.6 0 0 1 208.68, 433.85C208.84, 431.39 209.48, 417.73 210.19, 385.85C210.19, 383.9 210.19, 383.85 208.19, 383.85L25.19, 383.85C27.77, 385.48 203.51, 486.42 221.19, 496.61zM130.36, 307.87C130.36, 310.27 130.72, 310.66 133.12, 310.87C144.66, 312.04 154.12, 314.61 158.76, 303.55C164.76, 289.09 161.42, 269.14 146.28, 264.71C144.28, 264.12 130.28, 261.95 130.34, 266.22C130.39, 274.26 130.35, 277.83 130.36, 307.87zM236.11, 292.82C236.11, 294.95 237.18, 331.5 237.2, 331.95C237.54, 341.89 211.62, 337.72 211.97, 329.36C212.05, 327.36 213.34, 291.94 213.07, 289.93C198.97, 297.37 198.65, 330.14 219.51, 338.73A17.9 17.9 0 0 0 241.9, 331.66C246.81, 323.9 248.74, 302.19 236.47, 292.66A2.53 2.53 0 0 1 236.11, 292.78zM223.83, 94.82C214, 94.82 214.1, 109.57 223.76, 109.69C233.42, 109.81 233.86, 94.81 223.83, 94.78zM143.68, 198.65C143.68, 200.45 144.09, 201.05 145.85, 201.23C159.47, 202.62 158.36, 190.23 158.01, 187.87C156.32, 176.65 143.63, 177.67 143.66, 180.06C143.71, 184.56 143.63, 193.74 143.68, 198.65zM356, 205.05L349.9, 189.21C347.74, 194.69 345.74, 199.78 343.67, 205.05z" fill="#727272" fill-opacity="1" class="Black" />
  </g>
</svg>