<?xml version='1.0' encoding='UTF-8'?>
<svg viewBox="-4 0 32 32" xmlns="http://www.w3.org/2000/svg">
  <g transform="matrix(0.0625, 0, 0, 0.0625, 0, 0)">
    <path d="M0, 32L34.9, 427.8L192, 480L349.1, 427.8L384, 32L0, 32zM313.1, 112L308.3, 159.3L193, 208.6L192.7, 208.7L304.2, 208.7L291.4, 355.3L193.2, 384L94.4, 354.8L88, 280.9L136.9, 280.9L140.1, 319.2L192.7, 332.5L247.4, 317.1L251.1, 255.5L84.8, 255L84.8, 254.9L84.6, 255L81, 208.7L193.1, 162L199.6, 159.3L76.7, 159.3L70.9, 112L313.1, 112z" fill="#727272" fill-opacity="1" class="Black" />
  </g>
</svg>