<?xml version='1.0' encoding='UTF-8'?>
<svg viewBox="-3.8347 -1.5484 32 32" xmlns="http://www.w3.org/2000/svg">
  <g transform="matrix(0.0565, 0, 0, 0.0565, 0, 0)">
    <path d="M344, 305.5C326.5, 337.1 286.6, 360 248, 360C191.4, 360 144, 312.6 144, 256C144, 199.4 191.4, 152 248, 152C286.6, 152 326.5, 174.9 344, 206.5C357.7, 155.6 385.7, 113.2 431, 88.7C385.7, 39.1 320.5, 8 248, 8C111, 8 0, 119 0, 256C0, 393 111, 504 248, 504C320.5, 504 385.7, 472.9 431, 423.3C385.7, 398.8 357.7, 356.4 344, 305.5z" fill="#727272" fill-opacity="1" class="Black" />
  </g>
</svg>