<?xml version='1.0' encoding='UTF-8'?>
<svg viewBox="-0.8362 -2.5125 32 32" xmlns="http://www.w3.org/2000/svg">
  <g transform="matrix(0.0527, 0, 0, 0.0527, 0, 0)">
    <path d="M82.5, 98.9C81.9, 81.7 84.5, 65.1 95.2, 50.7C95.5, 58.1 96.4, 65.2 99.4, 72.3C105.3, 44.8 119.1, 23 141.7, 6.8C139.8, 12.7 138.2, 18.6 138.7, 24.5C147.4, 17.1 157.5, 6.7 183.1, 1.8C197.8, -1 212.8, -0.2 225.2, 2.8C263.7, 12.1 286.2, 37.1 294.9, 75.1C300.2, 98.2 295.6, 120.1 286.6, 141.5C281.4, 153.9 274.6, 165.9 265.9, 176.6C263.9, 174.7 262, 172.8 260.1, 171C217.3, 130.2 233.3, 145.8 222.7, 133.6C221.6, 132.4 221.7, 131.4 222.6, 130C230.9, 116.5 234.4, 101.8 232.6, 86C231.5, 76.2 228.3, 67.1 221.3, 59.8C206.8, 44.5 182.1, 44.8 167.8, 60.4C156.4, 72.9 153.7, 87.8 156.9, 104C157.1, 105.3 157.3, 106.7 156.9, 107.9C153.5, 121.6 152.3, 135.5 154.4, 149.5C154.5, 150 154.5, 150.6 154.5, 151.1C154.5, 151.4 154.4, 151.6 154.3, 152.2C132.5, 141.2 118.3, 123.9 111.1, 100C102.8, 117.8 100, 135.5 104.5, 154.1C88.9, 138.9 83.2, 119.8 82.5, 98.9zM552.1, 222.1C540.5, 210.5 527.1, 201.7 512, 195.5C499.2, 190.3 486, 187.6 472.1, 188.4C462.1, 189 452.5, 191.5 443.1, 194.8C440.6, 195.7 438, 196.4 435.4, 197C430.5, 198.2 428.1, 193.9 430.7, 190.2C433.9, 185.6 434.1, 186 445.7, 178.2C446.3, 177.8 446.9, 177.4 447.9, 176.7L445.4, 176.7C444.8, 176.7 444.2, 176.9 443.5, 177C424.2, 180.3 412.8, 192.5 394.6, 206.6C384.2, 214.7 380.8, 210.4 382.6, 206.1C384, 202.6 385.9, 199.4 387.7, 196.1C388.7, 194.3 390, 192.7 391.2, 191C391, 190.8 390.7, 190.7 390.5, 190.5C363.5, 208.8 343.8, 232.9 332.8, 263.8C333.1, 264.1 333.5, 264.4 333.8, 264.7C334.1, 264.1 334.3, 263.5 334.7, 263C345.1, 250.9 357.5, 241.2 371.3, 233.2C389.5, 222.6 408.8, 214.9 430, 213C434.3, 212.6 438.7, 212.9 443.1, 212.9C441.3, 213.6 439.6, 213.8 437.8, 214C419.3, 216.4 402.3, 223 386.3, 232.5C356.1, 250.4 331.8, 274.7 311.2, 302.9C310.9, 303.3 310.8, 303.8 310.5, 304.2C325, 309.5 334.5, 321.5 346.6, 329.8C346.8, 329.7 346.9, 329.6 347, 329.4L348.2, 326.7C360.4, 299.8 375.2, 274.4 394.9, 252.2C411.6, 233.4 432.9, 226.9 457.4, 232.2C463.3, 233.5 468.8, 236.6 474.6, 239C476.9, 237.6 479.7, 235.8 482.6, 234.3C491, 230 500, 227.3 509.3, 225.3C524, 222.2 538.8, 220.4 553.8, 224L553.8, 223.5C553.3, 223.1 552.6, 222.7 552.1, 222.1zM316.7, 397.6C277.3, 364.6 293.9, 378.1 274, 362C273.2, 362.9 274, 361.8 272.1, 365C260.9, 384.1 246.6, 400.3 228.1, 412.6C217.8, 419.4 206.6, 424.4 194, 424.4C172.4, 424.4 155.8, 414.9 144.6, 396.6C132.6, 377.1 131.3, 355.9 136.4, 334C144.2, 300.2 166.5, 278.8 175, 269.7C156.3, 263.5 142, 271.4 128.6, 283.6C129.4, 269.7 132.9, 257.4 140.4, 246.3C116.1, 256.9 94.5, 271.3 75.6, 290.2C75.3, 284.4 81, 246.5 81.2, 245.5C81.5, 242.8 80.6, 240.2 78.2, 238.1C54, 262.8 33.7, 289.9 22.1, 322.7C29.5, 316.8 37, 311.3 45.7, 306.5C37.4, 328.8 26.1, 359.3 37.9, 407.6C42.5, 426.6 49.8, 444.4 62, 459.9C64.9, 463.6 68.3, 466.8 71.5, 470.2C71.7, 470 71.9, 469.9 72.1, 469.7C70.7, 462.7 69.9, 455.6 70.6, 447.8C72.8, 451 74.5, 453.8 76.5, 456.4C89.1, 472.4 105.2, 483.8 123.7, 492C148.7, 503.3 174.8, 505.3 201.6, 500.6C256.5, 490.9 292.3, 452 317.6, 401.8C318.6, 400 318.2, 398.9 316.7, 397.6zM488.7, 351.2C479.2, 348.1 466.5, 347 460, 348.3C469.9, 352.3 474.1, 354.9 478.8, 360.3C491.4, 374.7 489.2, 395 473.4, 405.9C461.7, 414 448.5, 416.4 434.5, 415C433.3, 414.9 432.2, 414.6 431.5, 414.4C434.3, 410.7 437.5, 407.4 439.6, 403.6C449, 386.8 445, 361.5 430.9, 347.5C428.8, 345.4 426.3, 343.6 423.9, 341.6C423.6, 342.9 423.8, 343.7 424, 344.4C428.2, 361 415.9, 376.8 399.2, 376.2C391.6, 375.9 385.3, 372.4 379.6, 367.7C360.1, 351.6 340.5, 335.6 321.1, 319.4C315.2, 314.5 308.6, 311.3 301, 310.7C296.4, 310.3 291.7, 310.1 287.1, 309.8C281.2, 309.4 278.3, 307 276.7, 301.4C275.8, 298 275.2, 294.6 274.5, 291.2C273, 283.1 268.3, 278.2 260.2, 277C255.8, 276.3 251.3, 276 246.9, 275.5C233.9, 274.1 227.1, 268.1 224.3, 255.2C219.3, 266.2 222.7, 277.6 231.6, 285.1C236.1, 288.9 240.9, 292.4 245.4, 296.3C250, 300.1 252.8, 305 253.3, 311.1C253.7, 315.8 254.1, 320.6 255.1, 325.2C257.3, 335.8 264, 343.6 272.1, 350.3C288.6, 364 305.1, 377.6 321.6, 391.4C339.5, 406.4 335.5, 424.2 334.6, 447.4C333.7, 470.3 346.8, 490.3 368.1, 498.6C369.1, 499 370.1, 499.2 371.7, 499.7C356, 481.5 361.6, 455.6 372.4, 447.4C372.7, 449.6 372.8, 451.7 373.3, 453.8C382.7, 497.9 418.7, 518 458.3, 510.7C474.3, 507.8 488.9, 501.8 501.2, 490.9C503.2, 489.1 504.9, 486.8 507.1, 484.4C487.8, 489 471.3, 484.5 456.2, 473.8C456.9, 473.5 457.5, 473.5 458.1, 473.5C479.4, 475.3 498.7, 470.1 515.1, 456.1C534.6, 439.5 541.7, 413.2 532.5, 390.1C524.2, 370 508.9, 357.8 488.7, 351.2zM99.4, 179.3C94.1, 170.1 86.2, 163.7 77.3, 158C91, 157.5 103.9, 158.2 116.9, 161.7C109.9, 149.5 108.4, 137 111.9, 123C117.2, 134.9 125.6, 143.1 135.5, 149.8C155.2, 163 171.2, 169.4 182.2, 180C185.6, 183.3 188.5, 187.1 191.8, 190.9C191, 188.8 190.4, 186.8 189.6, 184.9C184.6, 174.3 176.6, 166.3 167, 159.9C165.2, 158.7 164.2, 157.4 163.6, 155.4C160.3, 142.9 160.6, 130.3 162.9, 117.8C163.9, 112.3 165.7, 106.9 167.4, 101.5C168.2, 99.1 169.7, 96.9 171.4, 94.9C172, 101.8 171.4, 120.4 191, 140.9C201.8, 152.2 213.4, 162.8 224.9, 173.6C233.9, 182.1 243.2, 190.3 250.4, 200.4C251.5, 202 252.6, 203.7 254.2, 205.1C249.2, 192.1 240, 181 230, 171.3C220.4, 162 210.6, 152.9 200.8, 143.9C197.5, 140.9 196.2, 137.2 195.7, 133C194.5, 122.6 195.7, 112.4 200, 102.8C200.5, 101.8 201.1, 100.8 201.9, 99.5C202.4, 103.7 202.5, 107.4 203.3, 111.1C208.1, 134.2 223.7, 147.4 252.6, 174.6C262.6, 184 271.9, 193.8 278.2, 206.2C283, 215.5 285.5, 225.2 283.9, 235.8C283.8, 236.4 284.4, 237.5 285, 237.8C291.2, 240.4 295, 244.7 294.7, 252.1C302.4, 249.5 307.2, 244.1 311.1, 237.6C315.3, 257.8 302, 287.9 283.9, 296.3C284.3, 291.8 288.9, 272.9 267.4, 268.6C260.6, 267.3 254.6, 267.3 244.5, 266.5C249.2, 257.5 254.9, 245.9 245, 244.1C220.1, 239.5 192.2, 246 187.2, 248.7C195.4, 249.1 203.5, 249.7 210.7, 252C208.7, 258.5 206.7, 264.7 204.9, 270.9C203, 277.4 207, 285.5 214.2, 280.5C215.4, 279.6 216.5, 278.6 217.5, 277.8C214.4, 295.7 214.6, 293.7 214.7, 296.1C215, 306.3 224.2, 303.9 230.4, 303.4C227.9, 315.2 200.9, 330.7 185, 329.2C192, 324.5 197.7, 318.9 200.9, 311.3C194.4, 312.1 188, 312.9 181.7, 313.7L181.4, 312.8C186.1, 309.4 189.4, 305 191.6, 299.7C200.3, 278.6 188, 261.7 166.6, 259.8C157.5, 259 148.8, 260.6 140.7, 265.3C146.9, 249.7 157.9, 238.7 173.3, 230.8C158.1, 226.5 164.4, 228.1 148.7, 224.5C163.3, 215.2 178.9, 211.3 195.2, 209.9C190, 206.7 147.1, 206.3 125, 230.8C132.9, 232.2 140.5, 233.6 148.2, 235C124.4, 242 104.2, 254.7 85.8, 270.6C86.9, 265.8 88.5, 261.1 89.1, 256.3C89.7, 251.8 89.9, 247.1 89.2, 242.7C87.7, 233.3 80.3, 227.6 69.5, 226.4C61.6, 225.5 53.9, 226.5 46.2, 227.7C45.3, 227.8 44.5, 228 43.3, 227.7C59.1, 212.9 79.3, 206 96.4, 194.2C102.4, 189.7 103.2, 186 99.4, 179.3zM227.8, 206.1C231.1, 222.1 240.4, 231.6 251.6, 230.4C247, 219.1 239.5, 210.9 227.8, 206.1z" fill="#727272" fill-opacity="1" class="Black" />
  </g>
</svg>