<?xml version='1.0' encoding='UTF-8'?>
<svg viewBox="-3.75 -2 32 32" xmlns="http://www.w3.org/2000/svg">
  <g transform="matrix(0.0547, 0, 0, 0.0547, 0, 0)">
    <path d="M326.6, 104L110.4, 104C59.3, 104 19.2, 147.3 19.2, 197.5L19.2, 427C19.2, 477.5 59.3, 512 110.4, 512L337.6, 512C388.7, 512 428.8, 477.5 428.8, 427L428.8, 0L326.6, 104zM153.9, 416.5C136.2, 416.5 121.5, 401.4 121.5, 383.7L121.5, 240.8C121.5, 223.1 136.2, 208.3 153.9, 208.3L294.6, 208.3C312.3, 208.3 326.6, 223.1 326.6, 240.8L326.6, 364.3L377.7, 416.6L153.9, 416.6z" fill="#727272" fill-opacity="1" class="Black" />
  </g>
</svg>