<?xml version='1.0' encoding='UTF-8'?>
<svg viewBox="-2 0.0027 32 32" xmlns="http://www.w3.org/2000/svg">
  <g transform="matrix(0.0625, 0, 0, 0.0625, 0, 0)">
    <path d="M446.5, 68C446.1, 66.5 445.6, 65 445.1, 63.5C444.2, 61 443.1, 58.7 441.8, 56.4C440.4, 54 438.8, 51.6 437.1, 49.5C435, 47 432.7, 44.7 430.2, 42.7C429.1, 41.8 428, 41 426.9, 40.2C425.6, 39.3 424.3, 38.5 422.9, 37.8C421.1, 36.8 419.3, 36 417.4, 35.3C415.7, 34.6 413.9, 34 412, 33.6C408.2, 32.6 404.1, 32.1 400, 32.1L48, 32.1C21.5, 32 0, 53.5 0, 80L0, 432C0, 436.1 0.5, 440.2 1.5, 444C3.5, 451.7 7.3, 458.6 12.5, 464.3C13.5, 465.4 14.6, 466.5 15.8, 467.6C21.5, 472.8 28.4, 476.6 36.1, 478.6C39.9, 479.6 44, 480.1 48.1, 480.1L400.1, 480.1C426.6, 480.1 448.1, 458.6 448.1, 432.1L448.1, 80C448, 75.9 447.5, 71.8 446.5, 68zM416, 432C416, 440.8 408.8, 448 400, 448L224, 448L224, 256L32, 256L32, 80C32, 71.2 39.2, 64 48, 64L224, 64L224, 256L416, 256z" fill="#727272" fill-opacity="1" class="Black" />
  </g>
</svg>