<?xml version='1.0' encoding='UTF-8'?>
<svg viewBox="-2 -4.8 32 32" xmlns="http://www.w3.org/2000/svg">
  <g transform="matrix(0.0438, 0, 0, 0.0438, 0, 0)">
    <path d="M238, 301.2L296.7, 301.2L319, 271L260.3, 271L238, 301.2zM0, 282.9L0, 289.3L81.8, 289.3L86.5, 282.9L0, 282.9zM172.9, 271C164.2, 271 166.9, 267.4 168.3, 265.5C171.1, 261.7 175.9, 255.1 178.7, 251.4C181.5, 247.7 181.5, 245.5 175.9, 245.5L124.9, 245.5L83.8, 301.3L183.9, 301.3C217, 301.3 235.4, 278.8 241.1, 271L172.9, 271zM490.4, 264.1L529.7, 210.7L467.5, 210.7L428.2, 264.1L490.4, 264.1zM95.3, 271L0, 271L0, 277.4L90.6, 277.4L95.3, 271zM206.3, 244.4C203.5, 248.2 198.8, 254.8 196, 258.6C194.6, 260.6 191.9, 264.1 200.6, 264.1L246.2, 264.1C246.2, 264.1 253.5, 254.1 259.7, 245.7C268.1, 234.3 260.4, 210.7 230.5, 210.7L112.6, 210.7L92.2, 238.5L203.6, 238.5C209.2, 238.5 209.1, 240.7 206.3, 244.4zM0, 301.2L73.1, 301.2L77.8, 294.8L0, 294.8L0, 301.2zM323, 301.2L381.7, 301.2L404, 271L345.3, 271C345.2, 271 323, 301.2 323, 301.2zM545, 301.3L640, 301.3L640, 294.9L549.7, 294.9L545, 301.3zM567.3, 271L562.6, 277.4L640, 277.4L640, 271L567.3, 271zM553.8, 289.3L640, 289.3L640, 282.9L558.5, 282.9L553.8, 289.3zM389.6, 210.7L367.1, 241.3L340.9, 241.3L363.4, 210.7L304.7, 210.7L265.4, 264.1L409, 264.1L448.3, 210.7L389.6, 210.7zM423.1, 271C423.1, 271 418.8, 276.9 416.7, 279.7C409.3, 289.7 415.8, 301.3 439.9, 301.3L534.2, 301.3L556.5, 271L423.1, 271z" fill="#727272" fill-opacity="1" class="Black" />
  </g>
</svg>