<?xml version='1.0' encoding='UTF-8'?>
<svg viewBox="-0.4869 -0.4813 32 32" xmlns="http://www.w3.org/2000/svg">
  <g transform="matrix(0.0606, 0, 0, 0.0606, 0, 0)">
    <path d="M251.64, 354.55C250.24, 354.55 163.64, 474.45 162.94, 474.45C162.24, 474.45 76.34, 414 76, 413.25C75.66, 412.5 162.6, 287.55 162.6, 285.85C162.6, 283.65 33, 241.85 25, 238.75C23.7, 238.25 56.4, 136.95 56.7, 136.65C57.3, 135.95 201.1, 183.65 202.2, 183.65C202.6, 183.65 203.1, 183.05 203.2, 182.35C203.6, 180.35 204.2, 33.75 204.9, 32.75C205.7, 31.55 309.4, 32.05 310, 32.45C311.5, 33.45 313.5, 188.55 316.1, 188.55C317.5, 188.55 454.8, 141.55 455.4, 142.25C456.2, 143.15 487.3, 244.45 486.9, 244.85C486, 245.75 346.7, 291.95 346.3, 293.65C346, 295.05 429.1, 415.75 428.8, 416.55C428.5, 417.35 343.3, 480.05 342.5, 480.05C341.5, 479.85 253.5, 354.55 251.6, 354.55z" fill="#727272" fill-opacity="1" class="Black" />
  </g>
</svg>