<?xml version='1.0' encoding='UTF-8'?>
<svg viewBox="-2 -2 32 32" xmlns="http://www.w3.org/2000/svg">
  <g transform="matrix(0.0547, 0, 0, 0.0547, 0, 0)">
    <path d="M81.7, 172.3L0, 172.3L0, 346.7L132.7, 346.7L132.7, 96L81.7, 96L81.7, 172.3zM81.7, 305.7L50.9, 305.7L50.9, 213.4L81.7, 213.4L81.7, 305.7zM378.9, 172.3L378.9, 346.7L460.7, 346.7L460.7, 375.2L378.9, 375.2L378.9, 416L512, 416L512, 172.3L378.9, 172.3zM460.7, 305.7L429.9, 305.7L429.9, 213.4L460.7, 213.4L460.7, 305.7zM225.1, 346.7L307.2, 346.7L307.2, 375.2L225.1, 375.2L225.1, 416L358.4, 416L358.4, 172.3L225.1, 172.3L225.1, 346.7zM276.3, 213.4L307.1, 213.4L307.1, 305.7L276.3, 305.7L276.3, 213.4zM153.3, 96L204.6, 96L204.6, 147L153.3, 147L153.3, 96zM153.3, 172.3L204.6, 172.3L204.6, 346.7L153.3, 346.7L153.3, 172.3z" fill="#727272" fill-opacity="1" class="Black" />
  </g>
</svg>