<?xml version='1.0' encoding='UTF-8'?>
<svg viewBox="-1.5496 -1.5475 32 32" xmlns="http://www.w3.org/2000/svg">
  <g transform="matrix(0.0565, 0, 0, 0.0565, 0, 0)">
    <path d="M87, 481.8L160.7, 481.8L160.7, 408.2L87, 408.2zM25.4, 346.6L25.4, 408.2L87, 408.2L87, 346.6zM491.6, 176.9C468.6, 102.7 409.2, 43.6 335, 20.3C164.9, -32.8 8, 93.7 8, 255.9L103.8, 255.9C103.8, 154.1 204.8, 75.4 311.9, 114.2C351.6, 128.5 383.4, 160.3 397.7, 199.9C436.8, 306.9 358, 407.7 256.3, 407.9L256.3, 408.2L256, 408.2L256, 504C418.6, 504 544.8, 347.2 491.6, 176.9zM256.3, 407.9L256.3, 312.6L160.7, 312.6L160.7, 408.2L256, 408.2L256, 407.9z" fill="#727272" fill-opacity="1" class="Black" />
  </g>
</svg>