<?xml version='1.0' encoding='UTF-8'?>
<svg viewBox="-2 0 32 32" xmlns="http://www.w3.org/2000/svg">
  <g transform="matrix(0.0625, 0, 0, 0.0625, 0, 0)">
    <path d="M225.9, 32C103.3, 32 0, 130.5 0, 252.1C0, 256 0.1, 480 0.1, 480L225.9, 479.8C348.6, 479.8 448, 377.5 448, 255.9C448, 134.3 348.6, 32 225.9, 32zM224, 384C204.6, 384 186.1, 379.7 169.6, 371.9L88.5, 392L111.4, 317C101.6, 298.9 96, 278.1 96, 256C96, 185.3 153.3, 128 224, 128C294.7, 128 352, 185.3 352, 256C352, 326.7 294.7, 384 224, 384z" fill="#727272" fill-opacity="1" class="Black" />
  </g>
</svg>