<?xml version='1.0' encoding='UTF-8'?>
<svg viewBox="-5.0625 -2 32 32" xmlns="http://www.w3.org/2000/svg">
  <g transform="matrix(0.0547, 0, 0, 0.0547, 0, 0)">
    <path d="M397.9, 160L256, 160L256, 19.6L397.9, 160zM304, 192L304, 322C304, 388.8 267.5, 422.1 190.7, 422.1L96, 422.1L96, 84.8L190.7, 84.8C202.7, 84.8 213.8, 85.6 223.8, 87.3L223.8, 3.3C212.9, 1.1 201.4, 0 189.2, 0L0, 0L0, 512L189.2, 512C329.7, 512 400, 447.4 400, 318.1L400, 192L304, 192z" fill="#727272" fill-opacity="1" class="Black" />
  </g>
</svg>