<?xml version='1.0' encoding='UTF-8'?>
<svg viewBox="-2.0019 -4.7986 32 32" xmlns="http://www.w3.org/2000/svg">
  <g transform="matrix(0.0437, 0, 0, 0.0437, 0, 0)">
    <path d="M349.9, 236.3L283.8, 236.3L283.8, 176.9L349.9, 176.9L349.9, 236.3zM349.9, 32L283.8, 32L283.8, 92.7L349.9, 92.7L349.9, 32zM428.1, 176.8L362, 176.8L362, 236.2L428.1, 236.2L428.1, 176.8zM271.8, 104.7L205.7, 104.7L205.7, 164.8L271.8, 164.8L271.8, 104.7zM349.9, 104.7L283.8, 104.7L283.8, 164.8L349.9, 164.8L349.9, 104.7zM626.7, 204.7C612.3, 195 579.1, 191.5 553.6, 196.3C550.3, 172.3 536.9, 151.4 512.5, 132.6L498.5, 123.3L489.2, 137.3C470.8, 165.1 465.8, 210.9 485.5, 241.1C476.8, 245.8 459.7, 252.2 437.1, 251.8L2.4, 251.8C-6.3, 302.6 8.2, 368.6 46.4, 413.9C83.5, 457.8 139.1, 480.1 211.8, 480.1C369.2, 480.1 485.7, 407.6 540.2, 275.9C561.6, 276.3 607.8, 276 631.5, 230.7C633, 228.2 638.1, 217.5 640, 213.6L626.7, 204.7zM115.6, 176.8L49.6, 176.8L49.6, 236.2L115.7, 236.2L115.7, 176.8zM193.7, 176.8L127.6, 176.8L127.6, 236.2L193.7, 236.2L193.7, 176.8zM271.8, 176.8L205.7, 176.8L205.7, 236.2L271.8, 236.2L271.8, 176.8zM193.7, 104.7L127.6, 104.7L127.6, 164.8L193.7, 164.8L193.7, 104.7z" fill="#727272" fill-opacity="1" class="Black" />
  </g>
</svg>