<?xml version='1.0' encoding='UTF-8'?>
<svg viewBox="-2 -1.0673 32 32" xmlns="http://www.w3.org/2000/svg">
  <g transform="matrix(0.0583, 0, 0, 0.0583, 0, 0)">
    <path d="M480, 398.1L336, 315.9L336, 380.6L244.7, 380.6C275.5, 345.6 326.5, 284.7 356.5, 231.3C391.7, 168.7 372.6, 107.9 343.7, 78C339.3, 73.4 281.5, 15.1 177.7, 36.8C118.6, 49.2 88.3, 80.2 73.4, 104.1C60.3, 125 56.4, 143.9 55.2, 151.8C49.7, 184.8 74.6, 218.9 111.9, 218.9C143.6, 218.9 169.2, 193.2 169.2, 161.5C169.2, 134.4 149.5, 109.4 121.2, 104.7C123, 97.4 138.9, 83.6 147.5, 80C188.6, 62.7 225.5, 85.2 230.8, 113.5C239.1, 157.8 193.7, 203.9 161.1, 241.1C84.5, 328.1 18.3, 396.8 0, 415.9L336, 415.8L336, 480zM369.9, 371L417, 398.2L369.9, 425.4zM134.2, 161.4C134.2, 173.8 124.2, 183.8 111.8, 183.8C99.4, 183.8 89.4, 173.8 89.4, 161.4C89.4, 149 99.4, 139 111.8, 139C124.2, 139 134.2, 149.1 134.2, 161.4zM82.5, 380.5C108.1, 353.1 180.2, 275.8 233.3, 210.6C268.4, 167.5 273.6, 128.2 261.7, 97.9C254.3, 79.1 244.2, 67.7 237.4, 62.2C282.7, 64.3 305.4, 85.6 319.6, 100.5C319.6, 100.5 362, 148.7 325.4, 213.8C288.4, 279.7 214.5, 361.3 196.9, 380.5z" fill="#727272" fill-opacity="1" class="Black" />
  </g>
</svg>