<?xml version='1.0' encoding='UTF-8'?>
<svg viewBox="-1.9718 0.0604 32 32" xmlns="http://www.w3.org/2000/svg">
  <g transform="matrix(0.0626, 0, 0, 0.0626, 0, 0)">
    <path d="M319.5, 114.7C297.3, 100.7 276, 95.2 254.8, 81.2C241.8, 72.4 223.5, 51.2 208.3, 32.9C205.6, 62.2 196.8, 74.1 186.3, 82.4C165, 99.4 151.5, 104.6 132.8, 114.7C117, 123 32, 181.5 32, 290.5C32, 399.7 123.8, 480 225.8, 480C327.5, 480 416, 406 416, 294C416, 181.7 333, 123 319.5, 114.7zM322, 440.3C301.9, 460.4 231.9, 469 205.3, 444.5C200.5, 439.7 205.6, 432.5 211.8, 432.5C211.8, 432.5 228.8, 445.8 263.3, 445.8C290.3, 445.8 309.3, 438.1 317.8, 431.8C323.9, 427.2 326.2, 436.1 322, 440.3zM267.5, 387.7C276.2, 384.1 296.5, 383.9 304.3, 389C308.4, 391.8 320.4, 407.8 310.5, 412.7C302.1, 416.9 309.3, 397 284, 397C269.3, 397 264.5, 402.2 257.3, 408C250.3, 414 247.5, 416 245.1, 412.7C239.1, 404.5 261, 390.4 267.5, 387.7zM360, 405C344.8, 404 314.5, 356.2 295, 355.5C264.1, 354.6 190.9, 436.2 133.7, 397.5C94.9, 370.9 119.1, 292.7 185.5, 292.3C235, 291.8 269.3, 341.3 294, 340.8C315.3, 340.5 355.8, 299 375.8, 299C424.5, 299 399.1, 408.3 360, 405z" fill="#727272" fill-opacity="1" class="Black" />
  </g>
</svg>