<?xml version='1.0' encoding='UTF-8'?>
<svg viewBox="-1.9956 -4.7961 32 32" xmlns="http://www.w3.org/2000/svg">
  <g transform="matrix(0.0438, 0, 0, 0.0438, 0, 0)">
    <path d="M606, 189.5L551.2, 299.4L496.3, 189.5L458.8, 189.5L469.7, 210.1C458.2, 191.1 433.8, 184.1 406.4, 184.1C374.6, 184.1 338.5, 192.8 334.9, 227.2L368.6, 227.2C370, 213.4 384.3, 205.4 403.6, 205.4C429.6, 205.4 444.6, 215 444.6, 238.4L444.6, 241.8C431.9, 241.8 416.6, 241.9 402.9, 242.2C360.5, 243.1 333.3, 252.2 326.2, 276.6C327.2, 271.4 327.7, 266 327.7, 260.4C327.7, 208.3 288, 184.2 252.3, 184.2C231, 184.2 209.3, 189.7 193.6, 208.4L193.6, 127.8L161.5, 127.8L161.5, 297.3C161.5, 307.6 160.9, 320.2 160.4, 330.4L191.9, 330.4C192.6, 324.1 193, 317.5 193, 310.9C206.6, 327.5 228.4, 335.8 251.7, 335.8C288.6, 335.8 316.6, 313.9 325, 281.6C324.5, 284.4 324.3, 287.4 324.3, 290.6C324.3, 314.7 345.4, 335.6 384.9, 335.6C411.5, 335.6 430.7, 329.9 446.8, 310.1C446.8, 316.7 447.1, 323.4 447.9, 330.3L477.7, 330.3C477, 322.1 476.7, 312.8 476.7, 303.5L476.7, 237.9C476.7, 228.6 475, 220.7 471.9, 214.1L533.4, 330.2L504.9, 384.3L540.8, 384.3L640, 189.5zM243.7, 313.8C214.1, 313.8 193.5, 292.3 193.5, 260C193.5, 227.6 214.1, 206.2 243.7, 206.2C273.5, 206.2 293.9, 227.6 293.9, 260C293.9, 292.3 273.5, 313.8 243.7, 313.8zM444.6, 266.5C444.6, 296.5 426.7, 314.9 393, 314.9C367.9, 314.9 358, 301.5 358, 289.1C358, 270 376.1, 264.7 405.2, 263.8C418.3, 263.3 432.8, 263.2 444.6, 263.2zM32.7, 268.1L161.5, 268.1L161.5, 259.6C161.5, 207.9 128.4, 184.2 83.1, 184.2C26.3, 184.2 0.1, 215 0.1, 261.8C0.1, 304.3 25.4, 335.8 82.6, 335.8C114, 335.8 150.6, 324.1 157, 289.7L123.9, 289.7C111.9, 325.5 36.2, 326.4 32.7, 268.1zM127.7, 246.7L33.3, 246.7C40.2, 190.1 125.4, 192 127.7, 246.7z" fill="#727272" fill-opacity="1" class="Black" />
  </g>
</svg>