<?xml version='1.0' encoding='UTF-8'?>
<svg viewBox="-1.5481 -1.5482 32 32" xmlns="http://www.w3.org/2000/svg">
  <g transform="matrix(0.0565, 0, 0, 0.0565, 0, 0)">
    <path d="M25.714, 228.163C25.825, 228.001 25.944, 227.84 26.056, 227.678C26.035, 227.84 26.011, 228.001 25.991, 228.163L25.714, 228.163zM486.286, 243.671C486.286, 199.639 478.532, 159.206 457.485, 121.266C416.498, 47.879 343.912, 8.001 258.893, 8.001C118.962, 7.724 40.617, 113.214 26.056, 227.679C68.485, 166.367 143.129, 106.303 246.431, 102.713C246.431, 102.713 356.097, 102.713 345.85, 207.67L169.997, 207.67C176.366, 170.284 188.551, 148.684 204.336, 128.744C129.288, 163.637 82.486, 224.84 83.594, 317.059C84.424, 388.507 133.718, 461.895 204.337, 489.035C287.694, 520.882 397.113, 496.235 444.469, 467.711L444.469, 363.307C363.605, 419.801 173.598, 424.232 172.214, 295.735L486.287, 295.735L486.287, 243.671z" fill="#727272" fill-opacity="1" class="Black" />
  </g>
</svg>