<?xml version='1.0' encoding='UTF-8'?>
<svg viewBox="-2 0 32 32" xmlns="http://www.w3.org/2000/svg">
  <g transform="matrix(0.0625, 0, 0, 0.0625, 0, 0)">
    <path d="M425.6, 32L22.4, 32C10, 32 0, 42 0, 54.4L0, 457.6C0, 470 10, 480 22.4, 480L425.6, 480C438, 480 448, 470 448, 457.6L448, 54.4C448, 42 438, 32 425.6, 32M164.3, 355.5L124.5, 355.5L124.5, 156.5L164.3, 156.5L164.3, 355.5zM323.6, 355.5L204.1, 355.5L204.1, 315.7L323.6, 315.7L323.6, 355.5zM323.6, 275.9L204.1, 275.9L204.1, 236.1L323.6, 236.1L323.6, 275.9zM323.6, 196.2L204.1, 196.2L204.1, 156.4L323.6, 156.4L323.6, 196.2z" fill="#727272" fill-opacity="1" class="Black" />
  </g>
</svg>