<?xml version='1.0' encoding='UTF-8'?>
<svg viewBox="-2 0 32 32" xmlns="http://www.w3.org/2000/svg">
  <g transform="matrix(0.0625, 0, 0, 0.0625, 0, 0)">
    <path d="M0, 32C477.6, 32 366.6, 349.3 367.1, 398.3L448, 480L422, 480L351.6, 408.8C312.6, 413 227.2, 443.3 137.2, 371.8C47, 300.3 52, 214.7 0, 32zM79.7, 78C30, 54.5 74.5, 87.2 74.5, 87.2C119.7, 118.4 140.5, 160.9 164.7, 207.1C196.2, 267.3 243.7, 346.8 308.9, 374.8C373.9, 402.8 343.1, 387.3 314.9, 366.3C286.7, 345.1 246.7, 279.3 223.9, 236.1C192.2, 176.1 162.9, 117.5 79.7, 78z" fill="#727272" fill-opacity="1" class="Black" />
  </g>
</svg>