<?xml version='1.0' encoding='UTF-8'?>
<svg viewBox="-4 0 32 32" xmlns="http://www.w3.org/2000/svg">
  <g transform="matrix(0.0625, 0, 0, 0.0625, 0, 0)">
    <path d="M384, 348C382.25, 358.75 370.25, 458 368.5, 480C250.621, 475.701 148.605, 475.257 0, 480L0, 454.5C45.457, 445.552 60.627, 446.481 61, 419.25C62.793, 346.928 64.524, 175.107 61, 97.25C59.971, 68.79 48.87, 70.485 0, 61.25L0, 35.75C73.886, 38.108 255.933, 44.301 362.999, 32C359.499, 70.25 355.249, 158.5 355.249, 158.5L332, 158.5C320.947, 115.665 313.241, 68 277.25, 68L140.25, 68C130, 68 129.5, 71.5 129.5, 77.75L129.5, 241.5C187.5, 242 218, 239 218, 239C247.77, 238.049 245.56, 230.498 258.75, 173.749L284.5, 173.749C280.093, 275.1 280.59, 235.578 282.75, 333.999L257, 333.999C247.845, 293.913 247.935, 272.954 217.499, 272.499C217.499, 272.499 195.999, 270.499 129.499, 270.499L129.499, 409.499C129.499, 435.499 143.749, 447.749 173.749, 447.749L263, 447.749C326.636, 447.749 329.564, 422.753 361.751, 347.999L384, 347.999z" fill="#727272" fill-opacity="1" class="Black" />
  </g>
</svg>