<?xml version='1.0' encoding='UTF-8'?>
<svg viewBox="-4.0086 -0.0174 32 32" xmlns="http://www.w3.org/2000/svg">
  <g transform="matrix(0.0625, 0, 0, 0.0625, 0, 0)">
    <path d="M120.82, 132.21C122.42, 154.52 103.27, 153.8 99.21, 153.8C30.28, 153.8 25.57, 152.8 15.63, 157.14C15.07, 157.36 14.89, 157.14 15.26, 156.77L123.79, 46.45C124.17, 46.08 124.39, 46.23 124.17, 46.82C119.82, 56.81 120.82, 61.91 120.82, 132.21zM199.82, 440.21C185.14, 403.13 212.82, 363.28 252.34, 363.59C269.83, 363.59 274.94, 386.8 260.29, 395.01C254.1, 398.31 235.34, 396.75 235.15, 414.21C235.1, 431.3 254.82, 439.21 266.35, 439.1A45.64 45.64 0 0 0 312, 393.45L312, 393.37C312, 381.74 304.21, 346.15 264.46, 338.03C256.74, 336.49 199.46, 331.68 196.11, 287.51C192.37, 304.44 178.71, 351 153, 356.6C144.26, 358.54 83.32, 364.24 40.08, 319.83C40.08, 319.83 21.51, 304.6 11.85, 261.88C8.47, 246.13 2.57, 222.18 0.71, 199.88C0.71, 181.88 11.85, 169.43 25.78, 167.68C106.78, 167.68 115.78, 170 126.78, 159.88C136.6, 150.64 134.58, 144.38 134.58, 57.1C135.58, 48.8 142.37, 26.29 187.99, 32.96C193.99, 33.82 219.9, 37.14 225.47, 63.6L289.73, 74.75C310.16, 78.46 360.67, 81.75 370.33, 132.69C392.99, 253.78 379.24, 371.15 378.13, 371.15C362.15, 485.53 267.06, 480 267.06, 480C248.11, 479.77 212.81, 470.6 199.79, 440.17zM280.76, 235.37C279.76, 237.29 278.56, 241.37 281.61, 242.37C295.7, 247.3 321.36, 249.21 327.49, 247.9C330.6, 247.65 330.54, 243.47 329.97, 241.25C326.44, 219.4 289.14, 214.75 280.73, 235.33z" fill="#727272" fill-opacity="1" class="Black" />
  </g>
</svg>