<?xml version='1.0' encoding='UTF-8'?>
<svg viewBox="-1.5484 -1.5492 32 32" xmlns="http://www.w3.org/2000/svg">
  <g transform="matrix(0.0565, 0, 0, 0.0565, 0, 0)">
    <path d="M256.55, 8C116.52, 8 8, 110.34 8, 248.57C8, 320.87 37.71, 383.35 86.07, 426.51C94.42, 434.02 92.7, 438.37 94.12, 484.74A19.92 19.92 0 0 0 122, 502.31C174.91, 479.01 175.59, 477.17 184.56, 479.61C337.85, 521.8 504, 423.7 504, 248.57C504, 110.34 396.59, 8 256.55, 8zM405.79, 193.13L332.79, 308.7A37.37 37.37 0 0 1 278.88, 318.63L220.8, 275.16A15 15 0 0 0 202.8, 275.16L124.43, 334.6C113.97, 342.53 100.27, 330 107.32, 318.93L180.32, 203.36A37.36 37.36 0 0 1 234.23, 193.43L292.29, 236.89A15 15 0 0 0 310.29, 236.89L388.7, 177.51C399.14, 169.53 412.84, 182.05 405.79, 193.13z" fill="#727272" fill-opacity="1" class="Black" />
  </g>
</svg>