<?xml version='1.0' encoding='UTF-8'?>
<svg viewBox="-2 -4.7956 32 32" xmlns="http://www.w3.org/2000/svg">
  <g transform="matrix(0.0438, 0, 0, 0.0438, 0, 0)">
    <path d="M586, 284.5L639.3, 224.6L576.9, 224.6L555.2, 249.4L532.7, 224.6L414, 224.6L414, 208.6L470.1, 208.6L470.1, 160.5L318.9, 160.5L318.9, 236L318.4, 236C308.8, 225 296.9, 221.2 283, 221.2C254.6, 221.2 233.2, 240.6 225.7, 266.1C207.7, 206.7 128.3, 208.5 103.8, 252.1L103.8, 227.9L49, 227.9L49, 201.7L109, 201.7L109, 160.6L0, 160.6L0, 345L49, 345L49, 267.5L97.9, 267.5C96.4, 273.2 95.6, 279.3 95.6, 285.7C95.6, 358.8 198.2, 377.1 225.8, 309.4L183.8, 309.4C169.1, 330.3 138, 318.3 138, 294.8L223.5, 294.8C227.2, 325.3 250.9, 351.7 283.6, 351.7C297.7, 351.7 310.6, 344.8 318.5, 333.1L319, 333.1L319, 345L531.2, 345L553.3, 320L575.6, 345L640, 345L586, 284.5zM139.3, 267.9C145.4, 241.6 181, 242.3 185.8, 267.9L139.3, 267.9zM292.7, 316.8C258.1, 316.8 258.7, 254 292.7, 254C325.3, 254 327.2, 316.8 292.7, 316.8zM460.5, 335.9L366.1, 335.9L366.1, 169.4L461.1, 169.4L461.1, 199.6L405, 199.6L405, 233.5L460.5, 233.5L460.5, 261.6L404.4, 261.6L404.4, 306.3L460.5, 306.3L460.5, 335.9zM414.6, 296.1L414.6, 271.7L470.7, 271.7L470.7, 227.7L521.4, 284.7L470.7, 341.7L470.7, 296.1L414.6, 296.1zM553.2, 306.4L527.1, 335.9L489, 335.9L534.6, 284.7L489, 233.5L528.7, 233.5L555.3, 262.8L580.9, 233.5L619.4, 233.5L574, 284.5L620, 335.9L579.5, 335.9L553.2, 306.4z" fill="#727272" fill-opacity="1" class="Black" />
  </g>
</svg>