<?xml version='1.0' encoding='UTF-8'?>
<svg viewBox="-2 -0.0143 32 32" xmlns="http://www.w3.org/2000/svg">
  <g transform="matrix(0.0624, 0, 0, 0.0624, 0, 0)">
    <path d="M225, 32C101.3, 31.7 0.8, 131.7 0.4, 255.4L0, 425.7A53.6 53.6 0 0 0 53.6, 479.6L223.8, 480C347.5, 480.3 448.1, 380.3 448.4, 256.6C448.7, 132.9 348.7, 32.3 225, 32zM394.8, 189.2L333, 126.6C335.3, 121.9 336.8, 117.4 336.8, 112.3L336.8, 110.7L392, 166.8A101 101 0 0 1 394.8, 189.2zM331, 94.3A106.06 106.06 0 0 1 389.5, 158.1L335.2, 103.5A26.48 26.48 0 0 0 331, 94.3zM118.1, 247.2A49.66 49.66 0 0 0 110.4, 258.6L101.9, 250.1A85.78 85.78 0 0 1 118.1, 247.2zM97, 251.4L108.8, 263.3L107.9, 271.3A34.74 34.74 0 0 0 110.3, 283.8L83.3, 256.6A80.6 80.6 0 0 1 97, 251.4zM78.8, 258.8L117, 297.2A53.17 53.17 0 0 0 102.9, 301.9L67.6, 266A107 107 0 0 1 78.8, 258.8zM63.6, 268.6L98.9, 304.1A67.25 67.25 0 0 0 88.4, 312.6L53.5, 278A64.33 64.33 0 0 1 63.6, 268.6zM50.3, 280.9L85.2, 315.9A56.84 56.84 0 0 0 77.5, 327.3L41.7, 291.4C44.5, 287.6 47.4, 284.2 50.3, 280.9zM39.3, 295.2L75.7, 331.8A48.29 48.29 0 0 0 72.1, 347L32.6, 307.2A99.81 99.81 0 0 1 39.3, 295.2zM30.5, 311.5L71.8, 353.3A63.47 63.47 0 0 0 78.5, 379.5L25.8, 326C27.2, 321.1 28.7, 316.4 30.5, 311.5zM22.6, 354.5L84.5, 416.7A31.24 31.24 0 0 0 80.9, 431L80.9, 432.1L25.5, 376.4A88.27 88.27 0 0 1 22.6, 354.5zM27.9, 385.2L82.2, 439.8A28.44 28.44 0 0 0 86.4, 449A106.32 106.32 0 0 1 27.9, 385.2zM22.6, 348.2A80.69 80.69 0 0 1 24.7, 331.2L96.9, 403.7A37.59 37.59 0 0 0 87, 412.4zM275.9, 296.4L233.3, 296.3L233.2, 352.3C233, 421.6 168.8, 468.1 107.5, 455.2C101.8, 455.2 87.6, 446.5 87.6, 431A24.89 24.89 0 0 1 112.1, 406.4C118.4, 406.4 118.4, 408 127.8, 408A55.91 55.91 0 0 0 183.9, 352.1L184, 305.1C184, 300.6 179.5, 296.1 175.1, 296.1L141.5, 296C108.9, 295.9 109, 246.6 141.6, 246.7L184.2, 246.8L184.3, 190.8A105.18 105.18 0 0 1 289.9, 85.8A86.35 86.35 0 0 1 310.1, 88.1C321.3, 89.9 330, 100 330, 112.1C330, 127.6 315.1, 139.9 299.7, 136C272.3, 130.1 233.8, 150.4 233.7, 190.9L233.6, 237.9A8.94 8.94 0 0 0 242.5, 246.9L276.1, 247C308.6, 247.2 308.5, 296.5 275.9, 296.4zM299.4, 296.1A35.58 35.58 0 0 0 307, 284.7L315.5, 293.2A102 102 0 0 1 299.4, 296.1zM320.4, 291.9L308.6, 280L309.5, 271.9A34.74 34.74 0 0 0 307.1, 259.4L334.1, 286.6A74.89 74.89 0 0 1 320.4, 291.9zM338.4, 284.5L300.4, 246.1C305.3, 245 310, 243.7 314.1, 241.4L350.3, 277.3C346.5, 279.8 342.4, 282.3 338.4, 284.5zM353.9, 274.7L318.6, 239.2A61.06 61.06 0 0 0 329.1, 230.7L364, 265.7A124.56 124.56 0 0 1 353.9, 274.7zM367.1, 262.4L332.2, 227.4A63.18 63.18 0 0 0 339.9, 216L375.7, 251.9A130.28 130.28 0 0 1 367.1, 262.4zM378.1, 248.1L341.7, 211.5A48.29 48.29 0 0 0 345.3, 196.3L384.8, 236.1A87.72 87.72 0 0 1 378.1, 248.1zM391.6, 217.2A140.63 140.63 0 0 1 386.9, 231.5L345.6, 190A58.19 58.19 0 0 0 338.5, 163.8zM392.6, 211.6L320.7, 139.5A32 32 0 0 0 330.6, 130.3L394.9, 195A90.93 90.93 0 0 1 392.6, 211.6z" fill="#727272" fill-opacity="1" class="Black" />
  </g>
</svg>