<?xml version='1.0' encoding='UTF-8'?>
<svg viewBox="-2.4242 -1.4853 32 32" xmlns="http://www.w3.org/2000/svg">
  <g transform="matrix(0.0566, 0, 0, 0.0566, 0, 0)">
    <path d="M478.1, 235.3C477.4, 230.8 476.7, 228.2 476.7, 228.2C476.7, 228.2 474.9, 230.2 472, 234.1C471.1, 223.4 469.2, 212.9 466.2, 202.5C462.5, 189.6 457.7, 177.1 451.7, 165.1C447.9, 157.1 443.5, 149.5 438.4, 142.3C436.6, 139.6 434.7, 136.9 432.8, 134.4C424, 120 413.8, 111.1 402.1, 94.4C394.5, 81.6 389.2, 67.5 386.7, 52.8C383.5, 61.7 381, 70.8 379.3, 80.1C367.2, 67.9 356.8, 59.3 350.4, 53.4C319.4, 24.2 323, 9.1 323, 9.1C323, 9.1 264.7, 74.2 289.9, 142C298.6, 165 313.7, 185.1 333.3, 199.9C357.7, 220.1 384.1, 235.9 398, 276.5C386.8, 255.2 369.9, 237.3 349.2, 225C355.4, 239.7 358.6, 255.6 358.5, 271.5C358.5, 332.5 308.9, 382 247.9, 381.9C239.6, 381.9 231.4, 381 223.4, 379.1C213.9, 377.3 204.7, 374.2 196, 369.8C183.1, 362 172, 351.7 163.2, 339.5L163, 339.2L165, 339.9C169.6, 341.5 174.2, 342.7 179, 343.6C197.7, 347.6 217.3, 345.3 234.6, 337C252.1, 327.3 262.6, 320.1 271.2, 323L271.4, 323C279.8, 325.7 286.4, 317.5 280.4, 309C270, 295.6 253, 289 236.2, 292C218.7, 294.5 202.7, 307 179.8, 294.9C178.3, 294.1 176.9, 293.3 175.5, 292.4C173.9, 291.5 180.4, 293.7 178.9, 292.7C173.9, 290.2 169.1, 287.3 164.5, 284.1C164.2, 283.8 168, 285.2 167.6, 284.9C161.7, 280.9 156.6, 275.7 152.6, 269.7C148.5, 262.3 148.1, 253.3 151.6, 245.6C153.7, 241.8 157, 238.7 160.9, 236.9C163.9, 238.4 165.7, 239.5 165.7, 239.5C165.7, 239.5 164.4, 237 163.6, 235.7C163.9, 235.6 164.1, 235.7 164.4, 235.5C167, 236.6 172.7, 239.5 175.8, 241.3C177.9, 242.4 179.6, 244 181, 246C181, 246 182, 245.5 181.3, 243.3C180.2, 240.6 178.4, 238.3 175.9, 236.7L176.1, 236.7C178.4, 237.9 180.6, 239.3 182.7, 240.8C184.6, 236.4 185.5, 231.6 185.3, 226.8C185.5, 224.2 185.1, 221.5 184.2, 219C183.4, 217.4 184.7, 216.8 186.1, 218.5C185.9, 217.2 185.4, 216 184.9, 214.8L184.9, 214.7C184.9, 214.7 185.7, 213.6 186.1, 213.2C187.1, 212.2 188.2, 211.3 189.5, 210.5C196.7, 206 204.3, 202.1 212.2, 198.9C218.6, 196.1 223.9, 194 225, 193.3C226.6, 192.3 228.1, 191.1 229.5, 189.8C234.8, 185.3 238.5, 179 239.7, 172.1C239.8, 171.2 239.9, 170.3 240, 169.3L240, 167.8C239.1, 164.3 233.1, 161.7 201.6, 158.7C190.5, 156.9 181.6, 148.6 179.1, 137.6L179.1, 137.5C185.1, 121.8 195.9, 108.4 209.9, 99.2C210.7, 98.5 206.7, 99.4 207.5, 98.7C210.2, 97.4 212.9, 96.2 215.7, 95.2C217.1, 94.6 209.7, 91.8 203.1, 92.5C199.1, 92.7 195.1, 93.7 191.4, 95.3C193, 94 197.6, 92.2 196.5, 92.2C188.1, 93.8 180, 96.9 172.6, 101.2C172.6, 100.4 172.7, 99.7 173.1, 99C167.2, 101.5 162.1, 105.5 158.1, 110.5C158.2, 109.6 158.3, 108.7 158.3, 107.8C155.6, 109.8 153.1, 112.1 151, 114.7L150.9, 114.8C133.5, 108.1 114.6, 106.5 96.3, 110.1L96.1, 110L96.3, 110C92.5, 106.9 89.2, 103.3 86.6, 99.1L86.4, 99.2L86, 99C84.8, 97.2 83.6, 95.2 82.3, 93C81.4, 91.4 80.5, 89.6 79.6, 87.8C79.6, 87.7 79.5, 87.6 79.4, 87.6C79, 87.6 78.8, 89.3 78.5, 88.9L78.5, 88.8C75.3, 80.5 73.8, 71.6 74.1, 62.6L73.9, 62.7C68.8, 66.2 64.9, 71.3 62.8, 77.2C61.9, 79.3 61.2, 80.5 60.6, 81.7L60.6, 81.2C60.7, 80.1 61.2, 77.9 61.1, 78.1C61, 78.3 60.9, 78.4 60.8, 78.5C59.3, 80.2 57.9, 82.2 56.9, 84.3C56, 86.2 55.2, 88.2 54.6, 90.2C54.5, 90.5 54.6, 89.9 54.6, 89.2C54.6, 88.5 54.7, 87.2 54.6, 87.5L54.3, 88.2C47.6, 103.1 43.4, 119 41.9, 135.3C41.5, 138.1 41.3, 140.9 41.4, 143.6L41.4, 143.8C36.6, 149 32.4, 154.8 28.7, 160.9C16.6, 181.3 7.6, 203.4 1.9, 226.5C5.9, 217.7 10.7, 209.3 16.2, 201.4C5.5, 228.5 0, 257.4 0, 286.6C1.8, 278 4.2, 269.6 7, 261.3C5.3, 295.8 11.9, 330.2 26.4, 361.6C45.8, 405.1 78, 441.6 118.7, 466.3C135.3, 477.5 153.4, 486.2 172.5, 492.1C175, 493 177.6, 493.9 180.2, 494.8C179.4, 494.5 178.6, 494.1 177.8, 493.8C200.4, 500.6 224, 504.1 247.6, 504.1C331.3, 504.1 358.9, 472.2 361.4, 469.1C365.5, 465.4 368.9, 460.9 371.3, 455.8C372.9, 455.1 374.5, 454.4 376.2, 453.7L377.2, 453.2L379.1, 452.3C391.7, 446.4 403.6, 438.9 414.4, 430.2C430.7, 418.5 442.3, 401.5 447.3, 382.1C450.3, 375 450.4, 367.1 447.7, 359.9C448.6, 358.5 449.4, 357.1 450.4, 355.6C468.4, 326.7 478.6, 293.7 480, 259.7L480, 256.9C480, 249.6 479.4, 242.4 478.1, 235.3zM179.1, 137.7C178.7, 138.8 178.2, 140 177.8, 141.2C178.2, 140 178.6, 138.9 179.1, 137.7z" fill="#727272" fill-opacity="1" class="Black" />
  </g>
</svg>