<?xml version='1.0' encoding='UTF-8'?>
<svg viewBox="-2 0 32 32" xmlns="http://www.w3.org/2000/svg">
  <g transform="matrix(0.0625, 0, 0, 0.0625, 0, 0)">
    <path d="M400, 32L48, 32C21.5, 32 0, 53.5 0, 80L0, 432C0, 458.5 21.5, 480 48, 480L400, 480C426.5, 480 448, 458.5 448, 432L448, 80C448, 53.5 426.5, 32 400, 32zM144.5, 319C109.4, 319 81, 290.6 81, 255.5C81, 220.4 109.4, 192 144.5, 192C179.6, 192 208, 220.4 208, 255.5C208, 290.6 179.6, 319 144.5, 319zM303.5, 319C268.4, 319 240, 290.6 240, 255.5C240, 220.4 268.4, 192 303.5, 192C338.6, 192 367, 220.4 367, 255.5C367, 290.6 338.6, 319 303.5, 319z" fill="#727272" fill-opacity="1" class="Black" />
  </g>
</svg>