<?xml version='1.0' encoding='UTF-8'?>
<svg viewBox="-2 -14.2044 32 32" xmlns="http://www.w3.org/2000/svg">
  <g transform="matrix(0.007, 0, 0, 0.007, 0, 0)">
    <path d="M454.6, 0L57.4, 0C25.9, 0 0, 25.9 0, 57.4L0, 454.7C0, 486.1 25.9, 512 57.4, 512L454.7, 512C486.1, 512 512.1, 486.1 512.1, 454.6L512.1, 57.4C512, 25.9 486.1, 0 454.6, 0zM395.7, 324.9C395.7, 329.7 391.6, 331.8 386.8, 333.8C367.6, 341.9 347.1, 349.5 325.3, 349.5C284.8, 349.5 256.6, 304.7 162.1, 352L162.1, 403.8C162.1, 434.1 116.4, 434 116.4, 403.8L116.4, 153.8C107.4, 146.8 101.4, 135.9 101.4, 123.5C101.4, 102.5 118.5, 85.3 139.6, 85.3C160.6, 85.3 177.8, 102.4 177.8, 123.5C177.8, 135.7 172, 146.7 162.9, 153.7L162.9, 174.7C200, 162.7 228.4, 140.3 309, 171.3C335.6, 182.7 377.7, 155.6 385.5, 155.6C391, 155.6 395.8, 159.7 395.8, 164.5L395.8, 324.9zM828.6, 150.7L691.6, 150.7L691.6, 220.8L825, 220.8C864.8, 220.8 865.4, 283 825, 283L691.6, 283L691.6, 388.6C691.6, 434.1 620.9, 435 620.9, 388.6L620.9, 128.3C620.9, 106.3 638.9, 88.5 660.7, 88.5L828.5, 88.5C868.1, 88.5 869, 150.7 828.6, 150.7zM1019.7, 174.1C850.4, 174.1 850.6, 426.5 1019.7, 426.5C1189.6, 426.5 1189.6, 174.1 1019.7, 174.1zM1019.7, 370.2C938.1, 370.2 937.6, 230.4 1019.7, 230.4C1102.2, 230.4 1102.1, 370.2 1019.7, 370.2zM1392.1, 423.6C1374.6, 423.6 1360.7, 409.7 1360.7, 392.2L1360.7, 275.2C1360.7, 212.8 1288.1, 222.7 1261.6, 258.8L1261.6, 392.2C1261.6, 433.7 1198.3, 434 1198.3, 392.2L1198.3, 208C1198.3, 168 1261.4, 166.4 1261.4, 208L1261.4, 211.4C1304.7, 159.8 1423.8, 151 1423.8, 250.7L1423.8, 392.2C1424.1, 422.6 1392.3, 423.6 1392.1, 423.6zM1571.8, 426.5C1527.5, 426.5 1503.5, 403.6 1503.5, 360.7L1503.5, 235.2L1488, 235.2C1452.4, 235.2 1451.3, 179.9 1488, 179.9L1503.5, 179.9L1503.5, 142.6C1503.5, 101.3 1567.3, 100.5 1567.3, 142.6L1567.3, 180.1L1592.2, 180.1C1627.6, 180.1 1627.9, 235.4 1592.2, 235.4L1567.3, 235.4L1567.3, 343.9C1567.3, 373.5 1593.4, 370.2 1594.7, 370.2C1626.1, 370.2 1647.3, 426.5 1571.8, 426.5zM1992, 123C1972.5, 72.8 1896.5, 73 1877.5, 123C1770.2, 398.7 1778, 375.7 1778, 385.8C1778, 428.6 1836.3, 437 1850.1, 400.2L1863.6, 364.3L2006, 364.3L2019, 400.2C2033.2, 437.9 2091.1, 427.4 2091.1, 385.8C2091.1, 375.7 2096.4, 392.6 1992, 123zM1883.1, 302.1L1934.8, 159.2L1986.6, 302.1L1883.1, 302.1zM2474.4, 216.5L2420.7, 392.8C2408.3, 434 2348.7, 433.8 2336.7, 392.8L2294.4, 256.9L2252.1, 392.8C2239.7, 433.7 2180.1, 434 2167.6, 392.8L2113.4, 216.5C2100.9, 177.1 2163.2, 160.4 2173.6, 199.6L2213, 342L2258.3, 202.5C2269.2, 169.8 2317.9, 167.8 2329.5, 202.5L2374.8, 342L2414.1, 199.6C2424.4, 161.3 2486.7, 175.8 2474.4, 216.5zM2749.8, 291.6C2749.8, 249.2 2715.9, 174.1 2630.3, 174.1C2557.1, 174.1 2505.9, 230.4 2505.9, 300.1C2505.9, 377.3 2561.2, 426.5 2634.4, 426.5C2666.1, 426.5 2727.4, 415 2727.4, 386.7C2727.4, 368.4 2706.3, 355.2 2688.1, 364.3C2638.7, 390.5 2579.1, 372.7 2572.2, 320.5L2720.5, 320.5C2736.8, 320.5 2749.8, 307.1 2749.8, 291.6zM2571, 277.7C2580.5, 204.3 2684.9, 209.1 2689.6, 277.7L2571, 277.7zM2887.7, 426.5C2856.3, 426.5 2806.1, 416 2791.1, 394.6C2778.7, 377.6 2793.6, 354.8 2812.9, 354.8C2829.2, 354.8 2849.7, 377.7 2890.6, 377.7C2918, 377.7 2931, 366.7 2931, 351.9C2931, 312.1 2788.1, 344.5 2788.1, 249.9C2788.1, 209.5 2823.4, 174.2 2886.7, 174.2C2918.1, 174.2 2960.8, 184.1 2974.3, 203.6C2985.1, 218.4 2972.9, 239.8 2953.4, 239.8C2938.3, 239.8 2926.7, 222.5 2887.2, 222.5C2864.3, 222.5 2849.4, 233 2849.4, 246.3C2849.4, 282.2 2991.8, 252.3 2991.8, 349.4C2991.7, 393.1 2954.4, 426.5 2887.7, 426.5zM3154.5, 174.1C2985.2, 174.1 2985.4, 426.5 3154.5, 426.5C3324.6, 426.5 3324.1, 174.1 3154.5, 174.1zM3154.5, 370.2C3072.7, 370.2 3072.5, 230.4 3154.5, 230.4C3237, 230.4 3236.9, 370.2 3154.5, 370.2zM3631.4, 392.2L3631.4, 268.7C3631.4, 214.9 3570, 222.9 3545.7, 258.2L3545.7, 392.2C3545.7, 433.5 3481.9, 434.3 3481.9, 392.2L3481.9, 268.7C3481.9, 216.6 3422.4, 221.3 3396.2, 258.6L3396.2, 392.2C3396.2, 433.7 3332.9, 434 3332.9, 392.2L3332.9, 208C3332.9, 168 3396, 166.4 3396, 208L3396, 211.4C3405.9, 197 3437.8, 174.1 3474.6, 174.1C3509.9, 174.1 3532.3, 190.5 3541.3, 217.9C3555.2, 196.1 3587.1, 174.1 3623.9, 174.1C3668.2, 174.1 3694.6, 197.5 3694.6, 246.8L3694.6, 392.1C3695.1, 409.4 3681.1, 423.5 3662.7, 423.5C3666.2, 423.6 3631.4, 424.6 3631.4, 392.2zM3992, 291.6C3992, 249.2 3959.6, 174.1 3874.1, 174.1C3800.9, 174.1 3746.6, 230.4 3746.6, 300.1C3746.6, 377.3 3804.9, 426.5 3878.2, 426.5C3909.9, 426.5 3969.7, 415 3969.7, 386.7C3969.7, 368.4 3948.6, 355.2 3930.4, 364.3C3881, 390.5 3819.9, 372.7 3812.9, 320.5L3962.7, 320.5C3979, 320.5 3991.8, 307.1 3992, 291.6zM3811.5, 277.7C3821.2, 203.3 3927.4, 209.4 3931.6, 277.7L3811.5, 277.7z" fill="#727272" fill-opacity="1" class="Black" />
  </g>
</svg>