<?xml version='1.0' encoding='UTF-8'?>
<svg viewBox="-3.766 -2 32 32" xmlns="http://www.w3.org/2000/svg">
  <g transform="matrix(0.0547, 0, 0, 0.0547, 0, 0)">
    <path d="M444.373, 359.424C444.373, 366.592 438.229, 369.664 431.061, 372.736C402.389, 385.024 371.669, 396.288 338.901, 396.288C292.821, 396.288 271.317, 367.616 216.021, 367.616C176.085, 367.616 134.101, 381.952 100.309, 397.312C98.261, 398.336 96.213, 398.336 94.165, 399.36L94.165, 477.184C94.165, 498.589 78.043, 512 60.373, 512C40.917, 512 25.557, 496.64 25.557, 477.184L25.557, 102.4C12.245, 92.16 3.029, 75.776 3.029, 57.344C3.029, 25.6 28.629, 0 60.373, 0C92.117, 0 117.717, 25.6 117.717, 57.344C117.717, 75.776 109.525, 92.16 95.189, 102.4L95.189, 134.144C99.313, 132.77 153.957, 105.472 209.877, 105.472C275.147, 105.472 307.553, 133.12 336.853, 133.12C375.765, 133.12 418.773, 105.472 429.013, 105.472C437.205, 105.472 444.373, 111.616 444.373, 118.784L444.373, 359.424z" fill="#727272" fill-opacity="1" class="Black" />
  </g>
</svg>