<?xml version='1.0' encoding='UTF-8'?>
<svg viewBox="-2.0017 -1.9979 32 32" xmlns="http://www.w3.org/2000/svg">
  <g transform="matrix(0.0547, 0, 0, 0.0547, 0, 0)">
    <path d="M489.2, 287.9L461.8, 287.9C459.2, 287.9 457.2, 289.9 457.2, 292.5L457.2, 324.5L420.6, 324.5L420.6, 146.2C420.6, 143.6 418.6, 141.6 416, 141.6L388.6, 141.6C386, 141.6 384, 143.6 384, 146.2L384, 178.2L347.4, 178.2L347.4, 146.2C347.4, 143.6 345.4, 141.6 342.8, 141.6L315.4, 141.6C312.8, 141.6 310.8, 143.6 310.8, 146.2L310.8, 178.2L274.2, 178.2L274.2, 146.2C274.2, 140.2 266.2, 141.6 262.5, 141.6L262.5, 103.6C270.8, 101.6 279.6, 100.2 288.2, 100.2C299.1, 100.2 309.1, 104.5 319.6, 104.5C324.2, 104.5 347.3, 103.4 347.3, 96.5L347.3, 36.5C347.3, 33.9 345.3, 31.9 342.7, 31.9C337.6, 31.9 327.6, 36.2 318.7, 36.2C309, 36.2 297.8, 31.9 286.1, 31.9C278.1, 31.9 270.1, 33 262.4, 34.8L262.4, 29.9C267.8, 27.3 271.5, 21.6 271.5, 15.6C271.5, -5.1 240.1, -5.2 240.1, 15.6C240.1, 21.6 243.8, 27.3 249.2, 29.9L249.2, 141.6C245.5, 141.6 237.5, 140.2 237.5, 146.2L237.5, 178.2L200.9, 178.2L200.9, 146.2C200.9, 143.6 198.9, 141.6 196.3, 141.6L168.9, 141.6C166.3, 141.6 164.3, 143.6 164.3, 146.2L164.3, 178.2L128, 178.2L128, 146.2C128, 143.6 126, 141.6 123.4, 141.6L96, 141.6C93.4, 141.6 91.4, 143.6 91.4, 146.2L91.4, 324.5L54.8, 324.5L54.8, 292.5C54.8, 289.9 52.8, 287.9 50.2, 287.9L22.8, 287.9C20.2, 287.9 18.2, 289.9 18.2, 292.5L18.2, 512L201.1, 512L201.1, 416C201.1, 343.4 310.8, 343.4 310.8, 416L310.8, 512L493.7, 512L493.7, 292.5C493.8, 289.9 491.8, 287.9 489.2, 287.9zM201.1, 283.4C201.1, 286 199.1, 288 196.5, 288L169.1, 288C166.5, 288 164.5, 286 164.5, 283.4L164.5, 219.4C164.5, 216.8 166.5, 214.8 169.1, 214.8L196.5, 214.8C199.1, 214.8 201.1, 216.8 201.1, 219.4L201.1, 283.4zM347.5, 283.4C347.5, 286 345.5, 288 342.9, 288L315.5, 288C312.9, 288 310.9, 286 310.9, 283.4L310.9, 219.4C310.9, 216.8 312.9, 214.8 315.5, 214.8L342.9, 214.8C345.5, 214.8 347.5, 216.8 347.5, 219.4L347.5, 283.4z" fill="#727272" fill-opacity="1" class="Black" />
  </g>
</svg>