<?xml version='1.0' encoding='UTF-8'?>
<svg viewBox="-5.9361 -1.8359 32 32" xmlns="http://www.w3.org/2000/svg">
  <g transform="matrix(0.0547, 0, 0, 0.0547, 0, 0)">
    <path d="M323.1, 3L49.9, 3C12.4, 3 0, 31.3 0, 49.1L0, 482.9C0, 503.2 12.1, 510.6 18.2, 513C24.4, 515.5 41, 517.6 51.1, 505.9C180, 356.5 182.2, 354 182.2, 354C185.3, 350.6 185.6, 350.9 189, 350.9L272.4, 350.9C307.5, 350.9 313, 325.7 316.7, 311.2L365.3, 68.2C373.8, 25.8 363.1, 3 323.1, 3zM306.8, 76.8L295.4, 136.5C294.2, 143 285.9, 149.7 278.5, 149.7L172.1, 149.7C160.1, 149.7 151.5, 158 151.5, 170L151.5, 183C151.5, 195 160.1, 203.6 172.1, 203.6L262.5, 203.6C270.8, 203.6 279.1, 212.8 277.3, 221.8C275.5, 230.7 266.8, 275.6 265.9, 280.6C265, 285.5 259.1, 294.1 249, 294.1L175.5, 294.1C162, 294.1 158.3, 295.9 149, 306.7C149, 306.7 140.1, 318.1 59.5, 415C58.6, 415.9 57.7, 415.6 57.7, 414.7L57.7, 75.9C57.7, 68.2 64.5, 59.3 74.3, 59.3L293.3, 59.3C301.5, 59.3 308.9, 67 306.8, 76.8z" fill="#727272" fill-opacity="1" class="Black" />
  </g>
</svg>