<?xml version='1.0' encoding='UTF-8'?>
<svg viewBox="-2 -2.0547 32 32" xmlns="http://www.w3.org/2000/svg">
  <g transform="matrix(0.0547, 0, 0, 0.0547, 0, 0)">
    <path d="M249.86, 33.48L249.86, 59.55C236.28, 80.17 226, 168.14 225.39, 274.9C237.13, 259.28 244.52, 241.57 244.52, 226.66L244.52, 209.78C244.49, 204.46 245.27, 199.25 246.71, 194.13C247.36, 191.99 248.1, 190.05 249.33, 188.31C250.56, 186.56 252.76, 184.52 256.01, 184.52C259.25, 184.52 261.46, 186.57 262.69, 188.31C263.92, 190.06 264.66, 191.99 265.31, 194.13C266.75, 199.25 267.53, 204.46 267.5, 209.78L267.5, 226.66C267.5, 241.57 274.89, 259.28 286.63, 274.9C286, 168.14 275.72, 80.17 262.14, 59.55L262.14, 33.48L249.86, 33.48zM223.52, 181.25C214, 183.4 204.82, 186.44 196.06, 190.33C204.96, 206.45 205.82, 222.97 197.77, 227.62C189.77, 232.24 175.92, 223.39 166.41, 207.8C154.83, 216.59 144.53, 227.12 135.85, 238.89C150.58, 248.51 158.74, 261.81 154.17, 269.55C149.63, 277.25 134.14, 276.69 118.7, 268.59C112.92, 281.84 108.95, 296.1 107.05, 311.01C116.73, 311.19 125.72, 313.39 133.23, 317.05C151.01, 316.75 166, 315.09 173.72, 312.83C179.27, 286.48 196.74, 264.6 220.04, 253.32C220.77, 227.77 221.92, 203.65 223.52, 181.25zM288.48, 181.25C290.07, 203.65 291.23, 227.77 291.95, 253.32C315.24, 264.6 332.72, 286.48 338.27, 312.83C345.99, 315.09 360.98, 316.75 378.76, 317.05C386.27, 313.39 395.26, 311.2 404.94, 311.01C403.04, 296.1 399.08, 281.84 393.29, 268.59C377.85, 276.69 362.36, 277.25 357.82, 269.55C353.25, 261.81 361.42, 248.5 376.14, 238.89C367.46, 227.12 357.16, 216.59 345.58, 207.8C336.07, 223.39 322.22, 232.24 314.22, 227.62C306.17, 222.97 307.03, 206.46 315.93, 190.33A147.49 147.49 0 0 0 288.48, 181.25zM256, 189.85C252.77, 189.85 250.14, 198.66 249.91, 209.78L249.86, 209.78L249.86, 226.66C249.86, 268.08 200.85, 321.7 156.37, 321.7C104.37, 321.7 33.62, 320.25 0, 350.87L0, 353.38C9.42, 370.5 20.58, 386.55 33.18, 401.35C45.7, 380.26 84.77, 360.4 141.2, 360C186.88, 361.02 220.23, 380.33 231.96, 400.87C231.97, 400.88 231.95, 400.91 231.96, 400.92C239.63, 403.06 247.81, 404.15 256, 404.13C264.19, 404.15 272.37, 403.06 280.04, 400.92C280.05, 400.91 280.03, 400.88 280.04, 400.87C291.78, 380.33 325.12, 361.02 370.8, 360C427.23, 360.39 466.29, 380.26 478.82, 401.35C491.42, 386.55 502.58, 370.49 512, 353.38L512, 350.87C478.39, 320.25 407.63, 321.7 355.63, 321.7C311.15, 321.7 262.14, 268.08 262.14, 226.66L262.14, 209.78L262.09, 209.78C261.86, 198.66 259.23, 189.85 256, 189.85zM256, 286.44C278.42, 286.44 296.6, 304.62 296.6, 327.04C296.6, 349.46 278.42, 367.69 256, 367.69C233.58, 367.69 215.4, 349.46 215.4, 327.04C215.4, 304.62 233.58, 286.44 256, 286.44zM256, 294.08C237.81, 294.08 223.04, 308.85 223.04, 327.04C223.04, 345.23 237.81, 360 256, 360C274.19, 360 288.96, 345.23 288.96, 327.04C288.96, 308.85 274.19, 294.08 256, 294.08zM256, 300.22C270.81, 300.22 282.82, 312.23 282.82, 327.04C282.82, 341.85 270.81, 353.86 256, 353.86C241.19, 353.86 229.18, 341.85 229.18, 327.04C229.18, 312.23 241.19, 300.22 256, 300.22zM141.2, 366.89C131.01, 366.96 119.6, 367.25 110.7, 368.55C111.13, 372.97 112.21, 387.18 117.81, 398.31C126.92, 395.75 136.17, 394.41 145.43, 394.41C186.71, 395.35 216.91, 428.76 223.69, 468.88L223.8, 473.58C234.2, 475.49 244.99, 476.52 256.01, 476.52C267.04, 476.52 277.82, 475.5 288.22, 473.58L288.33, 468.88C295.11, 428.76 325.31, 395.35 366.59, 394.41C375.85, 394.41 385.1, 395.75 394.21, 398.31C399.81, 387.18 400.89, 372.97 401.32, 368.55C392.42, 367.25 381, 366.97 370.82, 366.89C352.06, 367.31 335.63, 371.06 322.21, 376.56C309.67, 392.59 293.05, 406.59 272.63, 409.63C272.54, 409.65 272.46, 409.67 272.36, 409.68C272.31, 409.69 272.25, 409.72 272.2, 409.73C266.96, 410.8 261.57, 411.33 256.01, 411.33C250.46, 411.33 245.06, 410.8 239.82, 409.73C239.77, 409.72 239.71, 409.69 239.66, 409.68C239.56, 409.66 239.49, 409.64 239.39, 409.63C218.97, 406.6 202.36, 392.59 189.81, 376.56C176.39, 371.07 159.95, 367.31 141.2, 366.89z" fill="#727272" fill-opacity="1" class="Black" />
  </g>
</svg>