<?xml version='1.0' encoding='UTF-8'?>
<svg viewBox="-1.4919 -1.5484 32 32" xmlns="http://www.w3.org/2000/svg">
  <g transform="matrix(0.0565, 0, 0, 0.0565, 0, 0)">
    <path d="M257, 8C120, 8 9, 119 9, 256C9, 393 120, 504 257, 504C394, 504 505, 393 505, 256C505, 119 394, 8 257, 8zM207.5, 382.8L81.8, 257.1L207.5, 131.4L242.7, 166.8L218.5, 191L207.4, 179.9L130.2, 257.1L207.4, 334.3L234, 307.7L180.9, 254.8L205.3, 230.4L282.5, 307.6L207.5, 382.8zM306.5, 380.6L271.3, 345.4L295.4, 321L306.5, 332.1L383.7, 254.9L306.5, 177.7L280, 204.2L333.1, 257.1L308.7, 281.5L231.5, 204.3L306.5, 129.3L432.2, 255L306.5, 380.6z" fill="#727272" fill-opacity="1" class="Black" />
  </g>
</svg>