<?xml version='1.0' encoding='UTF-8'?>
<svg viewBox="-2 -2 32 32" xmlns="http://www.w3.org/2000/svg">
  <g transform="matrix(0.0547, 0, 0, 0.0547, 0, 0)">
    <path d="M216.29, 158.39L137, 158.39C97, 147.9 6.51, 150.63 6.51, 233.18C6.51, 263.27 21.51, 284.41 41.51, 294.18C16.41, 317.18 4.51, 328.03 4.51, 343.39C4.51, 354.39 8.98, 364.53 22.4, 370.2C8.13, 383.61 0, 393.35 0, 411.65C0, 443.76 28.05, 462.47 101.63, 462.47C172.38, 462.47 213.42, 436.05 213.42, 389.29C213.42, 330.63 168.26, 332.79 61.79, 326.29L75.22, 304.74C102.49, 312.32 193.92, 314.74 193.92, 236.85C193.92, 218.15 186.19, 205.14 178.92, 195.78L216.33, 192.94zM152.87, 400.29C152.87, 432.35 47.98, 432.39 47.98, 402.72C47.98, 394.58 53.25, 387.72 58.55, 381.18C136.26, 386.48 152.87, 384.55 152.87, 400.29zM102.06, 265.71C49.26, 265.71 51.6, 194.55 103.26, 194.55C152.8, 194.55 154.08, 265.71 102.06, 265.71zM235.36, 366.22L235.36, 334.12C262.11, 330.46 262.6, 332.12 262.6, 323.12L262.6, 203.61C262.6, 195.11 260.55, 196.23 235.36, 187.35L239.83, 154.43L324, 154.43L324, 323.14C324, 329.65 324.4, 330.46 330.51, 331.28L351.24, 334.12L351.24, 366.22zM287.81, 121.91C264.64, 121.91 251.22, 108.48 251.22, 85.3C251.22, 62.12 264.64, 49.53 287.81, 49.53C311.39, 49.53 324.81, 62.15 324.81, 85.3C324.81, 108.45 311.39, 121.91 287.81, 121.91zM512, 350.46C494.51, 358.99 468.9, 366.72 445.72, 366.72C397.34, 366.72 379.05, 347.22 379.05, 301.26L379.05, 194.75C379.05, 189.33 380.1, 190.69 347.34, 190.69L347.34, 154.5C383.12, 150.43 397.34, 132.5 401.81, 88.23L440.44, 88.23C440.44, 154.06 439.1, 150.04 443.7, 150.04L501, 150.04L501, 190.69L440.44, 190.69L440.44, 287.84C440.44, 294.76 435.52, 339.25 501.01, 314.68z" fill="#727272" fill-opacity="1" class="Black" />
  </g>
</svg>