<?xml version='1.0' encoding='UTF-8'?>
<svg viewBox="-1.6111 -3.5567 32 32" xmlns="http://www.w3.org/2000/svg">
  <g transform="matrix(0.0486, 0, 0, 0.0486, 0, 0)">
    <path d="M565.7, 118.1C563.4, 112 556.4, 108.9 550.4, 111.5C544.7, 113.9 541.9, 120.4 544.1, 126.1C555, 155.1 561, 186.6 561, 219.4C561, 354 460.7, 465.1 330.8, 482.1L330.8, 358.4C338.7, 356.9 346.3, 354.8 353.8, 352.2L353.8, 456.2C460.5, 430.3 539.7, 334.1 539.7, 219.4C539.7, 127.6 488.9, 47.6 413.9, 6.1C408.2, 2.9 400.9, 5.2 398, 11.1C395.3, 16.6 397.4, 23.3 402.7, 26.2C470.6, 63.8 516.6, 136.2 516.6, 219.4C516.6, 312.7 458.7, 392.5 376.8, 424.8L376.8, 332.6C391, 328.1 401.7, 314.9 401.7, 299.1C401.7, 286 394.9, 274.7 384.4, 268.6C392.7, 189.1 428.9, 210 428.9, 184.7L428.9, 170C428.9, 132 341, 8.2 299.9, 5.3C297.4, 5.1 294.9, 5.1 292.3, 5.3C251.1, 8.3 163.2, 132 163.2, 170L163.2, 184.8C163.2, 210.1 199.5, 189.1 207.7, 268.7C197.1, 274.8 190.4, 286.1 190.4, 299.2C190.4, 315 201, 328.2 215.2, 332.7L215.2, 424.9C133.3, 392.7 75.4, 312.9 75.4, 219.5C75.4, 136.4 121.4, 64 189.3, 26.3C194.7, 23.3 196.7, 16.7 194, 11.2C191.1, 5.3 183.9, 3 178.1, 6.2C103.1, 47.7 52.3, 127.7 52.3, 219.5C52.3, 334.2 131.5, 430.3 238.2, 456.3L238.2, 352.3C245.8, 354.8 253.3, 356.9 261.2, 358.5L261.2, 482.2C131.4, 465.2 31, 354.1 31, 219.5C31, 186.7 37, 155.2 47.9, 126.2C50.1, 120.4 47.3, 114 41.6, 111.6C35.6, 109 28.6, 112 26.3, 118.2C14.5, 149.7 8, 183.8 8, 219.5C8, 374.6 130.6, 501.1 284.3, 507.3L284.3, 361.4C291.1, 361.8 299.3, 361.9 307.7, 361.4L307.7, 507.2C461.4, 501.1 584, 374.6 584, 219.5C584, 183.8 577.5, 149.7 565.7, 118.1zM365.9, 275.5C378.9, 275.5 389.6, 286 389.6, 299.2C389.6, 312.3 379, 322.9 365.9, 322.9C352.9, 322.9 342.2, 312.4 342.2, 299.2C342.2, 286.1 352.8, 275.5 365.9, 275.5zM226.1, 322.8C212.9, 322.8 202.4, 312.1 202.4, 299.1C202.4, 286.1 212.9, 275.4 226.1, 275.4C239.2, 275.4 249.8, 286 249.8, 299.1C249.8, 312.1 239.3, 322.8 226.1, 322.8z" fill="#727272" fill-opacity="1" class="Black" />
  </g>
</svg>