<?xml version='1.0' encoding='UTF-8'?>
<svg viewBox="-5.5004 -2 32 32" xmlns="http://www.w3.org/2000/svg">
  <g transform="matrix(0.0547, 0, 0, 0.0547, 0, 0)">
    <path d="M42.6, 403.3L45.4, 403.3C58.1, 403.3 70.9, 403.3 83.6, 403.4C85.2, 403.4 86.7, 403 87.2, 405.5C94.3, 440.4 117.2, 460.1 150.1, 469.4C177, 477 204.2, 477.2 231.4, 471.2C265.2, 463.8 287.4, 442.9 299.4, 410.8C307.4, 389.3 310.1, 367 310.4, 344.3C310.5, 338.5 310.7, 297.3 310.2, 291.5L309.3, 291.2C308.5, 292.7 307.6, 294.1 306.8, 295.6C284.7, 338.7 245.5, 363 201.4, 364.7C98.4, 368.7 32, 307.7 29.4, 188.5C28.9, 164.8 31.2, 141.6 37.7, 118.8C58.3, 47.7 112.3, 0.6 191.6, 0C252.9, -0.4 293.1, 38.7 307.8, 70.3C308.3, 71.4 309.1, 72.6 310.2, 72.2L310.2, 10.6L354.5, 10.6C354.5, 290.9 354.6, 342.8 354.6, 342.8C354.5, 421.3 327.9, 486.5 251.6, 505C182.1, 521.9 92.6, 509.8 55.6, 447.8C47.6, 434.3 43.8, 419.5 42.6, 403.3zM188.9, 36.5C136.4, 36 80.4, 77.2 73.9, 170.3C69.8, 229.3 88.7, 292.5 145.4, 318.9C173, 331.8 219.7, 333.9 253.7, 310.2C301.3, 277 316.4, 213.2 308.5, 156.2C298.8, 85.1 260.7, 36.2 188.9, 36.5z" fill="#727272" fill-opacity="1" class="Black" />
  </g>
</svg>