<?xml version='1.0' encoding='UTF-8'?>
<svg viewBox="-2 0 32 32" xmlns="http://www.w3.org/2000/svg">
  <g transform="matrix(0.0625, 0, 0, 0.0625, 0, 0)">
    <path d="M400, 32L48, 32C21.5, 32 0, 53.5 0, 80L0, 432C0, 458.5 21.5, 480 48, 480L400, 480C426.5, 480 448, 458.5 448, 432L448, 80C448, 53.5 426.5, 32 400, 32zM164, 356C108.7, 356 64, 311.3 64, 256C64, 200.7 108.7, 156 164, 156C191, 156 213.5, 165.8 231, 182.2L203.9, 208.3C196.5, 201.2 183.6, 192.9 164.1, 192.9C130, 192.9 102.2, 221.1 102.2, 256.1C102.2, 291 130, 319.3 164.1, 319.3C203.7, 319.3 218.5, 290.8 220.9, 276.2L164, 276.2L164, 241.8L258.4, 241.8C259.4, 246.8 260, 251.9 260, 258.4C260, 315.5 221.7, 356 164, 356zM384, 274.2L355, 274.2L355, 303.2L325.8, 303.2L325.8, 274.2L296.8, 274.2L296.8, 245L325.8, 245L325.8, 216L355, 216L355, 245L384, 245L384, 274.2z" fill="#727272" fill-opacity="1" class="Black" />
  </g>
</svg>