<?xml version='1.0' encoding='UTF-8'?>
<svg viewBox="-2 -1.5484 32 32" xmlns="http://www.w3.org/2000/svg">
  <g transform="matrix(0.0565, 0, 0, 0.0565, 0, 0)">
    <path d="M248, 8C111.1, 8 0, 119.1 0, 256C0, 392.9 111.1, 504 248, 504C384.9, 504 496, 392.9 496, 256C496, 119.1 384.9, 8 248, 8zM362.6, 234.4L249.6, 387.1L136.9, 234.4C128.2, 222.5 117.8, 184 150.5, 162.4C178.6, 144.3 205.1, 158.2 219, 174.3C234.9, 192.2 265.6, 191.2 280.7, 174.3C294.6, 158.2 321.1, 144.3 348.8, 162.4C381.7, 184 371.4, 222.4 362.6, 234.4z" fill="#727272" fill-opacity="1" class="Black" />
  </g>
</svg>