<?xml version='1.0' encoding='UTF-8'?>
<svg viewBox="-9.0011 -1.9982 32 32" xmlns="http://www.w3.org/2000/svg">
  <g transform="matrix(0.0547, 0, 0, 0.0547, 0, 0)">
    <path d="M209.8, 391.1L195.7, 415.7L191.1, 495.9C191.1, 504.8 162.8, 512 128, 512C93.2, 512 64.9, 504.8 64.9, 495.9L59.1, 416.5L44.2, 391.1C85.4, 408.4 170.2, 407.8 209.8, 391.1zM13.8, 137.8L27.4, 263.3C33.3, 243.3 48.2, 216.3 67.4, 208.1C73.7, 205.4 80.1, 205.4 86.1, 209C91.3, 212 95.7, 218.3 96.2, 220.8C97.4, 227.3 94.2, 229.9 91.7, 229.9C88.7, 229.9 86.4, 225.3 84.9, 222.6C80.8, 215.3 74.6, 215 68, 219.8C61.1, 224.8 55.1, 233.2 50.9, 240.5C45.8, 249.3 41.5, 259 38.9, 268.7C37.4, 274.3 36, 283.3 38.3, 288.6C39.3, 290.8 40.8, 292.2 43.2, 292.2C48.2, 292.2 55.5, 285.6 59, 282.1C63.5, 277.6 69.3, 270.6 71.5, 266.1L76.7, 250.6C79.3, 243.8 86.6, 245 86.6, 250.6C86.6, 260.8 82.9, 264.2 76.6, 285.3C70.8, 304.8 69, 311.1 69, 311.1C68.3, 313.9 65.6, 318.6 62.7, 318.6C61.5, 318.6 60.6, 318.2 60.1, 317.4C59.1, 316 59.2, 312.1 59.3, 311.1C59.5, 307.9 65.6, 288.9 66.6, 285.9C64.6, 288.1 62.5, 290.3 60.2, 292.5C54.8, 297.6 46.1, 304.3 38.7, 304.3C35.3, 304.3 33.1, 303.4 31, 301.9L38.6, 381.5C40.6, 386.5 77.8, 398.6 126.8, 398.6C175.9, 398.6 213.1, 386.4 215, 381.5L225.9, 286.9C220.2, 292.1 213.6, 298.5 206.3, 301.7C200.9, 304 188.9, 305.5 188.9, 296C188.9, 290.8 198, 281.2 203.3, 274.5C204.7, 272.8 208, 268.6 208, 266.4C208, 263.5 202, 264.2 196.3, 268.9C193.1, 271.6 190.1, 275.2 187.6, 278.6C183.3, 284.6 181, 289.8 179.1, 294.1C172.9, 308.3 175, 302.7 170, 316.1C165, 329.4 165.8, 327.9 164.8, 330.1C163.9, 332 162.6, 333.6 160.8, 334.6C158.9, 335.6 156.3, 335.5 154.7, 334.3C153.8, 333.7 153.4, 332.4 153.4, 330.6C153.4, 329.7 153.5, 328.8 153.7, 327.9C155.2, 321.8 161.5, 309.8 168.7, 293.6C170.3, 289.9 169.7, 291 169.5, 291.3C163.3, 297.3 158.6, 300.2 155.1, 301.8C149.3, 304.4 142.1, 304.4 140.6, 297.7C140.5, 297.3 140.5, 296.9 140.4, 296.5C128.6, 305.7 116.1, 308.2 120.4, 288.4C115.8, 296.6 107.8, 303.3 98, 303.3C93.9, 303.3 90.9, 301.9 89.4, 298.2C87.1, 292.7 90.7, 283.3 94, 274.4C95.7, 269.9 98, 264.5 101.1, 258.2C102.7, 254.8 105.3, 252.8 108.7, 253.7C109.3, 253.9 109.8, 254.1 110.3, 254.4C112.9, 256.2 111.9, 258.9 110.6, 261.6C106.8, 269.1 103.5, 274.6 101.3, 282.4C100.4, 285.7 99.3, 291.4 102.8, 291.4C105.2, 291.4 107.5, 290.6 109.7, 289C114.3, 285.6 118, 280.5 120.8, 275.5C122.8, 271.9 125.2, 267.2 126.4, 263.2C126.9, 261.5 127.5, 259.9 128.2, 258.4C129.3, 255.9 130.8, 253.3 133.4, 253.3C134.7, 253.3 135.8, 253.8 136.6, 254.8C138.3, 257 137.9, 259.3 137, 261.7C135, 267.3 132.3, 272.3 130.1, 278.4C128.8, 281.9 127.4, 286.4 127.4, 290.1C127.4, 293.5 131.1, 292.7 134.2, 291.3C136.6, 290.2 139, 288.5 141, 286.8C142.2, 281.9 141.9, 283 167.4, 218.6C168.7, 215.3 171.1, 213.9 173.5, 213.9C174.7, 213.9 175.7, 214.3 176.7, 215C178.4, 216.3 178.4, 219.1 177.7, 221.2C177, 223.1 177.1, 222.5 173.2, 231.7C168, 243.8 164.6, 252.5 160, 263.6C158.1, 268.2 152.3, 282.5 151.3, 285.9C150.7, 288.1 150, 291.7 152.3, 291.7C157.7, 291.7 171.6, 278.6 175.4, 274.7C175.6, 274.4 175.9, 274.3 176.3, 274.1C176.9, 272.2 177.5, 270.4 178, 268.6C179.4, 264.8 180.7, 260.4 183.3, 257.3C184.1, 256.3 185, 255.7 186, 255.7C188.8, 255.7 190.2, 256.9 190.2, 259.7C190.2, 260.8 189.5, 264.8 189.1, 265.9C190.5, 264.4 192, 262.9 193.6, 261.4C208.6, 247.5 219.3, 254.6 219.3, 261.6C219.3, 269 210.4, 279.3 205.5, 285C203.9, 286.9 200.6, 290.4 200.5, 291.4C200.5, 292.7 201.4, 293.2 202.7, 293.2C204.7, 293.2 209.1, 289.7 210.7, 288.5C215.7, 284.6 222.5, 278.6 227.3, 274.4L242.1, 137.6C211.6, 154.7 44.5, 154.8 13.8, 137.8zM243.5, 129.3C243.5, 150.3 12.3, 150.3 12.3, 129.3C12.3, 120.5 64.1, 113.4 127.9, 113.4C136.9, 113.4 145.7, 113.5 154.2, 113.8L166.8, 65.1L228.1, 0.6C229.5, -0.8 233.9, 0.4 238, 4.1C242.1, 7.8 244.6, 12 243.3, 13.4L243.2, 13.5L185.9, 74L175.9, 114.7C215.8, 117.3 243.5, 122.8 243.5, 129.3zM174.1, 133.9C174.1, 133.1 173.2, 132.4 171.6, 131.8L171.4, 132.6C171.4, 133.9 166.4, 135 160.3, 135C154.2, 135 149.2, 133.9 149.2, 132.6C149.2, 132.5 149.2, 132.4 149.3, 132.3L149.5, 131.6C147.7, 132.2 146.5, 133 146.5, 133.9C146.5, 136 152.7, 137.6 160.2, 137.6C167.9, 137.7 174.1, 136 174.1, 133.9z" fill="#727272" fill-opacity="1" class="Black" />
  </g>
</svg>