<?xml version='1.0' encoding='UTF-8'?>
<svg viewBox="-2 0 32 32" xmlns="http://www.w3.org/2000/svg">
  <g transform="matrix(0.0625, 0, 0, 0.0625, 0, 0)">
    <path d="M0, 32L0, 480L448, 480L448, 32L0, 32zM21.2, 229.2L21, 229.2C21.1, 229.1 21.2, 228.9 21.3, 228.8C21.3, 228.9 21.3, 229.1 21.2, 229.2zM239.2, 283.1L239.2, 384L207.8, 384L207.8, 281.3L128, 128L165.3, 128C217.8, 226.3 214.5, 229.2 224.6, 253.6C236.9, 226.6 230.4, 229.2 285.2, 128L320, 128L239.2, 283.1z" fill="#727272" fill-opacity="1" class="Black" />
  </g>
</svg>