<?xml version='1.0' encoding='UTF-8'?>
<svg viewBox="-1.9962 -4.7031 32 32" xmlns="http://www.w3.org/2000/svg">
  <g transform="matrix(0.0438, 0, 0, 0.0438, 0, 0)">
    <path d="M144.5, 352L182.8, 352.8C169.6, 348.2 156.8, 342.6 144.5, 336zM202.2, 346.7L202.2, 352L182.8, 352.8C219.3, 365.3 252.7, 367 277.5, 360C257.6, 360.2 231.7, 357.4 202.2, 346.7zM611.1, 231.5C627, 231.5 640, 218.6 640, 202.6C640, 186.6 627.1, 178.1 611.1, 178.1C595.2, 178.1 582.2, 186.7 582.2, 202.6C582.2, 218.5 595.1, 231.5 611.1, 231.5zM582.1, 352L640, 352L640, 241.5L582.1, 241.5zM508.4, 352L566.3, 352L566.3, 156.7L508.4, 184zM477.4, 232.6C459.2, 214.4 427, 215.5 427, 215.5C427, 215.5 394.7, 214.4 376.6, 232.6C358.4, 250.8 359.8, 266.5 359.8, 285.2C359.8, 303.9 358.4, 319.5 376.6, 337.7C394.8, 355.9 427, 354.8 427, 354.8C427, 354.8 459.3, 355.9 477.4, 337.7C495.6, 319.5 494.2, 303.9 494.2, 285.2C494.1, 266.4 495.5, 250.7 477.4, 232.6zM437.6, 304.5C437.6, 308.1 435.8, 317 426.9, 317C418, 317 416.2, 308.1 416.2, 304.5L416.2, 264.1C416.2, 255.4 423.5, 253.2 426.9, 253.2C430.3, 253.2 437.6, 255.3 437.6, 264.1zM331.4, 232.6C313.2, 214.4 281, 215.5 281, 215.5C281, 215.5 248.8, 214.4 230.6, 232.6C228.7, 234.5 226.9, 236.5 225.3, 238.6C187.1, 209 152.8, 192.1 123.2, 177.5L123.2, 156.8L100.7, 167.4C46.3, 145.3 11.7, 149.2 3.4, 167.5C3.4, 167.5 -21.5, 200.3 65.2, 278.3L65.2, 352L123.1, 352L123.1, 323.4C116.6, 319.2 110.1, 314.7 103.7, 309.8C88.9, 298.6 76.3, 288.2 65.3, 278.4L65.3, 247.4C78.4, 262.1 95.8, 278.8 118.7, 297.7L123.2, 301.3L123.2, 271.5C123.2, 264.6 124.9, 253.3 134, 253.3C143.1, 253.3 144.6, 260.2 144.6, 268.3L144.6, 317C162.6, 329.2 181.9, 339.1 202.3, 346.6L202.3, 252.7C202.3, 234 188.9, 215.3 161.7, 215.3C145.9, 215.2 131.2, 223.5 123.2, 237.2L123.2, 182.9C165.1, 203.8 207.1, 229.4 223.1, 241.2C212.9, 255.8 213.8, 269.3 213.8, 284.9C213.8, 303.6 212.4, 319.2 230.6, 337.4C248.8, 355.6 281, 354.5 281, 354.5C281, 354.5 313.3, 355.6 331.4, 337.4C349.6, 319.2 348.1, 303.6 348.1, 284.9C348.1, 266.4 349.6, 250.7 331.4, 232.6zM65.2, 184L65.2, 247.3C16.5, 192.8 26.3, 171.3 30, 168.2C43.5, 156.8 67.5, 160.2 94.4, 170.3zM291.7, 304.5C291.7, 308.1 289.9, 317 281, 317C272.1, 317 270.3, 308.1 270.3, 304.5L270.3, 264.1C270.3, 255.4 277.6, 253.2 281, 253.2C284.4, 253.2 291.7, 255.3 291.7, 264.1z" fill="#727272" fill-opacity="1" class="Black" />
  </g>
</svg>