<?xml version='1.0' encoding='UTF-8'?>
<svg viewBox="-2.0261 -2.0061 32 32" xmlns="http://www.w3.org/2000/svg">
  <g transform="matrix(0.0547, 0, 0, 0.0547, 0, 0)">
    <path d="M76.38, 370.3A37.8 37.8 0 1 1 44.31, 337.88C-33.97, 226.53 96.31, 147.35 96.31, 147.35C90.45, 190.35 88.07, 238.51 88.07, 238.51C20.76, 280 89, 302.57 127.88, 311.38A140.38 140.38 0 0 0 259.54, 403.32C261.46, 403.32 263.31, 403.11 265.21, 403.04L265.32, 421.9C166.1, 423.29 106.62, 392.76 76.38, 370.3zM184.38, 42.6A37.57 37.57 0 0 0 181, 21.45A37.95 37.95 0 1 0 149.83, 75.67C127.28, 105.58 96, 165.24 97.41, 265.67L119.25, 265.52C119.25, 264.62 119.11, 263.75 119.11, 262.84A140.42 140.42 0 0 1 207, 132.71C215, 95 237.7, 18.41 280.8, 88.42C280.8, 88.42 328.94, 90.8 371.98, 96.66C371.98, 96.66 294.14, -31.34 184.39, 42.6zM488.57, 176.77A37.94 37.94 0 1 0 434.73, 148.07C403, 126.13 344.89, 99 251.28, 100.33L251.42, 122.83C254.12, 122.68 256.81, 122.42 259.56, 122.42A140.37 140.37 0 0 1 390.05, 211.18C429.15, 220.18 495.11, 242.76 428.51, 283.72C428.51, 283.72 426.17, 331.85 420.3, 374.88C420.3, 374.88 553.75, 293.72 469.3, 180.27A37.45 37.45 0 0 0 488.61, 176.77zM374.06, 436.24C395.49, 403.78 420.48, 346.55 419.2, 256.58L399.68, 256.72C399.76, 258.78 399.98, 260.79 399.98, 262.87A140.34 140.34 0 0 1 308.59, 394.32C299.74, 433.27 277.15, 500.98 235.82, 433.81C235.82, 433.81 187.7, 431.47 144.63, 425.59C144.63, 425.59 224.55, 556.93 336.53, 476.59A37.5 37.5 0 0 0 340.17, 490.59A37.93 37.93 0 1 0 374.06, 436.3z" fill="#727272" fill-opacity="1" class="Black" />
  </g>
</svg>