<?xml version='1.0' encoding='UTF-8'?>
<svg viewBox="-3.354 -2 32 32" xmlns="http://www.w3.org/2000/svg">
  <g transform="matrix(0.0565, 0, 0, 0.0565, 0, 0)">
    <path d="M414.9, 161.5C340.2, 29 121.1, 0 121.1, 0C121.1, 0 222.2, 110.4 93, 197.7C11.3, 252.8 -21, 324.4 14, 402.6C40.8, 462.5 97.5, 486.9 158.6, 496C129.4, 440.9 152, 373.6 154.5, 366.4C211.6, 452.8 319.5, 366.4 265.3, 272.5C336.3, 287.9 346.9, 411.1 292.4, 488C372.9, 462.7 426.5, 399.1 441.2, 342.4C456.7, 283.1 444.9, 214.5 414.9, 161.5z" fill="#727272" fill-opacity="1" class="Black" />
  </g>
</svg>