<?xml version='1.0' encoding='UTF-8'?>
<svg viewBox="-2 0 32 32" xmlns="http://www.w3.org/2000/svg">
  <g transform="matrix(0.0625, 0, 0, 0.0625, 0, 0)">
    <path d="M400, 32L48, 32C21.5, 32 0, 53.5 0, 80L0, 432C0, 458.5 21.5, 480 48, 480L400, 480C426.5, 480 448, 458.5 448, 432L448, 80C448, 53.5 426.5, 32 400, 32zM21.3, 229.2L21, 229.2C21.1, 229.1 21.2, 228.9 21.3, 228.8zM97, 319.8L64, 319.8L64, 192L97, 192zM210.2, 319.8L181.5, 319.8L181.5, 233.4L169.9, 319.8L149.3, 319.8L137.1, 235.3L137.1, 319.8L108.1, 319.8L108.1, 192L150.9, 192C154.2, 211.8 156.9, 231.9 159.6, 251.9L167.2, 192L210.2, 192zM221.6, 319.8L221.6, 192L246.2, 192C263.8, 192 290.9, 190.4 295.2, 212.9C296.9, 220.5 296.6, 229.2 296.6, 237.3C296.6, 325.8 307.7, 319.9 221.6, 319.8zM382.5, 290.6C382.5, 306.3 380.1, 321.5 360.3, 321.5C351.3, 321.5 345.1, 318.5 339.4, 311.7L337.5, 319.8L307.7, 319.8L307.7, 192L339.4, 192L339.4, 233.7C345.4, 227.2 351.4, 224.5 360.3, 224.5C381.7, 224.5 382.5, 237.3 382.5, 254.6zM265, 229.9C265, 220.2 266.6, 213.9 254.7, 213.9L254.7, 297.6C266.9, 297.9 265, 288.9 265, 279.2zM350.5, 256C350.5, 250.6 351.6, 243.3 344.3, 243.3C338.3, 243.3 339.4, 252.2 339.4, 256C339.4, 256.6 338.3, 295.6 340.5, 300.7C341.3, 302.3 342.7, 303.1 344.3, 303.1C352.1, 303.1 350.5, 294.1 350.5, 288.7z" fill="#727272" fill-opacity="1" class="Black" />
  </g>
</svg>