<?xml version='1.0' encoding='UTF-8'?>
<svg viewBox="-2 -1.9999 32 32" xmlns="http://www.w3.org/2000/svg">
  <g transform="matrix(0.0547, 0, 0, 0.0547, 0, 0)">
    <path d="M483.049, 159.706C493.904, 135.131 504.473, 99.268 504.473, 71.835C504.473, -0.887 424.832, -26.536 294.8, 33.258C187.168, 26.077 83.579, 106.928 57.702, 219.715C88.554, 184.853 135.973, 137.417 179.679, 118.557C125.404, 166.85 79.128, 228.002 43.992, 291.725C23.246, 329.651 0, 390.94 0, 436.747C0, 535.322 92.854, 523.247 180.251, 478.753C211.674, 494.183 246.81, 494.326 281.946, 494.326C379.07, 494.326 466.195, 440.032 498.76, 348.304L377.927, 348.304C325.418, 436.897 181.108, 401.3 181.108, 300.868L509.9, 300.868C516.307, 257.287 508.245, 205.153 483.049, 159.706zM64.559, 346.877C82.27, 398.027 118.262, 442.748 164.825, 470.181C76.084, 519.121 -8.442, 499.277 64.559, 346.877zM180.536, 238.004C182.536, 182.853 230.812, 143.133 284.516, 143.133C337.934, 143.133 386.497, 182.853 388.497, 238.004L180.536, 238.004zM365.072, 50.404C386.497, 40.117 413.635, 28.401 437.63, 28.401C469.052, 28.401 491.904, 50.118 491.904, 82.123C491.904, 102.126 484.477, 131.13 477.335, 149.99C451.055, 107.698 411.349, 68.406 365.072, 50.404z" fill="#727272" fill-opacity="1" class="Black" />
  </g>
</svg>