<?xml version='1.0' encoding='UTF-8'?>
<svg viewBox="-1.6064 -1.6036 32 32" xmlns="http://www.w3.org/2000/svg">
  <g transform="matrix(0.0562, 0, 0, 0.0562, 0, 0)">
    <path d="M71.92, 34.77C50.2, 47.67 7.4, 96.84 7, 109.73L7, 131.07C7, 158.13 32.29, 181.91 55.25, 181.91C82.82, 181.91 105.79, 159.06 105.79, 131.91C105.79, 159.03 127.97, 181.91 155.55, 181.91C183.13, 181.91 204.55, 159.06 204.55, 131.91C204.55, 159.03 228.14, 181.91 255.71, 181.91L256.21, 181.91C283.78, 181.91 307.37, 159.06 307.37, 131.91C307.37, 159.03 328.84, 181.91 356.37, 181.91C383.9, 181.91 406.13, 159.06 406.13, 131.91C406.13, 159.03 429.13, 181.91 456.67, 181.91C479.67, 181.91 504.92, 158.13 504.92, 131.07L504.92, 109.73C504.52, 96.83 461.72, 47.66 440, 34.73C372.56, 32.4 325.76, 32 256, 32C186.24, 32 91.14, 33.1 71.92, 34.77zM204.24, 169.16C182.24, 207.56 126.34, 207.87 104.39, 169.41C91.22, 192.55 61.22, 201.48 48.39, 197.07C44.52, 237.22 34.72, 434.2 66.12, 466.22C146.12, 484.89 368.2, 484.34 445.88, 466.22C477.53, 433.95 467.2, 234.22 463.63, 197.07C450.71, 201.51 420.75, 192.47 407.63, 169.41C385.63, 207.93 329.78, 207.51 307.78, 169.17C300.68, 181.66 284.73, 198.11 256.02, 198.11A57.54 57.54 0 0 1 204.27, 169.17zM162.66, 222.93C179.13, 222.93 193.75, 222.93 211.88, 242.71A436.91 436.91 0 0 1 300.06, 242.71C318.22, 223 332.85, 223 349.31, 223C401.64, 223 414.53, 300.53 433.18, 367.45C450.44, 429.6 427.66, 431.12 399.23, 431.18C357.08, 429.61 333.74, 399 333.74, 368.39C294.49, 374.82 231.81, 377.18 178.19, 368.39C178.19, 399 154.85, 429.61 112.7, 431.18C84.28, 431.12 61.5, 429.6 78.76, 367.45C97.43, 300.45 110.32, 223 162.64, 223zM256, 270.79C256, 270.79 211.62, 311.56 203.65, 326L232.65, 324.83L232.65, 350.15C232.65, 351.7 253.99, 350.31 255.98, 350.31C267.63, 350.85 279.29, 351.31 279.29, 350.15L279.29, 324.87L308.29, 326.04C300.29, 311.56 255.94, 270.8 255.94, 270.8z" fill="#727272" fill-opacity="1" class="Black" />
  </g>
</svg>