<?xml version='1.0' encoding='UTF-8'?>
<svg viewBox="-4.1209 -0.0177 32 32" xmlns="http://www.w3.org/2000/svg">
  <g transform="matrix(0.0619, 0, 0, 0.0619, 0, 0)">
    <path d="M381.9, 388.2C375.5, 415.6 354.7, 431 326.8, 436.2C302.3, 440.7 281.9, 441.8 262.3, 426C238.4, 405.9 238.1, 372.6 259.6, 351.6C276.6, 335.4 300.5, 332.1 336.4, 325.8C342.4, 324.7 347.6, 323.3 352, 318.4C358.4, 311.2 356.4, 314.3 356.4, 155.2C356.4, 144 350.9, 140.9 339.4, 142.9C331.2, 144.3 153.7, 177.5 153.7, 177.5C143.5, 179.7 140.3, 182.7 140.3, 194.2C140.3, 428.9 141.4, 418.1 137.8, 433.7C133.6, 451.9 122.4, 465.6 107.6, 473.2C90.8, 482.5 60.4, 486.6 44.2, 483.6C1, 475.5 -14.2, 425.6 15.1, 397C32.1, 380.8 56, 377.5 91.9, 371.2C97.9, 370.1 103.1, 368.7 107.5, 363.8C117.6, 352.3 109.3, 107.2 112.7, 93.6C113.5, 88.4 115.7, 84 119.8, 80.7C124, 77.2 131.6, 75.2 133.2, 75.2C337.2, 37 362.1, 32.1 365.6, 32.1C377.1, 31.3 383.7, 38.1 383.7, 49.7C383.9, 394.2 384.8, 375.7 381.9, 388.2z" fill="#727272" fill-opacity="1" class="Black" />
  </g>
</svg>