<?xml version='1.0' encoding='UTF-8'?>
<svg viewBox="-1.9964 -1.9978 32 32" xmlns="http://www.w3.org/2000/svg">
  <g transform="matrix(0.0547, 0, 0, 0.0547, 0, 0)">
    <path d="M487.1, 425C485.7, 413.8 468.1, 401.9 458.9, 393.1C453.8, 388.1 429.9, 370 428.5, 363.2C427.1, 356.6 438.2, 341.7 441.8, 334.3C446.9, 323.6 450.6, 310.6 453.1, 301.7C471.9, 235.6 473.8, 144.8 446.9, 90.5C436.7, 69.9 408.3, 41.5 390.5, 28C348.5, -3.7 270.9, -7.3 220.4, 11.4C206.3, 16.6 192.6, 21.2 180.3, 28.5C147.2, 47.9 112, 61 102.2, 100.1C78, 110.9 70.7, 141.9 71.9, 177.9C72.1, 184.9 76, 193.7 74.6, 200.3C73.9, 203.6 69.4, 207.9 68.5, 210.1C56.9, 237.8 66.2, 274.1 79.6, 293.8C87.7, 305.7 101.1, 316.2 118.8, 319C119.5, 329.6 122.1, 338.7 127, 349.4C130.1, 356.2 141.7, 368.4 137.4, 377.1C135.2, 381.5 116.4, 390.9 110.1, 394.7C89, 407.2 73.7, 415 54.2, 429C41.6, 438 21.9, 439.2 25, 460.1C27.1, 474.2 35.1, 491.7 39.7, 505.9C40.4, 507.9 41.1, 510 41.8, 511.9L463.8, 511.9C468.7, 496.6 473.5, 481 478.4, 464.7C481.8, 453.3 488.6, 436.9 487.1, 425zM205.9, 33.7C207.7, 33.2 209.3, 34.4 210.8, 36.1C210.6, 41.3 205.4, 41.2 201.9, 42.9C196.5, 49.6 188.5, 52.7 181.9, 60.1C175.1, 67.6 167.5, 87.8 158.5, 90.1C154, 91.2 148.8, 89.3 144.9, 89.6C134.5, 90.3 127.2, 95.6 116.6, 97.1C130.2, 67.2 172.7, 43.1 205.9, 33.7zM101.1, 127.3C114.6, 112.4 133.2, 103.2 155.9, 101.4C167.6, 131.1 147.5, 166.4 155, 199C157.3, 208.9 165.2, 224.4 152.6, 224.7C152.9, 196.4 117.8, 178.4 91.3, 195.1C89.5, 173.6 86.4, 143.4 101.1, 127.3zM137.8, 327.5C136.8, 323.4 135.1, 314.6 135.5, 312.4C137.1, 303.7 152.6, 299.9 146.5, 287.7C135.2, 287.6 132.7, 297.9 122.4, 299C95.7, 301.6 76.8, 263.6 78, 240.6C79, 221.1 95.6, 202.4 118.1, 204.8C134.1, 206.6 139.5, 224 142.6, 239.5C151.8, 240 165.1, 239.1 169.5, 231.9C168.9, 214.4 160.7, 200.3 161.3, 184.2C162.3, 153.9 178.8, 126.6 166.1, 96.8C179.7, 65.9 219.6, 41.5 249.2, 26.8C285.8, 8.5 344.1, 23.1 378.5, 42.6C398.2, 53.7 412.9, 75.3 426.8, 93.3C407.3, 87.5 390.7, 97.5 393.7, 113.6C410, 98.7 437.9, 113.4 446.2, 130C454.1, 145.8 454, 169.3 455.2, 192.8C458.1, 249.8 444.8, 308.7 416.1, 349.9C408.4, 360.9 402, 372.9 391.2, 380.5C365.2, 398.7 325.8, 415.2 292, 403.9C247.3, 388.9 227, 359.1 202.5, 325.1C203.2, 343.8 216.3, 359.2 229.3, 373.5C240.6, 386 254.3, 400.1 269, 405.9C256.7, 403 237.9, 402.1 232.8, 413.1C204.2, 411.2 177.7, 408.3 164.1, 388.9C153.5, 373.5 142.7, 347.5 137.8, 327.5zM359.8, 451.6C363.9, 448.6 370.9, 448.7 377.2, 448C371.8, 445.3 364.2, 444.3 357.9, 445.8C357.8, 441.6 355.9, 439 354.7, 435.6C365.3, 431.8 390.2, 407.1 404.3, 415.3C411, 419.2 413.8, 441.5 414.4, 452.3C414.8, 461.3 413.6, 470.3 409.9, 475.1C391.1, 474.5 374.1, 472.3 359.2, 468.1C360.1, 462 358.2, 456 359.8, 451.6zM342.6, 431.6C325.8, 432.4 316.6, 430.4 304.3, 420.8C304.5, 420 305.7, 420.3 305.8, 419.4C323.8, 427.4 346.6, 416.1 364.8, 414.5C356.9, 419.6 350.2, 426.1 342.6, 431.6zM330.5, 464.8C328.9, 455.4 327, 452.8 327.7, 444.6C352.7, 428 357.4, 473.2 330.5, 464.8zM226, 438.6C214.4, 437.9 177.9, 424.6 187.5, 414.9C196.9, 421.4 215, 419.8 228.8, 422.2C229.6, 426.6 226, 432.4 226, 438.6zM57.7, 497.1C53.4, 484.4 48.5, 472 42.9, 460.2C73.7, 436.4 108.2, 411.3 145.1, 396.7C147.9, 395.6 168.3, 422.1 171.3, 424.3C187.8, 436 208.3, 445.3 227.5, 454.5C228.7, 463.3 231.4, 474.7 236.2, 490C236.9, 492.3 237.6, 494.7 238.4, 497.2L57.7, 497.2zM298.3, 502.8L297.5, 502.8C297.8, 502.6 298, 502.4 298.3, 502.3L298.3, 502.8zM305.8, 497.1C307.9, 495.7 310.1, 494.3 312.2, 492.8C313.3, 494.2 314.4, 495.6 315.4, 497.1L305.8, 497.1zM320.9, 472.4C310.1, 479.7 300.3, 490.7 287.6, 497.6C281.6, 500.9 260.6, 509.3 254.2, 507.8C250.6, 507 250.3, 502.5 248.8, 498.3C245.7, 489.3 238.7, 474.9 238, 461.3C237.2, 444.1 235.5, 415.3 254, 418.9C268.9, 421.8 286.3, 428.6 297.9, 435C305, 438.9 309, 443.6 319.8, 444.5C319.7, 445.9 319.7, 447.3 319.6, 448.8C313.7, 452.7 304.3, 452.6 297.8, 455.9C307.3, 456.3 314.8, 458.6 321.3, 461.8C321.2, 465.2 321, 468.8 320.9, 472.4zM374.3, 497.1L360.3, 497.1C360.2, 493.9 357.5, 491.3 354.2, 491.3C350.9, 491.3 348.3, 493.9 348.1, 497.1L330.7, 497.1C327.9, 492.7 325, 488.5 321.8, 484.6C323.9, 482.4 325.8, 479.9 327.8, 477.7C336.8, 481.4 342.6, 472.8 349.5, 473.5C357.4, 474.3 363.7, 485.2 374.9, 484.5L374.3, 497.1zM383, 497.1C383.2, 493.1 383.4, 489.3 383.6, 485.6C399.2, 478.3 412.6, 486.9 419.3, 497.1L383, 497.1zM466.4, 460.1C464.1, 471.3 460.6, 484.1 456.5, 497.2C456.3, 497.1 456.1, 497.1 455.9, 497.1L428, 497.1C428.6, 496 429.2, 494.9 429.9, 493.8C427.3, 487.7 420.9, 485.1 419, 478.3C431.1, 455.6 425.5, 384.9 394.8, 399.8C399.1, 393.5 410.4, 388.3 415.6, 380.5C428.6, 390.9 436.4, 400.8 448.8, 411.9C455.6, 417.9 468.8, 425.2 470.2, 435C471, 440.5 467.6, 453.9 466.4, 460.1zM222.2, 130.5C227.6, 115.6 249.4, 95.8 267.2, 98.5C274.9, 99.7 285.2, 106.7 279.4, 116.2C249.2, 109.2 234.2, 128.8 225, 149.3C216.9, 147.3 220.1, 136.2 222.2, 130.5zM406.3, 193.6C414.5, 190 428.7, 192.9 435.9, 188.3C431.7, 176.8 425.6, 166.9 426.6, 150.6C427.1, 150.6 427.6, 150.6 428, 150.7C434.8, 164.9 440.7, 179.9 449.4, 192.4C443.7, 205.9 405.8, 217.8 406.3, 193.6zM426.7, 150.6zM309.5, 196.3C302.7, 185.4 290.5, 163.8 295, 151C301.5, 162.9 303.6, 175.4 312.8, 184.3C316.9, 188.3 325, 193.3 321, 204.5C320.1, 207.2 313.2, 213.1 309.3, 214.2C294.9, 218.5 261.4, 215.1 272.7, 197.1C284.6, 197.8 300.6, 204.9 309.5, 196.3zM336.8, 266.3C340.6, 272.9 338.2, 285 348.9, 286.9C369.1, 290.3 392.5, 274.6 407, 269.1C416, 253.9 406.2, 248.4 398.1, 238.6C381.5, 218.6 359.3, 193.8 360.1, 163.9C366.8, 159 367.4, 171.3 368.3, 173.6C377, 193.9 398.7, 219.8 414.6, 237.1C418.5, 241.4 424.9, 245.5 425.6, 248.3C427.7, 256.5 420.2, 266.3 421.1, 271.8C399.4, 285.7 375.3, 300.9 339.7, 297.4C332.3, 290.7 329.4, 276 336.8, 266.3zM135.5, 257.1C128.7, 253.2 127.1, 236.1 119.1, 235.7C107.7, 235 109.8, 257.9 109.8, 271.2C102, 264.1 100.6, 242.1 106.3, 230.9C99.7, 227.7 96.8, 234.5 93.2, 236.8C97.9, 202.7 143, 221 135.5, 257.1zM435.1, 285.9C425, 305.1 410.7, 326.3 381.1, 326.9C380.5, 320.7 380, 311.3 381.1, 307.5C403.8, 305.3 417.7, 293.8 435.1, 285.9zM293.2, 298.3C312.1, 308.2 346.8, 309.3 372.5, 308.5C373.9, 314.1 373.8, 321.1 373.9, 327.9C340.9, 329.7 301.9, 321.5 293.2, 298.3zM385.4, 345C383.7, 349.3 380.1, 354.3 375.6, 356.1C363.5, 361 330, 364.8 313.2, 355.8C302.5, 350.1 295.7, 337.3 289.8, 329.8C287, 326.2 272.9, 316.9 289.6, 316.9C302.7, 349.6 347.6, 345.9 385.4, 345z" fill="#727272" fill-opacity="1" class="Black" />
  </g>
</svg>