<?xml version='1.0' encoding='UTF-8'?>
<svg viewBox="-2.0014 -1.5491 32 32" xmlns="http://www.w3.org/2000/svg">
  <g transform="matrix(0.0564, 0, 0, 0.0564, 0, 0)">
    <path d="M378.1, 45C337.6, 19.9 292.6, 8 248.2, 8C165, 8 83.8, 49.9 36.9, 125.9C-35, 242.5 1.3, 395.2 117.9, 467.1C234.5, 539 387.2, 502.7 459.1, 386.2C531, 269.6 494.7, 116.8 378.1, 45zM429.9, 368.2C389.5, 433.7 319.5, 469.7 247.9, 469.7C241.1, 469.7 234.3, 469.3 227.5, 468.7C218.5, 455.1 207.6, 435.4 203.8, 426.3C198.1, 412.6 176.6, 380.7 235, 359.2C286.7, 340.1 411.7, 342.7 443.8, 341.6C439.8, 350.6 435.2, 359.5 429.9, 368.2zM229.1, 281.9C173.6, 280.5 147.4, 261.1 170.6, 233.7C193.8, 206.3 221.7, 193 239.5, 182.5C257.4, 172 266.8, 148.8 215.9, 152.8C87.3, 161.5 48.6, 252.1 37.6, 293C28.8, 243.3 37.5, 190.3 66.1, 143.9C128, 43.4 259.6, 12.2 360.1, 74.1C434.9, 120.2 471.3, 205 459.4, 286.8C434.5, 286.3 280.1, 283.2 229.1, 281.9zM412.9, 227.1C390.2, 221.1 355.9, 238.4 326.2, 254.3C296.5, 270.1 295.1, 262.5 295.1, 262.5C295.1, 262.5 335.3, 234.4 345.8, 228C356.3, 221.6 377.7, 214 359.2, 203.4C356, 201.6 352.5, 200.7 348.8, 200.7C331, 200.7 307.3, 219.4 281.3, 236.3C249.8, 256.8 216, 267.6 216, 267.6L385.5, 266L432, 242.6C432, 242.6 435.6, 233.1 412.9, 227.1z" fill="#727272" fill-opacity="1" class="Black" />
  </g>
</svg>