<?xml version='1.0' encoding='UTF-8'?>
<svg viewBox="-1.7244 -3.3102 32 32" xmlns="http://www.w3.org/2000/svg">
  <g transform="matrix(0.0496, 0, 0, 0.0496, 0, 0)">
    <path d="M510.634, 237.462C505.907, 234.841 504.97, 231.714 504.253, 226.686C501.901, 210.198 500.714, 193.067 495.156, 177.591C459.261, 77.634 341.166, 34.205 248.307, 85.945C220.937, 101.195 199.336, 122.314 182.814, 149.848C179.63, 148.34 177.356, 147.138 174.99, 146.162C144.888, 133.741 115.941, 136.041 89.659, 155.329C64.128, 174.066 53.237, 199.877 56.983, 231.737C57.338, 234.762 55.016, 239.358 52.469, 241.282C12.757, 271.274 -3.562, 319.347 10.567, 365.897C24.398, 411.466 68.081, 445.693 116.175, 447.33C146.466, 448.361 176.812, 447.876 207.134, 447.869C291.175, 447.848 375.224, 448.4 459.254, 447.389C511.918, 446.755 555.362, 410.516 567.466, 360.096C579.006, 312.022 556.322, 262.796 510.634, 237.462zM531.741, 394.342C513.511, 416.774 489.398, 429.595 460.461, 429.992C403.587, 430.773 346.694, 430.222 289.809, 430.222C289.809, 430.922 126.781, 430.381 126.081, 430.376C82.22, 430.044 49.342, 410.61 30.906, 370.381C12.004, 329.136 26.902, 279.533 65.092, 254.275C74.274, 248.202 77.597, 242.709 75.188, 231.139C69.698, 204.778 79.641, 183.183 101.608, 168.158C124.595, 152.435 149.03, 152.012 173.642, 165.075C183.911, 170.525 188.249, 176.639 195.84, 162.548C210.062, 136.149 230.397, 115.821 256.511, 101.254C353.971, 46.888 484.881, 108.822 486.751, 233.951C486.873, 242.101 489.163, 246.379 496.599, 249.845C554.159, 276.674 571.055, 345.967 531.741, 394.342zM443.952, 313.843C438.104, 345 409.33, 368.939 377.286, 368.938C360.333, 368.937 345.228, 362.393 333.207, 351.233C305.51, 325.52 262.066, 276.253 237.27, 257.846C217.214, 242.958 195.28, 245.513 176.998, 261.628C127.002, 305.699 192.857, 383.403 244.061, 338.816C248.609, 334.856 251.901, 329.273 256.805, 325.972C264.989, 320.463 277.571, 325.088 269.973, 336.594C252.615, 362.878 220.643, 374.791 191.11, 365.895C162.213, 357.191 142.27, 329.927 142.484, 295.716C143.709, 273.231 154.848, 252.656 177.898, 239.751C200.473, 227.113 224.267, 226.605 244.889, 242.225C295.68, 280.7 320.467, 323.97 352.185, 343.47C376.743, 358.569 406.439, 350.833 421.008, 325.964C449.838, 276.755 386.416, 220.948 342.14, 262.504C338.151, 266.248 335.223, 271.436 330.73, 274.224C319.755, 281.035 313.397, 270.111 317.921, 263.871C338.624, 235.317 368.385, 223.431 401.192, 235.657C432.621, 247.371 450.3, 280.023 443.952, 313.843z" fill="#727272" fill-opacity="1" class="Black" />
  </g>
</svg>