<?xml version='1.0' encoding='UTF-8'?>
<svg viewBox="-7.2626 -2 32 32" xmlns="http://www.w3.org/2000/svg">
  <g transform="matrix(0.0547, 0, 0, 0.0547, 0, 0)">
    <path d="M304.2, 501.5L158.4, 320.3L298.2, 185C300.8, 182.3 299.9, 174.5 292.9, 174.5L223.7, 174.5C220.2, 174.5 216.7, 176.3 213.2, 179.8L80.9, 313.5L80.9, 7.5Q80.9, 0 73.4, 0L21.5, 0Q14, 0 14, 7.5L14, 504.5Q14, 512 21.5, 512L73.4, 512Q80.9, 512 80.9, 504.5L80.9, 395.5L111.7, 366.2L222.2, 506.8C225.2, 510.3 228.7, 512.1 232.7, 512.1L299.6, 512.1Q304.85, 512.1 305.6, 509.1z" fill="#727272" fill-opacity="1" class="Black" />
  </g>
</svg>