<?xml version='1.0' encoding='UTF-8'?>
<svg viewBox="-2.0008 -2 32 32" xmlns="http://www.w3.org/2000/svg">
  <g transform="matrix(0.0547, 0, 0, 0.0547, 0, 0)">
    <path d="M504.4, 115.83A5.72 5.72 0 0 0 504.12, 115.15A8.52 8.52 0 0 0 503.59, 113.9A6 6 0 0 0 503.05, 113.19A9.36 9.36 0 0 0 502.33, 112.25C502.1, 112.03 501.81, 111.85 501.56, 111.65A8.84 8.84 0 0 0 500.66, 110.97L404.4, 55.55A8 8 0 0 0 396.4, 55.55L300.12, 111L300.12, 111A8.07 8.07 0 0 0 299.24, 111.69A7.68 7.68 0 0 0 298.46, 112.29A8.23 8.23 0 0 0 297.74, 113.22C297.57, 113.46 297.35, 113.67 297.2, 113.93A9.7 9.7 0 0 0 296.68, 115.18C296.6, 115.41 296.47, 115.62 296.4, 115.86A8.08 8.08 0 0 0 296.12, 117.94L296.12, 223.18L215.9, 269.37L215.9, 63.44A7.8 7.8 0 0 0 215.62, 61.35C215.56, 61.11 215.42, 60.9 215.34, 60.67A8.35 8.35 0 0 0 214.82, 59.43C214.68, 59.17 214.45, 58.96 214.28, 58.71A9.36 9.36 0 0 0 213.56, 57.77A9.46 9.46 0 0 0 212.78, 57.17A9.8 9.8 0 0 0 211.9, 56.49L211.9, 56.49L115.61, 1.07A8 8 0 0 0 107.61, 1.07L11.34, 56.49L11.34, 56.49A6.52 6.52 0 0 0 10.46, 57.18A7.81 7.81 0 0 0 9.67, 57.78A8.15 8.15 0 0 0 8.96, 58.71C8.78, 58.96 8.56, 59.17 8.41, 59.43A7.88 7.88 0 0 0 7.9, 60.67A6.46 6.46 0 0 0 7.61, 61.34A8.18 8.18 0 0 0 7.33, 63.44L7.33, 393.14A8 8 0 0 0 11.33, 400.09L203.83, 510.93A8.83 8.83 0 0 0 205.16, 511.47C205.37, 511.55 205.57, 511.67 205.79, 511.73A7.92 7.92 0 0 0 209.89, 511.73C210.09, 511.68 210.26, 511.57 210.44, 511.51A8.6 8.6 0 0 0 211.84, 510.93L404.4, 400.09A8 8 0 0 0 408.4, 393.14L408.4, 287.88L500.64, 234.77A8 8 0 0 0 504.64, 227.77L504.64, 117.92A8.63 8.63 0 0 0 504.4, 115.83zM111.6, 17.28L111.6, 17.28L191.79, 63.43L111.59, 109.61L31.41, 63.44zM199.85, 77.28L199.85, 278.6L153.32, 305.39L119.63, 324.79L119.63, 123.5L166.16, 96.71zM199.85, 490.06L23.37, 388.5L23.37, 77.32L57.06, 96.7L103.58, 123.5L103.58, 338.68A6.94 6.94 0 0 0 103.7, 339.58A8 8 0 0 0 103.86, 340.76L103.86, 340.76A5.92 5.92 0 0 0 104.24, 341.66A6.38 6.38 0 0 0 104.66, 342.66L104.66, 342.66A8.54 8.54 0 0 0 105.26, 343.44A7.62 7.62 0 0 0 105.92, 344.28L105.92, 344.28C106.15, 344.5 106.44, 344.66 106.69, 344.86A8.93 8.93 0 0 0 107.55, 345.52L107.55, 345.52L107.55, 345.52L199.74, 397.7zM207.85, 383.89L127.79, 338.57L211.88, 290.16L304.14, 237.05L384.27, 283.18L325.47, 316.74zM392.37, 388.46L215.88, 490.11L215.88, 397.8L346.6, 323.2L392.37, 297.05zM392.37, 269.33L358.68, 250L312.15, 223.21L312.15, 131.79L345.84, 151.19L392.37, 178zM400.37, 164.05L320.17, 117.88L400.37, 71.72L480.55, 117.87zM408.37, 269.33L408.37, 178L455, 151.19L488.68, 131.79L488.68, 223.18L488.68, 223.18z" fill="#727272" fill-opacity="1" class="Black" />
  </g>
</svg>