<?xml version='1.0' encoding='UTF-8'?>
<svg viewBox="-1.6548 -3.2487 32 32" xmlns="http://www.w3.org/2000/svg">
  <g transform="matrix(0.0498, 0, 0, 0.0498, 0, 0)">
    <path d="M386.539, 111.485L401.635, 360.44L390.656, 360.165C354.424, 359.341 319.016, 368.948 287.999, 388.162C256.983, 368.948 221.575, 360.165 185.342, 360.165C139.778, 360.165 103.272, 370.87 61.826, 387.888L93.117, 129.6C121.663, 117.797 154.601, 111.485 185.343, 111.485C226.516, 111.485 259.179, 124.66 288, 154.029C315.723, 125.758 347.013, 112.308 386.539, 111.485zM569.07, 448C543.544, 448 521.585, 442.785 498.528, 432.355C464.218, 416.71 428.535, 407.377 390.657, 407.377C351.68, 407.377 315.723, 420.278 288, 448C260.277, 420.277 224.32, 407.377 185.343, 407.377C147.465, 407.377 111.782, 416.71 77.472, 432.355C55.239, 442.236 32.731, 448 8.303, 448L6.93, 448L49.475, 98.859C88.726, 76.626 136.486, 64 181.775, 64C218.83, 64 256.984, 71.685 288, 93.095C319.016, 71.685 357.17, 64 394.225, 64C439.514, 64 487.274, 76.626 526.525, 98.859L569.07, 448zM525.702, 403.259L491.666, 123.013C460.924, 109.014 424.418, 101.603 390.657, 101.603C352.229, 101.603 316.272, 113.68 288, 140.305C259.728, 113.68 223.772, 101.603 185.343, 101.603C151.582, 101.603 115.076, 109.014 84.334, 123.013L50.298, 403.259C97.509, 383.772 133.192, 369.773 185.343, 369.773C222.947, 369.773 256.16, 379.379 288, 399.417C319.84, 379.379 353.052, 369.773 390.657, 369.773C442.808, 369.773 478.491, 383.772 525.702, 403.259z" fill="#727272" fill-opacity="1" class="Black" />
  </g>
</svg>