<?xml version='1.0' encoding='UTF-8'?>
<svg viewBox="-2 0 32 32" xmlns="http://www.w3.org/2000/svg">
  <g transform="matrix(0.0625, 0, 0, 0.0625, 0, 0)">
    <path d="M272.1, 204.2L272.1, 275.3C272.1, 277.1 270.7, 278.5 268.9, 278.5L257.5, 278.5C256.4, 278.5 255.4, 277.9 254.9, 277.2L222.3, 233.2L222.3, 275.4C222.3, 277.2 220.9, 278.6 219.1, 278.6L207.7, 278.6C205.9, 278.6 204.5, 277.2 204.5, 275.4L204.5, 204.3C204.5, 202.5 205.9, 201.1 207.7, 201.1L219, 201.1C220, 201.1 221.1, 201.6 221.6, 202.5L254.2, 246.5L254.2, 204.3C254.2, 202.5 255.6, 201.1 257.4, 201.1L268.8, 201.1C270.6, 201 272.1, 202.5 272.1, 204.2zM190.1, 201L178.7, 201C176.9, 201 175.5, 202.4 175.5, 204.2L175.5, 275.3C175.5, 277.1 176.9, 278.5 178.7, 278.5L190.1, 278.5C191.9, 278.5 193.3, 277.1 193.3, 275.3L193.3, 204.2C193.3, 202.5 191.9, 201 190.1, 201zM162.6, 260.6L131.5, 260.6L131.5, 204.2C131.5, 202.4 130.1, 201 128.3, 201L116.9, 201C115.1, 201 113.7, 202.4 113.7, 204.2L113.7, 275.3C113.7, 276.2 114, 276.9 114.6, 277.5C115.2, 278 115.9, 278.4 116.8, 278.4L162.5, 278.4C164.3, 278.4 165.7, 277 165.7, 275.2L165.7, 263.8C165.7, 262.1 164.3, 260.6 162.6, 260.6zM332.1, 201L286.4, 201C284.7, 201 283.2, 202.4 283.2, 204.2L283.2, 275.3C283.2, 277 284.6, 278.5 286.4, 278.5L332.1, 278.5C333.9, 278.5 335.3, 277.1 335.3, 275.3L335.3, 263.9C335.3, 262.1 333.9, 260.7 332.1, 260.7L301, 260.7L301, 248.7L332.1, 248.7C333.9, 248.7 335.3, 247.3 335.3, 245.5L335.3, 234C335.3, 232.2 333.9, 230.8 332.1, 230.8L301, 230.8L301, 218.8L332.1, 218.8C333.9, 218.8 335.3, 217.4 335.3, 215.6L335.3, 204.2C335.2, 202.5 333.8, 201 332.1, 201zM448, 113.7L448, 399C447.9, 443.8 411.2, 480.1 366.3, 480L81, 480C36.2, 479.9 -0.1, 443.1 0, 398.3L0, 113C0.1, 68.2 36.9, 31.9 81.7, 32L367, 32C411.8, 32.1 448.1, 68.8 448, 113.7zM386.4, 236.3C386.4, 163.3 313.2, 103.9 223.3, 103.9C133.4, 103.9 60.2, 163.3 60.2, 236.3C60.2, 301.7 118.2, 356.5 196.6, 366.9C215.7, 371 213.5, 378 209.2, 403.7C208.5, 407.8 205.9, 419.8 223.3, 412.5C240.7, 405.2 317.2, 357.2 351.5, 317.8C375.1, 291.8 386.4, 265.5 386.4, 236.3z" fill="#727272" fill-opacity="1" class="Black" />
  </g>
</svg>