<?xml version='1.0' encoding='UTF-8'?>
<svg viewBox="-2 -1.9997 32 32" xmlns="http://www.w3.org/2000/svg">
  <g transform="matrix(0.0625, 0, 0, 0.0625, 0, 0)">
    <path d="M100.28, 448L7.4, 448L7.4, 148.9L100.28, 148.9zM53.79, 108.1C24.09, 108.1 0, 83.5 0, 53.8A53.79 53.79 0 0 1 107.58, 53.8C107.58, 83.5 83.48, 108.1 53.79, 108.1zM447.9, 448L355.22, 448L355.22, 302.4C355.22, 267.7 354.52, 223.2 306.93, 223.2C258.64, 223.2 251.24, 260.9 251.24, 299.9L251.24, 448L158.46, 448L158.46, 148.9L247.54, 148.9L247.54, 189.7L248.84, 189.7C261.24, 166.2 291.53, 141.4 336.72, 141.4C430.72, 141.4 448, 203.3 448, 283.7L448, 448z" fill="#727272" fill-opacity="1" class="Black" />
  </g>
</svg>