<?xml version='1.0' encoding='UTF-8'?>
<svg viewBox="-2 -2.0018 32 32" xmlns="http://www.w3.org/2000/svg">
  <g transform="matrix(0.0547, 0, 0, 0.0547, 0, 0)">
    <path d="M0, 81.1L77.8, 81.1L77.8, 289.8C77.8, 322.9 92.8, 342.6 105, 350.8C92.3, 361.9 53.8, 371.7 24.8, 348C7.8, 334 0, 310.7 0, 289L0, 81.1zM485.9, 254.6L485.9, 232.6L509.7, 232.6L509.7, 155.8L483.6, 155.8C473.5, 109.5 432.4, 75.1 383.3, 75.1C326.7, 75.1 280.6, 121.1 280.6, 177.8L280.6, 357C296.6, 359.3 316, 356.7 332.3, 343C349.4, 329 357.1, 305.8 357.1, 284L357.1, 277.3L395.9, 277.3L395.9, 200.5L357.1, 200.5L357.1, 177.2C357.1, 142.6 409.3, 142.6 409.3, 177.2L409.3, 254.3C409.3, 310.9 455.3, 357 512, 357L512, 280.5C497.5, 280.5 485.9, 268.8 485.9, 254.6zM191.6, 155.6L191.6, 268.6C191.6, 284 167.8, 284 167.8, 268.6L167.8, 155.6L91, 155.6L91, 288.3C91, 312.1 99, 342.3 136, 352.2C173, 362 194.2, 341.6 194.2, 341.6C192.1, 355 179.7, 364.9 159.3, 366.9C143.8, 368.5 124.1, 363.3 114.3, 359.1L114.3, 429.4C139.4, 436.9 165.8, 439.2 191.9, 434.1C239, 425 268.7, 385.7 268.7, 333.3L268.7, 155.1L191.6, 155.1L191.6, 155.6z" fill="#727272" fill-opacity="1" class="Black" />
  </g>
</svg>