<?xml version='1.0' encoding='UTF-8'?>
<svg viewBox="-2.0306 -0.0348 32 32" xmlns="http://www.w3.org/2000/svg">
  <g transform="matrix(0.0624, 0, 0, 0.0624, 0, 0)">
    <path d="M330.61, 243.52A36.15 36.15 0 0 1 339.91, 243.52C341.57, 239.69 341.86, 233.09 340.36, 225.91C338.13, 215.24 335.11, 208.77 328.88, 209.78C322.65, 210.79 322.41, 218.52 324.64, 229.2C325.9, 235.2 328.13, 240.34 330.64, 243.52zM277.05, 252C281.52, 254 284.25, 255.26 285.33, 254.13C287.22, 252.19 281.85, 244.74 273.21, 241.04A31.44 31.44 0 0 0 242.6, 244.72C239.6, 246.9 236.79, 249.94 237.19, 251.78C238.04, 255.52 247.19, 249.07 259.79, 248.3C266.79, 247.86 272.59, 250.05 277.05, 252.01zM268.05, 257.13C258.98, 258.55 253.05, 263.66 254.58, 267.23C255.48, 267.57 255.75, 268.04 259.79, 266.42A37 37 0 0 1 278.51, 264.47C281.43, 264.81 282.82, 264.99 283.45, 263.98C284.91, 261.76 277.74, 255.98 268.06, 257.13zM322.22, 274.23C325.6, 267.36 311.32, 260.3 307.92, 267.23C304.52, 274.16 318.84, 281.11 322.24, 274.2zM337.88, 253.76C330.22, 253.63 329.93, 269.56 337.62, 269.69C345.31, 269.82 345.6, 253.88 337.9, 253.73zM119.09, 332.66C117.77, 332.97 113.09, 334.11 110.62, 330.31C105.42, 322.31 121.73, 309.93 113.62, 294.54C104.52, 277.07 85.8, 281 78.57, 289C69.86, 298.6 69.85, 312.54 73.57, 313.08C77.84, 313.65 77.65, 306.61 80.95, 301.45A12.83 12.83 0 0 1 98.8, 297.73C110.39, 305.32 100.17, 315.49 101.08, 326.35C102.47, 343.03 119.5, 342.72 122.66, 335.35A2.08 2.08 0 0 0 122.46, 333.02C122.49, 333.91 123.14, 331.72 119.11, 332.63zM418.81, 315.59C415.46, 303.86 416.24, 306.37 412.03, 295.07C414.48, 291.4 427.32, 271.07 408.96, 251.82C398.56, 240.9 375.06, 235.28 367.86, 233.28C366.36, 221.89 372.51, 174.58 346.34, 150.28C367.13, 128.73 380.1, 104.99 380.07, 84.63C380.01, 45.47 331.92, 33.63 272.65, 58.16L260.1, 63.49C260.04, 63.44 237.39, 41.22 237.05, 40.92C169.5, -18 -41.77, 216.81 25.78, 273.85L40.54, 286.36A72.49 72.49 0 0 0 36.44, 319.86C39.8, 353.26 72.44, 380.28 103.97, 380.24C161.7, 513.3 371.87, 513.52 426.26, 383.24C428, 378.77 435.37, 358.63 435.37, 340.86C435.37, 323.09 425.28, 315.59 418.84, 315.59zM102.81, 363.75C79.99, 363.14 55.35, 342.6 52.9, 318.24C46.73, 256.93 127.16, 242.97 136.9, 305.91C141.44, 335.55 132.23, 364.4 102.78, 363.72zM84.3, 249.55C69.14, 252.5 55.78, 261.09 47.6, 273C42.72, 268.93 33.6, 261 32.01, 258C19, 233.15 46.25, 185 65.31, 157.79C112.42, 90.56 186.19, 39.68 220.36, 48.91C225.91, 50.48 244.3, 71.8 244.3, 71.8C244.3, 71.8 210.15, 90.74 178.5, 117.15C135.84, 150 103.61, 197.74 84.3, 249.55zM323.18, 350.7C323.18, 350.7 287.44, 356 253.67, 343.63C259.88, 323.47 280.67, 349.73 350.07, 329.82C365.36, 325.44 385.44, 316.82 401.07, 304.47A102.85 102.85 0 0 1 408.19, 328.75C411.85, 328.09 422.44, 328.23 419.63, 346.85C416.34, 366.72 407.9, 382.85 393.7, 397.69A106.86 106.86 0 0 1 362.55, 421A132.45 132.45 0 0 1 342.21, 429.58C288.7, 447.06 233.91, 427.84 216.21, 386.58A66.33 66.33 0 0 1 212.66, 376.84C205.13, 349.64 211.52, 317.01 231.5, 296.47C232.73, 295.16 233.98, 293.62 233.98, 291.68A8.45 8.45 0 0 0 232.06, 287.14C225.06, 277.01 200.87, 259.74 205.73, 226.31C209.23, 202.31 230.22, 185.4 249.8, 186.4L254.8, 186.69C263.28, 187.19 270.69, 188.28 277.68, 188.57C289.37, 189.07 299.88, 187.38 312.32, 177.01C316.52, 173.51 319.89, 170.47 325.58, 169.5A17.45 17.45 0 0 1 339.18, 171.74C349.18, 178.38 350.58, 194.47 351.1, 206.23C351.39, 212.95 352.2, 229.23 352.48, 233.86C353.11, 244.53 355.91, 246.03 361.59, 247.86C364.78, 248.91 367.74, 249.69 372.1, 250.92C385.31, 254.63 393.1, 258.4 398.1, 263.23A16.38 16.38 0 0 1 402.84, 272.52C404.4, 283.89 394.02, 297.92 366.53, 310.68C319.82, 332.36 272.85, 325.13 266.05, 324.36C245.9, 321.65 234.42, 347.68 246.5, 365.51C269.14, 398.92 368.9, 385.51 397.87, 344.16C398.56, 343.16 397.99, 342.57 397.14, 343.16C355.37, 371.74 300.08, 381.37 268.68, 369.16C263.91, 367.31 253.95, 362.72 252.74, 352.49C296.34, 365.98 323.74, 353.23 323.74, 353.23C323.74, 353.23 325.77, 350.44 323.18, 350.7zM254.71, 345zM171.31, 157.5C188.05, 138.15 208.67, 121.32 227.14, 111.87A0.73 0.73 0 0 1 228.14, 112.87C226.68, 115.53 223.85, 121.21 222.95, 125.52A0.75 0.75 0 0 0 224.11, 126.31C235.6, 118.48 255.59, 110.09 273.11, 109.01A0.77 0.77 0 0 1 273.63, 110.39A41.86 41.86 0 0 0 265.92, 118.13A0.75 0.75 0 0 0 266.51, 119.32C278.82, 119.41 296.17, 123.72 307.51, 130.06C308.27, 130.49 307.73, 131.97 306.87, 131.78C237.32, 115.84 183.79, 150.31 172.37, 158.61A0.76 0.76 0 0 1 171.37, 157.49z" fill="#727272" fill-opacity="1" class="Black" />
  </g>
</svg>