<?xml version='1.0' encoding='UTF-8'?>
<svg viewBox="-2 -4.8 32 32" xmlns="http://www.w3.org/2000/svg">
  <g transform="matrix(0.0438, 0, 0, 0.0438, 0, 0)">
    <path d="M593.8, 59.1L46.2, 59.1C20.7, 59.1 0, 79.8 0, 105.2L0, 406.7C0, 432.2 20.7, 452.9 46.2, 452.9L593.9, 452.9C619.4, 452.9 640.1, 432.2 640, 406.8L640, 105.2C640, 79.8 619.3, 59.1 593.8, 59.1zM338.5, 360.6L277, 360.6L277, 240.6L215.5, 317.5L154, 240.6L154, 360.6L92.3, 360.6L92.3, 151.4L153.8, 151.4L215.3, 228.3L276.8, 151.4L338.3, 151.4L338.3, 360.6zM473.8, 363.7L381.5, 256L443, 256L443, 151.4L504.5, 151.4L504.5, 256L566, 256z" fill="#727272" fill-opacity="1" class="Black" />
  </g>
</svg>