<?xml version='1.0' encoding='UTF-8'?>
<svg viewBox="-1.178 -1.1867 32 32" xmlns="http://www.w3.org/2000/svg">
  <g transform="matrix(0.0579, 0, 0, 0.0579, 0, 0)">
    <path d="M71.5, 142.3C72.1, 136.4 69.8, 130.5 65.4, 126.5L20.3, 72.1L20.3, 64L160.5, 64L268.9, 301.7L364.2, 64L497.9, 64L497.9, 72.1L459.3, 109.1C456, 111.6 454.3, 115.8 455, 119.9L455, 391.9C454.3, 396 456, 400.2 459.3, 402.7L497, 439.7L497, 447.8L307.3, 447.8L307.3, 439.7L346.4, 401.8C350.2, 398 350.2, 396.8 350.2, 391L350.2, 171.2L241.5, 447.1L226.8, 447.1L100.4, 171.2L100.4, 356.1C99.3, 363.9 101.9, 371.7 107.4, 377.3L158.2, 438.9L158.2, 447L14.2, 447L14.2, 439L65, 377.3C70.4, 371.7 72.9, 363.8 71.5, 356.1L71.5, 142.3z" fill="#727272" fill-opacity="1" class="Black" />
  </g>
</svg>