<?xml version='1.0' encoding='UTF-8'?>
<svg viewBox="-2 0 32 32" xmlns="http://www.w3.org/2000/svg">
  <g transform="matrix(0.0625, 0, 0, 0.0625, 0, 0)">
    <path d="M0, 32L0, 480L448, 480L448, 32L0, 32zM372.2, 138.1L348.2, 161.1C346.1, 162.7 345.1, 165.3 345.5, 167.8L345.5, 337.1C345.1, 339.7 346.1, 342.3 348.2, 343.8L371.7, 366.8L371.7, 371.9L253.7, 371.9L253.7, 367L278, 343.4C280.4, 341 280.4, 340.3 280.4, 336.7L280.4, 199.8L212.8, 371.4L203.7, 371.4L125, 199.8L125, 314.8C124.3, 319.6 126, 324.5 129.4, 328L161, 366.3L161, 371.4L71.2, 371.4L71.2, 366.3L102.8, 328C106.2, 324.5 107.7, 319.6 106.9, 314.8L106.9, 181.8C107.3, 178.1 105.9, 174.5 103.1, 172L75, 138.1L75, 133L162.3, 133L229.7, 281L289, 133.1L372.2, 133.1L372.2, 138.1z" fill="#727272" fill-opacity="1" class="Black" />
  </g>
</svg>