<?xml version='1.0' encoding='UTF-8'?>
<svg viewBox="-2 -2.8239 32 32" xmlns="http://www.w3.org/2000/svg">
  <g transform="matrix(0.0515, 0, 0, 0.0515, 0, 0)">
    <path d="M113.7, 256C113.7, 377.8 197.6, 478.8 307.2, 497.1C288.5, 501.6 269, 504 249, 504C111.4, 504 0, 393 0, 256C0, 119 111.4, 8 248.9, 8C269, 8 288.5, 10.4 307.1, 14.9C197.5, 33.2 113.7, 134.2 113.7, 256M411.1, 356.3C333.4, 411.7 231.5, 403.8 170.7, 341.7C176.2, 355.8 183.4, 369.4 192.4, 382.2C254, 470.4 374.8, 491.5 462.1, 429.2C549.4, 366.9 570.2, 244.9 508.6, 156.6C499.6, 143.7 489.3, 132.3 478.1, 122.4C515.5, 201.2 488.8, 300.9 411.1, 356.3M192.3, 112.3C190.9, 113.3 189.6, 114.4 188.3, 115.4C252.6, 97.6 324.2, 119.4 367.2, 175.9C402.9, 222.9 410.1, 282.5 391.6, 333.9C448.3, 277.7 459.2, 191.8 413.9, 132.1C363.9, 66.6 264.8, 57.7 192.3, 112.3M296, 224C291.6, 224 288, 220.4 288, 216L288, 176C288, 171.6 284.4, 168 280, 168L232, 168C227.6, 168 224, 171.6 224, 176L224, 216C224, 220.4 220.4, 224 216, 224L176, 224C171.6, 224 168, 227.6 168, 232L168, 280C168, 284.4 171.6, 288 176, 288L216, 288C220.4, 288 224, 291.6 224, 296L224, 336C224, 340.4 227.6, 344 232, 344L280, 344C284.4, 344 288, 340.4 288, 336L288, 296C288, 291.6 291.6, 288 296, 288L336, 288C340.4, 288 344, 284.4 344, 280L344, 232C344, 227.6 340.4, 224 336, 224L296, 224z" fill="#727272" fill-opacity="1" class="Black" />
  </g>
</svg>