<?xml version='1.0' encoding='UTF-8'?>
<svg viewBox="-2 -1.5484 32 32" xmlns="http://www.w3.org/2000/svg">
  <g transform="matrix(0.0565, 0, 0, 0.0565, 0, 0)">
    <path d="M214.5, 209.6L214.5, 275.8L248, 309.3L281.3, 276L281.3, 209.6L247.9, 176.2zM248, 8C111, 8 0, 119 0, 256C0, 393 111, 504 248, 504C385, 504 496, 393 496, 256C496, 119 385, 8 248, 8zM393.1, 422.4L367, 441.6L341, 422.4L341, 356.9L307.6, 323.5L274.2, 356.9L274.2, 422.4L248, 441.6L221.9, 422.4L221.9, 356.9L188.5, 323.5L155, 356.9L155, 422.4L128.9, 441.6L102.8, 422.4L102.8, 335.4L162.3, 275.9L162.3, 188L221.8, 128.5L221.8, 52.9L247.9, 33.7L274, 52.9L274, 128.5L333.5, 188L333.5, 275.6L393.2, 335.3L393.2, 422.4z" fill="#727272" fill-opacity="1" class="Black" />
  </g>
</svg>