<?xml version='1.0' encoding='UTF-8'?>
<svg viewBox="-1.9524 -4.7636 32 32" xmlns="http://www.w3.org/2000/svg">
  <g transform="matrix(0.0439, 0, 0, 0.0439, 0, 0)">
    <path d="M424.43, 219.729C416.124, 134.727 344.135, 68 256.919, 68C184.653, 68 120.695, 114.516 97.714, 182.074C43.169, 190.103 1.084, 236.896 1.084, 293.656C1.084, 355.954 51.752, 406.622 114.327, 406.622L403.941, 406.622C456.27, 406.622 498.91, 364.26 498.91, 311.929C498.91, 266.798 466.792, 228.866 424.43, 219.729zM403.941, 364.259L114.327, 364.259C75.287, 364.259 43.446, 332.695 43.446, 293.655C43.446, 254.615 75.287, 223.051 114.327, 223.051C133.154, 223.051 150.875, 230.526 164.165, 243.817C184.128, 263.78 214.298, 233.59 194.345, 213.637C179.67, 199.239 161.673, 189.272 142.292, 184.288C162.227, 139.988 207.082, 110.362 256.92, 110.362C326.416, 110.362 382.899, 166.845 382.899, 236.064C382.899, 249.632 380.684, 262.921 376.53, 275.658C367.587, 303.175 408.663, 314.597 416.677, 288.948C419.446, 280.642 421.661, 272.059 423.046, 263.476C442.427, 270.952 456.548, 289.779 456.548, 311.929C456.548, 340.724 433.013, 364.259 403.941, 364.259zM639.01, 311.929C639.01, 355.953 626.273, 398.315 601.908, 434.586C597.755, 440.678 591.11, 444 584.188, 444C567.871, 444 557.061, 425.174 566.745, 411.051C586.126, 381.702 596.648, 347.369 596.648, 311.929C596.648, 276.489 586.127, 242.156 566.745, 213.084C551.09, 190.253 586.106, 165.844 601.908, 189.55C626.274, 225.543 639.01, 267.906 639.01, 311.929zM568.13, 311.929C568.13, 343.494 558.993, 373.95 541.273, 400.254C537.12, 406.345 530.475, 409.39 523.553, 409.39C506.352, 409.39 496.531, 390.411 506.11, 376.442C519.123, 357.338 525.768, 335.187 525.768, 311.929C525.768, 288.948 519.123, 266.521 506.11, 247.417C490.349, 224.431 525.118, 200.322 541.273, 223.882C558.992, 249.908 568.13, 280.365 568.13, 311.929z" fill="#727272" fill-opacity="1" class="Black" />
  </g>
</svg>