<?xml version='1.0' encoding='UTF-8'?>
<svg viewBox="-2 -1.5484 32 32" xmlns="http://www.w3.org/2000/svg">
  <g transform="matrix(0.0565, 0, 0, 0.0565, 0, 0)">
    <path d="M248, 8C111, 8 0, 119.1 0, 256C0, 393 111, 504 248, 504C385, 504 496, 393 496, 256C496, 119.1 385, 8 248, 8zM168, 359.9C136.6, 370.5 109.2, 387.2 88, 408.1L88, 136C88, 113.9 105.9, 96 128, 96C150.1, 96 168, 113.9 168, 136L168, 359.9zM288, 350C275.1, 348 261.8, 346.9 248.2, 346.9C234.4, 346.9 221, 348 208, 350L208, 136C208, 113.9 225.9, 96 248, 96C270.1, 96 288, 113.9 288, 136L288, 350zM408, 407.7C386.8, 386.9 359.4, 370.3 328, 359.7L328, 136C328, 113.9 345.9, 96 368, 96C390.1, 96 408, 113.9 408, 136L408, 407.7z" fill="#727272" fill-opacity="1" class="Black" />
  </g>
</svg>