<?xml version='1.0' encoding='UTF-8'?>
<svg viewBox="-2 -1.5484 32 32" xmlns="http://www.w3.org/2000/svg">
  <g transform="matrix(0.0565, 0, 0, 0.0565, 0, 0)">
    <path d="M352, 384L460.4, 384C417, 455.9 338.1, 504 248, 504C157.9, 504 79, 455.9 35.6, 384L144, 384L144, 256.2L248, 361L352, 256L352, 384zM88, 336L88, 128L247.4, 287.4L408, 128L408, 336L482.8, 336C491.3, 310.9 496, 284 496, 256C496, 119 385, 8 248, 8C111, 8 0, 119 0, 256C0, 284 4.6, 310.9 13.2, 336L88, 336z" fill="#727272" fill-opacity="1" class="Black" />
  </g>
</svg>