<?xml version='1.0' encoding='UTF-8'?>
<svg viewBox="-1.9896 -2 32 32" xmlns="http://www.w3.org/2000/svg">
  <g transform="matrix(0.0547, 0, 0, 0.0547, 0, 0)">
    <path d="M415.44, 512L320.33, 512L212.12, 357.46L212.12, 448.56L125.69, 512L28, 512L28, 29.82L68.47, 0L176.52, 0L300.26, 176.13L300.26, 63.45L386.69, 0L484.38, 0L484.38, 461.5zM38.77, 35.27L38.77, 496L110.77, 443.12L110.77, 194L326.27, 501.64L411.06, 501.64L463.41, 463.47L385.14, 463.47L69, 13zM121.31, 501.88L201.31, 443.1L201.31, 342.1L121.55, 227.7L121.55, 448.64L49, 501.89L121.34, 501.89zM80.63, 10.77L391.23, 453.34L473.6, 453.34L473.6, 10.77L393.85, 10.77L393.85, 328.33L170.91, 10.77zM311, 191.65L383, 294.46L383, 15.93L311, 68.93L311, 191.65z" fill="#727272" fill-opacity="1" class="Black" />
  </g>
</svg>