<?xml version='1.0' encoding='UTF-8'?>
<svg viewBox="-2 0 32 32" xmlns="http://www.w3.org/2000/svg">
  <g transform="matrix(0.0625, 0, 0, 0.0625, 0, 0)">
    <path d="M184.2, 177.1C184.2, 155 202.1, 137.1 224, 137.1C245.9, 137.1 263.8, 155 263.8, 177.1C263.8, 199.1 245.9, 216.9 224, 216.9C202.1, 216.9 184.2, 199 184.2, 177.1zM448, 80L448, 432C448, 458.5 426.5, 480 400, 480L48, 480C21.5, 480 0, 458.5 0, 432L0, 80C0, 53.5 21.5, 32 48, 32L400, 32C426.5, 32 448, 53.5 448, 80zM142.9, 177.1C142.9, 221.7 179.3, 258 224, 258C268.7, 258 305.1, 221.8 305.1, 177.1C305.1, 132.3 268.7, 96 224, 96C179.3, 96 142.9, 132.2 142.9, 177.1zM317.4, 267.8C312.8, 258.7 300.1, 251 283.3, 264.2C283.3, 264.2 260.6, 282.2 224, 282.2C187.4, 282.2 164.7, 264.2 164.7, 264.2C147.9, 251 135.2, 258.7 130.6, 267.8C122.7, 283.9 131.7, 291.5 152, 304.8C169.3, 315.9 193.2, 320 208.6, 321.6L195.7, 334.5C177.5, 352.5 160.2, 370 148, 382.2C130.4, 399.8 158.7, 428 176.4, 410.8L224.1, 362.9C242.3, 381.1 259.8, 398.6 271.8, 410.8C289.4, 428 317.8, 400.1 300.4, 382.2L252.7, 334.5L239.7, 321.6C255.2, 320 278.8, 315.7 295.9, 304.8C316.3, 291.5 325.2, 283.8 317.4, 267.8z" fill="#727272" fill-opacity="1" class="Black" />
  </g>
</svg>