<?xml version='1.0' encoding='UTF-8'?>
<svg viewBox="-2 0 32 32" xmlns="http://www.w3.org/2000/svg">
  <g transform="matrix(0.0625, 0, 0, 0.0625, 0, 0)">
    <path d="M271.5, 432L203.5, 464C88.5, 453.7 0, 392.5 0, 318.2C0, 246.7 82.5, 187.2 191.7, 173.9L191.7, 216.9C120.2, 229.4 67.7, 269.9 67.7, 318.2C67.7, 369.2 126.2, 411.5 203.4, 421.2L203.4, 81.2L271.4, 48L271.4, 432zM448, 291L316.7, 262.5L353.5, 241.8C334, 230.3 310, 221.8 283.5, 217L283.5, 174C329.7, 179.5 371.2, 193.5 403.8, 213.3L438.8, 193.5L448, 291z" fill="#727272" fill-opacity="1" class="Black" />
  </g>
</svg>