<?xml version='1.0' encoding='UTF-8'?>
<svg viewBox="-1.5482 -1.5629 32 32" xmlns="http://www.w3.org/2000/svg">
  <g transform="matrix(0.0565, 0, 0, 0.0565, 0, 0)">
    <path d="M8, 266.44C10.3, 130.64 105.4, 34 221.8, 18.34C360.6, -0.26 477.4, 94.14 499.8, 219.44C521.1, 338.24 455.8, 449.44 348.2, 493.44C338.9, 497.24 333.8, 495.14 330.2, 485.74Q303.5, 416.29 276.8, 346.74C273.7, 338.64 275.8, 333.54 283.8, 329.94C308, 318.94 323.1, 300.54 327.1, 274.14A71.47 71.47 0 0 0 262.6, 191.94C223.6, 188.54 190.8, 215.64 185.1, 251.64C179.9, 284.64 196.2, 315.34 227, 329.34C236.6, 333.74 238.5, 337.94 234.8, 347.74Q207.95, 417.64 181.1, 487.64C178.5, 494.54 172.8, 496.94 165.6, 494.14C113, 473.84 64.2, 433.14 34.8, 375.14C9.9, 325.94 9.6, 287.44 8, 266.44zM28.9, 264.54C29.3, 271.14 29.5, 278.84 30.2, 286.64C36.5, 358.54 79.8, 430.14 161.2, 469.74C164.4, 471.24 165.6, 470.54 166.8, 467.44Q189.15, 408.79 211.8, 350.14C213.1, 346.84 212.4, 345.34 209.4, 343.44C177.8, 323.54 162.1, 294.94 163.8, 257.44C164.8, 235.84 173.1, 216.94 187.6, 201.14C217.6, 168.44 264.6, 161.34 303.1, 183.54A91.64 91.64 0 0 1 348.3, 273.94C344.7, 304.54 329, 327.84 302.6, 343.74C299.9, 345.34 299.1, 346.64 300.3, 349.74Q323.1, 408.54 345.5, 467.44C346.7, 470.54 347.9, 471.24 351.1, 469.74C386.6, 453.14 416.3, 429.44 439.2, 397.74C474, 349.54 488.3, 295.84 481.5, 236.74C467.8, 119.24 362.1, 21.94 226, 38.74C119.9, 51.74 30.7, 141.24 28.9, 264.54z" fill="#727272" fill-opacity="1" class="Black" />
  </g>
</svg>