<?xml version='1.0' encoding='UTF-8'?>
<svg viewBox="-2 -1.5484 32 32" xmlns="http://www.w3.org/2000/svg">
  <g transform="matrix(0.0565, 0, 0, 0.0565, 0, 0)">
    <path d="M248, 504C111, 504 0, 393 0, 256C0, 119 111, 8 248, 8C268.9, 8 289.3, 10.6 308.7, 15.5L42.3, 392L248, 392L248, 504zM248, 360.4L248, 146.8L98.6, 360.4L248, 360.4zM344, 392L344, 484.7C389.7, 465.5 428.5, 433 455.4, 392L344, 392zM401.4, 253.8L380.2, 262.2L401.4, 270.5L401.4, 253.8zM381.1, 308.3C374.4, 308.3 373.1, 314.6 373.1, 321.2L373.1, 328.9L389.3, 328.9L389.3, 318.9C389.3, 313 387, 308.3 381.1, 308.3zM496, 256C496, 293.3 487.8, 328.7 473, 360.4L344, 360.4L344, 27.3C433.3, 64.8 496, 153.1 496, 256zM360.4, 143.6L428.6, 143.6L428.6, 96L414.7, 96L414.7, 128.6L400.8, 128.6L400.8, 99L386.9, 99L386.9, 128.6L374.2, 128.6L374.2, 96L360.3, 96L360.3, 143.6zM428.5, 328.9L402, 328.9L402, 317.9C402, 302.5 396.4, 292.7 381.1, 292.7C365.7, 292.7 360.4, 303.3 360.4, 318.6L360.4, 343.9L428.6, 343.9L428.6, 328.9zM428.5, 225.9L360.3, 255.6L360.3, 268L428.5, 297.5L428.5, 280.9L414.1, 275.2L414.1, 248.7L428.5, 242.8L428.5, 225.9zM423.7, 157.4L388.1, 157.4L388.1, 184L402, 184L402, 171.8L413, 171.8C421.6, 187.6 414.3, 207.1 394.4, 207.1C371.9, 207.1 366.1, 181.8 378.9, 169.4L367.3, 158.8C351.1, 176.3 355.1, 222.7 394.4, 222.7C428.4, 222.7 439.1, 186.8 423.7, 157.4z" fill="#727272" fill-opacity="1" class="Black" />
  </g>
</svg>