<?xml version='1.0' encoding='UTF-8'?>
<svg viewBox="-1.5999 -3.2002 32 32" xmlns="http://www.w3.org/2000/svg">
  <g transform="matrix(0.05, 0, 0, 0.05, 0, 0)">
    <path d="M384.9, 193.9C384.9, 146.5 329.7, 149.7 289.5, 164.1C288.2, 203.5 287, 244.8 286.5, 283.9C287.2, 286.7 289.1, 290.1 301.6, 290.1C338.4, 290.1 385, 247.3 384.9, 193.9zM190.4, 266.1C190.6, 266.1 196.9, 263.4 201.6, 263.4C228.2, 263.4 222.3, 307.5 187.2, 307.5C165.7, 307.5 150.1, 289.4 150.1, 264.5C150.1, 222.5 193, 168.9 250.8, 138C251.8, 125.6 253.8, 116 261.3, 109.8C272.5, 100.8 287.9, 106.3 290.8, 120.9C363, 98.7 426, 121.9 426, 192.9C426, 270.8 346.7, 345.5 285.9, 331.1C285.8, 370.5 286.8, 405.5 288.6, 431.1L288.6, 431.3C288.8, 434.7 289.2, 443.8 283.3, 450.4C273.7, 461 249.9, 460.4 246.9, 428.1C242.8, 383.7 247.1, 222 248.3, 185.6C226.8, 200.6 189.8, 235.9 189.8, 261.5C190, 264 190.2, 265.5 190.4, 266.1zM8, 181.1C8, 181.1 7.9, 218.5 46.4, 218.5L76.4, 218.5L98.8, 435.7C98.8, 435.7 98.8, 480 143.5, 480L432.4, 480C432.4, 480 477.1, 479.6 477.1, 435.7L499.5, 218.5L529.5, 218.5C529.5, 218.5 567.9, 219.7 567.9, 181.1C567.9, 181.1 568, 143.7 529.5, 143.7L499.4, 143.7C492.1, 118.1 469.2, 69.4 380, 69.4L352, 69.4L352, 50.3C352, 50.3 349.3, 31.9 330.9, 31.9L245.1, 31.9C245.1, 31.9 224, 31.9 224, 50.3L224, 69.4L195.9, 69.4C195.9, 69.4 90.9, 73.6 75.4, 143.7L46.4, 143.7C46.4, 143.7 8, 142.5 8, 181.1z" fill="#727272" fill-opacity="1" class="Black" />
  </g>
</svg>