<?xml version='1.0' encoding='UTF-8'?>
<svg viewBox="-2 0 32 32" xmlns="http://www.w3.org/2000/svg">
  <g transform="matrix(0.0625, 0, 0, 0.0625, 0, 0)">
    <path d="M205.3, 174.6C205.3, 195.7 191.1, 212.7 173.6, 212.7C166.5, 212.7 160.8, 211.5 156.4, 209L156.4, 141C160.8, 138.3 166.5, 136.8 173.6, 136.8C191.1, 136.8 205.3, 153.7 205.3, 174.6zM257.9, 241.6C250.8, 241.6 245.1, 243.1 240.7, 245.8L240.7, 313.8C245.1, 316.3 250.8, 317.5 257.9, 317.5C275.3, 317.5 289.6, 300.6 289.6, 279.7C289.6, 258.6 275.3, 241.6 257.9, 241.6zM448, 80L448, 432C448, 458.5 426.5, 480 400, 480L48, 480C21.5, 480 0, 458.5 0, 432L0, 80C0, 53.5 21.5, 32 48, 32L400, 32C426.5, 32 448, 53.5 448, 80zM185, 255.1C226, 255.1 259.2, 219.5 259.2, 175.5C259.2, 131.5 226, 95.9 185, 95.9C173, 95.9 160.9, 99.1 150.4, 104.7L104.7, 104.7L104.7, 311L156.5, 300.9L156.5, 250.3C165.1, 253.4 174.6, 255.1 185, 255.1zM343.4, 280.4C343.4, 236.4 310.2, 200.8 269.5, 200.8C266.3, 200.8 263.1, 201 259.9, 201.5C256.2, 214 249.8, 225.3 240.7, 234.9C226.9, 249.9 208.5, 258.7 188.9, 259.7L188.9, 416L240.7, 405.9L240.7, 355.3C249.3, 358.5 258.9, 360 269.4, 360C310.2, 360 343.4, 324.4 343.4, 280.4z" fill="#727272" fill-opacity="1" class="Black" />
  </g>
</svg>