<?xml version='1.0' encoding='UTF-8'?>
<svg viewBox="-2 -4.8038 32 32" xmlns="http://www.w3.org/2000/svg">
  <g transform="matrix(0.0438, 0, 0, 0.0438, 0, 0)">
    <path d="M640, 24.9C559.2, 78.5 550.6, 117.4 543.6, 129.3C536.9, 141.5 531.9, 189.6 520.3, 212.9C508.6, 236.5 466.1, 255.1 454.2, 262.9C442.5, 270.7 425.9, 301 412.3, 327.1C304.2, 322.7 244.9, 365.9 153.1, 420.7C182.5, 411 196.4, 404 196.4, 404C290.6, 368 335.7, 335.7 477.5, 354.8C478.6, 354.8 479.4, 355.4 480.3, 355.6C484.2, 357.8 485.6, 362.5 483.4, 366.4L429.5, 462.2C427, 466.9 421.7, 469.4 416.4, 468.3C289.6, 444.5 189.5, 485.6 97.5, 486.9C24.1, 488 0, 453.4 0, 451.8C0, 450.7 0.6, 450.1 1.7, 450.1C1.7, 450.1 40, 450.1 104.8, 434.8C178.4, 294.5 244, 245.4 315.4, 245.4C315.4, 245.4 387.1, 245.4 406, 307.3C428.8, 267.6 434.3, 258.1 434.3, 258.1C439.6, 248.7 469.3, 180.9 520.7, 116.7C572.2, 52.7 611.1, 36.8 640, 24.9z" fill="#727272" fill-opacity="1" class="Black" />
  </g>
</svg>