<?xml version='1.0' encoding='UTF-8'?>
<svg viewBox="-1.5484 -1.5484 32 32" xmlns="http://www.w3.org/2000/svg">
  <g transform="matrix(0.0565, 0, 0, 0.0565, 0, 0)">
    <path d="M326.3, 218.8C326.3, 239.3 309.6, 256 289.1, 256L218.8, 256L218.8, 181.6L289.1, 181.6C309.6, 181.6 326.3, 198.3 326.3, 218.8zM504, 256C504, 393 393, 504 256, 504C119, 504 8, 393 8, 256C8, 119 119, 8 256, 8C393, 8 504, 119 504, 256zM375.9, 218.8C375.9, 170.9 337, 132 289.1, 132L169.2, 132L169.2, 380L218.8, 380L218.8, 305.6L289.1, 305.6C337, 305.6 375.9, 266.7 375.9, 218.8z" fill="#727272" fill-opacity="1" class="Black" />
  </g>
</svg>