<?xml version='1.0' encoding='UTF-8'?>
<svg viewBox="-3.7499 -2 32 32" xmlns="http://www.w3.org/2000/svg">
  <g transform="matrix(0.0547, 0, 0, 0.0547, 0, 0)">
    <path d="M433.754, 420.445C422.228, 421.838 388.894, 367.704 388.894, 367.704C388.894, 399.049 372.758, 439.951 337.843, 469.49C354.685, 474.682 392.686, 488.657 383.646, 503.911C376.33, 516.254 258.136, 511.792 224.014, 507.948C189.892, 511.792 71.698, 516.254 64.382, 503.911C55.337, 488.661 93.3, 474.697 110.165, 469.496C75.245, 439.957 59.106, 399.051 59.106, 367.704C59.106, 367.704 25.772, 421.838 14.247, 420.445C8.877, 419.795 1.823, 390.801 23.594, 320.741C33.855, 287.717 45.589, 260.263 63.738, 214.962C60.683, 98.063 108.982, 0.006 224, 0C337.737, 0.006 387.156, 96.133 384.264, 214.963C402.382, 260.186 414.176, 287.813 424.408, 320.741C446.176, 390.801 439.124, 419.794 433.754, 420.445z" fill="#727272" fill-opacity="1" class="Black" />
  </g>
</svg>