<?xml version='1.0' encoding='UTF-8'?>
<svg viewBox="-2.0002 0 32 32" xmlns="http://www.w3.org/2000/svg">
  <g transform="matrix(0.0625, 0, 0, 0.0625, 0, 0)">
    <path d="M440.5, 386.7L411.2, 386.7C409.7, 400.2 400.7, 417.5 378.2, 417.5C357.7, 417.5 342.9, 403.3 328.7, 381.7C372.9, 347.5 403.4, 294.2 403.4, 228.7C403.5, 111.2 306.8, 32 205, 32C105.3, 32 7.3, 111.7 7.3, 228.7C7.3, 362.8 138.6, 450.3 256.3, 417.7C276, 451.3 302, 480 351.5, 480C433.3, 480 442.3, 404.7 440.5, 386.7zM297, 329.2C277.5, 300 253.3, 277 205.5, 277C175, 277 151.2, 287 136.5, 299.8L148.7, 324.1C154.9, 321.1 161.7, 320.1 168.5, 320.1C204, 320.1 222.2, 350.9 237.7, 381.4C227.7, 384.4 217, 385.6 205, 385.6C130, 385.6 97.5, 332.6 97.5, 228.9C97.5, 124.5 130, 71 205, 71C281.2, 71 313.7, 124.5 313.7, 228.7C313.8, 270.5 308.3, 304.3 297, 329.2z" fill="#727272" fill-opacity="1" class="Black" />
  </g>
</svg>