<?xml version='1.0' encoding='UTF-8'?>
<svg viewBox="-2 -3.6627 32 32" xmlns="http://www.w3.org/2000/svg">
  <g transform="matrix(0.0482, 0, 0, 0.0482, 0, 0)">
    <path d="M581, 226.6C581, 119.1 450.9, 32 290.5, 32C130.1, 32 0, 119.1 0, 226.6C0, 322.4 103.3, 402 239.4, 418.1L239.4, 480L338.5, 480L338.5, 418.5C362.8, 415.8 386.1, 411.1 407.9, 404.6L448, 480L560, 480L492.6, 366.3C547.1, 330.9 581, 281.4 581, 226.6zM114.2, 241.1C114.2, 167.6 213.1, 108.1 335, 108.1C456.9, 108.1 546.9, 148.8 546.9, 241.1C546.9, 291.2 520.4, 326.1 476.6, 347.5C474.2, 345.9 471.9, 344.6 470.2, 343.8C460, 338.6 442.4, 333.3 442.4, 333.3C442.4, 333.3 529, 326.9 529, 240.6C529, 154.3 438.4, 152.7 438.4, 152.7L239.4, 152.7L239.4, 361C165.3, 339.5 114.2, 293.9 114.2, 241.1zM339.3, 279.4L339.3, 223.8C397.1, 223.8 427.1, 217 427.1, 251.1C427.1, 287.6 388.9, 279.4 339.3, 279.4zM338.4, 351.9L365, 351.9C375.8, 351.9 383.9, 363.6 389, 371.1C372.9, 373 356, 373.9 338.4, 374L338.4, 351.9z" fill="#727272" fill-opacity="1" class="Black" />
  </g>
</svg>