<?xml version='1.0' encoding='UTF-8'?>
<svg viewBox="-1.5484 -1.4214 32 32" xmlns="http://www.w3.org/2000/svg">
  <g transform="matrix(0.0565, 0, 0, 0.0565, 0, 0)">
    <path d="M214, 169.1C214, 279.5 153, 374.5 66.4, 416.5C30, 373.2 8, 317.7 8, 256.6C8, 133.9 97.1, 32.2 214, 12.5L214, 169.1zM255, 504C212.1, 504 171.7, 493 136.5, 473.6C193.7, 437.5 239.9, 382.9 255, 319C270.5, 382.9 316.7, 437.5 373.8, 473.7C338.7, 493 298.3, 504 255, 504zM445.6, 416.5C359, 374.5 298, 279.6 298, 169.1L298, 12.5C414.9, 32.2 504, 133.9 504, 256.6C504, 317.7 482, 373.2 445.6, 416.5z" fill="#727272" fill-opacity="1" class="Black" />
  </g>
</svg>