<?xml version='1.0' encoding='UTF-8'?>
<svg viewBox="-2 -1.5484 32 32" xmlns="http://www.w3.org/2000/svg">
  <g transform="matrix(0.0565, 0, 0, 0.0565, 0, 0)">
    <path d="M248, 8C111, 8 0, 119 0, 256C0, 393 111, 504 248, 504C385, 504 496, 393 496, 256C496, 119 385, 8 248, 8zM405.4, 427.5L315.4, 427.5L203.4, 296.2C185.5, 275.8 199.5, 240.1 230, 240.1L305.3, 240.1L220.7, 140.8L136.4, 239.7L46.4, 239.7L193.5, 67.2C207.9, 48.8 234.8, 49.9 248, 67.2L405.7, 252.3C424.7, 275.1 407.7, 309.5 378.1, 308.4C377.5, 308.4 303.9, 308.6 303.9, 308.6L405.4, 427.5z" fill="#727272" fill-opacity="1" class="Black" />
  </g>
</svg>