<?xml version='1.0' encoding='UTF-8'?>
<svg viewBox="-1.9998 -4.7991 32 32" xmlns="http://www.w3.org/2000/svg">
  <g transform="matrix(0.0438, 0, 0, 0.0438, 0, 0)">
    <path d="M248.89, 245.64L222.54, 245.64C223.23, 240.48 225.86, 231.52 236.18, 231.52C242.93, 231.52 248.15, 235.34 248.89, 245.64zM385.55, 231.76C385.08, 231.76 371.44, 229.99 371.44, 251.76C371.44, 273.53 385.07, 271.76 385.55, 271.76C398.55, 271.76 399.66, 258.22 399.66, 251.76C399.66, 230 386, 231.76 385.55, 231.76zM142.33, 255.52A8.63 8.63 0 0 0 139.04, 262.81C139.04, 267.59 141.12, 268.86 142.33, 269.86C147.03, 273.56 157.4, 271.98 163.26, 270.81L163.26, 253.87C157.94, 252.8 146.53, 251.91 142.33, 255.52zM640, 232C640, 319.58 560, 386.39 474.64, 368.43C456.27, 401.43 403.91, 439.18 342.44, 410.06C301.28, 506.11 164.55, 502.24 128.63, 404.89C8.91, 428.78 -50.19, 266.52 53.36, 205.61C18.61, 126.18 76, 32 167.67, 32A124.24 124.24 0 0 1 266.23, 80.7C286.93, 59.3 315.63, 45.89 347.38, 45.89C389.72, 45.89 426.38, 69.41 446.18, 104.46C539, 63.78 640, 132.69 640, 232zM120.45, 263.8C120.45, 252.04 108.76, 248.63 102.58, 246.63C97.31, 244.52 89.17, 243.12 89.17, 237.69C89.17, 228.23 106.17, 231.03 114.34, 235.57C114.34, 235.57 115.51, 236.28 115.98, 235.1C116.22, 234.4 118.34, 228.52 118.57, 227.81A1.13 1.13 0 0 0 117.87, 226.4C105.54, 218.77 77.17, 217.89 77.17, 239.1C77.17, 251.56 88.66, 254.54 95.05, 256.27C99.77, 257.85 108.22, 259.27 108.22, 264.97C108.22, 268.97 104.69, 272.03 99.05, 272.03A31.76 31.76 0 0 1 80.05, 265.68C79.58, 265.45 78.63, 264.97 78.4, 266.39L76, 273.86C75.53, 274.8 76.23, 275.04 76.23, 275.27C77.98, 276.67 86.53, 281.86 99.05, 281.86C112.22, 281.86 120.45, 274.8 120.45, 263.75zM152.45, 221.22C142.32, 221.22 133.79, 224.39 131.05, 226.4A1 1 0 0 0 130.81, 227.81L133.4, 234.87A1 1 0 0 0 134.58, 235.57C135.23, 235.57 141.38, 231.57 151.51, 231.57C155.51, 231.57 158.57, 232.28 160.69, 233.93C164.29, 236.73 163.75, 242.22 163.75, 244.51C158.96, 244.21 144.64, 241.07 134.34, 248.27A16.92 16.92 0 0 0 127, 262.81C127, 268.71 128.51, 273.21 133.59, 277.16C145.83, 285.32 169.87, 279.16 171.69, 278.57C173.27, 278.25 175.22, 277.91 175.22, 276.69L175.22, 242.81C175.26, 238.2 175.54, 221.17 152.44, 221.17zM199, 200.24A1.11 1.11 0 0 0 197.82, 199.06L188, 199.06A1.11 1.11 0 0 0 186.83, 200.24L186.83, 279.24A1.11 1.11 0 0 0 188, 280.42L197.88, 280.42A1.11 1.11 0 0 0 199.06, 279.24zM254.75, 229.17C252.65, 226.86 247.96, 221.64 237.1, 221.64C233.59, 221.64 222.94, 221.87 216.4, 230.58C210.05, 238.21 209.82, 248.69 209.82, 251.99C209.82, 255.11 209.97, 266.25 216.88, 273.16C219.52, 276.07 225.94, 281.39 239.69, 281.39C250.51, 281.39 256.16, 279.04 258.27, 277.63C258.74, 277.39 258.98, 276.92 258.51, 275.75L256.16, 268.92A1.26 1.26 0 0 0 254.75, 268.22C252.16, 269.16 248.4, 271.04 239.46, 271.04C222.04, 271.04 222.61, 256.3 222.52, 254.34L259.69, 254.34A1.23 1.23 0 0 0 260.86, 253.4C260.57, 253.4 262.93, 238.7 254.77, 229.17zM291.44, 281.86C304.61, 281.86 312.85, 274.8 312.85, 263.75C312.85, 251.99 301.15, 248.58 294.97, 246.58C290.83, 244.92 281.56, 243.2 281.56, 237.64C281.56, 233.88 284.85, 231.29 290.03, 231.29A38.11 38.11 0 0 1 306.73, 235.52C306.73, 235.52 307.91, 236.23 308.38, 235.05C308.61, 234.35 310.73, 228.47 310.96, 227.76A1.13 1.13 0 0 0 310.26, 226.35C302.35, 221.45 293.52, 221.41 290.03, 221.41C278.03, 221.41 269.57, 228.7 269.57, 239.05C269.57, 251.51 281.05, 254.49 287.44, 256.22C293.55, 258.22 300.61, 259.48 300.61, 264.92C300.61, 268.92 297.09, 271.98 291.44, 271.98A31.8 31.8 0 0 1 272.44, 265.63A1 1 0 0 0 270.79, 266.34L268.44, 273.86C267.97, 274.8 268.67, 275.04 268.67, 275.27C270.39, 276.67 279, 281.86 291.46, 281.86zM357.09, 224C357.09, 223.29 356.85, 222.82 355.91, 222.82L344.15, 222.82C344.15, 222.68 345.09, 213.88 348.62, 210.35C352.78, 206.2 360.38, 208.71 360.62, 208.71C361.79, 209.18 362.03, 208.71 362.26, 208.24L365.09, 200.47C365.79, 199.53 365.09, 199.3 364.85, 199.06C359.76, 197.06 347.5, 196.19 340.39, 203.3C334.91, 208.78 333.39, 217.22 332.39, 222.82L323.92, 222.82A1.28 1.28 0 0 0 322.75, 224L321.33, 231.76C321.33, 232.46 321.57, 232.93 322.51, 232.93L330.74, 232.93C322.23, 280.83 321.99, 283.14 320.39, 288.45C319.31, 292.07 317.1, 295.35 314.51, 296.21C314.42, 296.21 310.63, 297.89 304.87, 295.97C304.87, 295.97 303.93, 295.5 303.46, 296.68C303.22, 297.39 300.87, 303.5 300.63, 304.21C300.39, 304.92 300.63, 305.62 301.1, 305.62C306.21, 307.62 314.1, 307.39 318.98, 305.62C325.26, 303.34 328.7, 297.73 330.51, 292.68C333.26, 284.97 333.32, 282.89 342.27, 232.94L354.5, 232.94A1.29 1.29 0 0 0 355.68, 231.76zM410.48, 240C409.92, 238.32 405.38, 221.89 385.31, 221.89C370.06, 221.89 362.31, 231.89 360.15, 240C359.15, 243 356.97, 254 360.15, 263.52C360.24, 263.82 364.56, 281.64 385.31, 281.64C400.26, 281.64 408.21, 272.03 410.48, 263.52C413.69, 253.91 411.49, 243 410.48, 240zM455.88, 223.3C450.88, 221.65 439.26, 221.4 433.77, 228.71L433.77, 224.24A1.11 1.11 0 0 0 432.59, 223.07L423.19, 223.07A1.11 1.11 0 0 0 422.01, 224.24L422.01, 279.52A1.12 1.12 0 0 0 423.19, 280.7L432.83, 280.7A1.12 1.12 0 0 0 434.01, 279.52L434.01, 251.75C434.01, 248.84 434.06, 240.38 438.47, 236.7C443.37, 231.8 450.47, 233.34 451.88, 233.64A1.57 1.57 0 0 0 453.29, 232.7A74 74 0 0 0 456.35, 224.7A1.16 1.16 0 0 0 455.88, 223.29zM502.69, 277.4L500.57, 270.11C500.1, 268.93 499.16, 269.4 499.16, 269.4C494.93, 271.22 489.01, 271.29 487.87, 271.29C483.23, 271.29 470.7, 270.16 470.7, 251.53C470.7, 245.3 472.55, 231.77 487.17, 231.77A34.85 34.85 0 0 1 498.69, 233.42C498.69, 233.42 499.63, 233.89 499.87, 232.71C500.81, 230.12 501.51, 228.24 502.46, 225.18C502.69, 224.24 501.99, 224.01 501.75, 224.01C490.16, 220.14 479.41, 221.48 473.99, 224.01C472.4, 224.75 457.76, 230.5 457.76, 251.53C457.76, 254.43 457.18, 281.64 486.7, 281.64A44.45 44.45 0 0 0 502.22, 278.81A1.3 1.3 0 0 0 502.69, 277.39zM556.56, 237.88C555.76, 234.88 551.19, 221.65 534.21, 221.65C518.21, 221.65 510.69, 231.76 508.57, 240.24A38.58 38.58 0 0 0 506.92, 252C506.92, 277.87 525.76, 281.4 536.8, 281.4C547.62, 281.4 553.26, 279.05 555.38, 277.64C555.85, 277.4 556.09, 276.93 555.62, 275.76L553.26, 268.93A1.26 1.26 0 0 0 551.85, 268.23C549.26, 269.17 545.5, 271.05 536.56, 271.05C519.14, 271.05 519.71, 256.31 519.63, 254.35L556.79, 254.35A1.25 1.25 0 0 0 557.97, 253.41C557.73, 253.4 558.91, 246.34 556.56, 237.87zM533.27, 231.53C522.94, 231.53 520.27, 240.53 519.63, 245.65L546, 245.65C545.12, 233.73 538.38, 231.52 533.27, 231.52z" fill="#727272" fill-opacity="1" class="Black" />
  </g>
</svg>