<?xml version='1.0' encoding='UTF-8'?>
<svg viewBox="-2 0.8813 32 32" xmlns="http://www.w3.org/2000/svg">
  <g transform="matrix(0.0625, 0, 0, 0.0625, 0, 0)">
    <path d="M350.5, 157.7L296.3, 111.6L369.7, 72.6L448, 116.8L350.5, 157.7zM192, 122.1L237.7, 93.9L272.4, 128.5L217, 157.5L192, 122.1zM126.9, 128.7L158.8, 106.6L176, 135L139.3, 157.5L126.9, 128.7zM103.6, 216.9L94.8, 182.1L124.4, 163.8L137.5, 199.1L103.6, 216.9zM82.4, 133.2L106.3, 115.1L115.2, 139.1L88.5, 157.4L82.4, 133.2zM59, 206.5L55.4, 178.1L77.7, 162.6L83.8, 191.3L59, 206.5zM28.4, 223.1L49.2, 210.3L52.5, 243.7L29.6, 255.7L28.4, 223.1zM1.4, 268L20.6, 257.8L21, 296L0, 304.8L1.4, 268zM60.5, 327.3L32.2, 335.6L30.6, 288.8L55.7, 278.1L60.5, 327.3zM99, 263.2L67.9, 276.2L62.7, 235.4L90.1, 221L99, 263.2zM123.2, 377L81.6, 382.9L73.5, 319.4L108.7, 308.6L123.2, 377zM151.7, 237.1L172.9, 294.2L126.7, 307.8L113, 253.7L151.7, 237.1zM237.4, 467.6L166.5, 464.3L142.2, 368.5L197.4, 359.9L237.4, 467.6zM152.5, 187.9L194.7, 165.5L222.7, 211.4L171.9, 232.7L152.5, 187.9zM193.5, 282.8L254.8, 264.1L307.6, 350.7L227.8, 362L193.5, 282.8zM244.9, 197.2L312.2, 168.4L377.7, 233.8L289.1, 260L244.9, 197.2z" fill="#727272" fill-opacity="1" class="Black" />
  </g>
</svg>