<?xml version='1.0' encoding='UTF-8'?>
<svg viewBox="-1.7226 -4.5781 32 32" xmlns="http://www.w3.org/2000/svg">
  <g transform="matrix(0.0446, 0, 0, 0.0446, 0, 0)">
    <path d="M539.71, 237.308C542.774, 225.051 544, 212.487 544, 199.924C544, 107.382 468.618, 32 376.076, 32C298.856, 32 231.442, 85.012 213.056, 159.781C197.734, 146.605 178.122, 139.251 157.899, 139.251C111.628, 139.251 73.937, 176.941 73.937, 223.212C73.937, 230.566 74.857, 238.227 77.002, 245.581C34.102, 265.806 6.217, 309.319 6.217, 356.815C6.216, 424.843 61.68, 480 129.401, 480L510.599, 480C578.319, 480 633.783, 424.843 633.783, 356.816C633.784, 300.432 594.867, 250.791 539.71, 237.308zM199.88, 401.554C199.88, 409.828 192.832, 416.875 184.559, 416.875L153.61, 416.875C145.336, 416.875 138.289, 409.827 138.289, 401.554L138.289, 290.626C138.289, 282.353 145.337, 275.305 153.61, 275.305L184.559, 275.305C192.833, 275.305 199.88, 282.353 199.88, 290.626L199.88, 401.554zM289.357, 401.554C289.357, 409.828 282.309, 416.875 274.035, 416.875L243.086, 416.875C234.812, 416.875 227.765, 409.827 227.765, 401.554L227.765, 270.096C227.765, 261.822 234.813, 254.775 243.086, 254.775L274.035, 254.775C282.309, 254.775 289.357, 261.823 289.357, 270.096L289.357, 401.554zM378.834, 401.554C378.834, 409.828 371.787, 416.875 363.513, 416.875L332.564, 416.875C324.29, 416.875 317.242, 409.827 317.242, 401.554L317.242, 238.84C317.242, 230.566 324.29, 223.519 332.564, 223.519L363.513, 223.519C371.787, 223.519 378.834, 230.567 378.834, 238.84L378.834, 401.554zM465.861, 401.554C465.861, 409.828 458.813, 416.875 450.539, 416.875L422.042, 416.875C413.768, 416.875 406.721, 409.827 406.721, 401.554L406.721, 176.941C406.721, 168.362 413.768, 161.313 422.042, 161.313L450.539, 161.313C458.813, 161.313 465.861, 168.361 465.861, 176.941L465.861, 401.554z" fill="#727272" fill-opacity="1" class="Black" />
  </g>
</svg>