<?xml version='1.0' encoding='UTF-8'?>
<svg viewBox="-2 0.0031 32 32" xmlns="http://www.w3.org/2000/svg">
  <g transform="matrix(0.0625, 0, 0, 0.0625, 0, 0)">
    <path d="M448, 449L301.2, 300.2C321.2, 272.3 333.1, 238 333.1, 201C333.1, 107.9 258.4, 32.1 166.6, 32.1C74.7, 32 0, 107.8 0, 200.9C0, 294 74.7, 369.8 166.5, 369.8C206.3, 369.8 242.8, 355.6 271.5, 331.9L417.5, 480L448, 449zM166.5, 330.8C95.9, 330.8 38.4, 272.5 38.4, 200.9C38.4, 129.3 95.9, 71 166.5, 71C237.1, 71 294.6, 129.3 294.6, 200.9C294.6, 272.5 237.2, 330.8 166.5, 330.8z" fill="#727272" fill-opacity="1" class="Black" />
  </g>
</svg>