<?xml version='1.0' encoding='UTF-8'?>
<svg viewBox="-1.4902 -1.4987 32 32" xmlns="http://www.w3.org/2000/svg">
  <g transform="matrix(0.0566, 0, 0, 0.0566, 0, 0)">
    <path d="M27.5, 162.2L9, 187.1L99.5, 187.1L106.4, 56.4L27.5, 162.2zM396.3, 45.7L267.7, 32L403.4, 179.2L396.3, 45.7zM112.2, 218.3L101, 196.3L9.9, 196.3L234.8, 458zM114.2, 187.1L398.2, 187.1L316.7, 98.6L256.3, 33zM411.5, 196.2L277.6, 458L502.4, 196.3L411.5, 196.3zM415.4, 69L406, 56.4L406.9, 73.7L413, 187.1L503.3, 187.1zM113.5, 93.5L108.9, 179.1L244.7, 32L116.1, 45.7zM401.2, 196.2L111.2, 196.2L153.6, 279.1L256.3, 480L401.2, 196.2z" fill="#727272" fill-opacity="1" class="Black" />
  </g>
</svg>