<?xml version='1.0' encoding='UTF-8'?>
<svg viewBox="-2 -4.7978 32 32" xmlns="http://www.w3.org/2000/svg">
  <g transform="matrix(0.0438, 0, 0, 0.0438, 0, 0)">
    <path d="M640, 329.3C640, 395.2 587.5, 443.7 522.5, 443.7C356.6, 443.7 325.9, 194 162.8, 194C15.9, 194 15.7, 406.2 168.4, 406.2C210.9, 406.2 259.3, 388.4 293.7, 363.7C299.3, 359.6 310.6, 347.4 316.5, 347.4C322.4, 347.4 327.4, 352.4 327.4, 358.3C327.4, 366.1 314.3, 377.4 308.7, 382.4C267.8, 418 208.4, 443.6 154, 443.6C70.6, 443.7 0, 384.6 0, 298.7C0, 212.8 67.5, 149.6 152.8, 149.6C338.1, 149.6 375.3, 395.5 514.7, 395.5C614.6, 395.5 609.5, 255.8 518.1, 255.8C500.6, 255.8 483.1, 267.4 471.2, 267.4C462.8, 267.4 455.3, 260.2 455.3, 251.8C455.3, 240.2 460.6, 228.1 460.6, 215.5C460.6, 148.9 409.7, 100.8 343.7, 100.8C290.6, 100.8 263.7, 137.7 254.9, 137.7C248.7, 137.7 243.7, 132.7 243.7, 126.5C243.7, 120.9 247.8, 116.2 251.5, 112.1C276.8, 83.3 316.2, 68.4 354.3, 68.4C433.7, 68.4 493.4, 126.8 493.4, 206.2C493.4, 213.1 493.1, 219.9 492.2, 226.8C504.1, 223.7 516.3, 222.1 528.1, 222.1C588.8, 222.1 640, 267.4 640, 329.3z" fill="#727272" fill-opacity="1" class="Black" />
  </g>
</svg>