<?xml version='1.0' encoding='UTF-8'?>
<svg viewBox="-1.9987 -2 32 32" xmlns="http://www.w3.org/2000/svg">
  <g transform="matrix(0.0547, 0, 0, 0.0547, 0, 0)">
    <path d="M187.7, 153.7C153.7, 153.7 126, 179.4 126, 211.4C126, 243.1 153.7, 269.1 187.7, 269.1C221.7, 269.1 249.4, 243.1 249.4, 211.4C249.4, 179.4 221.7, 153.7 187.7, 153.7zM331.1, 153.7C297.1, 153.7 269.4, 179.4 269.4, 211.4C269.4, 243.1 297.1, 269.1 331.1, 269.1C365.4, 269.1 392.8, 243.1 392.8, 211.4C392.9, 179.4 365.4, 153.7 331.1, 153.7zM487.7, 243.7L481.7, 248L481.7, 49.7C481.7, 22.3 461.1, 0 435.7, 0L76.6, 0C51.2, 0 30.6, 22.3 30.6, 49.7L30.6, 248C28.6, 246.6 26.3, 245.1 24.3, 243.7C9.2, 233.1 -0.8, 247.7 8.3, 261.4C26.6, 284 61.4, 311.7 114.6, 333.4C58.3, 525.1 252, 555.7 248.9, 457.5C248.9, 456.8 249.2, 400.9 249.2, 360.9C254.3, 362 258.6, 363.2 262.9, 364C262.9, 403.7 263.2, 456.8 263.2, 457.5C260.1, 555.8 453.8, 525.2 397.5, 333.5C450.6, 311.8 485.5, 284.1 503.8, 261.5C512.9, 247.7 502.9, 233.2 487.7, 243.7zM457.2, 262.9C388.3, 300.3 328.9, 294 296.6, 292.6C272.9, 291.7 264, 301.7 262.9, 317.5C252.6, 309.8 244.3, 302 242.6, 300.4C237.5, 295 228.9, 292.4 215.5, 292.7C183.8, 293.8 125.8, 300.1 58.1, 264.7L58.1, 72.3C58.1, 37.4 67, 26.6 98.7, 26.6L416.4, 26.6C446.7, 26.6 457.3, 39.5 457.3, 72.3L457.3, 262.9z" fill="#727272" fill-opacity="1" class="Black" />
  </g>
</svg>