<?xml version='1.0' encoding='UTF-8'?>
<svg viewBox="-2 -1.9999 32 32" xmlns="http://www.w3.org/2000/svg">
  <g transform="matrix(0.0547, 0, 0, 0.0547, 0, 0)">
    <path d="M510.846, 392.673C505.635, 404.83 483.607, 413.762 443.486, 419.991C441.422, 422.777 439.711, 434.677 436.979, 443.947C435.354, 449.513 431.356, 452.816 424.851, 452.816L424.554, 452.811C415.159, 452.811 405.351, 448.488 385.702, 448.488C359.181, 448.488 350.04, 454.531 329.448, 469.076C307.616, 484.514 286.677, 497.84 255.421, 496.475C223.775, 498.809 197.396, 479.567 182.55, 469.071C161.836, 454.428 152.722, 448.489 126.309, 448.489C107.445, 448.489 95.573, 453.209 87.457, 453.209C79.384, 453.209 76.244, 448.287 75.035, 444.169C72.332, 434.98 70.631, 422.906 68.512, 420.039C47.833, 416.83 1.202, 408.695 0.014, 387.889A10.627 10.627 0 0 1 8.891, 376.82C78.474, 365.365 109.815, 293.919 111.118, 290.886C111.192, 290.71 111.273, 290.542 111.355, 290.371C115.068, 282.834 115.899, 276.522 113.818, 271.618C108.768, 259.722 86.946, 255.454 77.765, 251.822C54.05, 242.456 50.75, 231.694 52.153, 224.318C54.59, 211.482 73.878, 203.583 85.155, 208.865C94.074, 213.046 101.998, 215.162 108.702, 215.162C113.724, 215.162 116.914, 213.958 118.662, 212.991C116.619, 177.055 111.561, 125.701 124.349, 97.022C158.122, 21.304 229.705, 15.42 250.826, 15.42C251.77, 15.42 259.967, 15.331 260.936, 15.331C313.084, 15.331 363.19, 42.111 387.659, 96.974C400.436, 125.624 395.408, 176.766 393.354, 212.983C394.936, 213.855 397.711, 214.925 401.953, 215.122C408.35, 214.836 415.768, 212.733 424.022, 208.865C430.107, 206.019 438.428, 206.404 444.502, 208.923L444.531, 208.933C454.007, 212.318 459.97, 219.148 460.12, 226.803C460.304, 236.55 451.598, 244.968 434.242, 251.821C432.124, 252.656 429.548, 253.476 426.808, 254.346C417.011, 257.452 402.208, 262.151 398.192, 271.617C396.113, 276.521 396.936, 282.828 400.652, 290.365C400.739, 290.533 400.818, 290.707 400.891, 290.88C402.192, 293.91 433.506, 365.34 503.121, 376.814C509.548, 377.872 514.284, 384.691 510.846, 392.673z" fill="#727272" fill-opacity="1" class="Black" />
  </g>
</svg>