<?xml version='1.0' encoding='UTF-8'?>
<svg viewBox="-3.7445 -2 32 32" xmlns="http://www.w3.org/2000/svg">
  <g transform="matrix(0.0547, 0, 0, 0.0547, 0, 0)">
    <path d="M427.2, 203C427.2, 90.9 336.3, 0 224.2, 0C112.1, -0.2 21.2, 90.6 21, 202.6A202.86 202.86 0 0 0 161.5, 396L161.5, 497.7A14.3 14.3 0 0 0 175.8, 512L272.2, 512A14.3 14.3 0 0 0 286.5, 497.7L286.5, 396.1A203.18 203.18 0 0 0 427.2, 203zM155.6, 203C155.6, 112.2 292.9, 112.2 292.9, 203C292.8, 292.9 155.6, 294 155.6, 203z" fill="#727272" fill-opacity="1" class="Black" />
  </g>
</svg>