<?xml version='1.0' encoding='UTF-8'?>
<svg viewBox="-1.9734 -0.0011 32 32" xmlns="http://www.w3.org/2000/svg">
  <g transform="matrix(0.0625, 0, 0, 0.0625, 0, 0)">
    <path d="M64, 391.78C-15.41, 303.59 -8, 167.42 80.64, 87.64C169.28, 7.86 305.44, 14.64 384.85, 102.88C464.26, 191.12 456.85, 327.24 368.21, 407.02C349.47, 423.89 432.21, 450.11 410.21, 459.28C328.15, 493.49 156.3, 494.28 63.98, 391.78zM277.31, 180.18L315.81, 139.32C306.2, 130.43 283.81, 112.49 239.64, 111.72C187.31, 110.81 143.78, 140.02 142.87, 191.72C142.67, 203.05 143.16, 228.44 172.29, 246.55C206.75, 267.97 258.81, 268.06 258.29, 298.81C257.92, 320.09 231.87, 324.62 219.7, 324.41C216.7, 324.36 189.47, 323.95 172.09, 299.79L132.09, 342.4C160.25, 369.4 191.09, 375.02 215.58, 375.45C225.81, 375.63 312, 375.78 313.42, 294.45C313.7, 278.64 311.35, 254.73 284.56, 237.86C250.2, 216.22 199.56, 218.41 200.13, 188.11C200.54, 164.86 231.13, 162.74 237.66, 162.85C238.09, 162.85 264.28, 163.11 277.28, 180.22z" fill="#727272" fill-opacity="1" class="Black" />
  </g>
</svg>