<?xml version='1.0' encoding='UTF-8'?>
<svg viewBox="-2.0005 -2.0003 32 32" xmlns="http://www.w3.org/2000/svg">
  <g transform="matrix(0.0547, 0, 0, 0.0547, 0, 0)">
    <path d="M213.86, 296L100, 296A100 100 0 0 1 100, 96L232.84, 96A40 40 0 0 1 232.84, 176L98, 176C71.53, 176 71.55, 216 98, 216L211.82, 216A100 100 0 0 1 211.82, 416L40, 416A40 40 0 0 1 40, 336L213.86, 336C240.34, 336 240.32, 296 213.86, 296zM298, 416A120.21 120.21 0 0 0 349.11, 336L413.66, 336A19.83 19.83 0 0 0 433.32, 316L433.32, 196A19.83 19.83 0 0 0 413.66, 176L296.42, 176A60.77 60.77 0 0 0 296.42, 96L433.35, 96C476.79, 96 512, 131.82 512, 176L512, 336C512, 380.18 476.79, 416 433.35, 416z" fill="#727272" fill-opacity="1" class="Black" />
  </g>
</svg>