<?xml version='1.0' encoding='UTF-8'?>
<svg viewBox="-2.0003 -2.0001 32 32" xmlns="http://www.w3.org/2000/svg">
  <g transform="matrix(0.0547, 0, 0, 0.0547, 0, 0)">
    <path d="M186.12, 343.34C176.47, 352.99 176.47, 368.63 186.12, 378.28C195.77, 387.93 211.41, 387.93 221.06, 378.28L378.24, 221.1C397.53, 201.81 428.81, 201.81 448.1, 221.1C467.39, 240.39 467.39, 271.67 448.1, 290.96L293.95, 445.1C313.22, 464.39 344.48, 464.41 363.77, 445.14L363.81, 445.1L483.06, 325.86C521.65, 287.27 521.65, 224.72 483.06, 186.14C444.47, 147.55 381.91, 147.55 343.34, 186.14L186.12, 343.34zM430.65, 238.54C421, 228.89 405.36, 228.89 395.72, 238.54L238.52, 395.72C219.25, 415.01 187.99, 415.03 168.7, 395.77L168.65, 395.72C159.01, 386.08 143.38, 386.07 133.73, 395.71L133.72, 395.72C124.07, 405.36 124.06, 421 133.7, 430.65L133.72, 430.67C172.3, 469.24 234.86, 469.24 273.44, 430.67L430.64, 273.47C440.29, 263.82 440.29, 248.18 430.65, 238.54zM168.66, 325.87L325.84, 168.69C335.48, 159.04 335.48, 143.4 325.84, 133.75C316.2, 124.11 300.57, 124.11 290.93, 133.75L133.72, 290.93C114.44, 310.22 83.16, 310.23 63.87, 290.94L63.86, 290.93C44.57, 271.65 44.55, 240.39 63.83, 221.09L63.86, 221.06L218.03, 66.89C198.75, 47.6 167.48, 47.59 148.18, 66.87L148.16, 66.89L28.93, 186.14C-9.65, 224.73 -9.65, 287.28 28.93, 325.86C67.53, 364.45 130.06, 364.45 168.66, 325.87zM81.33, 273.47C90.97, 283.11 106.6, 283.11 116.24, 273.47L273.45, 116.28C292.73, 96.99 324, 96.98 343.29, 116.26L343.31, 116.28C352.96, 125.93 368.6, 125.93 378.24, 116.28C387.89, 106.63 387.89, 90.99 378.24, 81.35C339.65, 42.76 277.11, 42.76 238.52, 81.35L81.33, 238.54C71.68, 248.18 71.68, 263.82 81.32, 273.47L81.33, 273.47z" fill="#727272" fill-opacity="1" class="Black" />
  </g>
</svg>