<?xml version='1.0' encoding='UTF-8'?>
<svg viewBox="-3.7473 -2 32 32" xmlns="http://www.w3.org/2000/svg">
  <g transform="matrix(0.0547, 0, 0, 0.0547, 0, 0)">
    <path d="M17.7, 332.3L430.4, 332.3L430.4, 354.3C430.4, 392 401.1, 422.3 365.1, 422.3L346.1, 422.3L259.3, 512L259.3, 422.3L83, 422.3C47, 422.3 17.7, 392 17.7, 354.3L17.7, 332.3zM17.7, 308.7L430.4, 308.7L430.4, 223.7L17.7, 223.7L17.7, 308.7zM17.7, 199.3L430.4, 199.3L430.4, 114.3L17.7, 114.3L17.7, 199.3zM365, 0L83, 0C47, 0 17.7, 30.3 17.7, 67.7L17.7, 90L430.4, 90L430.4, 67.7C430.3, 30.3 401, 0 365, 0z" fill="#727272" fill-opacity="1" class="Black" />
  </g>
</svg>