<?xml version='1.0' encoding='UTF-8'?>
<svg viewBox="-4 0 32 32" xmlns="http://www.w3.org/2000/svg">
  <g transform="matrix(0.0625, 0, 0, 0.0625, 0, 0)">
    <path d="M290.7, 311L95, 269.7L86.8, 309L282.5, 350zM341.7, 224L188.2, 95.7L162.7, 126.5L316.2, 254.8zM310.5, 263.7L129.2, 179L112.5, 215.5L293.7, 300zM262, 32L230, 56L349.3, 216.3L381.3, 192.3zM282.5, 360L82.5, 360L82.5, 399.7L282.5, 399.7zM322.2, 440L42.7, 440L42.7, 320L2.7, 320L2.7, 480L362.2, 480L362.2, 320L322.2, 320z" fill="#727272" fill-opacity="1" class="Black" />
  </g>
</svg>