<?xml version='1.0' encoding='UTF-8'?>
<svg viewBox="-4.0098 -1.9992 32 32" xmlns="http://www.w3.org/2000/svg">
  <g transform="matrix(0.0545, 0, 0, 0.0545, 0, 0)">
    <path d="M382.7, 292.5L385.4, 295.2L215.4, 127.9C211.9, 124.4 205.7, 124.2 201.6, 127.4L144.3, 171C140.1, 174.2 139.7, 179.7 143.2, 183.2L211.3, 247.5C214.9, 251 221.2, 251.2 225.3, 248L225.4, 247.9C229.5, 244.7 235.8, 244.9 239.4, 248.4L323.4, 329.7C327, 333.2 326.6, 338.7 322.5, 341.9L229.3, 415.9C225.1, 419.2 218.8, 419 215.1, 415.5L63.2, 268C59.7, 264.5 53.5, 264.3 49.3, 267.5L3.5, 302.4C-0.7, 305.6 -1.2, 311.1 2.3, 314.6L211, 510.7C211, 510.7 218.4, 517.5 228.3, 509.9L426.3, 346C430.3, 342.8 430.7, 337.3 427, 333.8zM437.2, 209.1L226.7, 2.5C225.2, 1.3 218.7, -3 210.4, 3.6L3.6, 165.7C-0.6, 168.9 -1.2, 174.4 2.4, 177.9L44.7, 219.6L216.4, 384.7C220.1, 388.2 226.5, 388.4 230.7, 385.1L280.9, 346.3L280.6, 346L288.3, 340C292.5, 336.8 292.9, 331.3 289.2, 327.8L232.1, 273.4C228.5, 269.9 222.1, 269.7 217.9, 272.9L217.8, 273C213.6, 276.2 207.3, 276.1 203.6, 272.6L109, 180.8C105.4, 177.3 105.9, 171.9 110.1, 168.6L202.3, 97.1C206.4, 93.9 212.6, 94.1 216.2, 97.6L376.6, 256.6C380.3, 260.1 386.6, 260.3 390.7, 257.1L436.5, 221.3C440.6, 218.1 440.9, 212.6 437.2, 209.1z" fill="#727272" fill-opacity="1" class="Black" />
  </g>
</svg>