<?xml version='1.0' encoding='UTF-8'?>
<svg viewBox="-5.4939 -2 32 32" xmlns="http://www.w3.org/2000/svg">
  <g transform="matrix(0.0547, 0, 0, 0.0547, 0, 0)">
    <path d="M155.3, 154.6C155.3, 132.3 173.9, 123.7 203.7, 123.7C247.1, 123.7 302.2, 137 345.6, 160.4L345.6, 26.1C298.3, 7.2 251.1, 0 203.8, 0C88.1, 0 11, 60.4 11, 161.4C11, 319.3 227.8, 293.7 227.8, 361.8C227.8, 388.2 204.9, 396.7 173.1, 396.7C125.9, 396.7 64.9, 377.2 17, 351.2L17, 479.7A396.09 396.09 0 0 0 173, 512.1C291.6, 512.1 373.3, 461.1 373.3, 358.5C373.3, 188.3 155.3, 218.8 155.3, 154.6z" fill="#727272" fill-opacity="1" class="Black" />
  </g>
</svg>