<?xml version='1.0' encoding='UTF-8'?>
<svg viewBox="-2.0055 -2 32 32" xmlns="http://www.w3.org/2000/svg">
  <g transform="matrix(0.0547, 0, 0, 0.0547, 0, 0)">
    <path d="M480.3, 187.7L484.5, 215.7L484.5, 243.7L459.4, 287.8L419.6, 366.2L363.5, 433.7L284.4, 471.5L266.7, 496L259, 508L249.4, 512C249.4, 512 266.7, 448.4 268.8, 448.4C270.9, 448.4 289.1, 449.1 289.1, 449.1L355.8, 410.5L263.3, 436.6L207.4, 473.4L184.6, 501.4L178, 502.8L198.8, 429.2L205.7, 423.7L226.4, 436.6L314.7, 391.4L371.5, 339.9L386.3, 271.5L260.9, 294.8L276.1, 276.6L102.7, 223.3L184.6, 212.8L18.6, 89.9L133.5, 108L32.2, 0L285.1, 126.6L253.6, 88.6L378, 163L234.7, 64L253.4, 102.4L203.8, 84.3L158.3, 0L352.9, 122L310, 66.2L418, 162.6L430, 153.7L409, 137.3L413.2, 99.5L451, 89.1L480.2, 113.8L491.7, 118L484.7, 124.2L493.2, 136.2L480.1, 143.6L469.8, 163.8L480.3, 187.7z" fill="#727272" fill-opacity="1" class="Black" />
  </g>
</svg>