<?xml version='1.0' encoding='UTF-8'?>
<svg viewBox="-2 -1.7439 32 32" xmlns="http://www.w3.org/2000/svg">
  <g transform="matrix(0.0557, 0, 0, 0.0557, 0, 0)">
    <path d="M502.9, 266L502.9, 335.7C502.9, 397.8 452.6, 448.1 390.5, 448.1C328.7, 448.1 278.1, 398.3 278.1, 336.8L278.1, 266.6L312.4, 282.6L363.5, 267.4L363.5, 338C363.5, 352.7 375.5, 364.5 390.2, 364.5C404.9, 364.5 417, 352.7 417, 338L417, 266L502.9, 266zM278.2, 207.8L312.5, 223.8L363.6, 208.6L363.6, 173C363.6, 112.5 312.5, 64 251.5, 64C190.7, 64 139.4, 112.2 139.4, 172.2L139.4, 334.6C139.4, 349.5 127.4, 361.3 112.7, 361.3C98, 361.3 86, 349.5 86, 334.6L86, 266L0, 266L0, 335.7C0, 397.7 50.3, 448 112.4, 448C174, 448 224.8, 398.5 224.8, 337.2L224.8, 176.9C224.8, 162.2 236.8, 150.2 251.5, 150.2C266.2, 150.2 278.2, 162.2 278.2, 176.9L278.2, 207.8z" fill="#727272" fill-opacity="1" class="Black" />
  </g>
</svg>