<?xml version='1.0' encoding='UTF-8'?>
<svg viewBox="-2 0 32 32" xmlns="http://www.w3.org/2000/svg">
  <g transform="matrix(0.0625, 0, 0, 0.0625, 0, 0)">
    <path d="M448, 32C364.7, 43 281.2, 54 198, 65C106, 77.5 34.7, 151.7 29, 245C25.7, 300.5 47, 354.5 86.8, 393.2L0, 480C83.3, 469 166.5, 458 249.8, 447C341.6, 434.5 413.1, 360.2 418.5, 267.2C422, 211.7 400.5, 157.7 360.8, 119L448, 32zM368.3, 264.3C364.1, 343.8 294.3, 403.5 215.5, 398.8C136, 394.1 74.8, 327.8 79.2, 247.8C83.7, 168.6 153.5, 108.5 232.2, 113.3C311.5, 118 372.7, 184.3 368.3, 264.3z" fill="#727272" fill-opacity="1" class="Black" />
  </g>
</svg>