<?xml version='1.0' encoding='UTF-8'?>
<svg viewBox="-1.9754 -2 32 32" xmlns="http://www.w3.org/2000/svg">
  <g transform="matrix(0.0547, 0, 0, 0.0547, 0, 0)">
    <path d="M488.23, 241.7L508.93, 248.8C499.33, 224.9 485.03, 211.8 477.23, 204L484.33, 185.8C484.53, 185.8 496.63, 158 481.83, 155.1C481.23, 143.8 475.23, 128.1 463.43, 128.1C455.83, 117.5 445.73, 115.8 432.73, 122.2A122.2 122.2 0 0 0 407.43, 138.7C402.13, 132.3 404.43, 139.1 404.43, 108.9C367.33, 84.6 359.03, 97.2 329.63, 111.9L330.13, 112.4A239.36 239.36 0 0 0 261.73, 99.1C256.23, 90.4 243.13, 80 236.63, 74L261.43, 81.1C255.93, 75.6 234.63, 68.2 227.23, 65.9C245.43, 61.8 257.03, 45.1 269.73, 32.9C234.83, 22.8 201.83, 27 171.83, 44.7L183.83, 0.5L182, 0C150.4, 24.2 149, 41.9 148.3, 45.5C147.4, 43.1 142, 25.9 133.1, 18.5A35.12 35.12 0 0 0 132.6, 43.8C135.6, 52.2 138.5, 58.6 141, 62.7C125, 59.4 112.7, 57.8 91.8, 62.7L88.1, 62.7L121.1, 77A194.26 194.26 0 0 0 74.4, 144.4L72.7, 152.8L74.4, 154.5L82, 149.8C78.7, 161.4 76.7, 169.2 75.4, 175.6A200.18 200.18 0 0 0 47.6, 215.9C32.6, 216.9 15.8, 226.7 7.3, 230.2L10.3, 233.6L39.1, 234.6C38.6, 235.6 38.4, 236.8 37.9, 237.8C30.6, 244.2 -1.9, 275.5 4.9, 318.5L25.1, 296.1C25.6, 297.8 25.8, 299.5 26.3, 301.3C26.3, 326.8 26.7, 390.9 91.2, 451.8C134.8, 491.8 187.2, 512 248.7, 512C370.4, 512 471.7, 424.7 471.7, 300.5C478.5, 290.8 470.5, 303.5 488.4, 275.4L501.4, 289.7L503.9, 289.2A181.84 181.84 0 0 0 495, 255A44.74 44.74 0 0 0 488.2, 241.7zM398, 111.2L397.5, 133.1C403, 151.2 414.4, 150.3 419.9, 150.3L416.5, 145.6L438.9, 140.2A242.44 242.44 0 0 1 411.9, 140.2C424.7, 138.1 445.2, 111.2 454.9, 128.9C458.3, 136.5 461.3, 146.1 464.2, 156.7L465.9, 150.8A56.38 56.38 0 0 1 464.2, 135.6C469.6, 136.1 473, 139 473.5, 145.7C474, 152.1 475.2, 160.5 476.9, 171L481.6, 159.7C486.2, 159.7 486.1, 156.1 479.1, 180.4C458.2, 171.7 444, 172 432.6, 172L450.8, 156C425.5, 164.2 417.8, 166.8 396, 176.9C394.9, 171.5 391, 163.4 380, 157C376.8, 160.8 377.2, 157.9 379.3, 171.8L376.8, 171.8A62.32 62.32 0 0 0 368.4, 148.7L372.6, 145.3C381, 138.2 384.4, 131 383.2, 123.4C382.7, 117 377.8, 109.9 369.7, 102.7C375.3, 99.3 384.9, 102.3 398, 111.2zM358.4, 101.1C361.1, 103 369.8, 106.5 377.3, 118.3C381.5, 126.7 381.3, 128.1 380.7, 129.4C380.2, 131.8 380.2, 133.7 377.7, 136.5C376, 139 372.3, 141.2 365.9, 144.1C358.3, 131.1 349.4, 120.5 338.1, 112.9zM91, 143.1L92.2, 141.4C93.4, 138.5 96.4, 133.8 101.5, 126.2L104, 122.8L91, 135.1L96.4, 130.4L86.3, 139.7L82.1, 140.9C94.4, 116.8 105.2, 99.6 114.6, 90.7C123.9, 81.4 130.6, 74.7 134.8, 71.3L128.4, 72.5C117.1, 68.3 109, 65.4 103.6, 64.1C106.1, 63.6 107.3, 63.6 106.8, 63.6C117.1, 63.6 124.3, 64.1 127.7, 64.8A52.35 52.35 0 0 0 143.7, 67.3L144.2, 65.6L135.8, 29.8L149.3, 58.8A42.89 42.89 0 0 0 155.2, 44.5C156.9, 38.1 160.6, 31.5 165.3, 25.1C170, 18.7 172.9, 14.5 174.6, 13.8A234.68 234.68 0 0 0 168.2, 39.1L166.5, 46.2L166, 50.9L168.5, 53.4C190.4, 39.9 214, 34 239.8, 34.5L260.9, 35C249.1, 48.5 233.1, 56.9 212.4, 59.8A201.26 201.26 0 0 1 189, 62.7L188.8, 62.2L186.3, 61A20.75 20.75 0 0 0 172.3, 63C169.8, 62.8 167.4, 62.5 165.2, 62.3L162.7, 64L163.2, 65.2C165.2, 65.4 167.1, 65.7 169.4, 65.9L167.4, 69.3L170.8, 68.8L160.2, 80.1C156, 83.1 154.8, 86.5 156, 89.4L161.4, 86L162.6, 86A39.4 39.4 0 0 1 187.9, 70.8L187.9, 67.8C194.3, 68.3 200.9, 68.8 207.3, 69C213.7, 69 215.7, 69.5 212.7, 70.2A189.6 189.6 0 0 1 233.4, 83.7C246.9, 93.8 257, 105.6 263.4, 119.1C272.2, 137.3 276.9, 156.2 276.9, 175.7A141.13 141.13 0 0 1 273.9, 204A209.91 209.91 0 0 1 257.9, 250L260.4, 250.5C278.6, 230.8 302.3, 234.5 309.6, 234.5L303.2, 240.4L325.6, 258.1L323.9, 288.8C318.5, 276.5 307.4, 267.7 290.9, 261C307.4, 275.8 314.5, 282.1 312.8, 281.2C308, 278.4 309.3, 279.3 302, 277.5C306.1, 281.6 319.5, 296.3 320.2, 298.2L320.4, 298.4L320.2, 298.6C320.2, 300.4 321.8, 297.4 306.2, 321.5C231, 306.2 199.93, 278.8 165, 258.3L176.8, 259.5C165, 241 161.2, 241.8 138.4, 233.4L149, 225C140.2, 222 130.8, 222 120.7, 225.5L128.3, 214.9L127.1, 213.2C112.2, 217.5 107.3, 222.4 104.5, 224.5C103.4, 219 101.7, 212.1 92.2, 195.7L91, 222.7L77.8, 217.7C79.3, 192.5 83.2, 167.2 91, 143.1zM367.5, 473.1C317.6, 498.1 311.4, 495.5 308.5, 497C278.7, 485.2 257.6, 465.3 245, 438.2L275, 454.7C265.2, 445.4 256.7, 438.2 236.6, 410.4L248.4, 433.5L230.7, 425.9C244.9, 447 254.2, 477.6 297.3, 499.4C176.5, 523.6 98.3, 427.3 96.4, 425.1A262.57 262.57 0 0 0 131.8, 449.9C135.2, 451.6 138.9, 452.4 141.9, 451.1L125.9, 430.4C135.1, 434.6 135.4, 434.9 195, 459.4C152.5, 438.7 121.2, 418.6 101.8, 399.2C101.3, 405.6 100.6, 409.3 100.6, 409.3A80.25 80.25 0 0 1 121.3, 435.9C82.3, 417 63.7, 388.3 50, 353.3C99.9, 408.4 168.9, 390.8 170.5, 390.4C205.3, 406.8 240.4, 414 284.4, 401C287.7, 401 304.7, 418 309.7, 440.1L313.9, 437.1L311.4, 413.5C320.4, 422.5 336.3, 436.1 345.8, 426.5C330.2, 421.2 322.3, 417 316.3, 394.8C320.9, 399 323.9, 403.8 344.1, 409.8L345.3, 408.6L334.8, 394.4C346.5, 389.6 331.3, 395.4 366.8, 383.6C371.1, 417.9 375.8, 432.8 367.5, 473.1zM482.8, 258.7L480.3, 259.2L483.3, 268.5C479.8, 274.4 459.6, 312.8 411.7, 348.2C372.2, 378 335.1, 387.3 330.8, 388.5L323.2, 381.4L322, 384.4L336.3, 400.4L329.2, 395.7L332.6, 399.9L331.4, 399.9L309.5, 386.4L318.8, 413L299.8, 385.1L298.6, 387.6L306.2, 416.6C300.1, 408.4 285.2, 384 249.4, 377L281.9, 398.2A214.82 214.82 0 0 1 188.7, 391.8C184.5, 390.6 179.8, 389.3 175.2, 387.6L176.4, 384.6L131.6, 362.2L157.7, 384.6C100, 393.7 44.7, 359.2 31.3, 301.2L28.8, 284.8L6.53, 307.1C26.03, 249.6 32.13, 249.2 57.93, 237C48.83, 231.7 56.33, 233.7 19.53, 227.7C35.33, 221.9 52.53, 212.3 92.53, 232.9A18.5 18.5 0 0 1 96.23, 231.2C96.83, 228 96.63, 230.4 97.23, 219.4C101.13, 229.4 100.83, 228.1 100.23, 228.7L101.93, 229.2C114.63, 222.7 110.83, 224.7 118.93, 220.3L113.53, 233.8L135.83, 228L127.43, 236.4L129.93, 238.9C134.43, 237.1 160.23, 242.3 170.73, 254.9L147.13, 252.4C186.53, 275.4 198.63, 306.4 202.93, 322L204.63, 320.8C201.83, 298.5 192.23, 286.9 188.63, 280.7C192.83, 285.7 227.83, 315.3 299.03, 326.7C287.73, 326.2 275.93, 332.1 264.13, 345.6L310.83, 325.4L301.53, 347.3C309.13, 337.2 316.33, 323.7 322.73, 307.7L322.73, 307.2L323.93, 304.2L322.73, 320.2C336.23, 278.4 348.03, 241.7 358.13, 210.5L371.63, 182.7L371.63, 180.7L366.23, 176.5L376.33, 176.5L382.23, 180.7L384.73, 179.5L381.33, 163.5L393.63, 182.4L435.43, 162.2L420.63, 175.2L421.13, 178.1L438.83, 177.6A184 184 0 0 1 471.83, 181.8L448.23, 184.3L447.03, 187.3L473.63, 210.4A254.21 254.21 0 0 1 500.63, 242.4C489.43, 239.1 490.33, 239 479.43, 239L491.73, 271.5zM476.7, 187.4L472.8, 200.4L458.5, 188.6zM221.9, 194.5C223.6, 205.1 226.6, 212.2 230.7, 216.4C221.4, 223 203.2, 230.3 184.2, 232.4L184.7, 233.6A50.22 50.22 0 0 0 209.5, 231.1L202.4, 244.1C206.6, 242.4 212.5, 237 220.1, 229.3C232, 223.8 232.8, 224.2 240.3, 213.3C227.6, 206.9 224.6, 199.6 221.9, 194.5zM225.6, 92.2C219.2, 88.8 215, 95.2 213.3, 111.1C211.6, 127 215.8, 140.6 225.1, 150.7C234.4, 160.8 243.3, 161.3 251.2, 153.7C259.1, 146.1 254.6, 130.1 239.9, 106A39.57 39.57 0 0 0 225.63, 92.2zM220.9, 138.5C226.3, 140.7 231.4, 140.4 233.2, 127.9L233.2, 123.2L232, 123.7C227.7, 120.6 229.5, 119.2 230.3, 117.5L230.8, 117C229.9, 115.8 225.8, 108.9 218.3, 121.7C217.8, 108.2 218.8, 99.8 221.3, 96.9C222.5, 94.4 226, 95.7 232.6, 101.1C239, 106.5 243.9, 117.1 247.8, 133.6C254.3, 161.6 228, 159.8 220.9, 138.5zM175.9, 133C177.5, 133.3 185.2, 131.9 185.2, 118.2L184.7, 118.2C179.3, 117.1 182.5, 112.7 184, 112.3C182.3, 109.3 180.6, 108.1 178.6, 107.6C170.5, 107.6 167, 120.3 170.5, 128.8A7.51 7.51 0 0 0 175.93, 133zM216, 82.9L213.5, 83.4L214, 86.4A48.94 48.94 0 0 1 240.1, 92.3C237.6, 86.8 230.1, 78 211.8, 78L212.3, 80.5zM144.2, 132.3C165.9, 149.1 160.7, 153.7 190.7, 155.9L187.8, 151.2A42.67 42.67 0 0 0 202.6, 122.9C204.3, 106.9 201.4, 93.4 193.8, 81.6L206.8, 74A2.26 2.26 0 0 0 206.3, 72.3A14.21 14.21 0 0 0 192.8, 74C180.1, 80.7 164.8, 94.9 163.8, 96.4C162.1, 98.1 160.4, 102.3 158.4, 109.9A99.61 99.61 0 0 0 155.5, 133.5C150.8, 125.5 145, 127.1 135.6, 127.6L142.7, 135.2C126.2, 135.2 119.4, 150.6 119.1, 151.2C125.9, 151.2 123.7, 143.6 149.1, 138.9C144.8, 132.6 145.8, 133.9 144.2, 132.3zM162.9, 113.6C164.1, 106 166.3, 100.6 169.3, 96.4C174.7, 90 179.9, 86.3 185.3, 84.6C189.5, 82.9 192.4, 85.8 195.4, 93.9A72.14 72.14 0 0 1 198.4, 119.2C197.9, 128.5 195, 136.4 190, 142.3C187.1, 145.7 184.6, 148.2 183.6, 149.9A39.21 39.21 0 0 1 172.3, 149.4L165.2, 146L159.8, 139.6C160.6, 129.6 161.1, 120.8 162.9, 113.6zM204.9, 169.7C170.1, 184.1 170.2, 183.7 168.8, 184C148, 188.7 149.8, 159.6 149.9, 159.2L155.8, 158L155.3, 155.5C135.1, 152.9 124.3, 159.7 122.8, 160.4C123.3, 160.9 125.8, 163.8 128.7, 169.7C132.9, 163.3 137.5, 159.6 143.9, 159.1A83.47 83.47 0 0 0 145.6, 192.8C145.7, 193.3 148.2, 210.2 173.1, 216.9C184.4, 219.9 200.1, 218.1 222, 211.5L212.8, 212C208.6, 197.2 206.4, 187.2 206.9, 182.5C218.2, 173.7 228.8, 171.2 237.6, 174.9L240.1, 174.9L228.3, 167.3L221.2, 167.8C215.3, 169 208.9, 172 201.8, 176.2z" fill="#727272" fill-opacity="1" class="Black" />
  </g>
</svg>