<?xml version='1.0' encoding='UTF-8'?>
<svg viewBox="-3.5519 -1.7737 32 32" xmlns="http://www.w3.org/2000/svg">
  <g transform="matrix(0.0556, 0, 0, 0.0556, 0, 0)">
    <path d="M202.9, 8.43C212.8, 2.7 228.9, 2.61 238.85, 8.22L430, 115.85C440, 121.45 448, 135.29 448, 146.71L448, 364C448, 375.44 439.94, 389.29 430, 395L238.81, 503.74C228.88, 509.4 212.81, 509.31 202.96, 503.53L17.86, 395.12C8, 389.34 0, 375.38 0, 364L0, 146.71C0, 135.27 8, 121.35 17.91, 115.63zM125.5, 208.26C109.56, 208.26 93.61, 208.4 77.67, 208.4L77.67, 309.85L96.8, 309.85L96.8, 280L125.5, 280C175.21, 280 175.06, 208.26 125.5, 208.26zM265.64, 308.55L234.91, 273.91C271.91, 266.4 269.71, 208.68 224.04, 208.4C207.95, 208.4 191.87, 208.26 175.78, 208.26L175.78, 309.85L194.91, 309.85L194.91, 275.94L213.32, 275.94L242.88, 309.85L265.64, 309.85zM224.05, 226.23C247.39, 226.23 247.31, 258.69 224.05, 258.69L194.92, 258.69L194.92, 226.23zM128.49, 224.63C149.67, 224.63 149.6, 263.48 128.49, 263.48L96.18, 263.48L96.18, 224.64zM321.14, 206.38C252.68, 206.38 250.14, 312.18 321.14, 312.18C390.62, 312.17 390.55, 206.38 321.14, 206.38zM321.14, 223.77C365.26, 223.77 365.94, 294.63 321.14, 294.63C276.34, 294.63 276.71, 223.77 321.14, 223.77z" fill="#727272" fill-opacity="1" class="Black" />
  </g>
</svg>