<?xml version='1.0' encoding='UTF-8'?>
<svg viewBox="-2 -1.5032 32 32" xmlns="http://www.w3.org/2000/svg">
  <g transform="matrix(0.0565, 0, 0, 0.0565, 0, 0)">
    <path d="M248, 8.8C111, 8.8 0, 119.8 0, 256.8C0, 393.8 111, 504.8 248, 504.8C385, 504.8 496, 393.8 496, 256.8C496, 119.8 385, 8.8 248, 8.8zM248, 491.6C118.3, 491.6 13.2, 386.5 13.2, 256.8C13.2, 127.1 118.3, 22 248, 22C377.7, 22 482.8, 127.1 482.8, 256.8C482.8, 386.5 377.7, 491.6 248, 491.6zM403.1, 163.1L403.1, 116.3L209.3, 116.3L209.3, 198L54.2, 198L90.9, 244L208.6, 244L208.6, 440.8L257.4, 440.8L257.4, 245L340.7, 245L340.7, 198L257.4, 198L257.4, 163.2L403.1, 163.2zM329.8, 208.2L329.8, 232.1L246.9, 232.1L246.9, 429.5L220.1, 429.5L220.1, 232.1L96.3, 232.1L76.2, 208.2L220.1, 208.2L220.1, 127.6L391.9, 127.6L391.9, 152L246.9, 152L246.9, 208.2zM168.5, 139.2L156.1, 118.5L158.2, 142.3L134.7, 147.7L158, 153.1L155.9, 177.1L168.2, 156.6L190.4, 166.1L174.7, 148L190.5, 129.9zM138.9, 119.5L148.2, 108L135.5, 113.9L127.5, 101.5L129.2, 115.4L114.9, 119.2L128.6, 121.9L127.8, 136.6L134.6, 124.4L148.4, 129.7zM304.3, 264.7L291.2, 270.3L283.9, 258.1L285.2, 272.3L271.3, 275.5L285.2, 278.7L284, 292.9L291.3, 280.7L304.4, 286.2L295, 275.5zM411.2, 187.5L390.3, 196.6L378.3, 177L380.5, 199.7L358.2, 205.1L380.4, 210L378.6, 232.9L390.1, 213.3L411.3, 222.1L396.2, 205.1zM248, 29.9C122.7, 29.9 21.1, 131.5 21.1, 256.8C21.1, 382.1 122.7, 483.7 248, 483.7C373.3, 483.7 474.9, 382.1 474.9, 256.8C474.9, 131.5 373.3, 29.9 248, 29.9zM342.6, 196L342.6, 247L259.3, 247L259.3, 442.7L206.6, 442.7L206.6, 245.9L89.9, 245.9L49.9, 196L207.3, 196L207.3, 114.4L405.1, 114.4L405.1, 165.1L259.4, 165.1L259.4, 196zM248, 43.2C308.3, 43.2 362.8, 68.2 401.6, 108.4L202.5, 108.4L202.5, 190L45.1, 190C73.1, 104.8 153.4, 43.2 248, 43.2zM248, 470.3C130.1, 470.3 34.4, 374.7 34.4, 256.8C34.4, 235.6 37.5, 215 43.3, 195.7L87.1, 252L201.8, 252L201.8, 448.8L266.4, 448.8L266.4, 253L349.7, 253L349.7, 190.3L266.5, 190.3L266.5, 171.1L412.1, 171.1L412.1, 120.3C442.9, 157.3 461.4, 204.9 461.4, 256.8C461.5, 374.7 365.9, 470.3 248, 470.3zM178.8, 275L167.8, 253.6L169.5, 278.1L145.8, 282L169.6, 287.9L165.9, 311.7L178.9, 290.8L200.4, 301.6L184.6, 282.8L201.5, 265.7z" fill="#727272" fill-opacity="1" class="Black" />
  </g>
</svg>