<?xml version='1.0' encoding='UTF-8'?>
<svg viewBox="-2.0045 0 32 32" xmlns="http://www.w3.org/2000/svg">
  <g transform="matrix(0.0625, 0, 0, 0.0625, 0, 0)">
    <path d="M392.3, 32L56.1, 32C25.1, 32 0, 57.1 0, 88C-0.1, 88 0, 84 0, 424C0, 454.9 25.1, 480 56, 480L392.2, 480C423, 479.8 447.9, 454.8 447.9, 424L447.9, 88C448, 57.2 423.1, 32.2 392.3, 32zM197, 371.3C196.8, 386 184.9, 397.9 170.1, 397.9L87.4, 397.9C72.6, 398 60.5, 386.1 60.4, 371.3L60.4, 117.1C60.4, 102.3 72.4, 90.2 87.3, 90.2L170.2, 90.2C185, 90.2 197.1, 102.2 197.1, 117.1L197.1, 371.3zM390.1, 259.3C390.1, 274.1 378.1, 286.2 363.2, 286.2L282.2, 286.2C267.4, 286.2 255.3, 274.2 255.3, 259.3L255.3, 117.2C255.3, 102.4 267.3, 90.3 282.1, 90.3L363.2, 90.3C378, 90.3 390.1, 102.3 390.1, 117.2L390.1, 259.3z" fill="#727272" fill-opacity="1" class="Black" />
  </g>
</svg>