<?xml version='1.0' encoding='UTF-8'?>
<svg viewBox="-2 -3.5553 32 32" xmlns="http://www.w3.org/2000/svg">
  <g transform="matrix(0.0486, 0, 0, 0.0486, 0, 0)">
    <path d="M166.4, 280.521C166.4, 293.757 155.67, 304.487 142.434, 304.487C129.198, 304.487 118.468, 293.757 118.468, 280.521C118.468, 267.285 129.198, 256.555 142.434, 256.555C155.67, 256.555 166.4, 267.284 166.4, 280.521zM431.362, 256.565C418.132, 256.565 407.406, 267.29 407.406, 280.521C407.406, 293.751 418.131, 304.477 431.362, 304.477C444.592, 304.477 455.318, 293.752 455.318, 280.521C455.317, 267.29 444.592, 256.565 431.362, 256.565zM520.75, 396.055C458.083, 445.159 367.474, 434.164 318.371, 371.496L287.392, 417.821L256.709, 371.882C208.432, 432.272 121.087, 443.773 58.824, 397.937C-5.234, 350.779 -18.935, 260.621 28.223, 196.563A186.762 186.762 0 0 0 0, 139.416L90.286, 139.366A358.48 358.48 0 0 1 287.351, 85.336A350.382 350.382 0 0 1 479.532, 138.685L575.75, 138.759A185.713 185.713 0 0 0 547.398, 196.408C594.191, 259.155 582.362, 347.778 520.75, 396.055zM259.366, 281.761C259.359, 218.204 207.831, 166.686 144.274, 166.693C80.717, 166.7 29.2, 218.228 29.206, 281.785C29.213, 345.342 80.741, 396.86 144.298, 396.853C207.811, 396.778 259.282, 345.314 259.366, 281.801L259.366, 281.761zM287.957, 271.306C293.39, 197.866 353.467, 140.422 427.077, 138.284A339.146 339.146 0 0 0 287.35, 110.472A356.31 356.31 0 0 0 147.186, 137.725C221.53, 139.307 282.485, 197.149 287.957, 271.306zM539.663, 242.539C517.671, 182.905 451.501, 152.391 391.868, 174.382C332.234, 196.374 301.72, 262.544 323.711, 322.177L323.711, 322.209C345.749, 381.816 411.909, 412.3 471.538, 390.322C531.153, 368.318 561.651, 302.16 539.663, 242.539zM213.624, 280.514L213.624, 280.629C213.567, 319.957 181.638, 351.792 142.31, 351.735C102.982, 351.678 71.147, 319.749 71.204, 280.421C71.261, 241.093 103.19, 209.258 142.518, 209.315C181.777, 209.431 213.56, 241.255 213.624, 280.514zM189.112, 280.514L189.112, 280.43C189.061, 254.646 168.118, 233.785 142.334, 233.836C116.55, 233.887 95.689, 254.83 95.74, 280.613C95.791, 306.397 116.734, 327.258 142.517, 327.207C168.243, 327.094 189.054, 306.239 189.112, 280.514zM502.535, 280.514L502.535, 280.562C502.515, 319.89 470.617, 351.756 431.288, 351.735C391.959, 351.714 360.094, 319.817 360.115, 280.488C360.135, 241.16 392.033, 209.294 431.362, 209.315C470.652, 209.381 502.483, 241.224 502.535, 280.514zM478.031, 280.506C478.022, 254.722 457.113, 233.827 431.329, 233.836C405.545, 233.845 384.65, 254.754 384.659, 280.538C384.668, 306.322 405.577, 327.216 431.361, 327.208C457.126, 327.162 477.997, 306.28 478.031, 280.515L478.031, 280.506z" fill="#727272" fill-opacity="1" class="Black" />
  </g>
</svg>