<?xml version='1.0' encoding='UTF-8'?>
<svg viewBox="-2 0 32 32" xmlns="http://www.w3.org/2000/svg">
  <g transform="matrix(0.0625, 0, 0, 0.0625, 0, 0)">
    <path d="M400, 32L48, 32C21.5, 32 0, 53.5 0, 80L0, 432C0, 458.5 21.5, 480 48, 480L400, 480C426.5, 480 448, 458.5 448, 432L448, 80C448, 53.5 426.5, 32 400, 32zM317.7, 396.2C309.2, 405.3 286.5, 416 256.8, 416C181.3, 416 164.9, 360.5 164.9, 328.1L164.9, 238.1L135.2, 238.1C131.8, 238.1 129, 235.3 129, 231.9L129, 189.4C129, 184.9 131.8, 180.9 136.1, 179.4C174.9, 165.7 187, 131.9 188.8, 106.2C189.3, 99.3 192.9, 96 198.8, 96L243.1, 96C246.5, 96 249.3, 98.8 249.3, 102.2L249.3, 174.2L301.2, 174.2C304.6, 174.2 307.4, 177 307.4, 180.4L307.4, 231.5C307.4, 234.9 304.6, 237.7 301.2, 237.7L249.1, 237.7L249.1, 321C249.1, 342.4 263.9, 354.5 291.6, 343.4C294.6, 342.2 297.2, 341.4 299.6, 342C301.8, 342.5 303.2, 344.1 304.2, 346.9L318, 387.1C319, 390.3 320, 393.8 317.7, 396.2z" fill="#727272" fill-opacity="1" class="Black" />
  </g>
</svg>