<?xml version='1.0' encoding='UTF-8'?>
<svg viewBox="-2.0036 -0.0005 32 32" xmlns="http://www.w3.org/2000/svg">
  <g transform="matrix(0.0625, 0, 0, 0.0625, 0, 0)">
    <path d="M414.1, 32L33.9, 32C15.2, 32 0, 47.2 0, 65.9L0, 446C0, 464.8 15.2, 480 33.9, 480L414, 480C432.7, 480 447.9, 464.8 447.9, 446.1L447.9, 65.9C448, 47.2 432.8, 32 414.1, 32zM237.6, 391.1C163, 398.6 96.4, 344.2 88.9, 269.6L183.3, 269.6L183.3, 290C183.3, 293.7 186.3, 296.8 190.1, 296.8L258, 296.8C261.7, 296.8 264.8, 293.8 264.8, 290L264.8, 222.1C264.8, 218.4 261.8, 215.3 258, 215.3L190.1, 215.3C186.4, 215.3 183.3, 218.3 183.3, 222.1L183.3, 242.5L88.9, 242.5C95.9, 173.1 154.3, 120.3 224, 120.3C293.7, 120.3 352.1, 173.1 359.1, 242.5C366.6, 317 312.2, 383.6 237.6, 391.1z" fill="#727272" fill-opacity="1" class="Black" />
  </g>
</svg>