<?xml version='1.0' encoding='UTF-8'?>
<svg viewBox="-4 0 32 32" xmlns="http://www.w3.org/2000/svg">
  <g transform="matrix(0.0625, 0, 0, 0.0625, 0, 0)">
    <path d="M192, 480C231.5, 480 268.2, 468.2 298.8, 447.8L85.3, 447.8C115.8, 468.2 152.5, 480 192, 480zM102.9, 286.9L102.9, 274.5L0, 274.5L0, 286.9C0, 289.4 0, 291.9 0.1, 294.3L103.2, 294.3C103, 291.9 102.9, 289.4 102.9, 286.9zM123.4, 343.9L8.5, 343.9C11.1, 352.4 14.3, 360.7 18.1, 368.7L156.4, 368.7C143.5, 363 132.3, 354.5 123.4, 343.9zM105.7, 309.2L1.3, 309.2C2.2, 316.8 3.5, 324.2 5.2, 331.5L114.9, 331.5C110.9, 324.6 107.7, 317.1 105.7, 309.2zM102.9, 239.9L0, 239.9L0, 257.2L102.9, 257.2zM102.9, 66.7L0, 66.7L0, 71.6L102.9, 71.6zM102.9, 32L0, 32L0, 34.5L102.9, 34.5zM102.9, 101.3L0, 101.3L0, 108.7L102.9, 108.7zM102.9, 205.3L0, 205.3L0, 220.1L102.9, 220.1zM102.9, 136L0, 136L0, 145.9L102.9, 145.9zM102.9, 170.6L0, 170.6L0, 183L102.9, 183zM269.1, 331.5L378.8, 331.5C380.6, 324.2 381.9, 316.8 382.7, 309.2L278.3, 309.2C276.2, 317.1 273.1, 324.6 269.1, 331.5zM281.1, 145.8L384, 145.8L384, 136L281.1, 136zM281.1, 183L384, 183L384, 170.6L281.1, 170.6zM281.1, 108.7L384, 108.7L384, 101.3L281.1, 101.3zM281.1, 32L281.1, 34.5L384, 34.5L384, 32zM78.1, 442.9L305.8, 442.9C317.6, 434.2 328.5, 424.3 338, 413.2L44.9, 413.2C54.5, 424.2 66.3, 434.2 78.1, 442.9zM281.1, 71.6L384, 71.6L384, 66.7L281.1, 66.7zM281.1, 220.1L384, 220.1L384, 205.3L281.1, 205.3zM38.8, 405.7L344.1, 405.7C350.8, 397.2 356.7, 388.1 361.9, 378.5L23, 378.5C28.2, 388.1 32.2, 397.2 38.8, 405.7zM227.6, 368.6L367, 368.6C370.7, 360.6 372.8, 352.4 375.5, 343.8L260.5, 343.8C251.7, 354.5 240.4, 363 227.6, 368.6zM281.1, 286.9C281.1, 289.4 281, 291.9 280.7, 294.3L383.8, 294.3C383.9, 291.8 384, 289.4 384, 286.9L384, 274.5L281.1, 274.5zM281.1, 257.2L384, 257.2L384, 239.9L281.1, 239.9z" fill="#727272" fill-opacity="1" class="Black" />
  </g>
</svg>