<?xml version='1.0' encoding='UTF-8'?>
<svg viewBox="-3.987 0.0681 32 32" xmlns="http://www.w3.org/2000/svg">
  <g transform="matrix(0.0627, 0, 0, 0.0627, 0, 0)">
    <path d="M103.2, 303C98, 306.6 70.6, 316.1 70.6, 284L70.6, 180L37.9, 180L37.9, 282.6C37.9, 357.5 118.1, 333.7 135.8, 321.6L135.8, 180L103.2, 180zM4, 74.82L4, 295.72C4, 399.42 78.9, 430.92 191.7, 479.82C304.1, 430.92 379.4, 399.62 379.4, 295.72L379.4, 74.82C263.1, 13.22 97.6, 25.22 4, 74.82zM362.1, 295.72C362.1, 382.32 308.9, 409.32 191.7, 461.02C74.2, 409.22 21.2, 382.32 21.2, 295.72L21.2, 169.32C123.5, 75.52 252.8, 69.32 362.1, 79.52zM152.5, 188.32L152.5, 401.12L185.2, 401.12L185.2, 332.42C209.6, 339.72 256.9, 329.82 256.9, 253.92C256.9, 156.52 176.2, 173 152.5, 188.32zM185.2, 305.62L185.2, 205.32C193.6, 201.12 223.6, 192.62 223.6, 254.62C223.6, 322.52 187.2, 306.42 185.2, 305.62zM264.3, 219.22C264.4, 266.52 315.9, 261.72 316.5, 289.62C317.1, 313.12 286.1, 312.62 265.7, 294.52L265.7, 324.62C301.9, 346.12 347.6, 332.72 348.9, 291.12C350.6, 239.62 294.8, 244.52 295.5, 217.92C296.1, 197.62 326.1, 197.42 344, 215.72L344, 187.32C315.5, 165.32 264.1, 178.12 264.3, 219.22z" fill="#727272" fill-opacity="1" class="Black" />
  </g>
</svg>