<?xml version='1.0' encoding='UTF-8'?>
<svg viewBox="-0.5517 -2.2736 32 32" xmlns="http://www.w3.org/2000/svg">
  <g transform="matrix(0.0536, 0, 0, 0.0536, 0, 0)">
    <path d="M460.3, 241.7C486.1, 200.4 475.5, 192.9 448.6, 192.9L421.6, 192.9C421.5, 192.9 420.1, 191.5 410.7, 200.9C399.5, 206.5 372.8, 207.2 372.8, 209.6C372.8, 214.1 443.1, 206.5 460.9, 209.6C470.4, 211.1 459.4, 230 456.5, 241.6C456, 246.1 458.9, 243.9 460.3, 241.7zM348.2, 264.3C412.2, 243 445.5, 240.4 450.2, 238.1C454.6, 235.2 445.8, 231.5 424, 232.3C372.3, 234.5 286.4, 269.4 251.4, 286.2L220.7, 192.9L417.3, 192.9C414.6, 164.7 264.4, 170.3 79.4, 170.3L27, 415.8C223.4, 318.5 285.9, 285.5 348.2, 264.3zM94.7, 96C348, 149.7 424.7, 161.7 426.8, 181.2C463.2, 181.2 472.7, 181.2 479.2, 187.8C500.3, 207.5 464.6, 255.5 464.6, 255.5C460.2, 258.4 58.2, 415.7 58.2, 415.7L481.3, 415.7L549, 96z" fill="#727272" fill-opacity="1" class="Black" />
  </g>
</svg>