<?xml version='1.0' encoding='UTF-8'?>
<svg viewBox="-2 -2 32 32" xmlns="http://www.w3.org/2000/svg">
  <g transform="matrix(0.0547, 0, 0, 0.0547, 0, 0)">
    <path d="M156.8, 285.1L162.5, 299.5L154.3, 299.5C153, 296.3 151.2, 291.8 150.5, 290C148, 283.7 149.4, 281.6 150.5, 280C152.4, 277.3 153.7, 275.6 154.1, 274.8C154.1, 277 154.9, 280.5 156.8, 285.1zM454.1, 303.9C452, 317.7 448.4, 331 443.6, 343.6L486.6, 367L441.8, 348.2C436.5, 361.4 429.8, 373.8 421.9, 385.4L456.1, 415.6L419.3, 389.2C410.9, 401 401.3, 411.8 390.6, 421.5L415.5, 456.2L387.4, 424.4C376.4, 434 364.3, 442.4 351.3, 449.5L367, 486.7L347.7, 451.4C334.6, 458.2 320.7, 463.5 306.1, 467.3L312.8, 505.7L302.3, 468.3C288, 471.7 273.1, 473.6 257.8, 473.7L256, 512L254.1, 473.6C238.8, 473.5 223.9, 471.6 209.6, 468.3L199, 505.6L205.7, 467.4C191.1, 463.7 177.1, 458.3 164, 451.6L144.8, 486.7L160.4, 449.7C147.4, 442.7 135.2, 434.3 124.2, 424.6L96.3, 456.2L121, 421.8C110.3, 412.1 100.6, 401.3 92.2, 389.5L55.7, 415.7L89.6, 385.8C81.7, 374.2 75, 361.7 69.6, 348.5L25.2, 367.2L67.8, 344C63, 331.3 59.4, 317.9 57.3, 304.1L6.3, 313.1L56.6, 298.9C55.5, 290.4 54.9, 281.8 54.9, 273C54.9, 268.3 55.1, 263.6 55.4, 258.9L0, 256L56, 253.2C57.3, 240.1 59.8, 227.4 63.5, 215.1L6.4, 199L65.3, 209.4C69.3, 197.4 74.4, 185.9 80.5, 175L25.4, 145L83.7, 169.6C90, 159 97.2, 149.2 105.3, 140L55.8, 96.4L109.7, 135.1C117.8, 126.5 126.7, 118.6 136.3, 111.5L96.3, 55.9L141.9, 107.5C151.4, 100.9 161.6, 95.2 172.2, 90.3L144.9, 25.4L178.7, 87.5C189.2, 83.1 200.1, 79.6 211.4, 77.1L199, 6.4L218.5, 75.6C229.5, 73.5 240.8, 72.4 252.3, 72.2L256, 0L259.6, 72.2C271.1, 72.4 282.4, 73.6 293.4, 75.7L313, 6.4L300.6, 77.1C311.9, 79.7 322.8, 83.2 333.2, 87.6L367.1, 25.4L339.7, 90.5C350.3, 95.4 360.4, 101.2 369.9, 107.7L415.7, 55.9L375.6, 111.8C385.1, 118.9 394, 126.8 402.1, 135.4L456.3, 96.5L406.6, 140.4C414.6, 149.5 421.8, 159.3 428.1, 169.8L486.8, 145.1L431.3, 175.3C437.4, 186.2 442.4, 197.6 446.4, 209.6L505.7, 199.2L448.2, 215.4C451.9, 227.6 454.4, 240.3 455.7, 253.3L512, 256L456, 258.8C456.3, 263.4 456.5, 268.1 456.5, 272.9C456.5, 281.6 455.9, 290.2 454.9, 298.7L505.6, 313L454.1, 303.9zM432.3, 272.9C432.3, 175.4 353.3, 96.4 255.8, 96.4C158.3, 96.4 79.3, 175.4 79.3, 272.9C79.3, 370.4 158.3, 449.4 255.8, 449.4C353.3, 449.4 432.3, 370.4 432.3, 272.9zM408.3, 272.9C408.3, 357.2 340, 425.5 255.7, 425.5C171.4, 425.5 103.1, 357.2 103.1, 272.9C103.1, 188.6 171.4, 120.3 255.7, 120.3C340, 120.3 408.3, 188.6 408.3, 272.9zM195, 241C195, 243.1 196.3, 244.8 198.6, 246.1C201.9, 248 204.8, 250.7 206.8, 254.3C209.6, 248.6 211.1, 244.8 211.1, 243.1C211.1, 240.9 210, 238.7 207.9, 236.1C205.8, 233.6 204.7, 230.9 204.6, 228.4C198.1, 235.2 195, 239.3 195, 241zM154.3, 222C154.3, 224.1 155.6, 225.8 157.9, 227.1C161.4, 229 164.1, 231.7 166.1, 235.3C168.9, 229.6 170.4, 225.8 170.4, 224.1C170.4, 221.9 169.3, 219.7 167.2, 217.1C165.1, 214.6 164, 211.9 163.9, 209.4C157.4, 216.2 154.3, 220.3 154.3, 222zM135.3, 222C135.3, 224.1 136.6, 225.8 138.9, 227.1C142.2, 229 145.1, 231.7 147.1, 235.3C149.9, 229.6 151.4, 225.8 151.4, 224.1C151.4, 221.9 150.3, 219.7 148.2, 217.1C146.1, 214.6 145, 211.9 144.9, 209.4C138.5, 216.2 135.3, 220.3 135.3, 222zM340.2, 309.9C331.8, 306.9 331.5, 303.1 331.5, 294.3L331.5, 182C323.3, 194.5 317.3, 200.6 313.5, 200.6C319.8, 215 323, 224.5 323, 228.9L323, 293.2C323, 295.4 320.8, 299.7 318.3, 299.7L300.3, 299.7C297.5, 292.2 290.1, 272.8 285, 259.4C283, 261.9 277.8, 268.6 274.3, 273.1C276.7, 274.7 278.4, 276.7 279.5, 279.4C282.1, 286.1 285.9, 295.9 287.4, 299.6L278.2, 299.6C274.3, 289.2 268.6, 274.2 266.4, 268.5C264.4, 271 259.2, 277.7 255.7, 282.2C258.1, 283.8 259.8, 285.8 260.9, 288.5C261.7, 290.5 263.7, 295.8 265.2, 299.4L256, 299.4C254.5, 295.3 250.4, 284.8 247.6, 277.4C245.6, 279.9 240.4, 286.6 236.9, 291.1C239.4, 292.7 241.2, 294.7 242.1, 297.4C242.3, 298 242.6, 298.8 242.7, 299.1L225, 299.1C220.4, 285.2 213.6, 271.4 213.6, 265C213.6, 262.8 213.9, 259.9 214.7, 256.8C205.9, 267.6 200.7, 272.7 200.7, 281.8C200.7, 289.3 211.1, 310.1 211.1, 315.1C211.1, 316.8 210.6, 318.4 209.7, 320C200.1, 307.3 194.2, 299.3 190.9, 299.3L178.9, 299.3L167.7, 271.3C163.9, 261.7 162, 255.3 162, 252.5C162, 248.7 162.5, 244.8 163.7, 240.3C162.7, 241.6 160, 245 158.2, 247.4C157.4, 245.3 155.1, 239.7 153.6, 235.9C151.5, 238.4 146.1, 245 142.4, 249.5C143.3, 251.8 145.7, 257.6 147.3, 261.7C144.8, 265 138.2, 273.5 133.7, 279.4C129.7, 284.7 127.9, 292.7 131, 301.2C133.5, 307.9 133, 309.1 129.3, 315.3L191, 315.3C196.5, 315.3 205.3, 329.3 206.5, 337.3C219.7, 321.3 221.9, 317.7 223.3, 315.7L330.3, 315.7C334.2, 315.7 337.5, 313.8 340.2, 309.9zM360.3, 283.3L360.3, 181.7C351.3, 194.2 344.4, 200.3 339.6, 200.3C346.7, 214.7 350.3, 224.2 350.3, 228.6L350.3, 294.9C350.3, 312.4 358.9, 315.3 374.3, 315.3C382.4, 315.3 386.8, 314.5 388, 312.6C383.7, 311 380.4, 310.1 378.1, 309.3C370, 306.1 360.3, 301.9 360.3, 283.3z" fill="#727272" fill-opacity="1" class="Black" />
  </g>
</svg>