<?xml version='1.0' encoding='UTF-8'?>
<svg viewBox="-2.0031 -1.9978 32 32" xmlns="http://www.w3.org/2000/svg">
  <g transform="matrix(0.0547, 0, 0, 0.0547, 0, 0)">
    <path d="M444, 49.9C431.3, 38.2 379.9, 0.9 265.3, 0.4C265.3, 0.4 130.2, -7.7 64.4, 52.7C27.8, 89.3 14.9, 143 13.5, 209.5C12.1, 276 10.4, 400.6 130.5, 434.4L130.6, 434.4L130.5, 486C130.5, 486 129.7, 506.9 143.5, 511.1C160.1, 516.3 169.9, 500.4 185.8, 483.3C194.5, 473.9 206.5, 460.1 215.6, 449.6C297.8, 456.5 360.9, 440.7 368.1, 438.4C384.7, 433 478.6, 421 493.8, 296.4C509.6, 167.8 486.2, 86.6 444, 49.9zM457.9, 287C445, 391 368.9, 397.6 354.9, 402.1C348.9, 404 293.4, 417.8 223.7, 413.3C223.7, 413.3 171.7, 476 155.5, 492.3C150.2, 497.6 144.4, 497.1 144.5, 486.6C144.5, 479.7 144.9, 400.9 144.9, 400.9C144.8, 400.9 144.8, 400.9 144.9, 400.9C43.1, 372.7 49.1, 266.6 50.2, 211.1C51.3, 155.6 61.8, 110.1 92.8, 79.5C148.5, 29 263.2, 36.5 263.2, 36.5C360.1, 36.9 406.5, 66.1 417.3, 75.9C453, 106.5 471.2, 179.7 457.9, 287zM318.9, 206.2C319.3, 214.8 306.4, 215.4 306, 206.8C304.9, 184.8 294.6, 174.1 273.4, 172.9C264.8, 172.4 265.6, 159.5 274.1, 160C302, 161.5 317.5, 177.5 318.9, 206.2zM339.2, 217.5C340.2, 175.1 313.7, 141.9 263.4, 138.2C254.9, 137.6 255.8, 124.7 264.3, 125.3C322.3, 129.5 353.2, 169.4 352.1, 217.8C352, 226.4 339, 226 339.2, 217.5zM386.2, 230.9C386.3, 239.5 373.3, 239.6 373.3, 231C372.7, 149.5 318.4, 105.1 252.5, 104.6C244, 104.5 244, 91.7 252.5, 91.7C326.2, 92.2 385.5, 143.1 386.2, 230.9zM374.9, 329L374.9, 329.2C364.1, 348.2 343.9, 369.2 323.1, 362.5L322.9, 362.2C301.8, 356.3 252.1, 330.7 220.7, 305.7C204.5, 292.9 189.7, 277.8 178.3, 263.3C168, 250.4 157.6, 235.1 147.5, 216.7C126.2, 178.2 121.5, 161 121.5, 161C114.8, 140.2 135.7, 120 154.8, 109.2L155, 109.2C164.2, 104.4 173, 106 178.9, 113.1C178.9, 113.1 191.3, 127.9 196.6, 135.2C201.6, 142 208.3, 152.9 211.8, 159C217.9, 169.9 214.1, 181 208.1, 185.6L196.1, 195.2C190, 200.1 190.8, 209.2 190.8, 209.2C190.8, 209.2 208.6, 276.5 275.1, 293.5C275.1, 293.5 284.2, 294.3 289.1, 288.2L298.7, 276.2C303.3, 270.2 314.4, 266.4 325.3, 272.5C340, 280.8 358.7, 293.7 371.1, 305.4C378.1, 311.1 379.7, 319.8 374.9, 329z" fill="#727272" fill-opacity="1" class="Black" />
  </g>
</svg>