<?xml version='1.0' encoding='UTF-8'?>
<svg viewBox="-3.732 0.3578 32 32" xmlns="http://www.w3.org/2000/svg">
  <g transform="matrix(0.0639, 0, 0, 0.0639, 0, 0)">
    <path d="M384, 254.7L384, 306.8C365.6, 311 347.1, 312.9 331.9, 312.9C295, 390.3 228.9, 456.7 206.8, 469.1C192.8, 477 179.7, 477.5 164.1, 468.3C137, 452 34.2, 367.7 0, 102.7L74.5, 102.7C93.2, 261.8 139, 343.4 189.3, 404.5C217.2, 376.6 244.1, 339.4 264.9, 297.6C215.1, 272.3 184.8, 216.7 184.8, 152C184.8, 86.4 222.5, 36.9 287, 36.9C401.9, 36.9 393.2, 164.8 368.6, 218.4C368.6, 218.4 322.2, 227.6 305.1, 197.9C308.5, 186.6 313.3, 167.1 313.3, 149.4C313.3, 118.1 302, 102.8 284.9, 102.8C266.7, 102.8 254.1, 119.9 254.1, 152.8C254.2, 232 313.5, 271.5 384, 254.7z" fill="#727272" fill-opacity="1" class="Black" />
  </g>
</svg>