<?xml version='1.0' encoding='UTF-8'?>
<svg viewBox="-2 -4.1 32 32" xmlns="http://www.w3.org/2000/svg">
  <g transform="matrix(0.0438, 0, 0, 0.0438, 0, 0)">
    <path d="M104.9, 352C70.8, 352 58.5, 321.6 58.5, 321.6L2.6, 210.1C2.6, 210.1 -7.8, 192 13, 192L45.8, 192C56.2, 192 59, 200.7 64.6, 210.1L101.3, 284.6C101.3, 284.6 106.5, 297.7 122.4, 297.7C138.3, 297.7 143.5, 284.6 143.5, 284.6L180.2, 210.1C185.8, 200.6 188.6, 192 199, 192L231.8, 192C252.6, 192 242.2, 210.1 242.2, 210.1L186.4, 321.6C186.4, 321.6 174.2, 352 140, 352L104.9, 352zM499.9, 352C465.8, 352 453.5, 321.6 453.5, 321.6L397.6, 210.1C397.6, 210.1 387.2, 192 408, 192L440.8, 192C451.2, 192 454, 200.7 459.6, 210.1L496.3, 284.6C496.3, 284.6 501.5, 297.7 517.4, 297.7C533.3, 297.7 538.5, 284.6 538.5, 284.6L575.3, 210.1C580.9, 200.6 583.7, 192 594.1, 192L627, 192C647.8, 192 637.4, 210.1 637.4, 210.1L581.5, 321.6C581.5, 321.6 569.3, 352 535.1, 352L499.9, 352zM337.6, 192C371.7, 192 384, 222.4 384, 222.4L439.9, 333.9C439.9, 333.9 450.3, 352 429.5, 352L396.7, 352C386.3, 352 383.5, 343.3 377.9, 333.9L341.2, 259.4C341.2, 259.4 336, 246.3 320.1, 246.3C304.2, 246.3 299, 259.4 299, 259.4L262.3, 333.9C256.7, 343.3 253.9, 352 243.5, 352L210.6, 352C189.8, 352 200.2, 333.9 200.2, 333.9L256.1, 222.4C256.1, 222.4 268.3, 192 302.5, 192L337.6, 192z" fill="#727272" fill-opacity="1" class="Black" />
  </g>
</svg>