<?xml version='1.0' encoding='UTF-8'?>
<svg viewBox="-1.6009 -1.5993 32 32" xmlns="http://www.w3.org/2000/svg">
  <g transform="matrix(0.0563, 0, 0, 0.0563, 0, 0)">
    <path d="M502.17, 201.67C516.69, 287.53 471.23, 369.59 389, 409.8C402, 443.9 376.6, 480 340.68, 480A51.68 51.68 0 0 1 289.11, 431C282.67, 431.19 224.91, 431 212.78, 430.36A51.69 51.69 0 0 1 159, 479.92C125.14, 478.56 101.05, 445.08 112, 412C74.79, 398.89 39.46, 377.13 12.38, 341.2C-0.62, 323.92 11.9, 299.4 33.22, 299.4C79.53, 299.4 65.44, 245.23 76.37, 189.14C94.8, 95.2 193.12, 32 288.09, 32C390.57, 32 485.24, 102.67 502.17, 201.67zM373.51, 388.28C415.51, 369.1 454.84, 331.57 469.8, 286.14C510.28, 163.05 405.65, 58.14 288.09, 58.14C204.64, 58.14 117.77, 113.56 102.02, 194.14C92.49, 243.05 107.02, 325.49 33.27, 325.49C58.21, 358.6 91.6, 378.11 127, 389.54C151.66, 367.74 190.87, 374.07 206.83, 403.88C221.05, 404.88 286.02, 405.06 294.73, 404.7A51.69 51.69 0 0 1 373.51, 388.28zM205.12, 187.13C205.12, 152.39 255.96, 152.38 255.96, 187.13C255.96, 221.88 205.12, 221.87 205.12, 187.13zM321.69, 187.13C321.69, 152.39 372.55, 152.38 372.55, 187.13C372.55, 221.88 321.69, 221.88 321.69, 187.13zM199.08, 257.82C195.64, 240.88 221.26, 235.64 224.7, 252.61L224.76, 252.89C228.9, 274.31 254.61, 296.89 288.88, 295.96C324.56, 295.02 348.13, 273.75 352.99, 253.19C357.45, 237.14 381.59, 242.83 378.46, 259.19C373.23, 281.37 347.25, 321.19 287, 322.09C244.45, 322.09 206.12, 294.25 199.1, 257.84z" fill="#727272" fill-opacity="1" class="Black" />
  </g>
</svg>