<?xml version='1.0' encoding='UTF-8'?>
<svg viewBox="-2 -2.0003 32 32" xmlns="http://www.w3.org/2000/svg">
  <g transform="matrix(0.0547, 0, 0, 0.0547, 0, 0)">
    <path d="M425.09, 65.83C385.21, 65.83 351.81, 91.56 341.43, 130.16C323.27, 72.1 275.93, 65.83 256.48, 65.83C236.7, 65.83 189.68, 72.11 171.2, 130.16C160.82, 91.56 127.75, 65.83 87.54, 65.83C38.59, 65.83 0, 99.72 0, 143.03C0, 171.99 4.18, 176.3 77.17, 376.51C99.54, 437.08 144.94, 445.86 169.91, 445.86C209.14, 445.86 239.95, 426.4 255.84, 391.88C271.73, 426.71 302.53, 446.17 341.77, 446.17C366.74, 446.17 412.13, 437.07 434.51, 376.5C511.06, 167.85 512.01, 170.92 512.01, 149.3C512.64, 100.98 476, 65.83 425.09, 65.83zM451.43, 180.64L385.86, 357.08C377.94, 378.57 364.64, 394.3 339.62, 394.3C316.18, 394.3 302.24, 381.89 295.59, 360.4L256.31, 242.98L255.36, 242.98L216.08, 360.4C209.12, 381.9 195.18, 394 172.06, 394C147.04, 394 133.73, 378.26 125.82, 356.78L60.88, 181.55C55.5, 166.72 52.96, 157.64 52.96, 147.05C52.96, 130.71 68.8, 117.69 91.29, 117.69C109.98, 117.69 123.28, 129.49 127.4, 146.74L171.43, 286.56L172.38, 286.56L217.04, 149.77C223.06, 130.1 233.51, 117.69 256, 117.69C278.49, 117.69 288.94, 129.8 294.96, 149.77L339.62, 286.56L340.57, 286.56L384.6, 146.74C388.72, 129.49 402.02, 117.69 420.71, 117.69C442.88, 117.69 459.04, 131.01 459.04, 153.4C458.72, 161.27 454.92, 169.44 451.43, 180.64z" fill="#727272" fill-opacity="1" class="Black" />
  </g>
</svg>