<?xml version='1.0' encoding='UTF-8'?>
<svg viewBox="-2 -4.8 32 32" xmlns="http://www.w3.org/2000/svg">
  <g transform="matrix(0.0438, 0, 0, 0.0438, 0, 0)">
    <path d="M393.38, 131.69C393.38, 144.72 395.46, 164.38 364.7, 175.52C355.18, 178.97 348.75, 185.18 348.75, 185.18C348.75, 154.18 353.47, 142.96 366.15, 136.32C375.9, 131.21 393.38, 131.69 393.38, 131.69zM277.58, 167.23L243.34, 299.89L214.86, 191.32C207.17, 159.33 194.05, 142.79 166.43, 142.79C139.06, 142.79 125.77, 158.97 118, 191.32L89.52, 299.89L55.28, 167.23C49.73, 140.51 23.86, 128.96 0, 131.96L65.57, 379.89C65.57, 379.89 87.2, 381.45 98.03, 375.93C112.25, 368.68 119.01, 363.09 127.62, 329.36C135.29, 299.29 156.73, 210.95 158.74, 204.66C163.5, 189.72 169.83, 190.85 174.14, 204.66C176.11, 210.96 197.59, 299.29 205.26, 329.36C213.86, 363.09 220.63, 368.68 234.85, 375.93C245.67, 381.45 267.31, 379.89 267.31, 379.89L332.88, 131.96C308.46, 128.89 283.06, 140.89 277.58, 167.23zM393.36, 172.44C393.36, 172.44 389.26, 178.78 379.9, 184.01C373.89, 187.37 368.12, 189.65 361.93, 192.62C346.79, 199.88 348.75, 206.57 348.75, 227.82L348.75, 379.89C348.75, 379.89 365.3, 381.98 376.12, 376.46C390.05, 369.36 393.25, 362.51 393.38, 331.68L393.38, 181.41L393.36, 181.42L393.36, 172.44zM556.8, 256.52L640, 132.78C640, 132.78 604.89, 126.8 587.5, 142.63C574.2, 154.73 563.09, 172.18 533.32, 215.1C532.85, 215.83 527.07, 225.64 520.25, 215.1C490.96, 172.87 479.45, 154.81 466.07, 142.63C448.68, 126.8 413.57, 132.78 413.57, 132.78L496.77, 256.52L413.8, 379.88C413.8, 379.88 450.37, 384.5 467.75, 368.67C479.24, 358.21 485.33, 348.3 520.26, 297.95C527.07, 287.43 532.83, 297.18 533.33, 297.95C562.73, 340.33 572.56, 356.01 586.47, 368.67C603.86, 384.5 639.79, 379.88 639.79, 379.88L556.8, 256.52z" fill="#727272" fill-opacity="1" class="Black" />
  </g>
</svg>