<?xml version='1.0' encoding='UTF-8'?>
<svg viewBox="-0.6071 -0.6072 32 32" xmlns="http://www.w3.org/2000/svg">
  <g transform="matrix(0.0601, 0, 0, 0.0601, 0, 0)">
    <path d="M462.799, 322.374C519.01, 386.682 466.961, 480 370.944, 480C331.342, 480 292.12, 462.313 270.802, 429.96C263.915, 430.316 248.1, 430.316 241.212, 429.96C219.848, 462.381 180.588, 480 141.069, 480C45.579, 480 -7.279, 387.004 49.214, 322.374C-29.925, 190.523 80.479, 32 256.006, 32C431.638, 32 541.876, 190.626 462.799, 322.374zM123.152, 239.402L164.681, 239.402L164.681, 181.327L123.152, 181.327L123.152, 239.402zM340.332, 325.474L340.332, 301.635C279.826, 322.55 207.977, 310.833 152.743, 267.664L152.989, 292.561C204.09, 338.928 284.735, 350.436 340.332, 325.474zM189.579, 239.402L355.637, 239.402L355.637, 181.327L189.579, 181.327L189.579, 239.402z" fill="#727272" fill-opacity="1" class="Black" />
  </g>
</svg>