<?xml version='1.0' encoding='UTF-8'?>
<svg viewBox="-2 -2 32 32" xmlns="http://www.w3.org/2000/svg">
  <g transform="matrix(0.0547, 0, 0, 0.0547, 0, 0)">
    <path d="M512, 256C512, 397.2 397.3, 512 256, 512C114.8, 512 0, 397.3 0, 256C0, 114.7 114.7, 0 256, 0C397.3, 0 512, 114.7 512, 256zM480, 256C480, 132.8 379.7, 32 256, 32C132.5, 32 32, 132.5 32, 256C32, 379.5 132.5, 480 256, 480C379.5, 480 480, 379.5 480, 256zM160.9, 124.6L247.8, 161.7L210.7, 248.6L123.8, 211.5L160.9, 124.6zM270.9, 293.7L317.5, 387.7L302.9, 387.7L252.9, 287.7L204, 387.7L190, 387.7L241.1, 280.8L218.8, 271.4L224.8, 257.4L293.4, 286.5L287.4, 300.8L270.9, 293.7zM259.1, 177.4L327.7, 206.8L298.3, 275.1L230, 246L259.1, 177.4zM339.4, 220.3L394, 243.4L370.6, 297.7L316.3, 274.6L339.4, 220.3z" fill="#727272" fill-opacity="1" class="Black" />
  </g>
</svg>