<?xml version='1.0' encoding='UTF-8'?>
<svg viewBox="-2.0031 -0.0004 32 32" xmlns="http://www.w3.org/2000/svg">
  <g transform="matrix(0.0625, 0, 0, 0.0625, 0, 0)">
    <path d="M448, 75.2L448, 436.9C448, 461.2 429, 480.1 404.8, 480.1L43.2, 480.1C19.3, 480 0, 461.4 0, 436.8L0, 75.2C0, 51.1 18.8, 32 43.2, 32L404.9, 32C428.9, 32 448, 50.8 448, 75.2zM410.7, 436.8L410.7, 75.2C410.7, 72.2 408.1, 69.4 404.9, 69.4L395.6, 69.4L285.3, 144L224, 94.1L162.8, 144L52.5, 69.3L43.2, 69.3C40, 69.3 37.4, 72.1 37.4, 75.1L37.4, 436.8C37.4, 439.8 40, 442.6 43.2, 442.6L404.9, 442.6C408.1, 442.7 410.7, 439.9 410.7, 436.8zM150.2, 186L150.2, 223L76.7, 223L76.7, 186L150.2, 186zM150.2, 260.4L150.2, 297.7L76.7, 297.7L76.7, 260.4L150.2, 260.4zM161.3, 113.1L215.3, 69.4L96.8, 69.4L161.3, 113.1zM371.3, 186L371.3, 223L175.3, 223L175.3, 186L371.3, 186zM371.3, 260.4L371.3, 297.7L175.3, 297.7L175.3, 260.4L371.3, 260.4zM286.7, 113.1L351.2, 69.4L232.8, 69.4L286.7, 113.1zM371.3, 335L371.3, 372.3L271.9, 372.3L271.9, 335L371.3, 335z" fill="#727272" fill-opacity="1" class="Black" />
  </g>
</svg>