<?xml version='1.0' encoding='UTF-8'?>
<svg viewBox="-0.1611 -0.1694 32 32" xmlns="http://www.w3.org/2000/svg">
  <g transform="matrix(0.0618, 0, 0, 0.0618, 0, 0)">
    <path d="M421.78, 152.17A23.06 23.06 0 0 0 400.9, 112C400.07, 112.43 399.19, 112.9 398.27, 113.4C383.02, 121.8 279.94, 194.02 291.58, 202.17C303.22, 210.32 373.62, 178.56 421.78, 152.17zM421.78, 369.34C373.62, 342.96 303.14, 311.24 291.58, 319.34C280.02, 327.44 383, 399.69 398.27, 408.08C399.19, 408.59 400.07, 409.08 400.9, 409.49A23.07 23.07 0 0 0 421.78, 369.34zM464.21, 237C463.26, 237 462.26, 236.94 461.21, 236.94C443.81, 236.94 318.69, 250.7 324.97, 263.45C331.25, 276.2 408.27, 282.19 463.18, 282.21A23 23 0 0 0 464.18, 237zM31, 96.65A24.88 24.88 0 0 1 77.14, 78.25L158.14, 283.31L159.35, 283.31L236.35, 79.78A23.52 23.52 0 0 1 280.8, 95.05L171.2, 368.44C152.65, 415.66 134.08, 448 77.91, 448A139.67 139.67 0 0 1 54.1, 446.05A21.31 21.31 0 0 1 61, 404.28C61.66, 404.34 71.91, 404.94 74.86, 404.94C105.33, 404.94 118.6, 386 132.93, 345.53z" fill="#727272" fill-opacity="1" class="Black" />
  </g>
</svg>