<?xml version='1.0' encoding='UTF-8'?>
<svg viewBox="-5.5133 -1.9996 32 32" xmlns="http://www.w3.org/2000/svg">
  <g transform="matrix(0.0547, 0, 0, 0.0547, 0, 0)">
    <path d="M42.9, 240.32L142.52, 288.93C161.72, 298.33 158.72, 326.44 138.02, 331.64L30.5, 358.45A22.79 22.79 0 0 1 2.29, 338.85A197.16 197.16 0 0 1 11.29, 253.53A22.8 22.8 0 0 1 42.9, 240.32zM86.9, 479.57A199.45 199.45 0 0 0 166.32, 511.68A22.78 22.78 0 0 0 192.94, 490L196.84, 379.18C197.54, 357.88 171.34, 347.27 157.03, 363.08L82.82, 445.48A22.82 22.82 0 0 0 86.91, 479.57zM232.24, 369.65L291.05, 463.65A22.93 22.93 0 0 0 325.05, 469.15A198.36 198.36 0 0 0 377.76, 401.54A23 23 0 0 0 364.17, 370L258.75, 335.74C238.44, 329.24 220.94, 351.54 232.24, 369.65zM380.57, 237.42A197.44 197.44 0 0 0 330.16, 168.11A22.85 22.85 0 0 0 296.16, 172.51L234.16, 264.43C222.26, 282.13 238.86, 305.04 259.36, 299.14L366, 268.63A23 23 0 0 0 380.61, 237.42zM62.11, 30.18A22.86 22.86 0 0 0 52.21, 62.18L156.33, 242.62C168.03, 262.82 198.94, 254.52 198.94, 231.22L198.94, 22.88A22.67 22.67 0 0 0 174.44, 0.08A320.37 320.37 0 0 0 62.11, 30.18z" fill="#727272" fill-opacity="1" class="Black" />
  </g>
</svg>