<?xml version='1.0' encoding='UTF-8'?>
<svg viewBox="-2.7119 -0.8136 32 32" xmlns="http://www.w3.org/2000/svg">
  <g transform="matrix(0.0593, 0, 0, 0.0593, 0, 0)">
    <path d="M91.3, 76L277.3, 76L270.3, 94.9L91.3, 94.9C51.6, 94.9 19.4, 126.5 19.4, 165.2L19.4, 370.6C19.4, 406 44.3, 440.9 103.4, 440.9L103.4, 460L91.3, 460C41.2, 460 0, 419.8 0, 370.5L0, 165.2C0, 115.9 40.7, 76 91.3, 76zM320.4, 20L386.9, 20C243.1, 398.1 241.2, 418.9 202.2, 459.3C181.4, 480.9 152.9, 491 123.9, 492L123.9, 440.9C173.1, 433.2 188.5, 391 188.5, 365.6C188.5, 345.5 189.1, 353 106.4, 142.4L167.8, 142.4L218.2, 299L320.4, 20zM448, 161.5L448, 460L234, 460C240.6, 450.4 244.7, 443.7 246.1, 440.6L428.6, 440.6L428.6, 161.5C428.6, 129 411.5, 109.6 380.4, 98.6L387.1, 81C428.8, 94.6 448, 124.1 448, 161.5z" fill="#727272" fill-opacity="1" class="Black" />
  </g>
</svg>