<?xml version='1.0' encoding='UTF-8'?>
<svg viewBox="-2 0 32 32" xmlns="http://www.w3.org/2000/svg">
  <g transform="matrix(0.0625, 0, 0, 0.0625, 0, 0)">
    <path d="M186.8, 202.1L282, 256.2L186.8, 310.3L186.8, 202.1zM448, 80L448, 432C448, 458.5 426.5, 480 400, 480L48, 480C21.5, 480 0, 458.5 0, 432L0, 80C0, 53.5 21.5, 32 48, 32L400, 32C426.5, 32 448, 53.5 448, 80zM406, 256.3C406, 256.3 406, 196.7 398.4, 168.1C394.2, 152.3 381.9, 139.9 366.2, 135.7C337.9, 128 224, 128 224, 128C224, 128 110.1, 128 81.8, 135.7C66.1, 139.9 53.8, 152.3 49.6, 168.1C42, 196.6 42, 256.3 42, 256.3C42, 256.3 42, 315.9 49.6, 344.5C53.8, 360.3 66.1, 372.2 81.8, 376.4C110.1, 384 224, 384 224, 384C224, 384 337.9, 384 366.2, 376.3C381.9, 372.1 394.2, 360.2 398.4, 344.4C406, 315.9 406, 256.3 406, 256.3z" fill="#727272" fill-opacity="1" class="Black" />
  </g>
</svg>