<?xml version='1.0' encoding='UTF-8'?>
<svg viewBox="-1.9999 -3.5552 32 32" xmlns="http://www.w3.org/2000/svg">
  <g transform="matrix(0.0486, 0, 0, 0.0486, 0, 0)">
    <path d="M32, 0C14.33, 0 0, 14.33 0, 32L0, 496C0, 504.84 7.16, 512 16, 512L48, 512C56.84, 512 64, 504.84 64, 496L64, 32C64, 14.33 49.67, 0 32, 0zM544, 0C526.33, 0 512, 14.33 512, 32L512, 496C512, 504.84 519.16, 512 528, 512L560, 512C568.84, 512 576, 504.84 576, 496L576, 32C576, 14.33 561.67, 0 544, 0zM464, 32L432, 32C423.16, 32 416, 39.16 416, 48L416, 72L256, 72L256, 48C256, 39.16 248.84, 32 240, 32L208, 32C199.16, 32 192, 39.16 192, 48L192, 72L160, 72L160, 48C160, 39.16 152.84, 32 144, 32L112, 32C103.16, 32 96, 39.16 96, 48L96, 144C96, 152.84 103.16, 160 112, 160L144, 160C152.84, 160 160, 152.84 160, 144L160, 120L192, 120L192, 144C192, 152.84 199.16, 160 208, 160L240, 160C248.84, 160 256, 152.84 256, 144L256, 120L416, 120L416, 144C416, 152.84 423.16, 160 432, 160L464, 160C472.84, 160 480, 152.84 480, 144L480, 48C480, 39.16 472.84, 32 464, 32zM352, 208C352, 199.16 344.84, 192 336, 192L304, 192C295.16, 192 288, 199.16 288, 208L288, 232L256, 232L256, 208C256, 199.16 248.84, 192 240, 192L208, 192C199.16, 192 192, 199.16 192, 208L192, 232L160, 232L160, 208C160, 199.16 152.84, 192 144, 192L112, 192C103.16, 192 96, 199.16 96, 208L96, 304C96, 312.84 103.16, 320 112, 320L144, 320C152.84, 320 160, 312.84 160, 304L160, 280L192, 280L192, 304C192, 312.84 199.16, 320 208, 320L240, 320C248.84, 320 256, 312.84 256, 304L256, 280L288, 280L288, 304C288, 312.84 295.16, 320 304, 320L336, 320C344.84, 320 352, 312.84 352, 304L352, 280L480, 280L480, 232L352, 232L352, 208zM464, 352L432, 352C423.16, 352 416, 359.16 416, 368L416, 392L256, 392L256, 368C256, 359.16 248.84, 352 240, 352L208, 352C199.16, 352 192, 359.16 192, 368L192, 392L160, 392L160, 368C160, 359.16 152.84, 352 144, 352L112, 352C103.16, 352 96, 359.16 96, 368L96, 464C96, 472.84 103.16, 480 112, 480L144, 480C152.84, 480 160, 472.84 160, 464L160, 440L192, 440L192, 464C192, 472.84 199.16, 480 208, 480L240, 480C248.84, 480 256, 472.84 256, 464L256, 440L416, 440L416, 464C416, 472.84 423.16, 480 432, 480L464, 480C472.84, 480 480, 472.84 480, 464L480, 368C480, 359.16 472.84, 352 464, 352z" fill="#727272" fill-opacity="1" class="Black" />
  </g>
</svg>