<?xml version='1.0' encoding='UTF-8'?>
<svg viewBox="-3.7474 -1.995 32 32" xmlns="http://www.w3.org/2000/svg">
  <g transform="matrix(0.0547, 0, 0, 0.0547, 0, 0)">
    <path d="M175.11, 487.55L224, 512L272.89, 487.55C360.6, 443.7 416, 354.06 416, 256L32, 256C32, 354.06 87.4, 443.7 175.11, 487.55zM352, 64L251.5, 64C254.9, 54.6 259.97, 45.82 266.66, 37.96C272.22, 31.44 271.97, 22.05 266.04, 16.1L254.69, 4.78C251.57, 1.62 246.97, -0.36 242.72, 0.06C238.34, 0.2 234.22, 2.14 231.41, 5.36C216.66, 22.16 206.86, 42.42 202.02, 64.01L96, 64.01C42.98, 64.01 0, 106.99 0, 160.01L0, 192.01C0, 209.68 14.33, 224.01 32, 224.01L416, 224.01C433.67, 224.01 448, 209.68 448, 192.01L448, 160.01C448, 106.98 405.02, 64 352, 64z" fill="#727272" fill-opacity="1" class="Black" />
  </g>
</svg>