<?xml version='1.0' encoding='UTF-8'?>
<svg viewBox="-3.7495 -2 32 32" xmlns="http://www.w3.org/2000/svg">
  <g transform="matrix(0.0547, 0, 0, 0.0547, 0, 0)">
    <path d="M436, 160C442.6, 160 448, 154.6 448, 148L448, 108C448, 101.4 442.6, 96 436, 96L416, 96L416, 48C416, 21.5 394.5, 0 368, 0L48, 0C21.5, 0 0, 21.5 0, 48L0, 464C0, 490.5 21.5, 512 48, 512L368, 512C394.5, 512 416, 490.5 416, 464L416, 416L436, 416C442.6, 416 448, 410.6 448, 404L448, 364C448, 357.4 442.6, 352 436, 352L416, 352L416, 288L436, 288C442.6, 288 448, 282.6 448, 276L448, 236C448, 229.4 442.6, 224 436, 224L416, 224L416, 160L436, 160zM208, 128C243.3, 128 272, 156.7 272, 192C272, 227.3 243.3, 256 208, 256C172.7, 256 144, 227.3 144, 192C144, 156.7 172.7, 128 208, 128zM320, 364.8C320, 375.4 310, 384 297.6, 384L118.4, 384C106, 384 96, 375.4 96, 364.8L96, 345.6C96, 313.8 126.1, 288 163.2, 288L168.2, 288C180.5, 293.1 193.9, 296 208, 296C222.1, 296 235.6, 293.1 247.8, 288L252.8, 288C289.9, 288 320, 313.8 320, 345.6L320, 364.8z" fill="#727272" fill-opacity="1" class="Black" />
  </g>
</svg>