<?xml version='1.0' encoding='UTF-8'?>
<svg viewBox="-2.0023 -1.9998 32 31.9975" xmlns="http://www.w3.org/2000/svg">
  <g transform="matrix(0.0547, 0, 0, 0.0547, 0, 0)">
    <path d="M96, 0A96 96 0 0 0 0, 96A94.81 94.81 0 0 0 15.3, 147.26L161.2, 25.68A95.63 95.63 0 0 0 96, 0zM416, 0A95.66 95.66 0 0 0 350.82, 25.66L496.71, 147.23A94.85 94.85 0 0 0 512, 96A96 96 0 0 0 416, 0zM256, 64C132.3, 64 32, 164.29 32, 288A222.7 222.7 0 0 0 76.79, 422L36.69, 462.09A16 16 0 0 0 36.69, 484.72L59.31, 507.34A16 16 0 0 0 81.94, 507.34L122, 467.22A222.82 222.82 0 0 0 390, 467.22L430.1, 507.31A16 16 0 0 0 452.72, 507.31L475.35, 484.69A16 16 0 0 0 475.35, 462.06L435.25, 422A222.69 222.69 0 0 0 480, 288C480, 164.29 379.74, 64 256, 64zM256, 416A32 32 0 1 1 288, 384A32 32 0 0 1 256, 416zM281.4, 305.6A16 16 0 0 1 265.5, 320L246.5, 320A16 16 0 0 1 230.6, 305.6L217.8, 177.6A16.06 16.06 0 0 1 233.7, 160L278.3, 160A16 16 0 0 1 294.2, 177.6z" fill="#727272" fill-opacity="1" class="Black" />
  </g>
</svg>