<?xml version='1.0' encoding='UTF-8'?>
<svg viewBox="-1.9998 -2.0011 31.9975 32" xmlns="http://www.w3.org/2000/svg">
  <g transform="matrix(0.0547, 0, 0, 0.0547, 0, 0)">
    <path d="M496, 104A24 24 0 0 0 472, 80L40, 80A24 24 0 0 0 16, 104L16, 128L496, 128zM480, 24A24 24 0 0 0 456, 0L56, 0A24 24 0 0 0 32, 24L32, 48L480, 48zM256, 325.65C239.37, 325.65 226, 335.58 226.14, 347.74C226.28, 359.9 239.64, 369.46 256, 369.46C272.36, 369.46 285.73, 359.78 285.87, 347.74C286.01, 335.7 272.64, 325.65 256, 325.65zM480, 160L32, 160A32 32 0 0 0 0.13, 194.9L26.32, 482.9A32 32 0 0 0 58.18, 512L453.82, 512A32 32 0 0 0 485.68, 482.9L511.87, 194.9A32 32 0 0 0 480, 160zM256, 472.89C161.74, 472.89 81.61, 418.36 76.79, 347.74C71.71, 273.1 151.82, 209.4 256, 209.4C360.18, 209.4 440.29, 273.1 435.21, 347.74C430.39, 418.37 350.26, 472.89 256, 472.89z" fill="#727272" fill-opacity="1" class="Black" />
  </g>
</svg>