<?xml version='1.0' encoding='UTF-8'?>
<svg viewBox="-1.9952 -4.7952 32 32" xmlns="http://www.w3.org/2000/svg">
  <g transform="matrix(0.9991, 0, 0, 0.9991, 0, 0)">
    <g transform="matrix(0.0438, 0, 0, 0.0438, 0, 0)">
      <path d="M633.82, 458.1L496.54, 352L528, 352A16 16 0 0 0 544, 336L544, 304A16 16 0 0 0 528, 288L413.73, 288L330.92, 224L528, 224A16 16 0 0 0 544, 208L544, 176A16 16 0 0 0 528, 160L248.12, 160L165.31, 96L528, 96A16 16 0 0 0 544, 80L544, 48A16 16 0 0 0 528, 32L112, 32A15.82 15.82 0 0 0 97, 43.18L45.46, 3.38A16 16 0 0 0 23, 6.19L3.37, 31.46A16 16 0 0 0 6.18, 53.91L594.54, 508.63A16 16 0 0 0 617, 505.82L636.64, 480.55A16 16 0 0 0 633.82, 458.1zM112, 416A16 16 0 0 0 96, 432L96, 464A16 16 0 0 0 112, 480L452.83, 480L370, 416zM112, 352L287.21, 352L204.41, 288L112, 288A16 16 0 0 0 96, 304L96, 336A16 16 0 0 0 112, 352z" fill="#727272" fill-opacity="1" class="Black" />
    </g>
  </g>
</svg>