<?xml version='1.0' encoding='UTF-8'?>
<svg viewBox="-3.7492 -2 32 32" xmlns="http://www.w3.org/2000/svg">
  <g transform="matrix(0.0547, 0, 0, 0.0547, 0, 0)">
    <path d="M416, 112C398.4, 112 384, 126.4 384, 144L384, 216C384, 220.4 380.4, 224 376, 224L360, 224C355.6, 224 352, 220.4 352, 216L352, 64C352, 46.4 337.6, 32 320, 32C302.4, 32 288, 46.4 288, 64L288, 216C288, 220.4 284.4, 224 280, 224L264, 224C259.6, 224 256, 220.4 256, 216L256, 32C256, 14.4 241.6, 0 224, 0C206.4, 0 192, 14.4 192, 32L192, 216C192, 220.4 188.4, 224 184, 224L168, 224C163.6, 224 160, 220.4 160, 216L160, 64C160, 46.4 145.6, 32 128, 32C110.4, 32 96, 46.4 96, 64L96, 305L72.4, 272.5C59.4, 254.6 34.4, 250.7 16.5, 263.7C-1.4, 276.7 -5.3, 301.7 7.7, 319.6L133.3, 492.3C142.3, 504.7 156.8, 512.1 172.1, 512.1L369.7, 512.1C392, 512.1 411.3, 496.8 416.4, 475.1L442.9, 362.4C446.1, 348.7 447.8, 334.1 448, 320.1L448, 144C448, 126.4 433.6, 112 416, 112zM176, 416C167.2, 416 160, 408.8 160, 400C160, 391.2 167.2, 384 176, 384C184.8, 384 192, 391.2 192, 400C192, 408.8 184.8, 416 176, 416zM176, 320C167.2, 320 160, 312.8 160, 304C160, 295.2 167.2, 288 176, 288C184.8, 288 192, 295.2 192, 304C192, 312.8 184.8, 320 176, 320zM240, 448C231.2, 448 224, 440.8 224, 432C224, 423.2 231.2, 416 240, 416C248.8, 416 256, 423.2 256, 432C256, 440.8 248.8, 448 240, 448zM240, 352C231.2, 352 224, 344.8 224, 336C224, 327.2 231.2, 320 240, 320C248.8, 320 256, 327.2 256, 336C256, 344.8 248.8, 352 240, 352zM304, 384C295.2, 384 288, 376.8 288, 368C288, 359.2 295.2, 352 304, 352C312.8, 352 320, 359.2 320, 368C320, 376.8 312.8, 384 304, 384zM336, 448C327.2, 448 320, 440.8 320, 432C320, 423.2 327.2, 416 336, 416C344.8, 416 352, 423.2 352, 432C352, 440.8 344.8, 448 336, 448zM368, 320C359.2, 320 352, 312.8 352, 304C352, 295.2 359.2, 288 368, 288C376.8, 288 384, 295.2 384, 304C384, 312.8 376.8, 320 368, 320z" fill="#727272" fill-opacity="1" class="Black" />
  </g>
</svg>