<?xml version='1.0' encoding='UTF-8'?>
<svg viewBox="-2 -4.7992 32 32" xmlns="http://www.w3.org/2000/svg">
  <g transform="matrix(0.9988, 0, 0, 0.9988, 0, 0)">
    <g transform="matrix(0.0438, 0, 0, 0.0438, 0, 0)">
      <path d="M624, 352L608, 352L608, 243.9C608, 231.2 602.9, 219 593.9, 210L494, 110.1C485, 101.1 472.8, 96 460.1, 96L416, 96L416, 48C416, 21.5 394.5, 0 368, 0L48, 0C21.5, 0 0, 21.5 0, 48L0, 368C0, 394.5 21.5, 416 48, 416L64, 416C64, 469 107, 512 160, 512C213, 512 256, 469 256, 416L384, 416C384, 469 427, 512 480, 512C533, 512 576, 469 576, 416L624, 416C632.8, 416 640, 408.8 640, 400L640, 368C640, 359.2 632.8, 352 624, 352zM160, 464C133.5, 464 112, 442.5 112, 416C112, 389.5 133.5, 368 160, 368C186.5, 368 208, 389.5 208, 416C208, 442.5 186.5, 464 160, 464zM304, 216C304, 220.4 300.4, 224 296, 224L240, 224L240, 280C240, 284.4 236.4, 288 232, 288L184, 288C179.6, 288 176, 284.4 176, 280L176, 224L120, 224C115.6, 224 112, 220.4 112, 216L112, 168C112, 163.6 115.6, 160 120, 160L176, 160L176, 104C176, 99.6 179.6, 96 184, 96L232, 96C236.4, 96 240, 99.6 240, 104L240, 160L296, 160C300.4, 160 304, 163.6 304, 168L304, 216zM480, 464C453.5, 464 432, 442.5 432, 416C432, 389.5 453.5, 368 480, 368C506.5, 368 528, 389.5 528, 416C528, 442.5 506.5, 464 480, 464zM560, 256L416, 256L416, 144L460.1, 144L560, 243.9L560, 256z" fill="#727272" fill-opacity="1" class="Black" />
    </g>
  </g>
</svg>