<?xml version='1.0' encoding='UTF-8'?>
<svg viewBox="-1.95 -3.5094 32 32" xmlns="http://www.w3.org/2000/svg">
  <g transform="matrix(0.0488, 0, 0, 0.0488, 0, 0)">
    <path d="M12.971, 352L45.365, 352C67.172, 454.735 181.944, 512 288, 512C394.229, 512 508.853, 454.62 530.635, 352L563.029, 352C573.72, 352 579.074, 339.074 571.514, 331.515L504.485, 264.486C499.799, 259.8 492.201, 259.8 487.514, 264.486L420.485, 331.515C412.925, 339.075 418.279, 352 428.97, 352L464.116, 352C443.826, 406.317 379.153, 438.588 319.999, 446.015L319.999, 256L371.999, 256C378.626, 256 383.999, 250.627 383.999, 244L383.999, 204C383.999, 197.373 378.626, 192 371.999, 192L319.999, 192L319.999, 186.53C357.28, 173.352 383.994, 137.805 383.999, 96.012C384.005, 43.772 341.605, 0.738 289.37, 0.01C235.723, -0.739 192, 42.525 192, 96C192, 137.798 218.716, 173.35 256, 186.53L256, 192L204, 192C197.373, 192 192, 197.373 192, 204L192, 244C192, 250.627 197.373, 256 204, 256L256, 256L256, 446.015C197.064, 438.616 132.18, 406.336 111.883, 352L147.029, 352C157.72, 352 163.074, 339.074 155.514, 331.515L88.485, 264.486C83.799, 259.8 76.201, 259.8 71.514, 264.486L4.485, 331.515C-3.074, 339.074 2.28, 352 12.971, 352zM288, 64C305.645, 64 320, 78.355 320, 96C320, 113.645 305.645, 128 288, 128C270.355, 128 256, 113.645 256, 96C256, 78.355 270.355, 64 288, 64z" fill="#727272" fill-opacity="1" class="Black" />
  </g>
</svg>