<?xml version='1.0' encoding='UTF-8'?>
<svg viewBox="-1.9974 -3.554 31.9975 32" xmlns="http://www.w3.org/2000/svg">
  <g transform="matrix(0.0486, 0, 0, 0.0486, 0, 0)">
    <path d="M208, 144C208, 188.2 243.8, 224 288, 224C332.2, 224 368, 188.2 368, 144C368, 99.8 332.2, 64 288, 64C243.8, 64 208, 99.8 208, 144zM184.5, 101.4C188.6, 91.5 194.4, 82.5 201.1, 74.3C195.3, 70.2 192, 66.4 192, 64C192, 56 226, 32 288, 32C350, 32 384, 56 384, 64C384, 66.3 380.7, 70.1 374.9, 74.3C381.5, 82.6 387.3, 91.5 391.5, 101.4C406.7, 90.9 416, 78 416, 64C416, 28.7 358.7, 0 288, 0C217.3, 0 160, 28.7 160, 64C160, 78 169.3, 90.9 184.5, 101.4zM571.8, 453.1L533.6, 374.5C527, 361 527, 344.9 533.6, 331.4C538.4, 321.6 542.3, 314.7 545.5, 309.3C555, 292.7 560, 282.8 560, 256C560, 204.9 513.1, 160 459.6, 160C434.8, 160 410.6, 170.3 393.3, 188.1L320.6, 261.5C310.3, 258.1 299.4, 256.1 288.1, 256.1C276.8, 256.1 266, 258.1 255.6, 261.5L183, 188.2C165.5, 170.2 141.3, 160 116.5, 160C63, 160 16, 204.9 16, 256C16, 282.8 21, 292.7 30.5, 309.2C33.7, 314.7 37.6, 321.5 42.4, 331.3C49, 344.8 49, 360.9 42.4, 374.4L4.2, 453.1C-2.1, 466 -1.3, 480.9 6.3, 493C13.8, 504.9 26.5, 512 40.5, 512L535.6, 512C549.5, 512 562.3, 504.9 569.8, 493C577.3, 480.9 578.1, 465.9 571.8, 453.1zM195.4, 313.2L120, 464L52.2, 464L85.6, 395.4C98.6, 368.8 98.6, 336.9 85.6, 310.3C80.2, 299.1 75.7, 291.4 72.1, 285.2C64.9, 272.8 64, 271.2 64, 256C64, 231.3 89.5, 208 116.4, 208C128.5, 208 139.9, 212.9 148.6, 221.9L213.7, 287.5C206.5, 295 200.2, 303.6 195.4, 313.2zM456, 464L380.6, 313.2C375.8, 303.6 369.5, 295 362.2, 287.5L427.5, 221.7C436.1, 212.9 447.5, 208 459.6, 208C486.6, 208 512, 231.3 512, 256C512, 271.2 511.1, 272.8 503.9, 285.2C500.3, 291.4 495.9, 299.2 490.4, 310.3C477.4, 336.9 477.4, 368.8 490.4, 395.4L523.8, 464L456, 464z" fill="#727272" fill-opacity="1" class="Black" />
  </g>
</svg>