<?xml version='1.0' encoding='UTF-8'?>
<svg viewBox="-4.7593 1.9874 31.9975 32" xmlns="http://www.w3.org/2000/svg">
  <g transform="matrix(1.0006, 0, 0, 1.0006, 0, 0)">
    <g transform="matrix(0.0702, 0, 0, 0.0702, 0, 0)">
      <path d="M143, 256.3L7, 120.3C-2.4, 110.9 -2.4, 95.7 7, 86.4L29.6, 63.8C39, 54.4 54.2, 54.4 63.5, 63.8L159.9, 160.2L256.3, 63.8C265.7, 54.4 280.9, 54.4 290.2, 63.8L313, 86.3C322.4, 95.7 322.4, 110.9 313, 120.2L177, 256.2C167.6, 265.7 152.4, 265.7 143, 256.3zM177, 448.3L313, 312.3C322.4, 302.9 322.4, 287.7 313, 278.4L290.4, 255.8C281, 246.4 265.8, 246.4 256.5, 255.8L160, 352.1L63.6, 255.7C54.2, 246.3 39, 246.3 29.7, 255.7L7, 278.3C-2.4, 287.7 -2.4, 302.9 7, 312.2L143, 448.2C152.4, 457.7 167.6, 457.7 177, 448.3z" fill="#727272" fill-opacity="1" class="Black" />
    </g>
  </g>
</svg>