<?xml version='1.0' encoding='UTF-8'?>
<svg viewBox="-3.7508 -2 32 32" xmlns="http://www.w3.org/2000/svg">
  <g transform="matrix(0.0547, 0, 0, 0.0547, 0, 0)">
    <path d="M350.85, 129C376.82, 133.67 398.12, 147.67 414.77, 171C429.42, 191.67 439.41, 217.67 444.73, 249C449.4, 277.67 449.05, 306.33 443.73, 335C435.74, 382.33 419.76, 422 395.79, 454C367.15, 492.67 331.2, 512 287.92, 512C277.26, 512 265.62, 508.67 252.96, 502C244.3, 496.67 234.65, 494 223.99, 494C213.33, 494 203.69, 496.67 195.02, 502C182.36, 508.67 170.72, 512 160.06, 512C116.78, 512 80.83, 492.67 52.19, 454C28.22, 422 12.24, 382.33 4.25, 335C-1.07, 306.33 -1.42, 277.67 3.25, 249C8.57, 217.67 18.56, 191.67 33.21, 171C49.86, 147.67 71.16, 133.67 97.13, 129C113.11, 126.33 135.08, 128.67 163.05, 136C187.02, 142.67 207.33, 150.67 223.98, 160C240.63, 150.67 260.94, 142.67 284.91, 136C312.89, 128.67 334.87, 126.33 350.85, 129zM295.91, 88C286.59, 96.67 274.26, 103 258.95, 107C248.29, 110.33 236.65, 112 223.99, 112L209.01, 111C207.68, 101.67 207.68, 91 209.01, 79C211.68, 55 219.33, 36.67 231.98, 24C241.3, 15.33 253.63, 9 268.94, 5C279.6, 1.67 291.24, 0 303.9, 0L318.88, 1L319.88, 16C319.88, 28.67 318.21, 40.33 314.89, 51C310.9, 66.33 304.58, 78.67 295.91, 88z" fill="#727272" fill-opacity="1" class="Black" />
  </g>
</svg>