<?xml version='1.0' encoding='UTF-8'?>
<svg viewBox="-2 -1.9988 32 32" xmlns="http://www.w3.org/2000/svg">
  <g transform="matrix(0.0547, 0, 0, 0.0547, 0, 0)">
    <path d="M318.2, 192L477.99, 192C483.25, 152.53 472.84, 89.35 424.17, 80.61C406.04, 77.58 372.27, 86.79 351.68, 98.3C334.67, 88.78 309.23, 81.32 290.53, 80.51C292.35, 82.72 294.36, 84.68 296.03, 87.09C316.87, 117.24 321.77, 159.39 318.2, 192zM210.53, 50.47C221.82, 38.28 224.96, 18.44 223.75, 0.25C210.87, -0.61 188.08, 0.13 173.73, 13.53C157.2, 30.13 159.96, 59.89 160.51, 63.75C178.98, 64.98 198.28, 61.9 210.53, 50.47zM402.22, 50.47C413.51, 38.28 416.65, 18.44 415.44, 0.25C402.56, -0.61 379.77, 0.13 365.42, 13.53C348.89, 30.13 351.65, 59.89 352.2, 63.75C370.67, 64.98 389.97, 61.9 402.22, 50.47zM286.3, 192C291.56, 152.53 281.15, 89.35 232.48, 80.61C214.35, 77.58 180.58, 86.79 160, 98.3C139.34, 86.74 105.57, 77.59 87.52, 80.61C38.91, 89.34 28.53, 152.88 33.7, 192L286.3, 192zM496, 224L16, 224C7.16, 224 0, 231.16 0, 240L0, 352L512, 352L512, 240C512, 231.16 504.84, 224 496, 224zM64, 304C55.16, 304 48, 296.84 48, 288C48, 279.16 55.16, 272 64, 272C72.84, 272 80, 279.16 80, 288C80, 296.84 72.84, 304 64, 304zM448, 304C439.16, 304 432, 296.84 432, 288C432, 279.16 439.16, 272 448, 272C456.84, 272 464, 279.16 464, 288C464, 296.84 456.84, 304 448, 304zM0, 496C0, 504.84 7.16, 512 16, 512L496, 512C504.84, 512 512, 504.84 512, 496L512, 384L0, 384L0, 496zM448, 432C456.84, 432 464, 439.16 464, 448C464, 456.84 456.84, 464 448, 464C439.16, 464 432, 456.84 432, 448C432, 439.16 439.16, 432 448, 432zM64, 432C72.84, 432 80, 439.16 80, 448C80, 456.84 72.84, 464 64, 464C55.16, 464 48, 456.84 48, 448C48, 439.16 55.16, 432 64, 432z" fill="#727272" fill-opacity="1" class="Black" />
  </g>
</svg>