<?xml version='1.0' encoding='UTF-8'?>
<svg viewBox="-1.9998 -3.5563 31.9975 32" xmlns="http://www.w3.org/2000/svg">
  <g transform="matrix(0.0486, 0, 0, 0.0486, 0, 0)">
    <path d="M560, 448L544, 448L544, 96L32, 96L32, 448L16.02, 448C7.18, 448 0.02, 455.16 0.02, 464L0.02, 496C0.02, 504.84 7.18, 512 16.02, 512L176, 512C184.84, 512 192, 504.84 192, 496L192, 320C192, 266.98 234.98, 224 288, 224C341.02, 224 384, 266.98 384, 320L384.02, 480L384.02, 496C384.02, 504.84 391.18, 512 400.02, 512L560, 512C568.84, 512 576, 504.84 576, 496L576, 464C576, 455.16 568.84, 448 560, 448zM560, 0L16, 0C7.16, 0 0, 7.16 0, 16L0, 48C0, 56.84 7.16, 64 16, 64L560, 64C568.84, 64 576, 56.84 576, 48L576, 16C576, 7.16 568.84, 0 560, 0z" fill="#727272" fill-opacity="1" class="Black" />
  </g>
</svg>