<?xml version='1.0' encoding='UTF-8'?>
<svg viewBox="-1.5477 -1.5477 32 32" xmlns="http://www.w3.org/2000/svg">
  <g transform="matrix(0.9991, 0, 0, 0.9991, 0, 0)">
    <g transform="matrix(0.0565, 0, 0, 0.0565, 0, 0)">
      <path d="M256, 8C393, 8 504, 119 504, 256C504, 393 393, 504 256, 504C119, 504 8, 393 8, 256C8, 119 119, 8 256, 8zM140, 300L256, 300L256, 370.9C256, 381.6 269, 387 276.5, 379.4L390.8, 264.5C395.5, 259.8 395.5, 252.3 390.8, 247.6L276.5, 132.6C268.9, 125 256, 130.4 256, 141.1L256, 212L140, 212C133.4, 212 128, 217.4 128, 224L128, 288C128, 294.6 133.4, 300 140, 300z" fill="#727272" fill-opacity="1" class="Black" />
    </g>
  </g>
</svg>