<?xml version='1.0' encoding='UTF-8'?>
<svg viewBox="-1.5477 -1.5477 32 32" xmlns="http://www.w3.org/2000/svg">
  <g transform="matrix(0.9991, 0, 0, 0.9991, 0, 0)">
    <g transform="matrix(0.0565, 0, 0, 0.0565, 0, 0)">
      <path d="M8, 256C8, 119 119, 8 256, 8C393, 8 504, 119 504, 256C504, 393 393, 504 256, 504C119, 504 8, 393 8, 256zM300, 372L300, 256L370.9, 256C381.6, 256 387, 243 379.4, 235.5L264.5, 121.2C259.8, 116.5 252.3, 116.5 247.6, 121.2L132.6, 235.5C125, 243.1 130.4, 256 141.1, 256L212, 256L212, 372C212, 378.6 217.4, 384 224, 384L288, 384C294.6, 384 300, 378.6 300, 372z" fill="#727272" fill-opacity="1" class="Black" />
    </g>
  </g>
</svg>