<?xml version='1.0' encoding='UTF-8'?>
<svg viewBox="-4.2362 -0.0384 32 31.9975" xmlns="http://www.w3.org/2000/svg">
  <g transform="matrix(0.0613, 0, 0, 0.0613, 0, 0)">
    <path d="M24, 32L360, 32C373.3, 32 384, 42.7 384, 56L384, 80C384, 93.3 373.3, 104 360, 104L24, 104C10.7, 104 0, 93.3 0, 80L0, 56C0, 42.7 10.7, 32 24, 32zM293.6, 295.5L228, 361.1L228, 152C228, 138.7 217.3, 128 204, 128L180, 128C166.7, 128 156, 138.7 156, 152L156, 361.1L90.4, 295.5C81, 286.1 65.8, 286.1 56.5, 295.5L39.5, 312.5C30.1, 321.9 30.1, 337.1 39.5, 346.4L175, 481.9C184.4, 491.3 199.6, 491.3 208.9, 481.9L344.4, 346.4C353.8, 337 353.8, 321.8 344.4, 312.5L327.4, 295.5C318.1, 286.1 302.9, 286.1 293.6, 295.5z" fill="#727272" fill-opacity="1" class="Black" />
  </g>
</svg>