<?xml version='1.0' encoding='UTF-8'?>
<svg viewBox="-2 -0.0014 32 32" xmlns="http://www.w3.org/2000/svg">
  <g transform="matrix(0.0625, 0, 0, 0.0625, 0, 0)">
    <path d="M0, 424L0, 88C0, 74.7 10.7, 64 24, 64L48, 64C61.3, 64 72, 74.7 72, 88L72, 424C72, 437.3 61.3, 448 48, 448L24, 448C10.7, 448 0, 437.3 0, 424zM254.5, 154.4L320.1, 220L120, 220C106.7, 220 96, 230.7 96, 244L96, 268C96, 281.3 106.7, 292 120, 292L320.1, 292L254.5, 357.6C245.1, 367 245.1, 382.2 254.5, 391.5L271.5, 408.5C280.9, 417.9 296.1, 417.9 305.4, 408.5L441, 273C450.4, 263.6 450.4, 248.4 441, 239.1L305.5, 103.5C296.1, 94.1 280.9, 94.1 271.6, 103.5L254.6, 120.5C245.2, 129.9 245.2, 145.1 254.5, 154.4z" fill="#727272" fill-opacity="1" class="Black" />
  </g>
</svg>