<?xml version='1.0' encoding='UTF-8'?>
<svg viewBox="-3.9978 0.0054 32 32" xmlns="http://www.w3.org/2000/svg">
  <g transform="matrix(0.0625, 0, 0, 0.0625, 0, 0)">
    <path d="M360, 480L24, 480C10.7, 480 0, 469.3 0, 456L0, 432C0, 418.7 10.7, 408 24, 408L360, 408C373.3, 408 384, 418.7 384, 432L384, 456C384, 469.3 373.3, 480 360, 480zM256, 360L256, 224L343.7, 224C361.5, 224 370.4, 202.5 357.8, 189.9L205.7, 37.7C198.2, 30.2 185.9, 30.2 178.4, 37.7L26.1, 189.9C13.5, 202.5 22.5, 224 40.3, 224L128, 224L128, 360C128, 373.3 138.7, 384 152, 384L232, 384C245.3, 384 256, 373.3 256, 360z" fill="#727272" fill-opacity="1" class="Black" />
  </g>
</svg>