<?xml version='1.0' encoding='UTF-8'?>
<svg viewBox="-8.9988 -1.9975 32 32" xmlns="http://www.w3.org/2000/svg">
  <g transform="matrix(0.0547, 0, 0, 0.0547, 0, 0)">
    <path d="M160, 406.186L160, 105.815L203.728, 152.023C213.017, 161.838 228.574, 162.053 238.13, 152.497L248.97, 141.657C258.343, 132.284 258.343, 117.088 248.97, 107.716L150.627, 9.373C138.13, -3.124 117.869, -3.124 105.372, 9.373L7.029, 107.715C-2.344, 117.088 -2.344, 132.284 7.029, 141.656L17.869, 152.496C27.425, 162.052 42.982, 161.837 52.271, 152.022L96, 105.815L96, 406.186L52.272, 359.978C42.983, 350.163 27.426, 349.948 17.87, 359.504L7.03, 370.344C-2.343, 379.717 -2.343, 394.913 7.03, 404.285L105.373, 502.628C117.87, 515.125 138.131, 515.125 150.628, 502.628L248.971, 404.285C258.344, 394.912 258.344, 379.716 248.971, 370.344L238.131, 359.504C228.575, 349.948 213.018, 350.163 203.729, 359.978L160, 406.186z" fill="#727272" fill-opacity="1" class="Black" />
  </g>
</svg>