<?xml version='1.0' encoding='UTF-8'?>
<svg viewBox="-2 0 32 32" xmlns="http://www.w3.org/2000/svg">
  <g transform="matrix(0.0625, 0, 0, 0.0625, 0, 0)">
    <path d="M448, 88L448, 424C448, 437.3 437.3, 448 424, 448L400, 448C386.7, 448 376, 437.3 376, 424L376, 88C376, 74.7 386.7, 64 400, 64L424, 64C437.3, 64 448, 74.7 448, 88zM24, 320L160, 320L160, 407.7C160, 425.5 181.5, 434.4 194.1, 421.8L346.3, 269.6C353.8, 262.1 353.8, 249.8 346.3, 242.3L194.1, 90.1C181.5, 77.5 160, 86.4 160, 104.2L160, 192L24, 192C10.7, 192 0, 202.7 0, 216L0, 296C0, 309.3 10.7, 320 24, 320z" fill="#727272" fill-opacity="1" class="Black" />
  </g>
</svg>