<?xml version='1.0' encoding='UTF-8'?>
<svg viewBox="-4 0 32 32" xmlns="http://www.w3.org/2000/svg">
  <g transform="matrix(0.0625, 0, 0, 0.0625, 0, 0)">
    <path d="M24, 32L360, 32C373.3, 32 384, 42.7 384, 56L384, 80C384, 93.3 373.3, 104 360, 104L24, 104C10.7, 104 0, 93.3 0, 80L0, 56C0, 42.7 10.7, 32 24, 32zM256, 456L256, 320L343.7, 320C361.5, 320 370.4, 298.5 357.8, 285.9L205.7, 133.7C198.2, 126.2 185.9, 126.2 178.4, 133.7L26.1, 285.9C13.5, 298.5 22.5, 320 40.3, 320L128, 320L128, 456C128, 469.3 138.7, 480 152, 480L232, 480C245.3, 480 256, 469.3 256, 456z" fill="#727272" fill-opacity="1" class="Black" />
  </g>
</svg>