<?xml version='1.0' encoding='UTF-8'?>
<svg viewBox="-2 0 32 32" xmlns="http://www.w3.org/2000/svg">
  <g transform="matrix(0.0625, 0, 0, 0.0625, 0, 0)">
    <path d="M0, 424L0, 88C0, 74.7 10.7, 64 24, 64L48, 64C61.3, 64 72, 74.7 72, 88L72, 424C72, 437.3 61.3, 448 48, 448L24, 448C10.7, 448 0, 437.3 0, 424zM424, 192L288, 192L288, 104.3C288, 86.5 266.5, 77.6 253.9, 90.2L101.7, 242.3C94.2, 249.8 94.2, 262.1 101.7, 269.6L253.9, 421.8C266.5, 434.4 288, 425.5 288, 407.7L288, 320L424, 320C437.3, 320 448, 309.3 448, 296L448, 216C448, 202.7 437.3, 192 424, 192z" fill="#727272" fill-opacity="1" class="Black" />
  </g>
</svg>