<?xml version='1.0' encoding='UTF-8'?>
<svg viewBox="-2 -0.0002 32 32" xmlns="http://www.w3.org/2000/svg">
  <g transform="matrix(0.0625, 0, 0, 0.0625, 0, 0)">
    <path d="M413.1, 222.5L435.3, 244.7C444.7, 254.1 444.7, 269.3 435.3, 278.6L241, 473C231.6, 482.4 216.4, 482.4 207.1, 473L12.7, 278.6C3.3, 269.2 3.3, 254 12.7, 244.7L34.9, 222.5C44.4, 213 59.9, 213.2 69.2, 222.9L184, 343.4L184, 56C184, 42.7 194.7, 32 208, 32L240, 32C253.3, 32 264, 42.7 264, 56L264, 343.4L378.8, 222.9C388.1, 213.1 403.6, 212.9 413.1, 222.5z" fill="#727272" fill-opacity="1" class="Black" />
  </g>
</svg>