<?xml version='1.0' encoding='UTF-8'?>
<svg viewBox="-2 0 32 32" xmlns="http://www.w3.org/2000/svg">
  <g transform="matrix(0.0625, 0, 0, 0.0625, 0, 0)">
    <path d="M0, 432L0, 80C0, 53.5 21.5, 32 48, 32L400, 32C426.5, 32 448, 53.5 448, 80L448, 432C448, 458.5 426.5, 480 400, 480L48, 480C21.5, 480 0, 458.5 0, 432zM119.6, 284.9L192, 209.4L192, 392C192, 405.3 202.7, 416 216, 416L232, 416C245.3, 416 256, 405.3 256, 392L256, 209.4L328.4, 284.9C337.7, 294.6 353.2, 294.8 362.7, 285.3L373.6, 274.3C383, 264.9 383, 249.7 373.6, 240.4L241, 107.7C231.6, 98.3 216.4, 98.3 207.1, 107.7L74.3, 240.4C64.9, 249.8 64.9, 265 74.3, 274.3L85.2, 285.3C94.8, 294.8 110.3, 294.6 119.6, 284.9z" fill="#727272" fill-opacity="1" class="Black" />
  </g>
</svg>