<?xml version='1.0' encoding='UTF-8'?>
<svg viewBox="-2 0 32 32" xmlns="http://www.w3.org/2000/svg">
  <g transform="matrix(0.0625, 0, 0, 0.0625, 0, 0)">
    <path d="M48, 32L400, 32C426.5, 32 448, 53.5 448, 80L448, 432C448, 458.5 426.5, 480 400, 480L48, 480C21.5, 480 0, 458.5 0, 432L0, 80C0, 53.5 21.5, 32 48, 32zM195.1, 151.6L270.6, 224L88, 224C74.7, 224 64, 234.7 64, 248L64, 264C64, 277.3 74.7, 288 88, 288L270.6, 288L195.1, 360.4C185.4, 369.7 185.2, 385.2 194.7, 394.7L205.7, 405.6C215.1, 415 230.3, 415 239.6, 405.6L372.3, 273C381.7, 263.6 381.7, 248.4 372.3, 239.1L239.6, 106.3C230.2, 96.9 215, 96.9 205.7, 106.3L194.7, 117.2C185.2, 126.8 185.4, 142.3 195.1, 151.6z" fill="#727272" fill-opacity="1" class="Black" />
  </g>
</svg>