<?xml version='1.0' encoding='UTF-8'?>
<svg viewBox="-1.995 0.0029 32 32" xmlns="http://www.w3.org/2000/svg">
  <g transform="matrix(0.0625, 0, 0, 0.0625, 0, 0)">
    <path d="M448, 88L448, 424C448, 437.3 437.3, 448 424, 448L400, 448C386.7, 448 376, 437.3 376, 424L376, 88C376, 74.7 386.7, 64 400, 64L424, 64C437.3, 64 448, 74.7 448, 88zM328, 192L192, 192L192, 104.3C192, 86.5 170.5, 77.6 157.9, 90.2L5.7, 242.3C-1.8, 249.8 -1.8, 262.1 5.7, 269.6L157.9, 421.8C170.5, 434.4 192, 425.5 192, 407.7L192, 320L328, 320C341.3, 320 352, 309.3 352, 296L352, 216C352, 202.7 341.3, 192 328, 192z" fill="#727272" fill-opacity="1" class="Black" />
  </g>
</svg>