<?xml version='1.0' encoding='UTF-8'?>
<svg viewBox="-2 0 32 32" xmlns="http://www.w3.org/2000/svg">
  <g transform="matrix(0.0625, 0, 0, 0.0625, 0, 0)">
    <path d="M0, 424L0, 88C0, 74.7 10.7, 64 24, 64L48, 64C61.3, 64 72, 74.7 72, 88L72, 424C72, 437.3 61.3, 448 48, 448L24, 448C10.7, 448 0, 437.3 0, 424zM280.5, 357.6L214.9, 292L424, 292C437.3, 292 448, 281.3 448, 268L448, 244C448, 230.7 437.3, 220 424, 220L214.9, 220L280.5, 154.4C289.9, 145 289.9, 129.8 280.5, 120.5L263.5, 103.5C254.1, 94.1 238.9, 94.1 229.6, 103.5L94.1, 239C84.7, 248.4 84.7, 263.6 94.1, 272.9L229.6, 408.4C239, 417.8 254.2, 417.8 263.5, 408.4L280.5, 391.4C289.9, 382.1 289.9, 366.9 280.5, 357.6z" fill="#727272" fill-opacity="1" class="Black" />
  </g>
</svg>