<?xml version='1.0' encoding='UTF-8'?>
<svg viewBox="-2 0 32 32" xmlns="http://www.w3.org/2000/svg">
  <g transform="matrix(0.0625, 0, 0, 0.0625, 0, 0)">
    <path d="M400, 480L48, 480C21.5, 480 0, 458.5 0, 432L0, 80C0, 53.5 21.5, 32 48, 32L400, 32C426.5, 32 448, 53.5 448, 80L448, 432C448, 458.5 426.5, 480 400, 480zM252.9, 360.4L177.4, 288L360, 288C373.3, 288 384, 277.3 384, 264L384, 248C384, 234.7 373.3, 224 360, 224L177.4, 224L252.9, 151.6C262.6, 142.3 262.8, 126.8 253.3, 117.3L242.3, 106.4C232.9, 97 217.7, 97 208.4, 106.4L75.7, 239C66.3, 248.4 66.3, 263.6 75.7, 272.9L208.4, 405.6C217.8, 415 233, 415 242.3, 405.6L253.3, 394.7C262.8, 385.2 262.6, 369.7 252.9, 360.4z" fill="#727272" fill-opacity="1" class="Black" />
  </g>
</svg>