<?xml version='1.0' encoding='UTF-8'?>
<svg viewBox="-1.9975 -1.9975 32 32" xmlns="http://www.w3.org/2000/svg">
  <g transform="matrix(0.0547, 0, 0, 0.0547, 0, 0)">
    <path d="M352.634, 428.621L278.627, 502.628C266.13, 515.125 245.869, 515.125 233.372, 502.628L159.365, 428.621C149.992, 419.248 149.992, 404.052 159.365, 394.68L170.205, 383.84C179.761, 374.284 195.318, 374.499 204.607, 384.314L228, 410.365L228, 284L101.635, 284L127.686, 307.392C137.501, 316.681 137.716, 332.238 128.16, 341.794L117.32, 352.634C107.947, 362.007 92.751, 362.007 83.379, 352.634L9.373, 278.627C-3.124, 266.13 -3.124, 245.869 9.373, 233.372L83.38, 159.365C92.753, 149.992 107.949, 149.992 117.321, 159.365L128.161, 170.205C137.717, 179.761 137.502, 195.319 127.687, 204.607L101.635, 228L228, 228L228, 101.635L204.608, 127.686C195.319, 137.501 179.762, 137.716 170.206, 128.16L159.366, 117.32C149.993, 107.947 149.993, 92.751 159.366, 83.379L233.373, 9.372C245.87, -3.125 266.131, -3.125 278.628, 9.372L352.635, 83.379C362.008, 92.752 362.008, 107.948 352.635, 117.32L341.795, 128.16C332.239, 137.716 316.682, 137.501 307.393, 127.686L284, 101.635L284, 228L410.365, 228L384.314, 204.608C374.499, 195.319 374.284, 179.762 383.84, 170.206L394.68, 159.366C404.053, 149.993 419.249, 149.993 428.621, 159.366L502.628, 233.373C515.125, 245.87 515.125, 266.131 502.628, 278.628L428.621, 352.635C419.248, 362.008 404.052, 362.008 394.68, 352.635L383.84, 341.795C374.284, 332.239 374.499, 316.682 384.314, 307.393L410.365, 284L284, 284L284, 410.365L307.392, 384.314C316.681, 374.499 332.238, 374.284 341.794, 383.84L352.634, 394.68C362.007, 404.052 362.007, 419.248 352.634, 428.621z" fill="#727272" fill-opacity="1" class="Black" />
  </g>
</svg>