<?xml version='1.0' encoding='UTF-8'?>
<svg viewBox="-2 0 32 32" xmlns="http://www.w3.org/2000/svg">
  <g transform="matrix(0.0625, 0, 0, 0.0625, 0, 0)">
    <path d="M448, 80L448, 432C448, 458.5 426.5, 480 400, 480L48, 480C21.5, 480 0, 458.5 0, 432L0, 80C0, 53.5 21.5, 32 48, 32L400, 32C426.5, 32 448, 53.5 448, 80zM180, 140L180, 256L109.1, 256C98.4, 256 93, 269 100.6, 276.5L215.5, 390.8C220.2, 395.5 227.7, 395.5 232.4, 390.8L347.3, 276.5C354.9, 268.9 349.5, 256 338.8, 256L268, 256L268, 140C268, 133.4 262.6, 128 256, 128L192, 128C185.4, 128 180, 133.4 180, 140z" fill="#727272" fill-opacity="1" class="Black" />
  </g>
</svg>