<?xml version='1.0' encoding='UTF-8'?>
<svg viewBox="-3.7495 -2 32 32" xmlns="http://www.w3.org/2000/svg">
  <g transform="matrix(0.0547, 0, 0, 0.0547, 0, 0)">
    <path d="M413.03, 256C453.16, 201.11 454.54, 157.38 438.17, 128C427.26, 108.48 397.63, 77.27 321.84, 86.12C300.36, 34.89 267.64, 0 224, 0C180.36, 0 147.64, 34.89 126.16, 86.12C50.43, 77.34 20.73, 108.48 9.83, 128C-6.55, 157.4 -5.17, 201.09 34.97, 256C-5.16, 310.89 -6.54, 354.62 9.83, 384C39.04, 436.34 111.51, 427.58 126.16, 425.88C147.63, 477.1 180.36, 512 224, 512C267.64, 512 300.37, 477.1 321.84, 425.88C336.48, 427.58 408.95, 436.34 438.17, 384C454.55, 354.6 453.17, 310.91 413.03, 256zM63.38, 352C59.35, 344.79 63.19, 327.2 78.33, 303.71C85.29, 310.24 92.53, 316.6 100.2, 322.89C101.91, 336.6 104.2, 349.97 106.96, 362.97C82.4, 363.86 67.07, 358.6 63.38, 352zM100.2, 189.12C92.54, 195.41 85.3, 201.77 78.33, 208.3C63.2, 184.8 59.36, 167.21 63.38, 160C66.79, 153.86 79.77, 148.53 101.3, 148.53C103.01, 148.53 105.17, 148.83 106.99, 148.9A472.191 472.191 0 0 0 100.2, 189.12zM224, 64C233.47, 64 246.2, 77.52 257.86, 101.26C246.67, 104.96 235.42, 109.26 224, 114.12C212.58, 109.26 201.33, 104.96 190.14, 101.26C201.8, 77.52 214.53, 64 224, 64zM224, 448C214.53, 448 201.8, 434.48 190.14, 410.74C201.33, 407.04 212.58, 402.74 224, 397.88C235.42, 402.74 246.67, 407.04 257.86, 410.74C246.2, 434.48 233.47, 448 224, 448zM286.5, 290.67C259.8, 309.75 240.36, 320 224, 328.15C207.65, 320.01 188.2, 309.74 161.5, 290.67C159.51, 262.88 159.51, 249.13 161.5, 221.34C188.17, 202.29 207.63, 192.02 224, 183.86C240.39, 192.03 259.86, 202.3 286.5, 221.34C288.48, 249.12 288.49, 262.87 286.5, 290.67zM384.62, 352C380.95, 358.62 365.62, 363.82 341.04, 362.95C343.8, 349.95 346.09, 336.58 347.8, 322.89C355.46, 316.6 362.7, 310.24 369.67, 303.71C384.8, 327.2 388.64, 344.79 384.62, 352zM369.67, 208.29C362.71, 201.76 355.47, 195.4 347.8, 189.11A473.535 473.535 0 0 0 341.01, 148.89C342.83, 148.82 344.98, 148.52 346.7, 148.52C368.22, 148.52 381.21, 153.86 384.62, 159.99C388.64, 167.21 384.8, 184.8 369.67, 208.29zM224, 224C206.33, 224 192, 238.33 192, 256C192, 273.67 206.33, 288 224, 288C241.67, 288 256, 273.67 256, 256C256, 238.33 241.67, 224 224, 224z" fill="#727272" fill-opacity="1" class="Black" />
  </g>
</svg>