<?xml version='1.0' encoding='UTF-8'?>
<svg viewBox="-1.9999 -1.9974 32 31.9975" xmlns="http://www.w3.org/2000/svg">
  <g transform="matrix(0.0547, 0, 0, 0.0547, 0, 0)">
    <path d="M512, 160.92C505.16, 99.16 478.4, 44.29 438.94, 4.7C429.73, -4.55 415.05, 0.58 411.88, 13.66C399.85, 63.33 364.63, 101.93 320, 114.89L320, 269.11C364.63, 282.07 399.85, 320.67 411.88, 370.34C415.05, 383.42 429.73, 388.55 438.94, 379.3C478.4, 339.71 505.16, 284.85 512, 223.08L449.24, 192L512, 160.92zM101, 13.66C97.86, 0.58 83.32, -4.54 74.2, 4.7C28.67, 50.83 0, 117.62 0, 192C0, 266.38 28.67, 333.17 74.2, 379.3C83.33, 388.55 97.86, 383.42 101, 370.34C112.92, 320.67 147.79, 282.07 192, 269.11L192, 114.89C147.79, 101.93 112.92, 63.33 101, 13.66zM272, 64L240, 64C231.16, 64 224, 71.16 224, 80L224, 496C224, 504.84 231.16, 512 240, 512L272, 512C280.84, 512 288, 504.84 288, 496L288, 80C288, 71.16 280.84, 64 272, 64z" fill="#727272" fill-opacity="1" class="Black" />
  </g>
</svg>