<?xml version='1.0' encoding='UTF-8'?>
<svg viewBox="-3.7495 -2 32 32" xmlns="http://www.w3.org/2000/svg">
  <g transform="matrix(0.0547, 0, 0, 0.0547, 0, 0)">
    <path d="M320, 320L128, 320C110.33, 320 96, 334.33 96, 352L96, 384L352, 384L352, 352C352, 334.33 337.67, 320 320, 320zM96, 512L352, 512L352, 416L96, 416L96, 512zM320, 80L312, 80L312, 56C312, 25.12 286.88, 0 256, 0L192, 0C161.12, 0 136, 25.12 136, 56L136, 80L128, 80C57.31, 80 0, 137.31 0, 208L0, 448C0, 483.35 28.65, 512 64, 512L64, 352C64, 316.71 92.71, 288 128, 288L320, 288C355.29, 288 384, 316.71 384, 352L384, 512C419.35, 512 448, 483.35 448, 448L448, 208C448, 137.31 390.69, 80 320, 80zM184, 56C184, 51.59 187.59, 48 192, 48L256, 48C260.41, 48 264, 51.59 264, 56L264, 80L184, 80L184, 56zM320, 200C320, 204.42 316.42, 208 312, 208L136, 208C131.58, 208 128, 204.42 128, 200L128, 184C128, 179.58 131.58, 176 136, 176L312, 176C316.42, 176 320, 179.58 320, 184L320, 200z" fill="#727272" fill-opacity="1" class="Black" />
  </g>
</svg>