<?xml version='1.0' encoding='UTF-8'?>
<svg viewBox="-1.9975 -3.5542 32 32" xmlns="http://www.w3.org/2000/svg">
  <g transform="matrix(0.0486, 0, 0, 0.0486, 0, 0)">
    <path d="M218.92, 336.39C253.81, 301.5 263.12, 276.69 272.97, 250.39C283.58, 222.1 294.56, 192.85 334.34, 153.05C374.12, 113.25 403.39, 102.28 431.69, 91.67C455.57, 82.67 478.33, 73.99 508.48, 46.3L470.81, 8.91A31 31 0 0 0 430.63, 6.08C416.99, 16.18 405.48, 20.47 389.63, 26.38C247, 79.52 209.26, 191.29 200.65, 214.1C170.9, 292.93 111.1, 308.78 101.93, 312.19C77.07, 321.45 47.2, 332.57 10.86, 362.55C-3, 374 -3.63, 395 9.07, 407.61L44.83, 443.12C80, 410.52 107, 400.15 133, 390.39C159.27, 380.55 184.06, 371.27 218.92, 336.39zM566.92, 104.39L531.17, 68.88C495.98, 101.51 468.99, 111.88 442.92, 121.67C416.66, 131.52 391.86, 140.83 356.97, 175.67C322.08, 210.51 312.78, 235.36 302.97, 261.67C292.33, 290 281.34, 319.22 241.55, 359C201.76, 398.78 172.55, 409.73 144.25, 420.32C120.39, 429.32 97.64, 437.98 67.53, 465.65L105.21, 503.08A31 31 0 0 0 145.39, 505.9C158.99, 495.84 170.48, 491.56 186.33, 485.66C328.53, 432.66 366.33, 321.56 375.27, 297.97C405, 219.18 464.8, 203.3 474, 199.86C498.87, 190.59 528.74, 179.46 565.11, 149.45C579, 138.05 579.63, 117 566.93, 104.4z" fill="#727272" fill-opacity="1" class="Black" />
  </g>
</svg>