<?xml version='1.0' encoding='UTF-8'?>
<svg viewBox="-1.9999 -3.5552 32 32" xmlns="http://www.w3.org/2000/svg">
  <g transform="matrix(0.0486, 0, 0, 0.0486, 0, 0)">
    <path d="M448, 224L448, 192A32 32 0 0 0 416, 160L320, 160L320, 96A96 96 0 0 0 128, 96L128, 160L32, 160A32 32 0 0 0 0, 192L0, 448A32 32 0 0 0 32, 480L160, 480L160, 256A32 32 0 0 1 192, 224zM176, 96A48 48 0 0 1 272, 96L272, 160L176, 160zM544, 256L224, 256A32 32 0 0 0 192, 288L192, 480A32 32 0 0 0 224, 512L544, 512A32 32 0 0 0 576, 480L576, 288A32 32 0 0 0 544, 256zM480, 352A96.12 96.12 0 0 1 371.37, 447.19C323, 441 288, 397.45 288, 348.66L288, 328A8 8 0 0 1 296, 320L312, 320A8 8 0 0 1 320, 328L320, 349.16C320, 382.57 344.37, 412.46 377.62, 415.69A64.07 64.07 0 0 0 448, 352L448, 328A8 8 0 0 1 456, 320L472, 320A8 8 0 0 1 480, 328z" fill="#727272" fill-opacity="1" class="Black" />
  </g>
</svg>