<?xml version='1.0' encoding='UTF-8'?>
<svg viewBox="-2 -4.7992 32 32" xmlns="http://www.w3.org/2000/svg">
  <g transform="matrix(0.9988, 0, 0, 0.9988, 0, 0)">
    <g transform="matrix(0.0438, 0, 0, 0.0438, 0, 0)">
      <path d="M96, 464L96, 496C96, 504.84 103.16, 512 112, 512L336, 512C344.84, 512 352, 504.84 352, 496L352, 153.25C356.56, 151.25 360.92, 148.9 364.99, 146.13L507.04, 193.76C515.42, 196.57 524.49, 192.05 527.3, 183.68L537.47, 153.34C540.28, 144.96 535.76, 135.89 527.39, 133.08L398.99, 90.03C399.41, 86.71 400, 83.43 400, 80C400, 35.82 364.18, 0 320, 0C290.31, 0 264.7, 16.36 250.89, 40.37L132.96, 0.83C124.58, -1.98 115.51, 2.54 112.7, 10.91L102.53, 41.25C99.72, 49.63 104.24, 58.7 112.61, 61.51L244.61, 105.77C251.89, 127.02 267.57, 144.31 287.99, 153.24L287.99, 448L112, 448C103.16, 448 96, 455.16 96, 464zM0, 304C0, 348.18 57.31, 384 128, 384C198.69, 384 256, 348.18 256, 304L255.98, 304C255.98, 288.33 258.06, 296.75 170.93, 122.49C153.25, 87.13 102.71, 87.2 85.06, 122.49C-1.32, 295.27 0.02, 287.82 0.02, 304L0, 304zM56, 288L128, 144L200, 288L56, 288zM384.02, 432L384, 432C384, 476.18 441.31, 512 512, 512C582.69, 512 640, 476.18 640, 432L639.98, 432C639.98, 416.33 642.06, 424.75 554.93, 250.49C537.25, 215.13 486.71, 215.2 469.06, 250.49C382.68, 423.27 384.02, 415.82 384.02, 432zM440, 416L512, 272L584, 416L440, 416z" fill="#727272" fill-opacity="1" class="Black" />
    </g>
  </g>
</svg>