<?xml version='1.0' encoding='UTF-8'?>
<svg viewBox="-2 -4.7992 32 32" xmlns="http://www.w3.org/2000/svg">
  <g transform="matrix(0.9988, 0, 0, 0.9988, 0, 0)">
    <g transform="matrix(0.0438, 0, 0, 0.0438, 0, 0)">
      <path d="M528, 448L352, 448L352, 153.25C372.42, 144.31 388.1, 127.03 395.38, 105.78L527.38, 61.52C535.76, 58.71 540.27, 49.64 537.46, 41.26L527.29, 10.92C524.48, 2.54 515.41, -1.97 507.03, 0.84L389.11, 40.37C375.3, 16.36 349.69, 0 320, 0C275.82, 0 240, 35.82 240, 80C240, 83.43 240.59, 86.71 241.01, 90.03L112.62, 133.08C104.24, 135.89 99.73, 144.96 102.54, 153.34L112.71, 183.68C115.52, 192.06 124.59, 196.57 132.97, 193.76L275.02, 146.13C279.09, 148.9 283.45, 151.25 288.01, 153.25L288.01, 496C288.01, 504.84 295.17, 512 304.01, 512L528.01, 512C536.85, 512 544.01, 504.84 544.01, 496L544.01, 464C544, 455.16 536.84, 448 528, 448zM639.98, 304C639.98, 287.82 641.32, 295.27 554.93, 122.49C537.28, 87.2 486.74, 87.13 469.06, 122.49C381.94, 296.75 384.02, 288.33 384.02, 304L384, 304C384, 348.18 441.31, 384 512, 384C582.69, 384 640, 348.18 640, 304L639.98, 304zM440, 288L512, 144L584, 288L440, 288zM170.93, 250.49C153.28, 215.2 102.74, 215.13 85.06, 250.49C-2.06, 424.75 0.02, 416.33 0.02, 432L0, 432C0, 476.18 57.31, 512 128, 512C198.69, 512 256, 476.18 256, 432L255.98, 432C255.98, 415.82 257.32, 423.27 170.93, 250.49zM56, 416L128, 272L200, 416L56, 416z" fill="#727272" fill-opacity="1" class="Black" />
    </g>
  </g>
</svg>