<?xml version='1.0' encoding='UTF-8'?>
<svg viewBox="-5.499 -1.9999 31.9975 32" xmlns="http://www.w3.org/2000/svg">
  <g transform="matrix(0.0547, 0, 0, 0.0547, 0, 0)">
    <path d="M360, 0L24, 0C10.7, 0 0, 10.7 0, 24L0, 488C0, 501.3 10.7, 512 24, 512L360, 512C373.3, 512 384, 501.3 384, 488L384, 24C384, 10.7 373.3, 0 360, 0zM128, 400C128, 408.8 120.8, 416 112, 416L80, 416C71.2, 416 64, 408.8 64, 400L64, 368C64, 359.2 71.2, 352 80, 352L112, 352C120.8, 352 128, 359.2 128, 368L128, 400zM128, 272C128, 280.8 120.8, 288 112, 288L80, 288C71.2, 288 64, 280.8 64, 272L64, 240C64, 231.2 71.2, 224 80, 224L112, 224C120.8, 224 128, 231.2 128, 240L128, 272zM128, 144C128, 152.8 120.8, 160 112, 160L80, 160C71.2, 160 64, 152.8 64, 144L64, 112C64, 103.2 71.2, 96 80, 96L112, 96C120.8, 96 128, 103.2 128, 112L128, 144zM320, 392C320, 396.4 316.4, 400 312, 400L168, 400C163.6, 400 160, 396.4 160, 392L160, 376C160, 371.6 163.6, 368 168, 368L312, 368C316.4, 368 320, 371.6 320, 376L320, 392zM320, 264C320, 268.4 316.4, 272 312, 272L168, 272C163.6, 272 160, 268.4 160, 264L160, 248C160, 243.6 163.6, 240 168, 240L312, 240C316.4, 240 320, 243.6 320, 248L320, 264zM320, 136C320, 140.4 316.4, 144 312, 144L168, 144C163.6, 144 160, 140.4 160, 136L160, 120C160, 115.6 163.6, 112 168, 112L312, 112C316.4, 112 320, 115.6 320, 120L320, 136z" fill="#727272" fill-opacity="1" class="Black" />
  </g>
</svg>