<?xml version='1.0' encoding='UTF-8'?>
<svg viewBox="-1.9998 -3.5563 31.9975 32" xmlns="http://www.w3.org/2000/svg">
  <g transform="matrix(0.0486, 0, 0, 0.0486, 0, 0)">
    <path d="M80, 352C35.8, 352 0, 387.8 0, 432C0, 476.2 35.8, 512 80, 512C124.2, 512 160, 476.2 160, 432C160, 387.8 124.2, 352 80, 352zM288, 160C332.2, 160 368, 124.2 368, 80C368, 35.8 332.2, 0 288, 0C243.8, 0 208, 35.8 208, 80C208, 124.2 243.8, 160 288, 160zM256, 248C256, 203.8 220.2, 168 176, 168C131.8, 168 96, 203.8 96, 248C96, 292.2 131.8, 328 176, 328C220.2, 328 256, 292.2 256, 248zM288, 352C243.8, 352 208, 387.8 208, 432C208, 476.2 243.8, 512 288, 512C332.2, 512 368, 476.2 368, 432C368, 387.8 332.2, 352 288, 352zM496, 352C451.8, 352 416, 387.8 416, 432C416, 476.2 451.8, 512 496, 512C540.2, 512 576, 476.2 576, 432C576, 387.8 540.2, 352 496, 352zM480, 248C480, 203.8 444.2, 168 400, 168C355.8, 168 320, 203.8 320, 248C320, 292.2 355.8, 328 400, 328C444.2, 328 480, 292.2 480, 248z" fill="#727272" fill-opacity="1" class="Black" />
  </g>
</svg>