<?xml version='1.0' encoding='UTF-8'?>
<svg viewBox="-1.5477 -1.5477 32 32" xmlns="http://www.w3.org/2000/svg">
  <g transform="matrix(0.9991, 0, 0, 0.9991, 0, 0)">
    <g transform="matrix(0.0565, 0, 0, 0.0565, 0, 0)">
      <path d="M256, 8C119.034, 8 8, 119.033 8, 256C8, 392.967 119.034, 504 256, 504C392.966, 504 504, 392.966 504, 256C504, 119.034 392.967, 8 256, 8zM386.108, 125.892C451.556, 191.34 456.108, 291.373 406.785, 361.529L150.47, 105.216C220.674, 55.86 320.696, 60.481 386.108, 125.892zM125.892, 386.108C60.444, 320.66 55.892, 220.627 105.215, 150.471L361.53, 406.784C291.327, 456.14 191.304, 451.52 125.892, 386.108z" fill="#727272" fill-opacity="1" class="Black" />
    </g>
  </g>
</svg>