<?xml version='1.0' encoding='UTF-8'?>
<svg viewBox="-2 -4.7992 32 32" xmlns="http://www.w3.org/2000/svg">
  <g transform="matrix(0.9988, 0, 0, 0.9988, 0, 0)">
    <g transform="matrix(0.0438, 0, 0, 0.0438, 0, 0)">
      <path d="M0, 160L0, 352C0, 387.3 28.7, 416 64, 416L160, 416L160, 96L64, 96C28.7, 96 0, 124.7 0, 160zM576, 96L480, 96L480, 416L576, 416C611.3, 416 640, 387.3 640, 352L640, 160C640, 124.7 611.3, 96 576, 96zM192, 416L448, 416L448, 96L192, 96L192, 416zM368, 184C381.3, 184 392, 194.7 392, 208C392, 221.3 381.3, 232 368, 232C354.7, 232 344, 221.3 344, 208C344, 194.7 354.7, 184 368, 184zM368, 280C381.3, 280 392, 290.7 392, 304C392, 317.3 381.3, 328 368, 328C354.7, 328 344, 317.3 344, 304C344, 290.7 354.7, 280 368, 280zM272, 184C285.3, 184 296, 194.7 296, 208C296, 221.3 285.3, 232 272, 232C258.7, 232 248, 221.3 248, 208C248, 194.7 258.7, 184 272, 184zM272, 280C285.3, 280 296, 290.7 296, 304C296, 317.3 285.3, 328 272, 328C258.7, 328 248, 317.3 248, 304C248, 290.7 258.7, 280 272, 280z" fill="#727272" fill-opacity="1" class="Black" />
    </g>
  </g>
</svg>