<?xml version='1.0' encoding='UTF-8'?>
<svg viewBox="-1.9987 -2 32 32" xmlns="http://www.w3.org/2000/svg">
  <g transform="matrix(0.0547, 0, 0, 0.0547, 0, 0)">
    <path d="M502.63, 39L473.05, 9.37A32 32 0 0 0 427.79, 9.37L381.48, 55.69A35.26 35.26 0 0 0 373, 69.48L360.81, 106.07L286, 180.79C266.07, 167.3 242.92, 158.55 218.14, 154.64L218.14, 154.18A26.18 26.18 0 0 0 165.78, 154.18L165.78, 154.64A166.32 166.32 0 0 0 93.5, 184.46L93.27, 184.23A26.18 26.18 0 0 0 56.27, 221.23L56.5, 221.45A166.31 166.31 0 0 0 26.66, 293.79L26.2, 293.79A26.18 26.18 0 0 0 26.2, 346.15L26.66, 346.15A166.31 166.31 0 0 0 56.5, 418.49L56.27, 418.71A26.18 26.18 0 1 0 93.27, 455.71L93.5, 455.48A166.32 166.32 0 0 0 165.82, 485.3L165.82, 485.76A26.18 26.18 0 0 0 218.18, 485.76L218.18, 485.3A166.32 166.32 0 0 0 290.5, 455.48L290.73, 455.71A26.18 26.18 0 1 0 327.73, 418.71L327.5, 418.49A166.31 166.31 0 0 0 357.34, 346.15L357.8, 346.15A26.18 26.18 0 0 0 357.8, 293.79L357.34, 293.79C353.44, 269.05 344.72, 245.92 331.27, 226.01L406.15, 151.13L442.5, 139.02A35.26 35.26 0 0 0 456.29, 130.49L502.61, 84.18A32 32 0 0 0 502.63, 39zM192, 432A112 112 0 1 1 304, 320A112.12 112.12 0 0 1 192, 432zM153, 306.35A8 8 0 0 0 141.68, 306.35L130.37, 317.66A8 8 0 0 0 130.37, 328.97L183, 381.66A8 8 0 0 0 194.31, 381.66L205.62, 370.35A8 8 0 0 0 205.62, 359.03z" fill="#727272" fill-opacity="1" class="Black" />
  </g>
</svg>