<?xml version='1.0' encoding='UTF-8'?>
<svg viewBox="-2 -4.7992 32 32" xmlns="http://www.w3.org/2000/svg">
  <g transform="matrix(0.9988, 0, 0, 0.9988, 0, 0)">
    <g transform="matrix(0.0438, 0, 0, 0.0438, 0, 0)">
      <path d="M592, 0L48, 0C21.5, 0 0, 21.5 0, 48L0, 464C0, 490.5 21.5, 512 48, 512L592, 512C618.5, 512 640, 490.5 640, 464L640, 48C640, 21.5 618.5, 0 592, 0zM160, 408C160, 412.4 156.4, 416 152, 416L104, 416C99.6, 416 96, 412.4 96, 408L96, 104C96, 99.6 99.6, 96 104, 96L152, 96C156.4, 96 160, 99.6 160, 104L160, 408zM224, 408C224, 412.4 220.4, 416 216, 416L200, 416C195.6, 416 192, 412.4 192, 408L192, 104C192, 99.6 195.6, 96 200, 96L216, 96C220.4, 96 224, 99.6 224, 104L224, 408zM288, 408C288, 412.4 284.4, 416 280, 416L264, 416C259.6, 416 256, 412.4 256, 408L256, 104C256, 99.6 259.6, 96 264, 96L280, 96C284.4, 96 288, 99.6 288, 104L288, 408zM416, 408C416, 412.4 412.4, 416 408, 416L360, 416C355.6, 416 352, 412.4 352, 408L352, 104C352, 99.6 355.6, 96 360, 96L408, 96C412.4, 96 416, 99.6 416, 104L416, 408zM544, 408C544, 412.4 540.4, 416 536, 416L488, 416C483.6, 416 480, 412.4 480, 408L480, 104C480, 99.6 483.6, 96 488, 96L536, 96C540.4, 96 544, 99.6 544, 104L544, 408z" fill="#727272" fill-opacity="1" class="Black" />
    </g>
  </g>
</svg>