<?xml version='1.0' encoding='UTF-8'?>
<svg viewBox="-2 -2 32 32" xmlns="http://www.w3.org/2000/svg">
  <g transform="matrix(0.0547, 0, 0, 0.0547, 0, 0)">
    <path d="M0, 448L0, 64L18, 64L18, 448L0, 448zM26.857, 447.727L26.857, 64L36, 64L36, 447.727L26.857, 447.727zM54, 447.727L54, 64L62.857, 64L62.857, 447.727L54, 447.727zM98.857, 447.727L98.857, 64L107.714, 64L107.714, 447.727L98.857, 447.727zM134.857, 447.727L134.857, 64L152.571, 64L152.571, 447.727L134.857, 447.727zM179.714, 447.727L179.714, 64L188.571, 64L188.571, 447.727L179.714, 447.727zM197.714, 447.727L197.714, 64L206.571, 64L206.571, 447.727L197.714, 447.727zM215.714, 447.727L215.714, 64L224.571, 64L224.571, 447.727L215.714, 447.727zM251.429, 447.727L251.429, 64L269.429, 64L269.429, 447.727L251.429, 447.727zM296.286, 447.727L296.286, 64L314.286, 64L314.286, 447.727L296.286, 447.727zM332.285, 447.727L332.285, 64L350.286, 64L350.286, 447.727L332.285, 447.727zM368.286, 447.727L368.286, 64L386.287, 64L386.287, 447.727L368.286, 447.727zM395.143, 447.727L395.143, 64L413.143, 64L413.143, 447.727L395.143, 447.727zM440.286, 447.727L440.286, 64L467.143, 64L467.143, 447.727L440.286, 447.727zM476, 447.727L476, 64L485.143, 64L485.143, 447.727L476, 447.727zM494, 448L494, 64L512, 64L512, 448L494, 448z" fill="#727272" fill-opacity="1" class="Black" />
  </g>
</svg>