<?xml version='1.0' encoding='UTF-8'?>
<svg viewBox="-1.9998 -4.7981 32 31.9975" xmlns="http://www.w3.org/2000/svg">
  <g transform="matrix(1.0012, 0, 0, 1.0012, 0, 0)">
    <g transform="matrix(0.0437, 0, 0, 0.0437, 0, 0)">
      <path d="M629.6, 56L605.7, 22.6C588.1, -2 554.2, -7.4 529.9, 10.4L317.9, 166.7C248.8, 217.6 205.5, 266.5 180.7, 295L242.9, 381.7C277.5, 366.5 336.6, 339.9 405.7, 289L617.8, 132.8C641.9, 115 647.2, 80.6 629.6, 56zM145.5, 433.1L102.3, 372.8C72.3, 398.8 55.3, 411 46.3, 417.6C27.1, 393.5 9.7, 408.6 8.9, 409.2C-1.4, 417.5 -3.1, 432.6 5.2, 442.9L53.1, 502.9C60.9, 512.7 75.9, 515.4 86.8, 506.6C89.6, 504.4 104.3, 490.1 89.1, 471C97.3, 465.1 113.7, 452.8 145.5, 433.1zM122.9, 354.8L168.9, 418.9C184.8, 409.8 201.2, 401.4 217.7, 393.4L161.9, 315.6C149.3, 329.1 136.4, 342.2 122.9, 354.8zM494.9, 352C450.8, 352 415.1, 387.8 415.1, 432C415.1, 476.2 450.8, 512 494.9, 512C539, 512 574.7, 476.2 574.7, 432C574.7, 387.8 539, 352 494.9, 352z" fill="#727272" fill-opacity="1" class="Black" />
    </g>
  </g>
</svg>