<?xml version='1.0' encoding='UTF-8'?>
<svg viewBox="-2 -4.7992 32 32" xmlns="http://www.w3.org/2000/svg">
  <g transform="matrix(0.9988, 0, 0, 0.9988, 0, 0)">
    <g transform="matrix(0.0438, 0, 0, 0.0438, 0, 0)">
      <path d="M64, 352L242.778, 352L228.605, 416L48, 416C21.49, 416 0, 394.51 0, 368L0, 144C0, 117.49 21.49, 96 48, 96L163.944, 96L156.281, 160L64, 160L64, 352zM428.778, 192L336.457, 192L364.151, 58.411C367.4, 45.087 358.205, 32 345.6, 32L236.8, 32C227.177, 32 219.04, 39.792 217.769, 50.225L192.171, 264C190.636, 276.59 199.603, 287.775 211.202, 287.775L306.163, 287.775L269.316, 454.157C266.44, 467.443 275.728, 480 287.993, 480C294.673, 480 301.094, 476.173 304.616, 469.519L445.394, 223.522C452.79, 209.55 443.564, 192 428.778, 192zM616, 160L608, 160L608, 144C608, 117.49 586.51, 96 560, 96L405.38, 96L395.429, 144L428.778, 144C444.89, 144 460.011, 149.762 471.893, 160L544, 160L544, 224L576, 224L576, 288L544, 288L544, 352L427.174, 352L390.548, 416L560, 416C586.51, 416 608, 394.51 608, 368L608, 352L616, 352C629.255, 352 640, 341.255 640, 328L640, 184C640, 170.745 629.255, 160 616, 160z" fill="#727272" fill-opacity="1" class="Black" />
    </g>
  </g>
</svg>