<?xml version='1.0' encoding='UTF-8'?>
<svg viewBox="-3.7494 -1.9999 32 32" xmlns="http://www.w3.org/2000/svg">
  <g transform="matrix(0.0547, 0, 0, 0.0547, 0, 0)">
    <path d="M224, 512A64 64 0 0 0 288, 448L160, 448A64 64 0 0 0 224, 512zM439.39, 362.29C420.07, 341.53 383.92, 310.29 383.92, 208C383.92, 130.3 329.44, 68.1 255.98, 52.84L255.98, 32A32 32 0 1 0 191.98, 32L191.98, 52.84C118.56, 68.1 64.08, 130.3 64.08, 208C64.08, 310.3 27.93, 341.53 8.61, 362.29A31.24 31.24 0 0 0 0, 384C0.11, 400.4 13, 416 32.1, 416L415.9, 416C435.02, 416 447.9, 400.4 448, 384A31.23 31.23 0 0 0 439.39, 362.29zM320, 248A16 16 0 0 1 304, 264L248, 264L248, 320A16 16 0 0 1 232, 336L216, 336A16 16 0 0 1 200, 320L200, 264L144, 264A16 16 0 0 1 128, 248L128, 232A16 16 0 0 1 144, 216L200, 216L200, 160A16 16 0 0 1 216, 144L232, 144A16 16 0 0 1 248, 160L248, 216L304, 216A16 16 0 0 1 320, 232z" fill="#727272" fill-opacity="1" class="Black" />
  </g>
</svg>