<?xml version='1.0' encoding='UTF-8'?>
<svg viewBox="-1.9975 -4.7973 32 32" xmlns="http://www.w3.org/2000/svg">
  <g transform="matrix(0.999, 0, 0, 0.999, 0, 0)">
    <g transform="matrix(0.0438, 0, 0, 0.0438, 0, 0)">
      <path d="M633.82, 458.1L543.2, 388.05C543.39, 386.67 544, 385.39 544, 383.99C544.05, 376.44 541.39, 368.72 535.39, 362.28C516.07, 341.52 479.92, 310.29 479.92, 207.99C479.92, 130.29 425.44, 68.09 351.98, 52.83L351.98, 32C351.98, 14.33 337.66, 0 320, 0C302.34, 0 288.02, 14.33 288.02, 32L288.02, 52.84C247.69, 61.22 213.36, 83.91 190.43, 115.41L45.47, 3.37C38.49, -2.05 28.43, -0.8 23.01, 6.18L3.37, 31.45C-2.05, 38.42 -0.8, 48.47 6.18, 53.9L594.53, 508.63C601.51, 514.06 611.56, 512.8 616.99, 505.82L636.63, 480.55C642.05, 473.58 640.8, 463.53 633.82, 458.1zM157.23, 251.54C148.62, 319.5 120.82, 344.87 104.61, 362.29C98.61, 368.74 95.95, 376.45 96, 384C96.11, 400.4 108.98, 416 128.1, 416L370.02, 416L157.23, 251.54zM320, 512C355.32, 512 383.97, 483.35 383.97, 448L256.03, 448C256.03, 483.35 284.68, 512 320, 512z" fill="#727272" fill-opacity="1" class="Black" />
    </g>
  </g>
</svg>