<?xml version='1.0' encoding='UTF-8'?>
<svg viewBox="-2 -2 32 32" xmlns="http://www.w3.org/2000/svg">
  <g transform="matrix(0.0547, 0, 0, 0.0547, 0, 0)">
    <path d="M416, 208C416, 93.12 322.88, 0 208, 0C93.12, 0 0, 93.12 0, 208C0, 322.88 93.12, 416 208, 416C322.88, 416 416, 322.88 416, 208zM128, 208C128, 163.89 163.89, 128 208, 128C252.11, 128 288, 163.89 288, 208C288, 252.11 252.11, 288 208, 288C163.89, 288 128, 252.11 128, 208zM256, 208C256, 181.49 234.51, 160 208, 160C181.49, 160 160, 181.49 160, 208C160, 234.51 181.49, 256 208, 256C234.51, 256 256, 234.51 256, 208zM464, 320C437.49, 320 416, 341.49 416, 368C416, 384.43 424.27, 398.89 436.86, 407.55C430.78, 421.9 416.55, 432 400, 432L352, 432L352, 399.54C311.83, 429.82 262.06, 448 208, 448C153.94, 448 104.17, 429.82 64, 399.54L64, 480C64, 497.67 78.33, 512 96, 512L320, 512C337.67, 512 352, 497.67 352, 480L400, 480C442.2, 480 477.48, 450.13 485.98, 410.44C501.37, 402.44 512, 386.54 512, 368C512, 341.49 490.51, 320 464, 320z" fill="#727272" fill-opacity="1" class="Black" />
  </g>
</svg>