<?xml version='1.0' encoding='UTF-8'?>
<svg viewBox="-1.9975 -4.7945 32 31.9975" xmlns="http://www.w3.org/2000/svg">
  <g transform="matrix(1.0012, 0, 0, 1.0012, 0, 0)">
    <g transform="matrix(0.0437, 0, 0, 0.0437, 0, 0)">
      <path d="M242, 253.9C214.1, 177.2 247, 93.3 315.7, 54.1C307.2, 48.5 298.2, 43.6 288.3, 40C219, 14.9 142.5, 50.6 117.3, 119.8C116.5, 121.9 102.6, 160.2 101.9, 162.4C72.7, 242.5 35.5, 256.7 14.5, 267.4C-5.6, 277.7 -5, 308 17.5, 316.2L260.8, 404.8C269.2, 385.6 280.3, 359.2 257.5, 296.6C247.7, 269.6 251.3, 279.5 242, 253.9zM138.1, 444.2C165.7, 454.3 195.6, 443.9 211.9, 421L96.5, 379C94.2, 406.9 110.4, 434.1 138.1, 444.2zM501.9, 476.2C529.5, 466.1 545.8, 439 543.5, 411L428.1, 453C444.4, 475.8 474.3, 486.2 501.9, 476.2zM625.6, 299.4C604.6, 288.7 567.3, 274.5 538.2, 194.4C537.4, 192.2 523.5, 153.9 522.8, 151.8C497.5, 82.6 421, 46.9 351.8, 72.1C282.6, 97.3 246.9, 173.8 272.1, 243C272.9, 245.1 286.9, 283.4 287.7, 285.6C316.9, 365.7 297.4, 400.5 288.2, 422.2C279.4, 442.9 299.4, 465.8 321.9, 457.6L622.5, 348.2C643, 340.7 647.4, 310.6 625.6, 299.4z" fill="#727272" fill-opacity="1" class="Black" />
    </g>
  </g>
</svg>