<?xml version='1.0' encoding='UTF-8'?>
<svg viewBox="-2 -1.9988 32 32" xmlns="http://www.w3.org/2000/svg">
  <g transform="matrix(0.0547, 0, 0, 0.0547, 0, 0)">
    <path d="M496, 64L16, 64A16 16 0 0 0 0, 80L0, 128L512, 128L512, 80A16 16 0 0 0 496, 64zM0, 400A48 48 0 0 0 48, 448L464, 448A48 48 0 0 0 512, 400L512, 160L0, 160zM288, 224L448, 224L448, 384L288, 384zM144, 224A80 80 0 1 1 64, 304A80 80 0 0 1 144, 224zM144, 336A32 32 0 1 0 112, 304A32 32 0 0 0 144, 336z" fill="#727272" fill-opacity="1" class="Black" />
  </g>
</svg>