<?xml version='1.0' encoding='UTF-8'?>
<svg viewBox="-2 -4.7992 32 32" xmlns="http://www.w3.org/2000/svg">
  <g transform="matrix(0.9988, 0, 0, 0.9988, 0, 0)">
    <g transform="matrix(0.0438, 0, 0, 0.0438, 0, 0)">
      <path d="M368, 32L272, 32C254.33, 32 240, 46.33 240, 64L240, 160C240, 177.67 254.33, 192 272, 192L368, 192C385.67, 192 400, 177.67 400, 160L400, 64C400, 46.33 385.67, 32 368, 32zM208, 88L123.25, 88C113.75, 64.56 90.84, 48 64, 48C28.66, 48 0, 76.65 0, 112C0, 147.35 28.66, 176 64, 176C90.84, 176 113.75, 159.44 123.25, 136L202.98, 136C147.61, 168.52 107.12, 223.32 93.44, 288L142.84, 288C154.14, 246.39 179.61, 210.79 213.88, 186.44C210.18, 178.36 208, 169.45 208, 160L208, 88zM160, 320L64, 320C46.33, 320 32, 334.33 32, 352L32, 448C32, 465.67 46.33, 480 64, 480L160, 480C177.67, 480 192, 465.67 192, 448L192, 352C192, 334.33 177.67, 320 160, 320zM576, 48C549.16, 48 526.25, 64.56 516.75, 88L432, 88L432, 160C432, 169.45 429.81, 178.36 426.12, 186.44C460.39, 210.79 485.86, 246.39 497.16, 288L546.56, 288C532.88, 223.32 492.39, 168.52 437.02, 136L516.75, 136C526.25, 159.44 549.16, 176 576, 176C611.34, 176 640, 147.35 640, 112C640, 76.65 611.34, 48 576, 48zM576, 320L480, 320C462.33, 320 448, 334.33 448, 352L448, 448C448, 465.67 462.33, 480 480, 480L576, 480C593.67, 480 608, 465.67 608, 448L608, 352C608, 334.33 593.67, 320 576, 320z" fill="#727272" fill-opacity="1" class="Black" />
    </g>
  </g>
</svg>