<?xml version='1.0' encoding='UTF-8'?>
<svg viewBox="-1.9975 -4.7992 31.9975 32" xmlns="http://www.w3.org/2000/svg">
  <g transform="matrix(0.9988, 0, 0, 0.9988, 0, 0)">
    <g transform="matrix(0.0438, 0, 0, 0.0438, 0, 0)">
      <path d="M512.509, 192.001C496.136, 191.937 480.479, 194.956 466.073, 200.496L388.393, 75.343A24 24 0 0 0 368.001, 64L304.001, 64C295.164, 64 288.001, 71.163 288.001, 80L288.001, 96C288.001, 104.837 295.164, 112 304.001, 112L354.65, 112L369.546, 136L256.002, 136L256.002, 120C256.002, 111.163 248.839, 104 240.002, 104L152.543, 104C139.102, 104 127.766, 114.999 128.007, 128.437C128.239, 141.481 138.883, 152 152.002, 152L200.728, 152L171.311, 199.52C157.878, 194.69 143.407, 192.037 128.319, 192C58.094, 191.83 0.412, 249.012 0.002, 319.236C-0.413, 390.279 57.055, 448 128.002, 448C187.644, 448 237.76, 407.207 251.969, 352L304.002, 352A24 24 0 0 0 324.408, 340.633L410.37, 201.77L425.308, 225.837C399.853, 249.285 383.923, 282.918 384.001, 320.274C384.146, 389.107 441.9, 447.325 510.73, 447.993C581.336, 448.678 638.911, 392.19 639.985, 321.997C641.071, 251.056 583.459, 192.277 512.509, 192.001zM186.75, 265.772C196.477, 276.301 203.423, 289.433 206.392, 304L163.086, 304L186.75, 265.772zM128.002, 400C83.89, 400 48.002, 364.112 48.002, 320C48.002, 275.888 83.89, 240 128.002, 240C133.871, 240 139.588, 240.653 145.101, 241.859L99.596, 315.368C89.715, 331.327 101.213, 352 120.002, 352L201.302, 352C188.932, 380.225 160.74, 400 128.002, 400zM290.632, 304L255.008, 304C251.048, 272.244 235.452, 244.106 212.625, 223.974L237.371, 184L364.918, 184L290.632, 304zM507.689, 399.886C466.653, 397.721 433.64, 364.194 432.062, 323.131C431.25, 302.01 438.695, 282.613 451.397, 267.868L495.83, 339.454C500.49, 346.962 510.354, 349.27 517.862, 344.61L531.456, 336.173C538.964, 331.513 541.273, 321.649 536.612, 314.141L492.144, 242.498A79.901 79.901 0 0 1 512.002, 240.001C556.114, 240.001 592.002, 275.889 592.002, 320.001C592.001, 365.541 553.75, 402.317 507.689, 399.886z" fill="#727272" fill-opacity="1" class="Black" />
    </g>
  </g>
</svg>