<?xml version='1.0' encoding='UTF-8'?>
<svg viewBox="-2 -1.9988 32 32" xmlns="http://www.w3.org/2000/svg">
  <g transform="matrix(0.0547, 0, 0, 0.0547, 0, 0)">
    <path d="M416, 48C416, 39.16 408.84, 32 400, 32L336, 32C327.16, 32 320, 39.16 320, 48L320, 96L416, 96L416, 48zM63.91, 159.99C61.4, 253.84 3.46, 274.22 0, 404L0, 448C0, 465.67 14.33, 480 32, 480L128, 480C145.67, 480 160, 465.67 160, 448L160, 288L192, 288L192, 128L95.84, 128C78.21, 128 64.39, 142.37 63.91, 159.99zM448.09, 159.99C447.61, 142.37 433.79, 128 416.16, 128L320, 128L320, 288L352, 288L352, 448C352, 465.67 366.33, 480 384, 480L480, 480C497.67, 480 512, 465.67 512, 448L512, 404C508.54, 274.22 450.6, 253.84 448.09, 159.99zM176, 32L112, 32C103.16, 32 96, 39.16 96, 48L96, 96L192, 96L192, 48C192, 39.16 184.84, 32 176, 32zM224, 288L288, 288L288, 128L224, 128L224, 288z" fill="#727272" fill-opacity="1" class="Black" />
  </g>
</svg>