<?xml version='1.0' encoding='UTF-8'?>
<svg viewBox="-2.0025 -3.5481 32 31.9975" xmlns="http://www.w3.org/2000/svg">
  <g transform="matrix(0.0486, 0, 0, 0.0486, 0, 0)">
    <path d="M287.9, 112C306.5, 112 324.1, 115.8 340.7, 121.6C354, 111.3 364.3, 97.3 370.2, 80.9C345, 70 317.2, 63.9 288, 63.9C258.9, 63.9 231.1, 69.9 205.9, 80.8C211.8, 97.2 222.1, 111.2 235.4, 121.5C251.9, 115.8 269.4, 112 287.9, 112zM163.6, 438.7C175.6, 426.9 184, 412.3 188.1, 396.3C155.2, 369.9 133.3, 331 129.2, 286.7C120.7, 283.9 112, 282.1 102.8, 282.1C95.2, 282.1 87.6, 283.1 80.3, 285.2C84.4, 348 116.1, 403.2 163.6, 438.7zM387.8, 396.1C391.9, 412.1 400.3, 426.8 412.3, 438.6C459.7, 403.1 491.4, 347.9 495.3, 285.1C488.1, 283.1 480.6, 282.1 473.1, 282.1C463.9, 282.1 455.1, 284 446.5, 286.8C442.4, 331 420.5, 369.7 387.8, 396.1zM501.3, 191.1C483.7, 180.7 465, 174.5 446, 171.2C452, 153.5 456, 134.8 456, 115C456, 74 441.5, 34.2 415, 2.8C412.5, -0.2 408.4, -0.9 405, 1C401.7, 2.9 400.2, 7 401.4, 10.7C405.9, 24.5 408, 37 408, 49.2C408, 117 354.2, 172.1 288, 172.1C221.8, 172.1 168, 117 168, 49.2C168, 37.1 170.2, 24.5 174.6, 10.7C175.8, 7 174.3, 2.9 171, 1C167.6, -0.9 163.5, -0.2 161, 2.8C134.6, 34.2 120, 74 120, 115C120, 134.8 123.9, 153.5 130, 171.2C111.1, 174.5 92.3, 180.7 74.7, 191.1C40.1, 211.6 13.7, 244.4 0.4, 283.5C-0.9, 287.2 0.6, 291.2 3.9, 293.3C7.2, 295.3 11.4, 294.6 13.9, 291.7C23.3, 280.9 32.9, 272.6 43.1, 266.6C100.4, 232.7 173.9, 252.9 207, 311.6C240.1, 370.3 220.4, 445.6 163.1, 479.5C152.9, 485.6 141.1, 489.9 127.3, 492.9C123.6, 493.7 120.9, 497.1 120.9, 501C121, 505 123.6, 508.3 127.4, 509C167.1, 516.8 208, 509.8 242.6, 489.3C260.6, 478.7 275.5, 464.8 287.9, 449.2C300.3, 464.8 315.2, 478.7 333.2, 489.3C367.8, 509.8 408.7, 516.8 448.4, 509C452.2, 508.3 454.8, 505 454.9, 501C454.9, 497.1 452.3, 493.7 448.5, 492.9C434.6, 490 422.9, 485.6 412.7, 479.5C355.4, 445.6 335.7, 370.3 368.8, 311.6C401.9, 252.9 475.4, 232.7 532.7, 266.6C542.9, 272.7 552.5, 280.9 561.9, 291.7C564.4, 294.6 568.6, 295.3 571.9, 293.3C575.2, 291.3 576.7, 287.2 575.4, 283.5C562.3, 244.4 535.9, 211.5 501.3, 191.1zM287.9, 320.1C261.4, 320.1 239.9, 298.6 239.9, 272.1C239.9, 245.6 261.4, 224.1 287.9, 224.1C314.4, 224.1 335.9, 245.6 335.9, 272.1C335.9, 298.6 314.4, 320.1 287.9, 320.1z" fill="#727272" fill-opacity="1" class="Black" />
  </g>
</svg>