<?xml version='1.0' encoding='UTF-8'?>
<svg viewBox="-3.7495 -2 32 32" xmlns="http://www.w3.org/2000/svg">
  <g transform="matrix(0.0547, 0, 0, 0.0547, 0, 0)">
    <path d="M448, 384C419.98, 384 416.74, 352 373.5, 352C330.07, 352 326.675, 384 298.75, 384C271.055, 384 267.296, 352 224, 352C181.158, 352 176.782, 384 149.5, 384C121.352, 384 118.298, 352 74.75, 352C31.203, 352 28.097, 384 0, 384L0, 304C0, 277.5 21.5, 256 48, 256L64, 256L64, 112L128, 112L128, 256L192, 256L192, 112L256, 112L256, 256L320, 256L320, 112L384, 112L384, 256L400, 256C426.5, 256 448, 277.5 448, 304L448, 384zM448, 512L0, 512L0, 416C43.356, 416 46.767, 384 74.75, 384C102.701, 384 106.003, 416 149.5, 416C192.343, 416 196.717, 384 224, 384C252.148, 384 255.201, 416 298.75, 416C342.107, 416 345.517, 384 373.5, 384C400.988, 384 404.752, 416 448, 416L448, 512zM96, 96C78.25, 96 64, 81.75 64, 64C64, 33 96, 41 96, 0C108, 0 128, 29.5 128, 56C128, 82.5 113.75, 96 96, 96zM224, 96C206.25, 96 192, 81.75 192, 64C192, 33 224, 41 224, 0C236, 0 256, 29.5 256, 56C256, 82.5 241.75, 96 224, 96zM352, 96C334.25, 96 320, 81.75 320, 64C320, 33 352, 41 352, 0C364, 0 384, 29.5 384, 56C384, 82.5 369.75, 96 352, 96z" fill="#727272" fill-opacity="1" class="Black" />
  </g>
</svg>