<?xml version='1.0' encoding='UTF-8'?>
<svg viewBox="-1.9999 -2.0011 31.9975 32" xmlns="http://www.w3.org/2000/svg">
  <g transform="matrix(0.0547, 0, 0, 0.0547, 0, 0)">
    <path d="M172.2, 226.8C157.6, 223.9 144, 235.7 144, 250.6L144, 301C144, 311.2 151.1, 319.4 160.7, 323C178.9, 329.8 192, 347.4 192, 368C192, 394.5 170.5, 416 144, 416C117.5, 416 96, 394.5 96, 368L96, 120C96, 106.7 85.3, 96 72, 96L24, 96C10.7, 96 0, 106.7 0, 120L0, 368C0, 457.5 82.1, 528.2 175, 508.7C229.4, 497.3 273.3, 453.3 284.7, 399C302.1, 316.1 247.7, 241.8 172.2, 226.8zM209, 0C199.8, -0.5 192, 6.8 192, 16L192, 47.6C192, 56.1 198.6, 63.1 207, 63.5C336.4, 70.5 440.4, 175.5 447.9, 305C448.4, 313.4 455.4, 320 463.8, 320L495.9, 320C505.1, 320 512.4, 312.2 511.9, 303C503.4, 139.8 372.2, 8.6 209, 0zM209.3, 96C200, 95.3 192, 102.7 192, 112.1L192, 144.2C192, 152.6 198.5, 159.5 206.8, 160.1C283.6, 166.4 344.8, 228.3 351.7, 305.3C352.5, 313.6 359.3, 320 367.6, 320L399.8, 320C409.1, 320 416.6, 312 415.9, 302.7C407.5, 192.6 319.4, 104.5 209.3, 96z" fill="#727272" fill-opacity="1" class="Black" />
  </g>
</svg>