<?xml version='1.0' encoding='UTF-8'?>
<svg viewBox="-3.4088 0 32 32" xmlns="http://www.w3.org/2000/svg">
  <g transform="matrix(0.0625, 0, 0, 0.0625, 0, 0)">
    <path d="M333.49, 238A122 122 0 0 0 360.49, 172.79C367.87, 96.49 308, 32 233.42, 32L34, 32A16 16 0 0 0 18, 48L18, 96A16 16 0 0 0 34, 112L65.87, 112L65.87, 400L34, 400A16 16 0 0 0 18, 416L18, 464A16 16 0 0 0 34, 480L243.32, 480C314.12, 480 377.46, 428.25 384.32, 357.6C389.06, 309.15 367.93, 265.54 333.49, 238zM145.66, 112L233.42, 112A48 48 0 0 1 233.42, 208L145.66, 208zM233.42, 400L145.66, 400L145.66, 288L233.42, 288A56 56 0 0 1 233.42, 400z" fill="#727272" fill-opacity="1" class="Black" />
  </g>
</svg>