<?xml version='1.0' encoding='UTF-8'?>
<svg viewBox="-3.7494 -1.9999 32 32" xmlns="http://www.w3.org/2000/svg">
  <g transform="matrix(0.0547, 0, 0, 0.0547, 0, 0)">
    <path d="M448, 360L448, 24C448, 10.7 437.3, 0 424, 0L96, 0C43, 0 0, 43 0, 96L0, 416C0, 469 43, 512 96, 512L424, 512C437.3, 512 448, 501.3 448, 488L448, 472C448, 464.5 444.5, 457.7 439.1, 453.3C434.9, 437.9 434.9, 394 439.1, 378.6C444.5, 374.3 448, 367.5 448, 360zM128, 134C128, 130.7 130.7, 128 134, 128L346, 128C349.3, 128 352, 130.7 352, 134L352, 154C352, 157.3 349.3, 160 346, 160L134, 160C130.7, 160 128, 157.3 128, 154L128, 134zM128, 198C128, 194.7 130.7, 192 134, 192L346, 192C349.3, 192 352, 194.7 352, 198L352, 218C352, 221.3 349.3, 224 346, 224L134, 224C130.7, 224 128, 221.3 128, 218L128, 198zM381.4, 448L96, 448C78.3, 448 64, 433.7 64, 416C64, 398.4 78.4, 384 96, 384L381.4, 384C379.5, 401.1 379.5, 430.9 381.4, 448z" fill="#727272" fill-opacity="1" class="Black" />
  </g>
</svg>