<?xml version='1.0' encoding='UTF-8'?>
<svg viewBox="-3.7494 -1.9999 32 32" xmlns="http://www.w3.org/2000/svg">
  <g transform="matrix(0.0547, 0, 0, 0.0547, 0, 0)">
    <path d="M448, 360L448, 24C448, 10.7 437.3, 0 424, 0L96, 0C43, 0 0, 43 0, 96L0, 416C0, 469 43, 512 96, 512L424, 512C437.3, 512 448, 501.3 448, 488L448, 472C448, 464.5 444.5, 457.7 439.1, 453.3C434.9, 437.9 434.9, 394 439.1, 378.6C444.5, 374.3 448, 367.5 448, 360zM149.8, 109.1C173.8, 89.1 209.5, 92.7 231.4, 114.9L240, 123.6L248.6, 114.9C270.6, 92.7 306.3, 89.1 330.2, 109.1C357.7, 132.1 359.1, 173.3 334.5, 198.2L249.8, 283.8C244.3, 289.3 235.5, 289.3 230, 283.8L145.3, 198.2C120.8, 173.3 122.3, 132.1 149.8, 109.1zM381.4, 448L96, 448C78.3, 448 64, 433.7 64, 416C64, 398.4 78.4, 384 96, 384L381.4, 384C379.5, 401.1 379.5, 430.9 381.4, 448z" fill="#727272" fill-opacity="1" class="Black" />
  </g>
</svg>