<?xml version='1.0' encoding='UTF-8'?>
<svg viewBox="-3.7495 -2 32 32" xmlns="http://www.w3.org/2000/svg">
  <g transform="matrix(0.0547, 0, 0, 0.0547, 0, 0)">
    <path d="M448, 358.4L448, 25.6C448, 9.6 438.4, 0 422.4, 0L96, 0C41.6, 0 0, 41.6 0, 96L0, 416C0, 470.4 41.6, 512 96, 512L422.4, 512C435.2, 512 448, 502.4 448, 486.4L448, 470.4Q448, 460.8 438.4, 451.2C435.2, 435.2 435.2, 390.4 438.4, 377.6Q448, 372.8 448, 358.4zM240, 64A64 64 0 1 1 176, 128A64 64 0 0 1 240, 64zM128, 281.6C128, 249.79 158.09, 224 195.2, 224L200.2, 224A103.25 103.25 0 0 0 279.9, 224L284.85, 224C321.96, 224 352.05, 249.79 352.05, 281.6L352.05, 300.8C352.05, 311.41 342.05, 320 329.65, 320L150.4, 320C138, 320 128, 311.4 128, 300.8zM380.8, 448L96, 448C76.8, 448 64, 435.2 64, 416C64, 396.8 80, 384 96, 384L380.8, 384z" fill="#727272" fill-opacity="1" class="Black" />
  </g>
</svg>