<?xml version='1.0' encoding='UTF-8'?>
<svg viewBox="-1.9998 -4.7991 31.9975 32" xmlns="http://www.w3.org/2000/svg">
  <g transform="matrix(0.9989, 0, 0, 0.9989, 0, 0)">
    <g transform="matrix(0.0438, 0, 0, 0.0438, 0, 0)">
      <path d="M128, 128A128 128 0 1 0 256, 256A128 128 0 0 0 128, 128zM192, 272A5.33 5.33 0 0 1 186.67, 277.33L149.33, 277.33L149.33, 314.67A5.33 5.33 0 0 1 144, 320L112, 320A5.33 5.33 0 0 1 106.67, 314.67L106.67, 277.33L69.33, 277.33A5.33 5.33 0 0 1 64, 272L64, 240A5.33 5.33 0 0 1 69.33, 234.67L106.67, 234.67L106.67, 197.33A5.33 5.33 0 0 1 112, 192L144, 192A5.33 5.33 0 0 1 149.33, 197.33L149.33, 234.67L186.67, 234.67A5.33 5.33 0 0 1 192, 240zM64, 480A32 32 0 0 0 96, 512L160, 512A32 32 0 0 0 192, 480L192, 416L64, 416zM192, 32A32 32 0 0 0 160, 0L96, 0A32 32 0 0 0 64, 32L64, 96L192, 96zM639.11, 443.25L525.51, 19.06C522.2, 6.7 509.61, -3.18 494.15, 1L478.7, 5.1Q469.43, 7.59 462.64, 19.34C448.64, 26.28 410.34, 36.55 394.64, 37.56Q382.88, 30.76 373.64, 33.26L358.15, 37.4C355.73, 38.05 353.95, 39.4 352, 40.48L352, 32A32 32 0 0 0 320, 0L256, 0A32 32 0 0 0 224, 32L224, 96L352, 96L453.66, 492.94C457, 505.3 469.56, 515.18 485, 511L500.45, 506.86Q509.72, 504.37 516.51, 492.62C530.42, 485.74 568.69, 475.42 584.51, 474.4Q596.27, 481.2 605.51, 478.7L621, 474.6C636.47, 470.46 642.43, 455.61 639.11, 443.25zM504.71, 436.19L412.64, 92.37L474.46, 75.81L566.53, 419.63zM224, 128.81C262.62, 158.05 288, 203.93 288, 256C288, 308.07 262.62, 354 224, 383.19L224, 384L352, 384L352, 128L224, 128zM224, 480A32 32 0 0 0 256, 512L320, 512A32 32 0 0 0 352, 480L352, 416L224, 416z" fill="#727272" fill-opacity="1" class="Black" />
    </g>
  </g>
</svg>