<?xml version='1.0' encoding='UTF-8'?>
<svg viewBox="-3.7495 -2 32 32" xmlns="http://www.w3.org/2000/svg">
  <g transform="matrix(0.0547, 0, 0, 0.0547, 0, 0)">
    <path d="M448, 358.4L448, 25.6C448, 9.6 438.4, 0 422.4, 0L96, 0C41.6, 0 0, 41.6 0, 96L0, 416C0, 470.4 41.6, 512 96, 512L422.4, 512C435.2, 512 448, 502.4 448, 486.4L448, 470.4Q448, 460.8 438.4, 451.2C435.2, 435.2 435.2, 390.4 438.4, 377.6Q448, 372.8 448, 358.4zM144, 168A8 8 0 0 1 152, 160L208, 160L208, 104A8 8 0 0 1 216, 96L264, 96A8 8 0 0 1 272, 104L272, 160L328, 160A8 8 0 0 1 336, 168L336, 216A8 8 0 0 1 328, 224L272, 224L272, 280A8 8 0 0 1 264, 288L216, 288A8 8 0 0 1 208, 280L208, 224L152, 224A8 8 0 0 1 144, 216zM380.8, 448L96, 448C76.8, 448 64, 435.2 64, 416C64, 396.8 80, 384 96, 384L380.8, 384z" fill="#727272" fill-opacity="1" class="Black" />
  </g>
</svg>