<?xml version='1.0' encoding='UTF-8'?>
<svg viewBox="-2 0 32 32" xmlns="http://www.w3.org/2000/svg">
  <g transform="matrix(0.0625, 0, 0, 0.0625, 0, 0)">
    <path d="M448, 272L448, 240A16 16 0 0 0 432, 224L400, 224A16 16 0 0 0 384, 240L384, 272A16 16 0 0 0 400, 288L432, 288A16 16 0 0 0 448, 272zM448, 176L448, 144A16 16 0 0 0 432, 128L400, 128A16 16 0 0 0 384, 144L384, 176A16 16 0 0 0 400, 192L432, 192A16 16 0 0 0 448, 176zM384, 48L384, 80A16 16 0 0 0 400, 96L432, 96A16 16 0 0 0 448, 80L448, 48A16 16 0 0 0 432, 32L400, 32A16 16 0 0 0 384, 48zM448, 368L448, 336A16 16 0 0 0 432, 320L400, 320A16 16 0 0 0 384, 336L384, 368A16 16 0 0 0 400, 384L432, 384A16 16 0 0 0 448, 368zM288, 48L288, 80A16 16 0 0 0 304, 96L336, 96A16 16 0 0 0 352, 80L352, 48A16 16 0 0 0 336, 32L304, 32A16 16 0 0 0 288, 48zM96, 48L96, 80A16 16 0 0 0 112, 96L144, 96A16 16 0 0 0 160, 80L160, 48A16 16 0 0 0 144, 32L112, 32A16 16 0 0 0 96, 48zM352, 272L352, 240A16 16 0 0 0 336, 224L304, 224A16 16 0 0 0 288, 240L288, 272A16 16 0 0 0 304, 288L336, 288A16 16 0 0 0 352, 272zM160, 272L160, 240A16 16 0 0 0 144, 224L112, 224A16 16 0 0 0 96, 240L96, 272A16 16 0 0 0 112, 288L144, 288A16 16 0 0 0 160, 272zM64, 272L64, 240A16 16 0 0 0 48, 224L16, 224A16 16 0 0 0 0, 240L0, 272A16 16 0 0 0 16, 288L48, 288A16 16 0 0 0 64, 272zM64, 176L64, 144A16 16 0 0 0 48, 128L16, 128A16 16 0 0 0 0, 144L0, 176A16 16 0 0 0 16, 192L48, 192A16 16 0 0 0 64, 176zM0, 48L0, 80A16 16 0 0 0 16, 96L48, 96A16 16 0 0 0 64, 80L64, 48A16 16 0 0 0 48, 32L16, 32A16 16 0 0 0 0, 48zM448, 464L448, 432A16 16 0 0 0 432, 416L400, 416A16 16 0 0 0 384, 432L384, 464A16 16 0 0 0 400, 480L432, 480A16 16 0 0 0 448, 464zM352, 464L352, 432A16 16 0 0 0 336, 416L304, 416A16 16 0 0 0 288, 432L288, 464A16 16 0 0 0 304, 480L336, 480A16 16 0 0 0 352, 464zM160, 464L160, 432A16 16 0 0 0 144, 416L112, 416A16 16 0 0 0 96, 432L96, 464A16 16 0 0 0 112, 480L144, 480A16 16 0 0 0 160, 464zM64, 464L64, 432A16 16 0 0 0 48, 416L16, 416A16 16 0 0 0 0, 432L0, 464A16 16 0 0 0 16, 480L48, 480A16 16 0 0 0 64, 464zM64, 368L64, 336A16 16 0 0 0 48, 320L16, 320A16 16 0 0 0 0, 336L0, 368A16 16 0 0 0 16, 384L48, 384A16 16 0 0 0 64, 368zM192, 48L192, 464A16 16 0 0 0 208, 480L240, 480A16 16 0 0 0 256, 464L256, 48A16 16 0 0 0 240, 32L208, 32A16 16 0 0 0 192, 48z" fill="#727272" fill-opacity="1" class="Black" />
  </g>
</svg>