<?xml version='1.0' encoding='UTF-8'?>
<svg viewBox="-2 -1.9975 32 31.9975" xmlns="http://www.w3.org/2000/svg">
  <g transform="matrix(0.0547, 0, 0, 0.0547, 0, 0)">
    <path d="M145.78, 287.03L191.04, 241.78L100.46, 151.2C128.24, 136.08 159.49, 128 192, 128C224.03, 128 254.86, 135.79 282.33, 150.47L328.94, 103.86C288.35, 78.03 241.3, 64 192, 64C142.22, 64 94.71, 78.27 53.84, 104.59L49.94, 100.69C43.69, 94.44 33.56, 94.44 27.31, 100.69L4.69, 123.31C-1.56, 129.56 -1.56, 139.69 4.69, 145.94L145.78, 287.03zM408.14, 182.39L361.53, 229C376.21, 256.47 384, 287.3 384, 319.33C384, 351.84 375.92, 383.1 360.8, 410.88L270.22, 320.3L224.96, 365.56L366.72, 507.32C372.97, 513.57 383.1, 513.57 389.35, 507.32L411.98, 484.69C418.23, 478.44 418.23, 468.31 411.98, 462.06L407.41, 457.49C433.74, 416.63 448, 369.11 448, 319.33C448, 270.04 433.97, 222.98 408.14, 182.39zM493.22, 0.31L364.63, 26.03C352.34, 28.49 347.75, 43.65 356.61, 52.52L391.08, 86.99L140.44, 337.62L90.74, 321.05A20.578 20.578 0 0 0 69.7, 326.01L6.03, 389.69C-4.77, 400.49 -0.43, 418.89 14.07, 423.73L69.73, 442.28L88.28, 497.93C93.11, 512.43 111.51, 516.77 122.32, 505.97L185.99, 442.3A20.56 20.56 0 0 0 190.96, 421.26L174.39, 371.56L425.03, 120.92L459.5, 155.39C468.36, 164.25 483.53, 159.66 485.99, 147.37L511.71, 18.78C513.88, 7.8 504.2, -1.88 493.22, 0.31z" fill="#727272" fill-opacity="1" class="Black" />
  </g>
</svg>