<?xml version='1.0' encoding='UTF-8'?>
<svg viewBox="-3.7483 -2 32 32" xmlns="http://www.w3.org/2000/svg">
  <g transform="matrix(0.0547, 0, 0, 0.0547, 0, 0)">
    <path d="M314.8, 160C314, 124.2 293.9, 100.9 296, 64C297.9, 29.8 318.7, 0.1 352, 0C385.4, 0.1 406.1, 29.7 408, 64C410.1, 100.9 390, 124.3 389.2, 160L314.8, 160zM443.7, 320C432.9, 271.9 403.8, 237.2 393, 192L311.1, 192C300.3, 237.2 271.2, 271.9 260.4, 320C248.9, 371.1 261, 460.5 287.1, 512L417.1, 512C443.1, 460.5 455.1, 371 443.7, 320zM133.2, 160C134, 124.2 154.1, 100.9 152, 64C150.1, 29.8 129.3, 0.1 96, 0C62.6, 0.1 41.9, 29.8 40, 64C37.9, 100.9 58, 124.2 58.8, 160L133.2, 160zM136.9, 192L55.1, 192C44.3, 237.2 15.1, 271.9 4.4, 320C-7.1, 371.1 4.9, 460.5 31, 512L161, 512C187.1, 460.5 199.1, 371.1 187.7, 320C176.9, 271.9 147.7, 237.2 136.9, 192z" fill="#727272" fill-opacity="1" class="Black" />
  </g>
</svg>