<?xml version='1.0' encoding='UTF-8'?>
<svg viewBox="-1.9999 -1.549 31.9975 32" xmlns="http://www.w3.org/2000/svg">
  <g transform="matrix(0.999, 0, 0, 0.999, 0, 0)">
    <g transform="matrix(0.0565, 0, 0, 0.0565, 0, 0)">
      <path d="M248, 8C111, 8 0, 119 0, 256C0, 393 111, 504 248, 504C385, 504 496, 393 496, 256C496, 119 385, 8 248, 8zM120, 192C102.3, 192 88, 177.7 88, 160C88, 142.3 102.3, 128 120, 128C137.7, 128 152, 142.3 152, 160C152, 177.7 137.7, 192 120, 192zM184, 96C184, 78.3 198.3, 64 216, 64C233.7, 64 248, 78.3 248, 96C248, 113.7 233.7, 128 216, 128C198.3, 128 184, 113.7 184, 96zM232, 240C214.3, 240 200, 225.7 200, 208C200, 190.3 214.3, 176 232, 176C249.7, 176 264, 190.3 264, 208C264, 225.7 249.7, 240 232, 240z" fill="#727272" fill-opacity="1" class="Black" />
    </g>
  </g>
</svg>