<?xml version='1.0' encoding='UTF-8'?>
<svg viewBox="-1.9998 -3.5563 31.9975 32" xmlns="http://www.w3.org/2000/svg">
  <g transform="matrix(0.0486, 0, 0, 0.0486, 0, 0)">
    <path d="M432, 192L431.5, 16.6C431.5, 7.8 424.3, 0.6 415.5, 0.6L159.7, 0C150.8, 0 143.5, 7.2 143.5, 16.2L144, 192L432, 192zM0, 320L0, 480C0, 497.7 14.3, 512 32, 512L544, 512C561.7, 512 576, 497.7 576, 480L576, 320L0, 320zM574.7, 288C575.1, 287.5 575.2, 287.3 575.5, 286.8L520, 148.2C515.1, 136.1 503.4, 128.1 490.3, 128.1L463.7, 128.1L463.9, 192.1L479.9, 224.1L95.5, 224.1L111.5, 192.1L112, 192.1L111.8, 128.1L85.7, 128.1C72.6, 128.1 60.9, 136.1 56, 148.2L0.4, 286.8C0.7, 287.3 0.9, 287.5 1.2, 288L574.7, 288z" fill="#727272" fill-opacity="1" class="Black" />
  </g>
</svg>