<?xml version='1.0' encoding='UTF-8'?>
<svg viewBox="-2 -4.7992 32 32" xmlns="http://www.w3.org/2000/svg">
  <g transform="matrix(0.9988, 0, 0, 0.9988, 0, 0)">
    <g transform="matrix(0.0438, 0, 0, 0.0438, 0, 0)">
      <path d="M240, 0L98.6, 0C77.9, 0 59.6, 13.2 53.1, 32.8L2.5, 184.6C1.7, 187 1.7, 189.5 1.3, 192L240, 192L240, 0zM475.2, 81.7L458.9, 32.9C452.4, 13.2 434.1, 0 413.4, 0L272, 0L272, 157.4C315.9, 109.9 378.4, 80 448, 80C457.2, 80 466.3, 80.6 475.2, 81.7zM208, 320C208, 285.9 215.3, 253.4 228.2, 224L0, 224L0, 464C0, 490.5 21.5, 512 48, 512L304.6, 512C246.1, 468.2 208, 398.6 208, 320zM448, 128C342, 128 256, 214 256, 320C256, 426 342, 512 448, 512C554, 512 640, 426 640, 320C640, 214 554, 128 448, 128zM562.1, 275.8L431.1, 405.8C426.8, 410.1 419.8, 410.1 415.5, 405.7L339.8, 329.4C335.5, 325.1 335.6, 318.1 339.9, 313.8L365.9, 288C370.2, 283.7 377.2, 283.8 381.5, 288.1L423.6, 330.6L520.8, 234.2C525.1, 229.9 532.1, 230 536.4, 234.3L562.2, 260.3C566.4, 264.6 566.4, 271.6 562.1, 275.8z" fill="#727272" fill-opacity="1" class="Black" />
    </g>
  </g>
</svg>