<?xml version='1.0' encoding='UTF-8'?>
<svg viewBox="-2 0 32 32" xmlns="http://www.w3.org/2000/svg">
  <g transform="matrix(0.0625, 0, 0, 0.0625, 0, 0)">
    <path d="M447.6, 158.8L391.3, 53.9C386.9, 40.8 374.7, 32 360.9, 32L240, 32L240, 160L446.7, 160C447.1, 159.5 447.2, 159.3 447.6, 158.8zM0, 192L0, 448C0, 465.7 14.3, 480 32, 480L416, 480C433.7, 480 448, 465.7 448, 448L448, 192L0, 192zM305.1, 341.2L232.5, 412.6C227.8, 417.2 220.2, 417.2 215.5, 412.6L142.9, 341.2C121.8, 320.5 123.1, 286.1 146.6, 267C167.1, 250.3 197.7, 253.3 216.6, 271.8L224, 279.1L231.4, 271.8C250.2, 253.3 280.8, 250.3 301.4, 267C324.9, 286.1 326.1, 320.4 305.1, 341.2zM208, 160L208, 32L87.1, 32C73.3, 32 61.1, 40.8 56.7, 53.9L0.4, 158.8C0.8, 159.3 0.9, 159.5 1.3, 160L208, 160z" fill="#727272" fill-opacity="1" class="Black" />
  </g>
</svg>