<?xml version='1.0' encoding='UTF-8'?>
<svg viewBox="-2 0 32 32" xmlns="http://www.w3.org/2000/svg">
  <g transform="matrix(0.0625, 0, 0, 0.0625, 0, 0)">
    <path d="M447.6, 158.8L391.3, 53.9C386.9, 40.8 374.7, 32 360.9, 32L240, 32L240, 160L446.7, 160C447.1, 159.5 447.2, 159.3 447.6, 158.8zM208, 160L208, 32L87.1, 32C73.3, 32 61.1, 40.8 56.7, 53.9L0.4, 158.8C0.8, 159.3 0.9, 159.5 1.3, 160L208, 160zM0, 192L0, 448C0, 465.7 14.3, 480 32, 480L416, 480C433.7, 480 448, 465.7 448, 448L448, 192L0, 192zM240, 415.9L240, 432C240, 436.4 236.4, 440 232, 440L216, 440C211.6, 440 208, 436.4 208, 432L208, 415.7C196.7, 415.1 185.7, 411.2 176.6, 404.4C172.7, 401.5 172.5, 395.6 176, 392.3L187.8, 381.1C190.6, 378.5 194.7, 378.3 197.9, 380.4C201.8, 382.8 206.2, 384.1 210.7, 384.1L238.8, 384.1C245.3, 384.1 250.6, 378.2 250.6, 370.9C250.6, 364.9 247, 359.7 241.8, 358.2L196.8, 344.7C178.2, 339.1 165.2, 321.3 165.2, 301.3C165.2, 276.8 184.2, 256.9 207.9, 256.2L207.9, 240C207.9, 235.6 211.5, 232 215.9, 232L231.9, 232C236.3, 232 239.9, 235.6 239.9, 240L239.9, 256.3C251.2, 256.9 262.2, 260.8 271.3, 267.6C275.2, 270.5 275.4, 276.4 271.9, 279.7L260.2, 291C257.4, 293.6 253.3, 293.8 250.1, 291.7C246.2, 289.3 241.8, 288 237.3, 288L209.2, 288C202.7, 288 197.4, 293.9 197.4, 301.2C197.4, 307.2 201, 312.4 206.2, 313.9L251.2, 327.4C269.8, 333 282.8, 350.8 282.8, 370.8C282.7, 395.3 263.6, 415.3 240, 415.9z" fill="#727272" fill-opacity="1" class="Black" />
  </g>
</svg>