<?xml version='1.0' encoding='UTF-8'?>
<svg viewBox="-2 0 32 32" xmlns="http://www.w3.org/2000/svg">
  <g transform="matrix(0.0625, 0, 0, 0.0625, 0, 0)">
    <path d="M446.7, 160C447.1, 159.5 447.2, 159.3 447.6, 158.8L391.3, 53.9C386.9, 40.8 374.7, 32 360.9, 32L256, 32L288, 160L446.7, 160zM160, 160L192, 32L87.1, 32C73.3, 32 61.1, 40.8 56.7, 53.9L0.4, 158.8C0.8, 159.3 0.9, 159.5 1.3, 160L160, 160zM288, 192L288, 272C288, 280.8 280.8, 288 272, 288L176, 288C167.2, 288 160, 280.8 160, 272L160, 192L0, 192L0, 448C0, 465.7 14.3, 480 32, 480L416, 480C433.7, 480 448, 465.7 448, 448L448, 192L288, 192z" fill="#727272" fill-opacity="1" class="Black" />
  </g>
</svg>