<?xml version='1.0' encoding='UTF-8'?>
<svg viewBox="-2 0 32 32" xmlns="http://www.w3.org/2000/svg">
  <g transform="matrix(0.0625, 0, 0, 0.0625, 0, 0)">
    <path d="M416, 32L32, 32C14.3, 32 0, 46.3 0, 64L0, 448C0, 465.7 14.3, 480 32, 480L416, 480C433.7, 480 448, 465.7 448, 448L448, 64C448, 46.3 433.7, 32 416, 32zM57.8, 179L121.8, 99C124.8, 95.2 131.3, 95.2 134.3, 99L198.3, 179C202.5, 184.2 198.7, 192 192.1, 192L160.1, 192L160.1, 304C160.1, 312.8 152.9, 320 144.1, 320L112.1, 320C103.3, 320 96.1, 312.8 96.1, 304L96.1, 192L64, 192C57.3, 192 53.6, 184.2 57.8, 179zM384, 408C384, 412.4 380.4, 416 376, 416L72, 416C67.6, 416 64, 412.4 64, 408L64, 392C64, 387.6 67.6, 384 72, 384L376, 384C380.4, 384 384, 387.6 384, 392L384, 408zM384, 192L352, 192L352, 304C352, 312.8 344.8, 320 336, 320L304, 320C295.2, 320 288, 312.8 288, 304L288, 192L256, 192C249.3, 192 245.6, 184.2 249.8, 179L313.8, 99C316.8, 95.2 323.3, 95.2 326.3, 99L390.3, 179C394.4, 184.2 390.7, 192 384, 192z" fill="#727272" fill-opacity="1" class="Black" />
  </g>
</svg>