<?xml version='1.0' encoding='UTF-8'?>
<svg viewBox="-2 -2 32 32" xmlns="http://www.w3.org/2000/svg">
  <g transform="matrix(0.0547, 0, 0, 0.0547, 0, 0)">
    <path d="M509.5, 184.6L458.9, 32.8C452.4, 13.2 434.1, 0 413.4, 0L272, 0L272, 192L510.7, 192C510.3, 189.5 510.3, 187 509.5, 184.6zM240, 0L98.6, 0C77.9, 0 59.6, 13.2 53.1, 32.8L2.5, 184.6C1.7, 187 1.7, 189.5 1.3, 192L240, 192L240, 0zM0, 224L0, 464C0, 490.5 21.5, 512 48, 512L464, 512C490.5, 512 512, 490.5 512, 464L512, 224L0, 224z" fill="#727272" fill-opacity="1" class="Black" />
  </g>
</svg>