<?xml version='1.0' encoding='UTF-8'?>
<svg viewBox="-2 0 32 32" xmlns="http://www.w3.org/2000/svg">
  <g transform="matrix(0.0625, 0, 0, 0.0625, 0, 0)">
    <path d="M144, 32L32, 32A32 32 0 0 0 0, 64L0, 448A32 32 0 0 0 32, 480L144, 480A16 16 0 0 0 160, 464L160, 432A16 16 0 0 0 144, 416L64, 416L64, 96L144, 96A16 16 0 0 0 160, 80L160, 48A16 16 0 0 0 144, 32zM416, 32L304, 32A16 16 0 0 0 288, 48L288, 80A16 16 0 0 0 304, 96L384, 96L384, 416L304, 416A16 16 0 0 0 288, 432L288, 464A16 16 0 0 0 304, 480L416, 480A32 32 0 0 0 448, 448L448, 64A32 32 0 0 0 416, 32z" fill="#727272" fill-opacity="1" class="Black" />
  </g>
</svg>