<?xml version='1.0' encoding='UTF-8'?>
<svg viewBox="-2 -3.554 32 32" xmlns="http://www.w3.org/2000/svg">
  <g transform="matrix(0.0486, 0, 0, 0.0486, 0, 0)">
    <path d="M208, 32L160, 32A96 96 0 0 0 64, 128L64, 165.48A32.06 32.06 0 0 1 54.62, 188.13L9.37, 233.37A32 32 0 0 0 9.37, 278.63L54.62, 323.88A32 32 0 0 1 64, 346.51L64, 384A96 96 0 0 0 160, 480L208, 480A16 16 0 0 0 224, 464L224, 432A16 16 0 0 0 208, 416L160, 416A32 32 0 0 1 128, 384L128, 346.52A96 96 0 0 0 99.87, 278.63L77.25, 256L99.88, 233.37A96 96 0 0 0 128, 165.48L128, 128A32 32 0 0 1 160, 96L208, 96A16 16 0 0 0 224, 80L224, 48A16 16 0 0 0 208, 32zM566.63, 233.37L521.38, 188.13A32.06 32.06 0 0 1 512, 165.48L512, 128A96 96 0 0 0 416, 32L368, 32A16 16 0 0 0 352, 48L352, 80A16 16 0 0 0 368, 96L416, 96A32 32 0 0 1 448, 128L448, 165.47A96 96 0 0 0 476.13, 233.38L498.75, 256L476.13, 278.63A96 96 0 0 0 448, 346.52L448, 384A32 32 0 0 1 416, 416L368, 416A16 16 0 0 0 352, 432L352, 464A16 16 0 0 0 368, 480L416, 480A96 96 0 0 0 512, 384L512, 346.51A32 32 0 0 1 521.38, 323.88L566.63, 278.63A32 32 0 0 0 566.63, 233.37z" fill="#727272" fill-opacity="1" class="Black" />
  </g>
</svg>