<?xml version='1.0' encoding='UTF-8'?>
<svg viewBox="-2 -5.4997 32 32" xmlns="http://www.w3.org/2000/svg">
  <g transform="matrix(0.9988, 0, 0, 0.9988, 0, 0)">
    <g transform="matrix(0.0438, 0, 0, 0.0438, 0, 0)">
      <path d="M128, 256C128, 291.346 99.346, 320 64, 320C28.654, 320 0, 291.346 0, 256C0, 220.654 28.654, 192 64, 192C99.346, 192 128, 220.654 128, 256zM64, 384C46.327, 384 32, 398.327 32, 416C32, 433.673 46.327, 448 64, 448C81.673, 448 96, 433.673 96, 416C96, 398.327 81.673, 384 64, 384zM64, 32C28.654, 32 0, 60.654 0, 96C0, 131.346 28.654, 160 64, 160C99.346, 160 128, 131.346 128, 96C128, 60.654 99.346, 32 64, 32zM224, 224C206.327, 224 192, 238.327 192, 256C192, 273.673 206.327, 288 224, 288C241.673, 288 256, 273.673 256, 256C256, 238.327 241.673, 224 224, 224zM224, 384C206.327, 384 192, 398.327 192, 416C192, 433.673 206.327, 448 224, 448C241.673, 448 256, 433.673 256, 416C256, 398.327 241.673, 384 224, 384zM224, 32C188.654, 32 160, 60.654 160, 96C160, 131.346 188.654, 160 224, 160C259.346, 160 288, 131.346 288, 96C288, 60.654 259.346, 32 224, 32zM448, 224C430.327, 224 416, 238.327 416, 256C416, 273.673 430.327, 288 448, 288C465.673, 288 480, 273.673 480, 256C480, 238.327 465.673, 224 448, 224zM448, 384C430.327, 384 416, 398.327 416, 416C416, 433.673 430.327, 448 448, 448C465.673, 448 480, 433.673 480, 416C480, 398.327 465.673, 384 448, 384zM448, 32C412.654, 32 384, 60.654 384, 96C384, 131.346 412.654, 160 448, 160C483.346, 160 512, 131.346 512, 96C512, 60.654 483.346, 32 448, 32zM608, 224C590.327, 224 576, 238.327 576, 256C576, 273.673 590.327, 288 608, 288C625.673, 288 640, 273.673 640, 256C640, 238.327 625.673, 224 608, 224zM608, 384C590.327, 384 576, 398.327 576, 416C576, 433.673 590.327, 448 608, 448C625.673, 448 640, 433.673 640, 416C640, 398.327 625.673, 384 608, 384zM608, 64C590.327, 64 576, 78.327 576, 96C576, 113.673 590.327, 128 608, 128C625.673, 128 640, 113.673 640, 96C640, 78.327 625.673, 64 608, 64z" fill="#727272" fill-opacity="1" class="Black" />
    </g>
  </g>
</svg>