<?xml version='1.0' encoding='UTF-8'?>
<svg viewBox="-2 -1.124 32 32" xmlns="http://www.w3.org/2000/svg">
  <g transform="matrix(0.0547, 0, 0, 0.0547, 0, 0)">
    <path d="M464, 128L384, 128L384, 80C384, 53.5 362.5, 32 336, 32L176, 32C149.5, 32 128, 53.5 128, 80L128, 128L48, 128C21.5, 128 0, 149.5 0, 176L0, 464C0, 490.5 21.5, 512 48, 512L464, 512C490.5, 512 512, 490.5 512, 464L512, 176C512, 149.5 490.5, 128 464, 128zM192, 96L320, 96L320, 128L192, 128L192, 96zM352, 344C352, 348.4 348.4, 352 344, 352L288, 352L288, 408C288, 412.4 284.4, 416 280, 416L232, 416C227.6, 416 224, 412.4 224, 408L224, 352L168, 352C163.6, 352 160, 348.4 160, 344L160, 296C160, 291.6 163.6, 288 168, 288L224, 288L224, 232C224, 227.6 227.6, 224 232, 224L280, 224C284.4, 224 288, 227.6 288, 232L288, 288L344, 288C348.4, 288 352, 291.6 352, 296L352, 344z" fill="#727272" fill-opacity="1" class="Black" />
  </g>
</svg>