<?xml version='1.0' encoding='UTF-8'?>
<svg viewBox="-1.9999 -4.8004 32 32" xmlns="http://www.w3.org/2000/svg">
  <g transform="matrix(1.0011, 0, 0, 1.0011, 0, 0)">
    <g transform="matrix(0.0437, 0, 0, 0.0437, 0, 0)">
      <path d="M480, 368L480, 144A48 48 0 0 0 432, 96L208, 96A48 48 0 0 0 160, 144L160, 368A48 48 0 0 0 208, 416L432, 416A48 48 0 0 0 480, 368zM64, 64L256, 64L256, 32A32 32 0 0 0 224, 0L32, 0A32 32 0 0 0 0, 32L0, 224A32 32 0 0 0 32, 256L128, 256L128, 192L64, 192zM608, 256L512, 256L512, 320L576, 320L576, 448L384, 448L384, 480A32 32 0 0 0 416, 512L608, 512A32 32 0 0 0 640, 480L640, 288A32 32 0 0 0 608, 256z" fill="#727272" fill-opacity="1" class="Black" />
    </g>
  </g>
</svg>