<?xml version='1.0' encoding='UTF-8'?>
<svg viewBox="-1.9998 -4.8002 31.9975 32" xmlns="http://www.w3.org/2000/svg">
  <g transform="matrix(0.9988, 0, 0, 0.9988, 0, 0)">
    <g transform="matrix(0.0438, 0, 0, 0.0438, 0, 0)">
      <path d="M150.94, 192L184.67, 192C195.68, 192 203.28, 181.17 199.53, 170.82C194.6, 157.24 191.98, 142.84 191.98, 128C191.98, 113.16 194.6, 98.76 199.53, 85.18C203.29, 74.83 195.68, 64 184.67, 64L150.94, 64C143.93, 64 137.48, 68.49 135.53, 75.23C130.64, 92.21 128, 109.88 128, 128C128, 146.12 130.64, 163.79 135.54, 180.76C137.48, 187.5 143.93, 192 150.94, 192zM89.92, 23.34C95.56, 12.72 87.97, 0 75.96, 0L40.63, 0C34.36, 0 28.49, 3.59 25.89, 9.31C9.4, 45.54 0, 85.65 0, 128C0, 152.75 3.12, 196.33 26.69, 246.86C29.31, 252.49 35.11, 256 41.3, 256L76.14, 256C88.16, 256 95.75, 243.26 90.09, 232.63C40.31, 139.31 73.38, 54.48 89.92, 23.34zM614.06, 9.29C611.46, 3.58 605.6, 0 599.33, 0L563.91, 0C551.93, 0 544.25, 12.66 549.89, 23.25C568.16, 57.54 598.31, 142.67 550.17, 232.48C544.45, 243.16 551.97, 256 564.08, 256L599.31, 256C605.58, 256 611.44, 252.42 614.04, 246.71C630.57, 210.48 640, 170.36 640, 128C640, 85.64 630.58, 45.52 614.06, 9.29zM489.06, 64L455.33, 64C444.32, 64 436.72, 74.83 440.47, 85.18C445.4, 98.76 448.02, 113.16 448.02, 128C448.02, 142.84 445.4, 157.24 440.47, 170.82C436.71, 181.17 444.32, 192 455.33, 192L489.06, 192C496.08, 192 502.52, 187.51 504.47, 180.76C509.37, 163.79 512, 146.12 512, 128C512, 109.88 509.36, 92.21 504.46, 75.24C502.52, 68.49 496.07, 64 489.06, 64zM372.76, 164.12C379.81, 153.83 383.96, 141.41 383.96, 128C383.96, 92.65 355.33, 64 320, 64C284.68, 64 256.04, 92.65 256.04, 128C256.04, 141.41 260.19, 153.83 267.24, 164.12L136.74, 477.53C133.34, 485.68 137.2, 495.05 145.35, 498.45L174.86, 510.76C183.01, 514.16 192.38, 510.3 195.77, 502.15L244.96, 384L395.03, 384L444.23, 502.15C447.63, 510.31 456.99, 514.16 465.14, 510.76L494.65, 498.45C502.8, 495.05 506.65, 485.68 503.26, 477.53L372.76, 164.12zM271.62, 320L320, 203.81L368.38, 320L271.62, 320z" fill="#727272" fill-opacity="1" class="Black" />
    </g>
  </g>
</svg>