<?xml version='1.0' encoding='UTF-8'?>
<svg viewBox="-2 -1.9988 32 32" xmlns="http://www.w3.org/2000/svg">
  <g transform="matrix(0.0547, 0, 0, 0.0547, 0, 0)">
    <path d="M464, 32L48, 32C21.5, 32 0, 53.5 0, 80L0, 432C0, 458.5 21.5, 480 48, 480L464, 480C490.5, 480 512, 458.5 512, 432L512, 80C512, 53.5 490.5, 32 464, 32zM128, 148C128, 154.6 122.6, 160 116, 160L76, 160C69.4, 160 64, 154.6 64, 148L64, 108C64, 101.4 69.4, 96 76, 96L116, 96C122.6, 96 128, 101.4 128, 108L128, 148zM448, 148C448, 154.6 442.6, 160 436, 160L188, 160C181.4, 160 176, 154.6 176, 148L176, 108C176, 101.4 181.4, 96 188, 96L436, 96C442.6, 96 448, 101.4 448, 108L448, 148z" fill="#727272" fill-opacity="1" class="Black" />
  </g>
</svg>