<?xml version='1.0' encoding='UTF-8'?>
<svg viewBox="-2 -2.0013 32 32" xmlns="http://www.w3.org/2000/svg">
  <g transform="matrix(0.0547, 0, 0, 0.0547, 0, 0)">
    <path d="M307.29, 230.32C278.33, 310.45 201.65, 368 111.57, 368A206.93 206.93 0 0 1 0.72, 335.76C-3, 369.56 7.58, 404.64 33.46, 430.5L81, 478A116.2 116.2 0 0 0 245.22, 478L461.22, 262.27A175.28 175.28 0 0 0 351.83, 224C336.61, 224 321.79, 226.53 307.29, 230.32zM287.76, 160A174.91 174.91 0 0 0 249.43, 50.72L33.43, 266.45A115.28 115.28 0 0 0 9, 302.83A175.18 175.18 0 0 0 111.57, 336C208.71, 336 287.76, 257.05 287.76, 160zM512, 123A74.14 74.14 0 0 0 459.69, 52.26A74.18 74.18 0 0 0 358, 6.73A80.14 80.14 0 0 0 325.8, 0C303.74, 0 283.8, 9.37 268.99, 24.26A204.24 204.24 0 0 1 316.61, 195A209.73 209.73 0 0 1 351.83, 192A207.25 207.25 0 0 1 487.71, 242.75C502.63, 228 512, 208 512, 186A80.08 80.08 0 0 0 505.26, 153.88A73.35 73.35 0 0 0 512, 123z" fill="#727272" fill-opacity="1" class="Black" />
  </g>
</svg>