<?xml version='1.0' encoding='UTF-8'?>
<svg viewBox="-1.9999 -1.9999 32 32" xmlns="http://www.w3.org/2000/svg">
  <g transform="matrix(0.0547, 0, 0, 0.0547, 0, 0)">
    <path d="M488, 112L464, 112L464, 80C464, 35.2 371.89, 0 256, 0C140.11, 0 48, 35.2 48, 80L48, 112L24, 112C10.75, 112 0, 122.74 0, 136L0, 216C0, 229.25 10.75, 240 24, 240L48, 240L48, 260.9C38.61, 266.47 32, 276.28 32, 288L32, 416C32, 433.67 46.33, 448 64, 448L64, 480C64, 497.67 78.33, 512 96, 512L128, 512C145.67, 512 160, 497.67 160, 480L160, 448L352, 448L352, 480C352, 497.67 366.33, 512 384, 512L416, 512C433.67, 512 448, 497.67 448, 480L448, 448C465.67, 448 480, 433.67 480, 416L480, 288C480, 276.28 473.39, 266.48 464, 260.9L464, 240L488, 240C501.25, 240 512, 229.25 512, 216L512, 136C512, 122.74 501.25, 112 488, 112zM160, 72C160, 67.58 163.58, 64 168, 64L344, 64C348.42, 64 352, 67.58 352, 72L352, 88C352, 92.42 348.42, 96 344, 96L168, 96C163.58, 96 160, 92.42 160, 88L160, 72zM112, 384C94.33, 384 80, 369.67 80, 352C80, 334.33 94.33, 320 112, 320C129.67, 320 144, 334.33 144, 352C144, 369.67 129.67, 384 112, 384zM240, 256L144, 256C126.33, 256 112, 241.67 112, 224L112, 160C112, 142.33 126.33, 128 144, 128L240, 128L240, 256zM272, 256L272, 128L368, 128C385.67, 128 400, 142.33 400, 160L400, 224C400, 241.67 385.67, 256 368, 256L272, 256zM400, 384C382.33, 384 368, 369.67 368, 352C368, 334.33 382.33, 320 400, 320C417.67, 320 432, 334.33 432, 352C432, 369.67 417.67, 384 400, 384z" fill="#727272" fill-opacity="1" class="Black" />
  </g>
</svg>