<?xml version='1.0' encoding='UTF-8'?>
<svg viewBox="-1.9999 -1.9999 32 32" xmlns="http://www.w3.org/2000/svg">
  <g transform="matrix(0.0547, 0, 0, 0.0547, 0, 0)">
    <path d="M488, 128L480, 128L480, 80C480, 35.2 380.8, 0 256, 0C131.2, 0 32, 35.2 32, 80L32, 128L24, 128C10.75, 128 0, 138.74 0, 152L0, 232C0, 245.25 10.75, 256 24, 256L32, 256L32, 416C32, 433.67 46.33, 448 64, 448L64, 480C64, 497.67 78.33, 512 96, 512L128, 512C145.67, 512 160, 497.67 160, 480L160, 448L352, 448L352, 480C352, 497.67 366.33, 512 384, 512L416, 512C433.67, 512 448, 497.67 448, 480L448, 448L454.4, 448C470.4, 448 480, 435.2 480, 422.4L480, 256L488, 256C501.25, 256 512, 245.25 512, 232L512, 152C512, 138.74 501.25, 128 488, 128zM112, 400C94.33, 400 80, 385.67 80, 368C80, 350.33 94.33, 336 112, 336C129.67, 336 144, 350.33 144, 368C144, 385.67 129.67, 400 112, 400zM128, 288C110.33, 288 96, 273.67 96, 256L96, 128C96, 110.33 110.33, 96 128, 96L384, 96C401.67, 96 416, 110.33 416, 128L416, 256C416, 273.67 401.67, 288 384, 288L128, 288zM400, 400C382.33, 400 368, 385.67 368, 368C368, 350.33 382.33, 336 400, 336C417.67, 336 432, 350.33 432, 368C432, 385.67 417.67, 400 400, 400z" fill="#727272" fill-opacity="1" class="Black" />
  </g>
</svg>