<?xml version='1.0' encoding='UTF-8'?>
<svg viewBox="-2 -4.7992 32 32" xmlns="http://www.w3.org/2000/svg">
  <g transform="matrix(0.9988, 0, 0, 0.9988, 0, 0)">
    <g transform="matrix(0.0438, 0, 0, 0.0438, 0, 0)">
      <path d="M496, 224C416.41, 224 352, 288.41 352, 368C352, 447.59 416.41, 512 496, 512C575.59, 512 640, 447.59 640, 368C640, 288.41 575.59, 224 496, 224zM560, 374.29C560, 379.63 555.63, 384 550.29, 384L489.72, 384C484.38, 384 480.01, 379.63 480.01, 374.29L480.01, 297.72C480.01, 292.38 484.38, 288.01 489.72, 288.01L502.29, 288.01C507.63, 288.01 512, 292.38 512, 297.72L512, 352L550.29, 352C555.63, 352 560, 356.37 560, 361.71L560, 374.29zM496, 192C501.4, 192 506.72, 192.33 512, 192.81L512, 144C512, 118.4 489.6, 96 464, 96L384, 96L384, 48C384, 22.4 361.6, 0 336, 0L176, 0C150.4, 0 128, 22.4 128, 48L128, 96L48, 96C22.4, 96 0, 118.4 0, 144L0, 224L395.12, 224C423.72, 203.91 458.47, 192 496, 192zM320, 96L192, 96L192, 64L320, 64L320, 96zM326.82, 320L208, 320C199.16, 320 192, 312.84 192, 304L192, 256L0, 256L0, 400C0, 425.6 22.4, 448 48, 448L339.43, 448C327.1, 423.96 320, 396.82 320, 368C320, 351.34 322.48, 335.28 326.82, 320z" fill="#727272" fill-opacity="1" class="Black" />
    </g>
  </g>
</svg>