<?xml version='1.0' encoding='UTF-8'?>
<svg viewBox="-1.9999 -1.9999 32 32" xmlns="http://www.w3.org/2000/svg">
  <g transform="matrix(0.0547, 0, 0, 0.0547, 0, 0)">
    <path d="M480, 0L32, 0C14.33, 0 0, 14.33 0, 32L0, 224L512, 224L512, 32C512, 14.33 497.67, 0 480, 0zM352, 152C352, 156.42 348.42, 160 344, 160L328, 160C323.58, 160 320, 156.42 320, 152L320, 128L192, 128L192, 152C192, 156.42 188.42, 160 184, 160L168, 160C163.58, 160 160, 156.42 160, 152L160, 112C160, 103.16 167.16, 96 176, 96L336, 96C344.84, 96 352, 103.16 352, 112L352, 152zM0, 480C0, 497.67 14.33, 512 32, 512L480, 512C497.67, 512 512, 497.67 512, 480L512, 256L0, 256L0, 480zM160, 368C160, 359.16 167.16, 352 176, 352L336, 352C344.84, 352 352, 359.16 352, 368L352, 408C352, 412.42 348.42, 416 344, 416L328, 416C323.58, 416 320, 412.42 320, 408L320, 384L192, 384L192, 408C192, 412.42 188.42, 416 184, 416L168, 416C163.58, 416 160, 412.42 160, 408L160, 368z" fill="#727272" fill-opacity="1" class="Black" />
  </g>
</svg>