<?xml version='1.0' encoding='UTF-8'?>
<svg viewBox="-2 -1.995 32 31.9975" xmlns="http://www.w3.org/2000/svg">
  <g transform="matrix(0.0547, 0, 0, 0.0547, 0, 0)">
    <path d="M464, 224A48 48 0 0 0 416, 272L416, 336A16 16 0 0 1 400, 352L352, 352L352, 101.43C352, 49.43 313.07, 2.85 261.16, 0.14A96 96 0 0 0 160, 96L160, 224L112, 224A16 16 0 0 1 96, 208L96, 144A48 48 0 0 0 0, 144L0, 208A112 112 0 0 0 112, 320L160, 320L160, 480A32 32 0 0 0 192, 512L320, 512A32 32 0 0 0 352, 480L352, 448L400, 448A112 112 0 0 0 512, 336L512, 272A48 48 0 0 0 464, 224zM224, 176A16 16 0 1 1 240, 160A16 16 0 0 1 224, 176zM288, 400A16 16 0 1 1 304, 384A16 16 0 0 1 288, 400z" fill="#727272" fill-opacity="1" class="Black" />
  </g>
</svg>