<?xml version='1.0' encoding='UTF-8'?>
<svg viewBox="-3.7495 -2 32 32" xmlns="http://www.w3.org/2000/svg">
  <g transform="matrix(0.0547, 0, 0, 0.0547, 0, 0)">
    <path d="M400, 0L48, 0C22.4, 0 0, 22.4 0, 48L0, 464C0, 489.6 22.4, 512 48, 512L400, 512C425.6, 512 448, 489.6 448, 464L448, 48C448, 22.4 425.6, 0 400, 0zM128, 435.2C128, 441.6 121.6, 448 115.2, 448L76.8, 448C70.4, 448 64, 441.6 64, 435.2L64, 396.8C64, 390.4 70.4, 384 76.8, 384L115.2, 384C121.6, 384 128, 390.4 128, 396.8L128, 435.2zM128, 307.2C128, 313.6 121.6, 320 115.2, 320L76.8, 320C70.4, 320 64, 313.6 64, 307.2L64, 268.8C64, 262.4 70.4, 256 76.8, 256L115.2, 256C121.6, 256 128, 262.4 128, 268.8L128, 307.2zM256, 435.2C256, 441.6 249.6, 448 243.2, 448L204.8, 448C198.4, 448 192, 441.6 192, 435.2L192, 396.8C192, 390.4 198.4, 384 204.8, 384L243.2, 384C249.6, 384 256, 390.4 256, 396.8L256, 435.2zM256, 307.2C256, 313.6 249.6, 320 243.2, 320L204.8, 320C198.4, 320 192, 313.6 192, 307.2L192, 268.8C192, 262.4 198.4, 256 204.8, 256L243.2, 256C249.6, 256 256, 262.4 256, 268.8L256, 307.2zM384, 435.2C384, 441.6 377.6, 448 371.2, 448L332.8, 448C326.4, 448 320, 441.6 320, 435.2L320, 268.8C320, 262.4 326.4, 256 332.8, 256L371.2, 256C377.6, 256 384, 262.4 384, 268.8L384, 435.2zM384, 179.2C384, 185.6 377.6, 192 371.2, 192L76.8, 192C70.4, 192 64, 185.6 64, 179.2L64, 76.8C64, 70.4 70.4, 64 76.8, 64L371.2, 64C377.6, 64 384, 70.4 384, 76.8L384, 179.2z" fill="#727272" fill-opacity="1" class="Black" />
  </g>
</svg>