<?xml version='1.0' encoding='UTF-8'?>
<svg viewBox="-3.7495 -2 32 32" xmlns="http://www.w3.org/2000/svg">
  <g transform="matrix(0.0547, 0, 0, 0.0547, 0, 0)">
    <path d="M400, 64L352, 64L352, 16C352, 7.2 344.8, 0 336, 0L304, 0C295.2, 0 288, 7.2 288, 16L288, 64L160, 64L160, 16C160, 7.2 152.8, 0 144, 0L112, 0C103.2, 0 96, 7.2 96, 16L96, 64L48, 64C21.5, 64 0, 85.5 0, 112L0, 160L448, 160L448, 112C448, 85.5 426.5, 64 400, 64zM0, 464C0, 490.5 21.5, 512 48, 512L400, 512C426.5, 512 448, 490.5 448, 464L448, 192L0, 192L0, 464zM134.1, 320.3L188.8, 312.3L213.3, 262.7C217.7, 253.7 230.4, 253.9 234.8, 262.7L259.3, 312.3L314, 320.3C323.8, 321.7 327.7, 333.8 320.6, 340.8L281, 379.4L290.4, 434C292.1, 443.9 281.7, 451.2 273, 446.6L224, 420.8L175.1, 446.6C166.4, 451.2 156, 443.8 157.7, 434L167.1, 379.4L127.5, 340.8C120.3, 333.8 124.3, 321.7 134.1, 320.3z" fill="#727272" fill-opacity="1" class="Black" />
  </g>
</svg>