<?xml version='1.0' encoding='UTF-8'?>
<svg viewBox="-3.7495 -2 32 32" xmlns="http://www.w3.org/2000/svg">
  <g transform="matrix(0.0547, 0, 0, 0.0547, 0, 0)">
    <path d="M0, 464C0, 490.5 21.5, 512 48, 512L400, 512C426.5, 512 448, 490.5 448, 464L448, 192L0, 192L0, 464zM64, 272C64, 263.2 71.2, 256 80, 256L176, 256C184.8, 256 192, 263.2 192, 272L192, 368C192, 376.8 184.8, 384 176, 384L80, 384C71.2, 384 64, 376.8 64, 368L64, 272zM400, 64L352, 64L352, 16C352, 7.2 344.8, 0 336, 0L304, 0C295.2, 0 288, 7.2 288, 16L288, 64L160, 64L160, 16C160, 7.2 152.8, 0 144, 0L112, 0C103.2, 0 96, 7.2 96, 16L96, 64L48, 64C21.5, 64 0, 85.5 0, 112L0, 160L448, 160L448, 112C448, 85.5 426.5, 64 400, 64z" fill="#727272" fill-opacity="1" class="Black" />
  </g>
</svg>