<?xml version='1.0' encoding='UTF-8'?>
<svg viewBox="-3.7495 -2 32 32" xmlns="http://www.w3.org/2000/svg">
  <g transform="matrix(0.0547, 0, 0, 0.0547, 0, 0)">
    <path d="M436, 160L12, 160C5.373, 160 0, 154.627 0, 148L0, 112C0, 85.49 21.49, 64 48, 64L96, 64L96, 12C96, 5.373 101.373, 0 108, 0L148, 0C154.627, 0 160, 5.373 160, 12L160, 64L288, 64L288, 12C288, 5.373 293.373, 0 300, 0L340, 0C346.627, 0 352, 5.373 352, 12L352, 64L400, 64C426.51, 64 448, 85.49 448, 112L448, 148C448, 154.627 442.627, 160 436, 160zM12, 192L436, 192C442.627, 192 448, 197.373 448, 204L448, 464C448, 490.51 426.51, 512 400, 512L48, 512C21.49, 512 0, 490.51 0, 464L0, 204C0, 197.373 5.373, 192 12, 192zM345.296, 287.947L317.127, 259.549C312.46, 254.844 304.862, 254.813 300.157, 259.481L194.12, 364.665L148.14, 318.313C143.473, 313.608 135.874, 313.577 131.169, 318.245L102.772, 346.415C98.067, 351.082 98.036, 358.68 102.704, 363.385L185.305, 446.654C189.972, 451.359 197.57, 451.39 202.275, 446.722L345.228, 304.917C349.933, 300.25 349.964, 292.652 345.296, 287.947z" fill="#727272" fill-opacity="1" class="Black" />
  </g>
</svg>