<?xml version='1.0' encoding='UTF-8'?>
<svg viewBox="-3.7495 -2 32 32" xmlns="http://www.w3.org/2000/svg">
  <g transform="matrix(0.0547, 0, 0, 0.0547, 0, 0)">
    <path d="M0, 148L0, 112C0, 85.5 21.5, 64 48, 64L96, 64L96, 12C96, 5.4 101.4, 0 108, 0L148, 0C154.6, 0 160, 5.4 160, 12L160, 64L288, 64L288, 12C288, 5.4 293.4, 0 300, 0L340, 0C346.6, 0 352, 5.4 352, 12L352, 64L400, 64C426.5, 64 448, 85.5 448, 112L448, 148C448, 154.6 442.6, 160 436, 160L12, 160C5.4, 160 0, 154.6 0, 148zM448, 204L448, 464C448, 490.5 426.5, 512 400, 512L48, 512C21.5, 512 0, 490.5 0, 464L0, 204C0, 197.4 5.4, 192 12, 192L436, 192C442.6, 192 448, 197.4 448, 204zM224, 392C201.9, 392 184, 409.9 184, 432C184, 454.1 201.9, 472 224, 472C246.1, 472 264, 454.1 264, 432C264, 409.9 246.1, 392 224, 392zM184.8, 252.8L192, 364.8C192.4, 371.1 197.6, 376 204, 376L244, 376C250.3, 376 255.6, 371.1 256, 364.8L263.2, 252.8C263.6, 245.9 258.2, 240 251.2, 240L196.8, 240C189.9, 240 184.4, 245.9 184.8, 252.8z" fill="#727272" fill-opacity="1" class="Black" />
  </g>
</svg>