<?xml version='1.0' encoding='UTF-8'?>
<svg viewBox="-2 -3.554 32 32" xmlns="http://www.w3.org/2000/svg">
  <g transform="matrix(0.0486, 0, 0, 0.0486, 0, 0)">
    <path d="M525.59, 165.7L416, 241.3L416, 398.7L525.59, 474.2C546.8, 488.8 576, 473.91 576, 448.41L576, 191.5C576, 166.09 546.91, 151.09 525.59, 165.7zM336.2, 160L96, 160L96, 128A32 32 0 0 1 128, 96L304, 96A16 16 0 0 0 320, 80L320, 48A16 16 0 0 0 304, 32L128, 32A96 96 0 0 0 32, 128L32, 162.89A47.66 47.66 0 0 0 0, 207.8L0, 432.2A47.81 47.81 0 0 0 47.8, 480L336.2, 480A47.81 47.81 0 0 0 384, 432.2L384, 207.8A47.81 47.81 0 0 0 336.2, 160zM320, 249.6A6.41 6.41 0 0 1 313.6, 256L70.4, 256A6.41 6.41 0 0 1 64, 249.6L64, 230.4A6.41 6.41 0 0 1 70.4, 224L313.6, 224A6.41 6.41 0 0 1 320, 230.4z" fill="#727272" fill-opacity="1" class="Black" />
  </g>
</svg>