<?xml version='1.0' encoding='UTF-8'?>
<svg viewBox="-2 -4.798 32 32" xmlns="http://www.w3.org/2000/svg">
  <g transform="matrix(0.9988, 0, 0, 0.9988, 0, 0)">
    <g transform="matrix(0.0438, 0, 0, 0.0438, 0, 0)">
      <path d="M624, 448L599.32, 448L359.54, 117.75L412.95, 44.2C418.14, 37.05 416.56, 27.04 409.41, 21.85L383.51, 3.06C376.36, -2.13 366.36, -0.55 361.16, 6.61L320, 63.3L278.83, 6.6C273.64, -0.55 263.63, -2.14 256.48, 3.05L230.6, 21.85C223.45, 27.04 221.86, 37.05 227.06, 44.2L280.47, 117.75L40.68, 448L16, 448C7.16, 448 0, 455.16 0, 464L0, 496C0, 504.84 7.16, 512 16, 512L624, 512C632.84, 512 640, 504.84 640, 496L640, 464C640, 455.16 632.84, 448 624, 448zM320, 288L436.36, 448L203.64, 448L320, 288z" fill="#727272" fill-opacity="1" class="Black" />
    </g>
  </g>
</svg>