<?xml version='1.0' encoding='UTF-8'?>
<svg viewBox="-1.9961 -1.9998 31.9975 32" xmlns="http://www.w3.org/2000/svg">
  <g transform="matrix(0.0547, 0, 0, 0.0547, 0, 0)">
    <path d="M501, 450.17L361.03, 405.49L501, 360.81C509.26, 358.17 513.86, 349.2 511.28, 340.77L501.93, 310.22C499.35, 301.79 490.56, 297.09 482.31, 299.72L256, 371.96L29.69, 299.72C21.43, 297.09 12.65, 301.79 10.07, 310.22L0.72, 340.77C-1.86, 349.2 2.74, 358.18 11, 360.81L150.97, 405.49L11, 450.17C2.74, 452.8 -1.86, 461.78 0.72, 470.21L10.07, 500.76C12.65, 509.19 21.44, 513.89 29.69, 511.26L256, 439.02L482.31, 511.26C490.57, 513.89 499.35, 509.19 501.93, 500.76L511.28, 470.21C513.86, 461.78 509.26, 452.81 501, 450.17zM256, 320C335.53, 320 400, 255.53 400, 176C400, 142.71 366.58, 74.04 320, 32C306.63, 44.06 294.55, 56.75 283.86, 69.48C266.34, 46.01 244.61, 22.21 220, 0C156.83, 56.98 112, 131.22 112, 176C112, 255.53 176.47, 320 256, 320zM220.5, 92.48C224.73, 97.57 280.92, 172.54 280.92, 172.54L316.76, 129.82C319.29, 134.19 321.59, 138.47 323.65, 142.58C340.36, 175.91 333.31, 218.57 303.21, 240.57C289.97, 250.26 273.64, 256 256, 256C211.89, 256 176, 225.51 176, 176C176, 151.34 190.86, 129.61 220.5, 92.48z" fill="#727272" fill-opacity="1" class="Black" />
  </g>
</svg>