<?xml version='1.0' encoding='UTF-8'?>
<svg viewBox="-3.7495 -2 32 32" xmlns="http://www.w3.org/2000/svg">
  <g transform="matrix(0.0547, 0, 0, 0.0547, 0, 0)">
    <path d="M160, 192C205.93, 192 238, 159.39 238, 112.71C238, 82.72 205.41, 37.82 160, 0C114.38, 38 82, 82.84 82, 112.71C82, 159.39 114.07, 192 160, 192zM376, 368C336.3, 368 304, 400.3 304, 440C304, 448.46 305.73, 456.46 308.42, 464L16, 464C7.16, 464 0, 471.16 0, 480L0, 496C0, 504.84 7.16, 512 16, 512L376, 512C415.7, 512 448, 479.7 448, 440C448, 400.3 415.7, 368 376, 368zM376, 464C362.77, 464 352, 453.23 352, 440C352, 426.77 362.77, 416 376, 416C389.23, 416 400, 426.77 400, 440C400, 453.23 389.23, 464 376, 464zM256, 256C256, 238.33 241.67, 224 224, 224L160, 224L160, 272C160, 280.84 152.84, 288 144, 288C135.16, 288 128, 280.84 128, 272L128, 224L96, 224C78.33, 224 64, 238.33 64, 256L64, 432L256, 432L256, 256z" fill="#727272" fill-opacity="1" class="Black" />
  </g>
</svg>