<?xml version='1.0' encoding='UTF-8'?>
<svg viewBox="-1.9973 -4.8004 31.9975 32" xmlns="http://www.w3.org/2000/svg">
  <g transform="matrix(0.9989, 0, 0, 0.9989, 0, 0)">
    <g transform="matrix(0.0438, 0, 0, 0.0438, 0, 0)">
      <path d="M187.09, 307.14C143.35, 350.88 115.38, 388.19 98.12, 414.7C213.97, 482.68 342.09, 536.98 379.03, 500.03L379.09, 499.97C415.97, 462.88 361.71, 334.7 293.69, 218.79C267.24, 236.1 230.31, 263.93 187.09, 307.14zM326, 446.95C306.39, 443.44 275.89, 432.94 238.31, 416.07C246.86, 406.54 255.95, 396.75 266.33, 386.37C276.37, 376.33 285.89, 367.45 295.14, 359.13C312.01, 396.77 322.5, 427.31 326, 446.95zM277.11, 191.22C267.42, 175.48 257.6, 160.08 247.83, 145.41C229.21, 117.46 203.34, 89.71 84.94, 205.81C-31.16, 324.21 -3.41, 350.08 24.54, 368.7C39.27, 378.51 54.74, 388.38 70.55, 398.11C88.84, 369.89 118.48, 330.48 164.46, 284.5C209.92, 239.04 248.96, 209.56 277.11, 191.22zM480, 0C314.19, 1.62 315.52, 39.54 322.11, 72.47C325.58, 89.82 329.55, 107.74 333.85, 125.8C366.74, 118.78 415.56, 111.87 480.59, 111.87C544.88, 111.87 593.34, 118.63 626.21, 125.57C630.49, 107.59 634.43, 89.76 637.89, 72.47C644.48, 39.54 645.81, 1.62 480, 0zM341.62, 157.03C375.47, 287.01 427.67, 416 479.91, 416L480, 416C532.3, 415.85 584.57, 286.84 618.44, 156.79C587.5, 150.32 541.7, 143.88 480.59, 143.88C418.72, 143.88 372.56, 150.48 341.62, 157.03zM479.95, 340.96C468.57, 324.61 454.42, 295.63 439.78, 257.12C452.56, 256.43 465.92, 255.93 480.59, 255.93C494.79, 255.93 507.8, 256.38 520.22, 257.04C505.54, 295.59 491.36, 324.6 479.95, 340.96z" fill="#727272" fill-opacity="1" class="Black" />
    </g>
  </g>
</svg>