<?xml version='1.0' encoding='UTF-8'?>
<svg viewBox="-1.9999 -1.9999 32 32" xmlns="http://www.w3.org/2000/svg">
  <g transform="matrix(0.0547, 0, 0, 0.0547, 0, 0)">
    <path d="M503.47, 360.25C501.91, 359.43 471.08, 343.36 426.69, 334.44C490.94, 259.32 510.74, 172.77 511.62, 168.8C512.8, 163.47 511.18, 157.9 507.32, 154.03C504.29, 150.99 500.2, 149.33 496, 149.33C494.86, 149.33 493.71, 149.45 492.56, 149.71C488.68, 150.56 406.02, 169.3 331.98, 229.47C331.99, 228.01 331.99, 226.54 331.99, 225.07C331.99, 106.28 272.01, 11.35 269.46, 7.37A15.973 15.973 0 0 0 256, 0C250.55, 0 245.47, 2.78 242.53, 7.37C239.98, 11.35 180, 106.28 180, 225.07C180, 226.54 180.01, 228.01 180.01, 229.47C105.98, 169.31 23.32, 150.57 19.43, 149.71C18.29, 149.46 17.14, 149.33 15.99, 149.33C11.79, 149.33 7.7, 150.99 4.67, 154.03A15.986 15.986 0 0 0 0.38, 168.8C1.26, 172.77 21.06, 259.32 85.31, 334.44C40.92, 343.36 10.1, 359.43 8.53, 360.25A16.003 16.003 0 0 0 8.51, 388.54C10.96, 389.83 69.27, 420.26 142, 420.26C148.14, 420.26 153.96, 420.16 159.5, 419.95C148.13, 442.18 142.98, 458.26 142.69, 459.17C140.89, 464.85 142.4, 471.06 146.6, 475.28A16.019 16.019 0 0 0 162.7, 479.27C164.53, 478.7 200.42, 467.28 240, 439.98L240, 504C240, 508.42 243.58, 512 248, 512L264, 512C268.42, 512 272, 508.42 272, 504L272, 439.99C311.58, 467.29 347.47, 478.7 349.3, 479.28A16.019 16.019 0 0 0 365.4, 475.29C369.6, 471.07 371.11, 464.86 369.31, 459.18C369.02, 458.27 363.86, 442.19 352.5, 419.96C358.04, 420.17 363.87, 420.27 370, 420.27C442.72, 420.27 501.04, 389.84 503.49, 388.55C508.73, 385.77 512.01, 380.33 512, 374.4C511.99, 368.46 508.71, 363.01 503.47, 360.25z" fill="#727272" fill-opacity="1" class="Black" />
  </g>
</svg>