<?xml version='1.0' encoding='UTF-8'?>
<svg viewBox="-1.995 -4.795 32 32" xmlns="http://www.w3.org/2000/svg">
  <g transform="matrix(0.9991, 0, 0, 0.9991, 0, 0)">
    <g transform="matrix(0.0438, 0, 0, 0.0438, 0, 0)">
      <path d="M512.49, 292.9L507.42, 280.23L487.49, 230.4C470.38, 187.63 429.57, 160 383.5, 160L256.5, 160C210.44, 160 169.62, 187.63 152.51, 230.4L132.58, 280.22L127.51, 292.89C104.33, 302.52 88, 325.34 88, 352L88, 384C88, 404.12 97.48, 421.86 112, 433.59L112, 480C112, 497.67 126.33, 512 144, 512L176, 512C193.67, 512 208, 497.67 208, 480L208, 448L432, 448L432, 480C432, 497.67 446.33, 512 464, 512L496, 512C513.67, 512 528, 497.67 528, 480L528, 433.59C542.52, 421.86 552, 404.12 552, 384L552, 352C552, 325.34 535.67, 302.52 512.49, 292.9zM160, 399.8C140.8, 399.8 128, 387.04 128, 367.9C128, 348.76 140.8, 336 160, 336C179.2, 336 208, 364.71 208, 383.85C208, 402.99 179.2, 399.8 160, 399.8zM198.4, 288.01L211.93, 254.18C219.22, 235.96 236.87, 224.01 256.5, 224.01L383.5, 224.01C403.13, 224.01 420.78, 235.96 428.07, 254.18L441.6, 288.01L198.4, 288.01zM480, 399.8C460.8, 399.8 432, 402.99 432, 383.85C432, 364.71 460.8, 336 480, 336C499.2, 336 512, 348.76 512, 367.9C512, 387.04 499.2, 399.8 480, 399.8zM631.76, 168.23L331.67, 3.02A24.04 24.04 0 0 0 308.33, 3.02L8.24, 168.23C0.51, 172.53 -2.28, 182.28 2.02, 190.02L9.8, 204.03C14.1, 211.77 23.85, 214.55 31.59, 210.25L320, 51.53L608.41, 210.26C616.15, 214.56 625.9, 211.77 630.2, 204.04L637.98, 190.03C642.28, 182.28 639.49, 172.53 631.76, 168.23z" fill="#727272" fill-opacity="1" class="Black" />
    </g>
  </g>
</svg>