<?xml version='1.0' encoding='UTF-8'?>
<svg viewBox="-2 -4.7967 32 32" xmlns="http://www.w3.org/2000/svg">
  <g transform="matrix(0.9988, 0, 0, 0.9988, 0, 0)">
    <g transform="matrix(0.0438, 0, 0, 0.0438, 0, 0)">
      <path d="M624, 448L317.12, 448L275.02, 405.9L467.35, 213.57L489.98, 236.2C502.48, 248.7 522.74, 248.7 535.23, 236.2L557.86, 213.57C570.36, 201.07 570.36, 180.81 557.86, 168.31L519.62, 130.08C518.62, 115.17 512.69, 100.52 501.29, 89.12L467.35, 55.18C448.02, 35.85 419.47, 31.65 395.93, 42.22L368.11, 30.3L318.78, 9.15C276.45, -9 228.04, 0.32 195.47, 32.9L105.67, 122.71C73.1, 155.28 63.78, 203.68 81.92, 246.02L103.06, 295.35L114.98, 323.17C104.41, 346.71 108.61, 375.26 127.94, 394.59L181.36, 448L16, 448C7.16, 448 0, 455.16 0, 464L0, 496C0, 504.84 7.16, 512 16, 512L624, 512C632.84, 512 640, 504.84 640, 496L640, 464C640, 455.16 632.84, 448 624, 448zM399.47, 100.43C413.05, 86.85 431.12, 86.82 444.65, 100.36C458.19, 113.9 458.16, 131.97 444.58, 145.55C431, 159.13 412.89, 181.75 399.36, 168.21C385.83, 154.67 385.89, 114 399.47, 100.43zM140.74, 220.81A48.003 48.003 0 0 1 150.92, 167.96L240.72, 78.16A48.003 48.003 0 0 1 293.57, 67.98L342.9, 89.12L161.88, 270.13L140.74, 220.81zM218.31, 371.81C204.73, 385.39 186.66, 385.42 173.12, 371.88C159.59, 358.35 159.61, 340.27 173.19, 326.7C186.77, 313.12 227.43, 313.06 240.97, 326.59C254.51, 340.13 231.88, 358.24 218.31, 371.81z" fill="#727272" fill-opacity="1" class="Black" />
    </g>
  </g>
</svg>