<?xml version='1.0' encoding='UTF-8'?>
<svg viewBox="-1.9974 -2.7726 32 31.9975" xmlns="http://www.w3.org/2000/svg">
  <g transform="matrix(0.0486, 0, 0, 0.0486, 0, 0)">
    <path d="M575.67, 492.44C577.73, 502.35 569.82, 511.71 559.54, 511.71L400.64, 511.71C390.35, 511.71 382.45, 502.36 384.51, 492.44C393.58, 448.69 432.93, 415.77 480.09, 415.77C527.25, 415.77 566.6, 448.69 575.67, 492.44zM173.72, 453.16C180.92, 469.33 173.48, 488.2 157.1, 495.31L124.89, 509.29C108.51, 516.4 89.39, 509.06 82.19, 492.89L59.63, 442.25C45.64, 435.97 33.74, 424.99 27.06, 410.01L5.45, 361.49C-5.9, 336 1.13, 307.34 20.57, 289.3L19.53, 258.81L17.64, 203.68C16.02, 156.35 43.35, 113.46 87.26, 94.4L208.34, 41.84C252.26, 22.78 302.76, 31.89 337, 65.06L376.89, 103.7L398.95, 125.07C425.56, 123.12 451.71, 137.38 463.07, 162.86L484.69, 211.38C491.37, 226.36 491.52, 242.44 486.75, 256.86L509.31, 307.5C516.51, 323.67 509.07, 342.54 492.69, 349.65L460.48, 363.63C444.1, 370.74 424.98, 363.4 417.78, 347.23L403.99, 316.28L159.93, 422.21L173.72, 453.16zM355.14, 247.47C363.16, 265.48 389.28, 250.56 407.59, 242.62C425.89, 234.68 432.75, 217.37 424.72, 199.36C416.7, 181.35 399.14, 174.64 380.84, 182.58C362.54, 190.53 347.11, 229.46 355.14, 247.47zM141.58, 340.17C133.56, 322.16 94.06, 307.06 75.76, 315C57.46, 322.94 50.6, 340.25 58.63, 358.26C66.65, 376.27 84.21, 382.98 102.51, 375.04C120.81, 367.09 149.61, 358.18 141.58, 340.17zM330.21, 150.65L290.32, 112.01C275.73, 97.88 253.89, 93.94 235.18, 102.06L114.1, 154.62C95.39, 162.74 83.57, 181.29 84.26, 201.46L86.15, 256.59L330.21, 150.65z" fill="#727272" fill-opacity="1" class="Black" />
  </g>
</svg>