<?xml version='1.0' encoding='UTF-8'?>
<svg viewBox="-1.9999 -4.8004 32 32" xmlns="http://www.w3.org/2000/svg">
  <g transform="matrix(1.0011, 0, 0, 1.0011, 0, 0)">
    <g transform="matrix(0.0437, 0, 0, 0.0437, 0, 0)">
      <path d="M213.52, 455.07A88.41 88.41 0 0 1 192, 397.24L192, 368.55A89.11 89.11 0 0 1 234.09, 292.71L241.64, 272L220, 272A12 12 0 0 1 208, 260L208, 220A12 12 0 0 1 220, 208L260, 208A11.79 11.79 0 0 1 269.43, 212.92A131.1 131.1 0 0 1 352, 162.18L352, 32A32 32 0 0 0 320, 0L32, 0A32 32 0 0 0 0, 32L0, 496A16 16 0 0 0 16, 512L221.06, 512A59.85 59.85 0 0 1 213.52, 483.31zM208, 92A12 12 0 0 1 220, 80L260, 80A12 12 0 0 1 272, 92L272, 132A12 12 0 0 1 260, 144L220, 144A12 12 0 0 1 208, 132zM144, 388A12 12 0 0 1 132, 400L92, 400A12 12 0 0 1 80, 388L80, 348A12 12 0 0 1 92, 336L132, 336A12 12 0 0 1 144, 348zM144, 260A12 12 0 0 1 132, 272L92, 272A12 12 0 0 1 80, 260L80, 220A12 12 0 0 1 92, 208L132, 208A12 12 0 0 1 144, 220zM144, 132A12 12 0 0 1 132, 144L92, 144A12 12 0 0 1 80, 132L80, 92A12 12 0 0 1 92, 80L132, 80A12 12 0 0 1 144, 92zM604.58, 315.56L600, 304.2L582.13, 255.12A99.92 99.92 0 0 0 488.93, 192L375.07, 192A99.94 99.94 0 0 0 281.83, 255.12L264, 304.2L259.45, 315.55A57.41 57.41 0 0 0 224.03, 368.55L224.03, 397.24A57 57 0 0 0 245.55, 441.7L245.55, 483.31A28.69 28.69 0 0 0 274.21, 512L302.9, 512A28.69 28.69 0 0 0 331.58, 483.31L331.58, 448L532.41, 448L532.41, 483.31A28.7 28.7 0 0 0 561.1, 512L589.79, 512A28.7 28.7 0 0 0 618.48, 483.31L618.48, 441.7A57 57 0 0 0 640, 397.24L640, 368.55A57.39 57.39 0 0 0 604.58, 315.56zM335.11, 284C341.64, 267.08 357.47, 256 375.11, 256L488.93, 256C506.53, 256 522.35, 267.1 528.93, 284L541, 320L323, 320zM300, 407.85C285.6, 407.85 276, 398.28 276, 383.92C276, 369.56 285.6, 360 300, 360C314.4, 360 336, 381.53 336, 395.89C336, 410.25 314.4, 407.85 300, 407.85zM564, 407.85C549.6, 407.85 528, 410.24 528, 395.85C528, 381.46 549.6, 360 564, 360C578.4, 360 588, 369.57 588, 383.92C588, 398.27 578.4, 407.85 564, 407.85z" fill="#727272" fill-opacity="1" class="Black" />
    </g>
  </g>
</svg>