<?xml version='1.0' encoding='UTF-8'?>
<svg viewBox="-2 -1.0658 32 32" xmlns="http://www.w3.org/2000/svg">
  <g transform="matrix(0.0583, 0, 0, 0.0583, 0, 0)">
    <path d="M438.66, 212.33L427.42, 184.23L407.49, 134.4C390.38, 91.63 349.57, 64 303.5, 64L176.5, 64C130.44, 64 89.62, 91.63 72.51, 134.4L52.58, 184.23L41.34, 212.33C17.22, 221.5 0, 244.66 0, 272L0, 320C0, 336.12 6.16, 350.67 16, 361.93L16, 416C16, 433.67 30.33, 448 48, 448L80, 448C97.67, 448 112, 433.67 112, 416L112, 384L368, 384L368, 416C368, 433.67 382.33, 448 400, 448L432, 448C449.67, 448 464, 433.67 464, 416L464, 361.93C473.84, 350.68 480, 336.13 480, 320L480, 272C480, 244.66 462.78, 221.5 438.66, 212.33zM131.93, 158.17C139.22, 139.95 156.87, 128 176.5, 128L303.5, 128C323.13, 128 340.78, 139.95 348.07, 158.17L368, 208L112, 208L131.93, 158.17zM80, 319.8C60.8, 319.8 48, 307.04 48, 287.9C48, 268.76 60.8, 256 80, 256C99.2, 256 128, 284.71 128, 303.85C128, 322.99 99.2, 319.8 80, 319.8zM400, 319.8C380.8, 319.8 352, 322.99 352, 303.85C352, 284.71 380.8, 256 400, 256C419.2, 256 432, 268.76 432, 287.9C432, 307.04 419.2, 319.8 400, 319.8z" fill="#727272" fill-opacity="1" class="Black" />
  </g>
</svg>