<?xml version='1.0' encoding='UTF-8'?>
<svg viewBox="-1.9999 -1.9974 32 31.9975" xmlns="http://www.w3.org/2000/svg">
  <g transform="matrix(0.0547, 0, 0, 0.0547, 0, 0)">
    <path d="M480, 128L448, 128L448, 80C448, 71.16 440.84, 64 432, 64L336, 64C327.16, 64 320, 71.16 320, 80L320, 128L192, 128L192, 80C192, 71.16 184.84, 64 176, 64L80, 64C71.16, 64 64, 71.16 64, 80L64, 128L32, 128C14.33, 128 0, 142.33 0, 160L0, 416C0, 433.67 14.33, 448 32, 448L480, 448C497.67, 448 512, 433.67 512, 416L512, 160C512, 142.33 497.67, 128 480, 128zM192, 264C192, 268.42 188.42, 272 184, 272L72, 272C67.58, 272 64, 268.42 64, 264L64, 248C64, 243.58 67.58, 240 72, 240L184, 240C188.42, 240 192, 243.58 192, 248L192, 264zM448, 264C448, 268.42 444.42, 272 440, 272L400, 272L400, 312C400, 316.42 396.42, 320 392, 320L376, 320C371.58, 320 368, 316.42 368, 312L368, 272L328, 272C323.58, 272 320, 268.42 320, 264L320, 248C320, 243.58 323.58, 240 328, 240L368, 240L368, 200C368, 195.58 371.58, 192 376, 192L392, 192C396.42, 192 400, 195.58 400, 200L400, 240L440, 240C444.42, 240 448, 243.58 448, 248L448, 264z" fill="#727272" fill-opacity="1" class="Black" />
  </g>
</svg>