<?xml version='1.0' encoding='UTF-8'?>
<svg viewBox="-2 -2 32 32" xmlns="http://www.w3.org/2000/svg">
  <g transform="matrix(0.0547, 0, 0, 0.0547, 0, 0)">
    <path d="M503.91, 104L447.93, 104L423.93, 80L447.93, 56L503.9, 56C509.85, 56 513.8, 49.69 511.15, 44.36C495.96, 13.84 462.14, -5.68 424.31, 1.49C398.66, 6.35 377.59, 24.47 367.26, 48L145.01, 48C132.63, 19.83 104.81, 0 72.07, 0C40.75, 0 13.9, 18.12 0.84, 44.37C-1.81, 49.69 2.15, 56 8.09, 56L64.07, 56L88.07, 80L64.07, 104L8.09, 104C2.14, 104 -1.81, 110.31 0.84, 115.64C16.03, 146.16 49.85, 165.68 87.68, 158.51C113.33, 153.65 134.41, 135.52 144.73, 112L366.98, 112C379.36, 140.17 407.18, 160 439.92, 160C471.24, 160 498.09, 141.88 511.15, 115.63C513.81, 110.3 509.85, 104 503.91, 104zM448.49, 292.91L443.42, 280.24L423.49, 230.41C406.38, 187.64 365.57, 160.01 319.5, 160.01L192.5, 160.01C146.44, 160.01 105.62, 187.64 88.51, 230.41L68.58, 280.23L63.51, 292.9C40.33, 302.52 24, 325.34 24, 352L24, 384C24, 404.12 33.48, 421.86 48, 433.59L48, 480C48, 497.67 62.33, 512 80, 512L112, 512C129.67, 512 144, 497.67 144, 480L144, 448L368, 448L368, 480C368, 497.67 382.33, 512 400, 512L432, 512C449.67, 512 464, 497.67 464, 480L464, 433.59C478.52, 421.86 488, 404.12 488, 384L488, 352C488, 325.34 471.67, 302.52 448.49, 292.91zM96, 399.8C76.8, 399.8 64, 387.04 64, 367.9C64, 348.76 76.8, 336 96, 336C115.2, 336 144, 364.71 144, 383.85C144, 402.99 115.2, 399.8 96, 399.8zM134.4, 288.01L147.93, 254.18C155.22, 235.96 172.87, 224.01 192.5, 224.01L319.5, 224.01C339.13, 224.01 356.78, 235.96 364.07, 254.18L377.6, 288.01L134.4, 288.01zM416, 399.8C396.8, 399.8 368, 402.99 368, 383.85C368, 364.71 396.8, 336 416, 336C435.2, 336 448, 348.76 448, 367.9C448, 387.04 435.2, 399.8 416, 399.8z" fill="#727272" fill-opacity="1" class="Black" />
  </g>
</svg>