<?xml version='1.0' encoding='UTF-8'?>
<svg viewBox="-1.5477 -1.5477 32 32" xmlns="http://www.w3.org/2000/svg">
  <g transform="matrix(0.9991, 0, 0, 0.9991, 0, 0)">
    <g transform="matrix(0.0565, 0, 0, 0.0565, 0, 0)">
      <path d="M256, 8C393, 8 504, 119 504, 256C504, 393 393, 504 256, 504C119, 504 8, 393 8, 256C8, 119 119, 8 256, 8zM228.5, 387.5L351.5, 264.5C356.2, 259.8 356.2, 252.2 351.5, 247.5L228.5, 124.5C220.9, 116.9 208, 122.3 208, 133L208, 379C208, 389.7 220.9, 395.1 228.5, 387.5z" fill="#727272" fill-opacity="1" class="Black" />
    </g>
  </g>
</svg>