<?xml version='1.0' encoding='UTF-8'?>
<svg viewBox="-2 0 32 32" xmlns="http://www.w3.org/2000/svg">
  <g transform="matrix(0.0625, 0, 0, 0.0625, 0, 0)">
    <path d="M48, 32L400, 32C426.51, 32 448, 53.49 448, 80L448, 432C448, 458.51 426.51, 480 400, 480L48, 480C21.49, 480 0, 458.51 0, 432L0, 80C0, 53.49 21.49, 32 48, 32zM188.485, 387.515L311.514, 264.486C316.2, 259.8 316.2, 252.202 311.514, 247.515L188.485, 124.485C180.925, 116.925 168, 122.279 168, 132.97L168, 379.029C168, 389.72 180.926, 395.074 188.485, 387.515z" fill="#727272" fill-opacity="1" class="Black" />
  </g>
</svg>