<?xml version='1.0' encoding='UTF-8'?>
<svg viewBox="-1.5477 -1.5477 32 32" xmlns="http://www.w3.org/2000/svg">
  <g transform="matrix(0.9991, 0, 0, 0.9991, 0, 0)">
    <g transform="matrix(0.0565, 0, 0, 0.0565, 0, 0)">
      <path d="M256, 504C119, 504 8, 393 8, 256C8, 119 119, 8 256, 8C393, 8 504, 119 504, 256C504, 393 393, 504 256, 504zM283.5, 124.5L160.5, 247.5C155.8, 252.2 155.8, 259.8 160.5, 264.5L283.5, 387.5C291.1, 395.1 304, 389.7 304, 379L304, 133C304, 122.3 291.1, 116.9 283.5, 124.5z" fill="#727272" fill-opacity="1" class="Black" />
    </g>
  </g>
</svg>