<?xml version='1.0' encoding='UTF-8'?>
<svg viewBox="-2 0 32 32" xmlns="http://www.w3.org/2000/svg">
  <g transform="matrix(0.0625, 0, 0, 0.0625, 0, 0)">
    <path d="M0, 432L0, 80C0, 53.49 21.49, 32 48, 32L400, 32C426.51, 32 448, 53.49 448, 80L448, 432C448, 458.51 426.51, 480 400, 480L48, 480C21.49, 480 0, 458.51 0, 432zM355.515, 291.515L232.485, 168.485C227.799, 163.799 220.201, 163.799 215.514, 168.485L92.485, 291.515C84.925, 299.075 90.279, 312 100.97, 312L347.029, 312C357.72, 312 363.074, 299.074 355.515, 291.515z" fill="#727272" fill-opacity="1" class="Black" />
  </g>
</svg>