<?xml version='1.0' encoding='UTF-8'?>
<svg viewBox="-2 0 32 32" xmlns="http://www.w3.org/2000/svg">
  <g transform="matrix(0.0625, 0, 0, 0.0625, 0, 0)">
    <path d="M448, 80L448, 432C448, 458.5 426.5, 480 400, 480L48, 480C21.5, 480 0, 458.5 0, 432L0, 80C0, 53.5 21.5, 32 48, 32L400, 32C426.5, 32 448, 53.5 448, 80zM92.5, 220.5L215.5, 343.5C220.2, 348.2 227.8, 348.2 232.5, 343.5L355.5, 220.5C363.1, 212.9 357.7, 200 347, 200L101, 200C90.3, 200 84.9, 212.9 92.5, 220.5z" fill="#727272" fill-opacity="1" class="Black" />
  </g>
</svg>