<?xml version='1.0' encoding='UTF-8'?>
<svg viewBox="-2.0048 -2.0011 31.9975 32" xmlns="http://www.w3.org/2000/svg">
  <g transform="matrix(0.0547, 0, 0, 0.0547, 0, 0)">
    <path d="M511.1, 378.8L484.4, 218.8C481.8, 203.4 468.5, 192.1 452.8, 192.1L208, 192.1L208, 128.1L304, 128.1C312.8, 128.1 320, 120.9 320, 112.1L320, 16C320, 7.2 312.8, 0 304, 0L48, 0C39.2, 0 32, 7.2 32, 16L32, 112C32, 120.8 39.2, 128 48, 128L144, 128L144, 192L59.1, 192C43.5, 192 30.1, 203.3 27.5, 218.7L0.8, 378.7C0.2, 382.2 -0.1, 385.7 -0.1, 389.2L-0.1, 480C-0.1, 497.7 14.2, 512 31.9, 512L479.9, 512C497.6, 512 511.9, 497.7 511.9, 480L511.9, 389.3C512, 385.8 511.7, 382.3 511.1, 378.8zM280, 248C280, 239.2 287.2, 232 296, 232L312, 232C320.8, 232 328, 239.2 328, 248L328, 264C328, 272.8 320.8, 280 312, 280L296, 280C287.2, 280 280, 272.8 280, 264L280, 248zM248, 312L264, 312C272.8, 312 280, 319.2 280, 328L280, 344C280, 352.8 272.8, 360 264, 360L248, 360C239.2, 360 232, 352.8 232, 344L232, 328C232, 319.2 239.2, 312 248, 312zM216, 232C224.8, 232 232, 239.2 232, 248L232, 264C232, 272.8 224.8, 280 216, 280L200, 280C191.2, 280 184, 272.8 184, 264L184, 248C184, 239.2 191.2, 232 200, 232L216, 232zM80, 80L80, 48L272, 48L272, 80L80, 80zM120, 280L104, 280C95.2, 280 88, 272.8 88, 264L88, 248C88, 239.2 95.2, 232 104, 232L120, 232C128.8, 232 136, 239.2 136, 248L136, 264C136, 272.8 128.8, 280 120, 280zM136, 344L136, 328C136, 319.2 143.2, 312 152, 312L168, 312C176.8, 312 184, 319.2 184, 328L184, 344C184, 352.8 176.8, 360 168, 360L152, 360C143.2, 360 136, 352.8 136, 344zM352, 456C352, 460.4 348.4, 464 344, 464L168, 464C163.6, 464 160, 460.4 160, 456L160, 440C160, 435.6 163.6, 432 168, 432L344, 432C348.4, 432 352, 435.6 352, 440L352, 456zM376, 344C376, 352.8 368.8, 360 360, 360L344, 360C335.2, 360 328, 352.8 328, 344L328, 328C328, 319.2 335.2, 312 344, 312L360, 312C368.8, 312 376, 319.2 376, 328L376, 344zM424, 264C424, 272.8 416.8, 280 408, 280L392, 280C383.2, 280 376, 272.8 376, 264L376, 248C376, 239.2 383.2, 232 392, 232L408, 232C416.8, 232 424, 239.2 424, 248L424, 264z" fill="#727272" fill-opacity="1" class="Black" />
  </g>
</svg>