<?xml version='1.0' encoding='UTF-8'?>
<svg viewBox="-2 -2.0537 32 32" xmlns="http://www.w3.org/2000/svg">
  <g transform="matrix(0.0547, 0, 0, 0.0547, 0, 0)">
    <path d="M464, 63L48, 63A48 48 0 0 0 0, 111L0, 399A48 48 0 0 0 48, 447L80, 447L128, 351L384, 351L432, 447L464, 447A48 48 0 0 0 512, 399L512, 111A48 48 0 0 0 464, 63zM128, 255A32 32 0 1 1 160, 223A32 32 0 0 1 128, 255zM310.78, 255L201.22, 255A78.91 78.91 0 0 0 201.22, 191L310.78, 191A78.91 78.91 0 0 0 310.78, 255zM384, 255A32 32 0 1 1 416, 223A32 32 0 0 1 384, 255zM147.78, 383L115.78, 447L396.22, 447L364.22, 383z" fill="#727272" fill-opacity="1" class="Black" />
  </g>
</svg>