<?xml version='1.0' encoding='UTF-8'?>
<svg viewBox="-3.7494 -1.9999 32 32" xmlns="http://www.w3.org/2000/svg">
  <g transform="matrix(0.0547, 0, 0, 0.0547, 0, 0)">
    <path d="M448, 212L448, 172C448, 165.37 441.73, 160 434, 160L14, 160C6.27, 160 0, 165.37 0, 172L0, 212C0, 218.63 6.27, 224 14, 224L33.79, 224C12.39, 262.52 0, 305.28 0, 345.6C0, 384.68 11.82, 416.25 32, 441.13L32, 488C32, 501.25 42.75, 512 56, 512C69.25, 512 80, 501.25 80, 488L80, 480.51C118.95, 501.81 169.14, 512 224, 512C278.86, 512 329.05, 501.81 368, 480.51L368, 488C368, 501.25 378.75, 512 392, 512C405.25, 512 416, 501.25 416, 488L416, 441.13C436.18, 416.25 448, 384.68 448, 345.6C448, 305.28 435.61, 262.52 414.21, 224L434, 224C441.73, 224 448, 218.63 448, 212zM160, 64C177.67, 64 192, 49.67 192, 32C192, 14.33 177.67, 0 160, 0C142.33, 0 128, 14.33 128, 32C128, 49.67 142.33, 64 160, 64zM272, 128C298.51, 128 320, 106.51 320, 80C320, 53.49 298.51, 32 272, 32C245.49, 32 224, 53.49 224, 80C224, 106.51 245.49, 128 272, 128z" fill="#727272" fill-opacity="1" class="Black" />
  </g>
</svg>