<?xml version='1.0' encoding='UTF-8'?>
<svg viewBox="-3.7495 -2 31.9975 32" xmlns="http://www.w3.org/2000/svg">
  <g transform="matrix(0.0547, 0, 0, 0.0547, 0, 0)">
    <path d="M112, 128C112, 98.5 128.2, 73 152, 59.1L152, 256L200, 256L200, 48L248, 48L248, 256L296, 256L296, 59.1C319.8, 73 336, 98.5 336, 128L336, 256L384, 256L384, 128C384, 57.3 326.7, 0 256, 0L192, 0C121.3, 0 64, 57.3 64, 128L64, 256L112, 256zM446.3, 341.9L435.6, 309.9C431.2, 296.8 419, 288 405.2, 288L42.7, 288C28.9, 288 16.7, 296.8 12.3, 309.9L1.6, 341.9C-5.2, 362.6 10.2, 384 32, 384L32, 496C32, 504.8 39.2, 512 48, 512L80, 512C88.8, 512 96, 504.8 96, 496L96, 384L352, 384L352, 496C352, 504.8 359.2, 512 368, 512L400, 512C408.8, 512 416, 504.8 416, 496L416, 384C437.8, 384 453.2, 362.6 446.3, 341.9z" fill="#727272" fill-opacity="1" class="Black" />
  </g>
</svg>