<?xml version='1.0' encoding='UTF-8'?>
<svg viewBox="-1.9998 -3.5563 31.9975 32" xmlns="http://www.w3.org/2000/svg">
  <g transform="matrix(0.0486, 0, 0, 0.0486, 0, 0)">
    <path d="M336, 448L16, 448C7.16, 448 0, 455.16 0, 464L0, 496C0, 504.84 7.16, 512 16, 512L336, 512C344.84, 512 352, 504.84 352, 496L352, 464C352, 455.16 344.84, 448 336, 448zM544, 128L544, 80C544, 71.16 536.84, 64 528, 64C519.16, 64 512, 71.16 512, 80L512, 128L480, 128L480, 80C480, 71.16 472.84, 64 464, 64C455.16, 64 448, 71.16 448, 80L448, 128L432, 128C423.16, 128 416, 135.16 416, 144L416, 176C416, 211.76 439.62, 241.69 472, 251.93L472, 370.42C472, 384.37 462.5, 397.34 448.74, 399.61C431.22, 402.5 416, 388.99 416, 372L416, 344C416, 295.4 376.6, 256 328, 256L320, 256L320, 64C320, 28.65 291.35, 0 256, 0L96, 0C60.65, 0 32, 28.65 32, 64L32, 416L320, 416L320, 304L328, 304C350.09, 304 368, 321.91 368, 344L368, 368.61C368, 408.28 396.92, 443.77 436.41, 447.62C481.71, 452.05 520, 416.41 520, 372L520, 251.93C552.38, 241.69 576, 211.76 576, 176L576, 144C576, 135.16 568.84, 128 560, 128L544, 128zM260.09, 175.76L166.39, 314.76C164.19, 318.09 160.18, 320 156, 320C148.33, 320 142.53, 313.72 144.33, 307.08L167.35, 224L108, 224C100.75, 224 95.15, 218.41 96.11, 212.11L112.11, 105.11C112.9, 99.9 117.98, 96 124, 96L192, 96C199.88, 96 205.62, 102.54 203.6, 109.21L192, 160L249.7, 160C258.94, 160 264.71, 168.78 260.09, 175.76z" fill="#727272" fill-opacity="1" class="Black" />
  </g>
</svg>