<?xml version='1.0' encoding='UTF-8'?>
<svg viewBox="-2 -1.9988 32 32" xmlns="http://www.w3.org/2000/svg">
  <g transform="matrix(0.0547, 0, 0, 0.0547, 0, 0)">
    <path d="M500, 384C506.6, 384 512, 389.4 512, 396L512, 436C512, 442.6 506.6, 448 500, 448L12, 448C5.4, 448 0, 442.6 0, 436L0, 76C0, 69.4 5.4, 64 12, 64L52, 64C58.6, 64 64, 69.4 64, 76L64, 384L500, 384zM372.7, 159.5L288, 216L202.7, 102.3C197.6, 95.5 187.2, 96 182.8, 103.3L96, 248L96, 352L480, 352L390.1, 164.2C386.9, 157.7 378.7, 155.5 372.7, 159.5z" fill="#727272" fill-opacity="1" class="Black" />
  </g>
</svg>