<?xml version='1.0' encoding='UTF-8'?>
<svg viewBox="-2 -4.7992 32 32" xmlns="http://www.w3.org/2000/svg">
  <g transform="matrix(0.9988, 0, 0, 0.9988, 0, 0)">
    <g transform="matrix(0.0438, 0, 0, 0.0438, 0, 0)">
      <path d="M576, 192C611.3, 192 640, 163.3 640, 128C640, 92.7 611.3, 64 576, 64C540.7, 64 512, 92.7 512, 128C512, 163.3 540.7, 192 576, 192zM64, 240C28.7, 240 0, 268.7 0, 304C0, 339.3 28.7, 368 64, 368C99.3, 368 128, 339.3 128, 304C128, 268.7 99.3, 240 64, 240zM513.6, 202.8L494.4, 177.2L446.4, 213.2L465.6, 238.8L513.6, 202.8zM576, 384C561.6, 384 548.4, 389 537.7, 397L441.7, 339.4C445.5, 328.2 448, 316.4 448, 303.9C448, 242 397.9, 191.9 336, 191.9C327.6, 191.9 319.4, 193 311.6, 194.8L270.8, 107.4C281.4, 96 288, 80.8 288, 64C288, 28.7 259.3, 0 224, 0C188.7, 0 160, 28.7 160, 64C160, 99.3 188.7, 128 224, 128C225.1, 128 226.1, 127.7 227.2, 127.7L268.2, 215.5C241.5, 235.9 224, 267.8 224, 304C224, 365.9 274.1, 416 336, 416C368.1, 416 396.8, 402.3 417.2, 380.7L513, 438.2C512.5, 441.4 512, 444.7 512, 448C512, 483.3 540.7, 512 576, 512C611.3, 512 640, 483.3 640, 448C640, 412.7 611.3, 384 576, 384zM336, 352C309.5, 352 288, 330.5 288, 304C288, 277.5 309.5, 256 336, 256C362.5, 256 384, 277.5 384, 304C384, 330.5 362.5, 352 336, 352zM152, 320L200, 320L200, 288L152, 288L152, 320z" fill="#727272" fill-opacity="1" class="Black" />
    </g>
  </g>
</svg>