<?xml version='1.0' encoding='UTF-8'?>
<svg viewBox="-1.9975 -1.9975 32 32" xmlns="http://www.w3.org/2000/svg">
  <g transform="matrix(0.0547, 0, 0, 0.0547, 0, 0)">
    <path d="M461.29, 288L224, 288L224, 50.71C224, 41.16 215.61, 33.32 206.16, 34.65C87.08, 51.47 -3.96, 155.43 0.13, 280.07C4.2, 404.1 107.91, 507.8 231.93, 511.87C356.57, 515.96 460.53, 424.92 477.35, 305.84C478.68, 296.39 470.83, 288 461.29, 288zM288.8, 0.04C279.68, -0.59 272, 7.1 272, 16.24L272, 240L495.77, 240C504.91, 240 512.59, 232.31 511.97, 223.2C503.72, 103.74 408.26, 8.28 288.8, 0.04z" fill="#727272" fill-opacity="1" class="Black" />
  </g>
</svg>