<?xml version='1.0' encoding='UTF-8'?>
<svg viewBox="-2 -1.9988 32 32" xmlns="http://www.w3.org/2000/svg">
  <g transform="matrix(0.0547, 0, 0, 0.0547, 0, 0)">
    <path d="M496, 384L64, 384L64, 80A16 16 0 0 0 48, 64L16, 64A16 16 0 0 0 0, 80L0, 416A32 32 0 0 0 32, 448L496, 448A16 16 0 0 0 512, 432L512, 400A16 16 0 0 0 496, 384zM160, 320A32 32 0 1 0 128, 288A32 32 0 0 0 160, 320zM416, 160A32 32 0 1 0 384, 128A32 32 0 0 0 416, 160zM192, 160A32 32 0 1 0 160, 128A32 32 0 0 0 192, 160zM384, 320A32 32 0 1 0 352, 288A32 32 0 0 0 384, 320zM288, 256A32 32 0 1 0 256, 224A32 32 0 0 0 288, 256z" fill="#727272" fill-opacity="1" class="Black" />
  </g>
</svg>