<?xml version='1.0' encoding='UTF-8'?>
<svg viewBox="-2 -1.9988 32 32" xmlns="http://www.w3.org/2000/svg">
  <g transform="matrix(0.0547, 0, 0, 0.0547, 0, 0)">
    <path d="M332.8, 320L371.2, 320C377.6, 320 384, 313.6 384, 307.2L384, 172.8C384, 166.4 377.6, 160 371.2, 160L332.8, 160C326.4, 160 320, 166.4 320, 172.8L320, 307.2C320, 313.6 326.4, 320 332.8, 320zM428.8, 320L467.2, 320C473.6, 320 480, 313.6 480, 307.2L480, 76.8C480, 70.4 473.6, 64 467.2, 64L428.8, 64C422.4, 64 416, 70.4 416, 76.8L416, 307.2C416, 313.6 422.4, 320 428.8, 320zM140.8, 320L179.2, 320C185.6, 320 192, 313.6 192, 307.2L192, 236.8C192, 230.4 185.6, 224 179.2, 224L140.8, 224C134.4, 224 128, 230.4 128, 236.8L128, 307.2C128, 313.6 134.4, 320 140.8, 320zM236.8, 320L275.2, 320C281.6, 320 288, 313.6 288, 307.2L288, 108.8C288, 102.4 281.6, 96 275.2, 96L236.8, 96C230.4, 96 224, 102.4 224, 108.8L224, 307.2C224, 313.6 230.4, 320 236.8, 320zM496, 384L64, 384L64, 80C64, 71.16 56.84, 64 48, 64L16, 64C7.16, 64 0, 71.16 0, 80L0, 416C0, 433.67 14.33, 448 32, 448L496, 448C504.84, 448 512, 440.84 512, 432L512, 400C512, 391.16 504.84, 384 496, 384z" fill="#727272" fill-opacity="1" class="Black" />
  </g>
</svg>