<?xml version='1.0' encoding='UTF-8'?>
<svg viewBox="-2 -1.9988 32 32" xmlns="http://www.w3.org/2000/svg">
  <g transform="matrix(0.0547, 0, 0, 0.0547, 0, 0)">
    <path d="M496, 384L64, 384L64, 80C64, 71.16 56.84, 64 48, 64L16, 64C7.16, 64 0, 71.16 0, 80L0, 416C0, 433.67 14.33, 448 32, 448L496, 448C504.84, 448 512, 440.84 512, 432L512, 400C512, 391.16 504.84, 384 496, 384zM480, 304L480, 185.94C480, 164.56 454.15, 153.85 439.03, 168.97L406.63, 201.37L310.63, 105.37C298.13, 92.87 277.87, 92.87 265.38, 105.37L192, 178.75L145.94, 132.69C139.69, 126.44 129.56, 126.44 123.31, 132.69L100.69, 155.31C94.44, 161.56 94.44, 171.69 100.69, 177.94L169.38, 246.63C181.88, 259.13 202.14, 259.13 214.63, 246.63L288, 173.25L361.38, 246.63L328.98, 279.03C313.86, 294.15 324.57, 320 345.95, 320L464, 320C472.84, 320 480, 312.83 480, 304z" fill="#727272" fill-opacity="1" class="Black" />
  </g>
</svg>