<?xml version='1.0' encoding='UTF-8'?>
<svg viewBox="-1.5477 -1.5477 32 32" xmlns="http://www.w3.org/2000/svg">
  <g transform="matrix(0.9991, 0, 0, 0.9991, 0, 0)">
    <g transform="matrix(0.0565, 0, 0, 0.0565, 0, 0)">
      <path d="M504, 256C504, 392.967 392.967, 504 256, 504C119.033, 504 8, 392.967 8, 256C8, 119.033 119.033, 8 256, 8C392.967, 8 504, 119.033 504, 256zM227.314, 387.314L411.314, 203.314C417.562, 197.066 417.562, 186.935 411.314, 180.687L388.687, 158.06C382.439, 151.811 372.308, 151.811 366.059, 158.06L216, 308.118L145.941, 238.059C139.693, 231.811 129.562, 231.811 123.313, 238.059L100.686, 260.686C94.438, 266.934 94.438, 277.065 100.686, 283.313L204.686, 387.313C210.935, 393.562 221.065, 393.562 227.314, 387.314z" fill="#727272" fill-opacity="1" class="Black" />
    </g>
  </g>
</svg>