<?xml version='1.0' encoding='UTF-8'?>
<svg viewBox="-2 -1.9988 32 32" xmlns="http://www.w3.org/2000/svg">
  <g transform="matrix(0.0547, 0, 0, 0.0547, 0, 0)">
    <path d="M464, 256L416, 256L320, 320L224, 256L48, 256A48 48 0 0 0 48, 352L464, 352A48 48 0 0 0 464, 256zM58.6, 224L453.3, 224C487.9, 224 507.9, 180.1 488.1, 148.1C448, 83.2 359.5, 32.1 256, 32C152.5, 32.1 64, 83.2 23.8, 148.1C4, 180.1 24.1, 224 58.6, 224zM384, 112A16 16 0 1 1 368, 128A16 16 0 0 1 384, 112zM256, 80A16 16 0 1 1 240, 96A16 16 0 0 1 256, 80zM128, 112A16 16 0 1 1 112, 128A16 16 0 0 1 128, 112zM480, 384L32, 384A16 16 0 0 0 16, 400L16, 416A64.06 64.06 0 0 0 80, 480L432, 480A64.06 64.06 0 0 0 496, 416L496, 400A16 16 0 0 0 480, 384z" fill="#727272" fill-opacity="1" class="Black" />
  </g>
</svg>