<?xml version='1.0' encoding='UTF-8'?>
<svg viewBox="-2 -1.9988 32 32" xmlns="http://www.w3.org/2000/svg">
  <g transform="matrix(0.0547, 0, 0, 0.0547, 0, 0)">
    <path d="M368, 336A48 48 0 0 1 320, 288L0, 288L0, 448A32 32 0 0 0 32, 480L480, 480A32 32 0 0 0 512, 448L512, 288L416, 288A48 48 0 0 1 368, 336zM176, 432A48 48 0 1 1 224, 384A48 48 0 0 1 176, 432zM299.83, 32A32 32 0 0 0 278.7, 39L216.94, 87.06A47.91 47.91 0 0 1 141.84, 145.54L0, 256L512, 256C512, 136.11 418, 38.2 299.83, 32z" fill="#727272" fill-opacity="1" class="Black" />
  </g>
</svg>