<?xml version='1.0' encoding='UTF-8'?>
<svg viewBox="-6 2 32 32" xmlns="http://www.w3.org/2000/svg">
  <g transform="matrix(0.0625, 0, 0, 0.0625, 0, 0)">
    <path d="M311.16, 459.58L288, 448L288, 432A16 16 0 0 0 272, 416L48, 416A16 16 0 0 0 32, 432L32, 448L8.85, 459.58A16 16 0 0 0 0, 473.89L0, 496A16 16 0 0 0 16, 512L304, 512A16 16 0 0 0 320, 496L320, 473.89A16 16 0 0 0 311.16, 459.58zM71.81, 210.32L57.33, 384L262.67, 384L248.19, 210.3L278.81, 179.19A32 32 0 0 0 288, 156.74L288, 72A8 8 0 0 0 280, 64L244.82, 64A8 8 0 0 0 236.82, 72L236.82, 112L203.88, 112L203.88, 72A8 8 0 0 0 195.88, 64L124.13, 64A8 8 0 0 0 116.13, 72L116.13, 112L83.19, 112L83.19, 72A8 8 0 0 0 75.19, 64L40, 64A8 8 0 0 0 32, 72L32, 156.82A32 32 0 0 0 41.21, 179.29zM136.41, 231.59A23.59 23.59 0 0 1 183.59, 231.59L183.59, 278.77L136.41, 278.77z" fill="#727272" fill-opacity="1" class="Black" />
  </g>
</svg>