<?xml version='1.0' encoding='UTF-8'?>
<svg viewBox="-2 -2 32 32" xmlns="http://www.w3.org/2000/svg">
  <g transform="matrix(0.0547, 0, 0, 0.0547, 0, 0)">
    <path d="M74, 208L64, 208A16 16 0 0 0 48, 224L48, 240A16 16 0 0 0 64, 256L79.94, 256A535.78 535.78 0 0 1 64, 384L192, 384A535.78 535.78 0 0 1 176.06, 256L192, 256A16 16 0 0 0 208, 240L208, 224A16 16 0 0 0 192, 208L182, 208L215.89, 117.62A16 16 0 0 0 200.89, 96L144, 96L144, 64L168, 64A8 8 0 0 0 176, 56L176, 40A8 8 0 0 0 168, 32L144, 32L144, 8A8 8 0 0 0 136, 0L120, 0A8 8 0 0 0 112, 8L112, 32L88, 32A8 8 0 0 0 80, 40L80, 56A8 8 0 0 0 88, 64L112, 64L112, 96L55.09, 96A16 16 0 0 0 40.09, 117.62zM247.16, 459.58L224, 448L224, 432A16 16 0 0 0 208, 416L48, 416A16 16 0 0 0 32, 432L32, 448L8.85, 459.58A16 16 0 0 0 0, 473.89L0, 496A16 16 0 0 0 16, 512L240, 512A16 16 0 0 0 256, 496L256, 473.89A16 16 0 0 0 247.16, 459.58zM339.93, 301.8L336.64, 384L463.36, 384L460.07, 301.79L484.67, 281A32 32 0 0 0 496, 256.54L496, 198A6 6 0 0 0 490, 192L463.62, 192A6 6 0 0 0 457.62, 198L457.62, 224L432.91, 224L432.91, 198A6 6 0 0 0 426.91, 192L373.1, 192A6 6 0 0 0 367.1, 198L367.1, 224L342.39, 224L342.39, 198A6 6 0 0 0 336.39, 192L310, 192A6 6 0 0 0 304, 198L304, 256.6A32 32 0 0 0 315.36, 281zM384, 304A16 16 0 0 1 416, 304L416, 336L384, 336zM503.16, 459.58L480, 448L480, 432A16 16 0 0 0 464, 416L336, 416A16 16 0 0 0 320, 432L320, 448L296.85, 459.58A16 16 0 0 0 288, 473.89L288, 496A16 16 0 0 0 304, 512L496, 512A16 16 0 0 0 512, 496L512, 473.89A16 16 0 0 0 503.16, 459.58z" fill="#727272" fill-opacity="1" class="Black" />
  </g>
</svg>