<?xml version='1.0' encoding='UTF-8'?>
<svg viewBox="-2.0025 -4.7983 32 32" xmlns="http://www.w3.org/2000/svg">
  <g transform="matrix(1.0012, 0, 0, 1.0012, 0, 0)">
    <g transform="matrix(0.0437, 0, 0, 0.0437, 0, 0)">
      <path d="M519.38, 243A12 12 0 0 0 502.38, 243L451.49, 293.89A12 12 0 0 0 451.49, 310.89L457.14, 316.55A12 12 0 0 0 474.14, 316.55L525, 265.59A12 12 0 0 0 525, 248.59zM599.9, 128L543.9, 128L543.9, 112A16 16 0 0 0 527.9, 96L399.9, 96A16 16 0 0 0 383.9, 112L383.9, 128L200.15, 128L200.15, 79.94L240, 79.94A16 16 0 0 0 256, 63.94L256, 48A16 16 0 0 0 240, 32L112, 32A16 16 0 0 0 96, 48L96, 63.94A16 16 0 0 0 112, 79.94L152.18, 79.94L152.18, 128L39.9, 128A40 40 0 0 0 -0.1, 168L-0.1, 440A40 40 0 0 0 39.9, 480L599.9, 480A40 40 0 0 0 639.9, 440L639.9, 168A40 40 0 0 0 599.9, 128zM176.2, 416.06A112 112 0 1 1 288.2, 304.11A111.95 111.95 0 0 1 176.2, 416.06zM464.2, 416.06A112 112 0 1 1 576.2, 304.11A111.95 111.95 0 0 1 464.2, 416.06zM180.2, 224.14L172.2, 224.14A12 12 0 0 0 160.2, 236.14L160.2, 308.14A12 12 0 0 0 172.2, 320.14L180.2, 320.14A12 12 0 0 0 192.2, 308.14L192.2, 236.14A12 12 0 0 0 180.2, 224.14z" fill="#727272" fill-opacity="1" class="Black" />
    </g>
  </g>
</svg>