<?xml version='1.0' encoding='UTF-8'?>
<svg viewBox="-2 -1.9904 32 32" xmlns="http://www.w3.org/2000/svg">
  <g transform="matrix(0.0547, 0, 0, 0.0547, 0, 0)">
    <path d="M255.9, 0.2L191.9, 0.2L191.9, 64.2L255.9, 64.2zM0, 64.17L0, 128.17L64, 128.17L64, 64.17zM128, 0.2L64, 0.2L64, 64.2L128, 64.2zM192, 256.1L192, 320.1L256, 320.1L256, 256.1zM0, 192.12L0, 256.12L64, 256.12L64, 192.12zM383.85, 0.2L319.85, 0.2L319.85, 64.2L383.85, 64.2zM511.85, 0.2L447.85, 0.2L447.85, 64.2L511.85, 64.2zM128, 256.1L64, 256.1L64, 320.1L128, 320.1zM511.8, 448L511.8, 384L447.8, 384L447.8, 448zM511.8, 320L511.8, 256L447.8, 256L447.8, 320zM383.85, 512L447.85, 512L447.85, 448L383.85, 448zM511.85, 192.12L511.85, 128.12L447.85, 128.12L447.85, 192.12zM128, 512L192, 512L192, 448L128, 448zM0, 512L64, 512L64, 448L0, 448zM255.9, 512L319.9, 512L319.9, 448L255.9, 448zM0, 320.07L0, 384.07L64, 384.07L64, 320.07zM319.88, 128.15L319.88, 64.15L255.88, 64.15L255.88, 128.15zM255.88, 256.15L319.88, 256.15L319.88, 192.15L255.88, 192.15zM191.88, 384.15L191.88, 448.15L255.88, 448.15L255.88, 384.15zM319.88, 320.15L383.88, 320.15L383.88, 256.15L319.88, 256.15zM319.88, 192.2L383.88, 192.2L383.88, 128.2L319.88, 128.2zM319.88, 384.13L319.88, 448.13L383.88, 448.13L383.88, 384.13zM64, 384.05L64, 448.05L128, 448.05L128, 384.05zM192, 128.15L192, 64.15L128, 64.15L128, 128.15zM383.92, 384.05L447.92, 384.05L447.92, 320.05L383.92, 320.05zM255.92, 192.12L255.92, 128.12L191.92, 128.12L191.92, 192.12zM383.92, 64.17L383.92, 128.17L447.92, 128.17L447.92, 64.17zM255.92, 320.07L255.92, 384.07L319.92, 384.07L319.92, 320.07zM191.92, 192.12L128, 192.12L128, 256.12L192, 256.12zM383.84, 256.12L447.84, 256.12L447.84, 192.12L383.84, 192.12zM128, 128.15L64, 128.15L64, 192.15L128, 192.15zM128, 320.07L128, 384.07L192, 384.07L192, 320.07z" fill="#727272" fill-opacity="1" class="Black" />
  </g>
</svg>