<?xml version='1.0' encoding='UTF-8'?>
<svg viewBox="-7.2486 -2 32 32" xmlns="http://www.w3.org/2000/svg">
  <g transform="matrix(0.0547, 0, 0, 0.0547, 0, 0)">
    <path d="M106, 208L96, 208A16 16 0 0 0 80, 224L80, 240A16 16 0 0 0 96, 256L111.94, 256A535.78 535.78 0 0 1 96, 384L224, 384A535.78 535.78 0 0 1 208.06, 256L224, 256A16 16 0 0 0 240, 240L240, 224A16 16 0 0 0 224, 208L214, 208L247.89, 117.62A16 16 0 0 0 232.89, 96L176, 96L176, 64L200, 64A8 8 0 0 0 208, 56L208, 40A8 8 0 0 0 200, 32L176, 32L176, 8A8 8 0 0 0 168, 0L152, 0A8 8 0 0 0 144, 8L144, 32L120, 32A8 8 0 0 0 112, 40L112, 56A8 8 0 0 0 120, 64L144, 64L144, 96L87.09, 96A16 16 0 0 0 72.09, 117.62zM279.16, 459.58L256, 448L256, 432A16 16 0 0 0 240, 416L80, 416A16 16 0 0 0 64, 432L64, 448L40.85, 459.58A16 16 0 0 0 32, 473.89L32, 496A16 16 0 0 0 48, 512L272, 512A16 16 0 0 0 288, 496L288, 473.89A16 16 0 0 0 279.16, 459.58z" fill="#727272" fill-opacity="1" class="Black" />
  </g>
</svg>