<?xml version='1.0' encoding='UTF-8'?>
<svg viewBox="-4.8003 -0.1315 32 31.9975" xmlns="http://www.w3.org/2000/svg">
  <g transform="matrix(0.0583, 0, 0, 0.0583, 0, 0)">
    <path d="M368, 32L312, 32A16 16 0 0 0 296, 48L296, 96L248, 96L248, 48A16 16 0 0 0 232, 32L152, 32A16 16 0 0 0 136, 48L136, 96L88.1, 96L88.1, 48A16 16 0 0 0 72.1, 32L16, 32A16 16 0 0 0 0, 48L0, 224L64, 256C64, 304.33 62.46, 351 50.79, 416L333.21, 416C321.54, 351 320, 303.72 320, 256L384, 224L384, 48A16 16 0 0 0 368, 32zM224, 320L160, 320L160, 256A32 32 0 0 1 224, 256zM368, 448L16, 448A16 16 0 0 0 0, 464L0, 496A16 16 0 0 0 16, 512L368, 512A16 16 0 0 0 384, 496L384, 464A16 16 0 0 0 368, 448z" fill="#727272" fill-opacity="1" class="Black" />
  </g>
</svg>