<?xml version='1.0' encoding='UTF-8'?>
<svg viewBox="-0.3131 -0.3106 32 31.9975" xmlns="http://www.w3.org/2000/svg">
  <g transform="matrix(0.0613, 0, 0, 0.0613, 0, 0)">
    <path d="M34.5, 239L228.9, 44.7C238.3, 35.3 253.5, 35.3 262.8, 44.7L285.5, 67.4C294.9, 76.8 294.9, 91.9 285.5, 101.3L131.5, 256L285.5, 410.7C294.8, 420.1 294.8, 435.2 285.5, 444.6L262.8, 467.3C253.4, 476.7 238.2, 476.7 228.9, 467.3L34.5, 273C25.2, 263.6 25.2, 248.4 34.5, 239zM226.5, 273L420.8, 467.3C430.2, 476.7 445.4, 476.7 454.7, 467.3L477.4, 444.6C486.8, 435.2 486.8, 420.1 477.4, 410.7L323.5, 256L477.5, 101.3C486.8, 91.9 486.8, 76.8 477.5, 67.4L454.8, 44.7C445.4, 35.3 430.2, 35.3 420.9, 44.7L226.5, 239C217.2, 248.4 217.2, 263.6 226.5, 273z" fill="#727272" fill-opacity="1" class="Black" />
  </g>
</svg>