<?xml version='1.0' encoding='UTF-8'?>
<svg viewBox="-1.5477 -1.5477 32 32" xmlns="http://www.w3.org/2000/svg">
  <g transform="matrix(0.9991, 0, 0, 0.9991, 0, 0)">
    <g transform="matrix(0.0565, 0, 0, 0.0565, 0, 0)">
      <path d="M504, 256C504, 393 393, 504 256, 504C119, 504 8, 393 8, 256C8, 119 119, 8 256, 8C393, 8 504, 119 504, 256zM273, 369.9L408.5, 234.4C417.9, 225 417.9, 209.8 408.5, 200.5L391.5, 183.5C382.1, 174.1 366.9, 174.1 357.6, 183.5L256, 285.1L154.4, 183.5C145, 174.1 129.8, 174.1 120.5, 183.5L103.5, 200.5C94.1, 209.9 94.1, 225.1 103.5, 234.4L239, 369.9C248.4, 379.3 263.6, 379.3 273, 369.9z" fill="#727272" fill-opacity="1" class="Black" />
    </g>
  </g>
</svg>