<?xml version='1.0' encoding='UTF-8'?>
<svg viewBox="-2 0 32 32" xmlns="http://www.w3.org/2000/svg">
  <g transform="matrix(0.0625, 0, 0, 0.0625, 0, 0)">
    <path d="M448, 80L448, 432C448, 458.51 426.51, 480 400, 480L48, 480C21.49, 480 0, 458.51 0, 432L0, 80C0, 53.49 21.49, 32 48, 32L400, 32C426.51, 32 448, 53.49 448, 80zM240.971, 361.941L376.486, 226.426C385.859, 217.053 385.859, 201.857 376.486, 192.485L359.515, 175.514C350.142, 166.141 334.946, 166.141 325.574, 175.514L224, 277.088L122.427, 175.515C113.054, 166.142 97.858, 166.142 88.486, 175.515L71.515, 192.486C62.142, 201.859 62.142, 217.055 71.515, 226.427L207.03, 361.942C216.402, 371.314 231.598, 371.314 240.971, 361.941z" fill="#727272" fill-opacity="1" class="Black" />
  </g>
</svg>