<?xml version='1.0' encoding='UTF-8'?>
<svg viewBox="-2 0 32 32" xmlns="http://www.w3.org/2000/svg">
  <g transform="matrix(0.0625, 0, 0, 0.0625, 0, 0)">
    <path d="M400, 480L48, 480C21.49, 480 0, 458.51 0, 432L0, 80C0, 53.49 21.49, 32 48, 32L400, 32C426.51, 32 448, 53.49 448, 80L448, 432C448, 458.51 426.51, 480 400, 480zM118.059, 272.971L253.574, 408.486C262.947, 417.859 278.143, 417.859 287.515, 408.486L304.486, 391.515C313.859, 382.142 313.859, 366.946 304.486, 357.574L202.912, 256L304.486, 154.427C313.859, 145.054 313.859, 129.858 304.486, 120.486L287.515, 103.515C278.142, 94.142 262.946, 94.142 253.574, 103.515L118.059, 239.029C108.686, 248.402 108.686, 263.598 118.059, 272.971z" fill="#727272" fill-opacity="1" class="Black" />
  </g>
</svg>