<?xml version='1.0' encoding='UTF-8'?>
<svg viewBox="-0.3159 -0.3134 32 32" xmlns="http://www.w3.org/2000/svg">
  <g transform="matrix(0.0613, 0, 0, 0.0613, 0, 0)">
    <path d="M477.5, 273L283.1, 467.3C273.7, 476.7 258.5, 476.7 249.2, 467.3L226.5, 444.6C217.1, 435.2 217.1, 420.1 226.5, 410.7L380.5, 256L226.5, 101.3C217.2, 91.9 217.2, 76.8 226.5, 67.4L249.2, 44.7C258.6, 35.3 273.8, 35.3 283.1, 44.7L477.5, 239C486.8, 248.4 486.8, 263.6 477.5, 273zM285.5, 239L91.1, 44.7C81.7, 35.3 66.5, 35.3 57.2, 44.7L34.5, 67.4C25.1, 76.8 25.1, 91.9 34.5, 101.3L188.5, 256L34.5, 410.7C25.2, 420.1 25.2, 435.2 34.5, 444.6L57.2, 467.3C66.6, 476.7 81.8, 476.7 91.1, 467.3L285.5, 273C294.8, 263.6 294.8, 248.4 285.5, 239z" fill="#727272" fill-opacity="1" class="Black" />
  </g>
</svg>