<?xml version='1.0' encoding='UTF-8'?>
<svg viewBox="-1.5477 -1.5477 32 32" xmlns="http://www.w3.org/2000/svg">
  <g transform="matrix(0.9991, 0, 0, 0.9991, 0, 0)">
    <g transform="matrix(0.0565, 0, 0, 0.0565, 0, 0)">
      <path d="M256, 504C119, 504 8, 393 8, 256C8, 119 119, 8 256, 8C393, 8 504, 119 504, 256C504, 393 393, 504 256, 504zM142.1, 273L277.6, 408.5C287, 417.9 302.2, 417.9 311.5, 408.5L328.5, 391.5C337.9, 382.1 337.9, 366.9 328.5, 357.6L226.9, 256L328.5, 154.4C337.9, 145 337.9, 129.8 328.5, 120.5L311.5, 103.5C302.1, 94.1 286.9, 94.1 277.6, 103.5L142.1, 239C132.7, 248.4 132.7, 263.6 142.1, 273z" fill="#727272" fill-opacity="1" class="Black" />
    </g>
  </g>
</svg>