<?xml version='1.0' encoding='UTF-8'?>
<svg viewBox="-2.2749 -0.3159 32 32" xmlns="http://www.w3.org/2000/svg">
  <g transform="matrix(0.0613, 0, 0, 0.0613, 0, 0)">
    <path d="M207, 477.5L12.7, 283.1C3.3, 273.7 3.3, 258.5 12.7, 249.2L35.4, 226.5C44.8, 217.1 59.9, 217.1 69.3, 226.5L224, 380.5L378.7, 226.5C388.1, 217.2 403.2, 217.2 412.6, 226.5L435.3, 249.2C444.7, 258.6 444.7, 273.8 435.3, 283.1L241, 477.5C231.6, 486.8 216.4, 486.8 207, 477.5zM241, 285.5L435.3, 91.1C444.7, 81.7 444.7, 66.5 435.3, 57.2L412.6, 34.5C403.2, 25.1 388.1, 25.1 378.7, 34.5L224, 188.5L69.3, 34.5C59.9, 25.2 44.8, 25.2 35.4, 34.5L12.7, 57.2C3.3, 66.6 3.3, 81.8 12.7, 91.1L207, 285.5C216.4, 294.8 231.6, 294.8 241, 285.5z" fill="#727272" fill-opacity="1" class="Black" />
  </g>
</svg>