<?xml version='1.0' encoding='UTF-8'?>
<svg viewBox="-1.9999 -1.9999 32 32" xmlns="http://www.w3.org/2000/svg">
  <g transform="matrix(0.0547, 0, 0, 0.0547, 0, 0)">
    <path d="M480, 0L32, 0C14.3, 0 0, 14.3 0, 32L0, 160C0, 177.7 14.3, 192 32, 192L480, 192C497.7, 192 512, 177.7 512, 160L512, 32C512, 14.3 497.7, 0 480, 0zM32, 512L320, 512L320, 384L32, 384L32, 512zM192, 352L480, 352L480, 224L192, 224L192, 352zM32, 224L32, 352L160, 352L160, 224L32, 224zM352, 512L480, 512L480, 384L352, 384L352, 512z" fill="#727272" fill-opacity="1" class="Black" />
  </g>
</svg>