<?xml version='1.0' encoding='UTF-8'?>
<svg viewBox="-1.5477 -1.3479 32 31.9975" xmlns="http://www.w3.org/2000/svg">
  <g transform="matrix(0.9991, 0, 0, 0.9991, 0, 0)">
    <g transform="matrix(0.0565, 0, 0, 0.0565, 0, 0)">
      <path d="M288, 39.056L288, 55.715C288, 66.519 295.281, 75.874 305.686, 78.781C383.204, 100.434 440, 171.518 440, 256C440, 357.689 357.705, 440 256, 440C154.311, 440 72, 357.705 72, 256C72, 171.53 128.786, 100.436 206.312, 78.781C216.719, 75.874 224, 66.517 224, 55.712L224, 39.064C224, 23.355 209.166, 11.911 193.954, 15.83C86.603, 43.482 7.394, 141.206 8.003, 257.332C8.723, 394.384 119.48, 504.288 256.534, 503.999C393.255, 503.711 504, 392.788 504, 256C504, 140.367 424.86, 43.221 317.789, 15.764C302.678, 11.889 288, 23.456 288, 39.056z" fill="#727272" fill-opacity="1" class="Black" />
    </g>
  </g>
</svg>