<?xml version='1.0' encoding='UTF-8'?>
<svg viewBox="-1.9999 -4.8004 32 32" xmlns="http://www.w3.org/2000/svg">
  <g transform="matrix(1.0011, 0, 0, 1.0011, 0, 0)">
    <g transform="matrix(0.0437, 0, 0, 0.0437, 0, 0)">
      <path d="M616, 192L480, 192L480, 24C480, 10.74 469.26, 0 456, 0L312, 0C298.74, 0 288, 10.74 288, 24L288, 96L224, 96L224, 16C224, 7.16 216.84, 0 208, 0L192, 0C183.16, 0 176, 7.16 176, 16L176, 96L112, 96L112, 16C112, 7.16 104.84, 0 96, 0L80, 0C71.16, 0 64, 7.16 64, 16L64, 96L24, 96C10.74, 96 0, 106.74 0, 120L0, 480C0, 497.67 14.33, 512 32, 512L608, 512C625.67, 512 640, 497.67 640, 480L640, 216C640, 202.74 629.25, 192 616, 192zM128, 404C128, 410.63 122.63, 416 116, 416L76, 416C69.37, 416 64, 410.63 64, 404L64, 364C64, 357.37 69.37, 352 76, 352L116, 352C122.63, 352 128, 357.37 128, 364L128, 404zM128, 308C128, 314.63 122.63, 320 116, 320L76, 320C69.37, 320 64, 314.63 64, 308L64, 268C64, 261.37 69.37, 256 76, 256L116, 256C122.63, 256 128, 261.37 128, 268L128, 308zM128, 212C128, 218.63 122.63, 224 116, 224L76, 224C69.37, 224 64, 218.63 64, 212L64, 172C64, 165.37 69.37, 160 76, 160L116, 160C122.63, 160 128, 165.37 128, 172L128, 212zM256, 404C256, 410.63 250.63, 416 244, 416L204, 416C197.37, 416 192, 410.63 192, 404L192, 364C192, 357.37 197.37, 352 204, 352L244, 352C250.63, 352 256, 357.37 256, 364L256, 404zM256, 308C256, 314.63 250.63, 320 244, 320L204, 320C197.37, 320 192, 314.63 192, 308L192, 268C192, 261.37 197.37, 256 204, 256L244, 256C250.63, 256 256, 261.37 256, 268L256, 308zM256, 212C256, 218.63 250.63, 224 244, 224L204, 224C197.37, 224 192, 218.63 192, 212L192, 172C192, 165.37 197.37, 160 204, 160L244, 160C250.63, 160 256, 165.37 256, 172L256, 212zM416, 308C416, 314.63 410.63, 320 404, 320L364, 320C357.37, 320 352, 314.63 352, 308L352, 268C352, 261.37 357.37, 256 364, 256L404, 256C410.63, 256 416, 261.37 416, 268L416, 308zM416, 212C416, 218.63 410.63, 224 404, 224L364, 224C357.37, 224 352, 218.63 352, 212L352, 172C352, 165.37 357.37, 160 364, 160L404, 160C410.63, 160 416, 165.37 416, 172L416, 212zM416, 116C416, 122.63 410.63, 128 404, 128L364, 128C357.37, 128 352, 122.63 352, 116L352, 76C352, 69.37 357.37, 64 364, 64L404, 64C410.63, 64 416, 69.37 416, 76L416, 116zM576, 404C576, 410.63 570.63, 416 564, 416L524, 416C517.37, 416 512, 410.63 512, 404L512, 364C512, 357.37 517.37, 352 524, 352L564, 352C570.63, 352 576, 357.37 576, 364L576, 404zM576, 308C576, 314.63 570.63, 320 564, 320L524, 320C517.37, 320 512, 314.63 512, 308L512, 268C512, 261.37 517.37, 256 524, 256L564, 256C570.63, 256 576, 261.37 576, 268L576, 308z" fill="#727272" fill-opacity="1" class="Black" />
    </g>
  </g>
</svg>