<?xml version='1.0' encoding='UTF-8'?>
<svg viewBox="-1.9975 -1.9975 32 32" xmlns="http://www.w3.org/2000/svg">
  <g transform="matrix(0.0547, 0, 0, 0.0547, 0, 0)">
    <path d="M6.99, 224.51C1.99, 222.14 -2.41, 228.6 1.5, 232.51L86.62, 317.64C92.62, 323.64 95.99, 331.78 95.99, 340.27L95.99, 384L139.73, 384C148.22, 384 156.36, 387.37 162.36, 393.37L279.51, 510.53C283.37, 514.39 289.83, 509.97 287.5, 505.04C206.4, 333.11 63.36, 251.26 6.99, 224.51zM246.63, 29.63C252.63, 35.63 256, 43.77 256, 52.26L256, 96L299.74, 96C308.23, 96 316.37, 99.37 322.37, 105.37L374.63, 157.63C380.63, 163.63 384, 171.77 384, 180.26L384, 224L427.73, 224C436.22, 224 444.36, 227.37 450.36, 233.37L503.52, 286.53C507.38, 290.39 513.84, 285.97 511.51, 281.04C430.4, 109.11 287.36, 27.26 230.99, 0.51C225.99, -1.86 221.59, 4.6 225.5, 8.51L246.63, 29.63zM204.27, 120.32C196.47, 114.27 192, 105.17 192, 95.29L192, 64L134.01, 64C128, 64 121.97, 62.16 116.89, 58.95C74.85, 32.39 38.37, 13.23 12.42, 0.91C3.54, -3.3 -4.28, 8.18 2.67, 15.13L182.63, 195.09C188.63, 201.09 192, 209.23 192, 217.72L192, 256L230.29, 256C238.78, 256 246.91, 259.37 252.92, 265.37L342.63, 355.08C348.63, 361.08 352, 369.22 352, 377.71L352, 416L390.29, 416C398.78, 416 406.91, 419.37 412.92, 425.37L496.93, 509.38C503.79, 516.24 515.27, 508.39 511.13, 499.62C428.4, 324.28 309.58, 201.97 204.27, 120.32z" fill="#727272" fill-opacity="1" class="Black" />
  </g>
</svg>