<?xml version='1.0' encoding='UTF-8'?>
<svg viewBox="-5.5003 -2 32 32" xmlns="http://www.w3.org/2000/svg">
  <g transform="matrix(0.0547, 0, 0, 0.0547, 0, 0)">
    <path d="M384, 112L384, 464C384, 490.51 362.51, 512 336, 512L48, 512C21.49, 512 0, 490.51 0, 464L0, 112C0, 85.49 21.49, 64 48, 64L128, 64C128, 28.71 156.71, 0 192, 0C227.29, 0 256, 28.71 256, 64L336, 64C362.51, 64 384, 85.49 384, 112zM192, 40C178.745, 40 168, 50.745 168, 64C168, 77.255 178.745, 88 192, 88C205.255, 88 216, 77.255 216, 64C216, 50.745 205.255, 40 192, 40M288, 154L288, 134A6 6 0 0 0 282, 128L102, 128A6 6 0 0 0 96, 134L96, 154A6 6 0 0 0 102, 160L282, 160A6 6 0 0 0 288, 154z" fill="#727272" fill-opacity="1" class="Black" />
  </g>
</svg>