<?xml version='1.0' encoding='UTF-8'?>
<svg viewBox="-1.5477 -1.5477 32 32" xmlns="http://www.w3.org/2000/svg">
  <g transform="matrix(0.9991, 0, 0, 0.9991, 0, 0)">
    <g transform="matrix(0.0565, 0, 0, 0.0565, 0, 0)">
      <path d="M256, 8C119, 8 8, 119 8, 256C8, 393 119, 504 256, 504C393, 504 504, 393 504, 256C504, 119 393, 8 256, 8zM313.1, 358.1L224.9, 294C221.8, 291.7 220, 288.1 220, 284.3L220, 116C220, 109.4 225.4, 104 232, 104L280, 104C286.6, 104 292, 109.4 292, 116L292, 253.7L355.5, 299.9C360.9, 303.8 362, 311.3 358.1, 316.7L329.9, 355.5C326, 360.8 318.5, 362 313.1, 358.1z" fill="#727272" fill-opacity="1" class="Black" />
    </g>
  </g>
</svg>