<?xml version='1.0' encoding='UTF-8'?>
<svg viewBox="-2 -4.7992 32 32" xmlns="http://www.w3.org/2000/svg">
  <g transform="matrix(0.9988, 0, 0, 0.9988, 0, 0)">
    <g transform="matrix(0.0438, 0, 0, 0.0438, 0, 0)">
      <path d="M537.6, 226.6C541.7, 215.9 544, 204.2 544, 192C544, 139 501, 96 448, 96C428.3, 96 409.9, 102 394.7, 112.2C367, 64.2 315.3, 32 256, 32C167.6, 32 96, 103.6 96, 192C96, 194.7 96.1, 197.4 96.2, 200.1C40.2, 219.8 0, 273.2 0, 336C0, 415.5 64.5, 480 144, 480L512, 480C582.7, 480 640, 422.7 640, 352C640, 290.1 596, 238.4 537.6, 226.6zM397.7, 290.3L386.9, 301.1C377.3, 310.7 361.7, 310.4 352.4, 300.6L320, 266.1L320, 392C320, 405.3 309.3, 416 296, 416L280, 416C266.7, 416 256, 405.3 256, 392L256, 266.1L223.6, 300.6C214.3, 310.5 198.7, 310.7 189.1, 301.1L178.3, 290.3C168.9, 280.9 168.9, 265.7 178.3, 256.4L271, 163.7C280.4, 154.3 295.6, 154.3 304.9, 163.7L397.6, 256.4C407, 265.8 407, 281 397.7, 290.3z" fill="#727272" fill-opacity="1" class="Black" />
    </g>
  </g>
</svg>