<?xml version='1.0' encoding='UTF-8'?>
<svg viewBox="-2 -2 32 32" xmlns="http://www.w3.org/2000/svg">
  <g transform="matrix(0.0547, 0, 0, 0.0547, 0, 0)">
    <path d="M416, 128C415.4, 128 414.9, 128.2 414.4, 128.2C415.5, 123 416, 117.6 416, 112C416, 67.8 380.2, 32 336, 32C311.4, 32 289.7, 43.3 275, 60.8C256.4, 24.8 219.3, 0 176, 0C114.1, 0 64, 50.1 64, 112C64, 119.3 64.8, 126.3 66.1, 133.2C27.8, 145.8 0, 181.5 0, 224C0, 277 43, 320 96, 320L416, 320C469, 320 512, 277 512, 224C512, 171 469, 128 416, 128zM48, 368C39.2, 368 32, 375.2 32, 384L32, 464C32, 472.8 39.2, 480 48, 480C56.8, 480 64, 472.8 64, 464L64, 384C64, 375.2 56.8, 368 48, 368zM144, 400C135.2, 400 128, 407.2 128, 416L128, 496C128, 504.8 135.2, 512 144, 512C152.8, 512 160, 504.8 160, 496L160, 416C160, 407.2 152.8, 400 144, 400zM240, 368C231.2, 368 224, 375.2 224, 384L224, 464C224, 472.8 231.2, 480 240, 480C248.8, 480 256, 472.8 256, 464L256, 384C256, 375.2 248.8, 368 240, 368zM336, 400C327.2, 400 320, 407.2 320, 416L320, 496C320, 504.8 327.2, 512 336, 512C344.8, 512 352, 504.8 352, 496L352, 416C352, 407.2 344.8, 400 336, 400zM432, 368C423.2, 368 416, 375.2 416, 384L416, 464C416, 472.8 423.2, 480 432, 480C440.8, 480 448, 472.8 448, 464L448, 384C448, 375.2 440.8, 368 432, 368z" fill="#727272" fill-opacity="1" class="Black" />
  </g>
</svg>