<?xml version='1.0' encoding='UTF-8'?>
<svg viewBox="-2.0035 -1.9999 32 31.9975" xmlns="http://www.w3.org/2000/svg">
  <g transform="matrix(0.0547, 0, 0, 0.0547, 0, 0)">
    <path d="M512, 224C512, 171 469, 128 416, 128C415.4, 128 414.9, 128.2 414.4, 128.2C415.5, 123 416, 117.6 416, 112C416, 67.8 380.2, 32 336, 32C311.4, 32 289.7, 43.3 275, 60.8C256.4, 24.8 219.3, 0 176, 0C114.1, 0 64, 50.1 64, 112C64, 119.3 64.8, 126.3 66.1, 133.2C27.8, 145.8 0, 181.5 0, 224C0, 277 43, 320 96, 320L416, 320C469, 320 512, 277 512, 224zM87.2, 353.7C79.3, 349.8 69.7, 353 65.7, 360.9L1.7, 488.9C-2.2, 496.8 0.9, 506.4 8.9, 510.4C11.2, 511.5 13.7, 512.1 16.1, 512.1C21.9, 512.1 27.6, 508.9 30.4, 503.3L94.4, 375.3C98.2, 367.2 95.1, 357.6 87.2, 353.7zM343.2, 353.7C335.3, 349.8 325.7, 353 321.7, 360.9L257.7, 488.9C253.8, 496.8 256.9, 506.4 264.9, 510.4C267.2, 511.5 269.7, 512.1 272.1, 512.1C277.9, 512.1 283.6, 508.9 286.4, 503.3L350.4, 375.3C354.2, 367.2 351.1, 357.6 343.2, 353.7zM494.9, 389.1L486.9, 375.2C484.7, 371.4 479.8, 370.1 476, 372.3L448, 388.4L448, 360C448, 355.6 444.4, 352 440, 352L424, 352C419.6, 352 416, 355.6 416, 360L416, 388.4L388, 372.3C384.2, 370.1 379.3, 371.4 377.1, 375.2L369.1, 389.1C366.9, 392.9 368.2, 397.8 372, 400L399.9, 416L372, 432C368.2, 434.2 366.9, 439.1 369.1, 442.9L377.1, 456.8C379.3, 460.6 384.2, 461.9 388, 459.7L416, 443.6L416, 472C416, 476.4 419.6, 480 424, 480L440, 480C444.4, 480 448, 476.4 448, 472L448, 443.6L476, 459.7C479.8, 461.9 484.7, 460.6 486.9, 456.8L494.9, 442.9C497.1, 439.1 495.8, 434.2 492, 432L464.1, 416L492, 400C495.8, 397.8 497.1, 392.9 494.9, 389.1zM238.9, 389.1L230.9, 375.2C228.7, 371.4 223.8, 370.1 220, 372.3L192, 388.4L192, 360C192, 355.6 188.4, 352 184, 352L168, 352C163.6, 352 160, 355.6 160, 360L160, 388.4L132, 372.3C128.2, 370.1 123.3, 371.4 121.1, 375.2L113.1, 389.1C110.9, 392.9 112.2, 397.8 116, 400L143.9, 416L116, 432C112.2, 434.2 110.9, 439.1 113.1, 442.9L121.1, 456.8C123.3, 460.6 128.2, 461.9 132, 459.7L160, 443.6L160, 472C160, 476.4 163.6, 480 168, 480L184, 480C188.4, 480 192, 476.4 192, 472L192, 443.6L220, 459.7C223.8, 461.9 228.7, 460.6 230.9, 456.8L238.9, 442.9C241.1, 439.1 239.8, 434.2 236, 432L208.1, 416L236, 400C239.8, 397.8 241.1, 392.9 238.9, 389.1z" fill="#727272" fill-opacity="1" class="Black" />
  </g>
</svg>