<?xml version='1.0' encoding='UTF-8'?>
<svg viewBox="-1.9999 -1.9999 32 32" xmlns="http://www.w3.org/2000/svg">
  <g transform="matrix(0.0547, 0, 0, 0.0547, 0, 0)">
    <path d="M183.9, 370.1C176.3, 365.7 166.5, 368.3 162.1, 376.1L98.1, 488.1C93.7, 495.8 96.4, 505.6 104.1, 509.9C106.6, 511.3 109.3, 512 112, 512C117.5, 512 122.9, 509.1 125.9, 503.9L189.9, 391.9C194.3, 384.3 191.6, 374.5 183.9, 370.1zM279.2, 369.7C271.3, 365.8 261.7, 368.9 257.7, 376.9L241.7, 408.9C237.8, 416.8 240.9, 426.4 248.9, 430.4C251.2, 431.5 253.7, 432.1 256.1, 432.1C261.9, 432.1 267.6, 428.9 270.4, 423.3L286.4, 391.3C290.2, 383.2 287.1, 373.6 279.2, 369.7zM87.2, 369.7C79.3, 365.8 69.7, 368.9 65.7, 376.9L49.7, 408.9C45.8, 416.8 48.9, 426.4 56.9, 430.4C59.2, 431.5 61.7, 432.1 64.1, 432.1C69.9, 432.1 75.6, 428.9 78.4, 423.3L94.4, 391.3C98.2, 383.2 95.1, 373.6 87.2, 369.7zM471.2, 369.7C463.3, 365.8 453.7, 368.9 449.7, 376.9L433.7, 408.9C429.8, 416.8 432.9, 426.4 440.9, 430.4C443.2, 431.5 445.7, 432.1 448.1, 432.1C453.9, 432.1 459.6, 428.9 462.4, 423.3L478.4, 391.3C482.2, 383.2 479.1, 373.6 471.2, 369.7zM375.9, 370.1C368.3, 365.7 358.5, 368.3 354.1, 376.1L290.1, 488.1C285.7, 495.8 288.4, 505.6 296.1, 509.9C298.6, 511.3 301.3, 512 304, 512C309.5, 512 314.9, 509.1 317.9, 503.9L381.9, 391.9C386.3, 384.3 383.6, 374.5 375.9, 370.1zM416, 128C415.4, 128 414.9, 128.2 414.4, 128.2C415.5, 123 416, 117.6 416, 112C416, 67.8 380.2, 32 336, 32C311.4, 32 289.7, 43.3 275, 60.8C256.4, 24.8 219.3, 0 176, 0C114.1, 0 64, 50.1 64, 112C64, 119.3 64.8, 126.3 66.1, 133.2C27.8, 145.8 0, 181.5 0, 224C0, 277 43, 320 96, 320L416, 320C469, 320 512, 277 512, 224C512, 171 469, 128 416, 128zM32, 448C14.3, 448 0, 462.3 0, 480C0, 497.7 14.3, 512 32, 512C49.7, 512 64, 497.7 64, 480C64, 462.3 49.7, 448 32, 448zM224, 448C206.3, 448 192, 462.3 192, 480C192, 497.7 206.3, 512 224, 512C241.7, 512 256, 497.7 256, 480C256, 462.3 241.7, 448 224, 448zM416, 448C398.3, 448 384, 462.3 384, 480C384, 497.7 398.3, 512 416, 512C433.7, 512 448, 497.7 448, 480C448, 462.3 433.7, 448 416, 448z" fill="#727272" fill-opacity="1" class="Black" />
  </g>
</svg>