<?xml version='1.0' encoding='UTF-8'?>
<svg viewBox="-1.9998 -3.5563 31.9975 32" xmlns="http://www.w3.org/2000/svg">
  <g transform="matrix(0.0486, 0, 0, 0.0486, 0, 0)">
    <path d="M342.8, 352.7C348.5, 343.1 352, 332 352, 320C352, 284.7 323.3, 256 288, 256C270.8, 256 255.2, 262.9 243.7, 273.9C227.4, 244.3 196.2, 224 160, 224C107, 224 64, 267 64, 320C64, 322 64.5, 323.8 64.6, 325.7C27.1, 338.8 0, 374.1 0, 416C0, 469 43, 512 96, 512L336, 512C380.2, 512 416, 476.2 416, 432C416, 390.1 383.7, 356.2 342.8, 352.7zM565.3, 298.4C472.2, 316.1 386.8, 244.7 386.8, 150.7C386.8, 96.5 415.8, 46.7 462.9, 19.9C470.2, 15.8 468.3, 4.8 460.1, 3.2C448.4, 1.1 436.7, 0 425, 0C319.1, 0 233.1, 85.9 233.1, 192C233.1, 200.5 233.8, 208.8 234.9, 217C240.8, 221.3 246.5, 225.9 251.6, 231.2C263, 226.5 275.3, 224 288, 224C340.9, 224 384, 267.1 384, 320C384, 323.6 383.8, 327.2 383.4, 330.7C407, 341.5 425.8, 360.2 436.9, 383.3C491.3, 379.9 540.6, 354 574, 312.9C579.3, 306.4 573.5, 296.8 565.3, 298.4z" fill="#727272" fill-opacity="1" class="Black" />
  </g>
</svg>