<?xml version='1.0' encoding='UTF-8'?>
<svg viewBox="-2 -4.7992 32 32" xmlns="http://www.w3.org/2000/svg">
  <g transform="matrix(0.9988, 0, 0, 0.9988, 0, 0)">
    <g transform="matrix(0.0438, 0, 0, 0.0438, 0, 0)">
      <path d="M537.6, 226.6C541.7, 215.9 544, 204.2 544, 192C544, 139 501, 96 448, 96C428.3, 96 409.9, 102 394.7, 112.2C367, 64.2 315.3, 32 256, 32C167.6, 32 96, 103.6 96, 192C96, 194.7 96.1, 197.4 96.2, 200.1C40.2, 219.8 0, 273.2 0, 336C0, 415.5 64.5, 480 144, 480L512, 480C582.7, 480 640, 422.7 640, 352C640, 290.1 596, 238.4 537.6, 226.6zM393.4, 288L328, 288L328, 400C328, 408.8 320.8, 416 312, 416L264, 416C255.2, 416 248, 408.8 248, 400L248, 288L182.6, 288C168.3, 288 161.2, 270.8 171.3, 260.7L276.7, 155.3C282.9, 149.1 293.1, 149.1 299.3, 155.3L404.7, 260.7C414.8, 270.8 407.6, 288 393.4, 288z" fill="#727272" fill-opacity="1" class="Black" />
    </g>
  </g>
</svg>