<?xml version='1.0' encoding='UTF-8'?>
<svg viewBox="-2 -4.7992 32 32" xmlns="http://www.w3.org/2000/svg">
  <g transform="matrix(0.9988, 0, 0, 0.9988, 0, 0)">
    <g transform="matrix(0.0438, 0, 0, 0.0438, 0, 0)">
      <path d="M448, 320L446.4, 320C439, 283.5 406.7, 256 368, 256C343.4, 256 321.7, 267.3 307, 284.8C288.4, 248.9 251.2, 224 208, 224C149.7, 224 102.4, 268.7 97.1, 325.6C59.3, 338.5 32, 373.9 32, 416C32, 469 75, 512 128, 512L448, 512C501, 512 544, 469 544, 416C544, 363 501, 320 448, 320zM631, 248.7C552.8, 263.5 481, 204 481, 125.6C481, 80.5 505.3, 39 544.9, 16.6C551, 13.2 549.5, 4 542.5, 2.7C532.9, 0.9 523, 0 513.1, 0C424.2, 0 352, 71.6 352, 160C352, 160.7 352.2, 161.3 352.2, 162C368.5, 178.8 379.2, 200.8 382.5, 225.1C421, 230.2 454.2, 255 470.1, 289.9C493.2, 293.9 514.1, 304.3 531.2, 319C573.7, 314.3 611.9, 293 638.3, 260.8C642.7, 255.3 637.9, 247.4 631, 248.7zM68.3, 303.2C83.2, 238.6 140.2, 192 208, 192C248.7, 192 286.6, 209.2 313.4, 238.5C324.9, 232 337.5, 227.7 350.5, 225.6C343.7, 188.3 311.2, 160 272, 160L254.4, 160C247, 123.5 214.7, 96 176, 96C137.3, 96 105, 123.5 97.6, 160L80, 160C35.8, 160 0, 195.8 0, 240C0, 273.9 21.2, 302.8 51, 314.4C56.5, 310.3 62.2, 306.4 68.3, 303.2z" fill="#727272" fill-opacity="1" class="Black" />
    </g>
  </g>
</svg>