<?xml version='1.0' encoding='UTF-8'?>
<svg viewBox="-2 -2 32 32" xmlns="http://www.w3.org/2000/svg">
  <g transform="matrix(0.0547, 0, 0, 0.0547, 0, 0)">
    <path d="M371.5, 169.1C403.1, 88.4 343.7, 0 256, 0C168.2, 0 109, 88.5 140.5, 169.1C65.7, 159.2 0, 217.3 0, 292C0, 360.5 55.5, 416 124, 416C160.5, 416 193.3, 400.2 216, 375.1C215.9, 411.8 215.2, 427.5 163, 450.7C149.2, 456.8 141.6, 471.8 144.7, 486.6C147.8, 501.4 160.9, 512 176, 512L336, 512C351.1, 512 364.2, 501.4 367.3, 486.6C370.4, 471.8 362.8, 456.9 349, 450.7C297.4, 427.7 296.2, 412.6 296, 375.1C318.7, 400.2 351.5, 416 388, 416C456.5, 416 512, 360.5 512, 292C512, 217.2 446.2, 159.2 371.5, 169.1z" fill="#727272" fill-opacity="1" class="Black" />
  </g>
</svg>