<?xml version='1.0' encoding='UTF-8'?>
<svg viewBox="-1.9974 -3.5552 31.9975 32" xmlns="http://www.w3.org/2000/svg">
  <g transform="matrix(0.0486, 0, 0, 0.0486, 0, 0)">
    <path d="M296, 464L240, 464L240, 338.78L408.74, 170.05C424.26, 154.53 413.27, 128 391.32, 128L24.68, 128C2.73, 128 -8.26, 154.53 7.26, 170.05L176, 338.78L176, 464L120, 464C97.91, 464 80, 481.91 80, 504C80, 508.42 83.58, 512 88, 512L328, 512C332.42, 512 336, 508.42 336, 504C336, 481.91 318.09, 464 296, 464zM432, 0C369.39, 0 316.65, 40.2 296.82, 96L349.36, 96C366.01, 67.45 396.63, 48 432, 48C484.93, 48 528, 91.06 528, 144C528, 196.94 484.93, 240 432, 240C417.96, 240 404.71, 236.8 392.68, 231.36L357.42, 266.62C379.23, 279.92 404.59, 288 432, 288C511.53, 288 576, 223.53 576, 144C576, 64.47 511.53, 0 432, 0z" fill="#727272" fill-opacity="1" class="Black" />
  </g>
</svg>