<?xml version='1.0' encoding='UTF-8'?>
<svg viewBox="-5.5003 -2 32 32" xmlns="http://www.w3.org/2000/svg">
  <g transform="matrix(0.0547, 0, 0, 0.0547, 0, 0)">
    <path d="M304, 192C266, 192 234.2, 218.5 226.1, 254C202.2, 250.5 168.1, 241.1 142.2, 216.4C125.6, 200.5 114.3, 179.9 108.5, 154.8C138.6, 143.3 160, 114.1 160, 80C160, 35.8 124.2, 0 80, 0C35.8, 0 0, 35.8 0, 80C0, 115.8 23.5, 146.1 56, 156.3L56, 355.6C23.5, 365.9 0, 396.2 0, 432C0, 476.2 35.8, 512 80, 512C124.2, 512 160, 476.2 160, 432C160, 396.2 136.5, 365.9 104, 355.7L104, 246.1C105.6, 247.8 107.3, 249.5 109, 251.1C148.3, 288.6 199.4, 299.7 230.2, 302.9C242.3, 331.8 270.8, 352.1 304, 352.1C348.2, 352.1 384, 316.3 384, 272.1C384, 227.9 348.2, 192 304, 192zM80, 64C88.8, 64 96, 71.2 96, 80C96, 88.8 88.8, 96 80, 96C71.2, 96 64, 88.8 64, 80C64, 71.2 71.2, 64 80, 64zM80, 448C71.2, 448 64, 440.8 64, 432C64, 423.2 71.2, 416 80, 416C88.8, 416 96, 423.2 96, 432C96, 440.8 88.8, 448 80, 448zM304, 288C295.2, 288 288, 280.8 288, 272C288, 263.2 295.2, 256 304, 256C312.8, 256 320, 263.2 320, 272C320, 280.8 312.8, 288 304, 288z" fill="#727272" fill-opacity="1" class="Black" />
  </g>
</svg>