<?xml version='1.0' encoding='UTF-8'?>
<svg viewBox="-2 -4.7992 32 32" xmlns="http://www.w3.org/2000/svg">
  <g transform="matrix(1.0011, 0, 0, 1.0011, 0, 0)">
    <g transform="matrix(0.0437, 0, 0, 0.0437, 0, 0)">
      <path d="M192, 384L384, 384C437, 384 480, 341 480, 288L512, 288C582.6, 288 640, 230.6 640, 160C640, 89.4 582.6, 32 512, 32L120, 32C106.7, 32 96, 42.7 96, 56L96, 288C96, 341 139, 384 192, 384zM512, 96C547.3, 96 576, 124.7 576, 160C576, 195.3 547.3, 224 512, 224L480, 224L480, 96L512, 96zM559.7, 480L48.3, 480C0.7, 480 -12.7, 416 12.3, 416L595.6, 416C620.6, 416 607.4, 480 559.7, 480z" fill="#727272" fill-opacity="1" class="Black" />
    </g>
  </g>
</svg>