<?xml version='1.0' encoding='UTF-8'?>
<svg viewBox="-3.7495 -2 32 32" xmlns="http://www.w3.org/2000/svg">
  <g transform="matrix(0.0547, 0, 0, 0.0547, 0, 0)">
    <path d="M432, 64L416, 64L392.84, 17.69A32 32 0 0 0 364.22, 0L83.78, 0A32 32 0 0 0 55.16, 17.69L32, 64L16, 64C7.16, 64 0, 71.16 0, 80L0, 112C0, 120.84 7.16, 128 16, 128L432, 128C440.84, 128 448, 120.84 448, 112L448, 80C448, 71.16 440.84, 64 432, 64zM106.78, 512L341.22, 512C357.86, 512 371.73, 499.24 373.11, 482.66L400, 160L48, 160L74.89, 482.66C76.27, 499.24 90.14, 512 106.78, 512zM327.78, 256L314.44, 416L133.56, 416L120.22, 256L327.78, 256z" fill="#727272" fill-opacity="1" class="Black" />
  </g>
</svg>