<?xml version='1.0' encoding='UTF-8'?>
<svg viewBox="-2 -1.9988 32 32" xmlns="http://www.w3.org/2000/svg">
  <g transform="matrix(0.0547, 0, 0, 0.0547, 0, 0)">
    <path d="M0, 320C0, 347.77 18, 373.37 48, 394.33L48, 330C29.15, 318 12.6, 304.64 0, 289.62zM256, 352C397.33, 352 512, 287.56 512, 208C512, 128.44 397.33, 64 256, 64C114.67, 64 0, 128.44 0, 208C0, 287.56 114.67, 352 256, 352zM80, 412.51C107.09, 425.4 139.66, 435.32 176, 441.31L176, 377C140.61, 371 108.19, 361.12 80, 348zM464, 394.33C494.05, 373.33 512, 347.77 512, 320L512, 289.63C499.4, 304.63 482.85, 318 464, 330.01zM336, 441.33C372.34, 435.33 404.91, 425.42 432, 412.53L432, 348C403.81, 361.12 371.39, 371 336, 377zM208, 381.2L208, 445.29C223.62, 446.8 239.49, 448 256, 448C272.51, 448 288.38, 446.8 304, 445.29L304, 381.2A477.2 477.2 0 0 1 256, 384A477.2 477.2 0 0 1 208, 381.2z" fill="#727272" fill-opacity="1" class="Black" />
  </g>
</svg>