<?xml version='1.0' encoding='UTF-8'?>
<svg viewBox="-1.9998 -3.5575 31.9975 32" xmlns="http://www.w3.org/2000/svg">
  <g transform="matrix(0.0486, 0, 0, 0.0486, 0, 0)">
    <path d="M416, 224L416, 64C416, 28.65 387.35, 0 352, 0L64, 0C28.65, 0 0, 28.65 0, 64L0, 224C0, 259.35 28.65, 288 64, 288L64, 342.23C64, 350.23 73.11, 354.83 79.54, 350.07L162.33, 288L352, 288C387.35, 288 416, 259.35 416, 224zM224, 223.88L224, 240C224, 244.42 220.42, 248 216, 248L200, 248C195.58, 248 192, 244.42 192, 240L192, 223.71C180.71, 223.13 169.73, 219.19 160.63, 212.36C156.73, 209.43 156.53, 203.59 160.06, 200.22L171.81, 189.01C174.58, 186.37 178.7, 186.25 181.94, 188.28C185.81, 190.7 190.2, 192 194.76, 192L222.87, 192C229.37, 192 234.67, 186.08 234.67, 178.81C234.67, 172.86 231.06, 167.62 225.9, 166.08L180.9, 152.58C162.31, 147 149.32, 129.16 149.32, 109.19C149.32, 84.67 168.37, 64.75 191.99, 64.12L191.99, 48C191.99, 43.58 195.57, 40 199.99, 40L215.99, 40C220.41, 40 223.99, 43.58 223.99, 48L223.99, 64.29C235.28, 64.87 246.26, 68.8 255.36, 75.64C259.26, 78.57 259.46, 84.41 255.93, 87.78L244.18, 98.99C241.41, 101.63 237.29, 101.75 234.05, 99.72C230.18, 97.29 225.79, 96 221.23, 96L193.12, 96C186.62, 96 181.32, 101.92 181.32, 109.19C181.32, 115.14 184.93, 120.38 190.09, 121.92L235.09, 135.42C253.68, 141 266.67, 158.84 266.67, 178.81C266.67, 203.34 247.62, 223.25 224, 223.88zM512, 160L448, 160L448, 224C448, 276.93 404.94, 320 352, 320L192, 320L192, 384C192, 419.35 220.65, 448 256, 448L381.67, 448L464.46, 510.07C470.9, 514.83 480, 510.23 480, 502.23L480, 448L512, 448C547.35, 448 576, 419.35 576, 384L576, 224C576, 188.65 547.35, 160 512, 160z" fill="#727272" fill-opacity="1" class="Black" />
  </g>
</svg>