<?xml version='1.0' encoding='UTF-8'?>
<svg viewBox="-2.0023 -1.9998 32 31.9975" xmlns="http://www.w3.org/2000/svg">
  <g transform="matrix(0.0547, 0, 0, 0.0547, 0, 0)">
    <path d="M448, 0L64, 0C28.7, 0 0, 28.7 0, 64L0, 352C0, 387.3 28.7, 416 64, 416L160, 416L160, 500C160, 509.8 171.2, 515.5 179.1, 509.7L304, 416L448, 416C483.3, 416 512, 387.3 512, 352L512, 64C512, 28.7 483.3, 0 448, 0zM215.4, 310.6L167.2, 316C160.7, 316.7 155.3, 311.2 156, 304.8L161.4, 256.6L257.7, 160.3L311.7, 214.3L215.4, 310.6zM366.1, 159.9L334.3, 191.7L280.3, 137.7L312.1, 105.9C320, 98 332.8, 98 340.7, 105.9L366.1, 131.3C374, 139.2 374, 152 366.1, 159.9z" fill="#727272" fill-opacity="1" class="Black" />
  </g>
</svg>