<?xml version='1.0' encoding='UTF-8'?>
<svg viewBox="-2 -3.554 32 32" xmlns="http://www.w3.org/2000/svg">
  <g transform="matrix(0.0486, 0, 0, 0.0486, 0, 0)">
    <path d="M416, 192C416, 103.63 322.88, 32 208, 32C93.12, 32 0, 103.63 0, 192C0, 226.27 14.13, 257.95 37.97, 283.98C24.61, 314.22 2.52, 338.16 2.2, 338.5A7.995 7.995 0 0 0 8, 352C44.58, 352 74.93, 339.75 96.73, 327.02C128.93, 342.76 167.02, 352 208, 352C322.88, 352 416, 280.37 416, 192zM192, 288L192, 271.71C180.71, 271.13 169.73, 267.19 160.63, 260.36C156.73, 257.43 156.53, 251.59 160.06, 248.22L171.81, 237.01C174.58, 234.37 178.7, 234.25 181.94, 236.28C185.81, 238.7 190.2, 240 194.76, 240L222.87, 240C229.37, 240 234.67, 234.08 234.67, 226.81C234.67, 220.86 231.06, 215.62 225.9, 214.08L180.9, 200.58C162.31, 195 149.32, 177.16 149.32, 157.19C149.32, 132.67 168.37, 112.75 191.99, 112.12L191.99, 96C191.99, 91.58 195.57, 88 199.99, 88L215.99, 88C220.41, 88 223.99, 91.58 223.99, 96L223.99, 112.29C235.28, 112.87 246.26, 116.8 255.36, 123.64C259.26, 126.57 259.46, 132.41 255.93, 135.78L244.18, 146.99C241.41, 149.63 237.29, 149.75 234.05, 147.72C230.18, 145.29 225.79, 144 221.23, 144L193.12, 144C186.62, 144 181.32, 149.92 181.32, 157.19C181.32, 163.14 184.93, 168.38 190.09, 169.92L235.09, 183.42C253.68, 189 266.67, 206.84 266.67, 226.81C266.67, 251.34 247.62, 271.25 224, 271.88L224, 288C224, 292.42 220.42, 296 216, 296L200, 296C195.58, 296 192, 292.42 192, 288zM538.01, 411.99C561.87, 385.96 576, 354.27 576, 320C576, 253.06 522.51, 195.8 446.67, 171.93C447.53, 178.53 448, 185.22 448, 192C448, 297.87 340.34, 384 208, 384C197.22, 384 186.68, 383.23 176.27, 382.12C207.8, 439.63 281.77, 480 368, 480C408.98, 480 447.07, 470.76 479.27, 455.02C501.07, 467.75 531.42, 480 568, 480C571.2, 480 574.09, 478.09 575.34, 475.16C576.61, 472.22 576, 468.82 573.79, 466.49C573.48, 466.16 551.37, 442.25 538.01, 411.99z" fill="#727272" fill-opacity="1" class="Black" />
  </g>
</svg>