<?xml version='1.0' encoding='UTF-8'?>
<svg viewBox="-2 -1.9988 32 32" xmlns="http://www.w3.org/2000/svg">
  <g transform="matrix(0.0547, 0, 0, 0.0547, 0, 0)">
    <path d="M256, 32C114.6, 32 0, 125.1 0, 240C0, 289.6 21.4, 335 57, 370.7C44.5, 421.1 2.7, 466 2.2, 466.5C0, 468.8 -0.6, 472.2 0.7, 475.2C2, 478.2 4.8, 480 8, 480C74.3, 480 124, 448.2 148.6, 428.6C181.3, 440.9 217.6, 448 256, 448C397.4, 448 512, 354.9 512, 240C512, 125.1 397.4, 32 256, 32zM256, 368C238.3, 368 224, 353.7 224, 336C224, 318.3 238.3, 304 256, 304C273.7, 304 288, 318.3 288, 336C288, 353.7 273.7, 368 256, 368zM281.4, 257.6C280.6, 265.8 273.7, 272 265.5, 272L246.5, 272C238.3, 272 231.4, 265.8 230.6, 257.6L217.8, 129.6C216.9, 120.2 224.3, 112 233.7, 112L278.3, 112C287.8, 112 295.2, 120.2 294.2, 129.6L281.4, 257.6z" fill="#727272" fill-opacity="1" class="Black" />
  </g>
</svg>