<?xml version='1.0' encoding='UTF-8'?>
<svg viewBox="-1.9998 -2.0023 31.9975 32" xmlns="http://www.w3.org/2000/svg">
  <g transform="matrix(0.0547, 0, 0, 0.0547, 0, 0)">
    <path d="M448, 0L64, 0C28.65, 0 0, 28.65 0, 64L0, 352C0, 387.35 28.65, 416 64, 416L160, 416L160, 499.98C160, 509.83 171.21, 515.48 179.13, 509.63L304, 416L448, 416C483.35, 416 512, 387.35 512, 352L512, 64C512, 28.65 483.35, 0 448, 0zM280, 302.44L280, 320C280, 328.84 272.84, 336 264, 336L248, 336C239.16, 336 232, 328.84 232, 320L232, 302.27C220.58, 300.92 209.72, 297.08 200.22, 290.81C194, 286.7 193.4, 277.7 198.67, 272.43L216.19, 254.91C219.93, 251.17 225.5, 250.67 230.3, 252.88C233.48, 254.34 236.96, 255.1 240.56, 255.1L273.34, 255.1C278, 255.1 281.78, 251.32 281.78, 246.68C281.78, 242.93 279.26, 239.6 275.66, 238.57L225.59, 224.27C203.34, 217.92 185.58, 199.56 182.68, 176.6C178.63, 144.53 201.71, 117.17 232, 113.55L232, 96C232, 87.16 239.16, 80 248, 80L264, 80C272.84, 80 280, 87.16 280, 96L280, 113.73C291.42, 115.08 302.28, 118.92 311.78, 125.19C318, 129.3 318.6, 138.3 313.33, 143.57L295.81, 161.09C292.07, 164.83 286.5, 165.33 281.7, 163.12A24.516 24.516 0 0 0 271.44, 160.9L238.66, 160.9C234, 160.9 230.22, 164.68 230.22, 169.32C230.22, 173.07 232.74, 176.4 236.34, 177.43L286.41, 191.73C308.66, 198.09 326.42, 216.44 329.32, 239.4C333.37, 271.46 310.29, 298.82 280, 302.44z" fill="#727272" fill-opacity="1" class="Black" />
  </g>
</svg>