<?xml version='1.0' encoding='UTF-8'?>
<svg viewBox="-2.0023 -1.9998 32 31.9975" xmlns="http://www.w3.org/2000/svg">
  <g transform="matrix(0.0547, 0, 0, 0.0547, 0, 0)">
    <path d="M448, 0L64, 0C28.7, 0 0, 28.7 0, 64L0, 352C0, 387.3 28.7, 416 64, 416L160, 416L160, 500C160, 509.8 171.2, 515.5 179.1, 509.7L304, 416L448, 416C483.3, 416 512, 387.3 512, 352L512, 64C512, 28.7 483.3, 0 448, 0zM340.9, 258.9C347.1, 265.1 347.1, 275.3 340.9, 281.5L329.6, 292.8C323.4, 299 313.2, 299 307, 292.8L256, 241.9L205.1, 292.8C198.9, 299 188.7, 299 182.5, 292.8L171.2, 281.5C165, 275.3 165, 265.1 171.2, 258.9L222.1, 208L171.2, 157.1C165, 150.9 165, 140.7 171.2, 134.5L182.5, 123.2C188.7, 117 198.9, 117 205.1, 123.2L256, 174.1L306.9, 123.2C313.1, 117 323.3, 117 329.5, 123.2L340.8, 134.5C347, 140.7 347, 150.9 340.8, 157.1L289.9, 208L340.9, 258.9z" fill="#727272" fill-opacity="1" class="Black" />
  </g>
</svg>