<?xml version='1.0' encoding='UTF-8'?>
<svg viewBox="-2 -1.9988 32 32" xmlns="http://www.w3.org/2000/svg">
  <g transform="matrix(0.0547, 0, 0, 0.0547, 0, 0)">
    <path d="M256, 32C114.6, 32 0, 125.1 0, 240C0, 289.6 21.4, 335 57, 370.7C44.5, 421.1 2.7, 466 2.2, 466.5C0, 468.8 -0.6, 472.2 0.7, 475.2C2, 478.2 4.8, 480 8, 480C74.3, 480 124, 448.2 148.6, 428.6C181.3, 440.9 217.6, 448 256, 448C397.4, 448 512, 354.9 512, 240C512, 125.1 397.4, 32 256, 32zM320, 165.2C334.8, 165.2 346.8, 177.2 346.8, 192C346.8, 206.8 334.8, 218.8 320, 218.8C305.2, 218.8 293.2, 206.8 293.2, 192C293.2, 177.2 305.2, 165.2 320, 165.2zM192, 165.2C206.8, 165.2 218.8, 177.2 218.8, 192C218.8, 206.8 206.8, 218.8 192, 218.8C177.2, 218.8 165.2, 206.8 165.2, 192C165.2, 177.2 177.2, 165.2 192, 165.2zM356.2, 306.1C331.3, 335.3 294.8, 352 256, 352C217.2, 352 180.7, 335.3 155.8, 306.1C150, 299.4 150.8, 289.3 157.6, 283.6C164.3, 277.9 174.4, 278.6 180.1, 285.4C198.9, 307.4 226.6, 320 255.9, 320C285.3, 320 312.9, 307.4 331.7, 285.3C337.5, 278.6 347.6, 277.8 354.3, 283.5C361.1, 289.3 361.9, 299.4 356.2, 306.1z" fill="#727272" fill-opacity="1" class="Black" />
  </g>
</svg>