<?xml version='1.0' encoding='UTF-8'?>
<svg viewBox="-2 -1.9988 32 32" xmlns="http://www.w3.org/2000/svg">
  <g transform="matrix(0.0547, 0, 0, 0.0547, 0, 0)">
    <path d="M256, 32C114.6, 32 0, 125.1 0, 240C0, 289.6 21.4, 335 57, 370.7C44.5, 421.1 2.7, 466 2.2, 466.5C0, 468.8 -0.6, 472.2 0.7, 475.2C2, 478.2 4.8, 480 8, 480C74.3, 480 124, 448.2 148.6, 428.6C181.3, 440.9 217.6, 448 256, 448C397.4, 448 512, 354.9 512, 240C512, 125.1 397.4, 32 256, 32zM288, 296C288, 300.4 284.4, 304 280, 304L136, 304C131.6, 304 128, 300.4 128, 296L128, 280C128, 275.6 131.6, 272 136, 272L280, 272C284.4, 272 288, 275.6 288, 280L288, 296zM384, 200C384, 204.4 380.4, 208 376, 208L136, 208C131.6, 208 128, 204.4 128, 200L128, 184C128, 179.6 131.6, 176 136, 176L376, 176C380.4, 176 384, 179.6 384, 184L384, 200z" fill="#727272" fill-opacity="1" class="Black" />
  </g>
</svg>