<?xml version='1.0' encoding='UTF-8'?>
<svg viewBox="-1.9975 -4.7983 32 32" xmlns="http://www.w3.org/2000/svg">
  <g transform="matrix(0.9989, 0, 0, 0.9989, 0, 0)">
    <g transform="matrix(0.0438, 0, 0, 0.0438, 0, 0)">
      <path d="M64, 352C64, 387.3 92.7, 416 128, 416L224, 416L224, 500C224, 509.8 235.2, 515.5 243.1, 509.7L368, 416L370, 416L64, 179.5L64, 352zM633.8, 458.1L556.2, 398.1C568.3, 386.5 576, 370.1 576, 352L576, 64C576, 28.7 547.3, 0 512, 0L128, 0C106.5, 0 87.6, 10.7 76, 27L45.5, 3.4C38.5, -2 28.5, -0.8 23, 6.2L3.4, 31.4C-2, 38.4 -0.8, 48.4 6.2, 53.8L594.6, 508.5C601.6, 513.9 611.6, 512.7 617.1, 505.7L636.7, 480.4C642.1, 473.6 640.8, 463.5 633.8, 458.1z" fill="#727272" fill-opacity="1" class="Black" />
    </g>
  </g>
</svg>