<?xml version='1.0' encoding='UTF-8'?>
<svg viewBox="-2.0023 -1.9998 32 31.9975" xmlns="http://www.w3.org/2000/svg">
  <g transform="matrix(0.0547, 0, 0, 0.0547, 0, 0)">
    <path d="M448, 0L64, 0C28.7, 0 0, 28.7 0, 64L0, 352C0, 387.3 28.7, 416 64, 416L160, 416L160, 500C160, 509.8 171.2, 515.5 179.1, 509.7L304, 416L448, 416C483.3, 416 512, 387.3 512, 352L512, 64C512, 28.7 483.3, 0 448, 0zM370.1, 163.8L239.1, 293.8C234.8, 298.1 227.8, 298.1 223.5, 293.7L147.8, 217.4C143.5, 213.1 143.6, 206.1 147.9, 201.8L173.9, 176C178.2, 171.7 185.2, 171.8 189.5, 176.1L231.6, 218.6L328.8, 122.2C333.1, 117.9 340.1, 118 344.4, 122.3L370.2, 148.3C374.4, 152.6 374.4, 159.6 370.1, 163.8z" fill="#727272" fill-opacity="1" class="Black" />
  </g>
</svg>