<?xml version='1.0' encoding='UTF-8'?>
<svg viewBox="-2 -1.9988 32 32" xmlns="http://www.w3.org/2000/svg">
  <g transform="matrix(0.0547, 0, 0, 0.0547, 0, 0)">
    <path d="M256, 32C114.59, 32 0, 125.09 0, 240C0, 289.59 21.41, 335 57, 370.7C44.5, 421.09 2.69, 466 2.19, 466.5A8 8 0 0 0 0.69, 475.2A7.87 7.87 0 0 0 8, 480C74.31, 480 124, 448.2 148.59, 428.59A304.63 304.63 0 0 0 256, 448C397.41, 448 512, 354.91 512, 240C512, 125.09 397.41, 32 256, 32zM352, 288C352, 305.67 330.5, 320 304, 320C277.5, 320 256, 305.67 256, 288C256, 270.33 277.5, 256 304, 256A69.89 69.89 0 0 1 320, 258L320, 181.64L224, 219.16L224, 320C224, 337.67 202.5, 352 176, 352C149.5, 352 128, 337.67 128, 320C128, 302.33 149.5, 288 176, 288A69.89 69.89 0 0 1 192, 290L192, 175.25A16 16 0 0 1 203.19, 160L331.19, 112.75A16 16 0 0 1 352, 128z" fill="#727272" fill-opacity="1" class="Black" />
  </g>
</svg>