<?xml version='1.0' encoding='UTF-8'?>
<svg viewBox="-2.0023 -1.9998 32 31.9975" xmlns="http://www.w3.org/2000/svg">
  <g transform="matrix(0.0547, 0, 0, 0.0547, 0, 0)">
    <path d="M448, 0L64, 0C28.7, 0 0, 28.7 0, 64L0, 352C0, 387.3 28.7, 416 64, 416L160, 416L160, 500C160, 509.8 171.2, 515.5 179.1, 509.7L304, 416L448, 416C483.3, 416 512, 387.3 512, 352L512, 64C512, 28.7 483.3, 0 448, 0zM128, 240C110.3, 240 96, 225.7 96, 208C96, 190.3 110.3, 176 128, 176C145.7, 176 160, 190.3 160, 208C160, 225.7 145.7, 240 128, 240zM256, 240C238.3, 240 224, 225.7 224, 208C224, 190.3 238.3, 176 256, 176C273.7, 176 288, 190.3 288, 208C288, 225.7 273.7, 240 256, 240zM384, 240C366.3, 240 352, 225.7 352, 208C352, 190.3 366.3, 176 384, 176C401.7, 176 416, 190.3 416, 208C416, 225.7 401.7, 240 384, 240z" fill="#727272" fill-opacity="1" class="Black" />
  </g>
</svg>