<?xml version='1.0' encoding='UTF-8'?>
<svg viewBox="-2.0023 -1.9998 32 31.9975" xmlns="http://www.w3.org/2000/svg">
  <g transform="matrix(0.0547, 0, 0, 0.0547, 0, 0)">
    <path d="M448, 0L64, 0C28.7, 0 0, 28.7 0, 64L0, 352C0, 387.3 28.7, 416 64, 416L160, 416L160, 500C160, 509.8 171.2, 515.5 179.1, 509.7L304, 416L448, 416C483.3, 416 512, 387.3 512, 352L512, 64C512, 28.7 483.3, 0 448, 0zM320, 133.2C334.8, 133.2 346.8, 145.2 346.8, 160C346.8, 174.8 334.8, 186.8 320, 186.8C305.2, 186.8 293.2, 174.8 293.2, 160C293.2, 145.2 305.2, 133.2 320, 133.2zM192, 133.2C206.8, 133.2 218.8, 145.2 218.8, 160C218.8, 174.8 206.8, 186.8 192, 186.8C177.2, 186.8 165.2, 174.8 165.2, 160C165.2, 145.2 177.2, 133.2 192, 133.2zM356.2, 274.1C331.3, 303.3 294.8, 320 256, 320C217.2, 320 180.7, 303.3 155.8, 274.1C150, 267.4 150.8, 257.3 157.6, 251.6C164.3, 245.9 174.4, 246.6 180.1, 253.4C198.9, 275.4 226.6, 288 255.9, 288C285.3, 288 312.9, 275.4 331.7, 253.3C337.5, 246.6 347.6, 245.8 354.3, 251.5C361.1, 257.3 361.9, 267.4 356.2, 274.1z" fill="#727272" fill-opacity="1" class="Black" />
  </g>
</svg>