<?xml version='1.0' encoding='UTF-8'?>
<svg viewBox="-2 -1.9988 32 32" xmlns="http://www.w3.org/2000/svg">
  <g transform="matrix(0.0547, 0, 0, 0.0547, 0, 0)">
    <path d="M256, 32C114.6, 32 0, 125.1 0, 240C0, 289.6 21.4, 335 57, 370.7C44.5, 421.1 2.7, 466 2.2, 466.5C0, 468.8 -0.6, 472.2 0.7, 475.2C2, 478.2 4.8, 480 8, 480C74.3, 480 124, 448.2 148.6, 428.6C181.3, 440.9 217.6, 448 256, 448C397.4, 448 512, 354.9 512, 240C512, 125.1 397.4, 32 256, 32zM340.9, 290.9C347.1, 297.1 347.1, 307.3 340.9, 313.5L329.6, 324.8C323.4, 331 313.2, 331 307, 324.8L256, 273.9L205.1, 324.8C198.9, 331 188.7, 331 182.5, 324.8L171.2, 313.5C165, 307.3 165, 297.1 171.2, 290.9L222.1, 240L171.2, 189.1C165, 182.9 165, 172.7 171.2, 166.5L182.5, 155.2C188.7, 149 198.9, 149 205.1, 155.2L256, 206.1L306.9, 155.2C313.1, 149 323.3, 149 329.5, 155.2L340.8, 166.5C347, 172.7 347, 182.9 340.8, 189.1L289.9, 240L340.9, 290.9z" fill="#727272" fill-opacity="1" class="Black" />
  </g>
</svg>