<?xml version='1.0' encoding='UTF-8'?>
<svg viewBox="-2 -3.5552 32 32" xmlns="http://www.w3.org/2000/svg">
  <g transform="matrix(0.0486, 0, 0, 0.0486, 0, 0)">
    <path d="M416, 224L416, 64C416, 28.7 387.3, 0 352, 0L64, 0C28.7, 0 0, 28.7 0, 64L0, 224C0, 259.3 28.7, 288 64, 288L64, 342.2C64, 350.2 73.1, 354.8 79.5, 350L162.3, 287.9L352, 287.9C387.3, 288 416, 259.3 416, 224zM512, 160L448, 160L448, 224C448, 276.9 404.9, 320 352, 320L192, 320L192, 384C192, 419.3 220.7, 448 256, 448L381.7, 448L464.5, 510.1C470.9, 514.9 480, 510.3 480, 502.3L480, 448L512, 448C547.3, 448 576, 419.3 576, 384L576, 224C576, 188.7 547.3, 160 512, 160z" fill="#727272" fill-opacity="1" class="Black" />
  </g>
</svg>