<?xml version='1.0' encoding='UTF-8'?>
<svg viewBox="-2 -1.9988 32 32" xmlns="http://www.w3.org/2000/svg">
  <g transform="matrix(0.0547, 0, 0, 0.0547, 0, 0)">
    <path d="M256, 32C114.62, 32 0, 125.12 0, 240C0, 289.56 21.41, 335 57, 370.74C44.46, 421.05 2.7, 466 2.2, 466.5A8 8 0 0 0 8, 480C74.26, 480 124, 448.25 148.6, 428.62A304.66 304.66 0 0 0 256, 448C397.39, 448 512, 354.88 512, 240C512, 125.12 397.39, 32 256, 32zM352, 264A8 8 0 0 1 344, 272L288, 272L288, 328A8 8 0 0 1 280, 336L232, 336A8 8 0 0 1 224, 328L224, 272L168, 272A8 8 0 0 1 160, 264L160, 216A8 8 0 0 1 168, 208L224, 208L224, 152A8 8 0 0 1 232, 144L280, 144A8 8 0 0 1 288, 152L288, 208L344, 208A8 8 0 0 1 352, 216z" fill="#727272" fill-opacity="1" class="Black" />
  </g>
</svg>