<?xml version='1.0' encoding='UTF-8'?>
<svg viewBox="-2 -1.9988 32 32" xmlns="http://www.w3.org/2000/svg">
  <g transform="matrix(0.0547, 0, 0, 0.0547, 0, 0)">
    <path d="M256, 32C114.6, 32 0, 125.1 0, 240C0, 289.6 21.4, 335 57, 370.7C44.5, 421.1 2.7, 466 2.2, 466.5C0, 468.8 -0.6, 472.2 0.7, 475.2C2, 478.2 4.8, 480 8, 480C74.3, 480 124, 448.2 148.6, 428.6C181.3, 440.9 217.6, 448 256, 448C397.4, 448 512, 354.9 512, 240C512, 125.1 397.4, 32 256, 32zM370.1, 195.8L239.1, 325.8C234.8, 330.1 227.8, 330.1 223.5, 325.7L147.8, 249.4C143.5, 245.1 143.6, 238.1 147.9, 233.8L173.9, 208C178.2, 203.7 185.2, 203.8 189.5, 208.1L231.6, 250.6L328.8, 154.2C333.1, 149.9 340.1, 150 344.4, 154.3L370.2, 180.3C374.4, 184.6 374.4, 191.6 370.1, 195.8z" fill="#727272" fill-opacity="1" class="Black" />
  </g>
</svg>