<?xml version='1.0' encoding='UTF-8'?>
<svg viewBox="-1.9998 0 32 32" xmlns="http://www.w3.org/2000/svg">
  <g transform="matrix(0.0625, 0, 0, 0.0625, 0, 0)">
    <path d="M4.686, 427.314L104, 328L71.078, 296.971C55.958, 281.851 66.666, 256 88.048, 256L200.048, 256C213.303, 256 224, 266.745 224, 280L224, 392C224, 413.382 198.197, 424.09 183.078, 408.971L152, 376L52.686, 475.314C46.438, 481.562 36.307, 481.562 30.059, 475.314L4.686, 449.941C-1.562, 443.693 -1.562, 433.562 4.686, 427.314zM443.314, 84.686L344, 184L376.922, 215.029C392.042, 230.149 381.334, 256 359.952, 256L247.952, 256C234.697, 256 224, 245.255 224, 232L224, 120C224, 98.618 249.803, 87.91 264.922, 103.029L296, 136L395.314, 36.686C401.562, 30.438 411.693, 30.438 417.941, 36.686L443.314, 62.059C449.562, 68.307 449.562, 78.438 443.314, 84.686z" fill="#727272" fill-opacity="1" class="Black" />
  </g>
</svg>