<?xml version='1.0' encoding='UTF-8'?>
<svg viewBox="-3.7494 -1.9999 32 32" xmlns="http://www.w3.org/2000/svg">
  <g transform="matrix(0.0547, 0, 0, 0.0547, 0, 0)">
    <path d="M32, 496A16 16 0 0 0 48, 512L400, 512A16 16 0 0 0 416, 496L416, 448L32, 448zM416, 0L32, 0A32 32 0 0 0 0, 32L0, 400A16 16 0 0 0 16, 416L432, 416A16 16 0 0 0 448, 400L448, 32A32 32 0 0 0 416, 0zM80, 356A20 20 0 1 1 100, 336A20 20 0 0 1 80, 356zM384, 344A8 8 0 0 1 376, 352L232, 352A8 8 0 0 1 224, 344L224, 328A8 8 0 0 1 232, 320L376, 320A8 8 0 0 1 384, 328zM384, 224A32 32 0 0 1 352, 256L96, 256A32 32 0 0 1 64, 224L64, 96A32 32 0 0 1 96, 64L352, 64A32 32 0 0 1 384, 96z" fill="#727272" fill-opacity="1" class="Black" />
  </g>
</svg>