<?xml version='1.0' encoding='UTF-8'?>
<svg viewBox="-1.9999 -1.549 31.9975 32" xmlns="http://www.w3.org/2000/svg">
  <g transform="matrix(0.999, 0, 0, 0.999, 0, 0)">
    <g transform="matrix(0.0565, 0, 0, 0.0565, 0, 0)">
      <path d="M225.38, 233.37C212.88, 245.87 212.88, 266.13 225.38, 278.62C237.87, 291.12 258.14, 291.12 270.63, 278.62C283.13, 266.12 283.13, 245.86 270.63, 233.37C258.13, 220.88 237.87, 220.88 225.38, 233.37zM248, 8C111.03, 8 0, 119.03 0, 256C0, 392.97 111.03, 504 248, 504C384.97, 504 496, 392.97 496, 256C496, 119.03 384.97, 8 248, 8zM374.14, 156.05L308.17, 300.4A31.938 31.938 0 0 1 292.4, 316.17L148.06, 382.14C131.41, 389.75 114.25, 372.59 121.86, 355.94L187.84, 211.59A31.938 31.938 0 0 1 203.61, 195.82L347.95, 129.85C364.6, 122.25 381.75, 139.4 374.14, 156.05z" fill="#727272" fill-opacity="1" class="Black" />
    </g>
  </g>
</svg>