<?xml version='1.0' encoding='UTF-8'?>
<svg viewBox="-1.9975 -4.7973 32 32" xmlns="http://www.w3.org/2000/svg">
  <g transform="matrix(0.999, 0, 0, 0.999, 0, 0)">
    <g transform="matrix(0.0438, 0, 0, 0.0438, 0, 0)">
      <path d="M633.82, 458.1L533.97, 380.93C555.47, 344.21 568, 301.62 568, 256C568, 119.03 456.97, 8 320, 8C251.69, 8 189.97, 35.72 145.18, 80.44L45.47, 3.37C38.49, -2.05 28.43, -0.8 23.01, 6.18L3.37, 31.45C-2.05, 38.42 -0.8, 48.47 6.18, 53.9L594.54, 508.63C601.52, 514.06 611.57, 512.8 617, 505.82L636.64, 480.55C642.05, 473.58 640.8, 463.53 633.82, 458.1zM446.14, 156.05L393.11, 272.06L287.46, 190.4L419.94, 129.85C436.6, 122.25 453.75, 139.4 446.14, 156.05zM220.05, 382.14C203.4, 389.75 186.24, 372.59 193.85, 355.94L219.55, 299.7L80.57, 192.29C75.16, 212.65 72, 233.93 72, 256C72, 392.97 183.03, 504 320, 504C364.43, 504 406.03, 492.17 442.1, 471.71L286.77, 351.65L220.05, 382.14z" fill="#727272" fill-opacity="1" class="Black" />
    </g>
  </g>
</svg>