<?xml version='1.0' encoding='UTF-8'?>
<svg viewBox="-2 -4.7992 32 32" xmlns="http://www.w3.org/2000/svg">
  <g transform="matrix(0.9988, 0, 0, 0.9988, 0, 0)">
    <g transform="matrix(0.0438, 0, 0, 0.0438, 0, 0)">
      <path d="M144, 256L496, 256C504.8, 256 512, 248.8 512, 240L512, 16C512, 7.2 504.8, 0 496, 0L384, 0L384, 128L320, 96L256, 128L256, 0L144, 0C135.2, 0 128, 7.2 128, 16L128, 240C128, 248.8 135.2, 256 144, 256zM544, 320L96, 320C43, 320 0, 363 0, 416C0, 469 43, 512 96, 512L544, 512C597, 512 640, 469 640, 416C640, 363 597, 320 544, 320zM128, 448C110.3, 448 96, 433.7 96, 416C96, 398.3 110.3, 384 128, 384C145.7, 384 160, 398.3 160, 416C160, 433.7 145.7, 448 128, 448zM320, 448C302.3, 448 288, 433.7 288, 416C288, 398.3 302.3, 384 320, 384C337.7, 384 352, 398.3 352, 416C352, 433.7 337.7, 448 320, 448zM512, 448C494.3, 448 480, 433.7 480, 416C480, 398.3 494.3, 384 512, 384C529.7, 384 544, 398.3 544, 416C544, 433.7 529.7, 448 512, 448z" fill="#727272" fill-opacity="1" class="Black" />
    </g>
  </g>
</svg>