<?xml version='1.0' encoding='UTF-8'?>
<svg viewBox="-2 -1.9975 32 31.9975" xmlns="http://www.w3.org/2000/svg">
  <g transform="matrix(0.0547, 0, 0, 0.0547, 0, 0)">
    <path d="M510.52, 255.82C440.55, 254.97 384.05, 198.13 384.05, 127.96C313.88, 127.96 257.05, 71.47 256.19, 1.51C228.93, -2.63 201.06, 1.81 176.47, 14.33L107.34, 49.55A132.221 132.221 0 0 0 49.55, 107.36L14.45, 176.24A132.645 132.645 0 0 0 1.63, 257.19L13.71, 333.46A132.521 132.521 0 0 0 50.87, 406.42L105.64, 461.18A132.036 132.036 0 0 0 178.35, 498.24L255.06, 510.39C282.57, 514.75 310.76, 510.28 335.59, 497.63L404.72, 462.42A132.273 132.273 0 0 0 462.51, 404.61L497.61, 335.73C510.17, 311.09 514.62, 283.15 510.52, 255.82zM176, 368C158.33, 368 144, 353.67 144, 336C144, 318.33 158.33, 304 176, 304C193.67, 304 208, 318.33 208, 336C208, 353.67 193.67, 368 176, 368zM208, 208C190.33, 208 176, 193.67 176, 176C176, 158.33 190.33, 144 208, 144C225.67, 144 240, 158.33 240, 176C240, 193.67 225.67, 208 208, 208zM368, 336C350.33, 336 336, 321.67 336, 304C336, 286.33 350.33, 272 368, 272C385.67, 272 400, 286.33 400, 304C400, 321.67 385.67, 336 368, 336z" fill="#727272" fill-opacity="1" class="Black" />
  </g>
</svg>