<?xml version='1.0' encoding='UTF-8'?>
<svg viewBox="-1.5477 -1.5477 32 32" xmlns="http://www.w3.org/2000/svg">
  <g transform="matrix(0.9991, 0, 0, 0.9991, 0, 0)">
    <g transform="matrix(0.0565, 0, 0, 0.0565, 0, 0)">
      <path d="M256, 8C119.033, 8 8, 119.033 8, 256C8, 392.967 119.033, 504 256, 504C392.967, 504 504, 392.967 504, 256C504, 119.033 392.967, 8 256, 8zM373.134, 354.753C371.542, 356.62 333.358, 400.484 263.283, 400.484C178.591, 400.484 118.799, 337.224 118.799, 254.917C118.799, 173.614 180.803, 111.516 262.561, 111.516C329.518, 111.516 364.526, 148.831 365.983, 150.42A12 12 0 0 1 367.221, 165.043L344.841, 199.698C340.792, 205.965 332.067, 207.049 326.607, 201.993C326.374, 201.779 300.078, 178.113 264.727, 178.113C218.611, 178.113 190.811, 211.688 190.811, 254.195C190.811, 293.797 216.325, 333.887 265.088, 333.887C303.785, 333.887 330.368, 305.549 330.632, 305.262C335.764, 299.697 344.691, 300.229 349.14, 306.315L373.687, 339.887A12.001 12.001 0 0 1 373.134, 354.753z" fill="#727272" fill-opacity="1" class="Black" />
    </g>
  </g>
</svg>