<?xml version='1.0' encoding='UTF-8'?>
<svg viewBox="-3.7505 -1.9998 32 31.9975" xmlns="http://www.w3.org/2000/svg">
  <g transform="matrix(0.0547, 0, 0, 0.0547, 0, 0)">
    <path d="M320, 448L320, 488C320, 501.255 309.255, 512 296, 512L24, 512C10.745, 512 0, 501.255 0, 488L0, 120C0, 106.745 10.745, 96 24, 96L96, 96L96, 392C96, 422.879 121.121, 448 152, 448L320, 448zM320, 104L320, 0L152, 0C138.745, 0 128, 10.745 128, 24L128, 392C128, 405.255 138.745, 416 152, 416L424, 416C437.255, 416 448, 405.255 448, 392L448, 128L344, 128C330.8, 128 320, 117.2 320, 104zM440.971, 72.971L375.029, 7.029A24 24 0 0 0 358.059, 0L352, 0L352, 96L448, 96L448, 89.941A24 24 0 0 0 440.971, 72.971z" fill="#727272" fill-opacity="1" class="Black" />
  </g>
</svg>