<?xml version='1.0' encoding='UTF-8'?>
<svg viewBox="-2 -1.9975 31.9975 32" xmlns="http://www.w3.org/2000/svg">
  <g transform="matrix(0.0547, 0, 0, 0.0547, 0, 0)">
    <path d="M118.63, 370.74L50.75, 438.62L96, 483.88C133.49, 521.37 194.27, 521.37 231.76, 483.88L322.27, 393.37L419.93, 373.84C426.36, 372.55 428.78, 364.25 423.84, 359.95C335.84, 283.43 202.35, 287.03 118.63, 370.74zM201.03, 284.85C216.45, 217.09 200.24, 143.59 152.03, 88.14C147.74, 83.2 139.45, 85.63 138.16, 92.05L118.62, 189.73L28.11, 280.24C-9.38, 317.73 -9.38, 378.52 28.11, 416.01L96, 348.12C126.38, 317.74 162.59, 296.74 201.03, 284.85zM511.93, 45.3L511.93, 42.1C513.21, 20.66 497.21, 2.1 475.45, 0.19C458.82, -1.42 443.78, 7.22 436.42, 21.3C426.5, 11.71 412.09, 7.55 398.01, 11.7C384.57, 15.55 374.34, 25.78 370.5, 38.58C359.62, 31.55 345.54, 29.94 332.73, 35.38C319.94, 41.15 311.62, 52.66 309.37, 65.15C297.85, 59.71 283.78, 59.71 271.93, 66.74C260.08, 73.46 253.05, 85.63 252.09, 98.1C240.26, 93.63 226.18, 94.91 214.98, 102.91C211.72, 105.21 209.04, 108.04 206.67, 111.08C235, 162.31 244.42, 221.14 234.98, 277.52C291.37, 268.16 350.23, 277.15 401.46, 305.65C403.16, 303.99 404.89, 302.36 406.33, 300.34C414.33, 289.14 415.61, 275.37 411.12, 263.54C423.92, 262.57 436.08, 255.54 442.81, 243.69C449.84, 231.85 450.17, 217.77 444.4, 206.25C457.2, 204 468.71, 196 474.48, 183.2C480.24, 170.4 478.63, 156.33 471.6, 145.43C484.07, 141.6 494.63, 131.68 498.8, 118.24C502.96, 104.16 498.8, 89.76 489.83, 79.83C502.34, 73.46 511.29, 60.66 511.93, 45.3z" fill="#727272" fill-opacity="1" class="Black" />
  </g>
</svg>