<?xml version='1.0' encoding='UTF-8'?>
<svg viewBox="-2 -4.7992 32 32" xmlns="http://www.w3.org/2000/svg">
  <g transform="matrix(0.9988, 0, 0, 0.9988, 0, 0)">
    <g transform="matrix(0.0438, 0, 0, 0.0438, 0, 0)">
      <path d="M160, 224L160, 288L480, 288L480, 224C480, 188.7 508.7, 160 544, 160L576, 160C576, 107 533, 64 480, 64L160, 64C107, 64 64, 107 64, 160L96, 160C131.3, 160 160, 188.7 160, 224zM576, 192L544, 192C526.3, 192 512, 206.3 512, 224L512, 320L128, 320L128, 224C128, 206.3 113.7, 192 96, 192L64, 192C28.7, 192 0, 220.7 0, 256C0, 279.6 13, 300 32, 311.1L32, 432C32, 440.8 39.2, 448 48, 448L112, 448C120.8, 448 128, 440.8 128, 432L128, 416L512, 416L512, 432C512, 440.8 519.2, 448 528, 448L592, 448C600.8, 448 608, 440.8 608, 432L608, 311.1C627, 300 640, 279.6 640, 256C640, 220.7 611.3, 192 576, 192z" fill="#727272" fill-opacity="1" class="Black" />
    </g>
  </g>
</svg>