<?xml version='1.0' encoding='UTF-8'?>
<svg viewBox="-2 -4.8003 32 32" xmlns="http://www.w3.org/2000/svg">
  <g transform="matrix(0.9988, 0, 0, 0.9988, 0, 0)">
    <g transform="matrix(0.0438, 0, 0, 0.0438, 0, 0)">
      <path d="M634.01, 276.72L624.01, 262.91L624.01, 185.89C624.01, 174 611.49, 166.26 600.85, 171.58C590.03, 176.99 581.38, 185.17 574.54, 194.59L508.72, 103.69A96.025 96.025 0 0 0 430.96, 64L112, 64C63.4, 64 24, 103.4 24, 152L24, 238.41C9.48, 250.14 0, 267.88 0, 288L0, 320L8, 320C43.35, 320 72, 291.35 72, 256L72, 152C72, 135.13 82.55, 120.84 97.34, 114.96C96.47, 119.18 96, 123.53 96, 128L96, 432C96, 440.84 103.16, 448 112, 448L176, 448C184.84, 448 192, 440.84 192, 432L192, 320C201.32, 329.32 212.28, 336.5 224.04, 341.87L224.04, 368C224.04, 376.84 231.2, 384 240.04, 384C248.88, 384 256.04, 376.84 256.04, 368L256.04, 350.69C265.14, 351.81 268.85, 353.05 288.04, 350.68L288.04, 368C288.04, 376.84 295.2, 384 304.04, 384C312.88, 384 320.04, 376.84 320.04, 368L320.04, 341.82C331.75, 336.46 342.68, 329.31 351.96, 320.03L351.96, 432C351.96, 440.84 359.12, 448 367.96, 448L431.96, 448C440.8, 448 447.96, 440.84 447.96, 432L447.96, 256L479.96, 288L479.96, 329.48A63.97 63.97 0 0 0 490.71, 364.98L532.04, 426.97A47.233 47.233 0 0 0 571.34, 448C593.86, 448 613.24, 432.11 617.66, 410.03L639.39, 301.4C641.11, 292.78 639.16, 283.83 634.01, 276.72zM377.24, 167.36L354.35, 190.11C332.53, 211.81 302.94, 223.99 272.09, 223.99L271.92, 223.99C241.06, 223.99 211.47, 211.8 189.66, 190.11L166.77, 167.36C151.05, 151.73 164.47, 128 189.02, 128L354.98, 128C379.54, 128 392.96, 151.73 377.24, 167.36zM576.01, 352C567.17, 352 560.01, 344.84 560.01, 336C560.01, 327.16 567.17, 320 576.01, 320C584.85, 320 592.01, 327.16 592.01, 336C592.01, 344.84 584.84, 352 576.01, 352z" fill="#727272" fill-opacity="1" class="Black" />
    </g>
  </g>
</svg>