<?xml version='1.0' encoding='UTF-8'?>
<svg viewBox="-2 -3.554 32 32" xmlns="http://www.w3.org/2000/svg">
  <g transform="matrix(0.0486, 0, 0, 0.0486, 0, 0)">
    <path d="M0, 432C0, 458.5 21.5, 480 48, 480L528, 480C554.5, 480 576, 458.5 576, 432L576, 256L0, 256L0, 432zM192, 364C192, 357.4 197.4, 352 204, 352L340, 352C346.6, 352 352, 357.4 352, 364L352, 404C352, 410.6 346.6, 416 340, 416L204, 416C197.4, 416 192, 410.6 192, 404L192, 364zM64, 364C64, 357.4 69.4, 352 76, 352L148, 352C154.6, 352 160, 357.4 160, 364L160, 404C160, 410.6 154.6, 416 148, 416L76, 416C69.4, 416 64, 410.6 64, 404L64, 364zM576, 80L576, 128L0, 128L0, 80C0, 53.5 21.5, 32 48, 32L528, 32C554.5, 32 576, 53.5 576, 80z" fill="#727272" fill-opacity="1" class="Black" />
  </g>
</svg>