<?xml version='1.0' encoding='UTF-8'?>
<svg viewBox="-1.9949 -4.7969 32 31.9975" xmlns="http://www.w3.org/2000/svg">
  <g transform="matrix(0.9989, 0, 0, 0.9989, 0, 0)">
    <g transform="matrix(0.0438, 0, 0, 0.0438, 0, 0)">
      <path d="M421.5, 321.5L158, 506C149.1, 512.2 137.5, 513.9 127.6, 509.5C54.8, 477 5.7, 406.9 0.1, 327.4C-0.7, 316.6 4.9, 306.2 13.8, 300L277.3, 115.5L246.4, 290.6L421.5, 321.5zM635.7, 30.4L620.5, 10.2C612.9, -0.6 597.9, -3.3 587, 4.3L443, 104.8C428.5, 114.9 408.6, 111.4 398.4, 96.9L376.5, 65.6C371.4, 58.4 361.5, 56.6 354.2, 61.7L332.9, 76.6L302, 251.7L477.1, 282.6L498.4, 267.7C505.6, 262.6 507.4, 252.7 502.3, 245.4L477.8, 210.4C467.7, 195.9 471.2, 176 485.7, 165.8L629.8, 63.9C640.6, 56.3 643.3, 41.3 635.7, 30.4zM496, 352C451.8, 352 416, 387.8 416, 432C416, 476.2 451.8, 512 496, 512C540.2, 512 576, 476.2 576, 432C576, 387.8 540.2, 352 496, 352z" fill="#727272" fill-opacity="1" class="Black" />
    </g>
  </g>
</svg>