<?xml version='1.0' encoding='UTF-8'?>
<svg viewBox="-1.9975 -2 32 32" xmlns="http://www.w3.org/2000/svg">
  <g transform="matrix(0.0547, 0, 0, 0.0547, 0, 0)">
    <path d="M209.1, 387.94L110, 465.73A215.54 215.54 0 0 0 180.67, 509.92A32 32 0 0 0 223.58, 474.74zM509.92, 180.66A215.54 215.54 0 0 0 465.73, 110L387.94, 209.1L474.74, 223.57A32.36 32.36 0 0 0 480, 224A32 32 0 0 0 509.92, 180.66zM234.9, 22.59A32 32 0 0 0 196.55, 1A268.35 268.35 0 0 0 1, 196.55A32 32 0 0 0 22.6, 234.9L230.6, 298.9A32 32 0 0 0 262.6, 290.9L290.91, 262.59A32 32 0 0 0 298.91, 230.59zM447.74, 65.59A32 32 0 0 0 435.41, 44.2A217.11 217.11 0 0 0 304.46, 0A215.78 215.78 0 0 0 261.2, 4.48C262.61, 7.41 264.5, 10 265.48, 13.18L329.48, 221.18C329.54, 221.38 329.48, 221.59 329.58, 221.8C335.58, 219.87 341.19, 216.8 345.18, 211.8L441.18, 89.48A32 32 0 0 0 447.74, 65.63zM221.8, 329.57C221.6, 329.51 221.38, 329.57 221.18, 329.48L13.18, 265.48A62.68 62.68 0 0 1 4.64, 261.91A215.1 215.1 0 0 0 44.23, 435.41A32 32 0 0 0 65.62, 447.74A32.51 32.51 0 0 0 69.67, 448A32 32 0 0 0 89.43, 441.17L211.75, 345.17C216.85, 341.18 219.87, 335.59 221.8, 329.57z" fill="#727272" fill-opacity="1" class="Black" />
  </g>
</svg>