<?xml version='1.0' encoding='UTF-8'?>
<svg viewBox="-2 -2 32 32" xmlns="http://www.w3.org/2000/svg">
  <g transform="matrix(0.0547, 0, 0, 0.0547, 0, 0)">
    <path d="M500, 224L469.636, 224C455.724, 130.325 381.675, 56.276 288, 42.364L288, 12C288, 5.373 282.627, 0 276, 0L236, 0C229.373, 0 224, 5.373 224, 12L224, 42.364C130.325, 56.276 56.276, 130.325 42.364, 224L12, 224C5.373, 224 0, 229.373 0, 236L0, 276C0, 282.627 5.373, 288 12, 288L42.364, 288C56.276, 381.675 130.325, 455.724 224, 469.636L224, 500C224, 506.627 229.373, 512 236, 512L276, 512C282.627, 512 288, 506.627 288, 500L288, 469.636C381.675, 455.724 455.724, 381.675 469.636, 288L500, 288C506.627, 288 512, 282.627 512, 276L512, 236C512, 229.373 506.627, 224 500, 224zM288, 404.634L288, 364C288, 357.373 282.627, 352 276, 352L236, 352C229.373, 352 224, 357.373 224, 364L224, 404.634C165.826, 392.232 119.783, 346.243 107.366, 288L148, 288C154.627, 288 160, 282.627 160, 276L160, 236C160, 229.373 154.627, 224 148, 224L107.366, 224C119.768, 165.826 165.757, 119.783 224, 107.366L224, 148C224, 154.627 229.373, 160 236, 160L276, 160C282.627, 160 288, 154.627 288, 148L288, 107.366C346.174, 119.768 392.217, 165.757 404.634, 224L364, 224C357.373, 224 352, 229.373 352, 236L352, 276C352, 282.627 357.373, 288 364, 288L404.634, 288C392.232, 346.174 346.243, 392.217 288, 404.634zM288, 256C288, 273.673 273.673, 288 256, 288C238.327, 288 224, 273.673 224, 256C224, 238.327 238.327, 224 256, 224C273.673, 224 288, 238.327 288, 256z" fill="#727272" fill-opacity="1" class="Black" />
  </g>
</svg>