<?xml version='1.0' encoding='UTF-8'?>
<svg viewBox="-1.9975 -4.796 32 32" xmlns="http://www.w3.org/2000/svg">
  <g transform="matrix(0.999, 0, 0, 0.999, 0, 0)">
    <g transform="matrix(0.0438, 0, 0, 0.0438, 0, 0)">
      <path d="M635.31, 185.71L454.31, 4.71A16 16 0 0 0 431.69, 4.71L409, 27.31A16 16 0 0 0 409, 49.94L590, 230.94A16 16 0 0 0 612.63, 230.94L635.25, 208.31A16 16 0 0 0 635.31, 185.71zM441, 395.76A128.09 128.09 0 0 1 407.33, 408.76L371.74, 417L462.06, 507.32A16 16 0 0 0 484.69, 507.32L507.31, 484.7A16 16 0 0 0 507.31, 462.07zM195.81, 353.66L205.51, 343.96L218.73, 286.64L106.51, 174.4L174.4, 106.51L253.15, 185.26A126.75 126.75 0 0 1 265.44, 170.92L297.37, 139L219.65, 61.26L231, 49.94A16 16 0 0 0 231, 27.31L208.33, 4.69A16 16 0 0 0 185.71, 4.69L4.71, 185.69A16 16 0 0 0 4.71, 208.31L27.31, 231A16 16 0 0 0 49.94, 231L61.26, 219.69L193.55, 351.94C194.23, 352.62 195.13, 353 195.83, 353.66zM455.77, 252.12L387.88, 184.23L442.98, 129.13L397.73, 83.88L288.06, 193.55A96.08 96.08 0 0 0 262.39, 239.84L234.65, 360.1L132.65, 462.1A16 16 0 0 0 132.65, 484.73L155.27, 507.35A16 16 0 0 0 177.9, 507.35L279.9, 405.35L400.15, 377.6A95.88 95.88 0 0 0 446.44, 351.95L556.12, 242.27L510.87, 197zM401.2, 306.69A32 32 0 0 1 385.75, 315.23L306.45, 333.55L324.75, 254.25A32.22 32.22 0 0 1 333.31, 238.8L342.62, 229.49L410.51, 297.38z" fill="#727272" fill-opacity="1" class="Black" />
    </g>
  </g>
</svg>