<?xml version='1.0' encoding='UTF-8'?>
<svg viewBox="-5.5003 -2 32 32" xmlns="http://www.w3.org/2000/svg">
  <g transform="matrix(0.0547, 0, 0, 0.0547, 0, 0)">
    <path d="M336, 128L224, 128L224, 16C224, 7.16 216.84, 0 208, 0L176, 0C167.16, 0 160, 7.16 160, 16L160, 128L48, 128C21.49, 128 0, 149.49 0, 176C0, 202.51 21.49, 224 48, 224C68.87, 224 86.45, 210.6 93.06, 192L290.94, 192C297.55, 210.6 315.13, 224 336, 224C362.51, 224 384, 202.51 384, 176C384, 149.49 362.51, 128 336, 128zM128, 428.84L178.69, 504.87C185.02, 514.37 198.98, 514.37 205.32, 504.87L256, 428.84L256, 224L128, 224L128, 428.84z" fill="#727272" fill-opacity="1" class="Black" />
  </g>
</svg>