<?xml version='1.0' encoding='UTF-8'?>
<svg viewBox="-1.9975 -1.9975 32 32" xmlns="http://www.w3.org/2000/svg">
  <g transform="matrix(0.0547, 0, 0, 0.0547, 0, 0)">
    <path d="M216, 260C216, 275.464 203.464, 288 188, 288C172.536, 288 160, 275.464 160, 260C160, 215.888 195.888, 180 240, 180C284.112, 180 320, 215.888 320, 260C320, 275.464 307.464, 288 292, 288C276.536, 288 264, 275.464 264, 260C264, 246.766 253.233, 236 240, 236C226.767, 236 216, 246.766 216, 260zM240, 84C142.953, 84 64, 162.953 64, 260C64, 275.464 76.536, 288 92, 288C107.464, 288 120, 275.464 120, 260C120, 193.832 173.832, 140 240, 140C306.168, 140 360, 193.832 360, 260C360, 335.164 288.991, 330.311 288.003, 403.622L288, 404C288, 432.673 264.673, 456 236, 456C220.536, 456 208, 468.536 208, 484C208, 499.464 220.536, 512 236, 512C295.475, 512 343.876, 463.672 344, 404.226C344.595, 369.798 416, 355.986 416, 260C416, 162.953 337.047, 84 240, 84zM508.485, 31.799L480.2, 3.515C475.513, -1.171 467.916, -1.171 463.229, 3.515L376.2, 90.544C371.514, 95.23 371.514, 102.828 376.2, 107.515L404.485, 135.8C409.171, 140.486 416.769, 140.486 421.455, 135.8L508.485, 48.771C513.172, 44.083 513.172, 36.485 508.485, 31.799zM168.97, 314.745C164.284, 310.059 156.686, 310.059 152, 314.745L3.515, 463.23C-1.171, 467.916 -1.171, 475.514 3.515, 480.201L31.8, 508.485C36.487, 513.171 44.084, 513.171 48.771, 508.485L197.256, 360C201.942, 355.314 201.942, 347.716 197.256, 343.029L168.97, 314.745z" fill="#727272" fill-opacity="1" class="Black" />
  </g>
</svg>