<?xml version='1.0' encoding='UTF-8'?>
<svg viewBox="-1.5477 -1.5477 32 32" xmlns="http://www.w3.org/2000/svg">
  <g transform="matrix(0.9991, 0, 0, 0.9991, 0, 0)">
    <g transform="matrix(0.0565, 0, 0, 0.0565, 0, 0)">
      <path d="M146.27, 303.84L177.15, 299.43A79.07 79.07 0 0 0 183.92, 322.15L159.12, 338.69A16 16 0 1 0 176.87, 365.31L203.26, 347.72A76.88 76.88 0 0 0 274.94, 365.45L176, 266.5L176, 267.26L141.73, 272.16A16 16 0 0 0 146.27, 303.84zM256, 8C119, 8 8, 119 8, 256C8, 393 119, 504 256, 504C393, 504 504, 393 504, 256C504, 119 393, 8 256, 8zM256, 440C154.54, 440 72, 357.46 72, 256A182.89 182.89 0 0 1 105.38, 150.63L361.38, 406.63A182.89 182.89 0 0 1 256, 440zM406.62, 361.37L346.32, 301.07L365.73, 303.84A16.23 16.23 0 0 0 368, 304A16 16 0 0 0 370.25, 272.16L336, 267.26L336, 244.74L370.27, 239.84A16 16 0 1 0 365.73, 208.16L334.85, 212.57A79.07 79.07 0 0 0 328.08, 189.85L352.87, 173.31A16 16 0 1 0 335.12, 146.69L308.74, 164.28A78.43 78.43 0 0 0 206.74, 161.49L150.63, 105.38A182.89 182.89 0 0 1 256, 72C357.46, 72 440, 154.54 440, 256A182.89 182.89 0 0 1 406.62, 361.37z" fill="#727272" fill-opacity="1" class="Black" />
    </g>
  </g>
</svg>