<?xml version='1.0' encoding='UTF-8'?>
<svg viewBox="-2.0011 -1.9998 32 31.9975" xmlns="http://www.w3.org/2000/svg">
  <g transform="matrix(0.0547, 0, 0, 0.0547, 0, 0)">
    <path d="M480, 96C462.3, 96 448, 110.3 448, 128C448, 129.1 448.5, 130 448.6, 131L364.8, 107.5L375.9, 101.9C388.3, 95.7 398.9, 86.3 406.6, 74.8L424.7, 47.6C427.2, 43.9 426.2, 39 422.5, 36.5L409.2, 27.6C405.5, 25.1 400.6, 26.1 398.1, 29.8L380.1, 57C375.5, 64 369.1, 69.6 361.6, 73.3L319, 94.6L285.2, 85.1L293.5, 74.8C300.3, 66.3 304, 55.7 304, 44.8L304, 8C304, 3.6 300.4, 0 296, 0L280, 0C275.6, 0 272, 3.6 272, 8L272, 44.8C272, 48.4 270.8, 51.9 268.5, 54.8L251.7, 75.7L235.6, 71.2C228.7, 69.3 223.9, 63 223.9, 55.8L223.9, 8C223.9, 3.6 220.3, 0 215.9, 0L199.9, 0C195.5, 0 191.9, 3.6 191.9, 8L191.9, 55.8C191.9, 77.3 206.2, 96.2 226.9, 102L305.8, 124.2L272, 192L64, 192C28.7, 192 0, 220.7 0, 256L0, 320L32, 298.7L32, 347.6L20.1, 379.4C15.5, 391.6 14.8, 404.8 17.9, 417.4L42.8, 499.9C44.6, 507 51, 512 58.3, 512L122.1, 512C132.5, 512 140.1, 502.2 137.6, 492.1L111.3, 403.7L130.7, 352L256, 352L256, 496C256, 504.8 263.2, 512 272, 512L336, 512C344.8, 512 352, 504.8 352, 496L352, 288L384, 224L448, 224C465.7, 224 480, 209.7 480, 192L480, 164.1C480, 162.6 479.5, 161.3 479.3, 159.9C479.5, 159.9 479.8, 160 480, 160C497.7, 160 512, 145.7 512, 128C512, 110.3 497.7, 96 480, 96zM384, 176C375.2, 176 368, 168.8 368, 160C368, 151.2 375.2, 144 384, 144C392.8, 144 400, 151.2 400, 160C400, 168.8 392.8, 176 384, 176z" fill="#727272" fill-opacity="1" class="Black" />
  </g>
</svg>