<?xml version='1.0' encoding='UTF-8'?>
<svg viewBox="-2 -2 32 32" xmlns="http://www.w3.org/2000/svg">
  <g transform="matrix(0.0547, 0, 0, 0.0547, 0, 0)">
    <path d="M488.7, 133.3L396.8, 107.5L407.9, 101.9C420.3, 95.7 430.9, 86.3 438.6, 74.8L456.7, 47.6C459.2, 43.9 458.2, 39 454.5, 36.5L441.2, 27.6C437.5, 25.1 432.6, 26.1 430.1, 29.8L412.1, 57C407.5, 64 401.1, 69.6 393.6, 73.3L351, 94.6L317.2, 85.1L325.5, 74.8C332.3, 66.3 336, 55.7 336, 44.8L336, 8C336, 3.6 332.4, 0 328, 0L312, 0C307.6, 0 304, 3.6 304, 8L304, 44.8C304, 48.4 302.8, 51.9 300.5, 54.8L283.7, 75.7L267.6, 71.2C260.7, 69.3 255.9, 63 255.9, 55.8L255.9, 8C255.9, 3.6 252.3, 0 247.9, 0L231.9, 0C227.5, 0 223.9, 3.6 223.9, 8L223.9, 55.8C223.9, 77.3 238.2, 96.2 258.9, 102L337.8, 124.2L304, 192L64, 192C28.7, 192 0, 220.7 0, 256L0, 320L32, 298.7L32, 347.6L20.1, 379.4C15.5, 391.6 14.8, 404.8 17.9, 417.4L42.8, 499.9C44.6, 507 51, 512 58.3, 512L122.1, 512C132.5, 512 140.1, 502.2 137.6, 492.1L111.3, 403.7L130.7, 352L288, 352L288, 496C288, 504.8 295.2, 512 304, 512L368, 512C376.8, 512 384, 504.8 384, 496L384, 288L416, 224L480, 224C497.7, 224 512, 209.7 512, 192L512, 164.1C512, 149.8 502.4, 137.2 488.7, 133.3zM416, 176C407.2, 176 400, 168.8 400, 160C400, 151.2 407.2, 144 416, 144C424.8, 144 432, 151.2 432, 160C432, 168.8 424.8, 176 416, 176z" fill="#727272" fill-opacity="1" class="Black" />
  </g>
</svg>