<?xml version='1.0' encoding='UTF-8'?>
<svg viewBox="-2 -2 32 32" xmlns="http://www.w3.org/2000/svg">
  <g transform="matrix(0.0547, 0, 0, 0.0547, 0, 0)">
    <path d="M160.1, 22.1C109.1, 179.8 0, 222.7 0, 333.9C0, 432.3 85.9, 512 192, 512C298.1, 512 384, 432.3 384, 333.9C384, 222.1 275.1, 180.6 223.9, 22.1C215.2, -6.7 169.9, -8 160.1, 22.1zM416, 0C363.1, 0 320, 43.1 320, 96C320, 148.9 363.1, 192 416, 192C468.9, 192 512, 148.9 512, 96C512, 43.1 468.9, 0 416, 0zM416, 128C398.3, 128 384, 113.7 384, 96C384, 78.3 398.3, 64 416, 64C433.7, 64 448, 78.3 448, 96C448, 113.7 433.7, 128 416, 128z" fill="#727272" fill-opacity="1" class="Black" />
  </g>
</svg>