<?xml version='1.0' encoding='UTF-8'?>
<svg viewBox="-2 -1.9988 32 32" xmlns="http://www.w3.org/2000/svg">
  <g transform="matrix(0.0547, 0, 0, 0.0547, 0, 0)">
    <path d="M225.53, 2.52L2.36, 233.83C-1.85, 238.2 -0.2, 245.54 5.46, 247.6L239.59, 332.66L239.59, 8.39C239.58, 0.9 230.68, -2.82 225.53, 2.52zM509.64, 233.83L286.47, 2.52C281.32, -2.82 272.41, 0.9 272.41, 8.4L272.41, 332.67L506.54, 247.61C512.2, 245.54 513.85, 238.19 509.64, 233.83zM33.53, 310.38L225.53, 509.48C230.68, 514.82 239.59, 511.1 239.59, 503.6L239.59, 368.29L42.13, 296.61C33.92, 293.63 27.41, 304.04 33.53, 310.38zM469.87, 296.61L272.41, 368.29L272.41, 503.6C272.41, 511.1 281.32, 514.82 286.47, 509.48L478.47, 310.38C484.59, 304.04 478.08, 293.63 469.87, 296.61z" fill="#727272" fill-opacity="1" class="Black" />
  </g>
</svg>