<?xml version='1.0' encoding='UTF-8'?>
<svg viewBox="-2 -2.0013 32 32" xmlns="http://www.w3.org/2000/svg">
  <g transform="matrix(0.0547, 0, 0, 0.0547, 0, 0)">
    <path d="M11.09, 255.29L141.47, 228.04L209.25, 15.54C212.2, 6.34 200.85, -0.38 194.8, 7L3.01, 240.87C-2.23, 247.25 3.21, 256.94 11.09, 255.29zM370.52, 228.05L500.9, 255.3C508.79, 256.95 514.22, 247.25 508.99, 240.87L317.19, 6.99C311.15, -0.38 299.8, 6.33 302.73, 15.54L370.52, 228.05zM264.03, 6.05C261.46, -2.01 250.54, -2.01 247.97, 6.05L174.57, 236.16L256, 292.87L337.43, 236.15L264.03, 6.05zM505.19, 292.27L361.13, 262.16L272.93, 323.61L272.93, 503.14C272.93, 510.73 281.48, 514.8 286.95, 509.81L509.08, 307.61C514.39, 302.79 512.08, 293.71 505.19, 292.27zM6.81, 292.27C-0.08, 293.71 -2.39, 302.79 2.91, 307.61L225.05, 509.8C230.53, 514.78 239.07, 510.72 239.07, 503.13L239.07, 323.61L150.87, 262.16L6.81, 292.27z" fill="#727272" fill-opacity="1" class="Black" />
  </g>
</svg>