<?xml version='1.0' encoding='UTF-8'?>
<svg viewBox="-3.7505 -1.9998 32 31.9975" xmlns="http://www.w3.org/2000/svg">
  <g transform="matrix(0.0547, 0, 0, 0.0547, 0, 0)">
    <path d="M422.19, 109.95L256.21, 9.07C236.3, -3.03 211.69, -3.03 191.78, 9.07L25.81, 109.95C20.49, 113.18 20.52, 121.22 25.87, 124.41L224, 242.55L422.14, 124.41C427.49, 121.22 427.52, 113.19 422.19, 109.95zM436.03, 154.58L240, 271.46L240, 495.28C240, 508.16 253.39, 516.19 264.05, 509.71L416.21, 417.23C435.89, 405.27 448, 383.29 448, 359.53L448, 161.83C448, 155.42 441.36, 151.4 436.03, 154.58zM0, 161.83L0, 359.53C0, 383.3 12.11, 405.27 31.79, 417.23L183.95, 509.7C194.62, 516.18 208, 508.16 208, 495.27L208, 271.46L11.97, 154.58C6.64, 151.4 0, 155.42 0, 161.83z" fill="#727272" fill-opacity="1" class="Black" />
  </g>
</svg>