<?xml version='1.0' encoding='UTF-8'?>
<svg viewBox="-2 0 32 32" xmlns="http://www.w3.org/2000/svg">
  <g transform="matrix(0.0625, 0, 0, 0.0625, 0, 0)">
    <path d="M384, 32L64, 32C28.65, 32 0, 60.65 0, 96L0, 416C0, 451.35 28.65, 480 64, 480L384, 480C419.35, 480 448, 451.35 448, 416L448, 96C448, 60.65 419.35, 32 384, 32zM128, 192C110.33, 192 96, 177.67 96, 160C96, 142.33 110.33, 128 128, 128C145.67, 128 160, 142.33 160, 160C160, 177.67 145.67, 192 128, 192zM320, 384C302.33, 384 288, 369.67 288, 352C288, 334.33 302.33, 320 320, 320C337.67, 320 352, 334.33 352, 352C352, 369.67 337.67, 384 320, 384z" fill="#727272" fill-opacity="1" class="Black" />
  </g>
</svg>