<?xml version='1.0' encoding='UTF-8'?>
<svg viewBox="-1.9999 -4.7979 32 31.9975" xmlns="http://www.w3.org/2000/svg">
  <g transform="matrix(1.0011, 0, 0, 1.0011, 0, 0)">
    <g transform="matrix(0.0437, 0, 0, 0.0437, 0, 0)">
      <path d="M608, 96L32, 96C14.33, 96 0, 110.33 0, 128L0, 384C0, 401.67 14.33, 416 32, 416L608, 416C625.67, 416 640, 401.67 640, 384L640, 128C640, 110.33 625.67, 96 608, 96zM304, 352C304, 356.42 300.42, 360 296, 360L72, 360C67.58, 360 64, 356.42 64, 352L64, 344C64, 339.58 67.58, 336 72, 336L296, 336C300.42, 336 304, 339.58 304, 344L304, 352zM72, 288L72, 272C72, 267.58 75.58, 264 80, 264L96, 264C100.42, 264 104, 267.58 104, 272L104, 288C104, 292.42 100.42, 296 96, 296L80, 296C75.58, 296 72, 292.42 72, 288zM136, 288L136, 272C136, 267.58 139.58, 264 144, 264L160, 264C164.42, 264 168, 267.58 168, 272L168, 288C168, 292.42 164.42, 296 160, 296L144, 296C139.58, 296 136, 292.42 136, 288zM200, 288L200, 272C200, 267.58 203.58, 264 208, 264L224, 264C228.42, 264 232, 267.58 232, 272L232, 288C232, 292.42 228.42, 296 224, 296L208, 296C203.58, 296 200, 292.42 200, 288zM264, 288L264, 272C264, 267.58 267.58, 264 272, 264L288, 264C292.42, 264 296, 267.58 296, 272L296, 288C296, 292.42 292.42, 296 288, 296L272, 296C267.58, 296 264, 292.42 264, 288zM304, 224C304, 232.84 296.84, 240 288, 240L80, 240C71.16, 240 64, 232.84 64, 224L64, 176C64, 167.16 71.16, 160 80, 160L288, 160C296.84, 160 304, 167.16 304, 176L304, 224zM576, 352C576, 356.42 572.42, 360 568, 360L344, 360C339.58, 360 336, 356.42 336, 352L336, 344C336, 339.58 339.58, 336 344, 336L568, 336C572.42, 336 576, 339.58 576, 344L576, 352z" fill="#727272" fill-opacity="1" class="Black" />
    </g>
  </g>
</svg>