<?xml version='1.0' encoding='UTF-8'?>
<svg viewBox="-1.9975 -1.9975 32 32" xmlns="http://www.w3.org/2000/svg">
  <g transform="matrix(0.0547, 0, 0, 0.0547, 0, 0)">
    <path d="M502.61, 233.32L278.68, 9.39C266.16, -3.13 245.85, -3.13 233.32, 9.39L9.39, 233.32C-3.13, 245.85 -3.13, 266.15 9.39, 278.68L233.32, 502.61C245.84, 515.14 266.15, 515.14 278.68, 502.61L502.61, 278.68C515.13, 266.15 515.13, 245.85 502.61, 233.32zM401.63, 245.88L317.42, 323.61C312.3, 328.34 303.99, 324.71 303.99, 317.73L303.99, 264L207.99, 264L207.99, 328C207.99, 332.42 204.41, 336 199.99, 336L167.99, 336C163.57, 336 159.99, 332.42 159.99, 328L159.99, 248C159.99, 230.33 174.32, 216 191.99, 216L303.99, 216L303.99, 162.27C303.99, 155.3 312.29, 151.66 317.42, 156.39L401.63, 234.12C405.06, 237.29 405.06, 242.71 401.63, 245.88z" fill="#727272" fill-opacity="1" class="Black" />
  </g>
</svg>