<?xml version='1.0' encoding='UTF-8'?>
<svg viewBox="-1.9975 -1.9987 32 32" xmlns="http://www.w3.org/2000/svg">
  <g transform="matrix(0.0547, 0, 0, 0.0547, 0, 0)">
    <path d="M472.29, 195.9L405.23, 172.9C385.95, 166.3 371.69, 151.98 367.09, 134.59L351.09, 74.14C339.51, 30.37 274.52, 17.01 241.09, 51.52L195, 99.24C181.74, 112.95 161.46, 120.17 140.8, 118.55L68.9, 112.93C16.9, 108.86 -18.03, 157.82 9.9, 195.77L48.44, 248.19C59.52, 263.26 61.26, 282.05 53.08, 298.43L24.65, 355.43C4, 396.67 47.46, 440.29 98.11, 429.23L168.11, 413.95C188.22, 409.56 209.56, 413.95 225.18, 425.68L279.5, 466.51C318.82, 496.07 380.5, 474.08 383.95, 429.29L388.65, 367.43C390, 349.63 401.45, 333.56 419.28, 324.43L481.28, 292.69C526.12, 269.73 520.83, 212.52 472.29, 195.9zM160, 256A32 32 0 1 1 192, 224A32 32 0 0 1 160, 256zM288, 352A32 32 0 1 1 320, 320A32 32 0 0 1 288, 352zM304, 224A16 16 0 1 1 320, 208A16 16 0 0 1 304, 224z" fill="#727272" fill-opacity="1" class="Black" />
  </g>
</svg>