<?xml version='1.0' encoding='UTF-8'?>
<svg viewBox="-1.9999 -1.549 31.9975 32" xmlns="http://www.w3.org/2000/svg">
  <g transform="matrix(0.999, 0, 0, 0.999, 0, 0)">
    <g transform="matrix(0.0565, 0, 0, 0.0565, 0, 0)">
      <path d="M248, 8C111.03, 8 0, 119.03 0, 256C0, 392.97 111.03, 504 248, 504C384.97, 504 496, 392.97 496, 256C496, 119.03 384.97, 8 248, 8zM424, 304L72, 304C63.16, 304 56, 296.84 56, 288L56, 224C56, 215.16 63.16, 208 72, 208L424, 208C432.84, 208 440, 215.16 440, 224L440, 288C440, 296.84 432.84, 304 424, 304z" fill="#727272" fill-opacity="1" class="Black" />
    </g>
  </g>
</svg>