<?xml version='1.0' encoding='UTF-8'?>
<svg viewBox="-1.9999 -1.1226 32 31.9975" xmlns="http://www.w3.org/2000/svg">
  <g transform="matrix(0.0547, 0, 0, 0.0547, 0, 0)">
    <path d="M496, 96L432, 96L424.84, 81.69A32 32 0 0 0 396.22, 64L342.6, 64L315.32, 36.72C305.23, 26.64 288, 33.78 288, 48.03L288, 197.87L416, 243.58L416, 208L448, 208C483.35, 208 512, 179.35 512, 144L512, 112C512, 103.16 504.84, 96 496, 96zM384, 144C375.16, 144 368, 136.84 368, 128C368, 119.16 375.16, 112 384, 112C392.84, 112 400, 119.16 400, 128C400, 136.84 392.84, 144 384, 144zM96, 224C78.36, 224 64, 209.64 64, 192C64, 174.33 49.67, 160 32, 160C14.33, 160 0, 174.33 0, 192C0, 233.66 26.83, 268.85 64, 282.1L64, 496C64, 504.84 71.16, 512 80, 512L144, 512C152.84, 512 160, 504.84 160, 496L160, 384L320, 384L320, 496C320, 504.84 327.16, 512 336, 512L400, 512C408.84, 512 416, 504.84 416, 496L416, 277.55L266.05, 224L96, 224z" fill="#727272" fill-opacity="1" class="Black" />
  </g>
</svg>