<?xml version='1.0' encoding='UTF-8'?>
<svg viewBox="-2 -4.7992 32 32" xmlns="http://www.w3.org/2000/svg">
  <g transform="matrix(0.9988, 0, 0, 0.9988, 0, 0)">
    <g transform="matrix(0.0438, 0, 0, 0.0438, 0, 0)">
      <path d="M624, 384L128, 384L128, 16C128, 7.2 120.8, 0 112, 0L16, 0C7.2, 0 0, 7.2 0, 16L0, 48C0, 56.8 7.2, 64 16, 64L64, 64L64, 432C64, 440.8 71.2, 448 80, 448L162.9, 448C161.1, 453 160, 458.4 160, 464C160, 490.5 181.5, 512 208, 512C234.5, 512 256, 490.5 256, 464C256, 458.4 254.8, 453 253.1, 448L451, 448C449.2, 453 448.1, 458.4 448.1, 464C448.1, 490.5 469.6, 512 496.1, 512C522.6, 512 544.1, 490.5 544.1, 464C544.1, 458.4 542.9, 453 541.2, 448L624, 448C632.8, 448 640, 440.8 640, 432L640, 400C640, 391.2 632.8, 384 624, 384zM208, 320L368, 320C376.8, 320 384, 312.8 384, 304L384, 48C384, 39.2 376.8, 32 368, 32L208, 32C199.2, 32 192, 39.2 192, 48L192, 304C192, 312.8 199.2, 320 208, 320zM432, 160L528, 160C536.8, 160 544, 152.8 544, 144L544, 48C544, 39.2 536.8, 32 528, 32L432, 32C423.2, 32 416, 39.2 416, 48L416, 144C416, 152.8 423.2, 160 432, 160zM432, 320L592, 320C600.8, 320 608, 312.8 608, 304L608, 208C608, 199.2 600.8, 192 592, 192L432, 192C423.2, 192 416, 199.2 416, 208L416, 304C416, 312.8 423.2, 320 432, 320z" fill="#727272" fill-opacity="1" class="Black" />
    </g>
  </g>
</svg>