<?xml version='1.0' encoding='UTF-8'?>
<svg viewBox="-1.9999 -3.5564 31.9975 32" xmlns="http://www.w3.org/2000/svg">
  <g transform="matrix(0.0486, 0, 0, 0.0486, 0, 0)">
    <path d="M294.2, 277.7C312.2, 282.7 328.9, 291.1 343.7, 302.4L505.2, 248.6C513.6, 245.8 518.1, 236.7 515.3, 228.4L454.9, 47.2C452.1, 38.8 443, 34.3 434.7, 37.1L373.6, 57.5L406.7, 156.9L346, 177L312.9, 77.6L251.3, 98.1C242.9, 100.9 238.4, 110 241.2, 118.3L294.2, 277.7zM575.2, 326.4L565, 296C562.2, 287.6 553.1, 283.1 544.8, 285.9L331.3, 357.1C314.1, 335.1 287.7, 320.7 257.8, 320.1L158.4, 21.9C154, 8.8 141.8, 0 128, 0L16, 0C7.2, 0 0, 7.2 0, 16L0, 48C0, 56.8 7.2, 64 16, 64L104.9, 64L197.1, 340.7C171, 361.1 155.4, 394.3 161.1, 431.2C167.2, 470.6 199, 503.5 238.4, 510.4C298.6, 521.1 350.7, 475.6 351.8, 417.8L565.1, 346.6C573.4, 343.8 578, 334.8 575.2, 326.4zM256, 464C229.5, 464 208, 442.5 208, 416C208, 389.5 229.5, 368 256, 368C282.5, 368 304, 389.5 304, 416C304, 442.5 282.5, 464 256, 464z" fill="#727272" fill-opacity="1" class="Black" />
  </g>
</svg>