<?xml version='1.0' encoding='UTF-8'?>
<svg viewBox="-1.9999 -1.9999 32 32" xmlns="http://www.w3.org/2000/svg">
  <g transform="matrix(0.0547, 0, 0, 0.0547, 0, 0)">
    <path d="M256, 416C370.9, 416 464, 322.9 464, 208C464, 93.1 370.9, 0 256, 0C141.1, 0 48, 93.1 48, 208C48, 322.9 141.1, 416 256, 416zM233.8, 97.4L233.8, 80.6C233.8, 71.4 241.2, 64 250.4, 64L261.5, 64C270.7, 64 278.1, 71.4 278.1, 80.6L278.1, 97.6C293.6, 98.4 308.6, 103.7 321.1, 113C326.7, 117.1 327.3, 125.3 322.3, 130.1L306, 145.6C302.2, 149.3 296.5, 149.4 292, 146.6C286.6, 143.2 280.6, 141.5 274.2, 141.5L235.3, 141.5C226.3, 141.5 219, 149.7 219, 159.8C219, 168 224, 175.3 231.1, 177.4L293.4, 196.1C319.1, 203.8 337.1, 228.5 337.1, 256.2C337.1, 290.2 310.7, 317.7 278, 318.6L278, 335.4C278, 344.6 270.6, 352 261.4, 352L250.3, 352C241.1, 352 233.7, 344.6 233.7, 335.4L233.7, 318.4C218.2, 317.6 203.2, 312.3 190.7, 303C185.1, 298.9 184.5, 290.7 189.5, 285.9L205.8, 270.4C209.6, 266.7 215.3, 266.6 219.8, 269.4C225.2, 272.8 231.2, 274.5 237.6, 274.5L276.5, 274.5C285.5, 274.5 292.8, 266.3 292.8, 256.2C292.8, 248 287.8, 240.7 280.7, 238.6L218.4, 219.9C192.7, 212.2 174.7, 187.5 174.7, 159.8C174.8, 125.8 201.1, 98.3 233.8, 97.4zM480, 352L447.5, 352C427.9, 378 402.9, 399.7 374.5, 416L438.3, 416C443.6, 416 447.9, 419.6 447.9, 424L447.9, 440C447.9, 444.4 443.6, 448 438.3, 448L73.6, 448C68.3, 448 64, 444.4 64, 440L64, 424C64, 419.6 68.3, 416 73.6, 416L137.4, 416C109, 399.7 84.1, 378 64.4, 352L32, 352C14.3, 352 0, 366.3 0, 384L0, 480C0, 497.7 14.3, 512 32, 512L480, 512C497.7, 512 512, 497.7 512, 480L512, 384C512, 366.3 497.7, 352 480, 352z" fill="#727272" fill-opacity="1" class="Black" />
  </g>
</svg>