<?xml version='1.0' encoding='UTF-8'?>
<svg viewBox="-2 -4.7992 32 32" xmlns="http://www.w3.org/2000/svg">
  <g transform="matrix(0.9988, 0, 0, 0.9988, 0, 0)">
    <g transform="matrix(0.0438, 0, 0, 0.0438, 0, 0)">
      <path d="M624, 448L512, 448L512, 50.8C512, 22.78 490.47, 0 464, 0L175.99, 0C149.52, 0 127.99, 22.78 127.99, 50.8L127.99, 448L16, 448C7.16, 448 0, 455.16 0, 464L0, 496C0, 504.84 7.16, 512 16, 512L624, 512C632.84, 512 640, 504.84 640, 496L640, 464C640, 455.16 632.84, 448 624, 448zM415.99, 288C398.32, 288 383.99, 273.67 383.99, 256C383.99, 238.33 398.32, 224 415.99, 224C433.66, 224 447.99, 238.33 447.99, 256C448, 273.67 433.67, 288 415.99, 288z" fill="#727272" fill-opacity="1" class="Black" />
    </g>
  </g>
</svg>