<?xml version='1.0' encoding='UTF-8'?>
<svg viewBox="-2 -4.7992 32 32" xmlns="http://www.w3.org/2000/svg">
  <g transform="matrix(0.9988, 0, 0, 0.9988, 0, 0)">
    <g transform="matrix(0.0438, 0, 0, 0.0438, 0, 0)">
      <path d="M624, 448L544, 448L544, 113.45C544, 86.19 522.47, 64 496, 64L384, 64L384, 128L480, 128L480, 512L624, 512C632.84, 512 640, 504.84 640, 496L640, 464C640, 455.16 632.84, 448 624, 448zM312.24, 1.01L120.24, 50.75C105.99, 54.44 96, 67.7 96, 82.92L96, 448L16, 448C7.16, 448 0, 455.16 0, 464L0, 496C0, 504.84 7.16, 512 16, 512L352, 512L352, 33.18C352, 11.6 332.44, -4.23 312.24, 1.01zM264, 288C250.75, 288 240, 273.67 240, 256C240, 238.33 250.75, 224 264, 224C277.25, 224 288, 238.33 288, 256C288, 273.67 277.25, 288 264, 288z" fill="#727272" fill-opacity="1" class="Black" />
    </g>
  </g>
</svg>