<?xml version='1.0' encoding='UTF-8'?>
<svg viewBox="-2 0 32 32" xmlns="http://www.w3.org/2000/svg">
  <g transform="matrix(0.0625, 0, 0, 0.0625, 0, 0)">
    <path d="M416, 360.88L416, 151.12C435.05, 140.03 448, 119.63 448, 96C448, 60.65 419.35, 32 384, 32C360.37, 32 339.96, 44.95 328.88, 64L119.12, 64C108.04, 44.95 87.63, 32 64, 32C28.65, 32 0, 60.65 0, 96C0, 119.63 12.95, 140.04 32, 151.12L32, 360.87C12.95, 371.96 0, 392.37 0, 416C0, 451.35 28.65, 480 64, 480C87.63, 480 108.04, 467.05 119.12, 448L328.87, 448C339.96, 467.05 360.36, 480 383.99, 480C419.34, 480 447.99, 451.35 447.99, 416C448, 392.37 435.05, 371.96 416, 360.88zM96, 360.88L96, 151.12A63.825 63.825 0 0 0 119.12, 128L328.87, 128A63.825 63.825 0 0 0 351.99, 151.12L351.99, 360.87A63.825 63.825 0 0 0 328.87, 383.99L119.12, 383.99A63.798 63.798 0 0 0 96, 360.88zM400, 96C400, 104.82 392.82, 112 384, 112C375.18, 112 368, 104.82 368, 96C368, 87.18 375.18, 80 384, 80C392.82, 80 400, 87.18 400, 96zM64, 80C72.82, 80 80, 87.18 80, 96C80, 104.82 72.82, 112 64, 112C55.18, 112 48, 104.82 48, 96C48, 87.18 55.18, 80 64, 80zM48, 416C48, 407.18 55.18, 400 64, 400C72.82, 400 80, 407.18 80, 416C80, 424.82 72.82, 432 64, 432C55.18, 432 48, 424.82 48, 416zM384, 432C375.18, 432 368, 424.82 368, 416C368, 407.18 375.18, 400 384, 400C392.82, 400 400, 407.18 400, 416C400, 424.82 392.82, 432 384, 432z" fill="#727272" fill-opacity="1" class="Black" />
  </g>
</svg>