<?xml version='1.0' encoding='UTF-8'?>
<svg viewBox="-2 -2 32 32" xmlns="http://www.w3.org/2000/svg">
  <g transform="matrix(0.0547, 0, 0, 0.0547, 0, 0)">
    <path d="M512, 256C512, 229.07 495.33, 206.12 471.77, 196.68C450.89, 120.84 391.16, 61.12 315.32, 40.23C305.88, 16.68 282.93, 0 256, 0C229.07, 0 206.12, 16.68 196.68, 40.23C120.84, 61.11 61.11, 120.84 40.23, 196.68C16.67, 206.12 0, 229.07 0, 256C0, 282.93 16.67, 305.88 40.23, 315.32C61.11, 391.16 120.84, 450.88 196.68, 471.77C206.12, 495.33 229.07, 512 256, 512C282.93, 512 305.88, 495.33 315.32, 471.77C391.16, 450.89 450.88, 391.16 471.77, 315.32C495.33, 305.88 512, 282.93 512, 256zM448, 240C456.82, 240 464, 247.18 464, 256C464, 264.82 456.82, 272 448, 272C439.18, 272 432, 264.82 432, 256C432, 247.18 439.18, 240 448, 240zM272, 64C272, 72.82 264.82, 80 256, 80C247.18, 80 240, 72.82 240, 64C240, 55.18 247.18, 48 256, 48C264.82, 48 272, 55.18 272, 64zM64, 272C55.18, 272 48, 264.82 48, 256C48, 247.18 55.18, 240 64, 240C72.82, 240 80, 247.18 80, 256C80, 264.82 72.82, 272 64, 272zM240, 448C240, 439.18 247.18, 432 256, 432C264.82, 432 272, 439.18 272, 448C272, 456.82 264.82, 464 256, 464C247.18, 464 240, 456.82 240, 448zM305.15, 407.47C293.41, 393.25 275.88, 384 256, 384C236.12, 384 218.59, 393.25 206.85, 407.47A159.62 159.62 0 0 1 104.53, 305.15C118.75, 293.41 128, 275.88 128, 256C128, 236.12 118.75, 218.58 104.53, 206.85A159.62 159.62 0 0 1 206.85, 104.53C218.59, 118.75 236.12, 128 256, 128C275.88, 128 293.41, 118.75 305.15, 104.53A159.62 159.62 0 0 1 407.47, 206.85C393.25, 218.58 384, 236.12 384, 256C384, 275.88 393.25, 293.41 407.47, 305.15A159.598 159.598 0 0 1 305.15, 407.47z" fill="#727272" fill-opacity="1" class="Black" />
  </g>
</svg>