<?xml version='1.0' encoding='UTF-8'?>
<svg viewBox="-3.7495 -2 32 32" xmlns="http://www.w3.org/2000/svg">
  <g transform="matrix(0.0547, 0, 0, 0.0547, 0, 0)">
    <path d="M384, 0L64, 0A64 64 0 0 0 0, 64L0, 480A32 32 0 0 0 32, 512L416, 512A32 32 0 0 0 448, 480L448, 64A64 64 0 0 0 384, 0zM184, 64A24 24 0 1 1 160, 88A24 24 0 0 1 184, 64zM64, 88A24 24 0 1 1 88, 112A24 24 0 0 1 64, 88zM224, 448A144 144 0 1 1 368, 304A144 144 0 0 1 224, 448zM224, 192A112 112 0 1 0 336, 304A112 112 0 0 0 224, 192zM224, 384A80 80 0 0 1 145.61, 320L184, 320A8 8 0 0 0 192, 312L192, 296A8 8 0 0 0 184, 288L145.61, 288A80 80 0 1 1 224, 384z" fill="#727272" fill-opacity="1" class="Black" />
  </g>
</svg>