<?xml version='1.0' encoding='UTF-8'?>
<svg viewBox="-1.9975 -1.9975 32 32" xmlns="http://www.w3.org/2000/svg">
  <g transform="matrix(0.0547, 0, 0, 0.0547, 0, 0)">
    <path d="M416, 224C469.02, 224 512, 181.02 512, 128L448, 128C448, 74.98 405.02, 32 352, 32C298.98, 32 256, 74.98 256, 128C256, 151.15 264.37, 172.15 278.1, 188.59C284.35, 196.07 288, 205.37 288, 215.12C288, 237.7 269.7, 256 247.12, 256L225.43, 256C193.92, 256 145.25, 242.8 123.75, 219.76C113.73, 209.03 96, 216.17 96, 230.63C96, 315.33 164.67, 384 249.37, 384L217.37, 384C141.36, 384 78.7, 328.56 66.55, 256L16.15, 256C7.03, 256 -0.64, 263.66 0.03, 272.75C8.61, 388.64 105.35, 480 223.42, 480L330.62, 480C386.13, 480 441.43, 435.48 447.34, 380.29C451.88, 337.86 432.58, 299.89 401.3, 277.43C390.45, 269.64 384, 257.16 384, 243.8C384, 236.68 385.97, 229.97 389.33, 224.01L416, 224.01zM352, 144C343.16, 144 336, 136.84 336, 128C336, 119.16 343.16, 112 352, 112C360.84, 112 368, 119.16 368, 128C368, 136.84 360.84, 144 352, 144z" fill="#727272" fill-opacity="1" class="Black" />
  </g>
</svg>