<?xml version='1.0' encoding='UTF-8'?>
<svg viewBox="-2 -3.554 32 32" xmlns="http://www.w3.org/2000/svg">
  <g transform="matrix(0.0486, 0, 0, 0.0486, 0, 0)">
    <path d="M560, 160C570.4, 160 578, 150.2 575.5, 140.1L551.5, 44.1C549.7, 37 543.3, 32 536, 32L437.1, 32L462.7, 160L560, 160zM272, 32L171.5, 32L145.9, 160L272, 160L272, 32zM404.5, 32L304, 32L304, 160L430.1, 160L404.5, 32zM16, 160L113.3, 160L138.9, 32L40, 32C32.7, 32 26.3, 37 24.5, 44.1L0.5, 140.1C-2, 150.2 5.6, 160 16, 160zM560, 224L540, 224L544, 192L32, 192L36, 224L16, 224C7.2, 224 0, 231.2 0, 240L0, 272C0, 280.8 7.2, 288 16, 288L44, 288L64, 448L64, 464C64, 472.8 71.2, 480 80, 480L112, 480C120.8, 480 128, 472.8 128, 464L128, 448L448, 448L448, 464C448, 472.8 455.2, 480 464, 480L496, 480C504.8, 480 512, 472.8 512, 464L512, 448L532, 288L560, 288C568.8, 288 576, 280.8 576, 272L576, 240C576, 231.2 568.8, 224 560, 224z" fill="#727272" fill-opacity="1" class="Black" />
  </g>
</svg>