<?xml version='1.0' encoding='UTF-8'?>
<svg viewBox="-2 -2 32 32" xmlns="http://www.w3.org/2000/svg">
  <g transform="matrix(0.0547, 0, 0, 0.0547, 0, 0)">
    <path d="M128.73, 195.32L45.92, 143.56C37.88, 138.54 26.93, 141.39 22.99, 150.01A254.19 254.19 0 0 0 0.54, 239.28C-0.05, 248.37 7.59, 256 16.69, 256L113.82, 256C121.78, 256 127.9, 249.75 128.83, 241.84C129.92, 232.51 132.07, 223.51 135.07, 214.9C137.63, 207.56 135.32, 199.44 128.73, 195.32zM319.03, 8C298.86, 2.82 277.77, 0 256, 0C234.23, 0 213.14, 2.82 192.97, 8C183.8, 10.35 179.06, 20.6 182.58, 29.39L220.05, 133.42A16.003 16.003 0 0 0 235.1, 144L276.9, 144C283.65, 144 289.67, 139.77 291.95, 133.42L329.42, 29.39C332.94, 20.6 328.2, 10.36 319.03, 8zM112, 288L16, 288C7.16, 288 0, 295.16 0, 304L0, 368C0, 376.84 7.16, 384 16, 384L112, 384C120.84, 384 128, 376.84 128, 368L128, 304C128, 295.16 120.84, 288 112, 288zM112, 416L16, 416C7.16, 416 0, 423.16 0, 432L0, 496C0, 504.84 7.16, 512 16, 512L112, 512C120.84, 512 128, 504.84 128, 496L128, 432C128, 423.16 120.84, 416 112, 416zM189.31, 132.33L152.99, 41.53C149.46, 32.7 138.86, 28.54 130.57, 33.22A257.308 257.308 0 0 0 58.96, 93.11C52.9, 100.43 55.11, 111.59 63.18, 116.63L146.11, 168.46C152.62, 172.53 160.77, 171.08 166.22, 165.67C171.4, 160.52 177.01, 155.82 183.01, 151.62C189.29, 147.21 192.16, 139.45 189.31, 132.33zM398.18, 256L495.31, 256C504.41, 256 512.05, 248.37 511.46, 239.28A254.135 254.135 0 0 0 489.01, 150.01C485.07, 141.39 474.12, 138.54 466.08, 143.56L383.27, 195.32C376.68, 199.44 374.37, 207.56 376.93, 214.9C379.94, 223.51 382.08, 232.52 383.17, 241.84C384.1, 249.75 390.22, 256 398.18, 256zM453.03, 93.11A257.308 257.308 0 0 0 381.42, 33.22C373.14, 28.54 362.54, 32.7 359, 41.53L322.68, 132.33C319.83, 139.45 322.7, 147.21 328.98, 151.61C334.98, 155.81 340.59, 160.51 345.77, 165.66C351.21, 171.07 359.37, 172.52 365.88, 168.45L448.81, 116.62C456.88, 111.59 459.1, 100.43 453.03, 93.11zM496, 288L400, 288C391.16, 288 384, 295.16 384, 304L384, 368C384, 376.84 391.16, 384 400, 384L496, 384C504.84, 384 512, 376.84 512, 368L512, 304C512, 295.16 504.84, 288 496, 288zM496, 416L400, 416C391.16, 416 384, 423.16 384, 432L384, 496C384, 504.84 391.16, 512 400, 512L496, 512C504.84, 512 512, 504.84 512, 496L512, 432C512, 423.16 504.84, 416 496, 416zM240, 177.62L240, 472C240, 476.42 243.58, 480 248, 480L264, 480C268.42, 480 272, 476.42 272, 472L272, 177.62C266.77, 176.73 261.48, 176 256, 176C250.52, 176 245.23, 176.73 240, 177.62zM176, 219.13L176, 472C176, 476.42 179.58, 480 184, 480L200, 480C204.42, 480 208, 476.42 208, 472L208, 189.36C195.22, 196.81 184.16, 206.83 176, 219.13zM304, 189.36L304, 472C304, 476.42 307.58, 480 312, 480L328, 480C332.42, 480 336, 476.42 336, 472L336, 219.13C327.84, 206.83 316.78, 196.81 304, 189.36z" fill="#727272" fill-opacity="1" class="Black" />
  </g>
</svg>