<?xml version='1.0' encoding='UTF-8'?>
<svg viewBox="-5.5003 -2 32 32" xmlns="http://www.w3.org/2000/svg">
  <g transform="matrix(0.0547, 0, 0, 0.0547, 0, 0)">
    <path d="M192, 0C85.96, 0 0, 85.96 0, 192L0, 368C0, 447.53 64.47, 512 144, 512C223.53, 512 288, 447.53 288, 368L288, 358.1C345.33, 324.89 384, 263.02 384, 192C384, 85.96 298.04, 0 192, 0zM320, 200C320, 204.42 316.42, 208 312, 208L296, 208C291.58, 208 288, 204.42 288, 200L288, 192C288, 139.06 244.94, 96 192, 96C139.06, 96 96, 139.06 96, 192C96, 209.64 110.36, 224 128, 224L160, 224C195.3, 224 224, 252.7 224, 288C224, 323.3 195.3, 352 160, 352L152, 352C147.58, 352 144, 348.42 144, 344L144, 328C144, 323.58 147.58, 320 152, 320L160, 320C177.64, 320 192, 305.64 192, 288C192, 270.36 177.64, 256 160, 256L128, 256C92.7, 256 64, 227.3 64, 192C64, 121.42 121.42, 64 192, 64C262.58, 64 320, 121.42 320, 192L320, 200z" fill="#727272" fill-opacity="1" class="Black" />
  </g>
</svg>