<?xml version='1.0' encoding='UTF-8'?>
<svg viewBox="-2 -4.7992 32 32" xmlns="http://www.w3.org/2000/svg">
  <g transform="matrix(0.9988, 0, 0, 0.9988, 0, 0)">
    <g transform="matrix(0.0438, 0, 0, 0.0438, 0, 0)">
      <path d="M464, 80C366.8, 80 288, 158.8 288, 256C288, 353.2 366.8, 432 464, 432C561.2, 432 640, 353.2 640, 256C640, 158.8 561.2, 80 464, 80zM165.5, 346.5C115.6, 296.6 115.6, 215.4 165.5, 165.5C200.6, 130.4 251, 120.5 295.3, 134.8C302.8, 124.4 311.1, 114.7 320.4, 105.9L271.5, 9.6C265.1, -3.2 246.9, -3.2 240.5, 9.6L193.2, 104.3L92.7, 70.8C79.1, 66.3 66.2, 79.2 70.8, 92.7L104.3, 193.1L9.6, 240.5C-3.2, 246.9 -3.2, 265.1 9.6, 271.5L104.3, 318.8L70.8, 419.3C66.3, 432.9 79.2, 445.8 92.7, 441.2L193.1, 407.7L240.4, 502.4C246.8, 515.2 265, 515.2 271.4, 502.4L318.7, 407.7L324, 409.5C313.3, 399.8 303.7, 389 295.2, 377.2C251, 391.5 200.6, 381.6 165.5, 346.5zM256, 160C203.1, 160 160, 203.1 160, 256C160, 308.9 203.1, 352 256, 352C263.7, 352 271.1, 350.8 278.3, 349.1C264.1, 321.1 256, 289.5 256, 256C256, 222.5 264.1, 190.9 278.3, 162.9C271.1, 161.2 263.7, 160 256, 160z" fill="#727272" fill-opacity="1" class="Black" />
    </g>
  </g>
</svg>