<?xml version='1.0' encoding='UTF-8'?>
<svg viewBox="-2 0.0025 32 31.9975" xmlns="http://www.w3.org/2000/svg">
  <g transform="matrix(0.0625, 0, 0, 0.0625, 0, 0)">
    <path d="M448, 384L448, 448C448, 465.673 433.673, 480 416, 480L32, 480C14.327, 480 0, 465.673 0, 448L0, 384C0, 366.327 14.327, 352 32, 352L416, 352C433.673, 352 448, 366.327 448, 384zM48.053, 320L399.939, 320C441.59, 320 463.52, 270.326 435.322, 239.565L259.383, 47.558C240.369, 26.815 207.632, 26.814 188.616, 47.558L12.67, 239.565C-15.475, 270.268 6.324, 320 48.053, 320z" fill="#727272" fill-opacity="1" class="Black" />
  </g>
</svg>