<?xml version='1.0' encoding='UTF-8'?>
<svg viewBox="-2 -4.7992 32 32" xmlns="http://www.w3.org/2000/svg">
  <g transform="matrix(0.9988, 0, 0, 0.9988, 0, 0)">
    <g transform="matrix(0.0438, 0, 0, 0.0438, 0, 0)">
      <path d="M512, 32C498.84, 32 486.48, 34.66 474.6, 38.4C464.71, 15.82 442.23, 0 416, 0C380.65, 0 352, 28.65 352, 64C352, 87.63 364.95, 108.04 384, 119.12L384, 160C384, 177.67 398.33, 192 416, 192L424, 192C428.42, 192 432, 195.58 432, 200L432, 216C432, 220.42 428.42, 224 424, 224L416, 224C380.71, 224 352, 195.29 352, 160L352, 135.2C331.92, 117.17 320, 91.28 320, 64C320, 52.72 322.31, 42.06 325.9, 32L192, 32C85.96, 32 0, 117.96 0, 224L0, 336C0, 344.84 7.16, 352 16, 352L32, 352L32, 496C32, 504.84 39.16, 512 48, 512L112, 512C120.84, 512 128, 504.84 128, 496L128, 388.15C160.35, 405.7 198.72, 416 240, 416C281.28, 416 319.65, 405.7 352, 388.15L352, 496C352, 504.84 359.16, 512 368, 512L432, 512C440.84, 512 448, 504.84 448, 496L448, 288L512, 288C535.44, 288 557.11, 281.24 576, 270.25L576, 368C576, 376.83 568.83, 384 560, 384C551.17, 384 544, 376.83 544, 368C544, 359.16 536.84, 352 528, 352L496, 352C487.16, 352 480, 359.16 480, 368C480, 414.87 520.52, 452.46 568.36, 447.57C609.98, 443.32 640, 405.11 640, 363.27L640, 160C640, 89.31 582.69, 32 512, 32zM528, 160C519.16, 160 512, 152.84 512, 144C512, 135.16 519.16, 128 528, 128C536.84, 128 544, 135.16 544, 144C544, 152.84 536.84, 160 528, 160z" fill="#727272" fill-opacity="1" class="Black" />
    </g>
  </g>
</svg>