<?xml version='1.0' encoding='UTF-8'?>
<svg viewBox="-10.5773 -1.5477 31.995 32" xmlns="http://www.w3.org/2000/svg">
  <g transform="matrix(0.9991, 0, 0, 0.9991, 0, 0)">
    <g transform="matrix(0.0565, 0, 0, 0.0565, 0, 0)">
      <path d="M96, 184C135.8, 184 168, 216.2 168, 256C168, 295.8 135.8, 328 96, 328C56.2, 328 24, 295.8 24, 256C24, 216.2 56.2, 184 96, 184zM24, 80C24, 119.8 56.2, 152 96, 152C135.8, 152 168, 119.8 168, 80C168, 40.2 135.8, 8 96, 8C56.2, 8 24, 40.2 24, 80zM24, 432C24, 471.8 56.2, 504 96, 504C135.8, 504 168, 471.8 168, 432C168, 392.2 135.8, 360 96, 360C56.2, 360 24, 392.2 24, 432z" fill="#727272" fill-opacity="1" class="Black" />
    </g>
  </g>
</svg>