<?xml version='1.0' encoding='UTF-8'?>
<svg viewBox="-10.5773 -1.5477 31.995 32" xmlns="http://www.w3.org/2000/svg">
  <g transform="matrix(0.9991, 0, 0, 0.9991, 0, 0)">
    <g transform="matrix(0.0565, 0, 0, 0.0565, 0, 0)">
      <path d="M96, 242C103.7, 242 110, 248.3 110, 256C110, 263.7 103.7, 270 96, 270C88.3, 270 82, 263.7 82, 256C82, 248.3 88.3, 242 96, 242M96, 184C56.2, 184 24, 216.2 24, 256C24, 295.8 56.2, 328 96, 328C135.8, 328 168, 295.8 168, 256C168, 216.2 135.8, 184 96, 184zM96, 66C103.7, 66 110, 72.3 110, 80C110, 87.7 103.7, 94 96, 94C88.3, 94 82, 87.7 82, 80C82, 72.3 88.3, 66 96, 66M96, 8C56.2, 8 24, 40.2 24, 80C24, 119.8 56.2, 152 96, 152C135.8, 152 168, 119.8 168, 80C168, 40.2 135.8, 8 96, 8zM96, 418C103.7, 418 110, 424.3 110, 432C110, 439.7 103.7, 446 96, 446C88.3, 446 82, 439.7 82, 432C82, 424.3 88.3, 418 96, 418M96, 360C56.2, 360 24, 392.2 24, 432C24, 471.8 56.2, 504 96, 504C135.8, 504 168, 471.8 168, 432C168, 392.2 135.8, 360 96, 360z" fill="#727272" fill-opacity="1" class="Black" />
    </g>
  </g>
</svg>