<?xml version='1.0' encoding='UTF-8'?>
<svg viewBox="-2 -4.7992 32 32" xmlns="http://www.w3.org/2000/svg">
  <g transform="matrix(0.9988, 0, 0, 0.9988, 0, 0)">
    <g transform="matrix(0.0438, 0, 0, 0.0438, 0, 0)">
      <path d="M48, 256C48, 196.47 67.55, 138.62 103.36, 91.49C108.54, 84.68 107.84, 75.18 101.33, 69.63L89.13, 59.22C82.22, 53.32 71.51, 54.16 65.98, 61.37C23.32, 117.02 0, 185.5 0, 256C0, 326.47 23.32, 394.96 65.96, 450.62C71.49, 457.83 82.19, 458.67 89.11, 452.78L101.3, 442.38C107.81, 436.83 108.51, 427.34 103.34, 420.52C67.55, 373.37 48, 315.53 48, 256zM320, 32C196.3, 32 96, 132.3 96, 256C96, 379.76 196.3, 480 320, 480C443.7, 480 544, 379.76 544, 256C544, 132.3 443.7, 32 320, 32zM320, 384C302.33, 384 288, 369.67 288, 352C288, 334.33 302.33, 320 320, 320C337.67, 320 352, 334.33 352, 352C352, 369.67 337.67, 384 320, 384zM345.44, 273.59C344.62, 281.77 337.74, 288 329.52, 288L310.48, 288C302.26, 288 295.38, 281.77 294.56, 273.59L281.76, 145.59C280.82, 136.17 288.21, 128 297.68, 128L342.32, 128C351.79, 128 359.18, 136.17 358.24, 145.59L345.44, 273.59zM572.73, 59.71C567.15, 52.53 556.44, 51.76 549.56, 57.71L537.41, 68.22C530.94, 73.82 530.31, 83.31 535.53, 90.09C572.04, 137.47 592, 195.81 592, 256C592, 316.23 572.04, 374.57 535.54, 421.95C530.32, 428.73 530.95, 438.22 537.42, 443.82L549.57, 454.32C556.44, 460.27 567.16, 459.5 572.74, 452.32C616.21, 396.38 640, 327.31 640, 256C640, 184.73 616.21, 115.66 572.73, 59.71z" fill="#727272" fill-opacity="1" class="Black" />
    </g>
  </g>
</svg>