<?xml version='1.0' encoding='UTF-8'?>
<svg viewBox="-2 -2 32 32" xmlns="http://www.w3.org/2000/svg">
  <g transform="matrix(0.0547, 0, 0, 0.0547, 0, 0)">
    <path d="M256, 417.13C239.58, 417.13 223.16, 412.07 209.14, 401.94L0, 250.86L0, 464C0, 490.51 21.49, 512 48, 512L464, 512C490.51, 512 512, 490.51 512, 464L512, 250.86L302.86, 401.94C288.84, 412.06 272.42, 417.13 256, 417.13zM493.61, 162.95C484.76, 156.01 476.37, 149.48 464, 140.14L464, 96C464, 69.49 442.51, 48 416, 48L338.45, 48C335.41, 45.8 332.58, 43.74 329.41, 41.44C312.6, 29.18 279.2, -0.35 256, 0C232.8, -0.35 199.41, 29.17 182.59, 41.44C179.42, 43.74 176.59, 45.8 173.55, 48L96, 48C69.49, 48 48, 69.49 48, 96L48, 140.14C35.63, 149.47 27.24, 156.01 18.39, 162.95A47.995 47.995 0 0 0 0, 200.72L0, 211.37L96, 280.72L96, 96L416, 96L416, 280.72L512, 211.37L512, 200.72C512, 185.98 505.22, 172.05 493.61, 162.95zM264, 136L248, 136C243.58, 136 240, 139.58 240, 144L240, 160.12C216.38, 160.75 197.33, 180.67 197.33, 205.19C197.33, 225.16 210.31, 243 228.91, 248.58L273.91, 262.08C279.07, 263.63 282.68, 268.86 282.68, 274.81C282.68, 282.08 277.38, 288 270.88, 288L242.77, 288C238.21, 288 233.81, 286.71 229.95, 284.28C226.71, 282.25 222.59, 282.37 219.82, 285.01L208.07, 296.22C204.54, 299.59 204.74, 305.43 208.64, 308.36C217.74, 315.19 228.72, 319.13 240.01, 319.71L240.01, 336C240.01, 340.42 243.59, 344 248.01, 344L264.01, 344C268.43, 344 272.01, 340.42 272.01, 336L272.01, 319.88C295.63, 319.25 314.68, 299.34 314.68, 274.81C314.68, 254.84 301.7, 237 283.1, 231.42L238.1, 217.92C232.94, 216.37 229.33, 211.14 229.33, 205.19C229.33, 197.92 234.63, 192 241.13, 192L269.24, 192C273.8, 192 278.2, 193.29 282.06, 195.72C285.3, 197.75 289.42, 197.63 292.19, 194.99L303.94, 183.78C307.47, 180.41 307.27, 174.57 303.37, 171.64C294.27, 164.81 283.29, 160.87 272, 160.29L272, 144C272, 139.58 268.42, 136 264, 136z" fill="#727272" fill-opacity="1" class="Black" />
  </g>
</svg>