<?xml version='1.0' encoding='UTF-8'?>
<svg viewBox="-2 -1.9975 32 31.9975" xmlns="http://www.w3.org/2000/svg">
  <g transform="matrix(0.0547, 0, 0, 0.0547, 0, 0)">
    <path d="M512, 464C512, 490.51 490.51, 512 464, 512L48, 512C21.49, 512 0, 490.51 0, 464L0, 200.724A48 48 0 0 1 18.387, 162.948C43.3, 143.419 63.888, 127.583 182.587, 41.437C199.412, 29.17 232.797, -0.347 256, 0.003C279.198, -0.351 312.596, 29.175 329.413, 41.436C448.1, 127.573 468.716, 143.431 493.613, 162.948A48 48 0 0 1 512, 200.724L512, 464zM446.334, 267.395C443.771, 263.667 438.634, 262.8 434.995, 265.488C412.15, 282.361 379.533, 306.193 329.413, 342.567C312.588, 354.833 279.203, 384.348 256, 383.997C232.789, 384.341 199.441, 354.854 182.587, 342.567C132.473, 306.197 99.853, 282.363 77.005, 265.488C73.366, 262.8 68.229, 263.667 65.666, 267.395L56.594, 280.591A7.998 7.998 0 0 0 58.433, 291.558C81.32, 308.457 113.887, 332.248 163.736, 368.426C184.01, 383.207 220.26, 416.239 256, 415.999C291.724, 416.241 327.961, 383.228 348.263, 368.426C398.113, 332.247 430.681, 308.456 453.566, 291.558A7.998 7.998 0 0 0 455.405, 280.591L446.334, 267.395z" fill="#727272" fill-opacity="1" class="Black" />
  </g>
</svg>