<?xml version='1.0' encoding='UTF-8'?>
<svg viewBox="-2 0 32 32" xmlns="http://www.w3.org/2000/svg">
  <g transform="matrix(0.0625, 0, 0, 0.0625, 0, 0)">
    <path d="M416, 304L32, 304C14.33, 304 0, 318.33 0, 336L0, 368C0, 385.67 14.33, 400 32, 400L416, 400C433.67, 400 448, 385.67 448, 368L448, 336C448, 318.33 433.67, 304 416, 304zM416, 112L32, 112C14.33, 112 0, 126.33 0, 144L0, 176C0, 193.67 14.33, 208 32, 208L416, 208C433.67, 208 448, 193.67 448, 176L448, 144C448, 126.33 433.67, 112 416, 112z" fill="#727272" fill-opacity="1" class="Black" />
  </g>
</svg>