<?xml version='1.0' encoding='UTF-8'?>
<svg viewBox="-1.9975 -1.9975 32 32" xmlns="http://www.w3.org/2000/svg">
  <g transform="matrix(0.0547, 0, 0, 0.0547, 0, 0)">
    <path d="M497.941, 273.941C516.686, 255.196 516.686, 224.804 497.941, 206.059L337.941, 46.059C319.196, 27.314 288.805, 27.313 270.058, 46.059L14.058, 302.059C-4.687, 320.804 -4.687, 351.196 14.058, 369.941L110.058, 465.941A48.004 48.004 0 0 0 144, 480L500, 480C506.627, 480 512, 474.627 512, 468L512, 428C512, 421.373 506.627, 416 500, 416L355.883, 416L497.941, 273.941zM195.314, 211.314L332.687, 348.687L265.373, 416L150.628, 416L70.628, 336L195.314, 211.314z" fill="#727272" fill-opacity="1" class="Black" />
  </g>
</svg>