<?xml version='1.0' encoding='UTF-8'?>
<svg viewBox="-2 -1.9988 32 32" xmlns="http://www.w3.org/2000/svg">
  <g transform="matrix(0.0547, 0, 0, 0.0547, 0, 0)">
    <path d="M496, 192L448, 192L448, 144C448, 135.2 440.8, 128 432, 128L384, 128L384, 80C384, 71.2 376.8, 64 368, 64L144, 64C135.2, 64 128, 71.2 128, 80L128, 128L80, 128C71.2, 128 64, 135.2 64, 144L64, 192L16, 192C7.2, 192 0, 199.2 0, 208L0, 432C0, 440.8 7.2, 448 16, 448L96, 448L96, 320L128, 320L128, 448L192, 448L192, 320L224, 320L224, 448L288, 448L288, 320L320, 320L320, 448L384, 448L384, 320L416, 320L416, 448L496, 448C504.8, 448 512, 440.8 512, 432L512, 208C512, 199.2 504.8, 192 496, 192z" fill="#727272" fill-opacity="1" class="Black" />
  </g>
</svg>