<?xml version='1.0' encoding='UTF-8'?>
<svg viewBox="-2 -1.9988 32 32" xmlns="http://www.w3.org/2000/svg">
  <g transform="matrix(0.0547, 0, 0, 0.0547, 0, 0)">
    <path d="M0, 168L0, 152C0, 138.745 10.745, 128 24, 128L384, 128L384, 80C384, 58.633 409.899, 47.958 424.971, 63.029L504.971, 143.029C514.343, 152.402 514.343, 167.598 504.971, 176.97L424.971, 256.97C409.956, 271.982 384, 261.456 384, 240L384, 192L24, 192C10.745, 192 0, 181.255 0, 168zM488, 320L128, 320L128, 272C128, 250.686 102.138, 239.92 87.029, 255.029L7.029, 335.029C-2.343, 344.402 -2.343, 359.598 7.029, 368.97L87.029, 448.97C102.057, 463.997 128, 453.437 128, 432L128, 384L488, 384C501.255, 384 512, 373.255 512, 360L512, 344C512, 330.745 501.255, 320 488, 320z" fill="#727272" fill-opacity="1" class="Black" />
  </g>
</svg>