<?xml version='1.0' encoding='UTF-8'?>
<svg viewBox="-2 -1.9988 32 32" xmlns="http://www.w3.org/2000/svg">
  <g transform="matrix(0.0547, 0, 0, 0.0547, 0, 0)">
    <path d="M0, 168L0, 152C0, 138.745 10.745, 128 24, 128L405.97, 128L375.503, 100.272C365.688, 90.983 365.473, 75.426 375.029, 65.87L385.869, 55.03C395.242, 45.657 410.437, 45.657 419.81, 55.03L502.627, 137.373C515.124, 149.87 515.124, 170.131 502.627, 182.628L419.81, 264.971C410.437, 274.344 395.241, 274.344 385.869, 264.971L375.029, 254.131C365.473, 244.575 365.688, 229.017 375.503, 219.729L405.97, 192L24, 192C10.745, 192 0, 181.255 0, 168zM488, 320L106.03, 320L136.497, 292.272C146.312, 282.983 146.527, 267.426 136.971, 257.87L126.131, 247.03C116.758, 237.657 101.563, 237.657 92.19, 247.03L9.373, 329.373C-3.124, 341.87 -3.124, 362.131 9.373, 374.628L92.19, 456.971C101.563, 466.344 116.759, 466.344 126.131, 456.971L136.971, 446.131C146.527, 436.575 146.312, 421.018 136.497, 411.729L106.03, 384L488, 384C501.255, 384 512, 373.255 512, 360L512, 344C512, 330.745 501.255, 320 488, 320z" fill="#727272" fill-opacity="1" class="Black" />
  </g>
</svg>