<?xml version='1.0' encoding='UTF-8'?>
<svg viewBox="-2 0 32 32" xmlns="http://www.w3.org/2000/svg">
  <g transform="matrix(0.0625, 0, 0, 0.0625, 0, 0)">
    <path d="M400, 32L48, 32C21.49, 32 0, 53.49 0, 80L0, 432C0, 458.51 21.49, 480 48, 480L400, 480C426.51, 480 448, 458.51 448, 432L448, 80C448, 53.49 426.51, 32 400, 32zM192.309, 128L255.691, 128C262.575, 128 268.048, 133.78 267.673, 140.654L260.255, 276.654C259.908, 283.018 254.646, 288 248.273, 288L199.727, 288C193.354, 288 188.092, 283.018 187.745, 276.654L180.327, 140.654C179.952, 133.78 185.425, 128 192.309, 128zM224, 398C198.595, 398 178, 377.405 178, 352C178, 326.595 198.595, 306 224, 306C249.405, 306 270, 326.595 270, 352C270, 377.405 249.405, 398 224, 398z" fill="#727272" fill-opacity="1" class="Black" />
  </g>
</svg>