<?xml version='1.0' encoding='UTF-8'?>
<svg viewBox="-2 0 32 32" xmlns="http://www.w3.org/2000/svg">
  <g transform="matrix(0.0625, 0, 0, 0.0625, 0, 0)">
    <path d="M0, 180L0, 56C0, 42.7 10.7, 32 24, 32L148, 32C154.6, 32 160, 37.4 160, 44L160, 84C160, 90.6 154.6, 96 148, 96L64, 96L64, 180C64, 186.6 58.6, 192 52, 192L12, 192C5.4, 192 0, 186.6 0, 180zM288, 44L288, 84C288, 90.6 293.4, 96 300, 96L384, 96L384, 180C384, 186.6 389.4, 192 396, 192L436, 192C442.6, 192 448, 186.6 448, 180L448, 56C448, 42.7 437.3, 32 424, 32L300, 32C293.4, 32 288, 37.4 288, 44zM436, 320L396, 320C389.4, 320 384, 325.4 384, 332L384, 416L300, 416C293.4, 416 288, 421.4 288, 428L288, 468C288, 474.6 293.4, 480 300, 480L424, 480C437.3, 480 448, 469.3 448, 456L448, 332C448, 325.4 442.6, 320 436, 320zM160, 468L160, 428C160, 421.4 154.6, 416 148, 416L64, 416L64, 332C64, 325.4 58.6, 320 52, 320L12, 320C5.4, 320 0, 325.4 0, 332L0, 456C0, 469.3 10.7, 480 24, 480L148, 480C154.6, 480 160, 474.6 160, 468z" fill="#727272" fill-opacity="1" class="Black" />
  </g>
</svg>