<?xml version='1.0' encoding='UTF-8'?>
<svg viewBox="-2 0 32 32" xmlns="http://www.w3.org/2000/svg">
  <g transform="matrix(0.0625, 0, 0, 0.0625, 0, 0)">
    <path d="M212.686, 315.314L120, 408L152.922, 439.029C168.042, 454.149 157.334, 480 135.952, 480L23.952, 480C10.697, 480 0, 469.255 0, 456L0, 344C0, 322.618 25.803, 311.91 40.922, 327.029L72, 360L164.686, 267.314C170.934, 261.066 181.065, 261.066 187.313, 267.314L212.686, 292.687C218.935, 298.935 218.935, 309.065 212.686, 315.314zM235.314, 196.686L328, 104L295.078, 72.971C279.958, 57.851 290.666, 32 312.048, 32L424.048, 32C437.303, 32 448, 42.745 448, 56L448, 168C448, 189.382 422.197, 200.09 407.078, 184.971L376, 152L283.314, 244.686C277.066, 250.934 266.935, 250.934 260.687, 244.686L235.314, 219.313C229.065, 213.065 229.065, 202.935 235.314, 196.686z" fill="#727272" fill-opacity="1" class="Black" />
  </g>
</svg>