<?xml version='1.0' encoding='UTF-8'?>
<svg viewBox="-2 0 32 32" xmlns="http://www.w3.org/2000/svg">
  <g transform="matrix(0.0625, 0, 0, 0.0625, 0, 0)">
    <path d="M448, 80L448, 432C448, 458.51 426.51, 480 400, 480L48, 480C21.49, 480 0, 458.51 0, 432L0, 80C0, 53.49 21.49, 32 48, 32L400, 32C426.51, 32 448, 53.49 448, 80zM360, 96L248.029, 96C226.716, 96 215.949, 121.861 231.058, 136.971L263.042, 168.958L67.515, 364.485C62.829, 369.171 62.829, 376.769 67.515, 381.456L98.544, 412.485C103.231, 417.171 110.829, 417.171 115.515, 412.485L311.041, 216.959L343.029, 248.95C358.058, 263.977 384, 253.425 384, 231.979L384, 120C384, 106.745 373.255, 96 360, 96z" fill="#727272" fill-opacity="1" class="Black" />
  </g>
</svg>