<?xml version='1.0' encoding='UTF-8'?>
<svg viewBox="-1.9999 -1.9999 32 32" xmlns="http://www.w3.org/2000/svg">
  <g transform="matrix(0.0547, 0, 0, 0.0547, 0, 0)">
    <path d="M432, 320L400, 320A16 16 0 0 0 384, 336L384, 448L64, 448L64, 128L208, 128A16 16 0 0 0 224, 112L224, 80A16 16 0 0 0 208, 64L48, 64A48 48 0 0 0 0, 112L0, 464A48 48 0 0 0 48, 512L400, 512A48 48 0 0 0 448, 464L448, 336A16 16 0 0 0 432, 320zM488, 0L360, 0C338.63, 0 327.95, 25.91 343, 41L378.73, 76.73L135, 320.37A24 24 0 0 0 135, 354.37L157.67, 377A24 24 0 0 0 191.67, 377L435.28, 133.32L471, 169C486, 184 512, 173.5 512, 152L512, 24A24 24 0 0 0 488, 0z" fill="#727272" fill-opacity="1" class="Black" />
  </g>
</svg>