<?xml version='1.0' encoding='UTF-8'?>
<svg viewBox="-1.9999 -1.9999 32 32" xmlns="http://www.w3.org/2000/svg">
  <g transform="matrix(0.0547, 0, 0, 0.0547, 0, 0)">
    <path d="M432, 320L400, 320A16 16 0 0 0 384, 336L384, 448L64, 448L64, 128L208, 128A16 16 0 0 0 224, 112L224, 80A16 16 0 0 0 208, 64L48, 64A48 48 0 0 0 0, 112L0, 464A48 48 0 0 0 48, 512L400, 512A48 48 0 0 0 448, 464L448, 336A16 16 0 0 0 432, 320zM474.67, 0L316, 0A28 28 0 0 0 288, 28L288, 46.71A28 28 0 0 0 316.79, 73.9L384, 72L135.06, 319.09L135, 319.15A24 24 0 0 0 135, 353.09L158.94, 376.94L159, 377A24 24 0 0 0 192.91, 376.91L440, 128L438.12, 195.22L438.12, 196A28 28 0 0 0 466.12, 224L484, 224A28 28 0 0 0 512, 196L512, 37.33L512, 37.33A37.33 37.33 0 0 0 474.67, 0z" fill="#727272" fill-opacity="1" class="Black" />
  </g>
</svg>