<?xml version='1.0' encoding='UTF-8'?>
<svg viewBox="-1.995 -4.7973 31.9975 32" xmlns="http://www.w3.org/2000/svg">
  <g transform="matrix(0.999, 0, 0, 0.999, 0, 0)">
    <g transform="matrix(0.0438, 0, 0, 0.0438, 0, 0)">
      <path d="M320, 400C244.15, 400 182.75, 341.29 177.1, 266.89L72.2, 185.82C58.41, 203.12 45.72, 221.41 35.48, 241.41A32.35 32.35 0 0 0 35.48, 270.6C89.71, 376.41 197.07, 448 320, 448C346.91, 448 372.87, 444 397.89, 437.54L346, 397.39A144.13 144.13 0 0 1 320, 400zM633.82, 458.1L523.27, 372.66A331.25 331.25 0 0 0 604.52, 270.59A32.35 32.35 0 0 0 604.52, 241.4C550.29, 135.59 442.93, 64 320, 64A308.15 308.15 0 0 0 172.68, 101.7L45.46, 3.37A16 16 0 0 0 23, 6.18L3.37, 31.45A16 16 0 0 0 6.18, 53.9L594.54, 508.63A16 16 0 0 0 617, 505.82L636.64, 480.55A16 16 0 0 0 633.82, 458.1zM450.1, 316.1L410.8, 285.72A94.75 94.75 0 0 0 416, 256A94.76 94.76 0 0 0 294.69, 163.79A47.65 47.65 0 0 1 304, 192A46.64 46.64 0 0 1 302.46, 202L228.85, 145.11A142.31 142.31 0 0 1 320, 112A143.92 143.92 0 0 1 464, 256C464, 277.63 458.71, 297.79 450.1, 316.11z" fill="#727272" fill-opacity="1" class="Black" />
    </g>
  </g>
</svg>