<?xml version='1.0' encoding='UTF-8'?>
<svg viewBox="-1.9975 -4.797 32 32" xmlns="http://www.w3.org/2000/svg">
  <g transform="matrix(1.0012, 0, 0, 1.0012, 0, 0)">
    <g transform="matrix(0.0437, 0, 0, 0.0437, 0, 0)">
      <path d="M627.03, 239.08L515.16, 208.78C510.37, 202.22 505.01, 195.38 499.03, 188.33C500.38, 186.26 554.21, 100.35 554.21, 100.35C563.15, 86.03 548.11, 69 531.76, 74.93L412, 118.29C402.32, 113.48 392.09, 109.38 381.35, 105.97L336.88, 10.73C330.2, -3.58 309.8, -3.58 303.12, 10.73L258.65, 105.97C247.91, 109.37 237.68, 113.48 228, 118.29L108.23, 74.93C91.88, 69 76.85, 86.03 85.78, 100.35C85.78, 100.35 139.62, 186.27 140.96, 188.33A359.126 359.126 0 0 0 124.83, 208.78L12.96, 239.08C-4.33, 243.76 -4.33, 268.23 12.96, 272.91L124.83, 303.21C129.61, 309.75 134.94, 316.56 140.9, 323.59C139.56, 325.68 85.78, 411.64 85.78, 411.64C76.84, 425.96 91.88, 442.99 108.23, 437.07L228, 393.71C237.68, 398.52 247.91, 402.63 258.65, 406.03L303.12, 501.27C309.8, 515.58 330.2, 515.58 336.88, 501.27L381.35, 406.03C392.09, 402.63 402.32, 398.52 412, 393.71L531.77, 437.07C548.12, 442.99 563.16, 425.96 554.22, 411.64C554.22, 411.64 500.44, 325.68 499.1, 323.59C505.06, 316.56 510.39, 309.75 515.17, 303.21L627.04, 272.91C644.32, 268.23 644.32, 243.77 627.03, 239.08zM320, 352C266.98, 352 224, 309.02 224, 256C224, 236.27 229.99, 217.94 240.2, 202.69C256.11, 212.26 274.97, 219.02 295.79, 222.02C291.38, 231.27 288, 242.43 288, 256C288, 298.67 320, 320 320, 320C320, 320 352, 298.67 352, 256C352, 242.43 348.63, 231.27 344.21, 222.02C365.03, 219.02 383.89, 212.26 399.8, 202.69C410.01, 217.94 416, 236.27 416, 256C416, 309.02 373.02, 352 320, 352z" fill="#727272" fill-opacity="1" class="Black" />
    </g>
  </g>
</svg>