<?xml version='1.0' encoding='UTF-8'?>
<svg viewBox="-1.9975 -3.553 32 32" xmlns="http://www.w3.org/2000/svg">
  <g transform="matrix(0.0486, 0, 0, 0.0486, 0, 0)">
    <path d="M572.52, 241.4C518.29, 135.59 410.93, 64 288, 64C165.07, 64 57.68, 135.64 3.48, 241.41A32.35 32.35 0 0 0 3.48, 270.6C57.71, 376.41 165.07, 448 288, 448C410.93, 448 518.32, 376.36 572.52, 270.59A32.35 32.35 0 0 0 572.52, 241.4zM288, 400A144 144 0 1 1 432, 256A143.93 143.93 0 0 1 288, 400zM288, 160A95.31 95.31 0 0 0 262.69, 163.79A47.85 47.85 0 0 1 195.79, 230.69A95.78 95.78 0 1 0 288, 160z" fill="#727272" fill-opacity="1" class="Black" />
  </g>
</svg>