<?xml version='1.0' encoding='UTF-8'?>
<svg viewBox="-2 -1.9988 32 32" xmlns="http://www.w3.org/2000/svg">
  <g transform="matrix(0.0547, 0, 0, 0.0547, 0, 0)">
    <path d="M0, 436L0, 76C0, 69.4 5.4, 64 12, 64L52, 64C58.6, 64 64, 69.4 64, 76L64, 227.9L235.5, 71.4C256.1, 54.3 288, 68.6 288, 96L288, 227.9L459.5, 71.4C480.1, 54.3 512, 68.6 512, 96L512, 416C512, 443.4 480.1, 457.7 459.5, 440.6L288, 285.3L288, 416C288, 443.4 256.1, 457.7 235.5, 440.6L64, 285.3L64, 436C64, 442.6 58.6, 448 52, 448L12, 448C5.4, 448 0, 442.6 0, 436z" fill="#727272" fill-opacity="1" class="Black" />
  </g>
</svg>