<?xml version='1.0' encoding='UTF-8'?>
<svg viewBox="-1.9976 -1.9976 32 32" xmlns="http://www.w3.org/2000/svg">
  <g transform="matrix(0.0547, 0, 0, 0.0547, 0, 0)">
    <path d="M467.14, 44.84C404.59, -17.64 305.47, -19.94 214.86, 70.57C136.25, 149.09 153.88, 131.49 129.11, 156.23C68.65, 216.62 58.72, 307.06 65.47, 367.4L243.91, 189.15C250.17, 182.9 260.31, 182.9 266.56, 189.15C272.81, 195.4 272.81, 205.53 266.56, 211.78L7.04, 471.03C-2.34, 480.4 -2.34, 495.6 7.04, 504.97C16.42, 514.34 31.64, 514.34 41.02, 504.97L107.12, 438.94C159.42, 454.65 279, 457.11 353.95, 384L255.76, 384L403.33, 334.86C453.32, 284.93 439.71, 298.68 449.64, 288L351.86, 288L483.4, 244.2C528.84, 169.74 517.71, 95.36 467.14, 44.84z" fill="#727272" fill-opacity="1" class="Black" />
  </g>
</svg>