<?xml version='1.0' encoding='UTF-8'?>
<svg viewBox="-8.9994 -2 32 32" xmlns="http://www.w3.org/2000/svg">
  <g transform="matrix(0.0547, 0, 0, 0.0547, 0, 0)">
    <path d="M128, 0C163.346, 0 192, 28.654 192, 64C192, 99.346 163.346, 128 128, 128C92.654, 128 64, 99.346 64, 64C64, 28.654 92.654, 0 128, 0M247.283, 354.179L199.283, 162.179A24 24 0 0 0 176, 144L164.64, 144C141.929, 154.443 115.05, 154.894 91.36, 144L80, 144A24 24 0 0 0 56.717, 162.179L8.717, 354.179C4.935, 369.305 16.383, 384 32, 384L88, 384L88, 488C88, 501.255 98.745, 512 112, 512L144, 512C157.255, 512 168, 501.255 168, 488L168, 384L224, 384C239.591, 384 251.071, 369.329 247.283, 354.179z" fill="#727272" fill-opacity="1" class="Black" />
  </g>
</svg>