<?xml version='1.0' encoding='UTF-8'?>
<svg viewBox="-2 -4.7992 32 32" xmlns="http://www.w3.org/2000/svg">
  <g transform="matrix(0.9988, 0, 0, 0.9988, 0, 0)">
    <g transform="matrix(0.0438, 0, 0, 0.0438, 0, 0)">
      <path d="M544, 224L416, 208L368, 192L344, 192L227.158, 44L266.667, 44C278.333, 44 288, 41.375 288, 38C288, 34.625 278.333, 32 266.667, 32L152, 32L152, 44L168, 44L168, 208L120, 208L53.333, 128L18.667, 128L8, 138.667L8, 208L16, 208L16, 224L64, 224L64, 226.666L0, 234.666L0, 277.333L64, 285.333L64, 288L16, 288L16, 304L8, 304L8, 373.333L18.667, 384L53.334, 384L120, 304L168, 304L168, 468L152, 468L152, 480L266.667, 480C278.334, 480 288, 477.375 288, 474C288, 470.625 278.333, 468 266.667, 468L227.158, 468L344, 320L368, 320L416, 304L544, 288C640, 266.667 640, 261.417 640, 256C640, 250.583 640, 245.333 544, 224z" fill="#727272" fill-opacity="1" class="Black" />
    </g>
  </g>
</svg>