<?xml version='1.0' encoding='UTF-8'?>
<svg viewBox="-5.5011 -1.9998 32 31.9975" xmlns="http://www.w3.org/2000/svg">
  <g transform="matrix(0.0547, 0, 0, 0.0547, 0, 0)">
    <path d="M377, 105L279.1, 7C274.6, 2.5 268.5, 0 262.1, 0L256, 0L256, 128L384, 128L384, 121.9C384, 115.6 381.5, 109.5 377, 105zM224, 136L224, 0L24, 0C10.7, 0 0, 10.7 0, 24L0, 488C0, 501.3 10.7, 512 24, 512L360, 512C373.3, 512 384, 501.3 384, 488L384, 160L248, 160C234.8, 160 224, 149.2 224, 136zM128, 435.2C128, 441.6 121.6, 448 115.2, 448L76.8, 448C70.4, 448 64, 441.6 64, 435.2L64, 364.8C64, 358.4 70.4, 352 76.8, 352L115.2, 352C121.6, 352 128, 358.4 128, 364.8L128, 435.2zM224, 435.2C224, 441.6 217.6, 448 211.2, 448L172.8, 448C166.4, 448 160, 441.6 160, 435.2L160, 236.8C160, 230.4 166.4, 224 172.8, 224L211.2, 224C217.6, 224 224, 230.4 224, 236.8L224, 435.2zM256, 300.8C256, 294.4 262.4, 288 268.8, 288L307.2, 288C313.6, 288 320, 294.4 320, 300.8L320, 435.2C320, 441.6 313.6, 448 307.2, 448L268.8, 448C262.4, 448 256, 441.6 256, 435.2L256, 300.8z" fill="#727272" fill-opacity="1" class="Black" />
  </g>
</svg>