<?xml version='1.0' encoding='UTF-8'?>
<svg viewBox="-5.5011 -1.9998 32 31.9975" xmlns="http://www.w3.org/2000/svg">
  <g transform="matrix(0.0547, 0, 0, 0.0547, 0, 0)">
    <path d="M288, 256L96, 256L96, 320L288, 320L288, 256zM377, 105L279.1, 7C274.6, 2.5 268.5, 0 262.1, 0L256, 0L256, 128L384, 128L384, 121.9C384, 115.6 381.5, 109.5 377, 105zM224, 136L224, 0L24, 0C10.7, 0 0, 10.7 0, 24L0, 488C0, 501.3 10.7, 512 24, 512L360, 512C373.3, 512 384, 501.3 384, 488L384, 160L248, 160C234.8, 160 224, 149.2 224, 136zM64, 72C64, 67.58 67.58, 64 72, 64L152, 64C156.42, 64 160, 67.58 160, 72L160, 88C160, 92.42 156.42, 96 152, 96L72, 96C67.58, 96 64, 92.42 64, 88L64, 72zM64, 136C64, 131.58 67.58, 128 72, 128L152, 128C156.42, 128 160, 131.58 160, 136L160, 152C160, 156.42 156.42, 160 152, 160L72, 160C67.58, 160 64, 156.42 64, 152L64, 136zM320, 440C320, 444.42 316.42, 448 312, 448L232, 448C227.58, 448 224, 444.42 224, 440L224, 424C224, 419.58 227.58, 416 232, 416L312, 416C316.42, 416 320, 419.58 320, 424L320, 440zM320, 240L320, 336C320, 344.84 312.84, 352 304, 352L80, 352C71.16, 352 64, 344.84 64, 336L64, 240C64, 231.16 71.16, 224 80, 224L304, 224C312.84, 224 320, 231.16 320, 240z" fill="#727272" fill-opacity="1" class="Black" />
  </g>
</svg>