<?xml version='1.0' encoding='UTF-8'?>
<svg viewBox="-5.5011 -1.9998 32 31.9975" xmlns="http://www.w3.org/2000/svg">
  <g transform="matrix(0.0547, 0, 0, 0.0547, 0, 0)">
    <path d="M384, 121.941L384, 128L256, 128L256, 0L262.059, 0C268.424, 0 274.529, 2.529 279.03, 7.029L376.971, 104.97A24.005 24.005 0 0 1 384, 121.941zM224, 136L224, 0L24, 0C10.745, 0 0, 10.745 0, 24L0, 488C0, 501.255 10.745, 512 24, 512L360, 512C373.255, 512 384, 501.255 384, 488L384, 160L248, 160C234.8, 160 224, 149.2 224, 136zM320, 280.016L320, 391.979C320, 413.424 294.057, 423.977 279.029, 408.95L224, 353.941L224, 392C224, 405.255 213.255, 416 200, 416L88, 416C74.745, 416 64, 405.255 64, 392L64, 280C64, 266.745 74.745, 256 88, 256L200, 256C213.255, 256 224, 266.745 224, 280L224, 318.059L279.029, 263.046C294.04, 248.036 320, 258.555 320, 280.016z" fill="#727272" fill-opacity="1" class="Black" />
  </g>
</svg>