<?xml version='1.0' encoding='UTF-8'?>
<svg viewBox="-5.499 -1.9999 31.9975 32" xmlns="http://www.w3.org/2000/svg">
  <g transform="matrix(0.0547, 0, 0, 0.0547, 0, 0)">
    <path d="M384, 121.9L384, 128L256, 128L256, 0L262.1, 0C268.5, 0 274.6, 2.5 279.1, 7L377, 105C381.5, 109.5 384, 115.6 384, 121.9zM248, 160L384, 160L384, 488C384, 501.3 373.3, 512 360, 512L24, 512C10.7, 512 0, 501.3 0, 488L0, 24C0, 10.7 10.7, 0 24, 0L224, 0L224, 136C224, 149.2 234.8, 160 248, 160zM284, 352C290.6, 352 296, 346.6 296, 340L296, 300C296, 293.4 290.6, 288 284, 288L100, 288C93.4, 288 88, 293.4 88, 300L88, 340C88, 346.6 93.4, 352 100, 352L284, 352z" fill="#727272" fill-opacity="1" class="Black" />
  </g>
</svg>