<?xml version='1.0' encoding='UTF-8'?>
<svg viewBox="-5.5011 -1.9998 32 31.9975" xmlns="http://www.w3.org/2000/svg">
  <g transform="matrix(0.0547, 0, 0, 0.0547, 0, 0)">
    <path d="M224, 136L224, 0L24, 0C10.7, 0 0, 10.7 0, 24L0, 488C0, 501.3 10.7, 512 24, 512L360, 512C373.3, 512 384, 501.3 384, 488L384, 160L248, 160C234.8, 160 224, 149.2 224, 136zM288, 372C288, 378.6 282.6, 384 276, 384L108, 384C101.4, 384 96, 378.6 96, 372L96, 364C96, 357.4 101.4, 352 108, 352L276, 352C282.6, 352 288, 357.4 288, 364L288, 372zM288, 308C288, 314.6 282.6, 320 276, 320L108, 320C101.4, 320 96, 314.6 96, 308L96, 300C96, 293.4 101.4, 288 108, 288L276, 288C282.6, 288 288, 293.4 288, 300L288, 308zM288, 236L288, 244C288, 250.6 282.6, 256 276, 256L108, 256C101.4, 256 96, 250.6 96, 244L96, 236C96, 229.4 101.4, 224 108, 224L276, 224C282.6, 224 288, 229.4 288, 236zM384, 121.9L384, 128L256, 128L256, 0L262.1, 0C268.5, 0 274.6, 2.5 279.1, 7L377, 105C381.5, 109.5 384, 115.6 384, 121.9z" fill="#727272" fill-opacity="1" class="Black" />
  </g>
</svg>