<?xml version='1.0' encoding='UTF-8'?>
<svg viewBox="-5.5011 -1.9998 32 31.9975" xmlns="http://www.w3.org/2000/svg">
  <g transform="matrix(0.0547, 0, 0, 0.0547, 0, 0)">
    <path d="M384, 121.941L384, 128L256, 128L256, 0L262.059, 0A24 24 0 0 1 279.029, 7.029L376.97, 104.97A24.002 24.002 0 0 1 384, 121.941zM248, 160C234.8, 160 224, 149.2 224, 136L224, 0L24, 0C10.745, 0 0, 10.745 0, 24L0, 488C0, 501.255 10.745, 512 24, 512L360, 512C373.255, 512 384, 501.255 384, 488L384, 160L248, 160zM112.545, 176C139.055, 176 160.545, 197.49 160.545, 224C160.545, 250.51 139.055, 272 112.545, 272C86.035, 272 64.545, 250.51 64.545, 224C64.545, 197.49 86.036, 176 112.545, 176zM320.545, 416L64.545, 416L65.03, 367.515L104.545, 328C109.231, 323.314 116.344, 323.799 121.03, 328.485L160.545, 368L264.06, 264.485C268.746, 259.799 276.344, 259.799 281.031, 264.485L320.545, 304L320.545, 416z" fill="#727272" fill-opacity="1" class="Black" />
  </g>
</svg>