<?xml version='1.0' encoding='UTF-8'?>
<svg viewBox="-1.9999 -3.5552 32 32" xmlns="http://www.w3.org/2000/svg">
  <g transform="matrix(0.0486, 0, 0, 0.0486, 0, 0)">
    <path d="M218.17, 424.14C215.22, 418.22 210.08, 417.62 208, 417.62C205.92, 417.62 200.78, 418.21 197.98, 423.81L190.31, 439.15C183.94, 451.93 165.28, 450.52 160.83, 437.06L144, 386.59L133.39, 418.47C127.5, 436.13 111.01, 448 92.39, 448L80, 448C71.16, 448 64, 440.84 64, 432C64, 423.16 71.16, 416 80, 416L92.39, 416C97.22, 416 101.5, 412.92 103.03, 408.34L121.22, 353.7C124.52, 343.89 133.66, 337.29 144, 337.29C154.34, 337.29 163.48, 343.88 166.77, 353.7L180.65, 395.34C200.4, 379.15 234.71, 385.64 246.65, 409.5C248.54, 413.28 252.14, 415.45 256.01, 415.76L256.01, 333.64L384.01, 206.55L384.01, 160L248, 160C234.8, 160 224, 149.2 224, 136L224, 0L24, 0C10.7, 0 0, 10.7 0, 24L0, 488C0, 501.3 10.7, 512 24, 512L360, 512C373.3, 512 384, 501.3 384, 488L384, 448L256, 447.89C239.88, 447.58 225.42, 438.61 218.17, 424.14zM384, 121.9C384, 115.6 381.5, 109.5 377, 105L279.1, 7C274.6, 2.5 268.5, 0 262.1, 0L256, 0L256, 128L384, 128L384, 121.9zM288, 346.96L288, 416L356.99, 416L518.67, 253.22L450.79, 185.34L288, 346.96zM568.54, 167.33L536.67, 135.46C526.73, 125.52 510.6, 125.52 500.66, 135.46L473.41, 162.71L541.29, 230.59L568.54, 203.34C578.49, 193.4 578.49, 177.27 568.54, 167.33z" fill="#727272" fill-opacity="1" class="Black" />
  </g>
</svg>