<?xml version='1.0' encoding='UTF-8'?>
<svg viewBox="-2 -4.7992 32 32" xmlns="http://www.w3.org/2000/svg">
  <g transform="matrix(0.9988, 0, 0, 0.9988, 0, 0)">
    <g transform="matrix(0.0438, 0, 0, 0.0438, 0, 0)">
      <path d="M288, 320C288, 254.55 327.59, 198.32 384, 173.56L384, 160L248, 160A24.07 24.07 0 0 1 224, 136L224, 0L24, 0A23.94 23.94 0 0 0 0, 24L0, 488A23.94 23.94 0 0 0 24, 512L360, 512A23.94 23.94 0 0 0 384, 488L384, 466.44C327.59, 441.69 288, 385.45 288, 320zM384, 121.9A23.92 23.92 0 0 0 377, 105L279.1, 7A24 24 0 0 0 262.1, 0L256, 0L256, 128L384, 128zM635.31, 462.06L557.9, 384.65A126.69 126.69 0 0 0 576, 320A128 128 0 1 0 448, 448C471.7, 448 493.61, 441.12 512.65, 429.89L590.06, 507.31A16 16 0 0 0 612.69, 507.31L635.31, 484.69A16 16 0 0 0 635.31, 462.06zM448, 384A64 64 0 1 1 512, 320A64 64 0 0 1 448, 384z" fill="#727272" fill-opacity="1" class="Black" />
    </g>
  </g>
</svg>