<?xml version='1.0' encoding='UTF-8'?>
<svg viewBox="-5.5011 -1.9998 32 31.9975" xmlns="http://www.w3.org/2000/svg">
  <g transform="matrix(0.0547, 0, 0, 0.0547, 0, 0)">
    <path d="M384, 121.941L384, 128L256, 128L256, 0L262.059, 0C268.424, 0 274.529, 2.529 279.03, 7.029L376.971, 104.97A24.005 24.005 0 0 1 384, 121.941zM248, 160C234.8, 160 224, 149.2 224, 136L224, 0L24, 0C10.745, 0 0, 10.745 0, 24L0, 488C0, 501.255 10.745, 512 24, 512L360, 512C373.255, 512 384, 501.255 384, 488L384, 160L248, 160zM123.206, 400.505A5.4 5.4 0 0 1 115.573, 400.751L50.707, 339.939A5.4 5.4 0 0 1 50.707, 332.06L115.573, 271.248A5.4 5.4 0 0 1 123.206, 271.494L142.785, 292.379A5.4 5.4 0 0 1 142.413, 300.126L101.65, 336L142.413, 371.874A5.4 5.4 0 0 1 142.785, 379.621L123.206, 400.505zM174.501, 450.984L147.048, 443.014A5.402 5.402 0 0 1 143.367, 436.322L204.807, 224.696A5.402 5.402 0 0 1 211.499, 221.015L238.951, 228.985A5.4 5.4 0 0 1 242.631, 235.677L181.191, 447.303A5.397 5.397 0 0 1 174.501, 450.984zM335.293, 339.939L270.427, 400.751A5.4 5.4 0 0 1 262.794, 400.505L243.214, 379.62A5.4 5.4 0 0 1 243.586, 371.873L284.35, 336L243.587, 300.126A5.4 5.4 0 0 1 243.215, 292.379L262.795, 271.494A5.4 5.4 0 0 1 270.428, 271.248L335.294, 332.06A5.4 5.4 0 0 1 335.293, 339.939z" fill="#727272" fill-opacity="1" class="Black" />
  </g>
</svg>