<?xml version='1.0' encoding='UTF-8'?>
<svg viewBox="-5.5011 -1.9998 32 31.9975" xmlns="http://www.w3.org/2000/svg">
  <g transform="matrix(0.0547, 0, 0, 0.0547, 0, 0)">
    <path d="M224, 136L224, 0L24, 0C10.7, 0 0, 10.7 0, 24L0, 488C0, 501.3 10.7, 512 24, 512L360, 512C373.3, 512 384, 501.3 384, 488L384, 160L248, 160C234.8, 160 224, 149.2 224, 136zM160, 404C160, 414.7 147.1, 420 139.5, 412.5L104, 376L76, 376C69.4, 376 64, 370.6 64, 364L64, 308C64, 301.4 69.4, 296 76, 296L104, 296L139.5, 259.5C147.1, 251.9 160, 257.3 160, 268L160, 404zM193.2, 356.4C202.3, 347.1 202.3, 332.3 193.2, 323C171.1, 300.2 205.4, 266.8 227.6, 289.5C254.8, 317.4 254.8, 361.9 227.6, 389.9C205.8, 412.2 170.7, 379.5 193.2, 356.4zM279.2, 239.3C333.6, 295.2 333.6, 384.1 279.2, 440.1C257.4, 462.5 222.2, 429.8 244.8, 406.6C281, 369.4 281.1, 310.1 244.8, 272.8C222.7, 250 257.1, 216.5 279.2, 239.3zM384, 121.9L384, 128L256, 128L256, 0L262.1, 0C268.5, 0 274.6, 2.5 279.1, 7L377, 105C381.5, 109.5 384, 115.6 384, 121.9z" fill="#727272" fill-opacity="1" class="Black" />
  </g>
</svg>