<?xml version='1.0' encoding='UTF-8'?>
<svg viewBox="-5.499 -1.9999 31.9975 32" xmlns="http://www.w3.org/2000/svg">
  <g transform="matrix(0.0547, 0, 0, 0.0547, 0, 0)">
    <path d="M384, 121.941L384, 128L256, 128L256, 0L262.059, 0C268.424, 0 274.529, 2.529 279.03, 7.029L376.971, 104.97A24.005 24.005 0 0 1 384, 121.941zM248, 160L384, 160L384, 488C384, 501.255 373.255, 512 360, 512L24, 512C10.745, 512 0, 501.255 0, 488L0, 24C0, 10.745 10.745, 0 24, 0L224, 0L224, 136C224, 149.2 234.8, 160 248, 160zM313.296, 269.732L285.127, 241.334C280.46, 236.629 272.862, 236.598 268.157, 241.266L162.12, 346.45L116.14, 300.098C111.473, 295.393 103.874, 295.362 99.169, 300.03L70.772, 328.2C66.067, 332.867 66.036, 340.465 70.704, 345.17L153.305, 428.439C157.972, 433.144 165.57, 433.175 170.275, 428.507L313.228, 286.702C317.933, 282.035 317.964, 274.437 313.296, 269.732z" fill="#727272" fill-opacity="1" class="Black" />
  </g>
</svg>