<?xml version='1.0' encoding='UTF-8'?>
<svg viewBox="-5.5011 -1.9998 32 31.9975" xmlns="http://www.w3.org/2000/svg">
  <g transform="matrix(0.0547, 0, 0, 0.0547, 0, 0)">
    <path d="M377, 105L279.1, 7C274.6, 2.5 268.5, 0 262.1, 0L256, 0L256, 128L384, 128L384, 121.9C384, 115.6 381.5, 109.5 377, 105zM128.4, 336C110.5, 336 96, 348.1 96, 363C96, 378 110.6, 390 128.5, 390C146.4, 390 160.9, 377.9 160.9, 363C160.9, 348.1 146.3, 336 128.4, 336zM224, 136L224, 0L160.4, 0L160.4, 32L128.4, 32L128.4, 0L24, 0C10.7, 0 0, 10.7 0, 24L0, 488C0, 501.3 10.7, 512 24, 512L360, 512C373.3, 512 384, 501.3 384, 488L384, 160L248, 160C234.8, 160 224, 149.2 224, 136zM95.9, 32L127.9, 32L127.9, 64L95.9, 64zM128.2, 416C95, 416 70.2, 385.6 76.8, 353.1L96.4, 256L96.4, 224L128.4, 224L128.4, 192L96.4, 192L96.4, 160L128.4, 160L128.4, 128L96.4, 128L96.4, 96L128.4, 96L128.4, 64L160.4, 64L160.4, 96L128.4, 96L128.4, 128L160.4, 128L160.4, 160L128.4, 160L128.4, 192L160.4, 192L160.4, 224L128.4, 224L128.4, 256L150.5, 256C156.2, 256 161.2, 260.1 162.3, 265.7L179.6, 353.4C186, 385.8 161.2, 416 128.2, 416z" fill="#727272" fill-opacity="1" class="Black" />
  </g>
</svg>