<?xml version='1.0' encoding='UTF-8'?>
<svg viewBox="-5.499 -1.9999 31.9975 32" xmlns="http://www.w3.org/2000/svg">
  <g transform="matrix(0.0547, 0, 0, 0.0547, 0, 0)">
    <path d="M384, 121.9L384, 128L256, 128L256, 0L262.1, 0C268.5, 0 274.6, 2.5 279.1, 7L377, 105C381.5, 109.5 384, 115.6 384, 121.9zM384, 160L384, 488C384, 501.3 373.3, 512 360, 512L24, 512C10.7, 512 0, 501.3 0, 488L0, 24C0, 10.7 10.7, 0 24, 0L224, 0L224, 136C224, 149.2 234.8, 160 248, 160L384, 160zM152.8, 220.8L160, 332.8C160.4, 339.1 165.6, 344 172, 344L212, 344C218.3, 344 223.6, 339.1 224, 332.8L231.2, 220.8C231.6, 213.9 226.2, 208 219.2, 208L164.8, 208C157.9, 208 152.4, 213.8 152.8, 220.8zM232, 400C232, 377.9 214.1, 360 192, 360C169.9, 360 152, 377.9 152, 400C152, 422.1 169.9, 440 192, 440C214.1, 440 232, 422.1 232, 400z" fill="#727272" fill-opacity="1" class="Black" />
  </g>
</svg>