<?xml version='1.0' encoding='UTF-8'?>
<svg viewBox="-5.5011 -1.9998 32 31.9975" xmlns="http://www.w3.org/2000/svg">
  <g transform="matrix(0.0547, 0, 0, 0.0547, 0, 0)">
    <path d="M224, 136L224, 0L24, 0C10.7, 0 0, 10.7 0, 24L0, 488C0, 501.3 10.7, 512 24, 512L360, 512C373.3, 512 384, 501.3 384, 488L384, 160L248, 160C234.8, 160 224, 149.2 224, 136zM281.1, 256L305, 256C312.7, 256 318.4, 263.1 316.7, 270.7L278.7, 438.7C277.5, 444.2 272.6, 448 267, 448L229, 448C223.5, 448 218.7, 444.2 217.4, 438.9C191.6, 335.4 196.6, 357.7 191.8, 328.4L191.3, 328.4C190.2, 342.7 188.9, 345.8 165.7, 438.9C164.4, 444.2 159.6, 448 154.1, 448L117, 448C111.4, 448 106.5, 444.1 105.3, 438.6L67.5, 270.6C65.8, 263.1 71.5, 256 79.2, 256L103.7, 256C109.4, 256 114.4, 260 115.5, 265.7C131.1, 343.7 135.6, 375.2 136.5, 387.9C138.1, 377.7 143.8, 355.2 165.9, 265.2C167.2, 259.8 172, 256.1 177.6, 256.1L206.7, 256.1C212.3, 256.1 217.1, 259.9 218.4, 265.3C242.4, 365.7 247.2, 389.3 248, 394.7C247.8, 383.5 245.4, 376.9 269.6, 265.5C270.6, 259.9 275.5, 256 281.1, 256zM384, 121.9L384, 128L256, 128L256, 0L262.1, 0C268.5, 0 274.6, 2.5 279.1, 7L377, 105C381.5, 109.5 384, 115.6 384, 121.9z" fill="#727272" fill-opacity="1" class="Black" />
  </g>
</svg>