<?xml version='1.0' encoding='UTF-8'?>
<svg viewBox="-3.7505 -1.9998 32 31.9975" xmlns="http://www.w3.org/2000/svg">
  <g transform="matrix(0.0547, 0, 0, 0.0547, 0, 0)">
    <path d="M96, 392L96, 96L24, 96A24 24 0 0 0 0, 120L0, 488A24 24 0 0 0 24, 512L296, 512A24 24 0 0 0 320, 488L320, 448L152, 448A56.06 56.06 0 0 1 96, 392zM320, 104L320, 0L152, 0A24 24 0 0 0 128, 24L128, 392A24 24 0 0 0 152, 416L424, 416A24 24 0 0 0 448, 392L448, 128L344, 128A24.07 24.07 0 0 1 320, 104zM384, 232L384, 280A8 8 0 0 1 376, 288L320, 288L320, 344A8 8 0 0 1 312, 352L264, 352A8 8 0 0 1 256, 344L256, 288L200, 288A8 8 0 0 1 192, 280L192, 232A8 8 0 0 1 200, 224L256, 224L256, 168A8 8 0 0 1 264, 160L312, 160A8 8 0 0 1 320, 168L320, 224L376, 224A8 8 0 0 1 384, 232zM441, 73L375, 7A24 24 0 0 0 358, 0L352, 0L352, 96L448, 96L448, 89.94A24 24 0 0 0 441, 73z" fill="#727272" fill-opacity="1" class="Black" />
  </g>
</svg>