<?xml version='1.0' encoding='UTF-8'?>
<svg viewBox="-3.7495 -2 32 32" xmlns="http://www.w3.org/2000/svg">
  <g transform="matrix(0.0547, 0, 0, 0.0547, 0, 0)">
    <path d="M288, 136L288, 0L88, 0C74.7, 0 64, 10.7 64, 24L64, 256L8, 256C3.6, 256 0, 259.6 0, 264L0, 280C0, 284.4 3.6, 288 8, 288L148.9, 288C151.9, 288 154.7, 289.7 156.1, 292.4L176, 332.2L232.8, 218.5C235.7, 212.6 244.2, 212.6 247.1, 218.5L281.8, 288L352, 288C360.8, 288 368, 295.2 368, 304C368, 312.8 360.8, 320 352, 320L262.1, 320L240, 275.8L183.2, 389.5C180.3, 395.4 171.8, 395.4 168.9, 389.5L134.1, 320L64, 320L64, 488C64, 501.3 74.7, 512 88, 512L424, 512C437.3, 512 448, 501.3 448, 488L448, 160L312, 160C298.8, 160 288, 149.2 288, 136zM441, 105L343.1, 7C338.6, 2.5 332.5, 0 326.1, 0L320, 0L320, 128L448, 128L448, 121.9C448, 115.6 445.5, 109.5 441, 105z" fill="#727272" fill-opacity="1" class="Black" />
  </g>
</svg>