<?xml version='1.0' encoding='UTF-8'?>
<svg viewBox="-5.499 -1.9999 31.9975 32" xmlns="http://www.w3.org/2000/svg">
  <g transform="matrix(0.0547, 0, 0, 0.0547, 0, 0)">
    <path d="M384, 121.9L384, 128L256, 128L256, 0L262.1, 0C268.5, 0 274.6, 2.5 279.1, 7L377, 105C381.5, 109.5 384, 115.6 384, 121.9zM248, 160L384, 160L384, 488C384, 501.3 373.3, 512 360, 512L24, 512C10.7, 512 0, 501.3 0, 488L0, 24C0, 10.7 10.7, 0 24, 0L224, 0L224, 136C224, 149.2 234.8, 160 248, 160zM188.4, 269.6L93.4, 364.6L88, 412.8C87.3, 419.2 92.7, 424.7 99.2, 424L147.4, 418.6L242.4, 323.6C244.4, 321.6 244.4, 318.4 242.4, 316.4L195.6, 269.6C193.6, 267.6 190.4, 267.6 188.4, 269.6zM298.1, 239.3L272.7, 213.9C264.8, 206 252, 206 244.1, 213.9L218.1, 239.9C216.1, 241.9 216.1, 245.1 218.1, 247.1L264.9, 293.9C266.9, 295.9 270.1, 295.9 272.1, 293.9L298.1, 267.9C306, 260 306, 247.2 298.1, 239.3z" fill="#727272" fill-opacity="1" class="Black" />
  </g>
</svg>