<?xml version='1.0' encoding='UTF-8'?>
<svg viewBox="-5.5011 -1.9998 32 31.9975" xmlns="http://www.w3.org/2000/svg">
  <g transform="matrix(0.0547, 0, 0, 0.0547, 0, 0)">
    <path d="M224, 136L224, 0L24, 0C10.7, 0 0, 10.7 0, 24L0, 488C0, 501.3 10.7, 512 24, 512L360, 512C373.3, 512 384, 501.3 384, 488L384, 160L248, 160C234.8, 160 224, 149.2 224, 136zM289.18, 352.01L224, 352.01L224, 432.01C224, 440.85 216.84, 448.01 208, 448.01L176, 448.01C167.16, 448.01 160, 440.85 160, 432.01L160, 352.01L94.82, 352.01C80.54, 352.01 73.41, 334.72 83.55, 324.65L179.97, 228.95C186.62, 222.34 197.36, 222.34 204.01, 228.95L300.43, 324.65C310.58, 334.72 303.46, 352.01 289.18, 352.01zM377, 105L279.1, 7C274.6, 2.5 268.5, 0 262.1, 0L256, 0L256, 128L384, 128L384, 121.9C384, 115.6 381.5, 109.5 377, 105z" fill="#727272" fill-opacity="1" class="Black" />
  </g>
</svg>