<?xml version='1.0' encoding='UTF-8'?>
<svg viewBox="-1.9999 -1.9974 32 31.9975" xmlns="http://www.w3.org/2000/svg">
  <g transform="matrix(0.0547, 0, 0, 0.0547, 0, 0)">
    <path d="M488, 64L480, 64L480, 84C480, 90.6 474.6, 96 468, 96L428, 96C421.4, 96 416, 90.6 416, 84L416, 64L96, 64L96, 84C96, 90.6 90.6, 96 84, 96L44, 96C37.4, 96 32, 90.6 32, 84L32, 64L24, 64C10.7, 64 0, 74.7 0, 88L0, 424C0, 437.3 10.7, 448 24, 448L32, 448L32, 428C32, 421.4 37.4, 416 44, 416L84, 416C90.6, 416 96, 421.4 96, 428L96, 448L416, 448L416, 428C416, 421.4 421.4, 416 428, 416L468, 416C474.6, 416 480, 421.4 480, 428L480, 448L488, 448C501.3, 448 512, 437.3 512, 424L512, 88C512, 74.7 501.3, 64 488, 64zM96, 372C96, 378.6 90.6, 384 84, 384L44, 384C37.4, 384 32, 378.6 32, 372L32, 332C32, 325.4 37.4, 320 44, 320L84, 320C90.6, 320 96, 325.4 96, 332L96, 372zM96, 276C96, 282.6 90.6, 288 84, 288L44, 288C37.4, 288 32, 282.6 32, 276L32, 236C32, 229.4 37.4, 224 44, 224L84, 224C90.6, 224 96, 229.4 96, 236L96, 276zM96, 180C96, 186.6 90.6, 192 84, 192L44, 192C37.4, 192 32, 186.6 32, 180L32, 140C32, 133.4 37.4, 128 44, 128L84, 128C90.6, 128 96, 133.4 96, 140L96, 180zM368, 388C368, 394.6 362.6, 400 356, 400L156, 400C149.4, 400 144, 394.6 144, 388L144, 292C144, 285.4 149.4, 280 156, 280L356, 280C362.6, 280 368, 285.4 368, 292L368, 388zM368, 220C368, 226.6 362.6, 232 356, 232L156, 232C149.4, 232 144, 226.6 144, 220L144, 124C144, 117.4 149.4, 112 156, 112L356, 112C362.6, 112 368, 117.4 368, 124L368, 220zM480, 372C480, 378.6 474.6, 384 468, 384L428, 384C421.4, 384 416, 378.6 416, 372L416, 332C416, 325.4 421.4, 320 428, 320L468, 320C474.6, 320 480, 325.4 480, 332L480, 372zM480, 276C480, 282.6 474.6, 288 468, 288L428, 288C421.4, 288 416, 282.6 416, 276L416, 236C416, 229.4 421.4, 224 428, 224L468, 224C474.6, 224 480, 229.4 480, 236L480, 276zM480, 180C480, 186.6 474.6, 192 468, 192L428, 192C421.4, 192 416, 186.6 416, 180L416, 140C416, 133.4 421.4, 128 428, 128L468, 128C474.6, 128 480, 133.4 480, 140L480, 180z" fill="#727272" fill-opacity="1" class="Black" />
  </g>
</svg>