<?xml version='1.0' encoding='UTF-8'?>
<svg viewBox="-2 -4.7992 32 32" xmlns="http://www.w3.org/2000/svg">
  <g transform="matrix(0.9988, 0, 0, 0.9988, 0, 0)">
    <g transform="matrix(0.0438, 0, 0, 0.0438, 0, 0)">
      <path d="M528, 288C490.9, 288 458.3, 306.3 437.9, 334.1C418.4, 288.2 373, 256 320, 256C267, 256 221.6, 288.2 202.1, 334.1C181.7, 306.3 149.1, 288 112, 288C50.1, 288 0, 338.1 0, 400C0, 461.9 50.1, 512 112, 512L528, 512C589.9, 512 640, 461.9 640, 400C640, 338.1 589.9, 288 528, 288zM195.7, 283.2C205.4, 271.2 217, 260.9 229.6, 252.2C224.9, 240.6 222.2, 227.5 222.2, 212.9C222.2, 183.1 240.4, 156.8 276.6, 111.8C281.8, 118 350.4, 208.7 350.4, 208.7L394.2, 157C397.3, 162.3 400.1, 167.5 402.6, 172.4C415, 196.9 416.5, 225.5 407.7, 250.2C421.4, 259.2 433.8, 270.2 444.2, 283C457.7, 273.3 472.8, 266.3 488.7, 261.7C493.3, 246.2 495.9, 229.8 495.9, 212.8C495.9, 172.5 455.1, 89.4 398.1, 38.6C381.8, 53.2 367, 68.5 353.9, 84C332.6, 55.7 306.1, 26.9 276, 0C198.8, 68.9 144, 158.8 144, 213C144, 230 146.6, 246.4 151.2, 261.9C167.1, 266.5 182.2, 273.5 195.7, 283.2z" fill="#727272" fill-opacity="1" class="Black" />
    </g>
  </g>
</svg>