<?xml version='1.0' encoding='UTF-8'?>
<svg viewBox="-3.7495 -2 32 32" xmlns="http://www.w3.org/2000/svg">
  <g transform="matrix(0.0547, 0, 0, 0.0547, 0, 0)">
    <path d="M434.027, 26.329L266.027, 54.329C254.693, 56.218 256, 67.8 256, 72L197.668, 72C208.353, 36.108 181.446, 0 144, 0C104.565, 0 77.632, 39.676 91.772, 76.203C39.733, 89.254 16.391, 130.416 1.723, 167.087C-3.2, 179.394 2.786, 193.361 15.093, 198.284C27.41, 203.21 41.372, 197.209 46.289, 184.914C75.058, 112.99 106.964, 120 168, 120L168, 147.076C126.457, 157.938 96, 196.311 96, 241.205L96, 488C96, 501.255 106.745, 512 120, 512L264, 512C277.255, 512 288, 501.255 288, 488L288, 240C288, 195.269 257.404, 157.688 216, 147.03L216, 120L256, 120C256, 122.974 254.297, 135.716 266.027, 137.671L434.027, 165.671C441.342, 166.89 448, 161.25 448, 153.834L448, 38.166C448, 30.75 441.342, 25.11 434.027, 26.329zM144, 72C135.178, 72 128, 64.822 128, 56C128, 47.178 135.178, 40 144, 40C152.822, 40 160, 47.178 160, 56C160, 64.822 152.822, 72 144, 72z" fill="#727272" fill-opacity="1" class="Black" />
  </g>
</svg>