<?xml version='1.0' encoding='UTF-8'?>
<svg viewBox="-2 -3.554 32 32" xmlns="http://www.w3.org/2000/svg">
  <g transform="matrix(0.0486, 0, 0, 0.0486, 0, 0)">
    <path d="M0, 80L0, 432C0, 458.5 21.5, 480 48, 480L96, 480L96, 32L48, 32C21.5, 32 0, 53.5 0, 80zM128, 480L448, 480L448, 32L128, 32L128, 480zM192, 232C192, 227.6 195.6, 224 200, 224L256, 224L256, 168C256, 163.6 259.6, 160 264, 160L312, 160C316.4, 160 320, 163.6 320, 168L320, 224L376, 224C380.4, 224 384, 227.6 384, 232L384, 280C384, 284.4 380.4, 288 376, 288L320, 288L320, 344C320, 348.4 316.4, 352 312, 352L264, 352C259.6, 352 256, 348.4 256, 344L256, 288L200, 288C195.6, 288 192, 284.4 192, 280L192, 232zM528, 32L480, 32L480, 480L528, 480C554.5, 480 576, 458.5 576, 432L576, 80C576, 53.5 554.5, 32 528, 32z" fill="#727272" fill-opacity="1" class="Black" />
  </g>
</svg>