<?xml version='1.0' encoding='UTF-8'?>
<svg viewBox="-1.9975 -4.7983 32 32" xmlns="http://www.w3.org/2000/svg">
  <g transform="matrix(0.9989, 0, 0, 0.9989, 0, 0)">
    <g transform="matrix(0.0438, 0, 0, 0.0438, 0, 0)">
      <path d="M363.44, 64C263.44, 64 176.18, 129.72 127.59, 186L30.59, 106.74C17.08, 95.68 -3, 107.42 0.4, 124.29L27.27, 256L0.39, 387.73C-3, 404.6 17.07, 416.32 30.54, 405.32L127.54, 326.06C176.17, 382.28 263.48, 448 363.44, 448C516.18, 448 640, 294.4 640, 256C640, 217.6 516.18, 64 363.44, 64zM245.66, 261.65L234.35, 250.34A8 8 0 0 1 234.35, 239.03L319, 154.34A8 8 0 0 1 330.32, 154.34L341.63, 165.65A8 8 0 0 1 341.63, 176.97L257, 261.65A8 8 0 0 1 245.66, 261.65zM304.97, 341.65A8 8 0 0 1 293.66, 341.65L282.35, 330.34A8 8 0 0 1 282.35, 319.03L431, 170.34A8 8 0 0 1 442.32, 170.34L453.63, 181.65A8 8 0 0 1 453.63, 192.97zM501.66, 273L417, 357.65A8 8 0 0 1 405.69, 357.65L394.38, 346.34A8 8 0 0 1 394.38, 335.03L479, 250.34A8 8 0 0 1 490.32, 250.34L501.63, 261.65A8 8 0 0 1 501.66, 273z" fill="#727272" fill-opacity="1" class="Black" />
    </g>
  </g>
</svg>