<?xml version='1.0' encoding='UTF-8'?>
<svg viewBox="-5.5003 -2 32 32" xmlns="http://www.w3.org/2000/svg">
  <g transform="matrix(0.0547, 0, 0, 0.0547, 0, 0)">
    <path d="M255.98, 160L255.98, 16C255.98, 7.16 248.82, 0 239.98, 0L207.98, 0C199.14, 0 191.98, 7.16 191.98, 16L191.98, 162.93C197, 161.15 202.32, 160 207.95, 160L255.98, 160zM383.98, 255.99C383.97, 220.65 355.32, 192 319.99, 192L207.85, 192C199.07, 192 191.95, 199.07 191.95, 207.85L191.95, 208.41C191.95, 234.68 213.25, 256 239.52, 256L274.78, 256C284.46, 256 287.98, 259.58 287.98, 264L287.98, 280.2C287.98, 284.49 284.39, 287.98 280.1, 288.2C235.58, 290.48 215.94, 312.91 184.05, 360.75L177.74, 370.22A7.994 7.994 0 0 1 166.65, 372.44L153.34, 363.56A7.994 7.994 0 0 1 151.12, 352.47L157.43, 343C173.16, 319.4 187.63, 299.74 204.74, 284.92C187.47, 279.41 173.34, 266.8 165.87, 250.47C159.28, 253.88 151.91, 255.99 144, 255.99L112, 255.99C99.66, 255.99 88.51, 251.18 80, 243.51C71.48, 251.19 60.33, 256 48, 256L16, 256C10.36, 256 5.03, 254.85 0, 253.05L0, 330.98C0, 364.93 13.48, 397.48 37.49, 421.49L63.99, 448L63.99, 512L319.97, 512L319.97, 448.04L355.88, 412.12A96.035 96.035 0 0 0 384, 344.21L383.98, 255.99zM351.97, 165.9L351.97, 48C351.97, 39.16 344.81, 32 335.97, 32L303.97, 32C295.13, 32 287.97, 39.16 287.97, 48L287.97, 160L319.97, 160C331.25, 160 341.91, 162.31 351.97, 165.9zM16, 224L48, 224C56.84, 224 64, 216.84 64, 208L64, 80C64, 71.16 56.84, 64 48, 64L16, 64C7.16, 64 0, 71.16 0, 80L0, 208C0, 216.84 7.16, 224 16, 224zM111.99, 224L143.99, 224C152.83, 224 159.99, 216.84 159.99, 208L159.99, 48C159.99, 39.16 152.83, 32 143.99, 32L111.99, 32C103.15, 32 95.99, 39.16 95.99, 48L95.99, 208C95.99, 216.84 103.15, 224 111.99, 224z" fill="#727272" fill-opacity="1" class="Black" />
  </g>
</svg>