<?xml version='1.0' encoding='UTF-8'?>
<svg viewBox="-2.0023 -1.9998 32 31.995" xmlns="http://www.w3.org/2000/svg">
  <g transform="matrix(0.0547, 0, 0, 0.0547, 0, 0)">
    <path d="M32, 0C14.3, 0 0, 14.3 0, 32L0, 496C0, 504.8 7.2, 512 16, 512L48, 512C56.8, 512 64, 504.8 64, 496L64, 32C64, 14.3 49.7, 0 32, 0zM462.6, 4.2C291.3, 91.5 305.4, -62.2 96, 32.4L96, 384C281.7, 291.8 317.7, 437.3 493.5, 360.9C504.9, 355.9 512, 344.4 512, 332.1L512, 30.8C512, 5.7 485.2, -7.3 462.6, 4.2z" fill="#727272" fill-opacity="1" class="Black" />
  </g>
</svg>