<?xml version='1.0' encoding='UTF-8'?>
<svg viewBox="-1.7825 -2 32 32" xmlns="http://www.w3.org/2000/svg">
  <g transform="matrix(0.0547, 0, 0, 0.0547, 0, 0)">
    <path d="M243.2, 189.9L243.2, 258C269.3, 263.9 292.5, 273.6 316.8, 280.3L316.8, 212.1C290.8, 206.3 267.4, 196.6 243.2, 189.9zM466.5, 66.9C432.2, 82.8 390, 98.8 349.5, 98.8C296, 98.8 251.7, 64 184.3, 64C159.3, 64 137, 68.4 116.3, 76C119.1, 68.7 120.4, 60.8 119.9, 52.4C118.1, 24 94.8, 1.2 66.3, 0C34.3, -1.3 8, 24.3 8, 56C8, 75 17.5, 91.8 32, 101.9L32, 488C32, 501.3 42.7, 512 56, 512L72, 512C85.3, 512 96, 501.3 96, 488L96, 393.6C124.3, 381.5 159.6, 371.5 210.4, 371.5C264, 371.5 308.2, 406.3 375.6, 406.3C423.8, 406.3 462.3, 390 498.1, 365.4C506.8, 359.4 511.9, 349.6 511.9, 339L511.9, 95.9C512, 72.6 487.7, 57.1 466.5, 66.9zM169.6, 325.5C143.8, 328.2 119.6, 333.7 96, 342.1L96, 271.6C122.2, 262.3 143.5, 256.6 169.6, 254.2zM464, 191C440.4, 200.8 417.7, 210.5 390.4, 214.9L390.4, 286C415.2, 282.6 441.8, 274.2 464, 260L464, 330.5C438.9, 346.6 415.5, 355.2 390.4, 357.6L390.4, 286C363.4, 289.7 342.5, 287.5 316.8, 280.4L316.8, 347.8C292.9, 340.4 269.5, 331.1 243.2, 326.5L243.2, 258C223.5, 253.6 202.4, 251.2 169.6, 254.2L169.6, 184.2C147.2, 187.3 125, 194.4 96, 205.1L96, 134.6C129.2, 122.4 146.1, 114.8 169.6, 112.6L169.6, 184.2C196.6, 180.5 218, 182.9 243.2, 189.9L243.2, 122.5C266.9, 129.9 290.4, 139.2 316.8, 143.8L316.8, 212.2C340.5, 217.5 364.4, 219.1 390.4, 214.9L390.4, 143C417.4, 138.2 442.7, 129.4 464, 120.5z" fill="#727272" fill-opacity="1" class="Black" />
  </g>
</svg>