<?xml version='1.0' encoding='UTF-8'?>
<svg viewBox="-3.7481 -1.9999 31.9975 32" xmlns="http://www.w3.org/2000/svg">
  <g transform="matrix(0.0547, 0, 0, 0.0547, 0, 0)">
    <path d="M437.2, 403.5L320, 215L320, 64L328, 64C341.3, 64 352, 53.3 352, 40L352, 24C352, 10.7 341.3, 0 328, 0L120, 0C106.7, 0 96, 10.7 96, 24L96, 40C96, 53.3 106.7, 64 120, 64L128, 64L128, 215L10.8, 403.5C-18.5, 450.6 15.3, 512 70.9, 512L377.1, 512C432.8, 512 466.5, 450.5 437.2, 403.5zM137.9, 320L186.1, 242.4C189.8, 237.2 191.9, 230.8 191.9, 224L191.9, 64L255.9, 64L255.9, 224C255.9, 230.9 258.1, 237.2 261.7, 242.4L309.9, 320L137.9, 320z" fill="#727272" fill-opacity="1" class="Black" />
  </g>
</svg>