<?xml version='1.0' encoding='UTF-8'?>
<svg viewBox="-4.6264 -1.9998 32 31.9975" xmlns="http://www.w3.org/2000/svg">
  <g transform="matrix(0.0547, 0, 0, 0.0547, 0, 0)">
    <path d="M80, 48L80, 16C80, 7.16 87.16, 0 96, 0L320, 0C328.84, 0 336, 7.16 336, 16L336, 48C336, 56.84 328.84, 64 320, 64L96, 64C87.16, 64 80, 56.84 80, 48zM168, 288C154.75, 288 144, 298.74 144, 312C144, 325.25 154.75, 336 168, 336C181.25, 336 192, 325.25 192, 312C192, 298.74 181.25, 288 168, 288zM415.95, 356.67C414.81, 408.35 394.8, 455.37 362.56, 491.15C350.47, 504.56 333.04, 512 314.98, 512L100.94, 512C83.16, 512 65.89, 504.87 53.94, 491.7C20.43, 454.79 0, 405.79 0, 352C0, 271.88 45.61, 202.85 112, 168.12L112, 96L304, 96L304, 169.05C371.19, 205.18 417.71, 276.72 415.95, 356.67zM320, 312C320, 263.4 269.86, 224 208, 224C146.14, 224 96, 263.4 96, 312C96, 341.87 115.04, 368.17 144, 384.08L144, 416C144, 424.84 151.16, 432 160, 432L256, 432C264.84, 432 272, 424.84 272, 416L272, 384.08C300.96, 368.17 320, 341.87 320, 312zM248, 288C234.75, 288 224, 298.74 224, 312C224, 325.25 234.75, 336 248, 336C261.25, 336 272, 325.25 272, 312C272, 298.74 261.25, 288 248, 288z" fill="#727272" fill-opacity="1" class="Black" />
  </g>
</svg>