<?xml version='1.0' encoding='UTF-8'?>
<svg viewBox="0 0 32 32" xmlns="http://www.w3.org/2000/svg">
  <g transform="matrix(0.0625, 0, 0, 0.0625, 0, 0)">
    <path d="M480, 160A128 128 0 0 0 352, 32C313.55, 32 279.46, 49.3 256, 76.14C232.54, 49.3 198.45, 32 160, 32A128 128 0 0 0 32, 160C32, 198.45 49.3, 232.54 76.14, 256C49.3, 279.46 32, 313.55 32, 352A128 128 0 0 0 160, 480C198.45, 480 232.54, 462.7 256, 435.86C279.46, 462.7 313.55, 480 352, 480A128 128 0 0 0 480, 352C480, 313.55 462.7, 279.46 435.86, 256C462.7, 232.54 480, 198.45 480, 160zM256, 336A80 80 0 1 1 336, 256A80 80 0 0 1 256, 336z" fill="#727272" fill-opacity="1" class="Black" />
  </g>
</svg>