<?xml version='1.0' encoding='UTF-8'?>
<svg viewBox="-1.9974 -1.9999 31.995 32" xmlns="http://www.w3.org/2000/svg">
  <g transform="matrix(0.0547, 0, 0, 0.0547, 0, 0)">
    <path d="M495.87, 320L448.61, 320C385.61, 320 328.79, 342.23 288, 377.92L288, 256A128 128 0 0 0 416, 128L416, 32L336, 80L257.14, 0L176, 80L96, 32L96, 128A128 128 0 0 0 224, 256L224, 377.92C183.21, 342.23 126.37, 320 63.39, 320L16.13, 320C6.94, 320 -0.87, 327.72 0.07, 336.84C10.06, 435 106.43, 512 223.83, 512L288.17, 512C405.57, 512 501.94, 435 511.93, 336.84C512.85, 327.72 505.06, 320 495.87, 320z" fill="#727272" fill-opacity="1" class="Black" />
  </g>
</svg>