<?xml version='1.0' encoding='UTF-8'?>
<svg viewBox="-1.9999 -1.549 31.9975 32" xmlns="http://www.w3.org/2000/svg">
  <g transform="matrix(0.999, 0, 0, 0.999, 0, 0)">
    <g transform="matrix(0.0565, 0, 0, 0.0565, 0, 0)">
      <path d="M344, 200C330.7, 200 320, 210.7 320, 224C320, 237.3 330.7, 248 344, 248C357.3, 248 368, 237.3 368, 224C368, 210.7 357.3, 200 344, 200zM152, 200C138.7, 200 128, 210.7 128, 224C128, 237.3 138.7, 248 152, 248C165.3, 248 176, 237.3 176, 224C176, 210.7 165.3, 200 152, 200zM248, 8C111, 8 0, 119 0, 256C0, 393 111, 504 248, 504C385, 504 496, 393 496, 256C496, 119 385, 8 248, 8zM80, 224C80, 184.2 112.2, 152 152, 152C191.8, 152 224, 184.2 224, 224C224, 263.8 191.8, 296 152, 296C112.2, 296 80, 263.8 80, 224zM312, 400L184, 400C162.8, 400 162.8, 368 184, 368L312, 368C333.2, 368 333.2, 400 312, 400zM344, 296C304.2, 296 272, 263.8 272, 224C272, 184.2 304.2, 152 344, 152C383.8, 152 416, 184.2 416, 224C416, 263.8 383.8, 296 344, 296z" fill="#727272" fill-opacity="1" class="Black" />
    </g>
  </g>
</svg>