<?xml version='1.0' encoding='UTF-8'?>
<svg viewBox="-2 0 32 32" xmlns="http://www.w3.org/2000/svg">
  <g transform="matrix(0.0625, 0, 0, 0.0625, 0, 0)">
    <path d="M368, 32L80, 32A80.09 80.09 0 0 0 0, 112L0, 400A80.09 80.09 0 0 0 80, 480L368, 480A80.09 80.09 0 0 0 448, 400L448, 112A80.09 80.09 0 0 0 368, 32zM116.69, 171.31A16 16 0 0 1 139.31, 148.69L224, 233.37L308.69, 148.69A16 16 0 0 1 331.31, 171.31L240, 262.62L240, 352A16 16 0 0 1 208, 352L208, 262.62zM128, 240A80 80 0 1 1 208, 160A78.66 78.66 0 0 1 206.89, 171L161.94, 126A48 48 0 0 0 94.06, 193.88L139.06, 238.83A78.66 78.66 0 0 1 128, 240zM224, 432A79.76 79.76 0 0 1 176, 288.36L176, 352A48 48 0 0 0 272, 352L272, 288.36A79.76 79.76 0 0 1 224, 432zM320, 240A78.66 78.66 0 0 1 309, 238.89L354, 193.94A48 48 0 0 0 286.12, 126.06L241.17, 171.06A78.66 78.66 0 0 1 240, 160A80 80 0 1 1 320, 240z" fill="#727272" fill-opacity="1" class="Black" />
  </g>
</svg>