<?xml version='1.0' encoding='UTF-8'?>
<svg viewBox="-2 -4.7992 32 32" xmlns="http://www.w3.org/2000/svg">
  <g transform="matrix(0.9988, 0, 0, 0.9988, 0, 0)">
    <g transform="matrix(0.0438, 0, 0, 0.0438, 0, 0)">
      <path d="M160, 320L480, 320C533, 320 576, 277 576, 224C576, 171 533, 128 480, 128C479.4, 128 478.9, 128.2 478.4, 128.2C479.5, 123 480, 117.6 480, 112C480, 67.8 444.2, 32 400, 32C375.4, 32 353.7, 43.3 339, 60.8C320.4, 24.8 283.3, 0 240, 0C178.1, 0 128, 50.1 128, 112C128, 119.3 128.8, 126.3 130.1, 133.2C91.8, 145.8 64, 181.5 64, 224C64, 277 107, 320 160, 320zM208, 464L80, 464C71.2, 464 64, 471.2 64, 480L64, 496C64, 504.8 71.2, 512 80, 512L208, 512C216.8, 512 224, 504.8 224, 496L224, 480C224, 471.2 216.8, 464 208, 464zM624, 464L288, 464C279.2, 464 272, 471.2 272, 480L272, 496C272, 504.8 279.2, 512 288, 512L624, 512C632.8, 512 640, 504.8 640, 496L640, 480C640, 471.2 632.8, 464 624, 464zM576, 408L576, 392C576, 383.2 568.8, 376 560, 376L16, 376C7.2, 376 0, 383.2 0, 392L0, 408C0, 416.8 7.2, 424 16, 424L560, 424C568.8, 424 576, 416.8 576, 408z" fill="#727272" fill-opacity="1" class="Black" />
    </g>
  </g>
</svg>