<?xml version='1.0' encoding='UTF-8'?>
<svg viewBox="-2 -1.9988 32 32" xmlns="http://www.w3.org/2000/svg">
  <g transform="matrix(0.0547, 0, 0, 0.0547, 0, 0)">
    <path d="M464, 128L272, 128L208, 64L48, 64C21.49, 64 0, 85.49 0, 112L0, 400C0, 426.51 21.49, 448 48, 448L464, 448C490.51, 448 512, 426.51 512, 400L512, 176C512, 149.49 490.51, 128 464, 128zM340.85, 338.91C347.1, 345.16 347.1, 355.29 340.85, 361.54L329.54, 372.85C323.29, 379.1 313.16, 379.1 306.91, 372.85L256, 321.94L205.09, 372.85C198.84, 379.1 188.71, 379.1 182.46, 372.85L171.15, 361.54C164.9, 355.29 164.9, 345.16 171.15, 338.91L222.06, 288L171.15, 237.09C164.9, 230.84 164.9, 220.71 171.15, 214.46L182.46, 203.15C188.71, 196.9 198.84, 196.9 205.09, 203.15L256, 254.06L306.91, 203.15C313.16, 196.9 323.29, 196.9 329.54, 203.15L340.85, 214.46C347.1, 220.71 347.1, 230.84 340.85, 237.09L289.94, 288L340.85, 338.91z" fill="#727272" fill-opacity="1" class="Black" />
  </g>
</svg>