<?xml version='1.0' encoding='UTF-8'?>
<svg viewBox="-2 -3.554 32 32" xmlns="http://www.w3.org/2000/svg">
  <g transform="matrix(0.0486, 0, 0, 0.0486, 0, 0)">
    <path d="M572.694, 292.093L500.27, 416.248A63.997 63.997 0 0 1 444.989, 448L45.025, 448C26.502, 448 14.961, 427.907 24.294, 411.907L96.718, 287.752A64 64 0 0 1 152, 256L551.964, 256C570.487, 256 582.028, 276.093 572.694, 292.093zM152, 224L480, 224L480, 176C480, 149.49 458.51, 128 432, 128L272, 128L208, 64L48, 64C21.49, 64 0, 85.49 0, 112L0, 390.046L69.077, 271.628C86.214, 242.25 117.989, 224 152, 224z" fill="#727272" fill-opacity="1" class="Black" />
  </g>
</svg>