<?xml version='1.0' encoding='UTF-8'?>
<svg viewBox="-2 -1.9988 32 32" xmlns="http://www.w3.org/2000/svg">
  <g transform="matrix(0.0547, 0, 0, 0.0547, 0, 0)">
    <path d="M464, 128L272, 128L208, 64L48, 64C21.49, 64 0, 85.49 0, 112L0, 400C0, 426.51 21.49, 448 48, 448L464, 448C490.51, 448 512, 426.51 512, 400L512, 176C512, 149.49 490.51, 128 464, 128zM368, 296C368, 304.84 360.84, 312 352, 312L280, 312L280, 384C280, 392.84 272.84, 400 264, 400L248, 400C239.16, 400 232, 392.84 232, 384L232, 312L160, 312C151.16, 312 144, 304.84 144, 296L144, 280C144, 271.16 151.16, 264 160, 264L232, 264L232, 192C232, 183.16 239.16, 176 248, 176L264, 176C272.84, 176 280, 183.16 280, 192L280, 264L352, 264C360.84, 264 368, 271.16 368, 280L368, 296z" fill="#727272" fill-opacity="1" class="Black" />
  </g>
</svg>