<?xml version='1.0' encoding='UTF-8'?>
<svg viewBox="-1.9998 -3.5563 31.9975 32" xmlns="http://www.w3.org/2000/svg">
  <g transform="matrix(0.0486, 0, 0, 0.0486, 0, 0)">
    <path d="M544, 32L432, 32L400, 0L320, 0A32 32 0 0 0 288, 32L288, 192A32 32 0 0 0 320, 224L544, 224A32 32 0 0 0 576, 192L576, 64A32 32 0 0 0 544, 32zM544, 320L432, 320L400, 288L320, 288A32 32 0 0 0 288, 320L288, 480A32 32 0 0 0 320, 512L544, 512A32 32 0 0 0 576, 480L576, 352A32 32 0 0 0 544, 320zM64, 16A16 16 0 0 0 48, 0L16, 0A16 16 0 0 0 0, 16L0, 416A32 32 0 0 0 32, 448L256, 448L256, 384L64, 384L64, 160L256, 160L256, 96L64, 96z" fill="#727272" fill-opacity="1" class="Black" />
  </g>
</svg>