<?xml version='1.0' encoding='UTF-8'?>
<svg viewBox="-1.995 -2.215 32 32" xmlns="http://www.w3.org/2000/svg">
  <g transform="matrix(0.0547, 0, 0, 0.0547, 0, 0)">
    <path d="M480, 320L355.5, 320L340.3, 244L477.1, 226.2C486.1, 225 492.7, 216.4 491, 207.5C466.2, 82.6 347.9, -8.6 211.9, 10.6C104.6, 25.7 17.8, 112.6 2.6, 219.9C-7.6, 292 13.3, 359 53.7, 409.9C56.8, 413.8 61.5, 416 66.5, 416L120, 416L205.7, 461C230.9, 473.6 261.4, 468.7 281.4, 448.7C317.6, 412.5 292.3, 366.8 286.4, 352L329.3, 352L338.8, 399.3C348.3, 446.7 386.8, 484.6 434.7, 490.6C478.7, 496.1 477.2, 496 480, 496C502.5, 496 512, 476.3 512, 464L512, 352C512, 334.3 497.7, 320 480, 320zM176, 360C162.7, 360 152, 349.3 152, 336C152, 322.7 162.7, 312 176, 312C189.3, 312 200, 322.7 200, 336C200, 349.3 189.3, 360 176, 360zM273.6, 320L263.3, 294.3C255.5, 274.9 268.2, 253.4 288.9, 250.7L308.5, 248.1L322.9, 320L273.6, 320zM480, 464L438.7, 458.8C412.8, 455.6 390.7, 440.1 378.6, 418.1L480, 418.1L480, 464zM480, 384L368.3, 384L361.9, 352L480, 352L480, 384z" fill="#727272" fill-opacity="1" class="Black" />
  </g>
</svg>