<?xml version='1.0' encoding='UTF-8'?>
<svg viewBox="-2 -4.7992 32 32" xmlns="http://www.w3.org/2000/svg">
  <g transform="matrix(0.9988, 0, 0, 0.9988, 0, 0)">
    <g transform="matrix(0.0438, 0, 0, 0.0438, 0, 0)">
      <path d="M624, 384L544, 384L544, 16C544, 7.2 536.8, 0 528, 0L496, 0C487.2, 0 480, 7.2 480, 16L480, 432C480, 440.8 487.2, 448 496, 448L624, 448C632.8, 448 640, 440.8 640, 432L640, 400C640, 391.2 632.8, 384 624, 384zM416, 237.1C416, 228.4 414.2, 219.9 410.8, 211.9L332.5, 29.1C324.9, 11.4 307.6, 0 288.3, 0L144, 0C117.5, 0 96, 21.5 96, 48L96, 160L48, 160C21.5, 160 0, 181.5 0, 208L0, 416C0, 469 43, 512 96, 512C149, 512 192, 469 192, 416L256, 416C256, 469 299, 512 352, 512C405, 512 448, 469 448, 416C448, 387.7 435.5, 362.5 416, 344.9L416, 237.1zM96, 464C69.5, 464 48, 442.5 48, 416C48, 389.5 69.5, 368 96, 368C122.5, 368 144, 389.5 144, 416C144, 442.5 122.5, 464 96, 464zM256, 256L160, 160L160, 64L277.8, 64L352, 237.1L352, 256L256, 256zM352, 464C325.5, 464 304, 442.5 304, 416C304, 389.5 325.5, 368 352, 368C378.5, 368 400, 389.5 400, 416C400, 442.5 378.5, 464 352, 464z" fill="#727272" fill-opacity="1" class="Black" />
    </g>
  </g>
</svg>