<?xml version='1.0' encoding='UTF-8'?>
<svg viewBox="-2 -3.554 32 32" xmlns="http://www.w3.org/2000/svg">
  <g transform="matrix(0.0486, 0, 0, 0.0486, 0, 0)">
    <path d="M446.53, 97.43C439.67, 60.23 407.19, 32 368, 32C328.77, 32 296.28, 60.29 289.46, 97.54C126.75, 112.96 -0.5, 250.12 0, 416.98C0.11, 451.9 29.08, 480 64, 480L368, 480C376.84, 480 384, 472.84 384, 464C384, 446.33 369.67, 432 352, 432L272.51, 432L308.31, 383.67C332.45, 347.44 318.66, 295.39 274.6, 277.07C250.71, 267.14 223.05, 272.42 202.36, 287.95L169.6, 312.54C162.54, 317.85 152.51, 316.45 147.19, 309.35C141.89, 302.27 143.31, 292.24 150.38, 286.94L185.16, 260.85C222, 233.19 273.44, 233.23 310.29, 260.85C321.16, 269 356.16, 299.91 351.09, 354.06L469.62, 480L560, 480C568.84, 480 576, 472.84 576, 464C576, 446.33 561.67, 432 544, 432L490.37, 432L391.85, 327.32L546.29, 240.67A58.16 58.16 0 0 0 576, 189.94C576, 168.54 564.28, 148.99 545.52, 138.71C504.96, 116.49 446.53, 97.43 446.53, 97.43zM368, 136C354.74, 136 344, 125.25 344, 112C344, 98.74 354.74, 88 368, 88C381.25, 88 392, 98.74 392, 112C392, 125.25 381.25, 136 368, 136z" fill="#727272" fill-opacity="1" class="Black" />
  </g>
</svg>