<?xml version='1.0' encoding='UTF-8'?>
<svg viewBox="-1.9999 -1.549 31.9975 32" xmlns="http://www.w3.org/2000/svg">
  <g transform="matrix(0.999, 0, 0, 0.999, 0, 0)">
    <g transform="matrix(0.0565, 0, 0, 0.0565, 0, 0)">
      <path d="M248, 8C111, 8 0, 119 0, 256C0, 393 111, 504 248, 504C385, 504 496, 393 496, 256C496, 119 385, 8 248, 8zM328, 176C345.7, 176 360, 190.3 360, 208C360, 225.7 345.7, 240 328, 240C310.3, 240 296, 225.7 296, 208C296, 190.3 310.3, 176 328, 176zM168, 176C185.7, 176 200, 190.3 200, 208C200, 225.7 185.7, 240 168, 240C150.3, 240 136, 225.7 136, 208C136, 190.3 150.3, 176 168, 176zM338.2, 394.2C315.8, 367.4 282.9, 352 248, 352C213.1, 352 180.2, 367.4 157.8, 394.2C144.3, 410.5 119.7, 390 133.2, 373.7C161.7, 339.6 203.6, 320 248, 320C292.4, 320 334.3, 339.6 362.7, 373.8C376.3, 390 351.7, 410.5 338.2, 394.2z" fill="#727272" fill-opacity="1" class="Black" />
    </g>
  </g>
</svg>