<?xml version='1.0' encoding='UTF-8'?>
<svg viewBox="-1.5477 -1.5477 32 32" xmlns="http://www.w3.org/2000/svg">
  <g transform="matrix(0.9991, 0, 0, 0.9991, 0, 0)">
    <g transform="matrix(0.0565, 0, 0, 0.0565, 0, 0)">
      <path d="M504, 256C504, 392.967 392.967, 504 256, 504C119.033, 504 8, 392.967 8, 256C8, 119.033 119.033, 8 256, 8C392.967, 8 504, 119.033 504, 256zM456, 256L455.997, 255.718L429.933, 278.459L367.254, 219.959L383.708, 135.604L418.011, 138.676C393.122, 104.46 358.007, 78.587 317.302, 65.535L330.953, 97.474L256, 139L181.047, 97.475L194.698, 65.536C154.067, 78.564 118.918, 104.406 93.989, 138.677L128.554, 135.604L144.746, 219.959L82.068, 278.459L56.004, 255.718L56.001, 256C56.001, 299.015 69.498, 339.952 94.473, 373.991L102.177, 340.094L187.315, 350.541L223.616, 428.367L193.714, 446.153C233.916, 459.275 278.004, 459.301 318.286, 446.153L288.384, 428.367L324.685, 350.541L409.823, 340.094L417.527, 373.991C442.503, 339.952 456, 299.015 456, 256zM207.898, 325.571L178.004, 234.259L256, 177.732L333.996, 234.259L304.374, 325.571L207.898, 325.571z" fill="#727272" fill-opacity="1" class="Black" />
    </g>
  </g>
</svg>