<?xml version='1.0' encoding='UTF-8'?>
<svg viewBox="-5.499 -1.9999 31.9975 32" xmlns="http://www.w3.org/2000/svg">
  <g transform="matrix(0.0547, 0, 0, 0.0547, 0, 0)">
    <path d="M352, 0L32, 0A32 32 0 0 0 0, 32L0, 480A32 32 0 0 0 32, 512L288, 512A96 96 0 0 0 384, 416L384, 32A32 32 0 0 0 352, 0zM160, 344A8 8 0 0 1 152, 352L128, 352L128, 376A8 8 0 0 1 120, 384L104, 384A8 8 0 0 1 96, 376L96, 352L72, 352A8 8 0 0 1 64, 344L64, 328A8 8 0 0 1 72, 320L96, 320L96, 296A8 8 0 0 1 104, 288L120, 288A8 8 0 0 1 128, 296L128, 320L152, 320A8 8 0 0 1 160, 328zM232, 384A24 24 0 1 1 256, 360A24 24 0 0 1 232, 384zM112, 224A16 16 0 0 1 96, 208L96, 80A16 16 0 0 1 112, 64L272, 64A16 16 0 0 1 288, 80L288, 192A32 32 0 0 1 256, 224zM296, 336A24 24 0 1 1 320, 312A24 24 0 0 1 296, 336z" fill="#727272" fill-opacity="1" class="Black" />
  </g>
</svg>