<?xml version='1.0' encoding='UTF-8'?>
<svg viewBox="-2 -4.7992 32 32" xmlns="http://www.w3.org/2000/svg">
  <g transform="matrix(1.0011, 0, 0, 1.0011, 0, 0)">
    <g transform="matrix(0.0437, 0, 0, 0.0437, 0, 0)">
      <path d="M480.07, 96L160, 96A160 160 0 1 0 274.24, 368L365.76, 368A160 160 0 1 0 480.07, 96zM248, 268A12 12 0 0 1 236, 280L184, 280L184, 332A12 12 0 0 1 172, 344L148, 344A12 12 0 0 1 136, 332L136, 280L84, 280A12 12 0 0 1 72, 268L72, 244A12 12 0 0 1 84, 232L136, 232L136, 180A12 12 0 0 1 148, 168L172, 168A12 12 0 0 1 184, 180L184, 232L236, 232A12 12 0 0 1 248, 244zM464, 344A40 40 0 1 1 504, 304A40 40 0 0 1 464, 344zM528, 248A40 40 0 1 1 568, 208A40 40 0 0 1 528, 248z" fill="#727272" fill-opacity="1" class="Black" />
    </g>
  </g>
</svg>