<?xml version='1.0' encoding='UTF-8'?>
<svg viewBox="-2 -2 32 32" xmlns="http://www.w3.org/2000/svg">
  <g transform="matrix(0.0547, 0, 0, 0.0547, 0, 0)">
    <path d="M336, 448L16, 448C7.2, 448 0, 455.2 0, 464L0, 496C0, 504.8 7.2, 512 16, 512L336, 512C344.8, 512 352, 504.8 352, 496L352, 464C352, 455.2 344.8, 448 336, 448zM493.2, 107.3L412.2, 26.3C406, 20.1 395.8, 20.1 389.6, 26.3L378.3, 37.6C372.1, 43.8 372.1, 54 378.3, 60.2L416, 97.9L416, 160C416, 188.1 436.9, 211.3 464, 215.2L464, 376C464, 389.2 453.2, 400 440, 400C426.8, 400 416, 389.2 416, 376L416, 344C416, 295.4 376.6, 256 328, 256L320, 256L320, 64C320, 28.7 291.3, 0 256, 0L96, 0C60.7, 0 32, 28.7 32, 64L32, 416L320, 416L320, 304L328, 304C350.1, 304 368, 321.9 368, 344L368, 371.8C368, 409.5 395, 443.8 432.5, 447.7C475.5, 452 512, 418.2 512, 376L512, 152.6C512, 135.6 505.2, 119.3 493.2, 107.3zM256, 192L96, 192L96, 64L256, 64L256, 192z" fill="#727272" fill-opacity="1" class="Black" />
  </g>
</svg>