<?xml version='1.0' encoding='UTF-8'?>
<svg viewBox="-1.9988 -2 32 32" xmlns="http://www.w3.org/2000/svg">
  <g transform="matrix(0.0547, 0, 0, 0.0547, 0, 0)">
    <path d="M504.971, 199.362L482.344, 176.735C472.971, 167.362 457.775, 167.362 448.403, 176.735L442.746, 182.392L329.608, 69.255L335.265, 63.598C344.638, 54.225 344.638, 39.029 335.265, 29.657L312.638, 7.029C303.265, -2.344 288.069, -2.344 278.697, 7.029L154.246, 131.48C144.873, 140.853 144.873, 156.049 154.246, 165.421L176.873, 188.048C186.246, 197.421 201.442, 197.421 210.814, 188.048L216.471, 182.391L256.069, 221.989L175.029, 303.029L169.372, 297.372C156.875, 284.875 136.614, 284.875 124.117, 297.372L9.373, 412.118C-3.124, 424.615 -3.124, 444.876 9.373, 457.373L54.628, 502.628C67.125, 515.125 87.386, 515.125 99.883, 502.628L214.628, 387.883C227.125, 375.386 227.125, 355.125 214.628, 342.628L208.971, 336.971L290.011, 255.931L329.609, 295.529L323.952, 301.186C314.579, 310.559 314.579, 325.755 323.952, 335.127L346.579, 357.754C355.952, 367.127 371.148, 367.127 380.52, 357.754L504.971, 233.303C514.343, 223.931 514.343, 208.735 504.971, 199.362z" fill="#727272" fill-opacity="1" class="Black" />
  </g>
</svg>