<?xml version='1.0' encoding='UTF-8'?>
<svg viewBox="-1.9998 -3.5563 31.9975 32" xmlns="http://www.w3.org/2000/svg">
  <g transform="matrix(0.0486, 0, 0, 0.0486, 0, 0)">
    <path d="M485.5, 0L576, 160L474.9, 160L405.7, 0L485.5, 0zM357.5, 0L426.7, 160L149.3, 160L218.5, 0L357.5, 0zM90.5, 0L170.3, 0L101.1, 160L0, 160L90.5, 0zM0, 192L100.7, 192L223.7, 443.7C225.2, 446.8 221, 449.6 218.7, 447L0, 192zM148.2, 192L427.8, 192L290.8, 510.2C289.8, 512.6 286.3, 512.6 285.3, 510.2L148.2, 192zM352.3, 443.7L475.3, 192L576, 192L357.3, 446.9C355, 449.6 350.8, 446.8 352.3, 443.7z" fill="#727272" fill-opacity="1" class="Black" />
  </g>
</svg>