<?xml version='1.0' encoding='UTF-8'?>
<svg viewBox="-5.4994 -1.9975 32 32" xmlns="http://www.w3.org/2000/svg">
  <g transform="matrix(0.0547, 0, 0, 0.0547, 0, 0)">
    <path d="M186.1, 0.09C81.01, 3.24 0, 94.92 0, 200.05L0, 463.97C0, 478.23 17.23, 485.36 27.31, 475.28L52.23, 456.75C58.89, 451.8 68.23, 452.76 73.74, 458.96L116.69, 507.31C122.94, 513.56 133.07, 513.56 139.32, 507.31L180.04, 461.46C186.41, 454.29 197.6, 454.29 203.96, 461.46L244.68, 507.31C250.93, 513.56 261.06, 513.56 267.31, 507.31L310.26, 458.96C315.77, 452.76 325.11, 451.79 331.77, 456.75L356.69, 475.28C366.77, 485.36 384, 478.22 384, 463.97L384, 192C384, 84 294.83, -3.17 186.1, 0.09zM128, 224C110.33, 224 96, 209.67 96, 192C96, 174.33 110.33, 160 128, 160C145.67, 160 160, 174.33 160, 192C160, 209.67 145.67, 224 128, 224zM256, 224C238.33, 224 224, 209.67 224, 192C224, 174.33 238.33, 160 256, 160C273.67, 160 288, 174.33 288, 192C288, 209.67 273.67, 224 256, 224z" fill="#727272" fill-opacity="1" class="Black" />
  </g>
</svg>