<?xml version='1.0' encoding='UTF-8'?>
<svg viewBox="-4.6229 -1.9999 31.9975 32" xmlns="http://www.w3.org/2000/svg">
  <g transform="matrix(0.0547, 0, 0, 0.0547, 0, 0)">
    <path d="M322.2, 304L352, 304C390.9, 304 421.6, 269.3 415.1, 229.2C410, 197.7 380.4, 176 348.6, 176L282.7, 176C275.6, 176 272.2, 167.6 277.2, 162.5C298, 140.9 308.8, 109.7 302.1, 76.2C294.6, 38.7 263.6, 8.4 226.1, 1.6C165, -9.4 112, 37.1 112, 96C112, 121.7 122.2, 145.1 138.7, 162.3C143.7, 167.5 140.4, 176 133.2, 176L67.4, 176C35.5, 176 6, 197.8 0.9, 229.2C-5.6, 269.3 25.1, 304 64, 304L93.8, 304C103.9, 304 112, 312.2 112, 322.2C112, 326.5 110.5, 330.6 107.8, 333.9L49.6, 403.7C26.3, 431.6 28, 476.1 56.7, 498.4C68.3, 507.6 82.2, 512 96, 512C114.3, 512 132.5, 504.2 145.2, 489L183.5, 443.1C196.3, 427.7 219.9, 427.7 232.7, 443.1L271, 489C283.7, 504.2 301.8, 512 320.2, 512C334, 512 347.9, 507.6 359.5, 498.5C388.2, 476.1 389.9, 431.7 366.6, 403.8L308.4, 334C305.7, 330.7 304.2, 326.6 304.2, 322.3C304, 312.2 312.2, 304 322.2, 304zM176, 96C167.2, 96 160, 88.8 160, 80C160, 71.2 167.2, 64 176, 64C184.8, 64 192, 71.2 192, 80C192, 88.8 184.8, 96 176, 96zM208, 368C199.2, 368 192, 360.8 192, 352C192, 343.2 199.2, 336 208, 336C216.8, 336 224, 343.2 224, 352C224, 360.8 216.8, 368 208, 368zM208, 304C199.2, 304 192, 296.8 192, 288C192, 279.2 199.2, 272 208, 272C216.8, 272 224, 279.2 224, 288C224, 296.8 216.8, 304 208, 304zM208, 240C199.2, 240 192, 232.8 192, 224C192, 215.2 199.2, 208 208, 208C216.8, 208 224, 215.2 224, 224C224, 232.8 216.8, 240 208, 240zM240, 96C231.2, 96 224, 88.8 224, 80C224, 71.2 231.2, 64 240, 64C248.8, 64 256, 71.2 256, 80C256, 88.8 248.8, 96 240, 96z" fill="#727272" fill-opacity="1" class="Black" />
  </g>
</svg>