<?xml version='1.0' encoding='UTF-8'?>
<svg viewBox="-2 -3.554 32 32" xmlns="http://www.w3.org/2000/svg">
  <g transform="matrix(0.0486, 0, 0, 0.0486, 0, 0)">
    <path d="M560.51, 225.9L528.75, 98.64C522.05, 71.78 495.01, 32 443.33, 32C427.7, 32 420.3, 34.94 400.31, 41.6C391.92, 44.39 387.39, 53.46 390.19, 61.84L395.25, 77.02C397.49, 83.72 403.73, 87.96 410.43, 87.96C413.97, 87.96 415.25, 87.22 428.66, 82.75C454.73, 74.07 476.86, 88.88 482.19, 110.29L511.86, 228.97C490.97, 215.88 466.47, 208 440, 208C384.91, 208 337.73, 240.91 316.35, 288L259.65, 288C238.27, 240.91 191.09, 208 136, 208C109.53, 208 85.03, 215.88 64.14, 228.96L93.81, 110.28C99.13, 88.87 121.27, 74.06 147.34, 82.74C160.76, 87.21 162.04, 87.95 165.57, 87.95C172.27, 87.95 178.51, 83.71 180.75, 77.01L185.81, 61.83C188.61, 53.45 184.08, 44.38 175.69, 41.59C155.7, 34.94 148.3, 32 132.67, 32C81, 32 53.95, 71.78 47.25, 98.64L15.49, 225.9C2.16, 279.34 0, 300.12 0, 344C0, 419.11 60.89, 480 136, 480C208.37, 480 266.97, 423.31 271.19, 352L304.8, 352C309.02, 423.31 367.62, 480 439.99, 480C515.1, 480 575.99, 419.11 575.99, 344C576, 300.12 573.84, 279.34 560.51, 225.9zM136, 416C96.3, 416 64, 383.7 64, 344C64, 304.3 96.3, 272 136, 272C175.7, 272 208, 304.3 208, 344C208, 383.7 175.7, 416 136, 416zM440, 416C400.3, 416 368, 383.7 368, 344C368, 304.3 400.3, 272 440, 272C479.7, 272 512, 304.3 512, 344C512, 383.7 479.7, 416 440, 416z" fill="#727272" fill-opacity="1" class="Black" />
  </g>
</svg>