<?xml version='1.0' encoding='UTF-8'?>
<svg viewBox="-1.9988 -2 32 32" xmlns="http://www.w3.org/2000/svg">
  <g transform="matrix(0.0547, 0, 0, 0.0547, 0, 0)">
    <path d="M502.05, 57.6C523.3, 36.34 508.25, 0 478.2, 0L33.8, 0C3.75, 0 -11.3, 36.34 9.95, 57.6L224, 271.64L224, 464L168, 464C145.91, 464 128, 481.91 128, 504C128, 508.42 131.58, 512 136, 512L376, 512C380.42, 512 384, 508.42 384, 504C384, 481.91 366.09, 464 344, 464L288, 464L288, 271.64L502.05, 57.6zM443.77, 48L395.77, 96L116.24, 96L68.24, 48L443.77, 48z" fill="#727272" fill-opacity="1" class="Black" />
  </g>
</svg>