<?xml version='1.0' encoding='UTF-8'?>
<svg viewBox="-2 -2 32 32" xmlns="http://www.w3.org/2000/svg">
  <g transform="matrix(0.0547, 0, 0, 0.0547, 0, 0)">
    <path d="M368, 0C305.39, 0 252.65, 40.2 232.82, 96L285.36, 96C302, 67.45 332.63, 48 368, 48A96.11 96.11 0 0 1 464, 144C464, 194.07 425.33, 234.84 376.37, 239.15L371.53, 287.64C449.39, 285.73 512, 222.32 512, 144A144 144 0 0 0 368, 0zM320, 128L32, 128A32 32 0 0 0 0.16, 163.18L32.16, 483.18A32 32 0 0 0 64, 512L288, 512A32 32 0 0 0 319.84, 483.18L351.84, 163.18A32 32 0 0 0 320, 128zM278.24, 256L73.76, 256L67.36, 192L284.64, 192z" fill="#727272" fill-opacity="1" class="Black" />
  </g>
</svg>