<?xml version='1.0' encoding='UTF-8'?>
<svg viewBox="-2 -3.5552 32 32" xmlns="http://www.w3.org/2000/svg">
  <g transform="matrix(0.0486, 0, 0, 0.0486, 0, 0)">
    <path d="M574.1, 280.37L528.75, 98.66C522.84, 74.96 507.16, 54.61 485.75, 42.85C464.31, 31.12 438.78, 28.74 415.56, 36.52L400.31, 41.6C391.92, 44.39 387.39, 53.46 390.19, 61.84L395.25, 77.02C398.04, 85.4 407.1, 89.93 415.48, 87.14L428.66, 82.75C439.53, 79.13 451.66, 79.18 461.82, 84.48C472.11, 89.85 479.39, 99.04 482.19, 110.3L520.65, 264.12C498.46, 257.31 470.86, 251.66 439.45, 251.66C404.68, 251.66 365.47, 258.68 324.6, 278.4L251.42, 278.4C210.55, 258.66 171.34, 251.65 136.56, 251.65C105.14, 251.65 77.54, 257.3 55.35, 264.11L93.81, 110.28C96.6, 99.03 103.9, 89.83 114.19, 84.47C124.35, 79.17 136.47, 79.12 147.34, 82.74L160.51, 87.13C168.89, 89.92 177.95, 85.39 180.74, 77.01L185.8, 61.83C188.6, 53.45 184.07, 44.38 175.68, 41.59L160.43, 36.51C137.21, 28.73 111.68, 31.1 90.24, 42.84C68.83, 54.61 53.15, 74.95 47.24, 98.64L1.9, 280.37A64.218 64.218 0 0 0 0, 295.86L0, 366.11C0, 429.01 51.58, 480 115.2, 480L152.32, 480C212.6, 480 262.69, 434.06 267.2, 374.63L270.13, 336L305.88, 336L308.81, 374.63C313.31, 434.06 363.4, 480 423.68, 480L460.8, 480C524.42, 480 576, 429.01 576, 366.12L576, 295.87C576, 290.64 575.36, 285.44 574.1, 280.37zM203.38, 369.79C201.41, 395.7 178.98, 416 152.32, 416L115.2, 416C86.97, 416 64, 393.62 64, 366.11L64, 328.57C82.12, 322.08 107.42, 315.65 136.58, 315.65C160.44, 315.65 183.84, 319.98 206.51, 328.57L203.38, 369.79zM512, 366.12C512, 393.63 489.03, 416 460.8, 416L423.68, 416C397.01, 416 374.58, 395.7 372.62, 369.79L369.49, 328.57C392.16, 319.98 415.57, 315.65 439.44, 315.65C468.56, 315.65 493.87, 322.09 511.99, 328.58L511.99, 366.12z" fill="#727272" fill-opacity="1" class="Black" />
  </g>
</svg>