<?xml version='1.0' encoding='UTF-8'?>
<svg viewBox="-1.9999 -1.549 31.9975 32" xmlns="http://www.w3.org/2000/svg">
  <g transform="matrix(0.999, 0, 0, 0.999, 0, 0)">
    <g transform="matrix(0.0565, 0, 0, 0.0565, 0, 0)">
      <path d="M248, 8C111.03, 8 0, 119.03 0, 256C0, 392.97 111.03, 504 248, 504C384.97, 504 496, 392.97 496, 256C496, 119.03 384.97, 8 248, 8zM408, 223.5L408, 230.43C408, 236.3 404.68, 241.67 399.43, 244.29L384.04, 251.99A15.485 15.485 0 0 1 368.51, 251.02L350.3, 238.88A15.52 15.52 0 0 0 336.8, 237.07L334.15, 237.95C324.45, 241.18 320.49, 252.74 326.16, 261.25L339.4, 281.11C342.27, 285.42 347.11, 288.01 352.29, 288.01L360.5, 288.01C369.06, 288.01 376, 294.95 376, 303.51L376, 314.85C376, 318.2 374.91, 321.47 372.9, 324.15L354.16, 349.13C352.74, 351.03 351.77, 353.23 351.33, 355.56L347.03, 378.39C346.41, 381.68 344.74, 384.68 342.27, 386.95A159.608 159.608 0 0 0 317.27, 416.11L304.24, 435.66A27.756 27.756 0 0 1 281.15, 448.02C270.64, 448.02 261.03, 442.08 256.33, 432.68A78.902 78.902 0 0 1 248, 397.39L248, 367.5C248, 358.94 241.06, 352 232.5, 352L206.62, 352C192.13, 352 178.24, 346.24 167.99, 336A54.659 54.659 0 0 1 151.99, 297.37L151.99, 283.31C151.99, 266.12 160.09, 249.93 173.84, 239.61L201.42, 218.92A54.663 54.663 0 0 1 234.2, 207.99L235.09, 207.99C243.57, 207.99 251.94, 209.96 259.52, 213.76L274.24, 221.12C277.92, 222.96 282.17, 223.26 286.07, 221.96L333.38, 206.19C339.71, 204.08 343.98, 198.16 343.98, 191.49C343.98, 182.93 337.04, 175.99 328.48, 175.99L318.39, 175.99C314.28, 175.99 310.34, 174.36 307.43, 171.45L300.51, 164.53A15.493 15.493 0 0 0 289.55, 159.99L199.5, 159.99C190.94, 159.99 184, 153.05 184, 144.49L184, 140.09C184, 132.98 188.84, 126.78 195.74, 125.05L210.19, 121.44C213.93, 120.5 217.19, 118.21 219.33, 115L227.41, 102.89C230.28, 98.58 235.12, 95.99 240.3, 95.99L264.51, 95.99C273.07, 95.99 280.01, 89.05 280.01, 80.49L280.01, 58.79C359.23, 71.63 422.86, 131.02 441.93, 208L423.5, 208C414.94, 208 408, 214.94 408, 223.5z" fill="#727272" fill-opacity="1" class="Black" />
    </g>
  </g>
</svg>