<?xml version='1.0' encoding='UTF-8'?>
<svg viewBox="-3.7508 -2 32 32" xmlns="http://www.w3.org/2000/svg">
  <g transform="matrix(0.0547, 0, 0, 0.0547, 0, 0)">
    <path d="M321.14, 305.14C383.62, 242.66 383.62, 141.35 321.14, 78.87C258.66, 16.39 157.35, 16.39 94.87, 78.87C32.39, 141.35 32.39, 242.66 94.87, 305.14C157.35, 367.62 258.65, 367.62 321.14, 305.14zM348.12, 464L256.09, 464L256.09, 427.02C300.69, 418.01 343.23, 396.31 377.84, 361.71C463.09, 276.49 470.57, 143.27 400.75, 49.33L411.45, 38.63C417.7, 32.38 417.7, 22.25 411.45, 16L400.14, 4.69C393.89, -1.56 383.76, -1.56 377.5, 4.69L334.47, 47.7C337.65, 50.49 340.86, 53.22 343.88, 56.23C418.77, 131.09 418.77, 252.9 343.88, 327.76C307.61, 364.03 259.37, 384 208.07, 384C156.77, 384 108.54, 364.03 72.26, 327.76C69.19, 324.69 67.01, 321.11 64.19, 317.88L4.69, 377.38C-1.56, 383.63 -1.56, 393.76 4.69, 400.01L16, 411.31C22.25, 417.56 32.38, 417.56 38.64, 411.31L65.35, 384.61C103.13, 412.67 147.26, 428.21 192.07, 431.25L192.07, 464L100.04, 464C80.15, 464 64.03, 480.12 64.03, 500C64.03, 506.63 69.4, 512 76.03, 512L372.13, 512C378.76, 512 384.13, 506.63 384.13, 500C384.13, 480.12 368.01, 464 348.12, 464z" fill="#727272" fill-opacity="1" class="Black" />
  </g>
</svg>