<?xml version='1.0' encoding='UTF-8'?>
<svg viewBox="-2 -4.7992 32 32" xmlns="http://www.w3.org/2000/svg">
  <g transform="matrix(0.9988, 0, 0, 0.9988, 0, 0)">
    <g transform="matrix(0.0438, 0, 0, 0.0438, 0, 0)">
      <path d="M638.4, 29.9L424.3, 475.7C413.6, 497.9 391.2, 512 366.6, 512L64, 512C28.7, 512 0, 483.3 0, 448L0, 440L120, 440C124.4, 440 128, 436.4 128, 432L128, 400C128, 395.6 124.4, 392 120, 392L0, 392L0, 344L120, 344C124.4, 344 128, 340.4 128, 336L128, 304C128, 299.6 124.4, 296 120, 296L0, 296L0, 269.1C0, 229 36.4, 198.8 75.8, 206.2L465.5, 279.3L595.2, 9C599, 1 608.6, -2.3 616.6, 1.6L631, 8.5C638.9, 12.4 642.2, 22 638.4, 29.9z" fill="#727272" fill-opacity="1" class="Black" />
    </g>
  </g>
</svg>