<?xml version='1.0' encoding='UTF-8'?>
<svg viewBox="-1.9999 -1.549 31.9975 32" xmlns="http://www.w3.org/2000/svg">
  <g transform="matrix(0.999, 0, 0, 0.999, 0, 0)">
    <g transform="matrix(0.0565, 0, 0, 0.0565, 0, 0)">
      <path d="M248, 8C111, 8 0, 119 0, 256C0, 393 111, 504 248, 504C385, 504 496, 393 496, 256C496, 119 385, 8 248, 8zM144, 400L136, 400C118.3, 400 104, 385.7 104, 368L104, 360L144, 360L144, 400zM144, 344L104, 344L104, 336C104, 318.3 118.3, 304 136, 304L144, 304L144, 344zM136, 208C136, 190.3 150.3, 176 168, 176C185.7, 176 200, 190.3 200, 208C200, 225.7 185.7, 240 168, 240C150.3, 240 136, 225.7 136, 208zM208, 400L160, 400L160, 360L208, 360L208, 400zM208, 344L160, 344L160, 304L208, 304L208, 344zM272, 400L224, 400L224, 360L272, 360L272, 400zM272, 344L224, 344L224, 304L272, 304L272, 344zM336, 400L288, 400L288, 360L336, 360L336, 400zM336, 344L288, 344L288, 304L336, 304L336, 344zM328, 240C310.3, 240 296, 225.7 296, 208C296, 190.3 310.3, 176 328, 176C345.7, 176 360, 190.3 360, 208C360, 225.7 345.7, 240 328, 240zM392, 368C392, 385.7 377.7, 400 360, 400L352, 400L352, 360L392, 360L392, 368zM392, 344L352, 344L352, 304L360, 304C377.7, 304 392, 318.3 392, 336L392, 344z" fill="#727272" fill-opacity="1" class="Black" />
    </g>
  </g>
</svg>