<?xml version='1.0' encoding='UTF-8'?>
<svg viewBox="-2.2184 -1.5551 32 32" xmlns="http://www.w3.org/2000/svg">
  <g transform="matrix(0.9994, 0, 0, 0.9994, 0, 0)">
    <g transform="matrix(0.0556, 0, 0, 0.0556, 0, 0)">
      <path d="M248, 8C111, 8 0, 119 0, 256C0, 362.3 67, 452.7 161, 488C155.4, 475.8 152, 462.3 152, 448L152, 402.5C127.3, 386.3 108.5, 364.4 104.2, 338.7C102.2, 326.9 113.5, 317.2 124.9, 320.8C155.1, 330.5 200, 336 248, 336C296, 336 340.9, 330.5 371.1, 320.8C382.5, 317.2 393.7, 326.9 391.8, 338.7C387.5, 364.4 368.7, 386.3 344, 402.5L344, 448C344, 462.3 340.6, 475.8 335, 488C429, 452.7 496, 362.3 496, 256C496, 119 385, 8 248, 8zM168, 240C150.3, 240 136, 225.7 136, 208C136, 190.3 150.3, 176 168, 176C185.7, 176 200, 190.3 200, 208C200, 225.7 185.7, 240 168, 240zM328, 240C310.3, 240 296, 225.7 296, 208C296, 190.3 310.3, 176 328, 176C345.7, 176 360, 190.3 360, 208C360, 225.7 345.7, 240 328, 240zM293.1, 374.6C278.7, 368.1 262, 376.8 258.5, 392.2L256.7, 400C254.6, 409.2 241.5, 409.2 239.4, 400L237.6, 392.2C234.1, 376.8 217.4, 368.1 203, 374.6C202.1, 375 203.3, 374.4 184.1, 384L184.1, 447C184.1, 482.2 212.1, 511.5 247.2, 511.9C282.9, 512.4 312.1, 483.5 312.1, 447.9L312.1, 383.9C292.6, 374.3 293.9, 375 293.1, 374.6z" fill="#727272" fill-opacity="1" class="Black" />
    </g>
  </g>
</svg>