<?xml version='1.0' encoding='UTF-8'?>
<svg viewBox="-1.9999 -1.549 31.9975 32" xmlns="http://www.w3.org/2000/svg">
  <g transform="matrix(0.999, 0, 0, 0.999, 0, 0)">
    <g transform="matrix(0.0565, 0, 0, 0.0565, 0, 0)">
      <path d="M248, 8C111, 8 0, 119 0, 256C0, 393 111, 504 248, 504C385, 504 496, 393 496, 256C496, 119 385, 8 248, 8zM281.8, 197.7L361.8, 149.7C373.4, 142.8 385.8, 157.4 377.2, 167.7L343.6, 208L377.2, 248.3C385.9, 258.7 373.3, 273.1 361.8, 266.3L281.8, 218.3C274.1, 213.6 274.1, 202.4 281.8, 197.7zM118.8, 167.7C110.2, 157.4 122.6, 142.8 134.2, 149.7L214.2, 197.7C222, 202.4 222, 213.6 214.2, 218.3L134.2, 266.3C122.7, 273.1 110.2, 258.7 118.8, 248.3L152.4, 208L118.8, 167.7zM248, 432C187.4, 432 113.5, 393.7 104.2, 338.7C102.2, 326.8 113.6, 317.1 124.9, 320.8C155.1, 330.5 200, 336 248, 336C296, 336 340.9, 330.5 371.1, 320.8C382.6, 317.1 393.7, 327 391.8, 338.7C382.5, 393.7 308.6, 432 248, 432z" fill="#727272" fill-opacity="1" class="Black" />
    </g>
  </g>
</svg>