<?xml version='1.0' encoding='UTF-8'?>
<svg viewBox="-6 0 32 32" xmlns="http://www.w3.org/2000/svg">
  <g transform="matrix(0.0625, 0, 0, 0.0625, 0, 0)">
    <path d="M96, 32L32, 32C14.33, 32 0, 46.33 0, 64L0, 128C0, 145.67 14.33, 160 32, 160L96, 160C113.67, 160 128, 145.67 128, 128L128, 64C128, 46.33 113.67, 32 96, 32zM96, 192L32, 192C14.33, 192 0, 206.33 0, 224L0, 288C0, 305.67 14.33, 320 32, 320L96, 320C113.67, 320 128, 305.67 128, 288L128, 224C128, 206.33 113.67, 192 96, 192zM96, 352L32, 352C14.33, 352 0, 366.33 0, 384L0, 448C0, 465.67 14.33, 480 32, 480L96, 480C113.67, 480 128, 465.67 128, 448L128, 384C128, 366.33 113.67, 352 96, 352zM288, 32L224, 32C206.33, 32 192, 46.33 192, 64L192, 128C192, 145.67 206.33, 160 224, 160L288, 160C305.67, 160 320, 145.67 320, 128L320, 64C320, 46.33 305.67, 32 288, 32zM288, 192L224, 192C206.33, 192 192, 206.33 192, 224L192, 288C192, 305.67 206.33, 320 224, 320L288, 320C305.67, 320 320, 305.67 320, 288L320, 224C320, 206.33 305.67, 192 288, 192zM288, 352L224, 352C206.33, 352 192, 366.33 192, 384L192, 448C192, 465.67 206.33, 480 224, 480L288, 480C305.67, 480 320, 465.67 320, 448L320, 384C320, 366.33 305.67, 352 288, 352z" fill="#727272" fill-opacity="1" class="Black" />
  </g>
</svg>