<?xml version='1.0' encoding='UTF-8'?>
<svg viewBox="-2 -2 32 32" xmlns="http://www.w3.org/2000/svg">
  <g transform="matrix(0.0547, 0, 0, 0.0547, 0, 0)">
    <path d="M496, 288L16, 288C7.2, 288 0, 295.2 0, 304L0, 336C0, 344.8 7.2, 352 16, 352L496, 352C504.8, 352 512, 344.8 512, 336L512, 304C512, 295.2 504.8, 288 496, 288zM496, 160L16, 160C7.2, 160 0, 167.2 0, 176L0, 208C0, 216.8 7.2, 224 16, 224L496, 224C504.8, 224 512, 216.8 512, 208L512, 176C512, 167.2 504.8, 160 496, 160z" fill="#727272" fill-opacity="1" class="Black" />
  </g>
</svg>