<?xml version='1.0' encoding='UTF-8'?>
<svg viewBox="-2 0 32 32" xmlns="http://www.w3.org/2000/svg">
  <g transform="matrix(0.0625, 0, 0, 0.0625, 0, 0)">
    <path d="M96, 288L32, 288C14.33, 288 0, 302.33 0, 320L0, 384C0, 401.67 14.33, 416 32, 416L96, 416C113.67, 416 128, 401.67 128, 384L128, 320C128, 302.33 113.67, 288 96, 288zM256, 288L192, 288C174.33, 288 160, 302.33 160, 320L160, 384C160, 401.67 174.33, 416 192, 416L256, 416C273.67, 416 288, 401.67 288, 384L288, 320C288, 302.33 273.67, 288 256, 288zM416, 288L352, 288C334.33, 288 320, 302.33 320, 320L320, 384C320, 401.67 334.33, 416 352, 416L416, 416C433.67, 416 448, 401.67 448, 384L448, 320C448, 302.33 433.67, 288 416, 288zM96, 96L32, 96C14.33, 96 0, 110.33 0, 128L0, 192C0, 209.67 14.33, 224 32, 224L96, 224C113.67, 224 128, 209.67 128, 192L128, 128C128, 110.33 113.67, 96 96, 96zM256, 96L192, 96C174.33, 96 160, 110.33 160, 128L160, 192C160, 209.67 174.33, 224 192, 224L256, 224C273.67, 224 288, 209.67 288, 192L288, 128C288, 110.33 273.67, 96 256, 96zM416, 96L352, 96C334.33, 96 320, 110.33 320, 128L320, 192C320, 209.67 334.33, 224 352, 224L416, 224C433.67, 224 448, 209.67 448, 192L448, 128C448, 110.33 433.67, 96 416, 96z" fill="#727272" fill-opacity="1" class="Black" />
  </g>
</svg>