<?xml version='1.0' encoding='UTF-8'?>
<svg viewBox="-8.9981 -2 32 32" xmlns="http://www.w3.org/2000/svg">
  <g transform="matrix(0.0547, 0, 0, 0.0547, 0, 0)">
    <path d="M96, 496L96, 16C96, 7.2 88.8, 0 80, 0L48, 0C39.2, 0 32, 7.2 32, 16L32, 496C32, 504.8 39.2, 512 48, 512L80, 512C88.8, 512 96, 504.8 96, 496zM224, 496L224, 16C224, 7.2 216.8, 0 208, 0L176, 0C167.2, 0 160, 7.2 160, 16L160, 496C160, 504.8 167.2, 512 176, 512L208, 512C216.8, 512 224, 504.8 224, 496z" fill="#727272" fill-opacity="1" class="Black" />
  </g>
</svg>