<?xml version='1.0' encoding='UTF-8'?>
<svg viewBox="-1.9987 -2 32 32" xmlns="http://www.w3.org/2000/svg">
  <g transform="matrix(0.0547, 0, 0, 0.0547, 0, 0)">
    <path d="M502.63, 39L473, 9.37A32 32 0 0 0 427.74, 9.37L381.46, 55.7A35.14 35.14 0 0 0 372.93, 69.49L360.77, 106L284.51, 182.26C272.35, 173.5 259.01, 166.52 244.41, 163.12C210.96, 155.34 177.41, 162.24 154.53, 185.12A82.45 82.45 0 0 0 134.29, 218.59C128.29, 237.15 111.08, 251.28 92.14, 253.05C68.44, 255.32 46.41, 264.5 29.53, 281.49C-16.11, 327 -7.9, 409 47.58, 464.45C103.06, 519.9 185, 528 230.56, 482.52C247.56, 465.64 256.72, 443.62 259.01, 419.81C260.77, 400.96 274.9, 383.68 293.44, 377.67A82.6 82.6 0 0 0 326.92, 357.42C349.79, 334.54 356.66, 301.06 348.92, 267.67C345.53, 253.03 338.55, 239.67 329.76, 227.47L406, 151.23L442.48, 139.07A35.14 35.14 0 0 0 456.27, 130.54L502.6, 84.22A32 32 0 0 0 502.63, 39zM208, 352A48 48 0 1 1 256, 304A48 48 0 0 1 208, 352z" fill="#727272" fill-opacity="1" class="Black" />
  </g>
</svg>