<?xml version='1.0' encoding='UTF-8'?>
<svg viewBox="-2 0 32 32" xmlns="http://www.w3.org/2000/svg">
  <g transform="matrix(0.0625, 0, 0, 0.0625, 0, 0)">
    <path d="M448, 80L448, 432C448, 458.51 426.51, 480 400, 480L48, 480C21.49, 480 0, 458.51 0, 432L0, 80C0, 53.49 21.49, 32 48, 32L400, 32C426.51, 32 448, 53.49 448, 80zM336, 128L304, 128C295.163, 128 288, 135.163 288, 144L288, 224L160, 224L160, 144C160, 135.163 152.837, 128 144, 128L112, 128C103.163, 128 96, 135.163 96, 144L96, 368C96, 376.837 103.163, 384 112, 384L144, 384C152.837, 384 160, 376.837 160, 368L160, 288L288, 288L288, 368C288, 376.837 295.163, 384 304, 384L336, 384C344.837, 384 352, 376.837 352, 368L352, 144C352, 135.163 344.837, 128 336, 128z" fill="#727272" fill-opacity="1" class="Black" />
  </g>
</svg>