<?xml version='1.0' encoding='UTF-8'?>
<svg viewBox="-2 -3.554 32 32" xmlns="http://www.w3.org/2000/svg">
  <g transform="matrix(0.0486, 0, 0, 0.0486, 0, 0)">
    <path d="M560, 352L440.79, 352C457.79, 309.05 576, 285.43 576, 192.38C576, 132.55 528.33, 96 469.14, 96C425.31, 96 387.73, 117.38 365.72, 153A15.66 15.66 0 0 0 370.47, 174.4L398.73, 193A16.15 16.15 0 0 0 420.59, 189.17C431.36, 174.31 445.53, 163.17 464.44, 163.17C483.35, 163.17 502.66, 173.63 502.66, 197.01C502.66, 249.19 360.56, 270.22 360.56, 381.57A155.06 155.06 0 0 0 362.27, 402.23A15.94 15.94 0 0 0 378.14, 416L560, 416A16 16 0 0 0 576, 400L576, 368A16 16 0 0 0 560, 352zM304, 96L205.06, 96A13.06 13.06 0 0 0 192, 109.06L192, 146.94A13.06 13.06 0 0 0 205.06, 160L224, 160L224, 224L96, 224L96, 160L114.94, 160A13.06 13.06 0 0 0 128, 146.94L128, 112A16 16 0 0 0 112, 96L16, 96A16 16 0 0 0 0, 112L0, 146.94A13.06 13.06 0 0 0 13.06, 160L32, 160L32, 352L13.06, 352A13.06 13.06 0 0 0 0, 365.06L0, 400A16 16 0 0 0 16, 416L114.94, 416A13.06 13.06 0 0 0 128, 402.94L128, 365.06A13.06 13.06 0 0 0 114.94, 352L96, 352L96, 288L224, 288L224, 352L205.06, 352A13.06 13.06 0 0 0 192, 365.06L192, 400A16 16 0 0 0 208, 416L304, 416A16 16 0 0 0 320, 400L320, 365.06A13.06 13.06 0 0 0 306.94, 352L288, 352L288, 160L306.94, 160A13.06 13.06 0 0 0 320, 146.94L320, 112A16 16 0 0 0 304, 96z" fill="#727272" fill-opacity="1" class="Black" />
  </g>
</svg>