<?xml version='1.0' encoding='UTF-8'?>
<svg viewBox="-3.7469 -1.9999 31.9975 32" xmlns="http://www.w3.org/2000/svg">
  <g transform="matrix(0.0547, 0, 0, 0.0547, 0, 0)">
    <path d="M448, 240L448, 336C448, 339.084 447.644, 342.159 446.937, 345.162L414.937, 481.162C410.686, 499.23 394.562, 512 376, 512L168, 512A40.004 40.004 0 0 1 135.65, 495.527L7.653, 319.527C-5.34, 301.661 -1.39, 276.644 16.475, 263.651C34.342, 250.657 59.359, 254.608 72.352, 272.474L104, 315.992L104, 40C104, 17.909 121.908, 0 144, 0C166.092, 0 184, 17.909 184, 40L184, 240L192, 240L192, 200C192, 177.909 209.908, 160 232, 160C254.092, 160 272, 177.909 272, 200L272, 240L280, 240L280, 216C280, 193.909 297.908, 176 320, 176C342.092, 176 360, 193.909 360, 216L360, 240L368, 240C368, 217.909 385.908, 200 408, 200C430.092, 200 448, 217.909 448, 240zM192, 320L184, 320L184, 416L192, 416L192, 320zM280, 320L272, 320L272, 416L280, 416L280, 320zM368, 320L360, 320L360, 416L368, 416L368, 320z" fill="#727272" fill-opacity="1" class="Black" />
  </g>
</svg>