<?xml version='1.0' encoding='UTF-8'?>
<svg viewBox="-3.7492 -2 32 32" xmlns="http://www.w3.org/2000/svg">
  <g transform="matrix(0.0547, 0, 0, 0.0547, 0, 0)">
    <path d="M416, 112C398.4, 112 384, 126.4 384, 144L384, 216C384, 220.4 380.4, 224 376, 224L360, 224C355.6, 224 352, 220.4 352, 216L352, 64C352, 46.4 337.6, 32 320, 32C302.4, 32 288, 46.4 288, 64L288, 216C288, 220.4 284.4, 224 280, 224L264, 224C259.6, 224 256, 220.4 256, 216L256, 32C256, 14.4 241.6, 0 224, 0C206.4, 0 192, 14.4 192, 32L192, 216C192, 220.4 188.4, 224 184, 224L168, 224C163.6, 224 160, 220.4 160, 216L160, 64C160, 46.4 145.6, 32 128, 32C110.4, 32 96, 46.4 96, 64L96, 305L72.4, 272.5C59.4, 254.6 34.4, 250.7 16.5, 263.7C-1.4, 276.7 -5.3, 301.7 7.7, 319.6L133.3, 492.3C142.3, 504.7 156.8, 512.1 172.1, 512.1L369.7, 512.1C392, 512.1 411.3, 496.8 416.4, 475.1L442.9, 362.4C446.1, 348.7 447.8, 334.1 448, 320.1L448, 144C448, 126.4 433.6, 112 416, 112zM353.1, 373.2L280.5, 444.6C275.8, 449.2 268.2, 449.2 263.5, 444.6L190.9, 373.2C169.8, 352.5 171.1, 318.1 194.6, 299C215.1, 282.3 245.7, 285.3 264.6, 303.8L272, 311.1L279.4, 303.8C298.2, 285.3 328.8, 282.3 349.4, 299C372.9, 318.1 374.1, 352.4 353.1, 373.2z" fill="#727272" fill-opacity="1" class="Black" />
  </g>
</svg>