<?xml version='1.0' encoding='UTF-8'?>
<svg viewBox="-2 -1.9963 32 32" xmlns="http://www.w3.org/2000/svg">
  <g transform="matrix(0.0547, 0, 0, 0.0547, 0, 0)">
    <path d="M464.8, 80C437.9, 79.6 416, 101.2 416, 128L408, 128L408, 96.8C408, 70.5 387.1, 48.5 360.8, 48C333.9, 47.6 312, 69.2 312, 96L312, 128L304, 128L304, 80.8C304, 54.5 283.1, 32.5 256.8, 32C229.9, 31.6 208, 53.2 208, 80L208, 128L200, 128L200, 96.8C200, 70.5 179.1, 48.5 152.8, 48C125.9, 47.6 104, 69.2 104, 96L104, 232L96, 224.9L96, 176.8C96, 150.5 75.1, 128.5 48.8, 128C21.9, 127.6 0, 149.2 0, 176L0, 242.4C0, 269.8 11.7, 295.9 32.2, 314.2L143.9, 413.5C154.1, 422.6 160, 435.7 160, 449.4L160, 456.1C160, 469.4 170.7, 480.1 184, 480.1L424, 480.1C437.3, 480.1 448, 469.4 448, 456.1L448, 453.2C448, 440.4 450.6, 427.7 455.5, 415.9L504.5, 299.6C509.5, 287.8 512, 275.1 512, 262.3L512, 128.8C512, 102.5 491.1, 80.4 464.8, 80z" fill="#727272" fill-opacity="1" class="Black" />
  </g>
</svg>