<?xml version='1.0' encoding='UTF-8'?>
<svg viewBox="-2 -1.9988 32 32" xmlns="http://www.w3.org/2000/svg">
  <g transform="matrix(0.0547, 0, 0, 0.0547, 0, 0)">
    <path d="M44.8, 155.826L194.034, 155.826C188.193, 147.578 183.464, 139.268 179.881, 130.908C166.248, 99.098 189.778, 63.986 224, 64C242.616, 64.008 256.203, 74.897 264, 93.092C276.122, 121.378 342.648, 157.421 371.534, 170.415C389.391, 178.371 399.987, 195.894 399.998, 214.26L400, 214.261L400, 385.787C400, 397.599 391.404, 407.684 379.731, 409.49C332.894, 416.74 317.971, 447.973 256, 447.805C253.276, 447.798 242.746, 448 240, 448C189.346, 448 158.426, 425.878 167.4, 376.737C148.803, 367.44 136.662, 337.251 150.95, 314.422C126.305, 293.245 128.311, 260.526 144.651, 243.478L44.8, 243.478C20.65, 243.478 0, 223.277 0, 199.652C0, 176.369 21.35, 155.826 44.8, 155.826zM440, 176L488, 176C501.255, 176 512, 186.745 512, 200L512, 392C512, 405.255 501.255, 416 488, 416L440, 416C426.745, 416 416, 405.255 416, 392L416, 200C416, 186.745 426.745, 176 440, 176zM464, 388C475.046, 388 484, 379.046 484, 368C484, 356.954 475.046, 348 464, 348C452.954, 348 444, 356.954 444, 368C444, 379.046 452.954, 388 464, 388z" fill="#727272" fill-opacity="1" class="Black" />
  </g>
</svg>