<?xml version='1.0' encoding='UTF-8'?>
<svg viewBox="-1.9948 -4.7949 31.9975 32" xmlns="http://www.w3.org/2000/svg">
  <g transform="matrix(0.9991, 0, 0, 0.9991, 0, 0)">
    <g transform="matrix(0.0438, 0, 0, 0.0438, 0, 0)">
      <path d="M488, 192L336, 192L336, 248C336, 287.7 303.7, 320 264, 320C224.3, 320 192, 287.7 192, 248L192, 126.4L127.1, 165.4C107.8, 176.9 96, 197.8 96, 220.2L96, 267.5L16, 313.7C0.7, 322.5 -4.6, 342.1 4.3, 357.4L84.3, 496C93.1, 511.3 112.7, 516.5 128, 507.7L231.4, 448L368, 448C403.3, 448 432, 419.3 432, 384L448, 384C465.7, 384 480, 369.7 480, 352L480, 288L488, 288C501.3, 288 512, 277.3 512, 264L512, 216C512, 202.7 501.3, 192 488, 192zM635.7, 154.6L555.7, 16C546.9, 0.7 527.3, -4.5 512, 4.3L408.6, 64L306.4, 64C294.4, 64 282.7, 67.4 272.5, 73.7L239, 94.6C229.6, 100.4 224, 110.7 224, 121.7L224, 248C224, 270.1 241.9, 288 264, 288C286.1, 288 304, 270.1 304, 248L304, 160L488, 160C518.9, 160 544, 185.1 544, 216L544, 244.5L624, 198.3C639.3, 189.4 644.5, 169.9 635.7, 154.6z" fill="#727272" fill-opacity="1" class="Black" />
    </g>
  </g>
</svg>