<?xml version='1.0' encoding='UTF-8'?>
<svg viewBox="-1.9963 -2 32 32" xmlns="http://www.w3.org/2000/svg">
  <g transform="matrix(0.0547, 0, 0, 0.0547, 0, 0)">
    <path d="M481.3, 97.1C459.8, 92 438.2, 105.3 433.1, 126.7L402.3, 256L391.2, 256L434.8, 81.7C440.2, 60.3 427.1, 38.6 405.7, 33.2C384.3, 27.8 362.6, 40.9 357.2, 62.3L308.8, 256L293.7, 256L242, 31.1C237, 9.5 215.6, -3.9 194, 1C172.5, 5.9 159, 27.4 164, 48.9L211.6, 255.9L201.8, 255.9L167, 103.1C162.1, 81.6 140.7, 68.1 119.1, 73C97.6, 77.9 84.1, 99.3 89, 120.9L128, 292.5L128, 371.9L67.4, 314.9C51.3, 299.8 26, 300.5 10.9, 316.6C-4.2, 332.7 -3.5, 358 12.6, 373.1L146.3, 499C155.2, 507.4 167, 512 179.2, 512L395.9, 512C417.2, 512 435.9, 498 441.9, 477.6L468.1, 389.3C470.7, 380.4 472.1, 371.3 472.1, 362L472.1, 320C472.1, 312.5 473, 305 474.7, 297.8L511, 145.3C516, 123.8 502.7, 102.2 481.3, 97.1z" fill="#727272" fill-opacity="1" class="Black" />
  </g>
</svg>