<?xml version='1.0' encoding='UTF-8'?>
<svg viewBox="-1.9998 4.2208 31.9975 32" xmlns="http://www.w3.org/2000/svg">
  <g transform="matrix(0.0486, 0, 0, 0.0486, 0, 0)">
    <path d="M565.3, 328.1C553.5, 317.4 535.1, 318.1 522.7, 328.1L430.3, 402C419, 411.1 404.9, 416 390.3, 416L272, 416C263.2, 416 256, 408.8 256, 400C256, 391.2 263.2, 384 272, 384L350.3, 384C366.2, 384 381, 373.1 383.6, 357.4C386.9, 337.4 371.5, 320 352, 320L192, 320C165, 320 138.9, 329.3 117.9, 346.3L71.4, 384L16, 384C7.2, 384 0, 391.2 0, 400L0, 496C0, 504.8 7.2, 512 16, 512L372.8, 512C387.3, 512 401.4, 507.1 412.8, 498L564, 377C579.2, 364.9 580.4, 341.7 565.3, 328.1z" fill="#727272" fill-opacity="1" class="Black" />
  </g>
</svg>