<?xml version='1.0' encoding='UTF-8'?>
<svg viewBox="-1.9988 -2 32 32" xmlns="http://www.w3.org/2000/svg">
  <g transform="matrix(0.0547, 0, 0, 0.0547, 0, 0)">
    <path d="M479.93, 317.12A37.33 37.33 0 0 0 451.65, 280.93L416, 272L416, 222.41C416, 210.97 406.31, 201.12 392.85, 198.87L354.45, 192.47C336.63, 189.5 320, 200.86 320, 216L320, 248A8 8 0 0 1 304, 248L304, 50C304, 23.72 283.75, 0.8 257.48, 0A48 48 0 0 0 208, 48L208, 248A8 8 0 0 1 192, 248L192, 216C192, 200.85 175.37, 189.49 157.55, 192.46L126.87, 197.58C108.87, 200.58 96, 213.7 96, 228.96L96, 376A8 8 0 0 1 80, 376L80, 300L52.64, 315A37.34 37.34 0 0 0 32, 348.4L32, 421.87A37.31 37.31 0 0 0 42.93, 448.26L73.86, 479.19A112 112 0 0 0 153.05, 512L368.05, 512A112 112 0 0 0 480, 400z" fill="#727272" fill-opacity="1" class="Black" />
  </g>
</svg>