<?xml version='1.0' encoding='UTF-8'?>
<svg viewBox="-3.7495 -2 32 32" xmlns="http://www.w3.org/2000/svg">
  <g transform="matrix(0.0547, 0, 0, 0.0547, 0, 0)">
    <path d="M408, 216C385.908, 216 368, 233.909 368, 256L360, 256L360, 224C360, 201.909 342.092, 184 320, 184C297.908, 184 280, 201.909 280, 224L280, 256L272, 256L272, 48C272, 21.49 250.51, 0 224, 0C197.49, 0 176, 21.49 176, 48L176, 256L162.428, 256L92.688, 78.449C82.994, 53.774 55.134, 41.63 30.461, 51.324C5.787, 61.017 -6.356, 88.877 3.337, 113.551L78.102, 303.893L47.012, 328.765C31.631, 341.071 27.497, 362.743 37.271, 379.846L101.271, 491.846A39.998 39.998 0 0 0 136, 512L376, 512C394.562, 512 410.686, 499.23 414.937, 481.162L446.937, 345.162A39.97 39.97 0 0 0 448, 336L448, 256C448, 233.909 430.092, 216 408, 216z" fill="#727272" fill-opacity="1" class="Black" />
  </g>
</svg>