<?xml version='1.0' encoding='UTF-8'?>
<svg viewBox="-1.9998 -3.5563 31.9975 32" xmlns="http://www.w3.org/2000/svg">
  <g transform="matrix(0.0486, 0, 0, 0.0486, 0, 0)">
    <path d="M271.06, 144.3L325.33, 158.6A8.59 8.59 0 0 1 331.96, 166.7C331.96, 171.3 327.87, 175.1 322.84, 175.1L287.24, 175.1A30 30 0 0 1 276.05, 172.9C270.81, 170.7 264.77, 171.2 260.75, 174.9L241.75, 192.4A11.68 11.68 0 0 0 239.5, 195.06A11.42 11.42 0 0 0 243.38, 210.8A83.77 83.77 0 0 0 277.89, 222.3L277.89, 240C277.89, 248.8 285.72, 256 295.26, 256L312.63, 256C322.18, 256 330.01, 248.8 330.01, 240L330.01, 222.4C362.94, 218.8 387.85, 191.4 383.51, 159.4C380.36, 136.4 361.05, 118.1 336.95, 111.7L282.68, 97.4A8.59 8.59 0 0 1 276.05, 89.3C276.05, 84.7 280.14, 80.9 285.17, 80.9L320.77, 80.9A30 30 0 0 1 332, 83.1C337.23, 85.3 343.28, 84.8 347.3, 81.1L366.3, 63.6A11.31 11.31 0 0 0 368.47, 61A11.43 11.43 0 0 0 364.63, 45.22A83.82 83.82 0 0 0 330.11, 33.72L330.11, 16C330.11, 7.2 322.29, 0 312.74, 0L295.37, 0C285.82, 0 278, 7.2 278, 16L278, 33.6C245.11, 37.2 220.15, 64.6 224.49, 96.6C227.63, 119.6 247, 137.9 271.06, 144.3zM565.27, 328.1C553.47, 317.4 535.07, 318.1 522.67, 328.1L430.27, 402A63.64 63.64 0 0 1 390.27, 416L272, 416A16 16 0 0 1 272, 384L350.29, 384C366.19, 384 381, 373.1 383.54, 357.4A31.2 31.2 0 0 0 384, 351.94A32 32 0 0 0 352, 320L192, 320A117.66 117.66 0 0 0 117.9, 346.29L71.4, 384L16, 384A16 16 0 0 0 0, 400L0, 496A16 16 0 0 0 16, 512L372.77, 512A64 64 0 0 0 412.77, 498L564, 377A32 32 0 0 0 565.28, 328.1z" fill="#727272" fill-opacity="1" class="Black" />
  </g>
</svg>