<?xml version='1.0' encoding='UTF-8'?>
<svg viewBox="-1.9999 -4.8004 32 32" xmlns="http://www.w3.org/2000/svg">
  <g transform="matrix(1.0011, 0, 0, 1.0011, 0, 0)">
    <g transform="matrix(0.0437, 0, 0, 0.0437, 0, 0)">
      <path d="M436, 17.5C405.2, -9.2 359.3, -4.4 331.1, 25.2L320, 36.9L308.9, 25.3C280.7, -4.4 234.8, -9.2 204, 17.5C168.7, 48.1 166.8, 103.1 198.4, 136.3L307.3, 250.5C314.3, 257.9 325.7, 257.9 332.8, 250.5L441.7, 136.3C473.2, 103.1 471.4, 48.1 436, 17.5zM204.8, 230.4C194.2, 216.3 174.1, 213.4 160, 224C145.9, 234.6 143, 254.7 153.6, 268.8L191.7, 319.6C196.5, 326 195.8, 334.9 190.2, 340.5L177.4, 353.3C170.7, 360 159.8, 359.5 153.8, 352.2L64, 244.4L64, 96C64, 78.3 49.7, 64 32, 64C14.3, 64 0, 78.3 0, 96L0, 314.4C0, 325.3 3.7, 335.9 10.5, 344.4L114.6, 478.7C119.6, 485.2 123, 492.6 125, 500.4C126.8, 507.3 133.1, 512 140.3, 512L272, 512C280.8, 512 288, 504.8 288, 496L288, 384C288, 356.3 279, 329.4 262.4, 307.2L204.8, 230.4zM608, 64C590.3, 64 576, 78.3 576, 96L576, 244.4L486.2, 352.2C480.2, 359.4 469.2, 359.9 462.6, 353.3L449.8, 340.5C444.2, 334.9 443.5, 326 448.3, 319.6L486.4, 268.8C497, 254.7 494.1, 234.6 480, 224C465.9, 213.4 445.8, 216.3 435.2, 230.4L377.6, 307.2C361, 329.4 352, 356.3 352, 384L352, 496C352, 504.8 359.2, 512 368, 512L499.7, 512C506.8, 512 513.2, 507.3 515, 500.4C517, 492.6 520.4, 485.2 525.4, 478.7L629.5, 344.4C636.3, 335.9 640, 325.3 640, 314.4L640, 96C640, 78.3 625.7, 64 608, 64z" fill="#727272" fill-opacity="1" class="Black" />
    </g>
  </g>
</svg>