<?xml version='1.0' encoding='UTF-8'?>
<svg viewBox="-1.9999 -3.5527 32 31.9975" xmlns="http://www.w3.org/2000/svg">
  <g transform="matrix(0.0486, 0, 0, 0.0486, 0, 0)">
    <path d="M384, 480L576, 480L576, 363.778A95.998 95.998 0 0 0 561.167, 312.515L398.127, 54.368A48 48 0 0 0 357.544, 32L24, 32C10.745, 32 0, 42.745 0, 56L0, 72C0, 102.928 25.072, 128 56, 128L285.981, 128C298.825, 128 307.537, 141.067 302.596, 152.923L281.186, 204.308A32 32 0 0 1 251.648, 224L128, 224C92.654, 224 64, 252.654 64, 288L64, 296C64, 309.255 74.745, 320 88, 320L235.406, 320A47.995 47.995 0 0 1 261.098, 327.455L372.846, 398.266A24.001 24.001 0 0 1 384, 418.539L384, 480z" fill="#727272" fill-opacity="1" class="Black" />
  </g>
</svg>