<?xml version='1.0' encoding='UTF-8'?>
<svg viewBox="-3.7483 -1.9975 32 31.9975" xmlns="http://www.w3.org/2000/svg">
  <g transform="matrix(0.0547, 0, 0, 0.0547, 0, 0)">
    <path d="M408.781, 128.007C386.356, 127.578 368, 146.36 368, 168.79L368, 256L360, 256L360, 79.79C360, 57.36 341.644, 38.578 319.219, 39.007C297.488, 39.423 280, 57.169 280, 79L280, 256L272, 256L272, 40.79C272, 18.36 253.644, -0.422 231.219, 0.007C209.488, 0.423 192, 18.169 192, 40L192, 256L184, 256L184, 80.79C184, 58.36 165.644, 39.578 143.219, 40.007C121.488, 40.423 104, 58.169 104, 80L104, 315.992L72.352, 272.473C59.359, 254.607 34.343, 250.656 16.475, 263.65C-1.39, 276.644 -5.34, 301.66 7.653, 319.527L133.254, 492.232A48 48 0 0 0 172.073, 512L369.663, 512C391.937, 512 411.285, 496.676 416.387, 474.994L442.895, 362.334A192.011 192.011 0 0 0 447.999, 318.359L447.999, 168C448, 146.169 430.512, 128.423 408.781, 128.007z" fill="#727272" fill-opacity="1" class="Black" />
  </g>
</svg>