<?xml version='1.0' encoding='UTF-8'?>
<svg viewBox="-2 -4.7992 32 32" xmlns="http://www.w3.org/2000/svg">
  <g transform="matrix(0.9988, 0, 0, 0.9988, 0, 0)">
    <g transform="matrix(0.0438, 0, 0, 0.0438, 0, 0)">
      <path d="M232, 160C227.58, 160 224, 163.58 224, 168L224, 288L256, 288L256, 168C256, 163.58 252.42, 160 248, 160L232, 160zM168, 160C163.58, 160 160, 163.58 160, 168L160, 288L192, 288L192, 168C192, 163.58 188.42, 160 184, 160L168, 160zM392, 160C387.58, 160 384, 163.58 384, 168L384, 288L416, 288L416, 168C416, 163.58 412.42, 160 408, 160L392, 160zM456, 160C451.58, 160 448, 163.58 448, 168L448, 288L480, 288L480, 168C480, 163.58 476.42, 160 472, 160L456, 160zM544, 168C544, 163.58 540.42, 160 536, 160L520, 160C515.58, 160 512, 163.58 512, 168L512, 288L544, 288L544, 168zM104, 160C99.58, 160 96, 163.58 96, 168L96, 288L128, 288L128, 168C128, 163.58 124.42, 160 120, 160L104, 160zM624, 160L592, 160C583.16, 160 576, 167.16 576, 176L576, 288C576, 305.67 561.67, 320 544, 320L352, 320L352, 128C352, 119.16 344.84, 112 336, 112L304, 112C295.16, 112 288, 119.16 288, 128L288, 320L96, 320C78.33, 320 64, 305.67 64, 288L64, 176C64, 167.16 56.84, 160 48, 160L16, 160C7.16, 160 0, 167.16 0, 176L0, 288C0, 341.02 42.98, 384 96, 384L288, 384L288, 448L112, 448C103.16, 448 96, 455.16 96, 464L96, 496C96, 504.84 103.16, 512 112, 512L528, 512C536.84, 512 544, 504.84 544, 496L544, 464C544, 455.16 536.84, 448 528, 448L352, 448L352, 384L544, 384C597.02, 384 640, 341.02 640, 288L640, 176C640, 167.16 632.84, 160 624, 160zM608, 128C621.25, 128 632, 116.06 632, 101.33C632, 86.6 608, 48 608, 48C608, 48 584, 86.61 584, 101.33C584, 116.05 594.75, 128 608, 128zM32, 128C45.25, 128 56, 116.06 56, 101.33C56, 86.6 32, 48 32, 48C32, 48 8, 86.61 8, 101.33C8, 116.05 18.75, 128 32, 128zM320, 80C333.25, 80 344, 68.06 344, 53.33C344, 38.6 320, 0 320, 0C320, 0 296, 38.61 296, 53.33C296, 68.05 306.75, 80 320, 80zM112, 128C125.25, 128 136, 116.06 136, 101.33C136, 86.6 112, 48 112, 48C112, 48 88, 86.61 88, 101.33C88, 116.05 98.75, 128 112, 128zM176, 128C189.25, 128 200, 116.06 200, 101.33C200, 86.6 176, 48 176, 48C176, 48 152, 86.61 152, 101.33C152, 116.05 162.75, 128 176, 128zM240, 128C253.25, 128 264, 116.06 264, 101.33C264, 86.6 240, 48 240, 48C240, 48 216, 86.61 216, 101.33C216, 116.05 226.75, 128 240, 128zM400, 128C413.25, 128 424, 116.06 424, 101.33C424, 86.6 400, 48 400, 48C400, 48 376, 86.61 376, 101.33C376, 116.05 386.75, 128 400, 128zM464, 128C477.25, 128 488, 116.06 488, 101.33C488, 86.6 464, 48 464, 48C464, 48 440, 86.61 440, 101.33C440, 116.05 450.75, 128 464, 128zM528, 128C541.25, 128 552, 116.06 552, 101.33C552, 86.6 528, 48 528, 48C528, 48 504, 86.61 504, 101.33C504, 116.05 514.75, 128 528, 128z" fill="#727272" fill-opacity="1" class="Black" />
    </g>
  </g>
</svg>