<?xml version='1.0' encoding='UTF-8'?>
<svg viewBox="-2 -1.9988 32 32" xmlns="http://www.w3.org/2000/svg">
  <g transform="matrix(0.0547, 0, 0, 0.0547, 0, 0)">
    <path d="M480, 288C480, 207.75 430.72, 139.08 360.81, 110.38L320, 192L320, 80A16 16 0 0 0 304, 64L208, 64A16 16 0 0 0 192, 80L192, 192L151.19, 110.38C81.28, 139.08 32, 207.75 32, 288L32, 352L480, 352zM496, 384L16, 384A16 16 0 0 0 0, 400L0, 432A16 16 0 0 0 16, 448L496, 448A16 16 0 0 0 512, 432L512, 400A16 16 0 0 0 496, 384z" fill="#727272" fill-opacity="1" class="Black" />
  </g>
</svg>