<?xml version='1.0' encoding='UTF-8'?>
<svg viewBox="-1.9988 0 32 32" xmlns="http://www.w3.org/2000/svg">
  <g transform="matrix(0.0625, 0, 0, 0.0625, 0, 0)">
    <path d="M440.667, 182.109L447.81, 142.109C449.123, 134.754 443.468, 128 435.997, 128L361.187, 128L375.81, 46.109C377.123, 38.754 371.468, 32 363.997, 32L323.365, 32A12 12 0 0 0 311.552, 41.891L296.175, 128L197.54, 128L212.163, 46.109C213.477, 38.754 207.822, 32 200.35, 32L159.718, 32A12 12 0 0 0 147.905, 41.891L132.528, 128L53.432, 128A12 12 0 0 0 41.619, 137.891L34.476, 177.891C33.163, 185.246 38.818, 192 46.289, 192L121.099, 192L98.242, 320L19.146, 320A12 12 0 0 0 7.333, 329.891L0.19, 369.891C-1.123, 377.246 4.532, 384 12.003, 384L86.813, 384L72.19, 465.891C70.877, 473.246 76.532, 480 84.003, 480L124.635, 480A12 12 0 0 0 136.448, 470.109L151.826, 384L250.46, 384L235.837, 465.891C234.523, 473.246 240.178, 480 247.65, 480L288.282, 480A12 12 0 0 0 300.095, 470.109L315.472, 384L394.568, 384A12 12 0 0 0 406.381, 374.109L413.524, 334.109C414.837, 326.754 409.182, 320 401.711, 320L326.901, 320L349.758, 192L428.854, 192A12 12 0 0 0 440.667, 182.109zM261.889, 320L163.255, 320L186.112, 192L284.746, 192L261.889, 320z" fill="#727272" fill-opacity="1" class="Black" />
  </g>
</svg>