<?xml version='1.0' encoding='UTF-8'?>
<svg viewBox="-1.9975 -4.1213 31.9975 32" xmlns="http://www.w3.org/2000/svg">
  <g transform="matrix(0.9988, 0, 0, 0.9988, 0, 0)">
    <g transform="matrix(0.0438, 0, 0, 0.0438, 0, 0)">
      <path d="M260.8, 291.06C232.17, 268.12 198.8, 256 164.4, 256C87, 256 21.47, 318.72 1.43, 412.06C-2.12, 428.66 1, 445.89 10, 459.36C18.75, 472.47 31.83, 480 45.88, 480L592, 480C488.79, 480 437, 442.93 358.81, 375.54zM495.45, 272.77L468.4, 116.2A64 64 0 0 0 392, 64.41L200.85, 105A64 64 0 0 0 150.5, 160.79L143.61, 226C150.51, 225.17 157.31, 224 164.4, 224C206.19, 224 246.4, 238.55 281.69, 266.82L379.69, 351.3C450.76, 412.54 494.9, 448 592, 448A48 48 0 0 0 640, 400C640, 374.61 610.4, 280.67 495.45, 272.77z" fill="#727272" fill-opacity="1" class="Black" />
    </g>
  </g>
</svg>