<?xml version='1.0' encoding='UTF-8'?>
<svg viewBox="-1.9999 -4.7979 32 31.9975" xmlns="http://www.w3.org/2000/svg">
  <g transform="matrix(1.0011, 0, 0, 1.0011, 0, 0)">
    <g transform="matrix(0.0437, 0, 0, 0.0437, 0, 0)">
      <path d="M480, 384L32, 384C14.3, 384 0, 398.3 0, 416L0, 448C0, 465.7 14.3, 480 32, 480L480, 480C497.7, 480 512, 465.7 512, 448L512, 416C512, 398.3 497.7, 384 480, 384zM384, 192L455.7, 211.5C458, 207.4 460.6, 203.5 463.9, 200.1C464.3, 185.6 470.1, 171.5 480.9, 160.7C483.1, 158.5 485.6, 156.6 488.1, 154.8L435, 92.1C402.6, 54 355.2, 32 305.2, 32C236.6, 32 174.8, 73.2 148.4, 136.5L58.7, 352L452.6, 352L384, 192zM640, 240C640, 227.9 631.8, 218.1 620.8, 214.8C626.3, 204.7 625.2, 192 616.6, 183.4C608, 174.8 595.3, 173.7 585.2, 179.2C581.9, 168.2 572.1, 160 560, 160C547.9, 160 538.1, 168.2 534.8, 179.2C524.7, 173.7 512, 174.8 503.4, 183.4C494.8, 192 493.7, 204.7 499.2, 214.8C488.2, 218.1 480, 227.9 480, 240C480, 252.1 488.2, 261.9 499.2, 265.2C493.7, 275.3 494.8, 288 503.4, 296.6C508.6, 301.8 515.4, 304.4 522.3, 304.4C526.7, 304.4 530.9, 302.9 534.8, 300.8C538.1, 311.8 547.9, 320 560, 320C572.1, 320 581.9, 311.8 585.2, 300.8C589.2, 302.9 593.4, 304.4 597.7, 304.4C604.5, 304.4 611.3, 301.8 616.6, 296.6C625.2, 288 626.3, 275.3 620.8, 265.2C631.8, 261.9 640, 252.1 640, 240z" fill="#727272" fill-opacity="1" class="Black" />
    </g>
  </g>
</svg>