<?xml version='1.0' encoding='UTF-8'?>
<svg viewBox="-2 -2 32 32" xmlns="http://www.w3.org/2000/svg">
  <g transform="matrix(0.0547, 0, 0, 0.0547, 0, 0)">
    <path d="M195.2, 105.2C189.7, 115.3 190.8, 128 199.4, 136.6C204.6, 141.8 211.4, 144.4 218.3, 144.4C222.7, 144.4 226.9, 142.9 230.8, 140.8C234.1, 151.8 243.9, 160 256, 160C268.1, 160 277.9, 151.8 281.2, 140.8C285.2, 142.9 289.4, 144.4 293.7, 144.4C300.5, 144.4 307.3, 141.8 312.6, 136.6C321.2, 128 322.3, 115.3 316.8, 105.2C327.8, 101.9 336, 92.1 336, 80C336, 67.9 327.8, 58.1 316.8, 54.8C322.3, 44.7 321.2, 32 312.6, 23.4C304, 14.8 291.3, 13.7 281.2, 19.2C277.9, 8.2 268.1, 0 256, 0C243.9, 0 234.1, 8.2 230.8, 19.2C220.7, 13.7 208, 14.8 199.4, 23.4C190.8, 32 189.7, 44.7 195.2, 54.8C184.2, 58.1 176, 67.9 176, 80C176, 92.1 184.2, 101.9 195.2, 105.2zM128, 270.1L192, 302.1L256, 270.1L320, 302.1L384, 270.1L448, 302.1L455.2, 298.5C435.5, 248.3 400, 193.6 336.2, 158C335.8, 158.4 335.6, 158.8 335.2, 159.2C324.6, 169.8 310.6, 175.9 295.6, 176.4C285.1, 186.3 271.1, 192.1 256, 192.1C240.8, 192.1 226.8, 186.3 216.4, 176.4C201.5, 175.9 187.5, 169.9 176.8, 159.2C176.4, 158.8 176.2, 158.4 175.8, 158C111.9, 193.6 76.4, 248.4 56.8, 298.5L64, 302.1L128, 270.1zM496, 448L16, 448C7.2, 448 0, 455.2 0, 464L0, 496C0, 504.8 7.2, 512 16, 512L496, 512C504.8, 512 512, 504.8 512, 496L512, 464C512, 455.2 504.8, 448 496, 448zM465.7, 329.1L448, 337.9L384, 305.9L320, 337.9L256, 305.9L192, 337.9L128, 305.9L64, 337.9L46.3, 329.1C32.2, 377.8 32, 416 32, 416L480, 416C480, 416 479.8, 377.8 465.7, 329.1z" fill="#727272" fill-opacity="1" class="Black" />
  </g>
</svg>