<?xml version='1.0' encoding='UTF-8'?>
<svg viewBox="-1.9974 -4.0952 32 31.995" xmlns="http://www.w3.org/2000/svg">
  <g transform="matrix(0.9989, 0, 0, 0.9989, 0, 0)">
    <g transform="matrix(0.0438, 0, 0, 0.0438, 0, 0)">
      <path d="M490, 296.9C480.51, 239.51 450.51, 64 392.3, 64C378.3, 64 365.81, 69.93 355.3, 78A58.21 58.21 0 0 1 284.72, 78C274.21, 70 261.72, 64 247.72, 64C189.52, 64 159.52, 239.47 150.01, 296.88C188.81, 309.47 243.73, 320 320, 320C396.27, 320 451.23, 309.49 490, 296.9zM632.9, 259.72A16 16 0 0 0 613.15, 261.22C612.15, 262.12 511.88, 352 319.99, 352C129.17, 352 27.77, 262.06 26.75, 261.16A16 16 0 0 0 1, 278.53C1.73, 280.55 78.32, 480 320, 480C561.68, 480 638.27, 280.55 639, 278.53A16 16 0 0 0 632.91, 259.72z" fill="#727272" fill-opacity="1" class="Black" />
    </g>
  </g>
</svg>