<?xml version='1.0' encoding='UTF-8'?>
<svg viewBox="-2 -3.554 32 32" xmlns="http://www.w3.org/2000/svg">
  <g transform="matrix(0.0486, 0, 0, 0.0486, 0, 0)">
    <path d="M576, 304L576, 400C576, 426.51 554.51, 448 528, 448L48, 448C21.49, 448 0, 426.51 0, 400L0, 304C0, 277.49 21.49, 256 48, 256L528, 256C554.51, 256 576, 277.49 576, 304zM528, 224A79.557 79.557 0 0 1 558.777, 230.165L462.25, 85.374A48.003 48.003 0 0 0 422.311, 64L153.689, 64A48 48 0 0 0 113.751, 85.374L17.223, 230.165A79.557 79.557 0 0 1 48, 224L528, 224zM480, 320C462.327, 320 448, 334.327 448, 352C448, 369.673 462.327, 384 480, 384C497.673, 384 512, 369.673 512, 352C512, 334.327 497.673, 320 480, 320zM384, 320C366.327, 320 352, 334.327 352, 352C352, 369.673 366.327, 384 384, 384C401.673, 384 416, 369.673 416, 352C416, 334.327 401.673, 320 384, 320z" fill="#727272" fill-opacity="1" class="Black" />
  </g>
</svg>