<?xml version='1.0' encoding='UTF-8'?>
<svg viewBox="-2 -1.9988 32 32" xmlns="http://www.w3.org/2000/svg">
  <g transform="matrix(0.0547, 0, 0, 0.0547, 0, 0)">
    <path d="M256, 32C114.52, 32 0, 146.496 0, 288L0, 336A32 32 0 0 0 17.689, 364.622L32.072, 371.813C34.083, 431.903 83.421, 480 144, 480L168, 480C181.255, 480 192, 469.255 192, 456L192, 280C192, 266.745 181.255, 256 168, 256L144, 256C112.658, 256 84.329, 268.879 64, 289.627L64, 288C64, 182.131 150.131, 96 256, 96C361.869, 96 448, 182.131 448, 288L448, 289.627C427.671, 268.879 399.342, 256 368, 256L344, 256C330.745, 256 320, 266.745 320, 280L320, 456C320, 469.255 330.745, 480 344, 480L368, 480C428.579, 480 477.917, 431.902 479.928, 371.813L494.31, 364.622A32 32 0 0 0 512, 336L512, 288C512, 146.521 397.504, 32 256, 32z" fill="#727272" fill-opacity="1" class="Black" />
  </g>
</svg>