<?xml version='1.0' encoding='UTF-8'?>
<svg viewBox="-2.0025 -2.1074 32 31.9975" xmlns="http://www.w3.org/2000/svg">
  <g transform="matrix(0.0547, 0, 0, 0.0547, 0, 0)">
    <path d="M509.21, 273C488.27, 225.88 460.77, 121.27 436.11, 86.25A207.87 207.87 0 0 0 266.09, -2L256, -2L256, 105.19C293.74, 123.19 320, 161.4 320, 206A112 112 0 1 1 96, 206C96, 161.4 122.26, 123.21 160, 105.19L160, 0.88C69.23, 16.14 0, 94.88 0, 190A191.27 191.27 0 0 0 64, 332.81L64, 510L320, 510L320, 446L384, 446A64 64 0 0 0 448, 382L448, 318L480, 318A32 32 0 0 0 509.21, 273zM128, 206A80 80 0 1 0 208, 126A80 80 0 0 0 128, 206zM208, 174A32 32 0 1 1 176, 206A32 32 0 0 1 208, 174z" fill="#727272" fill-opacity="1" class="Black" />
  </g>
</svg>