<?xml version='1.0' encoding='UTF-8'?>
<svg viewBox="-2 -1.9988 32 32" xmlns="http://www.w3.org/2000/svg">
  <g transform="matrix(0.0547, 0, 0, 0.0547, 0, 0)">
    <path d="M160, 288L144, 288C108.65, 288 80, 316.7 80, 352.12L80, 415.88C80, 451.29 108.65, 480 144, 480L160, 480C177.67, 480 192, 465.64 192, 447.94L192, 320.06C192, 302.35 177.67, 288 160, 288zM368, 288L352, 288C334.33, 288 320, 302.35 320, 320.06L320, 447.94C320, 465.64 334.33, 480 352, 480L368, 480C403.35, 480 432, 451.29 432, 415.88L432, 352.12C432, 316.71 403.35, 288 368, 288zM256, 32C112.91, 32 4.57, 151.13 0, 288L0, 400C0, 408.84 7.16, 416 16, 416L32, 416C40.84, 416 48, 408.84 48, 400L48, 288C48, 173.33 141.33, 80.2 256, 80.18C370.67, 80.2 464, 173.33 464, 288L464, 400C464, 408.84 471.16, 416 480, 416L496, 416C504.84, 416 512, 408.84 512, 400L512, 288C507.43, 151.13 399.09, 32 256, 32z" fill="#727272" fill-opacity="1" class="Black" />
  </g>
</svg>