<?xml version='1.0' encoding='UTF-8'?>
<svg viewBox="-2.0011 -1.9998 32 31.9975" xmlns="http://www.w3.org/2000/svg">
  <g transform="matrix(0.0547, 0, 0, 0.0547, 0, 0)">
    <path d="M509.21, 275C488.27, 227.88 460.77, 123.27 436.13, 88.25C397.68, 33.6 334.56, 0 266.09, 0L192, 0C85.96, 0 0, 85.96 0, 192C0, 248.79 24.8, 299.67 64, 334.82L64, 512L320, 512L320, 448L384, 448C419.35, 448 448, 419.35 448, 384L448, 320L479.96, 320C503.12, 320 518.61, 296.16 509.21, 275zM320, 224C302.33, 224 288, 209.67 288, 192C288, 174.33 302.33, 160 320, 160C337.67, 160 352, 174.33 352, 192C352, 209.67 337.67, 224 320, 224z" fill="#727272" fill-opacity="1" class="Black" />
  </g>
</svg>