<?xml version='1.0' encoding='UTF-8'?>
<svg viewBox="-2 -4.798 32 32" xmlns="http://www.w3.org/2000/svg">
  <g transform="matrix(0.9988, 0, 0, 0.9988, 0, 0)">
    <g transform="matrix(0.0438, 0, 0, 0.0438, 0, 0)">
      <path d="M624, 224L480, 224C467.88, 224 456.79, 230.85 451.37, 241.69L424.83, 294.78L350.88, 23.58C346.99, 9.35 333.82, -0.51 319.13, 0.02C304.36, 0.43 291.8, 10.86 288.7, 25.3L219.56, 347.98L190.77, 247.2C186.84, 233.47 174.29, 224 160, 224L16, 224C7.16, 224 0, 231.16 0, 240L0, 272C0, 280.84 7.16, 288 16, 288L135.86, 288L193.24, 488.79C197.18, 502.56 209.76, 511.99 223.99, 511.99C224.35, 511.99 224.72, 511.99 225.08, 511.97C239.75, 511.47 252.22, 501.05 255.3, 486.69L323.74, 167.29L385.13, 392.41A32.012 32.012 0 0 0 412.85, 415.83C426.01, 417.03 438.69, 410.14 444.63, 398.3L499.78, 288L624, 288C632.84, 288 640, 280.84 640, 272L640, 240C640, 231.16 632.84, 224 624, 224z" fill="#727272" fill-opacity="1" class="Black" />
    </g>
  </g>
</svg>