<?xml version='1.0' encoding='UTF-8'?>
<svg viewBox="-1.9973 -4.7991 31.9975 32" xmlns="http://www.w3.org/2000/svg">
  <g transform="matrix(0.9989, 0, 0, 0.9989, 0, 0)">
    <g transform="matrix(0.0438, 0, 0, 0.0438, 0, 0)">
      <path d="M304, 384L576, 384C593.67, 384 608, 369.67 608, 352C608, 228.29 507.71, 128 384, 128L384, 64L560, 64C568.84, 64 576, 56.84 576, 48L576, 16C576, 7.16 568.84, 0 560, 0L144, 0C135.16, 0 128, 7.16 128, 16L128, 48C128, 56.84 135.16, 64 144, 64L320, 64L320, 128L112, 128L68.8, 70.4C65.78, 66.37 61.03, 64 56, 64L16.01, 64C5.6, 64 -2.04, 73.78 0.49, 83.88L32, 192L192, 256L278.4, 371.2A31.992 31.992 0 0 0 304, 384zM416, 195.51C478.55, 208.3 528.03, 257.44 540.79, 320L416, 320L416, 195.51zM635.37, 458.81L613.22, 436.61C606.97, 430.35 596.98, 430.51 590.58, 436.62C583.49, 443.39 576.74, 447.87 565.94, 447.87L240, 447.87C231.16, 447.87 224, 455.05 224, 463.9L224, 495.96C224, 504.81 231.16, 511.99 240, 511.99L565.94, 511.99C580.82, 511.99 601.24, 511.52 634.39, 482.47C641.41, 476.33 641.96, 465.42 635.37, 458.81z" fill="#727272" fill-opacity="1" class="Black" />
    </g>
  </g>
</svg>