<?xml version='1.0' encoding='UTF-8'?>
<svg viewBox="-2 -2.8208 32 32" xmlns="http://www.w3.org/2000/svg">
  <g transform="matrix(0.0515, 0, 0, 0.0515, 0, 0)">
    <path d="M0, 479.98L99.92, 512L135.37, 476.55L68.33, 409.51L0, 479.98zM124.61, 239.97A36.592 36.592 0 0 0 113.82, 278.07L126.87, 320.9L75.94, 371.84L172.17, 468.07L223.03, 417.21L265.77, 430.29C279.5, 434.49 294.42, 430.28 303.92, 419.51L339.47, 377.87L166.13, 204.53L124.61, 239.97zM527.92, 79.27L464.72, 16.07C444.23, -4.42 411.34, -5.45 389.6, 13.72L190.55, 183.68L360.32, 353.46L530.27, 154.4C549.45, 132.66 548.42, 99.77 527.92, 79.27z" fill="#727272" fill-opacity="1" class="Black" />
  </g>
</svg>