<?xml version='1.0' encoding='UTF-8'?>
<svg viewBox="-5.499 -2 32 32" xmlns="http://www.w3.org/2000/svg">
  <g transform="matrix(0.0547, 0, 0, 0.0547, 0, 0)">
    <path d="M80.95, 472.23C76.67, 489.39 87.09, 506.76 104.23, 511.04C106.84, 511.7 109.45, 511.99 112.03, 511.99C126.36, 511.99 139.4, 502.29 143.05, 487.76L168.29, 386.79L115.51, 334.01L80.95, 472.23zM95.84, 276.11L137, 117C139.19, 108.58 133.86, 100.05 125.08, 97.94C81.2, 87.42 36.73, 113.01 25.76, 155.11L0.49, 253.24C-1.7, 261.66 3.63, 270.19 12.41, 272.3L75.97, 287.55C84.76, 289.65 93.65, 284.53 95.84, 276.11zM368, 160L352, 160C343.16, 160 336, 167.16 336, 176L336, 192L301.25, 192L254.47, 145.22C243.38, 134.11 228.61, 128 212.91, 128C185.89, 128 162.44, 146.3 155.88, 172.52L128.96, 280.24A32.012 32.012 0 0 0 137.38, 310.63L224, 397.25L224, 480C224, 497.67 238.33, 512 256, 512C273.67, 512 288, 497.67 288, 480L288, 397.25C288, 380.16 281.34, 364.09 269.25, 352L222.43, 305.18C222.58, 304.68 222.92, 304.29 223.05, 303.77L242.94, 224.2L265.37, 246.63C271.37, 252.63 279.51, 256.01 287.99, 256.01L335.99, 256.01L335.99, 496.01C335.99, 504.85 343.15, 512.01 351.99, 512.01L367.99, 512.01C376.83, 512.01 383.99, 504.85 383.99, 496.01L383.99, 176C384, 167.16 376.84, 160 368, 160zM240, 96C266.51, 96 288, 74.51 288, 48C288, 21.49 266.51, 0 240, 0C213.49, 0 192, 21.49 192, 48C192, 74.51 213.49, 96 240, 96z" fill="#727272" fill-opacity="1" class="Black" />
  </g>
</svg>