<?xml version='1.0' encoding='UTF-8'?>
<svg viewBox="-2 -4.7992 32 32" xmlns="http://www.w3.org/2000/svg">
  <g transform="matrix(0.9988, 0, 0, 0.9988, 0, 0)">
    <g transform="matrix(0.0438, 0, 0, 0.0438, 0, 0)">
      <path d="M581.12, 96.2C553.45, 96.05 528.62, 113.78 504.52, 122.82C489.98, 88.27 455.83, 64 416, 64C404.72, 64 394.05, 66.3 384, 69.88L384, 56C384, 42.74 373.25, 32 360, 32L344, 32C330.75, 32 320, 42.74 320, 56L320, 104.98C286.01, 79.58 241.24, 64 192, 64C85.96, 64 0, 135.64 0, 224L0, 464C0, 472.84 7.16, 480 16, 480L80, 480C88.84, 480 96, 472.84 96, 464L96, 393.21C128.35, 407.57 166.72, 416 208, 416C249.28, 416 287.65, 407.57 320, 393.21L320, 464C320, 472.84 327.16, 480 336, 480L400, 480C408.84, 480 416, 472.84 416, 464L416, 288L544, 288L544, 320C544, 328.84 551.16, 336 560, 336L592, 336C600.84, 336 608, 328.84 608, 320L608, 288C625.67, 288 640, 273.67 640, 256L640, 163.98C640, 129.89 615.21, 96.39 581.12, 96.2zM448, 176C439.16, 176 432, 168.84 432, 160C432, 151.16 439.16, 144 448, 144C456.84, 144 464, 151.16 464, 160C464, 168.84 456.84, 176 448, 176z" fill="#727272" fill-opacity="1" class="Black" />
    </g>
  </g>
</svg>