<?xml version='1.0' encoding='UTF-8'?>
<svg viewBox="-1.9975 -3.5517 31.9975 32" xmlns="http://www.w3.org/2000/svg">
  <g transform="matrix(0.0486, 0, 0, 0.0486, 0, 0)">
    <path d="M280.37, 148.26L96, 300.11L96, 464A16 16 0 0 0 112, 480L224.06, 479.71A16 16 0 0 0 239.98, 463.71L239.98, 368A16 16 0 0 1 255.98, 352L319.98, 352A16 16 0 0 1 335.98, 368L335.98, 463.64A16 16 0 0 0 351.98, 479.69L464, 480A16 16 0 0 0 480, 464L480, 300L295.67, 148.26A12.19 12.19 0 0 0 280.37, 148.26zM571.6, 251.47L318.47, 43A48 48 0 0 0 257.47, 43L4.34, 251.47A12 12 0 0 0 2.74, 268.37L28.24, 299.37A12 12 0 0 0 45.15, 301L280.37, 107.26A12.19 12.19 0 0 1 295.67, 107.26L530.9, 301A12 12 0 0 0 547.8, 299.4L573.3, 268.4A12 12 0 0 0 571.6, 251.47z" fill="#727272" fill-opacity="1" class="Black" />
  </g>
</svg>