<?xml version='1.0' encoding='UTF-8'?>
<svg viewBox="-1.9975 -3.553 31.9975 32" xmlns="http://www.w3.org/2000/svg">
  <g transform="matrix(0.0486, 0, 0, 0.0486, 0, 0)">
    <path d="M288, 115L69.47, 307.71C67.85, 309.17 65.78, 309.85 64, 311.06L64, 496A16 16 0 0 0 80, 512L208, 512A16 16 0 0 0 224, 496L224, 368A16 16 0 0 1 240, 352L336, 352A16 16 0 0 1 352, 368L352, 496A16 16 0 0 0 368, 512L496, 512A16 16 0 0 0 512, 496L512, 311.1C510.3, 309.94 508.28, 309.28 506.74, 307.9zM570.69, 236.28L314.75, 10.28A39.85 39.85 0 0 0 261.3, 10.28L5.3, 236.28A16 16 0 0 0 4.09, 258.88L25.5, 282.7A16 16 0 0 0 48.1, 283.91L277.42, 81.63A16 16 0 0 1 298.59, 81.63L527.91, 283.9A16 16 0 0 0 550.51, 282.69L571.91, 258.87A16 16 0 0 0 570.69, 236.28z" fill="#727272" fill-opacity="1" class="Black" />
  </g>
</svg>