<?xml version='1.0' encoding='UTF-8'?>
<svg viewBox="-1.9998 -3.5563 31.9975 32" xmlns="http://www.w3.org/2000/svg">
  <g transform="matrix(0.0486, 0, 0, 0.0486, 0, 0)">
    <path d="M288.27, 192C217.58, 192 160.27, 249.31 160.27, 320L160.27, 512L416.27, 512L416.27, 320C416.27, 249.31 358.97, 192 288.27, 192zM569.64, 460.84C511.97, 383.87 511.97, 320 511.97, 320L512.03, 320L512.03, 256C512.03, 171.97 465.66, 132.95 410.85, 73.3L450.6, 33.55C462.99, 21.17 454.22, 0 436.71, 0L287.6, 0C192, 0 64.03, 109.45 64.03, 256L64.03, 320C64.03, 320 64.03, 383.87 6.36, 460.84C1.89, 466.8 -0.07, 473.48 0, 480C0.19, 496.52 13.46, 512 32.33, 512L128.27, 512L128.27, 320C128.27, 231.78 200.05, 160 288.27, 160C376.49, 160 448.27, 231.78 448.27, 320L448.27, 512L543.67, 512C562.54, 512 575.81, 496.52 576, 480C576.07, 473.48 574.11, 466.8 569.64, 460.84z" fill="#727272" fill-opacity="1" class="Black" />
  </g>
</svg>