<?xml version='1.0' encoding='UTF-8'?>
<svg viewBox="-1.9998 -3.5563 31.9975 32" xmlns="http://www.w3.org/2000/svg">
  <g transform="matrix(0.0486, 0, 0, 0.0486, 0, 0)">
    <path d="M128, 160L128, 134.17A96.74 96.74 0 0 0 88, 161.11L88, 160A88.09 88.09 0 0 0 0, 248L0, 304A16 16 0 0 0 16, 320L32, 320A16 16 0 0 0 48, 304L48, 248C48, 234.78 54.87, 223.61 64.78, 216.31C64.56, 218.91 64, 221.38 64, 224A95.47 95.47 0 0 0 94.53, 293.88L68.81, 362.48A64.13 64.13 0 0 0 66.66, 400.48L91.5, 499.88C93.19, 506.56 100.12, 512 107, 512L173, 512A16 16 0 0 0 188.53, 492.12L162.19, 386.86L186, 323.27L208, 326.93L208, 254.39A95.83 95.83 0 0 1 128, 160zM288, 160L288, 128L160, 128L160, 160A64 64 0 0 0 288, 160zM575.9, 76.59A31.69 31.69 0 0 0 567.34, 54.8C563.56, 50.8 558.75, 45.69 553.65, 40.3C564.72, 33.45 573.15, 22.81 575.84, 9.64A8.11 8.11 0 0 0 567.9, 0L447.9, 0A127.94 127.94 0 0 0 320, 127.05L320, 160.05A95.83 95.83 0 0 1 240, 254.44L240, 332.31L320, 345.64L320, 496A16 16 0 0 0 336, 512L400, 512A16 16 0 0 0 416, 496L416, 318.22A111.5 111.5 0 0 0 448, 240A3.55 3.55 0 0 0 447.9, 239.36L447.9, 136.89L463.9, 144L482.81, 181.7A32 32 0 0 0 523.31, 197.06L555.87, 184.06C567, 179.61 576, 166.3 576, 154.34zM511.9, 96A16 16 0 1 1 527.9, 80A16 16 0 0 1 511.9, 96z" fill="#727272" fill-opacity="1" class="Black" />
  </g>
</svg>