<?xml version='1.0' encoding='UTF-8'?>
<svg viewBox="-1.9999 -4.8004 32 32" xmlns="http://www.w3.org/2000/svg">
  <g transform="matrix(1.0011, 0, 0, 1.0011, 0, 0)">
    <g transform="matrix(0.0437, 0, 0, 0.0437, 0, 0)">
      <path d="M256, 96L256, 32A32 32 0 0 0 224, 0L64, 0A32 32 0 0 0 32, 32L32, 96A32 32 0 0 0 0, 128L0, 480A32 32 0 0 0 32, 512L256, 512A32 32 0 0 0 288, 480L288, 128A32 32 0 0 0 256, 96zM128, 404A12 12 0 0 1 116, 416L76, 416A12 12 0 0 1 64, 404L64, 364A12 12 0 0 1 76, 352L116, 352A12 12 0 0 1 128, 364zM128, 276A12 12 0 0 1 116, 288L76, 288A12 12 0 0 1 64, 276L64, 236A12 12 0 0 1 76, 224L116, 224A12 12 0 0 1 128, 236zM154, 160L134, 160A6 6 0 0 1 128, 154L128, 128L102, 128A6 6 0 0 1 96, 122L96, 102A6 6 0 0 1 102, 96L128, 96L128, 70A6 6 0 0 1 134, 64L154, 64A6 6 0 0 1 160, 70L160, 96L186, 96A6 6 0 0 1 192, 102L192, 122A6 6 0 0 1 186, 128L160, 128L160, 154A6 6 0 0 1 154, 160zM224, 404A12 12 0 0 1 212, 416L172, 416A12 12 0 0 1 160, 404L160, 364A12 12 0 0 1 172, 352L212, 352A12 12 0 0 1 224, 364zM224, 276A12 12 0 0 1 212, 288L172, 288A12 12 0 0 1 160, 276L160, 236A12 12 0 0 1 172, 224L212, 224A12 12 0 0 1 224, 236zM608, 96L608, 32A32 32 0 0 0 576, 0L416, 0A32 32 0 0 0 384, 32L384, 96A32 32 0 0 0 352, 128L352, 480A32 32 0 0 0 384, 512L608, 512A32 32 0 0 0 640, 480L640, 128A32 32 0 0 0 608, 96zM480, 404A12 12 0 0 1 468, 416L428, 416A12 12 0 0 1 416, 404L416, 364A12 12 0 0 1 428, 352L468, 352A12 12 0 0 1 480, 364zM480, 276A12 12 0 0 1 468, 288L428, 288A12 12 0 0 1 416, 276L416, 236A12 12 0 0 1 428, 224L468, 224A12 12 0 0 1 480, 236zM506, 160L486, 160A6 6 0 0 1 480, 154L480, 128L454, 128A6 6 0 0 1 448, 122L448, 102A6 6 0 0 1 454, 96L480, 96L480, 70A6 6 0 0 1 486, 64L506, 64A6 6 0 0 1 512, 70L512, 96L538, 96A6 6 0 0 1 544, 102L544, 122A6 6 0 0 1 538, 128L512, 128L512, 154A6 6 0 0 1 506, 160zM576, 404A12 12 0 0 1 564, 416L524, 416A12 12 0 0 1 512, 404L512, 364A12 12 0 0 1 524, 352L564, 352A12 12 0 0 1 576, 364zM576, 276A12 12 0 0 1 564, 288L524, 288A12 12 0 0 1 512, 276L512, 236A12 12 0 0 1 524, 224L564, 224A12 12 0 0 1 576, 236z" fill="#727272" fill-opacity="1" class="Black" />
    </g>
  </g>
</svg>