<?xml version='1.0' encoding='UTF-8'?>
<svg viewBox="-1.9999 -3.5552 32 32" xmlns="http://www.w3.org/2000/svg">
  <g transform="matrix(0.0486, 0, 0, 0.0486, 0, 0)">
    <path d="M544, 96L416, 96L416, 32C416, 14.3 401.7, 0 384, 0L192, 0C174.3, 0 160, 14.3 160, 32L160, 96L32, 96C14.3, 96 0, 110.3 0, 128L0, 496C0, 504.8 7.2, 512 16, 512L560, 512C568.8, 512 576, 504.8 576, 496L576, 128C576, 110.3 561.7, 96 544, 96zM160, 436C160, 442.6 154.6, 448 148, 448L108, 448C101.4, 448 96, 442.6 96, 436L96, 396C96, 389.4 101.4, 384 108, 384L148, 384C154.6, 384 160, 389.4 160, 396L160, 436zM160, 308C160, 314.6 154.6, 320 148, 320L108, 320C101.4, 320 96, 314.6 96, 308L96, 268C96, 261.4 101.4, 256 108, 256L148, 256C154.6, 256 160, 261.4 160, 268L160, 308zM320, 436C320, 442.6 314.6, 448 308, 448L268, 448C261.4, 448 256, 442.6 256, 436L256, 396C256, 389.4 261.4, 384 268, 384L308, 384C314.6, 384 320, 389.4 320, 396L320, 436zM320, 308C320, 314.6 314.6, 320 308, 320L268, 320C261.4, 320 256, 314.6 256, 308L256, 268C256, 261.4 261.4, 256 268, 256L308, 256C314.6, 256 320, 261.4 320, 268L320, 308zM336, 138C336, 141.3 333.3, 144 330, 144L304, 144L304, 170C304, 173.3 301.3, 176 298, 176L278, 176C274.7, 176 272, 173.3 272, 170L272, 144L246, 144C242.7, 144 240, 141.3 240, 138L240, 118C240, 114.7 242.7, 112 246, 112L272, 112L272, 86C272, 82.7 274.7, 80 278, 80L298, 80C301.3, 80 304, 82.7 304, 86L304, 112L330, 112C333.3, 112 336, 114.7 336, 118L336, 138zM480, 436C480, 442.6 474.6, 448 468, 448L428, 448C421.4, 448 416, 442.6 416, 436L416, 396C416, 389.4 421.4, 384 428, 384L468, 384C474.6, 384 480, 389.4 480, 396L480, 436zM480, 308C480, 314.6 474.6, 320 468, 320L428, 320C421.4, 320 416, 314.6 416, 308L416, 268C416, 261.4 421.4, 256 428, 256L468, 256C474.6, 256 480, 261.4 480, 268L480, 308z" fill="#727272" fill-opacity="1" class="Black" />
  </g>
</svg>