<?xml version='1.0' encoding='UTF-8'?>
<svg viewBox="-1.9999 -4.8004 32 32" xmlns="http://www.w3.org/2000/svg">
  <g transform="matrix(1.0011, 0, 0, 1.0011, 0, 0)">
    <g transform="matrix(0.0437, 0, 0, 0.0437, 0, 0)">
      <path d="M480, 320A96 96 0 1 0 384, 224A96 96 0 0 0 480, 320zM528, 352A22.88 22.88 0 0 0 520.94, 353.09A124.76 124.76 0 0 1 439.05, 353.09A22.82 22.82 0 0 0 432, 352A112 112 0 0 0 320, 464.62C320.14, 490.88 341.73, 512 368, 512L592, 512C618.27, 512 639.86, 490.88 640, 464.62A112 112 0 0 0 528, 352zM329.91, 362.45A145.19 145.19 0 0 1 352, 344.62L352, 128A32 32 0 0 0 320, 96L288, 96L288, 32A32 32 0 0 0 256, 0L96, 0A32 32 0 0 0 64, 32L64, 96L32, 96A32 32 0 0 0 0, 128L0, 496A16 16 0 0 0 16, 512L304.31, 512A78.62 78.62 0 0 1 288, 464.79A143.06 143.06 0 0 1 329.91, 362.45zM144, 404A12 12 0 0 1 132, 416L92, 416A12 12 0 0 1 80, 404L80, 364A12 12 0 0 1 92, 352L132, 352A12 12 0 0 1 144, 364zM144, 276A12 12 0 0 1 132, 288L92, 288A12 12 0 0 1 80, 276L80, 236A12 12 0 0 1 92, 224L132, 224A12 12 0 0 1 144, 236zM192, 154A6 6 0 0 1 186, 160L166, 160A6 6 0 0 1 160, 154L160, 128L134, 128A6 6 0 0 1 128, 122L128, 102A6 6 0 0 1 134, 96L160, 96L160, 70A6 6 0 0 1 166, 64L186, 64A6 6 0 0 1 192, 70L192, 96L218, 96A6 6 0 0 1 224, 102L224, 122A6 6 0 0 1 218, 128L192, 128zM272, 404A12 12 0 0 1 260, 416L220, 416A12 12 0 0 1 208, 404L208, 364A12 12 0 0 1 220, 352L260, 352A12 12 0 0 1 272, 364zM272, 276A12 12 0 0 1 260, 288L220, 288A12 12 0 0 1 208, 276L208, 236A12 12 0 0 1 220, 224L260, 224A12 12 0 0 1 272, 236z" fill="#727272" fill-opacity="1" class="Black" />
    </g>
  </g>
</svg>