<?xml version='1.0' encoding='UTF-8'?>
<svg viewBox="-2 -2 32 32" xmlns="http://www.w3.org/2000/svg">
  <g transform="matrix(0.0547, 0, 0, 0.0547, 0, 0)">
    <path d="M414.21, 177.65C415.23, 185.86 421.96, 192 429.96, 192L446.08, 192C455.59, 192 463.16, 183.43 462.08, 173.65C457.74, 134.54 439.68, 99.12 411.95, 76.49C394.58, 62.32 383.13, 39.74 379.97, 14.34C378.96, 6.14 372.22, 0 364.23, 0L348.11, 0C338.6, 0 331.02, 8.57 332.11, 18.35C336.45, 57.46 354.51, 92.88 382.24, 115.51C399.6, 129.68 411.06, 152.26 414.21, 177.65zM306.21, 177.65C307.23, 185.86 313.96, 192 321.96, 192L338.08, 192C347.59, 192 355.16, 183.43 354.08, 173.65C349.74, 134.54 331.68, 99.12 303.95, 76.49C286.58, 62.32 275.13, 39.74 271.97, 14.34C270.96, 6.14 264.22, 0 256.23, 0L240.11, 0C230.6, 0 223.02, 8.57 224.11, 18.35C228.45, 57.46 246.51, 92.88 274.24, 115.51C291.6, 129.68 303.06, 152.26 306.21, 177.65zM480, 256L256, 256L145.07, 172.8A63.99 63.99 0 0 0 106.67, 160L64, 160C28.65, 160 0, 188.65 0, 224L0, 448C0, 483.35 28.65, 512 64, 512L448, 512C483.35, 512 512, 483.35 512, 448L512, 288C512, 270.33 497.67, 256 480, 256zM128, 440C128, 444.42 124.42, 448 120, 448L104, 448C99.58, 448 96, 444.42 96, 440L96, 328C96, 323.58 99.58, 320 104, 320L120, 320C124.42, 320 128, 323.58 128, 328L128, 440zM224, 440C224, 444.42 220.42, 448 216, 448L200, 448C195.58, 448 192, 444.42 192, 440L192, 328C192, 323.58 195.58, 320 200, 320L216, 320C220.42, 320 224, 323.58 224, 328L224, 440zM320, 440C320, 444.42 316.42, 448 312, 448L296, 448C291.58, 448 288, 444.42 288, 440L288, 328C288, 323.58 291.58, 320 296, 320L312, 320C316.42, 320 320, 323.58 320, 328L320, 440zM416, 440C416, 444.42 412.42, 448 408, 448L392, 448C387.58, 448 384, 444.42 384, 440L384, 328C384, 323.58 387.58, 320 392, 320L408, 320C412.42, 320 416, 323.58 416, 328L416, 440zM64, 128C99.35, 128 128, 99.35 128, 64C128, 28.65 99.35, 0 64, 0C28.65, 0 0, 28.65 0, 64C0, 99.35 28.65, 128 64, 128z" fill="#727272" fill-opacity="1" class="Black" />
  </g>
</svg>