<?xml version='1.0' encoding='UTF-8'?>
<svg viewBox="-2.0525 -1.9988 32 32" xmlns="http://www.w3.org/2000/svg">
  <g transform="matrix(0.0546, 0, 0, 0.0546, 0, 0)">
    <path d="M488.56, 23.44A80 80 0 0 0 375.44, 23.44L23.44, 375.44A80 80 0 1 0 136.56, 488.56L488.56, 136.56A80 80 0 0 0 488.56, 23.44zM438.63, 118.63C419.03, 138.22 401.11, 141.3 386.7, 143.77C373.76, 146 364.4, 147.6 352, 160C339.6, 172.4 338, 181.76 335.77, 194.71C333.29, 209.11 330.22, 227.04 310.62, 246.63C291.02, 266.22 273.1, 269.3 258.7, 271.78C245.75, 274 236.4, 275.6 224, 288C211.6, 300.4 210, 309.75 207.77, 322.7C205.3, 337.1 202.23, 355.03 182.63, 374.62C163.03, 394.21 145.1, 397.3 130.7, 399.77C117.76, 402 108.4, 403.6 96, 416A16 16 0 0 1 73.37, 393.37C92.97, 373.78 110.89, 370.7 125.29, 368.23C138.29, 366.01 147.59, 364.41 160, 352C172.41, 339.59 174, 330.25 176.22, 317.3C178.7, 302.9 181.77, 284.97 201.37, 265.38C220.97, 245.79 238.89, 242.71 253.29, 240.24C266.29, 238.02 275.59, 236.41 287.99, 224.01C300.39, 211.61 301.99, 202.25 304.23, 189.3C306.7, 174.9 309.77, 156.97 329.37, 137.38C348.97, 117.79 366.89, 114.7 381.29, 112.23C394.24, 110 403.59, 108.41 416, 96A16 16 0 0 1 438.63, 118.63zM31.44, 322.18L322.18, 31.44L310.64, 19.89C285.64, -5.11 246.79, -6.77 223.85, 16.17L16.17, 223.85C-6.77, 246.79 -5.1, 285.64 19.89, 310.63zM480.56, 189.82L189.82, 480.56L201.36, 492.11C226.36, 517.11 265.21, 518.77 288.15, 495.83L495.83, 288.15C518.77, 265.21 517.1, 226.36 492.11, 201.36z" fill="#727272" fill-opacity="1" class="Black" />
  </g>
</svg>