<?xml version='1.0' encoding='UTF-8'?>
<svg viewBox="-1.9998 -3.5563 31.9975 32" xmlns="http://www.w3.org/2000/svg">
  <g transform="matrix(0.0486, 0, 0, 0.0486, 0, 0)">
    <path d="M560, 64C568.84, 64 576, 56.84 576, 48L576, 16C576, 7.16 568.84, 0 560, 0L16, 0C7.16, 0 0, 7.16 0, 16L0, 48C0, 56.84 7.16, 64 16, 64L31.98, 64L31.98, 448L16, 448C7.16, 448 0, 455.16 0, 464L0, 496C0, 504.84 7.16, 512 16, 512L256, 512L256, 432C256, 423.2 263.2, 416 272, 416L304, 416C312.8, 416 320, 423.2 320, 432L320, 512L560, 512C568.84, 512 576, 504.84 576, 496L576, 464C576, 455.16 568.84, 448 560, 448L544, 448L544, 64L560, 64zM256, 108.8C256, 102.4 262.4, 96 268.8, 96L307.2, 96C313.6, 96 320, 102.4 320, 108.8L320, 147.2C320, 153.6 313.6, 160 307.2, 160L268.8, 160C262.4, 160 256, 153.6 256, 147.2L256, 108.8zM256, 204.8C256, 198.4 262.4, 192 268.8, 192L307.2, 192C313.6, 192 320, 198.4 320, 204.8L320, 243.2C320, 249.6 313.6, 256 307.2, 256L268.8, 256C262.4, 256 256, 249.6 256, 243.2L256, 204.8zM128, 108.8C128, 102.4 134.4, 96 140.8, 96L179.2, 96C185.6, 96 192, 102.4 192, 108.8L192, 147.2C192, 153.6 185.6, 160 179.2, 160L140.8, 160C134.4, 160 128, 153.6 128, 147.2L128, 108.8zM179.2, 256L140.8, 256C134.4, 256 128, 249.6 128, 243.2L128, 204.8C128, 198.4 134.4, 192 140.8, 192L179.2, 192C185.6, 192 192, 198.4 192, 204.8L192, 243.2C192, 249.6 185.6, 256 179.2, 256zM192, 384C192, 330.98 234.98, 288 288, 288C341.02, 288 384, 330.98 384, 384L192, 384zM448, 243.2C448, 249.6 441.6, 256 435.2, 256L396.8, 256C390.4, 256 384, 249.6 384, 243.2L384, 204.8C384, 198.4 390.4, 192 396.8, 192L435.2, 192C441.6, 192 448, 198.4 448, 204.8L448, 243.2zM448, 147.2C448, 153.6 441.6, 160 435.2, 160L396.8, 160C390.4, 160 384, 153.6 384, 147.2L384, 108.8C384, 102.4 390.4, 96 396.8, 96L435.2, 96C441.6, 96 448, 102.4 448, 108.8L448, 147.2z" fill="#727272" fill-opacity="1" class="Black" />
  </g>
</svg>