<?xml version='1.0' encoding='UTF-8'?>
<svg viewBox="-5.499 -1.9999 31.9975 32" xmlns="http://www.w3.org/2000/svg">
  <g transform="matrix(0.0547, 0, 0, 0.0547, 0, 0)">
    <path d="M360, 64C373.255, 64 384, 53.255 384, 40L384, 24C384, 10.745 373.255, 0 360, 0L24, 0C10.745, 0 0, 10.745 0, 24L0, 40C0, 53.255 10.745, 64 24, 64C24, 154.965 75.016, 231.734 144.842, 256C75.016, 280.266 24, 357.035 24, 448C10.745, 448 0, 458.745 0, 472L0, 488C0, 501.255 10.745, 512 24, 512L360, 512C373.255, 512 384, 501.255 384, 488L384, 472C384, 458.745 373.255, 448 360, 448C360, 357.035 308.984, 280.266 239.158, 256C308.984, 231.734 360, 154.965 360, 64z" fill="#727272" fill-opacity="1" class="Black" />
  </g>
</svg>