<?xml version='1.0' encoding='UTF-8'?>
<svg viewBox="-1.9974 -3.5552 31.9975 32" xmlns="http://www.w3.org/2000/svg">
  <g transform="matrix(0.0486, 0, 0, 0.0486, 0, 0)">
    <path d="M288, 114.96L69.47, 307.71C67.85, 309.17 65.78, 309.85 64, 311.06L64, 496C64, 504.84 71.16, 512 80, 512L229.23, 512L192, 439.19L296.11, 375.19L235.95, 255.97L384, 392.75L279.89, 456.75L319.81, 512L496, 512C504.84, 512 512, 504.84 512, 496L512, 311.1C510.3, 309.94 508.28, 309.28 506.74, 307.9L288, 114.96zM570.69, 236.28L512, 184.45L512, 48C512, 39.16 504.84, 32 496, 32L432, 32C423.16, 32 416, 39.16 416, 48L416, 99.69L314.75, 10.31C307.12, 3.45 297.56, 0.01 288, 0C278.44, -0.01 268.9, 3.41 261.3, 10.27L5.31, 236.28C-1.26, 242.19 -1.81, 252.3 4.1, 258.88L25.5, 282.7C31.4, 289.27 41.52, 289.82 48.1, 283.91L277.42, 81.63C283.47, 76.3 292.54, 76.3 298.59, 81.63L527.91, 283.9C534.48, 289.8 544.6, 289.26 550.51, 282.69L571.91, 258.87C577.81, 252.3 577.27, 242.18 570.69, 236.28z" fill="#727272" fill-opacity="1" class="Black" />
  </g>
</svg>