<?xml version='1.0' encoding='UTF-8'?>
<svg viewBox="-1.9998 -3.5563 31.9975 32" xmlns="http://www.w3.org/2000/svg">
  <g transform="matrix(0.0486, 0, 0, 0.0486, 0, 0)">
    <path d="M568, 416L536, 416C531.6, 416 528, 419.6 528, 424L528, 440C528, 453.3 517.3, 464 504, 464L432, 464L432, 416L384, 416L384, 464L144, 464L144, 416L96, 416L96, 464L8, 464C3.6, 464 0, 467.6 0, 472L0, 504C0, 508.4 3.6, 512 8, 512L512, 512C547.3, 512 576, 483.3 576, 448L576, 424C576, 419.6 572.4, 416 568, 416zM64, 384L480, 384C497.7, 384 512, 369.7 512, 352L512, 315C512, 270.9 482, 232.6 439.3, 221.9L320, 192L264, 192C259.6, 192 256, 188.4 256, 184L256, 168C256, 163.6 259.6, 160 264, 160L320, 160L320, 128L264, 128C259.6, 128 256, 124.4 256, 120L256, 104C256, 99.6 259.6, 96 264, 96L320, 96L320, 16C320, 7.2 312.8, 0 304, 0L272, 0C263.2, 0 256, 7.2 256, 16L256, 32L78.4, 82.7C50.9, 90.6 32, 115.7 32, 144.2L32, 352C32, 369.7 46.3, 384 64, 384z" fill="#727272" fill-opacity="1" class="Black" />
  </g>
</svg>