<?xml version='1.0' encoding='UTF-8'?>
<svg viewBox="-2 -3.554 32 32" xmlns="http://www.w3.org/2000/svg">
  <g transform="matrix(0.0486, 0, 0, 0.0486, 0, 0)">
    <path d="M320, 33.9C309.5, 32.7 298.8, 32 288, 32C188.2, 32 100.2, 82.8 48.6, 160L320, 160L320, 33.9zM96, 192L30.3, 192C11.1, 230.6 0, 274 0, 320L96, 320L96, 192zM352, 39.4L352, 160L527.4, 160C487.2, 99.9 424.8, 55.9 352, 39.4zM480, 320L576, 320C576, 274 564.9, 230.6 545.7, 192L480, 192L480, 320zM416, 384L416, 480L544, 480C561.7, 480 576, 465.7 576, 448L576, 352L411.5, 352C414.1, 362.3 416, 372.9 416, 384zM448, 192L128, 192L128, 320L177.8, 320C200, 281.9 240.8, 256 288, 256C335.2, 256 376, 281.9 398.2, 320L448, 320L448, 192zM0, 448C0, 465.7 14.3, 480 32, 480L160, 480L160, 384C160, 372.9 161.9, 362.3 164.5, 352L0, 352L0, 448zM288, 288C235, 288 192, 331 192, 384L192, 480L384, 480L384, 384C384, 331 341, 288 288, 288z" fill="#727272" fill-opacity="1" class="Black" />
  </g>
</svg>