<?xml version='1.0' encoding='UTF-8'?>
<svg viewBox="-2 -3.554 32 32" xmlns="http://www.w3.org/2000/svg">
  <g transform="matrix(0.0486, 0, 0, 0.0486, 0, 0)">
    <path d="M567.938, 243.908L462.25, 85.374A48.003 48.003 0 0 0 422.311, 64L153.689, 64A48 48 0 0 0 113.751, 85.374L8.062, 243.908A47.994 47.994 0 0 0 0, 270.533L0, 400C0, 426.51 21.49, 448 48, 448L528, 448C554.51, 448 576, 426.51 576, 400L576, 270.533A47.994 47.994 0 0 0 567.938, 243.908zM162.252, 128L413.749, 128L499.082, 256L376, 256L344, 320L232, 320L200, 256L76.918, 256L162.252, 128z" fill="#727272" fill-opacity="1" class="Black" />
  </g>
</svg>