<?xml version='1.0' encoding='UTF-8'?>
<svg viewBox="-2 -4.796 32 32" xmlns="http://www.w3.org/2000/svg">
  <g transform="matrix(1.0013, 0, 0, 1.0013, 0, 0)">
    <g transform="matrix(0.0437, 0, 0, 0.0437, 0, 0)">
      <path d="M32, 448C14.33, 448 0, 462.33 0, 480C0, 497.67 14.33, 512 32, 512C49.67, 512 64, 497.67 64, 480C64, 462.33 49.67, 448 32, 448zM32, 256C14.33, 256 0, 270.33 0, 288C0, 305.67 14.33, 320 32, 320C49.67, 320 64, 305.67 64, 288C64, 270.33 49.67, 256 32, 256zM32, 352C14.33, 352 0, 366.33 0, 384C0, 401.67 14.33, 416 32, 416C49.67, 416 64, 401.67 64, 384C64, 366.33 49.67, 352 32, 352zM128, 304C110.33, 304 96, 318.33 96, 336C96, 353.67 110.33, 368 128, 368C145.67, 368 160, 353.67 160, 336C160, 318.33 145.67, 304 128, 304zM616.27, 38.02L478.47, 1.1C461.4, -3.47 443.85, 6.66 439.28, 23.73L423.87, 81.25L592.61, 249.99L638.9, 77.21C643.48, 60.14 633.35, 42.6 616.27, 38.02zM409.19, 111.82C400.45, 103.08 385.53, 107.12 382.4, 119.08L346.49, 256L224, 256C206.33, 256 192, 270.33 192, 288L192, 480C192, 497.67 206.33, 512 224, 512L519.31, 512C533.86, 512 546.57, 502.19 550.26, 488.12L594.48, 319.53C597.36, 308.53 594.19, 296.82 586.15, 288.78L409.19, 111.82zM128, 400C110.33, 400 96, 414.33 96, 432C96, 449.67 110.33, 464 128, 464C145.67, 464 160, 449.67 160, 432C160, 414.33 145.67, 400 128, 400z" fill="#727272" fill-opacity="1" class="Black" />
    </g>
  </g>
</svg>