<?xml version='1.0' encoding='UTF-8'?>
<svg viewBox="-3.7505 -1.9998 32 31.9975" xmlns="http://www.w3.org/2000/svg">
  <g transform="matrix(0.0547, 0, 0, 0.0547, 0, 0)">
    <path d="M336.53, 32C301.65, 32 270.87, 45.82 250.23, 67.08C235.78, 28.29 193.72, 0 143.47, 0C87, 0 40.31, 35.43 32.18, 81.64A12.38 12.38 0 0 0 44.6, 96L80, 96L96, 64L112, 96L142.17, 96C107.96, 131 102.55, 182.88 127.63, 218.58C131.99, 224.78 140.77, 225.89 146.13, 220.53L217.13, 149.53C221.13, 229.15 206.13, 309.15 196.13, 352.03L142.8, 352.03A144 144 0 0 0 0.36, 474.78C-2.53, 494.3 12.39, 512 32.12, 512L352, 512C370.46, 512 386.11, 496.26 383.8, 477.95C376.8, 422.27 336.74, 376.95 284.8, 359.82C295, 271.13 277.48, 176.14 266.28, 128L368, 128L384, 96L400, 128L435.4, 128A12.38 12.38 0 0 0 447.82, 113.64C439.69, 67.43 393, 32 336.53, 32z" fill="#727272" fill-opacity="1" class="Black" />
  </g>
</svg>