<?xml version='1.0' encoding='UTF-8'?>
<svg viewBox="-6 0 32 32" xmlns="http://www.w3.org/2000/svg">
  <g transform="matrix(0.0625, 0, 0, 0.0625, 0, 0)">
    <path d="M320, 48L320, 80A16 16 0 0 1 304, 96L241.24, 96L161.24, 416L208, 416A16 16 0 0 1 224, 432L224, 464A16 16 0 0 1 208, 480L16, 480A16 16 0 0 1 0, 464L0, 432A16 16 0 0 1 16, 416L78.76, 416L158.76, 96L112, 96A16 16 0 0 1 96, 80L96, 48A16 16 0 0 1 112, 32L304, 32A16 16 0 0 1 320, 48z" fill="#727272" fill-opacity="1" class="Black" />
  </g>
</svg>