<?xml version='1.0' encoding='UTF-8'?>
<svg viewBox="-1.9975 -3.553 32 32" xmlns="http://www.w3.org/2000/svg">
  <g transform="matrix(0.0486, 0, 0, 0.0486, 0, 0)">
    <path d="M352, 106.6L352, 35.81C352, 29.75 348.58, 24.21 343.16, 21.5L303.56, 1.7C295.19, -2.49 285.02, 1.38 281.55, 10.07L245.49, 100.22C258.62, 97.58 272.65, 96 288, 96C312.28, 96 333.23, 99.99 352, 106.6zM495.3, 153.13C468.3, 130.04 429.94, 123.37 395.81, 132.2C401.9, 137.7 407.97, 143.22 413, 150C416.1, 154.26 418.46, 159.42 421.15, 164.17C389.39, 140.55 345.54, 128 288, 128C230.46, 128 186.61, 140.54 154.85, 164.17C157.54, 159.42 159.89, 154.26 163, 150C168.02, 143.22 174.1, 137.71 180.19, 132.2C146.06, 123.37 107.7, 130.04 80.7, 153.13C-26.9, 245.14 -26.9, 394.85 80.7, 486.87C119.33, 519.9 181.52, 520.21 220.82, 488.12C238.65, 503.51 260.72, 512 288, 512C315.28, 512 337.35, 503.51 355.19, 488.12C394.49, 520.21 456.68, 519.9 495.31, 486.87C602.9, 394.86 602.9, 245.14 495.3, 153.13zM320.85, 278L362, 211.33C364.33, 206.76 370.6, 206.91 374, 211.33L415.15, 278C416.81, 281.25 416.05, 288 409.15, 288L326.86, 288C319.96, 288 319.16, 281.31 320.85, 278zM160.85, 278L202, 211.33C204.33, 206.76 210.6, 206.91 214, 211.33L255.15, 278C256.81, 281.25 256.05, 288 249.15, 288L166.86, 288C159.96, 288 159.16, 281.31 160.85, 278zM469.8, 345.6C463.84, 362.64 457.05, 374.22 451.1, 382.56C441.72, 395.5 429.76, 406.36 415.91, 415.55C415.66, 406.93 408.68, 400 400, 400L384, 400C375.16, 400 368, 407.16 368, 416L368, 437.48C344.54, 444.36 317.84, 448 288.02, 448C258.17, 448 231.46, 444.35 208, 437.49L208, 416C208, 407.16 200.84, 400 192, 400L176, 400C167.3, 400 160.29, 406.97 160.08, 415.63C146.37, 406.55 134.55, 395.84 125.33, 383.12C119.21, 374.53 112.31, 362.81 106.29, 345.66C101.42, 331.77 116.85, 319.51 129.53, 326.99C162.47, 346.43 199.92, 359.73 240, 365.83L240, 384C240, 392.84 247.16, 400 256, 400L272, 400C280.84, 400 288, 392.84 288, 384L288, 369.74L288.02, 369.74C346.4, 369.74 400.74, 354 446.56, 326.95C459.22, 319.47 474.65, 331.72 469.8, 345.6z" fill="#727272" fill-opacity="1" class="Black" />
  </g>
</svg>