<?xml version='1.0' encoding='UTF-8'?>
<svg viewBox="-2 -4.7992 32 32" xmlns="http://www.w3.org/2000/svg">
  <g transform="matrix(0.9988, 0, 0, 0.9988, 0, 0)">
    <g transform="matrix(0.0438, 0, 0, 0.0438, 0, 0)">
      <path d="M444.34, 181.1C466.72, 196.78 480, 222.26 480, 249.69L480, 280C480, 284.42 483.58, 288 488, 288L536, 288C540.42, 288 544, 284.42 544, 280L544, 249.69C544, 206.45 522.99, 166.28 487.66, 141.63C463.85, 125.02 448, 99.34 448, 70.31L448, 8C448, 3.58 444.42, 0 440, 0L392, 0C387.58, 0 384, 3.58 384, 8L384, 74.4C384, 118.09 408.56, 156.03 444.34, 181.1zM194.97, 358.98C126.03, 370.07 59.69, 394.69 0, 432C83.65, 484.28 180.3, 512 278.94, 512L367.51, 512L254.79, 380.49C240.05, 363.29 217.34, 355.38 194.97, 358.98zM553.28, 87.09C547.61, 83.29 544, 77.13 544, 70.31L544, 8C544, 3.58 540.42, 0 536, 0L488, 0C483.58, 0 480, 3.58 480, 8L480, 70.31C480, 92.33 490.17, 113.72 508.64, 125.7C550.79, 153.04 576, 199.54 576, 249.69L576, 280C576, 284.42 579.58, 288 584, 288L632, 288C636.42, 288 640, 284.42 640, 280L640, 249.69C640, 184.25 607.59, 123.5 553.28, 87.09zM360.89, 352.05C326.49, 352.11 274.08, 352.2 272.68, 352.22L390.48, 489.65A63.987 63.987 0 0 0 439.07, 512L527.52, 512L409.57, 374.4A63.955 63.955 0 0 0 360.89, 352.05zM616, 352L432, 352L549.99, 489.65A63.987 63.987 0 0 0 598.58, 512L616, 512C629.25, 512 640, 501.25 640, 488L640, 376C640, 362.74 629.25, 352 616, 352z" fill="#727272" fill-opacity="1" class="Black" />
    </g>
  </g>
</svg>