<?xml version='1.0' encoding='UTF-8'?>
<svg viewBox="-3.7495 -2 32 32" xmlns="http://www.w3.org/2000/svg">
  <g transform="matrix(0.0547, 0, 0, 0.0547, 0, 0)">
    <path d="M448, 358.4L448, 25.6C448, 9.6 438.4, 0 422.4, 0L96, 0C41.6, 0 0, 41.6 0, 96L0, 416C0, 470.4 41.6, 512 96, 512L422.4, 512C435.2, 512 448, 502.4 448, 486.4L448, 470.4C448, 464 444.8, 457.6 438.4, 451.2C435.2, 435.2 435.2, 390.4 438.4, 377.6C444.8, 374.4 448, 368 448, 358.4zM133.08, 144.39L154.34, 165.65C155.9, 167.21 157.95, 167.99 160, 167.99C162.05, 167.99 164.09, 167.21 165.66, 165.65C168.78, 162.53 168.78, 157.46 165.66, 154.34L139.24, 127.92C149.24, 107.02 165.48, 89.95 185.61, 78.66C179.62, 88.4 176, 99.74 176, 112C176, 131.96 185.33, 149.57 199.66, 161.31C190.01, 171.37 184, 184.96 184, 200C184, 226.94 203.04, 249.4 228.38, 254.76L229.74, 222.05L219.37, 229.09C218.68, 229.54 217.9, 229.78 217.12, 229.78C216.12, 229.78 215.14, 229.4 214.37, 228.69A4.006 4.006 0 0 1 213.68, 223.74L222.22, 209.43L204.31, 205.71C202.45, 205.32 201.12, 203.68 201.12, 201.79C201.12, 199.9 202.45, 198.26 204.31, 197.87L222.22, 194.15L213.68, 179.84C212.73, 178.23 213.01, 176.17 214.37, 174.89C215.73, 173.59 217.81, 173.45 219.37, 174.48L231.38, 182.64L236, 71.83C236.09, 69.69 237.86, 68 240, 68C242.14, 68 243.91, 69.69 244, 71.83L248.68, 184.12L262.88, 174.47A4.067 4.067 0 0 1 267.88, 174.88A4.006 4.006 0 0 1 268.57, 179.83L260.03, 194.14L277.94, 197.86C279.8, 198.25 281.13, 199.89 281.13, 201.78C281.13, 203.67 279.8, 205.31 277.94, 205.7L260.03, 209.42L268.57, 223.73C269.52, 225.34 269.24, 227.4 267.88, 228.68C267.11, 229.4 266.11, 229.77 265.13, 229.77C264.35, 229.77 263.57, 229.54 262.88, 229.08L250.2, 220.46L251.63, 254.74C276.96, 249.4 296, 226.94 296, 200C296, 184.96 289.99, 171.37 280.34, 161.31C294.67, 149.57 304, 131.96 304, 112C304, 99.74 300.38, 88.4 294.4, 78.67C314.53, 89.95 330.77, 107.03 340.77, 127.93L314.35, 154.35C311.23, 157.47 311.23, 162.54 314.35, 165.66C315.91, 167.22 317.96, 168 320.01, 168C322.06, 168 324.1, 167.22 325.67, 165.66L346.93, 144.4C349.9, 154.48 352, 164.95 352, 176C352, 176.52 351.86, 176.99 351.85, 177.51L314.74, 209.98A7.975 7.975 0 0 0 313.99, 221.26A7.97 7.97 0 0 0 320.01, 223.99C321.89, 223.99 323.76, 223.33 325.28, 222.01L348.87, 201.37C337.32, 250.96 293.09, 288 240, 288C186.91, 288 142.68, 250.96 131.14, 201.38L154.73, 222.02A7.957 7.957 0 0 0 160, 224C162.22, 224 164.44, 223.08 166.02, 221.27C168.94, 217.94 168.6, 212.89 165.27, 209.99L128.16, 177.52C128.15, 177 128.01, 176.53 128.01, 176.01C128, 164.95 130.1, 154.48 133.08, 144.39zM380.8, 448L96, 448C76.8, 448 64, 435.2 64, 416C64, 396.8 80, 384 96, 384L380.8, 384L380.8, 448z" fill="#727272" fill-opacity="1" class="Black" />
  </g>
</svg>