<?xml version='1.0' encoding='UTF-8'?>
<svg viewBox="-2.8722 -2 32 32" xmlns="http://www.w3.org/2000/svg">
  <g transform="matrix(0.0547, 0, 0, 0.0547, 0, 0)">
    <path d="M448, 168A71.72 71.72 0 0 0 321.32, 121.65L311, 108.77A31.66 31.66 0 0 1 305.23, 96L142.77, 96A31.66 31.66 0 0 1 137, 108.77L60.05, 204.94A128 128 0 0 0 32.05, 284.94L32.05, 448A64 64 0 0 0 96.05, 512L352, 512A64 64 0 0 0 416, 448L416, 284.9A127.59 127.59 0 0 0 404.9, 233.9A72 72 0 0 0 448, 168zM352, 384A32 32 0 0 1 320, 416L128, 416A32 32 0 0 1 96, 384L96, 320A32 32 0 0 1 128, 288L320, 288A32 32 0 0 1 352, 320zM377.38, 191.72L353.29, 161.62C356.14, 151.54 365, 144 376, 144A23.88 23.88 0 0 1 377.38, 191.72zM152, 64L296, 64A23.94 23.94 0 0 0 320, 40L320, 24A23.94 23.94 0 0 0 296, 0L152, 0A23.94 23.94 0 0 0 128, 24L128, 40A23.94 23.94 0 0 0 152, 64z" fill="#727272" fill-opacity="1" class="Black" />
  </g>
</svg>