<?xml version='1.0' encoding='UTF-8'?>
<svg viewBox="-1.9999 -1.9999 32 32" xmlns="http://www.w3.org/2000/svg">
  <g transform="matrix(0.0547, 0, 0, 0.0547, 0, 0)">
    <path d="M512, 176.001C512, 273.203 433.202, 352 336, 352C324.78, 352 313.81, 350.938 303.173, 348.931L279.161, 375.945A23.999 23.999 0 0 1 261.223, 384L224, 384L224, 424C224, 437.255 213.255, 448 200, 448L160, 448L160, 488C160, 501.255 149.255, 512 136, 512L24, 512C10.745, 512 0, 501.255 0, 488L0, 409.941C0, 403.576 2.529, 397.471 7.029, 392.97L168.831, 231.168C163.108, 213.814 160, 195.271 160, 176C160, 78.798 238.797, 0.001 335.999, 0C433.488, -0.001 512, 78.511 512, 176.001zM336, 128C336, 154.51 357.49, 176 384, 176C410.51, 176 432, 154.51 432, 128C432, 101.49 410.51, 80 384, 80C357.49, 80 336, 101.49 336, 128z" fill="#727272" fill-opacity="1" class="Black" />
  </g>
</svg>