<?xml version='1.0' encoding='UTF-8'?>
<svg viewBox="-1.9949 -4.7939 32 32" xmlns="http://www.w3.org/2000/svg">
  <g transform="matrix(1.0014, 0, 0, 1.0014, 0, 0)">
    <g transform="matrix(0.0437, 0, 0, 0.0437, 0, 0)">
      <path d="M231.6, 32.07C196.27, -7.49 135.56, -10.92 95.98, 24.38C36.08, 77.85 2.39, 149.96 0.13, 224C-1.15, 266.04 7.6, 294.91 13.02, 314.06C24.96, 356.37 63.48, 383.99 105.37, 383.99C169.68, 383.99 215.02, 322.52 197.84, 261.88C196.8, 258.18 174.76, 211.45 223.91, 167.61C263.49, 132.31 266.93, 71.63 231.6, 32.07zM303.87, 267.77C303.87, 246.46 292.03, 227.27 272.9, 217.68L237.06, 199.76C228.49, 209.88 220.51, 224.71 225.4, 242.02L227.22, 248.51L251.43, 260.62C254.15, 261.99 255.87, 264.71 255.87, 267.78L255.87, 479.99L255.89, 496C255.89, 504.84 263.05, 512 271.89, 512L287.89, 512C296.73, 512 303.89, 504.84 303.89, 496L303.87, 448L303.87, 267.77zM366.84, 217.68C347.75, 227.27 335.87, 246.46 335.87, 267.77L335.89, 479.98L335.89, 496C335.89, 504.84 343.05, 512 351.89, 512L367.89, 512C376.73, 512 383.89, 504.84 383.89, 496L383.87, 448L383.87, 267.77C383.87, 264.74 385.59, 261.99 388.34, 260.61L412.21, 248.67L414.34, 241.28C419.23, 224.34 411.26, 209.72 402.73, 199.72L366.84, 217.68zM543.89, 24.3C504.34, -10.92 443.56, -7.45 408.3, 32.2C373.03, 71.79 376.57, 132.47 416.21, 167.72C465.81, 211.84 442.7, 258.87 441.97, 261.43C424.49, 322 469.62, 384 534.29, 384C576.03, 384 614.42, 356.63 626.55, 314.54C632.09, 295.27 641.09, 266.46 639.9, 224C637.81, 149.97 604.09, 77.84 543.89, 24.3z" fill="#727272" fill-opacity="1" class="Black" />
    </g>
  </g>
</svg>