<?xml version='1.0' encoding='UTF-8'?>
<svg viewBox="-1.9999 -1.549 31.9975 32" xmlns="http://www.w3.org/2000/svg">
  <g transform="matrix(0.999, 0, 0, 0.999, 0, 0)">
    <g transform="matrix(0.0565, 0, 0, 0.0565, 0, 0)">
      <path d="M248, 8C111, 8 0, 119 0, 256C0, 393 111, 504 248, 504C385, 504 496, 393 496, 256C496, 119 385, 8 248, 8zM209, 227.9L199.5, 210.9C191.8, 197.2 180.3, 189.3 168, 189.3C155.7, 189.3 144.2, 197.2 136.5, 210.9L127, 227.9C122.8, 235.3 111.4, 231.9 112.1, 223.4C115.4, 181.3 144.3, 152 168.1, 152C191.9, 152 220.8, 181.3 224.1, 223.4C224.6, 231.9 213.2, 235.4 209, 227.9zM304, 396C304, 415.2 275.3, 437.5 232.5, 440C224, 440.8 220.4, 428.2 228.9, 424.6L245.9, 417.4C258.9, 411.9 266.7, 403.9 266.7, 395.9C266.7, 387.9 258.9, 379.9 245.9, 374.4L228.9, 367.2C222.9, 364.7 222.8, 355 228.9, 352.4L245.9, 345.2C258.9, 339.7 266.7, 331.7 266.7, 323.7C266.7, 315.7 258.9, 307.7 245.9, 302.2L228.9, 295C220.3, 291.4 224.1, 278.5 232.5, 279.6C275.3, 282.1 304, 304.4 304, 323.6C304, 336.6 290.6, 350.9 268.8, 359.6C290.6, 368.7 304, 383 304, 396zM369, 227.9L359.5, 210.9C351.8, 197.2 340.3, 189.3 328, 189.3C315.7, 189.3 304.2, 197.2 296.5, 210.9L287, 227.9C282.9, 235.2 271.4, 231.9 272.1, 223.4C275.4, 181.3 304.3, 152 328.1, 152C351.9, 152 380.8, 181.3 384.1, 223.4C384.6, 231.9 373.2, 235.4 369, 227.9z" fill="#727272" fill-opacity="1" class="Black" />
    </g>
  </g>
</svg>