<?xml version='1.0' encoding='UTF-8'?>
<svg viewBox="-2 -3.553 32 32" xmlns="http://www.w3.org/2000/svg">
  <g transform="matrix(0.0486, 0, 0, 0.0486, 0, 0)">
    <path d="M575.81, 217.98C572.64, 157.41 518.28, 112 457.63, 112L448.26, 112C395.44, 112 344.01, 95.75 300.52, 65.76C258.53, 36.8 204.48, 24.14 147.31, 37.06C129.3, 41.12 -0.08, 78.24 0, 224C0.04, 294.95 38.68, 356.8 95.99, 390.01L95.99, 464C95.99, 472.84 103.15, 480 111.99, 480L127.99, 480C136.83, 480 143.99, 472.84 143.99, 464L143.99, 409.74C159.35, 413.7 175.39, 416 191.99, 416C197.43, 416 202.67, 415.27 207.99, 414.82L207.99, 464C207.99, 472.84 215.15, 480 223.99, 480L239.99, 480C248.83, 480 255.99, 472.84 255.99, 464L255.99, 404.57C270.23, 399.51 283.87, 393.18 296.33, 385.06C342.07, 355.25 393.86, 336 448.46, 336C473.94, 336 464.47, 335.69 471.51, 335.22L545.92, 471.66C548.78, 476.89 554.22, 480 559.97, 480C561.28, 480 562.61, 479.84 563.92, 479.5C571.01, 477.7 575.97, 471.31 575.97, 464C575.97, 464 576.11, 223.76 575.81, 217.98zM463.97, 248C450.72, 248 439.97, 237.25 439.97, 224C439.97, 210.74 450.72, 200 463.97, 200C477.22, 200 487.97, 210.74 487.97, 224C487.97, 237.25 477.22, 248 463.97, 248zM543.97, 401.25L504.11, 328.17C519.23, 322.34 532.84, 313.57 543.97, 302.19L543.97, 401.25z" fill="#727272" fill-opacity="1" class="Black" />
  </g>
</svg>