<?xml version='1.0' encoding='UTF-8'?>
<svg viewBox="-1.9975 -3.553 32 32" xmlns="http://www.w3.org/2000/svg">
  <g transform="matrix(0.0486, 0, 0, 0.0486, 0, 0)">
    <path d="M267.52, 216.6L4.87, 469.83C-3.85, 478.24 -0.35, 492.56 11.36, 496.32C125.2, 532.91 250.72, 504.34 335.57, 422.53L396.61, 363.68C403.09, 357.43 403.09, 347.3 396.61, 341.05L267.52, 216.6zM566.28, 43.31L531.07, 9.37C518.11, -3.13 497.09, -3.13 484.13, 9.37L291.82, 194.77L403.92, 302.85L438.27, 275.14C444.49, 269.14 447.99, 261 447.99, 252.51L447.99, 208L566.28, 88.57C579.24, 76.07 579.24, 55.81 566.28, 43.31zM444.24, 149.66C437.76, 155.91 427.25, 155.91 420.77, 149.66C414.29, 143.41 414.29, 133.28 420.77, 127.03C427.25, 120.78 437.76, 120.78 444.24, 127.03C450.72, 133.28 450.72, 143.41 444.24, 149.66zM504.76, 91.31C498.28, 97.56 487.77, 97.56 481.29, 91.31C474.81, 85.06 474.81, 74.93 481.29, 68.68C487.77, 62.43 498.28, 62.43 504.76, 68.68C511.24, 74.93 511.24, 85.07 504.76, 91.31z" fill="#727272" fill-opacity="1" class="Black" />
  </g>
</svg>