<?xml version='1.0' encoding='UTF-8'?>
<svg viewBox="-3.7492 -1.9998 32 31.9975" xmlns="http://www.w3.org/2000/svg">
  <g transform="matrix(0.0547, 0, 0, 0.0547, 0, 0)">
    <path d="M445.5, 211.4L368, 19.4C363.3, 7.6 352.4, 0 340.4, 0L120.6, 0C109.2, 0 98.8, 6.8 93.6, 17.7L3.2, 209.7C-6.8, 231 7.8, 256 30.2, 256L417.9, 256C439.5, 256 454.1, 232.5 445.5, 211.4zM158.3, 288C121, 325.2 96, 386.8 96, 428.8C96, 457.2 107.5, 483.1 126.5, 503.1C132.2, 509.1 140.4, 512 148.7, 512L299.3, 512C307.6, 512 315.8, 509.1 321.5, 503.1C340.5, 483 352, 457.2 352, 428.8C352, 386.8 327, 325.2 289.7, 288L158.3, 288z" fill="#727272" fill-opacity="1" class="Black" />
  </g>
</svg>