<?xml version='1.0' encoding='UTF-8'?>
<svg viewBox="-2 -1.9988 32 32" xmlns="http://www.w3.org/2000/svg">
  <g transform="matrix(0.0547, 0, 0, 0.0547, 0, 0)">
    <path d="M501.62, 92.11L267.24, 2.04A31.958 31.958 0 0 0 244.77, 2.04L10.38, 92.11A16.001 16.001 0 0 0 0, 107.09L0, 144C0, 152.84 7.16, 160 16, 160L496, 160C504.84, 160 512, 152.84 512, 144L512, 107.09C512, 100.42 507.86, 94.45 501.62, 92.11zM64, 192L64, 352L48, 352C39.16, 352 32, 359.16 32, 368L32, 416L480, 416L480, 368C480, 359.16 472.84, 352 464, 352L448, 352L448, 192L384, 192L384, 352L288, 352L288, 192L224, 192L224, 352L128, 352L128, 192L64, 192zM496, 448L16, 448C7.16, 448 0, 455.16 0, 464L0, 496C0, 504.84 7.16, 512 16, 512L496, 512C504.84, 512 512, 504.84 512, 496L512, 464C512, 455.16 504.84, 448 496, 448z" fill="#727272" fill-opacity="1" class="Black" />
  </g>
</svg>