<?xml version='1.0' encoding='UTF-8'?>
<svg viewBox="-2 -2 32 32" xmlns="http://www.w3.org/2000/svg">
  <g transform="matrix(0.0547, 0, 0, 0.0547, 0, 0)">
    <path d="M48, 256L464, 256C472.8, 256 480, 248.8 480, 240L480, 208C480, 199.2 472.8, 192 464, 192L445.1, 192C431.6, 111.7 368.3, 48.4 288, 34.9L288, 16C288, 7.2 280.8, 0 272, 0L240, 0C231.2, 0 224, 7.2 224, 16L224, 34.9C143.7, 48.4 80.4, 111.7 66.9, 192L48, 192C39.2, 192 32, 199.2 32, 208L32, 240C32, 248.8 39.2, 256 48, 256zM496, 448L480, 448L480, 432C480, 423.2 472.8, 416 464, 416L448, 416L448, 288L384, 288L384, 416L288, 416L288, 288L224, 288L224, 416L128, 416L128, 288L64, 288L64, 416L48, 416C39.2, 416 32, 423.2 32, 432L32, 448L16, 448C7.2, 448 0, 455.2 0, 464L0, 496C0, 504.8 7.2, 512 16, 512L496, 512C504.8, 512 512, 504.8 512, 496L512, 464C512, 455.2 504.8, 448 496, 448z" fill="#727272" fill-opacity="1" class="Black" />
  </g>
</svg>