<?xml version='1.0' encoding='UTF-8'?>
<svg viewBox="-1.9998 -3.5563 31.9975 32" xmlns="http://www.w3.org/2000/svg">
  <g transform="matrix(0.0486, 0, 0, 0.0486, 0, 0)">
    <path d="M288, 0C126.5, 0 0, 79.63 0, 181.3C0, 231.08 30.22, 277.14 85, 311C88.52, 313.17 92.37, 315.29 96.3, 317.41C96.3, 318.3 95.97, 319.12 95.97, 320.01C95.97, 355.36 131.79, 384.01 175.97, 384.01C176.66, 384.01 177.3, 383.86 177.97, 383.85A68.71 68.71 0 0 1 180.66, 401.75A45.7 45.7 0 0 1 134.94, 448L48, 448A16 16 0 0 0 32, 463.94L32, 496.06A16 16 0 0 0 48, 512L134.94, 512C194.32, 512 243.74, 464.78 244.7, 405.62A135 135 0 0 0 238, 360A468.23 468.23 0 0 0 288, 362.58C449.5, 362.58 576, 282.95 576, 181.3C576, 79.65 449.5, 0 288, 0zM288, 298.82C275.27, 298.82 262.77, 298.01 250.4, 296.82C238.79, 273 210, 256 176, 256A94.36 94.36 0 0 0 134.8, 265.4C129.22, 262.54 123.48, 259.71 118.75, 256.79C98.31, 244.17 64, 217.57 64, 181.3C64, 118.69 168.69, 63.76 288, 63.76C407.31, 63.76 512, 118.69 512, 181.3C512, 243.91 407.31, 298.82 288, 298.82z" fill="#727272" fill-opacity="1" class="Black" />
  </g>
</svg>