<?xml version='1.0' encoding='UTF-8'?>
<svg viewBox="-1.9999 -1.549 31.9975 32" xmlns="http://www.w3.org/2000/svg">
  <g transform="matrix(0.999, 0, 0, 0.999, 0, 0)">
    <g transform="matrix(0.0565, 0, 0, 0.0565, 0, 0)">
      <path d="M248, 8C111, 8 0, 119 0, 256C0, 393 111, 504 248, 504C385, 504 496, 393 496, 256C496, 119 385, 8 248, 8zM328, 160C345.7, 160 360, 174.3 360, 192C360, 209.7 345.7, 224 328, 224C310.3, 224 296, 209.7 296, 192C296, 174.3 310.3, 160 328, 160zM168, 160C185.7, 160 200, 174.3 200, 192C200, 209.7 185.7, 224 168, 224C150.3, 224 136, 209.7 136, 192C136, 174.3 150.3, 160 168, 160zM256, 432L240, 432C166.6, 432 106, 377 97.1, 306C95.9, 296.5 103.4, 288 113, 288L383, 288C392.6, 288 400.1, 296.4 398.9, 306C390, 377 329.4, 432 256, 432z" fill="#727272" fill-opacity="1" class="Black" />
    </g>
  </g>
</svg>