<?xml version='1.0' encoding='UTF-8'?>
<svg viewBox="-1.9973 -2.0011 31.995 32" xmlns="http://www.w3.org/2000/svg">
  <g transform="matrix(0.0547, 0, 0, 0.0547, 0, 0)">
    <path d="M304, 144L368, 144L368, 208C368, 216.84 375.16, 224 384, 224L416, 224C424.84, 224 432, 216.84 432, 208L432, 144L496, 144C504.84, 144 512, 136.84 512, 128L512, 96C512, 87.16 504.84, 80 496, 80L432, 80L432, 16C432, 7.16 424.84, 0 416, 0L384, 0C375.16, 0 368, 7.16 368, 16L368, 80L304, 80C295.16, 80 288, 87.16 288, 96L288, 128C288, 136.84 295.16, 144 304, 144zM499.59, 364.1L441.05, 337.57L279.86, 410.63C272.3, 414.06 264.27, 415.8 256, 415.8C247.73, 415.8 239.71, 414.06 232.14, 410.63L70.95, 337.57L12.41, 364.1C-4.14, 371.6 -4.14, 396.6 12.41, 404.1L245.35, 509.69C252.15, 512.77 259.84, 512.77 266.64, 509.69L499.59, 404.1C516.14, 396.6 516.14, 371.6 499.59, 364.1zM12.41, 275.9L245.35, 381.49C252.15, 384.57 259.84, 384.57 266.64, 381.49L448, 299.28L448, 280.7C432.68, 285.08 416.73, 287.99 400, 287.99C311.99, 287.99 239.28, 223.32 226.28, 138.95L12.41, 235.9C-4.14, 243.4 -4.14, 268.4 12.41, 275.9z" fill="#727272" fill-opacity="1" class="Black" />
  </g>
</svg>