<?xml version='1.0' encoding='UTF-8'?>
<svg viewBox="-1.9973 -2.0011 31.995 32" xmlns="http://www.w3.org/2000/svg">
  <g transform="matrix(0.0547, 0, 0, 0.0547, 0, 0)">
    <path d="M12.41, 276.3L245.35, 381.89C252.15, 384.97 259.84, 384.97 266.64, 381.89L499.59, 276.3C516.14, 268.8 516.14, 243.8 499.59, 236.3L266.65, 130.72A25.682 25.682 0 0 0 245.36, 130.72L12.41, 236.3C-4.14, 243.8 -4.14, 268.8 12.41, 276.3zM304, 64L496, 64C504.84, 64 512, 56.84 512, 48L512, 16C512, 7.16 504.84, 0 496, 0L304, 0C295.16, 0 288, 7.16 288, 16L288, 48C288, 56.84 295.16, 64 304, 64zM499.59, 364.1L441.5, 337.77L279.87, 411.04C272.31, 414.47 264.28, 416.21 256.01, 416.21C247.74, 416.21 239.72, 414.47 232.15, 411.04L70.51, 337.77L12.41, 364.1C-4.14, 371.6 -4.14, 396.6 12.41, 404.1L245.35, 509.69C252.15, 512.77 259.84, 512.77 266.64, 509.69L499.59, 404.1C516.14, 396.6 516.14, 371.6 499.59, 364.1z" fill="#727272" fill-opacity="1" class="Black" />
  </g>
</svg>