<?xml version='1.0' encoding='UTF-8'?>
<svg viewBox="-1.9999 -1.9974 32 31.9975" xmlns="http://www.w3.org/2000/svg">
  <g transform="matrix(0.0547, 0, 0, 0.0547, 0, 0)">
    <path d="M503.58, 166.05L466.34, 143.71L476.2, 54.93C477.43, 43.89 468.1, 34.56 457.06, 35.79L368.28, 45.65L345.95, 8.42C339.32, -2.63 323.38, -2.84 316.46, 8.03L226.86, 148.82L243.44, 83.98C246.24, 71.4 234.82, 60.28 222.32, 63.4L196.6, 77.22L151.3, 25.89C144.36, 17.22 131.17, 17.22 124.23, 25.89L78.93, 77.22L53.2, 63.41C40.7, 60.29 29.28, 71.41 32.08, 83.99L65.12, 244.18L28.03, 260.07C14.02, 266.07 14.02, 285.93 28.03, 291.94L130.78, 335.98L9.37, 457.38C-3.13, 469.88 -3.13, 490.13 9.37, 502.63C15.62, 508.88 23.81, 512 32, 512C40.19, 512 48.37, 508.88 54.62, 502.62L257, 300.25L190.9, 415.92L220.06, 483.97C226.07, 497.98 245.93, 497.98 251.93, 483.97L267.82, 446.88L428.01, 479.92C440.59, 482.71 451.71, 471.3 448.59, 458.8L434.78, 433.08L486.1, 387.78C494.77, 380.84 494.77, 367.65 486.1, 360.71L434.78, 315.41L448.59, 289.69C451.71, 277.19 440.59, 265.77 428.01, 268.57L363.17, 285.15L503.96, 195.56C514.84, 188.62 514.63, 172.68 503.58, 166.05z" fill="#727272" fill-opacity="1" class="Black" />
  </g>
</svg>