<?xml version='1.0' encoding='UTF-8'?>
<svg viewBox="-2.9329 -1.0619 32 31.995" xmlns="http://www.w3.org/2000/svg">
  <g transform="matrix(0.0583, 0, 0, 0.0583, 0, 0)">
    <path d="M54.98, 214.2L356.39, 334.07C374.78, 340.1 395.1, 331.53 401.77, 314.92L413.86, 284.84C420.54, 268.23 411.04, 249.87 392.65, 243.84L217.21, 175.79L392.77, 107.7C411.06, 101.7 420.51, 83.43 413.87, 66.91L401.84, 36.99C395.2, 20.46 374.98, 11.93 356.69, 17.93L54.98, 137.89C41.21, 142.41 32, 154.5 32, 168.07L32, 184.03C32, 197.59 41.21, 209.68 54.98, 214.2zM424, 400L24, 400C10.75, 400 0, 410.74 0, 424L0, 472C0, 485.25 10.75, 496 24, 496L424, 496C437.25, 496 448, 485.25 448, 472L448, 424C448, 410.74 437.25, 400 424, 400z" fill="#727272" fill-opacity="1" class="Black" />
  </g>
</svg>