<?xml version='1.0' encoding='UTF-8'?>
<svg viewBox="-7.2474 -2 32 32" xmlns="http://www.w3.org/2000/svg">
  <g transform="matrix(0.0547, 0, 0, 0.0547, 0, 0)">
    <path d="M313.553, 119.669L209.587, 7.666C200.102, -2.548 183.911, -2.563 174.413, 7.666L70.438, 119.669C56.232, 134.969 67.062, 160 88.025, 160L152, 160L152, 432L68.024, 432A11.996 11.996 0 0 0 59.539, 435.515L3.539, 491.515C-4.021, 499.074 1.333, 512 12.024, 512L208, 512C221.255, 512 232, 501.255 232, 488L232, 160L295.966, 160C316.844, 160 327.817, 135.031 313.553, 119.669z" fill="#727272" fill-opacity="1" class="Black" />
  </g>
</svg>