<?xml version='1.0' encoding='UTF-8'?>
<svg viewBox="-7.2472 -1.9999 32 32" xmlns="http://www.w3.org/2000/svg">
  <g transform="matrix(0.0547, 0, 0, 0.0547, 0, 0)">
    <path d="M313.553, 392.331L209.587, 504.334C200.102, 514.548 183.911, 514.563 174.413, 504.334L70.438, 392.331C56.232, 377.031 67.062, 352 88.025, 352L152, 352L152, 80L68.024, 80A11.996 11.996 0 0 1 59.539, 76.485L3.539, 20.485C-4.021, 12.926 1.333, 0 12.024, 0L208, 0C221.255, 0 232, 10.745 232, 24L232, 352L295.966, 352C316.844, 352 327.817, 376.969 313.553, 392.331z" fill="#727272" fill-opacity="1" class="Black" />
  </g>
</svg>