<?xml version='1.0' encoding='UTF-8'?>
<svg viewBox="-2 -4.7992 32 32" xmlns="http://www.w3.org/2000/svg">
  <g transform="matrix(0.9988, 0, 0, 0.9988, 0, 0)">
    <g transform="matrix(0.0438, 0, 0, 0.0438, 0, 0)">
      <path d="M40.73, 67.71L121.61, 114.4C127.94, 93.69 137.4, 74.26 149.73, 56.74L72.73, 12.28C65.08, 7.86 55.29, 10.48 50.87, 18.14L34.87, 45.85C30.45, 53.51 33.08, 63.29 40.73, 67.71zM131.75, 263.74L40.73, 316.29C33.08, 320.71 30.45, 330.49 34.87, 338.15L50.87, 365.86C55.29, 373.51 65.08, 376.14 72.73, 371.72L167.15, 317.21C166.27, 316.15 165.32, 314.94 164.51, 314.03C150.9, 298.72 140.15, 281.7 131.75, 263.74zM599.27, 67.71C606.92, 63.29 609.55, 53.5 605.13, 45.85L589.13, 18.14C584.71, 10.49 574.92, 7.87 567.27, 12.28L490.19, 56.78C502.43, 74.2 512.18, 93.49 518.65, 114.25L599.27, 67.71zM112.81, 160L16, 160C7.16, 160 0, 167.16 0, 176L0, 208C0, 216.84 7.16, 224 16, 224L117.78, 224C112.89, 203.3 111.17, 181.79 112.81, 160zM624, 160L527.19, 160C528.31, 174.55 529.37, 191.7 521.66, 224L624, 224C632.84, 224 640, 216.84 640, 208L640, 176C640, 167.16 632.84, 160 624, 160zM599.27, 316.29L507.78, 263.47C499.54, 281.12 489.55, 297.99 476.5, 312.87C475.4, 314.13 474.14, 315.72 472.91, 317.24L567.27, 371.72C574.92, 376.14 584.71, 373.51 589.13, 365.86L605.13, 338.15C609.55, 330.49 606.92, 320.7 599.27, 316.29zM319.45, 0C217.44, 0.31 144, 82.97 144, 176C144, 220.37 160.45, 260.85 187.56, 291.78C204.08, 310.63 229.92, 350.01 239.77, 383.23C239.81, 383.49 239.84, 383.75 239.88, 384.01L400.12, 384.01C400.16, 383.75 400.19, 383.5 400.23, 383.23C410.08, 350.01 435.92, 310.63 452.44, 291.78C479.55, 260.85 496, 220.37 496, 176C496, 78.61 416.91, -0.3 319.45, 0zM320, 96C275.89, 96 240, 131.89 240, 176C240, 184.84 232.84, 192 224, 192C215.16, 192 208, 184.84 208, 176C208, 114.24 258.24, 64 320, 64C328.84, 64 336, 71.16 336, 80C336, 88.84 328.84, 96 320, 96zM240.06, 454.35C240.07, 460.64 241.93, 466.8 245.42, 472.04L262.51, 497.73A31.99 31.99 0 0 0 289.15, 512.01L350.86, 512.01A31.99 31.99 0 0 0 377.5, 497.73L394.59, 472.04A31.989 31.989 0 0 0 399.95, 454.35L399.99, 416L240.01, 416L240.06, 454.35z" fill="#727272" fill-opacity="1" class="Black" />
    </g>
  </g>
</svg>