<?xml version='1.0' encoding='UTF-8'?>
<svg viewBox="-6.3758 -1.9998 32 31.9975" xmlns="http://www.w3.org/2000/svg">
  <g transform="matrix(0.0547, 0, 0, 0.0547, 0, 0)">
    <path d="M96.06, 454.35C96.07, 460.64 97.93, 466.8 101.42, 472.04L118.51, 497.73A31.99 31.99 0 0 0 145.15, 512.01L206.86, 512.01A31.99 31.99 0 0 0 233.5, 497.73L250.59, 472.04A31.989 31.989 0 0 0 255.95, 454.35L255.99, 416L96.01, 416L96.06, 454.35zM175.45, 0C73.44, 0.31 0, 82.97 0, 176C0, 220.37 16.45, 260.85 43.56, 291.78C60.08, 310.63 85.92, 350.01 95.77, 383.23C95.81, 383.49 95.84, 383.75 95.88, 384.01L256.12, 384.01C256.16, 383.75 256.19, 383.5 256.23, 383.23C266.08, 350.01 291.92, 310.63 308.44, 291.78C335.55, 260.85 352, 220.37 352, 176C352, 78.61 272.91, -0.3 175.45, 0zM192, 255.88L192, 272C192, 276.42 188.42, 280 184, 280L168, 280C163.58, 280 160, 276.42 160, 272L160, 255.71C148.71, 255.13 137.73, 251.19 128.63, 244.36C124.73, 241.43 124.53, 235.59 128.06, 232.22L139.81, 221.01C142.58, 218.37 146.7, 218.25 149.94, 220.28C153.81, 222.7 158.2, 224 162.76, 224L190.87, 224C197.37, 224 202.67, 218.08 202.67, 210.81C202.67, 204.86 199.06, 199.62 193.9, 198.08L148.9, 184.58C130.31, 179 117.32, 161.16 117.32, 141.19C117.32, 116.67 136.37, 96.75 159.99, 96.12L159.99, 80C159.99, 75.58 163.57, 72 167.99, 72L183.99, 72C188.41, 72 191.99, 75.58 191.99, 80L191.99, 96.29C203.28, 96.87 214.26, 100.8 223.36, 107.64C227.26, 110.57 227.46, 116.41 223.93, 119.78L212.18, 130.99C209.41, 133.63 205.29, 133.75 202.05, 131.72C198.18, 129.29 193.79, 128 189.23, 128L161.12, 128C154.62, 128 149.32, 133.92 149.32, 141.19C149.32, 147.14 152.93, 152.38 158.09, 153.92L203.09, 167.42C221.68, 173 234.67, 190.84 234.67, 210.81C234.67, 235.34 215.62, 255.25 192, 255.88z" fill="#727272" fill-opacity="1" class="Black" />
  </g>
</svg>