<?xml version='1.0' encoding='UTF-8'?>
<svg viewBox="-2 -1.9988 32 32" xmlns="http://www.w3.org/2000/svg">
  <g transform="matrix(0.0547, 0, 0, 0.0547, 0, 0)">
    <path d="M496, 288L304, 288A16 16 0 0 0 288, 304L288, 336A16 16 0 0 0 304, 352L496, 352A16 16 0 0 0 512, 336L512, 304A16 16 0 0 0 496, 288zM496, 416L304, 416A16 16 0 0 0 288, 432L288, 464A16 16 0 0 0 304, 480L496, 480A16 16 0 0 0 512, 464L512, 432A16 16 0 0 0 496, 416zM496, 160L304, 160A16 16 0 0 0 288, 176L288, 208A16 16 0 0 0 304, 224L496, 224A16 16 0 0 0 512, 208L512, 176A16 16 0 0 0 496, 160zM496, 32L304, 32A16 16 0 0 0 288, 48L288, 80A16 16 0 0 0 304, 96L496, 96A16 16 0 0 0 512, 80L512, 48A16 16 0 0 0 496, 32zM208, 288L16, 288A16 16 0 0 0 0, 304L0, 336A16 16 0 0 0 16, 352L208, 352A16 16 0 0 0 224, 336L224, 304A16 16 0 0 0 208, 288zM208, 416L16, 416A16 16 0 0 0 0, 432L0, 464A16 16 0 0 0 16, 480L208, 480A16 16 0 0 0 224, 464L224, 432A16 16 0 0 0 208, 416zM208, 32L16, 32A16 16 0 0 0 0, 48L0, 80A16 16 0 0 0 16, 96L208, 96A16 16 0 0 0 224, 80L224, 48A16 16 0 0 0 208, 32zM208, 160L16, 160A16 16 0 0 0 0, 176L0, 208A16 16 0 0 0 16, 224L208, 224A16 16 0 0 0 224, 208L224, 176A16 16 0 0 0 208, 160z" fill="#727272" fill-opacity="1" class="Black" />
  </g>
</svg>