<?xml version='1.0' encoding='UTF-8'?>
<svg viewBox="-2 -1.9988 32 32" xmlns="http://www.w3.org/2000/svg">
  <g transform="matrix(0.0547, 0, 0, 0.0547, 0, 0)">
    <path d="M464, 480L48, 480C21.49, 480 0, 458.51 0, 432L0, 80C0, 53.49 21.49, 32 48, 32L464, 32C490.51, 32 512, 53.49 512, 80L512, 432C512, 458.51 490.51, 480 464, 480zM128, 120C105.909, 120 88, 137.909 88, 160C88, 182.091 105.909, 200 128, 200C150.091, 200 168, 182.091 168, 160C168, 137.909 150.091, 120 128, 120zM128, 216C105.909, 216 88, 233.909 88, 256C88, 278.091 105.909, 296 128, 296C150.091, 296 168, 278.091 168, 256C168, 233.909 150.091, 216 128, 216zM128, 312C105.909, 312 88, 329.909 88, 352C88, 374.091 105.909, 392 128, 392C150.091, 392 168, 374.091 168, 352C168, 329.909 150.091, 312 128, 312zM416, 176L416, 144C416, 137.373 410.627, 132 404, 132L204, 132C197.373, 132 192, 137.373 192, 144L192, 176C192, 182.627 197.373, 188 204, 188L404, 188C410.627, 188 416, 182.627 416, 176zM416, 272L416, 240C416, 233.373 410.627, 228 404, 228L204, 228C197.373, 228 192, 233.373 192, 240L192, 272C192, 278.627 197.373, 284 204, 284L404, 284C410.627, 284 416, 278.627 416, 272zM416, 368L416, 336C416, 329.373 410.627, 324 404, 324L204, 324C197.373, 324 192, 329.373 192, 336L192, 368C192, 374.627 197.373, 380 204, 380L404, 380C410.627, 380 416, 374.627 416, 368z" fill="#727272" fill-opacity="1" class="Black" />
  </g>
</svg>