<?xml version='1.0' encoding='UTF-8'?>
<svg viewBox="-2 -1.9988 32 32" xmlns="http://www.w3.org/2000/svg">
  <g transform="matrix(0.0547, 0, 0, 0.0547, 0, 0)">
    <path d="M61.77, 401L79.27, 380.85A19.92 19.92 0 0 0 84.34, 366.66L84.34, 363.35C84.34, 356 80.5, 352 73, 352L16, 352A8 8 0 0 0 8, 360L8, 376A8 8 0 0 0 16, 384L38.83, 384A157.41 157.41 0 0 0 27.83, 396.31L22.22, 403.31C18.22, 408.38 16.97, 413.44 19.42, 418.19L20.47, 420.12C23.47, 425.88 26.76, 428 32.72, 428L37.45, 428C47.78, 428 53.39, 430.44 53.39, 437.09C53.39, 441.81 49.19, 445.31 39.03, 445.31A41.54 41.54 0 0 1 23.56, 442.19C17.07, 438.31 11.82, 438.69 7.96, 445.31L2.37, 454.62C-1.35, 460.75 -0.82, 466.34 5, 470.56C12.71, 475.25 25.38, 480 42, 480C76.16, 480 90.5, 457.25 90.5, 435.88C90.47, 421.5 81.38, 406.12 61.77, 401zM496, 224L176, 224A16 16 0 0 0 160, 240L160, 272A16 16 0 0 0 176, 288L496, 288A16 16 0 0 0 512, 272L512, 240A16 16 0 0 0 496, 224zM496, 64L176, 64A16 16 0 0 0 160, 80L160, 112A16 16 0 0 0 176, 128L496, 128A16 16 0 0 0 512, 112L512, 80A16 16 0 0 0 496, 64zM496, 384L176, 384A16 16 0 0 0 160, 400L160, 432A16 16 0 0 0 176, 448L496, 448A16 16 0 0 0 512, 432L512, 400A16 16 0 0 0 496, 384zM16, 160L80, 160A8 8 0 0 0 88, 152L88, 136A8 8 0 0 0 80, 128L64, 128L64, 40A8 8 0 0 0 56, 32L32, 32A8 8 0 0 0 24.86, 36.42L16.86, 52.42A8 8 0 0 0 24, 64L32, 64L32, 128L16, 128A8 8 0 0 0 8, 136L8, 152A8 8 0 0 0 16, 160zM12.09, 320L80, 320A8 8 0 0 0 88, 312L88, 296A8 8 0 0 0 80, 288L41.32, 288C44.61, 277.71 89.66, 269.32 89.66, 231.56C89.66, 202.5 64.66, 192 45.19, 192C23.83, 192 11.39, 202 4.73, 210.75C0.36, 216.34 1.73, 221.59 7.53, 226.12L16.11, 233C21.72, 237.56 27.11, 235.47 32.23, 230.56A13.44 13.44 0 0 1 41.69, 226.72C45.02, 226.72 50.97, 228.28 50.97, 235.47C51, 248.19 0, 257.31 0, 304.59L0, 308.59C0, 316 5.08, 320 12.09, 320z" fill="#727272" fill-opacity="1" class="Black" />
  </g>
</svg>