<?xml version='1.0' encoding='UTF-8'?>
<svg viewBox="-2 -2 32 32" xmlns="http://www.w3.org/2000/svg">
  <g transform="matrix(0.0547, 0, 0, 0.0547, 0, 0)">
    <path d="M496, 224L445.12, 224C431.61, 143.66 368.34, 80.39 288, 66.88L288, 16C288, 7.16 280.84, 0 272, 0L240, 0C231.16, 0 224, 7.16 224, 16L224, 66.88C143.66, 80.39 80.39, 143.66 66.88, 224L16, 224C7.16, 224 0, 231.16 0, 240L0, 272C0, 280.84 7.16, 288 16, 288L66.88, 288C80.39, 368.34 143.66, 431.61 224, 445.12L224, 496C224, 504.84 231.16, 512 240, 512L272, 512C280.84, 512 288, 504.84 288, 496L288, 445.12C368.34, 431.61 431.61, 368.34 445.12, 288L496, 288C504.84, 288 512, 280.84 512, 272L512, 240C512, 231.16 504.84, 224 496, 224zM256, 384C185.3, 384 128, 326.69 128, 256C128, 185.31 185.3, 128 256, 128C326.7, 128 384, 185.31 384, 256C384, 326.69 326.7, 384 256, 384zM256, 168C207.4, 168 168, 207.4 168, 256C168, 304.6 207.4, 344 256, 344C304.6, 344 344, 304.6 344, 256C344, 207.4 304.6, 168 256, 168z" fill="#727272" fill-opacity="1" class="Black" />
  </g>
</svg>