<?xml version='1.0' encoding='UTF-8'?>
<svg viewBox="-3.7495 -2 32 32" xmlns="http://www.w3.org/2000/svg">
  <g transform="matrix(0.0547, 0, 0, 0.0547, 0, 0)">
    <path d="M400, 224L376, 224L376, 152C376, 68.2 307.8, 0 224, 0C140.2, 0 72, 68.2 72, 152L72, 224L48, 224C21.5, 224 0, 245.5 0, 272L0, 464C0, 490.5 21.5, 512 48, 512L400, 512C426.5, 512 448, 490.5 448, 464L448, 272C448, 245.5 426.5, 224 400, 224zM264, 392C264, 414.1 246.1, 432 224, 432C201.9, 432 184, 414.1 184, 392L184, 344C184, 321.9 201.9, 304 224, 304C246.1, 304 264, 321.9 264, 344L264, 392zM296, 224L152, 224L152, 152C152, 112.3 184.3, 80 224, 80C263.7, 80 296, 112.3 296, 152L296, 224z" fill="#727272" fill-opacity="1" class="Black" />
  </g>
</svg>