<?xml version='1.0' encoding='UTF-8'?>
<svg viewBox="-1.9998 0.0025 32 31.9975" xmlns="http://www.w3.org/2000/svg">
  <g transform="matrix(0.0625, 0, 0, 0.0625, 0, 0)">
    <path d="M254.544, 154.427L320.118, 220L24, 220C10.745, 220 0, 230.745 0, 244L0, 268C0, 281.255 10.745, 292 24, 292L320.118, 292L254.544, 357.573C245.171, 366.946 245.171, 382.142 254.544, 391.514L271.515, 408.485C280.888, 417.858 296.084, 417.858 305.456, 408.485L440.97, 272.97C450.343, 263.597 450.343, 248.401 440.97, 239.029L305.456, 103.515C296.083, 94.142 280.887, 94.142 271.515, 103.515L254.544, 120.486C245.171, 129.858 245.171, 145.054 254.544, 154.427z" fill="#727272" fill-opacity="1" class="Black" />
  </g>
</svg>