<?xml version='1.0' encoding='UTF-8'?>
<svg viewBox="-1.9975 0.0039 32 32" xmlns="http://www.w3.org/2000/svg">
  <g transform="matrix(0.0625, 0, 0, 0.0625, 0, 0)">
    <path d="M193.456, 357.573L127.882, 292L424, 292C437.255, 292 448, 281.255 448, 268L448, 244C448, 230.745 437.255, 220 424, 220L127.882, 220L193.456, 154.427C202.829, 145.054 202.829, 129.858 193.456, 120.486L176.485, 103.515C167.112, 94.142 151.916, 94.142 142.544, 103.515L7.029, 239.029C-2.344, 248.402 -2.344, 263.597 7.029, 272.97L142.544, 408.485C151.917, 417.858 167.113, 417.858 176.485, 408.485L193.456, 391.514C202.829, 382.142 202.829, 366.946 193.456, 357.573z" fill="#727272" fill-opacity="1" class="Black" />
  </g>
</svg>