<?xml version='1.0' encoding='UTF-8'?>
<svg viewBox="-5.9966 0.0027 32 32" xmlns="http://www.w3.org/2000/svg">
  <g transform="matrix(0.0625, 0, 0, 0.0625, 0, 0)">
    <path d="M58.427, 225.456L124, 159.882L124, 456C124, 469.255 134.745, 480 148, 480L172, 480C185.255, 480 196, 469.255 196, 456L196, 159.882L261.573, 225.456C270.946, 234.829 286.142, 234.829 295.514, 225.456L312.485, 208.485C321.858, 199.112 321.858, 183.916 312.485, 174.544L176.971, 39.029C167.598, 29.656 152.403, 29.656 143.03, 39.029L7.515, 174.544C-1.858, 183.917 -1.858, 199.113 7.515, 208.485L24.486, 225.456C33.858, 234.829 49.054, 234.829 58.427, 225.456z" fill="#727272" fill-opacity="1" class="Black" />
  </g>
</svg>