<?xml version='1.0' encoding='UTF-8'?>
<svg viewBox="-1.9998 -3.5563 31.9975 32" xmlns="http://www.w3.org/2000/svg">
  <g transform="matrix(0.0486, 0, 0, 0.0486, 0, 0)">
    <path d="M569.344, 231.631C512.96, 135.949 407.81, 72 288, 72C259.532, 72 231.898, 75.619 205.549, 82.409L152.778, 10.24C145.177, -0.618 130.214, -3.26 119.355, 4.34L106.241, 13.518C95.381, 21.119 92.739, 36.084 100.341, 46.944L143.472, 105.339C89.449, 131.73 40.228, 174.683 6.682, 231.581C6.672, 231.598 6.659, 231.614 6.648, 231.631C-2.117, 246.506 -2.316, 265.159 6.648, 280.37C45.148, 345.702 106.39, 396.232 179.507, 421.719L55.316, 244.302A272.194 272.194 0 0 1 83.61, 208.39L203.01, 378.97L203.02, 378.97L243.65, 437.01A330.055 330.055 0 0 0 322.59, 438.18L132.61, 166.78A277.628 277.628 0 0 1 171.387, 145.217L423.223, 501.761C430.824, 512.619 445.787, 515.26 456.646, 507.661L469.76, 498.483C480.62, 490.882 483.262, 475.916 475.66, 465.057L432.54, 406.68L432.533, 406.671C489.694, 378.693 537.368, 334.631 569.343, 280.37A47.938 47.938 0 0 0 569.344, 231.631zM390.026, 345.94L370.96, 318.71C395.642, 286.143 398.671, 242.357 379.76, 207.03L379.76, 207.06C379.76, 230.71 360.59, 249.88 336.94, 249.88C313.112, 249.88 294.12, 230.531 294.12, 207.06C294.12, 183.41 313.29, 164.24 336.94, 164.24L336.97, 164.24C312.22, 150.991 283.448, 148.597 257.46, 156.56L238.392, 129.323C253.758, 123.306 270.488, 120 288, 120C363.162, 120 424, 180.826 424, 256C424, 290.504 411.167, 321.975 390.026, 345.94z" fill="#727272" fill-opacity="1" class="Black" />
  </g>
</svg>