<?xml version='1.0' encoding='UTF-8'?>
<svg viewBox="-1.9998 -4.8014 31.9975 32" xmlns="http://www.w3.org/2000/svg">
  <g transform="matrix(0.9988, 0, 0, 0.9988, 0, 0)">
    <g transform="matrix(0.0438, 0, 0, 0.0438, 0, 0)">
      <path d="M636.11, 390.15C614.44, 308.85 580.07, 231 534.1, 159.13C511.98, 124.56 498.03, 96 454.05, 96C415.36, 96 384, 125.42 384, 161.71L384, 221.82L351.12, 199.9A15.996 15.996 0 0 1 344, 186.59L344, 16C344, 7.16 336.84, 0 328, 0L312, 0C303.16, 0 296, 7.16 296, 16L296, 186.59C296, 191.94 293.33, 196.93 288.88, 199.9L256, 221.82L256, 161.71C256, 125.42 224.64, 96 185.95, 96C141.97, 96 128.02, 124.56 105.9, 159.13C59.93, 231 25.56, 308.85 3.89, 390.15C1.3, 399.84 0, 409.79 0, 419.78C0, 481.01 62.48, 525.22 125.24, 508.4L184.74, 492.45C226.92, 481.15 256, 444.98 256, 403.83L256, 316.34L170.16, 373.57A7.992 7.992 0 0 1 159.07, 371.35L150.19, 358.04A7.992 7.992 0 0 1 152.41, 346.95L320, 235.23L487.59, 346.95A7.994 7.994 0 0 1 489.81, 358.04L480.93, 371.35A7.994 7.994 0 0 1 469.84, 373.57L384, 316.34L384, 403.83C384, 444.98 413.08, 481.14 455.26, 492.45L514.76, 508.4C577.52, 525.22 640, 481.01 640, 419.78C640, 409.79 638.7, 399.84 636.11, 390.15z" fill="#727272" fill-opacity="1" class="Black" />
    </g>
  </g>
</svg>