<?xml version='1.0' encoding='UTF-8'?>
<svg viewBox="-2 -1.9988 32 32" xmlns="http://www.w3.org/2000/svg">
  <g transform="matrix(0.0547, 0, 0, 0.0547, 0, 0)">
    <path d="M170.65, 296.09L4.69, 462.06C-1.56, 468.31 -1.56, 478.44 4.69, 484.69L27.32, 507.32C33.57, 513.57 43.7, 513.57 49.95, 507.32L215.92, 341.35A161.122 161.122 0 0 1 170.65, 296.09zM500.98, 194.97L425.99, 171.2C413.39, 129.47 380.4, 97.01 338.32, 85.25L313.05, 10.8C308.13, -3.7 295.59, -3.57 290.97, 11.02L267.2, 86.02C225.47, 98.62 193.01, 131.61 181.24, 173.69L106.8, 198.95C92.3, 203.87 92.43, 216.41 107.02, 221.03L182.01, 244.8C194.61, 286.53 227.6, 318.99 269.68, 330.76L294.94, 405.2C299.86, 419.7 312.4, 419.57 317.02, 404.98L340.79, 329.99C382.52, 317.39 414.98, 284.4 426.74, 242.32L501.18, 217.06C515.7, 212.13 515.57, 199.59 500.98, 194.97zM304, 240C286.33, 240 272, 225.67 272, 208C272, 190.33 286.33, 176 304, 176C321.67, 176 336, 190.33 336, 208C336, 225.67 321.67, 240 304, 240z" fill="#727272" fill-opacity="1" class="Black" />
  </g>
</svg>