<?xml version='1.0' encoding='UTF-8'?>
<svg viewBox="-1.9998 -2.0011 31.9975 32" xmlns="http://www.w3.org/2000/svg">
  <g transform="matrix(0.0547, 0, 0, 0.0547, 0, 0)">
    <path d="M224, 96L240, 64L272, 48L240, 32L224, 0L208, 32L176, 48L208, 64L224, 96zM80, 160L106.66, 106.67L160, 80L106.66, 53.33L80, 0L53.34, 53.33L0, 80L53.34, 106.67L80, 160zM432, 288L405.34, 341.33L352, 368L405.34, 394.67L432, 448L458.66, 394.67L512, 368L458.66, 341.33L432, 288zM502.62, 94.23L417.77, 9.38C411.53, 3.12 403.34, 0 395.15, 0C386.96, 0 378.77, 3.12 372.52, 9.38L9.38, 372.52C-3.12, 385.02 -3.12, 405.28 9.38, 417.77L94.23, 502.62C100.48, 508.87 108.67, 511.99 116.85, 511.99C125.04, 511.99 133.23, 508.87 139.48, 502.62L502.62, 139.47C515.12, 126.99 515.12, 106.72 502.62, 94.23zM359.45, 203.46L308.54, 152.55L395.14, 65.95L446.05, 116.86L359.45, 203.46z" fill="#727272" fill-opacity="1" class="Black" />
  </g>
</svg>