<?xml version='1.0' encoding='UTF-8'?>
<svg viewBox="-2 -3.554 32 32" xmlns="http://www.w3.org/2000/svg">
  <g transform="matrix(0.0486, 0, 0, 0.0486, 0, 0)">
    <path d="M144, 64A144 144 0 0 0 0, 208L0, 416A32 32 0 0 0 32, 448L288, 448L288, 208A144 144 0 0 0 144, 64zM224, 240A16 16 0 0 1 208, 256L80, 256A16 16 0 0 1 64, 240L64, 208A16 16 0 0 1 80, 192L208, 192A16 16 0 0 1 224, 208zM432, 64L244.87, 64C290.23, 95.87 320, 148.48 320, 208L320, 448L544, 448A32 32 0 0 0 576, 416L576, 208A144 144 0 0 0 432, 64zM512, 272A16 16 0 0 1 496, 288L464, 288A16 16 0 0 1 448, 272L448, 224L392, 224A8 8 0 0 1 384, 216L384, 200A8 8 0 0 1 392, 192L496, 192A16 16 0 0 1 512, 208z" fill="#727272" fill-opacity="1" class="Black" />
  </g>
</svg>