<?xml version='1.0' encoding='UTF-8'?>
<svg viewBox="-1.9999 -3.5552 32 32" xmlns="http://www.w3.org/2000/svg">
  <g transform="matrix(0.0486, 0, 0, 0.0486, 0, 0)">
    <path d="M160, 448C134.4, 448 108.8, 425.6 96, 416C32, 371.2 12.8, 355.2 0, 345.6L0, 480C0, 497.67 14.33, 512 32, 512L288, 512C305.67, 512 320, 497.67 320, 480L320, 345.6C307.2, 355.2 288, 371.2 224, 416C211.2, 425.6 185.6, 448 160, 448zM288, 256L32, 256C14.33, 256 0, 270.33 0, 288L0, 304C25.6, 323.2 22.4, 323.2 115.2, 390.4C124.8, 396.8 144, 416 160, 416C176, 416 195.2, 396.8 204.8, 393.6C297.6, 326.4 294.4, 326.4 320, 307.2L320, 288C320, 270.33 305.67, 256 288, 256zM544, 160L224, 160C206.33, 160 192, 174.33 192, 192L192, 224L288, 224C321.21, 224 348.59, 249.42 351.71, 281.82L352, 281.6L352, 416L544, 416C561.67, 416 576, 401.67 576, 384L576, 192C576, 174.33 561.67, 160 544, 160zM512, 288L448, 288L448, 224L512, 224L512, 288zM160, 192C160, 156.71 188.71, 128 224, 128L448, 128L448, 32C448, 14.33 433.67, 0 416, 0L96, 0C78.33, 0 64, 14.33 64, 32L64, 224L160, 224L160, 192z" fill="#727272" fill-opacity="1" class="Black" />
  </g>
</svg>