<?xml version='1.0' encoding='UTF-8'?>
<svg viewBox="-5.5053 -2 32 32" xmlns="http://www.w3.org/2000/svg">
  <g transform="matrix(0.0547, 0, 0, 0.0547, 0, 0)">
    <path d="M192, 0C86.4, 0 0, 86.4 0, 192C0, 268.8 25.6, 291.2 172.8, 502.4C182.4, 515.2 201.6, 515.2 211.2, 502.4C358.4, 291.2 384, 268.8 384, 192C384, 86.4 297.6, 0 192, 0zM256, 117.16C270.82, 117.16 282.84, 129.18 282.84, 144C282.84, 158.82 270.82, 170.84 256, 170.84C241.18, 170.84 229.16, 158.82 229.16, 144C229.16, 129.18 241.18, 117.16 256, 117.16zM128, 117.16C142.82, 117.16 154.84, 129.18 154.84, 144C154.84, 158.82 142.82, 170.84 128, 170.84C113.18, 170.84 101.16, 158.82 101.16, 144C101.16, 129.18 113.18, 117.16 128, 117.16zM292.17, 258.13C267.3, 287.28 230.78, 304 192, 304C153.25, 304 116.73, 287.28 91.84, 258.14C86.09, 251.42 86.89, 241.33 93.61, 235.59C100.3, 229.86 110.42, 230.62 116.16, 237.36C134.98, 259.38 162.62, 272 192, 272C221.41, 272 249.03, 259.37 267.83, 237.34C273.61, 230.61 283.69, 229.81 290.39, 235.56C297.11, 241.3 297.91, 251.41 292.17, 258.13z" fill="#727272" fill-opacity="1" class="Black" />
  </g>
</svg>