<?xml version='1.0' encoding='UTF-8'?>
<svg viewBox="-5.5053 -2 32 32" xmlns="http://www.w3.org/2000/svg">
  <g transform="matrix(0.0547, 0, 0, 0.0547, 0, 0)">
    <path d="M192, 0C86.4, 0 0, 86.4 0, 192C0, 268.8 25.6, 291.2 172.8, 502.4C182.4, 515.2 201.6, 515.2 211.2, 502.4C358.4, 291.2 384, 268.8 384, 192C384, 86.4 297.6, 0 192, 0zM276.85, 242.91C283.1, 249.16 283.1, 259.29 276.85, 265.54L265.54, 276.85C259.29, 283.1 249.16, 283.1 242.91, 276.85L192, 225.94L141.09, 276.85C134.84, 283.1 124.71, 283.1 118.46, 276.85L107.15, 265.54C100.9, 259.29 100.9, 249.16 107.15, 242.91L158.06, 192L107.15, 141.09C100.9, 134.84 100.9, 124.71 107.15, 118.46L118.46, 107.15C124.71, 100.9 134.84, 100.9 141.09, 107.15L192, 158.06L242.91, 107.15C249.16, 100.9 259.29, 100.9 265.54, 107.15L276.85, 118.46C283.1, 124.71 283.1, 134.84 276.85, 141.09L225.94, 192L276.85, 242.91z" fill="#727272" fill-opacity="1" class="Black" />
  </g>
</svg>