<?xml version='1.0' encoding='UTF-8'?>
<svg viewBox="-5.5053 -2 32 32" xmlns="http://www.w3.org/2000/svg">
  <g transform="matrix(0.0547, 0, 0, 0.0547, 0, 0)">
    <path d="M192, 0C86.4, 0 0, 86.4 0, 192C0, 268.8 25.6, 291.2 172.8, 502.4C182.4, 515.2 201.6, 515.2 211.2, 502.4C358.4, 291.2 384, 268.8 384, 192C384, 86.4 297.6, 0 192, 0zM148.83, 283.15L106, 287.95C100.22, 288.57 95.43, 283.68 96.05, 278L100.85, 235.17L186.39, 149.63L234.37, 197.61L148.83, 283.15zM282.74, 149.25L254.48, 177.51L206.5, 129.53L234.76, 101.27C241.78, 94.25 253.15, 94.25 260.17, 101.27L282.74, 123.84C289.76, 130.85 289.76, 142.23 282.74, 149.25z" fill="#727272" fill-opacity="1" class="Black" />
  </g>
</svg>