<?xml version='1.0' encoding='UTF-8'?>
<svg viewBox="-2 -2 32 32" xmlns="http://www.w3.org/2000/svg">
  <g transform="matrix(0.0547, 0, 0, 0.0547, 0, 0)">
    <path d="M507.31, 84.69L464, 41.37C458, 35.37 449.86, 32 441.37, 32L288, 32L288, 16C288, 7.16 280.84, 0 272, 0L240, 0C231.16, 0 224, 7.16 224, 16L224, 32L56, 32C42.75, 32 32, 42.75 32, 56L32, 136C32, 149.25 42.75, 160 56, 160L441.37, 160C449.86, 160 457.99, 156.63 464, 150.63L507.31, 107.32C513.56, 101.06 513.56, 90.94 507.31, 84.69zM224, 496C224, 504.84 231.16, 512 240, 512L272, 512C280.84, 512 288, 504.84 288, 496L288, 384L224, 384L224, 496zM456, 224L288, 224L288, 192L224, 192L224, 224L70.63, 224C62.14, 224 54.01, 227.37 48, 233.37L4.69, 276.69C-1.56, 282.94 -1.56, 293.07 4.69, 299.32L48, 342.63C54, 348.63 62.14, 352 70.63, 352L456, 352C469.25, 352 480, 341.25 480, 328L480, 248C480, 234.75 469.25, 224 456, 224z" fill="#727272" fill-opacity="1" class="Black" />
  </g>
</svg>