<?xml version='1.0' encoding='UTF-8'?>
<svg viewBox="-1.9975 -4.7973 32 32" xmlns="http://www.w3.org/2000/svg">
  <g transform="matrix(0.999, 0, 0, 0.999, 0, 0)">
    <g transform="matrix(0.0438, 0, 0, 0.0438, 0, 0)">
      <path d="M300.8, 502.4C310.4, 515.2 329.6, 515.2 339.2, 502.4C357.8, 475.71 374.43, 452.08 389.34, 430.93L131.47, 231.62C142.18, 284.17 181.62, 331.4 300.8, 502.4zM633.82, 458.1L462.41, 325.62C502.09, 265.52 512, 238.3 512, 192C512, 86.4 425.6, 0 320, 0C251.8, 0 191.76, 36.13 157.7, 90.12L45.47, 3.37C38.49, -2.05 28.43, -0.8 23.01, 6.18L3.37, 31.45C-2.05, 38.42 -0.8, 48.47 6.18, 53.9L594.53, 508.63C601.51, 514.06 611.56, 512.8 616.99, 505.82L636.63, 480.55C642.05, 473.58 640.8, 463.53 633.82, 458.1zM370.12, 254.29L247, 159.13C259.34, 131.17 287.01, 112 320, 112C364.8, 112 400, 147.2 400, 192C400, 217.57 388.29, 239.74 370.12, 254.29z" fill="#727272" fill-opacity="1" class="Black" />
    </g>
  </g>
</svg>