<?xml version='1.0' encoding='UTF-8'?>
<svg viewBox="-5.5053 -2 32 32" xmlns="http://www.w3.org/2000/svg">
  <g transform="matrix(0.0547, 0, 0, 0.0547, 0, 0)">
    <path d="M192, 0C86.4, 0 0, 86.4 0, 192C0, 268.8 25.6, 291.2 172.8, 502.4C182.4, 515.2 201.6, 515.2 211.2, 502.4C358.4, 291.2 384, 268.8 384, 192C384, 86.4 297.6, 0 192, 0zM192, 336C174.33, 336 160, 321.67 160, 304C160, 286.33 174.33, 272 192, 272C209.67, 272 224, 286.33 224, 304C224, 321.67 209.67, 336 192, 336zM217.44, 225.59C216.62, 233.77 209.74, 240 201.52, 240L182.48, 240C174.26, 240 167.38, 233.77 166.56, 225.59L153.76, 97.59C152.82, 88.17 160.21, 80 169.68, 80L214.32, 80C223.79, 80 231.18, 88.17 230.24, 97.59L217.44, 225.59z" fill="#727272" fill-opacity="1" class="Black" />
  </g>
</svg>