<?xml version='1.0' encoding='UTF-8'?>
<svg viewBox="-5.5053 -2 32 32" xmlns="http://www.w3.org/2000/svg">
  <g transform="matrix(0.0547, 0, 0, 0.0547, 0, 0)">
    <path d="M192, 0C86.4, 0 0, 86.4 0, 192C0, 268.8 25.6, 291.2 172.8, 502.4C182.4, 515.2 201.6, 515.2 211.2, 502.4C358.4, 291.2 384, 268.8 384, 192C384, 86.4 297.6, 0 192, 0zM304, 200C304, 208.84 296.84, 216 288, 216L96, 216C87.16, 216 80, 208.84 80, 200L80, 184C80, 175.16 87.16, 168 96, 168L288, 168C296.84, 168 304, 175.16 304, 184L304, 200z" fill="#727272" fill-opacity="1" class="Black" />
  </g>
</svg>