<?xml version='1.0' encoding='UTF-8'?>
<svg viewBox="-5.5053 -2 32 32" xmlns="http://www.w3.org/2000/svg">
  <g transform="matrix(0.0547, 0, 0, 0.0547, 0, 0)">
    <path d="M192, 0C86.4, 0 0, 86.4 0, 192C0, 268.8 25.6, 291.2 172.8, 502.4C182.4, 515.2 201.6, 515.2 211.2, 502.4C358.4, 291.2 384, 268.8 384, 192C384, 86.4 297.6, 0 192, 0zM192, 352C174.33, 352 160, 337.67 160, 320C160, 302.33 174.33, 288 192, 288C209.67, 288 224, 302.33 224, 320C224, 337.67 209.67, 352 192, 352zM218.67, 238.73L218.67, 240.16C218.67, 248.91 211.58, 256 202.83, 256L186.51, 256C177.76, 256 170.67, 248.91 170.67, 240.16L170.67, 224C170.67, 214.9 175.86, 206.57 184, 202.5C214.61, 187.19 234.67, 175.96 234.67, 160C234.67, 140.61 220.65, 120 194.67, 120C176.74, 120 161.54, 131.84 156.47, 148.12C154.32, 155.02 148.36, 160 141.14, 160L124.3, 160C114.06, 160 106.58, 150.44 108.86, 140.45C117.77, 101.3 152.86, 72 194.67, 72C249.75, 72 282.67, 116.75 282.67, 160C282.67, 200.95 249.92, 222.47 218.67, 238.73z" fill="#727272" fill-opacity="1" class="Black" />
  </g>
</svg>