<?xml version='1.0' encoding='UTF-8'?>
<svg viewBox="-5.5053 -2 32 32" xmlns="http://www.w3.org/2000/svg">
  <g transform="matrix(0.0547, 0, 0, 0.0547, 0, 0)">
    <path d="M192, 0C86.4, 0 0, 86.4 0, 192C0, 268.8 25.6, 291.2 172.8, 502.4C182.4, 515.2 201.6, 515.2 211.2, 502.4C358.4, 291.2 384, 268.8 384, 192C384, 86.4 297.6, 0 192, 0zM306.08, 163.83L175.04, 293.82C170.73, 298.1 163.76, 298.07 159.49, 293.76L83.77, 217.43C79.49, 213.12 79.52, 206.15 83.83, 201.87L109.86, 176.05C114.17, 171.77 121.14, 171.8 125.42, 176.11L167.57, 218.6L264.77, 122.18C269.08, 117.9 276.05, 117.93 280.32, 122.24L306.14, 148.27C310.42, 152.59 310.39, 159.55 306.08, 163.83z" fill="#727272" fill-opacity="1" class="Black" />
  </g>
</svg>