<?xml version='1.0' encoding='UTF-8'?>
<svg viewBox="-2 -3.554 32 32" xmlns="http://www.w3.org/2000/svg">
  <g transform="matrix(0.0486, 0, 0, 0.0486, 0, 0)">
    <path d="M0, 117.66L0, 463.98C0, 475.3 11.43, 483.04 21.94, 478.84L160, 416L160, 32L20.12, 87.95A32.006 32.006 0 0 0 0, 117.66zM192, 416L384, 480L384, 96L192, 32L192, 416zM554.06, 33.16L416, 96L416, 480L555.88, 424.05A31.996 31.996 0 0 0 576, 394.34L576, 48.02C576, 36.7 564.57, 28.96 554.06, 33.16z" fill="#727272" fill-opacity="1" class="Black" />
  </g>
</svg>