<?xml version='1.0' encoding='UTF-8'?>
<svg viewBox="-1.9975 -1.9988 31.9975 32" xmlns="http://www.w3.org/2000/svg">
  <g transform="matrix(0.0547, 0, 0, 0.0547, 0, 0)">
    <path d="M93.95, 290.03A327.038 327.038 0 0 0 0.17, 485.11L0.14, 485.34C-1.56, 500.62 11.35, 513.54 26.63, 511.85A327.02 327.02 0 0 0 221.97, 418.05L297.37, 342.65L169.35, 214.63L93.95, 290.03zM485.49, 26.51C450.14, -8.84 392.82, -8.84 357.47, 26.51L335.71, 48.27L299.15, 11.72C283.53, -3.9 258.2, -3.9 242.59, 11.72L138.47, 115.84C132.22, 122.09 132.22, 132.22 138.47, 138.47L161.09, 161.09C167.34, 167.34 177.47, 167.34 183.72, 161.09L270.87, 73.94L290.46, 93.53L191.98, 192L320, 320.02L485.49, 154.53C520.84, 119.18 520.84, 61.87 485.49, 26.51z" fill="#727272" fill-opacity="1" class="Black" />
  </g>
</svg>