<?xml version='1.0' encoding='UTF-8'?>
<svg viewBox="-7.5666 -1.9048 32 31.9975" xmlns="http://www.w3.org/2000/svg">
  <g transform="matrix(0.0585, 0, 0, 0.0585, 0, 0)">
    <path d="M245.8, 234.2C225.9, 214.3 201.6, 201.4 176, 195.6L176, 170.2L196, 170.2C202.6, 170.2 208, 164.8 208, 158.2L208, 118.2C208, 111.6 202.6, 106.2 196, 106.2L176, 106.2L176, 81.4L199.9, 81.4C210.6, 81.4 215.9, 68.5 208.4, 60.9L152.5, 5.1C147.8, 0.4 140.2, 0.4 135.5, 5.1L79.6, 61C72, 68.6 77.4, 81.5 88.1, 81.5L112, 81.5L112, 106.2L92, 106.2C85.4, 106.2 80, 111.6 80, 118.2L80, 158.2C80, 164.8 85.4, 170.2 92, 170.2L112, 170.2L112, 195.6C86.4, 201.4 62.1, 214.3 42.2, 234.2C-14, 290.4 -14, 381.6 42.2, 437.8C98.4, 494 189.6, 494 245.8, 437.8C302.1, 381.6 302.1, 290.4 245.8, 234.2zM200.6, 392.6C169.4, 423.8 118.7, 423.8 87.5, 392.6C56.3, 361.4 56.3, 310.7 87.5, 279.5C118.7, 248.3 169.4, 248.3 200.6, 279.5C231.8, 310.6 231.8, 361.4 200.6, 392.6z" fill="#727272" fill-opacity="1" class="Black" />
  </g>
</svg>