<?xml version='1.0' encoding='UTF-8'?>
<svg viewBox="-2 2.6671 32 32" xmlns="http://www.w3.org/2000/svg">
  <g transform="matrix(0.0729, 0, 0, 0.0729, 0, 0)">
    <path d="M372, 64L293, 64C282.3, 64 277, 76.9 284.5, 84.5L301.4, 101.4L220.7, 182.1C198.5, 168.1 172.2, 160 144, 160C64.5, 160 0, 224.5 0, 304C0, 383.5 64.5, 448 144, 448C223.5, 448 288, 383.5 288, 304C288, 275.8 279.9, 249.5 265.9, 227.3L346.6, 146.6L363.5, 163.5C371.1, 171.1 384, 165.7 384, 155L384, 76C384, 69.4 378.6, 64 372, 64zM144, 384C99.9, 384 64, 348.1 64, 304C64, 259.9 99.9, 224 144, 224C188.1, 224 224, 259.9 224, 304C224, 348.1 188.1, 384 144, 384z" fill="#727272" fill-opacity="1" class="Black" />
  </g>
</svg>