<?xml version='1.0' encoding='UTF-8'?>
<svg viewBox="-2 -2 32 32" xmlns="http://www.w3.org/2000/svg">
  <g transform="matrix(0.0547, 0, 0, 0.0547, 0, 0)">
    <path d="M340, 0L261, 0C250.3, 0 245, 12.9 252.5, 20.5L269.4, 37.4L220.7, 86.1C198.5, 72.1 172.2, 64 144, 64C64.5, 64 0, 128.5 0, 208C0, 287.5 64.5, 352 144, 352C223.5, 352 288, 287.5 288, 208C288, 179.8 279.9, 153.5 265.9, 131.3L314.6, 82.6L331.5, 99.5C333.9, 101.9 337, 103 339.9, 103C346.1, 103 352, 98.2 352, 91L352, 12C352, 5.4 346.6, 0 340, 0zM144, 288C99.9, 288 64, 252.1 64, 208C64, 163.9 99.9, 128 144, 128C188.1, 128 224, 163.9 224, 208C224, 252.1 188.1, 288 144, 288zM500, 159.9L421, 159.9C410.3, 159.9 405, 172.8 412.5, 180.4L429.4, 197.3L380.7, 246C362.5, 234.6 341.7, 227.1 319.2, 224.7C317.1, 246.5 311, 268 300.8, 288C301.9, 288 303, 287.9 304, 287.9C348.1, 287.9 384, 323.8 384, 367.9C384, 412 348.1, 447.9 304, 447.9C259.9, 447.9 224, 412 224, 367.9C224, 366.8 224, 365.7 224.1, 364.7C204.1, 374.9 182.6, 381.1 160.8, 383.1C168.4, 455.6 229.6, 512 304, 512C383.5, 512 448, 447.5 448, 368C448, 339.8 439.9, 313.5 425.9, 291.3L474.6, 242.6L491.5, 259.5C493.9, 261.9 496.9, 263 499.9, 263C506.1, 263 512, 258.2 512, 251L512, 172C512, 165.3 506.6, 159.9 500, 159.9z" fill="#727272" fill-opacity="1" class="Black" />
  </g>
</svg>