<?xml version='1.0' encoding='UTF-8'?>
<svg viewBox="-2 2.6621 32 32" xmlns="http://www.w3.org/2000/svg">
  <g transform="matrix(0.0729, 0, 0, 0.0729, 0, 0)">
    <path d="M372, 64L293, 64C282.3, 64 277, 76.9 284.5, 84.5L301.4, 101.4L283.9, 118.9L269.8, 104.8C265.1, 100.1 257.5, 100.1 252.8, 104.8L224.5, 133C219.8, 137.7 219.8, 145.3 224.5, 150L238.6, 164.1L220.6, 182.1C198.4, 168.1 172.1, 160 143.9, 160C64.5, 160 0, 224.5 0, 304C0, 383.5 64.5, 448 144, 448C223.5, 448 288, 383.5 288, 304C288, 275.8 279.9, 249.5 265.9, 227.3L283.9, 209.3L298, 223.4C302.7, 228.1 310.3, 228.1 315, 223.4L343.3, 195.1C348, 190.4 348, 182.8 343.3, 178.1L329.2, 164L346.7, 146.5L363.6, 163.4C371.2, 171 384.1, 165.6 384.1, 154.9L384.1, 76C384, 69.4 378.6, 64 372, 64zM144, 384C99.9, 384 64, 348.1 64, 304C64, 259.9 99.9, 224 144, 224C188.1, 224 224, 259.9 224, 304C224, 348.1 188.1, 384 144, 384z" fill="#727272" fill-opacity="1" class="Black" />
  </g>
</svg>