<?xml version='1.0' encoding='UTF-8'?>
<svg viewBox="-2 -4.802 32 32" xmlns="http://www.w3.org/2000/svg">
  <g transform="matrix(0.9989, 0, 0, 0.9989, 0, 0)">
    <g transform="matrix(0.0438, 0, 0, 0.0438, 0, 0)">
      <path d="M320.67, 64C-121.93, 64 -36.9, 448 162.21, 448C202.11, 448 239.68, 427.31 263.63, 392.14L289.36, 354.35C305.02, 331.36 336.33, 331.36 351.99, 354.35L377.72, 392.14C401.66, 427.31 439.23, 448 479.13, 448C668.99, 448 769.76, 64 320.67, 64zM184, 308.36C142.94, 308.36 116.24, 282.7 103.92, 267.31C98.69, 260.78 98.69, 251.22 103.92, 244.68C116.24, 229.28 142.93, 203.63 184, 203.63C225.07, 203.63 251.76, 229.29 264.08, 244.68C269.31, 251.21 269.31, 260.77 264.08, 267.31C251.76, 282.71 225.06, 308.36 184, 308.36zM456, 308.36C414.94, 308.36 388.24, 282.7 375.92, 267.31C370.69, 260.78 370.69, 251.22 375.92, 244.68C388.24, 229.28 414.93, 203.63 456, 203.63C497.07, 203.63 523.76, 229.29 536.08, 244.68C541.31, 251.21 541.31, 260.77 536.08, 267.31C523.76, 282.71 497.06, 308.36 456, 308.36z" fill="#727272" fill-opacity="1" class="Black" />
    </g>
  </g>
</svg>