<?xml version='1.0' encoding='UTF-8'?>
<svg viewBox="-2 -1.9988 32 32" xmlns="http://www.w3.org/2000/svg">
  <g transform="matrix(0.0547, 0, 0, 0.0547, 0, 0)">
    <path d="M96, 480L416, 480L416, 128L384, 128L384, 80C384, 53.49 362.51, 32 336, 32L176, 32C149.49, 32 128, 53.49 128, 80L128, 128L96, 128L96, 480zM192, 96L320, 96L320, 128L192, 128L192, 96zM512, 176L512, 432C512, 458.51 490.51, 480 464, 480L448, 480L448, 128L464, 128C490.51, 128 512, 149.49 512, 176zM64, 480L48, 480C21.49, 480 0, 458.51 0, 432L0, 176C0, 149.49 21.49, 128 48, 128L64, 128L64, 480zM352, 272L352, 304C352, 312.837 344.837, 320 336, 320L288, 320L288, 368C288, 376.837 280.837, 384 272, 384L240, 384C231.163, 384 224, 376.837 224, 368L224, 320L176, 320C167.163, 320 160, 312.837 160, 304L160, 272C160, 263.163 167.163, 256 176, 256L224, 256L224, 208C224, 199.163 231.163, 192 240, 192L272, 192C280.837, 192 288, 199.163 288, 208L288, 256L336, 256C344.837, 256 352, 263.163 352, 272z" fill="#727272" fill-opacity="1" class="Black" />
  </g>
</svg>