<?xml version='1.0' encoding='UTF-8'?>
<svg viewBox="-1.9999 -3.5527 32 31.9975" xmlns="http://www.w3.org/2000/svg">
  <g transform="matrix(0.0486, 0, 0, 0.0486, 0, 0)">
    <path d="M32, 176C14.33, 176 0, 190.33 0, 208L0, 304C0, 321.67 14.33, 336 32, 336C43.38, 336 52.9, 329.72 58.57, 320.78L165.56, 353.08C162.21, 362.84 160, 373.12 160, 384C160, 436.94 203.06, 480 256, 480C300.49, 480 337.66, 449.43 348.5, 408.3L480, 448L480, 64L58.57, 191.22C52.9, 182.28 43.38, 176 32, 176zM211.29, 366.88L302.76, 394.49C297.95, 415.92 278.85, 432 256, 432C229.53, 432 208, 410.47 208, 384C208, 377.95 209.24, 372.21 211.29, 366.88zM560, 32L528, 32C519.16, 32 512, 39.16 512, 48L512, 464C512, 472.84 519.16, 480 528, 480L560, 480C568.84, 480 576, 472.84 576, 464L576, 48C576, 39.16 568.84, 32 560, 32z" fill="#727272" fill-opacity="1" class="Black" />
  </g>
</svg>