<?xml version='1.0' encoding='UTF-8'?>
<svg viewBox="-1.9999 -4.7979 32 31.9975" xmlns="http://www.w3.org/2000/svg">
  <g transform="matrix(1.0011, 0, 0, 1.0011, 0, 0)">
    <g transform="matrix(0.0437, 0, 0, 0.0437, 0, 0)">
      <path d="M640, 130.94L640, 96C640, 78.33 625.67, 64 608, 64L32, 64C14.33, 64 0, 78.33 0, 96L0, 130.94C18.6, 137.55 32, 155.13 32, 176C32, 196.87 18.6, 214.45 0, 221.06L0, 320L640, 320L640, 221.06C621.4, 214.45 608, 196.87 608, 176C608, 155.13 621.4, 137.55 640, 130.94zM224, 256L160, 256L160, 128L224, 128L224, 256zM352, 256L288, 256L288, 128L352, 128L352, 256zM480, 256L416, 256L416, 128L480, 128L480, 256zM0, 448L64, 448L64, 421.33C64, 412.49 71.16, 405.33 80, 405.33C88.84, 405.33 96, 412.49 96, 421.33L96, 448L224, 448L224, 421.33C224, 412.49 231.16, 405.33 240, 405.33C248.84, 405.33 256, 412.49 256, 421.33L256, 448L384, 448L384, 421.33C384, 412.49 391.16, 405.33 400, 405.33C408.84, 405.33 416, 412.49 416, 421.33L416, 448L544, 448L544, 421.33C544, 412.49 551.16, 405.33 560, 405.33C568.84, 405.33 576, 412.49 576, 421.33L576, 448L640, 448L640, 352L0, 352L0, 448z" fill="#727272" fill-opacity="1" class="Black" />
    </g>
  </g>
</svg>