<?xml version='1.0' encoding='UTF-8'?>
<svg viewBox="-2 -4.7992 32 32" xmlns="http://www.w3.org/2000/svg">
  <g transform="matrix(0.9988, 0, 0, 0.9988, 0, 0)">
    <g transform="matrix(0.0438, 0, 0, 0.0438, 0, 0)">
      <path d="M144, 128L112, 128C103.16, 128 96, 135.16 96, 144L96, 288L160, 288L160, 144C160, 135.16 152.84, 128 144, 128zM240, 128L208, 128C199.16, 128 192, 135.16 192, 144L192, 288L256, 288L256, 144C256, 135.16 248.84, 128 240, 128zM432, 128L400, 128C391.16, 128 384, 135.16 384, 144L384, 288L448, 288L448, 144C448, 135.16 440.84, 128 432, 128zM528, 128L496, 128C487.16, 128 480, 135.16 480, 144L480, 288L544, 288L544, 144C544, 135.16 536.84, 128 528, 128zM608, 96C625.67, 96 640, 81.67 640, 64C640, 46.33 608, 0 608, 0C608, 0 576, 46.33 576, 64C576, 81.67 590.33, 96 608, 96zM512, 96C529.67, 96 544, 81.67 544, 64C544, 46.33 512, 0 512, 0C512, 0 480, 46.33 480, 64C480, 81.67 494.33, 96 512, 96zM416, 96C433.67, 96 448, 81.67 448, 64C448, 46.33 416, 0 416, 0C416, 0 384, 46.33 384, 64C384, 81.67 398.33, 96 416, 96zM320, 96C337.67, 96 352, 81.67 352, 64C352, 46.33 320, 0 320, 0C320, 0 288, 46.33 288, 64C288, 81.67 302.33, 96 320, 96zM224, 96C241.67, 96 256, 81.67 256, 64C256, 46.33 224, 0 224, 0C224, 0 192, 46.33 192, 64C192, 81.67 206.33, 96 224, 96zM128, 96C145.67, 96 160, 81.67 160, 64C160, 46.33 128, 0 128, 0C128, 0 96, 46.33 96, 64C96, 81.67 110.33, 96 128, 96zM32, 96C49.67, 96 64, 81.67 64, 64C64, 46.33 32, 0 32, 0C32, 0 0, 46.33 0, 64C0, 81.67 14.33, 96 32, 96zM576, 288C576, 305.67 561.67, 320 544, 320L352, 320L352, 144C352, 135.16 344.84, 128 336, 128L304, 128C295.16, 128 288, 135.16 288, 144L288, 320L96, 320C78.33, 320 64, 305.67 64, 288L64, 144C64, 135.16 56.84, 128 48, 128L16, 128C7.16, 128 0, 135.16 0, 144L0, 288C0, 341.02 42.98, 384 96, 384L288, 384L288, 448L112, 448C103.16, 448 96, 455.16 96, 464L96, 496C96, 504.84 103.16, 512 112, 512L528, 512C536.84, 512 544, 504.84 544, 496L544, 464C544, 455.16 536.84, 448 528, 448L352, 448L352, 384L544, 384C597.02, 384 640, 341.02 640, 288L640, 144C640, 135.16 632.84, 128 624, 128L592, 128C583.16, 128 576, 135.16 576, 144L576, 288z" fill="#727272" fill-opacity="1" class="Black" />
    </g>
  </g>
</svg>