<?xml version='1.0' encoding='UTF-8'?>
<svg viewBox="-8.1246 -2 32 32" xmlns="http://www.w3.org/2000/svg">
  <g transform="matrix(0.0547, 0, 0, 0.0547, 0, 0)">
    <path d="M288, 208C288, 163.8 268.1, 124.3 236.8, 97.9C239.3, 96.1 241.7, 94.1 244, 92.1C268.7, 70.9 283.8, 43.3 287.2, 13.3C288.1, 6.2 282.5, 0 275.3, 0L234.8, 0C229, 0 224.1, 4.1 223, 9.8C220.6, 22.3 213.4, 34.1 202.3, 43.6C187, 56.8 166.3, 64 144, 64C121.7, 64 101, 56.8 85.6, 43.6C74.5, 34.1 67.4, 22.3 64.9, 9.8C63.8, 4.1 58.9, 0 53.2, 0L12.7, 0C5.5, 0 -0.1, 6.2 0.8, 13.3C4.2, 43.4 19.2, 71 44, 92.2C46.3, 94.2 48.7, 96.1 51.2, 98C19.9, 124.3 0, 163.8 0, 208C0, 276.5 47.9, 333.9 112, 348.4L112, 400L76, 400C69.4, 400 64, 405.4 64, 412L64, 452C64, 458.6 69.4, 464 76, 464L112, 464L112, 500C112, 506.6 117.4, 512 124, 512L164, 512C170.6, 512 176, 506.6 176, 500L176, 464L212, 464C218.6, 464 224, 458.6 224, 452L224, 412C224, 405.4 218.6, 400 212, 400L176, 400L176, 348.4C240.1, 333.9 288, 276.5 288, 208zM64, 208C64, 163.9 99.9, 128 144, 128C188.1, 128 224, 163.9 224, 208C224, 252.1 188.1, 288 144, 288C99.9, 288 64, 252.1 64, 208z" fill="#727272" fill-opacity="1" class="Black" />
  </g>
</svg>