<?xml version='1.0' encoding='UTF-8'?>
<svg viewBox="-2 -2 32 32" xmlns="http://www.w3.org/2000/svg">
  <g transform="matrix(0.0547, 0, 0, 0.0547, 0, 0)">
    <path d="M160, 320L172, 320L172, 336C172, 344.84 179.16, 352 188, 352L228, 352C236.84, 352 244, 344.84 244, 336L244, 320L256, 320C273.67, 320 288, 305.67 288, 288L288, 64C288, 46.33 273.67, 32 256, 32L256, 16C256, 7.16 248.84, 0 240, 0L176, 0C167.16, 0 160, 7.16 160, 16L160, 32C142.33, 32 128, 46.33 128, 64L128, 288C128, 305.67 142.33, 320 160, 320zM464, 448L462.71, 448C493.24, 413.99 512, 369.2 512, 320C512, 214.12 425.88, 128 320, 128L320, 192C390.58, 192 448, 249.42 448, 320C448, 390.58 390.58, 448 320, 448L48, 448C21.49, 448 0, 469.49 0, 496C0, 504.84 7.16, 512 16, 512L496, 512C504.84, 512 512, 504.84 512, 496C512, 469.49 490.51, 448 464, 448zM104, 416L312, 416C316.42, 416 320, 412.42 320, 408L320, 392C320, 387.58 316.42, 384 312, 384L104, 384C99.58, 384 96, 387.58 96, 392L96, 408C96, 412.42 99.58, 416 104, 416z" fill="#727272" fill-opacity="1" class="Black" />
  </g>
</svg>