<?xml version='1.0' encoding='UTF-8'?>
<svg viewBox="-6.3751 -2 32 32" xmlns="http://www.w3.org/2000/svg">
  <g transform="matrix(0.0547, 0, 0, 0.0547, 0, 0)">
    <path d="M336, 192L320, 192C311.16, 192 304, 199.16 304, 208L304, 256C304, 330.8 239.51, 390.82 163.21, 383.38C96.71, 376.89 48, 317.11 48, 250.3L48, 208C48, 199.16 40.84, 192 32, 192L16, 192C7.16, 192 0, 199.16 0, 208L0, 248.16C0, 337.8 63.97, 417.71 152, 429.85L152, 464L96, 464C87.16, 464 80, 471.16 80, 480L80, 496C80, 504.84 87.16, 512 96, 512L256, 512C264.84, 512 272, 504.84 272, 496L272, 480C272, 471.16 264.84, 464 256, 464L200, 464L200, 430.23C285.71, 418.47 352, 344.9 352, 256L352, 208C352, 199.16 344.84, 192 336, 192zM176, 352C229.02, 352 272, 309.02 272, 256L186.67, 256C180.78, 256 176, 252.42 176, 248L176, 232C176, 227.58 180.78, 224 186.67, 224L272, 224L272, 192L186.67, 192C180.78, 192 176, 188.42 176, 184L176, 168C176, 163.58 180.78, 160 186.67, 160L272, 160L272, 128L186.67, 128C180.78, 128 176, 124.42 176, 120L176, 104C176, 99.58 180.78, 96 186.67, 96L272, 96C272, 42.98 229.02, 0 176, 0C122.98, 0 80, 42.98 80, 96L80, 256C80, 309.02 122.98, 352 176, 352z" fill="#727272" fill-opacity="1" class="Black" />
  </g>
</svg>