<?xml version='1.0' encoding='UTF-8'?>
<svg viewBox="-1.9988 -2 32 32" xmlns="http://www.w3.org/2000/svg">
  <g transform="matrix(0.0547, 0, 0, 0.0547, 0, 0)">
    <path d="M289.54, 60.53C265.69, 84.37 254.97, 116.08 256.54, 147.3L364.69, 255.44C395.91, 257.02 427.63, 246.3 451.47, 222.44L453.66, 220.26L291.72, 58.34zM6.74, 423.18A26.67 26.67 0 0 0 7.81, 459.75L52.19, 504.12A26.74 26.74 0 0 0 88.82, 505.26L224, 385.93L224, 496A16 16 0 0 0 240, 512L272, 512A16 16 0 0 0 288, 496L288, 329.44L344, 280L232, 168zM478.46, 33.54A114.49 114.49 0 0 0 316.53, 33.54L314.34, 35.72L476.28, 197.65L478.46, 195.47A114.49 114.49 0 0 0 478.46, 33.54z" fill="#727272" fill-opacity="1" class="Black" />
  </g>
</svg>