<?xml version='1.0' encoding='UTF-8'?>
<svg viewBox="-1.9975 -4.7973 32 32" xmlns="http://www.w3.org/2000/svg">
  <g transform="matrix(0.999, 0, 0, 0.999, 0, 0)">
    <g transform="matrix(0.0438, 0, 0, 0.0438, 0, 0)">
      <path d="M633.82, 458.1L476.02, 336.14C488.61, 312.13 496, 285.01 496, 256L496, 208C496, 199.16 488.84, 192 480, 192L464, 192C455.16, 192 448, 199.16 448, 208L448, 256C448, 273.92 444.04, 290.8 437.28, 306.2L410.73, 285.68C413.83, 276.28 416.01, 266.46 416.01, 256.01L416.01, 96C416.01, 42.98 373.03, 0 320.01, 0C266.99, 0 224.01, 42.98 224.01, 96L224.01, 141.36L45.47, 3.37C38.49, -2.05 28.43, -0.8 23.01, 6.18L3.37, 31.45C-2.05, 38.42 -0.8, 48.47 6.18, 53.9L594.54, 508.63C601.52, 514.06 611.57, 512.8 617, 505.82L636.64, 480.55C642.05, 473.58 640.8, 463.53 633.82, 458.1zM400, 464L344, 464L344, 430.23C355.66, 428.63 366.85, 425.69 377.67, 421.92L327.56, 383.19C320.85, 383.59 314.15, 384.06 307.21, 383.39C251.36, 377.94 208.47, 334.76 196.03, 281.54L144, 241.31L144, 248.16C144, 337.8 207.97, 417.71 296, 429.85L296, 464L240, 464C231.16, 464 224, 471.16 224, 480L224, 496C224, 504.84 231.16, 512 240, 512L400, 512C408.84, 512 416, 504.84 416, 496L416, 480C416, 471.16 408.84, 464 400, 464z" fill="#727272" fill-opacity="1" class="Black" />
    </g>
  </g>
</svg>