<?xml version='1.0' encoding='UTF-8'?>
<svg viewBox="-2 -2 32 32" xmlns="http://www.w3.org/2000/svg">
  <g transform="matrix(0.0547, 0, 0, 0.0547, 0, 0)">
    <path d="M497.9, 150.5C506.9, 159.5 512, 171.7 512, 184.4L512, 327.5C512, 340.2 506.9, 352.4 497.9, 361.4L361.5, 497.9C352.5, 506.9 340.3, 512 327.6, 512L184.5, 512C171.8, 512 159.6, 506.9 150.6, 497.9L14.1, 361.5C5.1, 352.5 0, 340.3 0, 327.6L0, 184.5C0, 171.8 5.1, 159.6 14.1, 150.6L150.5, 14.1C159.5, 5.1 171.7, 0 184.4, 0L327.5, 0C340.2, 0 352.4, 5.1 361.4, 14.1L497.9, 150.5zM388, 296C394.6, 296 400, 290.6 400, 284L400, 228C400, 221.4 394.6, 216 388, 216L124, 216C117.4, 216 112, 221.4 112, 228L112, 284C112, 290.6 117.4, 296 124, 296L388, 296z" fill="#727272" fill-opacity="1" class="Black" />
  </g>
</svg>