<?xml version='1.0' encoding='UTF-8'?>
<svg viewBox="-1.9949 -3.5577 31.995 32" xmlns="http://www.w3.org/2000/svg">
  <g transform="matrix(0.0486, 0, 0, 0.0486, 0, 0)">
    <path d="M373.3, 117.3C396.9, 117.3 416, 98.2 416, 74.6C416, 51 396.9, 32 373.3, 32C349.7, 32 330.6, 51.1 330.6, 74.7C330.6, 98.3 349.8, 117.3 373.3, 117.3zM542.1, 261.4C516.1, 235.4 452.5, 222.8 411.2, 217.2L312, 117.1C303.6, 105 298.7, 90.5 298.7, 74.7C298.7, 58.9 303.7, 44.4 312, 32.3L312, 16C312, 7.2 304.8, 0 296, 0L280, 0C271.2, 0 264, 7.2 264, 16L264, 118.1L164.9, 217.2C123.6, 222.8 60, 235.4 34, 261.4C-6, 301.4 -11.4, 360.8 21.9, 394.1C55.2, 427.4 114.7, 422 154.6, 382C166, 370.6 174.7, 351.8 181.5, 331C188.3, 343.3 201, 351.9 216, 351.9C238.1, 351.9 256, 334 256, 311.9C256, 289.8 238.1, 271.9 216, 271.9C207.8, 271.9 200.6, 275 194.3, 279.2C196.1, 269.2 197.7, 259.6 198.8, 251L264, 185.8L264, 258.6C278.6, 271.8 288, 290.7 288, 311.9C288, 351.6 255.7, 383.9 216, 383.9C209.8, 383.9 203.9, 382.9 198.2, 381.4C194.5, 391.3 192, 400.9 192, 409.5C192, 466.1 235, 511.9 288, 511.9C341, 511.9 384, 466.1 384, 409.5C384, 371.4 340.4, 314.9 312, 282.2L312, 185.9L377.2, 251.1C382.8, 292.4 395.4, 356 421.4, 382C461.4, 422 520.8, 427.4 554.1, 394.1C587.5, 360.8 582.1, 301.4 542.1, 261.4z" fill="#727272" fill-opacity="1" class="Black" />
  </g>
</svg>