<?xml version='1.0' encoding='UTF-8'?>
<svg viewBox="-3.7486 -1.9976 32 32" xmlns="http://www.w3.org/2000/svg">
  <g transform="matrix(0.0547, 0, 0, 0.0547, 0, 0)">
    <path d="M368, 416L48, 416C39.2, 416 32, 423.2 32, 432L32, 496C32, 504.8 39.2, 512 48, 512L368, 512C376.8, 512 384, 504.8 384, 496L384, 432C384, 423.2 376.8, 416 368, 416zM425, 206.9C397.8, 184.3 357.5, 187.9 334.9, 215.1L314, 240.1L284.4, 111.7C266.4, 34.2 189, -14.2 111.6, 3.7C34.2, 21.6 -14.2, 98.9 3.7, 176.4L51.6, 384L360.6, 384L433.1, 297C455.8, 269.8 452.1, 229.5 425, 206.9z" fill="#727272" fill-opacity="1" class="Black" />
  </g>
</svg>