<?xml version='1.0' encoding='UTF-8'?>
<svg viewBox="-7.2499 -2 32 32" xmlns="http://www.w3.org/2000/svg">
  <g transform="matrix(0.0547, 0, 0, 0.0547, 0, 0)">
    <path d="M272, 0L48, 0C21.5, 0 0, 21.5 0, 48L0, 464C0, 490.5 21.5, 512 48, 512L272, 512C298.5, 512 320, 490.5 320, 464L320, 48C320, 21.5 298.5, 0 272, 0zM208, 452C208, 458.6 202.6, 464 196, 464L124, 464C117.4, 464 112, 458.6 112, 452L112, 444C112, 437.4 117.4, 432 124, 432L196, 432C202.6, 432 208, 437.4 208, 444L208, 452zM272, 372C272, 378.6 266.6, 384 260, 384L60, 384C53.4, 384 48, 378.6 48, 372L48, 60C48, 53.4 53.4, 48 60, 48L260, 48C266.6, 48 272, 53.4 272, 60L272, 372z" fill="#727272" fill-opacity="1" class="Black" />
  </g>
</svg>