<?xml version='1.0' encoding='UTF-8'?>
<svg viewBox="-1.9999 -4.7979 32 31.9975" xmlns="http://www.w3.org/2000/svg">
  <g transform="matrix(1.0011, 0, 0, 1.0011, 0, 0)">
    <g transform="matrix(0.0437, 0, 0, 0.0437, 0, 0)">
      <path d="M204.78, 116.47L208.88, 120.57L280.57, 48.77L238.78, 7A24.1 24.1 0 0 0 204.88, 7L167, 44.87A24 24 0 0 0 167, 78.67zM608, 160L437, 160L557.25, 280.28A64 64 0 0 1 576, 325.54L576, 400A16 16 0 0 1 560, 416L264, 416A8 8 0 0 1 256, 408L256, 392A8 8 0 0 1 264, 384L427, 384L363, 320L264, 320A8 8 0 0 1 256, 312L256, 296A8 8 0 0 1 264, 288L331, 288L203, 160L32, 160A32 32 0 0 0 0, 192L0, 480A32 32 0 0 0 32, 512L608, 512A32 32 0 0 0 640, 480L640, 192A32 32 0 0 0 608, 160zM144, 415.88L144, 432A8 8 0 0 1 136, 440L120, 440A8 8 0 0 1 112, 432L112, 415.71A57.26 57.26 0 0 1 80.63, 404.36A8 8 0 0 1 80.06, 392.22L91.81, 381A8.21 8.21 0 0 1 101.94, 380.27A24.08 24.08 0 0 0 114.76, 384L142.87, 384C149.37, 384 154.67, 378.08 154.67, 370.81C154.67, 364.86 151.06, 359.62 145.9, 358.08L100.9, 344.58C82.31, 339 69.32, 321.16 69.32, 301.19C69.32, 276.67 88.37, 256.75 111.99, 256.12L111.99, 240A8 8 0 0 1 119.99, 232L135.99, 232A8 8 0 0 1 143.99, 240L143.99, 256.29A57.18 57.18 0 0 1 175.36, 267.64A8 8 0 0 1 175.93, 279.78L164.18, 291A8.22 8.22 0 0 1 154.04, 291.73A23.93 23.93 0 0 0 141.23, 288L113.12, 288C106.62, 288 101.32, 293.92 101.32, 301.19C101.32, 307.14 104.93, 312.38 110.09, 313.92L155.09, 327.42C173.68, 333 186.66, 350.84 186.66, 370.81C186.66, 395.34 167.62, 415.25 144, 415.88zM462.87, 374.63A32 32 0 0 0 485.49, 384L528, 384A16 16 0 0 0 544, 368L544, 325.54A32 32 0 0 0 534.63, 302.91L303.17, 71.47L231.47, 143.17z" fill="#727272" fill-opacity="1" class="Black" />
    </g>
  </g>
</svg>