<?xml version='1.0' encoding='UTF-8'?>
<svg viewBox="-2 -4.7992 32 32" xmlns="http://www.w3.org/2000/svg">
  <g transform="matrix(0.9988, 0, 0, 0.9988, 0, 0)">
    <g transform="matrix(0.0438, 0, 0, 0.0438, 0, 0)">
      <path d="M0, 448C0, 465.67 14.33, 480 32, 480L608, 480C625.67, 480 640, 465.67 640, 448L640, 128L0, 128L0, 448zM448, 240C448, 231.16 455.16, 224 464, 224L560, 224C568.84, 224 576, 231.16 576, 240L576, 272C576, 280.84 568.84, 288 560, 288L464, 288C455.16, 288 448, 280.84 448, 272L448, 240zM448, 360C448, 355.58 451.58, 352 456, 352L568, 352C572.42, 352 576, 355.58 576, 360L576, 376C576, 380.42 572.42, 384 568, 384L456, 384C451.58, 384 448, 380.42 448, 376L448, 360zM64, 264C64, 259.58 67.58, 256 72, 256L376, 256C380.42, 256 384, 259.58 384, 264L384, 280C384, 284.42 380.42, 288 376, 288L72, 288C67.58, 288 64, 284.42 64, 280L64, 264zM64, 360C64, 355.58 67.58, 352 72, 352L248, 352C252.42, 352 256, 355.58 256, 360L256, 376C256, 380.42 252.42, 384 248, 384L72, 384C67.58, 384 64, 380.42 64, 376L64, 360zM624, 32L16, 32C7.16, 32 0, 39.16 0, 48L0, 96L640, 96L640, 48C640, 39.16 632.84, 32 624, 32z" fill="#727272" fill-opacity="1" class="Black" />
    </g>
  </g>
</svg>