<?xml version='1.0' encoding='UTF-8'?>
<svg viewBox="-1.9999 -4.7979 32 31.9975" xmlns="http://www.w3.org/2000/svg">
  <g transform="matrix(1.0011, 0, 0, 1.0011, 0, 0)">
    <g transform="matrix(0.0437, 0, 0, 0.0437, 0, 0)">
      <path d="M608, 32L32, 32C14.33, 32 0, 46.33 0, 64L0, 448C0, 465.67 14.33, 480 32, 480L608, 480C625.67, 480 640, 465.67 640, 448L640, 64C640, 46.33 625.67, 32 608, 32zM176, 327.88L176, 344C176, 348.42 172.42, 352 168, 352L152, 352C147.58, 352 144, 348.42 144, 344L144, 327.71C132.71, 327.13 121.73, 323.19 112.63, 316.36C108.73, 313.43 108.53, 307.59 112.06, 304.22L123.81, 293.01C126.58, 290.37 130.7, 290.25 133.94, 292.28C137.81, 294.7 142.2, 296 146.76, 296L174.87, 296C181.37, 296 186.67, 290.08 186.67, 282.81C186.67, 276.86 183.06, 271.62 177.9, 270.08L132.9, 256.58C114.31, 251 101.32, 233.16 101.32, 213.19C101.32, 188.67 120.37, 168.75 143.99, 168.12L143.99, 152C143.99, 147.58 147.57, 144 151.99, 144L167.99, 144C172.41, 144 175.99, 147.58 175.99, 152L175.99, 168.29C187.28, 168.87 198.26, 172.8 207.36, 179.64C211.26, 182.57 211.46, 188.41 207.93, 191.78L196.18, 202.99C193.41, 205.63 189.29, 205.75 186.05, 203.72C182.18, 201.29 177.79, 200 173.23, 200L145.12, 200C138.62, 200 133.32, 205.92 133.32, 213.19C133.32, 219.14 136.93, 224.38 142.09, 225.92L187.09, 239.42C205.68, 245 218.67, 262.84 218.67, 282.81C218.67, 307.34 199.62, 327.25 176, 327.88zM416, 312C416, 316.42 412.42, 320 408, 320L296, 320C291.58, 320 288, 316.42 288, 312L288, 296C288, 291.58 291.58, 288 296, 288L408, 288C412.42, 288 416, 291.58 416, 296L416, 312zM576, 312C576, 316.42 572.42, 320 568, 320L488, 320C483.58, 320 480, 316.42 480, 312L480, 296C480, 291.58 483.58, 288 488, 288L568, 288C572.42, 288 576, 291.58 576, 296L576, 312zM576, 216C576, 220.42 572.42, 224 568, 224L296, 224C291.58, 224 288, 220.42 288, 216L288, 200C288, 195.58 291.58, 192 296, 192L568, 192C572.42, 192 576, 195.58 576, 200L576, 216z" fill="#727272" fill-opacity="1" class="Black" />
    </g>
  </g>
</svg>