<?xml version='1.0' encoding='UTF-8'?>
<svg viewBox="-1.9998 -3.5563 31.9975 32" xmlns="http://www.w3.org/2000/svg">
  <g transform="matrix(0.0486, 0, 0, 0.0486, 0, 0)">
    <path d="M480, 96L96, 96L96, 256L196.95, 256C199.98, 256 202.75, 257.71 204.1, 260.42L224, 300.22L273.69, 200.84C279.59, 189.05 296.41, 189.05 302.31, 200.84L329.89, 256L400, 256C408.84, 256 416, 263.16 416, 272C416, 280.84 408.84, 288 400, 288L310.11, 288L288, 243.78L238.31, 343.16C232.41, 354.95 215.59, 354.95 209.69, 343.16L182.11, 288L96, 288L96, 416L480, 416L480, 96zM528, 0L48, 0C21.49, 0 0, 21.49 0, 48L0, 464C0, 490.51 21.49, 512 48, 512L528, 512C554.51, 512 576, 490.51 576, 464L576, 48C576, 21.49 554.51, 0 528, 0zM512, 448L64, 448L64, 64L512, 64L512, 448z" fill="#727272" fill-opacity="1" class="Black" />
  </g>
</svg>