<?xml version='1.0' encoding='UTF-8'?>
<svg viewBox="-2 -4.7992 32 32" xmlns="http://www.w3.org/2000/svg">
  <g transform="matrix(0.9988, 0, 0, 0.9988, 0, 0)">
    <g transform="matrix(0.0438, 0, 0, 0.0438, 0, 0)">
      <path d="M549.47, 267.22C529.43, 280.25 505.64, 288 480, 288C423.33, 288 375.71, 250.74 358.92, 199.62C262.91, 224.9 192, 312.05 192, 416L192, 448C174.36, 448 160, 433.64 160, 416L160, 176C160, 131.89 124.11, 96 80, 96C35.89, 96 0, 131.89 0, 176L0, 224C0, 241.67 14.33, 256 32, 256C49.67, 256 64, 241.67 64, 224L64, 176C64, 167.17 71.17, 160 80, 160C88.83, 160 96, 167.17 96, 176L96, 416C96, 468.94 139.06, 512 192, 512L432, 512C440.84, 512 448, 504.84 448, 496L448, 480C448, 462.33 433.67, 448 416, 448L352, 448L507.68, 344.21L542.36, 448.23L544, 458.34L544, 496C544, 504.84 551.16, 512 560, 512L592, 512C600.84, 512 608, 504.84 608, 496L608, 458.39C608, 448.05 606.33, 437.78 603.06, 427.97L549.47, 267.22zM592, 64L570.12, 64C556.9, 26.8 521.74, 0 480, 0C438.26, 0 403.1, 26.8 389.88, 64L368, 64C341.49, 64 320, 85.49 320, 112C320, 138.51 341.49, 160 368, 160L384, 160C384, 213.02 426.98, 256 480, 256C533.02, 256 576, 213.02 576, 160L592, 160C618.51, 160 640, 138.51 640, 112C640, 85.49 618.51, 64 592, 64zM440, 120C431.16, 120 424, 112.84 424, 104C424, 95.16 431.16, 88 440, 88C448.84, 88 456, 95.16 456, 104C456, 112.84 448.84, 120 440, 120zM520, 120C511.16, 120 504, 112.84 504, 104C504, 95.16 511.16, 88 520, 88C528.84, 88 536, 95.16 536, 104C536, 112.84 528.84, 120 520, 120z" fill="#727272" fill-opacity="1" class="Black" />
    </g>
  </g>
</svg>