<?xml version='1.0' encoding='UTF-8'?>
<svg viewBox="-1.9998 -3.5536 31.9975 32" xmlns="http://www.w3.org/2000/svg">
  <g transform="matrix(0.0486, 0, 0, 0.0486, 0, 0)">
    <path d="M256, 256C244, 256 232.9, 259.5 223.3, 265.2C219.8, 224.2 185.9, 192 144, 192C105.2, 192 72.9, 219.6 65.6, 256.2C65.1, 256.2 64.6, 256 64, 256C28.7, 256 0, 284.7 0, 320C0, 355.3 28.7, 384 64, 384L256, 384C291.3, 384 320, 355.3 320, 320C320, 284.7 291.3, 256 256, 256zM565.3, 362.4C472.2, 380.1 386.8, 308.7 386.8, 214.7C386.8, 160.5 415.8, 110.7 462.9, 83.9C470.2, 79.8 468.3, 68.8 460.1, 67.2C448.5, 65.1 436.8, 64 425.1, 64C334.3, 64 258.4, 127.2 238.5, 212.1C241, 216.1 243.4, 220.3 245.4, 224.7C249, 224.3 252.5, 224.1 256.1, 224.1C309, 224.1 352.1, 267.2 352.1, 320.1C352.1, 356.2 331.9, 387.3 302.4, 403.7C335.6, 431.4 378.4, 448.1 425.1, 448.1C484.3, 448.1 538.3, 421.2 574.1, 377C579.3, 370.4 573.5, 360.8 565.3, 362.4z" fill="#727272" fill-opacity="1" class="Black" />
  </g>
</svg>