<?xml version='1.0' encoding='UTF-8'?>
<svg viewBox="-2 -1.9988 32 32" xmlns="http://www.w3.org/2000/svg">
  <g transform="matrix(0.0547, 0, 0, 0.0547, 0, 0)">
    <path d="M501.54, 60.91C518.76, 43.69 514.05, 14.66 492.27, 3.77A35.696 35.696 0 0 0 454.9, 7.14L251.09, 160L402.46, 160L501.54, 60.91zM496, 192L16, 192C7.16, 192 0, 199.16 0, 208L0, 240C0, 248.84 7.16, 256 16, 256L32, 256C32, 336.98 82.2, 406.11 153.13, 434.32C140.37, 451.19 131.41, 471.12 128.18, 493.01C126.72, 502.93 134.22, 511.99 144.25, 511.99L367.75, 511.99C377.78, 511.99 385.28, 502.93 383.82, 493.01C380.6, 471.12 371.64, 451.19 358.87, 434.32C429.8, 406.11 480, 336.98 480, 256L496, 256C504.84, 256 512, 248.84 512, 240L512, 208C512, 199.16 504.84, 192 496, 192z" fill="#727272" fill-opacity="1" class="Black" />
  </g>
</svg>