<?xml version='1.0' encoding='UTF-8'?>
<svg viewBox="-2 -4.7992 32 32" xmlns="http://www.w3.org/2000/svg">
  <g transform="matrix(0.9988, 0, 0, 0.9988, 0, 0)">
    <g transform="matrix(0.0438, 0, 0, 0.0438, 0, 0)">
      <path d="M0, 480C0, 497.67 14.33, 512 32, 512L96, 512C113.67, 512 128, 497.67 128, 480L128, 160L0, 160L0, 480zM579.16, 288C597.02, 270.61 608, 250.66 608, 229.09C608, 176.23 566.21, 135.3 520.08, 106.19C478.14, 79.72 439.45, 48.42 408.12, 9.97L400, 0L391.88, 9.97C360.55, 48.42 321.87, 79.73 279.92, 106.19C233.79, 135.3 192, 176.23 192, 229.09C192, 250.66 202.98, 270.61 220.84, 288L579.16, 288zM608, 320L192, 320C174.33, 320 160, 334.33 160, 352L160, 480C160, 497.67 174.33, 512 192, 512L224, 512L224, 448C224, 430.33 238.33, 416 256, 416C273.67, 416 288, 430.33 288, 448L288, 512L352, 512L352, 440C352, 392 400, 368 400, 368C400, 368 448, 392 448, 440L448, 512L512, 512L512, 448C512, 430.33 526.33, 416 544, 416C561.67, 416 576, 430.33 576, 448L576, 512L608, 512C625.67, 512 640, 497.67 640, 480L640, 352C640, 334.33 625.67, 320 608, 320zM64, 0C64, 0 0, 32 0, 96L0, 128L128, 128L128, 96C128, 32 64, 0 64, 0z" fill="#727272" fill-opacity="1" class="Black" />
    </g>
  </g>
</svg>