<?xml version='1.0' encoding='UTF-8'?>
<svg viewBox="-2 -4.8002 32 32" xmlns="http://www.w3.org/2000/svg">
  <g transform="matrix(1.001, 0, 0, 1.001, 0, 0)">
    <g transform="matrix(0.0437, 0, 0, 0.0437, 0, 0)">
      <path d="M512.9, 192C498, 191.9 483.8, 194.3 470.5, 198.9L437.6, 144L520, 144C533.3, 144 544, 133.3 544, 120L544, 88C544, 74.7 533.3, 64 520, 64L474.7, 64C467.9, 64 461.4, 66.9 456.9, 71.9L419.4, 113.6L396.6, 75.6C392.2, 68.4 384.4, 64 376, 64L296, 64C287.2, 64 280, 71.2 280, 80L280, 96C280, 104.8 287.2, 112 296, 112L362.4, 112L381.6, 144L227.9, 144C210.2, 120.9 183, 104 128, 104L72.5, 104C59, 104 47.7, 115 48, 128.5C48.2, 141.5 58.9, 152 72, 152L128, 152C152.5, 152 166.7, 162.9 175.8, 176.8L164.5, 197.3C151.5, 193.4 137.6, 191.6 123.2, 192.1C55.9, 194.5 1.6, 249.6 0, 317C-1.6, 389.1 56.3, 448 128, 448C187.6, 448 237.7, 407.2 252, 352L336.2, 352C349.9, 352 360.8, 340.6 360.2, 326.9C358.1, 279.8 377.7, 233.2 416.4, 201.9L428.9, 222.7C401.3, 246.4 383.8, 281.6 384.1, 320.9C384.6, 390.5 441.3, 447.4 510.9, 448C582.5, 448.7 640.7, 390.5 640.1, 318.9C639.4, 249.3 582.5, 192.5 512.9, 192zM128, 400C83.9, 400 48, 364.1 48, 320C48, 275.9 83.9, 240 128, 240C132.2, 240 136.4, 240.3 140.5, 241L99, 316.4C90.2, 332.4 101.8, 352 120, 352L201.3, 352C188.9, 380.2 160.7, 400 128, 400zM591.9, 324.4C589.7, 365 556.9, 397.8 516.4, 399.9C470.3, 402.4 432, 365.6 432, 320C432, 298.6 440.4, 279.2 454.1, 264.9L503.5, 347.3C508, 354.9 517.9, 357.3 525.5, 352.8L539.2, 344.6C546.8, 340.1 549.2, 330.2 544.7, 322.6L496.1, 241.7C501.3, 240.6 506.6, 240.1 512, 240.1C557.6, 240 594.3, 278.3 591.9, 324.4z" fill="#727272" fill-opacity="1" class="Black" />
    </g>
  </g>
</svg>