<?xml version='1.0' encoding='UTF-8'?>
<svg viewBox="-2 -4.7992 32 32" xmlns="http://www.w3.org/2000/svg">
  <g transform="matrix(0.9988, 0, 0, 0.9988, 0, 0)">
    <g transform="matrix(0.0438, 0, 0, 0.0438, 0, 0)">
      <path d="M635.73, 406.91L441.69, 109.31C430.12, 91.56 401.89, 91.56 390.32, 109.31L357.48, 159.68L425.16, 265.36C427.54, 269.08 426.46, 274.03 422.74, 276.41L409.28, 285.03C405.56, 287.41 400.61, 286.33 398.23, 282.61L338.33, 189.07L267.52, 78.52C255.12, 59.16 224.88, 59.16 212.48, 78.52L4.58, 403.18C-7.99, 422.81 6.81, 448 30.92, 448L611.14, 448C633.64, 448 647.46, 424.91 635.73, 406.91z" fill="#727272" fill-opacity="1" class="Black" />
    </g>
  </g>
</svg>