<?xml version='1.0' encoding='UTF-8'?>
<svg viewBox="-1.9999 -1.9974 32 31.9975" xmlns="http://www.w3.org/2000/svg">
  <g transform="matrix(0.0547, 0, 0, 0.0547, 0, 0)">
    <path d="M178.5, 67.2L200.9, 44.8C195, 37.5 186.4, 32.4 176.3, 32.4L64, 32.4C46.3, 32.4 32, 46.7 32, 64.4L32, 128.3L162.1, 128.3C156.6, 107.2 161.9, 83.7 178.5, 67.2zM196.7, 128.4L347.7, 128.4C354.9, 116.1 353.8, 100.3 343.3, 89.8L294.8, 41.4C282.3, 28.9 262, 28.9 249.5, 41.4L201, 89.8C190.6, 100.3 189.5, 116.1 196.7, 128.4zM400, 160.3L160, 160.3L160, 223.8C160, 241.5 145.7, 255.8 128, 255.8C110.3, 255.8 96, 241.5 96, 223.8L96, 160.3L32, 160.3C14.3, 160.3 0, 174.6 0, 192.3L0, 384.1C0, 437.1 43, 480 96, 480L288, 480C341, 480 384, 437.1 384, 384.1L400, 384.1C461.8, 384.1 512, 333.9 512, 272.2C512, 210.5 461.8, 160.3 400, 160.3zM400, 320.2L384, 320.2L384, 224.3L400, 224.3C426.5, 224.3 448, 245.8 448, 272.2C448, 298.6 426.5, 320.2 400, 320.2z" fill="#727272" fill-opacity="1" class="Black" />
  </g>
</svg>