<?xml version='1.0' encoding='UTF-8'?>
<svg viewBox="-1.9975 -4.7983 32 32" xmlns="http://www.w3.org/2000/svg">
  <g transform="matrix(0.9989, 0, 0, 0.9989, 0, 0)">
    <g transform="matrix(0.0438, 0, 0, 0.0438, 0, 0)">
      <path d="M595.6, 416L12.36, 416C-12.64, 416 0.76, 480 48.36, 480L559.71, 480C607.4, 480 620.6, 416 595.6, 416zM192, 384L384, 384A96 96 0 0 0 480, 288L512, 288A128 128 0 0 0 512, 32L240, 32L240, 96L278.63, 134.63A32 32 0 0 1 288, 157.25L288, 224A32 32 0 0 1 256, 256L192, 256A32 32 0 0 1 160, 224L160, 157.25A32 32 0 0 1 169.37, 134.63L208, 96L208, 32L120, 32A23.94 23.94 0 0 0 96, 56L96, 288A96 96 0 0 0 192, 384zM480, 96L512, 96A64 64 0 0 1 512, 224L480, 224z" fill="#727272" fill-opacity="1" class="Black" />
    </g>
  </g>
</svg>