<?xml version='1.0' encoding='UTF-8'?>
<svg viewBox="-2 -1.9963 32 31.9975" xmlns="http://www.w3.org/2000/svg">
  <g transform="matrix(0.0547, 0, 0, 0.0547, 0, 0)">
    <path d="M470.38, 1.51L150.41, 96A32 32 0 0 0 128, 126.51L128, 387.92A139 139 0 0 0 96, 384C43, 384 0, 412.66 0, 448C0, 483.34 43, 512 96, 512C149, 512 192, 483.34 192, 448L192, 214.32L448, 139.32L448, 323.93A138.4 138.4 0 0 0 416, 320C363, 320 320, 348.66 320, 384C320, 419.34 363, 448 416, 448C469, 448 512, 419.35 512, 384L512, 32A32 32 0 0 0 470.38, 1.51z" fill="#727272" fill-opacity="1" class="Black" />
  </g>
</svg>