<?xml version='1.0' encoding='UTF-8'?>
<svg viewBox="-1.9998 -4.8002 31.9975 32" xmlns="http://www.w3.org/2000/svg">
  <g transform="matrix(0.9988, 0, 0, 0.9988, 0, 0)">
    <g transform="matrix(0.0438, 0, 0, 0.0438, 0, 0)">
      <path d="M640, 264L640, 248C640, 239.16 632.84, 232 624, 232L344, 232L344, 192L416, 192C433.67, 192 448, 177.67 448, 160L448, 32C448, 14.33 433.67, 0 416, 0L224, 0C206.33, 0 192, 14.33 192, 32L192, 160C192, 177.67 206.33, 192 224, 192L296, 192L296, 232L16, 232C7.16, 232 0, 239.16 0, 248L0, 264C0, 272.84 7.16, 280 16, 280L120, 280L120, 320L64, 320C46.33, 320 32, 334.33 32, 352L32, 480C32, 497.67 46.33, 512 64, 512L224, 512C241.67, 512 256, 497.67 256, 480L256, 352C256, 334.33 241.67, 320 224, 320L168, 320L168, 280L472, 280L472, 320L416, 320C398.33, 320 384, 334.33 384, 352L384, 480C384, 497.67 398.33, 512 416, 512L576, 512C593.67, 512 608, 497.67 608, 480L608, 352C608, 334.33 593.67, 320 576, 320L520, 320L520, 280L624, 280C632.84, 280 640, 272.84 640, 264zM256, 128L256, 64L384, 64L384, 128L256, 128zM192, 448L96, 448L96, 384L192, 384L192, 448zM544, 448L448, 448L448, 384L544, 384L544, 448z" fill="#727272" fill-opacity="1" class="Black" />
    </g>
  </g>
</svg>