<?xml version='1.0' encoding='UTF-8'?>
<svg viewBox="-1.9999 -3.5527 32 31.9975" xmlns="http://www.w3.org/2000/svg">
  <g transform="matrix(0.0486, 0, 0, 0.0486, 0, 0)">
    <path d="M552, 64L88, 64C74.745, 64 64, 74.745 64, 88L64, 96L24, 96C10.745, 96 0, 106.745 0, 120L0, 392C0, 422.928 25.072, 448 56, 448L528, 448C554.51, 448 576, 426.51 576, 400L576, 88C576, 74.745 565.255, 64 552, 64zM56, 400A8 8 0 0 1 48, 392L48, 144L64, 144L64, 392A8 8 0 0 1 56, 400zM292, 384L140, 384C133.373, 384 128, 378.627 128, 372L128, 364C128, 357.373 133.373, 352 140, 352L292, 352C298.627, 352 304, 357.373 304, 364L304, 372C304, 378.627 298.627, 384 292, 384zM500, 384L348, 384C341.373, 384 336, 378.627 336, 372L336, 364C336, 357.373 341.373, 352 348, 352L500, 352C506.627, 352 512, 357.373 512, 364L512, 372C512, 378.627 506.627, 384 500, 384zM292, 288L140, 288C133.373, 288 128, 282.627 128, 276L128, 268C128, 261.373 133.373, 256 140, 256L292, 256C298.627, 256 304, 261.373 304, 268L304, 276C304, 282.627 298.627, 288 292, 288zM500, 288L348, 288C341.373, 288 336, 282.627 336, 276L336, 268C336, 261.373 341.373, 256 348, 256L500, 256C506.627, 256 512, 261.373 512, 268L512, 276C512, 282.627 506.627, 288 500, 288zM500, 192L140, 192C133.373, 192 128, 186.627 128, 180L128, 140C128, 133.373 133.373, 128 140, 128L500, 128C506.627, 128 512, 133.373 512, 140L512, 180C512, 186.627 506.627, 192 500, 192z" fill="#727272" fill-opacity="1" class="Black" />
  </g>
</svg>