<?xml version='1.0' encoding='UTF-8'?>
<svg viewBox="-3.7494 -1.9974 32 31.9975" xmlns="http://www.w3.org/2000/svg">
  <g transform="matrix(0.0547, 0, 0, 0.0547, 0, 0)">
    <path d="M416, 208C433.67, 208 448, 193.67 448, 176L448, 144C448, 126.33 433.67, 112 416, 112L392.12, 112L443.99, 45.19C449.36, 38.17 448.03, 28.13 441.02, 22.76L415.61, 3.3C408.59, -2.08 398.55, -0.74 393.17, 6.27L311.09, 112L32, 112C14.33, 112 0, 126.33 0, 144L0, 176C0, 193.67 14.33, 208 32, 208L236.56, 208L162.03, 304L32, 304C14.33, 304 0, 318.33 0, 336L0, 368C0, 385.67 14.33, 400 32, 400L87.49, 400L35.62, 466.81C30.25, 473.82 31.58, 483.86 38.59, 489.24L64, 508.7C71.02, 514.08 81.06, 512.74 86.43, 505.73L168.52, 400L416, 400C433.67, 400 448, 385.67 448, 368L448, 336C448, 318.33 433.67, 304 416, 304L243.05, 304L317.58, 208L416, 208z" fill="#727272" fill-opacity="1" class="Black" />
  </g>
</svg>