<?xml version='1.0' encoding='UTF-8'?>
<svg viewBox="-2 -1.9988 32 32" xmlns="http://www.w3.org/2000/svg">
  <g transform="matrix(0.0547, 0, 0, 0.0547, 0, 0)">
    <path d="M480, 128L480, 96L500, 96C506.627, 96 512, 90.627 512, 84L512, 44C512, 37.373 506.627, 32 500, 32L460, 32C453.373, 32 448, 37.373 448, 44L448, 64L64, 64L64, 44C64, 37.373 58.627, 32 52, 32L12, 32C5.373, 32 0, 37.373 0, 44L0, 84C0, 90.627 5.373, 96 12, 96L32, 96L32, 416L12, 416C5.373, 416 0, 421.373 0, 428L0, 468C0, 474.627 5.373, 480 12, 480L52, 480C58.627, 480 64, 474.627 64, 468L64, 448L448, 448L448, 468C448, 474.627 453.373, 480 460, 480L500, 480C506.627, 480 512, 474.627 512, 468L512, 428C512, 421.373 506.627, 416 500, 416L480, 416L480, 128zM96, 276L96, 140C96, 133.373 101.373, 128 108, 128L276, 128C282.627, 128 288, 133.373 288, 140L288, 276C288, 282.627 282.627, 288 276, 288L108, 288C101.373, 288 96, 282.627 96, 276zM416, 372C416, 378.627 410.627, 384 404, 384L236, 384C229.373, 384 224, 378.627 224, 372L224, 320L296, 320C309.255, 320 320, 309.255 320, 296L320, 224L404, 224C410.627, 224 416, 229.373 416, 236L416, 372z" fill="#727272" fill-opacity="1" class="Black" />
  </g>
</svg>