<?xml version='1.0' encoding='UTF-8'?>
<svg viewBox="-2 -3.554 32 32" xmlns="http://www.w3.org/2000/svg">
  <g transform="matrix(0.0486, 0, 0, 0.0486, 0, 0)">
    <path d="M64, 320L64, 346A6 6 0 0 1 58, 352L6, 352A6 6 0 0 1 0, 346L0, 294A6 6 0 0 1 6, 288L32, 288L32, 96L6, 96A6 6 0 0 1 0, 90L0, 38A6 6 0 0 1 6, 32L58, 32A6 6 0 0 1 64, 38L64, 64L352, 64L352, 38A6 6 0 0 1 358, 32L410, 32A6 6 0 0 1 416, 38L416, 90A6 6 0 0 1 410, 96L384, 96L384, 288L410, 288A6 6 0 0 1 416, 294L416, 346A6 6 0 0 1 410, 352L358, 352A6 6 0 0 1 352, 346L352, 320L64, 320zM544, 256L544, 224L570, 224A6 6 0 0 0 576, 218L576, 166A6 6 0 0 0 570, 160L518, 160A6 6 0 0 0 512, 166L512, 192L408, 192L408, 264L416, 264C429.255, 264 440, 274.745 440, 288L440, 352C440, 365.255 429.255, 376 416, 376L352, 376C338.745, 376 328, 365.255 328, 352L328, 344L192, 344L192, 416L166, 416A6 6 0 0 0 160, 422L160, 474A6 6 0 0 0 166, 480L218, 480A6 6 0 0 0 224, 474L224, 448L512, 448L512, 474A6 6 0 0 0 518, 480L570, 480A6 6 0 0 0 576, 474L576, 422A6 6 0 0 0 570, 416L544, 416L544, 256z" fill="#727272" fill-opacity="1" class="Black" />
  </g>
</svg>