<?xml version='1.0' encoding='UTF-8'?>
<svg viewBox="-2 -4.7992 32 32" xmlns="http://www.w3.org/2000/svg">
  <g transform="matrix(0.9988, 0, 0, 0.9988, 0, 0)">
    <g transform="matrix(0.0438, 0, 0, 0.0438, 0, 0)">
      <path d="M629.8, 160.31L416, 224L365.51, 198.76A64.07 64.07 0 0 0 336.89, 192L280, 192L280, 144L336, 144C344.84, 144 352, 136.84 352, 128L352, 112C352, 103.16 344.84, 96 336, 96L176, 96C167.16, 96 160, 103.16 160, 112L160, 128C160, 136.84 167.16, 144 176, 144L232, 144L232, 192L176, 192L37.72, 166.86A31.9 31.9 0 0 0 31.93, 166.33C14.67, 166.33 0, 180.36 0, 198.34L0, 293.29C0, 308.75 11.06, 322.01 26.28, 324.77L96, 337.46L96, 384C96, 401.67 110.33, 416 128, 416L402.63, 416C411.18, 416 419.38, 412.58 425.39, 406.49L637.65, 191.74C639.15, 190.24 639.99, 188.2 639.99, 186.08L639.99, 168C640, 162.69 634.91, 158.85 629.8, 160.31zM96, 288.67L48, 279.94L48, 217.51L96, 226.24L96, 288.67zM549.33, 373.33C549.33, 396.89 568.43, 416 592, 416C615.57, 416 634.67, 396.9 634.67, 373.33C634.67, 349.76 592, 288 592, 288C592, 288 549.33, 349.77 549.33, 373.33z" fill="#727272" fill-opacity="1" class="Black" />
    </g>
  </g>
</svg>