<?xml version='1.0' encoding='UTF-8'?>
<svg viewBox="-2 -4.7992 32 32" xmlns="http://www.w3.org/2000/svg">
  <g transform="matrix(0.9988, 0, 0, 0.9988, 0, 0)">
    <g transform="matrix(0.0438, 0, 0, 0.0438, 0, 0)">
      <path d="M320, 384C364.18, 384 400, 348.18 400, 304C400, 271.21 380.23, 243.11 352, 230.75L352, 208L400, 208C408.84, 208 416, 200.84 416, 192L416, 176C416, 167.16 408.84, 160 400, 160L352, 160L352, 128L400, 128C408.84, 128 416, 120.84 416, 112L416, 96C416, 87.16 408.84, 80 400, 80L352, 80L352, 48L400, 48C408.84, 48 416, 40.84 416, 32L416, 16C416, 7.16 408.84, 0 400, 0L304, 0C295.16, 0 288, 7.16 288, 16L288, 230.75C259.77, 243.1 240, 271.21 240, 304C240, 348.18 275.82, 384 320, 384zM16, 384L32, 384C70.62, 384 104.72, 371.81 128, 352.16C151.28, 371.82 185.38, 384 224, 384C229.67, 384 235.01, 383.21 240.46, 382.7C223.75, 365.81 212.81, 343.53 209.5, 318.84C190.71, 316.4 176.16, 309.7 167.91, 302.1C159.01, 293.89 148.25, 288 136.14, 288L119.84, 288C107.73, 288 96.97, 293.89 88.07, 302.1C77.8, 311.58 58.04, 320 32, 320L16, 320C7.16, 320 0, 327.16 0, 336L0, 368C0, 376.84 7.16, 384 16, 384zM624, 448L608, 448C581.96, 448 562.2, 439.58 551.91, 430.1C543.01, 421.89 532.25, 416 520.14, 416L503.84, 416C491.73, 416 480.97, 421.89 472.07, 430.1C461.8, 439.58 442.04, 448 416, 448C389.96, 448 370.2, 439.58 359.91, 430.1C351.01, 421.89 340.25, 416 328.14, 416L311.84, 416C299.73, 416 288.97, 421.89 280.07, 430.1C269.8, 439.58 250.04, 448 224, 448C197.96, 448 178.2, 439.58 167.91, 430.1C159.01, 421.89 148.25, 416 136.14, 416L119.84, 416C107.73, 416 96.97, 421.89 88.07, 430.1C77.8, 439.58 58.04, 448 32, 448L16, 448C7.16, 448 0, 455.16 0, 464L0, 496C0, 504.84 7.16, 512 16, 512L32, 512C70.62, 512 104.72, 499.81 128, 480.16C151.28, 499.82 185.38, 512 224, 512C262.62, 512 296.72, 499.81 320, 480.16C343.28, 499.82 377.38, 512 416, 512C454.62, 512 488.72, 499.81 512, 480.16C535.28, 499.82 569.38, 512 608, 512L624, 512C632.84, 512 640, 504.84 640, 496L640, 464C640, 455.16 632.84, 448 624, 448zM624, 320L608, 320C581.96, 320 562.2, 311.58 551.91, 302.1C543.01, 293.89 532.25, 288 520.14, 288L503.84, 288C491.73, 288 480.97, 293.89 472.07, 302.1C463.83, 309.7 449.27, 316.4 430.48, 318.84C427.16, 343.53 416.23, 365.81 399.52, 382.7C404.98, 383.21 410.31, 384 415.98, 384C454.6, 384 488.7, 371.81 511.98, 352.16C535.26, 371.82 569.36, 384 607.98, 384L623.98, 384C632.82, 384 639.98, 376.84 639.98, 368L639.98, 336C640, 327.16 632.84, 320 624, 320z" fill="#727272" fill-opacity="1" class="Black" />
    </g>
  </g>
</svg>