<?xml version='1.0' encoding='UTF-8'?>
<svg viewBox="-2.0011 -1.9998 32 31.9975" xmlns="http://www.w3.org/2000/svg">
  <g transform="matrix(0.0547, 0, 0, 0.0547, 0, 0)">
    <path d="M360.6, 60.94A10.43 10.43 0 0 0 375.36, 60.94L396.93, 39.38A10.43 10.43 0 0 0 396.93, 24.62L375.35, 3.06C371.27, -1.01 364.67, -1.01 360.59, 3.06L339.02, 24.62A10.43 10.43 0 0 0 339.02, 39.38L360.6, 60.94zM412.11, 192C385.42, 192 360.34, 202.39 341.47, 221.25L317.22, 245.5C310.44, 252.27 301.44, 256 291.84, 256L245, 256C255.54, 233.9 259.17, 207.89 252.73, 180.77C242.63, 138.22 206.37, 104.66 163.21, 97.58C127.06, 91.65 92.31, 102.62 67.2, 126.36C59.84, 133.32 60.23, 145.21 68.32, 151.29L94.47, 170.92C100.19, 175.22 108.13, 175.24 113.67, 170.71C122.12, 163.81 132.69, 160 143.94, 160C170.41, 160 191.95, 181.53 191.95, 208C191.95, 234.47 170.41, 256 143.94, 256L112.04, 256C100.08, 256 92.3, 268.58 97.65, 279.28L113.74, 311.45C116.27, 316.51 121.34, 319.55 126.91, 320L159.94, 320C195.24, 320 223.95, 348.7 223.95, 384C223.95, 419.3 195.24, 448 159.94, 448C63.92, 448 37.59, 393.98 14.79, 355.97C10.26, 348.42 0.02, 352.39 0, 361.19C-0.09, 416 41.13, 512 159.94, 512C230.53, 512 287.96, 454.58 287.96, 384C287.96, 360.58 281.18, 338.9 270.15, 320L291.84, 320C318.53, 320 343.61, 309.61 362.48, 290.75L386.73, 266.5C393.51, 259.73 402.51, 256 412.11, 256C431.89, 256 447.99, 272.09 447.99, 291.88L447.99, 392C447.99, 405.23 429.22, 416 415.98, 416C376.58, 416 349.31, 391.76 334.16, 373.11C329.39, 367.24 319.96, 370.57 319.96, 378.13L319.96, 416C319.96, 416 319.96, 480 415.98, 480C464.52, 480 512, 440.53 512, 392L512, 291.88C512, 236.8 467.2, 192 412.11, 192zM454.29, 67.27C368.74, 132.39 285.24, 70.02 281.71, 67.32C275.69, 62.7 267.27, 62.94 261.57, 67.87C255.83, 72.79 254.3, 81.04 257.91, 87.67C259.52, 90.62 298.28, 160.01 376.71, 160.01C456.63, 160.01 475.49, 128.65 478.46, 122.35C479.48, 120.23 479.99, 117.88 479.99, 115.52L479.99, 80C479.99, 66.78 464.85, 59.31 454.29, 67.27z" fill="#727272" fill-opacity="1" class="Black" />
  </g>
</svg>