<?xml version='1.0' encoding='UTF-8'?>
<svg viewBox="-1.9999 -1.9999 32 32" xmlns="http://www.w3.org/2000/svg">
  <g transform="matrix(0.0547, 0, 0, 0.0547, 0, 0)">
    <path d="M488, 416L455.39, 416C498.28, 362.83 520.44, 292.32 509.03, 216.6C492.12, 104.36 399.19, 14.85 286.45, 1.77C131.74, -16.18 0, 104.82 0, 256C0, 316.59 21.27, 372.18 56.61, 416L24, 416C10.75, 416 0, 426.75 0, 440L0, 488C0, 501.25 10.75, 512 24, 512L160, 512C177.67, 512 192, 497.67 192, 480L192, 437.3C192, 416.77 180.91, 398.52 164.12, 386.71C115.9, 352.79 87.14, 293.04 98.45, 227.65C109.34, 164.72 158.95, 112.8 221.44, 99.64C324.68, 77.9 416, 156.49 416, 256C416, 310.44 388.6, 358.51 346.92, 387.38C330.43, 398.81 320, 417.01 320, 437.08L320, 480C320, 497.67 334.33, 512 352, 512L488, 512C501.25, 512 512, 501.25 512, 488L512, 440C512, 426.75 501.25, 416 488, 416z" fill="#727272" fill-opacity="1" class="Black" />
  </g>
</svg>