<?xml version='1.0' encoding='UTF-8'?>
<svg viewBox="-1.995 -4.7973 32 32" xmlns="http://www.w3.org/2000/svg">
  <g transform="matrix(0.999, 0, 0, 0.999, 0, 0)">
    <g transform="matrix(0.0438, 0, 0, 0.0438, 0, 0)">
      <path d="M608, 32L576, 32L562.75, 18.75A63.97 63.97 0 0 0 517.49, 0L497, 0C485.86, 0 474.92, 2.91 465.25, 8.43L312, 96L256, 96C149.96, 96 64, 181.96 64, 288L64, 289.61C64, 322.36 48, 351.75 24.44, 374.5C6.25, 392.08 -3.66, 418.18 1.25, 446.3C8.01, 485.1 44.15, 512 83.53, 512L192, 512C209.67, 512 224, 497.67 224, 480C224, 462.33 209.67, 448 192, 448L80, 448C71.17, 448 64, 440.83 64, 432C64, 423.17 71.17, 416 80, 416L304, 416C312.84, 416 320, 408.84 320, 400L320, 384C320, 366.33 305.67, 352 288, 352L224, 352L373.49, 271.5L448, 416L528, 416C536.84, 416 544, 408.84 544, 400L544, 384C544, 366.33 529.67, 352 512, 352L483.78, 352L428.67, 241.79L521.14, 192L544, 192C597.02, 192 640, 149.02 640, 96L640, 64C640, 46.33 625.67, 32 608, 32zM512, 48C520.84, 48 528, 55.16 528, 64C528, 72.84 520.84, 80 512, 80C503.16, 80 496, 72.84 496, 64C496, 55.16 503.16, 48 512, 48zM544, 144L509.04, 144L407.2, 198.84L393.43, 171.29L512, 112L589.05, 112C582.43, 130.58 564.83, 144 544, 144z" fill="#727272" fill-opacity="1" class="Black" />
    </g>
  </g>
</svg>