<?xml version='1.0' encoding='UTF-8'?>
<svg viewBox="-3.7495 -2 32 32" xmlns="http://www.w3.org/2000/svg">
  <g transform="matrix(0.0547, 0, 0, 0.0547, 0, 0)">
    <path d="M432, 0L16, 0A16 16 0 0 0 0, 16L0, 48A16 16 0 0 0 16, 64L432, 64A16 16 0 0 0 448, 48L448, 16A16 16 0 0 0 432, 0zM232.19, 128L215.81, 128A167.81 167.81 0 0 0 48, 295.81L48, 344.19A167.81 167.81 0 0 0 215.81, 512L232.19, 512A167.81 167.81 0 0 0 400, 344.19L400, 295.81A167.81 167.81 0 0 0 232.19, 128zM320, 344.19A87.91 87.91 0 0 1 232.19, 432L215.81, 432A87.91 87.91 0 0 1 128, 344.19L128, 295.81A87.91 87.91 0 0 1 215.81, 208L232.19, 208A87.91 87.91 0 0 1 320, 295.81z" fill="#727272" fill-opacity="1" class="Black" />
  </g>
</svg>