<?xml version='1.0' encoding='UTF-8'?>
<svg viewBox="-2 -1.9988 32 32" xmlns="http://www.w3.org/2000/svg">
  <g transform="matrix(0.0547, 0, 0, 0.0547, 0, 0)">
    <path d="M448, 64L64, 64A64 64 0 0 0 0, 128L0, 384A64 64 0 0 0 64, 448L448, 448A64 64 0 0 0 512, 384L512, 128A64 64 0 0 0 448, 64zM160, 368L80, 368A16 16 0 0 1 64, 352L64, 336A16 16 0 0 1 80, 320L160, 320zM288, 352A16 16 0 0 1 272, 368L192, 368L192, 320L272, 320A16 16 0 0 1 288, 336zM448, 224A32 32 0 0 1 416, 256L96, 256A32 32 0 0 1 64, 224L64, 160A32 32 0 0 1 96, 128L416, 128A32 32 0 0 1 448, 160z" fill="#727272" fill-opacity="1" class="Black" />
  </g>
</svg>