<?xml version='1.0' encoding='UTF-8'?>
<svg viewBox="-1.9998 -3.5563 31.9975 32" xmlns="http://www.w3.org/2000/svg">
  <g transform="matrix(0.0486, 0, 0, 0.0486, 0, 0)">
    <path d="M243.6, 256A19.59 19.59 0 0 0 224, 275.6L224, 300.4A19.59 19.59 0 0 0 243.6, 320L332.4, 320A19.59 19.59 0 0 0 352, 300.4L352, 275.6A19.59 19.59 0 0 0 332.4, 256zM160, 64L336, 64L336, 128A16 16 0 0 0 352, 144L416, 144L416, 208L480, 208L480, 131.94A48.16 48.16 0 0 0 465.91, 97.94L382, 14.09A48 48 0 0 0 348.09, 0L144, 0A48.14 48.14 0 0 0 96, 48.07L96, 208L160, 208zM560, 256L432, 256A16 16 0 0 0 416, 272L416, 304A16 16 0 0 0 432, 320L560, 320A16 16 0 0 0 576, 304L576, 272A16 16 0 0 0 560, 256zM416, 448L160, 448L160, 368L96, 368L96, 464A48 48 0 0 0 144, 512L432, 512A48 48 0 0 0 480, 464L480, 368L416, 368zM160, 304L160, 272A16 16 0 0 0 144, 256L16, 256A16 16 0 0 0 0, 272L0, 304A16 16 0 0 0 16, 320L144, 320A16 16 0 0 0 160, 304z" fill="#727272" fill-opacity="1" class="Black" />
  </g>
</svg>