<?xml version='1.0' encoding='UTF-8'?>
<svg viewBox="-2 -4.7992 32 32" xmlns="http://www.w3.org/2000/svg">
  <g transform="matrix(0.9988, 0, 0, 0.9988, 0, 0)">
    <g transform="matrix(0.0438, 0, 0, 0.0438, 0, 0)">
      <path d="M144, 256L496, 256C504.8, 256 512, 248.8 512, 240L512, 16C512, 7.2 504.8, 0 496, 0L384, 0L384, 128L320, 96L256, 128L256, 0L144, 0C135.2, 0 128, 7.2 128, 16L128, 240C128, 248.8 135.2, 256 144, 256zM624, 384C632.8, 384 640, 376.8 640, 368L640, 336C640, 327.2 632.8, 320 624, 320L16, 320C7.2, 320 0, 327.2 0, 336L0, 368C0, 376.8 7.2, 384 16, 384L64, 384L64, 448L16, 448C7.2, 448 0, 455.2 0, 464L0, 496C0, 504.8 7.2, 512 16, 512L624, 512C632.8, 512 640, 504.8 640, 496L640, 464C640, 455.2 632.8, 448 624, 448L576, 448L576, 384L624, 384zM288, 448L128, 448L128, 384L288, 384L288, 448zM512, 448L352, 448L352, 384L512, 384L512, 448z" fill="#727272" fill-opacity="1" class="Black" />
    </g>
  </g>
</svg>