<?xml version='1.0' encoding='UTF-8'?>
<svg viewBox="-1.9974 -1.9999 31.9975 32" xmlns="http://www.w3.org/2000/svg">
  <g transform="matrix(0.0547, 0, 0, 0.0547, 0, 0)">
    <path d="M511.9, 175C502.8, 99.4 433.5, 42.6 353.6, 16.3C390, 55.7 416, 116.9 416, 192L444.1, 192L327.5, 321.5C325, 320.9 322.7, 320 320, 320L272, 320L272, 192L384, 192C384, 76.8 315.1, 0 256, 0C196.9, 0 128, 76.8 128, 192L240, 192L240, 320L192, 320C189.3, 320 187, 320.9 184.5, 321.5L67.9, 192L96, 192C96, 116.9 122, 55.7 158.4, 16.3C78.5, 42.7 9.2, 99.5 0.1, 175C-1, 184.1 6.9, 192 16.1, 192L24.8, 192L161.5, 343.9C160.8, 346.5 159.9, 349.1 159.9, 352L159.9, 480C159.9, 497.7 174.2, 512 191.9, 512L319.9, 512C337.6, 512 351.9, 497.7 351.9, 480L351.9, 352C351.9, 349.1 351, 346.6 350.3, 343.9L487.1, 192L495.8, 192C505.1, 192 513, 184.2 511.9, 175z" fill="#727272" fill-opacity="1" class="Black" />
  </g>
</svg>