<?xml version='1.0' encoding='UTF-8'?>
<svg viewBox="-1.9975 -4.7973 32 32" xmlns="http://www.w3.org/2000/svg">
  <g transform="matrix(0.999, 0, 0, 0.999, 0, 0)">
    <g transform="matrix(0.0438, 0, 0, 0.0438, 0, 0)">
      <path d="M288, 368C288, 376.84 280.84, 384 272, 384L240, 384C231.16, 384 224, 376.84 224, 368L224, 303.14L96, 204.21L96, 432C96, 458.5 117.5, 480 144, 480L452.83, 480L288, 352.6L288, 368zM633.82, 458.1L544, 388.68L544, 80C544, 53.5 522.5, 32 496, 32L144, 32C128.69, 32 115.21, 39.31 106.42, 50.48L45.47, 3.37C38.49, -2.05 28.43, -0.8 23.01, 6.18L3.37, 31.45C-2.05, 38.42 -0.8, 48.47 6.18, 53.9L594.53, 508.63C601.51, 514.06 611.56, 512.8 616.99, 505.82L636.63, 480.55C642.05, 473.58 640.8, 463.53 633.82, 458.1zM409.69, 284.87L359.16, 245.82C364.56, 240.09 368, 232.48 368, 224C368, 206.36 353.64, 192 336, 192L289.52, 192L224.46, 141.71C225.61, 134 231.98, 128 240, 128L336, 128C388.94, 128 432, 171.06 432, 224C432, 247.24 423.51, 268.35 409.69, 284.87z" fill="#727272" fill-opacity="1" class="Black" />
    </g>
  </g>
</svg>