<?xml version='1.0' encoding='UTF-8'?>
<svg viewBox="-1.9999 -1.549 31.9975 32" xmlns="http://www.w3.org/2000/svg">
  <g transform="matrix(0.999, 0, 0, 0.999, 0, 0)">
    <g transform="matrix(0.0565, 0, 0, 0.0565, 0, 0)">
      <path d="M248, 8C111.03, 8 0, 119.03 0, 256C0, 392.97 111.03, 504 248, 504C384.97, 504 496, 392.97 496, 256C496, 119.03 384.97, 8 248, 8zM248, 440C146.54, 440 64, 357.46 64, 256C64, 225.17 71.71, 196.14 85.17, 170.59L371.56, 391.94C338.86, 421.69 295.58, 440 248, 440zM238.23, 208L280, 208C288.82, 208 296, 215.18 296, 224C296, 232.82 288.82, 240 280, 240L279.63, 240L238.23, 208zM410.83, 341.41L334.41, 282.35C350.07, 267.74 360, 247.1 360, 224C360, 179.82 324.18, 144 280, 144L184, 144C177.09, 144 171.33, 148.43 169.1, 154.57L124.44, 120.06C157.14, 90.31 200.42, 72 248, 72C349.46, 72 432, 154.54 432, 256C432, 286.83 424.29, 315.86 410.83, 341.41zM168, 352C168, 360.84 175.16, 368 184, 368L216, 368C224.84, 368 232, 360.84 232, 352L232, 332.52L168, 283.06L168, 352z" fill="#727272" fill-opacity="1" class="Black" />
    </g>
  </g>
</svg>