<?xml version='1.0' encoding='UTF-8'?>
<svg viewBox="-1.9998 -0.0025 31.9975 32" xmlns="http://www.w3.org/2000/svg">
  <g transform="matrix(0.0625, 0, 0, 0.0625, 0, 0)">
    <path d="M144, 128C170.51, 128 192, 106.51 192, 80C192, 53.49 170.51, 32 144, 32C117.49, 32 96, 53.49 96, 80C96, 106.51 117.49, 128 144, 128zM96, 192C96, 165.49 74.51, 144 48, 144C21.49, 144 0, 165.49 0, 192C0, 218.51 21.49, 240 48, 240C74.51, 240 96, 218.51 96, 192zM304, 128C330.51, 128 352, 106.51 352, 80C352, 53.49 330.51, 32 304, 32C277.49, 32 256, 53.49 256, 80C256, 106.51 277.49, 128 304, 128zM400, 144C373.49, 144 352, 165.49 352, 192C352, 218.51 373.49, 240 400, 240C426.51, 240 448, 218.51 448, 192C448, 165.49 426.51, 144 400, 144zM367.31, 300.78C341.02, 285.94 320.17, 239.37 300.14, 202.95C284.41, 174.31 254.21, 160 224, 160C193.79, 160 163.59, 174.31 147.85, 202.95C127.56, 239.91 107.73, 285.51 80.68, 300.78C51.63, 317.18 32, 348.18 32, 383.95C32, 436.96 74.98, 479.93 128, 479.93C179.71, 481.69 200.19, 447.94 224, 447.94C247.81, 447.94 268.29, 481.69 320, 479.93C373.02, 479.93 416, 436.96 416, 383.95C416, 348.18 396.37, 317.18 367.31, 300.78z" fill="#727272" fill-opacity="1" class="Black" />
  </g>
</svg>