<?xml version='1.0' encoding='UTF-8'?>
<svg viewBox="-1.9998 -3.5563 31.9975 32" xmlns="http://www.w3.org/2000/svg">
  <g transform="matrix(0.0486, 0, 0, 0.0486, 0, 0)">
    <path d="M575.92, 76.6C575.91, 68.47 572.9, 60.73 567.34, 54.8C563.56, 50.77 558.76, 45.68 553.65, 40.3C564.71, 33.46 573.15, 22.81 575.83, 9.64C576.85, 4.68 572.96, 0 567.9, 0L447.92, 0C377.23, 0 319.92, 57.31 319.92, 128C256, 128 215.72, 91.22 192.26, 37.73C189.04, 30.38 178.65, 29.97 175.22, 37.23C165.49, 57.82 160, 80.8 160, 105.1C160, 172.14 211.01, 238.19 288, 252.84L288, 256.01C205.11, 256.01 144.67, 198.49 130.97, 133.15C114.25, 138.62 99.35, 148.13 88, 161.12L88, 160C39.47, 160 0, 199.47 0, 248L0, 304C0, 312.84 7.16, 320 16, 320L32, 320C40.84, 320 48, 312.84 48, 304L48, 248C48, 234.78 54.87, 223.61 64.78, 216.32C64.57, 218.9 64, 221.37 64, 224C64, 251.64 75.84, 276.36 94.54, 293.88L68.82, 362.48A63.945 63.945 0 0 0 66.66, 400.47L91.51, 499.88A15.982 15.982 0 0 0 107.02, 512L172.98, 512C183.39, 512 191.03, 502.22 188.5, 492.12L162.19, 386.86L186.03, 323.27L320, 345.6L320, 496C320, 504.84 327.16, 512 336, 512L400, 512C408.84, 512 416, 504.84 416, 496L416, 318.22C435.74, 298.03 448, 270.47 448, 240C448, 239.78 447.93, 239.58 447.92, 239.36L447.92, 136.89L463.92, 144L482.82, 181.7C490.27, 196.57 507.87, 203.25 523.31, 197.07L555.86, 184.05A31.997 31.997 0 0 0 575.98, 154.31L575.92, 76.6zM511.92, 96C503.08, 96 495.92, 88.84 495.92, 80C495.92, 71.16 503.08, 64 511.92, 64C520.76, 64 527.92, 71.16 527.92, 80C527.92, 88.84 520.76, 96 511.92, 96z" fill="#727272" fill-opacity="1" class="Black" />
  </g>
</svg>