<?xml version='1.0' encoding='UTF-8'?>
<svg viewBox="-2.0036 -1.9948 32 31.9925" xmlns="http://www.w3.org/2000/svg">
  <g transform="matrix(0.0547, 0, 0, 0.0547, 0, 0)">
    <path d="M79.18, 282.94A32.005 32.005 0 0 0 58.94, 303.18L0, 480L4.69, 484.69L97.58, 391.8C96.92, 389.24 96.01, 386.77 96.01, 384C96.01, 366.33 110.34, 352 128.01, 352C145.68, 352 160.01, 366.33 160.01, 384C160.01, 401.67 145.68, 416 128.01, 416C125.24, 416 122.77, 415.09 120.21, 414.43L27.32, 507.32L32, 512L208.82, 453.06A31.983 31.983 0 0 0 229.06, 432.82L262.13, 348.75L163.25, 249.87L79.18, 282.94zM369.25, 28.32L186.14, 227.81L283.99, 325.66L483.48, 142.55C568.4, 67.48 443.73, -55.94 369.25, 28.32z" fill="#727272" fill-opacity="1" class="Black" />
  </g>
</svg>