<?xml version='1.0' encoding='UTF-8'?>
<svg viewBox="-2 -1.9988 32 32" xmlns="http://www.w3.org/2000/svg">
  <g transform="matrix(0.0547, 0, 0, 0.0547, 0, 0)">
    <path d="M136.6, 138.79A64.003 64.003 0 0 0 93.29, 180.14L0, 460L14.69, 474.69L164.8, 324.58C161.81, 318.32 160, 311.4 160, 304C160, 277.49 181.49, 256 208, 256C234.51, 256 256, 277.49 256, 304C256, 330.51 234.51, 352 208, 352C200.6, 352 193.68, 350.19 187.42, 347.2L37.31, 497.31L52, 512L331.86, 418.71A64.003 64.003 0 0 0 373.21, 375.4L416, 224L288, 96L136.6, 138.79zM497.94, 74.17L437.83, 14.06C419.08, -4.69 388.67, -4.69 369.92, 14.06L313.37, 70.61L441.39, 198.63L497.94, 142.08C516.69, 123.33 516.69, 92.93 497.94, 74.17z" fill="#727272" fill-opacity="1" class="Black" />
  </g>
</svg>