<?xml version='1.0' encoding='UTF-8'?>
<svg viewBox="-1.9999 -1.9974 32 31.9975" xmlns="http://www.w3.org/2000/svg">
  <g transform="matrix(0.0547, 0, 0, 0.0547, 0, 0)">
    <path d="M316.08, 82.71L19.08, 379.67L0.32, 487.11C-2.21, 501.6 10.41, 514.22 24.91, 511.67L132.36, 492.83L429.28, 195.9L316.08, 82.71zM497.93, 127.24C516.68, 108.48 516.68, 78.07 497.93, 59.31L452.67, 14.06C433.91, -4.7 403.49, -4.7 384.73, 14.06L338.7, 60.08L451.9, 173.28L497.93, 127.24zM456.75, 391.62C450.16, 391.62 444.51, 387.85 442.16, 381.64C424.03, 333.86 393.76, 316.26 359.51, 310.93L257.83, 412.61C266.64, 475.95 315.42, 512 384, 512C474.07, 512 512, 439.62 512, 357.27C502.21, 363.95 467.86, 391.62 456.75, 391.62zM120.18, 233.32L216, 137.51L146.01, 33.1C84.05, -55.3 -52.15, 52.52 21.08, 132.99L120.18, 233.32z" fill="#727272" fill-opacity="1" class="Black" />
  </g>
</svg>