<?xml version='1.0' encoding='UTF-8'?>
<svg viewBox="-1.9999 -1.9974 32 31.9975" xmlns="http://www.w3.org/2000/svg">
  <g transform="matrix(0.0547, 0, 0, 0.0547, 0, 0)">
    <path d="M109.46, 244.04L244.04, 109.48L199.92, 65.36L138.24, 127.04A7.919 7.919 0 0 1 127.03, 127.04L115.82, 115.83C112.72, 112.73 112.72, 107.71 115.82, 104.62L177.5, 42.94L143.86, 9.29C131.47, -3.1 111.39, -3.1 99, 9.29L9.29, 99C-3.09, 111.39 -3.1, 131.47 9.29, 143.86L109.46, 244.04zM497.93, 127.24C516.69, 108.48 516.68, 78.07 497.93, 59.31L452.68, 14.06C433.92, -4.7 403.5, -4.7 384.73, 14.06L338.71, 60.07L451.91, 173.27L497.93, 127.24zM316.08, 82.71L19.08, 379.67L0.32, 487.11C-2.21, 501.6 10.41, 514.22 24.91, 511.67L132.36, 492.83L429.28, 195.9L316.08, 82.71zM502.71, 368.14L469.07, 334.5L407.39, 396.18C404.29, 399.28 399.27, 399.28 396.18, 396.18L384.97, 384.97C381.88, 381.87 381.88, 376.85 384.97, 373.76L446.65, 312.08L402.51, 267.94L267.93, 402.5L368.14, 502.7C380.53, 515.09 400.61, 515.09 413, 502.7L502.71, 413C515.1, 400.61 515.1, 380.53 502.71, 368.14z" fill="#727272" fill-opacity="1" class="Black" />
  </g>
</svg>