<?xml version='1.0' encoding='UTF-8'?>
<svg viewBox="-1.9999 -4.8014 31.9975 32" xmlns="http://www.w3.org/2000/svg">
  <g transform="matrix(1.001, 0, 0, 1.001, 0, 0)">
    <g transform="matrix(0.0437, 0, 0, 0.0437, 0, 0)">
      <path d="M128, 96C154.5, 96 176, 74.5 176, 48C176, 21.5 154.5, 0 128, 0C101.5, 0 80, 21.5 80, 48C80, 74.5 101.5, 96 128, 96zM512, 96C538.5, 96 560, 74.5 560, 48C560, 21.5 538.5, 0 512, 0C485.5, 0 464, 21.5 464, 48C464, 74.5 485.5, 96 512, 96zM637.7, 468.1L593.7, 358.1L552.6, 404.5L550.6, 422.7L578.3, 491.9C583.3, 504.4 595.3, 512 608, 512C612, 512 616, 511.3 619.9, 509.7C636.3, 503.1 644.3, 484.5 637.7, 468.1zM603.5, 258.3L585, 178.1C580.4, 158.1 566.4, 141.3 547.5, 133.2C529, 125.2 508.5, 126.5 491.4, 136.5C468.7, 149.9 451.7, 171 443.3, 195.9L432, 229.8L416, 240L416, 144C416, 135.2 408.8, 128 400, 128L240, 128C231.2, 128 224, 135.2 224, 144L224, 240L207.9, 229.8L196.6, 195.9C188.3, 170.9 171.2, 149.9 148.5, 136.5C131.3, 126.5 110.9, 125.2 92.4, 133.2C73.5, 141.3 59.5, 158.1 54.9, 178.1L36.5, 258.3C31.9, 278.3 37.2, 299.5 50.9, 315L118.1, 390.9L128.2, 483.5C130, 499.8 143.8, 512 160, 512C161.2, 512 162.3, 511.9 163.5, 511.8C181.1, 509.9 193.7, 494.1 191.8, 476.5L181.7, 383.7C180.2, 370.7 174.8, 358.6 166.1, 348.7L122.8, 299.7L140.4, 229.4L147.2, 249.8C151.3, 262.3 159.1, 273.2 171.7, 282.4L222.8, 314.9C227.4, 317.8 234.9, 319.5 240, 319.9L400, 319.9C405.1, 319.5 412.6, 317.8 417.2, 314.9L468.3, 282.4C480.9, 273.2 488.7, 262.4 492.8, 249.8L499.6, 229.4L517.2, 299.7L473.9, 348.7C465.2, 358.6 459.8, 370.7 458.3, 383.7L448.2, 476.5C446.3, 494.1 459, 509.9 476.5, 511.8C477.7, 511.9 478.8, 512 480, 512C496.1, 512 510, 499.9 511.8, 483.5L521.9, 390.9L589.1, 315C602.7, 299.5 608.1, 278.3 603.5, 258.3zM46.3, 358.1L2.3, 468.1C-4.3, 484.5 3.7, 503.1 20.1, 509.7C36.9, 516.3 55.2, 508 61.7, 491.9L89.4, 422.7L87.4, 404.5L46.3, 358.1z" fill="#727272" fill-opacity="1" class="Black" />
    </g>
  </g>
</svg>