<?xml version='1.0' encoding='UTF-8'?>
<svg viewBox="-2 -1.9988 32 32" xmlns="http://www.w3.org/2000/svg">
  <g transform="matrix(0.0547, 0, 0, 0.0547, 0, 0)">
    <path d="M330.67, 263.12L330.67, 173.4L277.92, 149.18C219.44, 218.76 197.58, 400 56, 400A56 56 0 0 0 56, 512C268.64, 512 426.65, 389.13 475.18, 301.66L438.13, 263.12zM461.76, 134.75C493.92, 74.91 477.18, 26.48 458.62, 3A8 8 0 0 0 446.69, 2.41L423.79, 25.41A8.06 8.06 0 0 0 422.9, 35.64C429.76, 46 439.95, 70.74 421.5, 107.96A142.85 142.85 0 0 0 364.34, 96C336.34, 96 310.34, 104.54 288, 118.59L362.67, 152.88L362.67, 231.12L451.76, 231.12L506.44, 288C509.7, 275.38 512, 262.37 512, 248.69A154 154 0 0 0 461.76, 134.75z" fill="#727272" fill-opacity="1" class="Black" />
  </g>
</svg>