<?xml version='1.0' encoding='UTF-8'?>
<svg viewBox="-3.7495 -2 32 32" xmlns="http://www.w3.org/2000/svg">
  <g transform="matrix(0.0547, 0, 0, 0.0547, 0, 0)">
    <path d="M112, 224C173.9, 224 224, 173.9 224, 112C224, 50.1 173.9, 0 112, 0C50.1, 0 0, 50.1 0, 112C0, 173.9 50.1, 224 112, 224zM112, 64C138.5, 64 160, 85.5 160, 112C160, 138.5 138.5, 160 112, 160C85.5, 160 64, 138.5 64, 112C64, 85.5 85.5, 64 112, 64zM336, 288C274.1, 288 224, 338.1 224, 400C224, 461.9 274.1, 512 336, 512C397.9, 512 448, 461.9 448, 400C448, 338.1 397.9, 288 336, 288zM336, 448C309.5, 448 288, 426.5 288, 400C288, 373.5 309.5, 352 336, 352C362.5, 352 384, 373.5 384, 400C384, 426.5 362.5, 448 336, 448zM392.3, 0.2L423.9, 0.1C443.3, 0 454.8, 21.9 443.6, 37.9L77.4, 501.6A23.95 23.95 0 0 1 57.8, 511.8L24.4, 511.9C4.9, 511.9 -6.5, 490 4.7, 474.1L372.7, 10.4C377.2, 4 384.5, 0.2 392.3, 0.2z" fill="#727272" fill-opacity="1" class="Black" />
  </g>
</svg>