<?xml version='1.0' encoding='UTF-8'?>
<svg viewBox="-1.9988 -2 32 32" xmlns="http://www.w3.org/2000/svg">
  <g transform="matrix(0.0547, 0, 0, 0.0547, 0, 0)">
    <path d="M144, 96C170.5, 96 192, 74.5 192, 48C192, 21.5 170.4, 0 144, 0C117.6, 0 96, 21.5 96, 48C96, 74.5 117.5, 96 144, 96zM501.5, 66.6L433.8, 42L439.3, 27C442.3, 18.7 438, 9.5 429.7, 6.5L414.7, 1C406.4, -2 397.2, 2.3 394.2, 10.6L388.7, 25.6L321.1, 1C312.8, -2 303.6, 2.3 300.6, 10.6L256.8, 130.9C253.8, 139.2 258.1, 148.4 266.4, 151.4L334, 176L321, 212L273.2, 196L223.9, 146.7C211.8, 134.6 195.8, 127.9 178.7, 127.9L115.8, 127.9C91.4, 127.9 69.5, 141.5 58.6, 163.3L3.4, 273.7C-4.5, 289.5 1.9, 308.7 17.7, 316.6C22.3, 318.9 27.2, 320 32, 320C43.7, 320 55, 313.5 60.6, 302.3L80, 263.6L80, 318.4L64.1, 476.8C62.4, 494.4 75.2, 510.1 92.7, 511.8C93.8, 511.9 94.9, 512 95.9, 512C112.1, 512 126, 499.7 127.7, 483.2L140.9, 352L156.2, 352L192, 423.5L192, 480C192, 497.7 206.3, 512 224, 512C241.7, 512 256, 497.7 256, 480L256, 423.5C256, 413.6 253.7, 403.7 249.3, 394.9L208.1, 312.4L208.1, 221.2L228.1, 241.2C235.1, 248.2 243.7, 253.5 253.1, 256.7L299.2, 272.1L288, 302.9C285, 311.2 289.3, 320.4 297.6, 323.4L312.6, 328.9C320.9, 331.9 330.1, 327.6 333.1, 319.3L379.3, 192.4L446.9, 217C455.2, 220 464.4, 215.7 467.4, 207.4L511, 87.1C514.1, 78.8 509.8, 69.7 501.5, 66.6z" fill="#727272" fill-opacity="1" class="Black" />
  </g>
</svg>