<?xml version='1.0' encoding='UTF-8'?>
<svg viewBox="-1.9998 -3.5563 31.9975 32" xmlns="http://www.w3.org/2000/svg">
  <g transform="matrix(0.0486, 0, 0, 0.0486, 0, 0)">
    <path d="M192, 496C192, 504.8 199.2, 512 208, 512L240, 512C248.8, 512 256, 504.8 256, 496L256, 320L192, 320L192, 496zM224, 224L173.1, 224L127.9, 178.7C115.8, 166.6 99.7, 160 82.7, 160L64, 160C46.9, 160 30.8, 166.7 18.7, 178.8C6.7, 190.9 0, 207 0, 224.1L0.2, 320L0, 480C0, 497.7 14.3, 512 31.9, 512C49.5, 512 63.9, 497.7 63.9, 480L64, 379.3C64.9, 379.8 65.6, 380.6 66.5, 381L95.6, 424L95.6, 480C95.6, 497.7 109.9, 512 127.6, 512C145.3, 512 159.6, 497.7 159.6, 480L159.6, 423.5C159.6, 413.6 157.3, 403.7 152.9, 394.9L111.7, 333.6L111.7, 253L132.6, 273.9C141.7, 283 153.7, 288 166.5, 288L224, 288C241.7, 288 256, 273.7 256, 256C256, 238.3 241.7, 224 224, 224zM64, 128C90.5, 128 112, 106.5 112, 80C112, 53.5 90.5, 32 64, 32C37.5, 32 16, 53.5 16, 80C16, 106.5 37.5, 128 64, 128zM288, 32L319.5, 255.1L288.6, 409.7C284.3, 431.3 301.6, 448 320, 448C335.2, 448 348, 438.9 352.3, 417.6C353.2, 434.5 366.9, 448 384, 448C401.7, 448 416, 433.7 416, 416C416, 433.7 430.3, 448 448, 448C465.7, 448 480, 433.7 480, 416L480, 0L288, 0L288, 32zM192, 32L192, 192L256, 192L256, 0L224, 0C206.3, 0 192, 14.3 192, 32zM544, 0L512, 0L512, 496C512, 504.8 519.2, 512 528, 512L560, 512C568.8, 512 576, 504.8 576, 496L576, 32C576, 14.3 561.7, 0 544, 0z" fill="#727272" fill-opacity="1" class="Black" />
  </g>
</svg>