<?xml version='1.0' encoding='UTF-8'?>
<svg viewBox="-5.5011 -1.9998 32 31.9975" xmlns="http://www.w3.org/2000/svg">
  <g transform="matrix(0.0547, 0, 0, 0.0547, 0, 0)">
    <path d="M0, 479.9C0, 497.6 14.3, 511.9 32, 511.9C49.7, 511.9 64, 497.6 64, 479.9L64, 405.4C48, 391.7 0.6, 350.8 0, 350.3L0, 479.9zM368, 96L208, 96C199.2, 96 192, 103.2 192, 112L192, 224L166.6, 224L133.3, 162.2C122.2, 141.1 100.5, 128 76.7, 128L48, 128C21.5, 128 0, 149.5 0, 176L0, 279C0, 297.7 8.2, 315.4 22.4, 327.6L98.4, 392.7L112.5, 485.2C113.5, 490.9 122.6, 515.9 149.3, 511.5C166.7, 508.6 178.5, 492.1 175.6, 474.7L161.5, 382.2C159, 367.4 151.4, 353.9 140, 344.1L96, 306.4L96, 228.1L128, 288L368, 288C376.8, 288 384, 280.8 384, 272L384, 112C384, 103.1 376.8, 96 368, 96zM80, 96C106.5, 96 128, 74.5 128, 48C128, 21.5 106.5, 0 80, 0C53.5, 0 32, 21.5 32, 48C32, 74.5 53.5, 96 80, 96z" fill="#727272" fill-opacity="1" class="Black" />
  </g>
</svg>