<?xml version='1.0' encoding='UTF-8'?>
<svg viewBox="-2 -2.0025 32 32" xmlns="http://www.w3.org/2000/svg">
  <g transform="matrix(0.0547, 0, 0, 0.0547, 0, 0)">
    <path d="M497.39, 361.8L385.39, 313.8A24 24 0 0 0 357.39, 320.7L307.79, 381.3A370.66 370.66 0 0 1 130.6, 204.11L191.2, 154.51A23.94 23.94 0 0 0 198.1, 126.51L150.1, 14.51A24.16 24.16 0 0 0 122.6, 0.61L18.6, 24.61A24 24 0 0 0 0, 48C0, 304.5 207.9, 512 464, 512A24 24 0 0 0 487.4, 493.4L511.4, 389.4A24.29 24.29 0 0 0 497.39, 361.8z" fill="#727272" fill-opacity="1" class="Black" />
  </g>
</svg>