<?xml version='1.0' encoding='UTF-8'?>
<svg viewBox="-2.0049 -1.9999 32 32" xmlns="http://www.w3.org/2000/svg">
  <g transform="matrix(0.0547, 0, 0, 0.0547, 0, 0)">
    <path d="M493.4, 24.6L389.4, 0.6C378.1, -2 366.5, 3.9 361.9, 14.5L313.9, 126.5C309.7, 136.3 312.5, 147.8 320.8, 154.5L381.4, 204.1C345.4, 280.8 282.5, 344.6 204.2, 381.3L154.6, 320.7C147.8, 312.4 136.4, 309.6 126.6, 313.8L14.6, 361.8C3.9, 366.5 -2, 378.1 0.6, 389.4L24.6, 493.4C27.1, 504.2 36.7, 512 48, 512C304.1, 512 512, 304.5 512, 48C512, 36.8 504.3, 27.1 493.4, 24.6zM16, 144L80, 144L80, 208C80, 216.8 87.2, 224 96, 224L128, 224C136.8, 224 144, 216.8 144, 208L144, 144L208, 144C216.8, 144 224, 136.8 224, 128L224, 96C224, 87.2 216.8, 80 208, 80L144, 80L144, 16C144, 7.2 136.8, 0 128, 0L96, 0C87.2, 0 80, 7.2 80, 16L80, 80L16, 80C7.2, 80 0, 87.2 0, 96L0, 128C0, 136.8 7.2, 144 16, 144z" fill="#727272" fill-opacity="1" class="Black" />
  </g>
</svg>