<?xml version='1.0' encoding='UTF-8'?>
<svg viewBox="-2 -1.9988 32 32" xmlns="http://www.w3.org/2000/svg">
  <g transform="matrix(0.0547, 0, 0, 0.0547, 0, 0)">
    <path d="M370.43, 192.25A64 64 0 0 0 314.86, 160L197.14, 160A64 64 0 0 0 141.57, 192.25L36.22, 376.62A32 32 0 0 0 32, 392.5L32, 448A32 32 0 0 0 64, 480L448, 480A32 32 0 0 0 480, 448L480, 392.5A32 32 0 0 0 475.78, 376.62zM256, 384A72 72 0 1 1 328, 312A72 72 0 0 1 256, 384zM506.18, 123C436.76, 65 347.38, 32 256, 32C164.62, 32 75.24, 65 5.82, 123A16.45 16.45 0 0 0 0, 135.64L0, 192A16 16 0 0 0 16, 208L86.11, 208A16 16 0 0 0 100.42, 199.15L128, 128C167.9, 110.72 211.2, 104 256, 104C300.77, 104 344.07, 110.72 384, 128L411.58, 199.15A16 16 0 0 0 425.89, 208L496, 208A16 16 0 0 0 512, 192L512, 135.64A16.45 16.45 0 0 0 506.18, 123z" fill="#727272" fill-opacity="1" class="Black" />
  </g>
</svg>