<?xml version='1.0' encoding='UTF-8'?>
<svg viewBox="-2 -2.0524 32 31.9975" xmlns="http://www.w3.org/2000/svg">
  <g transform="matrix(0.0547, 0, 0, 0.0547, 0, 0)">
    <path d="M476.62, 269.31L419.38, 240.69A64 64 0 0 1 384, 183.45A184.45 184.45 0 0 0 199.55, -1L184.45, -1A184.45 184.45 0 0 0 0, 183.45L0, 479A32 32 0 0 0 32, 511L480, 511A32 32 0 0 0 512, 479L512, 326.55A64 64 0 0 0 476.62, 269.31zM448, 447L64, 447L64, 351L96, 351L96, 407A8 8 0 0 0 104, 415L120, 415A8 8 0 0 0 128, 407L128, 351L160, 351L160, 407A8 8 0 0 0 168, 415L184, 415A8 8 0 0 0 192, 407L192, 351L240, 351L240, 407A8 8 0 0 0 248, 415L264, 415A8 8 0 0 0 272, 407L272, 351L320, 351L320, 407A8 8 0 0 0 328, 415L344, 415A8 8 0 0 0 352, 407L352, 351L384, 351L384, 407A8 8 0 0 0 392, 415L408, 415A8 8 0 0 0 416, 407L416, 351L448, 351z" fill="#727272" fill-opacity="1" class="Black" />
  </g>
</svg>