<?xml version='1.0' encoding='UTF-8'?>
<svg viewBox="-1.9999 -3.5527 32 31.9975" xmlns="http://www.w3.org/2000/svg">
  <g transform="matrix(0.0486, 0, 0, 0.0486, 0, 0)">
    <path d="M458.78, 304C448.66, 310.94 422.59, 336 373.53, 336C324.47, 336 298.38, 311 288.27, 304L288.19, 304C280.86, 309 253, 336 202.91, 336C153.78, 336 127.74, 311 117.57, 304L117.35, 304C109.01, 309.7 90.66, 326.63 57.75, 333.2L88.75, 426.08A32 32 0 0 0 119.07, 448L456.94, 448A32 32 0 0 0 487.3, 426.12L518.3, 333.24C485.19, 326.62 465.83, 308.84 458.84, 304.04zM544, 240C537.56, 240 533.63, 238.8 529.53, 236.48C494.93, 136.17 400.07, 64 288, 64C175.93, 64 81, 136.21 46.45, 236.55C42.38, 238.83 38.45, 240 32, 240A32 32 0 0 0 32, 304C64, 304 82, 290.53 93.92, 281.61C103, 274.81 106.75, 272 117.45, 272C128.15, 272 131.92, 274.81 141, 281.61C152.91, 290.53 170.89, 304 202.91, 304C234.93, 304 252.91, 290.52 264.79, 281.59C273.79, 274.81 277.59, 272 288.24, 272C298.89, 272 302.63, 274.81 311.68, 281.59C323.57, 290.51 341.54, 304 373.54, 304C405.54, 304 423.49, 290.52 435.38, 281.59C444.43, 274.81 448.18, 272 458.82, 272C469.46, 272 473.16, 274.81 482.2, 281.58C494.06, 290.52 512, 304 544, 304A32 32 0 0 0 544, 240zM206.31, 151.16L190.31, 183.16C180.87, 201.99 152.14, 187.95 161.69, 168.85L177.69, 136.85C187.22, 118 215.78, 132.22 206.31, 151.16zM304, 176C304, 197.17 272, 197.18 272, 176L272, 144C272, 122.83 304, 122.82 304, 144zM385.69, 183.16L369.69, 151.16C360.21, 132.21 388.82, 117.97 398.31, 136.85L414.31, 168.85C423.84, 187.9 395.14, 202 385.69, 183.16z" fill="#727272" fill-opacity="1" class="Black" />
  </g>
</svg>