<?xml version='1.0' encoding='UTF-8'?>
<svg viewBox="-1.9974 -3.5528 32 31.9975" xmlns="http://www.w3.org/2000/svg">
  <g transform="matrix(0.0486, 0, 0, 0.0486, 0, 0)">
    <path d="M560, 224L530.5, 224C521.7, 204 508.9, 186.3 493.1, 171.5L512, 96L480, 96C450.6, 96 424.6, 109.5 407, 130.3C399.4, 129.2 391.9, 128 384, 128L256, 128C178.6, 128 114.1, 183 99.2, 256L56, 256C41.2, 256 29.5, 242.5 32.5, 227.2C34.7, 215.8 45.4, 208 57, 208L58, 208C61.3, 208 64, 205.3 64, 202L64, 182C64, 178.7 61.3, 176 58, 176C29.5, 176 4.1, 196.4 0.5, 224.6C-3.9, 258.8 22.7, 288 56, 288L96, 288C96, 340.2 121.4, 386.1 160, 415.3L160, 496C160, 504.8 167.2, 512 176, 512L240, 512C248.8, 512 256, 504.8 256, 496L256, 448L384, 448L384, 496C384, 504.8 391.2, 512 400, 512L464, 512C472.8, 512 480, 504.8 480, 496L480, 415.3C491.8, 406.4 502.3, 395.9 511.3, 384L560, 384C568.8, 384 576, 376.8 576, 368L576, 240C576, 231.2 568.8, 224 560, 224zM432, 288C423.2, 288 416, 280.8 416, 272C416, 263.2 423.2, 256 432, 256C440.8, 256 448, 263.2 448, 272C448, 280.8 440.8, 288 432, 288zM256, 96L384, 96C389.4, 96 394.7, 96.4 399.9, 96.8C399.9, 96.5 400, 96.3 400, 96C400, 43 357, 0 304, 0C251, 0 208, 43 208, 96C208, 98.1 208.5, 100.1 208.6, 102.2C223.8, 98.3 239.6, 96 256, 96z" fill="#727272" fill-opacity="1" class="Black" />
  </g>
</svg>