<?xml version='1.0' encoding='UTF-8'?>
<svg viewBox="-2 -3.553 32 32" xmlns="http://www.w3.org/2000/svg">
  <g transform="matrix(0.0486, 0, 0, 0.0486, 0, 0)">
    <path d="M112, 32C50.1, 32 0, 82.1 0, 144L0, 368C0, 429.9 50.1, 480 112, 480C173.9, 480 224, 429.9 224, 368L224, 144C224, 82.1 173.9, 32 112, 32zM160, 256L64, 256L64, 144C64, 117.5 85.5, 96 112, 96C138.5, 96 160, 117.5 160, 144L160, 256zM299.7, 226.3C296.2, 222.8 290.3, 223.2 287.4, 227.1C242.1, 289.6 247, 377.2 303.3, 433.5C359.6, 489.8 447.2, 494.7 509.7, 449.4C513.7, 446.5 514, 440.6 510.5, 437.1L299.7, 226.3zM529.5, 207.3C473.2, 151 385.6, 146.1 323.1, 191.4C319.1, 194.3 318.8, 200.2 322.3, 203.7L533.1, 414.5C536.6, 418 542.5, 417.6 545.4, 413.7C590.7, 351.1 585.9, 263.6 529.5, 207.3z" fill="#727272" fill-opacity="1" class="Black" />
  </g>
</svg>