<?xml version='1.0' encoding='UTF-8'?>
<svg viewBox="-2 -4.798 32 32" xmlns="http://www.w3.org/2000/svg">
  <g transform="matrix(0.9988, 0, 0, 0.9988, 0, 0)">
    <g transform="matrix(0.0438, 0, 0, 0.0438, 0, 0)">
      <path d="M620.61, 366.55L512, 320L512, 512L624, 512C632.84, 512 640, 504.84 640, 496L640, 395.96A32 32 0 0 0 620.61, 366.55zM0, 395.96L0, 496C0, 504.84 7.16, 512 16, 512L128, 512L128, 320L19.39, 366.55A32 32 0 0 0 0, 395.96zM464.46, 246.68L416, 217.6L416, 102.63C416, 94.14 412.63, 86.01 406.62, 80L331.31, 4.69C325.06, -1.56 314.93, -1.56 308.69, 4.69L233.38, 80C227.38, 86 224, 94.14 224, 102.63L224, 217.6L175.54, 246.68A31.997 31.997 0 0 0 160, 274.12L160, 512L256, 512L256, 416C256, 380.65 284.66, 352 320, 352C355.34, 352 384, 380.65 384, 416L384, 512L480, 512L480, 274.12C480, 262.88 474.1, 252.46 464.46, 246.68z" fill="#727272" fill-opacity="1" class="Black" />
    </g>
  </g>
</svg>