<?xml version='1.0' encoding='UTF-8'?>
<svg viewBox="-2 -4.0998 32 32" xmlns="http://www.w3.org/2000/svg">
  <g transform="matrix(1.0011, 0, 0, 1.0011, 0, 0)">
    <g transform="matrix(0.0437, 0, 0, 0.0437, 0, 0)">
      <path d="M624, 448L16, 448C7.16, 448 0, 455.16 0, 464L0, 496C0, 504.84 7.16, 512 16, 512L624, 512C632.84, 512 640, 504.84 640, 496L640, 464C640, 455.16 632.84, 448 624, 448zM80.55, 341.27C86.83, 348.11 95.65, 351.99 104.88, 351.98L235.42, 351.8A65.62 65.62 0 0 0 265.06, 344.68L556.02, 197.03C582.76, 183.46 606.73, 164.09 623.04, 138.72C641.35, 110.24 643.34, 89.63 636.11, 75.07C628.9, 60.5 611.37, 49.8 577.86, 47.62C548.01, 45.68 518.32, 53.54 491.58, 67.1L393.07, 117.09L174.37, 35.03A17.799 17.799 0 0 0 156.37, 33.92L90.62, 67.29C79.95, 72.7 77.37, 86.94 85.45, 95.82L241.67, 193.92L138.46, 246.3L66.11, 209.83A17.804 17.804 0 0 0 50.04, 209.85L9.91, 230.22C-0.53, 235.52 -3.28, 249.34 4.34, 258.3L80.55, 341.27z" fill="#727272" fill-opacity="1" class="Black" />
    </g>
  </g>
</svg>