<?xml version='1.0' encoding='UTF-8'?>
<svg viewBox="-2 -4.798 32 32" xmlns="http://www.w3.org/2000/svg">
  <g transform="matrix(0.9988, 0, 0, 0.9988, 0, 0)">
    <g transform="matrix(0.0438, 0, 0, 0.0438, 0, 0)">
      <path d="M624, 448L16, 448C7.16, 448 0, 455.16 0, 464L0, 496C0, 504.84 7.16, 512 16, 512L624, 512C632.84, 512 640, 504.84 640, 496L640, 464C640, 455.16 632.84, 448 624, 448zM44.81, 205.66L133.55, 285.66A62.607 62.607 0 0 0 159.02, 299.59L446.62, 377.94C473.1, 385.15 501.18, 386.66 527.62, 379.3C557.29, 371.03 571.06, 358.09 574.87, 343.59C578.7, 329.09 573.14, 310.88 551.5, 288.63C532.22, 268.81 507.15, 255.84 480.67, 248.63L383.16, 222.07L282.8, 30.22C281.29, 24.41 276.85, 19.87 271.14, 18.31L206.05, 0.58C195.49, -2.3 185.15, 5.9 185.34, 17.02L233.26, 181.23L131.06, 153.39L103.47, 85.51C101.54, 80.62 97.46, 76.94 92.45, 75.58L52.72, 64.75C42.38, 61.93 32.19, 69.75 32, 80.63L32.23, 182.41C32.42, 191.32 38.26, 199.75 44.81, 205.66z" fill="#727272" fill-opacity="1" class="Black" />
    </g>
  </g>
</svg>