<?xml version='1.0' encoding='UTF-8'?>
<svg viewBox="-1.9998 -3.5563 31.9975 32" xmlns="http://www.w3.org/2000/svg">
  <g transform="matrix(0.0486, 0, 0, 0.0486, 0, 0)">
    <path d="M472, 200L347.7, 200L309.1, 128L324, 128C330.6, 128 336, 122.6 336, 116L336, 76C336, 69.4 330.6, 64 324, 64L274.8, 64L243.5, 5.7C241.3, 2.2 237.4, 0 233.3, 0L175.5, 0C167.6, 0 161.9, 7.4 163.9, 15L197.2, 200.4C164.6, 201.4 134.1, 204.1 107.3, 208.2L67.5, 141.8C65.3, 138.2 61.4, 136 57.2, 136L14.6, 136C7, 136 1.3, 142.9 2.8, 150.4L19.4, 233.2C6.9, 240.1 0, 247.9 0, 256C0, 264.1 6.9, 271.9 19.4, 278.8L2.9, 361.6C1.4, 369.1 7.1, 376 14.6, 376L57.2, 376C61.4, 376 65.3, 373.8 67.5, 370.2L107.3, 303.8C134.1, 307.9 164.6, 310.6 197.2, 311.6L163.9, 497C161.9, 504.6 167.7, 512 175.5, 512L233.3, 512C237.5, 512 241.3, 509.8 243.5, 506.3L274.8, 448L324, 448C330.6, 448 336, 442.6 336, 436L336, 396C336, 389.4 330.6, 384 324, 384L309.1, 384L347.7, 312L472, 312C529.4, 312 576, 286.9 576, 256C576, 225.1 529.4, 200 472, 200z" fill="#727272" fill-opacity="1" class="Black" />
  </g>
</svg>