<?xml version='1.0' encoding='UTF-8'?>
<svg viewBox="-1.5477 -1.5477 32 32" xmlns="http://www.w3.org/2000/svg">
  <g transform="matrix(0.9991, 0, 0, 0.9991, 0, 0)">
    <g transform="matrix(0.0565, 0, 0, 0.0565, 0, 0)">
      <path d="M256, 8C119, 8 8, 119 8, 256C8, 393 119, 504 256, 504C393, 504 504, 393 504, 256C504, 119 393, 8 256, 8zM400, 284C400, 290.6 394.6, 296 388, 296L296, 296L296, 388C296, 394.6 290.6, 400 284, 400L228, 400C221.4, 400 216, 394.6 216, 388L216, 296L124, 296C117.4, 296 112, 290.6 112, 284L112, 228C112, 221.4 117.4, 216 124, 216L216, 216L216, 124C216, 117.4 221.4, 112 228, 112L284, 112C290.6, 112 296, 117.4 296, 124L296, 216L388, 216C394.6, 216 400, 221.4 400, 228L400, 284z" fill="#727272" fill-opacity="1" class="Black" />
    </g>
  </g>
</svg>