<?xml version='1.0' encoding='UTF-8'?>
<svg viewBox="-3.7495 -2 32 32" xmlns="http://www.w3.org/2000/svg">
  <g transform="matrix(0.0547, 0, 0, 0.0547, 0, 0)">
    <path d="M432, 144L111.36, 144C117.69, 113.1 142.08, 88.71 174.07, 81.95C182.76, 90.63 194.75, 96 208, 96L272, 96C298.51, 96 320, 74.51 320, 48C320, 21.49 298.51, 0 272, 0L208, 0C185.94, 0 167.55, 14.97 161.93, 35.24C109.85, 46.85 70.16, 90.29 63.35, 144L16, 144C7.16, 144 0, 151.16 0, 160L0, 176C0, 184.84 7.16, 192 16, 192L432, 192C440.84, 192 448, 184.84 448, 176L448, 160C448, 151.16 440.84, 144 432, 144zM400, 464L361.78, 464L384, 224L64, 224L86.22, 464L48, 464C39.16, 464 32, 471.16 32, 480L32, 496C32, 504.84 39.16, 512 48, 512L400, 512C408.84, 512 416, 504.84 416, 496L416, 480C416, 471.16 408.84, 464 400, 464z" fill="#727272" fill-opacity="1" class="Black" />
  </g>
</svg>