<?xml version='1.0' encoding='UTF-8'?>
<svg viewBox="-2 -4.7992 32 32" xmlns="http://www.w3.org/2000/svg">
  <g transform="matrix(0.9988, 0, 0, 0.9988, 0, 0)">
    <g transform="matrix(0.0438, 0, 0, 0.0438, 0, 0)">
      <path d="M80, 96C106.5, 96 128, 74.5 128, 48C128, 21.5 106.5, 0 80, 0C53.5, 0 32, 21.5 32, 48C32, 74.5 53.5, 96 80, 96zM128, 336C128, 309.5 106.5, 288 80, 288C53.5, 288 32, 309.5 32, 336C32, 362.5 53.5, 384 80, 384C106.5, 384 128, 362.5 128, 336zM96, 416L64, 416C28.7, 416 0, 444.7 0, 480L0, 496C0, 504.8 7.2, 512 16, 512L144, 512C152.8, 512 160, 504.8 160, 496L160, 480C160, 444.7 131.3, 416 96, 416zM616, 32L248, 32C234.7, 32 224, 42.7 224, 56L224, 168C224, 181.3 234.7, 192 248, 192L616, 192C629.3, 192 640, 181.3 640, 168L640, 56C640, 42.7 629.3, 32 616, 32zM576, 128L512, 128L512, 96L576, 96L576, 128zM96, 128L64, 128C28.7, 128 0, 156.7 0, 192L0, 208C0, 216.8 7.2, 224 16, 224L144, 224C152.8, 224 160, 216.8 160, 208L160, 192C160, 156.7 131.3, 128 96, 128zM616, 320L248, 320C234.7, 320 224, 330.7 224, 344L224, 456C224, 469.3 234.7, 480 248, 480L616, 480C629.3, 480 640, 469.3 640, 456L640, 344C640, 330.7 629.3, 320 616, 320zM576, 416L352, 416L352, 384L576, 384L576, 416z" fill="#727272" fill-opacity="1" class="Black" />
    </g>
  </g>
</svg>