<?xml version='1.0' encoding='UTF-8'?>
<svg viewBox="-2 0 32 32" xmlns="http://www.w3.org/2000/svg">
  <g transform="matrix(0.0625, 0, 0, 0.0625, 0, 0)">
    <path d="M400, 32L48, 32C21.5, 32 0, 53.5 0, 80L0, 432C0, 458.5 21.5, 480 48, 480L400, 480C426.5, 480 448, 458.5 448, 432L448, 80C448, 53.5 426.5, 32 400, 32zM160, 368C160, 376.84 152.84, 384 144, 384L112, 384C103.16, 384 96, 376.84 96, 368L96, 240C96, 231.16 103.16, 224 112, 224L144, 224C152.84, 224 160, 231.16 160, 240L160, 368zM256, 368C256, 376.84 248.84, 384 240, 384L208, 384C199.16, 384 192, 376.84 192, 368L192, 144C192, 135.16 199.16, 128 208, 128L240, 128C248.84, 128 256, 135.16 256, 144L256, 368zM352, 368C352, 376.84 344.84, 384 336, 384L304, 384C295.16, 384 288, 376.84 288, 368L288, 304C288, 295.16 295.16, 288 304, 288L336, 288C344.84, 288 352, 295.16 352, 304L352, 368z" fill="#727272" fill-opacity="1" class="Black" />
  </g>
</svg>