<?xml version='1.0' encoding='UTF-8'?>
<svg viewBox="-2 -2 32 32" xmlns="http://www.w3.org/2000/svg">
  <g transform="matrix(0.0547, 0, 0, 0.0547, 0, 0)">
    <path d="M451.36, 369.14C468.66, 355.99 480, 335.41 480, 312C480, 272.23 447.76, 240 408, 240L393.93, 240C407.35, 228.27 416, 211.22 416, 192C416, 156.65 387.35, 128 352, 128L346.12, 128C349.69, 117.95 352, 107.28 352, 96C352, 42.98 309.02, 0 256, 0C250.83, 0 245.85, 0.74 240.89, 1.52C250.31, 14.64 256, 30.62 256, 48C256, 92.18 220.18, 128 176, 128L160, 128C124.65, 128 96, 156.65 96, 192C96, 211.22 104.65, 228.27 118.07, 240L104, 240C64.24, 240 32, 272.23 32, 312C32, 335.41 43.34, 355.99 60.64, 369.14C26.31, 374.62 0, 404.12 0, 440C0, 479.76 32.24, 512 72, 512L440, 512C479.76, 512 512, 479.76 512, 440C512, 404.12 485.69, 374.62 451.36, 369.14z" fill="#727272" fill-opacity="1" class="Black" />
  </g>
</svg>