<?xml version='1.0' encoding='UTF-8'?>
<svg viewBox="-1.7777 -2 32 32" xmlns="http://www.w3.org/2000/svg">
  <g transform="matrix(0.9992, 0, 0, 0.9992, 0, 0)">
    <g transform="matrix(0.0556, 0, 0, 0.0556, 0, 0)">
      <path d="M400, 54.1C463, 99.1 504, 172.7 504, 256C504, 392.8 393.2, 503.7 256.5, 504C120, 504.3 8.2, 393 8, 256.4C7.9, 173.1 48.9, 99.3 111.8, 54.2C123.5, 45.9 139.8, 49.4 146.8, 61.9L162.6, 90C168.5, 100.5 165.7, 113.8 156, 121C114.5, 151.8 88, 200.6 88, 255.9C87.9, 348.2 162.5, 424 256, 424C347.6, 424 424.6, 349.8 424, 254.9C423.7, 203.1 399.3, 153.1 355.9, 120.9C346.2, 113.7 343.5, 100.4 349.4, 90L365.2, 61.9C372.2, 49.5 388.4, 45.8 400, 54.1zM296, 264L296, 24C296, 10.7 285.3, 0 272, 0L240, 0C226.7, 0 216, 10.7 216, 24L216, 264C216, 277.3 226.7, 288 240, 288L272, 288C285.3, 288 296, 277.3 296, 264z" fill="#727272" fill-opacity="1" class="Black" />
    </g>
  </g>
</svg>