<?xml version='1.0' encoding='UTF-8'?>
<svg viewBox="-2 -4.798 32 32" xmlns="http://www.w3.org/2000/svg">
  <g transform="matrix(0.9988, 0, 0, 0.9988, 0, 0)">
    <g transform="matrix(0.0438, 0, 0, 0.0438, 0, 0)">
      <path d="M272, 191.91C254.4, 191.91 240, 206.31 240, 223.91L240, 303.91C240, 312.75 232.84, 319.91 224, 319.91C215.16, 319.91 208, 312.75 208, 303.91L208, 227.36C208, 209.97 212.72, 192.89 221.69, 177.97L299.44, 48.38C308.53, 33.22 303.63, 13.57 288.47, 4.47C274.02, -4.2 255.75, 0.17 246.17, 13.68C245.97, 13.91 245.55, 13.89 245.38, 14.16L128.12, 190.06C117.56, 205.9 112, 224.31 112, 243.29L112, 323.52L21.88, 353.56A31.974 31.974 0 0 0 0, 383.91L0, 479.91C0, 490.73 8.52, 511.91 32, 511.91C34.69, 511.91 37.41, 511.57 40.06, 510.88L219.25, 464.26C269.16, 449.99 304, 403.8 304, 351.91L304, 223.91C304, 206.31 289.6, 191.91 272, 191.91zM618.12, 353.64L528, 323.6L528, 243.37C528, 224.39 522.44, 205.98 511.88, 190.14L394.62, 14.25C394.44, 13.98 394.03, 14.01 393.83, 13.77C384.25, 0.26 365.98, -4.11 351.53, 4.56C336.37, 13.65 331.47, 33.31 340.56, 48.47L418.31, 178.06C427.28, 192.98 432, 210.06 432, 227.45L432, 304C432, 312.84 424.84, 320 416, 320C407.16, 320 400, 312.84 400, 304L400, 224C400, 206.4 385.6, 192 368, 192C350.4, 192 336, 206.4 336, 224L336, 352C336, 403.89 370.84, 450.08 420.75, 464.34L599.94, 510.96C602.6, 511.65 605.32, 511.99 608, 511.99C631.48, 511.99 640, 490.81 640, 479.99L640, 383.99C640, 370.22 631.19, 358 618.12, 353.64z" fill="#727272" fill-opacity="1" class="Black" />
    </g>
  </g>
</svg>