<?xml version='1.0' encoding='UTF-8'?>
<svg viewBox="-5.5011 -1.9998 32 31.9975" xmlns="http://www.w3.org/2000/svg">
  <g transform="matrix(0.0547, 0, 0, 0.0547, 0, 0)">
    <path d="M256, 128C291.35, 128 320, 99.35 320, 64C320, 28.65 291.35, 0 256, 0C220.65, 0 192, 28.65 192, 64C192, 99.35 220.65, 128 256, 128zM225.37, 297.75C239.43, 314.47 264.37, 316.84 281.34, 302.97L369.34, 230.95C386.43, 216.97 388.93, 191.76 374.96, 174.67C360.99, 157.56 335.77, 155.08 318.65, 169.05L261.21, 216.05L222.3, 169.74C206.86, 151.35 183.08, 141.82 158.3, 144.41C134.11, 146.89 113.05, 160.68 101.93, 181.33L52.56, 273.36C29.16, 317 43.87, 369.73 86.75, 397.11L131.56, 432L40, 432C17.91, 432 0, 449.91 0, 472C0, 494.09 17.91, 512 40, 512L248, 512C282.08, 512 301.77, 469.21 276.28, 443.72L166.42, 333.86L201.22, 268.99L225.37, 297.75z" fill="#727272" fill-opacity="1" class="Black" />
  </g>
</svg>