<?xml version='1.0' encoding='UTF-8'?>
<svg viewBox="-3.9998 -0.0002 32 32" xmlns="http://www.w3.org/2000/svg">
  <g transform="matrix(0.0625, 0, 0, 0.0625, 0, 0)">
    <path d="M301.26, 352L379.32, 273.94C385.57, 267.69 385.57, 257.56 379.32, 251.31L356.69, 228.68C350.44, 222.43 340.31, 222.43 334.06, 228.68L256, 306.74L172.04, 222.78C219.31, 216.8 256, 176.89 256, 128C256, 74.98 213.02, 32 160, 32L16, 32C7.16, 32 0, 39.16 0, 48L0, 304C0, 312.84 7.16, 320 16, 320L48, 320C56.84, 320 64, 312.84 64, 304L64, 224L82.75, 224L210.75, 352L132.69, 430.06C126.44, 436.31 126.44, 446.44 132.69, 452.69L155.32, 475.32C161.57, 481.57 171.7, 481.57 177.95, 475.32L256, 397.25L334.06, 475.31C340.31, 481.56 350.44, 481.56 356.69, 475.31L379.32, 452.68C385.57, 446.43 385.57, 436.3 379.32, 430.05L301.26, 352zM64, 96L160, 96C177.64, 96 192, 110.36 192, 128C192, 145.64 177.64, 160 160, 160L64, 160L64, 96z" fill="#727272" fill-opacity="1" class="Black" />
  </g>
</svg>