<?xml version='1.0' encoding='UTF-8'?>
<svg viewBox="-1.9998 -3.5563 31.9975 32" xmlns="http://www.w3.org/2000/svg">
  <g transform="matrix(0.0486, 0, 0, 0.0486, 0, 0)">
    <path d="M560, 0L16, 0C7.16, 0 0, 7.16 0, 16L0, 48C0, 56.84 7.16, 64 16, 64L32, 64L32, 320C32, 337.67 46.33, 352 64, 352L256, 352L256, 386.75L180.69, 462.06C174.44, 468.31 174.44, 478.44 180.69, 484.69L203.31, 507.31C209.56, 513.56 219.69, 513.56 225.94, 507.31L288, 445.25L350.06, 507.31C356.31, 513.56 366.44, 513.56 372.69, 507.31L395.31, 484.69C401.56, 478.44 401.56, 468.31 395.31, 462.06L320, 386.75L320, 352L512, 352C529.67, 352 544, 337.67 544, 320L544, 64L560, 64C568.84, 64 576, 56.84 576, 48L576, 16C576, 7.16 568.84, 0 560, 0zM480, 288L96, 288L96, 64L480, 64L480, 288z" fill="#727272" fill-opacity="1" class="Black" />
  </g>
</svg>