<?xml version='1.0' encoding='UTF-8'?>
<svg viewBox="-5.5003 -2 32 32" xmlns="http://www.w3.org/2000/svg">
  <g transform="matrix(0.0547, 0, 0, 0.0547, 0, 0)">
    <path d="M32, 192L152, 192C156.4, 192 160, 195.6 160, 200L160, 216C160, 220.4 156.4, 224 152, 224L32, 224L32, 288L152, 288C156.4, 288 160, 291.6 160, 296L160, 312C160, 316.4 156.4, 320 152, 320L32, 320L32, 384L152, 384C156.4, 384 160, 387.6 160, 392L160, 408C160, 412.4 156.4, 416 152, 416L32, 416L32, 480C32, 497.6 46.4, 512 64, 512L320, 512C337.6, 512 352, 497.6 352, 480L352, 128L32, 128L32, 192zM360, 0L24, 0C10.8, 0 0, 10.8 0, 24L0, 72C0, 85.2 10.8, 96 24, 96L360, 96C373.2, 96 384, 85.2 384, 72L384, 24C384, 10.8 373.2, 0 360, 0z" fill="#727272" fill-opacity="1" class="Black" />
  </g>
</svg>