<?xml version='1.0' encoding='UTF-8'?>
<svg viewBox="-2 -2 32 32" xmlns="http://www.w3.org/2000/svg">
  <g transform="matrix(0.0547, 0, 0, 0.0547, 0, 0)">
    <path d="M448, 192L448, 77.25C448, 68.76 444.63, 60.63 438.63, 54.62L393.37, 9.37C387.37, 3.37 379.23, 0 370.74, 0L96, 0C78.33, 0 64, 14.33 64, 32L64, 192C28.65, 192 0, 220.65 0, 256L0, 368C0, 376.84 7.16, 384 16, 384L64, 384L64, 480C64, 497.67 78.33, 512 96, 512L416, 512C433.67, 512 448, 497.67 448, 480L448, 384L496, 384C504.84, 384 512, 376.84 512, 368L512, 256C512, 220.65 483.35, 192 448, 192zM384, 448L128, 448L128, 352L384, 352L384, 448zM384, 224L128, 224L128, 64L320, 64L320, 112C320, 120.84 327.16, 128 336, 128L384, 128L384, 224zM432, 296C418.75, 296 408, 285.25 408, 272C408, 258.74 418.75, 248 432, 248C445.25, 248 456, 258.74 456, 272C456, 285.25 445.25, 296 432, 296z" fill="#727272" fill-opacity="1" class="Black" />
  </g>
</svg>