<?xml version='1.0' encoding='UTF-8'?>
<svg viewBox="-2 -4.7992 32 32" xmlns="http://www.w3.org/2000/svg">
  <g transform="matrix(0.9988, 0, 0, 0.9988, 0, 0)">
    <g transform="matrix(0.0438, 0, 0, 0.0438, 0, 0)">
      <path d="M528, 224L272, 224C263.2, 224 256, 231.2 256, 240L256, 384L64, 384L64, 144C64, 135.2 56.8, 128 48, 128L16, 128C7.2, 128 0, 135.2 0, 144L0, 496C0, 504.8 7.2, 512 16, 512L48, 512C56.8, 512 64, 504.8 64, 496L64, 448L576, 448L576, 496C576, 504.8 583.2, 512 592, 512L624, 512C632.8, 512 640, 504.8 640, 496L640, 336C640, 274.1 589.9, 224 528, 224zM136, 96L262.1, 96L289.7, 151.2C295.6, 163 312.4, 163 318.3, 151.2L368, 51.8L390.1, 96L512, 96C520.8, 96 528, 88.8 528, 80C528, 71.2 520.8, 64 512, 64L409.9, 64L382.3, 8.8C376.4, -3 359.6, -3 353.7, 8.8L304, 108.2L284.1, 68.4C282.7, 65.7 280, 64 276.9, 64L136, 64C131.6, 64 128, 67.6 128, 72L128, 88C128, 92.4 131.6, 96 136, 96zM160, 352C195.3, 352 224, 323.3 224, 288C224, 252.7 195.3, 224 160, 224C124.7, 224 96, 252.7 96, 288C96, 323.3 124.7, 352 160, 352z" fill="#727272" fill-opacity="1" class="Black" />
    </g>
  </g>
</svg>