<?xml version='1.0' encoding='UTF-8'?>
<svg viewBox="-1.9999 -4.8004 32 32" xmlns="http://www.w3.org/2000/svg">
  <g transform="matrix(1.0011, 0, 0, 1.0011, 0, 0)">
    <g transform="matrix(0.0437, 0, 0, 0.0437, 0, 0)">
      <path d="M384, 320L256, 320C238.33, 320 224, 334.33 224, 352L224, 480C224, 497.67 238.33, 512 256, 512L384, 512C401.67, 512 416, 497.67 416, 480L416, 352C416, 334.33 401.67, 320 384, 320zM192, 32C192, 14.33 177.67, 0 160, 0L32, 0C14.33, 0 0, 14.33 0, 32L0, 160C0, 177.67 14.33, 192 32, 192L127.72, 192L200.88, 320.04C211.98, 300.98 232.4, 288 256, 288L256.28, 288L192, 175.51L192, 128L416, 128L416, 64L192, 64L192, 32zM608, 0L480, 0C462.33, 0 448, 14.33 448, 32L448, 160C448, 177.67 462.33, 192 480, 192L608, 192C625.67, 192 640, 177.67 640, 160L640, 32C640, 14.33 625.67, 0 608, 0z" fill="#727272" fill-opacity="1" class="Black" />
    </g>
  </g>
</svg>