<?xml version='1.0' encoding='UTF-8'?>
<svg viewBox="-2 0 32 32" xmlns="http://www.w3.org/2000/svg">
  <g transform="matrix(0.0625, 0, 0, 0.0625, 0, 0)">
    <path d="M0, 224L192, 224L192, 32L0, 32L0, 224zM64, 96L128, 96L128, 160L64, 160L64, 96zM256, 32L256, 224L448, 224L448, 32L256, 32zM384, 160L320, 160L320, 96L384, 96L384, 160zM0, 480L192, 480L192, 288L0, 288L0, 480zM64, 352L128, 352L128, 416L64, 416L64, 352zM416, 288L448, 288L448, 416L352, 416L352, 384L320, 384L320, 480L256, 480L256, 288L352, 288L352, 320L416, 320L416, 288zM416, 448L448, 448L448, 480L416, 480L416, 448zM352, 448L384, 448L384, 480L352, 480L352, 448z" fill="#727272" fill-opacity="1" class="Black" />
  </g>
</svg>