<?xml version='1.0' encoding='UTF-8'?>
<svg viewBox="-2 0 32 32" xmlns="http://www.w3.org/2000/svg">
  <g transform="matrix(0.0625, 0, 0, 0.0625, 0, 0)">
    <path d="M400, 32L48, 32C21.49, 32 0, 53.49 0, 80L0, 432C0, 458.51 21.49, 480 48, 480L400, 480C426.51, 480 448, 458.51 448, 432L448, 80C448, 53.49 426.51, 32 400, 32zM224, 430C198.635, 430 178, 409.364 178, 384C178, 358.635 198.635, 338 224, 338C249.365, 338 270, 358.635 270, 384C270, 409.364 249.365, 430 224, 430zM264, 298.667L264, 300C264, 306.627 258.627, 312 252, 312L196, 312C189.373, 312 184, 306.627 184, 300L184, 296C184, 254.941 215.128, 238.528 238.652, 225.34C258.823, 214.031 271.186, 206.34 271.186, 191.364C271.186, 171.554 245.917, 158.406 225.488, 158.406C198.298, 158.406 186.05, 171.545 168.185, 194.203C164.14, 199.333 156.725, 200.272 151.52, 196.325L116.821, 170.015C111.753, 166.172 110.57, 159.043 114.106, 153.757C141.4, 112.957 176.158, 90 230.655, 90C287.021, 90 347.186, 133.998 347.186, 192C347.186, 269.02 264, 270.205 264, 298.667z" fill="#727272" fill-opacity="1" class="Black" />
  </g>
</svg>