<?xml version='1.0' encoding='UTF-8'?>
<svg viewBox="-1.9999 -4.8002 31.9975 32" xmlns="http://www.w3.org/2000/svg">
  <g transform="matrix(1.001, 0, 0, 1.001, 0, 0)">
    <g transform="matrix(0.0437, 0, 0, 0.0437, 0, 0)">
      <path d="M125.9, 346.5L182.6, 426.5L61.9, 509.1C54.7, 514.1 44.7, 512.4 39.7, 505.2L2.9, 453.4C-2.2, 446.2 -0.5, 436.3 6.6, 431.1C6.7, 431.2 125.9, 346.5 125.9, 346.5zM528.7, 329.8C479.6, 364.6 424.8, 381.8 375.2, 381.8C347.6, 381.8 290.7, 366.7 203.3, 400.4L157.6, 335.9C190.3, 297.7 214.3, 252.7 225.3, 203.2C237.5, 148.5 274.8, 92.7 332.1, 52.1C432.6, -19.1 560.3, -18.1 615.5, 59.8C669.8, 136.5 630.9, 257.4 528.7, 329.8zM257.5, 335.7C245.8, 323.4 245.5, 324 236.3, 306C228.4, 320.1 220, 333.9 210.1, 347C225.8, 342.1 241.6, 338.5 257.5, 335.7zM485.9, 64C379.5, 64 307.3, 154 290.9, 205.1C269.6, 271.3 304.2, 317.9 374.8, 317.9C458.9, 317.9 545.9, 251.1 569.8, 176.8C591.1, 110.7 556.5, 64 485.9, 64z" fill="#727272" fill-opacity="1" class="Black" />
    </g>
  </g>
</svg>