<?xml version='1.0' encoding='UTF-8'?>
<svg viewBox="-1.9999 -1.549 31.9975 32" xmlns="http://www.w3.org/2000/svg">
  <g transform="matrix(0.999, 0, 0, 0.999, 0, 0)">
    <g transform="matrix(0.0565, 0, 0, 0.0565, 0, 0)">
      <path d="M312, 256L391.1, 256C400.3, 256 408, 248.3 407.1, 239.2C402.5, 195.6 380.1, 157.4 347.6, 131.4C340, 125.3 328.8, 126.9 323.6, 135.2L281.9, 202C299.9, 213.2 312, 233.2 312, 256zM214.2, 310.1L172.4, 377C167.5, 384.8 170, 395.4 178.2, 399.5C199.3, 409.9 222.9, 416 248, 416C273.1, 416 296.7, 409.9 317.9, 399.5C326.1, 395.4 328.5, 384.8 323.7, 377L281.9, 310.1C272.1, 316.3 260.5, 320 248.1, 320C235.7, 320 224, 316.3 214.2, 310.1zM104.9, 256L184, 256C184, 233.2 196.1, 213.2 214.2, 201.9L172.5, 135.1C167.3, 126.8 156.1, 125.2 148.5, 131.3C115.9, 157.3 93.6, 195.5 89, 239.1C87.9, 248.3 95.7, 256 104.9, 256zM248, 504C385, 504 496, 393 496, 256C496, 119 385, 8 248, 8C111, 8 0, 119 0, 256C0, 393 111, 504 248, 504zM248, 72C349.5, 72 432, 154.5 432, 256C432, 357.5 349.5, 440 248, 440C146.5, 440 64, 357.5 64, 256C64, 154.5 146.5, 72 248, 72zM248, 288C265.7, 288 280, 273.7 280, 256C280, 238.3 265.7, 224 248, 224C230.3, 224 216, 238.3 216, 256C216, 273.7 230.3, 288 248, 288z" fill="#727272" fill-opacity="1" class="Black" />
    </g>
  </g>
</svg>