<?xml version='1.0' encoding='UTF-8'?>
<svg viewBox="-2.0524 -2.0524 31.9975 32" xmlns="http://www.w3.org/2000/svg">
  <g transform="matrix(0.0547, 0, 0, 0.0547, 0, 0)">
    <path d="M447, 127L210.5, 127L499.33, 45.79A16 16 0 0 0 510.4, 26.05L506.07, 10.67A16 16 0 0 0 486.33, -0.4L63, 127A64 64 0 0 0 -1, 191L-1, 447A64 64 0 0 0 63, 511L447, 511A64 64 0 0 0 511, 447L511, 191A64 64 0 0 0 447, 127zM207, 247L207, 263A8 8 0 0 1 199, 271L87, 271A8 8 0 0 1 79, 263L79, 247A8 8 0 0 1 87, 239L199, 239A8 8 0 0 1 207, 247zM207, 391A8 8 0 0 1 199, 399L87, 399A8 8 0 0 1 79, 391L79, 375A8 8 0 0 1 87, 367L199, 367A8 8 0 0 1 207, 375zM223, 327A8 8 0 0 1 215, 335L71, 335A8 8 0 0 1 63, 327L63, 311A8 8 0 0 1 71, 303L215, 303A8 8 0 0 1 223, 311zM367, 399A80 80 0 1 1 447, 319A80 80 0 0 1 367, 399z" fill="#727272" fill-opacity="1" class="Black" />
  </g>
</svg>