<?xml version='1.0' encoding='UTF-8'?>
<svg viewBox="-2 -3.554 32 32" xmlns="http://www.w3.org/2000/svg">
  <g transform="matrix(0.0486, 0, 0, 0.0486, 0, 0)">
    <path d="M268.3, 32.7C115.4, 42.9 0, 176.9 0, 330.2L0, 464C0, 472.8 7.2, 480 16, 480L48, 480C56.8, 480 64, 472.8 64, 464L64, 320C64, 186.8 180.9, 80.3 317.5, 97.9C430.4, 112.4 512, 214 512, 327.8L512, 464C512, 472.8 519.2, 480 528, 480L560, 480C568.8, 480 576, 472.8 576, 464L576, 320C576, 154.7 436, 21.4 268.3, 32.7zM262.7, 129.6C166, 142 96, 229.1 96, 326.7L96, 464C96, 472.8 103.2, 480 112, 480L144, 480C152.8, 480 160, 472.8 160, 464L160, 320C160, 245.2 224.5, 185.2 300.8, 192.6C367.3, 199.1 416, 258.8 416, 325.7L416, 464C416, 472.8 423.2, 480 432, 480L464, 480C472.8, 480 480, 472.8 480, 464L480, 320C480, 205.8 379.8, 114.6 262.7, 129.6zM268.9, 225.9C223.3, 234.8 192, 277.4 192, 323.8L192, 464C192, 472.8 199.2, 480 208, 480L240, 480C248.8, 480 256, 472.8 256, 464L256, 320C256, 302.4 270.3, 288 288, 288C305.7, 288 320, 302.4 320, 320L320, 464C320, 472.8 327.2, 480 336, 480L368, 480C376.8, 480 384, 472.8 384, 464L384, 320C384, 260.8 330.2, 214 268.9, 225.9z" fill="#727272" fill-opacity="1" class="Black" />
  </g>
</svg>