<?xml version='1.0' encoding='UTF-8'?>
<svg viewBox="-1.9975 -4.7992 31.9975 32" xmlns="http://www.w3.org/2000/svg">
  <g transform="matrix(0.9988, 0, 0, 0.9988, 0, 0)">
    <g transform="matrix(0.0438, 0, 0, 0.0438, 0, 0)">
      <path d="M622.25, 105.96L576, 83.22L576, 64C576, 46.33 561.67, 32 544, 32L471.03, 32C453.45, 12.5 428.26, 0 400, 0C347.06, 0 304, 43.06 304, 96C304, 143.46 338.7, 182.72 384.02, 190.38C378.79, 191.26 373.49, 192 368, 192C316.46, 192 274.74, 151.29 272.44, 100.32C266.54, 97.69 260.15, 96 253.11, 96C240.64, 96 229.11, 100.8 220.8, 108.8C212.16, 100.8 200.64, 96 188.16, 96C175.04, 96 163.19, 101.44 154.55, 109.75C143.36, 100.47 128.32, 96 112.96, 99.52C95.37, 103.36 81.93, 116.47 77.12, 132.8C60.48, 129.92 42.89, 136 31.68, 150.08C20.16, 164.16 18.24, 182.72 24.65, 198.39C9.93, 206.39 0.01, 222.39 0.01, 240.31C0.01, 258.54 10.24, 274.23 24.96, 282.23C18.55, 297.92 20.8, 316.46 32.01, 330.54C43.53, 344.63 61.12, 350.71 77.76, 347.51C81.84, 361.39 92.4, 372.58 106.23, 378.09L100.09, 394.47A63.973 63.973 0 0 0 97.93, 432.47L114.78, 499.88A16.002 16.002 0 0 0 130.3, 512L196.26, 512C206.67, 512 214.31, 502.22 211.78, 492.12L193.47, 418.86L208.23, 379.5C212.96, 377.35 217.45, 374.72 221.13, 371.19C229.77, 379.19 241.3, 384 253.77, 384C266.25, 384 277.77, 379.19 286.41, 371.19C295.05, 379.19 306.25, 384 319.05, 384C331.54, 384 342.92, 379.04 351.51, 371.09C351.67, 371.24 351.85, 371.36 352.02, 371.51L352.02, 496C352.02, 504.84 359.18, 512 368.02, 512L432.02, 512C440.86, 512 448.02, 504.84 448.02, 496L448.02, 330.67L483.5, 307A64.009 64.009 0 0 0 512, 253.75L512, 192L599.66, 192C608.92, 192 617.42, 187.1 622.03, 179.06C629.62, 165.8 640.01, 145.61 640.01, 134.47A31.798 31.798 0 0 0 622.25, 105.96zM352, 96C352, 69.53 373.53, 48 400, 48C426.47, 48 448, 69.53 448, 96C448, 122.47 426.47, 144 400, 144C373.53, 144 352, 122.47 352, 96zM512, 112C503.16, 112 496, 104.84 496, 96C496, 87.16 503.16, 80 512, 80C520.84, 80 528, 87.16 528, 96C528, 104.84 520.84, 112 512, 112z" fill="#727272" fill-opacity="1" class="Black" />
    </g>
  </g>
</svg>