<?xml version='1.0' encoding='UTF-8'?>
<svg viewBox="-2 -1.9988 32 32" xmlns="http://www.w3.org/2000/svg">
  <g transform="matrix(0.0547, 0, 0, 0.0547, 0, 0)">
    <path d="M504.971, 359.029C514.344, 368.402 514.344, 383.598 504.971, 392.97L424.971, 472.954C409.961, 487.964 384, 477.444 384, 455.983L384, 416L325.215, 416A12.004 12.004 0 0 1 316.442, 412.188L245.886, 336.592L299.219, 279.449L352, 336L384, 336L384, 296.019C384, 274.581 409.943, 264.021 424.971, 279.048L504.971, 359.029zM12, 176L96, 176L148.781, 232.551L202.114, 175.408L131.558, 99.812A11.999 11.999 0 0 0 122.785, 96L12, 96C5.373, 96 0, 101.373 0, 108L0, 164C0, 170.627 5.373, 176 12, 176zM384, 176L384, 215.984C384, 237.444 409.961, 247.964 424.971, 232.955L504.971, 152.971C514.344, 143.598 514.344, 128.402 504.971, 119.03L424.971, 39.049C409.943, 24.021 384, 34.582 384, 56.019L384, 96L325.215, 96A12.004 12.004 0 0 0 316.442, 99.812L96, 336L12, 336C5.373, 336 0, 341.373 0, 348L0, 404C0, 410.627 5.373, 416 12, 416L122.785, 416C126.111, 416 129.288, 414.619 131.558, 412.188L352, 176L384, 176z" fill="#727272" fill-opacity="1" class="Black" />
  </g>
</svg>