<?xml version='1.0' encoding='UTF-8'?>
<svg viewBox="-5.5012 -2 32 32" xmlns="http://www.w3.org/2000/svg">
  <g transform="matrix(0.0547, 0, 0, 0.0547, 0, 0)">
    <path d="M358.4, 3.2L320, 48L265.6, 3.2A15.9 15.9 0 0 0 246.4, 3.2L192, 48L137.6, 3.2A15.9 15.9 0 0 0 118.4, 3.2L64, 48L25.6, 3.2C15, -4.7 0, 2.8 0, 16L0, 496C0, 509.2 15, 516.7 25.6, 508.8L64, 464L118.4, 508.8A15.9 15.9 0 0 0 137.6, 508.8L192, 464L246.4, 508.8A15.9 15.9 0 0 0 265.6, 508.8L320, 464L358.4, 508.8C368.9, 516.7 384, 509.2 384, 496L384, 16C384, 2.8 369, -4.7 358.4, 3.2zM320, 360C320, 364.4 316.4, 368 312, 368L72, 368C67.6, 368 64, 364.4 64, 360L64, 344C64, 339.6 67.6, 336 72, 336L312, 336C316.4, 336 320, 339.6 320, 344L320, 360zM320, 264C320, 268.4 316.4, 272 312, 272L72, 272C67.6, 272 64, 268.4 64, 264L64, 248C64, 243.6 67.6, 240 72, 240L312, 240C316.4, 240 320, 243.6 320, 248L320, 264zM320, 168C320, 172.4 316.4, 176 312, 176L72, 176C67.6, 176 64, 172.4 64, 168L64, 152C64, 147.6 67.6, 144 72, 144L312, 144C316.4, 144 320, 147.6 320, 152L320, 168z" fill="#727272" fill-opacity="1" class="Black" />
  </g>
</svg>