<?xml version='1.0' encoding='UTF-8'?>
<svg viewBox="-1.5549 -2.01 31.9975 32" xmlns="http://www.w3.org/2000/svg">
  <g transform="matrix(0.0555, 0, 0, 0.0555, 0, 0)">
    <path d="M500.33, 0L452.92, 0A12 12 0 0 0 440.92, 12.57L444.92, 95.33A247.42 247.42 0 0 0 256, 8C119.34, 8 7.9, 119.53 8, 256.19C8.1, 393.07 119.1, 504 256, 504A247.1 247.1 0 0 0 422.18, 440.09A12 12 0 0 0 422.66, 422.66L388.66, 388.66A12 12 0 0 0 372.28, 388.11A176 176 0 1 1 402.1, 157.8L300.57, 152.93A12 12 0 0 0 288, 164.93L288, 212.34A12 12 0 0 0 300, 224.34L500.33, 224.34A12 12 0 0 0 512.33, 212.34L512.33, 12A12 12 0 0 0 500.33, 0z" fill="#727272" fill-opacity="1" class="Black" />
  </g>
</svg>