<?xml version='1.0' encoding='UTF-8'?>
<svg viewBox="-1.5477 -1.5477 32 32" xmlns="http://www.w3.org/2000/svg">
  <g transform="matrix(0.9991, 0, 0, 0.9991, 0, 0)">
    <g transform="matrix(0.0565, 0, 0, 0.0565, 0, 0)">
      <path d="M285.363, 207.475C285.363, 226.075 275.532, 235.906 256.932, 235.906L227.056, 235.906L227.056, 179.766L250.434, 179.766C279.102, 179.766 285.363, 188.539 285.363, 207.475zM504, 256C504, 392.967 392.967, 504 256, 504C119.033, 504 8, 392.967 8, 256C8, 119.033 119.033, 8 256, 8C392.967, 8 504, 119.033 504, 256zM363.411, 360.414C316.682, 275.589 320.112, 281.778 318.709, 279.434C342.141, 264.262 356.654, 236.455 356.654, 204.948C356.654, 150.704 325.154, 115.696 251.156, 115.696L180.489, 115.696C167.234, 115.696 156.489, 126.441 156.489, 139.696L156.489, 372C156.489, 385.255 167.234, 396 180.489, 396L203.056, 396C216.311, 396 227.056, 385.255 227.056, 372L227.056, 300.337L252.612, 300.337L296.741, 383.274A24.001 24.001 0 0 0 317.929, 396.001L342.393, 396.001C360.654, 396 372.222, 376.41 363.411, 360.414z" fill="#727272" fill-opacity="1" class="Black" />
    </g>
  </g>
</svg>