<?xml version='1.0' encoding='UTF-8'?>
<svg viewBox="-1.9952 -4.7952 32 32" xmlns="http://www.w3.org/2000/svg">
  <g transform="matrix(0.9991, 0, 0, 0.9991, 0, 0)">
    <g transform="matrix(0.0438, 0, 0, 0.0438, 0, 0)">
      <path d="M336, 416L324.83, 416L334.09, 388.23L267, 336.4L240.49, 416L208, 416A16 16 0 0 0 192, 432L192, 464A16 16 0 0 0 208, 480L336, 480A16 16 0 0 0 352, 464L352, 432A16 16 0 0 0 336, 416zM633.82, 458.1L377, 259.59L426.17, 112L544, 112L544, 144A16 16 0 0 0 560, 160L592, 160A16 16 0 0 0 608, 144L608, 48A16 16 0 0 0 592, 32L176, 32A16 16 0 0 0 160, 48L160, 91.9L45.46, 3.38A16 16 0 0 0 23, 6.19L3.37, 31.46A16 16 0 0 0 6.18, 53.91L594.54, 508.63A16 16 0 0 0 617, 505.82L636.64, 480.55A16 16 0 0 0 633.82, 458.1zM309.91, 207.76L224, 141.36L224, 112L341.83, 112z" fill="#727272" fill-opacity="1" class="Black" />
    </g>
  </g>
</svg>