<?xml version='1.0' encoding='UTF-8'?>
<svg viewBox="-2 -1.9988 32 32" xmlns="http://www.w3.org/2000/svg">
  <g transform="matrix(0.0547, 0, 0, 0.0547, 0, 0)">
    <path d="M512, 256C512, 344.224 440.225, 416 352, 416L170.067, 416L204.579, 448.419C214.454, 457.695 214.698, 473.302 205.118, 482.883L194.343, 493.658C184.97, 503.03 169.775, 503.03 160.402, 493.658L67.716, 400.972C58.343, 391.599 58.343, 376.404 67.716, 367.031L147.985, 286.761C157.358, 277.388 172.553, 277.388 181.926, 286.761L192.701, 297.536C202.282, 307.117 202.038, 322.723 192.162, 332L170.067, 352L352, 352C404.935, 352 448, 308.935 448, 256C448, 242.042 445.004, 228.772 439.624, 216.796C435.563, 207.757 437.34, 197.17 444.347, 190.163L456.53, 177.98C468.029, 166.481 487.495, 169.454 494.842, 183.962C505.814, 205.624 512, 230.103 512, 256zM72.376, 295.204C66.996, 283.228 64, 269.958 64, 256C64, 203.065 107.065, 160 160, 160L341.933, 160L319.838, 180.002C309.963, 189.278 309.719, 204.885 319.299, 214.466L330.074, 225.241C339.447, 234.613 354.642, 234.613 364.015, 225.241L444.284, 144.971C453.657, 135.598 453.657, 120.403 444.284, 111.03L351.598, 18.344C342.225, 8.971 327.03, 8.971 317.657, 18.344L306.882, 29.119C297.301, 38.7 297.545, 54.306 307.421, 63.583L341.933, 96L160, 96C71.775, 96 0, 167.776 0, 256C0, 281.897 6.186, 306.376 17.157, 328.039C24.504, 342.547 43.97, 345.52 55.469, 334.021L67.652, 321.838C74.66, 314.83 76.438, 304.243 72.376, 295.204zM227.263, 299.527C227.263, 292.05 231.18, 287.955 238.836, 287.955L253.967, 287.955L253.967, 248.077C253.967, 242.914 254.501, 237.574 254.501, 237.574L254.145, 237.574C254.145, 237.574 252.366, 240.244 251.297, 241.312C246.846, 245.585 240.793, 245.763 235.631, 240.244L230.113, 234.013C224.771, 228.672 225.129, 222.797 230.647, 217.634L252.367, 197.695C256.816, 193.6 260.733, 191.998 266.787, 191.998L278.892, 191.998C286.548, 191.998 290.641, 195.914 290.641, 203.57L290.641, 287.954L306.129, 287.954C313.784, 287.954 317.701, 292.048 317.701, 299.526L317.701, 308.427C317.701, 315.904 313.784, 319.999 306.129, 319.999L238.836, 319.999C231.18, 319.999 227.263, 315.904 227.263, 308.427L227.263, 299.527z" fill="#727272" fill-opacity="1" class="Black" />
  </g>
</svg>