<?xml version='1.0' encoding='UTF-8'?>
<svg viewBox="-2 -3.554 32 32" xmlns="http://www.w3.org/2000/svg">
  <g transform="matrix(0.0486, 0, 0, 0.0486, 0, 0)">
    <path d="M136.309, 189.836L312.313, 37.851C327.72, 24.546 352, 35.348 352, 56.015L352, 138.778C481.182, 149.009 576, 190.99 576, 322.326C576, 383.767 536.418, 444.635 492.667, 476.458C479.014, 486.389 459.556, 473.925 464.59, 457.827C503.102, 334.665 460.668, 288.345 352, 275.812L352, 359.987C352, 380.688 327.7, 391.44 312.313, 378.151L136.309, 226.164C125.238, 216.603 125.223, 199.411 136.309, 189.836zM8.309, 226.164L184.313, 378.15C199.7, 391.439 224, 380.687 224, 359.986L224, 344.168L115.394, 250.383A55.96 55.96 0 0 1 96, 207.998A55.953 55.953 0 0 1 115.393, 165.618L224, 71.832L224, 56.015C224, 35.348 199.72, 24.546 184.313, 37.851L8.309, 189.836C-2.777, 199.411 -2.762, 216.603 8.309, 226.164z" fill="#727272" fill-opacity="1" class="Black" />
  </g>
</svg>