<?xml version='1.0' encoding='UTF-8'?>
<svg viewBox="-1.8523 -4.6801 32 31.9975" xmlns="http://www.w3.org/2000/svg">
  <g transform="matrix(0.0442, 0, 0, 0.0442, 0, 0)">
    <path d="M629.657, 343.598L528.971, 444.284C519.598, 453.656 504.403, 453.656 495.03, 444.284L394.343, 343.598C384.97, 334.225 384.97, 319.029 394.343, 309.657L405.166, 298.834C414.728, 289.272 430.299, 289.494 439.585, 299.326L480, 342.118L480, 160L292.451, 160A24.005 24.005 0 0 1 275.48, 152.971L259.48, 136.971C244.361, 121.851 255.069, 96 276.451, 96L520, 96C533.255, 96 544, 106.745 544, 120L544, 342.118L584.416, 299.326C593.701, 289.495 609.272, 289.272 618.835, 298.834L629.658, 309.657C639.03, 319.029 639.03, 334.226 629.657, 343.598zM364.519, 359.029A23.999 23.999 0 0 0 347.548, 352L160, 352L160, 169.881L200.416, 212.673C209.702, 222.504 225.272, 222.727 234.835, 213.164L245.657, 202.342C255.03, 192.969 255.03, 177.773 245.657, 168.401L144.971, 67.716C135.598, 58.343 120.402, 58.343 111.03, 67.716L10.343, 168.402C0.97, 177.775 0.97, 192.971 10.343, 202.343L21.165, 213.165C30.727, 222.727 46.298, 222.505 55.584, 212.674L96, 169.881L96, 392C96, 405.255 106.745, 416 120, 416L363.549, 416C384.931, 416 395.639, 390.149 380.52, 375.029L364.519, 359.029z" fill="#727272" fill-opacity="1" class="Black" />
  </g>
</svg>