<?xml version='1.0' encoding='UTF-8'?>
<svg viewBox="-3.7449 -1.9975 32 32" xmlns="http://www.w3.org/2000/svg">
  <g transform="matrix(0.0547, 0, 0, 0.0547, 0, 0)">
    <path d="M6.1, 444.3C-3.5, 455.1 -1.4, 471.9 10.6, 480L79.4, 507.9C89.3, 514.6 102.7, 512.9 110.7, 504.1L202.5, 402.2L123.3, 314.3L6.1, 444.3zM441.9, 444.3C441.9, 444.3 149.9, 119.7 146.5, 114.2C161.9, 105.8 186.7, 96.3 224, 96.3C261.3, 96.3 286.1, 105.8 301.5, 114.2C298.2, 119.8 245.5, 178.8 245.5, 178.8L324.6, 266.5L358.8, 228.5C387.5, 196.6 392.1, 149.9 370.2, 113L326.5, 39.5C322.2, 32.3 316.6, 26.2 309.7, 21.5C269, -6.1 182.3, -8.2 138.3, 21.5C131.4, 26.2 125.8, 32.3 121.5, 39.5L77.9, 112.7C76.4, 115.2 40.8, 174.9 89.4, 228.7L337.5, 504C345.5, 512.9 358.9, 514.5 368.8, 507.8L437.6, 479.9C449.5, 471.9 451.6, 455.1 441.9, 444.3z" fill="#727272" fill-opacity="1" class="Black" />
  </g>
</svg>