<?xml version='1.0' encoding='UTF-8'?>
<svg viewBox="-2 -1.9988 32 32" xmlns="http://www.w3.org/2000/svg">
  <g transform="matrix(0.0547, 0, 0, 0.0547, 0, 0)">
    <path d="M256, 64C110.06, 64 0, 125.91 0, 208L0, 306.13C0, 384.48 114.62, 448 256, 448C397.38, 448 512, 384.48 512, 306.13L512, 208C512, 125.91 401.94, 64 256, 64zM256, 128C362.04, 128 448, 163.82 448, 208C448, 217.26 444.03, 226.12 437.09, 234.39C392.15, 208.21 328.23, 192 256, 192C183.77, 192 119.85, 208.21 74.91, 234.39C67.97, 226.12 64, 217.26 64, 208C64, 163.82 149.96, 128 256, 128zM120.43, 264.64C155.04, 249.93 201.64, 240 256, 240C310.36, 240 356.96, 249.93 391.57, 264.64C356.84, 279.07 308.93, 288 256, 288C203.07, 288 155.16, 279.07 120.43, 264.64z" fill="#727272" fill-opacity="1" class="Black" />
  </g>
</svg>