<?xml version='1.0' encoding='UTF-8'?>
<svg viewBox="-1.9999 -1.9999 32 31.9975" xmlns="http://www.w3.org/2000/svg">
  <g transform="matrix(0.0547, 0, 0, 0.0547, 0, 0)">
    <path d="M351.25, 160.77A206.38 206.38 0 0 1 379.9, 233A112 112 0 1 1 224, 336C224, 293.79 247.69, 257.43 282.31, 238.51C285.68, 249.15 288, 260.26 288, 272A111.34 111.34 0 0 1 257.27, 348.6A79.84 79.84 0 0 0 293, 403.23A175.36 175.36 0 0 0 352, 272C352, 190.38 296.36, 121.93 221, 102L256, 32L224, 0L128, 0L96, 32L131, 102C55.64, 121.93 0, 190.38 0, 272A176 176 0 0 0 176, 448A171.77 171.77 0 0 0 198.94, 446.29A175.93 175.93 0 0 0 512, 336C512, 244 441.3, 168.51 351.25, 160.77zM64, 272A112.12 112.12 0 0 1 176, 160C202.85, 160 227.19, 169.88 246.5, 185.69C194.94, 216.24 160, 271.68 160, 336A175.89 175.89 0 0 0 166.55, 383C109.28, 378.16 64, 330.52 64, 272z" fill="#727272" fill-opacity="1" class="Black" />
  </g>
</svg>