<?xml version='1.0' encoding='UTF-8'?>
<svg viewBox="-1.9975 -3.5518 32 32" xmlns="http://www.w3.org/2000/svg">
  <g transform="matrix(0.0486, 0, 0, 0.0486, 0, 0)">
    <path d="M573.19, 402.67L433.4, 82.67C428.43, 71.29 417.6, 64 405.68, 64L308.09, 64L310.54, 87.16C311.04, 91.88 307.33, 96 302.58, 96L273.42, 96C268.67, 96 264.96, 91.88 265.46, 87.16L267.91, 64L170.32, 64C158.39, 64 147.56, 71.29 142.59, 82.67L2.8, 402.67C-6.45, 423.86 8.31, 448 30.54, 448L227.38, 448L237.69, 350.32C238.55, 342.18 245.41, 336 253.6, 336L322.4, 336C330.59, 336 337.45, 342.18 338.31, 350.32L348.62, 448L545.46, 448C567.69, 448 582.45, 423.86 573.19, 402.67zM260.4, 135.16A8 8 0 0 1 268.36, 128L307.65, 128C311.74, 128 315.18, 131.09 315.61, 135.16L320.21, 178.74C320.96, 185.83 315.4, 192 308.28, 192L267.74, 192C260.61, 192 255.06, 185.83 255.81, 178.74L260.4, 135.16zM315.64, 304L260.35, 304C250.85, 304 243.44, 295.77 244.44, 286.32L249.51, 238.32C250.37, 230.18 257.23, 224 265.42, 224L310.57, 224C318.76, 224 325.62, 230.18 326.48, 238.32L331.55, 286.32C332.55, 295.77 325.14, 304 315.64, 304z" fill="#727272" fill-opacity="1" class="Black" />
  </g>
</svg>