<?xml version='1.0' encoding='UTF-8'?>
<svg viewBox="-1.9999 -4.8004 32 32" xmlns="http://www.w3.org/2000/svg">
  <g transform="matrix(1.0011, 0, 0, 1.0011, 0, 0)">
    <g transform="matrix(0.0437, 0, 0, 0.0437, 0, 0)">
      <path d="M0, 256L0, 384C0, 401.7 14.3, 416 32, 416L64, 416L64, 224L32, 224C14.3, 224 0, 238.3 0, 256zM464, 96L352, 96L352, 32C352, 14.3 337.7, 0 320, 0C302.3, 0 288, 14.3 288, 32L288, 96L176, 96C131.8, 96 96, 131.8 96, 176L96, 448C96, 483.3 124.7, 512 160, 512L480, 512C515.3, 512 544, 483.3 544, 448L544, 176C544, 131.8 508.2, 96 464, 96zM256, 416L192, 416L192, 384L256, 384L256, 416zM224, 296C201.9, 296 184, 278.1 184, 256C184, 233.9 201.9, 216 224, 216C246.1, 216 264, 233.9 264, 256C264, 278.1 246.1, 296 224, 296zM352, 416L288, 416L288, 384L352, 384L352, 416zM448, 416L384, 416L384, 384L448, 384L448, 416zM416, 296C393.9, 296 376, 278.1 376, 256C376, 233.9 393.9, 216 416, 216C438.1, 216 456, 233.9 456, 256C456, 278.1 438.1, 296 416, 296zM608, 224L576, 224L576, 416L608, 416C625.7, 416 640, 401.7 640, 384L640, 256C640, 238.3 625.7, 224 608, 224z" fill="#727272" fill-opacity="1" class="Black" />
    </g>
  </g>
</svg>