<?xml version='1.0' encoding='UTF-8'?>
<svg viewBox="-2 -2 32 32" xmlns="http://www.w3.org/2000/svg">
  <g transform="matrix(0.0547, 0, 0, 0.0547, 0, 0)">
    <path d="M416, 320L320, 320C302.4, 320 288, 305.6 288, 288C288, 270.4 302.4, 256 320, 256L416, 256C416, 256 512, 149 512, 96C512, 43 469, 0 416, 0C363, 0 320, 43 320, 96C320, 121.5 342.2, 159.4 365.3, 192L320, 192C267.1, 192 224, 235.1 224, 288C224, 340.9 267.1, 384 320, 384L416, 384C433.6, 384 448, 398.4 448, 416C448, 433.6 433.6, 448 416, 448L185.5, 448C169.5, 472.8 151.7, 495.7 138.2, 512L416, 512C468.9, 512 512, 468.9 512, 416C512, 363.1 468.9, 320 416, 320zM416, 64C433.7, 64 448, 78.3 448, 96C448, 113.7 433.7, 128 416, 128C398.3, 128 384, 113.7 384, 96C384, 78.3 398.3, 64 416, 64zM96, 256C43, 256 0, 299 0, 352C0, 405 96, 512 96, 512C96, 512 192, 405 192, 352C192, 299 149, 256 96, 256zM96, 384C78.3, 384 64, 369.7 64, 352C64, 334.3 78.3, 320 96, 320C113.7, 320 128, 334.3 128, 352C128, 369.7 113.7, 384 96, 384z" fill="#727272" fill-opacity="1" class="Black" />
  </g>
</svg>