<?xml version='1.0' encoding='UTF-8'?>
<svg viewBox="-3.7508 -2 32 32" xmlns="http://www.w3.org/2000/svg">
  <g transform="matrix(0.0547, 0, 0, 0.0547, 0, 0)">
    <path d="M428.4, 269.21C397.92, 223.79 416.6, 164.74 441.4, 113.81C445.36, 105.68 444.74, 96.06 439.53, 88.68L398.35, 30.32C393.29, 23.14 382.59, 17.22 370.86, 21.71C355.49, 27.59 338.19, 30.6 320.6, 30.6C291.09, 30.6 260.79, 22.13 237.44, 4.49C233.48, 1.5 228.74, 0 224, 0C219.26, 0 214.52, 1.5 210.56, 4.49C187.21, 22.13 156.9, 30.6 127.39, 30.6C109.8, 30.6 92.5, 27.59 77.14, 21.71C65.32, 17.19 54.65, 23.23 49.65, 30.32L8.47, 88.69C3.26, 96.07 2.64, 105.68 6.6, 113.82C31.4, 164.74 50.07, 223.79 19.6, 269.22C-18.34, 325.74 1.05, 408.65 58.41, 435.25L223.97, 512L389.59, 435.24C446.95, 408.64 466.34, 325.73 428.4, 269.21zM362.68, 377.17L223.98, 441.46L85.33, 377.17C65.55, 368 55.63, 330.37 72.74, 304.87C97.47, 268.01 101.94, 228.13 97.96, 192L350.03, 192C346.05, 228.13 350.52, 268.02 375.25, 304.88C392.48, 330.54 382.3, 368.08 362.68, 377.17z" fill="#727272" fill-opacity="1" class="Black" />
  </g>
</svg>