<?xml version='1.0' encoding='UTF-8'?>
<svg viewBox="-2.8747 -2 32 32" xmlns="http://www.w3.org/2000/svg">
  <g transform="matrix(0.0547, 0, 0, 0.0547, 0, 0)">
    <path d="M464.83, 55.14C461.23, 43.48 449.91, 36.04 438.65, 39.19C420.42, 44.31 400.91, 47.15 380.55, 47.15C331.43, 47.15 286.94, 31.08 254.38, 5.04C250.18, 1.68 245.09, 0 240, 0C234.91, 0 229.82, 1.68 225.63, 5.03C193.07, 31.07 148.58, 47.14 99.46, 47.14C79.1, 47.14 59.59, 44.3 41.36, 39.18C30.13, 36.03 18.79, 43.44 15.18, 55.13C-21.83, 175.11 -6.68, 410.34 240, 512C486.68, 410.34 501.84, 175.11 464.83, 55.14zM240, 441.87C115.27, 380.93 72.01, 279.56 64.76, 192L415.25, 192C407.99, 279.56 364.73, 380.93 240, 441.87z" fill="#727272" fill-opacity="1" class="Black" />
  </g>
</svg>