<?xml version='1.0' encoding='UTF-8'?>
<svg viewBox="-4 0 32 32" xmlns="http://www.w3.org/2000/svg">
  <g transform="matrix(0.0625, 0, 0, 0.0625, 0, 0)">
    <path d="M239.36, 320C324.48, 320 384, 260.542 384, 175.071C384, 89.6 324.48, 32 239.36, 32L76, 32C69.373, 32 64, 37.373 64, 44L64, 250.632L12, 250.632C5.373, 250.632 0, 256.005 0, 262.632L0, 308C0, 314.627 5.373, 320 12, 320L64, 320L64, 352L12, 352C5.373, 352 0, 357.373 0, 364L0, 404C0, 410.627 5.373, 416 12, 416L64, 416L64, 468C64, 474.627 69.373, 480 76, 480L134.56, 480C141.187, 480 146.56, 474.627 146.56, 468L146.56, 416L308, 416C314.627, 416 320, 410.627 320, 404L320, 364C320, 357.373 314.627, 352 308, 352L146.56, 352L146.56, 320L239.36, 320zM146.56, 100.748L225.28, 100.748C272, 100.748 300.16, 129.858 300.16, 175.071C300.16, 220.903 272, 250.632 224, 250.632L146.56, 250.632L146.56, 100.748z" fill="#727272" fill-opacity="1" class="Black" />
  </g>
</svg>