<?xml version='1.0' encoding='UTF-8'?>
<svg viewBox="-1.9999 -1.9999 32 32" xmlns="http://www.w3.org/2000/svg">
  <g transform="matrix(0.0547, 0, 0, 0.0547, 0, 0)">
    <path d="M501.65, 452.08L450.49, 400.92L411.92, 439.49C408.8, 442.61 403.73, 442.61 400.61, 439.49L389.3, 428.18C386.18, 425.06 386.18, 419.99 389.3, 416.87L427.87, 378.3L371.3, 321.73L332.73, 360.3C329.61, 363.42 324.54, 363.42 321.42, 360.3L310.11, 348.99C306.99, 345.87 306.99, 340.8 310.11, 337.68L348.68, 299.11L292.11, 242.54L253.54, 281.11C250.42, 284.23 245.35, 284.23 242.23, 281.11L230.92, 269.8C227.8, 266.68 227.8, 261.61 230.92, 258.49L269.49, 219.92L212.92, 163.35L174.35, 201.92C171.23, 205.04 166.16, 205.04 163.04, 201.92L151.73, 190.61C148.61, 187.49 148.61, 182.42 151.73, 179.3L190.3, 140.73L133.7, 84.14L95.13, 122.71C92.01, 125.83 86.94, 125.83 83.82, 122.71L72.51, 111.4C69.39, 108.28 69.39, 103.21 72.51, 100.09L111.08, 61.52L59.91, 10.35C52.76, 3.2 43.97, 0 35.35, 0C17.31, 0 0, 14.01 0, 35.17L0, 476.9C0, 496.29 15.71, 512 35.1, 512L476.83, 512C508.1, 512 523.76, 474.2 501.65, 452.08zM128, 384L128, 259.46L252.54, 384L128, 384z" fill="#727272" fill-opacity="1" class="Black" />
  </g>
</svg>