<?xml version='1.0' encoding='UTF-8'?>
<svg viewBox="-6 0 32 32" xmlns="http://www.w3.org/2000/svg">
  <g transform="matrix(0.0625, 0, 0, 0.0625, 0, 0)">
    <path d="M308, 96C314.627, 96 320, 90.627 320, 84L320, 44C320, 37.373 314.627, 32 308, 32L12, 32C5.373, 32 0, 37.373 0, 44L0, 88.748C0, 95.375 5.373, 100.748 12, 100.748L97.28, 100.748C124.588, 100.748 145.541, 110.706 158.25, 128L12, 128C5.373, 128 0, 133.373 0, 140L0, 180C0, 186.627 5.373, 192 12, 192L170.757, 192C164.54, 228.086 137.796, 250.632 96, 250.632L12, 250.632C5.373, 250.632 0, 256.005 0, 262.632L0, 315.644C0, 318.993 1.4, 322.19 3.861, 324.462L168.913, 476.818A12.001 12.001 0 0 0 177.052, 480L259.614, 480C270.538, 480 275.78, 466.592 267.753, 459.182L116.871, 319.906C193.37, 317.566 248.015, 266.511 255.189, 192L308, 192C314.627, 192 320, 186.627 320, 180L320, 140C320, 133.373 314.627, 128 308, 128L249.31, 128C245.824, 116.459 241.03, 105.754 235.058, 96L308, 96z" fill="#727272" fill-opacity="1" class="Black" />
  </g>
</svg>