<?xml version='1.0' encoding='UTF-8'?>
<svg viewBox="-2 -4.804 32 32" xmlns="http://www.w3.org/2000/svg">
  <g transform="matrix(1.001, 0, 0, 1.001, 0, 0)">
    <g transform="matrix(0.0437, 0, 0, 0.0437, 0, 0)">
      <path d="M621.3, 269.3L563, 211C551, 199 534.6, 192.2 517.6, 192.2L416, 192L416, 432L416.2, 432C416.3, 466.1 438.3, 498.3 471.1, 508.2C525.9, 524.8 576.1, 484.3 576.1, 432L576.1, 416L608.1, 416C625.7, 416 640.1, 401.6 640.1, 384L640.1, 314.5C640, 297.5 633.3, 281.3 621.3, 269.3zM496, 464C478.4, 464 464, 449.6 464, 432C464, 414.4 478.4, 400 496, 400C513.6, 400 528, 414.4 528, 432C528, 449.6 513.6, 464 496, 464zM480, 288L480, 240L517.5, 240C521.8, 240 525.8, 241.7 528.8, 244.7L572.1, 288L480, 288zM608, 127.2C607.6, 74.6 564.8, 32 512, 32L384, 32L384, 16C384, 7.2 376.8, 0 368, 0L240, 0C231.2, 0 224, 7.2 224, 16L224, 32L64, 32C28.7, 32 0, 60.7 0, 96L0, 293.5C0, 310.5 6.7, 326.8 18.7, 338.8L96, 416L96, 427.4C96, 469.2 126.1, 507.4 167.8, 511.5C215.7, 516.3 256, 478.8 256, 431.9L256, 415.9L384, 415.9L384, 160L576, 160C593.9, 160 608.1, 145.2 608, 127.2zM176, 464C158.4, 464 144, 449.6 144, 432C144, 414.4 158.4, 400 176, 400C193.6, 400 208, 414.4 208, 432C208, 449.6 193.6, 464 176, 464zM256, 208C256, 216.8 248.8, 224 240, 224L112, 224C103.2, 224 96, 216.8 96, 208L96, 144C96, 135.2 103.2, 128 112, 128L240, 128C248.8, 128 256, 135.2 256, 144L256, 208z" fill="#727272" fill-opacity="1" class="Black" />
    </g>
  </g>
</svg>