<?xml version='1.0' encoding='UTF-8'?>
<svg viewBox="-2.0075 -2.0037 31.9975 32" xmlns="http://www.w3.org/2000/svg">
  <g transform="matrix(0.0547, 0, 0, 0.0547, 0, 0)">
    <path d="M192, 96L320, 96L367.4, 24.88A16 16 0 0 0 354.09, 0L157.94, 0A16 16 0 0 0 144.63, 24.88zM320, 128L192, 128C-10.38, 243.4 0.09, 396.64 0.09, 416C0.09, 469 49.2, 512 109.77, 512L402.25, 512C462.83, 512 511.93, 469 511.93, 416C511.93, 397 521.28, 242.76 320, 128zM273.42, 406L273.42, 423.34A8.69 8.69 0 0 1 264.72, 431.96L247.31, 431.96A8.69 8.69 0 0 1 238.6, 423.34L238.6, 405.83A63.19 63.19 0 0 1 204.44, 393.66A8.55 8.55 0 0 1 203.78, 380.66L216.62, 368.6A8.92 8.92 0 0 1 227.62, 367.84A26.72 26.72 0 0 0 241.55, 371.84L272.13, 371.84C279.2, 371.84 284.97, 365.49 284.97, 357.62C284.97, 351.16 281.05, 345.56 275.39, 343.95L226.39, 329.41C206.15, 323.41 192, 304.21 192, 282.67C192, 256.29 212.68, 234.85 238.46, 234.1L238.46, 216.62A8.69 8.69 0 0 1 247.2, 208L264.61, 208A8.68 8.68 0 0 1 273.31, 216.62L273.31, 234.17A63.12 63.12 0 0 1 307.48, 246.34A8.55 8.55 0 0 1 308.13, 259.34L295.4, 271.54A8.92 8.92 0 0 1 284.4, 272.29A26.78 26.78 0 0 0 270.47, 268.29L239.91, 268.29C232.84, 268.29 227.07, 274.64 227.07, 282.5C227.07, 288.96 230.99, 294.56 236.64, 296.18L285.64, 310.72C305.88, 316.72 320.02, 335.92 320.02, 357.46C319.88, 383.86 299.1, 405.4 273.42, 406z" fill="#727272" fill-opacity="1" class="Black" />
  </g>
</svg>