<?xml version='1.0' encoding='UTF-8'?>
<svg viewBox="-1.9999 -1.549 31.9975 32" xmlns="http://www.w3.org/2000/svg">
  <g transform="matrix(0.999, 0, 0, 0.999, 0, 0)">
    <g transform="matrix(0.0565, 0, 0, 0.0565, 0, 0)">
      <path d="M248, 8C111, 8 0, 119 0, 256C0, 346.1 48.2, 424.7 120, 468.1L120, 288C120, 279.2 127.2, 272 136, 272C144.8, 272 152, 279.2 152, 288L152, 484.7C181.5, 497.1 214, 504 248, 504C282, 504 314.5, 497.1 344, 484.7L344, 288C344, 279.2 351.2, 272 360, 272C368.8, 272 376, 279.2 376, 288L376, 468.1C447.8, 424.7 496, 346 496, 256C496, 119 385, 8 248, 8zM182.5, 224.5C167.7, 211.3 136.3, 211.3 121.5, 224.5L112, 233C108.2, 236.3 102.7, 237 98.3, 234.6C93.9, 232.2 91.4, 227.2 92.2, 222.2C96.2, 197 126.4, 180.1 152.1, 180.1C177.8, 180.1 208, 197 212, 222.2C212.8, 227.2 210.3, 232.2 205.9, 234.6C200.1, 237.7 194.7, 235.3 192.2, 233L182.5, 224.5zM248, 416C221.5, 416 200, 387.3 200, 352C200, 316.7 221.5, 288 248, 288C274.5, 288 296, 316.7 296, 352C296, 387.3 274.5, 416 248, 416zM397.8, 234.5C392, 237.6 386.6, 235.2 384.1, 232.9L374.6, 224.4C359.8, 211.2 328.4, 211.2 313.6, 224.4L304, 233C300.2, 236.3 294.7, 237 290.3, 234.6C285.9, 232.2 283.4, 227.2 284.2, 222.2C288.2, 197 318.4, 180.1 344.1, 180.1C369.8, 180.1 400, 197 404, 222.2C404.6, 227.1 402.2, 232.1 397.8, 234.5z" fill="#727272" fill-opacity="1" class="Black" />
    </g>
  </g>
</svg>