<?xml version='1.0' encoding='UTF-8'?>
<svg viewBox="-2.0075 -2 32 32" xmlns="http://www.w3.org/2000/svg">
  <g transform="matrix(0.0547, 0, 0, 0.0547, 0, 0)">
    <path d="M96, 256L169.37, 256L82.37, 169A8 8 0 0 1 82.37, 157.69L93.69, 146.37A8 8 0 0 1 105, 146.37L208, 249.37L208, 104A8 8 0 0 1 216, 96L232, 96A8 8 0 0 1 240, 104L240, 256L292.54, 256A126.72 126.72 0 0 1 288, 224A128.14 128.14 0 0 1 416, 96C418.65, 96 421.12, 96.62 423.73, 96.78C406.14, 76.84 380.69, 64 352, 64A95 95 0 0 0 326.85, 67.75A111.94 111.94 0 0 0 121.15, 67.75A95 95 0 0 0 96, 64A96 96 0 0 0 96, 256zM320, 224A95 95 0 0 0 325.88, 256L495.17, 256A47.88 47.88 0 0 1 505.74, 257.24A95.87 95.87 0 1 0 320, 224zM495.17, 288L16.17, 288C7, 288 -0.74, 295.72 0.06, 304.84C6.69, 381.21 58.27, 444.23 128, 468.69L128, 480A32 32 0 0 0 160, 512L352, 512A32 32 0 0 0 384, 480L384, 468.49C453.4, 443.87 504.66, 381 511.27, 304.84C512.06, 295.72 504.32, 288 495.17, 288z" fill="#727272" fill-opacity="1" class="Black" />
  </g>
</svg>