<?xml version='1.0' encoding='UTF-8'?>
<svg viewBox="-2 -4.7992 32 32" xmlns="http://www.w3.org/2000/svg">
  <g transform="matrix(0.9988, 0, 0, 0.9988, 0, 0)">
    <g transform="matrix(0.0438, 0, 0, 0.0438, 0, 0)">
      <path d="M83.23, 176A60.88 60.88 0 0 1 72, 140.8C72, 133.18 80.66, 110.5 100.46, 83.26Q102.46, 85.87 104.35, 88.48L147, 147.26L174.06, 114.18C180.13, 126.28 183.6, 136.42 183.98, 140.8A60.88 60.88 0 0 1 172.77, 176L234.11, 176A117 117 0 0 0 240, 140.8C240, 114.17 214, 59.23 177.77, 25.6A301.94 301.94 0 0 0 149.67, 55.6A387.31 387.31 0 0 0 100, 0C50.88, 45.58 16, 105 16, 140.8A117 117 0 0 0 21.89, 176zM635.28, 100.69L608, 73.37A32 32 0 0 0 585.34, 64L538.51, 64A64 64 0 0 0 493.25, 82.74L449, 127L438.66, 116.66A16 16 0 0 0 416.03, 116.66L404.69, 128A16 16 0 0 0 404.69, 150.63L415, 161L401, 175L390.66, 164.66A16 16 0 0 0 368.03, 164.66L356.69, 176A16 16 0 0 0 356.69, 198.63L367, 209L353, 223L342.66, 212.66A16 16 0 0 0 320.03, 212.66L308.69, 224A16 16 0 0 0 308.69, 246.63L319, 257L210, 366A25.41 25.41 0 0 1 170.24, 335L217.63, 256L240, 256A16 16 0 0 0 256, 240L256, 224A16 16 0 0 0 240, 208L16, 208A16 16 0 0 0 0, 224L0, 240A15.91 15.91 0 0 0 15.21, 255.84C7.48, 288.56 0, 326.72 0, 352C0, 413.4 35, 466.09 85.73, 492.92A150 150 0 0 0 160, 512C237.1, 512 276.46, 460.67 288, 448L534.39, 140A32 32 0 0 1 559.39, 128L624, 128C638.22, 128 645.36, 110.77 635.28, 100.69zM88, 392A24 24 0 1 1 112, 368A24 24 0 0 1 88, 392zM120, 304A24 24 0 1 1 144, 280A24 24 0 0 1 120, 304z" fill="#727272" fill-opacity="1" class="Black" />
    </g>
  </g>
</svg>