<?xml version='1.0' encoding='UTF-8'?>
<svg viewBox="-2 -4.7992 32 32" xmlns="http://www.w3.org/2000/svg">
  <g transform="matrix(0.9988, 0, 0, 0.9988, 0, 0)">
    <g transform="matrix(0.0438, 0, 0, 0.0438, 0, 0)">
      <path d="M635.28, 68.69L608, 41.37A32 32 0 0 0 585.34, 32L538.51, 32A64 64 0 0 0 493.25, 50.74L449, 95L438.63, 84.69A16 16 0 0 0 416, 84.69L404.69, 96A16 16 0 0 0 404.69, 118.63L415, 129L401, 143L390.66, 132.66A16 16 0 0 0 368.03, 132.66L356.69, 144A16 16 0 0 0 356.69, 166.63L367, 177L353, 191L342.66, 180.66A16 16 0 0 0 320.03, 180.66L308.69, 192A16 16 0 0 0 308.69, 214.63L319, 225L210, 334A25.41 25.41 0 0 1 170.24, 303L246.4, 176L272, 176A16 16 0 0 0 288, 160L288, 144A16 16 0 0 0 272, 128L16, 128A16 16 0 0 0 0, 144L0, 160A16 16 0 0 0 16, 176L27.46, 176C18.65, 207.92 0, 280.13 0, 320C0, 381.4 35, 434.09 85.73, 460.92A150 150 0 0 0 160, 480C237.1, 480 276.46, 428.67 288, 416L534.39, 108A32 32 0 0 1 559.39, 96L624, 96C638.22, 96 645.36, 78.77 635.28, 68.69zM96, 344A24 24 0 1 1 120, 320A24 24 0 0 1 96, 344zM128, 248A24 24 0 1 1 152, 224A24 24 0 0 1 128, 248z" fill="#727272" fill-opacity="1" class="Black" />
    </g>
  </g>
</svg>