<?xml version='1.0' encoding='UTF-8'?>
<svg viewBox="-2 -4.798 32 32" xmlns="http://www.w3.org/2000/svg">
  <g transform="matrix(0.9988, 0, 0, 0.9988, 0, 0)">
    <g transform="matrix(0.0438, 0, 0, 0.0438, 0, 0)">
      <path d="M312, 480L232, 480C227.58, 480 224, 483.58 224, 488L224, 504C224, 508.42 227.58, 512 232, 512L312, 512C316.42, 512 320, 508.42 320, 504L320, 488C320, 483.58 316.42, 480 312, 480zM472, 480L392, 480C387.58, 480 384, 483.58 384, 488L384, 504C384, 508.42 387.58, 512 392, 512L472, 512C476.42, 512 480, 508.42 480, 504L480, 488C480, 483.58 476.42, 480 472, 480zM632, 480L552, 480C547.58, 480 544, 483.58 544, 488L544, 504C544, 508.42 547.58, 512 552, 512L632, 512C636.42, 512 640, 508.42 640, 504L640, 488C640, 483.58 636.42, 480 632, 480zM234.88, 430.36C266.25, 404.65 281.6, 366.43 281.6, 328.04L281.6, 320L176, 320L0, 512C87, 512.07 170.28, 482.82 234.29, 430.84C234.49, 430.68 234.68, 430.52 234.88, 430.36zM482.71, 11.85C453.51, -8.98 412.53, -1.18 389.22, 26.07L187.72, 261.53C178.82, 271.94 186.21, 287.99 199.91, 287.99L331.85, 287.99C341.22, 287.99 350.13, 283.89 356.22, 276.77L495.24, 114.33C521.6, 83.54 516.46, 35.93 482.71, 11.85z" fill="#727272" fill-opacity="1" class="Black" />
    </g>
  </g>
</svg>