<?xml version='1.0' encoding='UTF-8'?>
<svg viewBox="-1.9998 -3.5563 31.9975 32" xmlns="http://www.w3.org/2000/svg">
  <g transform="matrix(0.0486, 0, 0, 0.0486, 0, 0)">
    <path d="M400, 96L16, 96C7.2, 96 0, 103.2 0, 112L0, 249.4C0, 253.6 1.7, 257.7 4.7, 260.7L32, 288L32, 464C32, 490.5 53.5, 512 80, 512L336, 512C362.5, 512 384, 490.5 384, 464L384, 288L411.3, 260.7C414.3, 257.7 416, 253.6 416, 249.4L416, 112C416, 103.2 408.8, 96 400, 96zM192, 440C192, 444.4 188.4, 448 184, 448L104, 448C99.6, 448 96, 444.4 96, 440L96, 392C96, 387.6 99.6, 384 104, 384L184, 384C188.4, 384 192, 387.6 192, 392L192, 440zM192, 344C192, 348.4 188.4, 352 184, 352L104, 352C99.6, 352 96, 348.4 96, 344L96, 296C96, 291.6 99.6, 288 104, 288L184, 288C188.4, 288 192, 291.6 192, 296L192, 344zM320, 440C320, 444.4 316.4, 448 312, 448L232, 448C227.6, 448 224, 444.4 224, 440L224, 392C224, 387.6 227.6, 384 232, 384L312, 384C316.4, 384 320, 387.6 320, 392L320, 440zM320, 344C320, 348.4 316.4, 352 312, 352L232, 352C227.6, 352 224, 348.4 224, 344L224, 296C224, 291.6 227.6, 288 232, 288L312, 288C316.4, 288 320, 291.6 320, 296L320, 344zM352, 216C352, 220.4 348.4, 224 344, 224L72, 224C67.6, 224 64, 220.4 64, 216L64, 168C64, 163.6 67.6, 160 72, 160L344, 160C348.4, 160 352, 163.6 352, 168L352, 216zM256, 8C256, 3.6 252.4, 0 248, 0L200, 0C195.6, 0 192, 3.6 192, 8L192, 64L256, 64L256, 8zM408, 0L360, 0C355.6, 0 352, 3.6 352, 8L352, 64L416, 64L416, 8C416, 3.6 412.4, 0 408, 0zM568, 0L520, 0C515.6, 0 512, 3.6 512, 8L512, 280C512, 284.4 515.6, 288 520, 288L568, 288C572.4, 288 576, 284.4 576, 280L576, 8C576, 3.6 572.4, 0 568, 0zM320, 8C320, 3.6 316.4, 0 312, 0L296, 0C291.6, 0 288, 3.6 288, 8L288, 64L320, 64L320, 8zM472, 0L456, 0C451.6, 0 448, 3.6 448, 8L448, 280C448, 284.4 451.6, 288 456, 288L472, 288C476.4, 288 480, 284.4 480, 280L480, 8C480, 3.6 476.4, 0 472, 0z" fill="#727272" fill-opacity="1" class="Black" />
  </g>
</svg>