<?xml version='1.0' encoding='UTF-8'?>
<svg viewBox="-1.9999 -4.7979 32 31.9975" xmlns="http://www.w3.org/2000/svg">
  <g transform="matrix(1.0011, 0, 0, 1.0011, 0, 0)">
    <g transform="matrix(0.0437, 0, 0, 0.0437, 0, 0)">
      <path d="M10.93, 108.71L467.65, 256L635.24, 256L639.17, 244.25A16 16 0 0 0 629.07, 224L36.3, 32.83A16 16 0 0 0 16.06, 42.93L0.83, 88.46A16 16 0 0 0 10.93, 108.71zM32, 288A32 32 0 0 0 0, 320L0, 448A32 32 0 0 0 32, 480L608, 480A32 32 0 0 0 640, 448L640, 288zM120, 400A8 8 0 0 1 112, 408L80, 408A8 8 0 0 1 72, 400L72, 368A8 8 0 0 1 80, 360L112, 360A8 8 0 0 1 120, 368zM216, 400A8 8 0 0 1 208, 408L176, 408A8 8 0 0 1 168, 400L168, 368A8 8 0 0 1 176, 360L208, 360A8 8 0 0 1 216, 368z" fill="#727272" fill-opacity="1" class="Black" />
    </g>
  </g>
</svg>