<?xml version='1.0' encoding='UTF-8'?>
<svg viewBox="-1.9988 -2 32 32" xmlns="http://www.w3.org/2000/svg">
  <g transform="matrix(0.0547, 0, 0, 0.0547, 0, 0)">
    <path d="M448, 0L320, 96L320, 158.06L236.97, 241.09C243.76, 245.34 250.24, 250.15 256.04, 255.96C261.84, 261.76 266.66, 268.24 270.91, 275.03L353.94, 192L416, 192L512, 64L448, 0zM128, 278.59L10.92, 395.67C-3.63, 410.22 -3.63, 433.82 10.92, 448.38L63.62, 501.08C78.18, 515.64 101.77, 515.64 116.33, 501.08L233.41, 384C262.52, 354.89 262.52, 307.7 233.41, 278.59C204.3, 249.48 157.11, 249.48 128, 278.59z" fill="#727272" fill-opacity="1" class="Black" />
  </g>
</svg>