<?xml version='1.0' encoding='UTF-8'?>
<svg viewBox="-2 -4.7992 32 32" xmlns="http://www.w3.org/2000/svg">
  <g transform="matrix(0.9988, 0, 0, 0.9988, 0, 0)">
    <g transform="matrix(0.0438, 0, 0, 0.0438, 0, 0)">
      <path d="M48, 0C21.53, 0 0, 21.53 0, 48L0, 112C0, 120.84 7.16, 128 16, 128L96, 128L96, 48C96, 21.53 74.47, 0 48, 0zM256, 412.57L256, 352L544, 352L544, 96C544, 43.06 500.94, 0 448, 0L111.59, 0C121.74, 13.41 128, 29.92 128, 48L128, 416C128, 454.87 162.65, 485.65 202.75, 479.12C234.22, 474 256, 444.46 256, 412.57zM288, 384L288, 416C288, 468.93 244.94, 512 192, 512L528, 512C589.86, 512 640, 461.86 640, 400C640, 391.16 632.84, 384 624, 384L288, 384z" fill="#727272" fill-opacity="1" class="Black" />
    </g>
  </g>
</svg>