<?xml version='1.0' encoding='UTF-8'?>
<svg viewBox="-1.9999 -1.549 31.9975 32" xmlns="http://www.w3.org/2000/svg">
  <g transform="matrix(0.999, 0, 0, 0.999, 0, 0)">
    <g transform="matrix(0.0565, 0, 0, 0.0565, 0, 0)">
      <path d="M248, 8C111, 8 0, 119 0, 256C0, 393 111, 504 248, 504C385, 504 496, 393 496, 256C496, 119 385, 8 248, 8zM248, 320C212.7, 320 184, 291.3 184, 256C184, 220.7 212.7, 192 248, 192C283.3, 192 312, 220.7 312, 256C312, 291.3 283.3, 320 248, 320z" fill="#727272" fill-opacity="1" class="Black" />
    </g>
  </g>
</svg>