<?xml version='1.0' encoding='UTF-8'?>
<svg viewBox="-1.9999 -4.8014 31.9975 32" xmlns="http://www.w3.org/2000/svg">
  <g transform="matrix(1.001, 0, 0, 1.001, 0, 0)">
    <g transform="matrix(0.0437, 0, 0, 0.0437, 0, 0)">
      <path d="M608, 0L582.55, 0L522.81, 288L400, 288A16 16 0 0 0 384, 304L384, 336A16 16 0 0 0 400, 352L509.54, 352L480.28, 493.05A16 16 0 0 0 496, 512L527.45, 512A16 16 0 0 0 543.17, 499L639.44, 38A32 32 0 0 0 608, 0zM549.87, 0L338.87, 0C192, 0 64, 64 0, 192L510, 192z" fill="#727272" fill-opacity="1" class="Black" />
    </g>
  </g>
</svg>