<?xml version='1.0' encoding='UTF-8'?>
<svg viewBox="-2 -1.9988 32 32" xmlns="http://www.w3.org/2000/svg">
  <g transform="matrix(0.0547, 0, 0, 0.0547, 0, 0)">
    <path d="M64, 96L0, 96C0, 219.7 100.3, 320 224, 320L224, 464C224, 472.8 231.2, 480 240, 480L272, 480C280.8, 480 288, 472.8 288, 464L288, 320C288, 196.3 187.7, 96 64, 96zM448, 32C363.8, 32 290.6, 78.5 252.3, 147.2C280, 177.4 300.5, 214.1 311.3, 254.8C424, 243.1 512, 147.9 512, 32L448, 32z" fill="#727272" fill-opacity="1" class="Black" />
  </g>
</svg>