<?xml version='1.0' encoding='UTF-8'?>
<svg viewBox="-2 -2 32 32" xmlns="http://www.w3.org/2000/svg">
  <g transform="matrix(0.0547, 0, 0, 0.0547, 0, 0)">
    <path d="M464, 160L208, 160A48 48 0 0 0 160, 208L160, 464A48 48 0 0 0 208, 512L464, 512A48 48 0 0 0 512, 464L512, 464L512, 208A48 48 0 0 0 464, 160zM448, 448L224, 448L224, 224L448, 224zM352, 128L352, 48A48 48 0 0 0 304, 0L48, 0A48 48 0 0 0 0, 48L0, 304A48 48 0 0 0 48, 352L128, 352L128, 208A80.09 80.09 0 0 1 208, 128z" fill="#727272" fill-opacity="1" class="Black" />
  </g>
</svg>