<?xml version='1.0' encoding='UTF-8'?>
<svg viewBox="-2 -3.554 32 32" xmlns="http://www.w3.org/2000/svg">
  <g transform="matrix(0.0486, 0, 0, 0.0486, 0, 0)">
    <path d="M568.482, 177.448L424.479, 313.433C409.3, 327.768 384, 317.14 384, 295.985L384, 224.022C239.425, 224.992 178.434, 259.135 219.225, 395.375C223.708, 410.348 206.379, 421.942 194.219, 412.705C155.252, 383.105 120, 326.488 120, 269.339C120, 125.402 237.599, 96.839 384, 96.027L384, 24.012C384, 2.838 409.317, -7.756 424.479, 6.564L568.482, 142.552C578.502, 152.015 578.51, 167.977 568.482, 177.448zM384, 379.128L384, 448L64, 448L64, 128L114.916, 128A11.99 11.99 0 0 0 123.564, 124.307C138.517, 108.739 155.801, 96.417 174.578, 86.631C185.708, 80.83 181.584, 64 169.033, 64L48, 64C21.49, 64 0, 85.49 0, 112L0, 464C0, 490.51 21.49, 512 48, 512L400, 512C426.51, 512 448, 490.51 448, 464L448, 375.194C448, 366.906 439.803, 361.128 431.989, 363.892A71.83 71.83 0 0 1 397.8, 367.269C390.53, 366.223 384, 371.783 384, 379.128z" fill="#727272" fill-opacity="1" class="Black" />
  </g>
</svg>