<?xml version='1.0' encoding='UTF-8'?>
<svg viewBox="-2 0 32 32" xmlns="http://www.w3.org/2000/svg">
  <g transform="matrix(0.0625, 0, 0, 0.0625, 0, 0)">
    <path d="M448, 80L448, 432C448, 458.51 426.51, 480 400, 480L48, 480C21.49, 480 0, 458.51 0, 432L0, 80C0, 53.49 21.49, 32 48, 32L400, 32C426.51, 32 448, 53.49 448, 80zM304, 296C289.438, 296 276.177, 301.561 266.217, 310.671L198.259, 269.896A56.339 56.339 0 0 0 198.259, 242.103L266.217, 201.328C276.177, 210.439 289.438, 216 304, 216C334.928, 216 360, 190.928 360, 160C360, 129.072 334.928, 104 304, 104C273.072, 104 248, 129.072 248, 160C248, 164.797 248.605, 169.453 249.74, 173.897L181.782, 214.672C171.823, 205.561 158.562, 200 144, 200C113.072, 200 88, 225.072 88, 256C88, 286.928 113.072, 312 144, 312C158.562, 312 171.823, 306.439 181.783, 297.329L249.741, 338.104A56.088 56.088 0 0 0 248.001, 352.001C248.001, 382.929 273.073, 408.001 304.001, 408.001C334.929, 408.001 360.001, 382.929 360.001, 352.001C360, 321.072 334.928, 296 304, 296z" fill="#727272" fill-opacity="1" class="Black" />
  </g>
</svg>