<?xml version='1.0' encoding='UTF-8'?>
<svg viewBox="-1.9999 -4.8014 31.9975 32" xmlns="http://www.w3.org/2000/svg">
  <g transform="matrix(1.001, 0, 0, 1.001, 0, 0)">
    <g transform="matrix(0.0437, 0, 0, 0.0437, 0, 0)">
      <path d="M622.25, 105.96L576, 83.22L576, 64C576, 46.33 561.67, 32 544, 32L480, 32C480, 14.33 465.67, 0 448, 0C430.33, 0 416, 14.33 416, 32L416, 108.82C398.47, 92.9 368.93, 92.96 351.38, 109.24C342.78, 101.08 331.22, 96 318.39, 96C305.92, 96 294.39, 100.8 285.75, 108.8C277.11, 100.8 265.92, 96 253.11, 96C240.64, 96 229.11, 100.8 220.8, 108.8C212.16, 100.8 200.64, 96 188.16, 96C175.04, 96 163.19, 101.44 154.55, 109.75C143.36, 100.47 128.32, 96 112.96, 99.52C95.37, 103.36 81.93, 116.47 77.12, 132.8C60.48, 129.92 42.89, 136 31.68, 150.08C20.16, 164.16 18.24, 182.72 24.65, 198.39C9.92, 206.72 0, 222.39 0, 240.31C0, 258.54 10.23, 274.23 24.95, 282.23C18.54, 297.92 20.79, 316.46 32, 330.54C43.52, 344.63 61.11, 350.71 77.75, 347.82C81.83, 361.43 92.39, 372.58 106.22, 378.09L100.08, 394.47A63.973 63.973 0 0 0 97.92, 432.47L114.77, 499.88A16.002 16.002 0 0 0 130.29, 512L196.25, 512C206.66, 512 214.3, 502.22 211.77, 492.12L193.46, 418.86L208.22, 379.5C212.95, 377.35 217.44, 374.72 221.12, 371.19C229.76, 379.19 241.29, 384 253.76, 384C266.24, 384 277.76, 379.19 286.4, 371.19C295.04, 379.19 306.24, 384 319.04, 384C331.56, 384 342.91, 379.02 351.43, 371.03C351.6, 371.19 351.83, 371.24 352, 371.4L352, 496C352, 504.84 359.16, 512 368, 512L432, 512C440.84, 512 448, 504.84 448, 496L448, 330.67L483.5, 307A64.009 64.009 0 0 0 512, 253.75L512, 192L599.66, 192C608.92, 192 617.42, 187.1 622.03, 179.06C629.62, 165.8 640.01, 145.61 640.01, 134.47A31.798 31.798 0 0 0 622.25, 105.96zM512, 112C503.16, 112 496, 104.84 496, 96C496, 87.16 503.16, 80 512, 80C520.84, 80 528, 87.16 528, 96C528, 104.84 520.84, 112 512, 112z" fill="#727272" fill-opacity="1" class="Black" />
    </g>
  </g>
</svg>