<?xml version='1.0' encoding='UTF-8'?>
<svg viewBox="-3.7484 -1.9975 32 32" xmlns="http://www.w3.org/2000/svg">
  <g transform="matrix(0.0547, 0, 0, 0.0547, 0, 0)">
    <path d="M420.43, 83.69L241.23, 3.69C230.2, -1.23 217.8, -1.23 206.77, 3.69L27.57, 83.69C10.88, 91.14 0, 108.62 0, 128C0, 326.49 106.86, 463.71 206.77, 508.31C217.8, 513.23 230.2, 513.23 241.23, 508.31C321.13, 472.64 448, 349.28 448, 128C448, 108.62 437.12, 91.14 420.43, 83.69zM374.09, 224L256, 224L256, 424.27C244.66, 433.19 233.74, 440.39 223.93, 445.57C213.25, 440.06 202.57, 432.91 192, 424.76L192, 224L74.8, 224C70.41, 203.75 67.43, 182.42 65.9, 160L192, 160L192, 80.37L224, 66.08L256, 80.37L256, 160L382.74, 160C381.27, 182.72 378.34, 204.07 374.09, 224z" fill="#727272" fill-opacity="1" class="Black" />
  </g>
</svg>