<?xml version='1.0' encoding='UTF-8'?>
<svg viewBox="-1.9962 -1.9975 32 32" xmlns="http://www.w3.org/2000/svg">
  <g transform="matrix(0.0547, 0, 0, 0.0547, 0, 0)">
    <path d="M466.5, 83.7L274.5, 3.7A48.15 48.15 0 0 0 237.6, 3.7L45.6, 83.7C27.7, 91.1 16, 108.6 16, 128C16, 326.5 130.5, 463.7 237.5, 508.3C249.3, 513.2 262.6, 513.2 274.4, 508.3C360.1, 472.6 496, 349.3 496, 128C496, 108.6 484.3, 91.1 466.5, 83.7zM419.3, 197.9L235.3, 381.9C229.1, 388.1 218.9, 388.1 212.7, 381.9L108.7, 277.9C102.5, 271.7 102.5, 261.5 108.7, 255.3L131.3, 232.7C137.5, 226.5 147.7, 226.5 153.9, 232.7L224, 302.8L374.1, 152.7C380.3, 146.5 390.5, 146.5 396.7, 152.7L419.3, 175.3C425.6, 181.6 425.6, 191.7 419.3, 197.9z" fill="#727272" fill-opacity="1" class="Black" />
  </g>
</svg>