<?xml version='1.0' encoding='UTF-8'?>
<svg viewBox="-1.9999 -4.8004 32 32" xmlns="http://www.w3.org/2000/svg">
  <g transform="matrix(1.0011, 0, 0, 1.0011, 0, 0)">
    <g transform="matrix(0.0437, 0, 0, 0.0437, 0, 0)">
      <path d="M496.616, 372.639L566.628, 302.627C583.527, 285.727 576.57, 256.856 553.792, 249.535L512, 236.102L512, 96C512, 78.327 497.673, 64 480, 64L416, 64L416, 24C416, 10.745 405.255, 0 392, 0L248, 0C234.745, 0 224, 10.745 224, 24L224, 64L160, 64C142.327, 64 128, 78.327 128, 96L128, 236.102L86.208, 249.535C63.455, 256.848 56.454, 285.708 73.372, 302.627L143.384, 372.639C125.828, 416.287 85.587, 448 24, 448C10.745, 448 0, 458.745 0, 472L0, 488C0, 501.255 10.745, 512 24, 512C85.023, 512 131.499, 491.39 167.258, 452.604C181.677, 487.432 216.021, 512 256, 512L384, 512C423.979, 512 458.323, 487.432 472.742, 452.604C508.495, 491.384 554.968, 512 616, 512C629.255, 512 640, 501.255 640, 488L640, 472C640, 458.745 629.255, 448 616, 448C555.183, 448 514.458, 416.999 496.616, 372.639zM192, 128L448, 128L448, 215.531L329.792, 177.536A31.995 31.995 0 0 0 310.208, 177.536L192, 215.531L192, 128z" fill="#727272" fill-opacity="1" class="Black" />
    </g>
  </g>
</svg>