<?xml version='1.0' encoding='UTF-8'?>
<svg viewBox="-2 -4.7992 32 32" xmlns="http://www.w3.org/2000/svg">
  <g transform="matrix(0.9988, 0, 0, 0.9988, 0, 0)">
    <g transform="matrix(0.0438, 0, 0, 0.0438, 0, 0)">
      <path d="M624, 352L608, 352L608, 243.9C608, 231.2 602.9, 219 593.9, 210L494, 110.1C485, 101.1 472.8, 96 460.1, 96L416, 96L416, 48C416, 21.5 394.5, 0 368, 0L112, 0C85.5, 0 64, 21.5 64, 48L64, 96L8, 96C3.6, 96 0, 99.6 0, 104L0, 120C0, 124.4 3.6, 128 8, 128L280, 128C284.4, 128 288, 131.6 288, 136L288, 152C288, 156.4 284.4, 160 280, 160L40, 160C35.6, 160 32, 163.6 32, 168L32, 184C32, 188.4 35.6, 192 40, 192L248, 192C252.4, 192 256, 195.6 256, 200L256, 216C256, 220.4 252.4, 224 248, 224L8, 224C3.6, 224 0, 227.6 0, 232L0, 248C0, 252.4 3.6, 256 8, 256L216, 256C220.4, 256 224, 259.6 224, 264L224, 280C224, 284.4 220.4, 288 216, 288L64, 288L64, 416C64, 469 107, 512 160, 512C213, 512 256, 469 256, 416L384, 416C384, 469 427, 512 480, 512C533, 512 576, 469 576, 416L624, 416C632.8, 416 640, 408.8 640, 400L640, 368C640, 359.2 632.8, 352 624, 352zM160, 464C133.5, 464 112, 442.5 112, 416C112, 389.5 133.5, 368 160, 368C186.5, 368 208, 389.5 208, 416C208, 442.5 186.5, 464 160, 464zM480, 464C453.5, 464 432, 442.5 432, 416C432, 389.5 453.5, 368 480, 368C506.5, 368 528, 389.5 528, 416C528, 442.5 506.5, 464 480, 464zM560, 256L416, 256L416, 144L460.1, 144L560, 243.9L560, 256z" fill="#727272" fill-opacity="1" class="Black" />
    </g>
  </g>
</svg>