<?xml version='1.0' encoding='UTF-8'?>
<svg viewBox="-1.9998 -4.7989 31.9975 32" xmlns="http://www.w3.org/2000/svg">
  <g transform="matrix(0.9988, 0, 0, 0.9988, 0, 0)">
    <g transform="matrix(0.0438, 0, 0, 0.0438, 0, 0)">
      <path d="M192, 160L224, 160L224, 32L192, 32C156.65, 32 128, 60.65 128, 96C128, 131.35 156.65, 160 192, 160zM0, 416C0, 451.35 28.65, 480 64, 480L96, 480L96, 352L64, 352C28.65, 352 0, 380.65 0, 416zM337.46, 288C302.55, 288 261.3, 301.12 232.73, 320C207.94, 336.38 188.21, 352 128, 352L128, 480L185.53, 495.97C211.74, 503.25 238.54, 509.09 265.84, 511.02C298.53, 513.33 331.44, 511.69 363.42, 504.82C472.9, 481.3 512, 429.22 512, 384C512, 320 427.82, 288 337.46, 288zM491.42, 7.19C459.44, 0.32 426.53, -1.33 393.84, 0.99C366.54, 2.92 339.74, 8.76 313.53, 16.03L256, 32L256, 160C316.2, 160 335.94, 175.62 360.73, 192C389.3, 210.88 430.55, 224 465.46, 224C555.82, 224 640, 192 640, 128C640, 82.78 600.9, 30.7 491.42, 7.19z" fill="#727272" fill-opacity="1" class="Black" />
    </g>
  </g>
</svg>