<?xml version='1.0' encoding='UTF-8'?>
<svg viewBox="-2 -2 32 32" xmlns="http://www.w3.org/2000/svg">
  <g transform="matrix(0.0547, 0, 0, 0.0547, 0, 0)">
    <path d="M500.3, 96.38L415.62, 11.7C400.03, -3.89 374.65, -3.89 359.06, 11.7L326.39, 44.37C307.45, 63.31 297.14, 88.68 297.14, 114.92C297.14, 121.45 297.78, 128.05 299.09, 134.61C300.83, 143.3 303.84, 151.45 307.62, 159.14L197.36, 269.39L152.1, 224.13C139.6, 211.63 119.34, 211.63 106.85, 224.13L38.97, 292.01C-11.02, 342 -6.29, 473.03 16.34, 495.66C38.97, 518.29 170, 523.02 219.99, 473.03L287.87, 405.15C300.37, 392.65 300.37, 372.39 287.87, 359.9L242.61, 314.64L352.87, 204.38C360.57, 208.17 368.74, 211.18 377.44, 212.92C410.25, 219.48 443.97, 209.28 467.63, 185.62L500.3, 152.95C515.9, 137.35 515.9, 111.98 500.3, 96.38zM422.38, 140.37A35.87 35.87 0 0 1 389.96, 150.17C375.73, 147.31 364.69, 136.26 361.83, 122C359.5, 110.17 363.14, 98.09 371.63, 89.62L387.33, 73.92L438.08, 124.67L422.38, 140.37z" fill="#727272" fill-opacity="1" class="Black" />
  </g>
</svg>