<?xml version='1.0' encoding='UTF-8'?>
<svg viewBox="-1.995 -1.9987 31.9975 32" xmlns="http://www.w3.org/2000/svg">
  <g transform="matrix(0.0547, 0, 0, 0.0547, 0, 0)">
    <path d="M503.2, 72.3L439.7, 8.8C428, -2.9 409, -2.9 397.3, 8.8L372.8, 33.3C358.6, 47.5 350.9, 66.5 350.9, 86.2C350.9, 91.1 351.4, 96 352.4, 101C353.7, 107.5 356, 113.6 358.8, 119.4L259.5, 218.7L210.2, 169.4C198.9, 158.1 180.9, 156.9 168.3, 166.7L12.4, 287C-2.8, 298.7 -4.2, 321.1 9.4, 334.6L177.4, 502.6C191, 516.2 213.3, 514.7 225, 499.6L345.4, 343.8C355.2, 331.1 354, 313.2 342.7, 301.9L293.4, 252.6L392.7, 153.3C398.5, 156.1 404.6, 158.4 411.1, 159.7C435.7, 164.6 461, 157 478.7, 139.2L503.2, 114.7C514.9, 103 514.9, 84 503.2, 72.3zM112, 352C107.9, 352 103.8, 350.4 100.7, 347.3C94.5, 341.1 94.5, 330.9 100.7, 324.7L180.7, 244.7C186.9, 238.4 197.1, 238.4 203.3, 244.7C209.5, 250.9 209.5, 261.1 203.3, 267.3L123.3, 347.3C120.2, 350.4 116.1, 352 112, 352zM267.3, 331.3L187.3, 411.3C184.2, 414.4 180.1, 416 176, 416C171.9, 416 167.8, 414.4 164.7, 411.3C158.5, 405.1 158.5, 394.9 164.7, 388.7L244.7, 308.7C250.9, 302.5 261.1, 302.5 267.3, 308.7C273.5, 314.9 273.6, 325.1 267.3, 331.3zM444.8, 105.3C438.4, 111.7 429.3, 114.4 420.5, 112.6C409.8, 110.5 401.5, 102.2 399.4, 91.5C397.7, 82.6 400.4, 73.6 406.7, 67.2L418.5, 55.4L456.6, 93.5L444.8, 105.3z" fill="#727272" fill-opacity="1" class="Black" />
  </g>
</svg>