<?xml version='1.0' encoding='UTF-8'?>
<svg viewBox="-2 -2 32 32" xmlns="http://www.w3.org/2000/svg">
  <g transform="matrix(0.0547, 0, 0, 0.0547, 0, 0)">
    <path d="M232, 496C232, 504.84 239.16, 512 248, 512L264, 512C272.84, 512 280, 504.84 280, 496L280, 416L232, 416L232, 496zM136, 496C136, 504.84 143.16, 512 152, 512L168, 512C176.84, 512 184, 504.84 184, 496L184, 416L136, 416L136, 496zM40, 496C40, 504.84 47.16, 512 56, 512L72, 512C80.84, 512 88, 504.84 88, 496L88, 416L40, 416L40, 496zM328, 496C328, 504.84 335.16, 512 344, 512L360, 512C368.84, 512 376, 504.84 376, 496L376, 416L328, 416L328, 496zM448, 192L448, 77.25C448, 68.76 444.63, 60.63 438.63, 54.62L393.37, 9.37C387.37, 3.37 379.23, 0 370.74, 0L96, 0C78.33, 0 64, 14.33 64, 32L64, 192C28.65, 192 0, 220.65 0, 256L0, 368C0, 376.84 7.16, 384 16, 384L496, 384C504.84, 384 512, 376.84 512, 368L512, 256C512, 220.65 483.35, 192 448, 192zM384, 224L128, 224L128, 64L320, 64L320, 112C320, 120.84 327.16, 128 336, 128L384, 128L384, 224zM432, 296C418.75, 296 408, 285.25 408, 272C408, 258.74 418.75, 248 432, 248C445.25, 248 456, 258.74 456, 272C456, 285.25 445.25, 296 432, 296zM424, 496C424, 504.84 431.16, 512 440, 512L456, 512C464.84, 512 472, 504.84 472, 496L472, 416L424, 416L424, 496z" fill="#727272" fill-opacity="1" class="Black" />
  </g>
</svg>