<?xml version='1.0' encoding='UTF-8'?>
<svg viewBox="-1.9999 -4.7979 32 31.9975" xmlns="http://www.w3.org/2000/svg">
  <g transform="matrix(1.0011, 0, 0, 1.0011, 0, 0)">
    <g transform="matrix(0.0437, 0, 0, 0.0437, 0, 0)">
      <path d="M628.88, 210.65L494.39, 49.27A48.01 48.01 0 0 0 457.52, 32L32, 32C14.33, 32 0, 46.33 0, 64L0, 352C0, 369.67 14.33, 384 32, 384L64, 384C64, 437.02 106.98, 480 160, 480C213.02, 480 256, 437.02 256, 384L384, 384C384, 437.02 426.98, 480 480, 480C533.02, 480 576, 437.02 576, 384L608, 384C625.67, 384 640, 369.67 640, 352L640, 241.38C640, 230.15 636.06, 219.28 628.88, 210.65zM64, 192L64, 96L160, 96L160, 192L64, 192zM160, 432C133.49, 432 112, 410.51 112, 384C112, 357.49 133.49, 336 160, 336C186.51, 336 208, 357.49 208, 384C208, 410.51 186.51, 432 160, 432zM320, 192L224, 192L224, 96L320, 96L320, 192zM480, 432C453.49, 432 432, 410.51 432, 384C432, 357.49 453.49, 336 480, 336C506.51, 336 528, 357.49 528, 384C528, 410.51 506.51, 432 480, 432zM384, 192L384, 96L450.02, 96L530.02, 192L384, 192z" fill="#727272" fill-opacity="1" class="Black" />
    </g>
  </g>
</svg>