<?xml version='1.0' encoding='UTF-8'?>
<svg viewBox="-2 -2 32 32" xmlns="http://www.w3.org/2000/svg">
  <g transform="matrix(0.0547, 0, 0, 0.0547, 0, 0)">
    <path d="M484, 192L464, 192C464, 198 468.3, 247.7 419.3, 263.2L328.1, 292L301.7, 337.4L223.7, 373.7L198, 347.9L268.8, 277.1L409.6, 232.6C422.9, 228.4 432, 216 432, 202.1L432, 108C432, 92.5 419.5, 80 404, 80L309.9, 80C295.9, 80 283.6, 89.1 279.4, 102.4L234.9, 243.2L164.1, 314L138.4, 288.3L174.7, 210.3L220.1, 183.9L248.9, 92.7C263.4, 46.7 307.7, 48 320, 48L320, 28C320, 12.6 307.4, 0 292, 0L237.4, 0C226.6, 0 216.6, 6.3 212, 16.2L95.5, 266.5L56.3, 305.7L206.3, 455.7L245.5, 416.5L495.8, 300C505.6, 295.4 512, 285.5 512, 274.6L512, 220C512, 204.6 499.4, 192 484, 192zM31.1, 331C-10.3, 372.4 -10.3, 439.6 31.1, 481C72.5, 522.4 139.7, 522.4 181.1, 481L183.7, 478.4L33.7, 328.4L31.1, 331z" fill="#727272" fill-opacity="1" class="Black" />
  </g>
</svg>