<?xml version='1.0' encoding='UTF-8'?>
<svg viewBox="-4 0 32 32" xmlns="http://www.w3.org/2000/svg">
  <g transform="matrix(0.0625, 0, 0, 0.0625, 0, 0)">
    <path d="M352, 32L52.03, 32C32.37, 32 14.59, 42.89 5.68, 60.44C-3.23, 77.97 -1.57, 98.75 9.99, 114.6L132.66, 256L10.03, 397.36C-1.56, 413.25 -3.22, 434.03 5.69, 451.56C14.59, 469.11 32.37, 480 52.03, 480L352, 480C369.67, 480 384, 465.67 384, 448L384, 376C384, 362.75 373.25, 352 360, 352L312, 352C298.75, 352 288, 362.75 288, 376L288, 384L142.25, 384L251.34, 256L142.25, 128L288, 128L288, 136C288, 149.25 298.75, 160 312, 160L360, 160C373.25, 160 384, 149.25 384, 136L384, 64C384, 46.33 369.67, 32 352, 32z" fill="#727272" fill-opacity="1" class="Black" />
  </g>
</svg>