<?xml version='1.0' encoding='UTF-8'?>
<svg viewBox="-2 -1.774 32 31.9975" xmlns="http://www.w3.org/2000/svg">
  <g transform="matrix(0.9992, 0, 0, 0.9992, 0, 0)">
    <g transform="matrix(0.0556, 0, 0, 0.0556, 0, 0)">
      <path d="M497, 273L329, 441C314, 456 288, 445.5 288, 424L288, 328L152, 328C138.7, 328 128, 317.3 128, 304L128, 208C128, 194.7 138.7, 184 152, 184L288, 184L288, 88C288, 66.6 313.9, 56 329, 71L497, 239C506.3, 248.4 506.3, 263.6 497, 273zM192, 436L192, 396C192, 389.4 186.6, 384 180, 384L96, 384C78.3, 384 64, 369.7 64, 352L64, 160C64, 142.3 78.3, 128 96, 128L180, 128C186.6, 128 192, 122.6 192, 116L192, 76C192, 69.4 186.6, 64 180, 64L96, 64C43, 64 0, 107 0, 160L0, 352C0, 405 43, 448 96, 448L180, 448C186.6, 448 192, 442.6 192, 436z" fill="#727272" fill-opacity="1" class="Black" />
    </g>
  </g>
</svg>