<?xml version='1.0' encoding='UTF-8'?>
<svg viewBox="-1.9999 -1.7774 32 31.9975" xmlns="http://www.w3.org/2000/svg">
  <g transform="matrix(0.0547, 0, 0, 0.0547, 0, 0)">
    <path d="M416, 448L332, 448C325.4, 448 320, 442.6 320, 436L320, 396C320, 389.4 325.4, 384 332, 384L416, 384C433.7, 384 448, 369.7 448, 352L448, 160C448, 142.3 433.7, 128 416, 128L332, 128C325.4, 128 320, 122.6 320, 116L320, 76C320, 69.4 325.4, 64 332, 64L416, 64C469, 64 512, 107 512, 160L512, 352C512, 405 469, 448 416, 448zM369, 247L201, 79C186, 64 160, 74.5 160, 96L160, 192L24, 192C10.7, 192 0, 202.7 0, 216L0, 312C0, 325.3 10.7, 336 24, 336L160, 336L160, 432C160, 453.5 186, 464 201, 449L369, 281C378.3, 271.6 378.3, 256.4 369, 247z" fill="#727272" fill-opacity="1" class="Black" />
  </g>
</svg>