<?xml version='1.0' encoding='UTF-8'?>
<svg viewBox="-3.7484 -1.9975 32 32" xmlns="http://www.w3.org/2000/svg">
  <g transform="matrix(0.0547, 0, 0, 0.0547, 0, 0)">
    <path d="M91.434, 483.987C91.127, 467.969 104.543, 454.858 120.564, 454.858L182.857, 454.858L182.857, 449.144L56.993, 449.144C40.972, 449.144 27.556, 436.033 27.863, 420.015C28.16, 404.491 40.835, 392 56.428, 392L182.857, 392L182.857, 386.286L29.136, 386.286C13.115, 386.286 -0.301, 373.175 0.006, 357.157C0.303, 341.635 12.979, 329.144 28.572, 329.144L182.858, 329.144L182.858, 323.43L57.707, 323.43C41.686, 323.43 28.27, 310.319 28.577, 294.301C28.874, 278.779 41.55, 266.288 57.143, 266.288L225.709, 266.288L194.624, 243.682C181.862, 234.401 179.041, 216.533 188.322, 203.77C197.603, 191.009 215.472, 188.188 228.234, 197.468L351.595, 287.183A34.287 34.287 0 0 1 365.715, 314.911L365.715, 456.047C365.715, 471.957 354.769, 485.777 339.282, 489.421L258.811, 508.355A137.16 137.16 0 0 1 227.4, 512.001L120, 512.001C104.407, 512 91.731, 499.509 91.434, 483.987zM164.683, 258.286L201.106, 258.286L189.919, 250.15C171.34, 236.639 169.606, 209.263 186.749, 193.614L173.745, 176.914C163.902, 164.273 145.315, 161.743 132.865, 171.826C120.8, 181.597 118.732, 199.273 128.312, 211.576L164.683, 258.286zM447.981, 256.183L442.978, 103.731C442.46, 87.96 429.256, 75.595 413.485, 76.112C397.712, 76.63 385.348, 89.834 385.866, 105.605L387.128, 144.02L283.565, 11.019C273.985, -1.284 256.342, -3.611 243.912, 5.691C231.085, 15.29 228.983, 33.931 238.826, 46.572L315.715, 145.317L311.206, 148.828L216.416, 27.094C206.836, 14.791 189.193, 12.464 176.763, 21.766C163.936, 31.365 161.834, 50.006 171.677, 62.647L266.12, 183.935L261.611, 187.446L183.936, 87.692C174.356, 75.389 156.713, 73.062 144.283, 82.364C131.456, 91.963 129.354, 110.604 139.197, 123.245L191.25, 190.094C203.747, 181.837 220.305, 181.809 232.94, 190.998L356.3, 280.712C367.204, 288.642 373.715, 301.427 373.715, 314.91L373.715, 331.909L434.779, 284.36A34.285 34.285 0 0 0 447.981, 256.183z" fill="#727272" fill-opacity="1" class="Black" />
  </g>
</svg>