<?xml version='1.0' encoding='UTF-8'?>
<svg viewBox="-0.4421 -3.5563 31.995 32" xmlns="http://www.w3.org/2000/svg">
  <g transform="matrix(0.0486, 0, 0, 0.0486, 0, 0)">
    <path d="M96, 384L64, 384C46.33, 384 32, 398.33 32, 416L32, 480C32, 497.67 46.33, 512 64, 512L96, 512C113.67, 512 128, 497.67 128, 480L128, 416C128, 398.33 113.67, 384 96, 384zM256, 256L224, 256C206.33, 256 192, 270.33 192, 288L192, 480C192, 497.67 206.33, 512 224, 512L256, 512C273.67, 512 288, 497.67 288, 480L288, 288C288, 270.33 273.67, 256 256, 256zM416, 128L384, 128C366.33, 128 352, 142.33 352, 160L352, 480C352, 497.67 366.33, 512 384, 512L416, 512C433.67, 512 448, 497.67 448, 480L448, 160C448, 142.33 433.67, 128 416, 128zM576, 0L544, 0C526.33, 0 512, 14.33 512, 32L512, 480C512, 497.67 526.33, 512 544, 512L576, 512C593.67, 512 608, 497.67 608, 480L608, 32C608, 14.33 593.67, 0 576, 0z" fill="#727272" fill-opacity="1" class="Black" />
  </g>
</svg>