<?xml version='1.0' encoding='UTF-8'?>
<svg viewBox="-2 -2 32 32" xmlns="http://www.w3.org/2000/svg">
  <g transform="matrix(0.0547, 0, 0, 0.0547, 0, 0)">
    <path d="M496, 64L128, 64L128, 16C128, 7.2 120.8, 0 112, 0L80, 0C71.2, 0 64, 7.2 64, 16L64, 64L16, 64C7.2, 64 0, 71.2 0, 80L0, 112C0, 120.8 7.2, 128 16, 128L64, 128L64, 496C64, 504.8 71.2, 512 80, 512L112, 512C120.8, 512 128, 504.8 128, 496L128, 128L496, 128C504.8, 128 512, 120.8 512, 112L512, 80C512, 71.2 504.8, 64 496, 64zM160, 384L480, 384L480, 160L160, 160L160, 384z" fill="#727272" fill-opacity="1" class="Black" />
  </g>
</svg>