<?xml version='1.0' encoding='UTF-8'?>
<svg viewBox="1.5003 26 32 32" xmlns="http://www.w3.org/2000/svg">
  <g transform="matrix(0.1094, 0, 0, 0.1094, 0, 0)">
    <path d="M96, 384L64, 384C46.33, 384 32, 398.33 32, 416L32, 480C32, 497.67 46.33, 512 64, 512L96, 512C113.67, 512 128, 497.67 128, 480L128, 416C128, 398.33 113.67, 384 96, 384zM256, 256L224, 256C206.33, 256 192, 270.33 192, 288L192, 480C192, 497.67 206.33, 512 224, 512L256, 512C273.67, 512 288, 497.67 288, 480L288, 288C288, 270.33 273.67, 256 256, 256z" fill="#727272" fill-opacity="1" class="Black" />
  </g>
</svg>