<?xml version='1.0' encoding='UTF-8'?>
<svg viewBox="-0.8624 -3.891 31.9975 32" xmlns="http://www.w3.org/2000/svg">
  <g transform="matrix(0.0473, 0, 0, 0.0473, 0, 0)">
    <path d="M216, 288L168, 288C159.16, 288 152, 295.16 152, 304L152, 496C152, 504.84 159.16, 512 168, 512L216, 512C224.84, 512 232, 504.84 232, 496L232, 304C232, 295.16 224.84, 288 216, 288zM88, 384L40, 384C31.16, 384 24, 391.16 24, 400L24, 496C24, 504.84 31.16, 512 40, 512L88, 512C96.84, 512 104, 504.84 104, 496L104, 400C104, 391.16 96.84, 384 88, 384zM344, 192L296, 192C287.16, 192 280, 199.16 280, 208L280, 496C280, 504.84 287.16, 512 296, 512L344, 512C352.84, 512 360, 504.84 360, 496L360, 208C360, 199.16 352.84, 192 344, 192zM472, 96L424, 96C415.16, 96 408, 103.16 408, 112L408, 496C408, 504.84 415.16, 512 424, 512L472, 512C480.84, 512 488, 504.84 488, 496L488, 112C488, 103.16 480.84, 96 472, 96zM600, 0L552, 0C543.16, 0 536, 7.16 536, 16L536, 496C536, 504.84 543.16, 512 552, 512L600, 512C608.84, 512 616, 504.84 616, 496L616, 16C616, 7.16 608.84, 0 600, 0z" fill="#727272" fill-opacity="1" class="Black" />
  </g>
</svg>