<?xml version='1.0' encoding='UTF-8'?>
<svg viewBox="-1.9975 -4.7973 32 32" xmlns="http://www.w3.org/2000/svg">
  <g transform="matrix(0.999, 0, 0, 0.999, 0, 0)">
    <g transform="matrix(0.0438, 0, 0, 0.0438, 0, 0)">
      <path d="M633.82, 458.1L608, 438.14L608, 32C608, 14.33 593.67, 0 576, 0L544, 0C526.33, 0 512, 14.33 512, 32L512, 363.95L448, 314.49L448, 160C448, 142.33 433.67, 128 416, 128L384, 128C366.33, 128 352, 142.33 352, 160L352, 240.29L45.47, 3.37C38.49, -2.05 28.43, -0.8 23.01, 6.18L3.37, 31.45C-2.05, 38.42 -0.8, 48.47 6.18, 53.9L594.54, 508.63C601.52, 514.06 611.57, 512.8 617, 505.82L636.64, 480.55C642.05, 473.58 640.8, 463.53 633.82, 458.1zM96, 384L64, 384C46.33, 384 32, 398.33 32, 416L32, 480C32, 497.67 46.33, 512 64, 512L96, 512C113.67, 512 128, 497.67 128, 480L128, 416C128, 398.33 113.67, 384 96, 384zM192, 288L192, 480C192, 497.67 206.33, 512 224, 512L256, 512C273.67, 512 288, 497.67 288, 480L288, 352.6L193.67, 279.7C192.93, 282.41 192, 285.06 192, 288zM352, 480C352, 497.67 366.33, 512 384, 512L416, 512C433.67, 512 448, 497.67 448, 480L448, 476.27L352, 402.07L352, 480z" fill="#727272" fill-opacity="1" class="Black" />
    </g>
  </g>
</svg>