<?xml version='1.0' encoding='UTF-8'?>
<svg viewBox="-5.5003 -2 32 32" xmlns="http://www.w3.org/2000/svg">
  <g transform="matrix(0.0547, 0, 0, 0.0547, 0, 0)">
    <path d="M0, 64L0, 448C0, 483.3 28.7, 512 64, 512L320, 512C355.3, 512 384, 483.3 384, 448L384, 128L256, 0L64, 0C28.7, 0 0, 28.7 0, 64zM224, 256L160, 256L160, 192L224, 192L224, 256zM320, 256L256, 256L256, 192L288, 192C305.7, 192 320, 206.3 320, 224L320, 256zM256, 384L320, 384L320, 416C320, 433.7 305.7, 448 288, 448L256, 448L256, 384zM160, 384L224, 384L224, 448L160, 448L160, 384zM64, 384L128, 384L128, 448L96, 448C78.3, 448 64, 433.7 64, 416L64, 384zM64, 288L320, 288L320, 352L64, 352L64, 288zM64, 224C64, 206.3 78.3, 192 96, 192L128, 192L128, 256L64, 256L64, 224z" fill="#727272" fill-opacity="1" class="Black" />
  </g>
</svg>