<?xml version='1.0' encoding='UTF-8'?>
<svg viewBox="-1.9975 -2 32 32" xmlns="http://www.w3.org/2000/svg">
  <g transform="matrix(0.0547, 0, 0, 0.0547, 0, 0)">
    <path d="M510.7, 190.2C508.5, 177.1 495.9, 168.3 483, 170.5C469.9, 172.7 461.1, 185.1 463.3, 198.2C466.6, 217.5 457.3, 237.1 441.2, 246.3L174, 383.8L218.9, 274.8L340.3, 164.3C351.8, 152.8 355.2, 135.7 349, 120.7C342.8, 105.7 328.3, 96 312, 96L128, 96C110.3, 96 96, 110.3 96, 128C96, 145.7 110.3, 160 128, 160L225.5, 160L166.6, 236.5C163.2, 240.9 166.8, 232.9 106.4, 379.8C101.3, 392.2 104.6, 406 113.7, 414.8L13, 466.7C1.2, 472.7 -3.4, 487.2 2.7, 499C7, 507.3 15.4, 512 24.1, 512C27.8, 512 31.6, 511.1 35.1, 509.3L464.3, 288.4C498.6, 268.7 517.3, 229.2 510.7, 190.2zM400, 96C426.5, 96 448, 74.5 448, 48C448, 21.5 426.5, 0 400, 0C373.5, 0 352, 21.5 352, 48C352, 74.5 373.5, 96 400, 96z" fill="#727272" fill-opacity="1" class="Black" />
  </g>
</svg>