<?xml version='1.0' encoding='UTF-8'?>
<svg viewBox="-3.7495 -2 32 32" xmlns="http://www.w3.org/2000/svg">
  <g transform="matrix(0.0547, 0, 0, 0.0547, 0, 0)">
    <path d="M439.15, 453.06L297.17, 384L439.16, 314.94C447.06, 310.99 450.27, 301.38 446.31, 293.48L432, 264.85C428.05, 256.95 418.44, 253.74 410.53, 257.69L224, 348.41L37.47, 257.69C29.57, 253.74 19.96, 256.94 16, 264.85L1.69, 293.48C-2.26, 301.38 0.94, 310.99 8.84, 314.94L150.83, 384L8.85, 453.06C0.95, 457.01 -2.26, 466.62 1.7, 474.53L16.01, 503.16C19.96, 511.06 29.57, 514.27 37.48, 510.31L224, 419.59L410.53, 510.31C418.43, 514.26 428.04, 511.06 432, 503.16L446.31, 474.53C450.26, 466.62 447.05, 457.01 439.15, 453.06zM150, 237.28L144.52, 263.15C141.85, 275.77 149.94, 288 160.97, 288L287.05, 288C298.08, 288 306.17, 275.77 303.5, 263.15L298, 237.28C339.78, 214.87 368, 174.53 368, 128C368, 57.31 303.53, 0 224, 0C144.47, 0 80, 57.31 80, 128C80, 174.53 108.22, 214.87 150, 237.28zM280, 112C297.65, 112 312, 126.35 312, 144C312, 161.65 297.65, 176 280, 176C262.35, 176 248, 161.65 248, 144C248, 126.35 262.35, 112 280, 112zM168, 112C185.65, 112 200, 126.35 200, 144C200, 161.65 185.65, 176 168, 176C150.35, 176 136, 161.65 136, 144C136, 126.35 150.35, 112 168, 112z" fill="#727272" fill-opacity="1" class="Black" />
  </g>
</svg>