<?xml version='1.0' encoding='UTF-8'?>
<svg viewBox="-2 -4.8005 32 32" xmlns="http://www.w3.org/2000/svg">
  <g transform="matrix(0.9988, 0, 0, 0.9988, 0, 0)">
    <g transform="matrix(0.0438, 0, 0, 0.0438, 0, 0)">
      <path d="M416, 96L224, 96A64 64 0 0 0 160, 160L160, 288A64 64 0 0 0 224, 352L250.82, 486.27A32 32 0 0 0 282.2, 512L357.73, 512A32 32 0 0 0 389.11, 486.28L416, 352A64 64 0 0 0 480, 288L480, 160A64 64 0 0 0 416, 96zM256, 288A32 32 0 1 1 288, 256A32 32 0 0 1 256, 288zM384, 288A32 32 0 1 1 416, 256A32 32 0 0 1 384, 288zM60.11, 113.55C43.35, 89.42 56.5, 39 63, 21.62A16 16 0 0 0 36.81, 4.62C13.05, 27.87 0, 60.31 0, 95.91C0, 166.53 57.42, 224 128, 224L128, 128.09L96, 128.09C78.64, 128.09 66.91, 123.34 60.11, 113.55zM603.23, 4.55A16 16 0 0 0 577, 21.64C583.06, 37.79 596.6, 89.37 579.88, 113.53C573.08, 123.32 561.34, 128.09 543.98, 128.09L512, 128.09L512, 224C582.57, 224 640, 166.53 640, 95.91C640, 60.31 627, 27.87 603.23, 4.57z" fill="#727272" fill-opacity="1" class="Black" />
    </g>
  </g>
</svg>