<?xml version='1.0' encoding='UTF-8'?>
<svg viewBox="-1.995 -1.995 32 32" xmlns="http://www.w3.org/2000/svg">
  <g transform="matrix(0.0547, 0, 0, 0.0547, 0, 0)">
    <path d="M505, 420.1C495.6, 410.7 480.4, 410.7 471.1, 420.1C459, 432.2 440.6, 435.5 426, 428.8L376.9, 403.4C381.1, 398 384.1, 391.5 384.1, 384L384.1, 288C384.1, 270.3 369.8, 256 352.1, 256L301.3, 256L347.4, 209.9C361.2, 196.1 365.3, 175.6 357.8, 157.6C350.3, 139.6 332.9, 128 313.5, 128L160, 128C142.3, 128 128, 142.3 128, 160C128, 177.7 142.3, 192 160, 192L242.8, 192L169.4, 265.4C166.4, 268.3 164.1, 271.9 162.5, 275.8C160.4, 280.9 160.1, 286.3 160.7, 291.7L35, 226.6C23.3, 220.6 8.7, 225.1 2.7, 236.9C-3.4, 248.7 1.2, 263.2 13, 269.3L404.9, 471.9C416.8, 477.4 429.4, 480 442, 480C465.2, 480 488, 471 505, 454C514.3, 444.6 514.3, 429.4 505, 420.1zM320, 374L215.6, 320L320, 320L320, 374zM400, 128C426.5, 128 448, 106.5 448, 80C448, 53.5 426.5, 32 400, 32C373.5, 32 352, 53.5 352, 80C352, 106.5 373.5, 128 400, 128z" fill="#727272" fill-opacity="1" class="Black" />
  </g>
</svg>