<?xml version='1.0' encoding='UTF-8'?>
<svg viewBox="-2 0 32 32" xmlns="http://www.w3.org/2000/svg">
  <g transform="matrix(0.0625, 0, 0, 0.0625, 0, 0)">
    <path d="M400, 32L48, 32C21.5, 32 0, 53.5 0, 80L0, 432C0, 458.5 21.5, 480 48, 480L400, 480C426.5, 480 448, 458.5 448, 432L448, 80C448, 53.5 426.5, 32 400, 32zM200, 224L176, 224L176, 404C176, 410.6 170.6, 416 164, 416L124, 416C117.4, 416 112, 410.6 112, 404L112, 224L88, 224C74.7, 224 64, 213.3 64, 200L64, 184C64, 170.7 74.7, 160 88, 160L112, 160L112, 108C112, 101.4 117.4, 96 124, 96L164, 96C170.6, 96 176, 101.4 176, 108L176, 160L200, 160C213.3, 160 224, 170.7 224, 184L224, 200C224, 213.3 213.3, 224 200, 224zM384, 328C384, 341.3 373.3, 352 360, 352L336, 352L336, 404C336, 410.6 330.6, 416 324, 416L284, 416C277.4, 416 272, 410.6 272, 404L272, 352L248, 352C234.7, 352 224, 341.3 224, 328L224, 312C224, 298.7 234.7, 288 248, 288L272, 288L272, 108C272, 101.4 277.4, 96 284, 96L324, 96C330.6, 96 336, 101.4 336, 108L336, 288L360, 288C373.3, 288 384, 298.7 384, 312L384, 328z" fill="#727272" fill-opacity="1" class="Black" />
  </g>
</svg>