<?xml version='1.0' encoding='UTF-8'?>
<svg viewBox="-1.9999 -1.549 31.9975 32" xmlns="http://www.w3.org/2000/svg">
  <g transform="matrix(0.999, 0, 0, 0.999, 0, 0)">
    <g transform="matrix(0.0565, 0, 0, 0.0565, 0, 0)">
      <path d="M0, 256C0, 393 111, 504 248, 504C385, 504 496, 393 496, 256C496, 119 385, 8 248, 8C111, 8 0, 119 0, 256zM200, 208C200, 225.7 185.7, 240 168, 240C150.3, 240 136, 225.7 136, 208C136, 190.3 150.3, 176 168, 176C185.7, 176 200, 190.3 200, 208zM358.5, 224.5C343.7, 211.3 312.3, 211.3 297.5, 224.5L288, 233C279.7, 240.4 266.4, 233.4 268.2, 222.2C272.2, 197 302.4, 180.1 328.1, 180.1C353.8, 180.1 384, 197 388, 222.2C389.7, 233.3 376.6, 240.5 368.2, 233L358.5, 224.5zM157.8, 325.8C180.2, 352.7 213, 368 248, 368C283, 368 315.8, 352.6 338.2, 325.8C351.8, 309.6 376.3, 330 362.8, 346.3C334.3, 380.4 292.5, 400 248, 400C203.5, 400 161.7, 380.4 133.2, 346.2C119.7, 329.9 144.4, 309.5 157.8, 325.8z" fill="#727272" fill-opacity="1" class="Black" />
    </g>
  </g>
</svg>