<?xml version='1.0' encoding='UTF-8'?>
<svg viewBox="-2 -4.7992 32 32" xmlns="http://www.w3.org/2000/svg">
  <g transform="matrix(0.9988, 0, 0, 0.9988, 0, 0)">
    <g transform="matrix(0.0438, 0, 0, 0.0438, 0, 0)">
      <path d="M624, 368L80, 368C71.2, 368 64, 375.2 64, 384L64, 400C64, 408.8 71.2, 416 80, 416L624, 416C632.8, 416 640, 408.8 640, 400L640, 384C640, 375.2 632.8, 368 624, 368zM144, 464L16, 464C7.2, 464 0, 471.2 0, 480L0, 496C0, 504.8 7.2, 512 16, 512L144, 512C152.8, 512 160, 504.8 160, 496L160, 480C160, 471.2 152.8, 464 144, 464zM560, 464L224, 464C215.2, 464 208, 471.2 208, 480L208, 496C208, 504.8 215.2, 512 224, 512L560, 512C568.8, 512 576, 504.8 576, 496L576, 480C576, 471.2 568.8, 464 560, 464zM144, 288L300.1, 288C322.6, 307.7 351.7, 320 384, 320C416.3, 320 445.3, 307.7 467.9, 288L528, 288C589.9, 288 640, 237.9 640, 176C640, 114.1 589.9, 64 528, 64C510, 64 493.3, 68.6 478.3, 76.1C454, 31 406.8, 0 352, 0C311, 0 274.2, 17.3 248, 44.8C221.8, 17.3 185, 0 144, 0C64.5, 0 0, 64.5 0, 144C0, 223.5 64.5, 288 144, 288z" fill="#727272" fill-opacity="1" class="Black" />
    </g>
  </g>
</svg>