<?xml version='1.0' encoding='UTF-8'?>
<svg viewBox="-2 -4.7992 32 32" xmlns="http://www.w3.org/2000/svg">
  <g transform="matrix(0.9988, 0, 0, 0.9988, 0, 0)">
    <g transform="matrix(0.0438, 0, 0, 0.0438, 0, 0)">
      <path d="M528, 288C510, 288 493.3, 292.6 478.3, 300.1C454, 255 406.8, 224 352, 224C311, 224 274.2, 241.3 248, 268.8C221.8, 241.3 185, 224 144, 224C64.5, 224 0, 288.5 0, 368C0, 447.5 64.5, 512 144, 512L528, 512C589.9, 512 640, 461.9 640, 400C640, 338.1 589.9, 288 528, 288zM402.4, 158.8C380.1, 139.9 351.6, 128 320, 128C268.3, 128 224.1, 158.8 203.9, 202.8C219.5, 208.5 234.5, 216.2 248, 226.2C278, 204 314, 192 352, 192C406.9, 192 458, 217.9 491, 261.1C503.1, 257.7 515.5, 256 528, 256C563.5, 256 595.6, 269.4 620.7, 290.8C632.7, 271.3 640, 248.6 640, 224C640, 153.3 582.7, 96 512, 96C465.2, 96 424.7, 121.3 402.4, 158.8zM144, 192C153.9, 192 163.5, 192.9 173.1, 194.5C197.2, 136.8 253.7, 96 320, 96C346.2, 96 372, 102.7 395.1, 115.2C404.4, 105 415.3, 96.8 426.7, 89.4C403.8, 54.9 364.6, 32 320, 32C288.4, 32 259.9, 43.9 237.6, 62.8C215.3, 25.3 174.8, 0 128, 0C57.3, 0 0, 57.3 0, 128C0, 166.2 17.1, 200.1 43.7, 223.6C72.2, 203.7 106.7, 192 144, 192z" fill="#727272" fill-opacity="1" class="Black" />
    </g>
  </g>
</svg>