<?xml version='1.0' encoding='UTF-8'?>
<svg viewBox="-1.9975 -4.7973 32 32" xmlns="http://www.w3.org/2000/svg">
  <g transform="matrix(0.999, 0, 0, 0.999, 0, 0)">
    <g transform="matrix(0.0438, 0, 0, 0.0438, 0, 0)">
      <path d="M608.1, 256L636, 240C639.8, 237.8 641.1, 232.9 638.9, 229.1L630.9, 215.2C628.7, 211.4 623.8, 210.1 620, 212.3L592, 228.4L592, 200C592, 195.6 588.4, 192 584, 192L568, 192C563.6, 192 560, 195.6 560, 200L560, 228.4L532, 212.3C528.2, 210.1 523.3, 211.4 521.1, 215.2L513.1, 229.1C510.9, 232.9 512.2, 237.8 516, 240L543.9, 256L516, 272C512.2, 274.2 510.9, 279.1 513.1, 282.9L521.1, 296.8C523.3, 300.6 528.2, 301.9 532, 299.7L560, 283.6L560, 312C560, 316.4 563.6, 320 568, 320L584, 320C588.4, 320 592, 316.4 592, 312L592, 283.6L620, 299.7C623.8, 301.9 628.7, 300.6 630.9, 296.8L638.9, 282.9C641.1, 279.1 639.8, 274.2 636, 272L608.1, 256zM445.9, 145.7L430.4, 118.9C426.1, 111.5 416.7, 109 409.3, 113.2L375.5, 132.7L382.5, 106.7C384.7, 98.5 379.8, 90 371.6, 87.8L356.7, 83.8C348.5, 81.6 340, 86.5 337.8, 94.7L318.8, 165.5L256, 201.8L256, 124.3L309.7, 70.6C315.9, 64.4 315.9, 54.2 309.7, 48L298.4, 36.7C292.2, 30.5 282, 30.5 275.8, 36.7L256, 56.4L256, 16C256, 7.2 248.8, 0 240, 0L208, 0C199.2, 0 192, 7.2 192, 16L192, 56.4L172.3, 36.7C166.1, 30.5 155.9, 30.5 149.7, 36.7L138.3, 48C132.1, 54.2 132.1, 64.4 138.3, 70.6L192, 124.3L192, 201.8L129.2, 165.6L110.2, 94.8C108, 86.6 99.5, 81.7 91.3, 83.9L76.4, 87.9C68.2, 90.1 63.3, 98.6 65.5, 106.8L72.5, 132.8L38.7, 113.3C31.3, 109 21.9, 111.6 17.6, 119L2.1, 145.7C-2.2, 153.1 0.4, 162.5 7.8, 166.8L41.6, 186.3L15.6, 193.3C7.3, 195.5 2.4, 204 4.6, 212.3L8.6, 227.2C10.8, 235.4 19.3, 240.3 27.5, 238.1L98.3, 219.1L162.1, 256L98.3, 292.9L27.5, 273.9C19.3, 271.7 10.8, 276.6 8.6, 284.8L4.6, 299.7C2.4, 307.9 7.3, 316.4 15.5, 318.6L41.5, 325.6L7.7, 345.2C0.3, 349.5 -2.2, 358.9 2, 366.3L17.5, 393.1C21.8, 400.5 31.2, 403 38.6, 398.8L72.4, 379.3L65.4, 405.3C63.2, 413.5 68.1, 422 76.3, 424.2L91.2, 428.2C99.4, 430.4 107.9, 425.5 110.1, 417.3L129.1, 346.5L191.9, 310.3L191.9, 387.8L138.2, 441.5C132, 447.7 132, 457.9 138.2, 464.1L149.5, 475.4C155.7, 481.6 165.9, 481.6 172.1, 475.4L191.8, 455.7L191.8, 496C191.8, 504.8 199, 512 207.8, 512L239.8, 512C248.6, 512 255.8, 504.8 255.8, 496L255.8, 455.6L275.5, 475.3C281.7, 481.5 291.9, 481.5 298.1, 475.3L309.4, 464C315.6, 457.8 315.6, 447.6 309.4, 441.4L256, 387.7L256, 310.2L318.8, 346.4L337.8, 417.2C340, 425.4 348.5, 430.3 356.7, 428.1L371.6, 424.1C379.8, 421.9 384.7, 413.4 382.5, 405.2L375.5, 379.2L409.3, 398.7C416.7, 403 426.1, 400.4 430.4, 393L445.9, 366.2C450.2, 358.8 447.6, 349.4 440.2, 345.1L406.4, 325.6L432.4, 318.6C440.6, 316.4 445.5, 307.9 443.3, 299.7L439.3, 284.8C437.1, 276.6 428.6, 271.7 420.4, 273.9L349.6, 292.9L285.8, 256L349.6, 219.1L420.4, 238.1C428.6, 240.3 437.1, 235.4 439.3, 227.2L443.3, 212.3C445.5, 204.1 440.6, 195.6 432.4, 193.4L406.4, 186.4L440.2, 166.9C447.7, 162.6 450.2, 153.1 445.9, 145.7zM527.9, 120C527.9, 124.4 531.5, 128 535.9, 128L551.9, 128C556.3, 128 559.9, 124.4 559.9, 120L559.9, 91.6L587.9, 107.7C591.7, 109.9 596.6, 108.6 598.8, 104.8L606.8, 90.9C609, 87.1 607.7, 82.2 603.9, 80L576, 64L603.9, 48C607.7, 45.8 609, 40.9 606.8, 37.1L598.8, 23.2C596.6, 19.4 591.7, 18.1 587.9, 20.3L559.9, 36.4L559.9, 8C559.9, 3.6 556.3, 0 551.9, 0L535.9, 0C531.5, 0 527.9, 3.6 527.9, 8L527.9, 36.4L499.9, 20.3C496.1, 18.1 491.2, 19.4 489, 23.2L481, 37.1C478.8, 40.9 480.1, 45.8 483.9, 48L511.8, 64L483.9, 80C480.1, 82.2 478.8, 87.1 481, 90.9L489, 104.8C491.2, 108.6 496.1, 109.9 499.9, 107.7L527.9, 91.6L527.9, 120z" fill="#727272" fill-opacity="1" class="Black" />
    </g>
  </g>
</svg>