<?xml version='1.0' encoding='UTF-8'?>
<svg viewBox="-1.9949 -4.7981 31.995 32" xmlns="http://www.w3.org/2000/svg">
  <g transform="matrix(0.9989, 0, 0, 0.9989, 0, 0)">
    <g transform="matrix(0.0438, 0, 0, 0.0438, 0, 0)">
      <path d="M540.2, 320L361.7, 320C355.4, 320 349.2, 321.9 343.9, 325.4L299.9, 354.7C286.7, 363.5 292.9, 384 308.8, 384L542.1, 384C558, 384 572.9, 394.9 575.5, 410.6C578.8, 430.6 563.4, 448 543.9, 448C529.8, 448 517.8, 438.8 513.5, 426.1C511.4, 419.8 504.9, 416 498.3, 416L465.5, 416C455.5, 416 447.8, 425.3 449.8, 435.1C458.7, 478.9 497.5, 512 543.9, 512C603.1, 512 649.9, 458.2 638, 396.9C629.3, 351.3 586.6, 320 540.2, 320zM400, 288L544, 288C603.7, 288 650.8, 233.2 637.8, 171.3C630.2, 135.1 600.9, 105.8 564.7, 98.2C509.3, 86.6 459.6, 123.1 449.8, 173.7C447.9, 183.3 455.9, 192 465.6, 192L498.4, 192C505.1, 192 511.5, 188.2 513.6, 181.9C517.8, 169.2 529.9, 160 544, 160C563.4, 160 578.9, 177.4 575.6, 197.4C573, 213.1 558.2, 224 542.2, 224L400, 224C391.2, 224 384, 231.2 384, 240L384, 272C384, 280.8 391.2, 288 400, 288zM300.5, 309.2L295, 288.8L321.6, 304.1C327.4, 307.5 334.8, 305.5 338.2, 299.7L350.3, 278.7C353.7, 272.9 351.7, 265.5 345.9, 262.1L319.3, 246.8L339.7, 241.3C346.2, 239.6 350, 232.9 348.3, 226.4L345.2, 214.7C343.5, 208.2 336.8, 204.4 330.3, 206.1L274.7, 221L224.5, 192L274.7, 163L330.3, 177.9C336.8, 179.6 343.4, 175.8 345.2, 169.3L348.3, 157.6C350, 151.1 346.2, 144.5 339.7, 142.7L319.3, 137.2L345.9, 121.9C351.7, 118.5 353.7, 111.1 350.3, 105.3L338.2, 84.3C334.8, 78.5 327.4, 76.5 321.6, 79.9L295, 95.2L300.5, 74.8C302.2, 68.3 298.4, 61.7 291.9, 59.9L280.2, 56.8C273.7, 55.1 267.1, 58.9 265.3, 65.4L250.4, 121L200, 150.1L200, 93.2L240.2, 53C244.9, 48.3 244.9, 40.7 240.2, 36L231.7, 27.5C227, 22.8 219.4, 22.8 214.7, 27.5L200, 42.3L200, 12C200, 5.4 194.6, 0 188, 0L164, 0C157.4, 0 152, 5.4 152, 12L152, 42.3L137.2, 27.5C132.5, 22.8 124.9, 22.8 120.2, 27.5L111.7, 36C107, 40.7 107, 48.3 111.7, 53L152, 93.2L152, 150.1L101.6, 121L86.6, 65.3C84.9, 58.8 78.2, 55 71.7, 56.7L60, 59.9C53.5, 61.6 49.7, 68.3 51.4, 74.8L56.9, 95.2L30.4, 79.9C24.6, 76.5 17.2, 78.5 13.8, 84.3L1.7, 105.3C-1.7, 111.1 0.3, 118.5 6.1, 121.9L32.7, 137.2L12.3, 142.7C5.8, 144.4 2, 151.1 3.7, 157.6L6.8, 169.3C8.5, 175.8 15.2, 179.6 21.7, 177.9L77.3, 163L127.5, 192L77.3, 221L21.6, 206C15.1, 204.3 8.5, 208.1 6.7, 214.6L3.6, 226.3C1.9, 232.8 5.7, 239.4 12.2, 241.2L32.6, 246.7L6.1, 262.1C0.3, 265.5 -1.7, 272.9 1.7, 278.7L13.8, 299.7C17.2, 305.5 24.6, 307.5 30.4, 304.1L57, 288.8L51.5, 309.2C49.8, 315.7 53.6, 322.3 60.1, 324.1L71.8, 327.2C78.3, 328.9 84.9, 325.1 86.7, 318.6L101.6, 263L152, 233.9L152, 290.8L111.8, 331C107.1, 335.7 107.1, 343.3 111.8, 348L120.3, 356.5C125, 361.2 132.6, 361.2 137.3, 356.5L152.1, 341.7L152.1, 372C152.1, 378.6 157.5, 384 164.1, 384L188.1, 384C194.7, 384 200.1, 378.6 200.1, 372L200.1, 341.7L214.9, 356.5C219.6, 361.2 227.2, 361.2 231.9, 356.5L240.4, 348C245.1, 343.3 245.1, 335.7 240.4, 331L200, 290.8L200, 233.9L250.4, 263L265.3, 318.6C267, 325.1 273.7, 328.9 280.2, 327.2L291.9, 324.1C298.4, 322.4 302.3, 315.7 300.5, 309.2z" fill="#727272" fill-opacity="1" class="Black" />
    </g>
  </g>
</svg>