<?xml version='1.0' encoding='UTF-8'?>
<svg viewBox="-1.9961 -1.9999 31.9975 32" xmlns="http://www.w3.org/2000/svg">
  <g transform="matrix(0.0547, 0, 0, 0.0547, 0, 0)">
    <path d="M214.66, 311.01L288, 256L288, 96L128, 96L128, 272L41.35, 336.61C1.95, 366.17 -12.51, 421.03 12.14, 463.67C30.39, 495.25 63.27, 512 96.08, 512C116.11, 512 136.33, 505.75 153.6, 492.8L175.46, 476.41C145.61, 421.03 161.92, 350.57 214.66, 311.01zM288, 32C288, 20.95 291.07, 10.7 296.02, 1.62C293.4, 0.92 290.85, 0 288, 0L160, 0C142.33, 0 128, 14.33 128, 32L128, 64L288, 64L288, 32zM480, 0L352, 0C334.33, 0 320, 14.33 320, 32L320, 64L512, 64L512, 32C512, 14.33 497.67, 0 480, 0zM320, 272L233.87, 336.61C194.47, 366.17 180.01, 421.03 204.66, 463.67C222.91, 495.25 255.27, 512 288.08, 512C308.11, 512 328.33, 505.75 345.6, 492.8L460.8, 406.4A127.997 127.997 0 0 0 512, 304L512, 96L320, 96L320, 272z" fill="#727272" fill-opacity="1" class="Black" />
  </g>
</svg>