<?xml version='1.0' encoding='UTF-8'?>
<svg viewBox="-2.0023 -4.8023 31.9975 32" xmlns="http://www.w3.org/2000/svg">
  <g transform="matrix(1.0009, 0, 0, 1.0009, 0, 0)">
    <g transform="matrix(0.0437, 0, 0, 0.0437, 0, 0)">
      <path d="M431.98, 448.01L384.01, 448.06L384.01, 416L256.01, 416L256.01, 448.21L208.03, 448.26C199.21, 448.27 192.06, 455.42 192.05, 464.25L192, 495.98C191.99, 504.83 199.17, 512.01 208.02, 512L431.98, 511.74C440.8, 511.73 447.95, 504.58 447.96, 495.76L448, 464.03C448.01, 455.18 440.83, 448 431.98, 448.01zM585.2, 26.74C582.58, 11.31 568.99, 0 553.06, 0L86.93, 0C71, 0 57.41, 11.31 54.79, 26.74C-3.32, 369.16 0.04, 348.08 0.03, 352C0, 369.32 14.32, 384 32.63, 384L607.37, 384C625.6, 384 639.88, 369.44 639.96, 352.21C639.98, 348.13 643.31, 369.16 585.2, 26.74zM259.83, 64L380.16, 64L389.93, 160L250.06, 160L259.83, 64zM184.66, 320L71.09, 320L90.1, 208L196.07, 208L184.66, 320zM200.95, 160L98.24, 160L114.53, 64L210.72, 64L200.95, 160zM233.77, 320L245.17, 208L394.82, 208L406.22, 320L233.77, 320zM429.27, 64L525.46, 64L541.75, 160L439.04, 160L429.27, 64zM455.33, 320L443.93, 208L549.9, 208L568.91, 320L455.33, 320z" fill="#727272" fill-opacity="1" class="Black" />
    </g>
  </g>
</svg>