<?xml version='1.0' encoding='UTF-8'?>
<svg viewBox="-2.4975 0 32 32" xmlns="http://www.w3.org/2000/svg">
  <g transform="matrix(0.0625, 0, 0, 0.0625, 0, 0)">
    <path d="M330.17, 258.91A79 79 0 0 0 275.17, 313.08C260.9, 364.13 296.36, 410.85 344, 415.61A84.07 84.07 0 0 1 323.15, 428.52C315.58, 431.92 312.35, 440.99 314.97, 448.86L324.87, 468.86C327.74, 477.49 337.4, 482.35 345.77, 478.77C403.77, 454.01 432.02, 417.16 432.02, 346.77L432.02, 336C432, 284.79 383.62, 244.66 330.17, 258.91zM352, 356A20 20 0 1 1 372, 336A20 20 0 0 1 352, 356zM304, 96L320, 96L320, 160L304, 160A16 16 0 0 0 288, 176L288, 208A16 16 0 0 0 304, 224L400, 224A16 16 0 0 0 416, 208L416, 176A16 16 0 0 0 400, 160L384, 160L384, 48A16 16 0 0 0 368, 32L320, 32A16 16 0 0 0 305.71, 40.83L289.71, 72.83A16 16 0 0 0 304, 96zM107.31, 36.69A16 16 0 0 0 84.69, 36.69L4.69, 132.69C-5.35, 142.74 1.78, 160 16, 160L64, 160L64, 464A16 16 0 0 0 80, 480L112, 480A16 16 0 0 0 128, 464L128, 160L176, 160C190.21, 160 197.38, 142.76 187.31, 132.69z" fill="#727272" fill-opacity="1" class="Black" />
  </g>
</svg>