<?xml version='1.0' encoding='UTF-8'?>
<svg viewBox="-2.4988 0 32 32" xmlns="http://www.w3.org/2000/svg">
  <g transform="matrix(0.0625, 0, 0, 0.0625, 0, 0)">
    <path d="M176, 352L128, 352L128, 48A16 16 0 0 0 112, 32L80, 32A16 16 0 0 0 64, 48L64, 352L16, 352C1.81, 352 -5.36, 369.24 4.71, 379.31L84.71, 475.31A16 16 0 0 0 107.33, 475.31L187.33, 379.31C197.35, 369.26 190.22, 352 176, 352zM400, 416L384, 416L384, 304A16 16 0 0 0 368, 288L320, 288A16 16 0 0 0 305.71, 296.83L289.71, 328.83A16 16 0 0 0 304, 352L320, 352L320, 416L304, 416A16 16 0 0 0 288, 432L288, 464A16 16 0 0 0 304, 480L400, 480A16 16 0 0 0 416, 464L416, 432A16 16 0 0 0 400, 416zM330.17, 34.91A79 79 0 0 0 275.17, 89.08C260.9, 140.13 296.36, 186.85 344, 191.61A84.07 84.07 0 0 1 323.15, 204.52C315.58, 207.92 312.35, 216.99 314.97, 224.86L324.87, 244.86C327.74, 253.49 337.4, 258.35 345.77, 254.77C403.77, 230 432.02, 193.16 432.02, 122.77L432.02, 112C432, 60.79 383.62, 20.66 330.17, 34.91zM352, 132A20 20 0 1 1 372, 112A20 20 0 0 1 352, 132z" fill="#727272" fill-opacity="1" class="Black" />
  </g>
</svg>