<?xml version='1.0' encoding='UTF-8'?>
<svg viewBox="-4 0 32 32" xmlns="http://www.w3.org/2000/svg">
  <g transform="matrix(0.0625, 0, 0, 0.0625, 0, 0)">
    <path d="M176, 352L128, 352L128, 48A16 16 0 0 0 112, 32L80, 32A16 16 0 0 0 64, 48L64, 352L16, 352C1.81, 352 -5.36, 369.24 4.71, 379.31L84.71, 475.31A16 16 0 0 0 107.33, 475.31L187.33, 379.31C197.35, 369.26 190.22, 352 176, 352zM379.29, 132.69L299.29, 36.69A16 16 0 0 0 276.67, 36.69L196.67, 132.69C186.65, 142.74 193.78, 160 208, 160L256, 160L256, 464A16 16 0 0 0 272, 480L304, 480A16 16 0 0 0 320, 464L320, 160L368, 160C382.19, 160 389.36, 142.76 379.29, 132.69z" fill="#727272" fill-opacity="1" class="Black" />
  </g>
</svg>