<?xml version='1.0' encoding='UTF-8'?>
<svg viewBox="-2.0036 0 32 31.9975" xmlns="http://www.w3.org/2000/svg">
  <g transform="matrix(0.0625, 0, 0, 0.0625, 0, 0)">
    <path d="M176, 352L128, 352L128, 48A16 16 0 0 0 112, 32L80, 32A16 16 0 0 0 64, 48L64, 352L16, 352C1.81, 352 -5.36, 369.24 4.71, 379.31L84.71, 475.31A16 16 0 0 0 107.33, 475.31L187.33, 379.31C197.35, 369.26 190.22, 352 176, 352zM288, 224L416, 224A16 16 0 0 0 432, 208L432, 176A16 16 0 0 0 416, 160L360, 160L421.26, 89.55A32 32 0 0 0 432, 65.63L432, 48A16 16 0 0 0 416, 32L288, 32A16 16 0 0 0 272, 48L272, 80A16 16 0 0 0 288, 96L344, 96L282.74, 166.45A32 32 0 0 0 272, 190.37L272, 208A16 16 0 0 0 288, 224zM447.06, 458.62L387.79, 298.62A16 16 0 0 0 372.72, 288L331.28, 288A16 16 0 0 0 316.21, 298.62L256.94, 458.62A16 16 0 0 0 272, 480L296.83, 480A16 16 0 0 0 312.06, 468.92L316.48, 456L387.48, 456L391.89, 468.92A16 16 0 0 0 407.16, 480L432, 480A16 16 0 0 0 447.06, 458.62zM335.61, 400L352, 352L368.39, 400z" fill="#727272" fill-opacity="1" class="Black" />
  </g>
</svg>