<?xml version='1.0' encoding='UTF-8'?>
<svg viewBox="-1.9975 -1.9975 32 32" xmlns="http://www.w3.org/2000/svg">
  <g transform="matrix(0.0547, 0, 0, 0.0547, 0, 0)">
    <path d="M428, 320L276, 320A20 20 0 0 0 256, 340L256, 460A20 20 0 0 0 276, 480L428, 480A20 20 0 0 0 448, 460L448, 340A20 20 0 0 0 428, 320zM176, 352L128, 352L128, 48A16 16 0 0 0 112, 32L80, 32A16 16 0 0 0 64, 48L64, 352L16, 352C1.81, 352 -5.37, 369.24 4.71, 379.31L84.71, 475.31A16 16 0 0 0 107.33, 475.31L187.33, 379.31C197.35, 369.26 190.22, 352 176, 352zM484, 32L284, 32A28 28 0 0 0 256, 60L256, 228A28 28 0 0 0 284, 256L484, 256A28 28 0 0 0 512, 228L512, 60A28 28 0 0 0 484, 32z" fill="#727272" fill-opacity="1" class="Black" />
  </g>
</svg>