<?xml version='1.0' encoding='UTF-8'?>
<svg viewBox="-2.0013 0 32 32" xmlns="http://www.w3.org/2000/svg">
  <g transform="matrix(0.0625, 0, 0, 0.0625, 0, 0)">
    <path d="M16, 160L64, 160L64, 464A16 16 0 0 0 80, 480L112, 480A16 16 0 0 0 128, 464L128, 160L176, 160C190.21, 160 197.38, 142.76 187.31, 132.69L107.31, 36.69A16 16 0 0 0 84.69, 36.69L4.69, 132.69C-5.35, 142.74 1.78, 160 16, 160zM416, 288L288, 288A16 16 0 0 0 272, 304L272, 336A16 16 0 0 0 288, 352L344, 352L282.74, 422.45A32 32 0 0 0 272, 446.37L272, 464A16 16 0 0 0 288, 480L416, 480A16 16 0 0 0 432, 464L432, 432A16 16 0 0 0 416, 416L360, 416L421.26, 345.55A32 32 0 0 0 432, 321.63L432, 304A16 16 0 0 0 416, 288zM447.06, 202.62L387.79, 42.62A16 16 0 0 0 372.72, 32L331.28, 32A16 16 0 0 0 316.21, 42.62L256.94, 202.62A16 16 0 0 0 272, 224L296.83, 224A16 16 0 0 0 312.06, 212.92L316.48, 200L387.48, 200L391.89, 212.92A16 16 0 0 0 407.16, 224L432, 224A16 16 0 0 0 447.06, 202.62zM335.61, 144L352, 96L368.39, 144z" fill="#727272" fill-opacity="1" class="Black" />
  </g>
</svg>