<?xml version='1.0' encoding='UTF-8'?>
<svg viewBox="-1.9999 -1.9974 32 31.9975" xmlns="http://www.w3.org/2000/svg">
  <g transform="matrix(0.0547, 0, 0, 0.0547, 0, 0)">
    <path d="M276, 192L428, 192A20 20 0 0 0 448, 172L448, 52A20 20 0 0 0 428, 32L276, 32A20 20 0 0 0 256, 52L256, 172A20 20 0 0 0 276, 192zM484, 256L284, 256A28 28 0 0 0 256, 284L256, 452A28 28 0 0 0 284, 480L484, 480A28 28 0 0 0 512, 452L512, 284A28 28 0 0 0 484, 256zM107.31, 36.69A16 16 0 0 0 84.69, 36.69L4.69, 132.69C-5.35, 142.74 1.77, 160 16, 160L64, 160L64, 464A16 16 0 0 0 80, 480L112, 480A16 16 0 0 0 128, 464L128, 160L176, 160C190.21, 160 197.38, 142.76 187.31, 132.69z" fill="#727272" fill-opacity="1" class="Black" />
  </g>
</svg>