<?xml version='1.0' encoding='UTF-8'?>
<svg viewBox="-1.9975 -1.9975 32 32" xmlns="http://www.w3.org/2000/svg">
  <g transform="matrix(0.0547, 0, 0, 0.0547, 0, 0)">
    <path d="M275.9, 192L428.1, 192A20 20 0 0 0 448, 172L448, 52A20 20 0 0 0 428.1, 32L275.9, 32A20 20 0 0 0 256, 52L256, 172A20 20 0 0 0 275.9, 192zM484, 256L284, 256A28 28 0 0 0 256, 284L256, 452A28 28 0 0 0 284, 480L484, 480A28 28 0 0 0 512, 452L512, 284A28 28 0 0 0 484, 256zM176, 352L128, 352L128, 48A16 16 0 0 0 112, 32L80, 32A16 16 0 0 0 64, 48L64, 352L16, 352C1.81, 352 -5.37, 369.24 4.71, 379.31L84.71, 475.31A16 16 0 0 0 107.33, 475.31L187.33, 379.31C197.35, 369.26 190.22, 352 176, 352z" fill="#727272" fill-opacity="1" class="Black" />
  </g>
</svg>