<?xml version='1.0' encoding='UTF-8'?>
<svg viewBox="-1.9999 -2.0086 31.9975 32" xmlns="http://www.w3.org/2000/svg">
  <g transform="matrix(0.9993, 0, 0, 0.9993, 0, 0)">
    <g transform="matrix(0.0547, 0, 0, 0.0547, 0, 0)">
      <path d="M272.5, 6.6C263.2, -2.2 248.7, -2.2 239.4, 6.6C191.4, 52.4 53.6, 185 32, 208.9C12.7, 230.2 0, 258.3 0, 289.5C0, 360 54.9, 415.7 123.5, 416C160.2, 416.1 193.2, 400.3 216, 375.1C215.9, 411.7 215.2, 427.4 163.6, 450.5C149.5, 456.8 141.4, 472.1 144.9, 487.1C148.2, 501.6 161.2, 511.9 176.1, 511.9L335.5, 511.9C351, 511.9 364.7, 501.1 367.6, 485.9C370.4, 471.3 362.8, 456.7 349.2, 450.7C297.6, 427.7 296.4, 412.6 296.2, 375.1C319.6, 400.9 353.7, 416.9 391.5, 415.9C459, 414.2 512.2, 359.4 512.2, 291.9C512.2, 259.7 500, 230.7 480.2, 208.8C458.4, 185 320.6, 52.4 272.5, 6.6z" fill="#727272" fill-opacity="1" class="Black" />
    </g>
  </g>
</svg>