<?xml version='1.0' encoding='UTF-8'?>
<svg viewBox="-2.0025 -2.0013 32 32" xmlns="http://www.w3.org/2000/svg">
  <g transform="matrix(0.0547, 0, 0, 0.0547, 0, 0)">
    <path d="M324.42, 103.15L384, 128L408.84, 187.58A8 8 0 0 0 423.16, 187.58L448, 128L507.58, 103.15A8 8 0 0 0 507.58, 88.84L448, 64L423.16, 4.42A8 8 0 0 0 408.84, 4.42L384, 64L324.42, 88.84A8 8 0 0 0 324.42, 103.15zM507.58, 408.84L448, 384L423.16, 324.42A8 8 0 0 0 408.84, 324.42L384, 384L324.42, 408.84A8 8 0 0 0 324.42, 423.16L384, 448L408.84, 507.58A8 8 0 0 0 423.16, 507.58L448, 448L507.58, 423.16A8 8 0 0 0 507.58, 408.84zM384, 255.64A16.06 16.06 0 0 0 375.16, 241.31L262.59, 184.92L206.31, 72.15C200.87, 61.28 183.12, 61.28 177.69, 72.15L121.41, 184.92L8.84, 241.31A16 16 0 0 0 8.84, 269.98L121.41, 326.37L177.69, 439.14A16 16 0 0 0 206.31, 439.14L262.59, 326.37L375.16, 270A16.07 16.07 0 0 0 384, 255.64z" fill="#727272" fill-opacity="1" class="Black" />
  </g>
</svg>