<?xml version='1.0' encoding='UTF-8'?>
<svg viewBox="-2.0424 -4.7992 32 32" xmlns="http://www.w3.org/2000/svg">
  <g transform="matrix(0.9988, 0, 0, 0.9988, 0, 0)">
    <g transform="matrix(0.0438, 0, 0, 0.0438, 0, 0)">
      <path d="M591, 0L335, 0A48 48 0 0 0 287, 48L287, 464A48 48 0 0 0 335, 512L591, 512A48 48 0 0 0 639, 464L639, 48A48 48 0 0 0 591, 0zM463, 64A48 48 0 1 1 415, 112A48 48 0 0 1 463, 64zM463, 448A112 112 0 1 1 575, 336A112 112 0 0 1 463, 448zM463, 272A64 64 0 1 0 527, 336A64 64 0 0 0 463, 272zM255, 48A79.24 79.24 0 0 1 271.41, 0L47, 0A48 48 0 0 0 -1, 48L-1, 464A48 48 0 0 0 47, 512L271.41, 512A79.24 79.24 0 0 1 255, 464L255, 414.22A112 112 0 1 1 255, 257.78zM175, 160A48 48 0 1 1 223, 112A48 48 0 0 1 175, 160zM111, 336A64 64 0 1 0 175, 272A64 64 0 0 0 111, 336z" fill="#727272" fill-opacity="1" class="Black" />
    </g>
  </g>
</svg>