<?xml version='1.0' encoding='UTF-8'?>
<svg viewBox="-5.5003 -2 32 32" xmlns="http://www.w3.org/2000/svg">
  <g transform="matrix(0.0547, 0, 0, 0.0547, 0, 0)">
    <path d="M192, 272A64 64 0 1 0 256, 336A64 64 0 0 0 192, 272zM336, 0L48, 0A48 48 0 0 0 0, 48L0, 464A48 48 0 0 0 48, 512L336, 512A48 48 0 0 0 384, 464L384, 48A48 48 0 0 0 336, 0zM192, 64A48 48 0 1 1 144, 112A48 48 0 0 1 192, 64zM192, 448A112 112 0 1 1 304, 336A112 112 0 0 1 192, 448z" fill="#727272" fill-opacity="1" class="Black" />
  </g>
</svg>