<?xml version='1.0' encoding='UTF-8'?>
<svg viewBox="-1.9973 -3.555 31.995 32" xmlns="http://www.w3.org/2000/svg">
  <g transform="matrix(0.0486, 0, 0, 0.0486, 0, 0)">
    <path d="M382.29, 26.13C379.5, 17.75 384.02, 8.69 392.41, 5.89L407.58, 0.83C415.96, -1.97 425.03, 2.56 427.82, 10.95L453.71, 88.63A32.04 32.04 0 0 1 451.98, 113.06L424.83, 167.36L398.9, 176L394.23, 176L389.01, 149.88C388.3, 146.3 387.21, 142.3 385.8, 138.09L406.09, 97.51L382.29, 26.13zM151.17, 167.35L177.1, 176L181.77, 176L186.99, 149.88C187.71, 146.3 188.79, 142.3 190.2, 138.09L169.91, 97.51L193.71, 26.12C196.5, 17.74 191.98, 8.68 183.59, 5.88L168.42, 0.82C160.04, -1.98 150.97, 2.55 148.18, 10.94L122.29, 88.62A32.04 32.04 0 0 0 124.02, 113.05L151.17, 167.35zM568.87, 371.56L555.56, 380.44C548.21, 385.34 538.27, 383.35 533.37, 376L485.37, 304L438.31, 304L499.14, 401.33A31.988 31.988 0 0 1 504, 418.29L504, 496C504, 504.84 496.84, 512 488, 512L472, 512C463.16, 512 456, 504.84 456, 496L456, 422.89L381.92, 304.36C382.93, 318.41 384, 332.47 384, 346.57C384, 399.64 343.24, 448 288, 448C232.76, 448 192, 399.64 192, 346.57C192, 332.47 193.08, 318.41 194.08, 304.36L120, 422.89L120, 496C120, 504.84 112.84, 512 104, 512L88, 512C79.16, 512 72, 504.84 72, 496L72, 418.29C72, 412.29 73.69, 406.41 76.86, 401.33L137.69, 304L90.63, 304L42.63, 376C37.73, 383.35 27.79, 385.34 20.44, 380.44L7.13, 371.56C-0.22, 366.66 -2.21, 356.72 2.69, 349.37L55.44, 270.25A32.007 32.007 0 0 1 82.07, 256L160, 256L91.01, 231.64A32.03 32.03 0 0 1 74.5, 219.03L20.9, 138.62C16, 131.27 17.99, 121.33 25.34, 116.43L38.65, 107.55C46, 102.65 55.94, 104.64 60.84, 111.99L111.4, 187.82L171.9, 208L208, 208L218.37, 156.15C220.56, 145.18 235.74, 96 288, 96C340.26, 96 355.44, 145.18 357.63, 156.15L368, 208L404.1, 208L464.59, 187.83L515.16, 112C520.06, 104.65 529.99, 102.66 537.35, 107.56L550.66, 116.44C558.01, 121.34 560, 131.27 555.1, 138.63L501.5, 219.04A32.03 32.03 0 0 1 484.99, 231.65L416, 256L493.94, 256C504.64, 256 514.63, 261.35 520.56, 270.25L573.31, 349.37C578.21, 356.73 576.23, 366.66 568.87, 371.56zM300, 320L326.4, 284.8C330.36, 279.53 326.59, 272 320, 272L256, 272C249.41, 272 245.64, 279.53 249.6, 284.8L276, 320L249.6, 355.2C245.64, 360.47 249.41, 368 256, 368L320, 368C326.59, 368 330.36, 360.47 326.4, 355.2L300, 320z" fill="#727272" fill-opacity="1" class="Black" />
  </g>
</svg>