<?xml version='1.0' encoding='UTF-8'?>
<svg viewBox="-2 -3.554 32 31.9975" xmlns="http://www.w3.org/2000/svg">
  <g transform="matrix(0.0486, 0, 0, 0.0486, 0, 0)">
    <path d="M567.16, 233.86C510.62, 174.54 469.24, 102.22 446.6, 23.15L446.58, 23.09C441.86, 6.61 425.08, -3.17 408.58, 0.95L408.51, 0.97A497.663 497.663 0 0 1 167.48, 0.97L167.41, 0.95C150.91, -3.17 134.13, 6.61 129.41, 23.09L129.39, 23.15C106.76, 102.22 65.38, 174.54 8.84, 233.86C-2.95, 246.23 -2.95, 265.78 8.84, 278.15C65.38, 337.47 106.76, 409.79 129.4, 488.86L129.42, 488.92C134.14, 505.4 150.92, 515.18 167.42, 511.06L167.49, 511.04A497.663 497.663 0 0 1 408.52, 511.04L408.59, 511.06C425.09, 515.18 441.87, 505.4 446.59, 488.92L446.62, 488.8C469.25, 409.76 510.61, 337.48 567.12, 278.18L567.16, 278.14C578.95, 265.78 578.95, 246.22 567.16, 233.86zM365.54, 73.71L342.02, 114.45A264.971 264.971 0 0 1 233.98, 114.45L210.46, 73.71A563.283 563.283 0 0 0 365.54, 73.71zM288, 208.01L264.57, 167.43A313.24 313.24 0 0 0 311.43, 167.43L288, 208.01zM302.43, 232L301.85, 232L301.56, 231.5L302.43, 232zM288, 303.99L311.44, 344.58C303.64, 344 295.82, 343.59 288, 343.59C280.18, 343.59 272.37, 344 264.56, 344.58L288, 303.99zM223, 191.41L246.43, 232L199.56, 232C208.37, 219.07 216.21, 205.5 223, 191.41zM169.61, 413.06A574.3 574.3 0 0 0 93.29, 280L138.4, 280C162.62, 307.11 181.06, 339.04 192.41, 373.56L169.61, 413.06zM138.4, 232L93.29, 232A574.3 574.3 0 0 0 169.61, 98.94L192.42, 138.44A264.912 264.912 0 0 1 138.4, 232zM246.43, 280L223, 320.59A314.825 314.825 0 0 0 199.56, 280L246.43, 280zM288, 432.28C262.05, 432.28 236.18, 434.71 210.46, 438.29L233.98, 397.56C269.56, 390.14 306.43, 390.14 342.02, 397.56L365.54, 438.29C339.82, 434.71 313.95, 432.28 288, 432.28zM353, 320.59L329.57, 280L376.44, 280A314.825 314.825 0 0 0 353, 320.59zM329.56, 232L353, 191.41A314.825 314.825 0 0 0 376.44, 232L329.56, 232zM406.39, 413.06L383.58, 373.56C394.93, 339.04 413.38, 307.11 437.6, 280L482.71, 280A574.3 574.3 0 0 0 406.39, 413.06zM437.6, 232A264.912 264.912 0 0 1 383.58, 138.44L406.39, 98.94A574.3 574.3 0 0 0 482.71, 232L437.6, 232z" fill="#727272" fill-opacity="1" class="Black" />
  </g>
</svg>