<?xml version='1.0' encoding='UTF-8'?>
<svg viewBox="13.13 -1.3393 32 31.995" xmlns="http://www.w3.org/2000/svg">
  <g transform="matrix(1.0008, 0, 0, 1.0008, 0, 0)">
    <g transform="matrix(0.0766, 0, 0, 0.0766, 0, 0)">
      <path d="M456.433, 371.72L428.643, 355.675C421.451, 351.523 418.591, 342.539 422.156, 335.039C447.976, 280.711 445.722, 216.437 415.388, 164.009C385.123, 111.48 330.586, 77.388 270.628, 72.585C262.35, 71.922 256, 64.953 256, 56.649L256, 24.56C256, 15.25 263.916, 7.951 273.204, 8.6C354.999, 14.317 429.616, 60.502 470.815, 132.008C512.116, 203.393 514.805, 291.104 478.857, 364.8C474.775, 373.169 464.496, 376.375 456.433, 371.72z" fill="#727272" fill-opacity="1" class="Black" />
    </g>
  </g>
</svg>