<?xml version='1.0' encoding='UTF-8'?>
<svg viewBox="-2 -2 32 32" xmlns="http://www.w3.org/2000/svg">
  <g transform="matrix(0.0547, 0, 0, 0.0547, 0, 0)">
    <path d="M304, 48C304, 74.51 282.51, 96 256, 96C229.49, 96 208, 74.51 208, 48C208, 21.49 229.49, 0 256, 0C282.51, 0 304, 21.49 304, 48zM256, 416C229.49, 416 208, 437.49 208, 464C208, 490.51 229.49, 512 256, 512C282.51, 512 304, 490.51 304, 464C304, 437.49 282.51, 416 256, 416zM464, 208C437.49, 208 416, 229.49 416, 256C416, 282.51 437.49, 304 464, 304C490.51, 304 512, 282.51 512, 256C512, 229.49 490.51, 208 464, 208zM96, 256C96, 229.49 74.51, 208 48, 208C21.49, 208 0, 229.49 0, 256C0, 282.51 21.49, 304 48, 304C74.51, 304 96, 282.51 96, 256zM108.922, 355.078C82.412, 355.078 60.922, 376.568 60.922, 403.078C60.922, 429.588 82.412, 451.078 108.922, 451.078C135.432, 451.078 156.922, 429.588 156.922, 403.078C156.922, 376.569 135.431, 355.078 108.922, 355.078zM403.078, 355.078C376.568, 355.078 355.078, 376.568 355.078, 403.078C355.078, 429.588 376.568, 451.078 403.078, 451.078C429.588, 451.078 451.078, 429.588 451.078, 403.078C451.078, 376.569 429.588, 355.078 403.078, 355.078zM108.922, 60.922C82.412, 60.922 60.922, 82.412 60.922, 108.922C60.922, 135.432 82.412, 156.922 108.922, 156.922C135.432, 156.922 156.922, 135.432 156.922, 108.922C156.922, 82.412 135.431, 60.922 108.922, 60.922z" fill="#727272" fill-opacity="1" class="Black" />
  </g>
</svg>