<?xml version='1.0' encoding='UTF-8'?>
<svg viewBox="-1.9999 -1.9999 32 32" xmlns="http://www.w3.org/2000/svg">
  <g transform="matrix(0.0547, 0, 0, 0.0547, 0, 0)">
    <path d="M224, 32C224, 14.33 209.67, 0 192, 0L128, 0C110.33, 0 96, 14.33 96, 32L96, 128L224, 128L224, 32zM480, 128C462.33, 128 448, 142.33 448, 160C448, 177.67 462.33, 192 480, 192C497.67, 192 512, 177.67 512, 160C512, 142.33 497.67, 128 480, 128zM224, 160L96, 160C42.98, 160 0, 202.98 0, 256L0, 480C0, 497.67 14.33, 512 32, 512L288, 512C305.67, 512 320, 497.67 320, 480L320, 256C320, 202.98 277.02, 160 224, 160zM160, 416C115.82, 416 80, 380.18 80, 336C80, 291.82 115.82, 256 160, 256C204.18, 256 240, 291.82 240, 336C240, 380.18 204.18, 416 160, 416zM480, 96C497.67, 96 512, 81.67 512, 64C512, 46.33 497.67, 32 480, 32C462.33, 32 448, 46.33 448, 64C448, 81.67 462.33, 96 480, 96zM384, 128C366.33, 128 352, 142.33 352, 160C352, 177.67 366.33, 192 384, 192C401.67, 192 416, 177.67 416, 160C416, 142.33 401.67, 128 384, 128zM288, 32C270.33, 32 256, 46.33 256, 64C256, 81.67 270.33, 96 288, 96C305.67, 96 320, 81.67 320, 64C320, 46.33 305.67, 32 288, 32zM384, 32C366.33, 32 352, 46.33 352, 64C352, 81.67 366.33, 96 384, 96C401.67, 96 416, 81.67 416, 64C416, 46.33 401.67, 32 384, 32zM480, 224C462.33, 224 448, 238.33 448, 256C448, 273.67 462.33, 288 480, 288C497.67, 288 512, 273.67 512, 256C512, 238.33 497.67, 224 480, 224z" fill="#727272" fill-opacity="1" class="Black" />
  </g>
</svg>