<?xml version='1.0' encoding='UTF-8'?>
<svg viewBox="-1.9999 -3.5552 32 32" xmlns="http://www.w3.org/2000/svg">
  <g transform="matrix(0.0486, 0, 0, 0.0486, 0, 0)">
    <path d="M571.31, 251.31L548.69, 228.69C542.44, 222.44 532.31, 222.44 526.06, 228.69L480, 274.75L433.94, 228.69C427.69, 222.44 417.56, 222.44 411.31, 228.69L388.69, 251.31C382.44, 257.56 382.44, 267.69 388.69, 273.94L434.75, 320L388.69, 366.06C382.44, 372.31 382.44, 382.44 388.69, 388.69L411.31, 411.31C417.56, 417.56 427.69, 417.56 433.94, 411.31L480, 365.25L526.06, 411.31C532.31, 417.56 542.44, 417.56 548.69, 411.31L571.31, 388.69C577.56, 382.44 577.56, 372.31 571.31, 366.06L525.25, 320L571.31, 273.94C577.56, 267.69 577.56, 257.56 571.31, 251.31zM552, 0L307.65, 0C293.11, 0 280.39, 9.8 276.7, 23.87L191.91, 346.67L133.5, 240.57A32.008 32.008 0 0 0 105.47, 224L24, 224C10.75, 224 0, 234.74 0, 248L0, 296C0, 309.25 10.75, 320 24, 320L67.62, 320L156.5, 483.73C168.99, 503.5 186.3, 512 204.94, 512C222.21, 512 249.38, 503 259.22, 470.52L357.03, 96L552, 96C565.25, 96 576, 85.25 576, 72L576, 24C576, 10.74 565.25, 0 552, 0z" fill="#727272" fill-opacity="1" class="Black" />
  </g>
</svg>