<?xml version='1.0' encoding='UTF-8'?>
<svg viewBox="-2.0011 -1.9998 32 31.9975" xmlns="http://www.w3.org/2000/svg">
  <g transform="matrix(0.0547, 0, 0, 0.0547, 0, 0)">
    <path d="M479.85, 448L448.92, 448C467.11, 429.6 479.85, 405.88 479.85, 384C479.85, 357.45 457.77, 331.19 432, 322.91L432, 224L479.85, 224C500.25, 224 515.55, 205.09 511.28, 185.13C500.84, 136.42 466.72, 96 415.87, 96L415.87, 64C367.86, 64 341.65, 126.73 326.47, 172.29L261.13, 368.81C259.74, 373 255.21, 375.27 251.02, 373.88L235.83, 368.83C231.64, 367.44 229.37, 362.91 230.76, 358.71L265.29, 254.86C312.5, 112.89 214.16, 0 127.96, 0C57.29, 0 0, 57.31 0, 128C0, 198.69 57.29, 256 127.96, 256C128.23, 256 128.48, 255.92 128.75, 255.92C107.82, 283.59 95.19, 317.88 96.01, 355.46C97.94, 443.88 175.85, 512 264.27, 512L495.85, 512C504.68, 512 511.84, 504.84 511.84, 496L511.84, 480C511.84, 462.33 497.52, 448 479.85, 448zM431.87, 144C440.7, 144 447.86, 151.16 447.86, 160C447.86, 168.84 440.7, 176 431.87, 176C423.04, 176 415.87, 168.84 415.87, 160C415.87, 151.16 423.04, 144 431.87, 144z" fill="#727272" fill-opacity="1" class="Black" />
  </g>
</svg>