<?xml version='1.0' encoding='UTF-8'?>
<svg viewBox="-2 -1.9975 32 31.9975" xmlns="http://www.w3.org/2000/svg">
  <g transform="matrix(0.0547, 0, 0, 0.0547, 0, 0)">
    <path d="M32, 512L480, 512L480, 448L32, 448L32, 512zM416, 256L349.44, 256C333.18, 256 320, 242.82 320, 226.56L320, 217.1C320, 189.73 328.88, 163.69 341.46, 139.38C350.57, 121.77 354.36, 100.99 350.51, 78.96C343.74, 40.18 312.04, 8.26 273.25, 1.51C212.62, -9.04 160, 37.33 160, 96C160, 110.16 163.12, 123.54 168.69, 135.58C182.02, 164.43 192, 194.7 192, 226.49L192, 226.56C192, 242.82 178.82, 256 162.56, 256L96, 256C42.98, 256 0, 298.98 0, 352L0, 384C0, 401.67 14.33, 416 32, 416L480, 416C497.67, 416 512, 401.67 512, 384L512, 352C512, 298.98 469.02, 256 416, 256z" fill="#727272" fill-opacity="1" class="Black" />
  </g>
</svg>