<?xml version='1.0' encoding='UTF-8'?>
<svg viewBox="-1.9975 -2.6243 32 32" xmlns="http://www.w3.org/2000/svg">
  <g transform="matrix(1.0009, 0, 0, 1.0009, 0, 0)">
    <g transform="matrix(0.0522, 0, 0, 0.0522, 0, 0)">
      <path d="M508.55, 171.51L362.18, 150.2L296.77, 17.81C290.89, 5.98 279.42, 0 267.95, 0C256.55, 0 245.16, 5.9 239.26, 17.81L173.83, 150.19L27.45, 171.48C1.2, 175.28 -9.32, 207.57 9.71, 226.07L115.6, 329.07L90.54, 474.55C86.98, 495.33 103.57, 512 122.15, 512C127.08, 512 132.15, 510.83 137.02, 508.25L267.97, 439.57L398.91, 508.27C403.77, 510.82 408.83, 511.98 413.74, 511.98C432.34, 511.98 448.96, 495.37 445.4, 474.58L420.37, 329.09L526.28, 226.11C545.32, 207.61 534.8, 175.31 508.55, 171.51zM386.81, 294.71L368.69, 312.33L372.97, 337.21L392.49, 450.66L290.36, 397.07L267.98, 385.33L268.01, 68.14L319.04, 171.43L330.22, 194.06L355.23, 197.7L469.46, 214.33L386.81, 294.71z" fill="#727272" fill-opacity="1" class="Black" />
    </g>
  </g>
</svg>