<?xml version='1.0' encoding='UTF-8'?>
<svg viewBox="-1.9988 -2 32 32" xmlns="http://www.w3.org/2000/svg">
  <g transform="matrix(0.0547, 0, 0, 0.0547, 0, 0)">
    <path d="M336, 160L362.7, 106.7L416, 80L362.7, 53.3L336, 0L309.3, 53.3L256, 80L309.3, 106.7L336, 160zM480, 192L464, 160L448, 192L416, 208L448, 224L464, 256L480, 224L512, 208L480, 192zM364.3, 267.3L259.5, 252L212.6, 156.8C204.2, 139.8 179.9, 139.6 171.4, 156.8L124.5, 252L19.7, 267.3C0.9, 270 -6.7, 293.2 7, 306.5L82.9, 380.5L64.9, 485.1C61.7, 504 81.6, 518.2 98.2, 509.3L192, 459.9L285.8, 509.3C302.5, 518.1 322.3, 504 319.1, 485.1L301.2, 380.5L377.1, 306.5C390.7, 293.2 383.1, 270 364.3, 267.3z" fill="#727272" fill-opacity="1" class="Black" />
  </g>
</svg>