<?xml version='1.0' encoding='UTF-8'?>
<svg viewBox="-2.8735 -2 32 32" xmlns="http://www.w3.org/2000/svg">
  <g transform="matrix(0.0547, 0, 0, 0.0547, 0, 0)">
    <path d="M471.99, 334.43L336.06, 256L471.99, 177.57C479.65, 173.15 482.27, 163.37 477.85, 155.71L445.83, 100.28C441.41, 92.63 431.62, 90 423.96, 94.42L288.03, 172.85L288.03, 16C288.03, 7.16 280.86, 0 272.02, 0L207.98, 0C199.14, 0 191.97, 7.16 191.97, 16L191.97, 172.86L56.04, 94.43C48.38, 90.01 38.59, 92.64 34.17, 100.29L2.15, 155.71C-2.27, 163.36 0.35, 173.15 8.01, 177.57L143.94, 256L8.01, 334.43C0.35, 338.85 -2.27, 348.64 2.15, 356.29L34.17, 411.72C38.59, 419.37 48.38, 421.99 56.04, 417.58L191.97, 339.15L191.97, 496C191.97, 504.84 199.14, 512 207.98, 512L272.02, 512C280.86, 512 288.03, 504.84 288.03, 496L288.03, 339.14L423.96, 417.57C431.62, 421.99 441.41, 419.37 445.83, 411.71L477.85, 356.28C482.27, 348.63 479.65, 338.85 471.99, 334.43z" fill="#727272" fill-opacity="1" class="Black" />
  </g>
</svg>