<?xml version='1.0' encoding='UTF-8'?>
<svg viewBox="-2.0025 -2.0025 32 32" xmlns="http://www.w3.org/2000/svg">
  <g transform="matrix(0.0547, 0, 0, 0.0547, 0, 0)">
    <path d="M505.3, 247.4L312.8, 199.3L264.6, 6.7C262.4, -2.3 249.6, -2.3 247.4, 6.7L199.3, 199.3L6.7, 247.4C-2.3, 249.6 -2.3, 262.4 6.7, 264.6L199.2, 312.7L247.3, 505.2C249.5, 514.2 262.3, 514.2 264.5, 505.2L312.6, 312.7L505.2, 264.6C514.2, 262.4 514.2, 249.6 505.3, 247.4zM152.9, 177.9L172.8, 172.9L177.8, 153L109, 97.9C101.5, 91.9 91.8, 101.6 97.8, 109.1L152.9, 177.9zM359.1, 334.1L339.2, 339.1L334.2, 359L403, 414.1C410.5, 420.1 420.2, 410.4 414.2, 402.9L359.1, 334.1zM359.1, 177.9L414.2, 109.1C420.2, 101.6 410.5, 91.9 403, 97.9L334.2, 152.9L339.2, 172.8L359.1, 177.9zM152.9, 334.1L97.9, 402.9C91.9, 410.4 101.6, 420.1 109.1, 414.1L177.9, 359L172.9, 339.1L152.9, 334.1z" fill="#727272" fill-opacity="1" class="Black" />
  </g>
</svg>