<?xml version='1.0' encoding='UTF-8'?>
<svg viewBox="-1.9999 -3.5564 32 31.9975" xmlns="http://www.w3.org/2000/svg">
  <g transform="matrix(0.0486, 0, 0, 0.0486, 0, 0)">
    <path d="M368.85, 96C341.54, 96 316.96, 119.7 306.23, 156.36C299.99, 177.72 279.48, 262.57 133.07, 326.36C-5.73, 386.71 297, 495.81 454.33, 316.54C492.54, 273.01 487.13, 190.54 442.76, 139.95C417.86, 111.58 391.61, 96 368.85, 96zM384, 255.9A32 32 0 1 1 416, 223.9A32 32 0 0 1 384, 255.9zM514.92, 76.65C467.92, 23.11 416.28, 0 368.85, 0C298.27, 0 237, 51.17 214.1, 129.38C165, 269.31 1.37, 212.32 0, 351.63C-1.19, 473.24 139.27, 516.24 256, 511.63C343.78, 508.23 443.32, 474.54 526.49, 379.79C596.78, 299.75 591.6, 164 514.92, 76.65zM478.39, 337.65C402.24, 424.4 314.07, 445.41 253.57, 447.75C215.92, 449.13 122.05, 441.23 82.33, 401.13C79.84, 398.62 22.89, 339.37 120.33, 296.96C191.97, 265.77 252.63, 225.72 275.56, 147.36C290.34, 96.7 327, 64 368.85, 64C401.43, 64 435.3, 83 466.85, 118.88C522, 181.72 527.3, 281.91 478.39, 337.64z" fill="#727272" fill-opacity="1" class="Black" />
  </g>
</svg>