<?xml version='1.0' encoding='UTF-8'?>
<svg viewBox="-1.9999 -1.549 31.9975 32" xmlns="http://www.w3.org/2000/svg">
  <g transform="matrix(0.999, 0, 0, 0.999, 0, 0)">
    <g transform="matrix(0.0565, 0, 0, 0.0565, 0, 0)">
      <path d="M248, 8C111.03, 8 0, 119.03 0, 256C0, 392.97 111.03, 504 248, 504C384.97, 504 496, 392.97 496, 256C496, 119.03 384.97, 8 248, 8zM248, 72C338.53, 72 413.82, 137.77 429.03, 224L335.13, 224C324.04, 204.95 303.64, 192 280.01, 192L216.01, 192C192.38, 192 171.97, 204.95 160.89, 224L66.99, 224C82.18, 137.77 157.47, 72 248, 72zM66.97, 288L168, 288L216, 352L216, 437.03C140.19, 423.65 80.35, 363.81 66.97, 288zM280, 437.03L280, 352L328, 288L429.03, 288C415.65, 363.81 355.81, 423.65 280, 437.03z" fill="#727272" fill-opacity="1" class="Black" />
    </g>
  </g>
</svg>