<?xml version='1.0' encoding='UTF-8'?>
<svg viewBox="-2 -1.9988 32 32" xmlns="http://www.w3.org/2000/svg">
  <g transform="matrix(0.0547, 0, 0, 0.0547, 0, 0)">
    <path d="M447.1, 112C412.9, 112.5 384.8, 140.4 384.1, 174.6C383.6, 198.9 396.6, 220.2 416.1, 231.4L416.1, 344C416.1, 401.3 365.9, 448 304.1, 448C244.1, 448 194.9, 403.9 192.2, 348.8C265, 333.8 320, 269.2 320, 192L320, 36.6C320, 25.2 311.9, 15.3 300.7, 13.1L237.8, 0.5C224.8, -2.1 212.2, 6.3 209.6, 19.3L206.4, 35C203.8, 48 212.2, 60.6 225.2, 63.2L255.9, 69.3L255.9, 190.7C255.9, 243.6 213.7, 287.4 160.8, 287.9C107.4, 288.4 63.9, 245.2 63.9, 191.9L63.9, 69.4L94.6, 63.3C107.6, 60.7 116, 48.1 113.4, 35.1L110.3, 19.4C107.7, 6.4 95.1, -2 82.1, 0.6L19.3, 13C8.1, 15.3 0, 25.1 0, 36.6L0, 192C0, 269.3 55.1, 334 128.1, 348.8C130.7, 439.2 208.6, 512 304, 512C401, 512 480, 436.6 480, 344L480, 231.4C499.1, 220.3 512, 199.7 512, 176C512, 140.3 482.8, 111.5 447.1, 112zM448, 192C439.2, 192 432, 184.8 432, 176C432, 167.2 439.2, 160 448, 160C456.8, 160 464, 167.2 464, 176C464, 184.8 456.8, 192 448, 192z" fill="#727272" fill-opacity="1" class="Black" />
  </g>
</svg>