<?xml version='1.0' encoding='UTF-8'?>
<svg viewBox="-5.5003 -2 32 32" xmlns="http://www.w3.org/2000/svg">
  <g transform="matrix(0.0547, 0, 0, 0.0547, 0, 0)">
    <path d="M368, 0L80, 0C71.2, 0 64, 7.2 64, 16L64, 80C64, 88.8 71.2, 96 80, 96L368, 96C376.8, 96 384, 88.8 384, 80L384, 16C384, 7.2 376.8, 0 368, 0zM96, 251.5L57, 277.5C-1.8, 316.7 -17.7, 396.2 21.5, 455C46.2, 492 86.7, 512 128.1, 512C152.5, 512 177.2, 505 199, 490.5L280.7, 436C325.3, 406.3 351.9, 356.5 351.9, 302.9L351.9, 128L96, 128L96, 251.5z" fill="#727272" fill-opacity="1" class="Black" />
  </g>
</svg>