<?xml version='1.0' encoding='UTF-8'?>
<svg viewBox="-1.9998 -2.0011 31.9975 32" xmlns="http://www.w3.org/2000/svg">
  <g transform="matrix(0.0547, 0, 0, 0.0547, 0, 0)">
    <path d="M384, 96C329.71, 96 293.14, 128.57 274.83, 160L256, 160C220.66, 160 192, 131.35 192, 96L192, 16C192, 7.16 184.84, 0 176, 0L144, 0C135.16, 0 128, 7.16 128, 16L128, 96C128, 166.69 185.3, 224 256, 224L256.49, 224C256.42, 225.85 256, 227.63 256, 229.5L256, 288C256, 323.35 227.34, 352 192, 352L128, 352C57.3, 352 0, 409.31 0, 480L0, 496C0, 504.84 7.16, 512 16, 512L48, 512C56.84, 512 64, 504.84 64, 496L64, 480C64, 442.37 97.96, 428.79 117.92, 428.79C135.03, 428.79 147.51, 435.5 158.99, 446.99C226.21, 514.21 297.63, 512 308.36, 512C420.84, 512 512.01, 420.83 512.01, 308.35L512.01, 224C512, 153.31 454.7, 96 384, 96zM448, 308.35C448, 317.58 446.99, 326.56 445.27, 335.3C423.71, 341.38 400.26, 336.27 384, 320C366.63, 302.63 341.09, 297.86 318.4, 306.07C319.24, 300.14 320, 294.17 320, 288L320, 229.5C320, 193.35 346.38, 160 384, 160C419.29, 160 448, 188.71 448, 224L448, 308.35z" fill="#727272" fill-opacity="1" class="Black" />
  </g>
</svg>