<?xml version='1.0' encoding='UTF-8'?>
<svg viewBox="-3.747 -2 31.9975 32" xmlns="http://www.w3.org/2000/svg">
  <g transform="matrix(0.0547, 0, 0, 0.0547, 0, 0)">
    <path d="M432, 304C432, 418.9 338.9, 512 224, 512C109.1, 512 16, 418.9 16, 304C16, 200 92.3, 113.8 192, 98.5L192, 64L164, 64C157.4, 64 152, 58.6 152, 52L152, 12C152, 5.4 157.4, 0 164, 0L284, 0C290.6, 0 296, 5.4 296, 12L296, 52C296, 58.6 290.6, 64 284, 64L256, 64L256, 98.5C293.5, 104.3 327.7, 120.1 355.7, 143.1L383.2, 115.6C387.9, 110.9 395.5, 110.9 400.2, 115.6L428.5, 143.9C433.2, 148.6 433.2, 156.2 428.5, 160.9L399.1, 190.3L398.5, 190.9C419.7, 223.3 432, 262.2 432, 304zM256, 340L256, 188.5C256, 181.9 250.6, 176.5 244, 176.5L204, 176.5C197.4, 176.5 192, 181.9 192, 188.5L192, 340C192, 346.6 197.4, 352 204, 352L244, 352C250.6, 352 256, 346.6 256, 340z" fill="#727272" fill-opacity="1" class="Black" />
  </g>
</svg>