<?xml version='1.0' encoding='UTF-8'?>
<svg viewBox="-1.5477 -1.5477 32 32" xmlns="http://www.w3.org/2000/svg">
  <g transform="matrix(0.9991, 0, 0, 0.9991, 0, 0)">
    <g transform="matrix(0.0565, 0, 0, 0.0565, 0, 0)">
      <path d="M256, 8C119, 8 8, 119 8, 256C8, 393 119, 504 256, 504C393, 504 504, 393 504, 256C504, 119 393, 8 256, 8zM352, 336C352, 344.8 344.8, 352 336, 352L176, 352C167.2, 352 160, 344.8 160, 336L160, 176C160, 167.2 167.2, 160 176, 160L336, 160C344.8, 160 352, 167.2 352, 176L352, 336z" fill="#727272" fill-opacity="1" class="Black" />
    </g>
  </g>
</svg>