<?xml version='1.0' encoding='UTF-8'?>
<svg viewBox="-1.9949 -4.7981 31.9975 32" xmlns="http://www.w3.org/2000/svg">
  <g transform="matrix(0.9989, 0, 0, 0.9989, 0, 0)">
    <g transform="matrix(0.0438, 0, 0, 0.0438, 0, 0)">
      <path d="M320, 384L128, 384L128, 224L64, 224L64, 480C64, 497.7 78.3, 512 96, 512L352, 512C369.7, 512 384, 497.7 384, 480L384, 224L320, 224L320, 384zM634.6, 142.2L549.3, 14.2C543.3, 5.3 533.3, 0 522.6, 0L117.4, 0C106.7, 0 96.7, 5.3 90.8, 14.2L5.5, 142.2C-8.7, 163.5 6.5, 192 32.1, 192L608, 192C633.5, 192 648.7, 163.5 634.6, 142.2zM512, 496C512, 504.8 519.2, 512 528, 512L560, 512C568.8, 512 576, 504.8 576, 496L576, 224L512, 224L512, 496z" fill="#727272" fill-opacity="1" class="Black" />
    </g>
  </g>
</svg>