<?xml version='1.0' encoding='UTF-8'?>
<svg viewBox="-2 -2 32 32" xmlns="http://www.w3.org/2000/svg">
  <g transform="matrix(0.0547, 0, 0, 0.0547, 0, 0)">
    <path d="M367.9, 329.76C363.28, 335.06 358.12, 339.86 352, 343.41L352, 366.35C418.52, 375.69 464, 394.4 464, 416C464, 446.93 370.88, 472 256, 472C141.12, 472 48, 446.93 48, 416C48, 394.4 93.48, 375.7 160, 366.35L160, 343.41C153.88, 339.86 148.72, 335.06 144.1, 329.76C58.87, 345.34 0, 378.05 0, 416C0, 469.02 114.62, 512 256, 512C397.38, 512 512, 469.02 512, 416C512, 378.05 453.13, 345.34 367.9, 329.76zM256, 128C291.35, 128 320, 99.35 320, 64C320, 28.65 291.35, 0 256, 0C220.65, 0 192, 28.65 192, 64C192, 99.35 220.65, 128 256, 128zM192, 320L192, 416C192, 433.67 206.33, 448 224, 448L288, 448C305.67, 448 320, 433.67 320, 416L320, 320C337.67, 320 352, 305.67 352, 288L352, 192C352, 165.49 330.51, 144 304, 144L292.2, 144C281.13, 149.03 268.94, 152 256, 152C243.06, 152 230.87, 149.03 219.8, 144L208, 144C181.49, 144 160, 165.49 160, 192L160, 288C160, 305.67 174.33, 320 192, 320z" fill="#727272" fill-opacity="1" class="Black" />
  </g>
</svg>