<?xml version='1.0' encoding='UTF-8'?>
<svg viewBox="-2 -1.9988 32 32" xmlns="http://www.w3.org/2000/svg">
  <g transform="matrix(0.0547, 0, 0, 0.0547, 0, 0)">
    <path d="M496, 224L293.9, 224L206.73, 197.17A43.55 43.55 0 0 1 219.55, 112L286.34, 112A49.89 49.89 0 0 1 331, 139.58A16 16 0 0 0 352.46, 146.73L395.4, 125.26A16 16 0 0 0 402.56, 103.8L402.03, 102.8A128 128 0 0 0 287.51, 32L219.51, 32A123.68 123.68 0 0 0 96.51, 167.64C98.51, 188.53 106.61, 207.47 118.29, 224L16, 224A16 16 0 0 0 0, 240L0, 272A16 16 0 0 0 16, 288L496, 288A16 16 0 0 0 512, 272L512, 240A16 16 0 0 0 496, 224zM315.76, 320A43 43 0 0 1 336, 356.45A43.59 43.59 0 0 1 292.45, 400L225.66, 400A49.89 49.89 0 0 1 181, 372.42A16 16 0 0 0 159.54, 365.27L116.6, 386.74A16 16 0 0 0 109.44, 408.2L109.97, 409.2A128 128 0 0 0 224.49, 480L292.49, 480A123.68 123.68 0 0 0 415.49, 344.36A114.25 114.25 0 0 0 410.15, 320z" fill="#727272" fill-opacity="1" class="Black" />
  </g>
</svg>