<?xml version='1.0' encoding='UTF-8'?>
<svg viewBox="-2 -2 32 32" xmlns="http://www.w3.org/2000/svg">
  <g transform="matrix(0.0547, 0, 0, 0.0547, 0, 0)">
    <path d="M188.12, 210.74L142.86, 256L188.11, 301.25L233.37, 256L188.12, 210.74zM301.25, 188.12L256, 142.86L210.75, 188.11L256, 233.37L301.25, 188.12zM210.75, 323.88L256, 369.14L301.26, 323.88L256, 278.63L210.75, 323.88zM256, 0C114.62, 0 0, 114.62 0, 256C0, 397.38 114.62, 512 256, 512C397.38, 512 512, 397.38 512, 256C512, 114.62 397.38, 0 256, 0zM442.68, 295.6L431.37, 306.91C428.25, 310.03 423.18, 310.03 420.06, 306.91L391.77, 278.62L346.52, 323.87L380.46, 357.81L397.43, 340.84C400.55, 337.72 405.62, 337.72 408.74, 340.84L420.05, 352.15C423.17, 355.27 423.17, 360.34 420.05, 363.46L403.08, 380.43L420.05, 397.4C423.17, 400.52 423.17, 405.59 420.05, 408.71L408.74, 420.02C405.62, 423.14 400.55, 423.14 397.43, 420.02L380.46, 403.05L363.49, 420.02C360.37, 423.14 355.3, 423.14 352.18, 420.02L340.87, 408.71C337.75, 405.59 337.75, 400.52 340.87, 397.4L357.84, 380.43L323.9, 346.49L278.64, 391.75L306.93, 420.04C310.05, 423.16 310.05, 428.23 306.93, 431.35L295.62, 442.66C292.5, 445.78 287.43, 445.78 284.31, 442.66L256, 414.39L227.71, 442.68C224.59, 445.8 219.52, 445.8 216.4, 442.68L205.09, 431.37C201.97, 428.25 201.97, 423.18 205.09, 420.06L233.38, 391.77L188.13, 346.51L154.19, 380.45L171.16, 397.42C174.28, 400.54 174.28, 405.61 171.16, 408.73L159.85, 420.04C156.73, 423.16 151.66, 423.16 148.54, 420.04L131.57, 403.07L114.6, 420.04C111.48, 423.16 106.41, 423.16 103.29, 420.04L91.98, 408.73C88.86, 405.61 88.86, 400.54 91.98, 397.42L108.95, 380.45L91.98, 363.48C88.86, 360.36 88.86, 355.29 91.98, 352.17L103.29, 340.86C106.41, 337.74 111.48, 337.74 114.6, 340.86L131.57, 357.83L165.51, 323.89L120.26, 278.64L91.97, 306.93C88.85, 310.05 83.78, 310.05 80.66, 306.93L69.32, 295.6C66.2, 292.48 66.2, 287.41 69.32, 284.29L97.61, 256L69.32, 227.71C66.2, 224.59 66.2, 219.52 69.32, 216.4L80.63, 205.09C83.75, 201.97 88.82, 201.97 91.94, 205.09L120.23, 233.38L165.48, 188.12L131.54, 154.18L114.57, 171.15C111.45, 174.27 106.38, 174.27 103.26, 171.15L91.95, 159.84C88.83, 156.72 88.83, 151.65 91.95, 148.53L108.92, 131.56L91.95, 114.59C88.83, 111.47 88.83, 106.4 91.95, 103.28L103.26, 91.97C106.38, 88.85 111.45, 88.85 114.57, 91.97L131.54, 108.94L148.51, 91.97C151.63, 88.85 156.7, 88.85 159.82, 91.97L171.13, 103.28C174.25, 106.4 174.25, 111.47 171.13, 114.59L154.16, 131.56L188.1, 165.5L233.36, 120.25L205.07, 91.96C201.95, 88.84 201.95, 83.77 205.07, 80.65L216.38, 69.34C219.5, 66.22 224.57, 66.22 227.69, 69.34L256, 97.61L284.29, 69.32C287.41, 66.2 292.48, 66.2 295.6, 69.32L306.91, 80.63C310.03, 83.75 310.03, 88.82 306.91, 91.94L278.62, 120.23L323.88, 165.48L357.82, 131.54L340.85, 114.57C337.73, 111.45 337.73, 106.38 340.85, 103.26L352.16, 91.95C355.28, 88.83 360.35, 88.83 363.47, 91.95L380.44, 108.92L397.41, 91.95C400.53, 88.83 405.6, 88.83 408.72, 91.95L420.03, 103.26C423.15, 106.38 423.15, 111.45 420.03, 114.57L403.06, 131.54L420.03, 148.51C423.15, 151.63 423.15, 156.7 420.03, 159.82L408.72, 171.13C405.6, 174.25 400.53, 174.25 397.41, 171.13L380.44, 154.16L346.5, 188.1L391.75, 233.36L420.04, 205.07C423.16, 201.95 428.23, 201.95 431.35, 205.07L442.66, 216.38C445.78, 219.5 445.78, 224.57 442.66, 227.69L414.39, 256L442.68, 284.28A8.015 8.015 0 0 1 442.68, 295.6zM278.63, 256L323.89, 301.25L369.14, 256L323.89, 210.74L278.63, 256z" fill="#727272" fill-opacity="1" class="Black" />
  </g>
</svg>