<?xml version='1.0' encoding='UTF-8'?>
<svg viewBox="-3.7495 -2 32 32" xmlns="http://www.w3.org/2000/svg">
  <g transform="matrix(0.0547, 0, 0, 0.0547, 0, 0)">
    <path d="M448, 96L448, 352C448, 403.815 386.376, 448 317.978, 448L380.958, 497.721C386.905, 502.417 383.562, 512 376, 512L72, 512C64.422, 512 61.108, 502.406 67.043, 497.721L130.022, 448C61.82, 448 0, 403.954 0, 352L0, 96C0, 42.981 64, 0 128, 0L320, 0C385, 0 448, 42.981 448, 96zM200, 232L200, 120C200, 106.745 189.255, 96 176, 96L72, 96C58.745, 96 48, 106.745 48, 120L48, 232C48, 245.255 58.745, 256 72, 256L176, 256C189.255, 256 200, 245.255 200, 232zM400, 232L400, 120C400, 106.745 389.255, 96 376, 96L272, 96C258.745, 96 248, 106.745 248, 120L248, 232C248, 245.255 258.745, 256 272, 256L376, 256C389.255, 256 400, 245.255 400, 232zM352, 288C325.49, 288 304, 309.49 304, 336C304, 362.51 325.49, 384 352, 384C378.51, 384 400, 362.51 400, 336C400, 309.49 378.51, 288 352, 288zM96, 288C69.49, 288 48, 309.49 48, 336C48, 362.51 69.49, 384 96, 384C122.51, 384 144, 362.51 144, 336C144, 309.49 122.51, 288 96, 288z" fill="#727272" fill-opacity="1" class="Black" />
  </g>
</svg>