<?xml version='1.0' encoding='UTF-8'?>
<svg viewBox="-2 -1.9988 32 32" xmlns="http://www.w3.org/2000/svg">
  <g transform="matrix(0.0547, 0, 0, 0.0547, 0, 0)">
    <path d="M128, 480L384, 480L384, 80C384, 53.5 362.5, 32 336, 32L176, 32C149.5, 32 128, 53.5 128, 80L128, 480zM192, 96L320, 96L320, 128L192, 128L192, 96zM512, 176L512, 432C512, 458.5 490.5, 480 464, 480L416, 480L416, 128L464, 128C490.5, 128 512, 149.5 512, 176zM96, 480L48, 480C21.5, 480 0, 458.5 0, 432L0, 176C0, 149.5 21.5, 128 48, 128L96, 128L96, 480z" fill="#727272" fill-opacity="1" class="Black" />
  </g>
</svg>