<?xml version='1.0' encoding='UTF-8'?>
<svg viewBox="-2 -4.7992 32 32" xmlns="http://www.w3.org/2000/svg">
  <g transform="matrix(0.9988, 0, 0, 0.9988, 0, 0)">
    <g transform="matrix(0.0438, 0, 0, 0.0438, 0, 0)">
      <path d="M576, 224C564, 224 552.9, 227.5 543.3, 233.2C539.8, 192.2 505.9, 160 464, 160C425.2, 160 392.9, 187.6 385.6, 224.2C385.1, 224.2 384.6, 224 384, 224C348.7, 224 320, 252.7 320, 288C320, 323.3 348.7, 352 384, 352L576, 352C611.3, 352 640, 323.3 640, 288C640, 252.7 611.3, 224 576, 224zM429.4, 384L384, 384C361.8, 384 341.6, 376.1 325.4, 363.5C275.8, 395.5 208.9, 389.9 165.5, 346.6C115.6, 296.7 115.6, 215.5 165.5, 165.6C215.4, 115.7 296.6, 115.7 346.5, 165.6C353.7, 172.8 359.5, 180.7 364.6, 189C377.8, 163.5 400.2, 144 427.2, 134.5L441.1, 92.8C445.6, 79.2 432.7, 66.3 419.2, 70.9L318.8, 104.4L271.5, 9.6C265.1, -3.2 246.9, -3.2 240.5, 9.6L193.2, 104.3L92.7, 70.8C79.1, 66.3 66.2, 79.2 70.8, 92.7L104.3, 193.1L9.6, 240.5C-3.2, 246.9 -3.2, 265.1 9.6, 271.5L104.3, 318.8L70.8, 419.3C66.3, 432.9 79.2, 445.8 92.7, 441.2L193.1, 407.7L240.4, 502.4C246.8, 515.2 265, 515.2 271.4, 502.4L318.7, 407.7L419.1, 441.2C432.7, 445.7 445.6, 432.8 441, 419.3L429.4, 384zM336.9, 204.7C319.8, 177.9 290, 160 256, 160C203.1, 160 160, 203.1 160, 256C160, 308.9 203.1, 352 256, 352C273.2, 352 289.1, 347.1 303.1, 339.2C293.7, 324.4 288, 306.9 288, 288C288, 252.2 307.8, 221.2 336.9, 204.7z" fill="#727272" fill-opacity="1" class="Black" />
    </g>
  </g>
</svg>