<?xml version='1.0' encoding='UTF-8'?>
<svg viewBox="-1.9998 -3.5563 31.9975 32" xmlns="http://www.w3.org/2000/svg">
  <g transform="matrix(0.0486, 0, 0, 0.0486, 0, 0)">
    <path d="M574.09, 280.38L528.75, 98.66A87.94 87.94 0 0 0 415.56, 36.52L400.31, 41.6A16 16 0 0 0 390.19, 61.85L395.25, 77A16 16 0 0 0 415.47, 87.13L428.66, 82.74C439.53, 79.11 451.66, 79.17 461.81, 84.47A39.59 39.59 0 0 1 482.19, 110.28L520.66, 264.11A276.7 276.7 0 0 0 439.44, 251.64C404.69, 251.64 365.44, 258.64 324.59, 278.39L251.41, 278.39C210.56, 258.64 171.34, 251.64 136.56, 251.64A276.75 276.75 0 0 0 55.34, 264.09L93.81, 110.29A39.61 39.61 0 0 1 114.19, 84.47C124.34, 79.18 136.47, 79.13 147.34, 82.74L160.5, 87.13A16 16 0 0 0 180.75, 77L185.81, 61.81A16 16 0 0 0 175.69, 41.6L160.44, 36.52A87.95 87.95 0 0 0 47.25, 98.65L1.91, 280.38A75.35 75.35 0 0 0 0, 295.86L0, 366.11C0, 429 51.59, 480 115.19, 480L152.31, 480C212.59, 480 262.69, 434.06 267.19, 374.63L270.12, 336L305.88, 336L308.81, 374.63C313.31, 434.06 363.41, 480 423.69, 480L460.81, 480C524.41, 480 576, 429 576, 366.13L576, 295.88A62.67 62.67 0 0 0 574.09, 280.38zM64.19, 367.91C64.19, 367.3 64, 366.73 64, 366.11L64, 328.56A217.35 217.35 0 0 1 136.59, 315.66C145.73, 315.66 154.73, 316.87 163.73, 318.14zM372.32, 365.84L369.5, 328.56A196.55 196.55 0 0 1 439.44, 315.66A202.07 202.07 0 0 1 468.16, 317.92z" fill="#727272" fill-opacity="1" class="Black" />
  </g>
</svg>