<?xml version='1.0' encoding='UTF-8'?>
<svg viewBox="-1.9998 -3.5563 31.9975 32" xmlns="http://www.w3.org/2000/svg">
  <g transform="matrix(0.0486, 0, 0, 0.0486, 0, 0)">
    <path d="M250.9, 374.5C230.3, 383 214.6, 398 204.3, 416L371.5, 416C347.7, 374.4 296.4, 355.7 250.9, 374.5zM80.7, 416L168.3, 416C168.5, 415.5 168.5, 415 168.7, 414.6C196, 348.8 271.6, 317.4 337.4, 344.7C370.8, 358.5 395.2, 384.9 407.7, 416L495.3, 416L523.7, 383.3C533.1, 372.4 526.1, 355.4 511.7, 354.4L405.2, 346.8L397.6, 240.3C396.6, 225.9 379.6, 218.9 368.7, 228.3L288, 298.3L207.3, 228.3C196.4, 218.9 179.4, 225.9 178.4, 240.3L170.8, 346.8L64.3, 354.4C49.9, 355.4 42.9, 372.4 52.3, 383.3L80.7, 416zM560, 464L16, 464C7.2, 464 0, 471.2 0, 480L0, 496C0, 504.8 7.2, 512 16, 512L560, 512C568.8, 512 576, 504.8 576, 496L576, 480C576, 471.2 568.8, 464 560, 464zM276, 219C282.6, 225.6 293.4, 225.6 300, 219L396.4, 123.3C406.5, 113.2 399.4, 95.9 385.1, 95.9L320, 95.9L320, 16C320, 7.2 312.8, 0 304, 0L272, 0C263.2, 0 256, 7.2 256, 16L256, 96L190.8, 96C176.5, 96 169.4, 113.3 179.6, 123.4L276, 219z" fill="#727272" fill-opacity="1" class="Black" />
  </g>
</svg>