<?xml version='1.0' encoding='UTF-8'?>
<svg viewBox="-1.9999 -1.549 31.9975 32" xmlns="http://www.w3.org/2000/svg">
  <g transform="matrix(0.999, 0, 0, 0.999, 0, 0)">
    <g transform="matrix(0.0565, 0, 0, 0.0565, 0, 0)">
      <path d="M248, 8C111, 8 0, 119 0, 256C0, 393 111, 504 248, 504C385, 504 496, 393 496, 256C496, 119 385, 8 248, 8zM136, 208C136, 190.3 150.3, 176 168, 176C185.7, 176 200, 190.3 200, 208C200, 225.7 185.7, 240 168, 240C150.3, 240 136, 225.7 136, 208zM248, 416C212.7, 416 184, 387.3 184, 352C184, 316.7 212.7, 288 248, 288C283.3, 288 312, 316.7 312, 352C312, 387.3 283.3, 416 248, 416zM328, 240C310.3, 240 296, 225.7 296, 208C296, 190.3 310.3, 176 328, 176C345.7, 176 360, 190.3 360, 208C360, 225.7 345.7, 240 328, 240z" fill="#727272" fill-opacity="1" class="Black" />
    </g>
  </g>
</svg>