<?xml version='1.0' encoding='UTF-8'?>
<svg viewBox="-1.9999 -1.9999 32 32" xmlns="http://www.w3.org/2000/svg">
  <g transform="matrix(0.0547, 0, 0, 0.0547, 0, 0)">
    <path d="M434.66, 167.71L434.66, 167.71L344.5, 77.36A31.83 31.83 0 0 0 299.5, 77.29L299.5, 77.29L299.43, 77.36L224, 152.88L224, 424L434.66, 212.9A32 32 0 0 0 434.66, 167.71zM480, 320L373.09, 320L186.68, 506.51C184.62, 508.58 182.18, 510.09 180, 512L480, 512A32 32 0 0 0 512, 480L512, 352A32 32 0 0 0 480, 320zM192, 32A32 32 0 0 0 160, 0L32, 0A32 32 0 0 0 0, 32L0, 416A96 96 0 0 0 192, 416zM96, 440A24 24 0 1 1 120, 416A24 24 0 0 1 96, 440zM128, 256L64, 256L64, 192L128, 192zM128, 128L64, 128L64, 64L128, 64z" fill="#727272" fill-opacity="1" class="Black" />
  </g>
</svg>