<?xml version='1.0' encoding='UTF-8'?>
<svg viewBox="-2 -1.9975 32 32" xmlns="http://www.w3.org/2000/svg">
  <g transform="matrix(0.0547, 0, 0, 0.0547, 0, 0)">
    <path d="M309.37, 389.38L389.37, 309.38L93.33, 13.33L15.22, 0.14C6.42, -1.12 -1.12, 6.42 0.14, 15.22L13.34, 93.33L309.37, 389.38zM507.31, 462.06L448, 402.75L479.64, 343.72C482.97, 337.5 481.84, 329.84 476.85, 324.85L459.31, 307.32C453.06, 301.07 442.93, 301.07 436.68, 307.32L307.31, 436.69C301.06, 442.94 301.06, 453.07 307.31, 459.31L324.84, 476.85A16 16 0 0 0 343.71, 479.64L402.75, 448L462.06, 507.31C468.31, 513.56 478.44, 513.56 484.69, 507.31L507.31, 484.69C513.56, 478.44 513.56, 468.31 507.31, 462.06zM498.67, 93.33L511.87, 15.22C513.13, 6.42 505.58, -1.12 496.79, 0.14L418.68, 13.34L278.63, 153.37L358.63, 233.37L498.67, 93.33zM153.37, 278.63L100, 332L75.31, 307.31C69.06, 301.06 58.93, 301.06 52.69, 307.31L35.15, 324.84A15.998 15.998 0 0 0 32.36, 343.71L64, 402.75L4.69, 462.06C-1.56, 468.31 -1.56, 478.44 4.69, 484.69L27.31, 507.31C33.56, 513.56 43.69, 513.56 49.94, 507.31L109.25, 448L168.28, 479.64C174.5, 482.97 182.16, 481.84 187.15, 476.85L204.68, 459.31C210.93, 453.06 210.93, 442.93 204.68, 436.69L180, 412L233.37, 358.63L153.37, 278.63z" fill="#727272" fill-opacity="1" class="Black" />
  </g>
</svg>