<?xml version='1.0' encoding='UTF-8'?>
<svg viewBox="-1.9987 -1.995 32 32" xmlns="http://www.w3.org/2000/svg">
  <g transform="matrix(0.0547, 0, 0, 0.0547, 0, 0)">
    <path d="M110.11, 227.59C103.86, 221.34 93.73, 221.34 87.48, 227.59L68.69, 246.39A16.005 16.005 0 0 0 66.69, 266.58L120.08, 346.67L66.65, 400.1L37.39, 385.47A13.902 13.902 0 0 0 21.35, 388.07L4.07, 405.36C-1.35, 410.79 -1.35, 419.58 4.07, 425L87, 507.93C92.42, 513.35 101.22, 513.35 106.64, 507.93L123.93, 490.64A13.873 13.873 0 0 0 126.53, 474.61L111.9, 445.35L165.33, 391.92L245.42, 445.31C251.77, 449.54 260.22, 448.7 265.61, 443.31L284.41, 424.52C290.66, 418.27 290.66, 408.14 284.41, 401.89L110.11, 227.59zM493.73, 0.16L400, 16L171.89, 244.11L267.89, 340.11L496, 112L511.83, 18.27C513.34, 7.71 504.29, -1.34 493.73, 0.16z" fill="#727272" fill-opacity="1" class="Black" />
  </g>
</svg>