<?xml version='1.0' encoding='UTF-8'?>
<svg viewBox="-2 -2 32 32" xmlns="http://www.w3.org/2000/svg">
  <g transform="matrix(0.0547, 0, 0, 0.0547, 0, 0)">
    <path d="M440.65, 12.57L444.65, 95.34A247.16 247.16 0 0 0 255.83, 8C134.73, 8 33.91, 94.92 12.29, 209.82A12 12 0 0 0 24.09, 224L73.14, 224A12 12 0 0 0 84.81, 214.74A175.91 175.91 0 0 1 401.81, 157.8L300.35, 152.94A12 12 0 0 0 287.78, 164.94L287.78, 212.35A12 12 0 0 0 299.78, 224.35L500, 224.35A12 12 0 0 0 512, 212.35L512, 12A12 12 0 0 0 500, 0L452.63, 0A12 12 0 0 0 440.65, 12.57zM255.83, 432A175.61 175.61 0 0 1 109.83, 354.2L211.63, 359.07A12 12 0 0 0 224.2, 347.07L224.2, 299.67A12 12 0 0 0 212.2, 287.67L12, 287.67A12 12 0 0 0 0, 299.67L0, 500A12 12 0 0 0 12, 512L59.35, 512A12 12 0 0 0 71.35, 499.4L67.2, 416.83A247.17 247.17 0 0 0 255.83, 504C376.94, 504 477.76, 417.08 499.38, 302.18A12 12 0 0 0 487.58, 288L438.53, 288A12 12 0 0 0 426.86, 297.26A175.86 175.86 0 0 1 255.83, 432z" fill="#727272" fill-opacity="1" class="Black" />
  </g>
</svg>