<?xml version='1.0' encoding='UTF-8'?>
<svg viewBox="-1.5477 -1.5477 32 32" xmlns="http://www.w3.org/2000/svg">
  <g transform="matrix(0.9991, 0, 0, 0.9991, 0, 0)">
    <g transform="matrix(0.0565, 0, 0, 0.0565, 0, 0)">
      <path d="M370.72, 133.28C339.458, 104.008 298.888, 87.962 255.848, 88C178.39, 88.068 111.52, 141.178 93.057, 214.85C91.713, 220.213 86.935, 224 81.406, 224L24.103, 224C16.605, 224 10.909, 217.193 12.296, 209.824C33.933, 94.924 134.813, 8 256, 8C322.448, 8 382.791, 34.136 427.315, 76.685L463.03, 40.97C478.149, 25.851 504, 36.559 504, 57.941L504, 192C504, 205.255 493.255, 216 480, 216L345.941, 216C324.559, 216 313.851, 190.149 328.97, 175.029L370.72, 133.28zM32, 296L166.059, 296C187.441, 296 198.149, 321.851 183.03, 336.971L141.28, 378.721C172.542, 407.994 213.115, 424.04 256.156, 424.001C333.574, 423.931 400.471, 370.857 418.943, 297.152C420.287, 291.789 425.065, 288.002 430.594, 288.002L487.898, 288.002C495.396, 288.002 501.092, 294.809 499.705, 302.178C478.067, 417.076 377.187, 504 256, 504C189.552, 504 129.209, 477.864 84.685, 435.315L48.97, 471.03C33.851, 486.149 8, 475.441 8, 454.059L8, 320C8, 306.745 18.745, 296 32, 296z" fill="#727272" fill-opacity="1" class="Black" />
    </g>
  </g>
</svg>