<?xml version='1.0' encoding='UTF-8'?>
<svg viewBox="-2.0023 -1.9986 31.9975 32" xmlns="http://www.w3.org/2000/svg">
  <g transform="matrix(0.0547, 0, 0, 0.0547, 0, 0)">
    <path d="M496.2, 296.5C527.7, 218.7 512, 126.2 449, 63.1C365.1, -21 229, -21 145.1, 63.1L89.1, 119.2L300.6, 330.7C346.7, 268.6 432.1, 253.3 496.2, 296.5zM278.3, 376.2L57.9, 155.9C30.6, 201.2 36.2, 260.9 75.2, 300L109.7, 334.6L6.7, 424C-1.9, 431.5 -2.4, 444.7 5.7, 452.8L59.1, 506.3C67.1, 514.4 80.3, 513.9 87.8, 505.3L177.1, 402L212.8, 437.7C232.5, 457.4 257.4, 468.2 283.1, 471C276, 454 272.1, 435.4 272.1, 415.9C272, 402.1 274.6, 388.9 278.3, 376.2zM416, 320C363, 320 320, 363 320, 416C320, 469 363, 512 416, 512C469, 512 512, 469 512, 416C512, 363 469, 320 416, 320z" fill="#727272" fill-opacity="1" class="Black" />
  </g>
</svg>