<?xml version='1.0' encoding='UTF-8'?>
<svg viewBox="-3.7495 -2 32 32" xmlns="http://www.w3.org/2000/svg">
  <g transform="matrix(0.0547, 0, 0, 0.0547, 0, 0)">
    <path d="M400, 0L48, 0C21.5, 0 0, 21.5 0, 48L0, 464C0, 490.5 21.5, 512 48, 512L400, 512C426.5, 512 448, 490.5 448, 464L448, 48C448, 21.5 426.5, 0 400, 0zM224, 480C206.3, 480 192, 465.7 192, 448C192, 430.3 206.3, 416 224, 416C241.7, 416 256, 430.3 256, 448C256, 465.7 241.7, 480 224, 480zM400, 372C400, 378.6 394.6, 384 388, 384L60, 384C53.4, 384 48, 378.6 48, 372L48, 60C48, 53.4 53.4, 48 60, 48L388, 48C394.6, 48 400, 53.4 400, 60L400, 372z" fill="#727272" fill-opacity="1" class="Black" />
  </g>
</svg>