<?xml version='1.0' encoding='UTF-8'?>
<svg viewBox="-2 -3.554 32 32" xmlns="http://www.w3.org/2000/svg">
  <g transform="matrix(0.0486, 0, 0, 0.0486, 0, 0)">
    <path d="M288, 32C128.94, 32 0, 160.94 0, 320C0, 372.8 14.25, 422.26 39.06, 464.8C44.67, 474.42 55.36, 480 66.5, 480L509.5, 480C520.64, 480 531.33, 474.42 536.94, 464.8C561.75, 422.26 576, 372.8 576, 320C576, 160.94 447.06, 32 288, 32zM483.95, 375.67L350.02, 397.99C348.51, 404.36 346.33, 410.47 343.12, 416L232.88, 416C227.38, 406.55 224, 395.72 224, 384C224, 348.65 252.65, 320 288, 320C311.06, 320 331.1, 332.31 342.37, 350.61L476.05, 328.33C489.14, 326.16 501.5, 334.97 503.67, 348.05C505.86, 361.12 497.02, 373.5 483.95, 375.67z" fill="#727272" fill-opacity="1" class="Black" />
  </g>
</svg>