<?xml version='1.0' encoding='UTF-8'?>
<svg viewBox="-2 -3.554 32 32" xmlns="http://www.w3.org/2000/svg">
  <g transform="matrix(0.0486, 0, 0, 0.0486, 0, 0)">
    <path d="M288, 32C128.94, 32 0, 160.94 0, 320C0, 372.8 14.25, 422.26 39.06, 464.8C44.67, 474.42 55.36, 480 66.5, 480L509.5, 480C520.64, 480 531.33, 474.42 536.94, 464.8C561.75, 422.26 576, 372.8 576, 320C576, 160.94 447.06, 32 288, 32zM288, 96C305.67, 96 320, 110.33 320, 128C320, 145.67 305.67, 160 288, 160C270.33, 160 256, 145.67 256, 128C256, 110.33 270.33, 96 288, 96zM96, 384C78.33, 384 64, 369.67 64, 352C64, 334.33 78.33, 320 96, 320C113.67, 320 128, 334.33 128, 352C128, 369.67 113.67, 384 96, 384zM343.12, 416L232.88, 416C227.38, 406.55 224, 395.72 224, 384C224, 371.93 227.54, 360.77 233.35, 351.14L124.8, 206.41C116.85, 195.8 119, 180.75 129.6, 172.8C140.24, 164.88 155.26, 167.03 163.21, 177.6L271.77, 322.34C276.98, 320.97 282.36, 320 288.01, 320C323.36, 320 352.01, 348.65 352.01, 384C352, 395.72 348.62, 406.55 343.12, 416zM400, 192C400, 174.33 414.33, 160 432, 160C449.67, 160 464, 174.33 464, 192C464, 209.67 449.67, 224 432, 224C414.33, 224 400, 209.67 400, 192zM480, 384C462.33, 384 448, 369.67 448, 352C448, 334.33 462.33, 320 480, 320C497.67, 320 512, 334.33 512, 352C512, 369.67 497.67, 384 480, 384z" fill="#727272" fill-opacity="1" class="Black" />
  </g>
</svg>