<?xml version='1.0' encoding='UTF-8'?>
<svg viewBox="-2 -3.554 32 32" xmlns="http://www.w3.org/2000/svg">
  <g transform="matrix(0.0486, 0, 0, 0.0486, 0, 0)">
    <path d="M288, 32C128.94, 32 0, 160.94 0, 320C0, 372.8 14.25, 422.26 39.06, 464.8C44.67, 474.42 55.36, 480 66.5, 480L509.5, 480C520.64, 480 531.33, 474.42 536.94, 464.8C561.75, 422.26 576, 372.8 576, 320C576, 160.94 447.06, 32 288, 32zM343.12, 416L232.88, 416C227.38, 406.55 224, 395.72 224, 384C224, 357.15 240.56, 334.25 264, 324.75L264, 128C264, 114.75 274.75, 104 288, 104C301.25, 104 312, 114.75 312, 128L312, 324.75C335.44, 334.25 352, 357.16 352, 384C352, 395.72 348.62, 406.55 343.12, 416z" fill="#727272" fill-opacity="1" class="Black" />
  </g>
</svg>