<?xml version='1.0' encoding='UTF-8'?>
<svg viewBox="-2 -3.554 32 32" xmlns="http://www.w3.org/2000/svg">
  <g transform="matrix(0.0486, 0, 0, 0.0486, 0, 0)">
    <path d="M288, 32C128.94, 32 0, 160.94 0, 320C0, 372.8 14.25, 422.26 39.06, 464.8C44.67, 474.42 55.36, 480 66.5, 480L509.5, 480C520.64, 480 531.33, 474.42 536.94, 464.8C561.75, 422.26 576, 372.8 576, 320C576, 160.94 447.06, 32 288, 32zM343.12, 416L232.88, 416C229.67, 410.48 227.49, 404.37 225.98, 397.99L92.05, 375.67C78.99, 373.5 70.14, 361.12 72.33, 348.05C74.5, 334.97 86.86, 326.16 99.95, 328.33L233.63, 350.61C244.9, 332.31 264.94, 320 288, 320C323.35, 320 352, 348.65 352, 384C352, 395.72 348.62, 406.55 343.12, 416z" fill="#727272" fill-opacity="1" class="Black" />
  </g>
</svg>