<?xml version='1.0' encoding='UTF-8'?>
<svg viewBox="-2 -1.9988 32 32" xmlns="http://www.w3.org/2000/svg">
  <g transform="matrix(0.0547, 0, 0, 0.0547, 0, 0)">
    <path d="M256, 192C125.82, 192 18.14, 299.4 0.32, 439.08C-2.43, 460.66 13, 480 32.56, 480L479.44, 480C499, 480 514.44, 460.66 511.68, 439.08C493.86, 299.4 386.18, 192 256, 192zM112, 416A16 16 0 1 1 128, 400A16 16 0 0 1 112, 416zM176, 352A16 16 0 1 1 192, 336A16 16 0 0 1 176, 352zM7.33, 279.48A129 129 0 0 1 11.86, 307.62C64, 218.51 154.91, 160 256, 160C357.09, 160 448, 218.52 500.14, 307.64A128.36 128.36 0 0 1 504.67, 279.55C504.67, 279.46 504.72, 279.37 504.75, 279.29C509.89, 261.97 515.75, 242.35 508.91, 224.29C501.76, 205.23 484.15, 194.93 468.6, 185.83C459.11, 180.29 449.28, 174.54 444.89, 168.3C440.15, 161.61 437.56, 149.79 435.06, 138.3C431.11, 120.22 426.62, 99.72 411.42, 87.66C395.73, 75.21 375.42, 76.66 357.42, 77.85C346.63, 78.61 335.42, 79.35 328.24, 76.75C321.31, 74.24 313.12, 66.61 305.24, 59.24C276.19, 32.17 254.58, 14.73 206.86, 59.19C198.94, 66.56 190.75, 74.19 183.86, 76.7C176.64, 79.3 165.47, 78.56 154.68, 77.8C136.68, 76.56 116.36, 75.16 100.68, 87.61C85.48, 99.67 80.99, 120.17 77.04, 138.25C74.54, 149.71 71.95, 161.53 67.21, 168.25C62.82, 174.49 52.99, 180.25 43.5, 185.78C27.95, 194.88 10.34, 205.17 3.19, 224.24C-3.62, 242.32 2.19, 261.94 7.35, 279.24C7.28, 279.31 7.3, 279.4 7.33, 279.48z" fill="#727272" fill-opacity="1" class="Black" />
  </g>
</svg>