<?xml version='1.0' encoding='UTF-8'?>
<svg viewBox="-1.9975 -4.7973 32 32" xmlns="http://www.w3.org/2000/svg">
  <g transform="matrix(0.999, 0, 0, 0.999, 0, 0)">
    <g transform="matrix(0.0438, 0, 0, 0.0438, 0, 0)">
      <path d="M639.21, 169.49L629.32, 139.06C626.59, 130.66 617.57, 126.06 609.16, 128.79L544, 149.88L544, 48C544, 39.16 536.84, 32 528, 32L496, 32C487.16, 32 480, 39.16 480, 48L480, 170.59L416, 191.3L416, 48C416, 39.16 408.84, 32 400, 32L368, 32C359.16, 32 352, 39.16 352, 48L352, 212.01L288, 232.72L288, 48C288, 39.16 280.84, 32 272, 32L240, 32C231.16, 32 224, 39.16 224, 48L224, 253.43L160, 274.14L160, 48C160, 39.16 152.84, 32 144, 32L112, 32C103.16, 32 96, 39.16 96, 48L96, 294.86L11.06, 322.35C2.65, 325.08 -1.95, 334.11 0.79, 342.51L10.68, 372.94C13.41, 381.34 22.44, 385.94 30.84, 383.21L96, 362.13L96, 464C96, 472.84 103.16, 480 112, 480L144, 480C152.84, 480 160, 472.84 160, 464L160, 341.41L224, 320.7L224, 464C224, 472.84 231.16, 480 240, 480L272, 480C280.84, 480 288, 472.84 288, 464L288, 299.99L352, 279.28L352, 464C352, 472.84 359.16, 480 368, 480L400, 480C408.84, 480 416, 472.84 416, 464L416, 258.57L480, 237.86L480, 464C480, 472.84 487.16, 480 496, 480L528, 480C536.84, 480 544, 472.84 544, 464L544, 217.14L628.94, 189.65C637.34, 186.92 641.95, 177.9 639.21, 169.49z" fill="#727272" fill-opacity="1" class="Black" />
    </g>
  </g>
</svg>