<?xml version='1.0' encoding='UTF-8'?>
<svg viewBox="-3.7495 -2 32 32" xmlns="http://www.w3.org/2000/svg">
  <g transform="matrix(0.0547, 0, 0, 0.0547, 0, 0)">
    <path d="M318, 139.44L283.1, 139.44L300.58, 168.63zM283.14, 244.56L318.05, 244.56L300.58, 215.39zM224.05, 296.63L240.83, 268.56L207.25, 268.56zM130, 244.56L164.9, 244.56L147.42, 215.37zM164.89, 139.44L130, 139.44L147.47, 168.61zM352, 0L25.6, 0C9.6, 0 0, 9.6 0, 25.6L0, 358.4Q0, 372.8 9.6, 377.6C12.8, 390.4 12.8, 435.2 9.6, 451.2Q0, 460.8 0, 470.4L0, 486.4C0, 502.4 12.8, 512 25.6, 512L352, 512C406.4, 512 448, 470.4 448, 416L448, 96C448, 41.6 406.4, 0 352, 0zM105.41, 125.59A20.11 20.11 0 0 1 122.91, 115.44L179.21, 115.44L206.8, 69.3A20 20 0 0 1 224.05, 59.48A19.66 19.66 0 0 1 241.05, 69.16L268.75, 115.44L325.11, 115.44A20 20 0 0 1 342.25, 145.73L314.57, 192L342.36, 238.43A19.6 19.6 0 0 1 342.59, 258.43A20.11 20.11 0 0 1 325.09, 268.58L268.79, 268.58L241.2, 314.7A20 20 0 0 1 224, 324.52A19.66 19.66 0 0 1 207, 314.84L179.3, 268.56L122.91, 268.56A20 20 0 0 1 105.77, 238.27L133.43, 192L105.64, 145.57A19.6 19.6 0 0 1 105.41, 125.59zM352, 448L67.2, 448L67.2, 384L352, 384C368, 384 384, 396.8 384, 416C384, 435.2 371.2, 448 352, 448zM224, 87.38L207.22, 115.44L240.8, 115.44zM192.88, 244.56L255.18, 244.56L286.59, 192L255.12, 139.42L192.82, 139.42L161.41, 192z" fill="#727272" fill-opacity="1" class="Black" />
  </g>
</svg>