<?xml version='1.0' encoding='UTF-8'?>
<svg viewBox="-4 0 32 32" xmlns="http://www.w3.org/2000/svg">
  <g transform="matrix(0.0625, 0, 0, 0.0625, 0, 0)">
    <path d="M372, 160L12, 160C5.4, 160 0, 165.4 0, 172L0, 228C0, 234.6 5.4, 240 12, 240L152, 240L152, 468C152, 474.6 157.4, 480 164, 480L220, 480C226.6, 480 232, 474.6 232, 468L232, 240L372, 240C378.6, 240 384, 234.6 384, 228L384, 172C384, 165.4 378.6, 160 372, 160zM372, 32L12, 32C5.4, 32 0, 37.4 0, 44L0, 100C0, 106.6 5.4, 112 12, 112L372, 112C378.6, 112 384, 106.6 384, 100L384, 44C384, 37.4 378.6, 32 372, 32z" fill="#727272" fill-opacity="1" class="Black" />
  </g>
</svg>