<?xml version='1.0' encoding='UTF-8'?>
<svg viewBox="-2 0 32 32" xmlns="http://www.w3.org/2000/svg">
  <g transform="matrix(0.0625, 0, 0, 0.0625, 0, 0)">
    <path d="M432, 32A16 16 0 0 1 448, 48L448, 144A16 16 0 0 1 432, 160L400, 160A16 16 0 0 1 384, 144L384, 112L264, 112L264, 416L304, 416A16 16 0 0 1 320, 432L320, 464A16 16 0 0 1 304, 480L144, 480A16 16 0 0 1 128, 464L128, 432A16 16 0 0 1 144, 416L184, 416L184, 112L64, 112L64, 144A16 16 0 0 1 48, 160L16, 160A16 16 0 0 1 0, 144L0, 48A16 16 0 0 1 16, 32z" fill="#727272" fill-opacity="1" class="Black" />
  </g>
</svg>