<?xml version='1.0' encoding='UTF-8'?>
<svg viewBox="-2 -4.7992 32 32" xmlns="http://www.w3.org/2000/svg">
  <g transform="matrix(0.9988, 0, 0, 0.9988, 0, 0)">
    <g transform="matrix(0.0438, 0, 0, 0.0438, 0, 0)">
      <path d="M624, 32L272, 32A16 16 0 0 0 256, 48L256, 144A16 16 0 0 0 272, 160L304, 160A16 16 0 0 0 320, 144L320, 112L408, 112L408, 416L368, 416A16 16 0 0 0 352, 432L352, 464A16 16 0 0 0 368, 480L528, 480A16 16 0 0 0 544, 464L544, 432A16 16 0 0 0 528, 416L488, 416L488, 112L576, 112L576, 144A16 16 0 0 0 592, 160L624, 160A16 16 0 0 0 640, 144L640, 48A16 16 0 0 0 624, 32zM304, 224L16, 224A16 16 0 0 0 0, 240L0, 304A16 16 0 0 0 16, 320L48, 320A16 16 0 0 0 64, 304L64, 288L120, 288L120, 416L96, 416A16 16 0 0 0 80, 432L80, 464A16 16 0 0 0 96, 480L224, 480A16 16 0 0 0 240, 464L240, 432A16 16 0 0 0 224, 416L200, 416L200, 288L256, 288L256, 304A16 16 0 0 0 272, 320L304, 320A16 16 0 0 0 320, 304L320, 240A16 16 0 0 0 304, 224z" fill="#727272" fill-opacity="1" class="Black" />
    </g>
  </g>
</svg>