<?xml version='1.0' encoding='UTF-8'?>
<svg viewBox="-1.9999 -1.9974 32 31.9975" xmlns="http://www.w3.org/2000/svg">
  <g transform="matrix(0.0547, 0, 0, 0.0547, 0, 0)">
    <path d="M296, 32L488, 32C501.255, 32 512, 42.745 512, 56L512, 216C512, 229.255 501.255, 240 488, 240L296, 240C282.745, 240 272, 229.255 272, 216L272, 56C272, 42.745 282.745, 32 296, 32zM216, 32L24, 32C10.745, 32 0, 42.745 0, 56L0, 216C0, 229.255 10.745, 240 24, 240L216, 240C229.255, 240 240, 229.255 240, 216L240, 56C240, 42.745 229.255, 32 216, 32zM0, 296L0, 456C0, 469.255 10.745, 480 24, 480L216, 480C229.255, 480 240, 469.255 240, 456L240, 296C240, 282.745 229.255, 272 216, 272L24, 272C10.745, 272 0, 282.745 0, 296zM296, 480L488, 480C501.255, 480 512, 469.255 512, 456L512, 296C512, 282.745 501.255, 272 488, 272L296, 272C282.745, 272 272, 282.745 272, 296L272, 456C272, 469.255 282.745, 480 296, 480z" fill="#727272" fill-opacity="1" class="Black" />
  </g>
</svg>