<?xml version='1.0' encoding='UTF-8'?>
<svg viewBox="-1.9999 -1.9974 32 31.9975" xmlns="http://www.w3.org/2000/svg">
  <g transform="matrix(0.0547, 0, 0, 0.0547, 0, 0)">
    <path d="M149.333, 56L149.333, 136C149.333, 149.255 138.588, 160 125.333, 160L24, 160C10.745, 160 0, 149.255 0, 136L0, 56C0, 42.745 10.745, 32 24, 32L125.333, 32C138.588, 32 149.333, 42.745 149.333, 56zM330.667, 296L330.667, 216C330.667, 202.745 319.922, 192 306.667, 192L205.333, 192C192.078, 192 181.333, 202.745 181.333, 216L181.333, 296C181.333, 309.255 192.078, 320 205.333, 320L306.666, 320C319.922, 320 330.667, 309.255 330.667, 296zM362.667, 56L362.667, 136C362.667, 149.255 373.412, 160 386.667, 160L488, 160C501.255, 160 512, 149.255 512, 136L512, 56C512, 42.745 501.255, 32 488, 32L386.667, 32C373.412, 32 362.667, 42.745 362.667, 56zM330.667, 136L330.667, 56C330.667, 42.745 319.922, 32 306.667, 32L205.333, 32C192.078, 32 181.333, 42.745 181.333, 56L181.333, 136C181.333, 149.255 192.078, 160 205.333, 160L306.666, 160C319.922, 160 330.667, 149.255 330.667, 136zM125.333, 192L24, 192C10.745, 192 0, 202.745 0, 216L0, 296C0, 309.255 10.745, 320 24, 320L125.333, 320C138.588, 320 149.333, 309.255 149.333, 296L149.333, 216C149.333, 202.745 138.588, 192 125.333, 192zM0, 376L0, 456C0, 469.255 10.745, 480 24, 480L125.333, 480C138.588, 480 149.333, 469.255 149.333, 456L149.333, 376C149.333, 362.745 138.588, 352 125.333, 352L24, 352C10.745, 352 0, 362.745 0, 376zM386.667, 320L488, 320C501.255, 320 512, 309.255 512, 296L512, 216C512, 202.745 501.255, 192 488, 192L386.667, 192C373.412, 192 362.667, 202.745 362.667, 216L362.667, 296C362.667, 309.255 373.412, 320 386.667, 320zM386.667, 480L488, 480C501.255, 480 512, 469.255 512, 456L512, 376C512, 362.745 501.255, 352 488, 352L386.667, 352C373.412, 352 362.667, 362.745 362.667, 376L362.667, 456C362.667, 469.255 373.412, 480 386.667, 480zM181.333, 376L181.333, 456C181.333, 469.255 192.078, 480 205.333, 480L306.666, 480C319.921, 480 330.666, 469.255 330.666, 456L330.666, 376C330.666, 362.745 319.921, 352 306.666, 352L205.333, 352C192.078, 352 181.333, 362.745 181.333, 376z" fill="#727272" fill-opacity="1" class="Black" />
  </g>
</svg>