<?xml version='1.0' encoding='UTF-8'?>
<svg viewBox="-8.9969 -2 31.9975 32" xmlns="http://www.w3.org/2000/svg">
  <g transform="matrix(0.0547, 0, 0, 0.0547, 0, 0)">
    <path d="M224, 96C224, 42.981 181.019, 0 128, 0C74.981, 0 32, 42.981 32, 96L32, 299.347C12.225, 321.756 0.166, 351.136 0.002, 383.333C-0.357, 453.636 56.789, 511.509 127.091, 511.997C127.39, 511.999 127.701, 512 128, 512C198.698, 512 256, 454.696 256, 384C256, 351.541 243.912, 321.91 224, 299.347L224, 96zM128, 464L127.424, 463.998C83.564, 463.694 47.777, 427.454 48.001, 383.578C48.174, 349.598 67.267, 331.926 80, 317.498L80, 96C80, 69.533 101.533, 48 128, 48C154.467, 48 176, 69.533 176, 96L176, 317.498C188.63, 331.81 208, 349.662 208, 384C208, 428.112 172.112, 464 128, 464zM192, 384C192, 419.346 163.346, 448 128, 448C92.654, 448 64, 419.346 64, 384C64, 360.315 76.876, 339.651 96, 328.583L96, 96C96, 78.327 110.327, 64 128, 64C145.673, 64 160, 78.327 160, 96L160, 328.583C179.124, 339.651 192, 360.315 192, 384z" fill="#727272" fill-opacity="1" class="Black" />
  </g>
</svg>