<?xml version='1.0' encoding='UTF-8'?>
<svg viewBox="-1.9999 -1.9999 32 32" xmlns="http://www.w3.org/2000/svg">
  <g transform="matrix(0.0547, 0, 0, 0.0547, 0, 0)">
    <path d="M0, 56L0, 296C0, 309.255 10.745, 320 24, 320L104, 320C117.255, 320 128, 309.255 128, 296L128, 56C128, 42.745 117.255, 32 104, 32L24, 32C10.745, 32 0, 42.745 0, 56zM40, 256C40, 242.745 50.745, 232 64, 232C77.255, 232 88, 242.745 88, 256C88, 269.255 77.255, 280 64, 280C50.745, 280 40, 269.255 40, 256zM312, 512C291.817, 512 282.515, 472.707 278.069, 454.205C272.863, 432.539 267.48, 410.135 252.676, 395.303C220.207, 362.779 203.173, 321.336 163.559, 282.192A11.98 11.98 0 0 1 160.001, 273.671L160.001, 59.901C160.001, 53.36 165.244, 48.023 171.784, 47.903C187.615, 47.613 208.478, 38.824 224.435, 31.725C256.189, 17.598 295.709, 0.017 343.995, 0L346.839, 0C389.616, 0 440.202, 0.413 460.613, 29.737C469.005, 41.794 471.059, 56.771 466.761, 74.369C483.073, 91.422 491.824, 123.232 483.143, 149.126C500.687, 172.558 502.286, 205.258 492.451, 228.595L492.561, 228.705C504.454, 240.654 512.084, 259.964 512, 277.902C511.844, 308.254 485.843, 336 452.447, 336L350.723, 336C358.03, 364.34 384, 388.132 384, 430.548C384, 504 336, 512 312, 512z" fill="#727272" fill-opacity="1" class="Black" />
  </g>
</svg>