<?xml version='1.0' encoding='UTF-8'?>
<svg viewBox="-2 -3.5542 32 32" xmlns="http://www.w3.org/2000/svg">
  <g transform="matrix(0.0486, 0, 0, 0.0486, 0, 0)">
    <path d="M567.9, 223.8C497.5, 237.1 432.9, 183.5 432.9, 113C432.9, 72.4 454.8, 35 490.4, 14.9C495.9, 11.8 494.5, 3.5 488.3, 2.4C479.6, 0.8 470.7, 0 461.8, 0C383.9, 0 320.7, 61.2 317.4, 137.9C344.1, 149.8 365.6, 171.7 376.3, 199.6C413.4, 213.9 440.3, 247 446.5, 286.4C451.6, 286.9 456.5, 287.9 461.7, 287.9C506.4, 287.9 547.3, 267.7 574.3, 234.6C578.5, 229.8 574.1, 222.6 567.9, 223.8zM276, 336L218.3, 336L235.6, 271.1C237.6, 263.5 231.9, 256 224, 256L156, 256C150, 256 144.9, 260.5 144.1, 266.4L128.1, 386.4C127.1, 393.6 132.7, 400 140, 400L199.3, 400L176.3, 497.2C174.5, 504.8 180.3, 512 188, 512C192.2, 512 196.2, 509.8 198.4, 506L286.4, 354C291, 346 285.2, 336 276, 336zM350.5, 225.5C343.6, 188.3 311.2, 160 272, 160C259.7, 160 248.1, 163 237.7, 168C220.3, 143.9 192.1, 128 160, 128C107, 128 64, 171 64, 224C64, 224.5 64.2, 225.1 64.2, 225.6C27.6, 232.9 0, 265.2 0, 304C0, 348.2 35.8, 384 80, 384L96.3, 384C96.4, 383.4 96.3, 382.8 96.3, 382.2L112.3, 262.2C115.3, 240.4 134, 224 156, 224L224, 224C237.8, 224 250.5, 230.3 258.9, 241.2C267.3, 252.1 270.1, 266 266.5, 279.3L259.9, 304L275.9, 304C291.6, 304 306.2, 312.4 314, 326C321.8, 339.6 321.8, 356.5 314, 370L305.9, 384L335.9, 384C380.1, 384 415.9, 348.2 415.9, 304C416, 264.8 387.8, 232.3 350.5, 225.5z" fill="#727272" fill-opacity="1" class="Black" />
  </g>
</svg>