<?xml version='1.0' encoding='UTF-8'?>
<svg viewBox="-2 -3.554 32 32" xmlns="http://www.w3.org/2000/svg">
  <g transform="matrix(0.0486, 0, 0, 0.0486, 0, 0)">
    <path d="M128, 160L448, 160L448, 352L128, 352L128, 160zM528, 256C528, 282.51 549.49, 304 576, 304L576, 400C576, 426.51 554.51, 448 528, 448L48, 448C21.49, 448 0, 426.51 0, 400L0, 304C26.51, 304 48, 282.51 48, 256C48, 229.49 26.51, 208 0, 208L0, 112C0, 85.49 21.49, 64 48, 64L528, 64C554.51, 64 576, 85.49 576, 112L576, 208C549.49, 208 528, 229.49 528, 256zM480, 152C480, 138.745 469.255, 128 456, 128L120, 128C106.745, 128 96, 138.745 96, 152L96, 360C96, 373.255 106.745, 384 120, 384L456, 384C469.255, 384 480, 373.255 480, 360L480, 152z" fill="#727272" fill-opacity="1" class="Black" />
  </g>
</svg>