<?xml version='1.0' encoding='UTF-8'?>
<svg viewBox="-1.9999 -1.9999 32 32" xmlns="http://www.w3.org/2000/svg">
  <g transform="matrix(0.0547, 0, 0, 0.0547, 0, 0)">
    <path d="M480, 192L470.6, 192C466.17, 177.12 460.33, 162.85 453.07, 149.44L459.65, 142.86C472.15, 130.36 472.15, 110.1 459.65, 97.6L414.4, 52.35C401.9, 39.85 381.64, 39.85 369.14, 52.35L362.56, 58.93C349.15, 51.66 334.88, 45.83 320, 41.4L320, 32C320, 14.33 305.67, 0 288, 0L224, 0C206.33, 0 192, 14.33 192, 32L192, 41.4C177.12, 45.83 162.85, 51.67 149.44, 58.93L142.86, 52.35C130.36, 39.85 110.1, 39.85 97.6, 52.35L52.35, 97.61C39.85, 110.11 39.85, 130.37 52.35, 142.87L58.93, 149.45C51.66, 162.86 45.83, 177.13 41.4, 192.01L32, 192.01C14.33, 192.01 0, 206.34 0, 224.01L0, 288.01C0, 305.68 14.33, 320.01 32, 320.01L41.4, 320.01C45.83, 334.89 51.67, 349.16 58.93, 362.57L52.35, 369.15C39.85, 381.65 39.85, 401.91 52.35, 414.4L97.6, 459.66C110.1, 472.16 130.36, 472.16 142.86, 459.66L149.44, 453.08C162.85, 460.35 177.12, 466.18 192, 470.61L192, 480.01C192, 497.68 206.33, 512.01 224, 512.01L288, 512.01C305.67, 512.01 320, 497.68 320, 480.01L320, 470.61C334.88, 466.18 349.15, 460.34 362.56, 453.08L369.14, 459.66C381.64, 472.16 401.9, 472.16 414.4, 459.66L459.65, 414.4C472.15, 401.9 472.15, 381.64 459.65, 369.15L453.07, 362.57C460.34, 349.16 466.17, 334.89 470.6, 320.01L480, 320.01C497.67, 320.01 512, 305.68 512, 288.01L512, 224.01C512, 206.33 497.67, 192 480, 192zM256, 383.98C185.31, 383.98 128, 326.67 128, 255.98C128, 185.29 185.31, 127.98 256, 127.98C326.69, 127.98 384, 185.29 384, 255.98C384, 326.68 326.69, 383.98 256, 383.98zM256, 160C242.75, 160 232, 170.74 232, 184C232, 197.25 242.75, 208 256, 208C269.25, 208 280, 197.25 280, 184C280, 170.74 269.25, 160 256, 160zM256, 304C242.75, 304 232, 314.74 232, 328C232, 341.25 242.75, 352 256, 352C269.25, 352 280, 341.25 280, 328C280, 314.74 269.25, 304 256, 304zM328, 232C314.75, 232 304, 242.74 304, 256C304, 269.25 314.75, 280 328, 280C341.25, 280 352, 269.25 352, 256C352, 242.74 341.25, 232 328, 232zM184, 232C170.75, 232 160, 242.74 160, 256C160, 269.25 170.75, 280 184, 280C197.25, 280 208, 269.25 208, 256C208, 242.74 197.25, 232 184, 232z" fill="#727272" fill-opacity="1" class="Black" />
  </g>
</svg>