<?xml version='1.0' encoding='UTF-8'?>
<svg viewBox="-1.9999 -0.2478 32 31.9975" xmlns="http://www.w3.org/2000/svg">
  <g transform="matrix(0.0547, 0, 0, 0.0547, 0, 0)">
    <path d="M256, 160C229.49, 160 204.86, 167.06 182.85, 178.48L230.78, 244.45C238.75, 241.79 247.13, 240 256, 240C264.87, 240 273.25, 241.79 281.22, 244.45L329.15, 178.48C307.14, 167.06 282.51, 160 256, 160zM96, 320C96, 328.87 97.22, 337.42 98.61, 345.89L176.07, 320.72C176.07, 320.47 176, 320.24 176, 319.99C176, 302.17 182.03, 285.87 191.88, 272.58L143.65, 206.2C114.27, 235.22 96, 275.45 96, 320zM320.12, 272.59C329.97, 285.88 336, 302.18 336, 320C336, 320.25 335.93, 320.48 335.93, 320.73L413.39, 345.9C414.78, 337.42 416, 328.88 416, 320.01C416, 275.46 397.73, 235.23 368.35, 206.22L320.12, 272.59zM256, 288C238.33, 288 224, 302.33 224, 320C224, 337.67 238.33, 352 256, 352C273.67, 352 288, 337.67 288, 320C288, 302.33 273.67, 288 256, 288zM480, 448L477.39, 448C499.3, 410.36 512, 366.71 512, 320C512, 178.62 397.38, 64 256, 64C114.62, 64 0, 178.62 0, 320C0, 366.71 12.7, 410.36 34.61, 448L32, 448C14.33, 448 0, 462.33 0, 480C0, 497.67 14.33, 512 32, 512L480, 512C497.67, 512 512, 497.67 512, 480C512, 462.33 497.67, 448 480, 448zM398.7, 448L350.91, 448A160.175 160.175 0 0 0 398.42, 391.51L321, 366.36C311.04, 380.3 296.69, 390.65 280, 395.93L280, 448L232, 448L232, 395.93C215.31, 390.65 200.96, 380.29 191, 366.36L113.58, 391.51A160.175 160.175 0 0 0 161.09, 448L113.3, 448C82.76, 413.99 64, 369.2 64, 320C64, 214.13 150.13, 128 256, 128C361.87, 128 448, 214.13 448, 320C448, 369.2 429.24, 413.99 398.7, 448z" fill="#727272" fill-opacity="1" class="Black" />
  </g>
</svg>