<?xml version='1.0' encoding='UTF-8'?>
<svg viewBox="-2 -2 32 32" xmlns="http://www.w3.org/2000/svg">
  <g transform="matrix(0.0547, 0, 0, 0.0547, 0, 0)">
    <path d="M474.5, 141.54C458.33, 113.26 448, 80.61 448, 46.09L448, 17.14C448, 7.67 440.84, 0 432, 0L400, 0C391.16, 0 384, 7.16 384, 16L384, 64C384, 96 399.23, 138.85 418.94, 173.31C437.95, 206.56 448, 244.86 448, 284.08C448, 325.21 435.25, 366.57 412.2, 402.2C406.48, 411.05 396.25, 415.99 385.72, 415.99L126.29, 415.99C115.76, 415.99 105.53, 411.04 99.81, 402.2C76.76, 366.57 64.01, 325.2 64.01, 284.08C64.01, 244.86 74.06, 206.55 93.07, 173.31C112.77, 138.85 128, 96 128, 64L128, 16C128, 7.16 120.84, 0 112, 0L80, 0C71.16, 0 64, 7.67 64, 17.14L64, 46.09C64, 80.62 53.67, 113.26 37.5, 141.55C13.76, 183.06 0, 231.81 0, 284.08C0, 360.89 32.54, 430.22 80, 480L80, 496C80, 504.84 87.16, 512 96, 512L128, 512C136.84, 512 144, 504.84 144, 496L144, 480L176, 480L176, 496C176, 504.84 183.16, 512 192, 512L224, 512C232.84, 512 240, 504.84 240, 496L240, 480L272, 480L272, 496C272, 504.84 279.16, 512 288, 512L320, 512C328.84, 512 336, 504.84 336, 496L336, 480L368, 480L368, 496C368, 504.84 375.16, 512 384, 512L416, 512C424.84, 512 432, 504.84 432, 496L432, 480C479.46, 430.22 512, 360.89 512, 284.08C512, 231.81 498.24, 183.06 474.5, 141.54zM246.48, 256L265.52, 256C273.74, 256 280.62, 249.77 281.44, 241.59L294.24, 113.59C295.18, 104.17 287.79, 96 278.32, 96L233.68, 96C224.21, 96 216.82, 104.17 217.76, 113.59L230.56, 241.59C231.38, 249.77 238.26, 256 246.48, 256zM256, 288C238.33, 288 224, 302.33 224, 320C224, 337.67 238.33, 352 256, 352C273.67, 352 288, 337.67 288, 320C288, 302.33 273.67, 288 256, 288z" fill="#727272" fill-opacity="1" class="Black" />
  </g>
</svg>