<?xml version='1.0' encoding='UTF-8'?>
<svg viewBox="-2 -3.554 32 32" xmlns="http://www.w3.org/2000/svg">
  <g transform="matrix(0.0486, 0, 0, 0.0486, 0, 0)">
    <path d="M384, 64L192, 64C85.961, 64 0, 149.961 0, 256C0, 362.039 85.961, 448 192, 448L384, 448C490.039, 448 576, 362.039 576, 256C576, 149.961 490.039, 64 384, 64zM64, 256C64, 185.259 121.249, 128 192, 128C262.741, 128 320, 185.249 320, 256C320, 326.741 262.751, 384 192, 384C121.259, 384 64, 326.751 64, 256zM384, 384L335.095, 384C400.312, 311.142 400.331, 200.88 335.095, 128L384, 128C454.741, 128 512, 185.249 512, 256C512, 326.74 454.751, 384 384, 384z" fill="#727272" fill-opacity="1" class="Black" />
  </g>
</svg>