<?xml version='1.0' encoding='UTF-8'?>
<svg viewBox="-1.9949 -3.554 31.9975 32" xmlns="http://www.w3.org/2000/svg">
  <g transform="matrix(0.0486, 0, 0, 0.0486, 0, 0)">
    <path d="M128, 0C74.98, 0 32, 85.96 32, 192L32, 364.07C32, 405.19 22.2, 426.84 0.83, 490.94C-2.62, 501.3 5.09, 512 16.01, 512L296.93, 512C310.7, 512 322.93, 503.19 327.29, 490.12C340.12, 451.64 352, 417.72 352, 364.07L352, 192C352, 108.4 375.67, 38.48 412.44, 0L128, 0zM96, 224C87.16, 224 80, 216.84 80, 208C80, 199.16 87.16, 192 96, 192C104.84, 192 112, 199.16 112, 208C112, 216.84 104.84, 224 96, 224zM160, 224C151.16, 224 144, 216.84 144, 208C144, 199.16 151.16, 192 160, 192C168.84, 192 176, 199.16 176, 208C176, 216.84 168.84, 224 160, 224zM224, 224C215.16, 224 208, 216.84 208, 208C208, 199.16 215.16, 192 224, 192C232.84, 192 240, 199.16 240, 208C240, 216.84 232.84, 224 224, 224zM288, 224C279.16, 224 272, 216.84 272, 208C272, 199.16 279.16, 192 288, 192C296.84, 192 304, 199.16 304, 208C304, 216.84 296.84, 224 288, 224zM480, 0C426.98, 0 384, 85.96 384, 192C384, 298.04 426.98, 384 480, 384C533.02, 384 576, 298.04 576, 192C576, 85.96 533.02, 0 480, 0zM480, 256C462.33, 256 448, 227.35 448, 192C448, 156.65 462.33, 128 480, 128C497.67, 128 512, 156.65 512, 192C512, 227.35 497.67, 256 480, 256z" fill="#727272" fill-opacity="1" class="Black" />
  </g>
</svg>