<?xml version='1.0' encoding='UTF-8'?>
<svg viewBox="-1.9949 -3.554 31.9975 32" xmlns="http://www.w3.org/2000/svg">
  <g transform="matrix(0.0486, 0, 0, 0.0486, 0, 0)">
    <path d="M128, 0C74.98, 0 32, 85.96 32, 192L32, 364.07C32, 405.19 22.2, 426.84 0.83, 490.94C-2.62, 501.3 5.09, 512 16.01, 512L296.93, 512C310.7, 512 322.93, 503.19 327.29, 490.12C340.12, 451.64 352, 417.72 352, 364.07L352, 192C352, 108.4 375.67, 38.48 412.44, 0L128, 0zM480, 0C426.98, 0 384, 85.96 384, 192C384, 298.04 426.98, 384 480, 384C533.02, 384 576, 298.04 576, 192C576, 85.96 533.02, 0 480, 0zM480, 256C462.33, 256 448, 227.35 448, 192C448, 156.65 462.33, 128 480, 128C497.67, 128 512, 156.65 512, 192C512, 227.35 497.67, 256 480, 256z" fill="#727272" fill-opacity="1" class="Black" />
  </g>
</svg>