<?xml version='1.0' encoding='UTF-8'?>
<svg viewBox="-2 -2 32 32" xmlns="http://www.w3.org/2000/svg">
  <g transform="matrix(0.0547, 0, 0, 0.0547, 0, 0)">
    <path d="M496, 448L16, 448C7.16, 448 0, 455.16 0, 464L0, 496C0, 504.84 7.16, 512 16, 512L496, 512C504.84, 512 512, 504.84 512, 496L512, 464C512, 455.16 504.84, 448 496, 448zM448, 192C448, 85.96 362.04, 0 256, 0C149.96, 0 64, 85.96 64, 192L64, 416L448, 416L448, 192zM352, 184C352, 192.84 344.84, 200 336, 200L280, 200L280, 328C280, 336.84 272.84, 344 264, 344L248, 344C239.16, 344 232, 336.84 232, 328L232, 200L176, 200C167.16, 200 160, 192.84 160, 184L160, 168C160, 159.16 167.16, 152 176, 152L232, 152L232, 104C232, 95.16 239.16, 88 248, 88L264, 88C272.84, 88 280, 95.16 280, 104L280, 152L336, 152C344.84, 152 352, 159.16 352, 168L352, 184z" fill="#727272" fill-opacity="1" class="Black" />
  </g>
</svg>