<?xml version='1.0' encoding='UTF-8'?>
<svg viewBox="-3.7484 -1.9975 32 32" xmlns="http://www.w3.org/2000/svg">
  <g transform="matrix(0.0547, 0, 0, 0.0547, 0, 0)">
    <path d="M443.98, 96.25C432.97, 51.03 396.87, 14.19 351.97, 2.53C319.78, -5.83 288.97, 7.63 262.83, 26.86C259.58, 29.25 255.87, 30.59 252.33, 32.34L280.65, 50.55C288.07, 55.32 290.23, 65.22 285.45, 72.66C280.99, 79.61 271.18, 82.52 263.34, 77.46L162.83, 12.84C142.13, 1.99 119.45, -3.56 96.02, 2.53C51.12, 14.2 15.02, 51.03 4.01, 96.25C-6.12, 137.87 3.59, 177.06 25.51, 206.68C48.87, 238.25 58.19, 275.34 61.8, 314.03C66.2, 361.19 72.13, 408.19 82.74, 454.35L90.54, 488.3C93.73, 502.17 106.03, 512 120.21, 512C134.18, 512 146.36, 502.45 149.75, 488.84L184.22, 350.42C188.78, 332.1 205.18, 319.26 223.98, 319.26C242.78, 319.26 259.18, 332.11 263.74, 350.42L298.21, 488.84C301.6, 502.45 313.78, 512 327.75, 512C341.93, 512 354.23, 502.17 357.42, 488.3L365.22, 454.35C375.83, 408.2 381.75, 361.19 386.16, 314.03C389.77, 275.33 399.09, 238.25 422.45, 206.68C444.4, 177.07 454.11, 137.88 443.98, 96.25z" fill="#727272" fill-opacity="1" class="Black" />
  </g>
</svg>