<?xml version='1.0' encoding='UTF-8'?>
<svg viewBox="-2 -2 32 32" xmlns="http://www.w3.org/2000/svg">
  <g transform="matrix(0.0547, 0, 0, 0.0547, 0, 0)">
    <path d="M376.45, 32L135.55, 32A303.17 303.17 0 0 1 0, 0L0, 96C0, 113.67 14.33, 128 32, 128L64, 128L64, 192L16, 192C7.16, 192 0, 199.16 0, 208L0, 240C0, 248.84 7.16, 256 16, 256L64, 256L64, 496C64, 504.84 71.16, 512 80, 512L112, 512C120.84, 512 128, 504.84 128, 496L128, 256L384, 256L384, 496C384, 504.84 391.16, 512 400, 512L432, 512C440.84, 512 448, 504.84 448, 496L448, 256L496, 256C504.84, 256 512, 248.84 512, 240L512, 208C512, 199.16 504.84, 192 496, 192L448, 192L448, 128L480, 128C497.67, 128 512, 113.67 512, 96L512, 0A303.17 303.17 0 0 1 376.45, 32zM128, 128L224, 128L224, 192L128, 192L128, 128zM384, 192L288, 192L288, 128L384, 128L384, 192z" fill="#727272" fill-opacity="1" class="Black" />
  </g>
</svg>