<?xml version='1.0' encoding='UTF-8'?>
<svg viewBox="-2 -4.7992 32 32" xmlns="http://www.w3.org/2000/svg">
  <g transform="matrix(0.9988, 0, 0, 0.9988, 0, 0)">
    <g transform="matrix(0.0438, 0, 0, 0.0438, 0, 0)">
      <path d="M528, 336C479.4, 336 440, 375.4 440, 424C440, 472.6 479.4, 512 528, 512C576.6, 512 616, 472.6 616, 424C616, 375.4 576.6, 336 528, 336zM528, 448C514.77, 448 504, 437.23 504, 424C504, 410.77 514.77, 400 528, 400C541.23, 400 552, 410.77 552, 424C552, 437.23 541.23, 448 528, 448zM608, 160L544, 160L544, 119.8C544, 105.68 548.7, 92.04 557.15, 80.96C561.57, 75.16 560.7, 66.9 555.83, 61.47L534.2, 37.3C527.54, 29.85 515.88, 30.38 509.5, 38.08C490.58, 60.9 480, 89.81 480, 119.8L480, 160L377.67, 160L321.58, 29.14A47.914 47.914 0 0 0 277.45, 0L144, 0C117.53, 0 96, 21.53 96, 48L96, 194.52C87.37, 187.79 75.04, 188.06 67.11, 195.99L36, 227.1C27.41, 235.69 27.41, 249.62 36, 258.21L41.06, 263.27C36.07, 272.53 32.1, 282.09 29.15, 291.99L22, 291.99C9.85, 291.99 0, 301.84 0, 313.99L0, 357.99C0, 370.14 9.85, 379.99 22, 379.99L29.14, 379.99C32.1, 389.9 36.06, 399.45 41.05, 408.72L35.99, 413.78C27.4, 422.37 27.4, 436.3 35.99, 444.89L67.1, 476C75.69, 484.59 89.62, 484.59 98.21, 476L103.27, 470.94C112.53, 475.93 122.09, 479.9 131.99, 482.85L131.99, 490C131.99, 502.15 141.84, 512 153.99, 512L197.99, 512C210.14, 512 219.99, 502.15 219.99, 490L219.99, 482.86C229.89, 479.91 239.45, 475.94 248.71, 470.95L253.77, 476.01C262.36, 484.6 276.29, 484.6 284.88, 476.01L315.99, 444.9C324.58, 436.31 324.58, 422.38 315.99, 413.79L310.93, 408.73C315.92, 399.47 319.89, 389.91 322.84, 380.01L330, 380.01C342.15, 380.01 352, 370.16 352, 358.01L352, 352.01L432.54, 352.01C454.45, 323.02 488.86, 304.01 528, 304.01C546.64, 304.01 564.07, 308.62 579.8, 316.21L630.62, 265.39C636.62, 259.39 639.99, 251.25 639.99, 242.76L639.99, 192C640, 174.33 625.67, 160 608, 160zM176, 416C131.82, 416 96, 380.18 96, 336C96, 291.82 131.82, 256 176, 256C220.18, 256 256, 291.82 256, 336C256, 380.18 220.18, 416 176, 416zM198, 160L160, 160L160, 64L266.89, 64L308.04, 160L198, 160z" fill="#727272" fill-opacity="1" class="Black" />
    </g>
  </g>
</svg>