<?xml version='1.0' encoding='UTF-8'?>
<svg viewBox="-5.499 -1.9999 31.9975 32" xmlns="http://www.w3.org/2000/svg">
  <g transform="matrix(0.0547, 0, 0, 0.0547, 0, 0)">
    <path d="M192, 336C174.36, 336 160, 350.36 160, 368C160, 385.64 174.36, 400 192, 400C209.64, 400 224, 385.64 224, 368C224, 350.36 209.64, 336 192, 336zM384, 192L320, 192L320, 154.12C357.2, 140.9 384, 105.74 384, 64L320, 64L320, 32C320, 14.33 305.67, 0 288, 0L96, 0C78.33, 0 64, 14.33 64, 32L64, 64L0, 64C0, 105.74 26.8, 140.9 64, 154.12L64, 192L0, 192C0, 233.74 26.8, 268.9 64, 282.12L64, 320L0, 320C0, 362.84 28.25, 398.69 66.99, 411.05C79.42, 468.72 130.6, 512 192, 512C253.4, 512 304.58, 468.72 317.01, 411.05C355.75, 398.69 384, 362.84 384, 320L320, 320L320, 282.12C357.2, 268.9 384, 233.74 384, 192zM192, 416C165.49, 416 144, 394.51 144, 368C144, 341.49 165.49, 320 192, 320C218.51, 320 240, 341.49 240, 368C240, 394.51 218.51, 416 192, 416zM192, 288C165.49, 288 144, 266.51 144, 240C144, 213.49 165.49, 192 192, 192C218.51, 192 240, 213.49 240, 240C240, 266.51 218.51, 288 192, 288zM192, 160C165.49, 160 144, 138.51 144, 112C144, 85.49 165.49, 64 192, 64C218.51, 64 240, 85.49 240, 112C240, 138.51 218.51, 160 192, 160zM192, 80C174.36, 80 160, 94.36 160, 112C160, 129.64 174.36, 144 192, 144C209.64, 144 224, 129.64 224, 112C224, 94.36 209.64, 80 192, 80z" fill="#727272" fill-opacity="1" class="Black" />
  </g>
</svg>