<?xml version='1.0' encoding='UTF-8'?>
<svg viewBox="-2 -2 32 32" xmlns="http://www.w3.org/2000/svg">
  <g transform="matrix(0.0547, 0, 0, 0.0547, 0, 0)">
    <path d="M362.12, 192L149.88, 192L111.67, 288L400.32, 288L362.12, 192zM289.73, 10.08A16.01 16.01 0 0 0 274.86, 0L237.14, 0A16.01 16.01 0 0 0 222.27, 10.08L175.35, 128L336.65, 128L289.73, 10.08zM496, 448L464, 448L425.79, 352L86.21, 352L48, 448L16, 448C7.16, 448 0, 455.16 0, 464L0, 496C0, 504.84 7.16, 512 16, 512L496, 512C504.84, 512 512, 504.84 512, 496L512, 464C512, 455.16 504.84, 448 496, 448z" fill="#727272" fill-opacity="1" class="Black" />
  </g>
</svg>