<?xml version='1.0' encoding='UTF-8'?>
<svg viewBox="-1.9974 -1.9999 32 32" xmlns="http://www.w3.org/2000/svg">
  <g transform="matrix(0.0547, 0, 0, 0.0547, 0, 0)">
    <path d="M288, 64C305.7, 64 320, 49.7 320, 32C320, 14.3 305.7, 0 288, 0C270.3, 0 256, 14.3 256, 32C256, 49.7 270.3, 64 288, 64zM511.5, 51.9C509.2, 43.3 500.5, 38.3 491.9, 40.6L11.9, 168.6C3.4, 170.9 -1.7, 179.6 0.6, 188.2C2.5, 195.3 8.9, 200 16, 200C17.4, 200 18.8, 199.8 20.1, 199.5L240, 140.8L240, 224L64, 224C46.3, 224 32, 238.3 32, 256L32, 480C32, 497.7 46.3, 512 64, 512L448, 512C465.7, 512 480, 497.7 480, 480L480, 256C480, 238.3 465.7, 224 448, 224L272, 224L272, 132.3L500.1, 71.5C508.7, 69.2 513.7, 60.4 511.5, 51.9zM176, 384L80, 384L80, 288L176, 288L176, 384zM336, 288L432, 288L432, 384L336, 384L336, 288zM304, 288L304, 384L208, 384L208, 288L304, 288zM192, 96C209.7, 96 224, 81.7 224, 64C224, 46.3 209.7, 32 192, 32C174.3, 32 160, 46.3 160, 64C160, 81.7 174.3, 96 192, 96z" fill="#727272" fill-opacity="1" class="Black" />
  </g>
</svg>