<?xml version='1.0' encoding='UTF-8'?>
<svg viewBox="-5.5003 -2 32 32" xmlns="http://www.w3.org/2000/svg">
  <g transform="matrix(0.0547, 0, 0, 0.0547, 0, 0)">
    <path d="M372, 0L293, 0C282.3, 0 277, 12.9 284.5, 20.5L301.4, 37.4L220.7, 118.1C198.5, 104.1 172.2, 96 144, 96C64.5, 96 0, 160.5 0, 240C0, 308.5 47.9, 365.9 112, 380.4L112, 408L76, 408C69.4, 408 64, 413.4 64, 420L64, 460C64, 466.6 69.4, 472 76, 472L112, 472L112, 500C112, 506.6 117.4, 512 124, 512L164, 512C170.6, 512 176, 506.6 176, 500L176, 472L212, 472C218.6, 472 224, 466.6 224, 460L224, 420C224, 413.4 218.6, 408 212, 408L176, 408L176, 380.4C240.1, 365.8 288, 308.5 288, 240C288, 211.8 279.9, 185.5 265.9, 163.3L346.6, 82.6L363.5, 99.5C371.1, 107.1 384, 101.7 384, 91L384, 12C384, 5.4 378.6, 0 372, 0zM144, 320C99.9, 320 64, 284.1 64, 240C64, 195.9 99.9, 160 144, 160C188.1, 160 224, 195.9 224, 240C224, 284.1 188.1, 320 144, 320z" fill="#727272" fill-opacity="1" class="Black" />
  </g>
</svg>