<?xml version='1.0' encoding='UTF-8'?>
<svg viewBox="-2.8747 -1.9999 32 32" xmlns="http://www.w3.org/2000/svg">
  <g transform="matrix(0.0547, 0, 0, 0.0547, 0, 0)">
    <path d="M468, 0L389, 0C378.3, 0 373, 12.9 380.5, 20.5L397.4, 37.4L316.7, 118.1C294.5, 104.1 268.2, 96 240, 96C211.8, 96 185.5, 104.1 163.3, 118.1L146.8, 101.6L166.6, 81.8C171.3, 77.1 171.3, 69.5 166.6, 64.8L138.3, 36.5C133.6, 31.8 126, 31.8 121.3, 36.5L101.5, 56.3L82.5, 37.3L99.4, 20.4C107.1, 12.9 101.7, 0 91, 0L12, 0C5.4, 0 0, 5.4 0, 12L0, 91C0, 101.7 12.9, 107 20.5, 99.5L37.4, 82.6L56.4, 101.6L36.6, 121.4C31.9, 126.1 31.9, 133.7 36.6, 138.4L64.9, 166.7C69.6, 171.4 77.2, 171.4 81.9, 166.7L101.7, 146.9L118.2, 163.4C104.1, 185.5 96, 211.8 96, 240C96, 308.5 143.9, 365.9 208, 380.4L208, 408L172, 408C165.4, 408 160, 413.4 160, 420L160, 460C160, 466.6 165.4, 472 172, 472L208, 472L208, 500C208, 506.6 213.4, 512 220, 512L260, 512C266.6, 512 272, 506.6 272, 500L272, 472L308, 472C314.6, 472 320, 466.6 320, 460L320, 420C320, 413.4 314.6, 408 308, 408L272, 408L272, 380.4C336.1, 365.8 384, 308.5 384, 240C384, 211.8 375.9, 185.5 361.9, 163.3L442.6, 82.6L459.5, 99.5C467.1, 107.1 480, 101.7 480, 91L480, 12C480, 5.4 474.6, 0 468, 0zM240, 320C195.9, 320 160, 284.1 160, 240C160, 195.9 195.9, 160 240, 160C284.1, 160 320, 195.9 320, 240C320, 284.1 284.1, 320 240, 320z" fill="#727272" fill-opacity="1" class="Black" />
  </g>
</svg>