<?xml version='1.0' encoding='UTF-8'?>
<svg viewBox="-3.7495 -2 32 32" xmlns="http://www.w3.org/2000/svg">
  <g transform="matrix(0.0547, 0, 0, 0.0547, 0, 0)">
    <path d="M32, 464A48 48 0 0 0 80, 512L368, 512A48 48 0 0 0 416, 464L416, 128L32, 128zM304, 208A16 16 0 0 1 336, 208L336, 432A16 16 0 0 1 304, 432zM208, 208A16 16 0 0 1 240, 208L240, 432A16 16 0 0 1 208, 432zM112, 208A16 16 0 0 1 144, 208L144, 432A16 16 0 0 1 112, 432zM432, 32L312, 32L302.6, 13.3A24 24 0 0 0 281.1, 0L166.8, 0A23.72 23.72 0 0 0 145.4, 13.3L136, 32L16, 32A16 16 0 0 0 0, 48L0, 80A16 16 0 0 0 16, 96L432, 96A16 16 0 0 0 448, 80L448, 48A16 16 0 0 0 432, 32z" fill="#727272" fill-opacity="1" class="Black" />
  </g>
</svg>