<?xml version='1.0' encoding='UTF-8'?>
<svg viewBox="-2 -3.554 32 32" xmlns="http://www.w3.org/2000/svg">
  <g transform="matrix(0.0486, 0, 0, 0.0486, 0, 0)">
    <path d="M0, 448C0, 465.67 14.33, 480 32, 480L96, 480L96, 288L0, 288L0, 448zM0, 128L0, 256L96, 256L96, 32C42.98, 32 0, 74.98 0, 128zM352, 336C352, 344.84 344.84, 352 336, 352L240, 352C231.16, 352 224, 344.84 224, 336L224, 288L128, 288L128, 480L448, 480L448, 288L352, 288L352, 336zM480, 480L544, 480C561.67, 480 576, 465.67 576, 448L576, 288L480, 288L480, 480zM128, 256L224, 256L224, 208C224, 199.16 231.16, 192 240, 192L336, 192C344.84, 192 352, 199.16 352, 208L352, 256L448, 256L448, 32L128, 32L128, 256zM480, 32L480, 256L576, 256L576, 128C576, 74.98 533.02, 32 480, 32zM304, 304L304, 240C304, 231.16 296.84, 224 288, 224C279.16, 224 272, 231.16 272, 240L272, 304C272, 312.84 279.16, 320 288, 320C296.84, 320 304, 312.84 304, 304z" fill="#727272" fill-opacity="1" class="Black" />
  </g>
</svg>