<?xml version='1.0' encoding='UTF-8'?>
<svg viewBox="-3.7495 -2 31.9975 32" xmlns="http://www.w3.org/2000/svg">
  <g transform="matrix(0.0547, 0, 0, 0.0547, 0, 0)">
    <path d="M224, 160L250.7, 106.7L304, 80L250.7, 53.3L224, 0L197.3, 53.3L144, 80L197.3, 106.7L224, 160zM439.6, 455.6L349.8, 352L385.8, 352C411.4, 352 425.3, 325.7 409, 308.5L262.8, 154L224, 208L185.2, 154L39, 308.5C22.7, 325.7 36.6, 352 62.2, 352L98.2, 352L8.4, 455.6C-10.6, 477.5 4.6, 512 33.1, 512L414.8, 512C443.4, 512 458.5, 477.4 439.6, 455.6zM160, 312C146.7, 312 136, 301.3 136, 288C136, 274.7 146.7, 264 160, 264C173.3, 264 184, 274.7 184, 288C184, 301.3 173.3, 312 160, 312zM288, 440C274.7, 440 264, 429.3 264, 416C264, 402.7 274.7, 392 288, 392C301.3, 392 312, 402.7 312, 416C312, 429.3 301.3, 440 288, 440z" fill="#727272" fill-opacity="1" class="Black" />
  </g>
</svg>