<?xml version='1.0' encoding='UTF-8'?>
<svg viewBox="-3.7471 -1.9974 31.995 32" xmlns="http://www.w3.org/2000/svg">
  <g transform="matrix(0.0547, 0, 0, 0.0547, 0, 0)">
    <path d="M439.6, 455.6L349.8, 352L385.8, 352C411.4, 352 425.3, 322.8 409, 303.5L314.1, 192L358.9, 192C380.2, 192 391.8, 169.5 378.2, 154.7L243.3, 8.2C233.3, -2.7 214.7, -2.7 204.7, 8.2L69.9, 154.7C56.3, 169.5 67.9, 192 89.2, 192L134, 192L39, 303.5C22.7, 322.8 36.6, 352 62.2, 352L98.2, 352L8.4, 455.6C-10.6, 477.5 4.6, 512 33.1, 512L414.8, 512C443.4, 512 458.5, 477.4 439.6, 455.6zM160, 312C146.7, 312 136, 301.3 136, 288C136, 274.7 146.7, 264 160, 264C173.3, 264 184, 274.7 184, 288C184, 301.3 173.3, 312 160, 312zM232, 160C232, 146.7 242.7, 136 256, 136C269.3, 136 280, 146.7 280, 160C280, 173.3 269.3, 184 256, 184C242.7, 184 232, 173.3 232, 160zM288, 440C274.7, 440 264, 429.3 264, 416C264, 402.7 274.7, 392 288, 392C301.3, 392 312, 402.7 312, 416C312, 429.3 301.3, 440 288, 440z" fill="#727272" fill-opacity="1" class="Black" />
  </g>
</svg>