<?xml version='1.0' encoding='UTF-8'?>
<svg viewBox="-2.0011 -1.9998 32 31.9975" xmlns="http://www.w3.org/2000/svg">
  <g transform="matrix(0.0547, 0, 0, 0.0547, 0, 0)">
    <path d="M496, 235C485.33, 219 471, 207.33 453, 200L454, 200C462.67, 184 465.83, 167.5 463.5, 150.5C461.17, 133.5 454.33, 118.83 443, 106.5C431.67, 94.17 417.83, 86 401.5, 82C385.17, 78 368.67, 79.67 352, 87C349.33, 62.33 338.83, 41.67 320.5, 25C302.17, 8.33 280.67, 0 256, 0C231.33, 0 209.83, 8.33 191.5, 25C173.17, 41.67 162.67, 62.33 160, 87C143.33, 79.67 126.83, 78 110.5, 82C94.17, 86 80.33, 94.17 69, 106.5C57.67, 118.83 50.83, 133.5 48.5, 150.5C46.17, 167.5 49.67, 184 59, 200C41, 207.33 26.67, 219 16, 235C5.33, 251 0, 268.67 0, 288C0, 314.67 9.33, 337.33 28, 356C46.67, 374.67 69.33, 384 96, 384L224, 384L224, 440.45L193.71, 488.85C188.39, 499.49 196.13, 512.01 208.02, 512.01L303.98, 512.01C315.87, 512.01 323.61, 499.49 318.29, 488.85L288, 440.45L288, 384L416, 384C442.67, 384 465.33, 374.67 484, 356C502.67, 337.33 512, 314.67 512, 288C512, 268.67 506.67, 251 496, 235z" fill="#727272" fill-opacity="1" class="Black" />
  </g>
</svg>