<?xml version='1.0' encoding='UTF-8'?>
<svg viewBox="-5.499 -2 32 32" xmlns="http://www.w3.org/2000/svg">
  <g transform="matrix(0.0547, 0, 0, 0.0547, 0, 0)">
    <path d="M378.31, 378.49L298.42, 288L329.05, 288C338.06, 288 346.03, 283 349.83, 274.94C353.63, 266.9 352.38, 257.68 346.55, 250.89L268.42, 160L297.31, 160C306.41, 160 314.61, 154.65 318.17, 146.39C321.69, 138.26 320.03, 128.8 313.93, 122.31L203.66, 4.83C197.63, -1.62 186.38, -1.62 180.34, 4.83L70.06, 122.31C63.96, 128.8 62.31, 138.26 65.82, 146.39C69.38, 154.65 77.59, 160 86.69, 160L115.58, 160L37.44, 250.91C31.63, 257.69 30.38, 266.9 34.17, 274.95C37.97, 283 45.93, 288 54.95, 288L85.58, 288L5.69, 378.49C-0.31, 385.28 -1.67, 394.58 2.13, 402.75C5.88, 410.8 14.13, 416 23.14, 416L160, 416L160, 440.45L129.71, 488.85C124.39, 499.49 132.13, 512.01 144.02, 512.01L239.98, 512.01C251.87, 512.01 259.61, 499.49 254.29, 488.85L224, 440.45L224, 416L360.86, 416C369.87, 416 378.12, 410.8 381.87, 402.75C385.67, 394.58 384.31, 385.28 378.31, 378.49z" fill="#727272" fill-opacity="1" class="Black" />
  </g>
</svg>