<?xml version='1.0' encoding='UTF-8'?>
<svg viewBox="-1.9999 -1.9999 32 32" xmlns="http://www.w3.org/2000/svg">
  <g transform="matrix(0.0547, 0, 0, 0.0547, 0, 0)">
    <path d="M497.81, 368.09L417.33, 237.85L370.84, 284.35L443.39, 401.75A29 29 0 0 1 444.08, 431.75A31.73 31.73 0 0 1 415.87, 448L96.13, 448A31.73 31.73 0 0 1 67.92, 431.77A29 29 0 0 1 68.61, 401.77L228.48, 143.07C236.88, 129.47 250.53, 128 256, 128C261.47, 128 275.12, 129.47 283.52, 143.05L327.63, 214.42L274.63, 267.42A56.85 56.85 0 1 0 308.55, 301.36L507.25, 102.62A16 16 0 0 0 507.25, 80L495.94, 68.69A16 16 0 0 0 473.32, 68.69L374.11, 167.92L338, 109.39C326.28, 90.39 308.45, 77.17 288, 70.05L288, 16A16 16 0 0 0 272, 0L240, 0A16 16 0 0 0 224, 16L224, 70.05C203.59, 77.17 185.76, 90.42 174, 109.39L14.19, 368.09A92.48 92.48 0 0 0 12, 462.92A96.17 96.17 0 0 0 96.13, 512L415.87, 512A96.17 96.17 0 0 0 500, 462.92A92.48 92.48 0 0 0 497.81, 368.09z" fill="#727272" fill-opacity="1" class="Black" />
  </g>
</svg>