<?xml version='1.0' encoding='UTF-8'?>
<svg viewBox="-2 -4.7992 32 32" xmlns="http://www.w3.org/2000/svg">
  <g transform="matrix(0.9988, 0, 0, 0.9988, 0, 0)">
    <g transform="matrix(0.0438, 0, 0, 0.0438, 0, 0)">
      <path d="M624, 288L608, 288L608, 224C608, 206.33 593.67, 192 576, 192L528, 192L419.22, 56.02A64.025 64.025 0 0 0 369.24, 32L256, 32C238.33, 32 224, 46.33 224, 64L224, 192L64, 192C46.33, 192 32, 206.33 32, 224L32, 288L16, 288C7.16, 288 0, 295.16 0, 304L0, 336C0, 344.84 7.16, 352 16, 352L65.61, 352C64.85, 357.27 64, 362.52 64, 368C64, 429.86 114.14, 480 176, 480C237.86, 480 288, 429.86 288, 368C288, 362.52 287.15, 357.27 286.39, 352L353.62, 352C352.86, 357.27 352.01, 362.52 352.01, 368C352.01, 429.86 402.15, 480 464.01, 480C525.87, 480 576.01, 429.86 576.01, 368C576.01, 362.52 575.16, 357.27 574.4, 352L624, 352C632.84, 352 640, 344.84 640, 336L640, 304C640, 295.16 632.84, 288 624, 288zM288, 96L369.24, 96L446.04, 192L288, 192L288, 96zM176, 416C149.53, 416 128, 394.47 128, 368C128, 341.53 149.53, 320 176, 320C202.47, 320 224, 341.53 224, 368C224, 394.47 202.47, 416 176, 416zM464, 416C437.53, 416 416, 394.47 416, 368C416, 341.53 437.53, 320 464, 320C490.47, 320 512, 341.53 512, 368C512, 394.47 490.47, 416 464, 416z" fill="#727272" fill-opacity="1" class="Black" />
    </g>
  </g>
</svg>