<?xml version='1.0' encoding='UTF-8'?>
<svg viewBox="-1.9999 -4.7979 32 31.9975" xmlns="http://www.w3.org/2000/svg">
  <g transform="matrix(1.0011, 0, 0, 1.0011, 0, 0)">
    <g transform="matrix(0.0437, 0, 0, 0.0437, 0, 0)">
      <path d="M621.3, 237.3L562.8, 178.8C550.8, 166.8 534.5, 160.1 517.5, 160.1L480, 160.1L480, 64C480, 46.3 465.7, 32 448, 32L32, 32C14.3, 32 0, 46.3 0, 64L0, 400C0, 444.2 35.8, 480 80, 480C106.3, 480 129.4, 467.1 144, 447.6C158.6, 467.2 181.7, 480 208, 480C252.2, 480 288, 444.2 288, 400C288, 394.5 287.4, 389.2 286.4, 384L449.6, 384C448.5, 389.2 448, 394.5 448, 400C448, 444.2 483.8, 480 528, 480C572.2, 480 608, 444.2 608, 400C608, 394.5 607.4, 389.2 606.4, 384L624, 384C632.8, 384 640, 376.8 640, 368L640, 282.5C640, 265.5 633.3, 249.3 621.3, 237.3zM80, 432C62.4, 432 48, 417.6 48, 400C48, 382.4 62.4, 368 80, 368C97.6, 368 112, 382.4 112, 400C112, 417.6 97.6, 432 80, 432zM208, 432C190.4, 432 176, 417.6 176, 400C176, 382.4 190.4, 368 208, 368C225.6, 368 240, 382.4 240, 400C240, 417.6 225.6, 432 208, 432zM480, 208L517.5, 208C521.8, 208 525.8, 209.7 528.8, 212.7L572.1, 256L480, 256L480, 208zM528, 432C510.4, 432 496, 417.6 496, 400C496, 382.4 510.4, 368 528, 368C545.6, 368 560, 382.4 560, 400C560, 417.6 545.6, 432 528, 432z" fill="#727272" fill-opacity="1" class="Black" />
    </g>
  </g>
</svg>