<?xml version='1.0' encoding='UTF-8'?>
<svg viewBox="-1.9974 -4.7969 32 31.9975" xmlns="http://www.w3.org/2000/svg">
  <g transform="matrix(0.9989, 0, 0, 0.9989, 0, 0)">
    <g transform="matrix(0.0438, 0, 0, 0.0438, 0, 0)">
      <path d="M50.2, 375.6C52.5, 384.1 61.3, 389.2 69.8, 386.9L286.2, 328.9C294.7, 326.6 299.8, 317.8 297.5, 309.3L247.8, 123.8C245.5, 115.3 236.7, 110.2 228.2, 112.5L151, 133.3L175.8, 226L114, 242.5L89.2, 149.8L11.9, 170.5C3.4, 172.8 -1.7, 181.6 0.6, 190.1L50.2, 375.6zM384, 0C366.3, 0 352, 14.3 352, 32L352, 355.6L5.9, 450C1.6, 451.2 -0.9, 455.6 0.3, 459.8L12.9, 506.1C14.1, 510.4 18.5, 512.9 22.7, 511.7L416.4, 404.3C418.8, 464.1 467.6, 512 528, 512C589.9, 512 640, 461.9 640, 400L640, 0L384, 0zM528, 448C501.5, 448 480, 426.5 480, 400C480, 373.5 501.5, 352 528, 352C554.5, 352 576, 373.5 576, 400C576, 426.5 554.5, 448 528, 448z" fill="#727272" fill-opacity="1" class="Black" />
    </g>
  </g>
</svg>