<?xml version='1.0' encoding='UTF-8'?>
<svg viewBox="-1.9999 -4.7954 32 31.9975" xmlns="http://www.w3.org/2000/svg">
  <g transform="matrix(1.0011, 0, 0, 1.0011, 0, 0)">
    <g transform="matrix(0.0437, 0, 0, 0.0437, 0, 0)">
      <path d="M621.3, 237.3L562.8, 178.8C550.8, 166.8 534.5, 160.1 517.5, 160.1L464, 160.1C446.3, 160.1 432, 174.4 432, 192.1L432, 336.1L32, 336.1C14.3, 336.1 0, 350.4 0, 368.1L0, 395.9C0, 436.7 28.7, 474 69.1, 479.4C99.8, 483.5 127.4, 469.9 144, 447.7C162.4, 472.4 194.4, 486.4 229.3, 477.4C254.5, 470.9 275.4, 451.2 283.7, 426.6C288.6, 411.8 289.1, 397.4 286.5, 384.2L449.7, 384.2C447, 397.4 447.5, 411.8 452.5, 426.6C460.9, 451.7 482.4, 471.5 508.1, 477.7C560.9, 490.5 608.1, 450.8 608.1, 400.1C608.1, 394.6 607.5, 389.3 606.5, 384.1L624, 384.1C632.8, 384.1 640, 376.9 640, 368.1L640, 282.6C640, 265.5 633.3, 249.3 621.3, 237.3zM80, 432C62.4, 432 48, 417.6 48, 400C48, 382.4 62.4, 368 80, 368C97.6, 368 112, 382.4 112, 400C112, 417.6 97.6, 432 80, 432zM208, 432C190.4, 432 176, 417.6 176, 400C176, 382.4 190.4, 368 208, 368C225.6, 368 240, 382.4 240, 400C240, 417.6 225.6, 432 208, 432zM528, 432C510.4, 432 496, 417.6 496, 400C496, 382.4 510.4, 368 528, 368C545.6, 368 560, 382.4 560, 400C560, 417.6 545.6, 432 528, 432zM480, 256L480, 208L517.5, 208C521.7, 208 525.8, 209.7 528.8, 212.7L572.1, 256L480, 256zM32, 304L368, 304C385.7, 304 400, 289.7 400, 272L400, 64C400, 46.3 385.7, 32 368, 32L32, 32C14.3, 32 0, 46.3 0, 64L0, 272C0, 289.7 14.3, 304 32, 304zM304, 80L336, 80L336, 256L304, 256L304, 80zM224, 80L256, 80L256, 256L224, 256L224, 80zM144, 80L176, 80L176, 256L144, 256L144, 80zM64, 80L96, 80L96, 256L64, 256L64, 80z" fill="#727272" fill-opacity="1" class="Black" />
    </g>
  </g>
</svg>