<?xml version='1.0' encoding='UTF-8'?>
<svg viewBox="-1.9974 -4.7969 32 31.9975" xmlns="http://www.w3.org/2000/svg">
  <g transform="matrix(0.9989, 0, 0, 0.9989, 0, 0)">
    <g transform="matrix(0.0438, 0, 0, 0.0438, 0, 0)">
      <path d="M24.1, 400L320, 320.7L320, 198.7C311.7, 194.7 302, 193.1 292.4, 195.6C271.1, 201.3 258.4, 223.3 264.1, 244.6L270.3, 267.8L84.9, 317.5L78.7, 294.3C73, 273 51, 260.3 29.7, 266C8.4, 271.7 -4.3, 293.7 1.4, 315L24.1, 400zM21.4, 235.1C61, 224.5 95.1, 248.5 106.9, 278.5L232, 245C226.6, 209.3 248.5, 174.3 284.2, 164.8C286.8, 164.1 289.5, 164.1 292.2, 163.7C282.3, 126.8 246.3, 108.6 213.5, 117.4L58.9, 158.8C26.1, 167.6 4.1, 201.4 13.8, 237.9C16.3, 236.9 18.8, 235.8 21.4, 235.1zM384, 0C366.3, 0 352, 14.3 352, 32L352, 355.6L5.9, 450C1.6, 451.2 -0.9, 455.6 0.3, 459.8L12.9, 506.1C14.1, 510.4 18.5, 512.9 22.7, 511.7L416.4, 404.3C418.8, 464.1 467.6, 512 528, 512C589.9, 512 640, 461.9 640, 400L640, 0L384, 0zM528, 448C501.5, 448 480, 426.5 480, 400C480, 373.5 501.5, 352 528, 352C554.5, 352 576, 373.5 576, 400C576, 426.5 554.5, 448 528, 448z" fill="#727272" fill-opacity="1" class="Black" />
    </g>
  </g>
</svg>