<?xml version='1.0' encoding='UTF-8'?>
<svg viewBox="-2 -4.7992 32 32" xmlns="http://www.w3.org/2000/svg">
  <g transform="matrix(0.9988, 0, 0, 0.9988, 0, 0)">
    <g transform="matrix(0.0438, 0, 0, 0.0438, 0, 0)">
      <path d="M624, 64A16.27 16.27 0 0 0 611, 70.67A555.44 555.44 0 0 1 544.81, 142.35C529.43, 155.35 511.88, 168.01 492.27, 178.35C486.72, 181.29 466.52, 191.95 432.27, 191.98L400, 191.98L400, 160A16 16 0 0 0 384, 144L368, 144A16 16 0 0 0 352, 160L352, 192L312, 192L312, 160A16 16 0 0 0 296, 144L280, 144A16 16 0 0 0 264, 160L264, 192L224, 192L224, 160A16 16 0 0 0 208, 144L192, 144A16 16 0 0 0 176, 160L176, 192L48, 192A16 16 0 0 0 32, 176L16, 176A16 16 0 0 0 0, 192L0, 256A16 16 0 0 0 16, 272L32, 272A16 16 0 0 0 48, 256L81.81, 256C70.78, 274.9 64, 296.58 64, 320A128.14 128.14 0 0 0 192, 448L416, 448A96.1 96.1 0 0 0 512, 352L512, 320.57A251.78 251.78 0 0 0 477.33, 297.92C468.7, 293.37 458.57, 290.92 448, 289.51L448, 352A32 32 0 0 1 416, 384L400, 384L400, 256L432, 256C466.48, 256 486.66, 266.66 492.27, 269.62A294.39 294.39 0 0 1 541.44, 302.9C580.93, 337.55 610.53, 376.68 610.69, 376.9A16 16 0 0 0 624, 384C636.09, 384 640, 373.06 640, 368L640, 80C640, 68 629.19, 64 624, 64zM176, 381.73A63.69 63.69 0 0 1 176, 258.27zM264, 384L224, 384L224, 256L264, 256zM352, 384L312, 384L312, 256L352, 256z" fill="#727272" fill-opacity="1" class="Black" />
    </g>
  </g>
</svg>