<?xml version='1.0' encoding='UTF-8'?>
<svg viewBox="-2 -4.7992 32 32" xmlns="http://www.w3.org/2000/svg">
  <g transform="matrix(0.9988, 0, 0, 0.9988, 0, 0)">
    <g transform="matrix(0.0438, 0, 0, 0.0438, 0, 0)">
      <path d="M592, 0L48, 0A48 48 0 0 0 0, 48L0, 368A48 48 0 0 0 48, 416L288, 416L288, 448L112, 448A16 16 0 0 0 96, 464L96, 496A16 16 0 0 0 112, 512L528, 512A16 16 0 0 0 544, 496L544, 464A16 16 0 0 0 528, 448L352, 448L352, 416L592, 416A48 48 0 0 0 640, 368L640, 48A48 48 0 0 0 592, 0zM576, 352L64, 352L64, 64L576, 64z" fill="#727272" fill-opacity="1" class="Black" />
    </g>
  </g>
</svg>