<?xml version='1.0' encoding='UTF-8'?>
<svg viewBox="-1.9974 -3.5565 31.9975 32" xmlns="http://www.w3.org/2000/svg">
  <g transform="matrix(0.0486, 0, 0, 0.0486, 0, 0)">
    <path d="M575.7, 280.8C547.1, 144.5 437.3, 62.6 320, 49.9L320, 32C320, 14.3 305.7, 0 288, 0C270.3, 0 256, 14.3 256, 32L256, 49.9C138.3, 62.6 29.5, 144.5 0.3, 280.8C-1.9, 290.9 8.8, 302.1 19, 292.2C71, 237.2 126.7, 239.8 177.6, 329.2C182.9, 338.7 192.5, 337.8 197.3, 329.2C217.5, 293.8 242.2, 256 288, 256C346.5, 256 376.2, 324.8 378.7, 329.2C383.5, 337.8 393.1, 338.7 398.4, 329.2C449.4, 239.7 505.5, 237.8 557, 292.2C567.3, 302.2 577.9, 290.9 575.7, 280.8zM256, 301.7L256, 432C256, 440.8 248.8, 448 240, 448C232.2, 448 226.8, 442.7 224.9, 437.3C219, 420.6 200.8, 411.9 184.1, 417.8C167.4, 423.7 158.7, 442 164.6, 458.6C175.8, 490.5 206.2, 511.9 240, 511.9C284.1, 511.9 320, 476 320, 431.9L320, 301.6C310.9, 293.7 300.2, 288 288, 288C275.7, 288.1 265.6, 292.8 256, 301.7z" fill="#727272" fill-opacity="1" class="Black" />
  </g>
</svg>