<?xml version='1.0' encoding='UTF-8'?>
<svg viewBox="-2 -4.7972 32 32" xmlns="http://www.w3.org/2000/svg">
  <g transform="matrix(1.0013, 0, 0, 1.0013, 0, 0)">
    <g transform="matrix(0.0437, 0, 0, 0.0437, 0, 0)">
      <path d="M115.38, 136.9L217.49, 174.08C252.68, 92.54 303.7, 29.79 356.49, 0.38C260.61, -4.51 167.71, 37.34 107.96, 112.18C101.27, 120.58 105.3, 133.23 115.38, 136.9zM247.63, 185.06L486.11, 271.89C521.87, 150.51 504.81, 40.23 443.48, 17.91C436.08, 15.21 428.35, 13.91 420.39, 13.91C362.37, 13.92 292.12, 83.08 247.63, 185.06zM521.48, 60.5C527.7, 76.8 532.31, 95.1 534.68, 115.69C540.42, 165.58 533.26, 223.92 515.73, 282.67L618.35, 320.03C628.44, 323.7 639.66, 316.6 639.92, 305.86C642.24, 210.17 598.01, 118.42 521.48, 60.5zM560, 447.98L321.06, 447.98L386, 269.5L325.86, 247.6L252.96, 447.97L16, 447.97C7.16, 447.97 0, 455.13 0, 463.98L0, 495.99C0, 504.83 7.16, 512 16, 512L560, 512C568.84, 512 576, 504.83 576, 495.99L576, 463.98C576, 455.14 568.84, 447.98 560, 447.98z" fill="#727272" fill-opacity="1" class="Black" />
    </g>
  </g>
</svg>