<?xml version='1.0' encoding='UTF-8'?>
<svg viewBox="-2 -2.01 32 32" xmlns="http://www.w3.org/2000/svg">
  <g transform="matrix(0.0555, 0, 0, 0.0555, 0, 0)">
    <path d="M212.333, 224.333L12, 224.333C5.373, 224.333 0, 218.96 0, 212.333L0, 12C0, 5.373 5.373, 0 12, 0L60, 0C66.627, 0 72, 5.373 72, 12L72, 90.112C117.773, 39.279 184.26, 7.47 258.175, 8.007C395.081, 9.001 504.623, 119.63 504.332, 256.539C504.041, 393.258 393.12, 504 256.333, 504C192.244, 504 133.837, 479.687 89.823, 439.785C84.724, 435.163 84.489, 427.231 89.356, 422.365L123.323, 388.398C127.797, 383.924 134.985, 383.681 139.724, 387.873C170.76, 415.336 211.58, 432 256.333, 432C353.601, 432 432.333, 353.284 432.333, 256C432.333, 158.733 353.617, 80 256.333, 80C197.837, 80 146.053, 108.476 114.059, 152.333L212.333, 152.333C218.96, 152.333 224.333, 157.706 224.333, 164.333L224.333, 212.333C224.333, 218.96 218.96, 224.333 212.333, 224.333z" fill="#727272" fill-opacity="1" class="Black" />
  </g>
</svg>