<?xml version='1.0' encoding='UTF-8'?>
<svg viewBox="-4 0 32 32" xmlns="http://www.w3.org/2000/svg">
  <g transform="matrix(0.0625, 0, 0, 0.0625, 0, 0)">
    <path d="M384, 48C384, 39.16 376.84, 32 368, 32L304, 32C295.16, 32 288, 39.16 288, 48L288, 288C288, 347.2 234.15, 394.04 172.87, 382.14C127.29, 373.29 96, 330.64 96, 284.21L96, 48C96, 39.16 88.84, 32 80, 32L16, 32C7.16, 32 0, 39.16 0, 48L0, 288C0, 402.18 100.17, 493.4 217.26, 478.38C314.04, 465.96 384, 378.89 384, 281.32L384, 48z" fill="#727272" fill-opacity="1" class="Black" />
  </g>
</svg>