<?xml version='1.0' encoding='UTF-8'?>
<svg viewBox="-1.5477 -1.5477 32 32" xmlns="http://www.w3.org/2000/svg">
  <g transform="matrix(0.9991, 0, 0, 0.9991, 0, 0)">
    <g transform="matrix(0.0565, 0, 0, 0.0565, 0, 0)">
      <path d="M256, 48C370.953, 48 464, 141.029 464, 256C464, 370.953 370.971, 464 256, 464C141.047, 464 48, 370.971 48, 256C48, 141.047 141.029, 48 256, 48M256, 8C119.033, 8 8, 119.033 8, 256C8, 392.967 119.033, 504 256, 504C392.967, 504 504, 392.967 504, 256C504, 119.033 392.967, 8 256, 8zM256, 64C149.961, 64 64, 149.961 64, 256C64, 362.039 149.961, 448 256, 448C362.039, 448 448, 362.039 448, 256C448, 149.961 362.039, 64 256, 64zM256, 108C275.882, 108 292, 124.118 292, 144C292, 163.882 275.882, 180 256, 180C236.118, 180 220, 163.882 220, 144C220, 124.118 236.118, 108 256, 108zM373.741, 206.023C345.029, 212.802 318.23, 218.771 291.601, 221.83C292.452, 322.853 303.907, 344.882 316.638, 377.451C320.255, 386.711 315.681, 397.149 306.421, 400.766C297.16, 404.383 286.722, 399.809 283.105, 390.549C274.4, 368.241 266.019, 349.913 260.844, 312L251.158, 312C245.991, 349.851 237.624, 368.208 228.896, 390.549C225.281, 399.804 214.846, 404.385 205.581, 400.766C196.321, 397.149 191.747, 386.71 195.364, 377.451C208.077, 344.91 219.549, 322.91 220.401, 221.83C193.772, 218.772 166.973, 212.803 138.26, 206.023C129.66, 203.992 124.334, 195.375 126.365, 186.774C128.396, 178.173 137.012, 172.848 145.614, 174.879C242.3, 197.708 269.897, 197.662 366.389, 174.879C374.988, 172.849 383.607, 178.173 385.638, 186.774C387.667, 195.375 382.341, 203.993 373.741, 206.023z" fill="#727272" fill-opacity="1" class="Black" />
    </g>
  </g>
</svg>