<?xml version='1.0' encoding='UTF-8'?>
<svg viewBox="-2 -4.7992 32 32" xmlns="http://www.w3.org/2000/svg">
  <g transform="matrix(0.9988, 0, 0, 0.9988, 0, 0)">
    <g transform="matrix(0.0438, 0, 0, 0.0438, 0, 0)">
      <path d="M624, 128L480, 128L480, 384L624, 384A16 16 0 0 0 640, 368L640, 144A16 16 0 0 0 624, 128zM584, 312A16 16 0 0 1 568, 328L552, 328A16 16 0 0 1 536, 312L536, 296A16 16 0 0 1 552, 280L568, 280A16 16 0 0 1 584, 296zM584, 216A16 16 0 0 1 568, 232L552, 232A16 16 0 0 1 536, 216L536, 200A16 16 0 0 1 552, 184L568, 184A16 16 0 0 1 584, 200zM432, 96L64, 96A64 64 0 0 0 0, 160L0, 352A64 64 0 0 0 64, 416L432, 416A16 16 0 0 0 448, 400L448, 112A16 16 0 0 0 432, 96z" fill="#727272" fill-opacity="1" class="Black" />
    </g>
  </g>
</svg>