<?xml version='1.0' encoding='UTF-8'?>
<svg viewBox="-1.9999 -1.549 31.9975 32" xmlns="http://www.w3.org/2000/svg">
  <g transform="matrix(0.999, 0, 0, 0.999, 0, 0)">
    <g transform="matrix(0.0565, 0, 0, 0.0565, 0, 0)">
      <path d="M248, 8C111, 8 0, 119 0, 256C0, 393 111, 504 248, 504C385, 504 496, 393 496, 256C496, 119 385, 8 248, 8zM272, 384L272, 400C272, 408.8 264.8, 416 256, 416L240, 416C231.2, 416 224, 408.8 224, 400L224, 383.8C207.5, 383.2 191.4, 378 177.6, 368.7C168.9, 362.8 167.6, 350.6 175.3, 343.5L187.3, 332.2C192.7, 327.1 200.6, 326.8 207, 330.6C213.1, 334.2 219.9, 336 226.9, 336L271.9, 336C283.2, 336 292.4, 325.5 292.4, 312.6C292.4, 302 286.1, 292.7 277.2, 289.9L205, 268C176, 259.2 155.8, 231 155.8, 199.4C155.8, 160.1 186.4, 128.1 224, 128L224, 112C224, 103.2 231.2, 96 240, 96L256, 96C264.8, 96 272, 103.2 272, 112L272, 128.2C288.5, 128.8 304.6, 134 318.4, 143.3C327.1, 149.2 328.4, 161.4 320.7, 168.5L308.7, 179.8C303.3, 184.9 295.4, 185.2 289, 181.4C282.9, 177.8 276.1, 176 269.1, 176L224.1, 176C212.8, 176 203.6, 186.5 203.6, 199.4C203.6, 210 209.9, 219.3 218.8, 222.1L290.8, 244C319.8, 252.8 340, 281 340, 312.6C340.2, 351.9 309.6, 383.8 272, 384z" fill="#727272" fill-opacity="1" class="Black" />
    </g>
  </g>
</svg>