<?xml version='1.0' encoding='UTF-8'?>
<svg viewBox="-1.9999 -1.549 31.9975 32" xmlns="http://www.w3.org/2000/svg">
  <g transform="matrix(0.999, 0, 0, 0.999, 0, 0)">
    <g transform="matrix(0.0565, 0, 0, 0.0565, 0, 0)">
      <path d="M248, 8C111, 8 0, 119 0, 256C0, 393 111, 504 248, 504C385, 504 496, 393 496, 256C496, 119 385, 8 248, 8zM248, 104C296.6, 104 336, 143.4 336, 192C336, 240.6 296.6, 280 248, 280C199.4, 280 160, 240.6 160, 192C160, 143.4 199.4, 104 248, 104zM248, 448C189.3, 448 136.7, 421.4 101.5, 379.8C120.3, 344.4 157.1, 320 200, 320C202.4, 320 204.8, 320.4 207.1, 321.1C220.1, 325.3 233.7, 328 248, 328C262.3, 328 276, 325.3 288.9, 321.1C291.2, 320.4 293.6, 320 296, 320C338.9, 320 375.7, 344.4 394.5, 379.8C359.3, 421.4 306.7, 448 248, 448z" fill="#727272" fill-opacity="1" class="Black" />
    </g>
  </g>
</svg>