<?xml version='1.0' encoding='UTF-8'?>
<svg viewBox="-3.7483 -2 32 32" xmlns="http://www.w3.org/2000/svg">
  <g transform="matrix(0.0547, 0, 0, 0.0547, 0, 0)">
    <path d="M438.47, 97.8A18.2 18.2 0 0 0 416.55, 103C416.12, 103.57 371.74, 164.59 224, 164.59C77.12, 164.57 32.4, 104.21 31.46, 103A18 18 0 0 0 9.67, 97.63C1.91, 101.16 -1.84, 109.47 0.88, 117.07C1.23, 118.07 25.54, 183.07 96.02, 223.77L96.02, 224A128 128 0 0 0 352.02, 224L352.02, 223.78C422.47, 183 446.77, 118 447.13, 117.07C449.82, 109.53 446.1, 101.38 438.47, 97.8zM313.59, 384L296.9, 384A174.1 174.1 0 0 1 151.09, 384L134.4, 384A133.82 133.82 0 0 0 9.54, 469.8C1.66, 490.19 18.07, 512 39.94, 512L408.05, 512C429.92, 512 446.33, 490.19 438.45, 469.8A133.82 133.82 0 0 0 313.59, 384zM342.49, 113.57C331.44, 64.05 310.86, 0 278.1, 0C267.77, 0 258.55, 4.45 250.8, 10.47A42.42 42.42 0 0 1 198.72, 10.47C191, 4.45 181.75, 0 171.42, 0C138.55, 0 117.94, 64.49 106.91, 114.08C133, 124 170.75, 132.57 224, 132.57C278.17, 132.57 316.36, 123.73 342.49, 113.57z" fill="#727272" fill-opacity="1" class="Black" />
  </g>
</svg>