<?xml version='1.0' encoding='UTF-8'?>
<svg viewBox="-1.9998 -4.7991 31.9975 32" xmlns="http://www.w3.org/2000/svg">
  <g transform="matrix(0.9989, 0, 0, 0.9989, 0, 0)">
    <g transform="matrix(0.0438, 0, 0, 0.0438, 0, 0)">
      <path d="M589.6, 240L635.2, 194.4C641.5, 188.1 641.5, 177.9 635.2, 171.6L612.4, 148.8C606.1, 142.5 595.9, 142.5 589.6, 148.8L544, 194.4L498.4, 148.8C492.1, 142.5 481.9, 142.5 475.6, 148.8L452.8, 171.6C446.5, 177.9 446.5, 188.1 452.8, 194.4L498.4, 240L452.8, 285.6C446.5, 291.9 446.5, 302.1 452.8, 308.4L475.6, 331.2C481.9, 337.5 492.1, 337.5 498.4, 331.2L544, 285.6L589.6, 331.2C595.9, 337.5 606.1, 337.5 612.4, 331.2L635.2, 308.4C641.5, 302.1 641.5, 291.9 635.2, 285.6L589.6, 240zM224, 256C294.7, 256 352, 198.7 352, 128C352, 57.3 294.7, 0 224, 0C153.3, 0 96, 57.3 96, 128C96, 198.7 153.3, 256 224, 256zM313.6, 288L296.9, 288C274.7, 298.2 250, 304 224, 304C198, 304 173.4, 298.2 151.1, 288L134.4, 288C60.2, 288 0, 348.2 0, 422.4L0, 464C0, 490.5 21.5, 512 48, 512L400, 512C426.5, 512 448, 490.5 448, 464L448, 422.4C448, 348.2 387.8, 288 313.6, 288z" fill="#727272" fill-opacity="1" class="Black" />
    </g>
  </g>
</svg>