<?xml version='1.0' encoding='UTF-8'?>
<svg viewBox="-2 -4.7992 32 32" xmlns="http://www.w3.org/2000/svg">
  <g transform="matrix(0.9988, 0, 0, 0.9988, 0, 0)">
    <g transform="matrix(0.0438, 0, 0, 0.0438, 0, 0)">
      <path d="M256, 288C256, 323.35 284.66, 352 320, 352C355.35, 352 384, 323.35 384, 288C384, 252.65 355.35, 224 320, 224C284.66, 224 256, 252.65 256, 288zM480, 288C480, 323.35 508.66, 352 544, 352C579.35, 352 608, 323.35 608, 288C608, 252.65 579.35, 224 544, 224C508.66, 224 480, 252.65 480, 288zM96, 352C131.35, 352 160, 323.35 160, 288C160, 252.65 131.35, 224 96, 224C60.66, 224 32, 252.65 32, 288C32, 323.35 60.66, 352 96, 352zM576, 384L512, 384C476.66, 384 448, 412.65 448, 448L448, 480C448, 497.67 462.33, 512 480, 512L608, 512C625.67, 512 640, 497.67 640, 480L640, 448C640, 412.65 611.34, 384 576, 384zM352, 384L288, 384C252.66, 384 224, 412.65 224, 448L224, 480C224, 497.67 238.33, 512 256, 512L384, 512C401.67, 512 416, 497.67 416, 480L416, 448C416, 412.65 387.34, 384 352, 384zM128, 384L64, 384C28.66, 384 0, 412.65 0, 448L0, 480C0, 497.67 14.33, 512 32, 512L160, 512C177.67, 512 192, 497.67 192, 480L192, 448C192, 412.65 163.34, 384 128, 384zM96, 64L544, 64L544, 192C568.68, 192 590.98, 201.62 608, 216.97L608, 49.59C608, 22.25 586.47, 0 560, 0L80, 0C53.53, 0 32, 22.25 32, 49.59L32, 216.97C49.02, 201.62 71.33, 192 96, 192L96, 64z" fill="#727272" fill-opacity="1" class="Black" />
    </g>
  </g>
</svg>