<?xml version='1.0' encoding='UTF-8'?>
<svg viewBox="-2 -4.7992 32 32" xmlns="http://www.w3.org/2000/svg">
  <g transform="matrix(0.9988, 0, 0, 0.9988, 0, 0)">
    <g transform="matrix(0.0438, 0, 0, 0.0438, 0, 0)">
      <path d="M624, 208L432, 208C423.2, 208 416, 215.2 416, 224L416, 256C416, 264.8 423.2, 272 432, 272L624, 272C632.8, 272 640, 264.8 640, 256L640, 224C640, 215.2 632.8, 208 624, 208zM224, 256C294.7, 256 352, 198.7 352, 128C352, 57.3 294.7, 0 224, 0C153.3, 0 96, 57.3 96, 128C96, 198.7 153.3, 256 224, 256zM313.6, 288L296.9, 288C274.7, 298.2 250, 304 224, 304C198, 304 173.4, 298.2 151.1, 288L134.4, 288C60.2, 288 0, 348.2 0, 422.4L0, 464C0, 490.5 21.5, 512 48, 512L400, 512C426.5, 512 448, 490.5 448, 464L448, 422.4C448, 348.2 387.8, 288 313.6, 288z" fill="#727272" fill-opacity="1" class="Black" />
    </g>
  </g>
</svg>