<?xml version='1.0' encoding='UTF-8'?>
<svg viewBox="-3.7505 -1.9998 32 31.9975" xmlns="http://www.w3.org/2000/svg">
  <g transform="matrix(0.0547, 0, 0, 0.0547, 0, 0)">
    <path d="M320, 352L296.9, 352A174.08 174.08 0 0 1 151.1, 352L128, 352A128 128 0 0 0 0, 480A32 32 0 0 0 32, 512L416, 512A32 32 0 0 0 448, 480A128 128 0 0 0 320, 352zM48, 224A16 16 0 0 0 64, 208L64, 192C64, 103.78 135.78, 32 224, 32C312.22, 32 384, 103.78 384, 192L384, 208A80.09 80.09 0 0 1 304, 288L272, 288A32 32 0 0 0 240, 256L208, 256A32 32 0 0 0 208, 320L304, 320A112.14 112.14 0 0 0 416, 208L416, 192C416, 86.13 329.87, 0 224, 0C118.13, 0 32, 86.13 32, 192L32, 208A16 16 0 0 0 48, 224zM208, 224L240, 224A64 64 0 0 1 295.41, 256L304, 256A48.05 48.05 0 0 0 352, 208L352, 192A128 128 0 0 0 96, 192C96, 232.42 115.1, 268 144.35, 291.47C144.29, 290.3 144, 289.19 144, 288A64.07 64.07 0 0 1 208, 224z" fill="#727272" fill-opacity="1" class="Black" />
  </g>
</svg>