<?xml version='1.0' encoding='UTF-8'?>
<svg viewBox="-3.7495 -2 32 32" xmlns="http://www.w3.org/2000/svg">
  <g transform="matrix(0.0547, 0, 0, 0.0547, 0, 0)">
    <path d="M88, 176L360, 176A8 8 0 0 0 368, 168L368, 136A8 8 0 0 0 360, 128L352, 128A112 112 0 0 0 283.6, 24.8L256, 80L256, 16A16 16 0 0 0 240, 0L208, 0A16 16 0 0 0 192, 16L192, 80L164.4, 24.8A112 112 0 0 0 96, 128L88, 128A8 8 0 0 0 80, 136L80, 168A8 8 0 0 0 88, 176zM313.6, 352L296.9, 352A174.08 174.08 0 0 1 151.1, 352L134.4, 352A134.4 134.4 0 0 0 0, 486.4A25.6 25.6 0 0 0 25.6, 512L422.4, 512A25.6 25.6 0 0 0 448, 486.4A134.4 134.4 0 0 0 313.6, 352zM224, 320C289.22, 320 342.44, 271.06 350.39, 208L97.61, 208C105.56, 271.06 158.78, 320 224, 320z" fill="#727272" fill-opacity="1" class="Black" />
  </g>
</svg>