<?xml version='1.0' encoding='UTF-8'?>
<svg viewBox="-3.7495 -2 32 32" xmlns="http://www.w3.org/2000/svg">
  <g transform="matrix(0.0547, 0, 0, 0.0547, 0, 0)">
    <path d="M277.37, 11.98C261.08, 4.47 243.11, 0 224, 0C170.31, 0 124.5, 33.13 105.49, 80L186.68, 80L277.37, 11.98zM342.51, 80C334.61, 60.53 321.84, 43.8 306.02, 30.48L239.99, 80L342.51, 80zM224, 256C294.69, 256 352, 198.69 352, 128C352, 122.52 351.05, 117.3 350.39, 112L97.61, 112C96.94, 117.3 96, 122.52 96, 128C96, 198.69 153.31, 256 224, 256zM80, 299.7L80, 512L208.26, 512L109.81, 290.48A132.835 132.835 0 0 0 80, 299.7zM0, 464C0, 490.51 21.49, 512 48, 512L48, 320.24C18.88, 344.89 0, 381.26 0, 422.4L0, 464zM256, 416L200.62, 416L243.29, 512L256, 512C282.47, 512 304, 490.47 304, 464C304, 437.53 282.47, 416 256, 416zM313.6, 288L296.89, 288C274.65, 298.18 250.01, 304 224, 304C197.99, 304 173.35, 298.18 151.11, 288L143.74, 288L186.41, 384L256, 384C300.11, 384 336, 419.89 336, 464C336, 482.08 329.74, 498.59 319.59, 512L400, 512C426.51, 512 448, 490.51 448, 464L448, 422.4C448, 348.17 387.83, 288 313.6, 288z" fill="#727272" fill-opacity="1" class="Black" />
  </g>
</svg>