<?xml version='1.0' encoding='UTF-8'?>
<svg viewBox="-2 -4.7992 32 32" xmlns="http://www.w3.org/2000/svg">
  <g transform="matrix(0.9988, 0, 0, 0.9988, 0, 0)">
    <g transform="matrix(0.0438, 0, 0, 0.0438, 0, 0)">
      <path d="M208, 352L204.19, 352C190.26, 356.83 175.55, 360 160, 360C144.45, 360 129.74, 356.83 115.81, 352L112, 352C50.14, 352 0, 402.14 0, 464C0, 490.51 21.49, 512 48, 512L272, 512C298.51, 512 320, 490.51 320, 464C320, 402.14 269.86, 352 208, 352zM592, 0L208, 0C181.53, 0 160, 22.25 160, 49.59L160, 96C183.42, 96 205.1, 102.78 224, 113.8L224, 64L576, 64L576, 352L307.76, 352C326.86, 368.69 340.88, 390.73 347.45, 416L592, 416C618.47, 416 640, 393.75 640, 366.41L640, 49.59C640, 22.25 618.47, 0 592, 0zM160, 320C213.02, 320 256, 277.02 256, 224C256, 170.98 213.02, 128 160, 128C106.98, 128 64, 170.98 64, 224C64, 277.02 106.98, 320 160, 320zM328.97, 167.03C319.6, 157.66 304.4, 157.66 295.03, 167.03L280.28, 181.78C284.96, 195.07 288, 209.13 288, 223.99C288, 230.82 287.02, 237.4 285.98, 243.94L312, 217.94L367.03, 272.97C376.4, 282.34 391.6, 282.34 400.97, 272.97L472.97, 200.97L497.27, 225.27C508.61, 236.61 528, 228.58 528, 212.54L528, 124C528, 117.37 522.63, 112 516, 112L427.46, 112C411.42, 112 403.39, 131.39 414.73, 142.73L439.03, 167.03L384, 222.06L328.97, 167.03z" fill="#727272" fill-opacity="1" class="Black" />
    </g>
  </g>
</svg>