<?xml version='1.0' encoding='UTF-8'?>
<svg viewBox="-2 -4.8005 32 32" xmlns="http://www.w3.org/2000/svg">
  <g transform="matrix(0.9988, 0, 0, 0.9988, 0, 0)">
    <g transform="matrix(0.0438, 0, 0, 0.0438, 0, 0)">
      <path d="M630.6, 364.9L540.3, 274.7C528.3, 262.7 512, 256 495, 256L415.7, 256C398, 256 383.7, 270.3 383.7, 288L383.7, 367.2C383.7, 384.2 390.4, 400.4 402.4, 412.4L492.7, 502.6C505.2, 515.1 525.5, 515.1 538, 502.6L630.5, 410.1C643.1, 397.6 643.1, 377.4 630.6, 364.9zM447.8, 343.9C434.5, 343.9 423.8, 333.2 423.8, 319.9C423.8, 306.6 434.5, 295.9 447.8, 295.9C461.1, 295.9 471.8, 306.6 471.8, 319.9C471.8, 333.1 461.1, 343.9 447.8, 343.9zM224, 255.9C294.7, 255.9 352, 198.6 352, 127.9C352, 57.3 294.7, 0 224, 0C153.3, 0 96, 57.3 96, 128C96, 198.6 153.3, 255.9 224, 255.9zM351.8, 367.1L351.8, 294C339.6, 290.4 326.9, 287.8 313.6, 287.8L296.9, 287.8C274.7, 298 250, 303.8 224, 303.8C198, 303.8 173.4, 298 151.1, 287.8L134.4, 287.8C60.2, 287.9 0, 348.1 0, 422.3L0, 463.9C0, 490.4 21.5, 511.9 48, 511.9L400, 511.9C415.5, 511.9 429.1, 504.4 437.9, 493L379.9, 435C361.8, 416.9 351.8, 392.8 351.8, 367.1z" fill="#727272" fill-opacity="1" class="Black" />
    </g>
  </g>
</svg>