<?xml version='1.0' encoding='UTF-8'?>
<svg viewBox="-2 -4.7992 32 32" xmlns="http://www.w3.org/2000/svg">
  <g transform="matrix(0.9988, 0, 0, 0.9988, 0, 0)">
    <g transform="matrix(0.0438, 0, 0, 0.0438, 0, 0)">
      <path d="M224, 256C294.7, 256 352, 198.7 352, 128C352, 57.3 294.7, 0 224, 0C153.3, 0 96, 57.3 96, 128C96, 198.7 153.3, 256 224, 256zM313.6, 288L296.9, 288C274.7, 298.2 250, 304 224, 304C198, 304 173.4, 298.2 151.1, 288L134.4, 288C60.2, 288 0, 348.2 0, 422.4L0, 464C0, 490.5 21.5, 512 48, 512L400, 512C426.5, 512 448, 490.5 448, 464L448, 422.4C448, 348.2 387.8, 288 313.6, 288zM636.6, 159.6L608.8, 131.5C604.2, 126.8 596.7, 126.8 592, 131.4L487.2, 235.4L441.7, 189.6C437.1, 184.9 429.6, 184.9 424.9, 189.5L396.8, 217.4C392.1, 222 392.1, 229.5 396.7, 234.2L478.4, 316.5C483, 321.2 490.5, 321.2 495.2, 316.6L636.5, 176.4C641.1, 171.7 641.2, 164.2 636.6, 159.6z" fill="#727272" fill-opacity="1" class="Black" />
    </g>
  </g>
</svg>