<?xml version='1.0' encoding='UTF-8'?>
<svg viewBox="-2 -3.5543 32 32" xmlns="http://www.w3.org/2000/svg">
  <g transform="matrix(0.0486, 0, 0, 0.0486, 0, 0)">
    <path d="M53.8, 8.6L293, 230.7C321.8, 205.2 311, 214.7 341.4, 187.8C320, 151.5 324.2, 112.7 357.5, 79.4C379.3, 57.7 452.3, 6 456.2, 3.2C472.3, -8.6 493.8, 14.7 481, 29.4L399.8, 123.2C398.5, 124.7 402.8, 129.2 404.5, 127.8L501.4, 49C516.5, 36.7 539.3, 59.2 526.9, 74.5L448.1, 171.4C446.8, 173 451.2, 177.4 452.7, 176L546.5, 94.8C561.2, 82.1 584.5, 103.5 572.7, 119.7C569.9, 123.7 518.2, 196.6 496.5, 218.3C462.3, 252.6 423, 255.2 388, 234.5C361.4, 264.6 373.5, 250.8 347, 280.8L501.7, 424.4C515, 436.7 515.4, 457.7 502.5, 470.5L470.5, 502.5C457.7, 515.3 436.9, 514.9 424.5, 501.8C405.4, 479.2 223.9, 265.3 216, 256C56, 256 0, 165.9 0, 32.1C0, 4.2 33.3, -10.4 53.8, 8.6zM73.4, 470.6L105.4, 502.6C118.4, 515.6 139.8, 515 152, 501.2L269.5, 368.5L212.9, 301.7L74.8, 424C61, 436.3 60.3, 457.6 73.4, 470.6z" fill="#727272" fill-opacity="1" class="Black" />
  </g>
</svg>