<?xml version='1.0' encoding='UTF-8'?>
<svg viewBox="-7 0 32 32" xmlns="http://www.w3.org/2000/svg">
  <g transform="matrix(0.0625, 0, 0, 0.0625, 0, 0)">
    <path d="M288, 176C288, 96.5 223.5, 32 144, 32C64.5, 32 0, 96.5 0, 176C0, 244.5 47.9, 301.9 112, 316.4L112, 368L76, 368C69.4, 368 64, 373.4 64, 380L64, 420C64, 426.6 69.4, 432 76, 432L112, 432L112, 468C112, 474.6 117.4, 480 124, 480L164, 480C170.6, 480 176, 474.6 176, 468L176, 432L212, 432C218.6, 432 224, 426.6 224, 420L224, 380C224, 373.4 218.6, 368 212, 368L176, 368L176, 316.4C240.1, 301.9 288, 244.5 288, 176zM64, 176C64, 131.9 99.9, 96 144, 96C188.1, 96 224, 131.9 224, 176C224, 220.1 188.1, 256 144, 256C99.9, 256 64, 220.1 64, 176z" fill="#727272" fill-opacity="1" class="Black" />
  </g>
</svg>