<?xml version='1.0' encoding='UTF-8'?>
<svg viewBox="-2 -1.9988 32 32" xmlns="http://www.w3.org/2000/svg">
  <g transform="matrix(0.0547, 0, 0, 0.0547, 0, 0)">
    <path d="M496, 64L16, 64A16 16 0 0 0 0, 80L0, 128L512, 128L512, 80A16 16 0 0 0 496, 64zM0, 400A48 48 0 0 0 48, 448L464, 448A48 48 0 0 0 512, 400L512, 160L0, 160zM384, 349.06A47.73 47.73 0 0 0 384, 258.94L384, 224L432.86, 224C452, 245.26 464, 273.12 464, 304C464, 334.88 452, 362.73 432.86, 384L384, 384zM192, 224L320, 224L320, 384L192, 384zM79.14, 224L128, 224L128, 258.94A47.73 47.73 0 0 0 128, 349.06L128, 384L79.14, 384C60, 362.73 48, 334.87 48, 304C48, 273.13 60, 245.26 79.14, 224z" fill="#727272" fill-opacity="1" class="Black" />
  </g>
</svg>