<?xml version='1.0' encoding='UTF-8'?>
<svg viewBox="-2 -3.554 32 32" xmlns="http://www.w3.org/2000/svg">
  <g transform="matrix(0.0486, 0, 0, 0.0486, 0, 0)">
    <path d="M336.2, 64L47.8, 64C21.4, 64 0, 85.4 0, 111.8L0, 400.2C0, 426.6 21.4, 448 47.8, 448L336.2, 448C362.6, 448 384, 426.6 384, 400.2L384, 111.8C384, 85.4 362.6, 64 336.2, 64zM525.6, 101.7L416, 177.3L416, 334.7L525.6, 410.2C546.8, 424.8 576, 409.9 576, 384.4L576, 127.5C576, 102.1 546.9, 87.1 525.6, 101.7z" fill="#727272" fill-opacity="1" class="Black" />
  </g>
</svg>