<?xml version='1.0' encoding='UTF-8'?>
<svg viewBox="-1.9925 -4.7943 32 32" xmlns="http://www.w3.org/2000/svg">
  <g transform="matrix(0.9993, 0, 0, 0.9993, 0, 0)">
    <g transform="matrix(0.0438, 0, 0, 0.0438, 0, 0)">
      <path d="M632.88, 400.71L544, 352L544, 288L599.16, 270.31C610.95, 264.41 610.95, 247.59 599.16, 241.69L480, 192L480, 128L507.31, 111.7C515.03, 103.98 512.92, 90.96 503.15, 86.08L320, 0L136.85, 86.07C127.08, 90.95 124.97, 103.97 132.69, 111.69L160, 128L160, 192L40.84, 241.69C29.05, 247.59 29.05, 264.41 40.84, 270.31L96, 288L96, 352L7.12, 400.71C1.7, 404.33 -0.58, 410.34 0.12, 416C0.74, 421.01 3.69, 425.75 8.84, 428.33L64, 448L64, 496C64, 504.84 71.16, 512 80, 512L112, 512C120.84, 512 128, 504.84 128, 496L128, 448L288, 448L288, 496C288, 504.84 295.16, 512 304, 512L336, 512C344.84, 512 352, 504.84 352, 496L352, 448L512, 448L512, 496C512, 504.84 519.16, 512 528, 512L560, 512C568.84, 512 576, 504.84 576, 496L576, 448L631.15, 428.33C636.31, 425.75 639.25, 421.01 639.87, 416C640.58, 410.33 638.3, 404.32 632.88, 400.71zM224, 128L416, 128L416, 192L224, 192L224, 128zM160, 352L160, 288L480, 288L480, 352L160, 352z" fill="#727272" fill-opacity="1" class="Black" />
    </g>
  </g>
</svg>