<?xml version='1.0' encoding='UTF-8'?>
<svg viewBox="-1.9988 -2 32 32" xmlns="http://www.w3.org/2000/svg">
  <g transform="matrix(0.0547, 0, 0, 0.0547, 0, 0)">
    <path d="M160, 144C172.9, 144 184.8, 140.1 194.8, 133.6L224, 192L288, 192L317.2, 133.6C327.2, 140.1 339.1, 144 352, 144C387.3, 144 416, 115.3 416, 80C416, 44.7 387.3, 16 352, 16C336.2, 16 322, 21.9 310.8, 31.4C299.6, 12.7 279.4, 0 256, 0C232.6, 0 212.4, 12.7 201.2, 31.4C190, 21.9 175.8, 16 160, 16C124.7, 16 96, 44.7 96, 80C96, 115.3 124.7, 144 160, 144zM304.4, 224L207.6, 224C197.8, 224 188.5, 228.5 182.4, 236.3L126.8, 307.3L140, 323.8C149.8, 336 170.3, 336 180.1, 323.8C190.9, 310.3 206.9, 302.5 224.2, 302.2C241.4, 300.7 257.8, 309.2 269, 322.3L300.6, 359.1C310.4, 370.5 329.8, 370.5 339.6, 359.1L384.7, 306.5L329.7, 236.3C323.5, 228.5 314.3, 224 304.4, 224zM505.5, 460.8L404.7, 332.1L363.8, 379.8C352.8, 392.6 336.8, 400 320, 400C303.2, 400 287.2, 392.7 276.2, 379.8L244.6, 343C239.7, 337.3 232.6, 334 225.1, 334L224.7, 334C217, 334.2 209.9, 337.7 205.1, 343.7C183, 371.2 137, 371.2 115, 343.7L106.6, 333.1L6.5, 460.8C-9.4, 481.9 5.7, 512 32.1, 512L480, 512C506.3, 512 521.4, 481.9 505.5, 460.8z" fill="#727272" fill-opacity="1" class="Black" />
  </g>
</svg>