<?xml version='1.0' encoding='UTF-8'?>
<svg viewBox="-1.5497 -1.5472 32 32" xmlns="http://www.w3.org/2000/svg">
  <g transform="matrix(1.0007, 0, 0, 1.0007, 0, 0)">
    <g transform="matrix(0.0564, 0, 0, 0.0564, 0, 0)">
      <path d="M231.39, 243.48A285.56 285.56 0 0 0 208.69, 137.78C117.89, 180.18 51.19, 260.18 28.39, 354.58A249 249 0 0 0 85.29, 435.68A333.87 333.87 0 0 1 231.39, 243.48zM194.49, 109.08A284.23 284.23 0 0 0 137.09, 38.38C46.09, 88.18 -7.71, 191.28 12.09, 300.58C45.49, 217.48 110.49, 148.58 194.49, 109.08zM382.09, 274.18C390.69, 174.38 354.79, 76.68 284.59, 9.78C269.89, 8.08 232.99, 4.28 185.69, 18.28A333.87 333.87 0 0 1 279.19, 241A285 285 0 0 0 382.09, 274.18zM257.39, 283.68A286.33 286.33 0 0 0 177.19, 356.28C259.19, 413.58 361.69, 431.38 454.69, 404.08A247.15 247.15 0 0 0 496.89, 314.18A336.1 336.1 0 0 1 415.99, 324.58C361.39, 324.48 307.09, 310.48 257.39, 283.68zM159.09, 383.38C143.89, 409.38 133.39, 437.78 126.99, 467.58A247.07 247.07 0 0 0 415.99, 445.48C303.09, 461.58 212.69, 420.68 159.09, 383.38zM339.39, 22.78C394.69, 93.18 421.89, 183.98 413.99, 276.38A286.59 286.59 0 0 0 503.69, 262.18C503.69, 260.18 503.99, 258.18 503.99, 256.18C503.99, 148.38 435.29, 57.08 339.39, 22.78z" fill="#727272" fill-opacity="1" class="Black" />
    </g>
  </g>
</svg>