<?xml version='1.0' encoding='UTF-8'?>
<svg viewBox="-1.9999 -1.0656 32 32" xmlns="http://www.w3.org/2000/svg">
  <g transform="matrix(0.0583, 0, 0, 0.0583, 0, 0)">
    <path d="M215.03, 71.05L126.06, 160L24, 160C10.74, 160 0, 170.74 0, 184L0, 328C0, 341.25 10.74, 352 24, 352L126.06, 352L215.03, 440.95C230.06, 455.98 256, 445.42 256, 423.98L256, 88.02C256, 66.56 230.04, 56.04 215.03, 71.05zM480, 256C480, 192.47 447.94, 134.06 394.23, 99.76C383.04, 92.62 368.2, 95.94 361.11, 107.22C354.02, 118.5 357.33, 133.43 368.52, 140.58C408.27, 165.97 432, 209.11 432, 256C432, 302.89 408.27, 346.03 368.52, 371.42C357.33, 378.56 354.02, 393.49 361.11, 404.78C367.62, 415.14 382.23, 419.92 394.23, 412.24C447.94, 377.94 480, 319.53 480, 256zM338.23, 179.13C326.65, 172.8 312.04, 176.97 305.62, 188.58C299.23, 200.19 303.46, 214.78 315.07, 221.19C327.98, 228.28 336, 241.63 336, 256C336, 270.38 327.98, 283.72 315.08, 290.81C303.47, 297.22 299.24, 311.81 305.63, 323.42C312.06, 335.08 326.68, 339.22 338.24, 332.87C366.47, 317.32 384.01, 287.87 384.01, 255.99C384.01, 224.11 366.47, 194.67 338.23, 179.13z" fill="#727272" fill-opacity="1" class="Black" />
  </g>
</svg>