<?xml version='1.0' encoding='UTF-8'?>
<svg viewBox="-1.9998 -1.9986 32 31.995" xmlns="http://www.w3.org/2000/svg">
  <g transform="matrix(0.0547, 0, 0, 0.0547, 0, 0)">
    <path d="M215.03, 71.05L126.06, 160L24, 160C10.74, 160 0, 170.74 0, 184L0, 328C0, 341.25 10.74, 352 24, 352L126.06, 352L215.03, 440.95C230.06, 455.98 256, 445.42 256, 423.98L256, 88.02C256, 66.56 230.04, 56.04 215.03, 71.05zM461.64, 256L507.28, 210.36C513.58, 204.06 513.58, 193.84 507.28, 187.54L484.46, 164.72C478.16, 158.42 467.94, 158.42 461.64, 164.72L416, 210.36L370.36, 164.72C364.06, 158.42 353.84, 158.42 347.54, 164.72L324.72, 187.54C318.42, 193.84 318.42, 204.06 324.72, 210.36L370.36, 256L324.73, 301.63C318.43, 307.93 318.43, 318.15 324.73, 324.45L347.55, 347.27C353.85, 353.57 364.07, 353.57 370.37, 347.27L416, 301.64L461.64, 347.28C467.94, 353.58 478.16, 353.58 484.46, 347.28L507.28, 324.46C513.58, 318.16 513.58, 307.94 507.28, 301.64L461.64, 256z" fill="#727272" fill-opacity="1" class="Black" />
  </g>
</svg>