<?xml version='1.0' encoding='UTF-8'?>
<svg viewBox="-1.9999 2.741 32 31.9975" xmlns="http://www.w3.org/2000/svg">
  <g transform="matrix(0.0729, 0, 0, 0.0729, 0, 0)">
    <path d="M215.03, 72.04L126.06, 161L24, 161C10.74, 161 0, 171.74 0, 185L0, 329C0, 342.25 10.74, 353 24, 353L126.06, 353L215.03, 441.95C230.06, 456.98 256, 446.42 256, 424.98L256, 89.02C256, 67.55 230.04, 57.04 215.03, 72.04zM338.23, 180.12C326.65, 173.79 312.04, 177.96 305.62, 189.57C299.23, 201.18 303.46, 215.77 315.07, 222.18C327.98, 229.28 336, 242.62 336, 257C336, 271.38 327.98, 284.72 315.08, 291.81C303.47, 298.22 299.24, 312.81 305.63, 324.42C312.06, 336.08 326.68, 340.22 338.24, 333.87C366.47, 318.32 384.01, 288.87 384.01, 256.99C384.01, 225.11 366.47, 195.67 338.23, 180.12z" fill="#727272" fill-opacity="1" class="Black" />
  </g>
</svg>