<?xml version='1.0' encoding='UTF-8'?>
<svg viewBox="-1.9999 -4.7979 32 31.9975" xmlns="http://www.w3.org/2000/svg">
  <g transform="matrix(1.0011, 0, 0, 1.0011, 0, 0)">
    <g transform="matrix(0.0437, 0, 0, 0.0437, 0, 0)">
      <path d="M608, 320L544, 320L544, 384L566.4, 384C571.7, 384 576, 387.6 576, 392L576, 408C576, 412.4 571.7, 416 566.4, 416L73.6, 416C68.3, 416 64, 412.4 64, 408L64, 392C64, 387.6 68.3, 384 73.6, 384L96, 384L96, 320L32, 320C14.3, 320 0, 334.3 0, 352L0, 448C0, 465.7 14.3, 480 32, 480L608, 480C625.7, 480 640, 465.7 640, 448L640, 352C640, 334.3 625.7, 320 608, 320zM512, 384L512, 64.3C512, 46.4 497.5, 32 479.7, 32L160.4, 32C142.5, 32 128, 46.5 128, 64.3L128, 384L512, 384zM235.1, 157.1C228.9, 150.9 228.9, 140.7 235.1, 134.5L246.4, 123.2C252.6, 117 262.8, 117 269, 123.2L319.9, 174.1L370.8, 123.2C377, 117 387.2, 117 393.4, 123.2L404.7, 134.5C410.9, 140.7 410.9, 150.9 404.7, 157.1L353.9, 208L404.8, 258.9C411, 265.1 411, 275.3 404.8, 281.5L393.5, 292.8C387.3, 299 377.1, 299 370.9, 292.8L320, 241.9L269.1, 292.8C262.9, 299 252.7, 299 246.5, 292.8L235.2, 281.5C229, 275.3 229, 265.1 235.2, 258.9L286.1, 208L235.1, 157.1z" fill="#727272" fill-opacity="1" class="Black" />
    </g>
  </g>
</svg>