<?xml version='1.0' encoding='UTF-8'?>
<svg viewBox="-1.9975 -4.7895 32 32" xmlns="http://www.w3.org/2000/svg">
  <g transform="matrix(0.9989, 0, 0, 0.9989, 0, 0)">
    <g transform="matrix(0.0438, 0, 0, 0.0438, 0, 0)">
      <path d="M224, 224L224, 92.88C224, 56 198.67, 24.73 164.57, 19.51L39.55, 0.39C13.55, -3.61 -6.98, 23.73 2.25, 50.08L70.78, 224zM600.45, 0.39L475.45, 19.51C441.33, 24.73 416, 56 416, 92.88L416, 224L569.22, 224L637.75, 50.08C647, 23.73 626.48, -3.59 600.45, 0.39zM384, 56A40 40 0 0 0 344, 16L296, 16A40 40 0 0 0 256, 56L256, 224L384, 224zM560, 256L80, 256A16 16 0 0 0 64, 272L64, 304A16 16 0 0 0 80, 320L97.79, 320C97.48, 320.3 97.11, 320.5 96.79, 320.8A112 112 0 1 0 286.47, 416L353.53, 416A111.85 111.85 0 1 0 543.2, 320.8C542.89, 320.5 542.52, 320.3 542.2, 320L560, 320A16 16 0 0 0 576, 304L576, 272A16 16 0 0 0 560, 256zM160, 461.74A62.48 62.48 0 0 1 114.26, 416L160, 416zM160, 384L114.26, 384A62.44 62.44 0 0 1 160, 338.26zM221.25, 445.25A63.43 63.43 0 0 1 192, 461.74L192, 416L237.74, 416A63.43 63.43 0 0 1 221.25, 445.25zM192, 384L192, 338.26A62.44 62.44 0 0 1 237.74, 384zM448, 461.74A62.48 62.48 0 0 1 402.26, 416L448, 416zM448, 384L402.26, 384A62.44 62.44 0 0 1 448, 338.26zM509.25, 445.25A63.43 63.43 0 0 1 480, 461.74L480, 416L525.74, 416A63.34 63.34 0 0 1 509.25, 445.25zM480, 384L480, 338.26A62.44 62.44 0 0 1 525.74, 384z" fill="#727272" fill-opacity="1" class="Black" />
    </g>
  </g>
</svg>