<?xml version='1.0' encoding='UTF-8'?>
<svg viewBox="-3.7559 -2 32 32" xmlns="http://www.w3.org/2000/svg">
  <g transform="matrix(0.9991, 0, 0, 0.9991, 0, 0)">
    <g transform="matrix(0.0547, 0, 0, 0.0547, 0, 0)">
      <path d="M416, 392.88L416, 96A96 96 0 0 0 320, 0L190.66, 0A95.62 95.62 0 0 0 96, 80L0.24, 487.77A16 16 0 0 0 13.24, 506.28L44.78, 511.76A16 16 0 0 0 63.28, 498.76L127.81, 224L352, 224L352, 392.88A64 64 0 1 0 416, 392.88zM352, 160L142.83, 160L159.09, 90.75A31.91 31.91 0 0 1 190.66, 64L320, 64A32 32 0 0 1 352, 96zM384, 464A16 16 0 1 1 400, 448A16 16 0 0 1 384, 464z" fill="#727272" fill-opacity="1" class="Black" />
    </g>
  </g>
</svg>