<?xml version='1.0' encoding='UTF-8'?>
<svg viewBox="-5.5003 -2 32 32" xmlns="http://www.w3.org/2000/svg">
  <g transform="matrix(0.0547, 0, 0, 0.0547, 0, 0)">
    <path d="M352, 96L320, 96L320, 80A16 16 0 0 0 304, 64L272, 64A16 16 0 0 0 256, 80L256, 96L224, 96L224, 80A16 16 0 0 0 208, 64L176, 64A16 16 0 0 0 160, 80L160, 96L112, 96L112, 16A16 16 0 0 0 96, 0L80, 0A16 16 0 0 0 64, 16L64, 96L32, 96A32.09 32.09 0 0 0 0, 128L0, 306.74A32 32 0 0 0 9.37, 329.37L32, 352L32, 464A48 48 0 0 0 80, 512L304, 512A48 48 0 0 0 352, 464L352, 352L374.63, 329.37A32 32 0 0 0 384, 306.74L384, 128A32.09 32.09 0 0 0 352, 96zM288, 312A8 8 0 0 1 280, 320L104, 320A8 8 0 0 1 96, 312L96, 296A8 8 0 0 1 104, 288L280, 288A8 8 0 0 1 288, 296zM288, 248A8 8 0 0 1 280, 256L104, 256A8 8 0 0 1 96, 248L96, 232A8 8 0 0 1 104, 224L280, 224A8 8 0 0 1 288, 232zM288, 184A8 8 0 0 1 280, 192L104, 192A8 8 0 0 1 96, 184L96, 168A8 8 0 0 1 104, 160L280, 160A8 8 0 0 1 288, 168z" fill="#727272" fill-opacity="1" class="Black" />
  </g>
</svg>