<?xml version='1.0' encoding='UTF-8'?>
<svg viewBox="-2 -1.9988 32 32" xmlns="http://www.w3.org/2000/svg">
  <g transform="matrix(0.0547, 0, 0, 0.0547, 0, 0)">
    <path d="M461.2, 128L80, 128C71.16, 128 64, 120.84 64, 112C64, 103.16 71.16, 96 80, 96L464, 96C472.84, 96 480, 88.84 480, 80C480, 53.49 458.51, 32 432, 32L64, 32C28.65, 32 0, 60.65 0, 96L0, 416C0, 451.35 28.65, 480 64, 480L461.2, 480C489.22, 480 512, 458.47 512, 432L512, 176C512, 149.53 489.22, 128 461.2, 128zM416, 336C398.33, 336 384, 321.67 384, 304C384, 286.33 398.33, 272 416, 272C433.67, 272 448, 286.33 448, 304C448, 321.67 433.67, 336 416, 336z" fill="#727272" fill-opacity="1" class="Black" />
  </g>
</svg>