<?xml version='1.0' encoding='UTF-8'?>
<svg viewBox="-2 -1.9988 32 32" xmlns="http://www.w3.org/2000/svg">
  <g transform="matrix(0.0547, 0, 0, 0.0547, 0, 0)">
    <path d="M400, 192C408.84, 192 416, 184.84 416, 176L416, 148.04L507.87, 46.21C513.59, 39.89 513.35, 30.19 507.32, 24.16L487.84, 4.69C481.81, -1.34 472.11, -1.58 465.79, 4.14L186.6, 256L144, 256C135.16, 256 128, 263.16 128, 272L128, 308.87L10.53, 414.84C-3.04, 427.12 -3.57, 448.26 9.37, 461.2L50.8, 502.63C63.74, 515.57 84.88, 515.04 97.16, 501.47L376.34, 192L400, 192z" fill="#727272" fill-opacity="1" class="Black" />
  </g>
</svg>