<?xml version='1.0' encoding='UTF-8'?>
<svg viewBox="-5.4977 -1.9999 31.9975 32" xmlns="http://www.w3.org/2000/svg">
  <g transform="matrix(0.0547, 0, 0, 0.0547, 0, 0)">
    <path d="M192, 80C289.2, 80 368, 158.8 368, 256C368, 353.2 289.2, 432 192, 432C94.8, 432 16, 353.2 16, 256C16, 158.8 94.8, 80 192, 80M192, 56C239.4, 56 284.4, 72.6 320, 102.3L320, 24C320, 10.7 309.3, 0 296, 0L88, 0C74.7, 0 64, 10.7 64, 24L64, 102.3C99.6, 72.6 144.5, 56 192, 56zM192, 456C144.5, 456 99.6, 439.3 64, 409.7L64, 488C64, 501.3 74.7, 512 88, 512L296, 512C309.3, 512 320, 501.3 320, 488L320, 409.7C284.4, 439.4 239.4, 456 192, 456zM245, 325.7L263.8, 299.8C267.7, 294.4 266.5, 286.9 261.2, 283L220, 253L220, 160C220, 153.4 214.6, 148 208, 148L176, 148C169.4, 148 164, 153.4 164, 160L164, 275.4C164, 279.2 165.8, 282.8 168.9, 285.1L228.2, 328.3C233.6, 332.3 241.1, 331.1 245, 325.7z" fill="#727272" fill-opacity="1" class="Black" />
  </g>
</svg>