<?xml version='1.0' encoding='UTF-8'?>
<svg viewBox="-5.499 -1.9999 31.9975 32" xmlns="http://www.w3.org/2000/svg">
  <g transform="matrix(0.0547, 0, 0, 0.0547, 0, 0)">
    <path d="M64, 480C64, 497.67 78.33, 512 96, 512L288, 512C305.67, 512 320, 497.67 320, 480L320, 464L64, 464L64, 480zM320, 32C320, 14.33 305.67, 0 288, 0L96, 0C78.33, 0 64, 14.33 64, 32L64, 48L320, 48L320, 32zM320, 80L64, 80C28.65, 80 0, 108.65 0, 144L0, 368C0, 403.35 28.65, 432 64, 432L320, 432C355.35, 432 384, 403.35 384, 368L384, 144C384, 108.65 355.35, 80 320, 80zM286.57, 262.21L201.9, 347.85A13.89 13.89 0 0 1 182.1, 347.85L97.43, 262.21C72.83, 237.33 74.27, 196.08 101.76, 173.13C125.72, 153.11 161.41, 156.71 183.38, 178.94L192, 187.66L200.62, 178.94C222.59, 156.71 258.28, 153.12 282.24, 173.13C309.73, 196.09 311.17, 237.34 286.57, 262.21z" fill="#727272" fill-opacity="1" class="Black" />
  </g>
</svg>