<?xml version='1.0' encoding='UTF-8'?>
<svg viewBox="-1.9999 -3.5553 31.9975 32" xmlns="http://www.w3.org/2000/svg">
  <g transform="matrix(0.0486, 0, 0, 0.0486, 0, 0)">
    <path d="M562.1, 447.9C540.6, 445.5 520, 437.4 504.2, 425C490.1, 413.9 470, 413.7 456, 425C418.1, 455.4 348.8, 455.4 310.3, 423.5C296.8, 412.3 277.3, 414.4 263.6, 425.3C225.6, 455.4 156.7, 455.3 118.4, 423.6C104.9, 412.4 85.1, 414.7 71.3, 425.6C55.8, 437.8 35.3, 445.7 13.6, 448C5.7, 448.8 0, 455.8 0, 463.7L0, 495.9C0, 505 7.6, 512.7 16.7, 511.9C45.5, 509.4 72.8, 500.5 96.1, 486C152.6, 520.6 233.1, 520.1 288.1, 486C344.6, 520.6 425.1, 520.1 480.1, 486C503.4, 500.2 531, 509.3 559.2, 511.8C568.3, 512.6 575.9, 504.9 575.9, 495.8L575.9, 464.2C576, 456.2 570.2, 448.8 562.1, 447.9zM562.1, 303.9C540.6, 301.5 520, 293.4 504.2, 281C490.1, 269.9 470, 269.7 456, 281C418.1, 311.4 348.8, 311.4 310.3, 279.5C296.8, 268.3 277.3, 270.4 263.6, 281.3C225.6, 311.4 156.7, 311.3 118.4, 279.6C104.9, 268.4 85.1, 270.7 71.3, 281.6C55.8, 293.8 35.3, 301.7 13.6, 304C5.7, 304.8 0, 311.8 0, 319.7L0, 351.9C0, 361 7.6, 368.7 16.7, 367.9C45.5, 365.4 72.8, 356.5 96.1, 342C152.6, 376.6 233.1, 376.1 288.1, 342C344.6, 376.6 425.1, 376.1 480.1, 342C503.4, 356.2 531, 365.3 559.2, 367.8C568.3, 368.6 575.9, 360.9 575.9, 351.8L575.9, 320.2C576, 312.2 570.2, 304.8 562.1, 303.9zM190.8, 128L256, 128L256, 208C256, 216.8 263.2, 224 272, 224L304, 224C312.8, 224 320, 216.8 320, 208L320, 128L385.2, 128C399.5, 128 406.6, 110.7 396.4, 100.6L300, 5C293.4, -1.6 282.6, -1.6 276, 5L179.6, 100.7C169.4, 110.7 176.6, 128 190.8, 128z" fill="#727272" fill-opacity="1" class="Black" />
  </g>
</svg>