<?xml version='1.0' encoding='UTF-8'?>
<svg viewBox="-2 -4.8455 32 32" xmlns="http://www.w3.org/2000/svg">
  <g transform="matrix(0.9988, 0, 0, 0.9988, 0, 0)">
    <g transform="matrix(0.0438, 0, 0, 0.0438, 0, 0)">
      <path d="M624, 263L580.31, 263L567.66, 179A24 24 0 0 0 544.56, 159L544.44, 159C534.94, 159 523.06, 166.22 520.53, 177.95L500.16, 281L471.75, 83.44A24 24 0 0 0 424.34, 83.05L385.84, 322.05L343.78, 19.59A24 24 0 0 0 296.22, 19.59L254.16, 322.06L215.66, 83.06A24 24 0 0 0 168.25, 83.45L139.84, 281L119.47, 178A23.54 23.54 0 0 0 95.88, 159L95.38, 159A24 24 0 0 0 72.38, 179L59.69, 263L16, 263A16 16 0 0 0 0, 279L0, 295A16 16 0 0 0 16, 311L97.19, 311L120.53, 428C123.09, 439.89 132.47, 447.42 144.66, 447A24.08 24.08 0 0 0 167.75, 426.55L193.25, 248.47L232.34, 491C234.16, 502.13 244.97, 510.8 256.19, 511.05A24 24 0 0 0 279.78, 490.44L320, 200.7L360.22, 490.41A24 24 0 0 0 407.66, 490.95L446.75, 248.45L472.25, 426.58A24 24 0 0 0 495.25, 447C507.25, 447 517.09, 439 519.44, 428.05L542.78, 311.05L624, 311.05A16 16 0 0 0 640, 295.05L640, 279A16 16 0 0 0 624, 263z" fill="#727272" fill-opacity="1" class="Black" />
    </g>
  </g>
</svg>