<?xml version='1.0' encoding='UTF-8'?>
<svg viewBox="-1.9975 -4.7983 32 32" xmlns="http://www.w3.org/2000/svg">
  <g transform="matrix(0.9989, 0, 0, 0.9989, 0, 0)">
    <g transform="matrix(0.0438, 0, 0, 0.0438, 0, 0)">
      <path d="M464, 480C373.48, 480 331.16, 372.06 290.2, 267.69C258.64, 187.2 222.88, 96 176, 96C136.3, 96 84.62, 177.89 61.88, 245A16 16 0 0 1 42.14, 255.33L11.42, 246.12A16 16 0 0 1 0.84, 225.68C19.55, 169.79 82.16, 32 176, 32C266.52, 32 308.84, 139.94 349.8, 244.31C381.36, 324.8 417.12, 416 464, 416C503.7, 416 555.38, 334.11 578.12, 267A16 16 0 0 1 597.86, 256.67L628.58, 265.88A16 16 0 0 1 639.16, 286.31C620.45, 342.21 557.84, 480 464, 480z" fill="#727272" fill-opacity="1" class="Black" />
    </g>
  </g>
</svg>