<?xml version='1.0' encoding='UTF-8'?>
<svg viewBox="-3.6745 -2 31.9975 32" xmlns="http://www.w3.org/2000/svg">
  <g transform="matrix(0.0547, 0, 0, 0.0547, 0, 0)">
    <path d="M402.29, 438.6L353.1, 407.85C411.21, 367.39 449.33, 300.19 449.33, 224C449.33, 100.29 349.04, 0 225.33, 0C101.62, 0 1.33, 100.29 1.33, 224C1.33, 300.19 39.45, 367.39 97.56, 407.85L48.37, 438.6A32 32 0 0 0 33.37, 465.74L33.37, 480A32 32 0 0 0 65.37, 512L385.37, 512A32 32 0 0 0 417.37, 480L417.37, 465.74A32 32 0 0 0 402.29, 438.6zM225.29, 384A160 160 0 1 1 385.29, 224A160 160 0 0 1 225.33, 384zM225.29, 96A128 128 0 1 0 353.29, 224A128 128 0 0 0 225.33, 96zM225.29, 176A48.05 48.05 0 0 0 177.29, 224A16 16 0 0 1 145.29, 224A80.09 80.09 0 0 1 225.29, 144A16 16 0 1 1 225.29, 176z" fill="#727272" fill-opacity="1" class="Black" />
  </g>
</svg>