<?xml version='1.0' encoding='UTF-8'?>
<svg viewBox="-1.9987 -1.9975 32 32" xmlns="http://www.w3.org/2000/svg">
  <g transform="matrix(0.0547, 0, 0, 0.0547, 0, 0)">
    <path d="M510.28, 445.86L437.25, 153.73C433.45, 138.54 420.81, 128.01 406.38, 128.01L346.13, 128.01C349.7, 117.96 352.01, 107.29 352.01, 96.01C352.01, 42.99 309.03, 0.01 256.01, 0.01C202.99, 0.01 160.01, 42.99 160.01, 96.01C160.01, 107.29 162.31, 117.96 165.89, 128.01L105.64, 128.01C91.21, 128.01 78.56, 138.55 74.77, 153.73L1.72, 445.86C-6.61, 479.17 16.38, 512 48.03, 512L463.98, 512C495.62, 512 518.61, 479.17 510.28, 445.86zM256, 128C238.36, 128 224, 113.64 224, 96C224, 78.36 238.36, 64 256, 64C273.64, 64 288, 78.36 288, 96C288, 113.64 273.64, 128 256, 128z" fill="#727272" fill-opacity="1" class="Black" />
  </g>
</svg>