<?xml version='1.0' encoding='UTF-8'?>
<svg viewBox="-1.9975 -1.9975 32 32" xmlns="http://www.w3.org/2000/svg">
  <g transform="matrix(0.0547, 0, 0, 0.0547, 0, 0)">
    <path d="M481.7, 113.55C507.1, 86.12 514.17, 41.47 511.45, 0.55C482.47, -1.39 431.2, 0.29 398.9, 30.43C361.7, 67.78 367.91, 134.73 369.14, 143.43C410.72, 146.21 454.14, 139.28 481.7, 113.55zM438.19, 169.55C422.09, 173.42 404.95, 176 386.01, 176C379.67, 176 373.32, 175.78 367.01, 175.36L341.11, 173.63L337.46, 147.93C337.14, 145.64 332.48, 110.6 342.11, 72.05C329.25, 40.12 301.12, 16.62 296.32, 13.02C268.44, 37.4 245.51, 69.05 244.35, 102.54C245.44, 131.02 263.01, 158.94 285.28, 181.47L243.8, 222.95C245.39, 216.98 246.6, 210.89 246.82, 204.56C246.73, 157.7 200.74, 119.52 194.5, 114.83C166.62, 139.21 143.69, 170.86 142.53, 204.35C143.63, 232.83 161.19, 260.75 183.46, 283.28L141.98, 324.76C143.57, 318.79 144.78, 312.7 145, 306.37C144.91, 259.51 98.92, 221.33 92.68, 216.64C64.8, 241.02 41.87, 272.67 40.72, 306.16C41.81, 334.64 59.38, 362.56 81.65, 385.09L9.38, 457.38C-3.12, 469.88 -3.12, 490.13 9.38, 502.63C15.63, 508.88 23.81, 512 32, 512C40.19, 512 48.38, 508.88 54.63, 502.62L126.87, 430.38C149.6, 453.15 177.23, 470.55 206.27, 471.55C239.48, 470.27 271.98, 446.66 296, 419.23C279, 399.79 245.72, 368.62 206.48, 367.26C199.86, 367.27 193.49, 368.37 187.28, 369.97L228.69, 328.56C251.42, 351.33 279.05, 368.73 308.09, 369.73C341.3, 368.45 373.8, 344.84 397.82, 317.41C380.82, 297.97 347.54, 266.8 308.3, 265.44C301.68, 265.45 295.31, 266.55 289.1, 268.15L330.51, 226.74C353.24, 249.51 380.87, 266.91 409.91, 267.91C443.12, 266.63 475.62, 243.02 499.64, 215.59C486.88, 200.99 464.94, 179.79 438.19, 169.55z" fill="#727272" fill-opacity="1" class="Black" />
  </g>
</svg>