<?xml version='1.0' encoding='UTF-8'?>
<svg viewBox="-2 -4.8017 32 32" xmlns="http://www.w3.org/2000/svg">
  <g transform="matrix(0.9988, 0, 0, 0.9988, 0, 0)">
    <g transform="matrix(0.0438, 0, 0, 0.0438, 0, 0)">
      <path d="M232, 256C232, 269.2 221.2, 280 208, 280C194.8, 280 184, 269.2 184, 256C184, 242.8 194.8, 232 208, 232C221.2, 232 232, 242.8 232, 256zM484, 206.3L634, 326.3C640.7, 331.7 642, 341.5 636.8, 348.4L558.6, 452.7C553.8, 459.2 544.9, 461 537.9, 457L387.5, 371C312.1, 484.4 150.8, 492.8 61, 403C-4.5, 337.5 -17.1, 239.2 23, 161C8.6, 149.2 0, 131.3 0, 112C0, 76.7 28.7, 48 64, 48C83.2, 48 100.9, 56.9 113, 71.5C178.3, 37.9 257.4, 40.7 320, 80.8L406.6, 144.4C411.9, 148.6 413.9, 155.7 411.7, 162.1L401.5, 191.6C400.4, 194.8 401.4, 198.3 404.1, 200.5L429.3, 220.7C431.9, 222.8 435.5, 223 438.4, 221.3L465.8, 205.1C471.6, 201.7 478.8, 202.2 484, 206.3zM85.5, 88.3C79.7, 83 72, 80 64, 80C46.3, 80 32, 94.3 32, 112C32, 120.1 35.3, 127.4 40.4, 133.2C55.6, 112.6 67.7, 101.3 85.5, 88.3zM280, 256C280, 216.3 247.7, 184 208, 184C168.3, 184 136, 216.3 136, 256C136, 295.7 168.3, 328 208, 328C247.7, 328 280, 295.7 280, 256z" fill="#727272" fill-opacity="1" class="Black" />
    </g>
  </g>
</svg>