<?xml version='1.0' encoding='UTF-8'?>
<svg viewBox="5.5382 6.6158 32 32" xmlns="http://www.w3.org/2000/svg">
  <g transform="matrix(0.0673, 0, 0, 0.0673, 0, 0)">
    <path d="M384, 416C384, 451.35 355.35, 480 320, 480C284.65, 480 256, 451.35 256, 416C256, 380.65 284.65, 352 320, 352C355.35, 352 384, 380.65 384, 416zM523.24, 291.56C529.79, 285.1 529.57, 274.5 522.67, 268.41C407.41, 166.48 232.46, 166.59 117.33, 268.41C110.43, 274.51 110.21, 285.1 116.76, 291.56L151.2, 325.55C157.2, 331.47 166.86, 331.87 173.25, 326.35C257.2, 253.78 382.99, 253.94 466.74, 326.35C473.13, 331.87 482.79, 331.48 488.79, 325.55L523.24, 291.56z" fill="#727272" fill-opacity="1" class="Black" />
  </g>
</svg>