<?xml version='1.0' encoding='UTF-8'?>
<svg viewBox="-2 -1.9988 32 32" xmlns="http://www.w3.org/2000/svg">
  <g transform="matrix(0.0547, 0, 0, 0.0547, 0, 0)">
    <path d="M464, 32L48, 32C21.5, 32 0, 53.5 0, 80L0, 432C0, 458.5 21.5, 480 48, 480L464, 480C490.5, 480 512, 458.5 512, 432L512, 80C512, 53.5 490.5, 32 464, 32zM128, 128C128, 145.7 113.7, 160 96, 160C78.3, 160 64, 145.7 64, 128C64, 110.3 78.3, 96 96, 96C113.7, 96 128, 110.3 128, 128zM224, 128C224, 145.7 209.7, 160 192, 160C174.3, 160 160, 145.7 160, 128C160, 110.3 174.3, 96 192, 96C209.7, 96 224, 110.3 224, 128zM320, 128C320, 145.7 305.7, 160 288, 160C270.3, 160 256, 145.7 256, 128C256, 110.3 270.3, 96 288, 96C305.7, 96 320, 110.3 320, 128z" fill="#727272" fill-opacity="1" class="Black" />
  </g>
</svg>