<?xml version='1.0' encoding='UTF-8'?>
<svg viewBox="-2 -1.9988 32 32" xmlns="http://www.w3.org/2000/svg">
  <g transform="matrix(0.0547, 0, 0, 0.0547, 0, 0)">
    <path d="M464, 32L48, 32C21.5, 32 0, 53.5 0, 80L0, 432C0, 458.5 21.5, 480 48, 480L464, 480C490.5, 480 512, 458.5 512, 432L512, 80C512, 53.5 490.5, 32 464, 32zM256, 96C256, 113.7 241.7, 128 224, 128C206.3, 128 192, 113.7 192, 96C192, 78.3 206.3, 64 224, 64C241.7, 64 256, 78.3 256, 96zM352, 96C352, 113.7 337.7, 128 320, 128C302.3, 128 288, 113.7 288, 96C288, 78.3 302.3, 64 320, 64C337.7, 64 352, 78.3 352, 96zM448, 96C448, 113.7 433.7, 128 416, 128C398.3, 128 384, 113.7 384, 96C384, 78.3 398.3, 64 416, 64C433.7, 64 448, 78.3 448, 96z" fill="#727272" fill-opacity="1" class="Black" />
  </g>
</svg>