<?xml version='1.0' encoding='UTF-8'?>
<svg viewBox="-2 -2 32 32" xmlns="http://www.w3.org/2000/svg">
  <g transform="matrix(0.0547, 0, 0, 0.0547, 0, 0)">
    <path d="M256, 380.6L352, 366.9L352, 161.1L256, 147.4L256, 380.6zM112, 401.1L192, 389.7L192, 138.3L112, 126.9L112, 401.1zM498.3, 182L416, 170.3L416, 357.7L498.3, 345.9C506.2, 344.8 512, 338 512, 330.1L512, 197.9C512, 189.9 506.1, 183.2 498.3, 182zM56, 0C25.1, 0 0, 25.1 0, 56C0, 78.3 13.1, 97.4 32, 106.4L32, 496C32, 504.8 39.2, 512 48, 512L64, 512C72.8, 512 80, 504.8 80, 496L80, 106.4C98.9, 97.4 112, 78.3 112, 56C112, 25.1 86.9, 0 56, 0z" fill="#727272" fill-opacity="1" class="Black" />
  </g>
</svg>