<?xml version='1.0' encoding='UTF-8'?>
<svg viewBox="-8.1233 -2 32 32" xmlns="http://www.w3.org/2000/svg">
  <g transform="matrix(0.0547, 0, 0, 0.0547, 0, 0)">
    <path d="M216, 464L176, 464L176, 346.81C244.47, 330.92 294.05, 266.9 287.4, 192.65L271.45, 14.55C270.71, 6.31 263.9, 0 255.74, 0L32.26, 0C24.11, 0 17.29, 6.31 16.56, 14.55L0.6, 192.66C-6.05, 266.91 43.53, 330.93 112, 346.82L112, 464L72, 464C49.91, 464 32, 481.91 32, 504C32, 508.42 35.58, 512 40, 512L248, 512C252.42, 512 256, 508.42 256, 504C256, 481.91 238.09, 464 216, 464zM61.75, 48L226.25, 48L233.42, 128L54.58, 128L61.75, 48z" fill="#727272" fill-opacity="1" class="Black" />
  </g>
</svg>