<?xml version='1.0' encoding='UTF-8'?>
<svg viewBox="-1.9988 -2 32 32" xmlns="http://www.w3.org/2000/svg">
  <g transform="matrix(0.0547, 0, 0, 0.0547, 0, 0)">
    <path d="M507.73, 109.1C505.49, 100.07 494.19, 97.01 487.61, 103.59L413.25, 177.95L345.37, 166.64L334.06, 98.76L408.42, 24.4C415.04, 17.78 411.85, 6.5 402.76, 4.24C355.38, -7.5 303.21, 5.15 266.18, 42.17C226.54, 81.81 215.63, 139.27 232.13, 189.37L18.74, 402.76C-6.25, 427.75 -6.25, 468.27 18.74, 493.26C43.73, 518.25 84.25, 518.25 109.24, 493.26L322.45, 280.05C372.57, 296.76 429.92, 285.73 469.82, 245.83C506.89, 208.76 519.52, 156.51 507.73, 109.1zM64, 472C50.75, 472 40, 461.25 40, 448C40, 434.74 50.75, 424 64, 424C77.25, 424 88, 434.74 88, 448C88, 461.25 77.25, 472 64, 472z" fill="#727272" fill-opacity="1" class="Black" />
  </g>
</svg>