<?xml version='1.0' encoding='UTF-8'?>
<svg viewBox="-3.9988 0 32 32" xmlns="http://www.w3.org/2000/svg">
  <g transform="matrix(0.0625, 0, 0, 0.0625, 0, 0)">
    <path d="M351.2, 32L285.9, 32C281.3, 32 277.1, 34.6 275.1, 38.7L219.7, 151.9C205.2, 186.6 192.6, 223.8 192.6, 223.8L191.3, 223.8C191.3, 223.8 178.7, 186.6 164.2, 151.9L108.8, 38.7C106.8, 34.6 102.6, 32 98, 32L32.8, 32C23.7, 32 18, 41.7 22.2, 49.6L102.3, 200L44, 200C37.4, 200 32, 205.4 32, 212L32, 244C32, 250.6 37.4, 256 44, 256L132.2, 256L152, 293.2L152, 320L44, 320C37.4, 320 32, 325.4 32, 332L32, 364C32, 370.6 37.4, 376 44, 376L152, 376L152, 468C152, 474.6 157.4, 480 164, 480L220, 480C226.6, 480 232, 474.6 232, 468L232, 376L340, 376C346.6, 376 352, 370.6 352, 364L352, 332C352, 325.4 346.6, 320 340, 320L232, 320L232, 293.2L251.8, 256L340, 256C346.6, 256 352, 250.6 352, 244L352, 212C352, 205.4 346.6, 200 340, 200L281.7, 200L361.8, 49.6C366.1, 41.7 360.3, 32 351.2, 32z" fill="#727272" fill-opacity="1" class="Black" />
  </g>
</svg>